<svg xmlns="http://www.w3.org/2000/svg" width="42" height="42" fill="none" viewBox="0 0 42 42"><path stroke="#000" stroke-linecap="round" stroke-width="4.5" d="m24.5 38.4 4.1-1q2.3-.7 2.7-1.1.7-.6 2.4-3c.8-1 1.3-1.5 1.8-2.4q.6-1.1 1.3-2.8a18 18 0 0 0 1-9.5l-1.1-6.2a8 8 0 0 0-1-2.8q-.6-.9-3-2.5a10 10 0 0 0-4.5-1.7 44 44 0 0 0-9.7-.1q-2.8.7-3.6 1.3c-1 .6-2.2 2.5-3 3.6L10.1 13q-1.8 3.7-2 4.3l-.7 1"/><path stroke="#000" stroke-linecap="round" stroke-width="4.5" d="m17.2 18.2-1.8.2c-1.6 0-4.5.3-6.1.4-1.7.1-1.5 0-1.6 0M5 8.2l.3 1.7 1.4 5.6.6 3.1"/></svg>