<svg xmlns="http://www.w3.org/2000/svg" width="89" height="140" fill="none"><path fill="#000" d="M81.4 1.1a22 22 0 0 0-1.8.6c-1-.3-2-.2-3 .2a9.4 9.4 0 0 1-2.5.7V2a.9.9 0 0 0-.1-.3c-1.5-.4-3-.5-4.6-.2a39.3 39.3 0 0 1-9.7 0A221.4 221.4 0 0 0 39 .3c-.6.1-1 .5-1.2 1a5 5 0 0 0-.2 3.4l.1.1a2.7 2.7 0 0 0 .6.3h.4a1.5 1.5 0 0 1 .3 0 14.8 14.8 0 0 0 0 1.7 100.4 100.4 0 0 0-2.6 11.6c-.4 3.2-1 6.3-1.5 9.5-.4 2.4-1 4.8-1.6 7.1-.9 3.1-1.7 6.3-2.4 9.5a107.2 107.2 0 0 1-3.3 12 16 16 0 0 0-1.9-2.3v-.5c.1-.5 0-.9-.1-1.3a36 36 0 0 1-1-2.5l-1-2.4-.1-.1a2.4 2.4 0 0 0 0-.2 23.3 23.3 0 0 0 .3-4.1 7 7 0 0 0-2.6-5h.2a2.3 2.3 0 0 0 .4 0 3.8 3.8 0 0 0 1-.5c.2 0 .3-.2.5-.3v-.1a230.4 230.4 0 0 0 .3-.7l.1-.3V36l.1-.2a1.4 1.4 0 0 0 .2-.3v-.1a1.4 1.4 0 0 0 .2-.5v-.2l.3-.4.3-.6v-1.1a7.2 7.2 0 0 1-.4-2l.1-2c.1-2.5-1-4.4-3-5.5a6 6 0 0 0-4.4-.7c-1.3.3-2.4.8-3.4 1.6-1.1.8-1.8 2-2.2 3.4-.1.5-.2 1.1 0 1.7a55.1 55.1 0 0 1 .3 4.8v.1l-1.1 1.2c-.5.5-1 1-1.6 1.3a14.6 14.6 0 0 0-7.5 9.2v-.1a177.2 177.2 0 0 0-.6 6.7 30.2 30.2 0 0 0 1.6 6.3c.4 2.7.1 5.3-.7 7.9l-.3.7C1 68.9.4 70.7.1 72.6c-.3 2 0 3.8 1 5.6a15.6 15.6 0 0 0 .3 1V82A40.6 40.6 0 0 0 3 90.8a21 21 0 0 1 1.6 4.4 3.6 3.6 0 0 1-.2 1l-.2.3a31.1 31.1 0 0 0-.8 1.3 178 178 0 0 0-1.6 2.4 9 9 0 0 0-.7 4.4c.1 1.4.3 2.6.6 3.8a77.2 77.2 0 0 1 1.3 8.7 26.3 26.3 0 0 0-.3 2.2l-.3 1.3c-.1 1.1.2 2 1 2.7.9.7 1.8 1.2 3 1.6l.6.2a1180.5 1180.5 0 0 0 3.6.9 5.4 5.4 0 0 0 3-.4 36.2 36.2 0 0 1 2-1l.1-.2.1-.1c0-.4-.1-.8-.3-1-.7-1.2-1.6-2-2.7-2.8a17 17 0 0 1-1-.6l2-.5c.4-.2.9-.2 1.3 0 2 .4 4 .7 6.1.7 1.6 0 2.4-.7 2.4-2.2a2 2 0 0 0-1.1-1.3l-3.4-1.4c-1.4-.6-2.6-1.4-3.6-2.4v-1c.2-2.6.7-5.1 1.4-7.6a79.8 79.8 0 0 0 1.7-6.3v-.2a1 1 0 0 0 0-.4 64.6 64.6 0 0 1 0-1V96c.3-.2.6-.5.7-.8.4-1 .8-1.9 1-3a6.5 6.5 0 0 0 0-2.3 3.4 3.4 0 0 0-.1-.4l.1-.4a47.4 47.4 0 0 0 .8-9c.6-.3 1.1-.7 1.5-1.5.3-.6.4-1.3.2-2-.2-.5-.4-1-.8-1.4l.4-.5.8-1h.1a10.7 10.7 0 0 1 1.1-.6 81.4 81.4 0 0 1-.3 1.1v1.2l.1.3.6.6a2.8 2.8 0 0 0 1 .2l.4-.1.4-.3.3-.3.1-.1v-.1h.1a1.5 1.5 0 0 1 .2-.1h.4l.5.2.5.1c.3.2.5.3.8.3l.6.1h.2a5.3 5.3 0 0 0 1-.5 2.7 2.7 0 0 0 .5-.8l.1.2h.4v.2a3 3 0 0 0 .2.2.7.7 0 0 0 .1 0l.1.1h.2a2.6 2.6 0 0 0 .3 0l.1-.1.1-.1.2-.4v-.7a.5.5 0 0 0 0-.1.6.6 0 0 0-.2-.1 2.6 2.6 0 0 0-1-.3V73c0-.5 0-1-.3-1.4v-.1a5 5 0 0 0-.6-1.5c-.3-.5-.4-1-.5-1.5v-.1a.8.8 0 0 0-.2-.1v-.1l-.2-1.5-.6-3.5a15.1 15.1 0 0 0-2-5.6c.2-.3.2-.6.3-1 1-3.2 1.9-6.4 2.6-9.7A128 128 0 0 1 34.4 34a420.9 420.9 0 0 0 3.3-18.4 54 54 0 0 1 1.8-7.7l.8 1.1a4.7 4.7 0 0 0 4.3 1.2l.8-.3.2-.2L47.1 8c.5-.6.7-1.2.7-2h.3l.3.1.5.1h.2l.7-.2c.3 2 .4 4.2.3 6.3-.2 3-.1 6 .2 9l.2 1.7c.4 1.8.6 3.6.8 5.5l1 9.3a146.3 146.3 0 0 1 1 15c0 3.2.4 6.4 1 9.6a106.8 106.8 0 0 1 1.5 17.2 611.6 611.6 0 0 0 2.1 28.8l.5 9.7a69 69 0 0 0 1 11.2l-.2.1a26.8 26.8 0 0 1 0 .4V130l.4.4c.4.2.9.3 1.3.2H62.1l.1.1.2.1h.1l.1.1h3l3.3-.3.2.2h.4c0 .6.2 1.2.3 1.7l-.1.2-.5.4-.3.3a2.4 2.4 0 0 0-.3.1l-.2.1v.1a5.1 5.1 0 0 1-.1.2 1.5 1.5 0 0 0 0 .5v3c-.1.9.1 1.6.7 2.1h.2c.3.1.6.1.8 0 .4 0 .6-.1.6-.2h.1a4 4 0 0 1 .4-.2c.4.2.8.3 1.1.2l.2.1h.4a84.7 84.7 0 0 1 2-.8h.1v-.1a.4.4 0 0 0 .1-.1v-1.2a298.5 298.5 0 0 1 5.3-5.4 58.3 58.3 0 0 0 4.5-5v.2h.1v.1h.2v.1h.2v.1h.2l.6-.1c1.4-.5 1.8-1.3 1.5-2.5a10.2 10.2 0 0 1-.4-3.5v-.1a4.4 4.4 0 0 0-.2-.2l-.3-.2h-.2a36.3 36.3 0 0 1-.3-.2 2.6 2.6 0 0 0-.4-.2H85.5l-.4-.1.2-1.3v-2.4l.1-.1.2-1.1v-1a59.6 59.6 0 0 1 2.3-1.8l.1-.1.1-.2a239.7 239.7 0 0 1-.2-14 252.6 252.6 0 0 0-.4-11.2h.2a1.6 1.6 0 0 0 .1 0 .8.8 0 0 0 .2-.2l.1-.2a.7.7 0 0 0 0-.4V86l-.2-.1-.5-.2a1.7 1.7 0 0 0 0-.2 1.2 1.2 0 0 0 .2-.1V78.2a473 473 0 0 1 .1-38.2 484.3 484.3 0 0 1 .6-12.1v-9.7c0-2.4.1-4.8.4-7.2.3-2.3.2-4.6-.2-6.8.6-1 .7-2.1.1-3.4-.3-.3-.7-.4-1.2-.4-2 0-4 .2-6 .7Zm6.1.6v.9a53.9 53.9 0 0 1-.1 1l-.2.1A19.5 19.5 0 0 0 82 5.3h-.7a19.3 19.3 0 0 0-4.1 1.1 6 6 0 0 0-.2-1.9h.1c1.6-.8 3.1-1.4 4.8-2 1.8-.6 3.6-.8 5.5-.8Zm-.4 3.5h.2a41.6 41.6 0 0 1 0 4.7c-.2 3.3-.4 6.7-.4 10v9.8a104 104 0 0 1-.8 14 147 147 0 0 0-.2 11.6 2157.3 2157.3 0 0 0 .2 19.5 224.8 224.8 0 0 1 0 10.7 11.2 11.2 0 0 1-2.6-.7c0-.2-.2-.4-.5-.5l-.2-.2h-.2l-.1-.2h.2l.1-.2.1-.1V77a340.4 340.4 0 0 1 0-29.2v-2.3c-.2-3.2-.2-6.3 0-9.5.3-3 .4-6 .4-9 0-2.8 0-5.7.2-8.6l.2-9.5v-.2a3.3 3.3 0 0 0 .1-.5 6.5 6.5 0 0 0 0-.3V6.1c1-.4 2.2-.8 3.3-1Zm-4.8 2.5.1-.5v1.2a353.3 353.3 0 0 0-.5 9 138.2 138.2 0 0 1 .4-9.7Zm-6.3-4h-.2a93 93 0 0 1 .2 0Zm.7 5.7L77 8l.8-.3a34 34 0 0 0 1.7-.8 39.6 39.6 0 0 1 1.6-.3l-.2 1.8a120.3 120.3 0 0 0-.2 17.3 247.7 247.7 0 0 1-.2 24.1c-.1 3.2-.3 6.4-.3 9.7l-.4 9.7a126 126 0 0 0-.1 16.3h-.4a1 1 0 0 0-.5.3c-.5.8-1.2 1.5-2 2L75.7 89v-.2a129 129 0 0 1 .5-12l.1-9c0-3.5.2-7 .4-10.5a365.6 365.6 0 0 0 0-40.6 68 68 0 0 0 0-7.2ZM53.4 4.2l-.3.2-.3.1v.1l-.1.1V5.4a2.3 2.3 0 0 0 .1.5V6a3 3 0 0 0 .4.8A14885.6 14885.6 0 0 1 55 19.7l.8 9.6c.3 3.2.5 6.5.5 9.7a143 143 0 0 0 1.4 19.2A284.2 284.2 0 0 1 59 72.4a1488.7 1488.7 0 0 1 3.2 39.1l.1 3c0 3.2.1 6.5.5 9.7a.6.6 0 0 0 0 .3l.2.5c0 .1 0 .3.2.4l.2.4 1.2.3a42.9 42.9 0 0 0 4.6.4 3322.7 3322.7 0 0 0 0 2.8h-.8a5.6 5.6 0 0 1-1 .2h.2a171.2 171.2 0 0 0-4.6 0H62.7l-.1-.1-.2-.1h-.2a6.6 6.6 0 0 0-1.5 0c0-1 0-2-.2-3.2a49 49 0 0 1-1-8.7 202.4 202.4 0 0 0-1.1-19.6 292.4 292.4 0 0 1-1-16.9 162 162 0 0 0-2.2-21.5 582.7 582.7 0 0 1-1.4-19.6 421.2 421.2 0 0 0-2.2-19.6c-.2-1.2-.2-2.4-.1-3.6a38.3 38.3 0 0 0-.9-11.9.7.7 0 0 0-.4-.2l-.7.1-.7.2a16.9 16.9 0 0 0-1-.1 2 2 0 0 0-.5 0h-.2L47 5h-.2l-.2.6c0 .6-.2 1.3-.6 1.8l-1.4 1.4-.9.2c-.5.1-1 0-1.5-.2a12 12 0 0 1-1.3-.9 7.7 7.7 0 0 1-.4-2l-.2-1.3c0-.2-.2-.3-.4-.5l-.6-.2h-.6V3.1l.2-.6v-.8a3.3 3.3 0 0 1 .7-.4h3A812.4 812.4 0 0 0 62 3a124.8 124.8 0 0 0 11-.1h.2c-.9.4-1.5 1-2 1.8V5h-.4a41.1 41.1 0 0 0-3.6-.1L66 4.7a1246.3 1246.3 0 0 0-12.5-.5Zm.8 1.7a11.3 11.3 0 0 1-.1-.4h.9c2.5.2 5.1.4 7.8.4 2.8 0 5.6.2 8.4.5l-.1.9-.2 3c-.3 3.3-.4 6.5-.4 9.7a269 269 0 0 1 0 14.9c.2 1.9.2 3.8.2 5.8v9.7c0 2.8 0 5.6-.3 8.5-.2 3.2-.3 6.4-.3 9.7 0 3.1 0 6.3-.3 9.5a315.8 315.8 0 0 0-.5 16.5c0 3.2-.2 6.4-.4 9.7-.2 3.2-.3 6.4-.2 9.6a1587.2 1587.2 0 0 0 .4 11.3 243 243 0 0 0-4.8-.6 2.8 2.8 0 0 0-.1-.3v-.2l-.1-.1V123.7a2.1 2.1 0 0 0-.1-.2l-.2-4-.1-4.7A1310 1310 0 0 0 61 80a98.9 98.9 0 0 0-1-10.3A6450 6450 0 0 1 58 46.2l-.3-5.9c0-3.5-.2-7-.5-10.6l-.8-9.4a155.1 155.1 0 0 0-1.6-13.4v-.2l-.2-.4a3 3 0 0 1-.3-.4Zm18.5 0 .1-.2.1-.2.8-.2c.6 0 1.1 0 1.7-.2h.4v2a17.3 17.3 0 0 0-.4 3.5 971.5 971.5 0 0 0 .3 26.9V39l-.2 9.3-.3 9a145.8 145.8 0 0 0-.3 10.8 116.6 116.6 0 0 1-.5 14.6v9.6c.2 2.4.2 4.8-.1 7.2a100.3 100.3 0 0 0-.2 13.6l.5 9.6a40 40 0 0 1-1 9.7h-.4a7.8 7.8 0 0 0-2.2 0v-.1a3.2 3.2 0 0 0 0-.2 4281.6 4281.6 0 0 1-.9-18.7c0-3.3 0-6.6.2-10A370 370 0 0 0 71 84a586.2 586.2 0 0 0 .6-19.6 525.6 525.6 0 0 0 .3-41 1310.4 1310.4 0 0 1 .7-17.5h.1ZM18.6 23.6c.4 0 1 0 1.4.2a4 4 0 0 1 2.8 2.5l.1 1a22.1 22.1 0 0 0 .5 6 1 1 0 0 1 0 .2h-.1v.1a6 6 0 0 0-.2.3l-.1.2v.1a5.5 5.5 0 0 0-.1.3.8.8 0 0 0-.1.1l-.1.2v.2a28.6 28.6 0 0 0-.3.7 14.2 14.2 0 0 0-.3.6 9.8 9.8 0 0 1-.6.4H21l-.4-.1h-.3l-.3-.2a71.8 71.8 0 0 0-1.7-1l-.3-.3-.5-.6c-.2-.2-.5-.3-.7-.3H16.5a1.3 1.3 0 0 0-.2.1v.1l-.1.1v.1l-.1.1v.2a.8.8 0 0 0 0 .3h.1v.1l.1.1a3.6 3.6 0 0 0 .4.2c0 .2.3.4.5.6a8.5 8.5 0 0 0 1.8 1.3v.2l-.1.1a.8.8 0 0 0 0 .2v.1l.7.6 1.4 1c.4.5.8 1 1 1.5.2.3.2.6.2 1a46 46 0 0 1 0 4.5l-.1.1v.8a1.4 1.4 0 0 0 .3.7l.4 1c.4.5.7 1.1 1 1.8l.6 1.9v.4l-.1.2a1.9 1.9 0 0 0 0 .6l.1.3v.2a2.6 2.6 0 0 0 0 .2 11 11 0 0 1 .8.7H25c.8.8 1.4 1.7 2 2.7a65 65 0 0 0-1.6 8.1l-1.6-1.3c-.8-.6-1.5-1.4-2.1-2.2a10.4 10.4 0 0 1-2-6l-.1-.1v-.1l-.1-.4a1397.5 1397.5 0 0 1 0-.9V55a10.8 10.8 0 0 1 0-.6l.9-.7.8-.8c.5-.6 1-1.2 1.2-2v-.2h-.1v-.2a1 1 0 0 0-.3-.2h-.6l-.1.1-.3.3-.9 1.4c-.3.4-.8.8-1.3 1.1a.6.6 0 0 0-.2 0 .8.8 0 0 0-.1 0 6.6 6.6 0 0 0 .7-4.6 30.2 30.2 0 0 0-.4-.3l-.1-.1h-.1a1 1 0 0 0-.4 0v.1l-.1.2-.1.1v2a4 4 0 0 1-.5 2 673 673 0 0 1-.5.5 4.7 4.7 0 0 1-3.5.5v-.2c0-1.3-.3-2.5-.7-3.7v-.2a891.6 891.6 0 0 0 1-3.8v-.2l-.1-.1-.2-.2-.1-.1H13a1 1 0 0 0-.2 0l-.2.2-.1.3-.7 2.2a8 8 0 0 0-.3 2.5l.2.2.1.1.2 1a22.2 22.2 0 0 1-.7 8v.2c0 1.1.3 2 .9 3l3 4.4a38.6 38.6 0 0 1 3.8 7.5l.6.5h.3l.6.2.5.3a4.9 4.9 0 0 1 .4.5l.2.2a2.4 2.4 0 0 1 0 .3l.1.2v.3a16 16 0 0 0-.5 1v.2a1 1 0 0 1-.2 0l-.5.1h-.8l-.5-.3a149.2 149.2 0 0 1-2.8-2.4 455.2 455.2 0 0 0-4-5A62 62 0 0 1 8 64.1a.8.8 0 0 0-.2 0c0-.6-.2-1-.5-1.5a15.9 15.9 0 0 1-2.5-12.5v-.1h.1l.1-.3v-.4l-.1-.5-.1-.5-.2-.7a7 7 0 0 1-.3-1.6c0-.7.2-1.2.4-1.7h.1v-.1l.1-.1A1.1 1.1 0 0 0 5 44V43.4l-.2-.2h-.2a.8.8 0 0 0-.3 0c.8-1.6 1.9-3 3.2-4.1l.8-.4 1.5-.9a7 7 0 0 0 2-1.8 33.8 33.8 0 0 0 1.3-1.4.5.5 0 0 0 0-.2v-.2l-.1-.1c.3-.4.4-1 .4-1.5a34 34 0 0 0-.4-2.5c-.3-1.3-.1-2.6.4-3.8l.3-.3.5-.6.4-.5c1.3-.7 2.6-1.1 4-1.2Zm-16 23.5.3-1.1v.8a22.2 22.2 0 0 0 .6 2.7 10 10 0 0 0-.4 2v3.7l-.3-.9a4 4 0 0 1-.3-1.3c-.2-2-.1-4 .2-5.9Zm25 12.4.8 2.5c.5 2 .8 4.2 1 6.3v.2h.1v.1h.1v.2h.2c.1.8.3 1.4.7 2 .3.7.6 1.5.7 2.2l-.2.5-.3.3v.4a57.1 57.1 0 0 0-.6.4h-.5a4.8 4.8 0 0 1-.4-.3H29a4.9 4.9 0 0 0-.3 0 4.2 4.2 0 0 0-.7-.4 5.9 5.9 0 0 0 .2-.6v-.5l-.1-.1h.1l.1-.1a17.3 17.3 0 0 1 .2-.2V72a1 1 0 0 0 0-.4h-.1l-.4-.3h-.6a10.8 10.8 0 0 0-.4-.2h-.5l.2-.6a5.8 5.8 0 0 1 .4-.9l.4-.6c.2-.2.3-.4.3-.7V68l-.1-.1h-.1v-.1a.4.4 0 0 0-.2-.1H27l-1-.9v-.3a81 81 0 0 1 1.6-7ZM27 72.7a2 2 0 0 0-.3.8l-.3 1-.8.5s-.1 0 0-.2v-.4a3 3 0 0 0 0-.3l.1-.4a9.6 9.6 0 0 0 .3-1.2h.1l.9.2Zm6 2.5ZM18.3 54.6l-.2.4V56l-.1.2v2l-.4.7a7 7 0 0 0-1 2.5l-.2 3.4-.1.3a2.8 2.8 0 0 0-.4.6 53.3 53.3 0 0 1-3.1-5.5V60a1.1 1.1 0 0 0-.2-.3c.3-.5.5-1 .6-1.6l.5-3c1.3.2 2.4 0 3.6-.5.4-.1.7-.4 1-.7v.6Zm1.4 2.2Zm-1.3 3.7.5-.8c.4 1.8 1.2 3.4 2.4 4.8s2.5 2.5 4 3.4a45.5 45.5 0 0 1-1.6 4l-.1.1-.5.3c-.4.2-.8.5-1.2 1l-.7 1-1-.3v-.1l-.1-.1v-.1l-.4-.9A33.8 33.8 0 0 0 17 67l.1-.6.1-.1.5-1.1.1-1.8.2-.6V62l.1-.3v-.3l.1-.2v-.4l.2-.2ZM4 62c.1-.9.2-1.7.1-2.5l.2.5a43.3 43.3 0 0 0 4 7.8 18.3 18.3 0 0 1-3.7-1c-.4 0-.8 0-1.2-.2v-.1a6 6 0 0 0 .5-1.8l.1-2.7Zm5.3 7.3h.1a30.4 30.4 0 0 0 3.6 4.4h.1a25.1 25.1 0 0 0 .9 1.2 4.2 4.2 0 0 1 .6.9 11.7 11.7 0 0 0 .6.9l-.2.3-.2.1a5 5 0 0 1-1.3.6 47 47 0 0 0-.6-2.6l-.1-.1-.2-.1a1.4 1.4 0 0 0-.4-.1 1.5 1.5 0 0 0-.2 0 30.2 30.2 0 0 0-.3.3v1.2l.7 2.8a8.8 8.8 0 0 1-1 .4h-.3l-.7.2-.8.2h-1l-3.2-.2c-.9 0-1.8-.2-2.6-.3V79a7 7 0 0 0-.5-1.4 8 8 0 0 1-.7-5.7c.3-1.4.8-2.7 1.3-4h.5l.5.2 2.3.6 3 .6Zm16.7-.5a14.1 14.1 0 0 0-1.1 2.6 27.4 27.4 0 0 0 1-2.9l.1.3Zm-7.3 11.4V80h-.2v-.1l.1-.3a6.8 6.8 0 0 0 1.2.5v.3c.2 1.6.1 3.1-.1 4.7a92 92 0 0 1-.8 4.6v.3a1.6 1.6 0 0 1 .2.9V91.5a38.7 38.7 0 0 1-.7 2.2A15.3 15.3 0 0 0 18 95h-.1a1 1 0 0 0-.2.2l-.1.2-.1.4a6.8 6.8 0 0 1-.1 1.4 3.9 3.9 0 0 0 0 .4 93.6 93.6 0 0 0-3.2 13.8c-.2 1.5.3 2.6 1.6 3.4a72 72 0 0 0 6.6 3.5V118.5l-.1.1H22a11 11 0 0 1-5-.4l-1.3-.2a11 11 0 0 0-5 .9 14.8 14.8 0 0 1-.9-.9 6.4 6.4 0 0 1-.3-.6 43.4 43.4 0 0 0 0-.8v-.2l.1-.1a9.6 9.6 0 0 0 .4-.9l.8-3.6c.3-1.6.3-3.2 0-4.8v-.1a34.4 34.4 0 0 0-.3-.2h-.1a928 928 0 0 0 2.7-8.7 12 12 0 0 0 1.1-3.7 1.5 1.5 0 0 0 .3-.2c.2-.8.3-1.6.2-2.5a101.9 101.9 0 0 1-.2-6.6h.4c.8-.4 1.5-1 2-1.8a128.2 128.2 0 0 1 1.8-3Zm-4-1.5 1.2-.7.2-.1v-.2l1.3 1.2a38 38 0 0 1-3.2 3.9l-.5-3.7c.3 0 .6-.2 1-.4ZM19 91l.1-.1v.1Zm-9.9-9.8a8 8 0 0 0 3.4-.8 36.5 36.5 0 0 1 .4 5.4 60.2 60.2 0 0 1 0 7.5 57.3 57.3 0 0 1-2.7 8.8l-2 6.8v-.2c-.7 2-1 4.3-.8 6.5.2 2.3 1.3 4 3.2 5.4 1.4.9 2.6 2 3.7 3.2-1.2.7-2.6 1-4 .7-.7 0-1.5-.3-2.3-.4-1.5-.4-2.8-1-4-2-.2-.4-.2-.9-.2-1.3a121.9 121.9 0 0 0 .6-5.4 1.1 1.1 0 0 0-.1-.2V114.2l-.2-.5a3.9 3.9 0 0 0 0-.7l-.2-.3A114.6 114.6 0 0 1 3 107a8.7 8.7 0 0 1 0-5.5l.2-.7.3-.6 1-1.2a20.4 20.4 0 0 0 .7-1.2 4 4 0 0 0 .9-3 33 33 0 0 1-3.3-14l2.7.1 2.6.2h1.2Zm72.3-17.4v9.7l.1 9.8v.2l.1.1v.1a.4.4 0 0 0 .2 0l-.3.2-.6.4-.1-6.2c-.1-3.4 0-6.7.2-10.1a260.2 260.2 0 0 0 .4-4.2Zm-6.1 38.7a77.2 77.2 0 0 0 .4-10.6l.7.5.5.2.1.2c.2 0 .3.2.5.3a2.3 2.3 0 0 0 .4.3h.8a6.8 6.8 0 0 1 .2.8l-.1 4.3c-.3 3.2-.3 6.5 0 9.7l.5 9.5a160.8 160.8 0 0 1-3.8-.4 620 620 0 0 1-.4-9.8c0-1.7 0-3.3.2-5Zm4.3-15.6v1.8h.1v.2a1 1 0 0 0 .2.1h.1l.1.1a.8.8 0 0 0 .4 0h.2a1 1 0 0 0 .2-.2v-.1c.1-.4.2-.7.1-1.1v-1.8a5.1 5.1 0 0 0 1-.6l.3.2a33.6 33.6 0 0 1 .1.2l.7.4a16 16 0 0 0 2.3.6 47.2 47.2 0 0 1-5.6 4.8l-.2.2-.1.1a2.3 2.3 0 0 1-1.1.2h-.2l-.5-.5-.5-.2a5.4 5.4 0 0 0-1.2-.7H75.8l.3-.3a140.3 140.3 0 0 0 3.6-3.4Zm3 4.1 3.6-3.1v6.4a125 125 0 0 0 .3 8.3v4.8c0 1.4 0 2.8.2 4.2l-2.1 1.8-1.8 1.5a51 51 0 0 1-2 1.9h-.1a172.7 172.7 0 0 0-.2-.1l-.5-8.7a57 57 0 0 1 .3-10c.2-1.7 0-3.3-.4-5 1-.6 1.9-1.2 2.7-2Zm-6.9 27.8h.8a254 254 0 0 0 3.2.3h.1l.2 1.3.2 2.2-.2.3c-.7 1-1.5 1.8-2.4 2.6l-1.9 2.1v-.4a155.6 155.6 0 0 0 0-8.4Zm5.9 3.6a93 93 0 0 0-.4-4.1l1-1 1.5-1.6h.1l.3-.2-.2 1.7-.2 3v.1l-.1.2v.4l.1.2.1.1h.2l.1.1h.2l.1.2h.1a1.5 1.5 0 0 0 .5.1h.1l.1.1a3 3 0 0 1-.6.4l-.1.1a1.2 1.2 0 0 0-.1.2v.1a.6.6 0 0 0 0 .2v.2l-.1.1v.5c0 .6 0 1.1.2 1.7a1 1 0 0 0-.4.1l-1 1a37.4 37.4 0 0 1-4 4.8l-4.3 4.5a110 110 0 0 0-.2-2.1v-.2l.2-.1v-.2c.4-1.2.7-2.5.8-3.7h.5l.2-.1.1-.2.1-.2.1-.2a46.5 46.5 0 0 1 3-3.2 14.9 14.9 0 0 0 2-2.6.9.9 0 0 0 0-.3v-.1Zm4.1.6c.1 0 .2.1.2.3l.1 1.1.3 1v.1h-.2v.1H86a162.6 162.6 0 0 1-.2-2.6Zm-18 3.4h-.1ZM72 134h-1.7l.2-.1v-.1a63.6 63.6 0 0 0 2.8 0 28.6 28.6 0 0 0 .4 4l-.5.1.1-.8c.1-1.2-.2-2.2-1-3H72Zm-2.3 1.3h.2l1 .2.9-.1v.1a15.8 15.8 0 0 0 .1 2.5 2 2 0 0 1-.5 0l-.3-.1H71c-.3 0-.5.2-.7.3l-.4.1v-.7l-.1-1v-1.3ZM9.5 109.5l.1-.4a20.8 20.8 0 0 1-.7 5.1V113a11.4 11.4 0 0 1 .6-3.4Zm10-47.3Zm25-55V7l-.2-.2v-.1l-.2-.1h-.2a.6.6 0 0 0-.6.1.6.6 0 0 0-.2.5v.1l.1.2.1.2a1.2 1.2 0 0 0 .3.1.6.6 0 0 0 .3 0 .6.6 0 0 0 .3-.1l.1-.1.1-.2v-.2Z"/><path fill="#333" d="M69.9 135.4h-.2v1.2a10.8 10.8 0 0 1 0 1.2v.5l.5-.1a2.5 2.5 0 0 1 1-.3H71.8a25.4 25.4 0 0 1-.1-2.4v-.1a9.8 9.8 0 0 1-2 0Zm1.4-1.3a20.7 20.7 0 0 1 1 0c.8.8 1.1 1.8 1 3v.8l.4-.2a138.4 138.4 0 0 0-.3-4h-1.5a63.6 63.6 0 0 1-1.4.2l-.2.2h1ZM86 123.3c0-.2 0-.3-.2-.3v1a11.8 11.8 0 0 0 .2 1.7h.1l.1-.1h.1l.1-.1c0-.4-.1-.8-.3-1.1a3 3 0 0 1-.1-1Zm.3-35.4L82.7 91c-.8.8-1.7 1.4-2.7 2 .4 1.7.6 3.3.4 5a57 57 0 0 0-.3 10 669.2 669.2 0 0 1 .8 8.8 51 51 0 0 0 3.8-3.4l2.1-1.8c-.2-1.4-.3-2.8-.2-4.2a168.8 168.8 0 0 0-.2-13l-.1-6.5Zm-6.5.6v-1.6l-1.5 1.5a140.8 140.8 0 0 1-2.6 2.2h.4c.3 0 .5.2.7.3l.5.4.5.2a4.3 4.3 0 0 0 .7.6 2.3 2.3 0 0 0 1-.3l.2-.1.2-.1v-.1l.7-.7a47.6 47.6 0 0 0 4.7-4.1 16 16 0 0 1-2.1-.6c-.3 0-.5-.2-.7-.4v-.1l-.4-.3-.4.3-.6.3a294.5 294.5 0 0 0 0 2.9H81a1 1 0 0 1-.2.2l-.2.1a.8.8 0 0 1-.3 0 .8.8 0 0 1-.2 0 1 1 0 0 1-.2-.2v-.1l-.1-.1v-.2Zm-4.2 11.1-.2 2.9c-.2 1.7-.3 3.3-.2 5l.4 9.8h1.5l2.3.4-.6-9.5c-.2-3.2-.2-6.5 0-9.7a45.8 45.8 0 0 0 0-5.1 2.7 2.7 0 0 1-.7 0h-.2l-.3-.3a6 6 0 0 1-.6-.5l-.5-.2a3 3 0 0 0-.7-.5c0 2.6 0 5.2-.2 7.7ZM9.4 69.2h-.1c-1 0-2.1-.3-3.1-.6a24 24 0 0 0-3.3-.9c-.5 1.4-1 2.7-1.3 4.1a8 8 0 0 0 .7 5.7l.5 1.4v.4a34.1 34.1 0 0 0 5.8.5h1a14.4 14.4 0 0 1 1.9-.4 8.8 8.8 0 0 0 .9-.4 38.3 38.3 0 0 0-.8-3.8l.1-.2a.7.7 0 0 1 .2-.2h.1l.1-.1h.1a1.5 1.5 0 0 1 .4 0l.1.1.1.1.7 2.7h.2a5 5 0 0 0 1-.6l.3-.1.2-.3a3.9 3.9 0 0 1 0-.2 8.2 8.2 0 0 1-.6-.8l-.6-.8-.7-.8a27 27 0 0 1-.3-.4 238 238 0 0 1-3.6-4.4Z"/><path fill="#CCC" d="M81.4 119.7a92.7 92.7 0 0 1 .4 3.2c-.6 1-1.3 1.7-2 2.5a49 49 0 0 0-3.7 4l-.3-.1a19.8 19.8 0 0 1-1 4l-.1.2.2 2.1 4.4-4.5a37.4 37.4 0 0 0 4.9-5.8l.4-.1a14.5 14.5 0 0 1-.2-2.2v-.2a4.3 4.3 0 0 1 0-.2v-.2a1.2 1.2 0 0 1 .3-.3 5.1 5.1 0 0 0 .7-.4H85a1.8 1.8 0 0 1-.4-.2 1.2 1.2 0 0 1-.2-.2h-.2a.7.7 0 0 1-.3-.1l-.1-.1a.8.8 0 0 1 0-.2h-.1v-.6h.1a30.9 30.9 0 0 1 .4-4.8l-.3.2-1.6 1.5-1 1 .1 1.5Zm-8.6-114v.1l-.2.1V6a358 358 0 0 0-.5 35 170.2 170.2 0 0 1-.2 14 525.5 525.5 0 0 1-.6 19 587.2 587.2 0 0 1-1 29.4 126.7 126.7 0 0 0 .1 19.3 1598.4 1598.4 0 0 0 .6 9.7 10.7 10.7 0 0 1 2.7 0c.7-3.1 1-6.4.9-9.7l-.5-9.6a100.3 100.3 0 0 1 .2-13.6c.3-2.4.3-4.8.2-7.2a86.7 86.7 0 0 1 .2-13 116.6 116.6 0 0 0 .2-12.4c0-3.3.1-6.5.3-9.6l.3-9a184.8 184.8 0 0 1 .3-10.8 379 379 0 0 0-.5-20.4 67.6 67.6 0 0 1 .5-12h-.4l-1.7.2-.8.2v.2ZM53.3 4.2h.1a117.8 117.8 0 0 0 12.5.5H68a41.2 41.2 0 0 1 3.1 0c.5-.8 1.1-1.4 2-1.8H73a124.8 124.8 0 0 1-25.7-1.1 92 92 0 0 0-8-.3 3.6 3.6 0 0 0-.4.3 6.5 6.5 0 0 1-.2 1.6V3.8h.6l.6.3.4.5.2 1.3a8.3 8.3 0 0 0 .4 2V8l1.3.8c.5.2 1 .3 1.5.2.3 0 .6 0 .9-.2L46 7.3c.4-.5.6-1.2.6-1.8l.2-.5.2-.1.1-.1.2-.1h.6a3.4 3.4 0 0 1 .9.1 19.8 19.8 0 0 0 1.4-.3h.2l.1.1.1.1a1 1 0 0 1 .2.3c.8 3.8 1 7.7.7 11.6v3.6a301.5 301.5 0 0 1 3 29.4 582.8 582.8 0 0 0 1.3 14.6 115 115 0 0 1 1.5 16.7 308 308 0 0 0 1 17 375.8 375.8 0 0 1 1.2 19.5c.1 3 .4 5.8 1 8.7.2 1.1.3 2.2.2 3.3a6.8 6.8 0 0 1 1.7-.1h.2v.1a2.7 2.7 0 0 1 .3 0h.1l.2.1a1.8 1.8 0 0 1 .2.2 162.4 162.4 0 0 0 6-.3 31.3 31.3 0 0 1-.2-3H68a42.9 42.9 0 0 1-4.7-.6l-.2-.4a2 2 0 0 1-.2-.4 4.9 4.9 0 0 1-.2-.6.6.6 0 0 1 0-.2 74.7 74.7 0 0 1-.6-12.7v-.5a620.4 620.4 0 0 1-2.3-29 1482.3 1482.3 0 0 0-3.3-33.4c-.2-3.2-.4-6.4-.4-9.6a142.3 142.3 0 0 0-1.3-19.3A200.6 200.6 0 0 0 52.8 6a2 2 0 0 1-.1-.5 1.6 1.6 0 0 1 0-.6 1.2 1.2 0 0 1 .1-.3l.3-.1.2-.2ZM44.4 7V7.6a93.3 93.3 0 0 0-.6.3h-.2l-.2-.2-.2-.2V7l.1-.2h.2a.7.7 0 0 1 .6-.1l.1.1.1.1.1.2Zm43-1.9H87c-1.1.2-2.3.6-3.4 1V7l.1.7v.6a7.7 7.7 0 0 1 0 .2V9a552.2 552.2 0 0 1-.5 18.1l-.3 9a70.8 70.8 0 0 0 0 11.8l-.1 9.7a230.7 230.7 0 0 0 0 19.5 92.6 92.6 0 0 1-.2 6.7 1.4 1.4 0 0 1-.2.1.6.6 0 0 1 .1.2h.2l.2.2c.3.1.4.3.5.5a14 14 0 0 0 2.6.7v-.3l.2-.3c0-3.4 0-6.8-.2-10.1A233.1 233.1 0 0 1 86 53a147 147 0 0 1 .3-13.9c.3-3.1.5-6.3.5-9.5V20a112.6 112.6 0 0 1 .5-13V5Zm.1-3.4c-1.9 0-3.7.2-5.5.8a35.6 35.6 0 0 0-5 2c.2.6.3 1.3.3 2a19.6 19.6 0 0 1 4-1.3l.8.1a271.4 271.4 0 0 1 2.6-1 51.3 51.3 0 0 1 2.9-.8 53.9 53.9 0 0 0 0-1.8Z"/><path fill="#fff" d="M11.3 80.8a8 8 0 0 1-2 .4 19.1 19.1 0 0 1-4-.3 19.2 19.2 0 0 1-2.6-.2 22.4 22.4 0 0 0 1.2 8.1 33 33 0 0 0 1.8 5c.2.3.3.6.3 1a4 4 0 0 1-.9 3 2.7 2.7 0 0 1 0 .2l-.8 1a9.6 9.6 0 0 0-1.2 1.8l-.2.7a8.7 8.7 0 0 0 0 5.5l.6 2.6a115.8 115.8 0 0 0 1 5.8c0 1 0 2-.2 3l-.4 2.4.1 1.2c1.3 1 2.6 1.7 4.1 2l2.3.5c1.4.3 2.8 0 4-.7-1.1-1.2-2.3-2.3-3.7-3.2-2-1.3-3-3.1-3.2-5.4a15.6 15.6 0 0 1 .8-6.4l2-6.7a33 33 0 0 1 2-5.9 57.4 57.4 0 0 0 1-3.1 60.2 60.2 0 0 0-.4-9.4l-.3-3.3-1.3.4ZM16 78a17.2 17.2 0 0 1-2.2 1.1 48.6 48.6 0 0 1 .5 3.7 60.9 60.9 0 0 0 3.2-4c-.4-.3-.9-.6-1.2-1a3.5 3.5 0 0 0-.3.2Zm2.7 2v.2l.1.2v.2a.7.7 0 0 1 0 .2l-1.8 2.5a5.4 5.4 0 0 1-2.1 1.8h-.4v.6l.3 6c.1.9 0 1.7-.2 2.5l-.2.1v.1A14 14 0 0 1 13 98l-.5.8a114.4 114.4 0 0 1-2.1 7.9h.1v.1h.1v.1l.1.1c.3 1.6.3 3.2 0 4.8a42.7 42.7 0 0 1-1.3 5.5v.1l.1.3a6 6 0 0 0 .3.4l.8.8a11 11 0 0 1 5-1l1.2.3a11 11 0 0 0 5.3.4l.1-.2V118.1l-.1-.1a72 72 0 0 1-6.5-3.3c-1.3-.8-1.8-2-1.5-3.4l.2-1.3a93.6 93.6 0 0 1 3-12.7l-.1-.2a7.7 7.7 0 0 0 .1-1.7v-.1l.1-.1V95a1.2 1.2 0 0 1 .3-.1v-.1h.1l.2-.6a15.2 15.2 0 0 1 .5-.8l.2-1a38.6 38.6 0 0 0 .3-2.2l-.1-.4V89.6l-.1-.1.8-4.5a18.5 18.5 0 0 0 0-5l-1-.5-.3.3h.1l.1.1ZM4.1 59.4V62l-.2 2.7a6 6 0 0 1-.5 1.8l1.2.4h.6a18.3 18.3 0 0 0 3.2 1 2 2 0 0 1-.5-.8l-.1-.2-.5-.7-.5-1a1.1 1.1 0 0 1 0-.3h-.1a.8.8 0 0 1-.2-.2v-.2a43.3 43.3 0 0 1-2.4-5Zm14-4.4v-1c-.2.3-.5.6-1 .7-1 .5-2.2.7-3.4.5h-.1a16 16 0 0 1-1 4.7v.4a80.1 80.1 0 0 0 .1.4 53.4 53.4 0 0 0 3 5.1l.5-.6.1-.3c0-1.2.1-2.3.3-3.4a7 7 0 0 1 1-2.5l.2-.7v-1.1a5.4 5.4 0 0 1 .1-1 1.5 1.5 0 0 1 .1-.1V55Zm9 17.7H27a5 5 0 0 1-.9-.2H26a11.5 11.5 0 0 1-.4 1.5 3.8 3.8 0 0 1 0 .4v.4c-.1.1 0 .2 0 .2l.8-.5.3-1c0-.3.1-.5.3-.8Zm1.3-10.6a15 15 0 0 0-.8-2.5 81 81 0 0 0-1.6 7.3 182.8 182.8 0 0 0 1 .8H27.3a.4.4 0 0 1 .2.2h.1l.1.2v.1l.1.1v.1c0 .3-.1.5-.3.7l-.4.6-.4 1-.2.5h.5a8.5 8.5 0 0 1 .4.1 1.4 1.4 0 0 1 1 .4l.1.2v.4a.9.9 0 0 1 0 .3h-.1l-.2.1H28v.2a2.6 2.6 0 0 0 .1.2v.4l-.2.5.3.1.4.2a4.9 4.9 0 0 0 .2 0h.1a4.2 4.2 0 0 1 .6.3h.2a2.7 2.7 0 0 0 .3.1h.1a2.7 2.7 0 0 0 .3-.1v-.1l.1-.2V74h.1v-.2l.3-.3a3.3 3.3 0 0 0 .2-.5c-.1-.7-.4-1.5-.7-2.1-.4-.7-.6-1.3-.7-2l-.1-.1v-.1h-.1v-.2h-.1v-.2l-1-6.3ZM3 46.1l-.2 1.1c-.3 2-.4 4-.2 5.9 0 .4.1.9.3 1.3l.4.9a20.3 20.3 0 0 1 0-4.7 9.9 9.9 0 0 1 .3-1A22.2 22.2 0 0 1 3 46Zm17-22.2-1.3-.2c-1.5.1-2.8.5-4 1.2l-.5.5a6.3 6.3 0 0 1-.8.9A6.1 6.1 0 0 0 13 30l.4 2.5c0 .5 0 1-.4 1.5v.1a1 1 0 0 1 .1.3V34.9l-.7.7-.6.5a7 7 0 0 1-2 1.8l-1.5.9-.8.4a15.1 15.1 0 0 0-3.2 4 .8.8 0 0 1 .3 0 1.2 1.2 0 0 1 .3.3.4.4 0 0 1 .1.1v.6a2.7 2.7 0 0 1-.2.2c-.3.6-.5 1.1-.5 1.8l.3 1.6.2.7v.5l.2.5V50l-.1.1-.1.1c-.5 2.1-.5 4.3 0 6.5.4 2.1 1.2 4.1 2.5 6 .3.4.5.9.5 1.4h.1a34.5 34.5 0 0 1 .1.2l.5 1 .6 1 .2.4a75.1 75.1 0 0 0 3.3 4.1 74.8 74.8 0 0 1 4 5.1 21.6 21.6 0 0 0 3.2 2.7 3.8 3.8 0 0 0 1.3 0v-.1h.1l.1-.1a58.6 58.6 0 0 1 .5-1.6 10 10 0 0 0-.1-.3l-.2-.2-.2-.3-.2-.2-.5-.3-.6-.2h-.3l-.6-.5-.3-.5-.1-.4c-1-2.3-2-4.5-3.4-6.6l-3-4.4a4.5 4.5 0 0 1-.8-3 1 1 0 0 1-.1-.2c.4-1.4.6-2.7.8-4.1a16.3 16.3 0 0 0-.3-4.9h-.1l-.1-.2v-.1c-.1-.8 0-1.7.2-2.5a266.7 266.7 0 0 0 1-2.6 1.3 1.3 0 0 1 .2-.1 2.1 2.1 0 0 1 .4 0l.2.1.1.1.1.2v.2a293.9 293.9 0 0 0-1 4 12.1 12.1 0 0 1 .8 4h1.7a4.7 4.7 0 0 0 1.9-.6l.2-.3.2-.2a4 4 0 0 0 .4-2v-2l.2-.1v-.2h.1a1.1 1.1 0 0 1 .4-.1 1.1 1.1 0 0 1 .5.2.8.8 0 0 1 0 .1l.1.1a6.6 6.6 0 0 1-.7 4.7.8.8 0 0 1 .3 0l1.3-1.2a20.3 20.3 0 0 0 1.2-1.7h.1l.2-.1h.4a1.4 1.4 0 0 1 .2.2v.1l.1.1v.2c-.2.8-.6 1.4-1 2l-1 .8c-.2.3-.5.5-.9.7a10.8 10.8 0 0 0 .1.9v.1a.7.7 0 0 1-.1.2h-.1l.2.7v.4l.1.1v.1c.1 2.2.8 4.2 2 6 .7.8 1.4 1.6 2.2 2.2l1.6 1.3.6-3.3a65 65 0 0 1 1-4.8 12.3 12.3 0 0 0-2.7-3.5 2.6 2.6 0 0 1 0-.2v-.1l-.1-.3V53.5l.1-.1V53a75.5 75.5 0 0 0-2.3-6.2v-.1c.2-.7.3-1.4.2-2a45.9 45.9 0 0 0-.2-3.5L21 39.8l-1.4-1a2 2 0 0 1-.6-.5v-.1a.8.8 0 0 1-.1-.3v-.2l.1-.1c-.7-.4-1.3-.8-1.8-1.3l-.5-.6h-.2a3.5 3.5 0 0 1-.2-.3 30.2 30.2 0 0 1-.2-.4v-.2a2 2 0 0 1 .1-.3.8.8 0 0 1 .3-.2h.2c.3 0 .6.1.8.3l.5.6.3.4.3.1a2.5 2.5 0 0 1 .5.3l.3.2a71.8 71.8 0 0 1 1.6.6h.5a2.2 2.2 0 0 0 .4-.2 9.4 9.4 0 0 0 .3-.2 2 2 0 0 1 .1-.4 14.2 14.2 0 0 1 .2-.3v-.1a2.3 2.3 0 0 1 0-.3h.1V35a28.6 28.6 0 0 1 .1-.3v-.1a3 3 0 0 0 .2-.2v-.2l.2-.3a3.4 3.4 0 0 1 .2-.3v-.2l.1-.2v-.1c-.4-2-.6-3.9-.5-5.9l-.1-1A4 4 0 0 0 20 24Z"/></svg>