<svg xmlns="http://www.w3.org/2000/svg" width="75" height="107" fill="none"><path fill="#000" d="m51.8 4.6.7-.1c.5-.1 1-.3 1.4-.6.5-.4.7-.9.6-1.4l-.2-.1c-.7-.5-1.5-.8-2.3-.8a131.2 131.2 0 0 0-6-.4 11.3 11.3 0 0 0-4.2.6c-.8.5-1 1-.7 2A3.5 3.5 0 0 0 43.4 5c.8.1 1.6 0 2.4-.2h.5l1-.1.4-.2v.1a8.4 8.4 0 0 1 0 1.5l-1.4.2-1 .3a7 7 0 0 0-1.9.6 202.5 202.5 0 0 0-5.7-.3 51.6 51.6 0 0 0-6-.5 66.7 66.7 0 0 0 0-1.7V4h2.4a12.7 12.7 0 0 0 2.6-.3 10.7 10.7 0 0 0 2-.5c.8-.2 1.3-.6 1.7-1.2.5-.5.5-1 .1-1.5h-.2l-.9-.1h-.9c-.6-.2-1.3-.3-2-.2h-.7a21.1 21.1 0 0 1-3.9 0 40.4 40.4 0 0 1-4.5.1c-.6 0-1.2.1-1.6.5-.5.3-.7.7-.7 1.3l.2.4c.6.8 1.5 1.1 2.5 1a32.9 32.9 0 0 0-.3 1.5.5.5 0 0 0 0 .4 14 14 0 0 0-8 2.7h-.3l-.1.1V8l-.3-.6a1 1 0 0 0-.4-.4l-.6-.2a2 2 0 0 0-1.3.2l-.6.4a4.3 4.3 0 0 0-.4.3l-.1.2v.1c-.1.5 0 .9.1 1.3l.3 1a125.7 125.7 0 0 1-3 1.1 21.3 21.3 0 0 0-1.7.3h-.4a3.5 3.5 0 0 0-.4.3 22 22 0 0 0-1.5 0 19.5 19.5 0 0 1-.8-.3 2.3 2.3 0 0 1-.2 0h-.1a.6.6 0 0 0-.1.2l-.2.3v.3A225.2 225.2 0 0 1 6.6 24l-.2.1c0-.4 0-.7-.3-1-.5-.3-1-.4-1.4-.4-.5 0-.8.2-.8.8V27c0 1.2 0 2.4-.2 3.6v.2a32.6 32.6 0 0 0-.2 5.4v.7h-1c-.7 0-1.3 0-1.8.4-.5.3-.7.8-.8 1.4 0 .5.1 1 .4 1.3l.5.2a44.3 44.3 0 0 0 3.1-.3v.6a23.7 23.7 0 0 1 0 3.8v.2a.9.9 0 0 0-.9 0l-.3.2-.3.9a17.9 17.9 0 0 0 .1 3.9c0 .4.2.7.5 1h.1c.3.2.6.2 1 0a78.8 78.8 0 0 1 .1 2.6l.3.3.3.2a1.1 1.1 0 0 0 .3 0 20.8 20.8 0 0 0 .6 0h.3l.2-.5v-3.5l.5-.2v.8a37.9 37.9 0 0 0-.4 1.8l.1.1h.1l.2 3 .3 7.4c.2 2.8.2 5.7 0 8.6a164.5 164.5 0 0 0-.1 17H6.4a1 1 0 0 0-.5 0 3 3 0 0 1-.6.1h-.6c-.2 0-.3.2-.4.3-.5 1.1-.8 2.2-.8 3.4 0 .3.1.5.3.6 1 .5 2.1.7 3.3.5H7.4l.2.1 1 .1a112.4 112.4 0 0 0 9.8-.5 1.7 1.7 0 0 0 .2 0l.5-.1 1.2.8a30 30 0 0 0 4.3 2 82.3 82.3 0 0 0 5 1.6 131.8 131.8 0 0 1-.8 6.6l-.2.7v.3l.2.3.1.2.5.4c.5.4 1 .7 1.6.8l1.8.3c1.7 0 2.5-.9 2.4-2.4V103l.6.1a3.3 3.3 0 0 0 .9 0h.3l.4-.1.1-.1.1-.3v-.2h.2a67.1 67.1 0 0 1 4.7 0c.7 0 1.5 0 2.3-.2l2.3-.2a20.6 20.6 0 0 0 3.1-.3.4.4 0 0 0 .2 0v-.1h.2a3.4 3.4 0 0 1 1.3.3h.2a75.3 75.3 0 0 1 2.7-.3v-.1l.1-.1V101a117.6 117.6 0 0 1-.5-2.6v-.6a2 2 0 0 0 0-.6v-.4a.5.5 0 0 0-.3-.4.8.8 0 0 0-.3-.2h-.5c-.5-.2-1-.2-1.6 0-.4 0-.7.2-1 .3h-4.9V96c-.3-1.5-.4-3-.3-4.5 0-1.5 0-3-.3-4.3l.2-1 .2-2.5v-2.2l-.1-.1-.2-.1h-.1v-2a15.7 15.7 0 0 1-.1-1.9v-.1H45h1.3c2.1.2 4.2 0 6.2-.5l.5.2a12 12 0 0 0 3.5.4l.3-.1a1.7 1.7 0 0 1 .5-.2h.2a65 65 0 0 0 1.7.2l-.5.5a5.7 5.7 0 0 0-1.8 3.9 12.3 12.3 0 0 0 2.1 7.6c1.5 2 2.1 4 2 6.4l-.1.6c-.6 1-1 2.3-1 3.7 0 .2 0 .4.2.5 1.1.9 2.4 1.2 4 1 .1.2.4.2.6.3l2.1.6a7 7 0 0 0 2.2.3h.4l1.2.2 1-.3v-.1a2.2 2.2 0 0 0 .2-.2 2.3 2.3 0 0 0 0-.2c.1-.7-.2-1.3-.8-1.6-.8-.5-1.5-1-2.1-1.8-.8-.8-1.7-1.6-2.7-2.3L66 96c-.2-.3-.2-.6-.2-1 0-.3 0-.7-.2-1v-.5a74.2 74.2 0 0 0 .7-12.9l.1-.2v-1.1l-.1-.1v-.6a17.8 17.8 0 0 0-1.7-5.9 4.9 4.9 0 0 0-2.8-3.1l-.8-1a13.6 13.6 0 0 0-3.6-2.9L54.6 64l-1-.2a32.3 32.3 0 0 0-3.5-.4v.1h-.3l-.8.2h-.1a.8.8 0 0 0 0 .2h-.3V63l-.1-.5h-.2a.4.4 0 0 0 0-.1 42 42 0 0 0 .1-5.8 34.6 34.6 0 0 1 0-6.3 7 7 0 0 0 .4-1.5l.2-.2v-.2c.2 0 .2-.2.2-.4l.2-.3.2-.8.6.2a194.8 194.8 0 0 1 3 .4h.1l1 .1a85.8 85.8 0 0 0 2 .3 3 3 0 0 1 .4.4l.2.2.4.1.4.1.3.2h.3a83.4 83.4 0 0 1 3.6.4l1.6.1a3.4 3.4 0 0 0 .3 0h1.6a120.4 120.4 0 0 0 2 .2l.3.1.4.1 1.3.2h-.1a5 5 0 0 1 .6.1h.1l.6.2h.8v1c-.2.9 0 1.4.9 1.5h.6c.3-.1.5-.3.4-.6a42.3 42.3 0 0 1 .1-1.8l1-.1.3-.3c.2-.3.3-.6.3-1v-2.6c-.2-.6-.3-1.2-.6-1.7l-.4-.5v-1a15.8 15.8 0 0 0 .2-1.2v-1.8a173 173 0 0 1-.5-14.1c-.3-.5-.8-.7-1.3-.6H72l-.5.5a73.8 73.8 0 0 1-2-1.1 79.2 79.2 0 0 0-5-2.3 43.2 43.2 0 0 1-6.1-3.3l-.6-.3a19.4 19.4 0 0 1-3.6-2l-1.4-.8h.2c.3 0 .7-.2 1-.4.4 0 .7-.2 1-.5l.2-.3c.1-.7-.1-1.2-.8-1.6-.7-.4-1.6-.6-2.5-.4l-.4-.1c.2-.3.2-.6.2-1a560.3 560.3 0 0 0 0-7.1v-.2Zm-.4-.8H51l-.1.1c-.3.9-.4 1.8-.4 2.7a40.6 40.6 0 0 1 .1 6l-.5.1a14.3 14.3 0 0 1-1.6 0v-1.9L48.5 9c.2-.1.2-.3.1-.6v-.6l.1-.7-.1-.5.2-1.4c0-.5 0-1-.2-1.5 0-.1 0-.2-.2-.3-.5-.2-1-.1-1.4.3l-.5.1h-.8l-.5.1c-.6.2-1.2.2-1.9.2l-.1-.1a65.4 65.4 0 0 0-1.2-.8V2.9c1-.5 2-.7 3.2-.6h1a24.2 24.2 0 0 1 7.2.7l-.2.2a8.4 8.4 0 0 1-.4.1l-.6.2c-.3 0-.6.1-.8.3Zm-1.5 10h1.3c.5.2 1 .2 1.6.2.5 0 1 0 1.4.4a42.4 42.4 0 0 0 .2.3l-.5.2-1 .2-1 .1a5 5 0 0 0-.7 0c-.2-.3-.4-.4-.7-.3l-.1.2h-1c-.3-.3-.6-.3-.8 0l-.8.1a7.1 7.1 0 0 1-3-.4v-.4l.2-.3.1-.1.5-.2 1.2-.2h.7l1 .1 1.4.1Zm12 9.8-.3-.2a33.4 33.4 0 0 1-10.3-5v-1.7l.5.2c.6.1 1 .4 1.6.7a56.7 56.7 0 0 0 2 1.3l3.2 1.6a91.8 91.8 0 0 0 12.3 6.3 8.9 8.9 0 0 1 .6.3c0 .2 0 .2.2.3.6.1.8-.1.8-.8a13.1 13.1 0 0 1 .3 0 90.2 90.2 0 0 0 .2 6.1 24.1 24.1 0 0 0 0 2.2c.2 1.2.1 2.3 0 3.5l.1.4v.5a33.8 33.8 0 0 1 0 2.3 7 7 0 0 0 0 2.1 2.3 2.3 0 0 0-.7 0V43a15.7 15.7 0 0 1 0-3l-.2-.2c-.2-.2-.4-.2-.6 0h-3.3a3 3 0 0 0-.5 0h-.5v-.1h.1v-.1h.2a35.3 35.3 0 0 0 .2 0h.4a7.2 7.2 0 0 0 .7-.2H71c.6 0 1-.2 1.2-.8l-.1-.3v-.8a14.5 14.5 0 0 1 0-2.5 26.2 26.2 0 0 0 .2-3.8l-.3-1.8v-.2l-.2-.3-1.3-.7a158 158 0 0 1-4.3-2.4 237.7 237.7 0 0 0-4.4-2.4Zm-3.4-.4 1.3.6a44.5 44.5 0 0 1 8.4 4.5l2.9 1.5.2.8a1318.5 1318.5 0 0 1 0 1.1V34l-.1 1v3a8 8 0 0 0 .1.6h-.8a28.6 28.6 0 0 0-2.6 0c-.6 0-1.1.3-1.4.9l-.2.4c0 .7.5 1 1.2 1a56.6 56.6 0 0 0 3.8.2l.1 2.7-.9.3-1.2.6a2 2 0 0 0-.3.1l-.5.1h-.6l-.4.1a3.8 3.8 0 0 0-.8 0 9.7 9.7 0 0 0-.6-.2 74.5 74.5 0 0 0-.4-.1l-.2-.1a3 3 0 0 0-.2-.1l-1.4-.8a355.4 355.4 0 0 0-4.2-1.8c-.6-.4-1.2-.5-1.8-.6a3 3 0 0 0-1.3.2h-.2a13.1 13.1 0 0 1-1 .2 2 2 0 0 1-.8-.2l-.8-.2-.1-.1V41h-.1l-.3-.2c-.3-.2-.7-.4-1-.4l-1-.2-.4-.2-1.4-.7c-.4-.2-.8-.4-1.2-.4-.5-.3-.9-.4-1.3-.5a16.2 16.2 0 0 0-1.4-.3.5.5 0 0 0-.1 0h-.2a64.8 64.8 0 0 1-1.1.1 2 2 0 0 0-.3-1 21 21 0 0 0-.5-.8v-.1a14.7 14.7 0 0 1 .4-1.5v-.2l.1-.3v-.2l.1-.4.2-1 .2-.8v-.3a11 11 0 0 0-.3-5.2c-.4-1-1-1.7-1.8-2.4a3.2 3.2 0 0 0-2.4-.6c-.7.1-1.4.3-2 .7a76.2 76.2 0 0 1-2 1.3h-.1c-.8-.1-1.4 0-2 .4-.5.3-.8.8-.9 1.4a92.9 92.9 0 0 0-.2.5 1060.2 1060.2 0 0 1 0-13 7.5 7.5 0 0 0 1.5-.5c.7-.3 1-.8.7-1.6l-.3-.3c-.8-.6-1.7-.8-2.7-.6a.6.6 0 0 0-.2-.2v-2a29.4 29.4 0 0 0 8 .3 41.6 41.6 0 0 1 3.5.3s0 .2.2.2h.2l.9-.2c1-.5 2-.8 3-1V11l.2 1.5a79.6 79.6 0 0 0-1.8.2c-.7 0-1.2.3-1.6.7-.6.6-.7 1.2-.4 2l.3.2c1 .5 2.2.7 3.3.6h1v.4l-.1 1.6c0 .7.2 1.2.9 1.3h.1a3 3 0 0 1 .6 0h.2a73.8 73.8 0 0 1 .8-.1l1.4.8a47.3 47.3 0 0 0 6.1 3Zm-9-5.6V16h.7l.1 2.4h-.5a3 3 0 0 0-.4 0v-1ZM32 3a1 1 0 0 0-.7-.1c-.2 0-.3.2-.4.3a8.3 8.3 0 0 0-.4 3.4 31.5 31.5 0 0 1 .2 4.9l-1 .1h-1c.2-.1.3-.4.3-.6v-.8A13 13 0 0 1 29 8l.2-1.2V5.6l-.3-.2h-.2a3.8 3.8 0 0 1 0-.3.6.6 0 0 0-.2-.1l.2-1a18 18 0 0 0 0-1.9c0-.2-.3-.2-.5-.1l-.8.4a5.2 5.2 0 0 1-.5 0 9.4 9.4 0 0 0-.6-.3 1 1 0 0 1-.2-.2v-.1a2.4 2.4 0 0 1 .4-.5 36.1 36.1 0 0 1 2.8-.1c1.2-.2 2.4-.2 3.6 0a14.3 14.3 0 0 0 3.9-.1 69 69 0 0 0 2.6.4 6.3 6.3 0 0 1-2.6 1h-.2a12.2 12.2 0 0 1-2.4.4H32Zm3.4 4.7 1.5.1 2.8.3H43a23 23 0 0 0 .8 0c.2 0 .4 0 .4-.2l1.2-.3a79.4 79.4 0 0 0 2.3-.5l-.2 1c-.3 0-.6 0-1 .2l-2.7.9a16.7 16.7 0 0 0-3.9-.4h-1.7a32.6 32.6 0 0 1-6.6-.2 12 12 0 0 0 0-1.2h.5a37.5 37.5 0 0 0 3.3.3ZM34 13v.2l-.6.4h-.6a26.8 26.8 0 0 1-1.3.1h-.2l-1 .1h-3.4c-.7 0-1.2 0-1.7-.4v-.4a.9.9 0 0 0 .1-.1 228.5 228.5 0 0 0 2.7-.3 30.5 30.5 0 0 1 1.8.2l.1.2a.5.5 0 0 0 .6 0l.2-.1h.5a98 98 0 0 0 2.8.1ZM31 14.7h.5a2 2 0 0 0-.2 1.1v1.5l-.5.2a18.7 18.7 0 0 0-1 .4h-.1l-.7.2a10286.4 10286.4 0 0 1-4.7 2.3 8.5 8.5 0 0 0-1 .4l-.9.3a1151.5 1151.5 0 0 1-6.6 2.4 59.7 59.7 0 0 0-8.5 3.8h-.1l-.1.1-.1.1-.1.2h-.1l-.6.1c-.2.1-.4.2-.4.4a5 5 0 0 0-.2 1.7A511.8 511.8 0 0 0 6 40.3c-.3.5-.4 1-.4 1.6v.8a2 2 0 0 0 .1 1.2l-.5.7v-.1c0-.1 0-.2-.2-.3V44A22 22 0 0 0 5 42v-2c.1-.7-.2-1.1-.8-1.1H3.9l-.2.1h-.3a3 3 0 0 0-.9 0l-.8.2H1v-.7l.4-.3.5-.2h.2a12 12 0 0 0 .8 0 4 4 0 0 0 .7 0 .5.5 0 0 0 .3.1h.4l.2-.3v-1.3a24.7 24.7 0 0 1 .3-6.3 30.6 30.6 0 0 0 0-6.3h.4l.2.1v.2a222.4 222.4 0 0 1 .1 1.3h.2a2.2 2.2 0 0 0 1.3-.3 35.5 35.5 0 0 1 8.5-4 340.3 340.3 0 0 0 6.5-2.6 41.6 41.6 0 0 1 4.5-1.3 78 78 0 0 0 3.7-1.4v-.5l-.1-.1v-.5h.9ZM17.9 8a5.1 5.1 0 0 1 .1.3 9.6 9.6 0 0 1 .2.5l.4.3.3.2h.2l1.1-.4 1-.5.2-.1.7-.3a9.8 9.8 0 0 1 .9-.5l1.3-.3a20.4 20.4 0 0 1 2.6-.6c.3 0 .6 0 .8-.2l-.1.6a2.3 2.3 0 0 1 0 .1v.2l.1.3a3.7 3.7 0 0 0-1.4.3l-.1.1v.2c-1.5.7-3 1.2-4.4 1.7-1.2.3-2.3.8-3.5 1.2a103.3 103.3 0 0 1-7 2.6v.4a3.6 3.6 0 0 0 0 .2h-.1l-.6-.1h-.1a2.9 2.9 0 0 0-.5.2 19.4 19.4 0 0 1-.2.2v7.9h-.2a6 6 0 0 0-1.5 1c-.2 0-.3.2-.5.3l.1-1.3c0-1.6.2-3.3.4-4.9l.2-4.7.6.1a3.4 3.4 0 0 0 1 0v.1a.6.6 0 0 0 .2 0l.1.1h.1a193.6 193.6 0 0 0 5.5-1.6 3 3 0 0 0 1-.8V9.6l-.4-.9V8.1l.4-.2a4.3 4.3 0 0 1 .5-.2h.1a2.7 2.7 0 0 1 .3 0l.2.1V8Zm-4.6 6.3h-.7a12 12 0 0 0-.2 0 604.1 604.1 0 0 0 10-3.5A16 16 0 0 0 26.2 9a2.5 2.5 0 0 0 1-.2v-.1H27.6l.6-.2v.1a5.3 5.3 0 0 0-1.5.9l-.1.2v.1a118 118 0 0 1-5.6 1.7l-3.2 1.2c-1.4.6-2.9 1.1-4.4 1.5Zm-.3 1h.2l-.1 1.2.1 1.2.2.2a.9.9 0 0 0 .7.2v.1l.1.1a28.2 28.2 0 0 1 0 1.2c0 .4-.2.8-.4 1.1a.6.6 0 0 0 0 .3 183.4 183.4 0 0 1-3 1V15a5.8 5.8 0 0 1 .8.2H13Zm1.5-.3.3-.1v2.1h-.2a3 3 0 0 0-.5 0 59.2 59.2 0 0 0 0-1.9h.4Zm1.3 0a.5.5 0 0 0-.3-.4 37.2 37.2 0 0 1 6.9-2.2c0 .5 0 1 .2 1.5v.4a36.7 36.7 0 0 0-.2 2c-.1.5 0 .8.4 1a75 75 0 0 1-4 1.4l-1 .4c-1 .4-1.9.7-2.8 1.2l.2-1v-1.3h.1c.3 0 .5-.3.5-.6v-2.5ZM27.5 10a3.9 3.9 0 0 0 .5-.3v1.7c-1 0-1.8 0-2.6.2a1.5 1.5 0 0 0-.5.1c0-.1 0-.3-.2-.3a45.4 45.4 0 0 0 2.8-1.4Zm-4.1 2.1v-.3c.1 0 .3 0 .5-.2 0 .4 0 .7.2 1a1.9 1.9 0 0 0 0 .8v.2a6 6 0 0 0 .2 1.8l-.1.2a.9.9 0 0 1 0 .2h-.3c-.2 0-.4.1-.5.3V16l.1-.3.2-1.2V14l-.3-1.8Zm1.8 3a6.8 6.8 0 0 0 0-.7l.7.2H29a2.3 2.3 0 0 1 .2.5 191.1 191.1 0 0 1-4 1.2l.1-.5v-.7Zm1.1 5.5a12.5 12.5 0 0 0 1.4-.6v.4a48.7 48.7 0 0 0-.1 7 37.6 37.6 0 0 0 .2 6.8 215.2 215.2 0 0 1 .1 4v.1l-.4.1a7.2 7.2 0 0 1-1.8.6l-.3-.1H25l-.9.1a96.4 96.4 0 0 0 0-10.2 125.8 125.8 0 0 0-.2-7.2 13.3 13.3 0 0 0 1-.4 5.8 5.8 0 0 0 1-.4h.1l.3-.2Zm2.4.6.1-1.1c0-.3 0-.5-.2-.6l.7-.5a28.1 28.1 0 0 0 2.3-.8v3.9l.1 3.5v3.6a75.6 75.6 0 0 0 0 5.3l.1 3h-.4a2.7 2.7 0 0 0-.3.2h-.2a6 6 0 0 0-1.2.3l-.7.2v-.7a89.7 89.7 0 0 0-.3-5.1 122.7 122.7 0 0 0-.1-6.6v-4.4l.1-.2Zm-6.5 1 .7-.3v.1a62.2 62.2 0 0 0 .1 6.4 122.4 122.4 0 0 0 .1 7 57.6 57.6 0 0 0 .2 3.8l-1.6.8-1.3.8c-.8.3-1.7.5-2.6.3a8 8 0 0 0-3 0l.1-1.3a1111 1111 0 0 1-.2-14.9 42.8 42.8 0 0 1 3.8-1.4 88.4 88.4 0 0 0 3.7-1.3ZM14 25.4V27a220.5 220.5 0 0 0 0 10.7v3.6l.1.3a7.9 7.9 0 0 0-2.6 1.5h-.2l-.1.1c-.1-.4-.2-.9-.1-1.4 0-1.2 0-2.4-.2-3.5a56 56 0 0 1-.2-7.2 36.7 36.7 0 0 1 0-4 206.2 206.2 0 0 0 3.3-1.6Zm27.1-1 1 .8.8.9c.3.4.5.9.6 1.4.3 1 .3 2.1.1 3.2a44 44 0 0 1-.6 3.4h-.2a3.5 3.5 0 0 1-1 .6c-.4 0-.7-.1-1-.3l-1-.3a23.6 23.6 0 0 1-1.7-1c-.3-.3-.6-.2-.8.1l.1.5a7.6 7.6 0 0 0 1.8 1.3c.8.4 1.7.6 2.6.7a3.4 3.4 0 0 0 .8-.2v.4l-.2.5.1.4.3.5a20 20 0 0 1 .4.6v.6l.1.2.1.1.2.1v.2h.1a17 17 0 0 0 .2.2h.1l.8-.1h1a6 6 0 0 0 1 .1l1.9.8 1.6.6a21.8 21.8 0 0 0 2.8 1.1v.2a.7.7 0 0 0 .2 0l.4.3c.6.2 1.3.3 2 .2a8 8 0 0 0 1.8-.3 6.6 6.6 0 0 1 .7 0 91.7 91.7 0 0 0 5.8 2.6l.8.3.4.3 1.2.4a15.5 15.5 0 0 1 1.3.2H68v-.1H69a4 4 0 0 0 1.2-.7 3.7 3.7 0 0 1 1.6-.6c.4 0 .9 0 1.2.2h.2l.5.9a242.8 242.8 0 0 1 .2 1v2.7a7 7 0 0 0-.3 0h-.4c-.3-.4-.6-.4-.8-.1h-.1a28.5 28.5 0 0 1-.1-3c-.1-.5-.4-.6-.8-.4l-.1.1a12 12 0 0 0 0 3.4l-.7-.1-1.1-.3a85.4 85.4 0 0 1-2.1-.6.4.4 0 0 0-.1 0c-.2-.2-.4-.2-.5-.1l-.2.1h-3.8a24 24 0 0 1-4.5-.5l-.3-.1a2.1 2.1 0 0 0-.5-.2l-.2-.1a8 8 0 0 0-.5-.5 96.6 96.6 0 0 0-1-.2l-1-.2a18.9 18.9 0 0 1-5.6-.8.4.4 0 0 0-.2 0 1 1 0 0 0-.1.1l-.2.3-.1.4v.4l-.1.3-.2.2h-.5c-.9 0-1.7-.2-2.5-.5v-.1l-.2-.2a8.2 8.2 0 0 1-.6-.7v-.7l-.3-.2c-.4-.3-.7-.1-.8.3v.2c.2.8.5 1.4 1 2 .4.3.8.5 1.3.6.7.2 1.4.3 2.2.3-.3 1-.5 2-.6 3.1l-.1 1.7a11 11 0 0 0 .2 4.3v.3l.2.5v.6a168.9 168.9 0 0 0-.3 3.7l-.4.2a25 25 0 0 0-1.8 1c-1 0-2 0-3-.4l-2.2-.3a1390.3 1390.3 0 0 0-4.7-.7A5.3 5.3 0 0 0 34 62l.2-.4a12.2 12.2 0 0 0-.5-8 5 5 0 0 0-.6-.8c-.8-1-1.4-2-1.8-3a9.6 9.6 0 0 1-.8-4.1 17 17 0 0 1 0-.2H30.1l-.2-.1v-.1a.8.8 0 0 0-.5-.2h-.4l-.3-.1-1.4.3-3.5.8-4.2.7a5 5 0 0 0-1.9.7 15.4 15.4 0 0 1-1.5.8 8 8 0 0 1-2.3.1 8 8 0 0 0-2.2.2h-.1l-.3-.1h-.3l-1.2-.3L9 48H7.9c-.4 0-.8.2-1.1.3a16.2 16.2 0 0 1-.5.2c0-.5-.3-.6-.7-.4-.1 0-.2 0-.2.2v.6l-.6.2c-.3 0-.6 0-.6.3l-.5.2v-.4a108.7 108.7 0 0 1-.3-2.3 12 12 0 0 1 .2-1.5l.2.1a37 37 0 0 0 3 .5l.4-.2c.1-.3 0-.5-.1-.7H6V45l.5-.5.5-.1h.2c0 .1.1.3 0 .4 0 .2 0 .3.2.4.1.3.3.3.6.3h.4l.2-.2.3-.3 1.2-.3a12.7 12.7 0 0 0 1.5-.7l1-.7 1.5-.9c.4 0 .7 0 1-.2h2c1.1.2 2.2.1 3.2-.1l.8-.4.8-.6.6-.4a166 166 0 0 0 .9-.4l.8-.1.9-.2h1.5l1.2-.5h.6c.2 0 .4 0 .6-.2a4 4 0 0 0 1.8-.5h.5a200.6 200.6 0 0 1 .5 0h.2l.5.2a3.2 3.2 0 0 0 .4.1H33.3l.1-.2v-.1c.2 0 .3 0 .4-.2l.7-.5a16.5 16.5 0 0 1 1.7-1.2c.3-.7.5-1.4.5-2.1 0-1.2 0-2.3-.4-3.4a19.5 19.5 0 0 1-.6-3.7c0-.3.1-.5.3-.7l.4-.7v-.1l.2-.1V26l.3-.2a21.6 21.6 0 0 0 1.7-1h.3a6 6 0 0 1 2.1-.3Zm-6.8 2.3 1-.4-.1.2a3 3 0 0 0-.4 1.7 57 57 0 0 1 1 4.8 6 6 0 0 1-.3 3.2l-.2.1a13.3 13.3 0 0 0-1.3 1l-.2-.2-.1-2.4a276.4 276.4 0 0 0 .6-8Zm-1.3 10.8v.4-.4Zm-2 14-.1.3v3.6a59.4 59.4 0 0 1 0 4.4v-.1L30 56a18 18 0 0 1-.5-3.4l-.1-1.4c-.1-.4-.3-.5-.6-.4v-1a30.3 30.3 0 0 0-.1-3.9h.4a7.4 7.4 0 0 1 .5.2v.5a11.4 11.4 0 0 0 1.3 4.9Zm.8 1.4a13.6 13.6 0 0 0 1 1.3l.1.3.2.2.2.9c.3 1 .4 2.2.4 3.3 0 1-.2 2-.6 3l-.2.2-.3.2-.1.2v.7H32a4.5 4.5 0 0 1-.3-1 81.8 81.8 0 0 1 0-6.6v-2.7Zm-2.5-13.6Zm-6 8v.3a1057.6 1057.6 0 0 0-.6 8.3c-.3-.8-.8-1.2-1.5-1.4l-.7-.3c-.5-.2-1.1-.2-1.7-.1-1.2.3-2.2 1-2.9 2l-.2.5a86 86 0 0 0 .2 5.8c0 .1.1.2.2.1.2 0 .3 0 .4-.2.2.2.4.2.6.1l1.5-.3.1 1a7.2 7.2 0 0 1 0 1.6 20.2 20.2 0 0 0-2.4.3 10.6 10.6 0 0 1-.4-2.1c-.1-.2-.3-.2-.4-.3H15v-.8a102.6 102.6 0 0 0 .2-6 52.8 52.8 0 0 0-.5-6.4l1-.1c1.4-.3 2.6-.8 3.7-1.5h.4a21.2 21.2 0 0 1 1.7-.3l1.5-.2Zm1 1.1a17.6 17.6 0 0 1 0-1.3h.2a21.4 21.4 0 0 0 3.4-.8 39.5 39.5 0 0 1 0 5.8v3.5a74 74 0 0 1-.1 7.1 140.7 140.7 0 0 0 0 3.8h-1.4a468 468 0 0 1-1.3 0c.5-.1.7-.4.6-1a17.8 17.8 0 0 1-.6-2.8 1.2 1.2 0 0 0-.9-.5 87.8 87.8 0 0 1 0-3.2 130.3 130.3 0 0 1 0-10.6Zm-10.4 1v.2l.1.2v.1l.3 3.2a32.8 32.8 0 0 1 0 7.4l-.1 1a3.8 3.8 0 0 0 0 1l.2.2h-.4a.5.5 0 0 0-.6-.1l-.2.2c-.1.5-.2 1-.1 1.5v.9c0 .7.2 1.3.8 1.7a2 2 0 0 1 .1 0v.5h-1a13 13 0 0 0-1.2 0v.1h-.1v.1h-.1a4 4 0 0 0-.3 0h-.1c0-.1 0-.2-.2-.2l-.2-.2H10.3v-1.3a36.7 36.7 0 0 1-.1-3.4v-1.8a26 26 0 0 0 .1-4.5 34 34 0 0 1 .2-3.8 28.1 28.1 0 0 0 0-3h.3a19.6 19.6 0 0 1 1 .2l1.9-.2Zm5.1 5.7h.7l.6.2a6.3 6.3 0 0 1 .9.2l.1.1c.5.6.7 1.3.8 2l.1 1.2.2 2.3h-1c-.9-.2-1.7-.2-2.6 0-.7 0-1.5.1-2.2.4v-.6a258.6 258.6 0 0 1 0-3.9c.1-.4.3-.7.7-1a35.5 35.5 0 0 1 1.3-.8l.4-.1Zm.3-.1H19Zm9.6.6v-.3l.3 1.2a44.7 44.7 0 0 1 1.2 7 15 15 0 0 0 1 3.3l-.4.8c-.2.4-.3.9-.3 1.4a10.7 10.7 0 0 0 1 5v.3l.1.2v1.2l-.4 1.2v.1a90 90 0 0 0-.3.4v.2l.2.2H31c-.3 1-.7 1.8-1.2 2.7-.5.8-.8 1.7-1 2.7a17 17 0 0 0 0 7.3 117.6 117.6 0 0 1-6.3-2.5 87.5 87.5 0 0 0 5.6-.5l.2-.2a.7.7 0 0 0 0-.4c0-1.8 0-3.6.2-5.4A254.6 254.6 0 0 0 29 71a72 72 0 0 1-.3-8.6 491.3 491.3 0 0 1 .1-6.7Zm-5.7 6.2a165.2 165.2 0 0 0 0 .5l-.3.1h-.3l-.2.2-.1.2-.2.1v.4s0 .2.2.3v1a37.8 37.8 0 0 0-2.5 0v-.8a25 25 0 0 1-.2-1.8 56.8 56.8 0 0 0 3.6-.2Zm0 1.6h.2l.4-.2.4.1a7.2 7.2 0 0 0 .5 2.2h-.2a4.2 4.2 0 0 0-1 0v-.2l-.1-1-.1-1Zm-.7 2.2v.2c0 .4.2.7.5.9h.2a1.1 1.1 0 0 0 .2 0l.4-.1v.2l-3.1.2-5.7.3v-.5l.7-.2c.3 0 .5-.2.6-.4V66h.7a19 19 0 0 1 2.5-.3l3-.1Zm-.7 2.4h.6c.9-.2 1.7-.3 2.6-.3.9 0 1.8 0 2.7-.2l.1 1.4.2.8c0 2.8 0 5.6-.2 8.3a238 238 0 0 0-.4 8.7l-1.3.1c-2.1.3-4.3.4-6.5.3a31.5 31.5 0 0 0-7.1.6 62.2 62.2 0 0 0 .1-10.2l-.1-9h.6c.5 0 1 0 1.6-.2h.9a64.4 64.4 0 0 1 6.2-.3Zm-7.5-2.2v-.1a36.7 36.7 0 0 1-.2-2 3.3 3.3 0 0 0 .5 0h.4v.3c0 .3 0 .6.2.9v.8h-.5l-.4.1Zm16 16 .2-.3a84.8 84.8 0 0 0 1.5-3.3 13.8 13.8 0 0 0 0-.1V78h-.1v-.1l.5-.7a6 6 0 0 0-.2-4.7 6 6 0 0 1 0-5.4c.2 0 .3-.2.4-.3l.9-.9c.4-.4.8-.7 1.4-.9h.3l.5-.1h.4l.1.1.3.1.5.1a12.3 12.3 0 0 0 1.4.8c.6.5 1 1.2 1.4 1.9.3.8.5 1.7.4 2.6v.2l.2.2h.4v.1a5.4 5.4 0 0 0-.2.5v.1l-.2.4a13 13 0 0 1-1.1 1.5 6 6 0 0 0-.4.2v.2h-.1v.2a13.1 13.1 0 0 0-1.6 3l-.1.2a1.2 1.2 0 0 0 0 .3l-.4 1.4v.8a23 23 0 0 1-1 8.8c-1 2.3-1.5 4.6-1.5 7-.1 3 0 6.1.2 9.2l-.1.1v.2H34a2 2 0 0 1-.7.4c-.8.1-1.5 0-2.2-.2-.6-.2-1-.5-1.4-.9v-.7a57.1 57.1 0 0 0 1-8.5 125.6 125.6 0 0 0-.4-3.9L30 91a135.6 135.6 0 0 0-.8-3.8c0-1 0-2 .2-3.1l.7-2.3Zm17.4-18v1.1a2.4 2.4 0 0 0 .2.1 17 17 0 0 0 .2.1h.2a62 62 0 0 1 1.6-.5 100.2 100.2 0 0 0-2 3.3A11 11 0 0 0 47 70a4 4 0 0 0 0 2v.2a16.8 16.8 0 0 1-1.7-.6h-2c-.7-.1-1.3 0-1.8.5a4.8 4.8 0 0 0 .1-3l-.1-.1h-.2l-.1-.1c-.1-.7-.3-1.4-.7-2a5.8 5.8 0 0 0-3.7-2.9l-.6-.1-.7-.2-.7.3c-.6.2-1.1.4-1.6.8v-.2l.1-.6v-.3a3.1 3.1 0 0 0 .2-.9l.4.2c.8.3 1.6.6 2.5.7a16.6 16.6 0 0 0 2.7.3c.3 0 .6 0 1 .2h.9l.8.3c1 .2 2.1.3 3.2.2 1-.1 1.9-.5 2.7-1Zm1 4.6.4-.6a11.2 11.2 0 0 1 1.4-2.2 13 13 0 0 1 .5-.7l.2-.1.1-.1v-.1h1.9a18.7 18.7 0 0 1 4.3 2.2 113.8 113.8 0 0 1 2.5 2l.4.5 1 1c.3.3.7.6 1.2.8l.7 1.1a44 44 0 0 1 2.2 7.6v.6A96.3 96.3 0 0 1 65 88l-.3 6.2c0 1.2.3 2.3 1 3.2a17.4 17.4 0 0 0 3.3 3 69.3 69.3 0 0 0 1.8 1.3c0 .2-.3.3-.7.3-1.3-.2-2.6-.4-3.8-.8a13 13 0 0 0-3.9-.6 5.2 5.2 0 0 0-.6-.1l-.2-.1-.4-.1H61l-.1-.3a10 10 0 0 0 0-.7 9.4 9.4 0 0 0 1.1-4.3v-1.2a15.2 15.2 0 0 0-2.7-5.9 39.5 39.5 0 0 1-.2-.5 18 18 0 0 1-1.2-4.4c-.2-1.6.3-3 1.4-4.3a4 4 0 0 0 .8-1 3.5 3.5 0 0 0 .3-.4 1.1 1.1 0 0 0 0-.3l-.6-.5c-.5-.3-1-.4-1.7-.4-.6 0-1.3.1-2 .4h-.4l-.7-.1h-.8a8.1 8.1 0 0 1 0-.1l.2-.1a.6.6 0 0 0 .2-.3v-1.2l-.2-.5c-.2-.5-.5-.8-1-1l-1.2-.3-.7.1a375.3 375.3 0 0 0-2.7.1l-.2-.2-.5-.5a14.7 14.7 0 0 1-.3-.7V71.2a22.4 22.4 0 0 1 .8-3Zm-.9 3.2ZM32 64.2h.2a6.6 6.6 0 0 0-.2 1.3v.2h.1l-.1.2a18 18 0 0 1-.5-1.8l.5.1Zm7.8 10.4v.1l.1.2.1.1H40.6l.6-.8a65.7 65.7 0 0 1 4.3 0c.8 0 1.5 0 2.3-.2h2.1a9 9 0 0 0 2.3-.1h.5l.5.2v.1a281.4 281.4 0 0 1 .4 1.2l-.2.1v.1h-.1a2.7 2.7 0 0 0-.3 0 31.8 31.8 0 0 1-1.2.5 30.8 30.8 0 0 1-6.4.3h-2.1a66 66 0 0 0-4.8.4c.3-.8.8-1.5 1.3-2.2ZM38 77.9a15.6 15.6 0 0 0 2.1-.2v2.7a4.7 4.7 0 0 0 .6 1.8v.8l.1.8-.1 2.9a20.5 20.5 0 0 1-.5 3.4 13.8 13.8 0 0 0-.6-2v-1.2a9 9 0 0 0-.5-2.4L39 84l-.3-1.4a5.8 5.8 0 0 0-.4-1.5l-.1-.7a32.9 32.9 0 0 1-.1-1l-.1-.1-.2-.1h-.1l.3-1.2Zm-.5 4a44.5 44.5 0 0 1 1.1 6 104.3 104.3 0 0 1 1.2 6.6v.1h.1l.1.2a8.2 8.2 0 0 0 0 1.5 66.4 66.4 0 0 0-2.4-1.4v-.3l-.2-.1-.2-.4a27.8 27.8 0 0 0-.9-3.8 63 63 0 0 0 1-4c.3-1.5.4-3 .2-4.4Zm7.6-9.2.4.2c.3 0 .7.1 1 .3a37.4 37.4 0 0 1-4.6 0l.1-.3h.1a3.6 3.6 0 0 1 .5-.2h.2a97.5 97.5 0 0 0 2.3 0Zm-2.4 4.7 1.6-.1-.2.4.1 1.6a5.6 5.6 0 0 1 0 1.9 20.3 20.3 0 0 1-1.5 0V81l-.1-.8-.1-.7v-.4a22.6 22.6 0 0 1 0-1.2v-.4h.2Zm-1.5.5v-.2a.7.7 0 0 0 0-.1h.2v.7a13.6 13.6 0 0 0 0 1 2.2 2.2 0 0 0 .1.6v.8a22 22 0 0 0 .1.4 26 26 0 0 0-.2.1l-.3-1.4a12.9 12.9 0 0 1 0-1.8V78Zm.5 4.8v-.2l.1-.2c0-.1 0-.2.2-.2h.2v.3l-.2 2.7V89a430.6 430.6 0 0 0-.2 8 330.2 330.2 0 0 0-.7 0 30.8 30.8 0 0 1 0-2.3v-.2h.1a2 2 0 0 0 0-.2V94H41V93l.5-5.4c.1-1.7.2-3.3.1-5Zm1.5-.5h1.4v.6l-.1 1.1a41 41 0 0 1-.2 2.6 336 336 0 0 1 .5 10.2l-2.1.2v-1l.3-4.5a35 35 0 0 0 0-5 105.1 105.1 0 0 0 .2-4.2Zm28.2-39Zm1 8.6ZM8 28.5l.5-.5a11 11 0 0 1 1.1-.4v2.1a94.4 94.4 0 0 1 .2 7.1 281 281 0 0 1 .2 6.8l-1.5.6h-.2a1.5 1.5 0 0 0-.3-.5c.2-.8.2-1.5.2-2.3v-7c0-2 0-4-.2-6Zm-1.2.3H7v.8l.1 6.9v3.4-.2l-.1-.5a150.1 150.1 0 0 1-.2-7v-3.4Zm0 12.3a534.8 534.8 0 0 1 .3-.5v2.8h-.5V43l.1-1.8Zm1 8.2a1.2 1.2 0 0 0 0-.1.6.6 0 0 0-.1-.1h.1a4.6 4.6 0 0 1 1.5 0 .7.7 0 0 0 .2.2V50.2a22 22 0 0 1 0 4l-.1 1a361.4 361.4 0 0 1 0 14.6 17.9 17.9 0 0 1 .2 4.6 65.6 65.6 0 0 1-.1 6.2v1.8a33.5 33.5 0 0 0 .2 7.2l.4.3c.2 0 .4 0 .5-.2a35.2 35.2 0 0 1 1.7.1l1.3.1h.2a78.7 78.7 0 0 1 4.1-.4 18.9 18.9 0 0 0 .2 2.2 76.4 76.4 0 0 1-10.2.3 14.5 14.5 0 0 0-.3-3.2.5.5 0 0 0 .2-.1l.1-.1c.1-1.6.2-3.3.1-5a159.2 159.2 0 0 1 .2-15.2 162.2 162.2 0 0 0-.7-17l.2-1 .1-.5v-.6Zm-2.6 1.4Zm0 1.6Zm5 15.8.4.3.6.2.1.1.1.1V79c.2 2.7.2 5.4.1 8.2a26 26 0 0 1-1-.7 41.2 41.2 0 0 1 0-4.4 64.3 64.3 0 0 1 0-5.5l.1-3.6-.1-2.2c-.2-.9-.2-1.8-.2-2.7Zm.5 19.7a5.2 5.2 0 0 0 .7.5v.3l.1.1h-.9a78.4 78.4 0 0 0 .1-.9Zm-5 1.4a10.7 10.7 0 0 1 .5 0 1.3 1.3 0 0 0 .5 0v.4a82.5 82.5 0 0 1 0 2.4H5.2a41.8 41.8 0 0 0-.7-.2v-.6a14.3 14.3 0 0 0 .6-2 13.8 13.8 0 0 0 .8 0Zm47.1 8H53.4v2.2l.4 1.4a30.1 30.1 0 0 0-2 0 17.5 17.5 0 0 0-.3 0V100.4h-.1a18.6 18.6 0 0 1-.3-3l.8-.2 1-.2Zm-3.3.4h.5v.5l.2 1.4.1 1-.3.2h-.1a2.4 2.4 0 0 0-.3 0l-.2.1a19.9 19.9 0 0 0-5.3.5l-.6.1h-1a37.2 37.2 0 0 0-4.9-.1l-.1-.6v-.1a9.7 9.7 0 0 0-.1-1.6l.8-.1a29.4 29.4 0 0 1 6.7-1.3l2.2.2c.9 0 1.7 0 2.4-.2ZM35.2 94l.1-.6.4-1.3.2 1c0 .6.2 1 .4 1.5l-1.1-.6Zm.6 1.5a27 27 0 0 1 2.7 1.1l1.4.7-2.8.6a.7.7 0 0 0-.2-.2h-.7a4 4 0 0 1-.7-.2 1.7 1.7 0 0 0-.3 0 1.4 1.4 0 0 0-.1 0v-2.4l.3.2.4.2Zm-.3 3.1h.8a32 32 0 0 1 .3 3.4H35.7a1.8 1.8 0 0 0-.6 0v-3.5l.4.1Zm-12.3-4.9-.4-.2-1.8-1-1.7-1.1H19v-.7a8 8 0 0 1-.1-1.6 47.6 47.6 0 0 0 5.5 2.6 32.5 32.5 0 0 0 4.8 1.9.6.6 0 0 1 .2.1 12.6 12.6 0 0 1 0 2.3l-1-.5a362.4 362.4 0 0 1-4-1.3l-1.3-.5Zm-1.4-4.9a334.7 334.7 0 0 1 7.3 2.9l.3.8H29a3 3 0 0 0-.5-.2l-.4-.1-.1-.1-.7-.3-3.9-1.8a76.2 76.2 0 0 1-4.6-1.8h-.7a13.8 13.8 0 0 0-1 .3 99.8 99.8 0 0 1-4.7.2 36.4 36.4 0 0 1 7.8-.8h.3a2.8 2.8 0 0 0 0 .3l1.2.6Zm7.9 15.5ZM43 46.1v-.5c-.3-.3-.6-.3-1 0v.2l-.3.6a2.9 2.9 0 0 0-.4.5 1.2 1.2 0 0 0-.2.2l-.6.1a8.2 8.2 0 0 1-2.5 0h-.7c-.7 0-1.3-.2-1.9-.5a13 13 0 0 1-2.5-1.9c-.3-.2-.5-.2-.7.2v.2c0 .4.3.6.6.9l2.2 1.6c.5.2 1 .4 1.4.4 1 0 1.9.2 2.8.3.7 0 1.4 0 2-.3l.3-.1a4 4 0 0 0 1.5-2ZM17.7 23.9ZM31 1Zm41.4 42.1Zm-15.7-22Z"/><path fill="#CCC" d="M25.7 90.3a334.7 334.7 0 0 0-5-2l-.1-.2h-.3a43.2 43.2 0 0 0-7.8.7 19 19 0 0 1 2 0 99.4 99.4 0 0 0 4-.6h.1a.8.8 0 0 1 .2.1h.1a.5.5 0 0 1 .3 0l4.3 1.8a39 39 0 0 1 4.6 2l.1.2a3.8 3.8 0 0 1 .4.1l.5.1.3.1-.2-.8-3.5-1.5Zm-2.5 3.5a155 155 0 0 1 3.4 1.3 362.4 362.4 0 0 0 3 .7 12.6 12.6 0 0 0-.1-2h-.1l-.1-.1a1 1 0 0 0-.1 0 32.5 32.5 0 0 1-6.3-2.7 47.6 47.6 0 0 1-4-1.8l.1 1.6v.7h.1a3.3 3.3 0 0 0 .2 0 108.8 108.8 0 0 0 3.9 2.3Zm13.3 2a27 27 0 0 0-.7-.2l-.4-.2-.3-.2a165.5 165.5 0 0 0 .1 2.4H35.5l.7.1h.7a1 1 0 0 1 .2.2l2.8-.5-1.4-.7-2-.8Zm13.2 1.8h-.2c-.7.2-1.5.2-2.4.2a110.7 110.7 0 0 1-2.7-.2 68.9 68.9 0 0 0-7 1.5v1.5l.2.7a181.8 181.8 0 0 1 6.5 0 45 45 0 0 1 5.8-.6l.4-.2a44.3 44.3 0 0 0-.6-3Zm-42-48.4.1.1v.6l-.1.6-.2 1a75.7 75.7 0 0 1 .5 8.2 162.2 162.2 0 0 1 0 15v9a55.6 55.6 0 0 1-.3 5v.1a101.2 101.2 0 0 0 .1 3.4 116.3 116.3 0 0 0 10.3-.5v-.3a1.1 1.1 0 0 1 0-.5L18 90v-.5l-1.4.1a78.5 78.5 0 0 0-3 .3h-1.3a5.2 5.2 0 0 1-1.7-.3c-.1.2-.3.3-.5.3a.5.5 0 0 1-.4-.3v-.1a99.5 99.5 0 0 1 0-16.6l-.3-3c-.2-1.3-.2-2.4-.1-3.6v-5.1l.2-2.6a361.4 361.4 0 0 0 0-4.3 59.1 59.1 0 0 0-.2-5.2H9a4.6 4.6 0 0 0-1.2 0v.1ZM8.6 28l-.5.5c.2 2 .2 4 .2 6a257 257 0 0 0-.1 9.2l.1.3.1.3.2-.1a9.4 9.4 0 0 0 1.7-.7c-.2-.4-.3-.8-.3-1.3v-1.9a281 281 0 0 0-.4-10.6l.1-2.1a52.5 52.5 0 0 1-1 .4Zm35.1 54.2h-.4v2a105.1 105.1 0 0 1-.3 2.8v4.4a1647.9 1647.9 0 0 1-.2 5.5l2-.2a336 336 0 0 0-.3-11.8 40.5 40.5 0 0 0 .2-2.1v-.6h-1Zm-1.8.3v.2c0 1.7 0 3.3-.2 5a117.5 117.5 0 0 0-.4 6.5v.4l-.1.1a16.5 16.5 0 0 0 0 2.4 330.2 330.2 0 0 1 .6-.2v-.1A445 445 0 0 0 42 82c-.1 0-.2 0-.2.2v.2Zm-4.3-.5v-.1c.2 1.5.1 3-.2 4.3a63.2 63.2 0 0 1-.9 4.3 32.2 32.2 0 0 0 1.2 4.7l2.4 1.1a89.7 89.7 0 0 0-.1-1.6l-.1-.1v-.1a.4.4 0 0 1 0-.2 48.3 48.3 0 0 0-1.2-6.3c-.2-.8-.2-1.5-.2-2.3a44.7 44.7 0 0 0-.9-3.7ZM13.8 49.4a7.8 7.8 0 0 0-2 .2h-.3a20 20 0 0 0-1-.2 28.1 28.1 0 0 1 0 3.8 34 34 0 0 0 0 4 26.1 26.1 0 0 1-.3 5.3 36.7 36.7 0 0 0 .1 4.6h.2a13.8 13.8 0 0 0 .1 0h.1l.2.3.2.1h.1a2 2 0 0 0 .3.1h.1v-.1H14V66.8h-.1c-.6-.4-.8-1-.8-1.7v-.9l.1-1.5.2-.2.6.1h.2a2.2 2.2 0 0 0 .2 0 .5.5 0 0 1-.2-.3v-1a15.7 15.7 0 0 0 0-1.2 85.9 85.9 0 0 0-.1-10.3v-.1l-.2-.2v-.1Zm10.5-2.2-.2 1.2a36.8 36.8 0 0 0-.1 7.1 131.1 131.1 0 0 0 .1 6.7c.4 0 .7.2 1 .5v.5l.5 2.3c.1.6 0 .9-.6 1h-.2v.1a473.1 473.1 0 0 0 2.9-.3 140.7 140.7 0 0 1 .1-10.7v-3.5a141 141 0 0 1-.1-5.8h-.4a21.4 21.4 0 0 1-3 1ZM13.8 27v-1.5a38.2 38.2 0 0 0-3.2 1.6v4a138.6 138.6 0 0 1 .2 7.2 38.7 38.7 0 0 1 .3 5 4.7 4.7 0 0 0 .3-.2c.8-.7 1.7-1.2 2.6-1.5l-.1-.3v-3.6a577.7 577.7 0 0 1 0-10.7Zm13.6-6.7a12.5 12.5 0 0 1-1.4.7 6.6 6.6 0 0 1-1 .4.8.8 0 0 1-.2 0 13.3 13.3 0 0 1-.9.4 365.4 365.4 0 0 1 .2 17.4l1-.1h.7c.3 0 .7 0 1-.2.3 0 .5-.2.7-.3h.4V38a216.2 216.2 0 0 0-.3-10.6 99.8 99.8 0 0 0 0-7l.1-.4-.3.1Zm-2.3-5.6a6.8 6.8 0 0 1 .2 1.3c0 .3 0 .4-.2.5v.2l.8-.3a191.7 191.7 0 0 0 3.3-1.1l-.2-.4a898.7 898.7 0 0 1-3.9-.2Zm-1.8-2.7v.3l.4 1.8v.4a19.3 19.3 0 0 0-.3 1.8l.5-.4h.3v-.3a1.3 1.3 0 0 0 0-.2 6 6 0 0 1-.2-1.6l.1-.2v-.8a1 1 0 0 1-.2-1l-.6.2Zm-8.5 2.9a13.7 13.7 0 0 0-.6.2A11.5 11.5 0 0 1 14 17h.2a3 3 0 0 1 .4 0v-.6a5.8 5.8 0 0 1 0-1.5Zm-1.6.4H12.6a3.4 3.4 0 0 1-.6.2l-.4-.1a16.2 16.2 0 0 0-.8-.2v3.3a141.6 141.6 0 0 0 0 3.6 36 36 0 0 0 3-1.5l.4-1a7.1 7.1 0 0 0 0-1.5H14c-.3 0-.5 0-.7-.2l-.2-.2c-.1-.4-.2-.8-.1-1.2v-1.2Zm-.1-1h.2c1.5-.4 3-.9 4.4-1.5 1-.5 2.1-.9 3.2-1.2a118 118 0 0 0 5.6-1.8v-.2a6.5 6.5 0 0 1 1.6-.9v-.1a4.3 4.3 0 0 1-.8.2h-.1a2.4 2.4 0 0 1-1 .3 16 16 0 0 1-3.8 1.7 36.8 36.8 0 0 0-4.3 1.6 69 69 0 0 1-5 1.9ZM18 8a5.1 5.1 0 0 0-.1-.2H17.6l-.2-.1h-.2l-.4.2c-.1 0-.3 0-.4.2V8.7l.3.9c.1.2.2.5.1.8v.3a3 3 0 0 1-1 .8 4 4 0 0 1-1.6.5l-1.9.6a193 193 0 0 1-2.4.3 7.8 7.8 0 0 1-1 0l-.6-.1c0 1.6 0 3.1-.2 4.7a63.7 63.7 0 0 0-.5 6.2l.5-.4a6 6 0 0 1 1.7-.9V19a155.9 155.9 0 0 0 0-4.6h.1l.1-.1a3.5 3.5 0 0 1 .3-.1 2.9 2.9 0 0 1 .3-.1 2.2 2.2 0 0 1 .7 0v-.5h.1a103.4 103.4 0 0 0 10.4-3.8 40.6 40.6 0 0 0 4.4-1.9l.1-.1a3.2 3.2 0 0 1 1.4-.3V7l-.1-.1.1-.6-.8.2a13.6 13.6 0 0 0-1.6.4l-1 .2a9.3 9.3 0 0 1-1.4.3L22 8a3.2 3.2 0 0 1-.9.4l-1 .5a3.7 3.7 0 0 1-1.3.4c-.1 0-.2 0-.3-.2a1.5 1.5 0 0 1-.4-.3v-.2l-.1-.2A9.6 9.6 0 0 0 18 8Zm13.6 6.7a7 7 0 0 1-.5 0h-1v.5h.2v.6l-.1.1a77.9 77.9 0 0 1-8 2.6 45.8 45.8 0 0 0-7.8 3.1l-1.7.7a36.2 36.2 0 0 0-6.1 3c-.3.1-.6.2-.8.1h-.2a.5.5 0 0 1-.2-.4v-.5l.1-.4V24l-.2-.1a2.3 2.3 0 0 1-.4 0 149.3 149.3 0 0 1-.1 7.1 31 31 0 0 0-.2 6.7l-.2.2-.2.1H4a.5.5 0 0 1-.3-.2 4 4 0 0 1-1.3 0h-.2a3.1 3.1 0 0 1-.2.1l-.5.2-.3.3-.1.1v.6h.6l.8-.2H4l.2-.1c.6 0 .9.4.9 1a46.6 46.6 0 0 0 0 4.8l.6-.7a2.1 2.1 0 0 1 0-1.4 1.3 1.3 0 0 0 0-.3v-.3c-.1-.6 0-1.1.3-1.6a450 450 0 0 1-.1-12c0-.3.2-.4.4-.5h.6l.1-.1v-.1l.1-.1a17 17 0 0 1 .3-.2h.2l.5-.2a1.8 1.8 0 0 1 .5-.2 34 34 0 0 0 3.6-1.8l.2-.1a59.7 59.7 0 0 1 10.1-4l.8-.2a7.1 7.1 0 0 1 1.1-.4h.2l.2-.1.4-.2a8115 8115 0 0 0 5-2.3 18.6 18.6 0 0 1 1.2-.5v-1.5c0-.4 0-.7.2-1ZM37 7.8h-1.5c-.5-.2-1-.2-1.5-.2a37.6 37.6 0 0 1-2.3-.2 77 77 0 0 1 0 1.2 397.3 397.3 0 0 1 6.6.2 32.9 32.9 0 0 1 5.6.4 12 12 0 0 1 3.7-1c0-.4 0-.8.2-1.1l-1 .2a79.3 79.3 0 0 1-2.5.6L44 8h-4.1L37 7.8Zm-5.6-5c.3 0 .5 0 .7.2a18.3 18.3 0 0 0 4.6-.4h.2a5.8 5.8 0 0 0 2.6-1l.2-.3a69 69 0 0 1-3.3-.2h-7l-.7.2a36.1 36.1 0 0 0-2.3.2 2.4 2.4 0 0 0-.3.3V2l.2.1.1.1a9.4 9.4 0 0 1 1 .3h.1l.8-.4c.2-.1.4 0 .6.1v.5a18 18 0 0 1-.3 2.4.4.4 0 0 1 .1.1v.2l.3.1.2.2V8l-.1.2a13 13 0 0 0 0 2.8l-.2.6h.9l1-.1c-.2-.3-.2-.6-.1-1V6.7c-.2-1.1 0-2.3.3-3.4 0-.1.2-.3.4-.3ZM31 1Zm18.5 15.1v2.4h.3a1.9 1.9 0 0 1 .5 0V16h-.8Zm12 7.3a82.4 82.4 0 0 0 3.5 1.7l1.3.8a20.8 20.8 0 0 0 4.3 2.4l1.3.7.2.3v.2l.3 1.8v1A26.2 26.2 0 0 1 72 36a14.5 14.5 0 0 0 .2 2.2l-.1.3.1.3c-.1.6-.6.9-1.2.9a867.6 867.6 0 0 1-3 0H67.9a5.1 5.1 0 0 0-.2 0h-.1v.1h-.1v.1h.4l.5.1H69.7a10.4 10.4 0 0 0 1.9 0c.2-.2.4-.2.6 0l.2.3v.3a15.7 15.7 0 0 0 0 2.6v.5a7.9 7.9 0 0 1 .7.1v-2.1c.1-.3.2-.5.1-.8a34 34 0 0 0-.3-2.4c.2-1.2.3-2.3 0-3.5v-.5l.1-1.7a13.8 13.8 0 0 0-.1-3.6v-2.5h-.2a13.1 13.1 0 0 0-.2 0c0 .7-.2 1-.8.8a.3.3 0 0 1-.2-.3l-.6-.3a5.2 5.2 0 0 1-1-.6L67 24.9l-2.2-1.1a53 53 0 0 1-6.2-3.3 28.9 28.9 0 0 0-4.1-2.1 57 57 0 0 1-1.1-.8 6.3 6.3 0 0 0-2.2-.9l.1 1.7 1.3.7c1 .6 2.1 1.2 3.3 1.7l3 1.5a17.2 17.2 0 0 0 2.7 1.1Zm-4.8-2.3ZM51.1 3.8h.3c.2-.2.5-.3.8-.3a4.2 4.2 0 0 0 1-.3l.2-.2L53 3a24.2 24.2 0 0 0-7.8-.6c-1.1 0-2.1.1-3.1.5V3a2.3 2.3 0 0 0-.1.3l.6.5a64.1 64.1 0 0 1 .7.4c.7 0 1.3 0 1.9-.2h.5a13.5 13.5 0 0 0 1.3-.2c.4-.4.9-.5 1.4-.3l.2.3.2 1.5c0 .5 0 1-.2 1.4l.1.5V8.4c0 .3 0 .5-.2.6.1.6.2 1.2.1 1.8v1.9h.3a14.3 14.3 0 0 0 1.3 0h.5a2.2 2.2 0 0 1 0-.2 4.3 4.3 0 0 1 .1-.8 115 115 0 0 0-.2-5.1c0-1 0-1.8.4-2.7l.1-.1Z"/><path fill="#333" d="M36.3 98.7h-.8l-.4-.1v3.4h.6l.6.1h.3v-1.5l-.3-1.9ZM53 97.2h-.2l-.9.1c-.3 0-.6.1-.8.3a86.1 86.1 0 0 0 .4 3.2 68.6 68.6 0 0 1 .6 0h.8a34.4 34.4 0 0 1 1 0l-.5-1.4v-2.1h-.2l-.2-.1ZM6 89.2a10.7 10.7 0 0 0-.7 0H5a15 15 0 0 1-.5 2v.7h.1a3.6 3.6 0 0 0 .4 0h1.8v-1a82.5 82.5 0 0 0-.3-1.7 1 1 0 0 1-.3 0Zm4.5-20.8-.3-.3c0 1 0 1.8.2 2.7a84.4 84.4 0 0 0 0 12.6v3.1c.2 0 .3.2.5.3l.5.4V79a177.6 177.6 0 0 1-.2-10.3l-.7-.3Zm30.6 9.3a.9.9 0 0 1 0 .3l-.1.1a12.9 12.9 0 0 0 .3 3.1 24.6 24.6 0 0 1 .3 0 22 22 0 0 1-.3-2.9v-.7a7.4 7.4 0 0 1-.3 0v.1Zm3.1-.4a18 18 0 0 0-1.8.1V77.7a7.9 7.9 0 0 0-.1.3 7.1 7.1 0 0 0 0 1.1v.4l.2.7v.8l.1.1a38.8 38.8 0 0 1 1.5 0v-3.7l.1-.1ZM47.6 64v-.4c-.8.6-1.7 1-2.7 1a8.9 8.9 0 0 1-4-.4h-1a10.2 10.2 0 0 0-1.3-.3c-.8 0-1.6 0-2.3-.2a10 10 0 0 1-2.5-.7l-.4-.2a3.8 3.8 0 0 1-.1 1v.2a2.3 2.3 0 0 1-.2.8c.5-.4 1-.6 1.6-.8l.7-.3.7.2.6.1.8.3A5.8 5.8 0 0 1 41 69H41.4a1 1 0 0 1 0 .2h.1v.2c.3 1 .2 2-.1 2.8.5-.4 1-.6 1.7-.6a90.6 90.6 0 0 1 2.5.2 14.5 14.5 0 0 0 1.4.5l-.1-.1a4 4 0 0 1 0-2.1c.2-.8.5-1.5 1-2.2 0-.2.1-.4.3-.5l.7-1.4a100.2 100.2 0 0 1 .8-1.3l-.7.2a63.7 63.7 0 0 0-1.2.2.6.6 0 0 1-.1-.2l-.1-.4v-.4Zm-25.3 3.8h-.6a43 43 0 0 1-7.1.4l-1.6.2h-.6a569.8 569.8 0 0 0 .2 11.6 62.2 62.2 0 0 1-.2 7.6c2.4-.4 4.7-.6 7.1-.6a45.4 45.4 0 0 0 7.8-.4c0-2.9.2-5.8.4-8.7a84 84 0 0 0 0-10.5c-1 .2-1.9.3-2.8.2-.9 0-1.7 0-2.6.2Z"/><path fill="#666" d="m45.5 72.9-.4-.2a17.7 17.7 0 0 0-2.3 0h-.2a2.6 2.6 0 0 0-.5.2l-.2.2a9.5 9.5 0 0 0 .8 0l.8-.1a3.1 3.1 0 0 1 1 .2h2a10 10 0 0 0-1-.3Zm-5.7 1.8v-.1c-.5.7-1 1.4-1.3 2.2a66 66 0 0 1 12.2-.5l1-.2a3.7 3.7 0 0 0 1.3-.4 1.7 1.7 0 0 1 .4 0v-.2a67 67 0 0 0 .3-.4V75l-.3-.4a441.4 441.4 0 0 0-.2-.4 1 1 0 0 0-.5-.1 2 2 0 0 1-.5-.1 9 9 0 0 1-2.2.2h-2.2a9.6 9.6 0 0 1-4.5-.1l-1.3.2h-.8l-.6.7-.2.2H40v-.2c-.1 0-.2 0-.2-.2Zm-25.7-9v.1h.5l.4-.1h.2l-.1-.8a6 6 0 0 1-.2-1.3 8.8 8.8 0 0 0-.9.2 12.3 12.3 0 0 0 .1 1.9Zm9.2-2.4h-.1v1a4.8 4.8 0 0 0 .3 1.3 5.5 5.5 0 0 1 1.1 0l-.2-1a5.5 5.5 0 0 1-.3-1.3h-.8Zm-4-8.3-.4.1a8 8 0 0 1-.8.3l-1 .6c-.3.3-.5.6-.6 1v.5a86 86 0 0 0 0 4c.7-.3 1.5-.4 2.2-.5h3.5a15.8 15.8 0 0 0-.2-3.4c0-.7-.3-1.4-.8-2h-.1a1.3 1.3 0 0 1-.2-.1l-.7-.2-.6-.2h-.4Zm13.4-.9-1-1.2a261.4 261.4 0 0 1 .4 10.3.8.8 0 0 0 .2 0v-.7l.3-.2.2-.2.2-.2c.4-1 .6-2 .6-3a11.5 11.5 0 0 0-.9-4.8Zm2.4-27.8-1 .4a14.3 14.3 0 0 0-.3 4.4l-.2 3.6.1 2.4.2.3.2-.2a13.3 13.3 0 0 1 1.3-1c.3-1 .4-2 .2-3.2a56.7 56.7 0 0 0-1-4.8 3 3 0 0 1 .5-1.9Z"/><path fill="#fff" d="M49 67.8c0 .2-.2.4-.4.6l-.4 1.3-.4 1.6V71.7l.3.7.5.5.2.2a375.6 375.6 0 0 1 3.4-.2l1.3.4c.4.1.7.4 1 .9l.1.5v.7a1.4 1.4 0 0 1 0 .6l-.2.2h-.2v.1h.8l.7.2h.4c.7-.3 1.4-.4 2-.4.6 0 1.2.1 1.7.4l.6.5a1 1 0 0 1 0 .3v.1a1.7 1.7 0 0 1-.3.4l-.1.2-.7.7A4.8 4.8 0 0 0 58 83a18 18 0 0 0 1.5 5.1l.4.7c1 1.5 1.7 3.2 2.1 5L62 95c0 1.5-.4 3-1.1 4.3a11 11 0 0 0 0 .7v.2l.3.1h.4l.2.2a3.6 3.6 0 0 1 .5 0l.1.1c1.3 0 2.6.2 3.9.6 1.2.4 2.5.6 3.8.8.4 0 .6 0 .7-.3v-.1a22.6 22.6 0 0 0-.1-.1 71.6 71.6 0 0 1-4.2-3.4l-.7-.7c-.8-1-1.2-2-1.1-3.2a3420.1 3420.1 0 0 0 .7-13.8V80a217.6 217.6 0 0 1 0-.3 44 44 0 0 0-3-8.6 5.3 5.3 0 0 1-2-1.8 10 10 0 0 0-.5-.5l-.1-.1a5.3 5.3 0 0 1-.8-.7l-1-.7a113.8 113.8 0 0 0-2.4-1.5 12.1 12.1 0 0 0-2.5-1.3 32.5 32.5 0 0 0-1.9.1v.1l-.1.1a3.9 3.9 0 0 1-.3.2 13.1 13.1 0 0 0-.6 1l-.4.5-.8 1.3ZM30.4 81.5l-.2.4a14 14 0 0 0-.7 2.3 10.6 10.6 0 0 0 0 4.2 135.4 135.4 0 0 1 .7 2.9l.1.3v.2l-.1.1a125.5 125.5 0 0 1 .5 4.7 57 57 0 0 1-1 7.8c.4.4.8.7 1.4.9.7.3 1.4.3 2.2.2l.7-.3a2.2 2.2 0 0 0 .2-.3v-.1c-.1-3-.2-6.1-.1-9.2 0-2.4.6-4.7 1.5-7l.5-1.6c.6-2.3.7-4.7.5-7.2V79a13.6 13.6 0 0 1 .4-1.5v-.2a1 1 0 0 1 .1-.2V77l1.6-2.9V73.7l.1-.1.4-.2.2-.3a13 13 0 0 0 1.1-1.7 5.4 5.4 0 0 1 .2-.5h-.4l-.1-.2v-.1H40v-.2a5 5 0 0 0-.4-2.6 5.5 5.5 0 0 0-1.4-2A75.8 75.8 0 0 1 36 65H36a2.1 2.1 0 0 0-.4-.1H35l-.3.1c-.6.2-1 .5-1.4.9a8.9 8.9 0 0 0-1.2 1.2 6 6 0 0 0 0 5.4 6 6 0 0 1 .1 4.7c0 .3-.3.5-.6.7h.1v.1a13.4 13.4 0 0 0 .1.2l-.2.8-.4.8-.2.4-.3.5-.4.8ZM42 25.2l-1-.7a5.2 5.2 0 0 0-2 .2l-.4.1a19.7 19.7 0 0 0-2.2 1.5l-.4.7a2.5 2.5 0 0 0-.4 1l.7 3.4c.3 1 .5 2.2.4 3.4 0 .7-.2 1.4-.5 2a.5.5 0 0 1-.4.3l-1.3 1a4 4 0 0 1-.7.5l-.3.2-.2.2a1.6 1.6 0 0 1-.3.1h-.4l-.5-.3a4.4 4.4 0 0 1-.5-.1H31.3l-.2.1a2.1 2.1 0 0 0-.3 0 3.8 3.8 0 0 1-1.7.5l-.6.2H28l-1.2.4a3 3 0 0 1-1.5 0c-.3.2-.6.2-1 .3a12 12 0 0 0-.8.1 170.4 170.4 0 0 1-1.4.8 4 4 0 0 1-.8.6 3 3 0 0 1-.8.4c-1 .2-2 .3-3.1 0l-2 .1-1 .2c-.6.2-1 .5-1.5.9a5.4 5.4 0 0 1-1.4.8l-1.2.6L9 45a17 17 0 0 0-.5.5H8c-.3 0-.5 0-.6-.3l-.1-.4-.1-.4h-.1a1 1 0 0 0-.6.2c-.2 0-.3.2-.5.4v.1h1c.2.2.2.4 0 .7 0 0 0 .2-.2.2l-.6.2a1 1 0 0 1-.3 0l-.7-.4h-.4l-.4-.1a36.2 36.2 0 0 1-1 0 12 12 0 0 0 .1 3.5l.1.4a48.7 48.7 0 0 0 1.7-.7v-.6c0-.1 0-.2.2-.2.4-.2.7-.1.7.4l.5-.2 1-.3h1.3a12.3 12.3 0 0 0 2.7.6 8 8 0 0 1 2.2-.2 8 8 0 0 0 2.4-.1l1.4-.8a5 5 0 0 1 1.9-.7l4.2-.7a29.4 29.4 0 0 0 4.9-1.1h.3l.4.1.4.2a.6.6 0 0 1 .1 0l.2.1.2.1a17 17 0 0 1 .2.3c0 1.3.1 2.6.7 4 .4 1 1 2 1.8 3a5 5 0 0 1 .6 1v.2c.5 1.3.8 2.5.9 3.9A10.7 10.7 0 0 1 34 62h.1a5.3 5.3 0 0 1 1.4.6 1390.4 1390.4 0 0 1 9.6 1.2 21.8 21.8 0 0 1 2.1-1.1l.1-1.8a171.3 171.3 0 0 1 .2-3 2.7 2.7 0 0 1 0-.6 11 11 0 0 1-.3-4l.1-1.7c0-1 .3-2 .6-3l-2.2-.4c-.5-.1-.9-.3-1.2-.6-.6-.6-1-1.2-1-2v-.2c0-.4.3-.6.7-.3.1 0 .2 0 .2.2v.3l.1.4a2.7 2.7 0 0 0 .4.5 7.8 7.8 0 0 0 .4.5c.8.3 1.6.5 2.5.5h.5a20.5 20.5 0 0 1 .3-.5v-.4l.1-.4.2-.3a1 1 0 0 1 .1 0h.2a25.2 25.2 0 0 0 6.6.9h.5l.4.1.1.1.3.2.2.3.2.1a3.9 3.9 0 0 1 .5.2l.3.1a41.6 41.6 0 0 0 8 .5h.3l.2-.1a.5.5 0 0 1 .5 0 .4.4 0 0 1 .1.1 10.3 10.3 0 0 0 .6.3 86.4 86.4 0 0 0 3.3.7V49c-.2-1-.1-2 0-3l.1-.1c.4-.2.7 0 .8.4v.4a28.5 28.5 0 0 0 .2 2.6c.2-.3.5-.3.8 0h.4c0 .1.1 0 .2 0 .2-.4.2-.8.2-1.3a10.6 10.6 0 0 1-.1-1.5l-.2-.8-.5-.8-.2-.1a2.4 2.4 0 0 0-1.5 0c-.5 0-.9.2-1.3.4a4 4 0 0 1-1.2.6 3.3 3.3 0 0 1-1 0v.1h-.4l-1.3-.1a3.6 3.6 0 0 1-1.6-.7l-.8-.3a46 46 0 0 0-6.7-2.5 8 8 0 0 1-1.6.2c-.7 0-1.4 0-2-.2l-.4-.2-.1-.1v-.1a26.8 26.8 0 0 1-.2-.1l-2.7-1c-.5-.3-1-.6-1.6-.7l-1.9-.8a12.2 12.2 0 0 1-1 0 1 1 0 0 1-.3-.1h-.7a5.2 5.2 0 0 1-.9 0h-.1l-.1-.1v-.2h-.2l-.1-.1v-.1l-.1-.1a.5.5 0 0 1 0-.1v-.6H43a19.8 19.8 0 0 0-.7-1.1l-.1-.4a2.9 2.9 0 0 1 .1-.5 3.5 3.5 0 0 1 .1-.4l-.8.2a9.8 9.8 0 0 1-3.2-1l-1.2-1c-.1-.1-.2-.3 0-.5.1-.3.4-.4.7-.1a23.5 23.5 0 0 0 1.7 1l1 .3c.3.2.6.3 1 .3a3.5 3.5 0 0 0 1-.5l.2-.1.6-3.4c.2-1 .2-2.1 0-3.2a4 4 0 0 0-.7-1.4l-.8-1Zm1 20.4v.5a4 4 0 0 1-1.5 1.9l-.3.1c-.6.2-1.3.3-2 .3a41 41 0 0 0-2.8-.3c-.5 0-1-.2-1.4-.4L32.8 46a2 2 0 0 1-.7-.9V45c.3-.4.5-.4.8-.2l.3.2a13 13 0 0 0 2.2 1.7c.6.3 1.2.5 1.9.5h.7a8.1 8.1 0 0 0 2.5 0l.6-.1.1-.1h.1v-.1l.4-.5.3-.6v-.2c.4-.3.7-.3 1 0Z"/><path fill="#999" d="M34 13h-.1c-.4-.2-.9-.3-1.3-.3a96.7 96.7 0 0 1-2.1.1l-.1.1H29.8a.6.6 0 0 1-.1-.2l-1.8-.2a8.3 8.3 0 0 0-2.7.3v.5c.4.4 1 .5 1.6.4H31.6a27 27 0 0 0 1.7-.2 5.8 5.8 0 0 0 .7-.4V13Zm16.5.8h-2.1c-.3 0-.5 0-.8-.2h-.1a3 3 0 0 1-.7 0 3.6 3.6 0 0 0-1.7.4l-.1.1-.1.2-.1.1V14.7a4.5 4.5 0 0 0 0 .2c1 .3 2 .4 3 .3h.8c.2-.4.5-.4.8 0l1-.1.1-.2c.3-.1.5 0 .7.2l.7.1h1l1-.3.5-.2a2.5 2.5 0 0 0-.1-.2l-.1-.1a2 2 0 0 0-1.4-.4c-.6 0-1.1 0-1.6-.2h-.7Z"/></svg>