<svg xmlns="http://www.w3.org/2000/svg" width="92" height="132" fill="none"><path fill="#fff" d="M45.2 110c-.6 0-1.1.2-1.6.4l-1.7.2h-.6c-1.1 0-2.2-.2-3.3-.5a29.4 29.4 0 0 1-4.7-1.9c-1-.4-1.8-.8-2.7-1.4l-.8-.3-2.1-.9a124 124 0 0 0-1.8 6.5 31.7 31.7 0 0 0 2 18.8v.3h.1a.4.4 0 0 1 0 .2h12.5l4-6.8c1-2.1 1.8-4.4 2.3-6.7 0-.4.1-.9.3-1.3V114.7c-.4-1.6-.7-3.2-.9-4.9a7.9 7.9 0 0 0-.8.1h-.2Zm7.2-.6h-.8a43 43 0 0 0-3.6.2 2325 2325 0 0 0 1.2 8.4c.2 1 .2 2 0 2.9-.5 3.5-.4 7 .3 10.5h15c.7-1.3 1-2.7 1.2-4.2a62 62 0 0 0 .1-7.4c-.7-.3-1.4-.7-2-1.3l-1.6-1.4-1.4-1.6a77.1 77.1 0 0 1-2.4-4l-.9-3a68.5 68.5 0 0 1-5 1Zm-32.1-71v-.1c-.7.3-1.4.4-2.2.3h-1.7c-.7 0-1.4.3-2 .6a32.7 32.7 0 0 1-2.1 1l-.2.3v1a34.9 34.9 0 0 0 3.5 2.5 38 38 0 0 1 3.5 2.2l.2-.3a4.8 4.8 0 0 0 .8-.7l.5-.9.5-.7v-2.5l-.3-1.3-.2-.6V39a15.3 15.3 0 0 0 0-.2 8.4 8.4 0 0 0-.3-.5Zm5 7h-.5v.3c-.2 1-.2 2 0 3a89.9 89.9 0 0 0 .3 1.8c.6.7.8 1.6.6 2.5a13.2 13.2 0 0 1-1 3.4 30.5 30.5 0 0 1 4 7.5v.5c-.4.6-.8.7-1.4.3l-1.6-3a27.2 27.2 0 0 0-2-3.6 31 31 0 0 0-1.9-2.2 44 44 0 0 1-1.3 1.7c-.9 1-2 1.7-3.3 1.8a11.3 11.3 0 0 1-.7 0l.2.5c0 .3.2.5.3.7l.2.8 2.1 3.7c.8 1.2 1.4 2.4 2 3.7a8.6 8.6 0 0 0 2.7 3.1c1 .8 2.3 1 3.6.5a6 6 0 0 0 3.4-3.2l-.1-3a31.3 31.3 0 0 1-.5-6.4 7 7 0 0 1-.3-2.2v-3.3a1.9 1.9 0 0 1-.2-.5 29.9 29.9 0 0 1-2.7-7.7v-.9l-2 .2Zm-.4 3.4a.2.2 0 0 1 0-.1ZM45.4 2H45c-1.3.1-2.5.5-3.7 1.2l-.8.6h.1a9.3 9.3 0 0 0-1.8 3.7L38.4 9a3 3 0 0 0 0 1.8c0 .2 0 .5.2.7.2.7.2 1.5-.2 2.2 0 .9.1 1.7.3 2.6A19.2 19.2 0 0 1 39 19l.3.7.7 1.5a4.5 4.5 0 0 0 .8 1.4c.2 0 .4.2.5.3a25 25 0 0 0 6.3-1.6c.5-.3.9-.3 1.4-.3l.4.2c.3.6.2 1-.3 1.4l-1 .5-1.2.4a21.4 21.4 0 0 1-5.3 1.2c-.2.4-.2 1-.2 1.4a8121.5 8121.5 0 0 1-.3 3.5 565.4 565.4 0 0 1-2.9 3l-.8.4a53.5 53.5 0 0 0-3.6.8c-.6.3-1 .7-1.4 1.2a1 1 0 0 1-.4.4c.4 1.3.5 2.6.4 4a6.9 6.9 0 0 1-.9 2.8c0 .3-.2.5-.3.7-.6.8-1.3 1.3-2 1.7l-.1.2v.2H29a15 15 0 0 0 2.2 7.2l.2.1.1.2.1.2a3.3 3.3 0 0 1 .1.4v.3l.8.2a6.4 6.4 0 0 1 1 .2 4 4 0 0 0 2-.6l.2-.2a3.6 3.6 0 0 1 .5-.6 58.7 58.7 0 0 1 1-2.6c0-.2.2-.3.3-.5l.2-.1a1 1 0 0 1 .5-.2h.2l.3.1.1.1a50.5 50.5 0 0 1 .3.6 9 9 0 0 1-1.5 3.6 5 5 0 0 1-4 2.2 19.6 19.6 0 0 1-1.7-.3l.2 4.5a56.4 56.4 0 0 0 .8 9.6v.8l-.2.6-.7 6.9c-.2 1.7-.1 3.4 0 5.2l.2 2.3c4.4 1.6 9 2.1 13.6 1.5l8.3-1.1a46.9 46.9 0 0 0 8-1.9c-.2-2.3-.7-4.5-1.5-6.8l-.2-1a12 12 0 0 1 3-9.3c-.9-2-1.5-4.1-2-6.3a40.8 40.8 0 0 1-.5-10.2 24.4 24.4 0 0 1-1.7-3.6c.1 2.7-.9 4.9-3 6.5a13.2 13.2 0 0 1-9.3 2.8c-1.4-.2-2.6-.6-3.9-1.2-1.2-.6-2.3-1.3-3.3-2.2l-.7-1v-.5l.2-.2.2-.1.2-.1.3-.1h.2a3.4 3.4 0 0 1 .3.1A12 12 0 0 0 47 54h2.3c2.5-.2 4.7-1.3 6.6-3l1-1.7.4-1.8.1-.9.1-.2a1 1 0 0 1 .4-.3 1.3 1.3 0 0 1 .5 0h.2l.2.2.1.1.2.2a45 45 0 0 1-.2-1 1.5 1.5 0 0 1 .2-.3 1.6 1.6 0 0 1 .3-.1l.3-.1h.4l.1.1c2 2.7 2.8 5.6 2.3 8.9v2.2a92.4 92.4 0 0 0 1.8 8.1 33.6 33.6 0 0 1 1.8 4v.2l.1.3a10.8 10.8 0 0 0 0 .3.7.7 0 0 1-.3.3v.1l.2.2.1.2a.9.9 0 0 1 0 .3v.1a1 1 0 0 1 0 .3v.1a39.3 39.3 0 0 0 4.1 17.6 15.7 15.7 0 0 1 1.9 6.8 17.4 17.4 0 0 0 .2.8 15.1 15.1 0 0 1 .9.5l1 .8.6 1.3v.5l2.3 3.4a12.5 12.5 0 0 1 1.7 3.8h.2c.2-.3.3-.6.3-1a9.1 9.1 0 0 1 .3-1.1c-.1-1.3-.3-2.6-.7-3.9a15 15 0 0 1-.6-3.9 3.6 3.6 0 0 0-.2-.4l-.1-.2a7 7 0 0 1 0-2.4l.4-2v-.1l-.1-.3-.1-.3v-.1a48 48 0 0 1-.2-7 274.5 274.5 0 0 0 .2-8.4c0-2.8-.7-5.5-2-8a9 9 0 0 1-.6-7c.4-1.5.7-3 .7-4.4l-.3-2.1a10.4 10.4 0 0 0-.4-2l-1.2-1.5-.7-1.4v-.5a1.6 1.6 0 0 1-.1-.2v-.1l-.1-.1a.9.9 0 0 1 0-.3v-.7l.2-.3c.3-2.8-.5-5.1-2.5-7a180.7 180.7 0 0 0-7.1-6.7 3 3 0 0 1-2.1-1.3 65 65 0 0 0-3.8-3.3l-1.7-1c-.7-.3-1.2-.7-1.6-1.3H55a5.1 5.1 0 0 1-1.2-3.9c0-.9.3-1.7.7-2.5A154.2 154.2 0 0 0 56 16a17.2 17.2 0 0 0 1-4.4 7.5 7.5 0 0 0-.5-3 10 10 0 0 0-1.9-3A16.4 16.4 0 0 0 49.3 2a7.6 7.6 0 0 0-4-.1Z"/><path fill="#000" d="M49.4.3a8.9 8.9 0 0 0-4.3 0h-.8c-1 .1-2 .4-2.9.8a7.5 7.5 0 0 0-2.3 1.7l-.8 1-.5 1.4-1 2.8c-.5 1.5-.5 3 .2 4.3l-.1.2-.2.7c0 1 0 2.1.2 3.2l.1.8c0 1 .2 2 .6 3l.4 1.2c.4 1 1 1.9 1.7 2.5l.2.3c-.3.7-.4 1.5-.4 2.2v1.2l.1 1.1a52 52 0 0 0-2.5 2.5l-1 .2a6.4 6.4 0 0 0-4.8 2 12 12 0 0 0-4-4.7 35 35 0 0 0-2.6-1.6l-4.3-1.4a8.6 8.6 0 0 0-4-.2c-.8 0-1.5.3-2.1.9-.7.7-1.3 1.5-1.8 2.4l-.4 1a6.2 6.2 0 0 0-1 3.3c.3 1.3.7 2.5 1.4 3.7a15.2 15.2 0 0 1 .6 1l-.1.1-.3.1a3 3 0 0 0-2.4 2.4L8.6 40c-.8-.2-1.7-.3-2.5-.3a6 6 0 0 0-6 5.1C0 46.2 0 47.6.3 49a8.7 8.7 0 0 0 2 3.7 64 64 0 0 0 1.6 2c1 1.1 2.1 2 3.4 2.5l4 1.5c1.1.4 2.3.7 3.5.7v.7c.4 1.4 1 2.6 1.7 3.8.8 1.2 1.5 2.5 2.1 3.7a42.2 42.2 0 0 0 3.5 5.3 5.9 5.9 0 0 0 4.7 1.7 7 7 0 0 0 3.8-1.7l-.4 3c-.2 1.4-.2 2.6 0 3.9a37.9 37.9 0 0 1 .2 7.2v.1a.7.7 0 0 0 .3.3c-.4 2.6-1 5-1.6 7.6a271 271 0 0 1-3.8 12.2 36 36 0 0 0-2 12.7c.2 4 1.1 8 2.9 11.6H28v-.2a2.2 2.2 0 0 0-.1-.2v-.1a1.4 1.4 0 0 0-.2-.2 31.7 31.7 0 0 1 0-25l2 .8c.4 0 .6.2.9.3A228.7 228.7 0 0 0 38 110a11.2 11.2 0 0 0 7.1 0 5.2 5.2 0 0 1 .8-.1h.3a93 93 0 0 0 .9 5V116.6a23.5 23.5 0 0 1-2.7 8c-1.2 2.3-2.5 4.6-3.9 6.8h2a83.8 83.8 0 0 0 4.9-8.7 204.9 204.9 0 0 1-.2 6.3c0 .8 0 1.7.2 2.4h2c-.6-3.5-.7-7-.2-10.5.2-1 .2-2 0-2.9a1394.5 1394.5 0 0 1-1.2-8.4h.7a43 43 0 0 1 3.7-.2 110.2 110.2 0 0 0 5.1-1 13.4 13.4 0 0 0 1.1 3.4 77.2 77.2 0 0 0 3.6 5.3l1.6 1.4c.6.6 1.3 1 2 1.3v1.2l-.1 6.2c-.1 1.5-.5 3-1.2 4.2h2a13 13 0 0 0 1-4.5v-6.7h.4a4.3 4.3 0 0 0 1-.1h-.1.4a6.3 6.3 0 0 0 .1 0H69h.2l.1-.1c.6 0 1-.2 1.6-.4a24.6 24.6 0 0 0 1.2-.4 11.1 11.1 0 0 0 4.3-2.7l2 .5h1.2a24.3 24.3 0 0 0 3.4-.7c1.3-.4 2.6-1 3.8-1.8 1-.8 2-1.7 2.7-2.9a13.4 13.4 0 0 0 2-8.3 10 10 0 0 0-1.2-4l-1.2-1.7a9 9 0 0 0-3.1-2.5 18 18 0 0 0-6-1.9V93a7.3 7.3 0 0 0 .2-1v-.3a23.2 23.2 0 0 0 0-1.2l-.1-.1V90a70 70 0 0 1-.1-11.3 27.2 27.2 0 0 0-3-14.4c0-1 .2-1.9.4-2.8.6-2.2.8-4.5.8-6.8-.1-2.3-1-4.4-2.5-6.2a8.8 8.8 0 0 0-.3-.8.7.7 0 0 0 0-.1c.5-2 .3-4-.6-6-.7-1.5-1.6-3-2.8-4.1a70 70 0 0 0-9-7.8 91.2 91.2 0 0 0-4.2-3.5l-1.2-.6-1.4-1-.3-.3c-.2-.5-.4-1-.4-1.6v-.6c.3-1.3.7-2.5 1.2-3.7.6-1.4 1.2-2.8 1.6-4.2a10 10 0 0 0-1.1-8.2c-.7-1.1-1.6-2-2.7-3-1-.7-2-1.4-3.2-2a10 10 0 0 0-2-.8ZM45 2h.4c1.3-.3 2.6-.3 3.9 0a26.4 26.4 0 0 1 3 1.7A16.4 16.4 0 0 1 55 5.8a11.8 11.8 0 0 1 1.6 2.7 7.5 7.5 0 0 1 .4 4 17.2 17.2 0 0 1-1.3 4.3l.1-.2v.2l-1.2 2.7a8 8 0 0 0-.7 2.5c-.1 1.5.3 2.8 1.2 4 .5.5 1 1 1.7 1.2l1.7 1a65 65 0 0 1 3.8 3.3 3 3 0 0 0 2 1.3l1.7 1.5a181 181 0 0 1 5.5 5.2c2 1.9 2.8 4.2 2.5 7l-.1.3-.1.4a8 8 0 0 1 0 .5.9.9 0 0 0 0 .2 3 3 0 0 0 .2.2v.6l.7 1.4A22.8 22.8 0 0 1 76 52l.3 1.7.3 2.1c0 1.5-.3 3-.7 4.3a9 9 0 0 0 .6 7 16.9 16.9 0 0 1 2 9.8l-.2 6.7a48 48 0 0 0 .4 7.7l-.4 2.1a7 7 0 0 0 0 2.4 4.2 4.2 0 0 0 .2.4l.1.2v.6l.6 3.3a20.4 20.4 0 0 1 .7 4l-.3 1c0 .4-.1.7-.3 1a6 6 0 0 0-.2 0c-.3-1.4-.9-2.6-1.7-3.8a626 626 0 0 1-2.2-3.4v-.5l-.8-1.3a3.2 3.2 0 0 0-1-.8L73 96l-.4-.2v-.4l-.2-.4a14.4 14.4 0 0 0-1.9-6.8 39.2 39.2 0 0 1-4.2-18.6.9.9 0 0 0-.2-.2v-.1l.2-.2v-.1l.1-.1v-.2a2.5 2.5 0 0 0 0-.5l-.2-.1V68l-.2-.5-.7-1.5a33.6 33.6 0 0 0-.9-2.1c-.7-2.6-1.2-5.2-1.7-7.8V54a11.6 11.6 0 0 0-2.4-9H59.5l-.1.1h-.1l-.1.1v.1a1.5 1.5 0 0 0-.3.5v.2a44.9 44.9 0 0 0 2 4 51.6 51.6 0 0 0 .6 10.3c.4 2.2 1 4.3 2 6.3-.5.4-.8.8-1.1 1.3a12 12 0 0 0-2 8c0 .3 0 .7.2 1 .8 2.3 1.3 4.5 1.5 6.8l-2 .6c-2 .5-4 1-6 1.3l-8.3 1.1c-4.6.6-9.2.1-13.6-1.5 0-.7 0-1.5-.2-2.3-.1-1.8-.2-3.5 0-5.2a181.6 181.6 0 0 1 1-8.9c.1-.4 0-.6-.2-.8l-.1-1.5a56.4 56.4 0 0 1-.5-11 19.5 19.5 0 0 0 1.6 0 5 5 0 0 0 3.8-2.1 9 9 0 0 0 1.5-3.6v-.2l-.1-.2h-.1v-.2h-.2a1.4 1.4 0 0 0-.5-.2h-.3l-.2.2-.2.1-.3.5c0 .5-.2 1-.4 1.4a58.2 58.2 0 0 0-1.1 1.8l-.3.2-.2.2c-.3 0-.5.2-.8.3a4 4 0 0 1-1 .1 37.5 37.5 0 0 1-1.6-.4V53l-.1-.2v-.2l-.2-.2-.1-.2a2 2 0 0 0-.3-.1V52a15.4 15.4 0 0 1-2.1-7 3 3 0 0 0 .1-.4 5.3 5.3 0 0 0 2.4-2.3 7.3 7.3 0 0 0 1-3c0-1.3-.1-2.6-.5-3.9.2 0 .3-.2.4-.4.4-.5.8-1 1.4-1.2l.4-.2.5-.2 2.7-.4c.3 0 .6-.2.8-.4a571.6 571.6 0 0 0 2.9-3l.1-.3.1-.3a8106.8 8106.8 0 0 0 .3-4.3 20.3 20.3 0 0 0 5.3-1.2l1.2-.4 1-.5c.5-.4.6-.8.3-1.4a.5.5 0 0 0-.4-.2c-.5 0-1 0-1.4.3L46 22c-1.5.4-3 .7-4.6.9l-.4-.3c-.4-.4-.7-.9-.9-1.4a15.4 15.4 0 0 0-1-2.2v-.4c0-.8-.2-1.6-.3-2.3-.2-.9-.3-1.7-.3-2.6.4-.7.4-1.5.2-2.2l-.3-.7a3 3 0 0 1 0-1.8l.5-1.5a9.3 9.3 0 0 1 1.7-3.7l.8-.6c1.2-.7 2.4-1 3.7-1.2Zm31 58.8Zm-11.7 7.6v.1a5.9 5.9 0 0 0 0 .3h.1v.2a8.2 8.2 0 0 0 .5.5l-.1.4c-.4 4 0 8 1 12 .3 1 .6 1.9 1.1 2.7C68.8 88 70 91.4 70.6 95l-1.4-.2a6 6 0 0 0-2.9.2c0-.6-.2-1-.4-1.5a8.6 8.6 0 0 1-.9-2.8 10.3 10.3 0 0 0-.5-3.2c-.2-.6-.3-1.3-.3-2 0-.3 0-.7-.3-1v-.1c.1-1.7-.1-3.3-.8-4.8-.6-1.5-1-3-1.1-4.7l.1-1.1c0-1.2.3-2.3 1-3.4l1.2-2Zm-2 17.2.2 1.5.5 1.7a108.6 108.6 0 0 1 .5 3.3 11 11 0 0 0 1 3v.2a1 1 0 0 0 .1.3l-1.8 1-.8.6a67.4 67.4 0 0 0-3.3 5 41.4 41.4 0 0 0-1.3 4.4 29 29 0 0 0-2.6.6 34.8 34.8 0 0 0-3.6.5l-3.4.1a75 75 0 0 1-.2-.7h-.1v-.2h-.2l-.2-.2h-.3a1.4 1.4 0 0 0-.5.2l-.2.1a2.6 2.6 0 0 0-.2.3v.7l-.2.1a18.8 18.8 0 0 0-1.4.3 9.5 9.5 0 0 1-5.7 0l-1.5-.5a56.5 56.5 0 0 0-3.9-1.7l-3-1.5a13 13 0 0 1-2-.8l1.5-4.2c1.4-4 2.3-8.1 2.7-12.4v-.1h.1a27.8 27.8 0 0 0 7 1.4c3.3 0 6.7-.2 10-.5 4.4-.4 8.7-1.3 12.8-2.6v.1Zm26.6 15 .2.3c.5 1.2.7 2.4.7 3.7l-.1 1.7c-.3 1.4-.7 2.7-1.4 4a8 8 0 0 1-2.8 2.9c-1 .6-2 1.1-3.1 1.5a10 10 0 0 1-4.8.3l.6-1.2a10.1 10.1 0 0 0 1-4.5 6 6 0 0 0 0-1.4l.3-.1c1.6-.9 2.3-2.4 2-4.4a69.3 69.3 0 0 0-1.7-8.3v-.2a17.1 17.1 0 0 1 6.5 2.5c1.1.9 2 1.9 2.6 3.1Zm-17-3 .7.5v.4l.1.4.4.3.2.4.9 1.3.8 1.2.6 1a11 11 0 0 1 1.8 4v1a1342.3 1342.3 0 0 1-.4 3.4c-.3 1.5-1 2.7-2 3.8-1 1-2.2 1.8-3.6 2.3h.1-.3a14.7 14.7 0 0 1-2.7.7h-.2a4.7 4.7 0 0 1-.8 0c-.6 0-1.1-.1-1.6-.5l-1-.6c-1-.7-1.8-1.6-2.6-2.7a38.4 38.4 0 0 1-2.3-4 28 28 0 0 1-.9-2.6l.1-.1c.1-.3 0-.6 0-.8l.4-1.9a11.3 11.3 0 0 1 1.4-3.4l1.8-2.7 1-.9 1.7-1c1.2-.5 2.4-.7 3.7-.5H69a31 31 0 0 0 1.2.2 10.6 10.6 0 0 1 1.7.8ZM17 27.2a3 3 0 0 1 1.2 0h1l.8.3c.5 0 1 .2 1.4.4l1.2.3.3.1.9.4c1 .4 1.9.9 2.7 1.5 1.2.8 2 1.9 2.8 3 .7 1.4 1.2 2.8 1.4 4.3a6.3 6.3 0 0 1-.7 4v-.1c-.3.7-.8 1.3-1.6 1.6l-1.8.6c-1.2 0-2.3 0-3.4-.4V43a12.4 12.4 0 0 0-.5-3.2c-.1-.9-.4-1.6-.8-2.3l-.4-.5c-.8-.6-1.6-.6-2.3 0a18.3 18.3 0 0 0-2.5-.1 52 52 0 0 0-1.8.2c-.8-1.2-1.5-2.5-2-3.8l.1-.3v-.7a20.1 20.1 0 0 1 .8-1.6v-.2a83.8 83.8 0 0 1 1.1-1.9 3.6 3.6 0 0 1 1-1l.2-.1.2-.1.7-.1Zm7.9 18.1h.4l2-.1v1a21.8 21.8 0 0 0 2.7 7.6 25.8 25.8 0 0 0 .3.8v3a107.5 107.5 0 0 0 .3 3.8c0 1.6 0 3.2.4 4.8a13.8 13.8 0 0 1 0 3 6 6 0 0 1-3.3 3.2c-1.3.5-2.5.3-3.6-.5s-2-1.9-2.6-3.1c-.7-1.3-1.3-2.5-2.1-3.7a45.7 45.7 0 0 1-2.8-5.7h.7c1.3-.1 2.4-.7 3.3-1.8a43.8 43.8 0 0 0 1.3-1.7 31 31 0 0 1 2.4 3c.6.9 1 1.9 1.5 2.9l1.6 2.9c.6.4 1 .3 1.4-.3V64l-1.5-3.2a20.3 20.3 0 0 0-2.5-4.3v-.2l.3-.4c.3-1 .6-1.9.7-2.8.2-1 0-1.8-.6-2.5v-.2l-.3-1.6a8.8 8.8 0 0 1 0-3.4Zm-2.3-.4.5.1c-.2 1-.2 2 0 3v1c0 1 .4 2.1 1 3v.2a3.3 3.3 0 0 0 0 .2 15.5 15.5 0 0 1-.4 2l-.7-.6h-.1a5 5 0 0 0 0-2.2c-.3-1.3-1-2.5-2-3.6 0-.2-.2-.4-.4-.6l.9-.8a60.2 60.2 0 0 0 1.2-1.7Zm.6 4.2Zm-2.9-10.8.2.3a9 9 0 0 1 .2.2 15 15 0 0 1 0 .4l.2.6.3 1.3v2.5a65.6 65.6 0 0 0-2 2.6l-.8-.6-2.6-1.6-3.4-2.2-.1-.3-.1-.2v-.8c0-.1 0-.2.2-.3a4.2 4.2 0 0 1 .5-.4c.4 0 .7-.2 1-.3l.6-.3c.6-.3 1.3-.5 2-.6a9.3 9.3 0 0 1 1.7 0c.8.1 1.5 0 2.1-.3Zm-5.8 7 .7.4a14.3 14.3 0 0 1 3.7 2.6 51 51 0 0 1 2 3l.2.8a9 9 0 0 1 .1 1.2l-.2.7-1.4 2a4.2 4.2 0 0 1-2.1 1.6h-.1A36.4 36.4 0 0 1 9 55.8c-1.1-.3-2-.9-2.9-1.6a19 19 0 0 1-1.8-1.9c-.9-1-1.5-2-2-3.2A8 8 0 0 1 2 45c.1-.7.4-1.3 1-1.9.9-1 2.1-1.6 3.6-1.4 1 0 2.2.2 3.2.5 0 .2.2.3.4.5l.8.5 3.5 2.2ZM9 57.8Zm15.7-9a.7.7 0 0 0 0-.1Zm2-5.3ZM58.2 46H58l-.2.2-.2.1v.2c-.2.3-.2.6-.2.9a7.9 7.9 0 0 1-1.4 3.5 11.2 11.2 0 0 1-8.9 3 12 12 0 0 1-6.8-3.4H40a1.4 1.4 0 0 0-.2-.1 1.4 1.4 0 0 0-.5.2l-.2.1-.1.2v.5c0 .4.3.7.6 1 1 .9 2.1 1.6 3.3 2.2 1.3.6 2.5 1 3.9 1.2h1.8c2.8-.1 5.3-1 7.5-2.8a7.3 7.3 0 0 0 3-6.5l-.2-.2a1 1 0 0 0-.3-.3 1.3 1.3 0 0 0-.5 0Z"/><path fill="#333" d="m15 45.7-.6-.4a82.3 82.3 0 0 1-4.7-3.2c-1-.3-2.1-.5-3.2-.5A4.2 4.2 0 0 0 2 44.9a8 8 0 0 0 .4 4.2c.5 1.2 1.1 2.3 2 3.2A19 19 0 0 0 6 54.2a8.2 8.2 0 0 0 2.8 1.6l3.4 1.3a12 12 0 0 0 4.7.5 2 2 0 0 0 .4 0c.8-.3 1.5-.8 2-1.5L21 54l.2-.7v-.2a9 9 0 0 0-.2-1.8 27.2 27.2 0 0 0-1.3-2l-.1-.1-.2-.3-.4-.5-.4-.4c-1-1-2.2-1.7-3.4-2.3ZM18 27a3 3 0 0 0-1 0l-.8.2H16l-.1.1h-.2l-1 1.1a19.5 19.5 0 0 0-1 2l-.1.1a38 38 0 0 1-.8 1.6v1c.4 1.3 1 2.6 1.9 3.8h.4a52.3 52.3 0 0 1 3-.2h.9c.7-.5 1.5-.5 2.3.1l.4.5c.4.7.7 1.4.8 2.2v.3a12.4 12.4 0 0 1 .5 3.3c1 .4 2.2.5 3.4.4.6 0 1.2-.3 1.8-.6a3.5 3.5 0 0 0 1.7-1.6v.1c.6-1.2.9-2.6.6-4-.2-1.5-.7-3-1.4-4.2a9.9 9.9 0 0 0-2.8-3 12.3 12.3 0 0 0-3.6-2h-.3l-1.2-.4a7 7 0 0 0-1.4-.4l-.7-.2L18 27Zm8.8 16.4ZM72.6 98a8 8 0 0 0-3.4-1.5H69h.1c-1.2-.2-2.4 0-3.6.5l-1.8 1-.9 1a59.2 59.2 0 0 1-1.8 2.6l-.2.4c-.6 1-1 2-1.2 3l-.4 2v1.2a28.2 28.2 0 0 0 2.2 4.9l1 1.3a12.4 12.4 0 0 0 3.5 3.3c.5.4 1 .5 1.6.6h.3a5 5 0 0 0 .8 0 14.1 14.1 0 0 0 3-.8h-.2a9.3 9.3 0 0 0 3.6-2.3c1-1.1 1.7-2.3 2-3.8.2-.8.4-1.7.4-2.5v-2a11 11 0 0 0-1.8-3.9l-.6-1-.8-1.2a19.3 19.3 0 0 0-1.6-2.4.9.9 0 0 1 0-.4Zm16.5 2.8-.2-.4a9.4 9.4 0 0 0-2.6-3.1 47.1 47.1 0 0 0-6.5-2.4 69.3 69.3 0 0 1 1.8 8.4c.2 2-.5 3.5-2.1 4.4l-.2.1v.2a6 6 0 0 1-.2 1.4 10.1 10.1 0 0 1-1.5 5.5c1.6.3 3.2.2 4.8-.3a13 13 0 0 0 3.1-1.5 8 8 0 0 0 2.8-3 12.5 12.5 0 0 0 1.5-5.6c0-1.3-.2-2.5-.7-3.7ZM62.5 87l-.2-1.5A62.5 62.5 0 0 1 49.6 88a114.8 114.8 0 0 1-12.4.3 27.8 27.8 0 0 1-4.7-1.2v.1c-.5 4.3-1.4 8.4-2.8 12.4l-1.5 4.2 2 .8 3 1.5.7.4a56.5 56.5 0 0 1 4.7 1.8 9.8 9.8 0 0 0 5.7 0 6 6 0 0 1 1.4-.3h.2a35.4 35.4 0 0 0 0-.9l.2-.2.2-.1.2-.2h.6l.2.2a7.4 7.4 0 0 0 .2.1v.1l.1.2.1.5h.1a100 100 0 0 0 4.8-.2l2.2-.4a29 29 0 0 1 2.6-.6v-.1l1.3-4.2.8-1.6a67.4 67.4 0 0 1 3.3-4.1 14.3 14.3 0 0 1 1.8-1 1.3 1.3 0 0 1 0-.3V95c-.6-1-1-1.9-1.1-3a24.4 24.4 0 0 1-.5-3.2l-.5-1.7Z"/></svg>