<svg xmlns="http://www.w3.org/2000/svg" width="196" height="224" fill="none"><path fill="#000" d="M195.1 38.7c-.2-.6-.4-1.1-.8-1.5a5.5 5.5 0 0 0-2-1.5l-1.6-5.9a20.2 20.2 0 0 0-12-14.1c.3-2 .5-4 .5-6 0-1.2-.4-2.2-1.2-3-1.5-1.4-3.1-1.6-5-.7H172a30.7 30.7 0 0 0-4.4.3c-.5-.3-1-.4-1.7-.5a13.4 13.4 0 0 0-3.6 0v-.6a2.5 2.5 0 0 0-.4-.5l-.2-.1-.3-.1A145.6 145.6 0 0 1 161 2h-.1l.1-.1.2-.3V.7l-.2-.2-.2-.2-.2-.2-.9-.1a16 16 0 0 0-2.4.3h-.8l-2.8.1a3 3 0 0 0-2.2 1.3v1l.2.1V3a13.1 13.1 0 0 0 .3.2v8.4c-.3 1-.3 2-.2 3v1.3a310 310 0 0 0-1.2 19.5l-4-.5a11 11 0 0 0-4.3 0 6 6 0 0 0-3.1-2.7h-.6a103.3 103.3 0 0 1-5.4 0l-.7.3-.6.5-.7.4-.8 1.4-.3.8c-.2 0-.3-.2-.5-.3-.6-.3-1.3-.5-2-.6l-.6.3a6.5 6.5 0 0 0-1.4 1.2c-.7-.1-1.3-.3-2-.3l-4.5-.5c-1.8-.1-3.6 0-5.3.3-1 0-2 0-3.1.2a44 44 0 0 1-12.7-.4 59 59 0 0 0-5.8-.6l-.2-.6c-.2-.4-.5-.8-.9-1.1a5.7 5.7 0 0 0-5.5-1.6 9.1 9.1 0 0 0-5.2 3.2 1.6 1.6 0 0 0 0 .4h-.2c-.5-.2-1-.2-1.7-.3H76V23c.2-3.4 0-6.8-.6-10.1v-.2l.2-.1a3.3 3.3 0 0 0 0-.7v-.6a1 1 0 0 0-.1-.6h-.1l-.1-.2h-.1l-.1-.2-.8-.2h-1.8l-1.5.3-2-.3c-1-.3-2-.4-3-.4s-2 .1-3 .4h-.2l-.2-.1-.2-.1h-.1V9.5l.1-.2v-2a11.8 11.8 0 0 0-.2-1.4l-.1-.2H62l-.1-.2-.1-.1h-.2V5a107.8 107.8 0 0 0-.6-.5 1.2 1.2 0 0 0-.3-.1h-.4a36.4 36.4 0 0 0-1.3.3h-.5c-.5-.2-1-.3-1.6-.3a13 13 0 0 1-1.7-.3h-1.8l-.2.1-.1.1-.1.2h-.1v.2l-.1.2a1.5 1.5 0 0 0-.1.3v.4c-.4 2.2-.6 4.4-.6 6.7v5.4l-1.7.5c-2.1.8-3.9 2.1-5.3 4s-2.3 4-2.7 6.3a29.8 29.8 0 0 0-1.2 12.5 23 23 0 0 0 4.9 11.7 9.4 9.4 0 0 0 3.7 3 68.6 68.6 0 0 0 1.9.7l-.1 4.5c-.4 5.5-.4 11-.3 16.5v16.8c0 5.5 0 11 .4 16.5l.6 14.2-3.8.7c-4.4 1-8 3-11 6.2a10.6 10.6 0 0 0-1.9 1.5l-.3.2a19.5 19.5 0 0 0-2.7 2 8 8 0 0 0-2.5.1c-3.3.8-6 2.2-8 4.3a10 10 0 0 0-2.6 10v2.7c0 3.6.4 7.2 1 10.9a46.4 46.4 0 0 1 0 17.3c0 1.4 0 2.8-.2 4.3a10 10 0 0 1-5.5 8.5A99.8 99.8 0 0 1 .5 200l-.1.1-.1.1-.1.2v.1l-.1.2-.1.5a1584.3 1584.3 0 0 0 .3 2.2l.5.8c.5.8 1.2 1.3 2.1 1.5a18.7 18.7 0 0 0 3.3.6c2.6 0 5.2-.4 7.6-1.2 2.5-.9 5-1.3 7.7-1.4h.4l.1.1h.2a1.7 1.7 0 0 0 .3.2l-.6 1.7a6 6 0 0 0-.1 3.3l.2.4.5.4c.3.1.5.3.8.3h.7l.6-.2H26l2.6.1c.8.2 1.6 0 2.2-.5.6-.6 1-1.4 1.2-2.3.7-2.4 1.3-4.9 1.8-7.3a11 11 0 0 1 3.6-6.2h.2c.3.2.6.2 1 .2h1.1l1.5.3 2.7.3c.9.1 1.7.3 2.6.6l.3.3a18.3 18.3 0 0 1 .8.7c.8 2 1.2 4 1.1 6.3a35.2 35.2 0 0 1-1.4 9.4 24 24 0 0 0-.9 3.3c-.2 1.2 0 2.3.6 3.3l.1.1.2.1v.3l.2.2.1.3c.1 0 .2 0 .3.2h.2a1 1 0 0 0 .3.1 79.2 79.2 0 0 1 4 .3 2 2 0 0 0-.4 1.9c.5 1.8 1.9 2.4 4 2h1c.4 0 .8 0 1.1-.2.3 0 .6 0 .8-.2h2.5c.5 0 1-.1 1.4-.3a24.1 24.1 0 0 1 2.1 0l.2.1.2.1h.3c.5 0 .9-.1 1.3-.4l.7-.7c.2 0 .3-.2.4-.3a26.5 26.5 0 0 0 4.4-3.8l.7-.8c.4-.3.7-.7 1-1.2a5 5 0 0 0 .6-2.6c0-2 0-4-.2-5.9-.3-3-.1-6 .4-8.9.7-3.3 1.3-6.7 1.8-10 .4-2.2 1-4.4 1.7-6.4 1-2.7 1.3-5.5.7-8.3a36 36 0 0 0-2.5-8h3.7a45 45 0 0 1 17.8 5.2 529 529 0 0 1 25.6 15.3l-1.5-.4c-.6-.2-1.3-.2-2 0l-.2.2a1 1 0 0 0-.2.3l-.1.6.1 1.3c0 .6.2 1.2.4 1.8V191.3c0 .3.1.7.3 1l.3.3a62 62 0 0 0 12.9 3.5c1.1.2 2.3.5 3.4.9a184.8 184.8 0 0 0 14.4 4.3 84 84 0 0 1-.7 6.3c-1.4.6-2.9.8-4.3.9a7 7 0 0 0-3.5 1l-1.8-.3v-.1l-.2-.1a2.9 2.9 0 0 0-.4-.3l-.3-.1a1.8 1.8 0 0 0-.6 0l-.1.1h-.1l-.2.3-.2.2v.5l-.5 5.2c-.2 1.6 0 3 .6 4.2.2.2.5.3.8.3a135.5 135.5 0 0 1 4.5.3 5.3 5.3 0 0 0 .5.2h.3l.2.1H145.8a1.4 1.4 0 0 0 .3-.2c2.2 0 4.4-.3 6.6-.6 5.1-1 10.5-1.4 16.2-1.5a47 47 0 0 0 8-.8 126.3 126.3 0 0 0 18.8-5.3l.2-.3a1.8 1.8 0 0 0 0-.7l-.2-.3h-.1v-1.4c-.3-1.6-.4-3.1-.3-4.7 0-.8 0-1.7-.2-2.5l.1-.3v-.6l-.1-.2-.2-.3-.2-.2h-.4l-.4-.1a2 2 0 0 0-.7.2c-1 .6-2 1-3 1.2l-1.8.4-3.2.5-5 .5a17.1 17.1 0 0 0-6.1 1.3 27.4 27.4 0 0 1-.1-3v-.7l-.2-.8a1.8 1.8 0 0 0-.4-.3l-.2-.2c-.3 0-.5-.1-.8 0h-.1l.2-4.7a1007 1007 0 0 1 1-30.4c.1-5.8.2-11.7 0-17.5l-.2-17a765.6 765.6 0 0 0-.5-25.6 168292 168292 0 0 1-.8-40.2l-.1-.1 1.6-.2c5.8-.7 10.5-3.3 14-8 2.9-3.8 4.4-8 4.6-12.7.9-.2 1.6-.7 2.2-1.4a3 3 0 0 0 .8-2.6Zm-6.5-8c.3 1.6.7 3 1.2 4.5-1.3 0-2.6 0-4 .4h-.3a10.6 10.6 0 0 0-2.5.3h-.2a1046.2 1046.2 0 0 1-10-.2h-.1l-.2-.2h-.4a1 1 0 0 0-.3 0h-.3l-1 1.3c-.5.8-.8 1.6-.8 2.4 0 .8.1 1.6.4 2.4.6.4 1.3.7 2 .7a299.5 299.5 0 0 1 14.5 1h.7a12.3 12.3 0 0 0 2.5-.4 27.8 27.8 0 0 1-.3 3.1v.2a5.4 5.4 0 0 0-.3.7l-.1.3a11 11 0 0 0-.7 1.9c-.6 2-1.6 3.7-3 5.2-1.4 1.6-3 3.1-4.7 4.5a31.5 31.5 0 0 1-10.1 2.5c-1 0-2 0-3-.4a18.7 18.7 0 0 1-1-.6v-.4a.7.7 0 0 0 0-.3v-.1l-.1-.1-1.3-1-2.5-1.5a11.3 11.3 0 0 1-4.6-5.7 39.7 39.7 0 0 1-2.2-10.6v-.8c.3-.8.5-1.6.5-2.5.2-2.7.7-5.3 1.3-8a21.2 21.2 0 0 1 3.6-7.2l3.2-3.2c.6-.6 1.3-1 2-1.1l4.2-1.2h1c.8-.1 1.7 0 2.5.2a26.6 26.6 0 0 1 3.3.9 62 62 0 0 1 5.6 3.5l.2.3.6.6.5.5 1.4 1.8c1.4 1.9 2.4 4 2.8 6.3Zm1.1 6.8h.2c.3.2.6.2 1 .3.3 0 .6 0 1 .2l.6.3a2.7 2.7 0 0 1 .3.6v.6s0 .2-.2.3l-.2.2-.3.2-.2.1a1.4 1.4 0 0 0-.4-.4h-.2l-.3-.1h-.5v.1l-.2.1-.1.1a1.4 1.4 0 0 0-.3.4v.2h-.1c-.5 0-1 0-1.5.2h-3.2a14 14 0 0 0-2.4-.3c-.7 0-1.4 0-2 .3l-.8-.2-3.8-.4a218.5 218.5 0 0 0-4-.2v-1.3a11.8 11.8 0 0 1 .5-.7h.1l.7.1a185.7 185.7 0 0 0 16.3-.7Zm3.1 165.4v.2a71 71 0 0 1 .5 7.1c-3 .8-6.2 1.7-9.2 2.7-3.9 1.2-7.8 2-11.8 2.1-6.2.3-12.4 1-18.5 1.9H153.5a36.2 36.2 0 0 1-6.5.6l.2-2.3-.2-2.5a31.1 31.1 0 0 0 4.7-.4 15.3 15.3 0 0 0 3.8-1.2 1.8 1.8 0 0 0 .2-.2l.1-.2a1.4 1.4 0 0 0 0-.5 1.4 1.4 0 0 0 0-.4 1.8 1.8 0 0 0-.4-.4h-.2l-.1-.2a1 1 0 0 0-.7.1l-1.6.5.2-.2v-.2a8.6 8.6 0 0 0 0-1v-.6c.3-1.6.5-3.3.6-5 .2-4.6 0-9.3-.3-14-.3-4.2-.4-8.4-.3-12.7.1-4.8 0-9.7-.3-14.6-.4-5.5-.4-11-.2-16.5.3-6 .4-12 .4-17.9V94.5c0-5.4.2-10.7.4-16a237.5 237.5 0 0 0 0-18 41746 41746 0 0 0-.4-15 27.8 27.8 0 0 0 8 14.2h-.2l-.3.3h-.1l-.2.2c-.2.6-.2 1.1-.2 1.7.4 3.9.5 7.7.4 11.6 0 4.2 0 8.3.2 12.5V85.7c.1 1.7.2 3.5 0 5.2-.3 5.4-.5 10.9-.5 16.3a3744 3744 0 0 0 0 33.4l-.3 16.6c-.1 5.5 0 11.1.4 16.7l.9 16.5a121 121 0 0 1-.7 19.4l.1.2h.2l.2.1h.3l.2.1h.2a56.2 56.2 0 0 1 4.4-.9l.2-.1v-.2a2.6 2.6 0 0 0 .2-.6v-1.6l-.4-2.2-.3-3c.3.2.7.2 1.1.3.8 0 1.6 0 2.4.2.9.2 1.7 0 2.5-.4v.6l.2 2.6.7 2.8.2.2a2 2 0 0 0 .4.3h.5l.4-.1.3-.2.1-.3.2-.2a2.2 2.2 0 0 0-.1-1c2.1-.8 4.3-1.2 6.6-1.4l4.5-.3c2.5-.3 5-.9 7.2-1.8Zm-38.5-200v-.3h2c.8 0 1.6 0 2.3-.2a38.1 38.1 0 0 0 .3 5.2v.6l.2.1a1.2 1.2 0 0 0 .2.4h.2a4.7 4.7 0 0 0 .4.2v3.4c-.1 2.1-.5 4.2-1.2 6.1v.2l.2.3.1.2a4 4 0 0 0 .4.2h.1l.2.1h.4a2.4 2.4 0 0 0 .3-.1l.1-.1a6 6 0 0 0 1.1-2.4 31.8 31.8 0 0 0 .7-8.6l2.3-.1a5 5 0 0 1 2.5.4h1.5c1.2-.2 2.3-.2 3.5-.2a6.5 6.5 0 0 0 3.1-.6h.4l.2.1h.1l.2.1h.2l.1.2.2.2c.2.3.2.6.2 1a68.8 68.8 0 0 1-.3 5.6 17 17 0 0 0-9.5.3 2 2 0 0 0-.7.2A19 19 0 0 0 156 27.5a67.3 67.3 0 0 0-2.4 13.5h-.2l-.1.1-.2.1v.1l-.2.1v.1l-.1.2v.3-3.2l.2-1.3a567.3 567.3 0 0 1 .5-.2l.2-.2.2-.3V36l-.2-.2-.2-.2-.3-.2v-.8c0-4.5.3-9 .7-13.4.3-4.3.4-8.5.1-12.8.4-1.7.5-3.5.3-5.4Zm-15.1 31.8.7.6.7.7a1.3 1.3 0 0 0 .2.7l.2.6-.1.8c-.2 1.1-.3 2.2-.3 3.4 0 1.1 0 2.2.4 3.3v.6l.3 2.7-.2 2.2-.2.2-.2.2v1c.4 1.3.7 2.5.9 3.8l.6 4.3v2.7c-.3 2.5-.7 5-1.3 7.4a16.8 16.8 0 0 0 0 8.5c0 1-.1 1.8-.5 2.6-.4.6-.6 1.3-.7 2a6 6 0 0 0 .3 3.5l-.1 4c-.1.9-.4 1.7-.8 2.4-.4.9-.7 1.8-.8 2.8a39.7 39.7 0 0 1-1.2 6.7h-.5c-1 1-2 2.1-2.9 3.4l-4 5.5a14.5 14.5 0 0 1-8.7 5.5l-.2.2v.3l-.2.2v.2a1.7 1.7 0 0 0 .2.5 1 1 0 0 0 .2.2 9.7 9.7 0 0 1 .2.2h.4l-.2.2a21.1 21.1 0 0 1-2 1.3l-1.5 1.2-1.2.6a31 31 0 0 1-4 1.3 26 26 0 0 0-5 2 18.8 18.8 0 0 0-8 7.8l-2-1.8c-1-.9-2-1.6-3.4-2l-.6-.6-.9-.5a4 4 0 0 1-.5-.2h-.6c-.6-.4-1.1-.6-1.7-.8a86.2 86.2 0 0 0-13.9-2.8c.8-.9 1.6-1.9 2.2-3l2.4-3c.2.1.4.2.6.1.2 0 .4 0 .5-.2l.7-.7 2-3.2a8.2 8.2 0 0 0 1.6-3.8 171.1 171.1 0 0 1 3-5.4 12.5 12.5 0 0 1 1.2-2.3l.2-.1.5-.4.4-.1c.3-.1.4-.3.6-.5l.5-.9a30.1 30.1 0 0 0 3.1 1.1h.9c.8 0 1.5-.2 2.2-.6a8 8 0 0 0 1.5-1.2 2 2 0 0 0 .2-.4v-.2l-.1-.4-.2-.2-.2-.3-.2-.1a1.7 1.7 0 0 0-.6-.1c-.3 0-.6.2-.8.4l-.7.5a3 3 0 0 1-.6.3h-.5a171.3 171.3 0 0 1-1.1-.1l-1.2-.5-.8-.3 1.4-2.8v-.1l.1-.5v-.7a2 2 0 0 0-.3-.3 1.4 1.4 0 0 0 .5-.4l.1-.3a1.7 1.7 0 0 0 .1-.6c0-.2 0-.4-.2-.5a21.2 21.2 0 0 0-2-2.8l-.7-1.7a80 80 0 0 1-2.1-5 43.9 43.9 0 0 1-.7-8.7l-.1-.6-.1-.3-1-2C87 68.3 86 65 85.7 61.6A34.4 34.4 0 0 1 87 47.8v-2.5l-.6-.9-1.1-1.4-1.6-1.4-.1-.1v-.3l-.1-.2a7 7 0 0 0-.4-.8l-.5-1a6.8 6.8 0 0 0-.3-.8V38h.2l.3.2.4.4c.2.5.6 1 1 1.4.5.7 1.1 1.2 1.8 1.8l.8.2 1.4-.1a3.2 3.2 0 0 0 1.4-.7 12 12 0 0 0 2 8v.1l.4 1 .6 1 .4 1.1 3 6a22.4 22.4 0 0 1 2 6.3l-.3 2.2a16 16 0 0 0-.3 3.2v.7l.1.3.2.3a4.9 4.9 0 0 1 .2.1 3.2 3.2 0 0 0 0 .3v.1l-.1.2c0 .5.2 1 .4 1.6l2.2 4.6a10.9 10.9 0 0 1 1.2 5.1V83.7l.1.2h.1a1.4 1.4 0 0 0 .4.4h.2l.1.1.7.5c1 .7 2 1.4 3 2.3a11.6 11.6 0 0 1 2.7 3.3v1l.2.1.1.2a1.5 1.5 0 0 0 .4.3 2 2 0 0 0 .6 0h.3l.2-.2s.2 0 .2-.2l.2-.2a1.1 1.1 0 0 0 .2 0H111.6l1-.7 2.6-1.7c1-.6 1.9-1.4 2.5-2.5a18.8 18.8 0 0 0 .3-.2 3 3 0 0 0 1-1.5c.3-.6.4-1.2.4-1.8a60.3 60.3 0 0 0-.4-2.5c0-.8-.2-1.6-.4-2.4l.2-.3.2-.8.1-.9.1-.1a5 5 0 0 0 .3-.6l.7-.4.6-.7v-.2c.2-.3.2-.7.2-1v-1.1l.4-.5c0-.2.2-.3.3-.4l.8.1 1 .2.3-.1 1.1-.5c.4-.2.7-.5.9-1a35.8 35.8 0 0 1 1.6-1h1.7a3 3 0 0 0 .5.2 7 7 0 0 0 0 1.6l-.2.6-.2.9a45.5 45.5 0 0 0 .2 1.7 15.1 15.1 0 0 0-3.3 4.5c-1 2.2-1.5 4.5-1.3 7l-.1.3-.4 2a130.3 130.3 0 0 1-.8 3v.7h.1l.1.2-.2 3.2a68 68 0 0 0 .3 4.5v.4l.3.7c0 .2.2.4.4.6a21.2 21.2 0 0 1 .3.2H125.4a7.5 7.5 0 0 0 .6-.3l.1-.1.2-.3v-1.2a21.8 21.8 0 0 1-.4-1l-.1-.2v.1-4a46.9 46.9 0 0 0 .3-3.5c0-.6.2-1.1.3-1.7.4-2.1.8-4.2 1-6.4.3-2.7 1.4-5 3.3-7l.4-.2.5-.3.3-.2v-.1l.1-.2a.7.7 0 0 0 .1-.4v-.1a1.3 1.3 0 0 0-.2-.5l-.1-.3h-.1l-.2-.1a20.2 20.2 0 0 1 0-1.4c.2-.2.2-.5.2-.8l.3-2.8c.2-1.2.1-2.3 0-3.4l.4-2c.8-4.3 2.2-8.6 4-12.9.9-1.9.6-3.5-.8-4.9l-2-1.6a24.1 24.1 0 0 1-3.1-2.6v-.1l-.1-.1v-.2c-.3-.3-.6-.5-1-.6l-1.5-1.6h1.5l.1.1.2.2c0 .2.2.3.4.4a2 2 0 0 0 .2.1l.7 1.1c.5.7 1.1 1.2 2 1.5a82 82 0 0 1 1 0h.8a1 1 0 0 0 .3 0h.1l.3-.2.3-.3.3-.3s.2 0 .3-.2l.8-.5.5-.7h.5l.2-.2.4-.3a20.7 20.7 0 0 0 .8-1.1v-.2a1.6 1.6 0 0 0 0-.3V37a2 2 0 0 0-.2-.3l-.2-.2-.3-.2H138.3a3 3 0 0 0-.3 0l-.3.3a5 5 0 0 0-.4.4h-.2a2.5 2.5 0 0 0-.5.2h-.3l-.2.3-.2.3-.2.4a4.8 4.8 0 0 1-.8.6l-.6.5h-.2a6.8 6.8 0 0 1-.8-.1l-.2-.2a7.2 7.2 0 0 1-1.2-1.9l.2-.2v-.4l.2-.3a6.8 6.8 0 0 0 .5-1.3l.5-.4.5-.3a116.2 116.2 0 0 0 5 .1l.4.3Zm4 5.3c.1-1 0-2-.1-3h2.6l3 .5H150.7a1196.2 1196.2 0 0 0-.2 2.7 27.4 27.4 0 0 0-7.2-.2ZM125.6 36Zm-.3 2.3 1 1.4a56.6 56.6 0 0 0-3.8.5c-5-.2-10.2-.2-15.2 0-1 0-2 0-3-.2-4-.6-8-1-12-1 .2-.7.3-1.3.3-2l2 .1 1.5.3a755.8 755.8 0 0 0 8.8 1c1.9 0 3.8 0 5.7-.3 2-.4 3.9-.5 5.9-.5 3 0 5.9.3 8.8.7Zm-.6 3.9c1.1-.2 2.3-.4 3.5-.3l1.7 1.8c.6.6 1 1 1.3 1.1l.5.3a15.4 15.4 0 0 0 2.4 1.3v.1l.2.1.1.1.1.2v.3l.1.2v.2l-.1.4-.1.3v.4l-.7 1.3a50.1 50.1 0 0 0-2.5 7l-1 3.3c-.2 1-.4 2.2-.4 3.4v.8a67.2 67.2 0 0 0 0 2.1h-3l-.5.2-1.5 1c-.5.3-1 .8-1.3 1.2l-1.1-.1H121c-.3 0-.5.2-.7.4-.4.4-.8.9-1.1 1.5a4 4 0 0 0-.5 2.4l-.4.3c-.5.3-.9.8-1.1 1.4a4 4 0 0 0-.4 1.8l-.1.2a60.3 60.3 0 0 1-.5 1.3l.1.4.1.3h.1c0 .8 0 1.5.2 2.2a58.6 58.6 0 0 1 .3 2.7l-.1.3-.1.2-.2.2c-.4.2-.7.5-.9.8-.3.5-.6 1-1 1.3l-.3.2a127 127 0 0 0-3.5 2.3 20.6 20.6 0 0 0-3.4-4.2c-1.1-1-2.3-1.8-3.6-2.4v-.7c-.4-1.9-1-3.6-1.8-5.3a203 203 0 0 1-2.5-6l.4-2c.7-4 0-7.7-1.8-11.3a848.5 848.5 0 0 1-5.5-10.9 61.8 61.8 0 0 1-.8-4.9h.1a9.6 9.6 0 0 0 1.5 0c.9-.2 1.8-.1 2.6 0 2.7.5 5.3.8 8 1 2.8.2 5.7.1 8.5-.2l.8.1c.6.2 1.2.2 1.8.2a6 6 0 0 0 1.8-.2 8 8 0 0 1 1 0 13 13 0 0 0 2.2.3c1.5 0 3-.1 4.5-.4Zm18.8 4.7c0-1.2-.3-2.3-.5-3.4v-1.3H149.6a12.3 12.3 0 0 0 .9.2 537.4 537.4 0 0 0 0 7 230.3 230.3 0 0 1 .5 23v16.4c0 5.4 0 10.9-.3 16.3a298 298 0 0 0-.2 12 1326.2 1326.2 0 0 1-.3 33c0 2 0 4.1.2 6.2.5 5.6.6 11.2.4 16.7a115 115 0 0 0 .4 18l-.7-.2c-.3-.2-.6-.2-1-.3h-.1a6 6 0 0 0-.8 0c-.3.2-.7.2-1 .2l-1.2-.3c-1.5-.2-3-.6-4.4-1.1l-3.6-1.2c0-1.1-.5-2-1.5-2.6a929.8 929.8 0 0 1-16.2-9.4c-4.8-2.8-9.4-5.8-14-8.9a108.7 108.7 0 0 0-13.7-8l.1-.2c.3-.6.3-1.2.2-1.8l-.4-1.3.1.1c.5.6 1.1 1 1.9 1.3h.4c1.8-.5 3.4-1.3 4.9-2.5 4.3-3.5 8.2-7.4 11.5-11.9a88.9 88.9 0 0 1 9.5-10.7c4.2-4 8-8.3 11.2-13 .4-.6 1-1.2 1.5-1.6 3.4-3 5.9-6.5 7.3-10.8v-.2l.1-.8v-.6l-.2-.3-.8-.9a31.2 31.2 0 0 0-1-1c.4-1 .6-2.1.7-3.3l.4-4.2.6-1a15.6 15.6 0 0 0 .6-10.8l.5-1.2c.6-1 1-2 1-3 .2-1.3 0-2.5-.5-3.6l.1-1.8c.8-4 1.3-8 1.5-12 .2-3.6-.2-7.2-1.1-10.6l.3-.9c.1-1.2.2-2.5.1-3.7Zm19.1 24.8c0-3.7 0-7.4-.4-11.1a17.4 17.4 0 0 0 2.9 1.7 1.6 1.6 0 0 0-.2.3c-.4 4.4-.6 8.9-.6 13.3a430.5 430.5 0 0 0 1.2 33.1c.3 5.5.6 11 .6 16.6l.3 16.5c0 5.5 0 11-.3 16.5a359.4 359.4 0 0 0-.4 23.9 202.5 202.5 0 0 1 .3 16.7l-1.3-.2-.4.2-.7.6c-.2.2-.3.5-.4.9.3-3.8.4-7.6.2-11.4-.2-5.4-.5-10.9-.9-16.3v.1c-.4-4.8-.6-9.5-.5-14.3l.3-16.7v-4.1a512.7 512.7 0 0 1 .2-35 641.8 641.8 0 0 0 0-20l.1-11.3Zm4.2-5.5a9.9 9.9 0 0 0 .2-3.2l1.5.5a30.4 30.4 0 0 0 1.4.1l-.2 1 .1 3.5c.3 5.5.5 11.1.4 16.6 0 5.5 0 11 .2 16.5a1787.8 1787.8 0 0 1 .7 39.3c.2 5.6.3 11.1.3 16.7 0 2.8 0 5.6-.3 8.3-.4 5.5-.6 11-.7 16.5l-.3 16.5v.2l.2.3.2.3a2.3 2.3 0 0 0 .3.2l-1 .3h-.7l-1-.3c.3-2.7.3-5.5.2-8.3l-.2-8.2.1-16.6a1243.7 1243.7 0 0 0 .3-33.6l-.5-16.4a318 318 0 0 0-.8-16.3c-.4-5.6-.6-11.3-.6-17l.2-16.9ZM72.4 12.4h.8v1l.2 1c0 .5.2.8.3 1.2v18.9c-.5 0-1.1 0-1.7-.2a54.2 54.2 0 0 0-7.4-.5l-1.3-.3-1-.1V12.2l.2.1c.2.1.4.2.7.1h.2l.4-.1.4-.2h2c1 0 2 0 3 .3s2 .3 3 0h.2ZM60 7a16.8 16.8 0 0 0 .2 2c-.2.7-.3 1.3-.3 2a1536.7 1536.7 0 0 1-.1 33.2L59 60.6c-.3 5.5-.3 11-.2 16.5v16.6a2272.6 2272.6 0 0 1 .2 30.9l-.2-.1h-.1a1 1 0 0 0-.3 0H58.2a1 1 0 0 0-.3.2l-.2.1h-3l-.3-4.7a160.2 160.2 0 0 1-.7-19V84.7c-.1-5.6 0-11.3.1-17V57.3c-.3-5.5-.2-11.1 0-16.7.4-5.6.5-11.1.5-16.7 0-5.8.2-11.6.5-17.3.1-.2.4-.2.7-.1.4.2.9.3 1.3.3s.9 0 1.3.2h.2A10.6 10.6 0 0 0 60 7ZM47.5 23a7 7 0 0 0 1-1 11.8 11.8 0 0 1 2.5-1.3c.3 0 .7-.2 1-.4a1010.9 1010.9 0 0 0-.2 16 220.3 220.3 0 0 0-.3 17.9 36.4 36.4 0 0 1-2.8-1.6v-.1l-.1-.1-.2-.3-.5-.5-.2-.1-.2-.2a118.9 118.9 0 0 1-4.2-10.4v-4.1a18 18 0 0 1 .7-5.3l.2-1.3.2-.4c.3-.5.4-1 .5-1.4 0-.6.2-1.1.4-1.7a6.6 6.6 0 0 0 .9-2l.3-.4a5 5 0 0 1 1-1.2ZM62 48a705.3 705.3 0 0 0 .2-6.6c1.5-.3 3-.4 4.4-.3a181 181 0 0 0 5.3.1l2 .3a104.2 104.2 0 0 1 0 4.3v3.4h-.4l-.6.1-.5.1a24.4 24.4 0 0 1-.6.2h-.3a6.2 6.2 0 0 0-.8.2h-.1a3.3 3.3 0 0 0-.9.7l-.2.3-.1.4-.2.4c0 3 0 5.9-.2 8.8-.2 5.6-.2 11 0 16.6.3 5.5.3 11 .1 16.5l-.3 16.5v15.9l-.5.1a5 5 0 0 1-.8.1 859 859 0 0 1-.4-26 1007.9 1007.9 0 0 1 .6-33.6V50l-.4-.7c-.2-.3-.4-.6-.8-.8l-1-.5a3.6 3.6 0 0 0-.5 0 5 5 0 0 0-.4 0l-.2-.1a5.7 5.7 0 0 0-1.4-.3l-.7.1a2 2 0 0 0-.2.2H62Zm-.7 27.4c0-5.2 0-10.5.2-15.8.7 0 1.3 0 2-.2a6 6 0 0 0 2-.6v2.6L65.4 78a839.5 839.5 0 0 0-.1 47.7c-.5-.2-1-.3-1.6-.3h-1.1l-1-.1a1306 1306 0 0 1-.3-49.9ZM88 34a58 58 0 0 0 1.3.3l.4.5a55.1 55.1 0 0 0-4 0l-.8.4-.2.2-.1.3-.1.3a1.8 1.8 0 0 0 0 .5l.2.3.2.2.3.1.3.1h.6l.5-.2h.2a821.7 821.7 0 0 0 1 .2 4.4 4.4 0 0 1 .4.3l.2.2a5 5 0 0 1 .3.6v.5a14.3 14.3 0 0 1-.5.8H88l-.5.1H87l-1.4-1.5a6.9 6.9 0 0 0-3-2.4c0-.2.2-.3.4-.4l1.2-.8h.2l1.3-.5a5 5 0 0 1 1.3-.3l.9.2ZM83 44a46.5 46.5 0 0 0 1.5 1.7l.2.3v.2a12 12 0 0 1-.4 3v.3l-.8 3.3a30.9 30.9 0 0 0 3.7 21.6v1.1c-.1 3 .3 6 1.1 8.8 1 3 2.3 5.7 4 8a12.2 12.2 0 0 0 .5 1.1l.5.7-.5.3a2 2 0 0 0-.2.5v.2l-.8 1.1-.6 1.5v.2a31 31 0 0 0-1 2H90l-.2.2-.2.2v.1l-.2.2-.8.8-2.9 4.4c-1 1.7-1.6 3.5-2 5.4l-.4.8c-.4 1-1 1.9-1.7 2.7l-.8 1h-.3l-.6.3a18.6 18.6 0 0 0-3.5 3.9 88.7 88.7 0 0 0-2.4 3.8 38 38 0 0 0-2.8 1.7c0-5.5-.2-11-.4-16.4a97 97 0 0 1 0-8c.3-5.6.4-11 .5-16.6a2131.5 2131.5 0 0 1 .2-32.6h.6l.5-.1.5-.2 1-.1a8.3 8.3 0 0 0 1.8-.7 1.4 1.4 0 0 0 .3-.3l.1-.1V50c.1-.3.1-.6 0-.8v-1l-.2-.8v-2.1a63.3 63.3 0 0 0 .3-4 85.4 85.4 0 0 1 2.1.3h.4a4.8 4.8 0 0 0 .7-.1l.3-.1h.2a5.5 5.5 0 0 1 .7.2h.2a1 1 0 0 0 .2 0 4 4 0 0 0 .7 1.5c.3.4.7.7 1.2 1Zm-6.5-6.9a6.7 6.7 0 0 0 1.2.1 24.3 24.3 0 0 1 1.9 0v.4c0 .2 0 .4.2.6v.1l.1.2v.2l.1.4a9.8 9.8 0 0 0-.5 0 5.3 5.3 0 0 0-.7.2l-2.1-.3h-.6a15.3 15.3 0 0 0-.1-.8 1.7 1.7 0 0 0 0-.4V37l.5.1Zm-2.8.9v.2a7.3 7.3 0 0 0 0 .2v.4a1.5 1.5 0 0 0 0 .1l-5-.2c-2.3-.2-4.5 0-6.6.3v-3.4a53 53 0 0 0 7.1 1l4.5.3a582.2 582.2 0 0 1 0 1.1Zm24.9 20.7v-.1Zm-36.4 69a314.7 314.7 0 0 1 3.1.4l.1.2a16.8 16.8 0 0 1 .1.2 1.5 1.5 0 0 0 .3.2 8.5 8.5 0 0 0 .3.2 1 1 0 0 0 .6 0h.2l.1-.1a1.3 1.3 0 0 0 .2-.2 1.4 1.4 0 0 0 .3-.3l3.5-.4c1.2-.2 2.2-.7 3-1.6H74.4l2 .2 7.9 1.5a45.2 45.2 0 0 1 8.1 2.5l.8.6.8.3a14.8 14.8 0 0 1 3.7 2.6l1.2 1.1a12.3 12.3 0 0 0-.4 1.6l-.3.2-.2.2-.1.2a22.4 22.4 0 0 1-3.5 9.5c-1.4 2-3.1 3.8-5.2 5.2l.2-1.5v-6.1c0-3-.8-5.6-2.3-8.2a3 3 0 0 0-.4-1 6 6 0 0 0-2-2c-1-.7-2.1-1-3.2-.8h-.2l-.6-.2-.5-.1H80l-1.3.2c-.7 0-1.3.1-1.8.3H76a5.2 5.2 0 0 0-3 1 1 1 0 0 0-.7-.3c-.7.1-1.4.4-2 1-1.7 1.3-3.3 3-4.7 4.7a58.3 58.3 0 0 0-4 5.6V141l-.3-6a47.7 47.7 0 0 0-.6-7l.3-.2.2-.2a13.5 13.5 0 0 0 1 0Zm-10-.4v.2a1 1 0 0 0 .1.3v.2l.2.1v.1l.2.1v.1l.2.1h.2l.2.1H54l.1-.2h.2v-.2l.2-.1V127.3a181 181 0 0 1 3.7.2l.1.3.1.3a12.3 12.3 0 0 0 .2 1.1 9.2 9.2 0 0 0 .1.7 11.3 11.3 0 0 0 .2 1.2c0 .1 0 .3.2.5a14.2 14.2 0 0 0 0 1.6l.3 1v1.6c-.2 1.8-.2 3.5 0 5.1a45.3 45.3 0 0 1 .1 5.9 5.7 5.7 0 0 1 .2.2 1.6 1.6 0 0 0 .2.2h.2a31.6 31.6 0 0 0-1.7 3.4h-.6c-1.6-.4-3.1-.6-4.7-.8-1.7-.1-3.4-.1-5.1.1h-.1a1.3 1.3 0 0 0-.3.3 1.5 1.5 0 0 0-.1.2l-.1.1V151.4a55.7 55.7 0 0 0-1.5 1.6 4.6 4.6 0 0 0-1 0h-1.4a11 11 0 0 0-1.6-.4l-.8-.2c-2.1-.4-4.2-1.2-6.2-2.2a11 11 0 0 0-2-.7c-.9-.3-1.4 0-1.4 1v.4a1.7 1.7 0 0 0 0 .5l.8 1.8 3.4 5.7c2 3.2 2.4 6.6 1.3 10.1a62 62 0 0 1-1.8 5.5 87.2 87.2 0 0 0-4.3 14.4c-3.2 4-5.8 8.2-8 12.9-2.7-.4-5.5-.2-8.3.7a33 33 0 0 1-8.2 1.6 4 4 0 0 0-.8-.2l-1.5-.3a62.5 62.5 0 0 1-1.3-.4 6 6 0 0 1-.4-.7v-.3l-.1-.2V201.7l.2-.1a4.5 4.5 0 0 1 .3-.2H3.1l.8-.3a29.2 29.2 0 0 0 3.5-1.4l5.6-2c5.5-2.2 8.5-6.2 9.1-12l1.2-9.6.1-.1a9.6 9.6 0 0 1 .4-.4l.2-.2a1.6 1.6 0 0 0 .2-.9 16.8 16.8 0 0 0-.3-.5l-.2-.2.1-1.4v-.1l-.1-.2a.5.5 0 0 0-.1-.1c0-1.7-.1-3.4-.4-5.1A158.4 158.4 0 0 1 22 155c0-1.5 0-2.9-.3-4.3v-6.6l.2-.2a74.6 74.6 0 0 1 2-2.6c1.2-1.2 2.6-2 4.1-2.6l4.2-1v.1h.1l.2.2h.5l.5-.1.7-.7 3-2.4c1.3-.8 2.4-1.9 3.3-3a27.2 27.2 0 0 1 11.9-4.6ZM41.9 155a44 44 0 0 1 2.5.4h1.6a14.1 14.1 0 0 0 .8 2.1 2.6 2.6 0 0 0-.9.8V158.5l-.1.2-.1.2-.1.1-.1.3v1.7c.2 1.5 1 2.5 2.6 3l4 1.4.1.7a18 18 0 0 1-.3 6v.5l.1.1a1 1 0 0 0 .3.4h.2l-4.6 5a25 25 0 0 0-4.4 7.5 21 21 0 0 0-9.4 1 610 610 0 0 0 1.7-7c.7-2.7 1.5-5 2.6-7 1.8-3.4 2.1-7 1-10.6-1-3.2-2.5-6.2-4.3-9.1l.4.2a25 25 0 0 0 6.4 1.8Zm6.9-1.6.2-.2h1l2.8.6c1 .2 2.1.3 3.2.3.4 0 .7.2 1 .4l.5.2a18 18 0 0 0 0 4.1h-.3a18.7 18.7 0 0 0-2.6-.7l-3-.8a19 19 0 0 1-2.8-1v-.3l-.2-.3-.2-.2v-.4a6 6 0 0 1-.2-.4 12 12 0 0 1 0-.4l.1-.2v-.3l.2-.2.3-.2Zm12-.6v-.1l.1-.2a2.2 2.2 0 0 0 .1-.6v-.3a4.3 4.3 0 0 0-.3-.3l.5-.9 1.3-2.4c.4-.5.8-1.2 1-1.8a134.3 134.3 0 0 1 3.8-5.1l2.3-3a16.7 16.7 0 0 0 2-1.6l.6.2a1.2 1.2 0 0 0 .8-.2l1.1-.7c.5-.3 1-.6 1.5-.7h1.2c.5 0 .9-.2 1.3-.3h.2c.3 0 .7 0 1-.2h1.3l.9.1h1.2l.3.3c.4.1.7.3 1 .6.4.2.7.5.9.8.5 1.2 1 2.4 1.3 3.6a28.6 28.6 0 0 1 .7 13.2 23.6 23.6 0 0 0-2.5.9H84c-.3.1-.6.3-.8.6a14.9 14.9 0 0 1-4.4 2.8 18 18 0 0 1-6.5 1.3.8.8 0 0 0-.1-.2 1.4 1.4 0 0 0-.5-.3l-.3-.1a2 2 0 0 0-.3 0h-.3l-.2.2-.2.2-.2.3v1l.9 1.5c2.4 3.4 4.2 7 5.5 11 .8 2.5.7 5-.1 7.3-.9 2.6-1.5 5.2-1.8 7.8-.3 2.8-.9 5.6-1.6 8.3a38 38 0 0 0-.5 16.2c.1.5 0 1-.2 1.5a16 16 0 0 1-6.6 7.6H61c-1.1 0-2.3.2-3.4.6a5 5 0 0 1-.6 0h-3v-.2a1.1 1.1 0 0 0 .1-.3 11.2 11.2 0 0 1 1.2-1.7l.6-.7a82.3 82.3 0 0 1 5.2-6.3c1.5-1.8 2.4-3.8 2.6-6a45.1 45.1 0 0 0 .6-11.4l-.1-.2v-.1l-.4-2.2c-.6-3.6-1.5-7-2.6-10.5a23.7 23.7 0 0 1 0-14v-.4l.2-.2v-.1l.2-.9c0-.7-.1-1.5-.3-2.2a6.5 6.5 0 0 0-.5-1.6l-.5-1.5a15.3 15.3 0 0 1-1-5.8 12 12 0 0 0 .2-.8l.1-.3.1-.2v-.4a39 39 0 0 1 .3-.6h.3l.1-.2h.1Zm-5.2 9.6.5.1 1 .2a40.7 40.7 0 0 0 1.4 0 22 22 0 0 0 .7 1.6 58.4 58.4 0 0 1 .2 3 1.4 1.4 0 0 0-.1.1h-.3c-.6 0-1.1.2-1.6.4A3 3 0 0 0 56 169a1.2 1.2 0 0 0 0 .4v.3l-1 .9a246 246 0 0 1-.7.6v-.7c.2-1 .2-2 .2-2.9l-.1-3.6-.1-.2-.1-.1-.2-.3a1 1 0 0 0-.4-.2h-1l-.6-.3c-.6-.3-1.3-.5-2-.6l-1.8-.8H48v-.1a1.2 1.2 0 0 1-.3-.2v-.1l.8.3c1.1.4 2.3.6 3.5.7l3.5.2Zm-7-3.5v-.1a37.8 37.8 0 0 0 3.9 1.1 16.9 16.9 0 0 1-3.6-.8 1 1 0 0 0-.2-.2h-.2Zm2 16.5ZM52 177c2-2.2 4-4.2 6.3-6.1a23 23 0 0 0-.5 4 16 16 0 0 0-3.3 3.3 63.1 63.1 0 0 0-4.5 6.9l-.3.6a18.3 18.3 0 0 0-.6 1.6 24 24 0 0 0-3.7-1.2l.7-1.2c1.7-2.9 3.6-5.5 5.9-8Zm4.1 3 1.8-2a22 22 0 0 0 1.2 5 57.6 57.6 0 0 1 3 13.3 55.6 55.6 0 0 1-1 11.9l-.5.8a11 11 0 0 1-1 1.5 831.6 831.6 0 0 1-3 3.5 16.9 16.9 0 0 0 0-.8l-.1-.8v-3c.3-3 .3-6.2.2-9.3-.1-3.3-1-6.3-2.5-9.1a13.7 13.7 0 0 0-2.9-2.6v-.7l.4-1 .3-.7a.8.8 0 0 0 0-.1l1-1.6c1-1.5 2-3 3.1-4.3Zm45.7-44.5v-.4l-.2-.2.9-1.5c.5-1 1-2 1.7-2.8 1.1-1.5 2.4-2.6 4-3.4 1.3-.5 2.6-1 4-1.3a30.7 30.7 0 0 0 8.7-4 895.8 895.8 0 0 0-15.8 16.3l-8 8.3a24.3 24.3 0 0 0 2.7-7.7h.2l.3-.3a1.5 1.5 0 0 0 .1-.2l.1-.1v-.5a17 17 0 0 0 .1-1.1h.5l.3-.2.2-.2.2-.3v-.4Zm-12.5 19 .8-.5.3 1.8.5 2c-.1.1-.4.2-.9.2-2-.1-3.8 0-5.7.2l-2.5.3a14 14 0 0 0 2.6-2 2.5 2.5 0 0 0 .3-.2H85.1c1.5-.5 3-1.1 4.3-1.9Zm4.6-.9-.3-.4c2-1.8 4-3.8 5.8-5.8a201.7 201.7 0 0 1 14.8-15.3l11.8-12.2a81.6 81.6 0 0 0 11.7-14.9l.3.3 1 .8-.2.4a238.5 238.5 0 0 0-1.7 3.9 9 9 0 0 1-1.3 1.5c-3 2.9-5.6 6-8 9.4-2.2 3.4-5 6.5-8 9.2-4.2 3.7-8 8-11.1 12.6a38 38 0 0 1-13.4 12.1l-.3-.3c-.5-.3-.8-.8-1.1-1.3ZM77.5 161h1.2c1.6 0 3.3-.2 4.9-.4l3-.2a17.7 17.7 0 0 0 2.4 0h.4l.5.3a39.1 39.1 0 0 0 3.6 1.5l2 1c3.1 1.6 6.2 3.4 9.1 5.4a322.7 322.7 0 0 0 25 15.3 116.6 116.6 0 0 1 6.6 4.5l.1.3.1.1.1.1.1.1v.4l.2.4a.9.9 0 0 0 .5.3l.3.1h-.1l1.3.5 5.1 1.6c1.8.6 3.6.8 5.4.6h.2l.6.2.5.2.2.1.1.1.3.1h.2l.1 5.2h-.2c-2.2-.4-4.3-1-6.4-1.8a45.6 45.6 0 0 0-9.5-2.7 76 76 0 0 1-13-3.5v-.7a41.5 41.5 0 0 0-.2-.7v-.8l.8.1 2.4.6a26.4 26.4 0 0 1 3.1.5h.4l.2-.2.3-.4v-.3a1 1 0 0 0-.2-1l-.3-.3-.2-.1-.1-.1-.3-.3-1.2-.8a12 12 0 0 0-2.8-2.1c-1.3-.7-2.5-1.5-3.7-2.4l.2.2a4454 4454 0 0 1-13.2-8.1c-5-3.1-10.3-5.7-15.7-7.8-5.3-2-10.7-2.6-16.3-2l-2-3.2a22.4 22.4 0 0 0 3.1-.4l.1.1a1.4 1.4 0 0 0 .4.3h.3Zm30.5-33.7a23.7 23.7 0 0 0 .1 0Zm16.3-9.1.5-.3-.5.5v-.2Zm38.5 86.8a87.1 87.1 0 0 0 .5-3l.4 2.8c0 .9.2 1.8.4 2.6h-.1c-.6.3-1.1.3-1.4 0 0-.8 0-1.6.2-2.4Zm-12.6 5.3.9-.4.2.2-1.1.2Zm-6 1.7a8.4 8.4 0 0 1 .2.4 1.5 1.5 0 0 0 .3.2v.1a122.1 122.1 0 0 0 0 4.6 21.3 21.3 0 0 0-1.8-.2H141a27.4 27.4 0 0 1 0-3.4c0-.7 0-1.5.2-2.2a16.4 16.4 0 0 1 3 .4v.1Zm-101-24 .2.1.3.1h.6a20.1 20.1 0 0 1 8.2 4 7 7 0 0 1 1.1 2.4c.8 3 1 6.1.8 9.2A61 61 0 0 0 55 216a2.4 2.4 0 0 0 .4.2 312.1 312.1 0 0 1-1.5 1.6l-.2-.2-2.3-.1a38.6 38.6 0 0 0-2.4 0l-.1-.4v-.3c0-1 .2-1.9.4-2.8a38 38 0 0 0 1.4-15.8c-.3-2.9-1.9-4.7-4.7-5.4a44 44 0 0 0-7.3-1 2.8 2.8 0 0 0-3.2.8c-2 2.1-3.3 4.7-3.8 7.6-.5 3-1.3 5.6-2.4 7.8h-.6l-2.4-.3h-2.3v-.7l.5-1.3.4-1.4.1-.3.3-.6c.2-.3.2-.6.2-.9v-.1a2.4 2.4 0 0 0-.1-.3l.5-1.1a49 49 0 0 1 7.3-11.4c2-1.2 4.3-1.8 6.6-1.8 1.2 0 2.4 0 3.5.2Zm9.1-11.4Zm50.8-76.4-.4-.4H102.4a1.3 1.3 0 0 0-.4-.1 3 3 0 0 0-.3 0 1 1 0 0 0-.3.2l-.2.2a3.5 3.5 0 0 0-.2.4v.5c.3.7.8 1.3 1.4 1.8a11 11 0 0 0 2.6 1.5c1.3.5 2.6.9 4 1l2.4-.3c2-.6 3.9-1.4 5.7-2.4a19.1 19.1 0 0 0 5.1-4.4 1.6 1.6 0 0 0 0-.3v-.2a2 2 0 0 0-.2-.3l-.2-.2-.2-.2a4.5 4.5 0 0 0-.5 0h-.4l-.8.6a35.5 35.5 0 0 1-5.1 3.7c-1.7 1-3.5 1.6-5.5 1.8a5 5 0 0 0-.8-.2 5 5 0 0 1-1.8-.6c-.8-.4-1.5-.7-2.4-.8l-.5-.4-.7-.9Z"/><path fill="#CCC" d="M43.2 188a20 20 0 0 0-3.5-.3c-2.3 0-4.5.6-6.6 1.8v.3l-.3.4a2 2 0 0 1-.5.2 112 112 0 0 0-6.5 10.5 30.6 30.6 0 0 0-.5 1.2 2.7 2.7 0 0 1 .1.3c0 .3 0 .6-.2.9a6.5 6.5 0 0 1-.4.9c0 .5-.2 1-.4 1.4a6.8 6.8 0 0 0-.5 2h2.3c.8 0 1.6 0 2.4.3h.6c1-2.2 1.9-4.8 2.4-7.8s1.8-5.5 3.8-7.6c.9-1 2-1.3 3.2-.8 2.5.1 4.9.5 7.3 1 2.8.7 4.4 2.5 4.7 5.4a38 38 0 0 1-1.4 15.8l-.5 2.8a15 15 0 0 0 .2.7 38.6 38.6 0 0 1 4.7.1 2.3 2.3 0 0 1 .4.3 312.1 312.1 0 0 0 1.2-1.7l-.2-.1v-.1c-.3-.3-.5-.6-.5-1a6 6 0 0 1 0-1.4 61 61 0 0 1 0-9.7c.2-3-.1-6.1-.9-9.2a7 7 0 0 0-1.1-2.4 22.6 22.6 0 0 0-8.1-4H44a1 1 0 0 1-.3 0h-.3l-.1-.1-.1-.2Zm101 24.2a5.3 5.3 0 0 1 0-.3 101.3 101.3 0 0 1-3-.4l-.2 2.2a128.5 128.5 0 0 0 0 3.4h.5a61.3 61.3 0 0 1 3.2.2 31.4 31.4 0 0 0 0-4.7l-.1-.1-.2-.1v-.1l-.1-.1ZM78.2 161a3.3 3.3 0 0 1-1-.1 8.5 8.5 0 0 1-.3-.3l-.1-.1-3 .4 1.9 3.2c5.6-.6 11 0 16.3 2 5.4 2.1 10.7 4.7 15.7 7.8a4675.9 4675.9 0 0 0 13 8v-.1c1.2.9 2.4 1.7 3.7 2.4 1.2.6 2 1.3 2.8 2l1.2 1a3.4 3.4 0 0 0 .6.4l.3.3.3.5v.5l-.1.3-.2.3-.1.1-.2.1a1 1 0 0 1-.4.1h-.3a26 26 0 0 0-2.8-.5l-2.4-.6-.8-.1v.8l.2.5v.5a2.5 2.5 0 0 1 0 .4 76 76 0 0 0 13 3.5c3.2.5 6.4 1.4 9.5 2.7a29 29 0 0 0 6.6 1.8 83.3 83.3 0 0 0-.3-5.2 3.8 3.8 0 0 1-.4-.2h-.2c-.1-.2-.3-.2-.5-.3a5 5 0 0 1-.6-.2h-.2c-1.8.2-3.6 0-5.4-.6a258.5 258.5 0 0 0-6.4-2.1h.2-.1a2.3 2.3 0 0 1-.4-.1.9.9 0 0 1-.4-.3l-.1-.4v-.4l-.2-.1a9.7 9.7 0 0 0-.2-.2 31.2 31.2 0 0 0-.1-.6l-6.7-4.2-10.9-6.4c-4.7-2.8-9.4-5.8-14-8.9a98.6 98.6 0 0 0-15.2-8.2h-2.8c-1 0-2 0-3 .2l-5 .4h-.5Zm-19.7 9.8-6.3 6a47 47 0 0 0-6.6 9.2c1.2.3 2.5.7 3.7 1.2v-.3l.6-1.3.2-.6 1-1.7c1.1-1.8 2.3-3.5 3.6-5.2 1-1.3 2-2.3 3.3-3.2 0-1.4.2-2.7.5-4.1Zm-6.1 5.9ZM61.9 48a1.4 1.4 0 0 1 .4-.3h.7a23.9 23.9 0 0 1 2.6.3l1 .5.7.8.3.7a814.9 814.9 0 0 1-.2 33.3 1007.8 1007.8 0 0 0-.2 33.2l.3 9.5h.8l.6-.2v-15.9c-.1-5.5 0-11 .2-16.5s.2-11 0-16.5c-.3-5.5-.3-11-.1-16.6a259.2 259.2 0 0 0 .4-9.2l.1-.4.2-.3a3 3 0 0 1 1-.7h.3l.5-.1h.5a24.4 24.4 0 0 0 .9-.4 13.2 13.2 0 0 1 1 0v-3.5a32 32 0 0 1 0-4.3 10.6 10.6 0 0 1-2.5-.4h-4.8a22.2 22.2 0 0 0-4.5.3A433.9 433.9 0 0 1 62 48ZM60.1 7.8l-.1-.9-.8.1A10.6 10.6 0 0 1 58 7l-1.3-.2c-.4 0-.9-.1-1.3-.3h-.7c-.3 5.8-.5 11.6-.5 17.4 0 5.6-.1 11.1-.4 16.7-.3 5.6-.4 11.2-.1 16.7v10.4c-.2 5.7-.2 11.4-.1 17a437.5 437.5 0 0 1 0 19.3c0 5.3.2 10.7.7 16 .2 1.7.2 3.3.2 4.8h3.2l.1-.1a1 1 0 0 1 .4-.2h.2a.7.7 0 0 1 .3 0h.4l.1.2-.2-14.5c-.1-5.5-.2-11-.1-16.5L58.9 77c-.1-5.5 0-11 .2-16.5a1199.6 1199.6 0 0 0 1-33.2L59.8 11c0-.7.1-1.3.3-2L60 7.8Zm12.7 4.6H72.2c-1 .3-2 .3-3 0l-3-.3a51.5 51.5 0 0 1-2.4.2l-.4.1H62.5l-.2-.1a2782.7 2782.7 0 0 0 0 21.1 90.5 90.5 0 0 1 2.8.5 54.2 54.2 0 0 1 8.6.6V15.6l-.3-1.1c0-.4 0-.8-.2-1.1a2 2 0 0 1 0-1h-.4Zm94.1 53.1-.1.8-.2 17c0 5.6.2 11.3.6 17 .4 5.3.7 10.8.8 16.2l.5 16.4a395.5 395.5 0 0 1-.3 33.6 455.4 455.4 0 0 0 0 24.8c.2 2.8.2 5.6 0 8.3a127.5 127.5 0 0 0 1.7.3l.9-.3-.3-.2-.2-.3-.1-.3v-.2l.2-16.5c0-5.5.3-11 .7-16.5.2-2.7.3-5.5.3-8.3 0-5.6-.1-11.1-.3-16.7a497.2 497.2 0 0 1-.3-22.8l-.4-16.5c-.2-5.5-.2-11-.2-16.5a249.8 249.8 0 0 0-.5-20l.2-1 .1-.2h-1.5L167 63v2.4ZM154.3 2.6V3c.2 1.9 0 3.7-.3 5.4a89 89 0 0 1-.1 12.8 191.8 191.8 0 0 0-.7 14.2l.3.2.2.2.2.2V36.8l-.2.3-.2.2-.3.1h-.2c0 .5-.2 1-.3 1.4V42a720.5 720.5 0 0 0 .2-.5v-.1l.1-.1.1-.1h.2l.1-.2h.2a67.5 67.5 0 0 1 2.4-13.5 19 19 0 0 1 10.3-12.1l.7-.2c3.3-1 6.5-1 9.5-.3a94 94 0 0 0 .3-5.6c0-.4 0-.7-.2-1a2038.6 2038.6 0 0 1-.7-.4h-.1l-.2-.1h-.4v-.1c-1 .5-2 .7-3.1.6-1.2 0-2.3 0-3.5.2h-1.5a5 5 0 0 0-2.5-.4h-2.3a69.3 69.3 0 0 1-.7 8.7 6 6 0 0 1-1 2.4h-.2a1.7 1.7 0 0 1-.3.2h-.4a48.2 48.2 0 0 1-.7-.3l-.1-.2-.1-.3v-.2c.6-2 1-4 1-6.1a753.9 753.9 0 0 0-.2-3.5h-.1a4 4 0 0 0-.3-.2v-.1a1.2 1.2 0 0 1-.2-.3V7.9l-.1-.2V7.4l.1-.2a38 38 0 0 1-.4-4.8c-.7.2-1.5.3-2.2.3h-2Zm38.5 200.5v-.2a23 23 0 0 1-7.2 1.8l-4.5.3c-2.3.2-4.5.6-6.6 1.4v1.2l-.2.3-.3.2h-.4l-.3.1h-.2l-.2-.1-.1-.1-.2-.1v-.1l-.1-.1-.7-2.8a32.5 32.5 0 0 1-.2-3.2c-.8.5-1.6.6-2.5.4l-2.4-.2c-.4 0-.8-.1-1.1-.3l.3 3 .4 2.2v1.8l-.1.4-.1.2h-.2l-.1.2h-.2a55.8 55.8 0 0 0-5.2.6l-.1-.2-.1-.2-.1-.1c-.1-.2-.2-.5-.1-.7a3.2 3.2 0 0 1 .3-1c.6-5.7.9-11.5.7-17.4L160 174c-.4-5.6-.5-11.2-.4-16.7a772.3 772.3 0 0 0 .3-33.2v-16.8c0-5.4.2-10.9.5-16.3a27 27 0 0 0 0-5.2V86c-.2-4.2-.3-8.3-.2-12.5 0-3.9 0-7.7-.4-11.6 0-.6 0-1.1.2-1.7l.2-.1V60a7 7 0 0 1 .6-.3 27.8 27.8 0 0 1-8.2-15.2l.7 16v2.3c.2 5.2.1 10.5-.1 15.7-.2 5.3-.3 10.6-.3 16V127c0 6-.2 12-.5 18-.2 5.4-.2 11 .2 16.4.4 5 .4 9.8.3 14.6-.1 4.3 0 8.5.3 12.7a112.5 112.5 0 0 1-.2 19v.5a12.7 12.7 0 0 0 0 1l-.1.3-.1.2 1.5-.5H155.2a8 8 0 0 0 .3.2l.1.2.1.1.1.2a1.2 1.2 0 0 1 0 .9 8 8 0 0 0-.3.2v.1c-1.3.6-2.5 1-3.8 1.1a40.6 40.6 0 0 1-4.7.4 85 85 0 0 1 0 4.8 378.6 378.6 0 0 1 6.7-.6c6.2-1 12.4-1.6 18.6-1.9 4-.2 8-.9 11.8-2.1 3-1 6.1-1.9 9.2-2.7a134.8 134.8 0 0 0-.5-7Z"/><path fill="#666" d="M93.7 153c0 .2.2.4.3.5a5.6 5.6 0 0 0 1.4 1.6c5.4-2.9 9.8-7 13.4-12 3.2-4.7 7-9 11.1-12.7 3-2.7 5.8-5.8 8-9.2 2.4-3.4 5-6.5 8-9.4a9 9 0 0 0 1.7-2.1l.6-1.8a238 238 0 0 1 .8-1.9 9.9 9.9 0 0 0-1.2-1l-.2.2a4 4 0 0 1-.3.5l-1 1.5c-3 4.6-6.4 8.8-10.2 12.6a1612.9 1612.9 0 0 0-15.1 15.5 202 202 0 0 0-11.5 12c-1.9 2-3.8 4-5.8 5.8Zm8.2-17.7a.9.9 0 0 1 0 .3 2.8 2.8 0 0 1 0 .2l-.2.3-.2.2-.3.2a2.5 2.5 0 0 1-.5 0v.5a17 17 0 0 1-.1 1v.2a1.4 1.4 0 0 1-.3.2l-.2.2h-.1a1.5 1.5 0 0 1-.2.1c-.5 2.7-1.3 5.3-2.6 7.7a2388.6 2388.6 0 0 1 23.8-24.6l-2.5 1.5c-2 1-4 1.9-6.2 2.5l-4 1.3c-1.6.8-2.9 2-4 3.4a24.6 24.6 0 0 0-2.6 4.3l.2.2V135.3ZM49 153l-.2.2-.3.2-.1.2a303.2 303.2 0 0 1 0 1.3v.4a3.8 3.8 0 0 1 .3.5l.1.3 2.8 1a78 78 0 0 1 6 1.5 16.7 16.7 0 0 1 0-4.1l-.5-.2-1.1-.4c-1.1 0-2.2-.1-3.2-.3a264.4 264.4 0 0 1-3.8-.6Z"/><path fill="#fff" d="M60.7 152.6a1.6 1.6 0 0 1-.3.3 2.6 2.6 0 0 1-.4.1 39 39 0 0 0-.6 2.3 13.3 13.3 0 0 0 1 5.8 409.1 409.1 0 0 0 .5 1.5v.1c.3.4.4 1 .5 1.5.2.7.2 1.5.3 2.2 0 .3 0 .6-.2.9v.1l-.1.1-.1.1v.5a5 5 0 0 1-.3 1.3c-1 4.3-.9 8.5.3 12.6a100.8 100.8 0 0 1 3 12.8v.2l.1.2v.2a86.6 86.6 0 0 1-.6 11c-.2 2.2-1 4.2-2.6 6a82.3 82.3 0 0 0-5.2 6.3 14 14 0 0 0-1.8 2.4v.2l-.1.1v.2h3.6c1.1-.4 2.3-.5 3.4-.6a63.3 63.3 0 0 1 4.6 0 16 16 0 0 0 6.7-7.6c.2-.5.3-1 .2-1.5a38 38 0 0 1 .5-16.2c.7-2.7 1.3-5.5 1.6-8.3.3-2.6 1-5.2 1.8-7.8.8-2.4.9-4.8 0-7.3-1.2-4-3-7.6-5.4-11l-.9-1.5v-1l.2-.3.2-.2.2-.1.3-.1h.6a1.4 1.4 0 0 1 .5.5l.1.1a18 18 0 0 0 6.5-1.3c1.6-.7 3-1.6 4.4-2.8.2-.3.5-.5.8-.6a3.7 3.7 0 0 1 .6 0l1.3-.6 1-.3A28.6 28.6 0 0 0 86 140l-1.3-3.6c-.2-.3-.5-.6-.9-.8a9.6 9.6 0 0 0-1.3-.8 8 8 0 0 0-1.2 0 2.7 2.7 0 0 1-1.1-.3l-1.1.1-1 .2H78l-1.3.3h-1.2c-.5.1-1 .4-1.5.7l-1 .7a1.2 1.2 0 0 1-.9.2c-.2 0-.4 0-.5-.2a22.6 22.6 0 0 1-2 1.6 65.9 65.9 0 0 0-5 6.5l-1.2 1.6c-.2.6-.6 1.3-1 1.8a22 22 0 0 0-1.7 3.3l.2.3V152.4l-.2.2Zm-8.3-25.1v-.2a27.2 27.2 0 0 0-11.9 4.5c-1 1.2-2 2.3-3.3 3l-3 2.5-.7.7a1 1 0 0 1-.5.1h-.5l-.2-.1-.1-.1c-1.4.2-2.8.5-4.2 1-1.5.4-2.9 1.3-4 2.5l-.9.8A45.2 45.2 0 0 1 22 144l-.1.2c-.2 1.2-.2 2.5 0 3.7l-.1 3c.2 1.3.3 2.7.3 4.2a28.8 28.8 0 0 0 .2 4.6l1 7.2a30.7 30.7 0 0 1 .5 5.2v.2l.1.1a542.2 542.2 0 0 1-.1 1.4l.2.2.1.2.1.2V175.3a4.1 4.1 0 0 1-.4.4 1.1 1.1 0 0 1-.3.3c-.5 3.3-1 6.5-1.3 9.8-.6 5.7-3.6 9.7-9.1 11.8a131.1 131.1 0 0 1-7 2.7 29.2 29.2 0 0 1-3 1.1h-.2l-.1.1h-.2l-.2.2v.5a91.8 91.8 0 0 1 .6 1 70.3 70.3 0 0 0 3.5.9 33 33 0 0 0 8.2-1.6c2.8-.9 5.6-1.1 8.4-.7a60.5 60.5 0 0 1 8.1-13.4c1-5 2.4-9.7 4.1-14A62 62 0 0 0 37 169c1-3.5.6-6.9-1.3-10.1a920.7 920.7 0 0 1-4.3-7.5 1.8 1.8 0 0 1 .1-.5v-.3c0-1 .5-1.4 1.5-1.1l1.9.7a23.5 23.5 0 0 0 7.2 2.4c.5 0 1 .2 1.4.4h1.3a9.9 9.9 0 0 1 1 0H46.1c.2-.4.4-.8.7-1a56.7 56.7 0 0 1 .5-.9v-.6l.2-.1a1.1 1.1 0 0 1 .4-.4c1.8-.3 3.5-.3 5.2-.2a42.6 42.6 0 0 1 5.3.8 17.2 17.2 0 0 1 1.7-3.3l-.2-.1a1.3 1.3 0 0 1-.2-.2 1.5 1.5 0 0 1-.2-.2V146.5a1 1 0 0 1-.1-.3V141a39.6 39.6 0 0 1 0-6.9 7.5 7.5 0 0 1-.3-2.5l-.2-.5a8.2 8.2 0 0 1-.2-1.4 9.5 9.5 0 0 1-.2-1v-.6l-.2-.3a3.5 3.5 0 0 1 0-.4h-3.7a155.4 155.4 0 0 1-.2.8l-.1.1-.2.1-.1.1h-.2l-.1.1H53l-.1-.2h-.1l-.1-.2-.1-.1-.1-.1v-.2a1.5 1.5 0 0 1-.1-.3Zm87.5-92.2-.7-.6-.4-.3h-5l-.5.2a3.6 3.6 0 0 1-.5.4 6.5 6.5 0 0 1-.7 1.6v.4l-.2.2.3.4a7.1 7.1 0 0 0 1.1 1.7 34 34 0 0 0 .8 0h.2l.6-.4a13 13 0 0 0 .8-.6 12 12 0 0 1 .6-1 1.5 1.5 0 0 1 .6-.1h.4a2.8 2.8 0 0 1 .4-.5l.2-.2.1-.1h.3a1.7 1.7 0 0 1 .5 0h.1l.3.2.2.2.2.3a1.2 1.2 0 0 1 0 .7 23.3 23.3 0 0 1-1.2 1.4l-.2.1h-.1a1.5 1.5 0 0 1-.4.1l-.5.7a4.8 4.8 0 0 1-1.1.7 8.7 8.7 0 0 1-.6.6c-.1 0-.2 0-.3.2h-.1a1 1 0 0 1-.3 0H133.9a15.3 15.3 0 0 1-1 0c-.8-.3-1.4-.8-2-1.5a14.1 14.1 0 0 1-.7-1.1h-.1l-.4-.5-.2-.2-.1-.1a7.6 7.6 0 0 1-1.5 0l1.5 1.6c.4.1.7.3 1 .6v.2a2.5 2.5 0 0 1 0 .2l.1.2 3 2.4c.8.5 1.5 1 2 1.6 1.5 1.4 1.8 3 1 4.9a59.4 59.4 0 0 0-4.6 15c.2 1 .3 2.1.1 3.3a40.7 40.7 0 0 0-.5 3.6v1.4a1.6 1.6 0 0 1 .3.1l.1.3.2.2V74.5l-.1.1v.2h-.1l-.3.3a13.7 13.7 0 0 0-.9.4c-1.9 2-3 4.4-3.3 7.1A74.9 74.9 0 0 1 126 91l-.2 3.3a22.8 22.8 0 0 0 0 4l.1.2a19.4 19.4 0 0 0 .5 1.6v.2a3 3 0 0 1-.3.6v.1l-.3.2-.4.1h-.6l-.1-.1h-.2l-.4-.7a19.7 19.7 0 0 1-.5-1.6 68 68 0 0 1 0-7.4v-.7a1 1 0 0 1 .1-.4l.1-.1.5-2.6.4-1.9v-.4c0-2.4.4-4.7 1.4-7 .9-1.6 2-3.1 3.3-4.4l-.1-.2V73.4l-.1-.2a40.5 40.5 0 0 1 .2-2l.1-.5a10.7 10.7 0 0 1 0-1.7 3 3 0 0 1-.3 0h-1.8l-1 .5-.6.5c-.2.4-.5.7-.9 1l-1 .4h-1.4c-.2-.2-.5-.2-.8-.2l-.3.4-.3.5-.1 1.1a3.8 3.8 0 0 1-.2 1.2 2 2 0 0 1-.6.7 7.2 7.2 0 0 1-.7.4l-.1.2-.2.4v.1l-.2 1c0 .2 0 .4-.2.7l-.2.3.4 2.4a8.8 8.8 0 0 0 .4 2.5l-.3 1.8a3 3 0 0 1-1.3 1.6h-.1c-.6 1.2-1.4 2-2.5 2.6a39.4 39.4 0 0 0-3.7 2.4h-.2a1.3 1.3 0 0 1-.2 0l-.2.2-.2.2-.2.2a1.6 1.6 0 0 1-.6 0h-.4a1.3 1.3 0 0 1-.3-.3l-.1-.2-.1-.1V91.2l-.1-.2V90.7a1.4 1.4 0 0 0 0-.4c-.7-1.2-1.6-2.2-2.6-3.1a27.7 27.7 0 0 0-4.5-3.2v-.1l-.1-.2V83.4l-.1-.1c0-1.8-.4-3.4-1.2-5l-2.2-4.6c-.2-.5-.4-1-.4-1.6v-.2l.1-.2v-.1a.7.7 0 0 1-.1-.2h-.1l-.2-.3a1.5 1.5 0 0 1-.2-.4v-.3l.1-.3V70c0-1 0-2.1.3-3.1a62.1 62.1 0 0 0 .3-2.4c-.4-2.2-1-4.2-2-6.2a1271.5 1271.5 0 0 1-4.4-9.2 12 12 0 0 1-2-7.9c-.4.4-.9.6-1.4.7a5 5 0 0 1-1.4 0l-.8-.1c-.7-.6-1.3-1.1-1.8-1.8-.4-.4-.8-.9-1-1.4l-.3-.4-.4-.2h-.2v.4l.1.2a5 5 0 0 1 .2.7l.5.9a8.8 8.8 0 0 1 .4.8v.5l.2.1 1.6 1.4 1.1 1.4.5.9c.2.8.2 1.7.1 2.5l-.2 2-.3.6v.2c-.9 3.6-1.1 7.3-.8 11a28.7 28.7 0 0 0 3.8 12.1v.7a417.7 417.7 0 0 0 .8 8.6l.5 1.5a80 80 0 0 0 3.4 6.5 21.2 21.2 0 0 1 1.1 2 1.8 1.8 0 0 1-.1.6l-.1.3-.3.2-.2.1v.1a2 2 0 0 1 .4.7v.3a3.3 3.3 0 0 1-.2.6c-.6.9-1 1.8-1.4 2.8.3 0 .5.2.8.3a9.2 9.2 0 0 0 1.9.7h.9l.6-.4.7-.5.8-.4a50.2 50.2 0 0 1 .8.2l.2.3.2.2v.4a1.4 1.4 0 0 1 0 .3V100.1a8 8 0 0 1-1.6 1.2 4.3 4.3 0 0 1-3.1.6 31.2 31.2 0 0 1-3-1l-.6.8c-.2.2-.3.4-.6.5H91l-.5.5-.2.1c0 .2-.2.3-.3.5l-.3.5-.7 1.3a31.2 31.2 0 0 1-2.9 5.4 8.2 8.2 0 0 1-1.5 3.8 73.4 73.4 0 0 0-2.8 4l-.5.1a1 1 0 0 1-.5 0h-.1c-1 .9-1.7 1.9-2.4 3-.6 1-1.4 2-2.2 3a63.7 63.7 0 0 1 15.9 3.5h.2l.6.2 1 .5.5.5c1.3.5 2.5 1.2 3.5 2.1l2 1.8.5-1c1.9-3 4.3-5.2 7.3-6.8a26 26 0 0 1 5.1-2 31 31 0 0 0 5.2-1.9c.4-.5 1-1 1.6-1.3a21.2 21.2 0 0 0 2-1.2v-.2h-.4l-.1-.2h-.1l-.1-.2a2.3 2.3 0 0 1-.2-.5v-.2l.1-.2.1-.3.2-.2c3.6-.8 6.5-2.6 8.7-5.5l4-5.5a21 21 0 0 1 2.9-3.4h.2a1.5 1.5 0 0 1 .3 0c.6-2.2 1-4.4 1.2-6.7 0-1 .4-1.9.8-2.8.4-.7.7-1.5.8-2.3.1-1.4.2-2.7.1-4a6 6 0 0 1-.3-3.7c0-.6.3-1.3.7-1.9.4-.8.6-1.7.5-2.6v-.5c-.2-.2-.2-.4-.2-.6-.5-2.4-.4-4.9.2-7.4a46.3 46.3 0 0 0 1.3-10l-.6-4.4c-.2-1.3-.5-2.5-.9-3.8v-1a5.2 5.2 0 0 1 .4-.4l.2-2.2c0-.9 0-1.8-.3-2.7v-.6c-.4-1-.5-2.2-.4-3.3a36 36 0 0 1 .4-4.2 10.1 10.1 0 0 1-.2-.6l-.1-.3V36l-.8-.7Zm-37.2 64.5.4.4.7.9.5.4c.9.1 1.6.4 2.4.8a5 5 0 0 0 1.8.6l.8.2c2-.2 3.8-.8 5.5-1.8a35.4 35.4 0 0 0 6-4.3h.8l.2.2.2.2.2.3a1.2 1.2 0 0 1 0 .7c-1.5 1.7-3.2 3.1-5.1 4.2-1.8 1-3.7 1.8-5.7 2.4-.8.2-1.6.3-2.5.3a17 17 0 0 1-3.9-1c-1-.4-1.8-.9-2.6-1.5a4.6 4.6 0 0 1-1.4-1.8v-.2a1 1 0 0 1 0-.4l.2-.3.2-.2.3-.1.3-.1a1.4 1.4 0 0 1 .5 0l.2.1Z"/><path fill="#333" d="M62.3 127.7a18.3 18.3 0 0 1-1-.1l-.2.2-.3.1c.3 2.4.6 4.7.6 7a202.6 202.6 0 0 0 .4 9.5c1.2-1.8 2.5-3.7 4-5.4 1.3-1.8 2.9-3.4 4.6-4.8.6-.5 1.3-.8 2-1a1.2 1.2 0 0 1 .6.3l.5-.2c.8-.5 1.7-.7 2.6-.6h.8c.5-.3 1.1-.4 1.8-.4l1.3-.2h.7a4.9 4.9 0 0 0 .8.3c1.1-.1 2.2.1 3.1.7a6 6 0 0 1 2.1 2c.2.4.4.8.4 1.1 1.5 2.6 2.2 5.3 2.3 8.2a56.6 56.6 0 0 1-.2 7.6 17.5 17.5 0 0 0 6.3-7c1.2-2.5 2-5 2.4-7.7l.1-.2.2-.2.3-.2.4-1.6-1.2-1.1a18.1 18.1 0 0 0-3.7-2.6c-.3 0-.5-.2-.8-.3l-.8-.6-.4-.3c-2.5-1-5-1.7-7.7-2.2a304.7 304.7 0 0 0-10.2-1.7c-.8.9-1.8 1.4-3 1.6a59.6 59.6 0 0 1-3.5.3v.2a1.4 1.4 0 0 1-.3.2 1.4 1.4 0 0 1-.3.3h-.2a1 1 0 0 1-.6 0h-.1a8.5 8.5 0 0 1-.4-.3 1.5 1.5 0 0 1-.1-.2v-.2h-.1v-.1a21.8 21.8 0 0 1-2-.4h-1.1ZM48.6 21.8a7 7 0 0 1-1.1 1.2 5 5 0 0 0-1 1.2l-.3.4a8.2 8.2 0 0 1-1 2c-.1.6-.3 1.1-.3 1.7-.1.5-.2 1-.5 1.4 0 .1 0 .3-.2.4a10.2 10.2 0 0 1-.6 2.8 18 18 0 0 0-.4 3.8v4l1.4 5.2a13.6 13.6 0 0 0 2.8 5.2l.1.1.2.1.2.2.5.5a12 12 0 0 0 .2.4l.1.1 1.4.9 1.4.7.2.1v-1.5c-.2-5.5-.1-11 .1-16.5L52 29v-8.9l-1 .4a9 9 0 0 0-2.4 1.2Zm141.2 13.4c-.5-1.4-1-3-1.2-4.5-.4-2.3-1.4-4.4-2.8-6.3a23 23 0 0 1-1.4-1.8 26.9 26.9 0 0 0-1-1l-.3-.4-2.7-1.8a62.4 62.4 0 0 0-4.3-2.2l-1.9-.4c-.8-.2-1.7-.3-2.6-.2h-.9l-4.2 1.2c-.7.1-1.4.5-2 1.1a54.7 54.7 0 0 1-3.6 3.5 21.2 21.2 0 0 0-3.2 7c-.6 2.6-1 5.2-1.3 8 0 .8-.2 1.6-.4 2.4a12.1 12.1 0 0 0 0 1.8v.5c.3 3.1 1 6.2 2.1 9.1.9 2.4 2.4 4.3 4.6 5.7l2.5 1.5 1.3 1v.2a.8.8 0 0 1 .1.3v.4c.3.3.7.4 1 .6 1 .3 2 .5 3 .4 3.5-.3 6.9-1.1 10.2-2.5 1.6-1.4 3.2-2.9 4.6-4.5 1.4-1.5 2.4-3.2 3-5.2l.7-1.9a9.6 9.6 0 0 1 .3-1V46a21.3 21.3 0 0 0 .4-3h-.1l-1.1.1-1.3.1h-.7a782.3 782.3 0 0 0-14.4-.9c-.8 0-1.5-.3-2-.7-.4-.8-.5-1.6-.5-2.4a4.8 4.8 0 0 1 1.8-3.6l.3-.1h.7l.2.1a1.5 1.5 0 0 1 .3.3 429.3 429.3 0 0 1 9.8 0h.2a7.8 7.8 0 0 1 2.5-.3h.4c1.3-.3 2.6-.5 3.9-.4Z"/><path fill="#999" d="M73.8 38.2v-1.3a55.2 55.2 0 0 1-9.2-1 53 53 0 0 1-2.4-.3V39c2.1-.4 4.3-.5 6.5-.3l5.1.2v-.7Zm3.2-1a6.8 6.8 0 0 1-.9-.2 243 243 0 0 1 0 2h.7c.7 0 1.4 0 2.1.3a5.3 5.3 0 0 1 .7-.2h.5a2.6 2.6 0 0 1 0-.6l-.2-.2-.2-.7v-.4h-.8a24.3 24.3 0 0 0-2 0Zm49.2 2.6a11 11 0 0 1-.9-1.4c-2.9-.4-5.9-.6-8.8-.7-2 0-4 .1-6 .5-1.8.3-3.7.4-5.6.3a257.3 257.3 0 0 0-12.3-1.3c0 .6 0 1.2-.3 1.9 4 0 8 .4 12 1l3 .2a254.4 254.4 0 0 1 16 0l3-.5Zm16.9-2.8c.2 1 .2 2 0 3l3-.1a27.4 27.4 0 0 1 4.4.3v-2.6h-1.7c-1-.3-2-.5-3.1-.6H143Zm46.8.6h-.2l-7.6.3a185.8 185.8 0 0 1-9.8.5l-.2.4V40a4.2 4.2 0 0 0 .3.1 4.2 4.2 0 0 1 .4.1h3.3a21.6 21.6 0 0 1 4.5.6l2.1-.3 2.4.2 1.5.2h.7a16.7 16.7 0 0 0 1 0 4 4 0 0 1 1.5-.3l.1-.2a2.6 2.6 0 0 1 .2-.3l.2-.2h.1a17 17 0 0 1 .3-.2H191a3.8 3.8 0 0 1 .4 0 12.2 12.2 0 0 0 .4.3 1.4 1.4 0 0 1 .1.2h.2l.3-.3.2-.2.2-.3v-.3a1.8 1.8 0 0 0-.2-.6l-.1-.3c-.2-.2-.4-.3-.7-.3l-1-.2-.9-.2Z"/></svg>