<svg xmlns="http://www.w3.org/2000/svg" width="76" height="139" fill="none"><path fill="#000" d="M49.4 70.4Zm0-67.6-.7-.4h-.4c-.3-.6-.7-1-1.2-1.3-1-.6-2-1-3.2-1a6.6 6.6 0 0 0-5.6 2.2l-.3.4a6.7 6.7 0 0 0-1.8 3.5 8.6 8.6 0 0 0 0 3.3 6.6 6.6 0 0 0 2.6 4.1c.6.5 1.2.8 1.9 1 .9.4 1.8.5 2.8.6v.2l-.7 1.7-1.5 3.8c-.3.8-.6 1.5-.7 2.3a22 22 0 0 0-.3 4.1c0 .7.1 1.3.3 2 .3 1 .3 2 0 3l-.2.4-.7-.3a9.4 9.4 0 0 0-4.2 0c-1.4.2-2.4 1-3.1 2.2-.7 1.2-1.1 2.4-1.2 3.6-.1 1.4 0 2.8.4 4.2a17 17 0 0 0 1.8 4.4l-.1.1H33l-.2.1a.7.7 0 0 0-.4 0 14.4 14.4 0 0 0-1.6-2.9c-.5-.5-.9-1.2-1.3-1.8V42l-.2-3.6a19.3 19.3 0 0 0-1-6 10.7 10.7 0 0 1-.3-1v-.2l-.3-1.5V24c0-1.2-.3-2.3-.6-3.4-.3-1-.4-2.1-.3-3.2l.1.1a9.2 9.2 0 0 0 2.2.3l1.1-.2a5.1 5.1 0 0 0 4-3.4l1-3c.1-.5.2-.9 0-1.3-.1-1.2-.5-2.3-1-3.3s-1.2-1.6-2-2a7 7 0 0 0-4-.9c-.4 0-.8.2-1 .3a5.9 5.9 0 0 0-1.7-1.4 8 8 0 0 0-2.4-.9c-.5-.1-1-.1-1.6 0-1.1 0-2 .5-2.9 1.3l-.3.3a6 6 0 0 0-1.7 1.9L16 6c-.4 1.1-.6 2.2-.5 3.3 0 1.1.3 2.2.7 3.2.5 1 1.2 1.9 2.2 2.4a6.2 6.2 0 0 0 3.6 1l-.2 1-.1.4-.6 3.3a34 34 0 0 0-1.3 10.1 78.6 78.6 0 0 1-1.2 6 15 15 0 0 0-.4 4.1 7 7 0 0 0 1.3 3.8 13 13 0 0 1 1.7 3.4l.6 2 1 4c.3 1.3.7 2.6 1.2 3.8l.8 1.4c-.1 1 0 2.1.1 3.2l.9 4 .7 4.1-.1 2.3-.8 4c-.2.7-.2 1.4 0 2a39 39 0 0 0 .5 3.5v.3a5.2 5.2 0 0 0-.2 1.2h-.5c-.7-.5-1.5-.8-2.3-1h-1.2a27.7 27.7 0 0 0-7.5 3.2 10.4 10.4 0 0 0-3.4 3.8 9.6 9.6 0 0 0-3.6 4 8 8 0 0 0-.8 4 24.9 24.9 0 0 1-.4 6l-.4 2.5c-.2 1.4-.2 2.8 0 4.1l.6 2.7 1 4c.2 1.2.5 2.5.9 3.7v.8l.2 3.7H8c-.7-.1-1.3 0-2 .1-.4.2-.7.4-1 .8-.5.9-.7 1.8-.5 2.8l-2 .7-1.4.8c-1 .7-1.2 1.6-.8 2.8l.3.3c.9.6 1.9.9 3 1a13 13 0 0 0 2.9-.3 3 3 0 0 0 2-1.2h.1l.4-.2.4-.2h.2c1.4 0 2.8 0 4.2-.3.8-.2 1.5-.6 1.9-1.3 1.1.4 2.2.6 3.4.7a148.6 148.6 0 0 1 12.8 1.2A74.5 74.5 0 0 1 30 137l.2.4c.6.5 1.3.7 2.2.7h.7a193.9 193.9 0 0 0 4.5-.2c.8 0 1.4-.5 1.7-1.1a35.2 35.2 0 0 0 .6-3 114.2 114.2 0 0 0 2.5.4l.4.1H43.4v.2c0 .2.2.4.4.5 1.1.5 2.3.8 3.6.9h.5l.4-.2a7 7 0 0 0 1.3-.4l.7-.7v-1c0-1 0-2-.3-3 0-.5-.4-.8-.9-1a6.3 6.3 0 0 0-3.7-.2h-.5l-.2.1h-2.4c-.6 0-1.2-.2-1.8-.4l-.1-.5a9 9 0 0 0 0-1.7c.5-.1 1-.3 1.4-.6a38.3 38.3 0 0 1 5.3-2.8 39 39 0 0 0 4.5-2.4 13.8 13.8 0 0 1 4.8-1.8h.2l.1.1.1.1.7.1 1.4.1a64.8 64.8 0 0 1 10.8.9h.2l.1.1h.1v.1h.1v.1h.4l.7.1a22.2 22.2 0 0 1 3.6.3h.2a1.1 1.1 0 0 0 .2-.2c.2-.2.2-.4.2-.7v-2.6c0-1.3-.7-1.9-2-1.9a7 7 0 0 1-1.2 0 3 3 0 0 0-2.1.3l-.2.6h-.2c-1 0-2 0-3-.2l-5-.3a16 16 0 0 1-5.2-1l-.2.1-.1.1-.1-.1H56l-1.4-.3a4.5 4.5 0 0 0-1.5 0v-.1l-.2-.2a7.2 7.2 0 0 0-.6-.2v-1.9c-.1-.6-.2-1.1-.1-1.7a227.5 227.5 0 0 0 .1-6.7l.3.1a17.9 17.9 0 0 0 1.4.6h.4v-.2h.1c.3-.6.4-1.2.5-1.9a88.3 88.3 0 0 1 .2-2.2c.2 0 .4-.2.5-.4l.7-1.8-.1-.2-1-1.1.3-3.6c0-1.8-.3-3.5-1-5.2-.2-.8-.7-1.5-1.2-2.2-.8-.9-1.8-1.7-3-2.3-.3-.3-.7-.4-1.1-.4a57 57 0 0 1 0-8.8v-4.5c.7-1.2 1-2.5 1.2-3.9V66a23.6 23.6 0 0 0 .7-3.4l.2-.3c.5-1.3.7-2.7.5-4.1l-.4-4.2-.6-3c-.4-1.3-.8-2.6-1-4a29 29 0 0 0 1-3.9 12.5 12.5 0 0 0-1-5.7l-1-2.8-.3-2.1c0-1 .1-2 .6-2.9.6-1.2.7-2.6.5-4l-1-4c-.4-1.3-.6-2.6-.7-4v-.8L48 16h.4a4.7 4.7 0 0 0 2-.5 8 8 0 0 0 3.4-5c.3-1.2.2-2.4-.2-3.5a7.4 7.4 0 0 0-2.2-3c-.6-.6-1.2-1-2-1.3Zm-3-2Zm-2.6.3c1 0 2.1.5 3 1.1a35.8 35.8 0 0 0 1.9 2.6c0 .4.2.8.4 1.2.3.8.3 1.6.2 2.4a13.6 13.6 0 0 1-1.5 3.9c-.1.3-.3.5-.6.7-.3.3-.7.5-1 .6-.8.4-1.6.5-2.4.6-1 0-2-.3-3-.7-1-.4-2-1-2.6-2-.6-1-1-2-1-3.2a7.7 7.7 0 0 1 .5-3.4l1-1.2a7.1 7.1 0 0 1 .9-1.2l1-.7a5.5 5.5 0 0 1 3.2-.7Zm6.4 5.1v-.4L49.4 4a6.1 6.1 0 0 1 3.3 4.2c.2 1.1 0 2.2-.4 3.3a9.5 9.5 0 0 1-2.3 3.2H50c-.6.3-1.3.4-2 .3l-.3-.7-.1-.1.1-.2a5 5 0 0 0 1.6-2.1v-.1a8.8 8.8 0 0 0 .1-.4l.4-.8.4-.9c.4-1.1.4-2.3.1-3.5Zm-5.7 9.2v-.2a7.5 7.5 0 0 0 2.2-.7V14.8a22.5 22.5 0 0 0 .6 4.5 48 48 0 0 1 1.5 7c0 1.1-.1 2.2-.7 3.3a6 6 0 0 0-.5 2.6c0 1.3.3 2.7.9 4l.6 1.4c.4 1.3.7 2.6.9 4V43a331.2 331.2 0 0 0-1 3.8V48l.6 1.8c.5 1.3.8 2.7.9 4l.4 4.1c.2 1.4 0 2.7-.4 3.9l-.2.2-.2.4-.2 2-.4 1.8v.4a9.8 9.8 0 0 1-1.4 3.8l-2.2 3.5c-.7 1.2-1 2.5-1.1 3.9a98.5 98.5 0 0 1-.4 4.9 29.5 29.5 0 0 0-6.2 1.1 27.5 27.5 0 0 1-4 .7c-1 .2-2.1 0-3.2-.4l-3.7-1.6L27 81a9.2 9.2 0 0 1 0-6c.4-1.1.6-2.3.5-3.5a30.7 30.7 0 0 0-1.2-7.9c0 .2.2.4.4.6 0 .2.2.2.3.3a28.6 28.6 0 0 0 2.4.5h.7c.7-.1 1.3-.5 1.7-1a9 9 0 0 0 1.4-2.6l.2.6.1.2c.5 1 1.3 1.8 2.3 2.2a11 11 0 0 0 4.7.8c1.2 0 2.1-.6 2.6-1.8a12 12 0 0 0 .5-7.2l-.3-.2a.5.5 0 0 0-.7.2v1l.2 1.9a13.4 13.4 0 0 1-.1 1.8A9 9 0 0 1 42 63a2 2 0 0 1-.9 1 9 9 0 0 1-3.3 0l-.6-.2c-.7-.1-1.4-.4-2-.9l-.7-1c0-.1 0-.2-.2-.3V61l-.2-.3c-.3-.3-.6-.3-.8 0l-.2.3c0-.2-.2-.3-.5-.4l-.2.1a8.4 8.4 0 0 0-.9 1.6c-.2.6-.6 1.1-1.2 1.4h-.5c-.8 0-1.6 0-2.4-.2-.4-.5-.6-1-.6-1.6a103.6 103.6 0 0 1 .5-4.6c-.1-.4-.4-.5-.8-.4l-.1.1a15.3 15.3 0 0 0-.6 4 16.4 16.4 0 0 1 0-1.9 10.7 10.7 0 0 1-.2-.5c-.5-1-1-2-1.3-3a117.3 117.3 0 0 1-1.6-6 13 13 0 0 0-1.3-3.5L20 43.5c-.7-1.2-1-2.5-.7-4 .1-1.3.4-2.6.7-4a25.1 25.1 0 0 0 1-6l.2-4.1c.2-1.4.4-2.7.8-4a32.1 32.1 0 0 0 .9-5.2l-.2-.3 1-.4c1-.6 1.8-1.3 2.5-2.2a13.6 13.6 0 0 0 2-3.8c.4-.3.5-.6.5-1 .3.7.4 1.5.2 2.3-.2 1.1-.7 2-1.5 2.9-.6.7-1 1.4-1.3 2.3l-.1.2v.5a8 8 0 0 0 .1 4c.5 1.3.7 2.6.8 4 0 1.4 0 2.7-.2 4.1 0 .8 0 1.6.4 2.3v.3l.1 1a21.2 21.2 0 0 1 1.2 8c0 1 0 1.7.4 2.5l.1.3a14.3 14.3 0 0 1 2.2 3.4 4 4 0 0 0 1 1.6l.6-.1a1.2 1.2 0 0 0 .4 0c.3 0 .6-.2.8-.3a.7.7 0 0 0 .3-.3c.3.2.5.2.9.2.8 0 1.7-.1 2.5-.6l.9-.4a6 6 0 0 0 2.1-1.5.5.5 0 0 0-.3-.7H40l-.5.3c-.6.5-1.3 1-2 1.3a4.4 4.4 0 0 1-2.6.5 13.2 13.2 0 0 0-.1 0h-.1l-.2-.4-.4-.6c-.6-1.1-1-2.3-1.4-3.6a10.7 10.7 0 0 1-.3-4.2c.2-1.1.5-2 1.1-3 .5-.7 1.2-1.1 2-1.3a10 10 0 0 1 2-.3c1.1 0 2 .2 2.8.6l.3 1.6.2.7.5 2.1A52 52 0 0 0 42 42a38.4 38.4 0 0 0-.3 1.8 77.4 77.4 0 0 1-.4 4.8c-.2.5-.1.9.3 1.1h.4l.2-.2v-.2l.3-.8a208.3 208.3 0 0 1 .4-5.3 8.9 8.9 0 0 1 .1-1.4v-.1l-.1-.6-.4-1.4a37.2 37.2 0 0 0-.3-1.7l-1-4.2.2-.7c.5-1.3.6-2.6.3-4a12.4 12.4 0 0 1 0-5.7c.3-1.4.8-2.7 1.4-4 .6-1.3 1.1-2.6 1.4-4Zm2.5 2Zm-14-11c.6 1 1 2 1.3 3.2v.9l-1 3.3c-.4 1-1 1.8-2 2.2-1 .5-2.2.7-3.3.5h-.2a2.1 2.1 0 0 1-.4-.1 1 1 0 0 1-.3-.1l.4-.8 1.4-2a5.6 5.6 0 0 0 1.2-3.6c0-.9-.3-1.6-.8-2.3l-.3-.2h-.5a6.6 6.6 0 0 0-.7-2.5l.5-.2c.8-.1 1.6 0 2.4.2l1.4.7c.4.2.7.5.9.9ZM21.6 2.7h1.7c1 .2 1.8.7 2.5 1.3a5.3 5.3 0 0 1 1.1 6 12.6 12.6 0 0 1-2.3 3.5 3.6 3.6 0 0 1-3.2 1.5c-1.1 0-2-.4-3-1.1a4.8 4.8 0 0 1-1.6-2.7 7.6 7.6 0 0 1-.1-3.4l.3-.3.2-.8.4-.8.2-.1c.2-.1.2-.2.3-.4V5l.3-.2.7-.7 1.1-1a3 3 0 0 1 1.4-.4Zm7.1 9.2Zm9.1-.9Zm0 0v-.1Zm-1 .5v-.1ZM34 45.8Zm-8 14v-.1ZM14.9 87a21.2 21.2 0 0 1 8-3.1 12 12 0 0 0 1.2.3s0 .2.2.2c.5.5 1 1 1.4 1.7.8 1 1.5 2 2 3.3a7 7 0 0 1 .2 4.3v.3l-.4 1.3c-.2.3-.3.6-.3 1a2 2 0 0 0-.2.2 31 31 0 0 0-2.4.7 43.4 43.4 0 0 1-3.4.3l-2 1.5a6 6 0 0 1-1 .8h-.5c-.9 0-1.7-.3-2.4-.7V99l-.1-.1-.2-.2-.5.1-.2.4c-.2.2-.2.4 0 .7.4.9.8 1.7 1.4 2.4a9.1 9.1 0 0 1 1.9 4.8 8.7 8.7 0 0 1-.8 4.4v.1l-.5 1L15 117a21.4 21.4 0 0 0 0 12.7c0 .8-.3 1.3-1 1.6-1.4.3-2.7.5-4.1.4-.9 0-1.6.3-2.2 1a2 2 0 0 1-.4.3l-1.6.5c-1.5.2-3 0-4.3-.5h-.1a1.6 1.6 0 0 1-.2-.4 1.5 1.5 0 0 1 .1-.6l.1-.2c.7-.6 1.4-1 2.2-1.2a10.7 10.7 0 0 0 2-.8l1-.6 1.1-.9 1.7-1 .3-.5c.2-.8.2-1.6 0-2.5a25.7 25.7 0 0 1-.2-3.6 1157.4 1157.4 0 0 1-1.4-5.9 31.8 31.8 0 0 1-1.2-6.8v-1c.4-1.4.6-2.8.8-4.2.3-1.3.3-2.7.2-4 0-1 0-2 .2-3l.6-1.8a7.6 7.6 0 0 1 2.8-3.1l.2-.2.4-.1.4-.7c.6-1.1 1.5-2 2.6-2.8Zm2.7 14.4.1.2.3.3.4.2c-.2.3-.1.7.1 1 .3.3.7.5 1 .6h1.8v.7l-.3 5c0 1.8 0 3.5.2 5.2.2 1.7.2 3.4.2 5.1a48.7 48.7 0 0 0 0 7.9l-.8-.1a55.9 55.9 0 0 0-5.4-1L15 125a29.7 29.7 0 0 1 2.7-12.8c.3-.9.6-1.6.7-2.5a11.3 11.3 0 0 0-.2-4.9 14.8 14.8 0 0 0-2.4-4.1h.4c.4.2.9.3 1.4.3v.5Zm1.1-.4c.2 0 .3-.2.4-.3a58 58 0 0 0 2.4-2.3 100.5 100.5 0 0 1 2.9 0 39.2 39.2 0 0 0 4.3-1.2h2.4c-.1 1-.1 1.8.1 2.7l.7 2h-1.5a15.8 15.8 0 0 1-2.3 0c0-.7-.2-1.2-.5-1.7s-.8-.7-1.3-.8c-1.2 0-1.8.6-2 1.8a3 3 0 0 0-.4-1c-.5-1-1.3-1.3-2.4-.8l-.3.3c-.3.5-.4 1-.5 1.5h-.4a5.1 5.1 0 0 0-.9 0 4.8 4.8 0 0 1-.6 0l-.1-.1v-.1Zm16.8-14.6a94.6 94.6 0 0 0-3.4 6.6l-.8 3.1h-3a12.5 12.5 0 0 0 .8-5 9.2 9.2 0 0 0-1.3-4 24 24 0 0 0-1.6-2.2H26.5c.1 0 .2 0 .3-.2l.1-.3v-1a52.9 52.9 0 0 0 5.7 2 13.5 13.5 0 0 0 5-.5 25.8 25.8 0 0 0-2.1 1.5Zm.2 1.4a5 5 0 0 0 .5-.6l.3-.2c1-1 2.2-1.6 3.6-2h.4c.7.2 1.4.4 2 .8 1.3.8 2.2 1.8 2.7 3.1v.5c0 .2.1.3.2.3l.2.1c.1 1 0 2-.2 3-.4 1.4-1 2.7-1.8 3.8l-2.5 3.5-.2.3v.1l-.2.1-.1.1c-.2.1-.3.2-.3.4v.2c-.2.2-.1.4 0 .7a53.3 53.3 0 0 1 1.3 3.3l.2 1.6c.2 1.3.2 2.6.1 4a66.4 66.4 0 0 1-2 12l-.4 1.6c-.1 1.4-.2 2.8-.1 4.2v.2a97.2 97.2 0 0 0-.4 4.5c0 1-.3 2.1-.8 3l-.3.2a5 5 0 0 1-1.9.1l-1.7.1c-1.1.2-2.2.2-3.3-.1v-.1a2.3 2.3 0 0 0 0-.1A83.2 83.2 0 0 0 33 133h.1l.1-.2a1 1 0 0 0 .1-.2v-.4c.6-1 1-1.9 1.2-2.9a20.6 20.6 0 0 0-1-13.8 21.7 21.7 0 0 1-.4-11.4 3.7 3.7 0 0 0 .2-1l-.1-.6-1-2.7a6.6 6.6 0 0 1 0-3 67.4 67.4 0 0 1 1.2-4.4 98.5 98.5 0 0 1 2.2-4.6Zm6.7-3.3-1.1-.4c1.1-.3 2.3-.4 3.5-.5v.2h.1v.4a30.9 30.9 0 0 1 .2 2.3l-.7-.6-2-1.4Zm-20.6 17.2.1-1.3h.1a1.4 1.4 0 0 1 .4-.2H22.7l.1.1.2.2a39.4 39.4 0 0 1 .2 1.4l-.2.4a6.9 6.9 0 0 0-.3.4v.2a15.4 15.4 0 0 0 0 .3l.2.1.7.3.9.1h.2a.6.6 0 0 0 .4 0v.3a127.6 127.6 0 0 0 0 10.5 983.4 983.4 0 0 0 0 11.1 19 19 0 0 1 0 5.6 123.8 123.8 0 0 1-3.8-.4 20.9 20.9 0 0 1-5.2-.6l-.1-.1-.1-.2a17 17 0 0 0-.4-2.3h.2l3 .6a14.3 14.3 0 0 0 3 .4 1.3 1.3 0 0 0 .2 0h.1a1.6 1.6 0 0 0 .2-.1h.1l.1-.1v-.1l.1-.1v-3.9c-.2-1.8-.2-3.5 0-5.3 0-1.7 0-3.4-.2-5.2-.2-1.7-.3-3.4-.1-5v-5.4h.1v-.1a.3.3 0 0 0 0-.2 18.2 18.2 0 0 1-.5-1.4Zm3.5-.1c0-.4.2-.7.3-1l.3-.1h.2a2 2 0 0 1 .3 0c.3.3.5.8.6 1.2.1.6 0 1-.5 1.5h-.1l-.1.1H26v.1a1.9 1.9 0 0 1-.2 0h-.1a.4.4 0 0 0-.2 0h-.1v.1-.5l-.1-.4v-1ZM34 91.3Zm14.4-19.4a284.3 284.3 0 0 0-.1 16.8l-.3 5a237.8 237.8 0 0 1-.1 6.2l-.4.1c.2-.4.2-.9.2-1.3l.1-.7c.3-.7.1-1.2-.4-1.6a.8.8 0 0 0-.4-.2l-2 .1c.8-1.1 1.3-2.4 1.5-3.7.3-1.4.3-2.9 0-4.3l-.2-.3a73.5 73.5 0 0 0-.2-2.3L46 83l-.4-.3v-.6a265.3 265.3 0 0 1 .4-5.4c.3-1.2.7-2.2 1.4-3.2l1-1.6Zm1 12.8h.2l1 .5c1.3.7 2.2 1.6 2.8 2.9.8 1.5 1.1 3.1 1.2 4.8l-.1 3.1-.3-.4v-.4c.2-.8.3-1.5.2-2.3a10 10 0 0 0-2-4.7 5 5 0 0 0-3-2v-1.5Zm2.5 4.5c.4.6.8 1.3 1 2 .4 1 .6 2 .5 3.1a29 29 0 0 1-1.7-3l-2.2-4a5 5 0 0 1 2.4 1.9Zm-2.7 2V88.8l.5 1a49.3 49.3 0 0 0 5.5 9.3l-.2.5h-.2l-.6.2h-.6a4.6 4.6 0 0 0-.5-1.7 27.8 27.8 0 0 1-.5-1.2l-.4-.7a41.5 41.5 0 0 0-3-5.2ZM49 93v.1a76.8 76.8 0 0 1 2.4 3.8 18.5 18.5 0 0 1-2.4.4v-4.3Zm-3.4 4.2 1-.2a39 39 0 0 0 .1.2 28.6 28.6 0 0 0-.2 2c0 .6-.2 1-.5 1.4l-.3.1-2.3.2-1.8.1 1.1-1.5a227.4 227.4 0 0 0 1.5-2 15.7 15.7 0 0 0 .2 0h.2l1-.3Zm1.2 4 .2-.2h1a1 1 0 0 0 .8-1l.1.2.2.3.1.2.4.3v.7a7.4 7.4 0 0 1 .2 1 274.6 274.6 0 0 1-.3 15.3 15.2 15.2 0 0 0-2-.1v-.3a71.2 71.2 0 0 0 0-10v-5.5h-.1v-.1h-.1l-.2-.1H47a.6.6 0 0 0-.2 0l-.1.1-.1.2v.2a4.3 4.3 0 0 1-3.5-.3c1 0 2-.2 3-.4l.7-.4Zm2.2-2.8h.8c.6-.2 1.1-.3 1.7-.3a10.9 10.9 0 0 1 .2.9h-.4a.7.7 0 0 0-.1.3h-.1a1.2 1.2 0 0 0-.3 0h-.1l-.1.1v.1h-.1a46 46 0 0 0 0 .5v.2a17.7 17.7 0 0 0 .5.6v.1a.5.5 0 0 0-.1.1v.1a17 17 0 0 0 0 1.4c.2 1.7.3 3.4.2 5.1v5a26.7 26.7 0 0 1 0 5.4l-.5.1.2-1a139 139 0 0 0 0-9.6 61.5 61.5 0 0 0-.3-6.5v-.1a1 1 0 0 0 .1-.2 3 3 0 0 0 0-.2h-.1c0-.2-.1-.2-.2-.3l-.4-.4-.3-.4a.5.5 0 0 0-.2 0H49.1a.7.7 0 0 0-.2 0l.1-1Zm3.2 1.6.2-.1a7.6 7.6 0 0 1 .2.6 142 142 0 0 1-.5 3 31.6 31.6 0 0 0-.1-2.4v-.1l.1-.1V100.3l-.3-.3h.4Zm1.3.9h.7a40.2 40.2 0 0 0-.5 2.7l-.3-.1-.3-.1.1-.4.2-1.1.1-1ZM73 117h1.2v.7a56.6 56.6 0 0 1 .2 2.5h-.3l-.7-.1h-.7l-.3-.1h-1.6a7.7 7.7 0 0 1 0-2.2.6.6 0 0 0 .3-.1V117.3a12.7 12.7 0 0 1 0-.3v-.1H73Zm-6 2.3a50.7 50.7 0 0 0-7.7-.5h-.4a34.4 34.4 0 0 1-1.8-.3 14.7 14.7 0 0 1-.4-2 8 8 0 0 0 2.7.6c1.7 0 3.4.2 5.1.4l5.1.3h.2a18.4 18.4 0 0 0-.1 1.7h-1.4l-1.2-.2Zm-20.7-15.6.3-.1a83.7 83.7 0 0 0 0 8.6 22 22 0 0 1 0 2.2 7 7 0 0 1-2.3 0c-.6-.1-1.2 0-1.7.2a54.4 54.4 0 0 0 .4-5 35.1 35.1 0 0 0-.4-4.4 13.2 13.2 0 0 0-.1-1l-.4-.7a18 18 0 0 1-.6-1.3H41.8c0 .2 0 .3.2.4.4.4.8.6 1.3.8a5.5 5.5 0 0 0 3 .3Zm6.1 12Zm-.2 1.9a18.1 18.1 0 0 0 .2-.7l.7-.3.7-.5a10.6 10.6 0 0 0 1 .2l-2.6 1.3Zm-4 1.5h.7l-3.4 2-1.1.7-3.3 1a25.5 25.5 0 0 0 .2-1.1l1.1-.4 1.9-.8 2.8-1.4h1.1Zm.2 1.4a95.4 95.4 0 0 1 7.3-3.4 24.4 24.4 0 0 0 .2 1.3c-1 .1-1.9.4-2.8.8-1 .4-1.9.9-2.8 1.5a32.6 32.6 0 0 1-5.7 2.8l-4.2 2.3c0-.6.2-1.2.3-1.7a64.7 64.7 0 0 0 3.7-1.1c1-.5 2.1-1.2 3-1.9l1-.6Zm-1.9-5v1.8a69.7 69.7 0 0 0-4.4-.2 44.8 44.8 0 0 0 .4-1.4l1-.2h3Zm-2.1 2.8h1.8a53.5 53.5 0 0 1-4.6 2.2 23.1 23.1 0 0 0 .3-2.4h.3c.7.2 1.5.2 2.2.2Zm4.6 12.4.1.4.1 1.6v1.5h-.1l-.6.3-.6.2a3.2 3.2 0 0 1-.3 0l-.2.1h-.2a29 29 0 0 0-2.7-.5v-.3a76.4 76.4 0 0 1 .4-2.8v-.1l.1-.1v-.1h.1l.2-.2a2.7 2.7 0 0 1 .2-.2h.3l1.6-.3c.6 0 1.1.1 1.6.5Zm-5-.2a14 14 0 0 0-.5 2.8h-.4a87 87 0 0 1-3-.6v-.7l.2-1.8.4.1c.7.2 1.3.3 2 .2h1.4ZM32.4 103l-.1.6a1429.2 1429.2 0 0 1-4.3-.2h-.1l.1-.4H30a33.5 33.5 0 0 1 2.4 0Zm-.8 1.5h.5a2.2 2.2 0 0 0 0 .1v.5h-.6l-2 .6a41.2 41.2 0 0 0-2.5.9c-.2.8-.3 1.6-.2 2.4v1l.1 3.1c.2 1.7.2 3.4.2 5.2a177.3 177.3 0 0 0 0 10.4h.1v.1l.1.1h.1l.1.1.2.2.6.2a94.7 94.7 0 0 1 4.8.4H33.4l.1-.1-.2.5-.9 1.9-2.2-.2a41 41 0 0 0-4-.5 13.7 13.7 0 0 0 .3-4.5c-.3-1.7-.4-3.4-.3-5.1a273.2 273.2 0 0 0 0-17.3l.7-.1.3.1h.2a3.1 3.1 0 0 1 .3 0h.6c.5 0 1-.1 1.6 0h1.7Zm-3.7 2.7a91.3 91.3 0 0 0 4-1 40 40 0 0 1-.2 2 7.2 7.2 0 0 0 0 1.9v.4a18.6 18.6 0 0 0 .8 5c.6 1.2 1 2.5 1.4 3.8a15.5 15.5 0 0 1 .5 4.6h-.1a54.4 54.4 0 0 1-6 2.5c-.2-1.5-.2-3-.1-4.6a100.6 100.6 0 0 0-.3-10.9v-3.7Zm-3.6-4.8a2.2 2.2 0 0 0 0 .3H24v-.2l.1-.1Zm3.8 25.9v-.8l.8-.2a20.4 20.4 0 0 0 5.5-2.3 65.9 65.9 0 0 1 0 1H34l-.7.2-2 1-2 1.2-1.4-.1Zm5.7-1.1a2.6 2.6 0 0 0 .4-.2 16.5 16.5 0 0 1-.4 2.1.8.8 0 0 0-.1-.2l-.2-.1-.7-.2h-1.2l.5-.4 1.7-1Zm-13.3-24.9.4.1.2.4h-.4a18.6 18.6 0 0 0-1 0 7.2 7.2 0 0 1-.2-.2v-.1l.4-.1h.6ZM5.5 127.7l.7-1.2h.2l1.2-.1h.9v.1l-1 .6-1.1.7a5.6 5.6 0 0 1-1 .8l.1-.9Zm25 7.5Zm20.4-33Zm-21.2-90Z"/><path fill="#333" d="m6.2 126.5-.7 1.2-.1.9 1-.8 1-.7a13.7 13.7 0 0 0 1-.6l-.8-.1H6.4l-.2.1Zm42.8 4.2c-.5-.4-1-.5-1.6-.5a11.7 11.7 0 0 0-2 .4 3.4 3.4 0 0 0-.3.2l-.1.2-.1.2a29.6 29.6 0 0 0-.4 3l1.4.4a29 29 0 0 1 1.5.2h.2a4.7 4.7 0 0 0 .4-.1 26.7 26.7 0 0 1 1-.4l.3-.1a33.5 33.5 0 0 1-.2-3.1v-.3Zm25.2-13.6L73 117a15 15 0 0 1-2 0 .4.4 0 0 1 .1.2v.5l-.2.1a22.4 22.4 0 0 0-.2 1.7v.4h.8a13.3 13.3 0 0 1 1.9.2 7.4 7.4 0 0 1 1 0 18.5 18.5 0 0 0-.2-3Zm-33-33 1.2.5a12.7 12.7 0 0 1 2.7 2v-.5a30.9 30.9 0 0 0-.3-2.4c-1.2 0-2.4.2-3.5.5ZM35.2 87a4 4 0 0 1 .5-.5l2-1.4-1 .3c-1.3.2-2.6.3-4 .2-.6 0-1.3-.2-2-.4a53 53 0 0 1-3.6-1.6l-.1.6v.1a.5.5 0 0 1-.1.6l-.3.2H26.1l.4.6 1.2 1.7a9.2 9.2 0 0 1 1.3 5c0 1.4-.3 2.6-.7 3.8h1c.6.2 1.3.2 2 .1a162.1 162.1 0 0 1 1-4 95 95 0 0 1 1.5-3.3c.3-.7.7-1.4 1.2-2ZM23.3 2.7l-1.7-.1a3 3 0 0 0-1.4.4l-1 1-.8.7-.3.2v.4c0 .2-.1.3-.3.4h-.2l-.4.9-.2.8c0 .2-.2.2-.3.3a7.6 7.6 0 0 0 0 3.4c.3 1 .9 2 1.7 2.7a4.8 4.8 0 0 0 3.4 1c1.1 0 2.1-.4 2.8-1.4l.6-.6c.7-.9 1.3-1.8 1.7-2.8a5.3 5.3 0 0 0-1-6 4.9 4.9 0 0 0-2.6-1.3Zm11 7A10 10 0 0 0 33 6.4c-.2-.4-.5-.7-.9-.9L30.7 5a4.8 4.8 0 0 0-2.9 0 6.5 6.5 0 0 1 .7 2.5h.5c.1 0 .2 0 .3.2.5.7.7 1.4.8 2.3 0 1.3-.4 2.6-1.2 3.7a38.3 38.3 0 0 0-1.7 2.7 4.2 4.2 0 0 0 .3.1h.3l.2.1c1.1.2 2.2 0 3.3-.5 1-.4 1.6-1.2 2-2.2a112.5 112.5 0 0 0 1-4.2Zm-4.6 2.5ZM50 5.8l.1.4c.3 1.2.3 2.4-.1 3.5a78.8 78.8 0 0 1-.7 1.7 4.1 4.1 0 0 0-.2.3v.2a5 5 0 0 1-1.7 2.3h.1l.3.8c.7.1 1.4 0 2-.3h.2c1-1 1.8-2 2.3-3.2.5-1 .6-2.2.4-3.3A6.1 6.1 0 0 0 49.5 4c.3.5.5 1.1.6 1.8Zm-3.3-3.6c-.9-.6-2-1-3-1.1a5.5 5.5 0 0 0-4.2 1.4l-.1.1-.9 1a16.5 16.5 0 0 1-1 1.3c-.3 1.1-.5 2.2-.5 3.4.1 1.1.5 2.2 1.1 3.2.6 1 1.5 1.6 2.6 2 1 .4 2 .6 3 .7a6.4 6.4 0 0 0 3.4-1.2c.3-.2.5-.4.6-.7a8 8 0 0 1 .4-.9c.5-.9.8-2 1-3a4 4 0 0 0-.1-2.4l-.4-1.2c0-.2-.2-.4-.3-.5l-1.6-2.1Z"/><path fill="#CCC" d="M20.8 102.4h-1a2.4 2.4 0 0 1-.3 0l-.1.1v.1a4.6 4.6 0 0 0 .3.2 18.6 18.6 0 0 1 1.3 0l-.2-.4Zm13 24.7h-.1a173 173 0 0 1-2.2 1.4 37.7 37.7 0 0 1 2 .3v.1h.1a.9.9 0 0 1 0 .2 10.2 10.2 0 0 0 .5-2h-.3Zm-2.1-22.6h-1.9c-.6-.1-1.1 0-1.6 0h-.6a.3.3 0 0 1-.1 0H26.8v-.1h-.1l-.6.1a193.8 193.8 0 0 1 0 9.5 60.8 60.8 0 0 1-.1 7.8c-.1 1.7 0 3.4.3 5v1.5c0 1-.1 2-.4 3a114.9 114.9 0 0 0 6.3.8 115.3 115.3 0 0 0 1-2.3H33a90.4 90.4 0 0 0-5.4-.6l-.2-.2h-.1l-.1-.1a1.5 1.5 0 0 1-.1-.1v-.1a1.5 1.5 0 0 1-.1-.2 165 165 0 0 1 0-10.2c0-1.8 0-3.5-.2-5.2a28.7 28.7 0 0 1 .1-6.6h.1v-.1a.5.5 0 0 1 .2-.1l2.1-.6 2-.5h.7a21.8 21.8 0 0 0 0-.6H31.7Zm.5-1v-.5h-1a35.4 35.4 0 0 0-2.7 0H28l-.2.4a129.3 129.3 0 0 1 1.5-.1h.4l2 .2h.5Zm11.9 27h-1.4a6.2 6.2 0 0 1-2.4-.3 18.6 18.6 0 0 0-.2 2.6l1.5.1a86.6 86.6 0 0 0 2 .4c0-1 .2-1.8.5-2.8Zm2.4-13.2v-1.9c-.5.1-1 .1-1.6 0h-1.4l-1 .3a.4.4 0 0 1-.1 0c0 .5-.2 1-.3 1.4h1.5a64.7 64.7 0 0 1 3 .2Zm6.5 1a96.3 96.3 0 0 0-5.5 2.8 17.4 17.4 0 0 1-4.4 2.3l-2.4.7-.3 1.7a186.7 186.7 0 0 1 12.7-6.6c1-.4 1.8-.7 2.8-.8l-.1-.6-.1-.7c-.6.5-1.2.8-2 1l-.7.3Zm13 .8a59.8 59.8 0 0 1 3.7.4 8.8 8.8 0 0 1 0-1.7c-1.8 0-3.5-.1-5.2-.3l-5.1-.4a8 8 0 0 1-2.7-.6 39.4 39.4 0 0 0 .4 2h.7a37.5 37.5 0 0 0 1.5.3h3.4l3.4.3ZM54.4 101h-.7l-.1 1-.2 1.2v.4h.2l.2.2h.1a39.8 39.8 0 0 1 .4-2.8Zm-4.4-2.5a2 2 0 0 1-.8.1 11 11 0 0 1-.1 1 .5.5 0 0 1 .2 0H49.5a.4.4 0 0 1 .1 0h.1l.3.4a3.7 3.7 0 0 0 .6.6v.1a.5.5 0 0 1 .1.2v.1a1.6 1.6 0 0 1 0 .2l.1.5v.6a61.5 61.5 0 0 1 .1 10 139 139 0 0 1-.2 6 29.6 29.6 0 0 0 .4-.1c.2-1.8.3-3.6.2-5.3a41 41 0 0 1-.1-5 34.8 34.8 0 0 0-.3-6.5v-.2h.1v-.2h.1l-.1-.2a14.2 14.2 0 0 1-.5-.6 5.3 5.3 0 0 0 0-.2V99.5h.1a.5.5 0 0 1 .1-.1h.1l.1-.1H51.2l.1-.1.1-.1h.2V99h.2a19.6 19.6 0 0 1-.2-1l-1.7.3Zm1 3.8Zm-3.8-1-.2.2-.8.4-3 .3a4.3 4.3 0 0 0 3.5.4v-.2a1 1 0 0 1 .2-.2h.1v-.1h.5v.1h.1v.1a120.8 120.8 0 0 1 .2 10.6 71.2 71.2 0 0 1 0 5.2 45.5 45.5 0 0 1 2 0l.2-5a661.6 661.6 0 0 1-.2-11.2 5.5 5.5 0 0 1 0-.5v-.1a3 3 0 0 1-.5-.6l-.2-.3-.1-.1c0 .4-.4.7-.8.8a3.6 3.6 0 0 1-1 .1Zm2-10a.7.7 0 0 1 .2 0 132.1 132.1 0 0 0 3.2 5.8l.6 1.2a4.4 4.4 0 0 1 .5 1.7h.6l.6-.2h.2l.2-.5a3 3 0 0 1 .1-.5 49.3 49.3 0 0 1-6-9.8L49 91Zm.3-6.5v1.5a5 5 0 0 1 3 2c1.1 1.4 1.7 3 2 4.7a6.7 6.7 0 0 1-.2 2.7l.3.4v-3c0-1.8-.3-3.4-1-5a6.3 6.3 0 0 0-2.8-2.8 8.6 8.6 0 0 0-1-.5h-.2Zm-23.8 16a2 2 0 0 0-.3 1 24.4 24.4 0 0 0 0 1.4 1 1 0 0 1 0 .5h.2a.4.4 0 0 1 .2 0h.1l.1-.1H26.2l.1-.1h.1l.1-.1c.5-.4.6-1 .5-1.5a3 3 0 0 0-.6-1.2h-.1a1.5 1.5 0 0 0-.2 0h-.4v.1Zm-3.7-.2v1.3c0 .4.1.8.3 1.1v.1a4.7 4.7 0 0 1 .1.2.4.4 0 0 1 0 .2l-.1 5.4c-.2 1.7-.1 3.4 0 5.1.3 1.8.3 3.5.2 5.2a56.2 56.2 0 0 0 0 8.7l.1.1v.4a2.2 2.2 0 0 1-.1.2h-.1l-.1.1h-.4v.1h-.1c-1 0-2-.1-3-.4a35.7 35.7 0 0 0-3.2-.6 17 17 0 0 1 .4 2.5h.1l.1.1c1.8.5 3.5.6 5.2.6h1.3a131.4 131.4 0 0 0 2.5.2v-.1l.1-.1a19 19 0 0 0 0-5.2 22.9 22.9 0 0 1-.2-6 983.4 983.4 0 0 1 0-15.8h-.5l-.9-.2a2 2 0 0 1-.6-.2 1.3 1.3 0 0 1-.3-.4v-.1a5.3 5.3 0 0 0 0-.2l.3-.4.2-.4v-.9a48.6 48.6 0 0 0-.4-.7h-.2l-.2-.1a1.4 1.4 0 0 0-.4.2H22Z"/><path fill="#999" d="M28 127.5v.8h1.4l2-1a26.9 26.9 0 0 1 2.7-1.3h.1a15.7 15.7 0 0 0 0-1 23 23 0 0 1-6.1 2.5ZM49 119H47a88.4 88.4 0 0 0-4.7 2.2l-1 .4a22.1 22.1 0 0 1-.3 1.2 79 79 0 0 0 4.4-1.8l3.4-2Zm3.4-2.2v.7a103.3 103.3 0 0 0 2.5-1.3l-1-.2-.7.5-.7.3h-.1Z"/><path fill="#666" d="M46.6 97.1c-.3 0-.6 0-.9.2a67.5 67.5 0 0 1-1.3.3h-.1a223 223 0 0 1-2.6 3.5h1.8a14.5 14.5 0 0 0 2.6-.4c.3-.4.5-.8.5-1.3a28.8 28.8 0 0 1 .1-2.2Zm1.7-23.8V72l-1 1.6c-.6 1-1 2-1.3 3.2l-.3 2.1a267.2 267.2 0 0 0 0 4c.1 0 .2 0 .3.2a37 37 0 0 0 .5 5.3c.3 1.4.3 2.9 0 4.3a10 10 0 0 1-1.5 3.7c.7-.1 1.3-.2 2 0l.4.1c.5.4.7 1 .4 1.6v.7c0 .4-.1.9-.3 1.3a2.8 2.8 0 0 0 .5 0v-6.2c0-1.7 0-3.4.3-5.1.2-1.7.2-3.4 0-5V73.2ZM18.7 101v.1l.1.1a6.9 6.9 0 0 1 .6.2h.1a5.3 5.3 0 0 1 1.2-.1c0-.5.2-1 .5-1.5l.3-.3c1-.5 1.9-.2 2.4.8l.4 1c.2-1.2.8-1.8 2-1.8.5 0 1 .3 1.3.8.3.5.5 1 .5 1.6H31.9l-.7-2a6.3 6.3 0 0 1 0-2.7 14.6 14.6 0 0 1-3.3 0l-.3.1-.1.1c-.2.2-.3.3-.5.3a39.2 39.2 0 0 1-3.5.8h-2a36.3 36.3 0 0 0-2.8 2.5Z"/><path fill="#fff" d="M36 87.7a5 5 0 0 1-.5.4c0 .2-.2.3-.3.5a15 15 0 0 1-.3.7c-.5 1-1 2-1.4 3.2a17.2 17.2 0 0 0-1.2 4.4c-.3 1-.2 2 0 3l1 2.7a1 1 0 0 1 0 .7v.9c-.2.3-.2.7-.3 1v1c-.2.5-.2 1-.3 1.6a8.1 8.1 0 0 0 0 2 21.7 21.7 0 0 0 1 5.8 22.7 22.7 0 0 1 1.3 4.3 27.4 27.4 0 0 1 .3 5.5c0 1.3-.3 2.7-.7 4-.2 1-.6 2-1.2 3v.4a.9.9 0 0 1-.1.2h-.1v.1H32.8a69 69 0 0 0-1.9 3.7c1 .3 2.2.3 3.3.1H36a5 5 0 0 0 2-.2l.2-.1c.5-1 .8-2 .8-3.1v-1a97.2 97.2 0 0 1 .4-3.7 38.4 38.4 0 0 1 .4-5.8l1-4a390.3 390.3 0 0 0 1.1-8v-4a99 99 0 0 1-.5-2.6l-1-2.3c-.2-.3-.3-.5-.2-.7v-.2l.4-.4h.1a7 7 0 0 0 .2-.3l.2-.3 2.5-3.5c.9-1.1 1.4-2.4 1.8-3.8.2-1 .3-2 .2-3h-.2a.5.5 0 0 1-.2-.4V89a5.9 5.9 0 0 0-5.1-3.8 7.6 7.6 0 0 0-3.8 2l-.1.1-.3.4ZM18.5 85c-1.3.5-2.6 1.2-3.7 2-1.1.7-2 1.7-2.6 2.8l-.4.7-.4.1-.1.2h-.1a7.6 7.6 0 0 0-3.4 5c-.2 1-.2 1.9-.2 2.9.1 1.3 0 2.7-.2 4a153 153 0 0 1-.8 5.2 29 29 0 0 0 .2 2.8l1 4a32.6 32.6 0 0 1 1.4 6v.4l.3 3.1-.1 2.5c0 .2-.2.3-.3.4-.5.4-1 .8-1.7 1.1l-1.2.9-.8.6h-.2v.1H5c-.6.4-1.1.6-1.7.7-.8.2-1.5.6-2.2 1.2l-.1.2a1.4 1.4 0 0 0 0 .6 1.7 1.7 0 0 0 0 .3l.2.2c1.4.5 2.8.6 4.3.4.5 0 1-.3 1.6-.6l.4-.3c.6-.6 1.3-.9 2.2-.9 1.4 0 2.7 0 4-.4.8-.3 1.2-.8 1-1.6 0-.6-.2-1.2-.4-1.8l-.4-2a25.7 25.7 0 0 1 2.3-13.1 17.4 17.4 0 0 1 .4-1v-.2a8.7 8.7 0 0 0 .4-6.5c-.3-1-.8-1.9-1.4-2.7-.6-.7-1-1.5-1.3-2.4-.3-.3-.3-.5-.1-.7 0-.2 0-.3.2-.4h.7a1.1 1.1 0 0 1 0 .2h.1c.7.5 1.5.7 2.4.8h.7l.8-.8a15 15 0 0 1 2.2-1.6 43.4 43.4 0 0 0 3.6-.3 30.9 30.9 0 0 1 2.2-.8c0-.4.1-.7.3-1a5.3 5.3 0 0 0 .4-1.6 7 7 0 0 0-.3-4.3 12.8 12.8 0 0 0-3.3-5l-.2-.2h-.2a11.9 11.9 0 0 1-1-.4c-1.5.3-3 .7-4.3 1.2ZM26 59.7Zm18.4-44.5v.2c-.2 1.4-.7 2.7-1.3 4-.6 1.3-1.1 2.6-1.4 4a12.2 12.2 0 0 0 0 5.8c.3 1.3.2 2.6-.3 4l-.1.6a41.3 41.3 0 0 0 1.2 5.9L43 41a2.8 2.8 0 0 1 .1.6v1.9l-.2 1a207 207 0 0 0-.6 4.9l-.2.2h-.4c-.4-.2-.5-.6-.3-1.1l.1-.8A77.5 77.5 0 0 0 42 42a52 52 0 0 1-1.5-6.5c-.2-.6-.3-1-.3-1.6-.8-.4-1.7-.6-2.7-.6-.7 0-1.4.1-2 .3-1 .2-1.6.6-2 1.4-.7.8-1 1.8-1.2 2.8v.1c-.2 1.5 0 2.9.3 4.2a18.1 18.1 0 0 0 1.8 4.2l.2.3h.1v.1h.1c.9.1 1.7 0 2.5-.5a19 19 0 0 0 2.6-1.6h.4a.5.5 0 0 1 .3.7 6 6 0 0 1-2.1 1.5l-1 .4c-.7.5-1.6.6-2.4.6-.4 0-.6 0-1-.2v.1l-.2.2a1.9 1.9 0 0 1-1 .3h-.2c-.1.1-.3.2-.5.1a4 4 0 0 1-1-1.6l-.4-.7a14.3 14.3 0 0 0-2-3c-.3-.8-.5-1.6-.4-2.5a22 22 0 0 0-1.2-8 4 4 0 0 1-.2-1V31c-.3-.7-.4-1.5-.3-2.3.2-1.4.2-2.7.2-4-.1-1.5-.3-2.8-.8-4.1a8 8 0 0 1 0-4.7c.3-.9.7-1.6 1.3-2.3.8-.8 1.3-1.8 1.5-2.9a4 4 0 0 0-.2-2.3c0 .4-.1.7-.5 1l-.3 1c-.4 1-1 2-1.7 2.8-.7.9-1.5 1.6-2.5 2.2l-1 .4.2.3V17.4c-.3 1.3-.5 2.7-1 4l-.7 4a124.3 124.3 0 0 0-.4 6.1c-.2 1.4-.4 2.7-.8 4-.3 1.4-.6 2.7-.7 4-.2 1.5 0 2.8.7 4l1.5 2.7a13 13 0 0 1 1.3 3.5l.4 2a117.6 117.6 0 0 0 2.5 7 11 11 0 0 0 .2.6v.1c-.1.6 0 1 0 1.6a14.5 14.5 0 0 0 0-1.4l.6-2.5.1-.1c.4-.1.7 0 .8.4 0 .4 0 .8-.2 1.2A18.7 18.7 0 0 0 27 62c0 .6.2 1.1.6 1.6l2.4.3.5-.1c.6-.3 1-.8 1.2-1.4l.2-.4.7-1.2h.2c.3 0 .5 0 .5.3l.2-.3c.2-.3.5-.3.8 0l.2.3v.5l.2.3c.2.4.4.7.8 1 .5.5 1.2.8 2 1h.5a9 9 0 0 0 3.3.2l1-1a9.8 9.8 0 0 0 .5-2.2l.1-1.8c0-.6 0-1.3-.2-1.9v-1l.3-.2h.4l.3.2v.3a.7.7 0 0 1 0 .3c.3 1 .3 2.1.3 3.2a12 12 0 0 1-.8 3.4c-.5 1.2-1.4 1.8-2.6 1.8H39a11 11 0 0 1-3.2-.8 4.3 4.3 0 0 1-2.6-3 6.5 6.5 0 0 1-.5 1.3 9 9 0 0 1-.9 1.3c-.4.5-1 .9-1.7 1a3 3 0 0 1-.7 0 14.6 14.6 0 0 1-2.4-.5.7.7 0 0 1-.3-.3l-.4-.6a78.8 78.8 0 0 1 1.2 8c0 1.1 0 2.3-.5 3.5a9.4 9.4 0 0 0 0 5.9l.3 1.5L31 84c1.1.4 2.2.6 3.3.4a26.8 26.8 0 0 0 6-1.2 29.4 29.4 0 0 1 4.2-.6v-.8l.3-4.1c0-1.4.4-2.7 1.1-3.9l2.2-3.5a9.8 9.8 0 0 0 1.4-4v-.2a102 102 0 0 1 1-4.4c.5-1.2.6-2.5.4-3.9l-.4-4c-.1-1.4-.4-2.8-.9-4l-.5-2a4 4 0 0 1-.1-1v-.2a335.8 335.8 0 0 1 1-5.1 22.1 22.1 0 0 0-1.5-5.5 9.5 9.5 0 0 1-1-4c0-.8.3-1.7.6-2.5a6.6 6.6 0 0 0 .5-4.3 48 48 0 0 0-1.3-6 84.5 84.5 0 0 0-.6-4.5v-.3l-.2.1-2 .6Z"/></svg>