<svg width="348" height="146" viewBox="0 0 348 146" fill="none" xmlns="http://www.w3.org/2000/svg">
<path d="M2.99658 21.2295C2.99658 11.2884 11.0555 3.22949 20.9966 3.22949H325.997C335.938 3.22949 343.997 11.2884 343.997 21.2295V124.229C343.997 134.171 335.938 142.229 325.997 142.229H20.9966C11.0555 142.229 2.99658 134.171 2.99658 124.229V21.2295Z" fill="white"/>
<path d="M140.215 0.0419922C144.096 -0.0846862 147.977 0.0764473 151.856 0.510742C155.537 0.922947 159.224 1.03615 162.903 0.854492C166.767 0.663868 170.632 0.711939 174.497 0.995117C178.281 1.27269 182.072 1.54885 185.856 1.82324C189.644 2.09793 193.443 2.3821 197.231 2.66699C200.96 2.94731 204.69 3.06016 208.418 3.02637C212.093 2.99307 215.77 2.66173 219.45 2.01074C223.474 1.29888 227.505 1.31918 231.528 2.07324C235.152 2.75233 238.771 2.97288 242.387 2.74512C246.115 2.51008 249.846 2.11385 253.575 1.55762C257.431 0.982238 261.295 0.618042 265.153 0.463867C269.115 0.305677 273.077 0.66895 277.028 1.54199C280.569 2.32462 284.104 2.41574 287.637 1.83887C291.617 1.18952 295.608 1.14428 299.59 1.68262C303.201 2.17016 306.808 2.1734 310.418 1.71387C314.222 1.22925 318.054 0.807667 321.903 0.432617C326.142 0.0195795 330.19 0.862051 333.981 2.93262C337.804 5.02063 340.547 8.00593 342.09 11.8701C343.526 15.4665 344.358 19.2146 344.59 23.1045C344.803 26.6681 345.335 30.2973 346.184 33.9795C347.098 37.942 347.463 41.9252 347.262 45.9014C347.164 47.8445 346.992 49.7876 346.747 51.7295L345.325 60.2607C344.953 62.9755 344.854 65.6913 345.012 68.4014C345.23 72.1289 345.611 75.8598 346.153 79.5889C346.724 83.5232 346.838 87.4638 346.512 91.4014C346.206 95.0972 346.16 98.7999 346.356 102.495C346.56 106.348 346.566 110.204 346.372 114.058C346.181 117.827 346.033 121.641 345.934 125.495C345.821 129.844 344.275 133.686 341.356 136.948C338.511 140.127 335.046 142.376 330.981 143.667C327.081 144.906 323.136 145.571 319.153 145.651C315.207 145.73 311.26 145.339 307.325 144.479C303.732 143.695 300.14 143.461 296.559 143.776C292.736 144.113 288.913 144.341 285.09 144.448C281.181 144.558 277.261 144.304 273.356 143.698C269.766 143.141 266.179 143.113 262.59 143.62C258.653 144.176 254.703 144.286 250.762 143.933C247.085 143.603 243.407 143.57 239.731 143.839C236.005 144.111 232.271 144.543 228.543 145.151C224.427 145.823 220.31 145.475 216.231 144.12C212.855 143 209.513 143.002 206.137 144.12C202.012 145.487 197.853 145.688 193.7 144.729C190.135 143.907 186.58 143.722 183.028 144.151C179.115 144.625 175.193 144.714 171.278 144.433C167.517 144.163 163.757 143.961 159.997 143.823C156.216 143.685 152.433 143.57 148.653 143.464C145.056 143.363 141.454 143.764 137.84 144.667C133.742 145.692 129.613 145.702 125.512 144.714C121.927 143.851 118.347 143.573 114.778 143.854C110.924 144.158 107.07 144.256 103.215 144.151C99.4265 144.048 95.6292 143.939 91.8403 143.823C88.1507 143.711 84.4534 143.848 80.7622 144.261C76.825 144.7 72.8864 144.694 68.9497 144.214C65.3644 143.776 61.7742 143.86 58.1841 144.495C54.1451 145.211 50.0934 145.154 46.0591 144.308C42.3646 143.532 38.6701 143.024 34.981 142.776C31.2676 142.527 27.5805 142.475 23.9341 142.636C19.8606 142.815 16.1219 141.957 12.7935 140.011C9.63489 138.163 6.67811 135.728 3.91846 132.745C0.792963 129.365 -0.162565 125.285 1.05908 120.776C2.01745 117.241 2.03073 113.775 1.10596 110.339C0.00736438 106.258 -0.127251 102.152 0.699707 98.0576C1.40981 94.5398 1.39318 91.0299 0.652832 87.5107C-0.200124 83.4582 -0.219306 79.3925 0.605957 75.3389C1.34324 71.7195 1.6119 68.1049 1.40283 64.4951C1.17723 60.6054 1.25392 56.712 1.63721 52.8232C2.00679 49.0755 2.2709 45.3205 2.41846 41.5732C2.56453 37.86 2.5149 34.1462 2.26221 30.4326C2.0012 26.5977 1.87552 22.7429 1.90283 18.8701C1.93435 14.4263 3.75469 10.7995 7.30908 8.21387C10.4586 5.92281 13.5056 4.29183 16.4341 3.40137C17.7426 3.00341 18.6601 2.68483 19.231 2.44824C19.33 2.4072 19.4131 2.37026 19.481 2.33887C19.7557 2.01557 20.065 1.85413 20.1528 1.80762C20.4497 1.65043 20.7411 1.56545 20.9185 1.52637C21.3077 1.44089 21.7954 1.38667 22.2935 1.35449C23.3195 1.28852 24.7999 1.28317 26.6997 1.30762C30.4103 1.35543 34.1286 1.18252 37.8403 0.807617C41.8213 0.406024 45.8045 0.58843 49.7778 1.35449C53.2647 2.02653 56.7468 1.92008 60.2466 1.01074C64.3769 -0.0637376 68.528 -0.0212981 72.6528 1.13574C76.2908 2.15666 79.9233 2.71924 83.5435 2.83887C87.1552 2.95815 90.7786 2.61161 94.4028 1.79199C98.3493 0.900096 102.303 0.520003 106.262 0.651367C110.133 0.779853 114.004 1.14592 117.872 1.76074C121.412 2.32346 124.949 2.23045 128.497 1.47949C132.396 0.653418 136.309 0.169722 140.215 0.0419922ZM140.34 4.04199C136.674 4.16195 132.998 4.62303 129.325 5.40137C125.305 6.25213 121.274 6.35352 117.247 5.71387C113.543 5.12518 109.838 4.7745 106.137 4.65137C102.525 4.53147 98.9022 4.87858 95.2778 5.69824C91.3293 6.59111 87.3638 6.96976 83.4028 6.83887C79.4522 6.70769 75.5075 6.08316 71.5747 4.97949C68.1291 4.01297 64.7023 3.97582 61.2622 4.87012C57.1916 5.92906 53.0957 6.07931 49.0122 5.29199C45.4155 4.59899 41.82 4.42948 38.231 4.79199C34.3722 5.1815 30.5127 5.35727 26.6528 5.30762C24.771 5.28337 23.41 5.29851 22.5435 5.35449C22.3567 5.36658 22.2069 5.37341 22.0903 5.38574C21.9829 5.47182 21.9056 5.56852 21.8247 5.62012C21.5123 5.81869 21.1289 5.99936 20.7622 6.15137C20.0061 6.46451 18.9317 6.8216 17.5903 7.22949C15.2105 7.95368 12.5718 9.33677 9.66846 11.4482C7.16831 13.267 5.9272 15.6824 5.90283 18.8857C5.87606 22.6613 5.99229 26.4306 6.24658 30.167C6.50863 34.0209 6.57004 37.8753 6.41846 41.7295C6.26779 45.5556 5.99885 49.3883 5.62158 53.2139C5.25849 56.8966 5.18929 60.579 5.40283 64.2607C5.63254 68.2229 5.33296 72.1833 4.52783 76.1357C3.81139 79.6538 3.834 83.1634 4.57471 86.6826C5.42764 90.7351 5.44026 94.8007 4.62158 98.8545C3.91995 102.33 4.02672 105.802 4.96533 109.292C6.07867 113.428 6.07296 117.621 4.93408 121.823C4.05933 125.05 4.6997 127.694 6.85596 130.026C9.38325 132.758 12.0471 134.933 14.8247 136.558C17.4314 138.08 20.3936 138.784 23.7622 138.636C27.5578 138.469 31.3897 138.518 35.2466 138.776C39.124 139.037 42.9995 139.573 46.8716 140.386C50.4096 141.129 53.9476 141.184 57.481 140.558C61.4601 139.853 65.4501 139.743 69.4341 140.229C73.0654 140.673 76.694 140.698 80.3247 140.292C84.2038 139.859 88.0847 139.705 91.9653 139.823C95.7498 139.939 99.5402 140.048 103.325 140.151C107.038 140.252 110.751 140.147 114.465 139.854C118.465 139.539 122.466 139.864 126.45 140.823C129.921 141.659 133.383 141.644 136.856 140.776C140.814 139.787 144.788 139.353 148.762 139.464C152.553 139.57 156.346 139.685 160.137 139.823C163.947 139.963 167.765 140.175 171.575 140.448C175.23 140.71 178.886 140.625 182.543 140.183C186.563 139.697 190.584 139.915 194.59 140.839C198.007 141.628 201.426 141.463 204.872 140.323C209.067 138.933 213.302 138.93 217.497 140.323C220.988 141.483 224.449 141.777 227.903 141.214C231.745 140.587 235.59 140.12 239.434 139.839C243.328 139.554 247.228 139.599 251.122 139.948C254.754 140.274 258.392 140.181 262.028 139.667C266.01 139.104 270 139.127 273.981 139.745C277.645 140.313 281.306 140.55 284.965 140.448C288.712 140.343 292.468 140.122 296.215 139.792C300.205 139.441 304.191 139.705 308.168 140.573C311.805 141.368 315.449 141.724 319.075 141.651C322.659 141.579 326.219 140.98 329.762 139.854C333.146 138.779 336.019 136.923 338.387 134.276C340.677 131.715 341.847 128.775 341.934 125.386C342.034 121.5 342.179 117.656 342.372 113.854C342.559 110.137 342.554 106.416 342.356 102.698C342.15 98.8231 342.207 94.9478 342.528 91.0732C342.829 87.4401 342.712 83.8033 342.184 80.167C341.626 76.3258 341.237 72.4784 341.012 68.6357C340.781 64.6755 341.059 60.7116 341.856 56.7607C342.601 53.0711 343.075 49.3824 343.262 45.6982C343.444 42.1023 343.126 38.4953 342.293 34.8857C341.397 30.9979 340.833 27.1521 340.606 23.3545C340.399 19.8858 339.648 16.5527 338.372 13.3545C337.2 10.4196 335.13 8.10958 332.059 6.43262C328.958 4.74091 325.715 4.08362 322.293 4.41699C318.485 4.78813 314.697 5.20321 310.934 5.68262C306.974 6.18709 303.003 6.17097 299.043 5.63574C295.456 5.15131 291.868 5.20585 288.278 5.79199C284.24 6.45117 280.198 6.33834 276.168 5.44824C272.546 4.64762 268.92 4.3197 265.309 4.46387C261.598 4.61231 257.882 4.95662 254.168 5.51074C250.327 6.08388 246.48 6.50279 242.637 6.74512C238.686 6.99382 234.737 6.73408 230.793 5.99512C227.246 5.33006 223.699 5.32162 220.153 5.94824C216.259 6.63723 212.349 6.99103 208.45 7.02637C204.611 7.06102 200.772 6.9398 196.934 6.65137C193.15 6.3668 189.359 6.08199 185.575 5.80762C181.789 5.53313 178.001 5.25716 174.215 4.97949C170.51 4.70772 166.795 4.67155 163.09 4.85449C159.199 5.04638 155.308 4.91494 151.418 4.47949C147.727 4.06605 144.03 3.92134 140.34 4.04199ZM22.7778 4.51074C22.8918 4.28167 22.9966 4.00902 22.9966 3.66699C22.9966 4.0048 22.881 4.2783 22.7778 4.51074Z" fill="black"/>
<path d="M66.4482 47.5391C66.0264 47.5391 65.6616 47.3896 65.354 47.0908C65.0464 46.792 64.8926 46.4316 64.8926 46.0098C64.8926 45.5879 65.0464 45.2275 65.354 44.9287C65.6616 44.6299 66.0264 44.4805 66.4482 44.4805C66.8701 44.4805 67.2305 44.6299 67.5293 44.9287C67.8369 45.2275 67.9907 45.5879 67.9907 46.0098C67.9907 46.4316 67.8369 46.792 67.5293 47.0908C67.2305 47.3896 66.8701 47.5391 66.4482 47.5391ZM67.0415 58.2441C67.0415 58.7715 67.0547 59.5625 67.0811 60.6172C67.1162 61.6631 67.1338 62.4497 67.1338 62.9771C67.1338 63.3638 67.0151 63.6802 66.7778 63.9263C66.5405 64.1724 66.2285 64.2954 65.8418 64.2954C65.4639 64.2954 65.1519 64.1724 64.9058 63.9263C64.6685 63.6802 64.5498 63.3638 64.5498 62.9771C64.5498 62.4497 64.5322 61.6631 64.4971 60.6172C64.4707 59.5625 64.4575 58.7715 64.4575 58.2441C64.4575 57.418 64.5015 56.3896 64.5894 55.1592C64.6772 53.9199 64.7212 52.8872 64.7212 52.061C64.7212 51.6655 64.8398 51.3447 65.0771 51.0986C65.3232 50.8525 65.6353 50.7295 66.0132 50.7295C66.3911 50.7295 66.6987 50.8525 66.936 51.0986C67.1821 51.3447 67.3052 51.6655 67.3052 52.061C67.3052 52.8872 67.2612 53.9199 67.1733 55.1592C67.0854 56.3896 67.0415 57.418 67.0415 58.2441ZM95.3467 52.4302C94.6611 55.2954 93.7646 58.5342 92.6572 62.1465C92.4111 62.9463 92.0024 63.7681 91.4312 64.6118C91.1235 65.0776 90.7061 65.3062 90.1787 65.2974C89.2207 65.2798 88.4736 64.0889 87.9375 61.7246C87.7617 60.9688 87.5815 59.9404 87.397 58.6396L86.9619 55.6997L85.8809 58.2178L83.877 63.6626C83.7627 63.9966 83.5957 64.2515 83.376 64.4272C83.1123 64.937 82.6904 65.2007 82.1104 65.2183C81.4424 65.2446 80.7964 63.9351 80.1724 61.2896C79.856 59.9272 79.5396 58.0815 79.2231 55.7524L78.9067 53.7749C78.7925 52.9839 78.7354 52.3203 78.7354 51.7842C78.7354 51.415 78.8628 51.1118 79.1177 50.8745C79.3813 50.6284 79.6978 50.5054 80.0669 50.5054C80.7349 50.5054 81.1479 50.8701 81.3062 51.5996C81.4204 52.1182 81.5127 52.7598 81.583 53.5244L81.7808 55.4624L82.5586 61.3818C83.5342 58.6748 84.5449 55.5547 85.5908 52.0215C85.8809 51.0459 86.3862 50.5581 87.1069 50.5581C87.8013 50.5581 88.2715 51.103 88.5176 52.1929C88.7461 53.2212 89.0317 54.8032 89.3745 56.939C89.7261 59.1538 90.0381 60.8809 90.3105 62.1201L91.2729 58.5342L92.9736 51.3491C93.1055 50.813 93.4834 50.5449 94.1074 50.5449C94.4766 50.5449 94.7974 50.6724 95.0698 50.9272C95.3423 51.1733 95.4785 51.4722 95.4785 51.8237C95.4785 51.8677 95.4346 52.0698 95.3467 52.4302ZM100.567 47.5391C100.146 47.5391 99.7808 47.3896 99.4731 47.0908C99.1655 46.792 99.0117 46.4316 99.0117 46.0098C99.0117 45.5879 99.1655 45.2275 99.4731 44.9287C99.7808 44.6299 100.146 44.4805 100.567 44.4805C100.989 44.4805 101.35 44.6299 101.648 44.9287C101.956 45.2275 102.11 45.5879 102.11 46.0098C102.11 46.4316 101.956 46.792 101.648 47.0908C101.35 47.3896 100.989 47.5391 100.567 47.5391ZM101.161 58.2441C101.161 58.7715 101.174 59.5625 101.2 60.6172C101.235 61.6631 101.253 62.4497 101.253 62.9771C101.253 63.3638 101.134 63.6802 100.897 63.9263C100.66 64.1724 100.348 64.2954 99.9609 64.2954C99.583 64.2954 99.271 64.1724 99.0249 63.9263C98.7876 63.6802 98.6689 63.3638 98.6689 62.9771C98.6689 62.4497 98.6514 61.6631 98.6162 60.6172C98.5898 59.5625 98.5767 58.7715 98.5767 58.2441C98.5767 57.418 98.6206 56.3896 98.7085 55.1592C98.7964 53.9199 98.8403 52.8872 98.8403 52.061C98.8403 51.6655 98.959 51.3447 99.1963 51.0986C99.4424 50.8525 99.7544 50.7295 100.132 50.7295C100.51 50.7295 100.818 50.8525 101.055 51.0986C101.301 51.3447 101.424 51.6655 101.424 52.061C101.424 52.8872 101.38 53.9199 101.292 55.1592C101.205 56.3896 101.161 57.418 101.161 58.2441ZM108.965 53.8672L108.768 60.4194C108.768 61.1138 108.732 62.1333 108.662 63.478C108.574 64.3569 108.144 64.7964 107.37 64.7964C106.509 64.7964 106.078 64.3481 106.078 63.4517C106.078 62.3882 106.126 60.793 106.223 58.666C106.32 56.5303 106.368 54.9307 106.368 53.8672C106.368 52.4785 106.39 50.8921 106.434 49.1079C106.478 47.3149 106.5 45.7241 106.5 44.3354C106.5 43.4565 106.931 43.0171 107.792 43.0171C108.662 43.0171 109.097 43.4565 109.097 44.3354C109.097 45.7241 109.075 47.3149 109.031 49.1079C108.987 50.8921 108.965 52.4785 108.965 53.8672ZM116.375 53.8672L116.177 60.4194C116.177 61.1138 116.142 62.1333 116.071 63.478C115.983 64.3569 115.553 64.7964 114.779 64.7964C113.918 64.7964 113.487 64.3481 113.487 63.4517C113.487 62.3882 113.536 60.793 113.632 58.666C113.729 56.5303 113.777 54.9307 113.777 53.8672C113.777 52.4785 113.799 50.8921 113.843 49.1079C113.887 47.3149 113.909 45.7241 113.909 44.3354C113.909 43.4565 114.34 43.0171 115.201 43.0171C116.071 43.0171 116.506 43.4565 116.506 44.3354C116.506 45.7241 116.484 47.3149 116.44 49.1079C116.396 50.8921 116.375 52.4785 116.375 53.8672ZM137.323 52.9971C137.139 52.9971 136.919 52.9883 136.664 52.9707C136.418 52.9531 136.203 52.9443 136.018 52.9443C135.816 52.9443 135.218 53.0103 134.225 53.1421L134.476 60.9336L134.489 61.5137L134.502 62.186C134.537 64.1108 134.076 65.0732 133.118 65.0732C132.766 65.0732 132.458 64.959 132.195 64.7305C131.94 64.502 131.812 64.2163 131.812 63.8735C131.812 63.5396 131.826 63.0386 131.852 62.3706C131.878 61.7026 131.892 61.2017 131.892 60.8677L131.628 53.1685C130.986 53.1421 130.011 53.0674 128.701 52.9443C127.919 52.8389 127.528 52.4038 127.528 51.6392C127.528 51.2524 127.646 50.9316 127.884 50.6768C128.121 50.4219 128.424 50.2944 128.793 50.2944L131.562 50.5186C131.562 50.0703 131.54 49.4727 131.496 48.7256C131.461 47.9697 131.443 47.4248 131.443 47.0908C131.443 46.7217 131.571 46.4185 131.826 46.1812C132.081 45.9351 132.393 45.812 132.762 45.812C133.553 45.812 134.014 46.458 134.146 47.75C134.172 48.0752 134.186 48.4663 134.186 48.9233L134.159 49.688L134.146 50.5054C135.236 50.3647 135.86 50.2944 136.018 50.2944C136.932 50.2944 137.53 50.3384 137.811 50.4263C138.347 50.6021 138.615 51.0151 138.615 51.6655C138.615 52.0522 138.492 52.373 138.246 52.6279C138.009 52.874 137.701 52.9971 137.323 52.9971ZM151.496 54.4868C151.434 55.5854 150.995 56.1348 150.177 56.1348C149.421 56.1348 149.043 55.6997 149.043 54.8296C149.043 54.6626 149.03 54.355 149.004 53.9067L148.964 52.7993C147.576 52.9663 146.464 53.3574 145.629 53.9727C144.847 54.5439 144.196 55.4053 143.678 56.5566L143.704 63.7812C143.704 64.6689 143.269 65.1128 142.399 65.1128C141.625 65.1128 141.239 64.6689 141.239 63.7812V54.5264C141.239 54.2363 141.248 53.8013 141.265 53.2212C141.292 52.6411 141.305 52.2061 141.305 51.916C141.305 51.0283 141.691 50.5845 142.465 50.5845C143.326 50.5845 143.761 51.314 143.77 52.7729C145.458 51.147 147.33 50.334 149.386 50.334C150.098 50.334 150.63 50.6021 150.981 51.1382C151.333 51.6743 151.509 52.4829 151.509 53.564C151.509 54.021 151.504 54.3286 151.496 54.4868ZM164.508 65.0996C164.341 65.0996 164.038 64.9062 163.598 64.5195C163.203 64.1592 162.908 63.8384 162.715 63.5571C161.871 64.0142 161.128 64.3569 160.487 64.5854C159.845 64.8228 159.309 64.9414 158.878 64.9414C156.822 64.9414 155.323 64.3613 154.383 63.2012C153.495 62.1113 153.051 60.4414 153.051 58.1914C153.051 56.0645 153.781 54.2451 155.24 52.7334C156.708 51.2217 158.457 50.4658 160.487 50.4658C161.251 50.4658 162.108 50.6636 163.058 51.0591C164.253 51.5513 164.851 52.1445 164.851 52.8389C164.851 53.0762 164.763 53.2871 164.587 53.4717C164.499 53.8057 164.429 54.355 164.376 55.1196C164.332 55.8843 164.306 56.8643 164.297 58.0596C164.288 59.1494 164.363 60.0107 164.521 60.6436C164.609 61.0303 164.886 61.8037 165.352 62.9639C165.413 63.1221 165.514 63.355 165.655 63.6626L165.734 63.8867C165.734 64.2383 165.611 64.5283 165.365 64.7568C165.119 64.9854 164.833 65.0996 164.508 65.0996ZM161.766 55.937C161.766 55.5591 161.788 55.1504 161.832 54.7109C161.884 54.2627 161.959 53.7881 162.056 53.2871C161.73 53.1201 161.449 52.9971 161.212 52.918C160.983 52.8389 160.799 52.7993 160.658 52.7993C159.296 52.7993 158.118 53.3574 157.125 54.4736C156.141 55.5811 155.648 56.8599 155.648 58.3101C155.648 59.7515 155.903 60.8325 156.413 61.5532C156.923 62.2739 157.688 62.6343 158.707 62.6343C159.551 62.6343 160.267 62.4805 160.856 62.1729C161.172 62.0059 161.616 61.6719 162.188 61.1709C161.906 58.8418 161.766 57.0972 161.766 55.937ZM170.546 47.5391C170.124 47.5391 169.759 47.3896 169.452 47.0908C169.144 46.792 168.99 46.4316 168.99 46.0098C168.99 45.5879 169.144 45.2275 169.452 44.9287C169.759 44.6299 170.124 44.4805 170.546 44.4805C170.968 44.4805 171.328 44.6299 171.627 44.9287C171.935 45.2275 172.088 45.5879 172.088 46.0098C172.088 46.4316 171.935 46.792 171.627 47.0908C171.328 47.3896 170.968 47.5391 170.546 47.5391ZM171.139 58.2441C171.139 58.7715 171.152 59.5625 171.179 60.6172C171.214 61.6631 171.231 62.4497 171.231 62.9771C171.231 63.3638 171.113 63.6802 170.875 63.9263C170.638 64.1724 170.326 64.2954 169.939 64.2954C169.562 64.2954 169.25 64.1724 169.003 63.9263C168.766 63.6802 168.647 63.3638 168.647 62.9771C168.647 62.4497 168.63 61.6631 168.595 60.6172C168.568 59.5625 168.555 58.7715 168.555 58.2441C168.555 57.418 168.599 56.3896 168.687 55.1592C168.775 53.9199 168.819 52.8872 168.819 52.061C168.819 51.6655 168.938 51.3447 169.175 51.0986C169.421 50.8525 169.733 50.7295 170.111 50.7295C170.489 50.7295 170.796 50.8525 171.034 51.0986C171.28 51.3447 171.403 51.6655 171.403 52.061C171.403 52.8872 171.359 53.9199 171.271 55.1592C171.183 56.3896 171.139 57.418 171.139 58.2441ZM185.707 65.1655C184.951 65.1655 184.525 64.7524 184.428 63.9263L184.059 61.0391C183.936 60.0107 183.875 59.0483 183.875 58.1519C183.875 57.9058 183.888 57.4883 183.914 56.8994C183.949 56.3105 183.967 55.8931 183.967 55.647C183.967 53.7485 183.615 52.7993 182.912 52.7993C181.928 52.7993 180.987 53.3838 180.091 54.5527C179.282 55.6162 178.649 56.9609 178.192 58.5869C178.175 58.9297 178.135 59.3604 178.074 59.8789C178.021 60.3184 177.995 60.7446 177.995 61.1577C177.995 61.4214 178.021 61.8169 178.074 62.3442C178.126 62.8716 178.153 63.2671 178.153 63.5308C178.153 63.9263 178.03 64.2471 177.784 64.4932C177.546 64.7393 177.239 64.8623 176.861 64.8623C176.474 64.8623 176.162 64.7393 175.925 64.4932C175.688 64.2471 175.569 63.9263 175.569 63.5308C175.569 63.2671 175.538 62.8716 175.477 62.3442C175.424 61.8169 175.397 61.4214 175.397 61.1577C175.397 60.2524 175.459 59 175.582 57.4004C175.714 55.792 175.78 54.5352 175.78 53.6299C175.78 53.3486 175.762 52.9312 175.727 52.3774C175.701 51.8237 175.688 51.4062 175.688 51.125C175.688 50.7471 175.811 50.4395 176.057 50.2021C176.312 49.9561 176.624 49.833 176.993 49.833C177.801 49.833 178.245 50.4043 178.324 51.5469L178.364 53.0894C179.84 51.1206 181.356 50.1362 182.912 50.1362C184.318 50.1362 185.298 50.7559 185.852 51.9951C186.23 52.8213 186.437 54.043 186.472 55.6602V56.9917L186.458 58.2178C186.458 58.9473 186.551 59.8921 186.735 61.0522C186.929 62.2036 187.025 63.1396 187.025 63.8604C187.025 64.2471 186.898 64.5591 186.643 64.7964C186.397 65.0425 186.085 65.1655 185.707 65.1655ZM85.0371 103.1C84.6328 103.1 83.9912 102.66 83.1123 101.781C82.3037 102.168 81.5918 102.458 80.9766 102.651C80.3613 102.854 79.8384 102.955 79.4077 102.955C77.2896 102.955 75.6987 102.388 74.6353 101.254C73.5806 100.12 73.0532 98.4238 73.0532 96.165C73.0532 94.0469 73.8354 92.2363 75.3999 90.7334C76.9644 89.2217 78.8364 88.4658 81.0161 88.4658C81.8511 88.4658 82.8179 88.7031 83.9165 89.1777C85.2437 89.749 85.9072 90.4126 85.9072 91.1685C85.9072 91.4849 85.8062 91.7617 85.604 91.999C85.5161 92.3506 85.4458 92.7944 85.3931 93.3306C85.3491 93.8579 85.3271 94.4775 85.3271 95.1895C85.3271 96.8682 85.4458 98.0767 85.6831 98.8149C85.7095 98.894 85.9116 99.3511 86.2896 100.186C86.6323 100.942 86.8037 101.373 86.8037 101.478C86.8037 101.944 86.6235 102.331 86.2632 102.638C85.9116 102.946 85.5029 103.1 85.0371 103.1ZM81.7676 94.0557C81.7676 93.7744 81.7852 93.4536 81.8203 93.0933C81.8643 92.7241 81.9258 92.3154 82.0049 91.8672C81.8291 91.7793 81.6709 91.7178 81.5303 91.6826C81.3984 91.6387 81.2842 91.6167 81.1875 91.6167C79.9922 91.6167 78.9463 92.0869 78.0498 93.0273C77.1533 93.959 76.7051 95.04 76.7051 96.2705C76.7051 97.4482 76.916 98.3359 77.3379 98.9336C77.7598 99.5225 78.3926 99.8169 79.2363 99.8169C79.7812 99.8169 80.2954 99.729 80.7788 99.5532C81.271 99.3687 81.7324 99.1006 82.1631 98.749C81.8994 96.6572 81.7676 95.0928 81.7676 94.0557ZM97.9702 91.6167C97.7856 91.6167 97.5659 91.6123 97.311 91.6035C97.0649 91.5859 96.8496 91.5771 96.665 91.5771C96.3047 91.5771 95.8872 91.6123 95.4126 91.6826C95.5708 95.2334 95.6499 97.5537 95.6499 98.6436C95.6499 98.7578 95.6543 98.9731 95.6631 99.2896C95.6719 99.5972 95.6763 99.8477 95.6763 100.041C95.6763 102.062 95.0391 103.073 93.7646 103.073C93.2812 103.073 92.8638 102.924 92.5122 102.625C92.1255 102.309 91.9321 101.913 91.9321 101.438C91.9321 101.122 91.9453 100.647 91.9717 100.015C91.998 99.3818 92.0112 98.9072 92.0112 98.5908C92.0112 97.5273 91.9321 95.251 91.7739 91.7617C91.229 91.7354 90.4028 91.665 89.2954 91.5508C88.1968 91.4277 87.6475 90.8564 87.6475 89.8369C87.6475 89.3447 87.8145 88.9272 88.1484 88.5845C88.4824 88.2417 88.9131 88.0703 89.4404 88.0703C89.7656 88.0703 90.5127 88.123 91.6816 88.2285C91.6729 87.9473 91.6509 87.4814 91.6157 86.8311C91.5806 86.2686 91.563 85.8335 91.563 85.5259C91.563 85.0337 91.7432 84.625 92.1035 84.2998C92.4639 83.9746 92.8989 83.812 93.4087 83.812C94.7095 83.812 95.3599 84.9062 95.3599 87.0947L95.3335 88.1758C95.8784 88.0967 96.3223 88.0571 96.665 88.0571C97.6758 88.0571 98.3657 88.123 98.7349 88.2549C99.438 88.501 99.7896 89.0371 99.7896 89.8633C99.7896 90.3643 99.6182 90.7817 99.2754 91.1157C98.9326 91.4497 98.4976 91.6167 97.9702 91.6167ZM117.021 90.1665C117.662 89.5337 118.348 89.0635 119.077 88.7559C119.815 88.4395 120.602 88.2812 121.437 88.2812C122.94 88.2812 124.021 88.7031 124.68 89.5469C125.172 90.1797 125.471 91.1509 125.577 92.4604C125.621 93.5415 125.669 94.627 125.722 95.7168C125.862 97.1318 125.95 97.9932 125.985 98.3008C126.108 99.2764 126.258 100.129 126.434 100.858C126.478 101.043 126.5 101.206 126.5 101.346C126.5 101.838 126.311 102.243 125.933 102.559C125.563 102.884 125.128 103.047 124.627 103.047C123.74 103.047 123.164 102.607 122.9 101.729C122.689 101.017 122.496 100.015 122.32 98.7227C122.162 97.4834 122.083 96.4639 122.083 95.6641C122.083 95.4443 122.092 95.1147 122.109 94.6753C122.136 94.2271 122.149 93.8931 122.149 93.6733C122.149 93.0229 122.14 92.645 122.123 92.5396C122.043 92.0562 121.815 91.8145 121.437 91.8145C120.461 91.8145 119.578 92.2627 118.787 93.1592C118.383 93.6074 117.829 94.46 117.126 95.7168C117.126 98.8984 116.972 100.814 116.665 101.465C116.322 102.186 115.777 102.546 115.03 102.546C114.538 102.546 114.098 102.383 113.711 102.058C113.333 101.724 113.145 101.315 113.145 100.832C113.145 100.665 113.193 100.432 113.29 100.133C113.351 99.9399 113.404 98.7534 113.448 96.5737C113.404 94.8071 113.413 91.8672 113.474 87.7539L113.5 87.3188C113.553 86.2817 113.58 85.5874 113.58 85.2358C113.58 84.9634 113.536 84.5635 113.448 84.0361C113.369 83.5 113.329 83.0957 113.329 82.8232C113.329 82.3223 113.509 81.9136 113.87 81.5972C114.23 81.272 114.665 81.1094 115.175 81.1094C116.045 81.1094 116.629 81.5752 116.928 82.5068C117.095 83.0342 117.179 83.8428 117.179 84.9326C117.179 85.8115 117.152 86.7036 117.1 87.6089C117.047 88.4702 117.021 89.3228 117.021 90.1665ZM134.146 103.007C132.52 103.007 131.123 102.449 129.954 101.333C128.67 100.111 127.998 98.481 127.937 96.4419C127.875 94.4995 128.407 92.7681 129.532 91.2476C130.868 89.4546 132.727 88.5581 135.108 88.5581C136.866 88.5581 138.264 89.2612 139.301 90.6675C140.232 91.9331 140.698 93.502 140.698 95.374C140.698 97.4131 140.153 99.1533 139.063 100.595C137.842 102.203 136.203 103.007 134.146 103.007ZM134.937 92.0386C133.856 92.0298 133.003 92.522 132.379 93.5151C131.852 94.3501 131.588 95.3257 131.588 96.4419C131.588 97.4966 131.887 98.3052 132.485 98.8677C132.959 99.3159 133.513 99.54 134.146 99.54C134.911 99.54 135.574 99.2808 136.137 98.7622C136.778 98.1558 137.121 97.334 137.165 96.2969C137.279 93.4668 136.537 92.0474 134.937 92.0386ZM146.341 90.562C147.668 89.0239 148.925 88.2549 150.111 88.2549C151.465 88.2549 152.458 88.769 153.091 89.7974C153.627 89.3228 154.22 88.9668 154.871 88.7295C155.521 88.4922 156.224 88.3735 156.98 88.3735C158.703 88.3735 159.872 89.2305 160.487 90.9443C160.61 91.2959 160.799 92.4868 161.054 94.5171C161.3 95.9409 161.616 98.314 162.003 101.636C162.038 102.137 161.867 102.55 161.489 102.875C161.111 103.201 160.667 103.363 160.157 103.363C159.146 103.363 158.553 102.862 158.377 101.86C158.219 100.955 158.057 99.6763 157.89 98.0239C157.714 96.2134 157.569 94.9302 157.455 94.1743C157.217 92.6011 156.914 91.8145 156.545 91.8145C156.343 91.8145 155.881 92.0166 155.161 92.4209C154.44 92.8252 153.913 93.1724 153.579 93.4624C153.579 94.4644 153.697 95.9058 153.935 97.7866C154.181 99.7114 154.304 101.153 154.304 102.111C154.304 102.612 154.132 103.029 153.79 103.363C153.447 103.697 153.012 103.864 152.484 103.864C151.957 103.864 151.522 103.697 151.179 103.363C150.836 103.029 150.665 102.612 150.665 102.111C150.665 101.109 150.555 99.6367 150.335 97.6943C150.125 95.7432 150.019 94.2666 150.019 93.2646C150.019 92.7021 149.971 92.2539 149.874 91.9199C148.854 92.5088 147.831 93.4888 146.802 94.8599C146.758 94.9214 146.684 95.0137 146.578 95.1367C146.543 96.9121 146.525 98.3052 146.525 99.3159C146.525 99.562 146.517 99.896 146.499 100.318C146.481 100.731 146.473 101.039 146.473 101.241C146.473 101.715 146.279 102.089 145.893 102.361C145.541 102.616 145.106 102.744 144.587 102.744C143.84 102.744 143.335 102.418 143.071 101.768C142.887 101.329 142.794 100.63 142.794 99.6719V94.7676C142.794 94.3281 142.777 93.6865 142.742 92.8428C142.707 91.9902 142.689 91.3442 142.689 90.9048C142.689 90.1226 142.83 89.415 143.111 88.7822C143.454 87.9912 143.937 87.5957 144.561 87.5957C145.053 87.5957 145.493 87.7891 145.879 88.1758C146.266 88.5537 146.459 88.9712 146.459 89.4282C146.459 89.2437 146.42 89.6216 146.341 90.562ZM170.559 102.836C168.458 102.836 166.74 102.335 165.404 101.333C163.928 100.226 163.189 98.6655 163.189 96.6528C163.189 94.4292 163.774 92.5483 164.943 91.0103C166.244 89.3052 167.997 88.4526 170.203 88.4526C171.732 88.4526 173.002 88.6987 174.013 89.1909C175.34 89.8413 176.004 90.8521 176.004 92.2231C176.004 93.1899 175.463 94.0469 174.382 94.7939C173.89 95.1367 172.901 95.6377 171.416 96.2969L166.973 98.2612C167.395 98.7183 167.905 99.061 168.502 99.2896C169.1 99.5181 169.786 99.6323 170.559 99.6323C171.737 99.6323 172.734 99.3906 173.552 98.9072C174.281 98.4766 174.866 98.2612 175.305 98.2612C176.219 98.2612 176.676 98.7051 176.676 99.5928C176.676 100.595 175.942 101.412 174.475 102.045C173.244 102.572 171.939 102.836 170.559 102.836ZM170.203 91.6431C169.386 91.6431 168.687 91.9155 168.107 92.4604C167.527 93.0054 167.061 93.8228 166.709 94.9126C167.703 94.4819 168.691 94.0557 169.676 93.6338C170.862 93.0977 171.807 92.6011 172.51 92.144C171.921 91.8101 171.152 91.6431 170.203 91.6431Z" fill="black"/>
<path d="M291.124 20.724C290.965 20.6737 290.802 20.636 290.634 20.6109C290.014 20.5271 289.415 20.3868 288.837 20.1899C288.23 19.9805 287.618 19.794 287.002 19.6307C286.571 19.5134 286.177 19.3228 285.821 19.0589C285.197 18.5981 284.518 18.3216 283.785 18.2295C283.676 18.2672 283.578 18.3237 283.49 18.3991C283.184 18.6714 282.843 18.8746 282.466 19.0086C282.164 19.1217 281.915 19.3019 281.718 19.549C281.341 20.0265 281.018 20.5376 280.75 21.0821C280.164 22.255 279.866 23.4929 279.858 24.7956C279.857 24.8959 279.862 24.9923 279.871 25.0846C279.759 25.1102 279.646 25.1416 279.531 25.1789C278.438 25.1119 277.322 25.3067 276.182 25.7632C275.604 25.9978 275.012 26.1696 274.404 26.2785C273.302 26.4712 272.285 26.8628 271.35 27.4535C270.291 28.1237 269.384 28.9615 268.63 29.9668C267.867 30.9805 267.365 32.1178 267.122 33.3787C266.929 34.3714 266.816 35.3705 266.782 36.3758C266.753 37.3644 266.858 38.3321 267.097 39.2788C267.138 39.4463 267.164 39.6139 267.172 39.7814C267.218 40.9878 267.013 42.1607 266.556 43.3001C266.485 43.476 266.405 43.6457 266.317 43.8091C266.012 44.3829 265.968 44.9443 266.185 45.493C266.261 45.5642 266.345 45.6208 266.437 45.6626C266.671 45.7757 266.923 45.8532 267.191 45.8951C267.467 45.937 267.744 45.9852 268.02 46.0397C268.045 46.1234 268.073 46.2093 268.102 46.2973C268.378 47.135 268.741 47.9393 269.189 48.7101C269.273 48.8525 269.342 48.9991 269.396 49.1499C269.706 50.0547 270.284 50.6977 271.13 51.0789C271.218 51.1711 271.304 51.2674 271.388 51.3679C271.66 51.6947 272.004 51.9146 272.419 52.0277C272.812 52.1366 273.214 52.1932 273.625 52.1973C274.228 52.189 274.831 52.1659 275.435 52.1282C275.549 52.1211 275.662 52.1127 275.774 52.1031C275.665 52.5319 275.596 52.9739 275.567 53.4289C275.501 54.4716 275.574 55.5021 275.786 56.5203C274.938 57.0477 274.169 57.6782 273.48 58.4116C273.145 58.7676 272.84 59.1488 272.563 59.5552C271.859 60.5982 271.363 61.7355 271.074 62.967C271.019 63.189 270.996 63.4152 271.005 63.6456C271.033 64.4728 271.077 65.3001 271.137 66.1276C271.017 66.1745 270.934 66.273 270.885 66.4229C270.802 66.691 270.753 66.9716 270.741 67.2648C270.703 68.5299 270.657 69.7949 270.603 71.06C270.544 72.3083 270.578 73.5587 270.703 74.8112C270.737 75.117 270.785 75.4186 270.848 75.716C271.103 76.9433 271.407 78.1602 271.759 79.3666C271.84 79.6402 271.949 79.8873 272.086 80.108C272.083 80.1583 272.089 80.2023 272.104 80.24C272.084 80.3827 272.049 80.5189 271.998 80.6484C271.8 81.1541 271.662 81.6672 271.583 82.1878C271.288 81.5404 270.967 80.8933 270.622 80.2463C270.265 79.5886 269.832 78.9917 269.321 78.4555C268.42 77.5214 267.423 76.6962 266.33 75.9799C265.928 75.716 265.513 75.4751 265.086 75.2573C263.926 74.6708 262.761 74.0907 261.592 73.5168C260.445 72.9555 259.309 72.3711 258.187 71.7637C257.382 71.3323 256.591 70.8778 255.812 70.4002C255.041 69.9353 254.26 69.4892 253.468 69.0619C252.383 68.4713 251.239 68.0209 250.037 67.711C248.684 67.3633 247.308 67.1476 245.909 67.0638C244.644 66.9884 243.392 67.0784 242.152 67.334C240.97 67.5811 239.904 68.0796 238.953 68.8294C238.484 69.198 238.032 69.5897 237.596 70.0044C236.968 70.6076 236.342 71.2129 235.717 71.8203C234.792 72.7209 234 73.7262 233.342 74.8363C233.15 75.1611 233.062 75.4962 233.078 75.8416C232.509 76.5301 231.952 77.2318 231.407 77.9466C230.628 78.9728 229.88 79.9447 229.164 80.862C228.393 81.8464 227.553 82.7659 226.644 83.6204C226.406 83.8424 226.169 84.0645 225.934 84.2865C225.243 84.9357 224.634 85.6583 224.106 86.4542C223.398 87.5224 222.682 88.5864 221.957 89.6462C221.266 90.6599 220.51 91.6673 219.689 92.6685C218.868 93.678 218.026 94.6708 217.163 95.6468C216.279 96.6479 215.393 97.6512 214.505 98.6565C214.174 99.0335 213.822 99.3896 213.449 99.7247C212.821 100.299 212.165 100.843 211.483 101.358C210.959 101.756 210.433 102.15 209.905 102.54C209.394 102.917 208.913 103.323 208.46 103.759C207.505 104.676 206.502 105.537 205.451 106.341C205.471 106.324 205.492 106.308 205.513 106.291C205.534 106.274 205.555 106.257 205.576 106.241C204.952 106.71 204.326 107.179 203.697 107.648C203.572 107.744 203.434 107.813 203.283 107.855C202.378 108.107 201.461 108.312 200.531 108.471C199.257 108.689 198.072 109.137 196.974 109.816C196.141 110.339 195.278 110.806 194.386 111.217C193.891 111.447 193.477 111.77 193.141 112.185C192.777 112.633 192.67 113.135 192.821 113.693C193.123 114.807 193.86 115.423 195.033 115.54C195.217 115.557 195.401 115.555 195.586 115.534C196.57 115.421 197.552 115.314 198.533 115.213C198.637 115.255 198.736 115.31 198.828 115.377C199.04 115.527 199.266 115.653 199.506 115.754C199.152 115.884 198.788 115.961 198.413 115.986C195.669 116.175 193.001 116.681 190.408 117.507C190.362 117.553 190.32 117.601 190.282 117.651C190.241 117.697 190.205 117.745 190.176 117.796C190.142 117.85 190.111 117.905 190.081 117.959C189.968 118.386 189.968 118.816 190.081 119.247C190.454 120.68 191.114 121.964 192.061 123.099C193.032 124.263 194.239 125.051 195.68 125.461C195.718 125.47 195.753 125.47 195.787 125.461C199.494 124.854 203.23 124.469 206.996 124.305C208.048 124.259 209.086 124.343 210.113 124.557C212.082 124.967 214.006 124.921 215.887 124.418C216.235 124.322 216.465 124.117 216.578 123.803C217.173 122.123 217.456 120.368 217.427 118.537C217.489 118.42 217.559 118.307 217.634 118.198C217.839 117.9 218.042 117.601 218.243 117.299C218.31 117.201 218.377 117.109 218.445 117.023C219.374 116.637 220.302 116.221 221.228 115.772C221.81 115.488 222.378 115.188 222.931 114.874C225.432 113.437 228.001 112.128 230.641 110.947C233.33 109.745 235.858 108.299 238.225 106.611C238.61 106.335 238.935 106.006 239.198 105.625C240.792 103.338 241.711 100.881 241.957 98.2544C243.316 101.026 244.891 103.67 246.682 106.184C247.067 106.72 247.511 107.191 248.014 107.598C250.779 109.845 253.774 111.738 256.999 113.278C257.356 113.711 257.702 114.153 258.036 114.604C258.193 114.818 258.353 115.029 258.513 115.238C258.494 115.291 258.476 115.343 258.457 115.395C258.457 115.425 258.459 115.452 258.463 115.477C258.467 115.506 258.474 115.534 258.482 115.559C258.49 115.584 258.499 115.609 258.507 115.634C258.52 115.659 258.532 115.684 258.545 115.71C258.557 115.731 258.572 115.754 258.589 115.779C258.606 115.8 258.625 115.818 258.645 115.835C258.662 115.856 258.681 115.875 258.702 115.892C258.727 115.909 258.75 115.921 258.771 115.929C258.821 115.955 258.872 115.978 258.922 115.999C258.947 116.007 258.974 116.011 259.004 116.011C259.043 116.014 259.083 116.014 259.123 116.011C260.081 117.197 261.106 118.319 262.196 119.379C263.004 120.167 263.819 120.946 264.64 121.716C266.91 123.849 269.595 124.98 272.695 125.109C273.03 125.126 273.367 125.124 273.707 125.103C276.438 124.944 279.058 124.335 281.567 123.275C284.026 122.24 286.179 120.772 288.026 118.87C288.466 118.418 288.716 118.148 288.774 118.06C289.918 116.79 290.594 115.314 290.804 113.63C290.929 112.608 291.063 111.588 291.206 110.57C291.459 108.76 291.312 107.026 290.766 105.367C290.945 105.177 291.121 104.982 291.294 104.783C291.349 104.773 291.401 104.752 291.451 104.72C291.476 104.707 291.499 104.693 291.52 104.676C291.541 104.659 291.56 104.64 291.577 104.619C291.597 104.603 291.616 104.584 291.633 104.563C291.65 104.542 291.667 104.519 291.683 104.494C291.696 104.464 291.706 104.433 291.715 104.4C291.731 104.351 291.742 104.3 291.746 104.249C293.353 102.31 294.685 100.174 295.742 97.8397C296.94 95.1965 298.084 92.5261 299.173 89.8284C300.689 86.0747 301.48 82.223 301.548 78.2733C301.79 78.0586 302.001 77.8114 302.183 77.5319C302.644 76.8239 303.042 76.0825 303.377 75.3075C303.444 75.1567 303.595 74.7525 303.829 74.0949C304.834 71.3092 305.19 68.4503 304.897 65.5181C304.583 62.3638 304.204 59.2347 303.76 56.1307C303.743 56.1098 303.724 56.0888 303.703 56.0679L303.697 56.0616C303.578 55.4616 303.425 54.8668 303.238 54.2771C303.117 53.8959 303.033 53.5064 302.987 53.1084C302.845 51.8769 302.763 50.637 302.742 49.3887C302.734 49.0661 302.725 48.7415 302.717 48.4148C302.675 47.3005 302.48 46.2156 302.133 45.16C301.743 43.9829 301.462 42.7807 301.291 41.5533C301.414 41.292 301.387 41.0637 301.209 40.8684C301.211 40.6968 301.194 40.5208 301.159 40.3406C301.012 39.6034 300.652 38.9583 300.078 38.4054C299.579 37.9278 299.15 37.4 298.79 36.822C298.12 35.7412 297.324 34.7589 296.402 33.8751C296.054 33.5399 295.749 33.1755 295.485 32.7818C295.317 32.522 295.148 32.2623 294.976 32.0026C294.486 31.2696 294.174 30.4674 294.04 29.5961C294.077 29.3825 294.109 29.1688 294.134 28.9552C294.201 28.3101 294.255 27.665 294.297 27.0199C294.389 25.692 294.199 24.4081 293.725 23.1682C293.248 21.9325 292.381 21.1177 291.124 20.724ZM290.785 21.943C291.053 22.0309 291.296 22.1671 291.514 22.3514C292.381 23.0886 292.865 24.0437 292.965 25.2166C293.051 25.9373 293.07 26.6599 293.022 27.3844C292.992 27.8535 292.936 28.3185 292.852 28.7793C292.735 29.3992 292.764 30.0171 292.94 30.6328C293.007 30.8632 293.097 31.0832 293.21 31.2926C293.445 31.7157 293.667 32.1492 293.876 32.5933C294.144 33.1588 294.498 33.6572 294.938 34.0887C295.287 34.43 295.623 34.7819 295.943 35.1443C295.947 35.1887 295.961 35.2306 295.987 35.27C296.385 35.8438 296.561 36.4806 296.515 37.1801C296.452 38.1687 296.429 39.151 296.446 40.127C296.456 40.2757 296.452 40.4244 296.434 40.5731C296.367 41.1721 296.216 41.7502 295.981 42.3073C295.751 42.8546 295.504 43.3928 295.24 43.9222C295.243 43.919 295.245 43.9149 295.246 43.9096C295.254 43.8928 295.261 43.8761 295.265 43.8593C295.231 43.9389 295.196 44.0185 295.158 44.0981C295.12 44.1902 295.099 44.2845 295.095 44.3808C295.083 44.7997 295.137 45.2228 295.259 45.6501C295.376 46.0648 295.535 46.4606 295.736 46.8376C295.732 46.9507 295.728 47.0638 295.724 47.1769C295.715 47.4199 295.713 47.6608 295.717 47.8995C295.717 48.1341 295.677 48.3603 295.598 48.5781C295.552 48.6075 295.506 48.6368 295.46 48.6661C295.355 48.7373 295.254 48.8169 295.158 48.9049C295.028 49.0222 294.898 49.1436 294.768 49.2693C294.182 49.4536 293.853 49.8557 293.782 50.4757C293.732 50.949 293.891 51.3302 294.26 51.6193C295.198 52.3523 296.172 53.0372 297.181 53.6739C298.249 54.3525 299.301 55.0563 300.336 55.7851C300.453 55.8522 300.576 55.8794 300.706 55.8668C300.857 55.8543 300.987 55.7956 301.096 55.6909C301.23 55.5485 301.293 55.3788 301.284 55.1819C301.28 55.1652 301.276 55.1484 301.272 55.1317C301.263 55.0982 301.253 55.0667 301.24 55.0374C301.232 55.0081 301.222 54.9788 301.209 54.9495C301.016 54.7065 300.784 54.4971 300.511 54.3211C299.632 53.7514 298.748 53.1838 297.86 52.6183C296.917 52.0151 295.992 51.3868 295.083 50.7333C295.07 50.7208 295.06 50.7061 295.051 50.6893C295.043 50.6768 295.039 50.6621 295.039 50.6454C295.039 50.6286 295.039 50.6118 295.039 50.5951C295.043 50.5783 295.047 50.5637 295.051 50.5511C295.055 50.5302 295.066 50.5113 295.083 50.4946C295.091 50.4904 295.102 50.4862 295.114 50.482C295.177 50.461 295.236 50.4317 295.29 50.394C295.6 50.1888 295.904 49.973 296.201 49.7468C296.398 49.596 296.545 49.4075 296.641 49.1813C296.922 48.5279 297.043 47.8388 297.005 47.1141C297.001 46.9801 296.978 46.8523 296.936 46.7308C296.685 46.0313 296.475 45.3213 296.308 44.6008C296.333 44.5379 296.358 44.4772 296.383 44.4185C296.404 44.3661 296.425 44.3137 296.446 44.2615C296.451 44.2577 296.455 44.2514 296.459 44.2426C296.46 44.2397 296.46 44.2355 296.459 44.23C296.462 44.2299 296.464 44.2278 296.465 44.2238C296.857 43.5962 297.167 42.9302 297.395 42.2256C297.609 41.5722 297.692 40.9041 297.646 40.2213C297.604 39.5468 297.64 38.8724 297.753 38.198C297.787 37.9937 297.808 37.7905 297.816 37.5885C298.494 38.4966 299.189 39.3889 299.902 40.2652C299.902 40.4202 299.906 40.5752 299.915 40.7302C299.919 40.8894 299.936 41.0465 299.965 41.2015C299.948 41.2811 299.933 41.3606 299.921 41.4402C299.9 41.591 299.933 41.7293 300.021 41.8549C300.059 41.9082 300.101 41.9542 300.147 41.9932C300.266 43.0135 300.488 44.0125 300.813 44.9903C301.224 46.2177 301.437 47.4827 301.454 48.7855C301.453 48.7797 301.451 48.7734 301.448 48.7666C301.56 49.6782 301.602 50.5935 301.573 51.5125C301.561 51.9858 301.603 52.455 301.699 52.9199C301.917 54.0007 302.164 55.0772 302.44 56.1496C302.52 56.4596 302.577 56.7737 302.61 57.0921C302.643 57.4327 302.712 57.7574 302.817 58.066C302.948 59.8651 303.195 61.6621 303.559 63.4571C303.902 65.1536 304.02 66.8585 303.911 68.5718C303.68 72.1952 302.417 75.2887 300.122 77.8523C300.109 77.8733 300.095 77.8963 300.078 77.9214C300.065 77.9424 300.055 77.9654 300.047 77.9905C300.034 78.0157 300.023 78.0429 300.015 78.0722C300.007 78.1016 300 78.133 299.996 78.1665C299.996 78.2335 300.003 78.2984 300.015 78.3613C300.036 78.4869 300.091 78.5937 300.178 78.6817C300.254 78.7571 300.344 78.8095 300.449 78.8388C300.267 80.6196 299.934 82.3832 299.45 84.1294C298.423 87.8366 297.19 91.483 295.749 95.0687C294.527 98.1034 292.904 100.891 290.879 103.432C290.818 103.417 290.755 103.402 290.691 103.388C288.956 102.626 287.216 101.874 285.469 101.132C283.228 100.181 281.029 99.1424 278.872 98.0156C278.189 97.6596 277.527 97.2721 276.886 96.8532C274.936 95.5706 273.104 94.1506 271.388 92.5931C271.594 92.1872 271.805 91.7851 272.023 91.3867C272.592 90.3394 272.863 89.2273 272.833 88.0502C272.829 87.8868 272.844 87.7256 272.877 87.5664C273.007 86.9579 273.064 86.3505 273.047 85.7442C272.963 85.5691 272.926 85.3639 272.934 85.1284C272.937 85.042 272.947 84.9499 272.965 84.852C272.939 84.6683 272.906 84.484 272.865 84.299C272.876 84.2781 272.887 84.2551 272.896 84.2299C272.967 84.0163 272.936 83.8194 272.802 83.6393C272.781 83.612 272.76 83.5848 272.739 83.5576C272.703 83.0385 272.785 82.5253 272.984 82.0182C273.079 81.7732 273.153 81.5239 273.204 81.2705C273.297 81.3419 273.391 81.409 273.487 81.4715L273.732 80.1394C273.635 80.0718 273.538 80.0027 273.443 79.9321C273.41 79.7873 273.357 79.647 273.286 79.5111C273.059 79.0797 272.869 78.6335 272.714 78.1728C272.308 76.9622 272.05 75.7222 271.941 74.453C271.832 73.1921 271.807 71.9292 271.866 70.6641C271.919 69.6067 271.969 68.5469 272.016 67.4848C272.086 67.4607 272.157 67.4251 272.23 67.3779C272.326 67.3151 272.377 67.2271 272.381 67.114C272.423 66.2386 272.398 65.3631 272.305 64.4876C272.188 63.3775 272.396 62.3136 272.928 61.2957C273.141 60.8851 273.392 60.5039 273.682 60.1521C274.47 59.1965 275.348 58.3399 276.314 57.5822C276.471 57.6401 276.657 57.615 276.873 57.5068C277.003 57.4439 277.072 57.3434 277.081 57.2052C277.127 56.7025 277.098 56.1977 276.993 55.6909C276.746 54.4468 276.771 53.2027 277.068 51.9586C277.073 51.9385 277.077 51.9175 277.081 51.8957C277.844 51.7296 278.585 51.4782 279.305 51.1417C279.448 51.0747 279.575 50.9867 279.688 50.8778C280.04 50.5302 280.021 50.2034 279.632 49.8976C279.536 49.8264 279.437 49.8118 279.337 49.8537C278.39 50.239 277.41 50.526 276.396 50.7145C276.057 50.7731 275.717 50.8339 275.378 50.8967C274.314 51.0852 273.302 50.9805 272.343 50.5825C272.293 50.5197 272.245 50.4569 272.199 50.394C272.056 50.2055 271.876 50.0631 271.658 49.9668C271.432 49.862 271.231 49.7259 271.055 49.5583C271.001 49.4285 270.94 49.3028 270.873 49.1813C270.743 48.9342 270.613 48.6891 270.483 48.4462C270.366 48.2367 270.291 48.1069 270.257 48.0566C270.274 48.0943 270.249 48.0545 270.182 47.9372C269.792 47.267 269.495 46.5591 269.289 45.8135C269.235 45.6166 269.137 45.4469 268.994 45.3045C268.567 44.8772 268.035 44.6573 267.398 44.6447C267.469 44.4562 267.541 44.2656 267.612 44.073C268.06 42.8791 268.355 41.6455 268.498 40.3721C268.548 39.8861 268.498 39.4107 268.347 38.9457C268.15 38.3467 268.047 37.7268 268.039 37.0859C268.022 35.8292 268.148 34.5893 268.416 33.3661C268.621 32.411 269.013 31.546 269.591 30.7711C270.32 29.7867 271.214 28.9887 272.274 28.3771C272.953 27.9834 273.679 27.7174 274.454 27.5791C274.928 27.4954 275.384 27.3634 275.824 27.1833C276.884 26.7518 277.979 26.5068 279.11 26.4481C279.648 26.4198 280.186 26.3612 280.725 26.2722C280.73 26.2748 280.734 26.2769 280.738 26.2785C281.039 26.4251 281.358 26.5026 281.693 26.511C282.17 26.5235 282.642 26.5906 283.107 26.712C284.405 27.0513 285.632 27.5687 286.789 28.264C287.069 28.4316 287.306 28.6452 287.499 28.9049C288.039 29.6087 288.563 30.325 289.069 31.0538C289.681 31.9335 290.098 32.8844 290.32 33.9065C290.06 34.6479 289.746 35.3642 289.377 36.0554C289.336 36.1316 289.296 36.207 289.258 36.2816C289.25 36.2624 289.241 36.2415 289.233 36.2188C289.226 36.1993 289.217 36.1783 289.208 36.1559C289.196 36.1799 289.184 36.2029 289.17 36.225C288.885 36.69 288.628 37.1654 288.397 37.6514C288.343 37.6891 288.286 37.7247 288.228 37.7582C288.169 37.7917 288.11 37.8231 288.052 37.8524C288.001 37.8776 287.949 37.9027 287.894 37.9278C287.744 37.9278 287.593 37.9299 287.442 37.9341C287.3 37.9341 287.17 37.9634 287.053 38.0221C286.966 38.0674 286.88 38.1072 286.795 38.1415V38.1477C285.986 38.1645 285.283 38.4452 284.684 38.9897C283.171 40.3804 282.005 42.0057 281.184 43.8656C280.3 45.8595 280.403 47.8074 281.492 49.7091C281.99 52.6874 282.42 55.6741 282.78 58.6692C282.922 59.8714 283.293 60.994 283.892 62.0371C285.53 64.9065 287.838 67.1057 290.816 68.6346C290.85 68.6514 290.883 68.6681 290.917 68.6849C290.95 68.6975 290.984 68.7058 291.017 68.71C291.051 68.7184 291.086 68.7226 291.124 68.7226C291.149 68.7226 291.177 68.7226 291.206 68.7226C291.231 68.7142 291.258 68.7058 291.288 68.6974C291.338 68.6807 291.388 68.6577 291.438 68.6283C291.484 68.6032 291.528 68.5718 291.57 68.5341C291.608 68.4964 291.644 68.4545 291.677 68.4084C291.694 68.3791 291.706 68.3498 291.715 68.3204C291.736 68.2576 291.746 68.1927 291.746 68.1257C291.75 68.0586 291.744 67.9937 291.727 67.9309C291.715 67.8806 291.698 67.8303 291.677 67.7801C290.542 67.0051 289.411 66.2113 288.284 65.3987C287.065 64.5148 286.064 63.4362 285.281 62.1628C284.92 61.5763 284.713 61.2035 284.659 61.0443C284.487 60.6254 284.363 60.1898 284.288 59.7374C284.007 58.0283 283.739 56.3213 283.484 54.6164C283.224 52.8822 282.968 51.1501 282.717 49.4201C282.579 48.8923 282.417 48.3771 282.233 47.8744C281.663 46.3203 281.85 44.8102 282.792 43.3441C283.622 42.0497 284.596 40.8747 285.714 39.8191C285.743 39.7982 285.773 39.7772 285.802 39.7563C285.89 39.7018 285.978 39.6495 286.066 39.5992C286.158 39.5447 286.252 39.4945 286.349 39.4484C286.374 39.4442 286.399 39.44 286.424 39.4358C286.5 39.4275 286.575 39.4212 286.65 39.417C286.722 39.4128 286.793 39.4065 286.864 39.3981C286.923 39.3939 286.983 39.3898 287.046 39.3856C287.08 39.373 287.111 39.3625 287.14 39.3542C287.203 39.329 287.268 39.3018 287.335 39.2725C287.398 39.2431 287.463 39.2138 287.53 39.1845C287.605 39.1845 287.683 39.1845 287.763 39.1845C287.838 39.1845 287.913 39.1824 287.989 39.1782C288.052 39.174 288.114 39.1677 288.177 39.1594C288.592 39.0295 288.917 38.797 289.151 38.4619C289.261 38.3062 289.372 38.1492 289.484 37.9907C289.742 38.0286 289.947 37.859 290.1 37.4817C290.598 36.5685 291.026 35.6218 291.382 34.6416C291.432 34.495 291.468 34.3442 291.489 34.1892C291.572 33.5274 291.455 32.897 291.137 32.2979C290.538 31.1586 289.886 30.0485 289.183 28.9678C289.007 28.6997 288.806 28.4525 288.579 28.2263C287.746 27.3844 286.774 26.7267 285.664 26.2533C284.358 25.6988 283.001 25.3553 281.592 25.2229C281.554 25.1462 281.489 25.098 281.397 25.0784C281.324 25.0617 281.248 25.047 281.171 25.0344C281.047 24.2684 281.131 23.5123 281.423 22.7661C281.754 21.9325 282.147 21.1303 282.604 20.3596C282.621 20.347 282.637 20.3386 282.654 20.3344C282.91 20.2255 283.163 20.1082 283.414 19.9825C283.645 19.8694 283.848 19.7145 284.024 19.5176C284.25 19.6307 284.472 19.7584 284.69 19.9009C284.929 20.0559 285.18 20.1878 285.444 20.2967C286.416 20.6947 287.4 21.0654 288.397 21.4089C288.552 21.4591 288.711 21.4947 288.875 21.5157C289.216 21.5572 289.551 21.6159 289.88 21.6916C290.187 21.761 290.488 21.8448 290.785 21.943ZM292.971 25.248C292.972 25.2527 292.972 25.2569 292.971 25.2606V25.248ZM294.737 49.2944H294.731L294.737 49.2881H294.743L294.737 49.2944ZM234.128 76.47C234.22 76.3485 234.291 76.2186 234.341 76.0804C234.412 75.8994 234.435 75.7444 234.411 75.6154C234.534 75.3781 234.664 75.1435 234.8 74.9117C235.018 74.5263 235.271 74.1661 235.56 73.831C235.552 73.8435 235.544 73.854 235.535 73.8624C235.533 73.8661 235.531 73.8682 235.529 73.8687C235.555 73.8408 235.58 73.8115 235.604 73.7807C236.4 72.8256 237.238 71.9774 238.118 71.2359C238.616 70.8128 239.115 70.3919 239.613 69.973C240.736 69.0221 242.03 68.4838 243.496 68.3581C243.735 68.3372 243.8 68.333 243.691 68.3456C243.695 68.3456 243.702 68.3456 243.71 68.3456C244.874 68.2744 246.035 68.31 247.191 68.4524C248.448 68.6032 249.677 68.8797 250.879 69.2818C251.474 69.4829 252.048 69.7321 252.601 70.0295C253.723 70.6411 254.831 71.282 255.925 71.9522C256.155 72.0947 256.392 72.2308 256.635 72.3607C257.716 72.9387 258.803 73.5105 259.896 74.076C261.018 74.6583 262.154 75.2112 263.301 75.7348C264.445 76.2542 265.522 76.8868 266.531 77.6324C267.055 78.022 267.547 78.4492 268.008 78.9142C268.889 79.8078 269.572 80.8425 270.056 82.0182C269.84 82.4208 269.716 82.8543 269.685 83.3188C269.581 84.9567 269.283 86.559 268.793 88.1256C268.672 88.5152 268.527 88.8922 268.36 89.2566C268.007 90.02 267.683 90.7866 267.386 91.5563C266.795 91.0808 266.209 90.5991 265.626 90.1111C263.959 88.7121 262.149 87.5056 260.197 86.4919C259.594 86.1778 259.221 85.9851 259.079 85.9139C258.932 85.7966 258.784 85.6856 258.633 85.5808C255.336 83.3021 251.736 81.8841 247.832 81.327C245.913 81.0547 244.001 80.7908 242.095 80.5353C239.795 80.2295 237.787 80.7636 236.069 82.1376C235.722 82.414 235.441 82.7387 235.227 83.1115C233.292 86.5087 230.927 89.5582 228.133 92.2601C228.133 92.2894 228.133 92.3166 228.133 92.3417C228.134 92.3546 228.134 92.3671 228.133 92.3794C227.512 93.0501 226.917 93.7454 226.349 94.4655C223.894 97.5779 221.532 100.766 219.261 104.029C217.066 107.179 214.184 109.476 210.615 110.922C207.314 112.257 204.126 113.635 201.052 115.056C200.937 114.838 200.713 114.717 200.38 114.692C200.242 114.683 200.118 114.637 200.009 114.553C199.389 114.084 198.702 113.889 197.948 113.969C197.316 114.036 196.689 114.137 196.069 114.271C195.211 114.459 194.53 114.233 194.027 113.592C194.023 113.567 194.017 113.542 194.009 113.517C194 113.466 193.994 113.414 193.99 113.36C193.985 113.305 193.981 113.251 193.977 113.196C193.998 113.15 194.019 113.104 194.04 113.058C194.061 113.012 194.084 112.968 194.109 112.926C194.13 112.893 194.153 112.861 194.178 112.832C194.224 112.79 194.275 112.754 194.329 112.725C195.401 112.185 196.451 111.604 197.477 110.984C197.892 110.733 198.323 110.513 198.771 110.325C199.877 109.856 201.031 109.567 202.233 109.458C202.987 109.386 203.668 109.137 204.276 108.71C205.272 108.015 206.248 107.288 207.204 106.53C207.702 106.136 208.184 105.721 208.649 105.285C209.566 104.427 210.527 103.618 211.533 102.86C211.805 102.651 212.082 102.452 212.362 102.263C213.372 101.576 214.283 100.78 215.095 99.8755C215.954 98.9162 216.813 97.9549 217.672 96.9914C218.685 95.8562 219.672 94.6938 220.631 93.5042C221.435 92.5072 222.2 91.483 222.925 90.4316C223.653 89.3844 224.366 88.3288 225.061 87.2648C225.584 86.4647 226.2 85.7484 226.908 85.1159C227.842 84.2781 228.707 83.3733 229.503 82.4015C230.282 81.4464 231.055 80.485 231.822 79.5174C232.609 78.5163 233.378 77.5004 234.128 76.47ZM225.168 98.0282C226.215 96.4657 227.394 95.0164 228.705 93.6801C229.087 93.2909 229.472 92.9056 229.861 92.524C229.867 92.3908 229.873 92.2588 229.88 92.1281C232.221 90.0536 234.104 87.6115 235.529 84.8017C235.977 83.922 236.616 83.212 237.445 82.6716C238.488 81.993 239.655 81.6998 240.945 81.792C241.946 81.8632 242.948 81.9323 243.949 81.9993C246.324 82.1627 248.653 82.5774 250.936 83.2434C251.552 83.4236 251.91 83.5387 252.01 83.589C252.115 83.6309 252.222 83.677 252.331 83.7273C255.162 84.9588 257.843 86.404 260.373 88.0628C261.065 88.5152 261.749 88.9739 262.428 89.4388C263.977 90.4996 265.493 91.6076 266.977 92.7627V92.769C266.981 92.7983 266.988 92.8256 266.996 92.8507C267.004 92.8758 267.013 92.9031 267.021 92.9324C267.034 92.9533 267.046 92.9764 267.059 93.0015C267.071 93.0224 267.086 93.0455 267.103 93.0706C267.12 93.0916 267.138 93.1104 267.159 93.1272C267.176 93.1481 267.195 93.167 267.216 93.1837C267.241 93.2005 267.264 93.2151 267.285 93.2277C267.31 93.2403 267.335 93.2528 267.36 93.2654C267.386 93.2738 267.411 93.2821 267.436 93.2905C267.461 93.2989 267.488 93.3052 267.518 93.3094C267.543 93.3136 267.57 93.3157 267.599 93.3157C267.625 93.3157 267.648 93.3136 267.668 93.3094C268.194 93.7259 268.714 94.1469 269.227 94.5723C269.202 94.6399 269.181 94.709 269.164 94.7797C268.971 95.5588 268.732 96.3296 268.447 97.092C268.097 98.0279 267.733 98.9578 267.354 99.8818C267.348 99.8964 267.341 99.911 267.335 99.9258L267.329 99.9446C267.331 99.9411 267.333 99.9369 267.335 99.932C266.866 101.238 266.311 102.507 265.67 103.74C264.527 105.943 263.274 108.086 261.913 110.168C261.557 110.708 261.159 111.217 260.719 111.694C260.044 112.43 259.485 113.218 259.041 114.057C258.886 113.852 258.731 113.644 258.576 113.435C258.588 113.415 258.599 113.394 258.608 113.372C258.629 113.322 258.648 113.27 258.664 113.215C258.664 113.156 258.66 113.1 258.652 113.045C258.643 112.991 258.627 112.937 258.601 112.882C258.585 112.836 258.564 112.792 258.539 112.75C258.509 112.704 258.478 112.658 258.444 112.612C256.794 111.766 255.131 110.93 253.455 110.105C251.013 108.898 249.019 107.206 247.474 105.028C245.375 102.07 243.616 98.9225 242.196 95.584C242.187 95.5295 242.179 95.4771 242.17 95.4269C242.162 95.3724 242.152 95.318 242.139 95.2635C242.122 95.2132 242.101 95.1651 242.076 95.119C242.047 95.0729 242.015 95.0289 241.982 94.987C241.966 94.9667 241.945 94.95 241.919 94.9368C241.892 94.681 241.859 94.4234 241.819 94.1639C241.802 94.143 241.783 94.1241 241.762 94.1074C241.72 94.0739 241.676 94.0424 241.63 94.0131C241.584 93.988 241.536 93.967 241.486 93.9503C241.431 93.9377 241.377 93.9272 241.322 93.9189C241.293 93.9189 241.266 93.921 241.241 93.9251C241.157 93.9377 241.079 93.967 241.008 94.0131C240.966 94.0424 240.926 94.0759 240.889 94.1136C240.851 94.1513 240.815 94.1911 240.782 94.233C240.681 94.7818 240.648 95.3431 240.681 95.917C240.849 98.468 240.367 100.877 239.236 103.143C238.084 105.455 236.258 107.028 233.757 107.862C233.227 108.087 232.676 108.326 232.105 108.578C229.616 109.68 227.214 110.924 224.898 112.31C222.788 113.568 220.634 114.735 218.438 115.81C218.428 115.806 218.417 115.802 218.407 115.798C218.357 115.777 218.306 115.764 218.256 115.76C218.202 115.751 218.147 115.751 218.093 115.76C218.042 115.764 217.99 115.774 217.936 115.791C217.667 115.971 217.429 116.187 217.219 116.438C216.469 117.343 216.109 118.37 216.139 119.517C216.168 120.74 216.034 121.936 215.736 123.105C215.091 123.537 214.367 123.708 213.562 123.62C212.193 123.465 210.821 123.333 209.447 123.224C205.413 122.902 201.421 123.197 197.471 124.11C197.085 124.203 196.712 124.2 196.352 124.104C193.474 123.359 191.774 121.478 191.25 118.462C192.532 118.089 193.835 117.89 195.158 117.865C196.507 117.84 197.799 117.58 199.035 117.086C200.954 116.319 202.858 115.601 204.747 114.93C208.538 113.59 212.107 111.831 215.454 109.652C216.451 109.003 217.334 108.23 218.105 107.334C220.639 104.372 222.994 101.27 225.168 98.0282ZM269.491 93.2214C269.111 92.9285 268.732 92.6311 268.353 92.3292C268.549 91.9423 268.746 91.5528 268.944 91.1605C269.635 89.7697 270.134 88.3099 270.439 86.781C270.653 85.7248 270.841 84.6671 271.005 83.6079C271.142 83.771 271.286 83.926 271.438 84.0728C271.422 84.0561 271.451 84.0749 271.526 84.1294C271.558 84.1513 271.587 84.1744 271.614 84.1985C271.816 85.0095 271.839 85.8221 271.683 86.6364C271.621 86.9674 271.6 87.2983 271.621 87.6292C271.65 88.0607 271.621 88.4858 271.533 88.9047C271.273 90.153 270.785 91.3092 270.069 92.3732C269.981 92.5072 269.884 92.6329 269.78 92.7502C269.644 92.9081 269.548 93.0652 269.491 93.2214ZM267.392 103.023C267.752 102.174 268.102 101.322 268.441 100.466C268.449 100.454 268.455 100.441 268.46 100.428C269.063 98.9218 269.639 97.4054 270.188 95.8793C270.242 95.7368 270.284 95.5923 270.314 95.4457C270.326 95.382 270.336 95.3171 270.345 95.2509C270.83 95.8263 271.23 96.4567 271.545 97.1422C271.83 97.758 272.134 98.4178 272.456 99.1215C272.473 99.1466 272.49 99.1718 272.507 99.1969C272.553 99.2681 272.613 99.3288 272.689 99.3791C272.714 99.3917 272.739 99.4021 272.764 99.4105C272.819 99.4315 272.873 99.4482 272.928 99.4608C273.045 99.4817 273.154 99.4692 273.254 99.4231C273.3 99.3938 273.346 99.3623 273.392 99.3288C273.434 99.2953 273.472 99.2576 273.506 99.2157C273.577 99.132 273.621 99.0335 273.638 98.9204C273.642 98.8953 273.642 98.8702 273.638 98.845C273.575 98.5434 273.474 98.2523 273.336 97.9716C273.08 97.4648 272.948 97.1967 272.94 97.1674C272.894 97.0668 272.848 96.9663 272.802 96.8658C272.567 96.3715 272.308 95.8918 272.023 95.4269C271.679 94.8781 271.294 94.3629 270.867 93.8812C270.846 93.8644 270.823 93.8476 270.797 93.8309C270.777 93.8141 270.753 93.7995 270.728 93.7869C270.72 93.7817 270.711 93.7754 270.703 93.7681C270.731 93.7386 270.759 93.7072 270.785 93.6738C272.089 94.9492 273.52 96.0907 275.076 97.0982C276.115 97.7685 277.169 98.4094 278.237 99.0209C280.109 100.093 282.034 101.061 284.011 101.924C286.015 102.802 288.03 103.637 290.056 104.431C290.017 104.477 289.977 104.523 289.937 104.569C289.898 104.588 289.86 104.609 289.823 104.632C289.777 104.661 289.733 104.695 289.692 104.733C289.654 104.77 289.622 104.812 289.597 104.858C289.568 104.908 289.543 104.959 289.522 105.009C289.523 105.018 289.526 105.026 289.528 105.034C289.505 105.059 289.482 105.085 289.459 105.11C289.43 105.189 289.413 105.269 289.409 105.348C289.409 105.428 289.426 105.507 289.459 105.587C289.488 105.667 289.532 105.736 289.591 105.794C289.614 105.814 289.639 105.833 289.666 105.851C289.721 106.206 289.769 106.564 289.811 106.925C289.958 108.266 290.004 109.613 289.949 110.966C289.874 112.842 289.382 114.589 288.473 116.206C288.184 116.717 288.02 116.998 287.982 117.048C287.727 117.383 287.45 117.701 287.153 118.003C284.334 120.864 280.962 122.724 277.037 123.583C274.293 124.182 271.639 123.958 269.076 122.91C267.685 122.341 266.412 121.564 265.256 120.579C263.283 118.91 261.48 117.073 259.846 115.069C259.932 114.899 260.039 114.737 260.166 114.585C261.741 112.683 263.188 110.679 264.508 108.572C265.618 106.796 266.579 104.946 267.392 103.023ZM208.008 113.479C207.979 113.493 207.948 113.506 207.914 113.517C207.935 113.51 207.954 113.501 207.97 113.492L208.008 113.479ZM260.304 112.386C260.287 112.413 260.266 112.44 260.241 112.467C260.25 112.459 260.256 112.451 260.26 112.442L260.304 112.386ZM247.335 82.4392C247.31 82.435 247.285 82.4308 247.26 82.4266L247.222 82.4203C247.26 82.4287 247.298 82.435 247.335 82.4392Z" fill="black"/>
<path d="M268.441 100.466C268.102 101.322 267.752 102.174 267.392 103.023C266.579 104.946 265.618 106.796 264.508 108.572C263.188 110.679 261.741 112.683 260.166 114.585C260.039 114.737 259.932 114.899 259.846 115.069C261.48 117.073 263.283 118.91 265.256 120.579C266.412 121.564 267.685 122.341 269.076 122.91C271.64 123.958 274.293 124.182 277.037 123.583C280.962 122.724 284.334 120.864 287.153 118.003C287.451 117.701 287.727 117.383 287.983 117.048C288.02 116.998 288.184 116.717 288.473 116.206C289.382 114.589 289.874 112.842 289.949 110.966C290.004 109.613 289.958 108.266 289.811 106.925C289.769 106.564 289.721 106.206 289.667 105.851C289.639 105.833 289.614 105.814 289.591 105.794C289.533 105.736 289.489 105.667 289.459 105.587C289.426 105.508 289.409 105.428 289.409 105.348C289.413 105.269 289.43 105.189 289.459 105.11C289.482 105.085 289.505 105.06 289.528 105.034C289.526 105.026 289.524 105.018 289.522 105.009C289.543 104.959 289.568 104.909 289.597 104.858C289.623 104.812 289.654 104.77 289.692 104.733C289.734 104.695 289.778 104.661 289.824 104.632C289.86 104.609 289.898 104.588 289.937 104.569C289.977 104.523 290.017 104.477 290.056 104.431C288.03 103.637 286.015 102.802 284.012 101.924C282.034 101.061 280.11 100.093 278.237 99.021C277.169 98.4094 276.115 97.7685 275.077 97.0983C273.52 96.0908 272.09 94.9493 270.785 93.6739C270.759 93.7072 270.732 93.7386 270.703 93.7681C270.711 93.7755 270.72 93.7818 270.728 93.787C270.754 93.7995 270.777 93.8142 270.798 93.8309C270.823 93.8477 270.846 93.8645 270.867 93.8812C271.294 94.3629 271.679 94.8782 272.023 95.4269C272.308 95.8919 272.567 96.3715 272.802 96.8658C272.848 96.9663 272.894 97.0669 272.94 97.1674C272.949 97.1967 273.081 97.4648 273.336 97.9717C273.474 98.2523 273.575 98.5435 273.638 98.8451C273.642 98.8702 273.642 98.8953 273.638 98.9205C273.621 99.0336 273.577 99.132 273.506 99.2158C273.472 99.2577 273.435 99.2954 273.393 99.3289C273.347 99.3624 273.3 99.3938 273.254 99.4231C273.154 99.4692 273.045 99.4818 272.928 99.4608C272.873 99.4483 272.819 99.4315 272.764 99.4106C272.739 99.4022 272.714 99.3917 272.689 99.3791C272.614 99.3289 272.553 99.2681 272.507 99.1969C272.49 99.1718 272.473 99.1467 272.456 99.1215C272.134 98.4178 271.83 97.758 271.545 97.1423C271.23 96.4567 270.83 95.8263 270.345 95.251C270.337 95.3171 270.326 95.382 270.314 95.4458C270.284 95.5924 270.243 95.7369 270.188 95.8793C269.639 97.4054 269.063 98.9218 268.46 100.428C268.455 100.441 268.449 100.454 268.441 100.466ZM268.353 92.3292C268.732 92.6311 269.111 92.9286 269.491 93.2215C269.548 93.0653 269.644 92.9082 269.78 92.7502C269.884 92.6329 269.981 92.5072 270.069 92.3732C270.785 91.3092 271.273 90.1531 271.533 88.9048C271.621 88.4859 271.65 88.0607 271.621 87.6293C271.6 87.2983 271.621 86.9674 271.684 86.6365C271.839 85.8222 271.816 85.0095 271.614 84.1985C271.587 84.1744 271.558 84.1514 271.526 84.1294C271.451 84.075 271.422 84.0561 271.439 84.0729C271.286 83.926 271.142 83.771 271.005 83.6079C270.842 84.6671 270.653 85.7248 270.439 86.781C270.134 88.31 269.635 89.7698 268.944 91.1605C268.746 91.5528 268.549 91.9424 268.353 92.3292Z" fill="#333333"/>
<path d="M228.705 93.6801C227.394 95.0163 226.215 96.4657 225.168 98.0282C222.994 101.27 220.639 104.372 218.105 107.334C217.334 108.23 216.45 109.003 215.454 109.652C212.107 111.831 208.538 113.59 204.747 114.93C202.857 115.601 200.954 116.319 199.035 117.086C197.799 117.58 196.507 117.84 195.158 117.865C193.835 117.89 192.532 118.089 191.25 118.462C191.774 121.478 193.474 123.358 196.352 124.104C196.712 124.2 197.085 124.203 197.471 124.11C201.421 123.197 205.413 122.902 209.447 123.224C210.821 123.333 212.192 123.465 213.562 123.62C214.366 123.708 215.091 123.537 215.736 123.105C216.034 121.936 216.168 120.74 216.138 119.517C216.109 118.37 216.469 117.343 217.219 116.438C217.429 116.187 217.667 115.971 217.935 115.791C217.99 115.774 218.042 115.764 218.093 115.76C218.147 115.751 218.201 115.751 218.256 115.76C218.306 115.764 218.356 115.777 218.407 115.798C218.417 115.802 218.428 115.806 218.438 115.81C220.634 114.735 222.787 113.568 224.897 112.31C227.214 110.924 229.616 109.68 232.104 108.578C232.676 108.326 233.227 108.087 233.757 107.862C236.258 107.028 238.084 105.455 239.236 103.143C240.367 100.877 240.849 98.468 240.681 95.917C240.648 95.3431 240.681 94.7818 240.782 94.233C240.815 94.1911 240.851 94.1513 240.889 94.1136C240.926 94.0759 240.966 94.0424 241.008 94.0131C241.079 93.967 241.157 93.9377 241.24 93.9251C241.266 93.9209 241.293 93.9189 241.322 93.9189C241.377 93.9272 241.431 93.9377 241.485 93.9503C241.536 93.967 241.584 93.988 241.63 94.0131C241.676 94.0424 241.72 94.0738 241.762 94.1074C241.783 94.1241 241.802 94.143 241.818 94.1639C241.859 94.4234 241.892 94.681 241.919 94.9368C241.945 94.95 241.966 94.9667 241.982 94.987C242.015 95.0289 242.047 95.0729 242.076 95.119C242.101 95.165 242.122 95.2132 242.139 95.2635C242.152 95.3179 242.162 95.3724 242.17 95.4269C242.179 95.4771 242.187 95.5295 242.195 95.5839C243.616 98.9225 245.375 102.07 247.474 105.028C249.019 107.206 251.013 108.898 253.455 110.105C255.131 110.93 256.794 111.766 258.444 112.612C258.478 112.658 258.509 112.704 258.539 112.75C258.564 112.792 258.585 112.836 258.601 112.882C258.626 112.936 258.643 112.991 258.652 113.045C258.66 113.1 258.664 113.156 258.664 113.215C258.647 113.27 258.629 113.322 258.608 113.372C258.599 113.394 258.588 113.415 258.576 113.435C258.731 113.644 258.886 113.852 259.041 114.057C259.485 113.218 260.044 112.43 260.719 111.694C261.159 111.217 261.557 110.708 261.913 110.168C263.274 108.086 264.527 105.943 265.67 103.74C266.311 102.507 266.866 101.238 267.335 99.932C267.333 99.9369 267.331 99.9411 267.329 99.9446L267.335 99.9257C267.341 99.911 267.348 99.8963 267.354 99.8818C267.732 98.9578 268.097 98.0279 268.447 97.0919C268.732 96.3296 268.971 95.5588 269.164 94.7797C269.181 94.709 269.202 94.6399 269.227 94.5723C268.714 94.1469 268.194 93.7259 267.668 93.3094C267.648 93.3136 267.625 93.3156 267.599 93.3156C267.57 93.3156 267.543 93.3136 267.517 93.3094C267.488 93.3052 267.461 93.2989 267.436 93.2905C267.411 93.2821 267.385 93.2738 267.36 93.2654C267.335 93.2528 267.31 93.2402 267.285 93.2277C267.264 93.2151 267.241 93.2005 267.216 93.1837C267.195 93.1669 267.176 93.1481 267.159 93.1271C267.138 93.1104 267.119 93.0915 267.103 93.0706C267.086 93.0455 267.071 93.0224 267.059 93.0015C267.046 92.9763 267.034 92.9533 267.021 92.9324C267.013 92.903 267.004 92.8758 266.996 92.8507C266.988 92.8255 266.981 92.7983 266.977 92.769V92.7627C265.493 91.6076 263.977 90.4996 262.428 89.4388C261.749 88.9738 261.064 88.5152 260.373 88.0628C257.843 86.404 255.162 84.9588 252.331 83.7272C252.222 83.677 252.115 83.6309 252.01 83.589C251.91 83.5387 251.551 83.4235 250.936 83.2434C248.653 82.5774 246.324 82.1627 243.949 81.9993C242.947 81.9323 241.946 81.8632 240.945 81.792C239.655 81.6998 238.488 81.993 237.445 82.6716C236.616 83.212 235.977 83.922 235.529 84.8017C234.104 87.6115 232.221 90.0536 229.88 92.1281C229.873 92.2588 229.867 92.3908 229.861 92.5239C229.472 92.9056 229.086 93.2909 228.705 93.6801ZM247.26 82.4266C247.285 82.4308 247.31 82.435 247.335 82.4392C247.298 82.435 247.26 82.4287 247.222 82.4203L247.26 82.4266ZM234.341 76.0804C234.291 76.2186 234.22 76.3485 234.128 76.47C233.378 77.5004 232.609 78.5162 231.822 79.5174C231.055 80.485 230.282 81.4464 229.503 82.4014C228.707 83.3733 227.842 84.2781 226.908 85.1159C226.2 85.7484 225.584 86.4647 225.061 87.2648C224.365 88.3288 223.653 89.3844 222.924 90.4316C222.2 91.483 221.435 92.5072 220.631 93.5042C219.672 94.6938 218.685 95.8562 217.672 96.9914C216.813 97.9549 215.954 98.9162 215.095 99.8755C214.283 100.78 213.372 101.576 212.362 102.263C212.081 102.452 211.805 102.651 211.533 102.86C210.527 103.618 209.566 104.427 208.649 105.285C208.184 105.721 207.702 106.136 207.203 106.53C206.248 107.288 205.272 108.015 204.275 108.71C203.668 109.137 202.987 109.386 202.233 109.458C201.031 109.567 199.877 109.856 198.771 110.325C198.323 110.513 197.892 110.733 197.477 110.984C196.451 111.604 195.401 112.185 194.329 112.725C194.274 112.754 194.224 112.79 194.178 112.832C194.153 112.861 194.13 112.893 194.109 112.926C194.084 112.968 194.061 113.012 194.04 113.058C194.019 113.104 193.998 113.15 193.977 113.196C193.981 113.251 193.985 113.305 193.99 113.36C193.994 113.414 194 113.466 194.008 113.517C194.017 113.542 194.023 113.567 194.027 113.592C194.53 114.233 195.211 114.459 196.069 114.271C196.689 114.137 197.316 114.036 197.948 113.969C198.702 113.889 199.389 114.084 200.009 114.553C200.118 114.637 200.241 114.683 200.38 114.692C200.713 114.717 200.937 114.838 201.052 115.056C204.126 113.635 207.314 112.257 210.615 110.922C214.184 109.476 217.066 107.179 219.261 104.029C221.532 100.766 223.894 97.5779 226.349 94.4655C226.917 93.7454 227.512 93.0501 228.133 92.3794C228.134 92.3671 228.134 92.3545 228.133 92.3417C228.133 92.3166 228.133 92.2894 228.133 92.26C230.927 89.5582 233.292 86.5087 235.227 83.1115C235.441 82.7387 235.722 82.414 236.069 82.1375C237.787 80.7636 239.795 80.2295 242.095 80.5353C244.001 80.7908 245.913 81.0547 247.832 81.327C251.736 81.8841 255.336 83.3021 258.633 85.5808C258.784 85.6856 258.932 85.7966 259.079 85.9138C259.221 85.9851 259.594 86.1778 260.197 86.4919C262.149 87.5056 263.959 88.712 265.626 90.1111C266.209 90.5991 266.795 91.0808 267.385 91.5563C267.683 90.7866 268.007 90.02 268.359 89.2566C268.527 88.8922 268.671 88.5152 268.793 88.1256C269.283 86.5589 269.58 84.9567 269.685 83.3188C269.716 82.8543 269.84 82.4208 270.056 82.0182C269.571 80.8425 268.889 79.8078 268.008 78.9142C267.547 78.4492 267.055 78.022 266.531 77.6324C265.521 76.8868 264.445 76.2542 263.301 75.7348C262.154 75.2112 261.018 74.6583 259.896 74.076C258.802 73.5105 257.715 72.9387 256.635 72.3606C256.392 72.2308 256.155 72.0946 255.925 71.9522C254.831 71.282 253.723 70.6411 252.601 70.0295C252.048 69.7321 251.474 69.4829 250.879 69.2818C249.677 68.8797 248.447 68.6032 247.191 68.4524C246.035 68.31 244.874 68.2744 243.71 68.3456C243.701 68.3456 243.695 68.3456 243.691 68.3456C243.8 68.333 243.735 68.3372 243.496 68.3581C242.03 68.4838 240.736 69.0221 239.613 69.973C239.115 70.3919 238.616 70.8128 238.118 71.2359C237.238 71.9774 236.4 72.8256 235.604 73.7807C235.58 73.8115 235.555 73.8408 235.529 73.8686C235.531 73.8682 235.533 73.8661 235.535 73.8624C235.544 73.854 235.552 73.8435 235.56 73.8309C235.271 74.1661 235.018 74.5263 234.8 74.9117C234.664 75.1435 234.534 75.3781 234.41 75.6154C234.435 75.7444 234.412 75.8994 234.341 76.0804ZM291.514 22.3514C291.296 22.1671 291.053 22.0309 290.785 21.943C290.488 21.8448 290.187 21.761 289.88 21.6916C289.551 21.6159 289.216 21.5572 288.875 21.5157C288.711 21.4947 288.552 21.4591 288.397 21.4089C287.4 21.0654 286.416 20.6947 285.444 20.2967C285.18 20.1878 284.929 20.0559 284.69 19.9009C284.472 19.7584 284.25 19.6307 284.024 19.5176C283.848 19.7145 283.645 19.8694 283.414 19.9825C283.163 20.1082 282.91 20.2255 282.654 20.3344C282.637 20.3386 282.621 20.347 282.604 20.3595C282.147 21.1303 281.753 21.9325 281.423 22.7661C281.131 23.5123 281.047 24.2684 281.171 25.0344C281.248 25.047 281.324 25.0617 281.397 25.0784C281.489 25.098 281.554 25.1462 281.592 25.2229C283.001 25.3553 284.358 25.6988 285.664 26.2533C286.774 26.7267 287.746 27.3843 288.579 28.2263C288.805 28.4525 289.007 28.6997 289.182 28.9678C289.886 30.0485 290.538 31.1586 291.137 32.2979C291.455 32.8969 291.572 33.5274 291.488 34.1892C291.468 34.3442 291.432 34.495 291.382 34.6416C291.026 35.6218 290.598 36.5685 290.1 37.4817C289.947 37.859 289.742 38.0286 289.484 37.9907C289.372 38.1492 289.261 38.3062 289.151 38.4619C288.916 38.797 288.592 39.0295 288.177 39.1594C288.114 39.1677 288.051 39.174 287.989 39.1782C287.913 39.1824 287.838 39.1845 287.762 39.1845C287.683 39.1845 287.605 39.1845 287.53 39.1845C287.463 39.2138 287.398 39.2431 287.335 39.2725C287.268 39.3018 287.203 39.329 287.14 39.3541C287.111 39.3625 287.08 39.373 287.046 39.3856C286.983 39.3898 286.923 39.3939 286.864 39.3981C286.793 39.4065 286.721 39.4128 286.65 39.417C286.575 39.4212 286.499 39.4275 286.424 39.4358C286.399 39.44 286.374 39.4442 286.349 39.4484C286.252 39.4945 286.158 39.5447 286.066 39.5992C285.978 39.6495 285.89 39.7018 285.802 39.7563C285.773 39.7772 285.743 39.7982 285.714 39.8191C284.596 40.8747 283.622 42.0497 282.792 43.3441C281.85 44.8102 281.663 46.3203 282.233 47.8744C282.417 48.3771 282.579 48.8923 282.717 49.4201C282.968 51.1501 283.224 52.8822 283.483 54.6164C283.739 56.3213 284.007 58.0283 284.288 59.7374C284.363 60.1898 284.487 60.6254 284.658 61.0443C284.713 61.2035 284.92 61.5763 285.281 62.1627C286.064 63.4362 287.065 64.5148 288.284 65.3987C289.411 66.2113 290.542 67.0051 291.677 67.7801C291.698 67.8303 291.715 67.8806 291.727 67.9309C291.744 67.9937 291.75 68.0586 291.746 68.1257C291.746 68.1927 291.736 68.2576 291.715 68.3204C291.706 68.3498 291.694 68.3791 291.677 68.4084C291.643 68.4545 291.608 68.4964 291.57 68.5341C291.528 68.5718 291.484 68.6032 291.438 68.6283C291.388 68.6576 291.338 68.6807 291.287 68.6974C291.258 68.7058 291.231 68.7142 291.206 68.7226C291.176 68.7226 291.149 68.7226 291.124 68.7226C291.086 68.7226 291.051 68.7184 291.017 68.71C290.984 68.7058 290.95 68.6974 290.917 68.6849C290.883 68.6681 290.85 68.6514 290.816 68.6346C287.838 67.1057 285.53 64.9065 283.892 62.0371C283.293 60.994 282.922 59.8714 282.78 58.6692C282.419 55.6741 281.99 52.6874 281.492 49.7091C280.403 47.8074 280.3 45.8595 281.184 43.8656C282.005 42.0057 283.171 40.3804 284.684 38.9897C285.283 38.4452 285.986 38.1645 286.795 38.1477V38.1415C286.88 38.1072 286.966 38.0674 287.052 38.0221C287.17 37.9634 287.3 37.9341 287.442 37.9341C287.593 37.9299 287.744 37.9278 287.894 37.9278C287.949 37.9027 288.001 37.8776 288.051 37.8524C288.11 37.8231 288.169 37.7917 288.227 37.7582C288.286 37.7247 288.343 37.6891 288.397 37.6514C288.627 37.1654 288.885 36.69 289.17 36.225C289.184 36.2029 289.196 36.1799 289.208 36.1559C289.217 36.1783 289.226 36.1993 289.233 36.2188C289.241 36.2415 289.25 36.2624 289.258 36.2816C289.296 36.207 289.336 36.1316 289.377 36.0554C289.746 35.3642 290.06 34.6479 290.32 33.9065C290.098 32.8844 289.681 31.9335 289.069 31.0538C288.563 30.325 288.039 29.6087 287.499 28.9049C287.306 28.6452 287.069 28.4316 286.789 28.264C285.632 27.5687 284.405 27.0513 283.106 26.712C282.641 26.5905 282.17 26.5235 281.693 26.511C281.358 26.5026 281.039 26.4251 280.738 26.2785C280.734 26.2769 280.73 26.2748 280.725 26.2722C280.186 26.3612 279.648 26.4198 279.11 26.4481C277.979 26.5068 276.884 26.7518 275.824 27.1833C275.384 27.3634 274.928 27.4954 274.454 27.5791C273.679 27.7174 272.953 27.9834 272.274 28.3771C271.214 28.9887 270.32 29.7867 269.591 30.7711C269.013 31.546 268.621 32.411 268.416 33.3661C268.148 34.5893 268.022 35.8292 268.039 37.0859C268.047 37.7268 268.15 38.3467 268.347 38.9457C268.498 39.4107 268.548 39.8861 268.498 40.3721C268.355 41.6455 268.06 42.8791 267.612 44.073C267.54 44.2656 267.469 44.4562 267.398 44.6447C268.035 44.6573 268.567 44.8772 268.994 45.3045C269.136 45.4469 269.235 45.6166 269.289 45.8134C269.495 46.5591 269.792 47.267 270.182 47.9372C270.249 48.0545 270.274 48.0943 270.257 48.0566C270.29 48.1069 270.366 48.2367 270.483 48.4462C270.613 48.6891 270.743 48.9342 270.873 49.1813C270.94 49.3028 271.001 49.4285 271.055 49.5583C271.231 49.7259 271.432 49.862 271.658 49.9667C271.876 50.0631 272.056 50.2055 272.199 50.394C272.245 50.4568 272.293 50.5197 272.343 50.5825C273.302 50.9805 274.314 51.0852 275.378 50.8967C275.717 50.8338 276.057 50.7731 276.396 50.7145C277.41 50.526 278.39 50.239 279.336 49.8536C279.437 49.8118 279.535 49.8264 279.632 49.8976C280.021 50.2034 280.04 50.5302 279.688 50.8778C279.575 50.9867 279.447 51.0747 279.305 51.1417C278.585 51.4782 277.844 51.7296 277.081 51.8957C277.077 51.9175 277.073 51.9384 277.068 51.9586C276.771 53.2027 276.746 54.4468 276.993 55.6909C277.097 56.1977 277.127 56.7025 277.081 57.2052C277.072 57.3434 277.003 57.4439 276.873 57.5068C276.657 57.615 276.47 57.6401 276.314 57.5822C275.348 58.3399 274.47 59.1965 273.681 60.1521C273.392 60.5039 273.141 60.8851 272.927 61.2956C272.395 62.3135 272.188 63.3775 272.305 64.4876C272.398 65.3631 272.423 66.2386 272.381 67.114C272.377 67.2271 272.326 67.3151 272.23 67.3779C272.157 67.4251 272.086 67.4607 272.016 67.4848C271.969 68.5469 271.919 69.6066 271.866 70.6641C271.807 71.9292 271.832 73.1921 271.941 74.453C272.05 75.7222 272.307 76.9622 272.714 78.1728C272.869 78.6335 273.059 79.0796 273.286 79.5111C273.357 79.647 273.41 79.7873 273.443 79.9321C273.538 80.0027 273.634 80.0718 273.732 80.1394L273.487 81.4715C273.391 81.409 273.297 81.3419 273.204 81.2704C273.153 81.5239 273.079 81.7732 272.984 82.0182C272.785 82.5253 272.703 83.0385 272.739 83.5576C272.76 83.5847 272.781 83.612 272.802 83.6393C272.936 83.8194 272.967 84.0163 272.896 84.2299C272.887 84.2551 272.876 84.2781 272.865 84.299C272.905 84.484 272.939 84.6683 272.965 84.852C272.947 84.9499 272.937 85.042 272.934 85.1284C272.925 85.3639 272.963 85.5691 273.047 85.7442C273.063 86.3505 273.007 86.9579 272.877 87.5664C272.844 87.7256 272.829 87.8868 272.833 88.0502C272.862 89.2273 272.592 90.3394 272.023 91.3867C271.805 91.7851 271.593 92.1872 271.388 92.5931C273.104 94.1506 274.936 95.5706 276.886 96.8532C277.527 97.2721 278.189 97.6595 278.871 98.0156C281.029 99.1424 283.228 100.181 285.469 101.132C287.216 101.874 288.956 102.625 290.69 103.388C290.755 103.402 290.818 103.417 290.879 103.432C292.904 100.891 294.527 98.1034 295.749 95.0687C297.19 91.483 298.423 87.8366 299.449 84.1294C299.934 82.3832 300.267 80.6196 300.449 78.8388C300.344 78.8095 300.254 78.7571 300.178 78.6817C300.09 78.5937 300.036 78.4869 300.015 78.3613C300.002 78.2984 299.996 78.2335 299.996 78.1665C300 78.133 300.007 78.1015 300.015 78.0722C300.023 78.0429 300.034 78.0157 300.046 77.9905C300.055 77.9654 300.065 77.9424 300.078 77.9214C300.095 77.8963 300.109 77.8732 300.122 77.8523C302.417 75.2887 303.68 72.1952 303.911 68.5718C304.02 66.8585 303.902 65.1536 303.559 63.4571C303.195 61.6621 302.948 59.8651 302.817 58.066C302.712 57.7574 302.643 57.4327 302.61 57.0921C302.577 56.7737 302.52 56.4596 302.44 56.1496C302.164 55.0772 301.917 54.0007 301.699 52.9199C301.603 52.455 301.561 51.9858 301.573 51.5124C301.601 50.5935 301.56 49.6782 301.448 48.7666C301.451 48.7734 301.453 48.7796 301.454 48.7855C301.437 47.4827 301.223 46.2177 300.813 44.9903C300.488 44.0125 300.266 43.0135 300.147 41.9932C300.1 41.9542 300.059 41.9082 300.021 41.8549C299.933 41.7293 299.9 41.591 299.921 41.4402C299.933 41.3606 299.948 41.281 299.965 41.2015C299.935 41.0465 299.919 40.8894 299.914 40.7302C299.906 40.5752 299.902 40.4202 299.902 40.2652C299.189 39.3889 298.493 38.4966 297.816 37.5885C297.808 37.7905 297.787 37.9937 297.753 38.198C297.64 38.8724 297.604 39.5468 297.646 40.2213C297.692 40.904 297.608 41.5722 297.395 42.2256C297.167 42.9301 296.857 43.5962 296.465 44.2238C296.464 44.2278 296.461 44.2299 296.459 44.23C296.46 44.2355 296.46 44.2397 296.459 44.2426C296.455 44.2514 296.451 44.2577 296.446 44.2615C296.425 44.3137 296.404 44.366 296.383 44.4185C296.358 44.4772 296.333 44.5379 296.308 44.6008C296.475 45.3212 296.685 46.0313 296.936 46.7308C296.978 46.8523 297.001 46.9801 297.005 47.1141C297.043 47.8388 296.921 48.5279 296.641 49.1813C296.544 49.4075 296.398 49.596 296.201 49.7468C295.904 49.973 295.6 50.1888 295.29 50.394C295.235 50.4317 295.177 50.461 295.114 50.482C295.101 50.4862 295.091 50.4904 295.083 50.4945C295.066 50.5113 295.055 50.5302 295.051 50.5511C295.047 50.5637 295.043 50.5783 295.039 50.5951C295.039 50.6118 295.039 50.6286 295.039 50.6453C295.039 50.6621 295.043 50.6768 295.051 50.6893C295.06 50.7061 295.07 50.7207 295.083 50.7333C295.992 51.3868 296.917 52.0151 297.86 52.6183C298.748 53.1838 299.632 53.7514 300.511 54.3211C300.784 54.497 301.016 54.7065 301.209 54.9495C301.221 54.9788 301.232 55.0081 301.24 55.0374C301.253 55.0667 301.263 55.0982 301.272 55.1317C301.276 55.1484 301.28 55.1652 301.284 55.1819C301.293 55.3788 301.23 55.5485 301.096 55.6909C300.987 55.7956 300.857 55.8543 300.706 55.8668C300.576 55.8794 300.453 55.8522 300.335 55.7851C299.301 55.0563 298.249 54.3525 297.181 53.6739C296.172 53.0372 295.198 52.3523 294.259 51.6193C293.891 51.3302 293.732 50.949 293.782 50.4757C293.853 49.8557 294.182 49.4536 294.768 49.2693C294.898 49.1436 295.028 49.0221 295.158 48.9049C295.254 48.8169 295.355 48.7373 295.46 48.6661C295.506 48.6368 295.552 48.6074 295.598 48.5781C295.677 48.3603 295.717 48.1341 295.717 47.8995C295.713 47.6607 295.715 47.4199 295.723 47.1769C295.728 47.0638 295.732 46.9507 295.736 46.8376C295.535 46.4606 295.376 46.0648 295.258 45.6501C295.137 45.2228 295.083 44.7997 295.095 44.3808C295.099 44.2845 295.12 44.1902 295.158 44.0981C295.196 44.0185 295.231 43.9389 295.265 43.8593C295.261 43.8761 295.254 43.8928 295.246 43.9096C295.245 43.9149 295.243 43.919 295.24 43.9222C295.504 43.3928 295.751 42.8546 295.981 42.3073C296.216 41.7502 296.366 41.1721 296.433 40.5731C296.452 40.4244 296.456 40.2757 296.446 40.127C296.429 39.151 296.452 38.1687 296.515 37.1801C296.561 36.4806 296.385 35.8438 295.987 35.27C295.961 35.2306 295.946 35.1887 295.943 35.1443C295.622 34.7819 295.287 34.43 294.938 34.0887C294.498 33.6572 294.144 33.1588 293.876 32.5933C293.667 32.1492 293.445 31.7157 293.21 31.2926C293.097 31.0832 293.007 30.8632 292.94 30.6328C292.764 30.0171 292.735 29.3992 292.852 28.7793C292.936 28.3185 292.992 27.8535 293.022 27.3843C293.07 26.6599 293.051 25.9373 292.965 25.2166C292.865 24.0437 292.381 23.0886 291.514 22.3514Z" fill="white"/>
</svg>
