<svg width="320" height="65" viewBox="0 0 320 65" fill="none" xmlns="http://www.w3.org/2000/svg">
<path d="M4.3335 4.21289L316.287 9.58634L315.404 60.8818L3.44992 55.5083L4.3335 4.21289Z" fill="#EEEEEE"/>
<path d="M20.8176 0.293851C22.8812 0.461063 24.9482 0.506694 27.0155 0.442224C29.674 0.359612 32.2667 0.997609 34.7659 2.26108C36.2435 3.00838 37.6192 3.04947 39.0695 2.46005C41.5301 1.46142 44.0409 0.930313 46.566 0.903825C48.9835 0.879397 51.3872 1.20196 53.7695 1.86018C55.9072 2.45159 58.0518 3.02955 60.1901 3.5729C61.6501 3.94389 63.1684 3.78456 64.8412 2.92478C67.7433 1.43421 70.7817 1.35071 73.7076 2.7654C75.4623 3.61366 77.1464 3.92011 78.788 3.76841C80.9123 3.57202 83.0407 3.32715 85.1677 3.02522C87.4601 2.69992 89.7509 2.53562 92.0423 2.54024C94.3416 2.54528 96.6515 2.70629 98.9413 3.05441C100.964 3.3616 102.985 3.52112 105.009 3.51264C106.977 3.50418 108.959 3.27036 110.951 2.82433C113.532 2.24631 116.127 2.28911 118.689 2.93682C120.816 3.47452 122.944 3.9745 125.072 4.44082C126.658 4.78852 128.277 4.65292 129.991 3.94295C132.683 2.82564 135.461 2.58812 138.22 3.33566C140.036 3.82794 141.835 3.94451 143.644 3.69958C146.297 3.33888 148.939 3.71097 151.491 4.72944C152.889 5.2841 154.264 5.23455 155.803 4.4708C158.464 3.14504 161.254 2.7061 164.062 3.30224C166.22 3.76129 168.394 4.20562 170.552 4.66243C172.645 5.10558 174.743 5.48153 176.837 5.76942C178.866 6.04803 180.896 6.17063 182.927 6.14481C185.006 6.11836 187.091 6.00408 189.175 5.77389C191.564 5.51025 193.953 5.52506 196.332 5.85554C198.247 6.12151 200.166 6.14051 202.095 5.87158C204.483 5.53852 206.871 5.49694 209.254 5.76603C211.173 5.98309 213.104 5.94547 215.041 5.63683C217.544 5.23744 220.045 5.31721 222.527 5.86982C224.115 6.22404 225.735 6.07265 227.446 5.37196C230.089 4.28778 232.813 4.01177 235.532 4.59575C237.601 5.0398 239.669 5.37628 241.736 5.5973C243.86 5.82428 245.99 5.98954 248.115 6.12331C250.367 6.2652 252.618 6.53623 254.864 6.90538C256.653 7.199 258.45 7.10237 260.278 6.64493C262.665 6.04691 265.072 5.77092 267.471 5.79091C269.733 5.80988 271.991 5.95246 274.247 6.21972C276.314 6.46469 278.392 6.59752 280.461 6.61806C282.659 6.63998 284.857 6.69881 287.054 6.81484C289.198 6.92829 291.353 7.02177 293.499 7.09232C295.37 7.15382 297.272 6.91668 299.192 6.35811C301.664 5.63963 304.156 5.36637 306.654 5.57115C308.882 5.75418 311.117 6.02621 313.34 6.37294C314.826 6.60558 316.341 7.21895 317.381 8.54403C318.423 9.87585 318.638 11.4957 318.49 12.995C318.28 15.1313 318.092 17.2827 317.901 19.435C317.749 21.1511 318.005 22.9091 318.725 24.7341C319.862 27.6185 319.721 30.5598 318.368 33.3628C317.674 34.8063 317.65 36.1607 318.295 37.6269C319.578 40.5421 319.491 43.5322 318.061 46.3826C317.163 48.172 316.789 49.8917 316.848 51.5634C316.925 53.6918 317.061 55.8964 317.234 58.1658C317.345 59.6268 317.144 61.3971 315.886 62.7201C314.582 64.0906 312.798 64.3062 311.325 64.1604C308.999 63.93 306.682 63.4732 304.378 62.8132C302.877 62.3839 301.356 62.492 299.71 63.2321C296.736 64.5746 293.672 64.4236 290.812 62.8292C289.341 62.009 288.03 61.9376 286.635 62.5075C284.191 63.5081 281.705 64.0592 279.2 64.148C276.975 64.2261 274.743 64.2298 272.521 64.1578C270.131 64.0803 267.739 63.7051 265.382 63.0362C263.311 62.4485 261.235 61.9757 259.165 61.5974C257.531 61.2992 255.87 61.4625 254.12 62.1555C251.656 63.1317 249.151 63.6252 246.625 63.6286C244.093 63.631 241.585 63.1335 239.139 62.1472C237.279 61.3972 235.451 61.0232 233.645 61.0122C231.871 61.0018 230.052 61.3668 228.174 62.1456C225.643 63.1972 223.046 63.6585 220.432 63.4687C218.136 63.3019 215.845 62.9686 213.563 62.4556C211.677 62.0318 209.793 61.906 207.909 62.0878C205.556 62.3151 203.203 62.2956 200.857 62.0287C198.952 61.8119 197.036 61.8656 195.111 62.2002C192.69 62.6216 190.265 62.6915 187.846 62.408C185.875 62.1767 183.896 62.175 181.917 62.3683C179.468 62.6076 177.025 62.4408 174.601 61.9094C172.628 61.4764 170.65 61.2647 168.682 61.2664C166.328 61.2688 163.976 61.0301 161.641 60.5418C159.593 60.1136 157.544 59.8295 155.497 59.6661C153.519 59.5082 151.534 59.5417 149.544 59.7924C147.315 60.0736 145.082 60.2795 142.855 60.4054C140.816 60.5205 138.755 60.7795 136.703 61.1942C134.337 61.6717 131.968 61.877 129.597 61.8C127.493 61.7311 125.379 61.7416 123.272 61.8159C120.826 61.9021 118.392 61.6106 115.984 60.9413C114.163 60.4347 112.349 60.3015 110.539 60.5354C108.229 60.8337 105.914 60.9303 103.605 60.8529C101.466 60.7812 99.3179 60.7557 97.1778 60.7422C95.0643 60.7291 92.9455 60.7569 90.8297 60.8617C88.4686 60.9784 86.1094 60.8456 83.7624 60.4487C81.4893 60.0641 79.224 59.5235 76.9656 58.8335C75.465 58.3749 73.9531 58.4642 72.3196 59.1904C69.5656 60.4164 66.7039 60.6045 63.8845 59.6694C62.1378 59.0907 60.4143 58.9653 58.6897 59.2678C56.2616 59.6928 53.8295 59.7604 51.4041 59.4544C49.4891 59.2126 47.5693 59.2339 45.6395 59.5215C42.9635 59.9215 40.2978 59.5682 37.7295 58.5114C36.2684 57.9118 34.8539 57.9063 33.3172 58.581C30.4483 59.8405 27.4875 59.8324 24.6416 58.5356C22.9202 57.7533 21.268 57.5132 19.6408 57.7421C17.1341 58.0943 14.6342 57.9689 12.1568 57.3635C10.2948 56.9075 8.76272 56.8723 7.5208 57.138C6.05175 57.4533 4.49306 57.2614 3.16663 56.2515C1.94457 55.3208 1.2426 53.954 0.836901 52.591C0.0958195 50.1011 -0.149661 47.5854 0.0926172 45.0669C0.301965 42.8941 0.511237 40.7171 0.745939 38.5448C0.972292 36.4497 1.12132 34.345 1.18731 32.2479C1.25612 30.0643 1.35972 27.8815 1.48738 25.6989C1.61052 23.5947 1.65684 21.4828 1.6379 19.3763C1.62037 17.4267 1.38102 15.4542 0.886475 13.475C0.252306 10.9322 0.205238 8.459 0.908949 6.13055C1.18053 5.23452 1.40289 4.54215 1.54764 4.08168C1.61845 3.85649 1.67747 3.6602 1.72372 3.52292C1.74487 3.46031 1.76111 3.37097 1.79006 3.29519L2.06979 2.75903C2.11455 2.69061 2.23336 2.50186 2.43128 2.30751C2.50852 2.23188 3.21011 1.53026 4.35856 1.55005C4.20014 1.54732 4.05784 1.56182 4.02539 1.56511C3.97867 1.57004 3.94167 1.58111 3.92103 1.58412C3.90004 1.58902 3.87525 1.5792 3.85862 1.58305C3.87504 1.58025 3.89725 1.56684 3.92138 1.56332C4.05531 1.53203 4.25871 1.492 4.52711 1.42811C5.07231 1.29832 5.88726 1.10666 6.97154 0.84601C9.34857 0.274581 11.7354 -0.0226353 14.123 -0.00872636C16.3557 0.00430847 18.5882 0.113147 20.8176 0.293851ZM14.0937 5.31732C12.1496 5.30597 10.187 5.55318 8.21392 6.02751C7.48027 6.20387 6.8651 6.3365 6.37558 6.45359C6.27093 6.79437 6.14254 7.20722 6.00083 7.67474C5.62711 8.9149 5.59947 10.3944 6.04789 12.1906C6.64 14.5603 6.94348 16.9411 6.96538 19.3224C6.98538 21.547 6.93868 23.7767 6.80877 25.9987C6.68358 28.138 6.57823 30.2826 6.51085 32.4229C6.44061 34.6548 6.28254 36.8864 6.04187 39.1146C5.80937 41.2665 5.59699 43.422 5.38962 45.5743C5.21566 47.3798 5.40593 49.2134 5.96065 51.0771C6.07397 51.4554 6.18991 51.7001 6.28021 51.8525C6.29785 51.8821 6.30617 51.9157 6.32037 51.9364C6.34181 51.9332 6.37387 51.9442 6.40358 51.9378C8.60799 51.4653 10.9646 51.5847 13.4113 52.1834C15.2435 52.632 17.0679 52.7226 18.8994 52.4652C21.6117 52.0837 24.2944 52.5326 26.8679 53.7052C28.314 54.3612 29.6849 54.3693 31.1747 53.717C34.0012 52.4758 36.9318 52.4058 39.7704 53.5737C41.501 54.2855 43.1709 54.4913 44.8357 54.2436C47.2464 53.8832 49.6729 53.8566 52.0779 54.1602C53.9695 54.3983 55.8699 54.3648 57.7812 54.0296C60.3999 53.5708 63.0148 53.7729 65.5736 54.6216C67.0589 55.1119 68.5477 55.042 70.1562 54.326C72.8832 53.1134 75.7059 52.8863 78.5098 53.7416C80.5581 54.3677 82.6207 54.8545 84.6643 55.2001C86.6314 55.532 88.5981 55.6488 90.5674 55.5515C92.7847 55.4417 95.0124 55.4026 97.2279 55.4165C99.4124 55.4303 101.597 55.4562 103.78 55.5294C105.8 55.5971 107.831 55.5011 109.861 55.2388C112.392 54.9116 114.913 55.1128 117.404 55.8057C119.305 56.3348 121.207 56.5527 123.093 56.4863C125.318 56.4081 127.55 56.4037 129.772 56.4765C131.721 56.5396 133.677 56.3721 135.649 55.9743C137.944 55.5104 140.253 55.2242 142.551 55.0944C144.654 54.9756 146.758 54.7822 148.865 54.5166C151.215 54.22 153.575 54.1596 155.922 54.3468C158.196 54.5285 160.465 54.8646 162.729 55.338C164.709 55.7521 166.692 55.9414 168.67 55.9397C171.032 55.9373 173.388 56.213 175.73 56.7271C177.62 57.1418 179.516 57.2383 181.405 57.0537C183.759 56.8244 186.111 56.8585 188.457 57.1336C190.36 57.3569 192.28 57.2967 194.203 56.9621C196.617 56.5425 199.035 56.4594 201.448 56.7332C203.424 56.9582 205.413 56.9857 207.397 56.794C209.852 56.5571 212.305 56.7074 214.734 57.2533C216.763 57.7091 218.788 58.0223 220.815 58.1695C222.525 58.2937 224.285 58.0009 226.116 57.2413C228.594 56.2113 231.123 55.6714 233.675 55.6861C236.199 55.7016 238.698 56.2246 241.139 57.2088C242.994 57.9566 244.814 58.3035 246.613 58.3018C248.416 58.3001 250.252 57.9398 252.146 57.1903C254.757 56.1559 257.446 55.8595 260.129 56.3499C262.372 56.7599 264.61 57.288 266.844 57.922C268.798 58.4766 270.755 58.7713 272.696 58.8343C274.796 58.9022 276.897 58.9125 279 58.8389C280.827 58.7748 282.703 58.3673 284.619 57.5832C287.585 56.3699 290.592 56.6006 293.41 58.1716C294.839 58.9684 296.115 59.0134 297.505 58.3878C300.218 57.1633 303.037 56.8981 305.84 57.699C307.846 58.2739 309.855 58.666 311.853 58.8638C311.882 58.8666 311.911 58.8633 311.937 58.8652C311.937 58.7817 311.929 58.6837 311.921 58.5737C311.743 56.2375 311.619 53.9673 311.539 51.7632C311.442 49.102 312.06 46.4947 313.316 43.9913C314.037 42.5503 314.067 41.2163 313.431 39.7695C312.158 36.8761 312.21 33.9014 313.581 31.054C314.301 29.5617 314.342 28.1638 313.76 26.6876C312.76 24.1529 312.351 21.5556 312.583 18.948C312.776 16.7797 312.982 14.6194 313.194 12.4668C313.256 11.8306 313.12 11.7368 313.184 11.8216C313.25 11.9062 313.189 11.7279 312.522 11.623C310.427 11.2964 308.325 11.0627 306.23 10.8904C304.405 10.7405 302.544 10.9136 300.664 11.4603C298.232 12.1675 295.781 12.4966 293.324 12.4159C291.143 12.3441 288.955 12.2519 286.775 12.1366C284.654 12.0245 282.533 11.965 280.411 11.9437C278.149 11.9213 275.872 11.7612 273.615 11.4938C271.553 11.2497 269.486 11.1338 267.421 11.1166C265.49 11.1007 263.546 11.3355 261.583 11.8275C259.065 12.4583 256.53 12.5691 254.004 12.1547C251.93 11.8139 249.848 11.5746 247.774 11.444C245.572 11.3054 243.366 11.1075 241.167 10.8724C238.915 10.6316 236.667 10.2806 234.423 9.79916C232.83 9.457 231.2 9.59414 229.484 10.2967C226.834 11.3837 224.102 11.6595 221.377 11.0517C219.547 10.644 217.723 10.6023 215.886 10.8947C213.48 11.2786 211.066 11.3331 208.664 11.0616C206.728 10.8427 204.785 10.8567 202.836 11.1277C200.423 11.4642 198.001 11.4827 195.595 11.1486C193.653 10.8788 191.701 10.8533 189.75 11.0687C187.5 11.3169 185.25 11.4438 183.002 11.4727C180.702 11.5019 178.393 11.3567 176.101 11.0417C173.879 10.7361 171.659 10.3559 169.442 9.88664C167.283 9.42947 165.112 8.96506 162.953 8.50565C161.451 8.18777 159.899 8.38863 158.197 9.23519C155.376 10.6406 152.409 10.8225 149.513 9.6682C147.763 8.97009 146.054 8.76715 144.364 8.99692C141.836 9.33966 139.31 9.16726 136.82 8.49245C135.268 8.0723 133.698 8.15385 132.028 8.84686C129.383 9.9441 126.667 10.2397 123.942 9.64387C121.756 9.16486 119.557 8.64718 117.373 8.09504C115.624 7.65423 113.875 7.62984 112.11 8.02519C109.758 8.55144 107.401 8.82919 105.042 8.83976C102.74 8.84966 100.436 8.67375 98.1431 8.3256C96.112 8.01681 94.0667 7.8711 92.0338 7.86665C89.9982 7.86244 87.9548 7.99099 85.9094 8.28132C83.6987 8.59509 81.4891 8.8575 79.2794 9.06182C76.584 9.31089 73.9387 8.7798 71.3988 7.55282C70.0324 6.89213 68.7412 6.8989 67.2774 7.64828C64.5793 9.03508 61.727 9.45617 58.8736 8.73113C56.7007 8.17894 54.5212 7.59664 52.3494 6.99581C50.4312 6.46593 48.5239 6.21207 46.6198 6.2313C44.8156 6.25023 42.9637 6.63317 41.065 7.40484C38.1542 8.58744 35.1903 8.42828 32.3746 7.00546C30.5803 6.09799 28.8479 5.71927 27.1734 5.77149C24.911 5.8418 22.6512 5.77504 20.3934 5.59229C18.297 5.42237 16.1924 5.32961 14.0937 5.31732Z" fill="black"/>
<path d="M54.4552 28.6529C53.8311 28.6422 53.3757 28.3049 53.0889 27.6411C52.9556 27.3267 52.8202 27.1371 52.6826 27.0723C52.5794 27.022 52.306 26.993 51.8622 26.9853C50.9886 26.9703 49.9681 27.6324 48.8006 28.9717C47.1662 30.8439 46.3348 32.6085 46.3062 34.2657C46.2932 35.0214 46.5351 35.6741 47.032 36.2236C47.5288 36.7731 48.1308 37.054 48.838 37.0662C49.5245 37.078 50.2244 36.9097 50.9378 36.5614C51.1897 36.4339 51.7225 36.1033 52.5362 35.5694C53.0833 35.2181 53.4954 35.0449 53.7728 35.0497C54.1888 35.0569 54.5398 35.2155 54.8257 35.5256C55.0913 35.8145 55.2208 36.1427 55.2145 36.5102C55.2075 36.9193 55.021 37.2732 54.6552 37.5721C52.7208 39.1479 50.7656 39.9187 48.7895 39.8847C47.2294 39.8578 45.9219 39.2666 44.8668 38.1109C43.8595 36.9978 43.3686 35.6993 43.3941 34.2155C43.4342 31.8928 44.4908 29.539 46.564 27.1542C48.3258 25.1316 50.1081 24.1358 51.9108 24.1668C52.2159 24.1721 52.4895 24.1872 52.7319 24.2122C52.9811 24.2373 53.199 24.2723 53.3855 24.3171C53.6957 24.0242 54.0657 23.8815 54.4956 23.8889C55.2028 23.901 55.6327 24.3142 55.7851 25.1283C55.8929 25.7127 55.9402 26.3932 55.9268 27.1698C55.9208 27.5165 55.8148 27.8302 55.6089 28.111C55.339 28.4809 54.9544 28.6615 54.4552 28.6529ZM65.8755 32.4284C65.7948 33.4882 65.3038 34.0103 64.4024 33.9948C63.5288 33.9797 63.0998 33.5215 63.1153 32.6202L63.0814 31.5688C61.517 31.7916 60.3869 32.5732 59.6911 33.9136L59.6114 39.1452C59.6046 39.5404 59.4638 39.8639 59.1889 40.1158C58.914 40.3746 58.5685 40.5005 58.1525 40.4933C57.7226 40.4859 57.3922 40.3415 57.1612 40.0601C56.9437 39.8067 56.8382 39.4858 56.8449 39.0975L56.9622 32.2853C56.9659 32.0704 56.9784 31.7515 56.9995 31.3288C57.0208 30.8992 57.0333 30.5769 57.037 30.362C57.0437 29.9737 57.1636 29.6532 57.3969 29.4006C57.6371 29.1412 57.9722 29.0152 58.4021 29.0226C59.1717 29.0359 59.6225 29.439 59.7545 30.2319C60.9975 29.3378 62.3678 28.9037 63.8655 28.9295C65.2522 28.9534 65.9297 29.8875 65.8979 31.7318C65.8918 32.0854 65.8843 32.3176 65.8755 32.4284ZM72.4983 40.5219C70.8412 40.4934 69.4925 40.0748 68.4522 39.2662C67.3024 38.3726 66.7412 37.1318 66.7686 35.544C66.7988 33.7898 67.2854 32.314 68.2285 31.1165C69.2778 29.7891 70.6726 29.1404 72.413 29.1703C73.6194 29.1911 74.618 29.4025 75.4086 29.8045C76.4467 30.3356 76.9565 31.142 76.9379 32.2236C76.9247 32.9863 76.4867 33.655 75.6237 34.2297C75.2308 34.4934 74.4439 34.8752 73.2632 35.375L69.7316 36.8643C70.0582 37.2306 70.4557 37.5079 70.9241 37.6963C71.3924 37.8847 71.9317 37.9841 72.5418 37.9946C73.4709 38.0107 74.2612 37.8335 74.9126 37.4633C75.4939 37.1335 75.9579 36.9715 76.3046 36.9775C77.0257 36.9899 77.3802 37.3463 77.3681 38.0466C77.3545 38.837 76.7645 39.4718 75.598 39.9511C74.6201 40.3504 73.5869 40.5407 72.4983 40.5219ZM72.3696 31.6872C71.7248 31.6761 71.1699 31.8815 70.7048 32.3035C70.2398 32.7255 69.8612 33.364 69.5691 34.219C70.3584 33.8928 71.1442 33.5699 71.9265 33.2505C72.8699 32.8437 73.622 32.4648 74.1829 32.1138C73.7228 31.8423 73.1184 31.7001 72.3696 31.6872ZM88.1472 40.9996C87.8283 40.9941 87.3281 40.6387 86.6467 39.9334C86.0036 40.2275 85.438 40.4466 84.95 40.5908C84.4619 40.7419 84.048 40.8145 83.7083 40.8087C82.0373 40.7799 80.79 40.311 79.9665 39.4022C79.1498 38.4934 78.7569 37.1481 78.7876 35.3661C78.8163 33.6951 79.458 32.2775 80.7126 31.1131C81.9673 29.9418 83.4545 29.3709 85.174 29.4005C85.8327 29.4119 86.5921 29.6122 87.4524 30.0016C88.4916 30.4703 89.0061 31.0028 88.9958 31.5991C88.9915 31.8487 88.908 32.0657 88.7453 32.2502C88.6712 32.5263 88.6097 32.8755 88.5608 33.2977C88.519 33.7132 88.4932 34.2017 88.4835 34.7633C88.4607 36.0876 88.5379 37.0426 88.7151 37.6282C88.7348 37.691 88.8881 38.0543 89.1749 38.7181C89.435 39.319 89.5643 39.6611 89.5629 39.7443C89.5566 40.1118 89.4092 40.4144 89.1207 40.6522C88.8392 40.8901 88.5147 41.0059 88.1472 40.9996ZM85.6908 33.8205C85.6947 33.5986 85.7129 33.3458 85.7455 33.062C85.7852 32.7714 85.8393 32.4498 85.9078 32.0973C85.7703 32.0255 85.6463 31.9749 85.5359 31.9452C85.4325 31.9088 85.3426 31.8899 85.2664 31.8886C84.3234 31.8723 83.4919 32.229 82.7719 32.9588C82.052 33.6815 81.6837 34.5283 81.667 35.499C81.651 36.4281 81.8054 37.1312 82.1301 37.6084C82.4549 38.0787 82.9501 38.3196 83.6157 38.331C84.0456 38.3384 84.4524 38.2761 84.8361 38.144C85.2269 38.0051 85.5946 37.7999 85.9391 37.5284C85.7595 35.8746 85.6768 34.6387 85.6908 33.8205ZM98.506 32.1166C98.3604 32.1141 98.1871 32.1076 97.9862 32.0972C97.7923 32.08 97.6225 32.0702 97.4769 32.0677C97.1926 32.0628 96.8628 32.0848 96.4874 32.1339C96.564 34.9372 96.5949 36.7687 96.5801 37.6285C96.5785 37.7186 96.579 37.8885 96.5817 38.1382C96.5844 38.381 96.5845 38.5787 96.5819 38.7312C96.5544 40.326 96.038 41.1147 95.0326 41.0973C94.6513 41.0908 94.324 40.9672 94.0507 40.7267C93.7499 40.4719 93.6027 40.1572 93.6092 39.7828C93.6135 39.5332 93.6303 39.159 93.6597 38.6601C93.6891 38.1612 93.706 37.787 93.7103 37.5374C93.7247 36.6984 93.6933 34.9016 93.6159 32.1468C93.1863 32.1186 92.5355 32.0519 91.6635 31.9467C90.7985 31.8347 90.3729 31.3766 90.3867 30.5723C90.3934 30.184 90.5308 29.8569 90.799 29.5911C91.0671 29.3252 91.4092 29.1958 91.8252 29.203C92.0817 29.2074 92.6704 29.2592 93.5911 29.3583C93.588 29.1363 93.577 28.7685 93.5581 28.2549C93.538 27.8107 93.53 27.4673 93.5342 27.2246C93.5409 26.8363 93.6886 26.5163 93.9773 26.2647C94.266 26.0131 94.6114 25.8907 95.0135 25.8976C96.0397 25.9153 96.5379 26.7874 96.5082 28.5138L96.4727 29.3663C96.9036 29.3113 97.2543 29.2861 97.5247 29.2908C98.3221 29.3045 98.8655 29.3659 99.1549 29.4749C99.7062 29.6786 99.9763 30.1063 99.9651 30.7581C99.9583 31.1533 99.8174 31.4803 99.5424 31.7391C99.2675 31.9979 98.922 32.1238 98.506 32.1166ZM106.299 41.1042C104.642 41.0756 103.294 40.6571 102.253 39.8485C101.104 38.9548 100.542 37.714 100.57 36.1263C100.6 34.3721 101.086 32.8962 102.03 31.6987C103.079 30.3713 104.474 29.7226 106.214 29.7526C107.42 29.7733 108.419 29.9847 109.21 30.3868C110.248 30.9179 110.758 31.7242 110.739 32.8059C110.726 33.5686 110.288 34.2372 109.425 34.8119C109.032 35.0756 108.245 35.4574 107.064 35.9572L103.533 37.4465C103.859 37.8128 104.257 38.0901 104.725 38.2785C105.194 38.4669 105.733 38.5664 106.343 38.5769C107.272 38.5929 108.062 38.4158 108.714 38.0455C109.295 37.7157 109.759 37.5538 110.106 37.5597C110.827 37.5722 111.181 37.9285 111.169 38.6288C111.156 39.4192 110.566 40.0541 109.399 40.5333C108.421 40.9326 107.388 41.1229 106.299 41.1042ZM106.171 32.2694C105.526 32.2583 104.971 32.4638 104.506 32.8858C104.041 33.3078 103.662 33.9463 103.37 34.8012C104.16 34.475 104.945 34.1522 105.728 33.8327C106.671 33.4259 107.423 33.047 107.984 32.696C107.524 32.4245 106.92 32.2823 106.171 32.2694ZM131.184 41.7409C130.865 41.7354 130.365 41.38 129.683 40.6747C129.04 40.9688 128.475 41.1879 127.987 41.3321C127.499 41.4832 127.085 41.5558 126.745 41.55C125.074 41.5212 123.827 41.0524 123.003 40.1435C122.186 39.2347 121.793 37.8894 121.824 36.1074C121.853 34.4365 122.495 33.0188 123.749 31.8544C125.004 30.6831 126.491 30.1122 128.211 30.1419C128.869 30.1532 129.629 30.3535 130.489 30.7429C131.528 31.2116 132.043 31.7441 132.032 32.3404C132.028 32.59 131.945 32.807 131.782 32.9915C131.708 33.2676 131.646 33.6168 131.597 34.0391C131.556 34.4545 131.53 34.943 131.52 35.5046C131.497 36.8289 131.574 37.7839 131.752 38.3695C131.771 38.4323 131.925 38.7956 132.211 39.4594C132.472 40.0604 132.601 40.4024 132.599 40.4856C132.593 40.8531 132.446 41.1557 132.157 41.3935C131.876 41.6314 131.551 41.7472 131.184 41.7409ZM128.727 34.5618C128.731 34.3399 128.749 34.0871 128.782 33.8033C128.822 33.5127 128.876 33.1911 128.944 32.8386C128.807 32.7669 128.683 32.7162 128.572 32.6865C128.469 32.6501 128.379 32.6312 128.303 32.6299C127.36 32.6136 126.529 32.9704 125.809 33.7001C125.089 34.4228 124.72 35.2696 124.704 36.2403C124.688 37.1694 124.842 37.8725 125.167 38.3497C125.491 38.82 125.987 39.0609 126.652 39.0724C127.082 39.0798 127.489 39.0174 127.873 38.8853C128.263 38.7464 128.631 38.5412 128.976 38.2697C128.796 36.6159 128.713 35.38 128.727 34.5618ZM156.751 32.3292C155.976 35.0346 155.202 37.4904 154.429 39.6965C154.21 40.3169 153.86 40.9524 153.377 41.603C153.036 42.0549 152.588 42.2725 152.034 42.2561C151.16 42.2271 150.488 41.3729 150.018 39.6933C149.842 39.0522 149.64 37.8593 149.414 36.1145C149.263 36.4171 149.169 36.6201 149.133 36.7235C148.758 37.577 148.208 38.9027 147.483 40.7004C147.374 40.9898 147.214 41.2194 147.003 41.3891C146.704 41.8487 146.266 42.0839 145.69 42.0948C145.364 42.103 145.026 41.8059 144.676 41.2034C144.305 40.5936 144.01 39.8118 143.79 38.8578C143.59 37.9943 143.29 36.1165 142.889 33.2244C142.802 32.5987 142.762 32.1091 142.768 31.7555C142.775 31.3741 142.923 31.0611 143.211 30.8164C143.507 30.5649 143.856 30.4426 144.258 30.4495C145.007 30.4624 145.461 30.8413 145.622 31.5861C145.705 31.976 145.773 32.4557 145.826 33.0253C145.895 33.8449 145.939 34.3277 145.957 34.4737C146.038 35.016 146.161 35.9025 146.327 37.1329C146.865 35.7342 147.484 33.9937 148.186 31.9112C148.486 31.0147 149.027 30.5733 149.811 30.5867C150.58 30.6 151.078 31.1114 151.303 32.121C151.464 32.8312 151.632 33.753 151.807 34.8865C152.063 36.5347 152.219 37.5153 152.277 37.8284C152.343 37.6145 152.923 35.5161 154.018 31.5331C154.181 30.9394 154.62 30.6488 155.334 30.6611C155.729 30.6679 156.073 30.8021 156.367 31.0638C156.668 31.3256 156.815 31.6472 156.808 32.0285C156.807 32.0978 156.788 32.1981 156.751 32.3292ZM162.147 42.2014C160.864 42.1793 159.769 41.72 158.862 40.8236C157.867 39.8424 157.358 38.5471 157.338 36.9376C157.315 35.4045 157.758 34.0458 158.667 32.8616C159.745 31.4653 161.223 30.7833 163.102 30.8157C164.489 30.8396 165.582 31.4133 166.381 32.5367C167.099 33.5478 167.445 34.7918 167.42 36.2686C167.392 37.8772 166.938 39.2427 166.059 40.3649C165.073 41.6172 163.769 42.2293 162.147 42.2014ZM162.92 33.5591C162.067 33.5374 161.388 33.9141 160.882 34.6891C160.455 35.3407 160.234 36.1067 160.218 36.9873C160.204 37.8193 160.429 38.4612 160.893 38.9131C161.261 39.2732 161.695 39.4575 162.194 39.4661C162.797 39.4765 163.324 39.281 163.775 38.8795C164.289 38.4098 164.571 37.7662 164.62 36.9486C164.748 34.7176 164.182 33.5877 162.92 33.5591ZM177.929 34.3586C177.848 35.4183 177.357 35.9404 176.456 35.9249C175.582 35.9099 175.153 35.4517 175.168 34.5503L175.135 33.499C173.57 33.7217 172.44 34.5033 171.744 35.8438L171.665 41.0753C171.658 41.4705 171.517 41.7941 171.242 42.0459C170.967 42.3048 170.622 42.4306 170.206 42.4234C169.776 42.416 169.445 42.2716 169.214 41.9902C168.997 41.7368 168.891 41.4159 168.898 41.0277L169.015 34.2154C169.019 34.0005 169.032 33.6817 169.053 33.259C169.074 32.8293 169.086 32.507 169.09 32.2921C169.097 31.9038 169.217 31.5834 169.45 31.3308C169.69 31.0714 170.025 30.9453 170.455 30.9528C171.225 30.966 171.676 31.3691 171.808 32.162C173.051 31.2679 174.421 30.8338 175.919 30.8596C177.305 30.8835 177.983 31.8176 177.951 33.6619C177.945 34.0155 177.938 34.2477 177.929 34.3586ZM188.057 42.4604C187.51 42.451 187.098 42.1804 186.823 41.6485C186.494 41.0117 185.997 40.2576 185.333 39.3861C184.302 38.0298 183.756 37.3095 183.695 37.2252C183.133 37.6247 182.67 37.9288 182.306 38.1376C182.22 39.1001 182.169 40.0217 182.154 40.9023C182.147 41.3044 182.006 41.6349 181.731 41.8937C181.456 42.1525 181.111 42.2784 180.695 42.2712C179.717 42.2544 179.239 41.6635 179.259 40.4987C179.268 39.9509 179.32 39.1334 179.415 38.0462C179.517 36.9521 179.573 36.1312 179.583 35.5834C179.6 34.5781 179.633 33.4308 179.683 32.1416C179.74 30.8457 179.777 29.7019 179.795 28.7104C179.8 28.4123 179.788 28.0618 179.761 27.6591C179.74 27.2495 179.732 26.8957 179.737 26.5976C179.744 26.1954 179.885 25.8684 180.16 25.6165C180.435 25.3577 180.78 25.2319 181.196 25.239C181.612 25.2462 181.953 25.3838 182.219 25.652C182.485 25.9132 182.615 26.2449 182.608 26.647C182.603 26.9521 182.614 27.3129 182.641 27.7295C182.669 28.1461 182.68 28.507 182.675 28.8121C182.66 29.6372 182.623 30.6144 182.562 31.7439C182.501 32.8248 182.467 33.7883 182.46 34.6343C183.415 33.9225 184.873 32.6229 186.834 30.7355C187.144 30.4357 187.494 30.2891 187.882 30.2958C188.27 30.3025 188.611 30.4506 188.904 30.74C189.197 31.0294 189.341 31.3613 189.334 31.7357C189.329 32.0546 189.188 32.3609 188.913 32.6543C188.079 33.5555 187.088 34.4955 185.941 35.4745L188.056 38.299C189.079 39.7107 189.587 40.6488 189.579 41.1134C189.572 41.4947 189.414 41.8145 189.104 42.0727C188.795 42.3379 188.446 42.4671 188.057 42.4604ZM195.095 42.7689C193.812 42.7468 192.718 42.2876 191.811 41.3911C190.815 40.4099 190.307 39.1146 190.286 37.5052C190.264 35.972 190.707 34.6133 191.615 33.4291C192.693 32.0328 194.172 31.3509 196.051 31.3832C197.437 31.4071 198.53 31.9808 199.329 33.1043C200.047 34.1153 200.393 35.3593 200.368 36.8362C200.34 38.4448 199.887 39.8102 199.007 40.9325C198.022 42.1847 196.718 42.7969 195.095 42.7689ZM195.868 34.1266C195.015 34.105 194.336 34.4817 193.83 35.2567C193.403 35.9082 193.182 36.6742 193.167 37.5548C193.152 38.3868 193.377 39.0288 193.841 39.4806C194.209 39.8407 194.643 40.025 195.142 40.0336C195.745 40.044 196.272 39.8485 196.723 39.4471C197.238 38.9774 197.519 38.3337 197.568 37.5162C197.697 35.2851 197.13 34.1553 195.868 34.1266ZM211.247 36.4202C211.239 36.8847 211.23 37.5851 211.221 38.5212C211.212 39.4574 211.203 40.1577 211.195 40.6222C211.192 40.7679 211.199 40.9864 211.215 41.278C211.238 41.5628 211.248 41.7779 211.245 41.9235C211.239 42.3118 211.091 42.6283 210.802 42.873C210.521 43.1248 210.175 43.2472 209.766 43.2401C209.191 43.2302 208.776 42.963 208.521 42.4384C207.628 42.749 206.707 42.8961 205.757 42.8797C204.772 42.8628 203.947 42.6405 203.282 42.2129C202.534 41.7215 202.096 41.0169 201.966 40.0992C201.725 38.3611 201.617 36.8091 201.64 35.4432C201.656 34.5419 201.777 33.514 202.005 32.3597C202.158 31.5786 202.632 31.1949 203.43 31.2086C203.832 31.2156 204.173 31.3498 204.453 31.6112C204.733 31.8657 204.869 32.1871 204.863 32.5754C204.857 32.8804 204.797 33.358 204.682 34.0079C204.574 34.658 204.517 35.1529 204.511 35.4927C204.494 36.4703 204.51 37.3271 204.56 38.0632C204.617 38.7924 204.707 39.3973 204.83 39.878C205.003 39.9573 205.168 40.0191 205.327 40.0634C205.492 40.1079 205.651 40.1314 205.804 40.1341C206.574 40.1473 207.421 40.0509 208.347 39.845C208.357 39.3111 208.364 38.7043 208.368 38.0247C208.368 37.2133 208.372 36.6307 208.378 36.2771C208.402 34.8557 208.489 33.6296 208.639 32.5988C208.757 31.7755 209.235 31.3711 210.074 31.3855C210.484 31.3926 210.831 31.5269 211.118 31.7884C211.405 32.05 211.535 32.3747 211.507 32.7626C211.33 35.4021 211.243 36.6212 211.247 36.4202ZM220.606 34.2198C220.46 34.2173 220.287 34.2108 220.086 34.2004C219.892 34.1832 219.722 34.1734 219.577 34.1709C219.293 34.166 218.963 34.188 218.587 34.237C218.664 37.0403 218.695 38.8719 218.68 39.7316C218.678 39.8218 218.679 39.9917 218.682 40.2414C218.684 40.4842 218.684 40.6819 218.682 40.8344C218.654 42.4292 218.138 43.2179 217.133 43.2005C216.751 43.194 216.424 43.0704 216.151 42.8299C215.85 42.575 215.703 42.2604 215.709 41.886C215.713 41.6364 215.73 41.2622 215.76 40.7633C215.789 40.2644 215.806 39.8902 215.81 39.6406C215.825 38.8016 215.793 37.0048 215.716 34.25C215.286 34.2218 214.635 34.1551 213.763 34.0499C212.898 33.9379 212.473 33.4798 212.487 32.6755C212.493 32.2872 212.631 31.9601 212.899 31.6943C213.167 31.4284 213.509 31.299 213.925 31.3062C214.182 31.3106 214.77 31.3624 215.691 31.4615C215.688 31.2395 215.677 30.8717 215.658 30.3581C215.638 29.9139 215.63 29.5705 215.634 29.3278C215.641 28.9395 215.788 28.6195 216.077 28.3679C216.366 28.1162 216.711 27.9939 217.113 28.0008C218.14 28.0185 218.638 28.8906 218.608 30.617L218.573 31.4695C219.004 31.4145 219.354 31.3893 219.625 31.394C220.422 31.4077 220.965 31.4691 221.255 31.5781C221.806 31.7818 222.076 32.2095 222.065 32.8613C222.058 33.2565 221.917 33.5835 221.642 33.8423C221.367 34.1011 221.022 34.227 220.606 34.2198ZM237.196 43.4941C236.599 43.4838 235.973 43.4037 235.317 43.2537L235.233 47.4968C235.226 47.899 235.085 48.2295 234.81 48.4883C234.536 48.7471 234.19 48.8729 233.774 48.8658C233.358 48.8586 233.017 48.7209 232.751 48.4528C232.485 48.1847 232.356 47.8495 232.363 47.4474C232.368 47.1215 232.398 45.8285 232.45 43.5684C232.493 41.8907 232.517 40.5214 232.521 39.4603C232.526 37.9623 232.5 36.6718 232.442 35.5889C232.364 34.0964 232.324 33.4125 232.322 33.5373C232.331 32.9618 232.468 32.4718 232.732 32.0671C233.038 31.6077 233.444 31.3823 233.95 31.391C234.338 31.3977 234.662 31.5351 234.921 31.8031C235.18 32.0711 235.306 32.3889 235.3 32.7563L235.288 32.8602C235.757 32.6047 236.225 32.4186 236.691 32.3018C237.165 32.1781 237.638 32.1204 238.109 32.1285C239.704 32.156 240.857 32.8521 241.569 34.2168C242.099 35.2454 242.35 36.571 242.322 38.1934C242.296 39.7119 241.841 40.9629 240.957 41.9464C240.01 43.0051 238.756 43.521 237.196 43.4941ZM238.061 34.9054C237.625 34.8979 237.179 34.9942 236.725 35.1945C236.271 35.3878 235.811 35.685 235.347 36.0862C235.405 37.516 235.422 38.9485 235.397 40.3837C236.011 40.5954 236.626 40.7066 237.244 40.7172C237.958 40.7295 238.51 40.4859 238.9 39.9863C239.254 39.5347 239.438 38.9206 239.452 38.144C239.468 37.208 239.437 36.559 239.36 36.197C239.174 35.3476 238.741 34.9171 238.061 34.9054ZM247.03 41.5204C247.007 42.8378 246.517 43.4882 245.56 43.4717C245.144 43.4646 244.803 43.3269 244.538 43.0588C244.272 42.7907 244.142 42.4486 244.15 42.0326L244.397 27.6489C244.404 27.2468 244.555 26.9199 244.851 26.6684C245.133 26.4374 245.478 26.3255 245.887 26.3325C246.296 26.3396 246.63 26.4702 246.889 26.7243C247.149 26.9715 247.275 27.2962 247.268 27.6984L247.03 41.5204ZM258.609 43.9358C258.29 43.9303 257.79 43.5749 257.108 42.8696C256.465 43.1637 255.899 43.3828 255.411 43.527C254.923 43.6781 254.509 43.7507 254.17 43.7449C252.499 43.7161 251.251 43.2473 250.428 42.3384C249.611 41.4296 249.218 40.0843 249.249 38.3024C249.278 36.6314 249.92 35.2137 251.174 34.0493C252.429 32.878 253.916 32.3071 255.635 32.3368C256.294 32.3481 257.054 32.5485 257.914 32.9378C258.953 33.4065 259.468 33.939 259.457 34.5353C259.453 34.7849 259.369 35.0019 259.207 35.1864C259.133 35.4625 259.071 35.8117 259.022 36.234C258.98 36.6494 258.955 37.1379 258.945 37.6995C258.922 39.0238 258.999 39.9788 259.177 40.5644C259.196 40.6272 259.35 40.9905 259.636 41.6543C259.896 42.2553 260.026 42.5973 260.024 42.6805C260.018 43.048 259.871 43.3506 259.582 43.5884C259.301 43.8263 258.976 43.9421 258.609 43.9358ZM256.152 36.7567C256.156 36.5348 256.174 36.282 256.207 35.9982C256.247 35.7076 256.301 35.386 256.369 35.0335C256.232 34.9618 256.108 34.9111 255.997 34.8814C255.894 34.845 255.804 34.8261 255.728 34.8248C254.785 34.8085 253.953 35.1653 253.233 35.895C252.514 36.6177 252.145 37.4645 252.128 38.4352C252.112 39.3643 252.267 40.0674 252.592 40.5447C252.916 41.0149 253.412 41.2558 254.077 41.2673C254.507 41.2747 254.914 41.2123 255.298 41.0802C255.688 40.9413 256.056 40.7361 256.401 40.4646C256.221 38.8108 256.138 37.5749 256.152 36.7567ZM269.663 44.1782C268.811 44.1635 268.343 43.7359 268.26 42.8952C268.175 42.1794 268.091 41.4601 268.006 40.7373C267.915 39.9729 267.876 39.2543 267.887 38.5818C267.89 38.4015 267.906 38.0932 267.934 37.6567C267.97 37.2204 267.989 36.9121 267.992 36.7318C267.993 36.6832 268.002 36.562 268.019 36.3681C268.036 36.1673 268.046 36.0045 268.048 35.8797C268.058 35.3042 267.914 35.0139 267.616 35.0087C266.978 34.9978 266.344 35.3614 265.714 36.0996C265.091 36.8309 264.596 37.7657 264.23 38.9037C264.212 39.1323 264.176 39.4368 264.121 39.8173C264.074 40.1286 264.048 40.4333 264.042 40.7315C264.039 40.9256 264.055 41.2207 264.09 41.6166C264.131 42.0057 264.151 42.2973 264.147 42.4915C264.141 42.8867 263.996 43.2102 263.715 43.4619C263.44 43.7208 263.094 43.8466 262.678 43.8394C262.262 43.8323 261.921 43.6946 261.655 43.4265C261.389 43.1653 261.26 42.8371 261.266 42.4419C261.27 42.2477 261.254 41.9561 261.219 41.5671C261.184 41.1712 261.169 40.8762 261.172 40.682C261.183 40.0164 261.248 39.0916 261.365 37.9077C261.483 36.7237 261.547 35.7989 261.559 35.1333C261.562 34.9253 261.554 34.6165 261.533 34.2069C261.52 33.7906 261.514 33.4818 261.518 33.2808C261.525 32.8925 261.669 32.5759 261.95 32.3311C262.239 32.0795 262.588 31.9572 262.997 31.9642C263.905 31.9799 264.381 32.5325 264.425 33.6221L264.433 33.7367C265.463 32.7349 266.54 32.2437 267.663 32.2631C268.974 32.2856 269.869 32.849 270.349 33.9531C270.669 34.6938 270.817 35.7956 270.792 37.2586L270.779 37.997C270.767 38.3158 270.759 38.5411 270.757 38.6728C270.748 39.2137 270.808 39.9117 270.939 40.7671C271.077 41.6225 271.141 42.3172 271.132 42.8511C271.126 43.2394 270.981 43.5594 270.7 43.8111C270.418 44.0629 270.072 44.1853 269.663 44.1782ZM274.139 40.4268C273.751 40.4202 273.43 40.2933 273.178 40.0462C272.933 39.7992 272.813 39.492 272.819 39.1245C272.824 38.8541 272.821 38.4518 272.809 37.9175C272.804 37.3765 272.804 36.9707 272.809 36.7003C272.826 35.7435 272.857 34.3084 272.904 32.3949C272.958 30.4816 272.993 29.0466 273.009 28.0897C273.016 27.7223 273.149 27.4194 273.41 27.1811C273.671 26.936 273.992 26.8166 274.373 26.8232C274.755 26.8298 275.071 26.9601 275.324 27.2141C275.576 27.4612 275.699 27.7685 275.693 28.136L275.503 39.1707C275.496 39.5382 275.363 39.8411 275.102 40.0793C274.848 40.3177 274.527 40.4335 274.139 40.4268ZM274.043 44.2016C273.627 44.1945 273.242 43.9659 272.889 43.5159C272.571 43.1013 272.414 42.7171 272.42 42.3635C272.427 42.0029 272.574 41.7038 272.862 41.466C273.151 41.2282 273.475 41.1124 273.836 41.1187C274.252 41.1258 274.633 41.3543 274.979 41.8042C275.298 42.2189 275.454 42.5995 275.448 42.9462C275.442 43.2998 275.295 43.599 275.006 43.8437C274.724 44.0885 274.403 44.2078 274.043 44.2016Z" fill="black"/>
</svg>
