<svg width="335" height="67" viewBox="0 0 335 67" fill="none" xmlns="http://www.w3.org/2000/svg">
<path d="M3.79004 21.495C3.79004 11.7523 11.6881 3.85425 21.4308 3.85425H313.385C323.128 3.85425 331.026 11.7523 331.026 21.495V45.31C331.026 55.0527 323.128 62.9508 313.385 62.9508H21.4308C11.6881 62.9508 3.79004 55.0527 3.79004 45.31V21.495Z" fill="#EEEEEE"/>
<path d="M37.5073 0.443244L39.2231 0.918717L40.9183 1.39419C41.8196 1.65037 42.7129 1.7745 43.5851 1.7663L45.3009 1.74563H46.9961C48.1824 1.73361 49.3863 1.75447 50.5725 1.80765L52.2676 1.86966L53.9835 1.95235C54.9675 1.99611 55.9526 1.95355 56.9397 1.82832L58.6555 1.62159L60.3507 1.39419C61.6299 1.2319 62.9135 1.17761 64.1958 1.22881L65.9117 1.29083L67.6275 1.37352C68.7708 1.4197 69.9159 1.4614 71.0592 1.51823L72.7543 1.60092L74.4702 1.68361C75.6207 1.7408 76.7721 1.81592 77.9225 1.89034L79.6384 1.9937L81.3335 2.11774C82.3383 2.18273 83.3464 2.16125 84.3518 2.07639L86.0676 1.93168L87.7628 1.78697C89.075 1.67589 90.4005 1.69988 91.7113 1.84899L93.4064 2.03505L95.1223 2.24177C96.0097 2.34245 96.896 2.30914 97.789 2.15908L99.5049 1.86966L104.59 1.00141L106.306 0.691317L108.001 0.381225C109.59 0.0933887 111.173 0.224067 112.715 0.732662L114.431 1.29083L116.126 1.84899C116.734 2.04952 117.3 2.04272 117.904 1.84899L119.619 1.3115L121.315 0.753335C122.785 0.281063 124.303 0.120415 125.821 0.277862L127.516 0.463916L129.232 0.629299C130.233 0.732826 131.231 0.761651 132.23 0.71199L133.946 0.629299L135.641 0.546607C136.802 0.48845 137.973 0.447002 139.135 0.422571L140.85 0.381225L142.546 0.33988C143.955 0.310303 145.362 0.508522 146.742 0.898044L148.458 1.37352L150.153 1.84899C150.875 2.05286 151.579 2.06788 152.282 1.91101L153.978 1.5389L155.693 1.16679C157.182 0.835488 158.685 0.794587 160.179 1.0841L161.895 1.43554L163.59 1.7663C164.471 1.93711 165.346 1.96135 166.216 1.86966L167.932 1.68361L169.648 1.51823C170.771 1.3988 171.894 1.25953 173.017 1.12544L174.733 0.918717L176.428 0.71199C177.835 0.544097 179.247 0.59447 180.645 0.856699L182.361 1.18746L184.056 1.49755C185.025 1.67926 185.991 1.77432 186.951 1.7663L190.382 1.72495C191.443 1.71513 192.505 1.67931 193.566 1.58025L195.282 1.41486L196.977 1.24948C198.209 1.13446 199.444 1.08663 200.677 1.10477L202.393 1.12544L204.088 1.14612C205.358 1.1648 206.628 1.29101 207.892 1.49755L209.608 1.7663L211.303 2.05572C212.091 2.18439 212.879 2.15894 213.681 1.97303L215.396 1.55957L217.112 1.16679C218.356 0.876546 219.603 0.670063 220.854 0.546607L222.57 0.381225L224.265 0.215843C225.543 0.089989 226.831 0.0708642 228.11 0.153825L231.542 0.360553C232.866 0.447559 234.185 0.676912 235.49 1.04275L237.185 1.51823L238.901 2.01437C239.739 2.24899 240.555 2.31187 241.361 2.24177L243.077 2.09706L244.772 1.95235C245.833 1.85898 246.913 1.70543 247.977 1.51823L249.672 1.22881L251.388 0.918717C252.758 0.678108 254.144 0.638402 255.522 0.774008L257.217 0.93939L258.933 1.10477C259.819 1.19143 260.705 1.1432 261.6 0.980735L263.316 0.670644L265.011 0.360553C266.548 0.0804657 268.108 0.170782 269.621 0.587953L271.316 1.04275L273.032 1.51823C273.715 1.70541 274.378 1.70032 275.058 1.51823L276.753 1.06343L278.469 0.608626C279.991 0.201931 281.539 0.154509 283.079 0.463916L284.795 0.815353L286.49 1.14612C287.535 1.35669 288.592 1.50711 289.632 1.60092L291.327 1.7663L293.043 1.91101C294.033 2.0001 295.031 2.00877 296.02 1.93168L297.715 1.80765L299.431 1.66294C300.643 1.56869 301.856 1.52608 303.069 1.5389L304.785 1.55957L306.48 1.58025C307.433 1.59036 308.413 1.50343 309.395 1.3115L311.111 0.980735L312.848 0.629299C314.643 0.279328 316.386 0.597993 317.954 1.5389L319.463 2.4485L320.993 3.3581C322.128 4.03971 323.162 4.79962 324.094 5.6321L325.293 6.68642L326.492 7.7614C327.343 8.52236 328.195 9.34814 329.034 10.2215L330.233 11.4618L331.412 12.7022C332.592 13.9301 333.324 15.4224 333.582 17.1055L333.851 18.842L334.12 20.5578C334.318 21.8468 334.419 23.1415 334.409 24.4236L334.389 26.1395L334.368 27.8346C334.359 29.0401 334.307 30.2476 334.203 31.4524L334.058 33.1682L333.913 34.8634C333.819 35.9491 333.739 37.0444 333.707 38.1297L333.665 39.8455L333.603 41.5407C333.564 42.8331 333.413 44.118 333.148 45.3651L332.818 46.9983L332.466 48.6314C332.237 49.7107 331.994 50.8212 331.763 51.9597L331.433 53.6756L331.081 55.3914C330.717 57.1932 329.739 58.6988 328.249 59.774L325.396 61.8413C324.083 62.7866 322.597 63.3615 320.993 63.5158L319.318 63.6812L317.644 63.8259C316.522 63.9338 315.4 64.0531 314.295 64.1567L312.641 64.3014L310.987 64.4668C309.754 64.582 308.506 64.598 307.245 64.5288L305.53 64.4461L303.834 64.3427C302.862 64.2892 301.875 64.3173 300.899 64.4461L299.204 64.6735L297.488 64.9009C296.201 65.0704 294.912 65.1406 293.622 65.0869L291.906 65.0043L290.211 64.9422C289.161 64.8986 288.099 64.9023 287.048 64.9629L285.353 65.0663L283.637 65.1696C282.649 65.2271 281.658 65.3617 280.66 65.5831L278.944 65.9552L277.249 66.348C275.905 66.6467 274.536 66.7761 273.177 66.7408L271.482 66.6994L269.766 66.6374C268.664 66.6088 267.559 66.6222 266.458 66.6374L264.763 66.6581L263.047 66.6787C261.6 66.6987 260.169 66.4624 258.768 65.9965L257.052 65.4177L255.357 64.8595C254.64 64.6209 253.961 64.5835 253.29 64.7148L251.574 65.0456L249.878 65.3764C248.407 65.6666 246.907 65.681 245.434 65.397L243.739 65.0663L242.023 64.7355C241.121 64.5622 240.227 64.5172 239.335 64.5908L237.62 64.7355L235.924 64.8802C234.769 64.9757 233.607 65.0567 232.451 65.1283L230.756 65.2317L229.04 65.335C228.01 65.3989 226.975 65.5169 225.939 65.7071L224.244 66.0172L222.528 66.348C221.238 66.585 219.941 66.7004 218.642 66.6994H215.21C214.096 66.6982 212.975 66.6953 211.861 66.7201L210.166 66.7614L208.45 66.8028C207.21 66.8302 205.968 66.7755 204.729 66.6581L203.034 66.5134L201.318 66.348C200.222 66.2441 199.127 66.1525 198.031 66.0999L196.315 66.0172L194.62 65.9552C193.547 65.9037 192.469 65.8875 191.395 65.9139L189.679 65.9552L187.984 65.9965C186.863 66.0242 185.736 66.0529 184.615 66.0999L182.899 66.1826L181.204 66.2446C180.103 66.2908 178.997 66.363 177.896 66.4513L176.18 66.5961L174.464 66.7201C173.011 66.8359 171.566 66.6996 170.144 66.3066L168.428 65.8312L166.733 65.3557C165.889 65.1224 165.064 65.0569 164.252 65.1283L162.536 65.273L160.841 65.4177C159.446 65.5402 158.047 65.4698 156.665 65.1903L154.97 64.8389L153.254 64.4874C152.332 64.3012 151.414 64.2321 150.505 64.2807L148.809 64.3841L147.094 64.4668C145.86 64.5326 144.627 64.5355 143.393 64.4668L141.677 64.3634L139.982 64.2807C139.035 64.2279 138.083 64.2733 137.129 64.4254L135.413 64.6942L133.718 64.9629C132.393 65.1743 131.06 65.2483 129.728 65.1696L128.013 65.0663L126.317 64.9629C125.209 64.8975 124.097 64.8464 122.989 64.8182L121.294 64.7769L119.578 64.7355C118.545 64.7092 117.511 64.7465 116.477 64.8389L114.761 64.9836L113.046 65.149C112.029 65.2405 111.009 65.3961 109.986 65.6244L108.27 66.0172L106.575 66.3893C105.14 66.7098 103.683 66.7874 102.234 66.5961L100.518 66.3687L98.8227 66.1413C97.8106 66.0073 96.7926 65.9417 95.7838 65.9552L94.0886 65.9759L88.9411 66.0379H87.2253L85.5301 66.0586C84.1577 66.0662 82.7876 65.8892 81.4369 65.5417L79.7211 65.1076L78.0259 64.6528C77.3559 64.4805 76.7028 64.497 76.0206 64.6942L72.589 65.6865C71.2465 66.0774 69.8857 66.3074 68.5164 66.348L66.8213 66.3893L65.1054 66.4513C63.7634 66.4909 62.4248 66.3713 61.0949 66.0999L57.6632 65.397C56.8584 65.2334 56.0659 65.2301 55.2652 65.3764L53.5494 65.6865L51.8542 65.9965C50.4692 66.2495 49.0715 66.2907 47.6783 66.1413L45.9831 65.9759L44.2673 65.7898C43.046 65.6588 41.8258 65.4603 40.6082 65.211L38.8924 64.8595L37.1972 64.5081C36.4593 64.357 35.7168 64.3755 34.9646 64.5701L33.2694 65.0249L31.5535 65.4591C30.1511 65.8215 28.7229 65.969 27.295 65.8725L25.5998 65.7485L23.884 65.6244C22.7891 65.5505 21.6772 65.504 20.5556 65.4797L18.8191 65.4384L17.0619 65.4177C15.1868 65.3753 13.5242 64.6188 12.2452 63.2471L11.0668 61.9654L9.86783 60.7043C9.21468 60.0038 8.47552 59.3716 7.65584 58.8231L6.18808 57.8308L4.69964 56.8385C2.94144 55.659 2.04001 53.8475 2.15689 51.7323L2.26026 49.9545L2.34295 48.1766C2.40468 47.0603 2.43126 45.9778 2.40496 44.931L2.36362 43.2565L2.32227 41.5614C2.30116 40.7418 2.14387 39.8896 1.82613 38.9979L1.20594 37.2821L0.606435 35.5869C0.0720719 34.0879 -0.114919 32.5401 0.0689434 30.9769L0.254998 29.2611L0.461726 27.5659C0.606666 26.3375 0.828873 25.1144 1.10258 23.9068L1.47469 22.2117L1.8468 20.5372C2.07063 19.5499 2.22635 18.5457 2.3016 17.5189L2.42564 15.7824L2.57035 14.0459C2.69678 12.3197 3.33516 10.7578 4.45157 9.43589L5.58857 8.07149L6.74624 6.72776C7.72035 5.57504 8.87234 4.62075 10.1986 3.89559L11.7697 3.04801L13.3202 2.20043C14.7319 1.42852 16.3456 0.989813 18.0129 1.33217L19.3359 1.60092L20.1215 1.7663C20.2538 1.68477 20.3505 1.59672 20.4316 1.55957C20.7834 1.39905 21.136 1.33131 21.3412 1.29083C21.7943 1.20195 22.3614 1.14409 22.9537 1.10477L24.6695 0.980735L26.3854 0.877372C27.4601 0.806187 28.5344 0.689889 29.6103 0.546607L31.3261 0.319207L33.0213 0.0918069C34.5279 -0.108939 36.0332 0.0249047 37.5073 0.443244ZM33.7242 5.34269L32.029 5.57009L30.3132 5.79749C29.1178 5.95676 27.9127 6.06989 26.7161 6.14892L25.021 6.27296L23.3051 6.35565C23.2814 6.38073 23.2884 6.43488 23.2638 6.45901C22.8308 6.88063 22.3556 7.06637 22.1061 7.14122C21.6305 7.28312 21.1985 7.27202 21.0104 7.26525C20.5622 7.24871 20.0506 7.15428 19.584 7.05852L16.9379 6.52103C16.8399 6.50238 16.5202 6.47193 15.8629 6.83112L14.2918 7.69938L12.7413 8.54696C11.9843 8.96088 11.3288 9.48593 10.7774 10.1388L9.64043 11.5032L8.50343 12.8469C8.09389 13.3318 7.88513 13.8484 7.8419 14.4387L7.59383 17.9117C7.4993 19.1982 7.29798 20.468 7.01499 21.7155L6.64288 23.39L6.2501 25.0645C6.01686 26.0927 5.83593 27.1409 5.71261 28.1861L5.52655 29.8812L5.31982 31.5971C5.23672 32.307 5.31269 33.0352 5.58857 33.8091L6.20875 35.5042L6.80826 37.2201C7.30088 38.602 7.57875 40.0141 7.6145 41.4373L7.65584 43.1118L7.69719 44.807C7.72695 45.9998 7.70402 47.2196 7.63517 48.466L7.53181 50.2439L7.44912 52.0218C7.44327 52.1273 7.44285 52.1947 7.44912 52.2285L7.49046 52.3112C7.5136 52.3365 7.56724 52.3759 7.65584 52.4352L9.12361 53.4275L10.612 54.4198C11.7621 55.1895 12.799 56.0847 13.7336 57.0866L16.1317 59.65C16.4378 59.9756 16.7412 60.1158 17.186 60.1255L18.9225 60.1462L20.6797 60.1875C21.8803 60.2136 23.0791 60.2733 24.2561 60.3529L25.9512 60.4769L27.6671 60.5803C28.5108 60.6365 29.3614 60.557 30.2305 60.3322L31.9463 59.8981L33.6415 59.4433C35.164 59.0494 36.7147 59.0049 38.2515 59.3192L39.9674 59.6707L41.6625 60.0221C42.7175 60.2382 43.7742 60.4053 44.8255 60.5183L46.5413 60.7043L48.2365 60.8904C49.1189 60.985 50.0126 60.9497 50.9032 60.787L52.5984 60.4769L54.3142 60.1668C55.7863 59.898 57.2703 59.9077 58.7382 60.2082L60.4334 60.5596L62.1492 60.911C63.0899 61.1034 64.0323 61.1867 64.9607 61.1591L66.6559 61.0971L68.3717 61.0558C69.2737 61.0284 70.1925 60.8925 71.1212 60.6216L72.8164 60.1048L74.5322 59.6087C76.1204 59.1464 77.7483 59.1142 79.349 59.526L81.0441 59.9808L82.76 60.4149C83.6811 60.6515 84.5891 60.7707 85.4888 60.7663L87.2046 60.7457H88.8998C90.0307 60.7394 91.1798 60.7195 92.3108 60.7043L94.0059 60.6836L95.7218 60.663C96.9844 60.6464 98.2455 60.724 99.5049 60.8904L101.221 61.1178L102.916 61.3452C103.741 61.4544 104.578 61.4087 105.417 61.2211L107.112 60.849L108.828 60.4562C110.075 60.1777 111.337 59.9899 112.591 59.8774L114.286 59.7327L116.002 59.5673C117.234 59.457 118.468 59.4123 119.702 59.4433L121.418 59.4846L123.134 59.5466C124.299 59.5764 125.463 59.6226 126.628 59.6914L128.343 59.7947L130.039 59.8774C130.983 59.9332 131.941 59.905 132.891 59.7534L134.587 59.464L136.302 59.1952C137.622 58.9852 138.946 58.9148 140.272 58.9885L141.987 59.0918L143.683 59.1745C144.722 59.2324 145.765 59.2504 146.804 59.1952L148.52 59.0918L150.215 59.0092C151.58 58.9363 152.956 59.0251 154.308 59.2986L156.004 59.65L157.719 60.0014C158.609 60.181 159.488 60.2223 160.365 60.1462L163.797 59.8567C165.257 59.7295 166.71 59.8548 168.138 60.2495L169.854 60.725L171.549 61.2005C172.399 61.4354 173.232 61.5144 174.051 61.4485L175.746 61.3038L177.462 61.1798C178.633 61.0856 179.805 61.0015 180.976 60.9524L182.692 60.8904L184.387 60.8077C185.537 60.7595 186.69 60.7327 187.84 60.7043L191.271 60.6216C192.47 60.5923 193.669 60.6054 194.868 60.663L196.584 60.7457L198.279 60.8284C199.457 60.8849 200.637 60.9649 201.814 61.0764L203.53 61.2418L205.225 61.4072C206.261 61.5054 207.313 61.5336 208.347 61.5106L210.042 61.4692L211.758 61.4279C212.914 61.4022 214.075 61.4059 215.231 61.4072H218.642C219.615 61.4082 220.597 61.3186 221.577 61.1384L223.273 60.8284L224.989 60.5183C226.227 60.2908 227.466 60.1199 228.71 60.0428L230.425 59.9394L232.121 59.8361C233.24 59.7667 234.37 59.6805 235.49 59.588L237.185 59.464L238.901 59.3192C240.282 59.2053 241.665 59.2824 243.036 59.5466L244.731 59.8774L246.447 60.2082C247.249 60.3623 248.042 60.3458 248.845 60.1875L250.561 59.8567L252.256 59.526C253.855 59.2106 255.457 59.3205 257.011 59.8361L258.726 60.4149L260.442 60.9731C261.312 61.2615 262.162 61.3979 262.985 61.3865L264.68 61.3658L266.396 61.3452C267.567 61.3291 268.74 61.3354 269.91 61.3658L271.606 61.4072L273.321 61.4485C274.237 61.4723 275.16 61.3867 276.092 61.1798L277.807 60.787L279.503 60.4149C280.776 60.1318 282.065 59.9514 283.348 59.8774L285.043 59.774L286.759 59.6707C287.982 59.6003 289.215 59.5992 290.438 59.65L292.134 59.712L293.849 59.7947C294.832 59.8351 295.82 59.78 296.806 59.65L298.501 59.4433L300.217 59.2159C301.516 59.0446 302.821 58.9788 304.124 59.0505L305.819 59.1539L307.535 59.2366C308.541 59.2919 309.526 59.2852 310.491 59.1952L312.145 59.0298L313.819 58.8851C314.914 58.7825 316.016 58.6819 317.127 58.575L318.822 58.4096L320.497 58.2443C321.124 58.1834 321.71 57.9618 322.295 57.5414L323.742 56.5078L325.169 55.4741C325.574 55.179 325.793 54.8439 325.892 54.3578L326.244 52.6213L326.595 50.9054C326.828 49.7547 327.045 48.6293 327.277 47.5358L327.98 44.2695C328.178 43.34 328.302 42.3778 328.332 41.396L328.373 39.6801L328.435 37.985C328.471 36.797 328.538 35.596 328.642 34.4086L328.786 32.7134L328.931 30.9976C329.024 29.9305 329.068 28.8596 329.076 27.7933L329.096 26.0981L329.117 24.3823C329.124 23.3894 329.046 22.3812 328.89 21.3641L328.621 19.6276L328.352 17.9117C328.257 17.2886 328.02 16.7901 327.608 16.3613L325.21 13.8805C324.46 13.1001 323.719 12.373 322.977 11.7099L320.579 9.55993C319.917 8.96857 319.144 8.41338 318.264 7.88543L316.755 6.97583L315.225 6.06623C314.78 5.80145 314.366 5.71997 313.861 5.81816L312.124 6.1696L310.408 6.50036C309.085 6.75894 307.742 6.88652 306.418 6.87247L304.723 6.8518L303.007 6.83112C301.954 6.82016 300.899 6.85262 299.845 6.93449L298.129 7.0792L296.413 7.20323C295.131 7.30264 293.849 7.29796 292.568 7.18256L290.852 7.03785L289.157 6.87247C287.922 6.7612 286.686 6.58267 285.456 6.33498L283.74 6.00421L282.045 5.65278C281.313 5.50532 280.583 5.53471 279.833 5.73547L278.117 6.19027L276.422 6.64507C274.831 7.07102 273.214 7.0608 271.626 6.6244L269.91 6.14892L268.215 5.67345C267.453 5.46328 266.7 5.43561 265.962 5.57009L264.267 5.88018L262.551 6.19027C261.178 6.44001 259.798 6.51151 258.416 6.37632L256.701 6.19027L255.005 6.02489C254.109 5.93671 253.201 5.96924 252.297 6.12825L250.602 6.43834L248.886 6.72776C247.675 6.94102 246.462 7.11701 245.248 7.22391L243.532 7.36862L241.837 7.51333C240.37 7.64239 238.909 7.50168 237.475 7.09987L235.759 6.6244L234.064 6.14892C233.097 5.87808 232.137 5.71471 231.19 5.65278L229.474 5.52874L227.779 5.42538C226.789 5.36083 225.794 5.36971 224.802 5.46672L223.087 5.65278L221.371 5.81816C220.355 5.91855 219.334 6.07541 218.311 6.31431L216.595 6.72776L214.9 7.12054C213.43 7.46415 211.94 7.50751 210.456 7.26525L208.74 6.99651L207.045 6.72776C206.033 6.56255 205.012 6.45315 204.006 6.43834L202.31 6.41767L200.595 6.397C199.555 6.38188 198.514 6.42389 197.473 6.52103L195.757 6.68642L194.062 6.83112C192.851 6.94417 191.635 7.00617 190.424 7.01718L188.708 7.03785L187.013 7.05852C185.701 7.0704 184.388 6.95147 183.085 6.70709L181.369 6.37632L179.674 6.06623C178.797 5.90183 177.916 5.87995 177.048 5.98354L175.353 6.19027L173.637 6.37632C172.493 6.51282 171.35 6.64749 170.206 6.76911L166.774 7.14122C165.375 7.2889 163.967 7.22467 162.577 6.95516L160.882 6.6244L159.166 6.29363C158.39 6.14371 157.613 6.13974 156.83 6.31431L155.135 6.70709L153.419 7.0792C151.853 7.42772 150.275 7.39056 148.727 6.95516L147.011 6.45901L145.295 5.98354C144.404 5.73278 143.532 5.61449 142.67 5.6321L140.954 5.67345L139.259 5.7148C138.146 5.73813 137.022 5.76246 135.91 5.81816L134.214 5.92152L132.499 6.00421C131.226 6.06778 129.945 6.03261 128.674 5.90085L126.979 5.7148L125.263 5.54941C124.511 5.47216 123.747 5.54224 122.948 5.79749L121.232 6.35565L119.516 6.89314C117.846 7.42808 116.138 7.42213 114.472 6.87247L112.756 6.31431L111.061 5.75614C110.328 5.51441 109.638 5.46726 108.952 5.59076L107.236 5.90085L105.541 6.21094C104.393 6.41902 103.237 6.61694 102.089 6.81045L100.373 7.09987L98.678 7.38929C97.2982 7.62181 95.9082 7.65018 94.5228 7.49265L92.8069 7.3066L91.1117 7.09987C90.1472 6.99014 89.1806 6.97707 88.2176 7.05852L86.5017 7.20323L84.8066 7.34794C83.5401 7.45516 82.2698 7.47092 81.0028 7.38929L79.2869 7.28593L77.5918 7.16189C76.4671 7.08914 75.3261 7.03174 74.2014 6.97583L72.5063 6.89314L70.7904 6.81045C69.6623 6.75439 68.5283 6.71129 67.4001 6.66574L65.7049 6.58305L63.9891 6.52103C63.0003 6.4813 62.0042 6.51922 61.0122 6.64507L59.3171 6.87247L57.6012 7.0792C56.3161 7.24201 55.0237 7.30233 53.7354 7.24458L52.0402 7.16189L50.3244 7.0792C49.2359 7.03045 48.1465 7.02683 47.0581 7.03785H45.3423L43.6471 7.05852C42.2458 7.07272 40.8433 6.89034 39.4712 6.50036L37.776 6.00421L36.0602 5.52874C35.2622 5.30275 34.4899 5.24066 33.7242 5.34269Z" fill="black"/>
<path d="M138.575 27.9428C138.414 27.9428 138.245 27.9187 138.068 27.8705C136.766 27.5167 135.5 27.3399 134.27 27.3399C133.667 27.3399 133.02 27.3881 132.328 27.4846C131.637 27.581 130.901 27.7257 130.121 27.9187C130.121 28.9879 130.085 30.5757 130.013 32.682C130.463 32.6499 132.035 32.5012 134.728 32.2359C136.264 32.0831 137.236 32.0067 137.646 32.0067C138.121 32.0067 138.527 32.1595 138.864 32.465C139.202 32.7624 139.371 33.1604 139.371 33.6588C139.371 34.6155 138.86 35.1582 137.839 35.2868C137.196 35.335 136.235 35.4154 134.957 35.528C133.816 35.6566 132.095 35.8134 129.796 35.9983C129.74 37.0193 129.711 37.8433 129.711 38.4704C129.711 40.0461 129.804 40.9425 129.989 41.1596C130.077 41.2641 130.584 41.3164 131.508 41.3164C132.007 41.3164 132.758 41.3043 133.763 41.2802C134.768 41.2561 135.52 41.244 136.018 41.244C136.179 41.244 136.416 41.2199 136.73 41.1717C137.043 41.1234 137.277 41.0993 137.429 41.0993C137.896 41.0993 138.294 41.2319 138.623 41.4972C139.001 41.7947 139.19 42.2128 139.19 42.7514C139.19 43.6518 138.72 44.1904 137.779 44.3673C136.975 44.5201 135.307 44.5964 132.774 44.5964C130.154 44.5964 128.445 44.2427 127.649 43.5352C126.773 42.7554 126.335 41.0671 126.335 38.4704C126.335 37.3931 126.411 35.7772 126.564 33.6227C126.725 31.4601 126.805 29.8441 126.805 28.7749C126.805 28.4935 126.765 28.0795 126.685 27.5328C126.604 26.9781 126.564 26.56 126.564 26.2787C126.564 25.0567 127.127 24.4457 128.252 24.4457C128.606 24.4457 128.932 24.5462 129.229 24.7472C130.162 24.514 131.046 24.3412 131.882 24.2286C132.726 24.108 133.522 24.0477 134.27 24.0477C136.296 24.0477 137.916 24.2809 139.13 24.7472C139.869 25.0285 140.239 25.539 140.239 26.2787C140.239 26.6967 140.094 27.0665 139.805 27.3881C139.483 27.7579 139.073 27.9428 138.575 27.9428ZM153.745 33.6227C153.287 34.0166 152.696 34.5351 151.973 35.1783L150.128 36.8907L153.806 41.3887C154.071 41.7183 154.203 42.0439 154.203 42.3655C154.203 42.7836 154.035 43.1493 153.697 43.4629C153.359 43.7764 152.973 43.9332 152.539 43.9332C152.089 43.9332 151.687 43.7402 151.333 43.3544C150.61 42.5665 149.416 41.1475 147.752 39.0975C147.101 39.7487 146.092 40.6973 144.725 41.9434C144.291 42.3052 143.961 42.6067 143.736 42.8479C143.382 43.2177 142.984 43.4026 142.542 43.4026C142.108 43.4026 141.722 43.2458 141.385 42.9323C141.055 42.6187 140.89 42.253 140.89 41.8349C140.89 41.3686 141.22 40.834 141.879 40.231C142.41 39.7728 142.94 39.3186 143.471 38.8684C143.961 38.378 144.725 37.6263 145.762 36.6133C145.312 35.9862 144.858 35.3592 144.399 34.7321C143.845 33.9925 143.322 33.4176 142.832 33.0076C142.414 32.6619 142.205 32.272 142.205 31.8379C142.205 31.4199 142.361 31.05 142.675 30.7285C142.997 30.3989 143.378 30.234 143.821 30.234C144.391 30.234 145.179 30.8089 146.184 31.9585L148.114 34.4427C148.805 33.8638 149.492 33.285 150.176 32.7062C151.028 31.9665 151.639 31.3354 152.009 30.8129C152.354 30.3225 152.793 30.0773 153.323 30.0773C153.757 30.0773 154.143 30.23 154.481 30.5355C154.827 30.841 154.999 31.2028 154.999 31.6208C154.999 32.1434 154.581 32.8107 153.745 33.6227ZM162.03 44.1141C161.338 44.1141 160.611 44.0337 159.847 43.8729L159.835 48.793C159.835 49.2593 159.678 49.6452 159.365 49.9507C159.051 50.2562 158.653 50.4089 158.171 50.4089C157.689 50.4089 157.291 50.2562 156.977 49.9507C156.664 49.6452 156.507 49.2593 156.507 48.793C156.507 48.4152 156.515 46.9158 156.531 44.295C156.547 42.3494 156.547 40.7616 156.531 39.5316C156.507 37.7951 156.45 36.2998 156.362 35.0456C156.241 33.3172 156.181 32.5253 156.181 32.67C156.181 32.0027 156.33 31.4319 156.627 30.9576C156.973 30.4189 157.439 30.1496 158.026 30.1496C158.476 30.1496 158.854 30.3024 159.16 30.6079C159.465 30.9134 159.618 31.2792 159.618 31.7053L159.606 31.8258C160.145 31.5203 160.683 31.2952 161.222 31.1505C161.769 30.9978 162.315 30.9214 162.862 30.9214C164.711 30.9214 166.062 31.7053 166.914 33.2729C167.549 34.4547 167.866 35.9862 167.866 37.8675C167.866 39.6281 167.364 41.0872 166.359 42.2449C165.282 43.491 163.839 44.1141 162.03 44.1141ZM162.862 34.1412C162.355 34.1412 161.841 34.2618 161.318 34.503C160.796 34.7361 160.269 35.0898 159.739 35.5642C159.835 37.2203 159.883 38.8804 159.883 40.5446C160.599 40.7777 161.314 40.8943 162.03 40.8943C162.858 40.8943 163.493 40.6009 163.935 40.014C164.337 39.4834 164.538 38.7679 164.538 37.8675C164.538 36.7821 164.49 36.0305 164.393 35.6124C164.16 34.6316 163.65 34.1412 162.862 34.1412ZM180.082 44.1985C179.713 44.1985 179.126 43.7965 178.322 42.9926C177.582 43.3463 176.931 43.6116 176.368 43.7885C175.805 43.9734 175.327 44.0658 174.933 44.0658C172.996 44.0658 171.54 43.5473 170.568 42.5102C169.603 41.4731 169.121 39.9215 169.121 37.8554C169.121 35.9179 169.836 34.2618 171.267 32.887C172.698 31.5043 174.411 30.8129 176.404 30.8129C177.168 30.8129 178.052 31.0299 179.057 31.4641C180.271 31.9866 180.878 32.5936 180.878 33.285C180.878 33.5744 180.786 33.8277 180.601 34.0447C180.52 34.3663 180.456 34.7723 180.408 35.2627C180.368 35.7451 180.348 36.3118 180.348 36.963C180.348 38.4986 180.456 39.604 180.673 40.2793C180.697 40.3516 180.882 40.7697 181.228 41.5334C181.541 42.2248 181.698 42.6187 181.698 42.7152C181.698 43.1413 181.533 43.495 181.204 43.7764C180.882 44.0578 180.508 44.1985 180.082 44.1985ZM177.092 35.9259C177.092 35.6687 177.108 35.3752 177.14 35.0456C177.18 34.708 177.236 34.3341 177.309 33.9241C177.148 33.8437 177.003 33.7875 176.875 33.7553C176.754 33.7151 176.65 33.695 176.561 33.695C175.468 33.695 174.511 34.1251 173.691 34.9853C172.871 35.8375 172.461 36.8264 172.461 37.9519C172.461 39.0292 172.654 39.8411 173.04 40.3878C173.426 40.9265 174.005 41.1958 174.776 41.1958C175.275 41.1958 175.745 41.1154 176.187 40.9546C176.637 40.7858 177.06 40.5406 177.453 40.219C177.212 38.3056 177.092 36.8746 177.092 35.9259ZM192.901 44.2588C191.912 44.2588 191.362 43.7724 191.249 42.7996C191.137 41.9716 191.024 41.1395 190.911 40.3034C190.791 39.4191 190.731 38.587 190.731 37.8072C190.731 37.5981 190.743 37.2404 190.767 36.7339C190.799 36.2274 190.815 35.8697 190.815 35.6606C190.815 35.6044 190.823 35.4637 190.839 35.2386C190.855 35.0054 190.863 34.8165 190.863 34.6718C190.863 34.0045 190.69 33.6709 190.345 33.6709C189.605 33.6709 188.877 34.105 188.162 34.9733C187.454 35.8335 186.9 36.9268 186.498 38.2533C186.482 38.5186 186.446 38.8724 186.389 39.3146C186.341 39.6763 186.317 40.0301 186.317 40.3758C186.317 40.6009 186.341 40.9425 186.389 41.4008C186.446 41.851 186.474 42.1886 186.474 42.4137C186.474 42.872 186.313 43.2498 185.991 43.5473C185.678 43.8528 185.28 44.0055 184.797 44.0055C184.315 44.0055 183.917 43.8528 183.604 43.5473C183.29 43.2498 183.133 42.872 183.133 42.4137C183.133 42.1886 183.109 41.851 183.061 41.4008C183.013 40.9425 182.989 40.6009 182.989 40.3758C182.989 39.604 183.045 38.5307 183.157 37.156C183.27 35.7812 183.326 34.708 183.326 33.9362C183.326 33.695 183.31 33.3373 183.278 32.8629C183.254 32.3806 183.242 32.0228 183.242 31.7897C183.242 31.3395 183.403 30.9696 183.724 30.6802C184.054 30.3828 184.456 30.234 184.93 30.234C185.983 30.234 186.546 30.8651 186.618 32.1273L186.63 32.26C187.804 31.0782 189.042 30.4873 190.345 30.4873C191.864 30.4873 192.913 31.1224 193.492 32.3926C193.878 33.2448 194.071 34.519 194.071 36.2154V37.0716C194.063 37.4414 194.059 37.7027 194.059 37.8554C194.059 38.4825 194.143 39.2904 194.312 40.2793C194.489 41.2681 194.577 42.0721 194.577 42.6911C194.577 43.1413 194.417 43.5151 194.095 43.8126C193.773 44.1101 193.375 44.2588 192.901 44.2588ZM205.153 31.2832C205.258 28.5417 205.382 26.6485 205.527 25.6033C205.664 24.6547 206.186 24.1804 207.095 24.1804C207.569 24.1804 207.951 24.3331 208.24 24.6386C208.53 24.9441 208.674 25.3179 208.674 25.7601C208.674 26.9258 208.582 28.6623 208.397 30.9696C208.22 33.277 208.132 35.0135 208.132 36.1792C208.132 39.0251 208.224 40.9305 208.409 41.8952C208.433 42.0238 208.445 42.1404 208.445 42.2449C208.445 42.6871 208.285 43.0529 207.963 43.3423C207.641 43.6237 207.268 43.7644 206.841 43.7644C206.247 43.7644 205.804 43.4991 205.515 42.9685C204.968 43.2981 204.402 43.5433 203.815 43.7041C203.228 43.8729 202.621 43.9573 201.994 43.9573C200.193 43.9573 198.698 43.3825 197.508 42.2329C196.294 41.0591 195.687 39.5638 195.687 37.7469C195.687 35.5843 196.298 33.8397 197.52 32.5132C198.742 31.1787 200.338 30.5114 202.307 30.5114C202.91 30.5114 203.449 30.5757 203.923 30.7043C204.397 30.833 204.808 31.0259 205.153 31.2832ZM204.912 35.0818C204.647 34.5753 204.301 34.1975 203.875 33.9482C203.449 33.699 202.942 33.5744 202.355 33.5744C201.166 33.5744 200.273 33.9201 199.678 34.6115C199.083 35.2948 198.786 36.3239 198.786 37.6986C198.786 38.5669 199.108 39.3105 199.751 39.9296C200.394 40.5486 201.142 40.8581 201.994 40.8581C202.613 40.8581 203.083 40.7858 203.405 40.6411C203.622 40.5446 203.992 40.2873 204.514 39.8693C204.651 39.7567 204.783 39.6321 204.912 39.4954C204.896 39.1095 204.896 37.6383 204.912 35.0818Z" fill="black"/>
</svg>
