<svg width="400" height="70" viewBox="0 0 400 70" fill="none" xmlns="http://www.w3.org/2000/svg">
<path d="M2.9707 16.1406C2.9707 8.96092 8.791 3.14062 15.9707 3.14062H383.971C391.15 3.14062 396.971 8.96092 396.971 16.1406V53.1406C396.971 60.3203 391.15 66.1406 383.971 66.1406H15.9707C8.791 66.1406 2.9707 60.3203 2.9707 53.1406V16.1406Z" fill="#E9E9E9"/>
<path d="M114.221 0C115.147 -0.00190147 116.009 0.287724 116.768 0.75L117.518 1.20312L118.236 1.65625L118.877 1.45312L119.627 1.21875C120.161 1.05319 120.7 0.91447 121.236 0.78125L122.736 0.40625C123.851 0.129392 124.913 0.387094 125.799 0.953125L126.549 1.4375L127.049 1.75L127.518 1.5L128.268 1.09375C129.064 0.658864 129.95 0.418597 130.893 0.5L131.643 0.578125L132.393 0.640625C133.185 0.709336 133.939 0.944716 134.643 1.3125L135.393 1.70312L135.971 2.01562L136.549 1.70312L137.299 1.3125C138.03 0.930202 138.821 0.696172 139.658 0.671875L140.408 0.65625L141.158 0.625C141.677 0.610706 142.202 0.607802 142.721 0.609375H144.221C144.687 0.610849 145.16 0.615552 145.627 0.59375L146.377 0.546875L147.127 0.515625C147.595 0.493728 148.065 0.465291 148.533 0.421875L149.283 0.34375L150.033 0.28125C151.036 0.188206 151.964 0.471637 152.768 0.96875L153.518 1.4375L153.908 1.6875L154.346 1.39062L155.096 0.875L155.908 0.453125C156.474 0.241029 157.079 0.183444 157.689 0.296875L158.611 0.59375L160.111 1.34375C160.463 1.51724 160.79 1.62788 161.096 1.6875L161.846 1.82812L162.596 1.98438H162.643C162.661 1.98071 162.707 1.9622 162.783 1.92188L163.533 1.51562L164.283 1.125L165.158 0.796875C165.744 0.659063 166.338 0.67118 166.908 0.84375L167.752 1.21875L168.502 1.67188L168.846 1.89062L169.283 1.57812L170.033 1.03125C170.679 0.55884 171.455 0.235097 172.299 0.21875L173.158 0.3125L173.908 0.46875L174.658 0.640625C175.271 0.777935 175.874 0.976686 176.471 1.21875L177.221 1.51562L177.971 1.82812C178.09 1.87656 178.157 1.86042 178.221 1.84375L178.971 1.65625L179.721 1.45312C180.502 1.25056 181.302 1.22261 182.096 1.375L182.846 1.51562L183.596 1.67188C183.694 1.69087 183.808 1.68984 183.971 1.625L184.721 1.3125L185.471 1.01562C186.293 0.684142 187.137 0.663951 187.924 0.90625L188.689 1.23438L189.439 1.64062L189.986 1.95312L190.533 1.67188L191.283 1.28125C191.934 0.938892 192.623 0.686562 193.33 0.546875L194.08 0.390625L194.83 0.25C195.92 0.0356891 196.944 0.309174 197.799 0.859375L199.299 1.82812C199.315 1.83856 199.334 1.85304 199.346 1.85938L200.018 1.70312L200.768 1.53125C201.133 1.44749 201.519 1.31473 201.908 1.14062L202.658 0.8125L203.408 0.46875L204.314 0.203125C204.921 0.111878 205.513 0.203588 206.064 0.421875L206.861 0.84375L208.361 1.875C208.407 1.9068 208.434 1.94277 208.455 1.95312L209.158 1.82812L209.908 1.71875C210.261 1.66337 210.627 1.56477 211.002 1.42188L211.752 1.125L212.502 0.84375L213.299 0.640625C214.084 0.517434 214.867 0.643523 215.596 1L216.346 1.375L217.064 1.71875L217.736 1.45312L218.486 1.15625C219.074 0.923723 219.667 0.733016 220.268 0.59375L221.018 0.421875L221.768 0.234375C222.651 0.0298494 223.546 0.092463 224.393 0.390625L225.893 0.921875C226.151 1.01232 226.381 1.04485 226.596 1.03125L228.096 0.9375C228.448 0.915081 228.807 0.853436 229.174 0.75L229.924 0.53125L230.674 0.328125C231.735 0.0284069 232.779 0.198302 233.689 0.703125L234.439 1.125L235.189 1.53125C235.268 1.57477 235.312 1.59334 235.314 1.59375L236.064 1.4375L236.814 1.26562C237.25 1.1737 237.687 1.05725 238.127 0.921875L238.877 0.703125L239.627 0.46875C240.332 0.251749 241.064 0.144169 241.799 0.171875L243.299 0.234375C243.878 0.25634 244.456 0.314845 245.033 0.40625L245.783 0.53125L246.533 0.640625C247.22 0.749445 247.887 0.960473 248.533 1.25L249.283 1.57812L249.783 1.8125L250.361 1.42188L251.111 0.921875C251.879 0.408726 252.77 0.078733 253.752 0.09375H254.502L255.252 0.109375C255.729 0.11666 256.212 0.118397 256.689 0.109375L258.189 0.078125C258.886 0.0655971 259.576 0.157545 260.252 0.34375L261.002 0.546875L261.752 0.765625C262.194 0.887374 262.641 0.983525 263.08 1.0625L263.83 1.1875L264.58 1.32812C265.044 1.41162 265.507 1.4878 265.971 1.54688L267.471 1.73438C267.657 1.75805 267.855 1.74613 268.08 1.67188L269.58 1.17188C270.118 0.992051 270.665 0.829952 271.205 0.6875L272.705 0.28125C273.488 0.0750437 274.298 0.0521496 275.096 0.203125L276.596 0.484375C276.842 0.530596 277.083 0.533614 277.33 0.484375L278.08 0.328125L278.83 0.1875C279.648 0.0245966 280.469 0.0529033 281.268 0.28125L282.768 0.71875C283.314 0.87574 283.865 1.04971 284.408 1.25L285.158 1.53125L285.877 1.8125L285.908 1.79688L286.658 1.46875L287.408 1.125C288.036 0.845216 288.686 0.642962 289.346 0.515625L290.096 0.375L290.846 0.21875C291.656 0.0629991 292.475 0.104857 293.268 0.328125L294.018 0.546875L294.768 0.75C295.193 0.869679 295.614 0.964318 296.033 1.03125L296.783 1.15625L297.533 1.26562C297.986 1.33779 298.441 1.3987 298.893 1.4375L300.393 1.5625C300.768 1.59473 301.142 1.59947 301.518 1.5625L303.018 1.40625C303.71 1.33747 304.411 1.37045 305.096 1.5L305.846 1.64062L306.533 1.78125C306.549 1.77503 306.581 1.76379 306.627 1.73438L308.127 0.765625C308.617 0.448708 309.213 0.204047 309.877 0.171875C310.21 0.156083 310.528 0.205494 310.83 0.28125L311.689 0.609375L312.439 1.03125L313.049 1.375L313.643 1.09375L314.393 0.75C315.256 0.356791 316.204 0.241902 317.158 0.453125L317.908 0.609375L318.658 0.78125C319.018 0.860365 319.371 0.89001 319.721 0.890625L320.471 0.90625H321.221C322.04 0.907268 322.828 1.09506 323.564 1.4375L324.314 1.78125L325.064 2.14062C325.263 2.23267 325.402 2.22998 325.502 2.21875L327.002 2.0625C327.479 2.00914 327.962 1.94451 328.439 1.875L329.939 1.65625C330.28 1.6061 330.636 1.51684 331.002 1.375L332.502 0.78125C333.289 0.477271 334.123 0.360432 334.971 0.46875L335.721 0.578125L336.471 0.671875C337.152 0.759911 337.823 0.939679 338.471 1.20312L339.221 1.51562L339.971 1.8125L340.018 1.82812C340.021 1.82746 340.033 1.83371 340.049 1.82812L340.799 1.54688L341.549 1.28125C342.357 0.992252 343.209 0.915396 344.064 1.0625L345.564 1.3125C346.141 1.41183 346.713 1.54973 347.283 1.71875L348.033 1.9375L348.674 2.14062L349.408 1.67188L350.158 1.20312C350.653 0.894365 351.249 0.678449 351.908 0.65625C352.569 0.634942 353.17 0.820065 353.689 1.10938L354.439 1.51562L355.189 1.9375C355.454 2.0846 355.654 2.13425 355.799 2.14062L356.549 2.17188L357.299 2.1875C357.449 2.19363 357.637 2.17358 357.877 2.0625L358.627 1.71875L359.377 1.35938C360.361 0.903005 361.432 0.87395 362.455 1.28125L363.955 1.875C364.083 1.9261 364.163 1.92427 364.236 1.90625L365.736 1.53125C366.394 1.36761 367.064 1.27675 367.736 1.28125L368.486 1.29688H369.236C369.495 1.29835 369.768 1.25825 370.064 1.15625L370.814 0.890625L371.564 0.640625C372.387 0.356238 373.25 0.280413 374.111 0.453125L375.611 0.765625C376.019 0.847771 376.428 0.898171 376.83 0.921875L377.58 0.96875L378.33 1C378.723 1.02286 379.123 1.024 379.518 0.984375L381.018 0.828125C381.73 0.756238 382.442 0.800119 383.143 0.953125L383.893 1.10938L384.643 1.28125C385.298 1.42507 385.924 1.65191 386.518 1.95312L387.174 2.28125L387.846 2.60938C387.972 2.67288 388.138 2.72236 388.377 2.71875L389.174 2.70312H389.986C390.834 2.69149 391.647 2.87713 392.408 3.25L393.127 3.59375L393.861 3.95312C394.763 4.39736 395.329 5.12675 395.596 5.96875L395.768 6.84375L395.83 7.73438L395.877 8.45312L396.564 8.8125L397.377 9.25C397.886 9.52219 398.4 9.92704 398.752 10.5312C399.115 11.1549 399.224 11.8343 399.158 12.4688L399.064 13.2812L398.986 14.1094C398.936 14.5965 398.911 15.0561 398.908 15.4844L398.893 16.2344V16.9844C398.888 17.7189 398.763 18.4445 398.518 19.1406L397.986 20.6406V20.6562L398.33 21.4062L398.658 22.1562C399.046 23.029 399.166 23.9825 398.939 24.9375L398.752 25.6875L398.58 26.4375C398.549 26.5714 398.545 26.7013 398.596 26.8594L398.846 27.6094L399.08 28.3594C399.333 29.1453 399.414 29.9608 399.283 30.7812L399.033 32.2812C398.966 32.7003 398.923 33.1309 398.908 33.5469L398.893 34.2969L398.861 35.0469C398.853 35.322 398.884 35.6063 398.971 35.9062L399.408 37.4062C399.712 38.4503 399.564 39.4902 399.08 40.4062L398.689 41.1562L398.283 41.9062L398.518 42.5938L398.752 43.3438C398.978 44.0375 399.1 44.7584 399.096 45.4844V46.2344L399.08 46.9844C399.076 47.5302 399.059 48.0796 399.018 48.625L398.955 49.375L398.908 50.125C398.86 50.7588 398.739 51.3834 398.564 52L398.361 52.75L398.143 53.4844C398.014 53.9373 397.914 54.3653 397.83 54.7656L397.689 55.4375L397.549 56.125C397.514 56.2937 397.491 56.5554 397.549 56.9375L397.674 57.7812L397.814 58.6406C397.961 59.6204 397.797 60.6009 397.283 61.4844L396.877 62.1719L396.486 62.875C396.026 63.6664 395.36 64.2821 394.549 64.7031L393.83 65.0781L393.127 65.4531C392.388 65.8367 391.584 66.0478 390.752 66.0781L389.955 66.0938L389.158 66.125C388.792 66.1383 388.5 66.2056 388.283 66.2812L387.643 66.5L386.986 66.7344C386.332 66.9633 385.649 67.0634 384.955 67.0625H383.533C383.478 67.0624 383.324 67.0841 383.064 67.2344L381.564 68.1094C381.057 68.4031 380.455 68.5968 379.799 68.5938C379.145 68.5897 378.552 68.3898 378.049 68.0938L377.299 67.6406L376.846 67.375L376.377 67.6719L375.627 68.1562C374.665 68.7625 373.513 68.9632 372.361 68.5312L371.611 68.2344L370.861 67.9531C370.723 67.901 370.627 67.9147 370.533 67.9375L369.783 68.1094L369.033 68.2969C368.16 68.5092 367.271 68.4695 366.424 68.1875L364.924 67.6875C364.619 67.5867 364.336 67.531 364.064 67.5312L363.314 67.5469H362.564C362.013 67.5473 361.459 67.5264 360.908 67.4844L359.408 67.3594C359.364 67.3563 359.26 67.3583 359.064 67.4688L358.314 67.9062L357.564 68.3281C356.506 68.9345 355.294 68.9966 354.174 68.4375L353.424 68.0781L352.674 67.7031C352.612 67.6725 352.575 67.658 352.564 67.6562H352.533L351.033 68.0312C350.514 68.1585 349.99 68.2814 349.471 68.3906L347.971 68.7031C347.325 68.8385 346.673 68.8904 346.018 68.875L344.518 68.8438C343.848 68.8278 343.185 68.7265 342.533 68.5469L341.033 68.1406C340.791 68.0737 340.566 68.0634 340.346 68.0938L339.596 68.1875L338.846 68.2969C338.333 68.3687 337.812 68.4384 337.299 68.5L336.549 68.5938L335.799 68.6719C335.016 68.7657 334.24 68.6959 333.486 68.4688L332.736 68.25L331.986 68.0156C331.767 67.9495 331.568 67.9379 331.377 67.9688L329.877 68.2188C329.148 68.3356 328.414 68.3259 327.689 68.1875L326.939 68.0312L326.189 67.8906C325.905 67.8361 325.625 67.8359 325.346 67.875L324.596 67.9844L323.846 68.0781C323.338 68.1498 322.823 68.2315 322.314 68.2969L320.814 68.4844C320.39 68.5392 319.962 68.6147 319.533 68.7188L318.783 68.9062L318.033 69.0781C316.842 69.3674 315.744 69.0277 314.877 68.3906L314.127 67.8281L313.58 67.4375L313.174 67.6406L312.424 68C311.355 68.5109 310.202 68.4857 309.158 67.9531L308.408 67.5625L307.658 67.1875L306.971 67.4219L306.221 67.6875C305.713 67.8623 305.197 68.0348 304.689 68.2031L303.939 68.4531L303.189 68.6875C302.432 68.9387 301.643 69.0382 300.846 68.9531L299.346 68.7969C298.872 68.7463 298.398 68.7058 297.924 68.6719L297.174 68.6094L296.424 68.5625C295.652 68.5073 294.906 68.3006 294.205 67.9688L293.455 67.6094L293.018 67.3906L292.486 67.7969L291.736 68.3438C291.267 68.6846 290.689 68.9611 290.018 69.0312C289.334 69.1019 288.696 68.9431 288.143 68.6562L286.643 67.875L286.518 67.8281H286.502L285.002 68.1719C284.368 68.3139 283.725 68.3863 283.08 68.3906H282.33L281.58 68.4062C280.905 68.4104 280.224 68.3233 279.564 68.1562L278.064 67.7812C277.673 67.6825 277.29 67.6082 276.908 67.5781L276.158 67.5156L275.408 67.4688C274.961 67.4337 274.511 67.4054 274.064 67.4062H273.314L272.564 67.4219C272.481 67.4225 272.333 67.4367 272.096 67.5781L270.596 68.4844C269.745 68.9944 268.752 69.2375 267.705 69.0469L266.205 68.7656C265.497 68.6364 264.813 68.3944 264.158 68.0625L263.408 67.6875L262.705 67.3281L262.064 67.6094L261.314 67.9062C260.615 68.1884 259.878 68.3493 259.127 68.375L257.627 68.4375C256.768 68.4661 255.947 68.2603 255.189 67.8906L254.439 67.5156L253.752 67.1875L253.096 67.4688L252.346 67.7969C251.384 68.2087 250.352 68.2468 249.361 67.875L247.861 67.3125C247.582 67.2072 247.326 67.1677 247.096 67.1719H246.346L245.596 67.1875C245.028 67.1976 244.46 67.1899 243.893 67.1406L243.143 67.0625L242.393 67C242.004 66.9661 241.609 66.9686 241.221 67L239.721 67.125C239.587 67.1364 239.385 67.1898 239.111 67.3594L238.361 67.8125L237.611 68.2812C236.853 68.7494 235.994 69.045 235.064 69.0469H233.564C232.885 69.048 232.211 68.9567 231.549 68.7812L230.799 68.5781L230.049 68.3906C229.452 68.2324 228.867 68.0145 228.283 67.7656L227.533 67.4531L226.783 67.125C226.668 67.0759 226.613 67.0974 226.564 67.1094L225.064 67.4844C224.61 67.6001 224.146 67.7397 223.689 67.8906L222.939 68.125L222.189 68.375C221.494 68.605 220.778 68.7245 220.049 68.7188H219.299L218.549 68.7031C217.997 68.6986 217.444 68.6727 216.893 68.625L215.393 68.5C214.762 68.4454 214.135 68.3317 213.518 68.1562L212.768 67.9375L212.018 67.7344C211.671 67.6359 211.329 67.5717 211.002 67.5625L209.502 67.5312C209.415 67.5297 209.274 67.5458 209.049 67.6719L207.549 68.5156C206.802 68.9364 205.975 69.189 205.096 69.2031L203.596 69.2344C202.635 69.2497 201.753 68.9443 200.986 68.4531L200.236 67.9688L199.721 67.6406L199.283 67.8906L198.533 68.3125C197.668 68.7879 196.679 68.9782 195.658 68.7656L194.158 68.4531C193.751 68.3679 193.341 68.3222 192.939 68.2969L192.189 68.2344L191.439 68.1875C191.066 68.1641 190.69 68.1868 190.314 68.2344L188.814 68.4219C188.299 68.4872 187.783 68.5415 187.268 68.5938L185.768 68.75C184.956 68.8322 184.155 68.7257 183.393 68.4531L182.643 68.1875L181.893 67.9062C181.634 67.8135 181.401 67.7833 181.189 67.7969L180.439 67.8594L179.689 67.9062C178.99 67.9509 178.296 67.8787 177.611 67.7188L176.111 67.375C176.002 67.3494 175.886 67.3522 175.736 67.4062L174.236 67.9375C173.711 68.127 173.184 68.319 172.658 68.4844L171.158 68.9531C170.376 69.1984 169.566 69.2548 168.752 69.125L168.002 69.0156L167.252 68.8906C166.892 68.8329 166.529 68.8091 166.174 68.8281L164.674 68.9219C164.043 68.956 163.411 68.9185 162.783 68.8281L161.283 68.6094C160.873 68.5499 160.457 68.5196 160.049 68.5156H159.299L158.549 68.5C157.939 68.4943 157.326 68.449 156.721 68.3438L155.971 68.2031L155.221 68.0781C155.013 68.042 154.805 68.049 154.58 68.1094L153.08 68.5156C151.979 68.8105 150.916 68.5814 150.018 68.0312L149.268 67.5625L148.908 67.3438L148.486 67.6562L147.736 68.2031C146.85 68.8476 145.734 69.1765 144.533 68.8438L143.033 68.4375C142.883 68.3956 142.745 68.3961 142.596 68.4375L141.096 68.8438C140.027 69.1391 138.986 68.951 138.08 68.4375L136.58 67.5938L136.439 67.5312L134.939 67.8125C134.494 67.8964 134.044 68.003 133.596 68.125L132.096 68.5312C131.299 68.7488 130.47 68.7749 129.658 68.6094L128.908 68.4531L128.158 68.3125C127.68 68.215 127.199 68.1134 126.721 68.0312L125.221 67.7812C124.905 67.7272 124.594 67.7165 124.283 67.75L122.783 67.9062C122.256 67.9636 121.717 68.0116 121.189 68.0469L120.439 68.0938L119.689 68.1562C119.4 68.1763 119.094 68.2366 118.768 68.3594L117.268 68.9219C116.478 69.2195 115.645 69.3313 114.799 69.2188L114.049 69.125L113.299 69.0156C112.492 68.9082 111.73 68.6184 111.033 68.2031L110.283 67.7656L109.533 67.3125C109.307 67.179 109.177 67.1705 109.111 67.1719L107.611 67.2031C107.567 67.2042 107.437 67.2238 107.189 67.3906L105.689 68.3906C104.785 69.0016 103.666 69.2905 102.502 68.9531L101.002 68.5156C100.712 68.4319 100.439 68.3928 100.174 68.4062L98.6738 68.5C98.0709 68.532 97.4631 68.5146 96.8613 68.4531L95.3613 68.2969C94.7446 68.2338 94.1235 68.1224 93.5176 67.9531L92.7676 67.7344L92.0176 67.5312C91.8114 67.4745 91.6277 67.4656 91.4395 67.5L89.9395 67.7812C89.3052 67.9003 88.6589 67.9527 88.0176 67.9375L86.5176 67.9062C85.8892 67.8912 85.2625 67.8061 84.6426 67.6719L83.8926 67.5156L83.2363 67.3594C83.226 67.3656 83.2187 67.3813 83.2051 67.3906L82.4551 67.9219L81.7051 68.4375C81.192 68.793 80.541 69.0504 79.7988 69.0469C79.0595 69.0422 78.416 68.7785 77.9082 68.4219L77.1582 67.8906L76.6738 67.5469L76.2676 67.7656L75.5176 68.1719C74.7664 68.5771 73.9383 68.8278 73.0645 68.8281H71.5645C70.9217 68.8282 70.2762 68.7595 69.6426 68.625L68.8926 68.4531L68.1426 68.2969C67.5193 68.1642 66.9026 67.9676 66.2988 67.7188L65.5488 67.4219L65.1113 67.2344L64.5332 67.6875L63.7832 68.2656C63.0146 68.8552 62.0721 69.2517 61.002 69.2188L60.252 69.2031L59.502 69.1719C59.0543 69.158 58.6059 69.1666 58.1582 69.1875L57.4082 69.2188L56.6582 69.2656C55.8824 69.302 55.1229 69.1669 54.3926 68.9062L52.8926 68.375C52.6197 68.2776 52.3705 68.2405 52.1426 68.25L50.6426 68.3125C50.261 68.3285 49.8754 68.3842 49.4863 68.4688L48.7363 68.625L47.9863 68.7969C47.1727 68.9733 46.351 68.9496 45.5488 68.7344L44.0488 68.3281C43.849 68.2742 43.6578 68.2731 43.4707 68.3125L41.9707 68.625C40.9385 68.8411 39.9462 68.6279 39.0801 68.1406L37.5801 67.2969C37.5292 67.2686 37.4962 67.2683 37.4863 67.2656L36.7676 67.4375L36.0176 67.6094C35.53 67.7217 35.0366 67.833 34.5488 67.9531L33.0488 68.3281C32.3599 68.4978 31.645 68.5568 30.9395 68.5156L30.1895 68.4688L29.4395 68.4375C28.6904 68.3929 27.9606 68.2043 27.2676 67.9062L26.5176 67.5781L25.9082 67.3125L25.2676 67.6719L24.5176 68.0781C23.7868 68.475 22.986 68.7296 22.1426 68.7656L20.6426 68.8281C19.8806 68.8599 19.1294 68.7327 18.4082 68.4844L17.6582 68.2344L16.9082 67.9688C16.4643 67.8161 16.0362 67.6948 15.627 67.5938L14.9082 67.4219L14.1895 67.2344C13.8446 67.1499 13.487 67.1102 13.127 67.0938L12.3926 67.0469L11.6582 67.0156C11.001 66.9856 10.3475 66.8721 9.70508 66.6875L8.95508 66.4844L8.20508 66.2656C7.29808 66.0049 6.51806 65.4827 5.93945 64.7344L5.4707 64.125L5.00195 63.5C4.65249 63.048 4.31905 62.5932 4.01758 62.125L3.61133 61.4844L3.20508 60.8594C2.89408 60.376 2.60248 59.8783 2.3457 59.3594L2.01758 58.6719L1.67383 58C1.33419 57.3133 1.14735 56.5768 1.0957 55.8125L1.04883 55.0469L0.986328 54.2969C0.962374 53.9386 0.904474 53.5709 0.798828 53.2031L0.361328 51.7031C0.174733 51.0521 0.0689324 50.3889 0.0488281 49.7188L0.0332031 48.9688L0.00195312 48.2188C-0.0282993 47.1834 0.349882 46.2548 0.908203 45.4844L1.45508 44.7344L1.9707 44.0312L1.79883 43.4844L1.56445 42.7344C1.34617 42.014 1.26447 41.266 1.31445 40.5156L1.4082 39.0156C1.43855 38.5584 1.45287 38.0976 1.45508 37.6406L1.4707 36.8906V36.1406C1.47355 35.5775 1.50572 35.0152 1.56445 34.4531L1.7207 32.9531C1.74908 32.6826 1.72599 32.3948 1.6582 32.1094L1.48633 31.3594L1.29883 30.6094C1.125 29.8732 1.09767 29.1239 1.20508 28.375L1.42383 26.875C1.42771 26.8481 1.43764 26.7658 1.3457 26.5938L0.533203 25.0938C0.236511 24.5366 0.0818654 23.8854 0.158203 23.1875C0.233586 22.5016 0.524268 21.9207 0.876953 21.4531L1.43945 20.7031L1.64258 20.4375L1.4082 20.1562L0.814453 19.4062C0.455766 18.9554 0.152017 18.3776 0.0488281 17.7031C-0.0563532 17.0096 0.0755355 16.3427 0.361328 15.7656L0.720703 15.0312L1.0957 14.2812C1.29049 13.8872 1.43825 13.5241 1.5332 13.1875L1.7207 12.4688L1.92383 11.7656C2.0297 11.389 2.10976 10.97 2.17383 10.5156L2.29883 9.70312L2.4082 8.90625L2.6582 8C3.01546 7.17001 3.68291 6.54725 4.54883 6.20312L5.3457 5.89062L6.12695 5.57812C6.52495 5.42043 6.83118 5.25345 7.04883 5.09375L7.61133 4.67188L8.18945 4.26562C8.62529 3.94592 9.07553 3.63673 9.54883 3.35938L10.1738 3L10.7988 2.625C11.1968 2.39174 11.6265 2.1411 12.0801 1.85938L13.4863 0.984375C13.779 0.802794 14.1839 0.578943 14.6426 0.46875C15.0463 0.371784 16.0619 0.267067 16.8457 1.10938L17.3926 1.07812L18.1426 1.04688C18.9127 1.01578 19.6671 1.14762 20.3926 1.40625L21.8926 1.9375C21.9775 1.96769 22.0218 1.96182 22.0957 1.9375L22.8457 1.6875L23.5957 1.45312C24.4751 1.16389 25.391 1.14614 26.2832 1.40625L27.7832 1.84375H27.8301C27.8417 1.84213 27.8758 1.83356 27.9238 1.8125L29.4238 1.15625C30.1217 0.850941 30.8533 0.666044 31.6113 0.625L32.3613 0.578125L33.1113 0.546875C33.647 0.518061 34.1848 0.498815 34.7207 0.5H36.2207C36.7767 0.501321 37.3372 0.529997 37.8926 0.578125L39.3926 0.703125C39.7595 0.734934 40.134 0.729343 40.502 0.6875L41.252 0.609375L42.002 0.515625C42.8453 0.421064 43.6747 0.553073 44.4551 0.859375L45.9551 1.45312H46.0332L47.5332 0.890625C48.2097 0.641196 48.9131 0.48844 49.627 0.453125L51.127 0.390625C51.6115 0.366626 52.0955 0.329546 52.5801 0.296875L54.0801 0.203125C55 0.141033 55.8731 0.362318 56.6582 0.78125L57.4082 1.17188L58.1582 1.57812C58.464 1.74153 58.7311 1.81567 58.9551 1.84375L60.4551 2.03125C60.7865 2.07142 61.1231 2.07446 61.4551 2.03125L62.2051 1.92188L62.9551 1.82812C63.2221 1.79302 63.5193 1.70497 63.8457 1.54688L65.3457 0.828125C66.0556 0.484106 66.8239 0.33812 67.5957 0.4375L68.3613 0.625L69.8613 1.125C70.2586 1.25885 70.6488 1.35916 71.0332 1.42188L71.7832 1.54688L72.5332 1.65625C72.8293 1.70424 73.1291 1.71526 73.4238 1.67188L74.1738 1.5625L74.9238 1.4375C75.7369 1.31679 76.551 1.39292 77.3301 1.64062L78.0801 1.89062L78.8301 2.125H78.877C78.887 2.12225 78.9028 2.11821 78.9238 2.10938L80.4238 1.45312L81.1895 1.21875C81.967 1.05476 82.7612 1.13875 83.5176 1.46875L84.2676 1.79688L84.9238 2.09375L85.5957 1.75L86.3457 1.39062C87.2382 0.95401 88.2221 0.818399 89.2207 1.07812L89.9707 1.26562L90.7207 1.46875H90.752L91.5645 1.0625L92.3145 0.671875C93.1669 0.241292 94.118 0.0779138 95.0957 0.265625L96.5957 0.546875C96.8856 0.602742 97.1715 0.614241 97.4551 0.578125L98.9551 0.390625C99.8112 0.279272 100.662 0.392194 101.455 0.703125L102.955 1.29688C103.362 1.456 103.766 1.56896 104.158 1.65625L105.658 2C105.834 2.03842 106.003 2.03432 106.189 1.98438L107.689 1.57812C108.097 1.46709 108.52 1.31986 108.939 1.14062L109.689 0.8125L110.439 0.5C111.163 0.191367 111.932 0.0185598 112.721 0.015625H113.471L114.221 0ZM113.471 4.01562H112.721C112.513 4.01741 112.274 4.05555 112.002 4.17188L111.252 4.5L110.502 4.8125C109.924 5.05934 109.343 5.27632 108.752 5.4375L107.252 5.84375C106.442 6.0644 105.604 6.0888 104.783 5.90625L103.283 5.5625C102.679 5.42791 102.077 5.24713 101.486 5.01562L99.9863 4.42188C99.7848 4.34366 99.6273 4.34206 99.4863 4.35938L97.9863 4.54688C97.2738 4.63955 96.552 4.62005 95.8457 4.48438L95.0957 4.32812L94.3457 4.1875C94.3245 4.18342 94.2719 4.17721 94.127 4.25L92.627 5C91.7334 5.45137 90.7312 5.60595 89.7207 5.34375L88.2207 4.9375H88.2051C88.2047 4.93754 88.1623 4.95174 88.0957 4.98438L87.3457 5.34375L86.5957 5.71875C85.5823 6.21293 84.4721 6.23922 83.4238 5.78125L82.6738 5.45312L81.9707 5.14062L81.2676 5.45312L80.5176 5.78125C79.5934 6.17998 78.5893 6.24842 77.6113 5.9375L76.8613 5.6875L76.1113 5.45312C75.8931 5.38436 75.7026 5.37914 75.5176 5.40625L74.0176 5.625C73.316 5.72916 72.6086 5.72216 71.9082 5.60938L70.4082 5.35938C69.7955 5.26005 69.1797 5.10845 68.5801 4.90625L67.8301 4.65625L67.0957 4.40625V4.42188L66.3457 4.78125L65.5957 5.15625C64.924 5.48178 64.2174 5.70021 63.4863 5.79688L62.7363 5.89062L61.9863 6C61.3221 6.08733 60.6512 6.08009 59.9863 6L59.2363 5.90625L58.4863 5.82812C57.7135 5.73445 56.9729 5.47722 56.2832 5.10938L55.5332 4.70312L54.7832 4.3125C54.5743 4.20089 54.4409 4.18306 54.3613 4.1875L52.8613 4.28125C52.3494 4.3158 51.8264 4.34967 51.3145 4.375L50.5645 4.42188L49.8145 4.45312C49.532 4.46763 49.2278 4.52247 48.9082 4.64062L47.4082 5.20312C46.4458 5.55727 45.4374 5.54515 44.4863 5.17188L42.9863 4.57812C42.771 4.49422 42.5924 4.48261 42.4395 4.5L41.6895 4.57812L40.9395 4.67188C40.3101 4.74294 39.6793 4.74213 39.0488 4.6875L37.5488 4.5625C37.1061 4.52411 36.6628 4.50118 36.2207 4.5H34.7207C34.2589 4.4989 33.792 4.50644 33.3301 4.53125L32.5801 4.57812L31.8301 4.60938C31.5908 4.62224 31.3174 4.68104 31.0176 4.8125L30.2676 5.15625L29.5176 5.48438C28.6124 5.87932 27.6291 5.95492 26.6582 5.67188L25.1582 5.23438C25.0522 5.20404 24.9649 5.2108 24.8457 5.25L24.0957 5.5L23.3457 5.73438C22.4199 6.03888 21.4634 6.02918 20.5488 5.70312L19.0488 5.17188C18.7755 5.07444 18.5273 5.03749 18.2988 5.04688L16.7988 5.10938C16.4686 5.12275 16.0832 5.10932 15.7051 5.03125C15.5223 4.99329 15.2597 4.90358 14.9707 4.75L14.8926 4.8125L14.1895 5.25C13.7089 5.5485 13.2472 5.82451 12.8145 6.07812L12.1895 6.45312L11.5645 6.8125C11.2076 7.02178 10.8707 7.24822 10.5488 7.48438L9.98633 7.90625L9.4082 8.3125C8.86814 8.70877 8.2631 9.03816 7.61133 9.29688L6.81445 9.60938L6.29883 9.79688L6.25195 10.2656L6.14258 11.0625C6.056 11.6787 5.92704 12.2764 5.76758 12.8438L5.58008 13.5469L5.37695 14.2656C5.20669 14.8706 4.9671 15.4703 4.67383 16.0625L4.31445 16.8125L4.12695 17.1562L4.5332 17.6562L5.12695 18.4062C5.52159 18.9023 5.85965 19.5642 5.87695 20.3594C5.89347 21.1613 5.57869 21.8434 5.18945 22.3594L4.62695 23.1094L4.25195 23.5781L4.4707 23.9688L4.86133 24.7188C5.30258 25.5454 5.51669 26.4663 5.37695 27.4375L5.1582 28.9375C5.12287 29.182 5.1291 29.4304 5.18945 29.6875L5.37695 30.4375L5.54883 31.1875C5.71835 31.9012 5.76557 32.6308 5.68945 33.3594L5.5332 34.8594C5.48791 35.2911 5.47303 35.7256 5.4707 36.1562V36.9062L5.45508 37.6562C5.45248 38.1954 5.44397 38.7424 5.4082 39.2812L5.3457 40.0312L5.29883 40.7812C5.28224 41.0303 5.30794 41.2991 5.39258 41.5781L5.62695 42.3281L5.8457 43.0781C6.21258 44.2905 5.89163 45.4265 5.23633 46.3281L4.14258 47.8281C4.05862 47.9439 4.03078 48.0249 4.01758 48.0625C4.01181 48.0791 4.00277 48.0887 4.00195 48.0938L4.0332 48.8438L4.04883 49.5938C4.05836 49.9199 4.10566 50.2633 4.20508 50.6094L4.64258 52.1094C4.82338 52.7403 4.94299 53.383 4.98633 54.0312L5.0332 54.7812L5.08008 55.5469C5.09668 55.786 5.16191 56.0042 5.26758 56.2188L5.5957 56.9062L5.93945 57.5781C6.12932 57.9618 6.33725 58.3338 6.56445 58.6875L6.9707 59.3281L7.37695 59.9531C7.61471 60.3226 7.87529 60.6966 8.1582 61.0625L8.64258 61.6719L9.11133 62.2812C9.1664 62.3525 9.2202 62.3948 9.31445 62.4219L10.0645 62.6406L10.8145 62.8438C11.1696 62.9456 11.5055 63.0159 11.8301 63.0312L12.5801 63.0625L13.3145 63.0938C13.9366 63.1221 14.5551 63.2107 15.1582 63.3594L15.8613 63.5312L16.5801 63.7031C17.1179 63.8357 17.6685 63.9974 18.2207 64.1875L18.9707 64.4531L19.7207 64.7031C19.9934 64.7965 20.2378 64.8372 20.4707 64.8281L21.9707 64.7656C22.1272 64.7589 22.3421 64.7087 22.6113 64.5625L24.1113 63.75L24.8926 63.4219C25.4254 63.2671 25.9802 63.2437 26.5332 63.3438L27.3457 63.5938L28.0957 63.9062L28.8457 64.2344C29.1483 64.3645 29.4269 64.4224 29.6738 64.4375L31.1738 64.5312C31.4672 64.5484 31.7703 64.5135 32.0801 64.4375L32.8301 64.25L33.5801 64.0781C34.0892 63.9527 34.6021 63.8204 35.1113 63.7031L36.6113 63.3594C37.6553 63.119 38.6699 63.318 39.5488 63.8125L41.0488 64.6562L41.1582 64.7031L42.6582 64.3906C43.4677 64.2215 44.2832 64.2542 45.0801 64.4688L46.5801 64.875C46.7753 64.9277 46.959 64.9305 47.1426 64.8906L47.8926 64.7188L48.6426 64.5625C49.2513 64.4305 49.87 64.3537 50.4863 64.3281L51.9863 64.2656C52.7563 64.2345 53.5111 64.3506 54.2363 64.6094L55.7363 65.1406C56.006 65.2369 56.2465 65.2761 56.4707 65.2656L57.2207 65.2344L57.9707 65.1875C58.5219 65.1617 59.0757 65.1705 59.627 65.1875L60.377 65.2031L61.127 65.2344V65.2188C61.16 65.2058 61.2358 65.1777 61.3457 65.0938L62.8457 63.9375L63.6113 63.4688C64.1536 63.2186 64.7533 63.1067 65.377 63.1719L66.3301 63.4062L67.8301 64.0312C68.2201 64.1916 68.5999 64.3115 68.9707 64.3906L70.4707 64.7031C70.8371 64.7809 71.2072 64.8282 71.5645 64.8281H73.0645C73.1899 64.8278 73.3646 64.7892 73.6113 64.6562L75.1113 63.8438C75.6538 63.5511 76.2879 63.383 76.9707 63.4375C77.6433 63.4923 78.228 63.7597 78.7051 64.0938L79.4551 64.625L79.8145 64.8594L80.1738 64.625L80.9238 64.1094C81.7856 63.5123 82.8434 63.19 83.9863 63.4375L84.7363 63.6094L85.4863 63.7656C85.8656 63.8478 86.2406 63.8974 86.6113 63.9062L88.1113 63.9375C88.4678 63.946 88.8259 63.9117 89.1895 63.8438L90.6895 63.5625C91.4952 63.4112 92.3084 63.4528 93.0957 63.6719L93.8457 63.8906L94.5957 64.0938C94.9898 64.2038 95.3843 64.2733 95.7676 64.3125L97.2676 64.4688C97.6642 64.5093 98.0597 64.5209 98.4551 64.5L99.2051 64.4531L99.9551 64.4219C100.688 64.383 101.42 64.4671 102.127 64.6719L102.877 64.8906L103.455 65.0469L104.189 64.5781L104.939 64.0625C105.691 63.5552 106.562 63.2256 107.518 63.2031L109.018 63.1719C109.949 63.1503 110.813 63.4191 111.58 63.875L112.33 64.3281L113.08 64.7656C113.383 64.946 113.637 65.0212 113.83 65.0469L114.58 65.1562L115.33 65.25C115.483 65.2699 115.653 65.2662 115.861 65.1875L116.611 64.9062L117.361 64.6094C118.029 64.3583 118.72 64.2039 119.424 64.1562L120.924 64.0625C121.396 64.031 121.874 63.9888 122.346 63.9375L123.096 63.8594L123.846 63.7656C124.532 63.6909 125.227 63.7266 125.908 63.8438L127.408 64.0938C127.924 64.1825 128.439 64.2855 128.955 64.3906L129.705 64.5469L130.455 64.6875C130.642 64.7257 130.832 64.7264 131.033 64.6719L132.533 64.2656C133.083 64.1156 133.637 63.9793 134.189 63.875L135.689 63.5938C136.715 63.4004 137.694 63.6245 138.549 64.1094L140.049 64.9531L140.08 64.9688L140.783 64.7812L141.533 64.5781C142.382 64.344 143.248 64.3426 144.096 64.5781L144.846 64.7812L145.408 64.9375L146.127 64.4219L146.877 63.875L147.705 63.4219C148.006 63.303 148.334 63.2247 148.689 63.2031C149.051 63.182 149.401 63.2236 149.721 63.3125L150.611 63.7031L152.111 64.6094H152.127L152.799 64.4531L153.549 64.25C154.323 64.0425 155.117 64.0027 155.908 64.1406L157.408 64.3906C157.802 64.4591 158.191 64.4963 158.58 64.5L159.33 64.5156H160.08C160.669 64.5211 161.259 64.5715 161.846 64.6562L163.346 64.875C163.716 64.9286 164.088 64.9417 164.455 64.9219L165.205 64.875L165.955 64.8438C166.597 64.809 167.239 64.8356 167.877 64.9375L169.377 65.1875C169.56 65.2167 169.756 65.2081 169.971 65.1406L170.721 64.8906L171.471 64.6562C171.938 64.5091 172.408 64.3567 172.877 64.1875L173.627 63.9062L174.377 63.6406C175.227 63.3335 176.127 63.2761 177.018 63.4844L178.518 63.8281C178.831 63.9015 179.14 63.9254 179.439 63.9062L180.939 63.8125C181.725 63.7627 182.497 63.8762 183.236 64.1406L183.986 64.4219L184.736 64.6875C184.972 64.772 185.175 64.7845 185.361 64.7656L186.111 64.6875L186.861 64.625C187.345 64.576 187.831 64.5144 188.314 64.4531L189.814 64.2656C190.438 64.1868 191.064 64.1639 191.689 64.2031L193.189 64.2969C193.786 64.3344 194.379 64.4232 194.971 64.5469L196.471 64.8594C196.475 64.8586 196.518 64.8397 196.596 64.7969L198.096 63.9844L198.955 63.6406C199.256 63.5653 199.576 63.5315 199.908 63.5469C200.24 63.5625 200.555 63.6181 200.846 63.7188L201.643 64.125L202.393 64.5938L203.143 65.0781C203.375 65.2271 203.496 65.235 203.533 65.2344L205.033 65.2031C205.154 65.2009 205.329 65.1729 205.58 65.0312L207.08 64.1875C207.847 63.7555 208.701 63.5073 209.611 63.5312L210.361 63.5469L211.111 63.5781C211.784 63.5969 212.458 63.6892 213.111 63.875L214.611 64.3125C214.993 64.4207 215.368 64.4837 215.736 64.5156L217.236 64.6406C217.685 64.6795 218.132 64.6995 218.58 64.7031L219.33 64.7188H220.08C220.35 64.7209 220.636 64.6783 220.939 64.5781L221.689 64.3281L222.439 64.0938C222.981 63.9149 223.521 63.7481 224.064 63.6094L224.814 63.4219L225.564 63.2188C226.513 62.977 227.466 63.078 228.346 63.4531L229.096 63.7812L229.846 64.0938C230.262 64.2713 230.678 64.409 231.08 64.5156L232.58 64.9219C232.915 65.0103 233.246 65.0475 233.564 65.0469H235.064C235.135 65.0458 235.283 65.0204 235.518 64.875L236.268 64.4219L237.018 63.9531C237.74 63.5069 238.543 63.2105 239.408 63.1406L240.908 63.0156C241.518 62.9667 242.127 62.9626 242.736 63.0156L243.486 63.0781L244.236 63.1562C244.667 63.1937 245.104 63.1953 245.533 63.1875L246.283 63.1719H247.033C247.801 63.1588 248.549 63.2921 249.268 63.5625L250.768 64.125L251.518 63.7969L252.268 63.4844L253.064 63.2344C253.603 63.1293 254.145 63.1466 254.674 63.2812L255.439 63.5625L256.189 63.9219L256.939 64.2969C257.179 64.4139 257.365 64.4422 257.502 64.4375L259.002 64.375C259.249 64.3656 259.518 64.3225 259.814 64.2031L260.564 63.8906L261.314 63.5938L262.111 63.3594C262.915 63.2227 263.727 63.3572 264.471 63.7344L265.221 64.125L265.971 64.5C266.316 64.6747 266.632 64.7906 266.924 64.8438L267.674 64.9688L268.408 65.0938C268.424 65.0892 268.467 65.0867 268.533 65.0469L269.283 64.5938L270.033 64.1562C270.791 63.7022 271.647 63.4237 272.564 63.4219L273.314 63.4062H274.064C274.616 63.4053 275.169 63.4255 275.721 63.4688L277.221 63.5938C277.834 63.642 278.445 63.7379 279.049 63.8906L279.799 64.0938L280.549 64.2812C280.889 64.3674 281.225 64.4081 281.549 64.4062L282.299 64.3906H283.049C283.402 64.3885 283.763 64.3471 284.127 64.2656L284.877 64.0938L285.627 63.9375C286.633 63.7124 287.613 63.8751 288.486 64.3281L289.236 64.7188L289.627 64.9219L290.143 64.5625L290.893 64.0156L291.689 63.5625C292.252 63.3301 292.863 63.2439 293.486 63.3438L294.424 63.6406L295.174 64L295.924 64.3438C296.222 64.4846 296.478 64.5461 296.705 64.5625L297.455 64.625L298.205 64.6719C298.726 64.7091 299.247 64.7571 299.768 64.8125L300.518 64.8906L301.268 64.9844C301.47 65.006 301.697 64.971 301.939 64.8906L302.689 64.6562L303.439 64.4062C303.929 64.2437 304.418 64.0751 304.908 63.9062L305.658 63.6406L306.408 63.3906L307.205 63.2031C307.989 63.1062 308.76 63.2611 309.471 63.625L310.221 64L310.83 64.3125L311.455 64.0312L312.205 63.6719L313.096 63.3906C313.407 63.3361 313.731 63.317 314.064 63.3594C314.394 63.4016 314.705 63.4875 314.986 63.6094L315.752 64.0625L317.252 65.1562L317.846 65.0156L318.596 64.8281C319.164 64.6904 319.742 64.5893 320.314 64.5156L321.814 64.3281C322.304 64.265 322.793 64.1941 323.283 64.125L324.783 63.9062C325.503 63.8047 326.225 63.832 326.939 63.9688L328.439 64.25C328.712 64.3021 328.983 64.3089 329.252 64.2656L330.752 64.0156C331.558 63.887 332.364 63.9529 333.143 64.1875L333.893 64.4219L334.643 64.6406C334.888 64.7142 335.115 64.729 335.33 64.7031L336.08 64.6094L336.83 64.5312C337.315 64.473 337.798 64.3961 338.283 64.3281L339.033 64.2344L339.783 64.125C340.561 64.016 341.34 64.0727 342.096 64.2812L343.596 64.6875C343.944 64.7835 344.281 64.8359 344.611 64.8438L346.111 64.875C346.454 64.8831 346.806 64.8553 347.158 64.7812L348.658 64.4688C349.132 64.369 349.606 64.2569 350.08 64.1406L350.83 63.9531L351.58 63.7812C352.581 63.5358 353.57 63.6834 354.455 64.125L355.205 64.4844L355.736 64.75L356.314 64.4375L357.064 64C357.859 63.5451 358.764 63.302 359.721 63.375L360.471 63.4375L361.221 63.4844C361.668 63.5184 362.118 63.5472 362.564 63.5469H363.314L364.064 63.5312C364.788 63.531 365.499 63.6611 366.189 63.8906L367.689 64.3906C367.842 64.4413 367.97 64.4368 368.096 64.4062L368.846 64.2344L369.596 64.0469C370.5 63.8275 371.408 63.895 372.268 64.2188L373.018 64.5L373.58 64.7031L374.252 64.2969L375.002 63.8281L375.814 63.4375C376.112 63.3399 376.429 63.2731 376.768 63.2656C377.107 63.2584 377.433 63.3044 377.736 63.3906L378.58 63.7656L379.33 64.2031L379.814 64.4844L380.314 64.2031L381.064 63.7656C381.804 63.3379 382.638 63.0613 383.533 63.0625H384.955C385.213 63.0628 385.447 63.0263 385.658 62.9531L386.314 62.7344L386.971 62.5C387.619 62.2739 388.302 62.1664 389.002 62.1406L389.799 62.1094L390.611 62.0781C390.846 62.0691 391.068 62.0026 391.283 61.8906L391.986 61.5312L392.705 61.1562C392.848 61.0822 392.942 60.989 393.018 60.8594L393.424 60.1719L393.83 59.4688C393.852 59.4306 393.867 59.3801 393.846 59.2344L393.721 58.375L393.596 57.5312C393.483 56.7848 393.473 56.0294 393.627 55.2969L393.768 54.625L393.908 53.9375C394.013 53.4382 394.148 52.9218 394.299 52.3906L394.518 51.6562L394.721 50.9062C394.824 50.5412 394.896 50.1739 394.924 49.8125L394.971 49.0625L395.033 48.3125C395.068 47.8603 395.077 47.4049 395.08 46.9531L395.096 46.2031V45.4531C395.097 45.1812 395.054 44.8974 394.955 44.5938L394.705 43.8438L394.471 43.0938C394.126 42.0371 394.256 40.9701 394.752 40.0312L395.143 39.2812L395.549 38.5312V38.5L395.346 37.7812L395.127 37.0312C394.925 36.3376 394.837 35.6252 394.861 34.9062L394.893 34.1562L394.908 33.4062C394.929 32.8239 394.987 32.2356 395.08 31.6562L395.33 30.1562C395.358 29.98 395.351 29.7892 395.283 29.5781L395.033 28.8281L394.799 28.0781C394.529 27.2392 394.484 26.3631 394.689 25.5L394.861 24.75L395.049 24C395.058 23.9566 395.055 23.9007 395.002 23.7812L394.346 22.2812C393.923 21.331 393.853 20.2957 394.205 19.2969L394.736 17.7969C394.842 17.4965 394.891 17.2153 394.893 16.9531V16.2031L394.908 15.4531C394.912 14.884 394.939 14.2902 395.002 13.6875L395.08 12.875L395.111 12.5781L394.674 12.3438L393.861 11.9062C392.732 11.3041 392.03 10.2631 391.924 8.96875L391.846 8.0625L391.783 7.39062L390.658 6.82812C390.462 6.73198 390.255 6.69977 390.033 6.70312H389.236L388.424 6.71875C387.595 6.73032 386.784 6.56769 386.033 6.1875L385.377 5.84375L384.705 5.51562C384.422 5.3725 384.118 5.26082 383.783 5.1875L383.033 5.01562L382.283 4.85938C381.992 4.79638 381.709 4.78395 381.424 4.8125L380.674 4.89062L379.924 4.95312C379.321 5.01394 378.715 5.03475 378.111 5L376.611 4.90625C376.018 4.87174 375.419 4.80586 374.83 4.6875L373.33 4.375C373.193 4.3474 373.053 4.3611 372.877 4.42188L372.127 4.67188L371.377 4.9375C370.675 5.18025 369.945 5.30182 369.205 5.29688H368.455L367.705 5.28125C367.379 5.27926 367.046 5.32155 366.705 5.40625L365.205 5.78125C364.282 6.011 363.355 5.93858 362.486 5.59375L361.736 5.28125L361.033 5L360.314 5.34375L359.564 5.6875C358.807 6.03907 357.991 6.22151 357.143 6.1875L355.643 6.125C354.79 6.09027 353.984 5.84434 353.252 5.4375L352.502 5.01562L352.018 4.75L351.533 5.0625L350.783 5.53125C349.869 6.10165 348.78 6.33089 347.658 6L346.908 5.78125L346.158 5.54688C345.732 5.42022 345.297 5.32228 344.877 5.25L343.377 5C343.234 4.97607 343.082 4.97901 342.893 5.04688L342.143 5.3125L341.393 5.59375C340.423 5.93998 339.416 5.90017 338.471 5.51562L337.721 5.21875L336.971 4.90625C336.622 4.76402 336.286 4.68195 335.971 4.64062L335.221 4.53125L334.471 4.4375C334.323 4.41838 334.149 4.4346 333.939 4.51562L333.189 4.8125L332.439 5.09375C331.809 5.33797 331.159 5.51372 330.502 5.60938L329.002 5.82812C328.482 5.90375 327.959 5.9731 327.439 6.03125L326.689 6.10938L325.939 6.20312C325.042 6.30269 324.175 6.13646 323.377 5.76562L322.627 5.40625L321.877 5.0625C321.614 4.94037 321.401 4.90684 321.221 4.90625H320.471L319.721 4.89062C319.073 4.88982 318.421 4.82859 317.783 4.6875L317.033 4.51562L316.283 4.35938C316.24 4.35007 316.181 4.33038 316.049 4.39062L314.549 5.07812C313.449 5.58013 312.281 5.50363 311.252 4.9375L310.502 4.53125L310.049 4.28125L309.564 4.60938L308.814 5.09375C307.962 5.64555 306.936 5.92483 305.846 5.71875L304.346 5.4375C304.034 5.37876 303.729 5.36086 303.424 5.39062L301.924 5.54688C301.301 5.60871 300.672 5.60041 300.049 5.54688L298.549 5.42188C298.001 5.37479 297.455 5.3058 296.908 5.21875L296.158 5.10938L295.408 4.98438C294.829 4.89212 294.247 4.77087 293.674 4.60938L292.924 4.39062L292.174 4.1875C291.968 4.12991 291.783 4.12014 291.596 4.15625L290.096 4.4375C289.758 4.50309 289.403 4.61627 289.033 4.78125L288.283 5.125L287.533 5.45312C286.573 5.88113 285.536 5.93115 284.533 5.5625L283.033 5C282.58 4.83271 282.124 4.69188 281.674 4.5625L280.174 4.125C279.974 4.06761 279.792 4.07342 279.611 4.10938L278.861 4.25L278.111 4.40625C277.36 4.55577 276.598 4.54872 275.846 4.40625L274.346 4.125C274.146 4.08766 273.95 4.10077 273.736 4.15625L272.986 4.34375L272.236 4.54688C271.782 4.66658 271.318 4.80053 270.861 4.95312L270.111 5.20312L269.361 5.46875C268.59 5.72652 267.782 5.80607 266.971 5.70312L265.471 5.51562C264.936 5.44756 264.395 5.36168 263.861 5.26562L263.111 5.125L262.361 5C261.802 4.89917 261.245 4.76242 260.689 4.60938L259.189 4.20312C258.868 4.11452 258.553 4.07243 258.252 4.07812L256.752 4.10938C256.231 4.11915 255.71 4.11733 255.189 4.10938L254.439 4.09375H253.689C253.67 4.09347 253.558 4.08243 253.33 4.23438L252.58 4.75L251.83 5.25C250.827 5.9185 249.602 6.1104 248.408 5.57812L246.908 4.89062C246.556 4.73283 246.22 4.64323 245.908 4.59375L245.158 4.46875L244.408 4.35938C243.986 4.29245 243.562 4.25019 243.143 4.23438L241.643 4.17188C241.379 4.16226 241.107 4.20707 240.814 4.29688L240.064 4.51562L239.314 4.75C238.758 4.9214 238.188 5.06949 237.627 5.1875L236.127 5.5C235.101 5.71458 234.118 5.51195 233.252 5.03125L232.502 4.625L231.752 4.20312C231.731 4.19128 231.715 4.17605 231.705 4.17188L231.018 4.39062L230.268 4.59375C229.636 4.77201 228.992 4.8809 228.346 4.92188L226.846 5.01562C226.062 5.06514 225.287 4.96332 224.549 4.70312L223.049 4.17188C222.898 4.11956 222.789 4.11414 222.674 4.14062L221.174 4.48438C220.775 4.57667 220.367 4.71198 219.955 4.875L218.455 5.46875C217.413 5.87995 216.329 5.80867 215.346 5.32812L214.596 4.95312L213.861 4.59375L213.189 4.875L212.439 5.15625C211.817 5.39402 211.178 5.57049 210.533 5.67188L209.783 5.78125L209.033 5.90625C207.926 6.08004 206.912 5.74813 206.08 5.17188L205.33 4.65625L204.752 4.25L204.283 4.46875L203.533 4.79688C202.925 5.06897 202.307 5.292 201.674 5.4375L200.174 5.78125C199.064 6.03606 198.017 5.75117 197.143 5.1875L195.643 4.21875C195.6 4.19154 195.566 4.17923 195.549 4.17188L194.861 4.3125L194.111 4.46875C193.822 4.52555 193.503 4.63196 193.158 4.8125L192.408 5.20312L191.658 5.60938C190.554 6.18999 189.333 6.16057 188.252 5.5625L187.502 5.14062L186.83 4.76562L186.221 5.03125L185.471 5.32812C184.637 5.6643 183.745 5.7665 182.846 5.59375L181.346 5.3125C181.143 5.27336 180.937 5.27189 180.721 5.32812L179.971 5.53125L179.221 5.71875C178.287 5.96097 177.349 5.88682 176.471 5.53125L175.721 5.21875L174.971 4.92188C174.567 4.75823 174.17 4.63359 173.783 4.54688L173.033 4.375L172.408 4.23438V4.25L170.908 5.34375C170.426 5.69639 169.817 5.98254 169.111 6.03125C168.392 6.07915 167.73 5.87043 167.189 5.54688L166.439 5.10938L165.893 4.78125L165.408 5.04688L164.658 5.45312C163.804 5.90711 162.843 6.09799 161.846 5.90625L161.096 5.76562L160.346 5.60938C159.654 5.47553 158.976 5.24125 158.33 4.92188L157.58 4.5625L157.111 4.32812L156.596 4.6875L155.846 5.20312C155.348 5.54161 154.735 5.79086 154.033 5.8125C153.328 5.83364 152.697 5.61962 152.174 5.29688L150.674 4.35938C150.57 4.29486 150.489 4.27452 150.455 4.26562C150.431 4.25979 150.417 4.26493 150.408 4.26562L149.658 4.32812L148.908 4.40625C148.378 4.45542 147.845 4.49082 147.314 4.51562L145.814 4.57812C145.283 4.60295 144.752 4.61095 144.221 4.60938H142.721C142.244 4.60787 141.76 4.61192 141.283 4.625L140.533 4.65625L139.783 4.67188C139.625 4.67624 139.408 4.72048 139.143 4.85938L137.643 5.64062C136.564 6.20456 135.378 6.20453 134.299 5.64062L132.799 4.85938C132.505 4.7054 132.254 4.64293 132.049 4.625L131.299 4.5625L130.549 4.48438C130.493 4.47955 130.376 4.48292 130.174 4.59375L129.424 5.01562L128.674 5.42188C128.149 5.70765 127.539 5.87416 126.877 5.84375C126.218 5.81302 125.632 5.5942 125.143 5.28125L124.393 4.79688L123.643 4.32812C123.629 4.31942 123.621 4.30232 123.611 4.29688L122.955 4.46875L122.205 4.65625C121.743 4.77096 121.278 4.90326 120.814 5.04688L119.314 5.51562C118.198 5.86142 117.099 5.64165 116.174 5.07812L114.674 4.17188C114.437 4.02829 114.292 3.99974 114.221 4L113.471 4.01562Z" fill="black"/>
<path d="M83.6152 37.25C83.084 39.5781 82.0137 41.4414 80.4043 42.8398C78.7715 44.2461 76.8574 44.9492 74.6621 44.9492C72.584 44.9492 71.0254 44.4023 69.9863 43.3086C68.9473 42.207 68.4277 40.5586 68.4277 38.3633C68.4277 36.3633 68.9199 34.3125 69.9043 32.2109C70.8887 30.1094 72.1543 28.4062 73.7012 27.1016C74.7871 26.1875 75.9512 25.7305 77.1934 25.7305C77.9512 25.7305 78.9824 26.0039 80.2871 26.5508C81.834 27.1992 82.6074 27.8906 82.6074 28.625C82.6074 29.0469 82.4473 29.4258 82.127 29.7617C81.8066 30.0898 81.4121 30.2539 80.9434 30.2539C80.709 30.2539 80.1895 30.0352 79.3848 29.5977C78.5879 29.1523 77.8574 28.9297 77.1934 28.9297C76.4902 28.9297 75.541 29.6875 74.3457 31.2031C72.6035 33.4062 71.7324 35.793 71.7324 38.3633C71.7324 39.668 71.9238 40.5547 72.3066 41.0234C72.7129 41.5156 73.498 41.7617 74.6621 41.7617C75.8574 41.7617 76.9082 41.4219 77.8145 40.7422C78.7754 40.0234 79.4863 38.9766 79.9473 37.6016C78.1348 37.7422 76.5566 38.1133 75.2129 38.7148C74.9707 38.8242 74.7285 38.8789 74.4863 38.8789C74.002 38.8789 73.5996 38.6992 73.2793 38.3398C72.9902 38.0195 72.8457 37.6562 72.8457 37.25C72.8457 36.0547 74.2598 35.2188 77.0879 34.7422C78.6816 34.4766 80.541 34.3438 82.666 34.3438C83.1348 34.3438 83.5254 34.4961 83.8379 34.8008C84.1582 35.1055 84.3184 35.4805 84.3184 35.9258C84.3184 36.4961 84.084 36.9375 83.6152 37.25ZM91.3848 44.6797C89.5176 44.6797 87.9902 44.2344 86.8027 43.3438C85.4902 42.3594 84.834 40.9727 84.834 39.1836C84.834 37.207 85.3535 35.5352 86.3926 34.168C87.5488 32.6523 89.1074 31.8945 91.0684 31.8945C92.4277 31.8945 93.5566 32.1133 94.4551 32.5508C95.6348 33.1289 96.2246 34.0273 96.2246 35.2461C96.2246 36.1055 95.7441 36.8672 94.7832 37.5312C94.3457 37.8359 93.4668 38.2812 92.1465 38.8672L88.1973 40.6133C88.5723 41.0195 89.0254 41.3242 89.5566 41.5273C90.0879 41.7305 90.6973 41.832 91.3848 41.832C92.4316 41.832 93.3184 41.6172 94.0449 41.1875C94.6934 40.8047 95.2129 40.6133 95.6035 40.6133C96.416 40.6133 96.8223 41.0078 96.8223 41.7969C96.8223 42.6875 96.1699 43.4141 94.8652 43.9766C93.7715 44.4453 92.6113 44.6797 91.3848 44.6797ZM91.0684 34.7305C90.3418 34.7305 89.7207 34.9727 89.2051 35.457C88.6895 35.9414 88.2754 36.668 87.9629 37.6367C88.8457 37.2539 89.7246 36.875 90.5996 36.5C91.6543 36.0234 92.4941 35.582 93.1191 35.1758C92.5957 34.8789 91.9121 34.7305 91.0684 34.7305ZM107.182 34.707C107.018 34.707 106.822 34.7031 106.596 34.6953C106.377 34.6797 106.186 34.6719 106.021 34.6719C105.701 34.6719 105.33 34.7031 104.908 34.7656C105.049 37.9219 105.119 39.9844 105.119 40.9531C105.119 41.0547 105.123 41.2461 105.131 41.5273C105.139 41.8008 105.143 42.0234 105.143 42.1953C105.143 43.9922 104.576 44.8906 103.443 44.8906C103.014 44.8906 102.643 44.7578 102.33 44.4922C101.986 44.2109 101.814 43.8594 101.814 43.4375C101.814 43.1562 101.826 42.7344 101.85 42.1719C101.873 41.6094 101.885 41.1875 101.885 40.9062C101.885 39.9609 101.814 37.9375 101.674 34.8359C101.189 34.8125 100.455 34.75 99.4707 34.6484C98.4941 34.5391 98.0059 34.0312 98.0059 33.125C98.0059 32.6875 98.1543 32.3164 98.4512 32.0117C98.748 31.707 99.1309 31.5547 99.5996 31.5547C99.8887 31.5547 100.553 31.6016 101.592 31.6953C101.584 31.4453 101.564 31.0312 101.533 30.4531C101.502 29.9531 101.486 29.5664 101.486 29.293C101.486 28.8555 101.646 28.4922 101.967 28.2031C102.287 27.9141 102.674 27.7695 103.127 27.7695C104.283 27.7695 104.861 28.7422 104.861 30.6875L104.838 31.6484C105.322 31.5781 105.717 31.543 106.021 31.543C106.92 31.543 107.533 31.6016 107.861 31.7188C108.486 31.9375 108.799 32.4141 108.799 33.1484C108.799 33.5938 108.646 33.9648 108.342 34.2617C108.037 34.5586 107.65 34.707 107.182 34.707ZM132.283 34.2383C131.432 36.0117 130.084 38.7969 128.24 42.5938C127.24 44.6328 126.479 46.3242 125.955 47.668C125.791 48.1523 125.533 48.8711 125.182 49.8242C124.9 50.5586 124.4 50.9258 123.682 50.9258C123.236 50.9258 122.846 50.7812 122.51 50.4922C122.174 50.2031 122.006 49.8398 122.006 49.4023C122.006 48.6758 122.834 46.5234 124.49 42.9453C123.631 41.25 122.268 38.7539 120.4 35.457C120.213 35.1602 120.021 34.8594 119.826 34.5547C119.615 34.1953 119.51 33.8672 119.51 33.5703C119.51 33.1484 119.678 32.7773 120.014 32.457C120.35 32.1367 120.736 31.9766 121.174 31.9766C121.689 31.9766 122.092 32.168 122.381 32.5508C123.49 34.0273 124.783 36.25 126.26 39.2188C127.096 37.3672 127.604 36.25 127.783 35.8672C128.338 34.7031 128.881 33.6797 129.412 32.7969C129.748 32.2344 130.209 31.9531 130.795 31.9531C131.232 31.9531 131.623 32.1016 131.967 32.3984C132.311 32.6953 132.482 33.0586 132.482 33.4883C132.482 33.7148 132.416 33.9648 132.283 34.2383ZM138.729 44.832C137.283 44.832 136.041 44.3359 135.002 43.3438C133.861 42.2578 133.264 40.8086 133.209 38.9961C133.154 37.2695 133.627 35.7305 134.627 34.3789C135.814 32.7852 137.467 31.9883 139.584 31.9883C141.146 31.9883 142.389 32.6133 143.311 33.8633C144.139 34.9883 144.553 36.3828 144.553 38.0469C144.553 39.8594 144.068 41.4062 143.1 42.6875C142.014 44.1172 140.557 44.832 138.729 44.832ZM139.432 35.082C138.471 35.0742 137.713 35.5117 137.158 36.3945C136.689 37.1367 136.455 38.0039 136.455 38.9961C136.455 39.9336 136.721 40.6523 137.252 41.1523C137.674 41.5508 138.166 41.75 138.729 41.75C139.408 41.75 139.998 41.5195 140.498 41.0586C141.068 40.5195 141.373 39.7891 141.412 38.8672C141.514 36.3516 140.854 35.0898 139.432 35.082ZM156.799 37.3672C156.799 37.8906 156.803 38.6797 156.811 39.7344C156.818 40.7891 156.822 41.5781 156.822 42.1016C156.822 42.2656 156.834 42.5117 156.857 42.8398C156.889 43.1602 156.904 43.4023 156.904 43.5664C156.904 44.0039 156.744 44.3633 156.424 44.6445C156.111 44.9336 155.725 45.0781 155.264 45.0781C154.615 45.0781 154.143 44.7852 153.846 44.1992C152.846 44.5664 151.811 44.75 150.74 44.75C149.631 44.75 148.697 44.5156 147.939 44.0469C147.088 43.5078 146.58 42.7227 146.416 41.6914C146.111 39.7383 145.959 37.9922 145.959 36.4531C145.959 35.4375 146.076 34.2773 146.311 32.9727C146.467 32.0898 146.994 31.6484 147.893 31.6484C148.346 31.6484 148.732 31.793 149.053 32.082C149.373 32.3633 149.533 32.7227 149.533 33.1602C149.533 33.5039 149.475 34.043 149.357 34.7773C149.248 35.5117 149.193 36.0703 149.193 36.4531C149.193 37.5547 149.229 38.5195 149.299 39.3477C149.377 40.168 149.49 40.8477 149.639 41.3867C149.834 41.4727 150.021 41.5391 150.201 41.5859C150.389 41.6328 150.568 41.6562 150.74 41.6562C151.607 41.6562 152.561 41.5312 153.6 41.2812C153.6 40.6797 153.596 39.9961 153.588 39.2305C153.572 38.3164 153.564 37.6602 153.564 37.2617C153.564 35.6602 153.639 34.2773 153.787 33.1133C153.904 32.1836 154.436 31.7188 155.381 31.7188C155.842 31.7188 156.236 31.8633 156.564 32.1523C156.893 32.4414 157.045 32.8047 157.021 33.2422C156.873 36.2188 156.799 37.5938 156.799 37.3672ZM168.846 35.6914C168.775 36.8867 168.232 37.4844 167.217 37.4844C166.232 37.4844 165.74 36.9766 165.74 35.9609L165.682 34.7773C163.924 35.0586 162.666 35.9609 161.908 37.4844L161.92 43.3789C161.92 43.8242 161.768 44.1914 161.463 44.4805C161.158 44.7773 160.771 44.9258 160.303 44.9258C159.818 44.9258 159.443 44.7695 159.178 44.457C158.928 44.1758 158.803 43.8164 158.803 43.3789V35.7031C158.803 35.4609 158.811 35.1016 158.826 34.625C158.842 34.1406 158.85 33.7773 158.85 33.5352C158.85 33.0977 158.979 32.7344 159.236 32.4453C159.502 32.1484 159.877 32 160.361 32C161.229 32 161.744 32.4453 161.908 33.3359C163.291 32.3047 164.826 31.7891 166.514 31.7891C168.076 31.7891 168.857 32.8281 168.857 34.9062C168.857 35.3047 168.854 35.5664 168.846 35.6914ZM195.951 33.8164C195.131 36.8789 194.307 39.6602 193.479 42.1602C193.244 42.8633 192.861 43.5859 192.33 44.3281C191.955 44.8438 191.455 45.0977 190.83 45.0898C189.846 45.0742 189.072 44.125 188.51 42.2422C188.299 41.5234 188.049 40.1836 187.76 38.2227C187.596 38.5664 187.494 38.7969 187.455 38.9141C187.049 39.8828 186.455 41.3867 185.674 43.4258C185.557 43.7539 185.381 44.0156 185.146 44.2109C184.818 44.7344 184.33 45.0078 183.682 45.0312C183.314 45.0469 182.928 44.7188 182.521 44.0469C182.092 43.3672 181.744 42.4922 181.479 41.4219C181.236 40.4531 180.861 38.3438 180.354 35.0938C180.244 34.3906 180.189 33.8398 180.189 33.4414C180.189 33.0117 180.35 32.6562 180.67 32.375C180.998 32.0859 181.389 31.9414 181.842 31.9414C182.686 31.9414 183.205 32.3594 183.4 33.1953C183.502 33.6328 183.588 34.1719 183.658 34.8125C183.752 35.7344 183.811 36.2773 183.834 36.4414C183.936 37.0508 184.092 38.0469 184.303 39.4297C184.881 37.8438 185.545 35.8711 186.295 33.5117C186.615 32.4961 187.217 31.9883 188.1 31.9883C188.967 31.9883 189.537 32.5547 189.811 33.6875C190.006 34.4844 190.213 35.5195 190.432 36.793C190.752 38.6445 190.947 39.7461 191.018 40.0977C191.088 39.8555 191.701 37.4805 192.857 32.9727C193.029 32.3008 193.518 31.9648 194.322 31.9648C194.768 31.9648 195.158 32.1094 195.494 32.3984C195.838 32.6875 196.01 33.0469 196.01 33.4766C196.01 33.5547 195.99 33.668 195.951 33.8164ZM202.221 44.832C200.775 44.832 199.533 44.3359 198.494 43.3438C197.354 42.2578 196.756 40.8086 196.701 38.9961C196.646 37.2695 197.119 35.7305 198.119 34.3789C199.307 32.7852 200.959 31.9883 203.076 31.9883C204.639 31.9883 205.881 32.6133 206.803 33.8633C207.631 34.9883 208.045 36.3828 208.045 38.0469C208.045 39.8594 207.561 41.4062 206.592 42.6875C205.506 44.1172 204.049 44.832 202.221 44.832ZM202.924 35.082C201.963 35.0742 201.205 35.5117 200.65 36.3945C200.182 37.1367 199.947 38.0039 199.947 38.9961C199.947 39.9336 200.213 40.6523 200.744 41.1523C201.166 41.5508 201.658 41.75 202.221 41.75C202.9 41.75 203.49 41.5195 203.99 41.0586C204.561 40.5195 204.865 39.7891 204.904 38.8672C205.006 36.3516 204.346 35.0898 202.924 35.082ZM219.846 35.6914C219.775 36.8867 219.232 37.4844 218.217 37.4844C217.232 37.4844 216.74 36.9766 216.74 35.9609L216.682 34.7773C214.924 35.0586 213.666 35.9609 212.908 37.4844L212.92 43.3789C212.92 43.8242 212.768 44.1914 212.463 44.4805C212.158 44.7773 211.771 44.9258 211.303 44.9258C210.818 44.9258 210.443 44.7695 210.178 44.457C209.928 44.1758 209.803 43.8164 209.803 43.3789V35.7031C209.803 35.4609 209.811 35.1016 209.826 34.625C209.842 34.1406 209.85 33.7773 209.85 33.5352C209.85 33.0977 209.979 32.7344 210.236 32.4453C210.502 32.1484 210.877 32 211.361 32C212.229 32 212.744 32.4453 212.908 33.3359C214.291 32.3047 215.826 31.7891 217.514 31.7891C219.076 31.7891 219.857 32.8281 219.857 34.9062C219.857 35.3047 219.854 35.5664 219.846 35.6914ZM231.412 44.6211C230.795 44.6211 230.326 44.3242 230.006 43.7305C229.623 43.0195 229.049 42.1797 228.283 41.2109C227.096 39.7031 226.467 38.9023 226.396 38.8086C225.771 39.2695 225.256 39.6211 224.85 39.8633C224.771 40.9492 224.732 41.9883 224.732 42.9805C224.732 43.4336 224.58 43.8086 224.275 44.1055C223.971 44.4023 223.584 44.5508 223.115 44.5508C222.014 44.5508 221.463 43.8945 221.463 42.582C221.463 41.9648 221.506 41.043 221.592 39.8164C221.686 38.582 221.732 37.6562 221.732 37.0391C221.732 35.9062 221.748 34.6133 221.779 33.1602C221.818 31.6992 221.838 30.4102 221.838 29.293C221.838 28.957 221.818 28.5625 221.779 28.1094C221.748 27.6484 221.732 27.25 221.732 26.9141C221.732 26.4609 221.885 26.0898 222.189 25.8008C222.494 25.5039 222.881 25.3555 223.35 25.3555C223.818 25.3555 224.205 25.5039 224.51 25.8008C224.814 26.0898 224.967 26.4609 224.967 26.9141C224.967 27.2578 224.986 27.6641 225.025 28.1328C225.064 28.6016 225.084 29.0078 225.084 29.3516C225.084 30.2812 225.061 31.3828 225.014 32.6562C224.967 33.875 224.947 34.9609 224.955 35.9141C226.018 35.0938 227.635 33.6016 229.807 31.4375C230.15 31.0938 230.541 30.9219 230.979 30.9219C231.416 30.9219 231.803 31.082 232.139 31.4023C232.475 31.7227 232.643 32.0938 232.643 32.5156C232.643 32.875 232.49 33.2227 232.186 33.5586C231.264 34.5898 230.166 35.668 228.893 36.793L231.33 39.9336C232.51 41.5039 233.1 42.5508 233.1 43.0742C233.1 43.5039 232.928 43.8672 232.584 44.1641C232.24 44.4688 231.85 44.6211 231.412 44.6211ZM239.346 44.832C237.9 44.832 236.658 44.3359 235.619 43.3438C234.479 42.2578 233.881 40.8086 233.826 38.9961C233.771 37.2695 234.244 35.7305 235.244 34.3789C236.432 32.7852 238.084 31.9883 240.201 31.9883C241.764 31.9883 243.006 32.6133 243.928 33.8633C244.756 34.9883 245.17 36.3828 245.17 38.0469C245.17 39.8594 244.686 41.4062 243.717 42.6875C242.631 44.1172 241.174 44.832 239.346 44.832ZM240.049 35.082C239.088 35.0742 238.33 35.5117 237.775 36.3945C237.307 37.1367 237.072 38.0039 237.072 38.9961C237.072 39.9336 237.338 40.6523 237.869 41.1523C238.291 41.5508 238.783 41.75 239.346 41.75C240.025 41.75 240.615 41.5195 241.115 41.0586C241.686 40.5195 241.99 39.7891 242.029 38.8672C242.131 36.3516 241.471 35.0898 240.049 35.082ZM257.416 37.3672C257.416 37.8906 257.42 38.6797 257.428 39.7344C257.436 40.7891 257.439 41.5781 257.439 42.1016C257.439 42.2656 257.451 42.5117 257.475 42.8398C257.506 43.1602 257.521 43.4023 257.521 43.5664C257.521 44.0039 257.361 44.3633 257.041 44.6445C256.729 44.9336 256.342 45.0781 255.881 45.0781C255.232 45.0781 254.76 44.7852 254.463 44.1992C253.463 44.5664 252.428 44.75 251.357 44.75C250.248 44.75 249.314 44.5156 248.557 44.0469C247.705 43.5078 247.197 42.7227 247.033 41.6914C246.729 39.7383 246.576 37.9922 246.576 36.4531C246.576 35.4375 246.693 34.2773 246.928 32.9727C247.084 32.0898 247.611 31.6484 248.51 31.6484C248.963 31.6484 249.35 31.793 249.67 32.082C249.99 32.3633 250.15 32.7227 250.15 33.1602C250.15 33.5039 250.092 34.043 249.975 34.7773C249.865 35.5117 249.811 36.0703 249.811 36.4531C249.811 37.5547 249.846 38.5195 249.916 39.3477C249.994 40.168 250.107 40.8477 250.256 41.3867C250.451 41.4727 250.639 41.5391 250.818 41.5859C251.006 41.6328 251.186 41.6562 251.357 41.6562C252.225 41.6562 253.178 41.5312 254.217 41.2812C254.217 40.6797 254.213 39.9961 254.205 39.2305C254.189 38.3164 254.182 37.6602 254.182 37.2617C254.182 35.6602 254.256 34.2773 254.404 33.1133C254.521 32.1836 255.053 31.7188 255.998 31.7188C256.459 31.7188 256.854 31.8633 257.182 32.1523C257.51 32.4414 257.662 32.8047 257.639 33.2422C257.49 36.2188 257.416 37.5938 257.416 37.3672ZM267.916 34.707C267.752 34.707 267.557 34.7031 267.33 34.6953C267.111 34.6797 266.92 34.6719 266.756 34.6719C266.436 34.6719 266.064 34.7031 265.643 34.7656C265.783 37.9219 265.854 39.9844 265.854 40.9531C265.854 41.0547 265.857 41.2461 265.865 41.5273C265.873 41.8008 265.877 42.0234 265.877 42.1953C265.877 43.9922 265.311 44.8906 264.178 44.8906C263.748 44.8906 263.377 44.7578 263.064 44.4922C262.721 44.2109 262.549 43.8594 262.549 43.4375C262.549 43.1562 262.561 42.7344 262.584 42.1719C262.607 41.6094 262.619 41.1875 262.619 40.9062C262.619 39.9609 262.549 37.9375 262.408 34.8359C261.924 34.8125 261.189 34.75 260.205 34.6484C259.229 34.5391 258.74 34.0312 258.74 33.125C258.74 32.6875 258.889 32.3164 259.186 32.0117C259.482 31.707 259.865 31.5547 260.334 31.5547C260.623 31.5547 261.287 31.6016 262.326 31.6953C262.318 31.4453 262.299 31.0312 262.268 30.4531C262.236 29.9531 262.221 29.5664 262.221 29.293C262.221 28.8555 262.381 28.4922 262.701 28.2031C263.021 27.9141 263.408 27.7695 263.861 27.7695C265.018 27.7695 265.596 28.7422 265.596 30.6875L265.572 31.6484C266.057 31.5781 266.451 31.543 266.756 31.543C267.654 31.543 268.268 31.6016 268.596 31.7188C269.221 31.9375 269.533 32.4141 269.533 33.1484C269.533 33.5938 269.381 33.9648 269.076 34.2617C268.771 34.5586 268.385 34.707 267.916 34.707ZM286.783 44.832C286.111 44.832 285.404 44.7539 284.662 44.5977L284.65 49.3789C284.65 49.832 284.498 50.207 284.193 50.5039C283.889 50.8008 283.502 50.9492 283.033 50.9492C282.564 50.9492 282.178 50.8008 281.873 50.5039C281.568 50.207 281.416 49.832 281.416 49.3789C281.416 49.0117 281.424 47.5547 281.439 45.0078C281.455 43.1172 281.455 41.5742 281.439 40.3789C281.416 38.6914 281.361 37.2383 281.275 36.0195C281.158 34.3398 281.1 33.5703 281.1 33.7109C281.1 33.0625 281.244 32.5078 281.533 32.0469C281.869 31.5234 282.322 31.2617 282.893 31.2617C283.33 31.2617 283.697 31.4102 283.994 31.707C284.291 32.0039 284.439 32.3594 284.439 32.7734L284.428 32.8906C284.951 32.5938 285.475 32.375 285.998 32.2344C286.529 32.0859 287.061 32.0117 287.592 32.0117C289.389 32.0117 290.701 32.7734 291.529 34.2969C292.146 35.4453 292.455 36.9336 292.455 38.7617C292.455 40.4727 291.967 41.8906 290.99 43.0156C289.943 44.2266 288.541 44.832 286.783 44.832ZM287.592 35.1406C287.1 35.1406 286.6 35.2578 286.092 35.4922C285.584 35.7188 285.072 36.0625 284.557 36.5234C284.65 38.1328 284.697 39.7461 284.697 41.3633C285.393 41.5898 286.088 41.7031 286.783 41.7031C287.588 41.7031 288.205 41.418 288.635 40.8477C289.025 40.332 289.221 39.6367 289.221 38.7617C289.221 37.707 289.174 36.9766 289.08 36.5703C288.854 35.6172 288.357 35.1406 287.592 35.1406ZM297.822 42.418C297.822 43.9023 297.283 44.6445 296.205 44.6445C295.736 44.6445 295.35 44.4961 295.045 44.1992C294.74 43.9023 294.588 43.5195 294.588 43.0508V26.8438C294.588 26.3906 294.752 26.0195 295.08 25.7305C295.393 25.4648 295.779 25.332 296.24 25.332C296.701 25.332 297.08 25.4727 297.377 25.7539C297.674 26.0273 297.822 26.3906 297.822 26.8438V42.418ZM310.912 44.9141C310.553 44.9141 309.982 44.5234 309.201 43.7422C308.482 44.0859 307.85 44.3438 307.303 44.5156C306.756 44.6953 306.291 44.7852 305.908 44.7852C304.025 44.7852 302.611 44.2812 301.666 43.2734C300.729 42.2656 300.26 40.7578 300.26 38.75C300.26 36.8672 300.955 35.2578 302.346 33.9219C303.736 32.5781 305.4 31.9062 307.338 31.9062C308.08 31.9062 308.939 32.1172 309.916 32.5391C311.096 33.0469 311.686 33.6367 311.686 34.3086C311.686 34.5898 311.596 34.8359 311.416 35.0469C311.338 35.3594 311.275 35.7539 311.229 36.2305C311.189 36.6992 311.17 37.25 311.17 37.8828C311.17 39.375 311.275 40.4492 311.486 41.1055C311.51 41.1758 311.689 41.582 312.025 42.3242C312.33 42.9961 312.482 43.3789 312.482 43.4727C312.482 43.8867 312.322 44.2305 312.002 44.5039C311.689 44.7773 311.326 44.9141 310.912 44.9141ZM308.006 36.875C308.006 36.625 308.021 36.3398 308.053 36.0195C308.092 35.6914 308.146 35.3281 308.217 34.9297C308.061 34.8516 307.92 34.7969 307.795 34.7656C307.678 34.7266 307.576 34.707 307.49 34.707C306.428 34.707 305.498 35.125 304.701 35.9609C303.904 36.7891 303.506 37.75 303.506 38.8438C303.506 39.8906 303.693 40.6797 304.068 41.2109C304.443 41.7344 305.006 41.9961 305.756 41.9961C306.24 41.9961 306.697 41.918 307.127 41.7617C307.564 41.5977 307.975 41.3594 308.357 41.0469C308.123 39.1875 308.006 37.7969 308.006 36.875ZM323.369 44.9727C322.408 44.9727 321.873 44.5 321.764 43.5547C321.654 42.75 321.545 41.9414 321.436 41.1289C321.318 40.2695 321.26 39.4609 321.26 38.7031C321.26 38.5 321.271 38.1523 321.295 37.6602C321.326 37.168 321.342 36.8203 321.342 36.6172C321.342 36.5625 321.35 36.4258 321.365 36.207C321.381 35.9805 321.389 35.7969 321.389 35.6562C321.389 35.0078 321.221 34.6836 320.885 34.6836C320.166 34.6836 319.459 35.1055 318.764 35.9492C318.076 36.7852 317.537 37.8477 317.146 39.1367C317.131 39.3945 317.096 39.7383 317.041 40.168C316.994 40.5195 316.971 40.8633 316.971 41.1992C316.971 41.418 316.994 41.75 317.041 42.1953C317.096 42.6328 317.123 42.9609 317.123 43.1797C317.123 43.625 316.967 43.9922 316.654 44.2812C316.35 44.5781 315.963 44.7266 315.494 44.7266C315.025 44.7266 314.639 44.5781 314.334 44.2812C314.029 43.9922 313.877 43.625 313.877 43.1797C313.877 42.9609 313.854 42.6328 313.807 42.1953C313.76 41.75 313.736 41.418 313.736 41.1992C313.736 40.4492 313.791 39.4062 313.9 38.0703C314.01 36.7344 314.064 35.6914 314.064 34.9414C314.064 34.707 314.049 34.3594 314.018 33.8984C313.994 33.4297 313.982 33.082 313.982 32.8555C313.982 32.418 314.139 32.0586 314.451 31.7773C314.771 31.4883 315.162 31.3438 315.623 31.3438C316.646 31.3438 317.193 31.957 317.264 33.1836L317.275 33.3125C318.416 32.1641 319.619 31.5898 320.885 31.5898C322.361 31.5898 323.381 32.207 323.943 33.4414C324.318 34.2695 324.506 35.5078 324.506 37.1562V37.9883C324.498 38.3477 324.494 38.6016 324.494 38.75C324.494 39.3594 324.576 40.1445 324.74 41.1055C324.912 42.0664 324.998 42.8477 324.998 43.4492C324.998 43.8867 324.842 44.25 324.529 44.5391C324.217 44.8281 323.83 44.9727 323.369 44.9727ZM328.338 40.6602C327.9 40.6602 327.537 40.5234 327.248 40.25C326.967 39.9766 326.826 39.6328 326.826 39.2188C326.826 38.9141 326.814 38.4609 326.791 37.8594C326.775 37.25 326.768 36.793 326.768 36.4883C326.768 35.4102 326.775 33.793 326.791 31.6367C326.814 29.4805 326.826 27.8633 326.826 26.7852C326.826 26.3711 326.971 26.0273 327.26 25.7539C327.549 25.4727 327.908 25.332 328.338 25.332C328.768 25.332 329.127 25.4727 329.416 25.7539C329.705 26.0273 329.85 26.3711 329.85 26.7852V39.2188C329.85 39.6328 329.705 39.9766 329.416 40.25C329.135 40.5234 328.775 40.6602 328.338 40.6602ZM328.303 44.9141C327.834 44.9141 327.396 44.6641 326.99 44.1641C326.623 43.7031 326.439 43.2734 326.439 42.875C326.439 42.4688 326.6 42.1289 326.92 41.8555C327.24 41.582 327.604 41.4453 328.01 41.4453C328.479 41.4453 328.912 41.6953 329.311 42.1953C329.678 42.6562 329.861 43.082 329.861 43.4727C329.861 43.8711 329.701 44.2109 329.381 44.4922C329.068 44.7734 328.709 44.9141 328.303 44.9141Z" fill="black"/>
</svg>
