<svg width="380" height="76" viewBox="0 0 380 76" fill="none" xmlns="http://www.w3.org/2000/svg">
<path d="M4.29688 24.3696C4.29688 13.3239 13.2512 4.36963 24.2969 4.36963H355.297C366.343 4.36963 375.297 13.3239 375.297 24.3696V51.3696C375.297 62.4153 366.343 71.3696 355.297 71.3696H24.2969C13.2512 71.3696 4.29688 62.4153 4.29688 51.3696V24.3696Z" fill="white"/>
<path d="M42.5234 0.502441L44.4688 1.0415L46.3906 1.58057C47.4125 1.87101 48.4252 2.01174 49.4141 2.00244L51.3594 1.979H53.2812C54.6262 1.96538 55.9911 1.98903 57.3359 2.04932L59.2578 2.11963L61.2031 2.21338C62.3187 2.26299 63.4356 2.21474 64.5547 2.07275L66.5 1.83838L68.4219 1.58057C69.8721 1.39657 71.3274 1.33502 72.7812 1.39307L74.7266 1.46338L76.6719 1.55713C77.9681 1.60949 79.2663 1.65676 80.5625 1.72119L82.4844 1.81494L84.4297 1.90869C85.734 1.97353 87.0394 2.0587 88.3438 2.14307L90.2891 2.26025L92.2109 2.40088C93.35 2.47456 94.4931 2.45021 95.6328 2.354L97.5781 2.18994L99.5 2.02588C100.988 1.89994 102.491 1.92714 103.977 2.09619L105.898 2.30713L107.844 2.5415C108.85 2.65564 109.855 2.61788 110.867 2.44775L112.812 2.11963L118.578 1.13525L120.523 0.783691L122.445 0.432129C124.246 0.105797 126.042 0.253953 127.789 0.830566L129.734 1.46338L131.656 2.09619C132.345 2.32354 132.988 2.31583 133.672 2.09619L135.617 1.48682L137.539 0.854004C139.207 0.318571 140.927 0.136438 142.648 0.314941L144.57 0.525879L146.516 0.713379C147.65 0.830752 148.782 0.863432 149.914 0.807129L151.859 0.713379L153.781 0.619629C155.098 0.553694 156.425 0.506702 157.742 0.479004L159.688 0.432129L161.609 0.385254C163.207 0.351721 164.803 0.576449 166.367 1.01807L168.312 1.55713L170.234 2.09619C171.053 2.32733 171.851 2.34435 172.648 2.1665L174.57 1.74463L176.516 1.32275C178.203 0.947144 179.907 0.900773 181.602 1.229L183.547 1.62744L185.469 2.00244C186.467 2.19609 187.459 2.22358 188.445 2.11963L190.391 1.90869L192.336 1.72119C193.61 1.58579 194.882 1.42789 196.156 1.27588L198.102 1.0415L200.023 0.807129C201.619 0.616782 203.219 0.673892 204.805 0.971191L206.75 1.34619L208.672 1.69775C209.77 1.90376 210.865 2.01154 211.953 2.00244L215.844 1.95557C217.046 1.94442 218.25 1.90382 219.453 1.7915L221.398 1.604L223.32 1.4165C224.717 1.2861 226.117 1.23188 227.516 1.25244L229.461 1.27588L231.383 1.29932C232.822 1.3205 234.262 1.46358 235.695 1.69775L237.641 2.00244L239.562 2.33057C240.456 2.47645 241.349 2.44759 242.258 2.23682L244.203 1.76807L246.148 1.32275C247.558 0.993693 248.973 0.759595 250.391 0.619629L252.336 0.432129L254.258 0.244629C255.707 0.101943 257.167 0.0802598 258.617 0.174316L262.508 0.408691C264.01 0.507334 265.504 0.767362 266.984 1.18213L268.906 1.72119L270.852 2.28369C271.802 2.54969 272.727 2.62098 273.641 2.5415L275.586 2.37744L277.508 2.21338C278.711 2.10752 279.935 1.93343 281.141 1.72119L283.062 1.39307L285.008 1.0415C286.561 0.768715 288.133 0.7237 289.695 0.877441L291.617 1.06494L293.562 1.25244C294.567 1.35069 295.572 1.29601 296.586 1.11182L298.531 0.760254L300.453 0.408691C302.196 0.0911459 303.964 0.193541 305.68 0.666504L307.602 1.18213L309.547 1.72119C310.321 1.93341 311.073 1.92763 311.844 1.72119L313.766 1.20557L315.711 0.689941C317.437 0.228855 319.191 0.175091 320.938 0.525879L322.883 0.924316L324.805 1.29932C325.99 1.53805 327.187 1.70859 328.367 1.81494L330.289 2.00244L332.234 2.1665C333.357 2.26751 334.488 2.27734 335.609 2.18994L337.531 2.04932L339.477 1.88525C340.851 1.7784 342.226 1.73009 343.602 1.74463L345.547 1.76807L347.469 1.7915C348.549 1.80297 349.659 1.70442 350.773 1.48682L352.719 1.11182L354.688 0.713379C356.723 0.316606 358.699 0.677885 360.477 1.74463L362.188 2.77588L363.922 3.80713C365.209 4.5799 366.381 5.44143 367.438 6.38525L368.797 7.58057L370.156 8.79932C371.122 9.66205 372.087 10.5983 373.039 11.5884L374.398 12.9946L375.734 14.4009C377.072 15.793 377.903 17.4849 378.195 19.3931L378.5 21.3618L378.805 23.3071C379.029 24.7685 379.144 26.2363 379.133 27.6899L379.109 29.6353L379.086 31.5571C379.076 32.9239 379.017 34.2929 378.898 35.6587L378.734 37.604L378.57 39.5259C378.463 40.7569 378.373 41.9986 378.336 43.229L378.289 45.1743L378.219 47.0962C378.175 48.5614 378.004 50.0182 377.703 51.4321L377.328 53.2837L376.93 55.1353C376.67 56.3589 376.394 57.6179 376.133 58.9087L375.758 60.854L375.359 62.7993C374.946 64.842 373.838 66.549 372.148 67.7681L368.914 70.1118C367.426 71.1835 365.74 71.8353 363.922 72.0103L362.023 72.1978L360.125 72.3618C358.854 72.4842 357.581 72.6193 356.328 72.7368L354.453 72.9009L352.578 73.0884C351.18 73.219 349.765 73.2372 348.336 73.1587L346.391 73.0649L344.469 72.9478C343.366 72.8871 342.247 72.9189 341.141 73.0649L339.219 73.3228L337.273 73.5806C335.815 73.7727 334.353 73.8523 332.891 73.7915L330.945 73.6978L329.023 73.6274C327.833 73.5779 326.629 73.5822 325.438 73.6509L323.516 73.7681L321.57 73.8853C320.45 73.9504 319.326 74.103 318.195 74.354L316.25 74.7759L314.328 75.2212C312.805 75.5599 311.252 75.7066 309.711 75.6665L307.789 75.6196L305.844 75.5493C304.595 75.5169 303.342 75.532 302.094 75.5493L300.172 75.5728L298.227 75.5962C296.585 75.6188 294.964 75.3509 293.375 74.8228L291.43 74.1665L289.508 73.5337C288.695 73.2632 287.925 73.2207 287.164 73.3696L285.219 73.7446L283.297 74.1196C281.628 74.4486 279.927 74.465 278.258 74.1431L276.336 73.7681L274.391 73.3931C273.368 73.1966 272.355 73.1455 271.344 73.229L269.398 73.3931L267.477 73.5571C266.166 73.6654 264.85 73.7572 263.539 73.8384L261.617 73.9556L259.672 74.0728C258.503 74.1452 257.33 74.279 256.156 74.4946L254.234 74.8462L252.289 75.2212C250.826 75.4899 249.355 75.6207 247.883 75.6196H243.992C242.729 75.6182 241.458 75.615 240.195 75.6431L238.273 75.6899L236.328 75.7368C234.923 75.7679 233.514 75.7058 232.109 75.5728L230.188 75.4087L228.242 75.2212C226.999 75.1034 225.758 74.9996 224.516 74.9399L222.57 74.8462L220.648 74.7759C219.432 74.7175 218.209 74.6991 216.992 74.729L215.047 74.7759L213.125 74.8228C211.853 74.8541 210.576 74.8866 209.305 74.9399L207.359 75.0337L205.438 75.104C204.189 75.1563 202.936 75.2382 201.688 75.3384L199.742 75.5024L197.797 75.6431C196.149 75.7744 194.511 75.6198 192.898 75.1743L190.953 74.6353L189.031 74.0962C188.075 73.8318 187.14 73.7575 186.219 73.8384L184.273 74.0024L182.352 74.1665C180.77 74.3054 179.184 74.2255 177.617 73.9087L175.695 73.5103L173.75 73.1118C172.705 72.9007 171.664 72.8224 170.633 72.8774L168.711 72.9946L166.766 73.0884C165.367 73.163 163.969 73.1663 162.57 73.0884L160.625 72.9712L158.703 72.8774C157.629 72.8176 156.55 72.869 155.469 73.0415L153.523 73.3462L151.602 73.6509C150.099 73.8906 148.588 73.9744 147.078 73.8853L145.133 73.7681L143.211 73.6509C141.954 73.5767 140.694 73.5188 139.438 73.4868L137.516 73.4399L135.57 73.3931C134.399 73.3633 133.227 73.4055 132.055 73.5103L130.109 73.6743L128.164 73.8618C127.012 73.9656 125.855 74.142 124.695 74.4009L122.75 74.8462L120.828 75.2681C119.201 75.6314 117.549 75.7193 115.906 75.5024L113.961 75.2446L112.039 74.9868C110.892 74.8349 109.737 74.7606 108.594 74.7759L106.672 74.7993L100.836 74.8696H98.8906L96.9688 74.8931C95.4128 74.9017 93.8595 74.7011 92.3281 74.3071L90.3828 73.8149L88.4609 73.2993C87.7013 73.1039 86.9609 73.1226 86.1875 73.3462L82.2969 74.4712C80.7749 74.9145 79.232 75.1752 77.6797 75.2212L75.7578 75.2681L73.8125 75.3384C72.2909 75.3833 70.7734 75.2476 69.2656 74.9399L65.375 74.1431C64.4625 73.9575 63.5641 73.9538 62.6562 74.1196L60.7109 74.4712L58.7891 74.8228C57.2188 75.1096 55.6342 75.1563 54.0547 74.9868L52.1328 74.7993L50.1875 74.5884C48.8029 74.4398 47.4195 74.2148 46.0391 73.9321L44.0938 73.5337L42.1719 73.1353C41.3352 72.9639 40.4935 72.9849 39.6406 73.2056L37.7188 73.7212L35.7734 74.2134C34.1834 74.6243 32.5642 74.7915 30.9453 74.6821L29.0234 74.5415L27.0781 74.4009C25.8368 74.3171 24.5763 74.2644 23.3047 74.2368L21.3359 74.1899L19.3438 74.1665C17.2178 74.1184 15.3329 73.2608 13.8828 71.7056L12.5469 70.2524L11.1875 68.8228C10.447 68.0286 9.60899 67.3117 8.67969 66.6899L7.01562 65.5649L5.32812 64.4399C3.33478 63.1027 2.3128 61.0489 2.44531 58.6509L2.5625 56.6353L2.65625 54.6196C2.72625 53.354 2.75637 52.1267 2.72656 50.9399L2.67969 49.0415L2.63281 47.1196C2.60888 46.1905 2.43055 45.2243 2.07031 44.2134L1.36719 42.2681L0.6875 40.3462C0.0816752 38.6467 -0.130321 36.8919 0.078125 35.1196L0.289062 33.1743L0.523438 31.2524C0.687761 29.8598 0.939689 28.4731 1.25 27.104L1.67188 25.1821L2.09375 23.2837C2.34751 22.1644 2.52406 21.0259 2.60938 19.8618L2.75 17.8931L2.91406 15.9243C3.0574 13.9672 3.78116 12.1965 5.04688 10.6978L6.33594 9.15088L7.64844 7.62744C8.75282 6.32054 10.0589 5.23865 11.5625 4.4165L13.3438 3.45557L15.1016 2.49463C16.7021 1.61949 18.5317 1.1221 20.4219 1.51025L21.9219 1.81494L22.8125 2.00244C22.9625 1.91001 23.0721 1.81018 23.1641 1.76807C23.5629 1.58608 23.9626 1.50928 24.1953 1.46338C24.709 1.36261 25.3519 1.29702 26.0234 1.25244L27.9688 1.11182L29.9141 0.994629C31.1326 0.913924 32.3505 0.782073 33.5703 0.619629L35.5156 0.361816L37.4375 0.104004C39.1455 -0.12359 40.8522 0.028154 42.5234 0.502441ZM38.2344 6.05713L36.3125 6.31494L34.3672 6.57275C33.0119 6.75332 31.6456 6.88158 30.2891 6.97119L28.3672 7.11182L26.4219 7.20557C26.395 7.234 26.4029 7.29539 26.375 7.32275C25.8841 7.80075 25.3453 8.01133 25.0625 8.09619C24.5233 8.25707 24.0335 8.24448 23.8203 8.23682C23.3121 8.21807 22.7321 8.111 22.2031 8.00244L19.2031 7.39307C19.0921 7.37192 18.7296 7.33741 17.9844 7.74463L16.2031 8.729L14.4453 9.68994C13.5871 10.1592 12.8438 10.7545 12.2188 11.4946L10.9297 13.0415L9.64062 14.5649C9.17632 15.1147 8.93964 15.7004 8.89062 16.3696L8.60938 20.3071C8.5022 21.7657 8.27397 23.2053 7.95312 24.6196L7.53125 26.5181L7.08594 28.4165C6.82151 29.5822 6.61638 30.7706 6.47656 31.9556L6.26562 33.8774L6.03125 35.8228C5.93704 36.6276 6.02317 37.4532 6.33594 38.3306L7.03906 40.2524L7.71875 42.1978C8.27725 43.7645 8.59228 45.3655 8.63281 46.979L8.67969 48.8774L8.72656 50.7993C8.76031 52.1517 8.73431 53.5346 8.65625 54.9478L8.53906 56.9634L8.44531 58.979C8.43869 59.0987 8.43821 59.1751 8.44531 59.2134L8.49219 59.3071C8.51842 59.3358 8.57923 59.3805 8.67969 59.4478L10.3438 60.5728L12.0312 61.6978C13.3351 62.5704 14.5107 63.5853 15.5703 64.7212L18.2891 67.6274C18.6361 67.9966 18.9801 68.1556 19.4844 68.1665L21.4531 68.1899L23.4453 68.2368C24.8065 68.2664 26.1657 68.3341 27.5 68.4243L29.4219 68.5649L31.3672 68.6821C32.3238 68.7459 33.2881 68.6557 34.2734 68.4009L36.2188 67.9087L38.1406 67.3931C39.8667 66.9465 41.6248 66.896 43.3672 67.2524L45.3125 67.6509L47.2344 68.0493C48.4304 68.2943 49.6285 68.4838 50.8203 68.6118L52.7656 68.8228L54.6875 69.0337C55.688 69.141 56.7012 69.101 57.7109 68.9165L59.6328 68.5649L61.5781 68.2134C63.2471 67.9086 64.9295 67.9196 66.5938 68.2603L68.5156 68.6587L70.4609 69.0571C71.5274 69.2752 72.5958 69.3696 73.6484 69.3384L75.5703 69.2681L77.5156 69.2212C78.5383 69.1901 79.5799 69.0361 80.6328 68.729L82.5547 68.1431L84.5 67.5806C86.3006 67.0565 88.1462 67.02 89.9609 67.4868L91.8828 68.0024L93.8281 68.4946C94.8725 68.7629 95.9019 68.8981 96.9219 68.8931L98.8672 68.8696H100.789C102.071 68.8625 103.374 68.8399 104.656 68.8228L106.578 68.7993L108.523 68.7759C109.955 68.7571 111.385 68.845 112.812 69.0337L114.758 69.2915L116.68 69.5493C117.615 69.6731 118.564 69.6213 119.516 69.4087L121.438 68.9868L123.383 68.5415C124.797 68.2258 126.227 68.0128 127.648 67.8853L129.57 67.7212L131.516 67.5337C132.913 67.4086 134.312 67.3579 135.711 67.3931L137.656 67.4399L139.602 67.5103C140.922 67.544 142.242 67.5964 143.562 67.6743L145.508 67.7915L147.43 67.8853C148.5 67.9485 149.586 67.9166 150.664 67.7446L152.586 67.4165L154.531 67.1118C156.027 66.8738 157.529 66.7939 159.031 66.8774L160.977 66.9946L162.898 67.0884C164.076 67.154 165.259 67.1744 166.438 67.1118L168.383 66.9946L170.305 66.9009C171.852 66.8182 173.412 66.919 174.945 67.229L176.867 67.6274L178.812 68.0259C179.821 68.2295 180.818 68.2762 181.812 68.1899L185.703 67.8618C187.358 67.7175 189.005 67.8597 190.625 68.3071L192.57 68.8462L194.492 69.3853C195.456 69.6517 196.4 69.7411 197.328 69.6665L199.25 69.5024L201.195 69.3618C202.523 69.2551 203.851 69.1597 205.18 69.104L207.125 69.0337L209.047 68.9399C210.35 68.8853 211.657 68.8549 212.961 68.8228L216.852 68.729C218.211 68.6957 219.57 68.7107 220.93 68.7759L222.875 68.8696L224.797 68.9634C226.132 69.0274 227.47 69.1182 228.805 69.2446L230.75 69.4321L232.672 69.6196C233.846 69.7309 235.038 69.7629 236.211 69.7368L238.133 69.6899L240.078 69.6431C241.389 69.614 242.705 69.6181 244.016 69.6196H247.883C248.986 69.6207 250.099 69.5192 251.211 69.3149L253.133 68.9634L255.078 68.6118C256.483 68.3539 257.887 68.1602 259.297 68.0728L261.242 67.9556L263.164 67.8384C264.434 67.7597 265.715 67.662 266.984 67.5571L268.906 67.4165L270.852 67.2524C272.417 67.1232 273.985 67.2107 275.539 67.5103L277.461 67.8853L279.406 68.2603C280.315 68.435 281.215 68.4162 282.125 68.2368L284.07 67.8618L285.992 67.4868C287.805 67.1293 289.621 67.2539 291.383 67.8384L293.328 68.4946L295.273 69.1274C296.259 69.4544 297.223 69.6091 298.156 69.5962L300.078 69.5728L302.023 69.5493C303.35 69.5311 304.681 69.5382 306.008 69.5728L307.93 69.6196L309.875 69.6665C310.913 69.6935 311.96 69.5964 313.016 69.3618L314.961 68.9165L316.883 68.4946C318.327 68.1737 319.788 67.9692 321.242 67.8853L323.164 67.7681L325.109 67.6509C326.496 67.5711 327.894 67.5698 329.281 67.6274L331.203 67.6978L333.148 67.7915C334.262 67.8373 335.383 67.7749 336.5 67.6274L338.422 67.3931L340.367 67.1353C341.84 66.9411 343.32 66.8665 344.797 66.9478L346.719 67.0649L348.664 67.1587C349.805 67.2214 350.922 67.2138 352.016 67.1118L353.891 66.9243L355.789 66.7603C357.03 66.6439 358.28 66.5298 359.539 66.4087L361.461 66.2212L363.359 66.0337C364.071 65.9647 364.735 65.7135 365.398 65.2368L367.039 64.0649L368.656 62.8931C369.116 62.5585 369.364 62.1786 369.477 61.6274L369.875 59.6587L370.273 57.7134C370.537 56.4087 370.784 55.1329 371.047 53.8931L371.844 50.1899C372.068 49.1362 372.208 48.0453 372.242 46.9321L372.289 44.9868L372.359 43.0649C372.4 41.7182 372.477 40.3565 372.594 39.0103L372.758 37.0884L372.922 35.1431C373.027 33.9333 373.077 32.7192 373.086 31.5103L373.109 29.5884L373.133 27.6431C373.141 26.5174 373.052 25.3743 372.875 24.2212L372.57 22.2524L372.266 20.3071C372.157 19.6007 371.889 19.0355 371.422 18.5493L368.703 15.7368C367.853 14.852 367.013 14.0277 366.172 13.2759L363.453 10.8384C362.703 10.1679 361.826 9.53849 360.828 8.93994L359.117 7.90869L357.383 6.87744C356.878 6.57725 356.409 6.48487 355.836 6.59619L353.867 6.99463L351.922 7.36963C350.421 7.66279 348.899 7.80743 347.398 7.7915L345.477 7.76807L343.531 7.74463C342.337 7.7322 341.141 7.76899 339.945 7.86182L338 8.02588L336.055 8.1665C334.601 8.27921 333.148 8.2739 331.695 8.14307L329.75 7.979L327.828 7.7915C326.429 7.66536 325.027 7.46295 323.633 7.18213L321.688 6.80713L319.766 6.40869C318.936 6.24152 318.108 6.27483 317.258 6.50244L315.312 7.01807L313.391 7.53369C311.587 8.01661 309.754 8.00502 307.953 7.51025L306.008 6.97119L304.086 6.43213C303.222 6.19385 302.368 6.16248 301.531 6.31494L299.609 6.6665L297.664 7.01807C296.108 7.3012 294.543 7.38227 292.977 7.229L291.031 7.01807L289.109 6.83057C288.094 6.73059 287.063 6.76748 286.039 6.94775L284.117 7.29932L282.172 7.62744C280.798 7.86923 279.424 8.06875 278.047 8.18994L276.102 8.354L274.18 8.51807C272.517 8.66439 270.86 8.50487 269.234 8.04932L267.289 7.51025L265.367 6.97119C264.272 6.66412 263.183 6.4789 262.109 6.40869L260.164 6.26807L258.242 6.15088C257.12 6.0777 255.991 6.08776 254.867 6.19775L252.922 6.40869L250.977 6.59619C249.825 6.71001 248.668 6.88785 247.508 7.15869L245.562 7.62744L243.641 8.07275C241.974 8.46231 240.284 8.51148 238.602 8.23682L236.656 7.93213L234.734 7.62744C233.588 7.44014 232.43 7.31611 231.289 7.29932L229.367 7.27588L227.422 7.25244C226.243 7.2353 225.063 7.28293 223.883 7.39307L221.938 7.58057L220.016 7.74463C218.643 7.87279 217.264 7.94308 215.891 7.95557L213.945 7.979L212.023 8.00244C210.536 8.01591 209.048 7.88107 207.57 7.604L205.625 7.229L203.703 6.87744C202.71 6.69105 201.711 6.66625 200.727 6.78369L198.805 7.01807L196.859 7.229C195.562 7.38376 194.266 7.53643 192.969 7.67432L189.078 8.09619C187.492 8.26363 185.895 8.1908 184.32 7.88525L182.398 7.51025L180.453 7.13525C179.573 6.96528 178.692 6.96078 177.805 7.15869L175.883 7.604L173.938 8.02588C172.161 8.42101 170.373 8.37888 168.617 7.88525L166.672 7.32275L164.727 6.78369C163.716 6.4994 162.727 6.36528 161.75 6.38525L159.805 6.43213L157.883 6.479C156.622 6.50546 155.347 6.53304 154.086 6.59619L152.164 6.71338L150.219 6.80713C148.776 6.87919 147.324 6.83932 145.883 6.68994L143.961 6.479L142.016 6.2915C141.163 6.20392 140.297 6.28337 139.391 6.57275L137.445 7.20557L135.5 7.81494C133.606 8.42142 131.67 8.41468 129.781 7.7915L127.836 7.15869L125.914 6.52588C125.083 6.25182 124.301 6.19836 123.523 6.33838L121.578 6.68994L119.656 7.0415C118.354 7.27741 117.044 7.5018 115.742 7.72119L113.797 8.04932L111.875 8.37744C110.311 8.64106 108.735 8.67322 107.164 8.49463L105.219 8.28369L103.297 8.04932C102.203 7.92492 101.107 7.9101 100.016 8.00244L98.0703 8.1665L96.1484 8.33057C94.7126 8.45212 93.2725 8.46999 91.8359 8.37744L89.8906 8.26025L87.9688 8.11963C86.6936 8.03715 85.4001 7.97207 84.125 7.90869L82.2031 7.81494L80.2578 7.72119C78.9788 7.65763 77.6931 7.60877 76.4141 7.55713L74.4922 7.46338L72.5469 7.39307C71.4259 7.34802 70.2965 7.39101 69.1719 7.53369L67.25 7.7915L65.3047 8.02588C63.8477 8.21046 62.3824 8.27885 60.9219 8.21338L59 8.11963L57.0547 8.02588C55.8205 7.97061 54.5855 7.9665 53.3516 7.979H51.4062L49.4844 8.00244C47.8956 8.01853 46.3056 7.81176 44.75 7.36963L42.8281 6.80713L40.8828 6.26807C39.9781 6.01185 39.1024 5.94146 38.2344 6.05713Z" fill="black"/>
<path d="M148.539 46.0063C148.539 46.4621 148.461 47.1821 148.306 48.1665C148.124 49.3423 147.458 49.9302 146.31 49.9302C145.672 49.9302 144.952 49.5701 144.15 48.8501C140.641 45.6873 136.681 41.2531 132.269 35.5474C132.214 37.9172 132.187 39.3709 132.187 39.9087C132.187 40.6287 132.201 41.7134 132.228 43.1626C132.264 44.6118 132.283 45.6965 132.283 46.4165C132.283 49.1053 131.626 50.4497 130.314 50.4497C129.649 50.4497 129.115 50.2446 128.714 49.8345C128.359 49.4699 128.181 49.0278 128.181 48.5083C128.181 48.1437 128.208 47.5923 128.263 46.854C128.327 46.1157 128.359 45.5643 128.359 45.1997C128.359 44.6619 128.377 43.8553 128.414 42.7798C128.45 41.7043 128.468 40.8976 128.468 40.3599C128.468 39.7856 128.455 38.9198 128.427 37.7622C128.4 36.6047 128.386 35.7388 128.386 35.1646C128.386 34.6177 128.332 33.8019 128.222 32.7173C128.113 31.6326 128.058 30.8169 128.058 30.27C128.058 29.7231 128.291 29.2355 128.755 28.8071C129.229 28.3787 129.767 28.1646 130.369 28.1646C131.043 28.1646 131.791 28.7479 132.611 29.9146C136.749 35.8208 140.832 40.6379 144.861 44.3657C144.87 44.0741 144.875 43.3813 144.875 42.2876C144.875 37.7941 144.829 34.7635 144.738 33.1958C144.72 32.9315 144.66 32.4393 144.56 31.7192C144.469 31.0812 144.423 30.5799 144.423 30.2153C144.423 28.9575 145.089 28.3286 146.419 28.3286C147.905 28.3286 148.648 30.6209 148.648 35.2056C148.648 35.3058 148.639 36.0259 148.621 37.3657C148.566 41.9959 148.539 44.8761 148.539 46.0063ZM157.986 49.9985C155.807 49.9985 154.026 49.479 152.64 48.4399C151.109 47.2915 150.343 45.6737 150.343 43.5864C150.343 41.2804 150.949 39.3299 152.162 37.7349C153.511 35.9666 155.329 35.0825 157.617 35.0825C159.203 35.0825 160.52 35.3377 161.568 35.8481C162.944 36.5226 163.632 37.5708 163.632 38.9927C163.632 39.9953 163.072 40.884 161.951 41.6587C161.44 42.0142 160.415 42.5337 158.875 43.2173L154.267 45.2544C154.705 45.7284 155.233 46.0838 155.853 46.3208C156.473 46.5578 157.184 46.6763 157.986 46.6763C159.207 46.6763 160.242 46.4256 161.089 45.9243C161.846 45.4777 162.452 45.2544 162.908 45.2544C163.856 45.2544 164.33 45.7147 164.33 46.6353C164.33 47.6743 163.569 48.522 162.046 49.1782C160.77 49.7251 159.417 49.9985 157.986 49.9985ZM157.617 38.3911C156.769 38.3911 156.044 38.6737 155.443 39.2388C154.841 39.8039 154.358 40.6515 153.994 41.7817C155.024 41.3351 156.049 40.8931 157.07 40.4556C158.3 39.8996 159.28 39.3846 160.009 38.9106C159.399 38.5643 158.601 38.3911 157.617 38.3911ZM180.23 38.2817C179.71 38.7284 179.041 39.3162 178.22 40.0454L176.128 41.9868L180.298 47.0864C180.599 47.4601 180.75 47.8293 180.75 48.1938C180.75 48.6678 180.558 49.0825 180.175 49.438C179.792 49.7935 179.355 49.9712 178.863 49.9712C178.352 49.9712 177.897 49.7524 177.496 49.3149C176.675 48.4217 175.322 46.813 173.435 44.4888C172.697 45.2271 171.553 46.3026 170.003 47.7153C169.511 48.1255 169.138 48.4673 168.882 48.7407C168.481 49.16 168.03 49.3696 167.529 49.3696C167.037 49.3696 166.599 49.1919 166.216 48.8364C165.843 48.481 165.656 48.0662 165.656 47.5923C165.656 47.0636 166.029 46.4575 166.777 45.7739C167.378 45.2544 167.98 44.7394 168.582 44.229C169.138 43.673 170.003 42.8208 171.179 41.6724C170.669 40.9614 170.154 40.2505 169.634 39.5396C169.005 38.701 168.413 38.0493 167.857 37.5845C167.383 37.1925 167.146 36.7505 167.146 36.2583C167.146 35.7843 167.324 35.3651 167.679 35.0005C168.044 34.6268 168.477 34.4399 168.978 34.4399C169.625 34.4399 170.518 35.0916 171.658 36.395L173.845 39.2114C174.629 38.5552 175.408 37.8989 176.183 37.2427C177.149 36.4041 177.842 35.6886 178.261 35.0962C178.653 34.5402 179.15 34.2622 179.751 34.2622C180.244 34.2622 180.681 34.4354 181.064 34.7817C181.456 35.1281 181.652 35.5382 181.652 36.0122C181.652 36.6047 181.178 37.3612 180.23 38.2817ZM192.958 38.3638C192.767 38.3638 192.539 38.3592 192.275 38.3501C192.02 38.3319 191.796 38.3228 191.605 38.3228C191.231 38.3228 190.798 38.3592 190.306 38.4321C190.47 42.1144 190.552 44.5207 190.552 45.6509C190.552 45.7694 190.557 45.9927 190.566 46.3208C190.575 46.6398 190.58 46.8996 190.58 47.1001C190.58 49.1965 189.919 50.2446 188.597 50.2446C188.096 50.2446 187.663 50.0897 187.298 49.7798C186.897 49.4517 186.697 49.0415 186.697 48.5493C186.697 48.2212 186.71 47.729 186.738 47.0728C186.765 46.4165 186.779 45.9243 186.779 45.5962C186.779 44.4933 186.697 42.1326 186.533 38.5142C185.968 38.4868 185.111 38.4139 183.962 38.2954C182.823 38.1678 182.253 37.5754 182.253 36.5181C182.253 36.0076 182.427 35.5747 182.773 35.2192C183.119 34.8638 183.566 34.686 184.113 34.686C184.45 34.686 185.225 34.7407 186.437 34.8501C186.428 34.5584 186.405 34.0754 186.369 33.4009C186.332 32.8175 186.314 32.3664 186.314 32.0474C186.314 31.5369 186.501 31.1131 186.875 30.7759C187.248 30.4386 187.699 30.27 188.228 30.27C189.577 30.27 190.251 31.4048 190.251 33.6743L190.224 34.7954C190.789 34.7134 191.25 34.6724 191.605 34.6724C192.653 34.6724 193.369 34.7407 193.751 34.8774C194.481 35.1326 194.845 35.6886 194.845 36.5454C194.845 37.0649 194.667 37.4979 194.312 37.8442C193.957 38.1906 193.505 38.3638 192.958 38.3638Z" fill="black"/>
<path d="M213.521 38.884C221.971 41.6668 225.487 39.7928 236.273 39.7279C247.059 39.663 248.484 39.4993 251.589 38.884" stroke="black" stroke-width="4.6" stroke-linecap="round"/>
<path d="M245.166 30.3696C245.533 30.9668 248.752 34.1432 252.319 37.8898C253.598 39.2338 253.044 40.078 252.167 40.8446C251.291 41.6113 249.916 42.4363 248.933 43.0675C247.949 43.6988 247.399 44.1113 245.999 45.3696" stroke="black" stroke-width="4.6" stroke-linecap="round"/>
</svg>
