<svg xmlns="http://www.w3.org/2000/svg" width="134" height="100" fill="none" viewBox="0 0 134 100"><g clip-path="url(#a)"><rect width="134" height="100" fill="#eee" rx="15"/><path fill="#000" d="m139.25 50.62-.03-.07q0-.04-.03-.07l.03.08q.7 2.15 1.54 4.25t1.49 4.3q.48 1.64.78 3.3.25 1.42.55 2.82.45 2.22.8 4.47t.97 4.45l.29 1.1a10 10 0 0 0 1.29 3q.12.06.26.07l1.92 1.92a26 26 0 0 0 3.4 2.91q2 1.44 4.09 2.78a10 10 0 0 1 2.83 2.67l-.04.1-.16.38-.12.05a4.2 4.2 0 0 1-3-.28q-.34-.15-.64-.36a9 9 0 0 0-2.2-1.1l-.1-.13q-.55-.77-1.08-.02a.2.2 0 0 0-.02.23l1.6 2.83a17 17 0 0 1 1.7 4.25q.54 2.19.77 4.41.05.6.2 1.13.65 2.45.04 4.84h-.08l-.08.02-.09-.01h-.02l-.18-.17-.23-.25a4 4 0 0 1-.72-1.25q-.57-1.65-.96-3.35a82 82 0 0 0-1.15-4.53l-.15-.6q-.14-.75-.8-.9-.24-.05-.37.16-.42.73-.05 1.57a20 20 0 0 1 1.3 4.15q.33 1.62.57 3.27a16 16 0 0 1 .03 4.4v-.03l-.04.25h-.09a1 1 0 0 1-.44-.14q-.38-.63-.7-1.3a29 29 0 0 1-1.3-3.08q-.38-1.36-.65-2.76-.2-1.04-.5-2.04a94 94 0 0 0-.64-2.85.6.6 0 0 0-.3-.26.6.6 0 0 0-.44-.01.6.6 0 0 0-.33.31l-.02.13.2 1.24q-.08.58.15 1.19l.13.33q.33 1.68.73 3.33.28 1.18.7 2.29l.3.94a3.1 3.1 0 0 1-.53 3.15l-.05.03-.06.01h-.06a1 1 0 0 1-.47-.27 3.4 3.4 0 0 1-.95-1.58q-.66-2.35-1.27-4.72-.6-2.31-1.02-4.66-.1-.55-.4-1-.53-.8-1.08-.05.06 1.48.42 2.97a43 43 0 0 0 .5 1.97q.5 1.83.04 3.63a2 2 0 0 1-.8-.91 15 15 0 0 1-.71-1.84q-.81-2.56-1.58-5.16a4 4 0 0 0-.52-1.09q-.22-.84-.6-1.68-.9-2.1-1.16-4.38-.22-1.95.02-3.9.1-.06.21-.16.2-.17.1-.39l-.66-1.65a26 26 0 0 0-2.07-4.1q-.9-1.42-1.75-2.88a64 64 0 0 0-2.45-3.87 53 53 0 0 1-2.41-3.9 69 69 0 0 0-2.3-3.8 2 2 0 0 0-.19-.63q-.23-.43-.5-.84a11 11 0 0 1-1.22-2.47l.01.04v-.03l-.07-.13a55 55 0 0 1-1.71-4.32q-.56-1.64-.98-3.32a69 69 0 0 1-.93-4.59 1 1 0 0 0 .14-.3q0-.36-.17-.7-.96-1.8-1.9-3.63l-1.93-3.74.02.04-.1-.2-.3-.75-.27-.64a30 30 0 0 1-.73-1.69q-.15-.36-.22-.48l.04-.22q.1-2-.18-4.02-.34-2.28-.53-4.6-.2-2.25-.43-4.52.11-.2.17-.42.27-1.02.37-2.1a7 7 0 0 0-.11-2.03q-.16-.75-.85-.41-.18.09-.18.28.03.83-.03 1.64a1 1 0 0 0-.21.17q-.19.44-.23.93-.13 1.9-.63 3.75a42 42 0 0 1-1.09 3.44l-.01.04-.02.05a7 7 0 0 1-.82 1.54q-.55.78-1.31 1.37a10.5 10.5 0 0 1-4.77 2.1q-2.36.36-4.75.56-1.35.1-2.64-.25a8 8 0 0 1-3.85-2.32 20 20 0 0 1-2.72-3.64 1 1 0 0 0-.23-.25q-.78-.62-1.02.36.3.86.83 1.62a18 18 0 0 0 1.43 1.83q-.79-.21-1.43.3h-.04q-.14 0-.2.11a7.4 7.4 0 0 0-1 4 19 19 0 0 0-.53-4.12 1 1 0 0 0-.12-.2 1 1 0 0 0-.27-.2q-.22-.12-.45-.18h-.4a21 21 0 0 1-1.7.11q.63-.7 1.15-1.5a7 7 0 0 0 .85-1.79l-.01-.08-.01-.07-.02-.07-.07-.11a.6.6 0 0 0-.7-.22 1 1 0 0 0-.27.2l-.1.2q-.4.9-.98 1.68A17 17 0 0 1 85.99 31l-.44.35q-1.64 1.38-3.56 2.38a8.7 8.7 0 0 1-4.99.96 11 11 0 0 1-4.37-1.4q-.78-.45-1.45-1.04a17 17 0 0 1-2.96-3.41 9 9 0 0 1-1.53-4.3q-.25-2.43-.1-4.88.02-.57-.33-.97-.23-.26-.53-.08-.63.36-.3 1.09a22 22 0 0 1-.1 1.9q-.4.61-.4 1.42.02 1.7-.08 3.4l-.41 9.08a50 50 0 0 1-4.87 11.14 12 12 0 0 0-1.44 4.03q-.21 1.35-.56 2.65-.55 2.08-1.08 4.18a47 47 0 0 1-5.6 13.1 141 141 0 0 1-7.26 10.55q-.5.38-.88.95a7 7 0 0 0-.97 2.1q-.09.25-.13.5-.19 1.2-.3 2.42-.15 1.85-.48 3.68-.4 2.2-.88 4.38-.5 2.26-1.15 4.47l-.64 2.17q-.3 1.06-1.09 2.08l-.06.03a6 6 0 0 0-.95.6l.01-.13.07-.46v.01q.06-.43.18-.85l.8-3.17q.45-1.77.98-3.5v-.13a1 1 0 0 0-.22-.5.6.6 0 0 0-.44-.19q-.26 0-.4.22-.75 1.26-1.04 2.73-.34 1.81-1.11 3.5-.13.3-.23.61a69 69 0 0 1-.84 2.45q-.54 1.46-1.46 2.72h-.16l-.05-.01-.04-.02h-.01l-.04-.1-.08-.31q-.15-.84.1-1.66.69-2.1.86-4.3.06-.78.18-1.54l.09-.34-.01-.12a21 21 0 0 1 .72-2.88l.03-.11q.05-.15.03-.32a1 1 0 0 0-.1-.28l-.16-.13a.6.6 0 0 0-.5-.08.6.6 0 0 0-.3.22q-.2.43-.3.77-.52 1.71-.73 3.48-.39 1.2-.6 2.45-.31 1.86-1.03 3.6 0-.01.02-.02-.08.18-.15.39-.2.56-.63.99-.5.48-1.2.53-.32-1.4.05-2.81.69-2.61 1.14-5.29.38-2.25.96-4.43.23-.86-.6-.92-.1 0-.17.03l-.12.03a.6.6 0 0 0-.35.28l-.22.81q-.57 2.16-1.18 4.3-.21.73-.36 1.46a8.7 8.7 0 0 1-1.95 4.03 3.7 3.7 0 0 1-.45-2.47q.07-.49.18-.98.42-2.1.88-4.18.38-1.65.95-3.23.37-1 .45-2.02a1 1 0 0 0 .2-.21q.06-.1.1-.2.16-.36.1-.63l.1-.36q.18-.21.26-.47a1 1 0 0 0 0-.47l.01-.02.22-.57q.16-.39.22-.8 0 .06.05-.1l.05-.23.01-.16h.01l.03-.16q0-.07.05-.16l.1-.12a.6.6 0 0 0 0-.58.6.6 0 0 0-.51-.31l-.24.03q-.35.03-.68.17-.27.13-.48.34l-.36.12q-.74.28-1.37.72t-1.2.95l-.04.01-.06.03q-.1 0-.2.03l-.46.1q-.25.08-.52.12l-.06-.02-.06-.01-.13-.04-.04-.02-.04-.03-.03-.02-.04-.03-.15-.2-.11-.23-.12-.3.02-.05.02-.2q0-.1.05-.2l.04-.06.08-.1.02-.04a19 19 0 0 0 2.3-2.03 8 8 0 0 1 1.78-1.41q.53-.33 1.03-.7a17 17 0 0 1 4.55-2.46 6 6 0 0 0 1.38-.5q.4.1.68-.4.83-1.52 1.32-3.18.68-2.26 1.31-4.53a199 199 0 0 0 2.22-8.83q.51-2.25 1.05-4.49.55-2.22 1.26-4.4.72-2.2 1.4-4.41a27 27 0 0 1 1.73-4.25q.84-1.66 1.72-3.27l.14-.01a1 1 0 0 0 .25-.11l.09-.1.1-.16.03-.2q.26-.6.49-1.24a223 223 0 0 0 1.6-4.63 32 32 0 0 1 1.71-4.17q.23-.47.38-.92.6-1.79 1.3-3.52.33-.84.55-1.68.43-1.35.46-2.82.06-2.4.5-4.76.45-2.46 1.03-4.87.24-.95.57-1.86a16 16 0 0 1 2.33-4.23 8 8 0 0 1 2.15-1.95 22 22 0 0 1 4.21-2l1.25-.45q1.27-.47 2.6-.64h-4.32q-1.7.66-3.32 1.46a9 9 0 0 0-2.7 2.01 18 18 0 0 0-2.62 3.73q-.28.52-.47 1.07a36 36 0 0 0-1.21 4.38q-.46 2.22-.82 4.45-.37 2.26-.45 4.54a4 4 0 0 1-.18 1.07l-.07.35-.1.2q-.38 1.05-.71 2.11a37 37 0 0 1-1.65 4.29 40 40 0 0 0-1.66 4.2q-.73 2.16-1.53 4.29a4 4 0 0 1-.24.51l-.15.1q-.14.18-.26.4-.82 1.46-1.6 2.96a34 34 0 0 0-1.83 4.22L40.5 53.6a58 58 0 0 0-1.3 4.36 201 201 0 0 0-2.06 8.83q-.48 2.28-1.14 4.51-.65 2.19-1.25 4.38-.6 2.16-1.53 4.15-.25.08-.49.2-.3.14-.59.32l-.13.03q-2.25.72-4.2 2.03-1.46.97-2.88 1.96-.2.12-.35.28-1.18 1.13-2.39 2.24-.3.17-.55.4a1.9 1.9 0 0 0-.56 2.01q.3 1.16 1.4 1.55.26.08.5.06 1.51-.06 2.62-1.03.3-.27.65-.45l1.36-.72-.01.02q-.12.25-.2.52-.3 1.03-.65 2.06-.13.38-.3.72-.26.55-.07.93-.34.83-.58 1.71a89 89 0 0 0-1.6 6.56q-.27 1.13-.36 2.28a3.6 3.6 0 0 0 1.13 3.08q.5.27 1.01.06t.83-.68l.35-.58q-.15 1-.16 2.03 0 1.22.93 1.83.42.07.85-.02.78-.15 1.32-.6.45-.37.76-.85.21.88 1.16 1.24.3.03.57-.01.66-.12 1.02-.72.49-.8.87-1.63 0-.05.03-.08l-.01.02.03-.08v-.01l.5-1.27.03.09.07.12.07.1q.52.42 1.18.17l.47-.2a3.9 3.9 0 0 0 1.94-2.12l.4-1q.8-1.97 1.3-4.04.57-2.4 1-4.85.39-2.1.84-4.19.24-1.07.22-2.05 0-1.76.59-3.39l.1-.17q.25-.48.6-.91.24-.3.38-.65 3.19-3.8 6.05-7.99a51 51 0 0 0 6.24-12.61 91 91 0 0 0 3.39-13.58q.49-.83 1.04-1.61a21 21 0 0 0 2.3-4.41q.9-2.35 1.73-4.74.13.35.27.7.32.76.55 1.56.32 1.11.44 1.47.28.78.6 1.52.6 1.45 1.24 2.89.7 1.62 1.56 3.15.1.9.26 1.79.18.95.26 1.9.3 3.9-.42 7.8-.82 4.26-.37 8.54l-.44 1.46a58 58 0 0 0-2.78 13.61 83 83 0 0 1-.81 6.7 318 318 0 0 1-2.54 13.82 19 19 0 0 0-.3 5.9.3.3 0 0 0-.08.19l-.07 1.15h1.49l-.01-.6q0-.32-.17-.59l-.14-.2q.2-4.35 1.17-8.64a125 125 0 0 0 2.67-17.33 54 54 0 0 1 2.8-13.67q.34-1.02.2-2.07a21 21 0 0 1 .42-7.22q1.45-5.85.2-11.63a4 4 0 0 0-.31-.92 87 87 0 0 1-4.68-12.22q-.07-.18-.18-.32l-.23-.42q.15-.47.15-1-.02-2.32.14-4.61.1-1.5.16-3.01.52 1.68 1.57 3.15a20 20 0 0 0 2.92 3.26l-.02-.02.05.04h.01q.36.3.77.54 1.38.85 2.9 1.39a13 13 0 0 0 4.57.66l.18-.03q-.1.36-.17.73-.45 2.25-.71 4.54a10 10 0 0 0 .53 4.52l-.12.16q-.24.43-.2.94a106 106 0 0 1 .09 5.06l-.04.28a.8.8 0 0 0-.1.55.6.6 0 0 0-.25.4q-.03.27.14.49v1.3q0 .75-.03 1.5l-.08 1.74a10 10 0 0 0 .4 3.25q.05.76.6.99a.6.6 0 0 0-.02.5q.35.57.48 1.22.23 1.08 0 2.17a7 7 0 0 0 .57 4.44q.63 1.29.83 2.7a78 78 0 0 1 .58 5.23q.25 2.33 1.27 4.43.8 1.65 1.09 3.48.1.6.29 1.16a20 20 0 0 0 2.56 4.91 13 13 0 0 1 1.63 3.15v-.06q.02.2.07.37.16.57.37 1.13.21.57.6 1l.11.04q.33.35.83.42a2.5 2.5 0 0 0-1.4.68q-.16.15-.22.3-.52 1.51-.61 3.16l-.08 1.75q0 .36.17.63 0 .8.06 1.6.1 1.34.17 2.68 0 .2-.06.4a1.6 1.6 0 0 0 0 1.32v.2h1.48l-.13-.36a1 1 0 0 0-.25-.36l.05-.22q.2-1.2.1-2.43-.12-1.5-.35-2.98.12-.25.1-.57-.15-2.14.32-4.23l.05-.05.05-.06.05-.06.05-.05.06-.03.06-.03.06-.03.06-.03q.1-.02.21-.01h.42l.06.01.13.03.12.02.1.01.07.04.33.16q.17.08.32.2l.21.2q.12.31.2.64.16.65.21 1.32l.1 1.46a9 9 0 0 1-.16 1.46q-.19 1.11-.3 2.21-.1.78-.1 1.56v2.18h1.17q.04-.84.01-1.7-.04-1.53.21-3.05v.06q.4-1.77.32-3.78a8 8 0 0 0-.51-2.55 2.5 2.5 0 0 0-1.61-1.54 3 3 0 0 0-.7-.17q.43 0 .85-.12t.75-.41q.73-.66 1.15-1.58.5-1.09.84-2.42.6-2.31 1.48-4.53.82-2.1 1.78-4.4a32 32 0 0 0 1.48-4.53q.1-.42.12-.84.12-2 .43-4 .33-2.17 1.1-4.24.78-2.1 1.36-4.15.47-1.64.69-3.34.12-.92.3-2 .04-.3-.2-.47.18-.38.23-.8.05-.54.14-1.07v.05-.04q.11-.41.19-.82.3-1.5.14-3-.16-1.55-.47-3.06v-.06q0-.15-.09-.29a.5.5 0 0 0-.21-.21 1 1 0 0 0-.21-.09l.1-.08q.24-.3.25-.68.11-2.4-.23-4.73a.8.8 0 0 0-.23-.46 8 8 0 0 0-2.9-1.84q-1.16-.44-2.27-.96l-1.88-.86a13 13 0 0 0-4.2-1.12 1 1 0 0 0-.5.12 1 1 0 0 0-.36.35l-.08-.42q.09-.43-.06-.82.58-.06.6-.67.07-1.17.09-2.34 0 1.11-.02 2.19.05.16.18.25 1.32.8 2.8 1.3 2.15.74 4.3 1.43 2.28.72 4.18 2.2v.28l.04.07q0 .04.03.07l.03.06.1.09.1.07.12.05q.14.04.28.01.22-.04.36-.23.16-.23.2-.5v-.07l-.01-.07-.02-.06q0-.12.03-.23.3-2.34.12-4.67a16 16 0 0 0-.96-4.32q-.1-.3-.29-.56l.25-.02q2.03-.23 4.04-.5a9 9 0 0 0 2.43-.7 16 16 0 0 0 3.67-2.36 5 5 0 0 0 1.44-2.05q.6-1.59 1.08-3.21l.13 1.5q.15 1.69.38 3.38a54 54 0 0 1 .37 4.72.6.6 0 0 0-.18.32q-.05.24.07.43-.13.77-.34 1.52a9 9 0 0 1-.64 1.65 22 22 0 0 0-1.61 4.3 45 45 0 0 1-1.33 4.23q-.42 1.12-.67 2.29a13 13 0 0 0-.27 2.3 101 101 0 0 0 .04 6.5q.12 2.28.37 4.56.14 1.12 0 2.26-.23 2.25-.6 4.46l-.09.19q-.04.5.16 1 .9 2.14 1.1 4.42t.58 4.55l.67 3.95.78 4.46q.16.9.4 1.78.6 2.21 1 4.48.23 1.35.35 2.74v-.05.05a34 34 0 0 1 .1 3.5 24 24 0 0 0 .32 4.57 23 23 0 0 0 1.27 4.6q-.06.23-.09.48h1.53l-.07-.41q-.11-.45-.37-.58 0-.42-.15-.85l-.38-1.1q-.75-2.17-.76-4.47a93 93 0 0 0-.15-4.57 39 39 0 0 0-.53-4.68q-.1-.56-.27-1.11a38 38 0 0 1-1.02-4.43l-.76-4.4q-.38-2.16-.73-4.32a59 59 0 0 1-.56-4.44q-.2-2.33-1.08-4.5l-.08-.21-.1-.34a38 38 0 0 0 .57-2.72q.29-1.66.17-3.33l-.29-4.58a84 84 0 0 1-.12-7.75 11 11 0 0 1 .98-4.27l.03-.05-.02.01q.68-1.8 1.16-3.66.43-1.67 1.12-3.23.64-1.46 1.15-2.95l.16.36a47 47 0 0 1 .77 1.78q.19.45.4.87.78 1.52 1.57 3.01a83 83 0 0 1 1.62 3.24q-.08.3-.01.62l.96 4.24q.5 2.2 1.25 4.35.76 2.2 1.71 4.32v.03q.11.23.21.48.36.87.85 1.68.5.8.86 1.68.06.24.24.35.54 1.08 1.13 2.16a54 54 0 0 0 2.4 3.88 81 81 0 0 1 2.42 3.83q1.16 1.96 2.42 3.86a21 21 0 0 1 2.09 4.08q.3.81.74 1.59-.3 1.19-.28 2.43.02 2.3.56 4.54.51 2.22 1.5 4.3.1.16.2.26.7 1.89 1.14 3.87.5 2.31 1.7 4.35.37.6 1 .89 1.19.5 1.69-.7l.23.82q.33 1.17.84 2.26.56 1.16 1.77 1.5 1.58-.02 2.06-1.64l.06-.21q.55 1.2 1.91 1.35.34.03.64-.15.75-.43.73-1.36a13 13 0 0 1 .14-2.06q.67 1 1.84.85a.6.6 0 0 0 .4-.22q1.08-1.3.83-3.02l-.08-.62-.6-4.73q-.35-2.5-1.14-4.89a19 19 0 0 0-1.45-3.2q.55.3 1.12.54 1.18.52 2.48.51 1.58.16 2.25-1.13.31-.57.06-1.16-.6-1.32-1.79-2.18-1.89-1.37-3.85-2.67A35 35 0 0 1 151 80.4a39 39 0 0 1-3.51-3.51q-.2-.51-.38-1.02-.75-2.2-1.13-4.51-.42-2.49-.97-4.96-.2-.97-.37-1.95-.2-1.26-.48-2.52a49 49 0 0 0-1.2-4.44q-.7-2.17-1.5-4.3-.8-2.15-1.55-4.31a18 18 0 0 0-1.93-3.95l-2.02-3.1q.06-.3-.03-.66a39 39 0 0 0-.91-3.08l-.57-1.65a79 79 0 0 0-1.18-3.13 61 61 0 0 1-1.53-4.33 24 24 0 0 0-1.37-3.46q.11-.6.06-1.23-.2-2.34-.5-4.66a21 21 0 0 0-2.49-7.65 16 16 0 0 0-2.7-3.64 54 54 0 0 0-1.6-1.56 19 19 0 0 0-3.68-2.67q-.28-.15-.55-.34a15 15 0 0 0-1.32-.77h-3.05q1.48.48 2.85 1.23 1.7.93 3.24 2.1 1.13.88 2.24 1.8a15.5 15.5 0 0 1 4.11 5.46q.91 2.08 1.42 4.3a28 28 0 0 1 .65 4.33l-.02-.08.04.51a25 25 0 0 0 .1 2.02.6.6 0 0 0-.23.38q.13.65.43 1.27a27 27 0 0 1 1.64 4.25 35 35 0 0 0 1.73 4.64q.46.94.73 1.96.18.69.43 1.33.5 1.27.76 2.58-.26.17-.14.65.06.2.2.4.75 1.05 1.49 2.14.63.92 1.15 1.9 1.15 2.14 1.9 4.45m16.92 47.99v-.06l-.02-.08v-.09.06zm-2.8 9.05v-.03l.02-.05v.03zM80.28 35.6q1.55-.41 2.96-1.2 1.67-.96 3.12-2.17.12.06.3.11h.06l.06-.02.06-.02h.22q.4.01.81-.05l.74-.1.15.03q.19.03.38.01.15 0 .31-.04l.14.78q.29 1.6.3 3.2.03 1.8-.05 3.48-1.37.4-2.6 1.2-1.9 1.26-4.01 2.13a30 30 0 0 0-3.72 1.82q-.09-.3-.12-.63-.25-2.22.08-4.44.33-2.05.81-4.09m8.99 5.5.01.11-.05.21q-.04.15 0 .31l.02.06.06.13q0 .05.02.08.06.24.1.49l.11.48a26 26 0 0 0 .28 2.55q.09.6.14 1.22a24 24 0 0 1 .04 3.48l-.03.04-.07.05-.14.04q-1.62.3-3.21.7a8 8 0 0 1-2.22.25 28 28 0 0 0-4.77.27q.03-2.29-.01-4.58 0-.24.03-.52a1 1 0 0 0-.04-.44l3.35-1.66 1.63-.77q.52-.23 1.06-.44a5 5 0 0 0 1.07-.58q1.24-.87 2.62-1.47M79.33 53.4q.06-.14.03-.3l.06-.25q.78-.13 1.56-.22 1.05-.12 2.1-.1a19 19 0 0 0 4.03-.37q.84-.14 1.68-.33.22.93.55 1.85a7 7 0 0 1 .07 4.63l-.15.36q-.29.65-.62 1.27-.34.61-.78 1.17l-.27.06q-1.23.1-2.45.07-.97-.01-1.93-.06-1.8-.07-3.6.13 0-.11-.03-.22l-.17-.62a4 4 0 0 1-.11-.62l-.07-1.74a24 24 0 0 1 .16-3.68q.09-.57-.06-1.03m1.38 12.67q.45-2-.62-3.65l2.05-.06q1.65-.03 3.29.14.42.02.85-.04.45-.06.9-.06.72 0 1.3-.34.45-.26.73-.68 1.07-1.59 1.52-3.42a13 13 0 0 0 .35 1.61q.36 1.25 1.5 1.75.94.43 1.94.66 2.24.51 4.53.6.33-.03.64-.08.69-.15 1.4-.08.47.03.93-.06l-.13.78q-.3 1.95-.77 3.95l-.13.56a78 78 0 0 0-2 6 17 17 0 0 0-.67 4.47 13 13 0 0 1-.81 4.31 75 75 0 0 1-1.76 4.43 57 57 0 0 0-1.64 4.27q-.3.85-.49 1.73-.53 2.4-1.88 4.38-.47.19-.99.2a1 1 0 0 1-.37-.09l-.23-.08-.13-.26a5 5 0 0 1-.54-1.42 6 6 0 0 0-.48-1.3 18 18 0 0 0-1.16-2.03 43 43 0 0 1-2.27-3.94 2 2 0 0 1-.19-.54 35 35 0 0 0-1.24-4.48q-.44-1.12-.98-2.22a10 10 0 0 1-.35-1.44 56 56 0 0 1-.58-5.4 9 9 0 0 0-.96-3.7 6.6 6.6 0 0 1-.56-4.47m12.02-33.38q.18-.07.38-.28.17.03.33.1.45.17.91.38.45.2.97.32.24.03.41-.05l.56.42a8 8 0 0 0 4.89 1.54l.06.2.04.05.1.08q.05.05.11.06l.08.04.3.76q.63 1.68.82 3.46.23 1.98-.04 3.96a7 7 0 0 0-1.5-.92 58 58 0 0 0-4.35-1.69q-2.28-.78-4.51-1.66v-.1a3 3 0 0 0-.06-.93 38 38 0 0 1 .1-3.5q.1-1.14.4-2.24m8.95 14.15q.2.77.2 1.55 0 .92.04 1.85.01.56-.1.9l-.08-.02-.08-.02a22 22 0 0 1-2.12-.15q-.63-.06-1.27-.08-1.13-.02-2.22-.28-.98-.06-1.92-.18a2 2 0 0 1-.5-.12 7 7 0 0 0-1.64-.4q.03-.38 0-.75a21 21 0 0 1-.08-3.29q.08-1.56.14-3.12 1.64.31 3.05 1.01 1.26.63 2.57 1.08 2.16.75 4 2.02m.12 5.52-.18.03-.28-.03a9 9 0 0 0-.87 0q-1.75.08-3.55-.23a10 10 0 0 0-3.47.08l-.2-.05a2 2 0 0 0-.47-.04h-.47a.6.6 0 0 0-.72-.1.6.6 0 0 0-.24.28l-.25.1-.1.06-.05.04-.05.06-.04.06-.04.06-.02.07-.02.2a.6.6 0 0 0 .13.36q-.12.28-.16.58l-.04.37q-.26-1.33-.74-2.63l-.03-.1.5-.18q.41-.16.57-.58.24.26.67.3.4.04.77.16a12 12 0 0 0 3.43.52l-.07-.01.95.13 2.02.25q1.3.14 2.6.14l.16.04zm-.03.01h-.04zm-11.16-9.95q.09.12.25.23l-.06 1.12q-.09-.67-.2-1.35m-.75 3.1v-.07.06m2.84 7.79q.38 0 .74.03.38.01.76-.11a16 16 0 0 1 3.83.26q1.59.35 3.18.02l.22.04q.18.04.37.02.18-.03.35-.08.03.21.08.41.09.32.12.65.03.42.08.54l.1.6q.12 1.03 0 2.05-.12.95-.31 1.88v-.01l-.05.21-.08.72a2 2 0 0 1-.17.63l-.04.01-.06.02-.06.02h-.4a12 12 0 0 0-2.2.16l-.81-.05q-1.52-.05-3-.35-1.41-.3-2.69-.92a2 2 0 0 1-.18-.4 5 5 0 0 0-.46-1 9 9 0 0 1-.15-1.76q0-.74-.06-1.46-.1-1.16.43-2.13zm-60.48 54.55h.03-.03m10.9-26.15-.02.04.01-.03q.03-.04.02 0m-.08.1-.03.05q0 0 .02-.03zM94.3 54.3l.02.42q.06.65.02 1.29-.02.65.03 1.27.03 0 .06.04.06.02.14.02.08-.02.14-.08.07-.21.09-.42l.05-1.3q0-.68-.17-1.33-.02 0-.05-.03l-.07-.03h-.11l-.05.02-.06.06zm1.88.29-.08-.06-.05-.02h-.08l-.05.01-.05.03-.04.04-.04.05V55q.08.6.05 1.18l-.05 1.27.05.08.07.04.09.02.06-.01.05-.02.05-.04.03-.04q.06-.22.07-.45l.05-1.22q.02-.61-.13-1.21m1.66.52-.03.05.01.44a31 31 0 0 1 .16 2.76l.05.08.07.04.08.03.06-.02.06-.02.04-.04.04-.04q.06-.21.05-.46l-.06-1.51q-.03-.69-.2-1.33l-.04-.03-.07-.03h-.07l-.06.01-.05.03zm1.7.42v.42q-.02.68-.08 1.37t.12 1.36l.03.01.06.03.07.02h.04l.1-.05.06-.07q.03-.23.01-.44-.08-.69.03-1.38.1-.71-.06-1.36l-.05-.04-.08-.03h-.09l-.05.03-.07.06zm-2.83-9.14-.03-.05q-.03 0-.05-.03l-.05-.02-.06-.02-.06.02-.05.02-.05.03-.03.05-.08.35q-.06.52-.1 1.07a4 4 0 0 0 .11 1.16l.07.05q.03.03.08.03h.09q.03 0 .05-.03.03 0 .04-.03l.03-.05.03-.05q0-.18-.03-.36-.08-.54.03-1.07.1-.55.06-1.07m1.63.39-.04-.04-.06-.02h-.1l-.05.02-.07.04q-.08.15-.1.3l-.05.96q-.01.51.2.92l.03.01.04.02h.07l.03-.01.05-.02.04-.04.06-.07v-.32a4 4 0 0 1-.04-.83q0-.42.04-.85l-.01-.03zm2.05.04-.03-.04-.05-.03-.05-.02-.06-.02-.06.02-.05.02-.05.03-.04.04a1 1 0 0 0-.04.32q.03.55-.05 1.09a11 11 0 0 0-.1 1.14q0 .04.03.08l.07.06.08.02h.06l.07-.02.06-.05.03-.03q.06-.18.06-.38l.12-1.13a5 5 0 0 0 0-1.1m-5.27-.55-.02-.02-.02-.02-.03-.02-.04-.02h-.06l-.07.01-.06.03-.05.05q-.08.18-.1.4a25 25 0 0 0-.27 2.41q0 .05.03.08a.2.2 0 0 0 .1.12l.1.02.06-.01.05-.02.04-.04.04-.04.07-.49q.04-.63.14-1.25.09-.57.12-1.13l-.01-.03zm5.92-8.7-.05-.03-.08-.02h-.08l-.07.05-.06.06-.02.09q0 .12.04.25.15.5.1 1.02-.05.62-.2 1.21l.03.09.05.06a.3.3 0 0 0 .14.05q.04 0 .09-.02l.06-.05q.09-.11.12-.25.15-.6.19-1.23.05-.7-.26-1.28m-2-.42q-.03 0-.05-.03l-.05-.02-.06-.02-.06.02-.05.02-.08.08a1 1 0 0 0-.04.23q.02.42.06.82a4 4 0 0 0 .23.88l.05.06.09.02h.09l.05-.03.08-.08.02-.05a1 1 0 0 0-.02-.24 3 3 0 0 1-.16-.78l-.06-.84zm-1.84-.35-.04-.04-.06-.01h-.11l-.05.02-.05.03-.04.05q0 .03-.02.05 0 .15.02.3.06.43.06.88l.03.93.04.07.08.05.08.01h.06l.05-.03.08-.08q.06-.16.05-.36l-.01-.98q0-.47-.17-.89m-1.68.37-.01-.03-.04-.05-.03-.04-.05-.03-.07-.01h-.1l-.07.06a1 1 0 0 0-.1.21l-.2.71q-.1.36-.16.71l.01.06q0 .05.04.08l.06.06.08.03.06-.01q.03 0 .06-.02l.04-.03.05-.03.1-.27q.07-.36.18-.71.09-.34.15-.7M84.49 74.7q.13-.77.4-1.51.28-.8-.12-1.55a1.8 1.8 0 0 0-1.54-1.03l-.02.01-.09.09-.02.05v.1q0 .04.03.07l.04.05q.58.12 1.02.52.28.25.28.61a8 8 0 0 1-.38 2.42.4.4 0 0 0 .06.38 3.7 3.7 0 0 1 .56 3.81q-.17.42.1.76.62.81.85 1.77.07.3-.01.6-.4 1.36.4 2.48.44.6.52 1.3a29 29 0 0 0 .97 4.57l.07.05.08.03h.1l.04-.04.09-.08q0-.03.02-.05-.15-.72-.34-1.43-.14-.46-.16-.93a9 9 0 0 0-1.02-3.65q-.14-.28-.24-.55a3 3 0 0 1-.08-1.72q.09-.42-.06-.83a9 9 0 0 0-.96-1.92q.27-.84.33-1.73a3 3 0 0 0-.12-1.02 6 6 0 0 0-.8-1.63m5.17 15.07a.2.2 0 0 0 .14-.1 15 15 0 0 0-.55-5.25q-.23-.75-.42-1.48-.09-.38-.06-.48.15-.86 0-1.7a3 3 0 0 0-.36-.9 6 6 0 0 1-.81-1.95q.78-1.53.36-3.28a4 4 0 0 1-.1-1.04 18 18 0 0 1 .13-1.78q.06-.5-.13-.95a6 6 0 0 1-.45-1.98l.09-.1.06-.1v-.14l-.06-.07-.04-.04-.09-.03-.09.01q-.56.45-.23 1.15.75 1.5.38 3.1-.06.3-.03.57.17 1.7.18 3.41a1 1 0 0 1-.15.52q-.57.82.02 1.66 1.05 1.5.85 3.26-.07.58.14 1.12.28.81.46 1.65a24 24 0 0 1 .51 4.82l.08.08a.2.2 0 0 0 .17.02m9.75-23.3-.09-.03q-1.4.4-2.12 1.67-.57 1.05-.4 2.24l.1.56q.1.58-.07 1.16a9 9 0 0 0-.3 3.4q.03.3-.07.56-.66 1.8-1.23 3.6-.14.44-.17.86a16 16 0 0 1-.59 3.34q-.11.42-.2.84a9 9 0 0 1-1.2 3.2v.16a.2.2 0 0 0 .1.12.2.2 0 0 0 .2.02 2 2 0 0 0 .53-.84q.51-1.53.98-3.07.17-.57.22-1.15.2-1.98.71-3.89.1-.39.3-.74.98-1.8.83-3.8-.08-1.18.28-2.3.27-.83.1-1.64l-.06-.46q-.25-2.43 2-3.39l.06.01.07.02h.09l.07-.04.04-.04.04-.05v-.12l-.01-.05-.02-.05-.07-.05zm-4.95 1.29.01-.03v-.1l-.04-.1-.04-.04-.08-.04h-.09q-.24.12-.47.3a2.5 2.5 0 0 0-1 1.75q-.15 1.24.29 2.41-.43 1.35-.4 2.76.06 1.29-.2 2.53a14 14 0 0 0-.12 4.56q.08.57-.24 1.06a2.4 2.4 0 0 0-.34 1.83 3.8 3.8 0 0 1-.97 3.53l-.02.1q0 .03.02.07l.04.08.03.02.1.04.1-.01q.44-.34.67-.82a5.3 5.3 0 0 0 .42-3.35q-.06-.3.1-.57.63-1 .5-2.16-.21-1.75.12-3.47.18-.99.16-1.98-.03-1.74.32-3.45.07-.31.07-.64 0-.6-.13-1.24-.45-1.95 1.2-3.04m-12.53-11.8-.05.89q0 .5.2.89l.04.02.1.01.09-.03.08-.08a1 1 0 0 0 .03-.28q-.06-.45-.04-.91a6 6 0 0 0-.01-.81l-.04-.04-.05-.03-.05-.03-.06-.01-.06.01-.05.03-.04.03-.04.04q-.05.15-.05.3m2.09-.85-.09-.06-.05-.02h-.07l-.06.01-.07.05-.05.07v.37q.07.56.12 1.13.05.59.27 1.08l.04.02.04.01h.09l.06-.03.04-.04.05-.07a1 1 0 0 0 0-.3l-.15-1.11a8 8 0 0 0-.17-1.11m1.1-.65q-.01.22.01.45.06.64.06 1.28a6 6 0 0 0 .18 1.39l.06.06.09.03.09-.01.05-.03.04-.04.03-.04.02-.05-.05-.55a7 7 0 0 1-.07-1.28 4 4 0 0 0-.14-1.27l-.06-.04-.06-.03h-.07l-.06.01-.05.03-.04.04zm2.22.74-.04-.04-.05-.03-.05-.01-.06-.01-.06.02-.05.03-.04.04-.03.04q-.03.23-.01.44a21 21 0 0 1 0 2.79l.04.07.07.06q.04.03.08.02h.06l.05-.01.06-.03.03-.04a2 2 0 0 0 .1-.57q.03-.7.02-1.41-.02-.7-.12-1.36m-4.54-8.38-.03-.04-.05-.03-.05-.02-.06-.02-.06.02-.05.02-.08.07a1 1 0 0 0-.05.33l.02.97v.96l.02.09.04.06.07.05.1.02q.02 0 .05-.02l.05-.01.05-.04.03-.04q.05-.2.05-.42v-1q0-.48-.05-.95m5.17-1.49-.04-.04-.07-.06-.09-.01-.05.01-.08.04-.06.06q-.05.25-.04.51l-.01 1.63q-.02.82.03 1.6l.06.04q.07.03.13.02.09-.01.15-.1.08-.19.08-.42.03-.81.04-1.62 0-.84-.05-1.66m-1.84-.62-.05.03-.04.03a1 1 0 0 0-.12.39q-.05.6-.02 1.18a7 7 0 0 0 .22 1.27l.06.05.09.03.09-.01.05-.03.04-.03.04-.04.02-.06q0-.2-.04-.4a4 4 0 0 1-.12-1.14q0-.57.06-1.14l-.02-.03-.03-.04-.05-.03-.05-.03h-.13m-1.22.71-.04-.04-.1-.06-.06-.01-.06.01-.05.03-.08.07q-.05.23-.04.48v1.45q0 .75.25 1.4l.04.01.03.01h.1l.05-.02.05-.04.05-.07q0-.23-.02-.46-.1-.67-.1-1.35.03-.7-.02-1.41m2.86-7.84a8 8 0 0 0-.17-2.06l-.07-.07-.1-.02h-.04l-.1.04-.07.1q-.03.22.01.45.12.9.1 1.81a8 8 0 0 1-.3 2q0 .06.05.1l.1.05h.1q.06 0 .1-.04.12-.18.17-.43.19-.96.22-1.93m-3.87-1.57-.04-.03-.08-.03h-.1l-.04.03-.07.06-.04.07q0 .16.02.33.06.66.06 1.32a10 10 0 0 0 .1 1.52l.08.08q.04.04.08.04H84l.04-.03.1-.07.07-.07v-.02l.03-.06.01-.05-.01-.06-.03-.08-.08-.06a1 1 0 0 1-.07-.3l.01-1.23q.03-.7-.17-1.36m1.76.82a2.4 2.4 0 0 0-.29-.92l-.02-.02-.06-.02h-.07l-.07.01-.04.04-.04.03-.03.05-.02.06.06.3q.12.5.18 1a7 7 0 0 0 .26 1.08l.06.06.08.02h.1l.05-.02.04-.04.03-.05.03-.05-.07-.43a8 8 0 0 1-.18-1.1m-2.9-.16-.02-.03-.03-.08-.07-.06-.02-.01-.1-.02-.13.05-.05.07q-.06.12-.1.26-.1.18-.11.38v.03h-.01v.02l-.01.12v.03l-.01.01-.11.88-.17 1q0 .04.02.07 0 .06.04.09l.1.06H82l.1-.01.1-.06q.09-.21.13-.44.12-.78.2-1.55v-.02q.04-.25.21-.8"/><path fill="#ca6a40" d="m93.44 53.33-1.2-.03q-.54.98-.43 2.13.06.72.06 1.46 0 .9.15 1.76l.25.5q.12.24.2.5.07.22.2.4 1.27.63 2.68.92 1.48.3 3 .35l.82.05a15 15 0 0 1 2.19-.16h.4l.06-.02.06-.02.04-.01q.15-.3.17-.63l.13-.93q.2-.92.31-1.87a9 9 0 0 0-.1-2.65 3 3 0 0 1-.08-.54 4 4 0 0 0-.12-.65l-.08-.4-.35.07q-.18.01-.37-.02l-.22-.04q-1.59.32-3.18-.02l-.9-.15q-1.46-.2-2.93-.11-.37.12-.76.11m6.1 2.62v-.42l.04-.07.07-.06.05-.02.09-.01.08.03.05.04q.16.65.06 1.36-.1.69-.03 1.38.03.23-.01.44l-.07.07-.1.05h-.03q-.04 0-.07-.02l-.06-.03-.03-.01a4 4 0 0 1-.12-1.36q.06-.68.08-1.37m-1.73-.79.03-.05.04-.04.05-.03.06-.02h.07l.07.04.05.03q.15.64.2 1.33l.05 1.51q0 .24-.05.46l-.04.04-.04.04-.06.02-.06.02-.08-.03-.07-.04-.05-.08-.02-.08a24 24 0 0 0-.14-2.68q-.02-.23-.01-.44m-1.67-.6q.03 0 .04.03.16.6.13 1.21l-.05 1.22q-.01.22-.07.45l-.03.04-.05.04-.05.02-.06.01-.09-.02-.07-.04-.05-.08-.01-.08q.02-.6.06-1.19.03-.6-.05-1.18a1 1 0 0 1 0-.35l.04-.05.04-.04.05-.03.05-.01h.07l.06.02zm-1.82.16-.02-.41.04-.08.06-.06q.02 0 .05-.02h.11l.07.03.05.03q.17.65.17 1.34l-.05 1.3q0 .2-.1.4a.2.2 0 0 1-.13.09q-.08 0-.14-.02l-.06-.04a9 9 0 0 1-.03-1.27q.03-.64-.02-1.29m7.56-6.34q0-.78-.2-1.55a16 16 0 0 0-4-2.02q-1.33-.45-2.58-1.08-1.41-.7-3.05-1.01-.06 1.56-.14 3.12-.1 1.65.08 3.29.03.38 0 .75.81.08 1.65.4.22.09.49.12.95.12 1.91.18 1.1.25 2.23.28.64.02 1.27.08a22 22 0 0 0 2.2.17l.07.02q.13-.34.1-.9zm-6.78-2.13.02.02.02.03.01.03q-.03.56-.12 1.13-.1.62-.14 1.25l-.07.5-.04.03-.04.04-.05.02-.06.01-.1-.02-.06-.04-.04-.08-.03-.08a20 20 0 0 1 .37-2.82l.05-.04.06-.03h.17q0 .03.03.03zm5.26.53q0 .03.03.04.07.55 0 1.1l-.12 1.13q0 .2-.06.38l-.03.03a.2.2 0 0 1-.13.07h-.06l-.08-.02-.07-.06-.04-.08v-.06q.03-.54.1-1.08.09-.54.06-1.09 0-.15.05-.32l.03-.04.05-.03.05-.02.06-.02.11.04zm-2.06-.04.08.08.01.03-.04.85q-.02.42.04.83v.32l-.1.1-.05.03h-.14l-.03-.02q-.2-.41-.2-.92.01-.48.05-.96.02-.15.1-.3l.07-.04.05-.02h.1zm-1.62-.4.03.05q.04.52-.06 1.07-.11.53-.03 1.07l.03.36-.03.05q0 .03-.03.05l-.04.03-.05.03h-.1l-.07-.03-.07-.05-.04-.08a4 4 0 0 1-.08-1.08l.11-1.07.08-.35.03-.05q.02 0 .05-.03l.05-.02.06-.02.06.02.05.02zM93.1 32.4q-.2.2-.38.28-.3 1.1-.4 2.24a37 37 0 0 0-.1 3.5 3 3 0 0 1 .06 1.03q2.24.88 4.51 1.66 2.2.75 4.34 1.69.82.36 1.51.92.27-1.98.04-3.96a14 14 0 0 0-1.12-4.22l-.08-.04-.11-.06-.14-.12-.06-.2-.68-.01a8 8 0 0 1-4.77-1.96.7.7 0 0 1-.41.05 5 5 0 0 1-.97-.32q-.45-.21-.91-.39-.16-.06-.33-.09m2.4 4.74v.03q-.05.34-.14.69l-.19.71q-.03.14-.1.27l-.04.03-.04.03-.06.02h-.06l-.08-.02-.06-.06-.04-.08-.01-.06q.07-.35.16-.71l.2-.7a1 1 0 0 1 .1-.22l.07-.05.1-.01h.07l.05.04.03.04zm1.65-.38.04.04q.17.42.17.89l.01.98q0 .2-.05.36l-.08.08-.05.02a.2.2 0 0 1-.14 0l-.08-.05-.04-.07-.03-.1v-.83q0-.45-.06-.88-.03-.15-.02-.3l.02-.05.04-.05q.02 0 .05-.03l.05-.03h.11zm1.83.36.09.08.07.92q.04.36.15.7.03.1.02.23l-.02.05-.08.08-.05.02h-.1L99 39.2l-.05-.06-.05-.08a4 4 0 0 1-.18-.8l-.06-.82q0-.12.04-.23l.04-.05.1-.05.05-.02.06.02zm2 .42.05.03q.31.6.26 1.28-.05.62-.19 1.23a1 1 0 0 1-.12.25l-.06.05-.1.02-.04-.01-.09-.04-.05-.06-.03-.09q.15-.6.2-1.2.05-.54-.1-1.03l-.04-.25q0-.05.02-.09l.06-.06.07-.04h.08zM80.1 62.41q1.05 1.65.62 3.65a6.6 6.6 0 0 0 .56 4.48q.87 1.73.96 3.68l.04.68q.17 2.37.54 4.73.12.74.35 1.44a27 27 0 0 1 1.2 2.83 35 35 0 0 1 1.02 3.87q.06.27.19.54a43 43 0 0 0 2.27 3.94q.65.98 1.16 2.03.3.62.48 1.3l.14.46a5 5 0 0 0 .53 1.22l.23.08a1 1 0 0 0 .37.09q.52-.01 1-.2 1.35-1.98 1.87-4.38.2-.88.49-1.73.75-2.21 1.64-4.27a75 75 0 0 0 1.76-4.43q.76-2.1.8-4.3.06-2.29.68-4.47a66 66 0 0 1 2-6.01l.13-.56a58 58 0 0 0 .9-4.73q-.45.09-.94.06-.7-.06-1.4.08-.3.06-.63.07a24 24 0 0 1-4.53-.6q-1-.22-1.94-.65a2.6 2.6 0 0 1-1.5-1.75 10 10 0 0 1-.35-1.61q-.44 1.83-1.52 3.42-.3.43-.72.68-.6.34-1.3.34-.45 0-.9.06t-.86.04q-1.65-.17-3.29-.14zm14.38 5.32v.03q-1.65 1.08-1.2 3.04a5 5 0 0 1 .06 1.88 15 15 0 0 0-.32 3.45q.02.99-.16 1.98-.32 1.72-.13 3.47.15 1.16-.49 2.16a.8.8 0 0 0-.1.57 5.3 5.3 0 0 1-.42 3.35q-.24.5-.67.82h-.1l-.1-.03-.03-.02-.04-.08-.02-.08q0-.05.02-.09a3.8 3.8 0 0 0 .97-3.53 2.4 2.4 0 0 1 .34-1.83q.32-.48.24-1.06-.3-2.3.13-4.56.24-1.24.2-2.53-.05-1.41.39-2.76-.43-1.17-.29-2.4.12-1.1 1-1.77.23-.16.47-.3l.1.01.07.04.04.04.04.1zm4.85-1.29.1.02.11.06.07.05.02.05.01.05v.12l-.04.05-.04.04-.07.04h-.09q-.04 0-.07-.02h-.06q-2.25.95-2 3.38l.06.46q.17.81-.1 1.64a6 6 0 0 0-.28 2.3q.15 2-.83 3.8-.2.35-.3.74a23 23 0 0 0-.7 3.89q-.06.58-.23 1.15a105 105 0 0 1-.98 3.07 2 2 0 0 1-.54.84l-.08.01-.1-.03a.2.2 0 0 1-.1-.12l-.01-.1v-.06q.9-1.47 1.2-3.2.09-.42.2-.84.47-1.63.6-3.34.02-.42.16-.85.57-1.81 1.23-3.6.1-.27.07-.56a9 9 0 0 1 .3-3.41q.18-.58.07-1.16l-.1-.56q-.18-1.18.4-2.24a3.4 3.4 0 0 1 2.12-1.67M89.8 89.67a.2.2 0 0 1-.14.1.2.2 0 0 1-.17-.02l-.08-.08-.03-.11v-.06a24 24 0 0 0-.48-4.65 12 12 0 0 0-.46-1.65 2.5 2.5 0 0 1-.14-1.12 4.7 4.7 0 0 0-.85-3.26 1.36 1.36 0 0 1-.02-1.66 1 1 0 0 0 .15-.52 39 39 0 0 0-.18-3.41q-.02-.28.03-.56a4.6 4.6 0 0 0-.38-3.1q-.33-.72.23-1.16h.1q.03 0 .08.02l.04.04.05.07v.15l-.05.1-.1.11q.07 1 .46 1.96.2.45.13.95-.11.88-.13 1.78-.02.53.1 1.04a4.6 4.6 0 0 1-.36 3.28q.21 1.02.8 1.94.27.42.36.91.15.84.01 1.7-.03.1.06.48.2.75.42 1.48.35 1.16.48 2.34.17 1.47.07 2.9m-4.92-16.48q-.25.75-.39 1.5.52.77.8 1.64.16.5.12 1.02a8 8 0 0 1-.33 1.73q.6.9.96 1.92.15.4.06.83-.2.9.08 1.72.1.28.24.55a9 9 0 0 1 1.02 3.65 4 4 0 0 0 .16.93q.2.72.34 1.43l-.02.05-.04.05-.1.06h-.09l-.08-.02-.07-.05-.03-.09a29 29 0 0 1-.94-4.48q-.09-.7-.51-1.3a2.8 2.8 0 0 1-.41-2.49q.08-.3.01-.59a5 5 0 0 0-.85-1.77.7.7 0 0 1-.1-.76 3.7 3.7 0 0 0-.56-3.8.4.4 0 0 1-.06-.39q.37-1.2.38-2.42 0-.37-.28-.6-.45-.42-1.02-.53l-.04-.05-.03-.07v-.1l.02-.05.09-.09.02-.01q1.06.08 1.54 1.03.4.75.11 1.55m-5.52-20.1q.02.16-.03.3.15.46.06 1.03l-.06.53a24 24 0 0 0-.1 3.15l.05 1.65q.03.36.13.71l.17.62.04.22q1.8-.2 3.6-.13.94.04 1.92.06 1.22.03 2.45-.07.14-.01.27-.06.44-.55.78-1.17a16 16 0 0 0 .77-1.63 6.8 6.8 0 0 0-.07-4.63q-.33-.92-.55-1.85a35 35 0 0 1-2.26.43q-1.72.3-3.46.27-1.05-.02-2.09.1-.79.09-1.56.22zm7.94 2.07.04.04q.1.66.12 1.36 0 .7-.02 1.41 0 .3-.1.57l-.03.04-.06.03-.05.01h-.06q-.04 0-.08-.02l-.07-.06-.03-.07-.01-.06a21 21 0 0 0 0-2.73v-.44l.04-.04.04-.04.05-.03.06-.02h.06l.05.02q.02 0 .05.03m-2.17-.25q-.02-.22-.02-.45l.04-.05.04-.04.05-.03.06-.02.07.01.06.03.06.04q.17.6.14 1.27-.02.65.07 1.28l.03.6-.03.04-.04.04-.05.03h-.1l-.08-.02-.06-.06-.04-.08q-.15-.64-.14-1.3 0-.65-.06-1.3m-1.15.16.03.04q.14.54.18 1.1l.14 1.11q.03.15.01.3l-.05.08-.04.04-.09.03h-.06l-.04-.02-.04-.01q-.22-.5-.27-1.08l-.11-1.13-.01-.37.05-.07.07-.05.06-.01h.07l.05.02zm-2.1 1.78.05-.9q0-.15.05-.29l.04-.04.1-.06.05-.01.06.01.05.03.09.07q.03.39.01.81-.02.45.04.9 0 .15-.03.29l-.08.08-.09.03-.1-.02-.04-.01a2 2 0 0 1-.2-.9m7.4-15.63-.01-.1q-1.38.6-2.62 1.47a5 5 0 0 1-1.07.58 25 25 0 0 0-2.69 1.21l-3.35 1.66q.07.2.04.44-.05.29-.03.52.04 2.29.01 4.58 2.32-.34 4.77-.27a8 8 0 0 0 2.22-.25 44 44 0 0 1 3.35-.74l.07-.05.03-.04a24 24 0 0 0-.18-4.7 26 26 0 0 1-.28-2.55l-.1-.48a6 6 0 0 0-.22-.76 1 1 0 0 1 .01-.31zm-4.41 4.16.04.04q.05.7.03 1.41-.02.67.09 1.35.03.22.02.46l-.05.07-.05.04-.05.02h-.13l-.04-.02q-.26-.65-.25-1.4V45.9q-.01-.25.04-.48l.04-.04.1-.06.05-.01.06.01.05.03q.02 0 .05.03m1.21-.64.05-.03h.13l.05.03q.03 0 .05.03l.03.04.02.03q-.06.57-.06 1.14-.02.57.12 1.13.04.21.04.41l-.02.06-.04.04-.04.03-.05.03h-.1l-.08-.02-.06-.05-.04-.09a7 7 0 0 1-.16-2.36 1 1 0 0 1 .12-.4zm1.85.55.04.04a26 26 0 0 1 .01 3.28q0 .23-.08.43a.2.2 0 0 1-.15.09q-.07 0-.13-.02l-.06-.04q-.05-.78-.03-1.6.02-.81 0-1.63 0-.27.05-.5l.06-.07.08-.04.05-.01.1.01zm-5.16 1.49q0 .03.03.04.05.47.05.95v1q0 .22-.05.42l-.03.04-.05.04-.05.01-.06.02q-.05 0-.09-.02l-.07-.05-.04-.06-.02-.1v-.95q0-.48-.02-.97a1 1 0 0 1 .05-.33l.03-.04.05-.03.05-.02.06-.02.06.02.05.02zm.47-12.38q-1.41.8-2.96 1.21-.48 2.04-.8 4.09a17 17 0 0 0-.1 4.44q.04.33.13.63 1.8-1.04 3.72-1.82a23 23 0 0 0 4.02-2.13 10 10 0 0 1 2.6-1.2q.07-1.7.04-3.47a20 20 0 0 0-.44-3.99 2 2 0 0 1-.84 0l-.74.1q-.4.06-.8.05h-.23l-.06.02-.06.01-.07.01-.3-.11q-1.44 1.22-3.1 2.16m-.5 2.24.01.03q-.17.54-.2.78v.03q-.09.78-.21 1.55-.04.23-.13.44l-.1.06h-.13l-.1-.05-.04-.09-.02-.06.29-1.9-.01.01v-.04l.02-.12v-.03.01-.03q.04-.2.11-.38l.16-.33.12-.05.1.02.03.01.07.06zm2.63-.73q.23.42.29.92.05.56.18 1.1.06.22.07.43l-.03.05q0 .03-.03.05l-.04.04-.06.02h-.09l-.08-.02-.06-.06-.04-.07q-.15-.5-.22-1a10 10 0 0 0-.24-1.31l.02-.06q0-.03.03-.05l.04-.03.04-.04h.07q.03-.01.07 0l.06.01zm-1.51.07.04.03q.21.66.17 1.36-.02.62-.01 1.23 0 .18.07.3a.2.2 0 0 1 .1.14l.02.06-.04.13-.07.07-.1.07-.04.02-.04.01h-.09l-.08-.04-.07-.08-.03-.05a10 10 0 0 1-.08-1.47 12 12 0 0 0-.08-1.65l.04-.07.07-.06.05-.03h.09zm3.74-.46q.22 1 .17 2.06-.03.98-.22 1.93-.05.24-.18.43a.2.2 0 0 1-.1.05h-.09l-.1-.07-.06-.1v-.05q.27-.95.3-1.94.04-.9-.09-1.8-.03-.24-.01-.46l.07-.1.1-.04h.04q.04 0 .1.02z"/><path fill="#fff" d="m139.22 50.55.03.07a28 28 0 0 0-1.9-4.45 22 22 0 0 0-1.15-1.9l-1.5-2.15a1 1 0 0 1-.19-.4q-.12-.45.14-.64a15 15 0 0 0-.76-2.58 12 12 0 0 1-.43-1.33 11 11 0 0 0-.9-2.34q-.92-2.07-1.56-4.26a27 27 0 0 0-1.64-4.25q-.3-.62-.44-1.27.04-.23.24-.38l.02-.02a42 42 0 0 1-.14-2.41q-.15-2.22-.65-4.36-.5-2.2-1.42-4.3a15 15 0 0 0-4.1-5.45 69 69 0 0 0-2.25-1.8 25 25 0 0 0-3.24-2.1Q116 3.48 114.53 3H67.85q-1.32.17-2.59.64l-1.25.45a22 22 0 0 0-4.21 2 8 8 0 0 0-2.15 1.95 16 16 0 0 0-2.9 6.1q-.58 2.4-1.04 4.86-.43 2.36-.49 4.76a10 10 0 0 1-.46 2.82q-.2.84-.55 1.68a53 53 0 0 0-1.3 3.52q-.14.45-.38.92a32 32 0 0 0-1.71 4.17q-.78 2.33-1.6 4.63-.23.63-.5 1.25 0 .09-.03.19l-.1.16-.08.1a1 1 0 0 1-.25.11h-.14q-.88 1.63-1.72 3.28a27 27 0 0 0-1.73 4.25l-1.4 4.41a65 65 0 0 0-1.26 4.4l-1.05 4.49a197 197 0 0 1-3.53 13.36 16 16 0 0 1-1.32 3.17q-.3.52-.68.4l-.05.03q-.63.31-1.33.48-2.47.87-4.55 2.46-.5.37-1.03.7-.99.58-1.77 1.41l-.6.6a20 20 0 0 1-1.73 1.46l-.04.05-.04.06-.04.06-.05.2-.02.2-.02.06.12.29.1.23a1 1 0 0 0 .2.23l.03.02.04.03.04.02.06.02.07.02.06.01.06.02.52-.11.65-.14q.04 0 .07-.03l.04-.01q.57-.5 1.2-.95a6 6 0 0 1 1.73-.84q.21-.22.48-.34.32-.14.68-.17l.24-.03q.35 0 .5.31.16.3 0 .58l-.1.12-.04.16-.03.16-.07.39q-.05.16-.05.1-.07.42-.22.8l-.22.6q.06.22-.01.46-.09.26-.25.47l-.1.36q.05.28-.1.63l-.1.2a1 1 0 0 1-.2.21 8 8 0 0 1-.46 2.02 27 27 0 0 0-.95 3.23 241 241 0 0 0-1.06 5.16q-.2 1.35.45 2.47a8.7 8.7 0 0 0 1.95-4.03q.15-.73.36-1.45a264 264 0 0 0 1.4-5.12.6.6 0 0 1 .35-.28l.12-.03q.07-.03.16-.03.84.06.61.92-.59 2.2-.96 4.43a58 58 0 0 1-1.14 5.29 6 6 0 0 0-.04 2.81q.69-.05 1.2-.53.42-.42.62-1l.15-.38-.02.02q.72-1.74 1.03-3.6.21-1.25.6-2.45.2-1.77.73-3.48.1-.34.3-.77.1-.16.3-.22a.6.6 0 0 1 .5.08q.09.06.15.13a1 1 0 0 1 .1.28q.02.15-.02.32l-.07.21q-.45 1.38-.68 2.78l.01.12-.09.34q-.12.76-.18 1.53-.18 2.2-.85 4.31a3.4 3.4 0 0 0-.03 1.96q0 .06.04.1l.01.01.05.02h.04l.08.01h.08q.92-1.26 1.46-2.72.42-1.14.84-2.45.1-.3.23-.6.77-1.7 1.11-3.51.3-1.47 1.04-2.73a.4.4 0 0 1 .4-.22.6.6 0 0 1 .44.19q.09.1.14.23a1 1 0 0 1 .08.4 59 59 0 0 0-.98 3.5l-.8 3.17a8 8 0 0 0-.18.85l-.07.45-.01.12a6 6 0 0 1 .95-.58l.06-.04q.78-1.02 1.09-2.08l.64-2.17q.65-2.22 1.15-4.47.48-2.18.88-4.38.33-1.83.49-3.68.1-1.2.29-2.41a2 2 0 0 1 .2-.66q.3-1.04.9-1.95a4 4 0 0 1 .9-.97q3.85-5.08 7.24-10.54a47 47 0 0 0 5.6-13.09q.53-2.1 1.08-4.18.35-1.3.56-2.65a12 12 0 0 1 1.44-4.03 50 50 0 0 0 4.87-11.14q.07-2.25.18-4.48l.23-4.6q.1-1.7.08-3.4a2.5 2.5 0 0 1 .45-1.48l.02-.64q.04-.6.04-1.2-.34-.73.29-1.09.3-.17.53.08.36.41.33.97-.14 2.45.1 4.88.22 2.34 1.53 4.3 1.25 1.9 2.96 3.4.67.6 1.45 1.05A11 11 0 0 0 77 34.7a8.7 8.7 0 0 0 5-.96A20 20 0 0 0 85.97 31L86 31l.34-.34q.58-.64 1.1-1.33a9 9 0 0 0 1.08-1.88.6.6 0 0 1 .28-.2.6.6 0 0 1 .7.22l.06.11.02.07.01.07v.08q-.28.95-.84 1.8-.52.78-1.15 1.5l2.1-.12q.23.06.45.17.16.08.27.2.08.09.12.21a19 19 0 0 1 .52 4.06 7.4 7.4 0 0 1 1.01-3.94q.06-.1.2-.11h.04q.64-.51 1.43-.3a16 16 0 0 1-1.43-1.83 6 6 0 0 1-.83-1.62q.24-.97 1.02-.36.14.1.23.25a20 20 0 0 0 2.72 3.64 8 8 0 0 0 3.85 2.32q1.29.36 2.64.25 2.4-.2 4.76-.57.96-.14 1.85-.47 1.58-.57 2.9-1.62.77-.6 1.32-1.37a7 7 0 0 0 .84-1.59l.01-.04q.63-1.7 1.1-3.44.5-1.85.63-3.75.03-.5.22-.93a1 1 0 0 1 .21-.17q.06-.81.03-1.64 0-.2.18-.28.69-.33.85.41.2 1 .11 2.04-.11 1.05-.37 2.1-.07.21-.16.41.23 2.25.42 4.52.19 2.31.53 4.6a21 21 0 0 1 .14 4.24q.08.12.22.48a29 29 0 0 0 .67 1.55q.18.38.33.78a12 12 0 0 0 .4.95l-.02-.04 1.93 3.74q.94 1.82 1.9 3.63.17.34.17.7a1 1 0 0 1-.14.3q.39 2.3.94 4.6.4 1.68.97 3.31a55 55 0 0 0 1.77 4.45l.01.03-.01-.04-.03-.07q.45 1.35 1.25 2.54.27.41.5.84.15.3.2.63 1.2 1.86 2.29 3.8a53 53 0 0 0 2.41 3.9 64 64 0 0 1 2.45 3.87q.84 1.45 1.75 2.89a26 26 0 0 1 2.07 4.1l.66 1.64q.1.22-.1.4l-.2.14a16 16 0 0 0 1.14 8.29q.36.84.59 1.68 0 .03.03.05.33.48.5 1.04.75 2.6 1.57 5.16.3.94.7 1.84.29.58.8.9.48-1.8-.02-3.62-.28-.97-.5-1.97-.37-1.49-.43-2.97.55-.75 1.08.06.3.44.4.99.42 2.35 1.02 4.66.6 2.37 1.27 4.72.27.94.96 1.58.2.2.46.28h.06l.06-.02q.03 0 .05-.03a3.1 3.1 0 0 0 .54-3.15l-.3-.94q-.43-1.1-.71-2.29-.4-1.65-.73-3.33l-.13-.33q-.22-.6-.15-1.2l-.2-1.23q0-.06.02-.13a.6.6 0 0 1 .33-.31q.23-.09.45 0 .19.1.29.27l.64 2.85q.3 1 .5 2.04.27 1.4.66 2.76a23 23 0 0 0 1.99 4.38l.08.03.16.06a1 1 0 0 0 .3.05q0-.13.03-.25v.03-.1q.3-2.16-.03-4.3-.24-1.65-.56-3.27a20 20 0 0 0-1.31-4.15 1.6 1.6 0 0 1 .05-1.57q.12-.21.37-.15.66.13.8.89l.15.6q.63 2.24 1.15 4.53.38 1.7.96 3.35a4 4 0 0 0 1.13 1.67h.27q.61-2.4-.04-4.85-.15-.54-.2-1.13a32 32 0 0 0-.77-4.4q-.56-2.25-1.7-4.26l-1.6-2.83a.2.2 0 0 1 .02-.23q.52-.76 1.09.02l.09.13q1.16.39 2.2 1.1.3.21.64.36a4.2 4.2 0 0 0 3.12.23l.1-.22.1-.26a10 10 0 0 0-2.83-2.67 96 96 0 0 1-4.1-2.78 27 27 0 0 1-3.4-2.91l-1.91-1.92a1 1 0 0 1-.26-.08 10 10 0 0 1-1.3-3l-.28-1.09a39 39 0 0 1-.96-4.45q-.34-2.25-.81-4.47-.3-1.4-.55-2.82-.3-1.67-.78-3.3a50 50 0 0 0-1.49-4.3 68 68 0 0 1-1.54-4.26l-.03-.07zm-23.16-19.46a99 99 0 0 1-.38-3.38l-.13-1.5a40 40 0 0 1-1.08 3.2q-.47 1.22-1.44 2.06a16 16 0 0 1-3.67 2.36 9 9 0 0 1-2.43.7 161 161 0 0 1-4.29.52q.18.26.3.56.76 2.1.95 4.32.2 2.33-.12 4.67-.02.1-.03.23l.02.06v.07l.01.07q-.04.27-.2.5-.14.19-.36.23a1 1 0 0 1-.28 0l-.12-.06-.1-.07-.1-.1-.03-.05a1 1 0 0 1-.08-.28v-.08l.01-.06a13 13 0 0 0-4.18-2.2q-2.15-.69-4.3-1.42-1.48-.51-2.8-1.31a.4.4 0 0 1-.18-.25l.02-2.19q-.03 1.17-.08 2.34-.04.61-.61.67.15.39.06.82l.08.42a1 1 0 0 1 .36-.35 1 1 0 0 1 .5-.12q2.19.2 4.2 1.12l1.88.86q1.11.52 2.27.96a8 8 0 0 1 2.9 1.84q.19.2.23.46.34 2.34.23 4.73-.02.38-.25.68l-.1.08q.1.03.2.09.15.07.22.21.09.14.09.3v.05q.3 1.5.47 3.05a10 10 0 0 1-.33 3.83v.04-.05q-.1.54-.14 1.07-.04.42-.23.8.24.15.2.47-.18 1.08-.3 2a24 24 0 0 1-.69 3.34 55 55 0 0 1-1.36 4.15 21 21 0 0 0-1.1 4.24q-.3 2-.43 4-.02.42-.12.84a32 32 0 0 1-1.48 4.52q-.96 2.33-1.78 4.41a40 40 0 0 0-1.48 4.53q-.33 1.34-.84 2.42-.43.92-1.15 1.58-.33.3-.75.41a4 4 0 0 1-.87.12q.35.05.72.17 1.19.42 1.6 1.54.48 1.23.52 2.55.08 2.01-.32 3.78v-.06a15 15 0 0 0-.2 3.06q.01.84-.02 1.7h24.65q.03-.27.1-.5l-.1-.18q-.82-2.15-1.18-4.41a24 24 0 0 1-.32-4.58 31 31 0 0 0-.46-6.23q-.4-2.26-1-4.48-.23-.88-.39-1.78l-1.45-8.41a56 56 0 0 1-.58-4.55q-.2-2.3-1.1-4.42-.2-.5-.16-1l.09-.19q.37-2.22.6-4.46.14-1.13 0-2.26a70 70 0 0 1-.43-6.45q-.04-2.3.02-4.6.02-1.17.27-2.31.26-1.16.67-2.3a46 46 0 0 0 1.33-4.23q.58-2.22 1.61-4.3.4-.78.64-1.64.2-.75.34-1.52a.5.5 0 0 1-.07-.43.6.6 0 0 1 .18-.32l.02-.1q-.1-2.32-.4-4.62m-50.04-4.2q-.07 1.51-.16 3.02a60 60 0 0 0-.14 4.6q0 .54-.15 1.01.1.22.23.42.1.15.18.32a87 87 0 0 0 4.68 12.22q.2.43.3.92 1.26 5.78-.19 11.63-.23.96-.37 1.93a21 21 0 0 0-.04 5.29q.12 1.05-.22 2.07a54 54 0 0 0-2.8 13.67q-.08 1.3-.29 3.19-.77 7.14-2.37 14.14a49 49 0 0 0-1.17 8.65q.08.09.14.2.17.26.17.59v.6h24.5v-.22q-.3-.62 0-1.31.07-.2.06-.4-.06-1.35-.17-2.68-.06-.8-.06-1.6-.18-.27-.17-.63l.08-1.75q.09-1.65.61-3.15.06-.18.21-.3.65-.6 1.4-.69a1.4 1.4 0 0 1-.82-.42l-.1-.04a3 3 0 0 1-.61-1 13 13 0 0 1-.44-1.5v.11q-.58-1.7-1.63-3.2-.28-.37-.52-.76-1.26-1.95-2.04-4.15a6 6 0 0 1-.3-1.16 12 12 0 0 0-1.08-3.48 13 13 0 0 1-1.36-5.23 78 78 0 0 0-.5-4.43 9 9 0 0 0-.82-2.7 7 7 0 0 1-.56-4.44q.21-1.1-.01-2.17a4 4 0 0 0-.48-1.22.6.6 0 0 1 .01-.5q-.53-.23-.59-.99a10 10 0 0 1-.4-3.25l.08-1.75.03-1.5v-1.3a.6.6 0 0 1-.14-.48q.04-.25.25-.4-.05-.34.1-.55v-.05l.05-.27q0-2.51-.1-5.02-.04-.5.2-.94l.12-.16-.01-.02a10 10 0 0 1-.52-4.5 54 54 0 0 1 .88-5.27l-.18.03q-.7.1-1.41-.01-1.62-.12-3.15-.65a15 15 0 0 1-3.69-1.93l-.05-.04.02.02-.06-.06a20 20 0 0 1-2.86-3.2q-1.05-1.47-1.57-3.15"/><mask id="b" width="70" height="22" x="12" y="17" fill="#000" maskUnits="userSpaceOnUse"><path fill="#fff" d="M12 17h70v22H12z"/><path d="M19.82 36.42q-1.4 0-2.68-.5-.37.38-.91.38t-.94-.36a1.2 1.2 0 0 1-.38-.9q0-.26.03-.75l.03-.74V22.1q0-.72.32-1.29.4-.7 1.15-.71 1.08 0 1.08 1.17 0 .13-.04.42l-.03.41v3.87q.75-.41 1.43-.62.69-.2 1.33-.2 2.37 0 3.83 1.72a6 6 0 0 1 1.36 3.91q0 2.34-1.58 3.97a5.3 5.3 0 0 1-4 1.66m.39-8.68q-.53 0-1.21.3-.7.3-1.55.9v4.3q1.38.6 2.37.59a2.8 2.8 0 0 0 2.11-.86q.83-.86.83-2.18 0-1.31-.68-2.17-.71-.88-1.87-.88m15.55.98q-.1 1.55-1.4 1.55-1.28 0-1.28-1.31l-.05-1.02a4.1 4.1 0 0 0-3.25 2.33l.01 5.07q0 .58-.4.95-.38.39-.99.39a1.2 1.2 0 0 1-.97-.4 1.4 1.4 0 0 1-.32-.94v-6.6q0-.31.02-.93l.02-.94q0-.57.33-.94.34-.39.97-.38 1.13 0 1.33 1.15a6.5 6.5 0 0 1 3.97-1.34q2.02 0 2.02 2.69zm10.15-.43q-.85.97-2.07 2.61l-2.1 2.8 1.02-.01q.4 0 1.17.15t1.17.14q.6 0 1 .39.4.37.4.94 0 .58-.39.95-.4.38-1 .38-.41 0-1.19-.15a7 7 0 0 0-1.16-.14q-2.26 0-4.23.38-.26.05-.44.05-.56 0-.95-.3-.45-.34-.45-.88 0-.65.64-1.18a30 30 0 0 0 5.26-6.23l-1.2.03q-1.54 0-3.13-.22-1.24-.18-1.24-1.31 0-.56.38-.95.38-.4.98-.4.5 0 1.5.11a17 17 0 0 0 3.57.02q1.37-.09 2.05-.09 1.27 0 1.27 1.03 0 .9-.86 1.88m11.28 1.88.05 4.71q.04.41.04.63 0 .56-.41.92-.4.38-1 .38-.84 0-1.22-.76a8 8 0 0 1-2.68.47 4.5 4.5 0 0 1-2.4-.6 2.8 2.8 0 0 1-1.32-2.03 30 30 0 0 1-.4-4.51q0-1.3.3-3 .21-1.14 1.37-1.14.59 0 1 .38.41.36.41.92 0 .45-.15 1.4-.14.94-.14 1.44 0 1.42.1 2.5.1 1.05.28 1.75.25.1.49.17.24.06.46.06 1.12 0 2.47-.32l-.04-3.46q0-2.07.2-3.58.15-1.2 1.37-1.2.6 0 1.02.38.42.37.4.94-.2 3.84-.2 3.55m6.56 6.47a5.6 5.6 0 0 1-3.72-1.27 4.4 4.4 0 0 1-1.59-3.5 7.5 7.5 0 0 1 1.42-4.15q1.62-2.45 3.76-2.45 1.05 0 2.45.57 1.7.7 1.7 1.6.01.5-.34.88a1.2 1.2 0 0 1-.94.41q-.43 0-1.05-.46-.6-.48-1.82-.47-.78 0-1.69 1.52a5 5 0 0 0-.86 2.54 2 2 0 0 0 .76 1.67 3 3 0 0 0 1.92.57q.68 0 1.65-.51a4 4 0 0 1 1.25-.52q.54 0 .92.4.4.39.4.9 0 .78-1.72 1.57-1.53.7-2.5.7m8.97-9.87q.75-.73 1.57-1.08a5 5 0 0 1 1.81-.37q1.73 0 2.48.97.56.73.69 2.23l.11 2.5.2 1.97q.14 1.12.35 1.96.05.22.05.37 0 .57-.44.93-.42.38-1 .38-1.02 0-1.32-1.01-.23-.83-.44-2.3a19 19 0 0 1-.13-3.87q0-.75-.02-.87-.1-.55-.53-.55-1.12 0-2.03 1.03a12 12 0 0 0-1.27 1.96q0 3.65-.35 4.4-.4.82-1.25.82-.57 0-1.01-.37a1.2 1.2 0 0 1-.44-.94q0-.19.11-.53.08-.22.13-2.73-.06-2.03.02-6.75l.02-.33q.06-1.2.06-1.6 0-.3-.1-.92-.1-.61-.1-.92 0-.58.42-.94.4-.38 1-.38 1 0 1.34 1.07.2.6.2 1.86 0 1.01-.07 2.05-.06.99-.06 1.96"/></mask><path fill="#000" d="M19.82 36.42q-1.4 0-2.68-.5-.37.38-.91.38t-.94-.36a1.2 1.2 0 0 1-.38-.9q0-.26.03-.75l.03-.74V22.1q0-.72.32-1.29.4-.7 1.15-.71 1.08 0 1.08 1.17 0 .13-.04.42l-.03.41v3.87q.75-.41 1.43-.62.69-.2 1.33-.2 2.37 0 3.83 1.72a6 6 0 0 1 1.36 3.91q0 2.34-1.58 3.97a5.3 5.3 0 0 1-4 1.66m.39-8.68q-.53 0-1.21.3-.7.3-1.55.9v4.3q1.38.6 2.37.59a2.8 2.8 0 0 0 2.11-.86q.83-.86.83-2.18 0-1.31-.68-2.17-.71-.88-1.87-.88m15.55.98q-.1 1.55-1.4 1.55-1.28 0-1.28-1.31l-.05-1.02a4.1 4.1 0 0 0-3.25 2.33l.01 5.07q0 .58-.4.95-.38.39-.99.39a1.2 1.2 0 0 1-.97-.4 1.4 1.4 0 0 1-.32-.94v-6.6q0-.31.02-.93l.02-.94q0-.57.33-.94.34-.39.97-.38 1.13 0 1.33 1.15a6.5 6.5 0 0 1 3.97-1.34q2.02 0 2.02 2.69zm10.15-.43q-.85.97-2.07 2.61l-2.1 2.8 1.02-.01q.4 0 1.17.15t1.17.14q.6 0 1 .39.4.37.4.94 0 .58-.39.95-.4.38-1 .38-.41 0-1.19-.15a7 7 0 0 0-1.16-.14q-2.26 0-4.23.38-.26.05-.44.05-.56 0-.95-.3-.45-.34-.45-.88 0-.65.64-1.18a30 30 0 0 0 5.26-6.23l-1.2.03q-1.54 0-3.13-.22-1.24-.18-1.24-1.31 0-.56.38-.95.38-.4.98-.4.5 0 1.5.11a17 17 0 0 0 3.57.02q1.37-.09 2.05-.09 1.27 0 1.27 1.03 0 .9-.86 1.88m11.28 1.88.05 4.71q.04.41.04.63 0 .56-.41.92-.4.38-1 .38-.84 0-1.22-.76a8 8 0 0 1-2.68.47 4.5 4.5 0 0 1-2.4-.6 2.8 2.8 0 0 1-1.32-2.03 30 30 0 0 1-.4-4.51q0-1.3.3-3 .21-1.14 1.37-1.14.59 0 1 .38.41.36.41.92 0 .45-.15 1.4-.14.94-.14 1.44 0 1.42.1 2.5.1 1.05.28 1.75.25.1.49.17.24.06.46.06 1.12 0 2.47-.32l-.04-3.46q0-2.07.2-3.58.15-1.2 1.37-1.2.6 0 1.02.38.42.37.4.94-.2 3.84-.2 3.55m6.56 6.47a5.6 5.6 0 0 1-3.72-1.27 4.4 4.4 0 0 1-1.59-3.5 7.5 7.5 0 0 1 1.42-4.15q1.62-2.45 3.76-2.45 1.05 0 2.45.57 1.7.7 1.7 1.6.01.5-.34.88a1.2 1.2 0 0 1-.94.41q-.43 0-1.05-.46-.6-.48-1.82-.47-.78 0-1.69 1.52a5 5 0 0 0-.86 2.54 2 2 0 0 0 .76 1.67 3 3 0 0 0 1.92.57q.68 0 1.65-.51a4 4 0 0 1 1.25-.52q.54 0 .92.4.4.39.4.9 0 .78-1.72 1.57-1.53.7-2.5.7m8.97-9.87q.75-.73 1.57-1.08a5 5 0 0 1 1.81-.37q1.73 0 2.48.97.56.73.69 2.23l.11 2.5.2 1.97q.14 1.12.35 1.96.05.22.05.37 0 .57-.44.93-.42.38-1 .38-1.02 0-1.32-1.01-.23-.83-.44-2.3a19 19 0 0 1-.13-3.87q0-.75-.02-.87-.1-.55-.53-.55-1.12 0-2.03 1.03a12 12 0 0 0-1.27 1.96q0 3.65-.35 4.4-.4.82-1.25.82-.57 0-1.01-.37a1.2 1.2 0 0 1-.44-.94q0-.19.11-.53.08-.22.13-2.73-.06-2.03.02-6.75l.02-.33q.06-1.2.06-1.6 0-.3-.1-.92-.1-.61-.1-.92 0-.58.42-.94.4-.38 1-.38 1 0 1.34 1.07.2.6.2 1.86 0 1.01-.07 2.05-.06.99-.06 1.96"/><path fill="#e7e7e7" d="m17.14 35.93.72-1.86-1.21-.48-.93.93zm-1.85.01-1.37 1.45v.01h.02zm-.35-1.65 2 .13zm.35-13.47 1.74 1v-.02zm2.2.88-1.99-.27v.06zm-.04 4.28h-2v3.4l2.97-1.65zm1.43-.62.57 1.92h.02zm5.16 1.52 1.53-1.3zm-.22 7.88-1.43-1.4zM19 28.04l-.81-1.83zm-1.55.9-1.15-1.63-.84.6v1.02zm0 4.3h-2v1.31l1.21.52zm4.48-.27 1.44 1.4v-.02zm.15-4.35 1.57-1.23v-.01zm-2.26 7.8v-2q-1.05 0-1.96-.35l-.72 1.86-.73 1.86q1.64.64 3.41.63zm-2.68-.5-1.42-1.4a.8.8 0 0 1 .51-.22v4c.88 0 1.7-.33 2.32-.96zm-.91.38v-2q.07 0 .22.05t.2.12l-1.36 1.47-1.35 1.47c.63.59 1.43.9 2.29.9zm-.94-.36 1.38-1.45a.8.8 0 0 1 .24.54h-4c0 .9.34 1.73 1 2.36zm-.38-.9h2l.02-.62-2-.13-1.99-.12-.03.86zm.03-.75 2 .12.03-.86h-4q0 .15-.03.62zm.03-.74h2V22.1h-4v11.44zm0-11.44h2q.02-.24.06-.3l-1.74-.99-1.73-.99c-.41.71-.6 1.5-.6 2.28zm.32-1.29 1.74.98s-.04.1-.2.18a1 1 0 0 1-.39.13v-4c-1.3 0-2.31.7-2.9 1.73zm1.15-.71v2h-.05l-.16-.05q-.22-.07-.45-.3c-.29-.32-.26-.6-.26-.48h4c0-.66-.15-1.53-.8-2.24a3 3 0 0 0-2.28-.93zm1.08 1.17h-2v-.04.02q0 .05-.02.17l1.98.27 1.98.27c.03-.2.06-.46.06-.7zm-.04.42-1.99-.21q-.04.31-.04.62h4v-.02l.02-.18zm-.03.41h-2v3.87h4V22.1zm0 3.87.97 1.75q.6-.32 1.03-.45l-.57-1.92-.56-1.91q-.93.28-1.84.78zm1.43-.62.6 1.91q.43-.12.73-.12v-4q-.98 0-1.92.3zm1.33-.2v2a2.8 2.8 0 0 1 2.3 1.01l1.53-1.3 1.53-1.29a6.8 6.8 0 0 0-5.36-2.43zm3.83 1.72-1.53 1.29c.58.68.9 1.52.9 2.62h4c0-1.96-.6-3.73-1.84-5.2zm1.36 3.91h-2c0 1.06-.33 1.88-1.01 2.57l1.43 1.4 1.43 1.4a7.5 7.5 0 0 0 2.15-5.37zm-1.58 3.97-1.44-1.4a3.4 3.4 0 0 1-2.56 1.06v4c2.11 0 3.97-.76 5.43-2.27zm-3.61-7.02v-2c-.72 0-1.41.2-2.02.47l.8 1.83.81 1.83q.22-.1.33-.12.1-.02.08-.01zm-1.21.3-.81-1.83q-.93.41-1.9 1.1l1.16 1.64 1.15 1.63q.75-.52 1.2-.71zm-1.55.9-2-.01v4.31h2l2-.01v-4.26zm0 4.3-.79 1.83c1.05.46 2.13.76 3.16.76v-4c-.28 0-.79-.1-1.58-.43zm2.37.59v2a4.8 4.8 0 0 0 3.55-1.47l-1.44-1.39-1.44-1.39c-.14.15-.31.25-.67.25zm2.11-.86 1.45 1.38a5 5 0 0 0 1.38-3.56h-4c0 .42-.11.63-.28.8zm.83-2.18h2c0-1.23-.32-2.41-1.1-3.4l-1.58 1.23-1.57 1.24c.12.15.25.41.25.93zm-.68-2.17 1.57-1.24a4.3 4.3 0 0 0-3.44-1.64v4q.18 0 .2.03 0-.01.1.1zm13.68.1-2-.12zm-2.68.24h2v-.1zm-.05-1.02 2-.1-.11-2.23-2.2.35zm-3.25 2.33-1.79-.9-.2.43v.47zm.01 5.07h2zm-.4.95-1.37-1.45v.01l-.02.01zm-1.96-.02 1.53-1.3-.02-.01-.01-.02zm-.3-8.46 2 .06zm.35-1.88L26 24.6zm2.3.77-1.96.36.58 3.16 2.58-1.92zm5.98 2.02-2-.11c-.02.27-.07.14.12-.07a1 1 0 0 1 .34-.24q.16-.04.13-.03v4c.85 0 1.78-.27 2.5-1.04.65-.73.86-1.63.9-2.39zm-1.4 1.55v-2c-.1 0 .18-.02.48.28.28.29.24.55.24.4h-4c0 .74.18 1.65.88 2.38.72.74 1.65.94 2.4.94zm-1.28-1.31 2-.1-.05-1.02-2 .1-2 .1.05 1.02zm-.05-1.02-.31-1.98a6.1 6.1 0 0 0-4.73 3.42l1.8.89 1.78.89c.35-.7.87-1.1 1.78-1.25zm-3.25 2.33h-2l.01 5.08h2l2-.01v-5.08zm.01 5.07h-2q0-.07.06-.24.07-.17.17-.26l1.38 1.45 1.38 1.45a3.3 3.3 0 0 0 1.01-2.4zm-.4.95L28 34.86a1 1 0 0 1 .24-.15l.16-.03v4c.87 0 1.72-.3 2.4-.95zm-.99.39v-2q.02-.01.21.05.21.08.35.25l-1.53 1.3-1.52 1.29c.68.8 1.6 1.1 2.49 1.1zm-.97-.4 1.5-1.34q.1.12.15.26t.03.14h-4c0 .79.23 1.6.83 2.26zm-.32-.94h2v-6.6h-4v6.6zm0-6.6h2q0-.26.02-.87l-2-.06-2-.07-.02 1zm.02-.93 2 .06.02-1h-4q0 .26-.02.87zm.02-.94h2q0 0-.03.15a1 1 0 0 1-.15.24l-1.49-1.33-1.5-1.33c-.58.66-.83 1.47-.83 2.27zm.33-.94 1.5 1.33q-.15.16-.35.24-.18.06-.18.05v-4c-.85 0-1.77.28-2.46 1.05zm.97-.38v2c.03 0-.18 0-.41-.2s-.24-.38-.22-.3l1.96-.35 1.97-.37a3.4 3.4 0 0 0-1.1-2.01 3.3 3.3 0 0 0-2.2-.77zm1.33 1.15 1.2 1.6a4.5 4.5 0 0 1 2.77-.94v-4q-2.86.02-5.16 1.73zm3.97-1.34v2q.16.02.07 0a.4.4 0 0 1-.16-.12l.04.12q.06.2.07.69h4c0-1.09-.2-2.27-.9-3.22a3.8 3.8 0 0 0-3.12-1.47zm2.02 2.69h-2v.51l-.01.04 2 .12 2 .13v-.8zm8.07 2.85 1.6 1.2.01-.01zm-2.1 2.8-1.57-1.23-2.66 3.38 4.3-.14zm2.19.14-.39 1.96h.03zm2.17.53-1.4 1.43.02.02.02.01zm-2.18 2.12-.36 1.97zm-5.39.24-.37-1.97zm-1.4-.26 1.23-1.58h-.01l-.01-.02zm.2-2.05 1.29 1.53zm5.26-6.23 1.66 1.11 2.21-3.3-3.97.2zm-4.33-.2.28-1.97zm-.86-2.25-1.43-1.4zm2.47-.29-.22 2h.02zm3.58.02.11 2h.01zm2.46 2.82-1.5-1.33q-.95 1.07-2.18 2.76l1.61 1.18 1.61 1.19q1.18-1.61 1.96-2.47zm-2.07 2.61-1.6-1.18-2.07 2.75 1.57 1.24 1.57 1.24q.46-.58 2.14-2.86zm-2.1 2.8.07 2 .95-.01v-4q-.45 0-1.09.02zm1.02-.01v2c.07 0 .3.02.78.11l.39-1.96.39-1.96a8 8 0 0 0-1.56-.2zm1.17.15-.36 1.97a9 9 0 0 0 1.53.17v-4q-.09.01-.81-.1zm1.17.14v2l-.16-.04a1 1 0 0 1-.24-.14l1.4-1.43 1.4-1.44a3.4 3.4 0 0 0-2.4-.95zm1 .39-1.36 1.46a.8.8 0 0 1-.24-.52h4c0-.9-.34-1.77-1.04-2.41zm.4.94h-2q0-.07.06-.24.08-.17.17-.26l1.38 1.45 1.38 1.45a3.3 3.3 0 0 0 1.01-2.4zm-.39.95-1.38-1.45a1 1 0 0 1 .24-.14q.13-.04.13-.03v4c.85 0 1.7-.28 2.39-.93zm-1 .38v-2c-.1 0-.34-.02-.83-.11l-.36 1.96-.36 1.97c.55.1 1.09.18 1.54.18zm-1.19-.15.36-1.96a9 9 0 0 0-1.52-.18v4q.09-.01.8.11zm-1.16-.14v-2q-2.43 0-4.6.41l.37 1.97.37 1.96a21 21 0 0 1 3.86-.34zm-4.23.38-.38-1.97-.09.02h.03v4q.44 0 .82-.09zm-.44.05v-2l.1.02.17.09-1.22 1.58-1.22 1.59c.65.5 1.41.72 2.17.72zm-.95-.3 1.2-1.6a1 1 0 0 1 .25.3q.11.26.1.42h-4c0 1 .46 1.88 1.25 2.47zm-.45-.88h2a1 1 0 0 1-.08.33c-.03.07-.06.07 0 .02l-1.28-1.53-1.29-1.53a3.5 3.5 0 0 0-1.34 2.7zm.64-1.18 1.3 1.52a32 32 0 0 0 5.62-6.64l-1.66-1.11-1.66-1.11a28 28 0 0 1-4.9 5.81zm5.26-6.23-.1-2-1.1.03v4l1.3-.03zm-1.2.03v-2q-1.41 0-2.85-.2L38.26 28l-.28 1.98q1.72.24 3.4.24zM38.26 28l.27-1.98c-.13-.02.04-.03.25.19q.15.16.2.33.05.16.04.15h-4c0 .75.21 1.59.86 2.27a3.5 3.5 0 0 0 2.1 1.02zm-1.24-1.31h2q0 .08-.05.23-.07.15-.14.21l-1.43-1.4-1.43-1.39a3.3 3.3 0 0 0-.95 2.35zm.38-.95 1.43 1.4a.7.7 0 0 1-.45.2v-4a3.3 3.3 0 0 0-2.41 1zm.98-.4v2q.3 0 1.27.1l.22-1.99.22-1.98q-1.03-.12-1.71-.13zm1.5.11-.2 2q1.04.1 1.7.1v-4q-.33 0-1.3-.09zm1.5.1v2q.8 0 2.18-.08l-.11-2-.12-2q-1.35.09-1.94.09zm2.07-.08.13 2q1.35-.09 1.92-.09v-4q-.79 0-2.19.1zm2.05-.09v2c.2 0-.02.05-.31-.19a1 1 0 0 1-.35-.47 1 1 0 0 1-.07-.3h4c0-.78-.26-1.68-1.05-2.33a3.4 3.4 0 0 0-2.22-.7zm1.27 1.03h-2c0-.05.02.12-.36.55l1.5 1.33 1.5 1.33a5 5 0 0 0 1.36-3.2zm10.47 8.47-2 .14v.03l.01.02zm-.37 1.55-1.32-1.5-.02.02-.02.02zm-2.22-.38 1.78-.9-.8-1.59-1.67.61zm-5.09-.13L48.5 37.6h.01v.01zm-1.31-2.03-1.98.3v.02zm-.1-7.5 1.98.35zm2.37-.77-1.34 1.48.01.01h.01zm.26 2.32-1.97-.32v.02zm-.05 3.93-2 .17.01.01v.01zm.3 1.76-1.93.53.25.92.87.38zm.48.17-.5 1.94h.01zm2.93-.26.46 1.94 1.54-.37v-1.57zm-.01-1.77 2-.02v-.01zm.17-5.27 1.98.26zm2.39-.82-1.32 1.5zm.4.94-2-.11zm-.2 3.55h-2l.01 2.05 2-.01 2-.02-.01-2.02zm.01 2.04-2 .01.01 2.02h4l-.01-2.05zm.01 2.03h-2q0 .34.04.78l2-.14 1.99-.14-.03-.5zm.03.64-1.99.2q.04.37.03.43h4q0-.38-.05-.82zm.04.63h-2q-.01-.11.07-.3a1 1 0 0 1 .2-.28l1.32 1.5 1.32 1.5c.72-.63 1.1-1.49 1.1-2.42zm-.41.92-1.36-1.46a.6.6 0 0 1 .36-.16v4c.85 0 1.68-.29 2.36-.9zm-1 .38v-2c.03 0 .17 0 .33.1s.22.22.23.24l-1.78.9-1.79.9c.27.52.66 1.02 1.23 1.37s1.19.49 1.78.49zm-1.22-.76-.7-1.88a6 6 0 0 1-1.98.35v4a10 10 0 0 0 3.37-.6zm-2.68.47v-2c-.67 0-1.09-.14-1.36-.3l-1.05 1.7-1.05 1.7c1.04.64 2.23.9 3.46.9zm-2.4-.6 1.06-1.7c-.23-.14-.35-.3-.4-.64l-1.98.31-1.98.32a4.8 4.8 0 0 0 2.22 3.4zm-1.32-2.03 1.98-.3q-.38-2.41-.37-4.21h-4q0 2.18.41 4.82zm-.4-4.51h2q0-1.09.28-2.64l-1.97-.36-1.97-.35q-.33 1.81-.33 3.35zm.3-3 1.98.35c0-.06-.01.14-.25.33-.23.2-.42.18-.36.18v-4c-.71 0-1.52.18-2.2.75s-1 1.34-1.13 2.04zm1.37-1.14v2q-.04 0-.16-.03l-.18-.1 1.34-1.5 1.34-1.48a3.4 3.4 0 0 0-2.34-.89zm1 .38-1.32 1.5a.8.8 0 0 1-.27-.58h4c0-.93-.37-1.8-1.09-2.43zm.41.92h-2c0 .13-.02.46-.12 1.08l1.97.32 1.98.31c.1-.64.17-1.24.17-1.7zm-.15 1.4-1.98-.3q-.16 1-.16 1.74h4q0-.25.12-1.15zm-.14 1.44h-2q0 1.49.1 2.66l2-.17 1.98-.17q-.08-.96-.08-2.32zm.1 2.5-2 .18q.1 1.17.36 2.1l1.92-.53 1.93-.53a9 9 0 0 1-.23-1.42zm.28 1.75-.8 1.83q.38.16.78.28l.5-1.94.51-1.94q-.05 0-.18-.06zm.49.17-.49 1.94q.45.12.95.12v-4H52zm.46.06v2q1.41 0 2.93-.38l-.46-1.94-.47-1.95q-1.16.28-2 .27zm2.47-.32h2q0-.79-.02-1.79l-2 .02-2 .02.02 1.75zm-.01-1.77 2-.03-.03-1.66h-4l.03 1.73zm-.03-1.7h2q0-1.98.18-3.31l-1.98-.26-1.99-.25a31 31 0 0 0-.2 3.83zm.2-3.57 1.98.25c.01-.07 0 .14-.25.36-.24.21-.45.2-.36.2v-4c-.73 0-1.57.17-2.27.79-.7.61-1 1.43-1.09 2.15zm1.37-1.2v2q-.03 0-.14-.03l-.16-.1 1.32-1.5 1.32-1.5a3.5 3.5 0 0 0-2.34-.87zm1.02.38-1.32 1.5a1 1 0 0 1-.22-.3 1 1 0 0 1-.07-.37l2 .1 2 .11c.05-.98-.33-1.89-1.07-2.54zm.4.94-2-.1-.18 3.4v.04l.05-.28a2 2 0 0 1 3.82-.16q.08.29.09.35l.02.24v.06h-4l.03.33q0 .08.08.35a2 2 0 0 0 3.69.22q.13-.3.14-.38l.03-.13.02-.17.02-.2.04-.66.14-2.82zm2.64 8.75-1.3 1.54h.01zm-.17-7.65 1.67 1.1zm6.21-1.88.76-1.85h-.01zm1.36 2.48L65.94 27l-.01.01zm-1.99-.05-1.23 1.57.02.02h.01zm-3.5 1.05L60.2 28.3zm-.1 4.2 1.23-1.56zm5.73-.05-1.43 1.4h.01l.01.01zm-1.32 2.47.83 1.82zm-2.5.7v-2a3.6 3.6 0 0 1-2.44-.8l-1.28 1.53-1.29 1.54a7.6 7.6 0 0 0 5 1.73zm-3.72-1.27 1.28-1.53a2.4 2.4 0 0 1-.87-1.98h-4c0 2.01.76 3.75 2.3 5.05zm-1.59-3.5h2c0-.86.3-1.86 1.09-3.05l-1.67-1.1-1.66-1.11a9.5 9.5 0 0 0-1.76 5.25zm1.42-4.15 1.67 1.1c.86-1.3 1.57-1.55 2.09-1.55v-4c-2.33 0-4.13 1.38-5.42 3.34zm3.76-2.45v2c.36 0 .9.1 1.7.42l.75-1.85.75-1.86a9 9 0 0 0-3.2-.7zm2.45.57-.76 1.85a4 4 0 0 1 .67.35q-.01.02-.1-.15-.1-.18-.1-.45h4c0-1-.5-1.78-1.06-2.3a6 6 0 0 0-1.9-1.15zm1.7 1.6h-2a.7.7 0 0 1 .17-.45l1.5 1.33 1.48 1.33q.84-.92.86-2.2zm-.34.88L65.93 27a.8.8 0 0 1 .56-.27v4c.93 0 1.8-.36 2.45-1.09zm-.94.41v-2a1 1 0 0 1 .33.06l-.04-.02-.13-.1-1.2 1.6-1.21 1.6c.52.39 1.3.86 2.25.86zm-1.05-.46 1.24-1.57c-.91-.72-2.05-.9-3.06-.9v4q.41 0 .56.05.13.05.03 0zm-1.82-.47v-2c-.94 0-1.67.46-2.15.9-.49.43-.9 1-1.25 1.6l1.71 1.02 1.72 1.02a5 5 0 0 1 .5-.68c.08-.07-.1.14-.53.14zm-1.69 1.52-1.72-1.02a7 7 0 0 0-1.14 3.56h4c0-.2.1-.68.59-1.53zm-.86 2.54h-2a4 4 0 0 0 1.52 3.24l1.24-1.57 1.24-1.57-.01-.01.01.02q0 .02 0 0v-.1zm.76 1.67L60.6 35.1c.93.73 2.04 1 3.16 1v-4c-.47 0-.64-.1-.68-.14zm1.92.57v2c.92 0 1.8-.33 2.58-.74l-.93-1.77-.93-1.77q-.36.19-.56.24-.2.06-.16.04zm1.65-.51.93 1.77q.45-.24.64-.31l.06-.02-.1.02-.28.02v-4c-.54 0-1.03.2-1.21.28q-.44.18-.97.47zm1.25-.52v2a1 1 0 0 1-.28-.06 1 1 0 0 1-.23-.15l1.43-1.4 1.44-1.39c-.63-.64-1.46-1-2.36-1zm.92.4-1.41 1.41a1 1 0 0 1-.12-.19 1 1 0 0 1-.07-.32h4c0-.93-.39-1.72-.98-2.32zm.4.9h-2q.02-.38.13-.57.1-.16.09-.12l-.23.16q-.2.13-.54.28l.83 1.82.84 1.82c.66-.3 1.3-.67 1.8-1.13a3 3 0 0 0 1.08-2.26zm-1.72 1.57-.82-1.82a5 5 0 0 1-1.68.52v4c1.07 0 2.21-.37 3.33-.88zm6.47-9.17h-2v4.78l3.4-3.36zm1.57-1.08.78 1.84h.01zm4.3.6 1.57-1.23zm.68 2.23 2-.08v-.08zm.11 2.5-2 .1v.04l.01.05zm.2 1.97-1.98.23v.02zm.35 1.96 1.94-.46zm-.39 1.3-1.28-1.53-.02.01-.02.02zm-2.32-.63-1.92.56v.01zm-.44-2.3-1.99.25v.02zm-.16-3.1-2-.12v.04zm0-1.64-1.97.33zm-2.55.48 1.49 1.34v-.01h.01zm-1.27 1.96-1.74-.98-.26.45v.53zm-.35 4.4 1.8.85zm-2.26.45-1.33 1.5.02.01.02.02zm-.33-1.47 1.9.61h.01zm.13-2.73 2 .04v-.09zm.02-6.75-2-.12v.09zm.02-.33 2 .12v-.02zm-.04-2.52-1.98.3v.03zm.32-1.86 1.32 1.5.02-.02zm2.34.7 1.9-.61zm.13 3.9 2 .12zm-.06 1.96 1.4 1.42q.51-.49.95-.66l-.78-1.84-.77-1.85q-1.23.53-2.2 1.5zm1.57-1.08.8 1.84q.44-.2 1.01-.2v-4q-1.35 0-2.6.52zm1.81-.37v2q.58.02.76.1.13.08.15.1l1.57-1.23 1.58-1.23c-1.02-1.3-2.56-1.74-4.06-1.74zm2.48.97L77 27.52c.03.04.2.32.28 1.16l1.99-.16 2-.16a6 6 0 0 0-1.1-3.3zm.69 2.23-2 .08.11 2.51 2-.1 2-.1-.11-2.47zm.11 2.5-1.99.2.2 2 2-.23 1.98-.22q-.05-.32-.2-1.95zm.2 1.97-1.98.25q.14 1.2.38 2.18l1.95-.47 1.94-.47a16 16 0 0 1-.3-1.74zm.35 1.96-1.95.46q0 .03 0 0v-.09h4q-.01-.46-.1-.83zm.05.37h-2q-.01-.12.08-.33a1 1 0 0 1 .2-.27l1.28 1.53 1.29 1.54a3.2 3.2 0 0 0 1.15-2.47zm-.44.93-1.32-1.5a.5.5 0 0 1 .32-.12v4c.86 0 1.67-.3 2.32-.88zm-1 .38v-2s.18 0 .38.15.23.3.22.26l-1.92.58-1.91.57c.18.63.54 1.29 1.18 1.77.64.5 1.38.67 2.05.67zm-1.32-1.01 1.92-.57q-.18-.59-.38-2l-1.98.27-1.98.27q.2 1.54.5 2.6zm-.44-2.3 1.98-.26q-.16-1.35-.16-2.09h-4q0 1.1.2 2.6zm-.18-2.35h2l.01-.67-2-.08-2-.08-.01.83zm.02-.75 2 .12.03-.89h-4l-.03.65zm.03-.77h2l-.01-.64c0-.1 0-.35-.04-.56l-1.97.33-1.98.33-.01-.11q0-.02 0 0v.65zm-.02-.87 1.97-.32c-.07-.4-.23-.98-.7-1.47a2.5 2.5 0 0 0-1.8-.76v4c-.32 0-.76-.13-1.1-.49-.3-.3-.34-.6-.35-.63zm-.53-.55v-2c-1.45 0-2.63.7-3.53 1.7l1.5 1.33 1.5 1.32c.32-.36.48-.35.53-.35zm-2.03 1.03-1.48-1.34c-.48.52-1 1.36-1.53 2.32l1.74.98 1.75.97c.53-.96.86-1.43 1-1.6zm-1.27 1.96h-2q0 1.78-.08 2.76-.05.5-.09.73c-.03.18-.04.16.01.05l1.8.85 1.82.86c.3-.62.39-1.47.45-2.17q.1-1.2.1-3.09zm-.35 4.4-1.8-.86c-.02.02.03-.09.19-.2a1 1 0 0 1 .36-.12v4a3.3 3.3 0 0 0 3.05-1.97zm-1.25.82v-2a.5.5 0 0 1 .27.1l-1.28 1.53-1.29 1.53q1 .83 2.3.84zm-1.01-.37 1.32-1.5q.07.05.17.23a1 1 0 0 1 .07.33h-4c0 .97.42 1.82 1.11 2.44zm-.44-.94h2v.13l-.01.05v-.03l.03-.07-1.9-.61-1.9-.62c-.1.28-.22.7-.22 1.15zm.11-.53 1.91.6c.1-.3.12-.62.12-.7l.04-.6.06-1.99-2-.04-2-.04-.08 2.35-.01.06v-.06l.06-.2zm.13-2.73 2-.05q-.06-1.95.02-6.67l-2-.03-2-.03q-.08 4.73-.02 6.83zm.02-6.75 2 .12.01-.33-2-.12-1.99-.12-.02.33zm.02-.33 2 .1q.05-1.2.06-1.7h-4l-.06 1.5zm.06-1.6h2q-.01-.58-.13-1.24l-1.97.32-1.98.33.07.55v.04zm-.1-.92 1.97-.29-.07-.63h-4q0 .55.12 1.22zm-.1-.92h2q.02.08-.06.28a1 1 0 0 1-.2.28l-1.32-1.5-1.32-1.5a3.2 3.2 0 0 0-1.1 2.44zm.42-.94 1.34 1.48a.6.6 0 0 1-.34.14v-4c-.86 0-1.68.3-2.34.9zm1-.38v2l-.15-.02a1 1 0 0 1-.26-.14c-.17-.14-.19-.25-.15-.16l1.9-.6 1.9-.62a3.3 3.3 0 0 0-3.25-2.46zm1.34 1.07-1.9.6c.02.1.1.47.1 1.26h4c0-.88-.07-1.75-.3-2.46zm.2 1.86h-2q0 .95-.07 1.93l2 .12 2 .12q.06-1.1.06-2.17zm-.07 2.05-2-.12q-.06 1.05-.06 2.08h4q0-.9.06-1.84z" mask="url(#b)"/><path fill="#fff" d="M14 57.67a8 8 0 0 1 8-8h9a8 8 0 0 1 8 8v9a8 8 0 0 1-8 8h-9a8 8 0 0 1-8-8z"/><path fill="#000" d="m23.13 49.89-.2.98zm2.25.26.03 1zm.75-.02.03 1zm.75-.23.5.87zm.75-.43-.5-.86zm2.62-.04-.29.96zm.38.11.28-.95zm1.44.47.31-.95zm2.32.03-.8.58zm.25.35-.8.58zm.26.35.8-.59zm.56.54.52-.86zm.32.19-.51.86zm1 .57-.47.89zm.36.2.47-.89zm.37.19-.47.88zm.47.58-.96.28zm.12.39.96-.28zm.25 1.15 1-.07zm.05.77-1 .07zm.06.74 1-.07zm.05.71-1 .08zm.03.73 1-.03zm.02.73-1 .03zm.21.74.89-.46zm.39.75-.89.47zm.12.75.98.2zm-.08.38-.98-.2zm-.07.37.98.2zm.05.75-.95.33zm.25.75.95-.32zm-.13.75.82.58zm-.27.38-.81-.58zm-.28 2.63.92-.37zm.3.77-.92.37zm0 .73-.91-.4zm-.16.36.92.4zm-.15.35-.92-.4zm-.36.67.84.54zm-.2.31-.84-.54zm-.2.32-.84-.54zm-.4.6-.83-.55zm-.4.6-.83-.55zm-.43.58-.77-.64zm-.47.56-.76-.65zm-.44.66.89.46zm-.2.38-.88-.47zm-.2.38.89.47zm-.98.56-.22-.98zm-.4.08.22.98zm-.79.03-.14 1zm-.79-.11.14-.99zm-.76.12-.43-.9zm-.72.34.43.9zm-.74-.04-.5.86zm-.75-.43.5-.87zm-.75-.15.18.98zm-.38.07.19.98zm-.37.07-.18-.98zm-.75.1.06.99zm-.75.04-.06-1zm-.75-.07.22-.97zM25 74.2l-.22.98zm-.75.12-.48-.87zm-.38.21.49.88zm-.37.2.48.88zm-.75.18-.1 1zm-.38-.04-.1 1zm-.38-.04.1-1zm-.76-.02.04 1zm-.79.03.04 1zm-.77-.1-.3.95zm-.38-.12-.3.96zm-.37-.11.29-.96zm-.6-.49.85-.52zm-.23-.36.85-.53zm-.22-.37-.86.52zm-.54-.56.52-.85zm-.31-.19-.52.86zm-.32-.19.52-.85zm-.67-.39-.48.88zm-1.16-.99.99-.19zm-.15-.8-.98.2zm-.28-.72-.85.52zm-.42-.67.85-.53zm.03-1.12.96.28zm.12-.4-.96-.28zm-.1-.76.88-.5zm-.41-.75.87-.49zm0-.75-.86-.5zm.44-.75-.87-.5zm.03-.75.9-.43zm-.36-.75-.9.44zm-.08-5.24-.9-.45zm.19-.37.9.45zm.9-2.48.89.45zm.57-1.4.99.17zm.15-.84-.98-.18zm1.12-1.03-.5-.86zm.68-.4-.51-.86zm1.34-.73-.37-.93zm1.46-.33-.24.97zm.78.19-.24.97zm.57-.19.85.54zm.36-.57-.84-.53zm.55.39-.19.98zm.38.07-.2.98.38.08.2-.98.19-.98-.38-.08zm.38.08-.2.98q.4.08.8.13l.14-.99.14-.99-.7-.11zm.75.12-.14 1 .37.04.14-.99.14-.99-.38-.05zm.37.05-.14 1 .38.05.14-1 .13-.99-.37-.05zm.38.05-.14 1q.45.06.92.04l-.04-1-.03-1q-.28.02-.58-.03zm.75.04.03 1h.37l-.03-1-.03-1h-.38zm.37 0 .03 1 .38-.02-.04-1-.03-1-.37.01zm.38-.02.03 1q.65-.03 1.21-.36l-.5-.87-.5-.86a1 1 0 0 1-.28.1zm.75-.23.5.87.37-.21-.5-.87-.5-.87-.37.22zm.37-.21.5.87.37-.22-.5-.87-.5-.86-.37.21zm.38-.22.5.87a1 1 0 0 1 .28-.1l-.04-1-.03-1a2.6 2.6 0 0 0-1.21.37zm.75-.22.03 1 .37-.02-.03-1-.03-1-.38.02zm.37-.02.03 1h.38l-.04-1-.03-1h-.37zm.38 0 .03 1q.2-.02.43.05l.29-.96.28-.96q-.52-.15-1.07-.14zm.75.1-.3.95.38.11.29-.96.29-.96-.38-.1zm.37.1-.29.96.38.11.29-.96.28-.95-.37-.12zm.38.11-.3.96.72.22.3-.95.32-.95-.76-.23zm.73.23-.31.95.36.12.3-.95.32-.95-.36-.12zm.36.12-.31.95.35.12.31-.95.31-.95-.35-.12zm.35.12-.3.95q.67.2 1.34.02l-.25-.97-.25-.96q-.19.04-.23 0zm.79 0 .25.97.42-.1-.24-.98-.25-.96-.43.1zm.43-.1.24.96.43-.1-.25-.97-.24-.97-.43.1zm.42-.11.25.96q-.01.02-.2-.02a.4.4 0 0 1-.18-.12l.81-.58.82-.59a1.6 1.6 0 0 0-.78-.6q-.52-.15-.96-.02zm.68.24-.8.58.24.35.81-.58.82-.59-.25-.35zm.25.35-.8.58.24.35.82-.58.8-.59-.24-.35zm.26.35-.82.58q.35.5.87.81l.51-.85.52-.86a1 1 0 0 1-.27-.27zm.56.54-.51.85.32.2.51-.86.52-.86-.32-.19zm.32.19-.51.86.31.19.52-.86.52-.86-.32-.19zm.32.2-.52.85q.34.2.73.4l.47-.88.47-.88-.63-.36zm.68.37-.47.89.37.2.46-.9.47-.88-.36-.19zm.36.2-.46.88.36.2.47-.89.46-.88-.36-.2zm.37.19-.47.88-.02-.02.96-.28.96-.28q-.24-.8-.97-1.18zm.47.58-.96.28.11.38.97-.27.96-.28-.12-.4zm.12.39-.97.27.12.4.96-.29.96-.28-.11-.38zm.1.38-.95.28q.08.3.1.56l1-.07 1-.07a5 5 0 0 0-.18-.98zm.15.77-1 .07.03.39 1-.07 1-.08-.03-.38zm.03.39-1 .07.03.38 1-.07.99-.07-.03-.39zm.02.38-1 .07.06.74 1-.07 1-.07-.06-.74zm.06.74-1 .07.02.36 1-.07 1-.08-.03-.35zm.02.36-1 .07.03.36 1-.08 1-.07-.03-.36zm.03.35-1 .08q.03.33.03.68l1-.03 1-.03q0-.4-.03-.77zm.03.73-1 .03.01.36 1-.02 1-.03v-.37zm.01.37-1 .02.01.37 1-.03 1-.03v-.36zm.01.36-1 .03q.03.63.32 1.18l.89-.47.89-.46a1 1 0 0 1-.1-.3zm.21.74-.89.47.2.37.88-.46.9-.46-.2-.38zm.2.38-.9.46.2.38.89-.47.89-.46-.2-.37zm.19.37-.89.47.03.07v.02l.98.2.98.2q.13-.76-.21-1.42zm.12.75-.98-.2-.08.38.98.2.98.2.08-.38zm-.08.38-.98-.2-.07.38.98.2.98.2.07-.38zm-.07.37-.98-.2q-.14.66.08 1.28l.95-.33.94-.32a.4.4 0 0 1-.01-.23zm.05.75-.95.33.13.37.95-.32.94-.32-.13-.38zm.13.38-.95.32.13.38.94-.33.95-.32-.13-.37zm.12.37-.94.33-.01-.06v-.07q.02-.06 0-.02l.82.57.82.58a1.8 1.8 0 0 0 .26-1.65zm-.13.75-.82-.57-.26.37.81.58.82.58.27-.38zm-.27.38-.81-.58-.27.38.82.57.82.58.26-.37zm-.26.37-.82-.57c-.28.4-.45.86-.42 1.38l1-.06 1-.05v-.01q0-.03.06-.1zm-.24.75-1 .06.02.38 1-.06 1-.06-.03-.37zm.02.38-1 .06.02.37 1-.06 1-.05-.02-.38zm.02.37-1 .06q.03.56.25 1.08l.93-.38.92-.37a1 1 0 0 1-.1-.44zm.18.76-.93.38.15.38.93-.38.93-.37-.16-.38zm.15.38-.93.38.16.38.92-.37.93-.38-.15-.38zm.15.39-.92.37v.01-.05l.92.4.92.4q.31-.77.01-1.5zm0 .73-.91-.4-.16.35.91.4.92.41.16-.35zm-.16.36-.91-.4-.16.35.92.4.91.4.16-.35zm-.15.35-.92-.4q-.12.29-.28.53l.84.54.84.54q.24-.39.43-.8zm-.36.67-.84-.54-.2.31.84.54.84.54.2-.31zm-.2.31-.84-.54-.2.32.84.54.85.53.2-.31zm-.2.32-.84-.54-.39.6.83.55.83.55.42-.63zm-.4.6-.83-.55-.2.3.83.56.83.55.2-.3zm-.2.3-.83-.55-.2.3.83.56.83.55.2-.3zm-.2.3-.83-.55-.37.49.77.64.76.65q.27-.32.5-.67zm-.43.58-.77-.64-.23.28.76.64.77.65.23-.28zm-.24.28-.76-.64-.23.27.76.65.76.64.24-.27zm-.23.28-.76-.65q-.33.38-.56.84l.88.47.89.46q.16-.3.31-.48zm-.44.66-.88-.47-.2.38.88.47.89.46.2-.38zm-.2.38-.88-.47-.2.39.88.46.89.47.2-.39zm-.2.38-.88-.46.01-.02.06-.03.22.98.21.98c.58-.13 1-.49 1.27-.98zm-.6.47-.2-.98-.4.09.22.98.21.97.4-.08zm-.38.09-.22-.98-.4.09.22.97.22.98.4-.09zm-.4.08-.21-.97a1 1 0 0 1-.44.01l-.14 1-.14.98q.58.08 1.15-.04zm-.79.03.14-.99-.4-.05-.13.99-.15.99.4.05zm-.4-.05.15-1-.4-.05-.14.99-.14.99.4.06zm-.39-.06.14-.99a2.3 2.3 0 0 0-1.33.2l.43.9.43.9a.3.3 0 0 1 .19-.02zm-.76.12-.43-.9-.36.16.43.9.43.91.36-.17zm-.36.17-.43-.9-.36.17.43.9.43.9.36-.17zm-.36.17-.43-.9q.02-.03.12-.02l.07.01-.5.87-.5.86c.5.3 1.1.35 1.67.08zm-.74-.04.5-.87-.38-.22-.5.87-.5.87.38.21zm-.38-.22.5-.87-.37-.21-.5.87-.5.86.38.22zm-.37-.21.5-.87a2 2 0 0 0-1.43-.26l.18.98.18.98q0 0 .07.03zm-.75-.15-.18-.98-.38.07.18.98.19.98.37-.07zm-.38.07-.18-.98-.37.07.18.98.18.98.38-.07zm-.37.07-.18-.98-.63.07.06 1 .06 1q.44-.03.87-.1zm-.75.1-.06-1-.38.02.06 1 .06 1 .38-.03zm-.38.01-.06-1-.37.03.06 1 .06 1 .37-.03zm-.37.03-.06-1q-.23.01-.47-.04l-.22.97-.22.98q.5.11 1.03.08zm-.75-.07.22-.97-.37-.09-.23.98-.22.97.38.09zm-.38-.08.23-.98-.38-.08-.22.97-.22.98.37.08zm-.37-.09.22-.97a2 2 0 0 0-1.45.22l.48.87.48.88.05-.02zm-.75.12-.48-.87-.38.2.48.88.49.88.37-.21zm-.38.21-.48-.87-.37.2.48.88.48.87.38-.2zm-.37.2-.48-.87c-.1.06-.15.05-.17.05l-.1 1-.1 1q.72.05 1.33-.3zm-.75.18.1-1-.38-.04-.1 1-.1 1 .37.03zm-.38-.04.1-1-.37-.04-.1 1-.1 1 .37.03zm-.38-.04.1-1q-.45-.05-.9-.02l.04 1 .04 1q.32-.01.62.01zm-.76-.02-.05-1-.39.01.04 1 .04 1 .4-.02zm-.4.01-.04-1-.4.02.05 1 .04 1 .4-.02zm-.39.02-.04-1q-.23 0-.44-.06l-.29.96-.3.95q.55.16 1.11.15zm-.77-.1.3-.96-.38-.11-.3.95-.3.96.39.11zm-.38-.12.3-.95-.38-.12-.3.96-.29.95.38.12zm-.37-.11.29-.96-.04-.05-.86.52-.85.52q.4.68 1.16.92zm-.6-.49.85-.52-.23-.37-.85.53-.85.52.22.36zm-.23-.36.85-.53-.22-.36-.85.52-.86.52.23.37zm-.22-.37.85-.52q-.32-.55-.87-.9l-.52.86-.52.86q.08.03.2.22zm-.54-.56.52-.85-.31-.2-.52.86-.52.86.31.19zm-.31-.19.52-.85-.32-.2-.52.86-.52.86.32.19zm-.32-.19.52-.85-.7-.41-.49.87-.48.88.63.37zm-.67-.39.48-.87-.36-.2-.48.87-.48.88.36.2zm-.36-.2.48-.87-.36-.2-.48.88-.48.87.36.2zm-.36-.2.48-.87.04.04.02.04v.01l-.98.2-.98.18c.1.56.44 1 .94 1.28zm-.44-.59.99-.19-.08-.4-.98.2-.99.18.08.4zm-.07-.4.98-.18-.08-.4-.98.19-.98.19.07.4zm-.08-.4.98-.18a3 3 0 0 0-.41-1.07l-.85.53-.85.52q.1.18.15.4zm-.28-.72.85-.53-.21-.34-.85.53-.85.53.2.33zm-.21-.34.85-.53-.2-.33-.86.53-.85.52.21.34zm-.2-.33.84-.53v.01l.02.04v.04l-.96-.3-.96-.28q-.24.81.2 1.54zm-.1-.73.96.29.12-.4-.96-.28-.96-.3-.12.4zm.12-.4.96.3.11-.4-.95-.29-.96-.28-.12.39zm.12-.39.95.3q.24-.83-.17-1.55l-.87.49-.88.49.01.01v-.02zm-.1-.76.88-.5-.21-.36-.87.48-.88.5.21.37zm-.2-.38.87-.48-.21-.38-.87.5-.87.48.2.37zm-.21-.37.87-.49q.02 0 .02.13v.08l-.02.03-.87-.5-.86-.5a1.7 1.7 0 0 0-.01 1.74zm0-.75.87.5.22-.37-.87-.5-.87-.5-.21.37zm.22-.37.87.5.21-.38-.86-.5-.87-.5-.22.38zm.22-.38.86.5c.3-.52.34-1.12.07-1.68l-.9.43-.9.44q-.01-.02-.02-.11.02-.1.02-.08zm.03-.75.9-.43-.18-.38-.9.44-.9.43.18.38zm-.18-.37.9-.44-.18-.37-.9.43-.9.44.18.37zm-.18-.38.9-.43-.01-.03v-.01l-.96-.28-.96-.28q-.21.77.13 1.47zm-.07-.75.96.28.1-.37-.95-.28-.96-.28-.11.37zm.1-.37.97.28.1-.38-.95-.28-.96-.28-.11.38zm.12-.38.96.28q.12-.41.2-.83l-.98-.2-.98-.2q-.06.34-.16.67zm.18-.75.98.2.08-.37-.98-.2-.98-.2-.08.37zm.08-.37.98.2.07-.38-.98-.2-.98-.2-.07.38zm.07-.38.98.2q.13-.77-.23-1.43l-.88.48-.87.48.02.07zm-.13-.75.88-.48-.2-.37-.88.48-.88.48.2.37zm-.2-.37.88-.48-.2-.38-.89.48-.87.48.2.38zm-.2-.38.87-.48.02.08q-.01.1-.02.1l-.9-.44-.9-.45c-.27.55-.24 1.15.05 1.67zm-.03-.74.9.45.18-.37-.9-.45-.89-.45-.18.37zm.19-.37.9.45.18-.37-.9-.45-.9-.44-.18.36zm.18-.37.9.45q.23-.44.35-.92l-.97-.25-.97-.25q-.05.24-.2.53zm.28-.72.97.25.09-.36-.97-.24-.97-.25-.1.35zm.09-.35.97.24.09-.35-.97-.25-.97-.25-.1.36zm.09-.36.97.25q.06-.26.18-.48l-.9-.45-.88-.46q-.22.42-.34.9zm.26-.68.89.45.16-.32-.89-.46-.89-.46-.16.33zm.16-.33.9.46.16-.33-.89-.46-.89-.45-.17.32zm.17-.33.89.46q.24-.48.34-1.03l-.99-.17-.98-.18q-.06.3-.15.47zm.24-.74.99.17.07-.41-.98-.18-.99-.18-.07.42zm.08-.42.98.18.08-.42-.99-.18-.98-.18-.08.42zm.07-.42.99.18q0-.02-.01.01l-.04.04-.51-.86-.51-.86q-.75.47-.9 1.31zm.43-.62.5.86.35-.2-.5-.87-.51-.86-.35.2zm.34-.2.51.85.35-.2-.51-.86-.5-.86-.35.2zm.35-.21.5.86.69-.4-.51-.86-.51-.86-.68.4zm.68-.4.5.86.34-.2-.51-.86-.51-.86-.33.2zm.33-.2.5.86.34-.2-.51-.85-.51-.86-.33.2zm.33-.2.5.87q.27-.16.55-.27l-.37-.93-.37-.93q-.42.18-.82.4zm.68-.33.37.93.36-.14-.37-.93-.37-.93-.36.14zm.36-.14.37.93.35-.14-.37-.93-.37-.93-.35.14zm.35-.14.37.93q.05-.03.14 0l.24-.98.23-.97a2.2 2.2 0 0 0-1.35.09zm.75-.05-.24.97.4.1.23-.97.23-.98-.39-.1zm.39.1-.24.97.4.1.23-.98.23-.97-.39-.1zm.39.09-.24.97c.26.06.57.09.9-.02s.59-.34.76-.6l-.85-.54-.84-.53a.6.6 0 0 1 .3-.23c.13-.04.21-.02.2-.02zm.57-.19.85.54.18-.29-.85-.53-.84-.54-.18.29zm.18-.28.85.53.18-.28-.85-.54-.84-.53-.18.28zm.18-.29.85.54.02-.04-.03.03-.1.1a.98.98 0 0 1-1.53-.56l-.03-.2h2q0-.1-.03-.26c-.02-.1-.09-.33-.3-.53a1 1 0 0 0-1.31-.05q-.2.16-.25.25l-.13.19zm.18-.13h-1v.15h2v-.15zm0 .15h-1v.15h2v-.15zm0 .15h-1c0 .55.37.86.58.99.21.12.44.18.6.21l.2-.98.19-.98c-.09-.02-.05-.02.03.03q.09.05.24.21.16.22.16.52zm.38.22-.2.98.38.07.19-.98.2-.98-.38-.07z"/><path stroke="#000" stroke-linecap="round" stroke-width="2" d="M21 66.8c1.06 2.94 4.26 4.94 5.23 3.25 1.62-2.86 5.2-14.66 5.77-16.38"/><path fill="#fff" d="M14 57.67a8 8 0 0 1 8-8h9a8 8 0 0 1 8 8v9a8 8 0 0 1-8 8h-9a8 8 0 0 1-8-8z"/><path fill="#000" d="m23.13 49.89-.2.98zm2.25.26.03 1zm.75-.02.03 1zm.75-.23.5.87zm.75-.43-.5-.86zm2.62-.04-.29.96zm.38.11.28-.95zm1.44.47.31-.95zm2.32.03-.8.58zm.25.35-.8.58zm.26.35.8-.59zm.56.54.52-.86zm.32.19-.51.86zm1 .57-.47.89zm.36.2.47-.89zm.37.19-.47.88zm.47.58-.96.28zm.12.39.96-.28zm.25 1.15 1-.07zm.05.77-1 .07zm.06.74 1-.07zm.05.71-1 .08zm.03.73 1-.03zm.02.73-1 .03zm.21.74.89-.46zm.39.75-.89.47zm.12.75.98.2zm-.08.38-.98-.2zm-.07.37.98.2zm.05.75-.95.33zm.25.75.95-.32zm-.13.75.82.58zm-.27.38-.81-.58zm-.28 2.63.92-.37zm.3.77-.92.37zm0 .73-.91-.4zm-.16.36.92.4zm-.15.35-.92-.4zm-.36.67.84.54zm-.2.31-.84-.54zm-.2.32-.84-.54zm-.4.6-.83-.55zm-.4.6-.83-.55zm-.43.58-.77-.64zm-.47.56-.76-.65zm-.44.66.89.46zm-.2.38-.88-.47zm-.2.38.89.47zm-.98.56-.22-.98zm-.4.08.22.98zm-.79.03-.14 1zm-.79-.11.14-.99zm-.76.12-.43-.9zm-.72.34.43.9zm-.74-.04-.5.86zm-.75-.43.5-.87zm-.75-.15.18.98zm-.38.07.19.98zm-.37.07-.18-.98zm-.75.1.06.99zm-.75.04-.06-1zm-.75-.07.22-.97zM25 74.2l-.22.98zm-.75.12-.48-.87zm-.38.21.49.88zm-.37.2.48.88zm-.75.18-.1 1zm-.38-.04-.1 1zm-.38-.04.1-1zm-.76-.02.04 1zm-.79.03.04 1zm-.77-.1-.3.95zm-.38-.12-.3.96zm-.37-.11.29-.96zm-.6-.49.85-.52zm-.23-.36.85-.53zm-.22-.37-.86.52zm-.54-.56.52-.85zm-.31-.19-.52.86zm-.32-.19.52-.85zm-.67-.39-.48.88zm-1.16-.99.99-.19zm-.15-.8-.98.2zm-.28-.72-.85.52zm-.42-.67.85-.53zm.03-1.12.96.28zm.12-.4-.96-.28zm-.1-.76.88-.5zm-.41-.75.87-.49zm0-.75-.86-.5zm.44-.75-.87-.5zm.03-.75.9-.43zm-.36-.75-.9.44zm-.08-5.24-.9-.45zm.19-.37.9.45zm.9-2.48.89.45zm.57-1.4.99.17zm.15-.84-.98-.18zm1.12-1.03-.5-.86zm.68-.4-.51-.86zm1.34-.73-.37-.93zm1.46-.33-.24.97zm.78.19-.24.97zm.57-.19.85.54zm.36-.57-.84-.53zm.55.39-.19.98zm.38.07-.2.98.38.08.2-.98.19-.98-.38-.08zm.38.08-.2.98q.4.08.8.13l.14-.99.14-.99-.7-.11zm.75.12-.14 1 .37.04.14-.99.14-.99-.38-.05zm.37.05-.14 1 .38.05.14-1 .13-.99-.37-.05zm.38.05-.14 1q.45.06.92.04l-.04-1-.03-1q-.28.02-.58-.03zm.75.04.03 1h.37l-.03-1-.03-1h-.38zm.37 0 .03 1 .38-.02-.04-1-.03-1-.37.01zm.38-.02.03 1q.65-.03 1.21-.36l-.5-.87-.5-.86a1 1 0 0 1-.28.1zm.75-.23.5.87.37-.21-.5-.87-.5-.87-.37.22zm.37-.21.5.87.37-.22-.5-.87-.5-.86-.37.21zm.38-.22.5.87a1 1 0 0 1 .28-.1l-.04-1-.03-1a2.6 2.6 0 0 0-1.21.37zm.75-.22.03 1 .37-.02-.03-1-.03-1-.38.02zm.37-.02.03 1h.38l-.04-1-.03-1h-.37zm.38 0 .03 1q.2-.02.43.05l.29-.96.28-.96q-.52-.15-1.07-.14zm.75.1-.3.95.38.11.29-.96.29-.96-.38-.1zm.37.1-.29.96.38.11.29-.96.28-.95-.37-.12zm.38.11-.3.96.72.22.3-.95.32-.95-.76-.23zm.73.23-.31.95.36.12.3-.95.32-.95-.36-.12zm.36.12-.31.95.35.12.31-.95.31-.95-.35-.12zm.35.12-.3.95q.67.2 1.34.02l-.25-.97-.25-.96q-.19.04-.23 0zm.79 0 .25.97.42-.1-.24-.98-.25-.96-.43.1zm.43-.1.24.96.43-.1-.25-.97-.24-.97-.43.1zm.42-.11.25.96q-.01.02-.2-.02a.4.4 0 0 1-.18-.12l.81-.58.82-.59a1.6 1.6 0 0 0-.78-.6q-.52-.15-.96-.02zm.68.24-.8.58.24.35.81-.58.82-.59-.25-.35zm.25.35-.8.58.24.35.82-.58.8-.59-.24-.35zm.26.35-.82.58q.35.5.87.81l.51-.85.52-.86a1 1 0 0 1-.27-.27zm.56.54-.51.85.32.2.51-.86.52-.86-.32-.19zm.32.19-.51.86.31.19.52-.86.52-.86-.32-.19zm.32.2-.52.85q.34.2.73.4l.47-.88.47-.88-.63-.36zm.68.37-.47.89.37.2.46-.9.47-.88-.36-.19zm.36.2-.46.88.36.2.47-.89.46-.88-.36-.2zm.37.19-.47.88-.02-.02.96-.28.96-.28q-.24-.8-.97-1.18zm.47.58-.96.28.11.38.97-.27.96-.28-.12-.4zm.12.39-.97.27.12.4.96-.29.96-.28-.11-.38zm.1.38-.95.28q.08.3.1.56l1-.07 1-.07a5 5 0 0 0-.18-.98zm.15.77-1 .07.03.39 1-.07 1-.08-.03-.38zm.03.39-1 .07.03.38 1-.07.99-.07-.03-.39zm.02.38-1 .07.06.74 1-.07 1-.07-.06-.74zm.06.74-1 .07.02.36 1-.07 1-.08-.03-.35zm.02.36-1 .07.03.36 1-.08 1-.07-.03-.36zm.03.35-1 .08q.03.33.03.68l1-.03 1-.03q0-.4-.03-.77zm.03.73-1 .03.01.36 1-.02 1-.03v-.37zm.01.37-1 .02.01.37 1-.03 1-.03v-.36zm.01.36-1 .03q.03.63.32 1.18l.89-.47.89-.46a1 1 0 0 1-.1-.3zm.21.74-.89.47.2.37.88-.46.9-.46-.2-.38zm.2.38-.9.46.2.38.89-.47.89-.46-.2-.37zm.19.37-.89.47.03.07v.02l.98.2.98.2q.13-.76-.21-1.42zm.12.75-.98-.2-.08.38.98.2.98.2.08-.38zm-.08.38-.98-.2-.07.38.98.2.98.2.07-.38zm-.07.37-.98-.2q-.14.66.08 1.28l.95-.33.94-.32a.4.4 0 0 1-.01-.23zm.05.75-.95.33.13.37.95-.32.94-.32-.13-.38zm.13.38-.95.32.13.38.94-.33.95-.32-.13-.37zm.12.37-.94.33-.01-.06v-.07q.02-.06 0-.02l.82.57.82.58a1.8 1.8 0 0 0 .26-1.65zm-.13.75-.82-.57-.26.37.81.58.82.58.27-.38zm-.27.38-.81-.58-.27.38.82.57.82.58.26-.37zm-.26.37-.82-.57c-.28.4-.45.86-.42 1.38l1-.06 1-.05v-.01q0-.03.06-.1zm-.24.75-1 .06.02.38 1-.06 1-.06-.03-.37zm.02.38-1 .06.02.37 1-.06 1-.05-.02-.38zm.02.37-1 .06q.03.56.25 1.08l.93-.38.92-.37a1 1 0 0 1-.1-.44zm.18.76-.93.38.15.38.93-.38.93-.37-.16-.38zm.15.38-.93.38.16.38.92-.37.93-.38-.15-.38zm.15.39-.92.37v.01-.05l.92.4.92.4q.31-.77.01-1.5zm0 .73-.91-.4-.16.35.91.4.92.41.16-.35zm-.16.36-.91-.4-.16.35.92.4.91.4.16-.35zm-.15.35-.92-.4q-.12.29-.28.53l.84.54.84.54q.24-.39.43-.8zm-.36.67-.84-.54-.2.31.84.54.84.54.2-.31zm-.2.31-.84-.54-.2.32.84.54.85.53.2-.31zm-.2.32-.84-.54-.39.6.83.55.83.55.42-.63zm-.4.6-.83-.55-.2.3.83.56.83.55.2-.3zm-.2.3-.83-.55-.2.3.83.56.83.55.2-.3zm-.2.3-.83-.55-.37.49.77.64.76.65q.27-.32.5-.67zm-.43.58-.77-.64-.23.28.76.64.77.65.23-.28zm-.24.28-.76-.64-.23.27.76.65.76.64.24-.27zm-.23.28-.76-.65q-.33.38-.56.84l.88.47.89.46q.16-.3.31-.48zm-.44.66-.88-.47-.2.38.88.47.89.46.2-.38zm-.2.38-.88-.47-.2.39.88.46.89.47.2-.39zm-.2.38-.88-.46.01-.02.06-.03.22.98.21.98c.58-.13 1-.49 1.27-.98zm-.6.47-.2-.98-.4.09.22.98.21.97.4-.08zm-.38.09-.22-.98-.4.09.22.97.22.98.4-.09zm-.4.08-.21-.97a1 1 0 0 1-.44.01l-.14 1-.14.98q.58.08 1.15-.04zm-.79.03.14-.99-.4-.05-.13.99-.15.99.4.05zm-.4-.05.15-1-.4-.05-.14.99-.14.99.4.06zm-.39-.06.14-.99a2.3 2.3 0 0 0-1.33.2l.43.9.43.9a.3.3 0 0 1 .19-.02zm-.76.12-.43-.9-.36.16.43.9.43.91.36-.17zm-.36.17-.43-.9-.36.17.43.9.43.9.36-.17zm-.36.17-.43-.9q.02-.03.12-.02l.07.01-.5.87-.5.86c.5.3 1.1.35 1.67.08zm-.74-.04.5-.87-.38-.22-.5.87-.5.87.38.21zm-.38-.22.5-.87-.37-.21-.5.87-.5.86.38.22zm-.37-.21.5-.87a2 2 0 0 0-1.43-.26l.18.98.18.98q0 0 .07.03zm-.75-.15-.18-.98-.38.07.18.98.19.98.37-.07zm-.38.07-.18-.98-.37.07.18.98.18.98.38-.07zm-.37.07-.18-.98-.63.07.06 1 .06 1q.44-.03.87-.1zm-.75.1-.06-1-.38.02.06 1 .06 1 .38-.03zm-.38.01-.06-1-.37.03.06 1 .06 1 .37-.03zm-.37.03-.06-1q-.23.01-.47-.04l-.22.97-.22.98q.5.11 1.03.08zm-.75-.07.22-.97-.37-.09-.23.98-.22.97.38.09zm-.38-.08.23-.98-.38-.08-.22.97-.22.98.37.08zm-.37-.09.22-.97a2 2 0 0 0-1.45.22l.48.87.48.88.05-.02zm-.75.12-.48-.87-.38.2.48.88.49.88.37-.21zm-.38.21-.48-.87-.37.2.48.88.48.87.38-.2zm-.37.2-.48-.87c-.1.06-.15.05-.17.05l-.1 1-.1 1q.72.05 1.33-.3zm-.75.18.1-1-.38-.04-.1 1-.1 1 .37.03zm-.38-.04.1-1-.37-.04-.1 1-.1 1 .37.03zm-.38-.04.1-1q-.45-.05-.9-.02l.04 1 .04 1q.32-.01.62.01zm-.76-.02-.05-1-.39.01.04 1 .04 1 .4-.02zm-.4.01-.04-1-.4.02.05 1 .04 1 .4-.02zm-.39.02-.04-1q-.23 0-.44-.06l-.29.96-.3.95q.55.16 1.11.15zm-.77-.1.3-.96-.38-.11-.3.95-.3.96.39.11zm-.38-.12.3-.95-.38-.12-.3.96-.29.95.38.12zm-.37-.11.29-.96-.04-.05-.86.52-.85.52q.4.68 1.16.92zm-.6-.49.85-.52-.23-.37-.85.53-.85.52.22.36zm-.23-.36.85-.53-.22-.36-.85.52-.86.52.23.37zm-.22-.37.85-.52q-.32-.55-.87-.9l-.52.86-.52.86q.08.03.2.22zm-.54-.56.52-.85-.31-.2-.52.86-.52.86.31.19zm-.31-.19.52-.85-.32-.2-.52.86-.52.86.32.19zm-.32-.19.52-.85-.7-.41-.49.87-.48.88.63.37zm-.67-.39.48-.87-.36-.2-.48.87-.48.88.36.2zm-.36-.2.48-.87-.36-.2-.48.88-.48.87.36.2zm-.36-.2.48-.87.04.04.02.04v.01l-.98.2-.98.18c.1.56.44 1 .94 1.28zm-.44-.59.99-.19-.08-.4-.98.2-.99.18.08.4zm-.07-.4.98-.18-.08-.4-.98.19-.98.19.07.4zm-.08-.4.98-.18a3 3 0 0 0-.41-1.07l-.85.53-.85.52q.1.18.15.4zm-.28-.72.85-.53-.21-.34-.85.53-.85.53.2.33zm-.21-.34.85-.53-.2-.33-.86.53-.85.52.21.34zm-.2-.33.84-.53v.01l.02.04v.04l-.96-.3-.96-.28q-.24.81.2 1.54zm-.1-.73.96.29.12-.4-.96-.28-.96-.3-.12.4zm.12-.4.96.3.11-.4-.95-.29-.96-.28-.12.39zm.12-.39.95.3q.24-.83-.17-1.55l-.87.49-.88.49.01.01v-.02zm-.1-.76.88-.5-.21-.36-.87.48-.88.5.21.37zm-.2-.38.87-.48-.21-.38-.87.5-.87.48.2.37zm-.21-.37.87-.49q.02 0 .02.13v.08l-.02.03-.87-.5-.86-.5a1.7 1.7 0 0 0-.01 1.74zm0-.75.87.5.22-.37-.87-.5-.87-.5-.21.37zm.22-.37.87.5.21-.38-.86-.5-.87-.5-.22.38zm.22-.38.86.5c.3-.52.34-1.12.07-1.68l-.9.43-.9.44q-.01-.02-.02-.11.02-.1.02-.08zm.03-.75.9-.43-.18-.38-.9.44-.9.43.18.38zm-.18-.37.9-.44-.18-.37-.9.43-.9.44.18.37zm-.18-.38.9-.43-.01-.03v-.01l-.96-.28-.96-.28q-.21.77.13 1.47zm-.07-.75.96.28.1-.37-.95-.28-.96-.28-.11.37zm.1-.37.97.28.1-.38-.95-.28-.96-.28-.11.38zm.12-.38.96.28q.12-.41.2-.83l-.98-.2-.98-.2q-.06.34-.16.67zm.18-.75.98.2.08-.37-.98-.2-.98-.2-.08.37zm.08-.37.98.2.07-.38-.98-.2-.98-.2-.07.38zm.07-.38.98.2q.13-.77-.23-1.43l-.88.48-.87.48.02.07zm-.13-.75.88-.48-.2-.37-.88.48-.88.48.2.37zm-.2-.37.88-.48-.2-.38-.89.48-.87.48.2.38zm-.2-.38.87-.48.02.08q-.01.1-.02.1l-.9-.44-.9-.45c-.27.55-.24 1.15.05 1.67zm-.03-.74.9.45.18-.37-.9-.45-.89-.45-.18.37zm.19-.37.9.45.18-.37-.9-.45-.9-.44-.18.36zm.18-.37.9.45q.23-.44.35-.92l-.97-.25-.97-.25q-.05.24-.2.53zm.28-.72.97.25.09-.36-.97-.24-.97-.25-.1.35zm.09-.35.97.24.09-.35-.97-.25-.97-.25-.1.36zm.09-.36.97.25q.06-.26.18-.48l-.9-.45-.88-.46q-.22.42-.34.9zm.26-.68.89.45.16-.32-.89-.46-.89-.46-.16.33zm.16-.33.9.46.16-.33-.89-.46-.89-.45-.17.32zm.17-.33.89.46q.24-.48.34-1.03l-.99-.17-.98-.18q-.06.3-.15.47zm.24-.74.99.17.07-.41-.98-.18-.99-.18-.07.42zm.08-.42.98.18.08-.42-.99-.18-.98-.18-.08.42zm.07-.42.99.18q0-.02-.01.01l-.04.04-.51-.86-.51-.86q-.75.47-.9 1.31zm.43-.62.5.86.35-.2-.5-.87-.51-.86-.35.2zm.34-.2.51.85.35-.2-.51-.86-.5-.86-.35.2zm.35-.21.5.86.69-.4-.51-.86-.51-.86-.68.4zm.68-.4.5.86.34-.2-.51-.86-.51-.86-.33.2zm.33-.2.5.86.34-.2-.51-.85-.51-.86-.33.2zm.33-.2.5.87q.27-.16.55-.27l-.37-.93-.37-.93q-.42.18-.82.4zm.68-.33.37.93.36-.14-.37-.93-.37-.93-.36.14zm.36-.14.37.93.35-.14-.37-.93-.37-.93-.35.14zm.35-.14.37.93q.05-.03.14 0l.24-.98.23-.97a2.2 2.2 0 0 0-1.35.09zm.75-.05-.24.97.4.1.23-.97.23-.98-.39-.1zm.39.1-.24.97.4.1.23-.98.23-.97-.39-.1zm.39.09-.24.97c.26.06.57.09.9-.02s.59-.34.76-.6l-.85-.54-.84-.53a.6.6 0 0 1 .3-.23c.13-.04.21-.02.2-.02zm.57-.19.85.54.18-.29-.85-.53-.84-.54-.18.29zm.18-.28.85.53.18-.28-.85-.54-.84-.53-.18.28zm.18-.29.85.54.02-.04-.03.03-.1.1a.98.98 0 0 1-1.53-.56l-.03-.2h2q0-.1-.03-.26c-.02-.1-.09-.33-.3-.53a1 1 0 0 0-1.31-.05q-.2.16-.25.25l-.13.19zm.18-.13h-1v.15h2v-.15zm0 .15h-1v.15h2v-.15zm0 .15h-1c0 .55.37.86.58.99.21.12.44.18.6.21l.2-.98.19-.98c-.09-.02-.05-.02.03.03q.09.05.24.21.16.22.16.52zm.38.22-.2.98.38.07.19-.98.2-.98-.38-.07z"/></g><rect width="131.5" height="97.5" x="1.25" y="1.25" stroke="#000" stroke-width="2.5" rx="13.75"/><defs><clipPath id="a"><rect width="134" height="100" fill="#fff" rx="15"/></clipPath></defs></svg>