<svg xmlns="http://www.w3.org/2000/svg" width="134" height="100" fill="none" viewBox="0 0 134 100"><g clip-path="url(#a)"><rect width="134" height="100" fill="#eee" rx="15"/><mask id="b" width="57" height="23" x="12" y="17" fill="#000" maskUnits="userSpaceOnUse"><path fill="#fff" d="M12 17h57v23H12z"/><path d="M20.2 37.45q-1.5 0-2.86-.53-.4.4-.97.4-.58 0-1-.38-.4-.39-.4-.97 0-.25.03-.79l.03-.79V22.22q0-.78.35-1.38.42-.75 1.22-.76 1.15 0 1.15 1.25l-.04.45q-.04.3-.04.44v4.11a8 8 0 0 1 1.53-.65q.74-.23 1.4-.23a5.1 5.1 0 0 1 4.09 1.84 6.3 6.3 0 0 1 1.45 4.17q0 2.5-1.69 4.22a5.7 5.7 0 0 1-4.25 1.77m.4-9.25q-.56 0-1.28.32-.73.33-1.65.97v4.57a7 7 0 0 0 2.53.63q1.36 0 2.24-.91.89-.93.88-2.32 0-1.4-.72-2.31a2.4 2.4 0 0 0-2-.95m16.83 9.5q-.5 0-1.57-1.07-.99.48-1.74.71-.75.25-1.28.25-2.58 0-3.89-1.38-1.29-1.4-1.29-4.15 0-2.59 1.92-4.43a6.4 6.4 0 0 1 4.57-1.84q1.02 0 2.37.58 1.62.69 1.62 1.62 0 .39-.25.67-.1.44-.17 1.09-.05.64-.05 1.51 0 2.06.29 2.96l.49 1.12q.42.91.42 1.05 0 .58-.44.94-.43.38-1 .38m-2.67-7.36a8 8 0 0 1 .2-1.78 2 2 0 0 0-.67-.2q-1.45 0-2.55 1.14a3.7 3.7 0 0 0-1.1 2.64q0 1.45.52 2.17.5.72 1.54.72a3.7 3.7 0 0 0 2.39-.87q-.33-2.56-.33-3.82m14.62-1.09q-.1 1.65-1.49 1.65-1.35 0-1.35-1.4l-.06-1.08a4.4 4.4 0 0 0-3.45 2.48v5.4q0 .62-.41 1.01-.42.4-1.07.41t-1.03-.43a1.4 1.4 0 0 1-.34-.99v-7.03q0-.34.02-1l.02-1q0-.6.36-1t1.03-.4q1.2 0 1.42 1.23a7 7 0 0 1 4.22-1.42q2.15 0 2.15 2.86 0 .54-.02.71m10.6 8.19q-.84 0-1.28-.82-.53-.98-1.58-2.3l-1.73-2.2q-.86.62-1.42.96-.1 1.5-.1 2.86 0 .62-.42 1.03-.42.4-1.07.4-1.5 0-1.51-1.8 0-.85.12-2.53.12-1.7.12-2.55 0-1.55.05-3.56t.05-3.54q0-.46-.05-1.09-.05-.62-.05-1.1 0-.61.42-1.01t1.07-.41 1.06.4.42 1.03q0 .47.05 1.12.06.64.06 1.11 0 1.29-.07 3.03a65 65 0 0 0-.05 2.99q1.45-1.13 4.45-4.1a1.5 1.5 0 0 1 2.13-.04q.47.45.47 1.02 0 .5-.42.96a36 36 0 0 1-3.02 2.96l2.23 2.88q1.62 2.16 1.62 2.88 0 .6-.47 1-.47.42-1.07.42m5.3-13.35a1.7 1.7 0 0 1-1.19-.46q-.5-.47-.5-1.13 0-.67.5-1.13t1.2-.46 1.17.46q.51.45.51 1.13 0 .66-.5 1.13t-1.19.46m.92 7.87q0 .62.03 1.97.04 1.36.04 1.96 0 .63-.42 1.03t-1.06.4-1.06-.4a1.4 1.4 0 0 1-.42-1.03q0-.6-.05-1.96l-.03-1.97q0-.95.1-2.4.12-1.43.12-2.39 0-.61.42-1.02.41-.4 1.06-.4.64 0 1.06.4t.42 1.02q0 .96-.1 2.4-.11 1.43-.11 2.4"/></mask><path fill="#000" d="M20.2 37.45q-1.5 0-2.86-.53-.4.4-.97.4-.58 0-1-.38-.4-.39-.4-.97 0-.25.03-.79l.03-.79V22.22q0-.78.35-1.38.42-.75 1.22-.76 1.15 0 1.15 1.25l-.04.45q-.04.3-.04.44v4.11a8 8 0 0 1 1.53-.65q.74-.23 1.4-.23a5.1 5.1 0 0 1 4.09 1.84 6.3 6.3 0 0 1 1.45 4.17q0 2.5-1.69 4.22a5.7 5.7 0 0 1-4.25 1.77m.4-9.25q-.56 0-1.28.32-.73.33-1.65.97v4.57a7 7 0 0 0 2.53.63q1.36 0 2.24-.91.89-.93.88-2.32 0-1.4-.72-2.31a2.4 2.4 0 0 0-2-.95m16.83 9.5q-.5 0-1.57-1.07-.99.48-1.74.71-.75.25-1.28.25-2.58 0-3.89-1.38-1.29-1.4-1.29-4.15 0-2.59 1.92-4.43a6.4 6.4 0 0 1 4.57-1.84q1.02 0 2.37.58 1.62.69 1.62 1.62 0 .39-.25.67-.1.44-.17 1.09-.05.64-.05 1.51 0 2.06.29 2.96l.49 1.12q.42.91.42 1.05 0 .58-.44.94-.43.38-1 .38m-2.67-7.36a8 8 0 0 1 .2-1.78 2 2 0 0 0-.67-.2q-1.45 0-2.55 1.14a3.7 3.7 0 0 0-1.1 2.64q0 1.45.52 2.17.5.72 1.54.72a3.7 3.7 0 0 0 2.39-.87q-.33-2.56-.33-3.82m14.62-1.09q-.1 1.65-1.49 1.65-1.35 0-1.35-1.4l-.06-1.08a4.4 4.4 0 0 0-3.45 2.48v5.4q0 .62-.41 1.01-.42.4-1.07.41t-1.03-.43a1.4 1.4 0 0 1-.34-.99v-7.03q0-.34.02-1l.02-1q0-.6.36-1t1.03-.4q1.2 0 1.42 1.23a7 7 0 0 1 4.22-1.42q2.15 0 2.15 2.86 0 .54-.02.71m10.6 8.19q-.84 0-1.28-.82-.53-.98-1.58-2.3l-1.73-2.2q-.86.62-1.42.96-.1 1.5-.1 2.86 0 .62-.42 1.03-.42.4-1.07.4-1.5 0-1.51-1.8 0-.85.12-2.53.12-1.7.12-2.55 0-1.55.05-3.56t.05-3.54q0-.46-.05-1.09-.05-.62-.05-1.1 0-.61.42-1.01t1.07-.41 1.06.4.42 1.03q0 .47.05 1.12.06.64.06 1.11 0 1.29-.07 3.03a65 65 0 0 0-.05 2.99q1.45-1.13 4.45-4.1a1.5 1.5 0 0 1 2.13-.04q.47.45.47 1.02 0 .5-.42.96a36 36 0 0 1-3.02 2.96l2.23 2.88q1.62 2.16 1.62 2.88 0 .6-.47 1-.47.42-1.07.42m5.3-13.35a1.7 1.7 0 0 1-1.19-.46q-.5-.47-.5-1.13 0-.67.5-1.13t1.2-.46 1.17.46q.51.45.51 1.13 0 .66-.5 1.13t-1.19.46m.92 7.87q0 .62.03 1.97.04 1.36.04 1.96 0 .63-.42 1.03t-1.06.4-1.06-.4a1.4 1.4 0 0 1-.42-1.03q0-.6-.05-1.96l-.03-1.97q0-.95.1-2.4.12-1.43.12-2.39 0-.61.42-1.02.41-.4 1.06-.4.64 0 1.06.4t.42 1.02q0 .96-.1 2.4-.11 1.43-.11 2.4"/><path fill="#e7e7e7" d="m17.34 36.92.73-1.86-1.22-.47-.92.92zm-1.96.02L14 38.39l.02.02zM15 35.18l2 .13zm.38-14.34 1.73 1v-.01zm2.33.94-1.99-.28v.07zm-.04 4.55h-2v3.4l2.97-1.65zm1.53-.65.56 1.92h.02v-.01zm5.49 1.6L26.22 26zm-.24 8.4-1.43-1.4zm-5.13-7.16-.81-1.83zm-1.65.97-1.15-1.63-.84.59v1.02zm0 4.57h-2v1.31l1.21.52zm4.77-.28 1.44 1.39.01-.01zm.16-4.63 1.58-1.24h-.01zm-2.4 8.3v-2q-1.15 0-2.13-.39l-.73 1.86-.72 1.87q1.72.66 3.58.66zm-2.86-.53-1.41-1.4q.05-.08.21-.15.16-.05.23-.05v4c.9 0 1.74-.34 2.38-.98zm-.97.4v-2q.06-.01.19.04.12.06.17.1l-1.36 1.48-1.35 1.47c.65.6 1.47.91 2.35.91zm-1-.38 1.38-1.46a.7.7 0 0 1 .22.49h-4c0 .92.34 1.77 1.03 2.42zm-.4-.97h2q0-.15.03-.66l-2-.13-2-.12-.03.9zm.03-.79 2 .12.03-.91h-4q0 .15-.03.67zm.03-.79h2V22.22h-4v12.17zm0-12.17h2q.01-.3.08-.38l-1.73-1-1.74-.99q-.61 1.13-.6 2.37zm.35-1.38 1.74.99c.01-.03-.03.06-.17.14a1 1 0 0 1-.35.11v-4c-1.34 0-2.37.72-2.97 1.78zm1.22-.76v2c.03 0-.3 0-.6-.33-.29-.3-.25-.57-.25-.42h4c0-.69-.16-1.58-.82-2.3a3 3 0 0 0-2.33-.95zm1.15 1.25h-2v-.04.03l-.03.18 1.99.28 1.98.27c.03-.21.06-.48.06-.72zm-.04.45-2-.21q-.03.32-.04.65h4v-.04l.02-.19zm-.04.44h-2v4.11h4v-4.11zm0 4.11.97 1.75q.64-.34 1.12-.48l-.56-1.92-.57-1.92q-.98.3-1.93.82zm1.53-.65.59 1.9q.48-.13.82-.13v-4q-1.02 0-2 .32zm1.4-.23v2a3.1 3.1 0 0 1 2.56 1.13l1.53-1.3L26.2 26a7.1 7.1 0 0 0-5.6-2.55zm4.09 1.84-1.53 1.29c.63.75.98 1.67.98 2.88h4c0-2.06-.62-3.92-1.92-5.46zm1.45 4.17h-2c0 1.16-.37 2.06-1.12 2.82l1.43 1.4 1.43 1.4a7.8 7.8 0 0 0 2.26-5.62zm-1.69 4.22-1.43-1.4a3.7 3.7 0 0 1-2.82 1.17v4c2.21 0 4.15-.8 5.69-2.38zm-3.84-7.48v-2c-.75 0-1.46.21-2.1.5l.8 1.82.81 1.83q.24-.1.37-.13l.12-.02zm-1.3.32-.8-1.83q-.97.44-1.99 1.17l1.15 1.63 1.16 1.64q.8-.57 1.3-.78zm-1.64.97-2-.02v4.6l2-.01h2V29.5zm0 4.57-.79 1.83c1.12.48 2.24.8 3.32.8v-4c-.33 0-.89-.1-1.74-.47zm2.53.63v2c1.4 0 2.69-.5 3.68-1.52l-1.44-1.4L21 32.4c-.18.19-.39.3-.8.3zm2.24-.91 1.45 1.38a5.2 5.2 0 0 0 1.43-3.7h-4c0 .47-.13.73-.32.94zm.88-2.32h2a5.6 5.6 0 0 0-1.14-3.55l-1.58 1.24-1.57 1.24c.15.18.3.5.3 1.07zm-.72-2.31 1.57-1.25a4.4 4.4 0 0 0-3.56-1.7v4c.24 0 .32.06.43.2zm13.26 7.48 1.41-1.4-1-1.01-1.27.61zm-1.74.71-.6-1.9h-.02zm-5.17-1.13-1.46 1.36zm.63-8.58 1.38 1.45zm6.94-1.26-.8 1.83zm1.37 2.3-1.52-1.3-.3.35-.12.46zm-.17 1.08-2-.2v.03zm.24 4.47-1.9.61v.02zm.49 1.12-1.82.82zm-.02 2-1.3-1.53-.01.01zm-3.62-7.78-1.99-.24v.04zm.15-1 1.97.34.26-1.46-1.34-.67zm-.39-.15-.63 1.9.07.02.08.02zm-2.83 1.1 1.44 1.38zm-.58 4.8-1.64 1.16zm2.8.5.68 1.89h.02zm1.13-.65 1.26 1.55.86-.7-.14-1.1zm2.34 3.55v-2c.27 0 .44.07.49.09q.08.04 0-.01a5 5 0 0 1-.65-.57l-1.41 1.41-1.41 1.42q.6.61 1.2 1.04c.34.23.98.62 1.78.62zm-1.57-1.08-.86-1.8q-.9.43-1.48.6l.6 1.91.6 1.91q.93-.3 2-.81zm-1.74.71-.62-1.9c-.4.13-.6.15-.66.15v4c.64 0 1.3-.15 1.9-.35zm-1.28.25v-2c-1.38 0-2.06-.36-2.43-.75l-1.46 1.37-1.46 1.36c1.37 1.46 3.28 2.02 5.35 2.02zm-3.89-1.38 1.47-1.37c-.39-.41-.76-1.22-.76-2.78h-4c0 2.12.5 4.07 1.83 5.5zm-1.29-4.15h2c0-1.17.4-2.13 1.3-2.98l-1.38-1.45-1.39-1.44a8 8 0 0 0-2.53 5.87zm1.92-4.43 1.39 1.44a4.4 4.4 0 0 1 3.18-1.28v-4c-2.3 0-4.32.81-5.96 2.4zm4.57-1.84v2c.32 0 .83.09 1.57.41l.8-1.83.79-1.84a8 8 0 0 0-3.16-.74zm2.37.58-.8 1.83a3 3 0 0 1 .6.33q-.01 0-.1-.14a1 1 0 0 1-.08-.4h4c0-1.96-1.7-2.97-2.83-3.46zm1.62 1.62h-2a1 1 0 0 1 .23-.62l1.52 1.3 1.52 1.3c.48-.57.73-1.26.73-1.98zm-.25.67-1.94-.48q-.15.62-.22 1.37l1.99.2 1.99.2q.06-.57.12-.8zm-.17 1.09-2-.17q-.05.76-.05 1.68h4q0-.81.04-1.34zm-.05 1.51h-2c0 1.4.09 2.65.38 3.57l1.9-.61 1.9-.61c-.08-.29-.19-1-.19-2.35zm.29 2.96-1.9.63.2.5.37.81 1.82-.82 1.82-.83-.45-1 .03.08zm.49 1.12-1.82.82.28.64.03.08-.05-.22-.02-.27h4c0-.38-.11-.7-.12-.73l-.13-.34q-.13-.34-.35-.81zm.42 1.05h-2q-.01-.13.08-.33a1 1 0 0 1 .18-.25l1.3 1.52 1.3 1.52a3.2 3.2 0 0 0 1.14-2.46zm-.44.94-1.32-1.5.15-.09.17-.03v4c.86 0 1.66-.3 2.31-.87zm-3.67-6.99h2q0-.22.04-.59l-2-.2-1.98-.19q-.06.51-.06.98zm.05-.78 1.98.23.14-.89-1.97-.34-1.97-.35q-.1.6-.17 1.1zm.15-1 .9-1.8a4 4 0 0 0-.8-.3l-.49 1.95-.48 1.94-.06-.02.03.02zm-.39-.15.63-1.9a3 3 0 0 0-.9-.16v4a1 1 0 0 1-.36-.05zm-.28-.06v-2c-1.57 0-2.93.65-4 1.77l1.45 1.38 1.44 1.38c.4-.4.74-.53 1.11-.53zm-2.55 1.15-1.45-1.38a5.7 5.7 0 0 0-1.65 4.02h4c0-.45.14-.84.54-1.25zm-1.1 2.64h-2c0 1.15.2 2.35.88 3.33l1.64-1.16 1.63-1.15q0 .03-.08-.22a4 4 0 0 1-.07-.8zm.52 2.17-1.63 1.17a3.8 3.8 0 0 0 3.17 1.55v-4q-.15-.02-.06.01a.4.4 0 0 1 .14.11zm1.54.72v2q1 0 1.94-.33l-.68-1.88-.68-1.88q-.25.1-.58.1zm1.26-.21.7 1.87a6 6 0 0 0 1.7-.98l-1.27-1.55-1.27-1.55a2 2 0 0 1-.56.34zm1.13-.66 1.98-.25q-.3-2.51-.3-3.57h-4q0 1.48.33 4.07zm14.3-4.9-2-.13zm-2.85.24h2v-.1zm-.06-1.08 2-.1-.1-2.23-2.21.35zm-3.45 2.48-1.8-.9-.2.43v.47zm0 5.4h2zm-.41 1.01-1.38-1.45v.01h-.02zm-2.1-.02 1.53-1.3-.02-.01-.01-.02zm-.32-9.01 2 .06zm.38-2-1.5-1.33zm2.45.82-1.97.36.58 3.16 2.58-1.92zm6.35 2.15-2-.11c-.01.3-.07.2.1 0q.15-.15.31-.21t.1-.03v4c.88 0 1.83-.27 2.55-1.07.68-.74.9-1.67.94-2.46zM47.9 30.9v-2c-.13 0 .14-.03.42.26.27.27.23.51.23.34h-4c0 .76.18 1.7.9 2.44.73.75 1.68.96 2.45.96zm-1.35-1.4 2-.1-.06-1.08-2 .1-2 .1.06 1.08zm-.06-1.08-.31-1.98a6.4 6.4 0 0 0-4.94 3.57l1.8.89 1.79.89c.39-.79.97-1.24 1.98-1.4zm-3.45 2.48h-2v5.4h4v-5.4zm0 5.4h-2q0-.05.05-.2a1 1 0 0 1 .16-.24l1.38 1.45 1.37 1.45a3.3 3.3 0 0 0 1.05-2.46zm-.41 1.01-1.4-1.43q.08-.08.2-.13.13-.04.13-.03v4c.9 0 1.77-.3 2.46-.98zm-1.07.41v-2q0-.01.18.05.19.08.32.22l-1.53 1.3-1.52 1.3c.7.81 1.64 1.13 2.55 1.13zm-1.03-.43 1.5-1.33q.09.1.13.23l.03.11h-4c0 .8.24 1.64.85 2.32zm-.34-.99h2v-7.03h-4v7.03zm0-7.03h2q0-.3.02-.93l-2-.06-2-.07-.02 1.06zm.02-1 2 .07.02-1.06h-4q0 .29-.02.93zm.02-1h2l-.02.13a1 1 0 0 1-.13.21l-1.5-1.33-1.49-1.33c-.6.68-.86 1.5-.86 2.33zm.36-1 1.49 1.34q-.15.16-.32.22-.16.05-.14.04v-4a3.3 3.3 0 0 0-2.52 1.08zm1.03-.4v2c.05 0-.14 0-.36-.18-.2-.18-.21-.34-.2-.23l1.98-.36 1.96-.37a3.5 3.5 0 0 0-1.12-2.07 3.4 3.4 0 0 0-2.26-.79zm1.42 1.23 1.2 1.6a5 5 0 0 1 3.02-1.02v-4a9 9 0 0 0-5.42 1.81zm4.22-1.42v2q.2.02.13 0l-.12-.09q0-.05.06.18.07.23.08.77h4a5.5 5.5 0 0 0-.94-3.35 3.9 3.9 0 0 0-3.21-1.51zm2.15 2.86h-2l-.01.54v.05l2 .12 2 .13v-.84zm9.3 8.08-1.76.95zm-1.58-2.3-1.57 1.23zm-1.73-2.2 1.6-1.2-1.2-1.6-1.59 1.18zm-1.42.96-1.02-1.72-.9.54-.07 1.04zM51 33.04l-2-.16v.02zm.17-6.1-2-.06v.01zm0-4.64-2 .14v.04zm.37-2.11 1.38 1.45v-.01h.02zm2.13 0-1.4 1.43.01.01h.01zm.46 6.28 2 .08zm-.05 2.99-2 .02.03 4.02 3.2-2.46zm4.45-4.1 1.4 1.41h.01zm2.13-.04-1.38 1.45zm.05 1.98-1.49-1.34zm-3.02 2.96-1.33-1.5-1.4 1.25 1.15 1.48zm2.23 2.88 1.6-1.2v-.01l-.02-.01zm1.15 3.88-1.3-1.51h-.02v.01zm-1.07.42v-2q.1-.01.32.1c.13.09.17.17.15.13l-1.76.95-1.76.95a3.36 3.36 0 0 0 3.05 1.87zm-1.3-.82 1.77-.94q-.65-1.2-1.77-2.6l-1.57 1.23-1.57 1.24q.98 1.26 1.39 2.02zm-1.57-2.3 1.57-1.24-1.67-2.13-.03-.04-1.6 1.2-1.6 1.2 1.76 2.24zm-1.73-2.2L54.2 30.5q-.82.6-1.25.86l1.02 1.72L55 34.8q.68-.41 1.58-1.08zm-1.42.96-2-.14a42 42 0 0 0-.1 3h4q0-1.3.1-2.72zm-.1 2.86h-2q-.01-.04.04-.19.07-.15.14-.21l1.4 1.43 1.4 1.43a3.4 3.4 0 0 0 1.01-2.46zm-.42 1.03-1.4-1.43q.08-.08.2-.13.12-.04.13-.03v4c.9 0 1.77-.3 2.46-.98zm-1.07.4v-2q-.08 0 .08.03.16.07.32.24c.09.1.1.19.1.18l-.01-.25h-4c0 .83.16 1.83.84 2.64a3.4 3.4 0 0 0 2.67 1.17zm-1.51-1.8h2q0-.74.11-2.4l-2-.13L49 32.9a41 41 0 0 0-.12 2.67zm.12-2.53 1.99.15q.13-1.72.13-2.7h-4q0 .72-.12 2.4zm.12-2.55h2q0-1.54.05-3.51l-2-.05-2-.04-.05 3.6zm.05-3.56 2 .06q.05-2.03.05-3.6h-4q0 1.5-.05 3.5zm.05-3.54h2q0-.57-.06-1.26l-2 .17-1.99.18q.05.56.05.91zm-.05-1.09 2-.13q-.05-.6-.05-.96h-4q0 .55.05 1.23zm-.05-1.1h2q.01.05-.04.2a1 1 0 0 1-.16.24l-1.38-1.45-1.37-1.45a3.3 3.3 0 0 0-1.05 2.47zm.42-1.01 1.4 1.43a1 1 0 0 1-.2.13q-.13.04-.13.03v-4c-.9 0-1.77.3-2.46.98zm1.07-.41v2q0 0-.13-.03a1 1 0 0 1-.2-.13l1.39-1.43 1.4-1.43a3.5 3.5 0 0 0-2.46-.98zm1.06.4-1.38 1.46a.7.7 0 0 1-.2-.43h4c0-.92-.33-1.8-1.04-2.47zm.42 1.03h-2q0 .59.06 1.28l2-.16 1.99-.17q-.05-.59-.05-.95zm.05 1.12-1.99.16q.05.6.05.95h4q0-.57-.06-1.28zm.06 1.11h-2q0 1.22-.07 2.96l2 .07 2 .08q.07-1.78.07-3.1zm-.07 3.03-2-.07a67 67 0 0 0-.05 3.08l2-.02 2-.02q-.01-1.25.05-2.9zm-.05 2.99 1.22 1.58a56 56 0 0 0 4.64-4.27l-1.41-1.41-1.42-1.42a53 53 0 0 1-4.25 3.94zm4.45-4.1 1.41 1.41q0 0-.1.06a1 1 0 0 1-.24.05v-4c-1 0-1.84.42-2.49 1.06zm1.07-.48v2a.5.5 0 0 1-.32-.1l1.38-1.46 1.38-1.44a3.5 3.5 0 0 0-2.44-1zm1.06.44-1.38 1.45-.1-.15a1 1 0 0 1-.05-.28h4c0-.99-.43-1.84-1.09-2.46zm.47 1.02h-2a1 1 0 0 1 .06-.31q.06-.12.03-.07l1.49 1.34 1.48 1.34a3.4 3.4 0 0 0 .94-2.3zm-.42.96-1.5-1.33q-1.17 1.3-2.85 2.8l1.33 1.5 1.32 1.5a38 38 0 0 0 3.19-3.14zm-3.02 2.96L56.1 31.5l2.23 2.88 1.58-1.23 1.58-1.22-2.23-2.88zm2.23 2.88-1.6 1.2a15 15 0 0 1 1.25 1.94c.03.07-.03-.04-.03-.26h4c0-.8-.39-1.57-.66-2.06q-.5-.89-1.36-2.02zm1.62 2.88h-2a.8.8 0 0 1 .22-.51l1.31 1.51 1.3 1.52a3.3 3.3 0 0 0 1.17-2.52zm-.47 1-1.33-1.5.1-.05.16-.03v4c.91 0 1.74-.34 2.4-.92zm5.4-15.65-1.36 1.46.01.02zm0 2.26-1.35-1.48-.01.01zm-.23 10.3-2 .05V34zm-.38 3 1.38 1.45v-.01l.02-.01zm-2.12 0-1.4 1.43.02.02zm-.47-3-2 .05V34zm.6-7.78 1.38 1.45h.01l.01-.02zm2.13 0-1.4 1.43.02.01v.01zm-.7-2.06v-2l.07.02q.05 0 .06.03l.02.01-1.35 1.48-1.35 1.47c.7.65 1.59.99 2.54.99zm-1.2-.46 1.35-1.48q.03.02.1.15.05.13.05.2h-4c0 1.02.41 1.93 1.15 2.6zm-.5-1.13h2q0 .06-.05.2l-.1.15-1.35-1.48-1.35-1.48a3.5 3.5 0 0 0-1.15 2.6zm.5-1.13 1.35 1.48-.02.01-.06.03-.08.02v-4a3.7 3.7 0 0 0-2.54.98zm1.2-.46v2l-.1-.02-.1-.06 1.37-1.46 1.37-1.46c-.7-.66-1.6-1-2.55-1zm1.17.46-1.35 1.48-.1-.15a1 1 0 0 1-.04-.2h4c0-1.02-.42-1.93-1.16-2.6zm.51 1.13h-2q-.01-.07.05-.2l.1-.15 1.34 1.48 1.35 1.47a3.5 3.5 0 0 0 1.16-2.6zm-.5 1.13-1.37-1.47.1-.05.08-.02v4c.96 0 1.84-.34 2.55-1zm-.27 8.33h-2q0 .66.03 2.02l2-.05 2-.05-.03-1.92zm.03 1.97-2 .06q.04 1.35.04 1.9h4q0-.66-.04-2.03zm.04 1.96h-2q-.01-.04.04-.18.07-.15.15-.22l1.4 1.43 1.39 1.44a3.4 3.4 0 0 0 1.02-2.47zm-.42 1.03-1.37-1.45a1 1 0 0 1 .2-.12l.1-.03v4c.89 0 1.75-.28 2.45-.94zm-1.06.4v-2q0 0 .11.03a1 1 0 0 1 .2.12l-1.37 1.45-1.38 1.46c.7.66 1.56.94 2.44.94zm-1.06-.4 1.4-1.43a.7.7 0 0 1 .18.4h-4c0 .92.33 1.8 1.02 2.47zm-.42-1.03h2q0-.66-.05-2.03l-2 .07-2 .06.05 1.9zm-.05-1.96 2-.05-.03-1.92h-4l.03 2.02zm-.03-1.97h2q0-.85.1-2.24l-2-.15-1.99-.15q-.1 1.48-.1 2.54zm.1-2.4 2 .16q.12-1.5.12-2.55h-4q0 .86-.1 2.25zm.12-2.39h2q.01.04-.05.2a1 1 0 0 1-.16.23l-1.37-1.45-1.38-1.45a3.3 3.3 0 0 0-1.04 2.47zm.42-1.02 1.4 1.43a1 1 0 0 1-.21.13q-.12.04-.13.03v-4c-.9 0-1.77.3-2.46.98zm1.06-.4v2q0 .01-.13-.04a1 1 0 0 1-.2-.13l1.4-1.43 1.39-1.43a3.5 3.5 0 0 0-2.46-.98zm1.06.4-1.37 1.45a.7.7 0 0 1-.2-.43h4c0-.91-.34-1.8-1.05-2.47zm.42 1.02h-2q0 .86-.1 2.25l2 .15 1.99.15q.1-1.5.11-2.55zm-.1 2.4-2-.15q-.1 1.48-.11 2.54h4q0-.85.1-2.24z" mask="url(#b)"/><path fill="#000" d="M107.94 11.83a5 5 0 0 0-2.88-.83q-1.23 0-2.47.09-1.2.08-2.43.1-1.62.05-3.22.32-1.33.21-2.67.32a8 8 0 0 1-3.06-.37l-.43-.03q-.76-.02-1.51.1a3.8 3.8 0 0 0-2.4 1.3q-.15.18-.31.33a6 6 0 0 0-1.23 1.8q-.63 1.47-.79 3.05-.03.38-.1.75-.3 1.6-.08 3.23.05.34 0 .53a1.4 1.4 0 0 0-1-.2 1.4 1.4 0 0 0-1.22 1.14q-.28 1.22-.34 2.47a83 83 0 0 0-.08 3.23q0 1.35.8 2.43 1 1.36 2.67 1.12.06.63.16 1.25l.42 2.13-1.43.98a97 97 0 0 0-5.54 4.1 9 9 0 0 0-2.87 3.85 1.2 1.2 0 0 1-.3.66 4 4 0 0 0-1.18 1.1 17.7 17.7 0 0 0-6.3 10.16q-.06.6-.24 1.14h.03l-.02.12q-.17 1.2-.43 2.38-.85 3.9-.18 7.8.01.07.07.15l.13.1q-.33 1.58-.44 3.18-.3 4.04.68 7.95.98 3.88 1.35 7.88v-.04.04a27 27 0 0 1-.2 6.74 8 8 0 0 0 .79 4.9 1 1 0 0 0 .01.26l.03.04.02.05q.03.07.03.14.07.26.1.5l.13.52v.25q0 .76.26 1.47.27.75 1 1.06.6.08 1.21.03a16 16 0 0 0 1.69-.22l1.62-.05a6 6 0 0 0 1.83-.37l1.71-.68.22.1a3 3 0 0 0 1.3.27l3.9.03q1.8.03 3.5-.37l.3.36q.14.14.32.2 1.6.5 3.28.63a140 140 0 0 1 3.96.4q2.07 0 4.14.03a24 24 0 0 0 6.84-.86q2.07-.6 4.23-.74 1.92-.14 3.8-.57l.02-.03q.4-.01.77.02a12 12 0 0 0 .97.05l1.45-.08q.6-.03 1.18-.14l.05-.03.04-.04.03-.04.03-.05.02-.04h.02l.08-.06.03-.04q0-.03.03-.04l.04-.09.01-.05q.02-.22-.03-.46a7 7 0 0 0-.5-1.58q-.03-.3-.13-.61-.42-1.3-.87-2.59a24 24 0 0 0-1.07-2.6 1 1 0 0 1-.1-.37.6.6 0 0 0-.12-.29l-.03-.03-.02-.01.24-1.09q.58-2.78.55-5.7.15-.55.22-1.14.17-1.44.09-2.93-.09-1.6-.63-3.08l.04.02.05.03.05.03.05.01.1.03.07-.02.12-.04a.3.3 0 0 0 .16-.12l.04-.12.03-.12q0-.08-.02-.14l.1-.08.06-.1.21-.39q.1-.18.15-.39.1-.15.24-.26a6.7 6.7 0 0 0 2.04-5.47 19 19 0 0 0-2.1-7.5l-.98-1.85a26 26 0 0 0-1.9-2.97l.11-.02.07-.03.11-.1.08-.15.01-.14q0-.15-.07-.32a11 11 0 0 1-.45-1.39 7.4 7.4 0 0 0-3.5-4.7 31 31 0 0 0-4.36-2.15l-.04-.04q-.5-.18-.88-.54a14 14 0 0 1-1.65-1.85 20 20 0 0 1-1.03-1.71 12 12 0 0 0-.6-1.03q.59-.5 1.22-.94a9 9 0 0 0 1.62-1.44q1-.96 1.97-1.95.57-.57.84-1.33.38-1.1.54-2.16.23-1.5-.02-2.98a3 3 0 0 0-.06-.67q.56.18 1.1-.04a1 1 0 0 0 .3-.23q.82-1.14 1.06-2.56.27-1.57.19-3.17-.03-.31.04-.63.27-1.5-.54-2.76-.32-.48-.86-.37l-.53.11q.03-.22 0-.46-.06-.76-.04-1.54.02-.67-.1-1.35l-.02-.32q-.02-.57-.06-1.13a9 9 0 0 0-.14-1.04 5 5 0 0 1-.03-.94q.04-.88-.08-1.75a5 5 0 0 0-2.26-3.52m-1.15.54.3.13q.73.45 1.27 1.1 1.02 1.29.9 2.92-.03.45 0 .9.16 1.6.27 3.2.03.42.03.87-.03 1.6.23 3.18a.5.5 0 0 0 .19.33q.57.45 1.13-.13l.04-.02.09-.05.04-.02.08.14.14.34q.11.48.08 1-.03.3-.02.59a31 31 0 0 1-.23 3.89l-.15.46q-.1.38-.26.72l-.3.6-.05.02-.04.02h-.23l-.06-.01-.05-.02-.05-.02-.05-.03q-.22-.55-.77-.5a.2.2 0 0 0-.18.12q-.42.8-.24 1.71.17.96.13 1.9-.06 1.59-.48 3.13a1 1 0 0 1-.12.26 16 16 0 0 1-2.45 2.76q-.75.78-1.64 1.4-.55.37-1.01.85a8 8 0 0 1-2.9 1.88q-.55.22-1.12.38-.55.16-1.12.16a7 7 0 0 1-3.18-.93q-.75-.42-1.52-.78-1-.45-1.78-1.17a21 21 0 0 1-2.14-2.32q-.13-.17-.22-.35-.45-.95-1.07-1.79l.02.02-.07-.1-.38-.46a3 3 0 0 1-.4-.6 11 11 0 0 1-.6-1.8l.04-.04-.13-.77-.07.01-.02.01a35 35 0 0 1-.42-2.53 5 5 0 0 1-.03-.8 2 2 0 0 0-.2-.9.3.3 0 0 0-.24-.15q-.6-.01-.9.62h-.54a2 2 0 0 1-1.3-1.18q-.12-.3-.15-.64a27 27 0 0 1-.08-3.06 21 21 0 0 1 .36-3.28l.06-.07.04-.03.04-.03.04-.03.05-.02.04-.03h.22l.26.14q.17.07.35.12.15.03.3.13a.5.5 0 0 0 .5.2.5.5 0 0 0 .4-.3.5.5 0 0 0-.01-.43 1 1 0 0 0 .03-.2q0-.31-.03-.5a11 11 0 0 1-.06-3.32l.08-.65a12 12 0 0 1 .9-3.32q.77-1.2 1.8-2.21a9 9 0 0 1 1.73-.49q.93-.15 1.74.1 1.55.51 3.2.27 1.21-.17 2.27-.36a17 17 0 0 1 2.05-.23q.45-.05.88-.05 1.86 0 3.7-.16 1.63-.15 3.04.3M83.61 23.3l.03.02q0 0-.03-.02m-10.7 42.99q.39.22.78.4 3.03 1.41 5.7 3.4l.06.06q0 .07.05.13.03.08.1.13l.1.05.06.06.14.1.02.06q.03.08.1.14a.5.5 0 0 0 .35.12 33 33 0 0 1 3.2-1.91 34 34 0 0 0 7.5-5.33q2.34-2.16 4.28-4.66-.08.45-.18.88l-.01.03.02-.03-.24.57q-.23.5-.42 1-.18.48-.24 1.01l-.2.46-.24.72q-.13.38-.2.78-.2.36-.36.73-.17.38-.38.74l-.05-.02h-.19l-.12.05-.1.07a8.4 8.4 0 0 0-.38 3.8l-.02.05.04.12q.18 1.47.22 2.95.1 3.53-.5 7.03a21 21 0 0 0-.23 2.04 17 17 0 0 1-2.4 7.66q-.52.66-1.06 1.4l-1.41 1.84q-.3.34-.47.73-.6 1.22-.29 2.55.27 1.2.81 2.32v.09q.06.18.15.35.25.42.39.9a4 4 0 0 0 .38.86v.09q.05.38.17.73-1.8.4-3.68.32-.87-.03-1.72.03a8 8 0 0 1-2.54-.26l-.01-.04-.07-.08-.03-.03-.04-.03-.04-.03-.04-.02-.05-.02h-.05l-.07-.01-.2-.25a3 3 0 0 0-.31-.37l-.02-.01a7 7 0 0 0-.25-.7 2 2 0 0 0-.45-.61l-.05-.03-.07-.03q-.16-.3-.34-.58-.8-1.22-1.56-2.47-.73-1.2-1.48-2.35-.03-.33.02-.66.16-1.07.34-2.15.18-1.17.48-2.3l-.02-.05a.41.41 0 0 0-.22-.22l-.05-.02a.4.4 0 0 0-.37.07 16 16 0 0 0-1 4.05q-.07.8.13 1.54.2.65.56 1.25a55 55 0 0 0 3.26 4.81l.18.45q.08.23.2.42l.05.03.05.04a3 3 0 0 0 .28.46l-.47.2q-.4.16-.83.28-1.06.33-2.19.4-1.8.1-3.59.23a1 1 0 0 1-.2-.1 1.3 1.3 0 0 1-.5-1.1 4 4 0 0 0-.12-1.3l-.08-.5q-.08-.3-.2-.56a7 7 0 0 0-.63-2.13q-.18-.38-.24-.8-.19-1.32.08-2.64.75-3.9.11-7.87a60 60 0 0 0-.74-3.83 67 67 0 0 1-1.02-5.7 23 23 0 0 1 .6-8.97q.2-.83.46-1.63.26-.84.23-1.73l.04-.13.08-.27.01-.05q1.5 1.66 3.46 2.8M69.05 63h-.07a1 1 0 0 0-.23.13l-.84 3.73q-.15-1.71.08-3.44l.18-1.61q.42.61.88 1.2m46.2 35.36v-.25q.33-.63.56-1.32.5-1.43.88-2.88.13.31.29.63.57 1.13.92 2.34l.69 2.51.04.09.02.04a14 14 0 0 1 .38 1.28l-1.2.08q-.42.05-.83.03-.89-.05-1.75 0a5 5 0 0 1-.03-.75q0-.27-.03-.52.06-.14.05-.32zM87.92 45.03l.03-.09q.96.37 1.89.76 2.35 1 4.3 2.53.39.45.64 1a9 9 0 0 1 .8 2.8 3 3 0 0 1 .26 1.22q0 .1-.04.2.07.5.12 1l-.1 1.12q-.06.67-.14 1.36l-.04.07q-.15.27-.22.56l-.13.17.03-.03-.1.12q-.25.2-.44.44-.26.33-.44.72-.27.27-.48.58-.62.93-1.41 1.73l-1.85 1.88q-.96.55-1.8 1.3a20 20 0 0 1-4 2.7 29 29 0 0 0-4.3 2.73l-.09-.21q.52-2.65 1.14-5.3a216 216 0 0 1 2.02-8.14 20 20 0 0 1 2.15-5.05 17 17 0 0 0 2.2-6.17m-15.04 4.32.05-.04.07.2v.15q0 .26.02.54t.12.56q.1 1.9.45 3.78a45 45 0 0 0 2.11 7.58q.34.93.72 1.85.95 2.4 2.3 4.58-.64-.42-1.33-.77a49 49 0 0 1-4.5-2.54 14 14 0 0 1-4.57-4.7q.1-.78.26-1.55a2 2 0 0 1 .07-.52l.08-.32.13-.46.07-.17.02-.06h-.02q.4-1.55.95-3.03 1.05-2.8 3-5.08m4.68-3.59.2-.14a10.4 10.4 0 0 1 5.04-1.92q1.25.05 2.46.36.98.27 1.92.6-.15.75-.38 1.51a30 30 0 0 1-2.65 6.24 10 10 0 0 0-.98 2.42A550 550 0 0 0 79.8 68.6l-.38-.68q-1.23-2.22-2.3-4.56a33 33 0 0 1-2.39-7.46q-.7-3.67-1.08-7.36a12 12 0 0 1 2.25-1.72 3 3 0 0 1 .65-.38zm9.93-5.86q.16.17.25.37.34.78.87 1.47.96 1.28 2.07 2.42.56.6 1.28.96l2.8 1.49q1.39.75 2.99.94.36.02.73 0a8 8 0 0 0 2.17-.5 10 10 0 0 0 1.88-.95l.62-.54.16.33.04-.02.15.28q.23.37.42.75a7 7 0 0 0 .6.97l.17.26q.07.11.15.2l.52.74q.47.63 1.07 1.1l-.06.2q1.7.68 3.35 1.54.6.31 1.23.59a6.2 6.2 0 0 1 3.66 3.98q.33 1 .79 1.9-1.2-1.5-2.6-2.8h-.2l-.1.04-.1.06-.1.19-.01.1v.1q.33.45.71.88a38 38 0 0 1 2.14 2.62 36 36 0 0 1 3.9 6.63 11.8 11.8 0 0 1 .66 8.4l-.18.24q-.3.44-.66.8a3 3 0 0 0-.56.69 5 5 0 0 0-.35.53l-.02.05a4 4 0 0 1-.28.63l-.14.1-.02.02-.13-.07-.61-.32-.4-.34q-.56-.42-1.08-.88-.55-.48-1.17-.84h-.05l-.1.01-.1.04a.3.3 0 0 0-.16.15l-.04.1-.01.1q0 .1.02.16.2.3.48.5.83.61 1.63 1.27.7.57 1.47.96l-.15.01-.1.05-.12.1-.08.15q0 .3.07.6.26.97.3 1.98.03 1.17.19 2.32l-.03.16q-.05.43-.12.86-.08.5-.23.98.15.75.04 1.52-.43 2.72-.99 5.4a32 32 0 0 1-1.4 4.81l-.02.01-.09.07-.07.08a1 1 0 0 0-.07.29v.16l-.02.07v.13q0 .09.03.16v.95a1 1 0 0 0-.05.24q0 .45.03.88 0 .3.06.57l-1 .15q-1.86.28-3.74.5-.5.06-.98.19-1.9.5-3.83.85-1.28.22-2.55.26-2.5.06-5.02.03a46 46 0 0 1-8.03-.84l-.31-.33q-.24-.29-.33-.63l-.2-.65.01-.06v-.09a1 1 0 0 0-.11-.27 2 2 0 0 1-.24-.52l-.06-.19a5 5 0 0 0-.43-.97q-.02-.3-.2-.57-1.5-2.48.15-4.65a59 59 0 0 0 3.13-4.54q.31-.52.36-.64.86-2.2 1.13-4.57.45-4.1 1-8.19.07-.52.03-1.05-.08-1.12-.15-2.26A11.5 11.5 0 0 0 98 76.34q3.18 1.48 6.69 1.8 2.88.15 5.23-1.32a6 6 0 0 0 1.66-1.6 9.3 9.3 0 0 0 1.64-6q-.04-.75-.13-1.47a20 20 0 0 0-2.2-7.17l-.05-.02-.11-.02h-.13l-.13.04-.04.04a1 1 0 0 0-.12.16l-.04.12q.22.64.46 1.3.55 1.46 1.06 2.93.5 1.43.6 2.96-.15.57-.12 1.18.1 1.76-.3 3.44a5.5 5.5 0 0 1-1.56 2.75l-.35.2q-.27.14-.5.34l-.47.42q-3.72 1.5-7.68.4-1.95-.54-3.68-1.56a12 12 0 0 1-4.77-5.12q-.06-1.27-.08-2.56.16-.17.27-.37l.49-.9q.21-.37.32-.8.2-.26.34-.55.23-.46.35-.94l.23-.86q.17-.26.2-.56.06-.45.24-.87.18-.45.3-.88.35-.55.44-1.18l.35-2.3.1-.18q.1-.15.08-.33l-.03-.1-.04-.08q.16-1.13.23-2.25l-.11-.84q.05-.07.05-.16a6 6 0 0 0-.15-1.57l-.07-.39-.02-.12q-.06-.3-.1-.63a.6.6 0 0 0-.24-.4q-.17-.58-.4-1.16-.56-1.43-1.89-2.16a4 4 0 0 0-.74-.58q-.94-.57-1.9-1.11a7 7 0 0 0-2.04-.76l-.35-.17a2 2 0 0 0-.48-.17l-.55-.13h-.02q-.22-.12-.46-.22a10 10 0 0 0-2.3-.75l-.44-.08a9 9 0 0 0-1.87-.16q-.4.12-.8.17-.86.11-1.7.39-.77.26-1.42.77a46 46 0 0 0-1.7.9l-.27.08.22-.4A15 15 0 0 1 81.74 40a55 55 0 0 0 4.22-3.04l.03.14q.36 1.6 1.5 2.8m15.04 6.2-.03.01h.02zM86.08 96.9l.01.02zm-13.81-19.5h-.06l-.17-.01a.4.4 0 0 0-.23.11.4.4 0 0 0-.1.17.4.4 0 0 0-.02.18q.04.18.16.3.42.52.86 1a14 14 0 0 1 .9 1.13q0 .27-.02.53-.03.88-.23 1.78-.23.99-.66 1.92v.13q0 .08.05.17a.4.4 0 0 0 .22.18q.1.03.2.02a1 1 0 0 0 .2-.08 9 9 0 0 0 1.04-3.8q.03-.36-.09-.68a7 7 0 0 0-2.05-3.04M94.96 38.9q-.44-.27-.8.09-.27.27-.03.59.2.26.5.38a9 9 0 0 0 3.4.77 7 7 0 0 0 2.97-.56 4 4 0 0 0 1.1-.68q.11-.14.07-.32-.22-.75-.87-.32-1.02.59-2.17.75-1.45.22-2.86-.15-.7-.18-1.31-.55m2.63-9.25q-.44-.12-.66.28a.3.3 0 0 0 .01.32q.24.4.54.8.6.84.75 1.85l-.06.01q-.48.09-.99.14-.49.04-.92.29l-.12.14a.5.5 0 0 0-.01.47.5.5 0 0 0 .33.3q.9-.18 1.85-.31.3-.04.53-.23.61-.5.42-1.32a5 5 0 0 0-1.67-2.74m5.95-4.9a.3.3 0 0 0-.14-.3 1 1 0 0 0-.34-.14q-.3-.15-.49 0a.4.4 0 0 0-.2.17q-.17.1-.27.43 0 .11.05.2-.01.35.52.49.19.05.38-.05.08-.04.13-.1.33-.04.36-.52v-.18m-10.59-.18-.04-.03-.04-.04-.05-.04q-.5-.33-.74.03-.16.1-.25.42 0 .15.07.24.02.17.14.27.08.12.25.16.34.12.52-.05a.4.4 0 0 0 .18-.1q.49-.45-.04-.86m2.63-3.7-.66-.21a5 5 0 0 0-2.33-.13 10 10 0 0 0-3 1.03q-.9.47-1.36 1.34l-.21.34q-.4.57.08 1.01.14.09.3.04.52-.15.67-.72a1 1 0 0 1 .1-.22 3.7 3.7 0 0 1 1.75-1.3 9 9 0 0 1 3.47-.54q.31.13.6.31.34.24.73.21.23 0 .31-.23.24-.64-.45-.92M85 25.5a.9.9 0 0 0-1 .49q-.47.76-.34 1.64l.07.6A1.86 1.86 0 0 0 85.3 30q.7 0 1.07-.57a.8.8 0 0 0 .09-.82.35.35 0 0 0-.36-.22q-.54 0-.72.56l-.43-.23-.04-.16-.2-.8a1.4 1.4 0 0 1-.01-.83q.22.08.4-.04.72-.42.31-1.12a.5.5 0 0 0-.41-.28m25.46 1.33a1 1 0 0 0-.45-.4q-.85-.32-1.37.44a.74.74 0 0 0 0 .92q.24.32.58.14.35-.2.34-.57.32.47.4 1.05.08.57-.1 1.1l-.03.02-.19.12-.19.08-.05-.02-.05-.02-.31-.3q-.45-.45-.82.06-.11.14-.04.32.24.66.9.94.74.17 1.34-.31a1 1 0 0 0 .2-.25q.84-1.68-.16-3.32m-3.93-4.19q.47.47.87-.07a.3.3 0 0 0 .03-.27 2.4 2.4 0 0 0-1.2-1.22 8.5 8.5 0 0 0-5.46-.63q-.78.18-1.4.66-.53.42 0 .85.15.11.31.04.45-.2.87-.35a6.5 6.5 0 0 1 3.13-.27l.4.06q1.47.15 2.45 1.2m5.3 9.8-.01.03v-.03m.06-.15v-.01l.02-.03-.02.02z"/><path fill="#fff" d="M87.74 40.27a1 1 0 0 0-.25-.37 6 6 0 0 1-1.53-2.94A55 55 0 0 1 81.74 40a15.4 15.4 0 0 0-4.96 5.18l.3-.1q.82-.45 1.67-.88.64-.51 1.43-.77a9 9 0 0 1 1.7-.39q.4-.05.8-.17a11 11 0 0 1 1.86.16l.44.08q.4.05 1.1.27a10 10 0 0 1 1.66.7h.02q.04 0 .08.03l.47.1q.25.06.48.17l.35.17q1.08.21 2.04.76.96.54 1.9 1.11.4.25.74.58 1.32.74 1.9 2.16.22.58.39 1.17.18.15.23.4l.2 1.13a9 9 0 0 1 .16 1.57q0 .1-.06.16l.11.84q-.06 1.13-.23 2.25l.04.08.03.1q0 .18-.07.33-.06.08-.1.18-.2 1.15-.36 2.3-.08.63-.44 1.18-.12.45-.3.88-.18.42-.23.87-.05.3-.2.56-.14.42-.24.86a4 4 0 0 1-.69 1.5q-.1.42-.32.8l-.49.89q-.12.2-.27.37.03 1.27.08 2.56a12 12 0 0 0 4.77 5.12q1.73 1.02 3.68 1.56 3.96 1.1 7.68-.4.22-.22.46-.42t.5-.35q.19-.1.36-.2a5.5 5.5 0 0 0 1.56-2.74q.4-1.68.3-3.44-.03-.6.12-1.18-.1-1.53-.6-2.96-.52-1.47-1.06-2.93-.25-.66-.46-1.3l.04-.12a1 1 0 0 1 .12-.16l.04-.04.13-.03a.4.4 0 0 1 .3.03 20.4 20.4 0 0 1 2.32 8.64 9.3 9.3 0 0 1-1.64 6 6 6 0 0 1-1.66 1.6 8.7 8.7 0 0 1-5.23 1.31q-3.5-.3-6.7-1.79a11.5 11.5 0 0 1-4.94-4.33l.15 2.26q.04.52-.02 1.05-.55 4.1-1.01 8.2-.27 2.36-1.13 4.56-.05.13-.36.64a59 59 0 0 1-3.13 4.54q-1.65 2.17-.15 4.65.18.27.2.57l.17.35q.15.3.26.62l.06.19a3 3 0 0 0 .24.52q.08.12.12.27v.09l-.01.05v.01l.02.05q.07.3.17.6.09.34.33.63l.3.33a46 46 0 0 0 8.04.84q2.52.03 5.02-.03 1.28-.04 2.55-.26a47 47 0 0 0 3.83-.85q.48-.13.98-.19a133 133 0 0 0 4.74-.65l-.06-.57q-.03-.43-.03-.88 0-.12.05-.24v-.95l-.04-.16v-.13l.04-.07v-.16q-.02-.15.06-.3l.07-.07.09-.07h.02q.89-2.35 1.4-4.81.56-2.7.99-5.41.11-.77-.04-1.52a9 9 0 0 0 .35-1.84l.03-.16q-.15-1.15-.2-2.32a9 9 0 0 0-.29-1.98q-.07-.3-.07-.6l.07-.15.13-.1.1-.05q.07-.02.15 0-.77-.41-1.47-.97-.8-.66-1.63-1.27-.28-.2-.48-.5l-.02-.15.01-.1.07-.15a.3.3 0 0 1 .13-.11l.1-.04.1-.01h.05q.62.36 1.17.84.52.45 1.09.88.2.15.39.34l.74.39.02-.02.14-.1a4 4 0 0 0 .28-.63l.02-.05.16-.26.27-.38q.05-.14.48-.57.38-.37.66-.81l.18-.24q1.22-4.26-.65-8.4a36 36 0 0 0-4.32-7.18l-.23-.29q-.72-.9-1.5-1.78-.38-.42-.7-.87l-.01-.1.01-.11.04-.1.06-.1.1-.05.1-.04.1-.01h.1q1.4 1.32 2.6 2.8-.46-.88-.79-1.9a6.2 6.2 0 0 0-3.66-3.97q-.63-.27-1.23-.59a35 35 0 0 0-3.35-1.54l.06-.2a6 6 0 0 1-1.07-1.1l-1.02-1.46a7 7 0 0 1-.42-.71 13 13 0 0 0-.57-1.03l-.04.02q-.09-.16-.16-.33l-.63.54-.02.01.03-.01q-.9.58-1.88.94-1.06.4-2.17.5-.36.04-.73.01a8 8 0 0 1-3-.94l-2.8-1.49q-.71-.37-1.27-.96a27 27 0 0 1-2.07-2.42 8 8 0 0 1-.87-1.47m27.5 57.85v.25q-.03.48 0 .96 0 .17-.06.32.03.25.02.52 0 .37.04.75.87-.05 1.75 0 .4 0 .83-.03l1.2-.08a22 22 0 0 0-.4-1.32l-.04-.09-.02-.05-.01-.05v-.06l-.66-2.35q-.34-1.22-.92-2.34l-.3-.63q-.37 1.46-.87 2.88-.23.69-.56 1.32m-46.27-35.1.08-.01q-.47-.56-.89-1.2l-.18 1.62q-.22 1.73-.08 3.44l.84-3.73.1-.08zm4.72 3.66a14.33 14.33 0 0 1-4.23-3.2v.05l-.13.4q.03.89-.23 1.73-.26.8-.46 1.63l-.2.75a23 23 0 0 0-.4 8.22q.39 2.87 1.02 5.7.44 1.9.74 3.83a23 23 0 0 1-.11 7.87q-.26 1.32-.08 2.64.06.42.24.8.49 1.04.62 2.13.14.27.21.57l.09.51q.15.63.11 1.28-.03.68.5 1.1.08.07.2.1l3.6-.24a10 10 0 0 0 3.01-.68l.47-.19a3 3 0 0 1-.28-.46l-.05-.03-.04-.04a2 2 0 0 1-.2-.42 3 3 0 0 0-.32-.65l-.03-.02-.02-.04-.03-.04-.02-.04a55 55 0 0 1-3.03-4.47q-.36-.6-.56-1.25a4 4 0 0 1-.13-1.55q.25-2.1 1-4.04.07-.06.17-.08a.4.4 0 0 1 .38.11q.06.06.09.14l.02.05q-.3 1.13-.48 2.3l-.34 2.15q-.05.33-.02.66.75 1.16 1.48 2.35.75 1.25 1.56 2.47l.35.59.06.02q.03 0 .05.03a2 2 0 0 1 .45.61 7 7 0 0 1 .27.7l.04.04q.16.15.27.34.1.14.2.25h.07l.05.01.05.02q.02 0 .04.02l.04.03q.03 0 .04.03l.04.03.03.04.03.04.01.04q1.23.34 2.54.26.86-.06 1.72-.03 1.88.07 3.68-.32a3 3 0 0 1-.18-.73v-.05l.01-.05a4 4 0 0 1-.38-.86q-.15-.46-.4-.89-.08-.17-.13-.35v-.09q-.55-1.12-.82-2.32a3.7 3.7 0 0 1 .76-3.28q.02-.04.37-.48a127 127 0 0 0 2.1-2.76q.1-.1.4-.7a17 17 0 0 0 2-6.96 21 21 0 0 1 .24-2.04 37 37 0 0 0 .27-9.98l-.04-.12.02-.06a8.4 8.4 0 0 1 .38-3.8l.1-.06.12-.05h.19l.05.02q.21-.36.38-.74.16-.37.37-.73.06-.4.19-.78l.25-.72q.08-.24.2-.46.05-.52.23-1.02a21 21 0 0 1 .66-1.56l-.02.03.01-.03.18-.88a39 39 0 0 1-5.17 5.46 34 34 0 0 1-6.61 4.53 33 33 0 0 0-3.2 1.9h-.19a1 1 0 0 1-.17-.1 1 1 0 0 1-.1-.21l-.41-.34-.05-.13-.05-.06a32 32 0 0 0-5.71-3.4M72.2 77.4l.06.02a7 7 0 0 1 2.05 3.04q.11.32.1.68a9 9 0 0 1-1.05 3.8 1 1 0 0 1-.2.08.4.4 0 0 1-.2-.02l-.07-.03a.4.4 0 0 1-.15-.15.3.3 0 0 1-.05-.17v-.13a10 10 0 0 0 .9-4.24q-.42-.58-.89-1.12-.44-.48-.86-1a1 1 0 0 1-.16-.3.4.4 0 0 1 .02-.18.4.4 0 0 1 .1-.17l.05-.04a.4.4 0 0 1 .18-.07zm13.88 19.53v-.02zm21-84.43q-.15-.08-.3-.13-1.43-.45-3.03-.3-1.85.16-3.7.16-.45 0-.89.05l-.88.08q-.6.06-1.17.15-1.05.2-2.27.36a7 7 0 0 1-3.2-.27 3.6 3.6 0 0 0-1.74-.1 9 9 0 0 0-1.73.49 13 13 0 0 0-1.94 2.46q-.6 1.48-.76 3.07l-.07.65a11 11 0 0 0 .05 3.32q.02.19.03.5 0 .1-.03.2.1.21 0 .44a.5.5 0 0 1-.4.3.5.5 0 0 1-.49-.2 1 1 0 0 0-.3-.14l-.35-.12-.26-.14h-.22l-.04.03-.05.02-.04.03-.04.03-.04.03-.02.02-.06.1a21 21 0 0 0-.34 3.23q-.04 1.53.08 3.06.03.33.15.64.37.9 1.3 1.18h.54q.3-.64.9-.62.17 0 .24.15.23.4.2.9-.01.4.03.8a35 35 0 0 0 .44 2.52h.07v.06q.06.4.13.7l-.05.04q.23.93.62 1.8.15.32.39.6l.38.46.07.1-.02-.02q.61.84 1.07 1.79.09.18.22.35.99 1.23 2.14 2.32.78.73 1.78 1.17.78.36 1.52.78a7 7 0 0 0 3.18.93q.58 0 1.12-.16a12 12 0 0 0 1.4-.5q1.48-.6 2.62-1.76.45-.48 1-.85.9-.62 1.65-1.4l.37-.36q1.16-1.11 2.08-2.4.09-.12.12-.26.42-1.54.48-3.13a9 9 0 0 0-.13-1.9 2.5 2.5 0 0 1 .24-1.7q.06-.1.18-.12.55-.06.77.5h.01l.05.02.04.02.11.04h.12l.05-.01h.06l.04-.02.05-.02.3-.6q.16-.34.26-.72l.15-.46a30 30 0 0 0 .23-3.89q0-.3.02-.6.04-.5-.08-.99l.02.05-.16-.39-.08-.14-.04.02-.05.03-.04.02-.04.02q-.56.6-1.13.13a.5.5 0 0 1-.2-.33 18 18 0 0 1-.22-3.18q0-.46-.03-.88l-.26-3.2a5 5 0 0 1 0-.89 4 4 0 0 0-.91-2.91 5 5 0 0 0-1.27-1.1m.3 10.06q-.38.54-.86.07a3.8 3.8 0 0 0-2.45-1.2l-.4-.06a6.5 6.5 0 0 0-4 .62.3.3 0 0 1-.31-.04q-.52-.43 0-.85.62-.48 1.4-.66a8.2 8.2 0 0 1 5.46.63q.84.4 1.2 1.22.06.14-.03.27m2.61 3.87q.3.1.46.39 1 1.64.16 3.32a1 1 0 0 1-.2.25q-.6.48-1.34.3a1.6 1.6 0 0 1-.9-.93.3.3 0 0 1 .04-.32q.38-.5.82-.07l.36.33.05.02.2-.08.2-.14q.2-.53.11-1.1a2.5 2.5 0 0 0-.4-1.05q.02.38-.34.57-.34.18-.57-.14a.74.74 0 0 1 0-.92q.52-.76 1.35-.43m-26-.45a.9.9 0 0 1 1-.49q.27.04.41.28.4.7-.3 1.12a.5.5 0 0 1-.41.04q-.12.41 0 .83a10 10 0 0 1 .25.96l.43.23q.2-.56.72-.56.26 0 .36.22a.8.8 0 0 1-.09.82 1.2 1.2 0 0 1-1.16.56l-.05-.01a1.86 1.86 0 0 1-1.43-1.77q-.02-.3-.07-.59-.13-.87.33-1.64m10.92-5.33q.33.1.66.22.69.29.45.92a.3.3 0 0 1-.3.23q-.4.03-.74-.2-.28-.2-.6-.32a9 9 0 0 0-3.47.54q-1.08.4-1.74 1.3a1 1 0 0 0-.1.22 1 1 0 0 1-.69.72q-.15.05-.3-.04-.47-.44-.07-1l.2-.35q.46-.87 1.36-1.34a10 10 0 0 1 3-1.03q1.22-.2 2.34.13m-2.01 3.88.04.03q.53.42.04.86a.4.4 0 0 1-.18.1q-.17.17-.52.05a.4.4 0 0 1-.25-.16.4.4 0 0 1-.14-.27 1 1 0 0 1-.07-.24q.09-.3.25-.42.23-.36.74-.03l.05.04zm10.49-.08q.15.1.14.29v.19q-.03.47-.36.5l-.13.11a.5.5 0 0 1-.38.05q-.53-.14-.53-.5l-.04-.19q.1-.33.26-.43a.4.4 0 0 1 .21-.17q.19-.15.5 0 .14.02.33.15m-6.47 5.47q.23-.4.66-.28 1.26 1.09 1.67 2.74.2.83-.41 1.32-.24.19-.54.23-.95.13-1.85.3a.5.5 0 0 1-.33-.29.5.5 0 0 1 .01-.47q.05-.08.12-.14.44-.25.92-.3a12 12 0 0 0 1.05-.14 4 4 0 0 0-.75-1.85q-.3-.4-.54-.8a.3.3 0 0 1 0-.32m-2.76 9.06q.35-.36.79-.09.62.36 1.3.55 1.42.37 2.87.15 1.16-.16 2.17-.75.65-.43.87.32.04.18-.08.32l.1.23q.05.22-.12.37-.47.4-1.05.64a7 7 0 0 1-3.6.5 9 9 0 0 1-2.78-.72q-.3-.14-.5-.38-.21-.3 0-.54l-.01-.01q-.23-.3.04-.6"/><path fill="#ca6a40" d="m77.76 45.62-.3.21-.9.62a3 3 0 0 0-.77.46q-1.18.7-2.14 1.63.37 3.68 1.08 7.36.75 3.87 2.39 7.46a65 65 0 0 0 2.3 4.56l.38.68a607 607 0 0 1 3.37-13.77q.33-1.28.98-2.42a30 30 0 0 0 3.03-7.75q-.94-.33-1.92-.6-1.2-.3-2.46-.36-2.78.3-5.04 1.92"/><path fill="#c36a40" d="m72.93 49.3-.05.05a17 17 0 0 0-3 5.08 29 29 0 0 0-.95 3.1l-.07.16-.27 1.08-.01.22a29 29 0 0 0-.24 1.55 14 14 0 0 0 4.56 4.7q2.16 1.38 4.49 2.54.69.35 1.32.77a31 31 0 0 1-2.29-4.58q-.37-.92-.72-1.85a45 45 0 0 1-2.11-7.58 29 29 0 0 1-.45-3.78q-.09-.28-.12-.56l-.02-.54v-.15zm15.02-4.36-.03.1a17 17 0 0 1-2.2 6.16 21 21 0 0 0-2.49 6.35q0 .03-.14.6A216 216 0 0 0 80.4 69.7l.1.2a29 29 0 0 1 4.3-2.74 20 20 0 0 0 3.99-2.7q.84-.75 1.8-1.3l1.85-1.88q.8-.79 1.4-1.73.22-.31.49-.58.18-.39.44-.72.2-.24.43-.44l.11-.12-.02.03.12-.17a3 3 0 0 1 .26-.63 36 36 0 0 0 .24-2.49l-.11-.99.03-.2v-.34a3 3 0 0 0-.25-.87l.02-.02-.04-.28a9 9 0 0 0-.79-2.51q-.25-.55-.64-1a19 19 0 0 0-4.3-2.53q-.93-.4-1.89-.76"/><path fill="#fff" d="M14 62a8 8 0 0 1 8-8h9a8 8 0 0 1 8 8v9a8 8 0 0 1-8 8h-9a8 8 0 0 1-8-8z"/><path fill="#000" d="m23.13 54.22-.2.98zm2.25.27.03 1zm.75-.03.03 1zm.75-.22.5.86zm.75-.43-.5-.87zm2.62-.04-.29.95zm.38.1.28-.95zm1.44.47.31-.95zm2.32.03-.8.58zm.25.35-.8.58zm.26.35.8-.58zm.56.54.52-.85zm.32.2-.51.85zm1 .57-.47.88zm.36.19.47-.88zm.37.2-.47.88zm.47.57-.96.28zm.12.39.96-.28zm.25 1.16 1-.08zm.05.76-1 .07zm.06.74 1-.07zm.05.72-1 .07zm.03.72 1-.03zm.02.74-1 .02zm.21.74.89-.46zm.39.75-.89.46zm.12.75.98.2zm-.08.37-.98-.2zm-.07.38.98.2zm.05.75-.95.32zm.25.75.95-.33zm-.13.75.82.58zm-.27.37-.81-.57zm-.28 2.64.92-.38zm.3.76-.92.37zm0 .74-.91-.4zm-.16.35.92.4zm-.15.36-.92-.4zm-.36.66.84.54zm-.2.32-.84-.54zm-.2.3-.84-.53zm-.4.62-.83-.55zm-.4.6-.83-.56zm-.43.58-.77-.65zm-.47.55-.76-.64zm-.44.66.89.47zm-.2.38-.88-.46zm-.2.38.89.47zm-.98.56-.22-.98zm-.4.09.22.97zm-.79.03-.14.99zm-.79-.12.14-.99zm-.76.12-.43-.9zm-.72.34.43.9zm-.74-.04-.5.87zm-.75-.43.5-.87zm-.75-.15.18.99zm-.38.07.19.99zm-.37.07-.18-.98zm-.75.1.06 1zm-.75.04-.06-1zm-.75-.06.22-.98zm-.75-.17-.22.97zm-.75.12-.48-.88zm-.38.2.49.88zm-.37.21.48.88zm-.75.17-.1 1zm-.38-.04-.1 1zm-.38-.04.1-1zm-.76-.02.04 1zm-.79.03.04 1zm-.77-.1-.3.96zm-.38-.12-.3.96zm-.37-.11.29-.96zm-.6-.48.85-.53zm-.23-.37.85-.52zm-.22-.37-.86.52zm-.54-.56.52-.85zm-.31-.19-.52.86zm-.32-.19.52-.85zm-.67-.38-.48.87zm-1.16-1 .99-.18zm-.15-.79-.98.19zm-.28-.73-.85.53zm-.42-.67.85-.53zm.03-1.12.96.29zm.12-.4-.96-.28zm-.1-.76.88-.49zm-.41-.75.87-.48zm0-.74-.86-.5zm.44-.75-.87-.5zm.03-.75.9-.44zm-.36-.75-.9.43zm-.08-5.25-.9-.44zm.19-.36.9.44zm.9-2.49.89.46zm.57-1.4.99.18zm.15-.84-.98-.18zm1.12-1.03-.5-.86zm.68-.4-.51-.86zm1.34-.73-.37-.92zm1.46-.33-.24.98zm.78.2-.24.97zm.57-.2.85.54zm.36-.56-.84-.54zm.55.38-.19.98zm.38.08-.2.98.38.07.2-.98.19-.98-.38-.07zm.38.07-.2.98.8.14.14-1 .14-.99-.7-.11zm.75.12-.14 1 .37.05.14-1 .14-.98-.38-.06zm.37.06-.14.99.38.05.14-1 .13-.98-.37-.05zm.38.05-.14.99q.45.06.92.05l-.04-1-.03-1q-.28 0-.58-.03zm.75.04.03 1 .37-.01-.03-1-.03-1h-.38zm.37-.01.03 1 .38-.02-.04-1-.03-1-.37.02zm.38-.02.03 1q.65-.02 1.21-.36l-.5-.86-.5-.87a1 1 0 0 1-.28.1zm.75-.22.5.86.37-.21-.5-.87-.5-.86-.37.21zm.37-.22.5.87.37-.22-.5-.86-.5-.87-.37.22zm.38-.21.5.86a1 1 0 0 1 .28-.1l-.04-1-.03-1a2.6 2.6 0 0 0-1.21.37zm.75-.23.03 1 .37-.01-.03-1-.03-1h-.38zm.37-.01.03 1 .38-.02-.04-1-.03-1-.37.02zm.38-.02.03 1q.2 0 .43.06l.29-.96.28-.95q-.52-.16-1.07-.15zm.75.1-.3.96.38.11.29-.95.29-.96-.38-.11zm.37.12-.29.95.38.12.29-.96.28-.96-.37-.11zm.38.1-.3.97.72.22.3-.95.32-.95q-.37-.13-.76-.24zm.73.24-.31.95.36.11.3-.95.32-.95-.36-.11zm.36.11-.31.95.35.12.31-.95.31-.95-.35-.12zm.35.12-.3.95q.67.21 1.34.03l-.25-.97-.25-.97q-.19.04-.23 0zm.79 0 .25.98.42-.11-.24-.97-.25-.97-.43.1zm.43-.1.24.97.43-.11-.25-.97-.24-.97-.43.1zm.42-.11.25.97s-.08.02-.2-.02a.4.4 0 0 1-.18-.13l.81-.58.82-.58a1.6 1.6 0 0 0-.78-.6c-.34-.12-.67-.1-.96-.03zm.68.24-.8.58.24.35.81-.58.82-.58-.25-.35zm.25.35-.8.58.24.35.82-.58.8-.58-.24-.35zm.26.35-.82.58q.35.5.87.82l.51-.86.52-.85a1 1 0 0 1-.27-.27zm.56.54-.51.86.32.19.51-.86.52-.85-.32-.2zm.32.2-.51.85.31.19.52-.86.52-.85-.32-.2zm.32.18-.52.86q.34.21.73.41l.47-.88.47-.89-.63-.35zm.68.39-.47.88.37.2.46-.89.47-.88-.36-.2zm.36.19-.46.88.36.2.47-.89.46-.88-.36-.2zm.37.2-.47.88v-.01l-.02-.02.96-.28.96-.28q-.24-.8-.97-1.18zm.47.57-.96.28.11.39.97-.28.96-.28-.12-.39zm.12.39-.97.28.12.38.96-.28.96-.27-.11-.4zm.1.38-.95.28q.08.3.1.57l1-.07 1-.08a5 5 0 0 0-.18-.97zm.15.78-1 .07.03.38 1-.07 1-.07-.03-.39zm.03.38-1 .07.03.38 1-.07.99-.07-.03-.38zm.02.38-1 .07.06.75 1-.08 1-.07-.06-.74zm.06.74-1 .08.02.35 1-.07 1-.07-.03-.36zm.02.36-1 .07.03.36 1-.07 1-.07-.03-.36zm.03.36-1 .07q.03.33.03.68l1-.03 1-.03q0-.39-.03-.76zm.03.72-1 .03.01.37 1-.03 1-.03v-.37zm.01.37-1 .03.01.36 1-.02 1-.03v-.37zm.01.37-1 .02q.03.63.32 1.18l.89-.46.89-.46a1 1 0 0 1-.1-.31zm.21.74-.89.46.2.37.88-.46.9-.46-.2-.37zm.2.37-.9.46.2.38.89-.46.89-.46-.2-.38zm.19.38-.89.46.03.07v.02l.98.2.98.2q.13-.76-.21-1.41zm.12.75-.98-.2-.08.37.98.2.98.2.08-.37zm-.08.37-.98-.2-.07.38.98.2.98.2.07-.38zm-.07.38-.98-.2q-.14.65.08 1.27l.95-.32.94-.33a.4.4 0 0 1-.01-.22zm.05.75-.95.32.13.38.95-.33.94-.32-.13-.38zm.13.37-.95.33.13.37.94-.32.95-.33-.13-.37zm.12.38-.94.32-.01-.05v-.08q.02-.06 0-.02l.82.58.82.58a1.8 1.8 0 0 0 .26-1.66zm-.13.75-.82-.58-.26.38.81.57.82.58.27-.37zm-.27.37-.81-.57-.27.37.82.58.82.58.26-.38zm-.26.38-.82-.58c-.28.4-.45.86-.42 1.39l1-.06 1-.06q0-.03.06-.11zm-.24.75-1 .06.02.37 1-.06 1-.06-.03-.37zm.02.37-1 .06.02.38 1-.06 1-.06-.02-.38zm.02.38-1 .06q.03.54.25 1.07l.93-.37.92-.38a1 1 0 0 1-.1-.44zm.18.76-.93.37.15.38.93-.37.93-.38-.16-.38zm.15.38-.93.37.16.38.92-.37.93-.37-.15-.39zm.15.38-.92.37v.02-.05l.92.4.92.4q.31-.77.01-1.51zm0 .74-.91-.4-.16.35.91.4.92.4.16-.35zm-.16.35-.91-.4-.16.35.92.4.91.4.16-.35zm-.15.36-.92-.4q-.12.27-.28.52l.84.54.84.54q.24-.38.43-.8zm-.36.66-.84-.54-.2.32.84.54.84.53.2-.31zm-.2.32-.84-.54-.2.31.84.54.85.54.2-.32zm-.2.3-.84-.53-.39.6.83.55.83.56.42-.63zm-.4.62-.83-.55-.2.3.83.55.83.56.2-.3zm-.2.3-.83-.56-.2.3.83.56.83.55.2-.3zm-.2.3-.83-.56q-.16.25-.37.5l.77.64.76.64q.27-.31.5-.67zm-.43.58-.77-.65-.23.28.76.64.77.65.23-.28zm-.24.27-.76-.64-.23.28.76.64.76.65.24-.28zm-.23.28-.76-.64q-.33.38-.56.84l.88.46.89.47q.16-.3.31-.48zm-.44.66-.88-.46-.2.38.88.46.89.47.2-.38zm-.2.38-.88-.46-.2.38.88.46.89.47.2-.38zm-.2.38-.88-.46.01-.01.06-.03.22.97.21.98c.58-.13 1-.49 1.27-.98zm-.6.47-.2-.97-.4.08.22.98.21.98.4-.1zm-.38.09-.22-.98-.4.09.22.98.22.97.4-.08zm-.4.09-.21-.98a1 1 0 0 1-.44.02l-.14.99-.14.99q.58.08 1.15-.05zm-.79.03.14-1-.4-.05-.13.99-.15.99.4.06zm-.4-.06.15-.99-.4-.06-.14 1-.14.98.4.06zm-.39-.06.14-.99a2.3 2.3 0 0 0-1.33.2l.43.9.43.91a.3.3 0 0 1 .19-.03zm-.76.12-.43-.9-.36.17.43.9.43.9.36-.17zm-.36.17-.43-.9-.36.17.43.9.43.9.36-.17zm-.36.17-.43-.9.12-.02.07.01-.5.87-.5.87c.5.29 1.1.34 1.67.08zm-.74-.04.5-.87-.38-.21-.5.86-.5.87.38.22zm-.38-.22.5-.86-.37-.22-.5.87-.5.87.38.21zm-.37-.21.5-.87a2 2 0 0 0-1.43-.26l.18.98.18.99q0 0 .07.03zm-.75-.15-.18-.98-.38.07.18.98.19.99.37-.07zm-.38.07-.18-.98-.37.07.18.98.18.99.38-.07zm-.37.07-.18-.98q-.32.06-.63.08l.06 1 .06 1q.44-.03.87-.11zm-.75.1-.06-1-.38.02.06 1 .06 1 .38-.03zm-.38.02-.06-1-.37.02.06 1 .06 1 .37-.02zm-.37.02-.06-1q-.23.02-.47-.04l-.22.98-.22.97q.5.11 1.03.09zm-.75-.06.22-.98-.37-.08-.23.97-.22.98.38.08zm-.38-.09.23-.97-.38-.09-.22.98-.22.97.37.09zm-.37-.08.22-.98a2 2 0 0 0-1.45.22l.48.88.48.87.04-.02h.01zm-.75.12-.48-.88-.38.21.48.88.49.87.37-.2zm-.38.2-.48-.87-.37.2.48.88.48.88.38-.2zm-.37.21-.48-.87q-.14.06-.17.05l-.1.99-.1 1q.72.05 1.33-.3zm-.75.17.1-1-.38-.03-.1 1-.1.99.37.03zm-.38-.04.1-1-.37-.03-.1 1-.1.99.37.04zm-.38-.04.1-1q-.45-.03-.9-.02l.04 1 .04 1q.32-.01.62.02zm-.76-.02-.05-1-.39.02.04 1 .04 1 .4-.02zm-.4.01-.04-1-.4.02.05 1 .04 1 .4-.02zm-.39.02-.04-1q-.23 0-.44-.05l-.29.95-.3.96q.55.16 1.11.14zm-.77-.1.3-.95-.38-.12-.3.95-.3.96.39.12zm-.38-.12.3-.95-.38-.12-.3.96-.29.95.38.12zm-.37-.11.29-.96-.04-.05-.86.53-.85.52q.4.67 1.16.91zm-.6-.48.85-.53-.23-.36-.85.52-.85.52.22.37zm-.23-.37.85-.52-.22-.37-.85.52-.86.52.23.37zm-.22-.37.85-.52q-.32-.55-.87-.89l-.52.85-.52.86q.08.04.2.22zm-.54-.56.52-.85-.31-.19-.52.85-.52.86.31.19zm-.31-.19.52-.85-.32-.19-.52.85-.52.86.32.19zm-.32-.19.52-.85-.7-.41-.49.88-.48.87.63.37zm-.67-.38.48-.88-.36-.2-.48.88-.48.87.36.2zm-.36-.2.48-.88-.36-.2-.48.88-.48.87.36.2zm-.36-.2.48-.88.04.04.02.04v.02l-.98.18-.98.2c.1.55.44 1 .94 1.27zm-.44-.6.99-.18-.08-.4-.98.19-.99.19.08.4zm-.07-.4.98-.18-.08-.4-.98.2-.98.18.07.4zm-.08-.39.98-.19a3 3 0 0 0-.41-1.07l-.85.53-.85.53q.1.16.15.39zm-.28-.73.85-.53-.21-.33-.85.53-.85.52.2.34zm-.21-.33.85-.53-.2-.34-.86.53-.85.53.21.33zm-.2-.34.84-.53v.02l.02.04v.03l-.96-.29-.96-.29q-.24.81.2 1.55zm-.1-.73.96.29.12-.4-.96-.28-.96-.29-.12.4zm.12-.4.96.3.11-.4-.95-.28-.96-.3-.12.4zm.12-.38.95.28q.24-.8-.17-1.54l-.87.5-.88.48.01.02v-.03zm-.1-.77.88-.49-.21-.37-.87.49-.88.49.21.37zm-.2-.37.87-.5-.21-.36-.87.48-.87.5.2.37zm-.21-.38.87-.48q.02 0 .02.12v.08l-.02.03-.87-.5-.86-.5a1.7 1.7 0 0 0-.01 1.74zm0-.74.87.5.22-.38-.87-.5-.87-.5-.21.38zm.22-.38.87.5.21-.38-.86-.5-.87-.5-.22.38zm.22-.37.86.5c.3-.53.34-1.13.07-1.69l-.9.44-.9.43-.02-.1q.02-.1.02-.08zm.03-.75.9-.44-.18-.37-.9.43-.9.43.18.38zm-.18-.38.9-.43-.18-.38-.9.44-.9.43.18.37zm-.18-.37.9-.44-.01-.03-.96-.28-.96-.28q-.21.76.13 1.46zm-.07-.75.96.27.1-.37-.95-.28-.96-.28-.11.38zm.1-.38.97.28.1-.38-.95-.27-.96-.28-.11.37zm.12-.37.96.27q.12-.41.2-.82l-.98-.2-.98-.2q-.06.33-.16.67zm.18-.75.98.2.08-.38-.98-.2-.98-.2-.08.38zm.08-.38.98.2.07-.37-.98-.2-.98-.2-.07.37zm.07-.37.98.2q.13-.78-.23-1.43l-.88.48-.87.48.02.06zm-.13-.75.88-.48-.2-.38-.88.48-.88.48.2.38zm-.2-.38.88-.48-.2-.37-.89.48-.87.48.2.37zm-.2-.37.87-.48.02.07q-.01.1-.02.11l-.9-.45-.9-.44c-.27.55-.24 1.14.05 1.67zm-.03-.75.9.45.18-.37-.9-.44-.89-.45-.18.37zm.19-.36.9.44.18-.36-.9-.45-.9-.45-.18.37zm.18-.37.9.45q.23-.45.35-.93l-.97-.25-.97-.24q-.05.24-.2.52zm.28-.73.97.25.09-.35-.97-.25-.97-.25-.1.36zm.09-.35.97.25.09-.36-.97-.25-.97-.24-.1.35zm.09-.36.97.25q.06-.25.18-.47l-.9-.46-.88-.46q-.22.44-.34.9zm.26-.68.89.46.16-.33-.89-.46-.89-.45-.16.32zm.16-.33.9.46.16-.33-.89-.45-.89-.46-.17.33zm.17-.32.89.45q.24-.48.34-1.02l-.99-.18-.98-.18q-.06.3-.15.47zm.24-.75.99.18.07-.42-.98-.18-.99-.18-.07.42zm.08-.42.98.18.08-.42-.99-.18-.98-.18-.08.42zm.07-.42.99.18-.01.02-.04.04-.51-.86-.51-.86c-.5.29-.8.76-.9 1.3zm.43-.62.5.86.35-.2-.5-.87-.51-.86-.35.2zm.34-.2.51.86.35-.2-.51-.87-.5-.86-.35.2zm.35-.21.5.86.69-.4-.51-.86-.51-.86-.68.4zm.68-.4.5.86.34-.2-.51-.85-.51-.86-.33.2zm.33-.2.5.87.34-.2-.51-.86-.51-.86-.33.2zm.33-.19.5.86q.27-.16.55-.27l-.37-.93-.37-.92q-.42.16-.82.4zm.68-.34.37.93.36-.14-.37-.93-.37-.93-.36.15zm.36-.14.37.93.35-.14-.37-.93-.37-.93-.35.14zm.35-.14.37.93q.05-.02.14 0l.24-.98.23-.97a2.2 2.2 0 0 0-1.35.1zm.75-.05-.24.98.4.1.23-.98.23-.97-.39-.1zm.39.1-.24.97.4.1.23-.98.23-.97-.39-.1zm.39.1-.24.97c.26.06.57.08.9-.03s.59-.34.76-.6l-.85-.54-.84-.53a.6.6 0 0 1 .3-.23q.2-.04.2-.02zm.57-.2.85.54.18-.29-.85-.53-.84-.53-.18.28zm.18-.28.85.53.18-.28-.85-.53-.84-.54-.18.29zm.18-.28.85.53.02-.04-.03.03-.1.1a.98.98 0 0 1-1.53-.56l-.03-.2h2q0-.08-.03-.26a1.02 1.02 0 0 0-1.61-.58q-.2.16-.25.25-.08.1-.13.2zm.18-.14h-1v.15h2v-.15zm0 .15h-1v.15h2v-.15zm0 .15h-1c0 .55.37.86.58.99.21.12.44.18.6.21l.2-.98.19-.98c-.09-.01-.05-.02.03.03q.09.04.24.22.16.2.16.51zm.38.22-.2.98.38.08.19-.98.2-.98-.38-.08z"/></g><rect width="131.5" height="97.5" x="1.25" y="1.25" stroke="#000" stroke-width="2.5" rx="13.75"/><defs><clipPath id="a"><rect width="134" height="100" fill="#fff" rx="15"/></clipPath></defs></svg>