<svg xmlns="http://www.w3.org/2000/svg" width="358" height="308" fill="none"><path fill="#F5F5F5" d="M3 25A22 22 0 0 1 25 3h307a22 22 0 0 1 22 22v257a22 22 0 0 1-22 22H25a22 22 0 0 1-22-22V25Z"/><path fill="#000" d="M39.9 0c1-.1 2.1 0 3.1.5l1 .4 1 .4h.7l1-.2 1-.3 2.5-.5h1l1-.1 2.2-.1h2c.8 0 1.7 0 2.5.3l1 .3 1 .3 2 .4 1 .3 1 .2 1.6.2h6l2-.2h1l1-.2 1.5-.3 1-.3 1-.4c.8-.3 1.7-.4 2.5-.5H87l1 .2 1 .1c.7 0 1.4.2 2 .3H92l1 .2 1.9.2h2l2 .2h2l1.5-.1 1-.3 1-.2c1-.3 2-.2 3 .1l2.1.6c.3.1.5.1.8 0l2-.7c.9-.2 1.8-.4 2.7-.4h5.1l1 .1 2.4.3 2 .5 1.8.3h1l1 .2h7.9l1.4-.1 1-.4 1-.3c1-.3 2.1-.4 3.2-.1l1 .3 1 .2h2.2l1-.2a18 18 0 0 1 2.3-.3h2c.8 0 1.7 0 2.5.2l2 .5c.6.2 1 .2 1.5.2h1l1-.1 1.5-.3 2-.7c1.2-.4 2.4-.3 3.5.2l1 .4 1 .4c.1.1.2 0 .4 0l1-.5 1-.4c1.2-.6 2.6-.5 3.8 0l1 .5 1 .5h.5l1-.3 1-.3a17 17 0 0 1 2.3-.6l1-.2 1-.1c1-.2 2.1-.1 3 .2l1.1.4 1 .4h.7l1-.3 1-.3c1-.3 2.1-.3 3.1 0l1 .1 1 .3 1.8.3 1 .1 1 .1h1.4l1-.3 1-.2c1-.2 2-.2 3 0l1 .2 1 .3h1.2l1-.1 1-.2 1.8-.4 2-.6a7 7 0 0 1 2.9-.2h1l1 .2h1.5l1-.1 1-.1a7 7 0 0 1 2.9.2l1 .3 1 .3 1.5.3h2a9 9 0 0 0 1.6-.1l1-.2 1-.2 2.4-.2h2l2.3.1 2 .3c.8 0 1.5.2 2.2.3l1 .3 1 .2.8-.1 1-.5 1-.5c1-.4 2-.6 3-.6h2l2.5.5 2 .7h.8l1-.4 1-.4a5 5 0 0 1 3.3 0l1 .3 1 .3 1.8.5 1 .1 1 .2h2.4l1-.1 2-.3 2-.3 2.4-.1h2c.8 0 1.5.1 2.3.3l2 .3 1.9.2h1l1 .1c.3 0 .6 0 1-.2l2-1c1-.6 2.3-.7 3.5-.4l1 .3 1 .3h1l1-.2 1-.3a7 7 0 0 1 2.8 0l1 .1 1 .2c.7 0 1.4.2 2 .3l1 .1 1 .2 2 .2 2 .2 1.3-.1 1-.3 1-.2c1-.3 2.1-.2 3.1 0l1 .4 1 .3c.5.1 1 .2 1.4.1h2l2.1-.2h2a9 9 0 0 1 2.5.4l1 .2.9.3 2.1.8 1 .4.9.4 1.8.8 1 .3 1 .4c1.1.5 2 1.3 2.5 2.4l.5 1 .4 1 .9 2 .3 1 .3 1 .7 1.2.6.9.6.8c.5.7.8 1.6 1 2.5l.2 1 .2 1c.2.8.2 1.7.1 2.6v1l-.2 1v3.7l.3 1.5.4 1 .3 1a5 5 0 0 1 0 3.3l-.3 1-.4 1v1l.5 2c.2.8.3 1.6.3 2.5v2c-.1.5 0 1 0 1.6l.2 1 .2 1c.1 1 0 2-.2 3l-.3 1-.2 1c-.1.4-.2.7-.1 1l.2 1 .2 1a7 7 0 0 1 0 3l-.3 1-.2 1-.3 1.7v1l-.2 1v2.8l.1 1 .3 1.5.4 1 .3 1c.4 1.1.4 2.3 0 3.4l-.4 1-.4 1-.3 1.4v1l-.1 1 .1 1.5.3 1 .2 1c.2.9.3 1.8.2 2.7l-.1 1-.2 1 .1 1.2.3 1 .4 1c.3 1.2.2 2.4-.3 3.5l-.9 2a1 1 0 0 0 0 .7l.2 1 .2 1c.3 1 .3 2 0 3l-.4 2v1.2l.2 1 .2 1 .2 2.4v2l-.1 2.2v1l-.1 1v1.5l.3 1 .2 1c.3 1 .3 2 0 2.9l-.2 1-.3 1-.1 1.6v3.9l.2 1v1l.2 2 .1 1 .2 1-.1 2.5-.3 2c-.2.7-.2 1.2-.2 1.8v1l-.1 1c0 .5 0 1 .2 1.4l.3 1 .3 1c.2.8.4 1.7.4 2.5l.1 1v1c.1.9 0 1.8-.1 2.6l-.3 1-.2 1v1.2l.2 1 .2 1c.2 1 .1 2-.1 3l-.6 2v1.1l.1 1 .2 1c.1 1 .2 1.8 0 2.7v1l-.2 1v1.4l.2 1 .2 1 .3 2.4v5.2l-.1 1-.2 2.1-.2 1v1c-.2.6-.2 1.1-.1 1.7v1l.1 1v2.4l-.1 1-.1 1-.3 2.1-.2 1-.2 1-.2 1.8v2c-.1.6 0 1.1 0 1.6l.2 1 .2 1 .4 1.9.3 1 .3 1c.3 1 .3 2 0 3.1l-.3 1-.3 1-.5 2-.3 1-.3 1-.2 1.5v1l.1 1 .3 1.3.4 1 .5 1c.4 1.2.5 2.3 0 3.5l-.3 1-.4 1v.7l.4 1 .4 1c.3 1 .4 2 .2 3l-.2 1-.2 1.1v1.2l.3 1 .2 1c.3 1.2.2 2.3-.4 3.4l-.5 1-.5 1v.2l.5 1 .5 1a5 5 0 0 1 .5 3.4l-.2 1-.3 1-.2 1.7v2l.1 1.4.3 1 .3 1c.3 1 .3 2 0 3.1l-.3 1-.3 1v1l.2 1 .3 1.1c.2 1 .2 1.8 0 2.7v1l-.2 1-.2 1.9v2c0 1-.2 1.8-.6 2.7l-.4 1-.4.9c-.2.5-.4 1-.5 1.7l-.3 1-.3 1c-.2.8-.5 1.6-1 2.3l-.4 1-.5.8c-.5.9-1.1 1.6-1.9 2.2l-.8.6-.8.7a9 9 0 0 1-2.3 1.3l-1 .4-.9.4-1.5.7-.9.6-.9.5a6 6 0 0 1-2.8.9h-2l-1.4.4-1 .3-1 .4c-1.2.4-2.4.4-3.5-.1l-2-1-1-.1-1 .1-1 .1h-3.5l-1-.2-1.2.1-2 .6c-1 .3-1.8.5-2.7.4h-2l-2.2-.1-1-.1-1-.1h-3.7l-2.2.1h-2a14 14 0 0 1-2.4-.3l-1-.2-1-.2h-1l-1 .4-1 .4c-1 .3-2 .5-3 .3h-1l-1-.2-1.9-.2h-1l-1-.2h-1.7l-1 .2-1 .1-1.8.3-1 .2-1 .2c-1 .1-2 .1-3-.1l-1-.3-1-.3-1.4-.1h-2l-1.7.2-2 .5-2.4.3h-1l-1 .1c-.9 0-1.8 0-2.6-.2l-2-.6h-1.2l-2 .3-2.2.2-1 .1-1 .1h-2.5l-1-.1-1-.2-2.1-.3-1-.2-1-.1-1.7-.2h-2c-.6 0-1.2 0-1.7.2l-1 .1-1 .2h-3.6l-1-.1h-1.5l-1 .2-1 .1-2.4.2h-2l-2.1-.1-1-.1h-1a19 19 0 0 1-2.3-.3l-2-.4a7 7 0 0 0-1.6 0h-2l-2.1.1h-2c-.9 0-1.7 0-2.5-.2l-1-.2-1-.2a9 9 0 0 0-1.6-.2h-2c-.4 0-.8 0-1.2.2l-1 .5-1 .5c-1 .5-2.2.7-3.4.4l-1-.3-1-.2c-.6-.2-1.1-.3-1.7-.3h-1l-1-.1-2-.2-2-.2h-4c-.3 0-.8 0-1.2.2l-1 .4-1 .4c-1 .4-2.1.5-3.2.3l-1-.3-1-.2a52 52 0 0 0-2-.3l-1-.2-1-.2a4 4 0 0 0-1.3 0l-2 .4-2.3.2h-1l-1 .1c-.8 0-1.7 0-2.5-.2l-1-.1-1-.2-1.7-.1h-2c-.6-.1-1 0-1.6 0l-1 .3-1 .3c-1 .2-2 .2-3-.1l-1-.4-1-.3-1.5-.2h-6.1l-2-.1H124l-1 .2h-1c-.5 0-1 .2-1.5.4l-1 .3-1 .4a5 5 0 0 1-3.3 0l-1-.3-1-.4a7 7 0 0 0-1.6-.3l-1-.1h-2.2l-1 .5-1 .4c-1.1.4-2.3.4-3.4 0l-1-.3-1-.4-1.5-.3h-1l-1-.2h-2.8l-1 .1-1.5.3-2 .8c-1 .3-2.1.4-3.2 0l-1-.2-1-.3a2 2 0 0 0-1 0l-1 .3-1 .2-2.5.3h-1l-1 .1c-1 0-1.9-.1-2.7-.4l-1-.3-1-.4-1.5-.2h-2a3 3 0 0 0-1.2.2l-1 .5-1 .4c-1 .4-2.2.6-3.3.3l-1-.2-1-.2-2-.5-1-.2-1-.3a3 3 0 0 0-1.3 0l-1 .2-1 .1c-.7.2-1.5.3-2.2.3h-1l-1 .2-2 .1-1 .1-1 .2h-2.5l-1-.1-1-.1-1.9-.2h-2L35 306h-4.2l-2-.2h-1.6l-1 .1-1 .2c-1.2.2-2.2 0-3.2-.6l-1-.5-.9-.5c-.3-.2-.7-.3-1-.3H17l-2.5-.5-1-.2-1-.3c-1.3-.3-2.2-1-2.9-2l-.6-1-.5-.8-1.2-1.6-1.2-1.5-1.3-1.4-1.5-1.5a4 4 0 0 1-1-3.7l.1-1.1.2-1.1v-1l-.4-1-.3-1a17 17 0 0 1-.6-2.1l-.3-1-.2-1c-.2-1-.2-2 0-3l.2-1 .2-1c.1-.4.2-.9.1-1.3v-1l-.2-1v-5.9l-.2-1-.2-1c-.2-1.1-.1-2.2.3-3.2l.5-1 .4-1v-.6l-.4-1-.4-1a7 7 0 0 1-.4-2.8v-2c0-.8.2-1.5.3-2.3l.1-1 .2-1-.1-1-.4-1-.3-1c-.4-1-.5-2-.4-3v-1l.2-1c0-.8.3-1.6.5-2.4l.3-1 .4-1v-1l-.1-1-.2-1.1-.3-2.3v-2c0-.8 0-1.7.2-2.5l.2-1 .1-1v-2.4l-.2-1c0-.6-.2-1.2-.4-1.8l-.5-2a6 6 0 0 1 0-3l.2-1 .3-1 .4-2 .2-1 .2-1 .3-1.9.1-1 .1-1 .1-1.6v-2l-.3-1.9-.1-1-.2-1c-.2-.9-.2-1.7 0-2.6l.3-2-.1-1.1-.4-1-.3-1c-.3-.8-.5-1.7-.6-2.5v-1l-.2-1c0-1 0-1.9.3-2.8l.2-1 .3-1v-1l-.3-1-.3-1c-.2-.8-.3-1.6-.3-2.5v-2c0-1 .2-2 .7-3l.5-1 .5-1 .3-1.1v-5l-.1-1-.3-1.2-.6-1-.5-1a4 4 0 0 1 0-3.9l.6-1 .6-1v-.6l-.1-1-.3-1a11 11 0 0 1-.3-2.5v-6.1l.4-2.4.2-1 .2-1v-.8l-.5-1-.5-1a4.5 4.5 0 0 1 0-3.6l.5-1 .4-1v-.9l-.2-1-.2-1c-.2-.8-.3-1.7-.2-2.5v-2l.2-2.3.2-1 .1-1 .2-1.8v-1l.1-1-.1-1.5-.3-1-.2-1a46 46 0 0 0-.6-2l-.3-1-.3-1c-.2-.8-.3-1.7-.3-2.6v-2c0-1 .3-2 .8-2.9l.5-1 .4-1c.2-.3.2-.5.1-.6l-.2-1-.2-1c-.3-1-.3-2 0-3l.1-1 .3-1v-1l-.3-1-.3-1c-.3-1.1-.3-2.1 0-3.2l.2-1 .3-1L2 76v-1l.1-1c0-.3 0-.7-.2-1l-.5-1.1-.4-1a4.4 4.4 0 0 1 0-3.6l.8-2a1 1 0 0 0 0-.8l-.2-1-.3-1c-.2-1-.2-2 0-3l.2-1 .2-1v-1l-.4-1-.3-1c-.3-1-.4-2-.2-3l.3-2 .2-1.9.1-1 .1-1v-1.4l-.2-1-.2-1c-.2-1-.1-2.1.2-3L2 37v-1l-.2-1-.3-1-.4-2.1-.1-1-.2-1a13 13 0 0 1 0-2.4v-2c0-1 .3-2 .7-2.8l1-2 .2-1v-1l-.1-1c-.1-1.3.4-2.4 1.3-3.3l1.5-1.5.9-1 .5-.9.4-.9 1.5-2L10 6.7c.6-.6 1.2-1.2 2-1.6L13.5 4c.6-.5 1.3-.9 2-1.2l1-.4 1-.4c1-.5 2-.6 3.1-.4l1 .2 1.1.2H23.1l.4-.3 1.2-.5A7 7 0 0 1 26 1l1-.1 1-.1c1-.1 2 0 2.9.3l1 .4 1 .3h.7l1-.4 1-.3 2.3-.6 1-.2 1-.2ZM5.2 144.8c0 .5 0 1 .2 1.6l.2 1 .3 1c.3 1.2 0 2.4-.5 3.4l-.6 1-.5 1v.1l.5 1 .5 1c.5 1 .8 2 .8 3v6c.1 1.1-.2 2.1-.6 3l-.5 1-.6 1c-.2.5-.2.8-.2 1.1v2c0 .5 0 1 .2 1.6l.3 1 .3 1c.2 1 .2 2 0 3l-.3 1-.3 1v2.4l.1 1c0 .5.2 1 .4 1.6l.3 1 .4 1c.3 1 .4 2 .2 3l-.1 1-.2 1v1.4l.4 2L6 199v1l.1 1v2.4l-.2 1-.2 1c0 .8-.2 1.5-.3 2.2l-.2 1-.2 1-.4 2.1-.3 1-.2 1v1l.2 1 .3 1.1.5 2.3.1 1 .1 1c.2.9.1 1.8 0 2.6l-.4 2-.1 1.7v2l.2 1.7.2 1 .2 1c.2 1 0 2-.2 3l-.4 1-.3 1a8 8 0 0 0-.3 1.6l-.1 1-.1 1 .1 1.2.4 1 .4 1c.3 1 .4 2 .3 3l-.2 1-.2 1a16 16 0 0 0-.1 1.8l-.1 2c0 .4 0 .8.2 1.3l.4 1 .4 1c.4 1.2.4 2.4-.1 3.5l-.5 1-.4 1c-.1.4-.2.6-.1.9l.2 1 .2 1c.2.8.2 1.7.2 2.5l-.1 2v1.8l.1 1 .1 1c0 .9 0 1.8-.2 2.6l-.2 1-.2 1v1.2l.2 1 .2 1 .5 1.7.7 1.9c.4 1 .5 2 .3 3l-.2 1.2-.2 1.1v.1l.7.8.8.8 1.5 1.7.6.7.7.8 1.3 1.9L13 299c.1.2.2.3.4.3l1 .3 1.1.3 1.7.2h1l1 .1c1 0 2 .3 2.8.8l1 .5.9.5c.2.1.5.2.7.1l2-.2c.9-.2 1.7-.2 2.5-.1l2 .2h7l1 .1 2.2.2h1l1 .2h1.6l1-.1 1-.2 2.1-.1 1-.1h1l1.8-.3 1-.2 1-.1a7 7 0 0 1 2.9 0l1 .3 1 .2 2 .5 1 .2 1 .2h.8l1-.5 1-.4a7 7 0 0 1 2.8-.6h2c1 0 1.8.1 2.7.4l2 .7c.5.2 1 .2 1.3.2h2c.6 0 1.1-.1 1.7-.3l1-.2 1-.3c1-.2 2-.2 3 0l1 .3 1 .3h.9l1-.4 1-.3c.8-.3 1.7-.5 2.6-.6h5.3l1 .1c.8 0 1.7.2 2.5.5l1 .4 1 .3h.7l1-.4 1-.4c1-.3 2-.5 3-.4l1 .1 1 .1c.8 0 1.6.3 2.4.5l1 .4 1 .3h.7l1-.4 1-.3c.9-.3 1.7-.5 2.6-.5l1-.1 1-.1 2.2-.1h6.1l2 .1h2c.9 0 1.8.1 2.6.4l1 .3 1 .3h1l1-.2 1-.2c.8-.2 1.7-.3 2.5-.3h2l2.4.3 1 .1 1 .2 1.6.1h1l1-.1c.6 0 1.2 0 1.8-.2l1-.2 1-.1a8 8 0 0 1 2.7 0l2 .3 2.1.4 1 .2 1 .2h1l1-.4 1-.4c.8-.4 1.7-.6 2.7-.5h4.2l1 .1 1 .1 2 .2h1l1 .1c.8 0 1.6.2 2.4.4l1 .2 1 .3.6-.1 2-1c1-.5 2-.7 3-.7h2l2.4.3 1 .2 1 .3 1.6.1h4l2-.2c.8 0 1.7 0 2.5.2l1 .2 1 .1 1.8.2h1l1 .2h5.6l1-.2 1-.1c.9-.2 1.7-.2 2.6-.1h1l1 .2h1.5l1-.2 1-.2 2.4-.2h2c.8 0 1.6 0 2.3.2l1 .2 1 .2 2 .3 1 .1 1 .1c.5.1 1 .1 1.6 0h1l1-.1 2-.3 1-.1 1-.2c.9-.2 1.9-.1 2.8.2l1 .2 1 .3 1.4.2 1-.1h1l1.7-.3 2-.5 2.4-.3h2c1 0 1.8 0 2.6.3l1 .2 1 .3h1.2l2-.3 2.2-.4h1l1-.2h3.4l1 .1 2.2.2 1 .1 1 .2c.3 0 .7 0 1-.2l1-.3 1-.4c1-.3 2.1-.4 3.2-.2l1 .2 1 .2 1.7.2h4.8l1-.1h3.4l1 .2h1.9l1 .1h1c.4 0 .9 0 1.4-.2l1-.3 1-.3c1-.3 1.9-.4 2.9-.3l1 .1 1 .2h1.5l1-.2h1c1-.2 2.1 0 3.1.4l1 .5 1 .4h.5l1-.3 1-.4c.8-.3 1.7-.5 2.6-.5h1l1-.1a2 2 0 0 0 1-.3l.8-.5.9-.6a14 14 0 0 1 2.1-1l1-.4 1-.4a5 5 0 0 0 1.2-.8l.8-.6.8-.6.9-1 1-1.8.6-1.5.2-1 .3-1 .7-2.1.4-1 .4-1c.2-.3.3-.8.3-1.2v-2l.2-2.3.2-1 .1-1v-1.3l-.5-2c-.2-1-.2-2 0-3l.4-1 .2-1v-1l-.3-1-.2-1c-.2-.9-.4-1.8-.3-2.6v-2c0-.9.1-1.7.3-2.5l.3-1 .2-1-.1-.7-.5-1-.6-1a4.1 4.1 0 0 1 0-3.8l.5-1 .6-1v-.7l-.2-1-.2-1c-.3-1-.3-1.9-.1-2.9l.2-1 .2-1-.1-1-.4-1-.3-1a4.9 4.9 0 0 1 0-3.3l.3-1 .4-1v-.6l-.4-1-.5-1c-.3-1-.6-1.8-.6-2.8v-2c-.1-.9 0-1.8.3-2.6l.2-1 .3-1 .6-2 .3-1.1.3-1v-.9l-.6-2-.5-2.2-.2-1-.2-1c-.2-.9-.2-1.7-.2-2.6v-1l.1-1 .3-2.2.1-1 .2-1 .3-2v-1l.2-1c0-.5.1-1 0-1.6v-1l-.1-1v-2.5l.2-1v-1c.2-.6.2-1.2.3-1.9v-2l.1-1.8v-2c0-.6 0-1.2-.2-1.7l-.4-2c-.2-1-.2-1.8 0-2.7v-1l.2-1v-1.4l-.2-1-.2-1c-.2-1-.1-2 .1-3l.3-1 .3-1v-1l-.1-1-.3-1.1c-.1-1-.1-2 .1-2.9l.2-1 .3-1v-3.4c0-.6-.2-1-.3-1.6l-.3-1-.4-1-.3-2.7v-2c0-.8.2-1.6.3-2.3l.2-1 .2-1v-1.5l-.2-2-.3-2.1v-1l-.1-1v-2.2l-.1-2c0-.8 0-1.7.3-2.5l.2-1 .2-1v-1.2l-.2-1-.2-1c-.2-.8-.3-1.7-.2-2.5v-1l.1-1v-3l.1-1-.2-1.6-.3-2a7 7 0 0 1 0-2.9l.2-1 .2-1v-1.1l-.2-1-.3-1a5 5 0 0 1 .4-3.3l.9-2V95l-.3-1-.3-1c-.3-1-.4-1.9-.3-2.9l.2-1 .1-1V87l-.6-2c-.2-.8-.2-1.7-.2-2.6v-2c.1-.9.3-1.8.7-2.6l.3-1 .4-1V75l-.3-1-.4-1-.5-2.6-.1-2V66l.2-1v-1l.4-2.3.2-1 .3-1v-1.2l-.2-1-.2-1c-.2-1-.2-2 .1-3l.3-1 .3-1v-1.1l-.1-1-.2-1c-.2-.9-.2-1.7-.2-2.5v-2l-.1-1.5-.3-1-.2-1c-.3-1-.2-2.1.1-3.2l.4-1 .3-1v-.7l-.3-1-.4-1c-.3-.9-.4-1.7-.5-2.6v-4.3l.2-2v-1.4l-.4-2c0-.4-.2-.7-.4-1l-1.2-1.7c-.5-.7-.8-1.4-1.1-2.2l-.4-1-.3-1a18 18 0 0 0-.7-1.7l-.5-1-.4-.9c-.1-.2-.2-.3-.4-.3l-1-.4-1-.4a53 53 0 0 1-2-.9l-.9-.4-.9-.4-1.6-.5-1-.3-1-.3-1.3-.2h-2l-1.9.1h-1l-1 .1c-1 0-1.8 0-2.7-.3l-1-.3-1-.3h-1l-2 .5a8 8 0 0 1-2.7.2l-1-.1-1-.1-2.1-.3-1-.1-1-.2-2.1-.3-1-.2-1-.1a3 3 0 0 0-1.3 0l-1 .3-1 .2a6 6 0 0 1-3 0l-1-.3-1-.3h-.6l-1 .6-1 .5c-1 .5-2 .7-3 .6l-2.1-.1a25 25 0 0 1-2.2-.3l-1-.1-1-.2-1.8-.2H283l-2 .4-2 .2-1.1.1-1 .2-2.6-.1-1-.2-1-.2-2.3-.6-1-.3-1-.4a1 1 0 0 0-.7 0l-1 .4-1 .4a5 5 0 0 1-3.4 0l-1-.2-1-.4-1.5-.2h-2c-.3 0-.7 0-1.1.2l-1 .4-1 .5c-1 .5-2.2.6-3.3.4l-2-.5-1.9-.3-1-.1-1-.1-1.7-.1h-2c-.6 0-1.2 0-1.8.2l-1 .1-1 .2-2.4.2h-2c-.9 0-1.7-.2-2.5-.4l-2-.6a3 3 0 0 0-1.3-.1h-1l-1 .2h-2.5l-1-.1-1-.2a3 3 0 0 0-1.3.1l-1 .3-1 .3c-.7.3-1.5.4-2.2.5l-1 .2-1 .2c-1 .1-2 0-2.8-.1l-1-.3-1-.2h-1.2l-1 .2-1 .3c-.9.2-1.8.2-2.7.1l-1-.1-1-.1-2.3-.4-1-.3-1-.2h-1l-1 .3-1 .4A5 5 0 0 1 189 5l-1-.3-1-.4c-.4-.1-.7-.2-1-.1l-1 .2-1 .2c-.6 0-1.2.2-1.7.4l-1 .3-1 .4c-1.3.4-2.5.3-3.6-.3l-1-.5-1-.5H174.4l-2 1c-1.2.5-2.5.5-3.7 0l-2-.9h-.6l-1 .3-1 .4c-.8.3-1.7.4-2.6.5h-2c-.9.1-1.7 0-2.6-.2l-1-.2-1-.3c-.5 0-1-.2-1.5-.1h-2l-1.8.2-1 .2-1 .1c-1 .2-1.9.1-2.8-.1l-1-.3-1-.2h-1l-1 .3-1 .4a8 8 0 0 1-2.7.4h-6l-2.2-.1-2-.2c-.8 0-1.5-.2-2.3-.4l-1-.2-1-.3-1.7-.2-2-.1H115c-.5 0-1 0-1.4.2l-1 .4-1 .3c-1.1.4-2.2.4-3.3 0l-1-.3-1-.3h-1l-1 .2-1 .3c-.8.2-1.7.3-2.5.2h-2l-2-.1h-1.1l-1-.1-2.2-.2-1-.1-1-.2-2-.2-1-.2h-1c-.6-.2-1.2-.2-1.7-.2l-2 .1-1.5.3-1 .4-1 .3c-.9.3-1.7.5-2.6.5h-1l-1 .2-2 .1h-2l-2.2.1h-2a11 11 0 0 1-2.5-.3l-1-.2-1-.3-2-.5-1-.3-1.1-.2c-.5-.2-1-.2-1.5-.2h-3.9l-1 .1-1 .1-1.6.3-1 .3-1 .3a5 5 0 0 1-3.4-.2l-1-.4-1-.5h-.9l-1 .1-1 .2c-.6 0-1.2.3-1.7.5l-2 .7a5 5 0 0 1-3.4 0l-1-.4-1-.3c-.4-.2-.8-.2-1.2-.2l-2 .2-.5.1-.4.2-.4.3a3 3 0 0 1-1.6.6L22 6l-1-.3-1-.2-.8.1-1.9.9-1.5.8-1.7 1.1-1.1 1-.7.7-.7.8a6 6 0 0 0-.9 1.2l-.4.8-.5.9c-.4.7-1 1.4-1.6 2l-1.6 1.5v2.2c.1 1.1-.1 2.1-.6 3l-.4 1-.5 1c-.2.3-.3.7-.3 1l-.1 2.1a9 9 0 0 0 0 1.7l.2 1 .2 1 .3 1.8.5 2c.3 1 .2 2.2-.1 3.2l-.7 2v1l.1 1 .2 1c.2.9.2 1.8.1 2.6v1l-.2 1c0 .8-.2 1.5-.3 2.2L5 51l-.2 1 .1 1 .3 1 .4 1c.3 1 .4 2.1.1 3.2l-.2 1-.2 1v1l.3 1 .2 1.1a5 5 0 0 1-.2 3.3l-1 2 .1.4.4 1 .5 1c.4 1 .7 2 .6 3v1l-.1 1c-.1.8-.2 1.7-.5 2.5l-.2 1-.3 1v1l.3 1 .3 1c.3 1 .3 2 0 3l-.4 2v1l.3 1.1.2 1a5 5 0 0 1-.4 3.4L5 96l-.5 1c-.3.4-.3.8-.4 1.2v2c0 .5 0 1 .2 1.4l.3 1 .3 1 .5 2.1.3 1 .2 1 .3 2.6v2l-.3 2.3-.2 1-.1 1-.2 1.8v2l.1 1.5.2 1 .3 1c.2 1.2 0 2.2-.3 3.3l-.9 2v.5l.5 1 .4 1c.4 1 .6 2.1.3 3.2l-.2 1-.2 1-.2 1.7v6Z"/><path fill="#000" d="M32 32.6c0-.4 0-.8.4-1.1.3-.3.6-.5 1-.5.5 0 .9.2 1.2.5.3.3.4.7.4 1.1 0 .4-.1.8-.4 1.1-.3.3-.7.5-1.1.5-.5 0-.8-.2-1.1-.5-.3-.3-.5-.7-.5-1ZM48.7 34h-1a91.2 91.2 0 0 0-.2 4.6l-.5.2c-.2 0-.4 0-.5-.2a.8.8 0 0 1-.2-.5v-2.3a51.5 51.5 0 0 1 .3-6.5V27c.2-.5.4-.7.8-.6l.7-.1h1.2c1 0 1.8.3 2.7 1 .9.7 1.3 1.5 1.3 2.5 0 1.3-.5 2.3-1.4 3.1-1 .7-2 1-3.2 1Zm.4-6.2a10.8 10.8 0 0 0-1 .1v1.4l-.3 3.1 1 .2c.8 0 1.5-.3 2.1-.7.7-.5 1-1.2 1-2 0-.6-.3-1-1-1.5-.5-.4-1.1-.6-1.8-.6Zm7.8 4.7-.1 3.9-.1 1.8c0 .5-.3.8-.8.8s-.7-.3-.7-.8a68.3 68.3 0 0 1 .1-5.7 116.1 116.1 0 0 1 .1-5.7c0-.5.3-.7.8-.7s.8.2.8.7a117 117 0 0 1-.1 5.7Zm8.5 6.6c-.1 0-.3 0-.6-.3l-.5-.6-1.3.6-1 .3c-1.2 0-2-.4-2.6-1-.5-.7-.8-1.7-.8-3s.4-2.4 1.3-3.3a4 4 0 0 1 4.6-1c.7.3 1 .7 1 1v.5l-.2 1a36 36 0 0 0 .1 3.2 11.8 11.8 0 0 0 .7 1.8v.1c0 .2 0 .4-.2.5-.2.2-.3.2-.5.2Zm-1.6-5.4A7.3 7.3 0 0 1 64 32l-.5-.2a1 1 0 0 0-.3 0c-.8 0-1.5.3-2 1-.7.6-1 1.4-1 2.2 0 .9.2 1.5.5 2 .3.4.7.6 1.3.6.5 0 1-.1 1.3-.3.2 0 .5-.3.8-.6-.2-1.4-.2-2.4-.2-3Zm9.7 5.5c-.5 0-.7-.3-.8-.8l-.2-1.7a14.5 14.5 0 0 1 0-3.2c0-1-.3-1.6-.7-1.6-.6 0-1.1.3-1.7 1a7 7 0 0 0-1 2.4l-.2.8a6.4 6.4 0 0 0 0 1.4v.7l-.1.6-.6.2c-.2 0-.4 0-.5-.2a.8.8 0 0 1-.2-.6l-.1-.7v-.7a30.9 30.9 0 0 1 .2-4.5 12.8 12.8 0 0 0 0-1.4l.1-.6.6-.2c.5 0 .7.3.8 1v1c.9-1.2 1.8-1.8 2.7-1.8.8 0 1.4.3 1.8 1 .2.6.3 1.3.3 2.3V35c0 .4 0 1 .2 1.6l.1 1.7c0 .2 0 .4-.2.6l-.5.2Zm14.3-7.5a28.2 28.2 0 0 0 .2 6.4c0 .2 0 .4-.2.6l-.5.2c-.4 0-.6-.3-.7-.7l-1.2.6-1.3.2c-1 0-2-.4-2.7-1-.7-.8-1-1.8-1-3 0-1.3.3-2.4 1-3.3.8-.8 1.7-1.2 3-1.2.5 0 1 0 1.3.3l.8.5.2-4.4c0-.5.3-.7.7-.7.5 0 .7.2.7.7 0 .8 0 2.4-.3 4.8Zm-3.4.2c-1 0-1.6.3-2 .8-.5.5-.7 1.3-.7 2.4 0 .6.3 1.2.7 1.7.5.5 1 .7 1.7.7.5 0 .8 0 1.1-.2a6 6 0 0 0 1.1-1v-3.1c-.2-.4-.4-.7-.8-1-.3-.2-.7-.3-1.1-.3ZM93 39a3 3 0 0 1-2.3-1c-.7-.7-1-1.7-1.1-2.9a5 5 0 0 1 .9-3c.7-1.1 1.7-1.7 3-1.7 1 0 1.9.5 2.4 1.5.4.7.6 1.7.6 2.7a5 5 0 0 1-.9 3c-.7 1-1.5 1.4-2.6 1.4Zm.4-7c-.7 0-1.3.4-1.8 1.1a4 4 0 0 0-.5 2c0 .8.2 1.4.7 1.8.3.3.7.5 1.2.5s1-.2 1.4-.6c.4-.4.6-1 .7-1.8 0-2-.5-3-1.7-3Zm8.4 6.8c-.5 0-1.1 0-1.7-.2v3.7c0 .2-.1.4-.3.5-.1.2-.3.3-.5.3l-.6-.3a.8.8 0 0 1-.2-.5V33l-.2-1.7c0-.3 0-.6.2-.9.2-.3.4-.5.7-.5.2 0 .4.1.5.3l.2.5v.7l1.2-.7c.4-.2.8-.2 1.2-.2 1 0 1.9.4 2.4 1.4.4.7.5 1.7.5 3 0 1-.3 2-.9 2.7-.6.8-1.5 1.2-2.5 1.2Zm.5-6.8c-.5 0-.9.1-1.3.3l-1 .9v3.7l1.8.3c.6 0 1.1-.2 1.5-.7.3-.4.4-1 .4-1.6a5 5 0 0 0-.3-2.2c-.3-.4-.6-.7-1-.7Zm10.8 7s-.3 0-.5-.3c-.3-.2-.4-.4-.5-.6l-1.4.6c-.3.2-.7.3-1 .3-1.1 0-2-.4-2.6-1-.5-.7-.8-1.7-.8-3s.5-2.4 1.3-3.3c.9-.9 2-1.3 3.1-1.3.5 0 1 0 1.6.3.7.3 1 .7 1 1l-.1.5-.2 1a35.9 35.9 0 0 0 .1 3.2 12 12 0 0 0 .7 1.8v.1c0 .2 0 .4-.2.5-.1.2-.3.2-.5.2Zm-1.6-5.4a7.3 7.3 0 0 1 .2-1.6l-.5-.2a1 1 0 0 0-.4 0c-.8 0-1.5.3-2 1-.6.6-1 1.4-1 2.2 0 .9.2 1.5.5 2 .3.4.8.6 1.4.6.5 0 1-.1 1.3-.3l.7-.6-.2-3Zm9-1c-.3 0-.5-.2-.6-.4l-.2-.8c-.4 0-1 .3-1.8.5-.9.4-1.3.8-1.3 1.3h.5c1.2.3 2 .6 2.6 1 .9.5 1.3 1.3 1.3 2.3 0 .9-.4 1.5-1 2-.7.3-1.5.5-2.4.5-.7 0-1.3-.1-2-.3-.8-.3-1.2-.7-1.2-1.3 0-.2.1-.4.3-.5.2-.2.3-.2.5-.2s.4 0 .7.3l.8.3.9.1 1.2-.1c.4-.2.7-.4.7-.8 0-.7-.5-1.1-1.5-1.4l-.8-.2c-.7-.1-1.2-.3-1.5-.5-.4-.3-.6-.7-.6-1.3 0-1.1.5-1.9 1.5-2.4l1.5-.5c.7-.1 1.2-.3 1.5-.5h.7l.5.1.3.6v.7l.1.6c0 .3 0 .4-.2.6l-.5.2ZM126 39a3 3 0 0 1-2.2-1c-.7-.7-1.1-1.7-1.1-2.9a5 5 0 0 1 .9-3c.7-1.1 1.7-1.7 3-1.7 1 0 1.8.5 2.4 1.5.4.7.6 1.7.6 2.7a5 5 0 0 1-1 3c-.6 1-1.5 1.4-2.6 1.4Zm.5-7c-.8 0-1.4.4-1.8 1.1a4 4 0 0 0-.5 2c0 .8.2 1.4.6 1.8.4.3.8.5 1.2.5.6 0 1-.2 1.4-.6.5-.4.7-1 .7-1.8.1-2-.4-3-1.6-3Zm14.4-.5a96.5 96.5 0 0 1-2.3 7.3c-.2.2-.5.4-.8.4-.6 0-1-.8-1.3-2.2l-.3-1.8-.3-1.7-.6 1.5-1.2 3.2c0 .2-.2.3-.3.4-.2.3-.4.5-.8.5s-.7-.7-1.1-2.3l-.6-3.3-.2-1.2v-1.1c0-.3 0-.4.2-.6l.5-.2c.4 0 .7.2.8.6l.1 1.2.1 1.1.5 3.5 1.8-5.5c.2-.6.5-.9.9-.9s.7.4.8 1a53.1 53.1 0 0 1 1 5.9l.7-2.1 1-4.3c0-.3.3-.5.6-.5l.6.2.3.6-.1.3Zm7.7 7.5c-.1 0-.3 0-.6-.3l-.5-.6-1.3.6-1 .3c-1.2 0-2-.4-2.6-1-.5-.7-.8-1.7-.8-3s.4-2.4 1.3-3.3a4 4 0 0 1 4.6-1c.7.3 1 .7 1 1v.5l-.2 1a35.9 35.9 0 0 0 0 3.2 11.7 11.7 0 0 0 .8 1.8v.1c0 .2 0 .4-.2.5-.2.2-.3.2-.5.2Zm-1.6-5.4a7.3 7.3 0 0 1 .1-1.6l-.5-.2a1 1 0 0 0-.3 0c-.8 0-1.5.3-2 1-.7.6-1 1.4-1 2.2 0 .9.2 1.5.5 2 .3.4.7.6 1.3.6.5 0 1-.1 1.3-.3.2 0 .5-.3.8-.6-.2-1.4-.2-2.4-.2-3Zm9.7 5.5c-.5 0-.7-.3-.8-.8l-.2-1.7a14.4 14.4 0 0 1 0-3.2c0-1-.3-1.6-.7-1.6-.6 0-1.1.3-1.7 1a7 7 0 0 0-1 2.4l-.2.8a6.2 6.2 0 0 0 0 1.4v.7l-.1.6-.6.2c-.2 0-.4 0-.5-.2a.8.8 0 0 1-.2-.6l-.1-.7V34.5a29.2 29.2 0 0 0 .1-3.7c0-.3 0-.4.2-.6l.6-.2c.5 0 .7.3.8 1v1c.9-1.2 1.8-1.8 2.7-1.8.8 0 1.4.3 1.7 1 .3.6.4 1.3.4 2.3V35c0 .4 0 1 .2 1.6l.1 1.7c0 .2 0 .4-.2.6l-.5.2Zm9.2-7.5-2.7 5.8-1.6 3.6-.5 1.5c-.1.4-.4.6-.7.6l-.6-.3a.7.7 0 0 1-.2-.5c0-.5.6-2 1.7-4.5l-2.8-5.4-.4-.6-.2-.6c0-.2.1-.4.3-.5.1-.2.3-.3.5-.3.3 0 .4.1.6.3.9 1.2 1.8 3 2.8 5.2l1.2-2.7 1.2-2.4c.2-.2.4-.4.6-.4.3 0 .4 0 .6.2l.3.6-.1.4Zm13.4 0a28 28 0 0 0 .2 6.4c0 .2 0 .4-.2.6l-.5.2c-.3 0-.6-.3-.7-.7l-1.2.6-1.3.2c-1 0-2-.4-2.6-1-.8-.8-1.1-1.8-1.1-3 0-1.3.3-2.4 1-3.3.8-.8 1.8-1.2 3-1.2.6 0 1 0 1.3.3l.8.5.2-4.4c.1-.5.3-.7.7-.7.5 0 .8.2.8.7l-.4 4.8Zm-3.4.2c-.9 0-1.6.3-2 .8-.4.5-.6 1.3-.6 2.4 0 .6.2 1.2.7 1.7.4.5 1 .7 1.6.7.5 0 .9 0 1.2-.2a6 6 0 0 0 1-1v-3.1l-.7-1-1.2-.3Zm8.6 7.2a3 3 0 0 1-2.3-1c-.7-.7-1-1.7-1-2.9a5 5 0 0 1 .8-3c.7-1.1 1.8-1.7 3-1.7 1.1 0 1.9.5 2.4 1.5.5.7.7 1.7.6 2.7a5 5 0 0 1-.9 3c-.6 1-1.5 1.4-2.6 1.4Zm.5-7c-.8 0-1.4.4-1.8 1.1a4 4 0 0 0-.5 2c0 .8.2 1.4.6 1.8.3.3.7.5 1.2.5s1-.2 1.4-.6c.4-.4.7-1 .7-1.8 0-2-.5-3-1.6-3Zm18.8-2.8a31.7 31.7 0 0 1-3.8-.2 86 86 0 0 0 .4 7.1v.8c0 .4 0 .8-.2 1-.2.5-.5.7-.9.7-.3 0-.5-.1-.7-.3a1 1 0 0 1-.4-.7V34.7c0-.7 0-1.6-.2-2.8l-.2-2.9h-.4c-1.2 0-2.1 0-2.8-.2-.6-.2-.8-.5-.8-1 0-.3 0-.5.2-.8.3-.2.5-.3.9-.3a26.5 26.5 0 0 1 2.5.2 94.3 94.3 0 0 0 4.6 0l1.8.1a1 1 0 0 1 1.1 1.1c0 .3-.1.5-.3.8a1 1 0 0 1-.8.3Zm11.8 2.4c-.5 2-1 4-1.6 5.6l-.8 1.5c-.3.3-.6.5-1 .5-.7 0-1.2-.7-1.6-2l-.5-2.6a119 119 0 0 0-1.7 4c-.2.3-.5.5-1 .5-.2 0-.5-.2-.7-.6a6 6 0 0 1-.7-1.8 62.5 62.5 0 0 1-.9-5.3c0-.3.1-.5.3-.7.2-.2.5-.3.8-.3.6 0 1 .3 1 .8l.2 1.1a54.7 54.7 0 0 0 .4 3l1.4-3.9c.2-.6.6-1 1.2-1 .5 0 1 .4 1.1 1.2a31.5 31.5 0 0 1 .8 4.2l1.2-4.7c.2-.5.5-.7 1-.7.3 0 .6.1.8.3.2.2.3.4.3.7v.2Zm4.2 7.4c-1 0-1.8-.3-2.5-1a4 4 0 0 1-1.2-2.9c0-1.2.3-2.2 1-3 .7-1.1 1.8-1.7 3.3-1.7 1 0 1.8.4 2.4 1.3.6.7.9 1.7.9 2.8a5 5 0 0 1-1 3c-.7 1-1.7 1.5-3 1.5Zm.5-6.5c-.7 0-1.2.3-1.6.9-.3.5-.4 1-.4 1.7 0 .6.1 1.1.5 1.4.3.3.6.4 1 .4s.8-.1 1.2-.4c.3-.4.5-.9.6-1.5 0-1.7-.4-2.5-1.3-2.5Zm7.5-3.3c-.3 0-.6-.1-.8-.4a1 1 0 0 1-.4-.8c0-.3.1-.6.4-.8.2-.2.5-.4.8-.4.4 0 .7.2 1 .4.2.2.3.5.3.8 0 .3-.1.6-.4.8-.2.3-.5.4-.9.4Zm-.3 10.8a84.8 84.8 0 0 0-.6-8.5c0-.3.1-.6.3-.8.2-.3.5-.5.8-.5.3 0 .5.1.8.3l.4.6a807.5 807.5 0 0 1 .4 9c0 .7-.2 1.4-.7 2-.5.7-1.2 1-2 1-1.2 0-2.2-.8-3-2.6l-.2-.5.4-.7c.2-.2.5-.3.8-.3.3 0 .6.2.8.5l.6 1c.2.4.4.6.7.6.2 0 .4-.4.5-1.1Zm7.9-1.1a5 5 0 0 1-3-.9 3.3 3.3 0 0 1-1.4-2.8c0-1.3.4-2.4 1-3.3.8-1 1.9-1.5 3.2-1.5.9 0 1.6.1 2.2.4.8.4 1.2 1 1.2 1.8 0 .6-.3 1-1 1.5l-1.7 1-2.6 1c.2.3.5.6.9.7l1.2.2c.7 0 1.3-.2 1.8-.4.4-.3.7-.4 1-.4.5 0 .8.2.8.8 0 .6-.4 1-1.3 1.4-.7.3-1.5.5-2.3.5Zm-.2-6.6c-.5 0-1 .1-1.3.4-.3.4-.6.8-.8 1.5a436.8 436.8 0 0 1 3.4-1.6c-.3-.2-.8-.3-1.3-.3Zm12.4 1.6-.4 3.8c0 1.7-.3 3-.8 3.7-.7 1-1.9 1.5-3.6 1.5-2 0-3-.4-3-1.2 0-.3 0-.5.2-.7l.7-.2 1 .1 1.2.1c.8 0 1.3-.2 1.7-.7a4 4 0 0 0 .6-2.2 2.6 2.6 0 0 1-2 .8 3.4 3.4 0 0 1-3.4-3.6c0-1.4.4-2.5 1.3-3.4.8-1 2-1.4 3.6-1.4.5 0 .9 0 1.2.2.4.1.7.3 1 .6.6 0 .9.4.9 1.1 0 .4 0 .9-.2 1.5Zm-3-1.6c-.9 0-1.6.3-2 .9a3 3 0 0 0-.7 2c0 .6.1 1.1.3 1.4.3.3.6.5 1.1.5.4 0 .9-.3 1.3-.8.4-.4.6-.9.7-1.3l.3-2.4-.5-.2h-.5Zm7.5 6.7c-1 0-1.8-.3-2.5-1a4 4 0 0 1-1.2-2.9c0-1.2.3-2.2 1-3 .8-1.1 1.9-1.7 3.3-1.7 1 0 1.9.4 2.5 1.3.5.7.8 1.7.8 2.8a5 5 0 0 1-1 3c-.7 1-1.7 1.5-2.9 1.5Zm.5-6.5c-.7 0-1.2.3-1.5.9-.3.5-.5 1-.5 1.7 0 .6.2 1.1.5 1.4.3.3.6.4 1 .4.5 0 .9-.1 1.2-.4.4-.4.6-.9.6-1.5 0-1.7-.4-2.5-1.3-2.5Zm15.2 6.5c-1.1 0-2-.3-2.8-1a3.4 3.4 0 0 1-1.3-2.7c0-1 .4-2 1.1-3.2.9-1.2 1.8-1.9 3-1.9.5 0 1.1.2 1.8.5 1 .3 1.4.7 1.4 1.2 0 .3-.1.5-.3.7a1 1 0 0 1-.7.3c-.3 0-.5-.1-.8-.4-.4-.2-.8-.3-1.5-.3-.4 0-.8.4-1.3 1.2a4 4 0 0 0-.6 2c0 .5.2.9.6 1.2.3.3.8.5 1.4.5.4 0 .8-.2 1.3-.4l1-.4c.3 0 .5 0 .7.3.2.2.3.4.3.7 0 .4-.4.8-1.3 1.2a5 5 0 0 1-2 .5Zm8.6-.1a5 5 0 0 1-3-.9 3.3 3.3 0 0 1-1.4-2.8c0-1.3.4-2.4 1-3.3.9-1 1.9-1.5 3.2-1.5.9 0 1.7.1 2.3.4.7.4 1.1 1 1.1 1.8 0 .6-.3 1-1 1.5l-1.7 1-2.6 1c.2.3.5.6.9.7l1.2.2c.7 0 1.3-.2 1.8-.4.4-.3.8-.4 1-.4.6 0 .8.2.8.8 0 .6-.4 1-1.3 1.4-.7.3-1.5.5-2.3.5Zm-.2-6.6c-.5 0-.9.1-1.2.4-.4.4-.7.8-.9 1.5a382.8 382.8 0 0 1 3.5-1.6c-.4-.2-.8-.3-1.4-.3Zm7.6 5c0 1-.3 1.6-1 1.6a1 1 0 0 1-1-1V26.9c-.1-.3 0-.6.2-.7.2-.2.5-.3.8-.3.3 0 .5 0 .7.3.2.2.3.4.3.7v10.4Zm8.9-3.3a251.7 251.7 0 0 0 0 4.1c0 .3 0 .6-.3.8a1 1 0 0 1-.8.3 1 1 0 0 1-1-.6 6 6 0 0 1-2 .3c-.7 0-1.3-.1-1.8-.4-.6-.4-1-1-1-1.6a23 23 0 0 1-.4-3.5l.3-2.3c0-.6.4-.9 1-.9.3 0 .6.1.8.3.2.2.3.4.3.7l-.1 1-.1 1.2a23 23 0 0 0 .3 3.3l.4.1h.3c.6 0 1.2 0 2-.2a139.8 139.8 0 0 0 0-5.4c.1-.6.5-1 1.1-1 .3 0 .6.1.8.3.2.2.3.5.3.8l-.1 2.7Zm10.2-4.9c-.4 0-.7 0-.9-.3a1 1 0 0 1-.4-.8c0-.3.1-.6.4-.8.2-.3.5-.4.9-.4.3 0 .6.1.8.4.3.2.4.5.4.8 0 .3-.1.6-.4.8-.2.2-.5.3-.8.3Zm.6 5.8a66 66 0 0 0 0 2.8c0 .3 0 .6-.2.8a1 1 0 0 1-.8.3 1 1 0 0 1-.8-.3 1 1 0 0 1-.3-.8 53.9 53.9 0 0 0 0-2.8V33l.1-1.7c0-.3.1-.6.3-.8.2-.2.5-.3.8-.3.3 0 .6.1.8.3.2.2.3.5.3.8l-.1 1.7V35ZM50 60.9h-1.4V64c0 .3-.1.6-.3.8a1 1 0 0 1-.8.3 1 1 0 0 1-.8-.3 1 1 0 0 1-.3-.8 929 929 0 0 1 0-8.9l-.2-1.5c0-.5 0-.8.3-1.1a1 1 0 0 1 .9-.6c.3 0 .5.1.7.3.2.2.3.5.3.8a4.5 4.5 0 0 1 2.1-.6c1.2 0 2.1.6 2.7 1.6.4.7.6 1.7.6 3 0 1-.4 2-1 2.8-.7.8-1.6 1.2-2.8 1.2Zm.5-6.4-1 .3a4 4 0 0 0-1 .7l.1 3.2 1.4.2c.5 0 1-.2 1.2-.6.3-.3.4-.8.4-1.4v-1.4c-.2-.7-.6-1-1-1Zm7.7 6.5c-1 0-1.8-.3-2.5-1a4 4 0 0 1-1.2-2.9c0-1.2.3-2.2 1-3 .7-1.1 1.8-1.7 3.2-1.7 1 0 1.9.4 2.5 1.3.6.7.8 1.7.8 2.8a5 5 0 0 1-1 3c-.7 1-1.6 1.5-2.8 1.5Zm.4-6.5c-.6 0-1.1.3-1.5.9-.3.5-.5 1-.5 1.7 0 .6.2 1.1.6 1.4.3.3.6.4 1 .4s.8-.1 1.1-.4c.4-.4.6-.9.6-1.5.1-1.7-.3-2.5-1.3-2.5Zm11.5 0-1.6 2-1.6 2.3a24.7 24.7 0 0 1 1.6 0l1 .2c.3 0 .5 0 .7.3.2.2.3.4.3.7 0 .3 0 .5-.3.7a1 1 0 0 1-.7.3h-1c-.4-.2-.7-.2-.9-.2a17.6 17.6 0 0 0-3.6.3c-.3 0-.5 0-.7-.2a.8.8 0 0 1-.4-.7c0-.3.2-.6.5-.9 1.3-1.1 2.7-2.7 4.1-4.8a19.3 19.3 0 0 1-3.3-.2c-.7 0-1-.4-1-1 0-.3.1-.5.3-.7.2-.2.4-.3.8-.3h1.1a12.9 12.9 0 0 0 2.8 0h1.6c.6 0 1 .3 1 .8s-.3 1-.7 1.5Zm3.7-3.4c-.4 0-.7 0-1-.3a1 1 0 0 1-.3-.8c0-.3.1-.6.4-.8.2-.3.5-.4.9-.4.3 0 .6.1.8.4.3.2.4.5.4.8 0 .3-.1.6-.4.8-.2.2-.5.3-.8.3Zm.6 5.8a67.6 67.6 0 0 0 0 2.8c0 .3 0 .6-.2.8a1 1 0 0 1-.8.3 1 1 0 0 1-.8-.3 1 1 0 0 1-.3-.8 50.8 50.8 0 0 0 0-2.8V55l.1-1.7c0-.3.1-.6.3-.8.2-.2.5-.3.8-.3.3 0 .6.1.8.3.2.2.3.5.3.8l-.1 1.7V57Zm5.3 4c-1 0-1.8-.2-2.5-.9a4 4 0 0 1-1.2-2.9c0-1.2.3-2.2 1-3 .7-1.1 1.8-1.7 3.2-1.7 1 0 2 .4 2.5 1.3.6.7.9 1.7.9 2.8a5 5 0 0 1-1 3c-.7 1-1.7 1.5-3 1.5Zm.4-6.4c-.6 0-1.1.3-1.5.9-.3.5-.4 1-.4 1.7 0 .6.1 1.1.5 1.4.3.3.6.4 1 .4s.8-.1 1.2-.4c.3-.4.5-.9.6-1.5 0-1.7-.4-2.5-1.4-2.5Zm6.8-.9c.8-.9 1.5-1.4 2.2-1.4.8 0 1.4.4 1.8 1a3.3 3.3 0 0 1 2.3-.9c1 0 1.7.5 2 1.5a87.6 87.6 0 0 1 .9 6.3c.1.4 0 .6-.2.8-.2.2-.5.3-.8.3-.6 0-1-.3-1-.9a33.8 33.8 0 0 1-.6-4.5c-.2-1-.3-1.4-.6-1.4 0 0-.3 0-.8.3a6 6 0 0 0-1 .6l.3 2.6.2 2.6c0 .3 0 .5-.3.7a1 1 0 0 1-.8.3 1 1 0 0 1-.7-.3 1 1 0 0 1-.3-.7l-.2-2.7a26.6 26.6 0 0 1-.3-3.4 6.4 6.4 0 0 0-2 2 133.1 133.1 0 0 0 0 3.5c0 .3-.1.5-.4.7-.2.2-.4.2-.7.2-.5 0-.8-.2-1-.5l-.1-1.3v-2.9a29.7 29.7 0 0 0 0-2.3c0-.4 0-.9.2-1.2.2-.5.5-.7.8-.7.3 0 .6 0 .8.3.3.2.4.5.4.7l-.1.7Zm17.3 2.4a251.7 251.7 0 0 0 0 4.1c0 .3 0 .6-.3.8a1 1 0 0 1-.8.3 1 1 0 0 1-1-.6 6 6 0 0 1-2 .3c-.7 0-1.3-.1-1.8-.4-.6-.4-1-1-1-1.6a23 23 0 0 1-.4-3.5l.3-2.3c0-.6.4-.9 1-.9.3 0 .6.1.8.3.2.2.3.4.3.7l-.1 1-.1 1.2a23.1 23.1 0 0 0 .3 3.3l.4.1h.3c.6 0 1.2 0 2-.2a139.8 139.8 0 0 0 0-5.4c.1-.6.5-1 1.1-1 .3 0 .6.1.8.3.2.2.3.5.3.8l-.1 2.7Zm4.8 5.5-.6 1.2c-.2.3-.5.5-.9.5a1 1 0 0 1-.7-.2.8.8 0 0 1-.3-.7l.5-1.2.7-1.2c.2-.3.5-.5.8-.5.3 0 .5.1.7.3l.3.6-.5 1.2ZM32 76.6c0-.4 0-.8.4-1.1.3-.3.6-.5 1-.5.5 0 .9.2 1.2.5.3.3.4.7.4 1.1 0 .4-.1.8-.4 1.1-.3.3-.7.5-1.1.5-.5 0-.8-.2-1.1-.5-.3-.3-.5-.7-.5-1Zm16.8 1.6h-.6l-.1 3.5c0 .3 0 .5-.3.7a1 1 0 0 1-.7.3 1 1 0 0 1-1-1v-2.2a59.5 59.5 0 0 1 .3-7.2c0-1.3.3-2 1.1-1.9l.7-.1h1.2c1 0 2 .3 2.9 1 1 .7 1.4 1.6 1.4 2.7 0 1.3-.5 2.3-1.5 3.1-1 .7-2.1 1-3.4 1Zm.4-6a11.3 11.3 0 0 0-.8 0 113.5 113.5 0 0 1-.1 3.9h.5c.8 0 1.5-.1 2-.5.6-.4.9-1 .9-1.6 0-.5-.3-.9-.8-1.2a3 3 0 0 0-1.7-.5Zm8.1 9.2c0 1-.3 1.5-1 1.5a1 1 0 0 1-1-1V70.9c-.1-.3 0-.6.2-.7.2-.2.5-.3.8-.3.3 0 .5 0 .7.3.2.2.3.4.3.7v10.4ZM66 83c-.2 0-.6-.2-1.1-.7l-1.3.5a3 3 0 0 1-.9.2c-1.2 0-2.2-.4-2.8-1-.6-.7-1-1.7-1-3s.5-2.4 1.4-3.3c1-.9 2-1.3 3.4-1.3.5 0 1 .1 1.7.4.8.3 1.2.7 1.2 1.2l-.2.5-.1.8a13.5 13.5 0 0 0 .1 3.2 23.2 23.2 0 0 0 .7 1.6c0 .3-.1.5-.3.7a1 1 0 0 1-.8.2Zm-1.9-5.3a6 6 0 0 1 .1-1.3 1.4 1.4 0 0 0-.4-.2c-.7 0-1.4.3-1.9.9-.5.5-.8 1.2-.8 1.9s.1 1.2.4 1.6c.2.3.6.5 1.1.5a2.7 2.7 0 0 0 1.7-.6l-.2-2.8ZM74.3 83c-.6 0-1-.3-1-1a1273.3 1273.3 0 0 1-.3-3.9 12.7 12.7 0 0 0 0-1.3c0-.5 0-.7-.3-.7-.5 0-1 .3-1.4.9a6 6 0 0 0-1.1 2v.8a5.2 5.2 0 0 0 0 1.3v.7c0 .3-.1.5-.3.7a1 1 0 0 1-.8.3 1 1 0 0 1-.8-.3 1 1 0 0 1-.3-.7v-3.4a27.2 27.2 0 0 0 0-3.5c0-.3.2-.5.4-.7.2-.2.5-.3.8-.3.7 0 1 .4 1 1.2v.1c.8-.8 1.6-1.1 2.5-1.1 1 0 1.7.4 2 1.2.3.5.4 1.4.4 2.5v.5a27 27 0 0 0 .2 2.1l.1 1.6c0 .3 0 .5-.3.7-.2.2-.4.3-.8.3Zm12.8-.1c-.4 0-1 0-1.4-.2V86c0 .3-.1.6-.3.8a1 1 0 0 1-.8.3 1 1 0 0 1-.8-.3 1 1 0 0 1-.3-.8 929 929 0 0 1 0-8.9l-.2-1.5c0-.5.1-.8.3-1.1a1 1 0 0 1 1-.6c.2 0 .5.1.7.3.2.2.2.5.2.8a4.5 4.5 0 0 1 2.2-.6c1.1 0 2 .6 2.6 1.6.4.7.6 1.7.6 3 0 1-.3 2-1 2.8-.7.8-1.6 1.2-2.8 1.2Zm.6-6.5c-.4 0-.7.1-1 .3a4 4 0 0 0-1 .7v3.2l1.4.2c.5 0 1-.2 1.2-.6.3-.3.4-.8.4-1.4v-1.4c-.2-.7-.5-1-1-1Zm11 .4c-.1.8-.5 1.2-1.2 1.2-.6 0-1-.3-1-1v-.8c-1.2.2-2 .8-2.5 1.8v4c0 .2-.1.5-.3.7a1 1 0 0 1-.8.3 1 1 0 0 1-.7-.4 1 1 0 0 1-.3-.7V77a24 24 0 0 1 0-1.4c0-.3.1-.6.3-.8.2-.2.4-.3.8-.3.5 0 .9.3 1 1 1-.8 2-1.1 3-1.1 1.1 0 1.6.7 1.6 2v.6Zm4.3 6c-1 0-1.8-.2-2.5-.9a4 4 0 0 1-1.2-2.9c0-1.2.3-2.2 1-3 .7-1.1 1.8-1.7 3.2-1.7 1 0 2 .4 2.5 1.3.6.7.9 1.7.9 2.8a5 5 0 0 1-1 3c-.7 1-1.7 1.5-3 1.5Zm.4-6.4c-.6 0-1.1.3-1.5.9-.3.5-.4 1-.4 1.7 0 .6.1 1.1.5 1.4.3.3.6.4 1 .4s.8-.1 1.2-.4c.3-.4.5-.9.6-1.5 0-1.7-.4-2.5-1.4-2.5Zm12 1.4-.4 3.8c0 1.7-.3 3-.8 3.7-.7 1-2 1.5-3.6 1.5-2 0-3-.4-3-1.2 0-.3 0-.5.2-.7l.7-.2 1 .1 1.2.1c.8 0 1.3-.2 1.7-.7a4 4 0 0 0 .6-2.2 2.6 2.6 0 0 1-2 .8 3.4 3.4 0 0 1-3.5-3.6c0-1.4.5-2.5 1.3-3.4 1-1 2.1-1.4 3.7-1.4.5 0 .9 0 1.2.2.4.1.7.3.9.6.7 0 1 .4 1 1.1 0 .4 0 .9-.2 1.5Zm-3-1.6c-.9 0-1.6.3-2 .9-.5.5-.7 1.2-.7 2 0 .6 0 1.1.3 1.4.3.3.6.5 1 .5.5 0 1-.3 1.4-.8.4-.4.6-.9.7-1.3l.3-2.4-.5-.2h-.5Zm10.8.6c0 .8-.4 1.2-1 1.2-.7 0-1-.3-1-1v-.8c-1.3.2-2.1.8-2.6 1.8v4c0 .2-.1.5-.3.7a1 1 0 0 1-.8.3 1 1 0 0 1-.7-.4 1 1 0 0 1-.3-.7V77a25.7 25.7 0 0 1 0-1.4c0-.3.1-.6.3-.8.2-.2.4-.3.8-.3.5 0 .9.3 1 1 1-.8 2-1.1 3-1.1 1.1 0 1.6.7 1.6 2v.6Zm5.1 6a5 5 0 0 1-3-.9 3.3 3.3 0 0 1-1.4-2.8c0-1.3.4-2.4 1-3.3.8-1 1.9-1.5 3.2-1.5.9 0 1.6.1 2.2.4.8.4 1.2 1 1.2 1.8 0 .6-.3 1-1 1.5l-1.7 1-2.6 1c.2.3.5.6.9.7l1.2.2c.7 0 1.3-.2 1.8-.4.4-.3.8-.4 1-.4.6 0 .8.2.8.8 0 .6-.4 1-1.3 1.4-.7.3-1.5.5-2.3.5Zm-.2-6.6c-.5 0-1 .1-1.3.4-.3.4-.6.8-.8 1.5a436.8 436.8 0 0 1 3.5-1.6c-.4-.2-.8-.3-1.4-.3Zm10.7.5c-.5 0-.8-.2-1-.6h-.6c-1.2 0-1.8 0-1.8.4 0 .2.3.5 1 .8l2.2 1.2c.7.5 1.1 1.1 1.1 1.8 0 .9-.4 1.6-1.2 2a5 5 0 0 1-2.5.6c-.7 0-1.3-.1-1.9-.3-.8-.3-1.2-.7-1.2-1.3 0-.5.3-.8 1-.8l1 .2 1 .3c1.1 0 1.6-.3 1.6-.7 0-.2-.3-.5-1-.9-1.1-.4-1.8-.8-2.1-1-.8-.5-1.1-1.1-1.1-1.9 0-1 .5-1.7 1.6-2 .7-.3 1.7-.4 3-.4.5 0 1 0 1.2.2.3.2.5.5.5 1 0 1-.3 1.4-.8 1.4Zm5.2-3.6c-.4 0-.7-.1-.9-.4a1 1 0 0 1-.4-.8c0-.3.2-.6.4-.8.2-.2.5-.4.9-.4.3 0 .6.2.8.4.3.2.4.5.4.8 0 .3-.1.6-.4.8-.2.3-.5.4-.8.4Zm-.4 10.8a84.8 84.8 0 0 0-.5-8.5c0-.3 0-.6.2-.8.2-.3.5-.5.9-.5l.7.3c.2.2.4.4.4.6a807.5 807.5 0 0 1 .5 9c0 .7-.3 1.4-.8 2-.5.7-1.1 1-2 1-1.2 0-2.2-.8-3-2.6l-.1-.5c0-.2 0-.5.3-.7.2-.2.5-.3.8-.3.3 0 .6.2.9.5l.5 1c.2.4.5.6.7.6.3 0 .4-.4.5-1.1Zm5.7-10.9c-.3 0-.6 0-.8-.3a1 1 0 0 1-.4-.8c0-.3.1-.6.4-.8.2-.3.5-.4.8-.4.4 0 .7.1 1 .4.2.2.3.5.3.8 0 .3-.1.6-.4.8-.2.2-.5.3-.9.3Zm.7 5.8a71.3 71.3 0 0 0 0 2.8c0 .3 0 .6-.2.8a1 1 0 0 1-.8.3 1 1 0 0 1-.8-.3 1 1 0 0 1-.3-.8 49.8 49.8 0 0 0 0-2.8V77l.1-1.7c0-.3.1-.6.3-.8.2-.2.5-.3.8-.3.3 0 .6.1.8.3.2.2.3.5.3.8L150 77V79Zm3.5 6.3c-.2 0-.4 0-.5-.2a.7.7 0 0 1-.2-.5l.5-1.3.6-1.4c.2-.3.3-.4.6-.4.2 0 .3 0 .4.2.2.2.3.3.3.5l-1.2 2.7c0 .3-.3.4-.5.4Zm15.3-9.6a28 28 0 0 0 .1 6.4c0 .2 0 .4-.2.6l-.5.2c-.3 0-.6-.3-.7-.7l-1.2.6-1.3.2c-1 0-2-.4-2.6-1-.8-.8-1.1-1.8-1.1-3 0-1.3.3-2.4 1-3.3.8-.8 1.8-1.2 3-1.2.6 0 1 0 1.4.3l.7.5.2-4.4c.1-.5.3-.7.8-.7.4 0 .7.2.7.7l-.3 4.8Zm-3.5.2c-.9 0-1.5.3-2 .8-.4.5-.6 1.3-.6 2.4 0 .6.2 1.2.7 1.7.4.5 1 .7 1.7.7.4 0 .8 0 1-.2a6 6 0 0 0 1.2-1v-3.1l-.8-1-1.2-.3Zm12.1.4-1.8 2.4-1.8 2.6a30.6 30.6 0 0 1 2.3.1l1 .1c.2 0 .3.1.5.3l.2.5c0 .3 0 .4-.2.6l-.6.2-.9-.1-.9-.1a16.7 16.7 0 0 0-3.6.3c-.5 0-.8-.2-.8-.6 0-.3.2-.5.4-.8 1.4-1.2 2.9-3.1 4.5-5.7a28.2 28.2 0 0 1-4-.1c-.4-.1-.6-.4-.6-.8 0-.2 0-.4.2-.6l.5-.2h1.2a11.6 11.6 0 0 0 2.7 0h1.6c.5 0 .7.2.7.6 0 .4-.2.8-.6 1.3Zm3.7-3.6c-.3 0-.5 0-.7-.2a.9.9 0 0 1-.3-.7l.3-.6c.2-.2.4-.3.7-.3l.6.3.3.6c0 .3-.1.5-.3.7-.2.2-.4.2-.6.2Zm.3 6.4a64.8 64.8 0 0 0 0 2.8l-.1.5-.6.3c-.2 0-.4-.1-.5-.3a44.7 44.7 0 0 0-.3-3.4 26.5 26.5 0 0 1 .1-3.6l.3-.6.5-.2.6.2.2.6a26.8 26.8 0 0 1-.2 3.7Zm10 1.9c0 .4-.2.8-.8 1.2-.5.2-1 .5-1.7.6-.4.2-.6.5-.6.7 0 .2 0 .4.2.6.1.3.3.4.4.4.6 0 1-.1 1.4-.3l.3-.1c.2 0 .3 0 .4.2l.2.4c0 .3-.3.6-1 .7-.4.2-.8.2-1.3.2s-.9-.2-1.3-.6c-.3-.5-.5-1-.5-1.5l.1-.5c-1-.1-1.9-.5-2.5-1-.7-.7-1-1.5-1-2.6 0-1.4.3-2.5 1-3.4.6-1 1.6-1.5 2.8-1.5.9 0 1.6.1 2.1.4.7.4 1 1 1 1.7 0 .5-.3 1-.9 1.4l-1.6.9-3 1.4a3 3 0 0 0 2.6 1.3c.4 0 .8 0 1.3-.2.6-.2 1-.4 1.2-.7.1-.3.3-.4.5-.4s.4 0 .5.2c.2.1.2.3.2.5Zm-2-4.5c-.5-.4-1.1-.6-2-.6-1.2 0-2 1-2.4 3a270.8 270.8 0 0 0 4.4-2.4Zm10 6.4c-.4 0-.6-.1-.7-.4l-1.3-1.9-1.3-1.9-1.4 1-.1 2.4-.3.6-.5.2c-.5 0-.8-.4-.8-1a31.3 31.3 0 0 1 .2-4 133 133 0 0 1 .2-7.6l.6-.2c.2 0 .4 0 .5.2l.2.6v.8l.1.9v5.2a22 22 0 0 0 2-1.8l1.7-1.7c.2-.2.3-.3.5-.3s.4 0 .6.2c.2.2.2.4.2.6 0 .2 0 .4-.2.5-.6.8-1.4 1.6-2.4 2.4L199 80c.8 1 1.2 1.8 1.2 2 0 .3 0 .5-.2.6-.2.2-.4.2-.6.2Zm3.6-10.2c-.3 0-.5 0-.7-.2a.9.9 0 0 1-.3-.7l.3-.6c.2-.2.4-.3.7-.3l.6.3.3.6c0 .3-.1.5-.3.7-.2.2-.4.2-.6.2Zm.3 6.4a58.9 58.9 0 0 0 0 2.8l-.1.5-.6.3-.6-.3a44.7 44.7 0 0 0-.3-3.4 26.5 26.5 0 0 1 .2-3.6l.2-.6.6-.2.5.2.3.6a26.8 26.8 0 0 1-.2 3.7Zm14 3.8c-.3 0-.6-.1-.7-.4l-1.3-1.9-1.3-1.9-1.4 1-.1 2.4-.2.6-.6.2c-.5 0-.8-.4-.8-1a32 32 0 0 1 .2-4 132.4 132.4 0 0 1 .2-7.6l.6-.2c.2 0 .4 0 .5.2.2.2.2.4.2.6v.8l.1.9v5.2l2-1.8 1.7-1.7c.2-.2.3-.3.5-.3.3 0 .4 0 .6.2.2.2.2.4.2.6 0 .2 0 .4-.2.5a28 28 0 0 1-2.3 2.4l1.7 2.4c.8 1 1.2 1.8 1.2 2 0 .3-.1.5-.3.6-.2.2-.3.2-.6.2Zm7.3-7a5.8 5.8 0 0 1-.8 0l-1 .2.1 4.6v.7c0 1.2-.2 1.7-.8 1.7-.2 0-.4 0-.5-.2a.7.7 0 0 1-.3-.5 26 26 0 0 1 0-1.8V76c-.5 0-1 0-1.8-.2-.5 0-.7-.3-.7-.7 0-.3 0-.5.2-.6.1-.2.3-.2.5-.2l1.7.1a19 19 0 0 0 0-2l.1-.6.6-.2c.5 0 .7.4.8 1.2v1.6l1.1-.1h1c.4.2.6.4.6.8l-.3.6-.5.2Zm5.3 7.2a3 3 0 0 1-2.3-1c-.7-.7-1-1.7-1-2.9a5 5 0 0 1 .8-3c.7-1.1 1.8-1.7 3-1.7 1.1 0 1.9.5 2.4 1.5.5.7.7 1.7.6 2.7a5 5 0 0 1-.9 3c-.6 1-1.5 1.4-2.6 1.4Zm.5-7c-.8 0-1.4.4-1.8 1.1a4 4 0 0 0-.5 2c0 .8.2 1.4.6 1.8.3.3.7.5 1.2.5s1-.2 1.4-.6c.4-.4.7-1 .7-1.8 0-2-.5-3-1.6-3Zm0-2.7c-.2 0-.4-.1-.5-.3a.7.7 0 0 1-.2-.5c0-.1 0-.3.2-.5l1-1.2 1.2-1.1.4-.2.5.2.2.5c0 .3-.1.4-.3.6l-1 1.1-1 1.2-.5.2Zm11 3.5c0 .6-.3 1-.8 1-.4 0-.6-.3-.6-.8v-1.2c-1 0-1.6.3-2 .7-.5.3-1 .8-1.2 1.5v4.3c0 .5-.3.8-.8.8-.4 0-.7-.3-.7-.8v-5.5a29 29 0 0 1 0-1.6c0-.5.3-.8.8-.8s.7.5.7 1.3c1-1 2.1-1.4 3.4-1.4.4 0 .7.2 1 .5l.2 1.4v.6Zm5.3 6c-1.2 0-2.2-.2-2.9-.8a3.3 3.3 0 0 1-1.2-2.7c0-1.4.3-2.5 1-3.4.7-1 1.7-1.5 2.9-1.5.8 0 1.5.1 2 .4.8.4 1 1 1 1.7 0 .5-.2 1-.8 1.4l-1.6.9-3 1.4 1 1c.5.2 1 .3 1.6.3.3 0 .8 0 1.2-.2.7-.2 1-.4 1.2-.7.2-.3.4-.4.6-.4.2 0 .3 0 .5.2l.2.5c0 .5-.5 1-1.4 1.5-.8.3-1.6.5-2.3.5Zm-.2-7a2 2 0 0 0-1.6.7 5 5 0 0 0-1 2.2l2.4-1.1 2-1.2c-.4-.4-1-.6-1.8-.6Zm15.2 7.4c-.4 0-.7-.2-.7-.7l-.3-2.4-.3-2.4-.2-1.1c-.2-.5-.4-.7-.6-.7l-1.1.5-1 .7v1.5l.3 2 .1 2.1c0 .2 0 .4-.2.6l-.5.2c-.3 0-.4 0-.6-.2a.8.8 0 0 1-.2-.6c0-.6 0-1.6-.2-2.8l-.2-2.8c0-.5 0-1-.2-1.3a4 4 0 0 0-1.1.8l-1 1-.3.6-.1 1.4a15.7 15.7 0 0 0 0 2v.6c0 .2 0 .4-.2.5-.2.2-.4.2-.6.2-.6 0-.8-.6-.8-2v-1.4a16.3 16.3 0 0 0 0-3.9c0-1.2.2-1.7.8-1.7.2 0 .4 0 .5.2l.3.6v1.8c.2-.6.6-1.1 1.1-1.5.5-.5 1-.7 1.4-.7.8 0 1.3.4 1.6 1.2l1-.9a3 3 0 0 1 1.4-.3c.9 0 1.5.5 1.8 1.5l.3 2.2.6 4.4c0 .2 0 .4-.2.6l-.6.2Zm8.9-5.2a286.4 286.4 0 0 0-.2 5l-.5.2c-.4 0-.7-.3-.8-.8-.6.4-1.4.5-2.2.5a3 3 0 0 1-1.7-.4 2 2 0 0 1-.9-1.5l-.3-3.7c0-.7 0-1.5.2-2.4.1-.5.4-.7.8-.7.2 0 .4 0 .5.2.2.2.3.3.3.6 0 .2 0 .6-.2 1.1v1.2a24.9 24.9 0 0 0 .3 3.7l.5.3h.5a8 8 0 0 0 2.2-.3v-3.1l.1-3c0-.4.3-.7.8-.7.2 0 .4.1.5.3.2.1.3.3.2.5l-.1 3Zm12.7 5c-.4 0-.7-.2-.7-.7l-.2-1.7a14.6 14.6 0 0 1-.1-3.2c0-1-.2-1.6-.6-1.6-.6 0-1.2.3-1.7 1a7 7 0 0 0-1.1 2.4v.8a6.2 6.2 0 0 0 0 1.4v.7l-.3.6-.5.2c-.2 0-.4 0-.6-.2a.8.8 0 0 1-.2-.6v-3.6a29.2 29.2 0 0 0 0-3.7c0-.3.2-.4.3-.6l.6-.2c.4 0 .7.3.8 1v1c.9-1.2 1.8-1.8 2.7-1.8.8 0 1.4.3 1.7 1 .2.6.4 1.3.4 2.3V79l.1 1.6c.2.7.2 1.3.2 1.7 0 .2 0 .4-.2.6l-.6.2Zm4-10.4c-.3 0-.6 0-.7-.2a.9.9 0 0 1-.3-.7c0-.2 0-.4.3-.6.1-.2.4-.3.6-.3.3 0 .5.1.6.3l.3.6c0 .3 0 .5-.3.7-.1.2-.3.2-.6.2Zm.3 6.4a58.9 58.9 0 0 0 0 2.8c0 .2 0 .4-.2.5-.1.2-.3.3-.6.3-.2 0-.4-.1-.5-.3a44.7 44.7 0 0 0-.3-3.4 26.5 26.5 0 0 1 .2-3.6c0-.2 0-.4.2-.6l.5-.2.6.2.2.6a26.8 26.8 0 0 1-.1 3.7Zm6.2 3.9c-1.1 0-2-.3-2.8-.9a3.3 3.3 0 0 1-1.2-2.7c0-1.4.3-2.5 1-3.4.7-1 1.6-1.5 2.8-1.5.9 0 1.6.1 2.2.4.6.4 1 1 1 1.7 0 .5-.3 1-1 1.4l-1.6.9-3 1.4 1.1 1 1.5.3c.4 0 .8 0 1.3-.2.6-.2 1-.4 1.2-.7.2-.3.4-.4.6-.4.2 0 .3 0 .5.2l.2.5c0 .5-.5 1-1.4 1.5-.8.3-1.6.5-2.4.5Zm-.2-7.1a2 2 0 0 0-1.6.7 5 5 0 0 0-.9 2.2l2.4-1.1 2-1.2c-.4-.4-1-.6-1.9-.6ZM52 98.5c-.2 0-.4 0-.6-.3l-.2-.8c-.4 0-1 .3-1.8.5-.8.4-1.2.8-1.2 1.3h.4c1.2.3 2.1.6 2.7 1 .8.5 1.3 1.3 1.3 2.3 0 .9-.4 1.5-1.1 2a5.6 5.6 0 0 1-4.3.2c-.8-.3-1.2-.7-1.2-1.3 0-.2 0-.4.2-.5.2-.2.4-.2.6-.2.2 0 .4 0 .6.3l.9.3.9.1 1.1-.1c.5-.2.7-.4.7-.8 0-.7-.5-1.1-1.4-1.4l-.9-.2c-.6-.1-1.1-.3-1.4-.5-.5-.3-.7-.7-.7-1.3 0-1.1.5-1.9 1.6-2.4l1.5-.5c.7-.1 1.2-.3 1.4-.5h.7l.6.1.2.6.1.7.1.6c0 .3 0 .4-.2.6l-.6.2Zm7.8-.6a5.8 5.8 0 0 1-.8 0h-1l.1 4.7v.7c0 1.2-.2 1.7-.8 1.7-.2 0-.4 0-.5-.2a.7.7 0 0 1-.3-.5 24.7 24.7 0 0 1 0-1.8V98c-.5 0-1 0-1.8-.2-.5 0-.7-.3-.7-.7 0-.3 0-.5.2-.6.1-.2.3-.2.5-.2l1.7.1a19 19 0 0 0 0-2l.1-.6.6-.2c.5 0 .7.4.8 1.2v1.6l1.1-.1h1c.4.2.6.4.6.8l-.3.6-.5.2Zm5.2 7a3 3 0 0 1-2.2-.9c-.7-.7-1-1.7-1.1-2.9a5 5 0 0 1 .9-3c.7-1.1 1.7-1.7 3-1.7 1 0 1.8.5 2.4 1.5.4.7.6 1.7.6 2.7a5 5 0 0 1-1 3c-.6 1-1.5 1.4-2.6 1.4Zm.5-6.9c-.8 0-1.4.4-1.8 1.1a4 4 0 0 0-.5 2c0 .8.2 1.4.6 1.8.4.3.8.5 1.2.5.6 0 1-.2 1.4-.6.5-.4.7-1 .7-1.8.1-2-.4-3-1.6-3Zm6.5-3.4c-.2 0-.4 0-.6-.2a.9.9 0 0 1-.3-.7c0-.2 0-.4.3-.6l.6-.3c.3 0 .5.1.7.3l.2.6c0 .3 0 .5-.2.7-.2.2-.4.2-.7.2Zm.4 6.4a61.7 61.7 0 0 0 0 2.8c0 .2 0 .4-.2.5-.1.2-.3.3-.5.3-.3 0-.4-.1-.6-.3a45.5 45.5 0 0 0-.3-3.4 26.5 26.5 0 0 1 .2-3.6c0-.2 0-.4.2-.6l.6-.2.5.2c.2.2.2.4.2.6a26.8 26.8 0 0 1-.1 3.7Zm7.9-2.5c-.3 0-.5 0-.6-.3l-.2-.8c-.4 0-1 .3-1.8.5-.9.4-1.3.8-1.3 1.3h.5c1.2.3 2 .6 2.6 1 .9.5 1.3 1.3 1.3 2.3 0 .9-.3 1.5-1 2-.7.3-1.5.5-2.4.5-.7 0-1.3-.1-2-.3-.7-.3-1.1-.7-1.1-1.3 0-.2 0-.4.2-.5.2-.2.3-.2.6-.2.1 0 .3 0 .6.3l.8.3 1 .1 1-.1c.5-.2.8-.4.8-.8 0-.7-.5-1.1-1.5-1.4l-.8-.2c-.7-.1-1.2-.3-1.5-.5-.4-.3-.6-.7-.6-1.3 0-1.1.5-1.9 1.5-2.4l1.5-.5c.7-.1 1.2-.3 1.5-.5h.7l.5.1.3.6v.7l.2.6c0 .3-.1.4-.3.6l-.5.2Zm9-.3-1.8 2.4-1.9 2.6a30.6 30.6 0 0 1 2.4.1l.9.1c.2 0 .4.1.5.3.2.1.2.3.2.5 0 .3 0 .4-.2.6l-.5.2-1-.1-.8-.1a16.7 16.7 0 0 0-3.7.3c-.5 0-.7-.2-.7-.6 0-.3.1-.5.4-.8 1.3-1.2 2.8-3.1 4.4-5.7a28.2 28.2 0 0 1-3.9-.1c-.4-.1-.7-.4-.7-.8l.2-.6.6-.2h1.1a11.5 11.5 0 0 0 2.8 0h1.6c.4 0 .7.2.7.6 0 .4-.2.8-.6 1.3Zm16.3-.7a95.9 95.9 0 0 1-2.4 7.3c-.1.2-.4.4-.7.4-.6 0-1-.8-1.3-2.2l-.4-1.8-.2-1.7-.7 1.5-1.1 3.2-.3.4c-.2.3-.4.5-.8.5s-.8-.7-1.1-2.3l-.6-3.3-.2-1.2v-1.1l.1-.6.6-.2c.4 0 .6.2.7.6l.2 1.2.1 1.1.5 3.5 1.8-5.5c.1-.6.4-.9.9-.9.4 0 .7.4.8 1a52.1 52.1 0 0 1 1 5.9l.6-2.1 1-4.3c.1-.3.4-.5.7-.5l.6.2c.2.2.2.4.2.6v.3Zm16.3 7.7c-.5 0-.7-.2-.8-.7l-.3-2.4-.2-2.4c0-.4-.2-.8-.3-1.1-.2-.5-.4-.7-.6-.7l-1 .5c-.6.3-.9.5-1 .7v1.5l.2 2 .2 2.1c0 .2 0 .4-.2.6l-.6.2c-.2 0-.4 0-.5-.2a.8.8 0 0 1-.3-.6l-.1-2.8c-.2-1.2-.2-2.1-.2-2.8 0-.5-.1-1-.3-1.3l-1 .8-1 1c0 .2-.2.4-.4.6v1.4a16.1 16.1 0 0 0-.1 2v.6c0 .2 0 .4-.2.5-.1.2-.3.2-.5.2-.6 0-.9-.6-.9-2v-1.4a16.7 16.7 0 0 0 0-3.9c0-1.2.3-1.7.8-1.7.2 0 .4 0 .6.2l.2.6v1.8c.2-.6.6-1.1 1.2-1.5.5-.5 1-.7 1.3-.7.8 0 1.4.4 1.7 1.2.3-.4.6-.7 1-.9a3 3 0 0 1 1.4-.3c.8 0 1.4.5 1.8 1.5l.3 2.2.5 4.4c0 .2 0 .4-.2.6l-.5.2Zm4-10.6c-.3 0-.5 0-.7-.2a.9.9 0 0 1-.3-.7l.3-.6c.2-.2.4-.3.7-.3l.6.3.3.6c0 .3-.1.5-.3.7-.2.2-.4.2-.6.2Zm.3 6.4a60.1 60.1 0 0 0 0 2.8l-.1.5-.6.3c-.2 0-.4-.1-.5-.3a45.4 45.4 0 0 0-.3-3.4 26.5 26.5 0 0 1 .1-3.6l.3-.6.5-.2.6.2.2.6a26.8 26.8 0 0 1-.2 3.7Zm6.3 3.9c-1.2 0-2.1-.3-2.8-.9a3.3 3.3 0 0 1-1.2-2.7c0-1.4.3-2.5 1-3.4.7-1 1.6-1.5 2.8-1.5.9 0 1.6.1 2.1.4.7.4 1 1 1 1.7 0 .5-.3 1-.9 1.4l-1.6.9-3 1.4 1 1c.5.2 1 .3 1.6.3.4 0 .8 0 1.3-.2.6-.2 1-.4 1.2-.7.1-.3.3-.4.5-.4s.4 0 .5.2c.2.1.2.3.2.5 0 .5-.4 1-1.4 1.5-.8.3-1.5.5-2.3.5Zm-.2-7.1a2 2 0 0 0-1.6.7 5 5 0 0 0-1 2.2l2.5-1.1 2-1.2c-.5-.4-1-.6-1.9-.6Zm7.9-3.2c-.3 0-.5 0-.7-.2a.9.9 0 0 1-.2-.7c0-.2 0-.4.2-.6.2-.2.4-.3.7-.3.2 0 .5.1.6.3l.3.6c0 .3 0 .5-.3.7-.1.2-.4.2-.6.2Zm0 11.7-.3-4.6-.3-4.3c0-.3 0-.5.2-.7l.6-.3c.2 0 .3 0 .5.2.2 0 .3.2.3.4l.3 4.5.2 4.8c0 .7-.3 1.3-.7 2-.5.6-1 .9-1.7.9-1.1 0-2-.9-2.8-2.6l-.1-.4c0-.2 0-.4.2-.5.2-.2.4-.2.6-.2.3 0 .6.3 1 1l.4.7c.2.3.4.4.7.4.2 0 .4-.1.6-.5l.2-.8Zm9.2-7.8c-.3 0-.5 0-.6-.3l-.3-.8-1.8.5c-.8.4-1.2.8-1.2 1.3h.4c1.2.3 2.1.6 2.7 1 .9.5 1.3 1.3 1.3 2.3 0 .9-.4 1.5-1.1 2a5.6 5.6 0 0 1-4.3.2c-.8-.3-1.2-.7-1.2-1.3 0-.2 0-.4.3-.5.1-.2.3-.2.5-.2s.4 0 .6.3l.9.3.9.1 1.1-.1c.5-.2.8-.4.8-.8 0-.7-.5-1.1-1.5-1.4l-.8-.2c-.7-.1-1.2-.3-1.5-.5-.4-.3-.7-.7-.7-1.3 0-1.1.6-1.9 1.6-2.4l1.5-.5c.7-.1 1.2-.3 1.5-.5h.7l.5.1c.2.2.2.4.2.6l.1.7.1.6c0 .3 0 .4-.2.6l-.5.2Zm6 6.5c-1 0-2-.3-2.7-1a3.4 3.4 0 0 1-1-2.6c0-1 .3-2.2 1-3.3.7-1.3 1.6-1.9 2.6-1.9.5 0 1 .1 1.7.4.8.3 1.2.7 1.2 1.1 0 .2 0 .4-.2.5-.1.2-.3.3-.5.3-.1 0-.3 0-.4-.2l-.3-.2c-.3-.3-.8-.4-1.5-.4-.5 0-1 .5-1.6 1.4-.4.9-.7 1.6-.7 2.3 0 .7.3 1.2.7 1.6a2.5 2.5 0 0 0 2.7.3l1-.5.3-.1c.1 0 .3 0 .5.2l.2.6c0 .3-.4.7-1.2 1-.7.4-1.3.5-1.8.5Zm11-5a286.3 286.3 0 0 0 0 5l-.6.2c-.4 0-.7-.3-.8-.8-.7.4-1.4.5-2.3.5a3 3 0 0 1-1.7-.4 2 2 0 0 1-.8-1.5l-.3-3.7c0-.7 0-1.5.2-2.4 0-.5.3-.7.7-.7.3 0 .4 0 .6.2.2.2.2.3.2.6V98c-.2.5-.2 1-.2 1.2a24.5 24.5 0 0 0 .3 3.7l.6.3h.4a8 8 0 0 0 2.3-.3v-6.1c.1-.4.4-.7.8-.7.3 0 .4.1.6.3.2.1.2.3.2.5l-.1 3Zm3.2 7.2c-.2 0-.4 0-.5-.2a.7.7 0 0 1-.2-.5 19 19 0 0 1 1.1-2.7c.2-.3.3-.4.6-.4.1 0 .3 0 .4.2.2.2.2.3.2.5l-1 2.7c-.2.3-.4.4-.6.4ZM31.9 120.6c0-.4.2-.8.5-1.1.3-.3.6-.5 1-.5.5 0 .9.2 1.2.5.3.3.4.7.4 1.1 0 .4-.1.8-.4 1.1-.3.3-.7.5-1.1.5-.5 0-.8-.2-1.1-.5-.3-.3-.5-.7-.5-1Zm22 5.9c-.7.5-1.9.8-3.4.8a5.6 5.6 0 0 1-2.6-.7h-.1l-.6-.3a137.7 137.7 0 0 0-.1-11l.3-.6c.2-.2.5-.3.7-.3l1.2.5 1.4.6c1.5.5 2.8 1.3 3.8 2.4a5.7 5.7 0 0 1 1.8 4 5.5 5.5 0 0 1-2.3 4.6Zm-1.6-8.3c-.5-.3-1.7-1-3.6-1.8v4.5l-.1 4.3h.2c.4.4 1 .5 1.7.5 1.2 0 2-.2 2.6-.5.5-.4.9-.8 1.2-1.4a4 4 0 0 0 .5-1.8c0-1.5-.8-2.7-2.5-3.8Zm8.8 8.8a3 3 0 0 1-2.2-1c-.7-.7-1-1.7-1.1-2.9a5 5 0 0 1 .9-3c.7-1.1 1.7-1.7 3-1.7 1 0 1.8.5 2.4 1.5.4.7.6 1.7.6 2.7a5 5 0 0 1-1 3c-.6 1-1.5 1.4-2.6 1.4Zm.5-7c-.8 0-1.3.4-1.8 1.1a4 4 0 0 0-.5 2c0 .8.2 1.4.6 1.8.4.3.8.5 1.2.5.6 0 1-.2 1.4-.6.5-.4.7-1 .7-1.8.1-2-.4-3-1.6-3Zm11.5 6.8c-.2 0-.5-.1-.6-.4l-1.2-1.9-1.4-1.9-1.4 1-.1 2.4c0 .2 0 .4-.2.6l-.6.2c-.5 0-.8-.4-.8-1a31.8 31.8 0 0 1 .2-4 133.4 133.4 0 0 1 .2-7.6l.6-.2c.2 0 .4 0 .5.2.2.2.2.4.2.6v.8l.1.9v5.2a22 22 0 0 0 2-1.8l1.7-1.7.6-.3c.2 0 .3 0 .5.2l.3.6a28.1 28.1 0 0 1-2.6 3l1.7 2.3c.8 1 1.2 1.8 1.2 2 0 .3-.1.5-.3.6-.2.2-.3.3-.6.3Zm3.7-5.6v3.4l-.1 1.5c0 .5-.3.7-.7.7-.5 0-.8-.2-.8-.7v-1.9l.1-1.8-1 .5c-.3 0-.4 0-.6-.2a.8.8 0 0 1-.2-.5c0-.3.1-.5.4-.7l1.5-1v-5.1a.7.7 0 0 1 .8-.7c.2 0 .3 0 .5.2l.2.5v3.7l.4-.5c.1-.2.3-.3.5-.3s.4.1.5.3c.2.1.3.3.3.5 0 .3-.6 1-1.8 2ZM85 127s-.3 0-.5-.3c-.3-.2-.4-.4-.5-.6l-1.4.6c-.3.2-.7.3-1 .3-1.1 0-2-.4-2.6-1-.5-.7-.8-1.7-.8-3s.5-2.4 1.3-3.3a4 4 0 0 1 4.6-1c.8.3 1.1.7 1.1 1l-.1.5-.2 1a36.2 36.2 0 0 0 .1 3.2 11.7 11.7 0 0 0 .7 1.8v.1c0 .2 0 .4-.2.5-.1.2-.3.2-.5.2Zm-1.6-5.4a7.3 7.3 0 0 1 .2-1.6l-.5-.2a1 1 0 0 0-.4 0c-.8 0-1.5.3-2 1-.6.6-1 1.4-1 2.2 0 .9.2 1.5.5 2 .3.4.8.6 1.4.6.5 0 1-.1 1.3-.3l.7-.6-.2-3Zm10.9-2a28.2 28.2 0 0 0 .2 6.4l-.3.6-.5.2c-.3 0-.5-.3-.7-.7l-1.1.6-1.3.2c-1 0-2-.4-2.7-1-.7-.8-1-1.8-1-3 0-1.3.3-2.4 1-3.3.8-.8 1.7-1.2 2.9-1.2.6 0 1 0 1.4.3l.7.5.3-4.4c0-.5.3-.7.7-.7.5 0 .7.2.7.7 0 .8 0 2.4-.3 4.8Zm-3.5.2c-.8 0-1.5.3-2 .8-.4.5-.6 1.3-.6 2.4 0 .6.2 1.2.7 1.7.5.5 1 .7 1.7.7.4 0 .8 0 1.1-.2a6 6 0 0 0 1.1-1v-3.1l-.8-1c-.3-.2-.7-.3-1.2-.3Zm11.7 7.3c-.4 0-.7-.3-.8-.8l-.2-1.7a14.4 14.4 0 0 1 0-3.2c0-1-.2-1.6-.7-1.6-.5 0-1 .3-1.6 1a7 7 0 0 0-1.2 2.4v.8a6.4 6.4 0 0 0 0 1.4v.7c0 .3 0 .4-.2.6l-.5.2c-.3 0-.5 0-.6-.2a.8.8 0 0 1-.2-.6v-.7l-.1-.7a30.9 30.9 0 0 1 .2-4.5 12.8 12.8 0 0 0 0-1.4c0-.3 0-.4.2-.6l.5-.2c.5 0 .8.3.8 1v1c1-1.2 1.8-1.8 2.7-1.8.9 0 1.5.3 1.8 1l.4 2.3v1.5l.1 1.6.2 1.7c0 .2 0 .4-.2.6l-.6.2Zm6-.2c-1.1 0-2.1-.3-2.8-.9a3.3 3.3 0 0 1-1.2-2.7c0-1.4.3-2.5 1-3.4.7-1 1.6-1.5 2.8-1.5.9 0 1.6.1 2.1.4.7.4 1 1 1 1.7 0 .5-.2 1-.8 1.4l-1.7.9-3 1.4 1.1 1c.4.2 1 .3 1.5.3.4 0 .8 0 1.3-.2.6-.2 1-.4 1.2-.7.2-.3.4-.4.6-.4.1 0 .3 0 .4.2.2.1.3.3.3.5 0 .5-.5 1-1.4 1.5-.8.3-1.6.5-2.4.5Zm-.2-7.1a2 2 0 0 0-1.6.7 5 5 0 0 0-1 2.2l2.5-1.1 2-1.2c-.4-.4-1-.6-1.9-.6Zm19.5-.3a95.8 95.8 0 0 1-2.3 7.3c-.2.2-.5.4-.8.4-.5 0-1-.8-1.3-2.2l-.3-1.8-.3-1.7-.6 1.5-1.2 3.2c0 .2-.2.3-.3.4-.2.3-.4.5-.8.5s-.7-.7-1.1-2.3l-.6-3.3-.2-1.2v-1.1c0-.3 0-.4.2-.6l.5-.2c.4 0 .7.2.8.6l.1 1.2.1 1.1.5 3.5 1.8-5.5c.2-.6.5-.9.9-.9s.7.4.8 1a52.2 52.2 0 0 1 1.1 5.9l.6-2.1 1-4.3c0-.3.3-.5.6-.5s.5 0 .6.2l.3.6-.1.3Zm8.4 0-2.7 5.9c-.7 1.4-1.2 2.6-1.5 3.6l-.6 1.5c0 .4-.3.6-.7.6-.2 0-.4-.1-.5-.3a.7.7 0 0 1-.3-.5c0-.5.6-2 1.7-4.5l-2.8-5.4-.3-.6c-.2-.2-.2-.4-.2-.6 0-.2 0-.4.2-.5l.6-.3c.2 0 .4.1.5.3 1 1.2 1.9 3 2.9 5.2l1.1-2.7 1.2-2.4c.2-.3.4-.4.7-.4.2 0 .4 0 .6.2l.2.6-.1.4Zm6.7.4h-1.8l.2 4.7v.7c0 1.2-.3 1.7-.9 1.7-.2 0-.3 0-.5-.2a.7.7 0 0 1-.2-.5 26 26 0 0 1 0-1.8l-.1-4.5c-.4 0-1 0-1.8-.2-.4 0-.7-.3-.7-.7l.2-.6c.2-.2.4-.2.6-.2l1.6.1a19 19 0 0 0 0-2c0-.2 0-.4.2-.6l.5-.2c.5 0 .8.4.9 1.2v1.6l1-.1h1.1c.3.2.5.4.5.8 0 .2 0 .4-.2.6l-.6.2Zm4 1.3-.2 3.4v1.5c0 .5-.3.7-.8.7s-.7-.2-.7-.7v-1.9l.1-1.8-1 .5c-.3 0-.5 0-.6-.2a.8.8 0 0 1-.2-.5c0-.3.1-.5.4-.7l1.4-1V118l.1-2.6a.7.7 0 0 1 .7-.7c.3 0 .4 0 .6.2l.2.5v3.7l.4-.5c.1-.2.3-.3.5-.3s.4.1.5.3c.2.1.3.3.3.5 0 .3-.6 1-1.8 2Zm8.4.8a286.3 286.3 0 0 0-.2 5l-.5.2c-.4 0-.7-.3-.8-.8-.7.4-1.4.5-2.3.5a3 3 0 0 1-1.6-.4 2 2 0 0 1-1-1.5l-.2-3.7c0-.7 0-1.5.2-2.4 0-.5.3-.7.7-.7.3 0 .5 0 .6.2.2.2.2.3.2.6v1.1c-.2.5-.2 1-.2 1.2a24.9 24.9 0 0 0 .4 3.7l.5.3h.5a8 8 0 0 0 2.2-.3v-6.1c.1-.4.4-.7.8-.7.3 0 .5.1.6.3.2.1.2.3.2.5l-.1 3Zm11.9 5.2c-.5 0-.7-.2-.8-.7l-.3-2.4-.2-2.4-.3-1.1c-.2-.5-.4-.7-.6-.7l-1 .5c-.6.3-.9.5-1 .7v1.5l.2 2 .2 2.1-.2.6-.6.2c-.2 0-.4 0-.5-.2a.8.8 0 0 1-.3-.6c0-.6 0-1.6-.2-2.8l-.1-2.8c0-.5-.1-1-.3-1.3l-1 .8-1 1c0 .2-.2.4-.4.6v1.4a16.1 16.1 0 0 0-.1 2v.6c0 .2 0 .4-.2.5-.1.2-.3.2-.5.2-.6 0-1-.6-1-2l.2-1.4a16.7 16.7 0 0 0 0-3.9c0-1.2.2-1.7.7-1.7.2 0 .4 0 .6.2l.2.6v1.8c.2-.6.6-1.1 1.2-1.5.5-.5 1-.7 1.3-.7.8 0 1.4.4 1.7 1.2.3-.4.6-.7 1-.9a3 3 0 0 1 1.4-.3c.8 0 1.4.5 1.8 1.5l.3 2.2.5 4.4c0 .2 0 .4-.2.6l-.5.2Zm8.6-.2c-.1 0-.3 0-.6-.3l-.5-.6-1.3.6-1 .3c-1.2 0-2-.4-2.6-1-.6-.7-.8-1.7-.8-3s.4-2.4 1.3-3.3c.8-.9 1.9-1.3 3-1.3.5 0 1 0 1.6.3.7.3 1 .7 1 1v.5l-.2 1a36 36 0 0 0 0 3.2 11.8 11.8 0 0 0 .7 1.8v.1l-.1.5c-.2.2-.3.2-.5.2Zm-1.7-5.4a7.3 7.3 0 0 1 .2-1.6l-.5-.2a1 1 0 0 0-.3 0c-.8 0-1.5.3-2.1 1-.6.6-.9 1.4-.9 2.2 0 .9.2 1.5.5 2 .3.4.7.6 1.3.6.5 0 1-.1 1.3-.3.2 0 .5-.3.8-.6l-.3-3Zm7.3 5.4c-1 0-2-.3-2.7-1a3.4 3.4 0 0 1-1.1-2.6c0-1 .3-2.2 1-3.3.8-1.3 1.7-1.9 2.7-1.9.5 0 1 .1 1.7.4.8.3 1.2.7 1.2 1.1 0 .2 0 .4-.2.5-.1.2-.3.3-.5.3-.1 0-.3 0-.4-.2l-.3-.2c-.3-.3-.8-.4-1.5-.4-.5 0-1 .5-1.6 1.4-.5.9-.7 1.6-.7 2.3 0 .7.2 1.2.7 1.6a2.5 2.5 0 0 0 2.7.3l.9-.5.3-.1c.2 0 .4 0 .5.2.2.2.2.4.2.6 0 .3-.4.7-1.2 1-.7.4-1.3.5-1.7.5Zm11.1-6.8-1.8 2.4-1.8 2.6a30.6 30.6 0 0 1 2.3.1l1 .1c.2 0 .4.1.5.3l.2.5c0 .3 0 .4-.2.6l-.6.2-.9-.1-.9-.1a16.7 16.7 0 0 0-3.6.3c-.5 0-.8-.2-.8-.6 0-.3.2-.5.4-.8 1.4-1.2 2.9-3.1 4.5-5.7a29 29 0 0 1-4-.1c-.4-.1-.6-.4-.6-.8 0-.2 0-.4.2-.6l.5-.2h1.2a11.6 11.6 0 0 0 2.8 0h1.5c.5 0 .7.2.7.6 0 .4-.2.8-.6 1.3Zm5.8 6.7c-1.1 0-2.1-.3-2.8-.9a3.3 3.3 0 0 1-1.2-2.7c0-1.4.3-2.5 1-3.4.7-1 1.6-1.5 2.8-1.5.9 0 1.6.1 2.1.4.7.4 1 1 1 1.7 0 .5-.2 1-.8 1.4l-1.7.9-3 1.4 1.1 1c.4.2 1 .3 1.5.3.4 0 .8 0 1.3-.2.6-.2 1-.4 1.2-.7.2-.3.4-.4.6-.4.1 0 .3 0 .4.2.2.1.3.3.3.5 0 .5-.5 1-1.4 1.5-.8.3-1.6.5-2.4.5Zm-.2-7.1a2 2 0 0 0-1.6.7 5 5 0 0 0-1 2.2l2.5-1.1 2-1.2c-.4-.4-1-.6-1.9-.6Zm11.3 7.3c-.4 0-.7-.3-.7-.8l-.2-1.7a14.4 14.4 0 0 1 0-3.2c0-1-.3-1.6-.7-1.6-.6 0-1.2.3-1.7 1a7 7 0 0 0-1.1 2.4v.8a6.4 6.4 0 0 0 0 1.4v.7c0 .3-.1.4-.3.6l-.5.2c-.2 0-.4 0-.6-.2a.8.8 0 0 1-.2-.6v-1.4a31.4 31.4 0 0 1 .2-4.5 12.7 12.7 0 0 0-.1-1.4c0-.3 0-.4.2-.6l.6-.2c.5 0 .7.3.8 1v1c.9-1.2 1.8-1.8 2.7-1.8.8 0 1.4.3 1.7 1 .3.6.4 1.3.4 2.3v1.5c0 .4 0 1 .2 1.6l.1 1.7c0 .2 0 .4-.2.6l-.6.2Zm4-10.5c-.3 0-.6 0-.7-.2a.9.9 0 0 1-.3-.7c0-.2 0-.4.3-.6.1-.2.4-.3.6-.3.3 0 .5.1.7.3l.2.6c0 .3 0 .5-.2.7l-.7.2Zm.3 6.4a64.8 64.8 0 0 0 0 2.8c0 .2 0 .4-.2.5-.1.2-.3.3-.5.3-.3 0-.5-.1-.6-.3a44.7 44.7 0 0 0-.3-3.4 26.5 26.5 0 0 1 .2-3.6c0-.2 0-.4.2-.6l.6-.2.5.2c.2.2.2.4.2.6a26.8 26.8 0 0 1-.1 3.7Zm6.3 3.9c-1.2 0-2.2-.3-2.9-.9a3.3 3.3 0 0 1-1.2-2.7c0-1.4.3-2.5 1-3.4.7-1 1.7-1.5 2.8-1.5 1 0 1.6.1 2.2.4.6.4 1 1 1 1.7 0 .5-.3 1-1 1.4l-1.6.9-3 1.4 1.1 1c.5.2 1 .3 1.6.3.3 0 .7 0 1.2-.2.6-.2 1-.4 1.2-.7.2-.3.4-.4.6-.4.2 0 .3 0 .5.2l.2.5c0 .5-.5 1-1.4 1.5-.8.3-1.6.5-2.3.5Zm-.3-7.1a2 2 0 0 0-1.5.7 5 5 0 0 0-1 2.2l2.4-1.1 2-1.2c-.4-.4-1-.6-1.9-.6Zm19.9-.2c-.6 2-1.1 4-1.7 5.6-.1.5-.4 1-.8 1.5-.2.3-.5.5-1 .5-.6 0-1.1-.7-1.5-2l-.5-2.6a113.6 113.6 0 0 0-1.7 4c-.3.3-.6.5-1 .5-.3 0-.5-.2-.8-.6a6 6 0 0 1-.7-1.8 62.5 62.5 0 0 1-.8-5.3c0-.3 0-.5.3-.7.2-.2.4-.3.8-.3.5 0 .9.3 1 .8l.2 1.1a54.3 54.3 0 0 0 .4 3l1.3-3.9c.2-.6.6-1 1.2-1s1 .4 1.2 1.2a31.4 31.4 0 0 1 .8 4.2l1.2-4.7c.1-.5.4-.7 1-.7.3 0 .5.1.8.3.2.2.3.4.3.7v.2Zm6.4 1.2c-.5 0-.8-.2-1-.6h-.6c-1.2 0-1.8 0-1.8.4 0 .2.3.5 1.1.8 1 .5 1.7.9 2 1.2.8.5 1.2 1.1 1.2 1.8 0 .9-.4 1.6-1.2 2a5 5 0 0 1-2.5.6c-.7 0-1.3-.1-1.9-.3-.8-.3-1.2-.7-1.2-1.3 0-.5.3-.8 1-.8l1 .2 1 .3c1.1 0 1.6-.3 1.6-.7 0-.2-.3-.5-1-.9-1.1-.4-1.8-.8-2.1-1-.8-.5-1.1-1.1-1.1-1.9 0-1 .5-1.7 1.6-2 .7-.3 1.7-.4 3-.4.5 0 1 0 1.2.2.3.2.5.5.5 1 0 1-.3 1.4-.8 1.4Zm9-.2-1.6 2a133 133 0 0 1-1.6 2.2 23.3 23.3 0 0 1 1.7 0l1 .2c.2 0 .5 0 .7.3.2.2.3.4.3.7 0 .3-.1.5-.3.7a1 1 0 0 1-.8.3h-1c-.3-.2-.6-.2-.8-.2a17.5 17.5 0 0 0-3.6.3c-.3 0-.6 0-.8-.2a.8.8 0 0 1-.3-.7c0-.3.2-.6.5-.9 1.3-1.1 2.6-2.7 4-4.8a18.8 18.8 0 0 1-3.3-.2c-.6 0-1-.4-1-1 0-.3.2-.5.3-.7.2-.2.5-.3.8-.3h1.2a13 13 0 0 0 2.7 0h1.6c.7 0 1 .3 1 .8s-.2 1-.7 1.5Zm9.7-.7a1474.4 1474.4 0 0 1-4.2 9l-.5 1.4c-.2.5-.6.8-1 .8-.3 0-.6-.1-.8-.3a1 1 0 0 1-.4-.8c0-.4.6-1.9 1.7-4.3a136.1 136.1 0 0 0-3.3-6.2c0-.3 0-.5.3-.8.2-.2.5-.3.8-.3.3 0 .6.1.8.4a30 30 0 0 1 2.6 4.4 289.3 289.3 0 0 1 2-4.2c.3-.4.6-.6 1-.6.3 0 .6.1.8.3.2.2.3.4.3.7l-.1.5Zm6.6 1c-.5 0-.9-.3-1-.7h-.6c-1.3 0-1.9 0-1.9.4 0 .2.4.5 1.1.8 1 .5 1.8.9 2.1 1.2.8.5 1.2 1.1 1.2 1.8 0 .9-.4 1.6-1.3 2a5 5 0 0 1-2.5.6c-.6 0-1.3-.1-1.8-.3-.8-.3-1.2-.7-1.2-1.3 0-.5.3-.8 1-.8l1 .2 1 .3c1 0 1.6-.3 1.6-.7 0-.2-.4-.5-1.1-.9l-2-1c-.8-.5-1.2-1.1-1.2-1.9 0-1 .6-1.7 1.7-2 .6-.3 1.6-.4 3-.4.5 0 .9 0 1.1.2.4.2.5.5.5 1 0 1-.2 1.4-.7 1.4Zm7.8-.7a9.9 9.9 0 0 1-.8 0h-.7a119.6 119.6 0 0 1 .1 5c0 1.2-.4 1.8-1.1 1.8-.3 0-.5 0-.8-.2a.9.9 0 0 1-.3-.7 23.3 23.3 0 0 1 0-1.7v-4l-1.6-.2c-.6 0-1-.4-1-1a1 1 0 0 1 1.1-1h1.4a39 39 0 0 0-.1-1.6c0-.3 0-.5.3-.7.2-.2.5-.3.8-.3.7 0 1.1.7 1.1 2v.6a5.7 5.7 0 0 1 2 0c.5.2.7.5.7 1 0 .3-.1.5-.3.7a1 1 0 0 1-.8.3Zm8.6 6.6c-.4 0-.7-.1-1-.5-.2-.5-.6-1-1.1-1.7l-1.3-1.6-1 .7v2c0 .4-.2.6-.4.8a1 1 0 0 1-.7.3c-.8 0-1.1-.4-1.1-1.3a28.3 28.3 0 0 1 .1-3.7 121 121 0 0 1 .3-7.5c.2-.2.5-.3.8-.3.3 0 .6.1.8.3.2.2.3.4.3.7V116.7a61.6 61.6 0 0 1 0 4.3c.7-.5 1.8-1.5 3.2-3a1 1 0 0 1 1.6 0c.2.3.3.5.3.8 0 .2-.1.5-.3.7-.6.7-1.3 1.4-2.2 2.1l1.6 2.1c.8 1 1.2 1.8 1.2 2.1 0 .3-.1.5-.3.7-.3.2-.5.3-.8.3Zm3.8-9.7c-.3 0-.6 0-.8-.3a1 1 0 0 1-.4-.8c0-.3.1-.6.4-.8.2-.3.5-.4.8-.4.4 0 .7.1.9.4.2.2.4.5.4.8 0 .3-.2.6-.4.8-.2.2-.5.3-.9.3Zm.7 5.8a66 66 0 0 0 0 2.8c0 .3 0 .6-.3.8a1 1 0 0 1-.7.3 1 1 0 0 1-.8-.3 1 1 0 0 1-.3-.8 50.7 50.7 0 0 0 0-2.8V121l.1-1.7c0-.3.1-.6.3-.8.2-.2.5-.3.8-.3.3 0 .5.1.8.3.2.2.3.5.3.8l-.1 1.7-.1 1.8Zm5.6 4.1c-1.1 0-2-.3-2.9-1a3.4 3.4 0 0 1-1.2-2.7c0-1 .4-2 1.1-3.2.9-1.2 1.8-1.9 3-1.9.5 0 1.1.2 1.8.5 1 .3 1.3.7 1.3 1.2 0 .3 0 .5-.2.7a1 1 0 0 1-.7.3c-.3 0-.5-.1-.9-.4-.3-.2-.7-.3-1.4-.3-.4 0-.8.4-1.3 1.2a4 4 0 0 0-.6 2c0 .5.2.9.5 1.2.4.3 1 .5 1.5.5.4 0 .8-.2 1.3-.4l1-.4c.3 0 .5 0 .7.3.2.2.3.4.3.7 0 .4-.4.8-1.3 1.2a5 5 0 0 1-2 .5Zm7-7.6 1.2-.9 1.4-.2c.9 0 1.5.2 2 .7.2.4.4 1 .4 1.7a215.6 215.6 0 0 0 .6 5v.3c0 .3-.1.5-.3.7-.3.2-.5.3-.8.3-.5 0-.9-.2-1-.8a12.5 12.5 0 0 1-.5-3.6 17.2 17.2 0 0 1 0-1.1v-.7c0-.3-.2-.4-.4-.4-.6 0-1.1.2-1.6.8l-1 1.5c0 1.9 0 3-.2 3.4-.2.4-.6.6-1 .6-.3 0-.6 0-.8-.3a1 1 0 0 1-.3-.7v-.4l.2-2.1v-5.5a28.9 28.9 0 0 0-.1-2.7c0-.3.1-.5.3-.7.2-.2.5-.3.8-.3.5 0 .8.3 1 .8l.2 1.5a27.5 27.5 0 0 1-.1 3Zm-253 22.8a9.8 9.8 0 0 1-.7 0h-.7a119.9 119.9 0 0 1 .1 5c0 1.2-.3 1.8-1.1 1.8-.3 0-.5 0-.7-.2a.9.9 0 0 1-.4-.7 22 22 0 0 1 0-1.7v-4l-1.5-.2c-.7 0-1-.4-1-1a1 1 0 0 1 1-1h1.4a41.5 41.5 0 0 0-.1-1.6c0-.3.1-.5.3-.7.2-.2.5-.3.8-.3.8 0 1.1.7 1.1 2v.6a5.7 5.7 0 0 1 2 0c.5.2.7.5.7 1 0 .3-.1.5-.3.7a1 1 0 0 1-.8.3Zm6 6.7a5 5 0 0 1-3-.9 3.3 3.3 0 0 1-1.3-2.8c0-1.3.3-2.4 1-3.3.8-1 1.8-1.5 3.2-1.5.9 0 1.6.1 2.2.4.8.4 1.2 1 1.2 1.8 0 .6-.3 1-1 1.5l-1.7 1-2.7 1c.3.3.6.6 1 .7l1.2.2c.7 0 1.3-.2 1.7-.4l1-.4c.6 0 .9.2.9.8 0 .6-.4 1-1.3 1.4-.7.3-1.5.5-2.3.5Zm-.1-6.6c-.5 0-1 .1-1.3.4-.3.4-.6.8-.8 1.5a474.2 474.2 0 0 1 3.4-1.6c-.3-.2-.8-.3-1.3-.3Zm11.7.6c0 .8-.4 1.2-1 1.2-.7 0-1-.3-1-1v-.8c-1.3.2-2 .8-2.6 1.8v4c0 .2 0 .5-.3.7a1 1 0 0 1-.8.3 1 1 0 0 1-.7-.4 1 1 0 0 1-.3-.7V143a23.9 23.9 0 0 1 0-1.4c0-.3.1-.6.3-.8.2-.2.4-.3.8-.3.5 0 .9.3 1 1 1-.8 2-1.1 3-1.1 1.1 0 1.6.7 1.6 2v.6Zm3.2-1.3c.8-.9 1.5-1.4 2.2-1.4.8 0 1.4.4 1.8 1a3.3 3.3 0 0 1 2.3-.9c1 0 1.7.5 2 1.5a87.6 87.6 0 0 1 .9 6.3c0 .4 0 .6-.2.8-.3.2-.5.3-.8.3-.6 0-1-.3-1-.9a34 34 0 0 1-.6-4.5c-.2-1-.3-1.4-.6-1.4 0 0-.4 0-.8.3l-1 .6.3 2.6.2 2.6c0 .3 0 .5-.3.7a1 1 0 0 1-.8.3 1 1 0 0 1-.7-.3 1 1 0 0 1-.3-.7l-.2-2.7a26.6 26.6 0 0 1-.3-3.4 6.4 6.4 0 0 0-2 2 133.1 133.1 0 0 0 0 3.5c0 .3-.1.5-.4.7-.2.2-.4.2-.8.2s-.7-.2-.8-.5c-.2-.3-.2-.7-.2-1.3v-2.9a29.7 29.7 0 0 0 0-2.3c0-.4 0-.9.2-1.2.2-.5.5-.7.8-.7.3 0 .6 0 .8.3l.4.7-.1.7Zm12.2-2.5c-.3 0-.6 0-.9-.3a1 1 0 0 1-.4-.8c0-.3.2-.6.4-.8.3-.3.6-.4.9-.4.3 0 .6.1.8.4.3.2.4.5.4.8 0 .3-.1.6-.4.8-.2.2-.5.3-.8.3Zm.6 5.8a67.8 67.8 0 0 0 .1 2.8c0 .3-.1.6-.3.8a1 1 0 0 1-.8.3 1 1 0 0 1-.7-.3 1 1 0 0 1-.4-.8 50.4 50.4 0 0 0 0-2.8V143l.1-1.7c0-.3.1-.6.4-.8.2-.2.4-.3.7-.3.3 0 .6.1.8.3.2.2.3.5.3.8v1.7l-.2 1.8Zm8.2 4.2c-.6 0-1-.3-1-1a1326.7 1326.7 0 0 1-.3-3.9 12.7 12.7 0 0 0 0-1.3c0-.5 0-.7-.3-.7-.5 0-1 .3-1.4.9a6 6 0 0 0-1.1 2v.8a5.2 5.2 0 0 0 0 1.3v.7c0 .3-.1.5-.3.7a1 1 0 0 1-.8.3 1 1 0 0 1-.8-.3 1 1 0 0 1-.3-.7v-3.4a27.2 27.2 0 0 0 0-3.5c0-.3.2-.5.4-.7.2-.2.5-.3.8-.3.7 0 1 .4 1 1.2v.1c.8-.8 1.6-1.1 2.5-1.1 1 0 1.7.4 2 1.2.3.5.4 1.4.4 2.5v.5a27 27 0 0 0 .2 2.1l.1 1.6c0 .3 0 .5-.3.7a1 1 0 0 1-.8.3Zm5.5-.1c-1 0-1.8-.3-2.4-1a4 4 0 0 1-1.2-2.9c0-1.2.2-2.2.9-3 .8-1.1 1.9-1.7 3.3-1.7 1 0 1.9.4 2.5 1.3.5.7.8 1.7.8 2.8a5 5 0 0 1-1 3c-.7 1-1.6 1.5-2.9 1.5Zm.5-6.5c-.6 0-1.1.3-1.5.9-.3.5-.5 1-.5 1.7 0 .6.2 1.1.6 1.4.2.3.6.4 1 .4s.8-.1 1.1-.4c.4-.4.6-.9.6-1.5 0-1.7-.3-2.5-1.3-2.5Zm2-5.4c-.3.2-.7.5-1 1l-1 1a1.1 1.1 0 0 1-1.5-.1.8.8 0 0 1-.3-.6l.3-.7a57.1 57.1 0 0 0 1.6-1.5c.5-.5.9-.7 1.3-.7.2 0 .5.1.7.3l.3.6c0 .3-.2.5-.5.7Zm12.7 4.5c-.6 2-1.1 4-1.7 5.6-.1.5-.4 1-.7 1.5-.3.3-.6.5-1 .5-.7 0-1.2-.7-1.6-2l-.5-2.6-.2.4a114.4 114.4 0 0 0-1.5 3.6c-.2.3-.6.5-1 .5-.2 0-.5-.2-.8-.6a6 6 0 0 1-.7-1.8 61.2 61.2 0 0 1-.8-5.3c0-.3 0-.5.3-.7.2-.2.5-.3.8-.3.5 0 .9.3 1 .8l.2 1.1a54.3 54.3 0 0 0 .4 3l1.3-3.9c.3-.6.7-1 1.2-1 .6 0 1 .4 1.2 1.2a31.4 31.4 0 0 1 .8 4.2l1.2-4.7c.1-.5.5-.7 1-.7.3 0 .5.1.8.3.2.2.3.4.3.7v.2Zm14.6 1-1.6 2-1.6 2.2a23.4 23.4 0 0 1 1.7 0l.9.2c.3 0 .5 0 .7.3.3.2.4.4.4.7 0 .3-.1.5-.3.7a1 1 0 0 1-.8.3h-1c-.3-.2-.6-.2-.8-.2a17.5 17.5 0 0 0-3.7.3c-.2 0-.5 0-.7-.2a.8.8 0 0 1-.3-.7c0-.3.1-.6.5-.9 1.3-1.1 2.6-2.7 4-4.8a18.8 18.8 0 0 1-3.3-.2c-.7 0-1-.4-1-1 0-.3.1-.5.3-.7.2-.2.5-.3.8-.3h1.1a13 13 0 0 0 2.8 0h1.6c.6 0 1 .3 1 .8s-.3 1-.7 1.5Zm11.9-1c-.6 2-1.1 4-1.7 5.6-.1.5-.4 1-.7 1.5-.3.3-.6.5-1 .5-.7 0-1.2-.7-1.6-2l-.5-2.6-.2.4a114.4 114.4 0 0 0-1.5 3.6c-.2.3-.6.5-1 .5-.2 0-.5-.2-.8-.6a6 6 0 0 1-.7-1.8 61.2 61.2 0 0 1-.8-5.3c0-.3 0-.5.3-.7.2-.2.5-.3.8-.3.5 0 .9.3 1 .8l.2 1.1a54.3 54.3 0 0 0 .4 3l1.3-3.9c.3-.6.7-1 1.2-1 .6 0 1 .4 1.2 1.2a31.4 31.4 0 0 1 .8 4.2l1.2-4.7c.1-.5.5-.7 1-.7.3 0 .5.1.8.3.2.2.3.4.3.7v.2Zm2.7-2.5c-.3 0-.6 0-.8-.3a1 1 0 0 1-.4-.8c0-.3.1-.6.4-.8.2-.3.5-.4.8-.4.4 0 .6.1.9.4.2.2.3.5.3.8 0 .3 0 .6-.3.8-.3.2-.5.3-.9.3Zm.7 5.8a64.3 64.3 0 0 0 0 2.8c0 .3 0 .6-.3.8a1 1 0 0 1-.7.3 1 1 0 0 1-.8-.3 1 1 0 0 1-.3-.8 49.8 49.8 0 0 0 0-2.8v-3.5c0-.3.2-.6.4-.8.2-.2.4-.3.8-.3.3 0 .5.1.7.3.2.2.3.5.3.8v1.7l-.1 1.8Zm8.8 4.1c-.3 0-.7-.2-1.2-.7l-1.2.5a3 3 0 0 1-1 .2c-1.2 0-2.2-.4-2.8-1-.6-.7-1-1.7-1-3s.5-2.4 1.5-3.3a4.4 4.4 0 0 1 5-1c.8.4 1.2.8 1.2 1.3 0 .2 0 .3-.2.5l-.1.8a13.5 13.5 0 0 0 .1 3.2 20.9 20.9 0 0 0 .7 1.6c0 .3-.1.5-.3.7a1 1 0 0 1-.7.2Zm-2-5.3a6 6 0 0 1 .2-1.3 1.4 1.4 0 0 0-.5-.2c-.7 0-1.3.3-1.9.9-.5.5-.8 1.2-.8 1.9s.2 1.2.4 1.6c.3.3.6.5 1.1.5a2.6 2.6 0 0 0 1.8-.6l-.3-2.8Zm2.2 7.5a2 2 0 0 1-1.6-.7 2 2 0 0 1-.6-1.4c0-.4.2-.8.7-1.2a2 2 0 0 1 1.4-.7c.3 0 .5 0 .7.3l.2.5c0 .3-.2.5-.6.7l-.6.4c0 .2 0 .3.2.4l.2.2c.5 0 .9-.1 1.2-.3h.5c.2 0 .4 0 .6.2.2.1.2.3.2.5 0 .4-.3.7-1 .9a5 5 0 0 1-1.5.2Zm8.6-8.6-1.6 2-1.6 2.2a23.4 23.4 0 0 1 1.7 0l1 .2c.2 0 .5 0 .7.3.2.2.3.4.3.7 0 .3-.1.5-.3.7a1 1 0 0 1-.8.3h-1c-.3-.2-.6-.2-.8-.2a17.5 17.5 0 0 0-3.6.3c-.3 0-.6 0-.8-.2a.8.8 0 0 1-.3-.7c0-.3.2-.6.5-.9 1.3-1.1 2.6-2.7 4-4.8a18.8 18.8 0 0 1-3.3-.2c-.6 0-1-.4-1-1 0-.3.1-.5.3-.7.2-.2.5-.3.8-.3h1.2a13 13 0 0 0 2.7 0h1.6c.7 0 1 .3 1 .8s-.2 1-.7 1.5Zm8.7 6.4c-.3 0-.7-.2-1.2-.7l-1.2.5a3 3 0 0 1-1 .2c-1.2 0-2.2-.4-2.8-1-.6-.7-1-1.7-1-3s.5-2.4 1.5-3.3a4.4 4.4 0 0 1 5-1c.8.4 1.2.8 1.2 1.3 0 .2 0 .3-.2.5l-.1.8a13.5 13.5 0 0 0 .1 3.2 20.9 20.9 0 0 0 .7 1.6c0 .3-.1.5-.3.7a1 1 0 0 1-.7.2Zm-2-5.3a6 6 0 0 1 .2-1.3 1.4 1.4 0 0 0-.5-.2c-.7 0-1.3.3-1.9.9-.5.5-.8 1.2-.8 1.9s.2 1.2.4 1.6c.3.3.6.5 1.1.5a2.6 2.6 0 0 0 1.8-.6l-.3-2.8Zm10.3 5.4c-.7 0-1-.3-1.1-1a1325 1325 0 0 1-.3-3.9 12.5 12.5 0 0 0 0-1.3c0-.5 0-.7-.3-.7-.5 0-1 .3-1.4.9-.5.5-.8 1.2-1 2l-.1.8a5.2 5.2 0 0 0 0 1.3v.7c0 .3-.1.5-.3.7a1 1 0 0 1-.8.3 1 1 0 0 1-.8-.3 1 1 0 0 1-.3-.7v-3.4a27.1 27.1 0 0 0 .1-3.5c0-.3.1-.5.3-.7.2-.2.5-.3.8-.3.7 0 1 .4 1.1 1.2v.1c.8-.8 1.6-1.1 2.4-1.1 1 0 1.7.4 2 1.2.3.5.4 1.4.4 2.5v.5a26.8 26.8 0 0 0 .2 2.1l.2 1.6c0 .3-.2.5-.4.7a1 1 0 0 1-.7.3Zm10-7.2a1652.1 1652.1 0 0 1-4.3 9c0 .3-.2.8-.5 1.4-.2.5-.5.8-1 .8-.3 0-.5-.1-.8-.3a1 1 0 0 1-.3-.8c0-.4.6-1.9 1.7-4.3a135 135 0 0 0-3.4-6.2c0-.3.1-.5.4-.8.2-.2.5-.3.7-.3.4 0 .7.1.9.4.7 1 1.6 2.5 2.5 4.4a272 272 0 0 1 2.1-4.2c.3-.4.6-.6 1-.6.3 0 .5.1.7.3.3.2.4.4.4.7l-.1.5Zm4.6 7.1c-1.1 0-2-.3-2.9-1a3.4 3.4 0 0 1-1.2-2.7c0-1 .4-2 1.1-3.2.8-1.2 1.8-1.9 3-1.9.5 0 1.1.2 1.8.5.9.3 1.3.7 1.3 1.2 0 .3 0 .5-.2.7a1 1 0 0 1-.8.3l-.8-.4c-.3-.2-.7-.3-1.4-.3-.4 0-.8.4-1.3 1.2a4 4 0 0 0-.7 2c0 .5.2.9.6 1.2.4.3 1 .5 1.5.5.4 0 .8-.2 1.3-.4l1-.4c.2 0 .5 0 .7.3.2.2.3.4.3.7 0 .4-.5.8-1.3 1.2a5 5 0 0 1-2 .5Zm7-7.6c.3-.4.8-.7 1.2-.9l1.4-.2c.9 0 1.5.2 2 .7.2.4.4 1 .4 1.7a260.7 260.7 0 0 0 .3 3.5 14.1 14.1 0 0 0 .3 1.8c0 .3-.1.5-.3.7-.3.2-.5.3-.8.3-.5 0-.9-.2-1-.8a12.5 12.5 0 0 1-.5-3.6 15 15 0 0 1 0-1.1v-.7c0-.3-.2-.4-.4-.4-.6 0-1.1.2-1.6.8-.2.2-.6.7-1 1.5 0 1.9 0 3-.2 3.4-.2.4-.6.6-1 .6-.3 0-.6 0-.8-.3a1 1 0 0 1-.3-.7v-.4l.2-2.1v-5.5a30.7 30.7 0 0 0-.1-2.7c0-.3 0-.5.3-.7.2-.2.5-.3.8-.3.5 0 .8.3 1 .8l.2 1.5a27.5 27.5 0 0 1-.1 3Zm20.6 1.2-1.6 2-1.7 2.2a23.4 23.4 0 0 1 1.7 0l1 .2c.2 0 .5 0 .7.3.2.2.3.4.3.7 0 .3 0 .5-.3.7a1 1 0 0 1-.8.3h-.9c-.4-.2-.7-.2-.9-.2a17.5 17.5 0 0 0-3.6.3c-.3 0-.5 0-.7-.2a.8.8 0 0 1-.4-.7c0-.3.2-.6.5-.9 1.3-1.1 2.7-2.7 4-4.8a18.8 18.8 0 0 1-3.3-.2c-.6 0-1-.4-1-1 0-.3.2-.5.4-.7.2-.2.4-.3.7-.3h1.2a13 13 0 0 0 2.8 0h1.5c.7 0 1 .3 1 .8s-.2 1-.6 1.5Zm14.3-.4a9.8 9.8 0 0 1-.8 0h-.7a119.6 119.6 0 0 1 .1 5c0 1.2-.3 1.8-1 1.8-.4 0-.6 0-.8-.2a.9.9 0 0 1-.4-.7 21.2 21.2 0 0 1 0-1.7v-4l-1.5-.2c-.7 0-1-.4-1-1a1 1 0 0 1 1-1h1.4a39 39 0 0 0-.1-1.6c0-.3.1-.5.3-.7.2-.2.5-.3.8-.3.8 0 1.2.7 1.2 2v.6a5.7 5.7 0 0 1 2 0c.4.2.6.5.6 1 0 .3-.1.5-.3.7a1 1 0 0 1-.8.3Zm8.6.7c0 .8-.4 1.2-1.1 1.2-.7 0-1-.3-1-1v-.8c-1.2.2-2 .8-2.5 1.8v4c0 .2-.1.5-.3.7a1 1 0 0 1-.8.3 1 1 0 0 1-.8-.4 1 1 0 0 1-.2-.7V143a24.8 24.8 0 0 1 0-1.4c0-.3.1-.6.3-.8.1-.2.4-.3.7-.3.6 0 1 .3 1 1 1-.8 2-1.1 3.1-1.1 1 0 1.6.7 1.6 2v.6Zm5 6a5 5 0 0 1-3-.9 3.3 3.3 0 0 1-1.3-2.8c0-1.3.3-2.4 1-3.3.8-1 1.8-1.5 3.1-1.5 1 0 1.7.1 2.3.4.8.4 1.2 1 1.2 1.8 0 .6-.3 1-1 1.5l-1.7 1-2.7 1c.3.3.6.6 1 .7l1.2.2c.7 0 1.2-.2 1.7-.4l1-.4c.6 0 .9.2.9.8 0 .6-.5 1-1.3 1.4-.8.3-1.5.5-2.3.5Zm-.2-6.6c-.4 0-.9.1-1.2.4-.3.4-.6.8-.8 1.5a405.7 405.7 0 0 1 3.4-1.6c-.3-.2-.8-.3-1.4-.3Zm11.4 6.8c-.6 0-1-.3-1-1a1325 1325 0 0 1-.4-3.9 12.5 12.5 0 0 0 .1-1.3c0-.5-.1-.7-.3-.7-.5 0-1 .3-1.4.9a6 6 0 0 0-1.1 2v.8a5.2 5.2 0 0 0 0 1.3v.7c0 .3-.1.5-.3.7a1 1 0 0 1-.8.3 1 1 0 0 1-.8-.3 1 1 0 0 1-.3-.7v-3.4a27.2 27.2 0 0 0 0-3.5c0-.3.2-.5.4-.7.2-.2.5-.3.8-.3.6 0 1 .4 1 1.2v.1c.8-.8 1.6-1.1 2.5-1.1 1 0 1.6.4 2 1.2.3.5.4 1.4.4 2.5v.5a29.5 29.5 0 0 0 .1 2.1c.2.6.2 1.2.2 1.6 0 .3 0 .5-.3.7a1 1 0 0 1-.8.3Zm4-10c-.3 0-.6 0-.8-.3a1 1 0 0 1-.4-.8c0-.3.1-.6.4-.8.2-.3.5-.4.8-.4.4 0 .6.1.9.4.2.2.4.5.4.8 0 .3-.2.6-.4.8-.3.2-.5.3-.9.3Zm.7 5.8a71.3 71.3 0 0 0 0 2.8c0 .3 0 .6-.3.8a1 1 0 0 1-.7.3 1 1 0 0 1-.8-.3 1 1 0 0 1-.3-.8 49.8 49.8 0 0 0 0-2.8v-3.5c0-.3.2-.6.4-.8.2-.2.5-.3.8-.3.3 0 .5.1.7.3.2.2.3.5.3.8v1.7l-.1 1.8Zm8.2 4.2c-.7 0-1-.3-1-1a1325 1325 0 0 1-.4-3.9 12.8 12.8 0 0 0 0-1.3c0-.5 0-.7-.3-.7-.4 0-1 .3-1.4.9a6 6 0 0 0-1 2l-.1.8a5 5 0 0 0 0 1.3v.7c0 .3 0 .5-.3.7a1 1 0 0 1-.8.3 1 1 0 0 1-.7-.3 1 1 0 0 1-.3-.7v-.7l-.1-.6v-2.1a27.1 27.1 0 0 0 .1-3.5c0-.3.1-.5.3-.7.3-.2.5-.3.8-.3.7 0 1 .4 1.1 1.2v.1c.8-.8 1.6-1.1 2.4-1.1 1 0 1.7.4 2 1.2.3.5.4 1.4.4 2.5v.5a29.5 29.5 0 0 0 .2 2.1l.2 1.6c0 .3-.1.5-.3.7-.2.2-.5.3-.8.3Zm9.4-5.2c-.2 1.2-.3 2.5-.3 3.8 0 1.7-.4 3-.9 3.7-.7 1-1.9 1.5-3.6 1.5-2 0-3-.4-3-1.2 0-.3 0-.5.2-.7l.7-.2 1 .1 1.2.1c.8 0 1.4-.2 1.7-.7.4-.4.6-1.2.7-2.2a2.7 2.7 0 0 1-2 .8 3.4 3.4 0 0 1-3.5-3.6c0-1.4.4-2.5 1.3-3.4.9-1 2-1.4 3.6-1.4.5 0 1 0 1.3.2.3.1.6.3.8.6.7 0 1 .4 1 1.1 0 .4 0 .9-.2 1.5Zm-3-1.6c-.9 0-1.5.3-2 .9-.5.5-.7 1.2-.7 2 0 .6.1 1.1.4 1.4.2.3.5.5 1 .5.4 0 .9-.3 1.3-.8.4-.4.6-.9.7-1.3l.3-2.4-.5-.2h-.5Zm6-3.2c-.2 0-.5 0-.8-.3a1 1 0 0 1-.3-.8c0-.3 0-.6.3-.8.3-.3.6-.4.9-.4.3 0 .6.1.8.4.3.2.4.5.4.8 0 .3-.1.6-.4.8-.2.2-.5.3-.8.3Zm.8 5.8a66 66 0 0 0 0 2.8c0 .3-.1.6-.3.8a1 1 0 0 1-.8.3 1 1 0 0 1-.7-.3 1 1 0 0 1-.3-.8 53.9 53.9 0 0 0-.1-2.8V143l.2-1.7c0-.3 0-.6.3-.8.2-.2.4-.3.7-.3.3 0 .6.1.8.3.2.2.3.5.3.8v1.7l-.1 1.8Zm6 4a5 5 0 0 1-3.1-.9 3.3 3.3 0 0 1-1.3-2.8c0-1.3.3-2.4 1-3.3.8-1 1.8-1.5 3.1-1.5 1 0 1.7.1 2.3.4.8.4 1.2 1 1.2 1.8 0 .6-.4 1-1 1.5l-1.8 1-2.6 1c.3.3.6.6 1 .7l1.1.2c.7 0 1.3-.2 1.8-.4.4-.3.8-.4 1-.4.6 0 .9.2.9.8 0 .6-.5 1-1.4 1.4-.7.3-1.5.5-2.3.5Zm-.3-6.6c-.5 0-.9.1-1.2.4-.4.4-.6.8-.9 1.5a466.8 466.8 0 0 1 3.5-1.6c-.4-.2-.8-.3-1.4-.3Zm7.3-.7c.8-.9 1.5-1.4 2.2-1.4.8 0 1.4.4 1.8 1a3.3 3.3 0 0 1 2.3-.9c1 0 1.7.5 2 1.5l.4 2.2.5 4.2c0 .3 0 .5-.3.7-.2.2-.4.3-.7.3-.6 0-1-.3-1.1-.9a33.8 33.8 0 0 1-.5-4.5c-.2-1-.4-1.4-.6-1.4-.1 0-.4 0-.8.3l-1 .6.3 2.6.2 2.6c0 .3-.1.5-.3.7a1 1 0 0 1-.8.3 1 1 0 0 1-.8-.3 1 1 0 0 1-.3-.7c0-.6 0-1.5-.2-2.7a26.5 26.5 0 0 1-.2-3.4 6.4 6.4 0 0 0-2 2 132.5 132.5 0 0 0 0 3.5c0 .3-.2.5-.4.7-.2.2-.5.2-.8.2-.4 0-.7-.2-.9-.5l-.1-1.3v-2.9a29.2 29.2 0 0 0-.1-2.3c0-.4 0-.9.3-1.2.2-.5.4-.7.8-.7.3 0 .6 0 .8.3.2.2.3.5.3.7v.7ZM51.9 164.8c-.5 0-.8-.2-1-.6h-.6c-1.2 0-1.9 0-1.9.4 0 .2.4.5 1.2.8 1 .5 1.7.9 2 1.2.8.5 1.2 1.1 1.2 1.8 0 .9-.4 1.6-1.3 2a5 5 0 0 1-2.4.6c-.7 0-1.4-.1-2-.3-.7-.3-1.1-.7-1.1-1.3 0-.5.3-.8 1-.8l1 .2 1 .3c1 0 1.6-.3 1.6-.7 0-.2-.4-.5-1.1-.9l-2-1c-.8-.5-1.2-1.1-1.2-1.9 0-1 .6-1.7 1.7-2 .6-.3 1.6-.4 3-.4.5 0 .9 0 1.1.2.4.2.5.5.5 1 0 1-.2 1.4-.7 1.4Zm4-3.7c-.3 0-.6 0-.8-.3a1 1 0 0 1-.4-.8c0-.3.1-.6.4-.8.2-.3.5-.4.9-.4.3 0 .6.1.8.4.3.2.4.5.4.8 0 .3-.1.6-.4.8-.2.2-.5.3-.8.3Zm.7 5.8a67.1 67.1 0 0 0 0 2.8c0 .3 0 .6-.2.8a1 1 0 0 1-.8.3 1 1 0 0 1-.8-.3 1 1 0 0 1-.3-.8 50.8 50.8 0 0 0 0-2.8V165l.1-1.7c0-.3.1-.6.3-.8.2-.2.5-.3.8-.3.3 0 .6.1.8.3.2.2.3.5.3.8l-.1 1.7v1.8Zm5.1-4.1 1.1-.7c.5 0 .8.4.8 1 0 .3-.3.6-.8 1l-1 1a185.2 185.2 0 0 1-.3 5.4c-.1.2-.4.2-.8.2-.6 0-.9-.3-.9-1v-3.5l-.3.3c-.3.3-.6.5-.8.5-.5 0-.7-.4-.7-1 0-.2.1-.5.5-.8l1.3-1.1v-4.4c0-.3.1-.6.3-.7.2-.2.4-.3.7-.3.6 0 1 .3 1 1v3Zm5.8 8.2c-1 0-1.7-.3-2.4-1a4 4 0 0 1-1.2-2.9c0-1.2.2-2.2 1-3 .7-1.1 1.8-1.7 3.2-1.7 1 0 1.9.4 2.5 1.3.6.7.8 1.7.8 2.8a5 5 0 0 1-1 3c-.7 1-1.6 1.5-2.9 1.5Zm.5-6.5c-.6 0-1.1.3-1.5.9-.3.5-.5 1-.5 1.7 0 .6.2 1.1.6 1.4.2.3.6.4 1 .4s.8-.1 1.1-.4c.4-.4.6-.9.6-1.5.1-1.7-.3-2.5-1.3-2.5Zm14.7-.9c-.5 2-1 4-1.6 5.6-.2.5-.4 1-.8 1.5-.2.3-.6.5-1 .5-.6 0-1.1-.7-1.5-2-.2-.4-.3-1.3-.5-2.6l-.2.4a113.6 113.6 0 0 0-1.6 3.6c-.2.3-.5.5-1 .5-.2 0-.4-.2-.7-.6a6 6 0 0 1-.7-1.8 61.8 61.8 0 0 1-.9-5.3c0-.3.1-.5.4-.7.2-.2.4-.3.7-.3.6 0 1 .3 1 .8l.2 1.1a45.9 45.9 0 0 0 .5 3l1.3-3.9c.2-.6.6-1 1.2-1s1 .4 1.2 1.2a31.2 31.2 0 0 1 .8 4.2l1.2-4.7c.1-.5.4-.7 1-.7.3 0 .5.1.7.3.3.2.4.4.4.7v.2Zm8.8.3a1589.5 1589.5 0 0 1-4.2 9l-.6 1.4c-.2.5-.5.8-1 .8-.3 0-.5-.1-.7-.3a1 1 0 0 1-.4-.8c0-.4.6-1.9 1.7-4.3a135 135 0 0 0-3.3-6.2c0-.3 0-.5.3-.8.2-.2.5-.3.8-.3.3 0 .6.1.8.4a30 30 0 0 1 2.6 4.4 256.8 256.8 0 0 1 2-4.2c.3-.4.6-.6 1-.6.3 0 .5.1.8.3.2.2.3.4.3.7l-.1.5Zm3-.3c.9-.9 1.6-1.4 2.3-1.4.8 0 1.4.4 1.8 1a3.3 3.3 0 0 1 2.3-.9c1 0 1.7.5 2 1.5l.4 2.2.6 4.2c0 .3-.1.5-.4.7-.2.2-.4.3-.7.3-.6 0-1-.3-1-.9a33.8 33.8 0 0 1-.6-4.5c-.2-1-.4-1.4-.6-1.4-.1 0-.4 0-.8.3l-1 .6.3 2.6.2 2.6c0 .3-.1.5-.3.7a1 1 0 0 1-.8.3 1 1 0 0 1-.8-.3 1 1 0 0 1-.3-.7c0-.6 0-1.5-.2-2.7a26.6 26.6 0 0 1-.2-3.4 6.4 6.4 0 0 0-2 2 132.3 132.3 0 0 0 0 3.5c0 .3-.2.5-.4.7-.2.2-.5.2-.8.2-.4 0-.7-.2-.9-.5l-.1-1.3v-2.9a29.6 29.6 0 0 0 0-2.3c0-.4 0-.9.2-1.2.2-.5.4-.7.8-.7.3 0 .6 0 .8.3.2.2.3.5.3.7v.7Zm12 9.6c-.3 0-.4 0-.6-.2a.7.7 0 0 1-.2-.5l.5-1.3.7-1.4c.1-.3.3-.4.5-.4s.4 0 .5.2l.2.5-1.1 2.7c-.1.3-.3.4-.6.4ZM121 171c-.3 0-.5-.2-.7-.5-.2-.5-.6-1.2-1.2-1.9l-1.4-1.9-1.4 1v2.4l-.3.6-.5.2c-.6 0-.8-.4-.8-1a31.3 31.3 0 0 1 .2-4 133 133 0 0 1 .2-7.6l.5-.2c.3 0 .4 0 .6.2l.2.6v6.9a22 22 0 0 0 2-1.8l1.8-1.7c.1-.2.3-.3.5-.3s.4 0 .6.2l.2.6c0 .2 0 .4-.2.5-.7.8-1.4 1.6-2.4 2.4l1.7 2.4c.8 1 1.2 1.8 1.2 2 0 .3 0 .5-.2.6l-.6.3Zm7.4-7h-1.8v5.4c.1 1.2-.2 1.7-.7 1.7-.2 0-.4 0-.6-.2a.7.7 0 0 1-.2-.5 23.6 23.6 0 0 1 0-1.8l-.1-4.5c-.4 0-1 0-1.7-.2-.5 0-.7-.3-.7-.7 0-.3 0-.5.2-.6.1-.2.3-.2.5-.2l1.6.1a19 19 0 0 0 0-2c0-.2 0-.4.2-.6l.6-.2c.4 0 .7.4.8 1.2v1.6l1-.1h1.2c.3.2.4.4.4.8 0 .2 0 .4-.2.6l-.5.2Zm5.3 7a3 3 0 0 1-2.3-.9c-.7-.7-1-1.7-1.1-2.9a5 5 0 0 1 .9-3c.7-1.1 1.7-1.7 3-1.7 1 0 1.9.5 2.4 1.5.4.7.6 1.7.6 2.7a5 5 0 0 1-.9 3c-.7 1-1.5 1.4-2.6 1.4Zm.4-6.9c-.7 0-1.3.4-1.8 1.1a4 4 0 0 0-.5 2c0 .8.2 1.4.6 1.8.4.3.8.5 1.3.5s1-.2 1.4-.6c.4-.4.6-1 .7-1.8 0-2-.5-3-1.7-3Zm0-2.7-.5-.3a.7.7 0 0 1-.2-.5l.3-.5 1-1.2c.3-.5.7-.8 1.1-1.1l.5-.2.5.2.2.5c0 .3-.1.4-.3.6l-1 1.1-1.1 1.2-.5.2Zm11 3.5c0 .6-.2 1-.7 1-.4 0-.7-.3-.7-.8v-1.2c-.8 0-1.5.3-2 .7-.5.3-.8.8-1.1 1.5v4.3c0 .5-.3.8-.8.8s-.7-.3-.7-.8v-5.5a30 30 0 0 1 0-1.6c0-.5.3-.8.7-.8.5 0 .8.5.8 1.3 1-1 2.1-1.4 3.3-1.4.5 0 .8.2 1 .5.2.3.3.8.3 1.4v.6Zm8.5-1.2-2.7 5.8c-.7 1.4-1.2 2.6-1.5 3.6l-.5 1.5c-.2.4-.4.6-.7.6-.3 0-.5-.1-.6-.3a.7.7 0 0 1-.3-.5c0-.5.6-2 1.7-4.5l-2.8-5.4-.3-.6c-.2-.2-.2-.4-.2-.6 0-.2 0-.4.2-.5l.6-.3c.2 0 .4.1.5.3 1 1.2 1.9 3 2.9 5.2l1.1-2.7 1.2-2.4c.2-.3.4-.4.7-.4.2 0 .4 0 .6.2l.2.6-.1.4Zm5 7.4c-1 0-2-.3-2.6-1a3.4 3.4 0 0 1-1.1-2.6c0-1 .3-2.2 1-3.3.8-1.3 1.7-1.9 2.7-1.9.5 0 1 .1 1.7.4.8.3 1.2.7 1.2 1.1l-.2.5c-.2.2-.3.3-.5.3s-.3 0-.4-.2l-.3-.2c-.3-.3-.9-.4-1.5-.4s-1.1.5-1.6 1.4c-.5.9-.7 1.6-.7 2.3 0 .7.2 1.2.7 1.6a2.5 2.5 0 0 0 2.7.3l.9-.5.3-.1c.2 0 .4 0 .5.2l.2.6c0 .3-.4.7-1.2 1-.7.4-1.3.5-1.7.5Zm11.3 0c-.4 0-.6-.2-.7-.6a13.4 13.4 0 0 1-.5-3.7 18.8 18.8 0 0 1 0-1.2c0-1-.2-1.5-.7-1.5-.7 0-1.3.3-1.8 1-.3.2-.6.8-1 1.7 0 2-.2 3.2-.3 3.5-.2.3-.4.5-.7.5-.2 0-.4 0-.6-.2a.7.7 0 0 1-.2-.5v-.4l.1-1.1v-6.9a29.3 29.3 0 0 0 .2-3.4l.6-.2c.4 0 .7.2.7.7l.2 1.4a28.3 28.3 0 0 1-.1 3.4v.7c.4-.6.8-1 1.3-1.3a3 3 0 0 1 1.6-.4c.9 0 1.4.2 1.8.8.2.4.3 1 .4 2v1.5l.2 1.6a16 16 0 0 0 .3 1.9c0 .2-.1.4-.3.5l-.5.2Zm11.1-.1a5 5 0 0 1-2.2-.5c-.1.2-.3.4-.6.4l-.5-.2a.7.7 0 0 1-.2-.6 18 18 0 0 1 0-1.2 95.5 95.5 0 0 0 0-7 424.3 424.3 0 0 0 .2-3.1c.2-.3.4-.5.7-.5.4 0 .6.3.6.7v.6l-.1 1.8v2c.4-.4.9-.6 1.3-.7l1.1-.3c1.1 0 2 .5 2.7 1.3.7.8 1 1.8 1 3s-.4 2.2-1.1 3c-.8.8-1.7 1.3-2.9 1.3Zm.3-7.1c-.4 0-.8.1-1.3.4-.2 0-.6.3-1.1.7V168.8l1 .4 1.1.2c.8 0 1.4-.3 1.9-.8.5-.6.7-1.2.7-2s-.2-1.4-.6-2a2 2 0 0 0-1.7-.8Zm13 5c0 .5-.3.9-.9 1.3-.4.3-1 .5-1.7.6-.4.2-.6.5-.6.7 0 .2 0 .4.2.6.1.3.3.4.5.4.5 0 1-.1 1.3-.3l.3-.1c.2 0 .3 0 .4.2l.2.4c0 .3-.3.6-1 .8a5 5 0 0 1-1.2.1c-.6 0-1-.2-1.4-.6-.3-.5-.5-1-.5-1.5l.1-.5c-1-.1-1.9-.5-2.5-1-.7-.7-1-1.5-1-2.6 0-1.4.3-2.5 1-3.4.7-1 1.6-1.5 2.8-1.5.9 0 1.6.1 2.1.4.7.4 1 1 1 1.7 0 .5-.3 1-.8 1.4l-1.7.9-3 1.4a3 3 0 0 0 2.6 1.3c.4 0 .8 0 1.3-.2.6-.2 1-.4 1.2-.7.1-.3.3-.4.5-.4s.4 0 .5.2c.2.1.2.3.2.5Zm-2.1-4.4c-.5-.4-1-.6-1.9-.6-1.3 0-2.1 1-2.5 3a254.2 254.2 0 0 0 4.4-2.4Zm10.6-.8a28.4 28.4 0 0 0 .2 6.4c0 .2 0 .4-.2.6l-.5.2c-.4 0-.6-.3-.7-.7l-1.2.6-1.3.2c-1 0-2-.4-2.7-1-.7-.8-1-1.8-1-3 0-1.3.3-2.4 1-3.3.8-.8 1.8-1.2 3-1.2.5 0 1 0 1.3.3l.8.5.2-4.4c0-.5.3-.7.7-.7.5 0 .7.2.7.7 0 .8 0 2.4-.3 4.8Zm-3.4.2c-1 0-1.6.3-2 .8-.4.5-.7 1.3-.7 2.4 0 .6.3 1.2.7 1.7.5.5 1 .7 1.7.7.5 0 .8 0 1.1-.2a6 6 0 0 0 1.1-1v-3.1c-.2-.4-.4-.7-.8-1-.3-.2-.7-.3-1.1-.3Zm12 .4-1.7 2.4-1.8 2.6a30.6 30.6 0 0 1 2.3.1l.9.1.6.3.2.5c0 .3 0 .4-.2.6l-.6.2-.9-.1-1-.1a16.7 16.7 0 0 0-3.5.3c-.5 0-.8-.2-.8-.6 0-.3.1-.5.4-.8 1.4-1.2 2.8-3.1 4.4-5.7a28.8 28.8 0 0 1-3.8-.1c-.5-.1-.7-.4-.7-.8 0-.2 0-.4.2-.6l.5-.2h1.2a11.6 11.6 0 0 0 2.7 0h1.6c.5 0 .7.2.7.6 0 .4-.2.8-.6 1.3Zm3.7-3.6c-.2 0-.4 0-.6-.2a.9.9 0 0 1-.3-.7l.3-.6.6-.3c.3 0 .5.1.7.3l.3.6c0 .3-.1.5-.3.7-.2.2-.4.2-.7.2Zm.4 6.4a60.1 60.1 0 0 0 0 2.8c0 .2 0 .4-.2.5-.1.2-.3.3-.5.3l-.6-.3a45.4 45.4 0 0 0-.3-3.4 26.5 26.5 0 0 1 .2-3.6c0-.2 0-.4.2-.6l.6-.2.5.2.3.6a26.8 26.8 0 0 1-.2 3.7Zm6.3 3.9c-1.2 0-2.1-.3-2.9-.9a3.3 3.3 0 0 1-1.2-2.7c0-1.4.4-2.5 1-3.4.7-1 1.7-1.5 2.9-1.5.8 0 1.5.1 2 .4.8.4 1.1 1 1.1 1.7 0 .5-.3 1-.9 1.4l-1.6.9-3 1.4 1 1c.5.2 1 .3 1.6.3.3 0 .8 0 1.3-.2.6-.2 1-.4 1.1-.7.2-.3.4-.4.6-.4.2 0 .4 0 .5.2l.2.5c0 .5-.5 1-1.4 1.5-.8.3-1.6.5-2.3.5Zm-.2-7.1a2 2 0 0 0-1.6.7 5 5 0 0 0-1 2.2l2.4-1.1c1-.5 1.7-.9 2-1.2-.4-.4-1-.6-1.8-.6Zm10.6.7c-.3 0-.5 0-.6-.3l-.2-.8c-.4 0-1 .3-1.8.5-.9.4-1.3.8-1.3 1.3h.5c1.2.3 2 .6 2.6 1 .9.5 1.3 1.3 1.3 2.3a2 2 0 0 1-1.1 2 5.6 5.6 0 0 1-4.3.2c-.8-.3-1.2-.7-1.2-1.3 0-.2.1-.4.3-.5.1-.2.3-.2.5-.2s.4 0 .7.3l.8.3.9.1 1.1-.1c.5-.2.8-.4.8-.8 0-.7-.5-1.1-1.5-1.4l-.8-.2c-.7-.1-1.2-.3-1.5-.5-.4-.3-.6-.7-.6-1.3 0-1.1.5-1.9 1.5-2.4l1.5-.5a12 12 0 0 0 1.5-.5h.7l.5.1c.2.2.2.4.2.6l.1.7.1.6c0 .3 0 .4-.2.6l-.5.2Zm9-.3-1.8 2.4-1.9 2.6a30.6 30.6 0 0 1 2.4.1l.9.1c.2 0 .4.1.5.3.2.1.2.3.2.5 0 .3 0 .4-.2.6l-.5.2-1-.1-.9-.1a16.7 16.7 0 0 0-3.6.3c-.5 0-.7-.2-.7-.6 0-.3.1-.5.4-.8 1.3-1.2 2.8-3.1 4.4-5.7a29 29 0 0 1-3.9-.1c-.5-.1-.7-.4-.7-.8 0-.2 0-.4.2-.6l.6-.2h1.1a11.6 11.6 0 0 0 2.8 0h1.6c.4 0 .6.2.6.6 0 .4-.2.8-.6 1.3ZM50 192.8c-.5 0-1.1 0-1.7-.2v3.7c0 .2-.1.4-.3.5-.1.2-.3.3-.5.3l-.6-.3a.8.8 0 0 1-.2-.5V187l-.2-1.7c0-.3 0-.6.2-.9.2-.3.4-.5.7-.5.2 0 .4.1.5.3l.2.5v.7l1.2-.7c.4-.2.8-.2 1.2-.2 1 0 1.9.4 2.4 1.4.4.7.6 1.7.6 3 0 1-.3 2-1 2.7-.6.8-1.4 1.2-2.5 1.2Zm.5-6.8c-.5 0-.9.1-1.3.3l-1 .9v3.7l1.8.3c.6 0 1.1-.2 1.5-.7.3-.4.4-1 .4-1.6a5 5 0 0 0-.3-2.2c-.3-.4-.6-.7-1-.7Zm7.7 7a3 3 0 0 1-2.3-1c-.7-.7-1-1.7-1.1-2.9a5 5 0 0 1 .9-3c.7-1.1 1.7-1.7 3-1.7 1 0 1.9.5 2.4 1.5.4.7.6 1.7.6 2.7a5 5 0 0 1-.9 3c-.7 1-1.5 1.4-2.6 1.4Zm.4-7c-.7 0-1.3.4-1.8 1.1a4 4 0 0 0-.5 2c0 .8.2 1.4.6 1.8.4.3.8.5 1.3.5s1-.2 1.4-.6c.4-.4.6-1 .7-1.8 0-2-.5-3-1.7-3ZM69 186H67v4.7l.1.3v.4c0 1.2-.2 1.7-.8 1.7-.2 0-.4 0-.6-.2a.7.7 0 0 1-.2-.5 24.7 24.7 0 0 1 0-1.8l-.1-4.5c-.4 0-1 0-1.7-.2-.5 0-.7-.3-.7-.7 0-.3 0-.5.2-.6.1-.2.3-.2.5-.2l1.7.1a19 19 0 0 0-.1-2c0-.2 0-.4.2-.6l.6-.2c.4 0 .7.4.8 1.2v1.6l1.1-.1h1c.4.2.5.4.5.8 0 .2 0 .4-.2.6l-.5.2Zm8.4.9c0 .6-.3 1-.8 1s-.7-.3-.7-.8v-1.2c-.8 0-1.5.3-2 .7-.5.3-.8.8-1.2 1.5v4.3c0 .5-.2.8-.7.8-.5 0-.7-.3-.7-.8v-5.5a28 28 0 0 1 0-1.6c0-.5.3-.8.7-.8.5 0 .8.5.8 1.3 1-1 2.1-1.4 3.3-1.4.4 0 .8.2 1 .5.2.3.3.8.3 1.4v.6Zm8-.6-1.8 2.4-1.8 2.6a30.6 30.6 0 0 1 2.3.1l1 .1c.2 0 .4.1.5.3l.2.5c0 .3 0 .4-.2.6l-.6.2-.9-.1-.9-.1a16.7 16.7 0 0 0-3.6.3c-.5 0-.7-.2-.7-.6 0-.3 0-.5.3-.8 1.4-1.2 2.9-3.1 4.5-5.7a28.9 28.9 0 0 1-3.9-.1c-.5-.1-.7-.4-.7-.8 0-.2 0-.4.2-.6l.5-.2H81a11.6 11.6 0 0 0 2.8 0h1.6c.4 0 .6.2.6.6 0 .4-.2.8-.6 1.3Zm5.8 6.7c-1.1 0-2-.3-2.8-.9a3.3 3.3 0 0 1-1.2-2.7c0-1.4.3-2.5 1-3.4.7-1 1.6-1.5 2.8-1.5.9 0 1.6.1 2.1.4.7.4 1 1 1 1.7 0 .5-.2 1-.8 1.4l-1.7.9-3 1.4 1.1 1 1.5.3c.4 0 .8 0 1.3-.2.6-.2 1-.4 1.2-.7.2-.3.4-.4.6-.4.1 0 .3 0 .5.2l.2.5c0 .5-.5 1-1.4 1.5-.8.3-1.6.5-2.4.5Zm-.2-7.1a2 2 0 0 0-1.6.7 5 5 0 0 0-.9 2.2l2.4-1.1 2-1.2c-.4-.4-1-.6-1.9-.6Zm9 7a5 5 0 0 1-2.2-.4c-.1.2-.3.4-.6.4l-.5-.2a.7.7 0 0 1-.2-.6 16.7 16.7 0 0 1 0-1.2 95.5 95.5 0 0 0 0-7 537.5 537.5 0 0 0 .2-3.1c.2-.3.4-.5.7-.5.4 0 .6.3.6.7v.3l-.1.3v3.8c.4-.4.8-.6 1.2-.7l1.2-.3c1.1 0 2 .5 2.7 1.3.7.8 1 1.8 1 3s-.4 2.2-1.1 3c-.8.8-1.8 1.3-2.9 1.3Zm.3-7c-.4 0-.9.1-1.3.4-.2 0-.6.3-1.1.7V190.8l1 .4 1.1.2c.8 0 1.4-.3 1.9-.8.5-.6.7-1.2.7-2s-.2-1.4-.6-2a2 2 0 0 0-1.7-.8Zm8.5 7.2a3 3 0 0 1-2.3-1c-.7-.7-1-1.7-1-2.9a5 5 0 0 1 .8-3c.7-1.1 1.8-1.7 3-1.7 1.1 0 1.9.5 2.4 1.5.5.7.7 1.7.6 2.7a5 5 0 0 1-.9 3c-.6 1-1.5 1.4-2.6 1.4Zm.5-7c-.8 0-1.4.4-1.8 1.1a4 4 0 0 0-.5 2c0 .8.2 1.4.6 1.8.3.3.7.5 1.2.5s1-.2 1.4-.6c.4-.4.7-1 .7-1.8 0-2-.5-3-1.6-3Zm14.3-.5a95.8 95.8 0 0 1-2.3 7.3c-.2.2-.4.4-.7.4-.6 0-1-.8-1.4-2.2l-.3-1.8-.2-1.7-.7 1.5-1.2 3.2c0 .2-.1.3-.3.4-.1.3-.4.5-.7.5-.4 0-.8-.7-1.2-2.3l-.5-3.3-.2-1.2-.1-1.1c0-.3 0-.4.2-.6l.6-.2c.4 0 .6.2.7.6l.2 1.2v1.1l.6 3.5 1.8-5.5c.1-.6.4-.9.9-.9.4 0 .6.4.8 1a52.2 52.2 0 0 1 1 5.9l.6-2.1 1-4.3c.1-.3.3-.5.7-.5.2 0 .4 0 .6.2l.2.6v.3Zm7.7 7.5s-.2 0-.5-.3l-.5-.6-1.3.6-1 .3c-1.2 0-2.1-.4-2.7-1-.5-.7-.8-1.7-.8-3s.5-2.4 1.3-3.3c1-.9 2-1.3 3.2-1.3.4 0 1 0 1.5.3.7.3 1 .7 1 1l-.1.5-.1 1a37.2 37.2 0 0 0 0 3.2 11.7 11.7 0 0 0 .7 1.8v.1c0 .2 0 .4-.2.5-.1.2-.3.2-.5.2Zm-1.6-5.4a7.3 7.3 0 0 1 .2-1.6l-.5-.2a1 1 0 0 0-.3 0c-.9 0-1.5.3-2.1 1-.6.6-1 1.4-1 2.2 0 .9.2 1.5.5 2 .3.4.8.6 1.4.6.5 0 1-.1 1.3-.3.2 0 .4-.3.8-.6l-.3-3Zm7.3 5.4c-1.1 0-2-.3-2.7-1a3.4 3.4 0 0 1-1.1-2.6c0-1 .3-2.2 1-3.3.8-1.3 1.7-1.9 2.7-1.9.5 0 1 .1 1.7.4.8.3 1.2.7 1.2 1.1l-.2.5c-.2.2-.3.3-.5.3s-.3 0-.4-.2l-.3-.2c-.3-.3-.8-.4-1.5-.4-.6 0-1.1.5-1.6 1.4-.5.9-.7 1.6-.7 2.3 0 .7.2 1.2.7 1.6a2.5 2.5 0 0 0 2.7.3l.9-.5.3-.1c.2 0 .4 0 .5.2l.2.6c0 .3-.4.7-1.2 1-.7.4-1.3.5-1.7.5Zm-.6-9.7c-.2 0-.4-.1-.5-.3a.7.7 0 0 1-.3-.5l.3-.5 1-1.2c.4-.5.7-.8 1.2-1.1l.4-.2.5.2.2.5c0 .3-.1.4-.3.6l-1 1.1-1 1.2-.5.2Zm6.4 12c-.2 0-.4-.2-.5-.3a.7.7 0 0 1-.2-.5l.5-1.3.6-1.4c.2-.3.4-.4.6-.4.2 0 .3 0 .5.2l.2.5-1.2 2.7c0 .3-.3.4-.5.4ZM31.9 208.5c0-.4.2-.8.5-1.1.3-.3.6-.5 1-.5.5 0 .9.2 1.2.5.3.3.4.7.4 1.1 0 .4-.1.8-.4 1.1-.3.3-.7.5-1.1.5-.5 0-.8-.2-1.1-.5-.3-.3-.5-.7-.5-1Zm23.6-3.4-1 .7c-.9.6-2 1.7-3.1 3.3l-2.8 3.8a243.9 243.9 0 0 0 7-.1c.6.1.9.4 1 .9 0 .3-.2.6-.4.8-.3.2-.5.3-.8.3a10.6 10.6 0 0 1-1.4 0 172.5 172.5 0 0 0-7.1 0c-.4 0-.6 0-.9-.2a1 1 0 0 1-.3-.8c0-.4.1-.8.5-1.4l.8-1.1a928 928 0 0 1 2.6-3.4c1-1.4 2-2.4 2.9-3.2H47c-.3 0-.6 0-.8-.2a1 1 0 0 1-.4-.8c0-.7.6-1 1.6-1a26.8 26.8 0 0 1 3.2 0 74 74 0 0 0 3.6 0c1.6 0 2.4.3 2.4 1 0 .5-.4 1-1 1.4Zm8.7 9.8c-.2 0-.6-.2-1.1-.7l-1.3.5a3 3 0 0 1-1 .2c-1.2 0-2.1-.4-2.8-1-.6-.7-.9-1.7-.9-3s.5-2.4 1.4-3.3c1-.9 2-1.3 3.3-1.3.5 0 1.1.1 1.7.4.8.3 1.2.7 1.2 1.2 0 .2 0 .3-.2.5v.8a13.5 13.5 0 0 0 .1 3.2 22.5 22.5 0 0 0 .7 1.6c0 .3-.1.5-.4.7a1 1 0 0 1-.7.2Zm-2-5.3a6 6 0 0 1 .2-1.3 1.4 1.4 0 0 0-.5-.2c-.7 0-1.3.3-1.8.9-.6.5-.8 1.2-.8 1.9s.1 1.2.4 1.6c.2.3.6.5 1 .5a2.6 2.6 0 0 0 1.8-.6l-.2-2.8Zm6.2-2c.8-1 1.5-1.5 2.2-1.5.8 0 1.4.4 1.8 1a3.3 3.3 0 0 1 2.3-.9c1 0 1.7.5 2 1.5a87.9 87.9 0 0 1 .9 6.3c0 .4 0 .6-.2.8-.3.2-.5.3-.8.3-.6 0-1-.3-1-.9a34 34 0 0 1-.6-4.5c-.2-1-.3-1.4-.6-1.4 0 0-.4 0-.8.3l-1 .6.3 2.6.2 2.6c0 .3-.1.5-.3.7a1 1 0 0 1-.8.3 1 1 0 0 1-.7-.3 1 1 0 0 1-.4-.7l-.1-2.7a26.6 26.6 0 0 1-.3-3.4 6.4 6.4 0 0 0-2 2 132.3 132.3 0 0 0 0 3.5c0 .3-.2.5-.4.7-.2.2-.4.2-.8.2s-.7-.2-.9-.5l-.1-1.3v-2.9a29.6 29.6 0 0 0 0-2.3c0-.4 0-.9.2-1.2.2-.5.5-.7.8-.7.3 0 .6 0 .8.3l.4.7-.1.7Zm12.2-2.6c-.4 0-.6 0-.9-.3a1 1 0 0 1-.4-.8c0-.3.2-.6.4-.8.3-.3.5-.4.9-.4.3 0 .6.1.8.4.3.2.4.5.4.8 0 .3-.1.6-.4.8-.2.2-.5.3-.8.3Zm.6 5.8a67.1 67.1 0 0 0 .1 2.8c0 .3-.1.6-.3.8a1 1 0 0 1-.8.3 1 1 0 0 1-.8-.3 1 1 0 0 1-.3-.8 50.8 50.8 0 0 0 0-2.8V209l.1-1.7c0-.3.1-.6.3-.8.3-.2.5-.3.8-.3.3 0 .6.1.8.3.2.2.3.5.3.8v1.7l-.2 1.8Zm6 4a5 5 0 0 1-3-.9 3.3 3.3 0 0 1-1.3-2.8c0-1.3.3-2.4 1-3.3.8-1 1.8-1.5 3.1-1.5 1 0 1.7.1 2.3.4.8.4 1.1 1 1.1 1.8 0 .6-.3 1-1 1.5l-1.7 1-2.6 1c.2.3.5.6.9.7l1.2.2c.7 0 1.3-.2 1.8-.4.4-.3.8-.4 1-.4.6 0 .8.2.8.8 0 .6-.4 1-1.3 1.4-.7.3-1.5.5-2.3.5Zm-.2-6.6c-.5 0-.9.1-1.2.4-.4.4-.7.8-.9 1.5a489.2 489.2 0 0 1 3.5-1.6c-.4-.2-.8-.3-1.4-.3Zm11.4 6.8c-.6 0-1-.3-1-1a1326.7 1326.7 0 0 1-.4-3.9 12.7 12.7 0 0 0 0-1.3c0-.5 0-.7-.3-.7-.4 0-1 .3-1.4.9a6 6 0 0 0-1 2l-.1.8a5.2 5.2 0 0 0 0 1.3v.7c0 .3 0 .5-.3.7a1 1 0 0 1-.8.3 1 1 0 0 1-.7-.3 1 1 0 0 1-.3-.7v-.7l-.1-.6v-2.1a27.2 27.2 0 0 0 .1-3.5c0-.3.1-.5.3-.7.3-.2.5-.3.8-.3.7 0 1 .4 1.1 1.2v.1c.8-.8 1.6-1.1 2.4-1.1 1 0 1.7.4 2 1.2.3.5.5 1.4.5 2.5v.5a27 27 0 0 0 .1 2.1l.2 1.6c0 .3-.1.5-.3.7a1 1 0 0 1-.8.3Zm8.4 0c-.7 0-1-.3-1.1-1a1325 1325 0 0 1-.3-3.9 12.5 12.5 0 0 0 0-1.3c0-.5 0-.7-.3-.7-.5 0-1 .3-1.4.9-.5.5-.8 1.2-1 2l-.2.8a5.2 5.2 0 0 0 0 1.3l.1.7c0 .3-.1.5-.3.7a1 1 0 0 1-.8.3 1 1 0 0 1-.8-.3 1 1 0 0 1-.3-.7v-3.4a27.1 27.1 0 0 0 .1-3.5c0-.3.1-.5.3-.7.2-.2.5-.3.8-.3.7 0 1 .4 1.1 1.2v.1c.8-.8 1.6-1.1 2.4-1.1 1 0 1.7.4 2 1.2.3.5.4 1.4.4 2.5v.5a26.8 26.8 0 0 0 .2 2.1l.2 1.6c0 .3-.2.5-.4.7a1 1 0 0 1-.7.3Zm4-10c-.4 0-.7 0-.9-.3a1 1 0 0 1-.4-.8c0-.3.2-.6.4-.8.2-.3.5-.4.9-.4.3 0 .6.1.8.4.3.2.4.5.4.8 0 .3-.1.6-.4.8-.2.2-.5.3-.8.3Zm.6 5.8a64.3 64.3 0 0 0 0 2.8c0 .3 0 .6-.2.8a1 1 0 0 1-.8.3 1 1 0 0 1-.8-.3 1 1 0 0 1-.3-.8 49.8 49.8 0 0 0 0-2.8V209l.1-1.7c0-.3.1-.6.3-.8.2-.2.5-.3.8-.3.3 0 .6.1.8.3.2.2.3.5.3.8v1.7l-.2 1.8Zm8.6 4c-.4 0-.7-.2-.9-.6l-1.1-1.7-1.3-1.6-1 .7-.1 2c0 .4-.1.6-.3.8a1 1 0 0 1-.8.3c-.7 0-1-.4-1-1.3a29 29 0 0 1 0-3.7 120.5 120.5 0 0 1 .4-7.5c.2-.2.5-.3.8-.3.3 0 .5.1.7.3.2.2.3.4.3.7v.9l.1.8a59.3 59.3 0 0 1 0 4.3l3.2-3a1 1 0 0 1 1.5 0c.3.3.4.5.4.8 0 .2-.1.5-.3.7l-2.2 2.1 1.6 2.1c.8 1 1.2 1.8 1.2 2.1 0 .3-.1.5-.4.7-.2.2-.5.3-.8.3Zm3.9-9.8c-.3 0-.6 0-.9-.3a1 1 0 0 1-.3-.8c0-.3 0-.6.3-.8.3-.3.6-.4.9-.4.3 0 .6.1.9.4.2.2.3.5.3.8 0 .3-.1.6-.3.8-.3.2-.6.3-1 .3Zm.7 5.8a64.3 64.3 0 0 0 0 2.8c0 .3 0 .6-.3.8a1 1 0 0 1-.8.3 1 1 0 0 1-.7-.3 1 1 0 0 1-.3-.8 49.8 49.8 0 0 0-.1-2.8V209l.2-1.7c0-.3 0-.6.3-.8.2-.2.4-.3.7-.3.3 0 .6.1.8.3.2.2.3.5.3.8v1.7l-.1 1.8ZM137 215c-1.1 0-2-.3-2.9-1a3.4 3.4 0 0 1-1.2-2.7c0-1 .4-2 1.1-3.2.9-1.2 1.8-1.9 3-1.9.5 0 1.1.2 1.8.5 1 .3 1.3.7 1.3 1.2 0 .3 0 .5-.2.7a1 1 0 0 1-.7.3c-.3 0-.5-.1-.9-.4-.3-.2-.7-.3-1.4-.3-.4 0-.8.4-1.3 1.2a4 4 0 0 0-.6 2c0 .5.1.9.5 1.2.4.3 1 .5 1.5.5.4 0 .8-.2 1.3-.4l1-.4c.3 0 .5 0 .7.3.2.2.3.4.3.7 0 .4-.4.8-1.3 1.2a5 5 0 0 1-2 .5Zm2.4-11.9c-.3.2-.7.5-1 1l-1 1a1.1 1.1 0 0 1-1.5-.1.8.8 0 0 1-.3-.6 74.2 74.2 0 0 0 1.9-2.2c.5-.5 1-.7 1.3-.7.2 0 .5.1.7.3l.3.6c0 .3-.2.5-.4.7Zm12.2 4.5c-.5 2-1 4-1.6 5.6-.2.5-.4 1-.8 1.5-.2.3-.6.5-1 .5-.6 0-1.1-.7-1.5-2-.2-.4-.3-1.3-.5-2.6l-.2.4a110.9 110.9 0 0 0-1.6 3.6c-.2.3-.5.5-1 .5-.2 0-.4-.2-.7-.6a6 6 0 0 1-.7-1.8 61.2 61.2 0 0 1-.9-5.3c0-.3.1-.5.4-.7.2-.2.4-.3.7-.3.6 0 1 .3 1 .8l.3 1.1a41.5 41.5 0 0 0 .4 3l1.3-3.9c.2-.6.6-1 1.2-1s1 .4 1.2 1.2a30.2 30.2 0 0 1 .8 4.2l1.2-4.7c.1-.5.4-.7 1-.7.3 0 .5.1.7.3.3.2.4.4.4.7v.2Zm2.8-2.5c-.3 0-.6 0-.9-.3a1 1 0 0 1-.3-.8c0-.3 0-.6.3-.8.3-.3.6-.4.9-.4.3 0 .6.1.8.4.3.2.4.5.4.8 0 .3-.1.6-.4.8-.2.2-.5.3-.8.3Zm.7 5.8a66 66 0 0 0 0 2.8c0 .3-.1.6-.3.8a1 1 0 0 1-.8.3 1 1 0 0 1-.7-.3 1 1 0 0 1-.3-.8 53.9 53.9 0 0 0-.1-2.8V209l.2-1.7c0-.3 0-.6.3-.8.2-.2.4-.3.7-.3.3 0 .6.1.8.3.2.2.3.5.3.8v1.7l-.1 1.8Zm5.6 4.1c-1.2 0-2.1-.3-2.9-1a3.4 3.4 0 0 1-1.2-2.7c0-1 .3-2 1-3.2 1-1.2 1.9-1.9 3-1.9.5 0 1.2.2 1.9.5.9.3 1.3.7 1.3 1.2 0 .3 0 .5-.3.7a1 1 0 0 1-.7.3c-.2 0-.5-.1-.8-.4-.3-.2-.8-.3-1.4-.3-.4 0-.9.4-1.3 1.2a4 4 0 0 0-.7 2c0 .5.2.9.6 1.2.4.3.9.5 1.5.5l1.3-.4 1-.4c.2 0 .4 0 .6.3.2.2.4.4.4.7 0 .4-.5.8-1.4 1.2a5 5 0 0 1-2 .5Zm11.3-6.4-1.6 2-1.6 2.2a23.4 23.4 0 0 1 1.7 0l.9.2c.3 0 .6 0 .8.3.2.2.3.4.3.7 0 .3-.1.5-.3.7a1 1 0 0 1-.8.3h-1c-.3-.2-.6-.2-.8-.2a17.5 17.5 0 0 0-3.6.3c-.3 0-.6 0-.8-.2a.8.8 0 0 1-.3-.7c0-.3.2-.6.5-.9 1.3-1.1 2.6-2.7 4-4.8a18.8 18.8 0 0 1-3.3-.2c-.6 0-1-.4-1-1 0-.3.1-.5.3-.7.2-.2.5-.3.8-.3h1.2a13 13 0 0 0 2.7 0h1.6c.7 0 1 .3 1 .8s-.2 1-.7 1.5Zm5.9 6.3a5 5 0 0 1-3.1-.9 3.3 3.3 0 0 1-1.3-2.8c0-1.3.3-2.4 1-3.3.8-1 1.8-1.5 3.1-1.5 1 0 1.7.1 2.3.4.8.4 1.2 1 1.2 1.8 0 .6-.3 1-1 1.5l-1.7 1-2.7 1c.3.3.6.6 1 .7l1.2.2c.7 0 1.2-.2 1.7-.4l1-.4c.6 0 .9.2.9.8 0 .6-.5 1-1.3 1.4-.8.3-1.5.5-2.3.5Zm-.3-6.6c-.4 0-.9.1-1.2.4-.3.4-.6.8-.8 1.5a405.7 405.7 0 0 1 3.4-1.6c-.3-.2-.8-.3-1.4-.3Zm11.4 6.8c-.6 0-1-.3-1-1a1325 1325 0 0 1-.4-3.9 12.5 12.5 0 0 0 .1-1.3c0-.5-.1-.7-.3-.7-.5 0-1 .3-1.4.9a6 6 0 0 0-1.1 2v.8a5.2 5.2 0 0 0 0 1.3v.7c0 .3-.1.5-.3.7a1 1 0 0 1-.8.3 1 1 0 0 1-.8-.3 1 1 0 0 1-.3-.7v-3.4a27.2 27.2 0 0 0 0-3.5c0-.3.2-.5.4-.7.2-.2.5-.3.8-.3.6 0 1 .4 1 1.2v.1c.8-.8 1.6-1.1 2.5-1.1 1 0 1.6.4 2 1.2.3.5.4 1.4.4 2.5v.5a29.5 29.5 0 0 0 .1 2.1c.2.6.2 1.2.2 1.6 0 .3 0 .5-.3.7a1 1 0 0 1-.8.3Zm-.4-12-1 1-1 1a1.1 1.1 0 0 1-1.5-.1.8.8 0 0 1-.3-.6 59.4 59.4 0 0 0 1.9-2.2c.5-.5 1-.7 1.3-.7.2 0 .5.1.7.3l.3.6c0 .3-.2.5-.4.7Zm4 14.1c-.1 0-.3 0-.4-.2a.7.7 0 0 1-.2-.5l.5-1.3.6-1.4c.2-.3.3-.4.6-.4.2 0 .3 0 .4.2.2.2.2.3.2.5l-1 2.7c-.2.3-.4.4-.6.4Zm14.7-2.3c-.3 0-.5-.2-.7-.5l-1.2-1.9-1.4-1.9-1.4 1-.1 2.4c0 .2 0 .4-.2.6l-.6.2c-.5 0-.8-.4-.8-1a32 32 0 0 1 .2-4 132.5 132.5 0 0 1 .2-7.6l.6-.2c.2 0 .4 0 .5.2l.3.6v6.9a22 22 0 0 0 2-1.8l1.7-1.7.6-.3c.2 0 .4 0 .5.2l.3.6a28.1 28.1 0 0 1-2.6 3l1.7 2.3c.8 1 1.2 1.8 1.2 2 0 .3-.1.5-.3.6-.1.2-.3.3-.5.3Zm7.3-7H213l.1 4.7v.7c0 1.2-.2 1.7-.8 1.7-.2 0-.4 0-.5-.2a.7.7 0 0 1-.2-.5 26 26 0 0 1 0-1.8l-.2-4.5c-.3 0-1 0-1.7-.2-.5 0-.7-.3-.7-.7 0-.3 0-.5.2-.6.2-.2.3-.2.6-.2l1.6.1a19 19 0 0 0 0-2c0-.2 0-.4.2-.6l.5-.2c.5 0 .8.4.8 1.2v1.6l1.1-.1h1.1c.3.2.5.4.5.8 0 .2 0 .4-.2.6l-.6.2Zm5.3 7a3 3 0 0 1-2.2-.9c-.7-.7-1.1-1.7-1.1-2.9a5 5 0 0 1 .8-3c.8-1.1 1.8-1.7 3-1.7 1.1 0 2 .5 2.5 1.5.4.7.6 1.7.6 2.7a5 5 0 0 1-1 3c-.6 1-1.5 1.4-2.6 1.4Zm.5-6.9c-.8 0-1.4.4-1.8 1.1a4 4 0 0 0-.5 2c0 .8.2 1.4.6 1.8.4.3.8.5 1.2.5.6 0 1-.2 1.4-.6.5-.4.7-1 .7-1.8 0-2-.5-3-1.6-3Zm0-2.7c-.2 0-.4-.1-.5-.3a.7.7 0 0 1-.2-.5c0-.1 0-.3.2-.5.3-.2.6-.6 1-1.2l1.2-1.1.4-.2.5.2c.2.2.2.4.2.5 0 .3 0 .4-.3.6l-1 1.1-1 1.2-.5.2Zm11 3.5c0 .6-.3 1-.7 1-.5 0-.7-.3-.7-.8v-1.2c-.9 0-1.5.3-2 .7-.5.3-.9.8-1.2 1.5v4.3c0 .5-.2.8-.7.8-.5 0-.7-.3-.7-.8v-5.5a29 29 0 0 1 0-1.6c0-.5.2-.8.7-.8.5 0 .8.5.8 1.3 1-1 2-1.4 3.3-1.4.4 0 .7.2 1 .5.1.3.3.8.3 1.4v.6Zm8.5-1.2-2.7 5.8-1.6 3.6-.5 1.5c-.1.4-.4.6-.7.6l-.6-.3a.7.7 0 0 1-.2-.5c0-.5.6-2 1.7-4.5l-2.8-5.4-.4-.6-.2-.6c0-.2.1-.4.3-.5.1-.2.3-.3.5-.3.3 0 .5.1.6.3.9 1.2 1.8 3 2.8 5.2l1.2-2.7 1.2-2.4c.2-.3.4-.4.7-.4.2 0 .4 0 .5.2l.3.6-.1.4Zm5 7.4c-1 0-2-.3-2.7-1a3.4 3.4 0 0 1-1-2.6c0-1 .3-2.2 1-3.3.8-1.3 1.6-1.9 2.6-1.9.5 0 1 .1 1.7.4.8.3 1.2.7 1.2 1.1 0 .2 0 .4-.2.5-.1.2-.3.3-.5.3l-.4-.2-.3-.2c-.3-.3-.8-.4-1.5-.4-.5 0-1 .5-1.6 1.4-.4.9-.7 1.6-.7 2.3 0 .7.3 1.2.7 1.6a2.5 2.5 0 0 0 2.7.3l1-.5.3-.1c.1 0 .3 0 .5.2l.2.6c0 .3-.4.7-1.2 1-.7.4-1.3.5-1.8.5Zm11.2 0c-.3 0-.6-.2-.7-.6l-.3-1.8a15.7 15.7 0 0 1-.1-3c0-1-.3-1.6-.8-1.6-.6 0-1.2.3-1.7 1-.3.2-.7.8-1.1 1.7 0 2-.1 3.2-.3 3.5-.1.3-.3.5-.6.5s-.5 0-.6-.2a.7.7 0 0 1-.3-.5l.1-.4.1-1.1v-6.9a27.8 27.8 0 0 0 .2-3.4l.5-.2c.5 0 .7.2.8.7l.1 1.4a27.5 27.5 0 0 1 0 3.4v.7c.4-.6.8-1 1.3-1.3a3 3 0 0 1 1.5-.4c1 0 1.5.2 1.8.8.3.4.4 1 .4 2v1.5l.2 1.6a16.2 16.2 0 0 0 .3 1.9c0 .2 0 .4-.2.5l-.6.2Zm13.5 0c-.4 0-.7-.2-.7-.7l-.3-1.7a14.4 14.4 0 0 1 0-3.2c0-1-.2-1.6-.6-1.6-.6 0-1.2.3-1.7 1a7 7 0 0 0-1.1 2.4l-.1.8a6.4 6.4 0 0 0 0 1.4v.7c0 .3 0 .4-.2.6l-.5.2c-.3 0-.4 0-.6-.2a.8.8 0 0 1-.2-.6v-3.6a29.1 29.1 0 0 0 0-3.7c0-.3.2-.4.3-.6l.6-.2c.4 0 .7.3.7 1v1c1-1.2 1.8-1.8 2.8-1.8.8 0 1.4.3 1.7 1 .2.6.4 1.3.4 2.3v1.5l.1 1.6.2 1.7c0 .2 0 .4-.2.6l-.6.2Zm3.9-10.4c-.3 0-.5 0-.7-.2a.9.9 0 0 1-.2-.7c0-.2 0-.4.2-.6.2-.2.4-.3.7-.3.2 0 .5.1.6.3l.3.6c0 .3 0 .5-.3.7-.1.2-.4.2-.6.2Zm.3 6.4a60.1 60.1 0 0 0 .1 2.8c0 .2 0 .4-.2.5-.1.2-.3.3-.6.3-.2 0-.4-.1-.5-.3a45.4 45.4 0 0 0-.3-3.4 26.5 26.5 0 0 1 .2-3.6c0-.2 0-.4.2-.6l.5-.2.6.2.2.6a26.8 26.8 0 0 1-.2 3.7Zm6.3 3.9c-1.1 0-2-.3-2.8-.9a3.3 3.3 0 0 1-1.2-2.7c0-1.4.3-2.5 1-3.4.7-1 1.6-1.5 2.8-1.5.9 0 1.6.1 2.1.4.7.4 1 1 1 1.7 0 .5-.2 1-.8 1.4l-1.7.9-3 1.4 1.1 1 1.5.3c.4 0 .8 0 1.3-.2.6-.2 1-.4 1.2-.7.2-.3.4-.4.6-.4.1 0 .3 0 .4.2.2.1.3.3.3.5 0 .5-.5 1-1.4 1.5-.8.3-1.6.5-2.4.5Zm-.2-7.1a2 2 0 0 0-1.6.7 5 5 0 0 0-.9 2.2l2.4-1.1 2-1.2c-.4-.4-1-.6-1.9-.6ZM48.7 230.4l-.2 3.9v1.8c0 .5-.3.8-.8.8s-.8-.3-.8-.8a68.4 68.4 0 0 1 .2-5.7 115.7 115.7 0 0 1 0-5.7c0-.5.3-.7.9-.7.5 0 .7.2.7.7a116.5 116.5 0 0 1 0 5.7Zm8.7 1.6a266 266 0 0 0-.1 5l-.6.2c-.4 0-.6-.3-.7-.8-.7.4-1.4.5-2.3.5a3 3 0 0 1-1.7-.4 2 2 0 0 1-.9-1.5l-.3-3.7.3-2.4c0-.5.3-.7.7-.7.2 0 .4 0 .6.2l.2.6-.1 1.1-.1 1.2a24.8 24.8 0 0 0 .3 3.7l.5.3h.5a8 8 0 0 0 2.2-.3v-3.1l.1-3c.1-.4.4-.7.8-.7l.6.3.2.5-.2 3Zm5.6 4.9a5 5 0 0 1-2.1-.5c-.2.2-.4.4-.6.4l-.6-.2a.7.7 0 0 1-.2-.6 16.7 16.7 0 0 1 0-1.2 95.5 95.5 0 0 0 0-7 537.5 537.5 0 0 0 .2-3.1c.2-.3.4-.5.7-.5.4 0 .6.3.6.7v.6l-.1 1.8v2c.4-.4.9-.6 1.3-.7l1.1-.3c1.2 0 2 .5 2.8 1.3.6.8 1 1.8 1 3s-.4 2.2-1.2 3c-.8.8-1.7 1.3-2.9 1.3Zm.3-7.1c-.4 0-.8.1-1.3.4-.2 0-.6.3-1.1.7V234.8l1 .4 1.1.2c.8 0 1.4-.3 1.9-.8.5-.6.7-1.2.7-2s-.2-1.4-.6-2a2 2 0 0 0-1.7-.8Zm7-3.2c-.2 0-.4 0-.6-.2a.9.9 0 0 1-.2-.7c0-.2 0-.4.2-.6.2-.2.4-.3.7-.3l.6.3.3.6c0 .3-.1.5-.3.7-.2.2-.4.2-.6.2Zm.4 6.4a61.7 61.7 0 0 0 0 2.8l-.1.5-.6.3c-.2 0-.4-.1-.5-.3a45.5 45.5 0 0 0-.3-3.4 26.4 26.4 0 0 1 .2-3.6c0-.2 0-.4.2-.6l.5-.2.6.2.2.6a26.7 26.7 0 0 1-.2 3.7Zm8-2.5c-.3 0-.5 0-.7-.3l-.2-.8c-.4 0-1 .3-1.8.5-.8.4-1.2.8-1.2 1.3h.4c1.2.3 2.1.6 2.7 1 .9.5 1.3 1.3 1.3 2.3 0 .9-.4 1.5-1.1 2a5.6 5.6 0 0 1-4.3.2c-.8-.3-1.2-.7-1.2-1.3 0-.2 0-.4.2-.5.2-.2.4-.2.6-.2.2 0 .4 0 .6.3l.9.3.9.1 1.1-.1c.5-.2.7-.4.7-.8 0-.7-.5-1.1-1.4-1.4l-.9-.2c-.6-.1-1.1-.3-1.4-.5-.5-.3-.7-.7-.7-1.3 0-1.1.6-1.9 1.6-2.4l1.5-.5a12 12 0 0 0 1.5-.5h.6l.6.1.2.6.1.7.1.6c0 .3 0 .4-.2.6l-.6.2Zm9-.3-1.9 2.4-1.8 2.6a30.6 30.6 0 0 1 2.3.1l1 .1c.2 0 .3.1.5.3l.2.5c0 .3 0 .4-.2.6l-.6.2-.9-.1-.9-.1a16.7 16.7 0 0 0-3.6.3c-.5 0-.8-.2-.8-.6 0-.3.2-.5.4-.8 1.4-1.2 2.9-3.1 4.5-5.7a28.9 28.9 0 0 1-4-.1c-.4-.1-.6-.4-.6-.8 0-.2 0-.4.2-.6l.5-.2h1.2a11.6 11.6 0 0 0 2.7 0h1.6c.5 0 .7.2.7.6 0 .4-.2.8-.6 1.3Zm3.2 9c-.2 0-.3 0-.5-.2a.7.7 0 0 1-.2-.5l.5-1.3.7-1.4c.1-.3.3-.4.5-.4s.4 0 .5.2l.2.5-1.1 2.7c-.1.3-.3.4-.6.4Zm-59 13.4c0-.4.2-.8.5-1.1.3-.3.6-.5 1-.5.5 0 .9.2 1.2.5.3.3.4.7.4 1.1 0 .4-.1.8-.4 1.1-.3.3-.7.5-1.1.5-.5 0-.8-.2-1.1-.5-.3-.3-.5-.7-.5-1Zm22.5 6c-.3 0-.6 0-.8-.3a13.1 13.1 0 0 0-5.2-3v2.4c0 .3 0 .6-.2.8a1 1 0 0 1-.8.3 1 1 0 0 1-.8-.3 1 1 0 0 1-.3-.8 142.7 142.7 0 0 1 0-3.5V248c0-.3.1-.6.4-.9.2-.3.6-.5 1-.5l2 .2c.7 0 1.3.2 1.9.5 2.2 1.1 3.3 2.5 3.3 4.2 0 .6-.2 1.3-.7 1.8-.5.5-1.2 1-2.1 1.3 1.4.8 2.4 1.6 3.1 2.4a1 1 0 0 1 0 1.4 1 1 0 0 1-.8.3Zm-5-9.8h-1v4a9.2 9.2 0 0 0 3.2-.4l.8-.5.3-.5c0-.6-.4-1.2-1.1-1.7-.7-.5-1.5-.8-2.2-1Zm11.2 10a5 5 0 0 1-3-.8 3.3 3.3 0 0 1-1.4-2.8c0-1.3.3-2.4 1-3.3.8-1 1.8-1.5 3.2-1.5.9 0 1.6.1 2.2.4.8.4 1.2 1 1.2 1.8 0 .6-.3 1-1 1.5l-1.7 1-2.7 1c.3.3.6.6 1 .7l1.2.2c.7 0 1.3-.2 1.7-.4l1-.4c.6 0 .9.2.9.8 0 .6-.4 1-1.3 1.4-.7.3-1.5.5-2.3.5Zm-.2-6.5c-.5 0-1 .1-1.3.4-.3.4-.6.8-.8 1.5a481.5 481.5 0 0 1 3.4-1.6c-.3-.2-.8-.3-1.3-.3Zm11.8 6.6c-.5 0-.8-.2-1-.6-.2-.5-.6-1-1.1-1.7l-1.3-1.6-1 .7-.1 2c0 .4-.1.6-.3.8a1 1 0 0 1-.8.3c-.7 0-1-.4-1-1.3a28.8 28.8 0 0 1 .1-3.7 122 122 0 0 1 .3-7.5c.2-.2.5-.3.8-.3.3 0 .5.1.7.3.3.2.4.4.4.7V248.7a60.9 60.9 0 0 1 0 4.3c.7-.5 1.7-1.5 3.2-3a1 1 0 0 1 1.5 0c.3.3.4.5.4.8 0 .2-.1.5-.3.7l-2.2 2.1 1.6 2.1c.8 1 1.2 1.8 1.2 2.1 0 .3-.1.5-.4.7l-.7.4Zm5.2 0c-1 0-1.8-.2-2.4-.9a4 4 0 0 1-1.2-2.9c0-1.2.2-2.2 1-3 .7-1.1 1.8-1.7 3.2-1.7 1 0 1.9.4 2.5 1.3.5.7.8 1.7.8 2.8a5 5 0 0 1-1 3c-.7 1-1.6 1.5-2.9 1.5Zm.5-6.4c-.6 0-1.1.3-1.5.9-.3.5-.5 1-.5 1.7 0 .6.2 1.1.6 1.4.2.3.6.4 1 .4s.8-.1 1.1-.4c.4-.4.6-.9.6-1.5.1-1.7-.3-2.5-1.3-2.5Zm6.8-.9c.8-.9 1.5-1.4 2.2-1.4.8 0 1.4.4 1.8 1a3.3 3.3 0 0 1 2.3-.9c1 0 1.7.5 2 1.5l.4 2.2.5 4.2c0 .3 0 .5-.3.7-.2.2-.4.3-.7.3-.6 0-1-.3-1.1-.9a34 34 0 0 1-.5-4.5c-.2-1-.4-1.4-.6-1.4-.1 0-.4 0-.8.3l-1 .6.3 2.6.2 2.6c0 .3-.1.5-.3.7a1 1 0 0 1-.8.3 1 1 0 0 1-.8-.3 1 1 0 0 1-.3-.7c0-.6 0-1.5-.2-2.7a26.6 26.6 0 0 1-.2-3.4 6.4 6.4 0 0 0-2 2 133 133 0 0 0 0 3.5c0 .3-.2.5-.4.7-.2.2-.5.2-.8.2-.4 0-.7-.2-.9-.5l-.1-1.3v-2.9a29.7 29.7 0 0 0-.1-2.3c0-.4 0-.9.3-1.2.2-.5.4-.7.8-.7.3 0 .6 0 .8.3.2.2.3.5.3.7v.7ZM99 259a5 5 0 0 1-3-.9 3.3 3.3 0 0 1-1.3-2.8c0-1.3.3-2.4 1-3.3.8-1 1.8-1.5 3.1-1.5 1 0 1.7.1 2.3.4.8.4 1.1 1 1.1 1.8 0 .6-.3 1-1 1.5l-1.7 1-2.6 1c.2.3.5.6.9.7l1.2.2c.7 0 1.3-.2 1.8-.4.4-.3.8-.4 1-.4.6 0 .8.2.8.8 0 .6-.4 1-1.3 1.4-.7.3-1.5.5-2.3.5Zm-.2-6.6c-.5 0-.9.1-1.2.4-.4.4-.7.8-.9 1.5a481.5 481.5 0 0 1 3.5-1.6c-.4-.2-.8-.3-1.4-.3Zm11.4 6.8c-.7 0-1-.3-1-1a1325 1325 0 0 1-.4-3.9 13.6 13.6 0 0 0 0-1.3c0-.5 0-.7-.3-.7-.4 0-1 .3-1.4.9a6 6 0 0 0-1 2l-.1.8a5 5 0 0 0 0 1.3v.7c0 .3 0 .5-.3.7a1 1 0 0 1-.8.3 1 1 0 0 1-.7-.3 1 1 0 0 1-.3-.7v-.7l-.1-.6v-2.1a27.1 27.1 0 0 0 .1-3.5c0-.3.1-.5.3-.7.3-.2.5-.3.8-.3.7 0 1 .4 1.1 1.2v.1c.8-.8 1.6-1.1 2.4-1.1 1 0 1.7.4 2 1.2.3.5.4 1.4.4 2.5v.5a29.5 29.5 0 0 0 .2 2.1l.2 1.6c0 .3-.1.5-.3.7a1 1 0 0 1-.8.3Zm8-8.4c0-1.8 0-3 .2-3.7 0-.6.4-1 1-1 .3 0 .5.2.7.4.2.2.3.4.3.7 0 .8 0 1.9-.2 3.4a48.4 48.4 0 0 0 0 7.3c0 .3 0 .5-.3.7a1 1 0 0 1-.7.3 1 1 0 0 1-.8-.6 4.4 4.4 0 0 1-2.3.7 4 4 0 0 1-3-1.1 3.9 3.9 0 0 1-1.1-3c0-1.3.4-2.5 1.2-3.3a4 4 0 0 1 3-1.3l1.1.1c.3 0 .6.2.8.4Zm-.2 2.4-.7-.7a2 2 0 0 0-1-.2c-.8 0-1.3.2-1.7.6-.4.5-.6 1.1-.6 2 0 .6.2 1 .6 1.5.4.4 1 .6 1.5.6.4 0 .7 0 .9-.2a4.1 4.1 0 0 0 1-.7v-2.9Zm10.6 6c-.3 0-.7-.3-1.2-.8l-1.2.5a3 3 0 0 1-1 .2c-1.2 0-2.2-.4-2.8-1-.6-.7-1-1.7-1-3s.5-2.4 1.4-3.3c1-.9 2-1.3 3.4-1.3.5 0 1 .1 1.7.4.8.3 1.2.7 1.2 1.2 0 .2 0 .3-.2.5l-.1.8a13.4 13.4 0 0 0 .1 3.2 24.2 24.2 0 0 0 .7 1.6c0 .3-.1.5-.3.7a1 1 0 0 1-.7.2Zm-2-5.4a6.2 6.2 0 0 1 .2-1.3 1.4 1.4 0 0 0-.5-.2c-.7 0-1.4.3-1.9.9-.5.5-.8 1.2-.8 1.9s.1 1.2.4 1.6c.2.3.6.5 1.1.5a2.6 2.6 0 0 0 1.8-.6l-.3-2.8Zm7.7 5.3c-1.1 0-2.1-.3-2.9-1a3.4 3.4 0 0 1-1.2-2.7c0-1 .4-2 1-3.2 1-1.2 1.9-1.9 3-1.9.5 0 1.2.2 1.9.5.9.3 1.3.7 1.3 1.2 0 .3 0 .5-.2.7a1 1 0 0 1-.8.3c-.2 0-.5-.1-.8-.4-.3-.2-.8-.3-1.4-.3-.4 0-.8.4-1.3 1.2a4 4 0 0 0-.7 2c0 .5.2.9.6 1.2.4.3.9.5 1.5.5l1.3-.4 1-.4c.2 0 .5 0 .7.3.2.2.3.4.3.7 0 .4-.5.8-1.4 1.2a5 5 0 0 1-1.9.5Zm7.5-9.8c-.4 0-.6-.1-.9-.4a1 1 0 0 1-.3-.8c0-.3 0-.6.3-.8.3-.2.5-.4.9-.4.3 0 .6.2.8.4.3.2.4.5.4.8 0 .3-.1.6-.4.8-.2.3-.5.4-.8.4Zm-.4 10.8a84.3 84.3 0 0 0-.5-8.5c0-.3 0-.6.2-.8.3-.3.5-.5.9-.5.2 0 .5.1.7.3.3.2.4.4.4.6a960 960 0 0 1 .5 9c0 .7-.3 1.4-.7 2-.6.7-1.2 1-2 1-1.3 0-2.3-.8-3.1-2.6l-.1-.5c0-.2 0-.5.3-.7.2-.2.5-.3.8-.3.3 0 .6.2.9.5l.5 1c.3.4.5.6.7.6.3 0 .4-.4.5-1.1Zm8-1.1a5 5 0 0 1-3.1-.9 3.3 3.3 0 0 1-1.4-2.8c0-1.3.4-2.4 1-3.3.9-1 1.9-1.5 3.2-1.5 1 0 1.7.1 2.3.4.7.4 1.1 1 1.1 1.8 0 .6-.3 1-1 1.5l-1.7 1-2.6 1c.2.3.5.6.9.7l1.2.2c.7 0 1.3-.2 1.8-.4.4-.3.8-.4 1-.4.6 0 .8.2.8.8 0 .6-.4 1-1.3 1.4-.7.3-1.5.5-2.3.5Zm-.3-6.6c-.5 0-.9.1-1.2.4-.4.4-.7.8-.9 1.5a550.2 550.2 0 0 1 3.5-1.6c-.4-.2-.8-.3-1.4-.3Zm20.2 6.3c-.3 0-.6 0-.8-.3a13.1 13.1 0 0 0-5.2-3v2.4c0 .3 0 .6-.2.8a1 1 0 0 1-.8.3 1 1 0 0 1-.8-.3 1 1 0 0 1-.3-.8 153.5 153.5 0 0 1 0-3.5V248l.3-.9c.3-.3.7-.5 1.1-.5l2 .2c.7 0 1.3.2 1.8.5 2.3 1.1 3.4 2.5 3.4 4.2 0 .6-.3 1.3-.7 1.8-.5.5-1.2 1-2.1 1.3 1.4.8 2.4 1.6 3.1 2.4a1 1 0 0 1 0 1.4 1 1 0 0 1-.8.3Zm-5-9.8h-1v4a9.1 9.1 0 0 0 3.2-.4l.8-.5.3-.5c0-.6-.4-1.2-1.1-1.7-.7-.5-1.5-.8-2.2-1Zm13.9.5-2.2-.2-.1 3.8v3.5h2c.4 0 .6 0 .8.3.3.2.4.5.4.7 0 .3-.1.6-.4.8a1 1 0 0 1-.7.3 56.5 56.5 0 0 0-5.7.3 1 1 0 0 1-1-1c-.1-.3 0-.6.2-.8.2-.2.4-.3.8-.3l1.4-.1a265 265 0 0 1 0-7.6h-1.6c-.3 0-.6 0-.8-.3a1 1 0 0 1-.3-.7c0-.3.1-.6.3-.8.2-.2.4-.3.7-.3a30.4 30.4 0 0 1 6.4.3c.6 0 1 .4 1 1 0 .4-.2.7-.5.9l-.7.2Zm10 9.3c-.2 0-.5 0-.7-.3a13.1 13.1 0 0 0-5.2-3v2.4c0 .3 0 .6-.2.8a1 1 0 0 1-.8.3 1 1 0 0 1-.8-.3 1 1 0 0 1-.3-.8 153.5 153.5 0 0 1 0-3.5V248l.3-.9c.3-.3.7-.5 1.1-.5l2 .2c.7 0 1.3.2 1.8.5 2.3 1.1 3.4 2.5 3.4 4.2 0 .6-.3 1.3-.7 1.8-.5.5-1.2 1-2.1 1.3 1.4.8 2.4 1.6 3.1 2.4a1 1 0 0 1 0 1.4 1 1 0 0 1-.8.3Zm-5-9.8h-.9v4a9.1 9.1 0 0 0 3.2-.4l.8-.5.3-.5c0-.6-.4-1.2-1.1-1.7-.7-.5-1.5-.8-2.2-1Zm18.9-2-.5.7-.7.7a7 7 0 0 0-1.4 2.8 12 12 0 0 0-.4 3.2c0 2.6.6 4.6 1.8 5.8l.7.6c.3.2.5.4.5.7 0 .1 0 .3-.2.4l-.5.2c-.1 0-.3 0-.5-.2-2.2-1.2-3.3-3.8-3.3-7.7 0-1.4.2-2.9.8-4.3a7.5 7.5 0 0 1 2.5-3.5l.5-.2c.2 0 .3 0 .5.2l.2.5Zm4.8 12c-.5 0-1 0-1.7-.2v3.7c0 .2 0 .4-.2.6l-.6.2c-.2 0-.4-.1-.5-.3a.8.8 0 0 1-.2-.5V256l-.1-3-.2-1.7.3-.9c.1-.3.3-.5.6-.5.2 0 .4.1.5.3.2.1.3.3.3.5v.2l-.1.5 1.3-.7c.4-.2.8-.2 1.2-.2 1 0 1.8.4 2.3 1.4.4.7.6 1.7.6 3 0 1-.3 2-1 2.7-.6.8-1.4 1.2-2.5 1.2Zm.6-6.8c-.5 0-1 .1-1.3.3l-1 .9v3.7l1.7.3c.7 0 1.2-.2 1.5-.7.3-.4.5-1 .5-1.6a5 5 0 0 0-.4-2.2c-.2-.4-.6-.7-1-.7Zm7.6 7a3 3 0 0 1-2.3-1c-.7-.7-1-1.7-1-2.9a5 5 0 0 1 .8-3c.7-1.1 1.8-1.7 3-1.7 1.1 0 1.9.5 2.4 1.5.5.7.7 1.7.7 2.7a5 5 0 0 1-1 3c-.6 1-1.5 1.4-2.6 1.4Zm.5-7c-.8 0-1.4.4-1.8 1.1a4 4 0 0 0-.5 2c0 .8.2 1.4.6 1.8.3.3.7.5 1.2.5s1-.2 1.4-.6c.4-.4.7-1 .7-1.8 0-2-.5-3-1.6-3Zm14.3-.5a96.5 96.5 0 0 1-2.3 7.3c-.2.2-.4.4-.7.4-.6 0-1-.8-1.3-2.2-.2-.4-.3-1-.4-1.8l-.2-1.7-.7 1.5-1.2 3.2c0 .2-.1.3-.3.4-.1.3-.4.5-.7.5-.4 0-.8-.7-1.2-2.3l-.5-3.3-.2-1.2-.1-1.1c0-.3 0-.4.2-.6l.6-.2c.4 0 .6.2.7.6l.2 1.2.1 1.1.5 3.5 1.8-5.5c.1-.6.4-.9.9-.9.4 0 .6.4.8 1a53.5 53.5 0 0 1 1 5.9l.6-2.1 1-4.3c.1-.3.3-.5.7-.5.2 0 .4 0 .6.2l.2.6v.3Zm6.9.4H235v5l.1.4c0 1.2-.3 1.7-.8 1.7-.2 0-.4 0-.6-.2a.7.7 0 0 1-.2-.5 26 26 0 0 1 0-1.8l-.1-4.5c-.4 0-1 0-1.7-.2-.5 0-.7-.3-.7-.7 0-.3 0-.5.2-.6.1-.2.3-.2.5-.2l1.7.1a19 19 0 0 0-.1-2c0-.2 0-.4.2-.6l.6-.2c.4 0 .7.4.8 1.2v1.6l1-.1h1.2c.3.2.4.4.4.8 0 .2 0 .4-.2.6l-.5.2Zm5.3 7a3 3 0 0 1-2.3-.9c-.7-.7-1-1.7-1.1-2.9a5 5 0 0 1 .9-3c.7-1.1 1.7-1.7 3-1.7 1 0 1.9.5 2.4 1.5.4.7.6 1.7.6 2.7a5 5 0 0 1-.9 3c-.7 1-1.5 1.4-2.6 1.4Zm.4-6.9c-.7 0-1.3.4-1.8 1.1a4 4 0 0 0-.5 2c0 .8.2 1.4.7 1.8.3.3.7.5 1.2.5s1-.2 1.4-.6c.4-.4.6-1 .7-1.8 0-2-.5-3-1.7-3Zm0-2.7-.4-.3a.7.7 0 0 1-.3-.5l.3-.5 1-1.2c.3-.5.7-.8 1.2-1.1l.4-.2.5.2.2.5c0 .3-.1.4-.3.6l-1 1.1-1 1.2-.5.2Zm11 3.5c0 .6-.2 1-.7 1-.4 0-.7-.3-.7-.8v-1.2c-.8 0-1.5.3-2 .7-.5.3-.8.8-1.1 1.5v4.3c0 .5-.3.8-.8.8s-.7-.3-.7-.8v-5.5a29 29 0 0 1 0-1.6c0-.5.3-.8.7-.8.5 0 .8.5.8 1.3 1-1 2.1-1.4 3.3-1.4.5 0 .8.2 1 .5.2.3.3.8.3 1.4v.6Zm8.1-.6-1.7 2.4-1.9 2.6a30.6 30.6 0 0 1 2.4.1l.9.1c.2 0 .4.1.5.3.2.1.2.3.2.5 0 .3 0 .4-.2.6l-.5.2-1-.1-.9-.1a16.7 16.7 0 0 0-3.6.3c-.5 0-.7-.2-.7-.6 0-.3.1-.5.4-.8 1.3-1.2 2.8-3.1 4.4-5.7a29 29 0 0 1-3.9-.1c-.5-.1-.7-.4-.7-.8 0-.2 0-.4.2-.6l.6-.2h1.1a11.6 11.6 0 0 0 2.8 0h1.6c.4 0 .6.2.6.6 0 .4-.2.8-.6 1.3Zm5.9 6.7c-1.2 0-2.2-.3-2.9-.9a3.3 3.3 0 0 1-1.2-2.7c0-1.4.3-2.5 1-3.4.7-1 1.7-1.5 2.8-1.5 1 0 1.6.1 2.2.4.6.4 1 1 1 1.7 0 .5-.3 1-1 1.4l-1.6.9-3 1.4 1.1 1c.5.2 1 .3 1.6.3.3 0 .7 0 1.2-.2.6-.2 1-.4 1.2-.7.2-.3.4-.4.6-.4.2 0 .3 0 .5.2l.2.5c0 .5-.5 1-1.4 1.5-.8.3-1.6.5-2.3.5Zm-.3-7.1a2 2 0 0 0-1.5.7 5 5 0 0 0-1 2.2l2.4-1.1 2-1.2c-.4-.4-1-.6-1.9-.6Zm11.4 7.3c-.5 0-.7-.3-.8-.8l-.2-1.7a14.4 14.4 0 0 1 0-3.2c0-1-.3-1.6-.7-1.6-.6 0-1.1.3-1.7 1a7 7 0 0 0-1 2.4l-.2.8a6.4 6.4 0 0 0 0 1.4v.7l-.1.6-.6.2c-.2 0-.4 0-.5-.2a.8.8 0 0 1-.2-.6l-.1-.7v-.7a31.4 31.4 0 0 1 .2-4.5 12.7 12.7 0 0 0 0-1.4l.1-.6.6-.2c.5 0 .7.3.8 1v1c.9-1.2 1.8-1.8 2.7-1.8.8 0 1.4.3 1.8 1 .2.6.3 1.3.3 2.3v1.5c0 .4 0 1 .2 1.6l.1 1.7c0 .2 0 .4-.2.6l-.5.2Zm3.8-10.5c-.2 0-.4 0-.6-.2a.9.9 0 0 1-.3-.7l.3-.6.6-.3c.3 0 .5.1.7.3l.3.6c0 .3-.1.5-.3.7-.2.2-.4.2-.7.2Zm.4 6.4a64.8 64.8 0 0 0 0 2.8c0 .2 0 .4-.2.6l-.5.2-.6-.3a44.7 44.7 0 0 0-.3-3.4 26.5 26.5 0 0 1 .2-3.6c0-.2 0-.4.2-.6l.6-.2.5.2c.2.2.2.4.2.6a26.8 26.8 0 0 1-.1 3.7Zm8.7 4s-.2 0-.5-.3l-.5-.6-1.3.6-1 .3c-1.2 0-2.1-.4-2.7-1-.5-.7-.8-1.7-.8-3s.5-2.4 1.3-3.3c1-.9 2-1.3 3.2-1.3.4 0 1 0 1.5.3.7.3 1 .7 1 1l-.1.5-.1 1a35.9 35.9 0 0 0 0 3.2 11.7 11.7 0 0 0 .7 1.8v.1c0 .2 0 .4-.2.5-.1.2-.3.2-.5.2Zm-1.6-5.4a7.3 7.3 0 0 1 .2-1.6l-.5-.2a1 1 0 0 0-.3 0c-.9 0-1.6.3-2.1 1-.6.6-1 1.4-1 2.2 0 .9.2 1.5.5 2 .3.4.8.6 1.4.6.5 0 1-.1 1.3-.3.2 0 .4-.3.8-.6l-.3-3Zm17.9-2a96.6 96.6 0 0 1-2.4 7.2c-.1.2-.4.4-.7.4-.6 0-1-.8-1.3-2.2l-.4-1.8-.2-1.7-.7 1.5-1.1 3.2-.3.4c-.2.3-.4.5-.8.5s-.8-.7-1.1-2.3l-.6-3.3-.2-1.2v-1.1l.1-.6.6-.2c.4 0 .6.2.7.6l.2 1.2.1 1.1.5 3.5 1.8-5.5c.1-.6.4-.9.9-.9.4 0 .7.4.8 1a53.2 53.2 0 0 1 1 5.9l.6-2.1 1-4.3c.1-.3.3-.5.7-.5.2 0 .4 0 .6.2l.2.6v.3ZM53 274.1l-1.8 2.4-1.8 2.6a30.6 30.6 0 0 1 2.3.1l1 .1c.2 0 .3.1.5.3l.2.5c0 .3 0 .4-.2.6l-.6.2-.9-.1-.9-.1a16.7 16.7 0 0 0-3.6.3c-.5 0-.8-.2-.8-.6 0-.3.2-.5.4-.8 1.4-1.2 2.9-3.1 4.5-5.7a28.9 28.9 0 0 1-4-.1c-.4-.1-.6-.4-.6-.8 0-.2 0-.4.2-.6l.5-.2h1.2a11.6 11.6 0 0 0 2.7 0H53c.5 0 .7.2.7.6 0 .4-.2.8-.6 1.3Zm8.3 6.8c-.1 0-.3 0-.6-.3l-.5-.6-1.3.6-1 .3c-1.2 0-2-.4-2.6-1-.5-.7-.8-1.7-.8-3s.4-2.4 1.3-3.3a4 4 0 0 1 4.6-1c.7.3 1 .7 1 1v.5l-.2 1a36.2 36.2 0 0 0 0 3.2 11.8 11.8 0 0 0 .8 1.8v.1c0 .2 0 .4-.2.5-.2.2-.3.2-.5.2Zm-1.6-5.4a7.3 7.3 0 0 1 .1-1.6l-.5-.2a1 1 0 0 0-.3 0c-.8 0-1.5.3-2.1 1-.6.6-.9 1.4-.9 2.2 0 .9.2 1.5.5 2 .3.4.7.6 1.3.6.5 0 1-.1 1.3-.3.2 0 .5-.3.8-.6-.2-1.4-.2-2.4-.2-3Zm7 5.2c-.5 0-1.1 0-1.7-.2v3.7l-.3.6-.5.2-.6-.3a.8.8 0 0 1-.2-.5V275l-.2-1.7c0-.3 0-.6.2-.9.2-.3.4-.5.7-.5.2 0 .4.1.5.3l.2.5v.7l1.2-.7c.4-.2.8-.2 1.2-.2 1 0 1.9.4 2.4 1.4.4.7.6 1.7.6 3 0 1-.3 2-1 2.7-.6.8-1.4 1.2-2.5 1.2Zm.5-6.8c-.5 0-.9.1-1.3.4l-1 .8v3.7l1.8.3c.6 0 1.1-.2 1.5-.7.3-.4.4-1 .4-1.6a5 5 0 0 0-.3-2.2c-.3-.4-.6-.7-1-.7Zm10.8 7s-.3 0-.5-.3l-.5-.6-1.4.6c-.3.2-.7.3-1 .3-1.1 0-2-.4-2.6-1-.5-.7-.8-1.7-.8-3s.5-2.4 1.3-3.3c1-.9 2-1.3 3.1-1.3.5 0 1 0 1.6.3.7.3 1 .7 1 1l-.1.5-.2 1a36.2 36.2 0 0 0 .1 3.2 11.8 11.8 0 0 0 .7 1.8v.1c0 .2 0 .4-.2.5-.1.2-.3.2-.5.2Zm-1.6-5.4a7.3 7.3 0 0 1 .2-1.6l-.5-.2a1 1 0 0 0-.4 0c-.8 0-1.5.3-2 1-.6.6-1 1.4-1 2.2 0 .9.2 1.5.5 2 .3.4.8.6 1.4.6.5 0 1-.1 1.3-.3.2 0 .4-.3.8-.6l-.3-3Zm9-1c-.3 0-.5-.2-.6-.4l-.2-.8c-.4 0-1 .3-1.8.5-.9.4-1.3.8-1.3 1.3h.5c1.2.3 2 .6 2.6 1 .9.5 1.3 1.3 1.3 2.3 0 .9-.3 1.5-1 2-.7.3-1.5.5-2.4.5-.7 0-1.3-.1-2-.3-.8-.3-1.2-.7-1.2-1.3 0-.2.1-.4.3-.5.2-.2.3-.2.6-.2.1 0 .3 0 .6.3l.8.3.9.1 1.2-.1c.4-.2.7-.4.7-.8 0-.7-.5-1.1-1.5-1.4l-.8-.2c-.7-.1-1.2-.3-1.5-.5-.4-.3-.6-.7-.6-1.3 0-1.1.5-1.9 1.5-2.4l1.5-.5a12 12 0 0 0 1.5-.5h.7l.5.1.3.6v.7l.2.6c0 .3-.1.4-.3.6l-.5.2Zm4-4c-.2 0-.5 0-.6-.2a.9.9 0 0 1-.3-.7c0-.2 0-.4.3-.6.1-.2.4-.3.6-.3.3 0 .5.1.6.3l.3.6c0 .3 0 .5-.3.7-.1.2-.3.2-.6.2Zm.4 6.4a61.7 61.7 0 0 0 0 2.8c0 .2 0 .4-.2.6l-.6.2c-.2 0-.4-.1-.5-.3a45.5 45.5 0 0 0-.3-3.4 26.4 26.4 0 0 1 .2-3.6c0-.2 0-.4.2-.6l.5-.2.6.2.2.6a26.7 26.7 0 0 1-.1 3.7Zm6.2 3.9c-1.1 0-2-.3-2.8-.9a3.3 3.3 0 0 1-1.2-2.7c0-1.4.3-2.5 1-3.4.7-1 1.6-1.5 2.8-1.5.9 0 1.6.1 2.1.4.7.4 1 1 1 1.7 0 .5-.2 1-.8 1.4l-1.7.9-3 1.4 1.1 1 1.5.3c.4 0 .8 0 1.3-.2.6-.2 1-.4 1.2-.7.2-.3.4-.4.6-.4.1 0 .3 0 .5.2l.2.5c0 .5-.5 1-1.4 1.5-.8.3-1.6.5-2.4.5Zm-.2-7.1a2 2 0 0 0-1.6.7 5 5 0 0 0-.9 2.2l2.4-1.1 2-1.2c-.4-.4-1-.6-1.9-.6Zm9.7 2.2c0 4-1 6.5-3.3 7.7l-.6.2c-.1 0-.3 0-.4-.2a.6.6 0 0 1-.2-.4c0-.3.1-.5.4-.7l.8-.6c1.2-1.2 1.8-3.2 1.8-5.8 0-1-.2-2.1-.5-3.2a7 7 0 0 0-1.3-2.8 95.7 95.7 0 0 1-1.2-1.5c0-.2 0-.3.2-.5l.5-.2.5.2c1 .7 1.8 1.9 2.5 3.5.5 1.4.8 2.9.8 4.3Zm7.8-5.4c-.3 0-.5 0-.7-.2a.9.9 0 0 1-.2-.7c0-.2 0-.4.2-.6.2-.2.4-.3.7-.3.2 0 .5.1.6.3l.3.6c0 .3 0 .5-.3.7-.1.2-.4.2-.6.2Zm.3 6.4a60.1 60.1 0 0 0 .1 2.8c0 .2 0 .4-.2.6l-.6.2c-.2 0-.4-.1-.5-.3a45.4 45.4 0 0 0-.3-3.4 26.5 26.5 0 0 1 .2-3.6c0-.2 0-.4.2-.6l.5-.2.6.2.2.6a26.8 26.8 0 0 1-.2 3.7Zm12.7-2.8a9.8 9.8 0 0 1-.8 0h-.7a119.6 119.6 0 0 1 .1 5c0 1.2-.3 1.8-1.1 1.8-.3 0-.5 0-.7-.2a.9.9 0 0 1-.4-.7 21.6 21.6 0 0 1 0-1.7v-4l-1.5-.2c-.7 0-1-.4-1-1a1 1 0 0 1 1-1h1.4a39 39 0 0 0-.1-1.6c0-.3.1-.5.3-.7.2-.2.5-.3.8-.3.8 0 1.1.7 1.1 2v.6a5.7 5.7 0 0 1 2 0c.5.2.7.5.7 1 0 .3-.1.5-.3.7a1 1 0 0 1-.8.3Zm6 6.7a5 5 0 0 1-3-.9 3.3 3.3 0 0 1-1.4-2.8c0-1.3.3-2.4 1-3.3.8-1 1.8-1.5 3.2-1.5.9 0 1.6.1 2.2.4.8.4 1.2 1 1.2 1.8 0 .6-.3 1-1 1.5l-1.7 1-2.7 1c.3.3.6.6 1 .7l1.2.2c.7 0 1.3-.2 1.7-.4l1-.4c.6 0 .9.2.9.8 0 .6-.4 1-1.3 1.4-.7.3-1.5.5-2.3.5Zm-.2-6.6c-.5 0-1 .1-1.3.4-.3.4-.6.8-.8 1.5a550.2 550.2 0 0 1 3.4-1.6c-.3-.2-.8-.3-1.3-.3Zm7.2-.7c.8-.9 1.5-1.4 2.2-1.4.8 0 1.4.4 1.8 1a3.3 3.3 0 0 1 2.3-.9c1 0 1.7.5 2 1.5a88.5 88.5 0 0 1 .9 6.3c.1.4 0 .6-.2.8-.2.2-.5.3-.8.3-.6 0-1-.3-1-.9a33.8 33.8 0 0 1-.6-4.5c-.2-1-.3-1.4-.6-1.4 0 0-.3 0-.8.3l-1 .6.3 2.6.2 2.6c0 .3 0 .5-.3.7a1 1 0 0 1-.8.3 1 1 0 0 1-.7-.3 1 1 0 0 1-.3-.7l-.2-2.7a26.6 26.6 0 0 1-.3-3.4 6.4 6.4 0 0 0-2 2 131 131 0 0 0 0 3.5c0 .3-.1.5-.4.7-.2.2-.4.2-.7.2-.5 0-.8-.2-1-.5l-.1-1.3v-2.9a31.4 31.4 0 0 0 0-2.3c0-.4 0-.9.2-1.2.2-.5.5-.7.8-.7.3 0 .6 0 .8.3.3.2.4.5.4.7l-.1.7Zm14 7.4c-.4 0-.9 0-1.4-.2v3.2c0 .3-.1.6-.3.8a1 1 0 0 1-.8.3 1 1 0 0 1-.7-.3 1 1 0 0 1-.4-.8 967.7 967.7 0 0 1 0-8.9l-.2-1.5c0-.5.1-.8.3-1.1a1 1 0 0 1 1-.6c.2 0 .5.1.7.3.2.2.3.5.3.8a4.5 4.5 0 0 1 2-.6c1.3 0 2.1.6 2.7 1.6.4.7.6 1.7.6 3 0 1-.3 2-1 2.8-.7.8-1.6 1.2-2.8 1.2Zm.6-6.5c-.4 0-.7.1-1 .3a4 4 0 0 0-1 .7v3.2l1.4.2c.6 0 1-.2 1.3-.6.2-.3.4-.8.4-1.4l-.1-1.4c-.2-.7-.5-1-1-1Zm7.6 6.5c-1 0-1.8-.3-2.5-1a4 4 0 0 1-1.2-2.9c0-1.2.3-2.2 1-3 .8-1.1 1.9-1.7 3.3-1.7 1 0 1.8.4 2.5 1.3.5.7.8 1.7.8 2.8a5 5 0 0 1-1 3c-.7 1-1.7 1.5-2.9 1.5Zm.5-6.5c-.7 0-1.2.3-1.5.9-.4.5-.5 1-.5 1.7 0 .6.2 1.1.5 1.4.3.3.6.4 1 .4.5 0 .8-.1 1.2-.4.4-.4.6-.9.6-1.5 0-1.7-.4-2.5-1.3-2.5Zm15.2 6.5c-.4 0-.9 0-1.4-.2v3.2c0 .3 0 .6-.3.8a1 1 0 0 1-.8.3 1 1 0 0 1-.7-.3 1 1 0 0 1-.3-.8 967.7 967.7 0 0 1-.1-8.9l-.1-1.5c0-.5 0-.8.2-1.1a1 1 0 0 1 1-.6c.2 0 .5.1.7.3.2.2.3.5.3.8a4.5 4.5 0 0 1 2-.6c1.3 0 2.2.6 2.7 1.6.4.7.6 1.7.6 3 0 1-.3 2-1 2.8-.6.8-1.6 1.2-2.8 1.2Zm.6-6.5c-.3 0-.7.1-1 .3a4 4 0 0 0-1 .7v3.2l1.4.2c.6 0 1-.2 1.3-.6.2-.3.4-.8.4-1.4l-.1-1.4c-.2-.7-.5-1-1-1Zm11 .4c-.1.8-.5 1.2-1.1 1.2-.7 0-1-.3-1-1v-.8c-1.2.2-2 .8-2.6 1.8v4c0 .2 0 .5-.3.7a1 1 0 0 1-.7.3 1 1 0 0 1-.8-.4 1 1 0 0 1-.2-.7V275a25.7 25.7 0 0 1 0-1.4c0-.3 0-.6.2-.8.2-.2.5-.3.8-.3.6 0 1 .3 1 1 1-.8 2-1.1 3-1.1 1.1 0 1.7.7 1.7 2v.6Zm4.3 6c-1 0-1.8-.2-2.5-.9a4 4 0 0 1-1.2-2.9c0-1.2.3-2.2 1-3 .8-1.1 1.9-1.7 3.3-1.7 1 0 1.8.4 2.5 1.3.5.7.8 1.7.8 2.8a5 5 0 0 1-1 3c-.7 1-1.7 1.5-2.9 1.5Zm.5-6.4c-.7 0-1.2.3-1.5.9-.4.5-.5 1-.5 1.7 0 .6.2 1.1.5 1.4.3.3.6.4 1 .4.5 0 .9-.1 1.2-.4.4-.4.6-.9.6-1.5 0-1.7-.4-2.5-1.3-2.5Zm12 1.4c-.3 1.2-.4 2.5-.4 3.8 0 1.7-.4 3-.9 3.7-.7 1-1.9 1.5-3.6 1.5-2 0-3-.4-3-1.2 0-.3 0-.5.2-.7l.7-.2 1 .1 1.2.1c.8 0 1.4-.2 1.7-.7.4-.4.6-1.2.7-2.2a2.7 2.7 0 0 1-2 .8 3.4 3.4 0 0 1-3.5-3.6c0-1.4.4-2.5 1.3-3.4.9-1 2-1.4 3.6-1.4.5 0 1 0 1.3.2.3.1.6.3.8.6.7 0 1 .4 1 1.1l-.1 1.5Zm-3-1.6c-1 0-1.6.3-2.1.9-.5.5-.7 1.2-.7 2 0 .6.1 1.1.4 1.4.2.3.5.5 1 .5.4 0 .9-.3 1.3-.8.4-.4.6-.9.7-1.3l.3-2.4-.5-.2h-.5Zm10.8.6c0 .8-.5 1.2-1.1 1.2-.7 0-1-.3-1-1v-.8c-1.2.2-2 .8-2.6 1.8v4c0 .2 0 .5-.3.7a1 1 0 0 1-.7.3 1 1 0 0 1-.8-.4 1 1 0 0 1-.2-.7V275a24.8 24.8 0 0 1 0-1.4c0-.3 0-.6.3-.8.1-.2.4-.3.7-.3.6 0 1 .3 1 1 1-.8 2-1.1 3.1-1.1 1 0 1.6.7 1.6 2v.6Zm5 6a5 5 0 0 1-3-.9 3.3 3.3 0 0 1-1.3-2.8c0-1.3.3-2.4 1-3.3.8-1 1.8-1.5 3.1-1.5 1 0 1.7.1 2.3.4.8.4 1.2 1 1.2 1.8 0 .6-.4 1-1 1.5l-1.8 1-2.6 1c.3.3.6.6 1 .7l1.1.2c.7 0 1.3-.2 1.8-.4.4-.3.8-.4 1-.4.6 0 .9.2.9.8 0 .6-.5 1-1.3 1.4-.8.3-1.5.5-2.4.5Zm-.2-6.6c-.5 0-.9.1-1.2.4-.4.4-.6.8-.8 1.5a405.7 405.7 0 0 1 3.4-1.6c-.4-.2-.8-.3-1.4-.3Zm10.8.5c-.6 0-.9-.2-1-.6h-.6c-1.3 0-1.9 0-1.9.4 0 .2.4.5 1.1.8 1 .5 1.8.9 2.1 1.2.8.5 1.2 1.1 1.2 1.8 0 .9-.5 1.6-1.3 2a5 5 0 0 1-2.5.6c-.7 0-1.3-.1-1.9-.3-.8-.3-1.1-.7-1.1-1.3 0-.5.3-.8.9-.8.2 0 .6 0 1 .2l1 .3c1.1 0 1.7-.3 1.7-.7 0-.2-.4-.5-1.1-.9-1.1-.4-1.8-.8-2.1-1-.7-.5-1.1-1.1-1.1-1.9 0-1 .6-1.7 1.7-2 .6-.3 1.6-.4 3-.4.5 0 .8 0 1 .2.4.2.6.5.6 1 0 1-.2 1.4-.8 1.4Zm9 1.2a251.6 251.6 0 0 0 .2 4.1c0 .3-.1.6-.4.8a1 1 0 0 1-.7.3 1 1 0 0 1-1-.6 6 6 0 0 1-2 .3c-.8 0-1.4-.1-2-.4-.5-.4-.8-1-1-1.6l-.2-3.5c0-.7 0-1.4.2-2.3.1-.6.5-.9 1-.9.4 0 .6.1.8.3.2.2.3.4.3.7v1l-.2 1.2a23.5 23.5 0 0 0 .3 3.3l.4.1h.4c.5 0 1.2 0 1.9-.2a142.3 142.3 0 0 0 0-5.4c.2-.6.5-1 1.1-1 .4 0 .6.1.8.3.3.2.4.5.3.8l-.1 2.7Z"/></svg>