<svg xmlns="http://www.w3.org/2000/svg" width="337" height="221" fill="none"><path fill="#000" d="M186.3 47.1a2 2 0 0 1-1.4-.5c-.4-.4-.5-.8-.5-1.3a99.9 99.9 0 0 1 .2-8.2 224.8 224.8 0 0 0-.1-9.1c0-.5.2-1 .7-1.5.5-.5 1-.8 1.6-.8.3 0 1 .3 2.2.9l2.6 1.1c2.6.9 5 2.2 6.8 4a9.8 9.8 0 0 1 3.4 7.2c0 1.6-.4 3-1.2 4.5a9.3 9.3 0 0 1-3.2 3.5c-1.5 1-3.6 1.5-6.4 1.5a10.8 10.8 0 0 1-4.7-1.3Zm7.6-14c-.8-.6-2.7-1.4-5.6-2.6V44l1.2.5 1.5.2c2 0 3.4-.3 4.3-.8.8-.6 1.4-1.3 1.9-2.2.5-.9.7-1.8.7-2.8 0-2.2-1.3-4.2-4-5.8ZM208.2 45c0 1.7-.6 2.6-1.9 2.6-.5 0-1-.2-1.3-.5-.4-.4-.6-.8-.6-1.4V26.8c0-.5.2-1 .6-1.3a2 2 0 0 1 1.4-.4c.5 0 1 .1 1.3.4.3.4.5.8.5 1.3V45Zm15.3 2.9c-.4 0-1-.5-2-1.4l-2.2 1-1.6.3c-2.2 0-3.9-.6-5-1.8-1-1.2-1.6-3-1.6-5.3 0-2.2.8-4 2.4-5.6a8 8 0 0 1 5.8-2.4c.9 0 1.9.3 3 .8 1.4.6 2.1 1.2 2.1 2 0 .4-.1.6-.3.9l-.2 1.4a23.9 23.9 0 0 0 .3 5.7 40 40 0 0 0 1.1 2.7c0 .5-.2.9-.5 1.2-.4.3-.8.5-1.3.5Zm-3.4-9.4a10.5 10.5 0 0 1 .3-2.2 2.5 2.5 0 0 0-.9-.3c-1.2 0-2.3.5-3.3 1.5-.9 1-1.3 2-1.3 3.3 0 1.2.2 2.2.6 2.8.4.6 1.1.9 2 .9a4.6 4.6 0 0 0 3-1.1c-.3-2.2-.4-3.8-.4-4.9Zm13.4 9.4c-2 0-3.6-.6-5-1.7a6 6 0 0 1-2.1-4.8c0-1.8.6-3.7 1.9-5.6 1.4-2.2 3.1-3.3 5-3.3 1 0 2.1.2 3.4.7 1.5.7 2.3 1.4 2.3 2.2 0 .5-.2.8-.5 1.2-.3.4-.7.6-1.2.6-.4 0-.9-.3-1.5-.7-.5-.4-1.3-.6-2.4-.6-.7 0-1.5.7-2.3 2a7 7 0 0 0-1.2 3.5c0 1 .4 1.7 1 2.3a4 4 0 0 0 2.6.7 5 5 0 0 0 2.3-.7c.9-.4 1.4-.7 1.7-.7.5 0 .9.2 1.2.6.4.3.6.7.6 1.2 0 .7-.8 1.4-2.4 2.1-1.4.6-2.5 1-3.4 1Zm19.9-11.3a219.4 219.4 0 0 1-5.6 7.3 43.7 43.7 0 0 1 3 .2l1.5.2c.5 0 1 .1 1.4.5.3.3.5.8.5 1.3s-.2 1-.5 1.3a2 2 0 0 1-1.4.5l-1.6-.2c-.7-.2-1.2-.2-1.6-.2a30.7 30.7 0 0 0-6.3.6 2 2 0 0 1-1.3-.5c-.4-.3-.6-.7-.6-1.1 0-.6.3-1.2.9-1.6a41 41 0 0 0 7.1-8.5 33.7 33.7 0 0 1-5.9-.2c-1-.2-1.7-.8-1.7-1.8 0-.5.2-1 .6-1.3.3-.4.8-.5 1.3-.5l2 .1a22.6 22.6 0 0 0 4.9 0h2.7c1.2 0 1.8.4 1.8 1.3 0 .8-.4 1.7-1.2 2.6Zm10.2 11c-2.2 0-4-.5-5.4-1.5a5.7 5.7 0 0 1-2.2-4.9c0-2.3.6-4.2 1.8-5.8a6.5 6.5 0 0 1 5.4-2.7 9 9 0 0 1 4 .8c1.4.7 2 1.7 2 3.1 0 1-.5 2-1.6 2.7-.6.3-1.6.9-3.1 1.5l-4.6 2c.4.6 1 1 1.6 1.2a6 6 0 0 0 2 .3 6 6 0 0 0 3.2-.7 4 4 0 0 1 1.8-.7c1 0 1.4.4 1.4 1.4 0 1-.7 1.9-2.2 2.5-1.3.6-2.7.8-4.1.8Zm-.4-11.6a3 3 0 0 0-2.1.9 6 6 0 0 0-1.5 2.5l3-1.3c1.3-.6 2.3-1 3-1.6-.6-.3-1.4-.5-2.4-.5ZM285 39c-.3 2-.6 4.4-.6 6.7-.1 3-.6 5.1-1.5 6.4-1.2 1.8-3.3 2.7-6.4 2.7-3.5 0-5.3-.7-5.3-2 0-.6.2-1 .5-1.3.3-.3.7-.5 1.3-.5l1.7.3 2 .2c1.4 0 2.4-.4 3-1.3.7-.8 1-2 1.2-3.8a4.6 4.6 0 0 1-3.5 1.4 5.9 5.9 0 0 1-6.1-6.3c0-2.5.7-4.5 2.2-6A8.5 8.5 0 0 1 280 33a7 7 0 0 1 2.2.3c.6.2 1.1.5 1.5 1 1.2.1 1.7.8 1.7 2 0 .6 0 1.5-.3 2.6Zm-5.3-2.8c-1.5 0-2.7.5-3.6 1.5-.7 1-1.1 2.1-1.1 3.6 0 1.1.2 2 .6 2.5.4.5 1 .8 1.9.8.7 0 1.5-.4 2.2-1.3.7-.8 1.1-1.6 1.2-2.4l.6-4.1c-.3-.2-.6-.4-.9-.4a3 3 0 0 0-.9-.2ZM293 47.8a6 6 0 0 1-4.4-1.7 7 7 0 0 1-2-5.1c-.1-2 .4-3.8 1.6-5.4a6.8 6.8 0 0 1 5.8-2.8c1.8 0 3.2.8 4.3 2.2a8 8 0 0 1 1.5 4.9c0 2.1-.6 4-1.7 5.4a6 6 0 0 1-5.1 2.5Zm.8-11.4A3 3 0 0 0 291 38c-.5.8-.8 1.8-.8 3 0 1 .3 2 1 2.5.4.5 1 .7 1.7.7a3 3 0 0 0 2-.8c.7-.6 1-1.5 1.1-2.6.1-2.9-.6-4.4-2.3-4.4ZM198.5 74c1.3-1.6 2.6-2.4 3.9-2.4 1.4 0 2.4.5 3 1.6a5.7 5.7 0 0 1 4-1.5c1.9 0 3 1 3.7 2.7a154 154 0 0 1 1.6 11c0 .6-.1 1-.5 1.4a2 2 0 0 1-1.4.5c-1 0-1.7-.5-1.9-1.6a59.3 59.3 0 0 1-1-8c-.2-1.6-.5-2.4-.9-2.4l-1.4.6L206 77c0 1 0 2.5.3 4.5s.4 3.5.4 4.5c0 .5-.2 1-.5 1.3-.4.3-.8.5-1.4.5-.5 0-1-.2-1.3-.5-.4-.4-.6-.8-.6-1.3 0-1 0-2.6-.3-4.6a46.5 46.5 0 0 1-.5-6 11.2 11.2 0 0 0-3.4 3.3 237 237 0 0 0-.1 6.4c0 .5-.2.9-.6 1.1-.4.3-.8.4-1.4.4-.7 0-1.3-.3-1.5-1a6 6 0 0 1-.3-2.2v-5a52.6 52.6 0 0 0-.1-4c0-.9.1-1.6.4-2.2.4-.9.9-1.3 1.5-1.3.5 0 1 .2 1.4.6.4.4.6.9.6 1.3l-.1 1.2Zm23.8 13A6 6 0 0 1 218 85a7 7 0 0 1-2.1-5.1c0-2 .5-3.8 1.6-5.4a6.8 6.8 0 0 1 5.8-2.8c1.8 0 3.3.8 4.4 2.2A8 8 0 0 1 229 79c0 2.1-.6 4-1.7 5.4a6 6 0 0 1-5 2.5Zm.8-11.5a3 3 0 0 0-2.6 1.6c-.6.8-.8 1.8-.8 3 0 1 .3 2 .9 2.5.5.5 1 .7 1.7.7a3 3 0 0 0 2-.8c.7-.6 1.1-1.5 1.1-2.6.2-2.9-.6-4.4-2.3-4.4Zm20 .2-2.7 3.5-2.9 3.8a43.7 43.7 0 0 1 3 .2l1.6.2c.5 0 1 .1 1.3.5.4.3.6.8.6 1.3s-.2 1-.5 1.3c-.4.3-.9.5-1.4.5l-1.6-.2c-.7-.2-1.2-.2-1.6-.2a30.7 30.7 0 0 0-6.3.6 2 2 0 0 1-1.3-.5c-.4-.3-.6-.7-.6-1.1 0-.6.3-1.2.9-1.6a41 41 0 0 0 7-8.5 33.8 33.8 0 0 1-5.8-.2c-1.1-.2-1.7-.8-1.7-1.8 0-.5.2-1 .6-1.3.3-.4.7-.5 1.3-.5l2 .1a22.6 22.6 0 0 0 4.8 0h2.8c1.2 0 1.7.4 1.7 1.3 0 .8-.3 1.7-1.1 2.6Zm-4.3-5.2c-.4 0-1-.3-1.5-.7-.6-.5-.9-1-.9-1.6 0-.5.3-1 .8-1.4.4-.3.8-.4 1.3-.4.4 0 .8.2 1.4.6.6.5 1 1 1 1.6 0 .6-.3 1-.8 1.4-.4.3-.8.5-1.3.5Zm14.6 16.2c-2.2 0-4-.5-5.4-1.5a5.7 5.7 0 0 1-2.3-4.9c0-2.3.6-4.2 1.9-5.8a6.5 6.5 0 0 1 5.4-2.7 9 9 0 0 1 4 .8c1.3.7 2 1.7 2 3.1 0 1-.5 2-1.7 2.7-.5.3-1.5.9-3 1.5l-4.6 2c.4.6 1 1 1.5 1.2a6 6 0 0 0 2.2.3 6 6 0 0 0 3-.7 4 4 0 0 1 1.9-.7c1 0 1.4.4 1.4 1.4 0 1-.7 1.9-2.3 2.5-1.2.6-2.6.8-4 .8ZM253 75a3 3 0 0 0-2.2.9 6 6 0 0 0-1.4 2.5l3-1.3c1.3-.6 2.3-1 3-1.6-.6-.3-1.4-.5-2.4-.5Zm18.8 1c-1 0-1.5-.4-1.6-1.1l-1.2-.1c-2.2 0-3.3.3-3.3.9 0 .3.7.8 2 1.4 1.8.8 3 1.5 3.7 2 1.3.9 2 2 2 3.2 0 1.5-.8 2.7-2.2 3.5-1.2.7-2.6 1-4.4 1-1.2 0-2.3-.2-3.3-.5-1.3-.6-2-1.3-2-2.3 0-1 .5-1.4 1.6-1.4l1.8.4c.8.3 1.4.4 1.9.4 1.8 0 2.7-.3 2.7-1 0-.6-.6-1-1.9-1.6L264 79c-1.3-1-2-2-2-3.3 0-1.9 1-3 3-3.7 1.1-.4 2.9-.6 5.2-.6.9 0 1.6.1 2 .4.6.3 1 .9 1 1.7 0 1.7-.5 2.5-1.4 2.5Zm15.8-.4a219.4 219.4 0 0 1-5.6 7.3 43.7 43.7 0 0 1 2.9.2l1.6.2c.5 0 1 .1 1.3.5.4.3.6.8.6 1.3s-.2 1-.6 1.3c-.3.3-.8.5-1.3.5l-1.6-.2c-.7-.2-1.3-.2-1.6-.2a30.7 30.7 0 0 0-6.3.6 2 2 0 0 1-1.3-.5c-.4-.3-.6-.7-.6-1.1 0-.6.3-1.2.8-1.6a41 41 0 0 0 7.2-8.5 33.7 33.7 0 0 1-5.9-.2c-1.1-.2-1.7-.8-1.7-1.8 0-.5.2-1 .5-1.3.4-.4.8-.5 1.4-.5l2 .1a22.6 22.6 0 0 0 4.8 0h2.8c1.2 0 1.7.4 1.7 1.3 0 .8-.4 1.7-1.1 2.6Zm-116.3 39a224.7 224.7 0 0 1-5.6 7.3 44.1 44.1 0 0 1 2.9.2l1.6.2c.5 0 1 .1 1.3.5.4.3.6.8.6 1.3s-.2 1-.5 1.3c-.4.3-.9.5-1.4.5l-1.6-.2c-.7-.2-1.2-.2-1.6-.2a30.8 30.8 0 0 0-6.3.6 2 2 0 0 1-1.3-.5c-.4-.3-.6-.7-.6-1.1 0-.6.3-1.2.9-1.6a41 41 0 0 0 7-8.5 34.1 34.1 0 0 1-5.8-.2c-1.1-.2-1.7-.8-1.7-1.8 0-.5.2-1 .6-1.3.3-.4.7-.5 1.3-.5l2 .1a22.7 22.7 0 0 0 4.8 0h2.8c1.2 0 1.7.4 1.7 1.3 0 .8-.3 1.7-1.1 2.6Zm15 11.3c-.3 0-1-.5-2-1.4l-2.1 1-1.6.3c-2.2 0-3.9-.6-5-1.8-1-1.2-1.6-3-1.6-5.3 0-2.2.8-4 2.4-5.6a8 8 0 0 1 5.8-2.4c.9 0 1.9.3 3 .8 1.4.6 2 1.2 2 2 0 .4 0 .6-.2.9l-.2 1.4a23.4 23.4 0 0 0 .3 5.7 40 40 0 0 0 1.1 2.7c0 .5-.2 1-.5 1.2-.4.3-.8.5-1.3.5Zm-3.3-9.4a10.2 10.2 0 0 1 .2-2.2 2.5 2.5 0 0 0-.8-.3c-1.2 0-2.3.5-3.3 1.5-.9 1-1.4 2-1.4 3.3 0 1.2.3 2.2.7 2.8.4.6 1.1.9 2 .9a4.7 4.7 0 0 0 3-1.1c-.3-2.2-.4-3.8-.4-4.9Zm19.1.6a421.6 421.6 0 0 0 .1 7.2c0 .5-.1 1-.5 1.3a2 2 0 0 1-1.4.5c-.7 0-1.3-.3-1.6-1-1.2.4-2.4.6-3.6.6-1.3 0-2.4-.3-3.3-.8-1-.6-1.6-1.6-1.8-2.8a40 40 0 0 1-.5-6c0-1.3.1-2.6.4-4.1.2-1 .8-1.6 1.8-1.6.6 0 1 .2 1.4.5.4.4.5.8.5 1.3 0 .4 0 1-.2 1.9l-.1 2a40.5 40.5 0 0 0 .5 5.7l.6.2.7.1c1 0 2-.1 3.3-.4a241.5 241.5 0 0 0 0-4.7c0-1.9 0-3.5.2-4.9.1-1 .8-1.6 1.9-1.6.5 0 1 .2 1.4.5.3.4.5.8.5 1.3l-.3 4.8Zm9.1-6.1c1.2-.2 2.1-.2 2.6-.2 1.7 0 2.6.6 2.6 1.7 0 1.2-1 1.8-2.7 1.8H211a77.6 77.6 0 0 0 0 7.5c0 1.6-.1 3-.3 4-.2.9-.8 1.4-1.8 1.4a2 2 0 0 1-1.4-.5c-.3-.3-.5-.7-.5-1.2v-.4l.3-3.7v-6.8l-.9.1h-.8a2 2 0 0 1-1.3-.4c-.4-.3-.6-.8-.6-1.3 0-.9.5-1.4 1.3-1.7l2.4-.2.2-1.6c.3-2 .8-3.5 1.7-4.5 1-1.2 2.7-1.9 4.8-1.9 1.7 0 2.5.6 2.5 1.8 0 1.2-.7 1.8-2.3 1.8-1 0-1.9.4-2.4 1.2-.4.5-.6 1.4-.7 2.7v.4Zm19.6 14.9c-.5 0-1.1-.5-2-1.4l-2.2 1-1.7.3c-2.2 0-3.8-.6-5-1.8-1-1.2-1.6-3-1.6-5.3 0-2.2.9-4 2.5-5.6a8 8 0 0 1 5.8-2.4c.9 0 1.9.3 3 .8 1.4.6 2 1.2 2 2 0 .4 0 .6-.2.9l-.3 1.4a23.4 23.4 0 0 0 .3 5.7 38.8 38.8 0 0 0 1.2 2.7c0 .5-.2 1-.6 1.2-.3.3-.7.5-1.2.5Zm-3.4-9.4a10.2 10.2 0 0 1 .2-2.2 2.5 2.5 0 0 0-.8-.3c-1.3 0-2.3.5-3.3 1.5s-1.4 2-1.4 3.3c0 1.2.2 2.2.7 2.8.4.6 1 .9 2 .9a4.7 4.7 0 0 0 3-1.1c-.3-2.2-.4-3.8-.4-4.9Zm13.4 9.4c-2 0-3.7-.6-5-1.7a6 6 0 0 1-2.2-4.8c0-1.8.7-3.7 2-5.6 1.4-2.2 3.1-3.3 5-3.3 1 0 2 .2 3.4.7 1.5.7 2.3 1.4 2.3 2.2 0 .5-.2.8-.5 1.2-.3.4-.7.6-1.3.6-.4 0-.8-.3-1.4-.7-.5-.4-1.4-.6-2.5-.6-.7 0-1.4.7-2.2 2a7.1 7.1 0 0 0-1.2 3.5c0 1 .3 1.7 1 2.3a4 4 0 0 0 2.6.7 5 5 0 0 0 2.3-.7l1.6-.7c.5 0 1 .2 1.3.6.4.3.5.7.5 1.2 0 .7-.7 1.4-2.3 2.1-1.4.6-2.5 1-3.4 1ZM245 105c-.5.3-1 .9-1.8 1.7-.7.8-1.3 1.4-1.8 1.7a2 2 0 0 1-2.4 0c-.4-.4-.5-.8-.5-1.2 0-.3.2-.7.5-1a91 91 0 0 0 2.8-2.8c.8-.8 1.5-1.2 2.2-1.2.4 0 .9.2 1.2.5.4.3.5.7.5 1 0 .6-.2 1-.7 1.3Zm25.8 9a18.2 18.2 0 0 1-1.3 0H268a210 210 0 0 1 .2 8.7c0 2.1-.6 3.2-2 3.2a2 2 0 0 1-1.3-.5c-.4-.3-.6-.7-.6-1.2a39.6 39.6 0 0 1 .1-3l-.2-7-2.6-.3c-1.1-.1-1.7-.7-1.7-1.8a1.8 1.8 0 0 1 1.9-1.8l2.3.2a69.4 69.4 0 0 0-.1-2.8c0-.5.1-1 .5-1.3a2 2 0 0 1 1.4-.5c1.3 0 2 1.1 2 3.4v1.1a10 10 0 0 1 3.5.1c.7.3 1 .8 1 1.7 0 .5 0 1-.4 1.3-.4.3-.9.5-1.4.5Zm10.4 11.6c-2.1 0-4-.5-5.3-1.5a5.7 5.7 0 0 1-2.3-4.9c0-2.3.6-4.2 1.8-5.8a6.5 6.5 0 0 1 5.5-2.7 9 9 0 0 1 4 .8c1.3.7 2 1.7 2 3.1 0 1-.6 2-1.7 2.7-.5.3-1.5.9-3 1.5l-4.7 2c.5.6 1 1 1.6 1.2a6 6 0 0 0 2.1.3 6 6 0 0 0 3.2-.7 4 4 0 0 1 1.8-.7c1 0 1.4.4 1.4 1.4 0 1-.8 1.9-2.3 2.5-1.3.6-2.6.8-4 .8Zm-.3-11.6a3 3 0 0 0-2.2.9 6 6 0 0 0-1.4 2.5l3-1.3c1.3-.6 2.2-1 3-1.6-.6-.3-1.4-.5-2.4-.5Zm12.7-1.1c1.3-1.6 2.6-2.4 3.9-2.4 1.4 0 2.4.5 3 1.6a5.7 5.7 0 0 1 4.1-1.5c1.8 0 3 1 3.6 2.7a154 154 0 0 1 1.6 11c0 .6-.1 1-.5 1.4a2 2 0 0 1-1.4.5c-1 0-1.7-.5-1.9-1.6a59.8 59.8 0 0 1-1-8c-.2-1.6-.5-2.4-.9-2.4l-1.4.6-1.6 1.1.3 4.5c.3 2 .4 3.5.4 4.5 0 .5-.2 1-.5 1.3-.4.3-.8.5-1.4.5-.5 0-1-.2-1.3-.5-.4-.4-.5-.8-.5-1.3l-.4-4.6a46.8 46.8 0 0 1-.5-6 11.2 11.2 0 0 0-3.4 3.3 228 228 0 0 0-.1 6.4c0 .5-.2.9-.6 1.1-.4.3-.8.4-1.4.4-.7 0-1.3-.3-1.5-1a6 6 0 0 1-.3-2.2v-5a51 51 0 0 0-.1-4c0-.9.1-1.6.4-2.2.4-.9.9-1.3 1.5-1.3.5 0 1 .2 1.4.6.4.4.6.9.6 1.3l-.1 1.2Zm30.2 4.2a421.6 421.6 0 0 0 0 7.2c0 .5-.1 1-.5 1.3a2 2 0 0 1-1.3.5c-.8 0-1.3-.3-1.7-1-1.1.4-2.4.6-3.6.6-1.3 0-2.4-.3-3.3-.8-1-.6-1.6-1.6-1.7-2.8a40 40 0 0 1-.6-6c0-1.3.2-2.6.4-4.1.2-1 .8-1.6 1.9-1.6.5 0 1 .2 1.3.5.4.4.6.8.6 1.3 0 .4 0 1-.2 1.9l-.2 2a40.5 40.5 0 0 0 .5 5.7l.7.2.6.1c1 0 2.1-.1 3.3-.4a241.5 241.5 0 0 0 0-4.7c0-1.9 0-3.5.3-4.9 0-1 .7-1.6 1.8-1.6.6 0 1 .2 1.4.5.4.4.6.8.5 1.3l-.2 4.8ZM194 164.8c-.8 0-1.6 0-2.5-.3v5.6c0 .5-.2 1-.6 1.3-.3.4-.8.5-1.3.5-.6 0-1-.1-1.4-.5-.3-.3-.5-.8-.5-1.3a1480.3 1480.3 0 0 1 0-10.5 92.7 92.7 0 0 0-.4-7.8c0-.7.2-1.4.5-2 .4-.5 1-.8 1.6-.8.5 0 1 .1 1.3.5.4.3.5.8.5 1.2v.2a7.9 7.9 0 0 1 3.7-1c2.1 0 3.6.8 4.6 2.6.7 1.4 1 3 1 5.2 0 2-.5 3.7-1.6 5a6.2 6.2 0 0 1-5 2.1Zm1-11.3c-.7 0-1.3.1-1.8.4a7 7 0 0 0-1.8 1.2l.1 5.7c.8.2 1.7.4 2.5.4.9 0 1.6-.4 2.1-1a4 4 0 0 0 .7-2.5c0-1.2 0-2-.2-2.5-.2-1.1-.8-1.7-1.7-1.7Zm11.8 8.5c0 1.7-.6 2.6-1.8 2.6-.6 0-1-.2-1.4-.5-.4-.4-.5-.8-.5-1.4v-18.9c0-.5.2-1 .5-1.3a2 2 0 0 1 1.4-.4c.5 0 1 .1 1.3.4.4.4.5.8.5 1.3V162Zm15.3 2.9c-.4 0-1-.5-2-1.4l-2.2 1-1.6.3c-2.2 0-3.9-.6-5-1.8-1-1.2-1.6-3-1.6-5.3 0-2.2.8-4 2.4-5.6a8 8 0 0 1 5.8-2.4c1 0 2 .3 3 .8 1.4.6 2.1 1.2 2.1 2 0 .4 0 .6-.3.9l-.2 1.4a23.9 23.9 0 0 0 .3 5.7 42.3 42.3 0 0 0 1.1 2.7c0 .5-.1 1-.5 1.2-.4.3-.8.5-1.3.5Zm-3.4-9.4a10.5 10.5 0 0 1 .3-2.2 2.5 2.5 0 0 0-.9-.3c-1.2 0-2.3.5-3.2 1.5-1 1-1.4 2-1.4 3.3 0 1.2.2 2.2.6 2.8.5.6 1.1.9 2 .9a4.6 4.6 0 0 0 3-1.1l-.4-4.9Zm18 9.5c-1.2 0-1.8-.6-2-1.7 0-1-.2-1.9-.3-2.8a21 21 0 0 1 0-5.8v-.6c0-.8-.3-1.1-.7-1.1-.8 0-1.6.5-2.4 1.4-.8 1-1.5 2.3-2 3.8v1.2a9 9 0 0 0 0 2.3v1.2c0 .5-.1 1-.5 1.3-.3.3-.8.5-1.3.5-.6 0-1-.2-1.4-.5-.3-.4-.5-.8-.5-1.3l-.1-1.2v-1.1l.1-3.7a48 48 0 0 0 0-6c0-.6.3-1 .6-1.3a2 2 0 0 1 1.4-.5c1.2 0 1.8.7 2 2.1v.2a6 6 0 0 1 4.1-2c1.8 0 3 .7 3.6 2.1.5 1 .7 2.4.7 4.4v1a49.3 49.3 0 0 0 .2 3.6l.3 2.7c0 .5-.1 1-.5 1.3a2 2 0 0 1-1.4.5Zm9.5-.2a6 6 0 0 1-4.4-1.7 7 7 0 0 1-2-5.1c-.1-2 .4-3.8 1.6-5.4a6.8 6.8 0 0 1 5.8-2.8c1.8 0 3.2.8 4.3 2.2a8 8 0 0 1 1.5 4.9c0 2.1-.6 4-1.7 5.4a6 6 0 0 1-5.1 2.5Zm.8-11.4a3 3 0 0 0-2.7 1.6c-.5.8-.8 1.8-.8 3 0 1 .3 2 1 2.5.4.5 1 .7 1.7.7a3 3 0 0 0 2-.8c.7-.6 1-1.5 1-2.6.2-2.9-.6-4.4-2.2-4.4Zm25.8-1.4-3 9.7c-.2.8-.7 1.7-1.3 2.5a2 2 0 0 1-1.7 1c-1.2-.1-2-1.2-2.7-3.4a41 41 0 0 1-.9-4.7 200 200 0 0 0-2.4 6 2 2 0 0 1-.7 1c-.3.6-.9 1-1.7 1-.4 0-.8-.4-1.3-1.2-.5-.8-1-1.8-1.2-3a108.4 108.4 0 0 1-1.5-9.4c0-.5.2-.9.5-1.2a2 2 0 0 1 1.4-.5c1 0 1.6.5 1.8 1.4l.3 2a80.8 80.8 0 0 0 .8 5.3l2.3-6.9c.4-1.2 1-1.8 2-1.8 1.1 0 1.8.7 2 2a54.4 54.4 0 0 1 1.5 7.5l2.1-8.3c.2-.8.8-1.2 1.8-1.2.5 0 1 .2 1.3.5.4.3.6.8.6 1.3v.4Zm4.8-4.4c-.6 0-1.1-.2-1.6-.6-.4-.4-.6-.9-.6-1.5 0-.5.2-1 .6-1.4.5-.4 1-.6 1.6-.6.5 0 1 .2 1.5.6.4.4.6.9.6 1.4 0 .6-.2 1-.6 1.5-.5.4-1 .6-1.5.6Zm1.1 10a120.7 120.7 0 0 0 .1 5c0 .5-.2 1-.5 1.3-.4.3-.8.5-1.4.5a1.8 1.8 0 0 1-1.9-1.8 86.8 86.8 0 0 0 0-5v-3c.2-1.3.2-2.3.2-3.1 0-.5.2-1 .5-1.3.4-.4.9-.5 1.4-.5.5 0 1 .1 1.4.5.3.3.5.8.5 1.3l-.1 3-.2 3Zm14-2.4a1044.2 1044.2 0 0 1-4.3 3.3 2 2 0 0 1-1.5.7 2 2 0 0 1-1.3-.5c-.4-.4-.6-.9-.6-1.3 0-.8.6-1.6 1.8-2.5l3.2-2.3c1.2-.9 1.8-1.7 1.8-2.4 0-.9-.5-1.7-1.3-2.4a4 4 0 0 0-2.7-1.1c-.5 0-1.2.3-2 .8-.9.6-1.5.9-1.8.9-.6 0-1-.2-1.4-.6a2 2 0 0 1-.6-1.4c0-.9.8-1.7 2.4-2.5 1.4-.6 2.5-1 3.4-1 2 0 3.8.8 5.4 2.3a6.6 6.6 0 0 1 2.4 5c0 1.8-1 3.5-2.8 5Zm-6.5 9.8c-.5 0-1-.2-1.4-.5-.5-.4-.7-.8-.7-1.4 0-.6.2-1.2.5-1.7.5-.6 1-1 1.8-1 .6 0 1 .3 1.4.7.3.4.4.9.4 1.4 0 .6-.1 1-.4 1.6-.4.6-1 .9-1.6.9ZM127.1 192.7l-.1-.1h-.4a.9.9 0 0 0-.5.3v.3a.6.6 0 0 0 0 .4l.1.1.2.2.1.3.6 2c.5 3.1.8 6.2 1 9.2v8.2h1.4V210a46.6 46.6 0 0 0-.8-11.5c0-2.1-.6-4-1.6-5.7ZM96.4 3.3l6 .1.7.2a14.5 14.5 0 0 1 2.1.5l.4.3c.2 0 .3.2.4.3a1.3 1.3 0 0 1 .3.4v.2a13.5 13.5 0 0 1 1.7 6.4c-.2 1.8 0 3.6.2 5.4 0 .7 0 1.5-.2 2.2a5 5 0 0 0-.1 2.4c0 .4.2.6.5.8 1.1.6 2.2.6 3.2-.2h.1l.1.1.1.1h.1v.2l.2.1a1 1 0 0 1 .2.4v.6l-.2 1v1l-.3.7a39.2 39.2 0 0 0-1.4 6.4c-.1-.5-.4-.8-.9-1-.5-.2-1 0-1.3.5-.3.5-.4 1 0 1.6l-.2.6a4 4 0 0 0-.2 1l.1.8c.3 1.1.4 2.3.4 3.4 0 .5 0 1-.2 1.4l-1.2 3c-.4.7-1 1.4-1.6 2a38.6 38.6 0 0 1-5.9 4.4l.5.4.4.4.7.7a105.6 105.6 0 0 1 4.7-2.8h-.4a41.4 41.4 0 0 0 1.4-1.3l.2-.3V45.3c0-.1 0-.2.2-.2h.3v.3c.2.1.2.3.2.5a42.3 42.3 0 0 0 .2.8v.1c1-1.3 1.9-2.7 2.4-4.2l.3-1.5a18.5 18.5 0 0 0-.2-5.7c.5 0 1-.2 1.3-.4.7-.5 1.2-1.2 1.3-2 0-.7.2-1.5.4-2.2 0-.4 0-.8.2-1.2a46.9 46.9 0 0 0 1-6.2c0-1.5-.7-2.6-2-3.2l-.6-.1h-1l-.7.3.2-1.4v-1.5a20 20 0 0 1 0-3.3 21 21 0 0 0-1.8-9.6c-.2-.5-.6-1-1-1.4a7.2 7.2 0 0 0-4.6-2h-.9c-1.7-.2-3.4-.2-5.1-.2-1.6 0-3.1.2-4.7.4h.1l-1.2.2a64.9 64.9 0 0 1-9.7.5 16.8 16.8 0 0 1-2.8 0h-.5a4 4 0 0 0-.4 0l-.4.2a7 7 0 0 0-1.2 0 17.9 17.9 0 0 1-1.6.4 7 7 0 0 0-2 1c-.6.5-1.1 1-1.5 1.8a16 16 0 0 0-1.7 5.5l-.3 3c-.3 1.5-.2 3 0 4.5l-.3-.2h-1.5l-.9.6c-.3.2-.5.5-.7.9l-.3 1L65 22c-.2.7-.3 1.5-.3 2.2 0 2.1.2 4.2.5 6.3.2 1.5.8 2.8 1.7 4 .9 1 1.9 1.3 3.1.8l.2 1.3c0 .4.1.6.2.7.2 1 .4 2 .4 3.1 0 .6 0 1.2.3 1.6.5 1.8 1.2 3.4 2.4 5l1.8 2.2a265.5 265.5 0 0 1 .7.9l.7.6.5.7 2.4 2a15.2 15.2 0 0 0 6.1 2.6c1 .3 2.1.5 3.2.5h1l1.1-.2.2-.1.1-.2v-.3c0 .2-.3.2-.6.2H90c-.2 0-.4 0-.6-.2a4 4 0 0 0-.3-.2l-.6-.1-1-.2h-.8l-1-.4-.4-.1c-.2-.1-.3-.3-.4-.6v-.7l-1.7-.6a20.7 20.7 0 0 1-5.7-4.7l-2.6-3.5a9 9 0 0 1-1.4-3.8 104 104 0 0 0-1.2-7.5c0-.7-.3-1.4-.9-1.9a.6.6 0 0 0-.6-.2c-1 .3-1.6.9-1.8 2a3.7 3.7 0 0 1-1-1.6l-.4-1.3v-.8a288.5 288.5 0 0 0-.5-5.6l.1-.4.3-1 .2-1 .1-.2a1.8 1.8 0 0 1 .3-.7h.5l.4.1.1.1h.1v.2a85.6 85.6 0 0 0 .4.2c0 .3.2.6.5 1 .2.2.5.3.8.2 1.1-.2 1.4-.8 1-1.7l-.1-1c-.2-1.1-.3-2.3-.3-3.4l.1-2.8a23 23 0 0 1 1-5.2l.3-.5A25 25 0 0 1 74 5.6l.1-.2a20.9 20.9 0 0 1 1.3-.6h.8l1-.2 1-.1a2.8 2.8 0 0 0 .7 0h2a34.1 34.1 0 0 1 4.4-.2 74 74 0 0 0 6.3-.6l4.7-.4ZM70.6 25.5l.4-.5c.6-.7.4-1.3-.4-1.7-.2-.1-.3-.1-.4 0a3.4 3.4 0 0 0-2.5 3.2v1c0 1.2.6 2 1.6 2.5h.9c1-.1 1.7-.7 2.1-1.5.2-.4.1-.7 0-1-.7-.7-1.4-.7-2 0l-.1-.2v-.9c0-.3.2-.6.4-1ZM82.9 21c-.4-.2-.7-.2-1-.2-.8 0-1.3.4-1.5 1.4 0 .5.2.8.6 1.1.3.3.6.4 1 .3h.7c1-.4 1.3-1 1-2-.2-.3-.4-.5-.8-.6Zm8.1 9.3c.2-1-.2-1.4-1.2-1.4l-.5.1A6 6 0 0 0 88 32V33c.2 1.7 1.2 2.7 3 3 .6 0 1 0 1.5-.2 1-.2 1.2-.8.9-1.6 0-.1-.2-.3-.4-.3a4 4 0 0 0-2-.2l-.2-.1-.1-.1-.2-.2-.1-.2V33c0-.5 0-.9.2-1.3l.4-1.3Zm6-8.2c0 .4.2.8.6 1.1a1.4 1.4 0 0 0 1.5.2h.4c1-.4 1.2-1 .9-2-.1-.3-.4-.6-.7-.7-.6-.1-1-.2-1.4 0-.7 0-1.1.5-1.3 1.4Zm14.2 3.1a2 2 0 0 0-1.7-1.7h-.7c-1 .5-1.7 1.2-2 2.2-.2.4-.1.8.2 1.1.6.7 1.3.7 2 0a29.8 29.8 0 0 1-.3 1.1l-.3.7c-.8-.3-1.4 0-1.7.6-.2.3-.2.6 0 .8.5.7 1.1 1 2 1l.9-.3c.7-.6 1.2-1.3 1.5-2.3.3-1 .3-2.1.1-3.2Zm-24.4-6.9c.6.5 1.2.4 1.7-.2.2-.3.2-.5.2-.8-.3-.8-1-1.3-2-1.3l-2.3-.5c-1.9-.2-3.8.1-5.7 1l-2 1.1-1.2.9c-1 .6-1.1 1.4-.6 2.2l.3.3c.6.2 1 0 1.5-.3a45.1 45.1 0 0 0 2-1.7c1.2-.7 2.4-1 3.7-1.2 1.5 0 3 .1 4.4.5Zm7.9-2.6c-.7 0-1.3.4-1.7.8-.2.2-.2.4-.2.7.3 1 1 1.3 2 .9h.3l1.1-.2c.5 0 1 0 1.4-.2l.9.1 2.6.2a7 7 0 0 1 2.4.8h.1v.1l.4.2c.5.2.8.1 1.2-.2.7-.6.7-1.2 0-1.8-.8-.6-1.7-1-2.7-1.1-2-.4-4.1-.5-6.2-.4l-1.6.1Z"/><path fill="#fff" d="M102.3 3.4a46.5 46.5 0 0 0-10.6.3 74 74 0 0 1-10.7.9l-1.7-.1H78.4l-1 .1-1.1.1h-.7l-.1.1a3.3 3.3 0 0 0-.8.4 21 21 0 0 0-.6.4l-.2.3c-.1 0-.2 0-.2.2a14.7 14.7 0 0 1-.8 1.7l-.3.5v.1a23 23 0 0 0-1.1 7.9c0 1.1 0 2.3.3 3.4v1c.5 1 .2 1.5-.9 1.7-.3.1-.6 0-.8-.3a3.8 3.8 0 0 1-.6-1 167 167 0 0 1-.5-.4h-.4l-.3-.1H68l-.2.3v.4l-.2.3c0 .3 0 .6-.2 1a11.5 11.5 0 0 0-.4 1.3 284.3 284.3 0 0 1 .9 7.6 3.7 3.7 0 0 0 1 1.6c.2-1 .8-1.6 1.8-1.9.2 0 .5 0 .6.2.6.5.9 1.2.9 2a104 104 0 0 1 1.2 8 9 9 0 0 0 1.4 3.2 33.1 33.1 0 0 0 5.6 6.4l2.7 1.8a118.2 118.2 0 0 0 2.3.5l.4-.1.1-.1.4-.1h.2v-.6l.4-.5c.2-.2.4-.2.7-.3.2 0 .3.1.4.3 0 .1 0 .3-.2.4.7-.2 1.7-.3 3-.4h1c.2 0 .2.1.2.3 0 .1 0 .2-.2.2h-.3l-.8.2h1.1l.5-.7c.4-.5 1-.8 1.7-.9h.3l.4-.1.5-.4c.4-.3 1-.5 1.9-.6 1 0 1.7.2 2.3.6l.2-.1a34.3 34.3 0 0 0 5.7-4.2c.6-.6 1.2-1.3 1.6-2l1.2-3 .2-1.4a16.5 16.5 0 0 0-.5-4.2c0-.3 0-.7.2-1l.1-.6c-.3-.6-.2-1.1.1-1.6.3-.5.8-.7 1.3-.4.5.1.8.4 1 .9a20 20 0 0 1 .4-2.3 15.2 15.2 0 0 1 .9-4l.2-.9v-1l.2-.9V23l-.1-.2a1 1 0 0 0-.2-.2v-.1h-.2v-.1h-.1c-1.1.7-2.2.7-3.3 0-.3-.1-.4-.4-.5-.7a5 5 0 0 1 0-2.4c.3-.7.3-1.5.3-2.3-.3-1.7-.4-3.5-.2-5.3v-1.3a13.4 13.4 0 0 0-2-5.7 6 6 0 0 0-.8-.6l-1-.3a14.6 14.6 0 0 0-1.9-.4ZM93 16.6c.4-.4 1-.7 1.7-.8l1.6-.1c2-.1 4.1 0 6.2.4 1 .1 1.9.5 2.6 1.1.8.6.8 1.2 0 1.8a1 1 0 0 1-1 .2.8.8 0 0 1-.4-.2l-.2-.1a7 7 0 0 0-2.4-.8 39 39 0 0 0-6 0h-.3c-1 .5-1.7.2-2-.8 0-.3 0-.5.2-.7Zm-4.5 1.6c-.5.6-1 .7-1.7.2-1.4-.4-2.9-.5-4.4-.5-1.3.1-2.5.5-3.6 1.2l-.6.3-1.5 1.4c-.5.4-1 .5-1.5.3a.8.8 0 0 1-.3-.3c-.5-.8-.3-1.6.6-2.2l1.2-.9 2-1.1c1.9-.9 3.8-1.2 5.7-1l2.4.5c1 0 1.6.5 1.9 1.3 0 .3 0 .5-.2.8Zm21 5.4a2 2 0 0 1 1.7 1.7c.2 1 .2 2.2-.1 3.2-.3 1-.8 1.7-1.5 2.3-.3.2-.6.2-.9.2-.9 0-1.5-.2-2-.9a.7.7 0 0 1 0-.8c.3-.7.9-.9 1.7-.6a57.2 57.2 0 0 1 .5-1.8c-.6.7-1.3.7-2 0a1 1 0 0 1-.1-1c.3-1.1 1-1.8 2-2.2.2-.2.4-.2.7-.1Zm-11.9-.3c-.4-.3-.6-.7-.6-1.1.2-.9.6-1.3 1.3-1.4.3-.2.8-.2 1.4 0 .3.1.6.4.7.7.3 1 0 1.5-1 2h-.3c-.6.2-1 .1-1.5-.2ZM89.8 29c1 0 1.4.5 1.2 1.4 0 .5-.2.9-.4 1.3a4 4 0 0 0-.3 1.3 1 1 0 0 0 .2.3l.2.2.1.1h.2a4 4 0 0 1 2 .3c.2 0 .3.2.4.3.3.8 0 1.4-.9 1.6L91 36c-1.8-.3-2.8-1.3-3-3V32c.2-1 .7-2 1.3-2.8l.5-.1Zm-7.9-8h1c.4.2.6.4.7.7.4 1 0 1.6-.9 2H82c-.4 0-.7 0-1-.3-.4-.3-.6-.6-.6-1.1.2-1 .7-1.4 1.5-1.4ZM71 25c0 .2-.2.3-.4.5l-.4.9v1.1c.7-.7 1.4-.7 2 0 .2.3.3.6.1 1-.4.8-1.1 1.4-2.1 1.5a2 2 0 0 1-1 0c-1-.5-1.4-1.3-1.5-2.5v-1c.1-1.6 1-2.7 2.5-3.3h.4c.8.5 1 1 .4 1.8Z"/><path fill="#000" d="M51.6 204V205c.6 2.1 1.2 4.3 2 6.4l1 2.3h2.2l-1.3-3.5a50.7 50.7 0 0 1-2-6.4h-.2v-.2H53l-.1-.1H52l-.1.1-.1.1-.1.1v.1a1.6 1.6 0 0 0-.2.3ZM97.9 44c.2-.5 0-.9-.4-1.2-.5-.3-1-.3-1.4 0l-.3.1-.4.2-.3.1c-.7.3-1.4.5-2.2.6-2 .5-4 .5-6.2 0H86c-1 0-1.3.6-1 1.5a26.3 26.3 0 0 0-4.8 1.1l-.8.7-.2.3c0 .4 0 .8.2 1.1a6.6 6.6 0 0 0 4.8 3.4l-.7.6h-.3l-.1-.1a23 23 0 0 0-1.2-.6 31 31 0 0 0-1.4-1.1 80.3 80.3 0 0 0-3.1-3.2 43.6 43.6 0 0 1-3.5-4.7 1 1 0 0 0-.8-.5 1 1 0 0 0-.9.3c-.2.3-.3.6-.2 1l.5 1 .2.4a2 2 0 0 0-.8.3c-2.4 1.9-5 3.4-7.8 4.6-2.9 1.1-5.7 2.3-8.5 3.6-1.4.6-2.7 1.4-3.9 2.4-.3.3-.7.5-1.2.7-1.4.4-2.8 1-4 2-2.5 1.8-4.5 3.9-6 6.2-1.5 2.6-2.9 5.1-4.1 7.8-1.3 2.6-2 5.4-2.4 8.3l-.4 2.3-1.6 8.6a42 42 0 0 0-.6 10.2c0 1 0 2.1.2 3.1l-.1.1-.1.1-.1.1-1 4.9c-.3 1.3-.5 2.6-.6 4-.1 2.9-.4 5.8-.7 8.6-.1 1.3-.2 2.6 0 3.9a109 109 0 0 0-.8 8.2c-.2 3 0 5.8.2 8.7.4 3 .8 5.8 1.4 8.7l1.6 8.6a324.3 324.3 0 0 0 3.6 17.3 64.8 64.8 0 0 0 2.8 7.2 13.8 13.8 0 0 1 .6 1.7c-.4.9-.6 1.8-.8 2.8a30.8 30.8 0 0 0 0 8l.9 8.7c.3 3 2 4.8 5.2 5.4h.4a1.3 1.3 0 0 0 .4 0l.4-.2.1-.1.2.1 1.9 1.7h4.6l-.5-.8-.8-2a294.2 294.2 0 0 1-2.2-8l-.3-.1-.4-.1H47l-.1.1-.1.1h-.1l-.1.2c-.2.6-.3 1-.1 1.6l.4 1.8c.5 2.2 1.1 4.4 2.1 6.4a72 72 0 0 0-1.8-1.5 6.3 6.3 0 0 1-2.4-4 44.1 44.1 0 0 0-1.5-5.2l-.2-.1h-.7a.9.9 0 0 0-.2.2h-.1v.1l-.2.3v.2l-.1.2v.2l.2.2v.2l.2 2.1c0 1.3.4 2.6 1 3.7l.3.6h-.3a4 4 0 0 1-1.7-.8c-.6-1-1-2-1.1-3.2l-.6-5.2a87.2 87.2 0 0 1-.4-8.1c0-1 .1-2 .4-3l.3-2v-.1l.2-.2v-.8l-.3-.9-.4-.8-.1-.8a101 101 0 0 1-3-8.3 42 42 0 0 1-1.7-6.7 183 183 0 0 0-1.2-6.6l-1.1-6.7-1.6-8.5a62.2 62.2 0 0 1 0-20.3v-.2l-.1-.4v-.4l.5-7.2.3-4a125.4 125.4 0 0 1 1.5-8l.2-.1v-.1l.1-.1a6.4 6.4 0 0 0 .2-.2V106a.8.8 0 0 0 0-.2v-.2l-.1-.3v-1.6c-.2-2.8-.2-5.5.1-8.3a91 91 0 0 1 2-12c.1-2 .5-4 1.2-6a50.8 50.8 0 0 1 4.4-10c1.2-2.2 2.8-4.2 4.7-6 1.1-1.1 2.5-1.9 4-2.4a42.9 42.9 0 0 0 23.7-12.6l.6.9.8.8.7.6a68.6 68.6 0 0 0 2.2 2.4 76 76 0 0 0 2.8 2.3l.4.3.5.2a7.3 7.3 0 0 0 1.6.6c0 .2.1.3.3.4.2.4.5.6.8.9-1 .4-1.7 1.2-2 2.5l.1.8.4.5h-.1c-1.2 1-1.5 2.1-.8 3.4.4.8 1 1.6 1.7 2.3 1 1 2.2 2 3.5 2.7l.5.6c1.2 1.5 2.7 2.8 4.4 3.9l6 3.3 1.5 1.3a85.7 85.7 0 0 0 3 3.3v.3l1 1.4 3 4 5 7.4c1.6 2.1 3.2 4.2 5 6.2l-1 1a13.8 13.8 0 0 1-1.7 2l-.4.4a6 6 0 0 0-1.8-.5c-1.8-.3-3.5-.7-5.3-1.2a12 12 0 0 1-4.8-3h-.4a1 1 0 0 0-.4 0l-.4.3c-.3.6-.2 1.1.3 1.6a14 14 0 0 0 5.4 3 34.4 34.4 0 0 0 6.6 1.6h.3a166.4 166.4 0 0 1 0 4.2c-.3 1.3-.1 2.5.4 3.6v.6a17.2 17.2 0 0 1-.8 8.2c-.3.4-.4.8-.4 1.2.1 1.6.4 3.2.9 4.8l.3 1.6c.3 2.3.8 4.5 1.7 6.6a16 16 0 0 1 .7 9.3l-.2.3-.3.9a4 4 0 0 0-.2.8l-.1.1-.8.5-1.5.7a110.4 110.4 0 0 0-6 2A1119.8 1119.8 0 0 0 88 152c-1.8.2-3.5.1-5.3-.2l-5.8-1a19.5 19.5 0 0 1-7.7-2.4 33 33 0 0 1-5.8-4.2v-.2l-.1-.1V143h-.1l-1.3-6.2a30.7 30.7 0 0 0-3.8-10c-1.4-2.4-3-4.4-5.2-6l.3-.4c2-2.1 3.6-4.4 5-6.8 1.5-2.6 2.5-5.3 3-8.2A74.7 74.7 0 0 0 63 91.5l.7 1.1c1.6 2.6 3.5 4.9 5.9 6.8 1.8 1.6 4 2.7 6.4 3.3 3 .7 6 1.2 9 1.3h.7a38.9 38.9 0 0 0 7.2-.7A12.3 12.3 0 0 0 99 100l-.4-.3a12.4 12.4 0 0 0-1.1-1l-.1.1-.1.1-.2.1a1.9 1.9 0 0 0-.4.3l-.3.3-.2.2-.3.2-.4.3c-3.3 1.4-6.8 2-10.4 1.9a53.5 53.5 0 0 1-10.6-2c-2.8-1.3-5-3-7-5.4l-2.5-3.5a16 16 0 0 1-2-4.2v-.4l-.2-.3c0-.2-.1-.2-.2-.3l-.2-.3H62v-.1h-.4l-.3.2-.3.2V87l-.2.9a62.5 62.5 0 0 1-3.7 23.5 35.8 35.8 0 0 1-5.9 8.2H50.6l-.3.2-.2.3-.1.3v1l.1 1.4a242.2 242.2 0 0 0 .5 15.3 119 119 0 0 1 0 8.4V149.5h.2a606.4 606.4 0 0 0 .2 8.6 108 108 0 0 0 2.8 15.6v.5l.1.2.1.3c0 .9.2 1.7.7 2.3l.2.1h.1l.4.8v.2h-.1V178.5a19 19 0 0 0 4.4 8.8c2.3 2.5 3.9 5.4 4.8 8.6a30.3 30.3 0 0 1 1.2 9.9 2.8 2.8 0 0 1-.1.2l-.2.1-.1.2c-.4-.2-.8-.5-1-1a64.4 64.4 0 0 1-4.6-8.2l-.3-.3a1 1 0 0 0-.5-.1c-.9.3-1.3 1-1.4 2-.3 3-.2 6 .2 9l.9 6h70.6l-.2-3c0-1.3-.2-2.7-.4-4-.3-2-.3-3.8-.2-5.8.2-2.8 0-5.5-.8-8.1l-.3-3.4a34 34 0 0 0-1.1-5.7 1993.6 1993.6 0 0 1-.7-7c-.5-3-.8-5.8-1-8.8a20.4 20.4 0 0 0-2.3-8.3c-.6-1.2-1-2.5-1.4-4-.7-2.7-1.7-5.5-3-8v-.5h-.1v-.2a.9.9 0 0 0-.4-.5v-.1a13.5 13.5 0 0 0 .3-8.8l-2.4-7.8c.1-1.1 0-2.2-.3-3.2l-1-3.2v-.1l.1-.2.7-1.3c.4-1.5.7-3.1.9-4.7.1-2 0-3.8-.7-5.6v-.7c.2-1 .3-2.2.2-3.3 0-1 0-2-.2-2.9.6-.4 1-.9 1.5-1.4a61.7 61.7 0 0 1 1.3-1.8 10.3 10.3 0 0 0 .7.8 23 23 0 0 0 6.2 6.3c2.5 1.7 5.2 3.1 8.1 4.2l1.6.9a21.4 21.4 0 0 0 6.2 2.9 11.6 11.6 0 0 0 1-.2c.5 0 1-.2 1.4-.4a7.8 7.8 0 0 0 4.3-5.3l.7-1.3c.5-1.2.9-2.5 1-3.8l.3-3c.3-.9.6-1.8.7-2.8.4-3-.4-5.7-2.3-8.1-1-1.3-2.2-2.4-3.4-3.1a8 8 0 0 1-3-3.3 9.7 9.7 0 0 0-2.8-3.4c-1.5-1.2-3.2-2-5-2.4v-.8l-.4-1.3v.1l-.3-1.3c-.5-1.9-1.2-3.7-2-5.5a231.5 231.5 0 0 0-3.5-7c-1-1.3-2-2.4-3.4-3.2l-2.5-1.4c-1-.5-2.1-.7-3.3-.7-2.9.2-5.7-.3-8.4-1.4l.2-1c.2-1 .2-2 .2-3.2a45.2 45.2 0 0 0-1.3-9v.1-.3l-.1-.2V42.8l-.1-.2v-.2l-.2-.2-.2-.2a1 1 0 0 0-.6-.2 1 1 0 0 0-.3 0c-.2 0-.3.1-.3.2a1.4 1.4 0 0 0-.4.3l-.3 1.2a38 38 0 0 0-1.2 4.1c-.4 1.4-.9 2.7-1.5 4A34.5 34.5 0 0 0 99 48a15.9 15.9 0 0 0-4.7-2.2l2.3-.8c.6-.1 1-.4 1.3-1Zm11.6 14.8 1.3.4a27.3 27.3 0 0 0 8.8 1 14.3 14.3 0 0 1 6 4.4l.3.6a92.2 92.2 0 0 1 5 11.6 13.6 13.6 0 0 0 .3 1.4 6.2 6.2 0 0 0 .1.5 214 214 0 0 1-6.4-2l-.6-.5a33.7 33.7 0 0 0-3.4-2.1 8.1 8.1 0 0 0-1.4-1 5.5 5.5 0 0 0-1.3-1l-.7-.3-.7-.6a68.5 68.5 0 0 0-4-3 35.1 35.1 0 0 1-2.4-3.5c-.7-2-1-4-.9-6Zm-28.8-5.3Zm-28.5 69.2.9.8c1 1 2 2.1 2.7 3.3 1 1.6 1.8 3.1 2.5 4.8 1 2.8 1.8 5.6 2.3 8.5.1 1.2.4 2.4.9 3.5l-.2.1v.2h-.1v.2l-.1.1c-.8.8-1.5 1.7-2.1 2.7a22.4 22.4 0 0 0-3.1 10.2 331.9 331.9 0 0 0-1.5 10.4 48.6 48.6 0 0 1-1.4-9.8 293.2 293.2 0 0 1-.2-11.5V139a245.5 245.5 0 0 1-.6-16.2Zm60.2 27.8ZM95.3 48.1a27.3 27.3 0 0 1 5.7 4c.8 1 1.7 1.5 2.9 1.7.3 0 .6-.2.8-.5a12 12 0 0 0 1.6-3.3 176 176 0 0 0 1-3l.3 1.6c0 .6.1 1 .3 1.6a15 15 0 0 1-.1 4c-.5 3-.4 5.9 0 8.8.6 3 2 5.5 4.5 7.4l1.9 1.5a88 88 0 0 0 8.4 5.6v.3l.3.3c1.4.8 3 1.4 4.7 1.7 2.1.3 4.2.9 6.3 1.6a8.7 8.7 0 0 1 5.2 4.3c.8 1.4 1.9 2.6 3.2 3.5 1.4 1 2.6 2 3.6 3.4.8.8 1.3 1.8 1.6 3a13.3 13.3 0 0 1 .1 5.3l-.2.4-.1.4v.3a61.4 61.4 0 0 1-1 5.5 37.6 37.6 0 0 0-1.7 4.1l-.4.5-.3.4-.5.5a5.9 5.9 0 0 1-2.3 1.2h-.5l-.4.1a168.3 168.3 0 0 1-3.7-2.1c-1-.6-2-1-3-1.4l-.6-.2a38.6 38.6 0 0 1-8.2-4.8 31.2 31.2 0 0 1-5.5-6l-.5-.6-.1-.1a80.8 80.8 0 0 1-9.4-12.8c-1-1.6-2.2-3.1-3.4-4.6l.1-.2V81a45.5 45.5 0 0 0-5.2-5.6 6.5 6.5 0 0 0-2.4-1.6c-.7-.5-1.5-.9-2.3-1.2-2.7-1.3-5-3-6.8-5.3-.4-.5-.9-1-1.5-1.2a9.7 9.7 0 0 1-4.2-4.2v-.2h.1v-.2l.5-.4h.4c.8.4 1.7.6 2.7.6h.9c.2 0 .4 0 .7-.2a1 1 0 0 0 .4-.9v-.1l-.1-.3-.2-.3a1 1 0 0 0-.5-.1H88c-.7 0-1.4-.1-2-.3l-.1-.1-.6-.2-.9-.5.1-.3a1.8 1.8 0 0 1 .2-.5h.1l.2-.3a4.4 4.4 0 0 0 .3-.2H85.8a2 2 0 0 0 .3 0h.3a1 1 0 0 0 .5-.4 32.5 32.5 0 0 0 3.8.7H91l.3-.1h.1a4.3 4.3 0 0 0 .3-.3 1.8 1.8 0 0 1 .1-.2v-.9a1.2 1.2 0 0 0-.3-.3l-.7-.3a33.4 33.4 0 0 1-5.4-1.3l-.1-.1-.1-.1V53.5a14.4 14.4 0 0 1 1.7-.7l.1-.1.1-.1v-.1l.1-.1H90c.3.2.6.2.9.2l1.1-.1c.3-.1.5-.3.6-.6V51.3l-.2-.3-.2-.2-.4-.1a74.6 74.6 0 0 1-8.8-1.3 6 6 0 0 0-1.1-.8c-.3-.1-.5-.3-.5-.5h.1l.2-.2h.3l.3-.2h.4a9.3 9.3 0 0 0 .7-.3h.8l2.6-.4a43.7 43.7 0 0 0 3.2-.2c1 0 1.8.2 2.7.5l2.7.8Z"/><path fill="#fff" d="M51.2 58.4a6 6 0 0 1-1.3.6c-1.5.5-2.9 1.3-4 2.4a24.5 24.5 0 0 0-5.7 8 50.8 50.8 0 0 0-3.4 8c-.7 2-1 4-1.3 6l-.5 3.3a91 91 0 0 0-1.4 8.7 48.2 48.2 0 0 0 0 11 3.6 3.6 0 0 1-.3.3 3.7 3.7 0 0 1-.3 0l-.1.1a125.6 125.6 0 0 0-2 20v.2l-.1.1a1029 1029 0 0 0-.7 11.7c0 2.8.3 5.7.8 8.5l1.6 8.5c.4 2.2.8 4.4 1 6.7.5 2.2 1 4.4 1.3 6.7a42 42 0 0 0 1.7 6.6c.2.5.3 1.1.3 1.7a54.4 54.4 0 0 1 2.8 7.4l.4.8a3072 3072 0 0 1 .3 1.6v.1l-.1.2-.4 2a15.4 15.4 0 0 0-.5 3.6 87.3 87.3 0 0 0 1 12.8c.2 1.2.6 2.2 1.2 3.2.5.4 1 .6 1.7.7l.3.1-.3-.6c-.6-1.1-1-2.4-1-3.7a49.5 49.5 0 0 1 0-3.5l.1-.1a.8.8 0 0 1 .4-.1h.6a5.4 5.4 0 0 1 .3.3c.5 1.7 1 3.3 1.2 5 .3 1.6 1 2.9 2.4 4l1.8 1.5c-1-2-1.6-4.2-2-6.4l-.5-1.8c-.2-.5-.1-1 0-1.5a3.5 3.5 0 0 1 .2-.2h.1a.4.4 0 0 1 .2-.2h.2l.2-.1h.4l.3.2.2.3.1.2a293.6 293.6 0 0 0 2.7 9.4l.5 1h3l-1-2.4a57.7 57.7 0 0 1-2-7.4 2.1 2.1 0 0 1 .2-.2l.2-.2h.2l.1-.1h.8a1.2 1.2 0 0 1 .4.4 50.6 50.6 0 0 0 3.3 9.8h1.8l-1-6c-.3-3-.4-6-.1-9 0-1 .5-1.7 1.4-2l.5.1.3.3h.1l.2.1.1.1.1.1v.1l.2.1a64 64 0 0 0 3.9 7.7c.2.5.6.8 1 1l.1-.2a190.8 190.8 0 0 0 .4-.8c0-3.2-.3-6.3-1.3-9.4-1-3.2-2.5-6-4.8-8.6a19 19 0 0 1-4.4-9V177.9h.1l-.3-.8h-.4c-.5-.7-.7-1.5-.7-2.4v-.3a5 5 0 0 1-.2-.4v-.3a43.9 43.9 0 0 1-1.5-6 108 108 0 0 1-1.6-18.2V146.4l-.1-.2a1 1 0 0 1 0-1h.1a177.7 177.7 0 0 0-.1-7.2 812 812 0 0 1-.5-18l.2-.3.3-.1H51.2l.2-.1v-.1h.1a1.2 1.2 0 0 0 .2-.2c2.2-2.4 4-5 5.4-8 1-1.9 1.8-4 2.2-6.2A80.2 80.2 0 0 0 61 86l.3-.2.3-.1.2-.1h.4l.3.1.2.3a1.4 1.4 0 0 1 .2.3l.2.3v.4a16 16 0 0 0 2 4.2l2.6 3.5c1.8 2.3 4.1 4.1 6.9 5.5a53.4 53.4 0 0 0 10.6 1.9c3.6.2 7.1-.5 10.4-1.9l.4-.3a6.4 6.4 0 0 1 .5-.4l.3-.3.2-.1.2-.2.2-.1v-.1l.2-.1h.1l1 1 .4.3a2 2 0 0 1-.4.3l-.7.7-.6.4c-1.3 1-2.9 1.7-4.6 2l-1.9.4c-1.7.2-3.5.3-5.3.3H85c-3.1-.1-6.1-.6-9.1-1.3-2.4-.6-4.6-1.7-6.4-3.3a27.6 27.6 0 0 1-6.6-7.9c0 1.7-.2 3.3-.3 5-.2 3-.6 6-1.2 8.9-.6 2.9-1.6 5.6-3 8.2a39.1 39.1 0 0 1-5.4 7.1 20.6 20.6 0 0 1 6.3 8.1c1.3 2.6 2.2 5.2 2.7 8a1247.2 1247.2 0 0 0 1.3 6.1v.2l.1.1V144.3a33 33 0 0 0 5.9 4.2A20.4 20.4 0 0 0 77 151c2 .2 3.9.5 5.8.9 1.8.3 3.5.4 5.3.2a594.4 594.4 0 0 1 18.5-1.9 110.5 110.5 0 0 1 6-1.8c.5-.4 1-.6 1.5-.8a9 9 0 0 0 .8-.5l.3-1a15.7 15.7 0 0 0 .5-1.1 16 16 0 0 0-.7-9.3c-.9-2.1-1.4-4.3-1.7-6.6l-.3-1.6c-.5-1.6-.8-3.2-1-4.8 0-.4.2-.8.5-1.2a16.4 16.4 0 0 0 .8-8.8 5.8 5.8 0 0 1-.5-3.6l.2-1.5-.1-2.6-.3-.1a2.1 2.1 0 0 1-.4-.2c-2.1-.2-4.2-.7-6.2-1.3a14 14 0 0 1-5.4-3.1c-.5-.5-.6-1-.3-1.6l.4-.2a1 1 0 0 1 .8 0 12 12 0 0 0 4.8 2.9c1.8.5 3.5 1 5.3 1.2a6 6 0 0 1 1.8.5c.2 0 .3-.2.4-.3.1-.1.2-.3.4-.3a6.7 6.7 0 0 0 0-.1l.2-.2 1.1-1.5 1-1c-1.8-2-3.4-4-5-6.2l-5-7.3a46.8 46.8 0 0 0-4-5.5v-.3h.1a64.3 64.3 0 0 1-3.1-3.3l-1.6-1.3c-2-1-4-2.1-5.9-3.3a16.2 16.2 0 0 1-4.9-4.5c-1.3-.8-2.5-1.7-3.5-2.7a9.3 9.3 0 0 1-1.7-2.3c-.7-1.3-.4-2.4.8-3.3v-.1c0-.2-.2-.3-.3-.5a1 1 0 0 1 0-.8c.2-1.3.8-2.1 1.9-2.5a5 5 0 0 1-.8-.9c-.2-.1-.2-.2-.3-.4l-.4-.1a3 3 0 0 1-.7-.2 7.3 7.3 0 0 1-.5-.3 5.2 5.2 0 0 1-1-.4v-.1a22.3 22.3 0 0 1-4.2-3.8A67.7 67.7 0 0 1 75 48a7.2 7.2 0 0 1-1.4-1.7 42.9 42.9 0 0 1-7.5 4.5 211 211 0 0 1-10.9 5 86 86 0 0 0-4 2.5ZM96.8 49l-1.5-.9-2.7-.8a9.7 9.7 0 0 0-3.5-.5 43.6 43.6 0 0 1-5 .6h-.8l-.3.1a9.3 9.3 0 0 1-1.4.4 2.4 2.4 0 0 1-.3.2c0 .2.2.4.5.5a7 7 0 0 1 1.1.8c1.2.4 2.3.7 3.5.8a78 78 0 0 0 5.7.6l.2.2.2.3v.5c0 .4-.3.6-.6.7-.3.1-.7.2-1.1.1l-1-.1-2.5-.1h-.1a4 4 0 0 0-.2.3l-.7.3-.6.3-.5.2v.7a55.8 55.8 0 0 1 .2.1 19.5 19.5 0 0 0 5.4 1.3c.3 0 .5.2.7.3a1.4 1.4 0 0 1 .3.4v.5a11.7 11.7 0 0 1 0 .4h-.1a4.3 4.3 0 0 1-.3.3h-.1l-.3.1h-.4c-1.3-.1-2.5-.3-3.7-.6l-.2.2-.3.2a.9.9 0 0 1-.4.1h-.2a5.7 5.7 0 0 0-.5-.1h-.2l-.2.2a1.4 1.4 0 0 1-.3.3v.2l-.2.3v.2c.2.3.5.5.8.6.2 0 .4 0 .6.2h.1c.6.3 1.3.4 2 .3h.5l.5.2.2.3a1 1 0 0 1 .1.7c0 .3-.2.5-.4.6-.3.2-.5.2-.7.2h-1c-1 0-1.8-.2-2.6-.6h-.4l-.5.4a1.5 1.5 0 0 1 0 .2v.1l-.1.1c1 1.8 2.4 3.2 4.2 4.2.6.3 1.1.7 1.5 1.2 1.9 2.3 4.1 4 6.8 5.3.8.3 1.6.7 2.3 1.2 1 .4 1.7.9 2.4 1.6A45.5 45.5 0 0 1 103 78a114 114 0 0 1 2.9 3v.7c1.1 1.5 2.3 3 3.3 4.6a205 205 0 0 0 9.4 12.8v.1a22.6 22.6 0 0 0 1 1.2l.3.2a31.3 31.3 0 0 0 6.2 6.3 38.6 38.6 0 0 0 7.3 3.9c1.1.3 2.1.8 3 1.4a168.3 168.3 0 0 0 3.8 2.1h.9l1-.5a5.9 5.9 0 0 0 1.8-1.3l.3-.4a12 12 0 0 0 .5-.7 37.5 37.5 0 0 1 2-5.1 61.3 61.3 0 0 0 .7-5l.2-.4c.3-1.8.3-3.6-.1-5.4-.3-1-.8-2-1.6-3-1-1.2-2.2-2.3-3.6-3.3-1.3-.9-2.4-2-3.2-3.5a8.7 8.7 0 0 0-3-3.3 41.3 41.3 0 0 0-8.5-2.6c-1.7-.3-3.3-.9-4.7-1.7l-.2-.3-.1-.2a4.2 4.2 0 0 1-.8-.7 88 88 0 0 1-9.5-6.5c-2.5-2-4-4.4-4.4-7.4-.5-2.9-.6-5.9-.1-8.8a15 15 0 0 0-.2-5.6 10.5 10.5 0 0 0-.3-2l-1 3.4a12 12 0 0 1-1.6 3.3c-.2.3-.5.4-.8.5-1.2-.2-2.1-.8-2.9-1.7l-.4-.5a34 34 0 0 0-3.8-2.6Zm-16 4.5Zm30 5.7-1.3-.4a18.4 18.4 0 0 0 1 6.5 26.9 26.9 0 0 0 2.3 3 171.4 171.4 0 0 0 12.1 8.5l.1.2a214 214 0 0 0 6.3 1.6l-.1-.4v-.4l-.4-1-2.1-6a92.2 92.2 0 0 0-3-6.1c-1.7-2-3.7-3.5-6-4.4a27.3 27.3 0 0 1-8.8-1Z"/><path fill="#000" d="m182.6 207.8 1.4.2 1.4.3 2.5.1h2.9l2.8-.1h1.4l1.5-.1 2.9-.1h2.9c1.3-.1 2.6.2 3.9.7l2.8 1.2c.7.3 1.3.4 2 .4h2.8l2.6-.1 1.5-.2 1.4-.1c.8 0 1.7-.2 2.5-.5l1.4-.4 1.5-.4c1.2-.3 2.5-.4 3.7-.3l3 .3 2.6.2h1.5l1.4.1 3 .3 1.5.1 1.5.2h5.3l2.4-.4 1.4-.4 1.5-.3c1.2-.3 2.4-.5 3.6-.4l1.5.2h1.4l3.1.5 1.5.2 1.4.3 2.6.3h1.4l1.4.1 2.4-.1 1.4-.3 1.4-.2c1.3-.3 2.7-.2 4 .1l1.4.4 1.4.4a4 4 0 0 0 1.8 0l1.5-.2 1.4-.3c1-.1 1.8-.3 2.7-.6l1.5-.3 1.4-.4c1.3-.4 2.7-.4 4-.1l1.4.3 1.5.3c.7.1 1.4.2 2 0h1.5l1.4-.3a10 10 0 0 1 3.8.3l3 .8c.5.2 1 .2 1.6 0l1.4-.3 1.4-.3c1.2-.3 2.3-.4 3.5-.4h11.3l1.1.1 1 .1a21 21 0 0 1 1.8.3l.7.4c.2.2.9.8.9 2v1l-.5.5c-.4.7-1.2 1.1-2 1.1h-6.1l.6-.6h-8.8c-.8 0-1.5.1-2.3.3l-1.5.4-1.4.3c-1.4.3-2.7.3-4.1 0l-1.4-.5-1.5-.3a5 5 0 0 0-1.9-.2l-1.4.2-1.5.1c-1.2.2-2.4.1-3.6-.1l-1.5-.3-1.4-.3h-1.8l-1.4.4-1.4.4-3 .6-1.5.3-1.4.3a9 9 0 0 1-4-.2l-2.9-.7c-.6-.2-1.2-.2-1.8-.1l-1.4.3-1.5.2c-1.1.2-2.3.3-3.4.2h-1.5l-1.4-.1c-1 0-2.1-.2-3.2-.4l-2.9-.5c-.8-.2-1.7-.3-2.6-.3l-1.4-.2h-1.5c-.6-.1-1.3 0-2 .1l-1.5.4-1.4.3c-1.1.3-2.2.4-3.3.5l-1.5.1H242.3l-1.5-.2-1.4-.2a35 35 0 0 0-2.7-.2h-1.4l-1.5-.1-3-.2-1.4-.1-1.5-.2c-.6 0-1.3 0-2 .2l-1.4.4-1.4.4-3.3.6-1.4.1-1.5.2-3 .1h-3c-1.3 0-2.6-.3-3.8-.8l-1.5-.6-1.4-.6c-.6-.3-1.3-.4-1.8-.4h-2.9l-2.8.2h-2.9l-3 .2H188a19 19 0 0 1-3.3-.2l-1.5-.2-1.4-.3c-.5 0-1 0-1.6.3l-1.4.5-1.5.6a7 7 0 0 1-4.4.3l-1.4-.4-1.5-.4c-.5-.2-1.1-.2-1.7 0l-1.4.2-1.5.3c-1.3.3-2.6.3-4 0l-2.8-.8-2.4-.4h-2.9c-.5-.1-1.1 0-1.8.3l-1.4.5-1.4.7c-1.6.6-3.1.7-4.7.1l-1.4-.5-1.5-.4a4 4 0 0 0-1.7-.3l-1.5.2-1.4.2c-1.1.1-2.2.2-3.3.1h-1.4l-1.5-.1H128l-1.5.2-1.4.2-2.9.3-1.4.2-1.4.2c-1.1.2-2.2.2-3.3.2h-1.4l-1.5-.1c-1.3 0-2.5-.3-3.7-.8l-1.4-.5-1.5-.6a2 2 0 0 0-1.3 0l-1.5.3-1.4.3a9 9 0 0 1-4 .2l-2.8-.5c-.7-.2-1.4-.2-2.1-.1l-1.4.2-1.5.2-3.2.2h-2.9l-2.6.1-1.4.2-1.5.1-2.9.3-1.4.1-1.4.2c-1.2 0-2.5 0-3.6-.3l-3-.6-2.6-.4-1.4-.1-1.4-.2a7 7 0 0 0-2.2 0l-1.4.4-1.4.2-3.2.5-1.4.1-1.4.2a19 19 0 0 1-3.3 0l-1.5-.2H44l-3.2-.5-2.9-.6h-1.8l-1.5.3-1.4.3c-1.2.2-2.5.3-3.7.1l-1.4-.1-1.5-.2-2.6-.2h-2.8l-3-.1-1.5-.1-1.4-.1h-2.4l-1.4.2-1.5.2c-1 .2-2.6.3-4.5.3l-2.8.1h-.2a2.5 2.5 0 1 1 0-5h2.9l4-.3 1.4-.2 1.4-.2c1.1-.2 2.3-.2 3.4-.1l2.9.2h2.7l1.5.1H24l3.1.2 1.5.2 1.4.2 2-.1 1.5-.3 1.5-.3c1.2-.3 2.6-.3 3.8 0l1.5.3 1.4.3 2.6.4h1.4l1.5.2h2.4l1.5-.2h1.4l2.6-.5 1.4-.3 1.5-.2a12 12 0 0 1 3.6-.2l1.4.2 1.5.1 3.1.5 1.4.4 1.5.2c.7.2 1.4.2 2.1.2l1.5-.1 4.2-.4 1.5-.2 1.4-.1 3.1-.2h2.9c.9 0 1.7 0 2.6-.2l1.4-.2 1.4-.2c1.3-.1 2.5 0 3.7.2l1.4.2 1.5.3a4 4 0 0 0 1.8 0l1.4-.5 1.4-.3a7 7 0 0 1 4.4.2l3 1.2c.6.2 1.3.4 2 .4h1.4l1.5.1 2.4-.1 1.5-.2 1.4-.2 2.9-.4 1.4-.1 1.5-.2c1-.1 2.2-.2 3.3-.1h1.4l1.4.1h2.5l1.4-.2 1.4-.2a9 9 0 0 1 4 .4l3 1h1l3-1.3c1.2-.5 2.5-.8 3.9-.7h1.4l1.4.1c1.2.1 2.3.3 3.4.6l2.9.7c.6.1 1.1.2 1.7 0l1.5-.3 1.4-.3c1.4-.3 2.7-.2 4 .1l1.5.4 1.4.4h1.3l1.5-.6 1.4-.6a8 8 0 0 1 4.2-.5Z"/></svg>