<svg xmlns="http://www.w3.org/2000/svg" width="134" height="100" fill="none" viewBox="0 0 134 100"><g clip-path="url(#a)"><rect width="134" height="100" fill="#eee" rx="15"/><mask id="b" width="65" height="26" x="12" y="18" fill="#000" maskUnits="userSpaceOnUse"><path fill="#fff" d="M12 18h65v26H12z"/><path d="M19.8 36.4q-1.4 0-2.7-.5-.3.4-.9.4-.4 0-1-.4-.3-.3-.3-.9V22.1q0-.7.4-1.3t1.1-.7q1.1 0 1.1 1.2V26q.7-.5 1.4-.6.6-.2 1.3-.2 2.4 0 3.8 1.7 1.5 1.6 1.4 3.9 0 2.4-1.6 4a5 5 0 0 1-4 1.6m.4-8.7L19 28q-.7.3-1.5 1v4.2q1.4.6 2.3.6 1.4 0 2.1-.8a3 3 0 0 0 .9-2.2q0-1.3-.7-2.2t-1.9-.9m9.4-3.8q-.6 0-1.1-.5t-.5-1 .5-1 1.1-.5 1.1.4.5 1-.5 1.1-1.1.5m.9 7.4V35q0 .6-.4 1-.3.3-1 .3t-1-.4q-.4-.3-.4-1V29l.2-2.2q0-.6.4-1 .4-.3 1-.4.6 0 1 .4t.4 1l-.1 2.2zm7.2 5.3q-2.2 0-3.7-1.2-1.5-1.4-1.6-3.5 0-2.1 1.4-4.2 1.7-2.4 3.8-2.4 1 0 2.5.5 1.6.7 1.7 1.6 0 .6-.4 1-.3.3-1 .3-.4 0-1-.4t-1.8-.5q-.7 0-1.7 1.5-.8 1.5-.8 2.6 0 1 .7 1.6a3 3 0 0 0 2 .6q.6 0 1.6-.5l1.2-.5q.6 0 1 .4.4.3.4.9 0 .8-1.8 1.5-1.5.7-2.5.7m11-.1q-2.2 0-3.9-1.2t-1.6-3.6a7 7 0 0 1 1.3-4.3q1.5-2 4-2 1.8 0 3 .6 1.5.8 1.5 2.3 0 1.1-1.3 2l-2.2 1.2L46 33q.6.5 1.2.7.7.3 1.6.3 1.4 0 2.3-.5t1.3-.5q1 0 1 1 0 1.1-1.6 1.9-1.5.6-3 .6m-.2-8.6q-.9 0-1.6.6-.6.6-1 1.9l4.4-2.1q-.7-.4-1.8-.4M60 36.6q-.8 0-1.8-.2v4.1q0 .6-.4 1-.4.3-1 .4-.6 0-1-.4t-.4-1L55.2 29l-.2-2q0-.8.4-1.4.4-.7 1.2-.7.6 0 1 .4.3.3.3 1a6 6 0 0 1 2.7-.7q2.4 0 3.4 2 .8 1.4.8 3.8 0 2.2-1.2 3.6-1.5 1.5-3.7 1.6m.7-8.4-1.3.4q-.6.2-1.3.8l.1 4.2 1.8.3q1.1 0 1.6-.7t.5-1.8v-2q-.4-1-1.4-1.1m12.8.4q-.9 0-1.2-.8h-.8q-2.4 0-2.4.6 0 .3 1.4 1 2.1.9 2.7 1.5 1.5 1 1.5 2.4 0 1.7-1.6 2.6-1.4.7-3.2.7a7 7 0 0 1-2.5-.4q-1.5-.6-1.5-1.7 0-1 1.2-1l1.4.3 1.3.3q2 0 2-.8 0-.5-1.3-1.2l-2.7-1.3q-1.5-1-1.4-2.4 0-2 2.1-2.8 1.3-.3 3.9-.4 1 0 1.4.3.7.4.7 1.3 0 1.8-1 1.8"/></mask><path fill="#000" d="M19.8 36.4q-1.4 0-2.7-.5-.3.4-.9.4-.4 0-1-.4-.3-.3-.3-.9V22.1q0-.7.4-1.3t1.1-.7q1.1 0 1.1 1.2V26q.7-.5 1.4-.6.6-.2 1.3-.2 2.4 0 3.8 1.7 1.5 1.6 1.4 3.9 0 2.4-1.6 4a5 5 0 0 1-4 1.6m.4-8.7L19 28q-.7.3-1.5 1v4.2q1.4.6 2.3.6 1.4 0 2.1-.8a3 3 0 0 0 .9-2.2q0-1.3-.7-2.2t-1.9-.9m9.4-3.8q-.6 0-1.1-.5t-.5-1 .5-1 1.1-.5 1.1.4.5 1-.5 1.1-1.1.5m.9 7.4V35q0 .6-.4 1-.3.3-1 .3t-1-.4q-.4-.3-.4-1V29l.2-2.2q0-.6.4-1 .4-.3 1-.4.6 0 1 .4t.4 1l-.1 2.2zm7.2 5.3q-2.2 0-3.7-1.2-1.5-1.4-1.6-3.5 0-2.1 1.4-4.2 1.7-2.4 3.8-2.4 1 0 2.5.5 1.6.7 1.7 1.6 0 .6-.4 1-.3.3-1 .3-.4 0-1-.4t-1.8-.5q-.7 0-1.7 1.5-.8 1.5-.8 2.6 0 1 .7 1.6a3 3 0 0 0 2 .6q.6 0 1.6-.5l1.2-.5q.6 0 1 .4.4.3.4.9 0 .8-1.8 1.5-1.5.7-2.5.7m11-.1q-2.2 0-3.9-1.2t-1.6-3.6a7 7 0 0 1 1.3-4.3q1.5-2 4-2 1.8 0 3 .6 1.5.8 1.5 2.3 0 1.1-1.3 2l-2.2 1.2L46 33q.6.5 1.2.7.7.3 1.6.3 1.4 0 2.3-.5t1.3-.5q1 0 1 1 0 1.1-1.6 1.9-1.5.6-3 .6m-.2-8.6q-.9 0-1.6.6-.6.6-1 1.9l4.4-2.1q-.7-.4-1.8-.4M60 36.6q-.8 0-1.8-.2v4.1q0 .6-.4 1-.4.3-1 .4-.6 0-1-.4t-.4-1L55.2 29l-.2-2q0-.8.4-1.4.4-.7 1.2-.7.6 0 1 .4.3.3.3 1a6 6 0 0 1 2.7-.7q2.4 0 3.4 2 .8 1.4.8 3.8 0 2.2-1.2 3.6-1.5 1.5-3.7 1.6m.7-8.4-1.3.4q-.6.2-1.3.8l.1 4.2 1.8.3q1.1 0 1.6-.7t.5-1.8v-2q-.4-1-1.4-1.1m12.8.4q-.9 0-1.2-.8h-.8q-2.4 0-2.4.6 0 .3 1.4 1 2.1.9 2.7 1.5 1.5 1 1.5 2.4 0 1.7-1.6 2.6-1.4.7-3.2.7a7 7 0 0 1-2.5-.4q-1.5-.6-1.5-1.7 0-1 1.2-1l1.4.3 1.3.3q2 0 2-.8 0-.5-1.3-1.2l-2.7-1.3q-1.5-1-1.4-2.4 0-2 2.1-2.8 1.3-.3 3.9-.4 1 0 1.4.3.7.4.7 1.3 0 1.8-1 1.8"/><path fill="#e7e7e7" d="m17.1 36 .8-2-1.3-.4-.9 1zm-1.8 0-1.4 1.4zm-.4-1.7 2 .1zm.4-13.5 1.7 1zm2.2.9-2-.3zm0 4.3h-2v3.4l3-1.7zm1.4-.6.5 1.9zm5.1 1.5 1.6-1.3zm-.2 7.9-1.4-1.4zM19 28l-.8-1.8zm-1.5 1-1.2-1.7-.8.6v1zm0 4.2h-2v1.4l1.2.5zm4.4-.2 1.5 1.4zm.2-4.4 1.6-1.2zm-2.3 7.8v-2q-1 0-2-.3l-.7 1.8-.7 1.9q1.6.6 3.4.6zm-2.7-.5-1.4-1.4.5-.2v4q1.4 0 2.4-1zm-.9.4v-2h.2l.2.2-1.3 1.4-1.4 1.5q1 .9 2.3.9zm-1-.4 1.5-1.4.2.5h-4q0 1.5 1 2.4zM15 35h2v-.6l-2-.1-2-.1v.8zm0-.7 2 .1v-.9h-4v.7zm0-.8h2V22.1h-4v11.4zm0-11.4h2l.1-.3-1.7-1-1.7-1q-.7 1-.6 2.3zm.4-1.3 1.7 1-.2.2-.4.1v-4q-2 .1-2.9 1.7zm1.1-.7v2h-.2l-.4-.3-.3-.5h4q.1-1.1-.8-2.3a3 3 0 0 0-2.3-.9zm1.1 1.2h-2v.1l2 .3 2 .3v-.7zm0 .4-2-.2v.6h4v-.2zm0 .4h-2V26h4V22zm0 3.9 1 1.7 1-.4-.6-2-.6-1.9-1.8.8zm1.4-.6.6 1.9.7-.1v-4q-1 0-2 .3zm1.3-.2v2q1.4 0 2.3 1l1.5-1.3 1.6-1.3a7 7 0 0 0-5.4-2.4zm3.8 1.7-1.5 1.3q.9 1 .9 2.6h4q0-3-1.8-5.2zm1.4 3.9h-2q0 1.5-1 2.6l1.4 1.4 1.5 1.4a8 8 0 0 0 2.1-5.4zm-1.6 4-1.4-1.4q-1 1-2.6 1v4q3.2 0 5.5-2.2zm-3.6-7v-2a5 5 0 0 0-2 .4L19 28l.8 1.9.3-.1h.1zM19 28l-.8-1.8-1.9 1.1 1.2 1.6 1.1 1.7 1.2-.7zm-1.5 1h-2v4.2h4V29zm0 4.2-.8 1.9q1.5.6 3.1.7v-4q-.4.1-1.6-.4zm2.3.6v2q2.1 0 3.6-1.4L21.9 33l-1.4-1.4q-.2.2-.7.2zM22 33l1.5 1.4a5 5 0 0 0 1.4-3.6h-4q0 .5-.3.8zm.9-2.2h2q0-1.9-1.1-3.4L22 28.6 20.5 30q.2.1.3.9zm-.7-2.2 1.5-1.2q-1.2-1.7-3.4-1.7v4h.2l.1.2zm6.4-5.2L27 25zm0-2L27 19.7zm2.2 0-1.4 1.4zm0 2L29.4 22zm-.2 9.7h-2zM30 36l1.4 1.5zm-2 0-1.4 1.5zm-.4-2.8h-2zm.6-7.3 1.3 1.5zm2 0-1.4 1.4zm-.7-2v-2l.1.1h.1l-1.3 1.5L27 25q1.1 1 2.5 1zm-1.1-.4 1.3-1.4.2.1v.3h-4q0 1.6 1.1 2.5zm-.5-1h2v.2l-.2.2-1.3-1.5-1.4-1.5q-1 1-1 2.6zm.5-1 1.3 1.4h-.2v-4q-1.5 0-2.5 1zm1.1-.5v2h-.1l-.2-.1 1.4-1.5 1.4-1.4q-1.1-1-2.5-1zm1.1.4-1.3 1.5-.2-.2v-.2h4q0-1.5-1.1-2.6zm.5 1h-2v-.2l.2-.1 1.3 1.4 1.4 1.5q1-1 1-2.5zm-.5 1.1L29.3 22l.2-.1h.1v4q1.5 0 2.5-1zm-.2 7.9h-2v1.9h2l2-.1v-1.8zm0 1.8h-2V35h4v-2zm0 1.9h-2v-.3l.2-.2 1.4 1.4 1.4 1.5q1-1 1-2.4zm-.4 1-1.3-1.5.2-.2h.1v4q1.3 0 2.4-1zm-1 .3v-2h.2l.2.2-1.4 1.4-1.3 1.5q1 .9 2.3.9zm-1-.4 1.4-1.4.2.5h-4q0 1.4 1 2.4zm-.4-1h2v-1.8h-4V35zm0-1.8h2v-1.8h-4v1.9zm0-1.8h2v-2.1l-2-.2-2-.1v2.4zm0-2.3 2 .2.2-2.4h-4l-.1 2zm.2-2.2h2v.2l-.3.3-1.3-1.5-1.4-1.4q-1 1-1 2.4zm.4-1 1.4 1.4-.3.2h-.1v-4q-1.4 0-2.4 1zm1-.4v2H29l-.2-.2 1.4-1.4 1.4-1.4q-1.1-1-2.4-1zm1 .4-1.4 1.5-.2-.5h4q0-1.5-1-2.4zm.4 1h-2l-.1 2 2 .2 2 .2v-2.4zm-.1 2.2-2-.1-.1 2.4h4v-2.1zm3.4 6.4-1.3 1.5zm-.2-7.7 1.7 1.1zm6.3-1.9.7-1.8zm1.3 2.5L40 27zm-2 0-1.2 1.5zm-3.5 1-1.7-1zm0 4.2L37 32zm5.7 0L40 34.9zm-1.4 2.4.9 1.9zm-2.5.7v-2q-1.5 0-2.4-.8L34 35.4l-1.3 1.5a8 8 0 0 0 5 1.7zM34 35.4l1.3-1.6q-.9-.6-.9-2h-4q0 3 2.3 5.1zm-1.6-3.5h2q0-1.4 1.1-3l-1.7-1.2-1.6-1a10 10 0 0 0-1.8 5.2zm1.4-4.2 1.7 1.1c.9-1.3 1.6-1.5 2.1-1.5v-4c-2.3 0-4.1 1.4-5.4 3.3zm3.8-2.4v2q.6-.1 1.7.4l.8-1.9.7-1.8q-1.6-.7-3.2-.7zm2.5.5-.8 1.9.7.3-.1-.1-.1-.5h4q-.1-1.4-1.1-2.3-.8-.7-1.9-1.1zm1.7 1.6h-2l.1-.4 1.5 1.3 1.5 1.4q.9-1 .9-2.3zm-.4 1L40 27l.6-.3v4q1.5 0 2.4-1zm-1 .3v-2h.4-.2l-1.2 1.6-1.2 1.6q.8.7 2.3.8zm-1-.4 1.3-1.6q-1.5-1-3.1-.9v4h.6zm-1.8-.5v-2q-1.5.1-2.1.9l-1.3 1.6 1.7 1 1.7 1 .5-.6-.5.1zm-1.7 1.5-1.7-1a7 7 0 0 0-1.1 3.6h4q-.1-.3.5-1.6zm-.8 2.6h-2a4 4 0 0 0 1.5 3.2l1.2-1.6 1.3-1.5v-.1zm.7 1.6-1.2 1.6q1.4 1 3.1 1v-4l-.6-.1zm2 .6v2q1.3 0 2.5-.7l-1-1.8-.8-1.8-.6.3h-.2zm1.6-.5 1 1.8.6-.4h-.4v-4q-.8.1-1.2.4-.4 0-1 .4zm1.2-.5v2h-.2l-.3-.2 1.5-1.4L43 32q-1-1-2.4-1zm1 .4L40 34.9v-.2l-.1-.3h4q0-1.5-1-2.3zm.4.9h-2v-.6l.2-.1-.3.1-.5.3.8 1.8.9 1.9 1.8-1.2a3 3 0 0 0 1-2.2zm-1.8 1.5-.8-1.8q-1.4.5-1.7.5v4q1.6 0 3.4-.8zm4.3-8.5-1.6-1.2zm7-1.4.8-1.8zm.2 4.3-1.1-1.6zm-2.2 1.2.8 1.8zM46 33l-.8-1.9-2.5 1.2 1.9 2zm5 .5-1-1.8zm.8 2.4.8 1.8zm-6-5.5-1.9-.6-1.3 4.2 4-1.8zm2.3-1 .8 1.9zm2.2-1.1 1 1.7 2.8-1.8-2.8-1.7zm-1.5 8.2v-2q-2 0-2.8-.8l-1.2 1.6-1.2 1.6q2.3 1.6 5.2 1.6zm-4-1.2 1.2-1.6q-.8-.5-.8-2h-4q0 3.3 2.4 5.2zm-1.6-3.6h2a5 5 0 0 1 .9-3l-1.6-1.3-1.6-1.2a9 9 0 0 0-1.7 5.5zm1.3-4.3 1.6 1.2q.8-1.2 2.4-1.1v-4q-3.5 0-5.6 2.7zm4-2v2q1.5 0 2 .4l1-1.8.8-1.8a9 9 0 0 0-3.8-.7zm3 .6-1 1.8.4.3v.2h4a4 4 0 0 0-2.6-4zm1.5 2.3h-2l-.4.4 1.1 1.6L53 32q1.8-1.2 2-3.7zm-1.3 2-1.1-1.6-2 1 .9 1.8.8 1.8 2.6-1.4zm-2.2 1.2-.9-1.9-3.4 1.5.8 1.9.9 1.8 3.4-1.5zM46 33l-1.4 1.3a5 5 0 0 0 2 1.3l.6-1.9.7-1.8-.4-.3zm1.2.7-.7 2q1 .3 2.3.3v-4l-.9-.1zm1.6.3v2q1.8 0 3.3-.8l-1-1.7-1-1.8q-.4.3-1.3.3zm2.3-.5 1 1.7.4-.2v-4q-1.5.1-2.4.7zm1.3-.5v2l-.6-.3-.3-.7h4a3 3 0 0 0-.9-2.2 3 3 0 0 0-2.2-.8zm1 1h-2l.1-.2v-.1.1l-.5.2.8 1.9.8 1.8c1.4-.6 2.9-1.7 2.9-3.7zm-1.6 1.9L51 34q-1 .5-2.2.5v4q2 0 3.8-.8zm-3.3-8v-2q-1.6 0-3 1.2l1.4 1.4 1.4 1.5.2-.1zm-1.6.6-1.4-1.4q-1 1.1-1.6 2.7l2 .6 1.9.6.5-1zm-1 1.9.7 1.8 2.3-1-.8-1.8-.8-1.8-2.2 1zm2.2-1 .8 1.8 2.5-1.2-1.1-1.7-1.1-1.7-2 1zm2.2-1.1 1-1.8Q50 26 48.5 26v4l.8.1zm7.8 8 .4-1.9-2.4-.5v2.5zm0 4.2h-2zm-2.8-3.8h-2zm0-4h2zm-.1-3.7-2 .1zm.2-3.4-1.7-1zm2.5.6 2 .2v-.2zm0 .1-2-.2-.4 3.9 3.4-2zm1.4-.6.5 2zm4.7 1.8 1.8-1zm-.4 7.5L62 33.7zm-4.3-6.4.9 1.8zm-1.3.8L56.7 28l-.7.7v1zm.1 4.2h-2v1.5l1.4.4zm3.4-.4L60 32zm.4-3.7 2-.5zm-2 7.1v-2q-.6 0-1.4-.2l-.4 2-.4 2 2.2.2zm-1.8-.2h-2v4.1h4v-4.1zm0 4.1h-2v-.2l.2-.3 1.4 1.5 1.4 1.4q1-1 1-2.4zm-.4 1L56.3 40l.2-.1h.2v4q1.4 0 2.4-1zm-1 .4v-2h.2l.2.1-1.4 1.5-1.4 1.4q1 1 2.4 1zm-1-.4 1.4-1.5.2.5h-4q0 1.4 1 2.4zm-.4-1h2v-3.7h-4v3.7zm0-3.8h2v-4h-4v4zm0-4h2l-.1-3.8-2 .1-2 .1.1 3.7zm-.1-3.7 2-.1-.2-2v-.6l-.3-.4s-.4-.7-1.3-.9a2 2 0 0 0-2 1l-.3.5v.5h4v.2l-.1.3-.3.6a2 2 0 0 1-2 .9c-1-.2-1.3-.9-1.3-1l-.2-.3-.1-.3v-.1l.1 1.8zm-.2-2h2l.1-.4-1.7-1-1.7-1Q53 25.6 53 27zm.4-1.4 1.7 1-.2.2-.3.1v-4q-2 0-2.9 1.6zm1.2-.7v2h-.2l-.3-.2 1.4-1.4 1.4-1.4q-1-1-2.3-1zm1 .4L56 26.7l-.1-.2v-.3h4q0-1.4-1-2.3zm.3 1-2-.3v.1zl2 .2zm0 0 1 1.8.9-.4-.5-2-.6-1.9q-.9.2-1.8.8zm1.4-.6.5 2 .8-.1v-4l-1.9.2zm1.3-.1v2q.7 0 1 .2.4.1.7.7l1.7-1 1.8-1q-.7-1.3-2.2-2.2a6 6 0 0 0-3-.7zm3.4 2-1.7.9q.5.9.5 2.9h4a10 10 0 0 0-1-4.8zm.8 3.8h-2q0 1.5-.8 2.3l1.6 1.3 1.5 1.3a7 7 0 0 0 1.7-5zM63.6 35 62 33.7q-.5.9-2 .9v4q3 0 5-2.3zm-3-6.7v-2a5 5 0 0 0-2.1.4l.8 1.9.9 1.8.4-.1zm-1.3.3-.8-1.9q-1 .5-1.8 1.2l1.3 1.5 1.4 1.5.8-.5zm-1.3.8-2 .2.1 4h4v-4.3zm.1 4.2-.6 2 2.4.3v-4q-.5 0-1.1-.2zm1.8.3v2q2 0 3.2-1.5l-1.6-1.2L60 32l.1-.1zm1.6-.7 1.6 1.2q1-1.5 1-3h-4l-.1.4v.2zm.5-1.8h2L64 29l-2 .5-2 .4v.1l.1.3v1zm0-2 1.9-.4q-.3-1-1-1.9-1-.9-2.3-.9v4h-.2L60 30q-.3-.3-.1 0zm10.2-1.6 2-.5-.3-1.3-1.3-.2zm-1.8 1.6.9-1.8zm2.7 1.5L72 32.5zm-.1 5 1 1.7zm-5.7.3-.7 1.9zm1-2.4-.6 2zm3.5-.5h2zM70.4 32l-.8 1.9zm-2.7-1.3-1.2 1.7zm.7-5.2-.6-1.9zm5.3-.1-.9 1.8zm-.3 3.1v-2l.4.2q.4.3.4.5l-2 .5-2 .4a3 3 0 0 0 1.3 1.8q1 .7 2 .6zm-1.2-.8.4-2h-1.2v4h.5zm-.8 0v-2l-2.3.1-1.2.6q-.9.6-1 1.9h4a2 2 0 0 1-.5 1.2l-.3.2h1.3zm-2.4.6h-2q.1 1 .5 1.4l.7.7 1.4.8.8-1.9.9-1.8-.8-.4.1.1q.3.3.4 1zm1.4 1-.8 1.8 2.4 1.3 1.1-1.6 1.2-1.7-3-1.6zm2.7 1.5L72 32.5q.8.7.6.8h4q-.2-2.7-2.3-4zm1.5 2.4h-2l-.1.4q0 .2-.5.4l1 1.8 1 1.7q1-.6 2-1.8.6-1.2.6-2.5zM73 35.9 72 34q-.7.5-2.2.5v4q2.3 0 4.2-1zm-3.2.7v-2l-1.8-.3-.7 1.9-.7 1.9q1.4.5 3.2.5zm-2.5-.4.7-1.9-.3-.1v.1l.1.2h-4c0 2 1.5 3 2.8 3.6zm-1.5-1.7h2v.3l-.4.5q-.5.3-.4.2v-4q-1-.1-2.2.7a3 3 0 0 0-1 2.3zm1.2-1v2h.2l.5.2.7-1.9.6-1.9q-1-.4-2-.4zm1.4.3-.7 2 2 .3v-4h-.1l-.6-.2zm1.3.3v2q1.2 0 2.3-.3l1.2-.9q.6-.6.6-1.6h-4q0-.6.3-1l.4-.3h-.1l-.7.1zm2-.8h2c0-1.1-.7-1.8-1-2.1l-1.5-.9-.8 1.8-.8 1.9.6.3-.2-.2-.2-.8zM70.5 32l.8-1.8-2.4-1.1-1.1 1.6-1.1 1.7q.8.6 3 1.5zm-2.7-1.3 1.1-1.6q-.6-.6-.5-.8h-4q.1 2.6 2.2 4zm-1.4-2.4h2v-.5l.7-.4-.6-1.9-.6-1.9q-1.5.5-2.6 1.7-1 1.5-1 3zm2.1-2.8.6 2q.8-.4 3.3-.4v-4a15 15 0 0 0-4.5.5zm3.9-.4v2h.5l1-1.7.9-1.8q-1.3-.6-2.4-.5zm1.4.3-.9 1.8-.2-.2-.1-.2q0-.2 0-.1h4q0-2-1.8-3zm.7 1.3h-2v.4q0 .2 0 0l.4-.4.6-.2v4a3 3 0 0 0 2.5-1.5q.6-1.2.5-2.3z" mask="url(#b)"/><path fill="#ccc" d="m136 86-.2-.1-.4-.3-.2-.3-.7-.3h-.2l-.4-.2v.3l.1.2v.1l.6.7 1.8 1.9-.1.2v.1h-.1l-.3.2h-.2L134 87l.8.8.5.7-.1.3v.2h-.4l-.1.1h-.1l-.2-.1-2.2-3v-.4h-.1v.4l.3.6.2.6-.1.2.2.4.6 1q.6.6.8 1.4l-.1.2-.1.2h-.6l-.2-.2v-.1l-1.4-2.1.3 1.4q.2.8-.4 1.5l-.6.5-.7.3v.2l.1.1.1.2.2.2.1.1h.1l.3.2q.2-.1.3-.2l.4-.3h.4l.1.2h.1v.2q0 .3.2.2h.2l.3.1h.1l.1-.1h.1v-.3l.1-.2.2-.2h.6l.1.1v.1h.4l.2-.1.2-.2.1-.1.1-.1V92h.1l.1-.2.1-.2.4-.4.2-.6.3-.6.2-.4V87l-.2-.2zm-27.4 7.5.3-.4.2-.4-.1-.2-2 1.3-2 1.2h.1l.1.1h.2q.7 0 1.5-.4zm-.2-5.1zl-.2.1v.8l.1.1.1.1v.2a5 5 0 0 1-2.5 3.2l-2.8 1.4.3.2h.3q.8-.2 1.5-.6l3.3-2v-.3l.1-.4V91l.1-.1.2-.1v-1zm-1.8.5v.1a2 2 0 0 1-1.2 1q-.6 0-1.1.4l-.2.1h-.4l-.6-.1h-.9l-.5.1-.6.3V92l.2.9v.3l.2.2.1.1h.2l2.5-1 2.3-1.4q.5-.4.6-1l.1-.2v-.1l-.2-.1v-.9h-.5"/><path fill="#fff" d="m101 11.2-2.2-.4q-2 .4-3.7 1.2a9 9 0 0 0-3.3 2.4l-.6.9a8 8 0 0 0-1 3.7 13 13 0 0 0 1 6l.1.3v.2l.1.2h.1v.2l.1.2.2.2.2.4.1.4v.1l.1.1v.1l.7 2v1l-.3 2-.3.7v.6q0 .8.2 1.5l.6 1.8.7 1.8q.4.9 1 1.5l.3.6-.1.3h-.6l-.7-.2-.2-.1-2.4-1.3a8 8 0 0 0-2.4-1l-2.2-.6h-1.1l-.9.2-.6.2.2.3v.4l-2 1.8a10 10 0 0 0-1.4 7.5l.7 2.6q.4 1.4 1.2 2.5l.9 1.6 1 .7 1 1 .3.5 1.2-1-.2-.2a8 8 0 0 1-.5-2.7v-4l.4-3.9.8-2.5q.4-1.2 1.2-2.3.7-.8 1.6-1.1.5-.1.8.1v.3l-.1.3q-1.2.1-1.8 1.2-.4.5-.6 1-.5 1.1-.8 2.3a23 23 0 0 0-.6 9.4l.4 1.6 2.5-2.2q0-.4-.3-.8l-.4-1v-.2l.3-.2h.3q0-.6.3-1.1l.3-1.4.1-.3.2-.1.2-.1h.2l.2.1.1.1v.2q0 .7-.3 1.6l-.4 1.4-.1.1-.2.2a15 15 0 0 1 1.6 8.7q3-.8 6-.8 1.5 0 2 1.4.3 1.2-.6 2-.6.6-1.1.7.8.9 1 2.4l-.3 1.5-.3.2h-2.3q1 .6 1.5 2 .4 1.1-.2 2.2-.6 1-2 .8h-.3q-1-1-2.3-1.8l-2.8-2.7-.5 1.5q3 1.6 5.1 4.1a30 30 0 0 1 4.6 6.9h.2l.1.1-.1-1-.1-1.5v-.3l.2-.1.2-.1h.2l.3.2v.1l.2 1.6.2 1.3.4-.1 1-.3.7-.1.5-.1h.3l.3.1h.4l.6.2h.2l-.1-1.7-.5-1.1v-.5l-2.8.1h-.5l-1 .1h-.5v.1h-.1v.1h-.1l-.2.1h-.2l-.1-.1h-.1V78l-.1-.1v-.1l-.1-4.8v-.5l.1-.2.5-.4-.3-.3v-.8l.2-1.8v-.4l.1-.2.2-.4.2-.2h.4l1.3-1 1.9-.6 1.2-.7.6-.4-4 1.2-1 .2-.2-.1-.1-.2-.1-.2v-2.7l.6-3.4h.1L98 59h-.3a8 8 0 0 1-4.2-3.6Q92 53 92 50.2q0-.8.3-1.4l.2-.2v-.2l2.3-3.1q.8-1.5 1.4-3.3 0-.4.3-.8 1.5-.6 3.4-.4l4 .6.1.2v.5l-.2.1h-.6v.1l.7 1.3 2.2 5q.8 2 .8 4a11 11 0 0 1-.3 3.4l-.6.9-.3.4-.3.5-.3.4-1 1 .6-.5.7-.4h.3l.2.1v.2l.2.2.7 2.3-.3-2.7v-.1l.1-.1.4-.1.5-.1h.3l.8-.2h1.4l.3.3.3.3.2.3v.4h.1v.2h.1q.5 1.3.4 2.5l-.2 2.7q0 .4-.3.6h-2.6l-.5-.2-.4-.5v-.1l-.4.7h-.2l.1.1v.1l.4.3h.6l.2-.1.3-.1h.5l2.2.6h.1v.7l-.1.8-.1 1.7v.8h.8l.2.1.1.1v.1l.7 3.1q0-.8.5-1.6 0-.2.3-.5.4-.4 1.2-.4t1 .4l3.8 3.5 1.8 1.8v.2a14 14 0 0 0 3 2.7l1.2 1q.8.5 1.2 1.4v.5l-.6.3q-1-.2-1.9-.8L113.4 75q1.5 2.1 3.6 3.6l7 5.5-.1.2h-.1l1.7.8 1.8.7h1l1-.2 1.3-.7-.1-.7q0-.8.5-1.3h.1v-.4l.4-.5 1-.3h.2l.5-.6.4-.1.3-.1h.3l.3.1h.3l1 .6.5.3.4.5h.1l.1.2h.1v-1l-.3-.2-.6-.3h-.4l-.5-.1h-.2l-1.4-.5-1.7 1q-1 .5-2 .3l-.2-.1-.1-.2a17 17 0 0 1-2.5-3.4h-.2a8 8 0 0 1-2.7-1.8l-1.2-.8-.3-.2-2-1.8q0-.3-.4-.6l-.8-1.3-1.3-2-.5.1h-1a4 4 0 0 1-2-.6q-.7-.3-1-.8h-.1l-.8-.8-.2-.2-.7-.8h-.1l-.1-.1-.1-.2v-.3l.4-3.8v-4l-.4.1a5 5 0 0 1-4.3-3.6 10 10 0 0 1-.4-3.4l.4-4.6-.1-.2v-.2q.3-1.5.4-2.9 0-1.2.9-2.2l.6-.3 1.2.4q.5 0 1 .5l.3.2v.3l1.3 1.9 1 1.6q.3.2.2.5v.2l-.4.2h-.1a26 26 0 0 1 1.2 6.4h.2q.4.1.5.6l1 1.4.5-3.4a15 15 0 0 0 0-4.7l-.6-1.8q-.2-1-.7-1.7l-.3-.5-1.3-1.6-1.6-1.2-.8-.4-.2-.1-.4-.2-2.4-.5-.4-.1h-.4l-.4-.2h-1.2l-.2-.2-.1-.1V38a8 8 0 0 1-2.6-3.2l-.2-.2V34q0-1 .3-1.7.1-.5.6-.8l-2.2-.5a19 19 0 0 1-5.4-2.4v-.3l.1-.2h.1l.1-.1h.2l.3.1.2.2a29 29 0 0 0 5.8 2.2l2.5.3h.2l.3-.1.2-.1.2-.2.1-.1.2-.2v-1.6q.8-2.3.6-4.4 0-.6-.2-1.3l-.4-1q-.3-1 .1-2l.2-.6v-1h-.1l-.6.4-.3.4v.1h-.1l-.3.1h-.1l-.1-.1-.1-.1v-.4q.1-.3.5-.6l.7-.5.2-.1h.3a19 19 0 0 0-1.4-3.7q-1.3-1.9-3.6-2.4zm-8.8 10.1q-.3 0-.4.3l-.2.3-.1.2q-.2 1 .3 2 .6.8 1.7 1.1l.6.2h.2v-.6l.1-.1.1-.1h.6v.1l.1.8q0 .5-.5.6l-.6.1-1.5-.5h-.3l-.3-.2H92l-.4-.4-.2-.3-.2-.3a3 3 0 0 1 0-3.3q.3-.5.8-.7.6 0 1.1.3l.4.3.2.2.4.7.2.4v.2H94v.1H94v.1h-.4L93 22q-.2-.4-.6-.7zm13.4-1.6.4.6q.3-.7.8-.1v.3q-.2.3-.5.2l.7 1.2.1.5q.3 1.2-1 1.4h-1.7v-.1h-.1v-.2h-.1v-.3l.1-.1q.4-.2.8-.2h1.2v-.7l-1.4-2v-.3l.1-.1h.1v-.1h.4m-4.5-1.3v-.5a2 2 0 0 1 1.5-.3 5 5 0 0 1 1.9.8l.1.2v.3h-.1v.1h-.2v.1h-.3l-1-.6q-.6-.2-1 0l-.5.1h-.2v-.1zm1.1 2.2v-.1l.1-.3V20q.3-.7.7-.1v.8q-.5.4-.8 0m1.8 6h-.1v-.1h-.1v-.6h.1l1.6-.3h1.4l.3.2.1.2v.3h-.1v.1h-.2v.1h-.3zm11.4 48.8 2.8 1.4 5.5 3.7h.1l.2.2 1.4.8-2.7-2.2-1.9-2q-.7-1-1.8-1.9l-2-1.7-2.2-2.1q-.6 0-1 .5l-.2.9v.8q.6 1.2 1.8 1.6M94 68l-.9-.2-.2-.1h-.6l-.8.1-.2.1h-.1v.1l.1.1v.3h.1v.1q.8 1 2 1.7l2.5 2h.9l.2-.1V72a3 3 0 0 0 0-1.8l-.1-.4-1.2-.9-1.2-.7zm-2-1.6-.7-.5L91 67q.8-.3 1.7-.3zM106.6 78l-.1.1v.1l-.1.2h-.3l.3 1.3.1 1.5h.1l1.2.7 1.5.9-.1-2.3-.3-2.6-.9.2h-1.4m-3.6-5.6h-2v.1l-.3.1-.5.3v.1l-.1.1v4h.3l1-.2q.8 0 1.6 0h2l.3-.1.4-.1.2-.6.1-1.3q0-.6-.2-1.3l-.5-1.6h-1.1zm-4.6-5.1a4 4 0 0 0-.7-2.5v-.1h-.1l-1-.3h-.4l-.3-.1a7 7 0 0 0-3.2.4q-.5.3-1 .3h-.2v.2h.5l1.6.8 1.7.7 1.4.4zm9.1 4.4h-.1q-.2.4-.1 1v1l.1.7v.8l.2.6v.5l.1.3v.2h.8l.3-.2q.3-1 .2-2v-3h-1.5m-.4-2-.1.5v.5h.2zm-.8-3.5V66l-5.6 3-.1.7-.1 1 1-.1h1.3q.6-.2 1.2-.2h2v-1l.3-2V67l.1-.3v-.3zm3.2.3-.7-.1-.4-.1h-.2l-.3.1v1l.1.2v2h.8l.6.2h.3q.3-.4.2-1.3l.2-1.4v-.5zm-28-26.2a6 6 0 0 1 1.8-1.7 9 9 0 0 0-3.7 4 10 10 0 0 0-.8 2.9 28 28 0 0 0-.2 5.4l.2.2v.5l-.2.2h-.3q0 1.2-.4 2.2a9 9 0 0 0-.3 3.6l.5 2q.3 1.2 1 2.2l.2 1v.1l-.2.1-.1.1h-.5l-.1-.1v-.1l-.1-.1-.3-.6a23 23 0 0 0 2.7 11.2q1.4 2.6 4.1 3.8l1.8.9.8-.2h.9l.4-.1h.3l.2.1q1.8 0 3.2.8 1.6.9 2.8 2.5l.4.8q.8 1.7 1.2 3.4.8-.3 1.4-.9a5 5 0 0 1 2-.9l1.5-.2h2l1.2.5 1 .5h.3l.5.4.5.1v-.2h.2l.1-.2h.3l-.1-.3-.3-.3-.1-.2-1-.8-.8-.3a7 7 0 0 0-3.6 0l-1.2.3h-.9l-.3-.2-.2-.1-.1-.1a29 29 0 0 1-2.9-5l-1-1.3-1.4-1.4q0 .5-.4.5h-.2l.2 1.8-.1.4-.3.2q-.2.2-.5 0-.6-1-1.4-1.7l-1.5-1.3-.7-.6-.2-.2-1.9-1.1-3-1.9-1.8-1.7q-.7-.8-.8-2a13 13 0 0 1 0-3.6l.2-2-.2-6.9q0-.3.3-.4h.5l-.8-1.3a20 20 0 0 1-1.5-5v-2.7a11 11 0 0 1 1.8-5M109 58.8h-.7l-.9.2.5 2.1.3 2.3v.6h1.5l.4.2q0-1 .2-2 0-.9-.2-1.8l-.1-.6v-.2l-.2-.3-.2-.4h-.6m-7 2.3-.6.2-.3 4.1 2-.7 2.7-.6h.4l-1-4.5q-.7.6-1.7.8zm-.6-1.1.1.1v.1h.1l.7-.4zm-9 2.9-.4-.4-.2 1.5 1.5-.6zm1.9-1.6H94l-.7.2-.8.2 1.5.8 1.6.7 1.2.1h.7l1.2-.5.2-.2.3-.3.1-.2v-.5l-.2-.2-.2-.3h-.1l-.2-.2h-1.4l-1.5.2zm-2-23.8-.7-2.5q-.3-1 0-1.9l-2.2 1.5a11 11 0 0 0-2.4 2.6l.7.2 1.2.3q1.3.4 2.4 1l2.2 1.3q-.7-1.2-1.2-2.5m17.3 4.6-.5-.2q-.6 1-.5 2.2v1l-.8 6q0 2.2.9 4.1.6 1.2 1.8 1.8l.8.2h.8l.6-.7.6-.7q.8-2.3.3-4.5l-1-5.2v-.2h.1l.1-.1-1.4-2-.8-1.4-.2-.1-.2-.1zm-7.2.3.1-.1h.1v-.1l-5-.4-.4.1a15 15 0 0 1-2.6 5.3l-1 1.2-.6.7v.1A8 8 0 0 0 98 58l1.3.4 1.1.4h.4l.3.1h.5l1.7-.6a3 3 0 0 0 1.4-1.2l.8-1.3.2-.2v-.4l.1-.1v-.2l.1-2.5v-.2q0-2.4-1.2-4.6z"/><path fill="#000" d="m103.9 26.5.1.1h.2l1-.1 2-.2.1-.1v-.3l-.1-.1-.3-.1h-1.4l-1.6.2h-.1v.6zm-1.7-6v.1q.3.5.7.1l.1-.2V20q-.4-.6-.7.1v.5m-1.1-2.2v.1h.1v.1h.2v.1h.1l.4-.1q.6-.2 1 0l1.2.6h.3V19h.1v-.1l.1-.1v-.3l-.1-.1a4 4 0 0 0-2-.8q-.7 0-1.3.3l-.1.2zm5 2-.6-.6h-.4l-.2.2v.3l.1.2 1.3 2v.5H105l-.7.2h-.1v.1l-.1.1v.3h.1v.1h.1l.1.1h1.6q1.3-.2 1-1.4l-.1-.5-.7-1.2q.3 0 .5-.2v-.3q-.5-.6-.8 0m-14.3 1.3q.1-.3.4-.3h.2q.5.4.6.8l.5.7h.5v-.1h.1V22l-.6-.7-.1-.2-.4-.3q-.5-.4-1-.3t-1 .7a3 3 0 0 0 .3 3.6q0 .3.2.3l.5.4.3.1h.3l1.5.6h.6q.5-.3.5-.7v-.8H95l-.1-.1h-.5l-.1.1v.6h-.9q-1-.4-1.7-1.2-.6-1-.3-2v-.2zM99.4 10h-.8l-2 .6q-2.2.6-3.9 1.7-1.7 1.3-2.6 3.2a9 9 0 0 0-.7 4.3v1A11 11 0 0 0 90 25l.1.3.2.3v.2l.3.5 1 2.3h.1l.2.5q.2.8 0 1.5v1.3q-.5 0-.8.3-1.5 1-2.9 2.2l-2.5 2.8q-2-.2-3.6 1a9 9 0 0 0-3.3 3.7q-1.4 2.7-1.5 5.7 0 1.8.3 3.5l-.2.1v.1l-.2.3q0 .7-.3 1.3-.7 2.6-.3 5.1l.8 3.3h-.2l-.2.2-.2.9v1.1A31 31 0 0 0 80 74a11 11 0 0 0 5 4.5l-.4.2q-2 .3-3.7 2l-1 1.2q-1 2.4-1.7 5l-.1.1-.1.1v.5h-3.7v.5H74l-.5.4q-.6.8-.5 2 .2.8.8 1.4l-.2.1v.2l-.1.1v.2l.1.2.3.1h.3l.2-.2.3-.2h.2l3.8-.3v.9q0 .7.6 1.6.4.9 1 1.3l.6.9q.6 1 1.7 1.6l-.1.1v.3l1 2.9H116l-.4-1.3a34 34 0 0 1-3.6-9.7l1-.2 3.9-1.6 1.3-.4q.6 0 1.2-.4.7-.2 1.5-.2t1.4.2l2.8.8q2.1.8 4.2.5 0 .3.2.6l.4.6.5.4.4.1h1.2l.6.2.6.1h.3l.4-.2.4-.3h.7l1-.7q.4-.3.6-.8l.3-.3v-2.3l-.2.4-.3.6-.2.6-.1.1v.1l-.2.1v.1l-.1.1v.1l-.2.1v.1l-.2.2-.3.3h-.1l-.4.2-.1-.2h-.1v-.1h-.6l-.2.2v.3l-.1.1-.1.1h-.1l-.1.1h-.3l-.2-.1q-.2 0-.1-.1v-.2l-.2-.2h-.1l-.1-.1h-.3l-.2.1-.2.2-.2.1h-.5v-.1h-.1v-.1l-.2-.2-.1-.1v-.3h-.1V89l.7-.3.6-.5q.6-.7.4-1.5l-.2-1.3 1.4 2.2h.1l.1.1h.4l.1-.1.1-.1v-.2q0-.8-.7-1.5l-.8-1.3v-.8l-.4-.6v-.4.2l.1.2.3.5a13 13 0 0 0 2.2 2.6h.3l.1-.2.1-.2v-.2l-.4-.7-.8-.9 1.6 1.5h.2l.3-.1v-.1l.1-.2V85q0-.3-.3-.5l-1.4-1.3-.6-.7V82l-.1-.2h.1l.3.1h.2l.7.4.2.3.4.2.2.2v.1h.2l.1.3.7.7v-1.6l-.2-.1-.1-.1-.4-.5-.5-.3-.3-.2-.7-.3h-.3l-.3-.1-.3-.1h-.3l-.4.2-.2.2-.1.1-.1.2-.1.1h-.2l-1 .3-.4.5v.4q-.7.6-.6 1.3l.1.7-.6.3-1.4.5-.3.1h-1l-1.8-.7-1.7-.7v-.1l.1-.1v-.4l-1.6-1.3q-2.6-2.1-5.3-3.9-2.1-1.5-3.6-3.6l.4.4q1 .8 2.3 1.2 1.2.5 2.3 1.4l1.4 1 4.4 2.8q.9.6 1.9.8.3 0 .5-.3t0-.5q-.3-.8-1-1.4l-3-2.3-1.2-1.4-.1-.2-1.8-1.8q-1-.7-1.9-1.7l-1.8-1.8q-.5-.4-1.1-.4t-1.2.4q-.2.3-.3.5l-.5 1.6v.2l-.8-3.5h-.2l-.2-.1h-.1q-.2 0-.4 0h-.1V69l.3-2.5V66l-.1-.1v-.1q-.2 0-.3-.2l-1-.2-1.5-.2h-.3l-.2.1h-.8l-.1-.2h-.1V65q.4-.4.5-.7v.1l.2.3.2.2.5.1h1.4l.4.2h.7l.1-.1.3-.6.2-2.7a6 6 0 0 0-.4-2.5v-.1h-.1V59l-.1-.1v-.2l-.2-.3-.3-.3-.3-.2h-.4l-2.6.2-.4.1-.1.1v.8l-.4-.4-.4-.3h-.3q-.4 0-.7.3l-.6.4a5 5 0 0 0 1.4-1.5l.5-.7.1-.2.2-.2.3-.5.2-.5q.3-1.5.1-3a14 14 0 0 0-.8-3.8 42 42 0 0 0-2.8-6.4h-.1.6l.1-.2.2-.2v-.2q0-.2-.2-.3l-.8-.2-3.2-.4q-1.8-.3-3.4.4l-.3.8q-.5 1.8-1.4 3.3l-2.3 3.3v.1l-.2.1q-.3.6-.3 1.4 0 2.8 1.5 5.2t4.2 3.6h.3l2.9 1h-.1l-.2.8-.4 5.3v.2l.2.2h.2l1-.1 4-1.2-.6.4-1.2.7h-.3l-1.6.7-1.2 1h-.1l-.2-.1-.4.1v.1l-.2.4-.1.2v1.4l-.1 1.7.2.2q-.3 0-.5.3v.4l-.1.4v3.3l.3 1.9h.2l.1.1h.1l.3-.2h.5l1-.3.5.1a9 9 0 0 0 2.9-.1l-.1.2v.3l.5 1.1.1 1.7h-.2L104 81l-.3-.1h-.5l-.6.1h-.2l-1 .4h-.3l-.2-1.2-.1-1.6-.2-.2-.2-.1h-.4l-.2.2v.3l.1 1.6.2 1-.1-.1h-.1l-.2-.1h-.1l-.3-.6a30 30 0 0 0-4.2-6.3 19 19 0 0 0-5-4.2v-.4l.4-.8.6.7 2.2 1.8 2.3 1.7h.3q1.4.4 2-.7.6-1 .2-2.3-.5-1.2-1.5-2l1.1.2h1.1l.1-.1.3-.2q.3-.7.2-1.5 0-1.5-1-2.4.7-.1 1.2-.7.9-.8.6-2-.5-1.5-2-1.4-3 0-6 .8v-1q.3-4.1-1.6-7.7l.2-.2v-.1l.5-1.4.3-1.7v-.2h-.3l-.2-.1H91l-.2.2v.3l-.4 1.4-.3 1h-.2l-.1.1-.2.2v.2q0 .5.3 1l.3.8-.4.4-.4.4-1.7 1.3-.4-1.5a37 37 0 0 1 .6-9.4 14 14 0 0 1 1.4-3.3q.6-1 1.8-1.2.1 0 .2-.3l-.1-.3q-.3-.3-.8-.1-1 .3-1.6 1.1-.8 1-1.2 2.3l-.8 2.5a13 13 0 0 0-.4 4v4q0 1.2.5 2.6l.2.1-1.2 1.1-.4-.5-1-1-1-.7q.1 0 0-.1l-.8-1.5q-.8-1.2-1.2-2.5l-.7-2.6a12 12 0 0 1 .4-5.2l1-2.3 1-1 1-1.2-.2-.3.6-.2.3-.1.6-.1h1.1l2.2.6a8 8 0 0 1 2.4 1l2.4 1.3.2.1.7.2h.6l.1-.3q0-.3-.2-.6-.7-.7-1-1.5l-1.4-3.6-.2-1.5V33q0-.3-.2-.3l.5-.3v-.1h.1l.3-2-.1-1-.7-2.1V27l-.4-.7-.1-.2V26l-.1-.2-.1-.2-.1-.2-.1-.2-.2-.2q-.4-1-.6-2a13 13 0 0 1-.3-4.1 8 8 0 0 1 1.6-4.6Q93.2 13 95 12q1.8-.7 3.7-1.2l3.5.6q2.3.4 3.6 2.4l.1.2.3.5 1 3h-.5l-.7.6-.5.6v.4l.1.1h.1v.1h.4v-.1l.1-.1.3-.4.5-.4h.2v1q0 .3-.2.6-.4 1 0 2l.3 1q.3.7.2 1.3a15 15 0 0 1-.5 4.5V30l-.3.3v.1l-.3.2h-.3l-.2.1-.2.1h-.1l-4.2-.7a29 29 0 0 1-4.7-2.1h-.1v.1h-.1v.1l-.1.3v.1l.3.3 1.2.6a19 19 0 0 0 6.1 2l-.6.8a3 3 0 0 0-.3 1.7v.7h.2v.1a8 8 0 0 0 2.6 3.2v.3l.3.2h1.3l.3.1h.4l.4.2 2.4.5.4.2h.2l.8.5 1.6 1.2 1.6 2.1q.5.7.7 1.6t.6 2v1q.3 1.8 0 3.6-.1 1.8-.6 3.4l-.9-1.4q0-.4-.5-.6h-.2v-.5q-.3-3-1.2-5.9h.3l.2-.4-.1-.5-1.1-1.6-1.6-2.4q-.5-.4-1-.5t-1.2-.4l-.6.3q-.9 1-.9 2.2 0 1.5-.5 3l.1.1.1.2h.1q-.5 2.2-.5 4.6-.1 1.8.4 3.4a5 5 0 0 0 4.3 3.6h.5v.3L112 62l-.4 3.7v.6h.3l.7 1h.2q.3.6.8.9l1 .8a4 4 0 0 0 2 .6l1.7.1q.8.8 1.2 1.8l.8 1.3.4.6.4.4 1.9 1.6 1.2.8.4.4a8 8 0 0 0 2.2 1.4h.4a17 17 0 0 0 2.7 3.7q1 .2 2-.3l2-1 .5.3.5.1h.3l.5.2h.5l.8.5v-1.2h-.2q-.5-.3-1-.3h-.1l-.4-.1h-.3l-1.5-.5-1.2.6-1.2.6-.8.2a13 13 0 0 1-2.4-3.9l-.2-.3q-1.4-3.3-3-6.5-.3-.7-.9-1l-2.6-1.9v-1.8a27 27 0 0 0-1.4-5.6q-.9-2.5-2.4-4.6l.6-2.7q.8-4.3-.9-8.4a10 10 0 0 0-5-5.4l-.8-.3-1.7-.5-2-.4h-.8q0-.3-.3-.4-.8-.6-1.4-1.4t-.9-1.7v-.3h-.1v-.1q0-.6.2-1.1l.3-.3 1-.5h.7v-.1q.8-.2 1.2-.8.7-1 .4-2.4l.5-2.3q.2-.7.1-1.7a8 8 0 0 0-.8-3.1v-.7q.4-.6.5-1.4v-1.7h-.1V17l-1-3.1v-.4h-.1l-.1-.1h-.1l-.1-.1-.5-.7a5 5 0 0 0-2.6-1.7zm3 32.3v.3l.2 1 2 4q1 2.2 1.2 4.6v2.9h-.1v.3l-.1.2-1 1.6q-.6.8-1.4 1l-1.6.7h-.9l-.4-.1-1.1-.4-1.3-.4-1-.4q-2-1.2-3-3.4-1.3-2.4-.8-5V49l.6-.7.9-1.2q.8-1 1.5-2.4t1-2.9l.5-.1a24 24 0 0 1 4.9.5m6.7-.4q.2 0 .5.2h.6l.2.2.2.1q.3.8.8 1.3l1.4 2.1h-.1l-.2.4.2 1 1 4.1a10 10 0 0 1-.4 4.6l-.6.6-.5.6h-.1l-.8.1q-.5 0-.8-.2-1.2-.6-1.8-1.8-1-2-.9-4l.9-6V45l-.1-.1V44q0-1.2.5-2.2M91.6 35a17 17 0 0 0 1.9 5l-2.2-1.3q-1-.6-2.4-1l-2-.5q.3 0 .4-.3a11 11 0 0 1 2-2.3l2.2-1.5zm-2.3 20.7v-.2l1.2-1a16 16 0 0 1 .6 7.2 33 33 0 0 1-2 8.1l-.1-.3a23 23 0 0 1-.3-5.2L89 60v-2zm-.9.5v.3l-.3 4.3-.3 4.1.4 5-.5-.5-1-1v-5l-.3-4.6-.1-.3-.1-.3.8-.8zm-3 2.2q0 .4.3.7l.1.8V64l.1 2.3v2.2h-1l-2 .4-.4-.6q-.4-.7-.4-1.6v-2.9q.3-1 .2-1.9a51 51 0 0 0-.2-6.4v-.3l1.8 1.3a4 4 0 0 1 1.4 1.9m8.6 3 .3-.1 1.4-.2 1.5-.2h1.4l.3.2h.1l.1.3.1.2.1.1v.3l-.1.3-.3.3-.1.2-.7.4-.6.2-.3-.1h-.7l-1-.2-1.5-.6-1.5-.8h.2q.3-.2.6-.2zm-1.9 1.1.3.4.9.5-1.5.6zm9.4-2.5h-.1l1-.2-.8.4zm0 1.3.6-.2 1.4-.7q1-.2 1.7-.8l.2.7.8 3.7h-.2l-.1.1h-.2l-.7.2-3.9 1.1v-.5zm6.9-2.5h1.1l.1.1.2.4.1.3.1.2.1.6q.3.9.2 1.9l-.2 1.9-.4-.1q-.4 0-.8 0l-.7-.1v-.6l-.3-2.3-.5-2.1h.5l.4-.2m-25-20.2q-1 .6-1.8 1.7a11 11 0 0 0-1.8 7.6q.1 1.4.6 2.6a20 20 0 0 0 1.7 3.8h-.5q-.3 0-.3.4-.2.6 0 1V57l.2 4.6q0 1.2-.2 2.2a12 12 0 0 0 0 3.6 4 4 0 0 0 1.1 2.3l1.6 1.3.2.1.1.1a27 27 0 0 0 4.5 2.8l.2.2 1.4 1.3h.1l.7.6q.8.7 1.3 1.6l.1.2h.5l.3-.3v-2.2q.5 0 .5-.5v-.2l2.4 3 3.2 5 .3.3h.8q.8 0 1.3-.4h.3l1-.1h1.4l.9.2q.5 0 .8.3l.1.1.4.4q.2 0 .5.3l.5.8h-.2l-.2.1-.1.1v.2h-.5v-.1l-.2-.1-.4-.2h-.4l-.1-.2-.8-.4-1.2-.4h-.3l-1.7-.1-1.8.3q-1 .3-1.7.8l-1.4 1a17 17 0 0 0-1.6-4.3q-1.2-1.6-2.8-2.5t-3.1-.8h-.4l-.2-.1h-.4l-1 .1q-.3 0-.7.2h-.1l-1.7-.9q-2.7-1.2-4.1-3.8A23 23 0 0 1 78 62.2l.5.9h.6l.1-.2v-.1q0-.6-.2-1-.5-1-.9-2.2l-.5-2.8q0-1.6.3-2.8l.4-2.1h.2l.1-.1.1-.1.1-.2V51l-.2-.2v-.1q-.1-2.7.2-5.3.2-1.5.8-2.9a9 9 0 0 1 3.8-4m.3 31 2.7-.3.8.8 3 2.4 1.5 1.2.9.8q-.2.3-.1.7v1l-.7-.7-1.3-1.3-1.7-1.3-1.8-1-1.7-1zm-1 11.9h.4l.5-.7q.5-.9 1.3-1.2H87q1.3.3 2.3 1l.4.5q.6.4 1 1.2l1.5 2.5.2.8.2.5.3.7.4 1.4q.2.7.1 1.5v.8q0 1.5-1 2.8a23 23 0 0 1-3.1 3.7q-1.3 1.3-3.1 1.3l-1.4-.1-1.1-.6H83l-2.5-3a4 4 0 0 1-1-2.5h1.1q2.3 0 4.6-.4v.1l.2.2h.5l.7-.8q.8-.9.6-2 0-1.2-1-1.7l-.1-.2h-.9l-.4.1-.3.1h-5.8l.1-.1.2-.5 1.5-4.6a8 8 0 0 1 2.1-2l-.4.6v.2l.1.2h.1zm-6.4 7h8.8l.5-.1h.1q.3 0 .5.4h.1l.2.6v.2q-.2.6-.6 1h-.1q-1.7.4-3.5.4h-6 .1a4 4 0 0 0-.1-2.3l-.1-.2zm-1.2.5h.2v.1l.1.3.1.8q0 .4-.2.7l-.5.2h-.3l-.2-.3-.3-.6q0-.6.2-.7h.1l.5-.5h.2m33.7-22.6.7.1h.6v.6l-.2 1.4q0 .8-.2 1.4h-.3l-1.3-.3v-1l-.1-.7v-1.5h.2l.2-.1zm-2.5-.3v.4h.1v.5l-.1.4v.6l-.1.4-.2 1v1.1h-.5l-2.7.2h-2.4v-.3l.2-.6V69q.2 0 .3-.2l.3-.2.4-.4 1-.5zm0 5.7v-.1m.7-1.7v-.3l.3.9h-.3zm.4 1.6h.4l.2-.1h1.1v2.9l-.3 2.2-.3.1h-.8v-.5l-.1-.5q0-.3-.2-.6V75l-.1-1.3v-2.1m3.6-1h.1l.4 2.6q.2 1 .8 2 1.8 2.4 4.4 4.2 3.2 2.2 6.1 4.6a12 12 0 0 0-5 0 18 18 0 0 0-5.4 3l-.4.1h-.3l-1-.7q-.3-.4-.8-.6h-.2l-.5-1.2-.2-.5-.3-.4h-.1l-.2-.2q-.1-.3 0-.1l-.2-.2h.2l.1.2.3.2.3.1.1.1.4.2h.1l.2-.2q.4-.7.4-1.5V80l-.6-2.7.1-.2.1-.2.2-5.8h.2l.3-.2v-.2zM98.3 66v1.2H98l-1.2-.2-1.4-.4-.4-.2-1.3-.5A4 4 0 0 1 92 65h-.4v.1-.1l1.1-.4a7 7 0 0 1 3.2-.4h.6l1.2.4.2.4zm3.5 6.4a6 6 0 0 0 2.4-.5h.7l.4-.1.2.6.5 2.3v1.3l-.3.6h-.4l-.3.2H101l-.7.3h-.1l-.1-.1v-.3l-.1-3.7v-.2h.1l.2-.1.6-.3zm4.7 5.5h.5q.5.3 1 .1l.9-.2v.2l.4 4.7-.5-.3-1-.6-1.1-.7h-.2v-1.5l-.4-1.2h.1l.2-.1v-.2zM91.4 66l.7.5.7.3q-.8 0-1.7.3 0-.6.3-1.1m2.3 2 .4.1.5.2 1.2.7 1.3 1.3.2.8q0 .6-.2 1l-.2.2H96l-.5-.5-2-1.5q-1.2-.7-2-1.7v-.3h-.1V68h-.1l.1-.1h.5l.5-.2h.8zm-5 10.9h.2l.6.2h.5l1 .1a7 7 0 0 1 4.3 4.8q1.2 4 .5 8a13 13 0 0 1-3.7 7.2l-.5.3h-.4q-2 .1-3.7-.2l.6-.2.8-.4q2.4-2 4.2-4.4 1.2-1.5 1.3-3.6V89q-.6-3.8-2.6-7a7 7 0 0 0-4-3zm4-5.4-1.4-1.2zM97 88.7l-.1-2.3q.7-.3 1.2-.7l1.8-1h.2l.3-.2q1.2-.2 2.3-.1.8 0 1.4.3l.2.2 1.3.8-.3.3h-.2l-.8.3q-.3 0-.5.3h-.2l-.3-.1h-.7l-1 .1h-.3l-.8.4-1 .6h-.3zm9.5-2.6V86h.6l-.1.7.2.3-.1.3-.6 1-.2.1-2 1.2a10 10 0 0 1-2.7 1.1h-.2q0-.2-.2-.3V90l-.1-1-.1-1.1.6-.3h.3l.2-.1h1l.9.1h.2q.5-.4 1.1-.6a2 2 0 0 0 1.2-.9m1.8-.7.4 1.4v1l-.1.2-.1.2v.4l-.1.2-.3.2-1 .7-2 1.2q-.7.4-1.5.6h-.3l-.3-.2.9-.4 1.9-1a5 5 0 0 0 2.6-3.1v-.3l-.2-.1-.2-.1.1-.8zm1.6 1.8.8.6q.6.4 1.3.4 1.6-.5 2.8-1.5a7 7 0 0 1 6.4-1.8q3 .6 5.7 1.9h.5a5 5 0 0 0 2-.3l1.5-.7.2 1v.4q0 .2-.2.3l-.3.4h-.2l-.6.3h-.2l-.1.2H128l-.8-.2h-.6l-.1-.1h-.4l-.1-.1h-.2l-1.6-.6-1.4-.2h-.1q-.7-.3-1.3-.3-2.5 0-4.8 1a33 33 0 0 1-5.2 1.8h-.4v-.1l-.4-.3-.3-.2h-.5v.1-2m-1.3 3.3-.2.3-1.6 1-1.5.5h-.1l-.1-.1h-.2l4-2.4h.1zm6-35.6.1-.9 1.3 1.9.2.3.7.7h.2a24 24 0 0 1 2.7 7.8l-.4.1h-.3l-.3.2h-.4l-.5.1-.6-3.3-1.2-4-1.1-2.6q-.2-.3-.5-.3m.6 3a22 22 0 0 1 1.5 5l.1 1 .2 1.3v.2l-.2.1-.9.6-2 1.4-.3-.2-.3-.4-1-.9.2-.7q.3-1.8.3-3.8v-3.7q.7-.4 1.1-1.3l.4-.8.1.4.1.3zm11.3 19h-.1l-1.7-1.2-.2-.1-.2-.2-.6-.4-.2-.1-2-1.7-1.4-2-1.2-1.9.4-.3 1-1q1 1 2.2 1.5.5.2.6.5a25 25 0 0 1 3.4 7M120 65.6l.1 1.7-.6.6a3 3 0 0 1-1.9 1l.1-.5q.3-1 .3-2.2V66h.6v-.1l.7-.1zm-2.8.8-.1 1-.3 1.5h-.7l-1.4-.7.2-.2h.1l.4-.3zm-1.5 9.2-.3-.1q-1.2-.4-1.8-1.6V73l.3-.9q.3-.5.9-.5l.4.3 1.9 1.8q.8 1 2 1.7l1.7 1.9a11 11 0 0 0 2.6 2.5l1.8 1.5-1.4-.7v-.1h-.1l-1-.8-5.4-3.4zm-37-7.8"/><path fill="#ca6a40" d="m117 67.3.1-1-.5.4-1.9 1.4a4 4 0 0 0 2.1.8v-.1zm3-1.8-1.3.4h-.6l-.1.1v.1q0 1.2-.3 2.2v.6l.4-.1q.8-.3 1.4-1l.6-.6.1-.1q0-.7-.2-1.6m-4.7-7.5zl-.8-1.7-.1-.5-.4.8q-.4.9-1 1.3l-.4 7.5q0 .4-.2.7.2 0 .3.2l1.4 1.4v-.1l.2-.2 2.8-2.1-.2-1.3-.1-1a15 15 0 0 0-1-3.5zm-.5-4q0 .4-.2 1 .3-.1.5.2v.2l.2.4 1.6 4L118 65h.6l.3-.1.3-.2h.3l.4-.1a24 24 0 0 0-2.7-7.8h-.2l-.7-.7-.2-.3zm-26.4 2.5v-.3l-1.7 1.4-.5.6.1.3v.3h.1l.1.3q.3 1 .2 2v7.2l1.5 1.6-.2-1.6.1-7.5zm.8-1v.4l-.1 2.1-.1 2.1-.3 5.2a20 20 0 0 0 .4 4.5q1.5-3.9 2-8.1a17 17 0 0 0-.6-7.2l-1.2 1"/><path fill="#e0a192" d="m126.5 77-.7-2-.7-1.9-1.9-3.1q-.2-.3-.6-.5-1.2-.5-2.2-1.5v.1l-1.4 1.2v.1l1.3 1.9 1.7 2.3 2.5 2h.2l.1.1zm-42.8-7.4 3.3 2.3a17 17 0 0 1 5.5 4.3v-1.8l-1.1-1-1.2-.9-1.4-1-2.4-2.2h-.7q-1 0-2 .3m2-10.5-.4-.7V58q-.5-1-1.4-1.6L82 55.2v.4q.3 1 .2 2.1l.1 4.2q0 .9-.2 1.9v2.9a3 3 0 0 0 .8 2.2h.1l1.9-.4h1V62z"/><path fill="#999" d="m110.8 87.8-.8-.6v1.3l-.2.5v.2l.3-.1h.2l.4.2.4.3h.4l.1.1a33 33 0 0 0 5.1-1.8q2.3-1 4.8-1 .6 0 1.3.3h.1l1.4.2q.8.1 1.6.6h.2l.6.1.6.1 1.4.2h.8l.2-.2h.2l.6-.2.2-.1.3-.4.2-.3v-.9l-.2-.5-1.5.7a5 5 0 0 1-2.5.3 27 27 0 0 0-6.7-2q-3-.2-5.4 1.9a7 7 0 0 1-2.8 1.5q-.8 0-1.3-.4M97 86.4l.1 2.3 3.5-1.7.8-.4h.3l1-.2 1 .2h.2l.5-.3 1-.3.3-.4h-.1l-1.4-1-1.4-.2-2.3.1-.6.2q-.8.3-1.7 1-.5.4-1.2.7M75.2 89h-.4l-.2.2-.4.3q-.3.1-.2.7l.3.6q0 0 .2.3h.3l.5-.2.2-.7-.1-1zm1.6-.5h-.6v.2q.5 1.1.2 2.2v.1h5.9a14 14 0 0 0 3.6-.5q.5-.3.5-.9v-.4l-.2-.4-.5-.4H85q-2 .3-4.3.2z"/><path fill="#333" d="M89 78.9h-1.1l.9.4q1.8.8 3 2.6a18 18 0 0 1 2.6 8.7q0 2.1-1.3 3.6-1.9 2.3-4.2 4.4l-.8.4-.6.2a13 13 0 0 0 4.1.2l.6-.4q3-3 3.6-7t-.5-8A7 7 0 0 0 91 79h-.6L90 79h-.5zm-6.2 2.6h-.1l-.2-.1v-.1l-.2-.2v-.3l.4-.5q-.2 0-.5.3a8 8 0 0 0-2 2.3l-1.4 4.6h6.1l.3-.1.2-.1h.7l.2.1v.1q1 .6 1 1.7.2 1.2-.6 2l-1 .8h-.2l-.2-.2a20 20 0 0 1-5.8.3q.3 1.4 1 2.6l2.9 3 .1-.1h.3l1 .6 1.4.1q1.8 0 3-1.3l.4-.3 1-1.2 1.9-2.2q.8-1.2.8-2.8l.1-.8v-1.5l-.8-2.1-.2-.5-.2-.8-.3-.5-.4-.8-2.2-2.9q-1-.7-2.3-1H85a3 3 0 0 0-1.3 1.2l-.5.6h-.3"/><path fill="#d9d9d9" d="M111.1 73.6h-.4v.1l-.1.1-.3.2h-.2l-.3 6v.3q.3 1.3.4 2.6l.1 2.5q0 .8-.4 1.4l-.3.2-.3-.1-.1-.1h-.1l-.7-.3.1.1.2.1.3.4.2.6.4 1h.3l.8.7.9.6h.2l.3.1h.4a18 18 0 0 1 5.9-3.3q2.3-.3 4.4.2-3-2.4-6.1-4.6a17 17 0 0 1-4.4-4.3q-.6-.8-.8-2t-.3-2.5"/><path fill="#fff" d="M14 61.3a8 8 0 0 1 8-8h9a8 8 0 0 1 8 8v9a8 8 0 0 1-8 8h-9a8 8 0 0 1-8-8z"/><path fill="#000" d="M28.8 53.9h-.4l-.3.1-.4.2-.3.2q-.6.4-1.2.4H24l-.4-.1-.8-.2h-.3l-.4-.1H22l-.6.3q-.5.1-.8 0l-.8-.1h-.2l-.3.1-.4.1-.5.3-.4.2-.3.2-.7.4-.3.2-.3.2v.4l-.2.4q0 .6-.3 1l-.2.3-.1.4-.2.4-.2.8-.3.9-.2.3-.2.3.2.3.2.4q.4.6.2 1.4v.4l-.1.4-.2.8-.2.7.2.4.1.4q.4 1 0 1.7l-.2.4-.2.2.2.3.2.4q.3.7.1 1.5v.4l-.2.3.2.3.2.4.4 1v.4l.2.4.3.1.3.2.7.5.3.1.4.2.8 1 .3.3.2.4.4.1.4.1.4.1H23l.4-.2.4-.2 1-.3h.4l.4.2h.4q.2 0 .4 0h1.4l.8-.2q.8 0 1.4.3l.4.2.3.2.2-.1.4-.2q.7-.3 1.3-.2h.4l.4.1h.4l.4-.1h.4l.2-.4.2-.4.5-.9.3-.2.2-.3.4-.5.2-.3.5-.9.2-.3.2-.3.3-.5.2-.4.1-.3-.1-.4-.2-.4-.2-1v-.8q-.2-.8.4-1.4l.2-.4.3-.3-.1-.3-.2-.3v-1.7l.1-.4-.4-.8-.3-1.2v-1.4l-.1-.3V59l-.1-.4v-.4l-.1-.6-.2-.4V57l-.4-.2-.4-.2-.7-.4-.3-.2-.4-.2-.8-.8-.3-.4v-.1h-.3l-.4.1q-.6.3-1.3 0l-.8-.2-.7-.2-.3-.1-.4-.2h-.8M21 52.3l.3-.3.4-.2q.5 0 .9.3l.2.4h.4l.7.2h.8l.5.1h.8l.3-.1.4-.2.3-.2q.6-.4 1.2-.4h.8l1 .1.4.1.4.2.8.2.3.1.4.1h.2l.9-.2h.9q.5.2.8.6l.3.4.2.3.3.3.3.2.3.2.6.3.4.2.4.2q.7.5 1 1.2v.4l.2.4.1 1v.3l.1.4V60l.1.4v1.5l.2.3.3.7q.4.8.3 1.4l-.2.8v.2l.1.4.2.4q.2 1-.3 1.6l-.5.8v1.3l.2.4.2.3q.3.7 0 1.6l-.2.3-.1.4-.5.8-.2.3-.2.3-.4.6-.2.3-.2.3-.5.7-.2.3-.3.2q0 .3-.3.5l-.2.4-.2.4q-.4.7-1.2 1l-.8.1H32l-.3.2-.4.1q-.8.5-1.6 0l-.8-.5-.8.1-.9.1h-1.7l-.8-.2-.4.3-.4.2q-.6.3-1.3.3h-.4l-.4-.1h-1.4q-.6 0-1.1-.2l-.8-.2a2 2 0 0 1-1.1-.9l-.2-.4-.3-.3q0-.2-.2-.3l-.6-.3-.6-.4-.4-.2-.4-.2q-.8-.4-.9-1.3v-.4l-.2-.4-.1-.4-.4-.6q-.5-.7-.2-1.6l.1-.4.1-.4-.2-.3-.2-.4q-.4-1 0-1.7l.2-.4.2-.3-.1-.3-.2-.4a2 2 0 0 1-.2-1.4l.3-.8.1-.6.1-.4v-.4l-.1-.4-.3-.4q-.4-.8 0-1.7l.2-.4.2-.3.2-.5V59l.2-.4q0-.5.3-.8l.3-.7.2-.5v-.4l.1-.4.1-.4.8-1 .4-.1.3-.2.7-.4.3-.2.4-.2.8-.4.3-.2h.4q.6-.4 1.3-.2l.4.1h.1l.2-.2z"/><path stroke="#000" stroke-linecap="round" stroke-width="2" d="M21 70.5c1 3 4.3 5 5.2 3.2 1.6-2.8 5.2-14.6 5.8-16.4"/></g><rect width="130" height="96" x="2" y="2" stroke="#000" stroke-width="4" rx="13"/><defs><clipPath id="a"><rect width="134" height="100" fill="#fff" rx="15"/></clipPath></defs></svg>