<svg xmlns="http://www.w3.org/2000/svg" width="134" height="100" fill="none" viewBox="0 0 134 100"><rect width="130" height="96" x="2" y="2" fill="#eee" rx="13"/><rect width="130" height="96" x="2" y="2" stroke="#000" stroke-width="4" rx="13"/><path fill="#fff" d="m80.24 77.93-.19-.14q-.47 1.24-.65 2.58a85 85 0 0 0-.35 3.23q-.05.48-.15.97l-.09.5-.12.75-.03.15V86l-.02.1-.06.41-.97 6.91q-.44 3.13-1.02 6.22h14.49q-.15-1.5-.21-3-.08-1.97.7-3.72.07-.17.17-.32a5 5 0 0 1-1.66-1.54l-.49-.7A27 27 0 0 1 85.27 81q-.69-.63-1.48-1.1L82.3 79l-.34-.17-.49-.2a6 6 0 0 1-1.22-.7m25.06-.44-.04-.43q-.77.54-1.65.98-.96.45-1.85 1.06-.12.08-.27.14l-.3.25q-.18.15-.39.25l-.2.11-.02.08-.04.15v.05l-.02.07v.05q0 .09-.16.57a40 40 0 0 1-3.15 7.17 24 24 0 0 1-2.61 3.83 2 2 0 0 1-.71.82l.02.06.07.26q.82 1.34.78 2.91a16 16 0 0 1-.58 3.77h13.88q.06-2.61-.66-5.15-.18-.64-.33-1.3-.75-3.42-1.2-7.02a64 64 0 0 1-.47-7.13q0-.78-.1-1.55m-5.42-23.43q0-.03.04-.05-.74-.1-1.44-.28l.29.25q.36.36.7.75a4 4 0 0 1 .98 1.9q.02-.17.06-.32.16-.5.54-.85.13-.1.1-.18l-.03-.03-.01-.01a6 6 0 0 1-.7-.62l-.22-.1-.22-.1-.1-.12v-.04a.4.4 0 0 1 0-.2m7.92-.19-.12-.82q-.2-1.48-.38-2.96-.24.73-.63 1.42-.42.73-1.12 1.18-.64.42-1.34.75-.83.4-1.73.53-.88.13-1.77.1.16.1.28.22a12 12 0 0 0 .76.67l.13.1.04.07.02.07v.08l-.01.04v.04q-.19.32-.47.56-.24.2-.36.5l-.05.1a1 1 0 0 0-.02.28l.05.3v.04l.02.04v.02a6 6 0 0 0 .46.55h.06l.07.01h.09l.14.1.1.14.03.08a4 4 0 0 1-.5 1.55q-.09.16-.12.36-.1.64.1 1.27.08.12.19.23l.14.15.03.04q.57.48.16 1.2-.5.9-.6 1.9-.08.75.27 1.3l.11.1.06.05h.02l.1.05h.07l.12.02.1.05q.06.03.1.09l.03.03q.15.63-.23 1.21-.42.64-.57 1.36l-.16.85a6 6 0 0 1 .45 1.33h.13l.09.02.03.01.07.04.05.06.03.03.03.07v.16l-.02.04q0 .02-.02.04 0 0-.02.03-.06.08-.16.12l-.58.26h-.08l-.07-.01-.27.16q-.37.24-.66.6l-.18.2-.03.07-.05.1-.08.2q0 .87-.16 1.73l-.41 2.1.01.06v.04l.02.04.02.02.03.02.04.02.05.03q1.3.18 2.5-.52l.54-.32a39 39 0 0 1 2.07-1.07l.03-.02a1 1 0 0 1-.13-.54q.01-.34-.07-.7l-.03-.13.04-.14.03-.1.03-.05q.24-2.63-.3-5.26a3 3 0 0 1-.06-1q.27-3.48 1.23-6.84.73-2.56 1.7-5.05.32-.84.38-1.74.04-.08.1-.13M93.53 68.44q.02.27.02.52l.09.26q.86.8 2.07.88.4.02.8.1.88.16 1.75.25h.34l.44-.09.03-.01.04-.03.03-.02.04-.02.01-.02q.4-.95.48-1.98.08-.99 0-1.98-.02-.23-.08-.45-1.2-.4-2.39-.62-1.13-.2-2.28-.32a9 9 0 0 0-1.05-.03l-.15.07-.03.01a5 5 0 0 0-.25 1.73q.01.88.1 1.75m-7.04 2.9h.01l.03.04q.14 1.44.2 2.9.02.27.1.52.41 1.23 1.02 2.4.33.63.42 1.33.16 1.14.4 2.26.44 1.9.99 3.77.54 1.83 1.35 3.56.23.46.42.93l.01.01.03.03.03.04.02.04.01.03.03.03.03.03.03.03q.5-.01 1 .01a17 17 0 0 0 1.47-.02q.5-1.8 1.29-3.52a22 22 0 0 0 1.21-3.33q.35-1.25.2-2.54a5 5 0 0 1 .1-1.6l.27-.91.07-.07.04-.03.13-.03q.47-.84.86-1.74.32-.73.35-1.52.06-1.48.18-2.94a5 5 0 0 1-1 0 55 55 0 0 1-3.4-.68q-1.24-.3-1.42-1.48l-.01.01-.04.02-.66.17q-.07.2-.17.39l-.23.51q.02.8-.63 1.08l-.28.08q-1.32.2-2.67.07a3 3 0 0 0-.85.04 7 7 0 0 1-.94.08m1.55-6.27-1.64.3-.36.08q-.03 0-.05.03l-.04.04-.05.03-.03.04a34 34 0 0 0 .45 4.24q.05.3.04.6l.06.27.09.02.11.01h.17a6 6 0 0 1 1.85-.11 10 10 0 0 0 2.47-.1l.7-2.3a4 4 0 0 0 .14-.56v-.05q.06-.34.04-.7-.03-.98-.24-1.94l-.04-.01-.03-.02-.05-.02-.05-.02-.05-.02-1.42.24a5 5 0 0 1-1.15.06q-.45-.03-.92-.11m5.23-5.76q-.1.7-.09 1.43.03.75.14 1.5.03.14.02.27l.03.1.02.1.03.09a3 3 0 0 0 .31.46l.03.03.14.09a3 3 0 0 0 .52.02 2 2 0 0 1 .64.06h-.01l1.55.22q.6.08 1.23.11l.6.09h.02-.03l.23.04q.18.04.35.04h.39q0-.48-.06-.97a7 7 0 0 1-.04-1.2q-.42-.4-.97-.65-.58-.27-1.18-.5a2 2 0 0 1-.35-.2q-.75-.36-1.57-.53-.78-.18-1.53-.47zm-1.55-.18-.02-.03q-1.28.49-2.53 1.07-1.09.5-2.25.78-.44.1-.84.26.04.63.06 1.32.03.71-.04 1.42-.02.2-.09.37v.14h.23l.33-.05h.06q.14-.06.46-.15a8 8 0 0 1 2.21-.34 33 33 0 0 0 2.65-.1l.13-.06q.22-.76.2-1.56l-.1-1.81q-.06-.24-.16-.47a4 4 0 0 1-.21-.65l-.03-.04-.02-.03-.02-.04zm.39-.5.06.06q.26.5.43 1.01.08-.5.25-.96a1 1 0 0 1 .14-.21l.14-.06h.08l.08.02.04.02.09.08.02.03.03.08q1.53.56 3.12 1.07l1.14.42a7 7 0 0 1 2.03 1.29q.14.12.14.31.08 1.19.02 2.34 0 .2-.17.35l-.2.07-.26.03h-.27l-3.68-.42q-.9-.1-1.82-.36a.6.6 0 0 1-.35-.25 3 3 0 0 1-.31-.57v.18q-.02.78-.6 1.13-.13.08-.26.12a1 1 0 0 1 .31.3l.04.15v-.02q.22 1.25.22 2.54 0 .52-.1 1l.28-.05q.08 0 .16.02-.16-1.57.09-3.16a2 2 0 0 1 .22-.67l.03-.03.03-.02.03-.01.04-.02.03-.03.03-.03.12-.05h.05l.04-.01a9 9 0 0 1 3.4.22l.46.1q1.35.23 2.53.83.13.07.16.22a8.5 8.5 0 0 1-.11 4.01q-.13.48-.36.92-.15.16-.31.26v.02l-.2 3.27a5 5 0 0 1-.32 1.5 11 11 0 0 1-1.24 2.26l-.03.02a11 11 0 0 0-.22 3.26q.05.68-.14 1.32a25 25 0 0 1-1.28 3.45l-.48 1.2q-.45 1.29-1 2.5a.3.3 0 0 1-.25.19q-.6.07-1.2.04a7 7 0 0 1-1.7-.15.3.3 0 0 1-.24-.17 23 23 0 0 1-2.6-6.93l-.91-4.31a10 10 0 0 0-1.02-2.6 3 3 0 0 1-.28-.68q.05.31.2.7.42 1.03.1 2.02-.06.14-.2.2a1 1 0 0 1-.25.02 36 36 0 0 1-2.32-.47q-1.24-.3-2.4-.82a6 6 0 0 1-.83-.47l-.01-.01-.06.28-.12.43V77q1.1.66 2.28 1.19 1.42.64 2.64 1.63.4.33.74.74a30 30 0 0 0 1.88 5.41q1.17 2.56 2.9 4.47.52.59 1 1.2l.55.38h.75l.05-.01.04-.02.03-.01.07-.04q.04 0 .07-.03l.08-.08.09-.1.1-.09.05-.04a50 50 0 0 0 3.68-5.84q.4-.74.72-1.54 1.02-2.49 2-4.98.06-.16.22-.28a6 6 0 0 1 1.15-.66q.6-.5 1.3-.88a28 28 0 0 1 1.7-.86l.15-.17.05-.07q-.45.28-.94.53-1.28.65-2.4 1.1-.65.26-1.36.2-1.16-.11-.95-1.21a40 40 0 0 0 .52-3.47q.12-.83.77-1.38l.2-.17h.02q.35-.3.78-.54-.18-.8-.41-1.57a1 1 0 0 1-.02-.23q.11-1.08.62-2.04.17-.34.36-.67-1.2-.62-1.06-2.03a6 6 0 0 1 .6-2.1q.14-.26.17-.53a2.1 2.1 0 0 1-.8-1.74q-.02-.93.45-1.73.12-.2.19-.4a1 1 0 0 1-.45-.31l-.33-.45q.18 1.3-.04 2.62-.1.62-.74.62h-.05l-.05-.02-.05-.02-.04-.02q-1.04-.48-1.98-1.14-.77-.53-1.6-.92a13 13 0 0 0-1.92-.7 1.5 1.5 0 0 1-.79-.51 2 2 0 0 1-.31-.6q0 .4-.12.8-.15.57-.74.66-.58.1-1.16.26a20 20 0 0 0-4.22 1.69q.3-.1.63-.17l.44-.13q1.56-.54 3.04-1.29.42-.21.88-.24.07 0 .16.06zm1.42-2.47q.02.15.02.3l.06.18.17.47.04.03q0 .03.03.04l.04.03q1.32.44 2.6 1.02 1.21.58 2.3 1.37.3.22.6.4l.05.02.27.1.25.08.05-.01.02-.03.01-.03a8 8 0 0 0-.35-3.72 4.6 4.6 0 0 0-3.4-2.94q-.73-.15-1.47-.23l-.5.07q-.26.06-.53.06h-.09q-.12.75-.2 1.51-.06.65.03 1.28m-6.06-2.19q-.43.14-.8.35a9 9 0 0 0-.46 2.4 26 26 0 0 0 0 3.24 21 21 0 0 1 5.36-2.1l.81-.24q.08-.95 0-1.93a8 8 0 0 0-.36-1.86 2 2 0 0 0-.37-.7l-.02-.03a3 3 0 0 0-1.25.05l-.3.12q-.98.34-2 .53zm-3.7.3-.28.01q-2 .16-3.39-1.22a7.4 7.4 0 0 1-1.9-3.15q-.21-.66-.33-1.31a19 19 0 0 0-.12 1.87l-.07 4.3q.1.11.2.25a1 1 0 0 1 .18.5q1.03 2.6 2.24 5.43a15 15 0 0 1 1.15 6.76q-.28 2.77-.47 5.55-.1 1.27-.32 2.5l.04-.02.09-.01h.04l.08.02.04.02.03.02.03.02v.01q.94.5 1.95.8a40 40 0 0 0 3.19.78q-.22-1.36-.52-2.73-.1-.52-.18-1.07a2 2 0 0 0-.28-.78 7 7 0 0 0-.82-1.1 2 2 0 0 1-.55-1.22l.05-.07.06-.07.07-.06.08-.05a3 3 0 0 0 .46-1.84 2.6 2.6 0 0 0-.41-1.3l-.13-.05-.16-.05-.1-.06-.02-.03-.02-.03-.02-.03-.02-.04v-.09l.01-.1q.44-.54.79-1.15.12-.18.16-.4.16-.77.01-1.44l-.06-.34v.02a2 2 0 0 0-.17-.51q-.11-.25-.3-.41a1 1 0 0 1-.23-.35v-.08l.02-.07.04-.07.06-.07.07-.07q.18-.58.23-1.25.05-.73-.14-1.42l-.15-.53-.06-.07-.06-.07-.04-.06-.04-.07v-.15q.25-.47.55-.92.28-.44.36-.96.03-.25-.04-.5l-.3-.31a1 1 0 0 1-.17-.29 2 2 0 0 0-.12-.46v-.09l.04-.15.14-.15q-.24 0-.47.03m-.01 12.2.01-.01zm1.02-11.54.01.05q.6.43.51 1.15-.07.75-.45 1.36l-.4.61q.39.7.43 1.5.06.89-.1 1.77a2 2 0 0 1-.23.64 2 2 0 0 1 .52.89l.07.32q.18.72.15 1.45a3 3 0 0 1-.42 1.36q-.2.3-.43.57.66.66.7 1.63.04.95-.3 1.84-.14.39-.41.67.55.9 1.22 1.72.1.12.17.29.1.24.18.49a14 14 0 0 1-.02-1.82l.02-.03.02-.04.02-.03.04-.03.03-.02.05-.02a1 1 0 0 1-.25-.2l-.08-.14v-.04l-.01-.05v-.09l-.01-.02-.02-.04-.02-.03-.34-2.61q-.15-1.2-.19-2.39 0-.23.04-.43l.02-.04.02-.03.09-.07.03-.02.04-.02h.08l.08-.04a.6.6 0 0 1-.22-.34 1 1 0 0 1-.01-.43q0-.08.04-.15a11 11 0 0 0-.05-2.88l-.02-.07V61l.04-.1.34-.2-.04-.02-.03-.03-.03-.04-.02-.04q-.14-1.48-.12-2.97 0-1.48.35-2.94.09-.33.26-.62l-.63.07q-.07.08-.16.13l-.34.2q-.17.07-.3.19l.03.09zm11.43-42.78-.36-.12q-.25-.07-.46-.18-.08-.03-.13-.07a12 12 0 0 0-3.36-.38q-1.3.17-2.44.86-.64.4-1.23.86-.47.36-.81.86a9 9 0 0 0-1.4 2.38 10 10 0 0 0 0 1.69l.15 1.71.03.07.02.07.02.06.02.14.02.02.01.02.11.2.01.05v.17l-.02.05-.03.05-.03.05-.04.04-.04.05-.05.02-.05.03-.11.02-.06.01-.1-.01-.12-.04-.16-.14-.37-.4a14 14 0 0 0 .39 2.97l.31 1.25.04.05H86l.2-.12h.22l.05.02.06.03.04.02h.01l.11.07q.02 0 .05.04a12 12 0 0 1 .82 3.1l.06.1.02.06.01.12q.67.75 1.55 1.29l1 .59q.44.24.92.35l.41.1q.55-.05 1.1-.04l1.15.02q.2 0 .4-.02a31 31 0 0 0 2.58-1.38l.5-.3.05-.04.1-.1.06-.05.21-.28a10 10 0 0 1 .6-2.87v-.06l.02-.14.04-.1.04-.05q0-.03.03-.05.03 0 .05-.03l.04-.04.06-.02.05-.02h.05l.06-.02q.06 0 .11.03l.31.1.27-.14.13-.07q.47-.9.54-1.9a22 22 0 0 1 .22-1.9l-.05-.12-.05-.12-.08-.21-.07.04-.05.25-.1.14-.05.04-.06.04-.06.02-.06.02h-.13l-.06-.01-.05-.02-.05-.02-.05-.04-.11-.12q0-.03-.03-.05l-.01-.06q.22-2.18-.2-4.33a6 6 0 0 0-1.25-2.7 8 8 0 0 0-1.52-1.46m.04.03-.02-.01zm-.85 8.12q.64 0 1.2.2.12.03.2.14.16.2-.04.37l-.17.14-.08.05a1 1 0 0 1-.4.2q-.22.06-.47.07h-.02a3 3 0 0 1-1.06-.17.2.2 0 0 1-.16-.2q-.26-.1-.12-.34l.1-.1q.36-.24.77-.33zm-6.84.57a1 1 0 0 1 .15-.18 2.2 2.2 0 0 1 1.81-.31q.45.1.74.44.16.18-.03.33a1 1 0 0 1-.25.13 2 2 0 0 1-.39.06l-.73.06a6 6 0 0 1-.85-.01l-.12-.03-.1-.04-.07-.04q-.3-.1-.16-.41m35.56 52.65a68 68 0 0 0-1.26-5.1q-1-3.46-2.48-6.54a74 74 0 0 1-2.23-5.06q-.11-.3-.14-.63-.3-3.75-2.5-6.82a3.8 3.8 0 0 1-.72-2.66q.09-.96-.05-1.91a15 15 0 0 0-2.1-5.67 2.5 2.5 0 0 0-.98-.92 20 20 0 0 0-6.23-2.02 10 10 0 0 1-3.48-1.19 19 19 0 0 1-4.18-3.14v-.17h-.01l-.06-.1-.02-.06-.02-.11v-2.04q-.65.5-1.4.89-.95.51-1.99.83-.33.1-.68.14-1.3-.02-2.58-.2a4 4 0 0 1-2.22-.98 3 3 0 0 0-.55-.39q-.3-.16-.54-.37l.01.33a10 10 0 0 1-.28 2.77l-.04.04a27.8 27.8 0 0 1-6.6 3.27q-.6.21-1.26.15a4 4 0 0 1-1 .14h-.22a8 8 0 0 0-5.74 3.57 13 13 0 0 0-1.59 3.3 9 9 0 0 0-.41 2.82q0 1.36-.25 2.68l-.11.12a8 8 0 0 1-1.09 3.24q-.2.36-.31.78a60 60 0 0 1-1.93 6.08q-.1.3-.29.55-.93 1.3-1.65 2.75a27 27 0 0 0-2.32 6.75q-.73 3.66-1.2 7.35-.2 1.42-.69 2.78-.45 1.27-.98 2.5v.01l.04.1q.04.11.01.21l-.01.07-.04.06a1 1 0 0 1-.15.16q-.65.25-1.31.46a5 5 0 0 0-1.19.54q-.06.06-.64.35l-1.5.71q-.47.22-.94.46a8 8 0 0 0-1.19 1.2q-.42.54-.78 1.1l-.05.1v-.03l-.01.05-.04.14q.15 0 .32-.03l.36-.08q.55-.39 1.2-.58a14 14 0 0 0 1.22-.4l.05.01q.08.02.15.08l.09.07.05.11q.05.09.03.19v.06q-.36.44-.61.96l-.45.92q-.24.8-.42 1.59a11 11 0 0 1-.42 1.39 9 9 0 0 0-.17 1.96q.03.82.02 1.65a3 3 0 0 1 .14.62l.07.07.15.12a1 1 0 0 0 .4-.15 1 1 0 0 0 .27-.3l.06-.09-.01.03q.62-1.2.87-2.48l.4-1.96.08-.53.08-.21a1 1 0 0 1 .22-.33l.15-.07h.23q.08.03.15.08t.11.13l.02.05.02.05v.23l-.02.05-.1.22q-.39 1.68-.73 3.34-.09.43-.25.82l.02.12q-.16.48-.3.97a5 5 0 0 0-.14 1.22l.07.32.06.04.1.07.05.03.06.05.34.12a20 20 0 0 0 1.56-4.32q.36-1.44.78-2.82l.09-.04.1-.03.1-.01h.06l.1.03q.05.02.08.06l.09.07.03.05.02.05.02.05.02.14-.04.13-.07.19a19 19 0 0 1-.95 3.87l-.3.92q0 .15-.05.26l-.08.23-.03.5q-.01.3.07.55l.03.03.04.03h.02l.06-.02q.03 0 .05-.03l.03-.02q.54-.66.85-1.6l.25-.89v-.16l.1-.19.05-.1.22-.8.07-.16q.23-.6.32-1.23.08-.51.24-1.01.06-.18.18-.3l.05-.02a1 1 0 0 1 .2-.06h.1l.1.03.09.06.08.07.04.04.02.06.02.05.01.14-.01.06-.05.14-.07.14a54 54 0 0 1-.47 2.07A1 1 0 0 1 60 94a11 11 0 0 0-.26 1.12l.08.37q.03.11.12.2l.05.03h.04l.05-.05q.9-1.35 1.32-2.97.81-3.2 1.6-6.41.36-1.4.59-2.8v-.42q0-.2.02-.4l.1-.25v-.16q.32-.83.73-1.62a11 11 0 0 1 1.03-1.62q.04-.06.47-.53a51 51 0 0 0 3.39-4.06q.4-.55.78-1.13a14 14 0 0 0 1.56-3.34l1.09-3.52a73 73 0 0 1 1.08-3.2q1.28-3.38 2.53-6.8.8-2.17.64-4.54-.07-1.12-.06-2.23 0-1.38.23-2.72a2 2 0 0 1 .12-.47v-.03q.02-1.42.2-2.83.1-.71.36-1.4a4.2 4.2 0 0 1 2.6-2.54 25 25 0 0 1 2.78-.85q.43-.1.86-.25 1.78-.6 3.63-.46.63.04 1.26.22.66.2 1.1.76.56.7.9 1.58.32.81.68 1.61.75 1.67 1.1 3.5.18.98-.07 1.94a2.4 2.4 0 0 1 .01 1.02v.02q0 .95-.23 1.86a3.7 3.7 0 0 1-1.02 1.82q.24.03.46.12a4.3 4.3 0 0 1 1.01 2.1 10 10 0 0 1 .28-1.8l.05-.05.19-.06h.04l.07.02.04.02q.9-.16 1.82-.1a3.5 3.5 0 0 1-1.94-2.38 9 9 0 0 1-.32-2.58l-.03-.37a9 9 0 0 1 .4-3.65q.24-.73.34-1.5.26-1.86.96-3.55.07-.18.27-.26a6 6 0 0 1 2.24-.3q1.07.08 2.12-.1a2 2 0 0 1 1 .06l.06.07.03.04q0 .01.02.02 1.7.3 3.4.78.72.2 1.37.55a3.5 3.5 0 0 1 1.5 1.56q.42.82.48 1.75l.12 1.2a25 25 0 0 1 .23 2.7l.03-.02.1-.04.11-.01.17.02.1.06.07.09.09.15v.22l-.05.1-.08.13-.06.12q.03 3.72.72 7.42.33 1.8 1.12 3.44a30 30 0 0 1 2.28 6.69q.2.9.58 1.76l1.42 3.23q1.09 2.56 2.82 4.74a30 30 0 0 1 2.63 3.9 43 43 0 0 1 2.22 4.43l.06.06.04.04.03.05.02.05.03.12v.1l.02.04.03.05.02.05q.03.34 0 .67 0 .38.08.74a.6.6 0 0 1-.02.36l-.02.07-.03.06q.13 1.22.42 2.4.3 1.2.73 2.35.08.22.14.46.42 1 .7 2.06.28 1 .64 1.98.08.2.23.38l.13.04.1.04h.17l.15-.01.1-.04q-.19-.99-.33-2.01-.14-1.05-.44-2.09a.5.5 0 0 1 .01-.3l.07-.1.08-.08.1-.06.1-.03h.18l.06.02.04.03.1.09q.42.95.64 2 .2.93.37 1.79.09.38-.04.73.12.37.22.76a13 13 0 0 0 .43 1.24l.06.06q.08.08.17.13l.09.05h.01q.05.02.1.01h.16v-.01l.05-.06.14-.16a2 2 0 0 1 .32-.3q-.19-1.32-.56-2.62a11 11 0 0 0-1.27-2.88l-.03-.19v-.23q0-.09.06-.18l.08-.08.1-.08.13-.05h.12q.06 0 .1.03l.16.09a24 24 0 0 1 2.39 6.3q.05.22.2.4l.11.07.15.06.1.02a.8.8 0 0 0 .17-.6l-.04-.87a1 1 0 0 1-.15-.14l-.12-.22-.13-.27v.01-.03q-.4-.98-.6-2.03a25 25 0 0 0-.64-2.57l-.14-.33-.23-.53a1 1 0 0 1-.04-.2l.03-.11q0-.06.04-.1l.06-.1.09-.07.1-.03.14-.02.14.02.06.03.05.04.09.09.1.2.25.6q.68 1.17 1.05 2.5.35 1.2.58 2.46l.05.23.17.1.13.06.06.02.08-.36.03-.1q.3-2.25-.37-4.45-.65-2.16-1.37-4.31a1 1 0 0 1-.03-.38l.11-.19.09-.07.05-.03.1-.02a.4.4 0 0 1 .22.02l.05.02q.03 0 .04.03.03 0 .05.03l.04.03q0 .02.03.05l.03.04.02.05.04.06.03.04.22.14a1 1 0 0 1 .4.26l.5.15a2 2 0 0 1 .62.3h.62q-.15-.3-.35-.57l-.7-.95a29 29 0 0 0-2.86-2 17 17 0 0 1-2.67-2.04.4.4 0 0 1-.12-.29l-.12-.22-.1-.13-.03-.06-.02-.06v-.03.01l-.02-.06v-.07a52 52 0 0 1-2.01-7.1"/><path fill="#000" d="M124.64 71.7q-.25-1.1-.55-2.2-.8-2.94-2-5.77-1.53-3.56-3.17-7.04 0-.37-.02-.76a12 12 0 0 0-.91-3.8q-.81-1.95-2.1-3.64l-.02-.1q0-.1-.04-.2l-.06-.21v-.31q.02-3.7-1.25-7.18a5 5 0 0 0-1.17-1.86 9.4 9.4 0 0 0-5.12-2.7q-2-.37-3.76-.73-.83-.45-1.7-.8a5 5 0 0 1-1.16-.66q-1.33-.98-2.73-1.88l-.37-.42q.05-.87.02-1.74-.03-1.07.13-2.1.16-.93.36-1.84l.06.01.05.01q.27-.05.51-.17.25-.12.42-.34.84-1.13.92-2.57 0-.3.09-.6a2.8 2.8 0 0 0-.37-2.4 2 2 0 0 0-.46-.2l-.12-.02q0-1.56-.25-3.1a8 8 0 0 0-1.42-3.3 5.7 5.7 0 0 0-2.82-2.06 9 9 0 0 0-4.72-.32h-.03q-.32.06-.62.17a8.4 8.4 0 0 0-3.82 3q-.3.45-.63.88a3.5 3.5 0 0 0-.67 2.08q0 1.31.03 2.5-.24.07-.43.27a1.8 1.8 0 0 0-.41 1.68 32 32 0 0 1 .38 2.02q.13 1.24.88 2.17l.1.05.07.01h.05q.06 0 .11-.02l.18-.06.03.13q.33 1.23.55 2.47.22 1.2.19 2.4l-.04.15q-.05.2-.05.39v.37a3 3 0 0 0-.08.5l-.4.23q-1.33.86-2.76 1.5a68 68 0 0 1-2.66 1.15 3 3 0 0 0-.71.22q-.4.02-.8.08-.66.11-1.33.16-.73.06-1.42.33a8 8 0 0 0-4.3 2.72 10 10 0 0 0-1.6 2.64 14 14 0 0 0-1.08 6.3l-.07.22a3 3 0 0 0-.07.73l-.08.1-.02.05-.03.16v.34q-.1.67-.45 1.25a12 12 0 0 0-1.37 3.29q-.5 1.98-.95 3.98a4 4 0 0 0-.27.7q0 .04-.03.07l-.04.06q-.75.68-1.22 1.57a38 38 0 0 0-2.75 6.57 26 26 0 0 0-.67 2.6 32 32 0 0 0-.54 4.02 20 20 0 0 1-1.76 6.91q-.32.7-.38 1.37l-.06.02-.78.38q-1.77.6-3.43 1.5-.52.29-1 .62a9 9 0 0 0-2.48 2.73q-.05.2-.12.37a1 1 0 0 0-.07.41q.06.15.18.3l.23.2q.18.1.38.1.52.05 1-.13.59-.2.6-.28l.06-.02.2-.07.18-.02-.06.16a7 7 0 0 0-.58 2.08q-.48 1.19-.62 2.46l-.19 1.6a3.1 3.1 0 0 0 .99 2.9l.22.07q.44 0 .78-.24-.06.74.25 1.43l.08.07.1.06.1.05q-.17-.08-.05 0 .22.14.45.24l.48.18q.14.04.27-.02.42-.18.72-.5l.06.08q.09.1.21.18l.19.14.06.03.12.05.07.02q.86-.05 1.28-.82.33-.57.58-1.2l.1.08.08.07.12.05q.08.05.18.06l.33.03.12-.05q.8-.37 1.12-1.2.37-.9.62-1.83.22-.42.36-.88.16-.54.2-1.09v-.07l.46-1.48a8 8 0 0 0 .35-1.61l.06-.2.37-1.16q.18-.63.26-1.26a6 6 0 0 0 .28-1.84l.04-.1q.1-.23.09-.5l.01-.5.07-.12.06-.1.07-.1.02-.14-.02-.14-.02-.05q.33-.63.65-1.29.58-1.16 1.48-2.1.53-.54.82-.93.68-.76 1.42-1.47.83-.8 1.33-1.82.3-.6.33-.7l1.01-1.76q.91-1.55 1.41-3.29.63-2.21 1.13-4.45 1.05-2.1 1.78-4.37.37-1.21.93-2.38.3-.67.49-1.37l.09.32q.13.5.33.96.26.63.61 1.2l.44.94q.84 1.74 1.23 3.64a26 26 0 0 1 .51 4.24l.01.15q-.09 1.02-.24 2.05-.21 1.46-.26 2.93-.07 2.1-.64 4.07v.04l-.03.01-.03.05-.04.04-.02.05-.02.05v.11q-.07.1-.12.24-.54 1.4-.7 2.88-.44 3.56-.96 7.1l-.41 2.92v.03q-.29 2.06-.53 4.12a47 47 0 0 1-.93 5.25h.85q.59-3.09 1.02-6.22l.97-6.9.06-.42v-.05l.01-.05.01-.04.03-.14.12-.74.1-.51q.1-.48.14-.97.15-1.63.35-3.24.17-1.32.65-2.57l.2.14a6 6 0 0 0 1.7.9q.18.07.34.17l1.5.89q.8.47 1.48 1.1.48 2.03 1.27 3.95 1.2 2.89 3.05 5.42l.49.7a5 5 0 0 0 1.66 1.54q-.1.14-.17.32a8.4 8.4 0 0 0-.7 3.71q.05 1.51.21 3.01H92q-.12-1.18-.2-2.38a14 14 0 0 1 .15-3.03l.12-.44.1-.35q.03-.08.09-.15a2 2 0 0 1 .35-.38h.42l.04.05.01.03.01.02.08.2q.08.23.2.45.15.22.25.45l.04.26q0 .15.04.29l.07.24q0 .4.02.79.06 1.13-.16 2.24l-.31 1.71h.86l.06-.22q.46-1.75.52-3.55a5 5 0 0 0-.78-2.91 1 1 0 0 0-.1-.32q.14-.08.26-.2.28-.26.45-.62 1.5-1.79 2.62-3.83.45-.8.85-1.61 1.36-2.7 2.3-5.56a3 3 0 0 0 .16-.62l.01-.07.01-.05.04-.15.03-.08.2-.11q.2-.1.38-.25l.3-.25q.15-.06.27-.14.89-.6 1.85-1.07a11 11 0 0 0 1.65-.97q0 .2.04.43.1.77.1 1.55.03 3.57.47 7.13.45 3.6 1.2 7.03l.33 1.3q.72 2.53.66 5.14h.83a15 15 0 0 0-.31-3.95q-.6-2.44-1.12-4.93a50 50 0 0 1-1.04-7.18 89 89 0 0 1-.24-6.18q0-.6-.03-.61l-.06-.42q-.04-.23-.11-.43l-.03-.04-.04-.04-.04-.04-.03-.03-.01-.02-.08-.16v-.12l-.04-.18-.09-.22v-.07a3 3 0 0 0-.08-.76q.34-1.65 0-3.28a13 13 0 0 1-.23-3.24q.2-3.45 1.17-6.75.5-1.65 1.1-3.25.37-1 .61-2.04.56 2.14 1.5 4.17.73 1.59 1.1 3.3.27 1.33.77 2.6.39.97.73 1.98 1.16 3.42 3.24 6.37.5.72 1.03 1.42a51 51 0 0 1 2.47 3.61q.24.4.4.83a16 16 0 0 0 1.93 3.74l-.02.12v.85q0 .3.08.56-.14.85.06 1.72.63 2.8 1.62 5.48.32.86.47 1.74.4 2.16 2.45 1.97a10 10 0 0 0 .5 1.45q.04.13.13.23.17.19.39.32l.26.15a1 1 0 0 0 .38.09q.2 0 .4-.02a1 1 0 0 0 .33-.13 3 3 0 0 0 .35-.4l.2-.2.07.14q.1.2.27.34a1.5 1.5 0 0 0 .59.34q.78.22 1.13-.49.3-.63.24-1.35l.34.1a1 1 0 0 0 .22-.02l.06-.03.12-.06.19-.18q.09-.17.14-.37.6-2.19.06-4.39a36 36 0 0 0-1.3-4.22l.33.1.23.06.2.12.25.14.24.1h.75q.23 0 .45-.1l.15-.11.16-.2q.09-.1.14-.22.03-.23-.06-.45a5.7 5.7 0 0 0-1.82-2.35q-1.36-1.05-2.89-1.87l-.14-.13q-.54-.45-1.1-.88-.37-.3-.72-.64v-.02q0-.03-.02-.06l-.08-.19-.1-.18-.08-.1v-.01q-.44-1.04-.72-2.15-.84-3.24-1.62-6.62m-1.78-3.28q.73 2.5 1.26 5.1a52 52 0 0 0 2.03 7.24v-.01.03l.02.06.04.06.09.13.12.22v.09q.03.12.12.2 1.25 1.15 2.67 2.04 1.5.92 2.86 2l.22.3.48.65q.19.27.35.56l-.16.01h-.46l-.13-.07q-.22-.14-.49-.23l-.5-.15-.15-.13q-.12-.08-.25-.13l-.22-.14-.03-.04-.04-.06-.02-.05-.03-.04-.03-.05-.13-.1-.05-.01-.1-.02h-.11l-.11.02-.05.03-.09.07-.06.1-.06.1q-.02.18.04.37.72 2.15 1.37 4.31.66 2.2.37 4.44 0 .06-.03.1l-.07.28-.01.1-.06-.03-.13-.06-.08-.05-.1-.05q0-.1-.04-.23-.23-1.25-.58-2.47-.37-1.31-1.06-2.5a4 4 0 0 0-.43-.88l-.05-.04-.06-.03-.14-.02q-.06 0-.13.02l-.11.03-.09.08-.06.08-.04.1-.03.12q0 .1.04.2l.37.86q.08.22.15.45.3 1.05.48 2.12.2 1.04.6 2.03l.02.03.12.26q.04.12.12.22.06.08.15.14v.16q0 .36.04.7a.8.8 0 0 1-.16.61l-.11-.02-.15-.06-.1-.07a1 1 0 0 1-.21-.4 23 23 0 0 0-2.44-6.34l-.1-.05-.1-.02-.13-.01-.12.05-.11.08-.08.08a.4.4 0 0 0-.05.18l-.01.23q0 .1.03.2.08.1.13.2.75 1.26 1.14 2.67a22 22 0 0 1 .56 2.62 2 2 0 0 0-.32.3l-.2.22-.07.01h-.18l-.01-.01-.1-.05-.22-.2-.14-.31-.29-.92q-.1-.39-.22-.76.12-.36.04-.73-.16-.86-.37-1.79-.22-1.05-.64-2l-.1-.09-.05-.03-.1-.02h-.13l-.1.03-.1.06-.08.08-.07.1q-.06.15-.01.3.3 1.03.44 2.09.15 1.02.32 2.01l-.09.04h-.31l-.23-.07h-.01q-.15-.17-.23-.38-.37-.97-.64-1.98-.28-1.06-.7-2.06l-.14-.46q-.43-1.15-.73-2.35a17 17 0 0 1-.42-2.4l.03-.06.02-.07a.6.6 0 0 0 .02-.36 3 3 0 0 1-.07-.74q.01-.33-.01-.67l-.02-.05-.03-.05-.02-.04v-.1l-.03-.13-.02-.04-.03-.05-.05-.05-.05-.05q-.14-.27-.27-.55a43 43 0 0 0-1.95-3.88 30 30 0 0 0-2.63-3.9 21 21 0 0 1-2.82-4.74l-1.42-3.23a9 9 0 0 1-.58-1.76A30 30 0 0 0 110 58.4q-.8-1.65-1.12-3.44-.69-3.7-.72-7.42l.06-.12.14-.28v-.12l-.01-.05-.02-.06-.07-.1-.07-.08-.1-.06-.06-.01-.1-.01-.12.01-.1.04-.03.03-.03-.78q-.06-.97-.2-1.93a17 17 0 0 1-.12-1.2q-.06-.93-.47-1.75a3.5 3.5 0 0 0-1.5-1.56q-.66-.35-1.38-.55a30 30 0 0 0-3.4-.78l-.02-.02-.03-.04-.03-.04-.04-.03-.04-.02-.27-.05a2 2 0 0 0-.68 0q-1.05.19-2.12.12a6 6 0 0 0-2.24.3.4.4 0 0 0-.27.25 14 14 0 0 0-.96 3.55 8 8 0 0 1-.35 1.5 9 9 0 0 0-.36 4.02q-.01 1.3.32 2.58.45 1.7 1.94 2.38a7 7 0 0 0-1.82.1l-.04-.02-.11-.02h-.04l-.04.01-.04.02-.03.01-.04.02-.05.06-.02.03q-.2.88-.26 1.76a4.3 4.3 0 0 0-1-2.1q-.23-.09-.47-.12.74-.7 1.02-1.82.23-.9.23-1.86v-.02a2 2 0 0 0 0-1.02q.24-.97.06-1.95a16 16 0 0 0-1.1-3.49L91 40.67a7 7 0 0 0-.9-1.58 2 2 0 0 0-1.1-.76q-.63-.17-1.26-.22a9 9 0 0 0-3.63.46q-.43.15-.86.25-1.41.34-2.78.85a4.2 4.2 0 0 0-2.6 2.55q-.26.67-.35 1.4a26 26 0 0 0-.2 2.86q-.09.22-.13.46-.22 1.34-.23 2.72-.02 1.12.06 2.23.16 2.38-.64 4.54l-2.76 7.45q-.45 1.27-.85 2.55l-1.1 3.52a14 14 0 0 1-2.33 4.47 51 51 0 0 1-3.86 4.6 9 9 0 0 0-1.03 1.61q-.41.8-.73 1.62v.16l-.1.24q-.03.21-.02.41v.43q-.24 1.4-.58 2.79l-1.6 6.4a9 9 0 0 1-1.33 2.98l-.05.04-.02.02H60l-.01-.01-.04-.04a.3.3 0 0 1-.12-.2l-.08-.36q.07-.24.07-.37.05-.11.07-.22l.12-.53a1 1 0 0 0 .15-.29q.12-.43.22-.88.14-.6.25-1.19l.12-.28.01-.06a1 1 0 0 0-.05-.25l-.04-.04-.08-.07-.1-.06-.09-.04-.2.03-.1.04-.05.02a1 1 0 0 0-.18.3q-.17.5-.24 1.01a6 6 0 0 1-.4 1.39l-.2.8-.07.1-.08.2v.22l-.26.82a5 5 0 0 1-.88 1.62l-.05.03-.06.03-.06-.04q-.02 0-.03-.03a1.4 1.4 0 0 1-.07-.55q0-.26.03-.5l.08-.23a1 1 0 0 0 .05-.3l.3-.88a19 19 0 0 0 .98-3.94l.08-.25-.02-.14q0-.02-.02-.05l-.02-.05q0-.03-.03-.05l-.09-.07-.09-.06-.1-.03h-.15l-.1.04-.1.04q-.41 1.38-.77 2.82l-.25.96a20 20 0 0 1-1.3 3.36l-.12-.05-.13-.04-.1-.03-.11-.08-.16-.1-.03-.13a2 2 0 0 1-.04-.46q.03-.5.15-.96a10 10 0 0 1 .29-1.03q0-.03-.02-.06.16-.39.25-.82.34-1.66.73-3.34l.1-.22.02-.05v-.23l-.02-.05-.02-.05-.1-.13-.16-.08h-.23l-.15.07-.04.04a1 1 0 0 0-.18.29l-.08.21-.08.53-.4 1.95q-.25 1.3-.87 2.49v-.03l-.01.03-.04.06a1 1 0 0 1-.28.3 1 1 0 0 1-.4.14l-.03-.02-.2-.18a3 3 0 0 0-.12-.6q0-.82-.02-1.65a9 9 0 0 1 .2-2.06q.23-.63.39-1.29a24 24 0 0 1 .45-1.65q.2-.44.42-.86.26-.53.6-.96l.01-.06q0-.1-.03-.19l-.05-.11-.1-.07a.3.3 0 0 0-.14-.08l-.05-.01q-.06 0-.11.02-.56.21-1.1.38-.66.2-1.21.58l-.36.08q-.15.03-.32.03l.05-.19v.03l.05-.1q.36-.56.78-1.1a8 8 0 0 1 1.19-1.2q.47-.25.94-.46a58 58 0 0 0 2.14-1.06l.13-.08q.52-.3 1.06-.46.67-.22 1.3-.46l.09-.07.1-.15.02-.07a.4.4 0 0 0 0-.2l-.05-.1v-.01q.53-1.24.98-2.52.5-1.35.68-2.77.48-3.69 1.21-7.35.7-3.52 2.32-6.75.72-1.44 1.65-2.75.18-.26.3-.55a60 60 0 0 0 1.92-6.08q.1-.42.31-.78.9-1.55 1.09-3.24l.03-.04.08-.08q.26-1.32.25-2.68a9 9 0 0 1 .41-2.81q.55-1.77 1.6-3.31A8 8 0 0 1 78.3 36h.22a4 4 0 0 0 1-.14q.66.07 1.26-.15a28 28 0 0 0 6.67-3.36l.02-.05.03-.12v-.08a10 10 0 0 0 .19-2.8q.24.2.54.37t.55.39a4 4 0 0 0 2.22.99q1.28.16 2.58.19.35-.03.68-.14 1.04-.33 2-.83.74-.39 1.4-.9l.01 2.16.02.06.02.05.04.04v.18a19 19 0 0 0 4.2 3.14q1.63.91 3.47 1.19 3.3.5 6.23 2.02.62.33.98.91a15 15 0 0 1 2.1 5.68q.14.95.06 1.9-.14 1.5.7 2.67a13 13 0 0 1 2.5 6.82q.04.33.15.63a74 74 0 0 0 2.23 5.06q1.5 3.08 2.48 6.54m8.56 18.24h-.02l.04.01zM95.85 12.03l.36.12q.87.63 1.52 1.45a6 6 0 0 1 1.25 2.7q.41 2.18.2 4.34l.01.05.03.06.07.08.09.07.05.03.05.02.06.01h.13l.06-.02.06-.02.06-.04.12-.13.03-.06.04-.18.01-.06.08-.04.07.2.05.13.05.12q0 .1-.02.17-.14.86-.2 1.72-.08 1-.54 1.9l-.13.08-.27.15-.3-.11-.12-.03-.06.01-.05.01-.05.02-.06.02-.05.04-.04.03-.03.05-.04.05-.06.17v.13l-.2.61a10 10 0 0 0-.4 2.26l-.21.28-.07.06-.06.05-.03.04-.04.04-.04.04-.47.26a36 36 0 0 1-2.58 1.38l-.4.02-1.15-.02q-.55-.02-1.1.04l-.41-.1q-.5-.11-.91-.35-.52-.3-1-.6A7 7 0 0 1 87.64 28l-.01-.12-.02-.06-.03-.04-.04-.07-.02-.11q-.2-1.56-.8-2.98l-.04-.04-.05-.03-.07-.04q-.03 0-.04-.03l-.06-.02-.05-.02h-.22l-.2.11h-.03l-.04-.04a34 34 0 0 1-.5-2.16q-.17-1.04-.2-2.05l.08.08.45.45.06.02.1.02.06.01.17-.03q.02 0 .05-.03l.09-.07.04-.04.03-.05.03-.05.02-.1v-.17l-.08-.16-.05-.06-.02-.02-.06-.27-.03-.07v-.02l-.15-1.7a10 10 0 0 1 0-1.68l.05-.12a12 12 0 0 1 1.35-2.26q.34-.5.81-.87.6-.46 1.23-.85a6 6 0 0 1 2.5-.86q.8-.03 1.58.05.87.1 1.72.33l.13.07q.22.1.46.18M95 39.68l.05-.1.1-.32q.04-.16.14-.28.4-.21.85-.21.81 0 1.62-.05l1.97-.12q.23.18.54.23l1.45.23a17 17 0 0 1 1.55.34q.38.18.8.29l.77.22.29.19.3.2.24.15.35.55a5 5 0 0 1 .72 2.24l.07.66q.14 1.27.26 2.56a10 10 0 0 1-.36 3.69q-.26.9-.94 1.5a7 7 0 0 1-2.35 1.47l.04-.02q-.18.08-.37.12a10 10 0 0 1-2.82.23 7 7 0 0 1-1.55-.32q-.86-.28-1.74-.52a6 6 0 0 1-2.32-1.18 6 6 0 0 1-.84-2.74q-.03-.54-.1-1.08a7 7 0 0 1 .16-2.4 44 44 0 0 0 .71-3.72q.1-.5.23-.98.14-.5.18-.83m11.54-4h-.05l-.02-.01zm-23.3 3.78 1.89-.47q1.8-.45 3.65-.15l.15.07.26.13.42.4.19.2.35.73q.18.4.39.8a16 16 0 0 1 1.29 3.33q.55 1.64.26 3.3l.03.23q.04.2.01.37l-.03.34V49l-.07.69-.02.56q-.08.18-.14.37a4 4 0 0 1-.84 1.44l-.18.13a7 7 0 0 1-.82.43l-1.6.48a35 35 0 0 1-3.06.43h-.07l-.08.02-.03.02a22 22 0 0 1-2.5.1 3 3 0 0 1-.91-.22q-.42-.17-.82-.38-.69-.65-1.26-1.41a5.5 5.5 0 0 1-1.03-2.37q-.22-1.28-.52-2.54l.03-.15v-.06l-.01-.11-.04-.11-.1-.12a7 7 0 0 1 .25-3.44 3.9 3.9 0 0 1 2.66-2.64q1.14-.37 2.3-.66m1.54 15.52v-.05l-.06-.2-.03-.1q.14-.1.3-.17a2 2 0 0 0 .5-.34l.63-.07q-.18.3-.26.62-.34 1.45-.35 2.94a31 31 0 0 0 .14 3.01q0 .03.03.04l.03.03.05.03-.35.18-.04.1v.12l.04.1.02.03.02.03.01.1q.06.64.06 1.28a11 11 0 0 1-.12 1.56q-.04.22.01.43t.22.34l-.08.03h-.04l-.08.03-.1.06-.02.03-.02.03-.02.04q-.04.2-.04.43.05 1.2.2 2.39.16 1.3.33 2.6l.02.04.02.04v.11l.01.05v.04l.09.15q.1.11.25.2h-.02l-.03.01-.03.02-.04.03-.06.1-.01.04-.02.34q-.02.72.05 1.44-.07-.25-.18-.5-.06-.16-.17-.28-.67-.82-1.22-1.72.27-.28.42-.67.32-.89.29-1.84a2.4 2.4 0 0 0-.7-1.63q.24-.27.43-.57.38-.63.42-1.36a5 5 0 0 0-.42-2.25q-.14-.23-.32-.4.16-.32.22-.65.17-.88.11-1.78a4 4 0 0 0-.42-1.49l.39-.6q.38-.63.45-1.37.07-.72-.5-1.15m-1.3-.7h.28l.47-.04-.14.15-.01.05-.02.05v.05l-.01.05v.08q.09.21.12.42.02.12.17.29l.3.32q.07.24.03.49-.06.53-.35.96a11 11 0 0 0-.55.97v.09l.04.07.04.07.12.14.15.53q.19.7.14 1.42-.06.67-.23 1.25l-.17.2-.02.04v.12q.06.2.22.35.2.15.3.4.12.25.18.52v-.02q.02.17.06.34.15.67-.01 1.44-.04.22-.16.4a10 10 0 0 1-.8 1.2v.09l.02.09q0 0 .02.03l.02.03.02.03q.05.05.1.06l.16.05.13.05.05.08q.33.56.36 1.22.02.31-.03.64-.09.63-.43 1.2a1 1 0 0 0-.26.25 2 2 0 0 0 .55 1.22q.46.5.82 1.1a2 2 0 0 1 .28.78q.07.54.18 1.07.3 1.36.52 2.73a4 4 0 0 1-.7-.11l-.8-.2q-.84-.22-1.7-.46a10 10 0 0 1-1.93-.8L81 75.8l-.03-.02-.03-.02-.12-.04h-.09l-.04.01-.04.02q.23-1.23.32-2.5.19-2.78.47-5.55.07-.67.04-1.33-.08-2.84-1.19-5.43a225 225 0 0 1-2.25-5.5 1 1 0 0 0-.17-.43q-.1-.14-.2-.25l.01-.3.06-4a19 19 0 0 1 .12-1.87q.13.66.32 1.3.55 1.81 1.91 3.16a4.1 4.1 0 0 0 3.4 1.22m3.18.04q.37-.21.8-.35l.61-.17a12 12 0 0 0 2.3-.65q.62-.15 1.25-.05l.02.03.04.07q.23.3.33.63.3.9.37 1.86.06.98 0 1.93l-.82.23a22 22 0 0 0-5.35 2.1 33 33 0 0 1 0-3.22q.06-1.25.45-2.4m6.88 2.13q0-.15-.02-.29a5 5 0 0 1-.03-1.28q.08-.76.2-1.51h.1q.25 0 .52-.06l.5-.07q.74.08 1.47.23a4.6 4.6 0 0 1 3.4 2.94 8 8 0 0 1 .32 3.78l-.05.01-.1-.02-.3-.12-.06-.02-.06-.02-.05-.01-.6-.41q-1.09-.79-2.3-1.37a22 22 0 0 0-2.6-1.02l-.04-.03-.03-.04-.04-.03-.03-.04q0-.09-.04-.16zm-1.38 2.24-.2-.15-.15-.06q-.46.03-.88.24a24 24 0 0 1-3.48 1.42q-.32.07-.63.17l.64-.32a20 20 0 0 1 3.58-1.37q.58-.16 1.16-.26a.9.9 0 0 0 .74-.66q.12-.4.12-.81.1.34.31.6.3.39.79.52.98.28 1.91.7.84.4 1.6.92a13 13 0 0 0 2.18 1.2q.64 0 .74-.62a9 9 0 0 0 .04-2.62l.33.45q.18.23.45.3-.07.21-.19.4a3.3 3.3 0 0 0-.46 1.74q0 1.08.81 1.73a2 2 0 0 1-.17.54 6 6 0 0 0-.6 2.1q-.14 1.41 1.06 2.03-.2.33-.36.67a6 6 0 0 0-.62 2.04q0 .11.02.23.23.78.41 1.57a7 7 0 0 0-.8.54l-.2.17q-.65.56-.77 1.38l-.1.72q-.16 1.38-.42 2.75-.2 1.1.95 1.21.7.06 1.37-.2a31 31 0 0 0 3.33-1.63l-.05.07-.16.17-.3.16q-.7.33-1.38.7-.7.39-1.31.88-.6.27-1.15.66a1 1 0 0 0-.23.28q-.96 2.49-1.99 4.98-.31.8-.72 1.54a50 50 0 0 1-3.68 5.84l-.05.04-.1.1-.17.17-.07.03-.07.04-.03.01-.04.02-.05.02h-.41l-.34-.01-.12-.09-.44-.3q-.46-.6-.99-1.19a18 18 0 0 1-2.9-4.47 30 30 0 0 1-1.88-5.41 5 5 0 0 0-.74-.74q-1.2-.99-2.64-1.63a24 24 0 0 1-2.28-1.2v-.05l.12-.43.06-.28.04.04q.38.25.8.44 1.16.52 2.4.82 1.15.27 2.32.47.12 0 .24-.03.15-.05.2-.19.33-1-.1-2.03-.15-.37-.19-.7.1.37.28.7A10 10 0 0 1 87.73 79l.76 3.65a24 24 0 0 0 2.6 6.93q.08.14.23.17.82.18 1.71.15.6.02 1.2-.04.18-.02.25-.18.55-1.23 1-2.51.22-.6.48-1.2.77-1.68 1.28-3.45.19-.64.14-1.32-.15-1.65.22-3.26l.06-.04q.75-1.04 1.21-2.24.3-.72.33-1.5l.19-3.3q.16-.09.3-.25.24-.45.37-.92.54-1.98.11-4a.3.3 0 0 0-.16-.23 9 9 0 0 0-2.53-.83l-.45-.1a9 9 0 0 0-3.58-.18l-.04.02-.03.03-.03.03-.04.02-.03.01-.03.02-.05.06q-.15.3-.2.64-.25 1.57-.1 3.16a.3.3 0 0 0-.15-.02l-.29.05q.1-.48.1-1 .01-1.28-.2-2.54v.02l-.03-.1-.02-.04-.08-.13a1 1 0 0 0-.23-.19q.13-.03.25-.1.6-.36.6-1.14v-.18q.14.3.32.57.14.2.35.25.92.26 1.82.36l3.95.42q.14 0 .26-.03l.2-.08q.17-.13.17-.34.06-1.16-.02-2.34a.4.4 0 0 0-.14-.31 7 7 0 0 0-2.03-1.3q-.57-.22-1.14-.4-1.59-.52-3.12-1.08l-.01-.04-.02-.04-.02-.03-.03-.03-.06-.05-.04-.02-.08-.02h-.11l-.04.02-.03.02q-.03 0-.04.02a1 1 0 0 0-.14.2q-.17.48-.25.97a7 7 0 0 0-.43-1m-.47.41.02.03.02.03.02.04.02.03.03.04.05.2.16.45q.1.22.16.48v-.01.02l.03.27.07 1.52q.02.8-.2 1.56l-.13.05a3 3 0 0 1-.55.06q-1.05.06-2.1.05a8 8 0 0 0-2.67.48h-.06l-.33.06h-.23v-.14q.07-.18.1-.37.05-.71.03-1.42-.02-.69-.06-1.32.4-.15.84-.26 1.16-.29 2.25-.78 1.25-.58 2.53-1.07m1.48 1.64q-.02-.72.09-1.43.21.05.42.13.74.3 1.53.47.8.18 1.57.53.17.11.35.2.6.23 1.18.5.55.26.97.66v.26q-.02.46.04.93.06.5.06.97H99l-.35-.04-.23-.04h.03-.02l-.6-.09q-.61-.03-1.23-.12l-1.75-.24-.43-.03q-.27.01-.52-.02l-.04-.03-.1-.06-.03-.03-.05-.07-.26-.4-.05-.18-.03-.1q0-.14-.02-.27-.12-.75-.14-1.5m-5.96 4.47.82-.14q.46.08.92.1.6.05 1.15-.05l1.42-.24.05.02.05.02.05.02.03.02.04.01q.21.96.24 1.94.01.36-.03.7v.02l-.01.03v-.02q-.03.3-.13.58-.37 1.15-.71 2.3l-.59.08q-.94.1-1.88.02a6 6 0 0 0-1.85.11h-.17l-.2-.03-.03-.17-.03-.1q.01-.3-.04-.6a28 28 0 0 1-.42-4.28q.02 0 .05-.03l.04-.04.05-.03.01-.02.35-.06zm-.72 6.14v-.01h.11q.42 0 .82-.09.42-.06.85-.03 1.35.14 2.67-.07.16-.02.28-.08.65-.3.63-1.08l.44-.9.67-.2q.18 1.18 1.42 1.48 1.7.39 3.4.67a4 4 0 0 0 1 0A66 66 0 0 0 98.6 74a4 4 0 0 1-.35 1.52q-.4.9-.86 1.74h-.04l-.05.02-.04.01-.08.06-.03.04-.03.03q-.14.44-.24.89a5 5 0 0 0-.1 1.59q.15 1.3-.2 2.54a22 22 0 0 1-1.21 3.33q-.8 1.7-1.29 3.52-.15.03-.32.03-.58.01-1.15-.01-.5-.03-1-.01l-.03-.03-.03-.03-.03-.03-.01-.03-.02-.04-.03-.04-.03-.03-.43-.94a26 26 0 0 1-1.35-3.56q-.56-1.86-.98-3.77-.25-1.12-.4-2.26-.1-.7-.43-1.33a16 16 0 0 1-1.02-2.4 2 2 0 0 1-.1-.52 48 48 0 0 0-.23-2.93m7.05-2.39q0-.25-.02-.52a27 27 0 0 1-.09-1.75 5 5 0 0 1 .28-1.74l.15-.07.07-.02q.5 0 .98.05 1.15.12 2.28.32 1.2.23 2.39.62.06.22.08.45.08.99 0 1.98a7 7 0 0 1-.49 2l-.04.02-.03.02-.04.03-.03.01-.03.02-.1.01-.16.03-.15.03h-.34q-.87-.1-1.75-.25a7 7 0 0 0-.8-.1q-1.2-.07-2.07-.88l-.02-.05zm14.26-15.09h-.01l-.11.13q-.06.9-.39 1.74a58 58 0 0 0-1.69 5.05 35 35 0 0 0-1.23 6.84q-.05.5.06 1a18 18 0 0 1 .28 5.31l-.04.1-.04.14q0 .08.03.14.08.34.07.69-.02.3.13.54l-.03.02a38 38 0 0 0-2.62 1.39q-1.19.7-2.49.52l-.12-.07-.02-.02-.01-.04-.01-.05-.01-.06v-.04l.07-.35.34-1.7q.16-.86.16-1.74l.01-.03.07-.16.05-.1.03-.07.18-.2q.29-.36.67-.6l.26-.16h.03l.08.02h.04l.04-.01.24-.12.3-.14a1 1 0 0 0 .16-.12l.02-.03.02-.04.02-.04v-.16l-.03-.07-.03-.03-.05-.06-.07-.04-.03-.01-.09-.01h-.13a5 5 0 0 0-.45-1.34l.16-.85q.15-.72.57-1.36.38-.6.23-1.2l-.03-.04-.1-.09-.1-.05-.2-.02-.1-.04v-.01l-.07-.04-.1-.1a2 2 0 0 1-.29-1.3q.12-1.02.6-1.9.42-.74-.15-1.2l-.03-.05-.14-.15-.2-.23a3 3 0 0 1-.1-1.27q.04-.2.13-.36.43-.73.5-1.55L102 58l-.1-.14a.3.3 0 0 0-.13-.1h-.09l-.13-.01-.04-.03a3 3 0 0 1-.43-.58l-.01-.04-.05-.3q-.01-.15.02-.28l.05-.1q.12-.3.36-.5.28-.23.46-.56l.01-.04v-.04l.01-.04v-.04l-.02-.07-.04-.08-.06-.05-.07-.04-.08-.05-.09-.07-.59-.55-.27-.21q.88.02 1.76-.11.9-.15 1.73-.53.7-.33 1.34-.75.7-.45 1.12-1.18.39-.69.63-1.42a124 124 0 0 0 .5 3.78m-7.9.14-.03.05-.02.05v.15l.02.04.09.12.03.03.19.07.22.1a5 5 0 0 0 .7.62l.01.01.04.03q0 .07-.1.18a2 2 0 0 0-.61 1.16l-.08-.27a4 4 0 0 0-.9-1.62 12 12 0 0 0-1-1q.72.18 1.45.28M55.18 97.1l-.04-.02zm49.86-20.98-.05.01.05-.03zm-21.26-9.67-.01.02zm4.94-45.77a1 1 0 0 0-.15.18q-.15.3.16.41l.06.04q.05.02.11.03l.12.04.13.02.72-.01.72-.05q.2-.02.4-.07.15-.05.25-.13.18-.15.03-.33a1.5 1.5 0 0 0-.74-.44 2.17 2.17 0 0 0-1.81.31m.78.12h.03l.12-.02q.3-.04.57-.02.24.03.46.13l-1.22.07h-.31l-.02-.01h-.02zm7.11-.32a3.4 3.4 0 0 0-1.45-.16 2 2 0 0 0-.77.33l-.1.1q-.15.24.12.35.01.15.16.19l.1.03q.18.06.37.1.3.06.6.04h.01q.24 0 .47-.08.22-.06.4-.2l.07-.04q.1-.07.18-.14.2-.18.04-.37a.4.4 0 0 0-.2-.15m-1.76.42.05-.02.16-.08q.3-.11.63-.08.3.04.57.13l-.12.06-.33.1q-.17.02-.34.02h-.12a1 1 0 0 1-.26-.04zm1.42-8.73h-.01l-.02-.01zM113.7.17l-.04-.08q-.09-.11-.24-.08a.2.2 0 0 0-.14.27q.02.06.06.1l.1.05h.07q.09 0 .15-.09a.2.2 0 0 0 .04-.17"/><path fill="#ca6a40" d="m85.14 38.99-1.89.47q-1.16.3-2.3.66a3.9 3.9 0 0 0-2.66 2.64 7 7 0 0 0-.25 3.44l.1.12.04.1.01.12v.06l-.03.15q.3 1.28.52 2.54.23 1.3 1.03 2.37.57.75 1.26 1.4.4.22.82.39a3 3 0 0 0 1.24.22 22 22 0 0 0 2.24-.13h.15l.03.01.52-.06q1.24-.15 2.46-.4l1.6-.47.24-.1a7 7 0 0 0 .77-.46q.26-.3.47-.63.23-.39.37-.81.06-.19.14-.37l.02-.56.07-.7v-.25l.03-.34q.03-.18 0-.37l-.04-.24q.29-1.65-.26-3.29l-.2-.64a16 16 0 0 0-1.1-2.7 29 29 0 0 1-.73-1.52l-.19-.2-.2-.18-.22-.22-.4-.2a9 9 0 0 0-3.66.15m9.92.58-.05.11q-.05.33-.18.83a10 10 0 0 0-.27 1.26q-.27 1.73-.67 3.44-.3 1.2-.15 2.4l.09 1.08q.07 1.47.84 2.74 1.05.82 2.32 1.18.89.24 1.74.52.75.24 1.55.32.7.02 1.41-.03.72-.06 1.4-.2.2-.05.38-.12l-.04.02a7 7 0 0 0 2.35-1.46q.68-.63.94-1.51.52-1.81.36-3.7a94 94 0 0 0-.33-3.21 5.6 5.6 0 0 0-1.07-2.79l-.25-.16-.3-.19-.28-.19-.77-.22a5 5 0 0 1-.8-.29l-.24-.06q-.66-.16-1.3-.28l-1.46-.23q-.3-.04-.54-.23l-1.97.12q-.81.05-1.62.05-.45 0-.85.21a1 1 0 0 0-.14.28z"/><mask id="a" width="56" height="23" x="13" y="17" fill="#000" maskUnits="userSpaceOnUse"><path fill="#fff" d="M13 17h56v23H13z"/><path d="M24.26 37.44q-.85 0-1.3-.82-.52-.98-1.57-2.3l-1.73-2.2q-.86.62-1.42.96-.1 1.5-.1 2.86 0 .62-.42 1.03-.42.4-1.07.4-1.5 0-1.51-1.8 0-.85.12-2.53.12-1.7.12-2.55 0-1.55.05-3.56t.05-3.54q0-.46-.05-1.09-.05-.62-.05-1.1 0-.61.42-1.01t1.07-.41 1.06.4.42 1.03q0 .47.05 1.12.06.64.06 1.11 0 1.29-.07 3.03a65 65 0 0 0-.05 2.99q1.46-1.13 4.45-4.1a1.5 1.5 0 0 1 2.13-.04q.47.45.47 1.02 0 .5-.42.96a36 36 0 0 1-3.02 2.96l2.23 2.88q1.62 2.16 1.62 2.88 0 .6-.47 1-.47.42-1.07.42m6.15-2.02q0 2.04-1.48 2.04-.64 0-1.06-.4a1.4 1.4 0 0 1-.42-1.06V21.14q0-.62.45-1.02.43-.36 1.06-.36t1.04.39q.41.37.41 1zm12 2.29q-.5 0-1.57-1.08-.99.48-1.74.71-.75.25-1.27.25-2.6 0-3.9-1.38-1.28-1.4-1.28-4.15 0-2.59 1.91-4.43a6.4 6.4 0 0 1 4.58-1.84q1.02 0 2.36.58 1.62.69 1.62 1.62 0 .39-.25.67a8 8 0 0 0-.17 1.09q-.05.64-.05 1.51 0 2.06.29 2.96.02.09.5 1.12.4.91.41 1.05 0 .58-.44.94-.43.38-1 .38m-2.66-7.37a8 8 0 0 1 .2-1.78 2 2 0 0 0-.67-.2q-1.47 0-2.56 1.14a3.7 3.7 0 0 0-1.1 2.64q0 1.45.52 2.17.51.72 1.55.72a3.7 3.7 0 0 0 2.38-.87q-.32-2.56-.32-3.82m13.2-1.99-1.06-.03q-.45 0-1.02.09a165 165 0 0 1 .21 6.8q0 2.48-1.56 2.48-.59 0-1.02-.37a1.2 1.2 0 0 1-.47-.96l.03-1.16.03-1.16q0-1.3-.19-5.57-.66-.03-2.02-.17-1.34-.15-1.34-1.4A1.4 1.4 0 0 1 46 25.46q.4 0 1.83.13l-.06-1.14q-.04-.69-.04-1.06 0-.6.44-1 .45-.4 1.06-.4 1.6 0 1.6 2.68l-.03.88a8 8 0 0 1 2.77.06q.86.3.86 1.31 0 .62-.42 1.02-.42.42-1.06.41m12.06 9.36q-.5 0-1.56-1.08-.99.48-1.74.71-.75.25-1.28.25-2.6 0-3.9-1.38-1.28-1.4-1.28-4.15 0-2.59 1.91-4.43a6.4 6.4 0 0 1 4.58-1.84q1.02 0 2.36.58 1.62.69 1.62 1.62 0 .39-.24.67a8 8 0 0 0-.18 1.09q-.05.64-.05 1.51 0 2.06.29 2.96l.5 1.12q.4.91.41 1.05 0 .58-.44.94-.43.38-1 .38m-2.66-7.37a8 8 0 0 1 .2-1.78 2 2 0 0 0-.67-.2q-1.47 0-2.56 1.14a3.7 3.7 0 0 0-1.1 2.64q0 1.45.52 2.17.51.72 1.55.72a3.7 3.7 0 0 0 2.38-.87 34 34 0 0 1-.32-3.82"/></mask><path fill="#000" d="M24.26 37.44q-.85 0-1.3-.82-.52-.98-1.57-2.3l-1.73-2.2q-.86.62-1.42.96-.1 1.5-.1 2.86 0 .62-.42 1.03-.42.4-1.07.4-1.5 0-1.51-1.8 0-.85.12-2.53.12-1.7.12-2.55 0-1.55.05-3.56t.05-3.54q0-.46-.05-1.09-.05-.62-.05-1.1 0-.61.42-1.01t1.07-.41 1.06.4.42 1.03q0 .47.05 1.12.06.64.06 1.11 0 1.29-.07 3.03a65 65 0 0 0-.05 2.99q1.46-1.13 4.45-4.1a1.5 1.5 0 0 1 2.13-.04q.47.45.47 1.02 0 .5-.42.96a36 36 0 0 1-3.02 2.96l2.23 2.88q1.62 2.16 1.62 2.88 0 .6-.47 1-.47.42-1.07.42m6.15-2.02q0 2.04-1.48 2.04-.64 0-1.06-.4a1.4 1.4 0 0 1-.42-1.06V21.14q0-.62.45-1.02.43-.36 1.06-.36t1.04.39q.41.37.41 1zm12 2.29q-.5 0-1.57-1.08-.99.48-1.74.71-.75.25-1.27.25-2.6 0-3.9-1.38-1.28-1.4-1.28-4.15 0-2.59 1.91-4.43a6.4 6.4 0 0 1 4.58-1.84q1.02 0 2.36.58 1.62.69 1.62 1.62 0 .39-.25.67a8 8 0 0 0-.17 1.09q-.05.64-.05 1.51 0 2.06.29 2.96.02.09.5 1.12.4.91.41 1.05 0 .58-.44.94-.43.38-1 .38m-2.66-7.37a8 8 0 0 1 .2-1.78 2 2 0 0 0-.67-.2q-1.47 0-2.56 1.14a3.7 3.7 0 0 0-1.1 2.64q0 1.45.52 2.17.51.72 1.55.72a3.7 3.7 0 0 0 2.38-.87q-.32-2.56-.32-3.82m13.2-1.99-1.06-.03q-.45 0-1.02.09a165 165 0 0 1 .21 6.8q0 2.48-1.56 2.48-.59 0-1.02-.37a1.2 1.2 0 0 1-.47-.96l.03-1.16.03-1.16q0-1.3-.19-5.57-.66-.03-2.02-.17-1.34-.15-1.34-1.4A1.4 1.4 0 0 1 46 25.46q.4 0 1.83.13l-.06-1.14q-.04-.69-.04-1.06 0-.6.44-1 .45-.4 1.06-.4 1.6 0 1.6 2.68l-.03.88a8 8 0 0 1 2.77.06q.86.3.86 1.31 0 .62-.42 1.02-.42.42-1.06.41m12.06 9.36q-.5 0-1.56-1.08-.99.48-1.74.71-.75.25-1.28.25-2.6 0-3.9-1.38-1.28-1.4-1.28-4.15 0-2.59 1.91-4.43a6.4 6.4 0 0 1 4.58-1.84q1.02 0 2.36.58 1.62.69 1.62 1.62 0 .39-.24.67a8 8 0 0 0-.18 1.09q-.05.64-.05 1.51 0 2.06.29 2.96l.5 1.12q.4.91.41 1.05 0 .58-.44.94-.43.38-1 .38m-2.66-7.37a8 8 0 0 1 .2-1.78 2 2 0 0 0-.67-.2q-1.47 0-2.56 1.14a3.7 3.7 0 0 0-1.1 2.64q0 1.45.52 2.17.51.72 1.55.72a3.7 3.7 0 0 0 2.38-.87 34 34 0 0 1-.32-3.82"/><path fill="#e7e7e7" d="m22.97 36.62-1.76.95zm-1.58-2.3-1.57 1.23zm-1.73-2.2 1.6-1.2-1.19-1.6-1.6 1.18zm-1.42.96-1.02-1.72-.9.54-.07 1.04zm-2.98-.04-2-.16v.02zm.17-6.1-2-.06v.01zm0-4.64-2 .14v.04zm.37-2.11 1.38 1.45.01-.01zm2.13 0-1.4 1.43.01.01h.01zm.46 6.28 2 .08zm-.05 2.99-2 .02.03 4.02 3.2-2.46zm4.45-4.1 1.4 1.41h.01zm2.13-.04-1.38 1.45zm.05 1.98-1.48-1.34h-.01zm-3.02 2.96-1.33-1.5-1.4 1.25 1.15 1.48zm2.23 2.88 1.6-1.2v-.01l-.02-.01zm1.15 3.88-1.3-1.51H24v.01zm-1.07.42v-2q.1-.01.32.1c.13.09.17.17.15.13l-1.76.95-1.76.95a3.36 3.36 0 0 0 3.05 1.87zm-1.3-.82 1.77-.94q-.65-1.2-1.77-2.6l-1.57 1.23-1.57 1.24q.98 1.26 1.39 2.02zm-1.57-2.3 1.57-1.24-1.67-2.13-.03-.04-1.6 1.2-1.6 1.2 1.76 2.24zm-1.73-2.2-1.19-1.62q-.82.6-1.25.86l1.02 1.72 1.03 1.72q.68-.41 1.58-1.08zm-1.42.96-2-.14a42 42 0 0 0-.1 3h4q0-1.3.1-2.72zm-.1 2.86h-2q-.01-.04.04-.19.07-.15.14-.21l1.4 1.43 1.4 1.43a3.4 3.4 0 0 0 1.01-2.46zm-.42 1.03-1.4-1.43q.08-.08.2-.13.12-.04.13-.03v4c.9 0 1.77-.3 2.46-.98zm-1.07.4v-2q-.08 0 .08.03.16.07.32.24c.09.1.1.19.1.18l-.01-.25h-4c0 .83.17 1.83.84 2.64a3.4 3.4 0 0 0 2.67 1.17zm-1.51-1.8h2q0-.74.11-2.4l-2-.13-1.99-.14a41 41 0 0 0-.12 2.67zm.12-2.53 1.99.15q.13-1.72.13-2.7h-4q0 .72-.12 2.4zm.12-2.55h2q0-1.54.05-3.51l-2-.05-2-.04-.05 3.6zm.05-3.56 2 .06q.05-2.03.05-3.6h-4q0 1.5-.05 3.5zm.05-3.54h2q0-.57-.06-1.26l-2 .17-1.98.18q.04.56.04.91zm-.05-1.09 2-.13q-.05-.6-.05-.96h-4q0 .55.05 1.23zm-.05-1.1h2q.01.05-.04.2a1 1 0 0 1-.16.24l-1.38-1.45-1.37-1.45a3.3 3.3 0 0 0-1.05 2.47zm.42-1.01 1.4 1.43a1 1 0 0 1-.2.13q-.12.04-.13.03v-4c-.9 0-1.77.3-2.46.98zm1.07-.41v2q0 0-.13-.03a1 1 0 0 1-.2-.13l1.4-1.43 1.39-1.43a3.5 3.5 0 0 0-2.46-.98zm1.06.4-1.38 1.46a.7.7 0 0 1-.2-.43h4c0-.92-.33-1.8-1.04-2.47zm.42 1.03h-2q0 .59.06 1.28l2-.16 1.99-.17q-.05-.59-.05-.95zm.05 1.12-1.99.16q.05.6.05.95h4q0-.57-.06-1.28zm.06 1.11h-2q0 1.22-.07 2.96l2 .07 2 .08q.06-1.78.07-3.1zm-.07 3.03-2-.07a67 67 0 0 0-.05 3.08l2-.02 2-.02q-.01-1.25.05-2.9zm-.05 2.99 1.22 1.58a56 56 0 0 0 4.64-4.27l-1.41-1.41-1.42-1.42a53 53 0 0 1-4.25 3.94zm4.45-4.1 1.41 1.41q0 0-.1.06a1 1 0 0 1-.24.05v-4c-1 0-1.84.42-2.49 1.06zm1.07-.48v2a.5.5 0 0 1-.32-.1l1.38-1.46 1.38-1.44a3.5 3.5 0 0 0-2.44-1zm1.06.44-1.38 1.45-.1-.15a1 1 0 0 1-.05-.28h4c0-.99-.43-1.84-1.09-2.46zm.47 1.02h-2a1 1 0 0 1 .06-.31q.06-.12.04-.07l1.48 1.34 1.48 1.34a3.4 3.4 0 0 0 .94-2.3zm-.42.96-1.5-1.33q-1.16 1.3-2.85 2.8l1.33 1.5 1.32 1.5a38 38 0 0 0 3.19-3.14zm-3.02 2.96-1.58 1.23 2.23 2.88 1.58-1.23 1.58-1.22-2.23-2.88zm2.23 2.88-1.6 1.2a15 15 0 0 1 1.25 1.94c.03.07-.03-.04-.03-.26h4c0-.8-.39-1.57-.66-2.06q-.5-.89-1.36-2.02zm1.62 2.88h-2a.8.8 0 0 1 .22-.51l1.31 1.51 1.3 1.52a3.3 3.3 0 0 0 1.17-2.52zm-.47 1-1.32-1.5.09-.05.16-.03v4c.91 0 1.74-.34 2.4-.92zm2.57-16.9-1.3-1.52v.01l-.02.01zm2.1.03-1.37 1.45h.01l.01.02zm.41 15.27h-2q0 .34-.03.42c-.02.07-.02.02.04-.06q.12-.16.32-.26.2-.08.2-.06v4c1 0 2.03-.38 2.72-1.33.6-.84.75-1.85.75-2.7zm-1.48 2.04v-2q0 0 .13.03.12.05.2.13l-1.4 1.43-1.39 1.44c.7.67 1.57.97 2.46.97zm-1.06-.4 1.4-1.44a.7.7 0 0 1 .18.38h-4c0 .91.31 1.8 1.02 2.49zM27.45 36h2V21.14h-4V36zm0-14.86h2q0 .06-.06.25a1 1 0 0 1-.17.23l-1.32-1.5-1.32-1.5a3.3 3.3 0 0 0-1.13 2.52zm.45-1.02 1.3 1.53-.17.1q-.1 0-.07 0v-4c-.83 0-1.66.26-2.36.85zm1.06-.36v2l-.12-.03a1 1 0 0 1-.21-.13L30 20.15l1.38-1.46a3.5 3.5 0 0 0-2.42-.93zm1.04.39-1.35 1.47a1 1 0 0 1-.19-.28l-.05-.2h4c0-.9-.31-1.79-1.05-2.47zm.41 1h-2v14.27h4V21.14zm10.43 15.48 1.42-1.4-1-1.01-1.28.61zm-1.74.71-.6-1.9h-.02zm-5.16-1.13-1.47 1.36zm.62-8.58 1.39 1.45zm6.94-1.26-.8 1.83zm1.37 2.3-1.52-1.3-.3.35-.12.46zm-.17 1.08-1.99-.2v.03zm.24 4.47-1.9.61v.02zm.5 1.12-1.83.82zm-.03 2-1.3-1.53v.01h-.02zm-3.62-7.78-1.98-.24v.02l-.01.02zm.15-1 1.97.34.26-1.46-1.33-.67zm-.39-.15-.63 1.9.08.02.07.02zm-2.83 1.1 1.44 1.38zm-.58 4.8-1.64 1.16h.01zm2.8.5.69 1.89h.01zm1.13-.65 1.27 1.55.85-.7-.14-1.1zm2.34 3.55v-2c.27 0 .45.07.5.09q.07.04 0-.01a5 5 0 0 1-.65-.57l-1.42 1.41-1.41 1.42q.6.61 1.21 1.04c.34.23.98.62 1.77.62zm-1.57-1.08-.86-1.8q-.9.43-1.48.6l.6 1.91.6 1.91q.94-.3 2-.81zm-1.74.71-.62-1.9c-.4.13-.6.15-.65.15v4c.64 0 1.29-.15 1.9-.35zm-1.27.25v-2c-1.39 0-2.07-.36-2.43-.75l-1.46 1.37-1.46 1.36c1.36 1.46 3.27 2.02 5.35 2.02zm-3.9-1.38 1.47-1.37c-.38-.41-.75-1.22-.75-2.78h-4c0 2.12.49 4.07 1.82 5.5zm-1.28-4.15h2c0-1.17.4-2.13 1.3-2.98l-1.39-1.45-1.39-1.44a8 8 0 0 0-2.52 5.87zm1.91-4.43 1.39 1.44a4.4 4.4 0 0 1 3.19-1.28v-4c-2.3 0-4.32.81-5.97 2.4zm4.58-1.84v2c.31 0 .82.09 1.57.41l.79-1.83.8-1.84a8 8 0 0 0-3.16-.74zm2.36.58-.8 1.83a3 3 0 0 1 .6.33l-.1-.14a1 1 0 0 1-.08-.4h4c0-1.96-1.7-2.97-2.83-3.46zm1.62 1.62h-2a1 1 0 0 1 .23-.62l1.52 1.3 1.53 1.3c.47-.57.72-1.26.72-1.98zm-.25.67-1.94-.48q-.15.62-.22 1.37l2 .2 1.98.2q.06-.57.12-.8zm-.17 1.09-2-.17q-.05.76-.05 1.68h4q0-.81.05-1.34zm-.05 1.51h-2c0 1.4.09 2.65.38 3.57l1.9-.61 1.91-.61c-.09-.29-.2-1-.2-2.35zm.29 2.96-1.9.63.2.5.37.81 1.82-.82 1.82-.83-.44-1 .03.08zm.5 1.12-1.83.82q.2.44.28.64l.03.08-.02-.09a2 2 0 0 1-.05-.4h4c0-.38-.11-.7-.12-.73l-.12-.34q-.14-.34-.36-.81zm.41 1.05h-2q0-.13.08-.33a1 1 0 0 1 .18-.25l1.3 1.52 1.3 1.52a3.2 3.2 0 0 0 1.14-2.46zm-.44.94-1.32-1.5.15-.09.17-.03v4c.87 0 1.67-.3 2.32-.87zm-3.66-6.99h2q0-.22.03-.59l-1.99-.2-1.99-.19q-.05.51-.05.98zm.04-.78 1.99.23q.04-.38.13-.89l-1.97-.34-1.97-.35q-.1.6-.16 1.1zm.15-1 .9-1.8a4 4 0 0 0-.8-.3l-.49 1.95-.48 1.94-.06-.02h.01l.03.02zm-.39-.15.64-1.9a3 3 0 0 0-.91-.16v4a1 1 0 0 1-.36-.05zm-.27-.06v-2c-1.58 0-2.94.65-4 1.77l1.44 1.38 1.45 1.38c.39-.4.73-.53 1.1-.53zm-2.56 1.15-1.44-1.38a5.7 5.7 0 0 0-1.66 4.02h4c0-.45.15-.84.54-1.25zm-1.1 2.64h-2c0 1.15.2 2.35.88 3.33l1.64-1.16 1.63-1.15q0 .03-.07-.22a4 4 0 0 1-.08-.8zm.52 2.17-1.63 1.17a3.8 3.8 0 0 0 3.18 1.55v-4q-.16-.02-.06.01l.13.11zm1.55.72v2q1 0 1.94-.33l-.69-1.88-.68-1.88q-.24.1-.57.1zm1.25-.21.7 1.87a6 6 0 0 0 1.7-.98l-1.27-1.55-1.26-1.55a2 2 0 0 1-.57.34zm1.13-.66 1.98-.25q-.3-2.51-.3-3.57h-4q0 1.48.34 4.07zm12.34-5.82-.14 2h.07zm-1.54.07-.3-1.98-1.78.26.08 1.8zm.2 6.2-2 .05zm-2.57 2.71 1.3-1.52-.02-.01-.01-.02zm-.6-8.85 2-.09-.08-1.82-1.82-.09zm-2.02-.17-.22 1.99h.02zm1.95-2.7-.18 1.98 2.25.2-.07-2.25zm-.06-1.15 2-.1v-.02zm3.05.22 2 .05v-.05zm-.02.88-2-.05-.06 2.37 2.35-.34zm2.77.06-.67 1.89h.01zm-.62 2.74v-2h-.47l-.07 2-.07 2h.61zm-.54 0 .15-2-.67-.03v4q.13 0 .38.02zm-.52-.03v-2q-.63 0-1.32.1l.3 1.99.29 1.97q.48-.06.73-.06zm-1.02.09-2 .09q.2 4.34.19 5.58h4q0-1.43-.2-5.76zm.19 5.67h-2l.01.58 2-.06 2-.05-.01-.47zm.01.52-2 .06.01.56h4l-.01-.67zm.01.62h-2q0 .46-.05.67-.06.2-.03.11a.7.7 0 0 1 .52-.31v4c1.15 0 2.2-.52 2.86-1.55.56-.89.7-1.95.7-2.92zm-1.56 2.47v-2l.13.02.15.09-1.3 1.52-1.3 1.53c.67.56 1.48.84 2.32.84zm-1.02-.37 1.27-1.55q.06.04.18.24.09.2.08.35h-4c0 1.02.46 1.9 1.2 2.51zm-.47-.96h2q0-.32.03-1.08l-2-.08-2-.09-.03 1.25zm.03-1.16 2 .08.03-1.24h-4q0 .31-.03 1.07zm.03-1.16h2q0-1.4-.2-5.66l-1.99.1-2 .08q.2 4.27.2 5.48zm-.19-5.57.1-2q-.58-.03-1.91-.16l-.2 1.99-.21 1.99q1.36.14 2.12.18zm-2.02-.17.22-1.99c-.16-.02 0-.04.22.18q.14.16.2.31l.02.1h-4c0 .78.22 1.66.9 2.36.65.68 1.49.94 2.22 1.03zm-1.34-1.4h2q.01.05-.04.19a1 1 0 0 1-.12.19l-1.43-1.4-1.44-1.4a3.4 3.4 0 0 0-.97 2.42zm.4-1.02 1.44 1.4a1 1 0 0 1-.23.15l-.15.03v-4c-.9 0-1.8.32-2.49 1.03zm1.06-.42v2c.16 0 .67.04 1.65.12l.18-1.99.18-1.99c-.93-.08-1.64-.14-2.01-.14zm1.83.13 2-.06-.06-1.18-2 .1-2 .11.06 1.1zm-.06-1.14 2-.12q-.04-.67-.04-.94h-4q0 .47.05 1.19zm-.04-1.06h2q0 .08-.06.26a1 1 0 0 1-.16.23l-1.34-1.49-1.34-1.48a3.3 3.3 0 0 0-1.1 2.48zm.44-1 1.34 1.49a.5.5 0 0 1-.28.11v-4c-.88 0-1.72.3-2.4.92zm1.06-.4v2c-.02 0-.13 0-.28-.09a1 1 0 0 1-.24-.22q-.01-.04.05.2.06.27.06.79h4c0-1.03-.14-2.13-.67-3.03a3.3 3.3 0 0 0-2.92-1.65zm1.6 2.68-2-.05-.03.88 2 .05 2 .05.02-.88zm-.03.88.29 1.98q.59-.08.8-.08v-4q-.64 0-1.38.12zm1.09-.1v2q.55 0 .85.03c.22.02.24.05.16.02l.67-1.89.68-1.88a8 8 0 0 0-2.36-.28zm1.68.16-.66 1.9a1 1 0 0 1-.36-.32c-.13-.2-.12-.32-.12-.27h4a3.22 3.22 0 0 0-2.2-3.2zm.86 1.31h-2q-.01-.04.05-.2.07-.15.14-.2l1.4 1.42 1.39 1.44a3.4 3.4 0 0 0 1.02-2.46zm-.42 1.02-1.4-1.43q.09-.08.21-.13.13-.04.13-.03v4c.9 0 1.77-.3 2.46-.97zm9.44 8.7 1.4-1.42-1-1-1.27.61zm-1.74.7-.6-1.9h-.02zm-5.17-1.13-1.47 1.36zm.62-8.58 1.39 1.45zm6.94-1.26-.8 1.83h.01zm1.38 2.3-1.53-1.3-.3.35-.11.46zm-.18 1.08-1.99-.2v.03zm.24 4.47-1.9.61v.02zm.5 1.12-1.83.82zm-.03 2-1.3-1.53v.01h-.01zm-3.62-7.78-1.98-.24v.04zm.15-1 1.97.34.26-1.46-1.33-.67zm-.38-.15-.64 1.9.08.02.07.02zm-2.84 1.1 1.44 1.38zm-.58 4.8-1.63 1.16zm2.8.5.69 1.89h.02zm1.13-.65 1.27 1.55.85-.7-.13-1.1zm2.34 3.55v-2c.27 0 .45.07.5.09q.08.04 0-.01a5 5 0 0 1-.65-.57l-1.41 1.41-1.42 1.42q.6.61 1.21 1.04c.34.23.98.62 1.77.62zm-1.56-1.08-.87-1.8q-.9.43-1.47.6l.6 1.91.6 1.91q.92-.3 2-.81zm-1.74.71-.63-1.9c-.39.13-.6.15-.65.15v4c.64 0 1.29-.15 1.9-.35zm-1.28.25v-2c-1.38 0-2.07-.36-2.43-.75l-1.46 1.37-1.46 1.36c1.37 1.46 3.28 2.02 5.35 2.02zm-3.9-1.38L58 34.84c-.38-.41-.75-1.22-.75-2.78h-4c0 2.12.5 4.07 1.82 5.5zm-1.28-4.15h2c0-1.17.4-2.13 1.3-2.98l-1.39-1.45-1.38-1.44a8 8 0 0 0-2.53 5.87zm1.91-4.43 1.4 1.44a4.4 4.4 0 0 1 3.18-1.28v-4c-2.3 0-4.32.81-5.97 2.4zm4.58-1.84v2c.31 0 .82.09 1.57.41l.8-1.83.78-1.84a8 8 0 0 0-3.15-.74zm2.36.58-.79 1.83a3 3 0 0 1 .6.33q-.01 0-.1-.14a1 1 0 0 1-.09-.4h4c0-1.96-1.7-2.97-2.83-3.46zm1.62 1.62h-2a1 1 0 0 1 .23-.62l1.53 1.3 1.52 1.3c.48-.57.72-1.26.72-1.98zm-.24.67-1.94-.48q-.15.62-.23 1.37l2 .2 1.98.2q.07-.57.13-.8zm-.18 1.09-1.99-.17q-.06.76-.06 1.68h4q0-.81.05-1.34zm-.05 1.51h-2c0 1.4.09 2.65.39 3.57l1.9-.61 1.9-.61c-.09-.29-.19-1-.19-2.35zm.29 2.96-1.9.63a113.86 113.86 0 0 0 .57 1.3l1.82-.81 1.83-.83-.45-1 .03.08zm.5 1.12-1.83.82q.2.44.28.64l.03.08-.02-.09a2 2 0 0 1-.05-.4h4c0-.38-.1-.7-.12-.73l-.12-.34-.35-.81zm.41 1.05h-2q0-.13.08-.33a1 1 0 0 1 .18-.25l1.3 1.52 1.3 1.52a3.2 3.2 0 0 0 1.14-2.46zm-.44.94-1.31-1.5.14-.09.17-.03v4c.87 0 1.67-.3 2.32-.87zm-3.66-6.99h2q0-.22.03-.59l-1.99-.2-1.99-.19q-.05.51-.05.98zm.04-.78 1.99.23q.04-.38.13-.89l-1.97-.34-1.97-.35q-.1.6-.16 1.1zm.15-1 .9-1.8q-.35-.16-.8-.3l-.48 1.95-.49 1.94-.06-.02h.01l.03.02zm-.38-.15.63-1.9a3 3 0 0 0-.91-.16v4a1 1 0 0 1-.36-.05zm-.28-.06v-2c-1.57 0-2.94.65-4 1.77l1.44 1.38 1.45 1.38c.39-.4.73-.53 1.1-.53zm-2.56 1.15-1.44-1.38a5.7 5.7 0 0 0-1.66 4.02h4c0-.45.15-.84.54-1.25zm-1.1 2.64h-2c0 1.15.2 2.35.89 3.33l1.63-1.16 1.63-1.15q0 .03-.07-.22a4 4 0 0 1-.08-.8zm.52 2.17-1.63 1.17a3.8 3.8 0 0 0 3.18 1.55v-4q-.16-.02-.06.01a.4.4 0 0 1 .14.11zm1.55.72v2q1 0 1.94-.33l-.69-1.88-.68-1.88q-.24.1-.57.1zm1.25-.21.7 1.87a6 6 0 0 0 1.7-.98l-1.27-1.55-1.26-1.55a2 2 0 0 1-.57.34zm1.13-.66 1.99-.25a32 32 0 0 1-.31-3.57h-4q0 1.48.34 4.07z" mask="url(#a)"/><path fill="#fff" d="M14 62a8 8 0 0 1 8-8h9a8 8 0 0 1 8 8v9a8 8 0 0 1-8 8h-9a8 8 0 0 1-8-8z"/><path fill="#000" d="m23.13 54.22-.2.98zm2.25.27.03 1zm.75-.03.03 1zm.75-.22.5.86zm.75-.43-.5-.87zm2.62-.04-.29.95zm.38.1.28-.95zm1.44.47.31-.95zm2.32.03-.8.58zm.25.35-.8.58zm.26.35.8-.58zm.56.54.52-.85zm.32.2-.51.85zm1 .57-.47.88zm.36.19.47-.88zm.37.2-.47.88zm.47.57-.96.28zm.12.39.96-.28zm.25 1.16 1-.08zm.05.76-1 .07zm.06.74 1-.07zm.05.72-1 .07zm.03.72 1-.03zm.02.74-1 .02zm.21.74.89-.46zm.39.75-.89.46zm.12.75.98.2zm-.08.37-.98-.2zm-.07.38.98.2zm.05.75-.95.32zm.25.75.95-.33zm-.13.75.82.58zm-.27.37-.81-.57zm-.28 2.64.92-.38zm.3.76-.92.37zm0 .74-.91-.4zm-.16.35.92.4zm-.15.36-.92-.4zm-.36.66.84.54zm-.2.32-.84-.54zm-.2.3-.84-.53zm-.4.62-.83-.55zm-.4.6-.83-.56zm-.43.58-.77-.65zm-.47.55-.76-.64zm-.44.66.89.47zm-.2.38-.88-.46zm-.2.38.89.47zm-.98.56-.22-.98zm-.4.09.22.97zm-.79.03-.14.99zm-.79-.12.14-.99zm-.76.12-.43-.9zm-.72.34.43.9zm-.74-.04-.5.87zm-.75-.43.5-.87zm-.75-.15.18.99zm-.38.07.19.99zm-.37.07-.18-.98zm-.75.1.06 1zm-.75.04-.06-1zm-.75-.06.22-.98zm-.75-.17-.22.97zm-.75.12-.48-.88zm-.38.2.49.88zm-.37.21.48.88zm-.75.17-.1 1zm-.38-.04-.1 1zm-.38-.04.1-1zm-.76-.02.04 1zm-.79.03.04 1zm-.77-.1-.3.96zm-.38-.12-.3.96zm-.37-.11.29-.96zm-.6-.48.85-.53zm-.23-.37.85-.52zm-.22-.37-.86.52zm-.54-.56.52-.85zm-.31-.19-.52.86zm-.32-.19.52-.85zm-.67-.38-.48.87zm-1.16-1 .99-.18zm-.15-.79-.98.19zm-.28-.73-.85.53zm-.42-.67.85-.53zm.03-1.12.96.29zm.12-.4-.96-.28zm-.1-.76.88-.49zm-.41-.75.87-.48zm0-.74-.86-.5zm.44-.75-.87-.5zm.03-.75.9-.44zm-.36-.75-.9.43zm-.08-5.25-.9-.44zm.19-.36.9.44zm.9-2.49.89.46zm.57-1.4.99.18zm.15-.84-.98-.18zm1.12-1.03-.5-.86zm.68-.4-.51-.86zm1.34-.73-.37-.92zm1.46-.33-.24.98zm.78.2-.24.97zm.57-.2.85.54zm.36-.56-.84-.54zm.55.38-.19.98zm.38.08-.2.98.38.07.2-.98.19-.98-.38-.07zm.38.07-.2.98.8.14.14-1 .14-.99-.7-.11zm.75.12-.14 1 .37.05.14-1 .14-.98-.38-.06zm.37.06-.14.99.38.05.14-1 .13-.98-.37-.05zm.38.05-.14.99q.45.06.92.05l-.04-1-.03-1q-.28 0-.58-.03zm.75.04.03 1 .37-.01-.03-1-.03-1h-.38zm.37-.01.03 1 .38-.02-.04-1-.03-1-.37.02zm.38-.02.03 1q.65-.02 1.21-.36l-.5-.86-.5-.87a1 1 0 0 1-.28.1zm.75-.22.5.86.37-.21-.5-.87-.5-.86-.37.21zm.37-.22.5.87.37-.22-.5-.86-.5-.87-.37.22zm.38-.21.5.86a1 1 0 0 1 .28-.1l-.04-1-.03-1a2.6 2.6 0 0 0-1.21.37zm.75-.23.03 1 .37-.01-.03-1-.03-1h-.38zm.37-.01.03 1 .38-.02-.04-1-.03-1-.37.02zm.38-.02.03 1q.2 0 .43.06l.29-.96.28-.95q-.52-.16-1.07-.15zm.75.1-.3.96.38.11.29-.95.29-.96-.38-.11zm.37.12-.29.95.38.12.29-.96.28-.96-.37-.11zm.38.1-.3.97.72.22.3-.95.32-.95q-.37-.13-.76-.24zm.73.24-.31.95.36.11.3-.95.32-.95-.36-.11zm.36.11-.31.95.35.12.31-.95.31-.95-.35-.12zm.35.12-.3.95q.67.21 1.34.03l-.25-.97-.25-.97q-.19.04-.23 0zm.79 0 .25.98.42-.11-.24-.97-.25-.97-.43.1zm.43-.1.24.97.43-.11-.25-.97-.24-.97-.43.1zm.42-.11.25.97s-.08.02-.2-.02a.4.4 0 0 1-.18-.13l.81-.58.82-.58a1.6 1.6 0 0 0-.78-.6c-.34-.12-.67-.1-.96-.03zm.68.24-.8.58.24.35.81-.58.82-.58-.25-.35zm.25.35-.8.58.24.35.82-.58.8-.58-.24-.35zm.26.35-.82.58q.35.5.87.82l.51-.86.52-.85a1 1 0 0 1-.27-.27zm.56.54-.51.86.32.19.51-.86.52-.85-.32-.2zm.32.2-.51.85.31.19.52-.86.52-.85-.32-.2zm.32.18-.52.86q.34.21.73.41l.47-.88.47-.89-.63-.35zm.68.39-.47.88.37.2.46-.89.47-.88-.36-.2zm.36.19-.46.88.36.2.47-.89.46-.88-.36-.2zm.37.2-.47.88v-.01l-.02-.02.96-.28.96-.28q-.24-.8-.97-1.18zm.47.57-.96.28.11.39.97-.28.96-.28-.12-.39zm.12.39-.97.28.12.38.96-.28.96-.27-.11-.4zm.1.38-.95.28q.08.3.1.57l1-.07 1-.08a5 5 0 0 0-.18-.97zm.15.78-1 .07.03.38 1-.07 1-.07-.03-.39zm.03.38-1 .07.03.38 1-.07.99-.07-.03-.38zm.02.38-1 .07.06.75 1-.08 1-.07-.06-.74zm.06.74-1 .08.02.35 1-.07 1-.07-.03-.36zm.02.36-1 .07.03.36 1-.07 1-.07-.03-.36zm.03.36-1 .07q.03.33.03.68l1-.03 1-.03q0-.39-.03-.76zm.03.72-1 .03.01.37 1-.03 1-.03v-.37zm.01.37-1 .03.01.36 1-.02 1-.03v-.37zm.01.37-1 .02q.03.63.32 1.18l.89-.46.89-.46a1 1 0 0 1-.1-.31zm.21.74-.89.46.2.37.88-.46.9-.46-.2-.37zm.2.37-.9.46.2.38.89-.46.89-.46-.2-.38zm.19.38-.89.46.03.07v.02l.98.2.98.2q.13-.76-.21-1.41zm.12.75-.98-.2-.08.37.98.2.98.2.08-.37zm-.08.37-.98-.2-.07.38.98.2.98.2.07-.38zm-.07.38-.98-.2q-.14.65.08 1.27l.95-.32.94-.33a.4.4 0 0 1-.01-.22zm.05.75-.95.32.13.38.95-.33.94-.32-.13-.38zm.13.37-.95.33.13.37.94-.32.95-.33-.13-.37zm.12.38-.94.32-.01-.05v-.08q.02-.06 0-.02l.82.58.82.58a1.8 1.8 0 0 0 .26-1.66zm-.13.75-.82-.58-.26.38.81.57.82.58.27-.37zm-.27.37-.81-.57-.27.37.82.58.82.58.26-.38zm-.26.38-.82-.58c-.28.4-.45.86-.42 1.39l1-.06 1-.06q0-.03.06-.11zm-.24.75-1 .06.02.37 1-.06 1-.06-.03-.37zm.02.37-1 .06.02.38 1-.06 1-.06-.02-.38zm.02.38-1 .06q.03.54.25 1.07l.93-.37.92-.38a1 1 0 0 1-.1-.44zm.18.76-.93.37.15.38.93-.37.93-.38-.16-.38zm.15.38-.93.37.16.38.92-.37.93-.37-.15-.39zm.15.38-.92.37v.02-.05l.92.4.92.4q.31-.77.01-1.51zm0 .74-.91-.4-.16.35.91.4.92.4.16-.35zm-.16.35-.91-.4-.16.35.92.4.91.4.16-.35zm-.15.36-.92-.4q-.12.27-.28.52l.84.54.84.54q.24-.38.43-.8zm-.36.66-.84-.54-.2.32.84.54.84.53.2-.31zm-.2.32-.84-.54-.2.31.84.54.85.54.2-.32zm-.2.3-.84-.53-.39.6.83.55.83.56.42-.63zm-.4.62-.83-.55-.2.3.83.55.83.56.2-.3zm-.2.3-.83-.56-.2.3.83.56.83.55.2-.3zm-.2.3-.83-.56q-.16.25-.37.5l.77.64.76.64q.27-.31.5-.67zm-.43.58-.77-.65-.23.28.76.64.77.65.23-.28zm-.24.27-.76-.64-.23.28.76.64.76.65.24-.28zm-.23.28-.76-.64q-.33.38-.56.84l.88.46.89.47q.16-.3.31-.48zm-.44.66-.88-.46-.2.38.88.46.89.47.2-.38zm-.2.38-.88-.46-.2.38.88.46.89.47.2-.38zm-.2.38-.88-.46.01-.01.06-.03.22.97.21.98c.58-.13 1-.49 1.27-.98zm-.6.47-.2-.97-.4.08.22.98.21.98.4-.1zm-.38.09-.22-.98-.4.09.22.98.22.97.4-.08zm-.4.09-.21-.98a1 1 0 0 1-.44.02l-.14.99-.14.99q.58.08 1.15-.05zm-.79.03.14-1-.4-.05-.13.99-.15.99.4.06zm-.4-.06.15-.99-.4-.06-.14 1-.14.98.4.06zm-.39-.06.14-.99a2.3 2.3 0 0 0-1.33.2l.43.9.43.91a.3.3 0 0 1 .19-.03zm-.76.12-.43-.9-.36.17.43.9.43.9.36-.17zm-.36.17-.43-.9-.36.17.43.9.43.9.36-.17zm-.36.17-.43-.9.12-.02.07.01-.5.87-.5.87c.5.29 1.1.34 1.67.08zm-.74-.04.5-.87-.38-.21-.5.86-.5.87.38.22zm-.38-.22.5-.86-.37-.22-.5.87-.5.87.38.21zm-.37-.21.5-.87a2 2 0 0 0-1.43-.26l.18.98.18.99q0 0 .07.03zm-.75-.15-.18-.98-.38.07.18.98.19.99.37-.07zm-.38.07-.18-.98-.37.07.18.98.18.99.38-.07zm-.37.07-.18-.98q-.32.06-.63.08l.06 1 .06 1q.44-.03.87-.11zm-.75.1-.06-1-.38.02.06 1 .06 1 .38-.03zm-.38.02-.06-1-.37.02.06 1 .06 1 .37-.02zm-.37.02-.06-1q-.23.02-.47-.04l-.22.98-.22.97q.5.11 1.03.09zm-.75-.06.22-.98-.37-.08-.23.97-.22.98.38.08zm-.38-.09.23-.97-.38-.09-.22.98-.22.97.37.09zm-.37-.08.22-.98a2 2 0 0 0-1.45.22l.48.88.48.87.04-.02h.01zm-.75.12-.48-.88-.38.21.48.88.49.87.37-.2zm-.38.2-.48-.87-.37.2.48.88.48.88.38-.2zm-.37.21-.48-.87q-.14.06-.17.05l-.1.99-.1 1q.72.05 1.33-.3zm-.75.17.1-1-.38-.03-.1 1-.1.99.37.03zm-.38-.04.1-1-.37-.03-.1 1-.1.99.37.04zm-.38-.04.1-1q-.45-.03-.9-.02l.04 1 .04 1q.32-.01.62.02zm-.76-.02-.05-1-.39.02.04 1 .04 1 .4-.02zm-.4.01-.04-1-.4.02.05 1 .04 1 .4-.02zm-.39.02-.04-1q-.23 0-.44-.05l-.29.95-.3.96q.55.16 1.11.14zm-.77-.1.3-.95-.38-.12-.3.95-.3.96.39.12zm-.38-.12.3-.95-.38-.12-.3.96-.29.95.38.12zm-.37-.11.29-.96-.04-.05-.86.53-.85.52q.4.67 1.16.91zm-.6-.48.85-.53-.23-.36-.85.52-.85.52.22.37zm-.23-.37.85-.52-.22-.37-.85.52-.86.52.23.37zm-.22-.37.85-.52q-.32-.55-.87-.89l-.52.85-.52.86q.08.04.2.22zm-.54-.56.52-.85-.31-.19-.52.85-.52.86.31.19zm-.31-.19.52-.85-.32-.19-.52.85-.52.86.32.19zm-.32-.19.52-.85-.7-.41-.49.88-.48.87.63.37zm-.67-.38.48-.88-.36-.2-.48.88-.48.87.36.2zm-.36-.2.48-.88-.36-.2-.48.88-.48.87.36.2zm-.36-.2.48-.88.04.04.02.04v.02l-.98.18-.98.2c.1.55.44 1 .94 1.27zm-.44-.6.99-.18-.08-.4-.98.19-.99.19.08.4zm-.07-.4.98-.18-.08-.4-.98.2-.98.18.07.4zm-.08-.39.98-.19a3 3 0 0 0-.41-1.07l-.85.53-.85.53q.1.16.15.39zm-.28-.73.85-.53-.21-.33-.85.53-.85.52.2.34zm-.21-.33.85-.53-.2-.34-.86.53-.85.53.21.33zm-.2-.34.84-.53v.02l.02.04v.03l-.96-.29-.96-.29q-.24.81.2 1.55zm-.1-.73.96.29.12-.4-.96-.28-.96-.29-.12.4zm.12-.4.96.3.11-.4-.95-.28-.96-.3-.12.4zm.12-.38.95.28q.24-.8-.17-1.54l-.87.5-.88.48.01.02v-.03zm-.1-.77.88-.49-.21-.37-.87.49-.88.49.21.37zm-.2-.37.87-.5-.21-.36-.87.48-.87.5.2.37zm-.21-.38.87-.48q.02 0 .02.12v.08l-.02.03-.87-.5-.86-.5a1.7 1.7 0 0 0-.01 1.74zm0-.74.87.5.22-.38-.87-.5-.87-.5-.21.38zm.22-.38.87.5.21-.38-.86-.5-.87-.5-.22.38zm.22-.37.86.5c.3-.53.34-1.13.07-1.69l-.9.44-.9.43-.02-.1q.02-.1.02-.08zm.03-.75.9-.44-.18-.37-.9.43-.9.43.18.38zm-.18-.38.9-.43-.18-.38-.9.44-.9.43.18.37zm-.18-.37.9-.44-.01-.03-.96-.28-.96-.28q-.21.76.13 1.46zm-.07-.75.96.27.1-.37-.95-.28-.96-.28-.11.38zm.1-.38.97.28.1-.38-.95-.27-.96-.28-.11.37zm.12-.37.96.27q.12-.41.2-.82l-.98-.2-.98-.2q-.06.33-.16.67zm.18-.75.98.2.08-.38-.98-.2-.98-.2-.08.38zm.08-.38.98.2.07-.37-.98-.2-.98-.2-.07.37zm.07-.37.98.2q.13-.78-.23-1.43l-.88.48-.87.48.02.06zm-.13-.75.88-.48-.2-.38-.88.48-.88.48.2.38zm-.2-.38.88-.48-.2-.37-.89.48-.87.48.2.37zm-.2-.37.87-.48.02.07q-.01.1-.02.11l-.9-.45-.9-.44c-.27.55-.24 1.14.05 1.67zm-.03-.75.9.45.18-.37-.9-.44-.89-.45-.18.37zm.19-.36.9.44.18-.36-.9-.45-.9-.45-.18.37zm.18-.37.9.45q.23-.45.35-.93l-.97-.25-.97-.24q-.05.24-.2.52zm.28-.73.97.25.09-.35-.97-.25-.97-.25-.1.36zm.09-.35.97.25.09-.36-.97-.25-.97-.24-.1.35zm.09-.36.97.25q.06-.25.18-.47l-.9-.46-.88-.46q-.22.44-.34.9zm.26-.68.89.46.16-.33-.89-.46-.89-.45-.16.32zm.16-.33.9.46.16-.33-.89-.45-.89-.46-.17.33zm.17-.32.89.45q.24-.48.34-1.02l-.99-.18-.98-.18q-.06.3-.15.47zm.24-.75.99.18.07-.42-.98-.18-.99-.18-.07.42zm.08-.42.98.18.08-.42-.99-.18-.98-.18-.08.42zm.07-.42.99.18-.01.02-.04.04-.51-.86-.51-.86c-.5.29-.8.76-.9 1.3zm.43-.62.5.86.35-.2-.5-.87-.51-.86-.35.2zm.34-.2.51.86.35-.2-.51-.87-.5-.86-.35.2zm.35-.21.5.86.69-.4-.51-.86-.51-.86-.68.4zm.68-.4.5.86.34-.2-.51-.85-.51-.86-.33.2zm.33-.2.5.87.34-.2-.51-.86-.51-.86-.33.2zm.33-.19.5.86q.27-.16.55-.27l-.37-.93-.37-.92q-.42.16-.82.4zm.68-.34.37.93.36-.14-.37-.93-.37-.93-.36.15zm.36-.14.37.93.35-.14-.37-.93-.37-.93-.35.14zm.35-.14.37.93q.05-.02.14 0l.24-.98.23-.97a2.2 2.2 0 0 0-1.35.1zm.75-.05-.24.98.4.1.23-.98.23-.97-.39-.1zm.39.1-.24.97.4.1.23-.98.23-.97-.39-.1zm.39.1-.24.97c.26.06.57.08.9-.03s.59-.34.76-.6l-.85-.54-.84-.53a.6.6 0 0 1 .3-.23q.2-.04.2-.02zm.57-.2.85.54.18-.29-.85-.53-.84-.53-.18.28zm.18-.28.85.53.18-.28-.85-.53-.84-.54-.18.29zm.18-.28.85.53.02-.04-.03.03-.1.1a.98.98 0 0 1-1.53-.56l-.03-.2h2q0-.08-.03-.26a1.02 1.02 0 0 0-1.61-.58q-.2.16-.25.25-.08.1-.13.2zm.18-.14h-1v.15h2v-.15zm0 .15h-1v.15h2v-.15zm0 .15h-1c0 .55.37.86.58.99.21.12.44.18.6.21l.2-.98.19-.98c-.09-.01-.05-.02.03.03q.09.04.24.22.16.2.16.51zm.38.22-.2.98.38.08.19-.98.2-.98-.38-.08z"/><path stroke="#000" stroke-linecap="round" stroke-width="2" d="M21 71.14c1.06 2.94 4.26 4.93 5.23 3.24C27.85 71.52 31.43 59.72 32 58"/></svg>