<svg xmlns="http://www.w3.org/2000/svg" width="134" height="100" fill="none" viewBox="0 0 134 100"><g clip-path="url(#a)"><rect width="134" height="100" fill="#eee" rx="15"/><path fill="#fff" d="M14 61.33a8 8 0 0 1 8-8h9a8 8 0 0 1 8 8v9a8 8 0 0 1-8 8h-9a8 8 0 0 1-8-8z"/><path fill="#000" d="m28.78 53.9-.37.01a1 1 0 0 0-.29.1l-.37.21-.37.21a2.6 2.6 0 0 1-1.22.36l-.38.02h-.37q-.45.02-.92-.04l-.37-.05-.38-.05-.81-.13-.38-.08-.37-.07-.09-.03q-.22.24-.54.36c-.33.11-.64.09-.9.03l-.77-.19q-.1-.02-.15 0l-.36.15-.35.14q-.28.1-.54.26l-.33.2-.34.2-.67.4-.35.2-.3.17-.07.39-.08.42q-.09.54-.33 1.02l-.17.33-.17.33q-.1.22-.17.47l-.19.72q-.12.47-.34.92l-.19.37-.14.26.16.3.22.37q.37.66.22 1.43l-.08.37-.07.38q-.08.41-.2.82l-.22.75v.01l.01.03.18.38.19.37c.27.57.23 1.17-.07 1.7l-.22.37-.16.25.15.25.21.38q.4.72.17 1.54l-.11.39-.11.34.18.3.2.34q.31.48.42 1.07l.08.4.06.32.31.17.36.2.71.41.32.2.3.19q.56.34.88.89l.22.36.23.36.03.05.38.13.39.1q.2.07.43.07l.4-.02.39-.01q.45-.03.9.02l.76.08q.03.01.16-.05l.38-.21.37-.2q.5-.28 1.07-.28l.4.06.37.08.37.08q.23.06.47.04l.37-.01.38-.03q.3-.02.63-.08l.75-.14c.51-.1 1 .02 1.43.27l.37.21.3.17.25-.12.36-.17q.64-.3 1.34-.2l.39.05.4.06q.21.03.42-.02l.4-.08.32-.08.2-.35.2-.39q.24-.45.56-.83l.23-.27.23-.29q.2-.23.37-.48l.2-.3.6-.9.19-.3.2-.32q.16-.24.28-.53l.16-.36.14-.33-.15-.37-.15-.38a3 3 0 0 1-.25-1.07l-.02-.37-.02-.38c-.03-.52.15-.99.42-1.38l.27-.38.23-.33-.1-.27-.12-.37a2.4 2.4 0 0 1-.08-1.28l.07-.37.08-.38v-.02q0-.02-.03-.07l-.39-.75a3 3 0 0 1-.32-1.17l-.01-.74-.04-.68-.03-.36-.02-.35-.05-.74-.03-.38-.03-.4a3 3 0 0 0-.1-.56l-.12-.38-.1-.37-.36-.18-.36-.2-.72-.4-.32-.2-.32-.19q-.52-.32-.86-.81l-.25-.35-.11-.15-.2.05-.42.1q-.67.2-1.34-.02l-.72-.23-.71-.22-.38-.11-.37-.12q-.23-.06-.43-.05zm-7.67-1.6q.06-.1.25-.26c.06-.04.2-.15.42-.2.27-.04.61.01.88.26a1 1 0 0 1 .26.4h.03l.37.08.69.1.37.06.38.05.58.03.75-.02q.1 0 .29-.1l.37-.21.38-.22a2.6 2.6 0 0 1 1.21-.36h.38l.37-.02q.56-.02 1.07.14l.38.1.37.13.76.23.35.12.36.11q.04.03.23-.01l.86-.22.46-.06q.24 0 .5.1.51.2.77.6l.25.34.26.35q.16.2.27.27l.32.19.32.2.63.35.36.2.37.19q.72.38.97 1.18l.1.38.11.39q.15.48.18.98l.03.38.03.38.05.74.03.36.03.36.04.77.01.73q0 .1.1.3l.39.76q.34.65.2 1.41l-.15.75q-.01.1.02.23l.13.37.13.38c.2.6.06 1.18-.26 1.65l-.53.75-.07.1v.01l.05.75q0 .2.1.45l.16.37.15.39q.3.74-.01 1.51l-.16.36-.15.35q-.2.42-.43.8l-.2.32-.2.31-.42.63-.2.3-.2.3q-.22.35-.5.66l-.23.28-.23.28q-.16.18-.32.48l-.2.38-.2.38c-.26.5-.7.86-1.27.98l-.78.18q-.57.12-1.15.04l-.4-.06-.4-.05a.3.3 0 0 0-.18.03l-.36.17-.37.17c-.56.27-1.15.21-1.66-.08l-.75-.43-.06-.03-.75.14q-.45.09-.88.1l-.75.05q-.53.03-1.03-.08l-.75-.18v.01q-.03 0-.05.02l-.37.2-.38.21q-.6.35-1.33.29l-.38-.04-.38-.04q-.3-.03-.63-.02l-.78.03a3 3 0 0 1-1.1-.14l-.76-.24q-.76-.25-1.16-.91l-.22-.37-.23-.36a1 1 0 0 0-.2-.23l-.62-.38-.65-.36-.35-.2-.36-.2q-.76-.42-.94-1.28l-.07-.4-.08-.4a1 1 0 0 0-.15-.39l-.42-.67a1.9 1.9 0 0 1-.2-1.54l.12-.4.11-.37-.2-.38-.21-.37a1.7 1.7 0 0 1 0-1.74l.22-.37.18-.3-.14-.27-.18-.38a2 2 0 0 1-.13-1.46l.22-.75q.1-.34.16-.67l.08-.38.07-.37v-.01l-.02-.06-.2-.38-.22-.37a1.8 1.8 0 0 1-.03-1.67l.18-.37.19-.37q.14-.28.2-.52l.09-.35.1-.36q.1-.46.33-.9l.33-.65q.1-.17.15-.46l.07-.42.08-.42.11-.4q.23-.57.79-.9l.34-.21.36-.2.67-.4.32-.2.34-.2q.4-.23.82-.4l.35-.14.36-.14q.67-.26 1.35-.1l.4.1.08.02.16-.25z"/><path stroke="#000" stroke-linecap="round" stroke-width="2" d="M21 70.47c1.06 2.94 4.26 4.94 5.23 3.24 1.62-2.86 5.2-14.66 5.77-16.38"/><path fill="#000" d="M118.4 65.92a20 20 0 0 0-2.5-5.17q.04-.75-.17-1.49a30 30 0 0 0-1.77-4.63 142 142 0 0 0-2.32-4.6q.09-.24.09-.53 0-2.68-.54-5.3a6 6 0 0 0-1.11-2.5 9 9 0 0 0-3.53-2.87 9 9 0 0 0-2.77-.81 5 5 0 0 1-1-.23 53 53 0 0 1-3.1-1.23q-1.32-.56-2.63-1.14-.04-.17-.3-.27a1 1 0 0 1-.34-.2 3.1 3.1 0 0 1-1.18-2.67q.06-1.56.41-3.07.14-.6.2-1.2.43-.2.8-.54.36-.33.69-.72.9-1.05 1.03-2.41.09-1.1-.87-1.5a.4.4 0 0 0-.32 0l-.18.1.08-.37a8 8 0 0 0 0-3.21q-.16-.83-.45-1.6a5 5 0 0 0-1.9-2.46 9 9 0 0 0-1.34-.77l-2.16-.99a6 6 0 0 0-4.19-.27q-.47.16-.96.27-.69.16-1.26.59a5 5 0 0 0-1.44 1.72q-.72 1.4-1.07 2.92-.27 1.2-.45 2.4-.11.7.07 1.4a.8.8 0 0 0-.6.22 2 2 0 0 0-.17.52 6 6 0 0 0 0 2.47l.17.9q.18 1.03 1.2 1.18h.06l.2-.01.15-.04q.08-.04.14-.1.08-.08.12-.17l.03.11a12 12 0 0 1 .44 4.29 6 6 0 0 1-1.08 3.02q-.1.13-.22.23-1.23 1-2.82.77h-.05l-.19.08a.4.4 0 0 0-.14.18.4.4 0 0 0 .01.32v.02q-.6.3-1.24.54a8 8 0 0 1-2.4.58 8 8 0 0 0-1.83.4q-2.95 1.03-5.23 3.16a3.4 3.4 0 0 0-1.01 1.72q-.76 3.21-.31 6.48-.02.11-.06.22a.3.3 0 0 0-.01.17l.01.06q-.24.68-.6 1.34a10 10 0 0 0-.61 1.34q-.22.55-.47 1.1a75 75 0 0 0-1.54 3.69q-.69 1.8-.97 3.67a7 7 0 0 0-1.68 2.56q-1.12 2.9-1.95 5.92a65 65 0 0 0-1.37 6.14 41 41 0 0 1-1.27 5.15q-.3.33-.44.74a4 4 0 0 1-1.68 2.12l-.26.06q-.43.09-.82.3-1.34.75-2.58 1.63A6 6 0 0 0 49 87.7q0 .4.25.7.53.65 1.34.47.6-.14 1.16-.33-.12.22-.2.46a51 51 0 0 0-1.1 3.86 11 11 0 0 0-.19 4.02l.04.38q.03.34.23.63.18.3.5.38.15.03.3 0 .18-.03.35-.13.2-.13.37-.31.05.53.2 1.04.18.68.83.6.84-.06 1.1-.91l.26.52q.1.15.21.29l.05.05q.07.06.15.1.07.06.17.07.1.03.19.01a.7.7 0 0 0 .4-.2q.47-.49.72-1.13l.45-1.1q.27.26.66.32 1.37.21 1.7-1.15.69-2.77 1.63-5.46.34-.97.5-2.22.3-2.03-.06-4.1l.04-.11q0-.07.03-.13l.02-.1v-.06l-.01-.03 1.62-2.28 3.67-5.18a24 24 0 0 0 2.88-5.54q.3-.8.46-1.63a45 45 0 0 1 1.63-6.12v-.07l-.03-.05-.02-.04 1.02-2.07a25 25 0 0 0 1.5-3.85q.37 2.1 1.26 3.88 1.42 2.86 1.65 5.98.15 1.96-.32 3.84a15 15 0 0 0-.12 6.43l.14.14a39 39 0 0 0-1 4.73 143 143 0 0 1-2.33 12.24 21 21 0 0 0-.53 6.25l.03.05.04.05a4.3 4.3 0 0 0-.08 2.06q.09.45.34.84.75 1.13 2.17 1.22 2.4.13 4.75.45 1.05.04 2.09-.08 1.06-.12 2.13-.06a8.4 8.4 0 0 0 3.66-.59q.3-.12.47-.4a5 5 0 0 0 .64-3.51q.06-.48.03-.96a24 24 0 0 0-.32-2.55 3.4 3.4 0 0 1 .38-2.37l.11-.1.04-.02.03-.02.23-.03.3-.01q.15-.01.3.04l.06.05.03.03.06.1.03.04q.11.45.04.9-.16 1.3-.28 2.6-.12 1.2-.07 2.4a2 2 0 0 0-.07.5q-.06 1.33 1.14 1.61.8.18 1.62.25 2.03.15 4.07.37 1.34.03 2.61-.31 1.37-.37 2.75-.66a6.4 6.4 0 0 1 4.02.47l.1.07.11.03h.17l.05-.03.05-.02a1 1 0 0 0 .17-.17l.02-.04.02-.06.01-.05v-.2l-.02-.06-.02-.05-.04-.04-.04-.05-.14-.07-.75-4.5a79 79 0 0 1-.37-2.62q-.37-2.91-.9-5.99l.01.03v-.05q-.12-.75-.28-1.5a34 34 0 0 1-.82-5.82q-.16-3.1-1.46-5.88l-.02-.01q.24-.52.28-1.15.03-.35 0-.71-.23-2.52-.36-5.06-.18-3.14.72-6.14t1.7-6.06q.18.6.45 1.15 1.34 2.8 2.93 5.49.38.66.43 1.41.07 1.24.26 2.48.48 3.12 1.92 5.9a78 78 0 0 0 3.06 5.42q.64 1.03 1.34 2.03 1.65 2.33 2.9 4.94-.07 1.25.33 2.45a125 125 0 0 1 2.27 7.4q.44 1.76 2 2.17l.16-.06q.02 0 .05-.03l.04-.04.07-.09.02-.04.03-.06.15.45q.2.7.56 1.33.39.66 1.1.53a1 1 0 0 0 .17-.14q.22-.28.34-.6.12-.34.15-.7.03.15.08.28.13.36.33.68a2 2 0 0 0 .63.58q.12.07.25.1a1 1 0 0 0 .25.04 1 1 0 0 0 .3-.12l.1-.11q.15-.27.14-.56a27 27 0 0 0-.09-1.59 4 4 0 0 0 1.12.9.7.7 0 0 0 .44-.12l.04-.04.04-.04.04-.05q.1-.42.1-.88a32 32 0 0 0-.5-5.35 15 15 0 0 0-1.03-3.41l.2.08q.69.3 1.39.5l.19.04a1 1 0 0 0 .5-.1.5.5 0 0 0 .28-.37q.15-.84-.45-1.51-.75-.84-1.6-1.56a11 11 0 0 0-3.4-1.96l-.18-.15a4 4 0 0 1-.57-.72q0-.4-.17-.78a56 56 0 0 1-2.19-5.9q-.7-2.33-1.29-4.7-.7-2.84-1.59-5.6m-2.9-2.25q.18-.67.44-1.3a22 22 0 0 1 1.8 4.17q.72 2.25 1.27 4.54a82 82 0 0 0 3.67 11.46v.02l-.07.09-.01.05-.01.05v.11l.02.1.47.62q.26.36.63.59l2.5 1.54a10 10 0 0 1 2.87 2.72q-.23-.05-.45-.15l-.99-.42a3 3 0 0 1-.92-.57l-.03-.05-.06-.08-.03-.04-.19-.08h-.2l-.05.03-.04.02-.05.03-.07.08-.05.1-.03.2v.31q.81 1.56 1.32 3.24.36 1.14.52 2.34.2 1.35.2 2.75v.02q.01.68-.02 1.34-.22-.28-.36-.61-.56-1.48-.89-3.03-.34-1.64-.83-3.23l-.05-.04-.08-.06-.12-.06a1 1 0 0 0-.25.03l-.1.05-.11.17-.04.11q.07.55.24 1.09v.1q.25 1.76.53 3.52.27 1.76.45 3.5a1 1 0 0 1-.2-.3 92 92 0 0 1-1.16-3.45 42 42 0 0 1-.9-3.27l-.03-.04-.04-.04-.08-.06-.04-.03-.11-.02h-.11l-.11.02-.09.06-.07.07-.06.1q.07 1.2.37 2.39l.33 1.26q.41 1.6.01 3.16l-.04-.07a14 14 0 0 1-1.03-3.23 24 24 0 0 0-.82-3.12l-.04-.04-.03-.04-.05-.02-.05-.03-.1-.03h-.13l-.12.05-.1.07-.07.08a.3.3 0 0 0-.05.16q0 1.06.28 2.08.27.98.1 1.98a2 2 0 0 1-.5-.8q-.64-1.62-1.11-3.31-.4-1.36-.85-2.7a18 18 0 0 1-.86-3.66l.08-.13.02-.05v-.11a3 3 0 0 0-.24-.67 31 31 0 0 0-2.5-4.16l.04.04.03.04a198 198 0 0 1-3.14-5.07q-.8-1.34-1.52-2.72a21 21 0 0 1-2.07-5.96 3 3 0 0 1-.05-.52q.3.42.64.82A8 8 0 0 0 111.1 69h.18q.06-.04.13-.09l.06-.05q.1-.15.09-.33-.06-1.05.72-1.64.18-.15.23-.36l.08-.4h.03a2 2 0 0 0 .74.07q.32-.03.62-.12.15-.04.29-.13h.05q.27-.11.42-.37.51-.9.77-1.91m-.44-3.23-.05.1-.03.1v.1q0 .11.07.2l.53.83-.1.21q-.3.66-.48 1.37a9 9 0 0 1-.54 1.54q-.03-.3-.11-.61-.5-1.94-1.04-3.84a52 52 0 0 0-.68-2.24 4.3 4.3 0 0 0-1.25-1.92 5 5 0 0 0 .06-1.8 14.4 14.4 0 0 0-2.25-5.64q.4.21.78.52h-.01l.03.02.48.33.04.04.07.1.08.08.03.01.08.03.07.01V50l.08.16.03.04-.02.08q.14.74.54 1.38 1.31 2.06 2.2 4.32a33 33 0 0 1 1.39 4.46m-20.9-44.47q.36.23.64.53.81.86 1.2 2 .54 1.52.3 3.11a48 48 0 0 1-.58 3.2l-.16.85q-.14.9-.44 1.78a1 1 0 0 0-.05.31l-.07.29q-.33 1.55-.55 3.12-.22 1.5.28 2.9.4 1.15 1.36 1.67 0 .04.03.08.61.42 1.32.75a38 38 0 0 0 5.22 1.91 22 22 0 0 1 3.7 1.25q.63.33 1.25.7a6 6 0 0 1 2.9 4.2q.41 2.33.36 4.67l-.39-.34a5.2 5.2 0 0 0-3.53-1.18q-1.34.05-2.12.82l-.02-.01-.04-.03-.05-.03-.1-.02h-.11l-.11.02-.05.03-.04.03-.04.03-.07.09-.02.04-.14 1.26q-.3 2.93.06 5.84l-.08.02-.1.04q-.42.48-.57 1.13-.7 3.03-1.58 6.03t-.77 6.16q.03.8.2 1.58a13 13 0 0 1-.06 5.2l-.07.15-.01.05v.08q-1.79.51-3.64.71-3.45.39-6.9.3-1.1-.02-2.17-.2-2.77-.44-5.57-.47a221 221 0 0 1-5.57-.12h-.1a12 12 0 0 1 .1-3.44q.7-3.08.46-6.23a15.5 15.5 0 0 0-1.72-6.01 10.7 10.7 0 0 1-1.22-5.01l-.02-.05-.07-.09-.04-.03-.12-.07q.48-2.14.61-4.33l-.06-.09-.07-.07-.09-.06-.1-.02h-.12l-.1.02-.17.13-.06.1v.1q-.46-1.12-1.05-2.2a3 3 0 0 0-1.83-1.5 1.1 1.1 0 0 0-.93.12q-1.35.8-2.57 1.8v-.14a18 18 0 0 1-.18-3.28q.07-1.73.56-3.38a7.5 7.5 0 0 1 2.28-2.16q1.27-.78 2.59-1.49.6-.33 1.24-.38 3.16-.27 5.93-1.8l.03-.04.05-.08a5 5 0 0 0 1.66-.4q.34-.16.61-.4a5 5 0 0 0 1.52-2.66 11 11 0 0 0 .13-4.1 98 98 0 0 1-.6-3.12 18 18 0 0 0-.81-3.06q-.28-.74-.23-1.53.1-1.62.56-3.18.45-1.57 1.34-2.94.21-.33.57-.53a8 8 0 0 1 2.92-1 5.5 5.5 0 0 1 3.05.47q.36.15.72.34 1.17.6 2.28 1.26m2.26 9.74.2-.94.24-.57q.15-.36.44-.57h.02l.04.04.03.03.03.04.03.03q.2.6-.06 1.21a6 6 0 0 1-1.17 1.72zM82.25 23.6l.19.56a12 12 0 0 1 .57 2.53h-.04q-.35-.02-.44.33l-.05-.01-.04-.01-.05-.02-.02-.01-.03-.01-.15-.4a10 10 0 0 1-.3-1.4 5 5 0 0 1 .07-1.66 1 1 0 0 0 .29.1m-8.08 28.93.04.04a22 22 0 0 1-1.4 5.59q-1.1 2.73-2.3 5.4l.02.05q0 .04.03.08l-.1.29q-.21.65-.39 1.3l-.27.21q-.6.56-1.22 1.08-.67.56-1.17 1.31.06-.12.08-.25.12-.6-.09-1.2a2 2 0 0 0-.63-.86l.02-.1q.04-.23.12-.44l.2-.54q.13-.3.22-.6.63-1.83.98-3.73l.31-1.51q.2-.85.22-1.7l.12-.02.03-.02.06-.04.03-.03.03-.07.02-.03v-.12l-.01-.07-.02-.03-.05-.06-.02-.02-.07-.05q.68-.82 1.52-1.65.54-.53 1.2-.92 1.2-.7 2.5-1.29m-.24-.52-.18.08q-.47.21-.94.4a7.4 7.4 0 0 0-2.88 1.96q-.58.64-1.23 1.22-.25.22-.4.49l-.33.23.02-.12q.23-1.67.8-3.27a58 58 0 0 1 1.54-3.93q.17-.27.3-.56v-.08l-.03-.07v-.02l.41-.18q.39 0 .69.23.94.75 1.45 1.86zm-4.44-2.95.3-.23-.21.5-.35.87a57 57 0 0 0-1.19 3.29 18 18 0 0 0-.78 3.59q-.23.3-.44.6a40 40 0 0 0-1.87 3.48 6 6 0 0 0-.62 3.18l-.08-.21q-.22-.8-.49-1.58a4 4 0 0 1-.18-.97l.07-.08a15 15 0 0 1 .43-1.89q.8-2.55 1.83-4.97l1.79-4.16.35-.27zm-1.2 7.86-.05.32q-.3 1.65-.62 3.3A22 22 0 0 1 66.7 64l.01-.03-.04.11-.09.2.02-.03-.03.06q-.15.34-.26.69-.1.26-.1.52l-.71-.06q-.3 0-.58-.07.05-.36 0-.74a4 4 0 0 1 .14-1.81 23 23 0 0 1 1.38-3.33q.75-1.44 1.86-2.58m-1.4 9.88a1.5 1.5 0 0 1-.07.98l-.07.23a1 1 0 0 0-.02.37l.04.08q.05.08.12.14t.16.1h.12q.33-.09.54-.36.57-.73 1.27-1.3l.85-.76q-.15.66-.25 1.32-.32 1.96-1.15 3.77-.47 1.2-1.1 2.33-1.5 2.73-3.4 5.21a58 58 0 0 0-3.57 5.28v.12l.05.13q-.09.81.06 1.62.15.75.23 1.5-.1.92-.42 1.79-.75 2.1-1.15 4.31a10 10 0 0 1-1.04 3h-.07a3 3 0 0 1-.5-.02.2.2 0 0 1-.16-.07 1 1 0 0 1-.05-.53 36 36 0 0 1 .66-3.23.4.4 0 0 0-.06-.2l-.02-.05-.04-.04-.08-.06-.1-.05h-.16a1 1 0 0 0-.21.07 1 1 0 0 0-.24.4q-.42 1.5-.78 3.02a9 9 0 0 1-1.12 2.76 1 1 0 0 1-.13-.36q-.2-1.65.35-3.26.52-1.55.77-3.09l-.03-.05-.05-.05-.04-.04-.05-.04-.06-.03-.13-.02q-.07 0-.13.02l-.1.03q-.38.55-.56 1.24-.35 1.29-.67 2.58-.42 1.65-1.22 3.14-.2-.4-.2-.93 0-1.7.41-3.36a18 18 0 0 1 1.33-3.7v-.11l-.01-.05-.02-.06-.05-.1-.03-.03-.05-.04-.1-.05-.13-.03h-.13a.2.2 0 0 0-.12.1q-.94 1.42-1.37 3.16l-.46 1.91a4.4 4.4 0 0 1-.98 2l-.05-.16-.06-.44v-.07.01a9 9 0 0 1 .15-3.46q.21-.84.33-1.68a7.4 7.4 0 0 1 1.97-4.1l.02-.05.02-.05.01-.1v-.06l-.01-.06-.02-.05-.02-.05-.03-.04a1 1 0 0 0-.2-.14l-.13-.02q-.33.07-.6.25-.64.45-1.37.7-.42.15-1.02.21l-.19-.07-.05-.05-.03-.02-.03-.06-.03-.06.03-.07.08-.12.08-.12.07-.09q.39-.27.72-.62a7 7 0 0 1 1.03-.9q.69-.48 1.42-.92.27-.2.6-.28a3.5 3.5 0 0 0 2.23-1.42q.42-.55.74-1.17a.4.4 0 0 0 .17-.07q.42-.7.64-1.51.8-2.95 1.3-5.92.54-3.13 1.46-6.17.23-.75.43-1.52a15 15 0 0 1 2.19-4.75l.01.07.33 1.24a7 7 0 0 0 1.1 2.3 1 1 0 0 0 .3.18q.41.12.85.13.44 0 .84.1h.11q.21.27.3.6m41.58-18.26-.02.03-.03.09v.09q0 .04.02.08l.03.07.03.02q.02.03.06.05l.07.07.48.75q.9 1.41 1.37 3.02.42 1.53.38 3.08-.03 0-.05-.03h-.04l-.07.03-.07.03-.02.02a8 8 0 0 0-.7-.54q-.78-.54-1.41-1.2l-.97-.96q-1.2-1.14-2.67-1.92l.06-1.92q.08-.1.18-.2.89-.92 2.18-.86.61.02 1.2.2m-3.68 4.53.05-1.11.3.18q1 .6 1.85 1.38l.93.88q1.17 1.14 2.5 2.14a6 6 0 0 0-.02 1.24q.2 2.2 1 4.3.6 1.58.66 3.26v.01l-.04.03-.03.02-.02.03-.02.03-.02.04-.02.05.02.17q.06.1.14.17l-.01.33-.04.06-.05.07q-.13.08-.25.18-.35.3-.5.72a2 2 0 0 0-.16 1l-.27-.24a14 14 0 0 1-.96-1.07 7 7 0 0 1-.67-1.02 5 5 0 0 0-.47-1.93 48 48 0 0 0-2.9-5.38q-.22-.53-.4-1.08a13 13 0 0 1-.6-4.46m6.36 3.77a5 5 0 0 1 .76 1.26l.03.06-.02-.03.5 1.41a29 29 0 0 1 1.52 5.92l-.15.06a1.6 1.6 0 0 1-1.15 0q.05-.73-.1-1.45-.31-1.63-.87-3.19-.72-2.06-.67-4.22zm-9.62 20.14q.92 2.47 1.1 5.12.16 2.14.58 4.23.57 2.95.98 6.03l.83 6.15q.25 1.86.7 3.63-.72-.2-1.45-.32a8 8 0 0 0-4.4.5q-1.3.51-2.7.42-3.12-.2-6.2-.53a1 1 0 0 1-.12-.36q-.03-.21-.03-.44l.01-.47.07-.1.02-.07.02-.05v-.18l-.03-.05-.02-.05-.03-.05-.04-.03-.03-.04q.02-1.53.24-3.05.17-1.25 0-2.46a.6.6 0 0 0-.32-.5q-1.71-1-2.54.7-.14.27-.15.56a31 31 0 0 0 .13 4.67l-.02.05.01.18h-.07l-.13.06-.1.08-.07.1-.02.09-.01.13q0 .07.03.13l.07.1q.06.07.14.1l.17.05.04-.01.03.69q.01.54-.14 1.05-.46 1.5-2.17 1.41-1.13-.06-2.27.06-2.25.24-4.5-.05-1.2-.15-2.44-.15a5.6 5.6 0 0 1-2.9-.82q-.09-.2-.12-.41l-.1-1.09a4 4 0 0 1 .01-.95l.07-.1.02-.05.01-.06v-.17l-.02-.06-.03-.04-.03-.05-.03-.04q-.16-2.9.53-5.74.74-3.06 1.32-6.16.59-3.06 1.08-6.12.41-2.55.96-5.1l.36.01q2.19.06 4.38.03a22 22 0 0 1 5.08.48q1 .17 2.03.2 1.05 0 2.08.1.9.08 1.78 0 2.25-.18 4.48-.39 2-.18 3.88-.8M57.36 95.94v.05z"/><path fill="#333" d="M102.64 82.1q-.2-2.65-1.1-5.12-1.89.62-3.88.8l-4.48.4q-.88.06-1.78-.01-1.03-.1-2.08-.1a14 14 0 0 1-2.63-.3q-2.22-.43-4.48-.38a109 109 0 0 1-4.74-.04q-.56 2.55-.96 5.1-.5 3.06-1.08 6.12-.58 3.1-1.32 6.16-.69 2.85-.54 5.74l.07.09.03.04.03.11v.12l-.02.06-.05.1-.04.05a4 4 0 0 0-.01.95l.1 1.09q.03.21.12.41a5 5 0 0 0 2.9.82q1.22 0 2.45.15 2.24.28 4.5.05 1.12-.12 2.26-.06 1.7.1 2.17-1.41.15-.51.14-1.05l-.03-.69h-.04l-.17-.03-.14-.1-.07-.11-.03-.13v-.13l.03-.08.07-.11.1-.08.12-.05.08-.01-.01-.19.04-.07a31 31 0 0 1-.15-4.64q0-.29.15-.56.83-1.7 2.54-.7.29.17.33.5.15 1.2-.01 2.46a25 25 0 0 0-.24 3.05l.03.04.07.08.02.05.02.05.01.05v.12q0 .04-.02.06l-.02.06-.07.1v.48q0 .23.02.44a1 1 0 0 0 .11.36q3.1.33 6.2.53 1.41.1 2.7-.43a8 8 0 0 1 4.41-.5q.74.14 1.44.33-.44-1.78-.69-3.63l-.83-6.15q-.4-3.08-.98-6.03a35 35 0 0 1-.57-4.23"/><path fill="#e3d6d4" d="M111.56 57.42a5 5 0 0 0-.56-.76q-.06 2.16.67 4.22.56 1.56.87 3.19.15.73.1 1.44l.27.07q.45.09.88-.06l.15-.06q-.24-1.5-.61-3-.37-1.49-.9-2.92-.27-.7-.5-1.41v.03q0-.03-.02-.06-.15-.35-.35-.68m-43.27-.5q-1.11 1.14-1.86 2.58a20 20 0 0 0-1.38 3.33 4 4 0 0 0-.14 1.81q.05.38 0 .74.28.06.58.07.36.02.7.06.02-.26.11-.52l.29-.75-.02.03.09-.2.04-.11-.01.03q.6-1.68.93-3.44z"/><path fill="#de6d4f" d="m104.84 51.96-.05 1.1a13 13 0 0 0 1 5.55 48 48 0 0 1 2.9 5.38q.43.92.47 1.93.29.54.67 1.02a14 14 0 0 0 1.23 1.32 2 2 0 0 1 .15-1.01 1.8 1.8 0 0 1 .76-.9l.1-.13v-.33a1 1 0 0 1-.14-.17l-.02-.17.02-.05.02-.04.02-.03.02-.03.03-.02.05-.04a11 11 0 0 0-.67-3.27q-.8-2.1-1-4.29-.06-.62.02-1.24a27 27 0 0 1-2.5-2.14q-.46-.45-.93-.88a11 11 0 0 0-2.15-1.56m3.61-3.39.02-.03a4 4 0 0 0-1.19-.2 2.8 2.8 0 0 0-2.36 1.06l-.06 1.92q1.47.78 2.67 1.92l.97.96q.64.66 1.41 1.2.37.26.7.54l.02-.02.14-.05h.04l.05.02a10 10 0 0 0-.38-3.08 11 11 0 0 0-1.37-3.02l-.48-.75-.07-.07-.06-.05-.03-.02-.03-.07-.02-.08v-.1zm-38.66.26-.3.23-1.8 1.42-1.78 4.16q-1.03 2.4-1.83 4.97a13 13 0 0 0-.46 1.94l-.05.04q.02.49.2.96.26.78.48 1.58.03.1.08.2a6 6 0 0 1 .62-3.17q.84-1.77 1.87-3.47.2-.33.44-.61.21-1.84.78-3.59a57 57 0 0 1 1.75-4.66m3.96 3.26.18-.08-.78-1.76a5 5 0 0 0-1.45-1.86 1 1 0 0 0-.69-.23l-.4.2.02.07v.08q-.13.29-.3.56a3 3 0 0 0-.25.56 58 58 0 0 0-1.3 3.37 17 17 0 0 0-.81 3.4q.16-.14.34-.24.13-.27.39-.5a16 16 0 0 0 1.23-1.21 7.4 7.4 0 0 1 2.88-1.96q.47-.19.94-.4m.43.45q-1.3.57-2.5 1.28-.66.38-1.2.92-.84.83-1.52 1.65l.1.07q0 .03.04.06l.02.03.01.11-.02.11-.06.1-.06.04-.03.02-.12.03q-.02.84-.22 1.69-.17.75-.31 1.51a27 27 0 0 1-1.4 4.87 3 3 0 0 0-.14.54q.44.33.63.86a2.2 2.2 0 0 1 .01 1.45q.5-.74 1.17-1.31.63-.52 1.22-1.08l.27-.2a28 28 0 0 1 .5-1.6l-.05-.13a208 208 0 0 0 2.29-5.4 21 21 0 0 0 1.37-5.62m40.83 8 .05-.1q-.53-2.27-1.4-4.46a25 25 0 0 0-2.18-4.32 4 4 0 0 1-.55-1.38l.01-.05.01-.03-.03-.04-.03-.04-.02-.06-.03-.06v-.02l-.08-.01-.07-.03-.03-.01-.07-.09-.08-.09-.04-.04-.3-.2-.18-.13-.03-.03.01.01q-.37-.3-.78-.52a15 15 0 0 1 2.25 5.64q.15.91-.06 1.8.87.75 1.25 1.92.37 1.11.68 2.24.53 1.9 1.04 3.84.08.3.1.6.34-.73.55-1.53a8 8 0 0 1 .58-1.58l-.53-.83a1 1 0 0 1-.08-.2l.01-.1q0-.06.03-.1"/><path fill="#fff" d="M66.85 67.73q.16-.45.04-.93a2 2 0 0 0-.3-.6h-.11a3 3 0 0 0-.84-.11q-.44 0-.85-.13a1 1 0 0 1-.3-.17l-.02-.03a7 7 0 0 1-1.08-2.28l-.34-1.3q-1.5 2.13-2.19 4.74-.2.76-.43 1.52a50 50 0 0 0-1.46 6.17 67 67 0 0 1-1.3 5.92 6 6 0 0 1-.64 1.5.4.4 0 0 1-.17.08q-.32.61-.74 1.17a3.5 3.5 0 0 1-2.23 1.43q-.33.06-.6.27-.73.44-1.41.92a7 7 0 0 0-1.04.9q-.33.35-.72.63l-.07.08-.08.12-.11.2.03.05.03.06.03.02.05.05.06.02.06.03.08.02q.59-.05 1.01-.21.73-.25 1.37-.7.27-.18.6-.25l.12.02.12.06.09.08.03.04.02.05.02.05.01.11v.05l-.01.06-.02.05-.05.1a7.4 7.4 0 0 0-1.94 4.05q-.13.84-.33 1.68a9 9 0 0 0-.15 3.46v-.01l.02.23q0 .15.04.28l.05.15q.71-.8.98-1.99l.46-1.91q.43-1.72 1.37-3.17a.2.2 0 0 1 .12-.09h.13l.13.03.1.05.05.04.03.04.03.05.02.04.03.1v.17l-.03.05q-.84 1.72-1.3 3.6-.4 1.66-.41 3.36 0 .52.2.93.8-1.48 1.22-3.14.32-1.29.67-2.58a4 4 0 0 1 .56-1.24l.1-.03.13-.02.13.02.06.03.1.08.04.05q0 .03.03.05a19 19 0 0 1-.77 3.1 7 7 0 0 0-.35 3.25q.03.2.13.36.79-1.27 1.12-2.76.36-1.51.78-3.01.08-.24.24-.4l.1-.06.1-.03h.17l.1.06.08.06.04.04.02.05.03.04.01.05.02.06v.05a35 35 0 0 0-.66 3.23q-.03.28.05.53.07.06.15.07a4 4 0 0 0 .58.01 10 10 0 0 0 1.04-2.99q.4-2.2 1.15-4.31.3-.87.42-1.78-.1-.75-.23-1.5a5 5 0 0 1-.06-1.64l-.05-.12v-.17q1.65-2.7 3.57-5.23 1.9-2.48 3.4-5.2.63-1.13 1.1-2.34.83-1.8 1.15-3.77.11-.66.25-1.32l-.85.75q-.71.59-1.27 1.31-.21.27-.54.36h-.12a.4.4 0 0 1-.16-.1l-.12-.14-.04-.08a1 1 0 0 1 .02-.37zm-9.5 28.24v-.03.05zm25.09-71.81-.19-.56-.09-.02-.2-.08q-.18.82-.06 1.66.09.72.3 1.4.05.2.14.4h.03l.02.02.05.02.04.01.05.01q.09-.34.44-.33h.04l-.03-.22q-.16-1.18-.54-2.31m14.18.61-.4 1.93q.76-.75 1.17-1.72.27-.6.06-1.21l-.03-.03-.02-.04-.04-.03-.04-.03-.02-.01q-.3.21-.44.57zM94.8 16.5q-.28-.3-.64-.53a30 30 0 0 0-3-1.6q-1.47-.67-3.05-.46a8 8 0 0 0-2.92.99q-.36.19-.57.53-.9 1.38-1.34 2.94a15 15 0 0 0-.56 3.18q-.05.78.23 1.53.54 1.48.81 3.06l.6 3.12q.1.48.13.97.1 1.59-.26 3.13-.15.6-.4 1.13A5 5 0 0 1 82.7 36q-.26.25-.6.4-.81.37-1.67.41l-.05.08q0 .03-.03.05a15 15 0 0 1-5.93 1.79q-.63.05-1.24.38-1.31.7-2.6 1.49a7.5 7.5 0 0 0-2.27 2.16q-.47 1.65-.56 3.38a18 18 0 0 0 .18 3.41q1.22-.98 2.57-1.8.44-.25.93-.1 1.2.35 1.83 1.49.6 1.08 1.05 2.2v-.1l.06-.1.08-.07.09-.06.1-.02h.11l.11.02.16.13.06.1q-.12 2.18-.61 4.32l.03.01.13.1.07.08.02.05q0 2.63 1.22 5 1.48 2.85 1.72 6.02.23 3.15-.45 6.23-.08.38-.12.75-.15 1.36.01 2.68h.16q2.74.1 5.5.13 2.8.03 5.58.48 1.08.17 2.16.2 3.45.08 6.9-.3a22 22 0 0 0 3.65-.72v-.13l.03-.05.02-.05.03-.05.1-.37q.45-2.4-.05-4.83a10 10 0 0 1-.19-1.58q-.12-3.15.77-6.16.89-3 1.58-6.03.16-.65.57-1.13l.18-.05a27 27 0 0 1-.06-5.85l-.01-.03.02-.06q0-.15.03-.28l.12-.93.1-.12.05-.03.05-.03.1-.02h.11l.11.02.05.03q.03 0 .05.03v.01a3 3 0 0 1 2.13-.82 5.2 5.2 0 0 1 3.92 1.52q.06-2.34-.37-4.67a6 6 0 0 0-2.89-4.2q-.61-.37-1.25-.7l-.5-.2q-1.57-.65-3.2-1.05-.33-.07-.66-.18a37 37 0 0 1-4.56-1.73q-.7-.33-1.32-.75l-.03-.08q-.96-.52-1.36-1.66a6 6 0 0 1-.28-2.91 52 52 0 0 1 .67-3.72q.3-.87.45-1.78.06-.43.15-.85.35-1.6.58-3.2.24-1.59-.3-3.12a6 6 0 0 0-1.2-1.99m21.14 45.87q-.26.63-.44 1.3a8 8 0 0 1-.77 1.9q-.15.28-.42.39h-.05a1 1 0 0 1-.29.12 5 5 0 0 1-.82.13q-.27 0-.54-.08h-.03l-.08.4a.6.6 0 0 1-.23.36q-.78.6-.72 1.64.01.18-.1.33l-.05.05-.13.08h-.21l-.04-.02a8 8 0 0 1-1.26-1.2q-.33-.4-.64-.82 0 .26.05.52a21 21 0 0 0 2.07 5.96q.72 1.37 1.52 2.72a201 201 0 0 0 3.11 5.03l-.03-.04a30 30 0 0 1 2.5 4.16 3 3 0 0 1 .23.72v.06l-.02.05-.02.04-.03.05-.03.04h-.01q.24 1.86.87 3.66.46 1.34.85 2.7.48 1.69 1.12 3.31.21.52.48.8.19-1-.1-1.98a8 8 0 0 1-.27-2.08q0-.08.05-.16l.07-.08.1-.07.12-.04.07-.01a.4.4 0 0 1 .2.06l.06.02.03.04.04.04.03.04.02.05q.49 1.5.77 3.03a14 14 0 0 0 1.07 3.3 6.3 6.3 0 0 0 0-3.16l-.34-1.26q-.3-1.2-.37-2.4l.06-.09.07-.07.09-.06.1-.02h.12l.1.02q.03 0 .05.03.03 0 .05.03l.04.03.03.04.03.05q.38 1.64.9 3.26.54 1.73 1.16 3.45.06.17.2.3a66 66 0 0 0-.45-3.5l-.53-3.62q-.16-.54-.24-1.09l.04-.1.05-.1.07-.08.1-.05.11-.02h.13l.12.05.08.06.05.04q.49 1.6.83 3.23.32 1.56.9 3.03.12.34.36.61.02-.68.02-1.33v-.02a22 22 0 0 0-.2-2.76q-.18-1.2-.53-2.34-.51-1.68-1.31-3.24l-.01-.23v-.08l.03-.2.08-.14.09-.07.04-.02.05-.02.1-.02h.05l.15.04q.03 0 .04.03l.05.02.03.04q.03 0 .03.04l.03.04.03.05q.4.38.92.57.56.21 1 .42.21.1.44.15-1.14-1.64-2.87-2.72l-2.5-1.54a2 2 0 0 1-.63-.59q-.22-.3-.47-.61l-.02-.1v-.17l.02-.05.08-.1a82.16 82.16 0 0 1-3.67-11.46q-.57-2.3-1.27-4.55a22 22 0 0 0-1.81-4.17"/><mask id="b" width="73" height="26" x="12" y="18" fill="#000" maskUnits="userSpaceOnUse"><path fill="#fff" d="M12 18h73v26H12z"/><path d="m22.15 27.88-1-.03q-.41 0-.95.08a155 155 0 0 1 .2 6.4q0 2.31-1.47 2.32-.55 0-.95-.35-.45-.36-.45-.9l.03-1.1.03-1.09q0-1.2-.18-5.22a39 39 0 0 1-1.9-.16q-1.26-.15-1.26-1.32a1.3 1.3 0 0 1 1.37-1.35q.38 0 1.72.12l-.05-1.07q-.04-.64-.04-1 0-.56.41-.93.42-.38 1-.38 1.5 0 1.5 2.52l-.02.82a7 7 0 0 1 2.6.06q.8.3.8 1.23 0 .58-.39.96-.4.39-1 .39m11.08.84q-.09 1.55-1.4 1.55-1.27 0-1.27-1.31l-.05-1.02a4.1 4.1 0 0 0-3.25 2.33l.01 5.07q0 .58-.4.95-.39.39-1 .39a1.2 1.2 0 0 1-.96-.4 1.4 1.4 0 0 1-.32-.94v-6.6q0-.31.02-.93l.02-.94q0-.57.33-.94.34-.39.97-.38 1.12 0 1.33 1.15a6.5 6.5 0 0 1 3.97-1.34q2.01 0 2.01 2.69zm3.78-4.85q-.64 0-1.12-.43a1.4 1.4 0 0 1-.48-1.06q0-.63.48-1.06a1.6 1.6 0 0 1 1.12-.44q.65 0 1.1.44.48.43.48 1.06 0 .62-.47 1.06-.47.43-1.11.43m.86 7.4q0 .57.03 1.84l.04 1.85q0 .59-.4.97-.4.37-1 .37t-1-.37a1.3 1.3 0 0 1-.39-.97q0-.57-.04-1.85l-.03-1.84q0-.9.1-2.25t.1-2.25q0-.6.4-.96.4-.39 1-.39t1 .39q.39.38.39.96 0 .9-.1 2.25t-.1 2.25m7.27 5.37a5.6 5.6 0 0 1-3.72-1.27 4.4 4.4 0 0 1-1.59-3.5 7.5 7.5 0 0 1 1.43-4.15q1.6-2.45 3.75-2.45 1.05 0 2.45.57 1.7.7 1.7 1.6.01.5-.34.88a1.2 1.2 0 0 1-.93.41q-.44 0-1.05-.46-.6-.48-1.83-.47-.78 0-1.69 1.52a5 5 0 0 0-.86 2.54 2 2 0 0 0 .76 1.67 3 3 0 0 0 1.92.57q.67 0 1.66-.51a4 4 0 0 1 1.24-.52q.54 0 .93.4.39.39.39.9 0 .78-1.72 1.57-1.53.7-2.5.7m11.06-.18a6.4 6.4 0 0 1-3.94-1.15 4.2 4.2 0 0 1-1.7-3.58q0-2.55 1.34-4.32a4.8 4.8 0 0 1 4.03-1.96q1.75 0 2.92.57 1.52.75 1.52 2.32 0 1.11-1.24 1.97-.57.39-2.27 1.15l-3.4 1.5q.47.52 1.17.79.68.26 1.57.26 1.35 0 2.3-.55.83-.5 1.33-.5 1.05 0 1.05 1.02 0 1.16-1.68 1.88-1.41.6-3 .6m-.27-8.56q-.94 0-1.6.62-.67.63-1.08 1.88l2.28-.98q1.36-.61 2.16-1.14a3.6 3.6 0 0 0-1.76-.38m11.41 8.7q-.87 0-1.82-.2l-.01 4.11q0 .59-.4.97-.4.39-1 .38-.6 0-1-.38a1.3 1.3 0 0 1-.39-.97l.02-3.76v-3.99a68 68 0 0 0-.3-5.74q0-.84.38-1.43.44-.68 1.17-.68.57 0 .95.38.38.4.38.92v.1a6 6 0 0 1 2.72-.75q2.33 0 3.39 1.96.8 1.49.8 3.85 0 2.21-1.27 3.66a4.6 4.6 0 0 1-3.62 1.57m.7-8.35q-.64 0-1.3.3-.65.3-1.32.9.13 2.07.13 4.16.9.3 1.8.3 1.03 0 1.59-.75.5-.66.5-1.8 0-1.35-.12-1.88-.3-1.23-1.28-1.23m12.8.36q-.99 0-1.2-.83a5 5 0 0 0-.82-.07q-2.44 0-2.44.66 0 .4 1.47 1.06 2 .92 2.7 1.43 1.47 1.06 1.46 2.4 0 1.73-1.61 2.63-1.3.72-3.2.72-1.34 0-2.45-.42-1.52-.56-1.52-1.66 0-1.02 1.2-1.01.47 0 1.35.29.87.3 1.35.3 2.05 0 2.06-.83 0-.52-1.42-1.14a20 20 0 0 1-2.67-1.33q-1.42-.99-1.42-2.43 0-2.02 2.15-2.73 1.26-.42 3.83-.42 1.01 0 1.5.27.66.34.66 1.3 0 1.8-.98 1.81"/></mask><path fill="#000" d="m22.15 27.88-1-.03q-.41 0-.95.08a155 155 0 0 1 .2 6.4q0 2.31-1.47 2.32-.55 0-.95-.35-.45-.36-.45-.9l.03-1.1.03-1.09q0-1.2-.18-5.22a39 39 0 0 1-1.9-.16q-1.26-.15-1.26-1.32a1.3 1.3 0 0 1 1.37-1.35q.38 0 1.72.12l-.05-1.07q-.04-.64-.04-1 0-.56.41-.93.42-.38 1-.38 1.5 0 1.5 2.52l-.02.82a7 7 0 0 1 2.6.06q.8.3.8 1.23 0 .58-.39.96-.4.39-1 .39m11.08.84q-.09 1.55-1.4 1.55-1.27 0-1.27-1.31l-.05-1.02a4.1 4.1 0 0 0-3.25 2.33l.01 5.07q0 .58-.4.95-.39.39-1 .39a1.2 1.2 0 0 1-.96-.4 1.4 1.4 0 0 1-.32-.94v-6.6q0-.31.02-.93l.02-.94q0-.57.33-.94.34-.39.97-.38 1.12 0 1.33 1.15a6.5 6.5 0 0 1 3.97-1.34q2.01 0 2.01 2.69zm3.78-4.85q-.64 0-1.12-.43a1.4 1.4 0 0 1-.48-1.06q0-.63.48-1.06a1.6 1.6 0 0 1 1.12-.44q.65 0 1.1.44.48.43.48 1.06 0 .62-.47 1.06-.47.43-1.11.43m.86 7.4q0 .57.03 1.84l.04 1.85q0 .59-.4.97-.4.37-1 .37t-1-.37a1.3 1.3 0 0 1-.39-.97q0-.57-.04-1.85l-.03-1.84q0-.9.1-2.25t.1-2.25q0-.6.4-.96.4-.39 1-.39t1 .39q.39.38.39.96 0 .9-.1 2.25t-.1 2.25m7.27 5.37a5.6 5.6 0 0 1-3.72-1.27 4.4 4.4 0 0 1-1.59-3.5 7.5 7.5 0 0 1 1.43-4.15q1.6-2.45 3.75-2.45 1.05 0 2.45.57 1.7.7 1.7 1.6.01.5-.34.88a1.2 1.2 0 0 1-.93.41q-.44 0-1.05-.46-.6-.48-1.83-.47-.78 0-1.69 1.52a5 5 0 0 0-.86 2.54 2 2 0 0 0 .76 1.67 3 3 0 0 0 1.92.57q.67 0 1.66-.51a4 4 0 0 1 1.24-.52q.54 0 .93.4.39.39.39.9 0 .78-1.72 1.57-1.53.7-2.5.7m11.06-.18a6.4 6.4 0 0 1-3.94-1.15 4.2 4.2 0 0 1-1.7-3.58q0-2.55 1.34-4.32a4.8 4.8 0 0 1 4.03-1.96q1.75 0 2.92.57 1.52.75 1.52 2.32 0 1.11-1.24 1.97-.57.39-2.27 1.15l-3.4 1.5q.47.52 1.17.79.68.26 1.57.26 1.35 0 2.3-.55.83-.5 1.33-.5 1.05 0 1.05 1.02 0 1.16-1.68 1.88-1.41.6-3 .6m-.27-8.56q-.94 0-1.6.62-.67.63-1.08 1.88l2.28-.98q1.36-.61 2.16-1.14a3.6 3.6 0 0 0-1.76-.38m11.41 8.7q-.87 0-1.82-.2l-.01 4.11q0 .59-.4.97-.4.39-1 .38-.6 0-1-.38a1.3 1.3 0 0 1-.39-.97l.02-3.76v-3.99a68 68 0 0 0-.3-5.74q0-.84.38-1.43.44-.68 1.17-.68.57 0 .95.38.38.4.38.92v.1a6 6 0 0 1 2.72-.75q2.33 0 3.39 1.96.8 1.49.8 3.85 0 2.21-1.27 3.66a4.6 4.6 0 0 1-3.62 1.57m.7-8.35q-.64 0-1.3.3-.65.3-1.32.9.13 2.07.13 4.16.9.3 1.8.3 1.03 0 1.59-.75.5-.66.5-1.8 0-1.35-.12-1.88-.3-1.23-1.28-1.23m12.8.36q-.99 0-1.2-.83a5 5 0 0 0-.82-.07q-2.44 0-2.44.66 0 .4 1.47 1.06 2 .92 2.7 1.43 1.47 1.06 1.46 2.4 0 1.73-1.61 2.63-1.3.72-3.2.72-1.34 0-2.45-.42-1.52-.56-1.52-1.66 0-1.02 1.2-1.01.47 0 1.35.29.87.3 1.35.3 2.05 0 2.06-.83 0-.52-1.42-1.14a20 20 0 0 1-2.67-1.33q-1.42-.99-1.42-2.43 0-2.02 2.15-2.73 1.26-.42 3.83-.42 1.01 0 1.5.27.66.34.66 1.3 0 1.8-.98 1.81"/><path fill="#e7e7e7" d="m21.65 27.87-.14 2h.07zm-1.45.06-.3-1.98-1.78.26.08 1.8zm.19 5.82-2 .06zm-2.41 2.55 1.3-1.52-.02-.01-.02-.02zM17.4 28l2-.1-.08-1.81-1.82-.09zm-1.9-.16-.22 1.98h.01zm1.83-2.55-.18 2 2.25.2-.07-2.26zm-.05-1.07 2-.1v-.02zm2.87.2 2 .05v-.04zm-.02.83-2-.05-.06 2.37 2.34-.34zm2.6.06-.67 1.89zm-.59 2.58v-2l-.43-.01-.07 2-.07 2h.57zm-.5-.01.14-2-.64-.02v4l.36.01zm-.5-.02v-2q-.6 0-1.25.1l.3 1.98.29 1.98q.44-.07.66-.06zm-.95.08-2 .09q.18 4.07.18 5.24h4q0-1.35-.19-5.42zm.18 5.33h-2v.55l2-.06 2-.06v-.43zm0 .49-2 .06q.02.34.02.51h4l-.01-.63zm.02.57h-2q-.01.44-.05.6-.06.18-.01.08a.8.8 0 0 1 .6-.35v4a3.2 3.2 0 0 0 2.78-1.52c.54-.86.68-1.89.68-2.8zm-1.47 2.33v-2q.05 0 .16.03.12.04.18.1l-1.3 1.52-1.29 1.53c.65.55 1.43.82 2.25.82zm-.95-.35 1.26-1.55q.08.06.2.27.1.22.1.37h-4c0 1 .44 1.86 1.17 2.46zm-.45-.9h2l.03-1.01-2-.09-2-.08-.03 1.17zm.03-1.1 2 .09.03-1.18h-4q0 .3-.03 1.01zm.03-1.09h2q0-1.3-.18-5.31l-2 .09-2 .09q.18 4 .18 5.13zM17.41 28l.1-2-1.8-.15-.2 1.99-.2 1.99 2 .17zm-1.9-.16.23-2c-.14 0 .05-.02.27.21q.16.18.21.34t.03.13h-4c0 .76.21 1.61.88 2.3.64.67 1.46.93 2.16 1zm-1.26-1.32h2q.01.08-.04.22-.07.16-.14.22l-1.43-1.4-1.44-1.39a3.3 3.3 0 0 0-.95 2.35zm.39-.95 1.43 1.4a1 1 0 0 1-.26.16l-.19.04v-4c-.88 0-1.74.31-2.42 1zm.98-.4v2c.14 0 .62.03 1.54.12l.18-2 .18-1.99c-.87-.08-1.54-.13-1.9-.13zm1.72.12 2-.06q-.01-.37-.05-1.11l-2 .1-2 .11.05 1.03zm-.05-1.07 2-.12q-.04-.62-.04-.88h-4q0 .45.04 1.13zm-.04-1h2q.01.1-.07.3a1 1 0 0 1-.18.25l-1.34-1.48-1.34-1.49a3.2 3.2 0 0 0-1.07 2.42zm.41-.93L19 23.76a.6.6 0 0 1-.34.14v-4c-.86 0-1.67.3-2.34.9zm1-.38v2a1 1 0 0 1-.32-.1 1 1 0 0 1-.28-.25q-.02-.06.04.15.05.23.06.72h4c0-.98-.14-2.03-.66-2.91a3.2 3.2 0 0 0-2.84-1.6zm1.5 2.52-2-.05-.02.82 2 .05 2 .05.02-.83zm-.02.82.28 1.98q.55-.07.73-.07v-4q-.6.01-1.3.11zm1.01-.09v2a9 9 0 0 1 .96.05l-.04-.01.67-1.89.67-1.88a7 7 0 0 0-2.26-.27zm1.59.15-.66 1.9a1 1 0 0 1-.4-.35c-.14-.2-.13-.35-.13-.32h4a3.14 3.14 0 0 0-2.15-3.12zm.8 1.23h-2q0-.06.06-.23.07-.16.16-.24l1.4 1.43 1.39 1.44c.67-.66 1-1.5 1-2.4zm-.39.96-1.4-1.43a1 1 0 0 1 .24-.15l.16-.03v4c.87 0 1.72-.3 2.4-.95zm10.08 1.23-2-.12zm-2.67.24h2v-.1zm-.05-1.02 2-.1-.11-2.23-2.2.35zm-3.25 2.33-1.8-.9-.2.43v.47zm.01 5.07h2zm-.4.95-1.37-1.45-.01.01v.01zm-1.96-.02 1.52-1.3-.01-.01-.02-.02zm-.3-8.46 2 .06zm.35-1.88-1.5-1.33zm2.3.77-1.97.36.59 3.16 2.58-1.92zm5.97 2.02-2-.11c0 .27-.06.14.13-.07a1 1 0 0 1 .33-.24q.17-.04.14-.03v4c.85 0 1.78-.27 2.49-1.04.66-.73.87-1.63.91-2.39zm-1.4 1.55v-2c-.1 0 .2-.02.48.28.29.29.25.55.25.4h-4c0 .74.18 1.65.88 2.38.72.74 1.64.94 2.4.94zm-1.27-1.31 2-.1-.05-1.02-2 .1-2 .1.05 1.02zm-.05-1.02-.32-1.98a6.1 6.1 0 0 0-4.72 3.42l1.79.89 1.79.89c.35-.7.86-1.1 1.78-1.25zm-3.25 2.33h-2l.01 5.08h2l2-.01-.01-5.08zm.01 5.07h-2q-.01-.07.05-.24.08-.17.18-.26l1.38 1.45 1.37 1.45a3.3 3.3 0 0 0 1.02-2.4zm-.4.95-1.39-1.43a1 1 0 0 1 .23-.15l.17-.03v4c.86 0 1.72-.3 2.4-.95zm-1 .39v-2q.03-.01.22.05.2.08.34.25l-1.52 1.3-1.53 1.29c.68.8 1.61 1.1 2.5 1.1zm-.96-.4 1.5-1.34q.09.12.15.26.04.14.03.14h-4c0 .79.23 1.6.82 2.26zm-.32-.94h2v-6.6h-4v6.6zm0-6.6h2l.01-.87-2-.06-2-.07-.01 1zm.02-.93 2 .06.02-1h-4l-.02.87zm.02-.94h2q.01 0-.04.15a1 1 0 0 1-.14.24l-1.5-1.33-1.48-1.33c-.6.66-.84 1.47-.84 2.27zm.33-.94 1.49 1.33q-.16.16-.34.24-.19.06-.18.05v-4c-.86 0-1.77.28-2.46 1.05zm.97-.38v2c.03 0-.18 0-.42-.2-.22-.2-.23-.38-.22-.3l1.97-.35 1.97-.37a3.4 3.4 0 0 0-1.1-2.01 3.3 3.3 0 0 0-2.2-.77zm1.33 1.15 1.2 1.6a4.5 4.5 0 0 1 2.77-.94v-4q-2.86.02-5.17 1.73zm3.97-1.34v2q.16.02.07 0a.4.4 0 0 1-.16-.12l.04.12q.05.2.06.69h4c0-1.09-.2-2.27-.9-3.22a3.8 3.8 0 0 0-3.11-1.47zm2.01 2.69h-2v.55l2 .12 1.99.13.01-.8zm2.65-4.61-1.35 1.47zm0-2.12-1.35-1.48zm2.23 0-1.37 1.46h.01v.01zm0 2.12-1.35-1.48h-.01v.02zm-.22 9.67-2 .05v.01zm-.36 2.82 1.38 1.45.02-.02zm-2 0-1.4 1.43.02.01v.01zm-.43-2.82-2 .05v.01zm.57-7.3 1.37 1.45.01-.01.01-.01zm2 0-1.4 1.43v.01h.02zM37 23.87v-2q.02 0 .12.03.1.04.1.06l-1.34 1.48-1.35 1.47a3.6 3.6 0 0 0 2.47.96zm-1.12-.43 1.35-1.48q.04.03.12.18.05.16.05.24h-4c0 1 .41 1.88 1.13 2.53zm-.48-1.06h2a1 1 0 0 1-.05.24q-.08.14-.12.17l-1.35-1.47-1.35-1.48a3.4 3.4 0 0 0-1.13 2.54zm.48-1.06 1.35 1.47-.11.07-.12.02v-4a3.6 3.6 0 0 0-2.47.96zm1.12-.44v2q-.03 0-.13-.03l-.13-.07 1.37-1.46 1.36-1.46a3.6 3.6 0 0 0-2.47-.98zm1.1.44-1.34 1.47-.12-.17a1 1 0 0 1-.06-.24h4c0-1-.4-1.88-1.12-2.54zm.48 1.06h-2a1 1 0 0 1 .06-.24q.08-.15.12-.18l1.35 1.48 1.35 1.47a3.4 3.4 0 0 0 1.12-2.53zm-.47 1.06-1.37-1.46.13-.08.13-.03v4c.93 0 1.79-.33 2.47-.97zm-.25 7.83h-2q0 .6.03 1.9l2-.06 2-.04-.03-1.8zm.03 1.84-2 .07.04 1.78h4q0-.63-.05-1.91zm.04 1.85h-2q-.01-.05.04-.22.08-.16.17-.24l1.4 1.43 1.39 1.43a3.3 3.3 0 0 0 1-2.4zm-.4.97-1.37-1.45a1 1 0 0 1 .23-.14l.14-.04v4c.86 0 1.7-.28 2.38-.92zm-1 .37v-2q.02-.01.15.04a1 1 0 0 1 .23.14l-1.38 1.45-1.37 1.45c.68.64 1.52.92 2.37.92zm-1-.37 1.4-1.43a.7.7 0 0 1 .21.46h-4c0 .9.32 1.74 1 2.4zm-.39-.97h2q0-.63-.04-1.91l-2 .06-2 .07q.04 1.26.04 1.78zm-.04-1.85 2-.04-.03-1.8h-4l.03 1.9zm-.03-1.84h2q0-.8.1-2.1l-2-.15-2-.15q-.1 1.4-.1 2.4zm.1-2.25 2 .15q.1-1.4.1-2.4h-4q0 .79-.1 2.1zm.1-2.25h2q.01.05-.05.22a1 1 0 0 1-.18.27l-1.37-1.45-1.38-1.45a3.3 3.3 0 0 0-1.02 2.4zm.4-.96 1.4 1.43a1 1 0 0 1-.24.15l-.17.03v-4c-.86 0-1.71.3-2.39.96zm1-.39v2l-.17-.03a1 1 0 0 1-.23-.15l1.4-1.43 1.39-1.43a3.4 3.4 0 0 0-2.4-.96zm1 .39-1.38 1.45a.8.8 0 0 1-.23-.5h4c0-.88-.33-1.74-1.02-2.4zm.39.96h-2q0 .79-.1 2.1l2 .15 2 .15q.1-1.4.1-2.4zm-.1 2.25-2-.15q-.1 1.4-.1 2.4h4q0-.8.1-2.1zm3.45 6.35-1.29 1.54zm-.16-7.65 1.66 1.1zm6.2-1.88.76-1.85h-.01zm1.36 2.48L47.33 27V27zm-1.98-.05-1.24 1.57.02.02h.01zm-3.52 1.05-1.71-1.02zm-.1 4.2 1.25-1.56zm5.75-.05-1.44 1.4h.01l.01.01zm-1.33 2.47.83 1.82zm-2.5.7v-2a3.6 3.6 0 0 1-2.44-.8l-1.28 1.53-1.29 1.54a7.6 7.6 0 0 0 5.01 1.73zm-3.72-1.27 1.28-1.53a2.4 2.4 0 0 1-.87-1.98h-4c0 2.01.77 3.75 2.3 5.05zm-1.59-3.5h2c0-.86.3-1.86 1.1-3.05l-1.67-1.1-1.67-1.11a9.5 9.5 0 0 0-1.76 5.25zm1.43-4.15 1.66 1.1c.86-1.3 1.57-1.55 2.09-1.55v-4c-2.33 0-4.13 1.38-5.42 3.34zM45 25.27v2c.36 0 .91.1 1.7.42l.75-1.85.75-1.86a9 9 0 0 0-3.2-.7zm2.45.57-.75 1.85a4 4 0 0 1 .66.35q0 .02-.1-.15-.1-.18-.1-.45h4c0-1-.5-1.78-1.06-2.3a6 6 0 0 0-1.9-1.15zm1.7 1.6h-2a.7.7 0 0 1 .17-.45l1.5 1.33 1.48 1.33q.84-.92.86-2.2zm-.34.88L47.32 27a.8.8 0 0 1 .57-.27v4c.93 0 1.8-.36 2.44-1.09zm-.93.41v-2a1 1 0 0 1 .33.06l-.04-.02-.14-.1-1.2 1.6-1.2 1.6c.51.39 1.3.86 2.25.86zm-1.05-.46 1.23-1.57c-.91-.72-2.04-.9-3.06-.9v4q.42 0 .56.05t.03 0zM45 27.8v-2c-.94 0-1.67.46-2.15.9-.49.43-.9 1-1.25 1.6l1.71 1.02 1.72 1.02a5 5 0 0 1 .5-.68c.08-.07-.1.14-.53.14zm-1.69 1.52L41.6 28.3a7 7 0 0 0-1.14 3.56h4c0-.2.1-.68.59-1.53zm-.86 2.54h-2a4 4 0 0 0 1.52 3.24l1.24-1.57 1.24-1.57-.01-.01.02.02q0 .02 0 0l-.01-.1zm.76 1.67-1.24 1.57c.93.73 2.05 1 3.16 1v-4c-.47 0-.63-.1-.67-.14zm1.92.57v2c.92 0 1.8-.33 2.59-.74l-.93-1.77-.93-1.77q-.37.19-.57.24-.2.06-.16.04zm1.66-.51.93 1.77q.44-.24.63-.31l.06-.02-.1.02-.28.02v-4c-.54 0-1.03.2-1.21.28q-.43.18-.96.47zm1.24-.52v2a1 1 0 0 1-.28-.06 1 1 0 0 1-.23-.15l1.44-1.4 1.43-1.39c-.63-.64-1.45-1-2.36-1zm.93.4-1.42 1.41a1 1 0 0 1-.12-.19 1 1 0 0 1-.07-.32h4c0-.93-.38-1.72-.98-2.32zm.39.9h-2q.02-.38.14-.57l.08-.12-.23.16q-.19.13-.54.28l.83 1.82.84 1.82c.66-.3 1.3-.67 1.8-1.13a3 3 0 0 0 1.08-2.26zm-1.72 1.57-.82-1.82a5 5 0 0 1-1.68.52v4c1.07 0 2.21-.37 3.33-.88zm4.26-8.53-1.59-1.21zm6.95-1.39.88-1.8zm.28 4.29-1.14-1.65zm-2.27 1.15.8 1.83zm-3.4 1.5-.81-1.83-2.56 1.13 1.9 2.06zm5.03.5-1.01-1.73zm.7 2.4.8 1.84zm-5.94-5.46-1.9-.61-1.36 4.2 4.06-1.76zm2.28-.98.78 1.84h.02l.02-.02zm2.16-1.14 1.1 1.68 2.75-1.8-2.86-1.62zm-1.49 8.18v-2c-1.29 0-2.15-.3-2.74-.75l-1.2 1.6-1.2 1.6a8.4 8.4 0 0 0 5.14 1.55zm-3.94-1.15 1.2-1.6c-.58-.43-.9-1-.9-1.98h-4c0 2.1.81 3.92 2.5 5.18zm-1.7-3.58h2c0-1.33.34-2.33.93-3.1L51.9 27.4l-1.59-1.2a9 9 0 0 0-1.75 5.52zm1.34-4.32 1.6 1.22c.6-.8 1.34-1.18 2.43-1.18v-4a6.8 6.8 0 0 0-5.62 2.75zm4.03-1.96v2c.97 0 1.62.16 2.04.37l.88-1.8.87-1.8a9 9 0 0 0-3.8-.77zm2.92.57-.89 1.8c.26.12.34.22.36.25 0 .02.05.08.05.27h4a4.4 4.4 0 0 0-2.64-4.12zm1.52 2.32h-2v-.03.01c-.03.04-.12.17-.38.34l1.14 1.65 1.13 1.64c1.16-.8 2.1-2 2.1-3.6zm-1.24 1.97-1.15-1.64c-.2.14-.78.45-1.93.96l.8 1.83.82 1.83a18 18 0 0 0 2.6-1.34zm-2.27 1.15-.81-1.83-3.4 1.5.8 1.83.82 1.83 3.4-1.5zm-3.4 1.5-1.47 1.36a5 5 0 0 0 1.92 1.3l.72-1.87.71-1.87q-.26-.1-.41-.27zm1.17.79-.72 1.87q1.1.41 2.3.4v-4q-.6-.02-.87-.14zm1.57.26v2c1.18 0 2.31-.24 3.31-.83l-1.02-1.72-1.02-1.72c-.25.14-.64.27-1.27.27zm2.3-.55 1 1.72.44-.22h.03-.14v-4c-.9 0-1.73.4-2.35.77zm1.33-.5v2c.06 0-.27.02-.6-.3a1.2 1.2 0 0 1-.34-.63v-.05h4a3 3 0 0 0-.88-2.2 3 3 0 0 0-2.18-.82zm1.05 1.02h-2q0-.1.04-.2l.05-.09q0 .01-.13.1-.15.1-.43.23l.79 1.84.79 1.84c1.37-.6 2.9-1.73 2.9-3.72zm-1.68 1.88-.79-1.84q-1.02.45-2.2.44v4q1.97 0 3.78-.76zm-3.27-7.96v-2c-1.12 0-2.15.39-2.98 1.16l1.37 1.46 1.37 1.46c.07-.06.1-.08.24-.08zm-1.6.62-1.38-1.46a6.3 6.3 0 0 0-1.6 2.73l1.9.6 1.9.62c.22-.64.43-.92.54-1.03zm-1.08 1.88.8 1.83 2.26-.97-.78-1.84-.8-1.84-2.27.98zm2.28-.98.82 1.82q1.44-.65 2.43-1.28l-1.09-1.68-1.09-1.68q-.62.41-1.9 1zm2.16-1.14 1-1.74a5.5 5.5 0 0 0-2.76-.64v4c.51 0 .73.09.78.12zm7.83 8.11.4-1.95-2.4-.51v2.46zm-.01 4.12h-2zm-2.77-3.76-2-.02zm0-3.99 2-.03zm-.14-3.75-2 .14zm.22-3.42-1.68-1.08-.01.01zm2.5.62 2 .2v-.2zm0 .1-2-.2-.38 3.85 3.36-1.9zm1.35-.56.51 1.93h.02zm4.76 1.77 1.76-.94v-.01zm-.47 7.51-1.5-1.31zm-4.21-6.48.81 1.83h.01l.01-.01zm-1.33.9-1.33-1.5-.72.64.06.97zm.13 4.16h-2v1.45l1.38.45zm3.39-.45-1.6-1.2zm.38-3.68 1.95-.45v-.01zm-1.98 7.12v-2q-.64 0-1.41-.16l-.41 1.95-.42 1.96q1.14.24 2.24.25zm-1.82-.2-2-.01-.01 4.12h4V36.4zm-.01 4.11h-2q-.01-.05.04-.22.08-.16.17-.24l1.4 1.43 1.39 1.43a3.3 3.3 0 0 0 1-2.4zm-.4.97-1.4-1.43a1 1 0 0 1 .24-.15l.16-.04v4c.87 0 1.72-.29 2.4-.95zm-1 .38v-2l.17.04q.14.07.23.15l-1.4 1.43-1.4 1.43c.68.66 1.54.95 2.4.95zm-1-.38 1.4-1.43a.7.7 0 0 1 .21.46h-4c0 .9.32 1.74 1 2.4zm-.39-.97h2l.02-3.75-2-.01-2-.02-.02 3.78zm.02-3.76 2 .01v-4.03l-2 .03-2 .03v3.94zm0-3.99 2-.03a70 70 0 0 0-.15-3.86l-2 .14-1.99.14q.1 1.5.14 3.64zm-.14-3.75 2-.14-.15-1.98-.03-.21q0-.04-.02-.1l-.07-.26a2 2 0 0 0-.2-.39c-.03-.05-.43-.74-1.34-.9a2 2 0 0 0-2.02.88c-.17.27-.23.5-.25.57q-.07.27-.06.33l-.01.2h4v.09l-.01.1-.06.33c-.02.06-.08.3-.26.57a2 2 0 0 1-2.01.88c-.91-.16-1.32-.85-1.35-.9a2 2 0 0 1-.19-.39q-.07-.2-.07-.25l-.02-.1-.01-.08.02.32.11 1.57zm-.15-2h2c0-.25.05-.34.07-.36l-1.7-1.06-1.7-1.07a4.6 4.6 0 0 0-.67 2.5zm.37-1.42 1.68 1.08c0-.01-.04.07-.17.14a1 1 0 0 1-.34.1v-4c-1.24 0-2.23.63-2.85 1.6zM64 24.9v2q-.06.01-.23-.05a1 1 0 0 1-.23-.15l1.41-1.42 1.41-1.41A3.3 3.3 0 0 0 64 22.9zm.95.38-1.41 1.42a.73.73 0 0 1-.2-.5h4q-.02-1.37-.98-2.33zm.38.92-1.99-.2v.1l1.98.2 2 .2v-.1zm0 .1.98 1.74q.48-.27.88-.37l-.51-1.93-.52-1.93q-.95.26-1.82.75zm1.35-.56.53 1.92q.44-.12.84-.11v-4q-.98 0-1.91.26zm1.37-.2v2q.71.02 1 .23c.2.12.42.32.63.7l1.76-.96 1.76-.95a5.7 5.7 0 0 0-2.14-2.25 6 6 0 0 0-3.01-.76zm3.39 1.97-1.76.95c.32.6.56 1.53.56 2.9h4c0-1.78-.3-3.42-1.04-4.8zm.8 3.85h-2c0 1.07-.3 1.8-.78 2.35l1.51 1.31 1.51 1.31a7.4 7.4 0 0 0 1.76-4.97zm-1.27 3.66-1.5-1.3c-.49.55-1.12.87-2.12.87v4c2.03 0 3.82-.73 5.14-2.26zm-2.92-6.78v-2q-1.13.01-2.13.49l.84 1.81.83 1.82q.31-.14.46-.12zm-1.3.3-.8-1.82q-1 .46-1.85 1.22l1.33 1.5 1.34 1.48q.49-.43.8-.55zm-1.32.9-2 .1q.13 2.02.13 4.06h4q0-2.15-.13-4.29zm.13 4.16-.62 1.9q1.18.4 2.41.4v-4q-.57 0-1.17-.2zm1.8.3v2c1.22 0 2.38-.48 3.18-1.54l-1.6-1.2-1.6-1.2.03-.03.06-.04h.02-.1zm1.59-.75 1.59 1.21c.68-.9.91-1.96.91-3h-4q-.01.34-.05.47l-.05.12zm.5-1.8h2c0-.89-.03-1.73-.17-2.33l-1.95.45-1.95.45v.03l.02.08.02.3q.03.39.03 1.03zm-.12-1.88 1.95-.46a4 4 0 0 0-1.03-1.9 3.1 3.1 0 0 0-2.2-.87v4q-.08.01-.26-.05a1 1 0 0 1-.31-.2c-.16-.15-.14-.24-.1-.06zm10.32-1.7 1.95-.47-.31-1.28-1.3-.22zm-1.8 1.65.84-1.82zm2.71 1.43-1.18 1.62zm-.15 5.03.96 1.75h.01zm-5.65.3-.7 1.88zm1.03-2.38-.63 1.9zm3.4-.53 2 .02v-.02zm-1.41-1.14-.81 1.82zM75.1 30.8l-1.15 1.64h.01v.01zm.73-5.16-.62-1.9zm5.33-.15-.96 1.75h.01l.01.01zm-.32 3.11v-2c-.07 0 .11-.01.35.15a1 1 0 0 1 .4.55l-1.95.47-1.94.46c.16.67.53 1.34 1.2 1.8.64.45 1.35.57 1.94.57zm-1.2-.83L80 25.8a7 7 0 0 0-1.17-.1v4q.26-.01.48.04zm-.82-.07v-2c-.86 0-1.69.05-2.36.23a3 3 0 0 0-1.2.6 2.4 2.4 0 0 0-.88 1.83h4a1.7 1.7 0 0 1-.57 1.26c-.21.17-.37.2-.29.17.14-.04.53-.1 1.3-.1zm-2.44.66h-2c0 .7.32 1.2.53 1.46.22.27.47.48.67.62q.62.45 1.44.8l.83-1.82.83-1.82c-.45-.2-.67-.34-.76-.4-.04-.03.03.01.12.13.09.11.34.47.34 1.03zm1.47 1.06L77 31.25c1.34.61 2.07 1.02 2.36 1.23l1.18-1.62 1.18-1.61a20 20 0 0 0-3.05-1.64zm2.7 1.43-1.17 1.62c.65.48.63.74.63.78h4c0-1.75-1-3.08-2.29-4.02zm1.46 2.4h-2q-.01.36-.1.48c-.06.09-.19.24-.48.4l.97 1.75.97 1.75a4.86 4.86 0 0 0 2.64-4.38zm-1.61 2.63-.96-1.75c-.5.27-1.22.47-2.24.47v4c1.51 0 2.93-.29 4.16-.97zm-3.2.72v-2q-1.03 0-1.75-.3l-.7 1.88-.7 1.88q1.5.55 3.15.54zm-2.45-.42.7-1.87q-.23-.09-.32-.15-.07-.05-.04-.02.05.04.1.16a1 1 0 0 1 .05.22h-4c0 1.95 1.45 3.03 2.8 3.54zm-1.52-1.66h2q.01.05-.06.3-.1.25-.35.47c-.3.26-.55.22-.38.22v-4c-.64 0-1.48.12-2.2.72a3 3 0 0 0-1 2.29zm1.2-1.01v2l.15.02.57.17.63-1.9.63-1.9a7 7 0 0 0-1.97-.4zm1.35.29-.63 1.9c.63.2 1.33.4 1.98.4v-4l-.15-.03-.57-.17zm1.35.3v2c.76 0 1.58-.08 2.29-.36.36-.15.8-.4 1.17-.83.39-.46.6-1.03.6-1.62l-2-.02-2-.03c0-.31.12-.64.33-.9.2-.22.38-.3.4-.31l-.16.03q-.21.03-.63.03zm2.06-.83h2c0-1.12-.74-1.82-1.1-2.1a7 7 0 0 0-1.52-.88l-.8 1.84-.8 1.83a5 5 0 0 1 .61.32c.02.02-.06-.04-.15-.18-.1-.15-.24-.44-.24-.83zm-1.42-1.14.8-1.83c-1.42-.63-2.13-1-2.33-1.14L75.1 30.8l-1.13 1.65c.57.4 1.64.9 2.99 1.5zM75.1 30.8l1.15-1.63c-.54-.39-.57-.64-.57-.8h-4a4.9 4.9 0 0 0 2.27 4.07zm-1.42-2.43h2c0-.3.07-.41.1-.46.06-.07.22-.22.67-.37l-.62-1.9-.63-1.9a4.66 4.66 0 0 0-3.52 4.63zm2.15-2.73.62 1.9a12 12 0 0 1 3.21-.32v-4a15 15 0 0 0-4.45.52zm3.83-.42v2q.39 0 .53.04.16.04.01-.02l.96-1.75.95-1.76a5 5 0 0 0-2.45-.5zm1.5.27-.94 1.76-.19-.14-.15-.21c-.07-.14-.06-.2-.06-.11h4c0-1.15-.45-2.4-1.73-3.07zm.66 1.3h-2q0 .32-.03.44t.03-.03c.05-.1.17-.27.4-.41.23-.15.47-.19.62-.19v4a2.8 2.8 0 0 0 2.5-1.5c.4-.74.48-1.6.48-2.31z" mask="url(#b)"/></g><rect width="130" height="96" x="2" y="2" stroke="#000" stroke-width="4" rx="13"/><defs><clipPath id="a"><rect width="134" height="100" fill="#fff" rx="15"/></clipPath></defs></svg>