<svg width="310" height="36" viewBox="0 0 310 36" fill="none" xmlns="http://www.w3.org/2000/svg">
<rect x="1" y="1" width="308" height="34" rx="7" fill="#EBE8E8"/>
<rect x="1" y="1" width="308" height="34" rx="7" stroke="black" stroke-width="2"/>
<path d="M29.5234 19.6406C29.4349 19.6406 29.2161 19.6224 28.8672 19.5859C28.8359 20.3151 28.8203 21.513 28.8203 23.1797C28.8203 23.4557 28.724 23.6927 28.5312 23.8906C28.3385 24.0885 28.0938 24.1875 27.7969 24.1875C27.5 24.1875 27.2526 24.0885 27.0547 23.8906C26.862 23.6927 26.7656 23.4557 26.7656 23.1797V21C26.7656 20.1927 26.8177 18.9974 26.9219 17.4141C27.0208 15.8047 27.0729 14.6042 27.0781 13.8125C27.0833 12.4583 27.4635 11.8099 28.2188 11.8672C28.3958 11.8203 28.6406 11.7865 28.9531 11.7656C29.2656 11.7396 29.6458 11.7266 30.0938 11.7266C31.1146 11.7266 32.0729 12.0573 32.9688 12.7188C33.9635 13.4583 34.4609 14.3594 34.4609 15.4219C34.4609 16.7552 33.9323 17.8151 32.875 18.6016C31.9375 19.2943 30.8203 19.6406 29.5234 19.6406ZM29.9141 13.7422C29.7474 13.7422 29.599 13.7448 29.4688 13.75C29.3438 13.75 29.237 13.7552 29.1484 13.7656C29.1484 14.0104 29.1458 14.3776 29.1406 14.8672C29.1302 15.4453 29.0807 16.3464 28.9922 17.5703C29.2578 17.612 29.4349 17.6328 29.5234 17.6328C30.3359 17.6328 31.0104 17.4401 31.5469 17.0547C32.1198 16.6432 32.4062 16.099 32.4062 15.4219C32.4062 14.9792 32.138 14.5859 31.6016 14.2422C31.0859 13.9089 30.5234 13.7422 29.9141 13.7422ZM38.8438 24.4609C37.8802 24.4609 37.0521 24.1302 36.3594 23.4688C35.599 22.7448 35.2005 21.7786 35.1641 20.5703C35.1276 19.4193 35.4427 18.3932 36.1094 17.4922C36.901 16.4297 38.0026 15.8984 39.4141 15.8984C40.4557 15.8984 41.2839 16.3151 41.8984 17.1484C42.4505 17.8984 42.7266 18.8281 42.7266 19.9375C42.7266 21.1458 42.4036 22.1771 41.7578 23.0312C41.0339 23.9844 40.0625 24.4609 38.8438 24.4609ZM39.3125 17.9609C38.6719 17.9557 38.1667 18.2474 37.7969 18.8359C37.4844 19.3307 37.3281 19.9089 37.3281 20.5703C37.3281 21.1953 37.5052 21.6745 37.8594 22.0078C38.1406 22.2734 38.4688 22.4062 38.8438 22.4062C39.2969 22.4062 39.6901 22.2526 40.0234 21.9453C40.4036 21.5859 40.6068 21.099 40.6328 20.4844C40.7005 18.8073 40.2604 17.9661 39.3125 17.9609ZM49.7656 16.1484C49.8333 14.3724 49.9141 13.1458 50.0078 12.4688C50.0964 11.8542 50.4349 11.5469 51.0234 11.5469C51.3307 11.5469 51.5781 11.6458 51.7656 11.8438C51.9531 12.0417 52.0469 12.2839 52.0469 12.5703C52.0469 13.3255 51.987 14.4505 51.8672 15.9453C51.7526 17.4401 51.6953 18.5651 51.6953 19.3203C51.6953 21.1641 51.7552 22.3984 51.875 23.0234C51.8906 23.1068 51.8984 23.1823 51.8984 23.25C51.8984 23.5365 51.7943 23.7734 51.5859 23.9609C51.3776 24.1432 51.1354 24.2344 50.8594 24.2344C50.474 24.2344 50.1875 24.0625 50 23.7188C49.6458 23.9323 49.2786 24.0911 48.8984 24.1953C48.5182 24.3047 48.125 24.3594 47.7188 24.3594C46.5521 24.3594 45.5833 23.987 44.8125 23.2422C44.026 22.4818 43.6328 21.513 43.6328 20.3359C43.6328 18.9349 44.0286 17.8047 44.8203 16.9453C45.612 16.0807 46.6458 15.6484 47.9219 15.6484C48.3125 15.6484 48.6615 15.6901 48.9688 15.7734C49.276 15.8568 49.5417 15.9818 49.7656 16.1484ZM49.6094 18.6094C49.4375 18.2812 49.2135 18.0365 48.9375 17.875C48.6615 17.7135 48.3333 17.6328 47.9531 17.6328C47.1823 17.6328 46.6042 17.8568 46.2188 18.3047C45.8333 18.7474 45.6406 19.4141 45.6406 20.3047C45.6406 20.8672 45.849 21.349 46.2656 21.75C46.6823 22.151 47.1667 22.3516 47.7188 22.3516C48.1198 22.3516 48.4245 22.3047 48.6328 22.2109C48.7734 22.1484 49.013 21.9818 49.3516 21.7109C49.4401 21.638 49.526 21.5573 49.6094 21.4688C49.599 21.2188 49.599 20.2656 49.6094 18.6094ZM58.9531 18.2812C58.4375 18.2812 58.1276 18.0651 58.0234 17.6328C57.8151 17.5964 57.6016 17.5781 57.3828 17.5781C56.1276 17.5781 55.5 17.75 55.5 18.0938C55.5 18.2969 55.8776 18.5703 56.6328 18.9141C57.6641 19.388 58.362 19.7578 58.7266 20.0234C59.4818 20.5703 59.8594 21.1875 59.8594 21.875C59.8594 22.7708 59.4427 23.4505 58.6094 23.9141C57.9375 24.2839 57.112 24.4688 56.1328 24.4688C55.4401 24.4688 54.8073 24.362 54.2344 24.1484C53.4531 23.8568 53.0625 23.4271 53.0625 22.8594C53.0625 22.3385 53.3724 22.0781 53.9922 22.0781C54.2318 22.0781 54.5781 22.1536 55.0312 22.3047C55.4844 22.4557 55.8333 22.5312 56.0781 22.5312C57.1354 22.5312 57.6667 22.3177 57.6719 21.8906C57.6719 21.625 57.3047 21.3307 56.5703 21.0078C55.4974 20.5339 54.8099 20.1927 54.5078 19.9844C53.7734 19.4688 53.4062 18.8411 53.4062 18.1016C53.4062 17.0547 53.9609 16.349 55.0703 15.9844C55.7214 15.7708 56.7109 15.6641 58.0391 15.6641C58.5599 15.6641 58.9453 15.7318 59.1953 15.8672C59.5391 16.0495 59.7109 16.3854 59.7109 16.875C59.7109 17.8125 59.4583 18.2812 58.9531 18.2812ZM68.0938 19.4844C68.0938 19.8333 68.0964 20.3594 68.1016 21.0625C68.1068 21.7656 68.1094 22.2917 68.1094 22.6406C68.1094 22.75 68.1172 22.9141 68.1328 23.1328C68.1536 23.3464 68.1641 23.5078 68.1641 23.6172C68.1641 23.9089 68.0573 24.1484 67.8438 24.3359C67.6354 24.5286 67.3776 24.625 67.0703 24.625C66.638 24.625 66.3229 24.4297 66.125 24.0391C65.4583 24.2839 64.7682 24.4062 64.0547 24.4062C63.3151 24.4062 62.6927 24.25 62.1875 23.9375C61.6198 23.5781 61.2812 23.0547 61.1719 22.3672C60.9688 21.0651 60.8672 19.901 60.8672 18.875C60.8672 18.1979 60.9453 17.4245 61.1016 16.5547C61.2057 15.9661 61.5573 15.6719 62.1562 15.6719C62.4583 15.6719 62.7161 15.7682 62.9297 15.9609C63.1432 16.1484 63.25 16.388 63.25 16.6797C63.25 16.9089 63.2109 17.2682 63.1328 17.7578C63.0599 18.2474 63.0234 18.6198 63.0234 18.875C63.0234 19.6094 63.0469 20.2526 63.0938 20.8047C63.1458 21.3516 63.2214 21.8047 63.3203 22.1641C63.4505 22.2214 63.5755 22.2656 63.6953 22.2969C63.8203 22.3281 63.9401 22.3438 64.0547 22.3438C64.6328 22.3438 65.2682 22.2604 65.9609 22.0938C65.9609 21.6927 65.9583 21.237 65.9531 20.7266C65.9427 20.1172 65.9375 19.6797 65.9375 19.4141C65.9375 18.3464 65.987 17.4245 66.0859 16.6484C66.1641 16.0286 66.5182 15.7188 67.1484 15.7188C67.4557 15.7188 67.7188 15.8151 67.9375 16.0078C68.1562 16.2005 68.2578 16.4427 68.2422 16.7344C68.1432 18.7188 68.0938 19.6354 68.0938 19.4844ZM71.6016 17.0859C72.388 16.1745 73.1328 15.7188 73.8359 15.7188C74.638 15.7188 75.2266 16.0234 75.6016 16.6328C75.9193 16.3516 76.2708 16.1406 76.6562 16C77.0417 15.8594 77.4583 15.7891 77.9062 15.7891C78.9271 15.7891 79.6198 16.2969 79.9844 17.3125C80.0573 17.5208 80.1693 18.2266 80.3203 19.4297C80.4661 20.2734 80.6536 21.6797 80.8828 23.6484C80.9036 23.9453 80.8021 24.1901 80.5781 24.3828C80.3542 24.5755 80.0911 24.6719 79.7891 24.6719C79.1901 24.6719 78.8385 24.375 78.7344 23.7812C78.6406 23.2448 78.5443 22.487 78.4453 21.5078C78.3411 20.4349 78.2552 19.6745 78.1875 19.2266C78.0469 18.2943 77.8672 17.8281 77.6484 17.8281C77.5286 17.8281 77.2552 17.9479 76.8281 18.1875C76.401 18.4271 76.0885 18.6328 75.8906 18.8047C75.8906 19.3984 75.9609 20.2526 76.1016 21.3672C76.2474 22.5078 76.3203 23.362 76.3203 23.9297C76.3203 24.2266 76.2188 24.474 76.0156 24.6719C75.8125 24.8698 75.5547 24.9688 75.2422 24.9688C74.9297 24.9688 74.6719 24.8698 74.4688 24.6719C74.2656 24.474 74.1641 24.2266 74.1641 23.9297C74.1641 23.3359 74.099 22.4635 73.9688 21.3125C73.8438 20.1562 73.7812 19.2812 73.7812 18.6875C73.7812 18.3542 73.7526 18.0885 73.6953 17.8906C73.0911 18.2396 72.4844 18.8203 71.875 19.6328C71.849 19.6693 71.8047 19.724 71.7422 19.7969C71.7214 20.849 71.7109 21.6745 71.7109 22.2734C71.7109 22.4193 71.7057 22.6172 71.6953 22.8672C71.6849 23.112 71.6797 23.2943 71.6797 23.4141C71.6797 23.6953 71.5651 23.9167 71.3359 24.0781C71.1276 24.2292 70.8698 24.3047 70.5625 24.3047C70.1198 24.3047 69.8203 24.112 69.6641 23.7266C69.5547 23.4661 69.5 23.0521 69.5 22.4844V19.5781C69.5 19.3177 69.4896 18.9375 69.4688 18.4375C69.4479 17.9323 69.4375 17.5495 69.4375 17.2891C69.4375 16.8255 69.5208 16.4062 69.6875 16.0312C69.8906 15.5625 70.1771 15.3281 70.5469 15.3281C70.8385 15.3281 71.099 15.4427 71.3281 15.6719C71.5573 15.8958 71.6719 16.1432 71.6719 16.4141C71.6719 16.3047 71.6484 16.5286 71.6016 17.0859ZM85.2344 24.4609C84.2708 24.4609 83.4427 24.1302 82.75 23.4688C81.9896 22.7448 81.5911 21.7786 81.5547 20.5703C81.5182 19.4193 81.8333 18.3932 82.5 17.4922C83.2917 16.4297 84.3932 15.8984 85.8047 15.8984C86.8464 15.8984 87.6745 16.3151 88.2891 17.1484C88.8411 17.8984 89.1172 18.8281 89.1172 19.9375C89.1172 21.1458 88.7943 22.1771 88.1484 23.0312C87.4245 23.9844 86.4531 24.4609 85.2344 24.4609ZM85.7031 17.9609C85.0625 17.9557 84.5573 18.2474 84.1875 18.8359C83.875 19.3307 83.7188 19.9089 83.7188 20.5703C83.7188 21.1953 83.8958 21.6745 84.25 22.0078C84.5312 22.2734 84.8594 22.4062 85.2344 22.4062C85.6875 22.4062 86.0807 22.2526 86.4141 21.9453C86.7943 21.5859 86.9974 21.099 87.0234 20.4844C87.0911 18.8073 86.651 17.9661 85.7031 17.9609ZM100.43 17.1172C99.8828 19.1589 99.3333 21.013 98.7812 22.6797C98.625 23.1484 98.3698 23.6302 98.0156 24.125C97.7656 24.4688 97.4323 24.638 97.0156 24.6328C96.3594 24.6224 95.8438 23.9896 95.4688 22.7344C95.3281 22.2552 95.1615 21.362 94.9688 20.0547C94.8594 20.2839 94.7917 20.4375 94.7656 20.5156C94.4948 21.1615 94.099 22.1641 93.5781 23.5234C93.5 23.7422 93.3828 23.9167 93.2266 24.0469C93.0078 24.3958 92.6823 24.5781 92.25 24.5938C92.0052 24.6042 91.7474 24.3854 91.4766 23.9375C91.1901 23.4844 90.9583 22.901 90.7812 22.1875C90.6198 21.5417 90.3698 20.1354 90.0312 17.9688C89.9583 17.5 89.9219 17.1328 89.9219 16.8672C89.9219 16.5807 90.0286 16.3438 90.2422 16.1562C90.4609 15.9635 90.7214 15.8672 91.0234 15.8672C91.5859 15.8672 91.9323 16.1458 92.0625 16.7031C92.1302 16.9948 92.1875 17.3542 92.2344 17.7812C92.2969 18.3958 92.3359 18.7578 92.3516 18.8672C92.4193 19.2734 92.5234 19.9375 92.6641 20.8594C93.0495 19.8021 93.4922 18.487 93.9922 16.9141C94.2057 16.237 94.6068 15.8984 95.1953 15.8984C95.7734 15.8984 96.1536 16.276 96.3359 17.0312C96.4661 17.5625 96.6042 18.2526 96.75 19.1016C96.9635 20.3359 97.0938 21.0703 97.1406 21.3047C97.1875 21.1432 97.5964 19.5599 98.3672 16.5547C98.4818 16.1068 98.8073 15.8828 99.3438 15.8828C99.6406 15.8828 99.901 15.9792 100.125 16.1719C100.354 16.3646 100.469 16.6042 100.469 16.8906C100.469 16.9427 100.456 17.0182 100.43 17.1172ZM108.133 24.5156C107.893 24.5156 107.513 24.2552 106.992 23.7344C106.513 23.9635 106.091 24.1354 105.727 24.25C105.362 24.3698 105.052 24.4297 104.797 24.4297C103.542 24.4297 102.599 24.0938 101.969 23.4219C101.344 22.75 101.031 21.7448 101.031 20.4062C101.031 19.151 101.495 18.0781 102.422 17.1875C103.349 16.2917 104.458 15.8438 105.75 15.8438C106.245 15.8438 106.818 15.9844 107.469 16.2656C108.255 16.6042 108.648 16.9974 108.648 17.4453C108.648 17.6328 108.589 17.7969 108.469 17.9375C108.417 18.1458 108.375 18.4089 108.344 18.7266C108.318 19.0391 108.305 19.4062 108.305 19.8281C108.305 20.8229 108.375 21.5391 108.516 21.9766C108.531 22.0234 108.651 22.2943 108.875 22.7891C109.078 23.237 109.18 23.4922 109.18 23.5547C109.18 23.8307 109.073 24.0599 108.859 24.2422C108.651 24.4245 108.409 24.5156 108.133 24.5156ZM106.195 19.1562C106.195 18.9896 106.206 18.7995 106.227 18.5859C106.253 18.3672 106.289 18.125 106.336 17.8594C106.232 17.8073 106.138 17.7708 106.055 17.75C105.977 17.724 105.909 17.7109 105.852 17.7109C105.143 17.7109 104.523 17.9896 103.992 18.5469C103.461 19.099 103.195 19.7396 103.195 20.4688C103.195 21.1667 103.32 21.6927 103.57 22.0469C103.82 22.3958 104.195 22.5703 104.695 22.5703C105.018 22.5703 105.323 22.5182 105.609 22.4141C105.901 22.3047 106.174 22.1458 106.43 21.9375C106.273 20.6979 106.195 19.7708 106.195 19.1562ZM116.438 24.5547C115.797 24.5547 115.44 24.2396 115.367 23.6094C115.294 23.0729 115.221 22.5339 115.148 21.9922C115.07 21.4193 115.031 20.8802 115.031 20.375C115.031 20.2396 115.039 20.0078 115.055 19.6797C115.076 19.3516 115.086 19.1198 115.086 18.9844C115.086 18.9479 115.091 18.8568 115.102 18.7109C115.112 18.5599 115.117 18.4375 115.117 18.3438C115.117 17.9115 115.005 17.6953 114.781 17.6953C114.302 17.6953 113.831 17.9766 113.367 18.5391C112.909 19.0964 112.549 19.8047 112.289 20.6641C112.279 20.8359 112.255 21.0651 112.219 21.3516C112.188 21.5859 112.172 21.8151 112.172 22.0391C112.172 22.1849 112.188 22.4062 112.219 22.7031C112.255 22.9948 112.273 23.2135 112.273 23.3594C112.273 23.6562 112.169 23.901 111.961 24.0938C111.758 24.2917 111.5 24.3906 111.188 24.3906C110.875 24.3906 110.617 24.2917 110.414 24.0938C110.211 23.901 110.109 23.6562 110.109 23.3594C110.109 23.2135 110.094 22.9948 110.062 22.7031C110.031 22.4062 110.016 22.1849 110.016 22.0391C110.016 21.5391 110.052 20.8438 110.125 19.9531C110.198 19.0625 110.234 18.3672 110.234 17.8672C110.234 17.7109 110.224 17.4792 110.203 17.1719C110.188 16.8594 110.18 16.6276 110.18 16.4766C110.18 16.1849 110.284 15.9453 110.492 15.7578C110.706 15.5651 110.966 15.4688 111.273 15.4688C111.956 15.4688 112.32 15.8776 112.367 16.6953L112.375 16.7812C113.135 16.0156 113.938 15.6328 114.781 15.6328C115.766 15.6328 116.445 16.0443 116.82 16.8672C117.07 17.4193 117.195 18.2448 117.195 19.3438V19.8984C117.19 20.138 117.188 20.3073 117.188 20.4062C117.188 20.8125 117.242 21.3359 117.352 21.9766C117.466 22.6172 117.523 23.138 117.523 23.5391C117.523 23.8307 117.419 24.0729 117.211 24.2656C117.003 24.4583 116.745 24.5547 116.438 24.5547ZM120.438 14.6094C120.104 14.6094 119.815 14.4974 119.57 14.2734C119.326 14.0495 119.203 13.776 119.203 13.4531C119.203 13.1302 119.326 12.8568 119.57 12.6328C119.815 12.4089 120.104 12.2969 120.438 12.2969C120.771 12.2969 121.057 12.4089 121.297 12.6328C121.542 12.8568 121.664 13.1302 121.664 13.4531C121.664 13.776 121.542 14.0495 121.297 14.2734C121.057 14.4974 120.771 14.6094 120.438 14.6094ZM121.102 20.3359C121.102 20.6328 121.109 21.1094 121.125 21.7656C121.146 22.4219 121.156 22.8984 121.156 23.1953C121.156 23.4974 121.055 23.7474 120.852 23.9453C120.648 24.138 120.391 24.2344 120.078 24.2344C119.766 24.2344 119.508 24.138 119.305 23.9453C119.102 23.7474 119 23.4974 119 23.1953C119 22.8984 118.99 22.4219 118.969 21.7656C118.953 21.1094 118.945 20.6328 118.945 20.3359C118.945 19.8724 118.971 19.2917 119.023 18.5938C119.076 17.8958 119.102 17.3151 119.102 16.8516C119.102 16.5495 119.203 16.3021 119.406 16.1094C119.609 15.9115 119.867 15.8125 120.18 15.8125C120.492 15.8125 120.75 15.9115 120.953 16.1094C121.156 16.3021 121.258 16.5495 121.258 16.8516C121.258 17.3151 121.232 17.8958 121.18 18.5938C121.128 19.2917 121.102 19.8724 121.102 20.3359ZM127.078 24.3594C125.833 24.3594 124.815 24.0625 124.023 23.4688C123.148 22.8125 122.711 21.888 122.711 20.6953C122.711 19.3776 123.057 18.263 123.75 17.3516C124.521 16.3411 125.56 15.8359 126.867 15.8359C127.773 15.8359 128.526 15.9818 129.125 16.2734C129.911 16.6589 130.305 17.2578 130.305 18.0703C130.305 18.6432 129.984 19.151 129.344 19.5938C129.052 19.7969 128.466 20.0938 127.586 20.4844L124.953 21.6484C125.203 21.9193 125.505 22.1224 125.859 22.2578C126.214 22.3932 126.62 22.4609 127.078 22.4609C127.776 22.4609 128.367 22.3177 128.852 22.0312C129.284 21.776 129.63 21.6484 129.891 21.6484C130.432 21.6484 130.703 21.9115 130.703 22.4375C130.703 23.0312 130.268 23.5156 129.398 23.8906C128.669 24.2031 127.896 24.3594 127.078 24.3594ZM126.867 17.7266C126.383 17.7266 125.969 17.888 125.625 18.2109C125.281 18.5339 125.005 19.0182 124.797 19.6641C125.385 19.4089 125.971 19.1562 126.555 18.9062C127.258 18.5885 127.818 18.2943 128.234 18.0234C127.885 17.8255 127.43 17.7266 126.867 17.7266ZM148.359 14.6328C147.953 14.6328 147.32 14.6042 146.461 14.5469C145.633 14.4896 145 14.4635 144.562 14.4688C144.583 15.0625 144.654 16.1198 144.773 17.6406C144.883 18.9844 144.938 20.0469 144.938 20.8281C144.938 21.0052 144.956 21.2682 144.992 21.6172C145.029 21.9661 145.047 22.2292 145.047 22.4062C145.047 22.7969 144.964 23.1484 144.797 23.4609C144.583 23.862 144.279 24.0625 143.883 24.0625C143.596 24.0625 143.344 23.9714 143.125 23.7891C142.88 23.5859 142.758 23.3307 142.758 23.0234C142.758 22.9505 142.771 22.8411 142.797 22.6953C142.823 22.5443 142.836 22.4297 142.836 22.3516C142.836 22.112 142.818 21.75 142.781 21.2656C142.75 20.7812 142.734 20.4167 142.734 20.1719C142.734 19.474 142.68 18.5286 142.57 17.3359C142.445 15.9661 142.372 15.0208 142.352 14.5H141.945C140.784 14.5 139.862 14.4167 139.18 14.25C138.602 14.1094 138.312 13.7682 138.312 13.2266C138.312 12.9609 138.406 12.7214 138.594 12.5078C138.812 12.2526 139.099 12.138 139.453 12.1641C139.635 12.1745 140.049 12.2188 140.695 12.2969C141.211 12.3542 141.628 12.3828 141.945 12.3828C142.263 12.3828 142.737 12.3776 143.367 12.3672C144.003 12.3568 144.479 12.3516 144.797 12.3516C145.193 12.3516 145.786 12.3802 146.578 12.4375C147.37 12.4896 147.964 12.5156 148.359 12.5156C148.672 12.5156 148.932 12.6172 149.141 12.8203C149.354 13.0234 149.461 13.2734 149.461 13.5703C149.461 13.8672 149.354 14.1198 149.141 14.3281C148.932 14.5312 148.672 14.6328 148.359 14.6328ZM160.164 17.1172C159.617 19.1589 159.068 21.013 158.516 22.6797C158.359 23.1484 158.104 23.6302 157.75 24.125C157.5 24.4688 157.167 24.638 156.75 24.6328C156.094 24.6224 155.578 23.9896 155.203 22.7344C155.062 22.2552 154.896 21.362 154.703 20.0547C154.594 20.2839 154.526 20.4375 154.5 20.5156C154.229 21.1615 153.833 22.1641 153.312 23.5234C153.234 23.7422 153.117 23.9167 152.961 24.0469C152.742 24.3958 152.417 24.5781 151.984 24.5938C151.74 24.6042 151.482 24.3854 151.211 23.9375C150.924 23.4844 150.693 22.901 150.516 22.1875C150.354 21.5417 150.104 20.1354 149.766 17.9688C149.693 17.5 149.656 17.1328 149.656 16.8672C149.656 16.5807 149.763 16.3438 149.977 16.1562C150.195 15.9635 150.456 15.8672 150.758 15.8672C151.32 15.8672 151.667 16.1458 151.797 16.7031C151.865 16.9948 151.922 17.3542 151.969 17.7812C152.031 18.3958 152.07 18.7578 152.086 18.8672C152.154 19.2734 152.258 19.9375 152.398 20.8594C152.784 19.8021 153.227 18.487 153.727 16.9141C153.94 16.237 154.341 15.8984 154.93 15.8984C155.508 15.8984 155.888 16.276 156.07 17.0312C156.201 17.5625 156.339 18.2526 156.484 19.1016C156.698 20.3359 156.828 21.0703 156.875 21.3047C156.922 21.1432 157.331 19.5599 158.102 16.5547C158.216 16.1068 158.542 15.8828 159.078 15.8828C159.375 15.8828 159.635 15.9792 159.859 16.1719C160.089 16.3646 160.203 16.6042 160.203 16.8906C160.203 16.9427 160.19 17.0182 160.164 17.1172ZM164.344 24.4609C163.38 24.4609 162.552 24.1302 161.859 23.4688C161.099 22.7448 160.701 21.7786 160.664 20.5703C160.628 19.4193 160.943 18.3932 161.609 17.4922C162.401 16.4297 163.503 15.8984 164.914 15.8984C165.956 15.8984 166.784 16.3151 167.398 17.1484C167.951 17.8984 168.227 18.8281 168.227 19.9375C168.227 21.1458 167.904 22.1771 167.258 23.0312C166.534 23.9844 165.562 24.4609 164.344 24.4609ZM164.812 17.9609C164.172 17.9557 163.667 18.2474 163.297 18.8359C162.984 19.3307 162.828 19.9089 162.828 20.5703C162.828 21.1953 163.005 21.6745 163.359 22.0078C163.641 22.2734 163.969 22.4062 164.344 22.4062C164.797 22.4062 165.19 22.2526 165.523 21.9453C165.904 21.5859 166.107 21.099 166.133 20.4844C166.201 18.8073 165.76 17.9661 164.812 17.9609ZM171.328 14.6094C170.995 14.6094 170.706 14.4974 170.461 14.2734C170.216 14.0495 170.094 13.776 170.094 13.4531C170.094 13.1302 170.216 12.8568 170.461 12.6328C170.706 12.4089 170.995 12.2969 171.328 12.2969C171.661 12.2969 171.948 12.4089 172.188 12.6328C172.432 12.8568 172.555 13.1302 172.555 13.4531C172.555 13.776 172.432 14.0495 172.188 14.2734C171.948 14.4974 171.661 14.6094 171.328 14.6094ZM171.992 20.3359C171.992 20.6328 172 21.1094 172.016 21.7656C172.036 22.4219 172.047 22.8984 172.047 23.1953C172.047 23.4974 171.945 23.7474 171.742 23.9453C171.539 24.138 171.281 24.2344 170.969 24.2344C170.656 24.2344 170.398 24.138 170.195 23.9453C169.992 23.7474 169.891 23.4974 169.891 23.1953C169.891 22.8984 169.88 22.4219 169.859 21.7656C169.844 21.1094 169.836 20.6328 169.836 20.3359C169.836 19.8724 169.862 19.2917 169.914 18.5938C169.966 17.8958 169.992 17.3151 169.992 16.8516C169.992 16.5495 170.094 16.3021 170.297 16.1094C170.5 15.9115 170.758 15.8125 171.07 15.8125C171.383 15.8125 171.641 15.9115 171.844 16.1094C172.047 16.3021 172.148 16.5495 172.148 16.8516C172.148 17.3151 172.122 17.8958 172.07 18.5938C172.018 19.2917 171.992 19.8724 171.992 20.3359ZM177.625 24.4922C176.479 24.4922 175.518 24.1667 174.742 23.5156C173.924 22.8281 173.516 21.9219 173.516 20.7969C173.516 19.7604 173.883 18.6901 174.617 17.5859C175.451 16.3255 176.419 15.6953 177.523 15.6953C178.065 15.6953 178.698 15.8411 179.422 16.1328C180.302 16.4922 180.742 16.9062 180.742 17.375C180.742 17.6302 180.654 17.8568 180.477 18.0547C180.289 18.2682 180.047 18.375 179.75 18.375C179.526 18.375 179.255 18.2552 178.938 18.0156C178.625 17.7708 178.154 17.6484 177.523 17.6484C177.122 17.6484 176.688 18.0417 176.219 18.8281C175.771 19.5885 175.547 20.2448 175.547 20.7969C175.547 21.3438 175.745 21.7734 176.141 22.0859C176.516 22.3828 177.01 22.5312 177.625 22.5312C177.974 22.5312 178.401 22.3984 178.906 22.1328C179.411 21.8672 179.732 21.7344 179.867 21.7344C180.148 21.7344 180.388 21.8359 180.586 22.0391C180.789 22.2422 180.891 22.474 180.891 22.7344C180.891 23.1406 180.448 23.5469 179.562 23.9531C178.771 24.3125 178.125 24.4922 177.625 24.4922ZM184.57 16.8516C184.951 16.4766 185.357 16.1979 185.789 16.0156C186.227 15.8281 186.693 15.7344 187.188 15.7344C188.078 15.7344 188.719 15.9844 189.109 16.4844C189.401 16.8594 189.578 17.4349 189.641 18.2109C189.667 18.8516 189.695 19.4948 189.727 20.1406C189.81 20.9792 189.862 21.4896 189.883 21.6719C189.956 22.25 190.044 22.7552 190.148 23.1875C190.174 23.2969 190.188 23.3932 190.188 23.4766C190.188 23.7682 190.076 24.0078 189.852 24.1953C189.633 24.388 189.375 24.4844 189.078 24.4844C188.552 24.4844 188.211 24.224 188.055 23.7031C187.93 23.2812 187.815 22.6875 187.711 21.9219C187.617 21.1875 187.57 20.5833 187.57 20.1094C187.57 19.9792 187.576 19.7839 187.586 19.5234C187.602 19.2578 187.609 19.0599 187.609 18.9297C187.609 18.5443 187.604 18.3203 187.594 18.2578C187.547 17.9714 187.411 17.8281 187.188 17.8281C186.609 17.8281 186.086 18.0938 185.617 18.625C185.378 18.8906 185.049 19.3958 184.633 20.1406C184.633 22.026 184.542 23.1615 184.359 23.5469C184.156 23.974 183.833 24.1875 183.391 24.1875C183.099 24.1875 182.839 24.0911 182.609 23.8984C182.385 23.7005 182.273 23.4583 182.273 23.1719C182.273 23.0729 182.302 22.9349 182.359 22.7578C182.396 22.6432 182.427 21.9401 182.453 20.6484C182.427 19.6016 182.432 17.8594 182.469 15.4219L182.484 15.1641C182.516 14.5495 182.531 14.138 182.531 13.9297C182.531 13.7682 182.505 13.5312 182.453 13.2188C182.406 12.901 182.383 12.6615 182.383 12.5C182.383 12.2031 182.49 11.9609 182.703 11.7734C182.917 11.5807 183.174 11.4844 183.477 11.4844C183.992 11.4844 184.339 11.7604 184.516 12.3125C184.615 12.625 184.664 13.1042 184.664 13.75C184.664 14.2708 184.648 14.7995 184.617 15.3359C184.586 15.8464 184.57 16.3516 184.57 16.8516ZM203.781 24.4766C202.24 24.4766 200.927 24.0339 199.844 23.1484C198.688 22.2005 198.109 20.974 198.109 19.4688C198.109 17.6979 198.664 16.0833 199.773 14.625C201.018 12.9844 202.586 12.1641 204.477 12.1641C206.294 12.1641 207.656 12.5807 208.562 13.4141C209.469 14.2474 209.922 15.5 209.922 17.1719C209.922 18.9427 209.411 20.5469 208.391 21.9844C207.214 23.6458 205.677 24.4766 203.781 24.4766ZM204.477 14.2812C203.315 14.2812 202.32 14.8438 201.492 15.9688C200.716 17.0208 200.328 18.1875 200.328 19.4688C200.328 20.3333 200.664 21.0365 201.336 21.5781C201.982 22.099 202.797 22.3594 203.781 22.3594C204.927 22.3594 205.883 21.7969 206.648 20.6719C207.352 19.6458 207.703 18.4792 207.703 17.1719C207.703 16.0781 207.458 15.3177 206.969 14.8906C206.5 14.4844 205.669 14.2812 204.477 14.2812ZM216.938 16.1484C217.005 14.3724 217.086 13.1458 217.18 12.4688C217.268 11.8542 217.607 11.5469 218.195 11.5469C218.503 11.5469 218.75 11.6458 218.938 11.8438C219.125 12.0417 219.219 12.2839 219.219 12.5703C219.219 13.3255 219.159 14.4505 219.039 15.9453C218.924 17.4401 218.867 18.5651 218.867 19.3203C218.867 21.1641 218.927 22.3984 219.047 23.0234C219.062 23.1068 219.07 23.1823 219.07 23.25C219.07 23.5365 218.966 23.7734 218.758 23.9609C218.549 24.1432 218.307 24.2344 218.031 24.2344C217.646 24.2344 217.359 24.0625 217.172 23.7188C216.818 23.9323 216.451 24.0911 216.07 24.1953C215.69 24.3047 215.297 24.3594 214.891 24.3594C213.724 24.3594 212.755 23.987 211.984 23.2422C211.198 22.4818 210.805 21.513 210.805 20.3359C210.805 18.9349 211.201 17.8047 211.992 16.9453C212.784 16.0807 213.818 15.6484 215.094 15.6484C215.484 15.6484 215.833 15.6901 216.141 15.7734C216.448 15.8568 216.714 15.9818 216.938 16.1484ZM216.781 18.6094C216.609 18.2812 216.385 18.0365 216.109 17.875C215.833 17.7135 215.505 17.6328 215.125 17.6328C214.354 17.6328 213.776 17.8568 213.391 18.3047C213.005 18.7474 212.812 19.4141 212.812 20.3047C212.812 20.8672 213.021 21.349 213.438 21.75C213.854 22.151 214.339 22.3516 214.891 22.3516C215.292 22.3516 215.596 22.3047 215.805 22.2109C215.945 22.1484 216.185 21.9818 216.523 21.7109C216.612 21.638 216.698 21.5573 216.781 21.4688C216.771 21.2188 216.771 20.2656 216.781 18.6094ZM224.234 24.4609C223.786 24.4609 223.315 24.4089 222.82 24.3047L222.812 27.4922C222.812 27.7943 222.711 28.0443 222.508 28.2422C222.305 28.4401 222.047 28.5391 221.734 28.5391C221.422 28.5391 221.164 28.4401 220.961 28.2422C220.758 28.0443 220.656 27.7943 220.656 27.4922C220.656 27.2474 220.661 26.276 220.672 24.5781C220.682 23.3177 220.682 22.2891 220.672 21.4922C220.656 20.3672 220.62 19.3984 220.562 18.5859C220.484 17.4661 220.445 16.9531 220.445 17.0469C220.445 16.6146 220.542 16.2448 220.734 15.9375C220.958 15.5885 221.26 15.4141 221.641 15.4141C221.932 15.4141 222.177 15.513 222.375 15.7109C222.573 15.9089 222.672 16.1458 222.672 16.4219L222.664 16.5C223.013 16.3021 223.362 16.1562 223.711 16.0625C224.065 15.9635 224.419 15.9141 224.773 15.9141C225.971 15.9141 226.846 16.4219 227.398 17.4375C227.81 18.2031 228.016 19.1953 228.016 20.4141C228.016 21.5547 227.69 22.5 227.039 23.25C226.341 24.0573 225.406 24.4609 224.234 24.4609ZM224.773 18C224.445 18 224.112 18.0781 223.773 18.2344C223.435 18.3854 223.094 18.6146 222.75 18.9219C222.812 19.9948 222.844 21.0703 222.844 22.1484C223.307 22.2995 223.771 22.375 224.234 22.375C224.771 22.375 225.182 22.1849 225.469 21.8047C225.729 21.4609 225.859 20.9974 225.859 20.4141C225.859 19.7109 225.828 19.224 225.766 18.9531C225.615 18.3177 225.284 18 224.773 18ZM232.406 24.4609C231.443 24.4609 230.615 24.1302 229.922 23.4688C229.161 22.7448 228.763 21.7786 228.727 20.5703C228.69 19.4193 229.005 18.3932 229.672 17.4922C230.464 16.4297 231.565 15.8984 232.977 15.8984C234.018 15.8984 234.846 16.3151 235.461 17.1484C236.013 17.8984 236.289 18.8281 236.289 19.9375C236.289 21.1458 235.966 22.1771 235.32 23.0312C234.596 23.9844 233.625 24.4609 232.406 24.4609ZM232.875 17.9609C232.234 17.9557 231.729 18.2474 231.359 18.8359C231.047 19.3307 230.891 19.9089 230.891 20.5703C230.891 21.1953 231.068 21.6745 231.422 22.0078C231.703 22.2734 232.031 22.4062 232.406 22.4062C232.859 22.4062 233.253 22.2526 233.586 21.9453C233.966 21.5859 234.169 21.099 234.195 20.4844C234.263 18.8073 233.823 17.9661 232.875 17.9609ZM247.602 17.1172C247.055 19.1589 246.505 21.013 245.953 22.6797C245.797 23.1484 245.542 23.6302 245.188 24.125C244.938 24.4688 244.604 24.638 244.188 24.6328C243.531 24.6224 243.016 23.9896 242.641 22.7344C242.5 22.2552 242.333 21.362 242.141 20.0547C242.031 20.2839 241.964 20.4375 241.938 20.5156C241.667 21.1615 241.271 22.1641 240.75 23.5234C240.672 23.7422 240.555 23.9167 240.398 24.0469C240.18 24.3958 239.854 24.5781 239.422 24.5938C239.177 24.6042 238.919 24.3854 238.648 23.9375C238.362 23.4844 238.13 22.901 237.953 22.1875C237.792 21.5417 237.542 20.1354 237.203 17.9688C237.13 17.5 237.094 17.1328 237.094 16.8672C237.094 16.5807 237.201 16.3438 237.414 16.1562C237.633 15.9635 237.893 15.8672 238.195 15.8672C238.758 15.8672 239.104 16.1458 239.234 16.7031C239.302 16.9948 239.359 17.3542 239.406 17.7812C239.469 18.3958 239.508 18.7578 239.523 18.8672C239.591 19.2734 239.695 19.9375 239.836 20.8594C240.221 19.8021 240.664 18.487 241.164 16.9141C241.378 16.237 241.779 15.8984 242.367 15.8984C242.945 15.8984 243.326 16.276 243.508 17.0312C243.638 17.5625 243.776 18.2526 243.922 19.1016C244.135 20.3359 244.266 21.0703 244.312 21.3047C244.359 21.1432 244.768 19.5599 245.539 16.5547C245.654 16.1068 245.979 15.8828 246.516 15.8828C246.812 15.8828 247.073 15.9792 247.297 16.1719C247.526 16.3646 247.641 16.6042 247.641 16.8906C247.641 16.9427 247.628 17.0182 247.602 17.1172ZM250.344 14.6094C250.01 14.6094 249.721 14.4974 249.477 14.2734C249.232 14.0495 249.109 13.776 249.109 13.4531C249.109 13.1302 249.232 12.8568 249.477 12.6328C249.721 12.4089 250.01 12.2969 250.344 12.2969C250.677 12.2969 250.964 12.4089 251.203 12.6328C251.448 12.8568 251.57 13.1302 251.57 13.4531C251.57 13.776 251.448 14.0495 251.203 14.2734C250.964 14.4974 250.677 14.6094 250.344 14.6094ZM251.008 20.3359C251.008 20.6328 251.016 21.1094 251.031 21.7656C251.052 22.4219 251.062 22.8984 251.062 23.1953C251.062 23.4974 250.961 23.7474 250.758 23.9453C250.555 24.138 250.297 24.2344 249.984 24.2344C249.672 24.2344 249.414 24.138 249.211 23.9453C249.008 23.7474 248.906 23.4974 248.906 23.1953C248.906 22.8984 248.896 22.4219 248.875 21.7656C248.859 21.1094 248.852 20.6328 248.852 20.3359C248.852 19.8724 248.878 19.2917 248.93 18.5938C248.982 17.8958 249.008 17.3151 249.008 16.8516C249.008 16.5495 249.109 16.3021 249.312 16.1094C249.516 15.9115 249.773 15.8125 250.086 15.8125C250.398 15.8125 250.656 15.9115 250.859 16.1094C251.062 16.3021 251.164 16.5495 251.164 16.8516C251.164 17.3151 251.138 17.8958 251.086 18.5938C251.034 19.2917 251.008 19.8724 251.008 20.3359ZM256.984 24.3594C255.74 24.3594 254.721 24.0625 253.93 23.4688C253.055 22.8125 252.617 21.888 252.617 20.6953C252.617 19.3776 252.964 18.263 253.656 17.3516C254.427 16.3411 255.466 15.8359 256.773 15.8359C257.68 15.8359 258.432 15.9818 259.031 16.2734C259.818 16.6589 260.211 17.2578 260.211 18.0703C260.211 18.6432 259.891 19.151 259.25 19.5938C258.958 19.7969 258.372 20.0938 257.492 20.4844L254.859 21.6484C255.109 21.9193 255.411 22.1224 255.766 22.2578C256.12 22.3932 256.526 22.4609 256.984 22.4609C257.682 22.4609 258.273 22.3177 258.758 22.0312C259.19 21.776 259.536 21.6484 259.797 21.6484C260.339 21.6484 260.609 21.9115 260.609 22.4375C260.609 23.0312 260.174 23.5156 259.305 23.8906C258.576 24.2031 257.802 24.3594 256.984 24.3594ZM256.773 17.7266C256.289 17.7266 255.875 17.888 255.531 18.2109C255.188 18.5339 254.911 19.0182 254.703 19.6641C255.292 19.4089 255.878 19.1562 256.461 18.9062C257.164 18.5885 257.724 18.2943 258.141 18.0234C257.792 17.8255 257.336 17.7266 256.773 17.7266ZM267.719 16.1484C267.786 14.3724 267.867 13.1458 267.961 12.4688C268.049 11.8542 268.388 11.5469 268.977 11.5469C269.284 11.5469 269.531 11.6458 269.719 11.8438C269.906 12.0417 270 12.2839 270 12.5703C270 13.3255 269.94 14.4505 269.82 15.9453C269.706 17.4401 269.648 18.5651 269.648 19.3203C269.648 21.1641 269.708 22.3984 269.828 23.0234C269.844 23.1068 269.852 23.1823 269.852 23.25C269.852 23.5365 269.747 23.7734 269.539 23.9609C269.331 24.1432 269.089 24.2344 268.812 24.2344C268.427 24.2344 268.141 24.0625 267.953 23.7188C267.599 23.9323 267.232 24.0911 266.852 24.1953C266.471 24.3047 266.078 24.3594 265.672 24.3594C264.505 24.3594 263.536 23.987 262.766 23.2422C261.979 22.4818 261.586 21.513 261.586 20.3359C261.586 18.9349 261.982 17.8047 262.773 16.9453C263.565 16.0807 264.599 15.6484 265.875 15.6484C266.266 15.6484 266.615 15.6901 266.922 15.7734C267.229 15.8568 267.495 15.9818 267.719 16.1484ZM267.562 18.6094C267.391 18.2812 267.167 18.0365 266.891 17.875C266.615 17.7135 266.286 17.6328 265.906 17.6328C265.135 17.6328 264.557 17.8568 264.172 18.3047C263.786 18.7474 263.594 19.4141 263.594 20.3047C263.594 20.8672 263.802 21.349 264.219 21.75C264.635 22.151 265.12 22.3516 265.672 22.3516C266.073 22.3516 266.378 22.3047 266.586 22.2109C266.727 22.1484 266.966 21.9818 267.305 21.7109C267.393 21.638 267.479 21.5573 267.562 21.4688C267.552 21.2188 267.552 20.2656 267.562 18.6094ZM278.125 18.0312C277.682 18.5312 277.148 19.2057 276.523 20.0547C275.654 21.2318 275.112 21.9557 274.898 22.2266C275.216 22.2161 275.479 22.2109 275.688 22.2109C275.896 22.2109 276.198 22.25 276.594 22.3281C276.995 22.401 277.297 22.4375 277.5 22.4375C277.812 22.4375 278.07 22.5365 278.273 22.7344C278.482 22.9271 278.586 23.1719 278.586 23.4688C278.586 23.7656 278.484 24.0104 278.281 24.2031C278.078 24.3958 277.818 24.4922 277.5 24.4922C277.292 24.4922 276.987 24.4557 276.586 24.3828C276.19 24.3099 275.891 24.2734 275.688 24.2734C274.521 24.2734 273.43 24.3698 272.414 24.5625C272.279 24.5885 272.164 24.6016 272.07 24.6016C271.784 24.6016 271.539 24.5234 271.336 24.3672C271.107 24.1953 270.992 23.9688 270.992 23.6875C270.992 23.3542 271.156 23.0495 271.484 22.7734C272.781 21.6745 274.138 20.0677 275.555 17.9531C275.232 17.9688 274.922 17.9766 274.625 17.9766C273.828 17.9766 273.021 17.9193 272.203 17.8047C271.562 17.7161 271.242 17.3776 271.242 16.7891C271.242 16.5026 271.341 16.2578 271.539 16.0547C271.737 15.8516 271.99 15.75 272.297 15.75C272.552 15.75 272.938 15.7786 273.453 15.8359C273.974 15.888 274.365 15.9141 274.625 15.9141C274.979 15.9141 275.51 15.8932 276.219 15.8516C276.927 15.8047 277.458 15.7812 277.812 15.7812C278.464 15.7812 278.789 16.0469 278.789 16.5781C278.789 17.0469 278.568 17.5312 278.125 18.0312ZM281.797 14.6094C281.464 14.6094 281.174 14.4974 280.93 14.2734C280.685 14.0495 280.562 13.776 280.562 13.4531C280.562 13.1302 280.685 12.8568 280.93 12.6328C281.174 12.4089 281.464 12.2969 281.797 12.2969C282.13 12.2969 282.417 12.4089 282.656 12.6328C282.901 12.8568 283.023 13.1302 283.023 13.4531C283.023 13.776 282.901 14.0495 282.656 14.2734C282.417 14.4974 282.13 14.6094 281.797 14.6094ZM282.461 20.3359C282.461 20.6328 282.469 21.1094 282.484 21.7656C282.505 22.4219 282.516 22.8984 282.516 23.1953C282.516 23.4974 282.414 23.7474 282.211 23.9453C282.008 24.138 281.75 24.2344 281.438 24.2344C281.125 24.2344 280.867 24.138 280.664 23.9453C280.461 23.7474 280.359 23.4974 280.359 23.1953C280.359 22.8984 280.349 22.4219 280.328 21.7656C280.312 21.1094 280.305 20.6328 280.305 20.3359C280.305 19.8724 280.331 19.2917 280.383 18.5938C280.435 17.8958 280.461 17.3151 280.461 16.8516C280.461 16.5495 280.562 16.3021 280.766 16.1094C280.969 15.9115 281.227 15.8125 281.539 15.8125C281.852 15.8125 282.109 15.9115 282.312 16.1094C282.516 16.3021 282.617 16.5495 282.617 16.8516C282.617 17.3151 282.591 17.8958 282.539 18.5938C282.487 19.2917 282.461 19.8724 282.461 20.3359Z" fill="black"/>
<path d="M26.2969 26.8047H219.289V28.1719H26.2969V26.8047ZM224.18 26.8047H283.703V28.1719H224.18V26.8047Z" fill="black"/>
</svg>
