<svg xmlns="http://www.w3.org/2000/svg" width="344" height="76" fill="none"><path fill="#F3F3F3" d="M2.15 15.28a13 13 0 0 1 13-13h313a13 13 0 0 1 13 13v45a13 13 0 0 1-13 13h-313a13 13 0 0 1-13-13v-45Z"/><path fill="#000" d="M172.24.15c.31.03.63.05.95.04l1.12-.02c.35 0 .7-.02 1.06-.05l1.12-.07c.64-.04 1.27.09 1.84.34l.56.25.57.26.06.02.03-.01.56-.17.57-.15c.7-.2 1.4-.16 2.07.1l.56.2.56.23c.23.09.44.12.63.13l1.12.02c.26 0 .53-.02.8-.07l.56-.12.56-.1a3.76 3.76 0 0 1 1.87.1l.56.17.53.16.56-.31.56-.3a2.9 2.9 0 0 1 1.71-.37l.61.13 1.13.37c.17.06.32.08.47.06l1.12-.14c.42-.05.84-.08 1.27-.1l1.12-.02c.32 0 .63-.03.95-.08l1.13-.16c.47-.07.94-.09 1.41-.06l.56.03.57.03c.6.03 1.16.2 1.7.45l.56.27.56.28.01.02.56-.2.56-.18a3.43 3.43 0 0 1 1.98-.07l.56.14.56.15c.26.07.52.1.76.1l1.13.03c.32 0 .64-.01.96-.04l.56-.05.56-.06c.49-.05.98-.05 1.46.01l1.12.14c.24.03.48.03.72 0l.56-.1.56-.08a4.88 4.88 0 0 1 1.62 0l1.13.22c.06 0 .14 0 .26-.05l.57-.24.56-.24a4.17 4.17 0 0 1 1.76-.35l1.12.02c.34.01.68.02 1.02 0l1.13-.04 1.11-.06 1.13-.05 1.13-.06.56-.02.57-.01c.66-.03 1.3.13 1.87.43l.56.28.57.3.1.04a.1.1 0 0 0 .04 0l1.12-.23c.3-.06.6-.15.9-.26l1.12-.42a3.55 3.55 0 0 1 1.93-.19l1.13.21 1.11.21.56.1.56.1c.24.04.47.05.7.02l.56-.05.56-.07c.27-.04.55-.1.83-.2l.57-.17.56-.19c.69-.22 1.4-.21 2.09.03l1.12.4c.17.05.31.06.44.04l.57-.06.56-.07c.69-.08 1.35.05 1.96.34l1.12.54c.13.06.2.06.25.05l1.12-.16c.35-.06.7-.12 1.06-.2l1.12-.23c.52-.1 1.06-.12 1.58-.07l1.13.12c.27.03.55.03.82 0l.56-.05.56-.05c.33-.04.65-.08.98-.15l.56-.11.56-.1c.65-.14 1.3-.1 1.91.12l.57.2.52.19 1.13-.56a2.93 2.93 0 0 1 1.7-.3l.6.14 1.12.4c.3.11.61.2.91.26l.57.1.56.12c.23.05.46.06.69.04l.56-.06.56-.05c.45-.04.9-.05 1.34-.03l.56.03.57.03c.14 0 .3-.02.49-.1l.56-.23.56-.23a3.96 3.96 0 0 1 1.8-.29l1.13.1c.53.04 1.05.16 1.55.35l1.13.42v.01l.04-.01 1.13-.45a3.77 3.77 0 0 1 1.85-.23l.56.06.56.07c.2.02.4.02.61-.03l1.13-.25a3.7 3.7 0 0 1 1.87.06l1.13.32c.09.03.16.03.26 0l1.12-.35c.72-.22 1.45-.2 2.13.08l.57.23.56.23c.1.04.16.04.22.02l.56-.12.57-.15c.4-.1.82-.18 1.23-.24l.56-.08.56-.1a3.3 3.3 0 0 1 2.04.34l.56.28.5.26.48-.2.56-.26c.5-.22 1.04-.36 1.58-.42l.56-.04.56-.06c.5-.05 1-.05 1.48.02l.56.08.57.07c.24.04.48.03.72 0l1.13-.14c.5-.06 1-.05 1.51.01l.56.07.56.09c.3.03.59.04.87.03l1.13-.05c.32 0 .64-.04.96-.09l.56-.08.56-.1.59-.03c.57.03 1.1.22 1.57.52l.56.36.4.26.94-.47.62-.22c.42-.1.85-.1 1.28.02l.62.26.52.3.54.32c.27.15.5.24.7.3l.52.13.52.13c.17.05.4.07.68.06l1.24-.05c.72-.03 1.43.15 2.04.59l.94.68c.34.25.67.52 1 .8l.44.37.43.37c.52.44.88 1 1.08 1.65l.19.57.17.56c.09.27.2.52.32.72l.3.47.27.46c.25.4.47.84.63 1.3l.37 1.05a7 7 0 0 1 .33 1.37l.08.56.07.55c.08.58.04 1.15-.1 1.71l-.16.57-.14.56c-.07.25-.1.5-.1.75v1.12c0 .22.03.45.1.68l.18.57.16.56c.13.4.25.82.34 1.23l.26 1.12c.13.58.14 1.17.02 1.75l-.1.56-.12.56c-.03.16-.02.3.02.46l.14.56.16.57c.16.64.14 1.3-.05 1.93l-.33 1.13c-.1.33-.2.68-.27 1.01l-.12.57-.12.56a.66.66 0 0 0 .02.35l.35 1.13c.2.61.23 1.25.1 1.88l-.13.57-.12.56c-.05.22-.07.45-.05.67l.12 1.12c.02.26.07.52.16.8l.38 1.12c.28.86.13 1.7-.32 2.4l-.35.57-.25.38.2.36.3.56c.37.7.46 1.51.2 2.3l-.38 1.13c-.08.23-.12.45-.12.66v1.12c0 .52-.07 1.04-.22 1.54l-.18.56-.16.56a.37.37 0 0 0 .01.24l.38 1.12c.22.65.24 1.33.06 2l-.3 1.12v.04l.01.04.54 1.13c.38.8.38 1.67-.04 2.46l-.3.54-.28.52a.4.4 0 0 0-.06.25l.06.59.07.57c.06.55.02 1.1-.1 1.63l-.1.57-.14.58a3.03 3.03 0 0 1-1.18 1.81l-.48.37-.5.36a.55.55 0 0 0-.18.26l-.21.57-.22.58c-.28.72-.78 1.3-1.5 1.65l-1.05.52c-.3.14-.6.31-.86.49l-.48.3-.5.3c-.6.4-1.28.56-1.99.51l-.6-.03-.6-.05a1 1 0 0 0-.45.07l-.54.21-.53.21c-.7.28-1.43.3-2.13.06l-.56-.2-.55-.19-.02.01-1.12.54a4 4 0 0 1-1.8.4l-1.12-.02c-.31 0-.63.01-.95.05l-1.12.11a3.87 3.87 0 0 1-1.84-.28l-1.13-.44-.02-.02-.01.02-.56.2-.57.2c-.5.2-1.02.31-1.54.35l-1.13.07-1.14.07-1.12.07a4.43 4.43 0 0 1-1.71-.25l-.56-.2-.57-.19a1.13 1.13 0 0 0-.48-.07l-.56.06-.56.05c-.45.04-.91.06-1.36.03l-.56-.03-.57-.02c-.27-.02-.54-.01-.8.03l-.57.08-.56.1-1.19.15-.56.07-.56.06a5.6 5.6 0 0 1-1.54-.03l-1.12-.18a1.2 1.2 0 0 0-.5.03l-.57.15-.56.15c-.77.2-1.54.08-2.21-.27l-.57-.3-.47-.24-.43.2-.56.28c-.57.27-1.2.42-1.84.38l-.56-.02-.57-.03a4.62 4.62 0 0 1-1.66-.4l-.56-.26-.56-.25c-.1-.04-.14-.04-.18-.03l-.56.13-.56.14-1.1.25-1.13.29a2.85 2.85 0 0 1-2.35-.48l-.56-.4-.56-.39-.01-.01-.48.12-.56.12c-.29.07-.58.16-.87.29l-1.13.49a3.4 3.4 0 0 1-1.99.23l-1.13-.2a1.24 1.24 0 0 0-.51 0l-1.13.26c-.48.11-.97.17-1.46.17h-2.2l-1.13.03c-.4.01-.82.02-1.23 0l-1.12-.05h-1.04l-1.12.02c-.5 0-1-.04-1.48-.15l-.56-.12-.56-.12a1.86 1.86 0 0 0-.62-.04l-1.13.14c-.45.06-.9.08-1.36.06h-.56l-.56-.03a5.05 5.05 0 0 1-1.6-.33l-1.13-.42-.55.24-.57.26c-.6.27-1.24.39-1.9.3l-1.13-.13c-.3-.04-.6-.05-.9-.04l-1.12.05c-.43.01-.86 0-1.29-.03l-1.12-.09a4.86 4.86 0 0 1-1.63-.42l-.56-.25-.56-.26h-.05l-.56.18-.57.18c-.69.22-1.4.21-2.08-.03l-.56-.2-.47-.16-.52.32-.56.32c-.78.47-1.7.54-2.55.13l-.56-.27-.42-.2-.43.25-.56.33c-.4.22-.88.36-1.39.34a2.6 2.6 0 0 1-1.31-.45l-.56-.37-.48-.32-.4.17-.56.2c-.52.2-1.05.33-1.6.36l-.56.03-.56.03a5.54 5.54 0 0 1-1.55-.14l-1.13-.26-.02-.01s-.04 0-.1.03l-1.12.56a2.9 2.9 0 0 1-2.28.14l-.56-.18-.57-.2c-.35-.13-.71-.25-1.06-.35l-.57-.17-.56-.17h-.01s-.03 0-.05.02l-1.12.52c-.66.3-1.38.4-2.11.22l-.56-.13-.57-.14c-.04-.01-.08-.02-.17.02l-1.13.5c-.93.4-1.85.2-2.59-.32l-.56-.41-.46-.33-.35.15-.56.24a3.1 3.1 0 0 1-2.16.09l-.56-.18-.56-.18c-.29-.1-.57-.16-.85-.2l-1.12-.13-.04.01-.14.06-1.12.68c-.81.49-1.75.54-2.6.08l-1.13-.6a1.2 1.2 0 0 0-.5-.16l-.56-.04-.57-.02c-.02 0-.09 0-.24.1l-1.13.7c-.68.42-1.5.6-2.33.36l-.56-.16-.56-.16a1.21 1.21 0 0 0-.5-.03l-1.13.16-1.13.16-.56.08-.56.07c-.64.08-1.27.01-1.87-.21l-.56-.23-.56-.2a1.97 1.97 0 0 0-.65-.14l-.56-.02-.56-.01c-.14 0-.3.01-.5.1l-.56.24-.56.23c-.6.26-1.24.37-1.9.28l-1.12-.14c-.4-.05-.78-.1-1.18-.17l-.56-.08-.56-.1-1.04-.14-1.13-.12c-.44-.04-.9-.12-1.33-.23l-1.13-.28a.4.4 0 0 0-.26.01l-1.12.4c-.42.15-.85.27-1.28.37l-.56.13-.56.14c-.56.14-1.14.16-1.7.07l-.56-.09-.57-.08c-.49-.08-.97-.2-1.44-.39l-.56-.22-.56-.21-.02-.01-.57.23-.56.23c-.7.29-1.46.3-2.18.05l-1.13-.4a.4.4 0 0 0-.25 0l-.57.13-.56.15c-.5.13-1 .2-1.5.2h-1.13c-.25 0-.51.03-.78.09l-1.13.25c-.81.19-1.59 0-2.24-.4l-.57-.36-.5-.31-.42.17-.57.22c-.43.17-.87.3-1.3.41l-.57.13-.56.14c-.69.17-1.37.11-2.02-.14l-.56-.22-.56-.21c-.28-.1-.54-.18-.79-.21l-.56-.07-.56-.08a1.57 1.57 0 0 0-.58.03l-.56.13-.56.14-1.06.27-1.12.33c-.56.16-1.14.22-1.73.15l-.56-.07-.56-.06a4.41 4.41 0 0 0-.83-.02l-.57.05-.56.03c-.6.05-1.2-.04-1.77-.26l-.56-.22-.56-.21a3.3 3.3 0 0 0-.78-.2l-.56-.06-.56-.07h-.02c-.02 0-.07.01-.14.06l-.57.35-.56.34c-.39.24-.84.4-1.36.4-.51 0-.97-.17-1.35-.41l-.56-.36-.38-.24-.33.2-.57.32c-.52.3-1.1.5-1.7.56l-1.12.12a3.74 3.74 0 0 1-1.88-.3l-.56-.24-.56-.24-.56.21-.57.23c-.7.27-1.46.27-2.18 0l-.56-.2-.56-.2a.27.27 0 0 0-.19-.01l-1.12.32a5.5 5.5 0 0 1-1.55.23h-.56l-.56-.01c-.52 0-1.03-.08-1.53-.22l-.56-.15-.56-.16-1.2-.36-.95-.32-.5.37-.55.43c-.6.45-1.36.74-2.2.64l-1.13-.14a11.3 11.3 0 0 1-1.3-.23l-1.13-.29c-.3-.07-.59-.1-.88-.12l-.56-.05-.56-.04c-.3-.02-.6-.02-.9 0l-1.12.1a4.45 4.45 0 0 1-1.7-.2l-1.12-.35a2.37 2.37 0 0 0-.7-.12H81.8c-.23 0-.47.03-.72.1l-.57.13-.56.16c-.63.16-1.29.15-1.92-.03l-.56-.16-.5-.14-.53.36-.57.35c-.37.24-.83.42-1.34.42-.52.01-.98-.15-1.36-.38l-.57-.34-.47-.28-.4.17-.57.25c-.62.26-1.29.36-1.97.24l-1.12-.18a11.6 11.6 0 0 1-1.3-.3l-1.13-.34c-.19-.05-.36-.07-.54-.05l-1.12.11c-.4.04-.8.09-1.2.1l-.57.03-.56.04c-.17 0-.37.05-.59.15l-1.12.51c-.86.4-1.75.3-2.51-.15l-.56-.34-.57-.33c-.17-.1-.27-.1-.31-.1l-1.13.02c-.29.01-.57.05-.87.1l-1.12.24c-.25.05-.52.14-.8.27l-1.12.52a2.48 2.48 0 0 1-2.66-.32l-.57-.42-.48-.36-.35.12-.56.22c-.58.2-1.2.28-1.83.2l-1.12-.13c-.42-.06-.84-.13-1.26-.22L41 74.08a1.5 1.5 0 0 0-.56-.01l-.57.08-.56.1-1.14.18-.56.1-.56.08a7.3 7.3 0 0 1-1.4.1l-1.13-.06-1.19-.05-.56-.05-.56-.04c-.1 0-.24.01-.41.09l-.56.24-.57.26c-.8.36-1.67.31-2.43-.1l-.57-.3-.56-.3a2 2 0 0 0-.63-.21l-1.13-.17a2.07 2.07 0 0 0-.65 0l-.57.1-.56.1-1.08.21-.56.1-.56.12c-.57.12-1.15.13-1.72.02l-.57-.1-.56-.13a1.5 1.5 0 0 0-.56 0l-.56.1-.57.1c-.57.1-1.14.1-1.7-.03l-.56-.12-.55-.13c-.2-.04-.41-.06-.64-.03l-.59.06-.57.05c-.74.08-1.44-.1-2.05-.52l-.48-.33-.48-.32c-.25-.16-.5-.3-.75-.42l-.5-.23-.52-.23c-.42-.18-.82-.4-1.2-.65l-.48-.3-.48-.32a3.17 3.17 0 0 1-1.28-1.64l-.2-.57-.2-.55a.38.38 0 0 0-.15-.2l-1-.72c-.57-.4-.99-.95-1.24-1.6l-.2-.55-.22-.55a7.4 7.4 0 0 1-.37-1.42l-.1-.57-.1-.59c-.08-.45-.12-.9-.13-1.35l-.05-1.14c-.02-.7.17-1.34.5-1.93l.63-1.12c.1-.19.12-.32.13-.41v-1.13c0-.13-.02-.28-.11-.48l-.52-1.12a2.84 2.84 0 0 1-.03-2.33l.23-.57.24-.52-.25-.53-.24-.56a2.78 2.78 0 0 1 .04-2.4l.56-1.13.03-.06-.17-.56-.15-.56a4.7 4.7 0 0 1-.15-1.66l.1-1.12c.01-.22 0-.44-.05-.67L.56 39.7A4.56 4.56 0 0 1 .49 38l.1-.56.07-.56c.02-.15.01-.3-.04-.46L.27 35.3a2.8 2.8 0 0 1 .31-2.35l.35-.56.34-.57.02-.02-.27-1.08c-.17-.64-.15-1.3.04-1.93l.18-.56.16-.57.01-.02-.02-.07-.23-.56-.25-.57a3.71 3.71 0 0 1-.3-1.87L.69 24l.07-.57c.03-.29.02-.57 0-.86L.73 22l-.02-.56c-.03-.42-.04-.85-.02-1.28l.04-1.12c.02-.48.09-.96.2-1.43l.14-.56.13-.5-.39-.65-.36-.58a2.76 2.76 0 0 1-.27-2.44l.21-.57.2-.56c.15-.4.31-.8.48-1.17l.24-.54.23-.53c.23-.51.55-.97.94-1.37l.4-.42.4-.41c.15-.16.27-.34.36-.54l.5-1.05A4.2 4.2 0 0 1 5.18 4.3l.43-.38.45-.37a3.9 3.9 0 0 1 1.61-.85l.58-.14.56-.15c.3-.08.59-.17.84-.28l.5-.22.52-.23a3.8 3.8 0 0 1 1.75-.3l.56.02.56.04h.11l.15-.1.28-.16.02.04-.06.07a1.63 1.63 0 0 1 .78-.49L15.1.8h.24l.12.02.45.05.56.08.57.07c.28.04.56.04.84.03l.56-.03.56-.03 1.15-.06 1.13-.05c.34-.01.7-.03 1.04-.07l.56-.06.57-.04a5.62 5.62 0 0 1 1.53.06l1.13.2c.1.02.2.01.34-.04l.56-.2.56-.21a3.22 3.22 0 0 1 2.07-.07l.57.18.56.16c.17.05.32.06.47.03l1.12-.16c.66-.1 1.32 0 1.93.25l.56.23.56.22.04.02h.02l.56-.2.56-.2C37 .85 37.42.7 37.84.6l.56-.14.56-.15.62-.08c.62-.02 1.2.17 1.7.5l.56.36.55.37.48-.14.57-.16c.42-.11.84-.21 1.26-.29l.57-.1.56-.1 1.05-.2 1.13-.27a3.14 3.14 0 0 1 2.13.3l.56.28.57.3c.17.08.3.1.4.1l1.12-.05c.3-.01.61-.04.92-.1l1.13-.18a5.02 5.02 0 0 1 1.6 0l.57.08.56.1c.42.06.84.15 1.25.25l1.13.28c.22.06.45.08.66.06l.56-.05.56-.03c.07 0 .2-.04.4-.18L63.25.6a2.56 2.56 0 0 1 2.11-.35l.65.3.56.35.56.34.1.06 1.12-.2c.27-.04.55-.12.83-.23l1.13-.42.57-.16c.58-.1 1.17-.01 1.71.24l.57.26.56.27c.19.09.34.1.47.1h1.12c.18 0 .38-.05.6-.13l1.13-.45a3.01 3.01 0 0 1 2.21-.01l.56.22.48.19.53-.28.56-.3.64-.24c.43-.11.87-.1 1.3.01l.62.25.56.31.56.3c.23.13.43.19.59.2l1.12.15c.34.04.68.08 1.01.1l1.13.04 1.05.02h1.13c.17 0 .37-.03.58-.12l.56-.2.57-.23a3.1 3.1 0 0 1 2.15-.05l.57.2.48.16.55-.3.56-.33A2.89 2.89 0 0 1 99.39.4l.57.17.56.17c.17.06.33.06.48.04l1.13-.16c.43-.07.88-.1 1.32-.1h.56l.56-.01c.42 0 .84.02 1.26.05l.56.03.56.05c.47.03.94.11 1.4.23l.56.14.54.16.03-.03 1.13-.63.56-.25c.4-.12.8-.16 1.22-.1l.62.16.56.21.57.23c.08.03.13.02.18 0l.57-.13.56-.15a3.3 3.3 0 0 1 2.05.1l.56.22.56.21.04.02.03-.02.57-.2.56-.2c.52-.2 1.06-.3 1.6-.32l.57-.03h.56c.59-.02 1.16.09 1.7.3l1.13.42c.18.07.33.1.46.08l1.13-.1c.33-.02.67-.06 1-.11l1.13-.19 1.08-.18.56-.11.56-.12.6-.04c.56 0 1.1.18 1.58.46l.57.33.29.18.33-.22.56-.4.59-.32c.4-.17.85-.23 1.3-.16l.7.2 1.13.49c.2.09.39.12.55.13l1.12.02c.44 0 .87.03 1.3.1l1.13.16c.06 0 .14 0 .28-.06l.56-.26.56-.27.67-.2c.44-.09.88-.05 1.29.1l.61.29.56.35.54.35.47-.15.56-.16c.45-.14.91-.25 1.37-.3l1.13-.15a5.73 5.73 0 0 1 1.53.02l.57.07.56.09c.1.01.2 0 .34-.05l.56-.22.56-.24a4.24 4.24 0 0 1 1.75-.31l1.13.04c.55.02 1.1.14 1.61.34l1.13.45c.3.12.6.2.89.27l.56.12.51.11c.02 0 .04-.03.06-.04l.57-.36.56-.36a3.3 3.3 0 0 1 2.04-.54l1.12.1c.28.02.56 0 .84-.03l.56-.07.56-.06c.48-.06.97-.07 1.45-.02l1.13.12Zm-2.22 2.88-.56.07-.56.06a7.2 7.2 0 0 1-1.43.03l-1.13-.09-.03.01a.69.69 0 0 0-.16.08l-.57.36-.56.36c-.65.4-1.42.6-2.24.43l-1.12-.23c-.46-.1-.92-.24-1.36-.41l-.57-.22-.56-.22a1.96 1.96 0 0 0-.63-.14l-1.13-.04c-.14 0-.32.02-.51.1l-1.13.45c-.6.24-1.24.34-1.9.24l-1.12-.16a2.7 2.7 0 0 0-.73-.01l-1.12.14c-.29.03-.57.1-.87.2l-.56.16-.56.18c-.85.26-1.68.08-2.37-.35l-.56-.36-.44-.28-.38.2-.57.25c-.6.28-1.28.4-1.97.3l-.56-.07-.56-.08a7.68 7.68 0 0 0-.94-.08H140l-.56-.01a4.42 4.42 0 0 1-1.7-.39l-.56-.25-.37-.16-.43.32-.56.38c-.37.26-.82.46-1.34.48-.53.03-1-.12-1.4-.36l-.57-.34-.56-.33a.45.45 0 0 0-.1-.04l-.54.1-.57.1-1.16.22-1.12.18c-.42.07-.84.12-1.26.16l-.56.03-.56.05c-.61.05-1.2-.05-1.77-.27l-1.13-.42c-.2-.08-.38-.11-.55-.1h-.56l-.56.03a2 2 0 0 0-.65.13l-.56.2-.56.2c-.72.27-1.47.27-2.18 0L117 3.6l-.57-.22a.31.31 0 0 0-.2-.01l-1.13.3c-.7.19-1.4.14-2.05-.11l-.57-.23-.48-.18-.49.29-.56.32c-.67.37-1.45.51-2.24.3l-.56-.14-.56-.15a4.67 4.67 0 0 0-.86-.14l-.56-.05-.56-.03c-.34-.03-.68-.04-1.01-.04l-.56.01h-.57c-.3 0-.61.03-.92.07l-1.13.17c-.6.08-1.2.03-1.77-.14l-.56-.18-.53-.15-.55.31-.56.32c-.71.4-1.53.52-2.34.25l-.57-.2-.6-.2-.05.01-1.13.45c-.53.2-1.1.31-1.67.31h-1.13c-.4 0-.8 0-1.2-.02l-.56-.03-.56-.03c-.41-.02-.82-.06-1.23-.1l-1.12-.15a4.65 4.65 0 0 1-1.67-.55l-.56-.3-.42-.24-.41.23-.57.29a2.8 2.8 0 0 1-2.35.16l-.56-.2-.57-.23h-.04L77 3.81a4.7 4.7 0 0 1-1.65.34h-.56l-.57.02c-.62 0-1.22-.13-1.78-.39l-.56-.27-.55-.26-.53.21-.56.21c-.46.18-.94.31-1.42.4l-1.12.18a3.1 3.1 0 0 1-2.16-.46L65 3.44l-.3-.19-.33.23-.57.37c-.54.36-1.16.62-1.84.67l-.56.03-.56.05c-.54.04-1.08 0-1.6-.14l-1.13-.28c-.33-.08-.67-.15-1-.2l-.56-.1-.56-.08a2.02 2.02 0 0 0-.65 0l-1.12.2c-.44.06-.88.1-1.32.12l-.56.02-.56.01a3.8 3.8 0 0 1-1.86-.42l-.57-.29-.56-.28a.34.34 0 0 0-.1-.04h-.02l-.56.13-.56.12c-.4.09-.79.18-1.18.25l-.57.09-.56.1c-.32.06-.66.14-.98.23l-.57.16-.56.15c-.85.24-1.67.06-2.34-.38l-.57-.38-.56-.36v-.01l-.49.14-.56.14-1.02.3-1.13.4c-.72.25-1.47.22-2.18-.07l-.56-.23-.56-.23a.64.64 0 0 0-.34-.05l-.56.08-.57.1c-.6.08-1.2.03-1.78-.15l-.56-.16-.56-.18c-.06-.01-.1-.01-.17.01l-.56.21-.56.2c-.61.23-1.26.3-1.91.19l-1.13-.21a2.68 2.68 0 0 0-.72-.02l-.57.04-.56.06c-.4.04-.8.07-1.2.08l-1.12.05-1.1.05-1.13.07c-.46.03-.93.01-1.4-.05l-.56-.08-.57-.07-.02-.01-.14.1-.28.17c-.57.34-1.22.38-1.7.35l-.56-.04-.55-.03a.83.83 0 0 0-.4.07l-1 .44c-.42.19-.87.33-1.32.45l-.57.14-.57.14a.92.92 0 0 0-.39.2l-.43.37-.45.4c-.12.1-.21.23-.29.39l-.24.53-.25.54c-.23.5-.55.96-.94 1.35l-.4.41-.4.43c-.15.15-.26.31-.35.5L3.8 11.8c-.14.32-.28.66-.4 1l-.2.57-.17.43.33.55.35.57c.4.67.6 1.46.4 2.29l-.14.56-.13.56c-.07.28-.1.57-.12.84l-.04 1.12c-.02.33-.01.65 0 .97l.08 1.13c.03.46.01.92-.04 1.38l-.11 1.13a.7.7 0 0 0 .05.36l.25.56.23.57c.3.68.36 1.42.13 2.15l-.17.56-.17.57a.56.56 0 0 0 0 .31l.27 1.13c.21.82.04 1.61-.37 2.28l-.34.57-.34.52.15.48.18.57a4 4 0 0 1 .15 1.79l-.17 1.12c-.02.2-.02.38.03.58l.26 1.12c.12.53.15 1.06.1 1.6l-.1 1.12c0 .2 0 .4.07.6l.3 1.12c.2.76.11 1.5-.22 2.18l-.27.57-.26.49.22.5.26.55c.33.75.34 1.56.01 2.32l-.23.57-.22.5.24.53.26.56c.26.56.4 1.16.39 1.78v.56l-.01.57c-.01.65-.2 1.27-.52 1.82l-.63 1.13c-.1.16-.11.27-.1.35l.04 1.15c0 .31.04.64.1.96l.09.59.09.57c.05.29.12.57.22.84l.42 1.1c.03.08.08.15.2.23l1 .73c.57.4 1 .96 1.23 1.64l.4 1.12c.02.07.04.09.07.1l.96.64c.25.16.52.3.78.42l.52.22.52.24c.42.19.83.41 1.21.68l.48.33.47.32.03.02h.03l.58-.06.58-.06a5 5 0 0 1 1.62.1l1.1.25c.17.04.33.03.5 0l.57-.1.56-.1a4.5 4.5 0 0 1 1.69.01l.56.1.56.13c.18.03.35.03.53 0l1.13-.24 1.17-.22.56-.1.56-.1c.53-.1 1.07-.1 1.6-.02l.57.08.56.1c.56.07 1.1.26 1.6.53l.57.3.48.24.46-.2.56-.25c.58-.25 1.2-.37 1.84-.32l1.13.07 1.07.05 1.13.05c.27.01.55-.01.83-.06l.56-.08.57-.1c.37-.05.74-.1 1.1-.17l1.13-.19c.57-.09 1.13-.08 1.7.04l.55.13.57.12c.33.07.66.12 1 .16l1.12.14c.12.02.26 0 .42-.06l.56-.2.56-.2c.7-.27 1.4-.19 1.98.08l.57.34.56.43.4.3.31-.14.57-.26c.47-.22.95-.39 1.45-.49l1.13-.23c.45-.1.92-.14 1.38-.16l.56-.02.56-.01c.7-.02 1.37.18 1.95.53l.56.32.45.27.4-.18.57-.26a4.64 4.64 0 0 1 1.66-.42l.57-.03.56-.03 1.05-.08 1.13-.12a4.38 4.38 0 0 1 1.7.15l1.12.33c.32.1.65.17.96.22l.56.1.57.1c.06.01.15 0 .28-.05l.56-.24.56-.24.65-.2c.43-.06.85-.01 1.25.12l.6.27.56.34.32.19.34-.2.56-.36c.68-.44 1.5-.62 2.34-.38l1.13.33c.12.03.23.03.34 0l.56-.14.56-.15c.5-.13 1-.2 1.52-.2h1.12c.53.01 1.06.1 1.57.27l1.13.35c.2.06.38.08.55.07l1.12-.1c.45-.03.9-.04 1.35 0l.56.04.57.04c.46.03.92.1 1.38.22l.56.13.56.14c.32.07.64.13.95.17l.56.07.5.06s.05-.01.1-.06l1.13-.84a2.79 2.79 0 0 1 1.81-.59l.7.13 1.12.38c.35.11.7.23 1.06.33l1.12.3c.25.07.5.1.73.1l.56.02h.56c.23 0 .46-.04.7-.1l1.13-.34c.69-.2 1.39-.16 2.05.09l.56.2.56.2.04.02.04-.01.56-.23.56-.2a2.95 2.95 0 0 1 2.26.04l.56.23.57.25c.16.07.27.08.37.07l1.13-.12c.14-.01.32-.07.54-.2l1.12-.63a2.6 2.6 0 0 1 2.06-.21l.61.3.57.34.32.2.33-.18.56-.36a3.23 3.23 0 0 1 2.1-.48l.57.06.56.07c.5.06 1 .2 1.47.38l1.13.42c.18.07.34.1.48.08l.56-.04.56-.04c.47-.03.94-.03 1.41.02l1.13.14c.16.02.33 0 .52-.05l1.13-.33c.4-.12.8-.22 1.2-.32l1.13-.26c.55-.13 1.1-.15 1.66-.08l.57.07.56.08c.5.07.99.2 1.46.38l.57.21.56.22c.1.04.17.04.23.03l.57-.15.56-.12c.3-.08.62-.17.94-.3l.56-.22.56-.21.65-.16c.42-.06.84 0 1.24.14l.57.28.56.34.57.35.03.02.53-.12.56-.12c.48-.11.97-.17 1.46-.17h1.12c.24 0 .5-.03.75-.1l.56-.14.56-.14a3.42 3.42 0 0 1 2 .09l1.13.4h.03l.03-.01.56-.23.57-.23a3 3 0 0 1 2.23-.01l.57.22.56.21c.28.1.54.18.8.22l1.12.17c.19.02.37.02.56-.03l1.13-.25c.32-.08.65-.18.97-.3l.56-.2.57-.18a3.41 3.41 0 0 1 1.98-.1l1.12.27c.31.08.63.13.93.17l1.12.11c.4.05.81.1 1.21.17l1.13.18 1.06.16 1.13.14c.09 0 .2 0 .35-.06l.56-.25.56-.23a4.14 4.14 0 0 1 1.76-.34l.56.01.57.02c.55.02 1.1.14 1.61.33l1.13.42c.15.06.27.08.38.06l.57-.08.56-.07 1.11-.16 1.13-.17a4.2 4.2 0 0 1 1.75.12l.56.16.48.13.56-.34.56-.35a3.42 3.42 0 0 1 2-.55l.57.04.56.02c.62.03 1.22.22 1.76.51l.56.3.36.2.4-.24.57-.34a3.24 3.24 0 0 1 2.08-.48l1.13.14c.47.06.93.16 1.4.3l.55.2.57.17.03.01.07-.02.56-.24.57-.22.68-.19c.46-.05.9.03 1.3.2l.58.33.57.4.42.3.35-.14.56-.24a3.26 3.26 0 0 1 2.08-.19l.56.14.56.13c.02 0 .05.02.14-.02l.56-.26.57-.27a3.06 3.06 0 0 1 2.19-.16l.56.17.56.17c.4.11.8.24 1.19.38l.56.2.54.19.56-.28.56-.27a3.13 3.13 0 0 1 2.13-.27l.56.14.56.13c.24.05.48.08.71.07l.57-.04.56-.02c.2-.01.42-.06.66-.15l1.12-.45.66-.16c.44-.05.86 0 1.26.16l.58.3.56.38.35.22.33-.17.56-.33.61-.26c.41-.12.84-.14 1.27-.06l.64.23.56.27.4.18.44-.24.56-.34.55-.26c.38-.14.79-.2 1.2-.15l.64.15 1.12.4c.07.02.11.02.17 0l.56-.19.56-.18c.75-.24 1.5-.18 2.2.13l.57.25.56.26c.23.1.44.15.62.16l.56.05.57.03c.31.03.63.04.95.03l1.12-.05c.45-.02.9 0 1.36.06l.56.07.56.06c.09 0 .2 0 .34-.06l.57-.25.56-.25a2.93 2.93 0 0 1 2.26-.07l1.13.42c.23.08.45.13.65.14l1.13.04c.3.01.58 0 .88-.04l1.12-.14c.55-.07 1.1-.04 1.63.08l1.13.23c.26.06.52.09.78.09l1.13-.03 1.2.01 1.13.05c.34.01.69.02 1.03.01l.56-.02.56-.01c.4-.01.79-.02 1.18-.01h1.12c.26 0 .51-.04.77-.1l1.13-.26a4.27 4.27 0 0 1 1.75-.03l1.12.21a.4.4 0 0 0 .25-.04l1.12-.49c.46-.2.93-.35 1.4-.45l1.12-.26.63-.07c.62 0 1.2.22 1.68.56l.56.4.56.38 1.04-.25c.38-.1.77-.18 1.16-.27l1.12-.26a3.24 3.24 0 0 1 2.06.21l.57.26.56.24c.22.1.41.15.58.16l1.13.04c.1 0 .24 0 .41-.09l1.13-.54c.6-.3 1.25-.34 1.87-.17l.6.23.56.3.56.3h.04l.56-.13.56-.15a4.2 4.2 0 0 1 1.75-.09l.56.09.56.09c.24.04.48.04.72.01l.56-.06.56-.07c.36-.04.72-.08 1.08-.14l.56-.1.57-.07c.47-.08.95-.1 1.43-.07l.56.03.56.02c.3.02.6.02.9 0l1.13-.12c.6-.06 1.19.02 1.76.22l.56.2.56.18c.2.07.38.1.55.09l.56-.03.57-.03 1.11-.07 1.13-.07c.22-.02.45-.07.7-.17l.56-.2.56-.2a3 3 0 0 1 2.2.02l.57.23.56.22c.17.07.3.09.41.07l1.13-.11c.43-.05.87-.06 1.3-.05h.56l.56.01c.12 0 .27-.03.46-.12l.56-.25.56-.27a3 3 0 0 1 1.68-.28l.58.14 1.12.37.05.01.54-.22.52-.21a4.01 4.01 0 0 1 1.8-.27l.6.04.6.04c.08 0 .12 0 .16-.03l.49-.32.48-.3c.37-.24.76-.46 1.16-.66l1.05-.52h.01l.43-1.16c.24-.64.66-1.2 1.22-1.61l.48-.37.49-.35.02-.03.01-.01.13-.58.12-.57c.05-.23.06-.45.04-.67l-.06-.58-.07-.58c-.08-.7.07-1.37.4-1.98l.28-.54.2-.41-.2-.43-.26-.57a3.1 3.1 0 0 1-.21-2.17l.3-1.12a.4.4 0 0 0 0-.26l-.2-.56-.19-.56a3.35 3.35 0 0 1-.03-2.03l.33-1.13c.07-.24.1-.47.1-.7v-1.12c0-.55.11-1.08.28-1.6l.2-.56.16-.52-.3-.55-.29-.56c-.46-.87-.4-1.83.1-2.64l.36-.56.33-.53-.15-.44-.18-.56a6.61 6.61 0 0 1-.32-1.46l-.06-.56-.04-.56a5.14 5.14 0 0 1 .09-1.6l.23-1.12a.66.66 0 0 0 0-.35l-.18-.56-.2-.57a3.67 3.67 0 0 1-.07-1.9l.13-.56.11-.56c.1-.41.2-.82.32-1.23l.17-.56.17-.57a.6.6 0 0 0 .01-.32l-.15-.57-.14-.56a4 4 0 0 1-.06-1.78l.12-.56.1-.56a1.2 1.2 0 0 0-.01-.5l-.26-1.13a14.5 14.5 0 0 0-.27-1.02l-.35-1.13a5.49 5.49 0 0 1-.18-.77l-.05-.8v-1.12c0-.5.07-1.01.2-1.5l.3-1.13c.05-.19.06-.37.04-.54l-.09-.55-.07-.56c-.03-.27-.1-.53-.2-.79l-.37-1.05c-.09-.25-.2-.5-.34-.72l-.28-.46-.3-.47c-.26-.43-.46-.9-.62-1.39l-.18-.57-.18-.56a.51.51 0 0 0-.16-.26l-.44-.38-.44-.37c-.27-.23-.54-.44-.82-.64l-.94-.68c-.02-.02-.04-.04-.14-.04l-.62.04-.62.02a5.23 5.23 0 0 1-1.59-.15l-1.03-.28a5.96 5.96 0 0 1-1.41-.6l-.54-.3-.38-.22-.4.21-.56.28c-.88.44-1.81.36-2.6-.14l-.56-.36-.57-.35a.67.67 0 0 0-.1-.06l-.55.1-.56.08c-.43.06-.86.1-1.3.12l-1.12.05c-.46.02-.93 0-1.4-.07l-1.12-.14a2.9 2.9 0 0 0-.74-.01l-1.12.14c-.5.06-1.01.07-1.51 0l-.57-.08-.56-.07a3.32 3.32 0 0 0-.77-.01l-.56.04-.57.06c-.2.02-.42.08-.67.19l-1.12.5c-.8.34-1.65.3-2.41-.1l-.57-.27-.56-.3c-.11-.05-.17-.05-.2-.04l-.56.1-.56.07c-.34.06-.68.12-1.02.2l-.56.14-.57.13c-.69.16-1.38.1-2.02-.16l-1.13-.45a.38.38 0 0 0-.07-.02l-.05.01-1.12.35c-.66.2-1.34.22-2 .03l-1.13-.33a.7.7 0 0 0-.36-.03l-1.13.26c-.54.12-1.1.15-1.64.08l-.56-.07-.56-.05a.8.8 0 0 0-.4.05l-.57.21-.56.23a3 3 0 0 1-2.2 0l-1.13-.41c-.25-.1-.49-.15-.71-.17l-1.13-.09a.97.97 0 0 0-.43.08l-.56.24-.56.22c-.57.23-1.17.34-1.77.32l-.57-.04-.56-.02c-.3-.02-.61 0-.91.02l-.57.05-.56.06a5.4 5.4 0 0 1-1.56-.09l-.56-.11-.56-.1a9.68 9.68 0 0 1-1.33-.38l-.56-.2-.55-.2-.54.29-.56.28a2.9 2.9 0 0 1-2.29.17l-1.12-.4a.62.62 0 0 0-.34-.03l-.56.1-.57.13c-.42.08-.84.14-1.26.18l-.56.06-.57.05c-.47.04-.95.05-1.43 0l-.56-.07-.56-.06a2.2 2.2 0 0 0-.67.04l-1.12.23-1.2.21-.56.08-.56.1a3.4 3.4 0 0 1-2-.32l-1.13-.54a.54.54 0 0 0-.3-.07l-1.12.14a4 4 0 0 1-1.8-.2l-1.13-.4a.22.22 0 0 0-.16 0l-1.13.37c-.47.15-.94.25-1.42.3l-.56.07-.56.06c-.53.06-1.05.05-1.57-.05l-.57-.1-.56-.1-2.25-.42a.56.56 0 0 0-.31.04l-.57.2-.56.23c-.45.17-.91.3-1.37.39l-1.13.23c-.74.15-1.45.02-2.1-.31l-1.12-.59a.79.79 0 0 0-.38-.1l-1.13.04-1.1.05-.56.03-.57.03-1.13.04-1.13.05c-.4.02-.82.02-1.23.01l-1.12-.02c-.14 0-.3.02-.5.1l-.56.24-.56.25c-.63.26-1.3.36-1.98.24l-1.13-.21a1.9 1.9 0 0 0-.63 0l-.56.08-.56.1c-.51.08-1.03.08-1.54.02l-1.13-.14a3.66 3.66 0 0 0-.8 0l-.55.05-.57.05c-.43.05-.87.07-1.3.06l-1.12-.02c-.5 0-1-.08-1.48-.21l-.56-.14-.56-.15a.44.44 0 0 0-.27 0l-1.13.38c-.77.26-1.55.2-2.26-.15l-.56-.28-.56-.27c-.22-.1-.4-.14-.56-.15l-.56-.04-.56-.02c-.28-.02-.56 0-.83.03l-.57.09-.56.07c-.43.06-.86.1-1.29.11l-1.12.03c-.33 0-.66.03-.99.07l-1.12.14c-.6.07-1.2 0-1.78-.19l-.56-.19-.52-.17-.54.31-.56.3c-.7.4-1.5.51-2.3.27l-1.12-.36a.77.77 0 0 0-.4-.02l-.55.1-.57.12c-.47.1-.95.14-1.44.13l-1.12-.02a4.84 4.84 0 0 1-1.64-.33l-.57-.22-.56-.21c-.08-.03-.11-.03-.16-.01l-.56.15-.57.16c-.73.21-1.47.14-2.15-.16l-1.13-.5a.87.87 0 0 0-.4-.09l-.57.04-.56.04c-.4.03-.81.04-1.21.05l-.56.01h-.57c-.43 0-.86 0-1.3-.04l-1.12-.12a3.56 3.56 0 0 0-.79.01Zm-153.5-.15Zm-2.24-1.8-.15.12-.02.03-.02-.04.2-.1Z"/><path fill="#000" d="m15.6 30.63-.7-.06c-.04.78-.05 2.06-.05 3.83 0 .3-.1.55-.31.76-.2.21-.47.32-.79.32a1.07 1.07 0 0 1-1.1-1.08v-2.32c0-.86.06-2.14.17-3.83a77 77 0 0 0 .17-3.84c0-1.45.4-2.14 1.21-2.08a15 15 0 0 1 2-.15c1.1 0 2.12.36 3.07 1.06 1.06.8 1.6 1.75 1.6 2.89 0 1.42-.57 2.55-1.7 3.39-1 .74-2.2 1.1-3.57 1.1Zm.41-6.3a11.93 11.93 0 0 0-.81.03l-.01 1.17c-.01.62-.07 1.58-.16 2.89.28.04.47.07.57.07.86 0 1.58-.21 2.15-.62.62-.44.92-1.02.92-1.74 0-.48-.28-.9-.86-1.26a3.25 3.25 0 0 0-1.8-.54Zm10.3 11.33a5.29 5.29 0 0 1-3.26-.95 3.48 3.48 0 0 1-1.4-2.96c0-1.4.37-2.6 1.1-3.56a3.97 3.97 0 0 1 3.33-1.62c.97 0 1.77.15 2.41.46.84.42 1.26 1.06 1.26 1.92 0 .61-.34 1.16-1.02 1.63-.32.21-.94.53-1.88.95l-2.8 1.24c.26.29.58.5.96.65.38.15.8.22 1.3.22.74 0 1.37-.16 1.9-.46.45-.27.82-.41 1.1-.41.58 0 .87.28.87.84 0 .64-.47 1.15-1.4 1.55-.77.34-1.6.5-2.47.5Zm-.23-7.07c-.51 0-.96.17-1.32.51a3.6 3.6 0 0 0-.89 1.55l1.88-.8c.75-.34 1.35-.66 1.8-.95a2.94 2.94 0 0 0-1.47-.31Zm8.87-1.6c.58-.44.96-.66 1.15-.66.53 0 .8.36.8 1.08 0 .21-.25.55-.77 1.03l-1.18 1.01c.01 1.13.01 2.62 0 4.48-.04.68-.12 1.12-.25 1.3-.13.18-.41.27-.85.27-.62 0-.93-.33-.93-1v-3.82l-.33.31c-.34.34-.63.5-.88.48-.52-.04-.78-.36-.78-.95 0-.3.17-.6.51-.9l1.48-1.24v-4.7A1.03 1.03 0 0 1 34 22.61c.63 0 .95.36.95 1.07V27Zm9.33 8.88c-.68 0-1.06-.33-1.14-1l-.23-1.73a12.8 12.8 0 0 1-.07-3.21l.02-.3.01-.39c0-.46-.12-.69-.35-.69-.52 0-1.02.3-1.51.9a6.5 6.5 0 0 0-1.15 2.27l-.08.73a5.54 5.54 0 0 0 0 1.45c.04.3.06.54.06.7 0 .31-.11.57-.33.78-.22.21-.5.32-.83.32-.33 0-.6-.1-.83-.32-.21-.2-.32-.47-.32-.78 0-.16-.02-.4-.05-.7a7.47 7.47 0 0 1-.05-.71c0-.54.04-1.28.12-2.23.07-.95.11-1.7.11-2.22 0-.17 0-.42-.03-.75l-.03-.74c0-.31.12-.57.34-.77.23-.2.5-.3.83-.3.73 0 1.12.43 1.17 1.3v.1a3.6 3.6 0 0 1 2.58-1.23c1.05 0 1.77.44 2.17 1.32.27.59.4 1.47.4 2.64v1.13c0 .44.05 1 .17 1.68.12.68.18 1.24.18 1.67 0 .3-.11.57-.33.77-.22.2-.5.31-.83.31Zm10.66-7.63-2.88 5.94a48.64 48.64 0 0 0-1.62 3.6c-.12.35-.3.87-.56 1.54-.2.53-.55.79-1.06.79-.32 0-.6-.1-.84-.31a.98.98 0 0 1-.35-.78c0-.51.58-2.05 1.76-4.6a143.9 143.9 0 0 0-2.9-5.32l-.42-.64a1.4 1.4 0 0 1-.22-.7c0-.3.12-.56.36-.8.24-.22.51-.33.82-.33.37 0 .66.13.86.4.8 1.06 1.71 2.64 2.76 4.75l1.09-2.39c.39-.82.78-1.55 1.15-2.18.24-.4.57-.6.99-.6.3 0 .59.1.83.32.25.2.37.47.37.77 0 .16-.05.34-.14.54Zm12.4 7.53c-.48 0-.98-.05-1.5-.17l-.02 3.4c0 .33-.1.6-.32.8-.22.22-.5.32-.83.32-.33 0-.6-.1-.82-.31a1.07 1.07 0 0 1-.33-.8l.02-3.11v-3.3a55.96 55.96 0 0 0-.24-4.74c0-.46.1-.86.3-1.18.25-.38.57-.56.97-.56.32 0 .58.1.79.31.2.22.31.47.31.76v.09a4.78 4.78 0 0 1 2.25-.63c1.28 0 2.2.54 2.8 1.63.44.81.66 1.87.66 3.17 0 1.22-.35 2.23-1.04 3.03a3.76 3.76 0 0 1-3 1.3Zm.58-6.9c-.35 0-.7.09-1.07.26-.36.16-.72.4-1.1.73.07 1.15.1 2.3.1 3.44.5.17 1 .25 1.5.25.56 0 1-.2 1.3-.61.29-.37.43-.86.43-1.49 0-.75-.04-1.27-.1-1.56-.17-.67-.52-1.01-1.06-1.01Zm7.28 5.18c0 1.06-.39 1.59-1.16 1.59-.33 0-.6-.1-.82-.32a1.1 1.1 0 0 1-.33-.82V22.97a1 1 0 0 1 .35-.79c.23-.19.5-.28.83-.28.33 0 .6.1.8.3a1 1 0 0 1 .33.77v11.08Zm9.3 1.78c-.25 0-.65-.28-1.21-.83-.51.24-.96.42-1.35.55-.39.12-.72.19-1 .19-1.33 0-2.34-.36-3.01-1.08-.67-.71-1-1.79-1-3.22 0-1.33.5-2.48 1.48-3.43a4.93 4.93 0 0 1 3.55-1.43c.53 0 1.14.15 1.84.45.84.36 1.26.78 1.26 1.26 0 .2-.07.37-.2.52-.05.22-.1.5-.13.84-.03.34-.04.73-.04 1.18 0 1.06.08 1.82.23 2.3l.38.86c.22.48.32.75.32.81 0 .3-.1.54-.34.74-.22.2-.48.29-.77.29Zm-2.06-5.72a6.35 6.35 0 0 1 .15-1.38 1.5 1.5 0 0 0-.52-.16c-.75 0-1.41.3-1.98.9a2.87 2.87 0 0 0-.85 2.04c0 .75.13 1.3.4 1.69.27.37.67.55 1.2.55a2.83 2.83 0 0 0 1.85-.67 26.08 26.08 0 0 1-.25-2.97Zm10.93 5.76c-.68 0-1.06-.33-1.14-1l-.24-1.73a12.8 12.8 0 0 1-.06-3.21l.01-.3c.02-.16.02-.29.02-.39 0-.46-.12-.69-.36-.69-.5 0-1.01.3-1.5.9a6.5 6.5 0 0 0-1.16 2.27c0 .18-.03.43-.07.73a5.56 5.56 0 0 0 0 1.45c.04.3.06.54.06.7 0 .31-.12.57-.34.78-.21.21-.49.32-.82.32-.34 0-.61-.1-.83-.32-.21-.2-.32-.47-.32-.78 0-.16-.02-.4-.05-.7a7.43 7.43 0 0 1-.05-.71c0-.54.04-1.28.11-2.23.08-.95.12-1.7.12-2.22l-.03-.75-.03-.74c0-.31.11-.57.34-.77.22-.2.5-.3.83-.3.73 0 1.12.43 1.17 1.3v.1a3.6 3.6 0 0 1 2.57-1.23c1.05 0 1.78.44 2.18 1.32.27.59.4 1.47.4 2.64v.6l-.01.53c0 .44.06 1 .18 1.68.12.68.18 1.24.18 1.67 0 .3-.11.57-.33.77-.23.2-.5.31-.83.31Zm15.66-7.3a12.3 12.3 0 0 1-.83-.03c-.23 0-.5.03-.8.07a128.06 128.06 0 0 1 .18 5.29c0 1.27-.4 1.91-1.21 1.91-.3 0-.57-.1-.8-.28a.93.93 0 0 1-.36-.75c0-.2 0-.5.02-.9l.03-.9c0-.67-.05-2.11-.15-4.32-.35-.02-.87-.06-1.57-.13-.7-.08-1.04-.44-1.04-1.09a1.1 1.1 0 0 1 1.13-1.11c.2 0 .68.03 1.42.1a51.14 51.14 0 0 0-.08-1.71 1 1 0 0 1 .35-.78c.22-.2.5-.3.82-.3.82 0 1.24.69 1.24 2.07l-.02.68a6.12 6.12 0 0 1 2.15.05c.44.16.67.5.67 1.02 0 .32-.11.58-.33.8-.21.2-.49.3-.82.3Zm9.15.7c-.05.85-.44 1.27-1.16 1.27-.7 0-1.05-.36-1.05-1.08l-.04-.84c-1.25.2-2.15.84-2.69 1.92l.01 4.2c0 .31-.1.58-.32.78-.22.21-.5.32-.83.32a1 1 0 0 1-.8-.34c-.18-.2-.27-.45-.27-.76v-5.46a26.15 26.15 0 0 1 .04-1.55c0-.3.1-.56.27-.77.2-.21.46-.32.8-.32.62 0 .99.32 1.1.95a5.35 5.35 0 0 1 3.28-1.1c1.11 0 1.67.74 1.67 2.22l-.01.56Zm5.42 6.4a5.29 5.29 0 0 1-3.26-.96 3.49 3.49 0 0 1-1.4-2.96c0-1.4.37-2.6 1.1-3.56a3.97 3.97 0 0 1 3.33-1.62c.97 0 1.77.15 2.41.46.84.42 1.26 1.06 1.26 1.92 0 .61-.34 1.16-1.02 1.63-.31.21-.94.53-1.88.95l-2.8 1.24c.26.29.58.5.96.65.38.15.81.22 1.3.22.74 0 1.38-.16 1.9-.46.45-.27.82-.41 1.1-.41.58 0 .87.28.87.84 0 .64-.47 1.15-1.4 1.55-.77.34-1.6.5-2.47.5Zm-.23-7.08c-.51 0-.95.17-1.32.51-.37.35-.66.86-.88 1.55l1.87-.8c.75-.34 1.35-.66 1.8-.95a2.94 2.94 0 0 0-1.47-.31Zm12.15 7.28c-.68 0-1.06-.33-1.14-1l-.23-1.73a12.86 12.86 0 0 1-.07-3.21l.01-.3c.02-.16.02-.29.02-.39 0-.46-.12-.69-.36-.69-.5 0-1.01.3-1.5.9a6.5 6.5 0 0 0-1.16 2.27c0 .18-.03.43-.07.73a5.6 5.6 0 0 0 0 1.45c.04.3.06.54.06.7 0 .31-.11.57-.34.78-.21.21-.49.32-.82.32-.33 0-.61-.1-.83-.32-.21-.2-.32-.47-.32-.78 0-.16-.02-.4-.05-.7a7.57 7.57 0 0 1-.05-.71c0-.54.04-1.28.12-2.23.07-.95.11-1.7.11-2.22l-.03-.75-.03-.74c0-.31.11-.57.34-.77.22-.2.5-.3.83-.3.73 0 1.12.43 1.17 1.3v.1a3.6 3.6 0 0 1 2.57-1.23c1.05 0 1.78.44 2.18 1.32.27.59.4 1.47.4 2.64v1.13c0 .44.05 1 .17 1.68.12.68.18 1.24.18 1.67 0 .3-.11.57-.33.77-.23.2-.5.31-.83.31Zm4.27-10.61c-.36 0-.66-.12-.93-.36-.26-.24-.39-.53-.39-.87 0-.35.13-.64.4-.88.25-.24.56-.36.92-.36s.66.12.92.36.39.53.39.88c0 .34-.13.63-.4.87a1.3 1.3 0 0 1-.91.36Zm.7 6.11.03 1.53.04 1.52c0 .32-.11.59-.33.8-.22.2-.5.31-.82.31-.34 0-.61-.1-.83-.3a1.07 1.07 0 0 1-.33-.8c0-.33 0-.83-.03-1.53l-.02-1.53c0-.5.03-1.11.08-1.86.06-.74.08-1.36.08-1.86 0-.32.11-.58.33-.79.22-.21.5-.32.82-.32.34 0 .61.1.83.32.22.2.32.47.32.8 0 .49-.02 1.1-.08 1.85a26.1 26.1 0 0 0-.08 1.86Zm8.75 4.5c-.68 0-1.06-.33-1.14-1l-.23-1.73a12.7 12.7 0 0 1-.07-3.21l.02-.3.01-.39c0-.46-.12-.69-.35-.69-.52 0-1.02.3-1.51.9a6.5 6.5 0 0 0-1.15 2.27l-.08.73a5.6 5.6 0 0 0 0 1.45c.04.3.06.54.06.7 0 .31-.11.57-.33.78-.22.21-.5.32-.83.32-.33 0-.6-.1-.82-.32-.22-.2-.33-.47-.33-.78a7 7 0 0 0-.05-.7 7.57 7.57 0 0 1-.05-.71c0-.54.04-1.28.12-2.23.08-.95.11-1.7.11-2.22 0-.17 0-.42-.03-.75l-.03-.74c0-.31.12-.57.34-.77.23-.2.5-.3.83-.3.73 0 1.12.43 1.17 1.3v.1a3.6 3.6 0 0 1 2.58-1.23c1.05 0 1.77.44 2.17 1.32.27.59.4 1.47.4 2.64v1.13c0 .44.05 1 .17 1.68.12.68.18 1.24.18 1.67 0 .3-.1.57-.33.77-.22.2-.5.31-.83.31Zm10.1-5.56c-.23 1.3-.37 2.69-.42 4.14-.05 1.8-.35 3.1-.9 3.9-.73 1.09-2.02 1.63-3.87 1.63-2.16 0-3.24-.43-3.24-1.28 0-.3.1-.56.3-.74.19-.2.44-.29.76-.29.25 0 .6.05 1.07.14.47.1.89.15 1.25.15.83 0 1.44-.26 1.83-.76.38-.5.6-1.28.67-2.36a2.82 2.82 0 0 1-2.13.86 3.6 3.6 0 0 1-3.73-3.84 5 5 0 0 1 1.38-3.67 5.2 5.2 0 0 1 3.88-1.45c.52 0 .97.07 1.35.2.38.12.68.32.92.58.7.08 1.05.5 1.05 1.25 0 .37-.05.89-.17 1.54Zm-3.24-1.67c-.94 0-1.67.31-2.19.93a3.3 3.3 0 0 0-.7 2.18c0 .66.13 1.16.38 1.5.25.33.62.5 1.12.5.46 0 .92-.27 1.38-.8.43-.5.68-1 .74-1.48.1-.53.23-1.36.37-2.5-.2-.1-.38-.19-.56-.24a1.84 1.84 0 0 0-.54-.09Zm8.02 7.13a3.7 3.7 0 0 1-2.66-1.06 4.26 4.26 0 0 1-1.27-3.09 5.1 5.1 0 0 1 1-3.28 4.15 4.15 0 0 1 3.53-1.7c1.12 0 2 .44 2.66 1.33.59.8.88 1.8.88 2.97 0 1.3-.34 2.4-1.03 3.3a3.7 3.7 0 0 1-3.11 1.53Zm.5-6.93c-.69-.01-1.23.3-1.62.93-.34.53-.5 1.14-.5 1.85 0 .67.19 1.18.57 1.53.3.29.65.43 1.05.43.48 0 .9-.16 1.25-.5.41-.38.63-.9.66-1.55.07-1.8-.4-2.69-1.41-2.7Zm15.71-.9c-.58 2.17-1.17 4.15-1.76 5.93-.16.5-.44 1.02-.81 1.54-.27.37-.63.55-1.07.55-.7-.02-1.25-.7-1.65-2.03-.15-.51-.33-1.47-.54-2.86-.11.24-.19.4-.21.5-.3.68-.71 1.75-1.27 3.2-.08.23-.2.42-.38.56a1.2 1.2 0 0 1-1.04.58c-.26.01-.53-.22-.82-.7a6.4 6.4 0 0 1-.75-1.86c-.17-.7-.43-2.2-.8-4.5-.07-.5-.11-.9-.11-1.18 0-.3.11-.56.34-.76.23-.2.51-.3.83-.3.6 0 .97.29 1.11.88.07.31.14.7.19 1.15l.12 1.16.33 2.13c.42-1.13.89-2.53 1.42-4.21.23-.72.66-1.09 1.29-1.09.61 0 1.02.4 1.21 1.21.14.57.29 1.3.44 2.21l.42 2.35 1.31-5.07c.12-.47.47-.71 1.04-.71.32 0 .6.1.84.3.24.21.36.47.36.77 0 .06-.01.14-.04.24Zm9.31.3-2.87 5.94a48.64 48.64 0 0 0-1.63 3.6c-.11.35-.3.87-.55 1.54-.2.53-.55.79-1.07.79-.31 0-.59-.1-.83-.31a.98.98 0 0 1-.36-.78c0-.51.6-2.05 1.77-4.6-.61-1.2-1.58-2.97-2.91-5.32l-.4-.64a1.4 1.4 0 0 1-.23-.7c0-.3.12-.56.35-.8.24-.22.52-.33.83-.33.37 0 .65.13.86.4.79 1.06 1.7 2.64 2.76 4.75l1.08-2.39c.4-.82.78-1.55 1.16-2.18.24-.4.57-.6.99-.6.3 0 .58.1.83.32.24.2.37.47.37.77 0 .16-.05.34-.15.54Zm8.52 2.68c-.06 0-.16 0-.3-.03a1.87 1.87 0 0 0-.3-.03c-.15 0-.37 0-.66.02h-.67a18.1 18.1 0 0 1 0 1.48c0 .29-.11.52-.32.71-.2.18-.46.28-.76.28-.31 0-.57-.1-.77-.28a.92.92 0 0 1-.31-.7l-.02-1.44-1.09.03c-.4 0-.74-.07-1.05-.22-.38-.18-.57-.44-.57-.78 0-.43.17-.72.53-.85.2-.07.56-.1 1.1-.1.3 0 .67-.02 1.08-.04a11.6 11.6 0 0 0-.01-.74c0-1.11.37-1.67 1.12-1.67.3 0 .55.1.77.27.22.18.32.41.32.69 0 .09 0 .23-.03.41l-.02.42v.59a7.33 7.33 0 0 0 .8-.01l.51-.02c1.14 0 1.7.34 1.7 1 0 .28-.09.5-.28.7-.2.2-.46.31-.77.31ZM20.7 55.48c-.36 0-.73-.43-1.09-1.27-.24-.53-.45-1.15-.62-1.86-.34.05-.89.1-1.66.15-.72.05-1.27.11-1.65.18-.21.5-.57 1.26-1.1 2.26-.2.33-.47.5-.83.5-.25 0-.47-.09-.67-.26a.83.83 0 0 1-.3-.65c0-.23.33-1.02 1-2.37a.82.82 0 0 1-.09-.4c.02-.21.24-.38.66-.5a69.4 69.4 0 0 1 2.16-3.5c1.14-1.72 1.84-2.58 2.1-2.58.51 0 .85.3 1.01.9l.43 2.2c.28 1.31.62 2.81 1.02 4.5.04.13.15.43.35.9.17.4.25.7.25.89 0 .26-.1.48-.3.66a.92.92 0 0 1-.67.25Zm-2.55-7-1.47 2.49c.2-.05.52-.09.95-.11.52-.03.84-.06.97-.08l-.45-2.3Zm10.33 7.29c-.56 0-.88-.28-.94-.83l-.2-1.42a10.5 10.5 0 0 1-.05-2.63 4.82 4.82 0 0 1 .03-.56c0-.38-.1-.57-.3-.57-.41 0-.82.25-1.23.74-.4.49-.72 1.1-.94 1.86l-.06.6a4.54 4.54 0 0 0 0 1.19c.03.25.04.44.04.57 0 .26-.09.47-.27.64a.93.93 0 0 1-.68.26.93.93 0 0 1-.67-.26.85.85 0 0 1-.27-.64c0-.13-.01-.32-.04-.57a6.12 6.12 0 0 1-.04-.59c0-.43.03-1.04.1-1.82.06-.78.09-1.39.09-1.83l-.03-.6-.02-.61c0-.26.1-.47.27-.63a.98.98 0 0 1 .69-.26c.6 0 .91.36.95 1.08l.01.07c.67-.67 1.37-1 2.1-1 .87 0 1.46.36 1.8 1.08.21.48.32 1.2.32 2.17V52.14c0 .35.04.8.14 1.37.1.56.15 1.02.15 1.37 0 .25-.1.46-.28.63a.96.96 0 0 1-.67.26Zm7.84-.04c-.21 0-.54-.23-1-.68-.42.2-.79.35-1.1.45-.33.1-.6.16-.82.16-1.1 0-1.92-.3-2.48-.89-.54-.58-.82-1.46-.82-2.63 0-1.1.4-2.04 1.22-2.82a4.04 4.04 0 0 1 2.91-1.18c.44 0 .94.13 1.5.37.7.3 1.04.64 1.04 1.03 0 .17-.05.31-.16.44a4.9 4.9 0 0 0-.1.69 11.79 11.79 0 0 0 .14 2.84l.32.71c.17.4.26.62.26.67 0 .24-.09.44-.28.6a.94.94 0 0 1-.63.24Zm-1.7-4.69a5.2 5.2 0 0 1 .13-1.13 1.24 1.24 0 0 0-.43-.13c-.62 0-1.16.24-1.63.73-.46.48-.7 1.04-.7 1.68 0 .61.12 1.07.34 1.38.21.3.54.46.98.46a2.32 2.32 0 0 0 1.52-.55c-.14-1.09-.2-1.9-.2-2.44Zm5.68 3.23c0 .87-.31 1.3-.94 1.3a.9.9 0 0 1-.94-.93V45.2c0-.26.1-.48.28-.65a1 1 0 0 1 .68-.23c.27 0 .49.08.66.24.18.16.26.38.26.64v9.08Zm3.3-7.2c-.3 0-.55-.1-.76-.3a.94.94 0 0 1-.32-.72c0-.28.1-.52.32-.72.21-.2.47-.29.76-.29.29 0 .54.1.75.3.21.19.32.43.32.71 0 .28-.1.52-.32.72-.21.2-.46.3-.75.3Zm.58 5a58.88 58.88 0 0 0 .05 2.5c0 .27-.1.49-.27.66a.94.94 0 0 1-.68.25.94.94 0 0 1-.67-.25.88.88 0 0 1-.27-.65c0-.26 0-.68-.03-1.26l-.02-1.25c0-.4.02-.91.07-1.52s.07-1.12.07-1.53c0-.26.09-.48.27-.64.17-.18.4-.26.67-.26.28 0 .5.08.68.26.18.16.27.38.27.64 0 .41-.03.92-.07 1.53-.05.61-.07 1.12-.07 1.52Zm7.66-2.01c-.39.43-.85 1.02-1.4 1.77a111.1 111.1 0 0 1-1.42 1.9l.69-.02c.18 0 .45.04.8.1.34.07.6.1.78.1.28 0 .5.09.68.26.18.17.28.39.28.64 0 .26-.1.48-.27.65a.95.95 0 0 1-.69.25c-.18 0-.44-.03-.8-.1-.34-.06-.6-.1-.78-.1a15.37 15.37 0 0 0-3.17.3c-.25 0-.46-.07-.64-.2a.7.7 0 0 1-.3-.6c0-.3.14-.56.43-.8a20.47 20.47 0 0 0 3.56-4.22 16.95 16.95 0 0 1-2.93-.13c-.56-.08-.84-.37-.84-.89 0-.25.09-.46.26-.64s.4-.27.66-.27c.23 0 .56.03 1.01.08a11.28 11.28 0 0 0 2.42.01c.62-.04 1.09-.06 1.4-.06.57 0 .85.23.85.7 0 .4-.2.83-.58 1.27Zm7.56 5.67c-.21 0-.55-.23-1-.68-.42.2-.8.35-1.11.45-.32.1-.59.16-.81.16-1.1 0-1.93-.3-2.48-.89-.54-.58-.82-1.46-.82-2.63 0-1.1.4-2.04 1.22-2.82a4.04 4.04 0 0 1 2.91-1.18c.43 0 .93.13 1.5.37.7.3 1.04.64 1.04 1.03 0 .17-.06.31-.16.44-.05.18-.08.4-.11.69a11.79 11.79 0 0 0 .15 2.84l.31.71c.18.4.27.62.27.67 0 .24-.1.44-.28.6a.94.94 0 0 1-.63.24Zm-1.7-4.69a5.2 5.2 0 0 1 .12-1.13 1.23 1.23 0 0 0-.42-.13c-.62 0-1.16.24-1.63.73-.46.48-.7 1.04-.7 1.68 0 .61.11 1.07.33 1.38.22.3.55.46.99.46a2.32 2.32 0 0 0 1.52-.55 21.4 21.4 0 0 1-.21-2.44Zm14.47-1.26a10.02 10.02 0 0 1-.67-.02c-.2 0-.4.01-.65.05a105.1 105.1 0 0 1 .13 4.34c0 1.04-.33 1.57-.99 1.57a.97.97 0 0 1-.65-.24.76.76 0 0 1-.3-.61c0-.16 0-.41.02-.74s.02-.57.02-.74c0-.55-.04-1.73-.12-3.54-.28-.01-.71-.05-1.29-.1-.57-.07-.85-.37-.85-.9a.9.9 0 0 1 .93-.91c.17 0 .56.03 1.16.08a35.95 35.95 0 0 0-.06-1.4c0-.26.1-.47.28-.64a.97.97 0 0 1 .68-.25c.67 0 1 .57 1 1.7V48a5.01 5.01 0 0 1 1.76.04c.36.13.55.4.55.84 0 .26-.1.47-.27.65a.93.93 0 0 1-.68.26Zm10.52-.52c-.48 1.78-.96 3.4-1.44 4.86a4.8 4.8 0 0 1-.67 1.27c-.22.3-.51.45-.87.44-.58 0-1.03-.56-1.36-1.66-.12-.42-.27-1.2-.44-2.34a100.02 100.02 0 0 0-1.22 3.04c-.06.18-.16.34-.3.45-.2.3-.48.47-.85.48-.22 0-.44-.18-.68-.57-.25-.4-.46-.91-.61-1.54-.14-.56-.36-1.8-.66-3.69-.06-.4-.1-.73-.1-.96 0-.25.1-.46.29-.62a1 1 0 0 1 .68-.26c.5 0 .8.25.91.74.06.25.11.56.15.94l.1.95.28 1.74c.33-.92.72-2.07 1.16-3.45.19-.6.54-.89 1.05-.89.5 0 .84.33 1 1 .11.46.24 1.06.36 1.8l.34 1.93c.05-.14.4-1.53 1.08-4.15.1-.4.38-.6.85-.6.26 0 .49.1.69.26.2.17.3.38.3.63 0 .04-.01.11-.04.2Zm3.66 6.42c-.84 0-1.57-.29-2.17-.87a3.5 3.5 0 0 1-1.05-2.53c-.03-1 .24-1.9.83-2.7a3.4 3.4 0 0 1 2.89-1.39c.91 0 1.63.37 2.17 1.1a4 4 0 0 1 .73 2.44c0 1.05-.29 1.95-.85 2.7a3.04 3.04 0 0 1-2.55 1.25Zm.41-5.68c-.56 0-1 .25-1.33.76-.27.43-.4.94-.4 1.52 0 .55.15.96.46 1.26.24.23.53.35.86.35.4 0 .74-.14 1.03-.4.33-.32.51-.75.54-1.29.05-1.46-.33-2.2-1.16-2.2Zm6.64-2.9c-.3 0-.55-.1-.76-.3a.95.95 0 0 1-.32-.72c0-.29.1-.53.32-.73.21-.2.47-.3.76-.3.29 0 .54.1.76.3.21.2.32.44.32.73s-.11.53-.32.72c-.22.2-.47.3-.76.3Zm-.33 9.46c0-.48-.08-1.74-.23-3.79a80.5 80.5 0 0 1-.24-3.64c0-.28.08-.52.24-.74a.87.87 0 0 1 .73-.37c.2 0 .42.07.63.21.23.16.34.33.35.54l.23 3.79c.12 2.2.18 3.57.18 4.07 0 .66-.2 1.26-.62 1.81-.46.62-1.03.92-1.72.92-1.1 0-2-.78-2.7-2.34a.85.85 0 0 1 .2-1.07 1 1 0 0 1 .67-.25c.29 0 .55.15.77.47l.5.88c.18.31.37.47.56.47.24 0 .39-.32.45-.96Zm6.92-.97a4.34 4.34 0 0 1-2.67-.78 2.86 2.86 0 0 1-1.15-2.42c0-1.15.3-2.13.91-2.93a3.25 3.25 0 0 1 2.73-1.32c.8 0 1.45.12 1.97.38.7.34 1.04.86 1.04 1.57 0 .5-.28.95-.84 1.33-.26.18-.77.44-1.54.78l-2.3 1.02c.21.24.48.42.79.54.3.11.66.17 1.06.17a3 3 0 0 0 1.56-.37c.37-.23.68-.34.9-.34.48 0 .72.23.72.7 0 .51-.39.94-1.15 1.26a5.1 5.1 0 0 1-2.03.41Zm-.18-5.8c-.42 0-.79.14-1.09.42-.3.29-.54.71-.72 1.28l1.54-.67c.61-.28 1.1-.53 1.47-.77-.3-.17-.7-.26-1.2-.26Zm10.91 1.42c-.2 1.07-.3 2.2-.34 3.39-.05 1.47-.3 2.54-.74 3.2-.6.9-1.66 1.34-3.17 1.34-1.78 0-2.66-.36-2.66-1.06a.8.8 0 0 1 .24-.6.86.86 0 0 1 .63-.24c.2 0 .5.04.88.12.38.08.72.11 1.02.11.68 0 1.18-.2 1.5-.62.31-.4.5-1.05.55-1.93a2.32 2.32 0 0 1-1.74.7 2.95 2.95 0 0 1-3.07-3.14 4.1 4.1 0 0 1 1.14-3.01 4.27 4.27 0 0 1 3.18-1.19c.42 0 .8.05 1.1.16.31.1.56.26.76.48.57.06.86.4.86 1.02 0 .3-.05.73-.14 1.27Zm-2.65-1.37c-.77 0-1.37.25-1.8.76a2.7 2.7 0 0 0-.58 1.79c0 .54.1.95.31 1.22.2.28.52.41.93.41.37 0 .74-.21 1.12-.65.36-.4.56-.81.61-1.21.09-.44.19-1.12.3-2.05-.15-.09-.3-.16-.45-.2-.16-.05-.3-.07-.44-.07Zm6.57 5.84c-.85 0-1.57-.29-2.18-.87a3.5 3.5 0 0 1-1.04-2.53c-.03-1 .24-1.9.82-2.7a3.4 3.4 0 0 1 2.9-1.39c.9 0 1.63.37 2.17 1.1a4 4 0 0 1 .72 2.44c0 1.05-.28 1.95-.84 2.7a3.04 3.04 0 0 1-2.55 1.25Zm.4-5.68c-.55 0-1 .25-1.32.76-.27.43-.4.94-.4 1.52 0 .55.15.96.46 1.26.24.23.53.35.86.35.4 0 .74-.14 1.03-.4.33-.32.5-.75.53-1.29.06-1.46-.32-2.2-1.15-2.2ZM130.6 55c-1.06.4-2.4.6-4.02.6a1 1 0 0 1-.74-.34 1.06 1.06 0 0 1-.32-.74V47.3l-.03-.93c-.02-.35 0-.65.03-.89.06-.43.46-.69 1.2-.78.34-.1.92-.15 1.72-.15.86 0 1.69.28 2.47.83.93.65 1.4 1.46 1.4 2.43 0 .53-.1.97-.3 1.33-.15.29-.4.6-.78.93.44.22.83.54 1.17.97.4.49.58.97.58 1.45 0 .6-.33 1.18-.99 1.72-.44.36-.9.63-1.39.81Zm-2.16-8.62a22 22 0 0 0-1.06.02v2.88c.41.05.73.07.94.05 1.39-.11 2.09-.62 2.09-1.54 0-.32-.2-.63-.62-.94a2.23 2.23 0 0 0-1.35-.47Zm.8 4.84c-.42 0-1.04-.02-1.86-.05v2.55c.78-.04 1.63-.19 2.55-.45.8-.22 1.2-.47 1.19-.73-.02-.36-.27-.67-.77-.94-.4-.22-.76-.35-1.11-.38Zm7.77-1.35c-.2.74-.5 1.85-.86 3.34l-.25 1.54c-.19.65-.53.97-1.04.97a.93.93 0 0 1-.74-.32.97.97 0 0 1-.23-.65c0-.74.15-1.64.47-2.7.47-1.59.72-2.47.76-2.65l.4-2.1c.2-.97.43-1.61.66-1.93.25-.32.55-.48.91-.48.42 0 .72.2.92.62.18.4.38 1.21.59 2.44.2 1.19.5 2.47.9 3.84.51-1.35 1-2.84 1.44-4.46l.38-1.57c.25-.65.63-.98 1.15-.98.5 0 .86.38 1.1 1.14.1.3.21.87.33 1.7.26 1.95.6 3.61 1 5 .4 1.4.6 2.17.6 2.3 0 .26-.1.49-.32.67-.2.17-.43.25-.68.25-.5 0-.86-.36-1.1-1.07l-.39-1.65c-.22-.82-.45-2-.7-3.54-.21.61-.55 1.57-1.03 2.88l-.4 1.26c-.18.5-.35.9-.53 1.22-.25.43-.58.64-1.01.64-.43 0-.76-.26-.99-.76l-.38-1.27c-.36-1.17-.68-2.4-.96-3.68Zm15.29-2.68c-.24 0-.89-.06-1.95-.2-.07.85-.1 1.96-.1 3.35v3.07l1.85-.02c.27 0 .5.1.67.27.19.19.28.4.28.66a.9.9 0 0 1-.28.66.91.91 0 0 1-.67.26 69.39 69.39 0 0 1-2.3.03c-.3 0-.75.05-1.35.12-.6.08-1.05.13-1.36.13a.9.9 0 0 1-.95-.92.93.93 0 0 1 .95-.93c.31 0 .72-.04 1.23-.1l-.02-3.1c0-1.24.05-2.42.14-3.55l-1.48.04a.96.96 0 0 1-.7-.26.89.89 0 0 1-.27-.67c0-.26.1-.48.28-.65.16-.16.37-.25.62-.27a26.81 26.81 0 0 1 5.54.23c.56.08.84.4.84.95 0 .29-.11.52-.34.69-.19.14-.4.21-.63.21Zm7.93-1.75-.77 1.78c-.31.8-.75 1.74-1.31 2.8l-1.5 2.71-1.23 2.61c-.17.37-.43.55-.8.55a.93.93 0 0 1-.62-.23.76.76 0 0 1-.29-.6c0-.1.02-.21.06-.32.36-.93 1.03-2.28 2.02-4.04a34.38 34.38 0 0 0 2.02-4.06c.27-.71.47-1.2.6-1.45.36-.7.7-1.04 1-1.04.24.01.45.1.62.24.2.17.3.37.3.6 0 .14-.04.29-.1.45Zm6.39 9.56c-1.06.4-2.4.6-4.03.6a1 1 0 0 1-.74-.34 1.05 1.05 0 0 1-.32-.74V47.3l-.03-.93c-.02-.35 0-.65.03-.89.06-.43.46-.69 1.2-.78.34-.1.92-.15 1.72-.15.86 0 1.69.28 2.48.83.92.65 1.38 1.46 1.38 2.43 0 .53-.1.97-.28 1.33-.16.29-.42.6-.8.93.45.22.84.54 1.19.97.38.49.58.97.58 1.45 0 .6-.33 1.18-1 1.72-.44.36-.9.63-1.38.81Zm-2.17-8.62c-.59 0-.94 0-1.06.02v2.88c.42.05.73.07.94.05 1.4-.11 2.09-.62 2.09-1.54 0-.32-.2-.63-.62-.94a2.23 2.23 0 0 0-1.35-.47Zm.8 4.84c-.41 0-1.03-.02-1.86-.05v2.55c.78-.04 1.63-.19 2.55-.45.8-.22 1.2-.47 1.19-.73-.01-.36-.27-.67-.77-.94-.4-.22-.76-.35-1.11-.38Zm7.77-1.35c-.2.74-.49 1.85-.86 3.34l-.25 1.54c-.19.65-.53.97-1.03.97a.93.93 0 0 1-.75-.32.97.97 0 0 1-.23-.65c0-.74.16-1.64.47-2.7.47-1.59.72-2.47.76-2.65l.4-2.1c.2-.97.43-1.61.66-1.93.25-.32.55-.48.91-.48.42 0 .72.2.92.62.18.4.38 1.21.59 2.44.2 1.19.5 2.47.9 3.84.51-1.35 1-2.84 1.44-4.46l.39-1.57c.24-.65.62-.98 1.14-.98.5 0 .86.38 1.1 1.14.1.3.21.87.33 1.7.26 1.95.6 3.61 1 5 .4 1.4.6 2.17.6 2.3 0 .26-.1.49-.32.67-.2.17-.43.25-.68.25-.5 0-.86-.36-1.1-1.07l-.39-1.65c-.21-.82-.45-2-.7-3.54-.21.61-.55 1.57-1.03 2.88l-.4 1.26c-.17.5-.35.9-.53 1.22-.24.43-.58.64-1.01.64-.43 0-.76-.26-.99-.76l-.38-1.27c-.36-1.17-.67-2.4-.96-3.68Zm16.44 5.48a.97.97 0 0 1-.67-.29 11.5 11.5 0 0 0-4.56-2.69l.08 2.2a.9.9 0 0 1-.28.67.94.94 0 0 1-.68.27.94.94 0 0 1-.68-.27.9.9 0 0 1-.27-.66 123.9 123.9 0 0 1 .02-3.07l.02-5.52c0-.3.08-.56.26-.8.24-.31.56-.45.97-.42l1.7.13c.64.08 1.18.23 1.63.46 1.94.98 2.91 2.2 2.91 3.64 0 .6-.2 1.13-.61 1.59-.4.45-1.02.84-1.83 1.15 1.2.68 2.11 1.37 2.72 2.07a.9.9 0 0 1-.04 1.27.96.96 0 0 1-.69.27Zm-4.38-8.6-.8-.05v3.63h.3c1.12 0 1.95-.13 2.48-.41.24-.12.45-.28.64-.47.2-.2.3-.35.3-.45 0-.5-.33-1-.98-1.48a3.95 3.95 0 0 0-1.94-.77ZM205.15 20.28h125v35h-125v-35Z"/><path fill="#000" d="M215.25 18.73c.4-.01.79.06 1.15.21l.38.15.37.16.72.27.38.14.37.14a.7.7 0 0 0 .3.04l.76-.08c.16-.01.34-.05.52-.11l.75-.27c.5-.17 1.01-.14 1.48.07l.38.17.3.14.32-.17.38-.2c.37-.19.78-.3 1.2-.31l.75-.02c.4 0 .78.07 1.14.22l.38.15.37.15c.1.04.17.05.23.04l.37-.06.38-.06c.3-.05.62-.07.93-.06l.37.02h1l.38-.05.37-.03c.17-.01.35-.05.53-.1l.37-.14.38-.13c.47-.16.96-.14 1.43.04l.37.14.38.14c.12.05.22.07.32.06l.37-.02.38-.04c.15 0 .32-.04.49-.1l.75-.26c.5-.18 1.01-.15 1.48.06l.38.17.34.16.35-.16.38-.16c.48-.21 1-.23 1.5-.03l.38.14.38.15c.14.05.28.08.4.08l.75.02c.18 0 .36-.02.54-.06l.38-.07.37-.08c.36-.07.73-.08 1.1-.02l.37.06.38.06.66.07.75.04c.3.02.62.07.92.15l.38.08.29.08.75-.56a1.7 1.7 0 0 1 1.75-.21l.75.32a.8.8 0 0 0 .34.08h.75c.36 0 .71.05 1.05.16l.38.12.3.1.75-.46c.39-.23.82-.33 1.26-.25l.44.14.37.17.38.18c.1.04.16.04.2.04l.75-.1c.27-.03.54-.06.8-.07l.38-.03.38-.03c.22-.01.45-.04.68-.07l.75-.1.64-.13.75-.2c.49-.12.98-.06 1.43.15l.75.36a2 2 0 0 0 .5.16l.37.07.38.07c.02 0 .06 0 .14-.04l.75-.35.39-.14c.4-.1.81-.05 1.2.13l.38.16.37.17c.07.03.1.03.13.03l.37-.08.38-.09c.32-.07.64-.1.97-.1h.75c.13.01.27-.01.42-.06l.75-.25c.35-.12.71-.17 1.08-.17h.37l.38.01.69-.01.75-.03c.27-.02.54-.02.8-.02h.76c.32 0 .64.04.96.1l.75.18c.3.07.62.17.92.3l.75.31.04.02.03-.01.75-.22c.36-.1.73-.16 1.1-.13l.75.04.73.04.75.03.75.03.75.03a.9.9 0 0 0 .35-.07l.37-.14.38-.15c.37-.14.75-.22 1.15-.2l.75.03c.34.01.68.07 1.01.18l.38.11.37.13c.19.06.37.1.55.12l.75.07h.02a.4.4 0 0 0 .1-.05l.37-.23.38-.23c.46-.29 1-.4 1.57-.23l.37.12.38.1.84.31.38.15.37.16c.15.06.28.09.4.1l.76.02c.1 0 .21 0 .34-.06l.38-.16.37-.14c.36-.15.74-.22 1.13-.21l.75.01c.13 0 .27-.02.42-.07l.75-.25a1.96 1.96 0 0 1 1.5.1l.75.36c.15.07.26.1.36.1l.75.03c.3.02.61.06.91.12l.75.16c.16.03.32.04.47.03l.37-.03.38-.03c.16 0 .33-.04.5-.1l.75-.27c.31-.11.63-.19.95-.23l.75-.1.82-.06.38-.02.37-.02c.34-.02.68 0 1.01.08l.38.07.37.08.68.11.38.05.37.05c.2.03.41.04.62.04h.75c.29 0 .58.02.87.06l.37.04.38.04c.17.03.34.02.52 0l.75-.07c.13-.02.28-.05.44-.13l.37-.18.38-.17c.44-.21.94-.27 1.43-.13l.75.2c.2.05.4.1.58.1l.38.04.37.04c.21.02.42.02.63.02l.75-.02.39.03c.13.03.28.08.42.16.16.09.3.2.4.34l.22.46.07.25.07.26c.07.3.09.6.07.91v.38l-.02.37c0 .11.01.23.06.36l.14.38.14.37c.19.52.15 1.06-.08 1.54l-.18.38-.15.3.16.3.2.38c.26.53.27 1.12 0 1.65l-.38.75c-.03.08-.03.12-.03.14l.13.75.13.72.08.37.07.38c.08.4.07.8-.02 1.18l-.1.37-.08.38.01.05.2.37.2.38c.28.53.3 1.13.02 1.67l-.2.37-.19.38c-.08.17-.13.32-.15.46l-.13.75a.49.49 0 0 0 .03.25l.13.37.14.38c.15.42.18.86.08 1.3l-.17.75c-.05.2-.08.41-.1.61l-.03.38-.02.37c-.01.1 0 .2.04.32l.14.37.15.38c.17.42.2.88.1 1.33l-.09.38-.1.37c0 .05 0 .1.02.17l.15.37.14.38c.17.44.2.91.06 1.38l-.1.37-.1.38c-.07.22-.12.44-.16.65l-.14.75c0 .04 0 .08.03.16l.17.38.16.37c.24.52.24 1.07 0 1.59l-.18.37-.18.36.15.36.14.38c.17.44.24 1.06-.2 1.59l-.38.45c-.3.36-.7.55-1.08.65l-.75.19c-.28.07-.56.12-.84.16l-.38.06-.37.06c-.3.04-.6.07-.89.07l-.75.02c-.42 0-.83-.1-1.2-.29l-.38-.18-.32-.15-.32.15-.38.17c-.43.2-.9.26-1.37.16l-.75-.15c-.2-.05-.4-.08-.61-.09l-.38-.02-.37-.03c-.2-.02-.38 0-.57.01l-1.5.16-.38.04-.37.04c-.49.06-.95-.06-1.35-.3l-.38-.21-.38-.21-.04-.02h-.01l-.75.15c-.2.04-.39.1-.59.18l-.75.3c-.44.17-.9.2-1.37.08l-.75-.2a1.09 1.09 0 0 0-.4-.04l-.74.08c-.22.02-.44.06-.66.1l-.75.14c-.48.1-.95.03-1.38-.18l-.38-.19-.37-.18a.57.57 0 0 0-.27-.06l-.75.03c-.2.01-.39.03-.58.07l-.38.09-.37.08c-.35.07-.71.1-1.07.06l-.75-.08c-.09 0-.19 0-.3.04l-.37.14-.38.13c-.58.21-1.16.1-1.63-.2l-.75-.48-.11-.06-.38.05-.37.04c-.21.02-.43.05-.64.1l-.75.16c-.23.04-.45.1-.68.17l-.75.22c-.51.15-1.02.08-1.48-.14l-.75-.38c-.15-.07-.27-.1-.38-.1l-.75-.07c-.02 0-.08 0-.18.05l-.38.22-.37.21c-.4.22-.83.35-1.3.32l-.75-.04a6.5 6.5 0 0 1-.89-.11l-.37-.08-.38-.07a1.17 1.17 0 0 0-.4-.01l-.75.11c-.41.06-.82.02-1.2-.1l-.38-.12-.38-.12a.5.5 0 0 0-.26-.02l-.75.14c-.36.07-.72.07-1.09.02l-.75-.13a5.89 5.89 0 0 0-.64-.06l-.38-.02-.37-.02a16.4 16.4 0 0 1-.8-.05l-.75-.08a16.8 16.8 0 0 0-.7-.06l-.38-.01-.38-.03c-.14 0-.28.01-.44.05l-.74.2-.66.21-.75.29c-.62.23-1.22.09-1.69-.25l-.37-.28-.27-.2-.21.12-.38.18c-.4.19-.83.28-1.28.23l-.38-.03-.37-.04a5.1 5.1 0 0 1-.93-.19l-.75-.22a1.24 1.24 0 0 0-.42-.05l-.75.05h-.84l-.75-.04c-.27 0-.54-.02-.8-.04l-.75-.06c-.18-.02-.35-.01-.53.01l-.38.05-.37.05c-.1.02-.24.06-.39.14l-.38.22-.37.21c-.48.27-1.03.35-1.58.15l-.75-.26a.79.79 0 0 0-.33-.06l-.37.04-.38.03a2.7 2.7 0 0 0-.54.1l-.38.11-.37.12c-.61.18-1.19.01-1.64-.32l-.37-.28-.2-.15-.17.12-.37.23c-.36.23-.76.4-1.2.44l-.37.04-.37.03c-.33.03-.65.03-.98 0l-.37-.06-.38-.05a4.2 4.2 0 0 1-.98-.25l-.38-.15-.37-.14c-.05-.02-.08-.02-.11 0l-.38.1-.37.1-.8.21-.38.1-.38.08c-.53.13-1.04.01-1.48-.25l-.75-.43a.68.68 0 0 0-.3-.11l-.37-.02-.38-.02c-.14-.01-.28 0-.44.05l-.37.09-.38.1c-.42.11-.85.1-1.27 0l-.37-.1-.35-.1-.75.45c-.4.24-.88.37-1.38.31l-.75-.1c-.3-.03-.6-.1-.9-.18l-.38-.1-.38-.1c-.19-.06-.38-.1-.57-.12l-.37-.03-.38-.04c-.14-.01-.28 0-.43.03l-.38.09-.37.08c-.41.09-.83.08-1.23-.03l-.75-.2a.56.56 0 0 0-.27 0l-.75.16-.72.18-.75.18c-.42.1-.84.11-1.25 0l-.75-.2a.58.58 0 0 0-.28 0l-.75.17c-.41.1-.82.08-1.22-.02l-.38-.1-.37-.1a.46.46 0 0 0-.25 0l-.75.2c-.36.1-.74.13-1.12.08l-.38-.03-.37-.05-.69-.06-.37-.02-.38-.02a5.21 5.21 0 0 1-.93-.14l-.75-.2a1.89 1.89 0 0 0-.49-.05l-.37.02h-.38l-.71.04-.75.05c-.16 0-.32.03-.5.09l-.37.12-.37.14c-.38.12-.77.17-1.17.14l-.37-.04-.38-.03-.74-.06-.75-.07a5.25 5.25 0 0 1-.92-.16l-.75-.2a.9.9 0 0 0-.36-.03l-.38.06-.37.04c-.19.03-.72.08-1.13-.36-.41-.45-.3-1.01-.24-1.2l.2-.7v-.03l-.01-.07-.3-.75c-.12-.3-.2-.62-.26-.93l-.13-.75a3.04 3.04 0 0 1 .01-1.12l.08-.38.07-.37c.07-.34.18-.67.34-.98l.36-.75.01-.07v-.01l-.19-.75c-.06-.23-.12-.47-.2-.7l-.23-.75a1.95 1.95 0 0 1 .17-1.52l.2-.38.2-.37c.05-.1.05-.15.05-.18l-.03-.38-.04-.37a2.83 2.83 0 0 0-.11-.56l-.1-.37-.13-.38c-.1-.32-.15-.66-.16-1l-.03-.75c-.02-.34.02-.68.1-1.02l.1-.37.08-.38c0-.03.01-.05-.02-.12l-.15-.37-.17-.38a2.1 2.1 0 0 1-.09-1.43l.22-.75c.04-.14.05-.27.05-.4l-.03-.38-.03-.37c-.03-.4.04-.8.18-1.17l.13-.37.14-.38a.36.36 0 0 0 .03-.2l-.07-.37-.08-.38c-.08-.4-.07-.8.03-1.19l.1-.37.07-.3-.26-.38-.28-.38a2.18 2.18 0 0 1-.43-1.37l.03-.38.01-.37c.02-.3.05-.6.11-.9l.08-.38.07-.37a.48.48 0 0 0-.01-.25l-.12-.38-.13-.37a2.68 2.68 0 0 1-.1-1.19l.05-.37.05-.38c.02-.15.05-.31.1-.46.04-.13.11-.34.25-.52l.1-.13.1-.12.2-.2c.2-.17.44-.23.6-.26.2-.03.42-.02.59 0l.38.06.37.05.65.05h.37l.38.02c.1 0 .2-.01.33-.07l.37-.16.38-.16a2.7 2.7 0 0 1 1.18-.22l.75.03c.41.02.8.13 1.16.31l.38.2.24.12.26-.17.38-.24c.37-.24.8-.4 1.26-.4l.75-.02Zm-.7 2.01c-.03 0-.1 0-.23.09l-.75.48a1.7 1.7 0 0 1-1.75.1l-.75-.39a.82.82 0 0 0-.34-.1l-.75-.02a.71.71 0 0 0-.31.06l-.38.16-.37.16c-.37.16-.77.24-1.17.23l-.75-.02c-.29 0-.57-.03-.85-.07l-.38-.05-.09-.01-.03.3-.05.38c-.02.1 0 .2.03.31l.12.38.12.37c.13.4.15.83.07 1.25l-.07.38-.08.37c-.04.2-.06.4-.07.6l-.02.38-.02.37v.02l.07.1.53.76c.3.43.47.98.32 1.57l-.08.37-.1.38a.7.7 0 0 0-.01.3l.08.38.07.38c.09.44.04.88-.11 1.3l-.14.37-.13.38a.8.8 0 0 0-.06.33l.05.75c.02.37-.02.74-.13 1.1l-.1.37-.1.38-.02.02.02.05.16.37.16.38c.19.43.24.9.13 1.38l-.1.37-.09.38a1.7 1.7 0 0 0-.04.48l.03.75c0 .16.03.32.09.5l.22.75c.09.3.15.62.18.94l.04.38.03.37c.04.47-.06.92-.28 1.32l-.4.75.1.35.12.38.22.8.19.75c.12.5.06.98-.15 1.42l-.36.75a2.2 2.2 0 0 0-.18.52l-.14.75a1 1 0 0 0 0 .38l.05.38.08.37c.03.18.08.37.15.57l.15.37.14.38c.12.31.18.64.15.98.27 0 .53.02.8.09l.75.2c.19.05.39.08.57.1l.75.06.76.07.38.03.37.04c.1 0 .21 0 .34-.05l.75-.25c.33-.11.66-.18 1-.2l.75-.05c.27-.02.53-.03.8-.03l.74-.02c.34 0 .68.03 1.01.11l.38.09.37.1c.2.04.39.07.57.08l.75.04.81.07.38.05.38.04c.11.01.24.01.37-.02l.75-.2c.42-.12.84-.12 1.26-.01l.37.1.38.1c.1.02.19.02.28 0l.75-.17c.4-.1.81-.08 1.22.02l.37.1.38.1c.08.02.16.02.25 0l.75-.2.78-.18.75-.17c.4-.1.82-.08 1.22.03l.38.1.38.1c.1.02.18.02.27 0l.37-.07.38-.1c.35-.07.7-.1 1.06-.06l.38.04.37.03c.31.03.62.1.93.18l.38.1.37.11c.2.06.4.1.6.12l.75.1h.02l.1-.05.37-.22.37-.22c.34-.2.73-.32 1.13-.3l.4.07.75.2c.08.02.15.02.23 0l.38-.1.37-.1c.35-.08.7-.12 1.06-.1l.75.05c.43.02.84.15 1.2.37l.38.23.38.22.03.01.36-.08.37-.1c.23-.05.46-.1.7-.17l.75-.22c.46-.14.94-.11 1.39.06l.37.15.38.14c.18.07.35.12.51.14l.75.1c.18.02.35.02.53 0l.75-.07c.06-.01.17-.04.3-.13l.76-.48.44-.2a1.55 1.55 0 0 1 1.03.04l.41.24.38.27.34.26.27-.08.38-.11c.31-.1.63-.16.95-.19l.75-.06c.4-.03.8.03 1.17.16l.38.14.31.1.36-.19.38-.21c.34-.2.71-.34 1.1-.4l.38-.04.38-.05c.31-.05.64-.05.96-.03l.75.07.7.04.38.01.38.02h.65l.38-.03.37-.01c.37-.02.73.02 1.09.12l.37.12.38.1c.2.07.38.1.57.12l.75.08a.4.4 0 0 0 .21-.06l.75-.36.45-.15a1.63 1.63 0 0 1 .93.11l.4.22.37.27.3.22.26-.09.38-.14c.27-.1.56-.2.84-.27l.75-.2c.35-.1.7-.13 1.06-.1h.38l.37.03c.27.01.53.04.8.06l.37.03.37.04c.23.03.47.05.7.06l.75.03c.3.01.58.05.86.1l.38.05.37.06c.14.02.27.02.41 0l.75-.15c.42-.08.84-.05 1.24.08l.38.12.37.12c.11.04.2.05.3.03l.75-.1c.36-.06.73-.05 1.1.02l.37.07.37.08c.2.04.41.06.61.07l.38.03.37.01c.03 0 .1 0 .2-.06l.76-.42c.4-.23.84-.35 1.31-.31l.38.03.38.02c.39.03.76.15 1.11.32l.75.38h.03l.37-.1.38-.1c.27-.09.54-.16.82-.22l.37-.08.38-.08c.28-.06.57-.1.86-.13l.75-.08c.51-.06.98.1 1.39.36l.37.24.32.2.3-.1.37-.13c.39-.14.8-.2 1.2-.15l.38.04.38.04c.14.02.28 0 .43-.03l.37-.07.38-.09c.3-.07.61-.1.92-.12l.75-.03c.43-.02.84.08 1.22.27l.75.36c.08.03.1.02.12.02l.38-.07.37-.08c.28-.05.56-.1.85-.12l.37-.04.38-.03c.37-.04.74 0 1.1.09l.76.2c.03.01.06.01.12-.01l.75-.3c.3-.12.6-.2.91-.27l.38-.08.37-.09c.52-.1 1.02 0 1.45.25l.75.42c.09.05.13.05.15.05l1.5-.15.37-.05.38-.04c.3-.03.62-.04.93-.02l.37.03.38.03c.3.02.59.06.88.12l.75.15c.03 0 .06.01.13-.02l.75-.35c.4-.17.8-.2 1.2-.11l.4.14.75.36c.13.06.22.08.3.08l.75-.02c.2 0 .41-.02.62-.05l.37-.06.38-.05c.22-.04.44-.08.66-.14l.75-.18.05-.02.16-.19-.08-.2-.14-.38c-.2-.5-.17-1.04.05-1.53l.18-.37.15-.34-.14-.33-.17-.37c-.2-.42-.26-.88-.17-1.34l.07-.38.06-.37c.05-.29.12-.57.2-.85l.11-.37.1-.38a.16.16 0 0 0 0-.12l-.15-.37-.14-.38c-.17-.42-.2-.88-.1-1.33l.1-.38.08-.37a.27.27 0 0 0-.01-.17l-.15-.37-.14-.38a2.72 2.72 0 0 1-.18-1.18l.06-.75c.02-.3.07-.6.14-.9l.08-.37.08-.37a.33.33 0 0 0-.01-.2l-.27-.75c-.14-.4-.18-.82-.11-1.25l.12-.75c.06-.36.18-.7.35-1.04l.19-.37.14-.3-.15-.28-.2-.38a2.05 2.05 0 0 1-.19-1.45l.09-.37.1-.38a.74.74 0 0 0 0-.32l-.08-.37-.07-.38-.14-.78-.13-.75c-.08-.48 0-.94.22-1.36l.18-.38.15-.3-.15-.3-.2-.37a1.81 1.81 0 0 1 0-1.64l.17-.38.17-.36-.12-.35-.14-.37c-.14-.37-.2-.75-.19-1.14l.03-.75c0-.19-.01-.29-.02-.33h-.33c-.29.01-.58 0-.87-.02l-.37-.04-.38-.03a5.23 5.23 0 0 1-.92-.17l-.75-.2v-.01l-.06.02-.38.17-.37.18c-.34.16-.7.27-1.06.3l-.75.09a4.4 4.4 0 0 1-.98-.01l-.38-.04-.37-.05a5.58 5.58 0 0 0-.63-.04h-.75a7 7 0 0 1-.88-.06l-.75-.1c-.28-.03-.55-.08-.83-.13l-.75-.16a1.94 1.94 0 0 0-.49-.04l-.37.03-.38.01a9.7 9.7 0 0 0-.68.06l-.75.1c-.17.02-.36.06-.54.13l-.38.12-.38.14c-.32.11-.65.19-1 .22l-.37.03-.38.02c-.34.03-.69.01-1.03-.06l-.75-.16c-.2-.04-.4-.07-.59-.08l-.75-.03c-.4-.02-.78-.12-1.14-.3l-.38-.18-.37-.18-.37.12-.37.13c-.35.12-.72.18-1.09.17l-.75-.01c-.1 0-.23.01-.37.07l-.75.3c-.37.14-.75.22-1.15.2l-.75-.03a3.2 3.2 0 0 1-1.1-.24l-.75-.31a7.68 7.68 0 0 0-.65-.24l-.38-.11-.32-.1-.36.23-.37.23c-.4.25-.88.4-1.38.34l-.75-.08c-.32-.03-.64-.1-.96-.2l-.37-.12-.38-.12a1.82 1.82 0 0 0-.48-.08l-.75-.03a.9.9 0 0 0-.35.07l-.38.14-.37.15c-.37.14-.76.2-1.15.2l-.38-.02-1.12-.04-.38-.01-.37-.02c-.26 0-.52-.02-.78-.04l-.75-.04c-.12-.01-.25 0-.4.04l-.37.11-.37.12c-.49.14-.98.1-1.43-.09l-.75-.3c-.2-.1-.4-.15-.58-.2l-.75-.17a2.52 2.52 0 0 0-.54-.06h-.75c-.23 0-.46 0-.7.02l-.75.03c-.26 0-.53.02-.8.01l-.75-.01c-.13 0-.28.02-.43.07l-.75.25c-.35.11-.7.17-1.07.17h-.75c-.17-.01-.35 0-.53.05l-.38.08-.37.08c-.48.1-.95.04-1.38-.16l-.37-.17-.32-.15-.34.16-.37.18c-.42.2-.89.28-1.36.2l-.38-.08-.37-.06a4 4 0 0 1-1-.33l-.38-.17-.37-.18a.47.47 0 0 0-.06-.02h-.01l-.75.2c-.29.07-.58.12-.86.17l-.75.1-.82.1-.75.04c-.23.01-.47.04-.7.07l-.75.1c-.45.05-.9-.03-1.3-.22l-.37-.17-.27-.13-.28.18-.38.24a1.9 1.9 0 0 1-1.57.2l-.38-.1-.37-.12c-.16-.05-.3-.07-.44-.07h-.75c-.41 0-.8-.08-1.17-.25l-.37-.16-.22-.1-.66.49c-.43.32-.98.5-1.58.35l-.75-.19c-.2-.04-.38-.07-.57-.08l-.75-.05a9.28 9.28 0 0 1-.84-.09l-.38-.06-.37-.05a1.16 1.16 0 0 0-.4 0l-.38.08-.38.07c-.32.07-.64.1-.96.09h-.75c-.37-.02-.74-.1-1.1-.23l-.37-.15-.37-.14-.37.17-.37.16a1.9 1.9 0 0 1-1.56 0l-.37-.17-.38-.17-.02-.01-.37.14-.38.13c-.32.11-.66.19-1 .21l-.75.05c-.4.03-.8-.03-1.18-.18l-.38-.15-.37-.14-.04-.01h-.03l-.38.13-.37.13c-.32.11-.65.18-.98.21l-.37.03-.38.04c-.29.03-.58.04-.87.03l-.38-.02h-.37c-.2-.01-.38 0-.57.03l-.38.06-.37.05c-.44.07-.87 0-1.28-.15l-.75-.3a.92.92 0 0 0-.36-.08l-.75.02a.66.66 0 0 0-.3.08l-.37.2-.37.2c-.51.27-1.09.3-1.63.06l-.37-.18-.38-.16h-.02l-.37.12-.38.13c-.31.11-.64.2-.97.23l-.38.03-.37.04c-.4.04-.81-.01-1.2-.15l-.37-.14-.38-.14-.78-.3-.37-.16-.38-.14a.87.87 0 0 0-.35-.07l-.75.01Z"/><path fill="#fff" d="M236.36 37.14c1.38.77 2.07 2 2.07 3.7a4.6 4.6 0 0 1-1.51 3.48 5.18 5.18 0 0 1-3.7 1.42 6.38 6.38 0 0 1-2.9-.65c-1-.51-1.67-1.23-2.02-2.17-.06-.14-.08-.3-.08-.45 0-.38.15-.69.45-.94.28-.22.6-.34.96-.34.43 0 .76.17 1.02.5.43.58.67.9.74.95.42.33 1.03.5 1.84.5.64 0 1.2-.2 1.67-.57.48-.38.72-.84.72-1.38 0-1.67-1.12-2.61-3.37-2.83-.98-.1-1.47-.5-1.47-1.24 0-.55.38-.96 1.14-1.21l2.16-.5c.46-.13.8-.32 1.03-.55.22-.22.34-.5.35-.81.03-1-.75-1.5-2.34-1.5-.52 0-1.1.2-1.72.6-.62.4-1.05.6-1.27.6-.39 0-.71-.14-.98-.41a1.3 1.3 0 0 1-.4-.94c0-.57.56-1.13 1.69-1.7 1-.5 1.82-.75 2.45-.75a6.2 6.2 0 0 1 3.66.99 3.58 3.58 0 0 1 1.52 3.09c0 .74-.14 1.37-.43 1.89-.28.51-.7.92-1.28 1.22Zm11.28 2.7c-.4.14-.78.24-1.12.32a5.87 5.87 0 0 1-4.43-.98 4.38 4.38 0 0 1-1.85-3.8c0-1.9.63-3.33 1.89-4.3a6.56 6.56 0 0 1 4.13-1.23c1.34 0 2.54.52 3.6 1.56a5.35 5.35 0 0 1 1.66 3.94c0 1.67-.32 3.3-.97 4.87-.71 1.7-1.68 3-2.92 3.86-.51.37-1.32.8-2.42 1.3a7.87 7.87 0 0 1-2.67.85c-.4 0-.72-.14-.98-.42a1.3 1.3 0 0 1-.37-.91c0-.54.33-.95.97-1.23l1.65-.53c.97-.37 1.74-.8 2.3-1.28a6.9 6.9 0 0 0 1.53-2.02Zm-1.67-7.59c-1 0-1.74.25-2.23.75-.5.48-.75 1.22-.76 2.22 0 .8.3 1.42.88 1.87.53.4 1.2.6 2.05.6.33 0 .73-.1 1.18-.3.46-.21.98-.52 1.57-.94.06-.47.1-.84.1-1.1 0-.7-.33-1.4-.96-2.1-.62-.66-1.23-1-1.83-1Zm11.62 14.28-.79 1.54c-.22.44-.59.67-1.1.67-.35 0-.65-.12-.9-.35a1 1 0 0 1-.37-.77c0-.17.22-.7.65-1.56.38-.76.67-1.3.86-1.61.25-.4.6-.6 1.05-.6.35 0 .65.12.9.34.25.23.37.5.37.79 0 .13-.22.65-.67 1.55Zm11.53-6.7c-.41.15-.79.25-1.13.33a5.88 5.88 0 0 1-4.43-.98 4.38 4.38 0 0 1-1.84-3.8c0-1.9.63-3.33 1.88-4.3a6.57 6.57 0 0 1 4.13-1.23c1.35 0 2.55.52 3.6 1.56a5.35 5.35 0 0 1 1.67 3.94c0 1.67-.32 3.3-.98 4.87-.7 1.7-1.68 3-2.91 3.86-.52.37-1.32.8-2.42 1.3a7.86 7.86 0 0 1-2.67.85c-.4 0-.73-.14-.99-.42a1.3 1.3 0 0 1-.36-.91c0-.54.32-.95.96-1.23l1.65-.53c.98-.37 1.75-.8 2.3-1.28a6.88 6.88 0 0 0 1.54-2.02Zm-1.68-7.58c-.99 0-1.73.25-2.23.75-.5.48-.75 1.22-.75 2.22 0 .8.29 1.42.87 1.87.53.4 1.21.6 2.05.6.34 0 .73-.1 1.19-.3.46-.21.98-.52 1.56-.94.07-.47.1-.84.1-1.1 0-.7-.32-1.4-.95-2.1-.62-.66-1.24-1-1.84-1Zm14.24 7.59c-.41.14-.79.24-1.13.32a5.87 5.87 0 0 1-4.43-.98 4.38 4.38 0 0 1-1.85-3.8c0-1.9.63-3.33 1.89-4.3a6.57 6.57 0 0 1 4.13-1.23c1.34 0 2.54.52 3.6 1.56a5.35 5.35 0 0 1 1.66 3.94c0 1.67-.32 3.3-.97 4.87-.71 1.7-1.68 3-2.91 3.86-.52.37-1.33.8-2.43 1.3a7.87 7.87 0 0 1-2.67.85c-.4 0-.72-.14-.98-.42a1.3 1.3 0 0 1-.36-.91c0-.54.32-.95.96-1.23l1.65-.53c.98-.37 1.74-.8 2.3-1.28a6.9 6.9 0 0 0 1.54-2.02ZM280 32.25c-1 0-1.74.25-2.23.75-.5.48-.75 1.22-.76 2.22 0 .8.3 1.42.88 1.87.53.4 1.21.6 2.05.6.33 0 .73-.1 1.18-.3.46-.21.99-.52 1.57-.94.07-.47.1-.84.1-1.1 0-.7-.33-1.4-.96-2.1-.62-.66-1.23-1-1.83-1Zm18.63 5.36c-.57.64-1.25 1.5-2.06 2.6a160.2 160.2 0 0 1-2.09 2.79l1.02-.02c.27 0 .65.05 1.16.15.52.1.9.14 1.17.14.4 0 .73.13 1 .38.26.25.4.57.4.95s-.14.7-.4.94c-.26.25-.6.37-1 .37-.27 0-.66-.04-1.18-.14-.5-.1-.89-.14-1.15-.14-1.5 0-2.9.13-4.21.37a2.4 2.4 0 0 1-.44.05c-.37 0-.69-.1-.95-.3-.3-.22-.44-.51-.44-.87 0-.43.21-.82.63-1.18a30.09 30.09 0 0 0 5.24-6.2 22.41 22.41 0 0 1-4.3-.2c-.83-.1-1.25-.53-1.25-1.3 0-.36.13-.67.39-.94.25-.26.57-.39.97-.39.33 0 .82.04 1.49.11a16.57 16.57 0 0 0 3.55.02c.91-.06 1.6-.09 2.05-.09.84 0 1.26.34 1.26 1.03 0 .6-.29 1.22-.86 1.87Zm6.4-2.31c.7-.53 1.16-.8 1.38-.8.65 0 .97.43.97 1.3 0 .25-.31.66-.93 1.23l-1.43 1.23c.02 1.35.02 3.15 0 5.4-.04.82-.14 1.34-.3 1.56-.16.22-.5.33-1.02.33-.75 0-1.12-.4-1.12-1.21v-4.6l-.4.38c-.4.4-.76.6-1.06.57-.63-.05-.94-.44-.94-1.15 0-.36.2-.73.62-1.1l1.78-1.48v-5.65a1.25 1.25 0 0 1 1.3-1.29c.76 0 1.14.43 1.14 1.29v3.99Z"/></svg>