<svg xmlns="http://www.w3.org/2000/svg" width="327" height="65" fill="none" viewBox="0 0 327 65"><path fill="#eee" d="m4.4 4.3 319 5.5-.9 51.8L3.5 56z"/><path fill="#000" d="M14.4 2.7v2.7zm53 2.7L66.3 3zM134 6.5l-1-2.5zm19.9.9 1-2.6zM260 9.7l.5-2.7zM323 13l2.7.2zm0 26.5-2.4 1.1zm-1.5 19.9h2.7zm-23.2 1.9 1.3-2.4zm-6.6-.5-1-2.5zm-13.3 1.5v-2.7zM265 59.6l.5-2.7zm-6.6.7 1 2.6zm-6.7 1.4v-2.8zM238.5 59v-2.7zm-6.7 1.3-1-2.5zm-99.6-.5-.1 2.7zm-6.7 0V57zM99 58.7v2.7zm-26.6-1.4-1-2.4zm-6.6.4-.9 2.6zm-6.6-.5.4 2.7zm-6.7.2-.3 2.7zm-6.6 0-.4-2.6zm-6.7-.8 1-2.5zM7 55l.5 2.7zm.8-51.4.7 2.7q3-.8 6-.8V0q-3.7 0-7.3.9zm6.7-.8v2.7q3.2 0 6.4.3L21 3l.3-2.7-6.9-.3zM21 3l-.2 2.7q3.4.3 7 .2l-.1-2.7-.1-2.7q-3.1 0-6.3-.2zm6.7.2v2.7q2.6-.1 5.4 1.3l1.2-2.5 1.2-2.4q-3.8-2-8-1.8zm6.6 1.5L33 7.2q4.3 2.2 8.9.4L41 5l-1.1-2.5a5 5 0 0 1-4.4-.2zm6.6.3 1 2.6q3-1.2 5.7-1.2V.9q-4 0-7.7 1.6zm6.7-1.4v2.8q3 0 5.9.8l.7-2.7L55 2q-3.6-1-7.3-1zm6.6 1-.7 2.6 6.7 1.7.6-2.6.7-2.7L54.9 2zm6.6 1.7-.6 2.6q4.4 1 8.5-1l-1.2-2.5L66.2 3q-2.5 1.3-4.7.6zm6.7-.9 1.2 2.4q2.2-1.1 4.3 0L74 5.2l1.2-2.5a10 10 0 0 0-9 .2zm6.6-.1L73 7.7q3.8 2 8 1.6l-.2-2.7-.3-2.8q-2.5.3-5.2-1zm6.7 1.3.2 2.7 6.8-.8-.4-2.7L87 3l-6.5.7zm6.6-.8.4 2.7q3-.5 6.3-.5V2.6q-3.6 0-7 .5zm6.7-.5V8q3 0 6.2.5l.4-2.7.4-2.7q-3.5-.5-7-.5zm6.6.5-.4 2.7q3.5.5 7 .5V3.6q-3 0-6.2-.5zm6.6.5V9q3.7 0 7.3-.8l-.6-2.6-.6-2.7q-3 .7-6 .7zm6.7-.7.6 2.6q2.7-.6 5.4 0l.6-2.6.7-2.6q-4-1-8-.1zm6.6 0-.6 2.7 6.7 1.6.5-2.7.6-2.7q-3.3-.7-6.5-1.5zm6.6 1.6-.5 2.7q4.1.9 8.2-.8l-1-2.6-1-2.5q-2.7 1.2-5 .5zm6.7-.7 1 2.6q2.5-1.2 5-.4l.6-2.7.8-2.6q-4.3-1-8.5.6zm6.6-.5-.7 2.7q4 1 7.7.5l-.3-2.7-.4-2.7q-2.7.3-5.5-.4zm6.7.5.3 2.7q2.7-.3 5.3.7l1-2.5 1-2.6q-4-1.5-8-1zm6.6.9-1 2.5q4.5 1.8 8.9-.5L160.5 7l-1.3-2.4q-2.3 1.2-4.4.2zm6.6-.4 1.3 2.4q2.6-1.2 4.8-.7l.6-2.7.6-2.6q-4.3-.9-8.5 1.2zm6.7-1-.6 2.7 6.7 1.4.5-2.7.6-2.6-6.6-1.4zm6.6 1.4-.5 2.7q3.3.8 6.8 1.2l.3-2.7.4-2.7-6.4-1.1zm6.6 1.2-.3 2.7q3.5.5 7 .4V6.3q-3.1 0-6.3-.4zm6.7.4v2.7q3.4 0 7-.4l-.4-2.7-.3-2.7q-3.1.4-6.4.4zm6.6-.4.3 2.7q3-.3 6 0l.4-2.6.3-2.7q-3.6-.5-7.3-.1zm6.7 0-.4 2.8q3.8.5 7.4 0l-.4-2.7-.4-2.7q-3 .5-5.9 0zm6.6 0 .4 2.8q3-.4 6-.1l.3-2.7.3-2.7q-3.8-.4-7.4 0zm6.7 0-.3 2.7q3.6.4 7.3-.2l-.4-2.7-.4-2.6q-3 .5-6 0zm6.6-.2.4 2.7q3-.4 5.6.2l.6-2.7.6-2.6q-3.7-1-7.6-.2zm6.6.2-.6 2.7q4.2.9 8.3-.8l-1-2.5-1-2.5q-2.7 1-5 .5zm6.7-.6 1 2.5q2.7-1 5-.5l.6-2.6.6-2.7q-4.2-.9-8.2.8zm6.6-.6-.5 2.6q3.4.8 6.9 1.1l.3-2.7.3-2.7q-3.3-.3-6.4-1zm6.7 1-.3 2.7q3.3.4 6.7.6l.2-2.7.2-2.7-6.5-.6zm6.6.6-.2 2.7q3.3.2 6.4.7l.4-2.7.5-2.7q-3.4-.5-7-.7zm6.6.7-.4 2.7q4 .6 7.7-.3l-.6-2.7-.7-2.6q-2.8.7-5.5.2zm6.7-.3.6 2.7q3-.8 6-.7V5.9q-3.6 0-7.3.9zm6.6-.8v2.8q3.2 0 6.3.4L280 9l.3-2.7q-3.4-.5-7-.5zm6.7.5-.4 2.7q3.6.3 7 .4V6.8q-3 0-6.3-.4zm6.6.4v2.7q3.2 0 6.5.2l.1-2.7.2-2.7-6.8-.2zm6.6.2-.1 2.7 6.7.3V10l.2-2.7-6.6-.3zm6.7.3-.1 2.7q3.8 0 7.5-1l-.8-2.6-.7-2.6q-3 .8-5.8.8zm6.6-.9.8 2.6q3-.7 5.7-.6l.2-2.7.2-2.7a21 21 0 0 0-7.6.8zm6.7-.7-.2 2.7 6.4.8.4-2.7.4-2.7-6.8-.8zm6.6.8-.4 2.7.7.2v.6l2.8.2 2.7.2q.3-2.3-1.3-4.4-1.7-2-4-2.2zm3 3.7-2.6-.2-.6 6.5 2.7.3 2.8.2.5-6.6zm-.5 6.6-2.7-.3q-.3 4 1.2 8l2.6-1 2.5-1q-1-2.9-.8-5.5zm1 6.6-2.5 1q1 2.3-.2 4.5l2.5 1.2 2.4 1.1q2.2-4.2.4-8.8zm-.2 6.7-2.5-1.2q-2 4.4-.1 8.9l2.5-1.1 2.5-1a5 5 0 0 1 0-4.5zm-.1 6.6-2.5 1.1q1 2.2-.1 4.3l2.4 1.2 2.4 1.3q2.3-4.5.3-9zm-.2 6.6-2.4-1.2q-2 3.9-1.9 8l2.8-.1 2.7-.1q0-2.6 1.2-5.3zm-1.5 6.7h-2.8l.2 6.6h5.4l-.1-6.7zm.1 6.6h-2.7v.5l.2-.3h-.5l-.3 2.7-.3 2.7q2.5.5 4.6-1.2c1.4-1.3 1.7-3 1.7-4.5zm-3.3 2.9.3-2.7q-3-.3-6.2-1.2l-.7 2.6-.8 2.6q3.6 1 7.1 1.4zm-6.6-1.3.7-2.6q-4.2-1.2-8.5.7l1.1 2.5L306 64q2.4-1.1 4.7-.5zm-6.7.6-1-2.5q-2.1 1-4.3-.2l-1.3 2.4-1.3 2.3q4.4 2.5 9 .5zm-6.6-.3 1.3-2.4a10 10 0 0 0-9-.6l1 2.5 1.1 2.5q2-.9 4.3.3zm-6.6-.5-1-2.5q-3 1.2-5.8 1.3l.1 2.7v2.7a22 22 0 0 0 7.7-1.7zm-6.7 1.5-.1-2.7h-6.5v2.7l-.1 2.7h6.8zm-6.6 0v-2.7q-3 0-6-1l-.7 2.6-.7 2.7q3.6 1 7.3 1.1zm-6.7-1 .8-2.7q-3.5-1-6.9-1.6l-.5 2.7-.5 2.7q3.2.6 6.4 1.5zm-6.6-1.6.5-2.7q-4.1-.7-8.1.9l1 2.5 1 2.6q2.7-1.2 5.1-.6zm-6.6.7-1-2.5q-3 1.1-5.7 1.1v5.5q3.8 0 7.7-1.5zm-6.7 1.4v-2.8q-2.7 0-5.6-1.1l-1 2.5-1 2.5q3.7 1.6 7.6 1.6zm-6.6-1.4 1-2.5q-3.7-1.5-7.6-1.5v5.4q2.7 0 5.6 1.1zm-6.6-1.3v-2.7q-4 0-7.7 1.5l1 2.5 1 2.6q3-1.2 5.6-1.2zm-6.7 1.3-1-2.5q-2.9 1.2-5.5 1l-.2 2.7-.2 2.7q4 .3 8-1.3zm-6.7 1.2.2-2.7q-3-.3-6.2-1l-.6 2.7-.6 2.7q3.5.7 7 1zm-6.6-1 .6-2.6q-3.8-1-7.5-.5l.3 2.7.2 2.7q3-.3 5.8.4zm-6.6-.4-.3-2.7q-3 .3-6 0l-.4 2.6-.3 2.7q3.6.4 7.2.1zm-6.7 0 .3-2.8a26 26 0 0 0-7.4.3l.5 2.6.5 2.7q3-.5 5.8-.2zm-6.6.1-.5-2.6q-3 .4-5.8.1l-.4 2.7-.3 2.7q3.8.4 7.5-.2zm-6.7.2.4-2.7q-3.7-.4-7.3 0l.3 2.7.3 2.7q3-.3 6 0zm-6.6 0-.3-2.7q-2.8.2-5.7-.4l-.6 2.7-.6 2.6q3.8.9 7.5.5zm-6.6-.4.6-2.7q-3.7-.8-7.3-.8V62q3 0 6 .6zm-6.7-.8v-2.7q-3 0-6-.6l-.6 2.6-.6 2.7q3.6.8 7.2.8zm-6.6-.7.6-2.6q-3.6-.7-7-1l-.2 2.7-.2 2.7q3 .3 6.3 1zm-6.6-1 .2-2.6a35 35 0 0 0-7.2.1l.3 2.7.4 2.7q3-.3 6-.1zm-6.7.2-.3-2.7-6.5.6.2 2.8.1 2.7 6.9-.7zm-6.6.7-.2-2.8q-3.5.3-7 1l.5 2.6.6 2.7q3.1-.6 6.2-.8zm-6.7.8-.5-2.7q-3 .7-6 .6l-.1 2.7-.1 2.7q3.6 0 7.3-.6zm-6.6.6V57h-6.8l.1 2.7.1 2.7h6.5zm-6.7 0V57q-3 0-5.9-.7L119 59l-.7 2.6q3.7 1 7.4 1zM119 59l.7-2.6q-3.7-1.1-7.7-.6l.4 2.7.3 2.7q2.8-.3 5.6.4zm-6.6-.5-.4-2.7q-3 .5-6.2.3v2.7l-.2 2.7q3.6.2 7.1-.3zm-6.7.3.1-2.7L99 56v5.4l6.5.1zm-6.6-.1V56l-6.8.1.1 2.7.2 2.7H99zm-6.7.1v-2.7q-3.1.2-6.1-.4l-.5 2.7-.4 2.7q3.6.6 7.2.4zm-6.6-.4.5-2.7a50 50 0 0 1-6.3-1.4l-.8 2.6-.8 2.6q3.4 1 7 1.6zM79.1 57l.8-2.6a12 12 0 0 0-8.6.6l1.1 2.4 1.1 2.5q2.6-1 4.8-.3zm-6.7.4-1-2.4q-2.5 1-4.8.3l-.8 2.5-.9 2.6q4.5 1.5 8.6-.5zm-6.6.4.8-2.5q-3.9-1.4-8-.7l.6 2.7.4 2.7q2.7-.5 5.3.4zm-6.6-.5-.5-2.7q-3 .5-5.8.2l-.4 2.7-.3 2.7q3.8.4 7.4-.2zm-6.7.2.4-2.7a27 27 0 0 0-7.4 0l.4 2.8.4 2.7q3-.5 5.9-.1zm-6.6 0-.4-2.6q-2.5.3-5.2-.7l-1 2.5-1 2.5a15 15 0 0 0 8 1zm-6.7-.8 1-2.5a11 11 0 0 0-8.7.1l1.1 2.5 1.1 2.5q2.3-1 4.5 0zm-6.6.1-1-2.5a5 5 0 0 1-4.5 0L26 56.7l-1.2 2.5q4.5 2 8.9 0zm-6.6 0 1-2.5a15 15 0 0 0-8-1.2l.3 2.7.4 2.7a9 9 0 0 1 5.1.8zm-6.7-1L19 53q-3 .3-5.7-.3l-.6 2.6-.6 2.7q3.7.9 7.6.4zm-6.6-.4.6-2.6q-3.6-1-6.8-.5l.4 2.7.5 2.7q1.7-.3 4.7.4zM6.9 55l-.4-2.7h.1l-.2-.2-.3-.8-2.6.8-2.6.7Q1.4 55 3 56.4 5 58 7.4 57.6zm-3.4-3 2.6-.7q-.9-3-.6-5.6l-2.7-.3L.1 45a20 20 0 0 0 .8 7.7zm-.7-6.6 2.7.3.7-6.6-2.7-.3-2.7-.3L0 45zm.7-6.6 2.7.3.5-6.9H3.9L1.2 32q0 3-.4 6.4zm.4-6.7 2.8.1q0-3.3.3-6.5l-2.8-.2-2.7-.2-.3 6.8zm.3-6.6 2.8.2.1-6.9H1.7q0 3.3-.2 6.5zm.2-6.6h2.7q0-3.8-1-7.4l-2.6.7-2.6.7q.8 3 .8 6zM3.5 12l2.7-.7q-.7-2.7-.1-4l-2.6-.9L1 5.6Q-.1 8.9.9 12.8zm0-5.6 2.6 1 .7-2v.2a3 3 0 0 1-1.3 1q-.4.3-1.2.3V4.3l.1-2.7a3 3 0 0 0-2.6 1.8L1 5.6zm.9-2.2V7h.8l3.2-.8-.7-2.7L7.1.9l-3.3.7h.6zM44 40.5q-2.8 0-4.3-1.2-1.2-1-1.3-2.4 0-.6.5-1t1-.5q1 0 1.5 1 .6 1.3 2.7 1.4 1.8 0 3.6-.8 1.7-.8 1.8-1.7 0-1.4-1.1-1.8a11 11 0 0 0-3.2-.4q-1.8-.1-3.3-.8-2-1-1.8-2.6 0-2 2.2-3.7t4.9-1.7l2.5.6q2 .6 2 1.4-.1.5-.5 1-.4.3-1 .4l-1.6-.2-1.5-.3q-1.4 0-2.6.6-1.3.8-1.3 1.4 0 .4.4.7.3.3 1.1.4l2.7.2q2.4.2 3.8 1.4 1.4 1.3 1.4 3.5 0 2.8-3.2 4.1-2.4 1-5.5 1m17.7-8.9h-2v6.8q0 2.4-1.5 2.4-.6 0-1-.4t-.5-1l.1-2.2v-5.5l-2-.2q-1.5-.2-1.4-1.5a1.4 1.4 0 0 1 1.5-1.4l1.8.2v-2.2q-.1-.6.4-1 .4-.3 1-.3 1.6 0 1.6 2.6v1a8 8 0 0 1 2.7 0q.8.4.8 1.3 0 .6-.4 1t-1 .4m16.4-.5-2.4 7.5q-.3 1-1 2-.6.7-1.4.6-1.4 0-2-2.6-.4-.9-.7-3.6l-.3.6-2.2 4.8q-.4.6-1.3.7-.5 0-1-1t-1-2.3l-1-7.3q0-.6.5-1 .4-.3 1-.3 1.2 0 1.4 1.1l.2 1.5.5 4.2 2-5.3q.3-1.4 1.6-1.4 1.2 0 1.5 1.6a43 43 0 0 1 1 5.8l1.8-6.4q.3-1 1.3-1 .6.1 1.1.5t.4 1zm5.6 10q-2 0-3.4-1.3-1.5-1.5-1.5-4 0-2.4 1.3-4.2a5 5 0 0 1 4.6-2 4 4 0 0 1 3.3 1.7q1 1.5 1 3.8 0 2.5-1.3 4.2-1.6 2-4 1.9m.8-8.7q-1.4 0-2.1 1.1-.7 1-.7 2.4 0 1.2.7 2 .6.5 1.3.5 1 0 1.6-.6.9-.7 1-2 0-3.4-1.8-3.4m2.7-7.3-1.4 1.2q-.8 1-1.4 1.3a2 2 0 0 1-1.9 0 1 1 0 0 1-.4-.9q0-.3.5-.8l2.1-2.2q1-.8 1.8-.8.5 0 1 .4.3.3.3.8t-.6 1m12.5 8q0 1.8-1.5 1.7-1.3 0-1.3-1.4v-1.1q-2.4.3-3.5 2.4V40q0 .6-.5 1t-1 .4-1-.4-.4-1l.1-7 .1-2q0-.5.4-1 .3-.3 1-.3 1.2 0 1.4 1.2 1.8-1.3 4.2-1.3 2 0 2 2.9zm10.7-.2-2.2 2.7-2.3 3 2.4.1 1.2.2q.6 0 1 .4t.4 1-.4 1-1 .4q-.5 0-1.3-.2l-1.2-.2a24 24 0 0 0-5 .4q-.5 0-1-.3-.4-.4-.4-1t.7-1.2q2.7-2.2 5.6-6.5l-4.5-.2q-1.3-.3-1.3-1.5 0-.5.4-1 .4-.3 1-.3l1.6.1a18 18 0 0 0 3.8 0h2.2q1.3 0 1.3 1.1 0 1-1 2m16.8 9q-.8 0-2-.2V46q0 .6-.4 1t-1 .4q-.8 0-1.1-.4t-.4-1V31.8q0-.9.3-1.5.6-.7 1.3-.7.6 0 1 .4t.4 1a6 6 0 0 1 2.8-.7q2.6 0 3.6 2.2.8 1.5.7 4 0 2.4-1.3 3.9-1.5 1.6-3.9 1.5m.9-8.7q-.8 0-1.4.3-.7.3-1.4.9v4.4l2 .3a2 2 0 0 0 1.6-.7q.6-.7.6-2v-2q-.4-1.2-1.4-1.2m9.2 6.7q0 2-1.5 2-.7 0-1-.4-.6-.4-.5-1l.3-14.8q0-.6.4-1 .5-.3 1-.3.8 0 1.1.4t.4 1zm11.8 2.5q-.5 0-1.5-1.1l-1.8.7-1.2.2q-2.6 0-3.9-1.4t-1.2-4.2q0-2.5 2-4.3a6 6 0 0 1 4.6-1.8 6 6 0 0 1 2.3.7q1.5.6 1.6 1.6 0 .4-.3.6l-.2 1.1a18 18 0 0 0 .2 4.4l.8 2.2q0 .6-.4 1-.4.3-1 .3m-2.5-7.3.2-1.8-.7-.2q-1.5 0-2.5 1-1 1.2-1.1 2.7 0 1.4.4 2.1.6.8 1.6.8a4 4 0 0 0 2.3-.9zm13.8 7.5q-1.4 0-1.4-1.3l-.3-2.2a16 16 0 0 1 0-4.4v-.5q.1-1-.4-1-1 0-2 1.2-.8 1.1-1.5 2.8v1l-.1 1.8v1q0 .5-.4 1-.4.3-1 .3t-1-.4q-.5-.4-.5-1V39l.1-2.9.2-4.7q0-.6.4-1t1-.3q1.5 0 1.5 1.7 1.6-1.5 3.3-1.4 2 0 2.8 1.7.5 1.1.4 3.4v.7l.2 2.9.2 2q0 .7-.4 1t-1.1.4m20.1-9h-2v6.8q0 2.5-1.5 2.5-.7 0-1-.4-.5-.4-.5-1l.1-2.3v-5.5q-.8 0-2-.2-1.5-.2-1.4-1.4a1.4 1.4 0 0 1 1.5-1.4l1.8.2v-2.2q-.1-.7.4-1t1-.4q1.6 0 1.6 2.7v.9a8 8 0 0 1 2.7 0q.8.4.8 1.4 0 .6-.4 1t-1 .4m11.7 1.2q-.1 1.5-1.5 1.6-1.5 0-1.3-1.4v-1.1q-2.5.3-3.5 2.4l-.1 5.3q0 .6-.5 1-.3.4-1 .4t-1-.4q-.4-.4-.4-1l.2-7v-2q0-.5.4-1 .4-.3 1-.3 1.2 0 1.4 1.2 2-1.3 4.2-1.3 2.1 0 2.1 2.9zm6.7 8.2q-2.5 0-4-1.2A4 4 0 0 1 193 38q0-2.7 1.5-4.6a5 5 0 0 1 4.3-2 7 7 0 0 1 3 .7q1.5.8 1.6 2.5 0 1-1.4 2l-2.4 1.2-3.6 1.5q.5.6 1.2.8l1.7.4q1.4 0 2.4-.6l1.4-.5q1.1 0 1.1 1.1t-1.8 2a8 8 0 0 1-3.2.5m0-9q-1 0-1.8.6t-1.2 2l4.8-2.2q-.7-.4-1.9-.4m15.2 9.6q-1.2 0-1.4-1.3 0-1.1-.3-2.3a16 16 0 0 1 0-4.4V35q.2-.9-.4-1-1 0-1.9 1.2t-1.5 2.9l-.1 1v2.7q0 .5-.4 1-.5.3-1.1.3t-1-.4q-.5-.4-.4-1v-.9l-.1-1q0-.9.2-2.7l.1-4.8q0-.6.5-1 .4-.3 1-.3 1.4 0 1.5 1.7 1.5-1.5 3.3-1.4 2 0 2.7 1.7.6 1.2.5 3.4v.7l.1 2.9q.2 1.4.2 2.1 0 .6-.4 1t-1 .4m5.7-13.5q-.6 0-1.2-.5-.4-.4-.4-1t.5-1.2q.4-.4 1.2-.4.6 0 1.1.5t.5 1q0 .8-.5 1.2t-1.2.4m.8 7.8v4q0 .5-.4 1-.5.3-1.1.3t-1-.4-.4-1v-4l.1-2.3.1-2.4q0-.6.5-1 .4-.3 1-.3t1 .4q.5.4.5 1 0 .9-.2 2.4zm11 6q-1.2 0-1.4-1.3 0-1.2-.3-2.2a16 16 0 0 1 0-4.5v-.5q.1-.9-.4-1-1 0-1.9 1.2t-1.5 2.9l-.1 1v2.7q0 .5-.4 1-.5.3-1.1.3t-1-.4q-.5-.4-.4-1v-.9l-.1-1q0-.9.2-2.7l.1-4.8q0-.6.5-1 .3-.3 1-.3 1.4 0 1.5 1.7 1.5-1.5 3.3-1.4 2 0 2.7 1.7.6 1.2.5 3.4v.7l.1 2.9q.2 1.4.2 2.1 0 .6-.4 1t-1 .4m13-6.9q-.4 2.5-.6 5.3-.2 3.3-1.2 5-1.4 2-5 2-4.2-.2-4.1-1.8 0-.6.4-1 .3-.3 1-.3l1.3.2 1.6.2q1.6 0 2.4-.9t.9-3a4 4 0 0 1-2.8 1 4.6 4.6 0 0 1-4.6-5q0-2.7 1.8-4.6a7 7 0 0 1 5-1.7q1 0 1.7.3.8.2 1.2.7 1.3.2 1.3 1.6zm-4-2.2q-1.9 0-2.9 1.1t-1 2.8q0 1.2.5 2 .5.5 1.5.6.8 0 1.7-1 1-1 1-1.9l.5-3.1-.7-.4zm10 9.3q-2 0-3.4-1.4-1.5-1.6-1.5-4t1.3-4.2a5 5 0 0 1 4.6-2 4 4 0 0 1 3.3 1.7q1.2 1.5 1 3.8 0 2.4-1.3 4.2-1.5 2-4 1.9m.8-8.9q-1.4 0-2 1.2-.8 1-.8 2.3t.7 2 1.3.6q1 0 1.7-.6.8-.8.8-2 .3-3.4-1.7-3.5m20-.8-2.3 7.6q-.3.9-1.1 2-.5.6-1.4.6-1.4-.1-2-2.6l-.7-3.7-.2.6-2.2 4.8q-.5.7-1.4.7-.4 0-1-.9t-.9-2.4l-1-7.3q0-.5.4-1 .5-.3 1-.3 1.2 0 1.5 1.2l.2 1.4.5 4.2 1.9-5.3q.5-1.5 1.7-1.4 1.1 0 1.5 1.6a43 43 0 0 1 1 5.9l1.8-6.5q.2-.9 1.3-.9.6 0 1 .4t.5 1zm12 .6-6 12.1-.8 2q-.4 1-1.3 1-.7 0-1.1-.5t-.4-1q0-1 2.3-5.8l-4.4-8.6q0-.6.5-1t1-.4q.8 0 1.2.5 1.4 2 3.4 6.1l3-5.7q.4-.8 1.2-.8.6 0 1 .4t.5 1q0 .4-.2.7m2.8 5.9q-.6 0-1-.4t-.4-1v-2.4l.2-8.8q0-.6.4-1 .4-.3 1-.3t1 .4.4 1l-.2 11.2q0 .6-.4 1-.4.3-1 .3m-.1 3.9q-.7 0-1.2-.7a2 2 0 0 1-.5-1.2q0-.6.5-1 .4-.3 1-.3t1.1.7q.5.6.5 1.2 0 .4-.4.9t-1 .4"/></svg>