<svg xmlns="http://www.w3.org/2000/svg" width="335" height="67" fill="none" viewBox="0 0 335 67"><path fill="#eee" d="M3.8 21.5c0-9.8 7.9-17.6 17.6-17.6h292c9.7 0 17.6 7.8 17.6 17.6v23.8c0 9.8-7.9 17.6-17.6 17.6h-292c-9.7 0-17.6-7.8-17.6-17.6z"/><path fill="#000" d="m37.5.4 1.7.5 1.7.5q1.4.3 2.7.4h8.7L54 2h3l1.7-.3 1.7-.2q1.8-.2 3.8-.2h1.7l1.7.2 3.5.1 1.7.1h1.7l3.4.3h1.7l1.7.2h3l1.8-.2 1.7-.1a20 20 0 0 1 4 0l1.6.2 1.7.2h2.7l1.7-.3 5.1-.9 1.7-.3 1.7-.3q2.4-.4 4.7.3l1.7.6 1.7.5q.9.3 1.8 0l1.7-.5 1.7-.5q2.3-.8 4.5-.5l1.7.2 1.7.1q1.5.2 3 .1h1.8l1.6-.2h3.5l1.8-.1h1.7q2.1 0 4.1.5l1.8.5 1.7.4q1 .4 2 .1l1.8-.4 1.7-.3q2.3-.6 4.5-.1l1.7.3 1.7.4q1.4.2 2.6 0l1.7-.1 1.8-.2 3.3-.4 1.7-.2 1.7-.2q2.2-.3 4.3.2l1.7.3 1.7.3q1.5.3 2.9.3h3.4l3.2-.2 1.7-.2 1.7-.2 3.7-.1h3.4q1.9 0 3.8.4l1.7.3 1.7.3a6 6 0 0 0 2.4-.1l1.7-.4 1.7-.4 3.8-.7 1.7-.1 1.7-.2h3.8l3.4.2q2 0 4 .6l1.7.5 1.7.5q1.3.3 2.5.2l1.7-.1 1.7-.2q1.5 0 3.2-.4l1.7-.3 1.7-.3q2.1-.3 4.1-.1l1.7.1 1.7.2 2.7-.1 1.7-.3 1.7-.3q2.4-.4 4.6.2l1.7.4 1.7.5q1 .3 2 0l1.8-.4 1.7-.5q2.2-.6 4.6-.1l1.7.3 1.7.3q1.6.4 3.1.5l1.7.2 1.7.1h4.7l1.7-.2 3.7-.2h3.4q1.5 0 2.9-.2l1.7-.3 1.8-.4a7 7 0 0 1 5 1l1.6.8 1.5 1q1.7 1 3.1 2.2l1.2 1 1.2 1.2 2.5 2.4 1.2 1.3 1.2 1.2a8 8 0 0 1 2.2 4.4l.3 1.7.2 1.8q.3 1.8.3 3.8v3.4q0 1.8-.2 3.6l-.1 1.8-.2 1.7-.2 3.2v3.4l-.5 3.9-.4 1.6-.3 1.6-.7 3.4-.4 1.7-.3 1.7a7 7 0 0 1-2.8 4.4l-2.9 2a9 9 0 0 1-4.4 1.7l-1.7.2-1.7.1-3.3.4-1.7.1-1.6.2h-5.5l-1.7-.2-2.9.1-1.7.3-1.7.2q-2 .3-3.9.2L292 65h-6.5l-1.8.2q-1.5 0-3 .4l-1.7.4-1.6.3q-2.1.5-4.1.4H263a13 13 0 0 1-4.3-.7l-1.7-.6-1.7-.5a4 4 0 0 0-2.1-.2l-1.7.3-1.7.4q-2.3.5-4.5 0l-1.7-.3-1.7-.4q-1.3-.2-2.7-.1l-1.7.1-1.7.2-3.4.2-1.7.1-1.8.1-3 .4-1.8.3-1.7.3q-2 .4-3.9.4h-8.4l-1.7.1-3.8-.1-1.7-.2-1.7-.2-3.3-.2h-1.7l-1.7-.1q-1.5-.1-3.2 0H188l-3.4.1H183l-1.7.1-3.3.2-1.7.2-1.7.1q-2.3.2-4.4-.4l-1.7-.5-1.7-.4a7 7 0 0 0-2.4-.3l-1.8.2-1.7.1q-2 .1-4.1-.2l-1.7-.4-1.7-.3-2.8-.2h-1.7l-1.7.2h-3.7l-1.7-.1-1.7-.1-2.9.1-1.7.3-1.7.3q-2 .3-4 .2L128 65l-1.7-.1-3.3-.2h-6.5l-1.7.2-1.7.1-3.1.5-1.7.4-1.7.4q-2.3.5-4.4.2l-1.7-.2-1.7-.3q-1.5-.2-3-.1H85.5a16 16 0 0 1-4-.5l-1.8-.4-1.7-.4q-1-.3-2 0l-3.4 1q-2 .6-4 .6h-1.8l-1.7.1q-2 0-4-.3l-3.4-.7q-1.2-.3-2.4 0l-1.7.3-1.7.3q-2.1.3-4.2.1L46 66l-1.7-.2-3.7-.6L39 65l-1.7-.4H35l-1.7.5-1.7.5q-2.2.5-4.3.4l-1.7-.2h-1.7q-1.6-.2-3.3-.2H17q-3-.2-4.8-2.3L11 62l-1.2-1.3-2.2-1.9-1.5-1-1.5-1a6 6 0 0 1-2.5-5V50l.1-1.8.1-3.3v-3.3q0-1.3-.6-2.6l-.6-1.7-.6-1.7Q-.2 33.4.1 31l.2-1.7.2-1.7q.1-2 .6-3.7l.4-1.7.4-1.7.4-3 .1-1.7.2-1.8a8 8 0 0 1 1.9-4.6l1-1.3 1.3-1.4Q8.2 5.1 10.2 4l1.6-.9 1.5-.8Q15.4.9 18 1.3l1.3.3.8.2.3-.2 1-.3L23 1l1.7-.1 1.7-.1 3.2-.4 1.7-.2L33 .1q2.3-.2 4.5.3m-3.8 5-1.7.2-1.7.2-3.6.3-1.7.2h-1.7v.2a3 3 0 0 1-2.3.8L19.6 7l-2.7-.6q0 0-1 .3l-1.6.9-1.6.8-2 1.6-1 1.4-1.2 1.3q-.6.7-.7 1.6L7.6 18q-.2 2-.6 3.8l-.4 1.7-.3 1.7-.6 3-.2 1.8-.2 1.7q0 1 .3 2.2l.6 1.7.6 1.7q.8 2.1.8 4.2v1.7l.1 1.7v3.7l-.2 1.7v2.1l.2.1 1.4 1 1.5 1q1.8 1.2 3.1 2.7l2.4 2.5q.4.5 1 .5h3.6l3.6.3H26l1.7.2 2.5-.3L32 60l1.6-.5q2.4-.6 4.7 0l1.7.3 1.7.3 3.1.5 1.7.2 1.7.2 2.7-.1 1.7-.3 1.7-.3q2.3-.4 4.4 0l1.7.4 1.8.3q1.3.3 2.8.3l1.7-.1h1.7q1.3 0 2.7-.5l1.7-.5 1.7-.5a9 9 0 0 1 4.9 0l1.6.4 1.8.4q1.4.4 2.7.4h3.4l3.4-.1h3.4q2 0 3.8.2l1.7.2 1.7.2q1.3.2 2.5 0l1.7-.5 1.7-.3q1.9-.4 3.8-.6l1.7-.2 1.7-.1 3.7-.2h1.7l1.7.1 3.5.2h1.7l1.7.2 2.9-.1 1.7-.3 1.7-.3q2-.3 4-.2h1.7l1.7.2h3.1l1.7-.1h1.7q2.1-.2 4.1.2l1.7.3 1.7.4q1.4.3 2.7.1l3.4-.2q2.3-.2 4.3.3l1.8.5 1.7.5q1.2.3 2.5.2l1.7-.1 1.7-.1 3.5-.2 1.7-.1h1.7l3.4-.2h8.8l1.7.1q1.8 0 3.5.3l1.7.1 1.7.2 3.2.1h3.4l3.4-.1h3.4q1.5 0 3-.3l1.7-.3 1.7-.3 3.7-.5h1.7l1.7-.2 3.4-.2 1.7-.1 1.7-.2q2.1-.1 4.1.2l1.7.4 1.8.3q1.2.2 2.3 0l1.8-.3 1.7-.4q2.4-.5 4.7.3l1.7.6 1.7.6q1.4.4 2.6.4h10.3q1.5 0 2.8-.2l1.7-.4 1.7-.4q2-.5 3.9-.5l1.6-.1 1.8-.1h10.1l1.6-.3 1.7-.2 4-.2 1.6.2h4.7l1.6-.2 1.7-.1 3.3-.3 1.7-.2 1.7-.2q.9 0 1.8-.7l1.4-1 1.5-1q.6-.5.7-1.1l.3-1.8.4-1.7.7-3.4.7-3.2.3-3v-1.6l.1-1.7.2-3.6.2-1.7.1-1.7.2-3.2v-3.4q0-1.5-.2-3l-.3-1.8-.2-1.7q-.2-.9-.8-1.5l-2.4-2.5-2.2-2.2-2.4-2.1-2.3-1.7-1.5-1-1.6-.8q-.6-.5-1.3-.3l-1.8.4-1.7.3q-2 .4-4 .4H300l-1.8.2-1.7.1h-3.8l-1.7-.2-1.7-.1q-2-.1-3.7-.6l-1.8-.3-1.6-.3q-1.1-.3-2.3 0l-1.7.5-1.7.4a9 9 0 0 1-4.8 0l-1.7-.5-1.7-.4a5 5 0 0 0-2.2-.1l-1.7.3-1.7.3a15 15 0 0 1-4.2.2l-1.7-.2L255 6l-2.7.1-1.7.3-1.7.3-3.6.5-1.8.2-1.7.1q-2.2.2-4.3-.4l-1.7-.5-1.7-.5q-1.5-.3-3-.4l-1.6-.2h-4.7l-1.7.2-1.7.1-3 .5-1.8.4-1.7.4q-2.3.6-4.4.2l-1.8-.3-1.6-.3-3-.3h-3.5l-3.1.1-1.7.2-1.7.1-3.7.2H187q-2 0-4-.3l-1.6-.3-1.7-.3q-1.4-.3-2.6-.1l-1.7.2-1.8.2-3.4.4-3.4.3q-2.1.3-4.2-.1l-1.7-.4-1.7-.3q-1.2-.3-2.4 0l-1.7.4-1.7.4q-2.3.5-4.7-.1l-1.7-.5-1.7-.5-2.6-.4H141l-1.7.1-3.4.1-1.7.1-1.7.1-3.8-.1-1.7-.2-1.7-.2q-1.2 0-2.3.3l-1.8.6-1.7.5a8 8 0 0 1-5 0l-1.7-.6-1.7-.5q-1.2-.4-2.1-.2l-1.8.3-1.7.3-3.4.6-1.7.3-1.7.3q-2.1.3-4.2 0l-1.7-.1-1.7-.2h-2.9l-1.7.1-1.7.1q-1.9.3-3.8 0h-1.7l-1.7-.1-3.4-.2-1.7-.1h-1.7l-3.4-.2-1.7-.1H61l-1.7.3-1.7.2q-2 .2-3.9.1H52L50.3 7h-6.6q-2.2 0-4.2-.6L37.8 6 36 5.5q-1.2-.3-2.4-.2"/><path fill="#000" d="M141.6 43.5q-.7 0-1.2-.5a20 20 0 0 0-8-4.7v3.9q.1.6-.4 1.2-.4.4-1.2.4t-1.2-.4q-.5-.6-.5-1.2V27q0-.8.5-1.4.6-.8 1.7-.7l3 .2q1.7.2 3 .8 5 2.6 5 6.4 0 1.6-1 2.8t-3.3 2a18 18 0 0 1 4.8 3.7 1.6 1.6 0 0 1 0 2.3q-.6.4-1.2.4m-7.8-15.1-1.4-.1v6.4a13 13 0 0 0 5-.7l1-.9q.6-.5.6-.8 0-1.3-1.7-2.6a7 7 0 0 0-3.5-1.3M150 44q-2.3 0-3.8-1.5a6 6 0 0 1-1.9-4.5q0-2.7 1.5-4.7a6 6 0 0 1 5-2.5q2.5 0 4 2A7 7 0 0 1 156 37q0 2.9-1.5 4.8a5 5 0 0 1-4.5 2.2m.7-10q-1.4 0-2.3 1.3a5 5 0 0 0-.7 2.7q0 1.5.8 2.2.7.6 1.5.6 1 0 1.8-.7 1-.8 1-2.2 0-4-2-4m17.7 0-2.5 3.2-2.5 3.4 2.6.1 1.4.2q.8 0 1.2.4.6.4.5 1.2 0 .6-.5 1.1t-1.2.5L166 44l-1.4-.2a27 27 0 0 0-5.5.5q-.8 0-1.2-.3-.5-.4-.5-1 0-.8.8-1.5 3-2.6 6.2-7.4a30 30 0 0 1-5.1-.3q-1.5-.2-1.5-1.5 0-.7.4-1.2t1.2-.4l1.8.1a20 20 0 0 0 4.3 0h2.4q1.5 0 1.5 1.1t-1 2.3m18.3-1.3q-1.2 4.7-2.5 8.6-.3 1-1.2 2.2-.6.8-1.5.8-1.5 0-2.4-3l-.8-4-.3.6-2.4 5.5q-.5.8-1.5.8-.6 0-1.2-1t-1-2.7l-1.4-8.2q0-.7.5-1.1t1.2-.5q1.3 0 1.6 1.3l.3 1.7.7 4.8 2-6.1q.5-1.6 1.9-1.6t1.7 1.7a48 48 0 0 1 1.3 6.6l1.9-7.3q.2-1 1.5-1 .6 0 1.2.4t.5 1.1zm4.3-3.9a2 2 0 0 1-1.4-.5q-.5-.6-.5-1.3t.5-1.2a2 2 0 0 1 1.4-.6q.8 0 1.3.6.6.4.6 1.2t-.6 1.3q-.6.5-1.3.5m1 8.8v4.5q.1.6-.4 1.1t-1.2.5q-.7 0-1.2-.5t-.4-1.1l-.1-4.5v-2.6q.2-1.6.2-2.7 0-.7.5-1.2t1.2-.4 1.2.4.4 1.2V35q-.2 1.6-.2 2.6m12.7 6.6q-1.5 0-1.7-1.5l-.3-2.5a19 19 0 0 1-.1-5v-.6q0-1-.5-1-1.1 0-2.2 1.3-1 1.3-1.7 3.3v4.1q0 .7-.5 1.1-.5.6-1.2.5t-1.1-.5-.5-1v-1.1l-.2-1 .2-3.2v-5.4q0-.7.6-1.1t1.2-.5q1.5 0 1.7 2a5 5 0 0 1 3.7-1.7q2.3 0 3.1 1.9.6 1.2.6 3.8v.9l.3 3.2.2 2.4q0 .6-.5 1.1t-1.1.5m-.8-18.5q-.7.3-1.5 1.4-1 1.2-1.6 1.5a2 2 0 0 1-2.2 0q-.4-.4-.4-1 0-.4.5-1l2.4-2.4q1-1 2-1 .5 0 1 .4t.5 1q0 .7-.7 1"/></svg>