<svg xmlns="http://www.w3.org/2000/svg" width="177" height="307" fill="none"><g clip-path="url(#a)"><g clip-path="url(#b)"><path fill="#000" d="M117.4 32.2c.4-1.8.5-3.6.3-5.4-.2-1.8-.8-3.4-1.7-5l-.5-1.2a29 29 0 0 0-2.8-7.4 24 24 0 0 0-3.3-5.6c-1-1.4-2.3-2.5-3.8-3.3-.3-.2-.7-.3-1.1-.3a9 9 0 0 1-3.8-1l-.6-.2c-.9-.1-1.7 0-2.5.4a1 1 0 0 1-.9 0l-2.4-.9-.6.1c-1 .5-2.2.5-3.2 0l-.3-.4A3 3 0 0 0 88.4.4a9.7 9.7 0 0 0-5.2-.1A64.7 64.7 0 0 0 76.5 2a29.6 29.6 0 0 0-4.7 1 6.5 6.5 0 0 0-3.5 3.5l-1.3 3c-.6 1.6-1 3.3-1.3 5a47.3 47.3 0 0 1-1.3 6.4l-.9 5.1a607.8 607.8 0 0 1-1 7l-.6 2.7c-.3 1.8-.5 3.6-.4 5.4.2 1.9.2 3.7.2 5.6 0 1.2.5 2 1.5 2.5v.1l.4.3.3.2.4 2a116.3 116.3 0 0 0 2 11c-.3 0-.5.2-.7.3-2 1-3.9 2-6 2.6l-1.6.7c-1.3.6-2.6 1.1-4 1.5a19.4 19.4 0 0 0-3.3 1.4c-2 1-3.7 2.3-5 4a15.3 15.3 0 0 0-2.9 5.8 55.3 55.3 0 0 0-1.5 11.2 57 57 0 0 0 .2 5 130 130 0 0 0-.1 6.5 412 412 0 0 1-1 13c-.4 2.2-.6 4.3-.8 6.5a504.2 504.2 0 0 1-.6 10.3c0 2 0 3.9.2 5.9a154.7 154.7 0 0 1 .4 9.8 88.1 88.1 0 0 0 1.6 15.1 13.7 13.7 0 0 0 .2 1.1l.1 1 .6 4.7.7 4.6.2 1.7c0 2 .3 4 .5 5.9a29.9 29.9 0 0 0 2.3 8.9c.4.9.5 1.8.6 2.8v.7l-.1 5.3a33.5 33.5 0 0 0 1.4 9.9c.6 2.2 1.6 4.3 3.1 6l.6.8 1 1.1v.2a1 1 0 0 0 0 .4 15.8 15.8 0 0 0 .1.9v.2l.1.3v.9c.6 3.3 1 6.7 1.5 10a60.8 60.8 0 0 0 4 18l.1.1v.1h.2v.1h.2l.2.2h.2a6 6 0 0 1 2-.3c2.2.2 4.4.1 6.7 0 2-.2 4.1 0 6.4.5l.9-.1c1.3-.3 2.6-.4 4-.3a39.1 39.1 0 0 1 4.7.4h.2l.2-.2a3 3 0 0 0 .4-.2l.2-.2v-.8a1.3 1.3 0 0 0-.2-.3v-.7l.3-3.3-.1-3.3.2-1.7a201.7 201.7 0 0 1 2.8-25.9l.4-.9.4-1.1.2-1c.2 1 .4 2 .8 3a129 129 0 0 1 4.7 19l1.4 6.2a54 54 0 0 1 1.5 10.7l.4.3h2.2a188 188 0 0 0 16.7 0l1.3.3h1.4l.2.1a4.5 4.5 0 0 0 1.2.2h1.1l.2-.1a1 1 0 0 0 .2-.2 4.5 4.5 0 0 0 .2-.3.8.8 0 0 0 .2-.2 427.8 427.8 0 0 0 2.8-30.7l-.2-1V215c1-.7 1.8-1.4 2.6-2.3l2.1-3c.8-1 1.3-2.2 1.6-3.6.2-1.3.3-2.6.3-4 0-2.3.1-4.7.5-7a15.8 15.8 0 0 0 .2-2.8 95.3 95.3 0 0 1 3.2-21 89 89 0 0 0 1.7-13 1092.2 1092.2 0 0 1 1.1-9.8c.3-2.2.4-4.4.4-6.5l.2-5a60.2 60.2 0 0 0-.5-11.3c0-2.2 0-4.3-.2-6.5s-.3-4.3-.3-6.5a27 27 0 0 0-.5-4l-.9-5.6c.3-.4.4-.9.4-1.5v-1a70.5 70.5 0 0 0 .1-9.4 64.9 64.9 0 0 0-.8-9.4 22.6 22.6 0 0 0-2.6-7.9 17 17 0 0 0-5-4.7c-.9-.5-1.9-1-2.8-1.3-.7-.3-1.4-.5-2-.5a16 16 0 0 1-7.1-2.4 28.2 28.2 0 0 0-1.2-.7c0-.8 0-1.7.2-2.5a46.5 46.5 0 0 0 1-6.1c.2-1.4.2-2.8.2-4.3a171.5 171.5 0 0 0-.4-8.5v-2.7a282.8 282.8 0 0 1 .9-8Zm-11 27.6Zm18 148.6Zm-49.1-41c1.8.4 3.6 1 5.3 1.5l3 .6c1.5 0 2.9.2 4.3.5 2.2.4 4.4.4 6.6.1a114.7 114.7 0 0 0 14.4-3l4-1.5a23 23 0 0 0 6-3l.3.6.2.7a46.3 46.3 0 0 0 3.4 9.5l1.9 6.2v2.5a25.8 25.8 0 0 1-1 7c-.6.5-1 1.1-1.2 1.9-.5 1.2-1 2.3-1.7 3.3a27.5 27.5 0 0 0-2.5 4.4 43 43 0 0 1-2.9 6.6c-.7 1.5-1.1 3.2-1 4.8 0 .3 0 .5.2.6.8.4 1.6.5 2.4.2l.6-.3a7.5 7.5 0 0 0 2.1-4.3l.3-.4.5-.8.5-.7a8.2 8.2 0 0 1 .8 0h.5v.1h.1l.2.7a30.5 30.5 0 0 1 0 3v.1l-.2 1.4c0 .3-.1.6-.4.8-.9.9-2 1.5-3.2 1.9l-1.6.4c-1.3.2-2.1 1-2.5 2.1l.1.4c1 1.1 2.2 1.6 3.7 1.4h.6a30 30 0 0 0 4.2-1l.1 1c0 .5 0 .8.2 1.2a23987.3 23987.3 0 0 0-1.8 19.3l-1 9.8c-.8 0-1.6 0-2.5-.2a46 46 0 0 0-5.1 0c-2.5 0-5 0-7.4-.2h-7.2V244c-.4-3.5-1-7-2.1-10.3a67.2 67.2 0 0 0-1.6-8.3 458.4 458.4 0 0 0-4.7-18.3v-.2l-.1-.1-.1-.1-.2-.1v-.5a7.2 7.2 0 0 0 0-.2l-.2-.2-.1-.2-.3-.1h-.4a.5.5 0 0 0-.2 0l-.1.1-.2.2v.2c-.2.1-.2.3-.3.5l-.4.8a9.4 9.4 0 0 0-.8 2.7l-.2.3-.4 1a8 8 0 0 0-.2 1.4c-.7 1.6-1 3.2-1.2 4.9a1372.4 1372.4 0 0 0-1.5 21.3c-.1 2.7-.3 5.4-.6 8a19.6 19.6 0 0 0-5-.2c-1.5.2-2.9.2-4.3 0-2.5-.3-5-.4-7.5-.2h-2c-1.6-.3-3-.2-4.5.2l-1-3.6a128 128 0 0 1-2.9-14.3 507.1 507.1 0 0 1-1.2-10.4 5.8 5.8 0 0 0 3 .5 45 45 0 0 0 4.4-.8c1.2-.4 1.8-1.4 1.6-2.8 0-.2 0-.3-.2-.5-.8-1-1.8-1.1-3-.4H60l-.3.2H59.1c-.3 0-.6 0-.9-.2a9 9 0 0 0-.7-.2 5.8 5.8 0 0 1-1.9-2.5l-.6-2.4c-.3-1.7 0-3.3.8-4.8l.1-.1h.1v-.1l.1-.1h.1a41.7 41.7 0 0 1 2 3.4c.2 1 .6 2 1 3v-.1c.2.5.5 1 .9 1.4.6.7 1.3 1 2.2.7.8-.2 1.1-.6 1-1.4a40.5 40.5 0 0 0-2.4-10l-.7-3a16.2 16.2 0 0 0-3.5-7 12.3 12.3 0 0 1-2.8-5.7l.1-.5-.1-.4v-.2l.2-1.1a961.9 961.9 0 0 1 3.6-15.6c.6-1.5 1-3 1.2-4.6h.2l1.3.7a21.4 21.4 0 0 0 6.3 2.4 186.2 186.2 0 0 0 8.6 1.3ZM57 106.2a332.5 332.5 0 0 0 2.1 10.4 9 9 0 0 1 .7 3.7l.1.6a7.8 7.8 0 0 0 .4 2 35.2 35.2 0 0 0 1.2 3.9l1 3v-.1l.3 3.2.5 6.4c.2 1.6.2 3.2 0 4.9a55.3 55.3 0 0 1-1.4 8.3 12 12 0 0 1-1.7 4c-.9 1.4-1.5 2.8-1.9 4.3l-.1.1a3 3 0 0 0-.5.8 2 2 0 0 0-.4 1 10.8 10.8 0 0 1-.6 2.6c-.6 1.5-1 3.1-1.4 4.7a651 651 0 0 1-2 8.7 227.7 227.7 0 0 1 .8-31.5 145.8 145.8 0 0 1 1.2-13c.3-2.1.5-4.3.5-6.4.2-.7.3-1.4.3-2.2-.1-2.2 0-4.3.2-6.5a171.4 171.4 0 0 0 .7-12.9Zm65.4-.9.1-.4v.5c0 2.2 0 4.4-.2 6.5-.2 2.2-.1 4.4.2 6.6l.2 3.2a102.7 102.7 0 0 1 0 10l.5 6.5a102.3 102.3 0 0 1 .3 11.3 527.4 527.4 0 0 0 1.2 13 78.8 78.8 0 0 1 .2 12l-1.6-4.2c-.6-1.5-1.2-3-1.6-4.7a18 18 0 0 0-.6-2l-.4-1.5c-.2-.6-.5-1.1-1-1.4l-.9-1.7-.3-.6c-.7-1.7-1.2-3.5-1.5-5.3l-1.1-6.4c-.5-2.1-.7-4.3-.7-6.5a65.3 65.3 0 0 1 2.1-14.8l.1-.4a52 52 0 0 0 .7-1.4l.3-.6c.2-1.4.5-2.8 1-4.1a274.4 274.4 0 0 0 1.8-7 97 97 0 0 1 1.2-6.6Zm-12 17.3 1.6.4c1.3.3 2.6.8 3.8 1.5-.6 1.6-1 3.3-1.3 5a76.7 76.7 0 0 0-.9 13c.2 2 .5 4.2 1 6.3l1 6.5a12.5 12.5 0 0 0 2.4 5.8c-.2 0-.3.2-.5.4l-.3.1-.3.3c-.2 0-.3.2-.4.3a11.2 11.2 0 0 0-2.3 1 37 37 0 0 1-6.7 2.6c-1 .4-1.8.6-2.7.7l-3.3.7a36 36 0 0 1-15.3.9c-2.1-.1-4.2-.5-6.1-1.1a76 76 0 0 0-11.1-2 19 19 0 0 0-2.6-.7l-1.6-.5-4.9-2.3.2-.7c0-.4.2-.7.4-1a82.9 82.9 0 0 0 3-6.5 42.4 42.4 0 0 0 1.2-17.1v-.2c-.2-1.2-.3-2.5-.3-3.7 0-1.4-.3-2.8-.8-4.3a157 157 0 0 0-1.3-4 4.3 4.3 0 0 0 1.3-.4c.8-.4 1.7-.6 2.7-.6.7 0 1.3 0 2-.3a2 2 0 0 1 1 0h1.2a49.9 49.9 0 0 0 5.7-.3h4c1 .1 2 0 3-.3l2-.4 4-.2c1.3 0 2.7 0 4-.2h3.5a112 112 0 0 1 13.7 1.3ZM43.2 86c.3-2 .6-4 1.1-6a13.2 13.2 0 0 1 4.3-7.1 21.4 21.4 0 0 1 3.9-2.5c1.4-.4 2.8-1 4.2-1.6l2.3-1c1.8-.5 3.5-1.3 5.3-2.1a343.5 343.5 0 0 1 4.9-2 255.7 255.7 0 0 0-3.6 15l-.2.3-1.7 2.7A55.6 55.6 0 0 0 58.4 93c-.5 1.1-1.1 2.1-1.9 3l-.2.2c-.3 0-.6.1-.7.4a117 117 0 0 1-.3 11.3 1992.3 1992.3 0 0 1-1.5 24.8 262.9 262.9 0 0 0-1.3 13l-.4 6.6-.3 6.4a253.6 253.6 0 0 0 .3 26 15.8 15.8 0 0 0 2.2 5.8 27 27 0 0 1 2.7 3.8c.6 1 1 2.2 1.3 3.4.4 1.7.8 3.3 1.4 5a44.2 44.2 0 0 1 2 8.2 4.4 4.4 0 0 1-.2 0l-.2-.3a18.7 18.7 0 0 1-.5-.7 23.5 23.5 0 0 1-.9-2.3c-.5-1.5-1.3-3-2.3-4.4-.8-1.1-1.7-1.2-2.6-.3-1 1-1.6 2.2-1.7 3.7v2c0 2.4.8 4.4 2.3 6l.9.8a4.3 4.3 0 0 0 4.7.2h.5V216a4.7 4.7 0 0 1-.3.5 3 3 0 0 0-1 .1 15 15 0 0 1-3.4.6c-1.1.1-2.2-.2-3-.8l-.4-.4a85.9 85.9 0 0 0-1.6-2c-.6-.7-1-1.4-1.4-2.1-.6-1.4-1.2-2.8-1.6-4.3a32.2 32.2 0 0 1-1-6v-8.8c-.3-2.2-1-4.3-2-6.3l-.3-2a50.7 50.7 0 0 1-1.3-10.6v-.1a37 37 0 0 0-.1-.7l-.3-2a16262 16262 0 0 1-2.4-19.8 160.3 160.3 0 0 1-.8-15.2 250.6 250.6 0 0 1 0-8.3c.1-.8.3-1.6.3-2.5 0-2.4.2-4.8.5-7.2a131 131 0 0 0 1.5-25.6c-.3-2.1-.3-4.3 0-6.4Zm79.5-17.3c.4 0 .8.2 1.1.3l2 .7 1.9.6.4.3a136.4 136.4 0 0 1 2.2 1.8c.9.8 1.6 1.7 2.2 2.8a28.9 28.9 0 0 1 1.6 4.6l.2 1 .1.7c.5 2 .8 4.2.8 6.4a186.8 186.8 0 0 0 .2 8.2 98.5 98.5 0 0 0-.4 5.8c0 2.2.3 4.4.7 6.5.4 2.2.6 4.3.6 6.5a124.8 124.8 0 0 0 .3 8.1 36.7 36.7 0 0 0 .5 6.9 66.3 66.3 0 0 1 0 7.8 81.5 81.5 0 0 1-.5 11.3 92 92 0 0 1-.7 6.4 191.3 191.3 0 0 0-1.5 12.2v-.1a285 285 0 0 0-1.8 8.7c-.5 2.1-1 4.2-1.1 6.4l-.7 6.4v2.2a1.7 1.7 0 0 0-.1.7v.6a59.3 59.3 0 0 0-.7 4.9 137.2 137.2 0 0 0-.4 8.6c-.8 2-1.8 3.9-3.3 5.5-.8.9-1.6 1.6-2.6 2a11.6 11.6 0 0 1-7 1.3l3-1c.9-.3 1.7-.7 2.4-1.2 1.5-1 2.3-2.4 2.2-4.2.2-1.2.2-2.4 0-3.5 0-.4-.2-.8-.5-1.1-.6-1-1.4-1.3-2.5-1.2a2 2 0 0 0-.8.2 4.3 4.3 0 0 0-2 2.6c-.5 1.3-1 2.6-1.7 3.7a12.2 12.2 0 0 0-.8.2v-.4c.2-1 .5-1.8.9-2.7l1-2h-.1v.2a6 6 0 0 0 .3-.8l.1-.3v-.1l.4-.8c.7-2 1.6-4 2.8-6a56.2 56.2 0 0 0 3.7-6.9c.7-1.5 1-3.2 1.1-5a304.5 304.5 0 0 0 0-22.7 389.6 389.6 0 0 1-1.6-26 131.2 131.2 0 0 1-.3-8.9v-2.5c0-2 0-4.2-.2-6.2-.3-2.3-.3-4.5 0-6.8l.2-6.6.1-6.3c0-.8 0-1.6-.2-2.3 0-.2-.2-.4-.4-.4-.9-.2-1.2.2-1 1v1.3c-.4.2-.6.5-.7 1a66.4 66.4 0 0 0-.2-.1v-.3a64.7 64.7 0 0 0-3.2-7.8l-.2-.7c-.2-.8-.6-1.7-1-2.5l-1.2-3-.3-.5-1-2c-.3-.7-.5-1.4-.6-2.2h-.1v-.2h-.1a7 7 0 0 0-.5-1.4v-.1a22.2 22.2 0 0 0-1.4-6.2 501.8 501.8 0 0 1-2.4-8.5l.6.3a81.9 81.9 0 0 1 7.4 3.5c1.5.7 3.1 1.2 4.8 1.3ZM116 88.4l1.1 2.8 3.1 7.7.1.4a71.9 71.9 0 0 1 1 2.4l.2.4a45.4 45.4 0 0 1-.7 2.8 33 33 0 0 0-1.2 6c-.2 1.4-.5 2.8-.9 4.1l-1.2 4c-.3 1.1-.6 2.3-.7 3.5a1 1 0 0 0-.4.3v.1l-.8-.5-2-.7a46.4 46.4 0 0 0-11.8-1.9l-4-.2h-1.4a108.8 108.8 0 0 0-6.5.2 47.4 47.4 0 0 0-5.8.4c-1.1.4-2.2.5-3.4.5a35.6 35.6 0 0 0-6.2 0l-1 .1-2 .2c-.7.1-1.3 0-2-.1H69c-1 .3-2 .4-3 .4a71.8 71.8 0 0 0-4.2 1 15.8 15.8 0 0 1-.3-2v-.8.1a45.9 45.9 0 0 1-.3-1.8c-.3-1-.6-1.9-.7-2.9l-.5-2a41 41 0 0 1-.8-4 123.6 123.6 0 0 0-1-5.6 23.2 23.2 0 0 0-.4-3.4l-.1-1.5-.2-1a7 7 0 0 0 1.9-2.6 61.2 61.2 0 0 0 2.2-5.4 32 32 0 0 1 2.4-5 64 64 0 0 1 3.4-5.3c.4-.4.4-.8 0-1.3a434.4 434.4 0 0 0 2.2-9.6c.5-2.6 1.3-5 2.4-7.4a4.3 4.3 0 0 0 .6-.4l.4-.1h.7l-1 3.6c-.5 2.7-1.3 5.3-2.4 7.8-.6 1.2-1 2.4-1.2 3.7a13 13 0 0 0-.3 4.2 16.8 16.8 0 0 0 2.4 7.1c.8 1.6 1.7 3 2.7 4.4a189 189 0 0 1 5.4 7.6c1 1.8 2.4 3.2 4 4.4l1 .8a24.5 24.5 0 0 0 4 3.7h.1v.2h.1l.1.1.2.1a2 2 0 0 0 .3 0h.2a113.7 113.7 0 0 0 2-.6c2.2-1.4 4-3.3 5.1-5.7a88.6 88.6 0 0 1 8.7-14v-.1l.3-.4a113 113 0 0 0 3.7-5.5h.2a39 39 0 0 1 .4 0l.6-.7c.3-.6.5-1.3.4-2.1a65.3 65.3 0 0 0-2.4-12.4 46 46 0 0 0-.2-1l-.7-2.4-.2-1h.2v.1c.5 1 .9 1.8 1.2 2.8l2 7.4c.4 1 .7 2.1.9 3.2a33.7 33.7 0 0 0 1 4.1v.2a4.3 4.3 0 0 0 .2 1.2 3.8 3.8 0 0 0 .2.2c.1.7.4 1.5.8 2.2l.6 1.1 1.7 3.8ZM96.2 61.2l1.4-.6c1.5-.7 2.9-1.7 4.1-2.8l.8-.5.6-.5a26.8 26.8 0 0 1 1 2.7 11 11 0 0 0 1.3 1.8c0 .7 0 1.4.3 2a64.2 64.2 0 0 1 3.1 16.5 2.6 2.6 0 0 0-.9.8 254 254 0 0 1-8.3 12c-1.5 2.4-2.9 4.8-4 7.4A14 14 0 0 1 90 106l-.3.1h-.3a6 6 0 0 1-.3-.2c-.5-.3-1-.7-1.3-1.2a28.5 28.5 0 0 0-3.8-3.3c-.6-.4-1.2-1-1.6-1.7a30 30 0 0 0-2.4-3.1l-1.2-1.5a1006 1006 0 0 0-5.6-8.3l-1.6-3.2a14.5 14.5 0 0 1 .2-11.7c1.1-2.4 2-5 2.5-7.7l.5-1.5c.3-.7.5-1.4.5-2.1 1.1-.3 2-1 2.6-2l.5-.7c.2 0 .3-.2.4-.3l.3-.2c1.4 1.2 2.9 2.1 4.5 2.8l2.3.9c1.6.7 3.2 1 5 1 1.8 0 3.6-.2 5.3-1Zm-18-47h.4c1.2-.7 2.4-1.1 3.7-1.3a82.6 82.6 0 0 0 3.9-.7l1.3-.2a23.7 23.7 0 0 1 8.3.5c1.8.3 3.5 1 5.1 1.8 1.5.9 3 1.8 4.2 3v.1a47.7 47.7 0 0 1 .7 6 30.6 30.6 0 0 0-.1 7.9c.1.2.3.3.6.4H106.9c.5-.1.7-.3.8-.8v-.2l.2-.3.1-.2h.1l.2.1a29.9 29.9 0 0 0 .3.2v.5l.1.5a422.6 422.6 0 0 1-1.5 9.3 4 4 0 0 0-.6-.5 1 1 0 0 0-.4-.2c-.7 0-1.2.3-1.5 1a119.9 119.9 0 0 0-.7 6c0 1.7-.2 3.4-.7 5l-1.3 3.4a17.1 17.1 0 0 1-5.2 3.6c-1.2.6-2.5 1-3.9 1.3a82.5 82.5 0 0 1-4.6-.3 96.7 96.7 0 0 0-4.1-1.3l-.2-.1a26.9 26.9 0 0 1-3.9-2.5 12 12 0 0 1-2.4-2.5l-1-2c-.7-1.6-1.1-3.3-1.3-5a35.9 35.9 0 0 1 0-7.6c0-.6-.3-1-.8-1.2h-.4c-.6.4-1 .9-1.4 1.5l-.3.2-.3.1-.2-.5c-.2-1.6-.3-3.3-.3-4.9a106.4 106.4 0 0 0 0-6l.4 1c.1.5.4.7.7.7.2.2.5.3.9.2l.3-.2c.2-.7.3-1.4.3-2.2a47 47 0 0 1 1-11.1l.1-.2.1-.1a6.5 6.5 0 0 0 .4-.4l.2-.2a11.9 11.9 0 0 0 2.2-1.6Zm-15 23.3Zm52.6-11.8c.4 1.3.4 2.6.2 3.9a94.1 94.1 0 0 0-1.2 14.2v.4a109.7 109.7 0 0 1 .2 11 33.7 33.7 0 0 1-.8 5.2l-.4 3.1a240.6 240.6 0 0 0-5.4-2.5c-.6-.7-1.2-1-1.9-1l-.5-.6-.1-.3a5 5 0 0 1-.5-.8 40 40 0 0 0-1-2.5 1.2 1.2 0 0 0-.5-.6 41.5 41.5 0 0 0 1.4-4.4l.4-3.4a156.1 156.1 0 0 1 .4-5.2l.2.1.4.2.4.1h.5c1-.5 1.6-1.4 1.7-2.6l.5-3.6.5-5c.1-1.4-.4-2.2-1.5-2.7-.3-.1-.6-.2-1-.1-.2 0-.4 0-.6.2a23 23 0 0 0 0-2l.1-2.3a24.2 24.2 0 0 0-.2-6.4c0-1-.5-1.9-1.3-2.5-1.3-1-2.8-2-4.3-2.8-1.5-.9-3.2-1.5-5-1.9l-5.2-.7c-1.8 0-3.6 0-5.3.3l-1.8.3c-1.8.2-3.4.6-5 1.2a9 9 0 0 0-2.2 1.2l-.9.5c-1 .6-1.9 1.4-2.4 2.5l-.3 1.2a157.3 157.3 0 0 0-.8 9.4l-.4-.3a.6.6 0 0 0-.5-.1c-1 .3-1.6 1-1.7 2.1v3.6a186.4 186.4 0 0 0 .2 6.5c0 1.2.4 2 1.3 2.8.2.1.4.2.6.1.6 0 1.1-.3 1.6-.6a24 24 0 0 0 1 10c.2.8.6 1.6 1 2.4a9.8 9.8 0 0 0 2.1 3l-.1.1c-.6.4-1 1-1.4 1.7l-.2.3a7.2 7.2 0 0 1-.3.2 3.9 3.9 0 0 1-.7.4L75 59a.8.8 0 0 0-.2-.2 77.3 77.3 0 0 0-.8-.1h-1l-.8.1c-1.1.6-2 1.5-2.4 2.8-.2 0-.4 0-.7.2l-.3.2-.4.1-.6.2a310.5 310.5 0 0 1-2-11.6 3.3 3.3 0 0 0-2.2-3c-.2-.4-.2-.8-.2-1.3l-.1-2.7a31.1 31.1 0 0 1 .2-7l1-4.5.6-5.2c.2-1.7.4-3.3.8-5a248.2 248.2 0 0 0 2.6-11.2l.6-1.8a6.7 6.7 0 0 1 3.2-4.3 26 26 0 0 1 2.6-.5A29.3 29.3 0 0 0 80.4 3l2.3-.7c.8-.3 1.7-.4 2.6-.5h1c1.1-.1 2 .3 2.6 1.3 0 .2.2.4.4.5 1.4 1.2 3 1.3 4.7.5h.2l2 .9h.8c1 0 1.8-.2 2.7-.5l.6.2c.8.5 1.6.7 2.6.8 1 0 2 .3 2.8 1l.8.5c1 1 1.8 1.9 2.6 3 .5.7.9 1.4 1.2 2.2l1.2 2.5c.7 1.2 1.3 2.6 1.6 4a19.6 19.6 0 0 0 2 5.4l.7 1.7ZM104.6 34c-.2.2-.2.3-.2.5.2.9.6 1 1.4.7v.7l-.3.4a17 17 0 0 0-.2.1c-.4-.1-.8-.1-1.2.1-.3.2-.4.4-.3.7 0 .6.5.9 1.1 1l.6-.1c1.3-.4 2-1.3 2-2.8 0-.6-.3-1-.8-1.4-.7-.6-1.5-.5-2.1.1Zm-31.9-1.3c-.3.4-.4.8-.4 1.3.2 1.7 1.1 2.7 2.8 3h.3c.3 0 .5-.2.6-.5.2-.7 0-1-.7-1.2-.7 0-1.2-.5-1.4-1.3v-.1l.1-.1a.3.3 0 0 1 .1-.1h.2l.7.2c.3 0 .5-.1.6-.3.4-.6.3-1.1-.4-1.4-1-.4-1.8-.2-2.5.5Zm14 19c1 .4 1.8.6 2.7.6h1.8c1-.1 2-.3 2.8-.7l1-.5c.6-.5.6-1 0-1.4a.4.4 0 0 0-.5 0 10.1 10.1 0 0 1-2.7.8c-1.6.4-3 .2-4.5-.4a.8.8 0 0 0-.9-.3c-.2 0-.3.2-.4.4-.3.7 0 1.2.8 1.6Zm3.7-13c.6-.4.6-.9.1-1.4a.4.4 0 0 0-.4-.1c-.9.2-1.4.8-1.7 1.7a3 3 0 0 0-.1 1c0 1 .6 1.6 1.7 1.8h.3c.5.1 1 0 1.4-.4.2-.3.3-.6 0-1s-.7-.5-1.1-.2h-.3a3.2 3.2 0 0 1-.4-.2 3.3 3.3 0 0 1 .2-.8l.3-.3Zm6.5-7.2.6.2c.3 0 .5-.1.6-.3.3-.7.2-1.2-.6-1.6a.5.5 0 0 0-.6 0c-.7.6-.7 1.1 0 1.7ZM94.5 26H96a15.3 15.3 0 0 1 3.8 1l.3.1.3.1c.2.2.5.3.8.2.4-.2.6-.5.5-1 0-.4-.4-.7-.8-.8l-2.2-1a9.3 9.3 0 0 0-5.3-.2c-.8.2-1 .6-.8 1.3.1.2.2.3.4.3h1.5Zm-15 0-1.2.8c-.7.5-.9 1.1-.5 1.8l.2.2c.2.1.5.1.8 0a8.3 8.3 0 0 0 1-.9 6 6 0 0 1 2.6-1.2c1.1-.2 2.2-.3 3.3 0h.3l.3.1c.3.2.5.2.8 0 .3 0 .5-.2.5-.6 0-.6-.3-1-1-1.2l-2.2-.2a8 8 0 0 0-5 1.3Zm2.6 4.5c0 .4.1.7.5 1 .4.2.7.2 1.1 0 .4-.3.5-.5.5-1 0-.6-.4-.9-1-.7-.2 0-.3-.1-.4 0-.5 0-.7.3-.7.7ZM54.8 216.7Zm0 0h.1ZM89 160.6l-.2.4-.2.7.3.6h.2a1.9 1.9 0 0 0 .4.2h.7c.5-.4.6-1 .4-1.5-.3-.6-.7-.8-1.3-.6H89v.1l-.1.1Zm-1.7 7.6Zm35.3-41.4Zm-79.8 47.2Z"/><path fill="#734800" d="M116 29.6a9.3 9.3 0 0 0-.8-5.6 47.4 47.4 0 0 1-3.7-9.4l-1.2-2.5c-.3-.8-.7-1.5-1.2-2.3a16.9 16.9 0 0 0-3.4-3.4c-.8-.7-1.7-1-2.8-1-1 0-1.8-.3-2.6-.8l-.6-.2c-.9.3-1.8.5-2.7.5h-.7a19.8 19.8 0 0 1-2.3-1c-1.7 1-3.3.8-4.7-.4L89 3c-.6-1-1.5-1.4-2.7-1.3h-.9a84.5 84.5 0 0 0-6.7 1.7c-1.2.3-2.4.6-3.7.7l-2.6.5A6.7 6.7 0 0 0 69 9l-.6 1.8c-.7 1.7-1.1 3.5-1.3 5.3l-.4 2-.9 3.9a37 37 0 0 0-.8 5 89.8 89.8 0 0 1-2 11.5c0 1.7 0 3.5.2 5.2v2.7c0 .5.1 1 .3 1.4 1.3.5 2 1.5 2.2 3a46.8 46.8 0 0 0 1.2 7.1l.8 4.4.6-.2.4-.1.3-.2.7-.2a4.9 4.9 0 0 1 2.4-2.8l.8-.1a21.3 21.3 0 0 0 1.6 0h.1l.1.1a1.1 1.1 0 0 1 .2.2 7.5 7.5 0 0 1 0 .1 3.9 3.9 0 0 0 .9-.4 7.2 7.2 0 0 0 .4-.5 4.8 4.8 0 0 1 1.5-1.8l-.7-.8c-.6-.6-1-1.4-1.5-2.2a22.2 22.2 0 0 1-2-7.5 24 24 0 0 1 .1-5c-.5.4-1 .6-1.6.7l-.6-.1a3.2 3.2 0 0 1-1.3-2.8v-1.2a186.8 186.8 0 0 1-.2-8.9c0-1.1.6-1.8 1.7-2.1l.5.1.4.3a64 64 0 0 1 1.1-10.6c.5-1 1.4-1.9 2.4-2.5l.9-.5a9 9 0 0 1 2.2-1.2c1.6-.6 3.2-1 5-1.2l1.8-.3c1.7-.3 3.5-.4 5.3-.3l5.3.7c1.7.4 3.4 1 5 1.9 1.4.8 2.9 1.8 4.2 2.8.8.6 1.2 1.5 1.3 2.5l.1 1.4a24.2 24.2 0 0 1 0 7.3v2l.7-.2.9.1c1 .5 1.6 1.3 1.5 2.6a67.2 67.2 0 0 1-1 8.7c-.1 1.2-.7 2-1.7 2.6h-.5a12.1 12.1 0 0 1-.8-.3H106l-.3 5.1a29.1 29.1 0 0 1-1 5.6 41.5 41.5 0 0 1-.7 2.2c.2.1.4.3.5.6l.9 2.5s0 .2.2.3c0 .2.2.3.3.5l.1.3.5.7c.7-.1 1.3.2 2 1l.3.4h.3l4.7 2c0-1 .2-2 .4-3.1a45.3 45.3 0 0 0 .8-5.2c.2-2 .3-3.8.2-5.7a109.7 109.7 0 0 0-.4-5.7l.1-5.2a1389.6 1389.6 0 0 1 1.1-9Z"/><path fill="#fff" d="m78.6 14.1-.3.1a16.6 16.6 0 0 1-2.6 2 6.5 6.5 0 0 1-.3.3v.2a2.5 2.5 0 0 1-.3.3A95.6 95.6 0 0 0 74 30l-.3.2c-.4 0-.7 0-1-.2-.2 0-.5-.2-.6-.7l-.4-1v.3a2.7 2.7 0 0 1 0 .3v5.4a37.3 37.3 0 0 0 .5 5.4l.3-.1.3-.2c.4-.6.8-1.1 1.4-1.5h.4c.5.2.8.6.8 1.2a13.6 13.6 0 0 1-.1 2.4v5.1c.3 1.8.7 3.5 1.5 5a45 45 0 0 0 1 2.2 12 12 0 0 0 2.4 2.4 26.9 26.9 0 0 0 3.8 2.5h.2l.3.2 3.8 1.2 1.5.3a33.4 33.4 0 0 1 3.1 0c1.4-.2 2.7-.7 4-1.3a17.1 17.1 0 0 0 4.8-3.3c0-.2.1-.2.3-.3.5-1 .9-2.2 1.3-3.4.5-1.6.8-3.3.7-5v-1.2a120 120 0 0 1 .7-4.8c.3-.7.8-1 1.5-1l.4.2a3.3 3.3 0 0 1 .6.5c.3-.2.4-.6.5-1.1a91 91 0 0 1 1-8.7 2 2 0 0 0-.2-.6h-.2l-.2-.1-.2.1-.2.3v.2c0 .5-.3.7-.8.7h-.2c-.1 0-.3.1-.4 0a.8.8 0 0 1-.6-.3 30.6 30.6 0 0 1 .1-8.6 47.7 47.7 0 0 0-.7-5.4 24.2 24.2 0 0 0-4.2-3c-1.6-.9-3.3-1.5-5.1-1.8l-2.7-.4a23.7 23.7 0 0 0-7 .1l-.4.1-3.4.6c-1.3.2-2.5.6-3.7 1.2Zm4 17.3a1 1 0 0 1-.5-1c0-.3.2-.6.7-.7h.4c.6 0 1 .2 1 .9 0 .4-.1.6-.5.8a1 1 0 0 1-1.1 0Zm-4.3-4.6 1.2-.7a8 8 0 0 1 4.9-1.3c.7 0 1.4 0 2.2.2.7.2 1 .6 1 1.2 0 .4-.2.6-.5.7l-.8-.1a18 18 0 0 1-.6-.2 9.5 9.5 0 0 0-3.3 0 6 6 0 0 0-2.9 1.5l-.7.6c-.3.2-.6.2-.8 0h-.2c-.4-.8-.2-1.4.5-1.9ZM96 26h-1.5c-.5.2-1 .2-1.5.1a.5.5 0 0 1-.4-.3c-.2-.7 0-1.1.8-1.3 1.8-.4 3.5-.4 5.3.2l2.2 1c.4.1.7.4.8.8 0 .5 0 .8-.5 1-.3 0-.6 0-.8-.2h-.3a6.4 6.4 0 0 1-.4-.4c-1.2-.4-2.4-.7-3.7-.9Zm1.5 5.8c-.2 0-.4 0-.6-.2-.7-.6-.7-1.1 0-1.6.2-.2.4-.2.6-.1.8.4 1 .9.6 1.6-.1.2-.3.3-.6.3Zm-7 5.6c.5.5.5 1-.1 1.5l-.3.3a2.4 2.4 0 0 0-.2.8h.2l.2.2h.3c.4-.3.8-.2 1.1.3.3.3.2.6 0 .9-.4.4-.9.5-1.4.5H90c-1-.3-1.6-.9-1.7-1.9v-1c.4-1 1-1.5 1.8-1.7l.4.1Zm-1 15c-1 0-1.9-.2-2.7-.5-.8-.4-1-.9-.8-1.6 0-.2.2-.4.4-.4.4-.1.7 0 1 .3 1.3.6 2.8.8 4.4.4a26 26 0 0 0 2.7-.9h.5c.6.5.6 1 0 1.5l-1 .5a10.8 10.8 0 0 1-4.6.7ZM72.2 34c0-.5.1-.9.4-1.3.7-.7 1.5-1 2.5-.5.7.3.8.8.4 1.4-.1.2-.3.3-.6.3l-.6-.3h-.2l-.1.1H74V34c0 .8.6 1.2 1.3 1.3.7.2 1 .5.7 1.2 0 .3-.3.4-.6.5h-.3c-1.7-.3-2.6-1.3-2.8-3Zm32.1.5c0-.2 0-.3.2-.5.6-.6 1.4-.7 2.1-.1.5.3.8.8.8 1.4 0 1.5-.7 2.4-2 2.8h-.6c-.6 0-1-.3-1.1-1 0-.2 0-.4.3-.6.4-.2.8-.2 1.2 0h.1v-.1h.1v-.1l.2-.4.1-.5v-.2c-.8.4-1.2.2-1.4-.7Zm-6.8 26.1-1.4.6c-1.7.8-3.5 1-5.3 1-1.8 0-3.4-.3-5-1l-2.3-1a15.5 15.5 0 0 1-4.5-2.7l-.3.2a.8.8 0 0 1-.4.3l-.5.7c-.6 1-1.5 1.7-2.6 2 0 .7-.2 1.4-.5 2l-.5 1.6c-.5 2.7-1.4 5.3-2.5 7.7a14.5 14.5 0 0 0-1.2 8c.1 1.3.5 2.5 1 3.7a65.5 65.5 0 0 0 2.7 5 996.8 996.8 0 0 1 5.7 8l2.4 3.1c.4.7 1 1.3 1.6 1.7 1.3 1 2.6 2.1 3.8 3.3a10.4 10.4 0 0 0 1.6 1.4h.6a14 14 0 0 0 5.5-6.2c1.2-2.6 2.6-5 4.1-7.4l4-5.7a253.8 253.8 0 0 0 5.1-7l.1-.1h.1a53.9 53.9 0 0 0-3.2-16.5c-.2-.6-.4-1.3-.3-2l-.5-.6a11 11 0 0 1-1-2l-.8-2-.6.6-.8.5c-1.2 1.1-2.6 2-4.1 2.8Zm26.2 8.4a12 12 0 0 0-1-.3c-1.8-.1-3.4-.6-4.9-1.3a309 309 0 0 0-7.4-3.5l-.6-.3v.2a502.1 502.1 0 0 0 3.1 10.7 22.2 22.2 0 0 1 .7 3.9l.1.2.2.5.2.7v.1l.2.1c0 .8.3 1.5.6 2.2l1 2 .3.6 1.2 2.9a13.7 13.7 0 0 1 1.2 3.2s0 .3.3.7a91.2 91.2 0 0 0 2.9 7.1v.3l.2.3V99c.1-.4.3-.7.6-1V97c-.1-1 .2-1.3 1.1-1.1.2 0 .4.2.4.4.2.7.3 1.5.2 2.3l-.1 6.3c0 2.2 0 4.4-.3 6.6-.2 2.3-.2 4.5 0 6.8a46.5 46.5 0 0 1 .3 8.7 122.6 122.6 0 0 0 .8 15.5l.2 3.7c0 1 0 2-.2 3a199.3 199.3 0 0 1 1.1 12.7 89.8 89.8 0 0 1 .3 12.7 598.6 598.6 0 0 1-.3 10c0 1.8-.4 3.5-1.1 5a28.2 28.2 0 0 1-2 4l-1.7 3a27.4 27.4 0 0 0-3.2 6.8v.3a6.7 6.7 0 0 1-.4.7l-1 2a9.5 9.5 0 0 0-.8 3h.2a5.4 5.4 0 0 1 .6-.2 15.8 15.8 0 0 0 1.8-4.2c.4-1 1-1.6 2-2 .1-.2.4-.3.7-.3 1-.1 2 .3 2.5 1.2.3.3.4.7.5 1 .2 1.2.2 2.4 0 3.6 0 1.8-.7 3.2-2.2 4.2a43.6 43.6 0 0 1-5.4 2.3c2.5.3 4.8-.2 7-1.3 1-.5 1.8-1.2 2.6-2 1.5-1.7 2.5-3.6 3.3-5.6l.2-1.6a137.2 137.2 0 0 1 1-15.4l.7-6.4c.2-2.2.6-4.3 1.1-6.4l.8-3.3 1-5.4a241.8 241.8 0 0 0 .7-5.9l.8-6.2a92 92 0 0 0 1-11 81 81 0 0 0 .3-8.7 66 66 0 0 0-.2-6.2 36.7 36.7 0 0 1-.4-8.2c-.2-2.1-.2-4.3-.3-6.4 0-2.2-.2-4.3-.6-6.5a42.8 42.8 0 0 1-.6-6.8 97.6 97.6 0 0 1 .3-7.2l-.2-6.5a32.7 32.7 0 0 0-.9-7v-.1l-.2-1a7.2 7.2 0 0 0-.2-1.2l-1.4-3.4c-.6-1.1-1.3-2-2.2-2.8a184.6 184.6 0 0 1-2.6-2 18 18 0 0 1-2-.7l-1.9-.7ZM44.3 80c-.5 2-.8 4-1.1 6-.4 2.1-.4 4.3-.1 6.4.1 1.5.2 3 .1 4.4a143.4 143.4 0 0 0-.2 7.6 158 158 0 0 1-1.4 13.6c-.3 2.4-.5 4.8-.5 7.2 0 .9-.2 1.7-.4 2.5v1.7a36.5 36.5 0 0 0 0 6.6 545 545 0 0 0 .9 15.2 171.6 171.6 0 0 0 1.5 13.2 18231.2 18231.2 0 0 0 1.2 8.6 17.7 17.7 0 0 0 .1.7v.1a60 60 0 0 1 .7 6.6 50.7 50.7 0 0 0 2.8 12.3l.1 2.2v6.6-.2a32.2 32.2 0 0 0 2.6 10.5 10.2 10.2 0 0 0 1.4 2.1 167.5 167.5 0 0 1 2 2.4c.8.6 1.9.9 3 .8a15 15 0 0 0 3.5-.6 3 3 0 0 1 1-.1V216a4.8 4.8 0 0 0 .2-.3v-.2h-.5a3.3 3.3 0 0 1-.4.2c-1.5.6-3 .5-4.3-.4l-.9-.8a8.8 8.8 0 0 1-2.3-6v-2c.1-1.5.6-2.7 1.7-3.7 1-1 1.8-.8 2.6.3a18.9 18.9 0 0 1 2.8 5.8l.4.9.1.2a20.8 20.8 0 0 0 .7.8c0-.5 0-1-.2-1.7-.4-2.2-1-4.4-1.7-6.6-.6-1.6-1-3.2-1.4-4.9-.3-1.2-.7-2.3-1.3-3.4a27 27 0 0 0-2.7-3.8 15.8 15.8 0 0 1-2.1-6.4c-.3-.8-.4-1.6-.4-2.5 0-1 0-2.2-.2-3.2-.2-2.2-.3-4.4-.2-6.6a292.8 292.8 0 0 0 .4-13l.3-6.5a41993.6 41993.6 0 0 0 .9-13l.8-6.6.2-3.6a9 9 0 0 1 .3-2.3c0-2 0-3.9.2-5.8a410.3 410.3 0 0 0 1-24.4c.2-.3.5-.4.8-.4l.2-.2c.8-.9 1.4-1.9 1.9-3a46 46 0 0 0 2-5 55.6 55.6 0 0 1 5.2-9.3 156.2 156.2 0 0 1 3.6-15 1 1 0 0 1-.6 0 1 1 0 0 0-.2 0h-.1l-4 2a47.6 47.6 0 0 1-7.6 3.1 27.3 27.3 0 0 1-4.8 1.8 21.4 21.4 0 0 0-5 4 13.2 13.2 0 0 0-2.6 5.3ZM55 216.7Zm0 0h-.1Zm57-93.8-1.5-.4a25.6 25.6 0 0 0-5.5-.8 131 131 0 0 0-11.7-.5l-4 .2a36.7 36.7 0 0 0-6 .6c-1 .3-2 .4-3 .3a26 26 0 0 0-5.2 0 30.8 30.8 0 0 0-4.5.3h-1.1a2 2 0 0 0-1 0l-2.1.3c-1 0-1.9.2-2.7.6a3.7 3.7 0 0 1-1.3.3l1.3 4.1c.5 1.5.7 2.9.8 4.3a32.3 32.3 0 0 0 .3 3.8 42.5 42.5 0 0 1-2.4 20.1 82.3 82.3 0 0 1-2.2 4.6l-.2.7a3111.7 3111.7 0 0 1 6.5 2.8l2.6.7h.6a76 76 0 0 1 10.5 2c2 .6 4 1 6 1l1.3.2a25.7 25.7 0 0 0 7.7.1 36 36 0 0 0 6.4-1.1l3.3-.7a89.6 89.6 0 0 0 12.8-5 2.4 2.4 0 0 1 .5-.5c-1.3-1.7-2.1-3.6-2.4-5.7l-1.2-6.5a48.7 48.7 0 0 1 1.3-24.3c-1.2-.7-2.5-1.2-3.8-1.5ZM87.4 168Zm1.5-7.2.2-.4.1-.1h.1v-.1c.7-.2 1.1 0 1.4.6.2.6.1 1-.4 1.4a.7.7 0 0 1-.5.1h-.4l-.2-.1-.2-.1a.7.7 0 0 1-.3-.6c0-.3 0-.5.2-.7Z"/><path fill="#333" d="M117.1 91.2a58.3 58.3 0 0 0-3.4-7.7c-.4-.7-.7-1.5-.8-2.2a2.3 2.3 0 0 0-.1-.1V81l-.3-.6a4.3 4.3 0 0 1 0-.7c-.4-1.4-.8-2.8-1-4.2a24 24 0 0 0-.8-3.2l-2.1-7.4a12 12 0 0 0-1.2-2.8l-.1-.1h-.1l.2 1a71503.2 71503.2 0 0 1 1 3.4 55.7 55.7 0 0 1 2.3 12.4c0 .8 0 1.5-.4 2.1a2 2 0 0 1-.6.6.7.7 0 0 1-.2.1h-.4a662.6 662.6 0 0 1-4 6 121.7 121.7 0 0 0-8.7 14c-1.2 2.4-3 4.3-5.2 5.7-.5.4-1 .5-1.7.5l-.2.1a3.7 3.7 0 0 0-.2 0H89a2 2 0 0 1-.3 0h-.1v-.2h-.1l-.1-.1-.1-.2c-1.4-1-2.7-2.1-4-3.6l-1-.8a15.9 15.9 0 0 1-4.6-5.3 189 189 0 0 0-4.8-6.7 29.2 29.2 0 0 1-5-11.5 13 13 0 0 1 .2-4.2c.2-1.3.6-2.5 1.2-3.7 1-2.5 1.9-5.1 2.5-7.8l.9-3.6H73l-.4.1a9.9 9.9 0 0 1-.6.4c-1 2.3-1.9 4.8-2.4 7.4a137.5 137.5 0 0 1-2.2 9.6c.4.5.4.9 0 1.3a64 64 0 0 0-3.4 5.3 32 32 0 0 0-3 6.3c-.4 1.4-1 2.8-1.6 4.1a7 7 0 0 1-2 2.5l.3 1 .1 1.6a34.3 34.3 0 0 1 .6 4.4l.8 4.5a41 41 0 0 0 1.3 6.1 15.4 15.4 0 0 0 .8 3.4 45.9 45.9 0 0 0 .1 1.2v.7l.1.2a15.8 15.8 0 0 0 .4 1.9 71.8 71.8 0 0 1 4.1-1c1 0 2-.1 3-.4h.5c.7.2 1.3.2 2 .1l2-.2h1l2.2-.2h4c1.2.1 2.3 0 3.4-.4a108.8 108.8 0 0 1 17.7-.4 78.1 78.1 0 0 1 11.8 1.9l2 .7.7.5.5-.4c.1-1.2.4-2.4.7-3.5l1.2-4a25.2 25.2 0 0 0 1.2-6.1 33 33 0 0 1 1.4-5.8l.2-1-.2-.4a13.2 13.2 0 0 0-.7-1.6 79 79 0 0 0-.4-1.1l-3-7.8ZM80.6 169c-1.7-.6-3.5-1-5.3-1.5a188.4 188.4 0 0 1-8.6-1.3l-1-.2c-1.8-.5-3.6-1.2-5.3-2.2a9.5 9.5 0 0 0-1.5-.7 23 23 0 0 1-1.2 4.6l-.6 2a251.6 251.6 0 0 0-3.2 15.8c.5 2.2 1.4 4 2.8 5.7l1 1.2c1.2 1.7 2 3.7 2.5 5.7l.7 3.1a42 42 0 0 1 2.4 10c.1.8-.2 1.2-1 1.4-.9.2-1.6 0-2.2-.7a5.6 5.6 0 0 1-.9-1.3 25.5 25.5 0 0 1-1.4-3.7 41.7 41.7 0 0 0-1.7-2.6H56l-.1.1-.1.1c-.8 1.5-1 3.1-.8 4.8l.6 2.4c.4 1 1 1.9 2 2.5l.6.2 1 .2h.3a21.4 21.4 0 0 0 .6-.2c1.2-.7 2.2-.6 3 .4l.2.5c.2 1.4-.4 2.4-1.6 2.8h-.5c-.6.3-1.3.5-2 .6a43.5 43.5 0 0 1-2.5.2c-.9 0-1.7-.1-2.4-.5v.2A507.1 507.1 0 0 0 57 238a55.6 55.6 0 0 0 2.3 8.6c1.4-.4 3-.5 4.5-.3h2c2.5-.1 5 0 7.5.3 1.4.2 2.8.2 4.2 0a15.4 15.4 0 0 1 5.1.2 102.3 102.3 0 0 0 .6-9 241.7 241.7 0 0 1 1.5-20.3c.1-1.7.5-3.3 1.2-4.9l.2-1.4a4.4 4.4 0 0 1 .6-1.3 8.8 8.8 0 0 1 1.2-3.5 4.8 4.8 0 0 1 .3-.7l.2-.2a.5.5 0 0 1 .3-.1H89.4l.1.1a2.6 2.6 0 0 1 .3.4v.6l.1.1h.1v.2h.1v.2h.1c.3 2.3.8 4.5 1.6 6.6l.7 2.4 2.3 9.4a67 67 0 0 1 1.7 8.3 48.2 48.2 0 0 1 2 12.9h7.3a68.8 68.8 0 0 0 9.6 0c1 0 2 0 3 .2l2.5.2c.2-3.2.5-6.5 1-9.8a266.8 266.8 0 0 0 1.4-21.5 18.7 18.7 0 0 1-4.8 1c-1.5.2-2.8-.3-3.7-1.4v-.4c.3-1.2 1.1-2 2.4-2.1l1.6-.4c1.2-.4 2.3-1 3.2-1.9.3-.2.4-.5.4-.8a41.1 41.1 0 0 1 .3-1.4 12.1 12.1 0 0 0-.2-3.7l-.1-.1h-.1l-.1-.1h-.4a7.3 7.3 0 0 1-.8 0l-.5.7a11.8 11.8 0 0 1-.8 1.2c-.2 1.7-1 3.1-2.1 4.3l-.6.3c-.8.3-1.6.2-2.4-.2a.6.6 0 0 1-.3-.6c0-1.6.4-3.3 1.2-4.8a43 43 0 0 0 2.8-6.6 39.3 39.3 0 0 1 2.5-4.4c.7-1 1.2-2.1 1.7-3.3a6.7 6.7 0 0 1 1.2-2v-.2c.6-2.2 1-4.4 1-6.7v-2.5a472.8 472.8 0 0 1-3-9.2 39.6 39.6 0 0 1-2.8-7.9 23 23 0 0 1-6 3.1l-4 1.5a29.5 29.5 0 0 1-7.6 2l-6.8 1c-2.2.3-4.4.3-6.6-.1-1.4-.3-2.8-.5-4.3-.5l-3-.6Z"/></g><path fill="#EEE" d="M4 252a23 23 0 0 1 23-23h124a23 23 0 0 1 23 23v29a23 23 0 0 1-23 23H27a23 23 0 0 1-23-23v-29Z"/><path fill="#000" d="m80.2 226 2.3.6c.6.1 1.1.2 1.6.1h1.2l1.2-.2 2.5-.1h2.3c1 0 2 .1 3 .5l1.2.4 1.2.4c.5.2 1 .3 1.4.2l1.2-.2 1.1-.1c1-.1 1.9-.2 2.8-.1h1.2l1.1.2 2.3.1h1.2l1.2.2c.6 0 1.2 0 1.8-.2l2.4-.4c1-.2 2-.2 3-.1l2.3.3 2.2.2 2.3.2h2.1l1.2-.1h1.2l2-.4 1.1-.3 1.2-.2c1.1-.3 2.3-.3 3.4 0l2.3.8c.5.1 1 .2 1.4 0l1.1-.2 1.2-.3c1-.2 1.9-.3 2.8-.2h2.4c.9 0 1.7.2 2.6.4l1.2.2 1.1.2 2.1.4 1.1.1 1.2.1 2.2.2 1.3.1h1.2c1.6.2 2.8 1 3.5 2.4l.7 1.1.6 1.2c.2.4.4.6.8.8l1.1.5 1.1.5c1.3.6 2.2 1.6 2.6 2.9l.7 2.3.8 2 .4 1 .5 1 .8 2.8.2 1 .2 1.2c0 .7.2 1.5.4 2.2l.3 1.2.2 1.2.4 2.6.2 2.3c0 1 0 2-.3 3l-.7 2.4-.3 1.8v2.3l.1 2.2.1 1.2.1 1.1V277l-.1 1.1-.1 2.3v2.3c-.1 1-.2 1.9-.5 2.8l-.3 1.1-.3 1.1-.8 2.4-.4 1-.4 1.2c-.3.9-.7 1.7-1.3 2.5l-.6 1-.7 1-1.4 2-.7 1-.8 1a5 5 0 0 1-3.2 2l-1.2.2-1.2.2c-.7.1-1.3.3-1.8.6l-1 .5-1.1.5c-.9.4-1.8.7-2.8.9l-2.3.4a7 7 0 0 1-3.3-.3l-1.1-.4-1.2-.4-.8.1-1.2.7-1.1.6c-1 .6-2.2.9-3.3.9h-2.4c-1 0-2.2-.3-3.2-.9l-1.2-.6-1.1-.5c-.5-.3-1-.4-1.3-.3h-1.2l-1.2.1-2.3.3-2.3.2-2.5.1h-2.3l-2.2.2-2.3.3c-.7 0-1.4.2-2 .3l-1.3.4-1.1.2c-1 .3-2 .4-3 .4l-1.2-.1H106c-1.1-.1-2.2-.5-3.2-1l-1.2-.6-1.1-.6h-.5l-1.1.7-1.2.6c-1.4.8-2.9.8-4.3 0l-2.3-1.3-1.3-.3h-2.4a3 3 0 0 0-1.4.4l-2.4 1.3c-1 .6-2.2 1-3.4.8l-2.3-.1-2.4-.2-2.4-.2H66l-1.1-.3-1.2-.1a13 13 0 0 0-2-.1h-2.4c-1 0-1.8 0-2.8-.3l-1.1-.2-1.2-.3-1.3.1-2.3.9a7 7 0 0 1-3.3.3l-7-1a11 11 0 0 0-2 0h-1.1l-1.2.1h-2.4l-1.2.1h-3.7l-1.2-.2-1.1-.1c-1-.1-2-.3-2.8-.7l-1-.4-1.2-.4-1.8-.6-1.2-.2-1-.3a7 7 0 0 1-2.8-1.3l-1.9-1.4a14 14 0 0 1-1.9-1.7l-.7-.9-.8-.8-1.5-2.1-.6-1-.6-1a48 48 0 0 1-1.1-2l-.5-1-.6-1-1-2-.6-1.1-.6-1.1a5.6 5.6 0 0 1-.5-3.5l.2-1.2.2-1.2.4-2.4.4-2.3c0-.3 0-.7-.2-1l-.6-1.2-.6-1.2c-.6-1-.9-2.2-.8-3.4v-1.2l.2-1.1v-2.2l-.1-1.1v-1.2a7 7 0 0 1 .6-3.3l1-2.3c.3-.5.4-1 .4-1.4v-1.2l-.1-1.2c0-.7 0-1.4-.2-2.2l-.1-1.2-.2-1.3c-.1-1.1 0-2.3.5-3.3l.5-1.2.5-1c.4-1 1-2 1.9-2.7l1.8-1.7 1.1-1.4 1.3-2.2c.6-1 1.4-1.8 2.4-2.4l2.1-1.2c1-.6 2-.9 3.2-1H20l1.5-.5 1.1-.6 1.1-.7 1.5-.5c.5-.1 1.5-.2 2.3.6l.5.5.7.2 2.3.5 2 .2h2.3l1.8-.3 1.1-.4 1.2-.3c1-.3 2-.4 3-.4h7c1 0 1.9.2 2.8.5l2.3.6c.7.2 1.3.3 2 .3h2.3l2.4.2h1.1l1.2.2c.5 0 1 0 1.4-.3l2.4-1c1-.4 2-.6 2.9-.7l1.2-.1 1.1-.1 2.4-.3 2.3-.2c1-.1 2 0 3 .2Zm-2.7 3.7h-1.2l-1.1.2-2.4.2-1.1.2h-1.2l-1.8.5-1.2.5-1.1.5a7 7 0 0 1-3.3.6l-1.1-.1-1.2-.1-2.3-.1h-1.2l-1.1-.1c-1 0-1.9-.2-2.8-.4l-2.4-.7a8 8 0 0 0-1.8-.2h-2.4l-2.3-.1h-2.3c-.6 0-1.2 0-1.8.2l-1.1.4-1.2.3c-1 .3-2 .5-2.9.5H33c-1 0-1.9 0-2.8-.3l-1.2-.2-1.1-.3c-.5 0-1-.2-1.3-.4-.3 0-.8-.3-1.1-.6l-1 .5-1 .6c-1 .5-2.1.8-3.3.9H19l-1.3.1c-.5 0-1 .2-1.4.5l-2.1 1.2c-.4.2-.7.5-1 1l-.6 1-.6 1.1c-.6.9-1.2 1.7-2 2.4l-.8.8-1 .8-.8 1.3-.5 1.1-.5 1.2c-.2.4-.2.8-.2 1.3l.3 2.5.2 2.5v2.3c0 1.1-.2 2.2-.6 3.2l-.5 1.2-.6 1.2a3 3 0 0 0-.3 1.4v1.2l.2 1.1v2.6l-.2 2.3c0 .4 0 .8.3 1.3l.6 1.2.6 1.2c.6 1.1.9 2.3.6 3.6l-.8 4.7-.2 1.2-.2 1.1c0 .4 0 .7.2 1l.5 1.2.6 1 1 2 .6 1 .5 1 1 2 .6.9.6 1 1.1 1.4.8.9.7.8 1.4 1.3.9.7.9.6c.3.3.8.5 1.2.6l1.1.3 1.1.2 2.5.8 1 .4 1.1.4 1.7.4 1.2.1 1.2.1 2 .1H35.8l2.3-.2 2.7.1 1.2.2 1.2.1 2.3.3 2.4.3c.4.1.9 0 1.4-.1l2.3-.8c1.1-.4 2.3-.5 3.4-.3l1.2.3 1.1.2 2 .2h2.3l2.6.1 1.2.2 1.2.1c.6.1 1.3.2 2 .1h4.9l2.4.2 2.2.2 2.4.2c.3 0 .7-.1 1.2-.4l1.2-.6 1.2-.7a7 7 0 0 1 3.2-.9h2.4c1.1 0 2.3.3 3.3.8l2.3 1.3.3.1h.2l2.3-1.4c1.4-.7 2.8-.8 4.2 0l2.4 1.2c.5.3 1 .4 1.5.4l1.2.1h1.2l1.7-.1 1.1-.3 1.2-.3c.9-.3 1.8-.4 2.6-.5l1.2-.1 1.2-.2 2.5-.1h2.3l2.2-.2 1.2-.1 1.2-.1 2.3-.2 2.4-.2c1.2-.1 2.3.2 3.4.7l2.3 1.2c.5.3 1 .4 1.4.4h2.4c.4 0 .9-.1 1.4-.4l2.3-1.3c1.2-.6 2.6-.8 4-.4l2.3.8c.5.2 1 .2 1.4.1l2.3-.4a6 6 0 0 0 1.6-.5l1-.5 1.1-.5 2.8-1 1.2-.1 1.3-.3c.3 0 .5-.2.7-.4l.7-1 .7-1 1.4-2 .7-1 .6-.9c.4-.5.7-1 .9-1.6l.4-1 .4-1.2.6-2 .3-1.2.4-1 .2-1.9v-2.3l.2-2.4v-1.2l.2-1.2v-2l-.1-1.2-.1-1.1-.2-2.6v-2.3c0-1 .2-2 .5-2.9l.3-1.1.3-1.2c.2-.6.2-1.1.2-1.7l-.1-1.1V257l-.4-2-.5-2.4-.5-2.4-.2-1.1-.2-1.2c0-.6-.2-1.2-.5-1.7l-.4-1-.5-1.1-1-2.4-.3-1.2-.3-1.1c0-.2-.2-.4-.4-.5l-1.2-.5-1-.5c-1.3-.5-2.2-1.4-2.8-2.6l-.6-1.1-.6-1.2-.1-.1h-.1l-2.5-.2-2.5-.2-1.1-.1-1.2-.2a30 30 0 0 1-2.4-.4l-1.1-.2-1.2-.2a12 12 0 0 0-2-.2h-1.1l-1.2-.1c-.6 0-1.2 0-1.8.2l-1.2.2-1.2.3c-1.1.2-2.2.2-3.4-.2l-1.1-.4-1.2-.3c-.4-.2-.8-.2-1.2 0l-1.2.2-1.2.3c-.9.2-1.8.4-2.7.4l-2.3.2H124l-1.2-.1-1.2-.1a46 46 0 0 1-2.4-.2l-1.2-.2-1.2-.1h-1.7l-1.1.2-1.2.3c-1 .1-1.9.2-2.8.1h-1.2l-1.2-.1-2.3-.2H104l-1.2-.1h-2l-1 .2-1.3.1a7 7 0 0 1-3.3-.3l-1.1-.4-1.2-.5-1.6-.3H89c-.7 0-1.4 0-2.1.2l-2.4.2c-1 .1-2 0-3-.2l-2.4-.7c-.5-.2-1-.2-1.6-.1Z"/><path fill="#000" d="M55.3 270.5v4.3c0 .3-.1.6-.3.8-.2.4-.6.5-1 .5-.6 0-1-.2-1.3-.6-.3-.4-.4-.7-.4-1.1a238 238 0 0 1 .7-14.7c.3-.3.6-.4 1-.4.5 0 .8.1 1 .4.3.3.5.6.5 1a44.7 44.7 0 0 1-.3 5l5.4-5.7a1.4 1.4 0 0 1 2-.1c.4.2.5.6.5 1s-.8 1.5-2.4 3.3a84.3 84.3 0 0 1-3.8 3.8 670.1 670.1 0 0 0 4.6 4.1c.3.3.7.5 1.1.6.7.2 1 .7 1 1.4 0 .3 0 .5-.2.8-.2.4-.6.6-1 .6-1 0-2.3-.7-3.8-2-.5-.3-1.6-1.4-3.3-3Zm14 5.1c-1.2 0-2.3-.4-3.2-1.3-1-1-1.6-2.2-1.6-3.8 0-1.5.4-2.9 1.2-4 1-1.4 2.5-2.1 4.4-2.1 1.3 0 2.4.5 3.2 1.6a6 6 0 0 1 1.1 3.7c0 1.6-.4 3-1.3 4a4.6 4.6 0 0 1-3.8 2Zm.6-8.5c-.8 0-1.5.3-2 1.1-.4.7-.6 1.4-.6 2.3 0 .8.3 1.4.7 1.9.4.3.8.5 1.3.5.6 0 1.1-.2 1.6-.6.5-.5.7-1.1.8-2 0-2.1-.5-3.2-1.8-3.2Zm11.1 8.3c-1 0-1.8-.1-2.7-.5-.3.3-.6.4-1 .4-.3 0-.6-.1-.9-.4-.2-.2-.4-.5-.4-.9a13.5 13.5 0 0 1 0-1.5V261c0-.5.2-1 .4-1.3.3-.5.7-.8 1.2-.8.7 0 1 .4 1 1.2v4.9c.5-.4 1-.6 1.5-.7.4-.2.9-.2 1.3-.2 1.6 0 3 .6 4 1.7a6 6 0 0 1 1.3 4c0 1.6-.5 3-1.6 4a5.4 5.4 0 0 1-4 1.7Zm.4-8.8-1.2.3c-.5.2-1 .5-1.6 1v4.3c1 .4 1.8.6 2.4.6.9 0 1.6-.3 2.2-.9a3 3 0 0 0 .8-2.2c0-.9-.2-1.6-.7-2.2-.5-.6-1-.9-1.9-.9Zm9.6-4c-.5 0-.9 0-1.2-.4-.3-.3-.5-.6-.5-1 0-.5.2-.8.5-1.1.3-.3.7-.5 1.2-.5.4 0 .8.2 1 .5.4.3.6.6.6 1 0 .5-.2.8-.5 1.1-.3.3-.7.5-1.1.5Zm.8 7.6a88.5 88.5 0 0 0 .1 3.7c0 .4-.1.8-.4 1-.3.3-.6.4-1 .4s-.8-.1-1-.4c-.3-.2-.4-.6-.4-1a66.7 66.7 0 0 0-.1-3.7l.1-2.3.1-2.3c0-.4.1-.7.4-1 .3-.2.6-.3 1-.3s.8 0 1 .3c.3.3.4.6.4 1v2.3l-.2 2.3Zm7.9 5.3c-1.7 0-3-.4-4-1.2-1.2-.9-1.8-2-1.8-3.6a7 7 0 0 1 1.4-4.4c1-1.4 2.4-2 4.1-2 1.2 0 2.2.2 3 .6 1 .5 1.5 1.3 1.5 2.3 0 .8-.4 1.4-1.3 2-.3.3-1.1.7-2.3 1.2l-3.4 1.5c.3.4.7.6 1.2.8.4.2 1 .3 1.6.3.9 0 1.7-.2 2.3-.6a3 3 0 0 1 1.4-.5c.7 0 1 .4 1 1 0 .8-.5 1.5-1.7 2-1 .4-2 .6-3 .6Zm-.3-8.7c-.6 0-1.2.2-1.6.6-.5.4-.8 1-1.1 2a747.1 747.1 0 0 1 4.5-2.2c-.5-.3-1-.4-1.8-.4Zm14.1 0a15 15 0 0 1-1 0h-1a158 158 0 0 1 .2 6.5c0 1.6-.5 2.4-1.5 2.4-.4 0-.7-.2-1-.4-.2-.2-.4-.5-.4-1a30.4 30.4 0 0 1 0-2.1l-.1-5.3-2-.2c-.8-.1-1.2-.5-1.2-1.3a1.3 1.3 0 0 1 1.4-1.4l1.7.1a44.7 44.7 0 0 0 0-2c0-.5 0-.8.3-1 .3-.3.7-.4 1-.4 1 0 1.6.8 1.6 2.5v.9a7.6 7.6 0 0 1 2.6 0c.5.2.8.6.8 1.3 0 .4-.1.7-.4 1-.3.2-.6.3-1 .3Zm11.5 8.9c-.3 0-.8-.4-1.5-1l-1.6.6a4 4 0 0 1-1.3.3c-1.6 0-2.9-.5-3.7-1.4-.8-.8-1.2-2.2-1.2-4 0-1.6.6-3 1.8-4.1a6 6 0 0 1 4.4-1.8c.6 0 1.4.2 2.2.5 1 .5 1.6 1 1.6 1.6 0 .2 0 .5-.2.6l-.2 1a17.3 17.3 0 0 0 .2 4.3 31.8 31.8 0 0 0 .9 2.1c0 .4-.2.7-.4 1-.3.2-.6.3-1 .3Zm-2.5-7a7.6 7.6 0 0 1 .2-1.8 1.8 1.8 0 0 0-.7-.2c-1 0-1.7.4-2.4 1.1-.7.8-1 1.6-1 2.6 0 .9 0 1.6.4 2 .4.5.8.7 1.5.7a3.5 3.5 0 0 0 2.3-.8 32 32 0 0 1-.3-3.7Z"/></g><defs><clipPath id="a"><path fill="#fff" d="M0 0h177v307H0z"/></clipPath><clipPath id="b"><path fill="#fff" d="M26 0h125v243H26z"/></clipPath></defs></svg>