<svg width="400" height="70" viewBox="0 0 400 70" fill="none" xmlns="http://www.w3.org/2000/svg">
<path d="M2.96387 16.1328C2.96387 8.95311 8.78417 3.13281 15.9639 3.13281H383.964C391.144 3.13281 396.964 8.95311 396.964 16.1328V53.1328C396.964 60.3125 391.144 66.1328 383.964 66.1328H15.9639C8.78417 66.1328 2.96387 60.3125 2.96387 53.1328V16.1328Z" fill="#E9E9E9"/>
<path d="M114.214 -0.0078125C115.14 -0.00971397 116.002 0.279911 116.761 0.742188L117.511 1.19531L118.229 1.64844L118.87 1.44531L119.62 1.21094C120.155 1.04538 120.693 0.906658 121.229 0.773438L122.729 0.398438C123.845 0.121579 124.906 0.379282 125.792 0.945312L126.542 1.42969L127.042 1.74219L127.511 1.49219L128.261 1.08594C129.057 0.651052 129.943 0.410785 130.886 0.492188L131.636 0.570312L132.386 0.632812C133.178 0.701523 133.932 0.936904 134.636 1.30469L135.386 1.69531L135.964 2.00781L136.542 1.69531L137.292 1.30469C138.023 0.922389 138.815 0.68836 139.651 0.664062L140.401 0.648438L141.151 0.617188C141.67 0.602894 142.195 0.599989 142.714 0.601562H144.214C144.68 0.603036 145.154 0.60774 145.62 0.585938L146.37 0.539062L147.12 0.507812C147.588 0.485915 148.058 0.457479 148.526 0.414062L149.276 0.335938L150.026 0.273438C151.03 0.180393 151.957 0.463824 152.761 0.960938L153.511 1.42969L153.901 1.67969L154.339 1.38281L155.089 0.867188L155.901 0.445312C156.468 0.233217 157.073 0.175632 157.683 0.289062L158.604 0.585938L160.104 1.33594C160.456 1.50943 160.783 1.62007 161.089 1.67969L161.839 1.82031L162.589 1.97656H162.636C162.654 1.9729 162.701 1.95439 162.776 1.91406L163.526 1.50781L164.276 1.11719L165.151 0.789062C165.737 0.651251 166.331 0.663368 166.901 0.835938L167.745 1.21094L168.495 1.66406L168.839 1.88281L169.276 1.57031L170.026 1.02344C170.672 0.551028 171.449 0.227285 172.292 0.210938L173.151 0.304688L173.901 0.460938L174.651 0.632812C175.264 0.770123 175.867 0.968874 176.464 1.21094L177.214 1.50781L177.964 1.82031C178.084 1.86874 178.15 1.8526 178.214 1.83594L178.964 1.64844L179.714 1.44531C180.495 1.24275 181.295 1.2148 182.089 1.36719L182.839 1.50781L183.589 1.66406C183.687 1.68305 183.801 1.68203 183.964 1.61719L184.714 1.30469L185.464 1.00781C186.286 0.676329 187.13 0.656139 187.917 0.898438L188.683 1.22656L189.433 1.63281L189.979 1.94531L190.526 1.66406L191.276 1.27344C191.928 0.93108 192.616 0.678749 193.323 0.539062L194.073 0.382812L194.823 0.242188C195.913 0.0278766 196.937 0.301362 197.792 0.851562L199.292 1.82031C199.308 1.83075 199.327 1.84522 199.339 1.85156L200.011 1.69531L200.761 1.52344C201.126 1.43968 201.512 1.30692 201.901 1.13281L202.651 0.804688L203.401 0.460938L204.308 0.195312C204.914 0.104065 205.506 0.195776 206.058 0.414062L206.854 0.835938L208.354 1.86719C208.4 1.89899 208.427 1.93495 208.448 1.94531L209.151 1.82031L209.901 1.71094C210.254 1.65556 210.62 1.55696 210.995 1.41406L211.745 1.11719L212.495 0.835938L213.292 0.632812C214.077 0.509621 214.86 0.63571 215.589 0.992188L216.339 1.36719L217.058 1.71094L217.729 1.44531L218.479 1.14844C219.067 0.91591 219.66 0.725203 220.261 0.585938L221.011 0.414062L221.761 0.226562C222.644 0.0220369 223.54 0.0846505 224.386 0.382812L225.886 0.914062C226.145 1.0045 226.374 1.03704 226.589 1.02344L228.089 0.929688C228.441 0.907269 228.8 0.845623 229.167 0.742188L229.917 0.523438L230.667 0.320312C231.728 0.0205944 232.772 0.190489 233.683 0.695312L234.433 1.11719L235.183 1.52344C235.261 1.56695 235.305 1.58553 235.308 1.58594L236.058 1.42969L236.808 1.25781C237.244 1.16589 237.68 1.04944 238.12 0.914062L238.87 0.695312L239.62 0.460938C240.325 0.243936 241.057 0.136356 241.792 0.164062L243.292 0.226562C243.872 0.248528 244.45 0.307033 245.026 0.398438L245.776 0.523438L246.526 0.632812C247.213 0.741632 247.88 0.95266 248.526 1.24219L249.276 1.57031L249.776 1.80469L250.354 1.41406L251.104 0.914062C251.872 0.400913 252.763 0.0709205 253.745 0.0859375H254.495L255.245 0.101562C255.722 0.108847 256.206 0.110584 256.683 0.101562L258.183 0.0703125C258.879 0.0577846 259.569 0.149732 260.245 0.335938L260.995 0.539062L261.745 0.757812C262.187 0.879562 262.635 0.975712 263.073 1.05469L263.823 1.17969L264.573 1.32031C265.037 1.40381 265.5 1.47999 265.964 1.53906L267.464 1.72656C267.65 1.75024 267.848 1.73831 268.073 1.66406L269.573 1.16406C270.111 0.984239 270.658 0.822139 271.198 0.679688L272.698 0.273438C273.481 0.0672312 274.292 0.0443371 275.089 0.195312L276.589 0.476562C276.835 0.522784 277.076 0.525802 277.323 0.476562L278.073 0.320312L278.823 0.179688C279.641 0.0167841 280.462 0.0450908 281.261 0.273438L282.761 0.710938C283.307 0.867928 283.858 1.04189 284.401 1.24219L285.151 1.52344L285.87 1.80469L285.901 1.78906L286.651 1.46094L287.401 1.11719C288.029 0.837404 288.68 0.63515 289.339 0.507812L290.089 0.367188L290.839 0.210938C291.65 0.0551866 292.469 0.0970446 293.261 0.320312L294.011 0.539062L294.761 0.742188C295.186 0.861867 295.607 0.956506 296.026 1.02344L296.776 1.14844L297.526 1.25781C297.979 1.32998 298.434 1.39089 298.886 1.42969L300.386 1.55469C300.761 1.58692 301.135 1.59165 301.511 1.55469L303.011 1.39844C303.703 1.32966 304.404 1.36264 305.089 1.49219L305.839 1.63281L306.526 1.77344C306.542 1.76722 306.574 1.75598 306.62 1.72656L308.12 0.757812C308.61 0.440895 309.206 0.196234 309.87 0.164062C310.203 0.14827 310.521 0.197681 310.823 0.273438L311.683 0.601562L312.433 1.02344L313.042 1.36719L313.636 1.08594L314.386 0.742188C315.249 0.348979 316.197 0.234089 317.151 0.445312L317.901 0.601562L318.651 0.773438C319.011 0.852552 319.365 0.882198 319.714 0.882812L320.464 0.898438H321.214C322.033 0.899455 322.822 1.08725 323.558 1.42969L324.308 1.77344L325.058 2.13281C325.257 2.22486 325.395 2.22217 325.495 2.21094L326.995 2.05469C327.472 2.00132 327.955 1.9367 328.433 1.86719L329.933 1.64844C330.273 1.59829 330.629 1.50903 330.995 1.36719L332.495 0.773438C333.282 0.469459 334.116 0.35262 334.964 0.460938L335.714 0.570312L336.464 0.664062C337.145 0.752099 337.817 0.931866 338.464 1.19531L339.214 1.50781L339.964 1.80469L340.011 1.82031C340.014 1.81965 340.026 1.8259 340.042 1.82031L340.792 1.53906L341.542 1.27344C342.35 0.98444 343.203 0.907584 344.058 1.05469L345.558 1.30469C346.134 1.40402 346.706 1.54192 347.276 1.71094L348.026 1.92969L348.667 2.13281L349.401 1.66406L350.151 1.19531C350.646 0.886553 351.242 0.670636 351.901 0.648438C352.562 0.62713 353.163 0.812252 353.683 1.10156L354.433 1.50781L355.183 1.92969C355.447 2.07678 355.647 2.12644 355.792 2.13281L356.542 2.16406L357.292 2.17969C357.442 2.18581 357.63 2.16577 357.87 2.05469L358.62 1.71094L359.37 1.35156C360.355 0.895192 361.425 0.866138 362.448 1.27344L363.948 1.86719C364.076 1.91829 364.156 1.91646 364.229 1.89844L365.729 1.52344C366.387 1.3598 367.057 1.26894 367.729 1.27344L368.479 1.28906H369.229C369.488 1.29053 369.762 1.25044 370.058 1.14844L370.808 0.882812L371.558 0.632812C372.38 0.348425 373.243 0.2726 374.104 0.445312L375.604 0.757812C376.012 0.839958 376.421 0.890358 376.823 0.914062L377.573 0.960938L378.323 0.992188C378.716 1.01504 379.117 1.01619 379.511 0.976562L381.011 0.820312C381.723 0.748426 382.435 0.792306 383.136 0.945312L383.886 1.10156L384.636 1.27344C385.291 1.41725 385.917 1.64409 386.511 1.94531L387.167 2.27344L387.839 2.60156C387.965 2.66506 388.131 2.71455 388.37 2.71094L389.167 2.69531H389.979C390.827 2.68368 391.64 2.86932 392.401 3.24219L393.12 3.58594L393.854 3.94531C394.756 4.38955 395.323 5.11893 395.589 5.96094L395.761 6.83594L395.823 7.72656L395.87 8.44531L396.558 8.80469L397.37 9.24219C397.879 9.51438 398.393 9.91922 398.745 10.5234C399.108 11.1471 399.217 11.8265 399.151 12.4609L399.058 13.2734L398.979 14.1016C398.929 14.5887 398.904 15.0483 398.901 15.4766L398.886 16.2266V16.9766C398.881 17.7111 398.756 18.4367 398.511 19.1328L397.979 20.6328V20.6484L398.323 21.3984L398.651 22.1484C399.04 23.0212 399.159 23.9747 398.933 24.9297L398.745 25.6797L398.573 26.4297C398.542 26.5636 398.538 26.6935 398.589 26.8516L398.839 27.6016L399.073 28.3516C399.326 29.1375 399.407 29.953 399.276 30.7734L399.026 32.2734C398.959 32.6925 398.916 33.1231 398.901 33.5391L398.886 34.2891L398.854 35.0391C398.846 35.3142 398.877 35.5985 398.964 35.8984L399.401 37.3984C399.705 38.4425 399.558 39.4824 399.073 40.3984L398.683 41.1484L398.276 41.8984L398.511 42.5859L398.745 43.3359C398.971 44.0297 399.094 44.7506 399.089 45.4766V46.2266L399.073 46.9766C399.07 47.5224 399.052 48.0718 399.011 48.6172L398.948 49.3672L398.901 50.1172C398.853 50.751 398.732 51.3756 398.558 51.9922L398.354 52.7422L398.136 53.4766C398.007 53.9295 397.907 54.3575 397.823 54.7578L397.683 55.4297L397.542 56.1172C397.508 56.2859 397.484 56.5476 397.542 56.9297L397.667 57.7734L397.808 58.6328C397.954 59.6126 397.79 60.5931 397.276 61.4766L396.87 62.1641L396.479 62.8672C396.019 63.6586 395.353 64.2743 394.542 64.6953L393.823 65.0703L393.12 65.4453C392.381 65.8288 391.577 66.04 390.745 66.0703L389.948 66.0859L389.151 66.1172C388.785 66.1305 388.493 66.1977 388.276 66.2734L387.636 66.4922L386.979 66.7266C386.325 66.9555 385.642 67.0556 384.948 67.0547H383.526C383.471 67.0546 383.317 67.0762 383.058 67.2266L381.558 68.1016C381.05 68.3953 380.448 68.589 379.792 68.5859C379.138 68.5819 378.545 68.382 378.042 68.0859L377.292 67.6328L376.839 67.3672L376.37 67.6641L375.62 68.1484C374.658 68.7547 373.506 68.9554 372.354 68.5234L371.604 68.2266L370.854 67.9453C370.716 67.8931 370.62 67.9069 370.526 67.9297L369.776 68.1016L369.026 68.2891C368.153 68.5014 367.264 68.4617 366.417 68.1797L364.917 67.6797C364.612 67.5789 364.329 67.5232 364.058 67.5234L363.308 67.5391H362.558C362.006 67.5395 361.452 67.5186 360.901 67.4766L359.401 67.3516C359.357 67.3485 359.253 67.3505 359.058 67.4609L358.308 67.8984L357.558 68.3203C356.499 68.9267 355.288 68.9888 354.167 68.4297L353.417 68.0703L352.667 67.6953C352.606 67.6646 352.568 67.6501 352.558 67.6484H352.526L351.026 68.0234C350.507 68.1507 349.983 68.2736 349.464 68.3828L347.964 68.6953C347.318 68.8307 346.666 68.8826 346.011 68.8672L344.511 68.8359C343.841 68.82 343.178 68.7187 342.526 68.5391L341.026 68.1328C340.784 68.0659 340.56 68.0556 340.339 68.0859L339.589 68.1797L338.839 68.2891C338.326 68.3609 337.805 68.4306 337.292 68.4922L336.542 68.5859L335.792 68.6641C335.009 68.7579 334.233 68.6881 333.479 68.4609L332.729 68.2422L331.979 68.0078C331.76 67.9417 331.561 67.9301 331.37 67.9609L329.87 68.2109C329.142 68.3278 328.408 68.3181 327.683 68.1797L326.933 68.0234L326.183 67.8828C325.898 67.8283 325.618 67.828 325.339 67.8672L324.589 67.9766L323.839 68.0703C323.331 68.142 322.816 68.2237 322.308 68.2891L320.808 68.4766C320.383 68.5313 319.955 68.6069 319.526 68.7109L318.776 68.8984L318.026 69.0703C316.835 69.3596 315.738 69.0199 314.87 68.3828L314.12 67.8203L313.573 67.4297L313.167 67.6328L312.417 67.9922C311.348 68.5031 310.196 68.4779 309.151 67.9453L308.401 67.5547L307.651 67.1797L306.964 67.4141L306.214 67.6797C305.707 67.8545 305.19 68.027 304.683 68.1953L303.933 68.4453L303.183 68.6797C302.425 68.9309 301.636 69.0304 300.839 68.9453L299.339 68.7891C298.865 68.7385 298.391 68.698 297.917 68.6641L297.167 68.6016L296.417 68.5547C295.646 68.4995 294.899 68.2928 294.198 67.9609L293.448 67.6016L293.011 67.3828L292.479 67.7891L291.729 68.3359C291.26 68.6768 290.682 68.9533 290.011 69.0234C289.327 69.0941 288.689 68.9353 288.136 68.6484L286.636 67.8672L286.511 67.8203H286.495L284.995 68.1641C284.361 68.306 283.718 68.3785 283.073 68.3828H282.323L281.573 68.3984C280.898 68.4026 280.217 68.3155 279.558 68.1484L278.058 67.7734C277.667 67.6747 277.283 67.6004 276.901 67.5703L276.151 67.5078L275.401 67.4609C274.955 67.4259 274.504 67.3976 274.058 67.3984H273.308L272.558 67.4141C272.475 67.4147 272.326 67.4289 272.089 67.5703L270.589 68.4766C269.738 68.9866 268.745 69.2297 267.698 69.0391L266.198 68.7578C265.49 68.6286 264.806 68.3866 264.151 68.0547L263.401 67.6797L262.698 67.3203L262.058 67.6016L261.308 67.8984C260.608 68.1806 259.871 68.3414 259.12 68.3672L257.62 68.4297C256.761 68.4583 255.941 68.2525 255.183 67.8828L254.433 67.5078L253.745 67.1797L253.089 67.4609L252.339 67.7891C251.377 68.2009 250.345 68.239 249.354 67.8672L247.854 67.3047C247.575 67.1994 247.319 67.1599 247.089 67.1641H246.339L245.589 67.1797C245.021 67.1898 244.453 67.1821 243.886 67.1328L243.136 67.0547L242.386 66.9922C241.997 66.9583 241.602 66.9608 241.214 66.9922L239.714 67.1172C239.58 67.1286 239.379 67.182 239.104 67.3516L238.354 67.8047L237.604 68.2734C236.846 68.7416 235.987 69.0372 235.058 69.0391H233.558C232.878 69.0402 232.204 68.9489 231.542 68.7734L230.792 68.5703L230.042 68.3828C229.445 68.2246 228.86 68.0067 228.276 67.7578L227.526 67.4453L226.776 67.1172C226.661 67.0681 226.606 67.0896 226.558 67.1016L225.058 67.4766C224.604 67.5923 224.139 67.7318 223.683 67.8828L222.933 68.1172L222.183 68.3672C221.487 68.5972 220.771 68.7167 220.042 68.7109H219.292L218.542 68.6953C217.99 68.6908 217.437 68.6649 216.886 68.6172L215.386 68.4922C214.755 68.4375 214.128 68.3239 213.511 68.1484L212.761 67.9297L212.011 67.7266C211.664 67.6281 211.323 67.5638 210.995 67.5547L209.495 67.5234C209.409 67.5218 209.267 67.538 209.042 67.6641L207.542 68.5078C206.795 68.9286 205.968 69.1811 205.089 69.1953L203.589 69.2266C202.628 69.2419 201.746 68.9364 200.979 68.4453L200.229 67.9609L199.714 67.6328L199.276 67.8828L198.526 68.3047C197.661 68.7801 196.673 68.9704 195.651 68.7578L194.151 68.4453C193.744 68.3601 193.335 68.3144 192.933 68.2891L192.183 68.2266L191.433 68.1797C191.059 68.1562 190.683 68.1789 190.308 68.2266L188.808 68.4141C188.292 68.4794 187.776 68.5337 187.261 68.5859L185.761 68.7422C184.949 68.8244 184.148 68.7179 183.386 68.4453L182.636 68.1797L181.886 67.8984C181.627 67.8057 181.394 67.7755 181.183 67.7891L180.433 67.8516L179.683 67.8984C178.983 67.9431 178.289 67.8709 177.604 67.7109L176.104 67.3672C175.995 67.3416 175.879 67.3444 175.729 67.3984L174.229 67.9297C173.705 68.1192 173.177 68.3111 172.651 68.4766L171.151 68.9453C170.369 69.1906 169.559 69.247 168.745 69.1172L167.995 69.0078L167.245 68.8828C166.885 68.8251 166.523 68.8013 166.167 68.8203L164.667 68.9141C164.036 68.9482 163.404 68.9107 162.776 68.8203L161.276 68.6016C160.866 68.5421 160.45 68.5118 160.042 68.5078H159.292L158.542 68.4922C157.932 68.4865 157.319 68.4412 156.714 68.3359L155.964 68.1953L155.214 68.0703C155.006 68.0342 154.798 68.0412 154.573 68.1016L153.073 68.5078C151.972 68.8026 150.91 68.5736 150.011 68.0234L149.261 67.5547L148.901 67.3359L148.479 67.6484L147.729 68.1953C146.843 68.8398 145.727 69.1687 144.526 68.8359L143.026 68.4297C142.876 68.3878 142.739 68.3883 142.589 68.4297L141.089 68.8359C140.021 69.1313 138.979 68.9432 138.073 68.4297L136.573 67.5859L136.433 67.5234L134.933 67.8047C134.488 67.8886 134.037 67.9951 133.589 68.1172L132.089 68.5234C131.292 68.7409 130.463 68.7671 129.651 68.6016L128.901 68.4453L128.151 68.3047C127.673 68.2071 127.192 68.1056 126.714 68.0234L125.214 67.7734C124.898 67.7194 124.588 67.7087 124.276 67.7422L122.776 67.8984C122.249 67.9558 121.71 68.0038 121.183 68.0391L120.433 68.0859L119.683 68.1484C119.393 68.1685 119.087 68.2288 118.761 68.3516L117.261 68.9141C116.471 69.2117 115.639 69.3235 114.792 69.2109L114.042 69.1172L113.292 69.0078C112.486 68.9004 111.723 68.6106 111.026 68.1953L110.276 67.7578L109.526 67.3047C109.301 67.1712 109.17 67.1627 109.104 67.1641L107.604 67.1953C107.56 67.1964 107.43 67.216 107.183 67.3828L105.683 68.3828C104.778 68.9938 103.659 69.2827 102.495 68.9453L100.995 68.5078C100.705 68.4241 100.432 68.3849 100.167 68.3984L98.667 68.4922C98.0641 68.5242 97.4562 68.5068 96.8545 68.4453L95.3545 68.2891C94.7377 68.226 94.1166 68.1146 93.5107 67.9453L92.7607 67.7266L92.0107 67.5234C91.8046 67.4667 91.6209 67.4578 91.4326 67.4922L89.9326 67.7734C89.2984 67.8925 88.6521 67.9449 88.0107 67.9297L86.5107 67.8984C85.8823 67.8834 85.2556 67.7983 84.6357 67.6641L83.8857 67.5078L83.2295 67.3516C83.2192 67.3578 83.2119 67.3735 83.1982 67.3828L82.4482 67.9141L81.6982 68.4297C81.1852 68.7852 80.5342 69.0426 79.792 69.0391C79.0527 69.0344 78.4091 68.7707 77.9014 68.4141L77.1514 67.8828L76.667 67.5391L76.2607 67.7578L75.5107 68.1641C74.7596 68.5693 73.9315 68.82 73.0576 68.8203H71.5576C70.9149 68.8204 70.2693 68.7517 69.6357 68.6172L68.8857 68.4453L68.1357 68.2891C67.5124 68.1564 66.8958 67.9598 66.292 67.7109L65.542 67.4141L65.1045 67.2266L64.5264 67.6797L63.7764 68.2578C63.0077 68.8474 62.0653 69.2439 60.9951 69.2109L60.2451 69.1953L59.4951 69.1641C59.0475 69.1502 58.5991 69.1588 58.1514 69.1797L57.4014 69.2109L56.6514 69.2578C55.8756 69.2941 55.1161 69.1591 54.3857 68.8984L52.8857 68.3672C52.6128 68.2698 52.3637 68.2327 52.1357 68.2422L50.6357 68.3047C50.2542 68.3207 49.8686 68.3764 49.4795 68.4609L48.7295 68.6172L47.9795 68.7891C47.1659 68.9655 46.3441 68.9418 45.542 68.7266L44.042 68.3203C43.8422 68.2664 43.651 68.2653 43.4639 68.3047L41.9639 68.6172C40.9316 68.8333 39.9393 68.6201 39.0732 68.1328L37.5732 67.2891C37.5224 67.2608 37.4894 67.2605 37.4795 67.2578L36.7607 67.4297L36.0107 67.6016C35.5231 67.7139 35.0297 67.8252 34.542 67.9453L33.042 68.3203C32.3531 68.49 31.6381 68.549 30.9326 68.5078L30.1826 68.4609L29.4326 68.4297C28.6835 68.3851 27.9537 68.1965 27.2607 67.8984L26.5107 67.5703L25.9014 67.3047L25.2607 67.6641L24.5107 68.0703C23.7799 68.4672 22.9792 68.7218 22.1357 68.7578L20.6357 68.8203C19.8738 68.8521 19.1226 68.7249 18.4014 68.4766L17.6514 68.2266L16.9014 67.9609C16.4575 67.8083 16.0294 67.687 15.6201 67.5859L14.9014 67.4141L14.1826 67.2266C13.8378 67.1421 13.4801 67.1024 13.1201 67.0859L12.3857 67.0391L11.6514 67.0078C10.9942 66.9778 10.3407 66.8643 9.69824 66.6797L8.94824 66.4766L8.19824 66.2578C7.29124 65.9971 6.51122 65.4749 5.93262 64.7266L5.46387 64.1172L4.99512 63.4922C4.64566 63.0402 4.31221 62.5854 4.01074 62.1172L3.60449 61.4766L3.19824 60.8516C2.88724 60.3682 2.59564 59.8705 2.33887 59.3516L2.01074 58.6641L1.66699 57.9922C1.32735 57.3055 1.14052 56.569 1.08887 55.8047L1.04199 55.0391L0.979492 54.2891C0.955538 53.9308 0.897638 53.5631 0.791992 53.1953L0.354492 51.6953C0.167897 51.0443 0.0620965 50.3811 0.0419922 49.7109L0.0263672 48.9609L-0.00488281 48.2109C-0.0351353 47.1755 0.343046 46.247 0.901367 45.4766L1.44824 44.7266L1.96387 44.0234L1.79199 43.4766L1.55762 42.7266C1.33934 42.0062 1.25764 41.2582 1.30762 40.5078L1.40137 39.0078C1.43171 38.5506 1.44604 38.0898 1.44824 37.6328L1.46387 36.8828V36.1328C1.46671 35.5696 1.49889 35.0074 1.55762 34.4453L1.71387 32.9453C1.74225 32.6748 1.71915 32.3869 1.65137 32.1016L1.47949 31.3516L1.29199 30.6016C1.11816 29.8654 1.09084 29.1161 1.19824 28.3672L1.41699 26.8672C1.42088 26.8403 1.43081 26.7579 1.33887 26.5859L0.526367 25.0859C0.229675 24.5288 0.0750295 23.8776 0.151367 23.1797C0.22675 22.4938 0.517432 21.9129 0.870117 21.4453L1.43262 20.6953L1.63574 20.4297L1.40137 20.1484L0.807617 19.3984C0.44893 18.9476 0.145182 18.3698 0.0419922 17.6953C-0.0631891 17.0018 0.0686996 16.3349 0.354492 15.7578L0.713867 15.0234L1.08887 14.2734C1.28366 13.8794 1.43141 13.5163 1.52637 13.1797L1.71387 12.4609L1.91699 11.7578C2.02286 11.3812 2.10292 10.9622 2.16699 10.5078L2.29199 9.69531L2.40137 8.89844L2.65137 7.99219C3.00862 7.1622 3.67607 6.53944 4.54199 6.19531L5.33887 5.88281L6.12012 5.57031C6.51811 5.41262 6.82435 5.24563 7.04199 5.08594L7.60449 4.66406L8.18262 4.25781C8.61846 3.9381 9.06869 3.62891 9.54199 3.35156L10.167 2.99219L10.792 2.61719C11.1899 2.38393 11.6197 2.13329 12.0732 1.85156L13.4795 0.976562C13.7721 0.794982 14.1771 0.571131 14.6357 0.460938C15.0395 0.363972 16.0551 0.259255 16.8389 1.10156L17.3857 1.07031L18.1357 1.03906C18.9059 1.00797 19.6603 1.1398 20.3857 1.39844L21.8857 1.92969C21.9707 1.95987 22.0149 1.95401 22.0889 1.92969L22.8389 1.67969L23.5889 1.44531C24.4683 1.15607 25.3841 1.13832 26.2764 1.39844L27.7764 1.83594H27.8232C27.8348 1.83432 27.869 1.82575 27.917 1.80469L29.417 1.14844C30.1149 0.843128 30.8464 0.658231 31.6045 0.617188L32.3545 0.570312L33.1045 0.539062C33.6402 0.510248 34.178 0.491003 34.7139 0.492188H36.2139C36.7699 0.493509 37.3304 0.522185 37.8857 0.570312L39.3857 0.695312C39.7526 0.727121 40.1272 0.721531 40.4951 0.679688L41.2451 0.601562L41.9951 0.507812C42.8385 0.413251 43.6679 0.54526 44.4482 0.851562L45.9482 1.44531H46.0264L47.5264 0.882812C48.2029 0.633384 48.9063 0.480628 49.6201 0.445312L51.1201 0.382812C51.6046 0.358814 52.0887 0.321733 52.5732 0.289062L54.0732 0.195312C54.9932 0.133221 55.8662 0.354505 56.6514 0.773438L57.4014 1.16406L58.1514 1.57031C58.4572 1.73371 58.7243 1.80786 58.9482 1.83594L60.4482 2.02344C60.7796 2.06361 61.1162 2.06664 61.4482 2.02344L62.1982 1.91406L62.9482 1.82031C63.2152 1.78521 63.5124 1.69716 63.8389 1.53906L65.3389 0.820312C66.0487 0.476293 66.817 0.330307 67.5889 0.429688L68.3545 0.617188L69.8545 1.11719C70.2518 1.25104 70.6419 1.35135 71.0264 1.41406L71.7764 1.53906L72.5264 1.64844C72.8224 1.69643 73.1222 1.70745 73.417 1.66406L74.167 1.55469L74.917 1.42969C75.73 1.30898 76.5441 1.38511 77.3232 1.63281L78.0732 1.88281L78.8232 2.11719H78.8701C78.8802 2.11444 78.896 2.11039 78.917 2.10156L80.417 1.44531L81.1826 1.21094C81.9601 1.04695 82.7544 1.13094 83.5107 1.46094L84.2607 1.78906L84.917 2.08594L85.5889 1.74219L86.3389 1.38281C87.2313 0.946198 88.2153 0.810587 89.2139 1.07031L89.9639 1.25781L90.7139 1.46094H90.7451L91.5576 1.05469L92.3076 0.664062C93.1601 0.23348 94.1112 0.0701013 95.0889 0.257812L96.5889 0.539062C96.8787 0.594929 97.1646 0.606429 97.4482 0.570312L98.9482 0.382812C99.8044 0.27146 100.655 0.384382 101.448 0.695312L102.948 1.28906C103.355 1.44819 103.759 1.56114 104.151 1.64844L105.651 1.99219C105.827 2.03061 105.996 2.02651 106.183 1.97656L107.683 1.57031C108.09 1.45928 108.513 1.31205 108.933 1.13281L109.683 0.804688L110.433 0.492188C111.156 0.183554 111.925 0.0107473 112.714 0.0078125H113.464L114.214 -0.0078125ZM113.464 4.00781H112.714C112.506 4.0096 112.268 4.04774 111.995 4.16406L111.245 4.49219L110.495 4.80469C109.917 5.05153 109.336 5.2685 108.745 5.42969L107.245 5.83594C106.436 6.05659 105.597 6.08098 104.776 5.89844L103.276 5.55469C102.672 5.4201 102.07 5.23932 101.479 5.00781L99.9795 4.41406C99.778 4.33585 99.6204 4.33425 99.4795 4.35156L97.9795 4.53906C97.2669 4.63174 96.5452 4.61224 95.8389 4.47656L95.0889 4.32031L94.3389 4.17969C94.3177 4.1756 94.2651 4.1694 94.1201 4.24219L92.6201 4.99219C91.7265 5.44356 90.7244 5.59814 89.7139 5.33594L88.2139 4.92969H88.1982C88.1979 4.92973 88.1555 4.94393 88.0889 4.97656L87.3389 5.33594L86.5889 5.71094C85.5755 6.20512 84.4653 6.2314 83.417 5.77344L82.667 5.44531L81.9639 5.13281L81.2607 5.44531L80.5107 5.77344C79.5866 6.17216 78.5824 6.2406 77.6045 5.92969L76.8545 5.67969L76.1045 5.44531C75.8863 5.37654 75.6957 5.37133 75.5107 5.39844L74.0107 5.61719C73.3091 5.72135 72.6017 5.71435 71.9014 5.60156L70.4014 5.35156C69.7886 5.25223 69.1729 5.10064 68.5732 4.89844L67.8232 4.64844L67.0889 4.39844V4.41406L66.3389 4.77344L65.5889 5.14844C64.9171 5.47396 64.2105 5.6924 63.4795 5.78906L62.7295 5.88281L61.9795 5.99219C61.3153 6.07952 60.6443 6.07228 59.9795 5.99219L59.2295 5.89844L58.4795 5.82031C57.7067 5.72663 56.966 5.46941 56.2764 5.10156L55.5264 4.69531L54.7764 4.30469C54.5675 4.19308 54.434 4.17525 54.3545 4.17969L52.8545 4.27344C52.3426 4.30799 51.8196 4.34186 51.3076 4.36719L50.5576 4.41406L49.8076 4.44531C49.5252 4.45982 49.221 4.51466 48.9014 4.63281L47.4014 5.19531C46.439 5.54945 45.4305 5.53734 44.4795 5.16406L42.9795 4.57031C42.7641 4.48641 42.5856 4.47479 42.4326 4.49219L41.6826 4.57031L40.9326 4.66406C40.3032 4.73512 39.6724 4.73432 39.042 4.67969L37.542 4.55469C37.0992 4.5163 36.656 4.49337 36.2139 4.49219H34.7139C34.2521 4.49109 33.7852 4.49863 33.3232 4.52344L32.5732 4.57031L31.8232 4.60156C31.584 4.61443 31.3106 4.67322 31.0107 4.80469L30.2607 5.14844L29.5107 5.47656C28.6055 5.87151 27.6222 5.9471 26.6514 5.66406L25.1514 5.22656C25.0453 5.19622 24.9581 5.20299 24.8389 5.24219L24.0889 5.49219L23.3389 5.72656C22.413 6.03107 21.4565 6.02137 20.542 5.69531L19.042 5.16406C18.7687 5.06663 18.5204 5.02968 18.292 5.03906L16.792 5.10156C16.4617 5.11494 16.0764 5.10151 15.6982 5.02344C15.5155 4.98548 15.2529 4.89577 14.9639 4.74219L14.8857 4.80469L14.1826 5.24219C13.7021 5.54069 13.2404 5.8167 12.8076 6.07031L12.1826 6.44531L11.5576 6.80469C11.2008 7.01397 10.8638 7.24041 10.542 7.47656L9.97949 7.89844L9.40137 8.30469C8.8613 8.70096 8.25627 9.03035 7.60449 9.28906L6.80762 9.60156L6.29199 9.78906L6.24512 10.2578L6.13574 11.0547C6.04916 11.6709 5.9202 12.2686 5.76074 12.8359L5.57324 13.5391L5.37012 14.2578C5.19986 14.8628 4.96027 15.4625 4.66699 16.0547L4.30762 16.8047L4.12012 17.1484L4.52637 17.6484L5.12012 18.3984C5.51475 18.8945 5.85282 19.5564 5.87012 20.3516C5.88664 21.1535 5.57185 21.8356 5.18262 22.3516L4.62012 23.1016L4.24512 23.5703L4.46387 23.9609L4.85449 24.7109C5.29574 25.5376 5.50985 26.4585 5.37012 27.4297L5.15137 28.9297C5.11604 29.1742 5.12226 29.4225 5.18262 29.6797L5.37012 30.4297L5.54199 31.1797C5.71151 31.8934 5.75873 32.623 5.68262 33.3516L5.52637 34.8516C5.48108 35.2833 5.46619 35.7178 5.46387 36.1484V36.8984L5.44824 37.6484C5.44564 38.1876 5.43713 38.7346 5.40137 39.2734L5.33887 40.0234L5.29199 40.7734C5.27541 41.0225 5.30111 41.2912 5.38574 41.5703L5.62012 42.3203L5.83887 43.0703C6.20574 44.2827 5.88479 45.4187 5.22949 46.3203L4.13574 47.8203C4.05179 47.9361 4.02395 48.0171 4.01074 48.0547C4.00497 48.0712 3.99593 48.0809 3.99512 48.0859L4.02637 48.8359L4.04199 49.5859C4.05152 49.9121 4.09883 50.2555 4.19824 50.6016L4.63574 52.1016C4.81655 52.7325 4.93615 53.3752 4.97949 54.0234L5.02637 54.7734L5.07324 55.5391C5.08985 55.7782 5.15508 55.9964 5.26074 56.2109L5.58887 56.8984L5.93262 57.5703C6.12249 57.954 6.33041 58.3259 6.55762 58.6797L6.96387 59.3203L7.37012 59.9453C7.60787 60.3148 7.86846 60.6888 8.15137 61.0547L8.63574 61.6641L9.10449 62.2734C9.15956 62.3447 9.21336 62.387 9.30762 62.4141L10.0576 62.6328L10.8076 62.8359C11.1628 62.9377 11.4987 63.0081 11.8232 63.0234L12.5732 63.0547L13.3076 63.0859C13.9297 63.1143 14.5483 63.2029 15.1514 63.3516L15.8545 63.5234L16.5732 63.6953C17.1111 63.8279 17.6617 63.9896 18.2139 64.1797L18.9639 64.4453L19.7139 64.6953C19.9866 64.7887 20.231 64.8294 20.4639 64.8203L21.9639 64.7578C22.1204 64.7511 22.3353 64.7009 22.6045 64.5547L24.1045 63.7422L24.8857 63.4141C25.4185 63.2592 25.9733 63.2359 26.5264 63.3359L27.3389 63.5859L28.0889 63.8984L28.8389 64.2266C29.1414 64.3567 29.42 64.4146 29.667 64.4297L31.167 64.5234C31.4603 64.5406 31.7634 64.5056 32.0732 64.4297L32.8232 64.2422L33.5732 64.0703C34.0824 63.9449 34.5952 63.8126 35.1045 63.6953L36.6045 63.3516C37.6485 63.1111 38.6631 63.3102 39.542 63.8047L41.042 64.6484L41.1514 64.6953L42.6514 64.3828C43.4609 64.2137 44.2764 64.2464 45.0732 64.4609L46.5732 64.8672C46.7684 64.9198 46.9521 64.9227 47.1357 64.8828L47.8857 64.7109L48.6357 64.5547C49.2445 64.4227 49.8632 64.3459 50.4795 64.3203L51.9795 64.2578C52.7495 64.2267 53.5043 64.3428 54.2295 64.6016L55.7295 65.1328C55.9992 65.2291 56.2396 65.2683 56.4639 65.2578L57.2139 65.2266L57.9639 65.1797C58.515 65.1539 59.0688 65.1627 59.6201 65.1797L60.3701 65.1953L61.1201 65.2266V65.2109C61.1531 65.198 61.229 65.1699 61.3389 65.0859L62.8389 63.9297L63.6045 63.4609C64.1468 63.2107 64.7465 63.0989 65.3701 63.1641L66.3232 63.3984L67.8232 64.0234C68.2132 64.1838 68.5931 64.3036 68.9639 64.3828L70.4639 64.6953C70.8303 64.7731 71.2004 64.8204 71.5576 64.8203H73.0576C73.183 64.82 73.3577 64.7814 73.6045 64.6484L75.1045 63.8359C75.647 63.5433 76.2811 63.3752 76.9639 63.4297C77.6364 63.4845 78.2211 63.7519 78.6982 64.0859L79.4482 64.6172L79.8076 64.8516L80.167 64.6172L80.917 64.1016C81.7788 63.5044 82.8365 63.1822 83.9795 63.4297L84.7295 63.6016L85.4795 63.7578C85.8587 63.84 86.2338 63.8896 86.6045 63.8984L88.1045 63.9297C88.461 63.9382 88.819 63.9039 89.1826 63.8359L90.6826 63.5547C91.4884 63.4034 92.3016 63.445 93.0889 63.6641L93.8389 63.8828L94.5889 64.0859C94.983 64.196 95.3775 64.2655 95.7607 64.3047L97.2607 64.4609C97.6573 64.5015 98.0528 64.5131 98.4482 64.4922L99.1982 64.4453L99.9482 64.4141C100.681 64.3752 101.414 64.4593 102.12 64.6641L102.87 64.8828L103.448 65.0391L104.183 64.5703L104.933 64.0547C105.684 63.5474 106.555 63.2177 107.511 63.1953L109.011 63.1641C109.942 63.1425 110.806 63.4113 111.573 63.8672L112.323 64.3203L113.073 64.7578C113.376 64.9382 113.63 65.0134 113.823 65.0391L114.573 65.1484L115.323 65.2422C115.476 65.262 115.646 65.2583 115.854 65.1797L116.604 64.8984L117.354 64.6016C118.022 64.3505 118.713 64.1961 119.417 64.1484L120.917 64.0547C121.389 64.0232 121.867 63.981 122.339 63.9297L123.089 63.8516L123.839 63.7578C124.525 63.6831 125.22 63.7188 125.901 63.8359L127.401 64.0859C127.918 64.1747 128.432 64.2777 128.948 64.3828L129.698 64.5391L130.448 64.6797C130.636 64.7179 130.825 64.7186 131.026 64.6641L132.526 64.2578C133.076 64.1078 133.63 63.9715 134.183 63.8672L135.683 63.5859C136.708 63.3926 137.687 63.6167 138.542 64.1016L140.042 64.9453L140.073 64.9609L140.776 64.7734L141.526 64.5703C142.375 64.3362 143.241 64.3348 144.089 64.5703L144.839 64.7734L145.401 64.9297L146.12 64.4141L146.87 63.8672L147.698 63.4141C147.999 63.2952 148.328 63.2169 148.683 63.1953C149.044 63.1742 149.394 63.2158 149.714 63.3047L150.604 63.6953L152.104 64.6016H152.12L152.792 64.4453L153.542 64.2422C154.316 64.0347 155.11 63.9949 155.901 64.1328L157.401 64.3828C157.795 64.4513 158.185 64.4885 158.573 64.4922L159.323 64.5078H160.073C160.663 64.5133 161.252 64.5637 161.839 64.6484L163.339 64.8672C163.709 64.9208 164.081 64.9339 164.448 64.9141L165.198 64.8672L165.948 64.8359C166.591 64.8012 167.232 64.8278 167.87 64.9297L169.37 65.1797C169.553 65.2089 169.749 65.2003 169.964 65.1328L170.714 64.8828L171.464 64.6484C171.931 64.5013 172.401 64.3489 172.87 64.1797L173.62 63.8984L174.37 63.6328C175.22 63.3257 176.12 63.2683 177.011 63.4766L178.511 63.8203C178.825 63.8937 179.133 63.9176 179.433 63.8984L180.933 63.8047C181.719 63.7549 182.49 63.8684 183.229 64.1328L183.979 64.4141L184.729 64.6797C184.965 64.7642 185.168 64.7767 185.354 64.7578L186.104 64.6797L186.854 64.6172C187.338 64.5682 187.824 64.5066 188.308 64.4453L189.808 64.2578C190.431 64.179 191.057 64.1561 191.683 64.1953L193.183 64.2891C193.78 64.3266 194.372 64.4154 194.964 64.5391L196.464 64.8516C196.468 64.8508 196.511 64.8319 196.589 64.7891L198.089 63.9766L198.948 63.6328C199.249 63.5575 199.57 63.5237 199.901 63.5391C200.233 63.5547 200.548 63.6103 200.839 63.7109L201.636 64.1172L202.386 64.5859L203.136 65.0703C203.368 65.2193 203.49 65.2271 203.526 65.2266L205.026 65.1953C205.147 65.193 205.322 65.1651 205.573 65.0234L207.073 64.1797C207.84 63.7477 208.694 63.4995 209.604 63.5234L210.354 63.5391L211.104 63.5703C211.777 63.5891 212.451 63.6814 213.104 63.8672L214.604 64.3047C214.986 64.4129 215.361 64.4759 215.729 64.5078L217.229 64.6328C217.678 64.6717 218.126 64.6917 218.573 64.6953L219.323 64.7109H220.073C220.343 64.7131 220.629 64.6705 220.933 64.5703L221.683 64.3203L222.433 64.0859C222.974 63.9071 223.514 63.7403 224.058 63.6016L224.808 63.4141L225.558 63.2109C226.506 62.9692 227.459 63.0702 228.339 63.4453L229.089 63.7734L229.839 64.0859C230.255 64.2635 230.671 64.4011 231.073 64.5078L232.573 64.9141C232.909 65.0025 233.24 65.0397 233.558 65.0391H235.058C235.128 65.038 235.276 65.0126 235.511 64.8672L236.261 64.4141L237.011 63.9453C237.733 63.4991 238.537 63.2026 239.401 63.1328L240.901 63.0078C241.511 62.9589 242.12 62.9548 242.729 63.0078L243.479 63.0703L244.229 63.1484C244.66 63.1859 245.097 63.1874 245.526 63.1797L246.276 63.1641H247.026C247.794 63.151 248.542 63.2843 249.261 63.5547L250.761 64.1172L251.511 63.7891L252.261 63.4766L253.058 63.2266C253.596 63.1215 254.138 63.1388 254.667 63.2734L255.433 63.5547L256.183 63.9141L256.933 64.2891C257.172 64.4061 257.358 64.4344 257.495 64.4297L258.995 64.3672C259.242 64.3578 259.511 64.3147 259.808 64.1953L260.558 63.8828L261.308 63.5859L262.104 63.3516C262.908 63.2149 263.72 63.3494 264.464 63.7266L265.214 64.1172L265.964 64.4922C266.309 64.6669 266.626 64.7828 266.917 64.8359L267.667 64.9609L268.401 65.0859C268.417 65.0814 268.46 65.0789 268.526 65.0391L269.276 64.5859L270.026 64.1484C270.784 63.6944 271.641 63.4159 272.558 63.4141L273.308 63.3984H274.058C274.61 63.3975 275.162 63.4177 275.714 63.4609L277.214 63.5859C277.827 63.6342 278.438 63.7301 279.042 63.8828L279.792 64.0859L280.542 64.2734C280.882 64.3596 281.218 64.4003 281.542 64.3984L282.292 64.3828H283.042C283.396 64.3806 283.756 64.3393 284.12 64.2578L284.87 64.0859L285.62 63.9297C286.626 63.7045 287.606 63.8673 288.479 64.3203L289.229 64.7109L289.62 64.9141L290.136 64.5547L290.886 64.0078L291.683 63.5547C292.245 63.3222 292.856 63.2361 293.479 63.3359L294.417 63.6328L295.167 63.9922L295.917 64.3359C296.215 64.4768 296.471 64.5383 296.698 64.5547L297.448 64.6172L298.198 64.6641C298.719 64.7013 299.24 64.7492 299.761 64.8047L300.511 64.8828L301.261 64.9766C301.463 64.9982 301.69 64.9632 301.933 64.8828L302.683 64.6484L303.433 64.3984C303.922 64.2359 304.411 64.0672 304.901 63.8984L305.651 63.6328L306.401 63.3828L307.198 63.1953C307.982 63.0984 308.753 63.2533 309.464 63.6172L310.214 63.9922L310.823 64.3047L311.448 64.0234L312.198 63.6641L313.089 63.3828C313.4 63.3283 313.724 63.3091 314.058 63.3516C314.387 63.3938 314.698 63.4797 314.979 63.6016L315.745 64.0547L317.245 65.1484L317.839 65.0078L318.589 64.8203C319.157 64.6826 319.735 64.5815 320.308 64.5078L321.808 64.3203C322.297 64.2572 322.787 64.1863 323.276 64.1172L324.776 63.8984C325.496 63.7969 326.218 63.8242 326.933 63.9609L328.433 64.2422C328.705 64.2943 328.977 64.3011 329.245 64.2578L330.745 64.0078C331.551 63.8792 332.358 63.9451 333.136 64.1797L333.886 64.4141L334.636 64.6328C334.881 64.7064 335.108 64.7212 335.323 64.6953L336.073 64.6016L336.823 64.5234C337.308 64.4652 337.791 64.3883 338.276 64.3203L339.026 64.2266L339.776 64.1172C340.554 64.0082 341.333 64.0649 342.089 64.2734L343.589 64.6797C343.937 64.7757 344.274 64.8281 344.604 64.8359L346.104 64.8672C346.447 64.8753 346.799 64.8475 347.151 64.7734L348.651 64.4609C349.125 64.3612 349.599 64.2491 350.073 64.1328L350.823 63.9453L351.573 63.7734C352.574 63.528 353.563 63.6756 354.448 64.1172L355.198 64.4766L355.729 64.7422L356.308 64.4297L357.058 63.9922C357.852 63.5373 358.757 63.2942 359.714 63.3672L360.464 63.4297L361.214 63.4766C361.661 63.5106 362.111 63.5394 362.558 63.5391H363.308L364.058 63.5234C364.782 63.5232 365.492 63.6533 366.183 63.8828L367.683 64.3828C367.835 64.4335 367.964 64.429 368.089 64.3984L368.839 64.2266L369.589 64.0391C370.494 63.8197 371.401 63.8872 372.261 64.2109L373.011 64.4922L373.573 64.6953L374.245 64.2891L374.995 63.8203L375.808 63.4297C376.105 63.3321 376.423 63.2653 376.761 63.2578C377.1 63.2506 377.427 63.2966 377.729 63.3828L378.573 63.7578L379.323 64.1953L379.808 64.4766L380.308 64.1953L381.058 63.7578C381.797 63.3301 382.631 63.0535 383.526 63.0547H384.948C385.206 63.055 385.44 63.0184 385.651 62.9453L386.308 62.7266L386.964 62.4922C387.612 62.266 388.295 62.1586 388.995 62.1328L389.792 62.1016L390.604 62.0703C390.839 62.0613 391.061 61.9948 391.276 61.8828L391.979 61.5234L392.698 61.1484C392.841 61.0744 392.935 60.9812 393.011 60.8516L393.417 60.1641L393.823 59.4609C393.845 59.4228 393.861 59.3723 393.839 59.2266L393.714 58.3672L393.589 57.5234C393.477 56.777 393.467 56.0216 393.62 55.2891L393.761 54.6172L393.901 53.9297C394.006 53.4303 394.141 52.914 394.292 52.3828L394.511 51.6484L394.714 50.8984C394.817 50.5334 394.889 50.1661 394.917 49.8047L394.964 49.0547L395.026 48.3047C395.061 47.8525 395.07 47.3971 395.073 46.9453L395.089 46.1953V45.4453C395.09 45.1734 395.047 44.8896 394.948 44.5859L394.698 43.8359L394.464 43.0859C394.119 42.0293 394.249 40.9623 394.745 40.0234L395.136 39.2734L395.542 38.5234V38.4922L395.339 37.7734L395.12 37.0234C394.918 36.3298 394.83 35.6173 394.854 34.8984L394.886 34.1484L394.901 33.3984C394.922 32.8161 394.98 32.2277 395.073 31.6484L395.323 30.1484C395.352 29.9721 395.344 29.7813 395.276 29.5703L395.026 28.8203L394.792 28.0703C394.522 27.2313 394.478 26.3553 394.683 25.4922L394.854 24.7422L395.042 23.9922C395.052 23.9488 395.048 23.8929 394.995 23.7734L394.339 22.2734C393.916 21.3232 393.846 20.2879 394.198 19.2891L394.729 17.7891C394.835 17.4887 394.884 17.2075 394.886 16.9453V16.1953L394.901 15.4453C394.905 14.8762 394.933 14.2824 394.995 13.6797L395.073 12.8672L395.104 12.5703L394.667 12.3359L393.854 11.8984C392.726 11.2962 392.023 10.2553 391.917 8.96094L391.839 8.05469L391.776 7.38281L390.651 6.82031C390.455 6.72417 390.248 6.69196 390.026 6.69531H389.229L388.417 6.71094C387.589 6.7225 386.778 6.55987 386.026 6.17969L385.37 5.83594L384.698 5.50781C384.415 5.36469 384.111 5.25301 383.776 5.17969L383.026 5.00781L382.276 4.85156C381.985 4.78857 381.702 4.77614 381.417 4.80469L380.667 4.88281L379.917 4.94531C379.314 5.00613 378.708 5.02693 378.104 4.99219L376.604 4.89844C376.011 4.86393 375.412 4.79805 374.823 4.67969L373.323 4.36719C373.186 4.33959 373.046 4.35329 372.87 4.41406L372.12 4.66406L371.37 4.92969C370.668 5.17243 369.938 5.29401 369.198 5.28906H368.448L367.698 5.27344C367.372 5.27145 367.039 5.31373 366.698 5.39844L365.198 5.77344C364.275 6.00318 363.348 5.93077 362.479 5.58594L361.729 5.27344L361.026 4.99219L360.308 5.33594L359.558 5.67969C358.8 6.03126 357.984 6.2137 357.136 6.17969L355.636 6.11719C354.783 6.08246 353.978 5.83653 353.245 5.42969L352.495 5.00781L352.011 4.74219L351.526 5.05469L350.776 5.52344C349.862 6.09384 348.773 6.32308 347.651 5.99219L346.901 5.77344L346.151 5.53906C345.725 5.41241 345.29 5.31447 344.87 5.24219L343.37 4.99219C343.227 4.96826 343.075 4.9712 342.886 5.03906L342.136 5.30469L341.386 5.58594C340.416 5.93217 339.409 5.89236 338.464 5.50781L337.714 5.21094L336.964 4.89844C336.615 4.75621 336.279 4.67414 335.964 4.63281L335.214 4.52344L334.464 4.42969C334.316 4.41057 334.142 4.42679 333.933 4.50781L333.183 4.80469L332.433 5.08594C331.802 5.33015 331.152 5.50591 330.495 5.60156L328.995 5.82031C328.475 5.89594 327.953 5.96529 327.433 6.02344L326.683 6.10156L325.933 6.19531C325.036 6.29488 324.168 6.12865 323.37 5.75781L322.62 5.39844L321.87 5.05469C321.608 4.93256 321.394 4.89903 321.214 4.89844H320.464L319.714 4.88281C319.066 4.88201 318.414 4.82078 317.776 4.67969L317.026 4.50781L316.276 4.35156C316.233 4.34225 316.174 4.32256 316.042 4.38281L314.542 5.07031C313.442 5.57232 312.274 5.49582 311.245 4.92969L310.495 4.52344L310.042 4.27344L309.558 4.60156L308.808 5.08594C307.955 5.63774 306.929 5.91702 305.839 5.71094L304.339 5.42969C304.027 5.37095 303.722 5.35305 303.417 5.38281L301.917 5.53906C301.295 5.6009 300.665 5.59259 300.042 5.53906L298.542 5.41406C297.994 5.36698 297.448 5.29798 296.901 5.21094L296.151 5.10156L295.401 4.97656C294.823 4.88431 294.24 4.76306 293.667 4.60156L292.917 4.38281L292.167 4.17969C291.962 4.1221 291.776 4.11232 291.589 4.14844L290.089 4.42969C289.751 4.49528 289.396 4.60845 289.026 4.77344L288.276 5.11719L287.526 5.44531C286.566 5.87331 285.529 5.92334 284.526 5.55469L283.026 4.99219C282.573 4.8249 282.117 4.68406 281.667 4.55469L280.167 4.11719C279.967 4.0598 279.785 4.06561 279.604 4.10156L278.854 4.24219L278.104 4.39844C277.354 4.54796 276.591 4.54091 275.839 4.39844L274.339 4.11719C274.139 4.07985 273.943 4.09296 273.729 4.14844L272.979 4.33594L272.229 4.53906C271.775 4.65877 271.311 4.79272 270.854 4.94531L270.104 5.19531L269.354 5.46094C268.583 5.7187 267.775 5.79825 266.964 5.69531L265.464 5.50781C264.93 5.43975 264.388 5.35387 263.854 5.25781L263.104 5.11719L262.354 4.99219C261.795 4.89135 261.238 4.75461 260.683 4.60156L259.183 4.19531C258.861 4.10671 258.546 4.06462 258.245 4.07031L256.745 4.10156C256.225 4.11133 255.703 4.10952 255.183 4.10156L254.433 4.08594H253.683C253.663 4.08565 253.551 4.07461 253.323 4.22656L252.573 4.74219L251.823 5.24219C250.82 5.91069 249.595 6.10258 248.401 5.57031L246.901 4.88281C246.549 4.72501 246.213 4.63542 245.901 4.58594L245.151 4.46094L244.401 4.35156C243.979 4.28464 243.555 4.24238 243.136 4.22656L241.636 4.16406C241.372 4.15445 241.1 4.19926 240.808 4.28906L240.058 4.50781L239.308 4.74219C238.751 4.91359 238.181 5.06168 237.62 5.17969L236.12 5.49219C235.094 5.70677 234.111 5.50413 233.245 5.02344L232.495 4.61719L231.745 4.19531C231.724 4.18347 231.708 4.16823 231.698 4.16406L231.011 4.38281L230.261 4.58594C229.63 4.7642 228.985 4.87309 228.339 4.91406L226.839 5.00781C226.055 5.05733 225.28 4.95551 224.542 4.69531L223.042 4.16406C222.891 4.11175 222.782 4.10633 222.667 4.13281L221.167 4.47656C220.769 4.56886 220.36 4.70417 219.948 4.86719L218.448 5.46094C217.406 5.87214 216.322 5.80085 215.339 5.32031L214.589 4.94531L213.854 4.58594L213.183 4.86719L212.433 5.14844C211.81 5.38621 211.171 5.56268 210.526 5.66406L209.776 5.77344L209.026 5.89844C207.919 6.07223 206.905 5.74032 206.073 5.16406L205.323 4.64844L204.745 4.24219L204.276 4.46094L203.526 4.78906C202.918 5.06115 202.3 5.28418 201.667 5.42969L200.167 5.77344C199.057 6.02824 198.01 5.74336 197.136 5.17969L195.636 4.21094C195.594 4.18373 195.559 4.17142 195.542 4.16406L194.854 4.30469L194.104 4.46094C193.816 4.51774 193.496 4.62415 193.151 4.80469L192.401 5.19531L191.651 5.60156C190.547 6.18218 189.326 6.15276 188.245 5.55469L187.495 5.13281L186.823 4.75781L186.214 5.02344L185.464 5.32031C184.63 5.65649 183.738 5.75869 182.839 5.58594L181.339 5.30469C181.136 5.26555 180.93 5.26408 180.714 5.32031L179.964 5.52344L179.214 5.71094C178.28 5.95316 177.342 5.87901 176.464 5.52344L175.714 5.21094L174.964 4.91406C174.561 4.75042 174.163 4.62577 173.776 4.53906L173.026 4.36719L172.401 4.22656V4.24219L170.901 5.33594C170.419 5.68858 169.81 5.97473 169.104 6.02344C168.385 6.07134 167.723 5.86262 167.183 5.53906L166.433 5.10156L165.886 4.77344L165.401 5.03906L164.651 5.44531C163.797 5.89929 162.837 6.09018 161.839 5.89844L161.089 5.75781L160.339 5.60156C159.647 5.46772 158.969 5.23344 158.323 4.91406L157.573 4.55469L157.104 4.32031L156.589 4.67969L155.839 5.19531C155.341 5.5338 154.728 5.78305 154.026 5.80469C153.321 5.82583 152.69 5.61181 152.167 5.28906L150.667 4.35156C150.563 4.28704 150.482 4.26671 150.448 4.25781C150.424 4.25197 150.411 4.25712 150.401 4.25781L149.651 4.32031L148.901 4.39844C148.371 4.44761 147.838 4.48301 147.308 4.50781L145.808 4.57031C145.277 4.59514 144.745 4.60314 144.214 4.60156H142.714C142.237 4.60006 141.753 4.60411 141.276 4.61719L140.526 4.64844L139.776 4.66406C139.618 4.66842 139.401 4.71267 139.136 4.85156L137.636 5.63281C136.557 6.19674 135.371 6.19672 134.292 5.63281L132.792 4.85156C132.498 4.69758 132.247 4.63512 132.042 4.61719L131.292 4.55469L130.542 4.47656C130.486 4.47174 130.37 4.47511 130.167 4.58594L129.417 5.00781L128.667 5.41406C128.142 5.69983 127.532 5.86635 126.87 5.83594C126.211 5.80521 125.625 5.58638 125.136 5.27344L124.386 4.78906L123.636 4.32031C123.622 4.3116 123.614 4.29451 123.604 4.28906L122.948 4.46094L122.198 4.64844C121.736 4.76315 121.271 4.89545 120.808 5.03906L119.308 5.50781C118.191 5.85361 117.092 5.63384 116.167 5.07031L114.667 4.16406C114.43 4.02048 114.285 3.99192 114.214 3.99219L113.464 4.00781Z" fill="black"/>
<path d="M34.6748 44.8477C32.3623 44.8477 30.3936 44.1836 28.7686 42.8555C27.0342 41.4336 26.167 39.5938 26.167 37.3359C26.167 34.6797 26.999 32.2578 28.6631 30.0703C30.5303 27.6094 32.8818 26.3789 35.7178 26.3789C38.4443 26.3789 40.4873 27.0039 41.8467 28.2539C43.2061 29.5039 43.8857 31.3828 43.8857 33.8906C43.8857 36.5469 43.1201 38.9531 41.5889 41.1094C39.8232 43.6016 37.5186 44.8477 34.6748 44.8477ZM35.7178 29.5547C33.9756 29.5547 32.4834 30.3984 31.2412 32.0859C30.0771 33.6641 29.4951 35.4141 29.4951 37.3359C29.4951 38.6328 29.999 39.6875 31.0068 40.5C31.9756 41.2812 33.1982 41.6719 34.6748 41.6719C36.3936 41.6719 37.8271 40.8281 38.9756 39.1406C40.0303 37.6016 40.5576 35.8516 40.5576 33.8906C40.5576 32.25 40.1904 31.1094 39.4561 30.4688C38.7529 29.8594 37.5068 29.5547 35.7178 29.5547ZM54.4092 32.3555C54.5107 29.6914 54.6318 27.8516 54.7725 26.8359C54.9053 25.9141 55.4131 25.4531 56.2959 25.4531C56.7568 25.4531 57.1279 25.6016 57.4092 25.8984C57.6904 26.1953 57.8311 26.5586 57.8311 26.9883C57.8311 28.1211 57.7412 29.8086 57.5615 32.0508C57.3896 34.293 57.3037 35.9805 57.3037 37.1133C57.3037 39.8789 57.3936 41.7305 57.5732 42.668C57.5967 42.793 57.6084 42.9062 57.6084 43.0078C57.6084 43.4375 57.4521 43.793 57.1396 44.0742C56.8271 44.3477 56.4639 44.4844 56.0498 44.4844C55.4717 44.4844 55.042 44.2266 54.7607 43.7109C54.2295 44.0312 53.6787 44.2695 53.1084 44.4258C52.5381 44.5898 51.9482 44.6719 51.3389 44.6719C49.5889 44.6719 48.1357 44.1133 46.9795 42.9961C45.7998 41.8555 45.21 40.4023 45.21 38.6367C45.21 36.5352 45.8037 34.8398 46.9912 33.5508C48.1787 32.2539 49.7295 31.6055 51.6436 31.6055C52.2295 31.6055 52.7529 31.668 53.2139 31.793C53.6748 31.918 54.0732 32.1055 54.4092 32.3555ZM54.1748 36.0469C53.917 35.5547 53.5811 35.1875 53.167 34.9453C52.7529 34.7031 52.2607 34.582 51.6904 34.582C50.5342 34.582 49.667 34.918 49.0889 35.5898C48.5107 36.2539 48.2217 37.2539 48.2217 38.5898C48.2217 39.4336 48.5342 40.1562 49.1592 40.7578C49.7842 41.3594 50.5107 41.6602 51.3389 41.6602C51.9404 41.6602 52.3975 41.5898 52.71 41.4492C52.9209 41.3555 53.2803 41.1055 53.7881 40.6992C53.9209 40.5898 54.0498 40.4688 54.1748 40.3359C54.1592 39.9609 54.1592 38.5312 54.1748 36.0469ZM65.5068 44.625C64.4131 44.625 63.374 44.4336 62.3896 44.0508C62.1006 44.3398 61.749 44.4844 61.335 44.4844C60.9131 44.4844 60.5498 44.3438 60.2451 44.0625C59.9482 43.7812 59.7998 43.4297 59.7998 43.0078C59.7998 42.8203 59.8115 42.5352 59.835 42.1523C59.8584 41.7617 59.8701 41.4727 59.8701 41.2852V28.0078C59.8701 27.4453 59.9951 26.9453 60.2451 26.5078C60.5576 25.9531 61.0029 25.6758 61.5811 25.6758C62.417 25.6758 62.835 26.1289 62.835 27.0352C62.835 27.1367 62.8193 27.3008 62.7881 27.5273C62.7646 27.7461 62.7529 27.9062 62.7529 28.0078V32.4961C63.3311 32.1758 63.8857 31.9375 64.417 31.7812C64.9482 31.6172 65.46 31.5352 65.9521 31.5352C67.7881 31.5352 69.2725 32.2031 70.4053 33.5391C71.46 34.7891 71.9873 36.3047 71.9873 38.0859C71.9873 39.8984 71.374 41.4336 70.1475 42.6914C68.8975 43.9805 67.3506 44.625 65.5068 44.625ZM65.9521 34.5352C65.5459 34.5352 65.0771 34.6523 64.5459 34.8867C64.0146 35.1211 63.417 35.4727 62.7529 35.9414C62.7451 36.6836 62.7451 38.3438 62.7529 40.9219C63.8232 41.3828 64.7412 41.6133 65.5068 41.6133C66.499 41.6133 67.3154 41.2812 67.9561 40.6172C68.5967 39.9453 68.917 39.1016 68.917 38.0859C68.917 37.0703 68.6553 36.2305 68.1318 35.5664C67.585 34.8789 66.8584 34.5352 65.9521 34.5352ZM76.8623 30.0469C76.3623 30.0469 75.9287 29.8789 75.5615 29.543C75.1943 29.207 75.0107 28.7969 75.0107 28.3125C75.0107 27.8281 75.1943 27.418 75.5615 27.082C75.9287 26.7461 76.3623 26.5781 76.8623 26.5781C77.3623 26.5781 77.792 26.7461 78.1514 27.082C78.5186 27.418 78.7021 27.8281 78.7021 28.3125C78.7021 28.7969 78.5186 29.207 78.1514 29.543C77.792 29.8789 77.3623 30.0469 76.8623 30.0469ZM77.8584 38.6367C77.8584 39.082 77.8701 39.7969 77.8936 40.7812C77.9248 41.7656 77.9404 42.4805 77.9404 42.9258C77.9404 43.3789 77.7881 43.7539 77.4834 44.0508C77.1787 44.3398 76.792 44.4844 76.3232 44.4844C75.8545 44.4844 75.4678 44.3398 75.1631 44.0508C74.8584 43.7539 74.7061 43.3789 74.7061 42.9258C74.7061 42.4805 74.6904 41.7656 74.6592 40.7812C74.6357 39.7969 74.624 39.082 74.624 38.6367C74.624 37.9414 74.6631 37.0703 74.7412 36.0234C74.8193 34.9766 74.8584 34.1055 74.8584 33.4102C74.8584 32.957 75.0107 32.5859 75.3154 32.2969C75.6201 32 76.0068 31.8516 76.4756 31.8516C76.9443 31.8516 77.3311 32 77.6357 32.2969C77.9404 32.5859 78.0928 32.957 78.0928 33.4102C78.0928 34.1055 78.0537 34.9766 77.9756 36.0234C77.8975 37.0703 77.8584 37.9414 77.8584 38.6367ZM86.8232 44.6719C84.9561 44.6719 83.4287 44.2266 82.2412 43.3359C80.9287 42.3516 80.2725 40.9648 80.2725 39.1758C80.2725 37.1992 80.792 35.5273 81.8311 34.1602C82.9873 32.6445 84.5459 31.8867 86.5068 31.8867C87.8662 31.8867 88.9951 32.1055 89.8936 32.543C91.0732 33.1211 91.6631 34.0195 91.6631 35.2383C91.6631 36.0977 91.1826 36.8594 90.2217 37.5234C89.7842 37.8281 88.9053 38.2734 87.585 38.8594L83.6357 40.6055C84.0107 41.0117 84.4639 41.3164 84.9951 41.5195C85.5264 41.7227 86.1357 41.8242 86.8232 41.8242C87.8701 41.8242 88.7568 41.6094 89.4834 41.1797C90.1318 40.7969 90.6514 40.6055 91.042 40.6055C91.8545 40.6055 92.2607 41 92.2607 41.7891C92.2607 42.6797 91.6084 43.4062 90.3037 43.9688C89.21 44.4375 88.0498 44.6719 86.8232 44.6719ZM86.5068 34.7227C85.7803 34.7227 85.1592 34.9648 84.6436 35.4492C84.1279 35.9336 83.7139 36.6602 83.4014 37.6289C84.2842 37.2461 85.1631 36.8672 86.0381 36.4922C87.0928 36.0156 87.9326 35.5742 88.5576 35.168C88.0342 34.8711 87.3506 34.7227 86.5068 34.7227ZM104.167 35.6836C104.097 36.8789 103.554 37.4766 102.538 37.4766C101.554 37.4766 101.062 36.9688 101.062 35.9531L101.003 34.7695C99.2451 35.0508 97.9873 35.9531 97.2295 37.4766L97.2412 43.3711C97.2412 43.8164 97.0889 44.1836 96.7842 44.4727C96.4795 44.7695 96.0928 44.918 95.624 44.918C95.1396 44.918 94.7646 44.7617 94.499 44.4492C94.249 44.168 94.124 43.8086 94.124 43.3711V35.6953C94.124 35.4531 94.1318 35.0938 94.1475 34.6172C94.1631 34.1328 94.1709 33.7695 94.1709 33.5273C94.1709 33.0898 94.2998 32.7266 94.5576 32.4375C94.8232 32.1406 95.1982 31.9922 95.6826 31.9922C96.5498 31.9922 97.0654 32.4375 97.2295 33.3281C98.6123 32.2969 100.147 31.7812 101.835 31.7812C103.397 31.7812 104.179 32.8203 104.179 34.8984C104.179 35.2969 104.175 35.5586 104.167 35.6836ZM115.956 35.1797C115.292 35.9297 114.491 36.9414 113.554 38.2148C112.249 39.9805 111.437 41.0664 111.116 41.4727C111.593 41.457 111.987 41.4492 112.3 41.4492C112.612 41.4492 113.065 41.5078 113.659 41.625C114.261 41.7344 114.714 41.7891 115.019 41.7891C115.487 41.7891 115.874 41.9375 116.179 42.2344C116.491 42.5234 116.647 42.8906 116.647 43.3359C116.647 43.7812 116.495 44.1484 116.19 44.4375C115.886 44.7266 115.495 44.8711 115.019 44.8711C114.706 44.8711 114.249 44.8164 113.647 44.707C113.054 44.5977 112.604 44.543 112.3 44.543C110.55 44.543 108.913 44.6875 107.39 44.9766C107.187 45.0156 107.015 45.0352 106.874 45.0352C106.444 45.0352 106.077 44.918 105.772 44.6836C105.429 44.4258 105.257 44.0859 105.257 43.6641C105.257 43.1641 105.503 42.707 105.995 42.293C107.94 40.6445 109.976 38.2344 112.101 35.0625C111.616 35.0859 111.151 35.0977 110.706 35.0977C109.511 35.0977 108.3 35.0117 107.073 34.8398C106.112 34.707 105.632 34.1992 105.632 33.3164C105.632 32.8867 105.78 32.5195 106.077 32.2148C106.374 31.9102 106.753 31.7578 107.214 31.7578C107.597 31.7578 108.175 31.8008 108.948 31.8867C109.729 31.9648 110.315 32.0039 110.706 32.0039C111.237 32.0039 112.034 31.9727 113.097 31.9102C114.159 31.8398 114.956 31.8047 115.487 31.8047C116.464 31.8047 116.952 32.2031 116.952 33C116.952 33.7031 116.62 34.4297 115.956 35.1797ZM137.448 35.5547C136.675 35.5547 136.21 35.2305 136.054 34.582C135.741 34.5273 135.421 34.5 135.093 34.5C133.21 34.5 132.269 34.7578 132.269 35.2734C132.269 35.5781 132.835 35.9883 133.968 36.5039C135.515 37.2148 136.562 37.7695 137.108 38.168C138.241 38.9883 138.808 39.9141 138.808 40.9453C138.808 42.2891 138.183 43.3086 136.933 44.0039C135.925 44.5586 134.687 44.8359 133.218 44.8359C132.179 44.8359 131.229 44.6758 130.37 44.3555C129.198 43.918 128.612 43.2734 128.612 42.4219C128.612 41.6406 129.077 41.25 130.007 41.25C130.366 41.25 130.886 41.3633 131.565 41.5898C132.245 41.8164 132.769 41.9297 133.136 41.9297C134.722 41.9297 135.519 41.6094 135.526 40.9688C135.526 40.5703 134.976 40.1289 133.874 39.6445C132.265 38.9336 131.233 38.4219 130.78 38.1094C129.679 37.3359 129.128 36.3945 129.128 35.2852C129.128 33.7148 129.96 32.6562 131.624 32.1094C132.601 31.7891 134.085 31.6289 136.077 31.6289C136.858 31.6289 137.437 31.7305 137.812 31.9336C138.327 32.207 138.585 32.7109 138.585 33.4453C138.585 34.8516 138.206 35.5547 137.448 35.5547ZM155.882 33.8086C155.062 36.8711 154.237 39.6523 153.409 42.1523C153.175 42.8555 152.792 43.5781 152.261 44.3203C151.886 44.8359 151.386 45.0898 150.761 45.082C149.776 45.0664 149.003 44.1172 148.44 42.2344C148.229 41.5156 147.979 40.1758 147.69 38.2148C147.526 38.5586 147.425 38.7891 147.386 38.9062C146.979 39.875 146.386 41.3789 145.604 43.418C145.487 43.7461 145.312 44.0078 145.077 44.2031C144.749 44.7266 144.261 45 143.612 45.0234C143.245 45.0391 142.858 44.7109 142.452 44.0391C142.022 43.3594 141.675 42.4844 141.409 41.4141C141.167 40.4453 140.792 38.3359 140.284 35.0859C140.175 34.3828 140.12 33.832 140.12 33.4336C140.12 33.0039 140.28 32.6484 140.601 32.3672C140.929 32.0781 141.319 31.9336 141.772 31.9336C142.616 31.9336 143.136 32.3516 143.331 33.1875C143.433 33.625 143.519 34.1641 143.589 34.8047C143.683 35.7266 143.741 36.2695 143.765 36.4336C143.866 37.043 144.022 38.0391 144.233 39.4219C144.812 37.8359 145.476 35.8633 146.226 33.5039C146.546 32.4883 147.147 31.9805 148.03 31.9805C148.897 31.9805 149.468 32.5469 149.741 33.6797C149.937 34.4766 150.144 35.5117 150.362 36.7852C150.683 38.6367 150.878 39.7383 150.948 40.0898C151.019 39.8477 151.632 37.4727 152.788 32.9648C152.96 32.293 153.448 31.957 154.253 31.957C154.698 31.957 155.089 32.1016 155.425 32.3906C155.769 32.6797 155.94 33.0391 155.94 33.4688C155.94 33.5469 155.921 33.6602 155.882 33.8086ZM162.233 44.8242C160.788 44.8242 159.546 44.3281 158.507 43.3359C157.366 42.25 156.769 40.8008 156.714 38.9883C156.659 37.2617 157.132 35.7227 158.132 34.3711C159.319 32.7773 160.972 31.9805 163.089 31.9805C164.651 31.9805 165.894 32.6055 166.815 33.8555C167.644 34.9805 168.058 36.375 168.058 38.0391C168.058 39.8516 167.573 41.3984 166.604 42.6797C165.519 44.1094 164.062 44.8242 162.233 44.8242ZM162.937 35.0742C161.976 35.0664 161.218 35.5039 160.663 36.3867C160.194 37.1289 159.96 37.9961 159.96 38.9883C159.96 39.9258 160.226 40.6445 160.757 41.1445C161.179 41.543 161.671 41.7422 162.233 41.7422C162.913 41.7422 163.503 41.5117 164.003 41.0508C164.573 40.5117 164.878 39.7812 164.917 38.8594C165.019 36.3438 164.358 35.082 162.937 35.0742ZM165.854 26.9883C165.44 27.2695 164.929 27.7461 164.319 28.418C163.679 29.1211 163.171 29.6094 162.796 29.8828C162.491 30.1094 162.155 30.2227 161.788 30.2227C161.374 30.2227 161.015 30.0898 160.71 29.8242C160.405 29.5586 160.253 29.25 160.253 28.8984C160.253 28.6094 160.417 28.293 160.745 27.9492C161.034 27.6836 161.319 27.418 161.601 27.1523C162.437 26.2383 162.929 25.7148 163.077 25.582C163.788 24.9414 164.417 24.6211 164.964 24.6211C165.378 24.6211 165.733 24.7578 166.03 25.0312C166.335 25.3047 166.487 25.6133 166.487 25.957C166.487 26.3555 166.276 26.6992 165.854 26.9883ZM174.233 30.1055C173.733 30.1055 173.3 29.9375 172.933 29.6016C172.573 29.2656 172.394 28.8516 172.394 28.3594C172.394 27.8672 172.573 27.4531 172.933 27.1172C173.3 26.7734 173.733 26.6016 174.233 26.6016C174.733 26.6016 175.167 26.7734 175.534 27.1172C175.901 27.4531 176.085 27.8672 176.085 28.3594C176.085 28.8516 175.901 29.2656 175.534 29.6016C175.167 29.9375 174.733 30.1055 174.233 30.1055ZM173.671 46.3242C173.671 45.5039 173.538 43.3398 173.272 39.832C173.007 36.3242 172.874 34.2422 172.874 33.5859C172.874 33.1172 173.011 32.6953 173.284 32.3203C173.604 31.8984 174.019 31.6875 174.526 31.6875C174.886 31.6875 175.245 31.8086 175.604 32.0508C175.995 32.3164 176.198 32.6211 176.214 32.9648C176.308 34.457 176.437 36.625 176.601 39.4688C176.812 43.2578 176.917 45.582 176.917 46.4414C176.917 47.5742 176.562 48.6133 175.851 49.5586C175.062 50.6055 174.081 51.1289 172.909 51.1289C171.019 51.1289 169.468 49.793 168.257 47.1211C168.14 46.8633 168.081 46.6211 168.081 46.3945C168.081 45.9648 168.253 45.5938 168.597 45.2812C168.933 44.9922 169.319 44.8477 169.757 44.8477C170.257 44.8477 170.698 45.1172 171.081 45.6562C171.362 46.1562 171.647 46.6602 171.937 47.168C172.249 47.707 172.573 47.9766 172.909 47.9766C173.315 47.9766 173.569 47.4258 173.671 46.3242ZM195.456 44.8242C194.784 44.8242 194.077 44.7461 193.335 44.5898L193.323 49.3711C193.323 49.8242 193.171 50.1992 192.866 50.4961C192.562 50.793 192.175 50.9414 191.706 50.9414C191.237 50.9414 190.851 50.793 190.546 50.4961C190.241 50.1992 190.089 49.8242 190.089 49.3711C190.089 49.0039 190.097 47.5469 190.112 45C190.128 43.1094 190.128 41.5664 190.112 40.3711C190.089 38.6836 190.034 37.2305 189.948 36.0117C189.831 34.332 189.772 33.5625 189.772 33.7031C189.772 33.0547 189.917 32.5 190.206 32.0391C190.542 31.5156 190.995 31.2539 191.565 31.2539C192.003 31.2539 192.37 31.4023 192.667 31.6992C192.964 31.9961 193.112 32.3516 193.112 32.7656L193.101 32.8828C193.624 32.5859 194.147 32.3672 194.671 32.2266C195.202 32.0781 195.733 32.0039 196.265 32.0039C198.062 32.0039 199.374 32.7656 200.202 34.2891C200.819 35.4375 201.128 36.9258 201.128 38.7539C201.128 40.4648 200.64 41.8828 199.663 43.0078C198.616 44.2188 197.214 44.8242 195.456 44.8242ZM196.265 35.1328C195.772 35.1328 195.272 35.25 194.765 35.4844C194.257 35.7109 193.745 36.0547 193.229 36.5156C193.323 38.125 193.37 39.7383 193.37 41.3555C194.065 41.582 194.761 41.6953 195.456 41.6953C196.261 41.6953 196.878 41.4102 197.308 40.8398C197.698 40.3242 197.894 39.6289 197.894 38.7539C197.894 37.6992 197.847 36.9688 197.753 36.5625C197.526 35.6094 197.03 35.1328 196.265 35.1328ZM206.495 42.4102C206.495 43.8945 205.956 44.6367 204.878 44.6367C204.409 44.6367 204.022 44.4883 203.718 44.1914C203.413 43.8945 203.261 43.5117 203.261 43.043V26.8359C203.261 26.3828 203.425 26.0117 203.753 25.7227C204.065 25.457 204.452 25.3242 204.913 25.3242C205.374 25.3242 205.753 25.4648 206.05 25.7461C206.347 26.0195 206.495 26.3828 206.495 26.8359V42.4102ZM219.585 44.9062C219.226 44.9062 218.655 44.5156 217.874 43.7344C217.155 44.0781 216.522 44.3359 215.976 44.5078C215.429 44.6875 214.964 44.7773 214.581 44.7773C212.698 44.7773 211.284 44.2734 210.339 43.2656C209.401 42.2578 208.933 40.75 208.933 38.7422C208.933 36.8594 209.628 35.25 211.019 33.9141C212.409 32.5703 214.073 31.8984 216.011 31.8984C216.753 31.8984 217.612 32.1094 218.589 32.5312C219.769 33.0391 220.358 33.6289 220.358 34.3008C220.358 34.582 220.269 34.8281 220.089 35.0391C220.011 35.3516 219.948 35.7461 219.901 36.2227C219.862 36.6914 219.843 37.2422 219.843 37.875C219.843 39.3672 219.948 40.4414 220.159 41.0977C220.183 41.168 220.362 41.5742 220.698 42.3164C221.003 42.9883 221.155 43.3711 221.155 43.4648C221.155 43.8789 220.995 44.2227 220.675 44.4961C220.362 44.7695 219.999 44.9062 219.585 44.9062ZM216.679 36.8672C216.679 36.6172 216.694 36.332 216.726 36.0117C216.765 35.6836 216.819 35.3203 216.89 34.9219C216.733 34.8438 216.593 34.7891 216.468 34.7578C216.351 34.7188 216.249 34.6992 216.163 34.6992C215.101 34.6992 214.171 35.1172 213.374 35.9531C212.577 36.7812 212.179 37.7422 212.179 38.8359C212.179 39.8828 212.366 40.6719 212.741 41.2031C213.116 41.7266 213.679 41.9883 214.429 41.9883C214.913 41.9883 215.37 41.9102 215.8 41.7539C216.237 41.5898 216.647 41.3516 217.03 41.0391C216.796 39.1797 216.679 37.7891 216.679 36.8672ZM232.042 44.9648C231.081 44.9648 230.546 44.4922 230.437 43.5469C230.327 42.7422 230.218 41.9336 230.108 41.1211C229.991 40.2617 229.933 39.4531 229.933 38.6953C229.933 38.4922 229.944 38.1445 229.968 37.6523C229.999 37.1602 230.015 36.8125 230.015 36.6094C230.015 36.5547 230.022 36.418 230.038 36.1992C230.054 35.9727 230.062 35.7891 230.062 35.6484C230.062 35 229.894 34.6758 229.558 34.6758C228.839 34.6758 228.132 35.0977 227.437 35.9414C226.749 36.7773 226.21 37.8398 225.819 39.1289C225.804 39.3867 225.769 39.7305 225.714 40.1602C225.667 40.5117 225.644 40.8555 225.644 41.1914C225.644 41.4102 225.667 41.7422 225.714 42.1875C225.769 42.625 225.796 42.9531 225.796 43.1719C225.796 43.6172 225.64 43.9844 225.327 44.2734C225.022 44.5703 224.636 44.7188 224.167 44.7188C223.698 44.7188 223.312 44.5703 223.007 44.2734C222.702 43.9844 222.55 43.6172 222.55 43.1719C222.55 42.9531 222.526 42.625 222.479 42.1875C222.433 41.7422 222.409 41.4102 222.409 41.1914C222.409 40.4414 222.464 39.3984 222.573 38.0625C222.683 36.7266 222.737 35.6836 222.737 34.9336C222.737 34.6992 222.722 34.3516 222.69 33.8906C222.667 33.4219 222.655 33.0742 222.655 32.8477C222.655 32.4102 222.812 32.0508 223.124 31.7695C223.444 31.4805 223.835 31.3359 224.296 31.3359C225.319 31.3359 225.866 31.9492 225.937 33.1758L225.948 33.3047C227.089 32.1562 228.292 31.582 229.558 31.582C231.034 31.582 232.054 32.1992 232.616 33.4336C232.991 34.2617 233.179 35.5 233.179 37.1484V37.9805C233.171 38.3398 233.167 38.5938 233.167 38.7422C233.167 39.3516 233.249 40.1367 233.413 41.0977C233.585 42.0586 233.671 42.8398 233.671 43.4414C233.671 43.8789 233.515 44.2422 233.202 44.5312C232.89 44.8203 232.503 44.9648 232.042 44.9648ZM254.05 34.6992C253.886 34.6992 253.69 34.6953 253.464 34.6875C253.245 34.6719 253.054 34.6641 252.89 34.6641C252.569 34.6641 252.198 34.6953 251.776 34.7578C251.917 37.9141 251.987 39.9766 251.987 40.9453C251.987 41.0469 251.991 41.2383 251.999 41.5195C252.007 41.793 252.011 42.0156 252.011 42.1875C252.011 43.9844 251.444 44.8828 250.312 44.8828C249.882 44.8828 249.511 44.75 249.198 44.4844C248.854 44.2031 248.683 43.8516 248.683 43.4297C248.683 43.1484 248.694 42.7266 248.718 42.1641C248.741 41.6016 248.753 41.1797 248.753 40.8984C248.753 39.9531 248.683 37.9297 248.542 34.8281C248.058 34.8047 247.323 34.7422 246.339 34.6406C245.362 34.5312 244.874 34.0234 244.874 33.1172C244.874 32.6797 245.022 32.3086 245.319 32.0039C245.616 31.6992 245.999 31.5469 246.468 31.5469C246.757 31.5469 247.421 31.5938 248.46 31.6875C248.452 31.4375 248.433 31.0234 248.401 30.4453C248.37 29.9453 248.354 29.5586 248.354 29.2852C248.354 28.8477 248.515 28.4844 248.835 28.1953C249.155 27.9062 249.542 27.7617 249.995 27.7617C251.151 27.7617 251.729 28.7344 251.729 30.6797L251.706 31.6406C252.19 31.5703 252.585 31.5352 252.89 31.5352C253.788 31.5352 254.401 31.5938 254.729 31.7109C255.354 31.9297 255.667 32.4062 255.667 33.1406C255.667 33.5859 255.515 33.957 255.21 34.2539C254.905 34.5508 254.519 34.6992 254.05 34.6992ZM266.917 35.6836C266.847 36.8789 266.304 37.4766 265.288 37.4766C264.304 37.4766 263.812 36.9688 263.812 35.9531L263.753 34.7695C261.995 35.0508 260.737 35.9531 259.979 37.4766L259.991 43.3711C259.991 43.8164 259.839 44.1836 259.534 44.4727C259.229 44.7695 258.843 44.918 258.374 44.918C257.89 44.918 257.515 44.7617 257.249 44.4492C256.999 44.168 256.874 43.8086 256.874 43.3711V35.6953C256.874 35.4531 256.882 35.0938 256.897 34.6172C256.913 34.1328 256.921 33.7695 256.921 33.5273C256.921 33.0898 257.05 32.7266 257.308 32.4375C257.573 32.1406 257.948 31.9922 258.433 31.9922C259.3 31.9922 259.815 32.4375 259.979 33.3281C261.362 32.2969 262.897 31.7812 264.585 31.7812C266.147 31.7812 266.929 32.8203 266.929 34.8984C266.929 35.2969 266.925 35.5586 266.917 35.6836ZM274.534 44.6719C272.667 44.6719 271.14 44.2266 269.952 43.3359C268.64 42.3516 267.983 40.9648 267.983 39.1758C267.983 37.1992 268.503 35.5273 269.542 34.1602C270.698 32.6445 272.257 31.8867 274.218 31.8867C275.577 31.8867 276.706 32.1055 277.604 32.543C278.784 33.1211 279.374 34.0195 279.374 35.2383C279.374 36.0977 278.894 36.8594 277.933 37.5234C277.495 37.8281 276.616 38.2734 275.296 38.8594L271.347 40.6055C271.722 41.0117 272.175 41.3164 272.706 41.5195C273.237 41.7227 273.847 41.8242 274.534 41.8242C275.581 41.8242 276.468 41.6094 277.194 41.1797C277.843 40.7969 278.362 40.6055 278.753 40.6055C279.565 40.6055 279.972 41 279.972 41.7891C279.972 42.6797 279.319 43.4062 278.015 43.9688C276.921 44.4375 275.761 44.6719 274.534 44.6719ZM274.218 34.7227C273.491 34.7227 272.87 34.9648 272.354 35.4492C271.839 35.9336 271.425 36.6602 271.112 37.6289C271.995 37.2461 272.874 36.8672 273.749 36.4922C274.804 36.0156 275.644 35.5742 276.269 35.168C275.745 34.8711 275.062 34.7227 274.218 34.7227ZM291.292 44.9648C290.331 44.9648 289.796 44.4922 289.687 43.5469C289.577 42.7422 289.468 41.9336 289.358 41.1211C289.241 40.2617 289.183 39.4531 289.183 38.6953C289.183 38.4922 289.194 38.1445 289.218 37.6523C289.249 37.1602 289.265 36.8125 289.265 36.6094C289.265 36.5547 289.272 36.418 289.288 36.1992C289.304 35.9727 289.312 35.7891 289.312 35.6484C289.312 35 289.144 34.6758 288.808 34.6758C288.089 34.6758 287.382 35.0977 286.687 35.9414C285.999 36.7773 285.46 37.8398 285.069 39.1289C285.054 39.3867 285.019 39.7305 284.964 40.1602C284.917 40.5117 284.894 40.8555 284.894 41.1914C284.894 41.4102 284.917 41.7422 284.964 42.1875C285.019 42.625 285.046 42.9531 285.046 43.1719C285.046 43.6172 284.89 43.9844 284.577 44.2734C284.272 44.5703 283.886 44.7188 283.417 44.7188C282.948 44.7188 282.562 44.5703 282.257 44.2734C281.952 43.9844 281.8 43.6172 281.8 43.1719C281.8 42.9531 281.776 42.625 281.729 42.1875C281.683 41.7422 281.659 41.4102 281.659 41.1914C281.659 40.4414 281.714 39.3984 281.823 38.0625C281.933 36.7266 281.987 35.6836 281.987 34.9336C281.987 34.6992 281.972 34.3516 281.94 33.8906C281.917 33.4219 281.905 33.0742 281.905 32.8477C281.905 32.4102 282.062 32.0508 282.374 31.7695C282.694 31.4805 283.085 31.3359 283.546 31.3359C284.569 31.3359 285.116 31.9492 285.187 33.1758L285.198 33.3047C286.339 32.1562 287.542 31.582 288.808 31.582C290.284 31.582 291.304 32.1992 291.866 33.4336C292.241 34.2617 292.429 35.5 292.429 37.1484V37.9805C292.421 38.3398 292.417 38.5938 292.417 38.7422C292.417 39.3516 292.499 40.1367 292.663 41.0977C292.835 42.0586 292.921 42.8398 292.921 43.4414C292.921 43.8789 292.765 44.2422 292.452 44.5312C292.14 44.8203 291.753 44.9648 291.292 44.9648ZM297.292 30.0469C296.792 30.0469 296.358 29.8789 295.991 29.543C295.624 29.207 295.44 28.7969 295.44 28.3125C295.44 27.8281 295.624 27.418 295.991 27.082C296.358 26.7461 296.792 26.5781 297.292 26.5781C297.792 26.5781 298.222 26.7461 298.581 27.082C298.948 27.418 299.132 27.8281 299.132 28.3125C299.132 28.7969 298.948 29.207 298.581 29.543C298.222 29.8789 297.792 30.0469 297.292 30.0469ZM298.288 38.6367C298.288 39.082 298.3 39.7969 298.323 40.7812C298.354 41.7656 298.37 42.4805 298.37 42.9258C298.37 43.3789 298.218 43.7539 297.913 44.0508C297.608 44.3398 297.222 44.4844 296.753 44.4844C296.284 44.4844 295.897 44.3398 295.593 44.0508C295.288 43.7539 295.136 43.3789 295.136 42.9258C295.136 42.4805 295.12 41.7656 295.089 40.7812C295.065 39.7969 295.054 39.082 295.054 38.6367C295.054 37.9414 295.093 37.0703 295.171 36.0234C295.249 34.9766 295.288 34.1055 295.288 33.4102C295.288 32.957 295.44 32.5859 295.745 32.2969C296.05 32 296.437 31.8516 296.905 31.8516C297.374 31.8516 297.761 32 298.065 32.2969C298.37 32.5859 298.522 32.957 298.522 33.4102C298.522 34.1055 298.483 34.9766 298.405 36.0234C298.327 37.0703 298.288 37.9414 298.288 38.6367ZM310.581 44.9648C309.62 44.9648 309.085 44.4922 308.976 43.5469C308.866 42.7422 308.757 41.9336 308.647 41.1211C308.53 40.2617 308.472 39.4531 308.472 38.6953C308.472 38.4922 308.483 38.1445 308.507 37.6523C308.538 37.1602 308.554 36.8125 308.554 36.6094C308.554 36.5547 308.562 36.418 308.577 36.1992C308.593 35.9727 308.601 35.7891 308.601 35.6484C308.601 35 308.433 34.6758 308.097 34.6758C307.378 34.6758 306.671 35.0977 305.976 35.9414C305.288 36.7773 304.749 37.8398 304.358 39.1289C304.343 39.3867 304.308 39.7305 304.253 40.1602C304.206 40.5117 304.183 40.8555 304.183 41.1914C304.183 41.4102 304.206 41.7422 304.253 42.1875C304.308 42.625 304.335 42.9531 304.335 43.1719C304.335 43.6172 304.179 43.9844 303.866 44.2734C303.562 44.5703 303.175 44.7188 302.706 44.7188C302.237 44.7188 301.851 44.5703 301.546 44.2734C301.241 43.9844 301.089 43.6172 301.089 43.1719C301.089 42.9531 301.065 42.625 301.019 42.1875C300.972 41.7422 300.948 41.4102 300.948 41.1914C300.948 40.4414 301.003 39.3984 301.112 38.0625C301.222 36.7266 301.276 35.6836 301.276 34.9336C301.276 34.6992 301.261 34.3516 301.229 33.8906C301.206 33.4219 301.194 33.0742 301.194 32.8477C301.194 32.4102 301.351 32.0508 301.663 31.7695C301.983 31.4805 302.374 31.3359 302.835 31.3359C303.858 31.3359 304.405 31.9492 304.476 33.1758L304.487 33.3047C305.628 32.1562 306.831 31.582 308.097 31.582C309.573 31.582 310.593 32.1992 311.155 33.4336C311.53 34.2617 311.718 35.5 311.718 37.1484V37.9805C311.71 38.3398 311.706 38.5938 311.706 38.7422C311.706 39.3516 311.788 40.1367 311.952 41.0977C312.124 42.0586 312.21 42.8398 312.21 43.4414C312.21 43.8789 312.054 44.2422 311.741 44.5312C311.429 44.8203 311.042 44.9648 310.581 44.9648ZM324.772 37.1484C324.444 38.9844 324.249 40.9219 324.187 42.9609C324.108 45.4844 323.687 47.3164 322.921 48.457C321.897 49.9805 320.085 50.7422 317.483 50.7422C314.444 50.7422 312.925 50.1406 312.925 48.9375C312.925 48.5078 313.062 48.1602 313.335 47.8945C313.608 47.6289 313.968 47.4961 314.413 47.4961C314.765 47.4961 315.269 47.5625 315.925 47.6953C316.581 47.8281 317.163 47.8945 317.671 47.8945C318.835 47.8945 319.694 47.5391 320.249 46.8281C320.78 46.1328 321.093 45.0273 321.187 43.5117C320.788 43.918 320.339 44.2227 319.839 44.4258C319.339 44.6289 318.792 44.7305 318.198 44.7305C316.644 44.7305 315.378 44.2266 314.401 43.2188C313.433 42.2031 312.948 40.9062 312.948 39.3281C312.948 37.2031 313.597 35.4844 314.894 34.1719C316.237 32.8125 318.054 32.1328 320.343 32.1328C321.077 32.1328 321.71 32.2227 322.241 32.4023C322.772 32.582 323.202 32.8555 323.53 33.2227C324.522 33.3398 325.019 33.9258 325.019 34.9805C325.019 35.5039 324.937 36.2266 324.772 37.1484ZM320.226 34.8047C318.905 34.8047 317.878 35.2383 317.144 36.1055C316.487 36.8945 316.159 37.918 316.159 39.1758C316.159 40.1055 316.335 40.8047 316.687 41.2734C317.038 41.7422 317.565 41.9766 318.269 41.9766C318.909 41.9766 319.554 41.6055 320.202 40.8633C320.812 40.1602 321.159 39.4648 321.245 38.7773C321.394 38.0273 321.565 36.8594 321.761 35.2734C321.495 35.1172 321.233 35 320.976 34.9219C320.718 34.8438 320.468 34.8047 320.226 34.8047ZM331.487 44.8242C330.042 44.8242 328.8 44.3281 327.761 43.3359C326.62 42.25 326.022 40.8008 325.968 38.9883C325.913 37.2617 326.386 35.7227 327.386 34.3711C328.573 32.7773 330.226 31.9805 332.343 31.9805C333.905 31.9805 335.147 32.6055 336.069 33.8555C336.897 34.9805 337.312 36.375 337.312 38.0391C337.312 39.8516 336.827 41.3984 335.858 42.6797C334.772 44.1094 333.315 44.8242 331.487 44.8242ZM332.19 35.0742C331.229 35.0664 330.472 35.5039 329.917 36.3867C329.448 37.1289 329.214 37.9961 329.214 38.9883C329.214 39.9258 329.479 40.6445 330.011 41.1445C330.433 41.543 330.925 41.7422 331.487 41.7422C332.167 41.7422 332.757 41.5117 333.257 41.0508C333.827 40.5117 334.132 39.7812 334.171 38.8594C334.272 36.3438 333.612 35.082 332.19 35.0742ZM354.28 33.8086C353.46 36.8711 352.636 39.6523 351.808 42.1523C351.573 42.8555 351.19 43.5781 350.659 44.3203C350.284 44.8359 349.784 45.0898 349.159 45.082C348.175 45.0664 347.401 44.1172 346.839 42.2344C346.628 41.5156 346.378 40.1758 346.089 38.2148C345.925 38.5586 345.823 38.7891 345.784 38.9062C345.378 39.875 344.784 41.3789 344.003 43.418C343.886 43.7461 343.71 44.0078 343.476 44.2031C343.147 44.7266 342.659 45 342.011 45.0234C341.644 45.0391 341.257 44.7109 340.851 44.0391C340.421 43.3594 340.073 42.4844 339.808 41.4141C339.565 40.4453 339.19 38.3359 338.683 35.0859C338.573 34.3828 338.519 33.832 338.519 33.4336C338.519 33.0039 338.679 32.6484 338.999 32.3672C339.327 32.0781 339.718 31.9336 340.171 31.9336C341.015 31.9336 341.534 32.3516 341.729 33.1875C341.831 33.625 341.917 34.1641 341.987 34.8047C342.081 35.7266 342.14 36.2695 342.163 36.4336C342.265 37.043 342.421 38.0391 342.632 39.4219C343.21 37.8359 343.874 35.8633 344.624 33.5039C344.944 32.4883 345.546 31.9805 346.429 31.9805C347.296 31.9805 347.866 32.5469 348.14 33.6797C348.335 34.4766 348.542 35.5117 348.761 36.7852C349.081 38.6367 349.276 39.7383 349.347 40.0898C349.417 39.8477 350.03 37.4727 351.187 32.9648C351.358 32.293 351.847 31.957 352.651 31.957C353.097 31.957 353.487 32.1016 353.823 32.3906C354.167 32.6797 354.339 33.0391 354.339 33.4688C354.339 33.5469 354.319 33.6602 354.28 33.8086ZM367.37 34.2305C366.519 36.0039 365.171 38.7891 363.327 42.5859C362.327 44.625 361.565 46.3164 361.042 47.6602C360.878 48.1445 360.62 48.8633 360.269 49.8164C359.987 50.5508 359.487 50.918 358.769 50.918C358.323 50.918 357.933 50.7734 357.597 50.4844C357.261 50.1953 357.093 49.832 357.093 49.3945C357.093 48.668 357.921 46.5156 359.577 42.9375C358.718 41.2422 357.354 38.7461 355.487 35.4492C355.3 35.1523 355.108 34.8516 354.913 34.5469C354.702 34.1875 354.597 33.8594 354.597 33.5625C354.597 33.1406 354.765 32.7695 355.101 32.4492C355.437 32.1289 355.823 31.9688 356.261 31.9688C356.776 31.9688 357.179 32.1602 357.468 32.543C358.577 34.0195 359.87 36.2422 361.347 39.2109C362.183 37.3594 362.69 36.2422 362.87 35.8594C363.425 34.6953 363.968 33.6719 364.499 32.7891C364.835 32.2266 365.296 31.9453 365.882 31.9453C366.319 31.9453 366.71 32.0938 367.054 32.3906C367.397 32.6875 367.569 33.0508 367.569 33.4805C367.569 33.707 367.503 33.957 367.37 34.2305ZM370.628 40.6523C370.19 40.6523 369.827 40.5156 369.538 40.2422C369.257 39.9688 369.116 39.625 369.116 39.2109C369.116 38.9062 369.104 38.4531 369.081 37.8516C369.065 37.2422 369.058 36.7852 369.058 36.4805C369.058 35.4023 369.065 33.7852 369.081 31.6289C369.104 29.4727 369.116 27.8555 369.116 26.7773C369.116 26.3633 369.261 26.0195 369.55 25.7461C369.839 25.4648 370.198 25.3242 370.628 25.3242C371.058 25.3242 371.417 25.4648 371.706 25.7461C371.995 26.0195 372.14 26.3633 372.14 26.7773V39.2109C372.14 39.625 371.995 39.9688 371.706 40.2422C371.425 40.5156 371.065 40.6523 370.628 40.6523ZM370.593 44.9062C370.124 44.9062 369.687 44.6562 369.28 44.1562C368.913 43.6953 368.729 43.2656 368.729 42.8672C368.729 42.4609 368.89 42.1211 369.21 41.8477C369.53 41.5742 369.894 41.4375 370.3 41.4375C370.769 41.4375 371.202 41.6875 371.601 42.1875C371.968 42.6484 372.151 43.0742 372.151 43.4648C372.151 43.8633 371.991 44.2031 371.671 44.4844C371.358 44.7656 370.999 44.9062 370.593 44.9062Z" fill="black"/>
</svg>
