<svg xmlns="http://www.w3.org/2000/svg" width="269" height="54" fill="none" viewBox="0 0 269 54"><path fill="#eee" d="M3 17.3C3 9.4 9.4 3 17.2 3H252c7.8 0 14.1 6.3 14.1 14.2v19.1c0 7.8-6.3 14.2-14.1 14.2H17.2C9.4 50.6 3 44.2 3 36.4z"/><path fill="#000" d="m30.1.4 1.4.3 1.4.4 2.1.3h5.6l1.4.1h3.8l1.3-.2 1.4-.2q1.5-.2 3-.1H53l1.4.1 2.7.1h1.4l1.4.2 2.7.1 1.4.1 1.4.1h2.4l1.4-.1 1.3-.2h3.2l1.4.2 1.3.2h2.2l1.4-.3 4-.7 1.4-.2 1.4-.3q2-.3 3.8.3L92 1l1.3.5h1.5L96 1l1.4-.5q1.8-.6 3.6-.4l1.4.2 1.4.1h5.1l2.8-.2h2.8q1.7 0 3.3.4l1.4.4 1.4.4q.8.2 1.7 0l1.4-.3L125 1q1.8-.4 3.6 0l1.4.3 1.4.2q1 .3 2 .1l1.5-.1 1.3-.2q1.5 0 2.8-.3l1.3-.2 1.4-.1q1.7-.2 3.4 0l1.4.4 1.3.2 2.4.2h2.7l2.6-.1 1.3-.2 1.4-.1 3-.1h2.7l3 .3 1.5.2 1.3.3 2-.1 1.3-.3 1.4-.4 3-.5h1.4l1.3-.2h5.9l3.2.6 1.3.4 1.4.4q1 .3 2 .2l1.4-.1 1.3-.1 2.6-.4 1.4-.2 1.3-.3q1.7-.3 3.4 0h1.3l1.4.2 2.1-.1 1.4-.3 1.4-.2q1.8-.4 3.7.2l1.4.3 1.3.4q.8.3 1.7 0l1.3-.3 1.4-.4a8 8 0 0 1 3.7-.1l1.4.3 1.4.2 2.5.4 1.3.1 1.4.1h3.8l1.4-.2h5.6q1.2 0 2.4-.2l1.3-.3 1.4-.3q2.3-.4 4.1.7l1.3.8 1.2.7q1.3.8 2.5 1.8l1 .9.9.8 2 2 1 1 1 1q1.4 1.5 1.7 3.5l.2 1.4.2 1.4q.3 1.6.3 3.1v2.8l-.2 2.9-.1 1.4-.1 1.3-.2 2.6v2.8l-.4 3-.3 1.4-.3 1.3-.6 2.7-.2 1.3-.3 1.4q-.4 2.3-2.3 3.5l-2.3 1.7Q260 50.9 258 51l-1.4.2-1.3.1q-1.4 0-2.7.3h-1.3l-1.4.2h-8.1l-1.3.2-1.4.2q-1.5.2-3.1.1h-1.4l-1.4-.1h-3.9l-1.3.2-2.4.3-1.4.3-1.4.3q-1.6.5-3.2.3h-8.2q-1.8 0-3.4-.6l-1.4-.4-1.4-.5q-.7-.3-1.6 0l-1.4.2-1.4.2q-1.8.4-3.5 0l-1.4-.2-1.4-.3H191l-1.4.1-2.8.2-1.3.1-1.4.1-2.5.3-1.4.3-1.4.2-3 .3h-11.3l-1.3-.1-1.4-.2-2.6-.2h-2.8l-2.6-.1h-2.7l-2.7.1H147l-1.4.1-2.6.2-1.4.1-1.4.1a10 10 0 0 1-3.5-.3l-1.3-.4-1.4-.4q-1-.3-2-.2l-1.4.2h-1.3q-1.8.3-3.4-.1l-1.4-.3-1.3-.3q-1.2-.2-2.2-.1h-1.4l-1.4.1H114l-1.4-.1h-2.3l-1.4.3-1.3.2q-1.7.3-3.2.2l-1.4-.1h-1.4l-2.7-.2h-5.2l-1.4.1-1.3.2q-1.3 0-2.5.3l-1.4.4-1.3.3a10 10 0 0 1-3.5.1l-1.4-.2-1.4-.1L77 53h-8.3q-1.6.2-3.2-.3l-1.4-.4-1.4-.3a3 3 0 0 0-1.6 0l-2.8.8q-1.5.5-3.2.5h-1.4l-1.4.1q-1.5 0-3.2-.3l-2.8-.5h-1.9l-1.4.2-1.3.2q-1.7.3-3.4.2L37 53l-1.4-.1-3-.5-1.3-.3-1.4-.3a4 4 0 0 0-1.8.1l-1.4.4-1.3.3q-1.7.5-3.5.3h-1.3l-1.4-.2h-2.7l-1.4-.1h-1.4q-2.2 0-3.9-1.8l-1-1-.9-1q-.7-.8-1.7-1.5L5 46.5l-1.2-.8a5 5 0 0 1-2-4.1v-2.9q.2-1.3.1-2.6v-2.7q0-1-.4-2L1 30l-.5-1.4a8 8 0 0 1-.4-3.7l.1-1.4.2-1.3q.1-1.5.5-3l.3-1.3.3-1.4.3-2.4.1-1.4.2-1.4Q2 9 3.6 7.6l.9-1.1 1-1Q6.4 4 8.1 3l1.3-.7 1.2-.6Q12.4.7 14.5 1l1 .2.7.1.2-.1.8-.3 1.2-.1 1.4-.1h1.4l2.6-.4 1.4-.1 1.3-.2q1.9-.2 3.6.3m-3 3.9-1.4.2-1.3.2-3 .2-1.3.1-1.4.1a2 2 0 0 1-1.8.7l-1.2-.1-2-.5q-.2 0-1 .3l-1.2.7-1.3.7q-.9.5-1.5 1.2l-1 1.1-.9 1.1q-.5.6-.5 1.3l-.2 2.8q0 1.5-.5 3l-.3 1.4-.3 1.3-.4 2.6-.2 1.3-.1 1.4q0 .9.2 1.8l.5 1.3.5 1.4q.6 1.7.6 3.4v7.1L6 41.8v.2l.2.1 1.1.8 1.2.8q1.5 1 2.5 2.2l2 2q.3.4.8.4h2.8l2.9.2 1.4.1h1.3q1 .1 2.1-.1l1.4-.4 1.3-.3q2-.5 3.7-.1l1.4.3 1.4.2 2.5.4 1.4.2 1.4.1h2.1l1.4-.3 1.4-.2q1.7-.4 3.5 0l1.4.3 1.3.3 2.3.2 1.4-.1H55q1 0 2.2-.4l1.3-.4L60 48q2-.6 3.9 0l1.3.3 1.4.4 2.2.2H77l3 .1 1.5.2 1.3.2 2-.1 1.4-.3 1.4-.3 3-.5h1.4l1.3-.2q1.5-.2 3-.1H99l2.8.2h1.4l1.3.1h2.3l1.4-.3 1.3-.2q1.7-.3 3.2-.2h1.4l1.4.2h2.5l1.4-.1h1.3q1.6-.1 3.3.2l1.4.2 1.4.3q1 .3 2 .1l2.8-.2q1.8-.1 3.5.3l1.4.4 1.4.4q1 .3 2 .2l1.3-.1 1.4-.1 2.9-.2h1.3l1.4-.1 2.8-.1h8.4l2.8.3 1.4.1 1.3.2h10.8l2.4-.3 1.3-.2 1.4-.3 3-.3 1.4-.1 1.4-.1 2.7-.2 1.3-.1 1.4-.1q1.6-.1 3.3.2l1.4.2 1.4.3h1.9l1.4-.3 1.3-.3q2-.3 3.9.3l1.3.5 1.4.4 2 .3h8.4q1 .1 2.2-.1l1.4-.3 1.3-.3q1.6-.4 3.1-.5h1.4l1.4-.1h8l1.4-.2 1.4-.2q1.5-.2 3.1-.1h1.4l1.4.1h2.3l1.4-.2h1.3l2.7-.3 1.3-.2h1.4q.8-.1 1.4-.7l1.2-.8 1.1-.8q.5-.3.6-1l.3-1.3.3-1.4.5-2.7.6-2.6q.3-1.1.3-2.3v-2.8l.2-2.8.1-1.4.2-1.4v-2.6l.1-1.3v-1.4q0-1.2-.2-2.4l-.2-1.4-.2-1.4q0-.8-.6-1.3l-2-2-1.7-1.7-2-1.7q-.7-.8-1.8-1.4l-1.2-.7-1.3-.7q-.4-.3-1-.2l-1.4.3-1.4.2q-1.6.3-3.2.3H241l-1.4.2h-1.4q-1.5.3-3 0h-1.4l-1.4-.2q-1.5 0-3-.4l-1.4-.3-1.3-.3-1.8.1-1.4.4-1.3.3q-2 .6-3.9 0L217 5l-1.3-.3a4 4 0 0 0-1.8-.1l-1.4.2-1.4.3a12 12 0 0 1-3.3.1l-1.4-.1-1.4-.2-2.1.1-1.4.3-1.4.2-2.9.4-1.4.1-1.3.1q-1.8.1-3.5-.3l-1.4-.4L188 5l-2.3-.4h-1.4l-1.3-.1h-2.4l-1.4.1-1.4.2q-1.2 0-2.4.4l-1.4.3-1.4.3q-1.8.4-3.6.1l-1.3-.2-1.4-.2-2.4-.2h-5.3l-1.4.2H156q-1.5.3-3 .2h-2.7q-1.5 0-3.2-.2l-1.3-.3-1.4-.2h-3.5l-1.3.2-2.8.3-2.8.3q-1.6.3-3.3-.1l-1.4-.3-1.4-.2q-.9-.3-1.9 0l-1.3.3-1.4.3q-1.9.4-3.8-.1l-1.3-.4-1.4-.4-2.1-.3h-2.8l-2.7.2H108l-1.4.1h-3l-1.4-.2-1.4-.1q-.9-.1-1.9.2l-1.4.4-1.3.4q-2.1.8-4.1 0l-1.4-.4-1.3-.5q-1-.3-1.7-.1l-1.4.2-1.4.3-2.8.5-1.3.2-1.4.2A12 12 0 0 1 76 6L74.6 6l-1.4-.2h-3.7l-1.3.2h-4.5l-1.3-.1-2.8-.2h-1.3l-1.4-.1-2.7-.1-1.4-.1H49l-1.3.2-1.4.2q-1.5.2-3.1.1h-1.4l-1.4-.1h-5.3q-1.7 0-3.4-.5l-1.3-.4-1.4-.4q-1-.2-1.9-.1"/><path fill="#000" d="M82.2 34.5q-1 .5-3.5.9l-3.6.3q-2.4 0-2.4-2a159 159 0 0 0 .5-12.5q0-.5.4-1 .3-.3 1-.3a1.3 1.3 0 0 1 1.3 1.3 159 159 0 0 1-.5 12 23 23 0 0 0 6.4-1.3q.6 0 1 .5.3.3.3.9 0 .8-.9 1.2m6.8.8q-2.4 0-3.8-1.1a4 4 0 0 1-1.7-3.5q0-2.4 1.3-4.1 1.5-2 3.9-1.9 1.6 0 2.8.6 1.5.7 1.5 2.2 0 1-1.2 1.9l-2.2 1-3.3 1.5q.5.6 1.1.8t1.6.2q1.3 0 2.2-.5l1.2-.5q1 0 1 1t-1.6 1.8q-1.3.6-2.8.6m-.3-8.2q-.9 0-1.5.6t-1 1.8l4.2-2q-.6-.4-1.7-.4m11 8.4q-2.3 0-3.6-1.3-1.5-1.3-1.6-3.3 0-2 1.4-4 1.5-2.4 3.6-2.4 1 0 2.4.6 1.5.7 1.6 1.5l-.3.9q-.4.4-1 .4l-1-.5q-.5-.4-1.7-.4-.7 0-1.6 1.4A5 5 0 0 0 97 31q0 1 .7 1.6.7.5 1.8.5.7 0 1.6-.5l1.2-.5q.6 0 1 .4l.3.9q0 .8-1.7 1.5-1.4.6-2.4.7m7.9-12.3q-.7 0-1-.4-.5-.4-.5-1t.4-1q.5-.5 1-.5.8 0 1.1.4.6.5.5 1 0 .7-.5 1-.3.5-1 .5m.8 7.1v3.5q0 .6-.3 1-.4.3-1 .3t-1-.3-.3-1v-5.7l.1-2.1q0-.6.4-1 .4-.3 1-.3t1 .4q.3.3.3.9l-.1 2.1zm5-4q1.5-1.7 2.8-1.7 1.5 0 2.2 1.1a4 4 0 0 1 2.9-1q1.8 0 2.5 1.8l.5 2.7.7 5.2q0 .6-.4 1-.4.3-1 .3-1.1 0-1.3-1.1l-.7-5.7q-.3-1.7-.7-1.7l-1 .4-1.1.8q0 1 .2 3.2l.3 3.2q0 .5-.4.9-.3.3-1 .3-.4 0-.9-.3-.3-.4-.4-1 0-1-.2-3.2l-.4-4.2a8 8 0 0 0-2.4 2.3v4.5q0 .6-.5.8t-1 .3q-.8 0-1-.7-.3-.4-.3-1.5v-6.5q0-.8.3-1.5.3-1 1-1t1 .5q.4.4.4 1zm22.6.4-5.2 11-.7 1.8q-.3 1-1.2 1-.6 0-1-.4-.4-.3-.4-.9 0-1 2-5.3l-4-7.8q-.1-.5.4-1 .3-.3 1-.3.5 0 1 .5 1.3 1.8 3.1 5.5l2.6-5.3q.4-.7 1.2-.7.5 0 1 .3.3.4.4 1zm17-1.6.3-4.6q.2-1 1.3-1.1.6 0 1 .4.3.3.3.9l-.3 4.2a60 60 0 0 0 0 9q0 .6-.3.9-.4.3-1 .3t-1-.6a5 5 0 0 1-2.8.8 5 5 0 0 1-3.6-1.4q-1.5-1.4-1.5-3.6a6 6 0 0 1 1.5-4.2 5 5 0 0 1 3.9-1.6l1.3.1zm-.2 3q-.2-.5-.8-.9-.5-.3-1.2-.3-1.5 0-2.2.9-.6.8-.7 2.5 0 1 .8 1.8.7.7 1.8.7.8 0 1.1-.2l1.2-.9zm13.2 7.4q-.5 0-1.4-1l-1.6.7-1.2.2q-2.3 0-3.5-1.3-1-1.2-1.1-3.7 0-2.4 1.7-4a6 6 0 0 1 4.1-1.7q.9 0 2.2.6t1.4 1.4q0 .4-.2.6l-.2 1a17 17 0 0 0 .3 4l.8 2q0 .5-.4.8t-1 .4m-2.4-6.7.1-1.6-.6-.2a3 3 0 0 0-2.3 1q-1 1.2-1 2.5 0 1.2.5 2 .5.6 1.4.6a3 3 0 0 0 2.2-.8zm8 4.6q0 1.9-1.3 1.9-.6 0-1-.4-.3-.4-.3-1V20.5q-.1-.4.4-.9.3-.3 1-.3l.9.3q.3.4.3 1zm7.4 1.9q-2.4 0-3.8-1.1a4 4 0 0 1-1.6-3.5q0-2.4 1.2-4.1 1.5-2 4-1.9 1.6 0 2.7.6 1.5.7 1.5 2.2 0 1-1.2 1.9l-2.2 1-3.3 1.5q.4.6 1.2.8t1.5.2q1.3 0 2.2-.5.8-.5 1.3-.5 1 0 1 1t-1.6 1.8q-1.5.6-3 .6m-.3-8.2q-.9 0-1.5.6t-1 1.8l4.2-2q-.6-.4-1.7-.4m10-3.9q-.6.1-1-.4t-.5-1 .5-1 1-.5 1.1.5.5 1-.5 1-1 .4m-.4 13.5a105 105 0 0 0-.7-10.6q0-.6.3-1 .5-.5 1-.5t1 .3q.5.3.5.7l.6 11.2q0 1.4-1 2.5a3 3 0 0 1-2.4 1.3q-2.3 0-3.8-3.3l-.2-.6q0-.5.5-.9.3-.4 1-.4.5 0 1 .7l.7 1.3q.5.6.8.6.6 0 .7-1.3m6.3-4.7q-.6 0-1-.4-.3-.3-.3-.8V20.5q0-.5.4-.9.3-.3.9-.3.5 0 .8.3.4.4.4.9v10.3q0 .5-.4.8-.3.4-.8.4m0 3.5q-.7 0-1.2-.6t-.4-1.1.4-.8.9-.4q.6 0 1 .6t.5 1q0 .6-.4 1-.3.3-.9.3"/></svg>