<svg xmlns="http://www.w3.org/2000/svg" width="177" height="307" fill="none"><g clip-path="url(#a)"><g clip-path="url(#b)"><path fill="#000" d="M109.6 20.8a4 4 0 0 0-.5-1.8c-.6-1-1.5-1.5-2.6-1.3v-1a91.4 91.4 0 0 0-.5-7 19.5 19.5 0 0 0-2.8-6.8 10.2 10.2 0 0 0-1.2-1.3A8.2 8.2 0 0 0 98.3.1c-1.6-.2-3.2-.1-4.7.3a16.5 16.5 0 0 1-3.5.4 62.1 62.1 0 0 1-9-.2 20.8 20.8 0 0 0-5.2 0c-1 0-2 .3-3 .7a8.7 8.7 0 0 0-3.6 2.8c-1 1.3-1.6 2.8-2 4.4a17 17 0 0 0-.1 4.8l.4 3.7c-.7-.1-1.5-.1-2.2.2-.4.2-.7.4-.9.8a8 8 0 0 0-.7 3.4l-.1 3.3c-.2 1.5-.2 3 0 4.5v.3c.1.7.4 1.3.8 1.8.3.4.6.6 1 .7a5 5 0 0 0 2.4.2v1.1c.3 1.2.4 2.3.5 3.5a12.4 12.4 0 0 0 .8 3.8 32 32 0 0 0 .9 2.3 18.7 18.7 0 0 0 3.2 5 18.6 18.6 0 0 1-.8 6l-.6.5-1.4 1a11.9 11.9 0 0 0-1.7 1.1l-3 1.4-1.5.8a165.5 165.5 0 0 0-14.7 6.1 28.3 28.3 0 0 0-9 7.5 34.1 34.1 0 0 0-4.2 8V80l-.7 2.3c-.9 2.4-1.3 5-1.3 7.6a46.5 46.5 0 0 1-2.3 14v.4a.8.8 0 0 0 0 .3v.2a144.6 144.6 0 0 0-2.7 15.4c-.4 3.2-1 6.5-1.6 9.8l-.4 3.9a85 85 0 0 0 .3 19.8 466.5 466.5 0 0 0 1.4 10.1v.4l.4 2.8a23 23 0 0 0 .7 3c.4 2.2.7 4.3.9 6.5a42 42 0 0 1 0 9.5c-.4 3.2-.3 6.5.2 9.7a22.4 22.4 0 0 0 4 9.4c.4.6 1 1 1.5 1.5l1.9 1c.3 0 .5.2.8.3l2 .5a34.6 34.6 0 0 0 6.1.3l-.3 4.4a896.7 896.7 0 0 1-.9 23.5 64 64 0 0 1-1.4 9.7 3 3 0 0 0 .2 1.8c.5 1.3 1.5 2 3.1 2a23.6 23.6 0 0 1 5.9 1.8l1.6.6a69 69 0 0 1-.3 9.8c-.5 4.8-1.1 9.5-2 14.3-.7 4.7-.8 9.5 0 14.2a245.2 245.2 0 0 0 2.2 14.4 273.4 273.4 0 0 0 3 16.7 86 86 0 0 1 .6 11.2v.3l-.2.7-.2 1.3-.8 1.7c-.4 1.3-1 2.4-1.6 3.5a9 9 0 0 0-1.4 3.7 2752.2 2752.2 0 0 0-4.3 7.3 11.8 11.8 0 0 0-2.9 3.9l-.1.2v.4a2 2 0 0 0 0 .4v.7a15.1 15.1 0 0 0 0 2.8c.1.5.5.8 1.1 1a182.8 182.8 0 0 0 9.1 1.7l2.6-.2c2.2-.3 4.5-.8 6.7-1.5a6.5 6.5 0 0 0 4.2-4l.1-.1v-.1l.2-.1a13 13 0 0 1 1.8-.8 7 7 0 0 1 1.4-.4c1.6-.2 2.8-1 3.6-2.2a5 5 0 0 0 .2-4.8l-.2-1.4c-.2-1.1-.4-2.3-.8-3.5l-.7-3.4a6.8 6.8 0 0 0-.8-1.2v-.3l-.3-.5a53.8 53.8 0 0 1 .6-26.6c1.2-4.7 2.3-9.5 3.3-14.2 1-4.7 1.2-9.5.7-14.3l-1.1-14c-.1-1.2 0-2.4.2-3.6a381.6 381.6 0 0 0 2.8-13.3H82.8l.1-.2h.1l.1-.1.4-1.1a343.8 343.8 0 0 1 2.4-15l2-9.3c.7-2.5 1.4-5 2.3-7.4l.9 1.8 1.2 3.1a493.2 493.2 0 0 1 5.4 17.6 148.2 148.2 0 0 0 3.3 9.9v.2l.1.2.2.2v.4l.1.1v.1a.9.9 0 0 0 .5.3 1.2 1.2 0 0 0 .3.1H102.5l.7-.1a61.5 61.5 0 0 1 6.2 28c0 4.6.2 9.2.5 13.8.1 2.4.6 4.8 1.5 7.3a346.9 346.9 0 0 0 4.4 16.7 51.2 51.2 0 0 1 2.5 18.6 86 86 0 0 1-1.3 9.2 23.1 23.1 0 0 0 .4 6.5v.2l.1.1.5.6.6.3.6.3h1.5l.7.3c1 .8 1.9 1.6 2.7 2.5.8 1 2 1.7 3.2 2.1a19.8 19.8 0 0 0 2.5.7 64.2 64.2 0 0 1 6.7 1.2h1.5a23.8 23.8 0 0 0 6.9-1.7 25.3 25.3 0 0 0 1.1-.8c.3-.2.4-.6.5-1a18.4 18.4 0 0 0 0-3 32 32 0 0 1-1.3-3.4 6.7 6.7 0 0 0-1.6-2.3l-.8-1.1a70 70 0 0 1-2.9-3.9v-.2l-.3-.4-.4-.5a4 4 0 0 1-.3-.5v-.1a9.1 9.1 0 0 0-.5-1.1l-.3-.4-.4-1-.8-1.3-.7-1.2v-.2h-.1a1.5 1.5 0 0 0 0-.3l-.2-.2a4 4 0 0 0 0-.2v-.1l-.2-.4-.1-.5-.1-.6v-.1l-.1-.1-.1-.1a2 2 0 0 0-.4-1.1 21.6 21.6 0 0 0-1.4-1.6l-.1-8c-.3-5.3-.2-10.5 0-15.7l1-14.8c.3-4.9.2-9.7-.3-14.6-.2-2.2-.7-4.4-1.4-6.6-1-3.1-1.6-6.4-2-9.7a752.1 752.1 0 0 0-1.4-13.7l1.6-.2a11.1 11.1 0 0 0 5.3-2.6l.9-.7h.1a1 1 0 0 0 .3 0v-.1h.2v-.1l.1-.1h.1l.1-.3v-.2l-.3-2.2a106.4 106.4 0 0 1-4.1-18.2l-1-7.2a204 204 0 0 0-1.2-9.6 24 24 0 0 1 1.7-.3c2.2-.3 4.2-1 6-2a9.8 9.8 0 0 0 5.1-7c.3-1.4.5-2.8.5-4.2a445 445 0 0 0 .2-11.9 337.5 337.5 0 0 1 2.1-19l.4-2a112.8 112.8 0 0 0 1.9-17.8l.6-10.2a24 24 0 0 0-.8-8.8 3.7 3.7 0 0 0 0-.3v-.4c0-.2-.1-.3-.3-.4a4.5 4.5 0 0 1-.7-.8 11 11 0 0 1-.6-2.5l-.8-7.2a121.8 121.8 0 0 0-1.2-9.6 32.6 32.6 0 0 0-2.7-8.3v-.5l-.1-.2h-.1V94c-.3-.7-.6-1.3-.7-2l-2-9c-.7-3.2-1.6-6.3-2.9-9.3a19.7 19.7 0 0 0-13-11.6c-2.3-.6-4.4-1.4-6.4-2.5-1.4-.7-2.7-1.2-4.1-1.7a117.3 117.3 0 0 1-9.2-3.3h-.2l-1-.6c-.5-.3-1-.7-1.3-1.2v-.3l-.5-.9a15.6 15.6 0 0 1-1.3-4.3l1.3-1.4.2-.2a22 22 0 0 0 1.6-2.6 30.2 30.2 0 0 0 2.5-10.4l.5.1h.7l.6-.2c1.1-1 1.7-2.2 1.8-3.6l.3-3.6c.1-1.5.2-3 .1-4.6Zm-2.5-1.4h.2l.1.1.1.1v.1l.4 1.3a44 44 0 0 1-.3 6.1 7 7 0 0 1-1 4H106l-.2-.1-.7-.5c-.5-.3-.8-.3-1.2.1-.2.3-.2.5-.1.7a23.3 23.3 0 0 1-.9 7.1c-.4 1.5-1 3-1.6 4.3-.5 1-1.2 2-2 2.8L97.5 47a52 52 0 0 1-3.9 2.5 8.3 8.3 0 0 1-4.2 1.6l-5.4.3c-1.6 0-3.1-.3-4.6-1-.7-.4-1.4-.7-2-1.2-1-.6-1.8-1.4-2.6-2.2l-1.3-1.6a15 15 0 0 1-2.2-4.2l-.1-.3v-.1a14 14 0 0 1-.8-2.6l-.6-4.4v-.6l-.1-.8a2.1 2.1 0 0 0-.4-2.2c-.6-.5-1-.5-1.5.2h-.3l-.2.1h-.6a20.8 20.8 0 0 0-.6 0l-.2-.2-.2-.2a6 6 0 0 1-.3-2 107.3 107.3 0 0 1 .4-8.8V19l.1-.1.2-.1a13.1 13.1 0 0 1 .9-.3h.1l.4.3.5.4c.4.4.8.4 1.3 0l.2-.3v-.7l-.1-1.3a80 80 0 0 1-.5-4.6c-.1-1.6 0-3.1.4-4.7A7.5 7.5 0 0 1 71.7 4a6 6 0 0 1 3-1.4 57 57 0 0 1 3.7-.3 170.2 170.2 0 0 1 7.4.3h4.7a14.4 14.4 0 0 0 4.3-.8c1.5-.3 3-.2 4.4.3 1.5.6 2.7 1.6 3.4 3.1l.2.4a20.1 20.1 0 0 1 1.9 7.4 32.6 32.6 0 0 1-.2 5.8l-.3 1.2c0 .3.1.5.4.6.7.3 1.1 0 1.3-.7a6 6 0 0 1 .7-.5h.5Zm5.7 40.2 1.2.5c2 1 4 1.8 6.1 2.5 2.3.6 4.5 1.5 6.6 2.4 2.9 1.4 5.2 3.4 6.9 6 1.6 2.7 2.9 5.6 3.7 8.6.8 3 1.5 6 2 9a24.6 24.6 0 0 0 1.6 5.6v.1l-.1.2v.1a40 40 0 0 1 2.5 7h-.3l-.4.1a33 33 0 0 0-3.5 1.4 23.6 23.6 0 0 0-1.2.4 6.3 6.3 0 0 0-1.9.3l-1.6.2a240.6 240.6 0 0 0-11.5 1.6 75.2 75.2 0 0 1 .3-10v-.2l-.1-.1h-.1l-.1-.2a2.2 2.2 0 0 0-.2 0H122.4a.7.7 0 0 0-.3 0h-.1l-.1.1-.1.1-.2.4-.5 6.3a35.3 35.3 0 0 0 1.3 12c-1 1.7-1.7 3.6-2.2 5.6l-.8 2.7c-1.2 3-1.7 6-1.6 9l.1 7c0 3.2.3 6.3.8 9.3a613.4 613.4 0 0 1 2.6 18.4c.2 2.8.6 5.5 1 8.2a45.5 45.5 0 0 1-7.7 2.6 63 63 0 0 1-20 2 453.9 453.9 0 0 1-19.3-.8 241.6 241.6 0 0 1-16-1.3 27 27 0 0 1-6.9-1.3l.6-4a536.5 536.5 0 0 1 3-19.4c.4-3.1.7-6.2.8-9.4v-10.2a64.9 64.9 0 0 0-1.9-13.1c-.3-1-.7-2-1.2-2.9l.2-2.5.3-4.8c.2-3.3.2-6.5 0-9.8 0-1.6-.3-3-.9-4.4l-.2-.1h-.4a18.5 18.5 0 0 0-.5.1v.1l-.2.2v.2a80.3 80.3 0 0 0 0 .3 41 41 0 0 1 .4 11.3h-2a48 48 0 0 1-8.9-1.3 121 121 0 0 1-7.3-1.9 313.7 313.7 0 0 1 1.7-7.6l-.1-.1.1-2.6c0-2 .2-4.2.5-6.2.5-3 1.3-6 2.4-8.6 1.4-3 3.2-5.6 5.5-7.9 2.3-2.2 4.8-4 7.7-5.2 2.8-1.3 5.7-2.5 8.6-3.6a84.8 84.8 0 0 0 9-4 14 14 0 0 0 5.7 7l2 1.2a16.7 16.7 0 0 0 13.2 2.2c3-.5 5.9-1.6 8.4-3.3 2.7-1.7 4.5-4.2 5.2-7.2l.3-.5.1-.6v-.2h.1l8.2 3ZM98.3 48.5h.1l.1.4 1 3.1c.8 1.8 2 3 3.5 4l-.1.2-.2.6-.2.5a11.8 11.8 0 0 0-.4 1.3l-.6 1.1c-1.4 2.3-3.3 4-5.7 5.2A20.7 20.7 0 0 1 85.5 67c-.9 0-1.7-.2-2.5-.4-2.4-.7-4.6-1.7-6.7-3.1a13.2 13.2 0 0 1-5.2-6.5 6.3 6.3 0 0 0 3.8-5.9v-1.7c1.2 1 2.5 1.8 4 2.5 1.4.7 3 1 4.5 1.1H86c1.6 0 3.2-.1 4.8-.4 1.5-.3 2.8-1 4-1.8a74 74 0 0 0 3.6-2.4ZM65.8 19.2Zm-32.2 87.2.2-.8 1 .2 8 2c2.8.5 5.5.9 8.3 1H52.4a403.6 403.6 0 0 1-.6 7.7c-.3 2.5-.8 5-1.6 7.3-1 2.9-1.7 5.9-2 8.9-.5 3.3-.8 6.7-1 10 0 2.8-.3 5.5-.8 8.2l-1.5 9c-.2 1.7-.5 3.3-1 5-1 3-1.3 6-1.1 9.3a13 13 0 0 0 2 6.5v.1l.6.7a41.5 41.5 0 0 0 2.4 2.6 20.6 20.6 0 0 0 .5 1.5 22.4 22.4 0 0 1 1.7 5.8c0 1.5.1 3 .5 4.5.6 1.9 1 3.8 1.4 5.7l-.4-.3a5.2 5.2 0 0 0-1-.6 3.5 3.5 0 0 0-.2-.3h-.1a5 5 0 0 0-.4-.2h-.1c-.5-.8-1-1.6-1.2-2.5-.4-1.4-1-2.6-1.7-3.8-.3-.4-.7-.7-1.2-.7-1.3-.2-2 .4-2 1.8v1.7c.3 1.5 1 2.9 2 4.1a15.6 15.6 0 0 0 3 2.8h.8a11.8 11.8 0 0 0 1 1.7v.1a26.5 26.5 0 0 0 .2 1.1l-.5.2-.5.3a3.5 3.5 0 0 0-.6.2 5 5 0 0 0-.2-.1l-.2-.1h-.3a1.6 1.6 0 0 0-.7 0 20 20 0 0 1-7.5-.7 6 6 0 0 1-2.6-1.5c-2-2-3.3-4.3-4-7-1-3.2-1.2-6.5-.8-9.8.4-3.3.5-6.6.2-9.9-.2-3-.6-6-1.2-9a165 165 0 0 1-2.9-28.8l.7-10v-.3c.4-1.5.7-3 .8-4.6a133.8 133.8 0 0 1 .6-4.5l1-5.2c.4-3.1 1-6.2 1.7-9.3Zm19.5 13.3.1.2.6 2a47 47 0 0 1 1.1 8.2c.2 3.2.3 6.3.3 9.5s-.2 6.4-.6 9.6a470 470 0 0 1-2.9 18.4 86.5 86.5 0 0 0-1 7.2l-.2.1-.1.1h-.1v.2H50v.2a50 50 0 0 1 0 .6v.1l.1.1a54.2 54.2 0 0 0-1.8 5.8l-1-1-1.7-2c-.7-1.8-1.1-3.7-1.2-5.6 0-1.5.1-3 .5-4.6.6-2.9 1.2-5.8 1.6-8.7l1.6-9c.2-1.6.4-3 .4-4.6a103.1 103.1 0 0 1 1.3-13.7c.5-3.3 1.3-6.6 2.3-9.7l1-3.4ZM51.8 177h.3c2 .7 4.1 1.2 6.3 1.4a196.2 196.2 0 0 0 18 1.4 295.9 295.9 0 0 1 18.5 1 44.5 44.5 0 0 0 8.8-.4c3.1-.3 6.2-.8 9.2-1.4a48 48 0 0 0 9.6-2.8v.2l.5 1c.7 1.3 1.2 2.6 1.7 3.8l1.2 3-.3.3-.4.5-.5.7-1.2 2.5c-1.3 3.2-2 6.4-2.2 9.8-.1 2 .7 3 2.5 3.3.4 0 .8 0 1.1-.2a6.3 6.3 0 0 0 2.6-3v.2l-.3.5v.1l-.5.8a18 18 0 0 1-1 1.1L124 202a3 3 0 0 0-.9 1l-.1.4c-.1.6 0 1.2.1 1.7l.7 1.3.4.4c.5.3 1 .6 1.6.7a8 8 0 0 0 1.6.4h.5a13.6 13.6 0 0 0 1.6-.4 5 5 0 0 0 .2.9l1.1 9a186.7 186.7 0 0 0 5.3 26.6l-1 .8-1.4 1-2.5 1a30 30 0 0 1-5.9 1l-1.5.3-5.4 1.1a78.7 78.7 0 0 1-10.2 1.5 38.1 38.1 0 0 0-5.6.5c0-.2-.1-.3-.2-.3a13 13 0 0 1-.2-.8 3 3 0 0 0-.3-.5 19 19 0 0 0-1-3.3l-.9-2.6a206.5 206.5 0 0 0-5.7-18.8 18.4 18.4 0 0 0-4.2-8.4H89.3a2.5 2.5 0 0 0-.2.4l-.1.2v.4a40.9 40.9 0 0 0-3.3 10.4 963.3 963.3 0 0 0-3.6 18.6 21.5 21.5 0 0 0-.3 4h-.3l-.2-.1a1.1 1.1 0 0 0-.3-.1h-.4a3.7 3.7 0 0 0-.9.1c-2.5.2-5 .2-7.6 0-2.3 0-4.7 0-7 .3a54.1 54.1 0 0 1-8 .4v-.1l-.3-.1h-.2l-.2-.1h-.5a36.7 36.7 0 0 0-6.4-2.2H49a25.4 25.4 0 0 0-2-.5l-.2-.2c0-1.2 0-2.5.4-3.7.7-3.2 1.1-6.4 1.2-9.6 0-3.2 0-6.4.2-9.6l.1-1.6a293.4 293.4 0 0 0 .7-14.5l1.8-.7c.4-.3.7-.6.8-1 .3-1.5 0-2.8-.8-4 .5.2 1 .2 1.5 0 .4 0 .7-.2 1-.6a43.6 43.6 0 0 0-1.8-9.7 23.9 23.9 0 0 0-1.8-8 2 2 0 0 0 0-.2v-.3c0-.4-.2-.7-.4-1a159.2 159.2 0 0 1 2-6.4Zm-6.5 17.8c.3.2.5.5.6.8l1 2.8c.3 1 .7 1.8 1.2 2.6l-1-1a4 4 0 0 1-1.4-2.4 79 79 0 0 0-.4-2.8Zm98.3-91.5c.5 1.7.7 3.4.9 5.1a160.4 160.4 0 0 0 1.2 11.1 7 7 0 0 0 1.5 4.5l.6 3c.4 3 .5 6.1.2 9.2l-.5 9.3a122.6 122.6 0 0 1-1.8 15c-.5 3-1 6-1.3 9l-1 9.3c-.4 3-.5 6.1-.3 9.2.2 3.2 0 6.3-.5 9.3-.3 1.6-.9 3-1.8 4.3a7.3 7.3 0 0 1-4.2 2.8 469.7 469.7 0 0 0-6 1.4 54.6 54.6 0 0 0-2.8.2l-.2.1a2 2 0 0 1-.7-.2 6 6 0 0 0-1.2-.4h-.1l-.2-.1v-.1h-.2v-.1a3.6 3.6 0 0 0-.2-.4l-.1-.2v-.3l-.1-.2v-.2l.5-.6a12 12 0 0 0 3.7-4.1l2-3a4 4 0 0 0 .3-3.5l-.7-.8c-.3-.2-.6-.3-1-.3l-.7.3c-.4.3-.8.7-1 1.2a7 7 0 0 0-.3.3l-.2.4a184.5 184.5 0 0 1-2 4.4l-.9 1.3h-.2l-.2.1h-.5a4.6 4.6 0 0 1-.3-.1c-.5-1.5-.5-3 0-4.6a36.7 36.7 0 0 0 1.4-5l.5-.8a13 13 0 0 1 .3-.9l.4-1 .3-.7.3-.3.2-.2a1 1 0 0 0 .2 0 3.7 3.7 0 0 0 .3-.1l1.4-1.7c1.3-1.5 2.5-3.3 3.6-5.1a16.3 16.3 0 0 0 2-8.2 98.1 98.1 0 0 0-1.8-15.5 723 723 0 0 1-.6-5.2c0-2-.1-4.1-.3-6.1a64 64 0 0 1-.3-9.3c0-1.5 0-3-.3-4.5a20 20 0 0 0-2.2-6.2l-1.6-3a69.7 69.7 0 0 1-2.8-7.3v-.2a.7.7 0 0 0-.1-.2h-.1l-.1-.2c-.6-2-1-3.9-1-6l3-.3 9-1.2c3-.3 5.7-1.1 8.4-2.4h.2Zm-22.3 18.6c.5-2 1.2-3.7 2-5.5a62 62 0 0 0 4 8.7 16 16 0 0 1 2.2 8.5v7a506.5 506.5 0 0 0 1.2 14.1l1.2 8.7c.3 3.3.5 6.5.5 9.8 0 .6-.2 1.1-.4 1.7a53.8 53.8 0 0 1-4.6 8.2l-1.7-3.8a37.3 37.3 0 0 0-1.6-4V174l-1.2-9a157 157 0 0 0-2.5-17.8c-.5-3-.7-6-.7-9.2l-.2-4.8a20 20 0 0 1 .6-6.7l1.2-4.5Zm11.1 33.7v-.1Zm-2.6 38V194.3l-.3.6-.2.5-.2-.7v-.3c.2-.4.4-.6.7-.7Zm-2.1 4v.1-.1ZM112.3 252c2-.1 4-.4 6-.8a222.6 222.6 0 0 1 9.3-1.8v.4l.1.1v.9a119.3 119.3 0 0 0 .6 4.6l.5 5.5c0 2 .3 4 .8 5.8a70.2 70.2 0 0 1 3 22.7c0 4.8-.2 9.6-.6 14.4-.3 4.8-.5 9.6-.3 14.4l.2 13.8h-.7a6.8 6.8 0 0 1-.5-.2l-1 .2a3 3 0 0 0-1.1.5l-1 .6-.6.4-.5.5-.3.5-.8.7-.8 1c-.2.3-.4.6-.4 1h-.1l-.2.3a28.7 28.7 0 0 1-.4.6h-.2l-.3.1a1.6 1.6 0 0 0-.3.2 2.1 2.1 0 0 0-.5 0h-.1a4.6 4.6 0 0 0-.3.2h-.2l-.5.2-.5.4-.6.5v-.1a1.8 1.8 0 0 0-.2-.2c.5-2.8.6-5.8.3-8.8a78.3 78.3 0 0 0-3.7-16.5c-.5-2.6-1.2-5-2-7.6a69.4 69.4 0 0 1-2.9-12 418 418 0 0 1-.4-12.3c-.1-5.3-.7-10.5-1.7-15.7-.9-4.8-2.4-9.3-4.6-13.6a82.3 82.3 0 0 1 7.5-.9Zm-54.8 1 1.2.1c1 0 1.9 0 2.8-.2a40 40 0 0 1 10-.6 47.2 47.2 0 0 0 9.3-.2l-2.5 11-.4 2.8c-.2 3.9 0 7.7.4 11.6.6 4.8.8 9.6.6 14.4a50 50 0 0 1-1.4 9.7l-2.7 10.2c-1.4 4.8-2.1 9.5-2.2 14.3a43.3 43.3 0 0 0 1.6 12.8 13.7 13.7 0 0 0-2.8-1.4l-.8-1.2a8.6 8.6 0 0 0-3-3.5 5.3 5.3 0 0 0-4.5-.8l-.8-.1-.8-.1-1-8a76 76 0 0 0-1.6-10l-.1-.4-1.2-6.6c-.5-4-1.1-7.9-2-11.8a46 46 0 0 1-.6-14.4c.5-5 1.2-9.9 2-14.8.5-4.3.7-8.5.5-12.8Zm3.7 80.6h3.7a12.1 12.1 0 0 1 1.3.5c1.2.7 2.1 1.6 2.7 2.8.4.8 1 1.4 1.6 1.9A28.9 28.9 0 0 0 75 341h.5l.3 1.3a35 35 0 0 1 1.4 6.3V349l.2.4.3 1.3v1.5a33.5 33.5 0 0 1-.6.8l-.6.4c-.7 0-1.3.2-2 .4-1.1.4-2.2.9-3.2 1.5-1 .5-1.5 1.3-1.8 2.3-.7.7-1.6 1.2-2.6 1.6a43.1 43.1 0 0 1-6.4 1.8 33.8 33.8 0 0 1-10-1.4l-1-.2v-1.9a13.6 13.6 0 0 0 .2-1.5v-.1l.1-.2v-.1l.8-1c.4-.2.7-.6 1-1a50 50 0 0 0 7-13l.9-1.7.5-1.4.4-1c.3-.4.5-.9.5-1.4a15.3 15.3 0 0 0 .3-1.5v-.1Zm70.7.2.6-.1.4.4a44.2 44.2 0 0 0 1 1.7v.4l.1.7a26 26 0 0 0 .4.9c0 .5.3.9.5 1.3a77.5 77.5 0 0 1 3.3 5.8c.2.5.4.9.7 1.2.6.7 1 1.4 1.5 2.2.4.7 1 1.4 1.6 1.9l.7.8c.4.4.7.8.9 1.4l.7 1.6.1.6a19.6 19.6 0 0 1 .4 1v2.3a2.4 2.4 0 0 1-.4.3h-.2l-1 .4c-1 .4-2 .7-3 .8-1 0-2 .2-3 .4h-1.1a256.6 256.6 0 0 1-8.6-1.7c-.5-.3-1-.6-1.3-1-1-1.1-2-2.1-3.1-3-1-.8-2.2-1.2-3.6-1a2.8 2.8 0 0 1-.3-.2h-.1v-.3a6.5 6.5 0 0 0-.4-1.3v-1a41 41 0 0 1 .9-8.5 20.1 20.1 0 0 0 .7-.2l.1-.1.1-.1h.1a60.2 60.2 0 0 0 3-1.5l.5-.1.3-.2c.3-.1.4-.4.6-.6l.5-.8c.2-.2.4-.5.5-.9l.3-.5.7-.7.7-.6v-.2h.1v-.1l.1-.2h.1l.1-.2h.4c.1-.2.3-.3.4-.3l.5-.4.5-.3a4.9 4.9 0 0 0 .7-.2l.7.2h.6ZM88 220.5Zm24.2 29.7h-.1ZM97.5 49v.1Zm-27-23.7-.3-.2h-2v-.4a8.5 8.5 0 0 0 .1-.6l.2-.3.1-.1a1.6 1.6 0 0 0 .2-.2c.5 0 .8-.1 1-.5.2-.2.2-.4.1-.6-.2-.6-.7-.8-1.5-.5-1.2.4-1.9 1.4-2 2.8 0 1.4.7 2.1 2 2.2h1.2l.7-.3c.5-.4.6-.8.2-1.3Zm8.8-3.7c.8 0 1.2-.4 1.4-1.2V20c-.6-1-1.4-1.1-2.2-.5l-.4.5c-.2 1 .2 1.5 1.2 1.6Zm17.9 25.5Zm-.1 0v.1Zm0 0Zm-6.6-7.3a8 8 0 0 1-2.2.6h-3a14.7 14.7 0 0 1-3.4-1l-.5-.2c-.6 0-.9.1-1 .6-.1.4 0 .7.3.9.8.5 1.7 1 2.7 1.1a18.4 18.4 0 0 0 4 .5 9.8 9.8 0 0 0 6-2.3c.2-.2.3-.4.3-.7-.1-.6-.5-.8-1.1-.8l-.1.1c-.6.5-1.3.9-2 1.2Zm-3.3-10.7.3-.6c.2-.6 0-1-.8-1.1h-.3a8 8 0 0 0-1.6 2.2c-.4.8-.5 1.5-.1 2.3 0 .2.2.3.3.4 1 .6 2.3.8 3.5.7h.5c.4 0 .8 0 1.2-.2.2-.1.3-.3.4-.6 0-.7-.3-1-1-1-1.2 0-2.3 0-3.4-.2.2-.7.5-1.3 1-1.9Zm9.3-9c-.2-.7-.6-1-1.3-.8-.4 0-.7 0-1 .2-.5.3-.7.6-.6 1.1.1.7.5 1.1 1.2 1.2.6 0 1.1-.2 1.5-.8.2-.2.2-.6.2-.9Zm6.4 3.3c-.3.1-.4.3-.3.6.1.8.5 1 1.3.7h.4v.1l.1.1v.1l.1.4v.4l-.4.4-.3.2H103c-.4 0-.7.1-.7.5-.1.6.1 1 .7 1.1h1.3c1.5-.5 2.1-1.4 2-3a2 2 0 0 0-1-1.6 2 2 0 0 0-2.3 0Zm-11.4-9.9-.9.4a3 3 0 0 0-1.2 1c-.2.4-.2.6 0 .9.5.6 1 .6 1.4 0h.2c.8-.6 1.6-.9 2.6-1 1-.1 2.2 0 3.2.2l.8.6a47.3 47.3 0 0 1 2.7 2.2c.4 0 .7-.1.9-.5.2-.5 0-1-.5-1.2l-1.2-1.3a6.2 6.2 0 0 0-2.9-1.6 8.7 8.7 0 0 0-5.1.3Zm-18.3 3.6-.3.2c-.2.3-.2.5 0 .8 0 .3.2.5.5.6.5 0 .9-.1 1.2-.5.9-1.3 2.1-2.1 3.7-2.4a10.6 10.6 0 0 1 5.4.4h.5c.6 0 .8-.4.7-1 0-.1 0-.2-.2-.3-.8-.5-1.8-.9-2.8-1-1.6-.2-3.1 0-4.6.3-1.7.5-3 1.5-4.1 2.9Zm9.8-1.2h.1Z"/><path fill="#333" d="M132.5 333.6h-2.6l-.5.4c-.2 0-.4.2-.5.4a2 2 0 0 1-.4.2h-.2l-.2.1v.1l-.2.1v.2l-.1.1v.2l-.8.6-.7.7-.3.5-.5 1-.5.7c-.2.2-.3.5-.6.6l-.3.2h-.4l-.4.2a1 1 0 0 1-.3 0H122.7a7 7 0 0 1-.4.3h-.3l-.6.5-.4.3-.4.2v.1h-.2v.2h-.1a1 1 0 0 1-.4.1h-.3a41 41 0 0 0-.5 11v.2h.2a5 5 0 0 1 .2.2c1.4-.2 2.5.2 3.6 1a26 26 0 0 1 3.1 3l1.3 1a43.7 43.7 0 0 0 8.6 1.7h1.2l3-.4c1-.1 2-.4 3-.8.3-.2.6-.3 1-.3v-.1a6 6 0 0 0 .4-.3v-2.4l-.1-.4a19.6 19.6 0 0 0-1-2.7c-.2-.6-.5-1-1-1.4l-.6-.8a5.8 5.8 0 0 1-1.6-2l-1.5-2-.7-1.3-.5-.7-.4-.7-.4-1-1-1.7a82 82 0 0 0-1.7-3.3l-.2-.6-.1-.7v-.4a4.6 4.6 0 0 1-.4-.8l-.3-.4a44.2 44.2 0 0 1-.7-1Zm-71-.1h-.3a7.2 7.2 0 0 0-.2.2c0 .5 0 1-.2 1.4 0 .5-.2 1-.5 1.5l-.4.8-.5 1.5a8.7 8.7 0 0 1-1.6 2.7 50 50 0 0 1-8.2 14.5l-.1 1.4-.1 1.4v.5a14.9 14.9 0 0 1 2.5.6 57.5 57.5 0 0 0 5.8.9h2.7c.7 0 1.3 0 2-.2l1.2-.4 3.2-1.1c1-.4 1.9-.9 2.6-1.6.3-1 .9-1.8 1.8-2.3 1-.6 2.1-1.1 3.2-1.5.7-.2 1.3-.4 2-.4l.6-.4c0-.2.2-.3.3-.4a32.3 32.3 0 0 0 .3-.6v-1.3a18.3 18.3 0 0 0-.5-2 51.1 51.1 0 0 0-1.6-7.6H74.7c-1.5-.8-3-1.5-4.3-2.4-.7-.5-1.2-1.1-1.6-1.9a6.1 6.1 0 0 0-2.7-2.8l-.6-.2a12.1 12.1 0 0 0-1-.4l-1.3.1h-1.7ZM52 177h-.1l-.8 2.7-1.3 3.7.5 1a4.3 4.3 0 0 1 0 .3 1 1 0 0 1-.2.3c1 2.4 1.7 5 1.9 7.9a43.6 43.6 0 0 1 1.8 9.7c-.3.4-.6.6-1 .7-.5.1-1 0-1.5-.1.9 1.2 1.1 2.5.8 4-.1.4-.4.7-.8 1l-1.8.7a293.6 293.6 0 0 1-.8 16 597 597 0 0 0-.2 9.7c-.1 3.2-.5 6.4-1.2 9.6a14 14 0 0 0-.4 3.7l.1.1.1.1a4.2 4.2 0 0 0 .3.1 31 31 0 0 0 1.7.3h.5a36.7 36.7 0 0 1 6.9 2.3h.4a1.3 1.3 0 0 1 .3.3h1c2.4 0 4.7 0 7-.4 2.3-.3 4.7-.4 7-.2a58.5 58.5 0 0 0 9.4 0h.2l.1-.2v-.2c0-1.4.1-2.6.3-3.6a390.9 390.9 0 0 1 3.6-18.6 55.2 55.2 0 0 1 3.3-10.4V217.2a6.7 6.7 0 0 1 0-.2v-.1l.1-.1.2-.2a4 4 0 0 0 .2-.1h.8c2 2.4 3.4 5.2 4 8.4l.4 1.2a474.5 474.5 0 0 1 7.6 24 13 13 0 0 0 .5 1.3 38.1 38.1 0 0 1 7.3-.9 78.7 78.7 0 0 0 13.8-2.4 28.7 28.7 0 0 1 2.5-.4 30 30 0 0 0 7.4-1.8 22.8 22.8 0 0 0 2.4-2 140.4 140.4 0 0 1-5.3-26.5 1210.6 1210.6 0 0 0-1.1-9l-.1-.6v-.2l-.1-.1h-.6a13.6 13.6 0 0 1-1.5.4 8 8 0 0 1-1.6-.4 5.5 5.5 0 0 1-2-1.2c-.3-.3-.5-.7-.7-1.2a2.8 2.8 0 0 1 0-2 3 3 0 0 1 1-1.1 57 57 0 0 0 2.5-2.3l.5-.8v-.1l.2-.5a5.6 5.6 0 0 1 .1-.3 6.3 6.3 0 0 1-2.6 3c-.3.3-.7.4-1 .3-1.9-.3-2.7-1.4-2.6-3.3a28.4 28.4 0 0 1 4.3-13.5l.3-.4-1.2-2.9a28.5 28.5 0 0 0-2.2-4.8 4.2 4.2 0 0 1 0-.2v-.2h-.2l-.4.2-.4.1a48 48 0 0 1-8.6 2.7 90.2 90.2 0 0 1-27.2 1.2l-9.3-.4a268.2 268.2 0 0 1-18-1.4 35.3 35.3 0 0 1-6.5-1.4Zm60.1 73.2Zm-24.2-29.8Z"/><path fill="#fff" d="M58.7 253h-1.2c.2 4.2 0 8.4-.6 12.7-.7 5-1.4 9.9-1.9 14.8a46 46 0 0 0 .7 14.4c.8 3.9 1.4 7.9 2 11.8.2 2.2.6 4.4 1.1 6.6l.1.5a12.9 12.9 0 0 1 .2 1l.3 1.4 1.2 7.4c.2 2.7.6 5.4 1 8l.7.2.8.1c1.6-.4 3-.1 4.5.8 1.3.9 2.3 2 3 3.5l.8 1.2a13.7 13.7 0 0 1 2.8 1.4v-.4a43.3 43.3 0 0 1-1.6-12.4c0-4.8.8-9.5 2.2-14.3l2.7-10.2a50 50 0 0 0 1.4-9.7c.2-4.8 0-9.6-.6-14.4a70.9 70.9 0 0 1 0-14.4 2186.3 2186.3 0 0 0 2.4-11c-3 .4-6.1.5-9.3.2a40 40 0 0 0-9.9.6c-1 .2-1.9.2-2.8.2Zm53.7-1h-.1a529 529 0 0 1-7.5.8c2.2 4.3 3.7 8.8 4.6 13.6 1 5.2 1.6 10.4 1.7 15.7a418 418 0 0 0 .6 14.1l.3 1.3c.6 3 1.4 6 2.4 9a57.5 57.5 0 0 1 2.7 10.3c1.4 4.5 2.4 9 3 13.7a29 29 0 0 1-.2 8.9 1.8 1.8 0 0 1 .1.2l.6-.5.5-.4a1.8 1.8 0 0 1 .7-.2h.1l.2-.2H122.8l.2-.2h.3l.2-.1.1-.2a2.6 2.6 0 0 1 .3-.4l.2-.2v-.1l.5-1 .8-1 .8-.7c0-.2.2-.4.3-.5l.5-.5.5-.3h.2l.9-.7a3 3 0 0 1 1-.5c.4 0 .7 0 1-.2a4.7 4.7 0 0 1 .8.2h.5l-.2-13.8c-.2-4.8 0-9.6.3-14.4.4-4.8.6-9.6.7-14.4a70.2 70.2 0 0 0-3-22.7c-.6-1.9-.9-3.8-1-5.8a51.2 51.2 0 0 0-.8-7.7 119.3 119.3 0 0 1-.3-3.8 98.3 98.3 0 0 1-2 .3l-7.3 1.5c-2 .4-4 .7-6 .8Zm20-96.3v-.2.2Zm11.3-52.4H143.3c-2.7 1.3-5.5 2-8.4 2.4a162 162 0 0 0-12 1.6 27.3 27.3 0 0 0 1 6h.2a15.2 15.2 0 0 0 .1.4v.5l.6 2a69.2 69.2 0 0 0 2.2 5l1.6 2.9a20 20 0 0 1 2.5 10.7 64 64 0 0 0 .3 9.3l.3 6a169 169 0 0 1 .6 5.4 72.5 72.5 0 0 1 1.8 15.4 16.3 16.3 0 0 1-2 8.2 38.3 38.3 0 0 1-5.4 7h-.1a11.7 11.7 0 0 1-.5.4l-.3.7a9.2 9.2 0 0 1-.5 1.2l-.2.7-.5.9-.1.2c-.3 1.6-.7 3.2-1.3 4.7-.5 1.6-.5 3.1 0 4.6a2.4 2.4 0 0 0 .5.2h.3l.3-.1h.1a11 11 0 0 0 1.8-3.1l.2-.5a27.5 27.5 0 0 1 1.3-3l1.1-1.1.8-.3c.3 0 .6 0 .9.3a4.8 4.8 0 0 1 .7.8 4 4 0 0 1-.3 3.5l-2 3-1.1 1.7a12 12 0 0 1-2.6 2.4l-.5.6v.4l.1.3.1.2a8.8 8.8 0 0 1 .2.4l.1.1h.1l.2.2.4.1.9.3.7.2h.3l.4-.1.4-.1a54.6 54.6 0 0 1 2 0h.2l5.6-1.4a7.3 7.3 0 0 0 4.3-2.9c1-1.2 1.5-2.7 1.8-4.3.5-3 .7-6.1.5-9.3-.2-3 0-6.2.3-9.2l1-9.2c.3-3 .8-6.1 1.3-9.1a103.5 103.5 0 0 0 1.8-15l.5-9.3a50.9 50.9 0 0 0-.8-12.2 7 7 0 0 1-1.5-4.5l-.1-2c-.5-3-.8-6-1.1-9-.2-1.8-.4-3.5-.8-5.2Zm-109.9 2.3c0 .2 0 .5-.2.8a170.9 170.9 0 0 0-2.7 14.5l-.6 4.5a41.4 41.4 0 0 1-.8 4.9 433 433 0 0 0-.7 10c-.1 3.5 0 6.9.3 10.3a328.5 328.5 0 0 0 2.6 18.5 52.5 52.5 0 0 1 1 19c-.4 3.2-.1 6.5.7 9.6.8 2.8 2.1 5.1 4.1 7.1a6 6 0 0 0 2.6 1.5 20 20 0 0 0 7.7.7h.2a1.7 1.7 0 0 1 .6 0l.2.1a5 5 0 0 1 .2 0h.6l.5-.4c.2 0 .3 0 .5-.2v-.4a26.5 26.5 0 0 1-.3-.8 13.4 13.4 0 0 1-.9-1.8l-.2.1h-.4a2.8 2.8 0 0 1-.3 0c-1.3-1-2.2-1.9-3-2.8a9.6 9.6 0 0 1-1.9-4.1 7 7 0 0 1 0-1.7c0-1.4.7-2 2-1.8.5 0 .9.3 1.2.7.7 1.2 1.3 2.4 1.7 3.8.3.9.7 1.7 1.2 2.5H50l.1.1h.1v.1l.2.1a1.5 1.5 0 0 1 0 .2h.1l.5.3.5.3.4.3c-.4-2-.8-3.8-1.4-5.7-.4-1.5-.6-3-.5-4.5a27.2 27.2 0 0 0-2-6.7l-.2-.6a32.5 32.5 0 0 0-2.4-2.6l-.5-.7a13 13 0 0 1-2.1-6.6c-.2-3.2.2-6.3 1-9.4.6-1.6 1-3.2 1.1-4.9l1.5-9c.5-2.7.8-5.4.8-8.1.2-3.4.5-6.8 1-10.1.3-3 1-6 2-8.9a37.2 37.2 0 0 0 1.8-9.5l.4-5.5H51c-2.8-.1-5.5-.5-8.2-1a545.9 545.9 0 0 1-9-2.2Zm64.6-57.2a31.4 31.4 0 0 1-1.3.9l-2.4 1.6a9.4 9.4 0 0 1-4 1.8c-1.6.3-3.2.4-4.8.4h-2.5c-1.6 0-3-.4-4.5-1.1-1.5-.7-2.8-1.5-4-2.5v1.7c-.1 2.8-1.4 4.7-3.8 6 1 2.6 2.8 4.8 5.2 6.4 2 1.4 4.3 2.4 6.7 3 .8.3 1.6.4 2.5.5 3.6.1 7-.6 10.3-2.2 2.4-1.2 4.3-3 5.7-5.2l.6-1 .2-.8.2-.6.2-.5c0-.2 0-.4.2-.6V56a7.8 7.8 0 0 1-3.3-4 23.1 23.1 0 0 1-1.2-3.6Zm-.9.6v.1Zm9.6-29.6h-.5a2 2 0 0 0-.2.1l-.3.3-.2.1c-.2.8-.6 1-1.3.7a.6.6 0 0 1-.4-.6c0-.4 0-.8.3-1.2v-.2l.1-.5V18a32.6 32.6 0 0 0-.8-9.7 20.1 20.1 0 0 0-1-2.6l-.2-.4a5.8 5.8 0 0 0-3.4-3 8.3 8.3 0 0 0-5-.2c-1.2.3-2.5.5-3.7.5a355 355 0 0 1-7.2 0l-4.9-.2a17.9 17.9 0 0 0-3.7.3 6 6 0 0 0-3 1.4c-1.2 1-2 2.2-2.4 3.7-.4 1.6-.5 3.1-.4 4.7a80.1 80.1 0 0 0 .6 6.6l-.2.4c-.5.3-1 .3-1.3 0a2 2 0 0 1-.5-.5 1.2 1.2 0 0 0-.5-.3l-.5.1a13 13 0 0 0-.6.3V19.3h-.1a76 76 0 0 0-.4 8.8c0 .7 0 1.4.3 2l.2.2.2.1a21.3 21.3 0 0 1 1.4 0 1 1 0 0 0 .3 0c.4-.7 1-.7 1.5-.2l.3.6c.3.6.3 1.1 0 1.6a9.4 9.4 0 0 0 .2 1v.4a421 421 0 0 1 1 6.1 14 14 0 0 0 .4 1V41.2a15 15 0 0 0 2.3 4.2l1.3 1.6a12.4 12.4 0 0 0 4.6 3.4c1.5.7 3 1 4.6 1l5.4-.3c1.6-.1 3-.7 4.2-1.6a52 52 0 0 0 5.7-4c.8-.8 1.5-1.7 2-2.8a25.2 25.2 0 0 0 2.6-12c.4-.5.7-.5 1.2-.2a3.8 3.8 0 0 0 1 .6h.5a7 7 0 0 0 1-4v-.7l.3-5.4a3 3 0 0 0-.3-1.3 3 3 0 0 0-.3-.2h-.1v-.1Zm-34.2-2c0-.2.2-.3.3-.3 1-1.4 2.4-2.4 4-2.9 1.6-.4 3.1-.5 4.7-.3 1 .1 2 .5 2.8 1 .2 0 .2.2.2.3 0 .6-.1 1-.7 1h-.5a7.7 7.7 0 0 1-.5-.2c-1.6-.5-3.2-.5-4.9-.2a5.9 5.9 0 0 0-3.7 2.4c-.3.4-.7.6-1.2.5a.9.9 0 0 1-.6-.6c-.1-.3 0-.5.1-.8Zm18.6-3.9c1.6-.6 3.4-.7 5.1-.3 1.1.3 2 .8 3 1.6l1 1.3c.6.2.8.7.6 1.2-.2.4-.5.6-.9.5a.8.8 0 0 1-.5-.2l-.6-.5a254.4 254.4 0 0 1-.6-.8 47.6 47.6 0 0 0-1.8-1.3c-1-.3-2.1-.3-3.2-.2a6.2 6.2 0 0 0-2.8 1c-.4.6-1 .6-1.4 0-.2-.3-.2-.5 0-.8a3 3 0 0 1 1.2-1.1l.9-.4Zm11 10.5c0-.3.1-.5.4-.6a2 2 0 0 1 2.3 0c.6.4 1 1 1 1.7.1 1.5-.5 2.4-2 2.9H103c-.6-.1-.8-.5-.7-1 0-.5.3-.7.7-.7a15.5 15.5 0 0 1 1 0l.2-.1.4-.4v-.4a1.9 1.9 0 0 0-.1-.5l-.1-.1h-.4c-.8.3-1.2 0-1.3-.8Zm-7.3-4.7c.7-.1 1.1.1 1.3.8 0 .3 0 .7-.2 1-.4.5-.9.7-1.5.7-.7 0-1.1-.5-1.2-1.2 0-.5.1-.8.6-1 .3-.3.6-.3 1-.3Zm-7.7 9.2-.3.6c-.5.6-.8 1.2-1 2 1.1.1 2.2.2 3.3.1.8 0 1.1.3 1 1 0 .3-.1.5-.3.6a3 3 0 0 1-1.2.2h-.5c-1.2 0-2.4-.1-3.5-.7a.8.8 0 0 1-.3-.4c-.4-.8-.3-1.5.1-2.3a8 8 0 0 1 1.6-2.1l.3-.1c.7 0 1 .5.8 1.1Zm.8 11.9a8 8 0 0 0 2.2-.6 11 11 0 0 0 2.1-1.3c.6 0 1 .2 1 .8.1.3 0 .5-.2.7-.7.7-1.6 1.2-2.5 1.5a9.8 9.8 0 0 1-4.5.7c-1 0-2-.1-3-.4-1-.2-1.9-.6-2.7-1.1a.7.7 0 0 1-.3-.9c.1-.5.4-.7 1-.6l.5.2.5.3 2.9.7h3Zm8.8 6.7v.1Zm0 0h.1ZM80.8 20.4c-.2.8-.6 1.2-1.4 1.2-1-.1-1.4-.7-1.2-1.6 0-.2.2-.4.4-.5.8-.6 1.6-.5 2.1.5l.1.4Zm-10.5 4.7c.1 0 .2 0 .3.2.4.5.3 1-.2 1.3a2 2 0 0 1-.7.2l-1.2.1c-1.3 0-2-.8-2-2.2.1-1.4.8-2.4 2-2.8.8-.3 1.3-.1 1.5.5v.6c-.3.4-.6.5-1 .5h-.2v.2h-.2l-.2.4a3.3 3.3 0 0 0-.1.6v.1a1.4 1.4 0 0 0 0 .3h2Zm13-9.2H83h.1Z"/><path fill="#CCC" d="m114 60.1-1.2-.5-8.2-3v.2l-.2.6-.3.5c-.7 3-2.5 5.5-5.2 7.2a22.5 22.5 0 0 1-8.4 3.3 16.7 16.7 0 0 1-13.2-2.2l-2-1.3a14 14 0 0 1-5.6-6.8 4.2 4.2 0 0 0-.5 0l-.3.3-.3.2a4.3 4.3 0 0 1-.5.2C65.6 60 63 61 60.6 62c-3 1.1-5.8 2.3-8.6 3.6-2.9 1.3-5.4 3-7.7 5.2a24.5 24.5 0 0 0-5.5 7.9 34 34 0 0 0-2.4 8.6 50.3 50.3 0 0 0-.4 9.2l-1.8 7.3 7.3 2a48 48 0 0 0 11 1.2v-2.8a41 41 0 0 0-.6-8.7V95.2l.2-.2h.1l.2-.2a18.1 18.1 0 0 1 .3 0h.2a2.4 2.4 0 0 1 .3 0l.1.1c.6 1.4.9 2.8 1 4.4a104.1 104.1 0 0 1-.6 17.1c.5 1 1 1.9 1.2 2.9a47 47 0 0 1 1.9 13.1v10.2a72.9 72.9 0 0 1-1 10.3 247.3 247.3 0 0 0-2.8 18.4l-.6 4a27 27 0 0 0 7 1.4 46.7 46.7 0 0 1 7 .8c3 .3 6 .4 9 .5a388.8 388.8 0 0 1 19.2.9 72.4 72.4 0 0 0 20-2.1 45.6 45.6 0 0 0 7.7-2.6c-.4-2.7-.8-5.4-1-8.2a150 150 0 0 0-2.6-18.4c-.5-3-.7-6.1-.8-9.3l-.1-7c-.1-3 .4-6 1.6-9l.8-2.7c.5-2 1.3-3.9 2.2-5.6a32.3 32.3 0 0 1-1.3-12 195.8 195.8 0 0 1 .8-6.8.6.6 0 0 1 .2-.1H122.7a2.7 2.7 0 0 1 .2 0v.1l.2.1v.1l.1.1v.1l.1.1v.2c-.3 3.2-.5 6.4-.4 9.7a55 55 0 0 1 11.5-1.6l1.6-.2a7.3 7.3 0 0 1 1.9-.3 6 6 0 0 1 1.2-.4h.2a123.5 123.5 0 0 1 4-1.5 39.2 39.2 0 0 0-2.5-7v-.4c-.7-1.8-1.2-3.6-1.5-5.6-.5-3-1.2-6-2-9s-2-5.9-3.7-8.5c-1.7-2.7-4-4.7-7-6-2-1-4.2-1.9-6.5-2.5-2-.7-4.1-1.5-6.1-2.5Z"/></g><path fill="#EEE" d="M4 252a23 23 0 0 1 23-23h124a23 23 0 0 1 23 23v29a23 23 0 0 1-23 23H27a23 23 0 0 1-23-23v-29Z"/><path fill="#000" d="m80.2 226 2.3.6c.6.1 1.1.2 1.6.1h1.2l1.2-.2 2.5-.1h2.3c1 0 2 .1 3 .5l1.2.4 1.2.4c.5.2 1 .3 1.4.2l1.2-.2 1.1-.1c1-.1 1.9-.2 2.8-.1h1.2l1.1.2 2.3.1h1.2l1.2.2c.6 0 1.2 0 1.8-.2l2.4-.4c1-.2 2-.2 3-.1l2.3.3 2.2.2 2.3.2h2.1l1.2-.1h1.2l2-.4 1.1-.3 1.2-.2c1.1-.3 2.3-.3 3.4 0l2.3.8c.5.1 1 .2 1.4 0l1.1-.2 1.2-.3c1-.2 1.9-.3 2.8-.2h2.4c.9 0 1.7.2 2.6.4l1.2.2 1.1.2 2.1.4 1.1.1 1.2.1 2.2.2 1.3.1h1.2c1.6.2 2.8 1 3.5 2.4l.7 1.1.6 1.2c.2.4.4.6.8.8l1.1.5 1.1.5c1.3.6 2.2 1.6 2.6 2.9l.7 2.3.8 2 .4 1 .5 1 .8 2.8.2 1 .2 1.2c0 .7.2 1.5.4 2.2l.3 1.2.2 1.2.4 2.6.2 2.3c0 1 0 2-.3 3l-.7 2.4-.3 1.8v2.3l.1 2.2.1 1.2.1 1.1V277l-.1 1.1-.1 2.3v2.3c-.1 1-.2 1.9-.5 2.8l-.3 1.1-.3 1.1-.8 2.4-.4 1-.4 1.2c-.3.9-.7 1.7-1.3 2.5l-.6 1-.7 1-1.4 2-.7 1-.8 1a5 5 0 0 1-3.2 2l-1.2.2-1.2.2c-.7.1-1.3.3-1.8.6l-1 .5-1.1.5c-.9.4-1.8.7-2.8.9l-2.3.4a7 7 0 0 1-3.3-.3l-1.1-.4-1.2-.4-.8.1-1.2.7-1.1.6c-1 .6-2.2.9-3.3.9h-2.4c-1 0-2.2-.3-3.2-.9l-1.2-.6-1.1-.5c-.5-.3-1-.4-1.3-.3h-1.2l-1.2.1-2.3.3-2.3.2-2.5.1h-2.3l-2.2.2-2.3.3c-.7 0-1.4.2-2 .3l-1.3.4-1.1.2c-1 .3-2 .4-3 .4l-1.2-.1H106c-1.1-.1-2.2-.5-3.2-1l-1.2-.6-1.1-.6h-.5l-1.1.7-1.2.6c-1.4.8-2.9.8-4.3 0l-2.3-1.3-1.3-.3h-2.4a3 3 0 0 0-1.4.4l-2.4 1.3c-1 .6-2.2 1-3.4.8l-2.3-.1-2.4-.2-2.4-.2H66l-1.1-.3-1.2-.1a13 13 0 0 0-2-.1h-2.4c-1 0-1.8 0-2.8-.3l-1.1-.2-1.2-.3-1.3.1-2.3.9a7 7 0 0 1-3.3.3l-7-1a11 11 0 0 0-2 0h-1.1l-1.2.1h-2.4l-1.2.1h-3.7l-1.2-.2-1.1-.1c-1-.1-2-.3-2.8-.7l-1-.4-1.2-.4-1.8-.6-1.2-.2-1-.3a7 7 0 0 1-2.8-1.3l-1.9-1.4a14 14 0 0 1-1.9-1.7l-.7-.9-.8-.8-1.5-2.1-.6-1-.6-1a48 48 0 0 1-1.1-2l-.5-1-.6-1-1-2-.6-1.1-.6-1.1a5.6 5.6 0 0 1-.5-3.5l.2-1.2.2-1.2.4-2.4.4-2.3c0-.3 0-.7-.2-1l-.6-1.2-.6-1.2c-.6-1-.9-2.2-.8-3.4v-1.2l.2-1.1v-2.2l-.1-1.1v-1.2a7 7 0 0 1 .6-3.3l1-2.3c.3-.5.4-1 .4-1.4v-1.2l-.1-1.2c0-.7 0-1.4-.2-2.2l-.1-1.2-.2-1.3c-.1-1.1 0-2.3.5-3.3l.5-1.2.5-1c.4-1 1-2 1.9-2.7l1.8-1.7 1.1-1.4 1.3-2.2c.6-1 1.4-1.8 2.4-2.4l2.1-1.2c1-.6 2-.9 3.2-1H20l1.5-.5 1.1-.6 1.1-.7 1.5-.5c.5-.1 1.5-.2 2.3.6l.5.5.7.2 2.3.5 2 .2h2.3l1.8-.3 1.1-.4 1.2-.3c1-.3 2-.4 3-.4h7c1 0 1.9.2 2.8.5l2.3.6c.7.2 1.3.3 2 .3h2.3l2.4.2h1.1l1.2.2c.5 0 1 0 1.4-.3l2.4-1c1-.4 2-.6 2.9-.7l1.2-.1 1.1-.1 2.4-.3 2.3-.2c1-.1 2 0 3 .2Zm-2.7 3.7h-1.2l-1.1.2-2.4.2-1.1.2h-1.2l-1.8.5-1.2.5-1.1.5a7 7 0 0 1-3.3.6l-1.1-.1-1.2-.1-2.3-.1h-1.2l-1.1-.1c-1 0-1.9-.2-2.8-.4l-2.4-.7a8 8 0 0 0-1.8-.2h-2.4l-2.3-.1h-2.3c-.6 0-1.2 0-1.8.2l-1.1.4-1.2.3c-1 .3-2 .5-2.9.5H33c-1 0-1.9 0-2.8-.3l-1.2-.2-1.1-.3c-.5 0-1-.2-1.3-.4-.3 0-.8-.3-1.1-.6l-1 .5-1 .6c-1 .5-2.1.8-3.3.9H19l-1.3.1c-.5 0-1 .2-1.4.5l-2.1 1.2c-.4.2-.7.5-1 1l-.6 1-.6 1.1c-.6.9-1.2 1.7-2 2.4l-.8.8-1 .8-.8 1.3-.5 1.1-.5 1.2c-.2.4-.2.8-.2 1.3l.3 2.5.2 2.5v2.3c0 1.1-.2 2.2-.6 3.2l-.5 1.2-.6 1.2a3 3 0 0 0-.3 1.4v1.2l.2 1.1v2.6l-.2 2.3c0 .4 0 .8.3 1.3l.6 1.2.6 1.2c.6 1.1.9 2.3.6 3.6l-.8 4.7-.2 1.2-.2 1.1c0 .4 0 .7.2 1l.5 1.2.6 1 1 2 .6 1 .5 1 1 2 .6.9.6 1 1.1 1.4.8.9.7.8 1.4 1.3.9.7.9.6c.3.3.8.5 1.2.6l1.1.3 1.1.2 2.5.8 1 .4 1.1.4 1.7.4 1.2.1 1.2.1 2 .1H35.8l2.3-.2 2.7.1 1.2.2 1.2.1 2.3.3 2.4.3c.4.1.9 0 1.4-.1l2.3-.8c1.1-.4 2.3-.5 3.4-.3l1.2.3 1.1.2 2 .2h2.3l2.6.1 1.2.2 1.2.1c.6.1 1.3.2 2 .1h4.9l2.4.2 2.2.2 2.4.2c.3 0 .7-.1 1.2-.4l1.2-.6 1.2-.7a7 7 0 0 1 3.2-.9h2.4c1.1 0 2.3.3 3.3.8l2.3 1.3.3.1h.2l2.3-1.4c1.4-.7 2.8-.8 4.2 0l2.4 1.2c.5.3 1 .4 1.5.4l1.2.1h1.2l1.7-.1 1.1-.3 1.2-.3c.9-.3 1.8-.4 2.6-.5l1.2-.1 1.2-.2 2.5-.1h2.3l2.2-.2 1.2-.1 1.2-.1 2.3-.2 2.4-.2c1.2-.1 2.3.2 3.4.7l2.3 1.2c.5.3 1 .4 1.4.4h2.4c.4 0 .9-.1 1.4-.4l2.3-1.3c1.2-.6 2.6-.8 4-.4l2.3.8c.5.2 1 .2 1.4.1l2.3-.4a6 6 0 0 0 1.6-.5l1-.5 1.1-.5 2.8-1 1.2-.1 1.3-.3c.3 0 .5-.2.7-.4l.7-1 .7-1 1.4-2 .7-1 .6-.9c.4-.5.7-1 .9-1.6l.4-1 .4-1.2.6-2 .3-1.2.4-1 .2-1.9v-2.3l.2-2.4v-1.2l.2-1.2v-2l-.1-1.2-.1-1.1-.2-2.6v-2.3c0-1 .2-2 .5-2.9l.3-1.1.3-1.2c.2-.6.2-1.1.2-1.7l-.1-1.1V257l-.4-2-.5-2.4-.5-2.4-.2-1.1-.2-1.2c0-.6-.2-1.2-.5-1.7l-.4-1-.5-1.1-1-2.4-.3-1.2-.3-1.1c0-.2-.2-.4-.4-.5l-1.2-.5-1-.5c-1.3-.5-2.2-1.4-2.8-2.6l-.6-1.1-.6-1.2-.1-.1h-.1l-2.5-.2-2.5-.2-1.1-.1-1.2-.2a30 30 0 0 1-2.4-.4l-1.1-.2-1.2-.2a12 12 0 0 0-2-.2h-1.1l-1.2-.1c-.6 0-1.2 0-1.8.2l-1.2.2-1.2.3c-1.1.2-2.2.2-3.4-.2l-1.1-.4-1.2-.3c-.4-.2-.8-.2-1.2 0l-1.2.2-1.2.3c-.9.2-1.8.4-2.7.4l-2.3.2H124l-1.2-.1-1.2-.1a46 46 0 0 1-2.4-.2l-1.2-.2-1.2-.1h-1.7l-1.1.2-1.2.3c-1 .1-1.9.2-2.8.1h-1.2l-1.2-.1-2.3-.2H104l-1.2-.1h-2l-1 .2-1.3.1a7 7 0 0 1-3.3-.3l-1.1-.4-1.2-.5-1.6-.3H89c-.7 0-1.4 0-2.1.2l-2.4.2c-1 .1-2 0-3-.2l-2.4-.7c-.5-.2-1-.2-1.6-.1Z"/><path fill="#000" d="M39.8 266.9a201.2 201.2 0 0 0-1.7 7.3c-.2 1-.8 1.5-1.5 1.5-.5 0-.9-.2-1.1-.5-.3-.3-.4-.6-.4-1 0-1 .3-2.4.7-4a124.1 124.1 0 0 0 2.8-10c.3-.5.8-.8 1.3-.8.6 0 1.1.3 1.4 1 .3.6.6 1.8.9 3.6a52 52 0 0 0 1.3 5.8c.8-2 1.5-4.3 2.2-6.7l.6-2.4c.3-1 1-1.4 1.7-1.4s1.3.5 1.6 1.7a53 53 0 0 0 2.9 13.5c0 .4-.1.7-.4 1-.3.2-.7.4-1 .4-.8 0-1.4-.6-1.7-1.6l-.6-2.5c-.3-1.3-.7-3-1-5.3l-1.6 4.3-.6 1.9-.8 1.8c-.4.6-.9 1-1.5 1-.7 0-1.1-.4-1.5-1.2l-.6-1.9-1.4-5.5Zm19.3 8.6c-1.6 0-3-.4-4-1.2-1.1-.9-1.7-2-1.7-3.6a7 7 0 0 1 1.4-4.4c1-1.4 2.3-2 4-2 1.2 0 2.2.2 3 .6 1 .5 1.6 1.3 1.6 2.3 0 .8-.5 1.4-1.3 2-.4.3-1.1.7-2.3 1.2l-3.5 1.5c.4.4.8.6 1.2.8.5.2 1 .3 1.6.3 1 0 1.7-.2 2.4-.6a3 3 0 0 1 1.3-.5c.7 0 1 .4 1 1 0 .8-.5 1.5-1.6 2-1 .4-2 .6-3 .6Zm-.2-8.7c-.7 0-1.2.2-1.7.6-.4.4-.8 1-1 2a747.1 747.1 0 0 1 4.4-2.2c-.4-.3-1-.4-1.7-.4Zm1 12.1c-.9 0-1.5-.3-2.1-.9-.5-.5-.8-1.1-.8-1.8 0-.6.3-1.1.8-1.7.6-.5 1.3-.8 2-.8.3 0 .6 0 .8.3.2.2.3.4.3.7 0 .4-.3.7-.8 1l-.8.5.2.5.3.2c.7 0 1.2 0 1.6-.3l.6-.1c.3 0 .6 0 .8.3.3.2.4.4.4.7 0 .5-.5.8-1.4 1.1-.7.2-1.3.3-2 .3Zm14.6-11.7c-.5.6-1.3 1.5-2 2.6l-2.2 2.9a34.6 34.6 0 0 1 2.2.1l1.2.1c.4 0 .8.2 1 .4.3.3.4.6.4 1s-.1.7-.4 1c-.2.2-.6.3-1 .3l-1.2-.1-1.2-.1a23 23 0 0 0-4.7.4c-.4 0-.7-.1-1-.3a1 1 0 0 1-.4-1c0-.3.2-.7.6-1.1 1.7-1.5 3.5-3.6 5.4-6.3a24.7 24.7 0 0 1-4.4-.2c-.9-.1-1.3-.6-1.3-1.4 0-.3.1-.7.4-1 .2-.2.6-.3 1-.3h1.5a17 17 0 0 0 3.6.1h2.1c.9 0 1.3.3 1.3 1 0 .6-.3 1.2-.9 1.9Zm-3.2-4c-.4 0-.7 0-1.2-.4-.4-.4-.7-.8-.7-1.2 0-.4.2-.8.6-1 .3-.3.7-.4 1-.4.3 0 .6.2 1 .5.5.4.8.8.8 1.2 0 .4-.2.8-.6 1-.3.3-.6.4-1 .4Zm10.4 12.4c-1.5 0-2.7-.4-3.8-1.2-1-1-1.6-2.1-1.6-3.6 0-1.4.5-2.8 1.5-4.2 1-1.7 2.3-2.5 3.8-2.5.7 0 1.5.2 2.5.6 1.1.4 1.7 1 1.7 1.6 0 .3 0 .6-.3.9-.3.3-.6.4-1 .4-.3 0-.6-.1-1-.5-.5-.3-1-.4-1.9-.4-.5 0-1.1.5-1.7 1.5-.6 1-.9 1.9-.9 2.6 0 .7.3 1.3.8 1.7a3 3 0 0 0 2 .6c.4 0 1-.2 1.6-.6l1.3-.5c.3 0 .7.2 1 .4.2.3.3.6.3 1 0 .5-.6 1-1.7 1.5-1 .5-2 .7-2.6.7Zm15-8.4a163.2 163.2 0 0 1-4.2 5.5 34.6 34.6 0 0 1 2.1.1l1.2.1c.4 0 .7.2 1 .4.3.3.4.6.4 1s-.1.7-.4 1c-.2.2-.6.3-1 .3l-1.2-.1-1.2-.1a23 23 0 0 0-4.7.4c-.4 0-.7-.1-1-.3a1 1 0 0 1-.4-1c0-.3.2-.7.6-1.1 1.7-1.5 3.5-3.6 5.3-6.3a24.7 24.7 0 0 1-4.4-.2c-.8-.1-1.2-.6-1.2-1.4 0-.3.1-.7.4-1 .2-.2.6-.3 1-.3h1.5a17 17 0 0 0 3.6.1h2.1c.9 0 1.3.3 1.3 1 0 .6-.3 1.2-.9 1.9Zm12.6-.9a2020.3 2020.3 0 0 1-5.5 11.8l-.7 1.9c-.3.6-.7 1-1.3 1-.4 0-.8-.2-1-.4-.4-.3-.5-.6-.5-1 0-.6.7-2.5 2.2-5.6a177.2 177.2 0 0 0-4.4-8.2c0-.4.2-.7.5-1 .3-.3.6-.4 1-.4s.8.1 1 .5c1 1.3 2.1 3.2 3.4 5.8a332 332 0 0 1 2.8-5.6c.3-.5.7-.8 1.2-.8.4 0 .7.2 1 .4.3.3.5.6.5 1 0 .2 0 .4-.2.6Zm10.2.9a166.7 166.7 0 0 1-4.2 5.5 34.6 34.6 0 0 1 2.2.1l1.2.1c.4 0 .8.2 1 .4.3.3.4.6.4 1s-.1.7-.4 1c-.2.2-.6.3-1 .3l-1.2-.1-1.2-.1a23 23 0 0 0-4.7.4c-.4 0-.7-.1-1-.3a1 1 0 0 1-.4-1c0-.3.2-.7.6-1.1 1.7-1.5 3.5-3.6 5.4-6.3a24.6 24.6 0 0 1-4.4-.2c-.9-.1-1.3-.6-1.3-1.4 0-.3.1-.7.4-1 .2-.2.6-.3 1-.3h1.5a17 17 0 0 0 3.6.1h2.1c.9 0 1.3.3 1.3 1 0 .6-.3 1.2-.9 1.9Zm10.6 8.5c-.9 0-1.3-.4-1.4-1.2a792.3 792.3 0 0 1-.5-4.3 22.7 22.7 0 0 1 .2-2.6c0-.6-.2-.9-.5-.9-.6 0-1.2.4-1.8 1.1a8 8 0 0 0-1.5 2.8v1a6.8 6.8 0 0 0 0 1.7v.9c0 .3-.1.7-.4 1-.3.2-.6.3-1 .3s-.8-.1-1-.4c-.3-.2-.4-.6-.4-1v-.8l-.1-.9.1-2.7a35.6 35.6 0 0 0 0-4.6c0-.4.2-.7.5-1 .3-.2.6-.3 1-.3 1 0 1.4.5 1.4 1.6v.1c1-1 2.1-1.5 3.2-1.5 1.3 0 2.2.6 2.7 1.6.3.8.5 1.8.5 3.3v.7a33.4 33.4 0 0 0 .2 2.7l.2 2c0 .5-.1.8-.4 1-.3.3-.6.4-1 .4Zm11.7 0c-.3 0-.8-.4-1.4-1l-1.7.6a4 4 0 0 1-1.2.3c-1.7 0-3-.5-3.7-1.4-.9-.8-1.3-2.2-1.3-4 0-1.6.6-3 1.9-4.1a6 6 0 0 1 4.3-1.8c.7 0 1.4.2 2.3.5 1 .5 1.5 1 1.5 1.6 0 .2 0 .5-.2.6l-.2 1a17.8 17.8 0 0 0 .3 4.3 31.8 31.8 0 0 0 .8 2.1c0 .4-.1.7-.4 1-.3.2-.6.3-1 .3Zm-2.5-7a7.6 7.6 0 0 1 .2-1.8 1.8 1.8 0 0 0-.6-.2c-1 0-1.8.4-2.5 1.1-.7.8-1 1.6-1 2.6 0 .9.1 1.6.5 2 .3.5.8.7 1.4.7a3.5 3.5 0 0 0 2.3-.8 32 32 0 0 1-.3-3.7Z"/></g><defs><clipPath id="a"><path fill="#fff" d="M0 0h177v307H0z"/></clipPath><clipPath id="b"><path fill="#fff" d="M26 0h125v243H26z"/></clipPath></defs></svg>