<svg xmlns="http://www.w3.org/2000/svg" width="247" height="50" fill="none" viewBox="0 0 247 50"><path fill="#eee" d="M2.8 15.8a13 13 0 0 1 13-13h214.8a13 13 0 0 1 13 13v17.5a13 13 0 0 1-13 13H15.8a13 13 0 0 1-13-13z"/><path fill="#000" d="m27.6.3 1.3.4L30 1l2 .3h6.4l1.2.1H42l1.3-.2 1.2-.2 2.8-.1h1.3l1.3.1 2.5.1h1.2l1.3.1 2.5.2h1.3l1.2.2h2.3l1.2-.2h1.3q1.5-.2 2.9 0l1.2.1 1.3.1h2l1.2-.2L77 .7l1.2-.2 1.3-.2a7 7 0 0 1 3.4.2l1.3.4 1.2.5h1.3L88 1l1.3-.4a8 8 0 0 1 3.3-.4l1.2.1 1.3.2h3.5l1.2-.1h2.6l1.2-.1h1.3q1.5-.1 3 .4l1.3.3 1.3.4h1.5l1.3-.3 1.3-.2a8 8 0 0 1 3.3-.1l1.2.3 1.3.2h3.2l1.2-.2 2.5-.3 1.3-.1 1.2-.2q1.5-.1 3.1.1l1.3.3 1.2.2 2.1.2h2.6l2.3-.1 1.3-.2h1.2q1.4-.3 2.7-.2h2.6l2.8.3 1.2.2 1.3.2h1.7l1.3-.4 1.2-.2q1.5-.4 2.8-.5l1.3-.1 1.2-.1h5.4q1.5.2 2.9.6l1.2.3 1.3.4 1.8.1h1.2l1.3-.2q1.2 0 2.3-.3l1.3-.2 1.3-.2q1.5-.3 3-.1h1.2l1.3.2h2l1.2-.3 1.3-.2q1.7-.3 3.4.1l1.2.4 1.3.3q.7.3 1.5 0l1.2-.3 1.3-.4q1.6-.4 3.4 0l1.2.2 1.3.2 2.3.4 1.2.1 1.3.1h3.4l1.3-.2h5.2q1 0 2.1-.2l1.3-.3 1.3-.2q2-.4 3.7.6l1.1.7 1.2.7 2.3 1.6.8.8 1 .8 1.8 1.8.9 1 .8.8q1.4 1.4 1.6 3.3l.2 1.3.2 1.2q.3 1.5.2 2.9v2.5L246 23l-.1 1.3-.1 1.3-.2 2.4v2.5q0 1.5-.4 2.8l-.2 1.2-.3 1.2-.5 2.4-.2 1.3-.3 1.3q-.5 2-2 3.2l-2.2 1.5q-1.4 1-3.2 1.2l-1.3.2h-1.2l-2.5.3-1.2.1-1.2.1h-7.4l-1.3.2-1.2.2h-9l-1.2.1q-1.1 0-2.2.4l-1.3.2-1.2.3-3 .3h-7.5q-1.5 0-3.1-.5L189 48l-1.2-.4h-1.5l-1.3.2-1.3.2q-1.5.3-3.2 0l-1.3-.2-1.2-.3h-3.3l-1.2.1-2.6.2h-1.2l-1.3.2-2.3.2-1.2.3-1.3.2-2.8.3h-10.3l-1.2-.2H148l-2.4-.3h-2.5l-2.4-.1h-2.5l-2.5.1h-1.2l-1.3.1-2.4.2-1.3.1h-1.2q-1.7.2-3.2-.2l-1.3-.4-1.2-.3q-1-.3-1.9-.2l-1.2.1-1.3.1q-1.5.1-3-.1l-1.3-.3-1.2-.3-2-.1h-1.3l-1.3.1h-4l-1.2-.1-2.1.1-1.3.2-1.2.2q-1.5.3-3 .1h-1.2l-1.3-.1-2.4-.1h-4.8l-1.3.1-1.2.1-2.3.4-1.2.3-1.3.2q-1.5.4-3.2.2l-1.2-.2-1.3-.1-2.2-.2h-6.3l-1.3.1q-1.5 0-3-.4l-1.2-.3-1.3-.3q-.7-.2-1.5 0l-2.5.7q-1.5.5-3 .5H48q-1.5.1-3-.2l-2.5-.5h-1.7l-1.3.2-1.2.3q-1.6.2-3.1 0h-1.3l-1.2-.2q-1.4 0-2.7-.4l-1.3-.3-1.2-.2h-1.7l-1.2.3-1.3.4q-1.5.3-3.1.3l-1.3-.1-1.2-.1-2.5-.1h-2.5Q10.5 48 9 46.4l-.9-1-.8-.8q-.7-.9-1.7-1.4l-1-.8-1.1-.7q-2-1.3-2-3.7l.2-1.3v-6.2l-.4-2-.4-1.2-.5-1.2a7 7 0 0 1-.3-3.4v-1.3l.2-1.2.5-2.7.3-1.3.3-1.2.3-2.2v-1.3l.2-1.3Q2 8.5 3.3 7L4 6 5 5a9 9 0 0 1 2.5-2l1.2-.7 1.1-.6a5 5 0 0 1 3.5-.6l1 .2.5.1.2-.2.7-.2h1.2l1.3-.2h1.2l2.4-.3L23 .2l1.3-.1q1.7-.2 3.3.2M24.8 4l-1.2.2-1.3.2-2.6.2-1.3.1h-1.3v.2a2 2 0 0 1-1.6.5l-1-.1-2-.4-.8.2-1.2.7-1.1.6-1.5 1.2-.8 1-.8 1-.5 1.1-.2 2.6q0 1.5-.4 2.8l-.3 1.2-.3 1.2-.4 2.3-.1 1.3-.2 1.2q0 .9.2 1.7l.5 1.2.4 1.3q.6 1.5.6 3V37l-.1 1.3v.1l.1.2 1.1.7 1.1.7q1.3 1 2.3 2l1.8 1.9q.3.3.7.3h2.6l2.6.2 1.3.1h1.3q.9.1 1.8-.1l1.3-.3 1.3-.4q1.6-.5 3.3 0l1.3.2 1.3.3 2.3.3 1.2.2 1.3.1h2l1.2-.3 1.3-.2q1.5-.3 3.2 0l1.3.3 1.2.2 2 .2h2.6l2-.4 1.3-.4 1.2-.3q1.8-.6 3.6-.1l1.2.3 1.3.4 2 .2h7.5l2.8.1 1.3.2 1.2.1h1.9l1.2-.3 1.3-.3q1.3-.4 2.7-.4l1.3-.2h1.2q1.5-.2 2.8-.2h1.2l1.3.1 2.6.1h1.2l1.3.2 2-.1 1.3-.2 1.3-.2q1.5-.3 3-.2h1.2l1.2.1h4.8q1.5-.1 3 .1l1.3.3 1.2.2q1 .3 2 .2l2.5-.3q1.6 0 3.2.3l1.3.4 1.2.3q1 .3 1.9.2l1.2-.1h1.3q1.2-.2 2.6-.3h2.5l2.5-.1 2.5-.1h3.9l1.3.2 2.6.1 1.2.2h1.3q1.2.3 2.3.2h1.2l1.3-.1h5.1q1 0 2.1-.2l1.3-.2 1.2-.3 2.8-.3 1.2-.1h1.3l2.5-.3h1.2l1.3-.2q1.5 0 3 .2l1.3.3 1.2.2h1.8l1.3-.3 1.2-.2q1.8-.4 3.5.2l1.3.5 1.2.4 1.9.3h7.6q1 0 2-.2l1.3-.3 1.2-.2q1.5-.4 2.9-.4l1.2-.1 1.3-.1h7.4l1.2-.2 1.3-.1q1.5-.2 2.9-.2l1.2.1h4.7l1.2-.2 2.4-.2 1.3-.1 1.2-.1q.7 0 1.3-.6l1-.7 1.1-.8q.5-.2.6-.8l.2-1.3.3-1.2.5-2.5.5-2.4.3-2.1v-2.6l.2-2.6.1-1.2.1-1.3.1-2.4V18l-.1-2.2-.2-1.3-.2-1.2a2 2 0 0 0-.6-1.2l-1.7-1.8-1.7-1.6L236 7l-1.7-1.2-1.1-.7-1.2-.6q-.4-.3-1-.2l-1.3.2-1.2.3-3 .3h-4.8l-1.3.1-1.2.1h-2.8l-1.3-.1-1.3-.1-2.7-.4-1.2-.3-1.3-.2q-.7-.1-1.6 0l-1.3.4-1.2.3q-1.8.5-3.6 0l-1.2-.4-1.3-.3q-.7-.3-1.6-.1l-1.3.2-1.2.3q-1.5.2-3 0h-1.3l-1.3-.2-2 .1-1.2.2-1.3.2-2.7.4-1.2.1-1.3.1a9 9 0 0 1-3.2-.3l-1.2-.3-1.3-.4-2.1-.3-1.3-.1-1.2-.1h-2.2l-1.3.2H163l-2.3.4-1.2.3-1.3.3q-1.6.4-3.3.1l-1.2-.2-1.3-.2-2.2-.2h-2.5l-2.3.1-1.3.1-1.2.1-2.7.2h-2.5q-1.5 0-2.9-.3l-1.3-.2-1.2-.2q-1-.3-2-.1l-1.2.2h-1.2l-2.6.4-2.5.3q-1.5 0-3-.2l-1.3-.2-1.3-.3h-1.7L114 5l-1.2.3a7 7 0 0 1-3.5 0l-1.2-.4-1.3-.4q-1-.3-2-.3h-1.2l-1.2.1H100l-1.3.2h-4l-1.3-.2-1.2-.1q-1 0-1.7.2l-1.3.4-1.3.4q-1.9.6-3.7 0L83 4.6l-1.3-.4h-1.5l-1.3.1-1.2.3L75 5l-1.3.2-1.2.2q-1.5.3-3 .1l-1.3-.1-1.3-.2h-2l-1.4.1-1.2.1h-4.1l-1.2-.1-2.5-.2H52l-2.5-.2h-1.3l-1.2-.1h-2.2l-1.3.3-1.2.1q-1.5.2-2.9.1H37l-2.4-.1h-2.5q-1.5 0-3-.4l-1.3-.4-1.3-.3q-.8-.2-1.7-.2"/><path fill="#000" d="M68.2 27.1h-.8v4q0 .5-.3.9-.4.3-.9.3a1 1 0 0 1-1.1-1.2v-2.4a68 68 0 0 1 .3-8.2q0-2.3 1.3-2.2l.8-.1h1.3q1.8 0 3.3 1 1.7 1.4 1.7 3.1 0 2.3-1.8 3.6-1.5 1.2-3.8 1.2m.4-6.7h-.8l-.2 4.4h.6q1.5 0 2.3-.6 1-.7 1-1.9 0-.8-1-1.3-.8-.6-1.9-.6m14 5.3q-.1 1.3-1.3 1.3-1 0-1.1-1.1v-1q-2 .4-2.9 2.1v4.5q0 .5-.3.8-.4.4-1 .4a1 1 0 0 1-.8-.4q-.3-.3-.3-.8V24q0-.5.4-.8.3-.3.8-.3 1 0 1.2 1 1.5-1.2 3.5-1.2 1.8 0 1.8 2.4zm8.9-.4-1.8 2.3-1.9 2.5h2q.6.2 1 .2t.8.3.4.9-.3.8q-.4.3-1 .3h-1q-.7-.2-1-.2a20 20 0 0 0-4.1.4q-.5 0-.8-.3a1 1 0 0 1-.4-.8q0-.6.5-1 2.2-1.9 4.7-5.5l-3.8-.2q-1.1 0-1.1-1.1 0-.5.3-.8t.9-.4l1.3.1H91q1.1 0 1.1.8t-.7 1.7m6.6 7.2q-2.1 0-3.5-1-1.5-1.2-1.5-3.2a6 6 0 0 1 1.2-3.8q1.3-1.7 3.6-1.7 1.5 0 2.5.5 1.5.6 1.4 2 0 1-1.1 1.8l-2 1-3 1.3 1 .7q.6.3 1.4.2 1.2 0 2-.5l1.2-.4q1 0 1 .9t-1.6 1.7q-1.2.5-2.6.5m-.2-7.5a2 2 0 0 0-1.5.5q-.5.6-.9 1.7l4-2zm9.1-3.5q-.5 0-1-.4t-.4-1 .4-1q.5-.3 1-.3t1 .4.4 1-.4.9q-.4.3-1 .4m-.4 12.2a96 96 0 0 0-.6-9.6q0-.6.3-1 .4-.4 1-.4.3 0 .8.2.4.4.4.7l.6 10.2q0 1.4-.8 2.4-1 1.2-2.3 1.2-2.1 0-3.5-3l-.1-.6q0-.4.4-.9.3-.3.8-.3t1 .6l.7 1.2q.3.6.7.6t.6-1.3m11-10.5q0-3 .3-4.2.1-1 1.1-1 .6 0 .9.3t.3.8q0 1.3-.2 3.8a55 55 0 0 0 0 8.3q0 .5-.3.8-.4.3-.8.3a1 1 0 0 1-1-.5 5 5 0 0 1-2.6.7q-2 0-3.3-1.3t-1.3-3.3q0-2.4 1.3-3.8 1.3-1.5 3.5-1.5l1.2.1zm-.2 2.8-.7-.9q-.5-.3-1.1-.3-1.4 0-2 .8t-.7 2.3q0 1 .7 1.6t1.7.7q.7 0 1-.2l1.1-.8zm12-.7-1.8 2.3-1.8 2.5h1.9l1 .2q.6 0 .9.3.3.4.4.9 0 .5-.4.8-.3.3-.9.3h-1l-1-.2a20 20 0 0 0-4.1.4q-.5 0-.9-.3a1 1 0 0 1-.4-.8q0-.6.6-1 2.2-1.9 4.6-5.5l-3.8-.2q-1 0-1-1.1 0-.5.3-.8t.8-.4l1.3.1h5q1 0 1 .8t-.7 1.7m-.8-6.2-1.1 1-1.2 1.2a1 1 0 0 1-1.6 0l-.3-.8q0-.3.4-.7l1.7-1.8q.8-.7 1.5-.7.4 0 .8.3.3.4.3.7 0 .5-.5.8m17.4 4 .2-4.1q.2-1 1.2-1 .5 0 .8.3t.3.8q0 1.3-.2 3.8a55 55 0 0 0 0 8.3q0 .5-.3.8t-.8.3a1 1 0 0 1-1-.5 5 5 0 0 1-2.6.7q-2 0-3.3-1.3T139 28q0-2.4 1.3-3.8 1.4-1.5 3.6-1.5l1.2.1zm-.2 2.9-.8-.9q-.5-.3-1.1-.3-1.3 0-2 .8t-.6 2.3q0 1 .7 1.6t1.6.7q.7 0 1-.2l1.2-.8zm12 6.7q-.4 0-1.3-1l-1.4.7-1 .2q-2.2 0-3.3-1.2t-1-3.4q0-2 1.5-3.7 1.5-1.5 3.8-1.5a5 5 0 0 1 2 .5q1.3.6 1.3 1.3 0 .3-.2.6l-.2.9a16 16 0 0 0 .2 3.7l.8 1.8q0 .4-.4.8-.3.3-.8.3m-2.2-6.1.2-1.5-.6-.2q-1.2 0-2.1 1a3 3 0 0 0-1 2.2q0 1.2.5 1.8t1.3.6a3 3 0 0 0 2-.8zm7.4 4.2q0 1.7-1.3 1.7-.5 0-.8-.4-.4-.3-.4-.8V19q0-.5.4-.9.3-.3.9-.3.5 0 .8.4.4.2.4.8zm6.7 1.7q-2.1 0-3.5-1-1.5-1.2-1.5-3.2a6 6 0 0 1 1.2-3.8q1.3-1.7 3.6-1.7 1.5 0 2.5.5 1.4.6 1.4 2 0 1-1.1 1.8l-2 1-3 1.3 1 .7q.6.3 1.4.2 1.2 0 2-.5l1.2-.4q1 0 1 .9t-1.6 1.7q-1.2.5-2.6.5m-.2-7.5a2 2 0 0 0-1.5.5q-.5.6-.9 1.7l4-2zm9.1-3.5q-.5 0-1-.4-.3-.4-.4-1 0-.5.4-1 .5-.3 1-.3t1 .4q.4.4.4 1 0 .4-.4.9-.4.3-1 .4m-.4 12.2a96 96 0 0 0-.6-9.6q0-.6.3-1 .4-.4 1-.4.3 0 .8.2.4.4.4.7l.6 10.2q0 1.4-.8 2.4-1 1.2-2.3 1.2-2.1 0-3.5-3l-.1-.6q0-.4.4-.9.3-.3.8-.3.7 0 1 .6l.7 1.2q.3.6.7.6t.6-1.3"/></svg>