<svg xmlns="http://www.w3.org/2000/svg" width="310" height="36" fill="none"><rect width="308" height="34" x="1" y="1" fill="#09F" rx="7"/><rect width="308" height="34" x="1" y="1" stroke="#000" stroke-width="2" rx="7"/><mask id="a" width="260" height="20" x="25" y="10" fill="#000" maskUnits="userSpaceOnUse"><path fill="#fff" d="M25 10h260v20H25z"/><path d="m29.52 19.64-.65-.05c-.03.73-.05 1.92-.05 3.59 0 .28-.1.51-.29.71-.2.2-.44.3-.73.3a1 1 0 0 1-1.03-1.01V21c0-.8.05-2 .15-3.59.1-1.6.15-2.8.16-3.6 0-1.35.38-2 1.14-1.94.18-.05.42-.08.73-.1.32-.03.7-.04 1.14-.04 1.02 0 1.98.33 2.88.99 1 .74 1.5 1.64 1.5 2.7 0 1.34-.54 2.4-1.6 3.18a5.48 5.48 0 0 1-3.35 1.04Zm.4-5.9a11.28 11.28 0 0 0-.77.03v1.1c-.02.58-.07 1.48-.16 2.7a3.38 3.38 0 0 0 2.55-.52c.58-.4.87-.95.87-1.63 0-.44-.27-.83-.8-1.18a3.05 3.05 0 0 0-1.7-.5Zm8.92 10.72c-.96 0-1.79-.33-2.48-1a4 4 0 0 1-1.2-2.89 4.77 4.77 0 0 1 .95-3.08c.8-1.06 1.9-1.6 3.3-1.6 1.05 0 1.87.43 2.49 1.26.55.75.83 1.68.83 2.79 0 1.2-.33 2.24-.97 3.1a3.47 3.47 0 0 1-2.92 1.42Zm.47-6.5a1.7 1.7 0 0 0-1.51.88c-.32.5-.47 1.07-.47 1.73 0 .63.18 1.1.53 1.44.28.26.6.4.98.4.46 0 .85-.16 1.18-.46.38-.36.59-.85.61-1.47.07-1.67-.37-2.51-1.32-2.52Zm10.46-1.81c.06-1.78.14-3 .24-3.68.09-.62.42-.92 1.01-.92.31 0 .56.1.75.3.18.2.28.43.28.72 0 .76-.06 1.88-.18 3.38-.12 1.49-.17 2.62-.17 3.37a24.13 24.13 0 0 0 .2 3.93c0 .29-.1.52-.31.71-.21.18-.45.27-.73.27a.92.92 0 0 1-.86-.51 4.36 4.36 0 0 1-2.28.64 4.01 4.01 0 0 1-2.9-1.12 3.87 3.87 0 0 1-1.19-2.9c0-1.4.4-2.54 1.19-3.4a4 4 0 0 1 3.1-1.3 4 4 0 0 1 1.05.13c.3.09.57.21.8.38Zm-.16 2.46c-.17-.33-.4-.57-.67-.73-.28-.17-.6-.25-.99-.25-.77 0-1.35.23-1.73.67-.39.45-.58 1.11-.58 2 0 .57.2 1.05.63 1.45.41.4.9.6 1.45.6.4 0 .7-.05.91-.14a4.16 4.16 0 0 0 .98-.74V18.6Zm9.34-.33c-.51 0-.82-.21-.93-.65-.2-.03-.42-.05-.64-.05-1.25 0-1.88.17-1.88.51 0 .2.38.48 1.13.82 1.03.48 1.73.85 2.1 1.11.75.55 1.13 1.17 1.13 1.86 0 .9-.42 1.57-1.25 2.03-.67.37-1.5.56-2.48.56-.69 0-1.32-.1-1.9-.32-.78-.3-1.17-.72-1.17-1.3 0-.51.31-.77.93-.77.24 0 .59.07 1.04.22.45.16.8.23 1.05.23 1.06 0 1.59-.21 1.6-.64 0-.27-.38-.56-1.11-.88a15.73 15.73 0 0 1-2.06-1.03c-.74-.51-1.1-1.14-1.1-1.88 0-1.05.55-1.75 1.66-2.12a10.2 10.2 0 0 1 2.97-.32c.52 0 .9.07 1.16.2.34.19.51.53.51 1.02 0 .93-.25 1.4-.76 1.4Zm9.14 1.2a233.86 233.86 0 0 0 .04 3.65l.03.49c0 .29-.1.53-.32.72-.2.19-.46.29-.77.29a1 1 0 0 1-.94-.6c-.67.25-1.36.38-2.08.38-.73 0-1.36-.16-1.86-.47-.57-.36-.9-.89-1.02-1.57-.2-1.3-.3-2.47-.3-3.5 0-.67.08-1.45.23-2.32.1-.58.46-.88 1.06-.88.3 0 .56.1.77.3.21.18.32.42.32.71 0 .23-.04.59-.12 1.08-.07.49-.1.86-.1 1.11 0 .74.02 1.38.06 1.93.06.55.13 1 .23 1.36.13.06.26.1.38.14.12.03.24.04.35.04a8.2 8.2 0 0 0 1.91-.25 135.67 135.67 0 0 0-.02-2.68c0-1.06.05-1.99.15-2.76.07-.62.43-.93 1.06-.93.3 0 .57.1.79.29.22.2.32.43.3.72l-.15 2.75Zm3.51-2.4c.79-.9 1.53-1.36 2.24-1.36.8 0 1.39.3 1.76.91a3.27 3.27 0 0 1 2.3-.84c1.03 0 1.72.5 2.08 1.52.08.21.19.92.34 2.12.15.84.33 2.25.56 4.22.02.3-.08.54-.3.73-.23.2-.49.3-.8.3-.59 0-.94-.3-1.05-.9-.09-.54-.19-1.3-.28-2.27-.1-1.08-.2-1.84-.26-2.28-.14-.94-.32-1.4-.54-1.4a5.92 5.92 0 0 0-1.76.98c0 .59.07 1.44.21 2.56.15 1.14.22 2 .22 2.56a1 1 0 0 1-.3.74c-.2.2-.47.3-.78.3-.31 0-.57-.1-.77-.3a1 1 0 0 1-.3-.74c0-.6-.07-1.47-.2-2.62a26.6 26.6 0 0 1-.19-2.62c0-.34-.03-.6-.08-.8a6.4 6.4 0 0 0-1.96 1.9 133.12 133.12 0 0 0-.04 3.08c-.02.24-.02.42-.02.54 0 .29-.11.5-.34.67-.21.15-.47.22-.78.22-.44 0-.74-.19-.9-.57-.1-.26-.16-.68-.16-1.25v-2.9l-.03-1.14-.03-1.15c0-.46.08-.88.25-1.26.2-.47.49-.7.86-.7.29 0 .55.11.78.34.23.23.34.47.34.74 0-.1-.02.12-.07.68Zm13.63 7.38c-.96 0-1.79-.33-2.48-1a4 4 0 0 1-1.2-2.89 4.77 4.77 0 0 1 .95-3.08c.8-1.06 1.9-1.6 3.3-1.6 1.05 0 1.87.43 2.49 1.26.55.75.83 1.68.83 2.79 0 1.2-.33 2.24-.97 3.1a3.47 3.47 0 0 1-2.92 1.42Zm.47-6.5a1.7 1.7 0 0 0-1.51.88c-.31.5-.47 1.07-.47 1.73 0 .63.18 1.1.53 1.44.28.26.6.4.98.4.46 0 .85-.16 1.18-.46.38-.36.59-.85.61-1.47.07-1.67-.37-2.51-1.32-2.52Zm14.73-.84c-.55 2.04-1.1 3.9-1.65 5.56a5.5 5.5 0 0 1-.76 1.45c-.25.34-.59.5-1 .5-.66 0-1.18-.64-1.55-1.9-.14-.47-.3-1.37-.5-2.68a115.12 115.12 0 0 0-1.4 3.47c-.07.22-.19.4-.34.53-.22.35-.55.53-.98.54-.24.01-.5-.2-.77-.65a5.97 5.97 0 0 1-.7-1.75c-.16-.65-.41-2.05-.75-4.22-.07-.47-.1-.84-.1-1.1 0-.29.1-.53.31-.71.22-.2.48-.3.78-.3.57 0 .91.29 1.04.84.07.3.13.65.17 1.08l.12 1.09.31 1.99c.39-1.06.83-2.37 1.33-3.95.22-.67.62-1.01 1.2-1.01s.96.38 1.15 1.13c.13.53.26 1.22.41 2.07.21 1.24.34 1.97.4 2.2l1.22-4.75c.11-.44.44-.67.97-.67.3 0 .56.1.78.3.23.18.35.42.35.71 0 .05-.01.13-.04.23Zm7.7 7.4c-.24 0-.62-.26-1.14-.79-.48.23-.9.4-1.26.52-.37.12-.68.18-.93.18-1.26 0-2.2-.34-2.83-1-.63-.68-.94-1.69-.94-3.02a4.3 4.3 0 0 1 1.4-3.22 4.62 4.62 0 0 1 3.32-1.35c.5 0 1.07.14 1.72.43.78.33 1.18.73 1.18 1.18 0 .18-.06.35-.18.49-.05.2-.1.47-.13.79-.02.3-.03.68-.03 1.1 0 1 .06 1.7.2 2.15l.36.8c.2.46.31.71.31.77 0 .28-.1.51-.32.7-.2.17-.45.27-.73.27Zm-1.94-5.36a5.91 5.91 0 0 1 .15-1.3 1.4 1.4 0 0 0-.49-.15c-.7 0-1.33.28-1.86.84-.53.55-.8 1.19-.8 1.92 0 .7.13 1.22.38 1.58.25.35.63.52 1.13.52a2.65 2.65 0 0 0 1.73-.63 24.3 24.3 0 0 1-.24-2.78Zm10.25 5.4c-.64 0-1-.32-1.07-.95l-.22-1.62a12.02 12.02 0 0 1-.06-3l.01-.28.02-.37c0-.43-.12-.64-.34-.64-.48 0-.95.28-1.41.84a6.08 6.08 0 0 0-1.08 2.12 11 11 0 0 1-.07.7 5.24 5.24 0 0 0 0 1.34c.03.3.05.51.05.66 0 .3-.1.54-.3.73-.21.2-.47.3-.78.3-.31 0-.57-.1-.78-.3a.97.97 0 0 1-.3-.73c0-.15-.02-.37-.05-.66a7 7 0 0 1-.04-.66c0-.5.03-1.2.1-2.09.08-.89.11-1.58.11-2.08 0-.16 0-.4-.03-.7a16.2 16.2 0 0 1-.02-.7c0-.29.1-.52.31-.71.22-.2.48-.3.78-.3.69 0 1.05.42 1.1 1.24v.08a3.38 3.38 0 0 1 2.41-1.15c.99 0 1.66.41 2.04 1.24.25.55.38 1.37.38 2.47v.56l-.01.5c0 .41.05.94.16 1.58.12.64.17 1.16.17 1.56 0 .3-.1.53-.3.73-.22.19-.47.28-.78.28Zm4-9.95c-.34 0-.63-.11-.87-.34-.24-.22-.37-.5-.37-.82 0-.32.13-.6.37-.82.25-.22.53-.33.87-.33.33 0 .62.1.86.33s.36.5.36.82c0 .33-.12.6-.36.82-.24.23-.53.34-.86.34Zm.66 5.73a64.33 64.33 0 0 0 .06 2.86 1 1 0 0 1-.3.75c-.21.19-.47.28-.78.28-.31 0-.57-.1-.77-.28a1 1 0 0 1-.31-.75l-.03-1.43-.03-1.43c0-.47.03-1.05.08-1.75.06-.7.08-1.27.08-1.74 0-.3.1-.55.3-.74.2-.2.47-.3.78-.3.31 0 .57.1.77.3.2.2.3.44.3.74 0 .47-.02 1.05-.07 1.74-.05.7-.08 1.28-.08 1.75Zm5.98 4.02c-1.25 0-2.27-.3-3.06-.9a3.26 3.26 0 0 1-1.3-2.76c0-1.32.34-2.44 1.03-3.35a3.72 3.72 0 0 1 3.12-1.51c.9 0 1.66.14 2.25.43.8.39 1.19.99 1.19 1.8 0 .57-.33 1.08-.97 1.52-.29.2-.87.5-1.75.9l-2.64 1.16c.25.27.55.47.9.6.36.14.77.21 1.23.21.7 0 1.29-.14 1.77-.43.43-.25.78-.38 1.04-.38.54 0 .81.26.81.79 0 .6-.43 1.08-1.3 1.45-.73.31-1.5.47-2.32.47Zm-.21-6.63c-.49 0-.9.16-1.25.48-.34.32-.62.8-.82 1.45l1.76-.75c.7-.32 1.26-.62 1.67-.89-.34-.2-.8-.3-1.36-.3Zm21.49-3.1c-.4 0-1.04-.03-1.9-.08-.83-.06-1.46-.09-1.9-.08.02.6.1 1.65.21 3.17.11 1.34.17 2.4.17 3.19 0 .18.02.44.05.79.04.35.06.6.06.79 0 .39-.09.74-.25 1.05-.22.4-.52.6-.92.6-.28 0-.54-.09-.75-.27a.95.95 0 0 1-.37-.77c0-.07.01-.18.04-.32l.04-.35c0-.24-.02-.6-.06-1.08a18.8 18.8 0 0 1-.05-1.1c0-.7-.05-1.64-.16-2.83-.13-1.37-.2-2.32-.22-2.84h-.4c-1.17 0-2.09-.08-2.77-.25-.58-.14-.87-.48-.87-1.02 0-.27.1-.5.28-.72.22-.26.5-.37.86-.35.19.01.6.06 1.25.14.51.05.93.08 1.25.08a94 94 0 0 0 2.85-.03c.4 0 .99.03 1.78.09.79.05 1.38.08 1.78.08a1.08 1.08 0 0 1 1.1 1.05c0 .3-.1.55-.32.76-.2.2-.47.3-.78.3Zm11.8 2.49c-.54 2.04-1.1 3.9-1.64 5.56-.16.47-.42.95-.77 1.45-.25.34-.58.5-1 .5-.66 0-1.17-.64-1.55-1.9-.14-.47-.3-1.37-.5-2.68l-.2.47c-.27.64-.67 1.64-1.19 3-.08.22-.2.4-.35.53-.22.35-.54.53-.98.54-.24.01-.5-.2-.77-.65a5.96 5.96 0 0 1-.7-1.75c-.16-.65-.4-2.05-.74-4.22a7.64 7.64 0 0 1-.11-1.1c0-.29.1-.53.32-.71.22-.2.48-.3.78-.3.56 0 .9.29 1.04.84.06.3.12.65.17 1.08l.12 1.09.3 1.99c.4-1.06.84-2.37 1.34-3.95.21-.67.61-1.01 1.2-1.01.58 0 .96.38 1.14 1.13.13.53.27 1.22.41 2.07l.4 2.2a626 626 0 0 0 1.22-4.75c.12-.44.44-.67.98-.67.3 0 .55.1.78.3.23.18.34.42.34.71 0 .05-.01.13-.04.23Zm4.18 7.34c-.96 0-1.79-.33-2.48-1a4 4 0 0 1-1.2-2.89 4.78 4.78 0 0 1 .95-3.08c.8-1.06 1.9-1.6 3.3-1.6 1.05 0 1.87.43 2.49 1.26.55.75.83 1.68.83 2.79 0 1.2-.33 2.24-.97 3.1a3.47 3.47 0 0 1-2.92 1.42Zm.47-6.5a1.7 1.7 0 0 0-1.51.88c-.32.5-.47 1.07-.47 1.73 0 .63.17 1.1.53 1.44.28.26.6.4.98.4.46 0 .85-.16 1.18-.46.38-.36.59-.85.61-1.47.07-1.67-.37-2.51-1.32-2.52Zm6.52-3.35c-.34 0-.62-.11-.87-.34-.24-.22-.37-.5-.37-.82 0-.32.13-.6.37-.82.25-.22.53-.33.87-.33.33 0 .62.1.86.33s.37.5.37.82c0 .33-.13.6-.37.82-.24.23-.53.34-.86.34Zm.66 5.73a65.95 65.95 0 0 0 .06 2.86 1 1 0 0 1-.3.75c-.21.19-.47.28-.78.28-.31 0-.57-.1-.78-.28a1 1 0 0 1-.3-.75l-.03-1.43a24.2 24.2 0 0 1 .05-3.17c.06-.7.08-1.28.08-1.75 0-.3.1-.55.3-.74.21-.2.47-.3.78-.3.31 0 .57.1.77.3.2.2.3.44.3.74 0 .47-.02 1.05-.07 1.74-.05.7-.08 1.28-.08 1.75Zm5.63 4.15c-1.14 0-2.1-.32-2.88-.97a3.38 3.38 0 0 1-1.22-2.72c0-1.04.36-2.11 1.1-3.21.83-1.26 1.8-1.9 2.9-1.9.54 0 1.18.15 1.9.44.88.36 1.32.78 1.32 1.25 0 .25-.09.48-.26.67a.92.92 0 0 1-.73.32c-.22 0-.5-.11-.81-.35-.31-.25-.79-.37-1.42-.37-.4 0-.83.4-1.3 1.18a4.05 4.05 0 0 0-.67 1.97c0 .54.2.97.6 1.29.37.3.86.44 1.47.44.35 0 .78-.13 1.29-.4.5-.26.82-.4.96-.4.28 0 .52.1.72.3.2.21.3.44.3.7 0 .41-.44.82-1.33 1.22-.79.36-1.44.54-1.94.54Zm6.95-7.64c.38-.37.79-.65 1.22-.83.44-.2.9-.29 1.4-.29.89 0 1.53.25 1.92.75.3.38.47.95.53 1.73l.09 1.93.15 1.53c.08.58.16 1.09.27 1.52.02.1.04.2.04.29a.9.9 0 0 1-.34.72c-.22.19-.47.28-.77.28-.53 0-.87-.26-1.03-.78a14.82 14.82 0 0 1-.45-4.77v-.67c-.05-.29-.19-.43-.41-.43-.58 0-1.1.26-1.57.8-.24.26-.57.77-.99 1.51 0 1.89-.09 3.02-.27 3.4-.2.43-.53.65-.97.65-.3 0-.55-.1-.78-.3a.93.93 0 0 1-.34-.72c0-.1.03-.24.09-.41.04-.12.07-.82.1-2.11-.03-1.05-.03-2.8 0-5.23l.02-.26c.04-.61.05-1.02.05-1.23 0-.16-.03-.4-.08-.71a5.35 5.35 0 0 1-.07-.72c0-.3.11-.54.32-.73.22-.19.47-.29.78-.29.51 0 .86.28 1.04.83.1.31.14.8.14 1.44 0 .52-.01 1.05-.04 1.59a25 25 0 0 0-.05 1.51Zm19.21 7.63a6.02 6.02 0 0 1-3.94-1.33 4.54 4.54 0 0 1-1.73-3.68c0-1.77.55-3.39 1.66-4.84a5.68 5.68 0 0 1 4.7-2.47c1.82 0 3.19.42 4.1 1.25.9.84 1.35 2.09 1.35 3.76 0 1.77-.5 3.38-1.53 4.81a5.41 5.41 0 0 1-4.6 2.5Zm.7-10.2c-1.16 0-2.16.56-2.99 1.69a5.76 5.76 0 0 0-1.16 3.5c0 .86.33 1.57 1 2.1.65.53 1.47.79 2.45.79 1.15 0 2.1-.56 2.87-1.69a6.04 6.04 0 0 0 1.05-3.5c0-1.1-.24-1.85-.73-2.28-.47-.4-1.3-.6-2.5-.6Zm12.46 1.87c.06-1.78.15-3 .24-3.68.09-.62.43-.92 1.01-.92.31 0 .56.1.75.3.19.2.28.43.28.72 0 .76-.06 1.88-.18 3.38-.12 1.49-.17 2.62-.17 3.37a24.1 24.1 0 0 0 .2 3.93c0 .29-.1.52-.31.71-.21.18-.45.27-.73.27a.92.92 0 0 1-.86-.51 4.35 4.35 0 0 1-2.28.64 4.02 4.02 0 0 1-2.9-1.12 3.87 3.87 0 0 1-1.19-2.9c0-1.4.4-2.54 1.2-3.4.78-.86 1.82-1.3 3.1-1.3.38 0 .73.05 1.04.13.3.09.57.21.8.38Zm-.16 2.46c-.17-.33-.4-.57-.67-.73-.28-.17-.6-.25-.99-.25-.77 0-1.34.23-1.73.67-.38.45-.58 1.11-.58 2 0 .57.21 1.05.63 1.45.41.4.9.6 1.45.6.4 0 .7-.05.92-.14a4.16 4.16 0 0 0 .97-.74V18.6Zm7.45 5.85c-.44 0-.91-.05-1.41-.16v3.2a1 1 0 0 1-.31.74c-.2.2-.46.3-.78.3-.3 0-.57-.1-.77-.3a1 1 0 0 1-.3-.75l.01-2.91v-3.09a52.1 52.1 0 0 0-.22-4.44c0-.44.1-.8.28-1.11.23-.35.53-.53.91-.53.3 0 .54.1.74.3.2.2.3.44.3.71l-.02.08a4.48 4.48 0 0 1 2.11-.59c1.2 0 2.08.51 2.63 1.53.41.76.62 1.76.62 2.97 0 1.14-.33 2.09-.98 2.84-.7.8-1.63 1.21-2.8 1.21Zm.54-6.46c-.33 0-.66.08-1 .23-.34.16-.68.38-1.02.7.06 1.06.1 2.14.1 3.22.46.15.92.23 1.38.23.54 0 .95-.2 1.24-.58.26-.34.39-.8.39-1.39 0-.7-.03-1.19-.1-1.46-.14-.63-.48-.95-.99-.95Zm7.64 6.46c-.97 0-1.8-.33-2.49-1a3.99 3.99 0 0 1-1.2-2.89 4.77 4.77 0 0 1 .95-3.08c.8-1.06 1.9-1.6 3.3-1.6 1.05 0 1.88.43 2.5 1.26.54.75.82 1.68.82 2.79 0 1.2-.32 2.24-.97 3.1a3.47 3.47 0 0 1-2.91 1.42Zm.47-6.5a1.7 1.7 0 0 0-1.52.88c-.31.5-.47 1.07-.47 1.73 0 .63.18 1.1.53 1.44.28.26.61.4.99.4.45 0 .84-.16 1.18-.46.38-.36.58-.85.6-1.47.07-1.67-.37-2.51-1.31-2.52Zm14.72-.84c-.54 2.04-1.1 3.9-1.65 5.56a5.5 5.5 0 0 1-.76 1.45c-.25.34-.59.5-1 .5-.66 0-1.17-.64-1.55-1.9-.14-.47-.3-1.37-.5-2.68-.1.23-.18.39-.2.47-.27.64-.67 1.64-1.19 3-.08.22-.2.4-.35.53-.22.35-.55.53-.98.54-.24.01-.5-.2-.77-.65a5.99 5.99 0 0 1-.7-1.75 62.5 62.5 0 0 1-.75-4.22c-.07-.47-.1-.84-.1-1.1 0-.29.1-.53.31-.71.22-.2.48-.3.78-.3.57 0 .91.29 1.04.84.07.3.13.65.18 1.08l.11 1.09.32 1.99c.38-1.06.82-2.37 1.32-3.95.22-.67.62-1.01 1.2-1.01s.97.38 1.15 1.13c.13.53.27 1.22.41 2.07l.4 2.2a626 626 0 0 0 1.22-4.75c.11-.44.44-.67.98-.67.3 0 .55.1.78.3.23.18.34.42.34.71 0 .05-.01.13-.04.23Zm2.74-2.51c-.33 0-.62-.11-.86-.34-.25-.22-.37-.5-.37-.82 0-.32.12-.6.37-.82.24-.22.53-.33.86-.33.34 0 .62.1.86.33.25.23.37.5.37.82 0 .33-.12.6-.37.82-.24.23-.52.34-.86.34Zm.67 5.73a71.3 71.3 0 0 0 .05 2.86 1 1 0 0 1-.3.75c-.2.19-.46.28-.78.28-.3 0-.57-.1-.77-.28a1 1 0 0 1-.3-.75l-.03-1.43-.03-1.43c0-.47.03-1.05.08-1.75s.08-1.27.08-1.74c0-.3.1-.55.3-.74.2-.2.46-.3.78-.3.3 0 .57.1.77.3.2.2.3.44.3.74 0 .47-.02 1.05-.07 1.74-.06.7-.08 1.28-.08 1.75Zm5.97 4.02c-1.24 0-2.26-.3-3.05-.9a3.27 3.27 0 0 1-1.31-2.76c0-1.32.34-2.44 1.04-3.35a3.72 3.72 0 0 1 3.11-1.51c.91 0 1.66.14 2.26.43.79.39 1.18.99 1.18 1.8 0 .57-.32 1.08-.96 1.52-.3.2-.88.5-1.76.9l-2.63 1.16c.25.27.55.47.9.6.36.14.77.21 1.22.21.7 0 1.3-.14 1.78-.43.43-.25.78-.38 1.04-.38.54 0 .8.26.8.79 0 .6-.43 1.08-1.3 1.45-.72.31-1.5.47-2.32.47Zm-.2-6.63c-.5 0-.9.16-1.25.48-.34.32-.62.8-.83 1.45l1.76-.75c.7-.32 1.26-.62 1.68-.89-.35-.2-.8-.3-1.37-.3Zm10.94-1.58c.07-1.78.15-3 .24-3.68.09-.62.43-.92 1.02-.92.3 0 .55.1.74.3.19.2.28.43.28.72 0 .76-.06 1.88-.18 3.38a48.6 48.6 0 0 0-.17 3.37 24.1 24.1 0 0 0 .2 3.93c0 .29-.1.52-.31.71-.2.18-.45.27-.73.27a.92.92 0 0 1-.86-.51 4.36 4.36 0 0 1-2.28.64 4.01 4.01 0 0 1-2.9-1.12 3.87 3.87 0 0 1-1.18-2.9c0-1.4.4-2.54 1.18-3.4.8-.86 1.83-1.3 3.1-1.3a4 4 0 0 1 1.05.13c.3.09.57.21.8.38Zm-.16 2.46c-.17-.33-.4-.57-.67-.73-.27-.17-.6-.25-.98-.25-.78 0-1.35.23-1.74.67-.38.45-.58 1.11-.58 2 0 .57.21 1.05.63 1.45.41.4.9.6 1.45.6.4 0 .7-.05.92-.14a4.16 4.16 0 0 0 .97-.74V18.6Zm10.56-.58c-.44.5-.97 1.18-1.6 2.02a120.4 120.4 0 0 1-1.62 2.18l.79-.02c.2 0 .5.04.9.12.4.07.7.1.91.1.31 0 .57.1.77.3.21.2.32.44.32.74s-.1.54-.3.73c-.21.2-.47.3-.79.3-.2 0-.51-.04-.91-.12-.4-.07-.7-.1-.9-.1-1.17 0-2.26.09-3.28.28-.13.03-.25.04-.34.04-.29 0-.53-.08-.73-.23a.81.81 0 0 1-.35-.68c0-.34.17-.64.5-.92a23.4 23.4 0 0 0 4.06-4.82 19.18 19.18 0 0 1-3.35-.15c-.64-.08-.96-.42-.96-1.01 0-.29.1-.53.3-.74.2-.2.45-.3.76-.3.25 0 .64.03 1.15.09a12.92 12.92 0 0 0 2.77.01c.7-.05 1.24-.07 1.6-.07.64 0 .97.27.97.8 0 .47-.22.95-.67 1.45Zm3.68-3.42c-.34 0-.63-.11-.87-.34-.25-.22-.37-.5-.37-.82 0-.32.13-.6.37-.82.24-.22.53-.33.87-.33.33 0 .62.1.86.33s.36.5.36.82c0 .33-.12.6-.36.82-.24.23-.53.34-.86.34Zm.66 5.73a71.3 71.3 0 0 0 .06 2.86 1 1 0 0 1-.3.75c-.21.19-.47.28-.78.28-.31 0-.57-.1-.78-.28a1 1 0 0 1-.3-.75l-.03-1.43c-.02-.66-.02-1.14-.02-1.43 0-.47.02-1.05.07-1.75.06-.7.08-1.27.08-1.74 0-.3.1-.55.3-.74.2-.2.47-.3.78-.3.31 0 .57.1.77.3.2.2.3.44.3.74 0 .47-.02 1.05-.07 1.74-.05.7-.08 1.28-.08 1.75Z"/></mask><path fill="#fff" d="m29.52 19.64-.65-.05c-.03.73-.05 1.92-.05 3.59 0 .28-.1.51-.29.71-.2.2-.44.3-.73.3a1 1 0 0 1-1.03-1.01V21c0-.8.05-2 .15-3.59.1-1.6.15-2.8.16-3.6 0-1.35.38-2 1.14-1.94.18-.05.42-.08.73-.1.32-.03.7-.04 1.14-.04 1.02 0 1.98.33 2.88.99 1 .74 1.5 1.64 1.5 2.7 0 1.34-.54 2.4-1.6 3.18a5.48 5.48 0 0 1-3.35 1.04Zm.4-5.9a11.28 11.28 0 0 0-.77.03v1.1c-.02.58-.07 1.48-.16 2.7a3.38 3.38 0 0 0 2.55-.52c.58-.4.87-.95.87-1.63 0-.44-.27-.83-.8-1.18a3.05 3.05 0 0 0-1.7-.5Zm8.92 10.72c-.96 0-1.79-.33-2.48-1a4 4 0 0 1-1.2-2.89 4.77 4.77 0 0 1 .95-3.08c.8-1.06 1.9-1.6 3.3-1.6 1.05 0 1.87.43 2.49 1.26.55.75.83 1.68.83 2.79 0 1.2-.33 2.24-.97 3.1a3.47 3.47 0 0 1-2.92 1.42Zm.47-6.5a1.7 1.7 0 0 0-1.51.88c-.32.5-.47 1.07-.47 1.73 0 .63.18 1.1.53 1.44.28.26.6.4.98.4.46 0 .85-.16 1.18-.46.38-.36.59-.85.61-1.47.07-1.67-.37-2.51-1.32-2.52Zm10.46-1.81c.06-1.78.14-3 .24-3.68.09-.62.42-.92 1.01-.92.31 0 .56.1.75.3.18.2.28.43.28.72 0 .76-.06 1.88-.18 3.38-.12 1.49-.17 2.62-.17 3.37a24.13 24.13 0 0 0 .2 3.93c0 .29-.1.52-.31.71-.21.18-.45.27-.73.27a.92.92 0 0 1-.86-.51 4.36 4.36 0 0 1-2.28.64 4.01 4.01 0 0 1-2.9-1.12 3.87 3.87 0 0 1-1.19-2.9c0-1.4.4-2.54 1.19-3.4a4 4 0 0 1 3.1-1.3 4 4 0 0 1 1.05.13c.3.09.57.21.8.38Zm-.16 2.46c-.17-.33-.4-.57-.67-.73-.28-.17-.6-.25-.99-.25-.77 0-1.35.23-1.73.67-.39.45-.58 1.11-.58 2 0 .57.2 1.05.63 1.45.41.4.9.6 1.45.6.4 0 .7-.05.91-.14a4.16 4.16 0 0 0 .98-.74V18.6Zm9.34-.33c-.51 0-.82-.21-.93-.65-.2-.03-.42-.05-.64-.05-1.25 0-1.88.17-1.88.51 0 .2.38.48 1.13.82 1.03.48 1.73.85 2.1 1.11.75.55 1.13 1.17 1.13 1.86 0 .9-.42 1.57-1.25 2.03-.67.37-1.5.56-2.48.56-.69 0-1.32-.1-1.9-.32-.78-.3-1.17-.72-1.17-1.3 0-.51.31-.77.93-.77.24 0 .59.07 1.04.22.45.16.8.23 1.05.23 1.06 0 1.59-.21 1.6-.64 0-.27-.38-.56-1.11-.88a15.73 15.73 0 0 1-2.06-1.03c-.74-.51-1.1-1.14-1.1-1.88 0-1.05.55-1.75 1.66-2.12a10.2 10.2 0 0 1 2.97-.32c.52 0 .9.07 1.16.2.34.19.51.53.51 1.02 0 .93-.25 1.4-.76 1.4Zm9.14 1.2a233.86 233.86 0 0 0 .04 3.65l.03.49c0 .29-.1.53-.32.72-.2.19-.46.29-.77.29a1 1 0 0 1-.94-.6c-.67.25-1.36.38-2.08.38-.73 0-1.36-.16-1.86-.47-.57-.36-.9-.89-1.02-1.57-.2-1.3-.3-2.47-.3-3.5 0-.67.08-1.45.23-2.32.1-.58.46-.88 1.06-.88.3 0 .56.1.77.3.21.18.32.42.32.71 0 .23-.04.59-.12 1.08-.07.49-.1.86-.1 1.11 0 .74.02 1.38.06 1.93.06.55.13 1 .23 1.36.13.06.26.1.38.14.12.03.24.04.35.04a8.2 8.2 0 0 0 1.91-.25 135.67 135.67 0 0 0-.02-2.68c0-1.06.05-1.99.15-2.76.07-.62.43-.93 1.06-.93.3 0 .57.1.79.29.22.2.32.43.3.72l-.15 2.75Zm3.51-2.4c.79-.9 1.53-1.36 2.24-1.36.8 0 1.39.3 1.76.91a3.27 3.27 0 0 1 2.3-.84c1.03 0 1.72.5 2.08 1.52.08.21.19.92.34 2.12.15.84.33 2.25.56 4.22.02.3-.08.54-.3.73-.23.2-.49.3-.8.3-.59 0-.94-.3-1.05-.9-.09-.54-.19-1.3-.28-2.27-.1-1.08-.2-1.84-.26-2.28-.14-.94-.32-1.4-.54-1.4a5.92 5.92 0 0 0-1.76.98c0 .59.07 1.44.21 2.56.15 1.14.22 2 .22 2.56a1 1 0 0 1-.3.74c-.2.2-.47.3-.78.3-.31 0-.57-.1-.77-.3a1 1 0 0 1-.3-.74c0-.6-.07-1.47-.2-2.62a26.6 26.6 0 0 1-.19-2.62c0-.34-.03-.6-.08-.8a6.4 6.4 0 0 0-1.96 1.9 133.12 133.12 0 0 0-.04 3.08c-.02.24-.02.42-.02.54 0 .29-.11.5-.34.67-.21.15-.47.22-.78.22-.44 0-.74-.19-.9-.57-.1-.26-.16-.68-.16-1.25v-2.9l-.03-1.14-.03-1.15c0-.46.08-.88.25-1.26.2-.47.49-.7.86-.7.29 0 .55.11.78.34.23.23.34.47.34.74 0-.1-.02.12-.07.68Zm13.63 7.38c-.96 0-1.79-.33-2.48-1a4 4 0 0 1-1.2-2.89 4.77 4.77 0 0 1 .95-3.08c.8-1.06 1.9-1.6 3.3-1.6 1.05 0 1.87.43 2.49 1.26.55.75.83 1.68.83 2.79 0 1.2-.33 2.24-.97 3.1a3.47 3.47 0 0 1-2.92 1.42Zm.47-6.5a1.7 1.7 0 0 0-1.51.88c-.31.5-.47 1.07-.47 1.73 0 .63.18 1.1.53 1.44.28.26.6.4.98.4.46 0 .85-.16 1.18-.46.38-.36.59-.85.61-1.47.07-1.67-.37-2.51-1.32-2.52Zm14.73-.84c-.55 2.04-1.1 3.9-1.65 5.56a5.5 5.5 0 0 1-.76 1.45c-.25.34-.59.5-1 .5-.66 0-1.18-.64-1.55-1.9-.14-.47-.3-1.37-.5-2.68a115.12 115.12 0 0 0-1.4 3.47c-.07.22-.19.4-.34.53-.22.35-.55.53-.98.54-.24.01-.5-.2-.77-.65a5.97 5.97 0 0 1-.7-1.75c-.16-.65-.41-2.05-.75-4.22-.07-.47-.1-.84-.1-1.1 0-.29.1-.53.31-.71.22-.2.48-.3.78-.3.57 0 .91.29 1.04.84.07.3.13.65.17 1.08l.12 1.09.31 1.99c.39-1.06.83-2.37 1.33-3.95.22-.67.62-1.01 1.2-1.01s.96.38 1.15 1.13c.13.53.26 1.22.41 2.07.21 1.24.34 1.97.4 2.2l1.22-4.75c.11-.44.44-.67.97-.67.3 0 .56.1.78.3.23.18.35.42.35.71 0 .05-.01.13-.04.23Zm7.7 7.4c-.24 0-.62-.26-1.14-.79-.48.23-.9.4-1.26.52-.37.12-.68.18-.93.18-1.26 0-2.2-.34-2.83-1-.63-.68-.94-1.69-.94-3.02a4.3 4.3 0 0 1 1.4-3.22 4.62 4.62 0 0 1 3.32-1.35c.5 0 1.07.14 1.72.43.78.33 1.18.73 1.18 1.18 0 .18-.06.35-.18.49-.05.2-.1.47-.13.79-.02.3-.03.68-.03 1.1 0 1 .06 1.7.2 2.15l.36.8c.2.46.31.71.31.77 0 .28-.1.51-.32.7-.2.17-.45.27-.73.27Zm-1.94-5.36a5.91 5.91 0 0 1 .15-1.3 1.4 1.4 0 0 0-.49-.15c-.7 0-1.33.28-1.86.84-.53.55-.8 1.19-.8 1.92 0 .7.13 1.22.38 1.58.25.35.63.52 1.13.52a2.65 2.65 0 0 0 1.73-.63 24.3 24.3 0 0 1-.24-2.78Zm10.25 5.4c-.64 0-1-.32-1.07-.95l-.22-1.62a12.02 12.02 0 0 1-.06-3l.01-.28.02-.37c0-.43-.12-.64-.34-.64-.48 0-.95.28-1.41.84a6.08 6.08 0 0 0-1.08 2.12 11 11 0 0 1-.07.7 5.24 5.24 0 0 0 0 1.34c.03.3.05.51.05.66 0 .3-.1.54-.3.73-.21.2-.47.3-.78.3-.31 0-.57-.1-.78-.3a.97.97 0 0 1-.3-.73c0-.15-.02-.37-.05-.66a7 7 0 0 1-.04-.66c0-.5.03-1.2.1-2.09.08-.89.11-1.58.11-2.08 0-.16 0-.4-.03-.7a16.2 16.2 0 0 1-.02-.7c0-.29.1-.52.31-.71.22-.2.48-.3.78-.3.69 0 1.05.42 1.1 1.24v.08a3.38 3.38 0 0 1 2.41-1.15c.99 0 1.66.41 2.04 1.24.25.55.38 1.37.38 2.47v.56l-.01.5c0 .41.05.94.16 1.58.12.64.17 1.16.17 1.56 0 .3-.1.53-.3.73-.22.19-.47.28-.78.28Zm4-9.95c-.34 0-.63-.11-.87-.34-.24-.22-.37-.5-.37-.82 0-.32.13-.6.37-.82.25-.22.53-.33.87-.33.33 0 .62.1.86.33s.36.5.36.82c0 .33-.12.6-.36.82-.24.23-.53.34-.86.34Zm.66 5.73a64.33 64.33 0 0 0 .06 2.86 1 1 0 0 1-.3.75c-.21.19-.47.28-.78.28-.31 0-.57-.1-.77-.28a1 1 0 0 1-.31-.75l-.03-1.43-.03-1.43c0-.47.03-1.05.08-1.75.06-.7.08-1.27.08-1.74 0-.3.1-.55.3-.74.2-.2.47-.3.78-.3.31 0 .57.1.77.3.2.2.3.44.3.74 0 .47-.02 1.05-.07 1.74-.05.7-.08 1.28-.08 1.75Zm5.98 4.02c-1.25 0-2.27-.3-3.06-.9a3.26 3.26 0 0 1-1.3-2.76c0-1.32.34-2.44 1.03-3.35a3.72 3.72 0 0 1 3.12-1.51c.9 0 1.66.14 2.25.43.8.39 1.19.99 1.19 1.8 0 .57-.33 1.08-.97 1.52-.29.2-.87.5-1.75.9l-2.64 1.16c.25.27.55.47.9.6.36.14.77.21 1.23.21.7 0 1.29-.14 1.77-.43.43-.25.78-.38 1.04-.38.54 0 .81.26.81.79 0 .6-.43 1.08-1.3 1.45-.73.31-1.5.47-2.32.47Zm-.21-6.63c-.49 0-.9.16-1.25.48-.34.32-.62.8-.82 1.45l1.76-.75c.7-.32 1.26-.62 1.67-.89-.34-.2-.8-.3-1.36-.3Zm21.49-3.1c-.4 0-1.04-.03-1.9-.08-.83-.06-1.46-.09-1.9-.08.02.6.1 1.65.21 3.17.11 1.34.17 2.4.17 3.19 0 .18.02.44.05.79.04.35.06.6.06.79 0 .39-.09.74-.25 1.05-.22.4-.52.6-.92.6-.28 0-.54-.09-.75-.27a.95.95 0 0 1-.37-.77c0-.07.01-.18.04-.32l.04-.35c0-.24-.02-.6-.06-1.08a18.8 18.8 0 0 1-.05-1.1c0-.7-.05-1.64-.16-2.83-.13-1.37-.2-2.32-.22-2.84h-.4c-1.17 0-2.09-.08-2.77-.25-.58-.14-.87-.48-.87-1.02 0-.27.1-.5.28-.72.22-.26.5-.37.86-.35.19.01.6.06 1.25.14.51.05.93.08 1.25.08a94 94 0 0 0 2.85-.03c.4 0 .99.03 1.78.09.79.05 1.38.08 1.78.08a1.08 1.08 0 0 1 1.1 1.05c0 .3-.1.55-.32.76-.2.2-.47.3-.78.3Zm11.8 2.49c-.54 2.04-1.1 3.9-1.64 5.56-.16.47-.42.95-.77 1.45-.25.34-.58.5-1 .5-.66 0-1.17-.64-1.55-1.9-.14-.47-.3-1.37-.5-2.68l-.2.47c-.27.64-.67 1.64-1.19 3-.08.22-.2.4-.35.53-.22.35-.54.53-.98.54-.24.01-.5-.2-.77-.65a5.96 5.96 0 0 1-.7-1.75c-.16-.65-.4-2.05-.74-4.22a7.64 7.64 0 0 1-.11-1.1c0-.29.1-.53.32-.71.22-.2.48-.3.78-.3.56 0 .9.29 1.04.84.06.3.12.65.17 1.08l.12 1.09.3 1.99c.4-1.06.84-2.37 1.34-3.95.21-.67.61-1.01 1.2-1.01.58 0 .96.38 1.14 1.13.13.53.27 1.22.41 2.07l.4 2.2a626 626 0 0 0 1.22-4.75c.12-.44.44-.67.98-.67.3 0 .55.1.78.3.23.18.34.42.34.71 0 .05-.01.13-.04.23Zm4.18 7.34c-.96 0-1.79-.33-2.48-1a4 4 0 0 1-1.2-2.89 4.78 4.78 0 0 1 .95-3.08c.8-1.06 1.9-1.6 3.3-1.6 1.05 0 1.87.43 2.49 1.26.55.75.83 1.68.83 2.79 0 1.2-.33 2.24-.97 3.1a3.47 3.47 0 0 1-2.92 1.42Zm.47-6.5a1.7 1.7 0 0 0-1.51.88c-.32.5-.47 1.07-.47 1.73 0 .63.17 1.1.53 1.44.28.26.6.4.98.4.46 0 .85-.16 1.18-.46.38-.36.59-.85.61-1.47.07-1.67-.37-2.51-1.32-2.52Zm6.52-3.35c-.34 0-.62-.11-.87-.34-.24-.22-.37-.5-.37-.82 0-.32.13-.6.37-.82.25-.22.53-.33.87-.33.33 0 .62.1.86.33s.37.5.37.82c0 .33-.13.6-.37.82-.24.23-.53.34-.86.34Zm.66 5.73a65.95 65.95 0 0 0 .06 2.86 1 1 0 0 1-.3.75c-.21.19-.47.28-.78.28-.31 0-.57-.1-.78-.28a1 1 0 0 1-.3-.75l-.03-1.43a24.2 24.2 0 0 1 .05-3.17c.06-.7.08-1.28.08-1.75 0-.3.1-.55.3-.74.21-.2.47-.3.78-.3.31 0 .57.1.77.3.2.2.3.44.3.74 0 .47-.02 1.05-.07 1.74-.05.7-.08 1.28-.08 1.75Zm5.63 4.15c-1.14 0-2.1-.32-2.88-.97a3.38 3.38 0 0 1-1.22-2.72c0-1.04.36-2.11 1.1-3.21.83-1.26 1.8-1.9 2.9-1.9.54 0 1.18.15 1.9.44.88.36 1.32.78 1.32 1.25 0 .25-.09.48-.26.67a.92.92 0 0 1-.73.32c-.22 0-.5-.11-.81-.35-.31-.25-.79-.37-1.42-.37-.4 0-.83.4-1.3 1.18a4.05 4.05 0 0 0-.67 1.97c0 .54.2.97.6 1.29.37.3.86.44 1.47.44.35 0 .78-.13 1.29-.4.5-.26.82-.4.96-.4.28 0 .52.1.72.3.2.21.3.44.3.7 0 .41-.44.82-1.33 1.22-.79.36-1.44.54-1.94.54Zm6.95-7.64c.38-.37.79-.65 1.22-.83.44-.2.9-.29 1.4-.29.89 0 1.53.25 1.92.75.3.38.47.95.53 1.73l.09 1.93.15 1.53c.08.58.16 1.09.27 1.52.02.1.04.2.04.29a.9.9 0 0 1-.34.72c-.22.19-.47.28-.77.28-.53 0-.87-.26-1.03-.78a14.82 14.82 0 0 1-.45-4.77v-.67c-.05-.29-.19-.43-.41-.43-.58 0-1.1.26-1.57.8-.24.26-.57.77-.99 1.51 0 1.89-.09 3.02-.27 3.4-.2.43-.53.65-.97.65-.3 0-.55-.1-.78-.3a.93.93 0 0 1-.34-.72c0-.1.03-.24.09-.41.04-.12.07-.82.1-2.11-.03-1.05-.03-2.8 0-5.23l.02-.26c.04-.61.05-1.02.05-1.23 0-.16-.03-.4-.08-.71a5.35 5.35 0 0 1-.07-.72c0-.3.11-.54.32-.73.22-.19.47-.29.78-.29.51 0 .86.28 1.04.83.1.31.14.8.14 1.44 0 .52-.01 1.05-.04 1.59a25 25 0 0 0-.05 1.51Zm19.21 7.63a6.02 6.02 0 0 1-3.94-1.33 4.54 4.54 0 0 1-1.73-3.68c0-1.77.55-3.39 1.66-4.84a5.68 5.68 0 0 1 4.7-2.47c1.82 0 3.19.42 4.1 1.25.9.84 1.35 2.09 1.35 3.76 0 1.77-.5 3.38-1.53 4.81a5.41 5.41 0 0 1-4.6 2.5Zm.7-10.2c-1.16 0-2.16.56-2.99 1.69a5.76 5.76 0 0 0-1.16 3.5c0 .86.33 1.57 1 2.1.65.53 1.47.79 2.45.79 1.15 0 2.1-.56 2.87-1.69a6.04 6.04 0 0 0 1.05-3.5c0-1.1-.24-1.85-.73-2.28-.47-.4-1.3-.6-2.5-.6Zm12.46 1.87c.06-1.78.15-3 .24-3.68.09-.62.43-.92 1.01-.92.31 0 .56.1.75.3.19.2.28.43.28.72 0 .76-.06 1.88-.18 3.38-.12 1.49-.17 2.62-.17 3.37a24.1 24.1 0 0 0 .2 3.93c0 .29-.1.52-.31.71-.21.18-.45.27-.73.27a.92.92 0 0 1-.86-.51 4.35 4.35 0 0 1-2.28.64 4.02 4.02 0 0 1-2.9-1.12 3.87 3.87 0 0 1-1.19-2.9c0-1.4.4-2.54 1.2-3.4.78-.86 1.82-1.3 3.1-1.3.38 0 .73.05 1.04.13.3.09.57.21.8.38Zm-.16 2.46c-.17-.33-.4-.57-.67-.73-.28-.17-.6-.25-.99-.25-.77 0-1.34.23-1.73.67-.38.45-.58 1.11-.58 2 0 .57.21 1.05.63 1.45.41.4.9.6 1.45.6.4 0 .7-.05.92-.14a4.16 4.16 0 0 0 .97-.74V18.6Zm7.45 5.85c-.44 0-.91-.05-1.41-.16v3.2a1 1 0 0 1-.31.74c-.2.2-.46.3-.78.3-.3 0-.57-.1-.77-.3a1 1 0 0 1-.3-.75l.01-2.91v-3.09a52.1 52.1 0 0 0-.22-4.44c0-.44.1-.8.28-1.11.23-.35.53-.53.91-.53.3 0 .54.1.74.3.2.2.3.44.3.71l-.02.08a4.48 4.48 0 0 1 2.11-.59c1.2 0 2.08.51 2.63 1.53.41.76.62 1.76.62 2.97 0 1.14-.33 2.09-.98 2.84-.7.8-1.63 1.21-2.8 1.21Zm.54-6.46c-.33 0-.66.08-1 .23-.34.16-.68.38-1.02.7.06 1.06.1 2.14.1 3.22.46.15.92.23 1.38.23.54 0 .95-.2 1.24-.58.26-.34.39-.8.39-1.39 0-.7-.03-1.19-.1-1.46-.14-.63-.48-.95-.99-.95Zm7.64 6.46c-.97 0-1.8-.33-2.49-1a3.99 3.99 0 0 1-1.2-2.89 4.77 4.77 0 0 1 .95-3.08c.8-1.06 1.9-1.6 3.3-1.6 1.05 0 1.88.43 2.5 1.26.54.75.82 1.68.82 2.79 0 1.2-.32 2.24-.97 3.1a3.47 3.47 0 0 1-2.91 1.42Zm.47-6.5a1.7 1.7 0 0 0-1.52.88c-.31.5-.47 1.07-.47 1.73 0 .63.18 1.1.53 1.44.28.26.61.4.99.4.45 0 .84-.16 1.18-.46.38-.36.58-.85.6-1.47.07-1.67-.37-2.51-1.31-2.52Zm14.72-.84c-.54 2.04-1.1 3.9-1.65 5.56a5.5 5.5 0 0 1-.76 1.45c-.25.34-.59.5-1 .5-.66 0-1.17-.64-1.55-1.9-.14-.47-.3-1.37-.5-2.68-.1.23-.18.39-.2.47-.27.64-.67 1.64-1.19 3-.08.22-.2.4-.35.53-.22.35-.55.53-.98.54-.24.01-.5-.2-.77-.65a5.99 5.99 0 0 1-.7-1.75 62.5 62.5 0 0 1-.75-4.22c-.07-.47-.1-.84-.1-1.1 0-.29.1-.53.31-.71.22-.2.48-.3.78-.3.57 0 .91.29 1.04.84.07.3.13.65.18 1.08l.11 1.09.32 1.99c.38-1.06.82-2.37 1.32-3.95.22-.67.62-1.01 1.2-1.01s.97.38 1.15 1.13c.13.53.27 1.22.41 2.07l.4 2.2a626 626 0 0 0 1.22-4.75c.11-.44.44-.67.98-.67.3 0 .55.1.78.3.23.18.34.42.34.71 0 .05-.01.13-.04.23Zm2.74-2.51c-.33 0-.62-.11-.86-.34-.25-.22-.37-.5-.37-.82 0-.32.12-.6.37-.82.24-.22.53-.33.86-.33.34 0 .62.1.86.33.25.23.37.5.37.82 0 .33-.12.6-.37.82-.24.23-.52.34-.86.34Zm.67 5.73a71.3 71.3 0 0 0 .05 2.86 1 1 0 0 1-.3.75c-.2.19-.46.28-.78.28-.3 0-.57-.1-.77-.28a1 1 0 0 1-.3-.75l-.03-1.43-.03-1.43c0-.47.03-1.05.08-1.75s.08-1.27.08-1.74c0-.3.1-.55.3-.74.2-.2.46-.3.78-.3.3 0 .57.1.77.3.2.2.3.44.3.74 0 .47-.02 1.05-.07 1.74-.06.7-.08 1.28-.08 1.75Zm5.97 4.02c-1.24 0-2.26-.3-3.05-.9a3.27 3.27 0 0 1-1.31-2.76c0-1.32.34-2.44 1.04-3.35a3.72 3.72 0 0 1 3.11-1.51c.91 0 1.66.14 2.26.43.79.39 1.18.99 1.18 1.8 0 .57-.32 1.08-.96 1.52-.3.2-.88.5-1.76.9l-2.63 1.16c.25.27.55.47.9.6.36.14.77.21 1.22.21.7 0 1.3-.14 1.78-.43.43-.25.78-.38 1.04-.38.54 0 .8.26.8.79 0 .6-.43 1.08-1.3 1.45-.72.31-1.5.47-2.32.47Zm-.2-6.63c-.5 0-.9.16-1.25.48-.34.32-.62.8-.83 1.45l1.76-.75c.7-.32 1.26-.62 1.68-.89-.35-.2-.8-.3-1.37-.3Zm10.94-1.58c.07-1.78.15-3 .24-3.68.09-.62.43-.92 1.02-.92.3 0 .55.1.74.3.19.2.28.43.28.72 0 .76-.06 1.88-.18 3.38a48.6 48.6 0 0 0-.17 3.37 24.1 24.1 0 0 0 .2 3.93c0 .29-.1.52-.31.71-.2.18-.45.27-.73.27a.92.92 0 0 1-.86-.51 4.36 4.36 0 0 1-2.28.64 4.01 4.01 0 0 1-2.9-1.12 3.87 3.87 0 0 1-1.18-2.9c0-1.4.4-2.54 1.18-3.4.8-.86 1.83-1.3 3.1-1.3a4 4 0 0 1 1.05.13c.3.09.57.21.8.38Zm-.16 2.46c-.17-.33-.4-.57-.67-.73-.27-.17-.6-.25-.98-.25-.78 0-1.35.23-1.74.67-.38.45-.58 1.11-.58 2 0 .57.21 1.05.63 1.45.41.4.9.6 1.45.6.4 0 .7-.05.92-.14a4.16 4.16 0 0 0 .97-.74V18.6Zm10.56-.58c-.44.5-.97 1.18-1.6 2.02a120.4 120.4 0 0 1-1.62 2.18l.79-.02c.2 0 .5.04.9.12.4.07.7.1.91.1.31 0 .57.1.77.3.21.2.32.44.32.74s-.1.54-.3.73c-.21.2-.47.3-.79.3-.2 0-.51-.04-.91-.12-.4-.07-.7-.1-.9-.1-1.17 0-2.26.09-3.28.28-.13.03-.25.04-.34.04-.29 0-.53-.08-.73-.23a.81.81 0 0 1-.35-.68c0-.34.17-.64.5-.92a23.4 23.4 0 0 0 4.06-4.82 19.18 19.18 0 0 1-3.35-.15c-.64-.08-.96-.42-.96-1.01 0-.29.1-.53.3-.74.2-.2.45-.3.76-.3.25 0 .64.03 1.15.09a12.92 12.92 0 0 0 2.77.01c.7-.05 1.24-.07 1.6-.07.64 0 .97.27.97.8 0 .47-.22.95-.67 1.45Zm3.68-3.42c-.34 0-.63-.11-.87-.34-.25-.22-.37-.5-.37-.82 0-.32.13-.6.37-.82.24-.22.53-.33.87-.33.33 0 .62.1.86.33s.36.5.36.82c0 .33-.12.6-.36.82-.24.23-.53.34-.86.34Zm.66 5.73a71.3 71.3 0 0 0 .06 2.86 1 1 0 0 1-.3.75c-.21.19-.47.28-.78.28-.31 0-.57-.1-.78-.28a1 1 0 0 1-.3-.75l-.03-1.43c-.02-.66-.02-1.14-.02-1.43 0-.47.02-1.05.07-1.75.06-.7.08-1.27.08-1.74 0-.3.1-.55.3-.74.2-.2.47-.3.78-.3.31 0 .57.1.77.3.2.2.3.44.3.74 0 .47-.02 1.05-.07 1.74-.05.7-.08 1.28-.08 1.75Z"/><path fill="#000" d="m28.87 19.59.1-1-1.06-.1-.04 1.05 1 .05Zm-.34 4.3-.72-.7.72.7Zm-1.48 0-.71.7.71-.7Zm-.13-6.48 1 .07-1-.07Zm.16-3.6h1-1Zm1.14-1.94-.08 1h.17l.16-.04-.25-.96Zm.73-.1.07 1h.02l-.09-1Zm4.02.95.6-.8-.6.8Zm-.1 5.88.6.8-.6-.8Zm-3.4-4.85v1h.04l-.04-1Zm-.32.02-.12-1-.88.1v.9h1Zm0 1.1 1 .02v-.01l-1-.01Zm-.16 2.7-1-.07-.06.92.9.14.16-.99Zm2.56-.52-.59-.8.59.8Zm.05-2.8-.54.83.54-.84Zm-2.08 5.4v-1l-.14-.02-.4-.04-.11 1-.1 1 .75.05v-1Zm-.65-.06-1-.05c-.03.76-.05 1.97-.05 3.64h2c0-1.67.02-2.85.05-3.55l-1-.04Zm-.05 3.59h-1a.14.14 0 0 1 0 .01l.71.7.72.7c.37-.39.57-.87.57-1.41h-1Zm-.29.71-.72-.7h.02-.03v2c.54 0 1.05-.2 1.45-.6l-.72-.7Zm-.73.3v-1a.2.2 0 0 1-.04 0l-.7.7-.71.7c.4.4.9.6 1.45.6v-1Zm-.75-.3.72-.7v-.01h-2c0 .54.2 1.02.57 1.4l.71-.69Zm-.28-.71h1V21h-2v2.18h1Zm0-2.18h1c0-.77.05-1.94.15-3.52l-1-.07-1-.06c-.1 1.59-.15 2.8-.15 3.65h1Zm.15-3.59 1 .07c.1-1.62.15-2.84.16-3.66h-1l-1-.01c0 .76-.06 1.94-.16 3.54l1 .06Zm.16-3.6h1c0-.62.1-.9.15-1l-.05.03c-.05.03-.07.02-.04.02l.08-1 .07-.99a1.9 1.9 0 0 0-1.03.2 1.9 1.9 0 0 0-.76.73 4.03 4.03 0 0 0-.42 2l1 .01Zm1.14-1.94.25.96c.1-.02.26-.05.55-.07l-.07-1-.06-1c-.34.03-.66.07-.93.14l.26.97Zm.73-.1.09 1c.27-.03.62-.04 1.05-.04v-2c-.46 0-.87.01-1.22.04l.08 1Zm1.14-.04v1c.8 0 1.54.25 2.28.8l.6-.81.6-.8a5.75 5.75 0 0 0-3.48-1.2v1Zm2.88.99-.6.8c.8.59 1.1 1.21 1.1 1.9h2c0-1.43-.7-2.61-1.9-3.5l-.6.8Zm1.5 2.7h-1c0 1.02-.4 1.78-1.2 2.38l.6.8.6.8a4.76 4.76 0 0 0 2-3.98h-1Zm-1.6 3.18-.59-.8c-.75.55-1.65.84-2.76.84v2c1.49 0 2.82-.4 3.95-1.23l-.6-.8Zm-2.96-4.86v-1l-.48.01.04 1 .04 1h.4v-1Zm-.44.01v-1c-.15 0-.3 0-.44.02l.12 1 .12.99.2-.01v-1Zm-.32.02h-1v1.09h1l1 .02v-1.11h-1Zm0 1.1-1-.02c-.02.55-.07 1.43-.16 2.65l1 .07 1 .07c.09-1.22.14-2.15.15-2.75l-1-.02Zm-.16 2.7-.15.99c.25.04.5.07.68.07v-2h-.08l-.3-.05-.15.99Zm.53.06v1c.98 0 1.87-.23 2.61-.76l-.58-.82-.59-.8a2.4 2.4 0 0 1-1.44.38v1Zm2.03-.58.58.82a2.91 2.91 0 0 0 1.28-2.45h-2c0 .34-.12.59-.45.82l.59.81Zm.86-1.63h1c0-.92-.58-1.58-1.27-2.02l-.54.84-.54.84c.2.13.28.22.32.28l.03.06h1Zm-.8-1.18.53-.84a4.05 4.05 0 0 0-2.23-.66v2c.42 0 .8.11 1.15.34l.54-.84Zm4.75 9.23.69-.72-.7.72Zm-1.2-2.9 1-.03-1 .03Zm.95-3.08-.8-.6.8.6Zm5.79-.34.8-.6-.8.6Zm-.14 5.88.8.6-.8-.6Zm-2.45-5.07v1-1Zm-1.51.88.84.53-.84-.53Zm.06 3.17.69-.73-.7.73Zm2.16-.06.68.73h.01l-.69-.73Zm.61-1.47 1 .05-1-.05Zm-1.79 3.98v-1c-.7 0-1.28-.23-1.79-.71l-.7.72-.68.72a4.47 4.47 0 0 0 3.17 1.27v-1Zm-2.48-1 .69-.72a3 3 0 0 1-.89-2.2l-1 .03-1 .03a4.99 4.99 0 0 0 1.51 3.6l.69-.73Zm-1.2-2.89 1-.03c-.03-.93.22-1.74.75-2.45l-.8-.6-.8-.6a5.77 5.77 0 0 0-1.15 3.71l1-.03Zm.95-3.08.8.6a2.9 2.9 0 0 1 2.5-1.2v-2c-1.7 0-3.1.67-4.1 2l.8.6Zm3.3-1.6v1c.73 0 1.26.28 1.68.85l.8-.6.81-.59a3.93 3.93 0 0 0-3.29-1.65v1Zm2.49 1.26-.8.6c.4.54.63 1.25.63 2.19h2c0-1.28-.32-2.43-1.03-3.38l-.8.59Zm.83 2.79h-1c0 1.02-.27 1.83-.77 2.49l.8.6.8.6a5.98 5.98 0 0 0 1.17-3.7h-1Zm-.97 3.1-.8-.61c-.53.7-1.2 1.03-2.12 1.03v2c1.53 0 2.8-.62 3.71-1.82l-.8-.6Zm-2.45-5.08.01-1c-1.02 0-1.83.5-2.37 1.34l.85.54.84.53c.2-.33.4-.41.66-.4l.01-1Zm-1.51.88-.85-.54a4.18 4.18 0 0 0-.62 2.27h2c0-.5.11-.89.31-1.2l-.84-.53Zm-.47 1.73h-1c0 .82.24 1.6.84 2.17l.69-.73.68-.73c-.1-.1-.21-.28-.21-.71h-1Zm.53 1.44-.69.72c.46.44 1.03.68 1.67.68v-2a.4.4 0 0 1-.3-.13l-.68.73Zm.98.4v1c.7 0 1.34-.25 1.86-.73l-.68-.73-.67-.74c-.15.14-.3.2-.5.2v1Zm1.18-.46.69.72c.6-.57.89-1.32.92-2.14l-1-.05-1-.04c-.01.4-.14.63-.3.78l.7.73Zm.61-1.47 1 .04c.04-.9-.05-1.73-.39-2.39a2.17 2.17 0 0 0-.8-.86c-.34-.22-.73-.3-1.12-.3v1l-.01 1a.35.35 0 0 1 .1 0l.01.02.05.07c.1.19.2.6.16 1.38l1 .04Zm9.14-4.33-.6.8 1.52 1.13.07-1.9-1-.03Zm.24-3.68-1-.14 1 .14Zm1.86 3.48-1-.08 1 .08Zm0 7.07.99-.18-.98.18Zm-.28.94.65.75h.01l-.66-.75ZM50 23.72l.88-.48-.5-.92-.9.54.52.86Zm-1.1.48-.27-.97.27.97Zm-4.09-.96-.7.72.7-.72Zm.01-6.3.74.68-.74-.67Zm4.79 1.67h1v-.24l-.11-.22-.9.46Zm-3.4-.3.76.65-.75-.66Zm2.42 3.9-.4-.91.4.91Zm.72-.5.63.78-.63-.78Zm.26-.24.73.68.29-.3-.02-.42-1 .04Zm.16-5.32 1 .04c.06-1.78.14-2.96.23-3.58l-1-.14-.98-.14c-.1.73-.19 2-.25 3.78l1 .04Zm.24-3.68.99.14a.48.48 0 0 1 .03-.12l-.03.03a.2.2 0 0 1-.06.03h.08v-2c-.47 0-.96.12-1.36.49-.4.35-.58.83-.64 1.29l.99.14Zm1.01-.92v1h.05a.1.1 0 0 1-.03-.02l.73-.69.72-.68c-.4-.43-.92-.61-1.47-.61v1Zm.75.3-.73.68s0 .01 0 0v.04h2c0-.53-.18-1.02-.55-1.41l-.72.68Zm.28.72h-1c0 .71-.06 1.8-.18 3.3l1 .08 1 .08a47 47 0 0 0 .18-3.46h-1Zm-.18 3.38-1-.08c-.11 1.5-.17 2.66-.17 3.45h2c0-.72.05-1.8.16-3.3l-1-.07Zm-.17 3.37h-1c0 1.83.05 3.16.2 3.9l.98-.2.98-.18c-.1-.52-.16-1.66-.16-3.52h-1Zm.17 3.7-.98.19v.04h2c0-.14 0-.28-.03-.41l-.98.18Zm.03.23h-1v.01a.11.11 0 0 1 .02-.04l.67.74.66.74c.43-.38.65-.89.65-1.45h-1Zm-.31.71-.66-.75-.03.02h-.04v2c.52 0 1-.18 1.38-.52l-.65-.75Zm-.73.27v-1h-.02.01a.15.15 0 0 1 .05.04l-.02-.03-.88.48-.88.48c.17.3.4.57.72.76.32.2.67.27 1.02.27v-1Zm-.86-.51-.52-.86c-.28.17-.56.3-.85.37l.27.97.26.96c.48-.13.93-.33 1.36-.58l-.52-.86Zm-1.1.48-.28-.97c-.29.09-.59.13-.9.13v2c.5 0 .98-.07 1.45-.2l-.27-.96Zm-1.18.16v-1c-.93 0-1.65-.29-2.21-.84l-.7.72-.7.72c.98.94 2.2 1.4 3.6 1.4v-1Zm-2.9-1.12.69-.72a2.87 2.87 0 0 1-.88-2.18h-2c0 1.42.49 2.66 1.49 3.62l.7-.72Zm-1.19-2.9h1c0-1.2.34-2.08.93-2.72l-.74-.67-.74-.68a5.8 5.8 0 0 0-1.45 4.07h1Zm1.19-3.4.74.68a3.01 3.01 0 0 1 2.36-.97v-2a5 5 0 0 0-3.84 1.62l.74.68Zm3.1-1.3v1c.32 0 .58.04.79.1l.26-.97.26-.96a5 5 0 0 0-1.3-.16v1Zm1.05.13-.26.97c.2.05.35.13.46.21l.6-.8.6-.8a3.35 3.35 0 0 0-1.14-.54l-.26.96Zm.64 2.84.89-.46c-.25-.47-.6-.87-1.06-1.14l-.5.86-.5.87c.08.05.18.14.28.33l.89-.46Zm-.67-.73.5-.87a2.91 2.91 0 0 0-1.49-.38v2c.24 0 .39.05.48.1l.5-.86Zm-.99-.25v-1c-.96 0-1.86.3-2.49 1.02l.76.65.76.66c.14-.17.4-.33.97-.33v-1Zm-1.73.67-.76-.65c-.6.7-.82 1.64-.82 2.65h2c0-.77.17-1.15.33-1.34l-.75-.66Zm-.58 2h-1c0 .85.33 1.59.93 2.17l.7-.72.69-.72a.94.94 0 0 1-.32-.73h-1Zm.63 1.45-.7.72c.6.57 1.32.88 2.15.88v-2c-.28 0-.52-.09-.76-.32l-.7.72Zm1.45.6v1c.45 0 .92-.05 1.32-.23l-.4-.9-.42-.92-.12.03-.38.02v1Zm.91-.14.4.91c.29-.12.62-.37.95-.63l-.63-.78-.62-.78-.38.29-.12.08.4.91Zm.72-.5.64.77c.12-.1.24-.2.35-.33l-.73-.68-.73-.69a1.8 1.8 0 0 1-.16.16l.63.77Zm.26-.24 1-.04v-2.81l-1-.01h-1v2.9l1-.04Zm8.41-3.84.98-.23-.16-.64-.64-.11-.18.98Zm-1.39 1.28.42-.9-.42.9Zm2.1 1.11-.6.81h.01l.59-.8Zm-.12 3.9.48.87-.48-.88Zm-4.38.23-.35.94.35-.94Zm3.44-2.26 1 .01h-1Zm-1.1-.88-.4.91.4-.91Zm-2.06-1.03-.58.82h.01l.57-.82Zm.56-4-.31-.95.31.95Zm4.13-.11-.48.88.48-.88Zm-.25 2.41v-1c-.12 0-.1-.03-.04.02a.3.3 0 0 1 .07.08c.02.02.02.04.02.02l-.98.23-.97.24c.1.4.32.8.71 1.07.38.26.8.34 1.2.34v-1Zm-.93-.65.18-.98a4.7 4.7 0 0 0-.82-.07v2c.17 0 .32.01.47.04l.17-.99Zm-.64-.05v-1c-.65 0-1.23.04-1.67.16-.22.06-.5.16-.73.36-.26.21-.48.55-.48 1h2c0 .26-.14.45-.25.54-.07.06-.1.06-.02.03.19-.05.55-.1 1.15-.1v-1Zm-1.88.51h-1c0 .37.17.64.29.79.12.16.27.28.4.38.28.2.63.38 1.03.56l.41-.9.42-.92a4.27 4.27 0 0 1-.68-.36c-.06-.04-.05-.04-.02 0 .03.03.15.2.15.45h-1Zm1.13.82-.41.91c1.03.48 1.64.81 1.92 1.01l.59-.8.59-.81A14.7 14.7 0 0 0 57.05 18l-.42.9Zm2.1 1.11-.59.81c.6.43.72.78.72 1.05h2c0-1.12-.63-2-1.55-2.67l-.58.81Zm1.13 1.86h-1c0 .28-.07.49-.17.65-.1.17-.27.35-.57.51l.49.87.49.88a3.21 3.21 0 0 0 1.76-2.91h-1ZM58.6 23.9l-.48-.87a4.1 4.1 0 0 1-2 .43v2c1.1 0 2.1-.2 2.96-.68l-.48-.88Zm-2.48.56v-1c-.59 0-1.1-.1-1.55-.26l-.35.94-.34.94c.7.26 1.45.38 2.24.38v-1Zm-1.9-.32.35-.94c-.3-.11-.43-.22-.48-.28-.03-.02-.03-.03-.03-.04v-.03h-2c0 1.18.86 1.87 1.81 2.23l.35-.94Zm-1.17-1.3h1l-.01.04a.4.4 0 0 1-.11.15l-.08.05.13-.01v-2c-.42 0-.93.08-1.34.43-.44.37-.59.88-.59 1.35h1Zm.93-.77v1c.07 0 .3.03.73.17l.31-.95.32-.94a4.52 4.52 0 0 0-1.36-.28v1Zm1.04.22-.31.95c.47.16.95.28 1.36.28v-2c-.08 0-.3-.03-.73-.17l-.32.94Zm1.05.23v1a4.3 4.3 0 0 0 1.56-.23c.23-.1.5-.24.7-.49.21-.26.33-.58.33-.9l-1-.02-1-.01c0-.12.05-.25.13-.35.07-.09.13-.1.1-.09a4.29 4.29 0 0 1-.82.09v1Zm1.6-.64h1c0-.6-.41-1-.66-1.2a4.77 4.77 0 0 0-1.05-.6l-.4.92-.4.91c.33.15.52.26.6.33.04.03.03.03 0-.02a.63.63 0 0 1-.1-.34h1Zm-1.11-.88.4-.92c-1.09-.48-1.68-.78-1.9-.93l-.56.82-.57.83c.4.27 1.17.65 2.23 1.11l.4-.91Zm-2.06-1.03.57-.81c-.53-.38-.67-.73-.67-1.07h-2c0 1.14.59 2.05 1.52 2.7l.58-.82Zm-1.1-1.88h1c0-.34.08-.55.2-.7.12-.15.35-.33.77-.47l-.31-.95-.31-.95c-.69.23-1.3.6-1.72 1.14a3.06 3.06 0 0 0-.63 1.93h1Zm1.66-2.12.31.95c.5-.16 1.36-.27 2.66-.27v-2c-1.36 0-2.47.11-3.28.37l.31.95Zm2.97-.32v1a3 3 0 0 1 .64.07l.04.02.48-.88.47-.88a3.47 3.47 0 0 0-1.63-.33v1Zm1.16.2-.47.9-.02-.02a.11.11 0 0 1-.02-.03s.02.03.02.16h2c0-.74-.29-1.48-1.05-1.89l-.46.89Zm.51 1.02h-1c0 .19-.01.33-.03.43l-.04.15c0-.01.04-.07.12-.12a.39.39 0 0 1 .2-.06v2a1.62 1.62 0 0 0 1.44-.88c.25-.45.31-1 .31-1.52h-1Zm8.42 6.25-1 .07v.03l1-.1Zm-.29 1.2-.66-.75v.01l-.02.01.68.74Zm-1.72-.3.9-.44-.4-.8-.84.31.34.94Zm-3.93-.1-.54.85h.01l.53-.84Zm-1.02-1.56-.99.15 1-.15Zm-.07-5.82.99.18-.99-.18Zm1.83-.59-.67.74.01.01.66-.75Zm.2 1.8-.98-.16v.01l.98.15Zm-.04 3.04-1 .09 1-.09Zm.23 1.36-.96.27.12.46.44.19.4-.92Zm.38.14-.26.96h.01l.25-.96Zm2.26-.2.23.97.77-.19v-.79h-1Zm0-1.37 1-.01v-.01l-1 .02Zm.13-4.08.99.12-1-.12Zm1.85-.64-.66.75.66-.75Zm.3.72-1-.05 1 .05Zm-.15 2.75h-1l.01 1.59h1l1-.01v-1.58h-1Zm.01 1.58-1 .01v1.57h2v-1.58h-1Zm0 1.58h-1c0 .15.02.34.04.56l1-.07.99-.07a6.7 6.7 0 0 1-.02-.42h-1Zm.03.5-1 .09c.03.2.03.33.03.39h2l-.03-.58-1 .1Zm.03.48h-1s0 .01 0 0l.01-.01.01-.02c0-.01 0-.01 0 0l.66.75.66.75c.44-.39.66-.9.66-1.47h-1Zm-.32.72-.68-.74a.06.06 0 0 1-.02.02h-.07v2a2.1 2.1 0 0 0 1.45-.55l-.68-.73Zm-.77.29v-1h-.05.02s.01 0 0 0l-.02-.04-.9.45-.89.45c.17.33.41.63.75.84.34.21.72.3 1.09.3v-1Zm-.94-.6-.35-.93c-.56.2-1.13.3-1.73.3v2c.84 0 1.64-.14 2.42-.42l-.34-.94Zm-2.08.38v-1a2.5 2.5 0 0 1-1.34-.32l-.52.85-.53.85c.7.43 1.51.62 2.4.62v-1Zm-1.86-.47.53-.85c-.31-.2-.5-.46-.56-.88l-.99.16-.99.15c.16.96.65 1.74 1.47 2.26l.54-.84Zm-1.02-1.57.99-.16c-.2-1.26-.3-2.37-.3-3.34h-2c0 1.1.11 2.31.32 3.65l1-.15Zm-.3-3.5h1c0-.6.07-1.31.22-2.14l-.99-.18-.98-.17c-.17.91-.25 1.74-.25 2.5h1Zm.23-2.32.99.18c0-.07.02-.1.02-.1l-.02.03-.04.02h.1v-2c-.45 0-.94.1-1.35.45-.4.33-.6.8-.68 1.25l.98.17Zm1.06-.88v1a.2.2 0 0 1 .07.01l.03.02.67-.74.67-.74c-.4-.37-.9-.55-1.44-.55v1Zm.77.3-.66.74a.12.12 0 0 1-.02-.04v.01h2c0-.57-.22-1.09-.66-1.47l-.66.75Zm.32.71h-1c0 .14-.03.44-.1.92l.98.16.99.16c.08-.5.13-.93.13-1.24h-1Zm-.12 1.08-.99-.15c-.07.5-.12.93-.12 1.27h2c0-.18.03-.5.1-.97l-.99-.15Zm-.1 1.11h-1c0 .76.02 1.43.07 2.02l1-.09.99-.08c-.04-.52-.07-1.13-.07-1.84h-1Zm.06 1.93-1 .1c.06.58.15 1.1.27 1.53l.96-.27.96-.26a7.2 7.2 0 0 1-.2-1.19l-.99.1Zm.23 1.36-.4.92c.17.08.34.14.52.18l.26-.96.25-.97a1.52 1.52 0 0 1-.23-.08l-.4.91Zm.38.14-.25.97c.2.05.4.07.6.07v-2l-.11-.01-.24.97Zm.35.04v1c.68 0 1.4-.1 2.14-.27l-.23-.98-.23-.97c-.64.15-1.2.22-1.68.22v1Zm1.91-.25h1v-1.37h-1l-1 .02v1.35h1Zm0-1.36 1-.02c-.02-.61-.02-1.04-.02-1.3h-2l.01 1.33 1-.01Zm-.02-1.32h1c0-1.04.05-1.91.14-2.64l-1-.12-.99-.13c-.1.83-.15 1.8-.15 2.9h1Zm.15-2.76.99.12c0-.07.02-.1.02-.1a.18.18 0 0 1-.06.06h-.01l.12-.01v-2c-.48 0-.98.12-1.4.48-.41.36-.6.85-.66 1.32l1 .13Zm1.06-.93v1c.08 0 .1.02.13.04l.66-.75.66-.75a2.15 2.15 0 0 0-1.45-.54v1Zm.79.29-.66.75a.17.17 0 0 1-.04-.08l1 .05 1 .06c.03-.6-.2-1.14-.64-1.53l-.66.75Zm.3.72-1-.05a583.9 583.9 0 0 1-.13 2.65v.05-.01a1 1 0 0 1 .02-.12 1 1 0 0 1 1.91-.08 1.04 1.04 0 0 1 .06.3v.01h-2a1.22 1.22 0 0 0 0 .18l.05.17a1 1 0 0 0 1.84.11.97.97 0 0 0 .08-.26l.02-.08.01-.14.03-.5.11-2.18-1-.05Zm3.36.36-1-.09-.25 3.07 2-2.33-.75-.65Zm4-.46-.85.53.62 1.01.9-.79-.67-.75Zm4.38.68.95-.33-.95.33Zm.34 2.12-1 .12.01.03v.02l.99-.17Zm.56 4.22 1-.07v-.05l-1 .12Zm-2.15.13-.98.17.98-.17Zm-.28-2.27-1 .1 1-.1Zm-.26-2.28-1 .15 1-.15Zm-1.36-1.04-.5-.87.5.87Zm-.94.61-.66-.75-.34.3v.45h1Zm.21 2.57-1 .12h.01l1-.12Zm-2.13-.06-1 .11 1-.1Zm-.27-3.42.96-.28-.36-1.22-1.1.63.5.87Zm-1.83 1.74-.8-.6v.02l.8.58Zm-.13.17-.76-.65-.23.27v.36l1 .02Zm-.04 3.07 1 .04-1-.04Zm-.36 1.2-.58-.8h-.01l.59.8Zm-1.68-.34.93-.38v-.01l-.93.39Zm-.2-5.3-.99.05 1-.04Zm.23-2.4.91.4-.91-.4Zm1.64-.36-.7.7v.02l.7-.72Zm.27 1.42.76.65c.72-.84 1.22-1.02 1.48-1.02v-2c-1.15 0-2.15.73-3 1.71l.76.66Zm2.24-1.37v1c.5 0 .74.16.91.44l.85-.53.85-.52a2.92 2.92 0 0 0-2.61-1.4v1Zm1.76.91.66.75c.23-.2.48-.34.74-.44l-.34-.94-.35-.94c-.5.19-.96.46-1.37.82l.66.75Zm1.06-.63.34.94c.26-.1.56-.15.9-.15v-2c-.55 0-1.08.09-1.59.27l.35.94Zm1.25-.21v1c.34 0 .55.08.69.19.15.1.31.3.44.67l.94-.34.95-.34a3.34 3.34 0 0 0-1.15-1.6c-.55-.4-1.2-.58-1.87-.58v1Zm2.07 1.52-.94.33.03.12.07.4.19 1.4.99-.13 1-.12-.2-1.47a5.65 5.65 0 0 0-.2-.86l-.94.33Zm.34 2.12-.99.17c.15.81.33 2.2.56 4.16l1-.11.99-.12c-.23-1.97-.42-3.4-.57-4.27l-.99.17Zm.56 4.22-1 .07a.19.19 0 0 1 .04-.09s.01 0 0 0l.66.75.65.76c.47-.4.7-.95.65-1.56l-1 .07Zm-.3.73-.65-.76c-.04.04-.07.05-.14.05v2c.53 0 1.03-.18 1.44-.53l-.65-.76Zm-.8.3v-1c-.06 0-.1-.02-.1-.02s.02 0 .04.03l.03.03a.4.4 0 0 1-.03-.11l-.99.17-.98.17c.08.46.28.92.68 1.26.4.34.9.46 1.36.46v-1Zm-1.05-.9.99-.17c-.09-.5-.18-1.23-.28-2.2l-1 .1-.99.1c.1.99.2 1.77.3 2.34l.98-.17Zm-.28-2.27 1-.1c-.11-1.07-.2-1.86-.27-2.33l-1 .15-.98.15c.06.42.15 1.15.25 2.22l1-.1Zm-.26-2.28.99-.15a6.23 6.23 0 0 0-.3-1.26 1.9 1.9 0 0 0-.31-.55 1.2 1.2 0 0 0-.92-.44v2a.8.8 0 0 1-.6-.26c-.06-.07-.06-.1-.04-.03.05.13.12.39.19.84l.99-.15Zm-.54-1.4v-1c-.3 0-.57.12-.7.17-.18.08-.38.19-.61.32l.49.87.49.87.43-.23.07-.02h-.04a.72.72 0 0 1-.13.02v-1Zm-.82.36-.5-.87c-.44.24-.82.49-1.1.73l.66.75.66.76c.12-.1.36-.27.77-.5l-.5-.87Zm-.94.61h-1a23 23 0 0 0 .22 2.7l1-.13.98-.13c-.14-1.1-.2-1.9-.2-2.44h-1Zm.21 2.57-.99.12c.14 1.14.21 1.94.21 2.44h2c0-.63-.08-1.54-.23-2.69l-.99.13Zm.22 2.56h-1v.03-.01l.7.72.7.72c.4-.4.6-.9.6-1.46h-1Zm-.3.74-.7-.71h-.08v2c.55 0 1.06-.17 1.47-.57l-.7-.72Zm-.78.3v-1h-.07v-.01l-.7.71-.7.72c.41.4.93.58 1.47.58v-1Zm-.77-.3.7-.71v-.01.01-.03h-2a2 2 0 0 0 .6 1.46l.7-.72Zm-.3-.74h1c0-.65-.08-1.57-.2-2.73l-1 .11-1 .11c.13 1.15.2 1.97.2 2.51h1Zm-.2-2.62 1-.1a25.7 25.7 0 0 1-.19-2.52h-2c0 .65.07 1.56.2 2.73l.99-.1Zm-.19-2.62h1c0-.38-.03-.75-.12-1.08l-.96.28-.97.28c.02.07.05.23.05.52h1Zm-.08-.8-.5-.87a7.37 7.37 0 0 0-2.13 2.01l.8.6.8.6a5.43 5.43 0 0 1 1.53-1.47l-.5-.87Zm-1.83 1.74-.8-.58-.02.02-.07.08.76.65.76.65c.07-.08.14-.16.19-.24l-.81-.58Zm-.13.17-1-.02a133.6 133.6 0 0 0-.03 2.5h2l.03-2.46-1-.02Zm-.03 2.47h-1l-.01.56 1 .04 1 .04.01-.64h-1Zm-.01.6-1-.05-.02.6h2l.01-.51-1-.04Zm-.02.54h-1s0-.03.03-.08a.26.26 0 0 1 .03-.05l.02-.02.58.82.57.82c.5-.35.77-.88.77-1.49h-1Zm-.34.67-.6-.81s-.04.03-.18.03v2c.48 0 .95-.11 1.36-.41l-.58-.81Zm-.78.22v-1h-.05l.04.02a.22.22 0 0 1 .04.04c.01.01 0 .01 0 0l-.93.37-.92.37c.14.35.37.68.72.9a2 2 0 0 0 1.1.3v-1Zm-.9-.57.93-.4a2.73 2.73 0 0 1-.09-.85h-2c0 .6.05 1.18.24 1.63l.92-.38Zm-.16-1.25h1v-2.9h-2v2.9h1Zm0-2.9h1l-.03-1.18-1 .04-1 .04.03 1.1h1Zm-.03-1.14 1-.04-.03-1.11h-2c0 .28 0 .68.03 1.19l1-.04Zm-.03-1.15h1c0-.34.06-.62.16-.85l-.91-.4-.92-.41a4.06 4.06 0 0 0-.33 1.66h1Zm.25-1.26.92.4a.78.78 0 0 1 .07-.13c.01-.03.02-.03 0-.02a.23.23 0 0 1-.06.03.23.23 0 0 1-.07.02v-2c-.92 0-1.49.63-1.78 1.3l.92.4Zm.86-.7v1l.07.05.7-.7.72-.72c-.4-.39-.9-.63-1.5-.63v1Zm.78.34-.7.72.05.06v-.04h2c0-.58-.27-1.08-.65-1.45l-.7.71Zm.34.74h1v-.06l-.02-.18a1 1 0 0 0-.06-.17c-.02-.04-.1-.26-.34-.43a1 1 0 0 0-1.12-.02c-.21.13-.31.3-.33.35-.06.1-.1.2-.1.22l-.01.07-.03.2-.05.61 1 .09.99.08.05-.57c0-.07 0-.05 0 0l-.02.06c0 .01-.03.1-.09.22a1 1 0 0 1-1.45.32c-.23-.16-.32-.38-.34-.42a1 1 0 0 1-.05-.17l-.02-.12v-.08h1Zm11.08 7.06.7-.72h-.01l-.69.72Zm-1.2-2.9 1-.03-1 .03Zm.95-3.08-.8-.6.8.6Zm5.79-.34.8-.6-.8.6Zm-.14 5.88.8.6-.8-.6Zm-2.45-5.07v1-1Zm-1.51.88.84.53-.84-.53Zm.06 3.17.69-.73-.69.73Zm2.16-.06.68.73h.01l-.69-.73Zm.61-1.47 1 .05-1-.05Zm-1.79 3.98v-1c-.7 0-1.28-.23-1.79-.71l-.69.72-.7.72a4.47 4.47 0 0 0 3.18 1.27v-1Zm-2.48-1 .69-.72a3 3 0 0 1-.89-2.2l-1 .03-1 .03a4.99 4.99 0 0 0 1.51 3.6l.69-.73Zm-1.2-2.89 1-.03c-.03-.93.23-1.74.75-2.45l-.8-.6-.8-.6a5.77 5.77 0 0 0-1.14 3.71l1-.03Zm.95-3.08.8.6a2.9 2.9 0 0 1 2.5-1.2v-2c-1.7 0-3.1.67-4.1 2l.8.6Zm3.3-1.6v1c.73 0 1.26.28 1.68.85l.8-.6.81-.59a3.93 3.93 0 0 0-3.29-1.65v1Zm2.49 1.26-.8.6c.4.54.63 1.25.63 2.19h2c0-1.28-.32-2.43-1.03-3.38l-.8.59Zm.83 2.79h-1c0 1.02-.27 1.83-.77 2.49l.8.6.8.6a5.98 5.98 0 0 0 1.17-3.7h-1Zm-.97 3.1-.8-.61c-.53.7-1.2 1.03-2.12 1.03v2c1.53 0 2.8-.62 3.71-1.82l-.8-.6Zm-2.45-5.08.01-1c-1.02 0-1.83.5-2.37 1.34l.85.54.84.53c.2-.33.4-.41.66-.4l.01-1Zm-1.51.88-.85-.54a4.18 4.18 0 0 0-.62 2.27h2c0-.5.11-.89.31-1.2l-.84-.53Zm-.47 1.73h-1c0 .82.24 1.6.84 2.17l.69-.73.69-.73c-.1-.1-.22-.28-.22-.71h-1Zm.53 1.44-.69.72c.46.44 1.04.68 1.67.68v-2a.4.4 0 0 1-.3-.13l-.68.73Zm.98.4v1c.7 0 1.34-.25 1.86-.73l-.68-.73-.67-.74c-.15.14-.3.2-.5.2v1Zm1.18-.46.7.72c.6-.57.88-1.32.91-2.14l-1-.05-1-.04c-.01.4-.13.63-.3.78l.7.73Zm.61-1.47 1 .04c.04-.9-.05-1.73-.39-2.39a2.17 2.17 0 0 0-.79-.86c-.35-.22-.74-.3-1.13-.3v1l-.01 1a.35.35 0 0 1 .1 0l.01.02.05.07c.1.19.2.6.16 1.38l1 .04Zm13.41-3.36.97.26-.97-.26Zm-1.65 5.56.95.32-.95-.32Zm-.76 1.45.8.58-.8-.59Zm-1 .5-.02 1 .02-1Zm-1.55-1.9-.96.29.96-.29Zm-.5-2.68.99-.14-.48-3.25-1.41 2.96.9.43Zm-.2.47.92.38.01-.03.01-.04-.94-.31Zm-1.2 3-.93-.35v.02l.94.33Zm-.34.53-.64-.77-.13.1-.08.14.85.53Zm-.98.54-.04-1 .04 1Zm-.77-.65.85-.52v-.02l-.85.54Zm-.7-1.75.97-.24-.97.24Zm-.75-4.22-.99.15 1-.15Zm.21-1.81.66.75-.66-.75Zm1.82.54.98-.22-.98.22Zm.17 1.08 1-.1-1 .1Zm.12 1.09-.99.14v.02l1-.16Zm.31 1.99-.98.15 1.92.2-.94-.35ZM94 16.9l.96.3-.96-.3Zm2.35.12-.98.24.98-.24Zm.41 2.07-.99.17.99-.17Zm.4 2.2-.99.2 1.94.08-.96-.28Zm1.22-4.75.97.25-.97-.25Zm1.75-.38-.65.76h.01l.64-.76Zm.31.95-.97-.26a99.4 99.4 0 0 1-1.63 5.5l.95.32.95.31c.56-1.68 1.11-3.56 1.67-5.61l-.97-.26Zm-1.65 5.56-.95-.32c-.12.36-.32.75-.63 1.18l.82.59.8.58c.4-.56.72-1.13.91-1.71l-.95-.32Zm-.76 1.45-.81-.6a.25.25 0 0 1-.08.09l-.1.01-.01 1-.02 1c.75.01 1.39-.32 1.82-.92l-.8-.59Zm-1 .5.01-1a.46.46 0 0 1-.12-.11 3.2 3.2 0 0 1-.48-1.07l-.96.28-.96.3c.2.68.48 1.3.85 1.75.4.49.95.84 1.64.85l.02-1Zm-1.55-1.9.96-.28c-.12-.4-.28-1.23-.47-2.54l-1 .14-.98.15c.2 1.3.37 2.26.53 2.82l.96-.29Zm-.5-2.68-.9-.43c-.1.22-.2.43-.25.58l.95.32.94.31.04-.08.12-.26-.9-.44Zm-.2.47-.93-.4-1.2 3.05.94.35.93.36c.52-1.36.91-2.35 1.18-2.98l-.92-.38Zm-1.2 3-.93-.33-.05.09.64.77.64.77c.3-.27.52-.6.65-.96l-.94-.34Zm-.34.53-.85-.53-.05.05s-.03.02-.12.02l.04 1 .04 1a2.13 2.13 0 0 0 1.78-1.01l-.84-.53Zm-.98.54-.04-1c.1 0 .18.02.24.04l.07.05a1.83 1.83 0 0 1-.19-.25l-.85.5-.86.52c.16.28.36.54.6.75.25.21.62.41 1.07.4l-.04-1Zm-.77-.65.84-.54a5 5 0 0 1-.57-1.45l-.97.24-.97.24c.2.78.46 1.47.82 2.04l.85-.53Zm-.7-1.75.97-.25c-.15-.59-.4-1.95-.73-4.13l-.99.16-.99.15c.34 2.16.6 3.61.77 4.31l.97-.24Zm-.75-4.22.99-.15c-.07-.46-.1-.76-.1-.95h-2c0 .34.05.77.12 1.25l1-.15Zm-.1-1.1h1c0-.01 0-.01 0 0l-.02.02-.01.02-.66-.75-.66-.76c-.43.38-.66.9-.66 1.47h1Zm.31-.71.66.75c.03-.03.06-.04.12-.04v-2c-.53 0-1.03.18-1.44.54l.66.75Zm.78-.3v1c.06 0 .09.01.1.02l-.04-.02-.02-.03.03.1.97-.23.98-.22c-.1-.44-.32-.87-.7-1.18-.4-.32-.87-.43-1.32-.43v1Zm1.04.84-.97.23c.05.24.1.56.15.96l1-.1.99-.12c-.05-.45-.11-.85-.2-1.2l-.97.23Zm.17 1.08-.99.1.12 1.13 1-.14.98-.14a48 48 0 0 1-.11-1.05l-1 .1Zm.12 1.09-.98.16.3 1.98 1-.15.98-.15-.31-2-.99.16Zm.31 1.99.94.34c.4-1.07.84-2.4 1.35-3.98l-.96-.3-.95-.3c-.5 1.56-.94 2.86-1.32 3.9l.94.34ZM94 16.9l.96.3c.07-.21.13-.28.15-.3h.01l.09-.01v-2c-.5 0-.99.15-1.4.49-.38.33-.62.77-.76 1.22l.95.3Zm1.2-1.01v1h.04-.02c.01 0 .09.1.15.37l.98-.24.97-.23a2.74 2.74 0 0 0-.7-1.33c-.38-.39-.88-.57-1.41-.57v1Zm1.15 1.13-.98.24c.13.5.26 1.16.4 2l.99-.17.99-.17c-.15-.86-.3-1.57-.43-2.14l-.97.24Zm.41 2.07-.99.17.4 2.23.98-.2.98-.2-.38-2.17-.99.17Zm.4 2.2.95.28 1.24-4.78-.97-.25-.97-.24a2312.9 2312.9 0 0 1-1.22 4.7v.02l.96.27Zm1.22-4.75.97.25c0-.02 0-.01-.01 0a.23.23 0 0 1-.07.07l-.03.02h.11v-2c-.4 0-.83.08-1.21.34-.4.27-.63.66-.73 1.08l.97.24Zm.97-.67v1c.06 0 .1.01.13.05l.66-.76.65-.76c-.4-.35-.9-.53-1.44-.53v1Zm.78.3-.64.76h.01v-.01l-.02-.03c0-.01 0-.01 0 0h2c0-.6-.26-1.12-.7-1.5l-.64.77Zm.35.71h-1V16.82v.04l.96.26.97.25c.03-.12.07-.3.07-.48h-1Zm6.52 6.84.7-.7-.5-.5-.63.3.43.9Zm-1.26.52-.3-.95h-.02l.32.95Zm-3.76-.83-.73.68.73-.68Zm.45-6.23.7.72-.7-.72Zm5.05-.92-.4.91.4-.91Zm1 1.67-.76-.65-.15.18-.06.23.97.24Zm-.13.79-1-.1v.01l1 .09Zm.18 3.25-.96.3v.01l.96-.31Zm.36.8-.92.42.92-.41Zm-.02 1.46-.65-.76v.01l.65.75Zm-2.63-5.65-1-.12v.02l1 .1Zm.1-.73 1 .17.12-.73-.67-.34-.44.9Zm-.27-.11-.32.95.04.01.03.01.25-.97Zm-2.07.8.72.69-.72-.7Zm-.42 3.5-.82.57.82-.57Zm2.04.36.34.94h.01l-.35-.94Zm.82-.47.63.77.43-.35-.07-.55-.99.13Zm1.7 2.58v-1l.14.01.04.01-.08-.04c-.12-.09-.3-.23-.53-.47l-.7.7-.72.71c.29.28.56.53.82.7.23.16.6.38 1.03.38v-1Zm-1.14-.79-.43-.9c-.45.22-.83.37-1.13.47l.3.95.3.95c.42-.13.89-.32 1.4-.56l-.44-.9Zm-1.26.52-.32-.95c-.3.1-.5.13-.61.13v2c.4 0 .82-.1 1.24-.23l-.31-.95Zm-.93.18v-1c-1.09 0-1.72-.29-2.1-.7l-.73.7-.73.68a4.68 4.68 0 0 0 3.56 1.32v-1Zm-2.83-1 .73-.69c-.39-.42-.67-1.13-.67-2.33h-2c0 1.47.34 2.77 1.2 3.7l.74-.69Zm-.94-3.02h1c0-.98.35-1.8 1.08-2.5l-.69-.72-.7-.72a5.3 5.3 0 0 0-1.69 3.94h1Zm1.4-3.22.69.72a3.62 3.62 0 0 1 2.63-1.07v-2c-1.55 0-2.9.55-4.02 1.63l.7.72Zm3.32-1.35v1c.31 0 .75.1 1.32.34l.4-.91.4-.92a5.4 5.4 0 0 0-2.12-.5v1Zm1.72.43-.4.91c.34.15.5.27.58.34.05.06 0 .03 0-.07h2c0-1.12-.97-1.75-1.79-2.1l-.4.92Zm1.18 1.18h-1l.01-.08a.25.25 0 0 1 .05-.08l.76.65.76.65c.28-.33.42-.72.42-1.14h-1Zm-.18.49-.97-.25c-.07.28-.12.6-.15.94l1 .1.99.1c.03-.3.06-.5.1-.65l-.97-.24Zm-.13.79-1-.09c-.02.35-.03.75-.03 1.19h2c0-.4 0-.74.03-1.02l-1-.08Zm-.03 1.1h-1c0 1 .06 1.86.25 2.45l.96-.3.95-.3a6.95 6.95 0 0 1-.16-1.85h-1Zm.2 2.15-.94.31c.02.08.09.22.13.33l.26.58.92-.41.9-.41-.25-.57-.06-.15c-.03-.05-.02-.03 0 0l-.95.32Zm.36.8-.9.42.2.49.04.09-.01-.03-.01-.06-.01-.14h2c0-.19-.06-.36-.07-.38a14.6 14.6 0 0 0-.33-.8l-.9.42Zm.31.77h-1l.01-.04.02-.03.65.76.65.76c.43-.37.67-.87.67-1.45h-1Zm-.32.7-.66-.76-.03.02h-.04v2c.52 0 1-.17 1.39-.52l-.66-.75Zm-2.67-5.1h1l.03-.47-1-.1-.99-.1c-.02.25-.04.47-.04.68h1Zm.04-.56.99.11.1-.67-.98-.17-.99-.17-.12.78 1 .12Zm.1-.73.45-.9a2.4 2.4 0 0 0-.48-.18l-.24.97-.25.97h.02a.8.8 0 0 1 .06.03l.45-.9Zm-.27-.11.31-.95a1.65 1.65 0 0 0-.52-.09v2h-.1l-.01-.01.32-.95Zm-.2-.04v-1c-1.02 0-1.89.41-2.6 1.15l.73.69.73.69a1.5 1.5 0 0 1 1.13-.53v-1Zm-1.87.84-.72-.7a3.68 3.68 0 0 0-1.08 2.62h2c0-.46.16-.85.52-1.23l-.72-.7Zm-.8 1.92h-1c0 .79.14 1.56.56 2.15l.82-.57.82-.58c-.08-.11-.2-.4-.2-1h-1Zm.38 1.58-.81.58a2.3 2.3 0 0 0 1.93.94v-2c-.23 0-.28-.06-.3-.1l-.82.58Zm1.13.52v1c.43 0 .85-.07 1.25-.22l-.34-.94-.34-.94c-.17.07-.36.1-.58.1v1Zm.9-.16.36.94c.4-.15.77-.36 1.1-.64l-.63-.77-.63-.78a1.9 1.9 0 0 1-.54.32l.35.93Zm.83-.47 1-.13c-.16-1.23-.24-2.1-.24-2.65h-2c0 .68.09 1.65.25 2.9l.99-.12Zm8.94 1.67 1-.12h-.01v-.02l-1 .14Zm-.22-1.62.99-.13-1 .13Zm-.1-2.31-1-.06v.01l1 .05Zm.05-.97 1 .07-1-.07Zm-1.73-.17-.78-.64.78.64Zm-1.08 2.12-.96-.29-.03.12v.11l.99.06Zm-.07.7.99.12-1-.13Zm0 1.34-1 .1v.02l1-.12Zm-.26 1.4-.68-.74-.02.02.7.71Zm-1.55 0 .7-.72v-.01l-.7.72Zm-.35-1.4-1 .1v.01l1-.1Zm.14-5.53-1 .05v.01l1-.06Zm.3-1.41.66.74-.67-.74Zm1.87.94-1 .05v.04l1-.1Zm0 .08-1 .1.2 2.13 1.52-1.52-.72-.7Zm4.45.09.91-.42-.91.42Zm.38 3.03 1 .02v-.02h-1Zm.15 2.08-.98.16v.01l.98-.17Zm-.91 2.57v-1a.45.45 0 0 1-.13 0l.04.02.03.03s0 .01 0 0l-.02-.1-1 .1-.99.12c.06.48.24.98.66 1.35.41.37.93.48 1.4.48v-1Zm-1.07-.94.99-.14-.22-1.61-1 .13-.98.14.22 1.61.99-.13Zm-.22-1.62.99-.13c-.07-.54-.1-1.03-.1-1.48h-2c0 .55.03 1.14.12 1.75l.99-.14Zm-.12-1.61h1l.02-.65-1-.05-1-.05-.02.75h1Zm.03-.7 1 .06.03-.76h-2l-.03.64 1 .06Zm.03-.7h1c0 .02 0 .02 0 0v-.2l-.99-.07-1-.07-.01.34h1Zm.01-.27 1 .07.02-.44h-2c0 .07 0 .16-.02.3l1 .07Zm.02-.37h1c0-.27-.03-.62-.2-.94a1.26 1.26 0 0 0-1.14-.7v2a.74.74 0 0 1-.64-.38l-.03-.09v.11h1Zm-.34-.64v-1c-.9 0-1.63.53-2.19 1.2l.78.64.77.64c.37-.46.59-.48.64-.48v-1Zm-1.41.84-.78-.64a7.08 7.08 0 0 0-1.26 2.47l.96.3.96.28c.23-.76.53-1.34.89-1.78l-.77-.63Zm-1.08 2.12-1-.06c0 .14-.03.35-.06.63l.99.12 1 .13.07-.76-1-.06Zm-.07.7-1-.14c-.03.28-.05.55-.05.82h2c0-.18.01-.36.04-.56l-1-.13Zm-.05.68h-1c0 .2.02.46.05.77l1-.1 1-.11a6.34 6.34 0 0 1-.05-.56h-1Zm.05.66-1 .13c.04.28.05.45.05.53h2c0-.21-.02-.48-.06-.78l-1 .12Zm.05.66h-1v.02l.01-.02.68.73.68.74c.42-.4.63-.9.63-1.47h-1Zm-.3.73-.7-.71h-.01l-.07.01v2c.54 0 1.06-.18 1.47-.58l-.7-.72Zm-.78.3v-1h-.07v-.01l-.7.71-.7.72c.4.4.92.58 1.47.58v-1Zm-.78-.3.7-.72c-.01 0-.01 0 0 0v.01s0 .01 0 0v-.02h-2c0 .55.2 1.07.62 1.46l.68-.73Zm-.3-.73h1c0-.2-.02-.46-.05-.76l-1 .1-1 .11c.04.28.05.46.05.55h1Zm-.05-.66 1-.1a5.95 5.95 0 0 1-.04-.56h-2c0 .2.02.46.05.77l1-.1Zm-.04-.66h1c0-.46.03-1.12.1-2l-1-.09-1-.08c-.06.9-.1 1.63-.1 2.17h1Zm.1-2.09 1 .08c.07-.9.11-1.62.11-2.16h-2c0 .46-.03 1.12-.1 2l1 .08Zm.11-2.08h1c0-.2 0-.45-.03-.77l-1 .07-1 .07c.03.3.03.5.03.63h1Zm-.03-.7 1-.05-.02-.64h-2c0 .17 0 .43.02.74l1-.05Zm-.02-.7h1v-.01.02l-.02.02-.67-.74-.67-.75c-.42.39-.64.9-.64 1.47h1Zm.31-.71.67.74c.02-.01.03-.03.11-.03v-2c-.53 0-1.04.17-1.45.55l.67.74Zm.78-.3v1c.08 0 .1.02.1.02a.15.15 0 0 1-.06-.04l.01.04c.02.05.04.13.05.27l1-.05 1-.06a2.47 2.47 0 0 0-.56-1.53 2 2 0 0 0-1.54-.64v1Zm1.1 1.24-1 .09v.08l1-.09 1-.09v-.09l-1 .1Zm0 .08.71.7c.63-.63 1.2-.85 1.7-.85v-2c-1.18 0-2.22.55-3.11 1.45l.7.7Zm2.41-1.15v1c.35 0 .58.08.73.17.15.08.28.23.4.48l.91-.41.91-.42a3.02 3.02 0 0 0-2.95-1.82v1Zm2.04 1.24-.91.41c.16.36.28 1.01.28 2.06h2a7.2 7.2 0 0 0-.46-2.89l-.91.42Zm.38 2.47h-1v.56h2v-.56h-1Zm0 .56-1-.02-.01.53h2v-.49l-1-.02Zm-.01.5h-1c0 .5.06 1.08.18 1.74l.98-.16.99-.17a8.86 8.86 0 0 1-.15-1.4h-1Zm.16 1.58-.98.17c.1.62.15 1.07.15 1.39h2c0-.49-.06-1.07-.18-1.74l-.99.18Zm.17 1.56h-1a.1.1 0 0 1 0 .02v-.02l.02-.01.67.74.68.73c.42-.39.63-.9.63-1.46h-1Zm-.3.73-.69-.74-.02.02h-.07v2a2.1 2.1 0 0 0 1.45-.55l-.68-.73Zm4.08-11.64-.69.73.01.01.68-.74Zm0 1.64-.68-.73.68.73Zm-.17 7.5-1 .02 1-.02Zm-.28 2.18.69.72-.69-.72Zm-1.54 0-.7.71v.01l.7-.72Zm-.34-2.18-1 .02 1-.02Zm.44-5.66.69.72-.7-.72Zm1.54 0-.7.72h.02l.68-.72Zm-.51-1.5v-1a.25.25 0 0 1-.2-.07l-.67.73-.67.74c.42.4.96.6 1.54.6v-1Zm-.87-.34.68-.73a.25.25 0 0 1-.04-.04v-.05h-2c0 .62.24 1.15.69 1.56l.67-.74Zm-.37-.82h1v-.03l.01-.02.04-.03-.68-.74-.67-.74c-.45.41-.7.95-.7 1.56h1Zm.37-.82.68.74c.06-.05.1-.07.19-.07v-2c-.58 0-1.11.2-1.55.6l.68.73Zm.87-.33v1c.08 0 .12.02.17.06l.69-.73.68-.73c-.43-.4-.96-.6-1.54-.6v1Zm.86.33-.68.74.03.03.01.01v.04h2c0-.6-.24-1.15-.69-1.55l-.67.73Zm.36.82h-1v.05l-.04.04.68.73.67.74c.45-.4.7-.94.7-1.56h-1Zm-.36.82-.69-.73c-.05.05-.09.07-.17.07v2c.58 0 1.11-.2 1.54-.6l-.68-.74Zm-.2 6.07h-1l.03 1.45 1-.02 1-.03a63.8 63.8 0 0 1-.03-1.4h-1Zm.03 1.43-1 .03.03 1.4h2l-.04-1.47-1 .04Zm.03 1.43h-1v.03l.7.72.69.71a2 2 0 0 0 .6-1.46h-1Zm-.3.75-.7-.73-.08.01v2c.53 0 1.05-.17 1.46-.56l-.69-.72Zm-.78.28v-1H120v-.01l-.7.73-.68.72c.4.4.92.56 1.46.56v-1Zm-.77-.28.7-.72H120v-.03h-2a2 2 0 0 0 .6 1.46l.7-.71Zm-.31-.75h1l-.03-1.47-1 .04-1 .03.03 1.4h1Zm-.03-1.43 1-.03-.03-1.4h-2l.03 1.45 1-.02Zm-.03-1.43h1c0-.43.03-.99.08-1.67l-1-.08-1-.07a25.2 25.2 0 0 0-.08 1.82h1Zm.08-1.75 1 .08c.05-.71.08-1.32.08-1.82h-2c0 .43-.02.99-.07 1.67l1 .07Zm.08-1.74h1v-.03.01l-.7-.72-.68-.73c-.42.4-.62.92-.62 1.47h1Zm.3-.74.7.72.01-.01h.07v-2c-.54 0-1.06.17-1.47.57l.7.72Zm.78-.3v1a.2.2 0 0 1 .07.01l.7-.71.7-.72c-.4-.4-.93-.58-1.47-.58v1Zm.77.3-.69.72v-.01.03h2c0-.55-.2-1.07-.62-1.47l-.69.73Zm.3.74h-1c0 .43-.02.99-.07 1.67l1 .07 1 .08c.05-.71.08-1.32.08-1.82h-1Zm-.07 1.74-1-.07c-.05.71-.08 1.32-.08 1.82h2c0-.43.03-.99.08-1.67l-1-.08Zm2.57-1.24-.8-.6.8.6Zm5.38-1.08.44-.9-.44.9Zm.21 3.32-.56-.82.56.82Zm-1.75.9.4.9-.4-.9Zm-2.64 1.16-.4-.92-1.28.57.95 1.03.73-.68Zm3.9.38-.5-.86.5.86Zm.55 1.86.4.92-.4-.92Zm-4.6-4.23-.95-.3-.68 2.1 2.02-.88-.4-.92Zm1.76-.75.39.92.02-.01-.41-.91Zm1.67-.89.55.84 1.38-.9-1.43-.8-.5.86Zm-1.15 6.34v-1a3.97 3.97 0 0 1-2.46-.7l-.6.8-.6.8c1 .76 2.25 1.1 3.66 1.1v-1Zm-3.06-.9.6-.8c-.6-.44-.9-1.05-.9-1.96h-2c0 1.47.55 2.7 1.7 3.57l.6-.8Zm-1.3-2.76h1c0-1.14.28-2.03.83-2.74l-.8-.6-.8-.61a6.36 6.36 0 0 0-1.24 3.95h1Zm1.03-3.35.8.6a2.72 2.72 0 0 1 2.32-1.11v-2c-1.61 0-2.95.64-3.92 1.9l.8.61Zm3.12-1.51v1c.8 0 1.4.13 1.82.33l.44-.9.43-.9a6.13 6.13 0 0 0-2.7-.53v1Zm2.25.43-.44.9c.27.13.41.27.5.39.07.12.13.27.13.51h2a2.89 2.89 0 0 0-1.75-2.7l-.44.9Zm1.19 1.8h-1c0 .13-.06.37-.53.7l.56.82.57.83c.8-.56 1.4-1.34 1.4-2.35h-1Zm-.97 1.52-.57-.82c-.2.14-.7.4-1.59.8l.4.91.41.92a13.1 13.1 0 0 0 1.92-.99l-.57-.82Zm-1.75.9-.4-.92-2.64 1.16.4.92.4.91L128 21.4l-.4-.92Zm-2.64 1.16-.73.68c.36.38.79.67 1.28.86l.36-.93.36-.94c-.22-.08-.39-.2-.53-.35l-.74.68Zm.9.6-.35.94a4.4 4.4 0 0 0 1.58.27v-2a2.4 2.4 0 0 1-.86-.14l-.36.94Zm1.23.21v1c.83 0 1.6-.17 2.28-.57l-.5-.86-.52-.86c-.3.18-.7.3-1.26.3v1Zm1.77-.43.51.86c.18-.1.32-.17.42-.2.1-.05.14-.04.11-.04v-2c-.54 0-1.08.24-1.55.52l.51.86Zm1.04-.38v1c.13 0 .03.03-.09-.09a.38.38 0 0 1-.1-.14v.02h2c0-.43-.1-.93-.5-1.31a1.83 1.83 0 0 0-1.3-.48v1Zm.81.79h-1c0 .02 0 .06-.07.14-.08.1-.27.24-.63.4l.4.91.4.92c.99-.43 1.9-1.17 1.9-2.37h-1Zm-1.3 1.45-.4-.92c-.6.26-1.23.39-1.92.39v2c.95 0 1.86-.18 2.71-.55l-.4-.92Zm-2.53-6.16v-1c-.73 0-1.4.25-1.93.75l.69.73.68.73a.75.75 0 0 1 .56-.21v-1Zm-1.25.48-.68-.73c-.5.48-.86 1.14-1.1 1.88l.96.3.95.31c.18-.55.38-.86.56-1.03l-.69-.73Zm-.82 1.45.4.92 1.75-.75-.4-.92-.39-.92-1.76.76.4.91Zm1.76-.75.4.9a13.8 13.8 0 0 0 1.82-.95l-.55-.84-.54-.84c-.36.24-.87.5-1.55.82l.42.9Zm1.67-.89.5-.87a3.74 3.74 0 0 0-1.86-.42v2c.45 0 .72.08.87.16l.5-.87Zm18.23-3.47-.07 1 .07-1Zm-1.9-.08v-1l-1.03.01.03 1.02 1-.03Zm.21 3.17-1 .08 1-.08Zm.03 5.82-.89-.47.89.47Zm-1.68.33.64-.77-.63.77Zm-.32-1.1.98.18-.98-.17Zm-.02-1.42-1 .06v.01l1-.07Zm-.21-3.93-1 .09 1-.1Zm-.22-2.84 1-.04-.04-.96h-.96v1Zm-3.17-.25.24-.97-.24.97Zm-.59-1.74.75.66.01-.01-.76-.65Zm.86-.35-.07 1h.02l.05-1Zm1.25.14-.13.99h.02l.1-1Zm2.67.07-.02-1 .02 1Zm3.2.07-.06 1 .07-1Zm2.57.38-.7.72h.01l.7-.72Zm0 1.5.7.72-.7-.71Zm-.78.31v-1c-.37 0-.98-.02-1.83-.08l-.07 1-.07 1c.87.05 1.53.08 1.97.08v-1Zm-1.9-.08.07-1a26.2 26.2 0 0 0-1.98-.08l.01 1 .01 1c.4 0 1 .02 1.82.07l.07-1Zm-1.9-.08-1 .03c.03.62.1 1.7.22 3.22l1-.08.99-.08a84.88 84.88 0 0 1-.2-3.13l-1 .04Zm.21 3.17-1 .08c.11 1.33.17 2.37.17 3.1h2c0-.81-.06-1.9-.17-3.26l-1 .08Zm.17 3.19h-1c0 .23.02.53.06.9l1-.11.99-.1a7.28 7.28 0 0 1-.05-.7h-1Zm.05.79-1 .1c.04.34.06.56.06.69h2c0-.23-.03-.54-.06-.9l-1 .1Zm.06.79h-1c0 .24-.05.43-.14.58l.89.47.88.47c.25-.47.37-.99.37-1.52h-1Zm-.25 1.05-.89-.47c-.04.09-.07.1-.05.09l.03-.02v2a2 2 0 0 0 1.79-1.13l-.88-.47Zm-.92.6v-1a.16.16 0 0 1-.12-.04l-.63.77-.64.77c.4.33.87.5 1.4.5v-1Zm-.75-.27.63-.77a.1.1 0 0 1-.01-.02v.03h-2c0 .61.27 1.14.74 1.53l.63-.77Zm-.37-.77h1V23l.02-.13-.98-.17-.99-.18c-.03.16-.05.34-.05.5h1Zm.04-.32.98.17c.03-.17.06-.35.06-.52h-2v.03l-.03.15.99.17Zm.04-.35h1c0-.28-.03-.67-.06-1.16l-1 .08-1 .07c.04.48.06.81.06 1.01h1Zm-.06-1.08 1-.07c-.03-.48-.05-.82-.05-1.03h-2c0 .28.02.67.05 1.16l1-.06Zm-.05-1.1h1c0-.74-.05-1.72-.16-2.93l-1 .1-1 .09c.11 1.18.16 2.09.16 2.74h1Zm-.16-2.83 1-.1c-.13-1.37-.2-2.29-.22-2.78l-1 .04-1 .04c.02.55.1 1.52.22 2.89l1-.1Zm-.22-2.84v-1h-.4v2h.4v-1Zm-.4 0v-1a11.2 11.2 0 0 1-2.53-.22l-.24.97-.24.97c.8.2 1.8.28 3 .28v-1Zm-2.77-.25.24-.97c-.16-.04-.16-.07-.13-.04l.03.04v-.05h-2c0 .45.12.92.45 1.3.32.38.75.59 1.17.7l.24-.98Zm-.87-1.02h1v-.02l.03-.04-.75-.66-.75-.66c-.33.38-.53.85-.53 1.38h1Zm.28-.72.76.65.01-.01h-.02v.01h.04l.07-1 .08-1a1.97 1.97 0 0 0-1.7.7l.76.65Zm.86-.35-.05 1 1.17.13.13-1 .12-.99a26.7 26.7 0 0 0-1.31-.13l-.06 1Zm1.25.14-.11 1c.53.05.98.08 1.35.08v-2c-.26 0-.64-.02-1.13-.08l-.12 1Zm1.25.08v1l1.43-.01-.01-1-.02-1-1.4.01v1Zm1.42-.01.01 1 1.42-.02v-2c-.33 0-.81 0-1.45.02l.02 1Zm1.43-.02v1c.35 0 .92.03 1.7.08l.08-1 .07-.99c-.8-.06-1.42-.09-1.85-.09v1Zm1.78.09-.07 1c.8.05 1.42.08 1.85.08v-2c-.36 0-.93-.03-1.72-.08l-.06 1Zm1.78.08v1h.07l.01.02.7-.72.7-.72c-.41-.4-.93-.58-1.48-.58v1Zm.78.3-.69.72.01.02v-.01.02h2a2 2 0 0 0-.63-1.47l-.69.72Zm.32.75h-1v.02l-.02.02.7.72.7.71c.4-.4.62-.9.62-1.47h-1Zm-.32.76-.7-.72-.01.01-.07.01v2c.55 0 1.07-.19 1.48-.59l-.7-.71Zm11.02 2.79.97.26-.97-.26Zm-1.64 5.56.94.32-.94-.32Zm-.77 1.45.8.58h.01l-.81-.59Zm-1 .5-.02 1 .02-1Zm-1.55-1.9-.96.29.96-.29Zm-.5-2.68 1-.14-.49-3.25-1.4 2.96.9.43Zm-.2.47.92.38.02-.03v-.04l-.94-.31Zm-1.19 3-.93-.35v.02l.93.33Zm-.35.53-.64-.77-.12.1-.09.14.85.53Zm-.98.54-.03-1 .03 1Zm-.77-.65.86-.52-.01-.02-.85.54Zm-.7-1.75.98-.24-.97.24Zm-.74-4.22-1 .15 1-.15Zm.2-1.81.67.75-.66-.75Zm1.83.54.97-.22-.97.22Zm.17 1.08 1-.1-1 .1Zm.12 1.09-1 .14v.01l.01.01.99-.16Zm.3 1.99-.98.15 1.93.2-.94-.35Zm1.34-3.95.95.3-.95-.3Zm2.34.12-.97.24.97-.24Zm.41 2.07-.98.17.98-.17Zm.4 2.2-.99.2 1.95.08-.97-.28Zm1.22-4.75.97.25-.97-.25Zm1.76-.38-.65.76.65-.76Zm.3.95-.96-.26a99.46 99.46 0 0 1-1.63 5.5l.95.32.94.31c.56-1.68 1.12-3.56 1.67-5.61l-.97-.26Zm-1.64 5.56-.95-.32a4.5 4.5 0 0 1-.63 1.18l.81.59.81.58c.4-.56.71-1.13.9-1.71l-.94-.32Zm-.77 1.45-.8-.6a.26.26 0 0 1-.09.09l-.1.01-.01 1-.01 1c.75.01 1.38-.32 1.82-.92l-.81-.59Zm-1 .5.02-1a.47.47 0 0 1-.12-.11c-.14-.17-.32-.5-.49-1.07l-.96.28-.95.3c.2.68.47 1.3.85 1.75.4.49.94.84 1.63.85l.02-1Zm-1.55-1.9.96-.28c-.12-.4-.27-1.23-.47-2.54l-.99.14-.99.15c.2 1.3.37 2.26.53 2.82l.96-.29Zm-.5-2.68-.9-.43c-.1.22-.2.43-.25.58l.95.32.95.31.04-.08c.02-.07.06-.16.12-.26l-.9-.44Zm-.2.47-.92-.4c-.28.67-.68 1.68-1.2 3.05l.93.35.94.36c.52-1.36.9-2.35 1.17-2.98l-.92-.38Zm-1.19 3-.94-.33-.05.09.64.77.64.77c.31-.27.53-.6.65-.96l-.94-.34Zm-.35.53-.85-.53-.05.05s-.03.02-.11.02l.03 1 .04 1a2.13 2.13 0 0 0 1.79-1.01l-.85-.53Zm-.98.54-.04-1c.1 0 .18.02.24.04l.07.05-.06-.07a1.7 1.7 0 0 1-.12-.19l-.86.52-.86.51c.17.28.37.54.61.75.25.21.61.41 1.07.4l-.05-1Zm-.77-.65.85-.54a5 5 0 0 1-.57-1.45l-.97.24-.98.24c.2.78.47 1.47.83 2.04l.84-.53Zm-.7-1.75.98-.25c-.15-.59-.4-1.95-.74-4.13l-.98.16-1 .15c.34 2.16.6 3.61.77 4.31l.98-.24Zm-.74-4.22.98-.15c-.07-.46-.1-.76-.1-.95h-2c0 .34.05.77.13 1.25l.99-.15Zm-.11-1.1h1c0-.01 0-.01 0 0l-.01.02-.02.02-.65-.75-.66-.76c-.44.38-.66.9-.66 1.47h1Zm.32-.71.66.75c.03-.03.05-.04.12-.04v-2c-.54 0-1.04.18-1.44.54l.66.75Zm.78-.3v1c.06 0 .08.01.09.02l-.04-.02-.02-.03.03.1.98-.23.97-.22c-.1-.44-.31-.87-.7-1.18-.4-.32-.86-.43-1.31-.43v1Zm1.04.84-.98.23c.06.24.11.56.16.96l.99-.1 1-.12a10.4 10.4 0 0 0-.2-1.2l-.97.23Zm.17 1.08-1 .1c.06.6.1 1 .13 1.13l.99-.14.99-.14-.12-1.05-1 .1Zm.12 1.09-.99.16.31 1.98.99-.15.99-.15-.32-2-.98.16Zm.3 1.99.95.34c.39-1.07.84-2.4 1.34-3.98l-.95-.3-.96-.3c-.5 1.56-.93 2.86-1.31 3.9l.94.34Zm1.34-3.95.95.3c.07-.21.14-.28.15-.3h.02l.08-.01v-2c-.5 0-.99.15-1.39.49-.38.33-.62.77-.77 1.22l.96.3Zm1.2-1.01v1h.03-.02c.02 0 .1.1.16.37l.97-.24.97-.23a2.73 2.73 0 0 0-.69-1.33c-.39-.39-.89-.57-1.42-.57v1Zm1.14 1.13-.97.24c.12.5.25 1.16.4 2l.98-.17.99-.17c-.15-.86-.29-1.57-.43-2.14l-.97.24Zm.41 2.07-.98.17c.21 1.23.34 1.98.4 2.23l.97-.2.99-.2c-.05-.21-.18-.93-.39-2.17l-.99.17Zm.4 2.2.96.28 1.23-4.78-.97-.25-.97-.24-.88 3.44-.24.91-.07.26-.02.08v.02l.96.28Zm1.22-4.75.97.25c0-.02 0-.01 0 0a.25.25 0 0 1-.07.07l-.03.02h.1v-2c-.4 0-.83.08-1.2.34-.4.27-.63.66-.74 1.08l.97.24Zm.98-.67v1c.06 0 .09.01.13.05l.65-.76.65-.76c-.4-.35-.9-.53-1.43-.53v1Zm.78.3-.64.76s0 .01 0 0v-.01a.1.1 0 0 1-.01-.03c0-.01 0-.01 0 0h2c0-.6-.26-1.12-.7-1.5l-.65.77Zm.34.71h-1V16.82v.04l.96.26.97.25c.03-.12.07-.3.07-.48h-1Zm1.66 6.58.69-.72-.7.72Zm-1.2-2.9 1-.03-1 .03Zm.95-3.08-.8-.6.8.6Zm5.79-.34.8-.6-.8.6Zm-.14 5.88.8.6-.8-.6Zm-2.45-5.07v1-1Zm-1.51.88.84.53-.84-.53Zm.06 3.17.69-.73-.7.73Zm2.16-.06.68.73h.01l-.69-.73Zm.61-1.47 1 .05-1-.05Zm-1.79 3.98v-1c-.7 0-1.28-.23-1.79-.71l-.7.72-.68.72a4.47 4.47 0 0 0 3.17 1.27v-1Zm-2.48-1 .69-.72a3 3 0 0 1-.89-2.2l-1 .03-1 .03a4.99 4.99 0 0 0 1.51 3.6l.69-.73Zm-1.2-2.89 1-.03c-.03-.93.22-1.74.75-2.45l-.8-.6-.8-.6a5.77 5.77 0 0 0-1.15 3.71l1-.03Zm.95-3.08.8.6a2.9 2.9 0 0 1 2.5-1.2v-2c-1.7 0-3.1.67-4.1 2l.8.6Zm3.3-1.6v1c.73 0 1.26.28 1.68.85l.8-.6.81-.59a3.93 3.93 0 0 0-3.29-1.65v1Zm2.49 1.26-.8.6c.4.54.63 1.25.63 2.19h2c0-1.28-.32-2.43-1.03-3.38l-.8.59Zm.83 2.79h-1c0 1.02-.27 1.83-.77 2.49l.8.6.8.6a5.98 5.98 0 0 0 1.17-3.7h-1Zm-.97 3.1-.8-.61c-.53.7-1.2 1.03-2.12 1.03v2c1.53 0 2.8-.62 3.71-1.82l-.8-.6Zm-2.45-5.08.01-1c-1.02 0-1.83.5-2.37 1.34l.85.54.84.53c.2-.33.4-.41.66-.4l.01-1Zm-1.51.88-.85-.54a4.18 4.18 0 0 0-.62 2.27h2c0-.5.11-.89.31-1.2l-.84-.53Zm-.47 1.73h-1c0 .82.24 1.6.84 2.17l.69-.73.68-.73c-.1-.1-.21-.28-.21-.71h-1Zm.53 1.44-.69.72c.46.44 1.04.68 1.67.68v-2a.4.4 0 0 1-.3-.13l-.68.73Zm.98.4v1c.7 0 1.34-.25 1.86-.73l-.68-.73-.67-.74c-.15.14-.3.2-.5.2v1Zm1.18-.46.69.72c.6-.57.89-1.32.92-2.14l-1-.05-1-.04c-.01.4-.13.63-.3.78l.7.73Zm.61-1.47 1 .04c.04-.9-.05-1.73-.39-2.39a2.17 2.17 0 0 0-.8-.86c-.34-.22-.73-.3-1.12-.3v1l-.01 1a.35.35 0 0 1 .1 0l.01.02a.3.3 0 0 1 .05.07c.1.19.2.6.16 1.38l1 .04Zm6.06-7.85-.69.73.01.01.68-.74Zm0 1.64-.68-.73.68.73Zm-.17 7.5-1 .02 1-.02Zm-.28 2.18.7.72-.7-.72Zm-1.55 0-.7.71.02.01.69-.72Zm-.33-2.18-1 .02 1-.02Zm.44-5.66.69.72-.7-.72Zm1.54 0-.7.72h.02l.68-.72Zm-.51-1.5v-1a.25.25 0 0 1-.2-.07l-.67.73-.67.74c.43.4.96.6 1.54.6v-1Zm-.87-.34.68-.73a.25.25 0 0 1-.03-.04h-.01v-.05h-2c0 .62.24 1.15.69 1.56l.67-.74Zm-.37-.82h1v-.03l.01-.02.04-.03-.68-.74-.67-.74c-.45.41-.7.95-.7 1.56h1Zm.37-.82.68.74c.06-.05.1-.07.19-.07v-2c-.58 0-1.11.2-1.54.6l.67.73Zm.87-.33v1c.08 0 .12.02.17.06l.69-.73.68-.73c-.43-.4-.96-.6-1.54-.6v1Zm.86.33-.68.74.03.03.01.01v.04h2c0-.6-.24-1.15-.69-1.55l-.67.73Zm.37.82h-1v.04h-.01v.01l-.04.04.68.73.67.74c.45-.4.7-.94.7-1.56h-1Zm-.37.82-.69-.73c-.05.05-.09.07-.17.07v2c.58 0 1.11-.2 1.54-.6l-.68-.74Zm-.2 6.07h-1l.03 1.45 1-.02 1-.03-.03-1.4h-1Zm.03 1.43-1 .03.03 1.4h2c0-.32-.01-.8-.04-1.47l-1 .04Zm.03 1.43h-1v.03l.7.72.69.71a2 2 0 0 0 .6-1.46h-1Zm-.3.75-.7-.73-.08.01v2c.53 0 1.05-.17 1.46-.56l-.69-.72Zm-.78.28v-1h-.08v-.01l-.7.73-.68.72c.4.4.92.56 1.46.56v-1Zm-.78-.28.7-.72v-.03h-2a2 2 0 0 0 .6 1.46l.7-.71Zm-.3-.75h1l-.03-1.47-1 .04-1 .03.03 1.4h1Zm-.03-1.43 1-.03a63.8 63.8 0 0 1-.02-1.4h-2c0 .3 0 .8.02 1.45l1-.02Zm-.02-1.43h1c0-.43.02-.99.07-1.67l-1-.08-1-.07a25.2 25.2 0 0 0-.07 1.82h1Zm.07-1.75 1 .08c.05-.71.08-1.32.08-1.82h-2c0 .43-.02.99-.07 1.67l1 .07Zm.08-1.74h1v-.03.01l-.7-.72-.68-.73c-.42.4-.62.92-.62 1.47h1Zm.3-.74.7.72.01-.01h.07v-2c-.54 0-1.06.17-1.47.57l.7.72Zm.78-.3v1l.07.01.7-.71.7-.72c-.4-.4-.93-.58-1.47-.58v1Zm.77.3-.69.72v-.01.03h2c0-.55-.2-1.07-.62-1.47l-.69.73Zm.3.74h-1c0 .43-.02.99-.07 1.67l1 .07 1 .08c.05-.71.08-1.32.08-1.82h-1Zm-.07 1.74-1-.07a25.2 25.2 0 0 0-.08 1.82h2c0-.43.03-.99.08-1.67l-1-.08Zm2.67 4.93-.64.76.64-.76Zm-.12-5.93.83.55-.83-.55Zm4.8-1.46.38-.92-.38.92Zm1.06 1.92-.75-.66.75.66Zm-1.54-.03-.62.78.02.01.6-.8Zm-2.72.8-.86-.5.86.5Zm-.08 3.27.62-.79-.62.79Zm4.45-.05-.72.7.72-.7Zm-1.03 1.91.42.91-.42-.9Zm-1.94.54v-1c-.94 0-1.66-.26-2.24-.74l-.64.77-.64.76a5.33 5.33 0 0 0 3.53 1.21v-1Zm-2.88-.97.65-.77a2.38 2.38 0 0 1-.87-1.95h-2c0 1.4.52 2.6 1.58 3.48l.64-.76Zm-1.22-2.72h1c0-.8.27-1.67.93-2.66l-.83-.55-.84-.56a6.8 6.8 0 0 0-1.26 3.77h1Zm1.1-3.21.83.55c.73-1.1 1.42-1.44 2.07-1.44v-2c-1.55 0-2.8.9-3.74 2.33l.84.56Zm2.9-1.9v1c.37 0 .88.1 1.53.37l.37-.93.38-.92a6.18 6.18 0 0 0-2.28-.51v1Zm1.9.44-.38.93c.39.16.6.3.69.38.08.08.01.05.01-.07h2a1.9 1.9 0 0 0-.64-1.39 4.2 4.2 0 0 0-1.3-.77l-.38.92Zm1.32 1.25h-1v-.01.02l.74.66.74.67c.34-.37.52-.83.52-1.34h-1Zm-.26.67-.75-.66a.13.13 0 0 1 .04-.02h-.02v2c.57 0 1.1-.21 1.48-.66l-.75-.66Zm-.73.32v-1c.06 0 .08.02.03 0a1.33 1.33 0 0 1-.24-.15l-.6.8-.6.8c.37.27.86.55 1.41.55v-1Zm-.81-.35.61-.8a3.24 3.24 0 0 0-2.03-.57v2c.53 0 .74.1.8.15l.62-.78Zm-1.42-.37v-1c-.54 0-.98.26-1.3.55-.31.3-.6.68-.86 1.12l.86.5.86.52c.2-.35.37-.55.49-.65.11-.11.1-.04-.05-.04v-1Zm-1.3 1.18-.86-.5a5.02 5.02 0 0 0-.81 2.47h2c0-.3.12-.77.53-1.46l-.86-.51Zm-.67 1.97h-1c0 .82.31 1.55.97 2.07l.62-.78.62-.79c-.13-.1-.21-.23-.21-.5h-1Zm.6 1.29-.63.78c.6.47 1.33.66 2.1.66v-2c-.45 0-.7-.1-.86-.23l-.62.79Zm1.47.44v1c.59 0 1.18-.21 1.75-.51l-.46-.89-.47-.88a2 2 0 0 1-.81.28v1Zm1.29-.4.46.89a6.95 6.95 0 0 1 .64-.3l-.14.01v-2c-.3 0-.58.12-.73.18-.2.08-.43.2-.7.34l.47.88Zm.96-.4v1s.01 0 0 0h-.01.01l.72-.7.71-.69c-.38-.4-.88-.6-1.43-.6v1Zm.72.3-.71.72.02.02v-.03h2c0-.56-.24-1.04-.6-1.4l-.71.7Zm.3.7h-1c0-.18.1-.23 0-.12-.12.1-.34.25-.74.43l.41.91.42.91c.49-.22.92-.48 1.26-.78.32-.3.65-.75.65-1.35h-1Zm-1.33 1.22-.41-.9c-.75.33-1.24.44-1.53.44v2c.72 0 1.52-.25 2.36-.63l-.42-.9Zm5.01-7.1h-1v2.4l1.7-1.69-.7-.7Zm1.22-.83.39.92-.4-.92Zm3.32.46.79-.61-.8.61Zm.53 1.73 1-.04v-.04l-1 .08Zm.09 1.93-1 .05v.05l1-.1Zm.15 1.53-1 .12h.01l1-.12Zm.27 1.52.97-.23-.97.23Zm-.3 1-.64-.76h-.01v.02l.65.75Zm-1.8-.49-.95.29.96-.29Zm-.34-1.78-1 .13h.01l1-.13Zm-.12-2.4-1-.06v.02l1 .04Zm0-1.26-.98.16.98-.16Zm-1.97.36.74.67-.74-.66Zm-.99 1.52-.87-.49-.13.23v.26h1Zm-.27 3.4.9.44-.9-.43Zm-1.75.36-.66.75.02.01.64-.76Zm-.25-1.14.95.3-.95-.3Zm.1-2.11 1 .02v-.05l-1 .03Zm0-5.23-.99-.06v.05l1 .01Zm.02-.26 1 .06-1-.06Zm-.03-1.94-.99.14v.02l1-.16Zm.25-1.45.66.75h.01l-.67-.75Zm1.82.54.95-.3-.95.3Zm.1 3.03 1 .06-1-.06Zm-.05 1.51.7.71c.3-.3.6-.5.9-.62l-.38-.92-.39-.93c-.56.24-1.07.6-1.53 1.05l.7.71Zm1.22-.83.4.91c.3-.13.63-.2 1-.2v-2c-.63 0-1.23.12-1.8.37l.4.92Zm1.4-.29v1c.71 0 1 .2 1.13.37l.79-.62.79-.61c-.65-.83-1.65-1.14-2.71-1.14v1Zm1.92.75-.79.62c.12.15.27.5.32 1.2l1-.09 1-.08a4.2 4.2 0 0 0-.74-2.26l-.8.61Zm.53 1.73-1 .04.09 1.94 1-.05 1-.05-.09-1.92-1 .04Zm.09 1.93-1 .1.16 1.55 1-.12.99-.11-.16-1.52-1 .1Zm.15 1.53-.99.13a15 15 0 0 0 .29 1.62l.97-.23.97-.24c-.1-.38-.18-.85-.25-1.4l-.99.12Zm.27 1.52-.97.23v.06h2c0-.19-.02-.36-.06-.52l-.97.23Zm.04.29h-1v-.03l.02-.02.64.77.64.76c.45-.38.7-.9.7-1.48h-1Zm-.34.72-.66-.75c-.03.02-.05.03-.11.03v2c.53 0 1.03-.18 1.43-.53l-.66-.75Zm-.77.28v-1H189l.03.01.01.02a.4.4 0 0 1-.04-.1l-.95.3-.96.28c.12.4.34.8.72 1.1.38.29.83.4 1.26.4v-1Zm-1.03-.78.96-.28c-.1-.35-.2-.89-.3-1.63l-1 .13-.99.14c.1.78.23 1.43.38 1.93l.96-.29Zm-.34-1.78 1-.12c-.1-.72-.14-1.28-.14-1.7h-2c0 .54.05 1.2.15 1.95l1-.13Zm-.14-1.81h1c0-.11 0-.29.02-.55l-1-.04-1-.04-.02.63h1Zm.02-.59 1 .06.02-.65h-2c0 .1 0 .27-.02.53l1 .06Zm.02-.59h1a21.07 21.07 0 0 0-.03-.84l-.99.17-.98.16v-.03.54h1Zm-.02-.67 1-.16a1.6 1.6 0 0 0-.4-.85c-.29-.3-.66-.42-1-.42v2a.67.67 0 0 1-.46-.2c-.12-.13-.13-.24-.12-.21l.98-.16Zm-.4-.43v-1c-.93 0-1.71.44-2.32 1.13l.75.66.75.67c.32-.37.59-.46.82-.46v-1Zm-1.57.8-.75-.67c-.32.35-.7.95-1.11 1.7l.87.48.88.49c.41-.75.7-1.16.85-1.34l-.74-.66Zm-.99 1.51h-1a29.01 29.01 0 0 1-.13 2.8c-.03.16-.06.2-.04.18l.9.43.9.42c.18-.38.26-.93.3-1.48.05-.61.07-1.4.07-2.35h-1Zm-.27 3.4-.9-.42a.37.37 0 0 1-.05.07c0 .01 0 0 0 0h.02-.04v2a2.01 2.01 0 0 0 1.87-1.21l-.9-.43Zm-.97.65v-1c-.05 0-.08-.01-.14-.06l-.64.77-.64.76c.4.34.89.53 1.42.53v-1Zm-.78-.3.66-.74-.01-.02v.02l.01.02h-2c0 .59.25 1.1.68 1.48l.66-.75Zm-.34-.72h1v.04-.01l.04-.13-.95-.31-.95-.31c-.07.2-.14.46-.14.72h1Zm.09-.41.95.3c.05-.16.07-.34.07-.42l.03-.45c.02-.36.03-.87.04-1.52l-1-.02-1-.02a66.14 66.14 0 0 1-.06 1.85v.07l.02-.1.95.3Zm.1-2.11 1-.03c-.03-1.02-.03-2.75 0-5.18l-1-.02-1-.01c-.03 2.43-.03 4.2 0 5.26l1-.02Zm0-5.23 1 .06.02-.26-1-.06-1-.06v.26l.99.06Zm.02-.26 1 .05.05-1.28h-2l-.04 1.18 1 .05Zm.05-1.23h1c0-.25-.04-.55-.09-.88l-.99.17-.98.16c.05.3.06.47.06.55h1Zm-.08-.71 1-.15c-.05-.3-.07-.48-.07-.57h-2c0 .24.03.54.08.86l1-.14Zm-.07-.72h1v-.02.02l-.01.02s-.01 0 0 0l-.67-.75-.66-.75c-.44.39-.66.91-.66 1.48h1Zm.32-.73.67.75a.1.1 0 0 1 .04-.03h.07v-2c-.54 0-1.04.17-1.45.54l.67.74Zm.78-.29v1h.05-.03c-.02-.02.02 0 .06.14l.96-.3.95-.31a2 2 0 0 0-2-1.52v1Zm1.04.83-.96.3c.05.17.1.52.1 1.14h2c0-.67-.04-1.28-.2-1.74l-.94.3Zm.14 1.44h-1c0 .5-.01 1.01-.04 1.53l1 .06 1 .05c.03-.55.04-1.1.04-1.64h-1Zm-.04 1.59-1-.07c-.03.54-.05 1.06-.05 1.58h2c0-.48.02-.96.05-1.45l-1-.06Zm15.22 7.8-.63.78.63-.77Zm-.07-8.52.8.61-.8-.6Zm8.62 7.36-.81-.57.81.57Zm-6.9-6.01.8.6-.8-.6Zm-.15 5.6.62-.77-.62.78Zm5.3-.9-.82-.56.83.56Zm.33-5.78.66-.75-.66.75Zm-3.19 9.59v-1a5.02 5.02 0 0 1-3.3-1.1l-.64.77-.63.77a7.02 7.02 0 0 0 4.57 1.56v-1Zm-3.94-1.33.64-.77a3.54 3.54 0 0 1-1.37-2.91h-2c0 1.8.71 3.31 2.1 4.45l.63-.77Zm-1.73-3.68h1c0-1.55.48-2.95 1.46-4.24l-.8-.6-.8-.61a8.81 8.81 0 0 0-1.86 5.45h1Zm1.66-4.84.8.6a4.69 4.69 0 0 1 3.9-2.07v-2c-2.23 0-4.08 1-5.5 2.86l.8.6Zm4.7-2.47v1c1.7 0 2.77.4 3.42.99l.67-.74.68-.73c-1.16-1.07-2.81-1.52-4.76-1.52v1Zm4.1 1.25-.68.74c.63.58 1.03 1.53 1.03 3.02h2c0-1.85-.5-3.4-1.68-4.5l-.68.74Zm1.35 3.76h-1c0 1.57-.44 2.97-1.34 4.24l.81.57.82.58a9.12 9.12 0 0 0 1.71-5.39h-1Zm-1.53 4.81-.81-.57a4.42 4.42 0 0 1-3.8 2.07v2a6.4 6.4 0 0 0 5.43-2.92l-.82-.58Zm-3.91-7.7v-1c-1.55 0-2.82.77-3.8 2.1l.81.59.8.6c.69-.94 1.4-1.29 2.19-1.29v-1Zm-2.99 1.69-.8-.6a6.76 6.76 0 0 0-1.36 4.1h2c0-1.06.31-2.02.97-2.9l-.8-.6Zm-1.16 3.5h-1c0 1.17.47 2.15 1.38 2.89l.63-.78.62-.78a1.59 1.59 0 0 1-.63-1.33h-1Zm1 2.1-.62.79c.85.69 1.9 1 3.07 1v-2c-.8 0-1.38-.2-1.82-.56l-.62.78Zm2.45.79v1c1.54 0 2.78-.79 3.7-2.13l-.83-.56-.83-.56c-.62.91-1.29 1.25-2.04 1.25v1Zm2.87-1.69.82.57a7.04 7.04 0 0 0 1.23-4.07h-2c0 1.12-.3 2.09-.88 2.94l.83.56Zm1.05-3.5h1c0-1.2-.26-2.32-1.07-3.03l-.66.75-.66.75c.16.14.4.54.4 1.53h1Zm-.73-2.28.65-.76c-.75-.65-1.9-.85-3.14-.85v2c1.14 0 1.65.21 1.83.37l.66-.76Zm9.97 1.26-.6.8 1.52 1.13.08-1.9-1-.03Zm.24-3.68-.99-.14.99.14Zm1.86 3.48-1-.08 1 .08Zm0 7.07.99-.18-.98.18Zm-.28.94.66.75-.66-.75Zm-1.59-.24.88-.48-.5-.92-.9.54.52.86Zm-1.1.48-.26-.97h-.02l.28.97Zm-4.09-.96-.7.72h.01l.7-.72Zm.01-6.3.74.68-.74-.67Zm4.8 1.67h1v-.24l-.12-.22-.89.46Zm-3.4-.3.76.65-.76-.66Zm2.42 3.9-.41-.91.4.91Zm.71-.5.63.78-.63-.78Zm.26-.24.73.68.29-.3-.02-.42-1 .04Zm.16-5.32 1 .04c.06-1.78.14-2.96.23-3.58l-.99-.14-1-.14c-.1.73-.17 2-.24 3.78l1 .04Zm.24-3.68.99.14.03-.12-.03.03a.2.2 0 0 1-.05.03h.07v-2c-.46 0-.96.12-1.36.49-.4.35-.58.83-.64 1.29l.99.14Zm1.01-.92v1h.05a.08.08 0 0 1-.03-.02l.73-.69.72-.68c-.4-.43-.92-.61-1.47-.61v1Zm.75.3-.73.68s0 .01 0 0v.04h2c0-.53-.17-1.02-.55-1.41l-.72.68Zm.28.72h-1c0 .71-.06 1.8-.18 3.3l1 .08 1 .08c.12-1.5.18-2.66.18-3.46h-1Zm-.18 3.38-1-.08c-.11 1.5-.17 2.66-.17 3.45h2c0-.72.05-1.8.17-3.3l-1-.07Zm-.17 3.37h-1c0 1.83.05 3.16.2 3.9l.98-.2.98-.18c-.1-.52-.16-1.66-.16-3.52h-1Zm.18 3.7-.99.19.01.04h2c0-.14-.02-.28-.04-.41l-.98.18Zm.02.23h-1v.01-.02l.02-.02.67.74.67.74c.42-.38.64-.89.64-1.45h-1Zm-.31.71-.66-.75-.03.02h-.04v2c.52 0 1-.18 1.39-.52l-.66-.75Zm-.73.27v-1h-.02.01l.02.02.02.01-.01-.02-.88.48-.88.48c.17.3.4.57.72.76.32.2.68.27 1.02.27v-1Zm-.86-.51-.51-.86c-.28.17-.57.3-.85.37l.26.97.27.96c.47-.13.92-.33 1.35-.58l-.52-.86Zm-1.1.48-.28-.97c-.28.09-.58.13-.9.13v2c.5 0 .98-.07 1.46-.2l-.28-.96Zm-1.18.16v-1c-.93 0-1.64-.29-2.21-.84l-.7.72-.69.72c.97.94 2.2 1.4 3.6 1.4v-1Zm-2.9-1.12.69-.72a2.87 2.87 0 0 1-.88-2.18h-2c0 1.42.5 2.66 1.49 3.62l.7-.72Zm-1.19-2.9h1c0-1.2.34-2.08.93-2.72l-.74-.67-.73-.68a5.8 5.8 0 0 0-1.45 4.07h1Zm1.2-3.4.73.68a3.01 3.01 0 0 1 2.36-.97v-2a5 5 0 0 0-3.84 1.62l.74.68Zm3.1-1.3v1c.31 0 .57.04.78.1l.26-.97.26-.96a5 5 0 0 0-1.3-.16v1Zm1.04.13-.26.97c.2.05.35.13.46.21l.6-.8.6-.8a3.35 3.35 0 0 0-1.14-.54l-.26.96Zm.64 2.84.89-.46c-.25-.47-.6-.87-1.06-1.14l-.5.86-.5.87c.08.05.19.14.28.33l.9-.46Zm-.67-.73.5-.87a2.91 2.91 0 0 0-1.49-.38v2c.24 0 .39.05.48.1l.5-.86Zm-.99-.25v-1c-.96 0-1.86.3-2.49 1.02l.76.65.76.66c.14-.17.4-.33.97-.33v-1Zm-1.73.67-.75-.65c-.61.7-.83 1.64-.83 2.65h2c0-.77.17-1.15.34-1.34l-.76-.66Zm-.58 2h-1c0 .85.33 1.59.93 2.17l.7-.72.7-.72a.94.94 0 0 1-.33-.73h-1Zm.63 1.45-.7.72c.6.57 1.33.88 2.15.88v-2c-.28 0-.52-.09-.76-.32l-.7.72Zm1.45.6v1c.45 0 .93-.05 1.33-.23l-.41-.9-.42-.92-.12.03-.38.02v1Zm.92-.14.4.91c.28-.12.61-.37.94-.63l-.63-.78-.62-.78-.38.29-.12.08.4.91Zm.71-.5.64.77c.12-.1.24-.2.35-.33l-.73-.68-.73-.69-.16.16.63.77Zm.26-.24 1-.04v-2.81l-1-.01h-1a110 110 0 0 0 0 2.9l1-.04Zm6.04 2.83.2-.97-1.2-.26v1.23h1Zm0 3.2-1-.01h1Zm-2.15-2.92-1-.01h1Zm0-3.09 1-.01-1 .01Zm-.1-2.9-1 .07 1-.07Zm.16-2.65-.84-.54.84.54Zm1.94.48 1 .1v-.1h-1Zm0 .08-1-.1-.2 1.92 1.69-.95-.5-.87Zm1.04-.44.26.97h.01l-.27-.97Zm3.69 1.38.88-.48-.88.48Zm-.36 5.81-.76-.66.76.66Zm-3.27-5.02.41.92h.01l-.42-.92Zm-1.02.7-.67-.75-.36.32.03.48 1-.06Zm.1 3.22h-1v.72l.68.23.31-.95Zm2.62-.35-.8-.6.8.6Zm.3-2.85.97-.22-.97.22Zm-1.54 5.51v-1c-.37 0-.77-.04-1.2-.13l-.21.97-.2.98c.55.12 1.09.18 1.61.18v-1Zm-1.41-.16h-1v3.19h2v-3.18h-1Zm0 3.2h-1a.22.22 0 0 1-.01.03c0-.01 0 0 0 0l.7.71.7.72a2 2 0 0 0 .6-1.47h-1Zm-.31.74-.7-.71h-.08v2c.55 0 1.07-.17 1.48-.57l-.7-.72Zm-.78.3v-1a.2.2 0 0 1-.06 0l-.01-.01-.7.71-.7.72c.41.4.93.58 1.47.58v-1Zm-.77-.3.7-.71s0-.01 0 0v-.04h-2a2 2 0 0 0 .6 1.47l.7-.72Zm-.3-.75h1l.01-2.9-1-.01h-1l-.01 2.91h1Zm.01-2.91h1v-3.1l-1 .01-1 .02v3.06h1Zm0-3.09 1-.01a53.64 53.64 0 0 0-.11-2.96l-1 .07-1 .07c.06.78.1 1.73.11 2.85l1-.02Zm-.1-2.9.99-.07a199.8 199.8 0 0 0-.13-1.65v-.05a1 1 0 0 0-.14-.32c-.02-.03-.22-.37-.67-.45a1 1 0 0 0-1.14.72l-.03.17v.11h2v.03a.78.78 0 0 1-.04.22c0 .03-.04.15-.13.28a1 1 0 0 1-1 .44c-.46-.08-.66-.42-.68-.45a.98.98 0 0 1-.1-.19l-.03-.13v-.04l-.01-.03.02.26.09 1.22 1-.07Zm-.13-1.54h1c0-.28.07-.46.14-.58l-.85-.53-.84-.53c-.31.5-.44 1.05-.44 1.64h1Zm.3-1.11.84.54.05-.07h-.01.02v-2c-.75 0-1.36.38-1.75.99l.84.54Zm.9-.53v1h.03c-.01 0 0 0 0 0l.7-.7.71-.7a2 2 0 0 0-1.44-.6v1Zm.74.3-.71.7v.02-.02.01h2c0-.54-.2-1.03-.59-1.42l-.7.71Zm.3.71-1-.1-.01.08 1 .1.99.1v-.08l-.99-.1Zm-.02.08.5.87c.28-.16.55-.27.81-.34l-.26-.97-.26-.96c-.44.11-.86.3-1.28.53l.5.87Zm1.05-.44.27.97c.27-.08.53-.12.8-.12v-2c-.46 0-.9.07-1.34.19l.27.96Zm1.06-.15v1c.46 0 .8.1 1.06.25.25.15.49.39.69.76l.88-.48.88-.48a3.85 3.85 0 0 0-1.45-1.53 4.04 4.04 0 0 0-2.06-.52v1Zm2.63 1.53-.88.47c.3.57.5 1.39.5 2.5h2c0-1.32-.23-2.49-.74-3.45l-.88.48Zm.62 2.97h-1c0 .94-.27 1.64-.74 2.18l.76.66.75.66a5.17 5.17 0 0 0 1.23-3.5h-1Zm-.98 2.84-.76-.65c-.49.56-1.13.86-2.05.86v2c1.44 0 2.66-.5 3.57-1.56l-.76-.65ZM224.77 18v-1c-.49 0-.96.12-1.42.33l.42.9.42.91c.23-.1.42-.14.58-.14v-1Zm-1 .23-.4-.9c-.46.2-.88.49-1.29.85l.67.74.67.75c.28-.26.54-.42.76-.52l-.4-.92Zm-1.02.7-1 .05c.06 1.05.1 2.11.1 3.17h2c0-1.1-.04-2.2-.1-3.29l-1 .06Zm.1 3.22-.32.95c.56.18 1.13.27 1.7.27v-2c-.35 0-.7-.05-1.08-.17l-.3.95Zm1.38.23v1c.8 0 1.54-.3 2.04-.97l-.8-.6-.8-.6c-.07.09-.17.16-.44.16v1Zm1.24-.58.8.6c.43-.56.59-1.26.59-1.99h-2c0 .45-.1.67-.19.8l.8.6Zm.39-1.39h1c0-.7-.03-1.29-.12-1.68l-.97.22-.98.23a7 7 0 0 1 .07 1.23h1Zm-.1-1.46.98-.23c-.1-.43-.3-.87-.64-1.2a1.87 1.87 0 0 0-1.33-.52v2c.03 0 .02 0 0 0a.17.17 0 0 1-.06-.04l.02.03.06.2.98-.24Zm4.16 4.52.7-.72-.7.72Zm-1.2-2.9 1-.03-1 .03Zm.95-3.08-.8-.6.8.6Zm5.8-.34.8-.6-.8.6Zm-.15 5.88.8.6-.8-.6Zm-2.44-5.07-.01 1v-1Zm-1.52.88.84.53-.84-.53Zm.06 3.17.69-.73-.69.73Zm2.17-.06.67.73h.01l-.68-.73Zm.6-1.47 1 .05-1-.05Zm-1.78 3.98v-1c-.71 0-1.3-.23-1.8-.71l-.69.72-.69.72a4.47 4.47 0 0 0 3.18 1.27v-1Zm-2.49-1 .7-.72a3 3 0 0 1-.9-2.2l-1 .03-1 .03a4.99 4.99 0 0 0 1.51 3.6l.7-.73Zm-1.2-2.89 1-.03c-.02-.93.23-1.74.76-2.45l-.8-.6-.81-.6a5.78 5.78 0 0 0-1.14 3.71l1-.03Zm.95-3.08.8.6a2.9 2.9 0 0 1 2.5-1.2v-2c-1.7 0-3.1.67-4.1 2l.8.6Zm3.3-1.6v1c.73 0 1.26.28 1.69.85l.8-.6.8-.59a3.93 3.93 0 0 0-3.28-1.65v1Zm2.5 1.26-.81.6c.4.54.63 1.25.63 2.19h2c0-1.28-.32-2.43-1.02-3.38l-.8.59Zm.82 2.79h-1c0 1.02-.27 1.83-.77 2.49l.8.6.8.6a5.98 5.98 0 0 0 1.17-3.7h-1Zm-.97 3.1-.8-.61c-.53.7-1.2 1.03-2.11 1.03v2c1.52 0 2.79-.62 3.7-1.82l-.79-.6Zm-2.44-5.08v-1c-1.02 0-1.83.5-2.37 1.34l.85.54.85.53c.2-.33.4-.41.66-.4v-1Zm-1.52.88-.85-.54a4.18 4.18 0 0 0-.62 2.27h2c0-.5.12-.89.32-1.2l-.85-.53Zm-.47 1.73h-1c0 .82.24 1.6.85 2.17l.68-.73.69-.73c-.1-.1-.22-.28-.22-.71h-1Zm.53 1.44-.68.72c.46.44 1.03.68 1.67.68v-2a.4.4 0 0 1-.3-.13l-.69.73Zm.99.4v1c.7 0 1.34-.25 1.85-.73l-.67-.73-.68-.74c-.15.14-.3.2-.5.2v1Zm1.18-.46.68.72c.6-.57.89-1.32.92-2.14l-1-.05-1-.04c-.01.4-.13.63-.3.78l.7.73Zm.6-1.47 1 .04c.04-.9-.05-1.73-.39-2.39a2.17 2.17 0 0 0-.79-.86c-.35-.22-.74-.3-1.13-.3v1l-.01 1a.35.35 0 0 1 .1 0l.01.02.05.07c.1.19.2.6.17 1.38l1 .04Zm13.41-3.36.97.26-.97-.26Zm-1.65 5.56.95.32-.95-.32Zm-.76 1.45.8.58h.01l-.81-.59Zm-1 .5-.02 1 .02-1Zm-1.55-1.9-.96.29.96-.29Zm-.5-2.68.99-.14-.48-3.25-1.41 2.96.9.43Zm-.2.47.92.38.01-.03.02-.04-.95-.31Zm-1.19 3-.93-.35-.01.02.94.33Zm-.35.53-.64-.77-.12.1-.09.14.85.53Zm-.98.54-.03-1h-.01l.04 1Zm-.77-.65.85-.52v-.02l-.85.54Zm-.7-1.75.97-.24-.97.24Zm-.75-4.22-.98.15.98-.15Zm.21-1.81.66.75-.66-.75Zm1.82.54.98-.22-.98.22Zm.18 1.08 1-.1h-.01l-1 .1Zm.11 1.09-.99.14v.02l1-.16Zm.32 1.99-1 .15 1.94.2-.94-.35Zm1.32-3.95.96.3-.96-.3Zm2.35.12-.97.24.97-.24Zm.41 2.07-.98.17.98-.17Zm.4 2.2-.99.2 1.94.08-.96-.28Zm1.22-4.75.97.25-.97-.25Zm1.76-.38-.66.76h.01l.65-.76Zm.3.95-.96-.26a99.46 99.46 0 0 1-1.64 5.5l.95.32.95.31c.56-1.68 1.12-3.56 1.67-5.61l-.97-.26Zm-1.65 5.56-.95-.32a4.5 4.5 0 0 1-.63 1.18l.82.59.81.58c.4-.56.7-1.13.9-1.71l-.95-.32Zm-.76 1.45-.81-.6-.08.09-.1.01-.01 1-.01 1c.74.01 1.38-.32 1.82-.92l-.81-.59Zm-1 .5.01-1a.45.45 0 0 1-.12-.11 3.2 3.2 0 0 1-.48-1.07l-.96.28-.96.3c.2.68.48 1.3.85 1.75.4.49.95.84 1.64.85l.02-1Zm-1.55-1.9.96-.28c-.12-.4-.28-1.23-.47-2.54l-.99.14-.99.15c.2 1.3.37 2.26.53 2.82l.96-.29Zm-.5-2.68-.9-.43c-.1.22-.2.43-.25.58l.95.32.95.31.03-.08.12-.26-.9-.44Zm-.2.47-.93-.4-1.2 3.05.94.35.93.36c.52-1.36.91-2.35 1.18-2.98l-.92-.38Zm-1.19 3-.94-.33-.05.09.64.77.64.77c.31-.27.52-.6.65-.96l-.94-.34Zm-.35.53-.85-.53-.05.05s-.03.02-.11.02l.03 1 .04 1a2.13 2.13 0 0 0 1.79-1.01l-.85-.53Zm-.98.54-.04-1c.1 0 .18.02.24.04l.07.05-.06-.07-.13-.19-.85.52-.86.51a3 3 0 0 0 .6.75c.26.21.62.41 1.07.4l-.04-1Zm-.77-.65.84-.54a4.98 4.98 0 0 1-.57-1.45l-.97.24-.97.24c.2.78.46 1.47.82 2.04l.85-.53Zm-.7-1.75.97-.25c-.14-.59-.39-1.95-.73-4.13l-.99.16-.98.15c.33 2.16.59 3.61.76 4.31l.97-.24Zm-.75-4.22 1-.15c-.08-.46-.1-.76-.1-.95h-2c0 .34.04.77.12 1.25l.98-.15Zm-.1-1.1h1c0-.01 0-.01 0 0l-.01.02-.02.02-.66-.75-.66-.76c-.43.38-.66.9-.66 1.47h1Zm.31-.71.66.75c.03-.03.06-.04.13-.04v-2c-.54 0-1.04.18-1.45.54l.66.75Zm.78-.3v1c.06 0 .09.01.1.02l-.04-.02-.02-.03.03.1.97-.23.98-.22c-.1-.44-.31-.87-.7-1.18-.4-.32-.87-.43-1.31-.43v1Zm1.04.84-.97.23c.06.24.1.56.15.96l1-.1.99-.12a10.2 10.2 0 0 0-.2-1.2l-.97.23Zm.18 1.08-1 .1.12 1.13 1-.14.98-.14-.1-1.05-1 .1Zm.11 1.09-.98.16.3 1.98 1-.15.98-.15-.31-2-.99.16Zm.32 1.99.94.34c.39-1.07.84-2.4 1.34-3.98l-.96-.3-.95-.3c-.5 1.56-.94 2.86-1.31 3.9l.94.34Zm1.32-3.95.96.3c.07-.21.14-.28.15-.3h.01l.09-.01v-2c-.5 0-.99.15-1.39.49-.39.33-.63.77-.77 1.22l.95.3Zm1.2-1.01v1h.04-.02c.01 0 .09.1.16.37l.97-.24.97-.23a2.74 2.74 0 0 0-.69-1.33c-.4-.39-.9-.57-1.42-.57v1Zm1.15 1.13-.97.24c.12.5.25 1.16.4 2l.98-.17.99-.17c-.15-.86-.3-1.57-.43-2.14l-.97.24Zm.41 2.07-.98.17c.2 1.23.34 1.98.4 2.23l.97-.2.98-.2-.38-2.17-.99.17Zm.4 2.2.95.28c.06-.18.47-1.79 1.24-4.78l-.97-.25-.97-.24a2265.84 2265.84 0 0 1-1.12 4.35l-.07.26-.02.08v.02l.95.28Zm1.22-4.75.97.25c0-.02 0-.01 0 0a.25.25 0 0 1-.07.07l-.04.02h.12v-2c-.4 0-.84.08-1.22.34-.4.27-.62.66-.73 1.08l.97.24Zm.98-.67v1c.05 0 .08.01.13.05l.65-.76.65-.76c-.4-.35-.9-.53-1.43-.53v1Zm.78.3-.65.76h.01v-.01l-.02-.03c0-.01 0-.01 0 0h2c0-.6-.26-1.12-.7-1.5l-.64.77Zm.34.71h-1V16.82v.04l.96.26.97.25c.03-.12.07-.3.07-.48h-1Zm3.56-4.26-.68.73v.01l.68-.74Zm0 1.64-.67-.73h-.01l.68.73Zm-.17 7.5-1 .02 1-.02Zm-.27 2.18.69.72-.7-.72Zm-1.55 0-.7.71.01.01.7-.72Zm-.34-2.18-1 .02 1-.02Zm.44-5.66.7.72-.7-.72Zm1.55 0-.7.72h.01l.69-.72Zm-.52-1.5v-1a.25.25 0 0 1-.19-.07l-.67.73-.68.74c.43.4.96.6 1.54.6v-1Zm-.86-.34.67-.73a.28.28 0 0 1-.03-.04v-.02l-.01-.03h-2c0 .62.25 1.15.7 1.56l.67-.74Zm-.37-.82h1v-.03l.01-.02.03-.03-.67-.74-.68-.74c-.44.41-.7.95-.7 1.56h1Zm.37-.82.67.74c.06-.05.1-.07.2-.07v-2c-.59 0-1.12.2-1.55.6l.68.73Zm.86-.33v1c.09 0 .13.02.18.06l.68-.73.69-.73c-.43-.4-.96-.6-1.55-.6v1Zm.86.33-.67.74.03.03v.02l.01.03h2c0-.6-.25-1.15-.7-1.55l-.67.73Zm.37.82h-1v.04l-.01.01-.03.04.67.73.68.74c.44-.4.69-.94.69-1.56h-1Zm-.37.82-.68-.73c-.05.05-.1.07-.18.07v2c.59 0 1.12-.2 1.55-.6l-.69-.74Zm-.2 6.07h-1l.03 1.45 1-.02 1-.03a63.8 63.8 0 0 1-.02-1.4h-1Zm.03 1.43-1 .03.03 1.4h2c0-.32 0-.8-.03-1.47l-1 .04Zm.03 1.43h-1v.03l.7.72.7.71a2 2 0 0 0 .6-1.46h-1Zm-.3.75-.69-.73-.09.01v2c.54 0 1.06-.17 1.47-.56l-.7-.72Zm-.78.28v-1a.23.23 0 0 1-.07 0l-.01-.01-.69.73-.69.72c.41.4.93.56 1.46.56v-1Zm-.77-.28.7-.72v-.03h-2a2 2 0 0 0 .6 1.46l.7-.71Zm-.3-.75h1c0-.32-.01-.8-.04-1.47l-1 .04-1 .03c.03.65.04 1.12.04 1.4h1Zm-.03-1.43 1-.03a63.8 63.8 0 0 1-.03-1.4h-2l.03 1.45 1-.02Zm-.03-1.43h1c0-.43.03-.99.08-1.67l-1-.08-1-.07c-.05.71-.08 1.32-.08 1.82h1Zm.08-1.75 1 .08c.05-.71.08-1.32.08-1.82h-2c0 .43-.03.99-.08 1.67l1 .07Zm.08-1.74h1v-.03.01c-.01 0-.01 0 0 0l-.7-.72-.69-.73c-.41.4-.61.92-.61 1.47h1Zm.3-.74.7.72v-.01h.08v-2c-.55 0-1.07.17-1.47.57l.7.72Zm.78-.3v1a.2.2 0 0 1 .06.01h.01l.7-.71.7-.72c-.41-.4-.93-.58-1.47-.58v1Zm.77.3-.69.72v-.01.03h2c0-.55-.2-1.07-.62-1.47l-.7.73Zm.3.74h-1c0 .43-.02.99-.07 1.67l1 .07 1 .08c.05-.71.07-1.32.07-1.82h-1Zm-.07 1.74-1-.07a25.2 25.2 0 0 0-.08 1.82h2c0-.43.02-.99.07-1.67l-1-.08Zm2.57-1.24-.8-.6.8.6Zm5.37-1.08.44-.9-.44.9Zm.22 3.32-.57-.82.57.82Zm-1.76.9.4.9-.4-.9Zm-2.63 1.16-.4-.92-1.28.57.94 1.03.74-.68Zm3.9.38-.51-.86.5.86Zm.55 1.86.39.92-.4-.92Zm-4.6-4.23-.96-.3-.68 2.1 2.03-.88-.4-.92Zm1.75-.75.4.92.01-.01-.4-.91Zm1.68-.89.55.84 1.38-.9-1.44-.8-.49.86Zm-1.16 6.34v-1a3.97 3.97 0 0 1-2.45-.7l-.6.8-.6.8c1 .76 2.25 1.1 3.65 1.1v-1Zm-3.05-.9.6-.8c-.6-.44-.91-1.05-.91-1.96h-2c0 1.47.56 2.7 1.71 3.57l.6-.8Zm-1.31-2.76h1c0-1.14.3-2.03.83-2.74l-.8-.6-.79-.61a6.36 6.36 0 0 0-1.24 3.95h1Zm1.04-3.35.8.6a2.72 2.72 0 0 1 2.31-1.11v-2c-1.6 0-2.94.64-3.9 1.9l.79.61Zm3.11-1.51v1c.81 0 1.4.13 1.82.33l.44-.9.44-.9a6.13 6.13 0 0 0-2.7-.53v1Zm2.26.43-.44.9c.27.13.41.27.49.39.08.12.13.27.13.51h2a2.89 2.89 0 0 0-1.74-2.7l-.44.9Zm1.18 1.8h-1c0 .13-.05.37-.53.7l.57.82.57.83c.8-.56 1.4-1.34 1.4-2.35h-1Zm-.96 1.52-.57-.82c-.2.14-.7.4-1.6.8l.41.91.4.92a13.1 13.1 0 0 0 1.93-.99l-.57-.82Zm-1.76.9-.4-.92-2.63 1.16.4.92.4.91 2.64-1.16-.4-.92Zm-2.63 1.16-.74.68c.36.38.8.67 1.29.86l.36-.93.35-.94c-.21-.08-.38-.2-.53-.35l-.73.68Zm.9.6-.35.94a4.4 4.4 0 0 0 1.57.27v-2a2.4 2.4 0 0 1-.86-.14l-.35.94Zm1.22.21v1c.84 0 1.62-.17 2.29-.57l-.51-.86-.51-.86c-.3.18-.7.3-1.27.3v1Zm1.78-.43.5.86c.19-.1.33-.17.43-.2.1-.05.13-.04.1-.04v-2c-.53 0-1.07.24-1.54.52l.5.86Zm1.04-.38v1c.12 0 .03.03-.09-.09a.37.37 0 0 1-.1-.14v.02h2c0-.43-.11-.93-.5-1.31a1.83 1.83 0 0 0-1.31-.48v1Zm.8.79h-1c0 .02 0 .06-.06.14-.09.1-.27.24-.63.4l.4.91.4.92c.98-.43 1.9-1.17 1.9-2.37h-1Zm-1.3 1.45-.39-.92c-.6.26-1.24.39-1.93.39v2c.95 0 1.86-.18 2.72-.55l-.4-.92Zm-2.53-6.16v-1c-.73 0-1.39.25-1.92.75l.68.73.69.73a.75.75 0 0 1 .55-.21v-1Zm-1.24.48-.68-.73a4.36 4.36 0 0 0-1.1 1.88l.95.3.96.31c.17-.55.38-.86.56-1.03l-.69-.73Zm-.83 1.45.4.92 1.76-.75-.4-.92-.4-.92-1.75.76.4.91Zm1.76-.75.41.9c.73-.32 1.34-.64 1.82-.95l-.55-.84-.54-.84c-.36.24-.87.5-1.55.82l.41.9Zm1.68-.89.5-.87a3.74 3.74 0 0 0-1.87-.42v2c.46 0 .73.08.88.16l.5-.87Zm9.58-1.87-.6.8 1.53 1.13.07-1.9-1-.03Zm.24-3.68-.99-.14 1 .14Zm1.86 3.48-1-.08 1 .08Zm0 7.07 1-.18h-.01l-.98.18Zm-.28.94.66.75-.66-.75Zm-1.59-.24.88-.48-.5-.92-.9.54.52.86Zm-1.1.48-.26-.97h-.01l.27.97Zm-4.08-.96-.7.72.7-.72Zm0-6.3.74.68-.74-.67Zm4.8 1.67h1v-.24l-.12-.22-.89.46Zm-3.4-.3.76.65-.76-.66Zm2.42 3.9-.41-.91.4.91Zm.72-.5.62.78h.01l-.63-.78Zm.25-.24.73.68.29-.3-.02-.42-1 .04Zm.16-5.32 1 .04c.07-1.78.14-2.96.23-3.58l-.99-.14-.99-.14c-.1.73-.18 2-.25 3.78l1 .04Zm.24-3.68 1 .14a.45.45 0 0 1 .02-.12l-.03.03a.17.17 0 0 1-.03.02l-.02.01h.08v-2c-.47 0-.97.12-1.37.49-.4.35-.57.83-.64 1.29l1 .14Zm1.02-.92v1h.04l-.02-.01.72-.7.72-.68c-.4-.43-.92-.61-1.46-.61v1Zm.74.3-.73.68s.01.01 0 0l.01.04h2c0-.53-.18-1.02-.56-1.41l-.72.68Zm.28.72h-1c0 .71-.06 1.8-.18 3.3l1 .08 1 .08c.12-1.5.18-2.66.18-3.46h-1Zm-.18 3.38-1-.08c-.11 1.5-.17 2.66-.17 3.45h2c0-.72.05-1.8.17-3.3l-1-.07Zm-.17 3.37h-1c0 1.83.06 3.16.2 3.9l.98-.2.98-.18c-.1-.52-.16-1.66-.16-3.52h-1Zm.18 3.7-.98.19v.04h2c0-.14-.02-.28-.04-.41l-.98.18Zm.02.23h-1v.01-.02l.02-.02.67.74.67.74c.42-.38.64-.89.64-1.45h-1Zm-.31.71-.66-.75-.03.02h-.04v2c.52 0 1-.18 1.39-.52l-.66-.75Zm-.73.27v-1h-.02.01a.12.12 0 0 1 .04.03v-.02l-.89.48-.88.48c.17.3.4.57.72.76.32.2.68.27 1.02.27v-1Zm-.86-.51-.51-.86c-.28.17-.56.3-.85.37l.26.97.27.96c.47-.13.92-.33 1.35-.58l-.52-.86Zm-1.1.48-.28-.97c-.28.09-.58.13-.9.13v2c.5 0 .99-.07 1.46-.2l-.28-.96Zm-1.18.16v-1c-.93 0-1.64-.29-2.21-.84l-.7.72-.69.72c.98.94 2.2 1.4 3.6 1.4v-1Zm-2.9-1.12.7-.72a2.87 2.87 0 0 1-.88-2.18h-2c0 1.42.48 2.66 1.48 3.62l.7-.72Zm-1.18-2.9h1c0-1.2.33-2.08.92-2.72l-.74-.67-.73-.68a5.8 5.8 0 0 0-1.45 4.07h1Zm1.18-3.4.74.68a3.01 3.01 0 0 1 2.37-.97v-2a5 5 0 0 0-3.84 1.62l.73.68Zm3.1-1.3v1c.33 0 .58.04.79.1l.26-.97.26-.96a5 5 0 0 0-1.3-.16v1Zm1.05.13-.26.97c.2.05.35.13.46.21l.6-.8.6-.8a3.35 3.35 0 0 0-1.14-.54l-.26.96Zm.64 2.84.89-.46A2.77 2.77 0 0 0 267.4 17l-.5.86-.51.87c.09.05.19.14.29.33l.88-.46Zm-.67-.73.5-.87a2.92 2.92 0 0 0-1.48-.38v2c.23 0 .38.05.48.1l.5-.86Zm-.98-.25v-1c-.97 0-1.87.3-2.5 1.02l.76.65.76.66c.14-.17.4-.33.98-.33v-1Zm-1.74.67-.75-.65c-.61.7-.83 1.64-.83 2.65h2c0-.77.17-1.15.34-1.34l-.76-.66Zm-.58 2h-1c0 .85.33 1.59.94 2.17l.69-.72.7-.72a.94.94 0 0 1-.33-.73h-1Zm.63 1.45-.7.72c.6.57 1.33.88 2.15.88v-2c-.28 0-.52-.09-.76-.32l-.7.72Zm1.45.6v1c.45 0 .93-.05 1.33-.23l-.41-.9-.41-.92-.13.03-.38.02v1Zm.92-.14.4.91c.28-.12.61-.37.94-.63l-.63-.78-.62-.78a7.3 7.3 0 0 1-.38.29l-.12.08.4.91Zm.72-.5.63.77c.12-.1.24-.2.35-.33l-.73-.68-.73-.69-.16.16.63.77Zm.25-.24 1-.04v-2.81l-1-.01h-1v2.9l1-.04Zm8.96-1.42.8.6-.8-.6Zm-1.62 2.18-.79-.62-1.33 1.69 2.15-.07-.03-1Zm1.7.1-.2.98h.02l.17-.98Zm1.67.4-.7.72.01.01h.01l.68-.73Zm.01 1.47-.69-.72.7.72Zm-1.7.18-.18.99.19-.99Zm-4.17.18-.18-.98.18.98Zm-1.07-.2.6-.79-.6.8Zm.14-1.59.65.77-.65-.77Zm4.07-4.82.83.56 1.11-1.65-1.98.1.05 1Zm-3.35-.15.14-.99-.14 1Zm-.66-1.75-.72-.7.72.7Zm1.91-.21-.1.99.1-1Zm2.77.01.06 1-.06-1Zm1.9 2.18-.74-.66c-.47.53-1.03 1.23-1.66 2.1l.8.58.8.6c.63-.84 1.14-1.49 1.55-1.96l-.75-.66Zm-1.6 2.02-.8-.59c-.87 1.18-1.4 1.9-1.6 2.15l.78.62.78.62c.23-.29.78-1.03 1.65-2.2l-.8-.6Zm-1.62 2.18.03 1 .76-.02v-2c-.23 0-.5 0-.82.02l.03 1Zm.79-.02v1c.1 0 .33.02.71.1l.2-.98.19-.98c-.42-.08-.8-.14-1.1-.14v1Zm.9.12-.17.98c.4.08.78.13 1.08.13v-2c-.1 0-.34-.03-.73-.1l-.18.99Zm.91.1v1a.2.2 0 0 1 .07.02l.7-.72.7-.71c-.4-.4-.93-.58-1.47-.58v1Zm.77.3-.68.74v-.02.02h2c0-.56-.21-1.08-.64-1.47l-.68.73Zm.32.74h-1v.03-.02l.7.72.68.73c.41-.4.62-.9.62-1.46h-1Zm-.3.73-.7-.72-.09.01v2c.54 0 1.06-.17 1.47-.56l-.69-.73Zm-.79.3v-1c-.12 0-.35-.03-.74-.1l-.17.98-.18.99c.41.07.79.12 1.09.12v-1Zm-.91-.12.18-.98c-.41-.08-.78-.13-1.08-.13v2c.1 0 .33.03.71.1l.19-.99Zm-.9-.1v-1c-1.22 0-2.38.1-3.46.3l.18.98.19.99c.95-.18 1.98-.28 3.09-.28v-1Zm-3.28.28-.19-.98a.97.97 0 0 1-.15.02v2c.18 0 .36-.02.53-.06l-.19-.98Zm-.34.04v-1c-.1 0-.12-.02-.12-.03l-.61.8-.61.79c.4.3.86.44 1.34.44v-1Zm-.73-.23.6-.8.03.05.02.05v.02h-2c0 .6.27 1.12.75 1.48l.6-.8Zm-.35-.68h1c.01-.03.05-.08.14-.15l-.65-.77-.64-.76c-.48.4-.85.97-.85 1.68h1Zm.5-.92.64.77c1.4-1.18 2.81-2.87 4.25-5.03l-.82-.56-.84-.55a22.45 22.45 0 0 1-3.88 4.61l.64.76Zm4.06-4.82-.04-1-.88.03v2l.97-.03-.05-1Zm-.93.03v-1c-.74 0-1.5-.06-2.28-.17l-.14 1-.14.99c.87.12 1.72.18 2.56.18v-1Zm-2.42-.18.14-.99a.58.58 0 0 1-.15-.03c-.02 0 0 0 .02.02a.2.2 0 0 1 .04.06v-.07h-2c0 .48.13.98.5 1.38.37.39.86.56 1.32.63l.13-1Zm-.96-1.01h1v-.02l.01-.02-.71-.7-.72-.7c-.38.4-.58.9-.58 1.44h1Zm.3-.74.71.7s.01 0 0 0h.05v-2c-.56 0-1.07.2-1.48.6l.72.7Zm.76-.3v1c.2 0 .53.02 1.04.08l.11-1 .11-.99c-.52-.06-.95-.09-1.26-.09v1Zm1.15.09-.1 1c.53.04.96.07 1.27.07v-2c-.2 0-.55-.02-1.07-.07l-.1 1Zm1.18.07v1c.38 0 .94-.02 1.65-.06l-.06-1-.06-1c-.7.04-1.21.06-1.54.06v1Zm1.59-.06.06 1c.7-.05 1.21-.07 1.53-.07v-2c-.39 0-.94.03-1.66.07l.07 1Zm1.6-.07v1c.1 0 .14.01.16.02l-.07-.04a.38.38 0 0 1-.1-.15c-.03-.05-.02-.06-.02-.03h2c0-.48-.16-1-.61-1.37a2.12 2.12 0 0 0-1.37-.43v1Zm.97.8h-1c0 .14-.06.4-.41.79l.75.66.74.66c.54-.6.92-1.31.92-2.11h-1Zm3.87-3.95-.69.73.01.01.68-.74Zm0 1.64-.68-.73.68.73Zm-.18 7.5-1 .02 1-.02Zm-.27 2.18.69.72-.69-.72Zm-1.55 0-.7.71.02.01.68-.72Zm-.33-2.18-1 .02 1-.02Zm.44-5.66.68.72h.01l-.7-.72Zm1.54 0-.7.72h.01l.7-.72Zm-.51-1.5v-1a.25.25 0 0 1-.2-.07l-.67.73-.68.74c.44.4.96.6 1.55.6v-1Zm-.87-.34.68-.73a.2.2 0 0 1-.04-.05v-.04h-2c0 .62.24 1.15.69 1.56l.67-.74Zm-.37-.82h1v-.03l.01-.02.04-.03-.68-.74-.68-.74c-.44.41-.69.95-.69 1.56h1Zm.37-.82.68.74c.05-.05.1-.07.19-.07v-2c-.59 0-1.12.2-1.55.6l.68.73Zm.87-.33v1c.08 0 .12.02.17.06l.69-.73.68-.73c-.43-.4-.96-.6-1.54-.6v1Zm.86.33-.68.74a.2.2 0 0 1 .04.04v.04h2c0-.6-.24-1.15-.69-1.55l-.67.73Zm.36.82h-1v.05l-.04.04.68.73.67.74c.45-.4.7-.94.7-1.56h-1Zm-.36.82-.69-.73c-.05.05-.09.07-.17.07v2c.58 0 1.11-.2 1.54-.6l-.68-.74Zm-.2 6.07h-1c0 .3 0 .8.03 1.45l1-.02 1-.03a63.8 63.8 0 0 1-.03-1.4h-1Zm.02 1.43-1 .03c.03.65.04 1.12.04 1.4h2c0-.32-.01-.8-.04-1.47l-1 .04Zm.04 1.43h-1v.03l.7.72.69.71a2 2 0 0 0 .6-1.46h-1Zm-.3.75-.7-.73-.08.01v2c.53 0 1.05-.17 1.46-.56l-.69-.72Zm-.78.28v-1h-.08v-.01l-.7.73-.68.72c.4.4.92.56 1.46.56v-1Zm-.78-.28.7-.72v-.03h-2a2 2 0 0 0 .6 1.46l.7-.71Zm-.3-.75h1l-.03-1.47-1 .04-1 .03.03 1.4h1Zm-.03-1.43 1-.03a63.8 63.8 0 0 1-.02-1.4h-2c0 .3 0 .8.02 1.45l1-.02Zm-.02-1.43h1c0-.43.02-.99.07-1.67l-1-.08-1-.07c-.05.71-.07 1.32-.07 1.82h1Zm.07-1.75 1 .08c.05-.71.08-1.32.08-1.82h-2c0 .43-.02.99-.07 1.67l1 .07Zm.08-1.74h1v-.03.01l-.7-.72-.68-.73c-.42.4-.62.92-.62 1.47h1Zm.3-.74.7.72.01-.01h.07v-2c-.55 0-1.06.17-1.47.57l.7.72Zm.78-.3v1a.2.2 0 0 1 .07.01l.7-.71.7-.72c-.4-.4-.93-.58-1.47-.58v1Zm.77.3-.69.72v-.01.03h2c0-.55-.2-1.07-.62-1.47l-.69.73Zm.3.74h-1c0 .43-.02.99-.07 1.67l1 .07 1 .08c.05-.71.08-1.32.08-1.82h-1Zm-.07 1.74-1-.07a25.2 25.2 0 0 0-.08 1.82h2c0-.43.03-.99.08-1.67l-1-.08Z" mask="url(#a)"/></svg>