<svg xmlns="http://www.w3.org/2000/svg" width="348" height="155" fill="none"><path fill="#fff" d="M3 21.23a18 18 0 0 1 18-18h305a18 18 0 0 1 18 18v112a18 18 0 0 1-18 18H21a18 18 0 0 1-18-18v-112Z"/><path fill="#000" d="M140.22.04c3.88-.12 7.76.04 11.64.47 3.68.41 7.36.53 11.04.34 3.87-.19 7.73-.14 11.6.15a13619.95 13619.95 0 0 0 22.73 1.67c3.73.28 7.46.39 11.19.36 3.67-.04 7.35-.37 11.03-1.02 4.02-.71 8.06-.7 12.08.06 3.62.68 7.24.9 10.86.68 3.73-.24 7.46-.64 11.19-1.2 3.85-.57 7.72-.93 11.57-1.09 3.97-.15 7.93.2 11.88 1.08 3.54.78 7.07.88 10.6.3 3.99-.65 7.98-.7 11.96-.16 3.61.49 7.22.5 10.83.03 3.8-.48 7.63-.9 11.48-1.28 4.24-.41 8.29.43 12.08 2.5a17.38 17.38 0 0 1 8.11 8.94 35.87 35.87 0 0 1 2.5 11.23c.21 3.57.75 7.2 1.6 10.88a43.13 43.13 0 0 1 1.07 11.92 77.9 77.9 0 0 1-.51 5.83l-1.43 8.53a41.89 41.89 0 0 0-.3 8.14c.21 3.73.6 7.46 1.13 11.19.57 3.93.69 7.87.36 11.81-.3 3.7-.35 7.4-.15 11.1.2 3.85.2 7.7.01 11.56-.19 3.69-.11 7.38.22 11.08.36 4 .04 8-.95 11.98a23.47 23.47 0 0 1-6 10.8 19.64 19.64 0 0 1-11.03 5.8c-4.14.72-8.24.64-12.29-.24a35.61 35.61 0 0 0-10.76-.7c-3.82.33-7.65.56-11.47.67a64.6 64.6 0 0 1-11.73-.75 36.51 36.51 0 0 0-10.77-.08c-3.94.56-7.89.67-11.83.31a67.83 67.83 0 0 0-11.03-.1c-3.72.28-7.46.71-11.19 1.32-4.11.67-8.23.32-12.3-1.03a15.6 15.6 0 0 0-10.1 0 22.67 22.67 0 0 1-12.44.6c-3.56-.81-7.12-1-10.67-.57-3.91.47-7.84.56-11.75.28a322.8 322.8 0 0 0-11.28-.6c-3.78-.15-7.57-.26-11.35-.37-3.6-.1-7.2.3-10.81 1.2a25.54 25.54 0 0 1-12.33.05 34.14 34.14 0 0 0-10.73-.86c-3.86.3-7.71.4-11.56.3-3.8-.1-7.6-.21-11.38-.33a78.2 78.2 0 0 0-11.08.44c-3.93.44-7.87.43-11.81-.05a36.25 36.25 0 0 0-10.77.28c-4.03.72-8.09.66-12.12-.18a79.92 79.92 0 0 0-11.08-1.53 85.8 85.8 0 0 0-11.1-.03c-3.9.24-7.72.14-11.45-.29a55.36 55.36 0 0 1-11.34-2.56 10.54 10.54 0 0 1-5.17-3.55 10.55 10.55 0 0 1-2.03-5.93c-.2-3.75-.8-7.45-1.78-11.1a26.44 26.44 0 0 1-.41-12.26c.71-3.52.7-7.03-.05-10.55a29.74 29.74 0 0 1-.04-12.17c.73-3.62 1-7.24.8-10.84-.23-3.9-.16-7.79.23-11.68.37-3.74.63-7.5.78-11.25.14-3.71.1-7.42-.16-11.14-.25-3.73-.66-7.46-1.23-11.18-.62-4.02-.54-8.03.23-12a70.52 70.52 0 0 1 3-10.88 21.86 21.86 0 0 1 6.77-9.36 25.51 25.51 0 0 1 4.12-2.89 7.34 7.34 0 0 1 3.78-1.02c1.4.09 3.98.16 7.77.2 3.71.06 7.43-.12 11.14-.5 3.98-.4 7.96-.21 11.94.55 3.48.68 6.97.57 10.47-.34a23.41 23.41 0 0 1 12.4.13 45.79 45.79 0 0 0 10.9 1.7c3.6.12 7.23-.23 10.85-1.05C98.35.9 102.3.52 106.26.65c3.87.13 7.74.5 11.61 1.11 3.54.56 7.08.47 10.63-.28 3.9-.83 7.8-1.31 11.72-1.44Zm.12 4c-3.67.12-7.34.58-11.02 1.36-4.01.85-8.05.95-12.07.31-3.7-.58-7.41-.94-11.11-1.06-3.61-.12-7.24.23-10.86 1.05-3.95.9-7.92 1.27-11.88 1.14-3.95-.13-7.9-.76-11.83-1.86a19.4 19.4 0 0 0-10.3-.11A27.48 27.48 0 0 1 49 5.29c-3.6-.7-7.19-.86-10.78-.5-3.86.4-7.72.57-11.58.52-3.78-.05-6.46-.13-7.97-.22-.19-.01-.7.06-1.65.56-.92.49-2.07 1.3-3.46 2.44a17.86 17.86 0 0 0-5.54 7.67 66.46 66.46 0 0 0-2.85 10.25 30.8 30.8 0 0 0-.2 10.63c.59 3.84 1 7.69 1.27 11.53.26 3.85.32 7.7.17 11.56-.15 3.83-.42 7.66-.8 11.48a70.7 70.7 0 0 0-.22 11.05c.23 3.96-.07 7.92-.87 11.88-.72 3.51-.7 7.02.04 10.54.86 4.05.87 8.12.05 12.17-.7 3.48-.6 6.95.35 10.43 1.05 3.91 1.7 7.89 1.92 11.92a6.6 6.6 0 0 0 1.2 3.73 6.6 6.6 0 0 0 3.28 2.17c3.57 1.2 7.08 2 10.53 2.4 3.48.4 7.05.5 10.72.26 3.87-.24 7.75-.24 11.63.02 3.87.26 7.75.8 11.62 1.6 3.54.75 7.08.8 10.61.18 3.98-.7 7.97-.82 11.95-.33 3.64.44 7.26.47 10.9.06 3.87-.43 7.75-.58 11.64-.47 3.78.12 7.57.23 11.36.33 3.7.1 7.42 0 11.14-.3 4-.31 8 .01 11.98.97 3.47.84 6.93.82 10.4-.04a43.87 43.87 0 0 1 11.91-1.32c3.8.11 7.59.22 11.38.36 3.8.14 7.63.36 11.44.63 3.65.26 7.3.18 10.96-.27a34.7 34.7 0 0 1 12.05.66c3.42.79 6.84.62 10.28-.52 4.2-1.39 8.43-1.39 12.63 0a21.54 21.54 0 0 0 10.4.9c3.84-.63 7.69-1.1 11.53-1.38 3.9-.29 7.8-.24 11.7.1 3.62.33 7.26.24 10.9-.27 3.98-.57 7.97-.54 11.95.08 3.66.56 7.33.8 10.98.7 3.75-.1 7.5-.33 11.25-.66 4-.35 7.98-.08 11.96.78 3.53.77 7.11.85 10.75.22 3.47-.6 6.4-2.14 8.84-4.65a19.47 19.47 0 0 0 5-8.99c.89-3.55 1.17-7.1.85-10.66a82.58 82.58 0 0 1-.24-11.64c.19-3.71.18-7.43-.01-11.15a85.6 85.6 0 0 1 .17-11.63c.3-3.63.18-7.27-.35-10.9-.55-3.84-.94-7.7-1.17-11.53-.23-3.96.05-7.93.85-11.88a74.94 74.94 0 0 0 1.4-11.06c.18-3.6-.13-7.2-.97-10.81a69.78 69.78 0 0 1-1.68-11.54c-.21-3.46-.96-6.8-2.24-10a13.41 13.41 0 0 0-6.31-6.92 16.56 16.56 0 0 0-9.77-2.01c-3.8.37-7.6.78-11.36 1.26-3.96.5-7.93.5-11.89-.04a36.3 36.3 0 0 0-10.76.15c-4.04.66-8.08.55-12.11-.34a42.35 42.35 0 0 0-10.86-.99c-3.71.15-7.43.5-11.14 1.05-3.84.57-7.69 1-11.53 1.24-3.95.24-7.9-.02-11.85-.75-3.54-.67-7.1-.68-10.64-.05a70.8 70.8 0 0 1-11.7 1.08c-3.84.03-7.68-.09-11.52-.38a4251.51 4251.51 0 0 0-22.72-1.67c-3.7-.27-7.42-.3-11.12-.13-3.9.2-7.78.06-11.67-.37a76.9 76.9 0 0 0-11.08-.44Z"/><path fill="#000" d="M83.14 50.12a6.95 6.95 0 0 1-4.84-1.75 6.23 6.23 0 0 1-2.04-4.86c0-1.92.64-3.9 1.91-5.93 1.42-2.27 3.01-3.4 4.79-3.4.92 0 1.96.21 3.1.65 1.44.56 2.17 1.24 2.17 2.04 0 .36-.12.68-.36.96-.23.27-.53.41-.88.41-.27 0-.51-.08-.72-.24l-.58-.5c-.56-.44-1.47-.66-2.73-.66-.96 0-1.92.86-2.86 2.58a8.88 8.88 0 0 0-1.3 4.09c0 1.24.43 2.23 1.28 2.94a4.58 4.58 0 0 0 4.87.56l1.65-.88c.28-.15.48-.23.6-.23.36 0 .66.14.91.43.26.27.38.59.38.95 0 .68-.72 1.35-2.18 2a8.21 8.21 0 0 1-3.17.84Zm20.35-.01c-.67 0-1.1-.36-1.32-1.08-.21-.77-.41-1.87-.6-3.3a28.4 28.4 0 0 1-.22-4.49c.03-.5.05-.87.05-1.12 0-1.77-.45-2.66-1.34-2.66-1.2 0-2.27.55-3.21 1.63-.48.56-1.14 1.62-1.98 3.19 0 3.6-.15 5.72-.46 6.38-.26.59-.67.88-1.23.88-.39 0-.73-.13-1.02-.4-.29-.26-.44-.58-.44-.96 0-.13.05-.34.13-.62.08-.24.13-.93.16-2.07l.04-2.1.04-10.4c.07-1.17.1-1.96.1-2.37 0-.48-.05-.93-.14-1.36a6.99 6.99 0 0 1-.13-1.34c0-.4.14-.72.41-.98.28-.26.61-.4 1-.4.78 0 1.23.42 1.37 1.25.15.92.22 1.74.22 2.48 0 .99-.03 2.02-.1 3.1a48.46 48.46 0 0 0-.07 3.1l.02 1.25a8.47 8.47 0 0 1 2.48-2.32 5.5 5.5 0 0 1 2.81-.78c1.57 0 2.65.5 3.23 1.53.42.71.65 1.92.71 3.62l.11 2.7.29 2.95c.13 1.1.29 2.08.48 2.92.04.16.06.3.06.4 0 .4-.15.72-.43.97-.28.27-.62.4-1.02.4Zm11.31.01a6.94 6.94 0 0 1-4.84-1.75 6.23 6.23 0 0 1-2.04-4.86c0-1.92.64-3.9 1.91-5.93 1.42-2.27 3.02-3.4 4.79-3.4.92 0 1.96.21 3.1.65 1.45.56 2.17 1.24 2.17 2.04 0 .36-.12.68-.36.96-.23.27-.53.41-.87.41-.28 0-.52-.08-.73-.24l-.58-.5c-.55-.44-1.46-.66-2.73-.66-.96 0-1.92.86-2.86 2.58a8.89 8.89 0 0 0-1.29 4.09c0 1.24.43 2.23 1.28 2.94a4.57 4.57 0 0 0 4.87.56l1.64-.88c.28-.15.49-.23.6-.23.36 0 .66.14.92.43.25.27.38.59.38.95 0 .68-.73 1.35-2.18 2a8.21 8.21 0 0 1-3.18.84Zm21.87-3.9c0 .79-.5 1.5-1.5 2.15-.84.53-1.9.95-3.16 1.24-.73.36-1.1.79-1.1 1.28 0 .34.13.69.38 1.06.25.4.54.6.88.6a5.3 5.3 0 0 0 2.44-.52c.21-.11.4-.17.56-.17.29 0 .54.12.73.34.21.23.31.49.31.78 0 .6-.54 1.05-1.64 1.36-.77.22-1.57.33-2.4.33-.93 0-1.73-.4-2.4-1.22a3.89 3.89 0 0 1-.96-2.56c0-.32.07-.67.22-1.04a7.45 7.45 0 0 1-4.58-1.82 6.1 6.1 0 0 1-1.89-4.7c0-2.46.6-4.52 1.79-6.18a6.06 6.06 0 0 1 5.18-2.72c1.57 0 2.85.27 3.84.8a3.21 3.21 0 0 1 1.82 3c0 .94-.53 1.8-1.6 2.57-.47.34-1.47.87-3 1.59l-5.4 2.56a5.32 5.32 0 0 0 4.72 2.37 8.7 8.7 0 0 0 2.3-.37c1.11-.31 1.83-.72 2.15-1.22.32-.5.66-.76 1.03-.76.33 0 .63.12.88.38.26.25.4.53.4.86Zm-3.73-8.1a4.82 4.82 0 0 0-3.4-1.14c-2.31 0-3.84 1.79-4.6 5.37l4.35-2.07c1.7-.83 2.93-1.55 3.65-2.17Zm-93.17 40.3c-.8.9-1.77 2.12-2.9 3.66a229.37 229.37 0 0 1-2.95 3.94l1.43-.03c.38 0 .93.07 1.64.2.73.14 1.28.2 1.65.2.56 0 1.03.19 1.4.55.38.34.57.79.57 1.33 0 .53-.19.98-.56 1.33-.37.35-.84.52-1.41.52-.38 0-.93-.06-1.66-.2a9.83 9.83 0 0 0-1.63-.2c-2.11 0-4.1.18-5.93.53a3.4 3.4 0 0 1-.62.07c-.52 0-.97-.14-1.34-.42a1.47 1.47 0 0 1-.62-1.24c0-.6.3-1.15.9-1.65 2.34-2 4.8-4.9 7.37-8.74a31.6 31.6 0 0 1-6.07-.27c-1.16-.16-1.75-.77-1.75-1.84 0-.52.18-.96.54-1.33.36-.37.82-.55 1.38-.55.46 0 1.16.05 2.1.15a23.39 23.39 0 0 0 5 .03c1.29-.08 2.25-.13 2.9-.13 1.17 0 1.76.48 1.76 1.45 0 .85-.4 1.72-1.2 2.63Zm15.3.6c-.1 1.44-.75 2.17-1.98 2.17-1.19 0-1.78-.62-1.78-1.84l-.07-1.43a5.82 5.82 0 0 0-4.56 3.27l.01 7.12c0 .54-.18.98-.55 1.33-.37.36-.83.54-1.4.54-.59 0-1.04-.2-1.36-.57-.3-.34-.45-.77-.45-1.3v-9.28c0-.29 0-.72.03-1.3l.02-1.32c0-.52.16-.96.47-1.31.32-.36.78-.54 1.36-.54 1.05 0 1.67.54 1.87 1.61a9.09 9.09 0 0 1 5.56-1.87c1.9 0 2.84 1.26 2.84 3.77 0 .48 0 .8-.02.95Zm9.2 10.86c-2.26 0-4.1-.54-5.54-1.61a5.92 5.92 0 0 1-2.38-5.03c0-2.39.63-4.4 1.88-6.06a6.74 6.74 0 0 1 5.65-2.75c1.65 0 3.01.27 4.1.8 1.42.7 2.13 1.78 2.13 3.25 0 1.04-.58 1.96-1.74 2.76-.53.37-1.59.9-3.18 1.62l-4.77 2.1c.45.5 1 .87 1.64 1.11.64.25 1.38.37 2.2.37 1.27 0 2.34-.26 3.22-.78.78-.46 1.41-.7 1.88-.7.99 0 1.48.48 1.48 1.44 0 1.07-.8 1.95-2.37 2.63-1.32.57-2.72.85-4.2.85Zm-.39-12.02c-.87 0-1.62.3-2.25.88a6.13 6.13 0 0 0-1.5 2.63L63.32 80c1.27-.58 2.29-1.11 3.04-1.6a5 5 0 0 0-2.48-.54ZM83.72 75c.13-3.22.27-5.44.44-6.67.16-1.11.78-1.67 1.84-1.67.56 0 1 .18 1.35.54.34.36.5.8.5 1.31 0 1.37-.1 3.41-.32 6.12-.2 2.71-.31 4.75-.31 6.12 0 3.34.1 5.58.33 6.71.02.15.04.29.04.41 0 .52-.19.95-.57 1.29-.38.33-.81.5-1.31.5-.7 0-1.22-.32-1.56-.94A7.9 7.9 0 0 1 80 89.88a7.28 7.28 0 0 1-5.26-2.02 7.01 7.01 0 0 1-2.14-5.27c0-2.54.71-4.59 2.15-6.15a7.27 7.27 0 0 1 5.62-2.35c.7 0 1.34.08 1.9.23.56.15 1.04.38 1.44.68Zm-.28 4.46a3.22 3.22 0 0 0-1.22-1.33c-.5-.3-1.1-.44-1.78-.44-1.4 0-2.45.4-3.15 1.22-.7.8-1.04 2-1.04 3.62 0 1.02.37 1.9 1.13 2.62a3.68 3.68 0 0 0 2.63 1.1 4.2 4.2 0 0 0 1.66-.26 7.55 7.55 0 0 0 1.77-1.35c-.02-.45-.02-2.18 0-5.18Zm19.37 1.58a386.41 386.41 0 0 0 .07 6.62c.04.38.06.68.06.88 0 .52-.2.96-.58 1.3-.38.35-.85.52-1.4.52a1.8 1.8 0 0 1-1.72-1.06c-1.2.44-2.46.67-3.75.67a6.32 6.32 0 0 1-3.38-.85 3.94 3.94 0 0 1-1.85-2.85 41.52 41.52 0 0 1-.55-6.33c0-1.23.14-2.63.43-4.2.19-1.07.82-1.6 1.9-1.6.56 0 1.02.17 1.41.52.39.34.58.77.58 1.3 0 .42-.07 1.07-.21 1.96-.13.88-.2 1.56-.2 2.02 0 1.33.04 2.5.13 3.5.1.99.23 1.81.4 2.46.24.1.47.19.69.24.23.06.44.09.65.09 1.05 0 2.2-.15 3.45-.46a246.56 246.56 0 0 0-.04-4.85c0-1.94.1-3.6.27-5.02.14-1.12.78-1.68 1.93-1.68.55 0 1.03.17 1.43.52.4.35.58.8.55 1.32-.18 3.6-.27 5.26-.27 4.98Zm14.6 8.77c-.75 0-1.31-.36-1.7-1.08a21.85 21.85 0 0 0-2.08-3.04 584.2 584.2 0 0 1-2.28-2.9c-.76.55-1.38.98-1.87 1.27-.1 1.31-.14 2.57-.14 3.77 0 .55-.19 1-.55 1.36-.37.36-.84.54-1.4.54-1.34 0-2-.8-2-2.38 0-.75.05-1.86.15-3.35.12-1.49.17-2.6.17-3.35 0-1.37.02-2.93.06-4.69.05-1.76.07-3.32.07-4.67 0-.4-.02-.88-.07-1.43-.04-.56-.06-1.04-.06-1.45 0-.54.19-1 .56-1.34.36-.36.83-.54 1.4-.54.56 0 1.03.18 1.4.54.37.35.55.8.55 1.34 0 .42.02.91.07 1.48.05.56.07 1.05.07 1.47 0 1.12-.03 2.45-.08 4a85.4 85.4 0 0 0-.07 3.93c1.28-1 3.23-2.8 5.86-5.41a1.95 1.95 0 0 1 2.82-.04c.4.38.6.83.6 1.34 0 .44-.18.86-.55 1.26a47.7 47.7 0 0 1-3.98 3.91l2.95 3.8c1.43 1.9 2.14 3.16 2.14 3.8 0 .51-.2.95-.62 1.3-.42.38-.9.56-1.42.56Zm9.59.25a6.3 6.3 0 0 1-4.5-1.8 7.23 7.23 0 0 1-2.17-5.25 8.66 8.66 0 0 1 1.71-5.58 7.05 7.05 0 0 1 5.99-2.88 5.3 5.3 0 0 1 4.5 2.26 8.3 8.3 0 0 1 1.5 5.06c0 2.19-.58 4.06-1.75 5.6a6.3 6.3 0 0 1-5.28 2.6Zm.85-11.78c-1.16 0-2.08.52-2.75 1.59-.57.9-.85 1.94-.85 3.14 0 1.14.32 2 .96 2.6.51.49 1.1.73 1.79.73.82 0 1.53-.28 2.13-.83a3.7 3.7 0 0 0 1.1-2.65c.13-3.04-.67-4.57-2.38-4.58Zm26.69-1.53c-1 3.7-1.99 7.07-2.99 10.09a9.96 9.96 0 0 1-1.39 2.62 2.1 2.1 0 0 1-1.81.92c-1.19-.02-2.12-1.17-2.8-3.44-.26-.87-.56-2.5-.91-4.86a206.62 206.62 0 0 0-2.52 6.29c-.14.4-.36.7-.64.94-.4.64-.98.97-1.77 1-.44.01-.9-.38-1.4-1.2-.52-.82-.94-1.87-1.26-3.17-.3-1.17-.75-3.72-1.36-7.64-.13-.85-.2-1.52-.2-2 0-.52.2-.95.58-1.29.4-.35.87-.52 1.42-.52 1.02 0 1.65.5 1.88 1.51a17 17 0 0 1 .31 1.96l.22 1.97.56 3.6c.7-1.9 1.5-4.3 2.41-7.14.39-1.23 1.11-1.84 2.18-1.84 1.05 0 1.74.68 2.07 2.05.23.96.48 2.21.75 3.75.38 2.24.62 3.57.7 4 .1-.3.83-3.17 2.23-8.62.2-.8.8-1.21 1.77-1.21.54 0 1.01.17 1.42.52.41.35.62.78.62 1.3 0 .1-.03.23-.07.41Zm13.96 13.41c-.44 0-1.12-.47-2.07-1.41-.87.41-1.63.72-2.3.93-.65.22-1.21.33-1.68.33-2.27 0-3.98-.61-5.12-1.83-1.14-1.22-1.7-3.04-1.7-5.46a7.8 7.8 0 0 1 2.52-5.84 8.37 8.37 0 0 1 6.03-2.43c.9 0 1.94.25 3.12.76 1.42.61 2.13 1.33 2.13 2.14 0 .34-.1.64-.32.9-.1.37-.17.85-.23 1.42a24.5 24.5 0 0 0-.07 2c0 1.8.13 3.1.38 3.9l.66 1.46c.36.82.55 1.28.55 1.4 0 .5-.2.9-.58 1.24-.38.33-.82.5-1.32.5Zm-3.51-9.71a10.7 10.7 0 0 1 .25-2.35 2.55 2.55 0 0 0-.88-.27c-1.28 0-2.4.5-3.37 1.52a4.87 4.87 0 0 0-1.44 3.48c0 1.26.23 2.22.68 2.86.45.63 1.13.95 2.04.95a4.81 4.81 0 0 0 3.14-1.15 44.36 44.36 0 0 1-.42-5.04Zm13.92 9.67a7.86 7.86 0 0 1-5.23-1.77 6.12 6.12 0 0 1-2.22-4.93c0-1.87.66-3.81 2-5.82 1.5-2.28 3.26-3.42 5.26-3.42.99 0 2.13.26 3.44.79 1.6.65 2.4 1.4 2.4 2.25 0 .46-.16.87-.48 1.23-.34.4-.78.58-1.32.58-.4 0-.9-.21-1.47-.65-.57-.44-1.42-.66-2.57-.66-.72 0-1.51.71-2.36 2.14a7.34 7.34 0 0 0-1.22 3.56c0 1 .36 1.77 1.08 2.34.68.54 1.57.8 2.69.8.63 0 1.4-.23 2.32-.71a5.7 5.7 0 0 1 1.74-.73c.51 0 .94.19 1.3.56.37.36.56.78.56 1.26 0 .73-.8 1.47-2.41 2.2-1.44.66-2.6.98-3.51.98Zm4.23-21.6c-.5.33-1.12.9-1.85 1.72-.78.85-1.4 1.44-1.84 1.77a2 2 0 0 1-2.52-.07c-.37-.32-.56-.7-.56-1.12 0-.35.2-.73.6-1.15l1.03-.96a47.6 47.6 0 0 1 1.78-1.9c.86-.77 1.62-1.16 2.28-1.16.5 0 .94.17 1.3.5.36.33.55.7.55 1.12 0 .48-.26.9-.77 1.24ZM67.8 117.82a19.78 19.78 0 0 1-1.4-.04c-.39 0-.83.04-1.34.11a217.2 217.2 0 0 1 .28 8.98c0 2.17-.69 3.26-2.05 3.26-.52 0-.97-.16-1.35-.49a1.58 1.58 0 0 1-.62-1.27c0-.34.01-.85.04-1.53s.04-1.19.04-1.53c0-1.14-.08-3.59-.25-7.33-.59-.03-1.48-.1-2.66-.23-1.18-.13-1.77-.75-1.77-1.84a1.85 1.85 0 0 1 1.92-1.9c.35 0 1.15.06 2.4.17 0-.3-.02-.8-.06-1.5-.04-.6-.06-1.07-.06-1.4 0-.53.2-.97.58-1.32.39-.35.86-.52 1.4-.52 1.4 0 2.1 1.17 2.1 3.52l-.03 1.17a10.4 10.4 0 0 1 3.65.08c.76.26 1.14.84 1.14 1.73 0 .53-.19.98-.56 1.34-.36.36-.83.54-1.4.54Zm9.26-2.68c1-.74 1.65-1.11 1.96-1.11.91 0 1.37.6 1.37 1.82 0 .36-.44.94-1.32 1.74l-2 1.73c.02 1.9.02 4.44 0 7.6-.06 1.17-.2 1.9-.43 2.22-.22.3-.7.46-1.43.46-1.06 0-1.59-.57-1.59-1.71v-6.49l-.55.54c-.59.58-1.09.85-1.5.8-.89-.07-1.33-.6-1.33-1.6 0-.53.3-1.04.88-1.55l2.5-2.1v-7.97a1.76 1.76 0 0 1 1.83-1.81c1.08 0 1.61.6 1.61 1.81v5.62Zm17.1 5.9a419.7 419.7 0 0 0 .08 6.6c.04.4.06.69.06.89 0 .52-.2.96-.58 1.3-.38.35-.85.52-1.4.52a1.8 1.8 0 0 1-1.72-1.06c-1.2.44-2.46.67-3.75.67a6.31 6.31 0 0 1-3.39-.85 3.94 3.94 0 0 1-1.84-2.85 41.53 41.53 0 0 1-.55-6.33c0-1.23.14-2.63.43-4.2.18-1.07.82-1.6 1.9-1.6.55 0 1.02.17 1.4.52.4.34.59.77.59 1.3 0 .42-.07 1.07-.21 1.96-.14.88-.2 1.56-.2 2.02 0 1.33.04 2.5.13 3.5.1.99.23 1.81.4 2.46.24.1.47.19.69.24.22.06.44.09.65.09 1.05 0 2.2-.15 3.45-.46a244.13 244.13 0 0 0-.04-4.85c0-1.94.09-3.6.27-5.02.14-1.12.78-1.68 1.93-1.68.55 0 1.03.17 1.43.52.4.35.58.8.55 1.32-.18 3.6-.27 5.26-.27 4.98Zm12.67-2.19c-.94 0-1.5-.39-1.69-1.17-.38-.07-.76-.1-1.16-.1-2.27 0-3.41.31-3.41.93 0 .37.68.87 2.05 1.5 1.87.85 3.14 1.52 3.8 2 1.37 1 2.05 2.11 2.05 3.36a4 4 0 0 1-2.27 3.7 9.2 9.2 0 0 1-4.48 1c-1.26 0-2.4-.2-3.44-.58-1.42-.53-2.13-1.3-2.13-2.34 0-.94.56-1.41 1.69-1.41.43 0 1.06.13 1.88.4.82.28 1.45.42 1.9.42 1.91 0 2.88-.39 2.89-1.16 0-.48-.67-1.02-2-1.6a28.42 28.42 0 0 1-3.74-1.86c-1.33-.93-2-2.07-2-3.41 0-1.9 1.01-3.18 3.02-3.84 1.18-.39 2.97-.58 5.38-.58.95 0 1.64.12 2.1.37.62.33.93.94.93 1.83 0 1.7-.46 2.54-1.37 2.54Zm16.34-.45c-.8.9-1.77 2.13-2.9 3.67a235.82 235.82 0 0 1-2.95 3.94l1.43-.03c.38 0 .93.07 1.64.2.73.14 1.28.2 1.65.2.56 0 1.03.19 1.4.55.38.34.56.79.56 1.33 0 .53-.18.98-.55 1.33-.37.35-.84.52-1.41.52-.38 0-.93-.06-1.66-.2a9.83 9.83 0 0 0-1.63-.2c-2.11 0-4.1.18-5.93.53-.25.05-.45.07-.63.07-.52 0-.96-.14-1.33-.42a1.47 1.47 0 0 1-.62-1.24c0-.6.3-1.15.9-1.65 2.34-2 4.8-4.9 7.37-8.74a31.58 31.58 0 0 1-6.08-.27c-1.16-.16-1.74-.77-1.74-1.84 0-.52.18-.96.54-1.33.36-.37.82-.55 1.38-.55.46 0 1.16.05 2.1.15a23.2 23.2 0 0 0 5 .03c1.29-.08 2.25-.13 2.9-.13 1.17 0 1.76.48 1.76 1.45 0 .85-.4 1.72-1.2 2.63Zm9.94 11.71a7.85 7.85 0 0 1-5.23-1.77 6.12 6.12 0 0 1-2.22-4.93c0-1.88.67-3.81 2-5.82 1.5-2.28 3.26-3.42 5.26-3.42.99 0 2.13.26 3.45.79 1.6.65 2.39 1.4 2.39 2.25 0 .46-.16.88-.48 1.23-.34.4-.78.58-1.32.58-.4 0-.9-.21-1.47-.65-.57-.44-1.42-.66-2.56-.66-.73 0-1.52.71-2.37 2.14a7.35 7.35 0 0 0-1.22 3.56c0 1 .36 1.77 1.08 2.34.68.54 1.58.8 2.69.8.63 0 1.4-.23 2.32-.72a5.7 5.7 0 0 1 1.74-.72c.51 0 .95.19 1.3.55.37.37.56.8.56 1.27 0 .73-.8 1.47-2.4 2.2-1.44.66-2.62.98-3.52.98Zm20.56-11.7c-.8.9-1.77 2.12-2.9 3.66a235.82 235.82 0 0 1-2.95 3.94l1.43-.03c.38 0 .93.07 1.64.2.73.14 1.28.2 1.65.2.56 0 1.03.19 1.4.55.38.34.56.79.56 1.33 0 .53-.18.98-.55 1.33-.37.35-.84.52-1.41.52-.38 0-.93-.06-1.66-.2a9.83 9.83 0 0 0-1.63-.2c-2.11 0-4.09.18-5.93.53-.25.05-.45.07-.62.07-.52 0-.97-.14-1.34-.42a1.47 1.47 0 0 1-.62-1.24c0-.6.3-1.15.9-1.65 2.34-2 4.8-4.9 7.37-8.74a31.56 31.56 0 0 1-6.08-.27c-1.16-.16-1.73-.77-1.73-1.84 0-.52.17-.96.53-1.33.36-.37.82-.55 1.38-.55.46 0 1.16.05 2.1.15a23.2 23.2 0 0 0 5 .03c1.29-.08 2.25-.13 2.9-.13 1.17 0 1.76.48 1.76 1.45 0 .85-.4 1.72-1.2 2.63Z"/><g clip-path="url(#a)"><path fill="#000" d="M274.32 29.04a13.1 13.1 0 0 1-1.2-2.1c-.5-1.07-1.04-2.1-1.63-3.1-.2-.33-.45-.6-.76-.79a20.05 20.05 0 0 0-3.55-1.68 8.5 8.5 0 0 1-.75-.3 32.9 32.9 0 0 0-4.22-1.6c-1.53-.46-2.99-.26-4.37.6l-.29-.02a.83.83 0 0 0-.34.06l-.34.11c-.28.02-.55-.02-.81-.1a5.65 5.65 0 0 0-3.07-.23c-.79.15-1.59.16-2.39.03a2.9 2.9 0 0 0-1.03 0 6.5 6.5 0 0 1-2.48-.02 1.88 1.88 0 0 0-1.77.53c-.57.55-1.13 1.11-1.67 1.68-.34.35-.67.72-.98 1.1a11.08 11.08 0 0 0-2.2 4.5 30.78 30.78 0 0 1-1.06 3.58c-.2.55-.34 1.12-.42 1.7a40.41 40.41 0 0 0-.37 5.67 13 13 0 0 1-.14 2.04c-.26 1.75-.45 3.51-.55 5.28a323.71 323.71 0 0 0-.35 7.57c-.08 1.61-.06 3.2.07 4.8-.01.39-.06.77-.15 1.15-.25 1.12-.4 2.26-.44 3.4a41.98 41.98 0 0 0-.03 3.07c.05 1.54-.04 3.07-.25 4.57a13.3 13.3 0 0 0-4.56-.22c-1 .12-1.98.3-2.96.55-1.84.47-3.5 1.3-4.98 2.53a38.88 38.88 0 0 0-5.19 4.84c-.23.26-.41.54-.56.85-.9 1.88-1.92 3.7-3.05 5.45a18.49 18.49 0 0 1-2.3 2.92 77.2 77.2 0 0 1-5.52 5.18 3.97 3.97 0 0 0-.9.97c-.5.68-1.04 1.34-1.6 1.98a44.75 44.75 0 0 0-1.41 1.78 120.54 120.54 0 0 0-3.62 5.24c-.34.52-.72 1-1.14 1.43a10.82 10.82 0 0 0-2.7 5.08 9.33 9.33 0 0 0 .69 6.52l-.02.07-.01.08v.16l.01.08c0 .03.01.06.03.08.86.82 1.73 1.61 2.61 2.37l-.01-.01.04.04.03.02 1.18.99c1.97 1.63 3.92 3.3 5.85 5 1.4 1.24 2.78 2.52 4.13 3.83a35.91 35.91 0 0 0 5.98 4.73 104.05 104.05 0 0 1 6.4 4.38 1.24 1.24 0 0 0 .18.06H223.5c.11.09.23.16.35.23.14.08.3.14.45.18l.08.05c.5.3 1.02.5 1.59.59.53.07 1.06.17 1.58.28.1.07.23.11.35.13.62.07 1.23.18 1.84.33.63.16 1.28.25 1.97.28.1.03.19.07.28.12.1.05.18.1.28.13l.2.06a22.56 22.56 0 0 0 .27.3c.12.32.14.65.06.99-.18.7-.17 1.36.02 2 .25.87.72 1.42 1.4 1.65-.35.8-.62 1.65-.82 2.53a49.25 49.25 0 0 0-.7 3.62c-.16.31-.26.63-.31.98-.06.35-.1.71-.12 1.07l-.05.2-.01.21.01.21c0 .07-.01.13-.03.2 0 .08-.02.15-.03.23a4.4 4.4 0 0 0-.03.24.5.5 0 0 1-.05.05.37.37 0 0 0-.04.06.44.44 0 0 0-.04.07.19.19 0 0 0-.03.06 1.84 1.84 0 0 0-.05.23l.02.09a1.84 1.84 0 0 0 .06.22l.04.06.05.07.04.04a1.45 1.45 0 0 0 .12.1c.94.08 1.88.14 2.84.18 2 .09 4 .13 6 .13 1 0 2 .03 3.01.1 1.98.17 3.96.35 5.93.56.32.04.64.05.96.02a25.9 25.9 0 0 1 1.6-.06c2.02-.03 4.03-.08 6.04-.14 2.23-.07 4.45-.2 6.67-.36.4-.03.8-.04 1.2-.01 1.94.1 3.89-.02 5.82-.37 1.89-.35 3.78-.66 5.68-.95H278.36c.16.06.32.1.49.12a1.44 1.44 0 0 0 1.01-.26.52.52 0 0 1 .06-.06l.06-.06a.44.44 0 0 0 .13-.17l.04-.09.03-.1v-.28a2.66 2.66 0 0 0-.08-.33v-.16l.07-.13c.06-.32.04-.63-.04-.95a21.95 21.95 0 0 1-.66-3.86 9.05 9.05 0 0 0-.81-3.12 5.9 5.9 0 0 0 1.22-3.14c.18-2 1.13-3.22 2.85-3.66.47.04.92.16 1.35.36.92.4 1.85.52 2.8.33a7.03 7.03 0 0 0 3.8-2.1c-.03 0-.05.02-.07.04l-.06.05.35-.3.43-.36a3.25 3.25 0 0 1-.12.1 72.6 72.6 0 0 1 5.86-4.87c1.2-.9 2.42-1.78 3.67-2.63.93-.64 1.84-1.32 2.72-2.05a92.36 92.36 0 0 0 7.02-6.45l3.26-2.7a13.07 13.07 0 0 0 2.83-3.29l.1-.26a8.7 8.7 0 0 0-.47-6.02 15.8 15.8 0 0 0-.84-1.63 147.04 147.04 0 0 0-4.54-7.1l.01.01c-.23-.3-.52-.65-.87-1.02-1.3-1.4-2.62-2.78-3.97-4.16a59.1 59.1 0 0 0-4.46-4.12c-.39-.79-.84-1.52-1.37-2.21a93.53 93.53 0 0 1-4.44-6.32 34.19 34.19 0 0 0-2.25-3.1 26.19 26.19 0 0 0-5.9-5.34 13.64 13.64 0 0 0-6.73-2.28 2 2 0 0 0-.55-.11c-.63-.04-1.26-.06-1.89-.05-.59 0-1.17.05-1.74.14h-.01c0-.16-.02-.32-.08-.48a75.1 75.1 0 0 0-.01-2.88c.02-1.64-.02-3.28-.12-4.92-.04-.65-.14-1.28-.28-1.9a23.6 23.6 0 0 1-.53-8.5c.06-.67.09-1.33.07-1.99-.04-1.18-.02-2.36.05-3.54l.2-2.68c.17-1.73.2-3.47.11-5.21l-.25-5.21a8.4 8.4 0 0 0-1.49-4.44Zm-44.76 67.13c.09.06.16.12.22.2a57.53 57.53 0 0 1 4.31 11.16c.7 2.58 1.41 5.15 2.15 7.72a52.2 52.2 0 0 1 1.56 7.59l.02.12v.05l.09.67c.1.78.13 1.57.1 2.35a35.03 35.03 0 0 1-.13 2.52l.01.08.03.08.04.07.04.06.05.07.06.06.07.04.06.04c-.21.01-.42.04-.64.08-1.6.3-3.22.6-4.84.93a6.75 6.75 0 0 1-4.8-.81c-1.1-.46-2.2-1.2-3.26-2.25-2-1.96-3.98-3.95-5.94-5.97a55.4 55.4 0 0 1-6.04-7.47l-.33-.45a7.18 7.18 0 0 1-.86-1.5c-.2-.49-.34-.98-.41-1.5.33-.6.75-1.14 1.25-1.63 1.94-1.85 3.92-3.63 5.94-5.34a53.46 53.46 0 0 0 5.72-5.6l-.06.05.36-.31c.3-.27.58-.48.83-.62.38-.23.66-.54.86-.94a.97.97 0 0 0 .07-.08l.06-.07h.06l.08-.04a4.39 4.39 0 0 0 .1-.06c.03 0 .05-.02.07-.03h1.02c.2-.01.41 0 .62.03l.28.1a34.97 34.97 0 0 1 .71.23l.23.17c.07.08.16.14.24.2Zm54.95-1.95a.9.9 0 0 0 .16-.03c.17-.05.34-.07.51-.05.32.09.65.19.97.3.9.3 1.69.78 2.39 1.42a80.5 80.5 0 0 1 3.43 3.38c1.78 1.86 3.6 3.7 5.43 5.5 1.7 1.68 3.5 3.2 5.41 4.57l-.23.41a37.87 37.87 0 0 1-2.9 4.65 409.97 409.97 0 0 0-4.66 6.5 9.84 9.84 0 0 1-2.7 2.61c-.96.63-1.86 1.33-2.71 2.1a61.52 61.52 0 0 1-5.06 4.17c-.26.1-.54.16-.81.18a4.43 4.43 0 0 1-1.15-.1c-.77-.17-1.52-.4-2.26-.67a7.74 7.74 0 0 0-2.1-.48c-1.1-.1-2.13.1-3.1.58a36.42 36.42 0 0 1 .45-5.43 523 523 0 0 1 1.28-7.43c.45-2.57 1-5.16 1.64-7.8a67.16 67.16 0 0 1 2.4-7.68v-.02l.03-.08c.14-.36.3-.7.47-1.05.53-1.06 1.09-2.1 1.69-3.13l1.42-2.42Zm-51.63 6.16-.02-.04.02.04Zm40.18-29.12c-.01.21 0 .42.04.64a45.21 45.21 0 0 0 1.56 5.87 74.5 74.5 0 0 1 2.31 6.9c.7 2.52 1.24 5.09 1.62 7.7a154.32 154.32 0 0 1 .95 8.13 10.8 10.8 0 0 1 .13.2 65.6 65.6 0 0 0-2.57 8.38 80.1 80.1 0 0 0-.85 4 47.38 47.38 0 0 0-10.8-3.04 93.19 93.19 0 0 0-7.32-.82 39.01 39.01 0 0 0-7.52.2c-2.52.3-4.97.9-7.36 1.78-.84.32-1.7.57-2.56.77-1.38.31-2.58.9-3.63 1.77a492.1 492.1 0 0 1-1.56-5.83 54.87 54.87 0 0 0-1.84-5.76.1.1 0 0 0 .03-.02.64.64 0 0 0 .11-.12 2.59 2.59 0 0 0 .08-.13.5.5 0 0 1 .03-.08l.01-.09.01-.08v-.12c.55-2.3 1.04-4.6 1.48-6.92.5-2.62 1.05-5.24 1.64-7.84.57-2.51 1.16-5.02 1.76-7.51.57-2.38 1.1-4.76 1.56-7.16l.04-.1.01-.03v-.04.04-.01l.02-.03c.92-.2 1.78-.58 2.57-1.16l.64-.49c.1 1.12.16 2.24.2 3.36l.09 2.12.14 3.26c.04.93.22 1.81.56 2.65.37.96.87 1.81 1.48 2.55l-.03-.05.1.13c.06.09.14.17.22.24a1.69 1.69 0 0 0 .22.2v.01l.58.48a14.16 14.16 0 0 0 3.29 1.84h.02a45.32 45.32 0 0 0 1.84.61c1 .31 2.03.45 3.07.44a32.6 32.6 0 0 1 3.07.1h.06c.23 0 .46 0 .7-.03l.73-.09.25-.03a5.3 5.3 0 0 0 .58-.08 18.9 18.9 0 0 0 2.03-.45c.24-.07.48-.11.73-.14a5.87 5.87 0 0 0 2.84-1.14c.8-.59 1.47-1.31 2.03-2.18.55-.84.88-1.78.99-2.8.06-.37.11-.74.14-1.1.08-1.14.12-2.29.12-3.43 0-1.13 0-2.25-.02-3.36-.02-1.09-.03-2.17-.02-3.26.55.33 1.13.58 1.75.75.54.15 1.1.29 1.65.4Zm-20.98 85a.2.2 0 0 1 .06 0l.02-.02-.02.01h-.04l-.06.02.04-.01Zm.09 0v-.02l.02.01h-.02Zm.1-.03a.6.6 0 0 1 .07 0 .56.56 0 0 1-.12.02l.04-.02Zm-10.03-12.67.08.03.32.12c.33.1.66.14 1 .1.23.14.48.24.73.3 1.17.33 2.36.52 3.57.57 1.23.05 2.45.13 3.68.22l1.27-.01c2.15-.04 4.3-.1 6.44-.16 1.12-.04 2.24-.03 3.36.02 1.9.08 3.76-.15 5.57-.7.14 0 .29-.02.43-.07.13-.04.25-.07.39-.07.1.25.22.5.36.74.15.1.32.17.5.18a21.54 21.54 0 0 1 .62.08l.07.05.07.05.08.07c.07.08.14.18.2.29.21.42.5.79.85 1.1.35.3.74.55 1.16.72a1.86 1.86 0 0 0 .46.01l.25-.04.15.04a4.22 4.22 0 0 1 .47.12l.1.01c.62.03 1.2-.07 1.76-.31.58-.25.93-.72 1.05-1.39l.27-.05.13.35c.42 1.09.68 2.22.78 3.4a18.82 18.82 0 0 0 .58 3.42.44.44 0 0 0-.03.07.3.3 0 0 0-.03.08 2.32 2.32 0 0 1-.05.23v.16c-.1-.04-.2-.06-.3-.08-.2-.03-.41-.03-.62-.02-.2.02-.4.06-.58.13-1.88.22-3.75.5-5.6.83-.5.1-1 .15-1.5.17-2 .07-4.02.17-6.03.3-2 .12-4 .2-6.01.24l-6.17.12a9.9 9.9 0 0 1-3.08-.02c-1.99-.3-3.98-.47-5.98-.5a83.88 83.88 0 0 1-4.52-.16c-1.7-.1-3.41-.15-5.12-.12l.01-.09a2.1 2.1 0 0 0 .07-.32v-.21l-.02-.12c.04-.16.07-.33.09-.5a7.82 7.82 0 0 1 .14-1.06c.06-.06.1-.12.15-.2.04-.08.08-.17.1-.26l.02-.14v-.01a.4.4 0 0 0 .01-.08V151c0-.17 0-.34.03-.5.08-.14.13-.29.14-.45.09-.84.23-1.66.43-2.48.25-1.04.65-2.02 1.18-2.93a12 12 0 0 0 .68 2.29c.1.23.24.39.44.48.88.42 1.57.2 2.09-.66a.2.2 0 0 1 .07-.06h.05l.1.07a29.18 29.18 0 0 0 .44.59c.09.11.18.2.29.29.08.06.17.1.27.11.86.08 1.39-.38 1.58-1.37.18-.94.35-1.88.5-2.82Zm-8.87 10.59v.03-.03Zm35-100.63v-.02.02Zm-.02.07-.02.03-.01.04-.02.04a.62.62 0 0 0 .02-.07.1.1 0 0 1 .03-.04Zm-1.14-.46.01-.02v.02Zm-21.68-2.96v.03-.03Zm10.25 12.24c.56.1 1.13.17 1.7.18 1.03-.05 2-.34 2.9-.86.87-.5 1.76-.98 2.66-1.43a18 18 0 0 0 1.4-.84c.04.94.1 1.89.19 2.83.1 1.1.38 2.14.83 3.13v-.01c.42.88.9 1.72 1.45 2.51.15.22.32.42.52.58.3.26.6.5.91.74 0 .1.01.21.05.34a58.14 58.14 0 0 1 .06 5.1 66.64 66.64 0 0 0 0 3.35 18.04 18.04 0 0 1-.2 3.07v-.01c-.07.4-.17.8-.3 1.18a5.57 5.57 0 0 1-4 3.67c-1 .21-2 .45-2.98.71l-.06.01a14.66 14.66 0 0 1-2.02.2c-.9 0-1.82-.02-2.72-.05-.55-.01-1.1-.04-1.65-.08a10.9 10.9 0 0 1-1.99-.33c-.95-.27-1.88-.62-2.78-1.07a11.4 11.4 0 0 1-2.42-1.64c.02 0 .03.02.05.03a3.87 3.87 0 0 0-.23-.23 2.3 2.3 0 0 1-.12-.13.18.18 0 0 1-.03-.04l.01.01-.19-.24a6.25 6.25 0 0 1-1.44-3.64 174.6 174.6 0 0 1-.34-6.5 70.95 70.95 0 0 0-.2-3.6l.66-.52a16.4 16.4 0 0 0 2.25-2.17c.45-.52.79-1.12 1.02-1.78.36-1.02.61-2.08.77-3.16.02-.19.03-.37.02-.55.03-.28.04-.55.05-.83a8.24 8.24 0 0 0 2.43 1.3 29.84 29.84 0 0 0 2.04.45l1.7.32Zm-9.49-33.8c.22-.22.45-.4.71-.56l.6-.35c.41-.23.82-.47 1.22-.73.55-.35 1.14-.6 1.76-.76.66-.17 1.33-.3 2-.4l1.93-.24 1.99-.24c.68-.08 1.35-.1 2.02-.07a42.53 42.53 0 0 1 2.77.27h.01a36.82 36.82 0 0 1 2 .33c.74.13 1.46.32 2.17.57.23.12.44.26.63.43.22.19.4.41.54.67.04.19.1.37.17.55.08.2.23.32.44.33a11.05 11.05 0 0 1 1.5 3.87c.2 1.08.23 2.17.1 3.26-.08.8-.15 1.6-.2 2.4-.15.18-.21.39-.18.64.02.13.06.24.12.32a.6.6 0 0 0 .08.2c.2.34.46.43.8.27a.48.48 0 0 0 .27-.35c.02-.13.05-.25.06-.38l.08-.02c.1-.05.22-.1.33-.13.1-.04.2-.06.3-.07.03 0 .05.02.06.03l.04.01.05.12c.11.49.18.98.2 1.48.01.42.04.85.1 1.26a9.21 9.21 0 0 0-.08 1.54c.02.43-.02.86-.12 1.28a32 32 0 0 0-.19 1.18 5.97 5.97 0 0 1-.24.98l-.05.09-.06.08-.05.07a.35.35 0 0 0-.04.03.37.37 0 0 0-.04.02.37.37 0 0 0-.04.02l-.07.02-.14.05-.14.05h-.02l-.05.01-.05.01h-.1a.44.44 0 0 1-.08-.05.67.67 0 0 1-.1-.04c-.05-.34-.27-.5-.66-.49a.4.4 0 0 0-.38.26l-.01.02v.02c-.16.16-.2.33-.15.52a738.1 738.1 0 0 0-.08 3.66c-.01.27-.06.53-.16.79-.37 1-.75 1.97-1.15 2.9-.42 1.03-1 1.96-1.7 2.8-.69.8-1.5 1.45-2.43 1.94-.92.49-1.84 1-2.75 1.52-.96.56-1.98.77-3.06.62-1-.13-2-.3-3-.5h.02a3.47 3.47 0 0 0-.46-.1l-.15-.03-.07-.02c-.5-.1-.98-.26-1.46-.46a5.45 5.45 0 0 1-1.38-.83l-.36-.3a6.52 6.52 0 0 1-1.26-1.36l-1.14-1.78c-.5-.8-.9-1.66-1.2-2.57a25.45 25.45 0 0 1-.78-3.13c-.07-1.09-.1-2.18-.09-3.27 0-.25-.06-.43-.18-.55-.05-.15-.18-.27-.38-.36a.3.3 0 0 0-.3.02c-.25.14-.48.3-.7.5h-.35a2.17 2.17 0 0 1-.22-.08 4.63 4.63 0 0 1-.36-.29 4.74 4.74 0 0 1-.26-1.42l-.06-2.91a11.25 11.25 0 0 1 .46-3.4 27.26 27.26 0 0 0 .2-.3l.11-.13.03-.01a.39.39 0 0 0 .06-.04l.07-.05a.6.6 0 0 1 .08-.06c.12.05.22.12.3.22l.3.34c.33.35.64.33.94-.05a.31.31 0 0 0 .07-.25c.07-.06.11-.15.12-.26.03-.38.02-.77-.04-1.16a27.06 27.06 0 0 1-.24-4.95c.03-.57.1-1.13.24-1.68.23-.53.55-1 .96-1.4Zm26.53.26c.72.94 1.2 2 1.45 3.17.2 1 .35 2.02.43 3.04.12 1.69.2 3.37.25 5.05a28.9 28.9 0 0 1-.34 5.26c-.14.9-.17 1.8-.1 2.7a26.7 26.7 0 0 1-.11 5.01c-.19 1.62-.18 3.23.03 4.84l.02.17v-.06a37.48 37.48 0 0 1 .8 5.08c.08 1.04.12 2.08.1 3.12-.03 1.43 0 2.84.07 4.24a2.52 2.52 0 0 0-.88-.26h.02a16.2 16.2 0 0 1-1.11-.2 17.23 17.23 0 0 0-.99-.19c-.61-.1-1.2-.32-1.75-.64a91.6 91.6 0 0 0-1.4-.8 4.2 4.2 0 0 1-1.56-1.48l-.82-1.38a7.6 7.6 0 0 1-1.03-3.08c-.04-.53-.1-1.05-.15-1.57-.06-.53-.09-1.06-.09-1.6 0-.28-.04-.53-.14-.77.29-.3.55-.61.79-.96l.54-.78a10.7 10.7 0 0 0 1.36-2.85l.2-.48c.31-.63.54-1.3.7-1.98.16-.65.2-1.3.12-1.96l.05-1.5a2.1 2.1 0 0 0 1.72-.58c.16-.15.28-.34.37-.55.3-.77.48-1.57.57-2.41l.02-.19a22.1 22.1 0 0 0 .19-2.5c.02-1.08-.06-2.16-.23-3.24-.07-.38-.23-.7-.49-.97-.4-.4-.87-.54-1.4-.4l-.11.03c.03-.35.06-.7.11-1.05a10.8 10.8 0 0 0 .08-1.34l.03-.38a12.04 12.04 0 0 0-1.64-6.31c-.15-.26-.29-.51-.42-.77-.14-.27-.31-.5-.53-.7-.06-.1-.12-.18-.2-.27-.1-.14-.2-.26-.31-.37-.46-.45-1-.76-1.6-.94a22.93 22.93 0 0 0-3.83-.78l-.06-.01h-.08l-.35-.06-2-.21c-.68-.07-1.35-.07-2.03-.01a125.45 125.45 0 0 0-3.93.43c-.66.1-1.32.2-1.97.32a8.73 8.73 0 0 0-2.87 1.03c-.6.34-1.18.69-1.76 1.06-.35.22-.68.47-1 .75-.41.36-.75.79-1.02 1.27a1.86 1.86 0 0 1-.1-.18 10.77 10.77 0 0 0-.52 2.45 23.18 23.18 0 0 0 .15 5.46 1.44 1.44 0 0 0-1.29.23c-.43.35-.72.8-.88 1.36a17.9 17.9 0 0 0-.5 4.1c0 1.08.04 2.16.14 3.24.1 1.15.67 1.89 1.7 2.21a2.31 2.31 0 0 0 .95-.04c.01.18.02.36.01.54-.02 1.08.09 2.15.32 3.2a17.87 17.87 0 0 0 2.01 5.19c.54.93 1.17 1.79 1.87 2.58v2.02l-.3 1.76c-.16.95-.52 1.8-1.1 2.53-.64.85-1.37 1.6-2.2 2.24-.26.21-.51.43-.76.66a12.1 12.1 0 0 1-2.57 1.82c-.4.2-.83.34-1.27.39-.31.03-.63.05-.94.04l-.03-.04-.06-.08a.27.27 0 0 0-.06-.05.69.69 0 0 0-.14-.1.7.7 0 0 0-.41-.02l-.44.1c-.03.02-.06.03-.1.03.15-.5.23-1.01.25-1.56a55.7 55.7 0 0 0-.03-4.87c-.02-.42 0-.84.06-1.25.22-1.6.4-3.2.55-4.8a.61.61 0 0 0-.02-.07l-.03-.08a.32.32 0 0 0-.04-.07c0-.26 0-.5.02-.75l.12-5.39c.03-1.73.1-3.46.2-5.2.1-1.64.28-3.27.55-4.9.07-.41.1-.84.1-1.26-.02-1.2.04-2.4.16-3.59.09-.85.13-1.7.15-2.54 0-.46.08-.9.2-1.33a83.9 83.9 0 0 0 1.4-4.86 9.31 9.31 0 0 1 1.98-3.97 22.2 22.2 0 0 1 2.72-2.8c.34 0 .7.01 1.05.05.39.05.78.05 1.17-.01.6-.1 1.21-.1 1.8-.02a8.6 8.6 0 0 0 2.55-.04c.43-.08.85-.12 1.28-.12.52 0 1.04.08 1.54.27.6.21 1.2.21 1.8 0 .18.04.35.01.51-.07.75-.39 1.53-.62 2.35-.7.25-.03.5-.01.75.04 1.19.26 2.34.63 3.46 1.12 1.5.66 3.02 1.26 4.56 1.82.47.17.86.46 1.16.86.54.7.97 1.48 1.3 2.34.29.77.69 1.47 1.18 2.12Zm-22.3 81.87c2.45-.34 4.92-.42 7.4-.24 2.48.17 4.94.44 7.4.82a48.8 48.8 0 0 1 7.88 1.9l-.06-.03c.18.07.35.13.53.17l.58.2-.04-.02.04.02.08.02a1.7 1.7 0 0 1 .19.04h.02a5.02 5.02 0 0 1 1.12.6.6.6 0 0 0 .1.14l.06.05a3.25 3.25 0 0 0 .14.1h.04l-.25 1.64v.05a85 85 0 0 1-.34 1.69c-.39 1.85-.73 3.71-1.04 5.58a34.03 34.03 0 0 0-.44 5.45c0 .22-.02.44-.06.66-.04.18-.06.36-.07.55-.31.13-.56.36-.73.67a48.17 48.17 0 0 1-1.93 3.1c-.54.78-.99 1.61-1.36 2.5a14.45 14.45 0 0 1-1.61-4.29 14.6 14.6 0 0 1-.36-3.38.6.6 0 0 0-.27-.3.54.54 0 0 0-.46-.05.62.62 0 0 0-.36.3c-.1.42-.13.85-.1 1.28.09 1.38.35 2.73.8 4.05a18.8 18.8 0 0 0 1.79 3.82l.04.03c-.3.96-.5 1.94-.59 2.95-.06.65-.04 1.26.06 1.85l-.56.09a1.3 1.3 0 0 0-.47.15c-1.16.35-2.34.52-3.54.51-2.04 0-4.09.02-6.13.1-2.23.07-4.46.08-6.7 0-1.95-.06-3.9-.2-5.85-.43a4.39 4.39 0 0 1-.77-.25 6.08 6.08 0 0 0 .09-4.23.3.3 0 0 0 .2-.2 24.93 24.93 0 0 0 1.06-10.02.62.62 0 0 0-.35-.32.56.56 0 0 0-.46.02.63.63 0 0 0-.32.41c-.02.44-.02.88-.01 1.32.04 1.39-.03 2.77-.21 4.15-.11.8-.24 1.6-.38 2.38a12.28 12.28 0 0 0-3.47-6.41l-.03-.04-.14-.13a3.57 3.57 0 0 0-.23-.19l-.23-.17-.03-.02a2.07 2.07 0 0 0-1.08-.45h-.23l.03-.02a.22.22 0 0 0 .05-.06l.04-.07.04-.07a15.12 15.12 0 0 0 .24-3.14c-.03-.88-.11-1.76-.24-2.63v.03l-.02-.1v-.07a51.1 51.1 0 0 0-1.6-7.8c.25-.25.54-.44.86-.58 1.6-.68 3.2-1.31 4.84-1.9a36.6 36.6 0 0 1 7.4-1.78Zm24.25-38.95h.48l.3.01a2.91 2.91 0 0 0 .3.09l.18.05h.03l.1.02.06.03.06.03.08.02.08.04c.3.04.62.04.93-.01 1.1-.19 2.21-.2 3.32-.07 1.15.13 2.3.38 3.42.74l1.04.52a19.47 19.47 0 0 1 6.18 4.5c.66.73 1.29 1.49 1.86 2.29a111.5 111.5 0 0 1 4.7 7.06l1.4 1.74a8.4 8.4 0 0 1 .75 1.1.9.9 0 0 0 .02.37l.09.15a2.4 2.4 0 0 0 .28.32 74.34 74.34 0 0 1 3.58 3.22l2.16 2.04a28.85 28.85 0 0 1 3.86 4.45c.54.76 1.1 1.5 1.66 2.24a24.83 24.83 0 0 1 3.79 7c.5 1.44.49 2.84-.04 4.2-.13.13-.24.27-.35.42-.8 1.04-1.7 1.98-2.69 2.82a121.73 121.73 0 0 1-2.85 2.32c-.24.2-.47.42-.69.65a60.17 60.17 0 0 1-5.72 5.21 87.9 87.9 0 0 1-2.3 1.8c-1.55 1.16-3.1 2.33-4.67 3.48a76.76 76.76 0 0 0-6.34 5.24c-.7.66-1.48 1.2-2.33 1.62-.65.31-1.3.33-1.95.04a5.94 5.94 0 0 0-3.7-.37c-.86.18-1.5.68-1.92 1.49a19.7 19.7 0 0 0-1.84 5.36l-.18.1-.19.1-.2.03-.06-.3a9.63 9.63 0 0 1-.07-3.17c.15-1.08.34-2.16.57-3.23.04-.17.1-.35.16-.51.17-.4.25-.8.26-1.21l-.02-.05a.44.44 0 0 0-.22-.22.4.4 0 0 0-.31-.03c-.1.03-.2.1-.26.19l-.06.14c-.22.54-.38 1.1-.5 1.67-.1.57-.2 1.14-.28 1.7l-.04.27v.02l-.1.64c-.13.81-.21 1.62-.25 2.43a4.5 4.5 0 0 0 .3 1.85.33.33 0 0 1-.04.02l-.09.05a.34.34 0 0 0-.06.06.26.26 0 0 0-.07.06.85.85 0 0 0-.07.07l-.07.14c-.1.17-.16.36-.2.55-.04.2-.13.37-.26.52l-.2.05-.2.06h-.32a.58.58 0 0 0-.06-.14c0-.92.06-1.84.15-2.76a37.86 37.86 0 0 0 .24-4.15c-.01-1.1.15-2.18.48-3.22l.13-.39.19-.42.23-.53c.06-.24-.01-.43-.22-.55-.24-.14-.43-.08-.57.17a9.4 9.4 0 0 0-.46.97c-.22.5-.37 1.03-.45 1.58-.17 1.04-.26 2.1-.28 3.16a58.07 58.07 0 0 1-.16 3.38l-.01.25v-.02l-.05.33-.02.2-.03.37-.12 1.16c-.01.18 0 .35.02.51l-.24-.05h-.1l-.32.05a.3.3 0 0 1-.25-.05 5.78 5.78 0 0 0-.34-.32c.12-.89.2-1.79.23-2.7.04-1.14.1-2.28.16-3.43l.06-1.55c0-.36.07-.7.2-1.03.37-.97.77-1.93 1.2-2.88l.1-.17c0-.04.04-.14.1-.32.14-.47-.02-.7-.47-.68-.06 0-.1.03-.13.08-.5.95-.98 1.92-1.42 2.9-.12.26-.2.52-.26.8a18.02 18.02 0 0 0-.2 1.03l-.69 2.57c-.26 1-.54 1.99-.82 2.98a2.03 2.03 0 0 1-.2.47 1.87 1.87 0 0 0-.48-.04 31.64 31.64 0 0 1-.12-3.57c.07-.91.23-1.8.5-2.66l.12-.22c.49-.94 1.02-1.86 1.59-2.75.64-1 1.27-2 1.88-3.01a.16.16 0 0 1 .06-.03 2.24 2.24 0 0 1 .17-.06 3.06 3.06 0 0 1 3.51-1.3c1.52.27 3.03.63 4.52 1.07 1 .29 1.94.16 2.82-.37a22.2 22.2 0 0 0 4.08-3.25c.7-.7 1.46-1.28 2.29-1.76a13.4 13.4 0 0 0 4.27-3.86c1.16-1.62 2.33-3.2 3.54-4.77a48.28 48.28 0 0 0 4.6-7.29l.05-.02.08-.07a.6.6 0 0 0 .05-.07 1.18 1.18 0 0 0 .1-.23l.02-.05.06-.09a.59.59 0 0 0 .04-.08.5.5 0 0 1 .03-.08l.01-.08v-.08a11.98 11.98 0 0 0-.05-.24l-.06-.15a.74.74 0 0 0-.19-.16 1.3 1.3 0 0 0-.15-.07.77.77 0 0 0-.38.03.83.83 0 0 0-.12.06 72.28 72.28 0 0 1-4.48-3.9c-1.83-1.75-3.65-3.5-5.46-5.28-.93-.91-1.75-1.8-2.44-2.68a11.83 11.83 0 0 0-2.83-2.58 5.41 5.41 0 0 0-3.62-.95.7.7 0 0 0-.13-.1.88.88 0 0 0-.06-.03l-.08-.04h-.08l-.07-.01h-.09a6.6 6.6 0 0 0-.15.04c-.29.21-.53.48-.71.8-.61 1.05-1.2 2.1-1.8 3.16-.32.6-.63 1.2-.93 1.81l-.01-.15-.02-.13-.6-4.8c-.34-2.72-.85-5.4-1.54-8.04a84 84 0 0 0-2.3-7.38 39.86 39.86 0 0 1-1.76-6.47h.05l.1.05.09.04a.67.67 0 0 0 .17.06Zm-2.63 70.27v.17l-.12 2.55a5.6 5.6 0 0 0-.11-.22c-.1-.2-.24-.38-.4-.52.23-.65.44-1.31.63-1.98Zm-57.58-54.21a21.22 21.22 0 0 0 4.17-6.62c.1-.24.23-.47.38-.68a31.45 31.45 0 0 1 5.01-5.57c.51-.27 1-.59 1.45-.95a11.26 11.26 0 0 1 5.48-2.33c1.85-.25 3.68-.22 5.49.1l.39.09c.22.04.44.05.67.02.16-.01.32-.03.48-.07l1.13.14a26.2 26.2 0 0 0-.91 3.62 59.2 59.2 0 0 1-.61 2.95l-1.79 7.7c-.58 2.55-1.13 5.1-1.63 7.68-.42 2.17-.85 4.34-1.3 6.5-.24-.57-.45-1.14-.63-1.72a7.89 7.89 0 0 0-2.92-4.19 5.1 5.1 0 0 1-.89-.22 4.59 4.59 0 0 0-2.21-.13 4.36 4.36 0 0 0-.1-.04l-.07-.01H226l-.15.03a12.57 12.57 0 0 0-1.36 1.4l-.15.1a29.97 29.97 0 0 0-3.73 3.62c-.7.8-1.45 1.54-2.26 2.23-1 .83-1.99 1.7-2.96 2.6-.97.88-1.97 1.74-2.99 2.57a7.62 7.62 0 0 0-1.79 2.04l-.07.01h-.1l-.1.04a.43.43 0 0 0-.08.04l-.06.05a4.19 4.19 0 0 0 .43 3.8 45.82 45.82 0 0 0 6.64 8.6l5.69 5.86a15 15 0 0 0 6.74 4.18c.47.13.93.17 1.4.12 2.67-.3 5.32-.7 7.94-1.22a.4.4 0 0 0 .08.03l.08.04.07.04.05.01.05.04.1.06.05.03-.03-.03.18.15c.09.06.18.13.26.21a2.43 2.43 0 0 0 .3.28c.53.46.97 1.01 1.33 1.65.38.72.71 1.46.98 2.24l.01.03a127.3 127.3 0 0 1 .95 3.72c.25 1.05.37 2.1.38 3.18l-.05.14-.06.2-.08.16a.67.67 0 0 1-.07.1.12.12 0 0 1-.04.03.4.4 0 0 1-.1.02h-.32a3.57 3.57 0 0 1-.2-.06l-.32-.13v-.01c-.1-.65-.16-1.31-.19-1.98l-.01-.7a8.68 8.68 0 0 0-.46-2.6c-.27-.77-.57-1.53-.9-2.28a8.34 8.34 0 0 0-1-1.68c-.26-.32-.5-.32-.73 0-.1.13-.1.27-.01.4.38.61.72 1.26 1.01 1.94.22.5.43 1.01.62 1.53.37 1.03.55 2.1.54 3.22-.01.72.09 1.4.3 2.05a.42.42 0 0 0-.22.13c-.45.48-.7 1.07-.76 1.78-.06.77-.2 1.5-.44 2.23l-.18-.27c-.18-.27-.4-.49-.67-.65-.11-.06-.22-.11-.34-.14a22.46 22.46 0 0 0 .19-2.68c.03-1.1.09-2.22.18-3.33.03-.42-.02-.83-.16-1.23-.35-1-.68-1.99-1-2.97a.57.57 0 0 0-.13-.25c-.35-.36-.62-.3-.81.19.26 1.01.6 2 1 2.97.06.15.1.3.1.45.06.8.07 1.6.02 2.4l-.12 1.65a79 79 0 0 0-.16 3.03l-.16.2c-.06.1-.14.2-.22.27l-.2.22c-.06.08-.13.15-.22.21a.95.95 0 0 1-.14-.29c-.14-.47-.27-.95-.37-1.43a18.05 18.05 0 0 0-.35-1.48l-.03-.2a1.3 1.3 0 0 0-.05-.16.78.78 0 0 0-.1-.13l-.06-.05a88677715189.34 88677715189.34 0 0 1-.14-.09h-.01c.16-.76.27-1.52.33-2.29l.25-3.2c-.13-.37-.36-.48-.7-.32a.22.22 0 0 0-.12.16 31.81 31.81 0 0 0-.35 3.13c-.06 1.01-.2 2.01-.42 3a4.15 4.15 0 0 1-.18.24l-.12.12a5.08 5.08 0 0 0-.35.14.64.64 0 0 1-.11.03.55.55 0 0 1-.18-.16l-.19-.27a2.72 2.72 0 0 1-.17-.23 2.68 2.68 0 0 1-.09-.25l.02.05-.01-.06-.03-.1c.13-.43.2-.85.25-1.3.13-1.38-.42-2.26-1.64-2.64-1.4-.43-2.84-.74-4.3-.93a3.18 3.18 0 0 0-1-.24 4.77 4.77 0 0 1-1.8-.54c-.63-.33-1.26-.62-1.9-.87a1 1 0 0 0-.42-.32c-.5-.42-1.04-.8-1.61-1.16a98.87 98.87 0 0 1-6.1-4.13 41.17 41.17 0 0 1-3.7-3.07c-1.9-1.78-3.82-3.51-5.78-5.2-1.8-1.58-3.64-3.15-5.5-4.72l.02.02a11.9 11.9 0 0 0-1.83-1.6 8.07 8.07 0 0 1-.48-8.13 44.6 44.6 0 0 1 2.69-3.97c.85-1.13 1.69-2.28 2.5-3.44 1.56-2.22 3.19-4.39 4.88-6.49l-.04.07-.05.06c.35-.42.74-.8 1.17-1.14 1.9-1.53 3.68-3.2 5.36-5Zm19.73-9.7-.01-.07a.72.72 0 0 0-.26-.34l-.06-.03a.78.78 0 0 0-.41-.05 1.24 1.24 0 0 0-.87.9V78.7l.05.15.06.14a5.03 5.03 0 0 1-.85 1.55c-.6.76-1.26 1.47-1.97 2.12-.15.13-.3.23-.48.3-.53.2-.8.56-.8 1.09l.08.18c.1.15.23.21.39.2a2.66 2.66 0 0 0 1.73-.84c.49-.5.97-1 1.45-1.52a7.48 7.48 0 0 0 1.95-3.93Zm-25.05 24.29a.58.58 0 0 0 .55.18c.1-.02.2-.07.28-.13.67-.92 1.43-1.75 2.27-2.48a29.33 29.33 0 0 0 3.44-3.58 45.31 45.31 0 0 0 3.05-4.24.77.77 0 0 0 .01-.38.6.6 0 0 0-.41-.44.54.54 0 0 0-.56.1c-.24.3-.46.62-.67.94-.9 1.4-1.9 2.7-2.98 3.95-.53.6-1.1 1.17-1.72 1.69a19.04 19.04 0 0 0-3.4 3.76 3.26 3.26 0 0 1-.03.18v.07c0 .04.02.09.04.14l.06.13.07.11Zm85.54 29.14a.63.63 0 0 0 .11-.09.21.21 0 0 0-.04.03l-.07.06Zm14.86-12.15-.04.03.02-.02.03-.02h-.01Zm-13.95-28.15c-.34-.51-.72-.56-1.11-.12a.3.3 0 0 0-.06.33c.24.6.55 1.18.93 1.73l2.87 4.08a36.17 36.17 0 0 0 3.1 3.84c0 .02.02.03.04.05a.82.82 0 0 0 .11.08l.06.03c.07.02.13.03.2.03s.13-.01.2-.03a.8.8 0 0 0 .19-.11l.04-.05a.66.66 0 0 0 .19-.39.54.54 0 0 0-.02-.21c-.27-.47-.6-.9-.96-1.3a39.15 39.15 0 0 1-3.03-3.88c-.92-1.35-1.84-2.71-2.75-4.08Zm-10.46-8.26a.2.2 0 0 0-.1-.08 15.9 15.9 0 0 1-5.77-4.1c-.12-.13-.2-.28-.26-.46-.19-.68-.56-.88-1.12-.6-.09.04-.13.1-.13.2-.01.93.35 1.72 1.08 2.38.47.44.96.87 1.45 1.3a11.96 11.96 0 0 0 4.36 2.39h.07l.13-.04a.38.38 0 0 0 .17-.1c.05-.04.1-.1.13-.15a.47.47 0 0 0 .08-.19l.02-.14v-.15l-.04-.13a1.35 1.35 0 0 0-.07-.13Zm-29.37 54.3c-.04.08-.06.17-.08.26-.02.2.01.39.1.57.08.2.23.32.44.36a.6.6 0 0 0 .48.06.74.74 0 0 0 .33-.3c.29-.5.19-.9-.29-1.23-.39-.25-.71-.16-.98.28Zm-3.34-17c-.72.16-1.45.26-2.18.3-.37 0-.68.15-.93.42-.17.18-.21.4-.12.65.23.59.58.68 1.05.28.4-.04.78-.1 1.16-.2.73-.16 1.47-.25 2.2-.26.8-.02 1.52.18 2.18.6a118.9 118.9 0 0 0 .1 5.86c-.39-.19-.8-.32-1.24-.4-.95-.17-1.91-.28-2.87-.32a4.35 4.35 0 0 0-2.79.82c-.19.14-.34.3-.46.5-.28.5-.17.82.34 1 .14.04.26.01.36-.1.33-.34.71-.57 1.15-.68a7.94 7.94 0 0 1 5.58.65l.02.19c.08 1.38.12 2.76.12 4.14.11.56.41.73.91.52.1-.04.16-.12.18-.23.13-1.15.16-2.3.08-3.48l-.08-1.36a10.1 10.1 0 0 1 6.97-1.12c.22.05.4 0 .55-.16.4-.4.38-.76-.1-1.09l-.32-.06a11.17 11.17 0 0 0-3.88-.03c-1.14.19-2.24.53-3.3 1.01l-.05-1.28a87.42 87.42 0 0 1-.05-4.25 3.54 3.54 0 0 1 2.57-.67c1.3.15 2.5.6 3.62 1.34.49.18.78 0 .88-.53a.34.34 0 0 0-.1-.33 5.2 5.2 0 0 0-1.45-1 8.15 8.15 0 0 0-3.77-.77c-.63.02-1.2.18-1.72.47l.12-2.52c.01-.16 0-.31-.04-.45-.13-.5-.42-.65-.86-.44a.3.3 0 0 0-.18.24 30.18 30.18 0 0 0-.26 3.14 4.98 4.98 0 0 0-3.39-.4Zm-6.8-79.77a.51.51 0 0 0-.42-.34c-.22-.02-.43.01-.64.1-.52.22-.9.59-1.16 1.1-.22.46-.25.92-.08 1.4.2.58.6.88 1.19.92.33.07.67.07 1 0 .3-.06.49-.24.58-.53a.53.53 0 0 0-.06-.47c-.21-.33-.48-.41-.82-.24h-.1l-.37-.01a.75.75 0 0 1-.3-.1l-.01-.02v-.04l-.02-.03.01-.12a.77.77 0 0 1 .08-.2l.1-.18.11-.08c.12-.08.25-.14.38-.18.12-.05.23-.1.33-.18.27-.2.34-.47.2-.8Zm22.45.5-.33.03c-.36.06-.53.28-.53.66 0 .12.04.23.12.32.23.26.52.37.87.33a.2.2 0 0 1 .07.05c.13.13.17.29.1.47-.04.16-.11.3-.2.43h-.03a.4.4 0 0 0-.07.03.47.47 0 0 0-.07.03l-.06-.01-.16-.07c-.33-.13-.58-.03-.76.29-.06.09-.08.19-.07.3.06.4.28.64.67.73a1.39 1.39 0 0 0 1.43-.44c.19-.23.34-.49.45-.77.2-.54.16-1.06-.13-1.56a1.5 1.5 0 0 0-1.3-.81Zm-4.84-5.44-.03-.01h-.03a1.34 1.34 0 0 0 .06 0Zm-4.26.5a.84.84 0 0 0 .25-.07 7.86 7.86 0 0 1 1.6-.56 5.44 5.44 0 0 1 1.86-.09 6.46 6.46 0 0 1 .55.22 7.9 7.9 0 0 1 1.04.5.8.8 0 0 0 .07.05 2.91 2.91 0 0 0 .65.61c.01.03.04.06.07.09l.17.17c.06.07.12.13.2.18.16.1.33.11.5.04.3-.13.44-.37.39-.71a.43.43 0 0 0-.1-.22c-.31-.4-.66-.76-1.05-1.07a4.64 4.64 0 0 0-1.54-.85 4.6 4.6 0 0 0-.51-.21c-.19-.07-.38-.1-.59-.13h.05a3.04 3.04 0 0 0-.73-.04 7.14 7.14 0 0 0-1.8.34l-1 .33a1.6 1.6 0 0 0-.63.39.51.51 0 0 0-.14.48c.06.41.3.6.7.56Zm-7.94-.22a.18.18 0 0 1-.04.02l-.02.01.39-.15c.5-.18 1.01-.2 1.52-.04.51.15 1 .36 1.47.61.2.1.4.16.61.15.18 0 .32-.08.41-.24.22-.36.17-.67-.16-.93-.27-.11-.53-.23-.8-.36-.48-.23-.98-.4-1.5-.53a3.1 3.1 0 0 0-1.59.02c-.5.16-1 .35-1.48.58-.49.23-.93.54-1.34.9-.2.2-.41.39-.62.57-.13.11-.24.24-.33.38-.22.36-.17.67.16.94.07.04.15.07.23.08.08 0 .16 0 .23-.03.23-.12.44-.28.63-.48a5.46 5.46 0 0 1 2.23-1.5Zm10.72 3.07c-.24.53-.1.9.43 1.1.25.05.47 0 .68-.13.29-.2.36-.46.23-.8-.21-.5-.57-.66-1.06-.44a.53.53 0 0 0-.28.27Zm-10.23-.46a.53.53 0 0 0-.28.3c-.23.52-.07.9.47 1.14.45.05.77-.14.95-.58a.45.45 0 0 0 .01-.37c-.22-.57-.6-.73-1.15-.49Zm5.18 5.76a.27.27 0 0 0-.25.07 4.41 4.41 0 0 0-1.21 2.03.9.9 0 0 0 .02.6c.26.68.76 1 1.5.95.43.09.86.08 1.3 0 .16-.04.32-.11.45-.23.35-.31.36-.64.03-.99a.22.22 0 0 0-.22-.08c-.62.09-1.24.08-1.86-.02.14-.4.33-.76.56-1.11.08-.13.14-.26.18-.4.11-.46-.05-.73-.5-.82Zm3.3 8.05h.02l-.55.46c-.18.16-.39.28-.61.36-.77.28-1.58.4-2.41.34a7.07 7.07 0 0 1-2.92-.85.8.8 0 0 0-.7-.06c-.32.12-.45.35-.39.7.06.32.25.5.57.52l.04.03.1.04.03.02.03.02h.02a6.88 6.88 0 0 0 2.17.72c.59.1 1.19.14 1.8.11.2.02.4.02.62.01a3.61 3.61 0 0 0 1.65-.46c.48-.26.91-.58 1.3-.96a.61.61 0 0 0 .34-.6c0-.31-.14-.51-.43-.6-.25-.07-.46 0-.66.19l-.01.01Zm-8.04 102.67h-.07.07Z"/><path fill="#fff" d="M218.73 81.24c-1 2.48-2.39 4.69-4.17 6.6a50.92 50.92 0 0 1-5.36 5.01c-.43.34-.82.72-1.17 1.14l.05-.06.04-.07a117.1 117.1 0 0 0-4.88 6.5c-.81 1.15-1.65 2.3-2.5 3.43a44.64 44.64 0 0 0-2.7 3.95 8.07 8.07 0 0 0 .48 8.14l.3.23c.34.27.67.56.99.87a8.88 8.88 0 0 0 .55.5l-.02-.01c1.86 1.57 3.7 3.14 5.5 4.72 1.96 1.69 3.89 3.42 5.78 5.2a41.17 41.17 0 0 0 3.7 3.07 99.17 99.17 0 0 0 6.1 4.13c.57.36 1.1.74 1.61 1.16a1 1 0 0 1 .41.32c.65.25 1.28.54 1.9.87.57.3 1.17.48 1.81.54.34.03.68.1 1 .24 1.46.2 2.9.5 4.3.93 1.22.38 1.77 1.26 1.64 2.64-.04.45-.13.88-.25 1.3l.03.1.01.06-.02-.05.03.09.03.08.03.08.17.23.19.27c.05.07.1.12.18.16.04 0 .07-.02.1-.03a1.5 1.5 0 0 0 .36-.14 2.31 2.31 0 0 0 .19-.2l.11-.16c.22-.99.36-1.99.42-3 .07-1.06.19-2.1.35-3.13a.22.22 0 0 1 .12-.16c.34-.16.58-.05.7.31l-.25 3.21c-.06.77-.17 1.53-.33 2.28l.01.01a.5.5 0 0 1 .08.04l.06.05.06.05a.61.61 0 0 1 .1.13l.05.16c.02.07.03.13.03.2l.03.15c.14.5.25.94.32 1.33.1.48.23.96.37 1.43.03.11.08.21.14.29.09-.06.16-.13.23-.2l.2-.23c.07-.08.15-.17.2-.26l.01-.01.16-.2a79 79 0 0 1 .16-3.03l.12-1.66c.05-.8.04-1.6-.01-2.4-.01-.14-.05-.29-.1-.44-.42-.96-.75-1.95-1.01-2.97.19-.48.46-.55.8-.19.07.07.12.15.15.25.31.98.64 1.97.99 2.97.14.4.19.81.16 1.23-.1 1.11-.15 2.22-.18 3.34l-.06 1.21c-.03.5-.07.98-.13 1.46.12.03.23.08.34.14.27.16.5.38.67.65l.18.27c.23-.72.38-1.46.44-2.23.06-.7.3-1.3.75-1.78a.42.42 0 0 1 .23-.13 6.12 6.12 0 0 1-.3-2.05 8.95 8.95 0 0 0-.54-3.22c-.2-.52-.4-1.03-.62-1.53-.3-.68-.63-1.33-1.01-1.94a.33.33 0 0 1 0-.4c.24-.32.48-.32.73 0 .4.51.74 1.08 1.01 1.68.33.75.63 1.51.9 2.28.28.84.44 1.71.46 2.61l.01.69a16.81 16.81 0 0 0 .2 2l.3.12.22.07h.19l.11-.01c.04 0 .07 0 .1-.02.02 0 .04-.01.05-.03a.73.73 0 0 0 .07-.1l.08-.16.06-.2.05-.14c-.01-1.07-.13-2.13-.38-3.17a127.3 127.3 0 0 0-.95-3.73v-.03c-.28-.78-.6-1.52-1-2.24a6.13 6.13 0 0 0-1.62-1.93 1.9 1.9 0 0 0-.26-.22l-.18-.14.03.03a3.3 3.3 0 0 1-.2-.13l-.05-.01a.5.5 0 0 0-.07-.04.51.51 0 0 1-.08-.04.38.38 0 0 1-.08-.03c-2.62.52-5.27.92-7.94 1.22-.47.05-.93 0-1.4-.12a15 15 0 0 1-6.74-4.18c-1.9-1.96-3.78-3.91-5.69-5.86a47.7 47.7 0 0 1-6.64-8.6 4.19 4.19 0 0 1-.44-3.8.82.82 0 0 1 .16-.09l.09-.03a.7.7 0 0 1 .1 0l.07-.02a7.63 7.63 0 0 1 1.8-2.04 69.43 69.43 0 0 0 2.98-2.58c.97-.89 1.96-1.76 2.96-2.6.81-.68 1.57-1.42 2.26-2.22a29.97 29.97 0 0 1 3.73-3.62l.15-.1.33-.24a4.18 4.18 0 0 1 1.03-1.16l.15-.03H226.23l.09.05a4.58 4.58 0 0 1 2.22.13c.28.1.58.17.88.22a7.89 7.89 0 0 1 2.92 4.2c.18.57.39 1.14.62 1.7.46-2.15.9-4.32 1.31-6.5.5-2.56 1.05-5.12 1.63-7.68l1.79-7.69c.23-.98.43-1.96.6-2.95.23-1.25.53-2.45.92-3.62l-1.13-.14c-.16.04-.32.06-.48.07-.23.03-.45.02-.67-.02a4.6 4.6 0 0 1-.39-.1 17.88 17.88 0 0 0-5.49-.09c-2 .28-3.83 1.06-5.48 2.33-.45.37-.94.68-1.45.95a31.45 31.45 0 0 0-5.01 5.57c-.15.2-.28.44-.38.69Zm-9.26 21.35a.6.6 0 0 1-.23-.15l-.07-.11a.75.75 0 0 1-.1-.27v-.16l.02-.09c.97-1.4 2.1-2.66 3.41-3.76.62-.52 1.19-1.08 1.72-1.69a34.67 34.67 0 0 0 2.98-3.95c.21-.32.44-.63.67-.94a.54.54 0 0 1 .56-.1c.2.06.34.21.41.44.03.12.03.25 0 .38a45.31 45.31 0 0 1-3.06 4.24 29.31 29.31 0 0 1-3.44 3.57 15.4 15.4 0 0 0-2.27 2.49.64.64 0 0 1-.28.13.58.58 0 0 1-.32-.03Zm24.81-24.5.01.06a7.48 7.48 0 0 1-1.95 3.93 80.6 80.6 0 0 1-1.45 1.52c-.5.5-1.08.79-1.73.84a.41.41 0 0 1-.39-.2.69.69 0 0 1-.08-.18c0-.53.27-.9.8-1.1.17-.06.33-.16.47-.29.72-.65 1.37-1.36 1.98-2.12.39-.5.67-1.01.85-1.55l-.06-.14a.8.8 0 0 1-.05-.15v-.16l.02-.06c.06-.2.17-.38.32-.53.16-.15.33-.25.53-.3a.51.51 0 0 1 .22 0c.07 0 .13.02.19.05l.06.03a.72.72 0 0 1 .26.34Zm40.67-6.3h-.18a.74.74 0 0 1-.36-.15h-.05c.4 2.2 1 4.36 1.76 6.47a84.01 84.01 0 0 1 2.3 7.38c.69 2.64 1.2 5.32 1.55 8.03l.6 4.8v.14l.02.15c.3-.61.61-1.22.94-1.81.58-1.06 1.18-2.11 1.79-3.16.18-.32.42-.59.71-.8.03 0 .05-.02.08-.03l.07-.01h.16l.08.01.08.04.06.03a.69.69 0 0 1 .13.1 5.4 5.4 0 0 1 3.62.95c1.07.7 2.02 1.55 2.83 2.58a29 29 0 0 0 2.44 2.68c1.8 1.78 3.63 3.53 5.46 5.27a70.69 70.69 0 0 0 4.48 3.9.83.83 0 0 1 .12-.06.81.81 0 0 1 .38-.02l.15.07a.74.74 0 0 1 .19.16l.07.15.03.16.02.08v.08l-.02.08a.46.46 0 0 0-.03.08.59.59 0 0 1-.04.08l-.06.09-.01.06a1.18 1.18 0 0 1-.16.29l-.08.07a.48.48 0 0 1-.06.02 48.15 48.15 0 0 1-4.6 7.3c-1.2 1.56-2.37 3.14-3.53 4.76a13.4 13.4 0 0 1-4.27 3.86c-.83.48-1.6 1.06-2.3 1.76a22.2 22.2 0 0 1-4.07 3.25c-.88.53-1.82.66-2.82.37-1.5-.44-3-.8-4.52-1.08-.79-.14-1.54 0-2.24.45a22.66 22.66 0 0 0-1.27.85l-.09.03a.23.23 0 0 0-.08.04.16.16 0 0 0-.06.03c-.6 1.01-1.24 2.01-1.88 3a33.3 33.3 0 0 0-1.71 2.98c-.27.86-.43 1.75-.5 2.65-.07.96-.1 1.9-.09 2.86l.1.34a4.86 4.86 0 0 1 .1.38c.17-.01.33 0 .49.04l.04-.1c.06-.11.11-.24.15-.37.3-.99.57-1.98.83-2.98a526.45 526.45 0 0 1 .71-2.6c.05-.33.11-.67.18-1 .06-.28.14-.54.26-.8.44-.98.92-1.95 1.42-2.9.02-.05.07-.08.13-.08.45-.02.61.21.47.68-.06.18-.1.28-.1.32l-.1.18c-.43.94-.83 1.9-1.2 2.87-.13.32-.2.67-.2 1.03 0 .5-.03 1.03-.06 1.55a158.8 158.8 0 0 0-.16 3.43c-.03.91-.1 1.81-.23 2.7a5.21 5.21 0 0 1 .35.32.3.3 0 0 0 .24.05l.32-.05h.1l.24.05a1.9 1.9 0 0 1-.01-.5 104.8 104.8 0 0 1 .14-1.54l.02-.2.05-.33v.03l.01-.25c.09-1.13.14-2.26.16-3.4.02-1.06.12-2.11.28-3.15a6.34 6.34 0 0 1 .44-1.58c.14-.33.3-.65.47-.97.14-.25.33-.3.57-.17.2.12.28.3.22.55l-.23.53-.19.42-.13.39c-.33 1.04-.5 2.12-.48 3.22 0 .29 0 .57-.02.86-.02 1.1-.1 2.2-.22 3.3-.1.91-.15 1.83-.15 2.75l.06.14h.32l.2-.06.2-.05c.13-.15.22-.32.26-.52.04-.2.1-.38.2-.55l.07-.14a.85.85 0 0 1 .07-.07.26.26 0 0 1 .06-.06.37.37 0 0 1 .07-.06l.09-.05.03-.02a4.5 4.5 0 0 1-.3-1.85c.05-.8.13-1.62.27-2.42a8.73 8.73 0 0 0 .09-.67l.04-.26c.08-.57.17-1.14.29-1.71.1-.57.27-1.13.49-1.67l.06-.15c.07-.09.15-.15.26-.18a.4.4 0 0 1 .31.03c.1.04.17.12.22.22l.02.05c0 .4-.1.8-.26 1.2-.07.17-.12.35-.16.52a47.31 47.31 0 0 0-.57 3.23 9.63 9.63 0 0 0 .07 3.17l.06.3.2-.03.19-.1.18-.1c.36-1.9.97-3.68 1.84-5.36.42-.8 1.06-1.3 1.92-1.5a5.94 5.94 0 0 1 3.7.38c.65.29 1.3.27 1.95-.04a9.75 9.75 0 0 0 2.33-1.62 76.75 76.75 0 0 1 6.34-5.24c1.56-1.15 3.12-2.32 4.67-3.49.77-.58 1.54-1.18 2.3-1.79 2-1.6 3.91-3.34 5.72-5.21a9.5 9.5 0 0 1 .65-.6c.96-.77 1.92-1.56 2.89-2.37 1-.84 1.89-1.78 2.69-2.82.1-.15.23-.29.35-.42.53-1.36.54-2.76.04-4.2a24.85 24.85 0 0 0-3.79-7 60.06 60.06 0 0 1-1.66-2.24 28.85 28.85 0 0 0-3.86-4.45L304 94.01a74.33 74.33 0 0 0-3.58-3.22 2.96 2.96 0 0 1-.28-.32l-.08-.15a.9.9 0 0 1-.02-.38v-.04a8.4 8.4 0 0 0-.75-1.05l-1.41-1.74a110.99 110.99 0 0 0-4.7-7.06c-.57-.8-1.2-1.56-1.86-2.28a19.47 19.47 0 0 0-6.18-4.5l-1.04-.53c-1.13-.36-2.27-.61-3.42-.74-1.1-.14-2.21-.11-3.32.07-.31.05-.62.05-.93 0-.03 0-.05-.02-.08-.03a.41.41 0 0 1-.07-.02l-.07-.03a.3.3 0 0 1-.06-.03 1.13 1.13 0 0 1-.13-.02 1.13 1.13 0 0 1-.19-.05 2.04 2.04 0 0 1-.28-.09h-.61Zm10.18 11.15a.2.2 0 0 1 .1.08l.06.13.04.13c.01.05.02.1.01.15l-.01.14a.47.47 0 0 1-.09.19.62.62 0 0 1-.13.15.38.38 0 0 1-.17.1l-.13.04H284.66l-.08-.03a11.96 11.96 0 0 1-4.2-2.37 47 47 0 0 1-1.45-1.29 3.1 3.1 0 0 1-1.08-2.38c0-.1.04-.16.13-.2.56-.28.93-.08 1.12.6.05.18.14.33.26.47a15.9 15.9 0 0 0 5.77 4.1Zm9.45 8.22c.4-.44.77-.4 1.11.12.9 1.37 1.83 2.73 2.75 4.08a39.16 39.16 0 0 0 3.03 3.87c.37.41.69.84.96 1.3.02.08.03.16.02.22a.7.7 0 0 1-.19.4l-.04.04a.8.8 0 0 1-.18.1.69.69 0 0 1-.2.04c-.07 0-.14 0-.2-.03a.28.28 0 0 0-.07-.03 1.66 1.66 0 0 1-.11-.08l-.05-.05a36.17 36.17 0 0 1-3.1-3.84c-.94-1.36-1.9-2.72-2.86-4.08a8.06 8.06 0 0 1-.93-1.73.3.3 0 0 1 .06-.33Zm15.02 28.3.04-.03v-.01s0 .02-.02.02l-.02.02Zm-14.7 12.03a.63.63 0 0 1-.12.09l.07-.06a.26.26 0 0 1 .04-.03Zm-36.98-21a36.3 36.3 0 0 0-14.8 2.04 82.2 82.2 0 0 0-4.84 1.9c-.32.13-.6.32-.87.56l.1.37a51.05 51.05 0 0 1 1.51 7.47v-.03.06l.02.1v-.02c.13.87.21 1.75.24 2.63a15.12 15.12 0 0 1-.24 3.14l-.03.07-.05.07a.21.21 0 0 1-.05.06l-.03.02a1.73 1.73 0 0 1 .96.21c.12.07.24.15.35.24l.03.02.23.17.23.2.14.12.03.04-.04-.04c1.8 1.76 2.97 3.9 3.5 6.45.15-.79.28-1.58.39-2.38.18-1.38.25-2.76.21-4.15v-1.32a.63.63 0 0 1 .33-.41c.15-.08.3-.08.46-.03a.63.63 0 0 1 .38.4 25.25 25.25 0 0 1-1.1 9.94.3.3 0 0 1-.2.21l.12.45c.33 1.34.26 2.6-.2 3.78a4.08 4.08 0 0 0 .77.25c1.94.23 3.9.37 5.85.43 2.24.08 4.47.07 6.7 0 2.04-.08 4.09-.1 6.13-.1 1.2.01 2.38-.16 3.54-.51.14-.08.3-.13.47-.15l.56-.1c-.1-.58-.12-1.2-.06-1.84.1-1 .3-2 .59-2.95a.23.23 0 0 1-.04-.03 18.78 18.78 0 0 1-1.8-3.82 15.7 15.7 0 0 1-.79-4.05c-.03-.43 0-.86.1-1.28.08-.15.2-.25.36-.3a.54.54 0 0 1 .46.05.6.6 0 0 1 .28.3c-.02 1.14.1 2.26.35 3.38a16.3 16.3 0 0 0 1.6 4.28c.38-.88.83-1.7 1.37-2.5.68-1 1.32-2.03 1.93-3.1.17-.3.42-.53.73-.66 0-.19.03-.37.06-.55a3.6 3.6 0 0 0 .07-.76c.01-1.8.16-3.58.44-5.35.3-1.87.65-3.73 1.04-5.58.12-.56.23-1.13.33-1.69v-.02l.01-.03.25-1.63-.04-.01a1.22 1.22 0 0 0-.08-.05l-.06-.05-.06-.05a.6.6 0 0 1-.1-.13 5.02 5.02 0 0 0-1.12-.6h-.02a.67.67 0 0 0-.12-.03l-.07-.02a.6.6 0 0 1-.08-.02l-.04-.02.04.03a4.17 4.17 0 0 0-.58-.2c-.18-.05-.36-.11-.53-.18l.06.03a48.8 48.8 0 0 0-7.88-1.9 90.12 90.12 0 0 0-7.4-.82Zm-7.58 10.12c.73-.03 1.46-.13 2.18-.29a4.98 4.98 0 0 1 3.39.4c.03-1.06.12-2.1.26-3.14a.3.3 0 0 1 .18-.24c.44-.21.73-.06.86.44.04.14.05.3.04.45l-.12 2.52a3.7 3.7 0 0 1 1.72-.47 8.15 8.15 0 0 1 3.77.78 5.2 5.2 0 0 1 1.45.99c.1.09.13.2.1.33-.1.54-.39.71-.88.53a8.16 8.16 0 0 0-3.62-1.34c-.96-.1-1.81.12-2.57.67v.12a87.42 87.42 0 0 0 .1 5.41c1.06-.48 2.16-.82 3.3-1.01 1.3-.22 2.59-.2 3.88.03l.32.06c.48.33.5.69.1 1.1a.58.58 0 0 1-.55.15 9.94 9.94 0 0 0-6.97 1.12l.08 1.36c.08 1.17.05 2.33-.08 3.48a.27.27 0 0 1-.18.23c-.5.21-.8.04-.91-.52a62.98 62.98 0 0 0-.14-4.33 7.88 7.88 0 0 0-5.58-.65c-.44.11-.82.34-1.15.68-.1.11-.22.14-.36.1-.5-.18-.62-.5-.34-1 .12-.2.27-.36.46-.5.83-.59 1.76-.86 2.79-.82.96.04 1.92.15 2.87.32.44.08.85.22 1.23.4a118.9 118.9 0 0 1-.1-5.86 3.87 3.87 0 0 0-2.16-.6c-.74 0-1.48.1-2.21.27-.38.09-.77.15-1.16.19-.47.4-.82.3-1.05-.28-.1-.25-.05-.47.12-.65.25-.27.56-.41.93-.43Zm5.44 16.97c.02-.1.04-.18.08-.26.26-.44.6-.53.98-.28.48.33.58.74.3 1.23a.74.74 0 0 1-.34.3.58.58 0 0 1-.48-.06.59.59 0 0 1-.44-.36 1.01 1.01 0 0 1-.1-.57ZM247 28.05a4.42 4.42 0 0 0-1.67 1.95c-.13.55-.21 1.1-.24 1.68a26.83 26.83 0 0 0 .24 4.95c.06.4.07.78.04 1.16-.01.11-.05.2-.12.26.02.1 0 .18-.07.25-.3.38-.6.4-.93.05l-.3-.34a.72.72 0 0 0-.31-.22.6.6 0 0 0-.08.06l-.07.05a.4.4 0 0 1-.06.04.08.08 0 0 0-.03.01l-.1.13a2.35 2.35 0 0 0-.23.35c-.32 1.1-.46 2.2-.44 3.35l.06 2.91c.01.5.1.96.26 1.42a4.63 4.63 0 0 0 .36.29l.22.08h.36c.21-.2.44-.36.69-.5a.3.3 0 0 1 .3-.02c.2.1.33.21.38.36.13.12.19.3.18.55 0 1.1.02 2.19.09 3.28.2 1.06.46 2.1.78 3.12.3.9.7 1.77 1.2 2.57a258.05 258.05 0 0 1 1.1 1.71 8.08 8.08 0 0 0 1.3 1.43 20.87 20.87 0 0 0 .5.4c.38.3.8.54 1.24.73a8.38 8.38 0 0 0 1.53.48l.15.03a3.47 3.47 0 0 1 .46.1h-.02c1 .2 2 .37 3 .5 1.08.15 2.1-.06 3.06-.62.91-.52 1.83-1.03 2.75-1.52a8.07 8.07 0 0 0 2.43-1.94c.7-.84 1.28-1.77 1.7-2.8.4-.93.78-1.9 1.15-2.9.1-.26.15-.52.15-.79a738.3 738.3 0 0 1 .09-3.66c-.06-.19 0-.36.14-.52v-.02l.02-.02a.4.4 0 0 1 .38-.26c.4-.01.6.15.66.5.04 0 .07.02.1.03l.08.04.05.01h.1l.05-.02h.02l.14-.05a21.13 21.13 0 0 1 .33-.14l.05-.07.06-.08a2.41 2.41 0 0 1 .08-.13c.1-.3.16-.62.21-.94a32 32 0 0 1 .19-1.18c.1-.42.14-.85.12-1.28-.02-.51 0-1.02.07-1.54-.05-.41-.07-.84-.1-1.26a8.02 8.02 0 0 0-.24-1.6.29.29 0 0 0-.04-.01.17.17 0 0 0-.05-.03 4.16 4.16 0 0 0-.71.22 6.7 6.7 0 0 1-.07.38.48.48 0 0 1-.27.35c-.34.16-.6.07-.8-.27a.62.62 0 0 1-.08-.2.64.64 0 0 1-.12-.32.78.78 0 0 1 .17-.64c.06-.8.13-1.6.22-2.4.12-1.1.08-2.18-.1-3.26a10.33 10.33 0 0 0-1.5-3.87c-.22-.01-.37-.12-.45-.33a3.35 3.35 0 0 1-.17-.55 2.63 2.63 0 0 0-1.17-1.1 13.5 13.5 0 0 0-2.9-.7l-1.27-.2h-.01l-.73-.09-2.04-.18c-.67-.03-1.34-.01-2.02.07l-2 .24-1.91.24c-.68.1-1.35.23-2.01.4-.62.16-1.21.41-1.76.76-.4.26-.8.5-1.22.73l-.6.35Zm13.12 24.26h-.01l.01-.01c.2-.2.41-.26.66-.19.29.09.43.29.43.6 0 .27-.1.47-.33.6-.4.38-.83.7-1.3.96-.52.29-1.08.44-1.66.46h-.62c-.61.02-1.21-.02-1.8-.12a6.88 6.88 0 0 1-2.22-.74l-.03-.02a2.43 2.43 0 0 0-.14-.07c-.32-.03-.5-.2-.57-.52-.06-.35.07-.58.38-.7a.8.8 0 0 1 .71.06 3.35 3.35 0 0 0 .16.09c.87.44 1.79.7 2.76.76.83.06 1.64-.06 2.4-.34.23-.08.44-.2.62-.36l.55-.46Zm-3.57-7.98c.07-.07.15-.1.25-.07.45.09.61.36.5.81-.04.15-.1.28-.18.4-.23.36-.42.73-.56 1.12.62.1 1.24.11 1.86.02.08-.01.16.01.22.08.33.35.32.68-.03.99a.93.93 0 0 1-.46.22c-.43.1-.86.1-1.3.01-.73.05-1.23-.27-1.5-.96a.88.88 0 0 1-.01-.6c.23-.8.63-1.48 1.2-2.02Zm-5.2-5.54a.53.53 0 0 1 .27-.29c.54-.24.93-.08 1.15.49.05.12.05.24 0 .37-.2.44-.51.63-.97.58-.53-.23-.69-.61-.46-1.15Zm10.93 1.27c-.53-.2-.67-.57-.43-1.1a.53.53 0 0 1 .28-.27c.5-.22.85-.07 1.06.45.13.33.06.6-.23.79a.84.84 0 0 1-.68.13ZM251.1 35.9c.01 0 .03 0 .04-.02a5.46 5.46 0 0 0-2.22 1.5c-.2.2-.41.36-.64.48a.41.41 0 0 1-.23.03.59.59 0 0 1-.23-.08c-.33-.27-.38-.58-.16-.94.1-.14.2-.27.33-.38l.62-.56c.4-.37.85-.68 1.34-.91.48-.23.98-.42 1.48-.57a3.1 3.1 0 0 1 1.59-.03c.52.12 1.02.3 1.5.53.27.13.53.25.8.36.33.26.38.57.16.93a.46.46 0 0 1-.4.24c-.22.01-.43-.04-.63-.15a7.95 7.95 0 0 0-1.46-.61 2.37 2.37 0 0 0-1.52.04l-.39.15h.02Zm8.23.13a.84.84 0 0 1-.25.08c-.4.04-.63-.15-.69-.56a.51.51 0 0 1 .14-.48c.18-.18.39-.31.63-.4.33-.1.67-.2 1-.32a7.14 7.14 0 0 1 1.8-.34c.24-.02.49 0 .73.04h-.05c.2.02.4.06.59.13a4.58 4.58 0 0 1 .52.22c.56.18 1.07.46 1.53.84.39.31.74.67 1.05 1.07.06.06.08.13.1.22.05.34-.08.58-.4.71a.54.54 0 0 1-.5-.04.87.87 0 0 1-.19-.17 1.86 1.86 0 0 0-.17-.18.51.51 0 0 1-.08-.08 2.9 2.9 0 0 1-.3-.28 3.8 3.8 0 0 0-.45-.42 5.53 5.53 0 0 0-1.14-.53 6.46 6.46 0 0 0-.57-.2h-.16a5.45 5.45 0 0 0-1.53.13c-.55.13-1.09.32-1.6.56Zm3.98-.44h.03c0 .01 0 .02.02.02a1.37 1.37 0 0 1-.05-.02Zm4.54 5.48.33-.02c.57.02 1 .3 1.3.81.29.5.33 1.02.13 1.56-.11.28-.26.54-.45.77a1.39 1.39 0 0 1-1.42.44c-.4-.09-.63-.33-.68-.73a.45.45 0 0 1 .06-.3c.19-.32.44-.41.77-.29l.16.07h.06a.46.46 0 0 1 .07-.02.39.39 0 0 1 .07-.02l.02-.01c.1-.13.17-.27.22-.43a.44.44 0 0 0-.1-.47.2.2 0 0 0-.08-.05.97.97 0 0 1-.87-.33.46.46 0 0 1-.12-.32c0-.38.17-.6.53-.66Zm-22.54-.87c.2.03.34.14.42.34.14.33.07.6-.2.8-.1.07-.21.13-.33.18a1.55 1.55 0 0 0-.5.26l-.1.17a.77.77 0 0 0-.07.21V42.34l.01.02v.03c.1.05.2.08.31.09a4.13 4.13 0 0 0 .47 0c.34-.16.61-.08.82.25.1.15.12.3.06.47a.72.72 0 0 1-.58.53c-.33.07-.67.07-1 0-.6-.03-1-.34-1.2-.92-.16-.47-.13-.94.1-1.4.25-.51.63-.88 1.15-1.1.2-.09.42-.12.64-.1Zm12.18 22.38c-.57-.01-1.14-.07-1.7-.18a103.84 103.84 0 0 1-3.74-.78 5.41 5.41 0 0 1-1.13-.46 8.24 8.24 0 0 1-1.3-.83c0 .28-.03.55-.05.83.01.18 0 .36-.02.55-.16 1.08-.41 2.14-.77 3.16a5.37 5.37 0 0 1-1.02 1.78 16.4 16.4 0 0 1-2.92 2.7l.04.28c.08 1.1.14 2.2.17 3.3a117.81 117.81 0 0 0 .34 6.51 6.25 6.25 0 0 0 1.63 3.88l.02.03a2.24 2.24 0 0 0 .27.29 3.87 3.87 0 0 1 .03.04c.74.65 1.55 1.2 2.42 1.64.9.45 1.83.8 2.78 1.07.66.17 1.32.28 2 .33a91.98 91.98 0 0 0 4.37.13 9.28 9.28 0 0 0 1.54-.13l.47-.07h.06c.99-.27 1.98-.5 2.99-.72a5.57 5.57 0 0 0 4-3.67c.12-.38.22-.78.28-1.18v.06l-.01.06c.16-1.05.24-2.11.22-3.18a66.64 66.64 0 0 1 0-3.35 96.04 96.04 0 0 0-.06-5.1 1.28 1.28 0 0 1-.05-.34c-.31-.24-.62-.48-.91-.74-.2-.16-.37-.36-.52-.58-.55-.8-1.04-1.63-1.45-2.51v.01a9.68 9.68 0 0 1-.83-3.13c-.09-.94-.15-1.89-.2-2.83a18 18 0 0 1-1.4.84c-.9.45-1.78.93-2.65 1.43-.9.52-1.87.8-2.9.86Z"/><path fill="#734800" d="M274.27 32.04a7.73 7.73 0 0 0-1.45-3.17c-.5-.65-.89-1.35-1.19-2.12a9.52 9.52 0 0 0-1.29-2.34c-.3-.4-.69-.7-1.15-.86a73.34 73.34 0 0 1-4.57-1.82 18.18 18.18 0 0 0-3.46-1.12 2.3 2.3 0 0 0-.75-.04c-.82.08-1.6.31-2.35.7a.82.82 0 0 1-.52.08c-.6.2-1.19.2-1.79-.01a4.4 4.4 0 0 0-1.54-.27 6.86 6.86 0 0 0-1.12.1c-.9.17-1.8.19-2.7.06-.6-.08-1.2-.08-1.81.02-.4.06-.78.06-1.17.01-.36-.04-.7-.06-1.05-.05a22.2 22.2 0 0 0-2.73 2.8c-.51.61-.95 1.3-1.3 2.03a11.2 11.2 0 0 0-.68 1.94 83.09 83.09 0 0 1-1.38 4.86c-.13.43-.2.87-.22 1.33 0 .85-.05 1.7-.14 2.54-.12 1.2-.18 2.4-.17 3.6 0 .42-.02.84-.09 1.26a46.83 46.83 0 0 0-.55 4.9c-.1 1.73-.17 3.46-.2 5.2a967.68 967.68 0 0 1-.14 6.13l.04.07.03.08.02.07c-.14 1.6-.33 3.2-.55 4.8-.06.41-.08.83-.06 1.25.08 1.62.09 3.25.03 4.87-.02.55-.1 1.07-.25 1.56l.1-.02.44-.11a.7.7 0 0 1 .41.03l.07.04.07.05.05.05.07.08.03.04c.31 0 .63-.01.94-.04a3.6 3.6 0 0 0 1.27-.4 12.1 12.1 0 0 0 2.57-1.81c.25-.23.5-.45.76-.66.83-.65 1.56-1.4 2.2-2.24.58-.73.94-1.58 1.1-2.53l.3-1.76V59.2a15.98 15.98 0 0 1-2.9-4.64c-.42-1-.74-2.04-.98-3.12a13.55 13.55 0 0 1-.32-3.2v-.55a2.31 2.31 0 0 1-.95.04c-1.04-.32-1.6-1.06-1.71-2.21-.1-1.08-.14-2.16-.14-3.24 0-.82.06-1.64.17-2.45.08-.56.19-1.1.34-1.65.15-.56.44-1.01.87-1.36a1.44 1.44 0 0 1 1.29-.23 23.18 23.18 0 0 1-.15-5.47c.04-.42.1-.83.18-1.24l.03-.15c.09-.35.18-.7.3-1.05l.11.18c.27-.48.6-.9 1.03-1.27.3-.28.64-.53 1-.75a44.8 44.8 0 0 1 1.75-1.06c.3-.16.6-.3.9-.44a8.73 8.73 0 0 1 1.97-.6 80.34 80.34 0 0 1 3.95-.55l1.95-.2c.68-.05 1.35-.05 2.03.02l2 .21.35.05a1.75 1.75 0 0 1 .07.01h.07a25.17 25.17 0 0 1 3.84.79c.6.18 1.13.5 1.59.94.11.1.22.23.31.37.08.09.14.18.2.27.22.2.4.43.53.7l.41.77a12.04 12.04 0 0 1 1.62 6.68c0 .45-.02.9-.08 1.35l-.11 1.05.1-.03c.55-.14 1.01 0 1.41.4.26.27.42.6.49.97a18.81 18.81 0 0 1 .04 5.74l-.02.19a9.4 9.4 0 0 1-.57 2.41c-.09.21-.21.4-.37.55a2.1 2.1 0 0 1-1.72.59l-.05 1.49c.08.66.04 1.31-.11 1.96a9.8 9.8 0 0 1-.7 1.98c-.08.16-.15.32-.2.48a10.74 10.74 0 0 1-1.37 2.85l-.54.78c-.24.35-.5.67-.79.96.1.24.15.5.14.77 0 .54.03 1.07.09 1.6.06.52.1 1.04.15 1.57a7.6 7.6 0 0 0 1.03 3.09l.82 1.37c.4.63.91 1.13 1.56 1.49l1.4.79a5.25 5.25 0 0 0 1.8.65h.06a.1.1 0 0 0 .03 0l.02.02c.28.05.55.1.83.17a8.15 8.15 0 0 0 1.1.19h.03c.3.04.58.12.84.26-.08-1.4-.1-2.81-.07-4.24a29.2 29.2 0 0 0-.1-3.12 37.48 37.48 0 0 0-.8-5.02l-.02-.17c-.2-1.6-.22-3.22-.03-4.84.2-1.67.23-3.34.1-5.01-.06-.9-.03-1.8.11-2.7.27-1.74.39-3.5.34-5.26-.04-1.68-.13-3.36-.25-5.05a23.81 23.81 0 0 0-.43-3.04Z"/><path fill="#333" d="m242.32 143.6-.08-.04a131 131 0 0 1-.51 2.82c-.2 1-.72 1.45-1.58 1.37a.52.52 0 0 1-.27-.11c-.1-.08-.2-.18-.29-.29a29.35 29.35 0 0 1-.44-.59 1.42 1.42 0 0 1-.1-.06c-.02-.01-.03-.02-.05-.01a.22.22 0 0 0-.07.06c-.52.86-1.21 1.08-2.09.66a.87.87 0 0 1-.44-.48c-.32-.8-.55-1.56-.68-2.29-.53.9-.93 1.89-1.18 2.94-.2.8-.34 1.63-.43 2.47-.01.16-.06.31-.14.44a3.43 3.43 0 0 0-.03.7.4.4 0 0 1 0 .08h-.01c0 .06 0 .1-.02.15-.02.1-.06.18-.1.27l-.15.2-.06.27c-.04.26-.07.52-.08.78-.02.17-.05.34-.1.5l.03.12a1.46 1.46 0 0 1-.03.4l-.04.13v.09c1.7-.03 3.4.01 5.1.12 1.51.1 3.02.15 4.53.17 2 .02 4 .18 5.98.5a9.9 9.9 0 0 0 3.08 0l6.17-.1c2-.05 4-.13 6-.26 2.02-.12 4.03-.22 6.04-.3.5-.01 1-.06 1.5-.16 1.85-.33 3.72-.61 5.6-.83.19-.07.38-.1.58-.13.2-.01.42 0 .62.02.1.02.2.04.3.08v-.24l.02-.08.03-.07c0-.03.01-.05.03-.08a.43.43 0 0 1 .03-.06v-.03a19.3 19.3 0 0 1-.58-3.4 12.06 12.06 0 0 0-.9-3.75l-.28.05a1.75 1.75 0 0 1-1.05 1.39 3.83 3.83 0 0 1-1.86.3 5.33 5.33 0 0 0-.62-.15l-.25.03a1.86 1.86 0 0 1-.46-.02 3.71 3.71 0 0 1-2.02-1.82c-.05-.1-.12-.2-.2-.28a.57.57 0 0 0-.07-.07.41.41 0 0 0-.07-.05.56.56 0 0 1-.07-.05 22.12 22.12 0 0 0-.6-.08 1.03 1.03 0 0 1-.52-.18 6.24 6.24 0 0 1-.36-.74c-.13 0-.26.03-.39.07-.14.05-.29.07-.43.07a16.5 16.5 0 0 1-5.57.7 44.37 44.37 0 0 0-3.36-.02 415.91 415.91 0 0 1-7.7.17c-1.23-.1-2.46-.16-3.7-.22-1.2-.05-2.4-.24-3.56-.56-.25-.07-.5-.17-.73-.3a2.4 2.4 0 0 1-1.32-.23Zm9.7 11.38h.04-.07.04ZM273.1 71.9a2.54 2.54 0 0 1-.04-.64c-.56-.11-1.1-.25-1.65-.4a7.36 7.36 0 0 1-1.75-.75c0 1.09 0 2.17.02 3.26.02 1.11.03 2.23.02 3.36 0 1.14-.04 2.29-.12 3.42-.03.37-.08.74-.14 1.1a6.32 6.32 0 0 1-1 2.82 8.16 8.16 0 0 1-2.02 2.17 5.87 5.87 0 0 1-2.84 1.14c-.25.03-.49.07-.73.14a18.9 18.9 0 0 1-2.6.53l-.26.03-.74.09c-.23.03-.46.03-.7.02h-.05a32.63 32.63 0 0 0-3.07-.1c-1.04.02-2.06-.12-3.07-.42a45.32 45.32 0 0 1-1.84-.61l-.02-.01-.02-.01a14.16 14.16 0 0 1-3.27-1.83l-.57-.48h-.01l-.01-.02a1.69 1.69 0 0 1-.21-.19 1.88 1.88 0 0 1-.32-.37l.03.05a9.29 9.29 0 0 1-1.48-2.55 7.98 7.98 0 0 1-.56-2.65 709.44 709.44 0 0 0-.23-5.38c-.04-1.12-.1-2.24-.2-3.36l-.64.49c-.79.58-1.65.97-2.57 1.16l-.01.03v-.03.04c-.02.01-.02.02-.02.03l-.03.1a175 175 0 0 1-1.57 7.16c-.6 2.5-1.19 5-1.76 7.51-.6 2.6-1.14 5.22-1.64 7.85-.44 2.31-.93 4.62-1.48 6.91v.2l-.02.09a.5.5 0 0 0-.03.08l-.03.07a2.59 2.59 0 0 1-.1.13.46.46 0 0 1-.06.05l-.03.02c.72 1.88 1.33 3.8 1.84 5.76.51 1.95 1.03 3.9 1.56 5.83a8.47 8.47 0 0 1 3.63-1.77c.87-.2 1.72-.45 2.56-.77a32.19 32.19 0 0 1 7.36-1.79c2.5-.3 5-.37 7.52-.19 2.45.18 4.9.45 7.33.82a50.22 50.22 0 0 1 9.17 2.3 3.86 3.86 0 0 1 1.63.74 69.14 69.14 0 0 1 3.42-12.38 10.8 10.8 0 0 0-.13-.2l-.02-.08a74.21 74.21 0 0 0-4.83-22.58 43.02 43.02 0 0 1-1.6-5.94Z"/></g><defs><clipPath id="a"><path fill="#fff" d="M192 3.23h129v148H192z"/></clipPath></defs></svg>