<svg xmlns="http://www.w3.org/2000/svg" width="348" height="155" fill="none" viewBox="0 0 348 155"><g clip-path="url(#a)"><path fill="#fff" d="M3 21.2c0-10 8-18 18-18h305c10 0 18 8 18 18v112c0 10-8 18-18 18H21c-10 0-18-8-18-18z"/><path fill="#000" d="M84.1 50.1a7 7 0 0 1-4.8-1.7 6 6 0 0 1-2-4.9q0-3 1.9-6 2.1-3.3 4.8-3.3 1.4 0 3 .6 2.2 1 2.2 2 0 .6-.3 1-.4.4-1 .4-.3 0-.6-.2l-.6-.5q-.9-.7-2.7-.7-1.5 0-3 2.6-1.2 2.4-1.2 4.1 0 1.8 1.3 3a5 5 0 0 0 4.9.5l1.6-.9.6-.2q.6 0 1 .4.3.4.3 1 0 1-2.2 2-1.9.8-3.2.8m20.4 0q-1 0-1.3-1l-.6-3.4a28 28 0 0 1-.2-5.6q0-2.6-1.3-2.6-1.8 0-3.3 1.6l-2 3.2q.1 5.4-.4 6.4-.4.8-1.2.8-.6 0-1-.4-.5-.3-.5-1l.1-.5q.2-.4.2-2.1V27.9q0-.6.3-1 .4-.3 1-.4 1.2 0 1.4 1.3l.2 2.5-.2 6.2v1.2q1.2-1.5 2.5-2.3t2.9-.8q2.3 0 3.2 1.5.6 1.2.7 3.7l.1 2.7.3 3 .5 3.2q0 .6-.4 1t-1 .4m11.3 0a7 7 0 0 1-4.8-1.7 6 6 0 0 1-2-4.9q0-3 1.8-6 2.1-3.3 4.8-3.3 1.5 0 3.1.6 2.2 1 2.2 2 0 .6-.4 1-.3.4-.8.4t-.8-.2l-.6-.5q-.7-.7-2.7-.7-1.5 0-2.8 2.6-1.3 2.4-1.3 4.1 0 1.8 1.2 3a5 5 0 0 0 5 .5l1.6-.9.6-.2q.5 0 .9.4t.4 1q0 1-2.2 2-2 .8-3.2.8m21.9-3.9q0 1.2-1.5 2.2-1.4.8-3.2 1.2-1 .6-1 1.3 0 .5.3 1t.9.7q1.4 0 2.4-.6l.6-.1q.4 0 .7.3t.3.8q0 .9-1.6 1.3-1.2.4-2.4.4a3 3 0 0 1-2.4-1.3q-1-1.1-1-2.5 0-.5.2-1-2.8-.3-4.6-1.9a6 6 0 0 1-1.8-4.7q0-3.6 1.7-6.2a6 6 0 0 1 5.2-2.7q2.4 0 3.9.8 1.8 1 1.8 3 0 1.4-1.6 2.6l-3 1.6-5.4 2.5q1.5 2.4 4.7 2.4 1 0 2.3-.4 1.6-.5 2.2-1.2.4-.7 1-.7.4 0 .9.3.3.4.4 1m-3.8-8q-1.2-1.2-3.4-1.2-3.4 0-4.6 5.3l4.4-2q2.6-1.3 3.6-2.2M40.8 78.3l-3 3.7-2.9 4h3l1.7.3q.9 0 1.4.5.6.5.6 1.4t-.6 1.3a2 2 0 0 1-1.4.5q-.5 0-1.6-.2l-1.7-.2a32 32 0 0 0-6.5.6q-.8 0-1.3-.4-.7-.4-.7-1.2 0-1 1-1.7 3.4-3 7.3-8.7a35 35 0 0 1-6-.3q-1.8-.3-1.8-1.8 0-.8.5-1.4t1.4-.5l2.1.1a23 23 0 0 0 5 0h2.9q1.8 0 1.8 1.4 0 1.2-1.2 2.6M56 79q-.2 2.2-2 2.2t-1.8-1.9V78a6 6 0 0 0-4.6 3.3v7.1q0 .8-.6 1.3a2 2 0 0 1-1.4.6q-.8 0-1.3-.6t-.5-1.3V76.4q0-.8.5-1.3t1.4-.5q1.6 0 1.9 1.6a9 9 0 0 1 5.5-1.9q3 0 2.9 3.8zM65.3 90a9 9 0 0 1-5.6-1.6 6 6 0 0 1-2.4-5q0-3.7 2-6.1a7 7 0 0 1 5.6-2.8q2.4 0 4 .8 2.2 1 2.2 3.3 0 1.6-1.7 2.7-.8.6-3.2 1.7l-4.8 2q.7.9 1.7 1.2t2.2.3q1.8 0 3.2-.7a4 4 0 0 1 1.9-.7q1.5 0 1.4 1.4 0 1.6-2.3 2.6-2.1.9-4.2.9m-.4-12q-1.3 0-2.3.8-.8.9-1.5 2.7l3.2-1.4q2-.9 3-1.6a5 5 0 0 0-2.4-.5m19.8-3q.2-4.7.5-6.6.2-1.5 1.8-1.6.9 0 1.3.5.6.5.6 1.3l-.4 6.1a87 87 0 0 0 0 13.3q0 .8-.5 1.3a2 2 0 0 1-1.3.4q-1 0-1.6-.9a8 8 0 0 1-4 1.2q-3.3 0-5.4-2a7 7 0 0 1-2.1-5.3q0-3.8 2.2-6.2a7 7 0 0 1 5.6-2.3q1 0 1.9.2zm-.3 4.6q-.4-.8-1.2-1.4-.7-.4-1.8-.4-2 0-3.1 1.2-1 1.2-1 3.6 0 1.6 1 2.6 1.2 1.2 2.7 1.1 1 0 1.7-.2l1.7-1.4zm19.4 1.5.1 7.5q0 .9-.5 1.3a2 2 0 0 1-1.4.6q-1.2 0-1.8-1.1-1.8.7-3.7.7T93 89a4 4 0 0 1-1.8-2.8q-.6-3.6-.6-6.4 0-1.8.4-4.2.3-1.5 2-1.6.8 0 1.3.6.6.4.6 1.3l-.2 2-.2 2a42 42 0 0 0 .6 5.9l.6.2.7.1q1.5 0 3.4-.4v-4.9q0-3 .3-5 .2-1.7 1.9-1.7.8 0 1.4.5t.6 1.4zm14.6 8.8q-1 0-1.7-1-.7-1.5-2-3.1l-2.4-3-1.8 1.4-.2 3.7q0 .8-.5 1.4a2 2 0 0 1-1.4.5q-2 0-2-2.4a52 52 0 0 1 .3-6.7V68.4q0-.8.6-1.3a2 2 0 0 1 1.4-.6q.8 0 1.4.6t.5 1.3V70l.2 1.5-.2 7.9q1.9-1.5 5.9-5.4a2 2 0 0 1 2.8 0q.6.5.6 1.3 0 .6-.6 1.2l-4 4 3 3.7q2.1 3 2.1 3.8t-.6 1.4a2 2 0 0 1-1.4.5m9.6.3q-2.7 0-4.5-1.8a7 7 0 0 1-2.2-5.3q0-3.1 1.7-5.6a7 7 0 0 1 6-2.9q3 0 4.5 2.3 1.5 2 1.5 5a9 9 0 0 1-1.7 5.7A6 6 0 0 1 128 90m.8-11.8a3 3 0 0 0-2.7 1.6q-.9 1.4-.9 3.1t1 2.6q.8.7 1.8.7a3 3 0 0 0 2.1-.8q1-1 1.1-2.6.3-4.5-2.4-4.6m26.7-1.6q-1.5 5.6-3 10.1a10 10 0 0 1-1.3 2.7q-.7.9-1.9.9-1.6 0-2.8-3.5l-.9-4.8-.3.8-2.2 5.5q-.2.6-.6 1-.6.8-1.8.9-.6 0-1.4-1.2T138 86a113 113 0 0 1-1.5-9.6q0-.8.6-1.3a2 2 0 0 1 1.4-.5q1.5 0 1.9 1.5l.3 2 .8 5.5 2.4-7.1q.5-1.8 2.1-1.9t2.1 2a57 57 0 0 1 1.5 7.8l2.2-8.6q.3-1.2 1.8-1.2.8 0 1.4.5t.6 1.3zm14 13.5q-.6 0-2-1.5l-2.4 1-1.7.3q-3.4 0-5-1.8-1.8-1.8-1.8-5.5 0-3.4 2.5-5.8a8 8 0 0 1 6-2.5q1.4 0 3.2.8 2.1.9 2.1 2.1 0 .6-.3 1l-.2 1.4a25 25 0 0 0 .3 5.9l1.2 2.8q0 .8-.6 1.3a2 2 0 0 1-1.3.5m-3.5-9.8.2-2.3-.8-.3q-2 0-3.4 1.5-1.5 1.5-1.5 3.5a5 5 0 0 0 .7 2.9q.8 1 2 1a5 5 0 0 0 3.2-1.2q-.4-3.5-.4-5m13.9 9.7q-3 0-5.2-1.8a6 6 0 0 1-2.2-4.9q0-2.8 2-5.8 2.2-3.4 5.2-3.4 1.4 0 3.5.8 2.4 1 2.4 2.2 0 .8-.5 1.2-.6.6-1.3.6t-1.5-.6q-.9-.7-2.6-.7-1 0-2.3 2.1a7 7 0 0 0-1.3 3.6q0 1.5 1.1 2.4 1 .8 2.7.8 1 0 2.3-.8 1.4-.7 1.8-.7.8 0 1.3.6t.5 1.2q0 1.2-2.4 2.2a9 9 0 0 1-3.5 1m4.2-21.6q-.7.5-1.8 1.7l-1.9 1.8a2 2 0 0 1-2.5 0q-.5-.6-.5-1.2t.6-1.1l2.8-2.9q1.2-1.2 2.3-1.2.7 0 1.3.5.5.5.5 1.2t-.8 1.2M68.8 117.8H66l.3 9q0 3.3-2 3.3a2 2 0 0 1-1.4-.5q-.6-.4-.6-1.2v-3l-.2-7.4-2.6-.2q-1.8-.3-1.8-1.9a2 2 0 0 1 2-1.9l2.3.2v-3q0-.7.5-1.2a2 2 0 0 1 1.4-.6q2 0 2 3.6v1.1a10 10 0 0 1 3.7.1q1.2.5 1.1 1.7 0 .8-.5 1.4a2 2 0 0 1-1.4.5m9.2-2.7q1.5-1 2-1 1.5 0 1.4 1.8 0 .5-1.3 1.7l-2 1.7v7.6q-.1 1.8-.5 2.2-.3.5-1.4.5-1.5 0-1.6-1.7v-6.5l-.5.5q-.9.9-1.5.9-1.5-.2-1.4-1.7 0-.8.9-1.5l2.5-2.1v-8q0-.8.5-1.3t1.3-.5q1.6 0 1.6 1.8zm17.2 6v7.4q0 .9-.5 1.3a2 2 0 0 1-1.4.6q-1.2 0-1.7-1.1-1.8.6-3.8.7t-3.3-.9a4 4 0 0 1-1.9-2.8q-.6-3.6-.5-6.4 0-1.8.4-4.2.3-1.5 1.9-1.6.8 0 1.4.6.6.4.6 1.3l-.2 2-.2 2a42 42 0 0 0 .5 5.9l.7.2.6.1q1.5 0 3.5-.4v-4.9q0-3 .2-5 .3-1.7 2-1.7.8 0 1.4.5t.5 1.4zm12.6-2.2q-1.4 0-1.7-1.2l-1.1-.1q-3.4 0-3.4 1 0 .5 2 1.4 2.8 1.3 3.8 2 2 1.5 2 3.4a4 4 0 0 1-2.2 3.7q-1.8 1-4.5 1-2 0-3.4-.6-2.2-.8-2.2-2.3t1.7-1.5q.6 0 2 .5l1.8.4q3 0 2.9-1.2 0-.7-2-1.6-3-1.3-3.7-1.9-2-1.3-2-3.4 0-2.8 3-3.8 1.8-.6 5.4-.6 1.4 0 2 .4 1 .5 1 1.8 0 2.6-1.4 2.6m16.4-.5-3 3.7-2.9 4h3l1.7.3q.8 0 1.4.5t.6 1.4-.6 1.3a2 2 0 0 1-1.4.5q-.7 0-1.6-.2l-1.7-.2a32 32 0 0 0-6.5.6q-.8 0-1.4-.4t-.6-1.2q0-1 1-1.7 3.4-3 7.3-8.7a34 34 0 0 1-6-.3q-1.8-.3-1.8-1.8 0-.8.5-1.4t1.4-.5l2 .1a24 24 0 0 0 5.1 0h2.9q1.8 0 1.8 1.4 0 1.2-1.2 2.6m9.9 11.7q-3 0-5.2-1.8a6 6 0 0 1-2.3-4.9q0-2.8 2-5.8 2.3-3.4 5.3-3.4 1.4 0 3.5.8 2.3 1 2.3 2.2 0 .8-.4 1.2-.6.6-1.4.6-.6 0-1.4-.6t-2.6-.7q-1 0-2.4 2.1a7 7 0 0 0-1.2 3.6q0 1.5 1.1 2.4 1 .8 2.7.8 1 0 2.3-.8 1.4-.7 1.8-.7.7 0 1.3.6.5.5.5 1.2 0 1.2-2.4 2.2a9 9 0 0 1-3.5 1m20.6-11.7-3 3.7-2.9 4h3l1.7.3q.8 0 1.4.5t.6 1.4-.6 1.3a2 2 0 0 1-1.4.5q-.7 0-1.6-.2l-1.7-.2a32 32 0 0 0-6.5.6q-.8 0-1.3-.4-.7-.4-.7-1.2 0-1 1-1.7 3.4-3 7.3-8.7a34 34 0 0 1-6-.3q-1.8-.3-1.8-1.8 0-.8.5-1.4t1.4-.5l2 .1a24 24 0 0 0 5.1 0h2.9q1.8 0 1.8 1.4 0 1.2-1.2 2.6M276.8 38.8l.1-2.3q0-2.2-.7-4.5 0-.3-.4-.6-1-.7-2-.1v-.1q.3-1.9.2-3.8l-.2-4.2q0-2-.6-3.9-.2-.6-.8-1-.9-.5-2-.8a14 14 0 0 0-3.8-.2q-2.4 0-4.8.5-2 .3-4-.1l-1-.2h-2.7q-2.1-.1-4.1.5l-1 .5q-2 1.3-2.8 3.4l-.1.4a66 66 0 0 0-.8 8.2q-.4-.2-1-.2-1 0-1.4 1.2a9 9 0 0 0-.5 3l.1 5.3q0 2 1.2 3.4.7.8 1.4 0l.4-.2.5 2.6a16 16 0 0 0 .9 3.8 35 35 0 0 0-7.7.7q-1.2-.1-2 .5-2.2 1.5-4 3.6-1.5 1.8-3.5 3.3-3 1.6-5.5 4.2a26 26 0 0 0-6 10.4 97 97 0 0 0-2.6 11.7l-2.9 9.2q-1.5 4.5-2 9.3a109 109 0 0 0-.4 14.3q0 1.1.4 2.2 1.5 4.7 5.2 8a53 53 0 0 0 11.2 7.6l-.2 1a106 106 0 0 0-1 13.7l-.1.1-.2.3v.6h.1v.1h.2v.1h.8a167 167 0 0 0 16.8.4 331 331 0 0 1 24 .4h15.2a10 10 0 0 0 3-.5h.3v-.1h.1v-.1l.1-.1.2-1.8-.2-5.9a40 40 0 0 0-1.1-8.5q1-.6 2.2-.9l1.2-.3q4.6-1 8.4-4l3.2-2.4a64 64 0 0 0 7.5-6 10 10 0 0 0 3-5q.4-2.6.3-5.1a95 95 0 0 0-1.9-12.6q-.4-4-1.5-7.9-1.2-3.8-3.8-6.8l-.1-.2v-.3l-.2-.2-2.2-6.4-1-3.7a16 16 0 0 0-4.5-9.2l-4.5-4a29 29 0 0 1-4.7-5.4q-1-1.6-2.6-2.6-1.5-.9-3-1.4-4.2-1.3-8.2-.4l.5-1.2q.5-1.5.5-3l.2-2.2q.3.4.9.6.8 0 1.3-.6.2-.2.3-.4.4-1.5.4-3.2zm-43.3 52.6 1.2 3q.8 2 1.4 4.1l-.7 1.7q-.9 2.9-1 5.9l-.5 6-.3.8q-.3 2.3-1 4.2l-2 6.1-.6-.8q-2.2-3-3.4-6.7-1.2-4-1.9-8l.6-.7 3-4.2a30 30 0 0 0 3.8-7.4zm1.3 22.2q2 2.2 4.5 3.4 3.8 1.8 7.1 4.1a17 17 0 0 0 10.3 3.2q1.2 0 2.2-.4l1.4-.3-.7 5.5q-.2 1.6 1.2 2.6 4 2.9 8.8 3.8 4.7.9 9.5 1.5 2.4 0 4.1-1.7l.7-.5.2 1 .6 3a56 56 0 0 1 .3 10.7h-.1v.1l-1.3.2a161 161 0 0 1-20.5-.1q-3.9-.3-7.9-.3v-4q.2-1.5.2-3v-.1l-.2-.2h-.2l-.1-.1h-.4l-.1.1-.3 1.1q0 1.5-.2 3l.1 3.1h-.3a275 275 0 0 0-17.1.2l-9.3-.5a75 75 0 0 1 1-14l3.9 1.8q4.5 1.8 9.4 1.5 3 0 5.7-1.5.3-.2.4-.6.7-2.2 1-4.6l.2-1.5a15 15 0 0 0 0-6l-.3-.3-.2-.2h-.3l-.1-.1a9 9 0 0 0-4-2q-1.3-.3-2.5.3-1.5.7-2.7 1.6a45 45 0 0 1-5.7 3.4h-.2l-1.5-2.4.5-1.3 1.7-5.1zm36.8 6h.2q2.3-.6 4.6-1.7 1.7-1 3.7-1.4l.4.7 2 5.2v.5l.1.1v.1h.1v.1a12 12 0 0 1-5.3 3l-.5-.5a77 77 0 0 0-5.3-6m13.2-31 .4 3.6a30 30 0 0 0 3.4 11 25 25 0 0 0 5.9 7v.2l.1.3-3 2.5-.5.6a19 19 0 0 0-5.3 5.6q-1 1.5-2 2.8l-.1-.2-2.4-5.8-.3-1.8q-1.7-4.5-.8-9.3.9-4.7 2-9.2.9-3.9 2.6-7.3m-32-69.9 5 .2q1.3.3 2.7.2 2.2 0 4.3-.4a19 19 0 0 1 5.7.2l1 .2.3.3q.7 1.5.7 3l.3 7.2v.6q-.4 1.4-.1 2.7 0 .2.2.3.8.3 1-.5l.2-.2.4-.1.4-.2.6 1.5q.4 2.3 0 4.4v2.4q.2 1-.5 1.8l-.6-.6-.2-.4q-.1-.4-.6-.7h-.3q-.3 0-.4.2l-.3.6v1l-.2 3.2q0 1.4-.5 2.5a26 26 0 0 1-2.3 4.7 6 6 0 0 1-2.2 2.9q-1.5 1.1-3.5 1.4l-4.8.4h-2.3q-1.5 0-3-1l-.5-.4q-1.5-1-3-2.6-1.2-1.5-1.9-3.4a27 27 0 0 1-1.1-5l-.6-3q0-.8-.7-1h-.3q-.7.4-1.2 1.2l-.2-.3-.4-.9-.2-4.4v-2.4q-.2-1.6.7-2.8.6.4.8 1t1 .4l.1-.2.3-1a44 44 0 0 1 1.1-10.2q1-1.9 3-2.4zm24.4 31.6q1.7.1 3.4.6 3 .7 4.8 3.4a30 30 0 0 0 6 6.7l2 1.7q4 3.1 5 7.7l1 3.6 2.7 8.4v.6l.2.2v.1l.1.1.1.1h.1q2.8 3.5 3.9 8 1 4.8 1.8 9.7.2 1.7.7 3.7 1.2 4.8.6 9.4 0 .8-.4 1.4a19 19 0 0 1-6.3 7.3q-2.8 1.7-5.4 4a19 19 0 0 1-8.4 4.4 22 22 0 0 0-4.7 1.6h-.2l-.2.2-.1.1v.1q-1.6.8-2.8 1.8-.5.4-1 .3a48 48 0 0 1-7.2-.6q-1 0-2.1-.4-2.8-.5-5.4-1.5a12 12 0 0 1-4.5-2.8l-.2-1.1q0-1.7.4-3.5l.6-2.5.8-3.5 2 1q.9.4 1.3 1.5v.2l-.7.7-1.2.6v.1l-.1.1v.6l.1.1.1.1h.2l.1.1h.2q1.2-.5 2-1.4 1-1 .2-2a7 7 0 0 0-3.8-3h-.2l.8-.4 1-.6q.5-.4 1.1-.5h.1l.7.3.6.3.2.2q3 2.3 5.7 5.3l3.9 4.2q.2.3.6.2a12 12 0 0 0 8-5.5 27 27 0 0 1 6.8-7.3l3-2.6q.6-.4.7-1v-.7h-.1v-.1l-.1-.1-.1-.4-.9-1q-3.6-3-5.8-7.2-1.4-2.7-1.8-5.7l-1.2-9v-.3l-.1-.3-.1-.1h-.5q-.7.3-1.1 1.1l-1.4 3.2q-2 4.5-2.8 9.2-.6 3.4-1 7-.5 4.5 1 8.9a22 22 0 0 0-4.7 1.6q-2.2 1.2-4.6 1.5l-.1.1-.5-.4-2-1.6q-1.5-1.3-3.2-.8l-1.2.4a4 4 0 0 0-2.5 3.3l-.2 1.3-.4 1.6q-1.5.1-3.2.5-2 .3-4 0l-2-.8a48 48 0 0 1-8-4.4l-1.2-.7-3.7-2.1q-1.6-1-3-2.3l.5-8a23 23 0 0 1 1.4-6.4V98q0-.6-.3-1.1l-1.5-3.7-1.3-3.8v-.1l.4-3.4-.2-.2h-.1l-.2-.1h-.5v.2a44 44 0 0 1-10.3 22v.2l.2.1.1.1q.3 2.5.9 5 .8 3.8 2.9 7.2l2.6 4.3v.3l.1.2h.1l.3.1 2 2.7.2.1h.4l.2-.1.4-.1 1.4-.7 3.6-2 3.2-2.4q.8-.3 1.4 0l2.7.8 1.2.8.7.4.2.5-1-.3a9 9 0 0 0-3.8-.2 4 4 0 0 0-3.4 2.8q0 .3 0 .8.4 1.8 2.4 1.8l.7-.1q.8-.2 1.3-.8l.7-1v-.3l-.1-.2h-.1v-.1h-.1l-.2-.1h-.5v.1h-.1l-.1.1v.2l-.1.1-.4.4q-.4.4-1 .4t-1-.2l-.1-.1-.1-.1v-.5l.3-.9.5-.4q1.5-1 3-.8 1.6.1 3.1.7a88 88 0 0 0-1.2 9q-1.3 1-2.7 1.2-5 .9-9.7-.6a43 43 0 0 1-14.2-7.4 33 33 0 0 1-4.4-4q-3.2-3.5-4.4-8v-2.3q-.2-5 .2-10 .3-4.8 1.8-9.5 1.2-4.2 2.7-8.3 1.4-4.1 2-8.6a33 33 0 0 1 3.5-10.9q2.4-4.1 6.1-7l2.8-1.9a17 17 0 0 0 4.2-4q1.5-2 3.8-3h1.1a39 39 0 0 1 7.7-.6 12 12 0 0 0 3.4 4.8l3.5 2.7q1.9.6 3.9.6h2.3l3.9-.6q2-.2 3.7-1.3a6 6 0 0 0 2-2.2l2.5-4 .1-.1h.1l1.1-.2h1l1-.2zm13.2 20h.7v-.1h.1V70l.1-.1q0-.6-.2-1.1a35 35 0 0 0-4.7-5.9h-.6l-.2.2v.5q.2.6.6 1l2.2 2.6a16 16 0 0 1 2 3m-57.3-6.4-.5-.1q-1 0-2 .5-1.5.9-2.4 2.5a12 12 0 0 0-1.6 4.8v.2h.1l.1.1h.1l.1.1h.5l.2-.2.2-.6q.3-2 1.3-3.7a6 6 0 0 1 3-2.5h1v-.2l.1-.2v-.5zm7.4 7.7h-.1l-.1.1-.1.2v.3l-.1.7-1.1 2.8a8 8 0 0 1-2 2.6v.1l-.1.2v.4h.1l.1.1.2.1h.3q.4 0 .7-.4 1.3-1.5 2.1-3a8 8 0 0 0 .9-4h-.1l-.1-.2h-.6m39.7 1.9v-.1h-.1v-.1h-.1v-.1h-.1l-.2-.1h-.4l-.1.1-.2.2v1l1 3.3a17 17 0 0 0 1.6 3.4h.5l.1-.1.1-.1v-.1a1 1 0 0 0 0-1 18 18 0 0 1-2.1-6.3m-38.6 33.4h-.1l-.1.1-.1.1v.1h-.1v.5l.1.1.1.1 1 .4 2.4 1.8 2.3 2.1h.4l.2-.1v-.1h.1v-.2l.1-.1v-.3l-.8-.9-2.6-2.4a6 6 0 0 0-3-1.2m33.4.2v-.1h-.1l-.1-.1h-.5a15 15 0 0 0-5.2 4.7v.2l.1.2h.1l.1.1h.7l.6-.7 2-2 2.3-1.7v-.1h.1v-.4zm-17.7 8.3-.3.2-.1.3v.5a1 1 0 0 0 .6.3h.2l.3-.2v-.3l.1-.1v-.2l-.1-.2-.2-.3h-.5m-38.3 4.1v.1h-.1l-.2.3v.4l.2.1 4.2 3.2 3.6 2.7h.5l.2-.2v-.6l-1-.9-7.1-5.2h-.2zm77.7.3-1 .6-7.7 6v.6h.1v.1h.1l.1.1h.4l1-.6a108 108 0 0 0 7.7-6.3v-.2l-.1-.1-.4-.2h-.1m1-16.5h-.2l-.1.1-.1.1-.1.2.1.9a29 29 0 0 0 2.6 4.8h.1l.1.1h.7v-.1h.1v-.2l.1-.2v-.1l-.4-.8-2.3-4.6-.1-.1h-.2v-.1h-.3m-76.6-2.4-1.2 2.5v.2l-.1.2-1.6 4v.1l.1.2.2.2h.7l.1-.2q.5-.6.6-1.4l1-2.6h.1v-.2l.2-.1.5-1.3.6-1.5v-.2h-.2v-.1l-.1-.1h-.6l-.1.1zm8.2-12.5-.1-.1-.1-.1-.2-.1h-.7q-.9.4-1.9.5h-2l-1-.1q-1.2-.4-2.1-1.1-.8-.6-1.5-1.5h-.6v.1l-.2.2v.4q.1.4.5 1 1 1.2 2.7 1.8a10 10 0 0 0 3.7.6q.9 0 1.7-.3l1.7-.7.1-.2v-.4m72.3-1.5h-.6l-.1.1v.1q-.3.8-.7 1.3a6 6 0 0 1-2.4 1.7h-.6q-1.5.3-3.1.2a6 6 0 0 0-3.4.8v.7l.1.2h.2v.1h.4q1.5-.6 3-.5 2.3.3 4.5-.7a5 5 0 0 0 3-3.6v-.1l-.1-.2zm-42.5-13h-.2l-.2-.1h-.2l-.2.1v.1h-.1v.1q-.2.7-.2 1.3l-.2 4.6a14 14 0 0 0 .3 4.6v.1l.1.1h.1v.1h.2v.1h.4l.1-.1h.1v-.2l.2-.2v-.1l-.2-1a24 24 0 0 1 0-4.4v-5m-18.4 22.6-.1.1-.1.1h-.1v.1l-.1.2v.5l1 .7q1.8.9 3.8 1.2l4.1.5 2.5-.2h.4l1.1-.3q1.7-.7 2.7-2.3t1.6-3.2v-.6h-.1l-.1-.1h-.1V93h-.6l-1.8 3.5q-.9 1.5-2.4 1.7l-.6.1q-1.6.3-3.3.1l-1.8-.1a12 12 0 0 1-5.7-1.9h-.3m25.6 1.4q-.4 0-.8-.3a8 8 0 0 1-3.4-3.8v-.2l-.2-.2-.2-.1h-.5v.1h-.1v.1l-.1.1v.2q.3 1.5 1.4 2.8.6.8 1.4 1.4a6 6 0 0 0 4 1.3 35 35 0 0 0 5.2-1.1 25 25 0 0 1 5-1.3v-.1h.1v-.3h.1v-.3l-.1-.1a2 2 0 0 0-1.8-.2l-5.6 1.7a8 8 0 0 1-4.4.3m-2.6-50-.4.2q-1 .6-2.2.8H259q-1.7-.2-3-1-.5-.3-.8 0-.4.6.1 1a8 8 0 0 0 4.5 1.3q1.5 0 3-.4a4 4 0 0 0 2-1.4v-.1q0-.3-.3-.5a1 1 0 0 0-.8 0m-4-10.5h-.5q-.3.1-.5.6-.8 1.1-.8 2.5v.4q.8 1 2 1.1t2.1-.4q.3 0 .4-.3.4-.6-.3-1h-.2q-1.5.9-2.8.1v-.2l.5-1.3.5-.8v-.5zm-10-6q.2-.9.9-1.3 1.7-1.2 3.7-.7h.5q.8.2.8-.6 0-.2-.2-.2a4 4 0 0 0-2.9-.6l-1.2.3q-2.2.6-2.6 2.7 0 .8.9.5zm20.4-1V30a8 8 0 0 0-3-1.8 6 6 0 0 0-3.9 0l-.4.2q-.6.5.1 1h.2q1.2-.4 2.4-.2a8 8 0 0 1 3.8 1.6q.7.3.8-.5m-4.2 1.1-.3.1q-.3.3-.3.8.2.5.6.6h.2q.3 0 .5-.3V32q0-.3-.2-.4zm-13.4 1.2v.3q.6.7 1.1.2.7-.6 0-1.2l-.3-.2q-.9 0-.7.8zm-7.8 3.8q-.3.3-.3.8 0 1.5 1.4 2h.8q.5-.3.7-.7v-.5q-.6-.4-1.2 0l-.2-.1-.2-.1v-.2h-.1v-.2l.1-.2.1-.1q1 0 .8-1 0-.1-.2-.2-1-.3-1.7.5m29.6.1v.5l-.1.1-.2.2a2 2 0 0 1-1.4-.1q-.7-.3-1 .4l.1.3a2 2 0 0 0 2 .7q1 0 1.5-.9t0-2q-.8-1.5-2.5-1l-.4.2q-.7.5 0 1 0 0 .1 0h1.6v.1l.1.2z"/><path fill="#fff" d="m280.6 51-4.7-.8-1.1.2h-1l-.6.1h-.5l-.2.1-.3.1h-.1l-2.1 4a6 6 0 0 1-2 2.2 8 8 0 0 1-3.7 1.3l-4 .5h-2.2q-2 0-3.9-.5-.2 0-.5-.3l-4.4-3.8a12 12 0 0 1-2-3.4l-8.8.6a9 9 0 0 0-3.8 3l-.8 1q-1.6 1.8-3.4 3l-2.8 2a22 22 0 0 0-7.2 9q-1.8 4.2-2.4 8.8-.6 4.5-2 8.6-1.5 4-2.7 8.3-1.5 4.6-1.8 9.5a90 90 0 0 0-.2 12.3q1.2 4.5 4.4 8a48 48 0 0 0 18.6 11.4q4.8 1.5 9.7.6 1.5-.2 2.6-1.1v-.1l.2-.1 1.1-9q-1.5-.5-3.1-.6-1.5 0-3 .8l-.5.4-.2.4-.1.5v.5l.1.2 1.1.2q.6 0 1-.4l.4-.4v-.1l.1-.2h.1v-.1h.1l.2-.2h.4l.3.4v.4a3 3 0 0 1-2.6 1.9q-2 0-2.4-1.8 0-.5 0-.8a4 4 0 0 1 3.4-2.8 9 9 0 0 1 4.8.5l-.2-.5-1-.7-1.4-.8-.7-.2-1.5-.4h-1.4l-1.6 1.3-2.9 1.9-.6.3-1.7 1-1.4.7h-.4l-.3.2h-.6l-.2-.2-2.2-3.1v-.2l-2.6-4.2a24 24 0 0 1-3-7.3l-1-5v-.1l-.1-.1v-.3q3-3.9 5.4-8a40 40 0 0 0 5-14h.6l.1.1.2.4q0 1.5-.5 3.2l.1.1v.1l1.3 3.7 1.8 5.1q-1 3-1.4 6.2l-.6 8q1.5 1.5 3.1 2.4l12.8 7.2q1 .5 2.2.7 2 .5 4 0l3.1-.4.6-2.9q.2-2.2 2.5-3.3l1.2-.4q1.8-.4 3.3.8l1.9 1.6.5.4h.1q2.4-.4 4.6-1.6l2-.9q1.4-.5 2.7-.7-1.5-4.4-1-9 .4-3.4 1-7a47 47 0 0 1 4.2-12.3q.4-.7 1-1.2h.4l.2.1v.1l.2.3v.4l-.2.2 1.4 8.7q.4 3 1.8 5.7 2.2 4.1 5.8 7.2l1 1v.4l.1.1v.3l.1.2v.3q-.1.6-.7 1l-2.3 1.9-2 1.7q-3.1 2.8-5.5 6.3-.6 1-1.5 2-2.5 2.7-6.5 3.5-.4 0-.6-.2l-3.9-4.2q-2.6-3-5.7-5.3l-.2-.2-.6-.3-.8-.3q-.6 0-1.1.5l-1 .6-.7.5h.1q2.6.8 3.8 2.8.7 1.1-.2 2.1a5 5 0 0 1-2 1.4h-.5v-.1h-.1v-.2h-.1v-.6l.1-.2 1.2-.6q.4-.3.6-.7l.1-.2q-.4-1-1.3-1.5l-2.1-1.1-1.3 6.1q-.4 1.8-.4 3.5l.2 1a12 12 0 0 0 4.5 3q2.5.8 5.4 1.4l2.1.5q3.6.5 7.1.5.6 0 1-.3 1.4-1 2.9-1.8v-.2h.1l.1-.1h.5q2.2-1.2 4.5-1.7a19 19 0 0 0 8.4-4.4q2.5-2.3 5.4-4l1.6-1.2q3-2.6 4.7-6l.4-1.5q.6-4.6-.6-9.4-.5-2-.7-3.7-.7-5-1.8-9.7a21 21 0 0 0-4-8v-.1h-.1v-.1l-.1-.1h-.1V83l-.2-.2v-.3l-3.6-12.1q-1-4.5-5-7.7a36 36 0 0 1-8-8.4 8 8 0 0 0-4.8-3.4m-15 46.6.7.3a8 8 0 0 0 4.4-.3l1.3-.4 4.3-1.3a2 2 0 0 1 1.8.2v.2h.1v.4l-.1.1-.3.2q-2.4.4-4.8 1.2l-1.6.5-4 .6q-2 0-3.6-1.3-.8-.5-1.4-1.4a7 7 0 0 1-1.5-3h.1v-.1h.1v-.1h.2v-.1h.5l.2.2v.1l.1.1v.2a8 8 0 0 0 3.4 3.7m-25-1h.5q2.6 1.5 5.6 1.8l1.8.1a12 12 0 0 0 4-.2q1.4-.3 2.3-1.7l1.9-3.5h.6v.1l.1.1v.1l.1.2v.3q-.6 1.7-1.6 3.2t-2.7 2.3l-1.4.3h-.1a11 11 0 0 1-3 .1l-3.6-.4a11 11 0 0 1-3.7-1.2l-1-.7v-.1l-.1-.1v-.4l.1-.1v-.1zM259 73.9l.1.1.1.1v.2l-.1 4.7a24 24 0 0 0 .1 5.6v.1l-.1.1-.1.1h-.2v.1h-.4l-.1-.1-.1-.1v-.1l-.1-.2q-.6-2.2-.3-4.5l.4-6 .2-.1.2-.1h.4zm42.6 13zv.1l.1.1v.1l.1.1v.1a5 5 0 0 1-3 3.5q-2.2.9-4.6.7a6 6 0 0 0-3 .5h-.4V92h-.1v-.1l-.1-.2v-.5a6 6 0 0 1 3.4-1l3.7-.1.7-.4q1-.5 1.7-1.3.5-.6.6-1.3l.1-.1h.2v-.1h.5m-72.4 1.5.1.1v.4l-.1.1v.1h-.1a13 13 0 0 1-3.3.9h-.6q-1.5 0-3.1-.6t-2.7-1.9l-.6-.9v-.3h.1v-.1l.1-.1.1-.1h.3q0-.1.1 0h.1l1.6 1.4a6 6 0 0 0 3.2 1.3h2l2.3-.6h.2l.2.1zm-8.6 13.6.7-1.3.3-.2h.4v.1l.3.2v.3q-.2.8-.6 1.4l-.5 1.3-.1.1v.2h-.1l-1.9 4.2h-.7v-.2h-.1v-.3l1.6-4.2v-.2zm77 1.3h.5v.1h.1v.1l1 2.3 1.8 3.3v.1l-.1.2h-.1v.1h-.8v-.1l-.1-.1-2.6-4.7-.1-.9v-.2h.1l.1-.1zm-1.8 17 1-.5h.1l.4.2.1.2v.4l-8.8 6.7h-.2l-.2-.1v-.1h-.1v-.1l-.1-.1v-.6zm-76.8-.7zh.5l8 6.2v.3l-.1.1-.2.2h-.7v-.1a81 81 0 0 0-6.6-5l-1.2-1.1v-.2zm38-4 .3-.2h.5l.2.3v.2h.1v.3l-.1.3-.3.2h-.5l-.2-.3-.1-.2v-.3zm18-8.6v.3l.1.1v.3l-.1.1q-1.2.7-2.4 1.7a13 13 0 0 0-2.5 2.6h-.8v-.1l-.1-.2v-.3a13 13 0 0 1 4.5-4.3l.8-.4h.2v.1h.2zm-33.5-.1q1.7 0 3 1.2l3.4 3.4v.4h-.1v.1l-.1.1h-.1l-.2.1h-.4l-.2-.1a26 26 0 0 0-4.4-3.8l-1-.3v-.1l-.1-.2-.1-.1v-.4l.1-.1zM280 73.4a19 19 0 0 0 2.2 6.5q.2.4 0 .9v.1h-.1v.1h-.2l-.1.1h-.3l-.2-.1q-.8-1.5-1.5-3.3l-.9-3.3v-1l.1-.1.1-.1h.1l.2-.1h.4l.1.1zm-39.7-1.7v-.1h.7v.1h.1v.1l.1.1q0 2-.9 3.9-.8 1.5-2 3l-.7.4h-.4l-.2-.1-.1-.1v-.1l-.1-.1v-.5h.1q1.2-1.1 2-2.6.7-1.4 1-2.8l.1-.7V72l.2-.3m-7.8-8 .5.2.2.2v.7l-.1.1h-.1v.1h-.9a6 6 0 0 0-3 2.5 9 9 0 0 0-1.3 3.7l-.2.6h-.1v.1h-.1v.1h-.6l-.2-.1v-.1l-.1-.1v-.3q.3-2.5 1.6-4.6.9-1.5 2.5-2.5.9-.6 1.9-.5m58 6.6h-.2l-.1-.2q-.9-1.6-2-2.8l-2.8-3.7v-.1l.1-.2v-.1l.2-.1h.1l.1-.1h.4A43 43 0 0 1 291 69q.3.5.2 1v.2h-.1v.1h-.1l-.1.1h-.4m-33.1-51.5h-4.7q-1 0-2 .3a5 5 0 0 0-3 2.4l-.5 1a97 97 0 0 0-1.1 10.4q-.7.3-1-.4-.2-.6-.8-1-.8 1.2-.8 2.8l.1 2.4q0 2.3.2 4.4a2 2 0 0 0 .6 1.2l1.2-1.2h.3q.6.2.7 1l.6 3v1l.2 1 1 3q.6 2 1.9 3.4a15 15 0 0 0 3.5 3q1.2 1 3 1l4.1-.1 3-.3h-.1q2-.2 3.5-1.4 1.6-1 2.2-2.9l.5-1q1-1.8 1.8-3.7.5-1.2.5-2.4v-.4l.3-3-.1-1q0-.2.2-.4v-.1l.5-.3h.3q.4.4.6.8l.2.4.6.6q.7-.7.6-1.8V38a13 13 0 0 0-.1-4.4l-.6-1.5-.8.3-.1.2q-.4.8-1 .5l-.3-.3q-.3-1.4 0-2.7v-.6a52 52 0 0 0-1-10.2q0-.1-.2-.3l-1-.2-1.1-.3a19 19 0 0 0-4.6 0q-2 .4-4.3.5a10 10 0 0 1-3-.3M274.3 37v-.4l-.2-.3V36h-.1q-.7-.1-1.6 0h-.2q-.6-.6 0-1l.5-.3q1.7-.5 2.5 1 .6 1 0 2t-1.5 1h-.3q-1-.2-1.7-.8v-.3q.2-.7.9-.4.8.3 1.4 0l.2-.1zm-29.9.3q0-.5.3-.8.7-.9 1.7-.5l.2.2q.2 1-.8 1l-.2.2v.3l.1.2h.2l.2.1q.6-.3 1.1 0 .3.3.1.6a1 1 0 0 1-.7.6h-.8q-1.5-.3-1.4-2m8.1-4.5v-.2q0-1 .8-.8.3 0 .4.2.6.6 0 1.2t-1.1-.2zm13.1-1.2h.8a1 1 0 0 1 .2.7v.4q-.2.3-.5.3h-.2a1 1 0 0 1-.6-.6q0-.5.3-.8m4.5-1.5v.3q0 .8-.8.5l-.2-.1q-1.6-1.2-3.6-1.5-1.2-.1-2.4.2h-.2q-.7-.5 0-1l.3-.2q2-.7 4 0 1.5.6 2.9 1.8m-19.5 0q-.7.4-.9 1.2l-.1.2q-.7.3-1-.5.5-2.1 2.7-2.7l1.2-.3q1.5-.3 3 .6v.2q0 .8-.7.6h-.5q-2-.4-3.7.7m8.6 7.3h.5l.3.2.1.5-.5.8-.5 1.5q1.5.8 2.8 0 0-.1.2 0 .8.2.3.9l-.4.3q-1 .5-2 .4-1.4-.2-2-1.1-.2-.2-.1-.4 0-1.5.8-2.5.2-.4.5-.6m4 10.7.5-.2a1 1 0 0 1 .8 0q.3 0 .2.4v.1a4 4 0 0 1-2 1.4 9 9 0 0 1-3.5.4 8 8 0 0 1-3.9-1.4q-.5-.3 0-.9.2-.3.6 0a8 8 0 0 0 3.2 1 7 7 0 0 0 4.2-.8"/><path fill="#333" d="M271.8 119.6h-.2a40 40 0 0 1 5.3 6l.5.6q3-.8 5.4-3h-.2v-.7l-.1-.1-2.4-6q-2 .6-3.7 1.5-2.2 1.2-4.6 1.7m-32.5-2.6q-2.5-1.2-4.5-3.4-.4 2.3-1.2 4.4l-2.2 6.4 1.7 2.4h.2q2.9-1.5 5.5-3.4 1.2-1 2.7-1.6 1.2-.6 2.5-.3 2.2.5 4 2h.3l.1.1.2.2.5.4q.5 2.6-.2 5.9l-.2 1.5q-.3 2.4-1 4.6 0 .4-.4.6-2.7 1.6-5.7 1.5-5 .3-9.4-1.5l-4-1.7-.1 1a85 85 0 0 0-.8 13 185 185 0 0 0 16.7.3l10-.1q-.2-1.5 0-3l.1-3q0-.6.2-1.1l.1-.1.3-.1h.5v.1l.2.2v.1q0 1.5-.2 3v4q4 0 8 .3a162 162 0 0 0 21.7-.1l.1-.1-.3-10.6-.8-4q-.3.1-.6.4a6 6 0 0 1-4.2 1.7q-4.8-.6-9.5-1.5t-8.8-3.8a3 3 0 0 1-1.2-2.6q.1-2.8.7-5.5l-1.4.3a14 14 0 0 1-3.5.4q-5-.3-9-3.2-3.3-2.4-7-4.1"/></g><path fill="#000" d="M26.7 3.3v-2zM72 3.1 71.6 5zm56.8.3.4 2zm45.5-.4-.2 2zm11.3.8-.1 2zm102.3 0-.4-2zm22.7-.1.2 2zm22.3 1 1-1.8zm7.2 7.9-1.8.7zm4 21.8-2 .5zm-.4 22.7-2-.3zm.6 56.8 2 .1zm-6.2 32.6-1.4-1.4zm-10 5.3-.3-2zm-11.5-.3-.4 2zm-22.7 0v-2zm-11.3-.8.3-2zm-11.4 0-.3-2zm-11.4.2.2-2zm-11.3 0-.2-2zm-34.1.3.6 2zm-11.4.6-.4 2zm-11.3-.6-.3-2zm-45.5.5-.4-2zm-34-.6v2zm-11.4-.3v-2zm-79.2-1.3.2-2zm-11-2.5-.6 1.9zM3 127.8l-1.9.5zM12.3 6.5 11 5zm14.4-3.2v2q5.8 0 11.5-.5l-.2-2-.2-2q-5.5.5-11.1.5zM38 2.8l.2 2a37 37 0 0 1 10.8.5l.4-2 .4-2q-6-1-12-.5zm11.4.5-.4 2q6.2 1.2 12.3-.4l-.5-2-.6-1.9q-5.3 1.4-10.4.4zM60.8 3l.5 2q5-1.4 10.3 0l.5-1.8.6-2A23 23 0 0 0 60.2 1zm11.3.2L71.6 5q6 1.6 11.8 1.8v-2l.1-2q-5.4-.1-10.8-1.7zm11.4 1.7v2q5.8.3 11.8-1.1l-.5-2-.4-2Q89 3.3 83.5 2.9zm11.3-1 .5 1.9q5.4-1.2 10.8-1v-2l.2-2q-6-.3-12 1zm11.4-1.2v2q5.4.3 11 1.1l.4-2 .3-2q-5.9-1-11.6-1zm11.4 1.1-.4 2q6 .9 12.1-.3l-.4-2-.4-2q-5.3 1.3-10.6.4zm11.3-.3.4 2a63 63 0 0 1 11-1.4V0q-6 .2-11.8 1.5zM140.3 2v2q5.6-.1 11.1.5l.2-2 .3-2q-6-.6-11.7-.5zm11.3.5-.2 2q5.9.6 11.7.3l-.1-2-.1-2q-5.6.3-11-.3zm11.4.3v2q5.7-.1 11.2.2l.2-2 .1-2q-5.8-.4-11.6-.1zm11.4.2-.2 2 11.4.8.1-2 .2-2-11.4-.8zm11.3.8-.1 2 11.3.8.2-2 .1-2-11.3-.8zm11.4.9-.2 2q5.8.4 11.6.3V3q-5.7 0-11.3-.3zm11.3.3v2q6 0 11.7-1l-.3-2-.4-2q-5.4 1-11 1zm11.4-1 .3 2q5.4-1 10.7 0l.4-2 .3-2q-6-1-12 0zm11.4 0-.4 2q6 1.1 11.8.7v-2l-.2-2q-5.4.4-10.9-.6zm11.3.7.1 2q5.8-.3 11.6-1.2l-.3-2-.3-2q-5.7.9-11.2 1.2zM254 3.5l.3 2q5.5-.8 11.1-1v-2l-.1-2q-6 .2-11.6 1zm11.3-1 .1 2q5.4-.3 10.9 1l.4-2 .4-2q-6-1.2-11.8-1zm11.4 1-.4 2q6 1.3 12 .3l-.2-2-.4-2q-5.2.9-10.6-.3zm11.4.3.3 2q5.4-.8 10.7-.2l.3-2 .3-2q-6-.7-12 .2zm11.3-.1-.3 2q6 .8 12 0l-.3-2-.3-2q-5.4.8-10.8 0zm11.4 0 .2 2q5.7-.8 11.4-1.3l-.2-2-.2-2-11.5 1.3zM322 2.4l.2 2q5.1-.5 9.8 2l1-1.7.9-1.8q-5.8-3-12-2.5zm11 2.3-1 1.7q4.5 2.5 6.3 7l1.8-.8 1.9-.7a17 17 0 0 0-8.1-9zm7.1 7.9-1.8.7q1.9 4.9 2.2 10h2l2-.2q-.3-5.8-2.5-11.2zm2.4 10.6-2 .1q.3 5.7 1.7 11.6l2-.5 1.9-.4q-1.3-5.5-1.6-10.9zm1.6 11.2-2 .5a39 39 0 0 1 1 10.8h2l2 .2q.4-6-1-12zm1 11.4-2-.1q-.2 5.6-1.3 11l2 .4 1.9.4a79 79 0 0 0 1.5-11.6zM343.9 57l-2-.3q-1 5.9-.8 11.8h2l2-.2q-.3-5.4.8-10.9zm-.8 11.4-2 .1q.3 5.8 1.2 11.6l2-.3 2-.3q-.9-5.7-1.2-11.2zm1.2 11.4-2 .3q.8 5.4.3 10.9l2 .1 2 .2q.5-6-.4-11.8zm.3 11.3-2-.1q-.5 5.7-.1 11.6l2-.1 2-.1q-.3-5.6.1-11.1zm-.1 11.4h-2q.3 5.7 0 11.2l2 .1 2 .1q.3-5.7 0-11.5zm0 11.3h-2q-.3 5.7.2 11.6l2-.2 2-.2q-.5-5.6-.2-11zm.2 11.4-2 .2q.4 5.3-.8 10.6l1.9.5 2 .5q1.4-6 .9-12zm-.9 11.3-2-.5q-1.2 5.2-5 9l1.5 1.4 1.4 1.4q4.5-4.6 6-10.8zm-5.5 10-1.4-1.5q-3.7 3.7-8.9 4.7l.4 2 .3 2q6.5-1.2 11-5.9zm-10 5.2-.3-2q-5.4.9-10.7-.2l-.5 2-.4 1.9q6 1.4 12.3.2zm-11.5-.3.5-2q-6-1.2-12-.7l.2 2 .2 2q5.3-.5 10.7.7zm-11.3-.7-.2-2q-5.6.5-11.2.6v4q5.9 0 11.6-.6zm-11.4.6v-2q-5.6.3-11-.7l-.3 2-.3 2q5.8.9 11.7.7zm-11.3-.7.3-2q-6-.9-12 0l.3 2 .3 2q5.4-.9 10.8 0zm-11.4 0-.3-2q-5.4.8-10.9.2l-.2 2-.1 2q5.9.6 11.8-.3zm-11.4.2.2-2a72 72 0 0 0-11.7 0l.2 2 .1 2q5.6-.5 11 0zm-11.3 0-.2-2q-5.7.3-11.5 1.3l.3 2 .3 2q5.7-1 11.2-1.4zm-11.4 1.3-.3-2q-5.3.9-10.4-.9l-.6 2-.7 1.8q6.1 2 12.3 1zm-11.3-1 .6-1.9a20 20 0 0 0-12.6 0l.6 2 .6 1.8q5.1-1.6 10.1 0zm-11.4 0-.6-1.9a19 19 0 0 1-10.3.5l-.5 2-.4 2q6.2 1.4 12.4-.7zm-11.4.6.5-2q-6-1.3-12-.6l.2 2 .2 2q5.3-.7 10.7.5zm-11.3-.6-.3-2q-5.4.6-11 .2v2l-.2 2q5.9.5 11.7-.3zm-11.4.2.2-2-11.5-.6v2l-.1 2 11.3.6zm-11.3-.6v-2l-11.3-.3-.1 2v2l11.3.3zm-11.4-.3v-2q-6-.2-11.8 1.3l.4 2 .5 1.9q5.4-1.4 10.8-1.2zm-11.4 1.2-.4-2q-5.3 1.5-10.4.1l-.5 2-.5 2q6.1 1.4 12.3-.1zm-11.3 0 .5-1.9q-6-1.5-12-1l.1 2 .2 2a34 34 0 0 1 10.7 1zm-11.4-.9-.1-2q-5.6.4-11.2.3v4q5.7.1 11.5-.3zm-11.3.3v-2q-5.6 0-11.3-.3l-.1 2v2l11.3.3zm-11.4-.3v-2q-5.7-.2-11.6.5l.2 2 .3 2a78 78 0 0 1 11-.5zm-11.4.5-.2-2q-5.4.6-10.9 0l-.2 2-.3 1.9q6 .8 11.9 0zm-11.3 0 .2-2q-6-.8-12 .3l.4 2 .4 1.9q5.4-.9 10.7-.3zm-11.4.2-.3-2q-5.3 1-10.6-.1l-.4 2-.4 1.9q6 1.3 12 .2zm-11.3-.2.4-2q-5.8-1.1-11.7-1.5l-.1 2-.1 2q5.6.3 11 1.5zM44 149.8l.1-2q-5.7-.5-11.6 0l.1 2 .2 2q5.6-.5 11 0zm-11.4 0v-2q-5.6.2-10.8-.3l-.2 2-.3 2q5.7.6 11.5.2zm-11-.3.2-2q-5.2-.6-10.5-2.4l-.7 1.9-.6 1.9q5.7 1.9 11.3 2.6zm-11-2.5.7-1.9a7 7 0 0 1-3.3-2.2 7 7 0 0 1-1.2-3.7l-2 .1-2 .1q.1 3.5 2 6 2 2.4 5.2 3.5zM5 139.3l2-.1q-.3-6-2-12l-1.9.6-1.9.5Q2.6 134 3 139.4zM3 127.8l2-.5q-1.4-5.3-.4-10.5l-2-.3-1.9-.4q-1.2 6 .4 12.2zm-.3-11.3 2 .3q1-6-.1-12.1l-2 .4-2 .4q1.2 5.2.1 10.6zm0-11.4 1.9-.4q-1.2-5.2 0-10.6l-2-.4-2-.4q-1.2 6 0 12.2zm-.1-11.4 2 .4q1-6 .8-11.8h-2l-2 .2a42 42 0 0 1-.8 10.8zm.8-11.3 2-.1q-.3-5.6.2-11l-2-.3-2-.2q-.5 5.8-.2 11.7zM3.6 71l2 .2q.6-5.7.8-11.5h-2l-2-.1q-.2 5.6-.8 11.2zm.8-11.4 2 .1q.3-5.7-.2-11.5h-2l-2 .2q.5 5.6.2 11.2zm-.2-11.3 2-.1Q6 42.4 5 36.6L3 37l-2 .3Q2 43 2.3 48.4zM3 36.9l2-.3Q4 31.4 5.2 26l-2-.4-2-.4q-1 6-.2 12zm.2-11.3 2 .4q1-5.5 2.8-10.3l-1.9-.6-1.8-.7q-2 5.1-3 10.8zm3-10.5 1.8.6q1.7-4.3 5.6-7.6l-1.3-1.6L11 5a22 22 0 0 0-6.7 9.4zm6-8.6 1.4 1.6q2-1.8 3.4-2.4 1.5-.7 1.7-.6l.1-2 .1-2Q17 1 15.2 2q-2 1-4.2 2.9zm6.6-3.4-.1 2 8 .2v-4l-7.8-.2z"/><defs><clipPath id="a"><path fill="#fff" d="M3 21.2c0-10 8-18 18-18h305c10 0 18 8 18 18v112c0 10-8 18-18 18H21c-10 0-18-8-18-18z"/></clipPath></defs></svg>