<svg xmlns="http://www.w3.org/2000/svg" width="344" height="76" fill="none"><path fill="#F3F3F3" d="M2.2 15.3a13 13 0 0 1 13-13h313a13 13 0 0 1 13 13v45a13 13 0 0 1-13 13h-313a13 13 0 0 1-13-13v-45Z"/><path fill="#000" d="M172.2.1h4.3c.6 0 1.3 0 1.8.3l.6.2.6.3.6-.2.6-.1c.7-.2 1.4-.2 2 0l.6.3.6.2.6.1H186.4l.6-.1.5-.1h2l.5.2.5.2.6-.3.5-.3c.6-.3 1.1-.4 1.7-.4l.6.2 1.2.3c.1 0 .3.1.4 0h1.2l1.2-.1h1.2l.9-.1 1.1-.2h2.6c.6 0 1.1.2 1.7.4l.5.3.6.3.6-.2.5-.2c.7-.2 1.3-.2 2 0l.6.1.5.2h7.9l.5-.1h1.6l1.2.2h.2l.6-.3.6-.2c.5-.2 1.1-.4 1.7-.4h5.5l1.2-.1h1.1c.6-.1 1.3 0 1.9.4l.5.2.6.3h.1l1.1-.2 1-.2 1-.4c.7-.3 1.3-.4 2-.2l1.1.2 1.1.2h.6l.6.2h1.2l.6-.1.8-.2.6-.2.5-.2c.7-.2 1.4-.2 2.1 0l1.1.5h1l.6-.1c.7-.1 1.4 0 2 .3l1 .6h.3l1.2-.2c.3 0 .7 0 1-.2l1.1-.2c.6 0 1.1-.1 1.6 0h3.1l1-.2.5-.1.6-.1c.6-.1 1.3 0 1.9.1l.6.2.5.2 1.1-.6a3 3 0 0 1 1.7-.2h.6l1.1.5 1 .2.5.2h.6l.7.1h.5l.6-.1h2.9l.6-.3.6-.2a4 4 0 0 1 1.8-.3h1.1l1.6.4 1 .4h.1l1.1-.4c.6-.2 1.3-.3 1.9-.2h.6l.5.1h.6l1.2-.3h1.8l1.2.4h.2l1.1-.3c.8-.3 1.5-.2 2.2 0l.5.3.6.2h.2l.6-.1.5-.2 1.3-.2h.5l.6-.2c.7 0 1.4 0 2 .4l.6.2.5.3.5-.2.5-.3 1.6-.4h3.7c.3.1.5.1.8 0h3.2l.5.1h3l.6-.2h.5l.6-.1c.6 0 1.1.2 1.6.5l.5.4.4.2 1-.4.6-.3h1.3l.6.3.5.3.6.3c.2.2.5.3.7.3l.5.2.5.1h1.9c.7 0 1.4.2 2 .6l1 .7 1 .8.4.4.5.3c.5.5.8 1 1 1.7l.2.5.2.6c0 .3.2.5.3.7l.3.5.3.5c.2.4.5.8.6 1.3l.4 1 .3 1.4.1.5v2.3l-.2.6-.1.5-.1.8v1.8l.2.5.2.6.4 1.2.2 1.2v2.3l-.2.5v.5l.2.6.1.5c.2.7.2 1.3 0 2l-.3 1-.3 1-.1.7-.2.5v.4l.4 1.1c.2.6.2 1.2.1 1.9l-.1.5-.1.6V39l.2.8.4 1.1c.3.9.1 1.7-.3 2.4l-.4.6-.2.4.1.3.3.6c.4.7.5 1.5.2 2.3l-.3 1.1-.1.7v1.1l-.3 1.5-.1.6-.2.6v.2l.4 1.1c.2.7.2 1.3 0 2l-.3 1.1v.1l.6 1.1c.4.8.4 1.7 0 2.5l-.3.5-.3.6v1.4c.1.5 0 1 0 1.6l-.2.6-.1.6a3 3 0 0 1-1.2 1.8l-.5.3-.5.4-.1.3-.3.5-.2.6a3 3 0 0 1-1.5 1.7l-1 .5-.9.5-.5.3-.5.3c-.6.4-1.2.5-2 .5h-.5l-.6-.1a1 1 0 0 0-.5 0l-.5.3-.6.2a3 3 0 0 1-2.1 0l-.6-.1-.5-.2-1.2.5a4 4 0 0 1-1.7.4h-2.2l-1 .2c-.7 0-1.3 0-1.9-.3l-1.1-.5-.6.2-.6.2-1.5.4h-1.1l-1.2.1h-1.1c-.6.1-1.2 0-1.7-.2l-.6-.2-.5-.1-.5-.1H307l-1.4.1h-1.1a4 4 0 0 0-.8 0h-.6l-.6.2-1.1.1-.6.1h-2.1l-1.1-.2h-.5l-.6.2-.6.2a3 3 0 0 1-2.2-.3l-.5-.3-.5-.2-.4.2-.6.2c-.6.3-1.2.5-1.8.4h-1.2c-.5 0-1.1-.2-1.6-.4l-.6-.3-.6-.2h-.7l-.6.2-1 .3-1.2.2c-.9.3-1.7 0-2.3-.4l-.6-.4-.6-.4h-.4l-.6.2a5 5 0 0 0-.9.3l-1.1.5c-.6.3-1.3.4-2 .2l-1.1-.2h-.5l-1.2.3-1.4.1H261.8l-1.4-.1-.6-.1-.6-.1H257.5l-1.4.1H255a5 5 0 0 1-1.6-.3l-1.1-.5-.6.3-.5.2c-.6.3-1.3.4-2 .3h-1l-1-.1h-2.4l-1.1-.1c-.6 0-1.1-.2-1.6-.4l-.6-.3-.6-.2-.6.2-.5.1c-.7.2-1.4.2-2.1 0l-.6-.2-.4-.2-.6.4-.5.3c-.8.4-1.7.5-2.6.1l-.5-.3-.4-.2-.5.3-.5.3c-.4.2-1 .4-1.4.4-.5 0-1-.2-1.3-.5l-.6-.4-.5-.3-.4.2-.5.2a5 5 0 0 1-1.6.3h-.6l-.6.1-1.5-.1-1.1-.3h-.2l-1 .6a3 3 0 0 1-2.4.1l-.5-.2-.6-.2-1-.3-.6-.2-.6-.1-1.2.5c-.6.3-1.3.4-2 .2l-.6-.1-.6-.2h-.2l-1.1.6c-1 .4-1.9.2-2.6-.4l-.6-.4-.4-.3-.4.2-.5.2c-.7.3-1.5.3-2.2 0h-.5l-.6-.3-.8-.2-1.2-.1h-.1l-1.2.7c-.8.5-1.7.6-2.6.1l-1.1-.6-.5-.1H191.7l-1.1.7c-.7.4-1.5.6-2.3.4l-.6-.2-.6-.1h-1.5l-1.2.2-.6.1h-.5c-.7.2-1.3.1-1.9-.1l-.6-.2-.5-.3a2 2 0 0 0-.7 0l-.5-.1H178l-.5.3-.6.3c-.6.2-1.3.3-2 .2l-1-.1-1.2-.2h-.6l-.5-.2-1-.1-1.2-.1-1.3-.2-1.2-.3h-.2l-1.1.4-1.3.4h-.6l-.5.2c-.6.2-1.2.2-1.7 0h-1.2l-1.4-.5-.6-.2-.5-.2-.6.2-.6.3a3 3 0 0 1-2.2 0l-1-.4h-.3l-.6.1-.6.2a6 6 0 0 1-1.5.2h-1.9l-1.1.3a3 3 0 0 1-2.3-.4l-.5-.3-.5-.4-.4.2-.6.2-1.3.5h-.6l-.5.2c-.7.2-1.4.1-2-.1l-.6-.2-.6-.3-.8-.2h-.5l-.6-.1h-.6l-.5.2h-.6l-1 .4-1.2.3c-.5.2-1.1.2-1.7.1h-1.1l-.9-.1H127c-.6.1-1.2 0-1.7-.2l-.6-.2-.6-.2-.7-.2h-.6l-.6-.1h-.1l-.6.4-.6.3c-.3.2-.8.4-1.3.4s-1-.2-1.4-.4l-.5-.4-.4-.2-.3.2-.6.3c-.5.3-1.1.5-1.7.6h-1.1c-.7.2-1.3 0-2-.2l-.5-.3-.5-.2-.6.2-.6.2a3 3 0 0 1-2.1 0l-.6-.1-.6-.3h-.1l-1.2.4-1.5.2H102l-1.6-.2-.5-.2-.6-.2-1.2-.3-1-.3-.4.3-.6.5a3 3 0 0 1-2.2.6l-1.1-.1c-.5 0-.9-.2-1.3-.3l-1.1-.2-1-.2h-3.1c-.5 0-1.1 0-1.7-.2l-1-.3-.8-.1h-1.8l-.6.2-.6.2H78l-.5-.2-.5-.2-.6.4-.5.3c-.4.3-.9.5-1.4.5-.5 0-1-.2-1.3-.4l-.6-.4-.5-.2-.4.1-.5.3c-.7.2-1.3.3-2 .2l-1.1-.2c-.5 0-1-.1-1.3-.3l-1.2-.3H64l-1.2.2h-1.2c-.1 0-.3 0-.5.2l-1.2.5c-.8.4-1.7.3-2.5-.2l-.5-.3-.6-.3-.3-.1h-1.1a5 5 0 0 0-1 .1l-1 .2c-.3 0-.6.2-.8.3l-1.2.5a2.5 2.5 0 0 1-2.6-.3l-.6-.4-.5-.4-.3.1-.6.3a4 4 0 0 1-1.8.2l-1.1-.2-1.3-.2-1.1-.2h-1.1l-.6.1-1.1.2-.6.1-.6.1-1.4.1h-1l-1.3-.1h-1.5l-.6.2-.5.3c-.8.4-1.7.3-2.5 0l-.5-.4-.6-.3a2 2 0 0 0-.6-.2l-1.2-.2a2 2 0 0 0-.6 0l-.6.1-.5.1-1.1.2-.6.1-.5.2h-1.8l-.5-.1-.6-.2H18l-.5.1-.6.1h-1.7l-.5-.1-.6-.1a2 2 0 0 0-.6 0h-1.2a3 3 0 0 1-2-.5l-.5-.3-.5-.3-.8-.4-.5-.3-.5-.2-1.2-.7-.5-.3-.4-.3c-.6-.4-1-1-1.3-1.6l-.2-.6-.2-.5c0-.1 0-.2-.2-.2l-1-.8c-.5-.4-1-1-1.2-1.6l-.2-.5-.2-.6-.4-1.4-.1-.6v-.5c-.2-.5-.2-1-.2-1.4v-1.1c0-.7.1-1.4.4-2l.7-1v-.5l.1-.6v-.5l-.1-.5-.5-1.1c-.4-.8-.4-1.6 0-2.4l.2-.5.2-.5-.2-.6-.3-.5c-.3-.8-.3-1.7 0-2.4l.6-1.2-.1-.6-.2-.5c-.1-.6-.2-1.1-.1-1.7v-1.8l-.2-1.1C.4 39 .4 38.6.5 38v-.6l.2-.5v-.5l-.4-1.1c-.3-.8-.1-1.7.3-2.4l.3-.5.4-.6-.3-1v-2l.2-.6.2-.5v-.1l-.2-.6-.3-.6c-.2-.5-.4-1.2-.3-1.8V24l.1-.6V19l.2-1.4.2-.5v-.5l-.3-.7-.4-.6C0 14.6 0 13.8.2 13l.2-.6.2-.5.5-1.2.2-.6.2-.5c.3-.5.6-1 1-1.3l.4-.5.4-.4.3-.5.5-1c.3-.6.6-1.1 1-1.5l.5-.4.5-.3c.4-.5 1-.7 1.6-.9l.6-.1.5-.2.9-.3.5-.2.5-.2c.5-.2 1.1-.3 1.7-.3h1.4l.3-.2v.1a1.6 1.6 0 0 1 .7-.5H16l.6.1.5.1h3.2l1-.1 1.1-.1h.6l.5-.1H25L26 1h.3l.6-.3.6-.2c.6-.2 1.4-.3 2 0l.6.1.6.2h.4l1.2-.1c.6-.1 1.3 0 1.9.2l.5.2.6.3.6-.2.6-.2 1.2-.4.6-.1.6-.2h.6a3 3 0 0 1 1.7.4l.5.4.6.3h.5l.5-.2 1.3-.3.6-.1.5-.1 1-.2L48 .2c.8-.2 1.5 0 2.1.3l.6.3.6.3h2.4l1.1-.3h1.6l.6.1.6.1 1.2.3 1.1.3H61.7l.4-.2 1.2-.8a2.6 2.6 0 0 1 2-.3l.7.2.6.4.5.3.1.1 1.2-.2.8-.2 1.1-.4.6-.2a3 3 0 0 1 1.7.2l.6.3.5.3H76L77 .5a3 3 0 0 1 2.3 0l.5.2.5.2.5-.3.6-.3.6-.2h1.3l.6.2.6.3.6.3c.2.2.4.2.5.2l1.2.2h1l1.1.1H91.7l.5-.3.6-.2c.7-.3 1.4-.3 2.2 0l.5.1.5.2.5-.3.6-.3c.7-.4 1.5-.5 2.3-.3l.6.2.5.1h1.6l1.3-.2h3l.6.1 1.3.3.6.1.5.2 1.2-.7.6-.2c.4-.2.8-.2 1.2-.1l.6.1.6.2.5.3h.2l.6-.2.5-.1c.7-.2 1.4-.2 2.1 0l.6.3.5.2.7-.2.5-.2a5 5 0 0 1 1.6-.3h1.2c.5 0 1.1 0 1.7.3l1 .4h1.7l1-.1 1.1-.2 1-.2.6-.1.6-.1h.6c.6 0 1.1 0 1.6.4l.5.3.3.2.4-.2.5-.4.6-.4c.4-.1.9-.2 1.3-.1l.7.2 1.1.5.6.1h1.1l1.3.1 1.1.2h.3l.6-.3.6-.3.6-.2h1.3l.6.4.6.3.5.4.5-.2.6-.1c.4-.2.9-.3 1.3-.3l1.1-.2h1.6l.5.1.6.1h.3l.6-.3.6-.2c.5-.2 1.1-.3 1.7-.3h1.1a5 5 0 0 1 1.7.4l1 .4 1 .3.5.1.6.1.6-.4.5-.3c.6-.4 1.3-.6 2-.6l1.2.1h1.4l.6-.1h2.5Zm-2.2 3H166.1l-.5.4-.6.4a3 3 0 0 1-2.2.4l-1.1-.2c-.5 0-1-.2-1.4-.4l-.6-.2-.5-.2a2 2 0 0 0-.7-.2H157l-1.1.5c-.6.3-1.3.4-2 .3l-1-.2h-.8l-1.1.1-.9.2-.5.2-.6.2c-.8.2-1.7 0-2.4-.4l-.5-.3-.5-.3-.3.2-.6.2c-.6.3-1.3.4-2 .3h-.5l-.6-.1H140l-.6-.1c-.6 0-1.1-.2-1.7-.4l-.5-.2-.4-.2-.4.3-.6.4c-.4.3-.8.5-1.3.5s-1-.1-1.4-.4l-.6-.3-.6-.3h-.6l-.6.1-1.1.2-1.1.2-1.3.2h-1.1a4 4 0 0 1-1.8-.2l-1.1-.4c-.2-.1-.4-.2-.6-.1h-1.1a2 2 0 0 0-.6.1l-.6.2-.6.2a3 3 0 0 1-2.1 0l-.6-.2-.6-.2h-.2l-1.1.3c-.7.2-1.4.1-2-.1l-.6-.3-.5-.2-.5.3-.6.4a3 3 0 0 1-2.2.3l-.6-.2-.5-.1-.9-.2h-3.2a7 7 0 0 0-1 0l-1 .2c-.7 0-1.3 0-1.8-.2l-.6-.2-.5-.1-.6.3-.6.3c-.7.4-1.5.5-2.3.3l-.6-.2-.6-.2-1.1.4c-.6.2-1.1.3-1.7.3h-3.5l-1.2-.1-1.1-.2c-.6 0-1.2-.3-1.7-.5l-.5-.3-.5-.3-.4.2-.5.3c-.8.4-1.6.5-2.4.2l-.6-.2-.5-.2-1.2.4-1.6.4h-1.2a4 4 0 0 1-1.7-.4l-.6-.3-.6-.2-.5.2-.5.2-1.5.4-1 .1c-.9.2-1.6 0-2.2-.4l-.6-.4-.3-.1-.3.2-.6.4c-.6.3-1.2.6-1.8.6h-.6l-.6.1-1.6-.1-1.1-.3-1-.2-.6-.1-.5-.1a2 2 0 0 0-.7 0l-1 .2-1.4.1h-1.1c-.7 0-1.3 0-1.9-.4l-.6-.3-.5-.2H48l-.6.2-1.1.2-.6.1-.6.1-1 .2-.5.2-.6.2c-.8.2-1.6 0-2.3-.4l-.6-.4-.5-.4-.5.2-.6.1-1 .3-1.1.4a3 3 0 0 1-2.2 0l-.6-.3-.6-.2h-1.4a4 4 0 0 1-1.8 0l-.6-.2-.5-.2h-.2l-.5.2-.6.2c-.6.3-1.3.3-2 .2l-1-.2h-1.9l-1.2.2h-2.2L18 4h-2l-.6-.2-.1.1-.3.2a3 3 0 0 1-1.7.3h-1.5l-1 .5-1.4.4-.5.2-.6.1a1 1 0 0 0-.4.2l-.4.4-.5.4L7 7l-.3.5-.2.5a5 5 0 0 1-1 1.4l-.4.4-.4.4-.3.5-.5 1.1-.4 1-.2.6-.2.4.4.6.3.5c.4.7.6 1.5.4 2.3l-.1.6-.2.5v.9l-.1 1V25c-.1 0-.1.2 0 .4l.2.5.2.6c.3.7.4 1.4.2 2.1l-.2.6-.2.6v.3l.3 1.1a3 3 0 0 1-.4 2.3l-.3.6-.4.5.2.5.2.5c.2.6.2 1.2.1 1.8l-.1 1.1v.6l.2 1.1c.2.6.2 1.1.2 1.6L3.8 43v.6l.3 1a3 3 0 0 1-.2 2.3l-.3.5-.2.5.2.5.3.6c.3.7.3 1.5 0 2.3l-.3.6-.2.5.3.5.2.6c.3.5.4 1.1.4 1.7v1.2c0 .6-.2 1.2-.5 1.8L3 59.2v2.5l.2.6v.5l.3.9.4 1c0 .1 0 .2.2.3l1 .7c.6.4 1 1 1.2 1.7l.4 1 .1.2 1 .6.7.5.6.2.5.2 1.2.7.5.3.4.3H13.2c.5-.1 1 0 1.6 0l1 .3h.6l.5-.1.6-.1h1.7l.6.1.5.1h.6l1-.2 1.2-.2.6-.1.6-.1c.5-.1 1-.1 1.6 0h.5l.6.1a5 5 0 0 1 1.6.6l.6.3.5.2.4-.2.6-.2c.5-.3 1.2-.4 1.8-.4l1.1.1h1.1l1.1.1h.9l.5-.1.6-.1 1.1-.2L40 71h1.7l.6.2h.5c.4.2.7.2 1 .2l1.2.2h.4l.6-.3.5-.2c.7-.2 1.4-.2 2 .1l.6.4.5.4.4.3.3-.2.6-.2 1.5-.5 1-.2 1.5-.2h1.1c.7 0 1.3.2 2 .5l.5.3.4.3.4-.2.6-.3 1.7-.4h1.1l1-.1 1.2-.1 1.7.1 1.1.3 1 .3h.5l.6.2h.3l.5-.3.6-.3.6-.2c.5 0 .9 0 1.3.2l.6.2.6.4.3.2.3-.2.6-.4c.7-.4 1.5-.6 2.3-.4l1.1.3h.9l.6-.2c.5-.2 1-.2 1.5-.2H83c.6 0 1.1 0 1.6.2l1.1.4h4.2l1.4.2.5.2.6.1 1 .2h.5l.5.1h.1l1.1-.9c.5-.4 1.2-.6 1.8-.6l.7.2 1.2.3 1 .4 1.1.3H104l1.1-.3c.7-.2 1.4-.2 2 0l.6.2.6.2.6-.2.6-.2a3 3 0 0 1 2.3 0l.5.3.6.2.4.1 1-.1c.2 0 .4 0 .6-.2l1.1-.6a2.6 2.6 0 0 1 2.1-.2l.6.2.6.4.3.2.3-.2.6-.3c.6-.4 1.3-.6 2-.5h.7l.5.1c.5 0 1 .2 1.5.4l1.1.4h3l1.2.2h.5l1.1-.4 1.2-.3 1.1-.3c.6-.1 1.1-.2 1.7 0h1.1l1.5.4.6.3.5.2h.3l.5-.1.6-.2 1-.3.5-.2.5-.2.7-.2c.4 0 .8 0 1.2.2l.6.3.6.3.5.4.6-.1.6-.2 1.4-.1h1.1l.8-.1.5-.2.6-.1c.7-.2 1.4-.1 2 0l1.1.5.7-.3.5-.2a3 3 0 0 1 2.3 0l.5.2.6.2.8.3 1.1.1h.6l1-.3c.4 0 .7-.1 1-.3l.6-.2.6-.1c.6-.3 1.3-.3 2-.1l1 .2 1 .2 1.1.1 1.3.2 1 .2 1.1.1 1.2.2.3-.1.6-.2.5-.3 1.8-.3h1.1a5 5 0 0 1 1.6.3l1.2.5h.9l.6-.1 1-.2 1.2-.2c.6 0 1.2 0 1.8.2l.5.1.5.2.6-.4.5-.3c.6-.4 1.3-.6 2-.6h1.2c.6.1 1.2.3 1.7.6l.6.3.3.2.4-.3.6-.3c.6-.4 1.3-.6 2-.5l1.2.2c.5 0 1 .1 1.4.3l.6.2.5.1h.1l.6-.2.6-.2.6-.2c.5 0 1 0 1.4.2l.5.3.6.4.4.3.4-.1.5-.3c.7-.3 1.4-.3 2.1-.2l.6.2.5.1h.2l.5-.3.6-.3a3 3 0 0 1 2.2-.1l.6.2.5.1 1.2.4.6.2.5.2.6-.3.5-.3c.7-.3 1.4-.4 2.1-.2l.6.1.6.1.7.1h1.1l.7-.2 1-.4.7-.2c.5 0 1 0 1.3.2l.6.3.5.3.4.3.3-.2.6-.3.6-.3h1.3l.6.2.6.2.4.2.4-.2.6-.4.5-.2c.4-.2.8-.2 1.2-.2l.7.2 1 .4h.2l.6-.2.6-.2a3 3 0 0 1 2.2.1l.5.3.6.2c.2.2.4.2.6.2h1.1l1 .1h2.5l.5.1H250l.6-.2.6-.3a3 3 0 0 1 2.2 0l1.2.3.6.2h2.1l1-.2 1.7.1 1.1.3h9.5l1-.3h1.8l1.2.2h.2l1.1-.6 1.4-.4 1.2-.3h.6a3 3 0 0 1 1.7.5l.5.4.6.4 1-.3 1.2-.2 1.1-.3c.7-.1 1.4 0 2 .2l.6.3.6.2.6.2h1.5l1.1-.6c.6-.3 1.3-.3 2-.2l.5.3.6.3.5.3.6-.2.6-.1c.6-.2 1.2-.2 1.7-.1h.6l.6.2h1.2l.6-.1 1-.2h.6l.6-.2h3.5l1-.1c.7 0 1.3 0 1.8.2l.6.2.6.2h2.8l1-.1c.3 0 .5 0 .8-.2l.6-.2.5-.2a3 3 0 0 1 2.2 0l.6.3.5.2h1.5l1.4-.1h1.1l.5-.1.5-.3.6-.2a3 3 0 0 1 1.7-.3l.5.1 1.2.4.5-.2.6-.2a4 4 0 0 1 1.8-.3h1.2c0 .1 0 0 .1 0l.5-.3.5-.3 1.2-.6 1-.5.4-1.2c.3-.6.7-1.2 1.3-1.6l.4-.4.5-.3.2-.6.1-.6v-1.9c-.1-.7 0-1.3.3-2l.3-.5.2-.4-.2-.4-.3-.6a3 3 0 0 1-.2-2.1l.3-1.2v-.2l-.2-.6-.1-.6c-.3-.6-.3-1.3 0-2l.2-1.1.2-.7v-1.1c0-.6 0-1.1.2-1.6l.2-.6.2-.5-.3-.6-.3-.5c-.5-.9-.4-1.8.1-2.7l.4-.5.3-.5-.2-.5-.1-.6-.4-1.4V38c-.1-.6 0-1.1 0-1.6l.3-1.1V35l-.2-.6-.2-.5c-.2-.6-.2-1.3 0-2v-.5l.2-.5c0-.5.1-.9.3-1.3l.1-.5.2-.6v-.3l-.1-.6-.2-.6a4 4 0 0 1 0-1.7v-.6l.2-.6v-.5l-.3-1-.2-1.1-.4-1.1-.2-.8V17.7c0-.5 0-1 .2-1.5l.3-1.2v-1l-.1-.6a4 4 0 0 0-.2-.8l-.4-1-.4-.8-.2-.4-.3-.5-.7-1.4-.1-.6-.2-.5-.2-.3-.4-.4-.5-.3-.8-.7-1-.7h-2.9l-1-.4a6 6 0 0 1-1.4-.6l-.6-.3-.3-.2-.4.2-.6.3c-.9.5-1.8.4-2.6-.1l-.6-.4-.5-.3-.1-.1h-.6l-.6.2-1.2.1H318l-1-.2h-.8l-1.2.2h-1.5l-.5-.1h-.6c-.2-.1-.5-.1-.8 0h-1.1c-.2 0-.4 0-.7.2l-1 .5c-.9.3-1.7.3-2.5 0l-.6-.4-.5-.3h-.8l-.5.2c-.4 0-.7 0-1 .2l-.6.1-.6.1c-.7.2-1.4.1-2-.1l-1.1-.5h-.1l-1.2.4c-.6.2-1.3.2-2 0l-1.1-.3h-.4l-1.1.2c-.5.1-1 .1-1.6 0h-1.6l-.5.2-.6.2a3 3 0 0 1-2.2 0l-1.1-.4-.7-.1-1.2-.1a1 1 0 0 0-.4 0l-.6.3-.5.2c-.6.2-1.2.4-1.8.3h-2.6l-.5.1h-1.6l-.6-.2-.5-.1-1.4-.4-.5-.2-.6-.2-.5.3-.6.3c-.7.3-1.5.4-2.3.2l-1-.4h-1l-.5.2-1.3.1-.6.1h-3.8l-1 .2-1.3.2h-.5l-.6.2c-.7 0-1.4 0-2-.3l-1.1-.6H252a4 4 0 0 1-1.8-.1l-1-.4h-.2l-1.2.4-1.4.3h-1.1c-.5.2-1 .1-1.6 0h-.5l-.6-.2-2.3-.4h-.3l-.5.3-.6.2-1.4.4-1.1.2c-.7.2-1.5 0-2-.3l-1.2-.6a.8.8 0 0 0-.4-.1h-1.1l-1.1.1h-1.2l-1 .1H224.8l-.5.1-.5.3-.6.2c-.6.3-1.3.4-2 .3l-1.1-.2H219l-.6.1h-2.6c-.3-.1-.5-.1-.8 0H211.4c-.5 0-1 0-1.4-.2h-.6l-.6-.2h-.2l-1.2.3a3 3 0 0 1-2.2-.1l-.6-.3-.5-.3-.6-.1H201l-.6.1-1.3.1h-1l-1 .1-1.2.2a4 4 0 0 1-1.8-.2l-.5-.2-.6-.2-.5.3-.6.3c-.7.4-1.5.5-2.3.3l-1-.4h-.5l-.5.1-.6.1-1.4.2h-1.2c-.5 0-1-.2-1.6-.4l-.6-.2-.5-.2h-.2l-.6.1-.5.2c-.8.2-1.5.1-2.2-.2l-1.1-.5a.9.9 0 0 0-.4 0H170ZM16.5 2.8ZM14.3 1l-.2.1.2-.1Z"/><path fill="#000" d="M21.6 39.6h-.7v3.8c0 .3-.2.6-.4.8a1 1 0 0 1-.7.3 1 1 0 0 1-1.1-1.1v-2.3a63.4 63.4 0 0 1 .3-7.7c0-1.4.4-2.1 1.2-2l.8-.2h1.2c1 0 2.1.3 3 1 1.1.8 1.7 1.8 1.7 3a4 4 0 0 1-1.7 3.3c-1 .8-2.2 1.1-3.6 1.1Zm.4-6.3a12 12 0 0 0-.8 0 120 120 0 0 1-.2 4.1h.6c.9 0 1.6-.1 2.2-.5.6-.5.9-1 .9-1.8 0-.4-.3-.9-.9-1.2-.5-.4-1.1-.6-1.8-.6Zm10.3 11.4c-1.3 0-2.4-.4-3.3-1-.9-.7-1.4-1.7-1.4-3 0-1.4.4-2.5 1.2-3.5a4 4 0 0 1 3.3-1.6c1 0 1.8.1 2.4.4.8.4 1.3 1 1.3 2 0 .6-.4 1.1-1 1.6l-2 1-2.8 1.2c.3.3.6.5 1 .6.4.2.8.2 1.3.2.8 0 1.4-.1 1.9-.4.5-.3.8-.4 1.1-.4.6 0 .9.3.9.8 0 .6-.5 1.2-1.4 1.6-.8.3-1.6.5-2.5.5Zm-.2-7.1c-.5 0-1 .2-1.3.5-.4.3-.7.9-1 1.6a490.8 490.8 0 0 1 3.7-1.8 3 3 0 0 0-1.4-.3Zm8.8-1.6c.6-.4 1-.7 1.2-.7.5 0 .8.4.8 1.1 0 .2-.3.6-.8 1l-1.2 1a197 197 0 0 1-.2 5.8c-.1.2-.4.3-.8.3-.7 0-1-.3-1-1v-3.8l-.3.3c-.4.3-.6.5-.9.5-.5 0-.8-.4-.8-1 0-.3.2-.6.5-.9l1.5-1.2v-4.7c0-.3.1-.6.3-.8.2-.2.5-.3.8-.3.6 0 1 .4 1 1V36Zm9.4 8.9c-.7 0-1-.4-1.2-1a1346.8 1346.8 0 0 1-.3-4.2 13.6 13.6 0 0 0 0-1.5c0-.4 0-.6-.3-.6-.5 0-1 .3-1.5.9-.5.5-.9 1.3-1.1 2.2l-.1.8a5.5 5.5 0 0 0 0 1.4v.7c0 .3 0 .6-.3.8-.2.2-.5.3-.8.3-.4 0-.6-.1-.8-.3a1 1 0 0 1-.4-.8V40a29 29 0 0 0 .1-3.7c0-.4.1-.6.3-.8.3-.2.5-.3.9-.3.7 0 1 .4 1.1 1.3.9-.7 1.7-1.1 2.6-1.1 1 0 1.8.4 2.2 1.3.3.6.4 1.4.4 2.6v.6a28.6 28.6 0 0 0 .2 2.2l.1 1.7c0 .3 0 .6-.3.8-.2.2-.5.3-.8.3Zm10.6-7.7a1690 1690 0 0 1-4.5 9.6l-.5 1.5c-.2.5-.6.8-1 .8s-.7-.1-1-.3a1 1 0 0 1-.3-.8c0-.5.6-2 1.8-4.6a143.9 143.9 0 0 0-3.6-6.6c0-.3.2-.6.4-.8.2-.3.5-.4.8-.4.4 0 .7.2.9.4a32 32 0 0 1 2.8 4.8 278 278 0 0 1 2.2-4.6c.2-.4.6-.6 1-.6.3 0 .6.1.8.3.3.2.4.5.4.8 0 .2 0 .3-.2.5Zm12.4 7.6c-.4 0-1 0-1.5-.2V48c0 .3 0 .6-.3.8-.2.2-.5.3-.8.3-.4 0-.6 0-.9-.3a1 1 0 0 1-.3-.8 965.3 965.3 0 0 1 0-9.5l-.2-1.6c0-.5.1-.9.3-1.2.2-.4.6-.6 1-.6.3 0 .5.1.8.3.2.2.3.5.3.8a4.8 4.8 0 0 1 2.2-.5 3 3 0 0 1 2.8 1.6c.5.8.7 1.9.7 3.2 0 1.2-.4 2.2-1 3-.8.8-1.8 1.3-3 1.3Zm.6-7-1 .3c-.4.2-.8.4-1.1.8v3.4c.6.2 1 .2 1.5.2.6 0 1-.2 1.4-.6.2-.3.4-.8.4-1.4a8 8 0 0 0-.1-1.6c-.2-.7-.5-1-1-1Zm7.3 5.3c0 1-.4 1.5-1.2 1.5-.3 0-.6 0-.8-.3a1 1 0 0 1-.3-.8V32c0-.3.1-.6.3-.8.3-.2.5-.3.9-.3.3 0 .6.1.8.3.2.2.3.5.3.8v11Zm9.3 1.7c-.2 0-.7-.2-1.2-.8l-1.4.5c-.3.2-.7.2-1 .2-1.3 0-2.3-.3-3-1-.6-.8-1-1.8-1-3.3 0-1.3.5-2.4 1.5-3.4a5 5 0 0 1 3.6-1.4c.5 0 1.1.1 1.8.4.8.4 1.3.8 1.3 1.3l-.2.5-.2.9A14.4 14.4 0 0 0 91 42a24.8 24.8 0 0 0 .7 1.7c0 .3 0 .5-.3.7-.2.2-.5.3-.8.3Zm-2-5.7a6.4 6.4 0 0 1 0-1.4 1.5 1.5 0 0 0-.4-.1c-.8 0-1.4.3-2 .9-.6.5-.9 1.2-.9 2s.2 1.3.4 1.7c.3.4.7.6 1.2.6a2.8 2.8 0 0 0 1.9-.7 26 26 0 0 1-.3-3ZM99.3 45c-.7 0-1-.4-1.2-1a1346.8 1346.8 0 0 1-.3-4.2 13.6 13.6 0 0 0 0-1.5c0-.4 0-.6-.3-.6-.5 0-1 .3-1.5.9-.5.5-.9 1.3-1.2 2.2v.8a5.6 5.6 0 0 0 0 1.4v.7c0 .3 0 .6-.3.8-.2.2-.5.3-.8.3-.4 0-.6-.1-.9-.3a1 1 0 0 1-.3-.8V40a29 29 0 0 0 0-3.7c0-.4.2-.6.4-.8.3-.2.5-.3.9-.3.7 0 1 .4 1.1 1.3.8-.7 1.7-1.1 2.6-1.1 1 0 1.8.4 2.2 1.3.2.6.4 1.4.4 2.6v.6a33.7 33.7 0 0 0 .1 2.2c.2.7.2 1.3.2 1.7 0 .3 0 .6-.3.8-.2.2-.5.3-.8.3Zm15.6-7.3a12.3 12.3 0 0 1-.8 0h-.8a128 128 0 0 1 .2 5.3c0 1.3-.4 2-1.2 2-.3 0-.6-.2-.8-.4a1 1 0 0 1-.4-.7 23 23 0 0 1 0-1.8v-4.3l-1.7-.2c-.7 0-1-.4-1-1a1 1 0 0 1 1.1-1.2l1.5.1a51.1 51.1 0 0 0-.1-1.7c0-.3 0-.6.3-.8.2-.2.5-.3.8-.3.9 0 1.3.7 1.3 2.1v.7a6.1 6.1 0 0 1 2.1 0c.5.2.7.5.7 1 0 .4-.1.6-.3.9-.3.2-.5.3-.9.3Zm9.2.7c0 .8-.5 1.2-1.2 1.2s-1-.3-1-1v-.9c-1.3.2-2.2.9-2.8 2v4.1c0 .4 0 .6-.3.8-.2.2-.5.3-.8.3a1 1 0 0 1-.8-.3c-.2-.2-.3-.5-.3-.8v-5.4a26.1 26.1 0 0 1 0-1.6c0-.3.2-.5.3-.7.2-.3.5-.4.8-.4.7 0 1 .4 1.1 1 1-.7 2.1-1.1 3.3-1.1 1.1 0 1.7.7 1.7 2.2v.6Zm5.4 6.4c-1.3 0-2.4-.4-3.3-1-.9-.7-1.4-1.7-1.4-3 0-1.4.4-2.5 1.1-3.5a4 4 0 0 1 3.4-1.6c1 0 1.7.1 2.4.4.8.4 1.2 1 1.2 2 0 .6-.3 1.1-1 1.6l-1.9 1-2.8 1.2c.3.3.6.5 1 .6.4.2.8.2 1.3.2.7 0 1.4-.1 1.9-.4.5-.3.8-.4 1.1-.4.6 0 .9.3.9.8 0 .6-.5 1.2-1.4 1.6-.8.3-1.6.5-2.5.5Zm-.2-7.1c-.5 0-1 .2-1.4.5-.3.3-.6.9-.8 1.6a452.9 452.9 0 0 1 3.6-1.8 3 3 0 0 0-1.4-.3Zm12.1 7.3c-.7 0-1-.4-1.1-1a1343.5 1343.5 0 0 1-.4-4.2 13.7 13.7 0 0 0 .1-1.5c0-.4-.1-.6-.3-.6-.6 0-1 .3-1.6.9-.4.5-.8 1.3-1.1 2.2v.8a5.6 5.6 0 0 0 0 1.4v.7c0 .3-.1.6-.4.8-.2.2-.4.3-.8.3-.3 0-.6-.1-.8-.3a1 1 0 0 1-.3-.8v-.7l-.1-.7V40a29.4 29.4 0 0 0 .1-3.7c0-.4.2-.6.4-.8.2-.2.5-.3.8-.3.7 0 1.1.4 1.2 1.3.8-.7 1.7-1.1 2.6-1.1 1 0 1.7.4 2.1 1.3.3.6.4 1.4.4 2.6v.6a33.7 33.7 0 0 0 .2 2.2l.2 1.7c0 .3-.1.6-.4.8-.2.2-.5.3-.8.3Zm4.3-10.6c-.4 0-.7-.2-1-.4-.2-.2-.3-.5-.3-.9 0-.3.1-.6.4-.9.2-.2.5-.3.9-.3.3 0 .7.1 1 .3.2.3.3.6.3 1 0 .3-.1.6-.4.8-.2.2-.6.4-1 .4Zm.7 6a69.9 69.9 0 0 0 0 3.1c0 .3 0 .6-.3.8-.2.2-.5.3-.8.3-.3 0-.6 0-.8-.3a1 1 0 0 1-.3-.8 54.6 54.6 0 0 0-.1-3v-1.9l.2-1.8c0-.4 0-.6.3-.8.2-.3.5-.4.8-.4.3 0 .6.1.8.4.3.2.4.4.4.8l-.1 1.8-.1 1.9Zm8.7 4.6c-.6 0-1-.4-1.1-1a580.8 580.8 0 0 1-.3-4.2 13.7 13.7 0 0 0 0-1.5c0-.4 0-.6-.3-.6-.5 0-1 .3-1.5.9-.5.5-1 1.3-1.2 2.2v.8a5.6 5.6 0 0 0 0 1.4v.7c0 .3-.1.6-.3.8-.3.2-.5.3-.9.3-.3 0-.6-.1-.8-.3a1 1 0 0 1-.3-.8v-.7l-.1-.7.1-2.2a29 29 0 0 0 0-3.7c0-.4.2-.6.4-.8.2-.2.5-.3.8-.3.8 0 1.2.4 1.2 1.3.8-.7 1.7-1.1 2.6-1.1 1 0 1.8.4 2.2 1.3.2.6.4 1.4.4 2.6v1.1l.1 1.7.2 1.7c0 .3-.1.6-.3.8-.3.2-.5.3-.9.3Zm10.1-5.6-.4 4.1c0 1.8-.3 3.1-.9 4-.7 1-2 1.6-3.8 1.6-2.2 0-3.3-.4-3.3-1.3 0-.3.1-.6.3-.7.2-.2.5-.3.8-.3l1 .1 1.3.2c.8 0 1.4-.3 1.8-.8.4-.5.6-1.3.7-2.4a2.8 2.8 0 0 1-2.1 1 3.6 3.6 0 0 1-3.8-4 5 5 0 0 1 1.4-3.6c1-1 2.3-1.5 3.9-1.5l1.3.2 1 .6c.7.1 1 .5 1 1.3 0 .3 0 .9-.2 1.5Zm-3.2-1.7c-1 0-1.7.4-2.2 1-.5.5-.7 1.3-.7 2.2 0 .6.1 1.1.4 1.4.2.4.6.5 1.1.5.5 0 1-.2 1.4-.7.4-.5.7-1 .7-1.5l.4-2.5-.6-.3h-.5Zm8 7.2c-1 0-1.9-.4-2.6-1a4.3 4.3 0 0 1-1.3-3.2c0-1.2.3-2.3 1-3.3.8-1.1 2-1.7 3.5-1.7 1.1 0 2 .5 2.7 1.4.6.8.9 1.8.9 3s-.4 2.3-1 3.2c-.8 1-1.9 1.6-3.2 1.6Zm.5-7c-.7 0-1.2.3-1.6 1-.3.5-.5 1.1-.5 1.8s.2 1.2.6 1.6c.3.2.6.4 1 .4.5 0 1-.2 1.3-.5.4-.4.6-1 .6-1.6.1-1.8-.4-2.7-1.4-2.7Zm15.7-.9-1.7 6-.8 1.5c-.3.4-.7.6-1.1.6-.7 0-1.3-.7-1.7-2l-.5-3-.2.6a123 123 0 0 0-1.7 3.7c-.2.4-.5.6-1 .6-.3 0-.5-.2-.8-.7-.3-.5-.6-1-.8-1.9a66.1 66.1 0 0 1-.9-5.6c0-.3.1-.6.4-.8.2-.2.5-.3.8-.3.6 0 1 .3 1.1.9l.2 1.1a49 49 0 0 0 .4 3.3c.5-1.1 1-2.5 1.5-4.2.2-.7.6-1 1.2-1 .7 0 1 .3 1.3 1.1a33.5 33.5 0 0 1 .8 4.6l1.3-5c.2-.5.5-.8 1-.8.4 0 .7.1 1 .3.2.2.3.5.3.8v.2Zm9.3.3a1485.2 1485.2 0 0 1-4.5 9.6l-.5 1.5c-.2.5-.6.8-1 .8s-.7-.1-1-.3a1 1 0 0 1-.3-.8c0-.5.6-2 1.8-4.6a143.5 143.5 0 0 0-3.5-6.6c0-.3 0-.6.3-.8.3-.3.5-.4.8-.4.4 0 .7.2.9.4a32 32 0 0 1 2.8 4.8 278.4 278.4 0 0 1 2.2-4.6c.2-.4.6-.6 1-.6.3 0 .6.1.8.3.3.2.4.5.4.8 0 .2 0 .3-.2.5ZM206.2 20.3h125v35h-125v-35Z"/><path fill="#000" d="M216.3 18.7c.4 0 .7 0 1.1.2l.4.2.4.1.7.3.3.2.4.1h1.1c.1 0 .3 0 .5-.2l.7-.2a2 2 0 0 1 1.5 0l.4.2.3.2.3-.2.4-.2 1.2-.3h.8c.4 0 .7 0 1.1.2l.4.1.4.2H229.3l.3-.1h2.7l.4-.1.5-.1.4-.2h.4a2 2 0 0 1 1.4 0h.4l.3.2c.2 0 .3.1.4 0h1.2l.7-.3a2 2 0 0 1 1.5 0l.4.2.4.2.3-.2.4-.2a2 2 0 0 1 1.5 0l.4.1.3.2h.4l.8.1h.5l.4-.1.4-.1h1.8l.7.2h.7l1 .1.3.1.3.1.8-.5c.5-.4 1.1-.5 1.7-.3l.8.4h1.1c.3 0 .7 0 1 .2l.4.1.3.1.8-.4c.3-.3.8-.4 1.2-.3l.4.1.4.2.4.2h1l.8-.1h.7l.7-.2h.7l.7-.2.7-.2c.5-.1 1 0 1.5.2l.7.3.5.2h.4l.4.1h.1l.7-.4.4-.1c.4-.1.9 0 1.2.1l.4.2.4.2h.1l.4-.1h.4c.3-.2.6-.2 1-.2h1.1l.8-.3 1-.2h4.8l.7.3 1 .3.7.3.8-.2 1-.2h.8l.8.1h1.5l.7.1h.4l.3-.2.4-.2 1.2-.2h.7l1 .2.4.2h.4l.5.2h.9l.4-.2.3-.2c.5-.3 1-.4 1.6-.3l.4.2h.4l.8.4.4.1.4.2h.4l.7.1h.4l.3-.2.4-.2a3 3 0 0 1 1.1-.2H305.2l.8-.3a2 2 0 0 1 1.5.1l.7.4h.4l.7.1 1 .1.7.2H312.2l.5-.1.7-.3 1-.2.8-.1.8-.1h1.7l.4.1h.4l.7.2h.3l.4.1h1.4l.8.1h2.1l.4-.1.4-.2.4-.2a2 2 0 0 1 1.4-.1l.7.2.6.1h.8l.6.1h1.1c.2 0 .3 0 .5.2l.4.3.2.5v.2l.1.3v1.6l.1.4.2.4.1.4c.2.5.2 1 0 1.5l-.3.4-.1.3.2.3.2.4c.2.5.2 1 0 1.6l-.4.8v.8l.2.8v.3l.2.4v1.2l-.2.4v.3l.2.5.2.3c.3.6.3 1.2 0 1.7l-.2.4-.2.4-.2.4v1.4l.2.4c.2.4.2.8.1 1.3l-.2.7v.6l-.1.4v.7l.2.4.1.3c.2.5.2 1 .1 1.4v.4l-.2.3v.2l.2.4.1.3c.2.5.2 1 0 1.4v.4l-.1.4-.2.6-.1.8v.1l.2.4.2.4c.2.5.2 1 0 1.6l-.2.4-.2.3.1.4.2.3c.2.5.2 1.1-.2 1.6l-.4.5a2 2 0 0 1-1 .6l-.8.2-.9.2h-.3l-.4.1h-1l-.7.1-1.2-.3-.3-.2-.4-.1-.3.1-.4.2c-.4.2-.9.3-1.3.2l-.8-.2h-.6l-.4-.1H320l-1.5.1h-.4l-.4.1c-.4 0-1 0-1.3-.3l-.4-.2-.4-.2-.8.1-.6.2-.7.3c-.4.2-1 .2-1.4 0l-.7-.1a1 1 0 0 0-.4 0h-.8a7 7 0 0 0-.6.1l-.8.2c-.5 0-1 0-1.4-.2l-.3-.2-.4-.2H305l-.4.1-.4.1h-2.1l-.4.2-.3.1c-.6.2-1.2.1-1.7-.2l-.7-.5h-.9l-.6.2-.8.1-.6.2-.8.2c-.5.2-1 .1-1.5-.1l-.7-.4a1 1 0 0 0-.4-.1h-.9l-.4.2-.4.2c-.4.2-.8.4-1.3.3h-.7l-1-.1-.3-.1h-.4c-.1-.1-.2-.1-.4 0H285l-.4-.2-.4-.1h-.2l-.8.1h-1l-.8-.1h-1l-.4-.1h-.8l-.8-.1h-.7l-.4-.1h-.8l-.7.2-.7.2-.7.3c-.6.2-1.2.1-1.7-.2l-.4-.3-.2-.2-.3.1-.3.2c-.4.2-.9.3-1.3.2h-.8l-.9-.2-.8-.3h-1.1a9 9 0 0 1-.9 0h-1.5l-.8-.1h-.9l-.3.1a1 1 0 0 0-.4.2l-.4.2-.4.2c-.5.3-1 .3-1.6.1l-.7-.2H257l-.4.2-.4.1c-.6.2-1.2 0-1.6-.3l-.4-.3-.2-.1h-.2l-.3.3c-.4.2-.8.4-1.2.4h-.4l-.4.1H250l-1-.3-.4-.2-.3-.1h-.5l-.4.2-.8.2h-.4l-.3.2c-.6 0-1 0-1.5-.3l-.8-.4a.7.7 0 0 0-.3-.1h-1.5l-.4.2H240l-.4-.1-.3-.1-.8.4c-.4.3-.8.4-1.3.3h-.8l-.9-.2-.4-.1-.3-.2h-.6l-.4-.1H232.6l-.4.2H231l-.7-.3h-.3l-.8.2-.7.2-.7.2h-1.3l-.7-.2h-.3l-.8.1h-1.2l-.3-.1-.4-.1h-.3l-.7.2a3 3 0 0 1-1.1 0h-1.9l-.3-.1-1-.1-.7-.2H214l-.5.1-.4.1-.4.2-1.1.1h-.8l-.7-.1h-.8l-.9-.3-.7-.2a1 1 0 0 0-.4 0h-.4l-.3.1c-.2 0-.8.1-1.2-.3-.4-.5-.3-1-.2-1.2l.2-.7v-.1l-.3-.8-.3-1-.1-.7v-1.5l.1-.3.4-1 .3-.8-.1-.8-.2-.7-.3-.7a2 2 0 0 1 .2-1.6l.2-.3.2-.4v-1l-.1-.5-.1-.4-.1-.4a4 4 0 0 1-.2-1v-1.7l.2-.4v-.5l-.1-.4-.2-.3c-.2-.5-.2-1 0-1.5l.1-.7V33.2c0-.4 0-.8.2-1.1l.1-.4.2-.4V30.7l-.2-.3v-1.2l.2-.4v-.3l-.2-.4-.3-.4c-.3-.4-.4-.8-.4-1.3v-.8l.1-.9.1-.4v-1l-.2-.3v-2l.1-.4.3-.6.2-.2.2-.2.6-.3H207l.4.1h.7l.3.1h.7l.4-.2.4-.2 1.2-.2h.7l1.2.3.4.2.2.2.3-.2.3-.3 1.3-.4h.8Zm-.7 2-.3.1-.7.5c-.6.3-1.2.4-1.8.1l-.7-.4h-.4l-.7-.1h-.3l-.4.2-.4.2-1.2.2h-1.6l-.3-.1h-.1v.3l-.1.3v.4l.2.3v.4c.2.4.2.8.1 1.3v.3l-.1.4v.6l-.1.4v.4l.6.8c.3.5.5 1 .3 1.6v.4l-.2.3v.7l.2.4c0 .4 0 .9-.2 1.3v.4l-.2.4v1c0 .4 0 .8-.2 1.1v.4l-.2.4.2.4.2.4c.1.4.2 1 0 1.4v.7l-.1.5v1.3l.3.7.2 1v.7c0 .5 0 1-.2 1.3l-.4.8v.3l.2.4.2.8.2.8c.1.5 0 1-.2 1.4l-.3.7-.2.6-.1.7v1.1l.3.6.1.4.1.3c.2.4.2.7.2 1l.8.1.7.2.6.1h.8l.7.1h.4l.4.1h.3l.8-.3 1-.2h3.3l.3.1.4.1.6.1h.7l.8.1h.4l.4.1h.4l.7-.2H223.7l.3.2h.3l.8-.2h1.2l.4.1.3.1h.3l.7-.2.8-.2.8-.1h1.2l.4.1.3.1h.7l.4-.2H234.4l.9.2.4.1.4.1.5.2h.9l.4-.2.4-.2a2 2 0 0 1 1-.3h.5l.7.2h.6l.4-.2h1.8c.5 0 .9.1 1.2.4l.4.2.4.2h.4l.4-.2.6-.1.8-.3c.5-.1 1 0 1.4.1l.4.2h.3c.2.2.4.2.6.2l.7.1h1.3l.3-.2.7-.5.5-.2a1.5 1.5 0 0 1 1 0l.4.3.4.3.3.3.3-.1.4-.1 1-.2h1.9l.3.2.4.1.3-.2.4-.2 1-.4h.8l1-.1h.8l.7.1h2.1l1.1.1.4.1.4.1.5.2h1l.7-.4.5-.1a1.6 1.6 0 0 1 1 0l.3.3.4.3.3.2.3-.1.3-.1.9-.3.7-.2 1-.1h1.6l.4.1h.4l.7.1h.7l.9.1h.4l.3.2h.4l.8-.2h1.2l.4.2.4.1h2.5l.4.1h.6l.4.1h.5l.8-.5c.4-.2.8-.3 1.3-.3h.8l1 .4.8.4.4-.1.4-.1.8-.2.4-.1h.4c.3-.2.5-.2.8-.2l.8-.1c.5 0 1 .1 1.4.4l.3.2.4.2h.3l.3-.2c.4-.2.8-.2 1.2-.2h.4l.4.1h.4l.4-.1h.4c.3-.2.6-.2.9-.2h.7c.5 0 .9 0 1.3.2l.7.4h.5l.4-.1.8-.2h1.8l.8.3h.2l.7-.3c.3-.2.6-.3 1-.3l.3-.1h.4c.5-.2 1 0 1.4.2l.8.4h.1l1.5-.1h.4l.4-.1h1.6l1 .1.7.2h.1l.8-.4c.4-.1.8-.2 1.2 0h.4l.7.4.3.1h1.4l.4-.1h.3l.7-.2.7-.2.2-.2v-.2l-.2-.4a2 2 0 0 1 0-1.5l.3-.4.1-.3-.1-.4-.2-.3c-.2-.5-.3-1-.2-1.4l.1-.3v-.4l.3-.9v-.3l.2-.4v-.1l-.2-.4-.1-.4c-.2-.4-.2-.9-.1-1.3v-.4l.2-.4v-.1l-.2-.4-.1-.4c-.2-.4-.3-.8-.2-1.2v-.7l.2-1v-.3l.1-.4v-.2l-.2-.7c-.2-.4-.2-.8-.2-1.3l.2-.7c0-.4.2-.7.3-1l.2-.4.2-.3-.2-.3-.2-.4a2 2 0 0 1-.2-1.4l.1-.4v-.4l.1-.3v-.4l-.1-.3-.2-.8-.1-.8c-.1-.5 0-1 .2-1.3l.2-.4.1-.3-.1-.3-.2-.4c-.3-.5-.3-1.1 0-1.6l.2-.4.1-.4-.1-.3-.1-.4a3 3 0 0 1-.2-1.1v-1.1h-1.6l-.4-.1c-.3 0-.6 0-.9-.2l-.7-.2h-.1l-.4.2-.4.2c-.3.2-.6.3-1 .3H320.5a7 7 0 0 1-.9-.1l-.7-.1-.8-.2-.8-.1a2 2 0 0 0-.5 0h-1.4l-.7.1-.6.2-.4.1-.3.1a4 4 0 0 1-1 .3h-1.8l-.8-.2h-.6l-.7-.1a3 3 0 0 1-1.2-.3l-.3-.2-.4-.2-.4.1-.4.2-1 .1h-.8a1 1 0 0 0-.4.1l-.7.3-1.2.2h-.7c-.4 0-.8-.1-1.1-.3l-.8-.3-.6-.2-.4-.1-.3-.1-.4.2-.3.2c-.4.3-1 .4-1.4.4l-.8-.1-1-.2-.3-.1-.4-.1-.5-.1h-1.1l-.3.1-.4.2-1.2.2h-2.2l-.8-.1h-1.5l-.4.2a2 2 0 0 1-1.4 0l-.8-.4-.5-.2-.8-.2H277l-.4.1-.8.2c-.3.2-.7.2-1 .2h-1.3l-.4.2h-.4c-.4.1-1 0-1.3-.1l-.4-.2-.3-.1-.4.1-.3.2c-.5.2-1 .3-1.4.2h-.4l-.4-.1a4 4 0 0 1-1-.4l-.3-.1-.4-.2-.8.1-.9.2-.7.1-.9.1h-.7l-.7.1-.7.1c-.5 0-1 0-1.3-.2l-.4-.2h-.6l-.3.3c-.5.3-1 .4-1.6.2h-.4l-.4-.2H254.5c-.4 0-.8-.1-1.1-.3l-.4-.2h-.2l-.7.4c-.4.3-1 .5-1.6.4l-.7-.2-.6-.1h-.7l-.9-.1-.3-.1H246l-.4.1H244l-1-.1-.5-.2-.3-.1-.4.1-.4.2c-.5.2-1 .2-1.5 0l-.4-.2-.4-.1h-.4l-.3.2-1 .2h-.8c-.4.1-.8 0-1.2-.1l-.4-.1-.3-.2h-.1l-.4.1-.4.2-1 .2h-.7a7 7 0 0 1-.9 0H230l-.3.1h-.4c-.5.2-.9.1-1.3 0l-.7-.4a1 1 0 0 0-.4 0h-1.1l-.3.3-.4.2c-.5.2-1 .3-1.6 0l-.4-.2-.4-.1-.4.1-.3.1-1 .3h-.8l-1.2-.1-.3-.2-.4-.1c-.3 0-.5-.2-.8-.3l-.4-.2-.3-.1h-1.1Z"/><path fill="#fff" d="M272.3 38a3 3 0 0 1 1.6 2.8c0 1-.4 2-1.2 2.7a4 4 0 0 1-2.8 1.1 5 5 0 0 1-2.3-.5 3 3 0 0 1-1.6-1.7v-.3c0-.3.1-.5.3-.7.3-.2.5-.3.8-.3.3 0 .6.1.8.4l.5.7c.4.3.8.4 1.5.4.5 0 1-.1 1.3-.4.4-.3.5-.7.5-1.1 0-1.3-.8-2-2.6-2.2-.7 0-1.1-.4-1.1-1 0-.4.3-.7.9-1a154.6 154.6 0 0 0 2.4-.7c.2-.2.3-.4.3-.7 0-.7-.6-1.1-1.8-1.1-.4 0-.9.1-1.3.5l-1 .4a1 1 0 0 1-.8-.3 1 1 0 0 1-.3-.7c0-.5.4-1 1.3-1.4.8-.3 1.4-.5 2-.5 1.1 0 2 .2 2.8.7.8.6 1.1 1.4 1.1 2.4 0 .6 0 1-.3 1.5-.2.4-.5.7-1 1Zm7 6.8c-1.6 0-2.8-.6-3.5-1.7a1 1 0 0 1 .1-1.3c.2-.2.5-.3.8-.3.3 0 .5 0 .7.3l.6.6c.3.2.8.3 1.3.3.8 0 1.5-.2 2-.8a3 3 0 0 0 .8-2.1c0-.8-.1-1.4-.4-1.7-.3-.4-.6-.6-1.2-.6-.9 0-1.6.3-2.2.9l-.6.7c-.3.3-.6.4-1 .4a1 1 0 0 1-1-1l.1-1.4a34.2 34.2 0 0 0 .1-3.5V33c0-.3 0-.5.3-.6l.7-.2H283c.2 0 .5 0 .7.2l.2.7c0 .8-.8 1.2-2.3 1.2a18.3 18.3 0 0 1-.9 0h-2.3L278 36c.7-.4 1.5-.5 2.4-.5 1.3 0 2.3.4 3 1.4.5.7.7 1.7.7 2.9a4.7 4.7 0 0 1-5 5Zm9.5.4-.6 1.3c-.2.3-.4.5-.8.5a1 1 0 0 1-.7-.3.8.8 0 0 1-.3-.6l.5-1.2.6-1.3c.2-.3.5-.4.9-.4.2 0 .5 0 .7.2.2.2.2.4.2.6 0 .1-.1.6-.5 1.2Zm9-5.2-.9.3h-.7c-1 0-2-.2-2.7-.8-1-.7-1.5-1.6-1.5-3s.5-2.5 1.5-3.3c.8-.6 1.9-1 3.2-1 1 0 2 .5 2.8 1.3.9.8 1.3 1.9 1.3 3 0 1.4-.2 2.6-.7 3.8a6.7 6.7 0 0 1-4.2 4c-1 .5-1.7.7-2 .7a1 1 0 0 1-.8-.3 1 1 0 0 1-.3-.7c0-.4.2-.8.7-1l1.3-.4c.8-.3 1.4-.6 1.8-1 .4-.4.8-.9 1.2-1.6Zm-1.3-5.9c-.8 0-1.4.2-1.7.6-.4.4-.6 1-.6 1.8 0 .6.2 1 .6 1.4.5.3 1 .5 1.6.5l1-.3 1.2-.7v-.8c0-.6-.2-1.1-.7-1.7-.5-.5-1-.8-1.4-.8Zm11 6-.8.2h-.7c-1 0-2-.2-2.8-.8-1-.7-1.4-1.6-1.4-3s.5-2.5 1.5-3.3c.8-.6 1.9-1 3.2-1 1 0 2 .5 2.8 1.3.8.8 1.3 1.9 1.3 3 0 1.4-.3 2.6-.8 3.8a6.7 6.7 0 0 1-4.1 4c-1 .5-1.7.7-2.1.7a1 1 0 0 1-.8-.3 1 1 0 0 1-.3-.7c0-.4.3-.8.8-1l1.3-.4c.7-.3 1.3-.6 1.8-1 .4-.4.8-.9 1.2-1.6Zm-1.2-6c-.8 0-1.4.2-1.8.6-.4.4-.6 1-.6 1.8 0 .6.3 1 .7 1.4.4.3 1 .5 1.6.5l1-.3 1.1-.7.1-.8c0-.6-.2-1.1-.7-1.7-.5-.5-1-.8-1.4-.8Zm14.4 4.2-1.6 2-1.6 2.2a25 25 0 0 1 1.7.1l1 .1c.2 0 .5.1.7.3.2.2.3.5.3.7 0 .3 0 .6-.3.8a1 1 0 0 1-.8.3l-.9-.1-.9-.1a17.6 17.6 0 0 0-3.6.3c-.3 0-.5-.1-.7-.3a.8.8 0 0 1-.4-.6c0-.4.2-.7.5-1 1.3-1 2.7-2.7 4-4.8a19.3 19.3 0 0 1-3.3-.1c-.6-.1-1-.4-1-1 0-.3.2-.6.4-.8.2-.2.4-.3.7-.3l1.2.1a13 13 0 0 0 2.7 0h1.6c.7 0 1 .2 1 .8 0 .4-.2 1-.7 1.4Zm5-1.8 1.1-.6c.5 0 .8.3.8 1 0 .2-.3.5-.8 1l-1 1a192.6 192.6 0 0 1-.3 5.3c-.1.2-.4.3-.8.3-.6 0-.9-.3-.9-1V40l-.3.3c-.3.3-.6.4-.8.4-.5 0-.7-.3-.7-.9 0-.3.1-.6.4-.8l1.4-1.2v-4.4c0-.3.1-.5.3-.7.2-.2.4-.3.7-.3.6 0 1 .3 1 1v3.1ZM219.8 39.7V42c0 .4-.2.5-.5.5-.4 0-.7-.3-.7-.8a5.2 5.2 0 0 1 0-.6v-1.3h-2.5l-1.1-.1c-.4 0-.6-.2-.6-.4s.1-.4.4-.7l.5-.6 2.8-4.2c.3-.4.6-.6 1-.6.5 0 .7.2.7.6v4.9h.2c.8 0 1.1.2 1.1.6 0 .2-.1.4-.4.5h-.9Zm-1.1-5-2.5 3.8h2.5v-3.7Zm7.4 6.9a8.7 8.7 0 0 1-2.9 1.2l-.4-.1a.6.6 0 0 1-.1-.4c0-.3.1-.5.4-.6l1-.3c.6-.3 1-.5 1.4-.9.4-.3.7-.7 1-1.3l.2-.5a4.2 4.2 0 0 1-1.7.5 3 3 0 0 1-1.9-.6c-.6-.5-1-1.2-1-2.2 0-1 .4-1.9 1-2.4s1.4-.7 2.3-.7c.7 0 1.4.3 2 .9.5.6.8 1.3.8 2.2 0 1-.1 2-.5 2.9a5 5 0 0 1-1.6 2.3Zm-.9-7.3c-.6 0-1.1.2-1.4.5-.4.3-.5.8-.5 1.5 0 .6.2 1 .6 1.4a2.1 2.1 0 0 0 2.3.1l.8-.6.1-.8c0-.5-.2-1-.6-1.4-.4-.5-.8-.7-1.3-.7Zm5.3 10c-.2 0-.3 0-.4-.2a.5.5 0 0 1-.1-.3c0-.1 0-.5.3-1l.5-1c.1-.3.2-.4.4-.4l.4.2.1.4-.8 2c-.1.2-.2.3-.4.3Zm6.2-2.7a8.7 8.7 0 0 1-2.8 1.2l-.4-.1a.6.6 0 0 1-.2-.4c0-.3.2-.5.4-.6l1-.3c.6-.3 1.1-.5 1.5-.9l1-1.3.2-.5a4.2 4.2 0 0 1-1.7.5 3 3 0 0 1-2-.6c-.6-.5-1-1.2-1-2.2 0-1 .4-1.9 1-2.4.7-.5 1.4-.7 2.4-.7.7 0 1.3.3 1.9.9.6.6.9 1.3.9 2.2 0 1-.2 2-.6 2.9a5 5 0 0 1-1.6 2.3Zm-.8-7.3c-.7 0-1.2.2-1.5.5-.3.3-.5.8-.5 1.5 0 .6.2 1 .6 1.4a2.1 2.1 0 0 0 2.3.1c.2 0 .5-.3.9-.6v-.8c0-.5-.2-1-.6-1.4-.4-.5-.8-.7-1.2-.7Zm8.1 7.3a8.7 8.7 0 0 1-2.8 1.2l-.4-.1a.6.6 0 0 1-.1-.4c0-.3.1-.5.4-.6l1-.3c.5-.3 1-.5 1.4-.9.3-.3.7-.7 1-1.3l.2-.5a4.2 4.2 0 0 1-1.7.5 3 3 0 0 1-2-.6c-.6-.5-.9-1.2-.9-2.2 0-1 .3-1.9 1-2.4.6-.5 1.3-.7 2.3-.7.7 0 1.3.3 2 .9.5.6.8 1.3.8 2.2 0 1-.2 2-.5 2.9a5 5 0 0 1-1.7 2.3Zm-.8-7.3c-.6 0-1.1.2-1.5.5-.3.3-.5.8-.5 1.5 0 .6.2 1 .6 1.4a2.1 2.1 0 0 0 2.4.1l.8-.6v-.8c0-.5-.1-1-.5-1.4-.4-.5-.9-.7-1.3-.7Zm12.8 3.2-1.3 1.9-1.4 2a23 23 0 0 1 1.7 0h.7l.4.2.2.5c0 .1 0 .3-.2.4l-.4.1h-.7l-.6-.1a12.6 12.6 0 0 0-2.8.2c-.3 0-.5-.1-.5-.5 0-.2 0-.3.3-.5 1-1 2.1-2.4 3.3-4.3a21.2 21.2 0 0 1-3-.1c-.3 0-.4-.3-.4-.6l.1-.4.4-.2h.9a8.7 8.7 0 0 0 2 0h1.3c.3 0 .5.2.5.4 0 .3-.2.7-.5 1Zm2.8.8v2.5l-.1 1.1c0 .4-.2.6-.6.6-.3 0-.5-.2-.5-.6v-2.7l-.8.4c-.1 0-.2 0-.3-.2a.6.6 0 0 1-.2-.4c0-.2.1-.4.3-.5l1.1-.7v-3.9l.2-.4.4-.1.4.1.1.4v2.8l.3-.4.4-.2c.2 0 .3 0 .4.2l.2.4c0 .2-.4.8-1.3 1.6Z"/><path fill="red" d="m211.9 37.5.1-.1.2-.1.6-.2h.4l.6.1.2.1.2.1h1.1l.6-.1h1.1l.4.2H218l.2-.2.6-.1h.2l.4.1h1.1l.2.1H221l.2-.2h.2l.3-.1h.2l.2.1.2.2.2.1h1l.2-.1H225.6l.2-.1.6-.1h1.8l.4.1h1l.4-.1h1.4l.3.2h1.3l.2-.2.6-.2h.4c.2 0 .5 0 .6.2l.2.1.2.1h2.1l.5-.2.5-.1h2.8l.5.2h.2l.1.2.2-.1h.2c.1-.2.4-.2.6-.2H243.2l.6.1.2.1h.5l.5-.2h.2l.2-.1h.8l.1.1h.4l.3.1h1.3l.3.2H251.1l.2-.2h.7l.4.2h1.6l.2-.1h1.7l.1.1.3-.1.1-.1c.2-.2.4-.2.7-.2H258l.2.1.2.1h.2l.2-.1H260.5v.5l.3-.3v.2l.2.1v.2a.5.5 0 0 1-.5.6h-.3l-.3-.2h-.3l-.2-.1h-.7a1 1 0 0 1-.7 0h-.2l-.2-.1h-.6l-.4.2a1 1 0 0 1-.7.2h-.4l-.4-.1h-.3c-.1-.1-.2-.1-.2 0h-1.3a3 3 0 0 0-.3 0l-.2.1h-.8l-.3-.2-.4.1-.6.1H250.4a5 5 0 0 1-.4 0h-.4a5 5 0 0 1-.4 0h-.4a2 2 0 0 1-.5-.1l-.4-.2-.4.1h-1l-.4-.1-.4-.1h-.5l-.3.1-.4.2a1 1 0 0 1-.7 0l-.4-.1h-.2l-.4-.1h-.1l-.4.2c-.3.1-.6.1-.8 0l-.4-.2-.2-.1h-.4c0-.1-.1-.1-.2 0h-2.1l-.2.1-.2.1-.6.1h-1.9l-.6-.1-.4-.3H233.6l-.2.2-.2.1-.6.2h-.8l-.4-.1a4 4 0 0 1-.4-.1l-.2-.1h-1.5l-.4.1h-1.8l-.1-.1h-1.2l-.1.1-.6.1H223l-.3.1a1 1 0 0 1-.8-.2l-.2-.1h-.1l-.2.1a1 1 0 0 1-.8.1h-1l-.5-.1h-.2l-.2-.1h-.2l-.2.2a1 1 0 0 1-.7.1h-.4l-.3-.1h-.4l-.3-.1H215.6l-.4.1h-1.4l-.2-.2h-.9l-.4.2h-.9l-.2-.1h-.1v-1H211.5l.3.1h.2Z"/></svg>