<svg xmlns="http://www.w3.org/2000/svg" width="177" height="49" fill="none"><g clip-path="url(#a)"><path fill="#fff" d="M173.17 20.27c-.6 0-1.02-.2-1.26-.61-.16-.29-.3-.88-.43-1.77-.82.2-2.08.59-3.79 1.14-1.76.7-2.64 1.57-2.65 2.6.32.12.65.2.96.26 2.52.45 4.39 1.07 5.62 1.85a5.57 5.57 0 0 1 2.67 5 4.4 4.4 0 0 1-2.31 4.03 9.55 9.55 0 0 1-4.86 1.11c-1.43 0-2.8-.24-4.1-.72-1.69-.61-2.53-1.47-2.53-2.56 0-.44.17-.82.51-1.15.35-.33.74-.49 1.18-.49.34 0 .78.26 1.31.79.27.25.86.46 1.78.62.73.13 1.35.2 1.85.2.92 0 1.73-.11 2.43-.33 1.01-.32 1.52-.82 1.52-1.5 0-1.5-1.03-2.5-3.11-3.03l-1.71-.38a9.13 9.13 0 0 1-3.1-1.11c-.89-.61-1.33-1.54-1.33-2.77a5.01 5.01 0 0 1 3.23-4.9c.66-.29 1.7-.64 3.15-1.04 1.45-.42 2.48-.77 3.1-1.05.45-.2.94-.3 1.46-.3.47 0 .86.16 1.15.46.3.3.46.7.46 1.2 0 .32.07.78.2 1.4.14.6.21 1.07.21 1.39 0 .49-.15.89-.46 1.2-.3.3-.68.46-1.15.46ZM157.05 20l-.25 8.16c0 .86-.04 2.13-.13 3.8-.11 1.1-.65 1.64-1.6 1.64-1.08 0-1.62-.55-1.62-1.67 0-1.32.06-3.3.18-5.96.12-2.65.18-4.64.18-5.97 0-1.73.03-3.7.09-5.92.05-2.23.08-4.21.08-5.94 0-1.1.53-1.64 1.6-1.64 1.09 0 1.63.55 1.63 1.64 0 1.73-.03 3.7-.08 5.94-.06 2.22-.08 4.2-.08 5.92ZM148.5 33.98c-.2 0-.59-.24-1.13-.72-.5-.45-.86-.85-1.1-1.2-1.05.57-1.98 1-2.78 1.28-.8.3-1.46.44-2 .44-2.56 0-4.42-.72-5.6-2.16-1.1-1.36-1.65-3.44-1.65-6.24 0-2.64.91-4.9 2.72-6.79a8.79 8.79 0 0 1 6.53-2.82c.96 0 2.02.25 3.2.74 1.5.61 2.24 1.35 2.24 2.21 0 .3-.11.56-.33.79-.11.42-.2 1.1-.26 2.05-.06.95-.1 2.17-.1 3.66-.02 1.36.08 2.43.27 3.22a24.8 24.8 0 0 0 1.42 3.75l.1.28c0 .44-.16.8-.47 1.08-.3.29-.66.43-1.06.43Zm-3.41-11.4a15.61 15.61 0 0 1 .36-3.3c-.4-.2-.76-.36-1.05-.46-.29-.1-.52-.15-.7-.15-1.69 0-3.15.7-4.39 2.09a6.97 6.97 0 0 0-1.84 4.77c0 1.8.32 3.14.96 4.04.63.9 1.58 1.34 2.85 1.34 1.05 0 1.94-.19 2.67-.57.4-.2.95-.63 1.66-1.25-.35-2.9-.52-5.07-.52-6.51ZM124.68 33.47c-1.1 0-2.3-.17-3.61-.52l-.03 7.84c0 .48-.16.87-.47 1.18-.29.3-.67.46-1.14.46-.47 0-.86-.15-1.17-.46-.3-.3-.44-.7-.44-1.18l.05-6.56v-6.55c-.03-2.4-.12-4.58-.25-6.55l-.24-3.33c0-.77.14-1.43.42-1.96.33-.65.8-.97 1.43-.97.43 0 .78.15 1.07.46.3.3.44.66.44 1.1l-.05.54c-.05.34-.1.65-.11.93.94-.64 1.84-1.12 2.72-1.44.87-.33 1.71-.5 2.5-.5 2.25 0 3.9 1 4.93 3 .82 1.57 1.23 3.65 1.23 6.24 0 2.37-.63 4.31-1.9 5.84a6.64 6.64 0 0 1-5.38 2.43Zm1.13-14.22c-1 0-1.92.22-2.72.67-.58.32-1.32.9-2.2 1.74.14 2.48.21 5.1.21 7.83a9.9 9.9 0 0 0 3.58.68 3.6 3.6 0 0 0 3.13-1.52c.62-.89.94-2.04.94-3.45 0-1.99-.25-3.47-.74-4.46-.48-1-1.22-1.5-2.2-1.5ZM96.92 33.65c-2.47 0-4.48-.61-6-1.85-1.68-1.37-2.52-3.28-2.52-5.74 0-2.85.7-5.23 2.07-7.16a7.02 7.02 0 0 1 6-3.15c1.82 0 3.3.31 4.45.92a3.7 3.7 0 0 1 2.12 3.48c0 1.1-.62 2.09-1.86 2.99-.54.39-1.7 1-3.47 1.83l-6.27 2.97A6 6 0 0 0 93.72 30c.92.46 1.98.7 3.2.7.75 0 1.64-.15 2.66-.43 1.29-.36 2.12-.83 2.49-1.41.37-.6.77-.89 1.2-.89.38 0 .72.15 1.01.44.31.29.46.62.46 1 0 1.22-.98 2.26-2.93 3.14a12 12 0 0 1-4.9 1.11Zm-.45-14.94a4.2 4.2 0 0 0-3.33 1.56c-.88 1.02-1.54 2.58-1.98 4.66l5.04-2.4a21.6 21.6 0 0 0 4.23-2.51c-.94-.88-2.26-1.31-3.96-1.31ZM84.2 20l-.24 8.16c0 .86-.05 2.13-.13 3.8-.11 1.1-.65 1.64-1.61 1.64-1.07 0-1.61-.55-1.61-1.67 0-1.32.06-3.3.18-5.96.12-2.65.18-4.64.18-5.97 0-1.73.03-3.7.08-5.92.06-2.23.08-4.21.08-5.94 0-1.1.54-1.64 1.61-1.64 1.09 0 1.63.55 1.63 1.64 0 1.73-.03 3.7-.09 5.94-.05 2.22-.08 4.2-.08 5.92ZM70.2 33.93a8.05 8.05 0 0 1-5.62-2.03 7.22 7.22 0 0 1-2.36-5.63c0-2.22.74-4.51 2.21-6.87 1.64-2.63 3.5-3.94 5.55-3.94 1.07 0 2.27.25 3.6.75 1.66.65 2.5 1.44 2.5 2.37 0 .41-.14.78-.4 1.11-.28.32-.62.48-1.03.48-.31 0-.6-.1-.83-.28l-.68-.58c-.64-.51-1.7-.77-3.16-.77-1.12 0-2.22 1-3.32 2.99-1 1.83-1.49 3.4-1.49 4.74 0 1.44.5 2.58 1.48 3.41a5.3 5.3 0 0 0 5.64.64l1.9-1.01c.33-.18.57-.27.71-.27.4 0 .76.17 1.05.5.3.31.44.68.44 1.1 0 .8-.84 1.56-2.52 2.3-1.48.66-2.7 1-3.68 1ZM57.48 20.27c-.6 0-1.03-.2-1.27-.61-.16-.29-.3-.88-.42-1.77-.82.2-2.09.59-3.8 1.14-1.75.7-2.64 1.57-2.65 2.6.33.12.65.2.97.26 2.51.45 4.38 1.07 5.6 1.85a5.58 5.58 0 0 1 2.68 5 4.4 4.4 0 0 1-2.31 4.03 9.55 9.55 0 0 1-4.86 1.11c-1.43 0-2.8-.24-4.1-.72-1.68-.61-2.53-1.47-2.53-2.56 0-.44.17-.82.51-1.15.35-.33.75-.49 1.18-.49.34 0 .78.26 1.32.79.26.25.85.46 1.77.62.73.13 1.35.2 1.85.2.92 0 1.73-.11 2.43-.33 1.02-.32 1.53-.82 1.53-1.5 0-1.5-1.04-2.5-3.12-3.03l-1.7-.38a9.13 9.13 0 0 1-3.1-1.11c-.9-.61-1.34-1.54-1.34-2.77a5.01 5.01 0 0 1 3.24-4.9c.65-.29 1.7-.64 3.15-1.04 1.44-.42 2.47-.77 3.1-1.05.45-.2.93-.3 1.46-.3.47 0 .85.16 1.15.46.3.3.45.7.45 1.2 0 .32.07.78.2 1.4.14.6.21 1.07.21 1.39 0 .49-.15.89-.45 1.2-.3.3-.68.46-1.15.46ZM42.3 23.32a560.92 560.92 0 0 0 .08 8.18c.05.5.07.86.07 1.1 0 .47-.16.86-.48 1.15-.31.3-.7.46-1.16.46-.84 0-1.38-.52-1.61-1.56a10.1 10.1 0 0 1-4.72 1.07 6.23 6.23 0 0 1-3.56-.95 4.26 4.26 0 0 1-1.86-3.07c-.43-2.9-.64-5.48-.64-7.74 0-1.5.17-3.2.5-5.12.15-.95.67-1.43 1.55-1.43.47 0 .87.15 1.18.46.32.3.48.68.48 1.15 0 .5-.08 1.3-.25 2.41-.15 1.1-.23 1.95-.23 2.53 0 1.82.06 3.39.18 4.69.12 1.3.3 2.34.55 3.13.36.2.71.35 1.06.46.35.1.7.15 1.04.15 1.46 0 3-.24 4.64-.7l-.02-3.34-.03-3.18c0-2.36.1-4.41.31-6.15.12-1 .65-1.51 1.6-1.51.46 0 .86.15 1.17.46.32.3.47.69.45 1.15l-.3 6.2ZM23.63 34.26c-.9 0-1.42-.48-1.57-1.43-.2-1.2-.4-2.9-.6-5.08l-.55-5.09c-.11-.75-.3-1.5-.56-2.21-.37-.99-.78-1.48-1.21-1.48-.4 0-1.16.34-2.27 1.03a9.33 9.33 0 0 0-2.07 1.53c0 1.03.02 2.06.09 3.08l.49 4.38c.2 1.73.31 3.16.31 4.29 0 .48-.15.87-.46 1.18-.3.31-.68.47-1.15.47-.47 0-.86-.16-1.16-.47-.3-.3-.45-.7-.45-1.18 0-1.33-.13-3.28-.4-5.86-.27-2.6-.4-4.55-.4-5.87 0-1.16-.16-2.07-.5-2.71a8.2 8.2 0 0 0-2.32 1.7L6.9 22.71c-.17.26-.45.6-.83 1.03 0 .66-.06 1.63-.18 2.9a33.6 33.6 0 0 0-.18 2.85c0 .32.04.78.14 1.37a8 8 0 0 1 .17 1.28c0 .45-.17.83-.51 1.14-.33.3-.72.46-1.17.46-1.23 0-1.85-1.41-1.85-4.22 0-.66.06-1.64.18-2.94s.18-2.28.18-2.93c0-.58-.05-1.45-.16-2.61-.1-1.16-.15-2.04-.15-2.63 0-2.48.56-3.72 1.67-3.72.43 0 .82.18 1.17.56.36.37.54.77.54 1.2 0 .22-.03.54-.08.98-.06.43-.09.77-.09 1l.04 1.72a9.77 9.77 0 0 1 2.5-3.17c1.11-.95 2.05-1.42 2.83-1.42 1.72 0 2.9.85 3.54 2.56.6-.8 1.32-1.4 2.15-1.8.83-.4 1.79-.6 2.86-.6 1.82 0 3.07.99 3.74 2.95.13.4.35 1.93.67 4.61.3 1.89.7 5.02 1.18 9.4.03.44-.11.81-.44 1.12-.33.3-.73.46-1.2.46Z"/><path fill="#000" d="m164.8 27.55.22.2a9.04 9.04 0 0 0 2 .32l-1.3-.3c-.32-.06-.63-.14-.93-.22Zm6.27 1.3c-.06.63-.57 1.1-1.52 1.39-.7.22-1.51.33-2.43.33l-.4-.01c-.42-.03-.9-.09-1.45-.19-.92-.16-1.51-.37-1.78-.62-.53-.53-.97-.79-1.3-.79-.45 0-.84.16-1.19.5-.34.32-.5.7-.5 1.14 0 1.1.83 1.95 2.52 2.56 1.14.42 2.33.66 3.57.71l.53.01a9.8 9.8 0 0 0 4.61-.98l.25-.13a4.37 4.37 0 0 0 2.3-3.71v-.33c0-2.18-.88-3.84-2.66-4.99-1.23-.78-3.1-1.4-5.62-1.85a5.56 5.56 0 0 1-.96-.26c0-1.03.9-1.9 2.65-2.6a65.1 65.1 0 0 1 3.8-1.14c.11.9.26 1.48.42 1.77.24.4.66.6 1.26.6.47 0 .86-.15 1.15-.45.3-.31.46-.7.46-1.2 0-.32-.07-.78-.21-1.4a7.3 7.3 0 0 1-.2-1.4c0-.48-.15-.88-.46-1.19-.3-.3-.68-.46-1.15-.46-.52 0-1 .1-1.46.3-.62.28-1.65.63-3.1 1.05l-1 .3c-.94.27-1.66.53-2.15.75a5.01 5.01 0 0 0-3.23 4.89v.22c.06 1.13.5 1.98 1.33 2.55.61.43 1.65.8 3.1 1.12l1.7.37c2.09.53 3.12 1.53 3.12 3.02v.13Zm5.8-12.97.03.18.1.6a9 9 0 0 1 .28 1.95c0 1.04-.34 2.1-1.16 2.93l-.02.02-.01.01c-.54.55-1.17.89-1.84 1.06a8.06 8.06 0 0 1 2.54 6.1l-.01.5a6.86 6.86 0 0 1-3.54 5.7 12.02 12.02 0 0 1-6.12 1.45c-1.71 0-3.37-.29-4.96-.87-1.9-.69-4.03-2.07-4.16-4.65v-.48a4.05 4.05 0 0 1 1.26-2.72l.03-.03a4.19 4.19 0 0 1 2.73-1.17l-.3-.18a5.63 5.63 0 0 1-2.4-4.83 7.7 7.7 0 0 1 1.22-4.32 8.03 8.03 0 0 1 3.48-2.85c.84-.38 2.03-.77 3.5-1.17l.96-.3c.87-.26 1.45-.47 1.79-.63h.01l.02-.01c.79-.35 1.62-.5 2.46-.5 1.07 0 2.13.37 2.95 1.22a4.12 4.12 0 0 1 1.16 2.93v.06Z"/><path fill="#000" d="M157.21 8.14c0-1.02-.47-1.57-1.43-1.63l-.2-.01c-1.07 0-1.6.55-1.6 1.64v1.34c-.02 1.4-.04 2.93-.08 4.6-.06 2.22-.09 4.2-.09 5.92v1.12c-.03 1.24-.09 2.86-.18 4.85-.12 2.65-.18 4.64-.18 5.96l.01.2c.06.92.53 1.4 1.4 1.47h.2c.96 0 1.5-.54 1.6-1.64.08-1.25.12-2.28.13-3.08l.01-.72.25-8.16c0-1.3.01-2.73.04-4.3l.04-1.62c.04-1.67.06-3.2.08-4.6V8.14Zm2.5 1.36c-.02 1.41-.04 2.96-.08 4.64-.06 2.2-.08 4.16-.08 5.86v.08l-.25 8.08v.77l-.13 3.16v.06l-.01.06c-.1.87-.38 1.9-1.19 2.73a4 4 0 0 1-2.9 1.16c-.96 0-2.12-.25-3.02-1.18a4.22 4.22 0 0 1-1.1-2.99c0-1.38.07-3.41.19-6.07.12-2.65.17-4.6.17-5.86 0-1.75.03-3.75.09-5.98.05-2.22.08-4.18.08-5.88 0-.92.22-2.07 1.12-2.98A4.1 4.1 0 0 1 155.59 4c.93 0 2.09.24 3 1.15.89.91 1.12 2.06 1.12 3V9.5Z"/><path fill="#000" d="M148.93 18.72c0-.8-.66-1.5-1.97-2.1l-.27-.11a8.91 8.91 0 0 0-2.83-.73l-.37-.01c-2.52 0-4.7.94-6.53 2.82a9.43 9.43 0 0 0-2.72 6.8v.51c.07 2.54.62 4.45 1.66 5.72 1.17 1.44 3.03 2.16 5.6 2.16a6 6 0 0 0 2-.44c.8-.28 1.72-.71 2.77-1.28.24.35.6.75 1.1 1.2l.38.31c.28.23.5.36.66.4l.09.01c.35 0 .67-.1.95-.33l.12-.1c.3-.28.45-.64.45-1.08l-.1-.28c-.17-.38-.3-.67-.37-.87-.58-1.44-.93-2.4-1.03-2.89-.2-.78-.3-1.85-.28-3.21 0-1.49.04-2.7.1-3.66.04-.71.1-1.28.18-1.69l.08-.36c.19-.2.3-.43.32-.68v-.1Zm-6.34 3.86c0-.4.01-.8.04-1.22-.5.18-.97.52-1.45 1.06a4.48 4.48 0 0 0-1.2 3.11v.55c.06 1.03.25 1.61.4 1.92l.09.12c.09.13.2.3.81.3v2.5l-.23-.01a3.22 3.22 0 0 1-2.5-1.18l-.12-.16c-.6-.84-.92-2.08-.95-3.7v-.34c0-1.8.6-3.4 1.83-4.77a5.7 5.7 0 0 1 4.4-2.09c.17 0 .4.05.69.15l.23.09c.24.09.51.21.82.37a15.31 15.31 0 0 0-.36 3.3v.57c.04 1.43.22 3.4.52 5.94a9.82 9.82 0 0 1-1.66 1.25c-.73.38-1.62.57-2.67.57v-2.5c.75 0 1.22-.13 1.5-.28l.19-.12c-.25-2.27-.38-4.1-.38-5.43Zm8.84-3.86c0 .66-.18 1.26-.48 1.79-.04.26-.08.65-.12 1.2l-.03.72c-.04.77-.06 1.7-.06 2.8-.01 1.12.06 1.9.16 2.4l.04.2v.02l.01.03c.05.2.2.67.53 1.53l.39.98v.03l.12.27.21.46.05.1.03.11.1.28.14.4v.43a4.02 4.02 0 0 1-4.03 4.01c-.87 0-1.55-.43-1.77-.57-.35-.22-.69-.5-1-.78-.48.21-.93.4-1.36.55-.93.35-1.91.6-2.87.6-3 0-5.73-.86-7.53-3.09-1.32-1.62-1.96-3.73-2.15-6.1.1-.6.15-1.22.15-1.89 0-.62-.02-1.22-.07-1.78a11.84 11.84 0 0 1 3.28-6.56v-.01a11.29 11.29 0 0 1 8.33-3.58c1.37 0 2.76.35 4.15.93 1.58.65 3.78 1.97 3.78 4.52Z"/><path fill="#000" d="M131.96 25.2c0-2.59-.4-4.67-1.23-6.25a5.18 5.18 0 0 0-4.92-2.98c-.8 0-1.64.16-2.51.49l-.33.13c-.77.3-1.57.75-2.4 1.31l.12-.93.05-.54c0-.44-.15-.8-.44-1.1a1.4 1.4 0 0 0-1.07-.46c-.62 0-1.1.32-1.43.97l-.1.2c-.22.5-.32 1.08-.32 1.76l.24 3.33c.13 1.97.21 4.16.25 6.55v6.55l-.05 6.56c0 .48.15.87.44 1.18.27.27.6.42 1 .45l.17.01c.47 0 .85-.15 1.14-.46.27-.27.42-.6.46-1v-.18l.04-7.84c1.15.3 2.21.48 3.2.51l.4.01c2.1 0 3.82-.7 5.13-2.13l.26-.3a8.67 8.67 0 0 0 1.9-5.4v-.44Zm-5.71 0c0-1.63-.2-2.61-.4-3.14l-.08-.2v-.02l-.01-.01-.05-.08c-.57.01-1.03.14-1.41.36h-.02c-.18.1-.45.3-.84.61.08 1.58.13 3.2.15 4.86.37.06.73.1 1.09.1v2.5c-1.2 0-2.39-.24-3.58-.7 0-2.73-.07-5.34-.21-7.82.77-.74 1.43-1.27 1.97-1.6l.23-.14c.8-.45 1.71-.67 2.72-.67.98 0 1.72.5 2.2 1.49.49.98.74 2.47.74 4.46l-.02.52a5.55 5.55 0 0 1-.92 2.93l-.14.18a3.62 3.62 0 0 1-3 1.34v-2.5c.66 0 .9-.18 1.1-.47.25-.35.48-.95.48-2Zm8 .18c0 .63.02 1.23.08 1.79a10.74 10.74 0 0 1-2.35 5.47 9.14 9.14 0 0 1-7.3 3.33c-.37 0-.75-.02-1.13-.05l-.02 4.88a4.1 4.1 0 0 1-1.16 2.9v.01l-.03.03a4.02 4.02 0 0 1-2.91 1.19c-1 0-1.99-.33-2.78-1.04l-.16-.15-.03-.03a4.13 4.13 0 0 1-1.14-2.92v-.02l.05-6.54V27.7a122.3 122.3 0 0 0-.24-6.4l-.25-3.41v-.1c0-1.06.19-2.14.7-3.12.31-.6.76-1.2 1.42-1.64a3.93 3.93 0 0 1 2.23-.67c1.08 0 2.07.4 2.83 1.19l.07.06c.14.15.26.3.38.47a9.6 9.6 0 0 1 3.3-.62 8 8 0 0 1 4.2 1.1 7.92 7.92 0 0 1 2.8 2.98l.14.24c.85 1.65 1.3 3.58 1.45 5.73-.1.6-.16 1.22-.16 1.86ZM96.47 13.25c1.95 0 3.76.3 5.32 1.06l.3.16h.01a6.51 6.51 0 0 1 2.54 2.34c.63 1.03.9 2.17.9 3.34 0 2.18-1.28 3.84-2.89 5.01-.77.56-2.14 1.26-3.88 2.07l-2 .95h.15v2.5h-.45a6 6 0 0 1-5.03-2.73l6.27-2.98a31.85 31.85 0 0 0 3.24-1.68l.23-.15c1.24-.9 1.86-1.9 1.86-2.99a3.7 3.7 0 0 0-2.12-3.48 9.42 9.42 0 0 0-4.45-.92c-2.5 0-4.5 1.05-6 3.15l-.25.37a12.16 12.16 0 0 0-1.82 6.79c0 2.46.84 4.37 2.51 5.74a9.03 9.03 0 0 0 5.55 1.85h.46a12 12 0 0 0 4.89-1.11c1.83-.82 2.8-1.8 2.92-2.91l.01-.23c0-.38-.15-.71-.46-1a1.4 1.4 0 0 0-1.01-.44c-.43 0-.83.3-1.2.89l-.08.1c-.4.53-1.2.97-2.41 1.3-1.02.3-1.9.43-2.66.43v-2.5a7.65 7.65 0 0 0 3.02-.72l.1-.07c.55-.83 1.58-1.93 3.23-1.93 1.07 0 2 .43 2.71 1.11.72.67 1.2 1.57 1.26 2.62v.47c-.14 2.65-2.35 4.24-4.41 5.16a14.49 14.49 0 0 1-5.91 1.33c-2.72 0-5.17-.64-7.18-2.1l-.4-.3v-.01c-2.35-1.92-3.44-4.59-3.44-7.68 0-3.26.8-6.18 2.54-8.61a9.51 9.51 0 0 1 8.03-4.2Zm0 5.46c1.7 0 3.02.43 3.96 1.3-.84.72-2.26 1.56-4.23 2.52l-5.04 2.4c.44-2.08 1.1-3.64 1.98-4.66a4.2 4.2 0 0 1 3.33-1.56Z"/><path fill="#000" d="M84.37 8.14c0-1.02-.48-1.57-1.43-1.63l-.2-.01c-1.07 0-1.6.55-1.6 1.64l-.01 1.34c-.01 1.4-.04 2.93-.08 4.6-.05 2.22-.08 4.2-.08 5.92 0 1.33-.06 3.32-.18 5.97a143.6 143.6 0 0 0-.18 5.96v.2c.06.92.53 1.4 1.41 1.47h.2c.96 0 1.5-.54 1.6-1.64.07-1.25.11-2.28.13-3.08v-.72L84.2 20c0-1.73.03-3.7.09-5.92.04-1.67.06-3.2.07-4.6V8.14Zm2.5 1.36c-.02 1.41-.04 2.96-.09 4.64-.05 2.2-.08 4.16-.08 5.86v.08l-.24 8.08-.01.77c-.02.84-.06 1.9-.13 3.16v.12c-.1.87-.39 1.9-1.2 2.73a3.99 3.99 0 0 1-2.9 1.16c-.95 0-2.11-.25-3.01-1.18a4.22 4.22 0 0 1-1.1-2.99c0-1.38.06-3.41.18-6.07.12-2.65.18-4.6.18-5.86 0-1.75.03-3.75.08-5.98.06-2.22.08-4.18.08-5.88 0-.92.23-2.07 1.12-2.98a4.1 4.1 0 0 1 3-1.16c.93 0 2.08.24 2.99 1.15.9.91 1.13 2.06 1.13 3V9.5Z"/><path fill="#000" d="M65.17 26.27c0-1.33.5-2.91 1.5-4.74 1.09-2 2.2-2.99 3.3-2.99 1.47 0 2.53.26 3.17.77l.68.58c.24.18.52.28.83.28.36 0 .66-.12.92-.37l.1-.1c.24-.3.38-.62.4-.97l.01-.15c0-.93-.84-1.72-2.5-2.37a10.78 10.78 0 0 0-3.2-.74l-.4-.01c-2.06 0-3.9 1.31-5.55 3.94l-.27.44a12.67 12.67 0 0 0-1.94 6.43v.43c.1 2.13.88 3.86 2.36 5.2a8.05 8.05 0 0 0 5.61 2.03c.97 0 2.2-.33 3.68-.98 1.58-.7 2.41-1.42 2.51-2.17l.01-.15c0-.41-.14-.78-.44-1.1-.3-.32-.64-.49-1.05-.49-.14 0-.38.1-.7.27l-1.9 1.01c-.75.35-1.45.53-2.1.53v-2.5c.2 0 .52-.06.99-.27l1.83-.98c.22-.12.47-.24.73-.33.21-.09.64-.23 1.15-.23 1.17 0 2.16.5 2.88 1.3l.03.02c.64.7 1.03 1.6 1.08 2.57v.45a4.17 4.17 0 0 1-1.44 2.78 9.48 9.48 0 0 1-2.57 1.57 11.9 11.9 0 0 1-4.69 1.2c-2.79 0-5.28-.86-7.28-2.68a9.71 9.71 0 0 1-3.2-7.48c0-2.8.94-5.54 2.6-8.2 1.85-2.96 4.37-5.11 7.67-5.11 1.27 0 2.58.26 3.91.71l.57.2.01.01c.99.38 1.95.88 2.7 1.59.74.7 1.33 1.67 1.4 2.86l.01.25v.19a4.2 4.2 0 0 1-.99 2.52l-.01.02-.01.01a3.84 3.84 0 0 1-5 .73l-.28-.18-.05-.04-.05-.04-.6-.52a1.4 1.4 0 0 0-.31-.1 5.4 5.4 0 0 0-1.17-.12l-.12.1a6.2 6.2 0 0 0-1.13 1.57c-.9 1.65-1.19 2.8-1.19 3.55l.01.28c.05.63.27.96.58 1.22.38.33.96.58 1.93.58v2.5a5.3 5.3 0 0 1-3.54-1.17 4.16 4.16 0 0 1-1.47-3.14v-.27Z"/><path fill="#000" d="m49.1 27.55.22.2a9.04 9.04 0 0 0 2 .32l-1.3-.3c-.32-.06-.62-.14-.92-.22Zm6.27 1.3c-.06.63-.57 1.1-1.52 1.39-.7.22-1.5.33-2.43.33-.5 0-1.12-.07-1.85-.2-.92-.16-1.51-.37-1.77-.62-.54-.53-.98-.79-1.32-.79-.43 0-.83.17-1.18.5-.34.32-.5.7-.5 1.14 0 1.1.84 1.95 2.52 2.56 1.14.42 2.33.66 3.57.71l.53.01a9.8 9.8 0 0 0 4.62-.98l.24-.13a4.37 4.37 0 0 0 2.3-3.71l.01-.33c0-2.18-.89-3.84-2.67-4.99-1.23-.78-3.1-1.4-5.61-1.85a5.56 5.56 0 0 1-.97-.26c.01-1.03.9-1.9 2.66-2.6 1.7-.55 2.97-.94 3.79-1.14.12.9.26 1.48.42 1.77.24.4.67.6 1.27.6.47 0 .85-.15 1.15-.45.26-.27.41-.61.45-1.02v-.18c0-.32-.07-.78-.2-1.4-.1-.46-.17-.83-.2-1.13v-.26c0-.5-.16-.9-.47-1.2-.3-.3-.67-.46-1.14-.46-.53 0-1.02.1-1.46.3-.63.28-1.66.63-3.1 1.05-1.45.4-2.5.75-3.15 1.05a5.01 5.01 0 0 0-3.24 4.89v.22c.06 1.13.5 1.98 1.33 2.55.62.43 1.65.8 3.1 1.12l1.71.37c2.08.53 3.12 1.53 3.12 3.02v.13Zm5.8-12.97.03.18c.02.16.06.36.12.63.14.64.26 1.32.27 1.92v.2c-.05.97-.4 1.95-1.17 2.73v.01l-.03.02c-.53.55-1.17.89-1.84 1.06a8.06 8.06 0 0 1 2.54 6.1l-.01.5a6.86 6.86 0 0 1-3.53 5.7h-.01a12.02 12.02 0 0 1-6.12 1.45c-1.71 0-3.37-.29-4.95-.87-1.73-.63-3.66-1.83-4.09-4-.03-.5-.05-.87-.05-1.1v-.36c.13-.94.58-1.76 1.24-2.4l.02-.02a4.19 4.19 0 0 1 2.73-1.17 5.64 5.64 0 0 1-2.7-5.02 7.7 7.7 0 0 1 1.23-4.3 8.03 8.03 0 0 1 3.48-2.86c.84-.38 2.04-.77 3.5-1.18 1.42-.4 2.3-.72 2.74-.92h.02l.01-.01a6.1 6.1 0 0 1 2.47-.5c1.05 0 2.1.36 2.91 1.18l.02.02.01.02a4.12 4.12 0 0 1 1.16 2.93v.06Z"/><path fill="#000" d="M32.13 17.02c0-.41-.12-.76-.37-1.04l-.1-.11c-.32-.3-.72-.46-1.19-.46-.88 0-1.4.48-1.56 1.43-.32 1.91-.49 3.62-.49 5.12l.01.86c.05 2.05.26 4.34.63 6.88.2 1.35.82 2.37 1.86 3.07.88.6 1.98.9 3.29.95h.27c1.78 0 3.35-.36 4.72-1.07.22.98.7 1.5 1.45 1.56h.16a1.61 1.61 0 0 0 1.63-1.43v-.18c0-.24-.01-.6-.06-1.1-.03-.49-.05-.85-.05-1.1l-.03-7.08.3-6.2c.02-.46-.13-.85-.45-1.15-.31-.3-.7-.46-1.18-.46-.94 0-1.47.5-1.59 1.5-.2 1.75-.31 3.8-.31 6.16l.03 3.18.02 3.33c-1.63.47-3.18.71-4.64.71l-.26-.01a3.91 3.91 0 0 1-.78-.14c-.35-.1-.7-.26-1.06-.46-.25-.79-.43-1.83-.55-3.13-.12-1.3-.18-2.87-.18-4.7 0-.57.08-1.42.23-2.52.13-.83.2-1.49.23-1.98l.02-.43Zm2.5 0c0 .7-.1 1.66-.27 2.78-.15 1.06-.2 1.76-.2 2.16 0 1.33.03 2.5.09 3.5l.07.96c.06.56.12 1.05.19 1.47.66 0 1.36-.07 2.1-.2v-1.32l-.04-3.17v-.93c.03-2.06.13-3.92.33-5.55l.05-.33c.14-.78.48-1.63 1.2-2.32.85-.8 1.9-1.06 2.82-1.06 1 0 1.97.33 2.76 1.02l.16.14a3.93 3.93 0 0 1 1.2 3.07l-.29 6.15.02 3.45.01 3.42c-.02.11-.04.22-.04.34 0 .18.03.35.08.52v.22c.05.48.08.92.08 1.26v.21a3.97 3.97 0 0 1-1.24 2.74l-.02.02-.01.01c-.8.76-1.8 1.13-2.87 1.13-.93 0-1.88-.29-2.65-.98-1.17.33-2.4.49-3.68.49-1.8 0-3.51-.4-4.96-1.38a6.75 6.75 0 0 1-2.93-4.78c-.44-2.98-.67-5.69-.67-8.1 0-1.68.18-3.53.53-5.55.14-.82.48-1.76 1.28-2.49a4 4 0 0 1 2.74-1.01c1.06 0 2.08.36 2.89 1.13l.02.02.01.01a4 4 0 0 1 1.24 2.95Z"/><path fill="#000" d="M0 29.52c0-.78.07-1.85.19-3.17.12-1.28.17-2.17.17-2.7 0-.46-.04-1.24-.15-2.38v-.02C.1 20.07.05 19.1.05 18.4c0-1.35.14-2.7.64-3.82.26-.58.67-1.2 1.31-1.68a3.7 3.7 0 0 1 2.22-.72c1.25 0 2.27.58 2.99 1.34.2.22.4.46.56.72.99-.68 2.13-1.2 3.36-1.2a6.1 6.1 0 0 1 3.96 1.37 8.94 8.94 0 0 1 4.59-1.2 6.1 6.1 0 0 1 5.93 4.17l.18.48v.01c.15.46.27 1.19.37 1.88.11.8.25 1.86.4 3.2.24 1.46.53 3.6.85 6.39l.35 3.1v.05l.02.22a3.82 3.82 0 0 1-1.25 2.9 4.19 4.19 0 0 1-2.9 1.14c-.9 0-1.9-.25-2.74-1a4.25 4.25 0 0 1-1.3-2.53 77.4 77.4 0 0 1-.61-5.21l-.55-5.04c-.05-.3-.1-.6-.18-.89l-.06.03-.01.01-.02.01-.85.55c.01.57.03 1.13.07 1.7l.48 4.32c.22 1.78.33 3.3.33 4.57v.2c-.05.96-.4 1.91-1.13 2.68l-.02.02-.04.04a4 4 0 0 1-2.92 1.21 4.05 4.05 0 0 1-2.8-1.08l-.16-.16a4.13 4.13 0 0 1-1.15-2.91c0-1.2-.12-3.04-.4-5.6a99.68 99.68 0 0 1-.32-3.84l-.38.43-.32.43c-.03.62-.09 1.35-.17 2.18a31.62 31.62 0 0 0-.17 2.6l.01.13c.01.16.04.43.1.84.12.59.2 1.2.2 1.7v.21a3.96 3.96 0 0 1-1.3 2.74l-.02.02v.01a4.15 4.15 0 0 1-2.85 1.1 3.8 3.8 0 0 1-2.32-.77A4.43 4.43 0 0 1 .67 33.7 10.59 10.59 0 0 1 0 29.52ZM2.56 18.9c.02.55.06 1.26.14 2.13.1 1.16.16 2.03.16 2.6l-.01.56c-.02.61-.08 1.4-.17 2.38a34.8 34.8 0 0 0-.18 2.94v.5c.08 2.4.65 3.63 1.74 3.71h.11c.4 0 .74-.11 1.04-.35l.13-.1c.3-.27.46-.6.5-.97v-.17a8 8 0 0 0-.16-1.28c-.07-.44-.12-.8-.14-1.1v-.27c0-.62.06-1.56.18-2.84.09-.96.14-1.75.16-2.36l.02-.55c.28-.32.51-.59.68-.82l.15-.21 1.94-2.17a8.2 8.2 0 0 1 2.33-1.7c.33.64.5 1.55.5 2.7v.53c.03 1.3.15 3.08.38 5.35.28 2.58.41 4.53.41 5.86 0 .48.15.87.45 1.18.3.31.7.47 1.16.47.41 0 .76-.12 1.04-.36l.11-.11c.27-.27.42-.6.45-1l.01-.18c0-1.13-.1-2.56-.31-4.29l-.5-4.38a41.5 41.5 0 0 1-.08-3.08c.33-.38 1.02-.9 2.07-1.53 1.1-.69 1.86-1.03 2.27-1.03.43 0 .84.5 1.21 1.48.26.72.45 1.46.56 2.21l.55 5.09c.2 2.18.4 3.88.6 5.08.15.95.67 1.43 1.57 1.43.41 0 .77-.12 1.07-.35l.13-.1c.33-.32.47-.69.44-1.12-.48-4.39-.87-7.52-1.18-9.4a42.98 42.98 0 0 0-.67-4.62c-.67-1.96-1.92-2.95-3.74-2.95-1.07 0-2.03.2-2.86.6-.83.4-1.55 1-2.15 1.8-.64-1.71-1.82-2.56-3.54-2.56-.78 0-1.72.47-2.82 1.42-1.1.95-1.94 2-2.51 3.17l-.04-1.72c0-.23.03-.57.09-1 .05-.44.08-.76.08-.97 0-.44-.18-.84-.54-1.21a1.57 1.57 0 0 0-1.17-.56c-1.11 0-1.67 1.24-1.67 3.72v.5Z"/></g><defs><clipPath id="a"><path fill="#fff" d="M0 0h177v49H0z"/></clipPath></defs></svg>