<svg xmlns="http://www.w3.org/2000/svg" width="295" height="63" fill="none"><g filter="url(#a)"><path fill="#09F" d="M286.2 45c-.7 0-2-.8-3.7-2.5a32 32 0 0 1-4 1.7 10 10 0 0 1-3.1.5c-4 0-7.1-1-9.2-3.2-2-2.2-3-5.5-3-9.8 0-4.1 1.5-7.6 4.5-10.5 3-3 6.6-4.4 10.8-4.4 1.6 0 3.5.5 5.6 1.4 2.5 1.1 3.8 2.4 3.8 3.8 0 .6-.2 1.2-.6 1.6l-.4 2.6a44 44 0 0 0 .6 10.6 75.8 75.8 0 0 0 2.1 5c0 1-.3 1.7-1 2.3-.7.6-1.5 1-2.4 1ZM280 27.6a19.2 19.2 0 0 1 .5-4.2 4.5 4.5 0 0 0-1.6-.5c-2.3 0-4.3 1-6 2.7a8.7 8.7 0 0 0-2.6 6.3c0 2.2.4 4 1.2 5 .8 1.2 2 1.8 3.7 1.8a8.6 8.6 0 0 0 5.6-2c-.5-4-.8-7.1-.8-9.1Z"/><path stroke="#000" d="M278.5 16.3c1.7 0 3.6.5 5.8 1.4 2.5 1.2 4.1 2.5 4.1 4.3 0 .7-.2 1.3-.6 1.9l-.4 2.3a43.4 43.4 0 0 0 .6 10.4 5.5 5.5 0 0 0 .3.7A211.8 211.8 0 0 0 290 42c0 1-.4 2-1.2 2.6a4 4 0 0 1-2.7 1c-.5 0-1.1-.3-1.8-.7l-2-1.7c-1.4.7-2.7 1.2-3.8 1.5-1.2.4-2.3.6-3.2.6-4.2 0-7.4-1-9.6-3.4-2.1-2.3-3.1-5.7-3.1-10.1 0-4.3 1.5-7.9 4.6-10.9 3.1-3 6.9-4.5 11.2-4.5Zm.3 7.1c-2.1 0-4 .8-5.7 2.6a8.2 8.2 0 0 0-2.4 5.9c0 2.2.4 3.8 1.1 4.8l.1.2c.8.8 1.8 1.3 3.2 1.3a8.1 8.1 0 0 0 5-1.8 78 78 0 0 1-.6-10.7l.3-2-.4-.2-.6-.1Z"/></g><g filter="url(#b)"><path fill="#09F" d="M255.9 18.1c1.8-1.3 3-2 3.5-2 1.6 0 2.5 1 2.5 3.3 0 .6-.8 1.7-2.4 3.1l-3.6 3v13.7c-.1 2.1-.4 3.4-.8 4-.4.5-1.2.8-2.5.8-2 0-2.9-1-2.9-3V29.3l-1 1c-1 1-2 1.5-2.7 1.4-1.5-.1-2.3-1-2.3-2.9 0-.9.5-1.8 1.5-2.7l4.5-3.8V8c0-1 .3-1.7 1-2.3.6-.6 1.3-1 2.3-1 2 0 2.9 1.2 2.9 3.3v10.1Z"/><path stroke="#000" d="M253 4.3c1 0 2 .3 2.5 1 .6.6.9 1.6.9 2.7v9.1a18.1 18.1 0 0 1 2.3-1.3l.7-.2c1 0 1.7.3 2.2 1 .6.7.8 1.6.8 2.8 0 .5-.3 1-.7 1.5-.4.6-1 1.2-1.9 2l-1.8 1.5-1.6 1.4v13.4c0 1.1-.1 2-.3 2.7-.1.6-.3 1.2-.6 1.6-.5.8-1.6 1-3 1-1 0-1.8-.3-2.4-.9-.6-.6-.9-1.6-.9-2.6V30.5l-.1.1c-1 1-2.1 1.7-3.1 1.6a3 3 0 0 1-2.1-1c-.5-.6-.7-1.4-.7-2.4s.6-2.1 1.7-3.1l4.3-3.6V8c0-1.1.4-2 1-2.7.8-.8 1.7-1.1 2.8-1.1Z"/></g><g filter="url(#c)"><path fill="#09F" d="M242.4 21.9a5206 5206 0 0 1-8.8 18 148 148 0 0 0-6.6 15.8c-.6 1.5-1.7 2.3-3.2 2.3-1 0-1.9-.3-2.6-.9a3 3 0 0 1-1-2.4c0-1.5 1.7-6.2 5.3-14a437 437 0 0 0-10.1-18.1c-.5-.8-.7-1.5-.7-2.2 0-.9.4-1.7 1.1-2.4.7-.7 1.6-1 2.5-1a3 3 0 0 1 2.6 1.2c2.4 3.2 5.2 8 8.4 14.5l3.3-7.3c1.2-2.5 2.4-4.7 3.6-6.6.7-1.3 1.7-1.9 3-1.9 1 0 1.8.4 2.5 1a3 3 0 0 1 1.1 2.4c0 .5-.1 1-.4 1.6Z"/><path stroke="#000" d="M239.2 16.4c1 0 2 .4 2.8 1.1.9.8 1.3 1.7 1.3 2.8 0 .5-.2 1.2-.5 1.8a5171 5171 0 0 1-8.7 18.1 147.5 147.5 0 0 0-6.6 15.6c-.4.9-.8 1.6-1.5 2-.6.5-1.4.7-2.2.7-1.1 0-2-.3-3-1a3.5 3.5 0 0 1-1.2-2.8l.4-1.9 1-3a160 160 0 0 1 4-9c-2-3.7-4.8-9-8.8-16l-1.2-2c-.5-.8-.8-1.6-.8-2.4 0-1 .4-2 1.3-2.7a4 4 0 0 1 2.8-1.2c1.3 0 2.3.5 3 1.4 2.3 3.1 5 7.6 8 13.6l2.9-6.3 3.5-6.7c.8-1.3 2-2 3.5-2Z"/></g><g filter="url(#d)"><path fill="#09F" d="M211 24a97 97 0 0 0-5.2 6.5l-5.3 7h2.6l3 .4 2.9.4c1 0 1.8.3 2.5 1 .7.6 1 1.3 1 2.3 0 1-.3 1.8-1 2.4-.6.6-1.5 1-2.5 1a18 18 0 0 1-3-.4c-1.3-.3-2.3-.4-3-.4a57 57 0 0 0-11.7 1c-.9 0-1.7-.2-2.4-.7a2.6 2.6 0 0 1-1-2.2c0-1 .5-2 1.5-3a76 76 0 0 0 13.3-15.6 62.5 62.5 0 0 1-11-.5c-2-.3-3-1.4-3-3.3 0-1 .3-1.7.9-2.4.6-.6 1.5-1 2.5-1l3.7.3a42 42 0 0 0 9 0l5.2-.2c2.1 0 3.2.9 3.2 2.6 0 1.5-.8 3.1-2.2 4.7Zm-8.1-9.7c-.8 0-1.7-.4-2.8-1.2-1.1-1-1.7-2-1.7-3s.5-2 1.4-2.6a4 4 0 0 1 2.4-.8c.8 0 1.7.4 2.7 1.2 1.2 1 1.7 2 1.7 2.9 0 1-.4 2-1.3 2.7-.8.5-1.6.8-2.4.8Z"/><path stroke="#000" d="m192 16 3.9.3a41.5 41.5 0 0 0 8.9 0l5.2-.2c1.1 0 2 .3 2.7.8.7.5 1 1.3 1 2.3 0 1.7-.8 3.4-2.3 5a96.3 96.3 0 0 0-5.2 6.6l-4.6 6.2h1.5l3 .4 2.9.4a4 4 0 0 1 2.8 1c.8.8 1.2 1.7 1.2 2.8 0 1.1-.4 2-1.1 2.8a4 4 0 0 1-3 1c-.6 0-1.7 0-3-.3s-2.2-.4-2.8-.4c-3.8 0-7.3.3-10.6 1h-1.2c-1 0-1.9-.2-2.7-.8h-.1a3.1 3.1 0 0 1-1.2-2.6c0-1.2.7-2.4 1.8-3.3 4-3.4 8.2-8.3 12.6-14.8a60.7 60.7 0 0 1-10-.5c-1.1-.2-2-.5-2.6-1.2-.7-.7-1-1.5-1-2.6 0-1 .4-2 1.1-2.7.8-.8 1.7-1.2 2.9-1.2Zm10.2-9.8c1 0 2 .5 3 1.3 1.2 1 2 2 2 3.3 0 1.2-.6 2.3-1.6 3-.9.7-1.8 1-2.7 1-1 0-2-.5-3-1.3-1.3-1-2-2.1-2-3.3 0-1.3.6-2.3 1.6-3 .9-.7 1.8-1 2.7-1Z"/></g><g filter="url(#e)"><path fill="#09F" d="M163 25c-.2 2.6-1.4 4-3.6 4-2.1 0-3.2-1.2-3.2-3.4l-.1-2.5c-3.8.6-6.6 2.5-8.2 5.8v12.8c0 1-.3 1.7-1 2.4-.6.6-1.5 1-2.5 1a3 3 0 0 1-2.4-1c-.6-.7-.8-1.5-.8-2.4V25a77.3 77.3 0 0 1 0-4.7c0-1 .3-1.8.9-2.4.6-.6 1.4-1 2.4-1 2 0 3 1 3.4 3 3-2.3 6.3-3.4 10-3.4 3.4 0 5 2.2 5 6.7V25Z"/><path stroke="#000" d="M148.4 41.7c0 1-.4 2-1.1 2.7a4 4 0 0 1-2.9 1.1c-1.2 0-2.1-.3-2.8-1.2-.6-.7-1-1.6-1-2.6V25l.1-2.4v-2.4c0-1 .4-1.9 1-2.6l.2-.2c.6-.6 1.6-1 2.6-1s2 .3 2.6.9c.5.4.9 1 1.1 1.7 3-2 6.1-3 9.7-3 1.8 0 3.2.6 4.2 1.9 1 1.2 1.3 3 1.3 5.3v1.8c0 1.3-.4 2.4-1.1 3.2-.7.8-1.7 1.1-3 1.1-1 0-2-.3-2.7-1-.6-.6-.9-1.6-1-2.8v-2a9.8 9.8 0 0 0-7.2 5.4v12.7Z"/></g><g filter="url(#f)"><path fill="#09F" d="M125.3 44.5c-4 0-7.3-1-9.9-2.9a10.6 10.6 0 0 1-4.2-9c0-4.3 1-7.9 3.3-10.9a12 12 0 0 1 10.2-4.9c2.9 0 5.4.5 7.3 1.4 2.6 1.3 3.8 3.2 3.8 5.9 0 1.8-1 3.5-3 5-1 .6-3 1.5-5.8 2.8l-8.6 3.8c.9.9 1.8 1.5 3 2 1.1.4 2.5.6 4 .6 2.2 0 4.1-.4 5.7-1.4a7.3 7.3 0 0 1 3.4-1.2c1.7 0 2.6.9 2.6 2.6 0 1.9-1.4 3.5-4.2 4.7a19 19 0 0 1-7.6 1.5Zm-.6-21.5c-1.6 0-3 .5-4 1.5a11 11 0 0 0-2.8 4.7l5.7-2.4c2.3-1 4.1-2 5.5-2.9a9 9 0 0 0-4.4-1Z"/><path stroke="#000" d="M124.7 16.3c3 0 5.5.5 7.5 1.5 1.4.6 2.4 1.5 3 2.6.8 1 1.1 2.3 1.1 3.7 0 2-1.1 3.8-3.3 5.3-1 .7-3 1.7-5.8 3l-7.9 3.5c.7.5 1.4 1 2.3 1.3 1 .4 2.3.6 3.7.6 2.2 0 4-.4 5.6-1.3l.5-.3c1.2-.6 2.2-1 3-1 1 0 1.8.2 2.4.8.6.5.8 1.3.8 2.3 0 2.2-1.6 3.9-4.5 5.1-2.5 1-5 1.6-7.8 1.6-4 0-7.5-1-10.2-3-3-2.2-4.4-5.4-4.4-9.4a18 18 0 0 1 3.4-11.2c2.6-3.4 6.2-5 10.6-5Zm0 7.2c-1.5 0-2.7.4-3.7 1.4-.9.8-1.6 2-2.2 3.4l4.6-2 .9-.4c1.5-.6 2.7-1.3 3.8-2-1-.3-2-.4-3.4-.4Z"/></g><g filter="url(#g)"><path fill="#09F" d="M105.3 45.1c-2 0-3.2-1-3.4-3l-.8-5.3a39 39 0 0 1-.1-10.6V25c0-1.4-.3-2.1-1-2.1-1.6 0-3.1.9-4.6 2.7a19.8 19.8 0 0 0-3.5 6.9l-.3 2.2a17 17 0 0 0 0 4.4l.2 2.2c0 1-.3 1.7-1 2.3-.7.7-1.5 1-2.5 1s-1.9-.3-2.5-1c-.7-.6-1-1.4-1-2.3 0-.5 0-1.2-.2-2.2l-.1-2.1c0-1.7 0-4 .3-6.8a88.5 88.5 0 0 0 .2-11.3 3 3 0 0 1 1-2.3c.7-.7 1.6-1 2.6-1 2.2 0 3.4 1.3 3.5 4v.3A11 11 0 0 1 100 16c3.2 0 5.4 1.4 6.6 4 .8 1.9 1.2 4.5 1.2 8.1v3.5c0 1.3.2 3 .5 5 .4 2.1.6 3.8.6 5.1a3 3 0 0 1-1 2.4c-.7.6-1.6 1-2.6 1Z"/><path stroke="#000" d="M88.6 15.1c1.2 0 2.2.4 2.9 1.2.5.6.9 1.5 1 2.5a11 11 0 0 1 7.5-3.2c1.6 0 3 .4 4.3 1.1A7 7 0 0 1 107 20c.9 1.8 1.3 4.6 1.3 8.2v3.5c0 1.2.1 3 .5 5s.6 3.8.6 5.1c0 1.1-.4 2-1.2 2.8a4 4 0 0 1-2.9 1 4 4 0 0 1-2.7-.9 4 4 0 0 1-1.2-2.6l-.7-5.2a39.5 39.5 0 0 1-.4-7.6 41.5 41.5 0 0 0-.1-5.9h-.2c-1.4 0-2.8.7-4.3 2.5-1.4 1.7-2.5 4-3.3 6.7l-.3 2.2a16.4 16.4 0 0 0 0 4.3l.1.6.1 1.6c0 1-.4 2-1.2 2.7a4 4 0 0 1-2.8 1.1 4 4 0 0 1-2.9-1l-.1-.2c-.7-.7-1-1.6-1-2.6 0-.5 0-1.2-.2-2.1L84 37c0-1.7 0-4 .3-6.9a88 88 0 0 0 .3-9l-.1-2.2c0-1 .4-2 1.2-2.7.8-.7 1.7-1 2.9-1Z"/></g><g filter="url(#h)"><path fill="#09F" d="M69 44.5c-4 0-7.3-1-9.9-2.9a10.6 10.6 0 0 1-4.3-9c0-4.3 1.2-7.9 3.4-10.9a12 12 0 0 1 10.1-4.9c3 0 5.4.5 7.4 1.4 2.5 1.3 3.8 3.2 3.8 5.9 0 1.8-1 3.5-3.1 5l-5.7 2.8-8.6 3.8c.8.9 1.8 1.5 3 2 1.1.4 2.4.6 4 .6 2.2 0 4.1-.4 5.7-1.4a7.3 7.3 0 0 1 3.4-1.2c1.7 0 2.6.9 2.6 2.6 0 1.9-1.4 3.5-4.2 4.7a19 19 0 0 1-7.6 1.5ZM68.3 23c-1.5 0-2.9.5-4 1.5a11 11 0 0 0-2.7 4.7l5.7-2.4c2.3-1 4.1-2 5.5-2.9a9 9 0 0 0-4.5-1Z"/><path stroke="#000" d="M68.3 16.3c3 0 5.6.5 7.6 1.5 1.3.6 2.4 1.5 3 2.6.8 1 1.1 2.3 1.1 3.7 0 2-1.2 3.8-3.3 5.3-1 .7-3 1.7-5.8 3L63 35.9c.7.5 1.4 1 2.3 1.3 1 .4 2.3.6 3.7.6 2.2 0 4-.4 5.5-1.3l.6-.3c1.2-.6 2.2-1 3-1 1 0 1.8.2 2.4.8.6.5.8 1.3.8 2.3 0 2.2-1.6 3.9-4.5 5.1-2.5 1-5 1.6-7.8 1.6-4 0-7.5-1-10.2-3-3-2.2-4.5-5.4-4.5-9.4a18 18 0 0 1 3.5-11.2c2.6-3.4 6.1-5 10.5-5Zm0 7.2c-1.4 0-2.6.4-3.6 1.4-.9.8-1.6 2-2.2 3.4l4.6-2c1.9-.8 3.4-1.6 4.6-2.3-.9-.4-2-.5-3.4-.5Z"/></g><g filter="url(#i)"><path fill="#09F" d="M52.5 25c-.1 2.6-1.3 4-3.5 4-2.1 0-3.2-1.2-3.2-3.4l-.1-2.5c-3.8.6-6.6 2.5-8.2 5.8v12.8c0 1-.3 1.7-1 2.4-.6.6-1.5 1-2.5 1a3 3 0 0 1-2.4-1c-.6-.7-.8-1.5-.8-2.4V25a77.5 77.5 0 0 1 0-4.7c0-1 .4-1.8 1-2.4.5-.6 1.3-1 2.3-1 2 0 3 1 3.4 3 3-2.3 6.3-3.4 10-3.4 3.4 0 5 2.2 5 6.7V25Z"/><path stroke="#000" d="M38 41.7c0 1-.4 2-1.1 2.7a4 4 0 0 1-2.9 1.1c-1.1 0-2.1-.3-2.8-1.2-.6-.7-1-1.6-1-2.6V25l.1-2.4v-2.4c0-1 .4-1.9 1-2.6l.2-.2c.6-.6 1.6-1 2.6-1s2 .3 2.6.9c.5.4.9 1 1.1 1.7 3-2 6.2-3 9.7-3 1.8 0 3.2.6 4.2 1.9 1 1.2 1.4 3 1.4 5.3v1.8c-.2 1.3-.5 2.4-1.2 3.2-.7.8-1.7 1.1-2.9 1.1-1.1 0-2.1-.3-2.8-1-.6-.6-.9-1.6-.9-2.8l-.1-2A9.8 9.8 0 0 0 38 29v12.7Z"/></g><g filter="url(#j)"><path fill="#09F" d="M24.7 22.9a37.6 37.6 0 0 1-2.6 0l-2.4.1a389.7 389.7 0 0 1 .5 16.1c0 4-1.2 5.9-3.6 5.9-1 0-1.8-.3-2.5-.9a2.8 2.8 0 0 1-1-2.3 72 72 0 0 1 0-5.5c0-2 0-6.4-.4-13.1L8 22.8c-2-.3-3.1-1.4-3.1-3.3A3.3 3.3 0 0 1 8.2 16c.7 0 2 0 4.3.3a134.7 134.7 0 0 0-.2-5.2 3 3 0 0 1 1-2.4c.7-.6 1.6-1 2.6-1 2.5 0 3.7 2.2 3.7 6.4v2a18.6 18.6 0 0 1 6.5.2c1.4.5 2 1.5 2 3.1 0 1-.3 1.8-1 2.4-.6.7-1.4 1-2.4 1Z"/><path stroke="#000" d="M15.9 7.4c1.4 0 2.5.6 3.2 1.8a10 10 0 0 1 1 5v1.5a16.9 16.9 0 0 1 6.2.3h.3c.6.3 1.1.7 1.5 1.3.4.6.6 1.4.6 2.2a4 4 0 0 1-4 3.9h-1.3a17.3 17.3 0 0 0-3.2 0 378 378 0 0 1 .5 14.3V39c0 2-.3 3.6-1 4.7a3.5 3.5 0 0 1-3.1 1.7c-1 0-2-.4-2.8-1a3.3 3.3 0 0 1-1.3-2.7 72.9 72.9 0 0 1 .2-5.5l-.5-12.6-4.3-.4c-1.1-.2-2-.5-2.7-1.2-.6-.7-1-1.6-1-2.6a3.8 3.8 0 0 1 4-4l3.8.3v-2l-.1-.9v-1.7c0-1.1.3-2 1.1-2.8.8-.7 1.8-1 2.9-1Z"/></g><g filter="url(#k)"><path fill="url(#l)" d="M288 22c0-1.3-1.2-2.5-3.5-3.6l-.4-.2c-2-.9-3.8-1.3-5.3-1.4h-.3a15 15 0 0 0-10.8 4.4 14 14 0 0 0-4.5 10.5v.8c0 4 1.1 7 3 9 2 2 4.7 3 8.4 3.2h.8c.8 0 1.8-.2 3-.5a32 32 0 0 0 4.1-1.7c1.6 1.6 2.8 2.4 3.6 2.5h.1c1 0 1.7-.3 2.4-.9.6-.5 1-1.2 1-2v-.2c0-.2-.1-.7-.5-1.5l-.5-1-1.1-2.6a22 22 0 0 1-.7-5.8v-1.2a43.6 43.6 0 0 1 .5-6.2c.4-.4.6-.8.6-1.3V22ZM270.1 32c0-2.3.7-4.2 2.3-6l.3-.3a8.1 8.1 0 0 1 6-2.7l.7.1c.3 0 .6.2.9.4a42.6 42.6 0 0 0-.5 4.2c0 2 .3 5 .8 9a8.6 8.6 0 0 1-5.6 2V35c.6 0 1 0 1.6-.2-.4-3-.5-5.3-.5-7-.3 0-.5.3-.7.5A5 5 0 0 0 274 32c0 1.8.3 2.6.5 2.9l.6.1v3.8h-.3c-1.5 0-2.6-.6-3.4-1.7-.8-1-1.2-2.7-1.2-4.7v-.4Zm21.5-9.9c0 1.1-.3 2.2-.8 3.1a18.6 18.6 0 0 0-.3 4.7c0 3 .2 4.9.4 5.7a30.6 30.6 0 0 0 1 2.3l.5 1a31.5 31.5 0 0 1 .7 1.7l.2 1.4c0 2-.8 3.8-2.3 5v.1a7.2 7.2 0 0 1-4.9 1.8c-1.5 0-2.9-.8-3.6-1.3l-.8-.6-2.2.8a15.7 15.7 0 0 1-16-3.7h-.2c-2.9-3.1-4-7.5-4-12.3 0-5.2 2-9.6 5.7-13.2a18.1 18.1 0 0 1 20.5-3.7c2.6 1 6 3.2 6 7.2Z"/><path stroke="#000" d="M278.5 12.6c2.3 0 4.8.6 7.2 1.6 2.7 1.2 6.5 3.5 6.5 7.8 0 1.2-.3 2.3-.9 3.3a18.4 18.4 0 0 0-.2 4.5v1a19.7 19.7 0 0 0 .6 5l.8 1.8.5 1a33.1 33.1 0 0 1 .6 1.7c0 .1.3.8.3 1.6a7 7 0 0 1-2.1 5l-.4.4-.4.4a7.7 7.7 0 0 1-4.4 1.6h-.4a7 7 0 0 1-3.9-1.4l-.6-.4-1.2.5-.8.2-.3.1c-1.1.4-2.3.6-3.5.7h-.5c-4.8 0-9.2-1.3-12.3-4.6-3-3.3-4.2-7.8-4.2-12.7 0-5.3 2-9.9 5.8-13.6 3.8-3.7 8.5-5.5 13.8-5.5Zm0 4.7c-4 0-7.6 1.4-10.5 4.3-2.9 2.8-4.3 6.1-4.3 10v1.6c.2 3.5 1.2 6.1 2.9 8 1.8 1.8 4.4 2.9 8 3h.8c.8 0 1.7-.1 2.9-.5l4-1.7.3-.1.3.2c.8.8 1.4 1.4 2 1.8l1.2.6h.1a3 3 0 0 0 2-.8c.6-.4.9-1 1-1.7v-.2l-.2-.2c0-.3-.2-.6-.4-1l-.4-1A249.3 249.3 0 0 1 287 37c-.4-1.3-.6-3.3-.7-6v-1.1l.1-3.6.4-2.7v-.1h.1c.3-.4.5-.8.5-1.2V22c0-1-.9-2.1-3-3.1l-.5-.2c-2-.9-3.7-1.3-5.1-1.4h-.3Zm.3 5.1c.3 0 .6 0 .8.2l1 .3.4.2-.1.4a41.5 41.5 0 0 0-.5 4.1c0 2 .3 5 .8 9v.2l-.2.2a9.1 9.1 0 0 1-6 2.2h-.2c-1.7 0-3-.7-3.8-2a9 9 0 0 1-1.3-5V32c0-2.4.8-4.5 2.4-6.3l.3-.3c1.8-2 4-2.9 6.4-2.9Zm-4 12Zm.9-5.6c-.9 1-1.2 2-1.2 3v.4c0 1.3.2 2 .3 2.2h.5l.8-.1c-.2-2.2-.4-4-.4-5.5Z"/></g><g filter="url(#m)"><path fill="url(#n)" d="M261.9 19.4c0-2.2-.9-3.3-2.5-3.3-.6 0-1.7.7-3.5 2v-10c0-2.1-.9-3.2-2.5-3.3h-.4a3.1 3.1 0 0 0-3.3 3.2v14.3l-4.5 3.8-.2.1c-.9.9-1.3 1.8-1.3 2.6v.4c0 1.6.9 2.4 2.3 2.5.8.1 1.7-.4 2.7-1.4l1-1V41c0 1.9.9 2.9 2.5 3h.4c1.3 0 2.1-.3 2.5-.8.4-.5.6-1.6.8-3.2V25.6l3.6-3.1c1.5-1.4 2.3-2.4 2.4-3v-.1Zm-2.2-7c1.6 0 3.4.6 4.6 2.2a7.8 7.8 0 0 1 1.3 4.8 6 6 0 0 1-1.3 3.5c-.6.8-1.4 1.6-2.3 2.4l-1.8 1.6-.5.4v12.1c0 1.1-.2 2.2-.4 3-.1.9-.4 2-1 3h-.1c-1.6 2.2-4.2 2.4-5.6 2.4-1.6 0-3.5-.5-5-2A7 7 0 0 1 246 41v-5.5h-.3a6.2 6.2 0 0 1-4.4-2.2 6.9 6.9 0 0 1-1.4-4.5c0-2.4 1.4-4.3 2.9-5.6l3.2-2.7V8a6.9 6.9 0 0 1 7-7c1.7 0 3.6.5 5 2a7.3 7.3 0 0 1 1.7 5v4.3Z"/><path stroke="#000" d="m258.6 45.7.3-.4c.5-1 .8-2 1-2.7l.3-3.2V27.4l.3-.2 1.8-1.6c1-.9 1.8-1.7 2.4-2.5.4-.6 1.3-1.8 1.4-3.5v-.3c0-1.5-.2-3.4-1.4-5a6.3 6.3 0 0 0-4.5-2.5V8c0-1.6-.4-3.6-1.8-5.3A7 7 0 0 0 253 .5a7.4 7.4 0 0 0-7.5 7.2V20.3l-3 2.5a8 8 0 0 0-3.1 6c0 1.5.3 3.3 1.6 4.8 1.1 1.5 2.7 2.1 4.2 2.3h.3v5c0 1.7.3 3.7 1.8 5.3a7 7 0 0 0 5.3 2.1c1.4 0 4-.2 5.7-2.3l.3-.3Zm0 0ZM253 5.3c-.8 0-1.5.2-2 .8-.5.5-.8 1.1-.8 2v14.5l-.2.1c-1.9 1.6-3.4 2.8-4.4 3.8l-.2.1c-.9.8-1.2 1.6-1.2 2.2v.3c0 .8.2 1.2.5 1.6.3.3.7.5 1.4.5.5 0 1.2-.2 2.3-1.3l1-1 .8-.8V41c0 .8.2 1.5.5 1.8.3.4.8.7 1.6.7h.3c1.3 0 1.9-.3 2.1-.6l.4-1 .3-2V25.4l.2-.2 3.6-3 1.6-1.8.6-1c0-1-.2-1.8-.6-2.2-.2-.3-.6-.5-1.2-.6H259c-.1.2-.4.3-.6.4l-2.2 1.5-.8.6v-11c0-1-.2-1.7-.5-2.1-.3-.4-.8-.7-1.6-.7h-.3Z"/></g><g filter="url(#o)"><path fill="url(#p)" d="M242.8 20.3a3 3 0 0 0-1-2.3l-.1-.1c-.7-.6-1.6-1-2.5-1-1.3 0-2.3.6-3 1.9l-.5.7a831 831 0 0 0-6.4 13.2c-3.2-6.5-6-11.3-8.4-14.5a3 3 0 0 0-2.6-1.2c-1 0-1.8.3-2.5 1l-.1.2c-.7.6-1 1.4-1 2.2 0 .7.2 1.4.7 2.2l1.2 2 9 16.1a58.3 58.3 0 0 0-5.5 14 3 3 0 0 0 1.1 2.4c.7.6 1.6 1 2.6 1 1.4 0 2.5-.8 3-2.2l.2-.2 1.7-4.7c1.1-3 2.8-6.6 5-11a5240.7 5240.7 0 0 0 9.1-19.6v-.1Zm3.8 0c0 1.2-.4 2.3-.8 3.2L237 41.6a145.3 145.3 0 0 0-6.5 15.4 7 7 0 0 1-6.8 4.8c-1.8 0-3.5-.6-5-1.8a6.8 6.8 0 0 1-2.4-5.3c0-1 .3-2 .5-2.8l1.1-3.2 3.4-7.9a503.4 503.4 0 0 0-9-16.2h-.1v-.1l-.7-1.2c1.1-1.4 1.7-2.8 1.7-4 0-1.2-.5-2-1.3-2.3a7.6 7.6 0 0 1 6.4-3.8h.4c2 .1 3.7.9 5 2.4l.2.4a73 73 0 0 1 5.2 8l.1-.2c1.1-2.3 2.2-4.4 3.3-6.2l.4-.8a7.1 7.1 0 0 1 6.3-3.6h.3c1.8 0 3.4.7 4.7 1.8a6.8 6.8 0 0 1 2.4 5.3Z"/><path stroke="#000" d="M239.2 12.7h.3a8 8 0 0 1 4.7 1.7l.3.3a7.3 7.3 0 0 1 2.6 5.6v.2c0 1.2-.4 2.3-.9 3.2L237.5 42c-2.2 4.3-3.7 7.8-4.8 10.6l-.3.9L231 57a7.5 7.5 0 0 1-7.2 5.1 8 8 0 0 1-5.4-1.9 7.3 7.3 0 0 1-2.6-5.6v-.3a40.5 40.5 0 0 1 1.6-5.8l3.4-7.7a508.7 508.7 0 0 0-9-16v-.1l-.7-1.3-.1-.3.2-.2c1-1.4 1.5-2.6 1.5-3.8 0-.5-.1-.8-.3-1.1l-.7-.7-.5-.2.2-.5a8.1 8.1 0 0 1 7-4h.3c2 .1 3.7.9 5 2.3l.4.3.2.3c1.5 2 3.1 4.5 4.8 7.4l3-5.7.4-.7a7.6 7.6 0 0 1 6.7-4Zm0 4.7c-1.1 0-2 .5-2.6 1.6l-.4.7a81 81 0 0 0-3.1 6l-3.3 7.2-.4 1-.5-1a97 97 0 0 0-8.4-14.4c-.5-.7-1.2-1-2.2-1a3 3 0 0 0-2.1.9l-.2.1-.2.2c-.4.5-.6 1.1-.6 1.7v.2c0 .5.3 1 .6 1.7l1.3 2c4 7.1 7 12.5 8.9 16.2v.5a161.1 161.1 0 0 0-5 12.1l-.4 1.6c0 .8.3 1.5 1 2 .6.6 1.3.8 2.2.8.6 0 1.1-.1 1.6-.4.4-.3.7-.7 1-1.4l.1-.2 1.7-4.7c1.2-3 2.8-6.6 5-11l8.7-18.1c.3-.5.4-1 .4-1.3v-.1c0-.8-.2-1.4-.8-2h-.1c-.7-.6-1.4-.9-2.2-.9Z"/></g><g filter="url(#q)"><mask id="s" width="36" height="49" x="182.1" y="1.9" fill="#000" maskUnits="userSpaceOnUse"><path fill="#fff" d="M182.1 1.9h36v49h-36z"/><path d="M213.2 19.2c0-1.6-1-2.5-2.8-2.6h-.4l-5.2.3a96.5 96.5 0 0 1-7.8 0h-1.2c-1.4-.3-2.6-.3-3.4-.4h-.3c-1 0-1.9.4-2.5 1-.6.7-1 1.5-1 2.4v.4c.2 1.7 1.2 2.6 3.2 3a56.7 56.7 0 0 0 10.9.4 76 76 0 0 1-13.3 15.7c-1 .8-1.6 1.8-1.6 3 0 .8.4 1.6 1.1 2.1.6.5 1.3.7 2 .8h.4l1.1-.1a57 57 0 0 1 10.7-1h.2c.7 0 1.6.2 2.7.4l2.7.3h.3c1 0 1.7-.2 2.4-.8l.1-.1c.6-.6 1-1.3 1-2.2v-.2c0-1-.3-1.7-1-2.4-.6-.6-1.4-.9-2.3-1h-.2a18 18 0 0 1-3-.3 16.5 16.5 0 0 0-5.5-.3L204 33l1.9-2.6c1.8-2.4 3.3-4.4 4.7-6l.5-.6c1.4-1.5 2-3 2.2-4.4v-.3Zm-6.6-8.4c0-1-.5-2-1.7-2.9-1-.8-2-1.2-2.7-1.2a4 4 0 0 0-2.4.8l-.1.1a3 3 0 0 0-1.3 2.6c0 1 .6 2 1.7 2.9l.4.3c1 .6 1.7 1 2.4 1a4 4 0 0 0 2.4-1c.9-.6 1.3-1.5 1.3-2.6Zm3.8 0c0 .7 0 1.4-.3 2 1.5 0 3.2.4 4.7 1.6 1 .8 1.6 1.9 1.9 3a4 4 0 0 0-.9.6c-.7.7-1 1.5-1 2.4 0 .7.1 1.4.6 2.2l.5.8a14 14 0 0 1-2 3c-1.4 1.5-3 3.6-5 6.4-.5.5-.9 1-1.2 1.6h1.3c1.8 0 3.6.7 5 2l.1.1a6.9 6.9 0 0 1 2.2 5.1 7 7 0 0 1-2.2 5.1 7.3 7.3 0 0 1-5.1 2c-1 0-2.3-.2-3.7-.4l-2.2-.3c-3.6 0-7 .3-10 .9l-1.8.2c-1.6 0-3.2-.5-4.6-1.6a6.4 6.4 0 0 1-2.6-4.8V42c.1-2.3 1.3-4.1 2.9-5.4l.7-.7c2.4-2.1 5-5 7.7-8.4a62 62 0 0 1-4.2-.5 7.6 7.6 0 0 1-4.5-2.1 6.9 6.9 0 0 1-1.8-4.9 7 7 0 0 1 2-5l.3-.3a7 7 0 0 1 4.9-1.8c.8 0 1.9 0 3.2.2-.4-.8-.6-1.6-.7-2.6v-.7c.2-2.2 1.3-4 3-5.3 1.3-.9 2.9-1.5 4.6-1.5h.4c1.6.1 3 .9 4.2 1.7l.5.4a7.5 7.5 0 0 1 3.1 5.8Z"/></mask><path fill="url(#r)" d="M213.2 19.2c0-1.6-1-2.5-2.8-2.6h-.4l-5.2.3a96.5 96.5 0 0 1-7.8 0h-1.2c-1.4-.3-2.6-.3-3.4-.4h-.3c-1 0-1.9.4-2.5 1-.6.7-1 1.5-1 2.4v.4c.2 1.7 1.2 2.6 3.2 3a56.7 56.7 0 0 0 10.9.4 76 76 0 0 1-13.3 15.7c-1 .8-1.6 1.8-1.6 3 0 .8.4 1.6 1.1 2.1.6.5 1.3.7 2 .8h.4l1.1-.1a57 57 0 0 1 10.7-1h.2c.7 0 1.6.2 2.7.4l2.7.3h.3c1 0 1.7-.2 2.4-.8l.1-.1c.6-.6 1-1.3 1-2.2v-.2c0-1-.3-1.7-1-2.4-.6-.6-1.4-.9-2.3-1h-.2a18 18 0 0 1-3-.3 16.5 16.5 0 0 0-5.5-.3L204 33l1.9-2.6c1.8-2.4 3.3-4.4 4.7-6l.5-.6c1.4-1.5 2-3 2.2-4.4v-.3Zm-6.6-8.4c0-1-.5-2-1.7-2.9-1-.8-2-1.2-2.7-1.2a4 4 0 0 0-2.4.8l-.1.1a3 3 0 0 0-1.3 2.6c0 1 .6 2 1.7 2.9l.4.3c1 .6 1.7 1 2.4 1a4 4 0 0 0 2.4-1c.9-.6 1.3-1.5 1.3-2.6Zm3.8 0c0 .7 0 1.4-.3 2 1.5 0 3.2.4 4.7 1.6 1 .8 1.6 1.9 1.9 3a4 4 0 0 0-.9.6c-.7.7-1 1.5-1 2.4 0 .7.1 1.4.6 2.2l.5.8a14 14 0 0 1-2 3c-1.4 1.5-3 3.6-5 6.4-.5.5-.9 1-1.2 1.6h1.3c1.8 0 3.6.7 5 2l.1.1a6.9 6.9 0 0 1 2.2 5.1 7 7 0 0 1-2.2 5.1 7.3 7.3 0 0 1-5.1 2c-1 0-2.3-.2-3.7-.4l-2.2-.3c-3.6 0-7 .3-10 .9l-1.8.2c-1.6 0-3.2-.5-4.6-1.6a6.4 6.4 0 0 1-2.6-4.8V42c.1-2.3 1.3-4.1 2.9-5.4l.7-.7c2.4-2.1 5-5 7.7-8.4a62 62 0 0 1-4.2-.5 7.6 7.6 0 0 1-4.5-2.1 6.9 6.9 0 0 1-1.8-4.9 7 7 0 0 1 2-5l.3-.3a7 7 0 0 1 4.9-1.8c.8 0 1.9 0 3.2.2-.4-.8-.6-1.6-.7-2.6v-.7c.2-2.2 1.3-4 3-5.3 1.3-.9 2.9-1.5 4.6-1.5h.4c1.6.1 3 .9 4.2 1.7l.5.4a7.5 7.5 0 0 1 3.1 5.8Z"/><path stroke="#000" stroke-width="2" d="M213.2 19.2c0-1.6-1-2.5-2.8-2.6h-.4l-5.2.3a96.5 96.5 0 0 1-7.8 0h-1.2c-1.4-.3-2.6-.3-3.4-.4h-.3c-1 0-1.9.4-2.5 1-.6.7-1 1.5-1 2.4v.4c.2 1.7 1.2 2.6 3.2 3a56.7 56.7 0 0 0 10.9.4 76 76 0 0 1-13.3 15.7c-1 .8-1.6 1.8-1.6 3 0 .8.4 1.6 1.1 2.1.6.5 1.3.7 2 .8h.4l1.1-.1a57 57 0 0 1 10.7-1h.2c.7 0 1.6.2 2.7.4l2.7.3h.3c1 0 1.7-.2 2.4-.8l.1-.1c.6-.6 1-1.3 1-2.2v-.2c0-1-.3-1.7-1-2.4-.6-.6-1.4-.9-2.3-1h-.2a18 18 0 0 1-3-.3 16.5 16.5 0 0 0-5.5-.3L204 33l1.9-2.6c1.8-2.4 3.3-4.4 4.7-6l.5-.6c1.4-1.5 2-3 2.2-4.4v-.3Zm-6.6-8.4c0-1-.5-2-1.7-2.9-1-.8-2-1.2-2.7-1.2a4 4 0 0 0-2.4.8l-.1.1a3 3 0 0 0-1.3 2.6c0 1 .6 2 1.7 2.9l.4.3c1 .6 1.7 1 2.4 1a4 4 0 0 0 2.4-1c.9-.6 1.3-1.5 1.3-2.6Zm3.8 0c0 .7 0 1.4-.3 2 1.5 0 3.2.4 4.7 1.6 1 .8 1.6 1.9 1.9 3a4 4 0 0 0-.9.6c-.7.7-1 1.5-1 2.4 0 .7.1 1.4.6 2.2l.5.8a14 14 0 0 1-2 3c-1.4 1.5-3 3.6-5 6.4-.5.5-.9 1-1.2 1.6h1.3c1.8 0 3.6.7 5 2l.1.1a6.9 6.9 0 0 1 2.2 5.1 7 7 0 0 1-2.2 5.1 7.3 7.3 0 0 1-5.1 2c-1 0-2.3-.2-3.7-.4l-2.2-.3c-3.6 0-7 .3-10 .9l-1.8.2c-1.6 0-3.2-.5-4.6-1.6a6.4 6.4 0 0 1-2.6-4.8V42c.1-2.3 1.3-4.1 2.9-5.4l.7-.7c2.4-2.1 5-5 7.7-8.4a62 62 0 0 1-4.2-.5 7.6 7.6 0 0 1-4.5-2.1 6.9 6.9 0 0 1-1.8-4.9 7 7 0 0 1 2-5l.3-.3a7 7 0 0 1 4.9-1.8c.8 0 1.9 0 3.2.2-.4-.8-.6-1.6-.7-2.6v-.7c.2-2.2 1.3-4 3-5.3 1.3-.9 2.9-1.5 4.6-1.5h.4c1.6.1 3 .9 4.2 1.7l.5.4a7.5 7.5 0 0 1 3.1 5.8Z" mask="url(#s)"/></g><g filter="url(#t)"><path fill="url(#u)" d="M137.4 41.7V25a81 81 0 0 1 0-4.7c0-1.8.6-3.5 1.9-5a6.9 6.9 0 0 1 5.2-2.1c1.6 0 3.2.4 4.6 1.5a20 20 0 0 1 8.8-2c2.6 0 5 1 6.8 3.2 1.5 2 2 4.7 2 7.3v2a8.4 8.4 0 0 1-2 5.2 7 7 0 0 1-5.3 2.2 7 7 0 0 1-5.1-2 6.3 6.3 0 0 1-1.4-2.3c-.5.4-.9 1-1.2 1.5v11.8a7 7 0 0 1-2.1 5v.1a7.2 7.2 0 0 1-5.2 2c-1.9 0-3.8-.6-5.2-2.3h-.1a7.2 7.2 0 0 1-1.7-4.8Zm3.9-20.4a117 117 0 0 1-.1 3.8v16.6c0 1 .2 1.7.8 2.3a3 3 0 0 0 2.2 1h.2c1 0 1.9-.3 2.5-1 .6-.5 1-1.2 1-2.1v-13c1.6-3.3 4.4-5.2 8.2-5.8v2.5c0 2 1 3.2 3 3.3h.3c2.2 0 3.4-1.3 3.5-3.9v-1.6c0-4.4-1.5-6.7-4.7-6.8h-.3c-3.7 0-7 1.1-10 3.3-.3-1.8-1.3-2.7-3-2.9h-.4c-1 0-1.8.4-2.4 1-.6.6-.8 1.4-.8 2.4v1Z"/><path stroke="#000" d="M152.2 41.7c0 1.9-.6 3.6-2 5l-.3.4-.4.4a7.8 7.8 0 0 1-5 1.8c-1.7 0-3.4-.5-4.8-1.6v.1l-1-1-.2-.3a7.7 7.7 0 0 1-1.6-4.8V24a131.2 131.2 0 0 1 0-3.6c0-1.9.7-3.7 2-5.2a7.4 7.4 0 0 1 5.6-2.4c1.6 0 3.2.3 4.7 1.4 2.7-1.3 5.6-1.9 8.7-1.9 2.7 0 5.4 1 7.2 3.4 1.6 2.2 2.1 5 2.1 7.6v2a8.8 8.8 0 0 1-2.1 5.5 7.5 7.5 0 0 1-5.7 2.4c-1.8 0-3.9-.5-5.5-2.1l-1.2-1.8-.5.7v11.7Zm4.5-16c0 .9.2 1.5.6 2 .3.4.9.6 1.7.7h.4c1 0 1.7-.3 2.2-.8.4-.5.7-1.4.8-2.6v-1.6a8 8 0 0 0-1-4.7c-.7-1-1.8-1.6-3.2-1.6h-.3c-3.6 0-6.8 1-9.7 3.2l-.7.5-.1-.8c-.2-.8-.5-1.4-.9-1.8-.4-.4-1-.6-1.6-.7h-.4c-.8 0-1.4.3-1.8.7l-.2.1a3 3 0 0 0-.7 2v1a143.4 143.4 0 0 1-.1 3.8v16.6c0 .7.1 1.3.5 1.8l.1.2c.5.5 1.1.8 2 .8h.1a3 3 0 0 0 2.2-.8c.5-.5.8-1 .8-1.9V28.7a11 11 0 0 1 8.6-6.1l.5-.1v.5l.2 2.6Z"/></g><g filter="url(#v)"><path fill="url(#w)" d="M135.8 24c0-2.6-1.2-4.5-3.8-5.8-1.8-.9-4-1.3-6.8-1.4h-.5a12 12 0 0 0-10.2 5c-2.2 2.9-3.3 6.5-3.3 10.8v.4c0 3.7 1.5 6.5 4.2 8.6 2.4 1.8 5.5 2.8 9.2 2.9h.7a19 19 0 0 0 7.1-1.3l.5-.2c2.7-1.2 4.1-2.7 4.2-4.6v-.1c0-1.7-.9-2.6-2.6-2.6-.9 0-2 .4-3.4 1.2-1.6 1-3.5 1.4-5.8 1.4a11 11 0 0 1-4-.6 7.7 7.7 0 0 1-2.9-2l8.6-3.8c2.9-1.3 4.8-2.2 5.7-2.9 2-1.3 3-2.9 3.1-4.6v-.3Zm-11.1-1a9 9 0 0 1 4.4 1c-1.4.8-3.2 1.8-5.5 2.8l-5.7 2.4a11 11 0 0 1 2.7-4.7c1.1-1 2.5-1.5 4-1.5Zm14.9 1c0 3.5-2 6-4.5 8 1.3 0 2.8.5 4 1.6a6.3 6.3 0 0 1 1.8 4.7c0 4.2-3.2 6.7-6.5 8.1a22.7 22.7 0 0 1-9 1.9c-4.7 0-8.9-1.1-12.2-3.7a14 14 0 0 1-4.5-5.5l-.4-2.3a31.5 31.5 0 0 1-.5-6.8V28a20 20 0 0 1 3.7-8.4c3.3-4.3 7.8-6.5 13.2-6.5 3 0 6 .5 8.5 1.6l.4.2c1.8.9 3.3 2.1 4.4 3.8a9.9 9.9 0 0 1 1.6 5.5Z"/><path stroke="#000" d="M124.7 12.5c3 0 5.7.4 8.2 1.4l.5.3.5.2c1.8.9 3.4 2.1 4.5 3.9l.3.3c1 1.7 1.4 3.6 1.4 5.5 0 3.2-1.6 5.7-3.8 7.5 1 .3 2.2.7 3.1 1.7 1.6 1.5 2 3.4 2 5 0 4.5-3.5 7.2-6.8 8.6-3 1.3-6 1.9-9.3 1.9-4.7 0-9-1.2-12.4-3.8a14.5 14.5 0 0 1-4.7-5.7v-.1l-.4-2.3c-.3-2.1-.5-3.9-.5-5.2V27.9c.6-3.2 1.9-6.2 3.8-8.7 3.4-4.4 8-6.7 13.6-6.7Zm0 4.8c-4.1 0-7.4 1.6-9.8 4.7a17 17 0 0 0-3.2 10.6v.7a10 10 0 0 0 4 8c2.3 1.6 5.3 2.6 9 2.7h.6c2.5 0 4.8-.4 7-1.3l.4-.2c2.7-1.1 3.8-2.5 4-4v-.2c0-.8-.3-1.3-.6-1.6-.3-.3-.7-.5-1.3-.5h-.3c-.7 0-1.8.4-3.1 1.2-1.7 1-3.7 1.4-6 1.4-1.6 0-3-.2-4.2-.7a8.2 8.2 0 0 1-3.1-2l-.5-.6.6-.3 8.6-3.7a40 40 0 0 0 5.6-2.9c1.9-1.3 2.8-2.7 3-4.2V24c0-1.3-.4-2.3-1-3.2a6.5 6.5 0 0 0-2.6-2.2c-1.8-.9-4-1.3-6.6-1.4h-.5Zm0 5.2c1.8 0 3.4.3 4.6 1l.8.4-.7.4c-1.4 1-3.3 1.9-5.5 3l-5.8 2.4-1 .4.4-1c.6-2.2 1.6-3.8 2.8-5a6.2 6.2 0 0 1 4.4-1.6Z"/></g><g filter="url(#x)"><mask id="z" width="34" height="40" x="79.7" y="10.8" fill="#000" maskUnits="userSpaceOnUse"><path fill="#fff" d="M79.7 10.8h34v40h-34z"/><path d="M111.6 28.3a21 21 0 0 0-.4 4.3c0 2 .3 3.8 1.1 5.4l.3 3.8c0 2-.7 3.8-2.2 5.2a7.3 7.3 0 0 1-5 2c-1.7 0-3.5-.5-5-1.8s-2-3-2.3-4.6l-.7-5.3a42.7 42.7 0 0 1-.4-7.5c-.5 1-1 2-1.4 3.4l-.2 2a13.1 13.1 0 0 0 0 3.5l.2 2.6c0 1.9-.7 3.7-2.2 5v.1a7.2 7.2 0 0 1-5.1 2c-1.9 0-3.7-.6-5.1-2a7 7 0 0 1-2.2-5.1l-.1-1.8a48.3 48.3 0 0 1-.2-2.2V37c0-1.8.1-4.2.4-7.1a85 85 0 0 0 .2-8.5v-2.5c0-2 .7-3.8 2.2-5.1 1.4-1.3 3.2-2 5-2a7 7 0 0 1 5.3 2.1c1.9-1 4-1.5 6.2-1.5 2 0 4.1.4 6 1.5 1.7 1 3 2.6 3.8 4.3l.2.4a24 24 0 0 1 1.6 9.6v.1Zm-26.6-9a65.8 65.8 0 0 0 .2 4.1c0 1.2 0 2.8-.2 4.7l-.3 4.1a71.6 71.6 0 0 0 0 9c0 1 .4 1.8 1 2.4.7.6 1.5 1 2.4 1h.2c1 0 1.8-.3 2.5-1a3 3 0 0 0 1-2.2v-.1c0-.5 0-1.2-.2-2.2l-.1-1.7v-2.1l.1-.6.3-2.2c.8-2.8 2-5.1 3.5-7 1.5-1.7 3-2.7 4.6-2.7.7 0 1 .8 1 2.2a18 18 0 0 1 0 2c0 .5 0 1.2-.2 2.3v2.9l.3 4.6.8 5.3c.2 1.9 1.2 3 3 3h.4c1 0 1.8-.2 2.4-.8l.2-.1a3 3 0 0 0 1-2.2v-.2c0-1.3-.2-3-.6-5-.3-1.9-.5-3.4-.5-4.6v-4c0-3.6-.4-6.2-1.2-8-1.2-2.6-3.3-4-6.3-4h-.3a11 11 0 0 0-7.9 3.7v-.3c-.1-2.6-1.3-3.9-3.3-4h-.2c-1 0-1.9.3-2.6 1H86A3 3 0 0 0 85 19v.4Z"/></mask><path fill="url(#y)" d="M111.6 28.3a21 21 0 0 0-.4 4.3c0 2 .3 3.8 1.1 5.4l.3 3.8c0 2-.7 3.8-2.2 5.2a7.3 7.3 0 0 1-5 2c-1.7 0-3.5-.5-5-1.8s-2-3-2.3-4.6l-.7-5.3a42.7 42.7 0 0 1-.4-7.5c-.5 1-1 2-1.4 3.4l-.2 2a13.1 13.1 0 0 0 0 3.5l.2 2.6c0 1.9-.7 3.7-2.2 5v.1a7.2 7.2 0 0 1-5.1 2c-1.9 0-3.7-.6-5.1-2a7 7 0 0 1-2.2-5.1l-.1-1.8a48.3 48.3 0 0 1-.2-2.2V37c0-1.8.1-4.2.4-7.1a85 85 0 0 0 .2-8.5v-2.5c0-2 .7-3.8 2.2-5.1 1.4-1.3 3.2-2 5-2a7 7 0 0 1 5.3 2.1c1.9-1 4-1.5 6.2-1.5 2 0 4.1.4 6 1.5 1.7 1 3 2.6 3.8 4.3l.2.4a24 24 0 0 1 1.6 9.6v.1Zm-26.6-9a65.8 65.8 0 0 0 .2 4.1c0 1.2 0 2.8-.2 4.7l-.3 4.1a71.6 71.6 0 0 0 0 9c0 1 .4 1.8 1 2.4.7.6 1.5 1 2.4 1h.2c1 0 1.8-.3 2.5-1a3 3 0 0 0 1-2.2v-.1c0-.5 0-1.2-.2-2.2l-.1-1.7v-2.1l.1-.6.3-2.2c.8-2.8 2-5.1 3.5-7 1.5-1.7 3-2.7 4.6-2.7.7 0 1 .8 1 2.2a18 18 0 0 1 0 2c0 .5 0 1.2-.2 2.3v2.9l.3 4.6.8 5.3c.2 1.9 1.2 3 3 3h.4c1 0 1.8-.2 2.4-.8l.2-.1a3 3 0 0 0 1-2.2v-.2c0-1.3-.2-3-.6-5-.3-1.9-.5-3.4-.5-4.6v-4c0-3.6-.4-6.2-1.2-8-1.2-2.6-3.3-4-6.3-4h-.3a11 11 0 0 0-7.9 3.7v-.3c-.1-2.6-1.3-3.9-3.3-4h-.2c-1 0-1.9.3-2.6 1H86A3 3 0 0 0 85 19v.4Z"/><path stroke="#000" stroke-width="2" d="M111.6 28.3a21 21 0 0 0-.4 4.3c0 2 .3 3.8 1.1 5.4l.3 3.8c0 2-.7 3.8-2.2 5.2a7.3 7.3 0 0 1-5 2c-1.7 0-3.5-.5-5-1.8s-2-3-2.3-4.6l-.7-5.3a42.7 42.7 0 0 1-.4-7.5c-.5 1-1 2-1.4 3.4l-.2 2a13.1 13.1 0 0 0 0 3.5l.2 2.6c0 1.9-.7 3.7-2.2 5v.1a7.2 7.2 0 0 1-5.1 2c-1.9 0-3.7-.6-5.1-2a7 7 0 0 1-2.2-5.1l-.1-1.8a48.3 48.3 0 0 1-.2-2.2V37c0-1.8.1-4.2.4-7.1a85 85 0 0 0 .2-8.5v-2.5c0-2 .7-3.8 2.2-5.1 1.4-1.3 3.2-2 5-2a7 7 0 0 1 5.3 2.1c1.9-1 4-1.5 6.2-1.5 2 0 4.1.4 6 1.5 1.7 1 3 2.6 3.8 4.3l.2.4a24 24 0 0 1 1.6 9.6v.1Zm-26.6-9a65.8 65.8 0 0 0 .2 4.1c0 1.2 0 2.8-.2 4.7l-.3 4.1a71.6 71.6 0 0 0 0 9c0 1 .4 1.8 1 2.4.7.6 1.5 1 2.4 1h.2c1 0 1.8-.3 2.5-1a3 3 0 0 0 1-2.2v-.1c0-.5 0-1.2-.2-2.2l-.1-1.7v-2.1l.1-.6.3-2.2c.8-2.8 2-5.1 3.5-7 1.5-1.7 3-2.7 4.6-2.7.7 0 1 .8 1 2.2a18 18 0 0 1 0 2c0 .5 0 1.2-.2 2.3v2.9l.3 4.6.8 5.3c.2 1.9 1.2 3 3 3h.4c1 0 1.8-.2 2.4-.8l.2-.1a3 3 0 0 0 1-2.2v-.2c0-1.3-.2-3-.6-5-.3-1.9-.5-3.4-.5-4.6v-4c0-3.6-.4-6.2-1.2-8-1.2-2.6-3.3-4-6.3-4h-.3a11 11 0 0 0-7.9 3.7v-.3c-.1-2.6-1.3-3.9-3.3-4h-.2c-1 0-1.9.3-2.6 1H86A3 3 0 0 0 85 19v.4Z" mask="url(#z)"/></g><g filter="url(#A)"><path fill="url(#B)" d="M79.5 24c0-2.6-1.3-4.5-3.8-5.8-1.8-.9-4.1-1.3-6.8-1.4h-.6a12 12 0 0 0-10 5c-2.3 2.9-3.5 6.5-3.5 10.8v.4c.1 3.7 1.6 6.5 4.3 8.6 2.4 1.8 5.5 2.8 9.2 2.9h.7a19 19 0 0 0 7.1-1.3l.5-.2c2.8-1.2 4.2-2.8 4.2-4.7 0-1.7-.9-2.6-2.6-2.6-.9 0-2 .4-3.4 1.2-1.6 1-3.5 1.4-5.8 1.4a11 11 0 0 1-4-.6 7.7 7.7 0 0 1-2.9-2l8.6-3.8c2.8-1.3 4.7-2.2 5.7-2.9 2-1.4 3.1-3 3.1-5Zm-11.2-1a9 9 0 0 1 4.5 1 42 42 0 0 1-5.5 2.8l-5.7 2.4a11 11 0 0 1 2.7-4.7c1.1-1 2.5-1.5 4-1.5Zm15 1c0 3.5-2 6-4.5 8 1.3 0 2.8.5 4 1.6a6 6 0 0 1 1.7 3.3v1.8c-.1 4-3.2 6.4-6.4 7.7a22.7 22.7 0 0 1-9 1.9c-4.7 0-8.9-1.1-12.3-3.7-3.8-2.9-5.7-7-5.7-12 0-1.6.1-3.1.4-4.6.6-.6 1-1.6 1-3v-.8c.7-1.7 1.6-3.3 2.7-4.7C58.5 15.1 63 13 68.3 13c3.2 0 6 .5 8.5 1.6l.5.2c1.8.9 3.3 2.1 4.4 3.8a9.9 9.9 0 0 1 1.6 5.5Z"/><path stroke="#000" d="M68.3 12.5c3 0 5.8.4 8.3 1.4l.4.3.5.2a10.4 10.4 0 0 1 6.2 9.7c0 3.2-1.5 5.7-3.7 7.5a6.4 6.4 0 0 1 5 5.2v1.8c-.1 4.4-3.5 7-6.7 8.3-3 1.3-6 1.9-9.3 1.9-4.7 0-9-1.2-12.5-3.8-4-3-6-7.3-6-12.4 0-1.6.2-3.2.5-4.7v-.1l.1-.1c.5-.6.9-1.4 1-2.7v-1a20 20 0 0 1 2.7-4.8c3.4-4.4 8-6.7 13.5-6.7Zm0 4.8c-4 0-7.3 1.6-9.7 4.7a17 17 0 0 0-3.3 10.6v.7a10 10 0 0 0 4.1 8c2.3 1.6 5.3 2.6 8.9 2.7h.7c2.5 0 4.8-.4 7-1.3l.4-.2c2.7-1.2 4-2.6 4-4.2 0-.8-.3-1.3-.6-1.6-.3-.3-.7-.5-1.3-.5h-.3c-.7 0-1.8.4-3.2 1.2-1.6 1-3.6 1.4-6 1.4-1.5 0-2.9-.2-4.1-.7a8.2 8.2 0 0 1-3.1-2l-.5-.6.6-.3 8.6-3.7a40 40 0 0 0 5.6-2.9c2-1.4 3-2.9 3-4.5 0-1.3-.4-2.3-1-3.2a6.5 6.5 0 0 0-2.6-2.2c-1.8-.9-4-1.3-6.6-1.4h-.6Zm0 5.2c2 0 3.5.3 4.7 1l.8.4-.7.4c-1.4 1-3.3 1.9-5.6 3l-5.7 2.4-1 .4.3-1c.7-2.2 1.7-3.8 2.9-5a6.2 6.2 0 0 1 4.3-1.6Z"/></g><g filter="url(#C)"><path fill="url(#D)" d="M27 41.7V22h.2c.6-.7 1-1.5 1-2.5 0-.8-.2-1.5-.6-2a6.9 6.9 0 0 1 6.5-4.3c1.6 0 3.2.5 4.6 1.6a20 20 0 0 1 8.8-2c2.6 0 5.1 1 6.8 3.2 1.6 2 2 4.7 2 7.3V25c-.6 1.4-1 2.9-1.3 4.5l-.7 1a7 7 0 0 1-5.3 2.2 7 7 0 0 1-5.1-2 6.3 6.3 0 0 1-1.4-2.3c-.5.4-.9 1-1.2 1.5v11.8a7 7 0 0 1-2.1 5v.1a7.2 7.2 0 0 1-5.2 2c-1.9 0-3.8-.6-5.2-2.3a7.2 7.2 0 0 1-1.8-4.8Zm3.9-20.4a132 132 0 0 1-.1 3.8V42c0 .8.3 1.5.8 2a3 3 0 0 0 2.2 1h.2c1 0 1.9-.3 2.5-1 .7-.6 1-1.3 1-2.3V28.9c1.6-3.3 4.4-5.2 8.2-5.8l.1 2.5c0 2 1 3.2 2.8 3.3h.4c2.2 0 3.4-1.3 3.5-3.9v-1.7c0-4.3-1.5-6.6-4.7-6.7h-.3c-3.7 0-7 1.1-10 3.3-.3-1.8-1.3-2.7-3-2.9H34c-1 0-1.8.4-2.4 1-.5.6-.8 1.4-.8 2.4v1Z"/><path stroke="#000" d="M41.8 41.7c0 1.9-.6 3.6-2 5l-.3.4-.4.4a7.8 7.8 0 0 1-5 1.8c-1.9 0-3.7-.5-5.2-2v.1l-.5-.5v-.1l-.2-.1a7.7 7.7 0 0 1-1.7-5V21.8l.2-.1.1-.1c.6-.6.9-1.2.9-2a3 3 0 0 0-.5-1.8l-.1-.2v-.3c.4-.7.8-1.5 1.4-2.1a7.4 7.4 0 0 1 5.6-2.4c1.6 0 3.2.3 4.7 1.4 2.7-1.3 5.6-1.9 8.7-1.9h.5c2.5.1 5 1.1 6.7 3.4 1.6 2.2 2.1 5 2.1 7.6v1.8a17 17 0 0 0-1.3 4.5v.1l-.8 1.1a7.5 7.5 0 0 1-5.7 2.4c-1.8 0-3.9-.5-5.5-2.1l-1.2-1.8-.5.7v11.7Zm4.5-16c0 .9.2 1.5.6 2 .3.4.9.6 1.7.7h.4c1 0 1.7-.3 2.2-.8.4-.5.8-1.4.8-2.6v-1.7a8 8 0 0 0-1-4.6c-.7-1-1.8-1.6-3.2-1.6h-.3c-3.6 0-6.8 1-9.7 3.2l-.6.5-.2-.8c-.1-.8-.4-1.4-.8-1.8-.4-.4-1-.6-1.7-.7H34c-.8 0-1.4.3-1.8.7l-.2.1a3 3 0 0 0-.7 2v1a134.7 134.7 0 0 1-.1 3.8V42.3c0 .4.3.9.5 1.2l.2.2c.4.5 1 .8 1.8.8h.2a3 3 0 0 0 2.2-.8c.5-.5.8-1.2.8-2v-13a11 11 0 0 1 8.6-6.1l.5-.1v.5l.2 2.6Z"/></g><g filter="url(#E)"><path fill="url(#F)" d="M8.5 11.2c0-2 .8-3.8 2.3-5.2l.3-.2c1.4-1.2 3-1.7 4.8-1.7 2.5 0 4.7 1.2 6 3.4.9 1.4 1.3 3 1.4 4.8 1.5 0 3 .2 4 .6a6.7 6.7 0 0 1 4.5 5v.1c-.6.6-1 1.4-1 2.4v3a7.1 7.1 0 0 1-6.1 3.3h-1a287.1 287.1 0 0 1 .3 10.9V39a12 12 0 0 1-1.5 6.4 6.8 6.8 0 0 1-6 3.2c-1.7 0-3.4-.5-4.7-1.7h-.1a6.6 6.6 0 0 1-2.4-5.2 75.3 75.3 0 0 1 .1-5.5l-.3-9.6-1.5-.2a7.5 7.5 0 0 1-4.8-2.1 7 7 0 0 1-1.8-5c0-1.8.7-3.6 2-5l.3-.2a7.1 7.1 0 0 1 5.3-1.9v-1.1Zm3.8.5a54.3 54.3 0 0 0 .2 4.7L8.8 16h-.6a3.3 3.3 0 0 0-3.4 3.4v.3c.1 1.8 1.2 2.8 3.1 3l4.8.4.5 13.1v.5l-.1 2.3v2.7c0 1 .3 1.7 1 2.3.6.5 1.3.8 2.1.9h.4c2.4 0 3.6-2 3.6-5.9a52.9 52.9 0 0 0 0-2.7L19.7 23a16.7 16.7 0 0 1 3.7-.1h1.3c.9 0 1.7-.3 2.3-.8l.2-.2c.6-.6 1-1.3 1-2.2v-.2c0-1.5-.6-2.5-1.8-3H26c-.7-.3-2-.5-4-.5l-2.5.3v-2.1c0-4-1.2-6.2-3.5-6.3h-.2c-1 0-1.9.3-2.5 1a3 3 0 0 0-1 2.3v.5Z"/><path stroke="#000" d="m27.5 12.4.3.1a7.1 7.1 0 0 1 4.5 5.3v.3l-.2.2a3 3 0 0 0-.7 2v2.4l-.1.7v.2a7.6 7.6 0 0 1-6.6 3.6h-.5l.3 9.2v2.7c0 2.3-.3 4.7-1.6 6.7a7.3 7.3 0 0 1-5.9 3.4h-.4a8 8 0 0 1-4.3-1.2l-.9-.6-.3-.3a7 7 0 0 1-2.3-5.3v-.6a96 96 0 0 1 .1-4.9c0-1.5 0-4.6-.3-9.2H7.5a8 8 0 0 1-5-2.4 7.4 7.4 0 0 1-2-5.2c0-2 .7-4 2.2-5.4l.3-.3c1.4-1.3 3.2-2 5-2v-1c.1-2 1-3.8 2.5-5.2l.3-.2.3-.2a8 8 0 0 1 4.8-1.6h.2c2.6 0 4.9 1.4 6.3 3.7.8 1.3 1.2 2.9 1.4 4.5 1.3 0 2.6.2 3.7.6ZM16 8.4c-.8 0-1.4.2-2 .6l-.2.2c-.6.5-.9 1.2-.9 2v1.4l.1 1 .1 2.8v.5h-.5l-3.7-.3h-.6a2.8 2.8 0 0 0-3 2.9v.3l.1.3c.1.6.3 1 .7 1.4.4.4 1 .7 2 .8l3.9.3h.8l.5.1v.5l.5 13.1v.6l-.1 2.2v2.7c0 .7.2 1.2.6 1.7l.3.2c.5.5 1 .7 1.7.8h.4c1 0 1.8-.4 2.3-1.3.5-.8.8-2.2.8-4v-2.8L19.2 23v-.4h.5a17.2 17.2 0 0 1 5-.2 3 3 0 0 0 2-.7l.1-.1c.5-.5.8-1.2.9-2 0-.8-.2-1.3-.4-1.7-.3-.4-.6-.7-1.1-1h-.3a18.2 18.2 0 0 0-6.3-.1h-.5v-2.6c0-2-.3-3.5-.8-4.4a2.6 2.6 0 0 0-2.2-1.4h-.2Z"/></g><defs><filter id="a" width="28.5" height="30.2" x="262.2" y="15.8" color-interpolation-filters="sRGB" filterUnits="userSpaceOnUse"><feFlood flood-opacity="0" result="BackgroundImageFix"/><feColorMatrix in="SourceAlpha" result="hardAlpha" values="0 0 0 0 0 0 0 0 0 0 0 0 0 0 0 0 0 0 127 0"/><feOffset/><feComposite in2="hardAlpha" operator="out"/><feColorMatrix values="0 0 0 0 0 0 0 0 0 0 0 0 0 0 0 0 0 0 1 0"/><feBlend in2="BackgroundImageFix" result="effect1_dropShadow_1306_1249"/><feBlend in="SourceGraphic" in2="effect1_dropShadow_1306_1249" result="shape"/></filter><filter id="b" width="20.2" height="41.3" x="242.7" y="3.8" color-interpolation-filters="sRGB" filterUnits="userSpaceOnUse"><feFlood flood-opacity="0" result="BackgroundImageFix"/><feColorMatrix in="SourceAlpha" result="hardAlpha" values="0 0 0 0 0 0 0 0 0 0 0 0 0 0 0 0 0 0 127 0"/><feOffset/><feComposite in2="hardAlpha" operator="out"/><feColorMatrix values="0 0 0 0 0 0 0 0 0 0 0 0 0 0 0 0 0 0 1 0"/><feBlend in2="BackgroundImageFix" result="effect1_dropShadow_1306_1249"/><feBlend in="SourceGraphic" in2="effect1_dropShadow_1306_1249" result="shape"/></filter><filter id="c" width="30.1" height="43.1" x="213.7" y="15.9" color-interpolation-filters="sRGB" filterUnits="userSpaceOnUse"><feFlood flood-opacity="0" result="BackgroundImageFix"/><feColorMatrix in="SourceAlpha" result="hardAlpha" values="0 0 0 0 0 0 0 0 0 0 0 0 0 0 0 0 0 0 127 0"/><feOffset/><feComposite in2="hardAlpha" operator="out"/><feColorMatrix values="0 0 0 0 0 0 0 0 0 0 0 0 0 0 0 0 0 0 1 0"/><feBlend in2="BackgroundImageFix" result="effect1_dropShadow_1306_1249"/><feBlend in="SourceGraphic" in2="effect1_dropShadow_1306_1249" result="shape"/></filter><filter id="d" width="27.3" height="40.6" x="186.8" y="5.7" color-interpolation-filters="sRGB" filterUnits="userSpaceOnUse"><feFlood flood-opacity="0" result="BackgroundImageFix"/><feColorMatrix in="SourceAlpha" result="hardAlpha" values="0 0 0 0 0 0 0 0 0 0 0 0 0 0 0 0 0 0 127 0"/><feOffset/><feComposite in2="hardAlpha" operator="out"/><feColorMatrix values="0 0 0 0 0 0 0 0 0 0 0 0 0 0 0 0 0 0 1 0"/><feBlend in2="BackgroundImageFix" result="effect1_dropShadow_1306_1249"/><feBlend in="SourceGraphic" in2="effect1_dropShadow_1306_1249" result="shape"/></filter><filter id="e" width="23.8" height="30.5" x="140.2" y="15.6" color-interpolation-filters="sRGB" filterUnits="userSpaceOnUse"><feFlood flood-opacity="0" result="BackgroundImageFix"/><feColorMatrix in="SourceAlpha" result="hardAlpha" values="0 0 0 0 0 0 0 0 0 0 0 0 0 0 0 0 0 0 127 0"/><feOffset/><feComposite in2="hardAlpha" operator="out"/><feColorMatrix values="0 0 0 0 0 0 0 0 0 0 0 0 0 0 0 0 0 0 1 0"/><feBlend in2="BackgroundImageFix" result="effect1_dropShadow_1306_1249"/><feBlend in="SourceGraphic" in2="effect1_dropShadow_1306_1249" result="shape"/></filter><filter id="f" width="28" height="29.7" x="110.2" y="15.8" color-interpolation-filters="sRGB" filterUnits="userSpaceOnUse"><feFlood flood-opacity="0" result="BackgroundImageFix"/><feColorMatrix in="SourceAlpha" result="hardAlpha" values="0 0 0 0 0 0 0 0 0 0 0 0 0 0 0 0 0 0 127 0"/><feOffset/><feComposite in2="hardAlpha" operator="out"/><feColorMatrix values="0 0 0 0 0 0 0 0 0 0 0 0 0 0 0 0 0 0 1 0"/><feBlend in2="BackgroundImageFix" result="effect1_dropShadow_1306_1249"/><feBlend in="SourceGraphic" in2="effect1_dropShadow_1306_1249" result="shape"/></filter><filter id="g" width="26.4" height="31.5" x="83.5" y="14.6" color-interpolation-filters="sRGB" filterUnits="userSpaceOnUse"><feFlood flood-opacity="0" result="BackgroundImageFix"/><feColorMatrix in="SourceAlpha" result="hardAlpha" values="0 0 0 0 0 0 0 0 0 0 0 0 0 0 0 0 0 0 127 0"/><feOffset/><feComposite in2="hardAlpha" operator="out"/><feColorMatrix values="0 0 0 0 0 0 0 0 0 0 0 0 0 0 0 0 0 0 1 0"/><feBlend in2="BackgroundImageFix" result="effect1_dropShadow_1306_1249"/><feBlend in="SourceGraphic" in2="effect1_dropShadow_1306_1249" result="shape"/></filter><filter id="h" width="28" height="29.7" x="53.8" y="15.8" color-interpolation-filters="sRGB" filterUnits="userSpaceOnUse"><feFlood flood-opacity="0" result="BackgroundImageFix"/><feColorMatrix in="SourceAlpha" result="hardAlpha" values="0 0 0 0 0 0 0 0 0 0 0 0 0 0 0 0 0 0 127 0"/><feOffset/><feComposite in2="hardAlpha" operator="out"/><feColorMatrix values="0 0 0 0 0 0 0 0 0 0 0 0 0 0 0 0 0 0 1 0"/><feBlend in2="BackgroundImageFix" result="effect1_dropShadow_1306_1249"/><feBlend in="SourceGraphic" in2="effect1_dropShadow_1306_1249" result="shape"/></filter><filter id="i" width="23.8" height="30.5" x="29.8" y="15.6" color-interpolation-filters="sRGB" filterUnits="userSpaceOnUse"><feFlood flood-opacity="0" result="BackgroundImageFix"/><feColorMatrix in="SourceAlpha" result="hardAlpha" values="0 0 0 0 0 0 0 0 0 0 0 0 0 0 0 0 0 0 127 0"/><feOffset/><feComposite in2="hardAlpha" operator="out"/><feColorMatrix values="0 0 0 0 0 0 0 0 0 0 0 0 0 0 0 0 0 0 1 0"/><feBlend in2="BackgroundImageFix" result="effect1_dropShadow_1306_1249"/><feBlend in="SourceGraphic" in2="effect1_dropShadow_1306_1249" result="shape"/></filter><filter id="j" width="25.4" height="39.1" x="3.8" y="6.9" color-interpolation-filters="sRGB" filterUnits="userSpaceOnUse"><feFlood flood-opacity="0" result="BackgroundImageFix"/><feColorMatrix in="SourceAlpha" result="hardAlpha" values="0 0 0 0 0 0 0 0 0 0 0 0 0 0 0 0 0 0 127 0"/><feOffset/><feComposite in2="hardAlpha" operator="out"/><feColorMatrix values="0 0 0 0 0 0 0 0 0 0 0 0 0 0 0 0 0 0 1 0"/><feBlend in2="BackgroundImageFix" result="effect1_dropShadow_1306_1249"/><feBlend in="SourceGraphic" in2="effect1_dropShadow_1306_1249" result="shape"/></filter><filter id="k" width="36" height="37.7" x="258.4" y="12.1" color-interpolation-filters="sRGB" filterUnits="userSpaceOnUse"><feFlood flood-opacity="0" result="BackgroundImageFix"/><feColorMatrix in="SourceAlpha" result="hardAlpha" values="0 0 0 0 0 0 0 0 0 0 0 0 0 0 0 0 0 0 127 0"/><feOffset/><feComposite in2="hardAlpha" operator="out"/><feColorMatrix values="0 0 0 0 0 0 0 0 0 0 0 0 0 0 0 0 0 0 1 0"/><feBlend in2="BackgroundImageFix" result="effect1_dropShadow_1306_1249"/><feBlend in="SourceGraphic" in2="effect1_dropShadow_1306_1249" result="shape"/></filter><filter id="m" width="27.8" height="48.8" x="238.9" y="0" color-interpolation-filters="sRGB" filterUnits="userSpaceOnUse"><feFlood flood-opacity="0" result="BackgroundImageFix"/><feColorMatrix in="SourceAlpha" result="hardAlpha" values="0 0 0 0 0 0 0 0 0 0 0 0 0 0 0 0 0 0 127 0"/><feOffset/><feComposite in2="hardAlpha" operator="out"/><feColorMatrix values="0 0 0 0 0 0 0 0 0 0 0 0 0 0 0 0 0 0 1 0"/><feBlend in2="BackgroundImageFix" result="effect1_dropShadow_1306_1249"/><feBlend in="SourceGraphic" in2="effect1_dropShadow_1306_1249" result="shape"/></filter><filter id="o" width="37.2" height="50.7" x="210.4" y="12.2" color-interpolation-filters="sRGB" filterUnits="userSpaceOnUse"><feFlood flood-opacity="0" result="BackgroundImageFix"/><feColorMatrix in="SourceAlpha" result="hardAlpha" values="0 0 0 0 0 0 0 0 0 0 0 0 0 0 0 0 0 0 127 0"/><feOffset/><feComposite in2="hardAlpha" operator="out"/><feColorMatrix values="0 0 0 0 0 0 0 0 0 0 0 0 0 0 0 0 0 0 1 0"/><feBlend in2="BackgroundImageFix" result="effect1_dropShadow_1306_1249"/><feBlend in="SourceGraphic" in2="effect1_dropShadow_1306_1249" result="shape"/></filter><filter id="q" width="34.8" height="48.2" x="183.1" y="1.9" color-interpolation-filters="sRGB" filterUnits="userSpaceOnUse"><feFlood flood-opacity="0" result="BackgroundImageFix"/><feColorMatrix in="SourceAlpha" result="hardAlpha" values="0 0 0 0 0 0 0 0 0 0 0 0 0 0 0 0 0 0 127 0"/><feOffset/><feComposite in2="hardAlpha" operator="out"/><feColorMatrix values="0 0 0 0 0 0 0 0 0 0 0 0 0 0 0 0 0 0 1 0"/><feBlend in2="BackgroundImageFix" result="effect1_dropShadow_1306_1249"/><feBlend in="SourceGraphic" in2="effect1_dropShadow_1306_1249" result="shape"/></filter><filter id="t" width="31.3" height="38" x="136.4" y="11.8" color-interpolation-filters="sRGB" filterUnits="userSpaceOnUse"><feFlood flood-opacity="0" result="BackgroundImageFix"/><feColorMatrix in="SourceAlpha" result="hardAlpha" values="0 0 0 0 0 0 0 0 0 0 0 0 0 0 0 0 0 0 127 0"/><feOffset/><feComposite in2="hardAlpha" operator="out"/><feColorMatrix values="0 0 0 0 0 0 0 0 0 0 0 0 0 0 0 0 0 0 1 0"/><feBlend in2="BackgroundImageFix" result="effect1_dropShadow_1306_1249"/><feBlend in="SourceGraphic" in2="effect1_dropShadow_1306_1249" result="shape"/></filter><filter id="v" width="35.1" height="37.2" x="106.8" y="12" color-interpolation-filters="sRGB" filterUnits="userSpaceOnUse"><feFlood flood-opacity="0" result="BackgroundImageFix"/><feColorMatrix in="SourceAlpha" result="hardAlpha" values="0 0 0 0 0 0 0 0 0 0 0 0 0 0 0 0 0 0 127 0"/><feOffset/><feComposite in2="hardAlpha" operator="out"/><feColorMatrix values="0 0 0 0 0 0 0 0 0 0 0 0 0 0 0 0 0 0 1 0"/><feBlend in2="BackgroundImageFix" result="effect1_dropShadow_1306_1249"/><feBlend in="SourceGraphic" in2="effect1_dropShadow_1306_1249" result="shape"/></filter><filter id="x" width="33.9" height="39.1" x="79.7" y="10.8" color-interpolation-filters="sRGB" filterUnits="userSpaceOnUse"><feFlood flood-opacity="0" result="BackgroundImageFix"/><feColorMatrix in="SourceAlpha" result="hardAlpha" values="0 0 0 0 0 0 0 0 0 0 0 0 0 0 0 0 0 0 127 0"/><feOffset/><feComposite in2="hardAlpha" operator="out"/><feColorMatrix values="0 0 0 0 0 0 0 0 0 0 0 0 0 0 0 0 0 0 1 0"/><feBlend in2="BackgroundImageFix" result="effect1_dropShadow_1306_1249"/><feBlend in="SourceGraphic" in2="effect1_dropShadow_1306_1249" result="shape"/></filter><filter id="A" width="35.5" height="37.2" x="50.1" y="12" color-interpolation-filters="sRGB" filterUnits="userSpaceOnUse"><feFlood flood-opacity="0" result="BackgroundImageFix"/><feColorMatrix in="SourceAlpha" result="hardAlpha" values="0 0 0 0 0 0 0 0 0 0 0 0 0 0 0 0 0 0 127 0"/><feOffset/><feComposite in2="hardAlpha" operator="out"/><feColorMatrix values="0 0 0 0 0 0 0 0 0 0 0 0 0 0 0 0 0 0 1 0"/><feBlend in2="BackgroundImageFix" result="effect1_dropShadow_1306_1249"/><feBlend in="SourceGraphic" in2="effect1_dropShadow_1306_1249" result="shape"/></filter><filter id="C" width="31.3" height="38" x="26" y="11.8" color-interpolation-filters="sRGB" filterUnits="userSpaceOnUse"><feFlood flood-opacity="0" result="BackgroundImageFix"/><feColorMatrix in="SourceAlpha" result="hardAlpha" values="0 0 0 0 0 0 0 0 0 0 0 0 0 0 0 0 0 0 127 0"/><feOffset/><feComposite in2="hardAlpha" operator="out"/><feColorMatrix values="0 0 0 0 0 0 0 0 0 0 0 0 0 0 0 0 0 0 1 0"/><feBlend in2="BackgroundImageFix" result="effect1_dropShadow_1306_1249"/><feBlend in="SourceGraphic" in2="effect1_dropShadow_1306_1249" result="shape"/></filter><filter id="E" width="32.9" height="46.6" x="0" y="3.1" color-interpolation-filters="sRGB" filterUnits="userSpaceOnUse"><feFlood flood-opacity="0" result="BackgroundImageFix"/><feColorMatrix in="SourceAlpha" result="hardAlpha" values="0 0 0 0 0 0 0 0 0 0 0 0 0 0 0 0 0 0 127 0"/><feOffset/><feComposite in2="hardAlpha" operator="out"/><feColorMatrix values="0 0 0 0 0 0 0 0 0 0 0 0 0 0 0 0 0 0 1 0"/><feBlend in2="BackgroundImageFix" result="effect1_dropShadow_1306_1249"/><feBlend in="SourceGraphic" in2="effect1_dropShadow_1306_1249" result="shape"/></filter><linearGradient id="l" x1="-35.6" x2="330.4" y1="22.3" y2="22.3" gradientUnits="userSpaceOnUse"><stop offset="1" stop-color="#fff"/><stop offset="1"/></linearGradient><linearGradient id="n" x1="-35.6" x2="330.4" y1="22.3" y2="22.3" gradientUnits="userSpaceOnUse"><stop offset="1" stop-color="#fff"/><stop offset="1"/></linearGradient><linearGradient id="p" x1="-35.6" x2="330.4" y1="22.3" y2="22.3" gradientUnits="userSpaceOnUse"><stop offset="1" stop-color="#fff"/><stop offset="1"/></linearGradient><linearGradient id="r" x1="-35.6" x2="330.4" y1="22.3" y2="22.3" gradientUnits="userSpaceOnUse"><stop offset="1" stop-color="#fff"/><stop offset="1"/></linearGradient><linearGradient id="u" x1="-35.6" x2="330.4" y1="22.3" y2="22.3" gradientUnits="userSpaceOnUse"><stop offset="1" stop-color="#fff"/><stop offset="1"/></linearGradient><linearGradient id="w" x1="-35.6" x2="330.4" y1="22.3" y2="22.3" gradientUnits="userSpaceOnUse"><stop offset="1" stop-color="#fff"/><stop offset="1"/></linearGradient><linearGradient id="y" x1="-35.6" x2="330.4" y1="22.3" y2="22.3" gradientUnits="userSpaceOnUse"><stop offset="1" stop-color="#fff"/><stop offset="1"/></linearGradient><linearGradient id="B" x1="-35.6" x2="330.4" y1="22.3" y2="22.3" gradientUnits="userSpaceOnUse"><stop offset="1" stop-color="#fff"/><stop offset="1"/></linearGradient><linearGradient id="D" x1="-35.6" x2="330.4" y1="22.3" y2="22.3" gradientUnits="userSpaceOnUse"><stop offset="1" stop-color="#fff"/><stop offset="1"/></linearGradient><linearGradient id="F" x1="-35.6" x2="330.4" y1="22.3" y2="22.3" gradientUnits="userSpaceOnUse"><stop offset="1" stop-color="#fff"/><stop offset="1"/></linearGradient></defs></svg>