<svg xmlns="http://www.w3.org/2000/svg" width="337" height="221" fill="none"><path fill="#000" d="M32.2 211v-.2h-1.1v.6h.9v-.2h.1v-.2ZM99.5 10.3a20.5 20.5 0 0 0-5.1-4.4A22.8 22.8 0 0 0 82 3c-1.4 0-2.9.2-4.3.4a27.2 27.2 0 0 1-8 .2 38.5 38.5 0 0 0-9 1.4 6.2 6.2 0 0 0-3.1 2.2 35 35 0 0 0-3.6 6.2 15.6 15.6 0 0 0-1 8.5c.2 1.2.5 2.4.9 3.5.3 1 .7 1.8 1.2 2.6-1.4-.1-2.5.4-3.3 1.7-.5 1-.8 2-.8 3 0 1.5.3 3 .6 4.4a5.9 5.9 0 0 0 2.4 3.5l.2.1.6.4.6.1c.7.2 1.4 0 2-.3v.2l.2.3.2 2A17.3 17.3 0 0 0 59 49a16 16 0 0 0 2.8 6v.9a61.9 61.9 0 0 1 0 6l-2.7 1.5a40 40 0 0 1-6 3.2c-2 .8-3.9 1.7-5.8 2.7-2 1-3.8 2-5.6 3.4a99.8 99.8 0 0 1-5.8 3.8 9 9 0 0 0-.7.6h-.5l-.4.2a183.7 183.7 0 0 0-3.3.6 12.6 12.6 0 0 0-7.5 4.3 32.7 32.7 0 0 0-6.6 11.1c-.7 2.1-.9 4.2-.6 6.3l.5 3.3a8 8 0 0 1 0 2.5 47 47 0 0 1-3.6 12.4c-1 2-1.3 4.2-1.1 6.5a67 67 0 0 0 1 8 74.4 74.4 0 0 0 1 6.3c0 1.1.2 2.2.4 3.4.2 2 .7 4 1.2 6l1.4 6v-.1a79.6 79.6 0 0 0 2 6.9 6 6 0 0 0 4.4 4l3.1.8c1.1.2 2.3.4 3.4.4a222 222 0 0 1 8.7.4V169.8c-.2 2.1-.2 4.3 0 6.5.1 1 0 2.2-.1 3.3a238 238 0 0 0-2.1 10.7 693.8 693.8 0 0 1-3.3 14.7c-.6 1.8-1.3 3.5-2.1 5.2v.6h1.2a37.3 37.3 0 0 0 2.6-6.5 26.8 26.8 0 0 0 7.4 5.2h-.1a94 94 0 0 0 3.4 1.3H50a66.6 66.6 0 0 1-7-2.5l-.1-.1a20.2 20.2 0 0 1-4.9-3c-1-.8-1.8-1.6-2.6-2.5a209.5 209.5 0 0 0 3-14.5 69 69 0 0 1 1.3-6.3 17.6 17.6 0 0 0 .4-7.5v-2.5c.2-1.8.2-3.5.1-5.3l2.9.3a58.5 58.5 0 0 0 15-.4c2.3-.1 4.6-.5 6.8-1.1l7.4-1.8a165.4 165.4 0 0 1 3-.5 66.7 66.7 0 0 0 12.2-3.8c1-.4 2-.8 3-1 1.9-.6 3.7-1.4 5.5-2.2l.8.3a26 26 0 0 0 6 2 40.5 40.5 0 0 0 8.2.7 2706.7 2706.7 0 0 1 6.8-.3v.2a518.6 518.6 0 0 1 .2 7.8 41.6 41.6 0 0 0 1.4 13.2 59.6 59.6 0 0 1 1.4 7.4 40.6 40.6 0 0 0 3 13.6l.6 1.4a263.4 263.4 0 0 1-3.7 3.2l-2.6 1.9a27.5 27.5 0 0 1-5.6 3.2l-.3.1h3.3a25.3 25.3 0 0 0 2-1.3l3-2a24.7 24.7 0 0 0 4.5-3.8 26.2 26.2 0 0 0 2.8 5l.4.7a3.8 3.8 0 0 0 1.8 1.8h.4v-.1l.2-.1.1-.2v-.2l.1-.1V210.1a.7.7 0 0 0-.1-.2h-.1a3.1 3.1 0 0 0-.1-.1h-.1l-.1-.1c-.1 0-.2 0-.3-.2a74.5 74.5 0 0 1-5-9.3l-1.1-3.5c-.7-2.2-1.1-4.4-1.3-6.7a54 54 0 0 0-2-11 50.8 50.8 0 0 1-1.1-14.1l-.3-6.3c1.4-.2 2.7-.5 4-.9 2.1-.7 4.3-.9 6.5-.6l2.5.3c2 .3 3.7.1 5.4-.6.2 0 .3-.1.3-.2.7-.5 1.4-1.1 1.9-1.9a36.5 36.5 0 0 0 2.5-4.7l.1-.1a181.3 181.3 0 0 0 1.3-3.6 66.4 66.4 0 0 0 2.3-29.7 19 19 0 0 0-2.3-5.5 17.3 17.3 0 0 1-2.5-7.4 70 70 0 0 1-.2-4.8c0-1.8-.3-3.6-.8-5.3-.5-2-1.2-4.1-2-6.2-.8-2.2-2-4.1-3.5-5.8a12.3 12.3 0 0 0-6.7-3.9c-2-.2-3.9-.8-5.6-1.7a88.3 88.3 0 0 0-5.7-2.9l-5.4-3a40 40 0 0 0-5.4-2.7A94.1 94.1 0 0 1 94.4 62a70.1 70.1 0 0 1-.4-7.3c0-.2.2-.3.3-.4.8-1.2 1.5-2.5 2-3.8l.6-1.6a20.9 20.9 0 0 0 1.8-5.9l.3-2c.5.3 1 .5 1.7.6h1c1.7-.2 2.8-1 3.4-2.6a11.6 11.6 0 0 0 .7-6.9c-.2-1.4-.9-2.6-1.9-3.6l-.7-.5c-1-.4-1.8-.4-2.7.2l-.3.1a30.7 30.7 0 0 1 1.6-4.7c.5-1.2.7-2.5.7-3.9l-.1-.6a12.4 12.4 0 0 1-.7-2.8 123 123 0 0 0-1.1-4.1l-1-2ZM65.3 58.6Zm-23 151ZM101.1 67a144 144 0 0 0 7.7 3.5v3a84.6 84.6 0 0 1 .2 4.8c.2 1.5.4 3 .4 4.6a56.7 56.7 0 0 0 1.6 11.2 401.2 401.2 0 0 1 1.5 6.4 124 124 0 0 1 .7 4.4c0 .3-.2.5-.4.8a19.1 19.1 0 0 0-1.5 14.3l.7 3c-1.5-.3-3 0-4.5.6-.8.3-1.6.7-2.3 1.3-1.2 1-2.3 2.1-3.3 3.4h-.2v.1a34.2 34.2 0 0 1-11.8-.9 226 226 0 0 0-18.7-3c-2-.2-3.8-.3-5.8-.3a15 15 0 0 1-4-.5l-2-.4c-2.2-.2-4.4-.2-6.6.1-1.4.2-2.7.6-4 1.2l.4-1.7a21.2 21.2 0 0 0 .4-7.1c-.2-2-.6-3.8-1.3-5.6l-2-5 1-4.7c.4-2 .8-4 1-6.1l.8-6.3a54.5 54.5 0 0 0 .4-11.9l-.1-6.3a194.8 194.8 0 0 1 7.3-3.4 150.4 150.4 0 0 0 1.8 13.4l1.2 3 3 5.8c1.2 1.9 2.7 3.5 4.5 4.7a26 26 0 0 0 3.6 2c2 1 4 1.4 6.3 1.4 2-.1 3.9-.4 5.8-.8 2.1-.5 4.1-1.2 6-2.2 2-1 3.5-2.2 4.8-3.9l3.7-5c1.3-1.9 2.2-3.8 2.6-6a27.8 27.8 0 0 0 .8-5.5c.3-2.1.4-4.3.3-6.4Zm11.3 57.4.5 1.3-1.6.5a51.1 51.1 0 0 1-7.4 1.9l1.3-1.3a8.3 8.3 0 0 1 4.5-2.4h.2a98.6 98.6 0 0 0 2.5.1ZM97.2 65c.8.5 1.7 1 2.6 1.3a78.4 78.4 0 0 0-.3 6.5c-.1 2.4-.6 4.8-1.3 7.1-.6 2-1.6 3.9-2.9 5.6L93.5 88c-.6 1-1.5 1.9-2.4 2.6a18.4 18.4 0 0 1-5.5 3c-2 .7-4.1 1.3-6.3 1.6a13 13 0 0 1-6.6-.6c-2-.7-3.7-1.7-5.4-3-1.2-.8-2.2-1.9-3-3.1a37.1 37.1 0 0 1-5.8-16.7l-.5-6.1 3.7-2 .1.1a20.2 20.2 0 0 1 .3.2h.5l.1-.1h.1v-.2h.1l.2-1a21.6 21.6 0 0 0 .3-5.8l1.8 1.7.3.2c.8.5 1.6.9 2.6 1.1a40.6 40.6 0 0 0 4.1.8l3 .9 3 .4c1.4 0 2.7-.3 4-.7a51.4 51.4 0 0 1 8.1-4.4 17 17 0 0 0 2.4-1.2v.5L93 60a14.1 14.1 0 0 0 .6 4l.2.1a2.7 2.7 0 0 0 .2 0 .6.6 0 0 0 .2 0 .4.4 0 0 0 .2 0 .8.8 0 0 0 .2-.3 2 2 0 0 0 .1-.1l2.6 1.3Zm.7-40.8v.7c0 .4 0 .6.3.9l.2 2.3v3.6c0 1.4-.1 2.9-.4 4.3a8 8 0 0 0 0 1.3 37.4 37.4 0 0 1-4 15c-.3.7-.8 1.2-1.3 1.7-1.2.9-2.6 1.6-4 2a15.5 15.5 0 0 0-4.5 2.5c-1 .9-2.3 1.5-3.6 1.8a9.8 9.8 0 0 1-4.8 0l-2.2-.7a13.8 13.8 0 0 0-3.6-.7 18 18 0 0 1-2-.5c-.7-.2-1.3-.5-1.9-1-.8-.5-1.5-1.2-2.2-2A24.2 24.2 0 0 1 61 51a79 79 0 0 0-.8-2.5 23.3 23.3 0 0 1-1.1-5.4 13.3 13.3 0 0 0-.4-2.8 85.6 85.6 0 0 0-.3-1.8l-.6-3.8-.1-.7-.3-4.6a10 10 0 0 1 1.1-4.8l1-2.2a29 29 0 0 0 1.2-2.9c.4-.8.8-1.7 1-2.6.4-1 1-1.7 1.8-2.1h.8l.5-.2a79.5 79.5 0 0 1 5.7-.3l2.2-.1a107.5 107.5 0 0 0 4-.5h.5l1.8.4 2 .3c1.3 0 2.6.3 3.9.7 1.3.4 2.7.5 4.1.3.5 0 .9 0 1.3.2a5 5 0 0 1 2.5 2.3c.7 1.2 1.6 2.3 2.8 3.2l.3.3c.6 1 1.3 1.8 2 2.7Zm-43 5.2c.4 0 .7.1 1 .3l.2.1v.8a36 36 0 0 0 1 7.8l.1 1c-.7.6-1.5.6-2.3.1l-.3-.2a3.8 3.8 0 0 1-1.4-1.9c-.4-1.2-.7-2.4-.8-3.7-.3-1.5.2-2.9 1.2-4l.4-.2h1Zm47.2-.2h.2a1 1 0 0 1 .2 0l.3.2a6 6 0 0 1 1.8 4v2.4c-.2 1-.5 2-1 3-.5 1.1-1.3 1.6-2.6 1.6h-.2l-.7-.4a15.2 15.2 0 0 1-.7-.6 2.2 2.2 0 0 1-.2-.4v-1.4a32.2 32.2 0 0 0 .6-7l.3-.3 1-.7 1-.4Zm-1.4-6.2Zm-5-14.5c1.1.9 2 1.9 3 3l.3.6a60.8 60.8 0 0 1 2 7.2c.1 1.1 0 2.2-.3 3.2l-1 3-.5-2.3-.2.1-.7-.9-.5-1-.5-.6a30.3 30.3 0 0 1-2.6-2.6c-.6-1.2-1.4-2.2-2.4-3-.5-.5-1.1-.8-1.8-1h-2.4c-.5 0-1 0-1.6-.2l-4.2-.7a131.1 131.1 0 0 1-5-.8 8 8 0 0 0-3.3.2l-.8.1a28.5 28.5 0 0 1-5.4.2 114.2 114.2 0 0 0-4.6.6 4.6 4.6 0 0 0-2.6 2.8 68.9 68.9 0 0 1-3.5 8.2 12.9 12.9 0 0 0-.8 2.7l-.8-1.6c-.3-.8-.6-1.5-.7-2.3a69 69 0 0 1-.4-2.7 12 12 0 0 1 0-4c.4-1.5.9-3 1.6-4.3l2.3-3.8c.7-1.2 1.8-2 3.2-2.4a74.8 74.8 0 0 1 5.5-1 52 52 0 0 1 8.3-.1l4.4-.5c1.4-.2 2.8-.3 4.3-.2a32.6 32.6 0 0 1 7.8 1.7 16.5 16.5 0 0 1 4 2.4ZM110.2 71l3.1 1.9 2.8 1.5a45 45 0 0 1 4.3 2.3c2 1.1 4 1.8 6.2 2.2 2.2.3 4.1 1.1 5.8 2.5 1.7 1.4 3 3 3.9 5.1a60.2 60.2 0 0 1 2.7 7.7 38.9 38.9 0 0 1 .6 6.4 12 12 0 0 0 .3 2.8l.2 1.5a16 16 0 0 0 2 6.2 29.1 29.1 0 0 1 3.4 10.3l.1 1.7a120.4 120.4 0 0 1-.8 12.4 35.7 35.7 0 0 1-1.8 8.2c-.6 2-1.3 4.1-2.1 6.1-.9 2.1-2.1 4-3.7 5.7h-.1l-.1.2-1.6.3a6 6 0 0 1-2 .2l-4-.5c-1.4-.2-2.7-.1-4 .2l-6 1.2a126 126 0 0 1-14.6 0c-1.8-.2-3.6-.7-5.4-1.4l-3-1.1h-.1a327.4 327.4 0 0 1-13.2-5.8l-6.3-2.8a30 30 0 0 1-4.7-2.4c-1.4-.9-3-1.7-4.6-2.3l-.1-.1-.6-.2a80.9 80.9 0 0 0-12.4-3.5l-1.6-.5a234.8 234.8 0 0 1-7.7-2.7l.5-1.2a55 55 0 0 0 2.8-6.7l.6-.4.6-.4a18.7 18.7 0 0 1 11.7-.6c1 .3 2.1.5 3.2.5 2.2 0 4.4 0 6.6.3a28 28 0 0 0 2.2.3 13.3 13.3 0 0 0 1.3.1h.1a321.4 321.4 0 0 1 17.8 3.1c2.2.5 4.3.7 6.5.6 1 0 2.1 0 3.2-.2a63.4 63.4 0 0 0 12.4-3c2-.8 4-1.4 6-2h.4l.1-.1.1-.1a1 1 0 0 0 .1-.2v-.6l-.1-.2h-.2v-.1H120.6a61 61 0 0 0-6.4 1.7 29.5 29.5 0 0 0-.6-1.8c-.7-2-1.1-4.1-1.4-6.2a18.8 18.8 0 0 1 2.6-12.1c.7-1 1.1-2.1 1.3-3.3.3-1.6.3-3.2.1-4.9a40.6 40.6 0 0 0-1.8-6.6 2.8 2.8 0 0 0-.2 0 .6.6 0 0 0-.2 0 .5.5 0 0 0-.2 0 .8.8 0 0 0-.2.3v.1l-.1.1v.7a46.9 46.9 0 0 1 1.4 9.2l-.3 1.2c0 .3-.2.5-.3.8v-.6c-.4-2.1-.8-4.2-1.4-6.4a86.5 86.5 0 0 1-1.8-9.5c0-1.9-.2-3.7-.5-5.6a623.1 623.1 0 0 0-.5-9.5Zm-81.3 9a5 5 0 0 1 1.5-.5 37 37 0 0 0 4.8-1h.3a1.8 1.8 0 0 0 .3 0l.6-.4a18.8 18.8 0 0 1 .5-.5 98 98 0 0 0 7.3-4.8 20.6 20.6 0 0 1 4-2.4v1.2a74 74 0 0 0 0 7c0 2.3 0 4.5-.2 6.7l-.7 6.5a72.2 72.2 0 0 1-1.8 10.6 10.5 10.5 0 0 1 .1-5.2 49 49 0 0 1 1.2-6.2V91a1.1 1.1 0 0 1-.2-.2v-.1h-.1a.9.9 0 0 0-.2-.1h-.7l-.2.3-.5 2.1-1 6.8c-.1 1 0 2.1.3 3.2a80 80 0 0 0 2.4 6.4 25.3 25.3 0 0 1 1.8 9.2 29.9 29.9 0 0 1-3.6 13.2l-.5.9a13.2 13.2 0 0 0-.5 1c-.9-.3-1.7-.8-2.6-1.4-.5-.3-.9-.2-1 .5-.1 0-.1.2 0 .2a17 17 0 0 0 5.4 3.2 148.2 148.2 0 0 0 13.5 4l6.2 1.9c2 .6 4 1.5 5.9 2.7a34 34 0 0 0 5 2.6l4.7 2a48.6 48.6 0 0 1-10.1 4.5 68.7 68.7 0 0 1-8.6 3v.1a.7.7 0 0 0-.1.2v.1a18.5 18.5 0 0 1 .1.3l.1.1a1.5 1.5 0 0 0 .3.2h.9a86 86 0 0 0 18.8-7.8 1542.6 1542.6 0 0 1 11.7 5.1l.2.1-2.9 1.1-5.4 2a45.8 45.8 0 0 1-14.2 3.9 139 139 0 0 0-9.8 2.2 86.8 86.8 0 0 1-22 .6H39a170.2 170.2 0 0 0-9.5-.4l-4.2-.7a8.4 8.4 0 0 1-3.9-1.8l-.3-.7a24.4 24.4 0 0 1-2.6-7.5l-.4-1.8a250.7 250.7 0 0 1-2-8.5 166.3 166.3 0 0 1-.6-4.4v-.1l.1-.1a158.6 158.6 0 0 0-1.5-10 41.6 41.6 0 0 1-.5-7.8 71.2 71.2 0 0 1 3-8.4c.7-2 1.2-4.2 1.6-6.3.2-.7.2-1.4.1-2l-.7-6.6v-.7c0-.6 0-1.1.2-1.6.3-2.2 1-4.3 2.2-6.2a35 35 0 0 1 3.6-5.2c1.4-1.8 3.2-3.1 5.2-4.2Zm-6 76.4v-.2a57.6 57.6 0 0 0-.4-.2 2.8 2.8 0 0 1-.2 0h-.5v.1l-.1.1-.1.2.1 1c.4 1 .9 2 1.6 2.7a4.5 4.5 0 0 0 3 1.5H26.5v-.1l.1-.1.1-.1V161l.1-.1V160.7a1.3 1.3 0 0 0-.2-.2h-.1a29 29 0 0 1-1-.4 4 4 0 0 1-1.8-1.5 5 5 0 0 1-.9-2.1Zm14.7-46.4v1.5c0 2.1 0 4.2-.3 6.3a20.1 20.1 0 0 1-1.8 6.5v.1l.2.2.1.1h.2a190.5 190.5 0 0 1 .6 0l.8-1.6c.9-2 1.3-4 1.4-6a80.6 80.6 0 0 0 0-7.2 3.6 3.6 0 0 0-.1-.2h-.2l-.2-.1h-.4v.1a1 1 0 0 0-.3.3Zm-6.6-26-.1-.1c-.7.2-1.4.5-1.9 1-1.6 1.8-3 3.8-3.8 6a26.7 26.7 0 0 0-1.6 7.2v.1l.2.1.2.1a.8.8 0 0 0 .3 0 .8.8 0 0 0 .2 0l.1-.1.2-.1.2-1a20.6 20.6 0 0 1 1.7-5.9 20.7 20.7 0 0 1 2.4-4.2c.6-.9 1.4-1.6 2.3-2.1V85l.1-.2v-.5h-.1v-.1a2.9 2.9 0 0 0-.2-.1H31Zm106 64h-.3l-.1.1-.2.2-.1.1v.4c0 .9-.3 1.6-.9 2.2-.5.6-1.2 1-1.9 1.5a1.2 1.2 0 0 0-.1.4v.4h.1v.1h.2v.1h.2a1.3 1.3 0 0 0 .2.1c.2 0 .5 0 .7-.2.9-.5 1.6-1 2.1-2 .6-.8.8-1.8.7-2.9v-.1a.9.9 0 0 0-.2-.2l-.2-.1h-.2Zm-58.8-12.6h-.2v.1h-.1v.1h-.1l-.1.2v.1a.6.6 0 0 0-.1.2V136.5a.6.6 0 0 0 .1.1l.1.1a79.6 79.6 0 0 0 11.7 5c2.6 1 5.4 2 8.1 2.7 2.8.7 5.4 1.6 8 2.7h.2a.6.6 0 0 0 .2 0 2.6 2.6 0 0 0 .2-.1h.1v-.1h.1a.7.7 0 0 0 .1-.2v-.1a.9.9 0 0 0 0-.2v-.4l-.7-.4c-2.7-1.1-5.4-2-8.3-2.7a80.4 80.4 0 0 1-15.8-5.8h-.1l-.7-.4-1.3-.7a4 4 0 0 0-1.3-.5Zm43.7-28v-.6h-.1l-.1-.1v-.1h-.2a1 1 0 0 0-.3-.1c-1 .5-1.5 1.3-1.7 2.5l-.4 4.4a25.6 25.6 0 0 0 .3 6.1l.1.1.2.1H120.2l.1-.2.2-.2v-.6l-.1-1.4v-4.6c0-1.6.3-3.2 1-4.7a15.8 15.8 0 0 1 .4-.5v-.1Zm2-24.5v.2l-.1.1v.3l.1.2.2.2 1.5.6a16 16 0 0 1 4 3.5c1.2 1.4 2 3 2.3 4.8a7.7 7.7 0 0 0 .3.1h.1a.8.8 0 0 0 .2 0h.4a37 37 0 0 0 .2-.3c0-1-.2-2-.7-2.8-.7-1.5-1.6-2.8-2.7-4a10 10 0 0 0-5.4-3.2 1.2 1.2 0 0 0-.2.1l-.1.1Zm-22.3-50.7v.3c.2.7.3 1.4.2 2 0 .5-.1.8-.3 1.2-.3.6-.2 1.1.4 1.4h.3l.2-.1c.7-1.2 1-2.5.8-3.8a2 2 0 0 0-.4-1c-.4-.5-.8-.5-1.2 0ZM55 34.2v-.6c.2-.5 0-.8-.3-1-.3-.2-.6-.2-.8.1l-.4.9c-.1 1.1.2 2.2.8 3.1.5.4.9.3 1.1-.3v-.3c-.3-.6-.5-1.2-.4-1.9Zm29.2-5.8-1 .2a7.3 7.3 0 0 0-2.5 1.3 2 2 0 0 0-.4.5l-.2.5c0 .1 0 .3.2.4l1 1.1 1 1 1.3.6c.4.2 1 .3 1.4.3h1a18.5 18.5 0 0 0 2.8-.7l1.2-.7a5 5 0 0 0 .9-1l.2-.3.2-.5c0-.3-.2-.5-.5-.6h-.1a23.8 23.8 0 0 1-1.8-1 6.7 6.7 0 0 0-3-1 3.3 3.3 0 0 0-.4 0l-.4-.1a2.5 2.5 0 0 0-.9 0Zm6.6 3.6Zm0 0ZM88 30.6l.3.1 1.2.7a4 4 0 0 1-.4.4l-1.3.7a23.1 23.1 0 0 1-1.1.2 4.3 4.3 0 0 0-.2-2.7h.2c.4.1.9.3 1.3.6Zm-3.6-.8a70.4 70.4 0 0 1 .3 0 6.6 6.6 0 0 0-.4 1.2v1.3l.2.5-.9-.3-1.1-.8-.7-.8 1.2-.7 1.4-.4Zm-1.5.5ZM72.5 29l-1.2-.4-1.7-.3a6.9 6.9 0 0 0-2.6.3l-1.1.5c-.5.2-1 .5-1.4 1-.2 0-.4.3-.4.5v.7c0 .3.2.5.4.8.3.5.7.8 1.3 1.1.5.3 1 .5 1.6.6a12.7 12.7 0 0 0 3.3.2c.6 0 1.3-.2 1.8-.5a4.6 4.6 0 0 0 2.6-2v-.8a1 1 0 0 0-.3-.3 1.2 1.2 0 0 0-.5-.4 18.1 18.1 0 0 0-1.1-.7 25.2 25.2 0 0 0-.8-.3Zm1.2.6Zm-.3 1.5a21 21 0 0 1 .1.1c-.3.4-.6.7-1 .9a6.2 6.2 0 0 1-2 .5l.1-.2v-2.6l1 .3a7 7 0 0 1 1.8 1ZM68 29.8h.2l-.2 1v1l.1.7c-.4 0-.7-.2-1.1-.3-.6-.1-1-.4-1.4-.8v-.1a4.9 4.9 0 0 1-.2-.3l1-.7 1.6-.5Zm4 .6Zm-.9 18.4c.3.9.9 1.6 1.7 2a7.6 7.6 0 0 0 4.6 1.2h.5c1.5.1 3 0 4.4-.5a9.6 9.6 0 0 0 3.6-2c.4-.5.3-.9-.3-1.2h-.4l-2 1.3c-1.2.7-2.6 1-4 1h-.6c-1.3 0-2.4 0-3.6-.3-1.1-.3-2-1-2.6-1.8-.3-.5-.6-.6-1-.2-.3.1-.3.3-.3.5Zm7-10.4.2-.6c.2-.6 0-.9-.6-1-.1 0-.2 0-.3.2a5 5 0 0 0-1.3 3l.1 1.2c.4 1.5 1.4 2.4 3 2.5.8 0 1.4-.3 2-.7l.4-.5c.3-.6.1-1-.5-1 0-.1-.2 0-.2 0-.7.7-1.6.9-2.5.6l-.2-.2a1 1 0 0 1-.4-.6c-.3-1-.2-2 .2-3ZM92 26c-1-1.3-2-2-3.5-2.5-.4 0-.7-.2-1.1-.3a6.8 6.8 0 0 0-4.2 0 6.1 6.1 0 0 0-3.3 2.6l-.4.5c-.3.5-.3 1 .1 1.4h.6l.2-.1a11.1 11.1 0 0 1 1.4-2c.9-.8 2-1.3 3.2-1.2a11 11 0 0 1 4.2.9l1.6 1.4c.3.4.7.6 1.1.7.2.1.4 0 .5-.1.4-.6.3-1-.4-1.3Zm-18-1.5a6 6 0 0 0-2-1 9.1 9.1 0 0 0-4.2-.4 5 5 0 0 0-2 .9 11.8 11.8 0 0 0-3.3 3.3c-.5.4-.5.9-.2 1.4l.4.2.3-.1a12 12 0 0 0 1.8-2c.7-1.1 1.7-1.8 3-2.2.6-.2 1.4-.3 2.1-.2 1.5.2 2.8.7 3.9 1.8l.4.3c.4.3.8.2 1-.3V26a5 5 0 0 0-1.2-1.4Zm4.4 51a.8.8 0 0 0-.2.1H78l-.2.1v.1l-.1.1v1.5a41.7 41.7 0 0 1 .6 8.5v.1l.1.2a3 3 0 0 1 .2 0v.1h.1a2.7 2.7 0 0 1 .2 0h.1a1.5 1.5 0 0 0 .3 0 3.4 3.4 0 0 0 .2-.2.7.7 0 0 0 0-.2c.1-.4.2-1 .1-1.4A77.4 77.4 0 0 0 79 76l-.1-.2-.2-.1h-.2l-.1-.1ZM45.6 210.9l1.7.6h4.9a28.2 28.2 0 0 1-2.3-.6h-4.3Zm65 .6h3.7l1-.6h-3.2l-1.5.6ZM101.1 14Z"/><path fill="#DE9E71" d="M30.3 79.6a5 5 0 0 0-1.5.5c-2 1-3.8 2.4-5.2 4.2a35 35 0 0 0-3.6 5.2 19.2 19.2 0 0 0-2.4 7.8v.7l.7 6.5v2a58.3 58.3 0 0 1-2.7 9.3 71.2 71.2 0 0 0-2.1 6.8c0 2.2.2 4.3.6 6.5a156.2 156.2 0 0 1 1.5 10v.2h-.1l.3 1.6.4 2.8.1 1a49.6 49.6 0 0 0 1.8 7.5 14.4 14.4 0 0 1 .3 1.7 57.8 57.8 0 0 0 1.4 4.8 24.4 24.4 0 0 0 1.6 3.5c1.2 1 2.5 1.5 4 1.8a374.2 374.2 0 0 0 5.7.8 138.7 138.7 0 0 1 8.4.2 1.2 1.2 0 0 1 .4.2l4 .4a44 44 0 0 0 11.6-.3 86.8 86.8 0 0 0 16.1-3 25.4 25.4 0 0 1 2.3-.4 38.6 38.6 0 0 0 11.9-3.4l5.4-2.1 2.9-1-.2-.2a122.4 122.4 0 0 1-11.7-5.1c-1.9 1.3-4 2.4-6.4 3.3l-4 1.6a86 86 0 0 1-9.3 2.9 2.4 2.4 0 0 1-.3-.2l-.1-.1v-.2a11.5 11.5 0 0 0-.1-.3v-.2a.5.5 0 0 1 .2-.1v-.1h.2a68.7 68.7 0 0 0 12.2-4.3c2.2-.9 4.2-1.8 6.2-3a193 193 0 0 0-4.7-2 34 34 0 0 1-5-2.6c-2-1.2-3.9-2-5.9-2.7a132.8 132.8 0 0 0-10.8-3.1 295.4 295.4 0 0 1-8.9-2.8 17 17 0 0 1-5.4-3.2c-.1 0-.1-.1 0-.2.1-.7.5-.8 1-.5a24.2 24.2 0 0 0 2.6 1.4l.5-1a6.3 6.3 0 0 0 .5-1 32.5 32.5 0 0 0 3.6-13c0-1.2 0-2.2-.2-3.2-.3-2.1-.8-4.1-1.6-6.1A80 80 0 0 1 44 103c-.3-1-.4-2.1-.3-3.2a87.7 87.7 0 0 1 1.7-9.2H46.1a63.8 63.8 0 0 0 .4.2v.1h.1V91.3a59.6 59.6 0 0 0-1 6.1c-.6 1.8-.6 3.6-.2 5.3l.8-4.3c.4-2 .8-4.2 1-6.4l.7-6.5a45.4 45.4 0 0 0 .2-7.3 74 74 0 0 1 0-7.6l-.3.1c-1.3.7-2.5 1.4-3.7 2.3a65.8 65.8 0 0 1-7.3 4.8 19.2 19.2 0 0 0-1 .8 2 2 0 0 1-.4 0l-.3.1H35l-.2.1-.1.1a14.3 14.3 0 0 0-.8.2 37 37 0 0 1-3.6.6Zm.5 4.4H31v.1l.1.1.1.1v.1a63.8 63.8 0 0 1 0 .6c-.9.6-1.7 1.3-2.3 2.2a16.9 16.9 0 0 0-2.4 4.2 37.6 37.6 0 0 0-2.1 7l-.2.1a.8.8 0 0 1-.4 0h-.2l-.1-.2-.1-.1V98c.2-2.4.7-4.8 1.6-7 .9-2.3 2.2-4.3 3.8-6 .5-.6 1.2-1 1.9-1.1Zm6.6 27.6.1-1.5a1.5 1.5 0 0 1 .2-.3 1.9 1.9 0 0 1 .4-.1h.1a1.2 1.2 0 0 1 .4.2h.1v.2h.1v7.1a17 17 0 0 1-2.3 7.6H36.2a.9.9 0 0 1-.3 0h-.1a.4.4 0 0 1-.2 0v-.1a1.4 1.4 0 0 1-.2-.3v-.1c.9-2 1.5-4.1 1.8-6.4.2-2 .3-4.1.2-6.3Zm-14.6 44.8v.1c.2.8.4 1.5.9 2.1a4 4 0 0 0 1.9 1.5 29 29 0 0 0 1 .5h.1v.2l.1.2v.4h-.1l-.1.1-.1.1a5.3 5.3 0 0 1-.3 0v.1H26c-1.2-.2-2-.7-2.8-1.5a7.7 7.7 0 0 1-1.6-2.6l-.1-1v-.2a.7.7 0 0 1 .2-.2h.1v-.1h.6a.4.4 0 0 1 .2 0v.1l.1.1v.1ZM113.2 73l-3-1.9a657.6 657.6 0 0 1 .4 9.5c.3 1.9.5 3.7.5 5.6 0 1 .1 2.2.3 3.2l1.5 6.3a50.9 50.9 0 0 1 1.4 7l.3-.8.3-1.2a26 26 0 0 0-1.3-9.2 15 15 0 0 1-.1-.7 2.1 2.1 0 0 1 .2-.3l.1-.1a.5.5 0 0 1 .2-.1.6.6 0 0 1 .3 0h.2l.1.1a.9.9 0 0 1 .1.1c.7 2.1 1.2 4.3 1.5 6.4.2 1.7.2 3.3 0 4.9a8.8 8.8 0 0 1-1.4 3.3l-.9 1.4a19.3 19.3 0 0 0-1.7 10.7c.3 2.1.7 4.1 1.4 6.1a2.3 2.3 0 0 1 .2.4 1 1 0 0 1 0 .3l.4 1.2a132.7 132.7 0 0 1 6.4-1.8h.2v.1a.5.5 0 0 1 .2 0v.1l.1.1a3.2 3.2 0 0 1 .1.2v.4a.8.8 0 0 1 0 .3h-.2v.1h-.1a1 1 0 0 1-.3.1c-2 .6-4.1 1.2-6 2a62.8 62.8 0 0 1-15.7 3.2c-2.2.1-4.3 0-6.5-.6a124.2 124.2 0 0 0-12.8-2.3 321.4 321.4 0 0 0-8.5-1.2 73 73 0 0 0-6.7-.3c-1 0-2.2-.2-3.2-.5a18.4 18.4 0 0 0-11.7.6l-.6.4a3 3 0 0 1-.6.4 37.7 37.7 0 0 1-3.3 7.9 23 23 0 0 0 1.5.6 234.8 234.8 0 0 0 14 4.2 81 81 0 0 1 7 2.2c1.5.6 3 1.4 4.5 2.3 1.5 1 3 1.8 4.7 2.4a181.7 181.7 0 0 1 11.9 5.4 127 127 0 0 0 16.2 5.8c1.2.2 2.5.4 3.7.4a126 126 0 0 0 10.9-.5l5.9-1.2c1.3-.3 2.6-.4 4-.2l4 .5a6 6 0 0 0 2-.2c.6 0 1.1-.2 1.6-.3v-.1h.2c1.6-1.8 2.8-3.7 3.7-5.8a66 66 0 0 0 4.6-28.4 26 26 0 0 0-3.4-10.3c-1-2-1.8-4-2-6.1l-.2-1.6a12 12 0 0 1-.3-2.8V99l-.1-.5a38.9 38.9 0 0 0-1-5.6 60 60 0 0 0-2.2-6.2c-.9-2-2.2-3.7-3.9-5.1a11.7 11.7 0 0 0-5.8-2.5c-2.2-.4-4.3-1-6.2-2.2a45 45 0 0 0-4.3-2.3c-1-.4-1.9-1-2.8-1.5Zm10.6 10 .2-.1a4.7 4.7 0 0 1 .2-.2c2.1.5 4 1.6 5.4 3.2 1.1 1.2 2 2.6 2.7 4 .5.9.7 1.8.7 2.8l-.1.1-.1.1-.1.1h-.2a.6.6 0 0 1-.3 0h-.2l-.2-.1a11 11 0 0 0-2.2-4.8 16 16 0 0 0-4.1-3.5L124 84l-.2-.2v-.2l-.1-.2V83Zm-2 24.4V107.7a8.7 8.7 0 0 0-.3.3h-.2c-.6 1.6-.9 3.2-1 4.8a108.8 108.8 0 0 0 .2 6.2v.2a1.2 1.2 0 0 1-.1.3v.1l-.2.1h-.2l-.1.1h-.5l-.1-.2c-.4-2-.5-4-.3-6.1 0-1.5.2-3 .4-4.4.2-1.2.7-2 1.7-2.5a2.5 2.5 0 0 1 .3 0l.1.1.2.1v.2l.1.2v.2ZM78 135.5h.2l1.3.5a19.5 19.5 0 0 0 2 1h.1a136.5 136.5 0 0 0 24.1 8.6c.3 0 .5.2.6.4a3.3 3.3 0 0 0 .1.1V146.4a.8.8 0 0 1 0 .3v.1h-.1v.1a.7.7 0 0 1-.2.1h-.2a.6.6 0 0 1-.2 0h-.1c-2.7-1-5.3-2-8-2.6a94.5 94.5 0 0 1-19.8-7.6h-.1v-.2a.7.7 0 0 1-.1-.1v-.1l-.1-.1a.6.6 0 0 1 0-.3.4.4 0 0 1 .1-.1v-.1h.1v-.1a.6.6 0 0 1 .3-.2Zm58.8 12.6h.1a1 1 0 0 1 .4.2.9.9 0 0 1 .1.2l.1.1c.1 1.1-.1 2-.7 3-.5.8-1.2 1.4-2.1 1.9l-.7.2h-.2a1.6 1.6 0 0 1-.2 0v-.1a3.7 3.7 0 0 0-.2-.1v-.2h-.1v-.2a1.7 1.7 0 0 1 0-.4l.1-.1 2-1.5c.5-.6.8-1.3.7-2.1v-.5l.2-.1.1-.1a2.3 2.3 0 0 1 .4-.2Zm-34.7-119-1 .5a7.3 7.3 0 0 0-1.3 1l-.1 2.6a32.2 32.2 0 0 1-.5 5.4v.4l.1.2a2.2 2.2 0 0 0 .2.4l.6.4c.2.2.4.3.7.3h.2c1.3.1 2.2-.4 2.7-1.5a10.3 10.3 0 0 0 1-5.4 6 6 0 0 0-2.2-4.1 1.7 1.7 0 0 0-.4-.1Zm-.6 3.5v-.3c.4-.5.8-.5 1.2 0l.4 1c.2 1.3 0 2.6-.8 3.8l-.2.1h-.3c-.6-.3-.7-.8-.4-1.4.2-.4.3-.7.3-1.1 0-.7 0-1.4-.2-2Zm-45.6-3-1-.1a2.8 2.8 0 0 0-1.3.2 4.8 4.8 0 0 0-1.2 4c.1 1.3.4 2.5.8 3.7a3.8 3.8 0 0 0 1.7 2.1c.8.5 1.6.5 2.3 0a315.2 315.2 0 0 0-.7-4.5 25.2 25.2 0 0 1-.4-5.2l-.2-.1Zm-.8 4-.1.6c0 .7 0 1.3.4 2v.2c-.2.6-.6.7-1.1.3-.6-1-.9-2-.8-3.1 0-.3.2-.6.4-.9.2-.3.5-.3.8-.1.4.2.5.5.4 1ZM98 24.9v-.7a43.5 43.5 0 0 1-2.3-3c-1.2-.9-2-2-2.8-3.2a5 5 0 0 0-2.5-2.3c-.4-.2-.8-.2-1.3-.2-1.4.2-2.8 0-4.1-.3-1.3-.4-2.6-.6-4-.7l-2-.3a14.5 14.5 0 0 0-2.8-.4 107.5 107.5 0 0 1-5.6.6 23.6 23.6 0 0 0-6.2.4h-.8c-.8.5-1.4 1.2-1.7 2.2a32.7 32.7 0 0 1-1.3 3.2 29 29 0 0 1-1 2.4 22.8 22.8 0 0 0-1.2 2.6 10 10 0 0 0-.9 4.3 63.9 63.9 0 0 0 .4 5.4 108.7 108.7 0 0 1 1.4 9.8c.2 1.3.6 2.6 1 4a79 79 0 0 1 1.3 3.4c.7 1.2 1.5 2.3 2.3 3.3.7.8 1.4 1.5 2.2 2 .6.5 1.2.8 1.9 1a18 18 0 0 0 3.4.7c.8 0 1.5.3 2.2.5a24.4 24.4 0 0 0 2.8.8 9.8 9.8 0 0 0 8.6-2.5c1.2-.8 2.4-1.4 3.7-1.8 1.4-.5 2.8-1.2 4-2.1.5-.4 1-1 1.3-1.6l1.5-3.8c.6-1.2 1-2.4 1.4-3.8A40.9 40.9 0 0 0 98 36c.3-1.4.4-2.9.4-4.3a118.4 118.4 0 0 1-.2-6c-.2-.1-.3-.4-.2-.8Zm-26-1.5a6 6 0 0 1 2 1.1c.5.4 1 .9 1.2 1.4v.3c-.2.5-.6.6-1 .3-.2 0-.3-.2-.4-.3a6.2 6.2 0 0 0-6-1.6c-1.3.4-2.3 1.1-3 2.2a12 12 0 0 1-1.8 2h-.3l-.4-.1c-.3-.5-.3-1 .2-1.4l.3-.3c.8-1.2 1.8-2.2 3-3a5 5 0 0 1 2-.8c1.4-.3 2.8-.2 4.2.2ZM92 26c.7.3.8.7.4 1.3l-.5.2a2 2 0 0 1-1.1-.8l-1.6-1.4-.6-.3-.4-.1a11 11 0 0 0-3.2-.5 4.3 4.3 0 0 0-3.5 1.6c-.4.5-.8 1-1 1.6l-.3.2h-.6c-.4-.5-.4-1 0-1.5 0-.2.1-.3.3-.5.8-1.2 1.9-2.1 3.3-2.6 1.4-.4 2.8-.4 4.2 0l1 .3c1.5.4 2.7 1.2 3.5 2.5ZM78.3 37.8l-.3.6c-.4 1-.5 2-.2 3 0 .2.2.3.4.5l.2.2c1 .3 1.8.1 2.5-.6 0 0 .1-.1.2 0 .6 0 .8.4.5 1l-.4.5c-.6.4-1.2.6-2 .7-1.6-.1-2.6-1-3-2.5V40a5 5 0 0 1 1.2-3.1l.3-.2c.6.1.8.4.6 1Zm-5.5 13a3.7 3.7 0 0 1-1.7-2c0-.2 0-.4.2-.5.5-.4.8-.3 1.1.2.6.9 1.5 1.5 2.6 1.8 1.2.3 2.3.4 3.6.3h.6c1.4 0 2.8-.3 4-1a53.6 53.6 0 0 0 2.4-1.3c.6.3.7.7.3 1.2l-.2.1c-1 .9-2.1 1.5-3.4 1.9a11.4 11.4 0 0 1-5 .5H77c-1.5 0-2.8-.4-4.1-1.1Zm-1.6-22.2a25.4 25.4 0 0 1 2.8 1.2 18.1 18.1 0 0 1 1 .9v.8a4.8 4.8 0 0 1-2.6 2c-.5.3-1.2.4-1.8.5h-1.6l-1.7-.2c-.6-.1-1.1-.3-1.6-.6a3.5 3.5 0 0 1-1.7-2v-.6c0-.2.2-.4.4-.6l1.4-1a12.3 12.3 0 0 1 2-.6h1.7c.5 0 1.1 0 1.7.2Zm13-.2h.8a14.1 14.1 0 0 1 2.4.4l1.3.6a23.8 23.8 0 0 0 2 1.1c.3.1.4.3.5.6 0 .2 0 .3-.2.5l-.2.3a5 5 0 0 1-1 1l-1 .7-1.5.4a7.8 7.8 0 0 1-2.4.3 4 4 0 0 1-1.4-.3 6.8 6.8 0 0 1-2.4-1.6l-.9-1a.7.7 0 0 1-.2-.5c0-.2 0-.3.2-.5l.4-.5a8.7 8.7 0 0 1 2.5-1.3l1-.2Zm15.5 38a110.7 110.7 0 0 1-5.3-2.6.9.9 0 0 1-.2.3.5.5 0 0 1-.2 0 .6.6 0 0 1-.3 0h-.2l-.2-.2c-.3-1.2-.5-2.5-.5-3.9a96.4 96.4 0 0 0-.2-4.3c-.8.5-1.6 1-2.5 1.3a51.4 51.4 0 0 0-3.5 1.6 114.9 114.9 0 0 0-4.6 2.7 11.2 11.2 0 0 1-6.9.3 33.6 33.6 0 0 1-4.2-1.2l-3-.5a6.6 6.6 0 0 1-2.8-1.3l-1.8-1.7a37.3 37.3 0 0 1-.3 5.9 4.9 4.9 0 0 1-.2 1h-.1l-.2.1a1 1 0 0 1-.2.1h-.5v-.1a.6.6 0 0 1-.2-.1v-.1l-3.7 2a88.8 88.8 0 0 0 1.3 11 31.6 31.6 0 0 0 5 11.8c.8 1.2 1.8 2.3 3 3.2 1.7 1.3 3.5 2.2 5.4 3 2.2.7 4.4.9 6.6.5 2.2-.3 4.3-.9 6.3-1.6 2-.7 3.8-1.7 5.5-3 1-.7 1.8-1.6 2.4-2.6l1.8-2.5c1.3-1.7 2.3-3.6 3-5.6a28.4 28.4 0 0 0 1.2-8.7c0-1.6.1-3.3.3-4.9Zm-21.5 9.2H78.6l.1.1h.1v.1l.2.1v.1l.6 4a77.4 77.4 0 0 1 0 6.2h-.2l-.1.1H79a.6.6 0 0 1-.2 0h-.2a1.3 1.3 0 0 1-.2-.1 2.9 2.9 0 0 1-.1-.2v-.2l-.1-.1a66.1 66.1 0 0 0-.5-9.8l.1-.2H78.2v-.1Zm34.6 50a34 34 0 0 1-.5-1.2 100.8 100.8 0 0 1-2.5 0h-.2l-.7.1a8.3 8.3 0 0 0-3.8 2.3l-1.3 1.3 1-.2a51 51 0 0 0 8-2.2Z"/><path fill="#87441D" d="M98.6 11.5a19.5 19.5 0 0 0-3.1-3.3A16.5 16.5 0 0 0 88.3 5L84 4.4c-1.5 0-2.9 0-4.3.2A69.3 69.3 0 0 1 72 5H70a52 52 0 0 0-4 .2l-4.4 1a5.2 5.2 0 0 0-3.2 2.3L56 12.4c-.7 1.4-1.2 2.8-1.5 4.3a12 12 0 0 0-.1 4c0 .9.2 1.8.4 2.7.1.8.4 1.5.7 2.3l.8 1.6a12.4 12.4 0 0 1 .9-2.7 156.5 156.5 0 0 1 3.4-8.2 4.6 4.6 0 0 1 2.6-2.8l.6-.2A114.2 114.2 0 0 1 69 13a28.5 28.5 0 0 0 5-.2 8 8 0 0 1 3.4-.2h.5l4.4.8 4.2.7c.5.2 1 .2 1.6.2h2.4c.7.2 1.3.5 1.8 1 1 .8 1.8 1.8 2.4 3l.5.6a30.3 30.3 0 0 0 2.6 2.6l.5 1 .7 1 .2-.2.5 2.3 1-3c.3-1 .4-2.1.3-3.2l-.1-.4a8.4 8.4 0 0 1-.6-2.6 60.5 60.5 0 0 0-1.7-4.8Z"/><path fill="#fff" d="M84.4 29.8c-.5 0-1 .2-1.4.4l-1.2.7.7.8 1.1.8c.3.1.6.3 1 .3l-.2-.5a3 3 0 0 1 0-1.3 40.6 40.6 0 0 0 .1-1.2h-.1Zm-1.6.5Zm5.5.4-.3-.1a4 4 0 0 0-1.5-.6c.2.4.3.8.3 1.3a4.3 4.3 0 0 1-.1 1.5l1.1-.3 1.3-.7.4-.4-1.2-.7Zm-20-1a6 6 0 0 0-1.9.6 4.4 4.4 0 0 0-1 .7h.1a4.9 4.9 0 0 0 .2.4c.4.4.8.7 1.4.8l1.1.3a11 11 0 0 1-.1-1.7c0-.3 0-.7.2-1Zm5 1.4a7 7 0 0 0-2.8-1.3l.2.9a8.3 8.3 0 0 1-.1 1.9l.7-.1 1.1-.4c.5-.2.8-.5 1.1-.9l-.1-.1Zm-1.2-.7Z"/><path fill="#09F" d="m103 67.8-2-.8a38.5 38.5 0 0 1-.4 8.5c-.1 1.2-.3 2.3-.6 3.4-.4 2.2-1.3 4.2-2.6 6l-3.7 5c-1.3 1.7-2.9 3-4.7 4a40.2 40.2 0 0 1-11.9 3c-2.2 0-4.3-.6-6.3-1.5a26 26 0 0 1-3.6-2 14.5 14.5 0 0 1-4.4-4.7 70.5 70.5 0 0 1-4.2-8.9l-1-4a150.4 150.4 0 0 1-.9-9.4L53.8 68l-4.4 2a136 136 0 0 1-3 35.3l2 5c.6 1.8 1 3.7 1.2 5.6a21.2 21.2 0 0 1-.8 8.8c1.3-.6 2.6-1 4-1.2a29.4 29.4 0 0 1 8.6.3c1.3.3 2.6.5 4 .5 2 0 3.9 0 5.8.3l6.6.8a83 83 0 0 1 12.1 2.2 67.3 67.3 0 0 0 8.8 1.1 34.2 34.2 0 0 0 3.2-.3c1-1.3 2-2.4 3.3-3.4a9.3 9.3 0 0 1 6.8-2 41.5 41.5 0 0 1-1.3-9.3l.1-1.7a19.1 19.1 0 0 1 2.4-7l-.4-1.9-.2-2v-.6.2L111 94a58.9 58.9 0 0 1-1.6-11.2 40.4 40.4 0 0 0-.5-5.6c0-1.3 0-2.5-.2-3.8l.1-3-1.3-.7-4.5-2Zm-60 99-2.9-.2c.1 1.8 0 3.5-.1 5.3a12.7 12.7 0 0 0 .1 3.6c.2 2.1 0 4.3-.5 6.4a69.1 69.1 0 0 0-1.9 9.6 401.5 401.5 0 0 1-2.4 11.2 24 24 0 0 0 7.5 5.5h.1l1 .5 6 2.1h62.5c2-1 3.9-2 5.6-3.3a296.7 296.7 0 0 1 3.8-3l2.5-2a54.2 54.2 0 0 1-.6-1.5 51.6 51.6 0 0 1-3.4-16.5 78.4 78.4 0 0 1-1-4.5 48.6 48.6 0 0 1-1.2-15.4 48 48 0 0 1-.4-5.6v-.2h-.4a2706.7 2706.7 0 0 0-8 .3c-2.3 0-4.4-.3-6.6-.7a26 26 0 0 1-6.8-2.3c-1.8.8-3.6 1.6-5.5 2.1l-3 1.1a66.7 66.7 0 0 1-12.2 3.8l-2.3.4h-.7l-7.4 1.9c-2.2.6-4.5 1-6.8 1.1a60.2 60.2 0 0 0-6.2.6h-2.3c-2.2.1-4.4 0-6.5-.2Z"/><path fill="#CCC" d="m34.9 204.3-.2.5c-.6 2-1.4 4-2.4 6h13.3a69 69 0 0 1-3.4-1.3 35.6 35.6 0 0 1-4.4-2.6c-1-.7-2-1.6-3-2.6Zm90-.6-.7.7-1 .8c-.8.8-1.8 1.6-2.8 2.2a55.4 55.4 0 0 0-5 3.4h13.8c-.4-.3-.8-.8-1-1.4a34 34 0 0 1-3.2-5.7Z"/><path stroke="#000" stroke-linecap="round" stroke-linejoin="round" d="M115.4 210.8h13.8m-79.3 0h62.2m-79.8 0h17.6m62.2 0h3.3m13.8 0h1m-99.1 0h1.2"/><path fill="#000" d="M197.2 38.3c-.5 0-1-.1-1.2-.5-.4-.3-.6-.7-.6-1.2a91.5 91.5 0 0 1 .3-7.6 208.6 208.6 0 0 0-.1-8.5c0-.4.2-.9.6-1.3.5-.5 1-.7 1.5-.7.3 0 1 .2 2 .7l2.4 1.1c2.5.8 4.6 2 6.4 3.7a9 9 0 0 1 3.1 6.7c0 1.5-.4 2.8-1 4.2a8.6 8.6 0 0 1-3 3.2c-1.4 1-3.4 1.4-6 1.4a10 10 0 0 1-4.4-1.2Zm7.1-13c-.8-.5-2.5-1.3-5.2-2.4v12.5l1 .5 1.5.2c1.9 0 3.2-.3 4-.8.7-.5 1.3-1.1 1.8-2 .4-.8.6-1.7.6-2.6 0-2-1.2-3.9-3.7-5.4Zm13.3 11c0 1.7-.6 2.5-1.8 2.5-.5 0-.9-.2-1.2-.5-.3-.3-.5-.8-.5-1.3V19.5c0-.5.2-1 .5-1.2.4-.3.8-.5 1.3-.5s.9.2 1.2.5c.3.3.5.7.5 1.2v16.8Zm14.2 2.8c-.4 0-1-.5-1.9-1.3l-2 .8a5 5 0 0 1-1.5.3c-2 0-3.6-.5-4.6-1.6-1-1.1-1.6-2.7-1.6-5a7 7 0 0 1 2.3-5.2 7.5 7.5 0 0 1 5.4-2.1c.8 0 1.7.2 2.8.6 1.3.6 2 1.2 2 2 0 .3-.2.5-.4.8l-.2 1.2a22 22 0 0 0 .3 5.3 39.3 39.3 0 0 0 1 2.6c0 .4 0 .8-.4 1.1-.4.3-.8.5-1.2.5Zm-3.2-8.8a9.6 9.6 0 0 1 .3-2 2.3 2.3 0 0 0-.8-.3 4 4 0 0 0-3 1.4c-1 .9-1.3 1.9-1.3 3 0 1.2.2 2 .6 2.6.4.6 1 .9 1.8.9a4.3 4.3 0 0 0 2.8-1l-.4-4.6Zm12.5 8.7a7 7 0 0 1-4.7-1.6 5.5 5.5 0 0 1-2-4.4c0-1.7.6-3.4 1.8-5.2 1.4-2 3-3 4.7-3 1 0 2 .2 3.1.6 1.5.6 2.2 1.3 2.2 2 0 .5-.2.8-.5 1.2-.3.3-.7.5-1.1.5-.4 0-.8-.2-1.4-.6-.5-.4-1.2-.6-2.3-.6-.6 0-1.3.6-2 2-.8 1.1-1.2 2.2-1.2 3.1 0 .9.4 1.6 1 2.1s1.4.7 2.4.7c.6 0 1.3-.2 2-.6 1-.5 1.4-.7 1.7-.7.4 0 .8.2 1.1.5.4.4.5.7.5 1.2 0 .6-.7 1.3-2.1 2-1.3.5-2.4.8-3.2.8Zm18.4-10.5-2.6 3.3-2.6 3.5a40.5 40.5 0 0 1 2.8.2 9 9 0 0 0 1.4.2c.5 0 1 .1 1.3.5.3.3.5.7.5 1.2 0 .4-.2.8-.5 1.1-.3.4-.8.5-1.3.5a9 9 0 0 1-1.5-.2l-1.4-.1a28.5 28.5 0 0 0-5.9.5c-.5 0-.9-.1-1.2-.4-.4-.3-.5-.6-.5-1 0-.6.2-1.1.8-1.6a38 38 0 0 0 6.6-7.8 31.3 31.3 0 0 1-5.5-.3c-1-.1-1.5-.6-1.5-1.6 0-.5.1-.9.4-1.2.4-.3.8-.5 1.3-.5l1.9.1a21 21 0 0 0 4.4 0h2.6c1.1 0 1.6.4 1.6 1.3 0 .7-.3 1.5-1 2.3Zm9.5 10.3a8 8 0 0 1-5-1.4 5.3 5.3 0 0 1-2-4.6c0-2.1.5-4 1.6-5.4a6 6 0 0 1 5-2.5c1.5 0 2.8.3 3.7.8 1.3.6 2 1.6 2 2.9 0 1-.6 1.7-1.6 2.5-.5.3-1.4.8-2.9 1.4l-4.2 1.9c.4.4.9.8 1.4 1 .6.2 1.3.3 2 .3 1.1 0 2.1-.2 2.9-.7.7-.4 1.3-.6 1.7-.6.9 0 1.3.4 1.3 1.3 0 1-.7 1.7-2.1 2.3-1.2.5-2.5.8-3.8.8Zm-.3-10.8c-.8 0-1.5.3-2 .8-.6.5-1 1.3-1.4 2.4a709.2 709.2 0 0 1 5.6-2.7c-.6-.3-1.3-.5-2.2-.5Zm20.2 2.6c-.3 2-.5 4.1-.6 6.3 0 2.8-.5 4.8-1.4 6-1 1.6-3 2.5-5.9 2.5-3.3 0-4.9-.7-4.9-2 0-.4.1-.8.4-1.1.3-.3.7-.4 1.2-.4.4 0 1 0 1.7.2l1.8.2c1.3 0 2.2-.4 2.8-1.2.6-.7 1-2 1-3.6a4.3 4.3 0 0 1-3.2 1.4 5.5 5.5 0 0 1-5.7-5.9c0-2.3.7-4.2 2.1-5.6a8 8 0 0 1 6-2.2c.7 0 1.4.1 2 .3.6.2 1 .5 1.4.9 1 .1 1.6.8 1.6 1.9 0 .6 0 1.3-.3 2.3Zm-4.9-2.5c-1.4 0-2.5.5-3.3 1.4-.7.9-1.1 2-1.1 3.3 0 1 .2 1.8.6 2.3.4.5 1 .8 1.7.8s1.4-.4 2-1.2c.7-.8 1.1-1.5 1.2-2.3l.6-3.8a4 4 0 0 0-.9-.4h-.8ZM296.2 39c-1.6 0-2.9-.6-4-1.6a6.5 6.5 0 0 1-2-4.8c0-1.8.5-3.5 1.6-5 1.3-1.7 3-2.6 5.3-2.6 1.7 0 3 .7 4 2a7.4 7.4 0 0 1 1.4 4.6 8 8 0 0 1-1.6 5 5.6 5.6 0 0 1-4.7 2.4Zm.8-10.6c-1 0-1.9.5-2.5 1.4-.5.8-.8 1.8-.8 2.8 0 1 .3 1.8 1 2.4.4.4.9.6 1.5.6.7 0 1.4-.2 2-.7.5-.6.9-1.4 1-2.4 0-2.7-.7-4-2.2-4.1ZM208.5 63c1.3-1.5 2.5-2.2 3.7-2.2 1.3 0 2.2.5 2.8 1.4a5.3 5.3 0 0 1 3.8-1.3c1.6 0 2.8.8 3.4 2.4l.5 3.5 1 6.8c0 .5-.2 1-.6 1.2-.3.4-.8.5-1.3.5-1 0-1.5-.5-1.7-1.4a55.3 55.3 0 0 1-.9-7.4c-.2-1.6-.5-2.3-.8-2.3l-1.4.6-1.5 1 .3 4.1c.3 1.9.4 3.3.4 4.2 0 .5-.2.9-.5 1.2-.3.3-.7.5-1.2.5-.6 0-1-.2-1.3-.5-.3-.3-.5-.7-.5-1.2l-.3-4.3a43.3 43.3 0 0 1-.5-5.5 10.4 10.4 0 0 0-3.1 3 214.8 214.8 0 0 0-.1 6c0 .4-.2.8-.6 1a2 2 0 0 1-1.3.4c-.7 0-1.2-.3-1.4-1-.2-.4-.3-1-.3-2V67a48 48 0 0 0 0-3.7c0-.7 0-1.4.3-2 .4-.8.8-1.2 1.4-1.2.5 0 1 .2 1.3.6.4.3.5.7.5 1.2v1Zm22.2 12c-1.6 0-3-.6-4-1.6a6.5 6.5 0 0 1-2-4.8c0-1.8.5-3.5 1.5-5 1.3-1.7 3.1-2.6 5.4-2.6 1.7 0 3 .7 4 2a7.4 7.4 0 0 1 1.4 4.6c0 2-.5 3.7-1.6 5a5.6 5.6 0 0 1-4.7 2.4Zm.8-10.6c-1 0-2 .5-2.5 1.4-.5.8-.8 1.8-.8 2.8 0 1 .3 1.8.9 2.4.4.4 1 .6 1.6.6.7 0 1.4-.2 2-.7.5-.6.9-1.4.9-2.4.1-2.7-.6-4-2.2-4.1Zm18.6.1c-.8.8-1.6 2-2.6 3.3l-2.7 3.5a40.6 40.6 0 0 1 2.8.2 9 9 0 0 0 1.4.2c.6 0 1 .1 1.3.5.3.3.5.7.5 1.2 0 .4-.2.8-.5 1.1-.3.4-.7.5-1.3.5a9 9 0 0 1-1.4-.2l-1.5-.1a28.6 28.6 0 0 0-5.9.5c-.4 0-.8-.1-1.2-.4-.3-.3-.5-.6-.5-1 0-.6.2-1.1.8-1.6a38 38 0 0 0 6.6-7.8 31.3 31.3 0 0 1-5.5-.3c-1-.1-1.5-.6-1.5-1.6 0-.5.1-.9.5-1.2.3-.3.7-.5 1.2-.5l1.9.1a21 21 0 0 0 4.5 0h2.6c1 0 1.5.4 1.5 1.3 0 .7-.3 1.5-1 2.3Zm-4.1-4.8c-.4 0-.8-.2-1.4-.6-.5-.5-.8-1-.8-1.5s.2-1 .7-1.3a2 2 0 0 1 1.2-.4c.3 0 .8.2 1.3.6.6.5.9 1 .9 1.4 0 .6-.3 1-.7 1.4a2 2 0 0 1-1.2.4Zm13.5 15.1a8 8 0 0 1-5-1.4 5.3 5.3 0 0 1-2-4.6c0-2.1.5-4 1.6-5.4a6 6 0 0 1 5-2.5c1.6 0 2.8.3 3.8.8 1.2.6 1.9 1.6 1.9 2.9 0 1-.5 1.7-1.6 2.5l-2.8 1.4-4.3 1.9c.4.4.9.8 1.5 1 .5.2 1.2.3 2 .3 1 0 2-.2 2.8-.7.7-.4 1.3-.6 1.7-.6.9 0 1.3.4 1.3 1.3 0 1-.7 1.7-2.1 2.3-1.2.5-2.4.8-3.8.8Zm-.3-10.8c-.8 0-1.5.3-2 .8-.6.5-1 1.3-1.4 2.4a777 777 0 0 1 5.6-2.7c-.6-.3-1.3-.5-2.2-.5Zm17.4 1c-.8 0-1.3-.4-1.5-1.1a6 6 0 0 0-1-.1c-2 0-3 .3-3 .8 0 .3.5.8 1.8 1.4 1.6.7 2.8 1.3 3.4 1.8 1.2.8 1.8 1.8 1.8 3 0 1.4-.7 2.5-2 3.3-1.1.6-2.5.9-4 .9-1.2 0-2.2-.2-3.1-.5-1.3-.5-2-1.2-2-2.1 0-.9.6-1.3 1.6-1.3.3 0 1 .1 1.6.4l1.7.3c1.8 0 2.6-.3 2.6-1 0-.4-.6-1-1.8-1.4l-3.3-1.7c-1.2-.8-1.8-1.9-1.8-3 0-1.8 1-3 2.7-3.5 1-.4 2.7-.5 4.8-.5.9 0 1.5 0 2 .3s.8.8.8 1.6c0 1.6-.5 2.3-1.3 2.3Zm14.7-.5-2.6 3.3c-1.4 2-2.3 3-2.7 3.5a40.6 40.6 0 0 1 2.8.2 9 9 0 0 0 1.5.2c.5 0 .9.1 1.2.5.4.3.5.7.5 1.2 0 .4-.1.8-.5 1.1-.3.4-.7.5-1.2.5a9 9 0 0 1-1.5-.2l-1.5-.1a28.6 28.6 0 0 0-5.9.5c-.4 0-.8-.1-1.2-.4-.3-.3-.5-.6-.5-1 0-.6.2-1.1.8-1.6a38 38 0 0 0 6.6-7.8 31.3 31.3 0 0 1-5.5-.3c-1-.1-1.5-.6-1.5-1.6 0-.5.1-.9.5-1.2.3-.3.7-.5 1.2-.5l1.9.1a21 21 0 0 0 4.5 0h2.6c1 0 1.6.4 1.6 1.3 0 .7-.4 1.5-1.1 2.3Zm-72 36c-.8.8-1.7 2-2.7 3.3l-2.6 3.5a40 40 0 0 1 2.7.2 9 9 0 0 0 1.5.2c.5 0 1 .1 1.3.5.3.3.5.7.5 1.2 0 .4-.2.8-.5 1.1-.4.4-.8.5-1.3.5-.3 0-.8 0-1.5-.2l-1.4-.1a28.5 28.5 0 0 0-6 .5c-.4 0-.8-.1-1.1-.4-.4-.3-.6-.6-.6-1 0-.6.3-1.1.8-1.6a38 38 0 0 0 6.6-7.8 31.8 31.8 0 0 1-5.4-.3c-1-.1-1.6-.6-1.6-1.6 0-.5.2-.9.5-1.2.3-.3.7-.5 1.2-.5l2 .1a21 21 0 0 0 4.4 0h2.6c1 0 1.6.4 1.6 1.3 0 .7-.4 1.5-1 2.3Zm14 10.6c-.4 0-1-.5-2-1.3-.7.4-1.4.6-2 .8a5 5 0 0 1-1.5.3c-2 0-3.6-.5-4.6-1.6-1-1.1-1.5-2.8-1.5-5a7 7 0 0 1 2.3-5.2 7.5 7.5 0 0 1 5.4-2.1c.8 0 1.7.2 2.8.6 1.2.6 1.9 1.2 1.9 2 0 .3-.1.5-.3.8l-.2 1.2a22 22 0 0 0 .3 5.3 39.4 39.4 0 0 0 1 2.6c0 .4-.1.8-.5 1.1-.3.3-.7.5-1.2.5Zm-3.2-8.8a9.6 9.6 0 0 1 .2-2 2.2 2.2 0 0 0-.8-.3 4 4 0 0 0-3 1.4c-.9.9-1.3 1.9-1.3 3 0 1.2.2 2 .6 2.6.4.6 1 .9 1.9.9a4.3 4.3 0 0 0 2.8-1c-.3-2-.4-3.6-.4-4.6Zm17.8.6a401.1 401.1 0 0 0 0 6.7c0 .5-.1.9-.5 1.2-.3.3-.7.4-1.2.4-.7 0-1.2-.3-1.5-1-1.1.5-2.3.7-3.4.7-1.2 0-2.2-.3-3-.8-1-.6-1.5-1.4-1.7-2.5-.3-2.2-.5-4-.5-5.7 0-1.1.1-2.4.4-3.8.2-1 .7-1.4 1.7-1.4.5 0 1 .1 1.3.5.3.3.5.6.5 1.1 0 .4 0 1-.2 1.8l-.2 1.8a37.2 37.2 0 0 0 .5 5.3l.6.2.6.1c1 0 2-.1 3-.4a235.3 235.3 0 0 0 0-4.3c0-1.8.1-3.3.3-4.5.1-1 .7-1.5 1.7-1.5.5 0 1 .1 1.3.4.4.3.5.7.5 1.2l-.2 4.5Zm8.4-5.7 2.4-.2c1.6 0 2.4.6 2.4 1.6 0 1.2-.8 1.7-2.5 1.6-.6 0-1.4 0-2.4.2a71 71 0 0 0 0 6.8c0 1.6-.1 2.8-.3 3.7-.2.9-.8 1.3-1.7 1.3-.5 0-.9-.1-1.2-.4-.4-.3-.6-.7-.6-1.2v-.3c.3-1.2.4-2.3.4-3.4v-6.3h-.9a6 6 0 0 1-.7.1c-.5 0-1-.1-1.3-.4-.3-.3-.5-.7-.5-1.2 0-.8.4-1.3 1.3-1.6.3-.1 1-.2 2.2-.2l.1-1.4a8 8 0 0 1 1.6-4.3c1-1.1 2.5-1.7 4.5-1.7 1.5 0 2.3.6 2.3 1.7 0 1-.7 1.6-2.1 1.6-1 0-1.8.4-2.3 1.1-.3.5-.5 1.4-.7 2.5v.4Zm18.1 13.9c-.3 0-1-.5-1.8-1.3l-2 .8a5 5 0 0 1-1.6.3c-2 0-3.5-.5-4.6-1.6-1-1.1-1.5-2.8-1.5-5a7 7 0 0 1 2.3-5.2 7.5 7.5 0 0 1 5.4-2.1c.8 0 1.7.2 2.8.6 1.2.6 1.9 1.2 1.9 2 0 .3-.1.5-.3.8l-.2 1.2a22 22 0 0 0 .3 5.3 39.4 39.4 0 0 0 1 2.6c0 .4-.1.8-.5 1.1-.3.3-.7.5-1.2.5Zm-3.1-8.8a9.6 9.6 0 0 1 .2-2 2.2 2.2 0 0 0-.8-.3 4 4 0 0 0-3 1.4c-.8.9-1.3 1.9-1.3 3 0 1.2.2 2 .6 2.6.4.6 1 .9 1.9.9a4.3 4.3 0 0 0 2.8-1c-.3-2-.4-3.6-.4-4.6Zm12.5 8.7a7 7 0 0 1-4.7-1.6 5.5 5.5 0 0 1-2-4.4c0-1.7.6-3.4 1.8-5.2 1.3-2 3-3 4.7-3 .9 0 2 .2 3.1.6 1.4.6 2.1 1.3 2.1 2 0 .5-.1.8-.4 1.2-.3.3-.7.5-1.2.5-.3 0-.8-.2-1.3-.6-.5-.4-1.3-.6-2.3-.6-.6 0-1.3.6-2.1 2-.7 1.1-1.1 2.2-1.1 3.1 0 .9.3 1.6 1 2.1.6.5 1.4.7 2.4.7.5 0 1.2-.2 2-.6l1.6-.7c.5 0 .9.2 1.2.5.3.4.5.7.5 1.2 0 .6-.7 1.3-2.2 2-1.3.5-2.3.8-3.1.8Zm3.8-19.4c-.5.3-1 .9-1.7 1.6l-1.6 1.6a1.8 1.8 0 0 1-2.3 0c-.3-.4-.5-.7-.5-1 0-.4.2-.7.5-1.1a96.8 96.8 0 0 0 2.6-2.6c.7-.7 1.4-1 2-1 .5 0 .8.1 1.2.4.3.3.5.7.5 1 0 .5-.3.8-.7 1.1ZM228.5 136a17.5 17.5 0 0 1-1.3 0H226a195.3 195.3 0 0 1 .3 8.1c0 2-.6 3-1.9 3-.4 0-.8-.2-1.2-.5-.3-.3-.5-.7-.5-1.1a36.8 36.8 0 0 1 0-2.8l-.2-6.6c-.5 0-1.3 0-2.4-.2-1 0-1.6-.6-1.6-1.6a1.7 1.7 0 0 1 1.8-1.7l2.1.1a72.1 72.1 0 0 0 0-2.6c0-.4 0-.8.4-1.2.4-.3.8-.4 1.3-.4 1.2 0 1.9 1 1.9 3.1v1a9.2 9.2 0 0 1 3.2.2c.7.2 1 .7 1 1.5 0 .5-.1.9-.5 1.2-.3.3-.7.5-1.2.5Zm9.7 10.8a8 8 0 0 1-5-1.4 5.3 5.3 0 0 1-2.1-4.6c0-2.1.5-4 1.7-5.4a6 6 0 0 1 5-2.5c1.5 0 2.7.3 3.7.8 1.3.6 2 1.6 2 2.9 0 1-.6 1.7-1.6 2.5l-2.9 1.4-4.3 1.9c.4.4 1 .8 1.5 1 .6.2 1.2.3 2 .3 1.1 0 2-.2 2.9-.7.7-.4 1.2-.6 1.6-.6 1 0 1.4.4 1.4 1.3 0 1-.7 1.7-2.2 2.3-1.1.5-2.4.8-3.7.8Zm-.4-10.8c-.8 0-1.4.3-2 .8-.5.5-1 1.3-1.3 2.4l2.8-1.3 2.8-1.4c-.6-.3-1.3-.5-2.3-.5Zm11.8-1c1.3-1.5 2.5-2.2 3.6-2.2 1.4 0 2.3.5 3 1.4a5.3 5.3 0 0 1 3.7-1.3c1.6 0 2.7.8 3.3 2.4.2.4.3 1.5.6 3.5l.9 6.8c0 .5-.1 1-.5 1.2-.4.3-.8.5-1.3.5-1 0-1.5-.5-1.7-1.4a55.2 55.2 0 0 1-.9-7.4c-.2-1.6-.5-2.3-.9-2.3a9.6 9.6 0 0 0-2.9 1.6l.4 4.1c.3 1.9.4 3.3.4 4.2 0 .5-.2.9-.5 1.2-.3.3-.8.5-1.3.5s-.9-.2-1.2-.5c-.4-.3-.5-.7-.5-1.2l-.3-4.3a43.3 43.3 0 0 1-.5-5.5 10.4 10.4 0 0 0-3.2 3 214.7 214.7 0 0 0 0 6c0 .4-.2.8-.6 1a2 2 0 0 1-1.3.4c-.7 0-1.2-.3-1.4-1-.2-.4-.3-1-.3-2V139a48 48 0 0 0-.1-3.7c0-.7.1-1.4.4-2 .3-.8.8-1.2 1.4-1.2.5 0 .9.2 1.3.6.3.3.5.7.5 1.2v1Zm28 3.9a350 350 0 0 0 .2 6.7c0 .5-.2.9-.5 1.2-.4.3-.8.4-1.3.4-.7 0-1.2-.3-1.5-1-1.1.5-2.2.7-3.4.7-1.2 0-2.2-.3-3-.8-1-.6-1.5-1.4-1.7-2.5-.3-2.2-.5-4-.5-5.7 0-1.1.1-2.4.4-3.8.2-1 .7-1.4 1.7-1.4.5 0 1 .1 1.3.5.3.3.5.6.5 1.1 0 .4 0 1-.2 1.8l-.2 1.8a37.7 37.7 0 0 0 .5 5.3l.6.2.6.1c1 0 2-.1 3-.4a232.6 232.6 0 0 0 0-4.3c0-1.8.1-3.3.3-4.5.1-1 .7-1.5 1.7-1.5.5 0 1 .1 1.3.4.4.3.5.7.5 1.2a163 163 0 0 1-.2 4.5Zm-73.2 44c-.8 0-1.5 0-2.3-.2v5.2c0 .5-.2.9-.5 1.2-.4.3-.8.5-1.3.5s-1-.2-1.3-.5c-.3-.3-.5-.7-.5-1.2a1417.6 1417.6 0 0 1 0-9.8 85 85 0 0 0-.3-7.2c0-.7.2-1.3.5-1.8.3-.6.8-.8 1.4-.8.5 0 1 .1 1.2.4.4.4.5.8.5 1.2v.1a7.3 7.3 0 0 1 3.4-1c2 0 3.4.9 4.3 2.6.7 1.2 1 2.8 1 4.8 0 1.8-.5 3.4-1.6 4.6a5.7 5.7 0 0 1-4.5 2Zm.8-10.4c-.5 0-1 0-1.6.3L202 174l.2 5.2c.8.3 1.5.4 2.3.4.8 0 1.5-.3 2-1 .4-.5.6-1.3.6-2.2 0-1.2 0-2-.2-2.4-.2-1-.7-1.5-1.6-1.5Zm11.1 7.8c0 1.7-.6 2.5-1.7 2.5-.5 0-1-.2-1.3-.5-.3-.3-.5-.8-.5-1.3v-17.5c0-.5.2-1 .5-1.2.4-.3.8-.5 1.3-.5s1 .2 1.2.5c.4.3.5.7.5 1.2v16.8Zm14.2 2.8c-.4 0-1-.5-1.9-1.3-.7.4-1.4.6-2 .8a5 5 0 0 1-1.5.3c-2 0-3.6-.5-4.6-1.6-1-1.1-1.5-2.8-1.5-5a7 7 0 0 1 2.2-5.2 7.5 7.5 0 0 1 5.4-2.1c.8 0 1.8.2 2.8.6 1.3.6 2 1.2 2 2 0 .3-.2.5-.4.8l-.2 1.2a22 22 0 0 0 .3 5.3 39.4 39.4 0 0 0 1.1 2.6c0 .4-.2.8-.5 1.1-.4.3-.8.5-1.2.5Zm-3.2-8.8a10 10 0 0 1 .3-2 2.2 2.2 0 0 0-.8-.3 4 4 0 0 0-3 1.4c-.9.9-1.3 1.9-1.3 3 0 1.2.2 2 .6 2.6.4.6 1 .9 1.8.9a4.3 4.3 0 0 0 2.8-1l-.3-4.6Zm16.7 8.8c-1 0-1.6-.5-1.7-1.5l-.4-2.6a19.5 19.5 0 0 1 0-5.4v-.6c0-.7-.2-1-.6-1-.8 0-1.5.4-2.3 1.3-.7 1-1.3 2.1-1.7 3.5l-.2 1.1a8.4 8.4 0 0 0 0 2.2l.1 1c0 .6-.1 1-.5 1.3-.3.3-.7.4-1.2.4s-1-.1-1.3-.4c-.3-.3-.5-.7-.5-1.2v-1l-.1-1.2.1-3.4a44 44 0 0 0 .1-5.6c0-.5.2-.9.5-1.2.4-.3.8-.4 1.3-.4 1.1 0 1.7.6 1.8 2a5.5 5.5 0 0 1 3.9-1.8c1.6 0 2.7.7 3.3 2 .4 1 .6 2.3.6 4v1a40.2 40.2 0 0 0 .3 3.3l.3 2.6c0 .4-.2.8-.6 1.1-.3.4-.7.5-1.2.5Zm8.8-.1c-1.5 0-2.9-.6-4-1.6a6.5 6.5 0 0 1-2-4.8c0-1.8.5-3.5 1.6-5 1.3-1.7 3-2.5 5.4-2.5 1.6 0 3 .6 4 2a7.4 7.4 0 0 1 1.3 4.5 8 8 0 0 1-1.5 5 5.6 5.6 0 0 1-4.8 2.4Zm.8-10.6c-1 0-1.9.5-2.5 1.4-.5.8-.7 1.8-.7 2.8 0 1 .3 1.8.8 2.4.5.4 1 .6 1.6.6.8 0 1.4-.2 2-.7.6-.6.9-1.4 1-2.4 0-2.7-.7-4-2.2-4.1Zm24-1.4-2.8 9a9 9 0 0 1-1.2 2.4c-.4.6-1 .9-1.6.8-1 0-2-1-2.5-3a38 38 0 0 1-.9-4.4l-.3.8a184.8 184.8 0 0 0-2.5 5.7c-.3.6-.9.9-1.6.9-.4 0-.8-.4-1.2-1-.5-.8-.9-1.8-1.2-3a100 100 0 0 1-1.4-8.6c0-.4.2-.8.6-1.1.3-.3.7-.5 1.2-.5 1 0 1.5.5 1.7 1.4l.3 1.7a72.3 72.3 0 0 0 .7 5l2.2-6.4c.3-1.1 1-1.6 2-1.6.9 0 1.5.6 1.8 1.8a50.4 50.4 0 0 1 1.3 7l2-7.8c.2-.7.7-1 1.6-1 .4 0 .9 0 1.2.4.4.3.6.7.6 1.2v.3Zm4.4-4a2 2 0 0 1-1.4-.6 1.7 1.7 0 0 1 0-2.7 2 2 0 0 1 1.4-.5c.5 0 1 .2 1.4.5.4.4.6.9.6 1.4 0 .5-.2 1-.6 1.3a2 2 0 0 1-1.4.6Zm1 9.3a105.5 105.5 0 0 0 .1 4.6c0 .5-.1.9-.5 1.2-.3.3-.7.5-1.2.5s-1-.2-1.3-.5c-.3-.3-.5-.7-.5-1.2a82 82 0 0 0 0-4.6v-2.9c.2-1.1.2-2 .2-2.8 0-.5.2-.9.5-1.2.3-.3.8-.5 1.3-.5s.9.2 1.2.5c.3.3.5.7.5 1.2l-.1 2.8-.1 2.9Zm13.1-2.3-2.1 1.5-2 1.6c-.4.5-.8.7-1.3.7s-1-.2-1.3-.5c-.3-.4-.5-.8-.5-1.3 0-.6.5-1.4 1.6-2.2l3-2.2c1.1-.8 1.7-1.6 1.7-2.2 0-.8-.4-1.5-1.2-2.2-.8-.7-1.6-1-2.5-1-.5 0-1.1.2-1.9.7-.8.5-1.4.8-1.7.8-.5 0-.9-.2-1.3-.6-.3-.3-.5-.7-.5-1.2 0-.8.8-1.6 2.3-2.3 1.2-.6 2.3-1 3-1 2 0 3.6.8 5 2.1 1.6 1.4 2.3 3 2.3 4.7 0 1.7-.9 3.3-2.6 4.6Zm-6.1 9.1c-.5 0-1-.1-1.3-.4-.5-.4-.7-.8-.7-1.3 0-.6.2-1 .5-1.6.4-.6 1-.9 1.7-.9.6 0 1 .2 1.3.7.3.3.4.7.4 1.2s-.1 1-.4 1.5c-.4.5-.9.8-1.5.8ZM182.6 207.8l1.4.2 1.4.3 2.5.1h2.9l2.8-.1h1.4l1.5-.1 2.9-.1h2.9c1.3-.1 2.6.2 3.9.7l2.8 1.2c.7.3 1.3.4 2 .4h2.8l2.6-.1 1.5-.2 1.4-.1c.8 0 1.7-.2 2.5-.5l1.4-.4 1.5-.4c1.2-.3 2.5-.4 3.7-.3l3 .3 2.6.2h1.5l1.4.1 3 .3 1.5.1 1.5.2h5.3l2.4-.4 1.4-.4 1.5-.3c1.2-.3 2.4-.5 3.6-.4l1.5.2h1.4l3.1.5 1.5.2 1.4.3 2.6.3h1.4l1.4.1 2.4-.1 1.4-.3 1.4-.2c1.3-.3 2.7-.2 4 .1l1.4.4 1.4.4a4 4 0 0 0 1.8 0l1.5-.2 1.4-.3c1-.1 1.8-.3 2.7-.6l1.5-.3 1.4-.4c1.3-.4 2.7-.4 4-.1l1.4.3 1.5.3c.7.1 1.4.2 2 0h1.5l1.4-.3a10 10 0 0 1 3.8.3l3 .8c.5.2 1 .2 1.6 0l1.4-.3 1.4-.3c1.2-.3 2.3-.4 3.5-.4h11.3l1.1.1 1 .1a21 21 0 0 1 1.8.3l.7.4c.2.2.9.8.9 2v1l-.5.5c-.4.7-1.2 1.1-2 1.1h-6.1l.6-.6h-8.8c-.8 0-1.5.1-2.3.3l-1.5.4-1.4.3c-1.4.3-2.7.3-4.1 0l-1.4-.5-1.5-.3a5 5 0 0 0-1.9-.2l-1.4.2-1.5.1c-1.2.2-2.4.1-3.6-.1l-1.5-.3-1.4-.3h-1.8l-1.4.4-1.4.4-3 .6-1.5.3-1.4.3a9 9 0 0 1-4-.2l-2.9-.7c-.6-.2-1.2-.2-1.8-.1l-1.4.3-1.5.2c-1.1.2-2.3.3-3.4.2h-1.5l-1.4-.1c-1 0-2.1-.2-3.2-.4l-2.9-.5c-.8-.2-1.7-.3-2.6-.3l-1.4-.2h-1.5c-.6-.1-1.3 0-2 .1l-1.5.4-1.4.3c-1.1.3-2.2.4-3.3.5l-1.5.1H242.3l-1.5-.2-1.4-.2a35 35 0 0 0-2.7-.2h-1.4l-1.5-.1-3-.2-1.4-.1-1.5-.2c-.6 0-1.3 0-2 .2l-1.4.4-1.4.4-3.3.6-1.4.1-1.5.2-3 .1h-3c-1.3 0-2.6-.3-3.8-.8l-1.5-.6-1.4-.6c-.6-.3-1.3-.4-1.8-.4h-2.9l-2.8.2h-2.9l-3 .2H188a19 19 0 0 1-3.3-.2l-1.5-.2-1.4-.3c-.5 0-1 0-1.6.3l-1.4.5-1.5.6a7 7 0 0 1-4.4.3l-1.4-.4-1.5-.4c-.5-.2-1.1-.2-1.7 0l-1.4.2-1.5.3c-1.3.3-2.6.3-4 0l-2.8-.8-2.4-.4h-2.9c-.5-.1-1.1 0-1.8.3l-1.4.5-1.4.7c-1.6.6-3.1.7-4.7.1l-1.4-.5-1.5-.4a4 4 0 0 0-1.7-.3l-1.5.2-1.4.2c-1.1.1-2.2.2-3.3.1h-1.4l-1.5-.1H128l-1.5.2-1.4.2-2.9.3-1.4.2-1.4.2c-1.1.2-2.2.2-3.3.2h-1.4l-1.5-.1c-1.3 0-2.5-.3-3.7-.8l-1.4-.5-1.5-.6a2 2 0 0 0-1.3 0l-1.5.3-1.4.3a9 9 0 0 1-4 .2l-2.8-.5c-.7-.2-1.4-.2-2.1-.1l-1.4.2-1.5.2-3.2.2h-2.9l-2.6.1-1.4.2-1.5.1-2.9.3-1.4.1-1.4.2c-1.2 0-2.5 0-3.6-.3l-3-.6-2.6-.4-1.4-.1-1.4-.2a7 7 0 0 0-2.2 0l-1.4.4-1.4.2-3.2.5-1.4.1-1.4.2a19 19 0 0 1-3.3 0l-1.5-.2H44l-3.2-.5-2.9-.6h-1.8l-1.5.3-1.4.3c-1.2.2-2.5.3-3.7.1l-1.4-.1-1.5-.2-2.6-.2h-2.8l-3-.1-1.5-.1-1.4-.1h-2.4l-1.4.2-1.5.2c-1 .2-2.6.3-4.5.3l-2.8.1h-.2a2.5 2.5 0 1 1 0-5h2.9l4-.3 1.4-.2 1.4-.2c1.1-.2 2.3-.2 3.4-.1l2.9.2h2.7l1.5.1H24l3.1.2 1.5.2 1.4.2 2-.1 1.5-.3 1.5-.3c1.2-.3 2.6-.3 3.8 0l1.5.3 1.4.3 2.6.4h1.4l1.5.2h2.4l1.5-.2h1.4l2.6-.5 1.4-.3 1.5-.2a12 12 0 0 1 3.6-.2l1.4.2 1.5.1 3.1.5 1.4.4 1.5.2c.7.2 1.4.2 2.1.2l1.5-.1 4.2-.4 1.5-.2 1.4-.1 3.1-.2h2.9c.9 0 1.7 0 2.6-.2l1.4-.2 1.4-.2c1.3-.1 2.5 0 3.7.2l1.4.2 1.5.3a4 4 0 0 0 1.8 0l1.4-.5 1.4-.3a7 7 0 0 1 4.4.2l3 1.2c.6.2 1.3.4 2 .4h1.4l1.5.1 2.4-.1 1.5-.2 1.4-.2 2.9-.4 1.4-.1 1.5-.2c1-.1 2.2-.2 3.3-.1h1.4l1.4.1h2.5l1.4-.2 1.4-.2a9 9 0 0 1 4 .4l3 1h1l3-1.3c1.2-.5 2.5-.8 3.9-.7h1.4l1.4.1c1.2.1 2.3.3 3.4.6l2.9.7c.6.1 1.1.2 1.7 0l1.5-.3 1.4-.3c1.4-.3 2.7-.2 4 .1l1.5.4 1.4.4h1.3l1.5-.6 1.4-.6a8 8 0 0 1 4.2-.5Z"/></svg>