<svg width="32" height="32" viewBox="0 0 32 32" fill="none" xmlns="http://www.w3.org/2000/svg">
<rect x="0.75" y="0.75" width="30.5" height="30.5" rx="15.25" fill="white"/>
<rect x="0.75" y="0.75" width="30.5" height="30.5" rx="15.25" stroke="black" stroke-width="1.5"/>
<path d="M13.3118 19.1931C13.2166 19.1377 13.1263 19.0759 13.041 19.0077C13.0311 18.9963 13.0119 18.9807 12.9835 18.9608H12.9856C12.8165 18.8173 12.6452 18.6738 12.4718 18.5303C12.3324 18.4138 12.1946 18.2952 12.0581 18.1745C12.0297 18.1503 12.0027 18.1248 11.9771 18.0978C11.9543 18.1077 11.9309 18.1148 11.9067 18.1191C11.8214 18.1347 11.7376 18.1567 11.6551 18.1851C11.6082 18.2022 11.5613 18.2185 11.5144 18.2341C11.5286 18.2626 11.5386 18.2831 11.5443 18.2959C9.96075 18.9054 8.43198 19.6654 6.95794 20.576C5.9089 21.2224 4.90678 21.9242 3.95156 22.6814C3.30054 23.1971 2.77958 23.8208 2.38868 24.5524C2.22428 24.8588 2.07502 25.1692 1.94092 25.4836C2.00137 25.5452 2.05894 25.6099 2.11362 25.6775C2.20744 25.794 2.32897 25.9709 2.47823 26.2081C2.63459 26.4596 2.75399 26.6386 2.83643 26.7451C2.93167 26.8687 3.06031 27.0129 3.22236 27.1777C3.31333 27.2686 3.44979 27.4057 3.63174 27.589C3.6758 27.6358 3.96862 27.9832 4.51019 28.631C4.61093 28.7516 4.70901 28.8632 4.80443 28.9656C4.84994 28.9699 4.89543 28.9748 4.94089 28.9805C5.319 29.0274 5.66512 29.1481 5.97926 29.3427C6.08161 29.4067 6.21594 29.5033 6.38225 29.6325C6.56846 29.7774 6.70136 29.8769 6.78096 29.9309C6.85772 29.982 6.97073 30.0509 7.11998 30.1376C7.27634 30.2299 7.38935 30.2988 7.459 30.3443C7.50022 30.3713 7.61038 30.4473 7.78949 30.5723C7.9231 30.666 8.03469 30.7378 8.12424 30.7875C8.2607 30.8642 8.46823 30.9544 8.74683 31.0581C9.01833 31.1618 9.22231 31.2378 9.35877 31.2861C9.58762 31.3657 9.79587 31.4303 9.9835 31.4801C10.1185 31.5156 10.5741 31.6051 11.3502 31.7486C11.7435 31.8218 12.0804 31.9056 12.3609 32H19.8811C19.9867 31.9784 20.0784 31.9571 20.1561 31.9361C20.3779 31.8764 20.6437 31.7798 20.9536 31.6463C21.1284 31.5724 21.3892 31.4595 21.7361 31.3075C21.9521 31.2194 22.2577 31.11 22.6529 30.9793C23.0864 30.8344 23.3928 30.7278 23.5719 30.6596C23.5808 30.6562 23.5893 30.6527 23.5975 30.649C23.7881 30.5278 24.0276 30.4021 24.316 30.2718C24.6864 30.1038 24.958 29.9753 25.1305 29.8861C25.1885 29.8506 25.2461 29.8144 25.3032 29.7774C25.5078 29.6447 25.7061 29.5047 25.8981 29.3576C26.0351 29.2411 26.1722 29.1126 26.3096 28.9719C26.5242 28.7517 26.8192 28.4108 27.1944 27.9491C27.736 27.2828 28.1248 26.8027 28.3608 26.5086C28.7929 25.9716 29.1752 25.4864 29.5079 25.0531C29.6782 24.8319 29.8324 24.6358 29.9705 24.465C29.7348 24.0931 29.5187 23.711 29.3224 23.3186C29.0196 22.7063 28.5917 22.1934 28.0388 21.78C27.7062 21.5328 27.3721 21.2821 27.0367 21.0278C26.1269 20.3459 25.1994 19.6953 24.2542 19.0759C23.7794 18.8699 23.3181 18.6369 22.8704 18.3769C22.525 18.1766 22.1597 18.0154 21.7744 17.8932C21.6991 17.869 21.6231 17.8513 21.5463 17.8399L21.5079 17.8335L21.5442 17.8357C21.3835 17.7888 21.2215 17.7639 21.058 17.7611C20.9031 17.7568 20.7517 17.7412 20.6039 17.7142C20.4674 17.9429 20.294 18.1475 20.0836 18.3279C19.7283 18.6305 19.3829 18.943 19.0474 19.2655C18.9692 19.3365 18.9031 19.3934 18.8491 19.436C18.697 19.5468 18.5428 19.6583 18.3864 19.7705C18.3836 19.7705 18.3814 19.7713 18.38 19.7727C18.3758 19.7769 18.3708 19.7812 18.3651 19.7855C18.3566 19.7911 18.3487 19.7968 18.3416 19.8025H18.3374L18.2777 19.843C18.0289 20.0135 17.7596 20.1349 17.4696 20.2074C17.1725 20.2798 16.8719 20.3225 16.5677 20.3352C16.5535 20.3367 16.5392 20.3374 16.525 20.3374C16.073 20.3317 15.6359 20.2479 15.2137 20.0859C14.7944 19.9254 14.3971 19.7251 14.0218 19.485C13.965 19.4637 13.9088 19.4431 13.8534 19.4232C13.7681 19.3905 13.6828 19.3579 13.5975 19.3252L13.6018 19.3294C13.5023 19.2911 13.4056 19.2456 13.3118 19.1931ZM9.86196 23.4358C9.85486 23.4358 9.84775 23.4372 9.84064 23.44C9.83496 23.44 9.82927 23.4386 9.82358 23.4358C9.81506 23.4358 9.80795 23.4351 9.80226 23.4336C9.79516 23.4308 9.78876 23.4287 9.78307 23.4272C9.77739 23.423 9.7717 23.4201 9.76602 23.4187C9.60539 23.3065 9.44477 23.1957 9.28414 23.0863C9.14058 22.9897 8.98422 22.9307 8.81506 22.9094C8.80085 22.908 8.78592 22.908 8.77029 22.9094C8.5855 23.104 8.41919 23.3164 8.27136 23.5466C8.12495 23.771 8.00341 24.0069 7.90676 24.254C7.87833 24.3237 7.85061 24.3918 7.8236 24.4586C7.81223 24.4742 7.7973 24.487 7.77882 24.497C7.76035 24.5055 7.74116 24.5105 7.72126 24.5119C7.70135 24.5161 7.68217 24.5154 7.66369 24.5098C7.64236 24.5055 7.6246 24.497 7.61038 24.4842C7.59475 24.4728 7.58266 24.4579 7.57414 24.4394C7.56703 24.4252 7.55992 24.4103 7.55281 24.3947C7.70917 23.8776 7.95366 23.3939 8.28628 22.9435C8.40426 22.7858 8.55565 22.6857 8.74044 22.6431C8.91528 22.6019 9.08372 22.626 9.24576 22.7155C9.513 22.8576 9.75891 23.028 9.9835 23.2269C9.99203 23.2468 9.99558 23.2688 9.99416 23.293C9.99132 23.3171 9.98421 23.3399 9.97284 23.3612C9.96999 23.3669 9.96644 23.3725 9.96218 23.3782C9.9508 23.3924 9.93588 23.4045 9.9174 23.4145C9.89892 23.4244 9.88044 23.4315 9.86196 23.4358ZM10.444 22.2808C10.1868 22.1458 9.92522 22.0201 9.65941 21.9036C9.31257 21.7516 9.00909 21.5392 8.74897 21.2665C8.53433 21.0392 8.50519 20.8076 8.66155 20.5718C8.69424 20.5249 8.73973 20.5015 8.79801 20.5015C8.97427 20.5015 9.07235 20.5902 9.09225 20.7678C9.33674 21.1031 9.66154 21.346 10.0667 21.4966C10.2045 21.5492 10.3381 21.6088 10.4675 21.6756C10.9465 21.9256 11.4405 22.1274 11.9494 22.2808C12.1114 22.3291 12.2756 22.3447 12.4419 22.3277C12.6068 22.3589 12.6828 22.4577 12.67 22.6239C12.6587 22.7787 12.5755 22.8632 12.4206 22.8775C12.2955 22.8874 12.1711 22.8824 12.0474 22.8625C11.4888 22.7418 10.9543 22.5479 10.444 22.2808ZM16.1348 27.1052C16.1434 27.0953 16.1519 27.0861 16.1604 27.0775C16.1704 27.0676 16.1803 27.0598 16.1903 27.0541C16.2016 27.0484 16.2137 27.0434 16.2265 27.0392C16.2322 27.0349 16.2386 27.0328 16.2457 27.0328C16.2585 27.0328 16.272 27.0335 16.2862 27.0349C16.299 27.0378 16.3118 27.0413 16.3246 27.0456C16.336 27.0513 16.3466 27.0569 16.3566 27.0626C16.3637 27.0669 16.3687 27.0711 16.3715 27.0754C16.3758 27.0811 16.38 27.0861 16.3843 27.0903C16.3886 27.096 16.3928 27.101 16.3971 27.1052C16.4014 27.1123 16.4042 27.1187 16.4056 27.1244C16.4085 27.1301 16.4106 27.1358 16.412 27.1415C16.4277 27.7822 16.4142 28.4222 16.3715 29.0614C16.3289 29.6936 16.3139 30.3251 16.3267 30.9559C16.331 31.1391 16.321 31.3188 16.2969 31.495C16.2884 31.5063 16.2798 31.517 16.2713 31.5269C16.2613 31.534 16.2514 31.5412 16.2414 31.5483C16.2301 31.5554 16.218 31.561 16.2052 31.5653C16.1995 31.5681 16.1931 31.5703 16.186 31.5717C16.1718 31.5717 16.1576 31.571 16.1434 31.5696C16.132 31.5667 16.1199 31.5625 16.1071 31.5568C16.0957 31.5525 16.0851 31.5461 16.0751 31.5376C16.068 31.5348 16.0623 31.5312 16.0581 31.5269C16.0552 31.5227 16.0517 31.5177 16.0474 31.512C16.0432 31.5078 16.0389 31.5021 16.0346 31.495C16.0304 31.4893 16.0275 31.4836 16.0261 31.4779C16.0233 31.4722 16.0211 31.4659 16.0197 31.4588C16.0169 31.4531 16.0154 31.4474 16.0154 31.4417C16.014 31.4332 16.0133 31.4261 16.0133 31.4204C16.0019 30.7953 16.0169 30.171 16.0581 29.5473C16.0993 28.9194 16.1149 28.29 16.105 27.6593C16.1007 27.4732 16.1107 27.2885 16.1348 27.1052ZM24.252 20.9617C24.2819 20.9532 24.3089 20.9589 24.3331 20.9788C24.5093 21.1237 24.5122 21.27 24.3416 21.4178C24.2933 21.4604 24.2378 21.4931 24.1753 21.5158C23.6351 21.7033 23.1028 21.9114 22.5783 22.1402C22.0751 22.3618 21.547 22.5564 20.9941 22.724C20.6899 22.8178 20.38 22.8725 20.0644 22.8881C19.8057 22.8256 19.7439 22.68 19.8789 22.4513C19.9202 22.3802 19.982 22.3405 20.0644 22.3319C20.4866 22.2922 20.8995 22.1991 21.3032 22.0528C21.8448 21.861 22.3793 21.6493 22.9066 21.4178C23.3444 21.2274 23.7929 21.0754 24.252 20.9617ZM24.7744 23.3697C24.5882 23.1509 24.3693 22.9726 24.1177 22.8348C24.0367 22.788 23.9507 22.7709 23.8597 22.7837C23.6891 22.8945 23.5427 23.0337 23.4205 23.2014C23.3096 23.3605 23.1973 23.5167 23.0836 23.6702C23.0367 23.7313 22.9806 23.7767 22.9152 23.8065C22.8953 23.8108 22.8761 23.8122 22.8576 23.8108C22.8377 23.808 22.8185 23.8016 22.8 23.7916C22.7943 23.7902 22.7894 23.7874 22.7851 23.7831C22.7695 23.7703 22.756 23.7554 22.7446 23.7384C22.7346 23.7199 22.729 23.7 22.7275 23.6787C22.7247 23.673 22.7233 23.6673 22.7233 23.6616C22.7233 23.656 22.7247 23.6496 22.7275 23.6425C22.7275 23.6354 22.7282 23.6283 22.7297 23.6212C22.7325 23.6155 22.7346 23.6098 22.7361 23.6041C22.7389 23.597 22.7417 23.5906 22.7446 23.5849C23.0317 23.1374 23.3921 22.7809 23.8256 22.5152C23.8825 22.4811 23.9429 22.4761 24.0068 22.5003C24.5712 22.7191 25.0338 23.082 25.3949 23.5892C25.4503 23.6673 25.4972 23.749 25.5356 23.8343C25.537 23.8541 25.5349 23.8747 25.5292 23.896C25.525 23.9145 25.5164 23.9316 25.5036 23.9472C25.5008 23.9514 25.4972 23.9564 25.493 23.9621C25.4759 23.9777 25.4574 23.9891 25.4375 23.9962C25.4134 24.0033 25.3892 24.0061 25.365 24.0047C25.3565 24.0033 25.3494 24.0026 25.3437 24.0026C25.1504 23.7994 24.9606 23.5885 24.7744 23.3697ZM20.6103 6.99556C20.5875 6.87907 20.5406 6.77323 20.4696 6.67805C20.289 6.43512 20.0779 6.21706 19.8363 6.02385C19.7595 5.96135 19.6849 5.896 19.6124 5.82781C19.3367 5.64312 19.0296 5.55576 18.6913 5.5657C18.2507 5.57991 17.81 5.59198 17.3694 5.60193C16.9344 5.61471 16.4987 5.61897 16.0623 5.61471C15.7766 5.61187 15.4916 5.59766 15.2073 5.57209C14.9643 5.54794 14.7219 5.53374 14.4803 5.52947C14.2983 5.52521 14.115 5.52734 13.9302 5.53587C13.5947 5.55007 13.2621 5.58559 12.9323 5.64242C12.9337 5.64242 12.9366 5.64242 12.9408 5.64242C12.9494 5.63957 12.9579 5.63815 12.9664 5.63815C12.9735 5.63673 12.9813 5.63602 12.9899 5.63602C12.8676 5.65449 12.7482 5.68148 12.6317 5.717C12.5108 5.75393 12.3929 5.793 12.2777 5.8342C12.2393 5.84841 12.201 5.86403 12.1626 5.88108C12.0489 5.98336 11.938 6.08707 11.83 6.1922C11.7205 6.30016 11.6125 6.40955 11.5059 6.52036C11.459 6.56866 11.4192 6.62336 11.3865 6.68445C11.3879 6.67592 11.3907 6.66811 11.395 6.661C11.3978 6.6539 11.4014 6.6468 11.4057 6.63969C11.4085 6.63259 11.4113 6.62549 11.4142 6.61838C11.3019 6.8329 11.2123 7.05736 11.1455 7.29176C11.0787 7.52475 11.0325 7.76128 11.0069 8.00136C11.0027 8.04967 10.9977 8.09797 10.992 8.14627C10.992 8.15621 10.9906 8.16687 10.9878 8.17823C10.9579 8.52487 10.9579 8.87221 10.9878 9.22026C11.0105 9.50013 11.0524 9.77786 11.1136 10.0535C11.142 10.1927 11.1733 10.3326 11.2074 10.4733C11.2045 10.4662 11.2024 10.4612 11.201 10.4583C11.201 10.4555 11.2003 10.4541 11.1988 10.4541C11.2955 10.6942 11.2195 10.8369 10.9707 10.8824C10.9039 10.8952 10.847 10.8753 10.8001 10.8227C10.7404 10.7531 10.6956 10.6778 10.6658 10.5969C10.6516 10.577 10.6381 10.5549 10.6253 10.5308C10.5826 10.4981 10.5343 10.4882 10.4803 10.501C10.4291 10.5109 10.3765 10.518 10.3225 10.5223C10.2983 10.5237 10.2728 10.5244 10.2458 10.5244C10.2159 10.5329 10.1868 10.5443 10.1583 10.5585C10.1228 10.5741 10.0858 10.589 10.0475 10.6032C10.029 10.6089 10.0119 10.6174 9.99629 10.6288C9.87405 10.8831 9.80297 11.1544 9.78307 11.4428C9.76033 11.7468 9.75607 12.0516 9.77028 12.357C9.77454 12.4351 9.78165 12.5111 9.7916 12.585C9.8314 12.8208 9.87405 13.0552 9.91953 13.2882C9.95791 13.4885 10.0503 13.6555 10.1967 13.789C10.2678 13.8543 10.3502 13.8934 10.444 13.9062C10.4597 13.9076 10.476 13.9105 10.4931 13.9147C10.4959 13.9119 10.4995 13.9098 10.5037 13.9083C10.508 13.9083 10.5123 13.9076 10.5165 13.9062C10.5251 13.9034 10.5322 13.9012 10.5379 13.8998C10.6274 13.7336 10.7255 13.5745 10.8321 13.4225C10.8534 13.3941 10.8833 13.3784 10.9217 13.3756C11.1406 13.3657 11.26 13.475 11.2799 13.7038C11.2969 13.9126 11.3211 14.1207 11.3524 14.3281C11.3623 14.3949 11.373 14.4617 11.3843 14.5284C11.3758 14.527 11.3673 14.5249 11.3588 14.522C11.3815 14.7536 11.4099 14.9845 11.444 15.2146C11.4909 15.5357 11.5478 15.8539 11.6146 16.1693C11.6615 16.3951 11.7177 16.6182 11.7831 16.8384C11.8456 17.0543 11.9465 17.2468 12.0858 17.4159C12.1555 17.4997 12.2294 17.5778 12.3076 17.6503C12.4625 17.7909 12.6167 17.9301 12.7703 18.0679C12.8541 18.1418 12.9401 18.2135 13.0282 18.2832C13.142 18.3726 13.2528 18.4657 13.3609 18.5623C13.3594 18.5609 13.3573 18.5602 13.3545 18.5602C13.5208 18.698 13.7084 18.8003 13.9174 18.867C13.9799 18.8869 14.0417 18.9068 14.1029 18.9267C14.1057 18.9111 14.1071 18.8961 14.1071 18.8819C14.1654 18.916 14.2237 18.9516 14.282 18.9885C14.3715 19.0169 14.4611 19.0474 14.5506 19.0801C14.6686 19.1199 14.7631 19.1867 14.8342 19.2804C14.8456 19.2989 14.8555 19.3174 14.8641 19.3358C15.127 19.4736 15.4028 19.5859 15.6913 19.6725C16.1348 19.8046 16.5861 19.8331 17.0453 19.7578C17.5016 19.6825 17.9102 19.4971 18.2713 19.2016C18.3594 19.1263 18.4504 19.0531 18.5442 18.9821C18.8768 18.6966 19.203 18.4025 19.5229 18.0999C19.6195 18.009 19.7155 17.918 19.8107 17.8271C20.1391 17.5075 20.3438 17.1182 20.4248 16.6594C20.4362 16.577 20.4461 16.4953 20.4546 16.4143C20.5257 15.9725 20.5747 15.5286 20.6018 15.0825C20.6217 14.7501 20.6202 14.4198 20.5975 14.0916C20.5833 13.8643 20.6899 13.7563 20.9173 13.7677C20.9998 13.7719 21.0587 13.8117 21.0943 13.887C21.1227 13.9524 21.1568 14 21.1966 14.0298C21.3857 13.7982 21.5143 13.5297 21.5826 13.2243C21.6096 13.1121 21.6394 12.9998 21.6721 12.8876C21.8 12.4415 21.8953 11.9884 21.9578 11.5281C21.9777 11.3761 21.9663 11.2248 21.9237 11.0742C21.9095 11.0259 21.8953 10.9783 21.8811 10.9314C21.8725 10.92 21.8647 10.908 21.8576 10.8952L21.8533 10.8931C21.8519 10.8888 21.8505 10.8852 21.8491 10.8824C21.8462 10.881 21.8427 10.8781 21.8384 10.8739C21.8384 10.8725 21.8377 10.8703 21.8363 10.8675L21.832 10.8653C21.8206 10.8483 21.8086 10.8327 21.7958 10.8185C21.756 10.7744 21.7112 10.7339 21.6614 10.697C21.6202 10.6658 21.574 10.643 21.5229 10.6288C21.5001 10.8859 21.3715 11.0032 21.1369 10.9804C21.0659 10.9747 21.0147 10.9385 20.9834 10.8717C20.9294 10.7453 20.9145 10.6111 20.9386 10.469C20.9571 10.3596 20.9735 10.2502 20.9877 10.1408C20.9877 10.143 20.9877 10.1444 20.9877 10.1451C20.9878 10.1404 20.9885 10.1355 20.9898 10.1302C20.9898 10.1259 20.9898 10.1202 20.9898 10.1131V10.111L20.9941 10.1089C20.9941 10.1076 20.9941 10.1062 20.9941 10.1046V10.1025C20.9942 10.0993 20.9949 10.095 20.9962 10.0897L20.9941 10.0918C20.9941 10.0861 20.9948 10.0812 20.9962 10.0769C20.9976 10.0371 20.9976 9.98172 20.9962 9.91069C20.9877 9.62514 20.9621 9.34031 20.9194 9.05618C20.8853 8.83314 20.8512 8.61082 20.8171 8.3892C20.8104 8.35448 20.8047 8.31897 20.8 8.28265C20.8004 8.28481 20.8011 8.28694 20.8022 8.28904C20.761 7.85433 20.697 7.42317 20.6103 6.99556ZM20.8235 8.4446C20.8249 8.45028 20.8256 8.45668 20.8256 8.46378C20.8256 8.4652 20.8256 8.46733 20.8256 8.47017C20.8242 8.46307 20.8235 8.45668 20.8235 8.45099C20.8235 8.44957 20.8235 8.44744 20.8235 8.4446ZM12.299 10.6395C12.1228 10.4718 12.1207 10.2879 12.2926 10.0876C12.5485 9.78354 12.869 9.56832 13.2543 9.44188C13.5357 9.34812 13.8285 9.2984 14.1327 9.29271C14.5307 9.21458 14.906 9.25862 15.2585 9.42483C15.2869 9.43904 15.3054 9.46177 15.3139 9.49302C15.3751 9.7118 15.2926 9.83397 15.0666 9.85955C15.0069 9.86523 14.9465 9.86168 14.8854 9.84889C14.7091 9.81338 14.5293 9.80059 14.3459 9.81053C14.056 9.82616 13.7567 9.88085 13.4483 9.97461C13.201 10.0471 12.9906 10.1749 12.8172 10.3582C12.7518 10.4278 12.6878 10.4995 12.6253 10.5734C12.5357 10.6785 12.427 10.7006 12.299 10.6395ZM16.7766 9.22879C17.1846 9.01001 17.6195 8.92832 18.0815 8.98373C18.2009 8.99793 18.3196 9.01711 18.4376 9.04126C18.8853 9.12792 19.299 9.30124 19.6785 9.56121C19.7766 9.62798 19.8072 9.71819 19.7702 9.83184C19.719 9.98953 19.6117 10.0542 19.4482 10.0258C19.0588 9.78283 18.6387 9.62443 18.1881 9.55056C17.7205 9.47811 17.2805 9.55553 16.8683 9.78283C16.8257 9.80556 16.7809 9.80556 16.734 9.78283C16.5492 9.69191 16.5108 9.55837 16.6188 9.38222C16.6572 9.31829 16.7098 9.26714 16.7766 9.22879ZM18.4568 10.9527C18.5108 11.0266 18.5165 11.1026 18.4738 11.1807C18.3857 11.3569 18.2386 11.4343 18.0325 11.413C17.8989 11.413 17.8036 11.3548 17.7468 11.2383C17.6842 11.1132 17.7055 11.0053 17.8107 10.9144C17.842 10.8874 17.8754 10.8668 17.9109 10.8526C18.1142 10.7006 18.2962 10.7339 18.4568 10.9527ZM16.7276 14.4198C16.6935 14.505 16.6316 14.5668 16.5421 14.6051C16.3402 14.6918 16.1306 14.7131 15.9131 14.6691C15.5478 14.5739 15.3459 14.3459 15.3075 13.985C15.3019 13.9254 15.3047 13.8643 15.3161 13.8018C15.3943 13.4012 15.5627 13.0489 15.8214 12.7448C15.8456 12.7164 15.8783 12.7029 15.9195 12.7044C16.1526 12.7143 16.2407 12.8315 16.1839 13.056C16.164 13.1355 16.1334 13.2108 16.0922 13.2818C15.9685 13.5049 15.8847 13.7421 15.8406 13.9936C15.8562 14.012 15.8726 14.0291 15.8896 14.0447C15.9053 14.0618 15.9223 14.0781 15.9408 14.0937C15.9465 14.0994 15.9522 14.1058 15.9579 14.1129C16.1327 14.1612 16.3033 14.1399 16.4696 14.049C16.498 14.0348 16.5272 14.0326 16.557 14.0426C16.7503 14.1051 16.8072 14.2308 16.7276 14.4198ZM14.25 11.0294C14.2756 11.1644 14.2244 11.2617 14.0965 11.3214C14.078 11.3271 14.0602 11.332 14.0432 11.3363C14.0147 11.3548 13.9842 11.369 13.9515 11.3789C13.9131 11.3903 13.8733 11.3945 13.8321 11.3917C13.8164 11.3888 13.8001 11.3867 13.783 11.3853C13.7219 11.3668 13.6736 11.332 13.6381 11.2809C13.6039 11.234 13.5855 11.1829 13.5826 11.1275C13.5826 11.1047 13.5847 11.082 13.589 11.0593C13.5606 10.8064 13.6743 10.6949 13.9302 10.7247C14.1107 10.7446 14.2173 10.8462 14.25 11.0294ZM14.8171 16.5571C14.9863 16.7105 15.1846 16.8093 15.412 16.8533C15.8598 16.9428 16.3075 16.9378 16.7553 16.8384C17.0097 16.7844 17.2251 16.6622 17.4014 16.4719C17.5463 16.2772 17.7013 16.2701 17.8662 16.4505C17.9173 16.5074 17.9294 16.5713 17.9024 16.6423C17.8441 16.8085 17.7375 16.9428 17.5826 17.0451C17.1107 17.3619 16.5847 17.5018 16.0048 17.4649C15.9906 17.4634 15.9763 17.4627 15.9621 17.4627C15.5016 17.4627 15.0702 17.3512 14.6679 17.1282C14.5471 17.0614 14.4348 16.9811 14.331 16.8874C14.1462 16.7212 14.1476 16.5621 14.3353 16.4101C14.3893 16.366 14.4497 16.3561 14.5165 16.3802C14.6288 16.4172 14.729 16.4761 14.8171 16.5571ZM10.1754 12.2419C10.147 12.124 10.1626 12.0104 10.2223 11.901C10.4042 11.5572 10.6829 11.4045 11.0581 11.4428C11.1775 11.4542 11.272 11.5089 11.3417 11.6069C11.4796 11.7987 11.4462 11.9486 11.2415 12.0565C11.1804 12.0892 11.1185 12.0921 11.056 12.0651C10.9991 12.0409 10.9544 12.0047 10.9217 11.9564C10.889 11.9692 10.8591 11.9862 10.8321 12.0075C10.7966 12.0388 10.7653 12.0722 10.7383 12.1077C10.7184 12.1318 10.7042 12.1581 10.6956 12.1865C10.8335 12.2618 10.9735 12.3371 11.1157 12.4124C11.1484 12.4309 11.1704 12.4593 11.1818 12.4976C11.2287 12.6553 11.1782 12.7697 11.0304 12.8407C10.9764 12.8677 10.9195 12.8727 10.8598 12.8556C10.4846 12.7931 10.2564 12.5886 10.1754 12.2419ZM19.9685 12.5999C20.1064 12.536 20.245 12.5467 20.3843 12.6319C20.4013 12.6418 20.4219 12.6468 20.4461 12.6468C20.5797 12.6511 20.6771 12.595 20.7382 12.4785C20.7496 12.4472 20.7567 12.4131 20.7595 12.3762C20.7638 12.3307 20.7602 12.286 20.7489 12.2419C20.746 12.222 20.7389 12.2029 20.7275 12.1844C20.6295 12.2455 20.5214 12.2455 20.4035 12.1844C20.3125 12.1375 20.272 12.0622 20.2819 11.9585C20.3004 11.7639 20.4077 11.6524 20.6039 11.624C20.8597 11.5856 21.0524 11.6815 21.1817 11.9116C21.3153 12.146 21.3345 12.3911 21.2393 12.6468C21.1199 12.9665 20.8896 13.1455 20.5484 13.1838C20.439 13.1966 20.3317 13.1916 20.2265 13.1689C19.9564 13.1249 19.837 12.9814 19.8683 12.7384C19.8754 12.6745 19.9088 12.6283 19.9685 12.5999Z" fill="#CCCCCC"/>
<path d="M24.1171 22.8342C24.3687 22.972 24.5876 23.1503 24.7738 23.3691C24.96 23.5879 25.1498 23.7988 25.3431 24.002C25.3488 24.002 25.3559 24.0027 25.3644 24.0041C25.3886 24.0055 25.4128 24.0027 25.4369 23.9956C25.4568 23.9885 25.4753 23.9771 25.4924 23.9615C25.4966 23.9558 25.5002 23.9508 25.503 23.9466C25.5158 23.931 25.5244 23.9139 25.5286 23.8954C25.5343 23.8741 25.5364 23.8535 25.535 23.8337C25.4966 23.7484 25.4497 23.6667 25.3943 23.5886C25.0332 23.0814 24.5706 22.7185 24.0062 22.4997C23.9423 22.4755 23.8819 22.4805 23.825 22.5146C23.3915 22.7803 23.0311 23.1368 22.744 23.5843C22.7412 23.59 22.7383 23.5964 22.7355 23.6035C22.734 23.6092 22.7319 23.6149 22.7291 23.6206C22.7276 23.6277 22.7269 23.6348 22.7269 23.6419C22.7241 23.649 22.7227 23.6554 22.7227 23.661C22.7227 23.6667 22.7241 23.6724 22.7269 23.6781C22.7284 23.6994 22.734 23.7193 22.744 23.7378C22.7554 23.7548 22.7689 23.7697 22.7845 23.7825C22.7888 23.7868 22.7937 23.7896 22.7994 23.791C22.8179 23.801 22.8371 23.8074 22.857 23.8102C22.8755 23.8116 22.8947 23.8102 22.9146 23.8059C22.98 23.7761 23.0361 23.7307 23.083 23.6696C23.1967 23.5161 23.309 23.3599 23.4199 23.2008C23.5421 23.0331 23.6885 22.8939 23.8591 22.7831C23.9501 22.7703 24.0361 22.7874 24.1171 22.8342ZM24.3325 20.9782C24.3083 20.9583 24.2813 20.9526 24.2514 20.9611C23.7923 21.0748 23.3438 21.2268 22.906 21.4172C22.3787 21.6487 21.8442 21.8604 21.3026 22.0522C20.8989 22.1985 20.486 22.2916 20.0638 22.3313C19.9814 22.3399 19.9196 22.3796 19.8783 22.4507C19.7433 22.6794 19.8051 22.825 20.0638 22.8875C20.3794 22.8719 20.6893 22.8172 20.9935 22.7234C21.5464 22.5558 22.0745 22.3612 22.5777 22.1396C23.1022 21.9108 23.6345 21.7027 24.1747 21.5152C24.2372 21.4925 24.2927 21.4598 24.341 21.4172C24.5116 21.2694 24.5087 21.1231 24.3325 20.9782ZM16.1598 27.0769C16.1513 27.0855 16.1428 27.0947 16.1342 27.1046C16.1101 27.2879 16.1001 27.4726 16.1044 27.6587C16.1143 28.2894 16.0987 28.9188 16.0575 29.5467C16.0163 30.1704 16.0013 30.7947 16.0127 31.4198C16.0127 31.4255 16.0134 31.4326 16.0148 31.4411C16.0148 31.4468 16.0163 31.4525 16.0191 31.4581C16.0205 31.4653 16.0227 31.4716 16.0255 31.4773C16.0269 31.483 16.0298 31.4887 16.034 31.4944C16.0383 31.5015 16.0426 31.5072 16.0468 31.5114C16.0511 31.5171 16.0546 31.5221 16.0575 31.5263C16.0617 31.5306 16.0674 31.5342 16.0745 31.537C16.0845 31.5455 16.0951 31.5519 16.1065 31.5562C16.1193 31.5619 16.1314 31.5661 16.1428 31.569C16.157 31.5704 16.1712 31.5711 16.1854 31.5711C16.1925 31.5697 16.1989 31.5675 16.2046 31.5647C16.2174 31.5604 16.2295 31.5548 16.2408 31.5477C16.2508 31.5405 16.2607 31.5334 16.2707 31.5263C16.2792 31.5164 16.2878 31.5057 16.2963 31.4944C16.3204 31.3182 16.3304 31.1385 16.3261 30.9553C16.3133 30.3245 16.3283 29.693 16.3709 29.0608C16.4136 28.4216 16.4271 27.7816 16.4114 27.1409C16.41 27.1352 16.4079 27.1295 16.405 27.1238C16.4036 27.1181 16.4008 27.1117 16.3965 27.1046C16.3922 27.1004 16.388 27.0954 16.3837 27.0897C16.3794 27.0855 16.3752 27.0805 16.3709 27.0748C16.3681 27.0705 16.3631 27.0663 16.356 27.062C16.346 27.0563 16.3354 27.0507 16.324 27.045C16.3112 27.0407 16.2984 27.0372 16.2856 27.0343C16.2714 27.0329 16.2579 27.0322 16.2451 27.0322C16.238 27.0322 16.2316 27.0343 16.2259 27.0386C16.2131 27.0428 16.201 27.0478 16.1897 27.0535C16.1797 27.0592 16.1698 27.067 16.1598 27.0769ZM9.65881 21.903C9.92462 22.0195 10.1862 22.1452 10.4435 22.2802C10.9538 22.5473 11.4882 22.7412 12.0469 22.8619C12.1705 22.8818 12.2949 22.8868 12.42 22.8769C12.5749 22.8626 12.6581 22.7781 12.6694 22.6233C12.6822 22.4571 12.6062 22.3583 12.4413 22.3271C12.275 22.3441 12.1108 22.3285 11.9488 22.2802C11.4399 22.1268 10.9459 21.925 10.4669 21.675C10.3376 21.6082 10.2039 21.5486 10.0661 21.496C9.66094 21.3454 9.33614 21.1025 9.09165 20.7672C9.07175 20.5896 8.97367 20.5009 8.79741 20.5009C8.73913 20.5009 8.69364 20.5243 8.66095 20.5712C8.50459 20.807 8.53373 21.0386 8.74837 21.2659C9.00849 21.5386 9.31198 21.751 9.65881 21.903ZM9.84004 23.4394C9.84715 23.4366 9.85426 23.4352 9.86137 23.4352C9.87985 23.4309 9.89832 23.4238 9.9168 23.4139C9.93528 23.4039 9.95021 23.3918 9.96158 23.3776C9.96584 23.3719 9.9694 23.3663 9.97224 23.3606C9.98361 23.3393 9.99072 23.3165 9.99356 23.2924C9.99498 23.2682 9.99143 23.2462 9.9829 23.2263C9.75831 23.0274 9.5124 22.857 9.24517 22.7149C9.08312 22.6254 8.91468 22.6013 8.73984 22.6425C8.55505 22.6851 8.40367 22.7852 8.28569 22.9429C7.95307 23.3933 7.70858 23.877 7.55222 24.3941C7.55932 24.4097 7.56643 24.4246 7.57354 24.4388C7.58207 24.4573 7.59415 24.4722 7.60978 24.4836C7.624 24.4964 7.64177 24.5049 7.66309 24.5092C7.68157 24.5148 7.70076 24.5155 7.72066 24.5113C7.74056 24.5099 7.75975 24.5049 7.77823 24.4964C7.79671 24.4864 7.81163 24.4736 7.823 24.458C7.85001 24.3912 7.87773 24.3231 7.90616 24.2534C8.00282 24.0063 8.12435 23.7704 8.27076 23.546C8.41859 23.3158 8.5849 23.1034 8.76969 22.9088C8.78533 22.9074 8.80025 22.9074 8.81447 22.9088C8.98362 22.9301 9.13998 22.9891 9.28355 23.0857C9.44417 23.1951 9.60479 23.3059 9.76542 23.4181C9.7711 23.4195 9.77679 23.4224 9.78248 23.4266C9.78816 23.4281 9.79456 23.4302 9.80167 23.433C9.80735 23.4345 9.81446 23.4352 9.82299 23.4352C9.82867 23.438 9.83436 23.4394 9.84004 23.4394ZM20.6033 5.99768C20.4953 5.89966 20.3908 5.7988 20.2899 5.69509C20.1093 5.50899 19.9046 5.35911 19.6758 5.24546C19.3858 5.10056 19.0774 5.02882 18.7504 5.03024C18.2032 5.03024 17.6566 5.04231 17.1108 5.06646C16.6488 5.08493 16.1854 5.08209 15.7206 5.05794C15.6111 5.04942 15.501 5.04231 15.3901 5.03663C14.9338 5.00964 14.4761 4.99756 14.017 5.00041C13.5266 5.00183 13.0412 5.05226 12.5607 5.1517C12.2608 5.21421 11.9921 5.3378 11.7547 5.52249C11.6695 5.58926 11.5849 5.65602 11.501 5.72279C11.1528 6.00834 10.8997 6.36137 10.742 6.78187C10.5856 7.20096 10.4889 7.63425 10.452 8.08174C10.4506 8.08601 10.4498 8.0924 10.4498 8.10092C10.4086 8.48023 10.4029 8.85954 10.4328 9.23884C10.4399 9.31556 10.4506 9.39156 10.4648 9.46685C10.4989 9.63307 10.5294 9.79999 10.5565 9.96763C10.3759 9.94347 10.1933 9.96549 10.0085 10.0337H10.0042C10.0028 10.0337 10.0021 10.0351 10.0021 10.0379C9.99925 10.0379 9.99712 10.0379 9.99569 10.0379C9.9842 10.0414 9.97283 10.0449 9.96158 10.0486C9.96512 10.0486 9.96868 10.0486 9.97224 10.0486C9.91965 10.0713 9.86634 10.0919 9.81233 10.1104C9.72846 10.1388 9.66165 10.1892 9.6119 10.2617C9.38731 10.5927 9.26009 10.9606 9.23024 11.3655C9.1947 11.8059 9.20323 12.2449 9.25583 12.6824C9.25583 12.681 9.25583 12.6789 9.25583 12.676C9.30274 12.9801 9.36599 13.2812 9.44559 13.5796C9.50814 13.8182 9.6318 14.02 9.81659 14.1848C10.1151 14.4504 10.4406 14.5151 10.7931 14.3787C10.7931 14.4256 10.796 14.4731 10.8017 14.5214C10.8301 14.7473 10.8592 14.9711 10.8891 15.1927C10.9147 15.3589 10.9381 15.5251 10.9594 15.6913C10.9921 15.9371 11.0383 16.1807 11.098 16.4222C11.1563 16.6552 11.2231 16.8861 11.2985 17.1148C11.3624 17.3094 11.4506 17.4842 11.5628 17.639C11.5117 17.6532 11.4605 17.671 11.4093 17.6923C11.4122 17.6923 11.4143 17.6923 11.4157 17.6923C11.3418 17.7164 11.2672 17.742 11.1918 17.769C11.1009 17.7988 11.0071 17.8343 10.9104 17.8755C10.8891 17.8855 10.8742 17.8926 10.8656 17.8969L10.8528 17.9032C10.8546 17.9015 10.8567 17.9 10.8592 17.899C10.8094 17.9192 10.7589 17.9356 10.7078 17.948C10.6425 17.9636 10.592 17.9942 10.5565 18.0396C10.1769 18.2016 9.80522 18.3799 9.44133 18.5745C8.00566 19.3431 6.60482 20.1727 5.2388 21.0634C4.89197 21.2907 4.55011 21.5209 4.21322 21.7539C2.96514 22.619 2.04902 23.7356 1.46484 25.1037C1.63913 25.2117 1.79763 25.3382 1.94032 25.483C2.07443 25.1686 2.22368 24.8582 2.38808 24.5518C2.77898 23.8202 3.29994 23.1965 3.95097 22.6808C4.90618 21.9236 5.90831 21.2218 6.95734 20.5754C8.43138 19.6648 9.96016 18.9048 11.5437 18.2953C11.538 18.2826 11.528 18.262 11.5138 18.2335C11.5607 18.2179 11.6076 18.2016 11.6545 18.1845C11.737 18.1561 11.8208 18.1341 11.9061 18.1185C11.9303 18.1142 11.9537 18.1071 11.9765 18.0972C12.0021 18.1242 12.0291 18.1497 12.0575 18.1739C12.194 18.2946 12.3319 18.4132 12.4712 18.5297C12.6446 18.6732 12.8159 18.8167 12.985 18.9602H12.9829C13.0113 18.9801 13.0305 18.9957 13.0404 19.0071C13.1257 19.0753 13.216 19.1371 13.3112 19.1925C13.405 19.245 13.5017 19.2905 13.6012 19.3288L13.5969 19.3246C13.6822 19.3573 13.7675 19.3899 13.8528 19.4226C13.9082 19.4425 13.9644 19.4631 14.0212 19.4844C14.3965 19.7245 14.7938 19.9248 15.2131 20.0853C15.6353 20.2473 16.0724 20.3311 16.5244 20.3368C16.5386 20.3368 16.5529 20.3361 16.5671 20.3346C16.8713 20.3219 17.1719 20.2792 17.469 20.2068C17.759 20.1343 18.0283 20.0129 18.2771 19.8424L18.3368 19.8019H18.341C18.3482 19.7962 18.356 19.7905 18.3645 19.7849C18.3702 19.7806 18.3752 19.7763 18.3794 19.7721C18.3808 19.7707 18.383 19.7699 18.3858 19.7699C18.5422 19.6577 18.6964 19.5462 18.8485 19.4354C18.9025 19.3928 18.9686 19.3359 19.0468 19.2649C19.3823 18.9424 19.7277 18.6299 20.083 18.3273C20.2934 18.1469 20.4668 17.9423 20.6033 17.7136C20.7511 17.7406 20.9025 17.7562 21.0574 17.7605C21.2209 17.7633 21.383 17.7882 21.5436 17.8351L21.5073 17.8329L21.5457 17.8393C21.6225 17.8507 21.6985 17.8684 21.7739 17.8926C22.1591 18.0148 22.5244 18.176 22.8698 18.3763C23.3176 18.6363 23.7788 18.8693 24.2536 19.0753C25.1988 19.6947 26.1263 20.3453 27.0361 21.0272C27.3715 21.2815 27.7056 21.5322 28.0382 21.7794C28.5911 22.1928 29.019 22.7057 29.3218 23.318C29.5181 23.7104 29.7342 24.0925 29.97 24.4644C30.1285 24.2695 30.2656 24.1076 30.3815 23.9786C30.057 23.2092 29.5844 22.5479 28.9636 21.9946C27.6103 20.7914 26.174 19.6982 24.6544 18.7151C24.4028 18.5503 24.1505 18.3848 23.8975 18.2186C22.9366 17.5836 21.9096 17.2583 20.8165 17.2427C20.9515 16.8207 21.0375 16.3881 21.0745 15.9449C21.1115 15.4946 21.1399 15.0435 21.1598 14.5918C21.4299 14.5676 21.631 14.4355 21.7632 14.1954C21.9124 13.9227 22.0318 13.6364 22.1214 13.3366C22.2536 12.8962 22.3694 12.453 22.4689 12.0069C22.5528 11.6219 22.535 11.2433 22.4156 10.8711C22.2763 10.435 21.9842 10.1715 21.5393 10.0806C21.5464 10.0053 21.5486 9.9314 21.5457 9.85895C21.5414 9.61886 21.5237 9.38019 21.4924 9.14295C21.4569 8.8915 21.4142 8.64147 21.3645 8.39286C21.3645 8.38718 21.3631 8.38221 21.3602 8.37795V8.36516C21.3588 8.36374 21.3581 8.36161 21.3581 8.35877L21.3602 8.36303L21.3581 8.35664C21.3538 8.32538 21.3495 8.29555 21.3453 8.26713C21.3439 8.25293 21.3417 8.24014 21.3389 8.22878C21.3408 8.23163 21.3422 8.23447 21.3432 8.2373C21.3018 7.87081 21.2577 7.50642 21.211 7.14413C21.1527 6.68527 20.9501 6.30312 20.6033 5.99768ZM20.469 6.67745C20.54 6.77264 20.5869 6.87847 20.6097 6.99496C20.6964 7.42257 20.7604 7.85373 20.8016 8.28844C20.8005 8.28635 20.7998 8.28422 20.7994 8.28205C20.8041 8.31837 20.8098 8.35388 20.8165 8.3886C20.8506 8.61022 20.8847 8.83254 20.9188 9.05558C20.9615 9.33971 20.9871 9.62454 20.9956 9.91009C20.997 9.98112 20.997 10.0365 20.9956 10.0763C20.9942 10.0806 20.9935 10.0855 20.9935 10.0912L20.9956 10.0891C20.9943 10.0944 20.9936 10.0987 20.9935 10.1019V10.104C20.9935 10.1056 20.9935 10.107 20.9935 10.1083L20.9892 10.1104V10.1125C20.9892 10.1196 20.9892 10.1253 20.9892 10.1296C20.9879 10.1349 20.9872 10.1398 20.9871 10.1445C20.9871 10.1438 20.9871 10.1424 20.9871 10.1402C20.9729 10.2496 20.9565 10.359 20.938 10.4684C20.9139 10.6105 20.9288 10.7447 20.9828 10.8711C21.0141 10.9379 21.0653 10.9741 21.1363 10.9798C21.3709 11.0026 21.4995 10.8854 21.5223 10.6282C21.5734 10.6424 21.6196 10.6652 21.6608 10.6964C21.7106 10.7333 21.7554 10.7738 21.7952 10.8179C21.808 10.8321 21.82 10.8477 21.8314 10.8648L21.8357 10.8669C21.8371 10.8697 21.8378 10.8719 21.8378 10.8733C21.8421 10.8775 21.8456 10.8804 21.8485 10.8818C21.8499 10.8846 21.8513 10.8882 21.8527 10.8925L21.857 10.8946C21.8641 10.9074 21.8719 10.9194 21.8805 10.9308C21.8947 10.9777 21.9089 11.0253 21.9231 11.0736C21.9657 11.2242 21.9771 11.3755 21.9572 11.5275C21.8947 11.9878 21.7994 12.4409 21.6715 12.887C21.6388 12.9992 21.609 13.1115 21.582 13.2237C21.5137 13.5291 21.3851 13.7976 21.196 14.0292C21.1562 13.9994 21.1221 13.9518 21.0937 13.8864C21.0582 13.8111 20.9992 13.7714 20.9167 13.7671C20.6893 13.7557 20.5827 13.8637 20.5969 14.091C20.6196 14.4192 20.6211 14.7495 20.6012 15.0819C20.5741 15.528 20.5251 15.9719 20.454 16.4137C20.4455 16.4947 20.4356 16.5764 20.4242 16.6588C20.3432 17.1176 20.1385 17.5069 19.8101 17.8265C19.7149 17.9174 19.6189 18.0084 19.5223 18.0993C19.2024 18.4019 18.8762 18.696 18.5436 18.9815C18.4498 19.0525 18.3588 19.1257 18.2707 19.201C17.9096 19.4965 17.501 19.6819 17.0447 19.7572C16.5855 19.8325 16.1342 19.804 15.6907 19.6719C15.4022 19.5853 15.1264 19.473 14.8635 19.3352C14.8549 19.3168 14.845 19.2983 14.8336 19.2798C14.7625 19.1861 14.668 19.1193 14.55 19.0795C14.4605 19.0468 14.3709 19.0163 14.2814 18.9879C14.2231 18.951 14.1648 18.9154 14.1065 18.8813C14.1065 18.8956 14.1051 18.9105 14.1023 18.9261C14.0411 18.9062 13.9793 18.8863 13.9168 18.8664C13.7078 18.7997 13.5202 18.6974 13.3539 18.5596C13.3567 18.5596 13.3589 18.5603 13.3603 18.5617C13.2522 18.4651 13.1414 18.3721 13.0277 18.2826C12.9395 18.2129 12.8535 18.1412 12.7697 18.0673C12.6161 17.9295 12.4619 17.7903 12.307 17.6497C12.2288 17.5772 12.1549 17.4991 12.0852 17.4153C11.9459 17.2462 11.845 17.0537 11.7825 16.8378C11.7171 16.6176 11.6609 16.3945 11.614 16.1687C11.5472 15.8533 11.4904 15.5351 11.4434 15.214C11.4093 14.9839 11.3809 14.753 11.3582 14.5214C11.3667 14.5243 11.3752 14.5264 11.3837 14.5278C11.3724 14.4611 11.3617 14.3943 11.3518 14.3275C11.3205 14.1201 11.2963 13.912 11.2793 13.7032C11.2594 13.4744 11.14 13.3651 10.9211 13.375C10.8827 13.3778 10.8528 13.3935 10.8315 13.4219C10.7249 13.5739 10.6268 13.733 10.5373 13.8992C10.5316 13.9006 10.5245 13.9028 10.5159 13.9056C10.5117 13.907 10.5074 13.9077 10.5032 13.9077C10.4989 13.9092 10.4953 13.9113 10.4925 13.9141C10.4754 13.9099 10.4591 13.907 10.4435 13.9056C10.3496 13.8928 10.2672 13.8537 10.1961 13.7884C10.0497 13.6549 9.95731 13.4879 9.91894 13.2876C9.87345 13.0546 9.83081 12.8202 9.791 12.5844C9.78105 12.5105 9.77395 12.4345 9.76968 12.3564C9.75547 12.051 9.75973 11.7462 9.78248 11.4422C9.80238 11.1538 9.87345 10.8825 9.99569 10.6282C10.0113 10.6169 10.0284 10.6083 10.0469 10.6026C10.0852 10.5884 10.1222 10.5735 10.1577 10.5579C10.1862 10.5437 10.2153 10.5323 10.2452 10.5238C10.2722 10.5238 10.2978 10.5231 10.3219 10.5217C10.3759 10.5174 10.4285 10.5103 10.4797 10.5004C10.5337 10.4876 10.582 10.4975 10.6247 10.5302C10.6375 10.5543 10.651 10.5764 10.6652 10.5963C10.695 10.6772 10.7398 10.7525 10.7995 10.8221C10.8464 10.8747 10.9033 10.8946 10.9701 10.8818C11.2189 10.8363 11.2949 10.6936 11.1982 10.4535C11.1997 10.4535 11.2004 10.4549 11.2004 10.4577C11.2018 10.4606 11.2039 10.4656 11.2068 10.4727C11.1727 10.332 11.1414 10.1921 11.113 10.0529C11.0518 9.77726 11.0099 9.49953 10.9872 9.21967C10.9573 8.87161 10.9573 8.52427 10.9872 8.17764C10.99 8.16627 10.9914 8.15562 10.9914 8.14567C10.9971 8.09737 11.0021 8.04907 11.0063 8.00077C11.0319 7.76068 11.0781 7.52415 11.1449 7.29117C11.2117 7.05676 11.3013 6.8323 11.4136 6.61779C11.4108 6.62489 11.4079 6.63199 11.4051 6.6391C11.4008 6.6462 11.3972 6.6533 11.3944 6.66041C11.3901 6.66751 11.3873 6.67532 11.3859 6.68385C11.4186 6.62276 11.4584 6.56807 11.5053 6.51976C11.6119 6.40896 11.7199 6.29957 11.8294 6.1916C11.9374 6.08647 12.0483 5.98277 12.162 5.88048C12.2004 5.86343 12.2387 5.84781 12.2771 5.8336C12.3923 5.7924 12.5102 5.75334 12.6311 5.7164C12.7476 5.68089 12.867 5.65389 12.9893 5.63542C12.9807 5.63542 12.9729 5.63613 12.9658 5.63755C12.9573 5.63755 12.9488 5.63898 12.9402 5.64182C12.936 5.64182 12.9331 5.64182 12.9317 5.64182C13.2615 5.58499 13.5941 5.54948 13.9296 5.53527C14.1144 5.52675 14.2977 5.52462 14.4797 5.52888C14.7213 5.53314 14.9637 5.54735 15.2067 5.5715C15.491 5.59707 15.776 5.61127 16.0617 5.61411C16.4981 5.61838 16.9338 5.61412 17.3688 5.60133C17.8094 5.59139 18.2501 5.57931 18.6907 5.5651C19.029 5.55516 19.3361 5.64253 19.6118 5.82721C19.6843 5.8954 19.7589 5.96075 19.8357 6.02326C20.0773 6.21646 20.2884 6.43453 20.469 6.67745ZM21.5308 10.1722C21.5308 10.1793 21.5301 10.1878 21.5287 10.1978C21.5287 10.1949 21.5287 10.1914 21.5287 10.1871C21.5287 10.1828 21.5294 10.1779 21.5308 10.1722ZM10.6375 13.75C10.6389 13.7429 10.641 13.738 10.6439 13.7351C10.6451 13.7314 10.6465 13.7278 10.6481 13.7245C10.6465 13.728 10.6451 13.7323 10.6439 13.7373C10.641 13.7415 10.6389 13.7458 10.6375 13.75ZM20.3837 12.6313C20.2444 12.5461 20.1058 12.5354 19.9679 12.5993C19.9082 12.6277 19.8748 12.6739 19.8677 12.7378C19.8364 12.9808 19.9558 13.1243 20.2259 13.1683C20.3311 13.191 20.4384 13.196 20.5478 13.1832C20.889 13.1449 21.1193 12.9659 21.2387 12.6462C21.3339 12.3905 21.3147 12.1454 21.1811 11.911C21.0518 11.6809 20.8591 11.585 20.6033 11.6234C20.4071 11.6518 20.2998 11.7633 20.2813 11.9579C20.2714 12.0616 20.3119 12.1369 20.4029 12.1838C20.5208 12.2449 20.6289 12.2449 20.727 12.1838C20.7383 12.2023 20.7454 12.2214 20.7483 12.2413C20.7596 12.2854 20.7632 12.3301 20.7589 12.3756C20.7561 12.4125 20.749 12.4466 20.7376 12.4779C20.6765 12.5944 20.5791 12.6505 20.4455 12.6462C20.4213 12.6462 20.4007 12.6412 20.3837 12.6313ZM10.2217 11.9004C10.162 12.0098 10.1464 12.1234 10.1748 12.2413C10.2558 12.588 10.484 12.7925 10.8592 12.855C10.9189 12.8721 10.9758 12.8671 11.0298 12.8401C11.1776 12.7691 11.2281 12.6547 11.1812 12.497C11.1698 12.4587 11.1478 12.4303 11.1151 12.4118C10.9729 12.3365 10.8329 12.2612 10.695 12.1859C10.7036 12.1575 10.7178 12.1312 10.7377 12.1071C10.7647 12.0716 10.796 12.0382 10.8315 12.0069C10.8585 11.9856 10.8884 11.9686 10.9211 11.9558C10.9538 12.0041 10.9985 12.0403 11.0554 12.0645C11.1179 12.0915 11.1798 12.0886 11.2409 12.0559C11.4456 11.948 11.479 11.7981 11.3411 11.6063C11.2714 11.5083 11.1769 11.4536 11.0575 11.4422C10.6823 11.4039 10.4037 11.5566 10.2217 11.9004ZM15.4114 16.8527C15.184 16.8087 14.9857 16.7099 14.8166 16.5565C14.7284 16.4755 14.6282 16.4166 14.5159 16.3796C14.4491 16.3555 14.3887 16.3654 14.3347 16.4095C14.147 16.5615 14.1456 16.7206 14.3304 16.8868C14.4342 16.9805 14.5465 17.0608 14.6673 17.1276C15.0696 17.3506 15.501 17.4621 15.9615 17.4621C15.9757 17.4621 15.99 17.4628 16.0042 17.4643C16.5841 17.5012 17.1101 17.3613 17.582 17.0445C17.7369 16.9422 17.8435 16.8079 17.9018 16.6417C17.9288 16.5707 17.9167 16.5068 17.8656 16.4499C17.7007 16.2695 17.5457 16.2766 17.4008 16.4713C17.2245 16.6616 17.0091 16.7838 16.7547 16.8378C16.3069 16.9372 15.8592 16.9422 15.4114 16.8527ZM14.0959 11.3208C14.2238 11.2611 14.275 11.1638 14.2494 11.0288C14.2167 10.8456 14.1101 10.744 13.9296 10.7241C13.6737 10.6943 13.56 10.8058 13.5884 11.0587C13.5842 11.0814 13.582 11.1041 13.582 11.1269C13.5849 11.1823 13.6033 11.2334 13.6375 11.2803C13.673 11.3314 13.7213 11.3662 13.7824 11.3847C13.7995 11.3861 13.8158 11.3883 13.8315 11.3911C13.8727 11.3939 13.9125 11.3897 13.9509 11.3783C13.9836 11.3684 14.0141 11.3542 14.0426 11.3357C14.0596 11.3314 14.0774 11.3265 14.0959 11.3208ZM16.5415 14.6045C16.631 14.5662 16.6929 14.5044 16.727 14.4192C16.8066 14.2302 16.7497 14.1045 16.5564 14.042C16.5266 14.032 16.4974 14.0342 16.469 14.0484C16.3027 14.1393 16.1321 14.1606 15.9573 14.1123C15.9516 14.1052 15.9459 14.0988 15.9402 14.0931C15.9217 14.0775 15.9047 14.0612 15.889 14.0441C15.872 14.0285 15.8556 14.0114 15.84 13.993C15.8841 13.7415 15.9679 13.5043 16.0916 13.2812C16.1328 13.2102 16.1634 13.1349 16.1833 13.0554C16.2401 12.8309 16.152 12.7137 15.9189 12.7038C15.8777 12.7023 15.845 12.7158 15.8208 12.7442C15.5621 13.0483 15.3937 13.4006 15.3155 13.8012C15.3041 13.8637 15.3013 13.9248 15.307 13.9844C15.3453 14.3453 15.5472 14.5733 15.9125 14.6685C16.13 14.7125 16.3396 14.6912 16.5415 14.6045ZM18.4732 11.1801C18.5159 11.102 18.5102 11.026 18.4562 10.9521C18.2956 10.7333 18.1136 10.7 17.9103 10.852C17.8748 10.8662 17.8414 10.8868 17.8101 10.9138C17.7049 11.0047 17.6836 11.1126 17.7462 11.2377C17.803 11.3542 17.8983 11.4124 18.0319 11.4124C18.238 11.4337 18.3851 11.3563 18.4732 11.1801ZM18.0809 8.98313C17.6189 8.92773 17.184 9.00941 16.776 9.22819C16.7092 9.26654 16.6566 9.31769 16.6182 9.38162C16.5102 9.55777 16.5486 9.69131 16.7334 9.78223C16.7803 9.80496 16.8251 9.80496 16.8677 9.78223C17.2799 9.55493 17.7199 9.47751 18.1875 9.54996C18.6381 9.62383 19.0582 9.78223 19.4476 10.0252C19.6111 10.0536 19.7184 9.98893 19.7696 9.83124C19.8066 9.71759 19.776 9.62739 19.6779 9.56062C19.2984 9.30064 18.8847 9.12733 18.437 9.04067C18.319 9.01652 18.2003 8.99734 18.0809 8.98313ZM12.2921 10.087C12.1201 10.2873 12.1222 10.4712 12.2984 10.6389C12.4264 10.7 12.5351 10.6779 12.6247 10.5728C12.6872 10.4989 12.7512 10.4272 12.8166 10.3576C12.99 10.1743 13.2004 10.0465 13.4477 9.97402C13.7561 9.88026 14.0554 9.82556 14.3453 9.80994C14.5287 9.79999 14.7085 9.81278 14.8848 9.84829C14.9459 9.86108 15.0063 9.86463 15.066 9.85895C15.292 9.83338 15.3745 9.7112 15.3133 9.49242C15.3048 9.46117 15.2863 9.43844 15.2579 9.42424C14.9054 9.25802 14.5301 9.21398 14.1321 9.29212C13.8279 9.2978 13.5351 9.34752 13.2537 9.44128C12.8685 9.56772 12.5479 9.78294 12.2921 10.087ZM20.825 8.46318C20.825 8.45608 20.8243 8.44969 20.8229 8.444C20.8229 8.44684 20.8229 8.44897 20.8229 8.45039C20.8229 8.45608 20.8236 8.46247 20.825 8.46957C20.825 8.46673 20.825 8.4646 20.825 8.46318Z" fill="black"/>
</svg>
