<svg xmlns="http://www.w3.org/2000/svg" width="11" height="11" fill="none"><path fill="#887F00" d="m4.4 3.3-.3.9-1 .1H1.8c-.4.1-1 0-1.3.3l.1.2 1 1c.6.3 1.7.6 1.7 1v.3l-.4 1.3c-.3.9-1 2-.6 2l.3-.2 1.6-.7c.5-.2 1-1 1.4-.9l.4.2 1 .7c1.1.7 1.7 1.1 1.9 1v-.1l-.4-1.5C8.3 8.3 8 8 8 7.5c-.1-.4 0-.8.1-1 0-.2.3-.3.5-.5l.5-.6c.4-.2 1.3-.6 1.4-1l-.6-.1L7.4 4l-.7-.2v-.6l-.4-.9c0-.4 0-.8-.2-1-.2-.2-.6-1-.6-.8l-.3.9-.8 1.9Z"/><path stroke="#000" stroke-linecap="round" d="M4.1 4.2s.2-.3.3-1l.8-1.8.3-.9c0-.2.4.6.6.9l.2.9c.1.3.3.6.3 1l.1.5.7.2 2.5.3c.6 0 .6.1.6.2 0 .3-1 .7-1.4 1-.2 0-.4.3-.5.5l-.5.5c-.1.2-.2.6-.1 1 0 .3.3.8.5 1.4l.4 1.5s0 0 0 0c-.2.2-.8-.2-1.8-.9-.4-.3-1-.5-1.1-.7l-.4-.2c-.4 0-1 .7-1.4.9l-1.6.7-.3.2c-.4 0 .3-1.1.6-2l.4-1.3v-.3c0-.4-1-.7-1.7-1l-1-1-.1-.1v-.1c.3-.2.9-.2 1.3-.2L3 4.3l1-.1"/></svg>