<svg xmlns="http://www.w3.org/2000/svg" width="25" height="24" fill="none"><path fill="#EEDE00" d="M10 7.1a9.3 9.3 0 0 1-.6 2L7 9.4l-3 .1c-1 0-2.3 0-2.9.4v.3l.1.2c.6.6 1.6 1.6 2.4 2.1C5 13.5 7.4 14 7.5 15c0 .2 0 .4-.2.6-.2.6-.3 1.9-.7 3-.8 1.8-2.3 4.3-1.4 4.2l.7-.4 3.7-1.5c1-.4 2.2-2.1 3-2l1 .4c.4.4 1.6 1 2.6 1.6 2.3 1.6 3.6 2.4 4.1 2.2v-.3l-1-3.2c-.3-1.3-1-2.4-1.2-3.1-.1-.8 0-1.7.4-2.3.2-.4.6-.6 1-1s.8-1 1.2-1.2c1-.6 3.1-1.4 3.3-2.2 0-.1 0-.2-1.4-.4l-5.7-.7c-1.4-.1-1.5-.2-1.6-.3L15.1 7l-.7-2c-.2-.8-.3-1.7-.6-2.1-.5-.5-1.2-2.3-1.4-1.8L12 2.9c-.4 1-1 1.6-1.8 4.2Z"/><path stroke="#000" stroke-linecap="round" stroke-width="2" d="m9.4 9.1.7-2c.7-2.6 1.4-3.1 1.8-4.2l.5-1.8c.2-.5 1 1.3 1.4 1.8.3.4.4 1.3.6 2l.7 2.1.2 1.3c0 .1.2.2 1.6.3l5.7.7c1.4.2 1.4.3 1.4.4-.2.8-2.3 1.6-3.3 2.2L19.6 13c-.5.5-.9.7-1.1 1.1-.3.6-.5 1.5-.4 2.3.2.7.9 1.8 1.2 3.1l1 3.2v.3c-.5.2-1.8-.6-4.1-2.2l-2.7-1.6a2 2 0 0 0-.8-.3c-1-.2-2 1.5-3 1.9-1.8.7-3 1-3.8 1.5l-.7.4c-.9.1.6-2.4 1.4-4.3.4-1 .5-2.3.7-2.9l.2-.6c0-.9-2.5-1.5-3.9-2.4-.8-.5-1.8-1.5-2.4-2a.8.8 0 0 1-.2-.3l.1-.3c.6-.3 1.9-.3 2.8-.4L7 9.4 9.5 9"/></svg>