<svg width="310" height="36" viewBox="0 0 310 36" fill="none" xmlns="http://www.w3.org/2000/svg">
<rect x="1" y="1" width="308" height="34" rx="7" fill="#EBE8E8"/>
<rect x="1" y="1" width="308" height="34" rx="7" stroke="black" stroke-width="2"/>
<path d="M53.8828 24.0938C53.6016 24.0938 53.3438 23.9844 53.1094 23.7656C51.5312 22.2865 49.7969 21.2604 47.9062 20.6875C47.9635 22.2031 47.9922 23.0443 47.9922 23.2109C47.9922 23.5078 47.888 23.7604 47.6797 23.9688C47.4714 24.1719 47.2109 24.2734 46.8984 24.2734C46.5859 24.2734 46.3255 24.1719 46.1172 23.9688C45.9089 23.7604 45.8047 23.5078 45.8047 23.2109C45.8047 22.8203 45.8099 22.237 45.8203 21.4609C45.8307 20.6797 45.8359 20.0938 45.8359 19.7031L45.8516 13.3984C45.8516 13.0599 45.9531 12.7526 46.1562 12.4766C46.4219 12.1224 46.7891 11.9635 47.2578 12C48.5234 12.0938 49.1719 12.1432 49.2031 12.1484C49.9323 12.237 50.5521 12.4115 51.0625 12.6719C53.2865 13.7917 54.3984 15.1797 54.3984 16.8359C54.3984 17.5182 54.1641 18.1224 53.6953 18.6484C53.2318 19.1693 52.5339 19.6094 51.6016 19.9688C52.9818 20.7396 54.0208 21.526 54.7188 22.3281C54.901 22.5365 54.9922 22.7682 54.9922 23.0234C54.9922 23.3151 54.8828 23.5677 54.6641 23.7812C54.4453 23.9896 54.1849 24.0938 53.8828 24.0938ZM48.875 14.2656C48.8333 14.2604 48.5286 14.2396 47.9609 14.2031V18.3516C48.0911 18.3568 48.2057 18.3594 48.3047 18.3594C49.5807 18.3594 50.526 18.2005 51.1406 17.8828C51.4062 17.7474 51.6484 17.5677 51.8672 17.3438C52.0911 17.1198 52.2031 16.9505 52.2031 16.8359C52.2031 16.2526 51.8333 15.6901 51.0938 15.1484C50.3906 14.638 49.651 14.3438 48.875 14.2656ZM60.0703 24.3594C58.8255 24.3594 57.8073 24.0625 57.0156 23.4688C56.1406 22.8125 55.7031 21.888 55.7031 20.6953C55.7031 19.3776 56.0495 18.263 56.7422 17.3516C57.513 16.3411 58.5521 15.8359 59.8594 15.8359C60.7656 15.8359 61.5182 15.9818 62.1172 16.2734C62.9036 16.6589 63.2969 17.2578 63.2969 18.0703C63.2969 18.6432 62.9766 19.151 62.3359 19.5938C62.0443 19.7969 61.4583 20.0938 60.5781 20.4844L57.9453 21.6484C58.1953 21.9193 58.4974 22.1224 58.8516 22.2578C59.2057 22.3932 59.612 22.4609 60.0703 22.4609C60.7682 22.4609 61.3594 22.3177 61.8438 22.0312C62.276 21.776 62.6224 21.6484 62.8828 21.6484C63.4245 21.6484 63.6953 21.9115 63.6953 22.4375C63.6953 23.0312 63.2604 23.5156 62.3906 23.8906C61.6615 24.2031 60.888 24.3594 60.0703 24.3594ZM59.8594 17.7266C59.375 17.7266 58.9609 17.888 58.6172 18.2109C58.2734 18.5339 57.9974 19.0182 57.7891 19.6641C58.3776 19.4089 58.9635 19.1562 59.5469 18.9062C60.25 18.5885 60.8099 18.2943 61.2266 18.0234C60.8776 17.8255 60.4219 17.7266 59.8594 17.7266ZM71.8047 18.0312C71.362 18.5312 70.8281 19.2057 70.2031 20.0547C69.3333 21.2318 68.7917 21.9557 68.5781 22.2266C68.8958 22.2161 69.1589 22.2109 69.3672 22.2109C69.5755 22.2109 69.8776 22.25 70.2734 22.3281C70.6745 22.401 70.9766 22.4375 71.1797 22.4375C71.4922 22.4375 71.75 22.5365 71.9531 22.7344C72.1615 22.9271 72.2656 23.1719 72.2656 23.4688C72.2656 23.7656 72.1641 24.0104 71.9609 24.2031C71.7578 24.3958 71.4974 24.4922 71.1797 24.4922C70.9714 24.4922 70.6667 24.4557 70.2656 24.3828C69.8698 24.3099 69.5703 24.2734 69.3672 24.2734C68.2005 24.2734 67.1094 24.3698 66.0938 24.5625C65.9583 24.5885 65.8438 24.6016 65.75 24.6016C65.4635 24.6016 65.2188 24.5234 65.0156 24.3672C64.7865 24.1953 64.6719 23.9688 64.6719 23.6875C64.6719 23.3542 64.8359 23.0495 65.1641 22.7734C66.4609 21.6745 67.8177 20.0677 69.2344 17.9531C68.9115 17.9688 68.6016 17.9766 68.3047 17.9766C67.5078 17.9766 66.7005 17.9193 65.8828 17.8047C65.2422 17.7161 64.9219 17.3776 64.9219 16.7891C64.9219 16.5026 65.0208 16.2578 65.2188 16.0547C65.4167 15.8516 65.6693 15.75 65.9766 15.75C66.2318 15.75 66.6172 15.7786 67.1328 15.8359C67.6536 15.888 68.0443 15.9141 68.3047 15.9141C68.6589 15.9141 69.1901 15.8932 69.8984 15.8516C70.6068 15.8047 71.138 15.7812 71.4922 15.7812C72.1432 15.7812 72.4688 16.0469 72.4688 16.5781C72.4688 17.0469 72.2474 17.5312 71.8047 18.0312ZM80.5391 19.4844C80.5391 19.8333 80.5417 20.3594 80.5469 21.0625C80.5521 21.7656 80.5547 22.2917 80.5547 22.6406C80.5547 22.75 80.5625 22.9141 80.5781 23.1328C80.599 23.3464 80.6094 23.5078 80.6094 23.6172C80.6094 23.9089 80.5026 24.1484 80.2891 24.3359C80.0807 24.5286 79.8229 24.625 79.5156 24.625C79.0833 24.625 78.7682 24.4297 78.5703 24.0391C77.9036 24.2839 77.2135 24.4062 76.5 24.4062C75.7604 24.4062 75.138 24.25 74.6328 23.9375C74.0651 23.5781 73.7266 23.0547 73.6172 22.3672C73.4141 21.0651 73.3125 19.901 73.3125 18.875C73.3125 18.1979 73.3906 17.4245 73.5469 16.5547C73.651 15.9661 74.0026 15.6719 74.6016 15.6719C74.9036 15.6719 75.1615 15.7682 75.375 15.9609C75.5885 16.1484 75.6953 16.388 75.6953 16.6797C75.6953 16.9089 75.6562 17.2682 75.5781 17.7578C75.5052 18.2474 75.4688 18.6198 75.4688 18.875C75.4688 19.6094 75.4922 20.2526 75.5391 20.8047C75.5911 21.3516 75.6667 21.8047 75.7656 22.1641C75.8958 22.2214 76.0208 22.2656 76.1406 22.2969C76.2656 22.3281 76.3854 22.3438 76.5 22.3438C77.0781 22.3438 77.7135 22.2604 78.4062 22.0938C78.4062 21.6927 78.4036 21.237 78.3984 20.7266C78.388 20.1172 78.3828 19.6797 78.3828 19.4141C78.3828 18.3464 78.4323 17.4245 78.5312 16.6484C78.6094 16.0286 78.9635 15.7188 79.5938 15.7188C79.901 15.7188 80.1641 15.8151 80.3828 16.0078C80.6016 16.2005 80.7031 16.4427 80.6875 16.7344C80.5885 18.7188 80.5391 19.6354 80.5391 19.4844ZM84.0469 17.0859C84.8333 16.1745 85.5781 15.7188 86.2812 15.7188C87.0833 15.7188 87.6719 16.0234 88.0469 16.6328C88.3646 16.3516 88.7161 16.1406 89.1016 16C89.487 15.8594 89.9036 15.7891 90.3516 15.7891C91.3724 15.7891 92.0651 16.2969 92.4297 17.3125C92.5026 17.5208 92.6146 18.2266 92.7656 19.4297C92.9115 20.2734 93.099 21.6797 93.3281 23.6484C93.349 23.9453 93.2474 24.1901 93.0234 24.3828C92.7995 24.5755 92.5365 24.6719 92.2344 24.6719C91.6354 24.6719 91.2839 24.375 91.1797 23.7812C91.0859 23.2448 90.9896 22.487 90.8906 21.5078C90.7865 20.4349 90.7005 19.6745 90.6328 19.2266C90.4922 18.2943 90.3125 17.8281 90.0938 17.8281C89.974 17.8281 89.7005 17.9479 89.2734 18.1875C88.8464 18.4271 88.5339 18.6328 88.3359 18.8047C88.3359 19.3984 88.4062 20.2526 88.5469 21.3672C88.6927 22.5078 88.7656 23.362 88.7656 23.9297C88.7656 24.2266 88.6641 24.474 88.4609 24.6719C88.2578 24.8698 88 24.9688 87.6875 24.9688C87.375 24.9688 87.1172 24.8698 86.9141 24.6719C86.7109 24.474 86.6094 24.2266 86.6094 23.9297C86.6094 23.3359 86.5443 22.4635 86.4141 21.3125C86.2891 20.1562 86.2266 19.2812 86.2266 18.6875C86.2266 18.3542 86.1979 18.0885 86.1406 17.8906C85.5365 18.2396 84.9297 18.8203 84.3203 19.6328C84.2943 19.6693 84.25 19.724 84.1875 19.7969C84.1667 20.849 84.1562 21.6745 84.1562 22.2734C84.1562 22.4193 84.151 22.6172 84.1406 22.8672C84.1302 23.112 84.125 23.2943 84.125 23.4141C84.125 23.6953 84.0104 23.9167 83.7812 24.0781C83.5729 24.2292 83.3151 24.3047 83.0078 24.3047C82.5651 24.3047 82.2656 24.112 82.1094 23.7266C82 23.4661 81.9453 23.0521 81.9453 22.4844V19.5781C81.9453 19.3177 81.9349 18.9375 81.9141 18.4375C81.8932 17.9323 81.8828 17.5495 81.8828 17.2891C81.8828 16.8255 81.9661 16.4062 82.1328 16.0312C82.3359 15.5625 82.6224 15.3281 82.9922 15.3281C83.2839 15.3281 83.5443 15.4427 83.7734 15.6719C84.0026 15.8958 84.1172 16.1432 84.1172 16.4141C84.1172 16.3047 84.0938 16.5286 84.0469 17.0859ZM101.203 24.5156C100.964 24.5156 100.583 24.2552 100.062 23.7344C99.5833 23.9635 99.1615 24.1354 98.7969 24.25C98.4323 24.3698 98.1224 24.4297 97.8672 24.4297C96.612 24.4297 95.6693 24.0938 95.0391 23.4219C94.4141 22.75 94.1016 21.7448 94.1016 20.4062C94.1016 19.151 94.5651 18.0781 95.4922 17.1875C96.4193 16.2917 97.5286 15.8438 98.8203 15.8438C99.3151 15.8438 99.888 15.9844 100.539 16.2656C101.326 16.6042 101.719 16.9974 101.719 17.4453C101.719 17.6328 101.659 17.7969 101.539 17.9375C101.487 18.1458 101.445 18.4089 101.414 18.7266C101.388 19.0391 101.375 19.4062 101.375 19.8281C101.375 20.8229 101.445 21.5391 101.586 21.9766C101.602 22.0234 101.721 22.2943 101.945 22.7891C102.148 23.237 102.25 23.4922 102.25 23.5547C102.25 23.8307 102.143 24.0599 101.93 24.2422C101.721 24.4245 101.479 24.5156 101.203 24.5156ZM99.2656 19.1562C99.2656 18.9896 99.276 18.7995 99.2969 18.5859C99.3229 18.3672 99.3594 18.125 99.4062 17.8594C99.3021 17.8073 99.2083 17.7708 99.125 17.75C99.0469 17.724 98.9792 17.7109 98.9219 17.7109C98.2135 17.7109 97.5938 17.9896 97.0625 18.5469C96.5312 19.099 96.2656 19.7396 96.2656 20.4688C96.2656 21.1667 96.3906 21.6927 96.6406 22.0469C96.8906 22.3958 97.2656 22.5703 97.7656 22.5703C98.0885 22.5703 98.3932 22.5182 98.6797 22.4141C98.9714 22.3047 99.2448 22.1458 99.5 21.9375C99.3438 20.6979 99.2656 19.7708 99.2656 19.1562ZM108.867 17.7109C108.758 17.7109 108.628 17.7083 108.477 17.7031C108.331 17.6927 108.203 17.6875 108.094 17.6875C107.88 17.6875 107.633 17.7083 107.352 17.75C107.445 19.8542 107.492 21.2292 107.492 21.875C107.492 21.9427 107.495 22.0703 107.5 22.2578C107.505 22.4401 107.508 22.5885 107.508 22.7031C107.508 23.901 107.13 24.5 106.375 24.5C106.089 24.5 105.841 24.4115 105.633 24.2344C105.404 24.0469 105.289 23.8125 105.289 23.5312C105.289 23.3438 105.297 23.0625 105.312 22.6875C105.328 22.3125 105.336 22.0312 105.336 21.8438C105.336 21.2135 105.289 19.8646 105.195 17.7969C104.872 17.7812 104.383 17.7396 103.727 17.6719C103.076 17.599 102.75 17.2604 102.75 16.6562C102.75 16.3646 102.849 16.1172 103.047 15.9141C103.245 15.7109 103.5 15.6094 103.812 15.6094C104.005 15.6094 104.448 15.6406 105.141 15.7031C105.135 15.5365 105.122 15.2604 105.102 14.875C105.081 14.5417 105.07 14.2839 105.07 14.1016C105.07 13.8099 105.177 13.5677 105.391 13.375C105.604 13.1823 105.862 13.0859 106.164 13.0859C106.935 13.0859 107.32 13.7344 107.32 15.0312L107.305 15.6719C107.628 15.625 107.891 15.6016 108.094 15.6016C108.693 15.6016 109.102 15.6406 109.32 15.7188C109.737 15.8646 109.945 16.1823 109.945 16.6719C109.945 16.9688 109.844 17.2161 109.641 17.4141C109.438 17.612 109.18 17.7109 108.867 17.7109ZM117.742 19.4844C117.742 19.8333 117.745 20.3594 117.75 21.0625C117.755 21.7656 117.758 22.2917 117.758 22.6406C117.758 22.75 117.766 22.9141 117.781 23.1328C117.802 23.3464 117.812 23.5078 117.812 23.6172C117.812 23.9089 117.706 24.1484 117.492 24.3359C117.284 24.5286 117.026 24.625 116.719 24.625C116.286 24.625 115.971 24.4297 115.773 24.0391C115.107 24.2839 114.417 24.4062 113.703 24.4062C112.964 24.4062 112.341 24.25 111.836 23.9375C111.268 23.5781 110.93 23.0547 110.82 22.3672C110.617 21.0651 110.516 19.901 110.516 18.875C110.516 18.1979 110.594 17.4245 110.75 16.5547C110.854 15.9661 111.206 15.6719 111.805 15.6719C112.107 15.6719 112.365 15.7682 112.578 15.9609C112.792 16.1484 112.898 16.388 112.898 16.6797C112.898 16.9089 112.859 17.2682 112.781 17.7578C112.708 18.2474 112.672 18.6198 112.672 18.875C112.672 19.6094 112.695 20.2526 112.742 20.8047C112.794 21.3516 112.87 21.8047 112.969 22.1641C113.099 22.2214 113.224 22.2656 113.344 22.2969C113.469 22.3281 113.589 22.3438 113.703 22.3438C114.281 22.3438 114.917 22.2604 115.609 22.0938C115.609 21.6927 115.607 21.237 115.602 20.7266C115.591 20.1172 115.586 19.6797 115.586 19.4141C115.586 18.3464 115.635 17.4245 115.734 16.6484C115.812 16.0286 116.167 15.7188 116.797 15.7188C117.104 15.7188 117.367 15.8151 117.586 16.0078C117.805 16.2005 117.906 16.4427 117.891 16.7344C117.792 18.7188 117.742 19.6354 117.742 19.4844ZM121.633 22.8516C121.633 23.8411 121.273 24.3359 120.555 24.3359C120.242 24.3359 119.984 24.237 119.781 24.0391C119.578 23.8411 119.477 23.5859 119.477 23.2734V12.4688C119.477 12.1667 119.586 11.9193 119.805 11.7266C120.013 11.5495 120.271 11.4609 120.578 11.4609C120.885 11.4609 121.138 11.5547 121.336 11.7422C121.534 11.9245 121.633 12.1667 121.633 12.4688V22.8516ZM137.102 18.3672C137.055 19.1641 136.693 19.5625 136.016 19.5625C135.359 19.5625 135.031 19.224 135.031 18.5469L134.992 17.7578C133.82 17.9453 132.982 18.5469 132.477 19.5625L132.484 23.4922C132.484 23.7891 132.383 24.0339 132.18 24.2266C131.977 24.4245 131.719 24.5234 131.406 24.5234C131.083 24.5234 130.833 24.4193 130.656 24.2109C130.49 24.0234 130.406 23.7839 130.406 23.4922V18.375C130.406 18.2135 130.411 17.974 130.422 17.6562C130.432 17.3333 130.438 17.0911 130.438 16.9297C130.438 16.638 130.523 16.3958 130.695 16.2031C130.872 16.0052 131.122 15.9062 131.445 15.9062C132.023 15.9062 132.367 16.2031 132.477 16.7969C133.398 16.1094 134.422 15.7656 135.547 15.7656C136.589 15.7656 137.109 16.4583 137.109 17.8438C137.109 18.1094 137.107 18.2839 137.102 18.3672ZM144.984 24.5156C144.745 24.5156 144.365 24.2552 143.844 23.7344C143.365 23.9635 142.943 24.1354 142.578 24.25C142.214 24.3698 141.904 24.4297 141.648 24.4297C140.393 24.4297 139.451 24.0938 138.82 23.4219C138.195 22.75 137.883 21.7448 137.883 20.4062C137.883 19.151 138.346 18.0781 139.273 17.1875C140.201 16.2917 141.31 15.8438 142.602 15.8438C143.096 15.8438 143.669 15.9844 144.32 16.2656C145.107 16.6042 145.5 16.9974 145.5 17.4453C145.5 17.6328 145.44 17.7969 145.32 17.9375C145.268 18.1458 145.227 18.4089 145.195 18.7266C145.169 19.0391 145.156 19.4062 145.156 19.8281C145.156 20.8229 145.227 21.5391 145.367 21.9766C145.383 22.0234 145.503 22.2943 145.727 22.7891C145.93 23.237 146.031 23.4922 146.031 23.5547C146.031 23.8307 145.924 24.0599 145.711 24.2422C145.503 24.4245 145.26 24.5156 144.984 24.5156ZM143.047 19.1562C143.047 18.9896 143.057 18.7995 143.078 18.5859C143.104 18.3672 143.141 18.125 143.188 17.8594C143.083 17.8073 142.99 17.7708 142.906 17.75C142.828 17.724 142.76 17.7109 142.703 17.7109C141.995 17.7109 141.375 17.9896 140.844 18.5469C140.312 19.099 140.047 19.7396 140.047 20.4688C140.047 21.1667 140.172 21.6927 140.422 22.0469C140.672 22.3958 141.047 22.5703 141.547 22.5703C141.87 22.5703 142.174 22.5182 142.461 22.4141C142.753 22.3047 143.026 22.1458 143.281 21.9375C143.125 20.6979 143.047 19.7708 143.047 19.1562ZM146 12.6797C145.927 13.4505 145.406 14.0182 144.438 14.3828C143.729 14.6536 142.888 14.7891 141.914 14.7891C141.096 14.7891 140.38 14.5573 139.766 14.0938C139.12 13.6146 138.797 13.0286 138.797 12.3359C138.797 12.1224 138.88 11.9453 139.047 11.8047C139.219 11.6589 139.432 11.5859 139.688 11.5859C139.943 11.5859 140.156 11.6589 140.328 11.8047C140.5 11.9453 140.586 12.1224 140.586 12.3359C140.586 12.5911 140.721 12.8125 140.992 13C141.263 13.1927 141.57 13.2891 141.914 13.2891C143.279 13.2891 144.052 13.0052 144.234 12.4375C144.365 12.0312 144.654 11.8281 145.102 11.8281C145.393 11.8281 145.622 11.9089 145.789 12.0703C145.956 12.2318 146.026 12.4349 146 12.6797ZM152.633 18.2812C152.117 18.2812 151.807 18.0651 151.703 17.6328C151.495 17.5964 151.281 17.5781 151.062 17.5781C149.807 17.5781 149.18 17.75 149.18 18.0938C149.18 18.2969 149.557 18.5703 150.312 18.9141C151.344 19.388 152.042 19.7578 152.406 20.0234C153.161 20.5703 153.539 21.1875 153.539 21.875C153.539 22.7708 153.122 23.4505 152.289 23.9141C151.617 24.2839 150.792 24.4688 149.812 24.4688C149.12 24.4688 148.487 24.362 147.914 24.1484C147.133 23.8568 146.742 23.4271 146.742 22.8594C146.742 22.3385 147.052 22.0781 147.672 22.0781C147.911 22.0781 148.258 22.1536 148.711 22.3047C149.164 22.4557 149.513 22.5312 149.758 22.5312C150.815 22.5312 151.346 22.3177 151.352 21.8906C151.352 21.625 150.984 21.3307 150.25 21.0078C149.177 20.5339 148.49 20.1927 148.188 19.9844C147.453 19.4688 147.086 18.8411 147.086 18.1016C147.086 17.0547 147.641 16.349 148.75 15.9844C149.401 15.7708 150.391 15.6641 151.719 15.6641C152.24 15.6641 152.625 15.7318 152.875 15.8672C153.219 16.0495 153.391 16.3854 153.391 16.875C153.391 17.8125 153.138 18.2812 152.633 18.2812ZM158.539 24.4609C158.091 24.4609 157.62 24.4089 157.125 24.3047L157.117 27.4922C157.117 27.7943 157.016 28.0443 156.812 28.2422C156.609 28.4401 156.352 28.5391 156.039 28.5391C155.727 28.5391 155.469 28.4401 155.266 28.2422C155.062 28.0443 154.961 27.7943 154.961 27.4922C154.961 27.2474 154.966 26.276 154.977 24.5781C154.987 23.3177 154.987 22.2891 154.977 21.4922C154.961 20.3672 154.924 19.3984 154.867 18.5859C154.789 17.4661 154.75 16.9531 154.75 17.0469C154.75 16.6146 154.846 16.2448 155.039 15.9375C155.263 15.5885 155.565 15.4141 155.945 15.4141C156.237 15.4141 156.482 15.513 156.68 15.7109C156.878 15.9089 156.977 16.1458 156.977 16.4219L156.969 16.5C157.318 16.3021 157.667 16.1562 158.016 16.0625C158.37 15.9635 158.724 15.9141 159.078 15.9141C160.276 15.9141 161.151 16.4219 161.703 17.4375C162.115 18.2031 162.32 19.1953 162.32 20.4141C162.32 21.5547 161.995 22.5 161.344 23.25C160.646 24.0573 159.711 24.4609 158.539 24.4609ZM159.078 18C158.75 18 158.417 18.0781 158.078 18.2344C157.74 18.3854 157.398 18.6146 157.055 18.9219C157.117 19.9948 157.148 21.0703 157.148 22.1484C157.612 22.2995 158.076 22.375 158.539 22.375C159.076 22.375 159.487 22.1849 159.773 21.8047C160.034 21.4609 160.164 20.9974 160.164 20.4141C160.164 19.7109 160.133 19.224 160.07 18.9531C159.919 18.3177 159.589 18 159.078 18ZM170.336 19.4844C170.336 19.8333 170.339 20.3594 170.344 21.0625C170.349 21.7656 170.352 22.2917 170.352 22.6406C170.352 22.75 170.359 22.9141 170.375 23.1328C170.396 23.3464 170.406 23.5078 170.406 23.6172C170.406 23.9089 170.299 24.1484 170.086 24.3359C169.878 24.5286 169.62 24.625 169.312 24.625C168.88 24.625 168.565 24.4297 168.367 24.0391C167.701 24.2839 167.01 24.4062 166.297 24.4062C165.557 24.4062 164.935 24.25 164.43 23.9375C163.862 23.5781 163.523 23.0547 163.414 22.3672C163.211 21.0651 163.109 19.901 163.109 18.875C163.109 18.1979 163.188 17.4245 163.344 16.5547C163.448 15.9661 163.799 15.6719 164.398 15.6719C164.701 15.6719 164.958 15.7682 165.172 15.9609C165.385 16.1484 165.492 16.388 165.492 16.6797C165.492 16.9089 165.453 17.2682 165.375 17.7578C165.302 18.2474 165.266 18.6198 165.266 18.875C165.266 19.6094 165.289 20.2526 165.336 20.8047C165.388 21.3516 165.464 21.8047 165.562 22.1641C165.693 22.2214 165.818 22.2656 165.938 22.2969C166.062 22.3281 166.182 22.3438 166.297 22.3438C166.875 22.3438 167.51 22.2604 168.203 22.0938C168.203 21.6927 168.201 21.237 168.195 20.7266C168.185 20.1172 168.18 19.6797 168.18 19.4141C168.18 18.3464 168.229 17.4245 168.328 16.6484C168.406 16.0286 168.76 15.7188 169.391 15.7188C169.698 15.7188 169.961 15.8151 170.18 16.0078C170.398 16.2005 170.5 16.4427 170.484 16.7344C170.385 18.7188 170.336 19.6354 170.336 19.4844ZM177.977 24.5547C177.336 24.5547 176.979 24.2396 176.906 23.6094C176.833 23.0729 176.76 22.5339 176.688 21.9922C176.609 21.4193 176.57 20.8802 176.57 20.375C176.57 20.2396 176.578 20.0078 176.594 19.6797C176.615 19.3516 176.625 19.1198 176.625 18.9844C176.625 18.9479 176.63 18.8568 176.641 18.7109C176.651 18.5599 176.656 18.4375 176.656 18.3438C176.656 17.9115 176.544 17.6953 176.32 17.6953C175.841 17.6953 175.37 17.9766 174.906 18.5391C174.448 19.0964 174.089 19.8047 173.828 20.6641C173.818 20.8359 173.794 21.0651 173.758 21.3516C173.727 21.5859 173.711 21.8151 173.711 22.0391C173.711 22.1849 173.727 22.4062 173.758 22.7031C173.794 22.9948 173.812 23.2135 173.812 23.3594C173.812 23.6562 173.708 23.901 173.5 24.0938C173.297 24.2917 173.039 24.3906 172.727 24.3906C172.414 24.3906 172.156 24.2917 171.953 24.0938C171.75 23.901 171.648 23.6562 171.648 23.3594C171.648 23.2135 171.633 22.9948 171.602 22.7031C171.57 22.4062 171.555 22.1849 171.555 22.0391C171.555 21.5391 171.591 20.8438 171.664 19.9531C171.737 19.0625 171.773 18.3672 171.773 17.8672C171.773 17.7109 171.763 17.4792 171.742 17.1719C171.727 16.8594 171.719 16.6276 171.719 16.4766C171.719 16.1849 171.823 15.9453 172.031 15.7578C172.245 15.5651 172.505 15.4688 172.812 15.4688C173.495 15.4688 173.859 15.8776 173.906 16.6953L173.914 16.7812C174.674 16.0156 175.477 15.6328 176.32 15.6328C177.305 15.6328 177.984 16.0443 178.359 16.8672C178.609 17.4193 178.734 18.2448 178.734 19.3438V19.8984C178.729 20.138 178.727 20.3073 178.727 20.4062C178.727 20.8125 178.781 21.3359 178.891 21.9766C179.005 22.6172 179.062 23.138 179.062 23.5391C179.062 23.8307 178.958 24.0729 178.75 24.2656C178.542 24.4583 178.284 24.5547 177.977 24.5547ZM185.695 18.2812C185.18 18.2812 184.87 18.0651 184.766 17.6328C184.557 17.5964 184.344 17.5781 184.125 17.5781C182.87 17.5781 182.242 17.75 182.242 18.0938C182.242 18.2969 182.62 18.5703 183.375 18.9141C184.406 19.388 185.104 19.7578 185.469 20.0234C186.224 20.5703 186.602 21.1875 186.602 21.875C186.602 22.7708 186.185 23.4505 185.352 23.9141C184.68 24.2839 183.854 24.4688 182.875 24.4688C182.182 24.4688 181.549 24.362 180.977 24.1484C180.195 23.8568 179.805 23.4271 179.805 22.8594C179.805 22.3385 180.115 22.0781 180.734 22.0781C180.974 22.0781 181.32 22.1536 181.773 22.3047C182.227 22.4557 182.576 22.5312 182.82 22.5312C183.878 22.5312 184.409 22.3177 184.414 21.8906C184.414 21.625 184.047 21.3307 183.312 21.0078C182.24 20.5339 181.552 20.1927 181.25 19.9844C180.516 19.4688 180.148 18.8411 180.148 18.1016C180.148 17.0547 180.703 16.349 181.812 15.9844C182.464 15.7708 183.453 15.6641 184.781 15.6641C185.302 15.6641 185.688 15.7318 185.938 15.8672C186.281 16.0495 186.453 16.3854 186.453 16.875C186.453 17.8125 186.201 18.2812 185.695 18.2812ZM194.836 19.4844C194.836 19.8333 194.839 20.3594 194.844 21.0625C194.849 21.7656 194.852 22.2917 194.852 22.6406C194.852 22.75 194.859 22.9141 194.875 23.1328C194.896 23.3464 194.906 23.5078 194.906 23.6172C194.906 23.9089 194.799 24.1484 194.586 24.3359C194.378 24.5286 194.12 24.625 193.812 24.625C193.38 24.625 193.065 24.4297 192.867 24.0391C192.201 24.2839 191.51 24.4062 190.797 24.4062C190.057 24.4062 189.435 24.25 188.93 23.9375C188.362 23.5781 188.023 23.0547 187.914 22.3672C187.711 21.0651 187.609 19.901 187.609 18.875C187.609 18.1979 187.688 17.4245 187.844 16.5547C187.948 15.9661 188.299 15.6719 188.898 15.6719C189.201 15.6719 189.458 15.7682 189.672 15.9609C189.885 16.1484 189.992 16.388 189.992 16.6797C189.992 16.9089 189.953 17.2682 189.875 17.7578C189.802 18.2474 189.766 18.6198 189.766 18.875C189.766 19.6094 189.789 20.2526 189.836 20.8047C189.888 21.3516 189.964 21.8047 190.062 22.1641C190.193 22.2214 190.318 22.2656 190.438 22.2969C190.562 22.3281 190.682 22.3438 190.797 22.3438C191.375 22.3438 192.01 22.2604 192.703 22.0938C192.703 21.6927 192.701 21.237 192.695 20.7266C192.685 20.1172 192.68 19.6797 192.68 19.4141C192.68 18.3464 192.729 17.4245 192.828 16.6484C192.906 16.0286 193.26 15.7188 193.891 15.7188C194.198 15.7188 194.461 15.8151 194.68 16.0078C194.898 16.2005 195 16.4427 194.984 16.7344C194.885 18.7188 194.836 19.6354 194.836 19.4844ZM202.867 18.3672C202.82 19.1641 202.458 19.5625 201.781 19.5625C201.125 19.5625 200.797 19.224 200.797 18.5469L200.758 17.7578C199.586 17.9453 198.747 18.5469 198.242 19.5625L198.25 23.4922C198.25 23.7891 198.148 24.0339 197.945 24.2266C197.742 24.4245 197.484 24.5234 197.172 24.5234C196.849 24.5234 196.599 24.4193 196.422 24.2109C196.255 24.0234 196.172 23.7839 196.172 23.4922V18.375C196.172 18.2135 196.177 17.974 196.188 17.6562C196.198 17.3333 196.203 17.0911 196.203 16.9297C196.203 16.638 196.289 16.3958 196.461 16.2031C196.638 16.0052 196.888 15.9062 197.211 15.9062C197.789 15.9062 198.133 16.2031 198.242 16.7969C199.164 16.1094 200.188 15.7656 201.312 15.7656C202.354 15.7656 202.875 16.4583 202.875 17.8438C202.875 18.1094 202.872 18.2839 202.867 18.3672ZM205.789 14.6094C205.456 14.6094 205.167 14.4974 204.922 14.2734C204.677 14.0495 204.555 13.776 204.555 13.4531C204.555 13.1302 204.677 12.8568 204.922 12.6328C205.167 12.4089 205.456 12.2969 205.789 12.2969C206.122 12.2969 206.409 12.4089 206.648 12.6328C206.893 12.8568 207.016 13.1302 207.016 13.4531C207.016 13.776 206.893 14.0495 206.648 14.2734C206.409 14.4974 206.122 14.6094 205.789 14.6094ZM206.453 20.3359C206.453 20.6328 206.461 21.1094 206.477 21.7656C206.497 22.4219 206.508 22.8984 206.508 23.1953C206.508 23.4974 206.406 23.7474 206.203 23.9453C206 24.138 205.742 24.2344 205.43 24.2344C205.117 24.2344 204.859 24.138 204.656 23.9453C204.453 23.7474 204.352 23.4974 204.352 23.1953C204.352 22.8984 204.341 22.4219 204.32 21.7656C204.305 21.1094 204.297 20.6328 204.297 20.3359C204.297 19.8724 204.323 19.2917 204.375 18.5938C204.427 17.8958 204.453 17.3151 204.453 16.8516C204.453 16.5495 204.555 16.3021 204.758 16.1094C204.961 15.9115 205.219 15.8125 205.531 15.8125C205.844 15.8125 206.102 15.9115 206.305 16.1094C206.508 16.3021 206.609 16.5495 206.609 16.8516C206.609 17.3151 206.583 17.8958 206.531 18.5938C206.479 19.2917 206.453 19.8724 206.453 20.3359ZM210.898 22.8516C210.898 23.8411 210.539 24.3359 209.82 24.3359C209.508 24.3359 209.25 24.237 209.047 24.0391C208.844 23.8411 208.742 23.5859 208.742 23.2734V12.4688C208.742 12.1667 208.852 11.9193 209.07 11.7266C209.279 11.5495 209.536 11.4609 209.844 11.4609C210.151 11.4609 210.404 11.5547 210.602 11.7422C210.799 11.9245 210.898 12.1667 210.898 12.4688V22.8516ZM216.102 24.4609C215.138 24.4609 214.31 24.1302 213.617 23.4688C212.857 22.7448 212.458 21.7786 212.422 20.5703C212.385 19.4193 212.701 18.3932 213.367 17.4922C214.159 16.4297 215.26 15.8984 216.672 15.8984C217.714 15.8984 218.542 16.3151 219.156 17.1484C219.708 17.8984 219.984 18.8281 219.984 19.9375C219.984 21.1458 219.661 22.1771 219.016 23.0312C218.292 23.9844 217.32 24.4609 216.102 24.4609ZM216.57 17.9609C215.93 17.9557 215.424 18.2474 215.055 18.8359C214.742 19.3307 214.586 19.9089 214.586 20.5703C214.586 21.1953 214.763 21.6745 215.117 22.0078C215.398 22.2734 215.727 22.4062 216.102 22.4062C216.555 22.4062 216.948 22.2526 217.281 21.9453C217.661 21.5859 217.865 21.099 217.891 20.4844C217.958 18.8073 217.518 17.9661 216.57 17.9609ZM227.852 18.3672C227.805 19.1641 227.443 19.5625 226.766 19.5625C226.109 19.5625 225.781 19.224 225.781 18.5469L225.742 17.7578C224.57 17.9453 223.732 18.5469 223.227 19.5625L223.234 23.4922C223.234 23.7891 223.133 24.0339 222.93 24.2266C222.727 24.4245 222.469 24.5234 222.156 24.5234C221.833 24.5234 221.583 24.4193 221.406 24.2109C221.24 24.0234 221.156 23.7839 221.156 23.4922V18.375C221.156 18.2135 221.161 17.974 221.172 17.6562C221.182 17.3333 221.188 17.0911 221.188 16.9297C221.188 16.638 221.273 16.3958 221.445 16.2031C221.622 16.0052 221.872 15.9062 222.195 15.9062C222.773 15.9062 223.117 16.2031 223.227 16.7969C224.148 16.1094 225.172 15.7656 226.297 15.7656C227.339 15.7656 227.859 16.4583 227.859 17.8438C227.859 18.1094 227.857 18.2839 227.852 18.3672ZM241.445 17.7109C241.336 17.7109 241.206 17.7083 241.055 17.7031C240.909 17.6927 240.781 17.6875 240.672 17.6875C240.458 17.6875 240.211 17.7083 239.93 17.75C240.023 19.8542 240.07 21.2292 240.07 21.875C240.07 21.9427 240.073 22.0703 240.078 22.2578C240.083 22.4401 240.086 22.5885 240.086 22.7031C240.086 23.901 239.708 24.5 238.953 24.5C238.667 24.5 238.419 24.4115 238.211 24.2344C237.982 24.0469 237.867 23.8125 237.867 23.5312C237.867 23.3438 237.875 23.0625 237.891 22.6875C237.906 22.3125 237.914 22.0312 237.914 21.8438C237.914 21.2135 237.867 19.8646 237.773 17.7969C237.451 17.7812 236.961 17.7396 236.305 17.6719C235.654 17.599 235.328 17.2604 235.328 16.6562C235.328 16.3646 235.427 16.1172 235.625 15.9141C235.823 15.7109 236.078 15.6094 236.391 15.6094C236.583 15.6094 237.026 15.6406 237.719 15.7031C237.714 15.5365 237.701 15.2604 237.68 14.875C237.659 14.5417 237.648 14.2839 237.648 14.1016C237.648 13.8099 237.755 13.5677 237.969 13.375C238.182 13.1823 238.44 13.0859 238.742 13.0859C239.513 13.0859 239.898 13.7344 239.898 15.0312L239.883 15.6719C240.206 15.625 240.469 15.6016 240.672 15.6016C241.271 15.6016 241.68 15.6406 241.898 15.7188C242.315 15.8646 242.523 16.1823 242.523 16.6719C242.523 16.9688 242.422 17.2161 242.219 17.4141C242.016 17.612 241.758 17.7109 241.445 17.7109ZM250.219 24.5156C249.979 24.5156 249.599 24.2552 249.078 23.7344C248.599 23.9635 248.177 24.1354 247.812 24.25C247.448 24.3698 247.138 24.4297 246.883 24.4297C245.628 24.4297 244.685 24.0938 244.055 23.4219C243.43 22.75 243.117 21.7448 243.117 20.4062C243.117 19.151 243.581 18.0781 244.508 17.1875C245.435 16.2917 246.544 15.8438 247.836 15.8438C248.331 15.8438 248.904 15.9844 249.555 16.2656C250.341 16.6042 250.734 16.9974 250.734 17.4453C250.734 17.6328 250.674 17.7969 250.555 17.9375C250.503 18.1458 250.461 18.4089 250.43 18.7266C250.404 19.0391 250.391 19.4062 250.391 19.8281C250.391 20.8229 250.461 21.5391 250.602 21.9766C250.617 22.0234 250.737 22.2943 250.961 22.7891C251.164 23.237 251.266 23.4922 251.266 23.5547C251.266 23.8307 251.159 24.0599 250.945 24.2422C250.737 24.4245 250.495 24.5156 250.219 24.5156ZM248.281 19.1562C248.281 18.9896 248.292 18.7995 248.312 18.5859C248.339 18.3672 248.375 18.125 248.422 17.8594C248.318 17.8073 248.224 17.7708 248.141 17.75C248.062 17.724 247.995 17.7109 247.938 17.7109C247.229 17.7109 246.609 17.9896 246.078 18.5469C245.547 19.099 245.281 19.7396 245.281 20.4688C245.281 21.1667 245.406 21.6927 245.656 22.0469C245.906 22.3958 246.281 22.5703 246.781 22.5703C247.104 22.5703 247.409 22.5182 247.695 22.4141C247.987 22.3047 248.26 22.1458 248.516 21.9375C248.359 20.6979 248.281 19.7708 248.281 19.1562ZM254.773 22.8516C254.773 23.8411 254.414 24.3359 253.695 24.3359C253.383 24.3359 253.125 24.237 252.922 24.0391C252.719 23.8411 252.617 23.5859 252.617 23.2734V12.4688C252.617 12.1667 252.727 11.9193 252.945 11.7266C253.154 11.5495 253.411 11.4609 253.719 11.4609C254.026 11.4609 254.279 11.5547 254.477 11.7422C254.674 11.9245 254.773 12.1667 254.773 12.4688V22.8516ZM260.695 24.3594C259.451 24.3594 258.432 24.0625 257.641 23.4688C256.766 22.8125 256.328 21.888 256.328 20.6953C256.328 19.3776 256.674 18.263 257.367 17.3516C258.138 16.3411 259.177 15.8359 260.484 15.8359C261.391 15.8359 262.143 15.9818 262.742 16.2734C263.529 16.6589 263.922 17.2578 263.922 18.0703C263.922 18.6432 263.602 19.151 262.961 19.5938C262.669 19.7969 262.083 20.0938 261.203 20.4844L258.57 21.6484C258.82 21.9193 259.122 22.1224 259.477 22.2578C259.831 22.3932 260.237 22.4609 260.695 22.4609C261.393 22.4609 261.984 22.3177 262.469 22.0312C262.901 21.776 263.247 21.6484 263.508 21.6484C264.049 21.6484 264.32 21.9115 264.32 22.4375C264.32 23.0312 263.885 23.5156 263.016 23.8906C262.286 24.2031 261.513 24.3594 260.695 24.3594ZM260.484 17.7266C260 17.7266 259.586 17.888 259.242 18.2109C258.898 18.5339 258.622 19.0182 258.414 19.6641C259.003 19.4089 259.589 19.1562 260.172 18.9062C260.875 18.5885 261.435 18.2943 261.852 18.0234C261.503 17.8255 261.047 17.7266 260.484 17.7266Z" fill="black"/>
<path d="M45.0859 26.8047H153.594V28.1719H45.0859V26.8047ZM158.484 26.8047H264.906V28.1719H158.484V26.8047Z" fill="black"/>
</svg>
