<svg width="320" height="65" viewBox="0 0 320 65" fill="none" xmlns="http://www.w3.org/2000/svg">
<path d="M4.3335 4.21289L316.287 9.58634L315.404 60.8818L3.44992 55.5083L4.3335 4.21289Z" fill="#EEEEEE"/>
<path d="M20.8176 0.293851C22.8812 0.461063 24.9482 0.506694 27.0155 0.442224C29.674 0.359612 32.2667 0.997609 34.7659 2.26108C36.2435 3.00838 37.6192 3.04947 39.0695 2.46005C41.5301 1.46142 44.0409 0.930313 46.566 0.903825C48.9835 0.879397 51.3872 1.20196 53.7695 1.86018C55.9072 2.45159 58.0518 3.02955 60.1901 3.5729C61.6501 3.94389 63.1684 3.78456 64.8412 2.92478C67.7433 1.43421 70.7817 1.35071 73.7076 2.7654C75.4623 3.61366 77.1464 3.92011 78.788 3.76841C80.9123 3.57202 83.0407 3.32715 85.1677 3.02522C87.4601 2.69992 89.7509 2.53562 92.0423 2.54024C94.3416 2.54528 96.6515 2.70629 98.9413 3.05441C100.964 3.3616 102.985 3.52112 105.009 3.51264C106.977 3.50418 108.959 3.27036 110.951 2.82433C113.532 2.24631 116.127 2.28911 118.689 2.93682C120.816 3.47452 122.944 3.9745 125.072 4.44082C126.658 4.78852 128.277 4.65292 129.991 3.94295C132.683 2.82564 135.461 2.58812 138.22 3.33566C140.036 3.82794 141.835 3.94451 143.644 3.69958C146.297 3.33888 148.939 3.71097 151.491 4.72944C152.889 5.2841 154.264 5.23455 155.803 4.4708C158.464 3.14504 161.254 2.7061 164.062 3.30224C166.22 3.76129 168.394 4.20562 170.552 4.66243C172.645 5.10558 174.743 5.48153 176.837 5.76942C178.866 6.04803 180.896 6.17063 182.927 6.14481C185.006 6.11836 187.091 6.00408 189.175 5.77389C191.564 5.51025 193.953 5.52506 196.332 5.85554C198.247 6.12151 200.166 6.14051 202.095 5.87158C204.483 5.53852 206.871 5.49694 209.254 5.76603C211.173 5.98309 213.104 5.94547 215.041 5.63683C217.544 5.23744 220.045 5.31721 222.527 5.86982C224.115 6.22404 225.735 6.07265 227.446 5.37196C230.089 4.28778 232.813 4.01177 235.532 4.59575C237.601 5.0398 239.669 5.37628 241.736 5.5973C243.86 5.82428 245.99 5.98954 248.115 6.12331C250.367 6.2652 252.618 6.53623 254.864 6.90538C256.653 7.199 258.45 7.10237 260.278 6.64493C262.665 6.04691 265.072 5.77092 267.471 5.79091C269.733 5.80988 271.991 5.95246 274.247 6.21972C276.314 6.46469 278.392 6.59752 280.461 6.61806C282.659 6.63998 284.857 6.69881 287.054 6.81484C289.198 6.92829 291.353 7.02177 293.499 7.09232C295.37 7.15382 297.272 6.91668 299.192 6.35811C301.664 5.63963 304.156 5.36637 306.654 5.57115C308.882 5.75418 311.117 6.02621 313.34 6.37294C314.826 6.60558 316.341 7.21895 317.381 8.54403C318.423 9.87585 318.638 11.4957 318.49 12.995C318.28 15.1313 318.092 17.2827 317.901 19.435C317.749 21.1511 318.005 22.9091 318.725 24.7341C319.862 27.6185 319.721 30.5598 318.368 33.3628C317.674 34.8063 317.65 36.1607 318.295 37.6269C319.578 40.5421 319.491 43.5322 318.061 46.3826C317.163 48.172 316.789 49.8917 316.848 51.5634C316.925 53.6918 317.061 55.8964 317.234 58.1658C317.345 59.6268 317.144 61.3971 315.886 62.7201C314.582 64.0906 312.798 64.3062 311.325 64.1604C308.999 63.93 306.682 63.4732 304.378 62.8132C302.877 62.3839 301.356 62.492 299.71 63.2321C296.736 64.5746 293.672 64.4236 290.812 62.8292C289.341 62.009 288.03 61.9376 286.635 62.5075C284.191 63.5081 281.705 64.0592 279.2 64.148C276.975 64.2261 274.743 64.2298 272.521 64.1578C270.131 64.0803 267.739 63.7051 265.382 63.0362C263.311 62.4485 261.235 61.9757 259.165 61.5974C257.531 61.2992 255.87 61.4625 254.12 62.1555C251.656 63.1317 249.151 63.6252 246.625 63.6286C244.093 63.631 241.585 63.1335 239.139 62.1472C237.279 61.3972 235.451 61.0232 233.645 61.0122C231.871 61.0018 230.052 61.3668 228.174 62.1456C225.643 63.1972 223.046 63.6585 220.432 63.4687C218.136 63.3019 215.845 62.9686 213.563 62.4556C211.677 62.0318 209.793 61.906 207.909 62.0878C205.556 62.3151 203.203 62.2956 200.857 62.0287C198.952 61.8119 197.036 61.8656 195.111 62.2002C192.69 62.6216 190.265 62.6915 187.846 62.408C185.875 62.1767 183.896 62.175 181.917 62.3683C179.468 62.6076 177.025 62.4408 174.601 61.9094C172.628 61.4764 170.65 61.2647 168.682 61.2664C166.328 61.2688 163.976 61.0301 161.641 60.5418C159.593 60.1136 157.544 59.8295 155.497 59.6661C153.519 59.5082 151.534 59.5417 149.544 59.7924C147.315 60.0736 145.082 60.2795 142.855 60.4054C140.816 60.5205 138.755 60.7795 136.703 61.1942C134.337 61.6717 131.968 61.877 129.597 61.8C127.493 61.7311 125.379 61.7416 123.272 61.8159C120.826 61.9021 118.392 61.6106 115.984 60.9413C114.163 60.4347 112.349 60.3015 110.539 60.5354C108.229 60.8337 105.914 60.9303 103.605 60.8529C101.466 60.7812 99.3179 60.7557 97.1778 60.7422C95.0643 60.7291 92.9455 60.7569 90.8297 60.8617C88.4686 60.9784 86.1094 60.8456 83.7624 60.4487C81.4893 60.0641 79.224 59.5235 76.9656 58.8335C75.465 58.3749 73.9531 58.4642 72.3196 59.1904C69.5656 60.4164 66.7039 60.6045 63.8845 59.6694C62.1378 59.0907 60.4143 58.9653 58.6897 59.2678C56.2616 59.6928 53.8295 59.7604 51.4041 59.4544C49.4891 59.2126 47.5693 59.2339 45.6395 59.5215C42.9635 59.9215 40.2978 59.5682 37.7295 58.5114C36.2684 57.9118 34.8539 57.9063 33.3172 58.581C30.4483 59.8405 27.4875 59.8324 24.6416 58.5356C22.9202 57.7533 21.268 57.5132 19.6408 57.7421C17.1341 58.0943 14.6342 57.9689 12.1568 57.3635C10.2948 56.9075 8.76272 56.8723 7.5208 57.138C6.05175 57.4533 4.49306 57.2614 3.16663 56.2515C1.94457 55.3208 1.2426 53.954 0.836901 52.591C0.0958195 50.1011 -0.149661 47.5854 0.0926172 45.0669C0.301965 42.8941 0.511237 40.7171 0.745939 38.5448C0.972292 36.4497 1.12132 34.345 1.18731 32.2479C1.25612 30.0643 1.35972 27.8815 1.48738 25.6989C1.61052 23.5947 1.65684 21.4828 1.6379 19.3763C1.62037 17.4267 1.38102 15.4542 0.886475 13.475C0.252306 10.9322 0.205238 8.459 0.908949 6.13055C1.18053 5.23452 1.40289 4.54215 1.54764 4.08168C1.61845 3.85649 1.67747 3.6602 1.72372 3.52292C1.74487 3.46031 1.76111 3.37097 1.79006 3.29519L2.06979 2.75903C2.11455 2.69061 2.23336 2.50186 2.43128 2.30751C2.50852 2.23188 3.21011 1.53026 4.35856 1.55005C4.20014 1.54732 4.05784 1.56182 4.02539 1.56511C3.97867 1.57004 3.94167 1.58111 3.92103 1.58412C3.90004 1.58902 3.87525 1.5792 3.85862 1.58305C3.87504 1.58025 3.89725 1.56684 3.92138 1.56332C4.05531 1.53203 4.25871 1.492 4.52711 1.42811C5.07231 1.29832 5.88726 1.10666 6.97154 0.84601C9.34857 0.274581 11.7354 -0.0226353 14.123 -0.00872636C16.3557 0.00430847 18.5882 0.113147 20.8176 0.293851ZM14.0937 5.31732C12.1496 5.30597 10.187 5.55318 8.21392 6.02751C7.48027 6.20387 6.8651 6.3365 6.37558 6.45359C6.27093 6.79437 6.14254 7.20722 6.00083 7.67474C5.62711 8.9149 5.59947 10.3944 6.04789 12.1906C6.64 14.5603 6.94348 16.9411 6.96538 19.3224C6.98538 21.547 6.93868 23.7767 6.80877 25.9987C6.68358 28.138 6.57823 30.2826 6.51085 32.4229C6.44061 34.6548 6.28254 36.8864 6.04187 39.1146C5.80937 41.2665 5.59699 43.422 5.38962 45.5743C5.21566 47.3798 5.40593 49.2134 5.96065 51.0771C6.07397 51.4554 6.18991 51.7001 6.28021 51.8525C6.29785 51.8821 6.30617 51.9157 6.32037 51.9364C6.34181 51.9332 6.37387 51.9442 6.40358 51.9378C8.60799 51.4653 10.9646 51.5847 13.4113 52.1834C15.2435 52.632 17.0679 52.7226 18.8994 52.4652C21.6117 52.0837 24.2944 52.5326 26.8679 53.7052C28.314 54.3612 29.6849 54.3693 31.1747 53.717C34.0012 52.4758 36.9318 52.4058 39.7704 53.5737C41.501 54.2855 43.1709 54.4913 44.8357 54.2436C47.2464 53.8832 49.6729 53.8566 52.0779 54.1602C53.9695 54.3983 55.8699 54.3648 57.7812 54.0296C60.3999 53.5708 63.0148 53.7729 65.5736 54.6216C67.0589 55.1119 68.5477 55.042 70.1562 54.326C72.8832 53.1134 75.7059 52.8863 78.5098 53.7416C80.5581 54.3677 82.6207 54.8545 84.6643 55.2001C86.6314 55.532 88.5981 55.6488 90.5674 55.5515C92.7847 55.4417 95.0124 55.4026 97.2279 55.4165C99.4124 55.4303 101.597 55.4562 103.78 55.5294C105.8 55.5971 107.831 55.5011 109.861 55.2388C112.392 54.9116 114.913 55.1128 117.404 55.8057C119.305 56.3348 121.207 56.5527 123.093 56.4863C125.318 56.4081 127.55 56.4037 129.772 56.4765C131.721 56.5396 133.677 56.3721 135.649 55.9743C137.944 55.5104 140.253 55.2242 142.551 55.0944C144.654 54.9756 146.758 54.7822 148.865 54.5166C151.215 54.22 153.575 54.1596 155.922 54.3468C158.196 54.5285 160.465 54.8646 162.729 55.338C164.709 55.7521 166.692 55.9414 168.67 55.9397C171.032 55.9373 173.388 56.213 175.73 56.7271C177.62 57.1418 179.516 57.2383 181.405 57.0537C183.759 56.8244 186.111 56.8585 188.457 57.1336C190.36 57.3569 192.28 57.2967 194.203 56.9621C196.617 56.5425 199.035 56.4594 201.448 56.7332C203.424 56.9582 205.413 56.9857 207.397 56.794C209.852 56.5571 212.305 56.7074 214.734 57.2533C216.763 57.7091 218.788 58.0223 220.815 58.1695C222.525 58.2937 224.285 58.0009 226.116 57.2413C228.594 56.2113 231.123 55.6714 233.675 55.6861C236.199 55.7016 238.698 56.2246 241.139 57.2088C242.994 57.9566 244.814 58.3035 246.613 58.3018C248.416 58.3001 250.252 57.9398 252.146 57.1903C254.757 56.1559 257.446 55.8595 260.129 56.3499C262.372 56.7599 264.61 57.288 266.844 57.922C268.798 58.4766 270.755 58.7713 272.696 58.8343C274.796 58.9022 276.897 58.9125 279 58.8389C280.827 58.7748 282.703 58.3673 284.619 57.5832C287.585 56.3699 290.592 56.6006 293.41 58.1716C294.839 58.9684 296.115 59.0134 297.505 58.3878C300.218 57.1633 303.037 56.8981 305.84 57.699C307.846 58.2739 309.855 58.666 311.853 58.8638C311.882 58.8666 311.911 58.8633 311.937 58.8652C311.937 58.7817 311.929 58.6837 311.921 58.5737C311.743 56.2375 311.619 53.9673 311.539 51.7632C311.442 49.102 312.06 46.4947 313.316 43.9913C314.037 42.5503 314.067 41.2163 313.431 39.7695C312.158 36.8761 312.21 33.9014 313.581 31.054C314.301 29.5617 314.342 28.1638 313.76 26.6876C312.76 24.1529 312.351 21.5556 312.583 18.948C312.776 16.7797 312.982 14.6194 313.194 12.4668C313.256 11.8306 313.12 11.7368 313.184 11.8216C313.25 11.9062 313.189 11.7279 312.522 11.623C310.427 11.2964 308.325 11.0627 306.23 10.8904C304.405 10.7405 302.544 10.9136 300.664 11.4603C298.232 12.1675 295.781 12.4966 293.324 12.4159C291.143 12.3441 288.955 12.2519 286.775 12.1366C284.654 12.0245 282.533 11.965 280.411 11.9437C278.149 11.9213 275.872 11.7612 273.615 11.4938C271.553 11.2497 269.486 11.1338 267.421 11.1166C265.49 11.1007 263.546 11.3355 261.583 11.8275C259.065 12.4583 256.53 12.5691 254.004 12.1547C251.93 11.8139 249.848 11.5746 247.774 11.444C245.572 11.3054 243.366 11.1075 241.167 10.8724C238.915 10.6316 236.667 10.2806 234.423 9.79916C232.83 9.457 231.2 9.59414 229.484 10.2967C226.834 11.3837 224.102 11.6595 221.377 11.0517C219.547 10.644 217.723 10.6023 215.886 10.8947C213.48 11.2786 211.066 11.3331 208.664 11.0616C206.728 10.8427 204.785 10.8567 202.836 11.1277C200.423 11.4642 198.001 11.4827 195.595 11.1486C193.653 10.8788 191.701 10.8533 189.75 11.0687C187.5 11.3169 185.25 11.4438 183.002 11.4727C180.702 11.5019 178.393 11.3567 176.101 11.0417C173.879 10.7361 171.659 10.3559 169.442 9.88664C167.283 9.42947 165.112 8.96506 162.953 8.50565C161.451 8.18777 159.899 8.38863 158.197 9.23519C155.376 10.6406 152.409 10.8225 149.513 9.6682C147.763 8.97009 146.054 8.76715 144.364 8.99692C141.836 9.33966 139.31 9.16726 136.82 8.49245C135.268 8.0723 133.698 8.15385 132.028 8.84686C129.383 9.9441 126.667 10.2397 123.942 9.64387C121.756 9.16486 119.557 8.64718 117.373 8.09504C115.624 7.65423 113.875 7.62984 112.11 8.02519C109.758 8.55144 107.401 8.82919 105.042 8.83976C102.74 8.84966 100.436 8.67375 98.1431 8.3256C96.112 8.01681 94.0667 7.8711 92.0338 7.86665C89.9982 7.86244 87.9548 7.99099 85.9094 8.28132C83.6987 8.59509 81.4891 8.8575 79.2794 9.06182C76.584 9.31089 73.9387 8.7798 71.3988 7.55282C70.0324 6.89213 68.7412 6.8989 67.2774 7.64828C64.5793 9.03508 61.727 9.45617 58.8736 8.73113C56.7007 8.17894 54.5212 7.59664 52.3494 6.99581C50.4312 6.46593 48.5239 6.21207 46.6198 6.2313C44.8156 6.25023 42.9637 6.63317 41.065 7.40484C38.1542 8.58744 35.1903 8.42828 32.3746 7.00546C30.5803 6.09799 28.8479 5.71927 27.1734 5.77149C24.911 5.8418 22.6512 5.77504 20.3934 5.59229C18.297 5.42237 16.1924 5.32961 14.0937 5.31732Z" fill="black"/>
<path d="M87.1854 29.2175C86.5614 29.2068 86.106 28.8695 85.8192 28.2057C85.6859 27.8913 85.5505 27.7017 85.4129 27.6369C85.3097 27.5866 85.0362 27.5576 84.5925 27.5499C83.7189 27.5349 82.6983 28.197 81.5309 29.5363C79.8965 31.4085 79.0651 33.1731 79.0365 34.8302C79.0235 35.586 79.2654 36.2387 79.7622 36.7882C80.2591 37.3377 80.8611 37.6186 81.5683 37.6308C82.2547 37.6426 82.9547 37.4743 83.6681 37.126C83.92 36.9985 84.4528 36.6679 85.2665 36.134C85.8135 35.7827 86.2257 35.6095 86.5031 35.6143C86.9191 35.6214 87.2701 35.7801 87.556 36.0902C87.8215 36.3791 87.9511 36.7073 87.9448 37.0748C87.9377 37.4839 87.7513 37.8378 87.3855 38.1367C85.4511 39.7124 83.4958 40.4833 81.5198 40.4493C79.9597 40.4224 78.6521 39.8311 77.597 38.6755C76.5897 37.5623 76.0989 36.2639 76.1244 34.7801C76.1644 32.4573 77.221 30.1036 79.2943 27.7187C81.0561 25.6962 82.8383 24.7004 84.6411 24.7314C84.9461 24.7367 85.2198 24.7518 85.4621 24.7768C85.7114 24.8019 85.9293 24.8369 86.1157 24.8817C86.426 24.5888 86.796 24.4461 87.2259 24.4535C87.9331 24.4656 88.3629 24.8788 88.5154 25.6929C88.6232 26.2773 88.6704 26.9578 88.6571 27.7344C88.6511 28.0811 88.5451 28.3948 88.3391 28.6756C88.0692 29.0455 87.6847 29.2261 87.1854 29.2175ZM98.6058 32.993C98.5251 34.0528 98.0341 34.5749 97.1327 34.5594C96.2591 34.5443 95.83 34.0861 95.8456 33.1848L95.8117 32.1334C94.2473 32.3562 93.1172 33.1378 92.4214 34.4782L92.3417 39.7098C92.3349 40.105 92.194 40.4285 91.9192 40.6804C91.6443 40.9392 91.2988 41.065 90.8828 41.0579C90.4529 41.0505 90.1225 40.9061 89.8915 40.6247C89.6739 40.3712 89.5685 40.0504 89.5752 39.6621L89.6925 32.8499C89.6962 32.6349 89.7086 32.3161 89.7298 31.8934C89.7511 31.4638 89.7636 31.1415 89.7673 30.9265C89.7739 30.5383 89.8939 30.2178 90.1271 29.9652C90.3674 29.7058 90.7025 29.5798 91.1324 29.5872C91.902 29.6005 92.3528 30.0036 92.4848 30.7965C93.7278 29.9024 95.0981 29.4683 96.5958 29.4941C97.9825 29.5179 98.66 30.452 98.6282 32.2964C98.6221 32.65 98.6146 32.8822 98.6058 32.993ZM105.229 41.0865C103.571 41.058 102.223 40.6394 101.182 39.8308C100.033 38.9371 99.4715 37.6964 99.4988 36.1086C99.529 34.3544 100.016 32.8786 100.959 31.6811C102.008 30.3537 103.403 29.7049 105.143 29.7349C106.35 29.7557 107.348 29.9671 108.139 30.3691C109.177 30.9002 109.687 31.7066 109.668 32.7882C109.655 33.5509 109.217 34.2196 108.354 34.7943C107.961 35.058 107.174 35.4398 105.993 35.9396L102.462 37.4289C102.788 37.7952 103.186 38.0725 103.654 38.2609C104.123 38.4493 104.662 38.5487 105.272 38.5592C106.201 38.5752 106.991 38.3981 107.643 38.0279C108.224 37.6981 108.688 37.5361 109.035 37.5421C109.756 37.5545 110.11 37.9109 110.098 38.6112C110.085 39.4016 109.495 40.0364 108.328 40.5157C107.35 40.915 106.317 41.1053 105.229 41.0865ZM105.1 32.2518C104.455 32.2407 103.9 32.4461 103.435 32.8681C102.97 33.2901 102.592 33.9286 102.299 34.7836C103.089 34.4574 103.875 34.1345 104.657 33.8151C105.6 33.4083 106.352 33.0294 106.913 32.6784C106.453 32.4069 105.849 32.2647 105.1 32.2518ZM117.147 41.2918C115.49 41.2633 114.142 40.8447 113.101 40.0361C111.951 39.1424 111.39 37.9017 111.418 36.3139C111.448 34.5597 111.934 33.0839 112.878 31.8864C113.927 30.559 115.322 29.9102 117.062 29.9402C118.268 29.961 119.267 30.1724 120.058 30.5744C121.096 31.1055 121.606 31.9119 121.587 32.9935C121.574 33.7562 121.136 34.4249 120.273 34.9996C119.88 35.2633 119.093 35.6451 117.912 36.1449L114.381 37.6342C114.707 38.0005 115.105 38.2778 115.573 38.4662C116.041 38.6546 116.581 38.754 117.191 38.7645C118.12 38.7805 118.91 38.6034 119.562 38.2332C120.143 37.9034 120.607 37.7414 120.954 37.7474C121.675 37.7598 122.029 38.1162 122.017 38.8165C122.004 39.6069 121.414 40.2417 120.247 40.721C119.269 41.1203 118.236 41.3106 117.147 41.2918ZM117.019 32.4571C116.374 32.446 115.819 32.6514 115.354 33.0734C114.889 33.4954 114.51 34.1339 114.218 34.9889C115.007 34.6627 115.793 34.3398 116.576 34.0204C117.519 33.6136 118.271 33.2347 118.832 32.8837C118.372 32.6122 117.767 32.47 117.019 32.4571ZM132.796 41.7694C132.477 41.764 131.977 41.4086 131.296 40.7033C130.653 40.9973 130.087 41.2165 129.599 41.3607C129.111 41.5118 128.697 41.5844 128.357 41.5785C126.686 41.5498 125.439 41.0809 124.616 40.1721C123.799 39.2633 123.406 37.9179 123.437 36.136C123.465 34.465 124.107 33.0474 125.362 31.883C126.616 30.7117 128.104 30.1408 129.823 30.1704C130.482 30.1818 131.241 30.3821 132.101 30.7715C133.141 31.2402 133.655 31.7727 133.645 32.369C133.641 32.6186 133.557 32.8356 133.394 33.0201C133.32 33.2962 133.259 33.6454 133.21 34.0676C133.168 34.4831 133.142 34.9716 133.133 35.5332C133.11 36.8575 133.187 37.8125 133.364 38.3981C133.384 38.4609 133.537 38.8242 133.824 39.488C134.084 40.0889 134.213 40.431 134.212 40.5142C134.206 40.8817 134.058 41.1843 133.77 41.4221C133.488 41.66 133.164 41.7758 132.796 41.7694ZM130.34 34.5904C130.344 34.3685 130.362 34.1157 130.395 33.8319C130.434 33.5413 130.488 33.2197 130.557 32.8672C130.419 32.7954 130.295 32.7447 130.185 32.7151C130.082 32.6786 129.992 32.6598 129.915 32.6584C128.972 32.6422 128.141 32.9989 127.421 33.7286C126.701 34.4514 126.333 35.2982 126.316 36.2689C126.3 37.1979 126.454 37.9011 126.779 38.3783C127.104 38.8486 127.599 39.0895 128.265 39.1009C128.695 39.1083 129.101 39.046 129.485 38.9139C129.876 38.775 130.244 38.5698 130.588 38.2983C130.409 36.6445 130.326 35.4085 130.34 34.5904ZM144.749 33.3405C144.149 33.996 143.422 34.8816 142.571 35.9975C141.386 37.5445 140.648 38.4958 140.358 38.8515C140.781 38.8449 141.131 38.844 141.409 38.8488C141.686 38.8536 142.087 38.9125 142.612 39.0256C143.145 39.1318 143.546 39.1873 143.816 39.192C144.232 39.1991 144.573 39.3368 144.839 39.6049C145.112 39.8662 145.245 40.1945 145.238 40.5897C145.231 40.9849 145.091 41.3085 144.816 41.5603C144.541 41.8122 144.192 41.9345 143.769 41.9272C143.492 41.9225 143.087 41.8669 142.555 41.7607C142.03 41.6545 141.632 41.5991 141.361 41.5945C139.808 41.5677 138.353 41.671 136.997 41.9042C136.816 41.9358 136.663 41.9505 136.538 41.9483C136.157 41.9418 135.833 41.8322 135.566 41.6195C135.265 41.3854 135.118 41.0812 135.124 40.7068C135.132 40.263 135.357 39.8612 135.8 39.5012C137.552 38.068 139.395 35.9601 141.329 33.1776C140.899 33.191 140.486 33.1942 140.091 33.1874C139.03 33.1692 137.957 33.0744 136.871 32.9031C136.02 32.7705 135.602 32.3125 135.615 31.529C135.622 31.1477 135.759 30.8241 136.027 30.5582C136.295 30.2923 136.634 30.1629 137.043 30.17C137.383 30.1758 137.895 30.2228 138.58 30.3109C139.272 30.3922 139.792 30.4358 140.139 30.4418C140.61 30.4499 141.318 30.4343 142.262 30.3951C143.206 30.3489 143.913 30.3299 144.385 30.338C145.252 30.353 145.679 30.714 145.667 31.4213C145.656 32.0453 145.35 32.685 144.749 33.3405ZM156.093 42.1707C155.774 42.1652 155.274 41.8098 154.593 41.1045C153.949 41.3986 153.384 41.6178 152.896 41.7619C152.408 41.9131 151.994 41.9857 151.654 41.9798C149.983 41.9511 148.736 41.4822 147.912 40.5733C147.096 39.6646 146.703 38.3192 146.733 36.5373C146.762 34.8663 147.404 33.4486 148.658 32.2843C149.913 31.113 151.4 30.5421 153.12 30.5717C153.778 30.5831 154.538 30.7834 155.398 31.1728C156.437 31.6415 156.952 32.174 156.942 32.7703C156.937 33.0199 156.854 33.2369 156.691 33.4214C156.617 33.6975 156.555 34.0467 156.507 34.4689C156.465 34.8843 156.439 35.3729 156.429 35.9345C156.407 37.2588 156.484 38.2138 156.661 38.7994C156.681 38.8622 156.834 39.2255 157.121 39.8893C157.381 40.4902 157.51 40.8323 157.509 40.9155C157.502 41.283 157.355 41.5856 157.067 41.8234C156.785 42.0613 156.461 42.1771 156.093 42.1707ZM153.637 34.9917C153.64 34.7698 153.659 34.517 153.691 34.2332C153.731 33.9426 153.785 33.621 153.854 33.2684C153.716 33.1967 153.592 33.146 153.482 33.1164C153.378 33.0799 153.288 33.061 153.212 33.0597C152.269 33.0435 151.438 33.4002 150.718 34.1299C149.998 34.8527 149.63 35.6994 149.613 36.6701C149.597 37.5992 149.751 38.3024 150.076 38.7796C150.401 39.2499 150.896 39.4908 151.561 39.5022C151.991 39.5096 152.398 39.4473 152.782 39.3152C153.173 39.1763 153.54 38.9711 153.885 38.6996C153.705 37.0458 153.623 35.8098 153.637 34.9917ZM157.716 26.4375C157.602 27.462 156.895 28.2058 155.597 28.669C154.648 29.0133 153.525 29.1742 152.229 29.1519C151.14 29.1332 150.192 28.8082 149.385 28.177C148.536 27.5243 148.119 26.7369 148.135 25.8147C148.14 25.5305 148.255 25.2966 148.48 25.1132C148.712 24.923 148.998 24.8309 149.338 24.8367C149.678 24.8426 149.96 24.9445 150.186 25.1426C150.411 25.3338 150.522 25.5715 150.517 25.8558C150.511 26.1955 150.686 26.4933 151.043 26.7491C151.399 27.0119 151.806 27.1472 152.263 27.1551C154.08 27.1863 155.116 26.8262 155.372 26.0746C155.554 25.5368 155.944 25.273 156.54 25.2833C156.928 25.29 157.231 25.4027 157.45 25.6215C157.668 25.8402 157.757 26.1122 157.716 26.4375ZM177.415 35.8382C177.407 36.3027 177.398 37.0031 177.389 37.9392C177.38 38.8754 177.371 39.5757 177.363 40.0403C177.361 40.1859 177.367 40.4045 177.383 40.6961C177.406 40.9808 177.416 41.196 177.414 41.3416C177.407 41.7299 177.259 42.0464 176.971 42.2911C176.689 42.5428 176.343 42.6652 175.934 42.6582C175.359 42.6482 174.944 42.381 174.689 41.8565C173.796 42.167 172.875 42.3142 171.925 42.2978C170.94 42.2808 170.115 42.0586 169.45 41.631C168.702 41.1395 168.264 40.4349 168.134 39.5172C167.893 37.7792 167.785 36.2272 167.808 34.8613C167.824 33.9599 167.946 32.9321 168.174 31.7777C168.326 30.9966 168.8 30.613 169.598 30.6267C170 30.6336 170.341 30.7678 170.621 31.0292C170.901 31.2837 171.037 31.6051 171.031 31.9934C171.026 32.2985 170.965 32.776 170.85 33.426C170.742 34.0761 170.685 34.571 170.679 34.9107C170.662 35.8883 170.678 36.7452 170.728 37.4812C170.785 38.2104 170.875 38.8154 170.999 39.2961C171.171 39.3753 171.336 39.4371 171.495 39.4815C171.66 39.5259 171.82 39.5495 171.972 39.5521C172.742 39.5654 173.59 39.469 174.516 39.263C174.525 38.7291 174.532 38.1224 174.537 37.4428C174.537 36.6313 174.54 36.0488 174.546 35.6952C174.57 34.2738 174.657 33.0477 174.807 32.0168C174.925 31.1935 175.404 30.7891 176.243 30.8036C176.652 30.8106 177 30.9449 177.286 31.2065C177.573 31.468 177.703 31.7928 177.675 32.1807C177.498 34.8201 177.411 36.0393 177.415 35.8382ZM187.47 42.7632C186.617 42.7485 186.149 42.3209 186.067 41.4802C185.982 40.7644 185.897 40.0451 185.813 39.3224C185.722 38.5579 185.682 37.8394 185.694 37.1668C185.697 36.9865 185.713 36.6782 185.741 36.2417C185.776 35.8054 185.795 35.4971 185.798 35.3168C185.799 35.2683 185.808 35.147 185.825 34.9531C185.843 34.7523 185.853 34.5895 185.855 34.4647C185.865 33.8892 185.721 33.5989 185.422 33.5938C184.784 33.5828 184.151 33.9464 183.521 34.6846C182.898 35.4159 182.403 36.3507 182.037 37.4887C182.019 37.7173 181.982 38.0218 181.927 38.4023C181.88 38.7136 181.854 39.0184 181.849 39.3165C181.846 39.5106 181.861 39.8057 181.896 40.2016C181.938 40.5907 181.957 40.8823 181.954 41.0765C181.947 41.4717 181.803 41.7952 181.521 42.047C181.246 42.3058 180.901 42.4316 180.485 42.4244C180.069 42.4173 179.728 42.2796 179.462 42.0115C179.196 41.7503 179.066 41.4221 179.073 41.0269C179.076 40.8327 179.061 40.5412 179.026 40.1522C178.991 39.7562 178.975 39.4612 178.979 39.2671C178.99 38.6014 179.055 37.6766 179.172 36.4927C179.289 35.3087 179.354 34.3839 179.365 33.7183C179.369 33.5103 179.36 33.2015 179.34 32.7919C179.326 32.3756 179.321 32.0669 179.325 31.8658C179.331 31.4775 179.475 31.1609 179.757 30.9161C180.046 30.6645 180.395 30.5422 180.804 30.5492C181.712 30.5649 182.188 31.1175 182.232 32.2072L182.24 32.3217C183.27 31.3199 184.346 30.8287 185.47 30.8481C186.78 30.8706 187.676 31.434 188.156 32.5381C188.476 33.2788 188.623 34.3806 188.598 35.8436L188.586 36.582C188.573 36.9008 188.566 37.1261 188.564 37.2578C188.554 37.7987 188.615 38.4967 188.746 39.3521C188.884 40.2075 188.948 40.9022 188.939 41.4361C188.932 41.8244 188.788 42.1444 188.506 42.3961C188.224 42.6479 187.879 42.7703 187.47 42.7632ZM204.466 42.9311C203.87 42.9209 203.244 42.8407 202.587 42.6907L202.504 46.9339C202.497 47.336 202.356 47.6665 202.081 47.9253C201.806 48.1841 201.461 48.31 201.045 48.3028C200.629 48.2956 200.288 48.158 200.022 47.8898C199.756 47.6217 199.626 47.2866 199.633 46.8844C199.639 46.5585 199.668 45.2656 199.721 43.0055C199.764 41.3278 199.787 39.9584 199.792 38.8973C199.797 37.3993 199.77 36.1088 199.713 35.0259C199.634 33.5334 199.594 32.8495 199.592 32.9743C199.602 32.3989 199.739 31.9088 200.002 31.5041C200.308 31.0447 200.715 30.8194 201.221 30.8281C201.609 30.8348 201.933 30.9721 202.192 31.2401C202.451 31.5082 202.577 31.8259 202.571 32.1934L202.558 32.2972C203.027 32.0417 203.495 31.8556 203.962 31.7388C204.436 31.6152 204.908 31.5574 205.38 31.5655C206.975 31.593 208.128 32.2891 208.839 33.6538C209.37 34.6825 209.621 36.008 209.593 37.6305C209.567 39.1489 209.112 40.3999 208.228 41.3834C207.28 42.4421 206.026 42.958 204.466 42.9311ZM205.332 34.3424C204.895 34.3349 204.45 34.4313 203.995 34.6315C203.541 34.8248 203.082 35.1221 202.617 35.5233C202.676 36.953 202.693 38.3855 202.668 39.8208C203.282 40.0325 203.897 40.1436 204.514 40.1543C205.228 40.1666 205.78 39.9229 206.17 39.4233C206.525 38.9717 206.709 38.3576 206.722 37.581C206.738 36.645 206.708 35.996 206.631 35.634C206.445 34.7847 206.012 34.3541 205.332 34.3424ZM214.3 40.9574C214.278 42.2748 213.788 42.9253 212.831 42.9088C212.415 42.9016 212.074 42.764 211.808 42.4958C211.542 42.2277 211.413 41.8856 211.42 41.4696L211.668 27.0859C211.675 26.6838 211.826 26.357 212.122 26.1054C212.403 25.8745 212.748 25.7625 213.157 25.7696C213.566 25.7766 213.901 25.9072 214.16 26.1614C214.419 26.4086 214.545 26.7332 214.538 27.1354L214.3 40.9574ZM225.879 43.3728C225.56 43.3673 225.06 43.0119 224.379 42.3066C223.736 42.6007 223.17 42.8198 222.682 42.964C222.194 43.1151 221.78 43.1878 221.44 43.1819C219.769 43.1531 218.522 42.6843 217.698 41.7754C216.882 40.8667 216.489 39.5213 216.52 37.7394C216.548 36.0684 217.19 34.6507 218.445 33.4863C219.699 32.315 221.186 31.7442 222.906 31.7738C223.565 31.7851 224.324 31.9855 225.184 32.3748C226.224 32.8435 226.738 33.376 226.728 33.9723C226.724 34.2219 226.64 34.439 226.477 34.6234C226.403 34.8996 226.342 35.2488 226.293 35.671C226.251 36.0864 226.225 36.5749 226.216 37.1366C226.193 38.4609 226.27 39.4158 226.447 40.0015C226.467 40.0642 226.62 40.4275 226.907 41.0914C227.167 41.6923 227.296 42.0344 227.295 42.1176C227.289 42.4851 227.141 42.7877 226.853 43.0255C226.571 43.2634 226.247 43.3791 225.879 43.3728ZM223.423 36.1938C223.427 35.9719 223.445 35.719 223.478 35.4352C223.517 35.1446 223.571 34.8231 223.64 34.4705C223.502 34.3988 223.378 34.3481 223.268 34.3185C223.165 34.282 223.075 34.2631 222.998 34.2618C222.055 34.2456 221.224 34.6023 220.504 35.332C219.784 36.0548 219.416 36.9015 219.399 37.8722C219.383 38.8013 219.537 39.5045 219.862 39.9817C220.187 40.452 220.682 40.6928 221.348 40.7043C221.778 40.7117 222.184 40.6494 222.568 40.5173C222.959 40.3783 223.327 40.1731 223.671 39.9016C223.492 38.2479 223.409 37.0119 223.423 36.1938ZM236.934 43.6152C236.081 43.6006 235.613 43.1729 235.531 42.3323C235.446 41.6164 235.361 40.8971 235.277 40.1744C235.186 39.4099 235.146 38.6914 235.158 38.0188C235.161 37.8386 235.177 37.5302 235.205 37.0937C235.24 36.6574 235.259 36.3491 235.262 36.1688C235.263 36.1203 235.272 35.9991 235.289 35.8052C235.307 35.6043 235.317 35.4415 235.319 35.3167C235.329 34.7412 235.184 34.4509 234.886 34.4458C234.248 34.4348 233.615 34.7984 232.985 35.5366C232.362 36.268 231.867 37.2027 231.501 38.3408C231.483 38.5693 231.446 38.8739 231.391 39.2544C231.344 39.5657 231.318 39.8704 231.313 40.1685C231.31 40.3627 231.325 40.6577 231.36 41.0536C231.402 41.4427 231.421 41.7344 231.418 41.9285C231.411 42.3237 231.267 42.6472 230.985 42.899C230.71 43.1578 230.365 43.2836 229.949 43.2765C229.533 43.2693 229.192 43.1316 228.926 42.8635C228.66 42.6023 228.53 42.2741 228.537 41.8789C228.54 41.6847 228.525 41.3932 228.49 41.0042C228.455 40.6083 228.439 40.3132 228.443 40.1191C228.454 39.4535 228.518 38.5287 228.636 37.3447C228.753 36.1607 228.818 35.2359 228.829 34.5703C228.833 34.3623 228.824 34.0535 228.804 33.644C228.79 33.2276 228.785 32.9189 228.789 32.7178C228.795 32.3295 228.939 32.013 229.221 31.7681C229.51 31.5165 229.859 31.3942 230.268 31.4012C231.176 31.4169 231.652 31.9695 231.696 33.0592L231.704 33.1738C232.734 32.172 233.81 31.6807 234.934 31.7001C236.244 31.7227 237.139 32.286 237.62 33.3901C237.94 34.1308 238.087 35.2326 238.062 36.6956L238.05 37.434C238.037 37.7529 238.03 37.9781 238.027 38.1099C238.018 38.6507 238.079 39.3488 238.21 40.2041C238.348 41.0596 238.412 41.7542 238.403 42.2881C238.396 42.6764 238.252 42.9964 237.97 43.2482C237.688 43.4999 237.343 43.6223 236.934 43.6152ZM241.41 39.8639C241.021 39.8572 240.701 39.7303 240.449 39.4832C240.203 39.2362 240.084 38.929 240.09 38.5615C240.095 38.2911 240.091 37.8888 240.08 37.3546C240.075 36.8135 240.075 36.4078 240.08 36.1374C240.096 35.1805 240.128 33.7454 240.175 31.832C240.228 29.9187 240.264 28.4836 240.28 27.5268C240.286 27.1593 240.42 26.8564 240.681 26.6182C240.941 26.373 241.263 26.2537 241.644 26.2602C242.025 26.2668 242.342 26.3971 242.594 26.6511C242.847 26.8982 242.97 27.2055 242.963 27.573L242.773 38.6078C242.767 38.9752 242.633 39.2781 242.373 39.5164C242.119 39.7547 241.798 39.8706 241.41 39.8639ZM241.313 43.6387C240.897 43.6315 240.513 43.4029 240.16 42.953C239.841 42.5383 239.685 42.1541 239.691 41.8005C239.697 41.44 239.844 41.1408 240.133 40.903C240.421 40.6653 240.746 40.5495 241.106 40.5557C241.522 40.5629 241.903 40.7914 242.249 41.2412C242.568 41.6559 242.725 42.0366 242.719 42.3833C242.713 42.7369 242.565 43.036 242.277 43.2807C241.995 43.5256 241.674 43.6449 241.313 43.6387Z" fill="black"/>
</svg>
