<svg width="335" height="67" viewBox="0 0 335 67" fill="none" xmlns="http://www.w3.org/2000/svg">
<path d="M3.79517 21.4923C3.79517 11.7496 11.6932 3.85156 21.4359 3.85156H313.39C323.133 3.85156 331.031 11.7496 331.031 21.4923V45.3073C331.031 55.0501 323.133 62.9481 313.39 62.9481H21.4359C11.6932 62.9481 3.79517 55.05 3.79517 45.3073V21.4923Z" fill="#EEEEEE"/>
<path d="M31.6764 2.94577L31.3269 0.322843L31.6764 2.94577ZM40.2101 3.94621L39.4867 6.49152L40.2101 3.94621ZM57.2775 4.45166L56.9445 1.82659L57.2775 4.45166ZM60.691 4.01859L60.358 1.39352L60.691 4.01859ZM77.7584 4.52744L77.5876 7.16804L77.7584 4.52744ZM81.1719 4.74825L81.0011 7.38885L81.1719 4.74825ZM84.5854 4.71418L84.3622 2.07749L84.5854 4.71418ZM87.9989 4.42521L88.2221 7.0619L87.9989 4.42521ZM91.4124 4.47489L91.1133 7.10405L91.4124 4.47489ZM98.2393 4.76976L97.7996 2.16044L98.2393 4.76976ZM99.9461 4.48215L100.386 7.09147L99.9461 4.48215ZM101.653 4.19453L101.213 1.58521L101.653 4.19453ZM115.307 4.35919L116.136 1.84634L115.307 4.35919ZM125.547 2.90722L125.274 5.53922L125.547 2.90722ZM132.374 3.3526L132.242 0.709797L132.374 3.3526ZM135.788 3.18166L135.655 0.538863L135.788 3.18166ZM149.442 4.39839L150.161 1.85181L149.442 4.39839ZM156.269 3.7387L155.693 1.156L156.269 3.7387ZM159.682 3.68931L159.178 6.28699L159.682 3.68931ZM163.096 4.35153L162.592 6.94921L163.096 4.35153ZM166.509 4.50128L166.229 1.86999L166.509 4.50128ZM169.923 4.13857L169.643 1.50727L169.923 4.13857ZM180.163 3.46274L179.675 6.06348L180.163 3.46274ZM181.87 3.78293L182.358 1.18219L181.87 3.78293ZM183.576 4.10312L183.089 6.70386L183.576 4.10312ZM207.471 4.10342L207.897 1.49193L207.471 4.10342ZM209.178 4.38224L208.751 6.99373L209.178 4.38224ZM210.884 4.66106L211.311 2.04956L210.884 4.66106ZM227.952 2.78323L227.78 5.42374L227.952 2.78323ZM229.659 2.8945L229.831 0.253998L229.659 2.8945ZM231.365 3.00578L231.193 5.64628L231.365 3.00578ZM234.779 3.59537L234.065 6.14331L234.779 3.59537ZM238.192 4.552L238.906 2.00406L238.192 4.552ZM241.606 4.88012L241.374 2.2442L241.606 4.88012ZM248.433 4.12912L248.891 6.73517L248.433 4.12912ZM251.846 3.52831L251.387 0.922255L251.846 3.52831ZM268.914 3.12669L268.21 5.67764L268.914 3.12669ZM272.327 4.0677L273.03 1.51675L272.327 4.0677ZM277.447 3.6243L278.132 6.18038L277.447 3.6243ZM279.154 3.16734L278.47 0.611259L279.154 3.16734ZM304.755 4.20563L304.727 6.85159L304.755 4.20563ZM313.358 3.22822L313.865 5.82525L313.358 3.22822ZM316.602 3.79878L315.24 6.0678L316.602 3.79878ZM319.63 5.61567L320.991 3.34665L319.63 5.61567ZM322.341 7.59391L324.104 5.6208L322.341 7.59391ZM323.538 8.66371L321.775 10.6368L323.538 8.66371ZM324.735 9.73351L322.972 11.7066L324.735 9.73351ZM327.127 12.0461L329.035 10.2124L327.127 12.0461ZM328.322 13.2888L326.414 15.1224L328.322 13.2888ZM329.516 14.5316L327.608 16.3652L329.516 14.5316ZM330.976 17.5043L333.591 17.1035L330.976 17.5043ZM331.506 20.9643L328.89 21.3652L331.506 20.9643ZM331.758 24.4011L334.404 24.4208L331.758 24.4011ZM331.733 27.8146L329.087 27.7948L331.733 27.8146ZM331.572 31.2281L334.208 31.4572L331.572 31.2281ZM331.423 32.9348L328.787 32.7056L331.423 32.9348ZM331.275 34.6416L328.639 34.4124L331.275 34.6416ZM331.075 38.055L328.43 37.9754L331.075 38.055ZM330.972 41.4685L333.617 41.5481L330.972 41.4685ZM330.574 44.8087L333.162 45.3586L330.574 44.8087ZM329.88 48.0755L327.292 47.5257L329.88 48.0755ZM329.185 51.4302L331.779 51.9547L329.185 51.4302ZM328.837 53.1514L331.43 53.6759L328.837 53.1514ZM328.489 54.8725L325.895 54.348L328.489 54.8725ZM326.713 57.6237L325.165 55.4779L326.713 57.6237ZM325.286 58.6536L326.834 60.7993L325.286 58.6536ZM323.859 59.6835L325.407 61.8293L323.859 59.6835ZM320.753 60.875L321.006 63.5089L320.753 60.875ZM317.395 61.1981L317.141 58.5642L317.395 61.1981ZM314.062 61.5148L313.815 58.8802L314.062 61.5148ZM312.407 61.6699L312.654 64.3045L312.407 61.6699ZM307.392 61.8862L307.246 64.5283L307.392 61.8862ZM303.978 61.6982L304.124 59.0561L303.978 61.6982ZM300.565 61.8294L300.911 64.4528L300.565 61.8294ZM297.151 62.2798L296.805 59.6564L297.151 62.2798ZM292.031 62.3631L292.141 59.7192L292.031 62.3631ZM290.325 62.2921L290.215 64.9359L290.325 62.2921ZM286.911 62.3197L286.759 59.6779L286.911 62.3197ZM283.498 62.5166L283.65 65.1584L283.498 62.5166ZM280.084 62.9945L279.51 60.4115L280.084 62.9945ZM278.377 63.374L278.952 65.957L278.377 63.374ZM276.671 63.7534L277.245 66.3364L276.671 63.7534ZM273.257 64.0884L273.326 61.4432L273.257 64.0884ZM269.844 63.9995L269.775 66.6447L269.844 63.9995ZM266.43 63.9787L266.393 61.3329L266.43 63.9787ZM263.017 64.026L263.053 66.6718L263.017 64.026ZM256.19 62.3455L255.354 64.8562L256.19 62.3455ZM252.776 62.114L252.264 59.5179L252.776 62.114ZM251.069 62.4505L251.581 65.0467L251.069 62.4505ZM242.536 62.1364L242.035 64.7347L242.536 62.1364ZM239.122 61.9484L239.34 64.5855L239.122 61.9484ZM235.709 62.2304L235.491 59.5933L235.709 62.2304ZM232.295 62.4772L232.132 59.8361L232.295 62.4772ZM228.882 62.6887L228.718 60.0476L228.882 62.6887ZM225.468 63.1079L224.99 60.5053L225.468 63.1079ZM222.055 63.7349L221.577 61.1323L222.055 63.7349ZM218.641 64.0464L218.638 66.6925L218.641 64.0464ZM215.228 64.0424L215.231 61.3963L215.228 64.0424ZM211.814 64.0785L211.873 66.7239L211.814 64.0785ZM208.401 64.1544L208.342 61.509L208.401 64.1544ZM204.987 64.0307L205.237 61.3963L204.987 64.0307ZM203.281 63.8689L203.53 61.2346L203.281 63.8689ZM201.574 63.7071L201.324 66.3414L201.574 63.7071ZM198.16 63.4635L198.034 66.1065L198.16 63.4635ZM194.747 63.2997L194.874 60.6566L194.747 63.2997ZM191.333 63.2598L191.268 60.6145L191.333 63.2598ZM187.92 63.3439L187.985 65.9893L187.92 63.3439ZM184.506 63.4576L184.396 60.8138L184.506 63.4576ZM181.093 63.6007L180.982 60.9569L181.093 63.6007ZM177.68 63.8095L177.892 66.4471L177.68 63.8095ZM175.973 63.9467L176.185 66.5843L175.973 63.9467ZM174.266 64.0839L174.054 61.4463L174.266 64.0839ZM170.853 63.7492L171.558 61.1988L170.853 63.7492ZM167.439 62.8054L168.144 60.255L167.439 62.8054ZM164.026 62.4834L164.257 65.1194L164.026 62.4834ZM162.319 62.6333L162.087 59.9973L162.319 62.6333ZM160.612 62.7832L160.844 65.4192L160.612 62.7832ZM157.199 62.588L157.723 59.9944L157.199 62.588ZM153.785 61.8979L153.261 64.4915L153.785 61.8979ZM150.372 61.644L150.231 59.0016L150.372 61.644ZM148.665 61.7351L148.524 59.0928L148.665 61.7351ZM146.958 61.8262L147.099 64.4686L146.958 61.8262ZM143.545 61.8223L143.397 64.4643L143.545 61.8223ZM140.131 61.6321L139.984 64.2741L140.131 61.6321ZM136.718 61.8093L136.301 59.1962L136.718 61.8093ZM133.304 62.3539L133.721 64.967L133.304 62.3539ZM129.891 62.5255L129.735 65.167L129.891 62.5255ZM126.477 62.3239L126.633 59.6824L126.477 62.3239ZM121.357 62.1362L121.29 64.7815L121.357 62.1362ZM119.65 62.0928L119.718 59.4475L119.65 62.0928ZM116.237 62.2024L116 59.5669L116.237 62.2024ZM112.823 62.5085L113.06 65.1441L112.823 62.5085ZM109.41 63.0429L108.833 60.4604L109.41 63.0429ZM105.996 63.8054L106.573 66.3879L105.996 63.8054ZM102.583 63.9607L102.236 66.584L102.583 63.9607ZM100.876 63.7348L101.223 61.1116L100.876 63.7348ZM99.1693 63.5089L99.5166 60.8857L99.1693 63.5089ZM92.3424 63.3516L92.3778 65.9975L92.3424 63.3516ZM88.9289 63.3839L88.9142 60.7379L88.9289 63.3839ZM87.2222 63.3934L87.2369 66.0395L87.2222 63.3934ZM85.5154 63.4029L85.5301 66.049L85.5154 63.4029ZM82.1019 62.9734L82.7612 60.4107L82.1019 62.9734ZM80.3952 62.5343L81.0544 59.9716L80.3952 62.5343ZM78.6884 62.0952L78.0292 64.6579L78.6884 62.0952ZM75.2749 62.1539L74.5341 59.6137L75.2749 62.1539ZM71.8615 63.1495L72.6023 65.6897L71.8615 63.1495ZM68.448 63.6978L68.3695 61.0529L68.448 63.6978ZM65.0345 63.7991L65.1129 66.444L65.0345 63.7991ZM61.621 63.5004L61.0904 66.0927L61.621 63.5004ZM59.9143 63.151L60.4448 60.5587L59.9143 63.151ZM58.2075 62.8017L58.7381 60.2094L58.2075 62.8017ZM53.0873 63.076L53.5628 65.679L53.0873 63.076ZM51.3806 63.3877L50.9051 60.7847L51.3806 63.3877ZM47.9671 63.5164L48.2493 60.8854L47.9671 63.5164ZM44.5536 63.1502L44.8358 60.5192L44.5536 63.1502ZM41.1401 62.6175L40.6091 65.2098L41.1401 62.6175ZM37.7266 61.9183L38.2576 59.326L37.7266 61.9183ZM34.3131 62.0102L34.9759 64.572L34.3131 62.0102ZM30.8997 62.8933L30.2369 60.3316L30.8997 62.8933ZM24.0727 62.9889L23.8943 65.629L24.0727 62.9889ZM20.6212 62.8357L20.5639 65.4812L20.6212 62.8357ZM17.1319 62.7602L17.1892 60.1147L17.1319 62.7602ZM14.1953 61.4441L12.26 63.2486L14.1953 61.4441ZM11.8116 58.8876L13.747 57.083L11.8116 58.8876ZM9.14094 56.6198L10.6125 54.4206L9.14094 56.6198ZM6.18328 54.6408L4.71176 56.84L6.18328 54.6408ZM4.32017 38.1069L1.82768 38.9954L4.32017 38.1069ZM2.69633 31.2799L0.068445 30.9698L2.69633 31.2799ZM3.0991 27.8664L0.471217 27.5564L3.0991 27.8664ZM4.44269 21.1246L1.86214 20.5392L4.44269 21.1246ZM5.20515 14.234L2.56611 14.0407L5.20515 14.234ZM20.1178 4.46906L19.5855 7.06109L20.1178 4.46906ZM23.1427 3.73883L22.9683 1.09847L23.1427 3.73883ZM24.8494 3.62609L25.0238 6.26645L26.7306 6.15371L26.5561 3.51335L26.3817 0.872994L24.675 0.98573L24.8494 3.62609ZM26.5561 3.51335L26.7306 6.15371C27.9273 6.07466 29.1235 5.95544 30.3191 5.79612L29.9696 3.17319L29.6201 0.550265C28.5401 0.694181 27.4606 0.801728 26.3817 0.872994L26.5561 3.51335ZM29.9696 3.17319L30.3191 5.79612L32.0259 5.5687L31.6764 2.94577L31.3269 0.322843L29.6201 0.550265L29.9696 3.17319ZM31.6764 2.94577L32.0259 5.5687L33.7326 5.34128L33.3831 2.71835L33.0336 0.095422L31.3269 0.322843L31.6764 2.94577ZM33.3831 2.71835L33.7326 5.34128C34.5002 5.239 35.273 5.2939 36.0732 5.52133L36.7966 2.97602L37.52 0.430724C36.0445 0.0113547 34.5417 -0.105526 33.0336 0.095422L33.3831 2.71835ZM36.7966 2.97602L36.0732 5.52133L37.7799 6.00642L38.5033 3.46112L39.2268 0.915819L37.52 0.430724L36.7966 2.97602ZM38.5033 3.46112L37.7799 6.00642L39.4867 6.49152L40.2101 3.94621L40.9335 1.40091L39.2268 0.915819L38.5033 3.46112ZM40.2101 3.94621L39.4867 6.49152C40.8587 6.88149 42.249 7.07419 43.6504 7.06L43.6236 4.41402L43.5968 1.76804C42.7224 1.7769 41.8371 1.65773 40.9335 1.40091L40.2101 3.94621ZM43.6236 4.41402L43.6504 7.06L45.3571 7.04271L45.3303 4.39673L45.3035 1.75076L43.5968 1.76804L43.6236 4.41402ZM45.3303 4.39673L45.3571 7.04271L47.0639 7.02542L47.0371 4.37944L47.0103 1.73347L45.3035 1.75076L45.3303 4.39673ZM47.0371 4.37944L47.0639 7.02542C48.1532 7.01439 49.2426 7.03328 50.332 7.08212L50.4505 4.43867L50.569 1.79521C49.3829 1.74203 48.1966 1.72145 47.0103 1.73347L47.0371 4.37944ZM50.4505 4.43867L50.332 7.08212L52.0388 7.15863L52.1573 4.51518L52.2758 1.87172L50.569 1.79521L50.4505 4.43867ZM52.1573 4.51518L52.0388 7.15863L53.7455 7.23514L53.864 4.59169L53.9825 1.94823L52.2758 1.87172L52.1573 4.51518ZM53.864 4.59169L53.7455 7.23514C55.0352 7.29296 56.3241 7.23995 57.6106 7.07673L57.2775 4.45166L56.9445 1.82659C55.9553 1.95209 54.9685 1.99243 53.9825 1.94823L53.864 4.59169ZM57.2775 4.45166L57.6106 7.07673L59.3173 6.8602L58.9843 4.23513L58.6512 1.61006L56.9445 1.82659L57.2775 4.45166ZM58.9843 4.23513L59.3173 6.8602L61.024 6.64366L60.691 4.01859L60.358 1.39352L58.6512 1.61006L58.9843 4.23513ZM60.691 4.01859L61.024 6.64366C62.0171 6.51767 63.0078 6.47496 63.9977 6.51492L64.1045 3.87097L64.2112 1.22701C62.9255 1.1751 61.6405 1.2308 60.358 1.39352L60.691 4.01859ZM64.1045 3.87097L63.9977 6.51492L65.7045 6.58383L65.8112 3.93987L65.918 1.29592L64.2112 1.22701L64.1045 3.87097ZM65.8112 3.93987L65.7045 6.58383L67.4112 6.65274L67.518 4.00878L67.6247 1.36482L65.918 1.29592L65.8112 3.93987ZM67.518 4.00878L67.4112 6.65274C68.5408 6.69835 69.6705 6.74923 70.8001 6.80538L70.9314 4.16253L71.0628 1.51968C69.9168 1.46271 68.7708 1.41109 67.6247 1.36482L67.518 4.00878ZM70.9314 4.16253L70.8001 6.80538L72.5068 6.89021L72.6382 4.24737L72.7696 1.60452L71.0628 1.51968L70.9314 4.16253ZM72.6382 4.24737L72.5068 6.89021L74.2136 6.97505L74.3449 4.3322L74.4763 1.68935L72.7696 1.60452L72.6382 4.24737ZM74.3449 4.3322L74.2136 6.97505C75.3382 7.03096 76.4629 7.09528 77.5876 7.16804L77.7584 4.52744L77.9292 1.88685C76.7783 1.8124 75.6273 1.74657 74.4763 1.68935L74.3449 4.3322ZM77.7584 4.52744L77.5876 7.16804L79.2943 7.27844L79.4652 4.63785L79.636 1.99726L77.9292 1.88685L77.7584 4.52744ZM79.4652 4.63785L79.2943 7.27844L81.0011 7.38885L81.1719 4.74825L81.3427 2.10766L79.636 1.99726L79.4652 4.63785ZM81.1719 4.74825L81.0011 7.38885C82.2704 7.47095 83.5399 7.45826 84.8086 7.35086L84.5854 4.71418L84.3622 2.07749C83.3552 2.16274 82.3491 2.17276 81.3427 2.10766L81.1719 4.74825ZM84.5854 4.71418L84.8086 7.35086L86.5153 7.20638L86.2921 4.5697L86.0689 1.93301L84.3622 2.07749L84.5854 4.71418ZM86.2921 4.5697L86.5153 7.20638L88.2221 7.0619L87.9989 4.42521L87.7757 1.78853L86.0689 1.93301L86.2921 4.5697ZM87.9989 4.42521L88.2221 7.0619C89.1855 6.98034 90.1484 6.99428 91.1133 7.10405L91.4124 4.47489L91.7115 1.84574C90.4007 1.69663 89.0879 1.67745 87.7757 1.78853L87.9989 4.42521ZM91.4124 4.47489L91.1133 7.10405L92.82 7.29821L93.1191 4.66906L93.4182 2.0399L91.7115 1.84574L91.4124 4.47489ZM93.1191 4.66906L92.82 7.29821L94.5267 7.49237L94.8258 4.86322L95.1249 2.23406L93.4182 2.0399L93.1191 4.66906ZM94.8258 4.86322L94.5267 7.49237C95.9125 7.65001 97.299 7.61165 98.6791 7.37908L98.2393 4.76976L97.7996 2.16044C96.904 2.31136 96.0149 2.33531 95.1249 2.23406L94.8258 4.86322ZM98.2393 4.76976L98.6791 7.37908L100.386 7.09147L99.9461 4.48215L99.5064 1.87282L97.7996 2.16044L98.2393 4.76976ZM99.9461 4.48215L100.386 7.09147L102.093 6.80385L101.653 4.19453L101.213 1.58521L99.5064 1.87282L99.9461 4.48215ZM101.653 4.19453L102.093 6.80385C103.241 6.61029 104.39 6.40945 105.538 6.20131L105.066 3.59761L104.594 0.993908C103.467 1.19817 102.34 1.39527 101.213 1.58521L101.653 4.19453ZM105.066 3.59761L105.538 6.20131L107.245 5.89201L106.773 3.28831L106.301 0.684609L104.594 0.993908L105.066 3.59761ZM106.773 3.28831L107.245 5.89201L108.952 5.58272L108.48 2.97901L108.008 0.375309L106.301 0.684609L106.773 3.28831ZM108.48 2.97901L108.952 5.58272C109.639 5.45815 110.33 5.50344 111.064 5.74573L111.893 3.23287L112.722 0.720021C111.181 0.211426 109.596 0.0874727 108.008 0.375309L108.48 2.97901ZM111.893 3.23287L111.064 5.74573L112.771 6.30889L113.6 3.79603L114.429 1.28318L112.722 0.720021L111.893 3.23287ZM113.6 3.79603L112.771 6.30889L114.478 6.87205L115.307 4.35919L116.136 1.84634L114.429 1.28318L113.6 3.79603ZM115.307 4.35919L114.478 6.87205C116.146 7.4224 117.857 7.43072 119.529 6.89375L118.72 4.37433L117.911 1.85491C117.308 2.04864 116.744 2.04687 116.136 1.84634L115.307 4.35919ZM118.72 4.37433L119.529 6.89375L121.236 6.34573L120.427 3.82631L119.618 1.30689L117.911 1.85491L118.72 4.37433ZM120.427 3.82631L121.236 6.34573L122.943 5.79771L122.134 3.27829L121.325 0.758867L119.618 1.30689L120.427 3.82631ZM122.134 3.27829L122.943 5.79771C123.748 5.53929 124.517 5.46073 125.274 5.53922L125.547 2.90722L125.82 0.275211C124.301 0.117765 122.796 0.286595 121.325 0.758867L122.134 3.27829ZM125.547 2.90722L125.274 5.53922L126.981 5.71617L127.254 3.08417L127.527 0.452161L125.82 0.275211L125.547 2.90722ZM127.254 3.08417L126.981 5.71617L128.688 5.89312L128.961 3.26112L129.234 0.629111L127.527 0.452161L127.254 3.08417ZM128.961 3.26112L128.688 5.89312C129.96 6.02498 131.233 6.05917 132.507 5.9954L132.374 3.3526L132.242 0.709797C131.24 0.759979 130.237 0.73318 129.234 0.629111L128.961 3.26112ZM132.374 3.3526L132.507 5.9954L134.213 5.90993L134.081 3.26713L133.949 0.62433L132.242 0.709797L132.374 3.3526ZM134.081 3.26713L134.213 5.90993L135.92 5.82447L135.788 3.18166L135.655 0.538863L133.949 0.62433L134.081 3.26713ZM135.788 3.18166L135.92 5.82447C137.032 5.76877 138.145 5.72925 139.257 5.70591L139.201 3.06038L139.146 0.414852C137.982 0.439267 136.819 0.480605 135.655 0.538863L135.788 3.18166ZM139.201 3.06038L139.257 5.70591L140.963 5.6701L140.908 3.02457L140.852 0.379038L139.146 0.414852L139.201 3.06038ZM140.908 3.02457L140.963 5.6701L142.67 5.63428L142.615 2.98875L142.559 0.343223L140.852 0.379038L140.908 3.02457ZM142.615 2.98875L142.67 5.63428C143.536 5.61611 144.413 5.72844 145.309 5.98134L146.028 3.43476L146.747 0.888173C145.367 0.498651 143.969 0.313646 142.559 0.343223L142.615 2.98875ZM146.028 3.43476L145.309 5.98134L147.016 6.46316L147.735 3.91657L148.454 1.36999L146.747 0.888173L146.028 3.43476ZM147.735 3.91657L147.016 6.46316L148.723 6.94497L149.442 4.39839L150.161 1.85181L148.454 1.36999L147.735 3.91657ZM149.442 4.39839L148.723 6.94497C150.276 7.38353 151.859 7.43288 153.431 7.08241L152.855 4.49971L152.279 1.917C151.576 2.07387 150.883 2.05568 150.161 1.85181L149.442 4.39839ZM152.855 4.49971L153.431 7.08241L155.138 6.70191L154.562 4.11921L153.986 1.5365L152.279 1.917L152.855 4.49971ZM154.562 4.11921L155.138 6.70191L156.844 6.32141L156.269 3.7387L155.693 1.156L153.986 1.5365L154.562 4.11921ZM156.269 3.7387L156.844 6.32141C157.629 6.14643 158.4 6.13595 159.178 6.28699L159.682 3.68931L160.186 1.09163C158.689 0.801197 157.184 0.823643 155.693 1.156L156.269 3.7387ZM159.682 3.68931L159.178 6.28699L160.885 6.6181L161.389 4.02042L161.893 1.42274L160.186 1.09163L159.682 3.68931ZM161.389 4.02042L160.885 6.6181L162.592 6.94921L163.096 4.35153L163.6 1.75385L161.893 1.42274L161.389 4.02042ZM163.096 4.35153L162.592 6.94921C163.984 7.21936 165.386 7.28163 166.789 7.13258L166.509 4.50128L166.229 1.86999C165.356 1.96275 164.483 1.92519 163.6 1.75385L163.096 4.35153ZM166.509 4.50128L166.789 7.13258L168.495 6.95122L168.216 4.31993L167.936 1.68863L166.229 1.86999L166.509 4.50128ZM168.216 4.31993L168.495 6.95122L170.202 6.76987L169.923 4.13857L169.643 1.50727L167.936 1.68863L168.216 4.31993ZM169.923 4.13857L170.202 6.76987C171.351 6.64776 172.5 6.51814 173.65 6.38101L173.336 3.75354L173.022 1.12607C171.896 1.2605 170.769 1.38757 169.643 1.50727L169.923 4.13857ZM173.336 3.75354L173.65 6.38101L175.356 6.17735L175.043 3.54988L174.729 0.922407L173.022 1.12607L173.336 3.75354ZM175.043 3.54988L175.356 6.17735L177.063 5.97369L176.749 3.34621L176.436 0.718743L174.729 0.922407L175.043 3.54988ZM176.749 3.34621L177.063 5.97369C177.931 5.8701 178.799 5.89908 179.675 6.06348L180.163 3.46274L180.651 0.861999C179.252 0.599483 177.844 0.55078 176.436 0.718743L176.749 3.34621ZM180.163 3.46274L179.675 6.06348L181.382 6.38367L181.87 3.78293L182.358 1.18219L180.651 0.861999L180.163 3.46274ZM181.87 3.78293L181.382 6.38367L183.089 6.70386L183.576 4.10312L184.064 1.50238L182.358 1.18219L181.87 3.78293ZM183.576 4.10312L183.089 6.70386C184.392 6.94843 185.701 7.06575 187.014 7.05386L186.99 4.40786L186.966 1.76186C186.003 1.77058 185.036 1.68474 184.064 1.50238L183.576 4.10312ZM186.99 4.40786L187.014 7.05386L188.721 7.03841L188.697 4.3924L188.673 1.7464L186.966 1.76186L186.99 4.40786ZM188.697 4.3924L188.721 7.03841L190.427 7.02295L190.403 4.37695L190.379 1.73095L188.673 1.7464L188.697 4.3924ZM190.403 4.37695L190.427 7.02295C191.64 7.01198 192.852 6.9499 194.063 6.83681L193.817 4.20215L193.571 1.5675C192.507 1.66687 191.443 1.72132 190.379 1.73095L190.403 4.37695ZM193.817 4.20215L194.063 6.83681L195.77 6.67746L195.524 4.04281L195.278 1.40815L193.571 1.5675L193.817 4.20215ZM195.524 4.04281L195.77 6.67746L197.476 6.51812L197.23 3.88347L196.984 1.24881L195.278 1.40815L195.524 4.04281ZM197.23 3.88347L197.476 6.51812C198.52 6.4207 199.563 6.37973 200.605 6.39507L200.644 3.74924L200.683 1.10342C199.449 1.08526 198.217 1.13378 196.984 1.24881L197.23 3.88347ZM200.644 3.74924L200.605 6.39507L202.312 6.42019L202.351 3.77436L202.39 1.12854L200.683 1.10342L200.644 3.74924ZM202.351 3.77436L202.312 6.42019L204.018 6.44531L204.057 3.79948L204.096 1.15366L202.39 1.12854L202.351 3.77436ZM204.057 3.79948L204.018 6.44531C205.025 6.46012 206.033 6.54971 207.044 6.71492L207.471 4.10342L207.897 1.49193C206.633 1.28538 205.366 1.17234 204.096 1.15366L204.057 3.79948ZM207.471 4.10342L207.044 6.71492L208.751 6.99373L209.178 4.38224L209.604 1.77074L207.897 1.49193L207.471 4.10342ZM209.178 4.38224L208.751 6.99373L210.458 7.27255L210.884 4.66106L211.311 2.04956L209.604 1.77074L209.178 4.38224ZM210.884 4.66106L210.458 7.27255C211.942 7.51506 213.43 7.46133 214.9 7.11762L214.298 4.54096L213.696 1.96429C212.89 2.15247 212.102 2.17881 211.311 2.04956L210.884 4.66106ZM214.298 4.54096L214.9 7.11762L216.607 6.7187L216.005 4.14204L215.402 1.56537L213.696 1.96429L214.298 4.54096ZM216.005 4.14204L216.607 6.7187L218.314 6.31979L217.711 3.74312L217.109 1.16645L215.402 1.56537L216.005 4.14204ZM217.711 3.74312L218.314 6.31979C219.341 6.07966 220.364 5.90995 221.384 5.80952L221.125 3.17614L220.865 0.542766C219.61 0.66642 218.357 0.874689 217.109 1.16645L217.711 3.74312ZM221.125 3.17614L221.384 5.80952L223.091 5.64146L222.832 3.00808L222.572 0.374706L220.865 0.542766L221.125 3.17614ZM222.832 3.00808L223.091 5.64146L224.798 5.4734L224.538 2.84002L224.279 0.206645L222.572 0.374706L222.832 3.00808ZM224.538 2.84002L224.798 5.4734C225.792 5.37544 226.786 5.35896 227.78 5.42374L227.952 2.78323L228.124 0.142726C226.842 0.0591462 225.56 0.0805242 224.279 0.206645L224.538 2.84002ZM227.952 2.78323L227.78 5.42374L229.486 5.53501L229.659 2.8945L229.831 0.253998L228.124 0.142726L227.952 2.78323ZM229.659 2.8945L229.486 5.53501L231.193 5.64628L231.365 3.00578L231.537 0.36527L229.831 0.253998L229.659 2.8945ZM231.365 3.00578L231.193 5.64628C232.141 5.70808 233.097 5.87222 234.065 6.14331L234.779 3.59537L235.493 1.04742C234.184 0.680756 232.865 0.451831 231.537 0.36527L231.365 3.00578ZM234.779 3.59537L234.065 6.14331L235.771 6.62163L236.485 4.07368L237.2 1.52574L235.493 1.04742L234.779 3.59537ZM236.485 4.07368L235.771 6.62163L237.478 7.09995L238.192 4.552L238.906 2.00406L237.2 1.52574L236.485 4.07368ZM238.192 4.552L237.478 7.09995C238.913 7.50197 240.371 7.64514 241.838 7.51605L241.606 4.88012L241.374 2.2442C240.565 2.31537 239.747 2.23979 238.906 2.00406L238.192 4.552ZM241.606 4.88012L241.838 7.51605L243.544 7.36585L243.312 4.72992L243.08 2.094L241.374 2.2442L241.606 4.88012ZM243.312 4.72992L243.544 7.36585L245.251 7.21565L245.019 4.57972L244.787 1.9438L243.08 2.094L243.312 4.72992ZM245.019 4.57972L245.251 7.21565C246.466 7.10875 247.679 6.94851 248.891 6.73517L248.433 4.12912L247.974 1.52307C246.91 1.71027 245.848 1.85043 244.787 1.9438L245.019 4.57972ZM248.433 4.12912L248.891 6.73517L250.598 6.43477L250.139 3.82871L249.681 1.22266L247.974 1.52307L248.433 4.12912ZM250.139 3.82871L250.598 6.43477L252.305 6.13436L251.846 3.52831L251.387 0.922255L249.681 1.22266L250.139 3.82871ZM251.846 3.52831L252.305 6.13436C253.208 5.97535 254.105 5.9411 255 6.02928L255.26 3.39589L255.519 0.762507C254.139 0.626698 252.76 0.680723 251.387 0.922255L251.846 3.52831ZM255.26 3.39589L255 6.02928L256.707 6.19727L256.966 3.56389L257.226 0.930498L255.519 0.762507L255.26 3.39589ZM256.966 3.56389L256.707 6.19727L258.414 6.36526L258.673 3.73188L258.932 1.09849L257.226 0.930498L256.966 3.56389ZM258.673 3.73188L258.414 6.36526C259.799 6.50162 261.184 6.44305 262.561 6.19221L262.087 3.58895L261.612 0.985677C260.714 1.14941 259.823 1.18612 258.932 1.09849L258.673 3.73188ZM262.087 3.58895L262.561 6.19221L264.268 5.88129L263.793 3.27802L263.319 0.674755L261.612 0.985677L262.087 3.58895ZM263.793 3.27802L264.268 5.88129L265.974 5.57037L265.5 2.9671L265.026 0.363832L263.319 0.674755L263.793 3.27802ZM265.5 2.9671L265.974 5.57037C266.713 5.43589 267.448 5.46747 268.21 5.67764L268.914 3.12669L269.617 0.575731C268.104 0.15856 266.563 0.0837455 265.026 0.363832L265.5 2.9671ZM268.914 3.12669L268.21 5.67764L269.917 6.14815L270.62 3.59719L271.324 1.04624L269.617 0.575731L268.914 3.12669ZM270.62 3.59719L269.917 6.14815L271.624 6.61866L272.327 4.0677L273.03 1.51675L271.324 1.04624L270.62 3.59719ZM272.327 4.0677L271.624 6.61866C273.215 7.05717 274.831 7.06399 276.425 6.63734L275.741 4.08125L275.056 1.52517C274.374 1.70779 273.715 1.70557 273.03 1.51675L272.327 4.0677ZM275.741 4.08125L276.425 6.63734L278.132 6.18038L277.447 3.6243L276.763 1.06821L275.056 1.52517L275.741 4.08125ZM277.447 3.6243L278.132 6.18038L279.838 5.72343L279.154 3.16734L278.47 0.611259L276.763 1.06821L277.447 3.6243ZM279.154 3.16734L279.838 5.72343C280.588 5.52267 281.313 5.5008 282.045 5.64825L282.568 3.05426L283.09 0.460279C281.546 0.149232 279.995 0.202749 278.47 0.611259L279.154 3.16734ZM282.568 3.05426L282.045 5.64825L283.752 5.99212L284.274 3.39814L284.797 0.804153L283.09 0.460279L282.568 3.05426ZM284.274 3.39814L283.752 5.99212L285.458 6.336L285.981 3.74201L286.504 1.14803L284.797 0.804153L284.274 3.39814ZM285.981 3.74201L285.458 6.336C286.689 6.58393 287.922 6.76384 289.157 6.87517L289.395 4.23975L289.632 1.60432C288.591 1.51051 287.549 1.3586 286.504 1.14803L285.981 3.74201ZM289.395 4.23975L289.157 6.87517L290.864 7.02903L291.101 4.3936L291.339 1.75818L289.632 1.60432L289.395 4.23975ZM291.101 4.3936L290.864 7.02903L292.57 7.18288L292.808 4.54746L293.046 1.91203L291.339 1.75818L291.101 4.3936ZM292.808 4.54746L292.57 7.18288C293.855 7.29873 295.142 7.30661 296.427 7.20645L296.221 4.56833L296.016 1.93021C295.026 2.00736 294.036 2.00133 293.046 1.91203L292.808 4.54746ZM296.221 4.56833L296.427 7.20645L298.134 7.07347L297.928 4.43535L297.723 1.79723L296.016 1.93021L296.221 4.56833ZM297.928 4.43535L298.134 7.07347L299.841 6.94048L299.635 4.30237L299.429 1.66425L297.723 1.79723L297.928 4.43535ZM299.635 4.30237L299.841 6.94048C300.901 6.85787 301.961 6.82222 303.02 6.83347L303.048 4.18751L303.077 1.54154C301.861 1.52863 300.645 1.56956 299.429 1.66425L299.635 4.30237ZM303.048 4.18751L303.02 6.83347L304.727 6.85159L304.755 4.20563L304.783 1.55967L303.077 1.54154L303.048 4.18751ZM304.755 4.20563L304.727 6.85159L306.434 6.86972L306.462 4.22375L306.49 1.57779L304.783 1.55967L304.755 4.20563ZM306.462 4.22375L306.434 6.86972C307.757 6.88377 309.082 6.7596 310.406 6.50102L309.898 3.90399L309.391 1.30696C308.409 1.49889 307.442 1.5879 306.49 1.57779L306.462 4.22375ZM309.898 3.90399L310.406 6.50102L312.135 6.16313L311.628 3.56611L311.121 0.969079L309.391 1.30696L309.898 3.90399ZM311.628 3.56611L312.135 6.16313L313.865 5.82525L313.358 3.22822L312.851 0.631195L311.121 0.969079L311.628 3.56611ZM313.358 3.22822L313.865 5.82525C314.375 5.72567 314.791 5.79805 315.24 6.0678L316.602 3.79878L317.963 1.52976C316.394 0.588257 314.647 0.280264 312.851 0.631195L313.358 3.22822ZM316.602 3.79878L315.24 6.0678L316.754 6.97625L318.116 4.70723L319.477 2.4382L317.963 1.52976L316.602 3.79878ZM318.116 4.70723L316.754 6.97625L318.268 7.88469L319.63 5.61567L320.991 3.34665L319.477 2.4382L318.116 4.70723ZM319.63 5.61567L318.268 7.88469C319.149 8.41296 319.916 8.97527 320.578 9.56703L322.341 7.59391L324.104 5.6208C323.17 4.78616 322.13 4.02964 320.991 3.34665L319.63 5.61567ZM322.341 7.59391L320.578 9.56703L321.775 10.6368L323.538 8.66371L325.301 6.6906L324.104 5.6208L322.341 7.59391ZM323.538 8.66371L321.775 10.6368L322.972 11.7066L324.735 9.73351L326.499 7.7604L325.301 6.6906L323.538 8.66371ZM324.735 9.73351L322.972 11.7066C323.717 12.3721 324.466 13.096 325.219 13.8797L327.127 12.0461L329.035 10.2124C328.195 9.33911 327.35 8.52136 326.499 7.7604L324.735 9.73351ZM327.127 12.0461L325.219 13.8797L326.414 15.1224L328.322 13.2888L330.229 11.4552L329.035 10.2124L327.127 12.0461ZM328.322 13.2888L326.414 15.1224L327.608 16.3652L329.516 14.5316L331.424 12.6979L330.229 11.4552L328.322 13.2888ZM329.516 14.5316L327.608 16.3652C328.02 16.794 328.264 17.2821 328.36 17.9052L330.976 17.5043L333.591 17.1035C333.333 15.4199 332.604 13.9261 331.424 12.6979L329.516 14.5316ZM330.976 17.5043L328.36 17.9052L328.625 19.6352L331.241 19.2343L333.856 18.8335L333.591 17.1035L330.976 17.5043ZM331.241 19.2343L328.625 19.6352L328.89 21.3652L331.506 20.9643L334.121 20.5635L333.856 18.8335L331.241 19.2343ZM331.506 20.9643L328.89 21.3652C329.046 22.3829 329.12 23.3878 329.112 24.3814L331.758 24.4011L334.404 24.4208C334.414 23.1387 334.319 21.8525 334.121 20.5635L331.506 20.9643ZM331.758 24.4011L329.112 24.3814L329.099 26.0881L331.745 26.1078L334.391 26.1276L334.404 24.4208L331.758 24.4011ZM331.745 26.1078L329.099 26.0881L329.087 27.7948L331.733 27.8146L334.379 27.8343L334.391 26.1276L331.745 26.1078ZM331.733 27.8146L329.087 27.7948C329.079 28.8625 329.028 29.9305 328.935 30.9989L331.572 31.2281L334.208 31.4572C334.313 30.25 334.37 29.0423 334.379 27.8343L331.733 27.8146ZM331.572 31.2281L328.935 30.9989L328.787 32.7056L331.423 32.9348L334.059 33.164L334.208 31.4572L331.572 31.2281ZM331.423 32.9348L328.787 32.7056L328.639 34.4124L331.275 34.6416L333.911 34.8707L334.059 33.164L331.423 32.9348ZM331.275 34.6416L328.639 34.4124C328.535 35.5998 328.466 36.7875 328.43 37.9754L331.075 38.055L333.72 38.1346C333.753 37.0469 333.816 35.9589 333.911 34.8707L331.275 34.6416ZM331.075 38.055L328.43 37.9754L328.379 39.6822L331.024 39.7618L333.669 39.8414L333.72 38.1346L331.075 38.055ZM331.024 39.7618L328.379 39.6822L328.327 41.3889L330.972 41.4685L333.617 41.5481L333.669 39.8414L331.024 39.7618ZM330.972 41.4685L328.327 41.3889C328.298 42.3722 328.183 43.3281 327.986 44.2588L330.574 44.8087L333.162 45.3586C333.427 44.1114 333.578 42.8405 333.617 41.5481L330.972 41.4685ZM330.574 44.8087L327.986 44.2588L327.639 45.8923L330.227 46.4421L332.815 46.992L333.162 45.3586L330.574 44.8087ZM330.227 46.4421L327.639 45.8923L327.292 47.5257L329.88 48.0755L332.468 48.6254L332.815 46.992L330.227 46.4421ZM329.88 48.0755L327.292 47.5257C327.058 48.6235 326.825 49.7501 326.591 50.9056L329.185 51.4302L331.779 51.9547C332.009 50.8153 332.239 49.7055 332.468 48.6254L329.88 48.0755ZM329.185 51.4302L326.591 50.9056L326.243 52.6268L328.837 53.1514L331.43 53.6759L331.779 51.9547L329.185 51.4302ZM328.837 53.1514L326.243 52.6268L325.895 54.348L328.489 54.8725L331.082 55.3971L331.43 53.6759L328.837 53.1514ZM328.489 54.8725L325.895 54.348C325.795 54.8411 325.578 55.1799 325.165 55.4779L326.713 57.6237L328.262 59.7694C329.752 58.6942 330.718 57.1989 331.082 55.3971L328.489 54.8725ZM326.713 57.6237L325.165 55.4779L323.738 56.5078L325.286 58.6536L326.834 60.7993L328.262 59.7694L326.713 57.6237ZM325.286 58.6536L323.738 56.5078L322.31 57.5377L323.859 59.6835L325.407 61.8293L326.834 60.7993L325.286 58.6536ZM323.859 59.6835L322.31 57.5377C321.722 57.9621 321.13 58.1803 320.499 58.241L320.753 60.875L321.006 63.5089C322.613 63.3542 324.092 62.7781 325.407 61.8293L323.859 59.6835ZM320.753 60.875L320.499 58.241L318.82 58.4026L319.074 61.0365L319.327 63.6705L321.006 63.5089L320.753 60.875ZM319.074 61.0365L318.82 58.4026L317.141 58.5642L317.395 61.1981L317.648 63.8321L319.327 63.6705L319.074 61.0365ZM317.395 61.1981L317.141 58.5642C316.024 58.6717 314.915 58.777 313.815 58.8802L314.062 61.5148L314.309 64.1493C315.414 64.0457 316.527 63.94 317.648 63.8321L317.395 61.1981ZM314.062 61.5148L313.815 58.8802L312.16 59.0353L312.407 61.6699L312.654 64.3045L314.309 64.1493L314.062 61.5148ZM312.407 61.6699L312.16 59.0353L310.506 59.1904L310.753 61.825L311 64.4596L312.654 64.3045L312.407 61.6699ZM310.753 61.825L310.506 59.1904C309.537 59.2813 308.548 59.2997 307.537 59.244L307.392 61.8862L307.246 64.5283C308.511 64.5979 309.763 64.5755 311 64.4596L310.753 61.825ZM307.392 61.8862L307.537 59.244L305.831 59.1501L305.685 61.7922L305.54 64.4343L307.246 64.5283L307.392 61.8862ZM305.685 61.7922L305.831 59.1501L304.124 59.0561L303.978 61.6982L303.833 64.3404L305.54 64.4343L305.685 61.7922ZM303.978 61.6982L304.124 59.0561C302.821 58.9844 301.518 59.0346 300.219 59.2061L300.565 61.8294L300.911 64.4528C301.887 64.3241 302.86 64.2868 303.833 64.3404L303.978 61.6982ZM300.565 61.8294L300.219 59.2061L298.512 59.4312L298.858 62.0546L299.204 64.678L300.911 64.4528L300.565 61.8294ZM298.858 62.0546L298.512 59.4312L296.805 59.6564L297.151 62.2798L297.498 64.9032L299.204 64.678L298.858 62.0546ZM297.151 62.2798L296.805 59.6564C295.818 59.7867 294.832 59.8311 293.848 59.7902L293.738 62.434L293.628 65.0778C294.919 65.1315 296.21 65.073 297.498 64.9032L297.151 62.2798ZM293.738 62.434L293.848 59.7902L292.141 59.7192L292.031 62.3631L291.921 65.0069L293.628 65.0778L293.738 62.434ZM292.031 62.3631L292.141 59.7192L290.434 59.6483L290.325 62.2921L290.215 64.9359L291.921 65.0069L292.031 62.3631ZM290.325 62.2921L290.434 59.6483C289.209 59.5974 287.984 59.6073 286.759 59.6779L286.911 62.3197L287.063 64.9614C288.114 64.9008 289.164 64.8923 290.215 64.9359L290.325 62.2921ZM286.911 62.3197L286.759 59.6779L285.052 59.7764L285.204 62.4182L285.357 65.0599L287.063 64.9614L286.911 62.3197ZM285.204 62.4182L285.052 59.7764L283.345 59.8749L283.498 62.5166L283.65 65.1584L285.357 65.0599L285.204 62.4182ZM283.498 62.5166L283.345 59.8749C282.062 59.949 280.783 60.1284 279.51 60.4115L280.084 62.9945L280.658 65.5776C281.66 65.3548 282.657 65.2156 283.65 65.1584L283.498 62.5166ZM280.084 62.9945L279.51 60.4115L277.803 60.7909L278.377 63.374L278.952 65.957L280.658 65.5776L280.084 62.9945ZM278.377 63.374L277.803 60.7909L276.096 61.1703L276.671 63.7534L277.245 66.3364L278.952 65.957L278.377 63.374ZM276.671 63.7534L276.096 61.1703C275.164 61.3775 274.243 61.467 273.326 61.4432L273.257 64.0884L273.188 66.7336C274.547 66.769 275.901 66.6352 277.245 66.3364L276.671 63.7534ZM273.257 64.0884L273.326 61.4432L271.619 61.3987L271.55 64.0439L271.481 66.6892L273.188 66.7336L273.257 64.0884ZM271.55 64.0439L271.619 61.3987L269.912 61.3543L269.844 63.9995L269.775 66.6447L271.481 66.6892L271.55 64.0439ZM269.844 63.9995L269.912 61.3543C268.74 61.3238 267.566 61.3166 266.393 61.3329L266.43 63.9787L266.467 66.6246C267.569 66.6093 268.672 66.616 269.775 66.6447L269.844 63.9995ZM266.43 63.9787L266.393 61.3329L264.687 61.3565L264.723 64.0023L264.76 66.6482L266.467 66.6246L266.43 63.9787ZM264.723 64.0023L264.687 61.3565L262.98 61.3801L263.017 64.026L263.053 66.6718L264.76 66.6482L264.723 64.0023ZM263.017 64.026L262.98 61.3801C262.154 61.3916 261.311 61.2611 260.439 60.9709L259.603 63.4816L258.768 65.9923C260.171 66.4595 261.604 66.6919 263.053 66.6718L263.017 64.026ZM259.603 63.4816L260.439 60.9709L258.732 60.4028L257.896 62.9136L257.061 65.4243L258.768 65.9923L259.603 63.4816ZM257.896 62.9136L258.732 60.4028L257.025 59.8348L256.19 62.3455L255.354 64.8562L257.061 65.4243L257.896 62.9136ZM256.19 62.3455L257.025 59.8348C255.469 59.3167 253.867 59.2019 252.264 59.5179L252.776 62.114L253.288 64.7101C253.961 64.5774 254.635 64.6169 255.354 64.8562L256.19 62.3455ZM252.776 62.114L252.264 59.5179L250.558 59.8544L251.069 62.4505L251.581 65.0467L253.288 64.7101L252.776 62.114ZM251.069 62.4505L250.558 59.8544L248.851 60.1909L249.363 62.787L249.875 65.3832L251.581 65.0467L251.069 62.4505ZM249.363 62.787L248.851 60.1909C248.047 60.3494 247.253 60.3511 246.45 60.1963L245.949 62.7945L245.448 65.3928C246.921 65.6767 248.403 65.6734 249.875 65.3832L249.363 62.787ZM245.949 62.7945L246.45 60.1963L244.743 59.8672L244.242 62.4655L243.742 65.0638L245.448 65.3928L245.949 62.7945ZM244.242 62.4655L244.743 59.8672L243.037 59.5382L242.536 62.1364L242.035 64.7347L243.742 65.0638L244.242 62.4655ZM242.536 62.1364L243.037 59.5382C241.666 59.2739 240.286 59.1971 238.904 59.3113L239.122 61.9484L239.34 64.5855C240.234 64.5117 241.13 64.5603 242.035 64.7347L242.536 62.1364ZM239.122 61.9484L238.904 59.3113L237.198 59.4523L237.415 62.0894L237.633 64.7265L239.34 64.5855L239.122 61.9484ZM237.415 62.0894L237.198 59.4523L235.491 59.5933L235.709 62.2304L235.927 64.8676L237.633 64.7265L237.415 62.0894ZM235.709 62.2304L235.491 59.5933C234.371 59.6858 233.251 59.7668 232.132 59.8361L232.295 62.4772L232.459 65.1182C233.615 65.0466 234.771 64.963 235.927 64.8676L235.709 62.2304ZM232.295 62.4772L232.132 59.8361L230.425 59.9419L230.589 62.5829L230.752 65.224L232.459 65.1182L232.295 62.4772ZM230.589 62.5829L230.425 59.9419L228.718 60.0476L228.882 62.6887L229.045 65.3297L230.752 65.224L230.589 62.5829ZM228.882 62.6887L228.718 60.0476C227.473 60.1248 226.23 60.2775 224.99 60.5053L225.468 63.1079L225.946 65.7105C226.982 65.5203 228.015 65.3936 229.045 65.3297L228.882 62.6887ZM225.468 63.1079L224.99 60.5053L223.284 60.8188L223.762 63.4214L224.24 66.024L225.946 65.7105L225.468 63.1079ZM223.762 63.4214L223.284 60.8188L221.577 61.1323L222.055 63.7349L222.533 66.3375L224.24 66.024L223.762 63.4214ZM222.055 63.7349L221.577 61.1323C220.595 61.3126 219.618 61.4014 218.644 61.4003L218.641 64.0464L218.638 66.6925C219.94 66.694 221.239 66.5751 222.533 66.3375L222.055 63.7349ZM218.641 64.0464L218.644 61.4003L216.938 61.3983L216.935 64.0444L216.932 66.6905L218.638 66.6925L218.641 64.0464ZM216.935 64.0444L216.938 61.3983L215.231 61.3963L215.228 64.0424L215.225 66.6886L216.932 66.6905L216.935 64.0444ZM215.228 64.0424L215.231 61.3963C214.072 61.395 212.914 61.4072 211.755 61.433L211.814 64.0785L211.873 66.7239C212.99 66.6991 214.108 66.6873 215.225 66.6886L215.228 64.0424ZM211.814 64.0785L211.755 61.433L210.049 61.471L210.108 64.1164L210.166 66.7619L211.873 66.7239L211.814 64.0785ZM210.108 64.1164L210.049 61.471L208.342 61.509L208.401 64.1544L208.46 66.7999L210.166 66.7619L210.108 64.1164ZM208.401 64.1544L208.342 61.509C207.308 61.532 206.273 61.4945 205.237 61.3963L204.987 64.0307L204.738 66.665C205.978 66.7825 207.219 66.8275 208.46 66.7999L208.401 64.1544ZM204.987 64.0307L205.237 61.3963L203.53 61.2346L203.281 63.8689L203.031 66.5032L204.738 66.665L204.987 64.0307ZM203.281 63.8689L203.53 61.2346L201.824 61.0728L201.574 63.7071L201.324 66.3414L203.031 66.5032L203.281 63.8689ZM201.574 63.7071L201.824 61.0728C200.645 60.9611 199.466 60.877 198.287 60.8204L198.16 63.4635L198.034 66.1065C199.13 66.1591 200.227 66.2374 201.324 66.3414L201.574 63.7071ZM198.16 63.4635L198.287 60.8204L196.58 60.7385L196.454 63.3816L196.327 66.0246L198.034 66.1065L198.16 63.4635ZM196.454 63.3816L196.58 60.7385L194.874 60.6566L194.747 63.2997L194.62 65.9427L196.327 66.0246L196.454 63.3816ZM194.747 63.2997L194.874 60.6566C193.672 60.5989 192.47 60.5849 191.268 60.6145L191.333 63.2598L191.399 65.9052C192.472 65.8787 193.546 65.8912 194.62 65.9427L194.747 63.2997ZM191.333 63.2598L191.268 60.6145L189.562 60.6566L189.627 63.3019L189.692 65.9472L191.399 65.9052L191.333 63.2598ZM189.627 63.3019L189.562 60.6566L187.855 60.6986L187.92 63.3439L187.985 65.9893L189.692 65.9472L189.627 63.3019ZM187.92 63.3439L187.855 60.6986C186.702 60.727 185.549 60.7654 184.396 60.8138L184.506 63.4576L184.617 66.1014C185.74 66.0543 186.863 66.0169 187.985 65.9893L187.92 63.3439ZM184.506 63.4576L184.396 60.8138L182.689 60.8853L182.8 63.5291L182.911 66.1729L184.617 66.1014L184.506 63.4576ZM182.8 63.5291L182.689 60.8853L180.982 60.9569L181.093 63.6007L181.204 66.2445L182.911 66.1729L182.8 63.5291ZM181.093 63.6007L180.982 60.9569C179.81 61.006 178.639 61.0777 177.467 61.1719L177.68 63.8095L177.892 66.4471C178.996 66.3583 180.1 66.2908 181.204 66.2445L181.093 63.6007ZM177.68 63.8095L177.467 61.1719L175.761 61.3091L175.973 63.9467L176.185 66.5843L177.892 66.4471L177.68 63.8095ZM175.973 63.9467L175.761 61.3091L174.054 61.4463L174.266 64.0839L174.478 66.7215L176.185 66.5843L175.973 63.9467ZM174.266 64.0839L174.054 61.4463C173.235 61.5121 172.408 61.4337 171.558 61.1988L170.853 63.7492L170.147 66.2996C171.573 66.6938 173.021 66.8386 174.478 66.7215L174.266 64.0839ZM170.853 63.7492L171.558 61.1988L169.851 60.7269L169.146 63.2773L168.441 65.8277L170.147 66.2996L170.853 63.7492ZM169.146 63.2773L169.851 60.7269L168.144 60.255L167.439 62.8054L166.734 65.3559L168.441 65.8277L169.146 63.2773ZM167.439 62.8054L168.144 60.255C166.712 59.8591 165.257 59.719 163.794 59.8475L164.026 62.4834L164.257 65.1194C165.07 65.0481 165.89 65.1226 166.734 65.3559L167.439 62.8054ZM164.026 62.4834L163.794 59.8475L162.087 59.9973L162.319 62.6333L162.55 65.2693L164.257 65.1194L164.026 62.4834ZM162.319 62.6333L162.087 59.9973L160.381 60.1472L160.612 62.7832L160.844 65.4192L162.55 65.2693L162.319 62.6333ZM160.612 62.7832L160.381 60.1472C159.5 60.2246 158.616 60.175 157.723 59.9944L157.199 62.588L156.674 65.1817C158.057 65.4611 159.449 65.5416 160.844 65.4192L160.612 62.7832ZM157.199 62.588L157.723 59.9944L156.016 59.6493L155.492 62.243L154.967 64.8366L156.674 65.1817L157.199 62.588ZM155.492 62.243L156.016 59.6493L154.309 59.3043L153.785 61.8979L153.261 64.4915L154.967 64.8366L155.492 62.243ZM153.785 61.8979L154.309 59.3043C152.957 59.0308 151.596 58.9287 150.231 59.0016L150.372 61.644L150.513 64.2863C151.423 64.2377 152.338 64.3049 153.261 64.4915L153.785 61.8979ZM150.372 61.644L150.231 59.0016L148.524 59.0928L148.665 61.7351L148.806 64.3775L150.513 64.2863L150.372 61.644ZM148.665 61.7351L148.524 59.0928L146.817 59.1839L146.958 61.8262L147.099 64.4686L148.806 64.3775L148.665 61.7351ZM146.958 61.8262L146.817 59.1839C145.775 59.2395 144.734 59.2383 143.692 59.1803L143.545 61.8223L143.397 64.4643C144.631 64.533 145.865 64.5345 147.099 64.4686L146.958 61.8262ZM143.545 61.8223L143.692 59.1803L141.985 59.0852L141.838 61.7272L141.691 64.3692L143.397 64.4643L143.545 61.8223ZM141.838 61.7272L141.985 59.0852L140.278 58.9901L140.131 61.6321L139.984 64.2741L141.691 64.3692L141.838 61.7272ZM140.131 61.6321L140.278 58.9901C138.95 58.916 137.623 58.9852 136.301 59.1962L136.718 61.8093L137.135 64.4223C138.088 64.2702 139.037 64.2213 139.984 64.2741L140.131 61.6321ZM136.718 61.8093L136.301 59.1962L134.594 59.4685L135.011 62.0816L135.428 64.6947L137.135 64.4223L136.718 61.8093ZM135.011 62.0816L134.594 59.4685L132.887 59.7409L133.304 62.3539L133.721 64.967L135.428 64.6947L135.011 62.0816ZM133.304 62.3539L132.887 59.7409C131.937 59.8925 130.991 59.9397 130.047 59.8839L129.891 62.5255L129.735 65.167C131.066 65.2456 132.396 65.1784 133.721 64.967L133.304 62.3539ZM129.891 62.5255L130.047 59.8839L128.34 59.7832L128.184 62.4247L128.028 65.0662L129.735 65.167L129.891 62.5255ZM128.184 62.4247L128.34 59.7832L126.633 59.6824L126.477 62.3239L126.321 64.9654L128.028 65.0662L128.184 62.4247ZM126.477 62.3239L126.633 59.6824C125.466 59.6134 124.299 59.5641 123.131 59.5344L123.064 62.1797L122.996 64.8249C124.105 64.8531 125.213 64.8999 126.321 64.9654L126.477 62.3239ZM123.064 62.1797L123.131 59.5344L121.424 59.491L121.357 62.1362L121.29 64.7815L122.996 64.8249L123.064 62.1797ZM121.357 62.1362L121.424 59.491L119.718 59.4475L119.65 62.0928L119.583 64.738L121.29 64.7815L121.357 62.1362ZM119.65 62.0928L119.718 59.4475C118.478 59.416 117.239 59.4558 116 59.5669L116.237 62.2024L116.473 64.8379C117.51 64.7449 118.547 64.7117 119.583 64.738L119.65 62.0928ZM116.237 62.2024L116 59.5669L114.294 59.7199L114.53 62.3555L114.766 64.991L116.473 64.8379L116.237 62.2024ZM114.53 62.3555L114.294 59.7199L112.587 59.873L112.823 62.5085L113.06 65.1441L114.766 64.991L114.53 62.3555ZM112.823 62.5085L112.587 59.873C111.332 59.9855 110.081 60.1817 108.833 60.4604L109.41 63.0429L109.987 65.6253C111.015 65.3957 112.039 65.2356 113.06 65.1441L112.823 62.5085ZM109.41 63.0429L108.833 60.4604L107.126 60.8417L107.703 63.4241L108.28 66.0066L109.987 65.6253L109.41 63.0429ZM107.703 63.4241L107.126 60.8417L105.419 61.2229L105.996 63.8054L106.573 66.3879L108.28 66.0066L107.703 63.4241ZM105.996 63.8054L105.419 61.2229C104.58 61.4105 103.755 61.4467 102.93 61.3375L102.583 63.9607L102.236 66.584C103.686 66.776 105.137 66.7087 106.573 66.3879L105.996 63.8054ZM102.583 63.9607L102.93 61.3375L101.223 61.1116L100.876 63.7348L100.529 66.3581L102.236 66.584L102.583 63.9607ZM100.876 63.7348L101.223 61.1116L99.5166 60.8857L99.1693 63.5089L98.8221 66.1322L100.529 66.3581L100.876 63.7348ZM99.1693 63.5089L99.5166 60.8857C98.253 60.7184 96.9873 60.643 95.7204 60.66L95.7559 63.3059L95.7913 65.9518C96.8001 65.9382 97.81 65.9982 98.8221 66.1322L99.1693 63.5089ZM95.7559 63.3059L95.7204 60.66L94.0137 60.6829L94.0491 63.3287L94.0846 65.9746L95.7913 65.9518L95.7559 63.3059ZM94.0491 63.3287L94.0137 60.6829L92.3069 60.7057L92.3424 63.3516L92.3778 65.9975L94.0846 65.9746L94.0491 63.3287ZM92.3424 63.3516L92.3069 60.7057C91.176 60.7209 90.0451 60.7316 88.9142 60.7379L88.9289 63.3839L88.9436 66.03C90.0883 66.0236 91.2331 66.0128 92.3778 65.9975L92.3424 63.3516ZM88.9289 63.3839L88.9142 60.7379L87.2074 60.7474L87.2222 63.3934L87.2369 66.0395L88.9436 66.03L88.9289 63.3839ZM87.2222 63.3934L87.2074 60.7474L85.5007 60.7568L85.5154 63.4029L85.5301 66.049L87.2369 66.0395L87.2222 63.3934ZM85.5154 63.4029L85.5007 60.7568C84.5975 60.7619 83.6861 60.6486 82.7612 60.4107L82.1019 62.9734L81.4427 65.536C82.7935 65.8835 84.1577 66.0566 85.5301 66.049L85.5154 63.4029ZM82.1019 62.9734L82.7612 60.4107L81.0544 59.9716L80.3952 62.5343L79.7359 65.097L81.4427 65.536L82.1019 62.9734ZM80.3952 62.5343L81.0544 59.9716L79.3477 59.5326L78.6884 62.0952L78.0292 64.6579L79.7359 65.097L80.3952 62.5343ZM78.6884 62.0952L79.3477 59.5326C77.7453 59.1204 76.1239 59.15 74.5341 59.6137L75.2749 62.1539L76.0158 64.6942C76.7016 64.4942 77.3559 64.4847 78.0292 64.6579L78.6884 62.0952ZM75.2749 62.1539L74.5341 59.6137L72.8273 60.1114L73.5682 62.6517L74.3091 65.192L76.0158 64.6942L75.2749 62.1539ZM73.5682 62.6517L72.8273 60.1114L71.1206 60.6092L71.8615 63.1495L72.6023 65.6897L74.3091 65.192L73.5682 62.6517ZM71.8615 63.1495L71.1206 60.6092C70.1894 60.8808 69.2739 61.0261 68.3695 61.0529L68.448 63.6978L68.5264 66.3428C69.8977 66.3021 71.2579 66.0818 72.6023 65.6897L71.8615 63.1495ZM68.448 63.6978L68.3695 61.0529L66.6628 61.1035L66.7412 63.7484L66.8197 66.3934L68.5264 66.3428L68.448 63.6978ZM66.7412 63.7484L66.6628 61.1035L64.9561 61.1541L65.0345 63.7991L65.1129 66.444L66.8197 66.3934L66.7412 63.7484ZM65.0345 63.7991L64.9561 61.1541C64.0267 61.1817 63.0932 61.1007 62.1516 60.908L61.621 63.5004L61.0904 66.0927C62.4245 66.3658 63.7666 66.4839 65.1129 66.444L65.0345 63.7991ZM61.621 63.5004L62.1516 60.908L60.4448 60.5587L59.9143 63.151L59.3837 65.7434L61.0904 66.0927L61.621 63.5004ZM59.9143 63.151L60.4448 60.5587L58.7381 60.2094L58.2075 62.8017L57.6769 65.3941L59.3837 65.7434L59.9143 63.151ZM58.2075 62.8017L58.7381 60.2094C57.2701 59.9089 55.7907 59.8922 54.3185 60.1611L54.794 62.7642L55.2695 65.3672C56.073 65.2205 56.8693 65.2288 57.6769 65.3941L58.2075 62.8017ZM54.794 62.7642L54.3185 60.1611L52.6118 60.4729L53.0873 63.076L53.5628 65.679L55.2695 65.3672L54.794 62.7642ZM53.0873 63.076L52.6118 60.4729L50.9051 60.7847L51.3806 63.3877L51.856 65.9908L53.5628 65.679L53.0873 63.076ZM51.3806 63.3877L50.9051 60.7847C50.0144 60.9474 49.1318 60.98 48.2493 60.8854L47.9671 63.5164L47.6848 66.1474C49.078 66.2969 50.471 66.2438 51.856 65.9908L51.3806 63.3877ZM47.9671 63.5164L48.2493 60.8854L46.5426 60.7023L46.2603 63.3333L45.9781 65.9643L47.6848 66.1474L47.9671 63.5164ZM46.2603 63.3333L46.5426 60.7023L44.8358 60.5192L44.5536 63.1502L44.2713 65.7812L45.9781 65.9643L46.2603 63.3333ZM44.5536 63.1502L44.8358 60.5192C43.7827 60.4062 42.7279 60.2417 41.6711 60.0252L41.1401 62.6175L40.6091 65.2098C41.828 65.4594 43.0488 65.6501 44.2713 65.7812L44.5536 63.1502ZM41.1401 62.6175L41.6711 60.0252L39.9644 59.6756L39.4334 62.2679L38.9024 64.8602L40.6091 65.2098L41.1401 62.6175ZM39.4334 62.2679L39.9644 59.6756L38.2576 59.326L37.7266 61.9183L37.1956 64.5106L38.9024 64.8602L39.4334 62.2679ZM37.7266 61.9183L38.2576 59.326C36.7199 59.011 35.1738 59.0544 33.6504 59.4485L34.3131 62.0102L34.9759 64.572C35.7281 64.3774 36.4577 64.3594 37.1956 64.5106L37.7266 61.9183ZM34.3131 62.0102L33.6504 59.4485L31.9436 59.89L32.6064 62.4518L33.2692 65.0136L34.9759 64.572L34.3131 62.0102ZM32.6064 62.4518L31.9436 59.89L30.2369 60.3316L30.8997 62.8933L31.5624 65.4551L33.2692 65.0136L32.6064 62.4518ZM30.8997 62.8933L30.2369 60.3316C29.365 60.5571 28.511 60.6367 27.6646 60.5795L27.4862 63.2195L27.3078 65.8596C28.737 65.9562 30.1587 65.8183 31.5624 65.4551L30.8997 62.8933ZM27.4862 63.2195L27.6646 60.5795L25.9578 60.4641L25.7794 63.1042L25.601 65.7443L27.3078 65.8596L27.4862 63.2195ZM25.7794 63.1042L25.9578 60.4641L24.2511 60.3488L24.0727 62.9889L23.8943 65.629L25.601 65.7443L25.7794 63.1042ZM24.0727 62.9889L24.2511 60.3488C23.0721 60.2691 21.8813 60.2163 20.6785 60.1902L20.6212 62.8357L20.5639 65.4812C21.6875 65.5056 22.7975 65.5548 23.8943 65.629L24.0727 62.9889ZM20.6212 62.8357L20.6785 60.1902L18.9338 60.1525L18.8765 62.798L18.8193 65.4434L20.5639 65.4812L20.6212 62.8357ZM18.8765 62.798L18.9338 60.1525L17.1892 60.1147L17.1319 62.7602L17.0746 65.4057L18.8193 65.4434L18.8765 62.798ZM17.1319 62.7602L17.1892 60.1147C16.7411 60.105 16.4392 59.9704 16.1307 59.6396L14.1953 61.4441L12.26 63.2486C13.5406 64.6221 15.1964 65.365 17.0746 65.4057L17.1319 62.7602ZM14.1953 61.4441L16.1307 59.6396L14.9388 58.3613L13.0035 60.1658L11.0681 61.9703L12.26 63.2486L14.1953 61.4441ZM13.0035 60.1658L14.9388 58.3613L13.747 57.083L11.8116 58.8876L9.87626 60.6921L11.0681 61.9703L13.0035 60.1658ZM11.8116 58.8876L13.747 57.083C12.811 56.0792 11.7646 55.1914 10.6125 54.4206L9.14094 56.6198L7.66942 58.819C8.4891 59.3674 9.2231 59.9915 9.87626 60.6921L11.8116 58.8876ZM9.14094 56.6198L10.6125 54.4206L9.13363 53.431L7.66211 55.6303L6.19059 57.8295L7.66942 58.819L9.14094 56.6198ZM7.66211 55.6303L9.13363 53.431L7.6548 52.4415L6.18328 54.6408L4.71176 56.84L6.19059 57.8295L7.66211 55.6303ZM6.18328 54.6408L7.6548 52.4415C7.56619 52.3823 7.51842 52.3366 7.49528 52.3113C7.47343 52.2874 7.46742 52.2751 7.46626 52.2728C7.4651 52.2705 7.45895 52.2584 7.45302 52.2267C7.44673 52.1931 7.43895 52.1277 7.44483 52.0215L4.80276 51.8752L2.16069 51.7289C2.04344 53.8471 2.94894 55.6605 4.71176 56.84L6.18328 54.6408ZM4.80276 51.8752L7.44483 52.0215L7.54315 50.2454L4.90108 50.0991L2.25901 49.9529L2.16069 51.7289L4.80276 51.8752ZM4.90108 50.0991L7.54315 50.2454L7.64147 48.4693L4.9994 48.3231L2.35733 48.1768L2.25901 49.9529L4.90108 50.0991ZM4.9994 48.3231L7.64147 48.4693C7.71071 47.2184 7.73078 45.9942 7.70071 44.7972L5.05543 44.8637L2.41015 44.9301C2.43646 45.9776 2.41917 47.0597 2.35733 48.1768L4.9994 48.3231ZM5.05543 44.8637L7.70071 44.7972L7.65842 43.1139L5.01315 43.1803L2.36787 43.2468L2.41015 44.9301L5.05543 44.8637ZM5.01315 43.1803L7.65842 43.1139L7.61614 41.4305L4.97086 41.497L2.32558 41.5634L2.36787 43.2468L5.01315 43.1803ZM4.97086 41.497L7.61614 41.4305C7.58039 40.0074 7.30527 38.6003 6.81265 37.2184L4.32017 38.1069L1.82768 38.9954C2.14627 39.8891 2.30495 40.7421 2.32558 41.5634L4.97086 41.497ZM4.32017 38.1069L6.81265 37.2184L6.20424 35.5116L3.71176 36.4001L1.21927 37.2886L1.82768 38.9954L4.32017 38.1069ZM3.71176 36.4001L6.20424 35.5116L5.59583 33.8049L3.10335 34.6934L0.610866 35.5819L1.21927 37.2886L3.71176 36.4001ZM3.10335 34.6934L5.59583 33.8049C5.3194 33.0294 5.24029 32.3012 5.32421 31.59L2.69633 31.2799L0.068445 30.9698C-0.116149 32.5343 0.0760858 34.0817 0.610866 35.5819L3.10335 34.6934ZM2.69633 31.2799L5.32421 31.59L5.5256 29.8832L2.89771 29.5732L0.269831 29.2631L0.068445 30.9698L2.69633 31.2799ZM2.89771 29.5732L5.5256 29.8832L5.72698 28.1765L3.0991 27.8664L0.471217 27.5564L0.269831 29.2631L2.89771 29.5732ZM3.0991 27.8664L5.72698 28.1765C5.8503 27.1313 6.02853 26.0949 6.26177 25.0667L3.68122 24.4813L1.10067 23.8959C0.826263 25.1056 0.61641 26.3259 0.471217 27.5564L3.0991 27.8664ZM3.68122 24.4813L6.26177 25.0667L6.6425 23.3883L4.06195 22.8029L1.48141 22.2175L1.10067 23.8959L3.68122 24.4813ZM4.06195 22.8029L6.6425 23.3883L7.02324 21.7099L4.44269 21.1246L1.86214 20.5392L1.48141 22.2175L4.06195 22.8029ZM4.44269 21.1246L7.02324 21.7099C7.30669 20.4604 7.49533 19.1907 7.58971 17.9021L4.95067 17.7088L2.31162 17.5155C2.23634 18.5434 2.08633 19.5509 1.86214 20.5392L4.44269 21.1246ZM4.95067 17.7088L7.58971 17.9021L7.71695 16.1647L5.07791 15.9714L2.43886 15.7781L2.31162 17.5155L4.95067 17.7088ZM5.07791 15.9714L7.71695 16.1647L7.8442 14.4273L5.20515 14.234L2.56611 14.0407L2.43886 15.7781L5.07791 15.9714ZM5.20515 14.234L7.8442 14.4273C7.88743 13.837 8.08894 13.3337 8.49848 12.8488L6.47686 11.1415L4.45523 9.43417C3.33882 10.7561 2.69254 12.3145 2.56611 14.0407L5.20515 14.234ZM6.47686 11.1415L8.49848 12.8488L9.64294 11.4937L7.62132 9.78635L5.59969 8.07903L4.45523 9.43417L6.47686 11.1415ZM7.62132 9.78635L9.64294 11.4937L10.7874 10.1385L8.76578 8.4312L6.74415 6.72388L5.59969 8.07903L7.62132 9.78635ZM8.76578 8.4312L10.7874 10.1385C11.3387 9.48569 11.9859 8.95694 12.743 8.54303L11.4735 6.22131L10.2041 3.89958C8.8767 4.62534 7.71876 5.56986 6.74415 6.72388L8.76578 8.4312ZM11.4735 6.22131L12.743 8.54303L14.3062 7.68827L13.0368 5.36655L11.7673 3.04483L10.2041 3.89958L11.4735 6.22131ZM13.0368 5.36655L14.3062 7.68827L15.8695 6.83352L14.6 4.5118L13.3306 2.19007L11.7673 3.04483L13.0368 5.36655ZM14.6 4.5118L15.8695 6.83352C16.5421 6.46575 16.8589 6.5012 16.9492 6.51974L17.4815 3.92771L18.0137 1.33569C16.3465 0.993327 14.7423 1.41817 13.3306 2.19007L14.6 4.5118ZM17.4815 3.92771L16.9492 6.51974L18.2674 6.79042L18.7996 4.19839L19.3319 1.60636L18.0137 1.33569L17.4815 3.92771ZM18.7996 4.19839L18.2674 6.79042L19.5855 7.06109L20.1178 4.46906L20.65 1.87703L19.3319 1.60636L18.7996 4.19839ZM20.1178 4.46906L19.5855 7.06109C20.0528 7.15704 20.5598 7.2443 21.0088 7.26087C21.1937 7.26769 21.6308 7.27736 22.1139 7.13243C22.3634 7.05758 22.8285 6.88286 23.2614 6.46125C23.7661 5.96976 24.082 5.27831 24.082 4.51769H21.4359H18.7898C18.7898 3.79408 19.092 3.13451 19.5692 2.66976C19.9747 2.27489 20.3986 2.12178 20.5932 2.06341C20.8091 1.99862 20.978 1.98186 21.0516 1.97632C21.1351 1.97002 21.1901 1.97173 21.2039 1.97224C21.2136 1.9726 21.0615 1.96153 20.65 1.87703L20.1178 4.46906ZM21.4359 4.51769H24.082V4.29565H21.4359H18.7898V4.51769H21.4359ZM21.4359 4.29565H24.082V4.07361H21.4359H18.7898V4.29565H21.4359ZM21.4359 4.07361H24.082C24.082 4.98607 23.6226 5.6089 23.3115 5.91278C23.0224 6.19521 22.743 6.33023 22.6411 6.37671C22.4271 6.47437 22.2917 6.49126 22.3719 6.47552C22.4853 6.45329 22.7751 6.41498 23.3171 6.37918L23.1427 3.73883L22.9683 1.09847C22.3724 1.13783 21.8088 1.1929 21.3533 1.28226C21.149 1.32232 20.8003 1.39955 20.444 1.56212C20.2711 1.64105 19.9384 1.80967 19.6136 2.12683C19.267 2.46543 18.7898 3.12413 18.7898 4.07361H21.4359ZM23.1427 3.73883L23.3171 6.37918L25.0238 6.26645L24.8494 3.62609L24.675 0.98573L22.9683 1.09847L23.1427 3.73883Z" fill="black"/>
<path d="M93.8405 38.3346C95.0544 35.2796 95.995 32.8477 96.6623 31.0388C97.016 30.0821 97.3658 29.1214 97.7115 28.1567C98.1858 27.0151 98.6963 26.1348 99.243 25.5158C99.6047 25.1057 100.039 24.9007 100.545 24.9007C101.004 24.9007 101.406 25.0615 101.751 25.3831C102.097 25.6966 102.27 26.0825 102.27 26.5408C102.27 26.8624 102.161 27.1799 101.944 27.4935C101.51 28.1205 101.112 28.8762 100.75 29.7606C100.734 29.7927 100.437 30.5886 99.858 32.1483C99.1344 34.0054 98.0571 36.791 96.6261 40.5052C96.2563 41.478 95.8021 42.4508 95.2635 43.4235C94.9178 44.0506 94.4153 44.3641 93.7561 44.3641C92.92 44.3641 92.3371 43.9702 92.0075 43.1824C91.0267 40.8429 89.9374 37.4704 88.7395 33.0648C88.4099 31.9794 88.0762 30.8941 87.7386 29.8088C87.2884 28.2974 87.0633 27.2483 87.0633 26.6614C87.0633 26.187 87.2401 25.7931 87.5939 25.4796C87.9315 25.1902 88.3254 25.0455 88.7757 25.0455C89.5474 25.0455 90.0861 25.4474 90.3916 26.2514C90.5524 26.9508 90.7132 27.6462 90.8739 28.3376C91.1392 29.2058 91.5211 30.5082 92.0196 32.2447C92.6466 34.544 93.2536 36.574 93.8405 38.3346ZM110.169 43.9541C108.247 43.9541 106.675 43.4959 105.453 42.5794C104.103 41.5664 103.427 40.1394 103.427 38.2984C103.427 36.2644 103.962 34.544 105.031 33.1371C106.221 31.5775 107.825 30.7976 109.843 30.7976C111.242 30.7976 112.403 31.0228 113.328 31.473C114.542 32.0679 115.149 32.9924 115.149 34.2466C115.149 35.1309 114.654 35.9147 113.666 36.5981C113.215 36.9116 112.311 37.3699 110.952 37.9728L106.888 39.7696C107.274 40.1877 107.741 40.5012 108.287 40.7102C108.834 40.9193 109.461 41.0238 110.169 41.0238C111.246 41.0238 112.158 40.8027 112.906 40.3605C113.573 39.9666 114.108 39.7696 114.51 39.7696C115.346 39.7696 115.764 40.1756 115.764 40.9876C115.764 41.9041 115.093 42.6517 113.75 43.2306C112.625 43.713 111.431 43.9541 110.169 43.9541ZM109.843 33.716C109.095 33.716 108.456 33.9652 107.926 34.4636C107.395 34.9621 106.969 35.7097 106.647 36.7066C107.556 36.3127 108.46 35.9228 109.361 35.5369C110.446 35.0465 111.31 34.5922 111.953 34.1742C111.415 33.8687 110.711 33.716 109.843 33.716ZM128.281 34.1863C127.598 34.958 126.774 35.9991 125.809 37.3096C124.467 39.1265 123.63 40.2439 123.301 40.662C123.791 40.6459 124.197 40.6379 124.519 40.6379C124.84 40.6379 125.307 40.6982 125.918 40.8188C126.537 40.9313 127.003 40.9876 127.317 40.9876C127.799 40.9876 128.197 41.1403 128.51 41.4458C128.832 41.7433 128.993 42.1211 128.993 42.5794C128.993 43.0376 128.836 43.4155 128.522 43.713C128.209 44.0104 127.807 44.1591 127.317 44.1591C126.995 44.1591 126.525 44.1029 125.906 43.9903C125.295 43.8778 124.832 43.8215 124.519 43.8215C122.718 43.8215 121.034 43.9702 119.466 44.2677C119.257 44.3079 119.08 44.328 118.935 44.328C118.493 44.328 118.115 44.2074 117.802 43.9662C117.448 43.7009 117.271 43.3512 117.271 42.917C117.271 42.4025 117.525 41.9322 118.031 41.5061C120.033 39.8098 122.127 37.3297 124.314 34.0657C123.815 34.0898 123.337 34.1018 122.879 34.1018C121.649 34.1018 120.403 34.0134 119.14 33.8365C118.152 33.6999 117.657 33.1773 117.657 32.2689C117.657 31.8267 117.81 31.4488 118.115 31.1353C118.421 30.8218 118.811 30.665 119.285 30.665C119.679 30.665 120.274 30.7092 121.07 30.7976C121.874 30.878 122.477 30.9182 122.879 30.9182C123.425 30.9182 124.246 30.8861 125.339 30.8218C126.432 30.7494 127.252 30.7132 127.799 30.7132C128.804 30.7132 129.306 31.1232 129.306 31.9433C129.306 32.6668 128.965 33.4145 128.281 34.1863ZM133.949 28.9044C133.435 28.9044 132.988 28.7315 132.611 28.3858C132.233 28.0401 132.044 27.6181 132.044 27.1196C132.044 26.6212 132.233 26.1991 132.611 25.8534C132.988 25.5077 133.435 25.3349 133.949 25.3349C134.464 25.3349 134.906 25.5077 135.276 25.8534C135.653 26.1991 135.842 26.6212 135.842 27.1196C135.842 27.6181 135.653 28.0401 135.276 28.3858C134.906 28.7315 134.464 28.9044 133.949 28.9044ZM134.974 37.7437C134.974 38.2019 134.986 38.9375 135.01 39.9505C135.042 40.9635 135.059 41.6991 135.059 42.1573C135.059 42.6236 134.902 43.0095 134.588 43.315C134.275 43.6125 133.877 43.7612 133.394 43.7612C132.912 43.7612 132.514 43.6125 132.201 43.315C131.887 43.0095 131.73 42.6236 131.73 42.1573C131.73 41.6991 131.714 40.9635 131.682 39.9505C131.658 38.9375 131.646 38.2019 131.646 37.7437C131.646 37.0282 131.686 36.1318 131.766 35.0545C131.847 33.9772 131.887 33.0808 131.887 32.3653C131.887 31.899 132.044 31.5172 132.357 31.2197C132.671 30.9142 133.069 30.7615 133.551 30.7615C134.033 30.7615 134.431 30.9142 134.745 31.2197C135.059 31.5172 135.215 31.899 135.215 32.3653C135.215 33.0808 135.175 33.9772 135.095 35.0545C135.014 36.1318 134.974 37.0282 134.974 37.7437ZM151.953 32.7271C153.167 31.3202 154.317 30.6168 155.402 30.6168C156.64 30.6168 157.549 31.0871 158.128 32.0277C158.618 31.5935 159.161 31.268 159.756 31.0509C160.35 30.8338 160.994 30.7253 161.685 30.7253C163.261 30.7253 164.33 31.5091 164.893 33.0768C165.005 33.3984 165.178 34.4877 165.411 36.3448C165.636 37.6472 165.926 39.8179 166.28 42.8568C166.312 43.315 166.155 43.6929 165.809 43.9903C165.464 44.2878 165.058 44.4365 164.591 44.4365C163.667 44.4365 163.124 43.9783 162.963 43.0618C162.819 42.2337 162.67 41.064 162.517 39.5526C162.356 37.8964 162.224 36.7227 162.119 36.0313C161.902 34.5922 161.625 33.8727 161.287 33.8727C161.102 33.8727 160.68 34.0576 160.021 34.4274C159.362 34.7973 158.879 35.1148 158.574 35.3801C158.574 36.2966 158.682 37.6151 158.899 39.3355C159.124 41.0961 159.237 42.4146 159.237 43.2909C159.237 43.7491 159.08 44.131 158.767 44.4365C158.453 44.742 158.055 44.8947 157.573 44.8947C157.09 44.8947 156.693 44.742 156.379 44.4365C156.065 44.131 155.909 43.7491 155.909 43.2909C155.909 42.3744 155.808 41.0278 155.607 39.2511C155.414 37.4663 155.318 36.1157 155.318 35.1992C155.318 34.6847 155.274 34.2747 155.185 33.9692C154.253 34.5078 153.316 35.4042 152.375 36.6584C152.335 36.7146 152.267 36.7991 152.17 36.9116C152.138 38.5356 152.122 39.8098 152.122 40.7344C152.122 40.9595 152.114 41.265 152.098 41.6508C152.082 42.0287 152.074 42.3101 152.074 42.495C152.074 42.9291 151.897 43.2708 151.543 43.52C151.222 43.7531 150.824 43.8697 150.349 43.8697C149.666 43.8697 149.204 43.5723 148.963 42.9773C148.794 42.5754 148.709 41.9362 148.709 41.0599V36.574C148.709 36.172 148.693 35.5851 148.661 34.8133C148.629 34.0335 148.613 33.4426 148.613 33.0406C148.613 32.3251 148.742 31.678 148.999 31.0991C149.312 30.3756 149.755 30.0138 150.325 30.0138C150.776 30.0138 151.178 30.1907 151.531 30.5444C151.885 30.8901 152.062 31.272 152.062 31.69C152.062 31.5212 152.026 31.8669 151.953 32.7271ZM178.435 44.1953C178.065 44.1953 177.478 43.7933 176.674 42.9894C175.935 43.3431 175.284 43.6084 174.721 43.7853C174.158 43.9702 173.68 44.0627 173.286 44.0627C171.348 44.0627 169.893 43.5441 168.92 42.507C167.956 41.47 167.473 39.9184 167.473 37.8522C167.473 35.9147 168.189 34.2586 169.62 32.8839C171.051 31.5011 172.763 30.8097 174.757 30.8097C175.521 30.8097 176.405 31.0268 177.41 31.4609C178.624 31.9835 179.231 32.5904 179.231 33.2818C179.231 33.5712 179.139 33.8245 178.954 34.0415C178.873 34.3631 178.809 34.7691 178.761 35.2595C178.721 35.7419 178.7 36.3087 178.7 36.9599C178.7 38.4954 178.809 39.6008 179.026 40.2761C179.05 40.3485 179.235 40.7665 179.581 41.5303C179.894 42.2216 180.051 42.6156 180.051 42.712C180.051 43.1381 179.886 43.4919 179.557 43.7732C179.235 44.0546 178.861 44.1953 178.435 44.1953ZM175.444 35.9228C175.444 35.6655 175.461 35.3721 175.493 35.0425C175.533 34.7048 175.589 34.331 175.662 33.921C175.501 33.8406 175.356 33.7843 175.227 33.7521C175.107 33.7119 175.002 33.6918 174.914 33.6918C173.82 33.6918 172.864 34.1219 172.044 34.9822C171.224 35.8343 170.814 36.8232 170.814 37.9487C170.814 39.026 171.007 39.838 171.393 40.3846C171.778 40.9233 172.357 41.1926 173.129 41.1926C173.628 41.1926 174.098 41.1122 174.54 40.9514C174.99 40.7826 175.412 40.5374 175.806 40.2158C175.565 38.3024 175.444 36.8714 175.444 35.9228ZM184.501 28.9044C183.986 28.9044 183.54 28.7315 183.162 28.3858C182.784 28.0401 182.596 27.6181 182.596 27.1196C182.596 26.6212 182.784 26.1991 183.162 25.8534C183.54 25.5077 183.986 25.3349 184.501 25.3349C185.015 25.3349 185.458 25.5077 185.827 25.8534C186.205 26.1991 186.394 26.6212 186.394 27.1196C186.394 27.6181 186.205 28.0401 185.827 28.3858C185.458 28.7315 185.015 28.9044 184.501 28.9044ZM185.526 37.7437C185.526 38.2019 185.538 38.9375 185.562 39.9505C185.594 40.9635 185.61 41.6991 185.61 42.1573C185.61 42.6236 185.454 43.0095 185.14 43.315C184.826 43.6125 184.428 43.7612 183.946 43.7612C183.464 43.7612 183.066 43.6125 182.752 43.315C182.439 43.0095 182.282 42.6236 182.282 42.1573C182.282 41.6991 182.266 40.9635 182.234 39.9505C182.21 38.9375 182.198 38.2019 182.198 37.7437C182.198 37.0282 182.238 36.1318 182.318 35.0545C182.399 33.9772 182.439 33.0808 182.439 32.3653C182.439 31.899 182.596 31.5172 182.909 31.2197C183.223 30.9142 183.621 30.7615 184.103 30.7615C184.585 30.7615 184.983 30.9142 185.297 31.2197C185.61 31.5172 185.767 31.899 185.767 32.3653C185.767 33.0808 185.727 33.9772 185.646 35.0545C185.566 36.1318 185.526 37.0282 185.526 37.7437ZM202.505 32.7271C203.719 31.3202 204.869 30.6168 205.954 30.6168C207.192 30.6168 208.101 31.0871 208.679 32.0277C209.17 31.5935 209.712 31.268 210.307 31.0509C210.902 30.8338 211.545 30.7253 212.237 30.7253C213.813 30.7253 214.882 31.5091 215.445 33.0768C215.557 33.3984 215.73 34.4877 215.963 36.3448C216.188 37.6472 216.478 39.8179 216.831 42.8568C216.863 43.315 216.707 43.6929 216.361 43.9903C216.015 44.2878 215.609 44.4365 215.143 44.4365C214.218 44.4365 213.676 43.9783 213.515 43.0618C213.37 42.2337 213.222 41.064 213.069 39.5526C212.908 37.8964 212.775 36.7227 212.671 36.0313C212.454 34.5922 212.176 33.8727 211.839 33.8727C211.654 33.8727 211.232 34.0576 210.573 34.4274C209.913 34.7973 209.431 35.1148 209.126 35.3801C209.126 36.2966 209.234 37.6151 209.451 39.3355C209.676 41.0961 209.789 42.4146 209.789 43.2909C209.789 43.7491 209.632 44.131 209.318 44.4365C209.005 44.742 208.607 44.8947 208.125 44.8947C207.642 44.8947 207.244 44.742 206.931 44.4365C206.617 44.131 206.46 43.7491 206.46 43.2909C206.46 42.3744 206.36 41.0278 206.159 39.2511C205.966 37.4663 205.87 36.1157 205.87 35.1992C205.87 34.6847 205.825 34.2747 205.737 33.9692C204.804 34.5078 203.868 35.4042 202.927 36.6584C202.887 36.7146 202.819 36.7991 202.722 36.9116C202.69 38.5356 202.674 39.8098 202.674 40.7344C202.674 40.9595 202.666 41.265 202.65 41.6508C202.634 42.0287 202.626 42.3101 202.626 42.495C202.626 42.9291 202.449 43.2708 202.095 43.52C201.774 43.7531 201.376 43.8697 200.901 43.8697C200.218 43.8697 199.756 43.5723 199.514 42.9773C199.346 42.5754 199.261 41.9362 199.261 41.0599V36.574C199.261 36.172 199.245 35.5851 199.213 34.8133C199.181 34.0335 199.165 33.4426 199.165 33.0406C199.165 32.3251 199.293 31.678 199.551 31.0991C199.864 30.3756 200.306 30.0138 200.877 30.0138C201.327 30.0138 201.729 30.1907 202.083 30.5444C202.437 30.8901 202.614 31.272 202.614 31.69C202.614 31.5212 202.577 31.8669 202.505 32.7271ZM229.144 36.4293C229.144 36.9679 229.148 37.7799 229.156 38.8652C229.164 39.9505 229.168 40.7625 229.168 41.3011C229.168 41.47 229.18 41.7232 229.204 42.0609C229.236 42.3905 229.252 42.6397 229.252 42.8085C229.252 43.2587 229.087 43.6285 228.758 43.918C228.436 44.2154 228.038 44.3641 227.564 44.3641C226.897 44.3641 226.41 44.0627 226.105 43.4597C225.076 43.8376 224.011 44.0265 222.909 44.0265C221.768 44.0265 220.807 43.7853 220.027 43.3029C219.151 42.7482 218.628 41.9403 218.459 40.8791C218.146 38.8692 217.989 37.0724 217.989 35.4886C217.989 34.4435 218.11 33.2497 218.351 31.9071C218.512 30.9986 219.054 30.5444 219.979 30.5444C220.445 30.5444 220.843 30.6931 221.173 30.9906C221.502 31.28 221.667 31.6498 221.667 32.1C221.667 32.4538 221.607 33.0085 221.486 33.7642C221.374 34.5199 221.317 35.0947 221.317 35.4886C221.317 36.6222 221.353 37.6151 221.426 38.4672C221.506 39.3114 221.623 40.0108 221.776 40.5655C221.977 40.654 222.169 40.7223 222.354 40.7705C222.547 40.8188 222.732 40.8429 222.909 40.8429C223.801 40.8429 224.782 40.7143 225.852 40.457C225.852 39.838 225.848 39.1345 225.839 38.3466C225.823 37.406 225.815 36.7307 225.815 36.3207C225.815 34.6726 225.892 33.2497 226.044 32.0518C226.165 31.0951 226.712 30.6168 227.685 30.6168C228.159 30.6168 228.565 30.7655 228.902 31.0629C229.24 31.3604 229.397 31.7342 229.373 32.1844C229.22 35.2475 229.144 36.6624 229.144 36.4293ZM235.149 41.6267C235.149 43.1542 234.594 43.918 233.485 43.918C233.003 43.918 232.605 43.7652 232.291 43.4597C231.978 43.1542 231.821 42.7603 231.821 42.2779V25.6002C231.821 25.1339 231.99 24.752 232.327 24.4546C232.649 24.1812 233.047 24.0445 233.521 24.0445C233.995 24.0445 234.385 24.1893 234.691 24.4787C234.996 24.7601 235.149 25.1339 235.149 25.6002V41.6267ZM246.726 33.6918C246.557 33.6918 246.356 33.6878 246.123 33.6798C245.898 33.6637 245.701 33.6557 245.532 33.6557C245.202 33.6557 244.82 33.6878 244.386 33.7521C244.531 37 244.603 39.1225 244.603 40.1193C244.603 40.2238 244.607 40.4208 244.615 40.7102C244.624 40.9916 244.628 41.2207 244.628 41.3976C244.628 43.2467 244.045 44.1712 242.879 44.1712C242.437 44.1712 242.055 44.0345 241.733 43.7612C241.38 43.4718 241.203 43.11 241.203 42.6759C241.203 42.3864 241.215 41.9523 241.239 41.3735C241.263 40.7946 241.275 40.3605 241.275 40.0711C241.275 39.0983 241.203 37.0161 241.058 33.8245C240.56 33.8004 239.804 33.7361 238.791 33.6315C237.786 33.519 237.284 32.9964 237.284 32.0639C237.284 31.6136 237.436 31.2318 237.742 30.9182C238.047 30.6047 238.441 30.4479 238.924 30.4479C239.221 30.4479 239.904 30.4962 240.974 30.5926C240.966 30.3354 240.945 29.9093 240.913 29.3144C240.881 28.7999 240.865 28.4019 240.865 28.1205C240.865 27.6703 241.03 27.2965 241.36 26.999C241.689 26.7016 242.087 26.5528 242.553 26.5528C243.743 26.5528 244.338 27.5537 244.338 29.5556L244.314 30.5444C244.812 30.4721 245.218 30.4359 245.532 30.4359C246.457 30.4359 247.088 30.4962 247.425 30.6168C248.068 30.8419 248.39 31.3323 248.39 32.088C248.39 32.5462 248.233 32.9281 247.92 33.2336C247.606 33.5391 247.208 33.6918 246.726 33.6918Z" fill="black"/>
</svg>
