<svg width="400" height="70" viewBox="0 0 400 70" fill="none" xmlns="http://www.w3.org/2000/svg">
<path d="M2.97046 16.1406C2.97046 8.96092 8.79076 3.14062 15.9705 3.14062H383.97C391.15 3.14062 396.97 8.96092 396.97 16.1406V53.1406C396.97 60.3203 391.15 66.1406 383.97 66.1406H15.9705C8.79076 66.1406 2.97046 60.3203 2.97046 53.1406V16.1406Z" fill="#E9E9E9"/>
<path d="M114.22 0C115.146 -0.00190147 116.008 0.287724 116.767 0.75L117.517 1.20312L118.236 1.65625L118.877 1.45312L119.627 1.21875C120.161 1.05319 120.7 0.91447 121.236 0.78125L122.736 0.40625C123.851 0.129392 124.913 0.387094 125.799 0.953125L126.549 1.4375L127.049 1.75L127.517 1.5L128.267 1.09375C129.064 0.658864 129.95 0.418597 130.892 0.5L131.642 0.578125L132.392 0.640625C133.185 0.709336 133.939 0.944716 134.642 1.3125L135.392 1.70312L135.97 2.01562L136.549 1.70312L137.299 1.3125C138.03 0.930202 138.821 0.696172 139.658 0.671875L140.408 0.65625L141.158 0.625C141.676 0.610706 142.202 0.607802 142.72 0.609375H144.22C144.687 0.610849 145.16 0.615552 145.627 0.59375L146.377 0.546875L147.127 0.515625C147.595 0.493728 148.064 0.465291 148.533 0.421875L149.283 0.34375L150.033 0.28125C151.036 0.188206 151.964 0.471637 152.767 0.96875L153.517 1.4375L153.908 1.6875L154.345 1.39062L155.095 0.875L155.908 0.453125C156.474 0.241029 157.079 0.183444 157.689 0.296875L158.611 0.59375L160.111 1.34375C160.462 1.51724 160.79 1.62788 161.095 1.6875L161.845 1.82812L162.595 1.98438H162.642C162.661 1.98071 162.707 1.9622 162.783 1.92188L163.533 1.51562L164.283 1.125L165.158 0.796875C165.743 0.659063 166.337 0.67118 166.908 0.84375L167.752 1.21875L168.502 1.67188L168.845 1.89062L169.283 1.57812L170.033 1.03125C170.679 0.55884 171.455 0.235097 172.299 0.21875L173.158 0.3125L173.908 0.46875L174.658 0.640625C175.271 0.777935 175.874 0.976686 176.47 1.21875L177.22 1.51562L177.97 1.82812C178.09 1.87656 178.156 1.86042 178.22 1.84375L178.97 1.65625L179.72 1.45312C180.502 1.25056 181.301 1.22261 182.095 1.375L182.845 1.51562L183.595 1.67188C183.694 1.69087 183.808 1.68984 183.97 1.625L184.72 1.3125L185.47 1.01562C186.293 0.684142 187.136 0.663951 187.924 0.90625L188.689 1.23438L189.439 1.64062L189.986 1.95312L190.533 1.67188L191.283 1.28125C191.934 0.938892 192.623 0.686562 193.33 0.546875L194.08 0.390625L194.83 0.25C195.92 0.0356891 196.943 0.309174 197.799 0.859375L199.299 1.82812C199.315 1.83856 199.334 1.85304 199.345 1.85938L200.017 1.70312L200.767 1.53125C201.132 1.44749 201.519 1.31473 201.908 1.14062L202.658 0.8125L203.408 0.46875L204.314 0.203125C204.92 0.111878 205.513 0.203588 206.064 0.421875L206.861 0.84375L208.361 1.875C208.407 1.9068 208.433 1.94277 208.455 1.95312L209.158 1.82812L209.908 1.71875C210.261 1.66337 210.627 1.56477 211.002 1.42188L211.752 1.125L212.502 0.84375L213.299 0.640625C214.083 0.517434 214.867 0.643523 215.595 1L216.345 1.375L217.064 1.71875L217.736 1.45312L218.486 1.15625C219.073 0.923723 219.667 0.733016 220.267 0.59375L221.017 0.421875L221.767 0.234375C222.65 0.0298494 223.546 0.092463 224.392 0.390625L225.892 0.921875C226.151 1.01232 226.381 1.04485 226.595 1.03125L228.095 0.9375C228.448 0.915081 228.806 0.853436 229.174 0.75L229.924 0.53125L230.674 0.328125C231.735 0.0284069 232.779 0.198302 233.689 0.703125L234.439 1.125L235.189 1.53125C235.268 1.57477 235.312 1.59334 235.314 1.59375L236.064 1.4375L236.814 1.26562C237.25 1.1737 237.687 1.05725 238.127 0.921875L238.877 0.703125L239.627 0.46875C240.332 0.251749 241.064 0.144169 241.799 0.171875L243.299 0.234375C243.878 0.25634 244.456 0.314845 245.033 0.40625L245.783 0.53125L246.533 0.640625C247.219 0.749445 247.886 0.960473 248.533 1.25L249.283 1.57812L249.783 1.8125L250.361 1.42188L251.111 0.921875C251.879 0.408726 252.769 0.078733 253.752 0.09375H254.502L255.252 0.109375C255.729 0.11666 256.212 0.118397 256.689 0.109375L258.189 0.078125C258.886 0.0655971 259.576 0.157545 260.252 0.34375L261.002 0.546875L261.752 0.765625C262.194 0.887374 262.641 0.983525 263.08 1.0625L263.83 1.1875L264.58 1.32812C265.044 1.41162 265.507 1.4878 265.97 1.54688L267.47 1.73438C267.656 1.75805 267.855 1.74613 268.08 1.67188L269.58 1.17188C270.118 0.992051 270.665 0.829952 271.205 0.6875L272.705 0.28125C273.488 0.0750437 274.298 0.0521496 275.095 0.203125L276.595 0.484375C276.842 0.530596 277.082 0.533614 277.33 0.484375L278.08 0.328125L278.83 0.1875C279.647 0.0245966 280.469 0.0529033 281.267 0.28125L282.767 0.71875C283.314 0.87574 283.865 1.04971 284.408 1.25L285.158 1.53125L285.877 1.8125L285.908 1.79688L286.658 1.46875L287.408 1.125C288.036 0.845216 288.686 0.642962 289.345 0.515625L290.095 0.375L290.845 0.21875C291.656 0.0629991 292.475 0.104857 293.267 0.328125L294.017 0.546875L294.767 0.75C295.192 0.869679 295.614 0.964318 296.033 1.03125L296.783 1.15625L297.533 1.26562C297.986 1.33779 298.441 1.3987 298.892 1.4375L300.392 1.5625C300.767 1.59473 301.142 1.59947 301.517 1.5625L303.017 1.40625C303.71 1.33747 304.41 1.37045 305.095 1.5L305.845 1.64062L306.533 1.78125C306.549 1.77503 306.58 1.76379 306.627 1.73438L308.127 0.765625C308.616 0.448708 309.213 0.204047 309.877 0.171875C310.21 0.156083 310.528 0.205494 310.83 0.28125L311.689 0.609375L312.439 1.03125L313.049 1.375L313.642 1.09375L314.392 0.75C315.255 0.356791 316.203 0.241902 317.158 0.453125L317.908 0.609375L318.658 0.78125C319.017 0.860365 319.371 0.89001 319.72 0.890625L320.47 0.90625H321.22C322.04 0.907268 322.828 1.09506 323.564 1.4375L324.314 1.78125L325.064 2.14062C325.263 2.23267 325.401 2.22998 325.502 2.21875L327.002 2.0625C327.479 2.00914 327.962 1.94451 328.439 1.875L329.939 1.65625C330.28 1.6061 330.635 1.51684 331.002 1.375L332.502 0.78125C333.289 0.477271 334.123 0.360432 334.97 0.46875L335.72 0.578125L336.47 0.671875C337.152 0.759911 337.823 0.939679 338.47 1.20312L339.22 1.51562L339.97 1.8125L340.017 1.82812C340.021 1.82746 340.033 1.83371 340.049 1.82812L340.799 1.54688L341.549 1.28125C342.357 0.992252 343.209 0.915396 344.064 1.0625L345.564 1.3125C346.14 1.41183 346.713 1.54973 347.283 1.71875L348.033 1.9375L348.674 2.14062L349.408 1.67188L350.158 1.20312C350.653 0.894365 351.249 0.678449 351.908 0.65625C352.569 0.634942 353.17 0.820065 353.689 1.10938L354.439 1.51562L355.189 1.9375C355.453 2.0846 355.654 2.13425 355.799 2.14062L356.549 2.17188L357.299 2.1875C357.449 2.19363 357.637 2.17358 357.877 2.0625L358.627 1.71875L359.377 1.35938C360.361 0.903005 361.431 0.87395 362.455 1.28125L363.955 1.875C364.083 1.9261 364.163 1.92427 364.236 1.90625L365.736 1.53125C366.393 1.36761 367.064 1.27675 367.736 1.28125L368.486 1.29688H369.236C369.495 1.29835 369.768 1.25825 370.064 1.15625L370.814 0.890625L371.564 0.640625C372.387 0.356238 373.25 0.280413 374.111 0.453125L375.611 0.765625C376.018 0.847771 376.427 0.898171 376.83 0.921875L377.58 0.96875L378.33 1C378.723 1.02286 379.123 1.024 379.517 0.984375L381.017 0.828125C381.73 0.756238 382.442 0.800119 383.142 0.953125L383.892 1.10938L384.642 1.28125C385.297 1.42507 385.923 1.65191 386.517 1.95312L387.174 2.28125L387.845 2.60938C387.971 2.67288 388.138 2.72236 388.377 2.71875L389.174 2.70312H389.986C390.833 2.69149 391.646 2.87713 392.408 3.25L393.127 3.59375L393.861 3.95312C394.762 4.39736 395.329 5.12675 395.595 5.96875L395.767 6.84375L395.83 7.73438L395.877 8.45312L396.564 8.8125L397.377 9.25C397.886 9.52219 398.4 9.92704 398.752 10.5312C399.115 11.1549 399.224 11.8343 399.158 12.4688L399.064 13.2812L398.986 14.1094C398.936 14.5965 398.91 15.0561 398.908 15.4844L398.892 16.2344V16.9844C398.888 17.7189 398.763 18.4445 398.517 19.1406L397.986 20.6406V20.6562L398.33 21.4062L398.658 22.1562C399.046 23.029 399.166 23.9825 398.939 24.9375L398.752 25.6875L398.58 26.4375C398.549 26.5714 398.544 26.7013 398.595 26.8594L398.845 27.6094L399.08 28.3594C399.333 29.1453 399.414 29.9608 399.283 30.7812L399.033 32.2812C398.966 32.7003 398.922 33.1309 398.908 33.5469L398.892 34.2969L398.861 35.0469C398.852 35.322 398.884 35.6063 398.97 35.9062L399.408 37.4062C399.712 38.4503 399.564 39.4902 399.08 40.4062L398.689 41.1562L398.283 41.9062L398.517 42.5938L398.752 43.3438C398.978 44.0375 399.1 44.7584 399.095 45.4844V46.2344L399.08 46.9844C399.076 47.5302 399.059 48.0796 399.017 48.625L398.955 49.375L398.908 50.125C398.859 50.7588 398.739 51.3834 398.564 52L398.361 52.75L398.142 53.4844C398.014 53.9373 397.914 54.3653 397.83 54.7656L397.689 55.4375L397.549 56.125C397.514 56.2937 397.491 56.5554 397.549 56.9375L397.674 57.7812L397.814 58.6406C397.961 59.6204 397.796 60.6009 397.283 61.4844L396.877 62.1719L396.486 62.875C396.026 63.6664 395.36 64.2821 394.549 64.7031L393.83 65.0781L393.127 65.4531C392.388 65.8367 391.584 66.0478 390.752 66.0781L389.955 66.0938L389.158 66.125C388.792 66.1383 388.499 66.2056 388.283 66.2812L387.642 66.5L386.986 66.7344C386.331 66.9633 385.649 67.0634 384.955 67.0625H383.533C383.477 67.0624 383.323 67.0841 383.064 67.2344L381.564 68.1094C381.056 68.4031 380.455 68.5968 379.799 68.5938C379.144 68.5897 378.552 68.3898 378.049 68.0938L377.299 67.6406L376.845 67.375L376.377 67.6719L375.627 68.1562C374.665 68.7625 373.513 68.9632 372.361 68.5312L371.611 68.2344L370.861 67.9531C370.723 67.901 370.626 67.9147 370.533 67.9375L369.783 68.1094L369.033 68.2969C368.159 68.5092 367.27 68.4695 366.424 68.1875L364.924 67.6875C364.619 67.5867 364.336 67.531 364.064 67.5312L363.314 67.5469H362.564C362.013 67.5473 361.459 67.5264 360.908 67.4844L359.408 67.3594C359.364 67.3563 359.26 67.3583 359.064 67.4688L358.314 67.9062L357.564 68.3281C356.506 68.9345 355.294 68.9966 354.174 68.4375L353.424 68.0781L352.674 67.7031C352.612 67.6725 352.574 67.658 352.564 67.6562H352.533L351.033 68.0312C350.514 68.1585 349.99 68.2814 349.47 68.3906L347.97 68.7031C347.325 68.8385 346.673 68.8904 346.017 68.875L344.517 68.8438C343.848 68.8278 343.185 68.7265 342.533 68.5469L341.033 68.1406C340.79 68.0737 340.566 68.0634 340.345 68.0938L339.595 68.1875L338.845 68.2969C338.333 68.3687 337.812 68.4384 337.299 68.5L336.549 68.5938L335.799 68.6719C335.015 68.7657 334.239 68.6959 333.486 68.4688L332.736 68.25L331.986 68.0156C331.767 67.9495 331.568 67.9379 331.377 67.9688L329.877 68.2188C329.148 68.3356 328.414 68.3259 327.689 68.1875L326.939 68.0312L326.189 67.8906C325.904 67.8361 325.625 67.8359 325.345 67.875L324.595 67.9844L323.845 68.0781C323.337 68.1498 322.822 68.2315 322.314 68.2969L320.814 68.4844C320.39 68.5392 319.962 68.6147 319.533 68.7188L318.783 68.9062L318.033 69.0781C316.841 69.3674 315.744 69.0277 314.877 68.3906L314.127 67.8281L313.58 67.4375L313.174 67.6406L312.424 68C311.355 68.5109 310.202 68.4857 309.158 67.9531L308.408 67.5625L307.658 67.1875L306.97 67.4219L306.22 67.6875C305.713 67.8623 305.197 68.0348 304.689 68.2031L303.939 68.4531L303.189 68.6875C302.432 68.9387 301.643 69.0382 300.845 68.9531L299.345 68.7969C298.871 68.7463 298.397 68.7058 297.924 68.6719L297.174 68.6094L296.424 68.5625C295.652 68.5073 294.905 68.3006 294.205 67.9688L293.455 67.6094L293.017 67.3906L292.486 67.7969L291.736 68.3438C291.267 68.6846 290.688 68.9611 290.017 69.0312C289.334 69.1019 288.695 68.9431 288.142 68.6562L286.642 67.875L286.517 67.8281H286.502L285.002 68.1719C284.367 68.3139 283.725 68.3863 283.08 68.3906H282.33L281.58 68.4062C280.905 68.4104 280.224 68.3233 279.564 68.1562L278.064 67.7812C277.673 67.6825 277.29 67.6082 276.908 67.5781L276.158 67.5156L275.408 67.4688C274.961 67.4337 274.51 67.4054 274.064 67.4062H273.314L272.564 67.4219C272.481 67.4225 272.333 67.4367 272.095 67.5781L270.595 68.4844C269.745 68.9944 268.752 69.2375 267.705 69.0469L266.205 68.7656C265.497 68.6364 264.812 68.3944 264.158 68.0625L263.408 67.6875L262.705 67.3281L262.064 67.6094L261.314 67.9062C260.615 68.1884 259.877 68.3493 259.127 68.375L257.627 68.4375C256.767 68.4661 255.947 68.2603 255.189 67.8906L254.439 67.5156L253.752 67.1875L253.095 67.4688L252.345 67.7969C251.383 68.2087 250.352 68.2468 249.361 67.875L247.861 67.3125C247.581 67.2072 247.326 67.1677 247.095 67.1719H246.345L245.595 67.1875C245.028 67.1976 244.459 67.1899 243.892 67.1406L243.142 67.0625L242.392 67C242.004 66.9661 241.609 66.9686 241.22 67L239.72 67.125C239.587 67.1364 239.385 67.1898 239.111 67.3594L238.361 67.8125L237.611 68.2812C236.853 68.7494 235.994 69.045 235.064 69.0469H233.564C232.885 69.048 232.21 68.9567 231.549 68.7812L230.799 68.5781L230.049 68.3906C229.452 68.2324 228.866 68.0145 228.283 67.7656L227.533 67.4531L226.783 67.125C226.668 67.0759 226.613 67.0974 226.564 67.1094L225.064 67.4844C224.61 67.6001 224.146 67.7397 223.689 67.8906L222.939 68.125L222.189 68.375C221.493 68.605 220.778 68.7245 220.049 68.7188H219.299L218.549 68.7031C217.997 68.6986 217.444 68.6727 216.892 68.625L215.392 68.5C214.762 68.4454 214.135 68.3317 213.517 68.1562L212.767 67.9375L212.017 67.7344C211.671 67.6359 211.329 67.5717 211.002 67.5625L209.502 67.5312C209.415 67.5297 209.273 67.5458 209.049 67.6719L207.549 68.5156C206.802 68.9364 205.975 69.189 205.095 69.2031L203.595 69.2344C202.635 69.2497 201.753 68.9443 200.986 68.4531L200.236 67.9688L199.72 67.6406L199.283 67.8906L198.533 68.3125C197.668 68.7879 196.679 68.9782 195.658 68.7656L194.158 68.4531C193.751 68.3679 193.341 68.3222 192.939 68.2969L192.189 68.2344L191.439 68.1875C191.066 68.1641 190.69 68.1868 190.314 68.2344L188.814 68.4219C188.299 68.4872 187.783 68.5415 187.267 68.5938L185.767 68.75C184.956 68.8322 184.155 68.7257 183.392 68.4531L182.642 68.1875L181.892 67.9062C181.634 67.8135 181.401 67.7833 181.189 67.7969L180.439 67.8594L179.689 67.9062C178.99 67.9509 178.296 67.8787 177.611 67.7188L176.111 67.375C176.002 67.3494 175.886 67.3522 175.736 67.4062L174.236 67.9375C173.711 68.127 173.184 68.319 172.658 68.4844L171.158 68.9531C170.375 69.1984 169.566 69.2548 168.752 69.125L168.002 69.0156L167.252 68.8906C166.891 68.8329 166.529 68.8091 166.174 68.8281L164.674 68.9219C164.043 68.956 163.41 68.9185 162.783 68.8281L161.283 68.6094C160.872 68.5499 160.457 68.5196 160.049 68.5156H159.299L158.549 68.5C157.939 68.4943 157.325 68.449 156.72 68.3438L155.97 68.2031L155.22 68.0781C155.013 68.042 154.805 68.049 154.58 68.1094L153.08 68.5156C151.979 68.8105 150.916 68.5814 150.017 68.0312L149.267 67.5625L148.908 67.3438L148.486 67.6562L147.736 68.2031C146.85 68.8476 145.734 69.1765 144.533 68.8438L143.033 68.4375C142.883 68.3956 142.745 68.3961 142.595 68.4375L141.095 68.8438C140.027 69.1391 138.986 68.951 138.08 68.4375L136.58 67.5938L136.439 67.5312L134.939 67.8125C134.494 67.8964 134.043 68.003 133.595 68.125L132.095 68.5312C131.298 68.7488 130.47 68.7749 129.658 68.6094L128.908 68.4531L128.158 68.3125C127.679 68.215 127.199 68.1134 126.72 68.0312L125.22 67.7812C124.905 67.7272 124.594 67.7165 124.283 67.75L122.783 67.9062C122.255 67.9636 121.717 68.0116 121.189 68.0469L120.439 68.0938L119.689 68.1562C119.4 68.1763 119.093 68.2366 118.767 68.3594L117.267 68.9219C116.477 69.2195 115.645 69.3313 114.799 69.2188L114.049 69.125L113.299 69.0156C112.492 68.9082 111.73 68.6184 111.033 68.2031L110.283 67.7656L109.533 67.3125C109.307 67.179 109.177 67.1705 109.111 67.1719L107.611 67.2031C107.567 67.2042 107.437 67.2238 107.189 67.3906L105.689 68.3906C104.785 69.0016 103.666 69.2905 102.502 68.9531L101.002 68.5156C100.711 68.4319 100.438 68.3928 100.174 68.4062L98.6736 68.5C98.0707 68.532 97.4628 68.5146 96.8611 68.4531L95.3611 68.2969C94.7443 68.2338 94.1232 68.1224 93.5173 67.9531L92.7673 67.7344L92.0173 67.5312C91.8112 67.4745 91.6274 67.4656 91.4392 67.5L89.9392 67.7812C89.305 67.9003 88.6587 67.9527 88.0173 67.9375L86.5173 67.9062C85.8889 67.8912 85.2622 67.8061 84.6423 67.6719L83.8923 67.5156L83.2361 67.3594C83.2258 67.3656 83.2185 67.3813 83.2048 67.3906L82.4548 67.9219L81.7048 68.4375C81.1918 68.793 80.5408 69.0504 79.7986 69.0469C79.0593 69.0422 78.4157 68.7785 77.908 68.4219L77.158 67.8906L76.6736 67.5469L76.2673 67.7656L75.5173 68.1719C74.7662 68.5771 73.9381 68.8278 73.0642 68.8281H71.5642C70.9214 68.8282 70.2759 68.7595 69.6423 68.625L68.8923 68.4531L68.1423 68.2969C67.519 68.1642 66.9024 67.9676 66.2986 67.7188L65.5486 67.4219L65.1111 67.2344L64.533 67.6875L63.783 68.2656C63.0143 68.8552 62.0719 69.2517 61.0017 69.2188L60.2517 69.2031L59.5017 69.1719C59.0541 69.158 58.6057 69.1666 58.158 69.1875L57.408 69.2188L56.658 69.2656C55.8822 69.302 55.1226 69.1669 54.3923 68.9062L52.8923 68.375C52.6194 68.2776 52.3702 68.2405 52.1423 68.25L50.6423 68.3125C50.2608 68.3285 49.8752 68.3842 49.4861 68.4688L48.7361 68.625L47.9861 68.7969C47.1725 68.9733 46.3507 68.9496 45.5486 68.7344L44.0486 68.3281C43.8487 68.2742 43.6575 68.2731 43.4705 68.3125L41.9705 68.625C40.9382 68.8411 39.9459 68.6279 39.0798 68.1406L37.5798 67.2969C37.529 67.2686 37.496 67.2683 37.4861 67.2656L36.7673 67.4375L36.0173 67.6094C35.5297 67.7217 35.0363 67.833 34.5486 67.9531L33.0486 68.3281C32.3597 68.4978 31.6447 68.5568 30.9392 68.5156L30.1892 68.4688L29.4392 68.4375C28.6901 68.3929 27.9603 68.2043 27.2673 67.9062L26.5173 67.5781L25.908 67.3125L25.2673 67.6719L24.5173 68.0781C23.7865 68.475 22.9858 68.7296 22.1423 68.7656L20.6423 68.8281C19.8804 68.8599 19.1291 68.7327 18.408 68.4844L17.658 68.2344L16.908 67.9688C16.4641 67.8161 16.036 67.6948 15.6267 67.5938L14.908 67.4219L14.1892 67.2344C13.8444 67.1499 13.4867 67.1102 13.1267 67.0938L12.3923 67.0469L11.658 67.0156C11.0007 66.9856 10.3473 66.8721 9.70483 66.6875L8.95483 66.4844L8.20483 66.2656C7.29783 66.0049 6.51782 65.4827 5.93921 64.7344L5.47046 64.125L5.00171 63.5C4.65225 63.048 4.3188 62.5932 4.01733 62.125L3.61108 61.4844L3.20483 60.8594C2.89384 60.376 2.60223 59.8783 2.34546 59.3594L2.01733 58.6719L1.67358 58C1.33394 57.3133 1.14711 56.5768 1.09546 55.8125L1.04858 55.0469L0.986084 54.2969C0.96213 53.9386 0.90423 53.5709 0.798584 53.2031L0.361084 51.7031C0.174489 51.0521 0.0686883 50.3889 0.048584 49.7188L0.032959 48.9688L0.00170898 48.2188C-0.0285435 47.1834 0.349638 46.2548 0.907959 45.4844L1.45483 44.7344L1.97046 44.0312L1.79858 43.4844L1.56421 42.7344C1.34593 42.014 1.26423 41.266 1.31421 40.5156L1.40796 39.0156C1.4383 38.5584 1.45263 38.0976 1.45483 37.6406L1.47046 36.8906V36.1406C1.4733 35.5775 1.50548 35.0152 1.56421 34.4531L1.72046 32.9531C1.74884 32.6826 1.72574 32.3948 1.65796 32.1094L1.48608 31.3594L1.29858 30.6094C1.12475 29.8732 1.09743 29.1239 1.20483 28.375L1.42358 26.875C1.42747 26.8481 1.4374 26.7658 1.34546 26.5938L0.532959 25.0938C0.236267 24.5366 0.0816213 23.8854 0.157959 23.1875C0.233342 22.5016 0.524023 21.9207 0.876709 21.4531L1.43921 20.7031L1.64233 20.4375L1.40796 20.1562L0.814209 19.4062C0.455521 18.9554 0.151773 18.3776 0.048584 17.7031C-0.0565973 17.0096 0.0752914 16.3427 0.361084 15.7656L0.720459 15.0312L1.09546 14.2812C1.29025 13.8872 1.438 13.5241 1.53296 13.1875L1.72046 12.4688L1.92358 11.7656C2.02945 11.389 2.10951 10.97 2.17358 10.5156L2.29858 9.70312L2.40796 8.90625L2.65796 8C3.01521 7.17001 3.68266 6.54725 4.54858 6.20312L5.34546 5.89062L6.12671 5.57812C6.52471 5.42043 6.83094 5.25345 7.04858 5.09375L7.61108 4.67188L8.18921 4.26562C8.62505 3.94592 9.07528 3.63673 9.54858 3.35938L10.1736 3L10.7986 2.625C11.1965 2.39174 11.6263 2.1411 12.0798 1.85938L13.4861 0.984375C13.7787 0.802794 14.1837 0.578943 14.6423 0.46875C15.0461 0.371784 16.0617 0.267067 16.8455 1.10938L17.3923 1.07812L18.1423 1.04688C18.9125 1.01578 19.6669 1.14762 20.3923 1.40625L21.8923 1.9375C21.9773 1.96769 22.0215 1.96182 22.0955 1.9375L22.8455 1.6875L23.5955 1.45312C24.4749 1.16389 25.3907 1.14614 26.283 1.40625L27.783 1.84375H27.8298C27.8414 1.84213 27.8756 1.83356 27.9236 1.8125L29.4236 1.15625C30.1215 0.850941 30.853 0.666044 31.6111 0.625L32.3611 0.578125L33.1111 0.546875C33.6468 0.518061 34.1846 0.498815 34.7205 0.5H36.2205C36.7765 0.501321 37.337 0.529997 37.8923 0.578125L39.3923 0.703125C39.7592 0.734934 40.1338 0.729343 40.5017 0.6875L41.2517 0.609375L42.0017 0.515625C42.8451 0.421064 43.6744 0.553073 44.4548 0.859375L45.9548 1.45312H46.033L47.533 0.890625C48.2095 0.641196 48.9129 0.48844 49.6267 0.453125L51.1267 0.390625C51.6112 0.366626 52.0953 0.329546 52.5798 0.296875L54.0798 0.203125C54.9997 0.141033 55.8728 0.362318 56.658 0.78125L57.408 1.17188L58.158 1.57812C58.4638 1.74153 58.7309 1.81567 58.9548 1.84375L60.4548 2.03125C60.7862 2.07142 61.1228 2.07446 61.4548 2.03125L62.2048 1.92188L62.9548 1.82812C63.2218 1.79302 63.519 1.70497 63.8455 1.54688L65.3455 0.828125C66.0553 0.484106 66.8236 0.33812 67.5955 0.4375L68.3611 0.625L69.8611 1.125C70.2584 1.25885 70.6485 1.35916 71.033 1.42188L71.783 1.54688L72.533 1.65625C72.829 1.70424 73.1288 1.71526 73.4236 1.67188L74.1736 1.5625L74.9236 1.4375C75.7366 1.31679 76.5507 1.39292 77.3298 1.64062L78.0798 1.89062L78.8298 2.125H78.8767C78.8868 2.12225 78.9026 2.11821 78.9236 2.10938L80.4236 1.45312L81.1892 1.21875C81.9667 1.05476 82.761 1.13875 83.5173 1.46875L84.2673 1.79688L84.9236 2.09375L85.5955 1.75L86.3455 1.39062C87.2379 0.95401 88.2218 0.818399 89.2205 1.07812L89.9705 1.26562L90.7205 1.46875H90.7517L91.5642 1.0625L92.3142 0.671875C93.1666 0.241292 94.1178 0.0779138 95.0955 0.265625L96.5955 0.546875C96.8853 0.602742 97.1712 0.614241 97.4548 0.578125L98.9548 0.390625C99.811 0.279272 100.662 0.392194 101.455 0.703125L102.955 1.29688C103.361 1.456 103.765 1.56896 104.158 1.65625L105.658 2C105.834 2.03842 106.003 2.03432 106.189 1.98438L107.689 1.57812C108.097 1.46709 108.519 1.31986 108.939 1.14062L109.689 0.8125L110.439 0.5C111.163 0.191367 111.931 0.0185598 112.72 0.015625H113.47L114.22 0ZM113.47 4.01562H112.72C112.512 4.01741 112.274 4.05555 112.002 4.17188L111.252 4.5L110.502 4.8125C109.923 5.05934 109.342 5.27632 108.752 5.4375L107.252 5.84375C106.442 6.0644 105.604 6.0888 104.783 5.90625L103.283 5.5625C102.679 5.42791 102.076 5.24713 101.486 5.01562L99.9861 4.42188C99.7845 4.34366 99.627 4.34206 99.4861 4.35938L97.9861 4.54688C97.2735 4.63955 96.5517 4.62005 95.8455 4.48438L95.0955 4.32812L94.3455 4.1875C94.3243 4.18342 94.2717 4.17721 94.1267 4.25L92.6267 5C91.7331 5.45137 90.731 5.60595 89.7205 5.34375L88.2205 4.9375H88.2048C88.2045 4.93754 88.1621 4.95174 88.0955 4.98438L87.3455 5.34375L86.5955 5.71875C85.5821 6.21293 84.4719 6.23922 83.4236 5.78125L82.6736 5.45312L81.9705 5.14062L81.2673 5.45312L80.5173 5.78125C79.5932 6.17998 78.589 6.24842 77.6111 5.9375L76.8611 5.6875L76.1111 5.45312C75.8929 5.38436 75.7023 5.37914 75.5173 5.40625L74.0173 5.625C73.3157 5.72916 72.6083 5.72216 71.908 5.60938L70.408 5.35938C69.7952 5.26005 69.1795 5.10845 68.5798 4.90625L67.8298 4.65625L67.0955 4.40625V4.42188L66.3455 4.78125L65.5955 5.15625C64.9237 5.48178 64.2171 5.70021 63.4861 5.79688L62.7361 5.89062L61.9861 6C61.3219 6.08733 60.6509 6.08009 59.9861 6L59.2361 5.90625L58.4861 5.82812C57.7133 5.73445 56.9726 5.47722 56.283 5.10938L55.533 4.70312L54.783 4.3125C54.5741 4.20089 54.4406 4.18306 54.3611 4.1875L52.8611 4.28125C52.3491 4.3158 51.8262 4.34967 51.3142 4.375L50.5642 4.42188L49.8142 4.45312C49.5318 4.46763 49.2275 4.52247 48.908 4.64062L47.408 5.20312C46.4456 5.55727 45.4371 5.54515 44.4861 5.17188L42.9861 4.57812C42.7707 4.49422 42.5922 4.48261 42.4392 4.5L41.6892 4.57812L40.9392 4.67188C40.3098 4.74294 39.679 4.74213 39.0486 4.6875L37.5486 4.5625C37.1058 4.52411 36.6626 4.50118 36.2205 4.5H34.7205C34.2587 4.4989 33.7918 4.50644 33.3298 4.53125L32.5798 4.57812L31.8298 4.60938C31.5906 4.62224 31.3172 4.68104 31.0173 4.8125L30.2673 5.15625L29.5173 5.48438C28.6121 5.87932 27.6288 5.95492 26.658 5.67188L25.158 5.23438C25.0519 5.20404 24.9646 5.2108 24.8455 5.25L24.0955 5.5L23.3455 5.73438C22.4196 6.03888 21.4631 6.02918 20.5486 5.70312L19.0486 5.17188C18.7753 5.07444 18.527 5.03749 18.2986 5.04688L16.7986 5.10938C16.4683 5.12275 16.083 5.10932 15.7048 5.03125C15.5221 4.99329 15.2595 4.90358 14.9705 4.75L14.8923 4.8125L14.1892 5.25C13.7087 5.5485 13.247 5.82451 12.8142 6.07812L12.1892 6.45312L11.5642 6.8125C11.2074 7.02178 10.8704 7.24822 10.5486 7.48438L9.98608 7.90625L9.40796 8.3125C8.86789 8.70877 8.26286 9.03816 7.61108 9.29688L6.81421 9.60938L6.29858 9.79688L6.25171 10.2656L6.14233 11.0625C6.05575 11.6787 5.9268 12.2764 5.76733 12.8438L5.57983 13.5469L5.37671 14.2656C5.20645 14.8706 4.96686 15.4703 4.67358 16.0625L4.31421 16.8125L4.12671 17.1562L4.53296 17.6562L5.12671 18.4062C5.52134 18.9023 5.85941 19.5642 5.87671 20.3594C5.89323 21.1613 5.57844 21.8434 5.18921 22.3594L4.62671 23.1094L4.25171 23.5781L4.47046 23.9688L4.86108 24.7188C5.30233 25.5454 5.51645 26.4663 5.37671 27.4375L5.15796 28.9375C5.12263 29.182 5.12885 29.4304 5.18921 29.6875L5.37671 30.4375L5.54858 31.1875C5.7181 31.9012 5.76532 32.6308 5.68921 33.3594L5.53296 34.8594C5.48767 35.2911 5.47279 35.7256 5.47046 36.1562V36.9062L5.45483 37.6562C5.45223 38.1954 5.44373 38.7424 5.40796 39.2812L5.34546 40.0312L5.29858 40.7812C5.282 41.0303 5.3077 41.2991 5.39233 41.5781L5.62671 42.3281L5.84546 43.0781C6.21234 44.2905 5.89138 45.4265 5.23608 46.3281L4.14233 47.8281C4.05838 47.9439 4.03054 48.0249 4.01733 48.0625C4.01156 48.0791 4.00252 48.0887 4.00171 48.0938L4.03296 48.8438L4.04858 49.5938C4.05811 49.9199 4.10542 50.2633 4.20483 50.6094L4.64233 52.1094C4.82314 52.7403 4.94274 53.383 4.98608 54.0312L5.03296 54.7812L5.07983 55.5469C5.09644 55.786 5.16167 56.0042 5.26733 56.2188L5.59546 56.9062L5.93921 57.5781C6.12908 57.9618 6.337 58.3338 6.56421 58.6875L6.97046 59.3281L7.37671 59.9531C7.61447 60.3226 7.87505 60.6966 8.15796 61.0625L8.64233 61.6719L9.11108 62.2812C9.16615 62.3525 9.21996 62.3948 9.31421 62.4219L10.0642 62.6406L10.8142 62.8438C11.1694 62.9456 11.5053 63.0159 11.8298 63.0312L12.5798 63.0625L13.3142 63.0938C13.9363 63.1221 14.5549 63.2107 15.158 63.3594L15.8611 63.5312L16.5798 63.7031C17.1177 63.8357 17.6683 63.9974 18.2205 64.1875L18.9705 64.4531L19.7205 64.7031C19.9932 64.7965 20.2376 64.8372 20.4705 64.8281L21.9705 64.7656C22.127 64.7589 22.3419 64.7087 22.6111 64.5625L24.1111 63.75L24.8923 63.4219C25.4251 63.2671 25.9799 63.2437 26.533 63.3438L27.3455 63.5938L28.0955 63.9062L28.8455 64.2344C29.148 64.3645 29.4266 64.4224 29.6736 64.4375L31.1736 64.5312C31.4669 64.5484 31.77 64.5135 32.0798 64.4375L32.8298 64.25L33.5798 64.0781C34.089 63.9527 34.6018 63.8204 35.1111 63.7031L36.6111 63.3594C37.6551 63.119 38.6697 63.318 39.5486 63.8125L41.0486 64.6562L41.158 64.7031L42.658 64.3906C43.4675 64.2215 44.283 64.2542 45.0798 64.4688L46.5798 64.875C46.775 64.9277 46.9587 64.9305 47.1423 64.8906L47.8923 64.7188L48.6423 64.5625C49.2511 64.4305 49.8698 64.3537 50.4861 64.3281L51.9861 64.2656C52.7561 64.2345 53.5109 64.3506 54.2361 64.6094L55.7361 65.1406C56.0058 65.2369 56.2462 65.2761 56.4705 65.2656L57.2205 65.2344L57.9705 65.1875C58.5216 65.1617 59.0754 65.1705 59.6267 65.1875L60.3767 65.2031L61.1267 65.2344V65.2188C61.1597 65.2058 61.2356 65.1777 61.3455 65.0938L62.8455 63.9375L63.6111 63.4688C64.1534 63.2186 64.7531 63.1067 65.3767 63.1719L66.3298 63.4062L67.8298 64.0312C68.2198 64.1916 68.5997 64.3115 68.9705 64.3906L70.4705 64.7031C70.8369 64.7809 71.207 64.8282 71.5642 64.8281H73.0642C73.1896 64.8278 73.3643 64.7892 73.6111 64.6562L75.1111 63.8438C75.6536 63.5511 76.2876 63.383 76.9705 63.4375C77.643 63.4923 78.2277 63.7597 78.7048 64.0938L79.4548 64.625L79.8142 64.8594L80.1736 64.625L80.9236 64.1094C81.7854 63.5123 82.8431 63.19 83.9861 63.4375L84.7361 63.6094L85.4861 63.7656C85.8653 63.8478 86.2404 63.8974 86.6111 63.9062L88.1111 63.9375C88.4676 63.946 88.8256 63.9117 89.1892 63.8438L90.6892 63.5625C91.495 63.4112 92.3082 63.4528 93.0955 63.6719L93.8455 63.8906L94.5955 64.0938C94.9896 64.2038 95.3841 64.2733 95.7673 64.3125L97.2673 64.4688C97.6639 64.5093 98.0594 64.5209 98.4548 64.5L99.2048 64.4531L99.9548 64.4219C100.687 64.383 101.42 64.4671 102.127 64.6719L102.877 64.8906L103.455 65.0469L104.189 64.5781L104.939 64.0625C105.69 63.5552 106.562 63.2256 107.517 63.2031L109.017 63.1719C109.949 63.1503 110.812 63.4191 111.58 63.875L112.33 64.3281L113.08 64.7656C113.383 64.946 113.637 65.0212 113.83 65.0469L114.58 65.1562L115.33 65.25C115.482 65.2699 115.652 65.2662 115.861 65.1875L116.611 64.9062L117.361 64.6094C118.029 64.3583 118.719 64.2039 119.424 64.1562L120.924 64.0625C121.395 64.031 121.873 63.9888 122.345 63.9375L123.095 63.8594L123.845 63.7656C124.532 63.6909 125.226 63.7266 125.908 63.8438L127.408 64.0938C127.924 64.1825 128.439 64.2855 128.955 64.3906L129.705 64.5469L130.455 64.6875C130.642 64.7257 130.831 64.7264 131.033 64.6719L132.533 64.2656C133.083 64.1156 133.636 63.9793 134.189 63.875L135.689 63.5938C136.715 63.4004 137.694 63.6245 138.549 64.1094L140.049 64.9531L140.08 64.9688L140.783 64.7812L141.533 64.5781C142.381 64.344 143.248 64.3426 144.095 64.5781L144.845 64.7812L145.408 64.9375L146.127 64.4219L146.877 63.875L147.705 63.4219C148.006 63.303 148.334 63.2247 148.689 63.2031C149.051 63.182 149.4 63.2236 149.72 63.3125L150.611 63.7031L152.111 64.6094H152.127L152.799 64.4531L153.549 64.25C154.323 64.0425 155.116 64.0027 155.908 64.1406L157.408 64.3906C157.802 64.4591 158.191 64.4963 158.58 64.5L159.33 64.5156H160.08C160.669 64.5211 161.259 64.5715 161.845 64.6562L163.345 64.875C163.716 64.9286 164.088 64.9417 164.455 64.9219L165.205 64.875L165.955 64.8438C166.597 64.809 167.239 64.8356 167.877 64.9375L169.377 65.1875C169.559 65.2167 169.756 65.2081 169.97 65.1406L170.72 64.8906L171.47 64.6562C171.938 64.5091 172.408 64.3567 172.877 64.1875L173.627 63.9062L174.377 63.6406C175.227 63.3335 176.127 63.2761 177.017 63.4844L178.517 63.8281C178.831 63.9015 179.14 63.9254 179.439 63.9062L180.939 63.8125C181.725 63.7627 182.497 63.8762 183.236 64.1406L183.986 64.4219L184.736 64.6875C184.972 64.772 185.174 64.7845 185.361 64.7656L186.111 64.6875L186.861 64.625C187.344 64.576 187.831 64.5144 188.314 64.4531L189.814 64.2656C190.438 64.1868 191.064 64.1639 191.689 64.2031L193.189 64.2969C193.786 64.3344 194.379 64.4232 194.97 64.5469L196.47 64.8594C196.475 64.8586 196.517 64.8397 196.595 64.7969L198.095 63.9844L198.955 63.6406C199.256 63.5653 199.576 63.5315 199.908 63.5469C200.24 63.5625 200.555 63.6181 200.845 63.7188L201.642 64.125L202.392 64.5938L203.142 65.0781C203.374 65.2271 203.496 65.235 203.533 65.2344L205.033 65.2031C205.153 65.2009 205.328 65.1729 205.58 65.0312L207.08 64.1875C207.846 63.7555 208.7 63.5073 209.611 63.5312L210.361 63.5469L211.111 63.5781C211.784 63.5969 212.458 63.6892 213.111 63.875L214.611 64.3125C214.992 64.4207 215.368 64.4837 215.736 64.5156L217.236 64.6406C217.684 64.6795 218.132 64.6995 218.58 64.7031L219.33 64.7188H220.08C220.349 64.7209 220.636 64.6783 220.939 64.5781L221.689 64.3281L222.439 64.0938C222.98 63.9149 223.52 63.7481 224.064 63.6094L224.814 63.4219L225.564 63.2188C226.513 62.977 227.465 63.078 228.345 63.4531L229.095 63.7812L229.845 64.0938C230.261 64.2713 230.677 64.409 231.08 64.5156L232.58 64.9219C232.915 65.0103 233.246 65.0475 233.564 65.0469H235.064C235.135 65.0458 235.282 65.0204 235.517 64.875L236.267 64.4219L237.017 63.9531C237.74 63.5069 238.543 63.2105 239.408 63.1406L240.908 63.0156C241.517 62.9667 242.127 62.9626 242.736 63.0156L243.486 63.0781L244.236 63.1562C244.666 63.1937 245.103 63.1953 245.533 63.1875L246.283 63.1719H247.033C247.8 63.1588 248.549 63.2921 249.267 63.5625L250.767 64.125L251.517 63.7969L252.267 63.4844L253.064 63.2344C253.603 63.1293 254.145 63.1466 254.674 63.2812L255.439 63.5625L256.189 63.9219L256.939 64.2969C257.179 64.4139 257.365 64.4422 257.502 64.4375L259.002 64.375C259.248 64.3656 259.518 64.3225 259.814 64.2031L260.564 63.8906L261.314 63.5938L262.111 63.3594C262.915 63.2227 263.726 63.3572 264.47 63.7344L265.22 64.125L265.97 64.5C266.315 64.6747 266.632 64.7906 266.924 64.8438L267.674 64.9688L268.408 65.0938C268.424 65.0892 268.466 65.0867 268.533 65.0469L269.283 64.5938L270.033 64.1562C270.79 63.7022 271.647 63.4237 272.564 63.4219L273.314 63.4062H274.064C274.616 63.4053 275.169 63.4255 275.72 63.4688L277.22 63.5938C277.834 63.642 278.444 63.7379 279.049 63.8906L279.799 64.0938L280.549 64.2812C280.889 64.3674 281.224 64.4081 281.549 64.4062L282.299 64.3906H283.049C283.402 64.3885 283.763 64.3471 284.127 64.2656L284.877 64.0938L285.627 63.9375C286.633 63.7124 287.613 63.8751 288.486 64.3281L289.236 64.7188L289.627 64.9219L290.142 64.5625L290.892 64.0156L291.689 63.5625C292.251 63.3301 292.863 63.2439 293.486 63.3438L294.424 63.6406L295.174 64L295.924 64.3438C296.221 64.4846 296.478 64.5461 296.705 64.5625L297.455 64.625L298.205 64.6719C298.725 64.7091 299.247 64.7571 299.767 64.8125L300.517 64.8906L301.267 64.9844C301.47 65.006 301.697 64.971 301.939 64.8906L302.689 64.6562L303.439 64.4062C303.929 64.2437 304.418 64.0751 304.908 63.9062L305.658 63.6406L306.408 63.3906L307.205 63.2031C307.989 63.1062 308.76 63.2611 309.47 63.625L310.22 64L310.83 64.3125L311.455 64.0312L312.205 63.6719L313.095 63.3906C313.407 63.3361 313.731 63.317 314.064 63.3594C314.394 63.4016 314.705 63.4875 314.986 63.6094L315.752 64.0625L317.252 65.1562L317.845 65.0156L318.595 64.8281C319.164 64.6904 319.742 64.5893 320.314 64.5156L321.814 64.3281C322.304 64.265 322.793 64.1941 323.283 64.125L324.783 63.9062C325.503 63.8047 326.225 63.832 326.939 63.9688L328.439 64.25C328.711 64.3021 328.983 64.3089 329.252 64.2656L330.752 64.0156C331.558 63.887 332.364 63.9529 333.142 64.1875L333.892 64.4219L334.642 64.6406C334.887 64.7142 335.115 64.729 335.33 64.7031L336.08 64.6094L336.83 64.5312C337.315 64.473 337.798 64.3961 338.283 64.3281L339.033 64.2344L339.783 64.125C340.561 64.016 341.339 64.0727 342.095 64.2812L343.595 64.6875C343.943 64.7835 344.281 64.8359 344.611 64.8438L346.111 64.875C346.453 64.8831 346.806 64.8553 347.158 64.7812L348.658 64.4688C349.132 64.369 349.605 64.2569 350.08 64.1406L350.83 63.9531L351.58 63.7812C352.581 63.5358 353.57 63.6834 354.455 64.125L355.205 64.4844L355.736 64.75L356.314 64.4375L357.064 64C357.858 63.5451 358.764 63.302 359.72 63.375L360.47 63.4375L361.22 63.4844C361.668 63.5184 362.117 63.5472 362.564 63.5469H363.314L364.064 63.5312C364.788 63.531 365.498 63.6611 366.189 63.8906L367.689 64.3906C367.841 64.4413 367.97 64.4368 368.095 64.4062L368.845 64.2344L369.595 64.0469C370.5 63.8275 371.408 63.895 372.267 64.2188L373.017 64.5L373.58 64.7031L374.252 64.2969L375.002 63.8281L375.814 63.4375C376.111 63.3399 376.429 63.2731 376.767 63.2656C377.107 63.2584 377.433 63.3044 377.736 63.3906L378.58 63.7656L379.33 64.2031L379.814 64.4844L380.314 64.2031L381.064 63.7656C381.803 63.3379 382.637 63.0613 383.533 63.0625H384.955C385.213 63.0628 385.447 63.0263 385.658 62.9531L386.314 62.7344L386.97 62.5C387.619 62.2739 388.302 62.1664 389.002 62.1406L389.799 62.1094L390.611 62.0781C390.846 62.0691 391.067 62.0026 391.283 61.8906L391.986 61.5312L392.705 61.1562C392.847 61.0822 392.941 60.989 393.017 60.8594L393.424 60.1719L393.83 59.4688C393.852 59.4306 393.867 59.3801 393.845 59.2344L393.72 58.375L393.595 57.5312C393.483 56.7848 393.473 56.0294 393.627 55.2969L393.767 54.625L393.908 53.9375C394.013 53.4382 394.148 52.9218 394.299 52.3906L394.517 51.6562L394.72 50.9062C394.823 50.5412 394.896 50.1739 394.924 49.8125L394.97 49.0625L395.033 48.3125C395.067 47.8603 395.077 47.4049 395.08 46.9531L395.095 46.2031V45.4531C395.097 45.1812 395.054 44.8974 394.955 44.5938L394.705 43.8438L394.47 43.0938C394.126 42.0371 394.255 40.9701 394.752 40.0312L395.142 39.2812L395.549 38.5312V38.5L395.345 37.7812L395.127 37.0312C394.925 36.3376 394.837 35.6252 394.861 34.9062L394.892 34.1562L394.908 33.4062C394.928 32.8239 394.987 32.2356 395.08 31.6562L395.33 30.1562C395.358 29.98 395.351 29.7892 395.283 29.5781L395.033 28.8281L394.799 28.0781C394.528 27.2392 394.484 26.3631 394.689 25.5L394.861 24.75L395.049 24C395.058 23.9566 395.055 23.9007 395.002 23.7812L394.345 22.2812C393.923 21.331 393.853 20.2957 394.205 19.2969L394.736 17.7969C394.841 17.4965 394.891 17.2153 394.892 16.9531V16.2031L394.908 15.4531C394.911 14.884 394.939 14.2902 395.002 13.6875L395.08 12.875L395.111 12.5781L394.674 12.3438L393.861 11.9062C392.732 11.3041 392.03 10.2631 391.924 8.96875L391.845 8.0625L391.783 7.39062L390.658 6.82812C390.462 6.73198 390.255 6.69977 390.033 6.70312H389.236L388.424 6.71875C387.595 6.73032 386.784 6.56769 386.033 6.1875L385.377 5.84375L384.705 5.51562C384.422 5.3725 384.118 5.26082 383.783 5.1875L383.033 5.01562L382.283 4.85938C381.992 4.79638 381.708 4.78395 381.424 4.8125L380.674 4.89062L379.924 4.95312C379.321 5.01394 378.715 5.03475 378.111 5L376.611 4.90625C376.018 4.87174 375.418 4.80586 374.83 4.6875L373.33 4.375C373.193 4.3474 373.053 4.3611 372.877 4.42188L372.127 4.67188L371.377 4.9375C370.675 5.18025 369.945 5.30182 369.205 5.29688H368.455L367.705 5.28125C367.379 5.27926 367.046 5.32155 366.705 5.40625L365.205 5.78125C364.282 6.011 363.355 5.93858 362.486 5.59375L361.736 5.28125L361.033 5L360.314 5.34375L359.564 5.6875C358.806 6.03907 357.99 6.22151 357.142 6.1875L355.642 6.125C354.79 6.09027 353.984 5.84434 353.252 5.4375L352.502 5.01562L352.017 4.75L351.533 5.0625L350.783 5.53125C349.869 6.10165 348.78 6.33089 347.658 6L346.908 5.78125L346.158 5.54688C345.731 5.42022 345.297 5.32228 344.877 5.25L343.377 5C343.234 4.97607 343.082 4.97901 342.892 5.04688L342.142 5.3125L341.392 5.59375C340.423 5.93998 339.416 5.90017 338.47 5.51562L337.72 5.21875L336.97 4.90625C336.622 4.76402 336.286 4.68195 335.97 4.64062L335.22 4.53125L334.47 4.4375C334.322 4.41838 334.148 4.4346 333.939 4.51562L333.189 4.8125L332.439 5.09375C331.808 5.33797 331.158 5.51372 330.502 5.60938L329.002 5.82812C328.482 5.90375 327.959 5.9731 327.439 6.03125L326.689 6.10938L325.939 6.20312C325.042 6.30269 324.175 6.13646 323.377 5.76562L322.627 5.40625L321.877 5.0625C321.614 4.94037 321.401 4.90684 321.22 4.90625H320.47L319.72 4.89062C319.073 4.88982 318.421 4.82859 317.783 4.6875L317.033 4.51562L316.283 4.35938C316.24 4.35007 316.18 4.33038 316.049 4.39062L314.549 5.07812C313.448 5.58013 312.281 5.50363 311.252 4.9375L310.502 4.53125L310.049 4.28125L309.564 4.60938L308.814 5.09375C307.962 5.64555 306.935 5.92483 305.845 5.71875L304.345 5.4375C304.033 5.37876 303.728 5.36086 303.424 5.39062L301.924 5.54688C301.301 5.60871 300.672 5.60041 300.049 5.54688L298.549 5.42188C298.001 5.37479 297.454 5.3058 296.908 5.21875L296.158 5.10938L295.408 4.98438C294.829 4.89212 294.247 4.77087 293.674 4.60938L292.924 4.39062L292.174 4.1875C291.968 4.12991 291.782 4.12014 291.595 4.15625L290.095 4.4375C289.757 4.50309 289.403 4.61627 289.033 4.78125L288.283 5.125L287.533 5.45312C286.573 5.88113 285.535 5.93115 284.533 5.5625L283.033 5C282.58 4.83271 282.123 4.69188 281.674 4.5625L280.174 4.125C279.974 4.06761 279.791 4.07342 279.611 4.10938L278.861 4.25L278.111 4.40625C277.36 4.55577 276.598 4.54872 275.845 4.40625L274.345 4.125C274.146 4.08766 273.95 4.10077 273.736 4.15625L272.986 4.34375L272.236 4.54688C271.782 4.66658 271.318 4.80053 270.861 4.95312L270.111 5.20312L269.361 5.46875C268.59 5.72652 267.782 5.80607 266.97 5.70312L265.47 5.51562C264.936 5.44756 264.395 5.36168 263.861 5.26562L263.111 5.125L262.361 5C261.802 4.89917 261.245 4.76242 260.689 4.60938L259.189 4.20312C258.868 4.11452 258.553 4.07243 258.252 4.07812L256.752 4.10938C256.231 4.11915 255.71 4.11733 255.189 4.10938L254.439 4.09375H253.689C253.67 4.09347 253.558 4.08243 253.33 4.23438L252.58 4.75L251.83 5.25C250.827 5.9185 249.602 6.1104 248.408 5.57812L246.908 4.89062C246.556 4.73283 246.22 4.64323 245.908 4.59375L245.158 4.46875L244.408 4.35938C243.986 4.29245 243.562 4.25019 243.142 4.23438L241.642 4.17188C241.379 4.16226 241.107 4.20707 240.814 4.29688L240.064 4.51562L239.314 4.75C238.757 4.9214 238.188 5.06949 237.627 5.1875L236.127 5.5C235.101 5.71458 234.117 5.51195 233.252 5.03125L232.502 4.625L231.752 4.20312C231.73 4.19128 231.715 4.17605 231.705 4.17188L231.017 4.39062L230.267 4.59375C229.636 4.77201 228.992 4.8809 228.345 4.92188L226.845 5.01562C226.062 5.06514 225.287 4.96332 224.549 4.70312L223.049 4.17188C222.898 4.11956 222.789 4.11414 222.674 4.14062L221.174 4.48438C220.775 4.57667 220.367 4.71198 219.955 4.875L218.455 5.46875C217.413 5.87995 216.328 5.80867 215.345 5.32812L214.595 4.95312L213.861 4.59375L213.189 4.875L212.439 5.15625C211.817 5.39402 211.178 5.57049 210.533 5.67188L209.783 5.78125L209.033 5.90625C207.926 6.08004 206.912 5.74813 206.08 5.17188L205.33 4.65625L204.752 4.25L204.283 4.46875L203.533 4.79688C202.924 5.06897 202.306 5.292 201.674 5.4375L200.174 5.78125C199.063 6.03606 198.016 5.75117 197.142 5.1875L195.642 4.21875C195.6 4.19154 195.566 4.17923 195.549 4.17188L194.861 4.3125L194.111 4.46875C193.822 4.52555 193.503 4.63196 193.158 4.8125L192.408 5.20312L191.658 5.60938C190.554 6.18999 189.333 6.16057 188.252 5.5625L187.502 5.14062L186.83 4.76562L186.22 5.03125L185.47 5.32812C184.636 5.6643 183.745 5.7665 182.845 5.59375L181.345 5.3125C181.142 5.27336 180.937 5.27189 180.72 5.32812L179.97 5.53125L179.22 5.71875C178.287 5.96097 177.348 5.88682 176.47 5.53125L175.72 5.21875L174.97 4.92188C174.567 4.75823 174.17 4.63359 173.783 4.54688L173.033 4.375L172.408 4.23438V4.25L170.908 5.34375C170.426 5.69639 169.817 5.98254 169.111 6.03125C168.392 6.07915 167.73 5.87043 167.189 5.54688L166.439 5.10938L165.892 4.78125L165.408 5.04688L164.658 5.45312C163.804 5.90711 162.843 6.09799 161.845 5.90625L161.095 5.76562L160.345 5.60938C159.654 5.47553 158.975 5.24125 158.33 4.92188L157.58 4.5625L157.111 4.32812L156.595 4.6875L155.845 5.20312C155.348 5.54161 154.735 5.79086 154.033 5.8125C153.328 5.83364 152.696 5.61962 152.174 5.29688L150.674 4.35938C150.569 4.29486 150.489 4.27452 150.455 4.26562C150.431 4.25979 150.417 4.26493 150.408 4.26562L149.658 4.32812L148.908 4.40625C148.378 4.45542 147.845 4.49082 147.314 4.51562L145.814 4.57812C145.283 4.60295 144.752 4.61095 144.22 4.60938H142.72C142.243 4.60787 141.76 4.61192 141.283 4.625L140.533 4.65625L139.783 4.67188C139.625 4.67624 139.407 4.72048 139.142 4.85938L137.642 5.64062C136.563 6.20456 135.378 6.20453 134.299 5.64062L132.799 4.85938C132.505 4.7054 132.254 4.64293 132.049 4.625L131.299 4.5625L130.549 4.48438C130.493 4.47955 130.376 4.48292 130.174 4.59375L129.424 5.01562L128.674 5.42188C128.149 5.70765 127.539 5.87416 126.877 5.84375C126.218 5.81302 125.632 5.5942 125.142 5.28125L124.392 4.79688L123.642 4.32812C123.629 4.31942 123.621 4.30232 123.611 4.29688L122.955 4.46875L122.205 4.65625C121.743 4.77096 121.278 4.90326 120.814 5.04688L119.314 5.51562C118.198 5.86142 117.099 5.64165 116.174 5.07812L114.674 4.17188C114.437 4.02829 114.291 3.99974 114.22 4L113.47 4.01562Z" fill="black"/>
<path d="M44.6853 30.2891C44.2791 30.2891 43.1658 30.1797 41.3455 29.9609C41.2361 31.3984 41.1814 33.3086 41.1814 35.6914L41.1697 40.9531C42.2087 40.9297 43.2673 40.918 44.3455 40.918C44.8142 40.918 45.2009 41.0742 45.5056 41.3867C45.8181 41.6992 45.9744 42.0742 45.9744 42.5117C45.9744 42.9492 45.8181 43.3242 45.5056 43.6367C45.2009 43.9414 44.8142 44.0938 44.3455 44.0938C43.908 44.0938 43.2517 44.1055 42.3767 44.1289C41.5017 44.1445 40.8455 44.1523 40.408 44.1523C39.8923 44.1523 39.1189 44.2188 38.0876 44.3516C37.0564 44.4922 36.283 44.5625 35.7673 44.5625C35.2986 44.5625 34.908 44.4102 34.5955 44.1055C34.2908 43.793 34.1384 43.418 34.1384 42.9805C34.1384 42.543 34.2908 42.168 34.5955 41.8555C34.908 41.543 35.2986 41.3867 35.7673 41.3867C36.2986 41.3867 36.9978 41.3281 37.865 41.2109C37.8494 40.2891 37.8416 38.5234 37.8416 35.9141C37.8416 33.7891 37.9197 31.7617 38.0759 29.832L35.533 29.9023C35.0642 29.9023 34.6697 29.75 34.3494 29.4453C34.0369 29.1406 33.8806 28.7617 33.8806 28.3086C33.8806 27.8477 34.0369 27.4727 34.3494 27.1836C34.6384 26.918 34.9939 26.7656 35.4158 26.7266C36.1033 26.6641 37.2986 26.6328 39.0017 26.6328C40.533 26.6328 42.5056 26.7969 44.9197 27.125C45.8806 27.2578 46.3611 27.7969 46.3611 28.7422C46.3611 29.2422 46.1658 29.6367 45.7751 29.9258C45.4548 30.168 45.0916 30.2891 44.6853 30.2891ZM57.9041 44.9141C57.5447 44.9141 56.9744 44.5234 56.1931 43.7422C55.4744 44.0859 54.8416 44.3438 54.2947 44.5156C53.7478 44.6953 53.283 44.7852 52.9001 44.7852C51.0173 44.7852 49.6033 44.2812 48.658 43.2734C47.7205 42.2656 47.2517 40.7578 47.2517 38.75C47.2517 36.8672 47.947 35.2578 49.3376 33.9219C50.7283 32.5781 52.3923 31.9062 54.3298 31.9062C55.072 31.9062 55.9314 32.1172 56.908 32.5391C58.0876 33.0469 58.6775 33.6367 58.6775 34.3086C58.6775 34.5898 58.5876 34.8359 58.408 35.0469C58.3298 35.3594 58.2673 35.7539 58.2205 36.2305C58.1814 36.6992 58.1619 37.25 58.1619 37.8828C58.1619 39.375 58.2673 40.4492 58.4783 41.1055C58.5017 41.1758 58.6814 41.582 59.0173 42.3242C59.322 42.9961 59.4744 43.3789 59.4744 43.4727C59.4744 43.8867 59.3142 44.2305 58.9939 44.5039C58.6814 44.7773 58.3181 44.9141 57.9041 44.9141ZM54.9978 36.875C54.9978 36.625 55.0134 36.3398 55.0447 36.0195C55.0837 35.6914 55.1384 35.3281 55.2087 34.9297C55.0525 34.8516 54.9119 34.7969 54.7869 34.7656C54.6697 34.7266 54.5681 34.707 54.4822 34.707C53.4197 34.707 52.49 35.125 51.6931 35.9609C50.8962 36.7891 50.4978 37.75 50.4978 38.8438C50.4978 39.8906 50.6853 40.6797 51.0603 41.2109C51.4353 41.7344 51.9978 41.9961 52.7478 41.9961C53.2322 41.9961 53.6892 41.918 54.1189 41.7617C54.5564 41.5977 54.9666 41.3594 55.3494 41.0469C55.115 39.1875 54.9978 37.7969 54.9978 36.875ZM70.1736 39.0898C69.0955 39.168 67.1775 39.207 64.4197 39.207C63.9353 39.207 63.5095 39.0977 63.1423 38.8789C62.7126 38.6133 62.4978 38.2539 62.4978 37.8008C62.4978 37.3477 62.7126 36.9883 63.1423 36.7227C63.5095 36.4961 63.9353 36.3828 64.4197 36.3828C65.0369 36.3828 65.9626 36.3672 67.197 36.3359C68.4314 36.2969 69.3572 36.2773 69.9744 36.2773C70.4587 36.2773 70.8845 36.375 71.2517 36.5703C71.7205 36.8203 71.9548 37.1914 71.9548 37.6836C71.9548 38.5352 71.3611 39.0039 70.1736 39.0898ZM84.0486 34.707C83.8845 34.707 83.6892 34.7031 83.4626 34.6953C83.2439 34.6797 83.0525 34.6719 82.8884 34.6719C82.5681 34.6719 82.197 34.7031 81.7751 34.7656C81.9158 37.9219 81.9861 39.9844 81.9861 40.9531C81.9861 41.0547 81.99 41.2461 81.9978 41.5273C82.0056 41.8008 82.0095 42.0234 82.0095 42.1953C82.0095 43.9922 81.4431 44.8906 80.3103 44.8906C79.8806 44.8906 79.5095 44.7578 79.197 44.4922C78.8533 44.2109 78.6814 43.8594 78.6814 43.4375C78.6814 43.1562 78.6931 42.7344 78.7166 42.1719C78.74 41.6094 78.7517 41.1875 78.7517 40.9062C78.7517 39.9609 78.6814 37.9375 78.5408 34.8359C78.0564 34.8125 77.322 34.75 76.3376 34.6484C75.3611 34.5391 74.8728 34.0312 74.8728 33.125C74.8728 32.6875 75.0212 32.3164 75.3181 32.0117C75.615 31.707 75.9978 31.5547 76.4666 31.5547C76.7556 31.5547 77.4197 31.6016 78.4587 31.6953C78.4509 31.4453 78.4314 31.0312 78.4001 30.4531C78.3689 29.9531 78.3533 29.5664 78.3533 29.293C78.3533 28.8555 78.5134 28.4922 78.8337 28.2031C79.1541 27.9141 79.5408 27.7695 79.9939 27.7695C81.1501 27.7695 81.7283 28.7422 81.7283 30.6875L81.7048 31.6484C82.1892 31.5781 82.5837 31.543 82.8884 31.543C83.7869 31.543 84.4001 31.6016 84.7283 31.7188C85.3533 31.9375 85.6658 32.4141 85.6658 33.1484C85.6658 33.5938 85.5134 33.9648 85.2087 34.2617C84.9041 34.5586 84.5173 34.707 84.0486 34.707ZM79.6189 51.1367C79.3455 51.1367 79.1189 51.0469 78.9392 50.8672C78.7595 50.6875 78.6697 50.4648 78.6697 50.1992C78.6697 49.9727 78.7595 49.7227 78.9392 49.4492C79.0955 49.2305 79.2556 49.0117 79.4197 48.793C79.5291 48.6367 79.6111 48.4766 79.6658 48.3125C79.0017 47.9062 78.6697 47.3945 78.6697 46.7773C78.6697 46.3398 78.822 45.9805 79.1267 45.6992C79.4392 45.418 79.8259 45.2773 80.2869 45.2773C81.3962 45.2773 81.9509 45.9258 81.9509 47.2227C81.9509 47.9727 81.7517 48.7695 81.3533 49.6133C80.8689 50.6289 80.2908 51.1367 79.6189 51.1367ZM89.7673 30.0547C89.2673 30.0547 88.8337 29.8867 88.4666 29.5508C88.0994 29.2148 87.9158 28.8047 87.9158 28.3203C87.9158 27.8359 88.0994 27.4258 88.4666 27.0898C88.8337 26.7539 89.2673 26.5859 89.7673 26.5859C90.2673 26.5859 90.697 26.7539 91.0564 27.0898C91.4236 27.4258 91.6072 27.8359 91.6072 28.3203C91.6072 28.8047 91.4236 29.2148 91.0564 29.5508C90.697 29.8867 90.2673 30.0547 89.7673 30.0547ZM90.7634 38.6445C90.7634 39.0898 90.7751 39.8047 90.7986 40.7891C90.8298 41.7734 90.8455 42.4883 90.8455 42.9336C90.8455 43.3867 90.6931 43.7617 90.3884 44.0586C90.0837 44.3477 89.697 44.4922 89.2283 44.4922C88.7595 44.4922 88.3728 44.3477 88.0681 44.0586C87.7634 43.7617 87.6111 43.3867 87.6111 42.9336C87.6111 42.4883 87.5955 41.7734 87.5642 40.7891C87.5408 39.8047 87.5291 39.0898 87.5291 38.6445C87.5291 37.9492 87.5681 37.0781 87.6462 36.0312C87.7244 34.9844 87.7634 34.1133 87.7634 33.418C87.7634 32.9648 87.9158 32.5938 88.2205 32.3047C88.5251 32.0078 88.9119 31.8594 89.3806 31.8594C89.8494 31.8594 90.2361 32.0078 90.5408 32.3047C90.8455 32.5938 90.9978 32.9648 90.9978 33.418C90.9978 34.1133 90.9587 34.9844 90.8806 36.0312C90.8025 37.0781 90.7634 37.9492 90.7634 38.6445ZM109.642 44.832C108.97 44.832 108.263 44.7539 107.521 44.5977L107.51 49.3789C107.51 49.832 107.357 50.207 107.052 50.5039C106.748 50.8008 106.361 50.9492 105.892 50.9492C105.424 50.9492 105.037 50.8008 104.732 50.5039C104.427 50.207 104.275 49.832 104.275 49.3789C104.275 49.0117 104.283 47.5547 104.299 45.0078C104.314 43.1172 104.314 41.5742 104.299 40.3789C104.275 38.6914 104.22 37.2383 104.135 36.0195C104.017 34.3398 103.959 33.5703 103.959 33.7109C103.959 33.0625 104.103 32.5078 104.392 32.0469C104.728 31.5234 105.181 31.2617 105.752 31.2617C106.189 31.2617 106.556 31.4102 106.853 31.707C107.15 32.0039 107.299 32.3594 107.299 32.7734L107.287 32.8906C107.81 32.5938 108.334 32.375 108.857 32.2344C109.388 32.0859 109.92 32.0117 110.451 32.0117C112.248 32.0117 113.56 32.7734 114.388 34.2969C115.006 35.4453 115.314 36.9336 115.314 38.7617C115.314 40.4727 114.826 41.8906 113.849 43.0156C112.802 44.2266 111.4 44.832 109.642 44.832ZM110.451 35.1406C109.959 35.1406 109.459 35.2578 108.951 35.4922C108.443 35.7188 107.931 36.0625 107.416 36.5234C107.51 38.1328 107.556 39.7461 107.556 41.3633C108.252 41.5898 108.947 41.7031 109.642 41.7031C110.447 41.7031 111.064 41.418 111.494 40.8477C111.885 40.332 112.08 39.6367 112.08 38.7617C112.08 37.707 112.033 36.9766 111.939 36.5703C111.713 35.6172 111.217 35.1406 110.451 35.1406ZM120.681 42.418C120.681 43.9023 120.142 44.6445 119.064 44.6445C118.595 44.6445 118.209 44.4961 117.904 44.1992C117.599 43.9023 117.447 43.5195 117.447 43.0508V26.8438C117.447 26.3906 117.611 26.0195 117.939 25.7305C118.252 25.4648 118.638 25.332 119.099 25.332C119.56 25.332 119.939 25.4727 120.236 25.7539C120.533 26.0273 120.681 26.3906 120.681 26.8438V42.418ZM133.771 44.9141C133.412 44.9141 132.842 44.5234 132.06 43.7422C131.342 44.0859 130.709 44.3438 130.162 44.5156C129.615 44.6953 129.15 44.7852 128.767 44.7852C126.885 44.7852 125.47 44.2812 124.525 43.2734C123.588 42.2656 123.119 40.7578 123.119 38.75C123.119 36.8672 123.814 35.2578 125.205 33.9219C126.595 32.5781 128.26 31.9062 130.197 31.9062C130.939 31.9062 131.799 32.1172 132.775 32.5391C133.955 33.0469 134.545 33.6367 134.545 34.3086C134.545 34.5898 134.455 34.8359 134.275 35.0469C134.197 35.3594 134.135 35.7539 134.088 36.2305C134.049 36.6992 134.029 37.25 134.029 37.8828C134.029 39.375 134.135 40.4492 134.345 41.1055C134.369 41.1758 134.549 41.582 134.885 42.3242C135.189 42.9961 135.342 43.3789 135.342 43.4727C135.342 43.8867 135.181 44.2305 134.861 44.5039C134.549 44.7773 134.185 44.9141 133.771 44.9141ZM130.865 36.875C130.865 36.625 130.881 36.3398 130.912 36.0195C130.951 35.6914 131.006 35.3281 131.076 34.9297C130.92 34.8516 130.779 34.7969 130.654 34.7656C130.537 34.7266 130.435 34.707 130.349 34.707C129.287 34.707 128.357 35.125 127.56 35.9609C126.763 36.7891 126.365 37.75 126.365 38.8438C126.365 39.8906 126.552 40.6797 126.927 41.2109C127.302 41.7344 127.865 41.9961 128.615 41.9961C129.099 41.9961 129.556 41.918 129.986 41.7617C130.424 41.5977 130.834 41.3594 131.217 41.0469C130.982 39.1875 130.865 37.7969 130.865 36.875ZM146.228 44.9727C145.267 44.9727 144.732 44.5 144.623 43.5547C144.513 42.75 144.404 41.9414 144.295 41.1289C144.177 40.2695 144.119 39.4609 144.119 38.7031C144.119 38.5 144.131 38.1523 144.154 37.6602C144.185 37.168 144.201 36.8203 144.201 36.6172C144.201 36.5625 144.209 36.4258 144.224 36.207C144.24 35.9805 144.248 35.7969 144.248 35.6562C144.248 35.0078 144.08 34.6836 143.744 34.6836C143.025 34.6836 142.318 35.1055 141.623 35.9492C140.935 36.7852 140.396 37.8477 140.006 39.1367C139.99 39.3945 139.955 39.7383 139.9 40.168C139.853 40.5195 139.83 40.8633 139.83 41.1992C139.83 41.418 139.853 41.75 139.9 42.1953C139.955 42.6328 139.982 42.9609 139.982 43.1797C139.982 43.625 139.826 43.9922 139.513 44.2812C139.209 44.5781 138.822 44.7266 138.353 44.7266C137.885 44.7266 137.498 44.5781 137.193 44.2812C136.888 43.9922 136.736 43.625 136.736 43.1797C136.736 42.9609 136.713 42.6328 136.666 42.1953C136.619 41.75 136.595 41.418 136.595 41.1992C136.595 40.4492 136.65 39.4062 136.76 38.0703C136.869 36.7344 136.924 35.6914 136.924 34.9414C136.924 34.707 136.908 34.3594 136.877 33.8984C136.853 33.4297 136.842 33.082 136.842 32.8555C136.842 32.418 136.998 32.0586 137.31 31.7773C137.631 31.4883 138.021 31.3438 138.482 31.3438C139.506 31.3438 140.052 31.957 140.123 33.1836L140.135 33.3125C141.275 32.1641 142.478 31.5898 143.744 31.5898C145.22 31.5898 146.24 32.207 146.802 33.4414C147.177 34.2695 147.365 35.5078 147.365 37.1562V37.9883C147.357 38.3477 147.353 38.6016 147.353 38.75C147.353 39.3594 147.435 40.1445 147.599 41.1055C147.771 42.0664 147.857 42.8477 147.857 43.4492C147.857 43.8867 147.701 44.25 147.388 44.5391C147.076 44.8281 146.689 44.9727 146.228 44.9727ZM159.822 37.3672C159.822 37.8906 159.826 38.6797 159.834 39.7344C159.842 40.7891 159.845 41.5781 159.845 42.1016C159.845 42.2656 159.857 42.5117 159.881 42.8398C159.912 43.1602 159.927 43.4023 159.927 43.5664C159.927 44.0039 159.767 44.3633 159.447 44.6445C159.135 44.9336 158.748 45.0781 158.287 45.0781C157.638 45.0781 157.166 44.7852 156.869 44.1992C155.869 44.5664 154.834 44.75 153.763 44.75C152.654 44.75 151.72 44.5156 150.963 44.0469C150.111 43.5078 149.603 42.7227 149.439 41.6914C149.135 39.7383 148.982 37.9922 148.982 36.4531C148.982 35.4375 149.099 34.2773 149.334 32.9727C149.49 32.0898 150.017 31.6484 150.916 31.6484C151.369 31.6484 151.756 31.793 152.076 32.082C152.396 32.3633 152.556 32.7227 152.556 33.1602C152.556 33.5039 152.498 34.043 152.381 34.7773C152.271 35.5117 152.217 36.0703 152.217 36.4531C152.217 37.5547 152.252 38.5195 152.322 39.3477C152.4 40.168 152.513 40.8477 152.662 41.3867C152.857 41.4727 153.045 41.5391 153.224 41.5859C153.412 41.6328 153.592 41.6562 153.763 41.6562C154.631 41.6562 155.584 41.5312 156.623 41.2812C156.623 40.6797 156.619 39.9961 156.611 39.2305C156.595 38.3164 156.588 37.6602 156.588 37.2617C156.588 35.6602 156.662 34.2773 156.81 33.1133C156.927 32.1836 157.459 31.7188 158.404 31.7188C158.865 31.7188 159.26 31.8633 159.588 32.1523C159.916 32.4414 160.068 32.8047 160.045 33.2422C159.896 36.2188 159.822 37.5938 159.822 37.3672ZM165.658 42.418C165.658 43.9023 165.119 44.6445 164.041 44.6445C163.572 44.6445 163.185 44.4961 162.881 44.1992C162.576 43.9023 162.424 43.5195 162.424 43.0508V26.8438C162.424 26.3906 162.588 26.0195 162.916 25.7305C163.228 25.4648 163.615 25.332 164.076 25.332C164.537 25.332 164.916 25.4727 165.213 25.7539C165.51 26.0273 165.658 26.3906 165.658 26.8438V42.418ZM187.619 32.3633C187.72 29.6992 187.842 27.8594 187.982 26.8438C188.115 25.9219 188.623 25.4609 189.506 25.4609C189.967 25.4609 190.338 25.6094 190.619 25.9062C190.9 26.2031 191.041 26.5664 191.041 26.9961C191.041 28.1289 190.951 29.8164 190.771 32.0586C190.599 34.3008 190.513 35.9883 190.513 37.1211C190.513 39.8867 190.603 41.7383 190.783 42.6758C190.806 42.8008 190.818 42.9141 190.818 43.0156C190.818 43.4453 190.662 43.8008 190.349 44.082C190.037 44.3555 189.674 44.4922 189.26 44.4922C188.681 44.4922 188.252 44.2344 187.97 43.7188C187.439 44.0391 186.888 44.2773 186.318 44.4336C185.748 44.5977 185.158 44.6797 184.549 44.6797C182.799 44.6797 181.345 44.1211 180.189 43.0039C179.01 41.8633 178.42 40.4102 178.42 38.6445C178.42 36.543 179.013 34.8477 180.201 33.5586C181.388 32.2617 182.939 31.6133 184.853 31.6133C185.439 31.6133 185.963 31.6758 186.424 31.8008C186.885 31.9258 187.283 32.1133 187.619 32.3633ZM187.385 36.0547C187.127 35.5625 186.791 35.1953 186.377 34.9531C185.963 34.7109 185.47 34.5898 184.9 34.5898C183.744 34.5898 182.877 34.9258 182.299 35.5977C181.72 36.2617 181.431 37.2617 181.431 38.5977C181.431 39.4414 181.744 40.1641 182.369 40.7656C182.994 41.3672 183.72 41.668 184.549 41.668C185.15 41.668 185.607 41.5977 185.92 41.457C186.131 41.3633 186.49 41.1133 186.998 40.707C187.131 40.5977 187.26 40.4766 187.385 40.3438C187.369 39.9688 187.369 38.5391 187.385 36.0547ZM199.056 44.6797C197.189 44.6797 195.662 44.2344 194.474 43.3438C193.162 42.3594 192.506 40.9727 192.506 39.1836C192.506 37.207 193.025 35.5352 194.064 34.168C195.22 32.6523 196.779 31.8945 198.74 31.8945C200.099 31.8945 201.228 32.1133 202.127 32.5508C203.306 33.1289 203.896 34.0273 203.896 35.2461C203.896 36.1055 203.416 36.8672 202.455 37.5312C202.017 37.8359 201.138 38.2812 199.818 38.8672L195.869 40.6133C196.244 41.0195 196.697 41.3242 197.228 41.5273C197.76 41.7305 198.369 41.832 199.056 41.832C200.103 41.832 200.99 41.6172 201.717 41.1875C202.365 40.8047 202.885 40.6133 203.275 40.6133C204.088 40.6133 204.494 41.0078 204.494 41.7969C204.494 42.6875 203.842 43.4141 202.537 43.9766C201.443 44.4453 200.283 44.6797 199.056 44.6797ZM198.74 34.7305C198.013 34.7305 197.392 34.9727 196.877 35.457C196.361 35.9414 195.947 36.668 195.635 37.6367C196.517 37.2539 197.396 36.875 198.271 36.5C199.326 36.0234 200.166 35.582 200.791 35.1758C200.267 34.8789 199.584 34.7305 198.74 34.7305ZM227.099 44.9141C226.74 44.9141 226.17 44.5234 225.388 43.7422C224.67 44.0859 224.037 44.3438 223.49 44.5156C222.943 44.6953 222.478 44.7852 222.095 44.7852C220.213 44.7852 218.799 44.2812 217.853 43.2734C216.916 42.2656 216.447 40.7578 216.447 38.75C216.447 36.8672 217.142 35.2578 218.533 33.9219C219.924 32.5781 221.588 31.9062 223.525 31.9062C224.267 31.9062 225.127 32.1172 226.103 32.5391C227.283 33.0469 227.873 33.6367 227.873 34.3086C227.873 34.5898 227.783 34.8359 227.603 35.0469C227.525 35.3594 227.463 35.7539 227.416 36.2305C227.377 36.6992 227.357 37.25 227.357 37.8828C227.357 39.375 227.463 40.4492 227.674 41.1055C227.697 41.1758 227.877 41.582 228.213 42.3242C228.517 42.9961 228.67 43.3789 228.67 43.4727C228.67 43.8867 228.51 44.2305 228.189 44.5039C227.877 44.7773 227.513 44.9141 227.099 44.9141ZM224.193 36.875C224.193 36.625 224.209 36.3398 224.24 36.0195C224.279 35.6914 224.334 35.3281 224.404 34.9297C224.248 34.8516 224.107 34.7969 223.982 34.7656C223.865 34.7266 223.763 34.707 223.677 34.707C222.615 34.707 221.685 35.125 220.888 35.9609C220.092 36.7891 219.693 37.75 219.693 38.8438C219.693 39.8906 219.881 40.6797 220.256 41.2109C220.631 41.7344 221.193 41.9961 221.943 41.9961C222.427 41.9961 222.885 41.918 223.314 41.7617C223.752 41.5977 224.162 41.3594 224.545 41.0469C224.31 39.1875 224.193 37.7969 224.193 36.875ZM239.556 44.9727C238.595 44.9727 238.06 44.5 237.951 43.5547C237.842 42.75 237.732 41.9414 237.623 41.1289C237.506 40.2695 237.447 39.4609 237.447 38.7031C237.447 38.5 237.459 38.1523 237.482 37.6602C237.513 37.168 237.529 36.8203 237.529 36.6172C237.529 36.5625 237.537 36.4258 237.552 36.207C237.568 35.9805 237.576 35.7969 237.576 35.6562C237.576 35.0078 237.408 34.6836 237.072 34.6836C236.353 34.6836 235.646 35.1055 234.951 35.9492C234.263 36.7852 233.724 37.8477 233.334 39.1367C233.318 39.3945 233.283 39.7383 233.228 40.168C233.181 40.5195 233.158 40.8633 233.158 41.1992C233.158 41.418 233.181 41.75 233.228 42.1953C233.283 42.6328 233.31 42.9609 233.31 43.1797C233.31 43.625 233.154 43.9922 232.842 44.2812C232.537 44.5781 232.15 44.7266 231.681 44.7266C231.213 44.7266 230.826 44.5781 230.521 44.2812C230.217 43.9922 230.064 43.625 230.064 43.1797C230.064 42.9609 230.041 42.6328 229.994 42.1953C229.947 41.75 229.924 41.418 229.924 41.1992C229.924 40.4492 229.978 39.4062 230.088 38.0703C230.197 36.7344 230.252 35.6914 230.252 34.9414C230.252 34.707 230.236 34.3594 230.205 33.8984C230.181 33.4297 230.17 33.082 230.17 32.8555C230.17 32.418 230.326 32.0586 230.638 31.7773C230.959 31.4883 231.349 31.3438 231.81 31.3438C232.834 31.3438 233.381 31.957 233.451 33.1836L233.463 33.3125C234.603 32.1641 235.806 31.5898 237.072 31.5898C238.549 31.5898 239.568 32.207 240.131 33.4414C240.506 34.2695 240.693 35.5078 240.693 37.1562V37.9883C240.685 38.3477 240.681 38.6016 240.681 38.75C240.681 39.3594 240.763 40.1445 240.927 41.1055C241.099 42.0664 241.185 42.8477 241.185 43.4492C241.185 43.8867 241.029 44.25 240.717 44.5391C240.404 44.8281 240.017 44.9727 239.556 44.9727ZM251.158 34.707C250.994 34.707 250.799 34.7031 250.572 34.6953C250.353 34.6797 250.162 34.6719 249.998 34.6719C249.677 34.6719 249.306 34.7031 248.885 34.7656C249.025 37.9219 249.095 39.9844 249.095 40.9531C249.095 41.0547 249.099 41.2461 249.107 41.5273C249.115 41.8008 249.119 42.0234 249.119 42.1953C249.119 43.9922 248.552 44.8906 247.42 44.8906C246.99 44.8906 246.619 44.7578 246.306 44.4922C245.963 44.2109 245.791 43.8594 245.791 43.4375C245.791 43.1562 245.802 42.7344 245.826 42.1719C245.849 41.6094 245.861 41.1875 245.861 40.9062C245.861 39.9609 245.791 37.9375 245.65 34.8359C245.166 34.8125 244.431 34.75 243.447 34.6484C242.47 34.5391 241.982 34.0312 241.982 33.125C241.982 32.6875 242.131 32.3164 242.427 32.0117C242.724 31.707 243.107 31.5547 243.576 31.5547C243.865 31.5547 244.529 31.6016 245.568 31.6953C245.56 31.4453 245.541 31.0312 245.51 30.4531C245.478 29.9531 245.463 29.5664 245.463 29.293C245.463 28.8555 245.623 28.4922 245.943 28.2031C246.263 27.9141 246.65 27.7695 247.103 27.7695C248.26 27.7695 248.838 28.7422 248.838 30.6875L248.814 31.6484C249.299 31.5781 249.693 31.543 249.998 31.543C250.896 31.543 251.51 31.6016 251.838 31.7188C252.463 31.9375 252.775 32.4141 252.775 33.1484C252.775 33.5938 252.623 33.9648 252.318 34.2617C252.013 34.5586 251.627 34.707 251.158 34.707ZM264.025 35.6914C263.955 36.8867 263.412 37.4844 262.396 37.4844C261.412 37.4844 260.92 36.9766 260.92 35.9609L260.861 34.7773C259.103 35.0586 257.845 35.9609 257.088 37.4844L257.099 43.3789C257.099 43.8242 256.947 44.1914 256.642 44.4805C256.338 44.7773 255.951 44.9258 255.482 44.9258C254.998 44.9258 254.623 44.7695 254.357 44.457C254.107 44.1758 253.982 43.8164 253.982 43.3789V35.7031C253.982 35.4609 253.99 35.1016 254.006 34.625C254.021 34.1406 254.029 33.7773 254.029 33.5352C254.029 33.0977 254.158 32.7344 254.416 32.4453C254.681 32.1484 255.056 32 255.541 32C256.408 32 256.924 32.4453 257.088 33.3359C258.47 32.3047 260.006 31.7891 261.693 31.7891C263.256 31.7891 264.037 32.8281 264.037 34.9062C264.037 35.3047 264.033 35.5664 264.025 35.6914ZM271.642 44.6797C269.775 44.6797 268.248 44.2344 267.06 43.3438C265.748 42.3594 265.092 40.9727 265.092 39.1836C265.092 37.207 265.611 35.5352 266.65 34.168C267.806 32.6523 269.365 31.8945 271.326 31.8945C272.685 31.8945 273.814 32.1133 274.713 32.5508C275.892 33.1289 276.482 34.0273 276.482 35.2461C276.482 36.1055 276.002 36.8672 275.041 37.5312C274.603 37.8359 273.724 38.2812 272.404 38.8672L268.455 40.6133C268.83 41.0195 269.283 41.3242 269.814 41.5273C270.345 41.7305 270.955 41.832 271.642 41.832C272.689 41.832 273.576 41.6172 274.302 41.1875C274.951 40.8047 275.47 40.6133 275.861 40.6133C276.674 40.6133 277.08 41.0078 277.08 41.7969C277.08 42.6875 276.427 43.4141 275.123 43.9766C274.029 44.4453 272.869 44.6797 271.642 44.6797ZM271.326 34.7305C270.599 34.7305 269.978 34.9727 269.463 35.457C268.947 35.9414 268.533 36.668 268.22 37.6367C269.103 37.2539 269.982 36.875 270.857 36.5C271.912 36.0234 272.752 35.582 273.377 35.1758C272.853 34.8789 272.17 34.7305 271.326 34.7305ZM288.4 44.9727C287.439 44.9727 286.904 44.5 286.795 43.5547C286.685 42.75 286.576 41.9414 286.467 41.1289C286.349 40.2695 286.291 39.4609 286.291 38.7031C286.291 38.5 286.302 38.1523 286.326 37.6602C286.357 37.168 286.373 36.8203 286.373 36.6172C286.373 36.5625 286.381 36.4258 286.396 36.207C286.412 35.9805 286.42 35.7969 286.42 35.6562C286.42 35.0078 286.252 34.6836 285.916 34.6836C285.197 34.6836 284.49 35.1055 283.795 35.9492C283.107 36.7852 282.568 37.8477 282.177 39.1367C282.162 39.3945 282.127 39.7383 282.072 40.168C282.025 40.5195 282.002 40.8633 282.002 41.1992C282.002 41.418 282.025 41.75 282.072 42.1953C282.127 42.6328 282.154 42.9609 282.154 43.1797C282.154 43.625 281.998 43.9922 281.685 44.2812C281.381 44.5781 280.994 44.7266 280.525 44.7266C280.056 44.7266 279.67 44.5781 279.365 44.2812C279.06 43.9922 278.908 43.625 278.908 43.1797C278.908 42.9609 278.885 42.6328 278.838 42.1953C278.791 41.75 278.767 41.418 278.767 41.1992C278.767 40.4492 278.822 39.4062 278.931 38.0703C279.041 36.7344 279.095 35.6914 279.095 34.9414C279.095 34.707 279.08 34.3594 279.049 33.8984C279.025 33.4297 279.013 33.082 279.013 32.8555C279.013 32.418 279.17 32.0586 279.482 31.7773C279.802 31.4883 280.193 31.3438 280.654 31.3438C281.677 31.3438 282.224 31.957 282.295 33.1836L282.306 33.3125C283.447 32.1641 284.65 31.5898 285.916 31.5898C287.392 31.5898 288.412 32.207 288.974 33.4414C289.349 34.2695 289.537 35.5078 289.537 37.1562V37.9883C289.529 38.3477 289.525 38.6016 289.525 38.75C289.525 39.3594 289.607 40.1445 289.771 41.1055C289.943 42.0664 290.029 42.8477 290.029 43.4492C290.029 43.8867 289.873 44.25 289.56 44.5391C289.248 44.8281 288.861 44.9727 288.4 44.9727ZM301.842 44.9141C301.482 44.9141 300.912 44.5234 300.131 43.7422C299.412 44.0859 298.779 44.3438 298.232 44.5156C297.685 44.6953 297.22 44.7852 296.838 44.7852C294.955 44.7852 293.541 44.2812 292.595 43.2734C291.658 42.2656 291.189 40.7578 291.189 38.75C291.189 36.8672 291.885 35.2578 293.275 33.9219C294.666 32.5781 296.33 31.9062 298.267 31.9062C299.01 31.9062 299.869 32.1172 300.845 32.5391C302.025 33.0469 302.615 33.6367 302.615 34.3086C302.615 34.5898 302.525 34.8359 302.345 35.0469C302.267 35.3594 302.205 35.7539 302.158 36.2305C302.119 36.6992 302.099 37.25 302.099 37.8828C302.099 39.375 302.205 40.4492 302.416 41.1055C302.439 41.1758 302.619 41.582 302.955 42.3242C303.26 42.9961 303.412 43.3789 303.412 43.4727C303.412 43.8867 303.252 44.2305 302.931 44.5039C302.619 44.7773 302.256 44.9141 301.842 44.9141ZM298.935 36.875C298.935 36.625 298.951 36.3398 298.982 36.0195C299.021 35.6914 299.076 35.3281 299.146 34.9297C298.99 34.8516 298.849 34.7969 298.724 34.7656C298.607 34.7266 298.506 34.707 298.42 34.707C297.357 34.707 296.427 35.125 295.631 35.9609C294.834 36.7891 294.435 37.75 294.435 38.8438C294.435 39.8906 294.623 40.6797 294.998 41.2109C295.373 41.7344 295.935 41.9961 296.685 41.9961C297.17 41.9961 297.627 41.918 298.056 41.7617C298.494 41.5977 298.904 41.3594 299.287 41.0469C299.052 39.1875 298.935 37.7969 298.935 36.875ZM308.099 33.7695C309.279 32.4023 310.396 31.7188 311.451 31.7188C312.654 31.7188 313.537 32.1758 314.099 33.0898C314.576 32.668 315.103 32.3516 315.681 32.1406C316.26 31.9297 316.885 31.8242 317.556 31.8242C319.088 31.8242 320.127 32.5859 320.674 34.1094C320.783 34.4219 320.951 35.4805 321.177 37.2852C321.396 38.5508 321.677 40.6602 322.021 43.6133C322.052 44.0586 321.9 44.4258 321.564 44.7148C321.228 45.0039 320.834 45.1484 320.381 45.1484C319.482 45.1484 318.955 44.7031 318.799 43.8125C318.658 43.0078 318.513 41.8711 318.365 40.4023C318.209 38.793 318.08 37.6523 317.978 36.9805C317.767 35.582 317.498 34.8828 317.17 34.8828C316.99 34.8828 316.58 35.0625 315.939 35.4219C315.299 35.7812 314.83 36.0898 314.533 36.3477C314.533 37.2383 314.638 38.5195 314.849 40.1914C315.068 41.9023 315.177 43.1836 315.177 44.0352C315.177 44.4805 315.025 44.8516 314.72 45.1484C314.416 45.4453 314.029 45.5938 313.56 45.5938C313.092 45.5938 312.705 45.4453 312.4 45.1484C312.095 44.8516 311.943 44.4805 311.943 44.0352C311.943 43.1445 311.845 41.8359 311.65 40.1094C311.463 38.375 311.369 37.0625 311.369 36.1719C311.369 35.6719 311.326 35.2734 311.24 34.9766C310.334 35.5 309.424 36.3711 308.51 37.5898C308.47 37.6445 308.404 37.7266 308.31 37.8359C308.279 39.4141 308.263 40.6523 308.263 41.5508C308.263 41.7695 308.256 42.0664 308.24 42.4414C308.224 42.8086 308.217 43.082 308.217 43.2617C308.217 43.6836 308.045 44.0156 307.701 44.2578C307.388 44.4844 307.002 44.5977 306.541 44.5977C305.877 44.5977 305.427 44.3086 305.193 43.7305C305.029 43.3398 304.947 42.7188 304.947 41.8672V37.5078C304.947 37.1172 304.931 36.5469 304.9 35.7969C304.869 35.0391 304.853 34.4648 304.853 34.0742C304.853 33.3789 304.978 32.75 305.228 32.1875C305.533 31.4844 305.963 31.1328 306.517 31.1328C306.955 31.1328 307.345 31.3047 307.689 31.6484C308.033 31.9844 308.205 32.3555 308.205 32.7617C308.205 32.5977 308.17 32.9336 308.099 33.7695ZM329.627 44.6797C327.76 44.6797 326.232 44.2344 325.045 43.3438C323.732 42.3594 323.076 40.9727 323.076 39.1836C323.076 37.207 323.595 35.5352 324.635 34.168C325.791 32.6523 327.349 31.8945 329.31 31.8945C330.67 31.8945 331.799 32.1133 332.697 32.5508C333.877 33.1289 334.467 34.0273 334.467 35.2461C334.467 36.1055 333.986 36.8672 333.025 37.5312C332.588 37.8359 331.709 38.2812 330.388 38.8672L326.439 40.6133C326.814 41.0195 327.267 41.3242 327.799 41.5273C328.33 41.7305 328.939 41.832 329.627 41.832C330.674 41.832 331.56 41.6172 332.287 41.1875C332.935 40.8047 333.455 40.6133 333.845 40.6133C334.658 40.6133 335.064 41.0078 335.064 41.7969C335.064 42.6875 334.412 43.4141 333.107 43.9766C332.013 44.4453 330.853 44.6797 329.627 44.6797ZM329.31 34.7305C328.584 34.7305 327.963 34.9727 327.447 35.457C326.931 35.9414 326.517 36.668 326.205 37.6367C327.088 37.2539 327.967 36.875 328.842 36.5C329.896 36.0234 330.736 35.582 331.361 35.1758C330.838 34.8789 330.154 34.7305 329.31 34.7305ZM346.385 44.9727C345.424 44.9727 344.888 44.5 344.779 43.5547C344.67 42.75 344.56 41.9414 344.451 41.1289C344.334 40.2695 344.275 39.4609 344.275 38.7031C344.275 38.5 344.287 38.1523 344.31 37.6602C344.342 37.168 344.357 36.8203 344.357 36.6172C344.357 36.5625 344.365 36.4258 344.381 36.207C344.396 35.9805 344.404 35.7969 344.404 35.6562C344.404 35.0078 344.236 34.6836 343.9 34.6836C343.181 34.6836 342.474 35.1055 341.779 35.9492C341.092 36.7852 340.552 37.8477 340.162 39.1367C340.146 39.3945 340.111 39.7383 340.056 40.168C340.01 40.5195 339.986 40.8633 339.986 41.1992C339.986 41.418 340.01 41.75 340.056 42.1953C340.111 42.6328 340.138 42.9609 340.138 43.1797C340.138 43.625 339.982 43.9922 339.67 44.2812C339.365 44.5781 338.978 44.7266 338.51 44.7266C338.041 44.7266 337.654 44.5781 337.349 44.2812C337.045 43.9922 336.892 43.625 336.892 43.1797C336.892 42.9609 336.869 42.6328 336.822 42.1953C336.775 41.75 336.752 41.418 336.752 41.1992C336.752 40.4492 336.806 39.4062 336.916 38.0703C337.025 36.7344 337.08 35.6914 337.08 34.9414C337.08 34.707 337.064 34.3594 337.033 33.8984C337.01 33.4297 336.998 33.082 336.998 32.8555C336.998 32.418 337.154 32.0586 337.467 31.7773C337.787 31.4883 338.177 31.3438 338.638 31.3438C339.662 31.3438 340.209 31.957 340.279 33.1836L340.291 33.3125C341.431 32.1641 342.635 31.5898 343.9 31.5898C345.377 31.5898 346.396 32.207 346.959 33.4414C347.334 34.2695 347.521 35.5078 347.521 37.1562V37.9883C347.513 38.3477 347.51 38.6016 347.51 38.75C347.51 39.3594 347.592 40.1445 347.756 41.1055C347.927 42.0664 348.013 42.8477 348.013 43.4492C348.013 43.8867 347.857 44.25 347.545 44.5391C347.232 44.8281 346.845 44.9727 346.385 44.9727ZM357.986 34.707C357.822 34.707 357.627 34.7031 357.4 34.6953C357.181 34.6797 356.99 34.6719 356.826 34.6719C356.506 34.6719 356.135 34.7031 355.713 34.7656C355.853 37.9219 355.924 39.9844 355.924 40.9531C355.924 41.0547 355.927 41.2461 355.935 41.5273C355.943 41.8008 355.947 42.0234 355.947 42.1953C355.947 43.9922 355.381 44.8906 354.248 44.8906C353.818 44.8906 353.447 44.7578 353.135 44.4922C352.791 44.2109 352.619 43.8594 352.619 43.4375C352.619 43.1562 352.631 42.7344 352.654 42.1719C352.677 41.6094 352.689 41.1875 352.689 40.9062C352.689 39.9609 352.619 37.9375 352.478 34.8359C351.994 34.8125 351.26 34.75 350.275 34.6484C349.299 34.5391 348.81 34.0312 348.81 33.125C348.81 32.6875 348.959 32.3164 349.256 32.0117C349.552 31.707 349.935 31.5547 350.404 31.5547C350.693 31.5547 351.357 31.6016 352.396 31.6953C352.388 31.4453 352.369 31.0312 352.338 30.4531C352.306 29.9531 352.291 29.5664 352.291 29.293C352.291 28.8555 352.451 28.4922 352.771 28.2031C353.092 27.9141 353.478 27.7695 353.931 27.7695C355.088 27.7695 355.666 28.7422 355.666 30.6875L355.642 31.6484C356.127 31.5781 356.521 31.543 356.826 31.543C357.724 31.543 358.338 31.6016 358.666 31.7188C359.291 31.9375 359.603 32.4141 359.603 33.1484C359.603 33.5938 359.451 33.9648 359.146 34.2617C358.842 34.5586 358.455 34.707 357.986 34.707ZM362.674 40.6602C362.236 40.6602 361.873 40.5234 361.584 40.25C361.302 39.9766 361.162 39.6328 361.162 39.2188C361.162 38.9141 361.15 38.4609 361.127 37.8594C361.111 37.25 361.103 36.793 361.103 36.4883C361.103 35.4102 361.111 33.793 361.127 31.6367C361.15 29.4805 361.162 27.8633 361.162 26.7852C361.162 26.3711 361.306 26.0273 361.595 25.7539C361.885 25.4727 362.244 25.332 362.674 25.332C363.103 25.332 363.463 25.4727 363.752 25.7539C364.041 26.0273 364.185 26.3711 364.185 26.7852V39.2188C364.185 39.6328 364.041 39.9766 363.752 40.25C363.47 40.5234 363.111 40.6602 362.674 40.6602ZM362.638 44.9141C362.17 44.9141 361.732 44.6641 361.326 44.1641C360.959 43.7031 360.775 43.2734 360.775 42.875C360.775 42.4688 360.935 42.1289 361.256 41.8555C361.576 41.582 361.939 41.4453 362.345 41.4453C362.814 41.4453 363.248 41.6953 363.646 42.1953C364.013 42.6562 364.197 43.082 364.197 43.4727C364.197 43.8711 364.037 44.2109 363.717 44.4922C363.404 44.7734 363.045 44.9141 362.638 44.9141Z" fill="black"/>
</svg>
