<svg width="348" height="146" viewBox="0 0 348 146" fill="none" xmlns="http://www.w3.org/2000/svg">
<path d="M2.99316 21.2231C2.99316 11.282 11.052 3.22314 20.9932 3.22314H325.993C335.934 3.22314 343.993 11.282 343.993 21.2231V124.223C343.993 134.164 335.934 142.223 325.993 142.223H20.9932C11.052 142.223 2.99316 134.164 2.99316 124.223V21.2231Z" fill="white"/>
<path d="M26.6732 3.29633L26.6989 1.2965L26.6732 3.29633ZM72.1132 3.05106L71.5728 4.97667L72.1132 3.05106ZM128.913 3.43089L129.328 5.38747L128.913 3.43089ZM174.353 2.98403L174.207 4.97867L174.353 2.98403ZM185.713 3.81248L185.569 5.80724L185.713 3.81248ZM287.953 3.81334L287.631 1.83947L287.953 3.81334ZM310.673 3.6981L310.926 5.68207L310.673 3.6981ZM322.101 2.41447L322.295 4.40504L322.101 2.41447ZM333.019 4.67823L332.061 6.43353L333.019 4.67823ZM342.591 23.2244L344.588 23.1054L342.591 23.2244ZM344.231 34.4277L342.282 34.8773L344.231 34.4277ZM343.82 57.1477L341.86 56.752L343.82 57.1477ZM344.164 79.8677L342.184 80.1552L344.164 79.8677ZM344.365 113.948L346.363 114.049L344.365 113.948ZM330.371 141.755L329.766 139.849L330.371 141.755ZM319.104 143.644L319.064 141.644L319.104 143.644ZM307.744 142.517L307.317 144.471L307.744 142.517ZM285.024 142.436L284.968 140.436L285.024 142.436ZM273.664 141.713L273.971 139.737L273.664 141.713ZM262.304 141.634L262.584 143.614L262.304 141.634ZM250.944 141.927L251.123 139.935L250.944 141.927ZM239.584 141.833L239.438 139.839L239.584 141.833ZM216.864 142.216L216.234 144.114L216.864 142.216ZM205.504 142.211L206.133 144.109L205.504 142.211ZM194.144 142.781L193.694 144.73L194.144 142.781ZM182.784 142.157L183.024 144.142L182.784 142.157ZM171.424 142.436L171.281 144.431L171.424 142.436ZM148.704 141.454L148.648 143.454L148.704 141.454ZM137.344 142.715L136.859 140.775L137.344 142.715ZM103.264 142.14L103.21 144.139L103.264 142.14ZM91.9041 141.812L91.9651 139.813L91.9041 141.812ZM23.8403 140.633L23.9285 142.631L23.8403 140.633ZM13.804 138.275L12.7942 140.001L13.804 138.275ZM5.38574 131.384L6.85382 130.026L5.38574 131.384ZM17.0103 5.31452L16.4284 3.40103L17.0103 5.31452ZM26.6732 3.29633L26.6474 5.29616C30.5102 5.34594 34.3725 5.17573 38.2341 4.78568L38.0332 2.79581L37.8322 0.805933C34.1205 1.18083 30.4095 1.34431 26.6989 1.2965L26.6732 3.29633ZM38.0332 2.79581L38.2341 4.78568C41.8248 4.42301 45.4162 4.58729 49.0145 5.28105L49.3932 3.31722L49.7718 1.35339C45.7968 0.586993 41.8149 0.403661 37.8322 0.805933L38.0332 2.79581ZM49.3932 3.31722L49.0145 5.28105C53.0981 6.06837 57.1861 5.92923 61.2567 4.87029L60.7532 2.93471L60.2496 0.999137C56.7469 1.91036 53.2616 2.02623 49.7718 1.35339L49.3932 3.31722ZM60.7532 2.93471L61.2567 4.87029C64.6988 3.97485 68.1252 4.00919 71.5728 4.97667L72.1132 3.05106L72.6535 1.12545C68.5278 -0.0323596 64.3809 -0.0755866 60.2496 0.999137L60.7532 2.93471ZM72.1132 3.05106L71.5728 4.97667C75.5081 6.08105 79.454 6.70101 83.4071 6.83164L83.4732 4.83273L83.5392 2.83382C79.919 2.71419 76.2915 2.14637 72.6535 1.12545L72.1132 3.05106ZM83.4732 4.83273L83.4071 6.83164C87.3684 6.96254 91.3255 6.57966 95.2743 5.68662L94.8332 3.73588L94.392 1.78514C90.7675 2.60482 87.1513 2.95318 83.5392 2.83382L83.4732 4.83273ZM94.8332 3.73588L95.2743 5.68662C98.8987 4.86696 102.515 4.51889 106.127 4.63879L106.193 2.63989L106.26 0.640992C102.298 0.509493 98.341 0.892082 94.392 1.78514L94.8332 3.73588ZM106.193 2.63989L106.127 4.63879C109.83 4.7617 113.533 5.11749 117.239 5.70656L117.553 3.73136L117.867 1.75616C113.999 1.14134 110.13 0.769478 106.26 0.640992L106.193 2.63989ZM117.553 3.73136L117.239 5.70656C121.27 6.34733 125.304 6.24 129.328 5.38747L128.913 3.43089L128.499 1.47432C124.949 2.2263 121.41 2.31927 117.867 1.75616L117.553 3.73136ZM128.913 3.43089L129.328 5.38747C133.002 4.60903 136.672 4.16062 140.339 4.04073L140.273 2.0418L140.208 0.0428684C136.301 0.170598 132.398 0.648249 128.499 1.47432L128.913 3.43089ZM140.273 2.0418L140.339 4.04073C144.029 3.92008 147.719 4.06635 151.411 4.47979L151.633 2.49222L151.856 0.504644C147.974 0.0699129 144.091 -0.0841012 140.208 0.0428684L140.273 2.0418ZM151.633 2.49222L151.411 4.47979C155.303 4.91576 159.197 5.03774 163.092 4.84545L162.993 2.84788L162.895 0.850316C159.216 1.03197 155.536 0.916848 151.856 0.504644L151.633 2.49222ZM162.993 2.84788L163.092 4.84545C166.797 4.66251 170.502 4.7069 174.207 4.97867L174.353 2.98403L174.499 0.989387C170.631 0.705676 166.763 0.659302 162.895 0.850316L162.993 2.84788ZM174.353 2.98403L174.207 4.97867C177.994 5.25645 181.781 5.53264 185.569 5.80724L185.713 3.81248L185.858 1.81771C182.072 1.5432 178.286 1.26709 174.499 0.989387L174.353 2.98403ZM185.713 3.81248L185.569 5.80724C189.353 6.08167 193.138 6.3612 196.923 6.64582L197.073 4.65145L197.223 2.65708C193.435 2.37219 189.646 2.0924 185.858 1.81771L185.713 3.81248ZM197.073 4.65145L196.923 6.64582C200.766 6.93477 204.608 7.06185 208.451 7.02702L208.433 5.0271L208.415 3.02719C204.685 3.06099 200.954 2.93764 197.223 2.65708L197.073 4.65145ZM208.433 5.0271L208.451 7.02702C212.35 6.99169 216.248 6.62904 220.142 5.94005L219.793 3.97064L219.445 2.00123C215.765 2.65222 212.089 2.99389 208.415 3.02719L208.433 5.0271ZM219.793 3.97064L220.142 5.94005C223.691 5.31212 227.234 5.33063 230.785 5.99614L231.153 4.03038L231.522 2.06462C227.499 1.3105 223.469 1.28918 219.445 2.00123L219.793 3.97064ZM231.153 4.03038L230.785 5.99614C234.732 6.73602 238.684 6.98234 242.639 6.73298L242.513 4.73694L242.387 2.74091C238.769 2.96909 235.148 2.74437 231.522 2.06462L231.153 4.03038ZM242.513 4.73694L242.639 6.73298C246.483 6.4906 250.326 6.08267 254.168 5.50934L253.873 3.53124L253.578 1.55314C249.847 2.10987 246.117 2.50574 242.387 2.74091L242.513 4.73694ZM253.873 3.53124L254.168 5.50934C257.884 4.95484 261.599 4.6036 265.313 4.45533L265.233 2.45692L265.153 0.458515C261.294 0.6126 257.435 0.977564 253.578 1.55314L253.873 3.53124ZM265.233 2.45692L265.313 4.45533C268.924 4.31117 272.539 4.63767 276.162 5.43829L276.593 3.48541L277.025 1.53253C273.074 0.659483 269.116 0.300324 265.153 0.458515L265.233 2.45692ZM276.593 3.48541L276.162 5.43829C280.193 6.32925 284.236 6.44674 288.275 5.78721L287.953 3.81334L287.631 1.83947C284.097 2.41637 280.566 2.31523 277.025 1.53253L276.593 3.48541ZM287.953 3.81334L288.275 5.78721C291.868 5.20074 295.455 5.15057 299.045 5.63586L299.313 3.65388L299.581 1.67191C295.598 1.1334 291.612 1.18952 287.631 1.83947L287.953 3.81334ZM299.313 3.65388L299.045 5.63586C303.004 6.17109 306.966 6.18654 310.926 5.68207L310.673 3.6981L310.42 1.71414C306.807 2.17451 303.195 2.16049 299.581 1.67191L299.313 3.65388ZM310.673 3.6981L310.926 5.68207C314.693 5.20215 318.482 4.77648 322.295 4.40504L322.101 2.41447L321.907 0.423895C318.056 0.799121 314.227 1.2292 310.42 1.71414L310.673 3.6981ZM322.101 2.41447L322.295 4.40504C325.719 4.07142 328.958 4.73909 332.061 6.43353L333.019 4.67823L333.978 2.92294C330.186 0.85237 326.146 0.0108571 321.907 0.423895L322.101 2.41447ZM333.019 4.67823L332.061 6.43353C335.131 8.1105 337.197 10.4084 338.368 13.3432L340.226 12.6016L342.083 11.8599C340.54 7.99532 337.801 5.01098 333.978 2.92294L333.019 4.67823ZM340.226 12.6016L338.368 13.3432C339.646 16.5427 340.388 19.8733 340.595 23.3435L342.591 23.2244L344.588 23.1054C344.356 19.2112 343.521 15.46 342.083 11.8599L340.226 12.6016ZM342.591 23.2244L340.595 23.3435C340.822 27.1427 341.385 30.9877 342.282 34.8773L344.231 34.4277L346.18 33.9781C345.33 30.2943 344.801 26.6705 344.588 23.1054L342.591 23.2244ZM344.231 34.4277L342.282 34.8773C343.115 38.488 343.439 42.0894 343.257 45.6866L345.254 45.7877L347.251 45.8888C347.453 41.9126 347.094 37.9406 346.18 33.9781L344.231 34.4277ZM345.254 45.7877L343.257 45.6866C343.07 49.3724 342.605 53.0607 341.86 56.752L343.82 57.1477L345.781 57.5433C346.564 53.6614 347.055 49.7762 347.251 45.8888L345.254 45.7877ZM343.82 57.1477L341.86 56.752C341.062 60.7041 340.778 64.663 341.01 68.6245L343.006 68.5077L345.003 68.3909C344.792 64.779 345.05 61.1646 345.781 57.5433L343.82 57.1477ZM343.006 68.5077L341.01 68.6245C341.234 72.4688 341.626 76.3124 342.184 80.1552L344.164 79.8677L346.143 79.5801C345.601 75.8496 345.221 72.1199 345.003 68.3909L343.006 68.5077ZM344.164 79.8677L342.184 80.1552C342.713 83.7931 342.826 87.428 342.526 91.0627L344.519 91.2277L346.512 91.3927C346.838 87.454 346.715 83.5155 346.143 79.5801L344.164 79.8677ZM344.519 91.2277L342.526 91.0627C342.205 94.9393 342.147 98.8166 342.353 102.694L344.35 102.588L346.348 102.482C346.151 98.7854 346.206 95.0893 346.512 91.3927L344.519 91.2277ZM344.35 102.588L342.353 102.694C342.551 106.412 342.556 110.129 342.368 113.847L344.365 113.948L346.363 114.049C346.558 110.193 346.553 106.337 346.348 102.482L344.35 102.588ZM344.365 113.948L342.368 113.847C342.176 117.65 342.029 121.496 341.929 125.383L343.928 125.434L345.928 125.486C346.027 121.631 346.172 117.818 346.363 114.049L344.365 113.948ZM343.928 125.434L341.929 125.383C341.842 128.775 340.672 131.714 338.378 134.277L339.869 135.611L341.359 136.944C344.279 133.681 345.816 129.836 345.928 125.486L343.928 125.434ZM339.869 135.611L338.378 134.277C336.01 136.924 333.15 138.774 329.766 139.849L330.371 141.755L330.977 143.661C335.043 142.37 338.514 140.124 341.359 136.944L339.869 135.611ZM330.371 141.755L329.766 139.849C326.218 140.976 322.653 141.573 319.064 141.644L319.104 143.644L319.144 145.644C323.129 145.564 327.075 144.901 330.977 143.661L330.371 141.755ZM319.104 143.644L319.064 141.644C315.438 141.717 311.808 141.358 308.171 140.563L307.744 142.517L307.317 144.471C311.254 145.331 315.197 145.723 319.144 145.644L319.104 143.644ZM307.744 142.517L308.171 140.563C304.19 139.694 300.201 139.433 296.209 139.784L296.384 141.777L296.559 143.769C300.141 143.454 303.724 143.687 307.317 144.471L307.744 142.517ZM296.384 141.777L296.209 139.784C292.462 140.114 288.715 140.331 284.968 140.436L285.024 142.436L285.08 144.435C288.907 144.328 292.733 144.106 296.559 143.769L296.384 141.777ZM285.024 142.436L284.968 140.436C281.304 140.539 277.639 140.306 273.971 139.737L273.664 141.713L273.357 143.689C277.263 144.296 281.171 144.544 285.08 144.435L285.024 142.436ZM273.664 141.713L273.971 139.737C269.99 139.119 266.006 139.091 262.024 139.654L262.304 141.634L262.584 143.614C266.176 143.107 269.765 143.132 273.357 143.689L273.664 141.713ZM262.304 141.634L262.024 139.654C258.389 140.167 254.756 140.261 251.123 139.935L250.944 141.927L250.765 143.919C254.706 144.272 258.646 144.171 262.584 143.614L262.304 141.634ZM250.944 141.927L251.123 139.935C247.228 139.586 243.333 139.554 239.438 139.839L239.584 141.833L239.73 143.828C243.408 143.559 247.087 143.589 250.765 143.919L250.944 141.927ZM239.584 141.833L239.438 139.839C235.592 140.12 231.746 140.574 227.902 141.202L228.224 143.176L228.546 145.15C232.275 144.541 236.003 144.1 239.73 143.828L239.584 141.833ZM228.224 143.176L227.902 141.202C224.447 141.766 220.987 141.478 217.495 140.318L216.864 142.216L216.234 144.114C220.314 145.47 224.428 145.822 228.546 145.15L228.224 143.176ZM216.864 142.216L217.495 140.318C213.299 138.924 209.071 138.922 204.875 140.312L205.504 142.211L206.133 144.109C209.511 142.99 212.856 142.992 216.234 144.114L216.864 142.216ZM205.504 142.211L204.875 140.312C201.427 141.455 198.013 141.622 194.594 140.833L194.144 142.781L193.694 144.73C197.848 145.689 202.008 145.476 206.133 144.109L205.504 142.211ZM194.144 142.781L194.594 140.833C190.586 139.907 186.565 139.685 182.544 140.171L182.784 142.157L183.024 144.142C186.576 143.713 190.129 143.907 193.694 144.73L194.144 142.781ZM182.784 142.157L182.544 140.171C178.884 140.614 175.226 140.704 171.567 140.441L171.424 142.436L171.281 144.431C175.196 144.712 179.111 144.616 183.024 144.142L182.784 142.157ZM171.424 142.436L171.567 140.441C167.757 140.168 163.947 139.962 160.137 139.822L160.064 141.821L159.991 143.82C163.754 143.957 167.518 144.161 171.281 144.431L171.424 142.436ZM160.064 141.821L160.137 139.822C156.345 139.684 152.552 139.561 148.76 139.455L148.704 141.454L148.648 143.454C152.429 143.559 156.21 143.681 159.991 143.82L160.064 141.821ZM148.704 141.454L148.76 139.455C144.786 139.344 140.817 139.786 136.859 140.775L137.344 142.715L137.829 144.656C141.444 143.752 145.049 143.353 148.648 143.454L148.704 141.454ZM137.344 142.715L136.859 140.775C133.385 141.644 129.925 141.659 126.453 140.823L125.984 142.767L125.516 144.711C129.617 145.699 133.73 145.68 137.829 144.656L137.344 142.715ZM125.984 142.767L126.453 140.823C122.466 139.862 118.469 139.537 114.467 139.853L114.624 141.847L114.781 143.84C118.353 143.559 121.928 143.847 125.516 144.711L125.984 142.767ZM114.624 141.847L114.467 139.853C110.75 140.146 107.034 140.242 103.318 140.141L103.264 142.14L103.21 144.139C107.067 144.244 110.925 144.145 114.781 143.84L114.624 141.847ZM103.264 142.14L103.318 140.141C99.534 140.038 95.7495 139.929 91.9651 139.813L91.9041 141.812L91.8431 143.812C95.632 143.927 99.4209 144.036 103.21 144.139L103.264 142.14ZM91.9041 141.812L91.9651 139.813C88.0834 139.695 84.2021 139.853 80.3221 140.286L80.5441 142.274L80.7662 144.261C84.4594 143.849 88.1515 143.699 91.8431 143.812L91.9041 141.812ZM80.5441 142.274L80.3221 140.286C76.69 140.692 73.0592 140.673 69.4266 140.229L69.1841 142.215L68.9416 144.2C72.8823 144.681 76.8249 144.702 80.7662 144.261L80.5441 142.274ZM69.1841 142.215L69.4266 140.229C65.4415 139.742 61.4555 139.853 57.4752 140.558L57.8241 142.527L58.173 144.496C61.766 143.86 65.3534 143.761 68.9416 144.2L69.1841 142.215ZM57.8241 142.527L57.4752 140.558C53.9418 141.184 50.4131 141.127 46.8751 140.384L46.4641 142.341L46.0531 144.298C50.0884 145.146 54.1331 145.212 58.173 144.496L57.8241 142.527ZM46.4641 142.341L46.8751 140.384C42.9988 139.57 39.1196 139.032 35.2379 138.772L35.1041 140.767L34.9703 142.763C38.662 143.01 42.3561 143.522 46.0531 144.298L46.4641 142.341ZM35.1041 140.767L35.2379 138.772C31.3787 138.513 27.55 138.467 23.7522 138.635L23.8403 140.633L23.9285 142.631C27.5757 142.47 31.2561 142.514 34.9703 142.763L35.1041 140.767ZM23.8403 140.633L23.7522 138.635C20.3807 138.784 17.4221 138.074 14.8137 136.549L13.804 138.275L12.7942 140.001C16.1226 141.948 19.855 142.811 23.9285 142.631L23.8403 140.633ZM13.804 138.275L14.8137 136.549C12.0361 134.924 9.38111 132.758 6.85382 130.026L5.38574 131.384L3.91766 132.743C6.67783 135.726 9.63497 138.154 12.7942 140.001L13.804 138.275ZM5.38574 131.384L6.85382 130.026C4.69466 127.692 4.04866 125.046 4.9239 121.817L2.99357 121.294L1.06324 120.77C-0.159428 125.281 0.789353 129.361 3.91766 132.743L5.38574 131.384ZM2.99357 121.294L4.9239 121.817C6.06326 117.614 6.08266 113.426 4.96916 109.29L3.03791 109.81L1.10667 110.329C2.03194 113.767 2.02178 117.235 1.06324 120.77L2.99357 121.294ZM3.03791 109.81L4.96916 109.29C4.02897 105.797 3.91385 102.324 4.61635 98.8455L2.65593 98.4495L0.695504 98.0536C-0.131454 102.148 0.00807762 106.249 1.10667 110.329L3.03791 109.81ZM2.65593 98.4495L4.61635 98.8455C5.43503 94.7916 5.41758 90.7301 4.56464 86.6776L2.60752 87.0895L0.650399 87.5015C1.39146 91.0223 1.40628 94.5341 0.695504 98.0536L2.65593 98.4495ZM2.60752 87.0895L4.56464 86.6776C3.82383 83.1579 3.81206 79.6473 4.5288 76.1288L2.56905 75.7295L0.609298 75.3303C-0.216669 79.3851 -0.202796 83.4478 0.650399 87.5015L2.60752 87.0895ZM2.56905 75.7295L4.5288 76.1288C5.334 72.1759 5.62311 68.2162 5.3933 64.2537L3.39665 64.3695L1.40001 64.4854C1.60943 68.0962 1.34681 71.7098 0.609298 75.3303L2.56905 75.7295ZM3.39665 64.3695L5.3933 64.2537C5.17973 60.5714 5.25447 56.8891 5.6177 53.2058L3.62736 53.0095L1.63701 52.8133C1.25339 56.7033 1.17433 60.5943 1.40001 64.4854L3.39665 64.3695ZM3.62736 53.0095L5.6177 53.2058C5.99497 49.3802 6.25895 45.5543 6.40961 41.7282L4.41116 41.6496L2.41271 41.5709C2.26515 45.3181 2.0066 49.0656 1.63701 52.8133L3.62736 53.0095ZM4.41116 41.6496L6.40961 41.7282C6.56154 37.87 6.5062 34.0117 6.24363 30.1537L4.24825 30.2896L2.25287 30.4254C2.50573 34.1407 2.559 37.8558 2.41271 41.5709L4.41116 41.6496ZM4.24825 30.2896L6.24363 30.1537C5.98934 26.4174 5.87554 22.6615 5.90231 18.886L3.90236 18.8718L1.90241 18.8576C1.87493 22.7324 1.99172 26.5884 2.25287 30.4254L4.24825 30.2896ZM3.90236 18.8718L5.90231 18.886C5.92506 15.6794 7.15991 13.2671 9.66176 11.4471L8.48524 9.82981L7.30871 8.21247C3.75432 10.7981 1.93393 14.4138 1.90241 18.8576L3.90236 18.8718ZM8.48524 9.82981L9.66176 11.4471C12.5684 9.33276 15.2102 7.95231 17.5921 7.22802L17.0103 5.31452L16.4284 3.40103C13.4999 4.29153 10.4584 5.92128 7.30871 8.21247L8.48524 9.82981ZM17.0103 5.31452L17.5921 7.22802C18.9361 6.81933 20.0071 6.45724 20.7634 6.14368C21.1301 5.99167 21.5047 5.81802 21.8171 5.61945C21.968 5.5235 22.1902 5.36861 22.397 5.14579C22.5687 4.96077 22.9932 4.44855 22.9932 3.66329H20.9932H18.9932C18.9932 2.95138 19.3762 2.52055 19.4649 2.42495C19.5335 2.35104 19.591 2.30354 19.6202 2.28069C19.6512 2.25644 19.6704 2.24429 19.6714 2.24364C19.6732 2.24247 19.6651 2.24771 19.6442 2.25916C19.6236 2.2704 19.5945 2.28557 19.5556 2.30459C19.4766 2.34313 19.3701 2.39117 19.2315 2.44865C18.6602 2.6855 17.7397 3.00231 16.4284 3.40103L17.0103 5.31452ZM20.9932 3.66329H22.9932C22.9932 4.82832 22.0678 5.30229 22.0179 5.32875C21.8373 5.42435 21.7174 5.44186 21.7771 5.42876C21.8612 5.4103 22.0935 5.3763 22.5421 5.34732C23.4087 5.29133 24.7656 5.27192 26.6474 5.29616L26.6732 3.29633L26.6989 1.2965C24.7941 1.27195 23.311 1.2893 22.2842 1.35564C21.7862 1.38781 21.3085 1.43636 20.9192 1.52184C20.7422 1.5607 20.4448 1.63553 20.146 1.79379C19.9777 1.88292 18.9932 2.4249 18.9932 3.66329H20.9932Z" fill="black"/>
<path d="M91.6011 65.3174C91.1265 65.3174 90.7354 65.0713 90.4277 64.5791C90.1641 64.1572 89.9268 63.4541 89.7158 62.4697L89.2412 60.2021C88.8809 58.7959 88.3096 55.6934 87.5273 50.8945L84.8906 58.8442L84.1128 61.3491C83.7964 62.3423 83.4668 63.1553 83.124 63.7881C82.7549 64.4561 82.2583 64.79 81.6343 64.79C81.1157 64.79 80.707 64.5088 80.4082 63.9463C80.2148 63.5771 80.0391 63.1069 79.8809 62.5356L79.4985 61.0723C78.6108 57.9697 77.8286 54.6475 77.1519 51.1055L76.6772 53.4653L74.9766 60.4263C74.9062 61.2437 74.6865 62.4521 74.3174 64.0518C74.0537 64.7373 73.6187 65.0801 73.0122 65.0801C72.5815 65.0801 72.2388 64.9263 71.9839 64.6187C71.7642 64.355 71.6543 64.0298 71.6543 63.6431C71.6543 62.1753 71.9575 60.3735 72.564 58.2378L74.0142 52.9248L74.7788 48.772C75.1655 46.8296 75.5742 45.5596 76.0049 44.9619C76.3564 44.4521 76.7915 44.1973 77.3101 44.1973C77.8813 44.1973 78.3076 44.5225 78.5889 45.1729C78.9316 45.9551 79.3008 47.5503 79.6963 49.9585C80.1621 52.8501 80.8872 55.979 81.8716 59.3452C83.1724 55.9614 84.2974 52.437 85.2466 48.772L85.6421 46.8472C85.8003 46.0737 86.0068 45.4497 86.2617 44.9751C86.6045 44.3247 87.0747 43.9995 87.6724 43.9995C88.4282 43.9995 89.0039 44.729 89.3994 46.188C89.54 46.689 89.7114 47.7261 89.9136 49.2993C90.4321 53.272 91.0781 56.6646 91.8516 59.4771L92.4976 61.7446C92.8315 62.9575 92.9985 63.7046 92.9985 63.9858C92.9985 64.3638 92.8535 64.6802 92.5635 64.9351C92.2822 65.1899 91.9614 65.3174 91.6011 65.3174ZM106.143 65.0933C105.976 65.0933 105.672 64.8999 105.233 64.5132C104.837 64.1528 104.543 63.832 104.35 63.5508C103.506 64.0078 102.763 64.3506 102.122 64.5791C101.48 64.8164 100.944 64.9351 100.513 64.9351C98.4565 64.9351 96.958 64.355 96.0176 63.1948C95.1299 62.105 94.686 60.4351 94.686 58.1851C94.686 56.0581 95.4155 54.2388 96.8745 52.7271C98.3423 51.2153 100.091 50.4595 102.122 50.4595C102.886 50.4595 103.743 50.6572 104.692 51.0527C105.888 51.5449 106.485 52.1382 106.485 52.8325C106.485 53.0698 106.397 53.2808 106.222 53.4653C106.134 53.7993 106.063 54.3486 106.011 55.1133C105.967 55.8779 105.94 56.8579 105.932 58.0532C105.923 59.1431 105.998 60.0044 106.156 60.6372C106.244 61.0239 106.521 61.7974 106.986 62.9575C107.048 63.1157 107.149 63.3486 107.29 63.6562L107.369 63.8804C107.369 64.2319 107.246 64.522 107 64.7505C106.753 64.979 106.468 65.0933 106.143 65.0933ZM103.4 55.9307C103.4 55.5527 103.422 55.144 103.466 54.7046C103.519 54.2563 103.594 53.7817 103.69 53.2808C103.365 53.1138 103.084 52.9907 102.847 52.9116C102.618 52.8325 102.434 52.793 102.293 52.793C100.931 52.793 99.7529 53.3511 98.7598 54.4673C97.7754 55.5747 97.2832 56.8535 97.2832 58.3037C97.2832 59.7451 97.5381 60.8262 98.0479 61.5469C98.5576 62.2676 99.3223 62.6279 100.342 62.6279C101.186 62.6279 101.902 62.4741 102.491 62.1665C102.807 61.9995 103.251 61.6655 103.822 61.1646C103.541 58.8354 103.4 57.0908 103.4 55.9307ZM100.632 46.7021C103.207 46.7021 104.684 45.999 105.062 44.5928C105.211 44.0391 105.527 43.7622 106.011 43.7622C106.292 43.7622 106.534 43.8545 106.736 44.0391C106.947 44.2236 107.043 44.4521 107.026 44.7246L107 44.9092C106.894 46.2451 106.121 47.2471 104.679 47.915C103.554 48.4248 102.205 48.6797 100.632 48.6797C99.3838 48.6797 98.2896 48.2578 97.3491 47.4141C96.3823 46.5527 95.8989 45.5024 95.8989 44.2632C95.8989 43.604 96.2241 43.2744 96.8745 43.2744C97.5337 43.2744 97.8633 43.604 97.8633 44.2632C97.8633 44.9487 98.1577 45.5332 98.7466 46.0166C99.3003 46.4736 99.9287 46.7021 100.632 46.7021ZM123.809 63.5376C123.782 64.3462 123.382 64.7505 122.609 64.7505C121.967 64.7505 121.501 64.3726 121.211 63.6167L119.194 58.2642L116.848 52.2129C116.76 51.9844 116.716 51.7822 116.716 51.6064C116.716 51.2461 116.852 50.9385 117.125 50.6836C117.397 50.4287 117.713 50.3013 118.074 50.3013C118.601 50.3013 118.979 50.5693 119.208 51.1055L122.556 60.3208C123.215 58.9146 124.046 56.8755 125.048 54.2036C125.285 53.5005 125.659 52.5073 126.168 51.2241C126.441 50.6616 126.828 50.3804 127.329 50.3804C127.689 50.3804 128.005 50.5078 128.278 50.7627C128.55 51.0176 128.687 51.3208 128.687 51.6724C128.687 52.0063 127.961 53.8872 126.511 57.3149L123.809 63.5376ZM135.806 65.001C134.329 65.001 133.059 64.4561 131.996 63.3662C130.809 62.1533 130.185 60.5229 130.124 58.4751C130.071 56.4888 130.572 54.7397 131.626 53.228C132.857 51.4438 134.571 50.5518 136.768 50.5518C138.526 50.5518 139.857 51.356 140.763 52.9644C141.483 54.2651 141.831 55.8296 141.804 57.6577C141.778 59.6089 141.268 61.2744 140.275 62.6543C139.15 64.2188 137.66 65.001 135.806 65.001ZM136.597 53.228C135.305 53.2192 134.298 53.8345 133.578 55.0737C133.006 56.0669 132.721 57.2007 132.721 58.4751C132.721 59.7495 133.068 60.7427 133.762 61.4546C134.342 62.0435 135.023 62.3379 135.806 62.3379C136.72 62.3379 137.506 62.0039 138.166 61.3359C138.913 60.5977 139.308 59.6001 139.352 58.3433C139.475 54.9419 138.557 53.2368 136.597 53.228ZM147.592 47.5327C147.17 47.5327 146.805 47.3833 146.498 47.0845C146.19 46.7856 146.036 46.4253 146.036 46.0034C146.036 45.5815 146.19 45.2212 146.498 44.9224C146.805 44.6235 147.17 44.4741 147.592 44.4741C148.014 44.4741 148.374 44.6235 148.673 44.9224C148.98 45.2212 149.134 45.5815 149.134 46.0034C149.134 46.4253 148.98 46.7856 148.673 47.0845C148.374 47.3833 148.014 47.5327 147.592 47.5327ZM148.185 58.2378C148.185 58.7651 148.198 59.5562 148.225 60.6108C148.26 61.6567 148.277 62.4434 148.277 62.9707C148.277 63.3574 148.159 63.6738 147.921 63.9199C147.684 64.166 147.372 64.2891 146.985 64.2891C146.607 64.2891 146.295 64.166 146.049 63.9199C145.812 63.6738 145.693 63.3574 145.693 62.9707C145.693 62.4434 145.676 61.6567 145.641 60.6108C145.614 59.5562 145.601 58.7651 145.601 58.2378C145.601 57.4116 145.645 56.3833 145.733 55.1528C145.821 53.9136 145.865 52.8809 145.865 52.0547C145.865 51.6592 145.983 51.3384 146.221 51.0923C146.467 50.8462 146.779 50.7231 147.157 50.7231C147.535 50.7231 147.842 50.8462 148.08 51.0923C148.326 51.3384 148.449 51.6592 148.449 52.0547C148.449 52.8809 148.405 53.9136 148.317 55.1528C148.229 56.3833 148.185 57.4116 148.185 58.2378ZM31.8003 103.093C31.396 103.093 30.7544 102.654 29.8755 101.775C29.0669 102.162 28.355 102.452 27.7397 102.645C27.1245 102.847 26.6016 102.948 26.1709 102.948C24.0527 102.948 22.4619 102.381 21.3984 101.248C20.3438 100.114 19.8164 98.4175 19.8164 96.1587C19.8164 94.0405 20.5986 92.23 22.1631 90.7271C23.7275 89.2153 25.5996 88.4595 27.7793 88.4595C28.6143 88.4595 29.5811 88.6968 30.6797 89.1714C32.0068 89.7427 32.6704 90.4062 32.6704 91.1621C32.6704 91.4785 32.5693 91.7554 32.3672 91.9927C32.2793 92.3442 32.209 92.7881 32.1562 93.3242C32.1123 93.8516 32.0903 94.4712 32.0903 95.1831C32.0903 96.8618 32.209 98.0703 32.4463 98.8086C32.4727 98.8877 32.6748 99.3447 33.0527 100.18C33.3955 100.936 33.5669 101.366 33.5669 101.472C33.5669 101.938 33.3867 102.324 33.0264 102.632C32.6748 102.939 32.2661 103.093 31.8003 103.093ZM28.5308 94.0493C28.5308 93.7681 28.5483 93.4473 28.5835 93.0869C28.6274 92.7178 28.689 92.3091 28.7681 91.8608C28.5923 91.7729 28.4341 91.7114 28.2935 91.6763C28.1616 91.6323 28.0474 91.6104 27.9507 91.6104C26.7554 91.6104 25.7095 92.0806 24.813 93.021C23.9165 93.9526 23.4683 95.0337 23.4683 96.2642C23.4683 97.4419 23.6792 98.3296 24.1011 98.9272C24.5229 99.5161 25.1558 99.8105 25.9995 99.8105C26.5444 99.8105 27.0586 99.7227 27.542 99.5469C28.0342 99.3623 28.4956 99.0942 28.9263 98.7427C28.6626 96.6509 28.5308 95.0864 28.5308 94.0493ZM45.8145 103.159C44.7334 103.159 44.1313 102.627 44.0083 101.564C43.8853 100.659 43.7622 99.749 43.6392 98.835C43.5073 97.8682 43.4414 96.9585 43.4414 96.106C43.4414 95.8774 43.4546 95.4863 43.481 94.9326C43.5161 94.3789 43.5337 93.9878 43.5337 93.7593C43.5337 93.6978 43.5425 93.5439 43.5601 93.2979C43.5776 93.043 43.5864 92.8364 43.5864 92.6782C43.5864 91.9487 43.3975 91.584 43.0195 91.584C42.2109 91.584 41.4155 92.0586 40.6333 93.0078C39.8599 93.9482 39.2534 95.1436 38.814 96.5938C38.7964 96.8838 38.7568 97.2705 38.6953 97.7539C38.6426 98.1494 38.6162 98.5361 38.6162 98.9141C38.6162 99.1602 38.6426 99.5337 38.6953 100.035C38.7568 100.527 38.7876 100.896 38.7876 101.142C38.7876 101.643 38.6118 102.056 38.2603 102.381C37.9175 102.715 37.4824 102.882 36.9551 102.882C36.4277 102.882 35.9927 102.715 35.6499 102.381C35.3071 102.056 35.1357 101.643 35.1357 101.142C35.1357 100.896 35.1094 100.527 35.0566 100.035C35.0039 99.5337 34.9775 99.1602 34.9775 98.9141C34.9775 98.0703 35.0391 96.897 35.1621 95.394C35.2852 93.8911 35.3467 92.7178 35.3467 91.874C35.3467 91.6104 35.3291 91.2192 35.2939 90.7007C35.2676 90.1733 35.2544 89.7822 35.2544 89.5273C35.2544 89.0352 35.4302 88.6309 35.7817 88.3145C36.1421 87.9893 36.5815 87.8267 37.1001 87.8267C38.2515 87.8267 38.8667 88.5166 38.9458 89.8965L38.959 90.0415C40.2422 88.7495 41.5957 88.1035 43.0195 88.1035C44.6807 88.1035 45.8276 88.7979 46.4604 90.1865C46.8823 91.1182 47.0933 92.5112 47.0933 94.3657V95.3018C47.0845 95.7061 47.0801 95.9917 47.0801 96.1587C47.0801 96.8442 47.1724 97.7275 47.3569 98.8086C47.5503 99.8896 47.647 100.769 47.647 101.445C47.647 101.938 47.4712 102.346 47.1196 102.671C46.7681 102.997 46.333 103.159 45.8145 103.159ZM58.8662 91.6104C58.6816 91.6104 58.4619 91.606 58.207 91.5972C57.9609 91.5796 57.7456 91.5708 57.561 91.5708C57.2007 91.5708 56.7832 91.606 56.3086 91.6763C56.4668 95.2271 56.5459 97.5474 56.5459 98.6372C56.5459 98.7515 56.5503 98.9668 56.5591 99.2832C56.5679 99.5908 56.5723 99.8413 56.5723 100.035C56.5723 102.056 55.9351 103.067 54.6606 103.067C54.1772 103.067 53.7598 102.917 53.4082 102.619C53.0215 102.302 52.8281 101.907 52.8281 101.432C52.8281 101.116 52.8413 100.641 52.8677 100.008C52.894 99.3755 52.9072 98.9009 52.9072 98.5845C52.9072 97.521 52.8281 95.2446 52.6699 91.7554C52.125 91.729 51.2988 91.6587 50.1914 91.5444C49.0928 91.4214 48.5435 90.8501 48.5435 89.8306C48.5435 89.3384 48.7104 88.9209 49.0444 88.5781C49.3784 88.2354 49.8091 88.064 50.3364 88.064C50.6616 88.064 51.4087 88.1167 52.5776 88.2222C52.5688 87.9409 52.5469 87.4751 52.5117 86.8247C52.4766 86.2622 52.459 85.8271 52.459 85.5195C52.459 85.0273 52.6392 84.6187 52.9995 84.2935C53.3599 83.9683 53.7949 83.8057 54.3047 83.8057C55.6055 83.8057 56.2559 84.8999 56.2559 87.0884L56.2295 88.1694C56.7744 88.0903 57.2183 88.0508 57.561 88.0508C58.5718 88.0508 59.2617 88.1167 59.6309 88.2485C60.334 88.4946 60.6855 89.0308 60.6855 89.8569C60.6855 90.3579 60.5142 90.7754 60.1714 91.1094C59.8286 91.4434 59.3936 91.6104 58.8662 91.6104ZM73.3418 92.7178C73.2627 94.0625 72.6519 94.7349 71.5093 94.7349C70.4019 94.7349 69.8481 94.1636 69.8481 93.021L69.7822 91.6895C67.8047 92.0059 66.3896 93.021 65.5371 94.7349L65.5503 101.366C65.5503 101.867 65.3789 102.28 65.0361 102.605C64.6934 102.939 64.2583 103.106 63.731 103.106C63.186 103.106 62.7642 102.931 62.4653 102.579C62.1841 102.263 62.0435 101.858 62.0435 101.366V92.731C62.0435 92.4585 62.0522 92.0542 62.0698 91.5181C62.0874 90.9731 62.0962 90.5645 62.0962 90.292C62.0962 89.7998 62.2412 89.3911 62.5312 89.0659C62.8301 88.7319 63.252 88.5649 63.7969 88.5649C64.7725 88.5649 65.3525 89.0659 65.5371 90.0679C67.0928 88.9077 68.8198 88.3276 70.7183 88.3276C72.4761 88.3276 73.355 89.4966 73.355 91.8345C73.355 92.2827 73.3506 92.5771 73.3418 92.7178ZM81.9111 102.83C79.8105 102.83 78.0923 102.329 76.7563 101.327C75.2798 100.219 74.5415 98.6592 74.5415 96.6465C74.5415 94.4229 75.126 92.542 76.2949 91.0039C77.5957 89.2988 79.3491 88.4463 81.5552 88.4463C83.0845 88.4463 84.3545 88.6924 85.3652 89.1846C86.6924 89.835 87.356 90.8457 87.356 92.2168C87.356 93.1836 86.8154 94.0405 85.7344 94.7876C85.2422 95.1304 84.2534 95.6313 82.7681 96.2905L78.3252 98.2549C78.7471 98.7119 79.2568 99.0547 79.8545 99.2832C80.4521 99.5117 81.1377 99.626 81.9111 99.626C83.0889 99.626 84.0864 99.3843 84.9038 98.9009C85.6333 98.4702 86.2178 98.2549 86.6572 98.2549C87.5713 98.2549 88.0283 98.6987 88.0283 99.5864C88.0283 100.588 87.2944 101.406 85.8267 102.039C84.5962 102.566 83.291 102.83 81.9111 102.83ZM81.5552 91.6367C80.7378 91.6367 80.0391 91.9092 79.459 92.4541C78.8789 92.999 78.4131 93.8164 78.0615 94.9062C79.0547 94.4756 80.0435 94.0493 81.0278 93.6274C82.2144 93.0913 83.1592 92.5947 83.8623 92.1377C83.2734 91.8037 82.5044 91.6367 81.5552 91.6367ZM100.764 103.159C99.6826 103.159 99.0806 102.627 98.9575 101.564C98.8345 100.659 98.7114 99.749 98.5884 98.835C98.4565 97.8682 98.3906 96.9585 98.3906 96.106C98.3906 95.8774 98.4038 95.4863 98.4302 94.9326C98.4653 94.3789 98.4829 93.9878 98.4829 93.7593C98.4829 93.6978 98.4917 93.5439 98.5093 93.2979C98.5269 93.043 98.5356 92.8364 98.5356 92.6782C98.5356 91.9487 98.3467 91.584 97.9688 91.584C97.1602 91.584 96.3647 92.0586 95.5825 93.0078C94.8091 93.9482 94.2026 95.1436 93.7632 96.5938C93.7456 96.8838 93.7061 97.2705 93.6445 97.7539C93.5918 98.1494 93.5654 98.5361 93.5654 98.9141C93.5654 99.1602 93.5918 99.5337 93.6445 100.035C93.7061 100.527 93.7368 100.896 93.7368 101.142C93.7368 101.643 93.561 102.056 93.2095 102.381C92.8667 102.715 92.4316 102.882 91.9043 102.882C91.377 102.882 90.9419 102.715 90.5991 102.381C90.2563 102.056 90.085 101.643 90.085 101.142C90.085 100.896 90.0586 100.527 90.0059 100.035C89.9531 99.5337 89.9268 99.1602 89.9268 98.9141C89.9268 98.0703 89.9883 96.897 90.1113 95.394C90.2344 93.8911 90.2959 92.7178 90.2959 91.874C90.2959 91.6104 90.2783 91.2192 90.2432 90.7007C90.2168 90.1733 90.2036 89.7822 90.2036 89.5273C90.2036 89.0352 90.3794 88.6309 90.731 88.3145C91.0913 87.9893 91.5308 87.8267 92.0493 87.8267C93.2007 87.8267 93.8159 88.5166 93.895 89.8965L93.9082 90.0415C95.1914 88.7495 96.5449 88.1035 97.9688 88.1035C99.6299 88.1035 100.777 88.7979 101.41 90.1865C101.832 91.1182 102.042 92.5112 102.042 94.3657V95.3018C102.034 95.7061 102.029 95.9917 102.029 96.1587C102.029 96.8442 102.122 97.7275 102.306 98.8086C102.5 99.8896 102.596 100.769 102.596 101.445C102.596 101.938 102.42 102.346 102.069 102.671C101.717 102.997 101.282 103.159 100.764 103.159ZM115.885 103.093C115.481 103.093 114.839 102.654 113.96 101.775C113.152 102.162 112.44 102.452 111.825 102.645C111.209 102.847 110.687 102.948 110.256 102.948C108.138 102.948 106.547 102.381 105.483 101.248C104.429 100.114 103.901 98.4175 103.901 96.1587C103.901 94.0405 104.684 92.23 106.248 90.7271C107.812 89.2153 109.685 88.4595 111.864 88.4595C112.699 88.4595 113.666 88.6968 114.765 89.1714C116.092 89.7427 116.755 90.4062 116.755 91.1621C116.755 91.4785 116.654 91.7554 116.452 91.9927C116.364 92.3442 116.294 92.7881 116.241 93.3242C116.197 93.8516 116.175 94.4712 116.175 95.1831C116.175 96.8618 116.294 98.0703 116.531 98.8086C116.558 98.8877 116.76 99.3447 117.138 100.18C117.48 100.936 117.652 101.366 117.652 101.472C117.652 101.938 117.472 102.324 117.111 102.632C116.76 102.939 116.351 103.093 115.885 103.093ZM112.616 94.0493C112.616 93.7681 112.633 93.4473 112.668 93.0869C112.712 92.7178 112.774 92.3091 112.853 91.8608C112.677 91.7729 112.519 91.7114 112.378 91.6763C112.247 91.6323 112.132 91.6104 112.036 91.6104C110.84 91.6104 109.794 92.0806 108.898 93.021C108.001 93.9526 107.553 95.0337 107.553 96.2642C107.553 97.4419 107.764 98.3296 108.186 98.9272C108.608 99.5161 109.241 99.8105 110.084 99.8105C110.629 99.8105 111.144 99.7227 111.627 99.5469C112.119 99.3623 112.581 99.0942 113.011 98.7427C112.748 96.6509 112.616 95.0864 112.616 94.0493ZM142.595 103.093C142.191 103.093 141.549 102.654 140.67 101.775C139.862 102.162 139.15 102.452 138.535 102.645C137.919 102.847 137.396 102.948 136.966 102.948C134.848 102.948 133.257 102.381 132.193 101.248C131.139 100.114 130.611 98.4175 130.611 96.1587C130.611 94.0405 131.394 92.23 132.958 90.7271C134.522 89.2153 136.395 88.4595 138.574 88.4595C139.409 88.4595 140.376 88.6968 141.475 89.1714C142.802 89.7427 143.465 90.4062 143.465 91.1621C143.465 91.4785 143.364 91.7554 143.162 91.9927C143.074 92.3442 143.004 92.7881 142.951 93.3242C142.907 93.8516 142.885 94.4712 142.885 95.1831C142.885 96.8618 143.004 98.0703 143.241 98.8086C143.268 98.8877 143.47 99.3447 143.848 100.18C144.19 100.936 144.362 101.366 144.362 101.472C144.362 101.938 144.182 102.324 143.821 102.632C143.47 102.939 143.061 103.093 142.595 103.093ZM139.326 94.0493C139.326 93.7681 139.343 93.4473 139.378 93.0869C139.422 92.7178 139.484 92.3091 139.563 91.8608C139.387 91.7729 139.229 91.7114 139.088 91.6763C138.957 91.6323 138.842 91.6104 138.746 91.6104C137.55 91.6104 136.504 92.0806 135.608 93.021C134.711 93.9526 134.263 95.0337 134.263 96.2642C134.263 97.4419 134.474 98.3296 134.896 98.9272C135.318 99.5161 135.951 99.8105 136.794 99.8105C137.339 99.8105 137.854 99.7227 138.337 99.5469C138.829 99.3623 139.291 99.0942 139.721 98.7427C139.458 96.6509 139.326 95.0864 139.326 94.0493ZM152.285 103.054C150.352 103.054 148.73 102.504 147.42 101.406C146.041 100.246 145.351 98.7163 145.351 96.8179C145.351 95.0688 145.97 93.2627 147.209 91.3994C148.616 89.2725 150.25 88.209 152.114 88.209C153.028 88.209 154.096 88.4551 155.317 88.9473C156.803 89.5537 157.545 90.2524 157.545 91.0435C157.545 91.4741 157.396 91.8564 157.097 92.1904C156.781 92.5508 156.372 92.731 155.871 92.731C155.493 92.731 155.036 92.5288 154.5 92.1245C153.973 91.7114 153.177 91.5049 152.114 91.5049C151.437 91.5049 150.703 92.1685 149.912 93.4956C149.156 94.7788 148.778 95.8862 148.778 96.8179C148.778 97.7407 149.112 98.4658 149.78 98.9932C150.413 99.4941 151.248 99.7446 152.285 99.7446C152.874 99.7446 153.595 99.5205 154.447 99.0723C155.3 98.624 155.84 98.3999 156.069 98.3999C156.543 98.3999 156.948 98.5713 157.282 98.9141C157.625 99.2568 157.796 99.6479 157.796 100.087C157.796 100.773 157.049 101.458 155.555 102.144C154.219 102.75 153.129 103.054 152.285 103.054ZM171.467 103.093C171.063 103.093 170.421 102.654 169.542 101.775C168.734 102.162 168.022 102.452 167.407 102.645C166.792 102.847 166.269 102.948 165.838 102.948C163.72 102.948 162.129 102.381 161.065 101.248C160.011 100.114 159.483 98.4175 159.483 96.1587C159.483 94.0405 160.266 92.23 161.83 90.7271C163.395 89.2153 165.267 88.4595 167.446 88.4595C168.281 88.4595 169.248 88.6968 170.347 89.1714C171.674 89.7427 172.337 90.4062 172.337 91.1621C172.337 91.4785 172.236 91.7554 172.034 91.9927C171.946 92.3442 171.876 92.7881 171.823 93.3242C171.779 93.8516 171.757 94.4712 171.757 95.1831C171.757 96.8618 171.876 98.0703 172.113 98.8086C172.14 98.8877 172.342 99.3447 172.72 100.18C173.062 100.936 173.234 101.366 173.234 101.472C173.234 101.938 173.054 102.324 172.693 102.632C172.342 102.939 171.933 103.093 171.467 103.093ZM168.198 94.0493C168.198 93.7681 168.215 93.4473 168.25 93.0869C168.294 92.7178 168.356 92.3091 168.435 91.8608C168.259 91.7729 168.101 91.7114 167.96 91.6763C167.829 91.6323 167.714 91.6104 167.618 91.6104C166.422 91.6104 165.376 92.0806 164.48 93.021C163.583 93.9526 163.135 95.0337 163.135 96.2642C163.135 97.4419 163.346 98.3296 163.768 98.9272C164.19 99.5161 164.823 99.8105 165.667 99.8105C166.211 99.8105 166.726 99.7227 167.209 99.5469C167.701 99.3623 168.163 99.0942 168.593 98.7427C168.33 96.6509 168.198 95.0864 168.198 94.0493ZM184.374 92.5728C183.504 92.5728 182.981 92.208 182.805 91.4785C182.454 91.417 182.093 91.3862 181.724 91.3862C179.606 91.3862 178.547 91.6763 178.547 92.2563C178.547 92.5991 179.184 93.0605 180.458 93.6406C182.199 94.4404 183.376 95.0645 183.992 95.5127C185.266 96.4355 185.903 97.4771 185.903 98.6372C185.903 100.149 185.2 101.296 183.794 102.078C182.66 102.702 181.267 103.014 179.615 103.014C178.446 103.014 177.378 102.834 176.411 102.474C175.093 101.981 174.434 101.256 174.434 100.298C174.434 99.4194 174.957 98.98 176.002 98.98C176.407 98.98 176.991 99.1074 177.756 99.3623C178.521 99.6172 179.109 99.7446 179.522 99.7446C181.307 99.7446 182.203 99.3843 182.212 98.6636C182.212 98.2153 181.592 97.7188 180.353 97.1738C178.542 96.374 177.382 95.7983 176.873 95.4468C175.633 94.5767 175.014 93.5176 175.014 92.2695C175.014 90.5029 175.95 89.312 177.822 88.6968C178.92 88.3364 180.59 88.1562 182.832 88.1562C183.71 88.1562 184.361 88.2705 184.783 88.499C185.363 88.8066 185.653 89.3735 185.653 90.1997C185.653 91.7817 185.227 92.5728 184.374 92.5728ZM199.627 103.093C199.223 103.093 198.582 102.654 197.703 101.775C196.894 102.162 196.182 102.452 195.567 102.645C194.952 102.847 194.429 102.948 193.998 102.948C191.88 102.948 190.289 102.381 189.226 101.248C188.171 100.114 187.644 98.4175 187.644 96.1587C187.644 94.0405 188.426 92.23 189.99 90.7271C191.555 89.2153 193.427 88.4595 195.606 88.4595C196.441 88.4595 197.408 88.6968 198.507 89.1714C199.834 89.7427 200.498 90.4062 200.498 91.1621C200.498 91.4785 200.396 91.7554 200.194 91.9927C200.106 92.3442 200.036 92.7881 199.983 93.3242C199.939 93.8516 199.917 94.4712 199.917 95.1831C199.917 96.8618 200.036 98.0703 200.273 98.8086C200.3 98.8877 200.502 99.3447 200.88 100.18C201.223 100.936 201.394 101.366 201.394 101.472C201.394 101.938 201.214 102.324 200.854 102.632C200.502 102.939 200.093 103.093 199.627 103.093ZM196.358 94.0493C196.358 93.7681 196.375 93.4473 196.411 93.0869C196.455 92.7178 196.516 92.3091 196.595 91.8608C196.419 91.7729 196.261 91.7114 196.121 91.6763C195.989 91.6323 195.875 91.6104 195.778 91.6104C194.583 91.6104 193.537 92.0806 192.64 93.021C191.744 93.9526 191.295 95.0337 191.295 96.2642C191.295 97.4419 191.506 98.3296 191.928 98.9272C192.35 99.5161 192.983 99.8105 193.827 99.8105C194.372 99.8105 194.886 99.7227 195.369 99.5469C195.861 99.3623 196.323 99.0942 196.753 98.7427C196.49 96.6509 196.358 95.0864 196.358 94.0493ZM201.341 83.1201C201.218 84.4209 200.339 85.3789 198.705 85.9941C197.509 86.4512 196.09 86.6797 194.446 86.6797C193.066 86.6797 191.858 86.2886 190.821 85.5063C189.731 84.6978 189.186 83.709 189.186 82.54C189.186 82.1797 189.327 81.8809 189.608 81.6436C189.898 81.3975 190.258 81.2744 190.689 81.2744C191.12 81.2744 191.48 81.3975 191.77 81.6436C192.06 81.8809 192.205 82.1797 192.205 82.54C192.205 82.9707 192.434 83.3442 192.891 83.6606C193.348 83.9858 193.866 84.1484 194.446 84.1484C196.749 84.1484 198.054 83.6694 198.362 82.7114C198.582 82.0259 199.069 81.6831 199.825 81.6831C200.317 81.6831 200.704 81.8193 200.985 82.0918C201.267 82.3643 201.385 82.707 201.341 83.1201Z" fill="black"/>
<path d="M303.121 20.7176C302.962 20.6674 302.798 20.6297 302.631 20.6045C302.011 20.5208 301.412 20.3804 300.834 20.1836C300.226 19.9741 299.615 19.7877 298.999 19.6243C298.567 19.507 298.174 19.3165 297.818 19.0525C297.193 18.5918 296.515 18.3153 295.782 18.2231C295.673 18.2608 295.574 18.3174 295.486 18.3928C295.181 18.6651 294.839 18.8682 294.462 19.0023C294.161 19.1154 293.911 19.2955 293.715 19.5427C293.338 20.0202 293.015 20.5312 292.747 21.0758C292.16 22.2487 291.863 23.4865 291.855 24.7893C291.854 24.8896 291.858 24.9859 291.867 25.0783C291.756 25.1039 291.643 25.1353 291.528 25.1725C290.435 25.1055 289.318 25.3003 288.179 25.7569C287.601 25.9915 287.008 26.1632 286.401 26.2721C285.299 26.4648 284.281 26.8565 283.347 27.4471C282.287 28.1173 281.38 28.9551 280.626 29.9605C279.864 30.9742 279.361 32.1115 279.118 33.3723C278.926 34.3651 278.812 35.3642 278.779 36.3695C278.75 37.3581 278.854 38.3257 279.093 39.2724C279.135 39.44 279.16 39.6075 279.169 39.7751C279.215 40.9815 279.009 42.1544 278.553 43.2938C278.482 43.4697 278.402 43.6393 278.314 43.8027C278.008 44.3766 277.964 44.9379 278.182 45.4867C278.257 45.5579 278.341 45.6144 278.433 45.6563C278.668 45.7694 278.919 45.8469 279.187 45.8888C279.464 45.9307 279.74 45.9788 280.017 46.0333C280.042 46.1171 280.069 46.203 280.098 46.2909C280.375 47.1287 280.737 47.933 281.186 48.7037C281.269 48.8462 281.338 48.9928 281.393 49.1436C281.703 50.0484 282.281 50.6914 283.127 51.0726C283.215 51.1647 283.301 51.2611 283.385 51.3616C283.657 51.6883 284 51.9082 284.415 52.0213C284.809 52.1303 285.211 52.1868 285.622 52.191C286.225 52.1826 286.828 52.1596 287.431 52.1219C287.546 52.1148 287.659 52.1064 287.77 52.0967C287.661 52.5256 287.592 52.9675 287.563 53.4225C287.498 54.4653 287.571 55.4958 287.783 56.514C286.935 57.0414 286.166 57.6718 285.477 58.4052C285.142 58.7613 284.836 59.1425 284.56 59.5488C283.856 60.5918 283.36 61.7291 283.071 62.9607C283.016 63.1827 282.993 63.4089 283.001 63.6393C283.03 64.4664 283.074 65.2938 283.133 66.1212C283.014 66.1682 282.93 66.2666 282.882 66.4165C282.798 66.6846 282.75 66.9653 282.738 67.2585C282.7 68.5235 282.654 69.7886 282.599 71.0536C282.541 72.3019 282.574 73.5523 282.7 74.8048C282.733 75.1106 282.781 75.4122 282.844 75.7096C283.1 76.937 283.404 78.1538 283.755 79.3603C283.837 79.6338 283.946 79.881 284.082 80.1017C284.079 80.1519 284.086 80.1959 284.101 80.2336C284.081 80.3764 284.045 80.5125 283.994 80.6421C283.797 81.1477 283.658 81.6608 283.579 82.1815C283.284 81.5341 282.964 80.8869 282.618 80.2399C282.262 79.5823 281.829 78.9853 281.317 78.4492C280.417 77.515 279.42 76.6898 278.327 75.9735C277.924 75.7096 277.51 75.4688 277.082 75.2509C275.922 74.6645 274.758 74.0843 273.589 73.5104C272.441 72.9491 271.306 72.3648 270.183 71.7574C269.379 71.3259 268.587 70.8714 267.808 70.3939C267.037 69.9289 266.256 69.4828 265.465 69.0555C264.38 68.4649 263.236 68.0146 262.034 67.7046C260.681 67.3569 259.305 67.1412 257.906 67.0574C256.641 66.982 255.388 67.0721 254.148 67.3276C252.967 67.5748 251.901 68.0732 250.95 68.8231C250.481 69.1917 250.028 69.5833 249.593 69.998C248.964 70.6012 248.338 71.2065 247.714 71.8139C246.788 72.7146 245.997 73.7199 245.339 74.8299C245.147 75.1547 245.059 75.4898 245.075 75.8353C244.505 76.5238 243.948 77.2254 243.404 77.9402C242.625 78.9665 241.877 79.9383 241.16 80.8557C240.39 81.8401 239.55 82.7595 238.641 83.6141C238.402 83.8361 238.165 84.0581 237.931 84.2801C237.24 84.9294 236.63 85.652 236.102 86.4479C235.394 87.5161 234.678 88.58 233.953 89.6398C233.262 90.6535 232.506 91.661 231.685 92.6621C230.864 93.6717 230.022 94.6644 229.159 95.6404C228.275 96.6416 227.389 97.6448 226.501 98.6502C226.17 99.0272 225.819 99.3832 225.446 99.7183C224.817 100.292 224.162 100.837 223.479 101.352C222.956 101.75 222.43 102.144 221.902 102.533C221.391 102.91 220.909 103.317 220.457 103.752C219.502 104.67 218.499 105.53 217.447 106.335C217.468 106.318 217.489 106.301 217.51 106.284C217.531 106.268 217.552 106.251 217.573 106.234C216.949 106.703 216.322 107.173 215.694 107.642C215.568 107.738 215.43 107.807 215.279 107.849C214.375 108.1 213.457 108.306 212.527 108.465C211.254 108.683 210.068 109.131 208.971 109.809C208.137 110.333 207.274 110.8 206.382 111.211C205.888 111.441 205.473 111.764 205.138 112.178C204.774 112.626 204.667 113.129 204.818 113.686C205.119 114.8 205.856 115.416 207.029 115.534C207.214 115.55 207.398 115.548 207.582 115.527C208.567 115.414 209.549 115.307 210.529 115.207C210.634 115.249 210.732 115.303 210.824 115.37C211.036 115.521 211.263 115.647 211.503 115.747C211.149 115.877 210.784 115.955 210.41 115.98C207.666 116.168 204.998 116.675 202.405 117.5C202.359 117.546 202.317 117.594 202.279 117.645C202.237 117.691 202.202 117.739 202.172 117.789C202.139 117.844 202.107 117.898 202.078 117.953C201.965 118.38 201.965 118.809 202.078 119.241C202.451 120.673 203.111 121.957 204.057 123.092C205.029 124.257 206.235 125.044 207.676 125.455C207.714 125.463 207.75 125.463 207.783 125.455C211.49 124.848 215.227 124.462 218.993 124.299C220.044 124.253 221.083 124.337 222.109 124.55C224.078 124.961 226.003 124.915 227.884 124.412C228.231 124.316 228.462 124.11 228.575 123.796C229.17 122.116 229.452 120.361 229.423 118.531C229.486 118.413 229.555 118.3 229.631 118.191C229.836 117.894 230.039 117.595 230.24 117.293C230.307 117.195 230.374 117.103 230.441 117.016C231.371 116.631 232.299 116.214 233.225 115.766C233.807 115.481 234.374 115.182 234.927 114.868C237.428 113.431 239.998 112.122 242.637 110.94C245.326 109.738 247.854 108.293 250.221 106.605C250.606 106.328 250.931 106 251.195 105.618C252.788 103.332 253.708 100.875 253.953 98.248C255.312 101.02 256.887 103.663 258.679 106.178C259.064 106.714 259.508 107.185 260.011 107.591C262.776 109.839 265.771 111.732 268.996 113.272C269.353 113.705 269.698 114.147 270.033 114.597C270.19 114.811 270.349 115.023 270.51 115.232C270.491 115.285 270.472 115.337 270.454 115.389C270.454 115.418 270.456 115.446 270.46 115.471C270.464 115.5 270.47 115.527 270.479 115.552C270.487 115.578 270.495 115.603 270.504 115.628C270.516 115.653 270.529 115.678 270.541 115.703C270.554 115.724 270.569 115.747 270.585 115.772C270.602 115.793 270.621 115.812 270.642 115.829C270.659 115.85 270.678 115.869 270.699 115.885C270.724 115.902 270.747 115.915 270.768 115.923C270.818 115.948 270.868 115.971 270.918 115.992C270.944 116.001 270.971 116.005 271 116.005C271.039 116.008 271.079 116.008 271.12 116.005C272.078 117.19 273.102 118.313 274.192 119.373C275.001 120.16 275.815 120.939 276.636 121.71C278.907 123.842 281.592 124.973 284.692 125.103C285.027 125.12 285.364 125.118 285.703 125.097C288.434 124.938 291.055 124.328 293.564 123.268C296.023 122.234 298.176 120.766 300.023 118.864C300.463 118.411 300.712 118.141 300.771 118.053C301.914 116.784 302.591 115.307 302.8 113.623C302.926 112.601 303.06 111.581 303.202 110.563C303.455 108.754 303.309 107.02 302.763 105.361C302.942 105.17 303.118 104.976 303.29 104.776C303.345 104.767 303.398 104.746 303.447 104.714C303.473 104.701 303.496 104.686 303.517 104.67C303.538 104.653 303.556 104.634 303.573 104.613C303.594 104.596 303.613 104.577 303.63 104.557C303.646 104.536 303.663 104.513 303.68 104.487C303.693 104.458 303.703 104.427 303.711 104.393C303.728 104.344 303.738 104.294 303.743 104.242C305.349 102.304 306.682 100.168 307.739 97.8333C308.937 95.1901 310.081 92.5197 311.17 89.8221C312.685 86.0683 313.477 82.2166 313.545 78.2669C313.786 78.0522 313.998 77.8051 314.179 77.5255C314.64 76.8176 315.038 76.0761 315.373 75.3012C315.44 75.1504 315.591 74.7462 315.826 74.0885C316.831 71.3029 317.187 68.444 316.894 65.5117C316.58 62.3575 316.201 59.2284 315.757 56.1244C315.74 56.1034 315.721 56.0825 315.7 56.0615L315.694 56.0553C315.574 55.4553 315.421 54.8605 315.235 54.2708C315.114 53.8896 315.03 53.5 314.984 53.1021C314.841 51.8705 314.76 50.6306 314.739 49.3823C314.73 49.0598 314.722 48.7351 314.714 48.4084C314.672 47.2942 314.477 46.2092 314.129 45.1536C313.74 43.9765 313.459 42.7743 313.287 41.547C313.41 41.2857 313.383 41.0574 313.206 40.8621C313.207 40.6904 313.191 40.5145 313.155 40.3343C313.009 39.597 312.648 38.952 312.075 38.399C311.576 37.9215 311.147 37.3937 310.786 36.8156C310.116 35.7349 309.32 34.7526 308.399 33.8687C308.051 33.5336 307.745 33.1692 307.481 32.7754C307.314 32.5157 307.144 32.256 306.972 31.9963C306.482 31.2632 306.17 30.461 306.036 29.5897C306.074 29.3761 306.105 29.1625 306.13 28.9488C306.197 28.3038 306.252 27.6587 306.294 27.0136C306.386 25.6857 306.195 24.4018 305.722 23.1619C305.244 21.9261 304.377 21.1114 303.121 20.7176ZM302.781 21.9366C303.05 22.0246 303.292 22.1607 303.51 22.345C304.377 23.0823 304.861 24.0373 304.962 25.2102C305.047 25.9309 305.066 26.6535 305.018 27.378C304.989 27.8472 304.932 28.3121 304.849 28.7729C304.731 29.3929 304.761 30.0107 304.937 30.6265C305.004 30.8569 305.094 31.0768 305.207 31.2863C305.441 31.7093 305.663 32.1429 305.873 32.5869C306.141 33.1524 306.495 33.6509 306.935 34.0823C307.284 34.4237 307.619 34.7756 307.94 35.138C307.943 35.1824 307.958 35.2243 307.984 35.2636C308.382 35.8375 308.558 36.4742 308.512 37.1738C308.449 38.1623 308.426 39.1446 308.443 40.1207C308.452 40.2694 308.448 40.4181 308.43 40.5668C308.363 41.1658 308.212 41.7439 307.978 42.301C307.747 42.8482 307.5 43.3865 307.236 43.9158C307.239 43.9127 307.241 43.9085 307.243 43.9032C307.251 43.8865 307.257 43.8697 307.261 43.853C307.228 43.9326 307.192 44.0122 307.155 44.0917C307.117 44.1839 307.096 44.2781 307.092 44.3745C307.079 44.7934 307.134 45.2165 307.255 45.6437C307.372 46.0584 307.532 46.4543 307.733 46.8313C307.729 46.9444 307.724 47.0575 307.72 47.1706C307.712 47.4135 307.71 47.6544 307.714 47.8932C307.714 48.1278 307.674 48.354 307.594 48.5718C307.548 48.6011 307.502 48.6304 307.456 48.6597C307.352 48.731 307.251 48.8105 307.155 48.8985C307.025 49.0158 306.895 49.1373 306.765 49.263C306.179 49.4473 305.85 49.8494 305.779 50.4694C305.728 50.9427 305.887 51.3239 306.256 51.6129C307.194 52.346 308.168 53.0309 309.178 53.6676C310.246 54.3462 311.297 55.0499 312.332 55.7788C312.449 55.8458 312.573 55.873 312.703 55.8605C312.854 55.8479 312.984 55.7893 313.092 55.6845C313.226 55.5421 313.289 55.3725 313.281 55.1756C313.277 55.1588 313.273 55.1421 313.268 55.1253C313.26 55.0918 313.25 55.0604 313.237 55.0311C313.229 55.0018 313.218 54.9724 313.206 54.9431C313.013 54.7002 312.78 54.4907 312.508 54.3148C311.628 53.7451 310.745 53.1775 309.856 52.612C308.914 52.0088 307.988 51.3804 307.079 50.727C307.067 50.7144 307.056 50.6997 307.048 50.683C307.039 50.6704 307.035 50.6558 307.035 50.639C307.035 50.6223 307.035 50.6055 307.035 50.5887C307.039 50.572 307.044 50.5573 307.048 50.5448C307.052 50.5238 307.062 50.505 307.079 50.4882C307.088 50.484 307.098 50.4798 307.111 50.4756C307.173 50.4547 307.232 50.4254 307.287 50.3877C307.597 50.1824 307.9 49.9667 308.198 49.7405C308.395 49.5897 308.541 49.4012 308.638 49.175C308.918 48.5215 309.04 47.8324 309.002 47.1078C308.998 46.9737 308.975 46.846 308.933 46.7245C308.681 46.0249 308.472 45.3149 308.304 44.5944C308.33 44.5316 308.355 44.4708 308.38 44.4122C308.401 44.3597 308.422 44.3073 308.443 44.2551C308.448 44.2513 308.452 44.2451 308.455 44.2363C308.456 44.2334 308.456 44.2292 308.455 44.2237C308.458 44.2236 308.46 44.2215 308.462 44.2174C308.854 43.5898 309.164 42.9238 309.392 42.2193C309.605 41.5658 309.689 40.8977 309.643 40.2149C309.601 39.5405 309.637 38.8661 309.75 38.1917C309.784 37.9873 309.805 37.7842 309.812 37.5822C310.49 38.4903 311.186 39.3825 311.899 40.2589C311.899 40.4139 311.903 40.5689 311.911 40.7239C311.915 40.883 311.932 41.0401 311.961 41.1951C311.945 41.2747 311.93 41.3543 311.917 41.4339C311.896 41.5847 311.93 41.7229 312.018 41.8486C312.055 41.9018 312.097 41.9479 312.144 41.9868C312.263 43.0071 312.485 44.0062 312.81 44.984C313.22 46.2113 313.434 47.4764 313.451 48.7791C313.449 48.7733 313.447 48.767 313.444 48.7603C313.556 49.6719 313.598 50.5872 313.57 51.5061C313.557 51.9795 313.599 52.4486 313.696 52.9136C313.913 53.9943 314.161 55.0709 314.437 56.1432C314.517 56.4532 314.573 56.7674 314.607 57.0857C314.64 57.4264 314.709 57.751 314.814 58.0597C314.944 59.8587 315.192 61.6558 315.555 63.4508C315.899 65.1473 316.016 66.8522 315.907 68.5654C315.677 72.1888 314.414 75.2824 312.118 77.846C312.106 77.8669 312.091 77.8899 312.075 77.9151C312.062 77.936 312.051 77.9591 312.043 77.9842C312.031 78.0093 312.02 78.0366 312.012 78.0659C312.003 78.0952 311.997 78.1266 311.993 78.1601C311.993 78.2272 311.999 78.2921 312.012 78.3549C312.033 78.4806 312.087 78.5874 312.175 78.6754C312.25 78.7508 312.34 78.8031 312.445 78.8324C312.264 80.6133 311.931 82.3768 311.446 84.123C310.42 87.8302 309.186 91.4767 307.745 95.0624C306.524 98.0971 304.901 100.885 302.876 103.426C302.814 103.41 302.751 103.396 302.687 103.382C300.953 102.619 299.212 101.867 297.466 101.126C295.225 100.175 293.025 99.1361 290.868 98.0093C290.185 97.6532 289.524 97.2657 288.883 96.8468C286.933 95.5643 285.1 94.1442 283.385 92.5867C283.59 92.1809 283.802 91.7787 284.019 91.3803C284.589 90.3331 284.859 89.2209 284.83 88.0439C284.826 87.8805 284.84 87.7192 284.874 87.56C285.004 86.9516 285.06 86.3442 285.043 85.7379C284.96 85.5628 284.922 85.3575 284.93 85.1221C284.933 85.0357 284.944 84.9435 284.962 84.8456C284.936 84.662 284.902 84.4777 284.861 84.2927C284.873 84.2718 284.884 84.2487 284.893 84.2236C284.964 84.0099 284.932 83.8131 284.798 83.6329C284.778 83.6056 284.757 83.5784 284.736 83.5513C284.7 83.0321 284.781 82.519 284.981 82.0118C285.076 81.7668 285.149 81.5176 285.201 81.2641C285.294 81.3356 285.388 81.4026 285.483 81.4652L285.728 80.1331C285.631 80.0654 285.535 79.9963 285.439 79.9258C285.406 79.781 285.354 79.6407 285.282 79.5048C285.056 79.0733 284.865 78.6272 284.71 78.1664C284.304 76.9558 284.047 75.7159 283.938 74.4467C283.829 73.1858 283.804 71.9228 283.862 70.6578C283.915 69.6003 283.966 68.5405 284.013 67.4784C284.083 67.4543 284.154 67.4187 284.227 67.3716C284.323 67.3088 284.373 67.2208 284.377 67.1077C284.419 66.2322 284.394 65.3567 284.302 64.4812C284.185 63.3712 284.392 62.3072 284.924 61.2893C285.138 60.8788 285.389 60.4976 285.678 60.1457C286.467 59.1902 287.344 58.3336 288.311 57.5758C288.467 57.6338 288.654 57.6087 288.87 57.5004C289 57.4376 289.069 57.3371 289.077 57.1988C289.123 56.6962 289.094 56.1914 288.989 55.6845C288.742 54.4404 288.767 53.1963 289.065 51.9522C289.07 51.9321 289.074 51.9112 289.077 51.8894C289.841 51.7232 290.582 51.4719 291.302 51.1354C291.444 51.0684 291.572 50.9804 291.685 50.8715C292.037 50.5238 292.018 50.1971 291.628 49.8913C291.532 49.8201 291.434 49.8054 291.333 49.8473C290.386 50.2327 289.406 50.5196 288.393 50.7081C288.053 50.7668 287.714 50.8275 287.375 50.8903C286.311 51.0788 285.299 50.9741 284.34 50.5762C284.289 50.5133 284.241 50.4505 284.195 50.3877C284.053 50.1992 283.873 50.0567 283.655 49.9604C283.429 49.8557 283.228 49.7195 283.052 49.552C282.997 49.4221 282.936 49.2965 282.869 49.175C282.74 48.9278 282.61 48.6828 282.48 48.4398C282.363 48.2304 282.287 48.1005 282.254 48.0503C282.27 48.088 282.245 48.0482 282.178 47.9309C281.789 47.2607 281.491 46.5527 281.286 45.8071C281.232 45.6102 281.133 45.4406 280.991 45.2981C280.563 44.8709 280.031 44.651 279.395 44.6384C279.466 44.4499 279.537 44.2593 279.608 44.0666C280.057 42.8728 280.352 41.6391 280.494 40.3657C280.545 39.8798 280.494 39.4044 280.344 38.9394C280.147 38.3404 280.044 37.7204 280.036 37.0795C280.019 35.8228 280.145 34.5829 280.413 33.3598C280.618 32.4047 281.01 31.5397 281.588 30.7647C282.317 29.7803 283.211 28.9824 284.271 28.3708C284.949 27.977 285.676 27.711 286.451 27.5728C286.924 27.489 287.381 27.3571 287.821 27.1769C288.881 26.7455 289.976 26.5004 291.107 26.4418C291.645 26.4135 292.183 26.3548 292.722 26.2658C292.727 26.2684 292.731 26.2705 292.734 26.2721C293.036 26.4187 293.354 26.4962 293.689 26.5046C294.167 26.5172 294.638 26.5842 295.103 26.7057C296.402 27.045 297.629 27.5623 298.785 28.2577C299.066 28.4252 299.303 28.6389 299.495 28.8986C300.036 29.6023 300.559 30.3186 301.066 31.0475C301.678 31.9272 302.094 32.878 302.316 33.9001C302.057 34.6416 301.743 35.3579 301.374 36.049C301.332 36.1253 301.293 36.2007 301.255 36.2752C301.246 36.2561 301.238 36.2351 301.229 36.2124C301.222 36.1929 301.214 36.172 301.204 36.1496C301.193 36.1736 301.18 36.1966 301.167 36.2187C300.882 36.6837 300.624 37.1591 300.394 37.645C300.339 37.6827 300.283 37.7183 300.224 37.7518C300.165 37.7853 300.107 37.8168 300.048 37.8461C299.998 37.8712 299.946 37.8964 299.891 37.9215C299.74 37.9215 299.589 37.9236 299.439 37.9278C299.296 37.9278 299.166 37.9571 299.049 38.0157C298.963 38.0611 298.877 38.1009 298.791 38.1351V38.1414C297.983 38.1582 297.279 38.4388 296.68 38.9834C295.168 40.3741 294.001 41.9994 293.18 43.8593C292.297 45.8532 292.399 47.801 293.488 49.7028C293.987 52.6811 294.416 55.6678 294.776 58.6629C294.919 59.8651 295.29 60.9877 295.889 62.0307C297.526 64.9001 299.835 67.0993 302.813 68.6283C302.846 68.645 302.88 68.6618 302.913 68.6785C302.947 68.6911 302.98 68.6995 303.014 68.7037C303.047 68.7121 303.083 68.7162 303.121 68.7162C303.146 68.7162 303.173 68.7162 303.202 68.7162C303.228 68.7079 303.255 68.6995 303.284 68.6911C303.334 68.6743 303.385 68.6513 303.435 68.622C303.481 68.5969 303.525 68.5654 303.567 68.5277C303.605 68.49 303.64 68.4481 303.674 68.4021C303.69 68.3727 303.703 68.3434 303.711 68.3141C303.732 68.2513 303.743 68.1863 303.743 68.1193C303.747 68.0523 303.741 67.9874 303.724 67.9245C303.711 67.8743 303.695 67.824 303.674 67.7737C302.538 66.9988 301.407 66.205 300.281 65.3923C299.062 64.5085 298.061 63.4298 297.277 62.1564C296.917 61.57 296.71 61.1972 296.655 61.038C296.483 60.6191 296.36 60.1834 296.284 59.731C296.004 58.022 295.736 56.315 295.48 54.6101C295.22 52.8759 294.965 51.1438 294.714 49.4137C294.575 48.8859 294.414 48.3707 294.23 47.868C293.66 46.314 293.846 44.8039 294.789 43.3377C295.618 42.0434 296.592 40.8684 297.711 39.8128C297.74 39.7918 297.769 39.7709 297.799 39.7499C297.887 39.6955 297.975 39.6431 298.063 39.5929C298.155 39.5384 298.249 39.4881 298.345 39.4421C298.37 39.4379 298.396 39.4337 298.421 39.4295C298.496 39.4211 298.572 39.4148 298.647 39.4106C298.718 39.4065 298.789 39.4002 298.861 39.3918C298.919 39.3876 298.98 39.3834 299.043 39.3792C299.076 39.3667 299.108 39.3562 299.137 39.3478C299.2 39.3227 299.265 39.2954 299.332 39.2661C299.395 39.2368 299.46 39.2075 299.527 39.1782C299.602 39.1782 299.68 39.1782 299.759 39.1782C299.835 39.1782 299.91 39.1761 299.985 39.1719C300.048 39.1677 300.111 39.1614 300.174 39.153C300.589 39.0232 300.913 38.7907 301.148 38.4556C301.258 38.2999 301.369 38.1428 301.481 37.9843C301.738 38.0223 301.943 37.8526 302.097 37.4754C302.595 36.5622 303.022 35.6155 303.378 34.6353C303.429 34.4887 303.464 34.3379 303.485 34.1829C303.569 33.521 303.452 32.8906 303.133 32.2916C302.534 31.1522 301.883 30.0421 301.179 28.9614C301.003 28.6933 300.802 28.4462 300.576 28.22C299.742 27.378 298.771 26.7203 297.66 26.247C296.355 25.6925 294.997 25.349 293.589 25.2165C293.551 25.1399 293.486 25.0917 293.394 25.072C293.32 25.0553 293.245 25.0407 293.168 25.028C293.044 24.262 293.127 23.5059 293.419 22.7597C293.75 21.9261 294.144 21.124 294.6 20.3532C294.617 20.3406 294.634 20.3323 294.651 20.3281C294.906 20.2192 295.16 20.1019 295.411 19.9762C295.641 19.8631 295.845 19.7081 296.021 19.5112C296.247 19.6243 296.469 19.7521 296.687 19.8945C296.925 20.0495 297.177 20.1815 297.441 20.2904C298.412 20.6883 299.397 21.059 300.394 21.4025C300.549 21.4528 300.708 21.4884 300.871 21.5093C301.212 21.5509 301.547 21.6095 301.877 21.6853C302.183 21.7547 302.485 21.8385 302.781 21.9366ZM304.968 25.2417C304.968 25.2463 304.968 25.2505 304.968 25.2542V25.2417ZM306.734 49.2881H306.727L306.734 49.2818H306.74L306.734 49.2881ZM246.124 76.4636C246.217 76.3421 246.288 76.2123 246.338 76.0741C246.409 75.8931 246.432 75.7381 246.407 75.6091C246.531 75.3718 246.661 75.1372 246.797 74.9053C247.014 74.52 247.268 74.1597 247.557 73.8246C247.549 73.8372 247.54 73.8477 247.532 73.856C247.529 73.8597 247.527 73.8618 247.526 73.8623C247.552 73.8345 247.577 73.8052 247.601 73.7743C248.397 72.8193 249.235 71.971 250.114 71.2296C250.613 70.8065 251.111 70.3855 251.61 69.9666C252.732 69.0157 254.027 68.4775 255.493 68.3518C255.732 68.3309 255.797 68.3267 255.688 68.3392C255.692 68.3392 255.698 68.3392 255.706 68.3392C256.871 68.268 258.031 68.3036 259.187 68.446C260.444 68.5968 261.674 68.8733 262.876 69.2755C263.471 69.4765 264.044 69.7258 264.597 70.0232C265.72 70.6348 266.828 71.2757 267.921 71.9459C268.152 72.0883 268.388 72.2244 268.631 72.3543C269.712 72.9324 270.799 73.5042 271.892 74.0697C273.015 74.6519 274.15 75.2049 275.298 75.7285C276.442 76.2479 277.518 76.8804 278.528 77.626C279.051 78.0156 279.543 78.4429 280.004 78.9078C280.885 79.8015 281.568 80.8361 282.053 82.0118C281.836 82.4144 281.713 82.848 281.682 83.3125C281.577 84.9503 281.28 86.5526 280.79 88.1193C280.668 88.5088 280.524 88.8858 280.356 89.2503C280.004 90.0137 279.679 90.7802 279.382 91.55C278.792 91.0744 278.206 90.5927 277.623 90.1048C275.956 88.7057 274.146 87.4993 272.194 86.4856C271.591 86.1714 271.218 85.9787 271.076 85.9075C270.929 85.7902 270.78 85.6792 270.629 85.5745C267.333 83.2957 263.732 81.8778 259.828 81.3207C257.91 81.0484 255.998 80.7845 254.092 80.529C251.792 80.2232 249.783 80.7573 248.066 82.1312C247.718 82.4077 247.438 82.7323 247.224 83.1051C245.289 86.5023 242.924 89.5519 240.13 92.2537C240.13 92.283 240.13 92.3103 240.13 92.3354C240.131 92.3482 240.131 92.3608 240.13 92.3731C239.509 93.0437 238.914 93.7391 238.346 94.4592C235.891 97.5715 233.528 100.759 231.258 104.022C229.063 107.173 226.181 109.47 222.612 110.915C219.31 112.251 216.123 113.629 213.049 115.05C212.934 114.832 212.709 114.71 212.376 114.685C212.238 114.677 212.115 114.631 212.006 114.547C211.386 114.078 210.699 113.883 209.945 113.963C209.312 114.03 208.686 114.13 208.066 114.264C207.207 114.453 206.527 114.227 206.024 113.586C206.02 113.561 206.013 113.535 206.005 113.51C205.997 113.46 205.99 113.408 205.986 113.353C205.982 113.299 205.978 113.244 205.974 113.19C205.995 113.144 206.016 113.098 206.037 113.052C206.057 113.006 206.08 112.962 206.106 112.92C206.127 112.886 206.15 112.855 206.175 112.825C206.221 112.784 206.271 112.748 206.326 112.719C207.398 112.178 208.447 111.598 209.474 110.978C209.888 110.727 210.32 110.507 210.768 110.318C211.874 109.849 213.028 109.56 214.23 109.451C214.984 109.38 215.665 109.131 216.272 108.704C217.269 108.008 218.245 107.281 219.2 106.523C219.699 106.129 220.18 105.715 220.645 105.279C221.563 104.42 222.524 103.612 223.529 102.854C223.802 102.644 224.078 102.445 224.359 102.257C225.368 101.57 226.279 100.774 227.092 99.8691C227.951 98.9099 228.81 97.9485 229.668 96.9851C230.682 95.8499 231.668 94.6875 232.628 93.4978C233.432 92.5009 234.196 91.4767 234.921 90.4252C235.65 89.378 236.362 88.3224 237.057 87.2584C237.581 86.4584 238.197 85.7421 238.905 85.1095C239.839 84.2717 240.704 83.3669 241.5 82.3951C242.279 81.44 243.052 80.4787 243.818 79.5111C244.606 78.5099 245.375 77.4941 246.124 76.4636ZM237.164 98.0218C238.212 96.4594 239.391 95.01 240.702 93.6737C241.083 93.2846 241.469 92.8992 241.858 92.5176C241.864 92.3845 241.87 92.2525 241.877 92.1218C244.217 90.0472 246.1 87.6051 247.526 84.7954C247.974 83.9157 248.613 83.2057 249.442 82.6653C250.485 81.9867 251.652 81.6935 252.942 81.7856C253.943 81.8568 254.944 81.926 255.945 81.993C258.32 82.1563 260.649 82.571 262.932 83.2371C263.548 83.4172 263.906 83.5324 264.007 83.5827C264.112 83.6246 264.218 83.6706 264.327 83.7209C267.159 84.9524 269.84 86.3976 272.37 88.0564C273.061 88.5088 273.746 88.9675 274.425 89.4325C275.974 90.4933 277.49 91.6012 278.974 92.7564V92.7627C278.978 92.792 278.984 92.8192 278.993 92.8443C279.001 92.8695 279.009 92.8967 279.018 92.926C279.03 92.947 279.043 92.97 279.055 92.9951C279.068 93.0161 279.083 93.0391 279.099 93.0643C279.116 93.0852 279.135 93.1041 279.156 93.1208C279.173 93.1418 279.192 93.1606 279.213 93.1774C279.238 93.1941 279.261 93.2088 279.282 93.2213C279.307 93.2339 279.332 93.2465 279.357 93.259C279.382 93.2674 279.407 93.2758 279.432 93.2842C279.458 93.2926 279.485 93.2988 279.514 93.303C279.539 93.3072 279.566 93.3093 279.596 93.3093C279.622 93.3093 279.645 93.3072 279.665 93.303C280.191 93.7195 280.71 94.1405 281.223 94.566C281.198 94.6336 281.177 94.7027 281.16 94.7733C280.968 95.5525 280.729 96.3232 280.444 97.0856C280.094 98.0216 279.729 98.9515 279.351 99.8754C279.344 99.89 279.338 99.9047 279.332 99.9194L279.326 99.9383C279.328 99.9348 279.33 99.9306 279.332 99.9257C278.863 101.232 278.308 102.501 277.667 103.733C276.523 105.937 275.271 108.079 273.909 110.161C273.553 110.702 273.155 111.211 272.716 111.688C272.041 112.424 271.481 113.211 271.038 114.051C270.882 113.845 270.727 113.638 270.573 113.429C270.585 113.408 270.595 113.387 270.604 113.366C270.625 113.316 270.644 113.263 270.661 113.209C270.661 113.15 270.657 113.094 270.648 113.039C270.64 112.985 270.623 112.93 270.598 112.876C270.581 112.83 270.56 112.786 270.535 112.744C270.506 112.698 270.474 112.652 270.441 112.606C268.791 111.759 267.128 110.924 265.452 110.098C263.01 108.892 261.016 107.2 259.47 105.021C257.372 102.064 255.612 98.9162 254.192 95.5776C254.184 95.5231 254.175 95.4708 254.167 95.4205C254.159 95.3661 254.148 95.3116 254.136 95.2572C254.119 95.2069 254.098 95.1587 254.073 95.1126C254.043 95.0666 254.012 95.0226 253.979 94.9807C253.962 94.9604 253.941 94.9436 253.916 94.9304C253.889 94.6746 253.855 94.417 253.815 94.1576C253.798 94.1366 253.78 94.1178 253.759 94.101C253.717 94.0675 253.673 94.0361 253.627 94.0068C253.581 93.9816 253.532 93.9607 253.482 93.9439C253.428 93.9314 253.373 93.9209 253.319 93.9125C253.289 93.9125 253.262 93.9146 253.237 93.9188C253.153 93.9314 253.076 93.9607 253.005 94.0068C252.963 94.0361 252.923 94.0696 252.885 94.1073C252.848 94.145 252.812 94.1848 252.778 94.2267C252.678 94.7754 252.644 95.3367 252.678 95.9106C252.845 98.4617 252.364 100.87 251.233 103.136C250.081 105.449 248.254 107.022 245.754 107.855C245.224 108.081 244.673 108.32 244.101 108.572C241.613 109.673 239.211 110.917 236.894 112.304C234.784 113.562 232.631 114.729 230.435 115.804C230.425 115.8 230.414 115.796 230.403 115.791C230.353 115.77 230.303 115.758 230.253 115.753C230.198 115.745 230.144 115.745 230.089 115.753C230.039 115.758 229.987 115.768 229.932 115.785C229.664 115.965 229.425 116.181 229.216 116.432C228.466 117.337 228.106 118.363 228.135 119.511C228.164 120.734 228.03 121.93 227.733 123.099C227.088 123.53 226.363 123.702 225.559 123.614C224.189 123.459 222.817 123.327 221.443 123.218C217.409 122.896 213.417 123.191 209.467 124.104C209.082 124.196 208.709 124.194 208.349 124.098C205.471 123.352 203.77 121.471 203.247 118.455C204.528 118.083 205.831 117.884 207.155 117.858C208.504 117.833 209.796 117.574 211.032 117.079C212.95 116.313 214.854 115.594 216.743 114.924C220.534 113.584 224.103 111.824 227.45 109.646C228.447 108.997 229.331 108.224 230.102 107.327C232.636 104.366 234.99 101.264 237.164 98.0218ZM281.487 93.2151C281.108 92.9222 280.729 92.6247 280.35 92.3228C280.546 91.936 280.743 91.5464 280.94 91.1541C281.632 89.7634 282.13 88.3036 282.436 86.7746C282.65 85.7185 282.838 84.6608 283.001 83.6015C283.138 83.7646 283.283 83.9196 283.435 84.0665C283.418 84.0497 283.448 84.0686 283.523 84.123C283.555 84.145 283.584 84.168 283.611 84.1922C283.813 85.0031 283.836 85.8158 283.68 86.6301C283.617 86.961 283.596 87.2919 283.617 87.6229C283.646 88.0543 283.617 88.4795 283.529 88.8984C283.269 90.1467 282.781 91.3028 282.065 92.3668C281.977 92.5009 281.881 92.6265 281.776 92.7438C281.641 92.9018 281.544 93.0589 281.487 93.2151ZM279.388 103.017C279.748 102.168 280.098 101.315 280.438 100.46C280.445 100.447 280.452 100.435 280.457 100.422C281.06 98.9154 281.636 97.3991 282.185 95.8729C282.239 95.7305 282.281 95.586 282.31 95.4394C282.322 95.3757 282.333 95.3107 282.342 95.2446C282.827 95.8199 283.227 96.4504 283.542 97.1359C283.827 97.7517 284.13 98.4114 284.453 99.1151C284.47 99.1403 284.486 99.1654 284.503 99.1905C284.549 99.2617 284.61 99.3225 284.685 99.3728C284.71 99.3853 284.736 99.3958 284.761 99.4042C284.815 99.4251 284.87 99.4419 284.924 99.4544C285.041 99.4754 285.15 99.4628 285.251 99.4167C285.297 99.3874 285.343 99.356 285.389 99.3225C285.431 99.289 285.469 99.2513 285.502 99.2094C285.573 99.1256 285.617 99.0272 285.634 98.9141C285.638 98.8889 285.638 98.8638 285.634 98.8387C285.571 98.5371 285.471 98.2459 285.333 97.9653C285.077 97.4584 284.945 97.1903 284.937 97.161C284.891 97.0605 284.845 96.9599 284.798 96.8594C284.564 96.3651 284.304 95.8855 284.019 95.4205C283.676 94.8718 283.29 94.3565 282.863 93.8748C282.842 93.8581 282.819 93.8413 282.794 93.8245C282.773 93.8078 282.75 93.7931 282.725 93.7806C282.716 93.7754 282.708 93.7691 282.7 93.7617C282.728 93.7323 282.755 93.7008 282.781 93.6675C284.086 94.9429 285.517 96.0844 287.073 97.0919C288.112 97.7621 289.165 98.403 290.234 99.0146C292.106 100.087 294.031 101.055 296.008 101.918C298.012 102.795 300.027 103.631 302.053 104.425C302.013 104.47 301.974 104.516 301.933 104.563C301.895 104.581 301.857 104.602 301.82 104.626C301.774 104.655 301.73 104.688 301.688 104.726C301.65 104.764 301.619 104.806 301.594 104.852C301.565 104.902 301.539 104.952 301.518 105.003C301.52 105.011 301.522 105.02 301.525 105.028C301.501 105.053 301.478 105.078 301.456 105.103C301.426 105.183 301.41 105.262 301.405 105.342C301.405 105.422 301.422 105.501 301.456 105.581C301.485 105.66 301.529 105.729 301.588 105.788C301.611 105.807 301.636 105.826 301.663 105.845C301.717 106.2 301.766 106.558 301.808 106.919C301.954 108.26 302 109.606 301.946 110.959C301.87 112.836 301.378 114.583 300.469 116.2C300.18 116.711 300.017 116.991 299.979 117.042C299.724 117.377 299.447 117.695 299.15 117.997C296.331 120.858 292.958 122.718 289.033 123.576C286.29 124.175 283.636 123.951 281.072 122.904C279.682 122.334 278.408 121.557 277.252 120.573C275.28 118.903 273.476 117.067 271.842 115.062C271.928 114.892 272.035 114.731 272.163 114.578C273.738 112.677 275.185 110.672 276.504 108.565C277.614 106.789 278.576 104.94 279.388 103.017ZM220.004 113.473C219.976 113.487 219.944 113.5 219.91 113.51C219.932 113.503 219.95 113.495 219.967 113.485L220.004 113.473ZM272.301 112.379C272.284 112.406 272.263 112.434 272.238 112.461C272.246 112.453 272.253 112.445 272.257 112.436L272.301 112.379ZM259.332 82.4328C259.307 82.4286 259.282 82.4244 259.257 82.4202L259.219 82.414C259.257 82.4223 259.294 82.4286 259.332 82.4328Z" fill="black"/>
<path d="M280.438 100.46C280.098 101.315 279.748 102.168 279.388 103.017C278.576 104.94 277.614 106.789 276.504 108.565C275.185 110.672 273.738 112.677 272.162 114.579C272.035 114.731 271.928 114.892 271.842 115.062C273.476 117.067 275.28 118.904 277.252 120.573C278.408 121.557 279.682 122.334 281.072 122.904C283.636 123.951 286.29 124.175 289.033 123.576C292.958 122.718 296.33 120.858 299.15 117.997C299.447 117.695 299.723 117.377 299.979 117.042C300.017 116.991 300.18 116.711 300.469 116.2C301.378 114.583 301.87 112.836 301.946 110.959C302 109.606 301.954 108.26 301.807 106.919C301.765 106.558 301.717 106.2 301.663 105.845C301.636 105.826 301.611 105.807 301.587 105.788C301.529 105.729 301.485 105.66 301.456 105.581C301.422 105.501 301.405 105.422 301.405 105.342C301.409 105.262 301.426 105.183 301.456 105.103C301.478 105.078 301.501 105.053 301.525 105.028C301.522 105.02 301.52 105.011 301.518 105.003C301.539 104.952 301.564 104.902 301.594 104.852C301.619 104.806 301.65 104.764 301.688 104.726C301.73 104.689 301.774 104.655 301.82 104.626C301.857 104.602 301.894 104.581 301.933 104.563C301.973 104.516 302.013 104.47 302.052 104.425C300.027 103.631 298.012 102.795 296.008 101.918C294.031 101.055 292.106 100.087 290.233 99.0146C289.165 98.4031 288.112 97.7622 287.073 97.0919C285.516 96.0844 284.086 94.9429 282.781 93.6675C282.755 93.7009 282.728 93.7323 282.7 93.7618C282.708 93.7691 282.716 93.7754 282.725 93.7806C282.75 93.7932 282.773 93.8078 282.794 93.8246C282.819 93.8413 282.842 93.8581 282.863 93.8749C283.29 94.3566 283.676 94.8718 284.019 95.4206C284.304 95.8855 284.564 96.3652 284.798 96.8595C284.844 96.96 284.89 97.0605 284.937 97.1611C284.945 97.1904 285.077 97.4585 285.332 97.9653C285.471 98.246 285.571 98.5371 285.634 98.8387C285.638 98.8638 285.638 98.889 285.634 98.9141C285.617 99.0272 285.573 99.1257 285.502 99.2094C285.469 99.2513 285.431 99.289 285.389 99.3225C285.343 99.356 285.297 99.3875 285.251 99.4168C285.15 99.4629 285.041 99.4754 284.924 99.4545C284.87 99.4419 284.815 99.4252 284.761 99.4042C284.736 99.3958 284.71 99.3854 284.685 99.3728C284.61 99.3225 284.549 99.2618 284.503 99.1906C284.486 99.1654 284.469 99.1403 284.453 99.1152C284.13 98.4114 283.827 97.7517 283.542 97.1359C283.226 96.4504 282.826 95.82 282.342 95.2446C282.333 95.3108 282.322 95.3757 282.31 95.4394C282.281 95.586 282.239 95.7305 282.184 95.873C281.636 97.3991 281.06 98.9155 280.457 100.422C280.451 100.435 280.445 100.447 280.438 100.46ZM280.35 92.3229C280.729 92.6248 281.108 92.9222 281.487 93.2151C281.544 93.0589 281.641 92.9018 281.776 92.7439C281.881 92.6266 281.977 92.5009 282.065 92.3669C282.781 91.3029 283.269 90.1467 283.529 88.8984C283.617 88.4795 283.646 88.0544 283.617 87.6229C283.596 87.292 283.617 86.9611 283.68 86.6301C283.836 85.8158 283.813 85.0032 283.611 84.1922C283.584 84.1681 283.555 84.145 283.523 84.1231C283.447 84.0686 283.418 84.0498 283.435 84.0665C283.283 83.9197 283.138 83.7647 283.001 83.6016C282.838 84.6608 282.649 85.7185 282.436 86.7747C282.13 88.3036 281.632 89.7634 280.94 91.1542C280.742 91.5465 280.546 91.936 280.35 92.3229Z" fill="#333333"/>
<path d="M240.702 93.6737C239.391 95.01 238.212 96.4594 237.164 98.0218C234.99 101.264 232.636 104.366 230.102 107.327C229.331 108.224 228.447 108.997 227.45 109.646C224.103 111.824 220.534 113.584 216.743 114.924C214.854 115.594 212.95 116.313 211.032 117.079C209.796 117.574 208.504 117.833 207.155 117.858C205.831 117.884 204.529 118.082 203.247 118.455C203.77 121.471 205.471 123.352 208.349 124.098C208.709 124.194 209.082 124.196 209.467 124.104C213.417 123.191 217.41 122.896 221.443 123.218C222.817 123.327 224.189 123.459 225.559 123.614C226.363 123.702 227.088 123.53 227.733 123.099C228.03 121.93 228.165 120.734 228.135 119.511C228.106 118.363 228.466 117.337 229.216 116.432C229.425 116.181 229.664 115.965 229.932 115.785C229.987 115.768 230.039 115.758 230.089 115.753C230.144 115.745 230.198 115.745 230.253 115.753C230.303 115.758 230.353 115.77 230.404 115.791C230.414 115.796 230.425 115.8 230.435 115.804C232.631 114.729 234.784 113.562 236.894 112.304C239.211 110.917 241.613 109.673 244.101 108.572C244.673 108.32 245.224 108.081 245.754 107.855C248.255 107.022 250.081 105.449 251.233 103.136C252.364 100.87 252.846 98.4617 252.678 95.9106C252.645 95.3367 252.678 94.7754 252.779 94.2267C252.812 94.1848 252.848 94.145 252.885 94.1073C252.923 94.0696 252.963 94.0361 253.005 94.0068C253.076 93.9607 253.153 93.9314 253.237 93.9188C253.262 93.9146 253.29 93.9125 253.319 93.9125C253.373 93.9209 253.428 93.9314 253.482 93.9439C253.533 93.9607 253.581 93.9816 253.627 94.0068C253.673 94.0361 253.717 94.0675 253.759 94.101C253.78 94.1178 253.799 94.1366 253.815 94.1576C253.855 94.417 253.889 94.6746 253.916 94.9304C253.942 94.9436 253.962 94.9604 253.979 94.9807C254.012 95.0226 254.044 95.0665 254.073 95.1126C254.098 95.1587 254.119 95.2069 254.136 95.2571C254.148 95.3116 254.159 95.3661 254.167 95.4205C254.176 95.4708 254.184 95.5231 254.192 95.5776C255.612 98.9162 257.372 102.064 259.47 105.021C261.016 107.2 263.01 108.892 265.452 110.098C267.128 110.924 268.791 111.759 270.441 112.605C270.475 112.652 270.506 112.698 270.535 112.744C270.56 112.786 270.581 112.83 270.598 112.876C270.623 112.93 270.64 112.985 270.648 113.039C270.657 113.094 270.661 113.15 270.661 113.209C270.644 113.263 270.625 113.316 270.604 113.366C270.596 113.387 270.585 113.408 270.573 113.429C270.728 113.638 270.883 113.845 271.038 114.051C271.482 113.211 272.041 112.424 272.716 111.688C273.156 111.211 273.553 110.702 273.91 110.161C275.271 108.079 276.523 105.937 277.667 103.733C278.308 102.501 278.863 101.232 279.332 99.9257C279.33 99.9305 279.328 99.9347 279.326 99.9382L279.332 99.9194C279.338 99.9046 279.344 99.89 279.351 99.8754C279.729 98.9515 280.094 98.0215 280.444 97.0856C280.729 96.3232 280.968 95.5525 281.161 94.7733C281.178 94.7027 281.198 94.6335 281.223 94.566C280.711 94.1405 280.191 93.7195 279.665 93.303C279.645 93.3072 279.622 93.3093 279.596 93.3093C279.567 93.3093 279.539 93.3072 279.514 93.303C279.485 93.2988 279.458 93.2925 279.433 93.2842C279.407 93.2758 279.382 93.2674 279.357 93.259C279.332 93.2465 279.307 93.2339 279.282 93.2213C279.261 93.2088 279.238 93.1941 279.213 93.1774C279.192 93.1606 279.173 93.1417 279.156 93.1208C279.135 93.104 279.116 93.0852 279.1 93.0642C279.083 93.0391 279.068 93.0161 279.056 92.9951C279.043 92.97 279.03 92.947 279.018 92.926C279.009 92.8967 279.001 92.8695 278.993 92.8443C278.984 92.8192 278.978 92.792 278.974 92.7626V92.7564C277.49 91.6012 275.974 90.4933 274.425 89.4325C273.746 88.9675 273.061 88.5088 272.37 88.0564C269.84 86.3976 267.159 84.9524 264.327 83.7209C264.218 83.6706 264.112 83.6245 264.007 83.5827C263.906 83.5324 263.548 83.4172 262.932 83.2371C260.65 82.571 258.32 82.1563 255.945 81.993C254.944 81.9259 253.943 81.8568 252.942 81.7856C251.652 81.6935 250.485 81.9867 249.442 82.6653C248.613 83.2057 247.974 83.9157 247.526 84.7953C246.1 87.6051 244.218 90.0472 241.877 92.1217C241.87 92.2525 241.864 92.3844 241.858 92.5176C241.469 92.8992 241.083 93.2846 240.702 93.6737ZM259.257 82.4202C259.282 82.4244 259.307 82.4286 259.332 82.4328C259.294 82.4286 259.257 82.4223 259.219 82.414L259.257 82.4202ZM246.338 76.074C246.288 76.2123 246.217 76.3421 246.124 76.4636C245.375 77.4941 244.606 78.5099 243.818 79.511C243.052 80.4787 242.279 81.44 241.5 82.3951C240.704 83.3669 239.839 84.2717 238.905 85.1095C238.197 85.742 237.581 86.4583 237.058 87.2584C236.362 88.3224 235.65 89.378 234.921 90.4252C234.197 91.4767 233.432 92.5008 232.628 93.4978C231.669 94.6875 230.682 95.8499 229.668 96.9851C228.81 97.9485 227.951 98.9099 227.092 99.8691C226.28 100.774 225.368 101.57 224.359 102.257C224.078 102.445 223.802 102.644 223.53 102.854C222.524 103.612 221.563 104.42 220.645 105.279C220.18 105.715 219.699 106.129 219.2 106.523C218.245 107.281 217.269 108.008 216.272 108.704C215.665 109.131 214.984 109.38 214.23 109.451C213.028 109.56 211.874 109.849 210.768 110.318C210.32 110.507 209.888 110.727 209.474 110.978C208.447 111.598 207.398 112.178 206.326 112.719C206.271 112.748 206.221 112.784 206.175 112.825C206.15 112.855 206.127 112.886 206.106 112.92C206.081 112.962 206.058 113.006 206.037 113.052C206.016 113.098 205.995 113.144 205.974 113.19C205.978 113.244 205.982 113.299 205.986 113.353C205.991 113.408 205.997 113.46 206.005 113.51C206.014 113.535 206.02 113.561 206.024 113.586C206.527 114.227 207.207 114.453 208.066 114.264C208.686 114.13 209.312 114.03 209.945 113.963C210.699 113.883 211.386 114.078 212.006 114.547C212.115 114.631 212.238 114.677 212.377 114.685C212.71 114.71 212.934 114.832 213.049 115.05C216.123 113.629 219.311 112.251 222.612 110.915C226.181 109.47 229.063 107.172 231.258 104.022C233.528 100.759 235.891 97.5715 238.346 94.4592C238.914 93.7391 239.509 93.0437 240.13 92.3731C240.131 92.3608 240.131 92.3482 240.13 92.3354C240.13 92.3102 240.13 92.283 240.13 92.2537C242.924 89.5518 245.289 86.5023 247.224 83.1051C247.438 82.7323 247.718 82.4077 248.066 82.1312C249.783 80.7572 251.792 80.2232 254.092 80.5289C255.998 80.7845 257.91 81.0484 259.828 81.3206C263.733 81.8778 267.333 83.2957 270.63 85.5745C270.78 85.6792 270.929 85.7902 271.076 85.9075C271.218 85.9787 271.591 86.1714 272.194 86.4856C274.146 87.4993 275.956 88.7057 277.623 90.1048C278.206 90.5927 278.792 91.0744 279.382 91.55C279.679 90.7802 280.004 90.0136 280.356 89.2503C280.524 88.8858 280.668 88.5088 280.79 88.1192C281.28 86.5526 281.577 84.9503 281.682 83.3125C281.713 82.848 281.837 82.4144 282.053 82.0118C281.568 80.8361 280.886 79.8015 280.004 78.9078C279.544 78.4429 279.051 78.0156 278.528 77.626C277.518 76.8804 276.442 76.2479 275.298 75.7285C274.15 75.2048 273.015 74.6519 271.893 74.0696C270.799 73.5041 269.712 72.9324 268.631 72.3543C268.389 72.2244 268.152 72.0883 267.921 71.9459C266.828 71.2757 265.72 70.6348 264.598 70.0232C264.045 69.7258 263.471 69.4765 262.876 69.2754C261.674 68.8733 260.444 68.5968 259.188 68.446C258.031 68.3036 256.871 68.268 255.707 68.3392C255.698 68.3392 255.692 68.3392 255.688 68.3392C255.797 68.3267 255.732 68.3308 255.493 68.3518C254.027 68.4775 252.732 69.0157 251.61 69.9666C251.111 70.3855 250.613 70.8065 250.114 71.2296C249.235 71.971 248.397 72.8193 247.601 73.7743C247.577 73.8051 247.552 73.8345 247.526 73.8623C247.527 73.8618 247.529 73.8597 247.532 73.856C247.54 73.8476 247.549 73.8372 247.557 73.8246C247.268 74.1597 247.015 74.52 246.797 74.9053C246.661 75.1372 246.531 75.3717 246.407 75.6091C246.432 75.7381 246.409 75.8931 246.338 76.074ZM303.51 22.345C303.293 22.1607 303.05 22.0246 302.782 21.9366C302.485 21.8384 302.183 21.7547 301.877 21.6853C301.547 21.6095 301.212 21.5509 300.871 21.5093C300.708 21.4884 300.549 21.4528 300.394 21.4025C299.397 21.059 298.413 20.6883 297.441 20.2904C297.177 20.1815 296.925 20.0495 296.687 19.8945C296.469 19.7521 296.247 19.6243 296.021 19.5112C295.845 19.7081 295.642 19.8631 295.411 19.9762C295.16 20.1019 294.906 20.2192 294.651 20.3281C294.634 20.3323 294.617 20.3406 294.601 20.3532C294.144 21.124 293.75 21.9261 293.419 22.7597C293.128 23.5059 293.044 24.262 293.168 25.028C293.245 25.0407 293.32 25.0553 293.394 25.072C293.486 25.0917 293.551 25.1398 293.589 25.2165C294.998 25.349 296.355 25.6925 297.661 26.247C298.771 26.7203 299.743 27.378 300.576 28.22C300.802 28.4462 301.003 28.6933 301.179 28.9614C301.883 30.0421 302.534 31.1522 303.133 32.2916C303.452 32.8906 303.569 33.521 303.485 34.1829C303.464 34.3379 303.429 34.4887 303.378 34.6353C303.022 35.6155 302.595 36.5622 302.097 37.4754C301.944 37.8526 301.738 38.0223 301.481 37.9843C301.369 38.1428 301.258 38.2999 301.148 38.4556C300.913 38.7907 300.589 39.0232 300.174 39.153C300.111 39.1614 300.048 39.1677 299.985 39.1719C299.91 39.1761 299.835 39.1782 299.759 39.1782C299.68 39.1782 299.602 39.1782 299.527 39.1782C299.46 39.2075 299.395 39.2368 299.332 39.2661C299.265 39.2954 299.2 39.3227 299.137 39.3478C299.108 39.3562 299.076 39.3666 299.043 39.3792C298.98 39.3834 298.919 39.3876 298.861 39.3918C298.79 39.4002 298.718 39.4064 298.647 39.4106C298.572 39.4148 298.496 39.4211 298.421 39.4295C298.396 39.4337 298.371 39.4379 298.346 39.442C298.249 39.4881 298.155 39.5384 298.063 39.5929C297.975 39.6431 297.887 39.6955 297.799 39.7499C297.77 39.7709 297.74 39.7918 297.711 39.8128C296.592 40.8684 295.619 42.0434 294.789 43.3377C293.847 44.8039 293.66 46.314 294.23 47.868C294.414 48.3707 294.575 48.8859 294.714 49.4137C294.965 51.1438 295.221 52.8759 295.48 54.6101C295.736 56.315 296.004 58.0219 296.285 59.731C296.36 60.1834 296.484 60.6191 296.655 61.038C296.71 61.1971 296.917 61.57 297.277 62.1564C298.061 63.4298 299.062 64.5085 300.281 65.3923C301.408 66.205 302.539 66.9988 303.674 67.7737C303.695 67.824 303.712 67.8743 303.724 67.9245C303.741 67.9874 303.747 68.0523 303.743 68.1193C303.743 68.1863 303.732 68.2513 303.711 68.3141C303.703 68.3434 303.691 68.3727 303.674 68.4021C303.64 68.4481 303.605 68.49 303.567 68.5277C303.525 68.5654 303.481 68.5968 303.435 68.622C303.385 68.6513 303.334 68.6743 303.284 68.6911C303.255 68.6995 303.228 68.7078 303.203 68.7162C303.173 68.7162 303.146 68.7162 303.121 68.7162C303.083 68.7162 303.048 68.712 303.014 68.7037C302.981 68.6995 302.947 68.6911 302.914 68.6785C302.88 68.6618 302.846 68.645 302.813 68.6283C299.835 67.0993 297.527 64.9001 295.889 62.0307C295.29 60.9877 294.919 59.8651 294.777 58.6628C294.416 55.6678 293.987 52.6811 293.488 49.7028C292.399 47.801 292.297 45.8532 293.181 43.8593C294.002 41.9994 295.168 40.3741 296.68 38.9834C297.279 38.4388 297.983 38.1582 298.792 38.1414V38.1351C298.877 38.1009 298.963 38.0611 299.049 38.0157C299.167 37.9571 299.296 37.9278 299.439 37.9278C299.59 37.9236 299.74 37.9215 299.891 37.9215C299.946 37.8963 299.998 37.8712 300.048 37.8461C300.107 37.8168 300.166 37.7853 300.224 37.7518C300.283 37.7183 300.339 37.6827 300.394 37.645C300.624 37.1591 300.882 36.6837 301.167 36.2187C301.181 36.1966 301.193 36.1736 301.204 36.1496C301.214 36.172 301.222 36.1929 301.23 36.2124C301.238 36.2351 301.246 36.2561 301.255 36.2752C301.293 36.2007 301.333 36.1253 301.374 36.049C301.743 35.3579 302.057 34.6416 302.317 33.9001C302.095 32.878 301.678 31.9272 301.066 31.0475C300.559 30.3186 300.036 29.6023 299.495 28.8986C299.303 28.6389 299.066 28.4252 298.785 28.2577C297.629 27.5623 296.402 27.045 295.103 26.7057C294.638 26.5842 294.167 26.5172 293.69 26.5046C293.354 26.4962 293.036 26.4187 292.734 26.2721C292.731 26.2705 292.727 26.2684 292.722 26.2658C292.183 26.3548 291.645 26.4135 291.107 26.4418C289.976 26.5004 288.881 26.7455 287.821 27.1769C287.381 27.3571 286.924 27.489 286.451 27.5728C285.676 27.711 284.949 27.977 284.271 28.3708C283.211 28.9823 282.317 29.7803 281.588 30.7647C281.01 31.5397 280.618 32.4047 280.413 33.3598C280.145 34.5829 280.019 35.8228 280.036 37.0795C280.044 37.7204 280.147 38.3404 280.344 38.9394C280.494 39.4044 280.545 39.8798 280.494 40.3657C280.352 41.6391 280.057 42.8728 279.609 44.0666C279.537 44.2593 279.466 44.4499 279.395 44.6384C280.032 44.651 280.564 44.8709 280.991 45.2981C281.133 45.4406 281.232 45.6102 281.286 45.8071C281.491 46.5527 281.789 47.2606 282.178 47.9309C282.245 48.0482 282.271 48.088 282.254 48.0503C282.287 48.1005 282.363 48.2304 282.48 48.4398C282.61 48.6828 282.74 48.9278 282.87 49.175C282.937 49.2965 282.997 49.4221 283.052 49.552C283.228 49.7195 283.429 49.8557 283.655 49.9604C283.873 50.0567 284.053 50.1992 284.195 50.3877C284.241 50.4505 284.29 50.5133 284.34 50.5762C285.299 50.9741 286.311 51.0788 287.375 50.8903C287.714 50.8275 288.053 50.7668 288.393 50.7081C289.406 50.5196 290.387 50.2327 291.333 49.8473C291.434 49.8054 291.532 49.8201 291.629 49.8913C292.018 50.1971 292.037 50.5238 291.685 50.8715C291.572 50.9804 291.444 51.0684 291.302 51.1354C290.582 51.4719 289.841 51.7232 289.078 51.8894C289.074 51.9112 289.07 51.9321 289.065 51.9522C288.768 53.1963 288.742 54.4404 288.99 55.6845C289.094 56.1914 289.124 56.6962 289.078 57.1988C289.069 57.3371 289 57.4376 288.87 57.5004C288.654 57.6087 288.467 57.6338 288.311 57.5758C287.345 58.3336 286.467 59.1902 285.678 60.1457C285.389 60.4976 285.138 60.8788 284.924 61.2893C284.392 62.3072 284.185 63.3712 284.302 64.4812C284.394 65.3567 284.419 66.2322 284.378 67.1077C284.373 67.2208 284.323 67.3088 284.227 67.3716C284.154 67.4187 284.083 67.4543 284.013 67.4784C283.966 68.5405 283.915 69.6003 283.862 70.6578C283.804 71.9228 283.829 73.1858 283.938 74.4466C284.047 75.7159 284.304 76.9558 284.711 78.1664C284.866 78.6272 285.056 79.0733 285.282 79.5048C285.354 79.6406 285.406 79.781 285.439 79.9257C285.535 79.9963 285.631 80.0654 285.729 80.1331L285.483 81.4652C285.388 81.4026 285.294 81.3356 285.201 81.2641C285.149 81.5176 285.076 81.7668 284.981 82.0118C284.782 82.519 284.7 83.0321 284.736 83.5512C284.757 83.5784 284.778 83.6056 284.799 83.6329C284.933 83.813 284.964 84.0099 284.893 84.2236C284.884 84.2487 284.873 84.2718 284.861 84.2927C284.902 84.4777 284.936 84.662 284.962 84.8456C284.944 84.9435 284.933 85.0357 284.931 85.1221C284.922 85.3575 284.96 85.5628 285.044 85.7379C285.06 86.3441 285.004 86.9515 284.874 87.56C284.84 87.7192 284.826 87.8805 284.83 88.0438C284.859 89.2209 284.589 90.3331 284.019 91.3803C283.802 91.7787 283.59 92.1808 283.385 92.5867C285.1 94.1442 286.933 95.5643 288.883 96.8468C289.524 97.2657 290.186 97.6532 290.868 98.0093C293.026 99.1361 295.225 100.175 297.466 101.126C299.213 101.867 300.953 102.619 302.687 103.382C302.752 103.396 302.814 103.41 302.876 103.426C304.901 100.885 306.524 98.097 307.745 95.0624C309.186 91.4767 310.42 87.8302 311.446 84.123C311.931 82.3768 312.264 80.6133 312.445 78.8324C312.341 78.8031 312.251 78.7508 312.175 78.6754C312.087 78.5874 312.033 78.4806 312.012 78.3549C311.999 78.2921 311.993 78.2271 311.993 78.1601C311.997 78.1266 312.003 78.0952 312.012 78.0659C312.02 78.0365 312.031 78.0093 312.043 77.9842C312.052 77.959 312.062 77.936 312.075 77.9151C312.091 77.8899 312.106 77.8669 312.119 77.846C314.414 75.2823 315.677 72.1888 315.907 68.5654C316.016 66.8522 315.899 65.1473 315.556 63.4508C315.192 61.6558 314.945 59.8587 314.814 58.0596C314.709 57.751 314.64 57.4264 314.607 57.0857C314.573 56.7674 314.517 56.4532 314.437 56.1432C314.161 55.0709 313.914 53.9943 313.696 52.9136C313.599 52.4486 313.558 51.9795 313.57 51.5061C313.598 50.5872 313.556 49.6719 313.444 48.7603C313.447 48.767 313.45 48.7733 313.451 48.7791C313.434 47.4764 313.22 46.2113 312.81 44.984C312.485 44.0062 312.263 43.0071 312.144 41.9868C312.097 41.9479 312.055 41.9018 312.018 41.8486C311.93 41.7229 311.897 41.5847 311.918 41.4339C311.93 41.3543 311.945 41.2747 311.962 41.1951C311.932 41.0401 311.915 40.883 311.911 40.7239C311.903 40.5689 311.899 40.4139 311.899 40.2589C311.186 39.3825 310.49 38.4903 309.813 37.5822C309.805 37.7842 309.784 37.9873 309.75 38.1917C309.637 38.8661 309.601 39.5405 309.643 40.2149C309.689 40.8977 309.605 41.5658 309.392 42.2193C309.164 42.9238 308.854 43.5898 308.462 44.2174C308.46 44.2215 308.458 44.2236 308.455 44.2237C308.456 44.2292 308.456 44.2333 308.455 44.2363C308.452 44.245 308.448 44.2513 308.443 44.2551C308.422 44.3073 308.401 44.3597 308.38 44.4122C308.355 44.4708 308.33 44.5316 308.305 44.5944C308.472 45.3149 308.682 46.0249 308.933 46.7245C308.975 46.8459 308.998 46.9737 309.002 47.1077C309.04 47.8324 308.918 48.5215 308.638 49.175C308.541 49.4012 308.395 49.5897 308.198 49.7405C307.9 49.9667 307.597 50.1824 307.287 50.3877C307.232 50.4254 307.174 50.4547 307.111 50.4756C307.098 50.4798 307.088 50.484 307.079 50.4882C307.063 50.505 307.052 50.5238 307.048 50.5447C307.044 50.5573 307.04 50.572 307.035 50.5887C307.035 50.6055 307.035 50.6222 307.035 50.639C307.035 50.6558 307.04 50.6704 307.048 50.683C307.056 50.6997 307.067 50.7144 307.079 50.727C307.988 51.3804 308.914 52.0088 309.857 52.612C310.745 53.1775 311.629 53.7451 312.508 54.3148C312.78 54.4907 313.013 54.7001 313.206 54.9431C313.218 54.9724 313.229 55.0018 313.237 55.0311C313.25 55.0604 313.26 55.0918 313.268 55.1253C313.273 55.1421 313.277 55.1588 313.281 55.1756C313.289 55.3725 313.227 55.5421 313.093 55.6845C312.984 55.7893 312.854 55.8479 312.703 55.8605C312.573 55.873 312.45 55.8458 312.332 55.7788C311.298 55.0499 310.246 54.3462 309.178 53.6676C308.168 53.0309 307.195 52.346 306.256 51.6129C305.888 51.3239 305.728 50.9427 305.779 50.4693C305.85 49.8494 306.179 49.4473 306.765 49.2629C306.895 49.1373 307.025 49.0158 307.155 48.8985C307.251 48.8105 307.352 48.731 307.456 48.6597C307.502 48.6304 307.549 48.6011 307.595 48.5718C307.674 48.354 307.714 48.1277 307.714 47.8932C307.71 47.6544 307.712 47.4135 307.72 47.1706C307.724 47.0575 307.729 46.9444 307.733 46.8313C307.532 46.4543 307.373 46.0584 307.255 45.6437C307.134 45.2165 307.079 44.7934 307.092 44.3745C307.096 44.2781 307.117 44.1839 307.155 44.0917C307.192 44.0121 307.228 43.9326 307.262 43.853C307.257 43.8697 307.251 43.8865 307.243 43.9032C307.241 43.9085 307.239 43.9127 307.236 43.9158C307.5 43.3865 307.747 42.8482 307.978 42.301C308.212 41.7439 308.363 41.1658 308.43 40.5668C308.448 40.4181 308.453 40.2694 308.443 40.1207C308.426 39.1446 308.449 38.1623 308.512 37.1738C308.558 36.4742 308.382 35.8375 307.984 35.2636C307.958 35.2242 307.943 35.1824 307.94 35.1379C307.619 34.7756 307.284 34.4237 306.935 34.0823C306.495 33.6509 306.141 33.1524 305.873 32.5869C305.664 32.1429 305.442 31.7093 305.207 31.2862C305.094 31.0768 305.004 30.8569 304.937 30.6265C304.761 30.0107 304.731 29.3929 304.849 28.7729C304.933 28.3121 304.989 27.8472 305.018 27.378C305.066 26.6535 305.048 25.9309 304.962 25.2102C304.861 24.0373 304.378 23.0823 303.51 22.345Z" fill="white"/>
</svg>
