<svg width="912" height="132" viewBox="0 0 912 132" fill="none" xmlns="http://www.w3.org/2000/svg">
<path d="M874.439 111.974C867.888 111.974 861.983 110.59 856.724 107.822C851.557 104.962 847.498 100.948 844.545 95.7812C841.592 90.522 840.116 84.3401 840.116 77.2356C840.116 71.4228 841.408 65.8868 843.991 60.6276C846.667 55.2761 850.358 50.9857 855.063 47.7564C859.861 44.527 865.305 42.9124 871.395 42.9124C877.023 42.9124 881.821 44.0657 885.788 46.3724C889.848 48.5868 892.893 51.2625 894.923 54.3996C896.952 57.5366 897.967 60.3508 897.967 62.842C897.967 64.0414 897.598 65.1948 896.86 66.302C896.122 67.4092 895.061 68.378 893.677 69.2084L856.586 90.522C857.878 93.3822 860.138 95.5966 863.367 97.1652C866.689 98.7337 870.38 99.518 874.439 99.518C879.791 99.518 884.358 97.5342 888.141 93.5668C889.617 92.0905 891.14 91.3524 892.708 91.3524C894.554 91.3524 896.076 91.9521 897.275 93.1516C898.567 94.351 899.213 95.8273 899.213 97.5804C899.213 99.0566 898.659 100.441 897.552 101.732C894.969 104.593 891.509 107.038 887.172 109.068C882.928 111.005 878.684 111.974 874.439 111.974ZM884.266 61.1812C883.159 59.2436 881.59 57.8134 879.56 56.8908C877.53 55.8758 875.131 55.3684 872.363 55.3684C867.104 55.3684 862.675 57.1676 859.077 60.766C855.571 64.3644 853.541 68.7932 852.987 74.0524C852.803 75.4364 852.711 77.0972 852.711 79.0348L884.266 61.1812Z" fill="white"/>
<path d="M814.329 111.974C812.576 111.974 811.007 111.374 809.623 110.175C808.331 108.883 807.686 107.407 807.686 105.746V25.474C807.686 23.6287 808.285 22.1063 809.485 20.9068C810.776 19.6151 812.391 18.9692 814.329 18.9692C816.082 18.9692 817.604 19.6151 818.896 20.9068C820.28 22.1986 820.972 23.721 820.972 25.474V105.746C820.972 107.407 820.28 108.883 818.896 110.175C817.512 111.374 815.99 111.974 814.329 111.974Z" fill="white"/>
<path d="M751.569 111.835C746.864 111.835 742.62 110.636 738.837 108.237C735.146 105.746 732.193 102.147 729.979 97.4418C727.857 92.7362 726.796 87.108 726.796 80.557C726.796 72.6221 728.041 65.8405 730.533 60.2122C733.024 54.584 736.484 50.3397 740.913 47.4794C745.341 44.5269 750.462 43.0506 756.275 43.0506C760.888 43.0506 765.825 44.1117 771.084 46.2338L771.776 24.7818C771.868 22.9365 772.56 21.368 773.852 20.0762C775.236 18.6922 776.851 18.0002 778.696 18.0002C780.449 18.0002 781.971 18.6922 783.263 20.0762C784.647 21.368 785.293 23.0288 785.201 25.0586L783.263 105.607C783.171 107.453 782.479 108.975 781.187 110.175C779.895 111.374 778.327 111.974 776.482 111.974C774.728 111.974 773.206 111.466 771.914 110.451C770.715 109.437 770.115 108.099 770.115 106.438V103.947C767.716 106.161 764.902 108.053 761.673 109.621C758.443 111.097 755.076 111.835 751.569 111.835ZM752.677 99.3794C755.814 99.3794 758.72 98.7336 761.396 97.4418C764.164 96.0578 766.332 94.397 767.901 92.4594C769.469 90.5219 770.3 88.7226 770.392 87.0618L770.945 59.7971C769.285 58.6899 767.163 57.721 764.579 56.8906C761.996 55.968 759.504 55.5066 757.105 55.5066C751.477 55.5066 747.233 57.6288 744.373 61.873C741.512 66.025 740.082 72.1146 740.082 80.1418C740.082 86.785 741.189 91.6752 743.404 94.8122C745.711 97.857 748.801 99.3794 752.677 99.3794Z" fill="white"/>
<path d="M688.983 111.974C682.432 111.974 676.527 110.59 671.268 107.822C666.101 104.962 662.041 100.948 659.089 95.7812C656.136 90.522 654.66 84.3401 654.66 77.2356C654.66 71.4228 655.952 65.8868 658.535 60.6276C661.211 55.2761 664.902 50.9857 669.607 47.7564C674.405 44.527 679.849 42.9124 685.939 42.9124C691.567 42.9124 696.365 44.0657 700.332 46.3724C704.392 48.5868 707.437 51.2625 709.467 54.3996C711.496 57.5366 712.511 60.3508 712.511 62.842C712.511 64.0414 712.142 65.1948 711.404 66.302C710.666 67.4092 709.605 68.378 708.221 69.2084L671.13 90.522C672.421 93.3822 674.682 95.5966 677.911 97.1652C681.233 98.7337 684.924 99.518 688.983 99.518C694.335 99.518 698.902 97.5342 702.685 93.5668C704.161 92.0905 705.684 91.3524 707.252 91.3524C709.097 91.3524 710.62 91.9521 711.819 93.1516C713.111 94.351 713.757 95.8273 713.757 97.5804C713.757 99.0566 713.203 100.441 712.096 101.732C709.513 104.593 706.053 107.038 701.716 109.068C697.472 111.005 693.228 111.974 688.983 111.974ZM698.81 61.1812C697.703 59.2436 696.134 57.8134 694.104 56.8908C692.074 55.8758 689.675 55.3684 686.907 55.3684C681.648 55.3684 677.219 57.1676 673.621 60.766C670.115 64.3644 668.085 68.7932 667.531 74.0524C667.347 75.4364 667.255 77.0972 667.255 79.0348L698.81 61.1812Z" fill="white"/>
<path d="M616.848 111.974C610.297 111.974 604.392 110.59 599.132 107.822C593.965 104.962 589.906 100.948 586.953 95.7812C584.001 90.522 582.524 84.3401 582.524 77.2356C582.524 71.4228 583.816 65.8868 586.4 60.6276C589.075 55.2761 592.766 50.9857 597.472 47.7564C602.269 44.527 607.713 42.9124 613.803 42.9124C619.431 42.9124 624.229 44.0657 628.196 46.3724C632.256 48.5868 635.301 51.2625 637.331 54.3996C639.361 57.5366 640.376 60.3508 640.376 62.842C640.376 64.0414 640.007 65.1948 639.268 66.302C638.53 67.4092 637.469 68.378 636.085 69.2084L598.994 90.522C600.286 93.3822 602.546 95.5966 605.776 97.1652C609.097 98.7337 612.788 99.518 616.848 99.518C622.199 99.518 626.766 97.5342 630.549 93.5668C632.025 92.0905 633.548 91.3524 635.116 91.3524C636.962 91.3524 638.484 91.9521 639.684 93.1516C640.975 94.351 641.621 95.8273 641.621 97.5804C641.621 99.0566 641.068 100.441 639.96 101.732C637.377 104.593 633.917 107.038 629.58 109.068C625.336 111.005 621.092 111.974 616.848 111.974ZM626.674 61.1812C625.567 59.2436 623.998 57.8134 621.968 56.8908C619.939 55.8758 617.54 55.3684 614.772 55.3684C609.512 55.3684 605.084 57.1676 601.485 60.766C597.979 64.3644 595.949 68.7932 595.396 74.0524C595.211 75.4364 595.119 77.0972 595.119 79.0348L626.674 61.1812Z" fill="white"/>
<path d="M514.298 111.974C512.544 111.974 510.976 111.328 509.592 110.036C508.3 108.745 507.654 107.268 507.654 105.608V49.4171C507.654 47.5718 508.346 46.0033 509.73 44.7115C511.114 43.4198 512.729 42.7739 514.574 42.7739C516.327 42.7739 517.804 43.4198 519.003 44.7115C520.295 46.0033 520.941 47.5718 520.941 49.4171V59.9355C523.524 54.3995 526.8 50.2014 530.767 47.3411C534.735 44.3886 539.071 42.9123 543.777 42.9123C548.944 42.9123 553.05 44.1118 556.094 46.5107C559.139 48.9097 561.353 52.8771 562.737 58.4131C564.121 63.8569 564.813 71.4227 564.813 81.1107L564.675 105.331C564.675 107.084 564.075 108.652 562.876 110.036C561.676 111.328 560.154 111.974 558.309 111.974C556.556 111.974 554.987 111.328 553.603 110.036C552.311 108.652 551.666 107.13 551.666 105.469V82.4947C551.666 75.2979 551.343 69.7619 550.697 65.8867C550.051 62.0115 549.082 59.3819 547.79 57.9979C546.499 56.5217 544.746 55.7835 542.531 55.7835C539.763 55.7835 536.995 56.983 534.227 59.3819C531.459 61.6886 528.876 65.0102 526.477 69.3467C524.355 73.1297 522.878 76.8203 522.048 80.4187C521.218 84.0171 520.802 88.3537 520.802 93.4283V105.054C520.802 107.084 520.203 108.745 519.003 110.036C517.896 111.328 516.327 111.974 514.298 111.974Z" fill="white"/>
<path d="M400.981 111.974C399.228 111.974 397.659 111.328 396.275 110.036C394.891 108.745 394.199 107.268 394.199 105.607V49.5555C394.199 47.7102 394.845 46.1416 396.137 44.8499C397.521 43.5582 399.136 42.9123 400.981 42.9123C402.826 42.9123 404.395 43.5582 405.686 44.8499C407.07 46.1416 407.762 47.7102 407.762 49.5555V53.7075C412.283 46.3262 418.465 42.6355 426.308 42.6355C431.014 42.6355 434.381 43.9272 436.411 46.5107C438.533 49.0942 439.594 52.1851 439.594 55.7835V59.9355C439.594 61.7808 438.949 63.3494 437.657 64.6411C436.457 65.8406 434.935 66.4403 433.09 66.4403C430.875 66.4403 429.214 65.7944 428.107 64.5027C427.092 63.211 426.585 61.6424 426.585 59.7971V57.9979C426.585 56.5216 425.57 55.7835 423.54 55.7835C421.879 55.7835 419.942 56.6139 417.727 58.2747C415.605 59.9355 413.852 61.6886 412.468 63.5339C410.53 65.9328 409.239 68.3318 408.593 70.7307C408.039 73.1296 407.762 75.9899 407.762 79.3115L407.624 105.607C407.624 107.268 406.932 108.745 405.548 110.036C404.164 111.328 402.642 111.974 400.981 111.974Z" fill="white"/>
<path d="M351.958 111.974C345.407 111.974 339.502 110.59 334.243 107.822C329.076 104.962 325.016 100.948 322.064 95.7812C319.111 90.522 317.635 84.3401 317.635 77.2356C317.635 71.4228 318.927 65.8868 321.51 60.6276C324.186 55.2761 327.876 50.9857 332.582 47.7564C337.38 44.527 342.824 42.9124 348.913 42.9124C354.541 42.9124 359.339 44.0657 363.307 46.3724C367.367 48.5868 370.411 51.2625 372.441 54.3996C374.471 57.5366 375.486 60.3508 375.486 62.842C375.486 64.0414 375.117 65.1948 374.379 66.302C373.641 67.4092 372.58 68.378 371.196 69.2084L334.104 90.522C335.396 93.3822 337.657 95.5966 340.886 97.1652C344.208 98.7337 347.898 99.518 351.958 99.518C357.309 99.518 361.877 97.5342 365.66 93.5668C367.136 92.0905 368.658 91.3524 370.227 91.3524C372.072 91.3524 373.595 91.9521 374.794 93.1516C376.086 94.351 376.732 95.8273 376.732 97.5804C376.732 99.0566 376.178 100.441 375.071 101.732C372.487 104.593 369.027 107.038 364.691 109.068C360.446 111.005 356.202 111.974 351.958 111.974ZM361.784 61.1812C360.677 59.2436 359.109 57.8134 357.079 56.8908C355.049 55.8758 352.65 55.3684 349.882 55.3684C344.623 55.3684 340.194 57.1676 336.596 60.766C333.089 64.3644 331.06 68.7932 330.506 74.0524C330.321 75.4364 330.229 77.0972 330.229 79.0348L361.784 61.1812Z" fill="white"/>
<path d="M249.408 111.974C247.655 111.974 246.086 111.328 244.702 110.036C243.411 108.745 242.765 107.268 242.765 105.608V49.4171C242.765 47.5718 243.457 46.0033 244.841 44.7115C246.225 43.4198 247.839 42.7739 249.685 42.7739C251.438 42.7739 252.914 43.4198 254.113 44.7115C255.405 46.0033 256.051 47.5718 256.051 49.4171V59.9355C258.635 54.3995 261.91 50.2014 265.877 47.3411C269.845 44.3886 274.181 42.9123 278.887 42.9123C284.054 42.9123 288.16 44.1118 291.205 46.5107C294.249 48.9097 296.464 52.8771 297.848 58.4131C299.232 63.8569 299.924 71.4227 299.924 81.1107L299.785 105.331C299.785 107.084 299.186 108.652 297.986 110.036C296.787 111.328 295.264 111.974 293.419 111.974C291.666 111.974 290.097 111.328 288.713 110.036C287.422 108.652 286.776 107.13 286.776 105.469V82.4947C286.776 75.2979 286.453 69.7619 285.807 65.8867C285.161 62.0115 284.192 59.3819 282.901 57.9979C281.609 56.5217 279.856 55.7835 277.641 55.7835C274.873 55.7835 272.105 56.983 269.337 59.3819C266.569 61.6886 263.986 65.0102 261.587 69.3467C259.465 73.1297 257.989 76.8203 257.158 80.4187C256.328 84.0171 255.913 88.3537 255.913 93.4283V105.054C255.913 107.084 255.313 108.745 254.113 110.036C253.006 111.328 251.438 111.974 249.408 111.974Z" fill="white"/>
<path d="M212.433 37.0996C210.68 37.0996 209.111 36.4076 207.727 35.0236C206.435 33.6396 205.836 32.0711 205.928 30.318L206.066 25.1972C206.158 23.4441 206.85 21.9217 208.142 20.63C209.434 19.3382 210.956 18.6924 212.709 18.6924C214.462 18.6924 215.985 19.3844 217.277 20.7684C218.661 22.1524 219.306 23.6748 219.214 25.3356L219.076 30.5948C218.984 32.4401 218.292 34.0087 217 35.3004C215.8 36.4999 214.278 37.0996 212.433 37.0996ZM211.741 111.974C209.895 111.974 208.281 111.328 206.897 110.036C205.605 108.652 204.959 107.038 204.959 105.192L205.651 50.1092C205.651 48.2638 206.297 46.6953 207.589 45.4036C208.973 44.0196 210.587 43.3276 212.433 43.3276C214.37 43.3276 215.985 44.0196 217.277 45.4036C218.568 46.6953 219.214 48.2638 219.214 50.1092L218.522 105.192C218.522 107.038 217.83 108.652 216.446 110.036C215.154 111.328 213.586 111.974 211.741 111.974Z" fill="white"/>
<path d="M174.813 113.358C172.968 113.358 171.446 112.85 170.246 111.836C169.139 110.821 168.585 109.483 168.585 107.822V105.884C164.803 109.944 159.543 111.974 152.808 111.974C147.733 111.974 143.166 110.728 139.106 108.237C135.047 105.746 131.863 102.24 129.557 97.7188C127.25 93.1054 126.097 87.8924 126.097 82.0796C126.097 75.6209 127.481 69.3929 130.249 63.3956C133.017 57.306 136.892 52.3697 141.874 48.5868C146.949 44.8038 152.762 42.9124 159.313 42.9124C163.557 42.9124 167.386 43.5121 170.8 44.7116C174.214 45.8188 177.766 47.2028 181.457 48.8636V106.438C181.457 108.283 180.811 109.898 179.519 111.282C178.227 112.666 176.659 113.358 174.813 113.358ZM153.777 99.1028C156.452 99.1028 159.036 98.5492 161.527 97.442C164.111 96.3348 166.233 94.9969 167.893 93.4284L168.309 57.306C165.633 56.1988 162.727 55.6452 159.589 55.6452C155.622 55.6452 152.116 56.8908 149.071 59.382C146.026 61.7809 143.673 65.0102 142.013 69.07C140.352 73.0374 139.521 77.2817 139.521 81.8028C139.521 87.431 140.767 91.7214 143.258 94.674C145.749 97.6265 149.256 99.1028 153.777 99.1028Z" fill="white"/>
<path d="M81.5257 111.974C79.7727 111.974 78.2041 111.328 76.8201 110.036C75.4361 108.745 74.7441 107.268 74.7441 105.607V49.5555C74.7441 47.7102 75.39 46.1416 76.6817 44.8499C78.0657 43.5582 79.6804 42.9123 81.5257 42.9123C83.3711 42.9123 84.9396 43.5582 86.2313 44.8499C87.6153 46.1416 88.3073 47.7102 88.3073 49.5555V53.7075C92.8284 46.3262 99.0103 42.6355 106.853 42.6355C111.559 42.6355 114.926 43.9272 116.956 46.5107C119.078 49.0942 120.139 52.1851 120.139 55.7835V59.9355C120.139 61.7808 119.493 63.3494 118.202 64.6411C117.002 65.8406 115.48 66.4403 113.635 66.4403C111.42 66.4403 109.759 65.7944 108.652 64.5027C107.637 63.211 107.13 61.6424 107.13 59.7971V57.9979C107.13 56.5216 106.115 55.7835 104.085 55.7835C102.424 55.7835 100.487 56.6139 98.2721 58.2747C96.15 59.9355 94.3969 61.6886 93.0129 63.5339C91.0753 65.9328 89.7836 68.3318 89.1377 70.7307C88.5841 73.1296 88.3073 75.9899 88.3073 79.3115L88.1689 105.607C88.1689 107.268 87.4769 108.745 86.0929 110.036C84.7089 111.328 83.1865 111.974 81.5257 111.974Z" fill="white"/>
<path d="M37.22 112.112C35.4669 112.112 33.8984 111.467 32.5144 110.175C31.2227 108.883 30.5768 107.361 30.5768 105.608V56.1988H19.6432C17.7979 56.1988 16.2293 55.5529 14.9376 54.2612C13.6459 52.8772 13 51.3087 13 49.5556C13 47.5257 13.692 45.9111 15.076 44.7116C16.46 43.4199 18.0747 42.774 19.92 42.774H30.5768V27.9652C30.5768 26.2121 31.2227 24.6436 32.5144 23.2596C33.8061 21.8756 35.3747 21.1836 37.22 21.1836C39.1576 21.1836 40.7261 21.8756 41.9256 23.2596C43.2173 24.5513 43.8632 26.1199 43.8632 27.9652V42.774H55.6272C57.4725 42.774 59.0411 43.4199 60.3328 44.7116C61.6245 46.0033 62.2704 47.618 62.2704 49.5556C62.2704 51.3087 61.6245 52.8772 60.3328 54.2612C59.0411 55.5529 57.4725 56.1988 55.6272 56.1988H43.8632V105.608C43.8632 107.361 43.2173 108.883 41.9256 110.175C40.6339 111.467 39.0653 112.112 37.22 112.112Z" fill="white"/>
<path d="M897.968 62.8418C897.968 60.5064 897.075 57.8874 895.291 54.9844L894.923 54.3994C892.893 51.2623 889.848 48.5865 885.788 46.3721C881.821 44.0655 877.023 42.9121 871.395 42.9121C865.305 42.9121 859.861 44.5275 855.063 47.7568C850.358 50.9862 846.667 55.2765 843.991 60.6279C841.408 65.887 840.116 71.4228 840.116 77.2354L840.12 77.8984C840.209 84.7253 841.685 90.6863 844.545 95.7812C847.497 100.948 851.558 104.962 856.725 107.822C861.819 110.504 867.52 111.886 873.827 111.97L874.439 111.974C878.684 111.974 882.928 111.005 887.172 109.067C891.237 107.164 894.533 104.897 897.058 102.264L897.552 101.732C898.659 100.441 899.213 99.0563 899.213 97.5801C899.213 95.8271 898.567 94.3508 897.275 93.1514C896.076 91.952 894.553 91.3525 892.708 91.3525C891.14 91.3526 889.617 92.0902 888.141 93.5664C884.358 97.5339 879.791 99.5176 874.439 99.5176V92.5176C877.825 92.5176 880.577 91.3564 883.075 88.7363L883.133 88.6758L883.191 88.6172C885.531 86.2774 888.732 84.3526 892.708 84.3525L893.366 84.3662C896.613 84.5078 899.69 85.7076 902.147 88.126C904.786 90.6291 906.213 93.9189 906.213 97.5801C906.213 100.979 904.886 103.933 902.867 106.288L902.808 106.356L902.747 106.425C899.407 110.123 895.123 113.075 890.14 115.407L890.109 115.422L890.079 115.436C885.014 117.748 879.783 118.974 874.439 118.974C866.871 118.974 859.828 117.366 853.464 114.017L853.398 113.982L853.334 113.946C847.036 110.46 842.051 105.525 838.468 99.2539L838.454 99.2314L838.441 99.208C834.805 92.7299 833.116 85.3256 833.116 77.2354C833.116 70.3437 834.658 63.7526 837.709 57.541L837.72 57.5195L837.73 57.4971C840.91 51.1378 845.371 45.9178 851.103 41.9844L851.129 41.9668L851.154 41.9492C857.17 37.9 863.99 35.9121 871.395 35.9121C877.954 35.9121 884.004 37.2566 889.243 40.2852C894.04 42.919 898.023 46.3053 900.8 50.5967C903.22 54.3368 904.968 58.485 904.968 62.8418C904.968 65.5723 904.102 68.0582 902.685 70.1846C901.262 72.318 899.365 73.9589 897.278 75.2109L897.222 75.2451L897.165 75.2773L868.59 91.6963C870.336 92.2304 872.273 92.5176 874.439 92.5176V99.5176L873.683 99.5088C869.92 99.4169 866.481 98.6356 863.367 97.165C860.138 95.5965 857.878 93.3817 856.586 90.5215L893.677 69.208C894.974 68.4295 895.988 67.5296 896.718 66.5078L896.86 66.3018C897.552 65.2639 897.92 64.1854 897.963 63.0664L897.968 62.8418ZM872.363 55.3682C875.131 55.3682 877.531 55.8757 879.561 56.8906C881.59 57.8133 883.158 59.2441 884.266 61.1816L852.711 79.0352C852.711 77.0977 852.803 75.4367 852.987 74.0527C853.541 68.7935 855.571 64.364 859.077 60.7656C862.675 57.1674 867.104 55.3682 872.363 55.3682Z" fill="black"/>
<path d="M807.692 106.056C807.768 107.591 808.412 108.964 809.623 110.175C811.007 111.374 812.575 111.974 814.328 111.974C815.885 111.974 817.321 111.447 818.635 110.393L818.896 110.175C820.193 108.964 820.883 107.591 820.964 106.056L820.972 105.746V25.4736C820.972 23.7208 820.279 22.1988 818.896 20.9072C817.604 19.6155 816.081 18.9688 814.328 18.9688C812.391 18.9688 810.776 19.6156 809.484 20.9072C808.285 22.1066 807.686 23.6286 807.686 25.4736V105.746L807.692 106.056ZM827.972 105.746C827.972 109.627 826.256 112.88 823.672 115.292L823.577 115.38L823.48 115.465C820.964 117.646 817.85 118.974 814.328 118.974C810.811 118.974 807.633 117.713 805.038 115.465L804.85 115.301L804.673 115.124C802.213 112.664 800.686 109.458 800.686 105.746V25.4736C800.686 21.9518 801.9 18.591 804.534 15.957L804.789 15.709C807.44 13.187 810.774 11.9688 814.328 11.9688C817.981 11.9688 821.227 13.3818 823.758 15.8711C826.382 18.3592 827.972 21.6555 827.972 25.4736V105.746Z" fill="black"/>
<path d="M779.056 11.0049C782.679 11.1003 785.816 12.6368 788.215 15.127C791.057 17.8739 792.333 21.4514 792.198 25.2275L790.261 105.776L790.259 105.866L790.254 105.957C790.075 109.528 788.649 112.799 785.95 115.305C783.298 117.767 780.002 118.974 776.481 118.974C773.273 118.974 770.201 118.007 767.59 115.956L767.489 115.877L767.393 115.795C767.088 115.538 766.802 115.269 766.53 114.992C765.94 115.311 765.341 115.621 764.73 115.918L764.657 115.953L764.583 115.987C760.452 117.876 756.093 118.836 751.569 118.836C745.607 118.836 740.05 117.295 735.088 114.148L735.003 114.095L734.92 114.039C730.02 110.731 726.306 106.075 723.646 100.423L723.621 100.371L723.598 100.319C720.974 94.5007 719.796 87.8427 719.796 80.5576C719.796 71.9176 721.149 64.1177 724.132 57.3789C727.066 50.7497 731.316 45.3711 737.029 41.6553L737.565 41.3057C743.121 37.754 749.434 36.0508 756.275 36.0508C758.949 36.0508 761.652 36.3422 764.381 36.8955L764.779 24.5566L764.781 24.4941L764.784 24.4326C764.962 20.8757 766.368 17.6614 768.902 15.127C771.511 12.5186 774.873 11 778.696 11L779.056 11.0049ZM740.082 80.1416C740.082 72.3657 741.424 66.408 744.108 62.2686L744.373 61.873C747.233 57.629 751.477 55.5068 757.105 55.5068L757.557 55.5117C759.816 55.5658 762.157 56.0257 764.579 56.8906C767.162 57.721 769.285 58.6897 770.945 59.7969L770.392 87.0615C770.299 88.7223 769.469 90.5224 767.9 92.46L767.6 92.8193C766.059 94.6035 763.991 96.1448 761.396 97.4424L760.892 97.6768C758.356 98.8121 755.618 99.3799 752.677 99.3799V92.3799C754.806 92.3799 756.654 91.9503 758.319 91.1523C760.372 90.1186 761.66 89.0431 762.46 88.0547C762.968 87.4267 763.224 86.9822 763.344 86.7236C763.373 86.6612 763.389 86.6131 763.4 86.5811L763.857 64.0518C763.42 63.8861 762.947 63.7189 762.437 63.5547L762.33 63.5205L762.225 63.4834C760.29 62.7924 758.596 62.5068 757.105 62.5068C753.532 62.5068 751.591 63.6876 750.178 65.7852L750.157 65.8145L750.137 65.8447C748.429 68.3233 747.082 72.7615 747.082 80.1416C747.082 86.1629 748.118 89.2861 749.07 90.6953C750.006 91.8836 751.007 92.3799 752.677 92.3799V99.3799L752.315 99.375C748.609 99.2828 745.639 97.7619 743.404 94.8125C741.19 91.6754 740.082 86.7848 740.082 80.1416ZM726.809 81.7744C726.933 87.8079 727.99 93.0308 729.979 97.4424C732.194 102.148 735.146 105.746 738.837 108.237C742.383 110.486 746.335 111.681 750.692 111.821L751.569 111.836C754.856 111.836 758.022 111.187 761.065 109.89L761.673 109.621C764.902 108.053 767.716 106.161 770.115 103.946V106.438C770.115 108.098 770.715 109.436 771.914 110.451C773.125 111.403 774.539 111.908 776.155 111.968L776.481 111.974C778.211 111.974 779.698 111.447 780.941 110.393L781.188 110.175C782.479 108.975 783.17 107.453 783.263 105.607L785.2 25.0586C785.292 23.0288 784.647 21.3679 783.263 20.0762C781.971 18.6925 780.449 18.0001 778.696 18C776.851 18 775.236 18.6922 773.852 20.0762C772.56 21.3679 771.868 22.9369 771.775 24.7822L771.084 46.2344C766.153 44.2448 761.506 43.1878 757.144 43.0635L756.275 43.0508C750.463 43.0508 745.342 44.5271 740.913 47.4795C736.484 50.3397 733.023 54.5838 730.532 60.2119C728.041 65.8402 726.796 72.6227 726.796 80.5576L726.809 81.7744Z" fill="black"/>
<path d="M712.512 62.8418C712.512 60.5064 711.619 57.8874 709.835 54.9844L709.467 54.3994C707.437 51.2624 704.392 48.5865 700.332 46.3721C696.365 44.0655 691.567 42.9121 685.938 42.9121C679.849 42.9121 674.405 44.5275 669.607 47.7568C664.902 50.9862 661.211 55.2765 658.535 60.6279C655.952 65.8869 654.66 71.4228 654.66 77.2354C654.66 84.3399 656.136 90.522 659.089 95.7812C662.041 100.948 666.102 104.962 671.269 107.822C676.528 110.59 682.433 111.974 688.983 111.974C693.228 111.974 697.472 111.005 701.716 109.067C705.781 107.164 709.077 104.897 711.602 102.264L712.097 101.732C713.204 100.441 713.757 99.0563 713.757 97.5801C713.757 95.8271 713.111 94.3508 711.819 93.1514C710.62 91.952 709.097 91.3525 707.252 91.3525C705.684 91.3526 704.161 92.0902 702.685 93.5664C698.902 97.5339 694.335 99.5176 688.983 99.5176V92.5176C692.369 92.5176 695.121 91.3564 697.619 88.7363L697.677 88.6758L697.735 88.6172C700.075 86.2774 703.276 84.3526 707.252 84.3525L707.91 84.3662C711.149 84.5074 714.218 85.7017 716.672 88.1074C719.323 90.6128 720.757 93.9098 720.757 97.5801C720.757 100.979 719.43 103.933 717.411 106.288L717.352 106.356L717.291 106.425C713.951 110.123 709.667 113.075 704.684 115.407L704.653 115.422L704.623 115.436C699.558 117.748 694.327 118.974 688.983 118.974C681.415 118.974 674.372 117.366 668.008 114.017L667.942 113.982L667.878 113.946C661.58 110.46 656.595 105.525 653.012 99.2539L652.998 99.2314L652.985 99.208C649.349 92.7299 647.66 85.3256 647.66 77.2354C647.66 70.3437 649.202 63.7526 652.253 57.541L652.264 57.5195L652.274 57.4971C655.454 51.1378 659.915 45.9178 665.646 41.9844L665.699 41.9492C671.715 37.9002 678.534 35.9121 685.938 35.9121C692.495 35.9121 698.543 37.2555 703.78 40.2812C708.581 42.9157 712.566 46.3032 715.344 50.5967C717.764 54.3368 719.512 58.4849 719.512 62.8418C719.512 65.5723 718.646 68.0582 717.229 70.1846C715.806 72.318 713.909 73.9589 711.822 75.2109L711.766 75.2451L711.709 75.2773L683.134 91.6963C684.88 92.2304 686.817 92.5176 688.983 92.5176V99.5176C684.924 99.5176 681.233 98.7336 677.911 97.165C674.682 95.5965 672.422 93.3817 671.13 90.5215L708.221 69.208C709.518 68.4295 710.532 67.5296 711.262 66.5078L711.404 66.3018C712.096 65.2638 712.464 64.1854 712.507 63.0664L712.512 62.8418ZM686.907 55.3682C689.675 55.3682 692.075 55.8757 694.104 56.8906C696.134 57.8133 697.702 59.2441 698.81 61.1816L667.255 79.0352C667.255 77.0977 667.347 75.4367 667.531 74.0527C668.085 68.7935 670.115 64.364 673.621 60.7656C677.219 57.1674 681.648 55.3682 686.907 55.3682Z" fill="black"/>
<path d="M640.376 62.8418C640.376 60.5065 639.484 57.8873 637.7 54.9844L637.331 54.3994C635.301 51.2624 632.256 48.5864 628.196 46.3721C624.229 44.0656 619.431 42.9121 613.803 42.9121C607.713 42.9122 602.269 44.5276 597.472 47.7568C592.766 50.9861 589.075 55.2766 586.399 60.6279C583.816 65.8869 582.524 71.4228 582.524 77.2354C582.524 84.3399 584.001 90.5221 586.953 95.7812C589.906 100.948 593.966 104.962 599.133 107.822C604.392 110.59 610.297 111.974 616.848 111.974C620.827 111.974 624.806 111.123 628.785 109.42L629.581 109.067C633.646 107.164 636.941 104.896 639.466 102.264L639.961 101.732C641.068 100.441 641.621 99.0563 641.621 97.5801C641.621 95.8271 640.975 94.3508 639.684 93.1514C638.484 91.952 636.961 91.3525 635.116 91.3525C633.548 91.3527 632.026 92.0905 630.55 93.5664L630.192 93.9326C626.48 97.656 622.032 99.5176 616.848 99.5176V92.5176C620.233 92.5176 622.985 91.3564 625.483 88.7363L625.541 88.6758L625.6 88.6172C627.939 86.2775 631.14 84.3527 635.116 84.3525L635.775 84.3662C639.014 84.5076 642.083 85.702 644.536 88.1074C647.188 90.6129 648.621 93.9098 648.621 97.5801C648.621 100.979 647.294 103.933 645.275 106.288L645.216 106.356L645.155 106.425C641.815 110.123 637.531 113.075 632.548 115.407L632.518 115.422L632.487 115.436C627.422 117.748 622.191 118.974 616.848 118.974C609.279 118.974 602.236 117.366 595.872 114.017L595.807 113.982L595.742 113.946C589.445 110.46 584.459 105.525 580.876 99.2539L580.862 99.2314L580.85 99.208C577.213 92.7299 575.524 85.3256 575.524 77.2354C575.524 70.3437 577.066 63.7526 580.117 57.541L580.128 57.5195L580.139 57.4971C583.318 51.1378 587.779 45.9178 593.511 41.9844L593.563 41.9492C599.579 37.9001 606.399 35.9122 613.803 35.9121C620.359 35.9121 626.407 37.2555 631.645 40.2812C636.445 42.9157 640.43 46.3032 643.208 50.5967C645.628 54.3368 647.376 58.4849 647.376 62.8418C647.376 65.5723 646.51 68.0582 645.093 70.1846C643.67 72.318 641.773 73.9589 639.687 75.2109L639.63 75.2451L639.573 75.2773L610.998 91.6963C612.744 92.2304 614.681 92.5176 616.848 92.5176V99.5176C612.788 99.5176 609.097 98.7335 605.775 97.165C602.546 95.5965 600.286 93.3816 598.994 90.5215L636.085 69.208C637.469 68.3776 638.53 67.409 639.269 66.3018C639.96 65.2638 640.328 64.1854 640.371 63.0664L640.376 62.8418ZM614.771 55.3682C617.539 55.3682 619.939 55.8757 621.969 56.8906C623.999 57.8133 625.567 59.2441 626.674 61.1816L595.119 79.0352C595.119 77.0977 595.211 75.4366 595.396 74.0527C595.949 68.7935 597.979 64.364 601.485 60.7656C605.084 57.1674 609.512 55.3682 614.771 55.3682Z" fill="black"/>
<path d="M514.922 35.7783C518.443 35.8657 521.604 37.2837 524.027 39.8379C524.758 40.5789 525.389 41.3778 525.918 42.2256C526.139 42.0559 526.362 41.8894 526.588 41.7256L527.069 41.374C532.06 37.7991 537.683 35.9121 543.777 35.9121C549.993 35.9122 555.792 37.3607 560.427 41.0127C565.139 44.7255 567.931 50.3419 569.521 56.6885L569.669 57.2822C571.159 63.4753 571.813 71.5054 571.813 81.1104V81.1504L571.675 105.331H571.676C571.676 108.849 570.415 112.027 568.166 114.621L568.087 114.712L568.006 114.8C565.414 117.591 561.998 118.974 558.309 118.974C554.634 118.974 551.394 117.549 548.827 115.153L548.65 114.989L548.486 114.812C546.167 112.327 544.666 109.153 544.666 105.469V82.4951C544.666 75.4228 544.343 70.3404 543.792 67.0371C543.515 65.3745 543.204 64.2039 542.918 63.4277C542.8 63.1087 542.701 62.9051 542.641 62.7871C542.608 62.7857 542.572 62.7832 542.531 62.7832C541.928 62.7832 540.724 63.0143 538.812 64.6719L538.761 64.7158L538.709 64.7598C536.807 66.3451 534.728 68.8924 532.603 72.7354L532.592 72.7529L532.582 72.7715C530.73 76.0729 529.527 79.1439 528.869 81.9932C528.193 84.924 527.803 88.7021 527.803 93.4287V105.054C527.803 108.536 526.732 111.963 524.191 114.734C521.507 117.773 517.881 118.974 514.298 118.974C510.623 118.974 507.383 117.549 504.816 115.153L504.728 115.071L504.643 114.986C502.182 112.526 500.654 109.319 500.654 105.607V49.417C500.654 45.5753 502.193 42.1705 504.954 39.5938C507.597 37.1271 510.906 35.7745 514.574 35.7744L514.922 35.7783ZM507.654 105.607C507.654 107.268 508.3 108.744 509.592 110.036C510.889 111.247 512.35 111.891 513.972 111.967L514.298 111.974C516.328 111.974 517.896 111.328 519.003 110.036C520.127 108.825 520.726 107.29 520.796 105.431L520.803 105.054V93.4287C520.803 88.6714 521.168 84.5625 521.897 81.1025L522.048 80.4189C522.878 76.8206 524.354 73.1296 526.477 69.3467C528.726 65.281 531.137 62.1076 533.711 59.8262L534.228 59.3818C536.995 56.983 539.763 55.7832 542.531 55.7832C544.746 55.7832 546.499 56.5218 547.791 57.998C549.083 59.3821 550.051 62.0118 550.697 65.8867C551.343 69.7619 551.666 75.2983 551.666 82.4951V105.469C551.666 107.13 552.312 108.652 553.604 110.036C554.987 111.328 556.556 111.974 558.309 111.974C560.154 111.974 561.677 111.328 562.876 110.036C564 108.739 564.598 107.279 564.668 105.657L564.676 105.331L564.813 81.1104C564.813 71.4225 564.121 63.8567 562.737 58.4131C561.397 53.0503 559.277 49.1592 556.378 46.7402L556.095 46.5107C553.24 44.2618 549.453 43.0673 544.733 42.9268L543.777 42.9121C539.072 42.9121 534.735 44.3884 530.768 47.3408C526.8 50.2011 523.525 54.3996 520.941 59.9355V49.417C520.941 47.6871 520.373 46.2004 519.238 44.957L519.003 44.7119C517.803 43.4202 516.327 42.7744 514.574 42.7744C512.729 42.7745 511.114 43.4203 509.73 44.7119L509.479 44.957C508.263 46.2005 507.654 47.687 507.654 49.417V105.607Z" fill="black"/>
<path d="M387.199 49.5557C387.199 45.8751 388.567 42.5197 391.187 39.9004L391.272 39.8145L391.36 39.7324C394.003 37.2657 397.312 35.9121 400.98 35.9121C404.611 35.9121 407.925 37.2446 410.528 39.7949C410.668 39.9272 410.805 40.0617 410.938 40.1982C415.327 37.2257 420.474 35.6358 426.308 35.6357C432.141 35.6357 437.958 37.2483 441.818 42.0674H441.82C445.052 46.0019 446.594 50.6972 446.594 55.7832V59.9355C446.594 63.6162 445.226 66.9714 442.606 69.5908C439.972 72.2248 436.612 73.4403 433.09 73.4404C429.49 73.4404 425.605 72.3403 422.792 69.0586L422.695 68.9453L422.603 68.8271C421.684 67.6584 420.992 66.4006 420.504 65.0869C419.521 65.9851 418.716 66.8696 418.067 67.7344L417.992 67.835L417.913 67.9326C416.493 69.6914 415.741 71.1909 415.387 72.4268C415.002 74.1514 414.763 76.4175 414.763 79.3115V79.3301L414.762 79.3486L414.624 105.645L414.623 105.644C414.612 109.508 412.9 112.749 410.324 115.153C407.839 117.473 404.664 118.974 400.98 118.974C397.305 118.974 394.066 117.549 391.499 115.153C388.915 112.741 387.199 109.488 387.199 105.607V49.5557ZM394.199 105.607C394.199 107.268 394.891 108.744 396.275 110.036C397.659 111.328 399.227 111.974 400.98 111.974C402.538 111.974 403.973 111.406 405.287 110.271L405.548 110.036C406.845 108.825 407.534 107.452 407.615 105.917L407.624 105.607L407.763 79.3115C407.763 75.9899 408.039 73.1294 408.593 70.7305C409.198 68.4815 410.371 66.2324 412.112 63.9834L412.468 63.5342C413.852 61.6889 415.604 59.9352 417.727 58.2744C419.941 56.6136 421.879 55.7832 423.54 55.7832C425.57 55.7833 426.585 56.5218 426.585 57.998V59.7969L426.591 60.1396C426.65 61.8373 427.156 63.2919 428.107 64.5029C429.145 65.7137 430.67 66.3569 432.681 66.4326L433.09 66.4404C434.82 66.4403 436.266 65.9133 437.428 64.8594L437.656 64.6416C438.948 63.3499 439.594 61.7809 439.594 59.9355V55.7832C439.594 52.185 438.533 49.0941 436.411 46.5107C434.445 44.008 431.223 42.7179 426.745 42.6396L426.308 42.6357C418.465 42.6358 412.284 46.3267 407.763 53.708V49.5557C407.763 47.7103 407.071 46.1413 405.687 44.8496C404.395 43.5579 402.826 42.9121 400.98 42.9121C399.135 42.9121 397.521 43.5581 396.137 44.8496L395.902 45.0957C394.767 46.3391 394.199 47.8257 394.199 49.5557V105.607Z" fill="black"/>
<path d="M375.485 62.8418C375.485 60.5064 374.594 57.8874 372.81 54.9844L372.441 54.3994C370.538 51.4584 367.743 48.9231 364.056 46.793L363.307 46.3721C359.587 44.2097 355.138 43.061 349.959 42.9258L348.913 42.9121C342.823 42.9121 337.38 44.5275 332.582 47.7568C327.876 50.9862 324.185 55.2765 321.51 60.6279C318.926 65.887 317.635 71.4227 317.635 77.2354L317.639 77.8984C317.728 84.7253 319.203 90.6863 322.063 95.7812C325.016 100.948 329.075 104.962 334.242 107.822C339.337 110.504 345.039 111.886 351.346 111.97L351.958 111.974C356.202 111.974 360.446 111.005 364.69 109.067C368.756 107.164 372.051 104.897 374.576 102.264L375.07 101.732C376.108 100.522 376.66 99.2295 376.725 97.8564L376.731 97.5801C376.731 95.8271 376.086 94.3508 374.794 93.1514C373.594 91.9519 372.072 91.3525 370.227 91.3525C368.658 91.3526 367.135 92.0902 365.659 93.5664C361.876 97.5338 357.309 99.5175 351.958 99.5176V92.5176C355.343 92.5175 358.096 91.3564 360.594 88.7363L360.65 88.6758L360.71 88.6172C363.05 86.2774 366.25 84.3526 370.227 84.3525L370.885 84.3662C374.118 84.5073 377.183 85.6984 379.635 88.0967C382.293 90.6034 383.731 93.9045 383.731 97.5801C383.731 100.979 382.405 103.933 380.386 106.288L380.326 106.356L380.266 106.425C376.925 110.123 372.641 113.075 367.658 115.407L367.628 115.422L367.598 115.436C362.532 117.748 357.301 118.974 351.958 118.974C344.389 118.974 337.347 117.366 330.982 114.017L330.917 113.982L330.853 113.946C324.555 110.46 319.569 105.525 315.985 99.2539L315.973 99.2314L315.96 99.208C312.323 92.7299 310.635 85.3256 310.635 77.2354C310.635 70.3437 312.175 63.7526 315.227 57.541L315.238 57.5195L315.249 57.4971C318.429 51.1378 322.89 45.9178 328.621 41.9844L328.647 41.9668L328.673 41.9492C334.689 37.9 341.509 35.9121 348.913 35.9121C355.495 35.9121 361.564 37.2651 366.815 40.3154C371.588 42.945 375.552 46.3214 378.318 50.5967C380.738 54.3368 382.485 58.485 382.485 62.8418C382.485 65.5723 381.621 68.0583 380.203 70.1846C378.781 72.318 376.884 73.9589 374.797 75.2109L374.74 75.2451L374.683 75.2773L346.107 91.6963C347.854 92.2305 349.791 92.5176 351.958 92.5176V99.5176L351.201 99.5088C347.438 99.4169 344 98.6356 340.886 97.165C337.656 95.5965 335.396 93.3817 334.104 90.5215L371.195 69.208C372.493 68.4295 373.506 67.5296 374.236 66.5078L374.379 66.3018C375.117 65.1946 375.485 64.0412 375.485 62.8418ZM350.396 55.374C352.948 55.4335 355.176 55.9391 357.079 56.8906C359.109 57.8133 360.677 59.2442 361.784 61.1816L330.229 79.0352C330.229 77.0977 330.321 75.4367 330.506 74.0527C331.059 68.7935 333.09 64.364 336.596 60.7656C340.194 57.1674 344.623 55.3682 349.882 55.3682L350.396 55.374Z" fill="black"/>
<path d="M250.031 35.7783C253.553 35.8655 256.714 37.2835 259.138 39.8379C259.868 40.5791 260.499 41.3785 261.028 42.2266C261.249 42.0568 261.473 41.8895 261.698 41.7256L262.18 41.374C267.17 37.7993 272.792 35.9122 278.887 35.9121C285.102 35.9121 290.902 37.3606 295.537 41.0127C300.249 44.7255 303.041 50.342 304.632 56.6885L304.778 57.2822C306.269 63.4754 306.924 71.5053 306.924 81.1104V81.1504L306.785 105.371L306.784 105.37C306.775 108.872 305.517 112.036 303.276 114.621L303.197 114.712L303.115 114.8C300.523 117.591 297.108 118.974 293.419 118.974C289.744 118.974 286.505 117.549 283.938 115.153L283.761 114.989L283.596 114.812C281.276 112.327 279.775 109.153 279.775 105.469V82.4951C279.775 75.4228 279.453 70.3404 278.902 67.0371C278.625 65.3745 278.313 64.2039 278.027 63.4277C277.91 63.1089 277.812 62.9051 277.751 62.7871C277.719 62.7857 277.682 62.7832 277.642 62.7832C277.038 62.7832 275.835 63.0142 273.922 64.6719L273.871 64.7158L273.818 64.7598C271.916 66.3451 269.838 68.8926 267.712 72.7354L267.702 72.7529L267.692 72.7715C265.84 76.0729 264.636 79.1439 263.979 81.9932C263.302 84.924 262.912 88.7022 262.912 93.4287V105.054C262.912 108.527 261.848 111.945 259.322 114.712C256.636 117.768 253 118.974 249.408 118.974C245.733 118.974 242.493 117.549 239.926 115.153L239.838 115.071L239.752 114.986C237.292 112.526 235.765 109.319 235.765 105.607V49.417C235.765 45.5753 237.304 42.1705 240.064 39.5938C242.707 37.1271 246.016 35.7744 249.685 35.7744L250.031 35.7783ZM242.765 105.607C242.765 107.268 243.41 108.744 244.702 110.036C246 111.247 247.459 111.891 249.081 111.967L249.408 111.974C251.438 111.974 253.006 111.328 254.113 110.036C255.313 108.744 255.912 107.084 255.912 105.054V93.4287C255.912 88.6714 256.277 84.5624 257.007 81.1025L257.158 80.4189C257.989 76.8205 259.465 73.1296 261.587 69.3467C263.986 65.0103 266.569 61.6885 269.337 59.3818C272.105 56.9829 274.874 55.7832 277.642 55.7832L278.051 55.792C280.073 55.8784 281.689 56.614 282.9 57.998L283.139 58.2725C284.312 59.7159 285.201 62.2538 285.807 65.8867C286.453 69.7619 286.775 75.2983 286.775 82.4951V105.469C286.775 107.129 287.421 108.652 288.713 110.036C290.097 111.328 291.666 111.974 293.419 111.974C295.149 111.974 296.595 111.406 297.758 110.271L297.986 110.036C299.111 108.739 299.708 107.279 299.778 105.657L299.785 105.331L299.924 81.1104C299.924 71.4225 299.232 63.8567 297.848 58.4131C296.464 52.8771 294.249 48.9097 291.204 46.5107C288.159 44.112 284.053 42.9121 278.887 42.9121C274.181 42.9122 269.844 44.3883 265.877 47.3408C261.91 50.2011 258.634 54.3996 256.051 59.9355V49.417C256.051 47.687 255.483 46.2005 254.348 44.957L254.113 44.7119C252.914 43.4202 251.438 42.7744 249.685 42.7744C247.839 42.7744 246.225 43.4202 244.841 44.7119L244.589 44.957C243.373 46.2004 242.765 47.6871 242.765 49.417V105.607Z" fill="black"/>
<path d="M213.069 11.6973C216.776 11.795 219.974 13.3999 222.394 15.9922H222.393C224.783 18.4568 226.373 21.7144 226.21 25.5557L226.073 30.7793L226.071 30.8613L226.066 30.9443C225.889 34.4834 224.497 37.6825 221.986 40.2109C222.101 40.3244 222.215 40.4393 222.327 40.5576C224.88 43.1617 226.214 46.4768 226.214 50.1094V50.1533L226.213 50.1973L225.521 105.28L225.521 105.279C225.498 109.067 223.984 112.398 221.396 114.986C218.776 117.606 215.421 118.974 211.74 118.974C208.072 118.974 204.763 117.62 202.12 115.153L201.943 114.989L201.779 114.812C199.313 112.17 197.959 108.861 197.959 105.192V105.104L198.651 50.0215C198.673 46.3753 200.04 43.0527 202.639 40.4541C202.743 40.3495 202.849 40.2466 202.956 40.1455C202.897 40.088 202.836 40.0321 202.777 39.9736L202.691 39.8877L202.609 39.7998C200.173 37.1891 198.781 33.8662 198.93 30.1289L199.068 25.0078L199.071 24.9189L199.075 24.8291C199.262 21.2737 200.732 18.1406 203.192 15.6807C205.735 13.1377 209.014 11.6924 212.709 11.6924L213.069 11.6973ZM212.709 18.6924C210.956 18.6924 209.433 19.3382 208.142 20.6299C206.85 21.9216 206.158 23.4442 206.065 25.1973L205.928 30.3184C205.836 32.0712 206.435 33.6396 207.727 35.0234C209.111 36.4074 210.68 37.0996 212.433 37.0996C214.162 37.0995 215.608 36.5725 216.771 35.5186L216.999 35.3008C218.291 34.009 218.983 32.4401 219.075 30.5947L219.214 25.3359C219.306 23.6752 218.66 22.1525 217.276 20.7686C215.985 19.3846 214.462 18.6924 212.709 18.6924ZM204.959 105.192C204.959 107.038 205.605 108.652 206.896 110.036C208.28 111.328 209.895 111.974 211.74 111.974C213.47 111.974 214.957 111.406 216.2 110.271L216.446 110.036C217.743 108.739 218.432 107.239 218.514 105.536L218.521 105.192L219.214 50.1094C219.214 48.264 218.568 46.6951 217.276 45.4033C215.985 44.0195 214.37 43.3272 212.433 43.3271C210.587 43.3271 208.972 44.0193 207.588 45.4033C206.296 46.695 205.65 48.2641 205.65 50.1094L204.959 105.192Z" fill="black"/>
<path d="M181.457 48.8633C178.228 47.4101 175.104 46.169 172.087 45.1396L170.8 44.7119C167.386 43.5124 163.557 42.9121 159.312 42.9121C152.762 42.9121 146.949 44.804 141.874 48.5869C136.892 52.3698 133.017 57.3061 130.249 63.3955C127.481 69.3927 126.097 75.6206 126.097 82.0791L126.11 83.1621C126.245 88.5415 127.394 93.3937 129.557 97.7188C131.863 102.24 135.047 105.746 139.106 108.237C143.166 110.728 147.733 111.974 152.808 111.974C159.543 111.974 164.802 109.944 168.585 105.885V107.822C168.585 109.483 169.139 110.821 170.246 111.836C171.37 112.787 172.779 113.292 174.471 113.352L174.813 113.358C176.543 113.358 178.03 112.75 179.273 111.533L179.519 111.282C180.73 109.985 181.374 108.484 181.449 106.781L181.457 106.438V48.8633ZM139.521 81.8027C139.521 77.5643 140.251 73.5692 141.711 69.8174L142.013 69.0703C143.57 65.2645 145.735 62.1881 148.508 59.8418L149.071 59.3818C152.116 56.8908 155.622 55.6455 159.59 55.6455L160.175 55.6514C163.089 55.7162 165.8 56.2677 168.309 57.3057L167.894 93.4287C166.233 94.9972 164.111 96.3352 161.527 97.4424C159.036 98.5496 156.452 99.1025 153.776 99.1025V92.1025C155.454 92.1025 157.07 91.762 158.684 91.0449L158.77 91.0078C159.591 90.6556 160.307 90.2883 160.933 89.9199L161.245 62.7178C160.712 62.6694 160.16 62.6455 159.59 62.6455C157.223 62.6455 155.287 63.3413 153.504 64.7998L153.454 64.8408L153.403 64.8809C151.427 66.4376 149.756 68.6301 148.491 71.7207L148.48 71.7471L148.47 71.7725C147.185 74.8404 146.521 78.1615 146.521 81.8027C146.521 86.5153 147.577 88.9377 148.608 90.1602C149.537 91.2608 150.928 92.1025 153.776 92.1025V99.1025C149.255 99.1025 145.749 97.6263 143.258 94.6738C140.923 91.9059 139.682 87.9621 139.536 82.8428L139.521 81.8027ZM188.457 106.438C188.457 110.106 187.104 113.416 184.637 116.059C182.06 118.819 178.655 120.358 174.813 120.358C171.616 120.358 168.402 119.445 165.725 117.18L165.618 117.09L165.517 116.996C165.391 116.881 165.269 116.763 165.15 116.645C161.411 118.232 157.247 118.974 152.808 118.974C146.529 118.974 140.679 117.415 135.445 114.203C130.215 110.994 126.173 106.49 123.321 100.9L123.296 100.85C120.445 95.147 119.097 88.8394 119.097 82.0791C119.097 74.5843 120.71 67.3573 123.893 60.4619C127.106 53.4077 131.682 47.5369 137.642 43.0117L137.69 42.9746C144.018 38.2574 151.311 35.9121 159.312 35.9121C164.152 35.9121 168.727 36.5894 172.958 38.0527H172.959C176.644 39.2478 180.435 40.728 184.329 42.4805L188.457 44.3379V106.438Z" fill="black"/>
<path d="M67.7441 49.5557C67.7441 45.8751 69.1121 42.5198 71.7314 39.9004L71.8164 39.8145L71.9053 39.7324C74.5482 37.2657 77.8568 35.9121 81.5254 35.9121C85.1619 35.9121 88.4796 37.2493 91.085 39.8076C91.2206 39.9361 91.3538 40.0658 91.4834 40.1982C95.872 37.2258 101.019 35.6357 106.853 35.6357C112.686 35.6357 118.503 37.2482 122.363 42.0674H122.365C125.597 46.0019 127.139 50.6972 127.139 55.7832V59.9355C127.139 63.6161 125.771 66.9715 123.151 69.5908C120.517 72.2249 117.156 73.4404 113.634 73.4404C110.035 73.4404 106.15 72.3401 103.337 69.0586L103.239 68.9453L103.147 68.8271C102.229 67.6584 101.537 66.4006 101.049 65.0869C100.066 65.9852 99.2609 66.8696 98.6123 67.7344L98.5371 67.835L98.458 67.9326C97.039 69.6896 96.2875 71.1878 95.9326 72.4229C95.5469 74.148 95.3066 76.4153 95.3066 79.3115V79.3486L95.168 105.607C95.168 109.488 93.4532 112.741 90.8691 115.153C88.3841 117.473 85.2092 118.974 81.5254 118.974C77.8503 118.974 74.6109 117.549 72.0439 115.153C69.4597 112.741 67.7441 109.488 67.7441 105.607V49.5557ZM74.7441 105.607C74.7441 107.268 75.4355 108.744 76.8193 110.036C78.117 111.247 79.5772 111.891 81.1992 111.967L81.5254 111.974C83.0824 111.974 84.5173 111.406 85.8311 110.271L86.0928 110.036C87.3901 108.825 88.079 107.452 88.1602 105.917L88.1689 105.607L88.3066 79.3115C88.3066 75.9899 88.5841 73.1294 89.1377 70.7305C89.7433 68.4814 90.9163 66.2324 92.6572 63.9834L93.0127 63.5342C94.3967 61.6888 96.1494 59.9352 98.2715 58.2744C100.486 56.6136 102.424 55.7832 104.085 55.7832C106.115 55.7833 107.129 56.5219 107.129 57.998V59.7969C107.129 61.6422 107.636 63.2112 108.651 64.5029C109.689 65.714 111.214 66.357 113.226 66.4326L113.634 66.4404C115.364 66.4404 116.81 65.9135 117.973 64.8594L118.201 64.6416C119.493 63.3499 120.139 61.7809 120.139 59.9355V55.7832C120.139 52.185 119.078 49.0941 116.956 46.5107C114.99 44.0081 111.767 42.7179 107.29 42.6396L106.853 42.6357C99.0099 42.6357 92.8277 46.3267 88.3066 53.708V49.5557C88.3066 47.7103 87.6145 46.1413 86.2305 44.8496C85.0196 43.6389 83.5655 42.9956 81.8682 42.9199L81.5254 42.9121C79.6802 42.9121 78.0656 43.5581 76.6816 44.8496L76.4463 45.0957C75.3112 46.3391 74.7441 47.8258 74.7441 49.5557V105.607Z" fill="black"/>
<path d="M30.584 105.934C30.6597 107.55 31.3037 108.964 32.5146 110.175C33.8985 111.466 35.4668 112.112 37.2197 112.112C38.9497 112.112 40.4363 111.544 41.6797 110.409L41.9258 110.175C43.1367 108.964 43.7798 107.55 43.8555 105.934L43.8633 105.607V56.1992H55.627L55.9697 56.1914C57.554 56.1208 58.9264 55.5555 60.0869 54.4961L60.333 54.2607C61.5439 52.9633 62.1871 51.5037 62.2627 49.8818L62.2705 49.5557C62.2705 47.7393 61.7026 46.2068 60.5674 44.958L60.333 44.7119C59.1219 43.5009 57.6674 42.8569 55.9697 42.7812L55.627 42.7744V35.7744C59.3075 35.7744 62.6629 37.1425 65.2822 39.7617C67.9725 42.452 69.2705 45.8865 69.2705 49.5557C69.2705 53.2307 67.846 56.4702 65.4502 59.0371L65.3682 59.126L65.2822 59.2109C62.6629 61.8302 59.3075 63.1992 55.627 63.1992H50.8633V105.607C50.8633 109.302 49.4179 112.581 46.875 115.124C44.2556 117.743 40.9004 119.112 37.2197 119.112C33.5447 119.112 30.3052 117.688 27.7383 115.292L27.6504 115.21L27.5645 115.124C25.0217 112.581 23.5771 109.302 23.5771 105.607V63.1992H19.6436C15.963 63.1992 12.6076 61.8302 9.98828 59.2109L9.90234 59.126L9.82031 59.0371C7.42452 56.4701 6.00003 53.2307 6 49.5557C6 45.7427 7.39602 42.1045 10.4912 39.4219H10.4922C13.1029 37.0659 16.3388 35.7744 19.9199 35.7744V42.7744L19.5771 42.7812C17.874 42.8568 16.3738 43.5008 15.0762 44.7119C13.6922 45.9114 13 47.5258 13 49.5557C13 51.3086 13.646 52.8768 14.9375 54.2607C16.1486 55.4718 17.6031 56.1158 19.3008 56.1914L19.6436 56.1992H30.5771V105.607L30.584 105.934ZM43.8633 27.9648C43.8632 26.1197 43.2173 24.5514 41.9258 23.2598C40.7263 21.8758 39.1573 21.1836 37.2197 21.1836C35.3745 21.1837 33.8063 21.8758 32.5146 23.2598L32.2793 23.5215C31.1443 24.8404 30.5772 26.3216 30.5771 27.9648V42.7744H19.9199V35.7744H23.5771V27.9648C23.5772 24.2899 25.0017 21.0503 27.3975 18.4834C29.9742 15.7228 33.3781 14.1837 37.2197 14.1836L37.5781 14.1875C41.1925 14.2748 44.5307 15.6886 47.0449 18.4834C49.5533 21.0767 50.8632 24.3649 50.8633 27.9648V35.7744H55.627V42.7744H43.8633V27.9648Z" fill="black"/>
</svg>
