<svg width="134" height="100" viewBox="0 0 134 100" fill="none" xmlns="http://www.w3.org/2000/svg">
<g clip-path="url(#clip0_1084_607)">
<rect width="134" height="100" rx="15" fill="#EEEEEE"/>
<path d="M126.007 48.9715C125.983 48.2952 125.986 47.6249 126.016 46.9604C126.176 43.2883 125.58 39.7466 124.227 36.3355C123.039 33.3423 121.485 30.551 119.564 27.9618C117.815 25.7956 115.697 24.0485 113.211 22.7205C111.638 21.8781 110.069 21.015 108.503 20.131C107.868 19.7692 107.225 19.4221 106.572 19.0899C105.285 18.4492 104.347 17.4852 103.76 16.1978C102.354 13.1248 101.728 9.90946 101.883 6.5517C101.977 5.99999 102.093 5.4542 102.23 4.91435C102.39 4.26771 102.52 3.61515 102.621 2.95665C102.722 2.31001 102.796 1.66634 102.844 1.02564C102.838 0.995978 102.826 0.963352 102.808 0.927758C102.796 0.898095 102.784 0.868433 102.772 0.838771C102.755 0.809109 102.734 0.779447 102.71 0.749785C102.692 0.726055 102.672 0.699357 102.648 0.669695C102.624 0.645965 102.6 0.622236 102.577 0.598507C102.547 0.580709 102.517 0.562914 102.488 0.545117C102.458 0.52732 102.425 0.512489 102.39 0.500624C102.36 0.482826 102.328 0.470959 102.292 0.465027C102.256 0.453162 102.221 0.444265 102.185 0.438332C102.15 0.4324 102.114 0.4324 102.078 0.438332C102.049 0.438332 102.016 0.438332 101.98 0.438332C101.945 0.444265 101.909 0.453162 101.874 0.465027C101.859 0.468016 101.841 0.47098 101.82 0.473923C101.783 0.467991 101.741 0.465027 101.696 0.465027C99.8388 0.506554 97.979 0.527319 96.1162 0.527319C94.2653 0.533251 92.4203 0.491722 90.5813 0.402735C88.7066 0.313749 86.829 0.245527 84.9484 0.198068C83.1687 0.156541 81.386 0.144674 79.6004 0.162471C77.8028 0.180268 76.0053 0.189171 74.2078 0.189171C72.3747 0.195104 70.5415 0.180273 68.7084 0.144678C68.0381 0.138746 67.3707 0.115011 66.7062 0.0734844C64.9206 -0.0214344 63.1379 -0.0243985 61.3581 0.064588C61.0378 0.0823853 60.7174 0.0853493 60.3971 0.0734844C59.9081 0.0555481 59.5729 0.209792 59.3915 0.536215C59.3741 0.545624 59.3563 0.554521 59.3381 0.56291C59.2788 0.622234 59.2225 0.684528 59.1691 0.749785C59.1216 0.809109 59.0801 0.877331 59.0445 0.954452C59.0267 0.990047 59.0119 1.02861 59 1.07013C59.4153 3.36598 59.881 5.6648 60.3971 7.96658C60.6351 9.03868 60.8279 10.1154 60.9755 11.1968C60.9058 11.2762 60.8346 11.3563 60.7619 11.4371C60.7501 11.4667 60.7412 11.4964 60.7352 11.526C60.7293 11.5854 60.7263 11.6447 60.7263 11.704C60.7263 11.7633 60.7293 11.8227 60.7352 11.882C60.7471 11.9116 60.756 11.9413 60.7619 11.971C60.7738 12.0006 60.7886 12.0303 60.8064 12.06C60.8242 12.0837 60.842 12.1074 60.8598 12.1311C60.8776 12.1608 60.8954 12.1875 60.9132 12.2112C60.9429 12.235 60.9725 12.2587 61.0022 12.2824C61.0423 12.31 61.0838 12.3337 61.1268 12.3536C61.2557 13.5049 61.3358 14.6617 61.367 15.8241C61.456 19.3302 61.7467 22.8273 62.2391 26.3156C62.7315 29.8395 63.2684 33.3544 63.8498 36.8605C64.4252 40.3606 64.7159 43.8785 64.7218 47.4143C64.7218 47.8829 64.7723 48.3397 64.8731 48.7847C65.2528 50.4161 65.3002 52.0356 65.0155 53.6433C64.8375 54.64 64.6922 55.4705 64.5795 56.1349C63.9921 59.6588 63.1883 63.1293 62.1679 66.5464C61.1297 69.9931 60.4327 73.5081 60.0767 77.0913C59.7267 80.6033 59.531 84.1212 59.4894 87.645C59.442 91.2935 59.6288 94.9271 60.05 98.5459C60.0678 98.5815 60.0886 98.62 60.1123 98.6616C60.1361 98.6972 60.1628 98.7328 60.1924 98.7684C60.2162 98.8039 60.2458 98.8366 60.2814 98.8662C60.317 98.8959 60.3526 98.9226 60.3882 98.9463C60.4772 98.9819 60.5662 99.0057 60.6552 99.0175C60.7441 99.0353 60.8331 99.0383 60.9221 99.0264C61.0111 99.0086 61.1001 98.9849 61.1891 98.9552C61.2113 98.9425 61.2321 98.9277 61.2514 98.9107C61.2845 98.9153 61.3171 98.9183 61.3492 98.9196C62.3993 98.9552 63.4464 99.0324 64.4905 99.151C65.6145 99.2772 66.7357 99.4225 67.8542 99.587C70.2686 99.8481 72.7336 100.124 75.2489 100.415C78.8025 100.818 82.3441 101.331 85.8739 101.954C89.4215 102.583 92.9187 103.36 96.3654 104.286C96.401 104.303 96.4396 104.318 96.4811 104.33C96.5167 104.342 96.5552 104.354 96.5968 104.366C96.6383 104.372 96.6828 104.375 96.7303 104.375C96.7599 104.375 96.7896 104.372 96.8192 104.366C96.8489 104.366 96.8786 104.363 96.9082 104.357C96.9379 104.345 96.9676 104.333 96.9972 104.321C97.0269 104.315 97.0536 104.303 97.0773 104.286C97.1307 104.25 97.1811 104.214 97.2286 104.179C97.2642 104.131 97.2968 104.078 97.3265 104.019C97.3621 103.953 97.3888 103.885 97.4066 103.814C97.4303 103.743 97.4451 103.669 97.451 103.591C97.451 103.562 97.4481 103.532 97.4421 103.502C97.4421 103.473 97.4362 103.443 97.4243 103.413C97.4184 103.378 97.4065 103.345 97.3887 103.316C97.3787 103.293 97.3668 103.269 97.3532 103.244C97.8077 101.667 98.2763 100.089 98.7591 98.5103C99.8566 94.9212 100.785 91.2905 101.544 87.6184C101.812 86.318 102.07 85.0159 102.319 83.7119C102.79 84.3437 103.22 85.0081 103.609 85.7051C104.327 86.9866 104.994 88.2947 105.611 89.6294C105.848 90.1456 105.991 90.4422 106.038 90.5193C106.483 91.4329 106.961 92.3346 107.471 93.2245C109.203 96.2263 110.965 99.2103 112.757 102.177C114.519 105.087 116.474 107.845 118.621 110.452C118.621 110.463 118.621 110.471 118.621 110.479C118.621 110.509 118.624 110.541 118.63 110.577C118.636 110.607 118.642 110.636 118.648 110.666C118.659 110.696 118.671 110.725 118.683 110.755C118.695 110.779 118.707 110.805 118.719 110.835C118.754 110.882 118.796 110.927 118.843 110.968C118.885 111.016 118.932 111.054 118.986 111.084C119.033 111.114 119.087 111.14 119.146 111.164C119.205 111.176 119.268 111.182 119.333 111.182C119.404 111.182 119.475 111.173 119.546 111.155C119.612 111.137 119.677 111.117 119.742 111.093C121.237 110.043 122.78 109.034 124.369 108.067C127.46 106.181 130.486 104.197 133.446 102.114C136.375 100.049 139.424 98.1922 142.594 96.5437C142.607 96.5508 142.618 96.5568 142.629 96.5615C142.677 96.5734 142.724 96.5823 142.772 96.5882C142.849 96.6001 142.929 96.606 143.012 96.606C143.083 96.5882 143.152 96.5645 143.217 96.5348C143.276 96.5111 143.332 96.4784 143.386 96.4369C143.439 96.3954 143.49 96.3509 143.537 96.3034C143.561 96.2738 143.582 96.2441 143.599 96.2144C143.611 96.1848 143.626 96.1551 143.644 96.1255C143.656 96.0899 143.665 96.0543 143.671 96.0187C143.688 95.9475 143.703 95.8763 143.715 95.8051C143.709 95.6805 143.68 95.5648 143.626 95.4581C143.413 95.0191 143.258 94.5623 143.163 94.0877C143.086 93.7123 142.974 93.3474 142.825 92.9931C142.644 92.5871 142.469 92.1748 142.3 91.7562C141.707 90.2494 141.093 88.8286 140.458 87.4938C139.702 85.9173 138.934 84.3393 138.153 82.7597C138.16 82.7771 138.166 82.7919 138.171 82.8042C138.183 82.8339 138.195 82.8665 138.207 82.9021C137.756 81.8402 137.272 80.7397 136.756 79.6007C136.205 78.3667 135.635 77.1417 135.048 75.9255C133.387 72.4491 131.838 68.9193 130.403 65.3361C129.045 61.9446 127.592 58.6016 126.042 55.3074C126.099 53.2006 126.088 51.0887 126.007 48.9715ZM120.516 32.2332C120.932 33.0341 121.338 33.832 121.735 34.6269C123.379 37.9076 124.254 41.3157 124.361 44.8515C124.47 48.3404 124.512 51.8346 124.485 55.3341V55.343V55.3519C124.486 55.4476 124.486 55.5425 124.485 55.6366C124.485 55.6722 124.488 55.7078 124.494 55.7434C124.5 55.779 124.509 55.8146 124.521 55.8502C124.527 55.8858 124.536 55.9184 124.547 55.9481C124.565 55.9777 124.58 56.0104 124.592 56.046C124.616 56.0697 124.636 56.0964 124.654 56.1261C124.678 56.1498 124.702 56.1765 124.725 56.2061C124.749 56.2299 124.776 56.2506 124.805 56.2684C124.824 56.2872 124.845 56.302 124.868 56.3129C125.689 58.4058 126.543 60.4941 127.431 62.5776C128.92 66.0718 130.462 69.5363 132.058 72.9712C133.633 76.3499 135.152 79.7581 136.614 83.1957C136.611 83.1866 136.608 83.1777 136.605 83.169C137.329 84.7589 138.076 86.334 138.848 87.8942C139.565 89.3477 140.262 90.9138 140.939 92.5927C141.14 93.097 141.271 93.4025 141.33 93.5093C141.396 93.6754 141.44 93.8474 141.464 94.0254C141.505 94.3398 141.603 94.7195 141.757 95.1644C141.781 95.2311 141.804 95.2963 141.829 95.3602C141.654 95.4516 141.479 95.5435 141.304 95.636C138.142 97.3149 135.101 99.1896 132.182 101.26C129.24 103.336 126.217 105.282 123.115 107.097C121.9 107.81 120.746 108.581 119.653 109.411C117.892 106.999 116.205 104.511 114.59 101.945C112.632 98.8307 110.743 95.6776 108.921 92.4859C108.471 91.691 108.067 90.8753 107.711 90.0388C106.453 87.0608 104.774 84.3111 102.675 81.7897C102.945 80.2903 103.203 78.7864 103.449 77.2781C103.983 73.9738 104.686 70.7109 105.558 67.4896C105.57 67.4659 105.584 67.4451 105.602 67.4273C105.679 67.3205 105.756 67.2138 105.834 67.107C105.843 67.0925 105.852 67.0777 105.86 67.0625C105.891 67.0662 105.92 67.0692 105.949 67.0714C107.521 66.223 108.838 64.9565 109.9 63.2717C111.781 60.2877 113.335 57.1405 114.563 53.8302C115.856 50.336 116.5 46.738 116.494 43.0361C116.488 38.7589 115.07 35.0511 112.241 31.9128C112.175 31.895 112.107 31.8832 112.036 31.8772C111.971 31.8654 111.905 31.8654 111.84 31.8772C111.769 31.8832 111.701 31.895 111.635 31.9128C111.576 31.9484 111.517 31.987 111.458 32.0285C111.404 32.07 111.357 32.1175 111.315 32.1709C111.274 32.2302 111.235 32.2896 111.199 32.3489C111.182 32.4141 111.17 32.4824 111.164 32.5535C111.152 32.6188 111.152 32.6841 111.164 32.7493C111.17 32.8205 111.182 32.8887 111.199 32.954C111.538 33.3633 111.855 33.7964 112.152 34.2532C114.186 37.3499 115.085 40.7551 114.848 44.4688C114.617 48.0639 113.807 51.5314 112.419 54.8713C112.08 55.6841 111.745 56.4968 111.413 57.3096C110.082 60.5644 108.145 63.3289 105.602 65.6031C105.593 65.6007 105.584 65.5977 105.576 65.5942C105.516 65.5823 105.454 65.5764 105.389 65.5764C105.323 65.5705 105.261 65.5735 105.202 65.5853C105.137 65.5972 105.074 65.6179 105.015 65.6476C104.962 65.6713 104.905 65.701 104.846 65.7366C104.674 65.9324 104.534 66.1548 104.428 66.404C103.656 68.1363 103.084 69.9546 102.71 71.8589C102.016 75.3887 101.358 78.9244 100.735 82.466C100.118 85.9899 99.3731 89.4841 98.5011 92.9486C97.68 96.194 96.8198 99.4183 95.9205 102.621C95.1962 102.378 94.4487 102.173 93.678 102.007C90.2965 101.278 86.9477 100.664 83.6314 100.165C80.0327 99.6195 76.4288 99.136 72.8196 98.715C72.8444 98.7223 72.8682 98.7282 72.8908 98.7328C72.3213 98.6556 71.7518 98.5904 71.1822 98.537C70.1862 98.4443 69.1925 98.3346 68.2012 98.2077C68.1961 98.2102 68.1901 98.2102 68.1834 98.2077C68.1738 98.2088 68.1649 98.2088 68.1567 98.2077C68.1463 98.2061 68.1345 98.2031 68.1211 98.1988C68.0912 98.197 68.0585 98.194 68.0232 98.1899C68.0356 98.193 68.0445 98.196 68.0499 98.1988C68.0413 98.1953 68.0295 98.1923 68.0143 98.1899C67.2933 98.097 66.5725 97.9962 65.852 97.8874C64.4172 97.6763 62.9816 97.5487 61.545 97.5048C61.2587 94.7859 61.1014 92.06 61.0734 89.3269C61.0259 85.5301 61.1831 81.7423 61.545 77.9633C61.895 74.2912 62.5891 70.6842 63.6273 67.1426C63.8943 66.2231 64.1434 65.2946 64.3748 64.3573C65.2587 60.7741 66.0566 57.1702 66.7685 53.5454C66.8872 52.9463 66.8842 52.353 66.7596 51.7657C66.3859 49.9682 66.1871 48.1499 66.1634 46.3108C66.1219 42.6861 65.7986 39.0792 65.1935 35.4901C64.7435 32.8038 64.3431 30.1135 63.9921 27.419C64.3879 27.2152 64.7853 27.0135 65.1846 26.8139C65.9914 26.4164 66.8367 26.1673 67.7207 26.0664C69.5538 25.8588 71.3602 25.488 73.1399 24.9541C73.7866 24.7643 74.4273 24.5537 75.0621 24.3223C76.7409 23.7113 78.4435 23.1862 80.1699 22.7472C81.9318 22.3023 83.6789 21.8129 85.4112 21.279C87.1968 20.7213 89.0092 20.2675 90.8482 19.9175C92.622 19.5793 94.3958 19.2293 96.1696 18.8674C97.0536 18.6895 97.9405 18.5471 98.8303 18.4403C100.169 18.2779 101.501 18.1088 102.826 17.9331C103.189 18.3672 103.61 18.7528 104.089 19.0899C107.026 21.1425 110.063 23.035 113.202 24.7672C116.423 26.541 118.861 29.0297 120.516 32.2332ZM99.7202 8.72297C99.8388 8.7467 99.9575 8.78526 100.076 8.83865C100.151 8.87151 100.231 8.89227 100.316 8.90094C100.39 11.3531 100.871 13.7498 101.758 16.091C101.894 16.4454 102.054 16.7806 102.239 17.0966C102.233 17.0961 102.227 17.0961 102.221 17.0966C100.969 17.2034 99.7232 17.3695 98.4833 17.5949C97.0832 17.8441 95.6832 18.1051 94.2831 18.378C94.3069 18.378 94.3276 18.375 94.3454 18.3691C94.3632 18.3691 94.384 18.3691 94.4077 18.3691C92.5865 18.5886 90.7889 18.9297 89.0151 19.3924C87.2413 19.8552 85.4705 20.3357 83.7026 20.834C81.9526 21.3264 80.2055 21.8158 78.4613 22.3023C77.5833 22.5515 76.7142 22.8244 75.854 23.121C74.1277 23.7202 72.3776 24.2363 70.6038 24.6693C70.2657 24.7524 69.9246 24.8058 69.5805 24.8295C68.2338 24.9185 66.9465 25.2181 65.7185 25.7283C65.2735 25.9122 64.8197 26.0694 64.357 26.1999C64.1808 26.2517 64.0147 26.314 63.8587 26.3868C63.7851 25.8019 63.7139 25.2176 63.6451 24.6337C63.4909 23.2989 63.4078 21.9642 63.3959 20.6294C63.3757 17.5867 63.1265 14.5553 62.6484 11.5349C63.1736 11.1058 63.7045 10.6787 64.2413 10.2535C66.9999 8.05854 70.1559 6.89875 73.7095 6.77417C77.2808 6.64365 80.8521 6.64365 84.4234 6.77417C85.8709 6.82163 87.3096 6.91951 88.7393 7.06782C92.4292 7.44157 96.0896 7.99328 99.7202 8.72297ZM60.664 1.58625C60.8255 1.56885 60.9916 1.53326 61.1624 1.47947C62.5479 1.39253 63.9361 1.38066 65.3269 1.44388C67.1423 1.53286 68.9606 1.58329 70.7818 1.59516C72.6031 1.60702 74.4273 1.61295 76.2545 1.61295C78.0698 1.61295 79.8851 1.62185 81.7004 1.63965C83.5336 1.65745 85.3667 1.67821 87.1998 1.70194C88.1312 1.70787 89.0626 1.73754 89.994 1.79093C91.8093 1.89178 93.6276 1.93924 95.4488 1.9333C97.2582 1.92737 99.0706 1.92441 100.886 1.92441C100.933 1.92441 100.984 1.92441 101.037 1.92441C101.054 1.92441 101.069 1.92441 101.082 1.92441C101.064 2.05907 101.049 2.19551 101.037 2.33374C100.954 3.22954 100.794 4.10754 100.557 4.96774C100.367 5.64997 100.296 6.32923 100.343 7.00553C100.333 7.19361 100.324 7.38048 100.316 7.56614C98.2117 6.96315 96.1087 6.50042 94.0073 6.17796C92.2038 5.89913 90.3944 5.71523 88.5791 5.62624C85.0493 5.44827 81.5225 5.29699 77.9986 5.17241C75.3527 5.07749 72.7395 5.32369 70.1589 5.911C67.189 6.58943 64.5906 7.90346 62.3637 9.8531C62.3259 9.62486 62.2814 9.39646 62.2302 9.1679C61.9217 7.78564 61.6577 6.39152 61.4382 4.98554C61.261 3.82445 61.003 2.69135 60.664 1.58625ZM87.6981 28.1487C87.6922 28.1309 87.6833 28.1131 87.6714 28.0953C87.6596 28.0775 87.6477 28.0627 87.6358 28.0508C87.624 28.033 87.6121 28.0182 87.6002 28.0063C87.5824 27.9885 87.5646 27.9737 87.5468 27.9618C87.5291 27.944 87.5113 27.9322 87.4935 27.9262C87.4697 27.9144 87.446 27.9055 87.4223 27.8996C87.4045 27.8936 87.3837 27.8877 87.36 27.8818C87.3363 27.8758 87.3125 27.8729 87.2888 27.8729C87.2651 27.8729 87.2413 27.8758 87.2176 27.8818C87.1939 27.8877 87.1731 27.8936 87.1553 27.8996C87.1316 27.9055 87.1079 27.9144 87.0841 27.9262C87.0663 27.9322 87.0485 27.944 87.0307 27.9618C87.0129 27.9737 86.9951 27.9885 86.9773 28.0063C86.9655 28.0182 86.9536 28.0301 86.9417 28.0419C86.9299 28.0597 86.918 28.0775 86.9062 28.0953C86.8943 28.1131 86.8854 28.1309 86.8795 28.1487C86.9447 29.1632 87.0634 30.1806 87.2354 31.2009C87.5498 32.9985 87.9176 34.7871 88.3388 36.5668C88.76 38.3466 89.2435 40.1085 89.7893 41.8526C90.3292 43.5968 90.9758 45.3023 91.7292 46.9693C92.4826 48.6304 93.3517 50.2233 94.3365 51.7479C95.351 53.3141 96.6264 54.5925 98.1629 55.5832C98.1807 55.5832 98.2015 55.5862 98.2252 55.5921C98.243 55.5921 98.2638 55.5921 98.2875 55.5921C98.3112 55.5921 98.335 55.5892 98.3587 55.5832C98.3824 55.5773 98.4062 55.5714 98.4299 55.5654C98.4536 55.5595 98.4773 55.5506 98.5011 55.5387C98.5189 55.5269 98.5367 55.515 98.5545 55.5031C98.5663 55.4913 98.5782 55.4794 98.5901 55.4675C98.6079 55.4498 98.6197 55.4349 98.6257 55.4231C98.6375 55.4053 98.6494 55.3904 98.6613 55.3786C98.6731 55.3608 98.682 55.343 98.688 55.3252C98.6939 55.3074 98.6998 55.2896 98.7058 55.2718C98.7117 55.2481 98.7146 55.2273 98.7146 55.2095C98.7206 55.1917 98.7235 55.1739 98.7235 55.1561C98.7235 55.1324 98.7235 55.1116 98.7235 55.0938C98.7117 55.0582 98.6998 55.0226 98.688 54.987C98.6702 54.9514 98.6524 54.9188 98.6346 54.8891C98.6108 54.8535 98.5841 54.8239 98.5545 54.8002C98.5307 54.7705 98.5041 54.7468 98.4744 54.729C98.4625 54.7171 98.4477 54.7082 98.4299 54.7023C98.4121 54.6904 98.3913 54.6845 98.3676 54.6845C98.3557 54.6785 98.3439 54.6726 98.332 54.6667C97.8278 54.3701 97.3798 54.0022 96.9883 53.5632C95.7959 52.2284 94.7726 50.778 93.9183 49.2118C93.0581 47.6397 92.2928 46.0261 91.6224 44.3709C90.9283 42.6624 90.344 40.9153 89.8694 39.1296C89.3889 37.2965 88.9617 35.4515 88.588 33.5947C88.2202 31.7794 87.9236 29.964 87.6981 28.1487ZM84.6014 24.9185C84.5895 24.9066 84.5747 24.8948 84.5569 24.8829C84.5391 24.871 84.5213 24.8621 84.5035 24.8562C84.4857 24.8503 84.4679 24.8444 84.4501 24.8384C84.4264 24.8325 84.4027 24.8265 84.3789 24.8206C84.1179 24.8443 83.9221 24.9719 83.7916 25.2033C82.967 26.6211 82.531 28.1695 82.4835 29.8483C82.4301 31.6755 82.5577 33.4879 82.8662 35.2854C83.1687 37.0889 83.581 38.8716 84.1031 40.6335C84.6133 42.3717 85.2718 44.0565 86.0786 45.6879C86.8972 47.3372 87.7604 48.9597 88.6681 50.5555C89.5876 52.1691 90.7978 53.5098 92.2987 54.5777C92.3106 54.5896 92.3254 54.5985 92.3432 54.6044C92.361 54.6103 92.3788 54.6162 92.3966 54.6222C92.4144 54.6281 92.4322 54.6311 92.45 54.6311C92.4737 54.637 92.4945 54.64 92.5123 54.64C92.536 54.64 92.5568 54.637 92.5746 54.6311C92.5983 54.6311 92.6191 54.6281 92.6369 54.6222C92.6547 54.6162 92.6725 54.6103 92.6903 54.6044C92.7081 54.5925 92.7259 54.5836 92.7437 54.5777C92.7615 54.5658 92.7763 54.554 92.7882 54.5421C92.806 54.5302 92.8208 54.5184 92.8326 54.5065C92.8445 54.4946 92.8564 54.4798 92.8682 54.462C92.8801 54.4501 92.892 54.4353 92.9038 54.4175C92.9157 54.3938 92.9276 54.373 92.9394 54.3552C92.9454 54.3315 92.9483 54.3078 92.9483 54.284C92.9543 54.2603 92.9602 54.2366 92.9661 54.2128C92.9661 54.1891 92.9632 54.1654 92.9572 54.1416C92.9572 54.1179 92.9543 54.0972 92.9483 54.0794C92.9424 54.0556 92.9365 54.0349 92.9305 54.0171C92.6576 53.7383 92.3729 53.4654 92.0763 53.1984C90.7533 52.0178 89.6677 50.6386 88.8194 49.0605C87.9651 47.4706 87.1494 45.86 86.3722 44.2286C85.5832 42.5912 84.9633 40.8916 84.5124 39.1296C84.0556 37.3855 83.7323 35.6206 83.5425 33.8349C83.4475 32.9273 83.3853 32.0137 83.3556 31.0942C83.3022 29.2254 83.6463 27.4517 84.3878 25.7728C84.4056 25.755 84.4234 25.7372 84.4412 25.7194C84.459 25.7075 84.4768 25.6957 84.4946 25.6838C84.5183 25.6719 84.5391 25.6601 84.5569 25.6482C84.5747 25.6423 84.5925 25.6334 84.6103 25.6215C84.6222 25.6096 84.634 25.5948 84.6459 25.577C84.6637 25.5651 84.6785 25.5503 84.6904 25.5325C84.7023 25.5206 84.7111 25.5058 84.7171 25.488C84.7289 25.4702 84.7378 25.4524 84.7438 25.4346C84.7497 25.4168 84.7556 25.399 84.7616 25.3812C84.7675 25.3575 84.7705 25.3338 84.7705 25.31C84.7764 25.2863 84.7794 25.2626 84.7794 25.2389C84.7734 25.2211 84.7705 25.2003 84.7705 25.1766C84.7645 25.1528 84.7556 25.1291 84.7438 25.1054C84.7378 25.0816 84.7289 25.0609 84.7171 25.0431C84.7052 25.0253 84.6934 25.0105 84.6815 24.9986C84.6696 24.9808 84.6578 24.966 84.6459 24.9541C84.634 24.9363 84.6192 24.9244 84.6014 24.9185ZM122.136 57.7723C121.721 58.0808 121.314 58.413 120.917 58.7689C119.641 59.908 118.235 60.8453 116.699 61.5809C115.922 61.9547 115.127 62.275 114.314 62.542C113.478 62.8208 112.769 63.1916 112.187 63.6543C112.187 63.7018 112.196 63.7463 112.214 63.7878C112.232 63.8293 112.258 63.8679 112.294 63.9035C112.324 63.9391 112.362 63.9658 112.41 63.9836C112.831 63.948 113.249 63.8501 113.664 63.6899C115.272 63.0611 116.835 62.3284 118.354 61.4919C119.873 60.6555 121.234 59.6173 122.438 58.3774C122.45 58.3655 122.459 58.3507 122.465 58.3329C122.483 58.3092 122.498 58.2825 122.51 58.2528C122.521 58.2291 122.527 58.2024 122.527 58.1727C122.533 58.1371 122.536 58.1045 122.536 58.0749C122.524 58.0155 122.501 57.9592 122.465 57.9058C122.43 57.8583 122.382 57.8227 122.323 57.799C122.263 57.7753 122.201 57.7664 122.136 57.7723Z" fill="black"/>
<path d="M61.1624 1.47957C60.9916 1.53336 60.8255 1.56895 60.6641 1.58635C61.003 2.69145 61.2611 3.82454 61.4382 4.98563C61.6577 6.39162 61.9217 7.78574 62.2302 9.16799C62.2815 9.39656 62.326 9.62496 62.3637 9.85319C64.5906 7.90355 67.189 6.58952 70.1589 5.91109C72.7395 5.32378 75.3528 5.07759 77.9986 5.17251C81.5225 5.29709 85.0493 5.44836 88.5791 5.62634C90.3944 5.71532 92.2038 5.89923 94.0073 6.17805C96.1087 6.50051 98.2117 6.96324 100.316 7.56624C100.324 7.38057 100.333 7.1937 100.343 7.00563C100.296 6.32933 100.367 5.65006 100.557 4.96783C100.794 4.10763 100.954 3.22963 101.037 2.33384C101.049 2.19561 101.064 2.05916 101.082 1.9245C101.069 1.9245 101.054 1.9245 101.037 1.9245C100.984 1.9245 100.933 1.9245 100.886 1.9245C99.0706 1.9245 97.2583 1.92747 95.4489 1.9334C93.6276 1.93933 91.8093 1.89187 89.994 1.79102C89.0626 1.73763 88.1312 1.70797 87.1998 1.70204C85.3667 1.67831 83.5336 1.65754 81.7005 1.63974C79.8851 1.62195 78.0698 1.61305 76.2545 1.61305C74.4273 1.61305 72.6031 1.60712 70.7818 1.59525C68.9606 1.58339 67.1423 1.53296 65.327 1.44397C63.9361 1.38076 62.5479 1.39262 61.1624 1.47957Z" fill="#FFCAA1"/>
<path d="M100.076 8.83876C99.9578 8.78537 99.8391 8.74681 99.7205 8.72308C96.0899 7.99339 92.4295 7.44167 88.7396 7.06793C87.3099 6.91962 85.8712 6.82174 84.4237 6.77428C80.8524 6.64376 77.2811 6.64376 73.7098 6.77428C70.1562 6.89886 67.0002 8.05865 64.2416 10.2536C63.7048 10.6788 63.1739 11.1059 62.6487 11.5351C63.1268 14.5554 63.376 17.5868 63.3962 20.6295C63.4081 21.9643 63.4912 23.2991 63.6454 24.6339C63.7142 25.2177 63.7854 25.802 63.859 26.3869C64.015 26.3141 64.1811 26.2518 64.3573 26.2C64.82 26.0695 65.2738 25.9123 65.7188 25.7284C66.9468 25.2182 68.2341 24.9186 69.5808 24.8296C69.9249 24.8059 70.266 24.7525 70.6041 24.6694C72.3779 24.2364 74.128 23.7203 75.8543 23.1211C76.7145 22.8245 77.5836 22.5516 78.4616 22.3024C80.2058 21.816 81.9529 21.3265 83.7029 20.8341C85.4708 20.3358 87.2416 19.8553 89.0154 19.3926C90.7892 18.9298 92.5868 18.5887 94.408 18.3692C94.3843 18.3692 94.3635 18.3692 94.3457 18.3692C94.3279 18.3751 94.3072 18.3781 94.2834 18.3781C95.6835 18.1052 97.0835 17.8442 98.4836 17.595C99.7235 17.3696 100.969 17.2035 102.221 17.0967C102.227 17.0962 102.233 17.0962 102.239 17.0967C102.054 16.7807 101.894 16.4455 101.758 16.0912C100.871 13.7499 100.39 11.3532 100.317 8.90105C100.232 8.89238 100.152 8.87162 100.076 8.83876ZM121.736 34.627C121.338 33.8321 120.932 33.0342 120.517 32.2333C118.861 29.0298 116.423 26.5411 113.202 24.7673C110.064 23.0351 107.026 21.1426 104.09 19.09C103.61 18.7529 103.189 18.3673 102.826 17.9332C101.501 18.1089 100.169 18.278 98.8306 18.4404C97.9408 18.5472 97.0539 18.6896 96.1699 18.8675C94.3961 19.2294 92.6223 19.5794 90.8485 19.9176C89.0095 20.2676 87.1971 20.7214 85.4115 21.2791C83.6792 21.813 81.9321 22.3024 80.1702 22.7473C78.4438 23.1863 76.7412 23.7114 75.0624 24.3224C74.4276 24.5538 73.7869 24.7644 73.1402 24.9542C71.3605 25.4881 69.5541 25.8589 67.721 26.0665C66.837 26.1674 65.9917 26.4165 65.1849 26.814C64.7856 27.0136 64.3882 27.2153 63.9924 27.4191C64.3434 30.1136 64.7438 32.8039 65.1938 35.4902C65.7989 39.0793 66.1222 42.6862 66.1637 46.3109C66.1874 48.15 66.3862 49.9683 66.7599 51.7658C66.8845 52.3531 66.8875 52.9464 66.7688 53.5455C66.0569 57.1703 65.259 60.7742 64.3751 64.3574C64.1437 65.2947 63.8946 66.2232 63.6276 67.1427C62.5894 70.6843 61.8953 74.2913 61.5453 77.9634C61.1834 81.7424 61.0262 85.5302 61.0737 89.327C61.1017 92.0601 61.259 94.786 61.5453 97.5049C62.9819 97.5488 64.4175 97.6764 65.8523 97.8875C66.5728 97.9963 67.2936 98.0971 68.0146 98.19C68.0298 98.1924 68.0416 98.1954 68.0502 98.199C68.0448 98.1961 68.0359 98.1931 68.0235 98.19C68.0588 98.1941 68.0915 98.1971 68.1214 98.199C68.1348 98.2032 68.1466 98.2062 68.157 98.2079C68.1652 98.2089 68.1741 98.2089 68.1837 98.2079C68.1904 98.2103 68.1964 98.2103 68.2015 98.2079C69.1928 98.3347 70.1865 98.4444 71.1825 98.5371C71.7521 98.5905 72.3216 98.6558 72.8911 98.7329C72.8685 98.7284 72.8447 98.7224 72.8199 98.7151C76.4291 99.1361 80.033 99.6196 83.6317 100.166C86.948 100.664 90.2968 101.278 93.6783 102.008C94.449 102.173 95.1965 102.378 95.9208 102.622C96.8201 99.4184 97.6803 96.1941 98.5014 92.9488C99.3734 89.4842 100.118 85.99 100.735 82.4661C101.358 78.9245 102.016 75.3888 102.71 71.859C103.084 69.9547 103.657 68.1364 104.428 66.4041C104.535 66.1549 104.674 65.9325 104.846 65.7367C104.905 65.7011 104.962 65.6714 105.015 65.6477C105.075 65.618 105.137 65.5973 105.202 65.5854C105.261 65.5736 105.324 65.5706 105.389 65.5765C105.454 65.5765 105.516 65.5825 105.576 65.5943C105.585 65.5978 105.593 65.6008 105.603 65.6032C108.146 63.329 110.083 60.5645 111.413 57.3097C111.746 56.4969 112.081 55.6842 112.419 54.8715C113.807 51.5315 114.617 48.064 114.848 44.4689C115.085 40.7552 114.187 37.35 112.152 34.2533C111.855 33.7965 111.538 33.3634 111.2 32.9541C111.182 32.8888 111.17 32.8206 111.164 32.7494C111.152 32.6842 111.152 32.6189 111.164 32.5536C111.17 32.4825 111.182 32.4142 111.2 32.349C111.235 32.2897 111.274 32.2303 111.315 32.171C111.357 32.1176 111.404 32.0702 111.458 32.0286C111.517 31.9871 111.576 31.9485 111.636 31.9129C111.701 31.8952 111.769 31.8833 111.84 31.8774C111.906 31.8655 111.971 31.8655 112.036 31.8774C112.107 31.8833 112.176 31.8952 112.241 31.9129C115.071 35.0512 116.489 38.759 116.494 43.0363C116.5 46.7381 115.857 50.3361 114.563 53.8303C113.335 57.1406 111.781 60.2878 109.901 63.2718C108.839 64.9566 107.522 66.2232 105.95 67.0715C105.921 67.0693 105.891 67.0663 105.861 67.0626C105.853 67.0778 105.844 67.0926 105.834 67.1071C105.757 67.2139 105.68 67.3207 105.603 67.4274C105.585 67.4452 105.57 67.466 105.558 67.4897C104.686 70.711 103.983 73.9739 103.449 77.2782C103.204 78.7865 102.946 80.2904 102.675 81.7899C104.774 84.3112 106.453 87.0609 107.711 90.0389C108.067 90.8754 108.471 91.6911 108.922 92.486C110.743 95.6777 112.632 98.8308 114.59 101.945C116.205 104.511 117.893 107 119.653 109.411C120.747 108.581 121.9 107.81 123.115 107.098C126.218 105.282 129.24 103.336 132.183 101.26C135.102 99.1897 138.142 97.315 141.304 95.6361C141.479 95.5436 141.654 95.4517 141.829 95.3603C141.805 95.2964 141.781 95.2312 141.758 95.1645C141.603 94.7196 141.506 94.3399 141.464 94.0255C141.44 93.8475 141.396 93.6755 141.331 93.5094C141.271 93.4026 141.141 93.0971 140.939 92.5928C140.263 90.9139 139.566 89.3478 138.848 87.8943C138.077 86.3341 137.329 84.759 136.605 83.1691C136.608 83.1778 136.611 83.1867 136.614 83.1958C135.152 79.7582 133.634 76.35 132.058 72.9713C130.462 69.5364 128.92 66.0719 127.431 62.5777C126.543 60.4942 125.689 58.4059 124.868 56.313C124.845 56.3021 124.825 56.2873 124.806 56.2685C124.776 56.2507 124.749 56.23 124.726 56.2062C124.702 56.1766 124.678 56.1499 124.654 56.1262C124.637 56.0965 124.616 56.0698 124.592 56.0461C124.58 56.0105 124.566 55.9778 124.548 55.9482C124.536 55.9185 124.527 55.8859 124.521 55.8503C124.509 55.8147 124.5 55.7791 124.494 55.7435C124.488 55.7079 124.485 55.6723 124.485 55.6367C124.486 55.5426 124.486 55.4477 124.485 55.352V55.3431V55.3342C124.512 51.8347 124.47 48.3405 124.361 44.8516C124.254 41.3159 123.379 37.9077 121.736 34.627ZM120.917 58.7691C121.315 58.4131 121.721 58.0809 122.136 57.7724C122.201 57.7665 122.264 57.7754 122.323 57.7991C122.382 57.8228 122.43 57.8584 122.465 57.9059C122.501 57.9593 122.525 58.0156 122.537 58.075C122.537 58.1046 122.534 58.1373 122.528 58.1728C122.528 58.2025 122.522 58.2292 122.51 58.2529C122.498 58.2826 122.483 58.3093 122.465 58.333C122.46 58.3508 122.451 58.3657 122.439 58.3775C121.234 59.6174 119.873 60.6556 118.354 61.492C116.836 62.3285 115.272 63.0612 113.665 63.69C113.249 63.8502 112.831 63.9481 112.41 63.9837C112.363 63.9659 112.324 63.9392 112.294 63.9036C112.259 63.868 112.232 63.8294 112.214 63.7879C112.196 63.7464 112.187 63.7019 112.187 63.6544C112.769 63.1917 113.478 62.8209 114.314 62.5421C115.127 62.2751 115.922 61.9548 116.699 61.581C118.236 60.8454 119.642 59.9081 120.917 58.7691ZM84.5572 24.883C84.575 24.8949 84.5898 24.9068 84.6017 24.9186C84.6195 24.9245 84.6343 24.9364 84.6462 24.9542C84.6581 24.9661 84.6699 24.9809 84.6818 24.9987C84.6937 25.0106 84.7055 25.0254 84.7174 25.0432C84.7292 25.061 84.7381 25.0818 84.7441 25.1055C84.7559 25.1292 84.7648 25.1529 84.7708 25.1767C84.7708 25.2004 84.7737 25.2212 84.7797 25.239C84.7797 25.2627 84.7767 25.2864 84.7708 25.3101C84.7708 25.3339 84.7678 25.3576 84.7619 25.3813C84.7559 25.3991 84.75 25.4169 84.7441 25.4347C84.7381 25.4525 84.7292 25.4703 84.7174 25.4881C84.7114 25.5059 84.7026 25.5207 84.6907 25.5326C84.6788 25.5504 84.664 25.5652 84.6462 25.5771C84.6343 25.5949 84.6225 25.6097 84.6106 25.6216C84.5928 25.6335 84.575 25.6424 84.5572 25.6483C84.5394 25.6602 84.5186 25.672 84.4949 25.6839C84.4771 25.6958 84.4593 25.7076 84.4415 25.7195C84.4237 25.7373 84.4059 25.7551 84.3881 25.7729C83.6466 27.4518 83.3025 29.2256 83.3559 31.0943C83.3856 32.0138 83.4478 32.9274 83.5428 33.8351C83.7326 35.6207 84.0559 37.3856 84.5127 39.1297C84.9636 40.8917 85.5835 42.5913 86.3725 44.2287C87.1497 45.8601 87.9654 47.4707 88.8197 49.0606C89.668 50.6387 90.7536 52.0179 92.0766 53.1985C92.3732 53.4655 92.6579 53.7384 92.9308 54.0172C92.9368 54.035 92.9427 54.0557 92.9486 54.0795C92.9546 54.0973 92.9575 54.118 92.9575 54.1418C92.9635 54.1655 92.9664 54.1892 92.9664 54.2129C92.9605 54.2367 92.9546 54.2604 92.9486 54.2841C92.9486 54.3079 92.9457 54.3316 92.9397 54.3553C92.9279 54.3731 92.916 54.3939 92.9041 54.4176C92.8923 54.4354 92.8804 54.4502 92.8685 54.4621C92.8567 54.4799 92.8448 54.4947 92.8329 54.5066C92.8211 54.5185 92.8062 54.5303 92.7885 54.5422C92.7766 54.5541 92.7618 54.5659 92.744 54.5778C92.7262 54.5837 92.7084 54.5926 92.6906 54.6045C92.6728 54.6104 92.655 54.6164 92.6372 54.6223C92.6194 54.6282 92.5986 54.6312 92.5749 54.6312C92.5571 54.6371 92.5363 54.6401 92.5126 54.6401C92.4948 54.6401 92.474 54.6371 92.4503 54.6312C92.4325 54.6312 92.4147 54.6282 92.3969 54.6223C92.3791 54.6164 92.3613 54.6104 92.3435 54.6045C92.3257 54.5986 92.3109 54.5897 92.299 54.5778C90.7981 53.51 89.5879 52.1692 88.6684 50.5556C87.7607 48.9598 86.8975 47.3373 86.0789 45.688C85.2721 44.0566 84.6136 42.3718 84.1034 40.6336C83.5813 38.8717 83.169 37.089 82.8665 35.2855C82.558 33.488 82.4304 31.6756 82.4838 29.8485C82.5313 28.1696 82.9673 26.6212 83.7919 25.2034C83.9224 24.972 84.1182 24.8445 84.3792 24.8207C84.403 24.8267 84.4267 24.8326 84.4504 24.8385C84.4682 24.8445 84.486 24.8504 84.5038 24.8563C84.5216 24.8623 84.5394 24.8712 84.5572 24.883ZM87.6717 28.0954C87.6836 28.1132 87.6925 28.131 87.6984 28.1488C87.9239 29.9641 88.2205 31.7795 88.5883 33.5948C88.962 35.4516 89.3892 37.2966 89.8697 39.1297C90.3443 40.9154 90.9286 42.6625 91.6227 44.3711C92.2931 46.0262 93.0584 47.6398 93.9186 49.2119C94.7729 50.7781 95.7962 52.2285 96.9886 53.5633C97.3801 54.0023 97.8281 54.3702 98.3323 54.6668C98.3442 54.6727 98.356 54.6786 98.3679 54.6846C98.3916 54.6846 98.4124 54.6905 98.4302 54.7024C98.448 54.7083 98.4628 54.7172 98.4747 54.7291C98.5044 54.7469 98.531 54.7706 98.5548 54.8003C98.5844 54.824 98.6111 54.8536 98.6349 54.8892C98.6527 54.9189 98.6705 54.9515 98.6883 54.9871C98.7001 55.0227 98.712 55.0583 98.7238 55.0939C98.7238 55.1117 98.7238 55.1325 98.7238 55.1562C98.7238 55.174 98.7209 55.1918 98.7149 55.2096C98.7149 55.2274 98.712 55.2482 98.7061 55.2719C98.7001 55.2897 98.6942 55.3075 98.6883 55.3253C98.6823 55.3431 98.6734 55.3609 98.6616 55.3787C98.6497 55.3905 98.6378 55.4054 98.626 55.4232C98.62 55.435 98.6082 55.4499 98.5904 55.4677C98.5785 55.4795 98.5666 55.4914 98.5548 55.5033C98.537 55.5151 98.5192 55.527 98.5014 55.5388C98.4776 55.5507 98.4539 55.5596 98.4302 55.5655C98.4065 55.5715 98.3827 55.5774 98.359 55.5833C98.3353 55.5893 98.3115 55.5922 98.2878 55.5922C98.2641 55.5922 98.2433 55.5922 98.2255 55.5922C98.2018 55.5863 98.181 55.5833 98.1632 55.5833C96.6267 54.5926 95.3513 53.3142 94.3368 51.748C93.352 50.2234 92.4829 48.6305 91.7295 46.9695C90.9761 45.3024 90.3295 43.5969 89.7896 41.8527C89.2438 40.1086 88.7603 38.3467 88.3391 36.5669C87.9179 34.7872 87.5501 32.9986 87.2357 31.2011C87.0637 30.1807 86.945 29.1633 86.8798 28.1488C86.8857 28.131 86.8946 28.1132 86.9065 28.0954C86.9183 28.0776 86.9302 28.0598 86.942 28.042C86.9539 28.0302 86.9658 28.0183 86.9776 28.0064C86.9954 27.9886 87.0132 27.9738 87.031 27.9619C87.0488 27.9442 87.0666 27.9323 87.0844 27.9264C87.1082 27.9145 87.1319 27.9056 87.1556 27.8997C87.1734 27.8937 87.1942 27.8878 87.2179 27.8819C87.2416 27.8759 87.2654 27.873 87.2891 27.873C87.3128 27.873 87.3365 27.8759 87.3603 27.8819C87.384 27.8878 87.4048 27.8937 87.4226 27.8997C87.4463 27.9056 87.47 27.9145 87.4938 27.9264C87.5116 27.9323 87.5294 27.9442 87.5471 27.9619C87.5649 27.9738 87.5827 27.9886 87.6005 28.0064C87.6124 28.0183 87.6243 28.0331 87.6361 28.0509C87.648 28.0628 87.6599 28.0776 87.6717 28.0954Z" fill="#333333"/>
<mask id="path-6-outside-1_1084_607" maskUnits="userSpaceOnUse" x="12" y="19" width="49" height="22" fill="black">
<rect fill="white" x="12" y="19" width="49" height="22"/>
<path d="M22.0391 29.3438C21.8203 30.5677 21.6901 31.8594 21.6484 33.2188C21.5964 34.901 21.3151 36.1224 20.8047 36.8828C20.1224 37.8984 18.9141 38.4062 17.1797 38.4062C15.1536 38.4062 14.1406 38.0052 14.1406 37.2031C14.1406 36.9167 14.2318 36.6849 14.4141 36.5078C14.5964 36.3307 14.8359 36.2422 15.1328 36.2422C15.3672 36.2422 15.7031 36.2865 16.1406 36.375C16.5781 36.4635 16.9661 36.5078 17.3047 36.5078C18.0807 36.5078 18.6536 36.2708 19.0234 35.7969C19.3776 35.3333 19.5859 34.5964 19.6484 33.5859C19.3828 33.8568 19.0833 34.0599 18.75 34.1953C18.4167 34.3307 18.0521 34.3984 17.6562 34.3984C16.6198 34.3984 15.776 34.0625 15.125 33.3906C14.4792 32.7135 14.1562 31.849 14.1562 30.7969C14.1562 29.3802 14.5885 28.2344 15.4531 27.3594C16.349 26.4531 17.5599 26 19.0859 26C19.5755 26 19.9974 26.0599 20.3516 26.1797C20.7057 26.2995 20.9922 26.4818 21.2109 26.7266C21.8724 26.8047 22.2031 27.1953 22.2031 27.8984C22.2031 28.2474 22.1484 28.7292 22.0391 29.3438ZM19.0078 27.7812C18.1276 27.7812 17.4427 28.0703 16.9531 28.6484C16.5156 29.1745 16.2969 29.8568 16.2969 30.6953C16.2969 31.3151 16.4141 31.7812 16.6484 32.0938C16.8828 32.4062 17.2344 32.5625 17.7031 32.5625C18.1302 32.5625 18.5599 32.3151 18.9922 31.8203C19.3984 31.3516 19.6302 30.888 19.6875 30.4297C19.7865 29.9297 19.901 29.151 20.0312 28.0938C19.8542 27.9896 19.6797 27.9115 19.5078 27.8594C19.3359 27.8073 19.1693 27.7812 19.0078 27.7812ZM25.7031 32.8516C25.7031 33.8411 25.3438 34.3359 24.625 34.3359C24.3125 34.3359 24.0547 34.237 23.8516 34.0391C23.6484 33.8411 23.5469 33.5859 23.5469 33.2734V22.4688C23.5469 22.1667 23.6562 21.9193 23.875 21.7266C24.0833 21.5495 24.3411 21.4609 24.6484 21.4609C24.9557 21.4609 25.2083 21.5547 25.4062 21.7422C25.6042 21.9245 25.7031 22.1667 25.7031 22.4688V32.8516ZM34.5312 29.4844C34.5312 29.8333 34.5339 30.3594 34.5391 31.0625C34.5443 31.7656 34.5469 32.2917 34.5469 32.6406C34.5469 32.75 34.5547 32.9141 34.5703 33.1328C34.5911 33.3464 34.6016 33.5078 34.6016 33.6172C34.6016 33.9089 34.4948 34.1484 34.2812 34.3359C34.0729 34.5286 33.8151 34.625 33.5078 34.625C33.0755 34.625 32.7604 34.4297 32.5625 34.0391C31.8958 34.2839 31.2057 34.4062 30.4922 34.4062C29.7526 34.4062 29.1302 34.25 28.625 33.9375C28.0573 33.5781 27.7188 33.0547 27.6094 32.3672C27.4062 31.0651 27.3047 29.901 27.3047 28.875C27.3047 28.1979 27.3828 27.4245 27.5391 26.5547C27.6432 25.9661 27.9948 25.6719 28.5938 25.6719C28.8958 25.6719 29.1536 25.7682 29.3672 25.9609C29.5807 26.1484 29.6875 26.388 29.6875 26.6797C29.6875 26.9089 29.6484 27.2682 29.5703 27.7578C29.4974 28.2474 29.4609 28.6198 29.4609 28.875C29.4609 29.6094 29.4844 30.2526 29.5312 30.8047C29.5833 31.3516 29.6589 31.8047 29.7578 32.1641C29.888 32.2214 30.013 32.2656 30.1328 32.2969C30.2578 32.3281 30.3776 32.3438 30.4922 32.3438C31.0703 32.3438 31.7057 32.2604 32.3984 32.0938C32.3984 31.6927 32.3958 31.237 32.3906 30.7266C32.3802 30.1172 32.375 29.6797 32.375 29.4141C32.375 28.3464 32.4245 27.4245 32.5234 26.6484C32.6016 26.0286 32.9557 25.7188 33.5859 25.7188C33.8932 25.7188 34.1562 25.8151 34.375 26.0078C34.5938 26.2005 34.6953 26.4427 34.6797 26.7344C34.5807 28.7188 34.5312 29.6354 34.5312 29.4844ZM41.5312 27.7109C41.4219 27.7109 41.2917 27.7083 41.1406 27.7031C40.9948 27.6927 40.8672 27.6875 40.7578 27.6875C40.5443 27.6875 40.2969 27.7083 40.0156 27.75C40.1094 29.8542 40.1562 31.2292 40.1562 31.875C40.1562 31.9427 40.1589 32.0703 40.1641 32.2578C40.1693 32.4401 40.1719 32.5885 40.1719 32.7031C40.1719 33.901 39.7943 34.5 39.0391 34.5C38.7526 34.5 38.5052 34.4115 38.2969 34.2344C38.0677 34.0469 37.9531 33.8125 37.9531 33.5312C37.9531 33.3438 37.9609 33.0625 37.9766 32.6875C37.9922 32.3125 38 32.0312 38 31.8438C38 31.2135 37.9531 29.8646 37.8594 27.7969C37.5365 27.7812 37.0469 27.7396 36.3906 27.6719C35.7396 27.599 35.4141 27.2604 35.4141 26.6562C35.4141 26.3646 35.513 26.1172 35.7109 25.9141C35.9089 25.7109 36.1641 25.6094 36.4766 25.6094C36.6693 25.6094 37.112 25.6406 37.8047 25.7031C37.7995 25.5365 37.7865 25.2604 37.7656 24.875C37.7448 24.5417 37.7344 24.2839 37.7344 24.1016C37.7344 23.8099 37.8411 23.5677 38.0547 23.375C38.2682 23.1823 38.526 23.0859 38.8281 23.0859C39.599 23.0859 39.9844 23.7344 39.9844 25.0312L39.9688 25.6719C40.2917 25.625 40.5547 25.6016 40.7578 25.6016C41.3568 25.6016 41.7656 25.6406 41.9844 25.7188C42.401 25.8646 42.6094 26.1823 42.6094 26.6719C42.6094 26.9688 42.5078 27.2161 42.3047 27.4141C42.1016 27.612 41.8438 27.7109 41.5312 27.7109ZM47.5 34.3594C46.2552 34.3594 45.237 34.0625 44.4453 33.4688C43.5703 32.8125 43.1328 31.888 43.1328 30.6953C43.1328 29.3776 43.4792 28.263 44.1719 27.3516C44.9427 26.3411 45.9818 25.8359 47.2891 25.8359C48.1953 25.8359 48.9479 25.9818 49.5469 26.2734C50.3333 26.6589 50.7266 27.2578 50.7266 28.0703C50.7266 28.6432 50.4062 29.151 49.7656 29.5938C49.474 29.7969 48.888 30.0938 48.0078 30.4844L45.375 31.6484C45.625 31.9193 45.9271 32.1224 46.2812 32.2578C46.6354 32.3932 47.0417 32.4609 47.5 32.4609C48.1979 32.4609 48.7891 32.3177 49.2734 32.0312C49.7057 31.776 50.0521 31.6484 50.3125 31.6484C50.8542 31.6484 51.125 31.9115 51.125 32.4375C51.125 33.0312 50.6901 33.5156 49.8203 33.8906C49.0911 34.2031 48.3177 34.3594 47.5 34.3594ZM47.2891 27.7266C46.8047 27.7266 46.3906 27.888 46.0469 28.2109C45.7031 28.5339 45.4271 29.0182 45.2188 29.6641C45.8073 29.4089 46.3932 29.1562 46.9766 28.9062C47.6797 28.5885 48.2396 28.2943 48.6562 28.0234C48.3073 27.8255 47.8516 27.7266 47.2891 27.7266ZM58.0156 28.2812C57.5 28.2812 57.1901 28.0651 57.0859 27.6328C56.8776 27.5964 56.6641 27.5781 56.4453 27.5781C55.1901 27.5781 54.5625 27.75 54.5625 28.0938C54.5625 28.2969 54.9401 28.5703 55.6953 28.9141C56.7266 29.388 57.4245 29.7578 57.7891 30.0234C58.5443 30.5703 58.9219 31.1875 58.9219 31.875C58.9219 32.7708 58.5052 33.4505 57.6719 33.9141C57 34.2839 56.1745 34.4688 55.1953 34.4688C54.5026 34.4688 53.8698 34.362 53.2969 34.1484C52.5156 33.8568 52.125 33.4271 52.125 32.8594C52.125 32.3385 52.4349 32.0781 53.0547 32.0781C53.2943 32.0781 53.6406 32.1536 54.0938 32.3047C54.5469 32.4557 54.8958 32.5312 55.1406 32.5312C56.1979 32.5312 56.7292 32.3177 56.7344 31.8906C56.7344 31.625 56.3672 31.3307 55.6328 31.0078C54.5599 30.5339 53.8724 30.1927 53.5703 29.9844C52.8359 29.4688 52.4688 28.8411 52.4688 28.1016C52.4688 27.0547 53.0234 26.349 54.1328 25.9844C54.7839 25.7708 55.7734 25.6641 57.1016 25.6641C57.6224 25.6641 58.0078 25.7318 58.2578 25.8672C58.6016 26.0495 58.7734 26.3854 58.7734 26.875C58.7734 27.8125 58.5208 28.2812 58.0156 28.2812Z"/>
</mask>
<path d="M22.0391 29.3438C21.8203 30.5677 21.6901 31.8594 21.6484 33.2188C21.5964 34.901 21.3151 36.1224 20.8047 36.8828C20.1224 37.8984 18.9141 38.4062 17.1797 38.4062C15.1536 38.4062 14.1406 38.0052 14.1406 37.2031C14.1406 36.9167 14.2318 36.6849 14.4141 36.5078C14.5964 36.3307 14.8359 36.2422 15.1328 36.2422C15.3672 36.2422 15.7031 36.2865 16.1406 36.375C16.5781 36.4635 16.9661 36.5078 17.3047 36.5078C18.0807 36.5078 18.6536 36.2708 19.0234 35.7969C19.3776 35.3333 19.5859 34.5964 19.6484 33.5859C19.3828 33.8568 19.0833 34.0599 18.75 34.1953C18.4167 34.3307 18.0521 34.3984 17.6562 34.3984C16.6198 34.3984 15.776 34.0625 15.125 33.3906C14.4792 32.7135 14.1562 31.849 14.1562 30.7969C14.1562 29.3802 14.5885 28.2344 15.4531 27.3594C16.349 26.4531 17.5599 26 19.0859 26C19.5755 26 19.9974 26.0599 20.3516 26.1797C20.7057 26.2995 20.9922 26.4818 21.2109 26.7266C21.8724 26.8047 22.2031 27.1953 22.2031 27.8984C22.2031 28.2474 22.1484 28.7292 22.0391 29.3438ZM19.0078 27.7812C18.1276 27.7812 17.4427 28.0703 16.9531 28.6484C16.5156 29.1745 16.2969 29.8568 16.2969 30.6953C16.2969 31.3151 16.4141 31.7812 16.6484 32.0938C16.8828 32.4062 17.2344 32.5625 17.7031 32.5625C18.1302 32.5625 18.5599 32.3151 18.9922 31.8203C19.3984 31.3516 19.6302 30.888 19.6875 30.4297C19.7865 29.9297 19.901 29.151 20.0312 28.0938C19.8542 27.9896 19.6797 27.9115 19.5078 27.8594C19.3359 27.8073 19.1693 27.7812 19.0078 27.7812ZM25.7031 32.8516C25.7031 33.8411 25.3438 34.3359 24.625 34.3359C24.3125 34.3359 24.0547 34.237 23.8516 34.0391C23.6484 33.8411 23.5469 33.5859 23.5469 33.2734V22.4688C23.5469 22.1667 23.6562 21.9193 23.875 21.7266C24.0833 21.5495 24.3411 21.4609 24.6484 21.4609C24.9557 21.4609 25.2083 21.5547 25.4062 21.7422C25.6042 21.9245 25.7031 22.1667 25.7031 22.4688V32.8516ZM34.5312 29.4844C34.5312 29.8333 34.5339 30.3594 34.5391 31.0625C34.5443 31.7656 34.5469 32.2917 34.5469 32.6406C34.5469 32.75 34.5547 32.9141 34.5703 33.1328C34.5911 33.3464 34.6016 33.5078 34.6016 33.6172C34.6016 33.9089 34.4948 34.1484 34.2812 34.3359C34.0729 34.5286 33.8151 34.625 33.5078 34.625C33.0755 34.625 32.7604 34.4297 32.5625 34.0391C31.8958 34.2839 31.2057 34.4062 30.4922 34.4062C29.7526 34.4062 29.1302 34.25 28.625 33.9375C28.0573 33.5781 27.7188 33.0547 27.6094 32.3672C27.4062 31.0651 27.3047 29.901 27.3047 28.875C27.3047 28.1979 27.3828 27.4245 27.5391 26.5547C27.6432 25.9661 27.9948 25.6719 28.5938 25.6719C28.8958 25.6719 29.1536 25.7682 29.3672 25.9609C29.5807 26.1484 29.6875 26.388 29.6875 26.6797C29.6875 26.9089 29.6484 27.2682 29.5703 27.7578C29.4974 28.2474 29.4609 28.6198 29.4609 28.875C29.4609 29.6094 29.4844 30.2526 29.5312 30.8047C29.5833 31.3516 29.6589 31.8047 29.7578 32.1641C29.888 32.2214 30.013 32.2656 30.1328 32.2969C30.2578 32.3281 30.3776 32.3438 30.4922 32.3438C31.0703 32.3438 31.7057 32.2604 32.3984 32.0938C32.3984 31.6927 32.3958 31.237 32.3906 30.7266C32.3802 30.1172 32.375 29.6797 32.375 29.4141C32.375 28.3464 32.4245 27.4245 32.5234 26.6484C32.6016 26.0286 32.9557 25.7188 33.5859 25.7188C33.8932 25.7188 34.1562 25.8151 34.375 26.0078C34.5938 26.2005 34.6953 26.4427 34.6797 26.7344C34.5807 28.7188 34.5312 29.6354 34.5312 29.4844ZM41.5312 27.7109C41.4219 27.7109 41.2917 27.7083 41.1406 27.7031C40.9948 27.6927 40.8672 27.6875 40.7578 27.6875C40.5443 27.6875 40.2969 27.7083 40.0156 27.75C40.1094 29.8542 40.1562 31.2292 40.1562 31.875C40.1562 31.9427 40.1589 32.0703 40.1641 32.2578C40.1693 32.4401 40.1719 32.5885 40.1719 32.7031C40.1719 33.901 39.7943 34.5 39.0391 34.5C38.7526 34.5 38.5052 34.4115 38.2969 34.2344C38.0677 34.0469 37.9531 33.8125 37.9531 33.5312C37.9531 33.3438 37.9609 33.0625 37.9766 32.6875C37.9922 32.3125 38 32.0312 38 31.8438C38 31.2135 37.9531 29.8646 37.8594 27.7969C37.5365 27.7812 37.0469 27.7396 36.3906 27.6719C35.7396 27.599 35.4141 27.2604 35.4141 26.6562C35.4141 26.3646 35.513 26.1172 35.7109 25.9141C35.9089 25.7109 36.1641 25.6094 36.4766 25.6094C36.6693 25.6094 37.112 25.6406 37.8047 25.7031C37.7995 25.5365 37.7865 25.2604 37.7656 24.875C37.7448 24.5417 37.7344 24.2839 37.7344 24.1016C37.7344 23.8099 37.8411 23.5677 38.0547 23.375C38.2682 23.1823 38.526 23.0859 38.8281 23.0859C39.599 23.0859 39.9844 23.7344 39.9844 25.0312L39.9688 25.6719C40.2917 25.625 40.5547 25.6016 40.7578 25.6016C41.3568 25.6016 41.7656 25.6406 41.9844 25.7188C42.401 25.8646 42.6094 26.1823 42.6094 26.6719C42.6094 26.9688 42.5078 27.2161 42.3047 27.4141C42.1016 27.612 41.8438 27.7109 41.5312 27.7109ZM47.5 34.3594C46.2552 34.3594 45.237 34.0625 44.4453 33.4688C43.5703 32.8125 43.1328 31.888 43.1328 30.6953C43.1328 29.3776 43.4792 28.263 44.1719 27.3516C44.9427 26.3411 45.9818 25.8359 47.2891 25.8359C48.1953 25.8359 48.9479 25.9818 49.5469 26.2734C50.3333 26.6589 50.7266 27.2578 50.7266 28.0703C50.7266 28.6432 50.4062 29.151 49.7656 29.5938C49.474 29.7969 48.888 30.0938 48.0078 30.4844L45.375 31.6484C45.625 31.9193 45.9271 32.1224 46.2812 32.2578C46.6354 32.3932 47.0417 32.4609 47.5 32.4609C48.1979 32.4609 48.7891 32.3177 49.2734 32.0312C49.7057 31.776 50.0521 31.6484 50.3125 31.6484C50.8542 31.6484 51.125 31.9115 51.125 32.4375C51.125 33.0312 50.6901 33.5156 49.8203 33.8906C49.0911 34.2031 48.3177 34.3594 47.5 34.3594ZM47.2891 27.7266C46.8047 27.7266 46.3906 27.888 46.0469 28.2109C45.7031 28.5339 45.4271 29.0182 45.2188 29.6641C45.8073 29.4089 46.3932 29.1562 46.9766 28.9062C47.6797 28.5885 48.2396 28.2943 48.6562 28.0234C48.3073 27.8255 47.8516 27.7266 47.2891 27.7266ZM58.0156 28.2812C57.5 28.2812 57.1901 28.0651 57.0859 27.6328C56.8776 27.5964 56.6641 27.5781 56.4453 27.5781C55.1901 27.5781 54.5625 27.75 54.5625 28.0938C54.5625 28.2969 54.9401 28.5703 55.6953 28.9141C56.7266 29.388 57.4245 29.7578 57.7891 30.0234C58.5443 30.5703 58.9219 31.1875 58.9219 31.875C58.9219 32.7708 58.5052 33.4505 57.6719 33.9141C57 34.2839 56.1745 34.4688 55.1953 34.4688C54.5026 34.4688 53.8698 34.362 53.2969 34.1484C52.5156 33.8568 52.125 33.4271 52.125 32.8594C52.125 32.3385 52.4349 32.0781 53.0547 32.0781C53.2943 32.0781 53.6406 32.1536 54.0938 32.3047C54.5469 32.4557 54.8958 32.5312 55.1406 32.5312C56.1979 32.5312 56.7292 32.3177 56.7344 31.8906C56.7344 31.625 56.3672 31.3307 55.6328 31.0078C54.5599 30.5339 53.8724 30.1927 53.5703 29.9844C52.8359 29.4688 52.4688 28.8411 52.4688 28.1016C52.4688 27.0547 53.0234 26.349 54.1328 25.9844C54.7839 25.7708 55.7734 25.6641 57.1016 25.6641C57.6224 25.6641 58.0078 25.7318 58.2578 25.8672C58.6016 26.0495 58.7734 26.3854 58.7734 26.875C58.7734 27.8125 58.5208 28.2812 58.0156 28.2812Z" fill="black"/>
<path d="M22.0391 29.3438L24.0079 29.6956L24.0081 29.6942L22.0391 29.3438ZM21.6484 33.2188L23.6475 33.2806L23.6475 33.28L21.6484 33.2188ZM20.8047 36.8828L22.4648 37.9981L22.4653 37.9975L20.8047 36.8828ZM19.0234 35.7969L20.6003 37.0272L20.6065 37.0192L20.6127 37.0111L19.0234 35.7969ZM19.6484 33.5859L21.6446 33.7094L21.9757 28.3567L18.2206 32.1855L19.6484 33.5859ZM15.125 33.3906L13.6778 34.771L13.6832 34.7767L13.6887 34.7824L15.125 33.3906ZM15.4531 27.3594L14.0308 25.9534L14.0305 25.9537L15.4531 27.3594ZM21.2109 26.7266L19.7196 28.0592L20.2243 28.6239L20.9763 28.7128L21.2109 26.7266ZM16.9531 28.6484L15.4269 27.3559L15.4211 27.3627L15.4154 27.3696L16.9531 28.6484ZM18.9922 31.8203L20.4983 33.1362L20.5036 33.1302L18.9922 31.8203ZM19.6875 30.4297L17.7256 30.0414L17.7118 30.1111L17.7029 30.1816L19.6875 30.4297ZM20.0312 28.0938L22.0163 28.3382L22.1767 27.0354L21.0453 26.3699L20.0312 28.0938ZM22.0391 29.3438L20.0703 28.9919C19.8328 30.3203 19.6938 31.7096 19.6494 33.1575L21.6484 33.2188L23.6475 33.28C23.6865 32.0092 23.8078 30.8151 24.0079 29.6956L22.0391 29.3438ZM21.6484 33.2188L19.6494 33.1569C19.6006 34.7327 19.3334 35.4861 19.1441 35.7682L20.8047 36.8828L22.4653 37.9975C23.2968 36.7587 23.5921 35.0694 23.6475 33.2806L21.6484 33.2188ZM20.8047 36.8828L19.1445 35.7675C18.9749 36.0201 18.5487 36.4062 17.1797 36.4062V38.4062V40.4062C19.2795 40.4062 21.2699 39.7768 22.4648 37.9981L20.8047 36.8828ZM17.1797 38.4062V36.4062C16.7347 36.4062 16.3824 36.384 16.1118 36.3482C15.8342 36.3116 15.6896 36.2669 15.6366 36.2459C15.5786 36.2229 15.7076 36.2598 15.8605 36.4413C16.044 36.6593 16.1406 36.9426 16.1406 37.2031H14.1406H12.1406C12.1406 37.8647 12.3639 38.4989 12.8007 39.0177C13.2068 39.5 13.7157 39.7875 14.1642 39.965C15.0279 40.307 16.0934 40.4062 17.1797 40.4062V38.4062ZM14.1406 37.2031H16.1406C16.1406 37.2732 16.129 37.3969 16.0702 37.5464C16.0095 37.7008 15.9163 37.8368 15.8076 37.9424L14.4141 36.5078L13.0205 35.0733C12.3996 35.6764 12.1406 36.4515 12.1406 37.2031H14.1406ZM14.4141 36.5078L15.8076 37.9424C15.6977 38.0492 15.5643 38.1327 15.4238 38.1846C15.2888 38.2345 15.1833 38.2422 15.1328 38.2422V36.2422V34.2422C14.4096 34.2422 13.6385 34.4729 13.0205 35.0733L14.4141 36.5078ZM15.1328 36.2422V38.2422C15.13 38.2422 15.1423 38.2421 15.1729 38.2445C15.2028 38.2468 15.2444 38.251 15.2992 38.2582C15.4102 38.2729 15.5569 38.2974 15.7439 38.3353L16.1406 36.375L16.5373 34.4147C16.0639 34.3189 15.571 34.2422 15.1328 34.2422V36.2422ZM16.1406 36.375L15.7439 38.3353C16.2734 38.4424 16.7986 38.5078 17.3047 38.5078V36.5078V34.5078C17.1337 34.5078 16.8829 34.4847 16.5373 34.4147L16.1406 36.375ZM17.3047 36.5078V38.5078C18.5016 38.5078 19.7457 38.1224 20.6003 37.0272L19.0234 35.7969L17.4466 34.5666C17.4598 34.5497 17.4794 34.5295 17.5038 34.5111C17.5279 34.4929 17.5464 34.4842 17.5519 34.4819C17.5605 34.4784 17.4941 34.5078 17.3047 34.5078V36.5078ZM19.0234 35.7969L20.6127 37.0111C21.3271 36.0761 21.5735 34.8585 21.6446 33.7094L19.6484 33.5859L17.6523 33.4625C17.6272 33.8679 17.576 34.1569 17.5207 34.3524C17.4648 34.5503 17.4187 34.603 17.4342 34.5826L19.0234 35.7969ZM19.6484 33.5859L18.2206 32.1855C18.136 32.2717 18.0633 32.3156 17.9972 32.3424L18.75 34.1953L19.5028 36.0482C20.1034 35.8042 20.6296 35.4418 21.0763 34.9864L19.6484 33.5859ZM18.75 34.1953L17.9972 32.3424C17.9259 32.3714 17.82 32.3984 17.6562 32.3984V34.3984V36.3984C18.2842 36.3984 18.9074 36.2901 19.5028 36.0482L18.75 34.1953ZM17.6562 34.3984V32.3984C17.0968 32.3984 16.7931 32.2381 16.5613 31.9989L15.125 33.3906L13.6887 34.7824C14.759 35.8869 16.1428 36.3984 17.6562 36.3984V34.3984ZM15.125 33.3906L16.5722 32.0102C16.3263 31.7524 16.1562 31.4042 16.1562 30.7969H14.1562H12.1562C12.1562 32.2937 12.632 33.6747 13.6778 34.771L15.125 33.3906ZM14.1562 30.7969H16.1562C16.1562 29.8201 16.4377 29.2085 16.8758 28.7651L15.4531 27.3594L14.0305 25.9537C12.7394 27.2603 12.1562 28.9403 12.1562 30.7969H14.1562ZM15.4531 27.3594L16.8755 28.7654C17.3228 28.3129 17.981 28 19.0859 28V26V24C17.1387 24 15.3751 24.5934 14.0308 25.9534L15.4531 27.3594ZM19.0859 26V28C19.4212 28 19.6157 28.0421 19.7108 28.0742L20.3516 26.1797L20.9924 24.2851C20.3791 24.0777 19.7299 24 19.0859 24V26ZM20.3516 26.1797L19.7108 28.0742C19.7509 28.0878 19.7634 28.0968 19.7583 28.0936C19.7559 28.0921 19.7504 28.0883 19.743 28.0821C19.7355 28.0757 19.7275 28.068 19.7196 28.0592L21.2109 26.7266L22.7022 25.3939C22.2229 24.8575 21.6277 24.5 20.9924 24.2851L20.3516 26.1797ZM21.2109 26.7266L20.9763 28.7128C20.9604 28.7109 20.6797 28.667 20.4287 28.3705C20.1909 28.0896 20.2031 27.8436 20.2031 27.8984H22.2031H24.2031C24.2031 27.2501 24.05 26.4573 23.4815 25.7858C22.8997 25.0987 22.1229 24.8204 21.4455 24.7404L21.2109 26.7266ZM22.2031 27.8984H20.2031C20.2031 28.0725 20.1722 28.4193 20.07 28.9933L22.0391 29.3438L24.0081 29.6942C24.1247 29.039 24.2031 28.4223 24.2031 27.8984H22.2031ZM19.0078 27.7812V25.7812C17.6454 25.7812 16.3599 26.2542 15.4269 27.3559L16.9531 28.6484L18.4794 29.9409C18.5255 29.8864 18.6098 29.7812 19.0078 29.7812V27.7812ZM16.9531 28.6484L15.4154 27.3696C14.6162 28.3306 14.2969 29.4987 14.2969 30.6953H16.2969H18.2969C18.2969 30.2149 18.4151 30.0184 18.4908 29.9273L16.9531 28.6484ZM16.2969 30.6953H14.2969C14.2969 31.5119 14.4417 32.4847 15.0484 33.2938L16.6484 32.0938L18.2484 30.8938C18.3228 30.9929 18.3327 31.0552 18.3244 31.0221C18.3155 30.9867 18.2969 30.8855 18.2969 30.6953H16.2969ZM16.6484 32.0938L15.0484 33.2938C15.7381 34.2132 16.7464 34.5625 17.7031 34.5625V32.5625V30.5625C17.6888 30.5625 17.7708 30.5602 17.9002 30.6177C18.0412 30.6804 18.1642 30.7814 18.2484 30.8938L16.6484 32.0938ZM17.7031 32.5625V34.5625C18.9586 34.5625 19.8906 33.8318 20.4983 33.1362L18.9922 31.8203L17.4861 30.5044C17.3708 30.6364 17.3206 30.6594 17.3478 30.6437C17.3646 30.634 17.4053 30.613 17.4691 30.5946C17.5344 30.5758 17.6141 30.5625 17.7031 30.5625V32.5625ZM18.9922 31.8203L20.5036 33.1302C21.0822 32.4625 21.5514 31.6429 21.6721 30.6778L19.6875 30.4297L17.7029 30.1816C17.709 30.1331 17.7147 30.2406 17.4808 30.5105L18.9922 31.8203ZM19.6875 30.4297L21.6494 30.818C21.7633 30.2426 21.885 29.4037 22.0163 28.3382L20.0312 28.0938L18.0462 27.8493C17.917 28.8984 17.8096 29.6168 17.7256 30.0414L19.6875 30.4297ZM20.0312 28.0938L21.0453 26.3699C20.7507 26.1966 20.4313 26.0494 20.0878 25.9453L19.5078 27.8594L18.9278 29.7734C18.9281 29.7735 18.9576 29.7825 19.0172 29.8176L20.0312 28.0938ZM19.5078 27.8594L20.0878 25.9453C19.7488 25.8426 19.3865 25.7812 19.0078 25.7812V27.7812V29.7812C18.9521 29.7812 18.9231 29.772 18.9278 29.7734L19.5078 27.8594ZM23.875 21.7266L22.5797 20.2027L22.5662 20.2141L22.5529 20.2258L23.875 21.7266ZM25.4062 21.7422L24.0308 23.1941L24.041 23.2038L24.0513 23.2133L25.4062 21.7422ZM25.7031 32.8516H23.7031C23.7031 32.9844 23.6904 33.0365 23.6919 33.0304C23.6937 33.023 23.7187 32.9227 23.8154 32.7895C23.9208 32.6443 24.0751 32.5114 24.2625 32.4255C24.4388 32.3445 24.5766 32.3359 24.625 32.3359V34.3359V36.3359C25.4969 36.3359 26.4265 36.001 27.0518 35.1402C27.5908 34.3981 27.7031 33.5289 27.7031 32.8516H25.7031ZM24.625 34.3359V32.3359C24.6818 32.3359 24.786 32.3454 24.914 32.3945C25.0455 32.445 25.1597 32.5213 25.2473 32.6066L23.8516 34.0391L22.4558 35.4715C23.0721 36.072 23.8492 36.3359 24.625 36.3359V34.3359ZM23.8516 34.0391L25.2473 32.6066C25.3401 32.6971 25.4249 32.8179 25.4813 32.9597C25.5362 33.0976 25.5469 33.211 25.5469 33.2734H23.5469H21.5469C21.5469 34.0648 21.825 34.8569 22.4558 35.4715L23.8516 34.0391ZM23.5469 33.2734H25.5469V22.4688H23.5469H21.5469V33.2734H23.5469ZM23.5469 22.4688H25.5469C25.5469 22.5636 25.5285 22.7061 25.4581 22.8653C25.3869 23.0264 25.2877 23.1475 25.1971 23.2273L23.875 21.7266L22.5529 20.2258C21.8857 20.8136 21.5469 21.616 21.5469 22.4688H23.5469ZM23.875 21.7266L25.1703 23.2504C25.0847 23.3232 24.9824 23.3818 24.8742 23.4189C24.7693 23.4549 24.688 23.4609 24.6484 23.4609V21.4609V19.4609C23.9292 19.4609 23.1947 19.68 22.5797 20.2027L23.875 21.7266ZM24.6484 21.4609V23.4609C24.5975 23.4609 24.4978 23.4528 24.3725 23.4063C24.243 23.3582 24.1251 23.2835 24.0308 23.1941L25.4062 21.7422L26.7817 20.2903C26.1642 19.7052 25.3971 19.4609 24.6484 19.4609V21.4609ZM25.4062 21.7422L24.0513 23.2133C23.9407 23.1114 23.8423 22.9755 23.7775 22.817C23.7149 22.6638 23.7031 22.5374 23.7031 22.4688H25.7031H27.7031C27.7031 21.6836 27.4229 20.8806 26.7612 20.2711L25.4062 21.7422ZM25.7031 22.4688H23.7031V32.8516H25.7031H27.7031V22.4688H25.7031ZM34.5703 33.1328L32.5754 33.2753L32.5772 33.3012L32.5798 33.327L34.5703 33.1328ZM34.2812 34.3359L32.9616 32.8331L32.9422 32.8501L32.9232 32.8677L34.2812 34.3359ZM32.5625 34.0391L34.3466 33.1351L33.5427 31.5486L31.8731 32.1616L32.5625 34.0391ZM28.625 33.9375L27.5553 35.6274L27.5641 35.6329L27.5729 35.6384L28.625 33.9375ZM27.6094 32.3672L25.6333 32.6755L25.6342 32.6814L27.6094 32.3672ZM27.5391 26.5547L29.5076 26.9083L29.5085 26.9033L27.5391 26.5547ZM29.3672 25.9609L28.0273 27.4457L28.0374 27.4548L28.0476 27.4638L29.3672 25.9609ZM29.5703 27.7578L27.5953 27.4427L27.5937 27.4529L27.5921 27.4632L29.5703 27.7578ZM29.5312 30.8047L27.5384 30.9739L27.5393 30.9841L27.5403 30.9943L29.5312 30.8047ZM29.7578 32.1641L27.8296 32.695L28.082 33.6118L28.9523 33.9947L29.7578 32.1641ZM30.1328 32.2969L29.628 34.2321L29.6378 34.2347L29.6477 34.2372L30.1328 32.2969ZM32.3984 32.0938L32.8663 34.0383L34.3984 33.6696V32.0938H32.3984ZM32.3906 30.7266L34.3906 30.7062L34.3903 30.6924L32.3906 30.7266ZM32.5234 26.6484L34.5074 26.9014L34.5077 26.8986L32.5234 26.6484ZM34.375 26.0078L33.0529 27.5085L34.375 26.0078ZM34.6797 26.7344L32.6825 26.6274L32.6822 26.6348L34.6797 26.7344ZM34.5312 29.4844H32.5312C32.5312 29.841 32.5339 30.3731 32.5391 31.0773L34.5391 31.0625L36.539 31.0477C36.5338 30.3456 36.5312 29.8256 36.5312 29.4844H34.5312ZM34.5391 31.0625L32.5391 31.0773C32.5443 31.7794 32.5469 32.2994 32.5469 32.6406H34.5469H36.5469C36.5469 32.284 36.5442 31.7519 36.539 31.0477L34.5391 31.0625ZM34.5469 32.6406H32.5469C32.5469 32.8241 32.559 33.0462 32.5754 33.2753L34.5703 33.1328L36.5652 32.9903C36.5503 32.7819 36.5469 32.6759 36.5469 32.6406H34.5469ZM34.5703 33.1328L32.5798 33.327C32.5887 33.4185 32.5945 33.4896 32.5979 33.5428C32.6015 33.5989 32.6016 33.6205 32.6016 33.6172H34.6016H36.6016C36.6016 33.4076 36.5832 33.1679 36.5609 32.9386L34.5703 33.1328ZM34.6016 33.6172H32.6016C32.6016 33.5141 32.6217 33.3653 32.6947 33.2015C32.7683 33.0364 32.87 32.9135 32.9616 32.8331L34.2812 34.3359L35.6009 35.8388C36.2597 35.2603 36.6016 34.467 36.6016 33.6172H34.6016ZM34.2812 34.3359L32.9232 32.8677C33.0038 32.7931 33.1092 32.725 33.2315 32.6793C33.3511 32.6346 33.4501 32.625 33.5078 32.625V34.625V36.625C34.2731 36.625 35.0293 36.3684 35.6393 35.8041L34.2812 34.3359ZM33.5078 34.625V32.625C33.6011 32.625 33.7926 32.6494 34.0009 32.7786C34.2078 32.9068 34.3101 33.0631 34.3466 33.1351L32.5625 34.0391L30.7784 34.943C31.0129 35.4057 31.3716 35.8549 31.8936 36.1784C32.4171 36.5029 32.9822 36.625 33.5078 36.625V34.625ZM32.5625 34.0391L31.8731 32.1616C31.4283 32.325 30.9717 32.4062 30.4922 32.4062V34.4062V36.4062C31.4398 36.4062 32.3633 36.2428 33.2519 35.9165L32.5625 34.0391ZM30.4922 34.4062V32.4062C30.0336 32.4062 29.7971 32.3108 29.6771 32.2366L28.625 33.9375L27.5729 35.6384C28.4633 36.1892 29.4716 36.4062 30.4922 36.4062V34.4062ZM28.625 33.9375L29.6947 32.2476C29.6628 32.2274 29.6457 32.2123 29.6378 32.2046C29.6302 32.1972 29.6268 32.1925 29.6247 32.1892C29.6235 32.1873 29.6006 32.1538 29.5845 32.053L27.6094 32.3672L25.6342 32.6814C25.8301 33.9129 26.4826 34.9483 27.5553 35.6274L28.625 33.9375ZM27.6094 32.3672L29.5855 32.0589C29.394 30.8317 29.3047 29.7736 29.3047 28.875H27.3047H25.3047C25.3047 30.0285 25.4185 31.2985 25.6333 32.6755L27.6094 32.3672ZM27.3047 28.875H29.3047C29.3047 28.346 29.3663 27.6945 29.5076 26.9083L27.5391 26.5547L25.5706 26.2011C25.3993 27.1544 25.3047 28.0499 25.3047 28.875H27.3047ZM27.5391 26.5547L29.5085 26.9033C29.5038 26.9295 29.4472 27.1897 29.1646 27.4262C28.8825 27.6623 28.6178 27.6719 28.5938 27.6719V25.6719V23.6719C27.9708 23.6719 27.2308 23.8286 26.5971 24.3589C25.963 24.8897 25.6785 25.5913 25.5697 26.2061L27.5391 26.5547ZM28.5938 25.6719V27.6719C28.529 27.6719 28.4294 27.6609 28.3135 27.6176C28.196 27.5737 28.0988 27.5103 28.0273 27.4457L29.3672 25.9609L30.7071 24.4762C30.1064 23.934 29.3636 23.6719 28.5938 23.6719V25.6719ZM29.3672 25.9609L28.0476 27.4638C27.9559 27.3833 27.8542 27.2605 27.7806 27.0954C27.7076 26.9316 27.6875 26.7828 27.6875 26.6797H29.6875H31.6875C31.6875 25.8298 31.3457 25.0366 30.6868 24.4581L29.3672 25.9609ZM29.6875 26.6797H27.6875C27.6875 26.7397 27.6713 26.9661 27.5953 27.4427L29.5703 27.7578L31.5453 28.073C31.6255 27.5703 31.6875 27.078 31.6875 26.6797H29.6875ZM29.5703 27.7578L27.5921 27.4632C27.5155 27.9777 27.4609 28.468 27.4609 28.875H29.4609H31.4609C31.4609 28.7716 31.4793 28.5171 31.5485 28.0524L29.5703 27.7578ZM29.4609 28.875H27.4609C27.4609 29.6489 27.4855 30.3509 27.5384 30.9739L29.5312 30.8047L31.5241 30.6355C31.4832 30.1543 31.4609 29.5698 31.4609 28.875H29.4609ZM29.5312 30.8047L27.5403 30.9943C27.5987 31.6079 27.6891 32.185 27.8296 32.695L29.7578 32.1641L31.686 31.6331C31.6286 31.4244 31.568 31.0953 31.5222 30.6151L29.5312 30.8047ZM29.7578 32.1641L28.9523 33.9947C29.1658 34.0886 29.3915 34.1704 29.628 34.2321L30.1328 32.2969L30.6377 30.3616C30.6345 30.3608 30.6103 30.3541 30.5633 30.3334L29.7578 32.1641ZM30.1328 32.2969L29.6477 34.2372C29.912 34.3032 30.1953 34.3438 30.4922 34.3438V32.3438V30.3438C30.5599 30.3438 30.6036 30.353 30.6179 30.3566L30.1328 32.2969ZM30.4922 32.3438V34.3438C31.2593 34.3438 32.0543 34.2336 32.8663 34.0383L32.3984 32.0938L31.9306 30.1492C31.3572 30.2872 30.8813 30.3438 30.4922 30.3438V32.3438ZM32.3984 32.0938H34.3984C34.3984 31.6844 34.3958 31.2216 34.3905 30.7062L32.3906 30.7266L30.3907 30.747C30.3959 31.2523 30.3984 31.701 30.3984 32.0938H32.3984ZM32.3906 30.7266L34.3903 30.6924C34.3799 30.0837 34.375 29.6611 34.375 29.4141H32.375H30.375C30.375 29.6983 30.3805 30.1507 30.3909 30.7607L32.3906 30.7266ZM32.375 29.4141H34.375C34.375 28.4027 34.4222 27.5696 34.5074 26.9014L32.5234 26.6484L30.5395 26.3955C30.4268 27.2794 30.375 28.29 30.375 29.4141H32.375ZM32.5234 26.6484L34.5077 26.8986C34.5059 26.9128 34.4628 27.1955 34.1647 27.4563C33.869 27.715 33.5891 27.7188 33.5859 27.7188V25.7188V23.7188C32.9526 23.7188 32.1805 23.8774 31.5306 24.446C30.8784 25.0168 30.6191 25.7643 30.5391 26.3983L32.5234 26.6484ZM33.5859 25.7188V27.7188C33.5276 27.7188 33.435 27.709 33.3257 27.669C33.2148 27.6284 33.122 27.5694 33.0529 27.5085L34.375 26.0078L35.6971 24.5071C35.0921 23.9741 34.3513 23.7188 33.5859 23.7188V25.7188ZM34.375 26.0078L33.0529 27.5085C32.9607 27.4273 32.8493 27.2946 32.7708 27.1074C32.6924 26.9204 32.6761 26.7487 32.6826 26.6274L34.6797 26.7344L36.6768 26.8414C36.7251 25.9401 36.3759 25.1051 35.6971 24.5071L34.375 26.0078ZM34.6797 26.7344L32.6822 26.6348C32.6327 27.6266 32.5958 28.3484 32.5713 28.8024C32.5589 29.0315 32.5501 29.1844 32.5447 29.2685C32.541 29.3262 32.5411 29.3136 32.5449 29.2787C32.5458 29.2703 32.5475 29.255 32.55 29.2355C32.552 29.2205 32.5574 29.1798 32.5673 29.1278C32.5721 29.1023 32.5817 29.0535 32.5976 28.9929C32.6067 28.9582 32.6465 28.8033 32.736 28.6206C32.7755 28.5399 32.8881 28.3191 33.1082 28.0959C33.3236 27.8775 33.9091 27.4038 34.7872 27.5167C35.6011 27.6215 36.0314 28.158 36.1616 28.3409C36.317 28.5594 36.3908 28.7578 36.4185 28.8364C36.4793 29.0094 36.5015 29.1515 36.5072 29.1875C36.5164 29.2457 36.5211 29.2923 36.5233 29.3172C36.5279 29.3678 36.5295 29.4072 36.5301 29.4221C36.5313 29.4558 36.5312 29.4805 36.5312 29.4844H34.5312H32.5312C32.5312 29.4977 32.5313 29.5298 32.5327 29.5687C32.5334 29.5862 32.5351 29.6277 32.5398 29.6799C32.5422 29.7057 32.5469 29.7529 32.5562 29.8116C32.562 29.8482 32.5842 29.9907 32.6452 30.164C32.6729 30.2427 32.7468 30.4412 32.9023 30.6598C33.0324 30.8427 33.4628 31.3793 34.2768 31.4841C35.155 31.597 35.7405 31.1233 35.956 30.9048C36.1761 30.6816 36.2888 30.4607 36.3284 30.3798C36.4179 30.1969 36.4579 30.0416 36.4671 30.0064C36.4831 29.9453 36.4929 29.8959 36.4979 29.8696C36.5144 29.7819 36.5217 29.709 36.5223 29.7032C36.5291 29.6393 36.5339 29.5645 36.5364 29.5264C36.5433 29.4191 36.5531 29.2472 36.5655 29.018C36.5904 28.5553 36.6277 27.8265 36.6772 26.834L34.6797 26.7344ZM41.1406 27.7031L40.9981 29.698L41.0349 29.7007L41.0717 29.7019L41.1406 27.7031ZM40.0156 27.75L39.7225 25.7716L37.9373 26.0361L38.0176 27.839L40.0156 27.75ZM40.1641 32.2578L38.1648 32.3133L38.1649 32.3149L40.1641 32.2578ZM38.2969 34.2344L39.5922 32.7105L39.5779 32.6983L39.5634 32.6865L38.2969 34.2344ZM37.8594 27.7969L39.8573 27.7063L39.7748 25.8872L37.956 25.7992L37.8594 27.7969ZM36.3906 27.6719L36.168 29.6594L36.1767 29.6604L36.1854 29.6613L36.3906 27.6719ZM37.8047 25.7031L37.625 27.695L39.8743 27.898L39.8037 25.6407L37.8047 25.7031ZM37.7656 24.875L39.7627 24.767L39.7623 24.7586L39.7617 24.7502L37.7656 24.875ZM39.9844 25.0312L41.9838 25.08L41.9844 25.0556V25.0312H39.9844ZM39.9688 25.6719L37.9693 25.6231L37.9116 27.9915L40.2561 27.6511L39.9688 25.6719ZM41.9844 25.7188L41.3117 27.6023L41.3237 27.6065L41.9844 25.7188ZM41.5312 27.7109V25.7109C41.4516 25.7109 41.3456 25.709 41.2095 25.7043L41.1406 27.7031L41.0717 29.7019C41.2378 29.7077 41.3921 29.7109 41.5312 29.7109V27.7109ZM41.1406 27.7031L41.2831 25.7082C41.1045 25.6955 40.9275 25.6875 40.7578 25.6875V27.6875V29.6875C40.8069 29.6875 40.8851 29.69 40.9981 29.698L41.1406 27.7031ZM40.7578 27.6875V25.6875C40.4202 25.6875 40.0711 25.7199 39.7225 25.7716L40.0156 27.75L40.3087 29.7284C40.5226 29.6967 40.6684 29.6875 40.7578 29.6875V27.6875ZM40.0156 27.75L38.0176 27.839C38.1118 29.9534 38.1562 31.282 38.1562 31.875H40.1562H42.1562C42.1562 31.1763 42.1069 29.755 42.0136 27.661L40.0156 27.75ZM40.1562 31.875H38.1562C38.1562 31.9745 38.1597 32.1288 38.1648 32.3133L40.1641 32.2578L42.1633 32.2023C42.158 32.0118 42.1562 31.9109 42.1562 31.875H40.1562ZM40.1641 32.2578L38.1649 32.3149C38.1698 32.4879 38.1719 32.6153 38.1719 32.7031H40.1719H42.1719C42.1719 32.5618 42.1687 32.3923 42.1632 32.2007L40.1641 32.2578ZM40.1719 32.7031H38.1719C38.1719 32.9037 38.1555 33.0223 38.1438 33.078C38.1317 33.1355 38.1332 33.0851 38.1968 32.9842C38.2689 32.8698 38.4003 32.7251 38.5998 32.6196C38.7937 32.5171 38.9602 32.5 39.0391 32.5V34.5V36.5C40.0485 36.5 40.997 36.0429 41.5805 35.1174C42.0662 34.347 42.1719 33.4477 42.1719 32.7031H40.1719ZM39.0391 34.5V32.5C39.1048 32.5 39.2014 32.5107 39.3126 32.5506C39.4252 32.5908 39.5201 32.6493 39.5922 32.7105L38.2969 34.2344L37.0016 35.7583C37.5898 36.2583 38.3026 36.5 39.0391 36.5V34.5ZM38.2969 34.2344L39.5634 32.6865C39.6416 32.7505 39.7506 32.8652 39.8358 33.0395C39.9225 33.2169 39.9531 33.3916 39.9531 33.5312H37.9531H35.9531C35.9531 34.4479 36.3652 35.238 37.0304 35.7823L38.2969 34.2344ZM37.9531 33.5312H39.9531C39.9531 33.387 39.9595 33.1396 39.9748 32.7708L37.9766 32.6875L35.9783 32.6042C35.9624 32.9854 35.9531 33.3005 35.9531 33.5312H37.9531ZM37.9766 32.6875L39.9748 32.7708C39.9907 32.3896 40 32.0745 40 31.8438H38H36C36 31.988 35.9937 32.2354 35.9783 32.6042L37.9766 32.6875ZM38 31.8438H40C40 31.1597 39.9506 29.7634 39.8573 27.7063L37.8594 27.7969L35.8614 27.8875C35.9557 29.9658 36 31.2674 36 31.8438H38ZM37.8594 27.7969L37.956 25.7992C37.69 25.7863 37.245 25.7494 36.5959 25.6824L36.3906 27.6719L36.1854 29.6613C36.8488 29.7298 37.3829 29.7762 37.7627 29.7945L37.8594 27.7969ZM36.3906 27.6719L36.6132 25.6843C36.5704 25.6795 36.8317 25.6982 37.0999 25.9771C37.3895 26.2782 37.4141 26.5954 37.4141 26.6562H35.4141H33.4141C33.4141 27.3213 33.6014 28.1098 34.2165 28.7495C34.8102 29.3669 35.5598 29.5913 36.168 29.6594L36.3906 27.6719ZM35.4141 26.6562H37.4141C37.4141 26.7407 37.3988 26.8608 37.3452 26.9947C37.2912 27.1298 37.2154 27.2359 37.1434 27.3098L35.7109 25.9141L34.2785 24.5183C33.7053 25.1066 33.4141 25.8597 33.4141 26.6562H35.4141ZM35.7109 25.9141L37.1434 27.3098C37.0529 27.4026 36.9321 27.4874 36.7903 27.5438C36.6524 27.5987 36.539 27.6094 36.4766 27.6094V25.6094V23.6094C35.6852 23.6094 34.8931 23.8875 34.2785 24.5183L35.7109 25.9141ZM36.4766 25.6094V27.6094C36.4749 27.6094 36.4817 27.6094 36.4994 27.6099C36.5163 27.6104 36.5395 27.6113 36.5697 27.6128C36.6306 27.6158 36.7107 27.6207 36.8123 27.6278C37.0156 27.6422 37.2852 27.6644 37.625 27.695L37.8047 25.7031L37.9844 23.7112C37.3188 23.6512 36.778 23.6094 36.4766 23.6094V25.6094ZM37.8047 25.7031L39.8037 25.6407C39.7977 25.4492 39.7836 25.1532 39.7627 24.767L37.7656 24.875L35.7685 24.983C35.7893 25.3676 35.8012 25.6237 35.8057 25.7656L37.8047 25.7031ZM37.7656 24.875L39.7617 24.7502C39.7417 24.4304 39.7344 24.2214 39.7344 24.1016H37.7344H35.7344C35.7344 24.3463 35.7478 24.6529 35.7695 24.9998L37.7656 24.875ZM37.7344 24.1016H39.7344C39.7344 24.205 39.7141 24.35 39.6445 24.508C39.5746 24.6666 39.4788 24.7838 39.3946 24.8598L38.0547 23.375L36.7148 21.8902C36.0743 22.4682 35.7344 23.2529 35.7344 24.1016H37.7344ZM38.0547 23.375L39.3946 24.8598C39.3231 24.9244 39.2258 24.9877 39.1084 25.0316C38.9925 25.075 38.8928 25.0859 38.8281 25.0859V23.0859V21.0859C38.0583 21.0859 37.3155 21.3481 36.7148 21.8902L38.0547 23.375ZM38.8281 23.0859V25.0859C38.7345 25.0859 38.5555 25.064 38.3557 24.9519C38.1538 24.8387 38.0339 24.6914 37.9761 24.5941C37.926 24.5099 37.9332 24.4828 37.9502 24.5689C37.9667 24.6519 37.9844 24.8001 37.9844 25.0312H39.9844H41.9844C41.9844 24.2501 41.8799 23.3333 41.4145 22.5504C40.8518 21.6036 39.9 21.0859 38.8281 21.0859V23.0859ZM39.9844 25.0312L37.985 24.9825L37.9693 25.6231L39.9688 25.6719L41.9682 25.7206L41.9838 25.08L39.9844 25.0312ZM39.9688 25.6719L40.2561 27.6511C40.5334 27.6109 40.6905 27.6016 40.7578 27.6016V25.6016V23.6016C40.4189 23.6016 40.0499 23.6391 39.6814 23.6926L39.9688 25.6719ZM40.7578 25.6016V27.6016C41.0197 27.6016 41.2037 27.6103 41.3235 27.6218C41.3822 27.6274 41.4115 27.6324 41.4176 27.6335C41.4276 27.6354 41.3856 27.6286 41.3117 27.6022L41.9844 25.7188L42.657 23.8353C42.071 23.626 41.3344 23.6016 40.7578 23.6016V25.6016ZM41.9844 25.7188L41.3237 27.6065C41.187 27.5586 40.9553 27.4295 40.7806 27.1631C40.6173 26.914 40.6094 26.7054 40.6094 26.6719H42.6094H44.6094C44.6094 26.1488 44.4973 25.5365 44.1256 24.9697C43.7426 24.3856 43.1985 24.0247 42.6451 23.831L41.9844 25.7188ZM42.6094 26.6719H40.6094C40.6094 26.5885 40.6245 26.463 40.683 26.3205C40.7423 26.1761 40.8267 26.0618 40.909 25.9816L42.3047 27.4141L43.7004 28.8465C44.3097 28.2529 44.6094 27.48 44.6094 26.6719H42.6094ZM42.3047 27.4141L40.909 25.9816C40.9965 25.8963 41.1108 25.82 41.2423 25.7695C41.3702 25.7204 41.4745 25.7109 41.5312 25.7109V27.7109V29.7109C42.3071 29.7109 43.0842 29.447 43.7004 28.8465L42.3047 27.4141ZM44.1719 27.3516L42.5818 26.1385L42.5796 26.1414L44.1719 27.3516ZM49.5469 26.2734L50.427 24.4775L50.4225 24.4753L49.5469 26.2734ZM49.7656 29.5938L48.6286 27.9484L48.6226 27.9525L49.7656 29.5938ZM48.0078 30.4844L48.8166 32.3136L48.8191 32.3124L48.0078 30.4844ZM45.375 31.6484L44.5662 29.8193L42.0086 30.9501L43.9054 33.005L45.375 31.6484ZM49.2734 32.0312L48.2567 30.309L48.2554 30.3098L49.2734 32.0312ZM49.8203 33.8906L50.6082 35.7289L50.6121 35.7272L49.8203 33.8906ZM45.2188 29.6641L43.3153 29.0501L41.9579 33.258L46.0144 31.499L45.2188 29.6641ZM46.9766 28.9062L47.7644 30.7445L47.7823 30.7369L47.8001 30.7288L46.9766 28.9062ZM48.6562 28.0234L49.7462 29.7003L52.5051 27.9071L49.6429 26.2838L48.6562 28.0234ZM47.5 34.3594V32.3594C46.5749 32.3594 46.0101 32.1424 45.6453 31.8687L44.4453 33.4688L43.2453 35.0688C44.4638 35.9826 45.9355 36.3594 47.5 36.3594V34.3594ZM44.4453 33.4688L45.6453 31.8687C45.3244 31.6281 45.1328 31.3244 45.1328 30.6953H43.1328H41.1328C41.1328 32.4516 41.8162 33.9969 43.2453 35.0688L44.4453 33.4688ZM43.1328 30.6953H45.1328C45.1328 29.7458 45.3748 29.0741 45.7642 28.5617L44.1719 27.3516L42.5796 26.1414C41.5835 27.452 41.1328 29.0094 41.1328 30.6953H43.1328ZM44.1719 27.3516L45.762 28.5646C46.142 28.0666 46.5846 27.8359 47.2891 27.8359V25.8359V23.8359C45.379 23.8359 43.7434 24.6157 42.5818 26.1385L44.1719 27.3516ZM47.2891 25.8359V27.8359C47.9955 27.8359 48.425 27.9517 48.6713 28.0716L49.5469 26.2734L50.4225 24.4753C49.4708 24.0119 48.3951 23.8359 47.2891 23.8359V25.8359ZM49.5469 26.2734L48.6667 28.0694C48.7393 28.1049 48.7727 28.1307 48.7816 28.1381C48.7859 28.1417 48.7847 28.1412 48.7799 28.1358C48.775 28.1304 48.7678 28.1215 48.7598 28.1093C48.7517 28.0971 48.7444 28.0838 48.7383 28.0702C48.7321 28.0567 48.7284 28.0455 48.7262 28.0377C48.7217 28.0215 48.7266 28.0291 48.7266 28.0703H50.7266H52.7266C52.7266 27.3279 52.542 26.5819 52.1035 25.9141C51.6709 25.255 51.0706 24.7929 50.427 24.4775L49.5469 26.2734ZM50.7266 28.0703H48.7266C48.7266 28.0243 48.7334 27.9719 48.749 27.9195C48.7643 27.8677 48.7834 27.8319 48.7947 27.8139C48.8144 27.7826 48.7899 27.8369 48.6286 27.9484L49.7656 29.5938L50.9027 31.2391C51.8715 30.5696 52.7266 29.5216 52.7266 28.0703H50.7266ZM49.7656 29.5938L48.6226 27.9525C48.5098 28.0311 48.0931 28.2584 47.1965 28.6563L48.0078 30.4844L48.8191 32.3124C49.683 31.9291 50.4381 31.5626 50.9086 31.235L49.7656 29.5938ZM48.0078 30.4844L47.1991 28.6552L44.5662 29.8193L45.375 31.6484L46.1838 33.4776L48.8166 32.3136L48.0078 30.4844ZM45.375 31.6484L43.9054 33.005C44.3705 33.5089 44.9335 33.8837 45.567 34.1259L46.2812 32.2578L46.9955 30.3897C46.9206 30.3611 46.8795 30.3297 46.8446 30.2919L45.375 31.6484ZM46.2812 32.2578L45.567 34.1259C46.1913 34.3646 46.8471 34.4609 47.5 34.4609V32.4609V30.4609C47.2363 30.4609 47.0795 30.4218 46.9955 30.3897L46.2812 32.2578ZM47.5 32.4609V34.4609C48.4707 34.4609 49.4328 34.2606 50.2915 33.7527L49.2734 32.0312L48.2554 30.3098C48.1453 30.3748 47.9251 30.4609 47.5 30.4609V32.4609ZM49.2734 32.0312L50.2902 33.7535C50.3611 33.7117 50.4187 33.6808 50.4639 33.6586C50.5095 33.6362 50.5374 33.6251 50.5488 33.6208C50.5609 33.6164 50.5478 33.6222 50.5127 33.6296C50.4779 33.6369 50.4089 33.6484 50.3125 33.6484V31.6484V29.6484C49.4937 29.6484 48.7592 30.0123 48.2567 30.309L49.2734 32.0312ZM50.3125 31.6484V33.6484C50.2895 33.6484 49.9022 33.6434 49.5285 33.2805C49.144 32.907 49.125 32.4979 49.125 32.4375H51.125H53.125C53.125 31.8511 52.9706 31.0474 52.3152 30.4109C51.6707 29.785 50.8772 29.6484 50.3125 29.6484V31.6484ZM51.125 32.4375H49.125C49.125 32.3352 49.145 32.2223 49.1887 32.1141C49.2312 32.0088 49.2824 31.9414 49.3106 31.9099C49.3365 31.8811 49.3385 31.8873 49.291 31.9186C49.2436 31.9499 49.1603 31.9972 49.0285 32.054L49.8203 33.8906L50.6121 35.7272C51.728 35.2461 53.125 34.2517 53.125 32.4375H51.125ZM49.8203 33.8906L49.0325 32.0523C48.56 32.2548 48.0554 32.3594 47.5 32.3594V34.3594V36.3594C48.58 36.3594 49.6223 36.1514 50.6082 35.7289L49.8203 33.8906ZM47.2891 27.7266V25.7266C46.3111 25.7266 45.4031 26.0717 44.6775 26.7532L46.0469 28.2109L47.4162 29.6686C47.4164 29.6685 47.4094 29.675 47.395 29.6842C47.3803 29.6936 47.3622 29.7031 47.3418 29.711C47.2972 29.7284 47.273 29.7266 47.2891 29.7266V27.7266ZM46.0469 28.2109L44.6775 26.7532C44.0026 27.3872 43.5848 28.2147 43.3153 29.0501L45.2188 29.6641L47.1222 30.2781C47.2694 29.8217 47.4036 29.6805 47.4162 29.6686L46.0469 28.2109ZM45.2188 29.6641L46.0144 31.499C46.6004 31.2449 47.1837 30.9934 47.7644 30.7445L46.9766 28.9062L46.1887 27.068C45.6027 27.3191 45.0142 27.5728 44.4231 27.8291L45.2188 29.6641ZM46.9766 28.9062L47.8001 30.7288C48.5511 30.3895 49.2116 30.0478 49.7462 29.7003L48.6562 28.0234L47.5663 26.3466C47.2676 26.5407 46.8083 26.7876 46.153 27.0837L46.9766 28.9062ZM48.6562 28.0234L49.6429 26.2838C48.8961 25.8602 48.0656 25.7266 47.2891 25.7266V27.7266V29.7266C47.6376 29.7266 47.7185 29.7908 47.6696 29.7631L48.6562 28.0234ZM57.0859 27.6328L59.0303 27.1643L58.723 25.8889L57.4307 25.6628L57.0859 27.6328ZM55.6953 28.9141L56.5305 27.0968L56.5239 27.0938L55.6953 28.9141ZM57.7891 30.0234L56.6113 31.6399L56.616 31.6433L57.7891 30.0234ZM57.6719 33.9141L58.6362 35.6662L58.6441 35.6619L57.6719 33.9141ZM53.2969 34.1484L52.5974 36.0221L52.5984 36.0225L53.2969 34.1484ZM56.7344 31.8906L58.7342 31.915L58.7344 31.9028V31.8906H56.7344ZM55.6328 31.0078L54.8247 32.8373L54.8278 32.8386L55.6328 31.0078ZM53.5703 29.9844L52.4211 31.6212L52.4279 31.626L52.4348 31.6308L53.5703 29.9844ZM54.1328 25.9844L53.5095 24.084L53.5084 24.0843L54.1328 25.9844ZM58.2578 25.8672L57.3052 27.6258L57.313 27.63L57.3208 27.6341L58.2578 25.8672ZM58.0156 28.2812V26.2812C58.0212 26.2812 58.2575 26.2813 58.5406 26.4787C58.8559 26.6986 58.9893 26.9941 59.0303 27.1643L57.0859 27.6328L55.1416 28.1013C55.2868 28.7039 55.6272 29.3235 56.2523 29.7595C56.8453 30.1732 57.4944 30.2812 58.0156 30.2812V28.2812ZM57.0859 27.6328L57.4307 25.6628C57.1047 25.6057 56.7757 25.5781 56.4453 25.5781V27.5781V29.5781C56.5524 29.5781 56.6505 29.587 56.7412 29.6029L57.0859 27.6328ZM56.4453 27.5781V25.5781C55.772 25.5781 55.0839 25.6195 54.5049 25.7781C54.2214 25.8557 53.7983 26.0043 53.4106 26.3228C52.963 26.6906 52.5625 27.2983 52.5625 28.0938H54.5625H56.5625C56.5625 28.3684 56.4966 28.646 56.3652 28.8979C56.2383 29.141 56.0783 29.3079 55.9498 29.4135C55.8244 29.5165 55.7157 29.5725 55.6577 29.599C55.6265 29.6132 55.6023 29.6224 55.5871 29.6277C55.5718 29.6331 55.5628 29.6356 55.5615 29.636C55.56 29.6364 55.5785 29.6314 55.6223 29.6242C55.6652 29.6171 55.7248 29.6092 55.8034 29.6021C55.9625 29.5876 56.1739 29.5781 56.4453 29.5781V27.5781ZM54.5625 28.0938H52.5625C52.5625 28.7712 52.8717 29.2564 53.0657 29.5013C53.27 29.7591 53.5 29.946 53.6727 30.0711C54.0217 30.3238 54.446 30.5429 54.8668 30.7344L55.6953 28.9141L56.5239 27.0938C56.367 27.0224 56.2463 26.9621 56.1566 26.9132C56.1122 26.889 56.0788 26.8695 56.0546 26.8546C56.0427 26.8472 56.0339 26.8415 56.0277 26.8374C56.0215 26.8333 56.0186 26.8312 56.0187 26.8313C56.0188 26.8313 56.0226 26.8341 56.0297 26.8397C56.0366 26.8453 56.0479 26.8547 56.0626 26.8679C56.0896 26.8923 56.1409 26.9416 56.2009 27.0172C56.3005 27.143 56.5625 27.5179 56.5625 28.0938H54.5625ZM55.6953 28.9141L54.8601 30.7313C55.898 31.2083 56.427 31.5056 56.6113 31.6399L57.7891 30.0234L58.9668 28.407C58.422 28.01 57.5551 27.5677 56.5305 27.0968L55.6953 28.9141ZM57.7891 30.0234L56.616 31.6433C56.8388 31.8046 56.9153 31.9119 56.9326 31.9403C56.94 31.9522 56.9355 31.9478 56.9299 31.9286C56.9242 31.9087 56.9219 31.8889 56.9219 31.875H58.9219H60.9219C60.9219 30.3332 60.036 29.1812 58.9621 28.4036L57.7891 30.0234ZM58.9219 31.875H56.9219C56.9219 31.9433 56.914 31.9805 56.9102 31.995C56.9068 32.008 56.9045 32.011 56.9043 32.0114C56.9037 32.0122 56.8958 32.0255 56.869 32.05C56.8409 32.0757 56.7887 32.1167 56.6997 32.1663L57.6719 33.9141L58.6441 35.6619C59.3025 35.2956 59.8941 34.7877 60.3145 34.1019C60.7387 33.4098 60.9219 32.645 60.9219 31.875H58.9219ZM57.6719 33.9141L56.7075 32.1619C56.4018 32.3302 55.9285 32.4688 55.1953 32.4688V34.4688V36.4688C56.4205 36.4688 57.5982 36.2375 58.6362 35.6662L57.6719 33.9141ZM55.1953 34.4688V32.4688C54.7097 32.4688 54.3172 32.3943 53.9954 32.2744L53.2969 34.1484L52.5984 36.0225C53.4224 36.3296 54.2955 36.4688 55.1953 36.4688V34.4688ZM53.2969 34.1484L53.9964 32.2748C53.7828 32.195 53.806 32.161 53.8978 32.2621C53.9503 32.3197 54.0133 32.4093 54.0605 32.5299C54.1081 32.6513 54.125 32.7669 54.125 32.8594H52.125H50.125C50.125 34.646 51.4691 35.6009 52.5974 36.0221L53.2969 34.1484ZM52.125 32.8594H54.125C54.125 33.0074 54.0645 33.4514 53.6441 33.8046C53.2904 34.1018 52.9764 34.0781 53.0547 34.0781V32.0781V30.0781C52.5131 30.0781 51.7343 30.1846 51.0707 30.7423C50.3405 31.3559 50.125 32.1906 50.125 32.8594H52.125ZM53.0547 32.0781V34.0781C52.9807 34.0781 52.975 34.0686 53.0681 34.0889C53.1523 34.1072 53.2809 34.1419 53.4613 34.2021L54.0938 32.3047L54.7262 30.4073C54.2298 30.2419 53.6304 30.0781 53.0547 30.0781V32.0781ZM54.0938 32.3047L53.4613 34.2021C53.9629 34.3693 54.5625 34.5312 55.1406 34.5312V32.5312V30.5312C55.209 30.5312 55.211 30.5399 55.1184 30.5199C55.0337 30.5015 54.9054 30.467 54.7262 30.4073L54.0938 32.3047ZM55.1406 32.5312V34.5312C55.7456 34.5312 56.4519 34.4784 57.0779 34.2268C57.4086 34.0939 57.823 33.8636 58.1652 33.4549C58.5354 33.0128 58.7274 32.4717 58.7342 31.915L56.7344 31.8906L54.7345 31.8662C54.7387 31.5231 54.8623 31.1688 55.0985 30.8869C55.3066 30.6384 55.5211 30.5415 55.5861 30.5154C55.6548 30.4878 55.6626 30.4964 55.5685 30.509C55.481 30.5208 55.3421 30.5312 55.1406 30.5312V32.5312ZM56.7344 31.8906H58.7344C58.7344 30.8133 58.0188 30.1578 57.7097 29.91C57.3275 29.6037 56.8695 29.3668 56.4379 29.177L55.6328 31.0078L54.8278 32.8386C55.1305 32.9717 55.2233 33.0434 55.2082 33.0314C55.1971 33.0224 55.0988 32.944 54.9931 32.7828C54.8808 32.6116 54.7344 32.3041 54.7344 31.8906H56.7344ZM55.6328 31.0078L56.441 29.1784C55.9192 28.9479 55.5086 28.7573 55.2015 28.6049C55.0483 28.5289 54.9292 28.4665 54.84 28.417C54.7959 28.3925 54.7625 28.373 54.7384 28.3584C54.7137 28.3434 54.7041 28.3368 54.7058 28.3379L53.5703 29.9844L52.4348 31.6308C52.9202 31.9655 53.7893 32.3799 54.8247 32.8373L55.6328 31.0078ZM53.5703 29.9844L54.7196 28.3475C54.5338 28.2171 54.4791 28.1318 54.4704 28.117C54.4661 28.1097 54.4676 28.1106 54.4691 28.1165C54.4707 28.1222 54.4688 28.1192 54.4688 28.1016H52.4688H50.4688C50.4688 29.6359 51.2823 30.8217 52.4211 31.6212L53.5703 29.9844ZM52.4688 28.1016H54.4688C54.4688 28.0589 54.4716 28.0291 54.4743 28.0104C54.4756 28.0011 54.4769 27.9945 54.4779 27.9902C54.4789 27.986 54.4795 27.984 54.4795 27.9839C54.4796 27.9838 54.4791 27.9852 54.4779 27.988C54.4768 27.9908 54.4751 27.9944 54.4729 27.9987C54.4681 28.0077 54.4626 28.0162 54.4572 28.023C54.4273 28.061 54.4657 27.9802 54.7572 27.8844L54.1328 25.9844L53.5084 24.0843C52.6905 24.3531 51.8969 24.8075 51.3123 25.5512C50.7135 26.3131 50.4688 27.2077 50.4688 28.1016H52.4688ZM54.1328 25.9844L54.7561 27.8848C55.0961 27.7733 55.8256 27.6641 57.1016 27.6641V25.6641V23.6641C55.7213 23.6641 54.4716 23.7684 53.5095 24.084L54.1328 25.9844ZM57.1016 25.6641V27.6641C57.2815 27.6641 57.3871 27.6762 57.4352 27.6847C57.4573 27.6886 57.4558 27.6897 57.4359 27.6833C57.4163 27.6771 57.3694 27.6605 57.3052 27.6258L58.2578 25.8672L59.2104 24.1086C58.5146 23.7317 57.7209 23.6641 57.1016 23.6641V25.6641ZM58.2578 25.8672L57.3208 27.6341C57.1424 27.5395 56.971 27.3758 56.864 27.1668C56.7693 26.9816 56.7734 26.8559 56.7734 26.875H58.7734H60.7734C60.7734 25.8709 60.3706 24.7238 59.1948 24.1003L58.2578 25.8672ZM58.7734 26.875H56.7734C56.7734 27.0252 56.7629 27.1071 56.7576 27.1366C56.7515 27.1707 56.7585 27.1012 56.8234 26.9809C56.8939 26.85 57.0385 26.6512 57.2951 26.4925C57.5572 26.3303 57.8213 26.2812 58.0156 26.2812V28.2812V30.2812C58.4626 30.2812 58.9477 30.1736 59.3993 29.8943C59.8453 29.6184 60.1477 29.2438 60.3446 28.8785C60.7061 28.2077 60.7734 27.458 60.7734 26.875H58.7734Z" fill="#E7E7E7" mask="url(#path-6-outside-1_1084_607)"/>
<path d="M14 57.6667C14 53.2485 17.5817 49.6667 22 49.6667H31C35.4183 49.6667 39 53.2485 39 57.6667V66.6667C39 71.085 35.4183 74.6667 31 74.6667H22C17.5817 74.6667 14 71.085 14 66.6667V57.6667Z" fill="white"/>
<path d="M28.7812 50.2292L28.4062 50.2449C28.344 50.247 28.2532 50.2652 28.125 50.3386L27.75 50.5574L27.375 50.7683C27.0045 50.9814 26.5942 51.1142 26.1562 51.1277L25.7812 51.1433L25.4062 51.1511C25.1011 51.1604 24.7958 51.1457 24.4922 51.1042L24.1172 51.0574L23.7422 51.0027C23.4732 50.9658 23.1982 50.9224 22.9297 50.8699L22.5547 50.7917L22.1797 50.7214C22.1516 50.7159 22.1248 50.6973 22.0938 50.6902C21.9443 50.843 21.772 50.982 21.5469 51.0574C21.224 51.1645 20.9086 51.1417 20.6562 51.0808L19.875 50.8933C19.8067 50.8768 19.7669 50.8808 19.7344 50.8933L19.375 51.0417L19.0234 51.1824C18.8352 51.2575 18.652 51.3443 18.4766 51.448L18.1484 51.6433L17.8125 51.8386C17.5937 51.9681 17.3703 52.1019 17.1406 52.2371L16.7891 52.4402L16.4922 52.6121L16.4219 53.0027L16.3438 53.4246C16.2786 53.7857 16.1708 54.1299 16.0078 54.448L15.8438 54.7761L15.6719 55.1042C15.5958 55.2533 15.5417 55.4103 15.5 55.573L15.3125 56.2917C15.2324 56.6046 15.1191 56.9134 14.9688 57.2136L14.7812 57.5808L14.6406 57.8386L14.8047 58.1355L15.0156 58.5105C15.2515 58.9415 15.3453 59.4318 15.2422 59.9402L15.1641 60.3152L15.0938 60.6902C15.0376 60.9662 14.9699 61.2439 14.8906 61.5183L14.6719 62.2683V62.2761C14.6734 62.2813 14.673 62.2932 14.6797 62.3074L14.8594 62.6824L15.0469 63.0574C15.317 63.6189 15.2777 64.2224 14.9766 64.7449L14.7578 65.1199L14.6016 65.3699L14.75 65.6277L14.9609 66.0027C15.2243 66.4754 15.2925 67.0095 15.1328 67.5417L15.0156 67.9324L14.9062 68.2761L15.0859 68.573L15.2969 68.9089C15.5014 69.2384 15.6379 69.5981 15.7109 69.9792L15.7891 70.3777L15.8516 70.7058L16.1641 70.8777L16.5234 71.0808C16.7737 71.2188 17.0131 71.3528 17.2344 71.4871L17.5469 71.6746L17.8594 71.8699C18.2254 72.0926 18.5089 72.4041 18.7266 72.7605L18.9531 73.1277L19.1797 73.4871C19.1958 73.5134 19.206 73.5292 19.2109 73.5339L19.2188 73.5417L19.5938 73.6589L19.9766 73.7683C20.1187 73.812 20.2596 73.8366 20.4062 73.8308L20.8047 73.8152L21.1953 73.7996C21.5033 73.7869 21.8089 73.7917 22.1094 73.823L22.8594 73.9011C22.8809 73.9034 22.9291 73.9059 23.0234 73.8542L23.3984 73.6433L23.7734 73.4402C24.1015 73.2591 24.4657 73.1563 24.8438 73.1667L25.2344 73.2214L25.6094 73.2996L25.9844 73.3855C26.1421 73.4211 26.2941 73.4334 26.4453 73.4246L26.8203 73.4089L27.1953 73.3855C27.4035 73.373 27.618 73.3464 27.8281 73.3074L28.5781 73.1667C29.0923 73.0717 29.5817 73.1874 30.0078 73.4324L30.3828 73.6433L30.6797 73.8152L30.9297 73.698L31.2891 73.5261C31.708 73.3268 32.1655 73.2572 32.625 73.323L33.0156 73.3777L33.4141 73.4324C33.5578 73.4529 33.6994 73.4483 33.8438 73.4167L34.2422 73.3308L34.5625 73.2527L34.7578 72.9011L34.9609 72.5183C35.1219 72.2127 35.3057 71.9309 35.5156 71.6824L35.75 71.4089L35.9844 71.1277C36.1163 70.9716 36.2396 70.8108 36.3516 70.6433L36.5547 70.3386L37.1406 69.448L37.3359 69.1355L37.5391 68.823C37.643 68.6601 37.7361 68.4821 37.8203 68.2917L37.9766 67.9324L38.1172 67.6042L37.9688 67.2371L37.8203 66.8542C37.6814 66.5089 37.5919 66.1517 37.5703 65.7839L37.5469 65.4089L37.5312 65.0339C37.5006 64.5115 37.6764 64.0436 37.9531 63.6511L38.2188 63.2761L38.4531 62.9402L38.3594 62.6746L38.2344 62.2996C38.0931 61.8875 38.0607 61.457 38.1484 61.0261L38.2188 60.6511L38.2969 60.2761C38.2987 60.2673 38.2978 60.2586 38.2969 60.2527C38.2949 60.2428 38.2915 60.2171 38.2734 60.1824L37.8828 59.4324C37.6945 59.0693 37.5742 58.6765 37.5625 58.2605L37.5469 57.5261C37.5404 57.2957 37.5239 57.0693 37.5078 56.8464L37.4844 56.4871L37.4609 56.1355C37.4438 55.8981 37.4246 55.6483 37.4062 55.3933L37.375 55.0105L37.3516 54.6199C37.3383 54.4388 37.3058 54.2492 37.25 54.0574L37.1328 53.6746L37.0234 53.3074L36.6719 53.1199L36.3125 52.9246C36.057 52.7892 35.8138 52.6556 35.5859 52.5183L35.2656 52.323L34.9453 52.1355C34.6022 51.9282 34.3191 51.6469 34.0859 51.323L33.8359 50.9714L33.7266 50.823L33.5312 50.8699L33.1094 50.9792C32.673 51.0908 32.2135 51.1017 31.7656 50.9558L31.0469 50.7214C30.8171 50.6465 30.5775 50.5747 30.3359 50.5027L29.9609 50.3933L29.5859 50.2761C29.436 50.2319 29.293 50.217 29.1562 50.2214L28.7812 50.2292ZM21.1094 48.6277C21.1457 48.5804 21.2329 48.4723 21.3594 48.3777C21.4207 48.3319 21.5654 48.2248 21.7812 48.1824C22.0526 48.1299 22.395 48.186 22.6641 48.4324C22.8101 48.5662 22.8797 48.719 22.9219 48.8308H22.9453L23.3203 48.9089C23.5495 48.9537 23.7792 48.9869 24.0078 49.0183L24.3828 49.073L24.7578 49.1199C24.953 49.1466 25.15 49.157 25.3438 49.1511L26.0938 49.1355C26.1555 49.1336 26.2458 49.1083 26.375 49.0339L26.75 48.823L27.125 48.6042C27.4953 48.3912 27.9062 48.259 28.3438 48.2449L28.7188 48.2371L29.0938 48.2214C29.4554 48.2099 29.8158 48.2583 30.1641 48.3621L30.5391 48.4714L30.9141 48.5886C31.1706 48.6651 31.426 48.7427 31.6719 48.823L32.0234 48.9402L32.3828 49.0574C32.4118 49.0668 32.4771 49.0754 32.6094 49.0417L33.4688 48.823L33.9297 48.7683C34.0926 48.7704 34.2601 48.802 34.4297 48.8621C34.7703 48.9829 35.0242 49.2068 35.2031 49.4558L35.4531 49.7996L35.7109 50.1511C35.8124 50.2923 35.9064 50.3775 35.9844 50.4246L36.2969 50.6121L36.6172 50.8074C36.8105 50.9239 37.0233 51.0388 37.25 51.1589L37.6094 51.3542L37.9766 51.5496C38.4505 51.8015 38.7932 52.2067 38.9453 52.7292L39.0547 53.1121L39.1641 53.5027C39.2578 53.8246 39.32 54.1502 39.3438 54.4792L39.375 54.8621L39.3984 55.2449C39.4168 55.5002 39.436 55.7494 39.4531 55.9871L39.4766 56.3464L39.5078 56.7058C39.5259 56.9576 39.5397 57.2137 39.5469 57.4714L39.5625 58.2058C39.5647 58.2778 39.587 58.3764 39.6562 58.5105L40.0469 59.2605C40.2708 59.6911 40.3592 60.1764 40.2578 60.6746L40.1016 61.4246C40.0877 61.4933 40.095 61.5637 40.125 61.6511L40.25 62.0261L40.3828 62.4011C40.5892 63.0045 40.4441 63.5854 40.1172 64.0496L39.5859 64.7996C39.5465 64.8555 39.5282 64.8941 39.5234 64.9089C39.5202 64.9194 39.5236 64.9211 39.5234 64.9167L39.5703 65.6667C39.5781 65.7987 39.606 65.9483 39.6719 66.1121L39.8281 66.4871L39.9844 66.8699C40.1801 67.3564 40.1883 67.8864 39.9688 68.3855L39.8125 68.7449L39.6562 69.0964C39.5329 69.3758 39.3872 69.6411 39.2266 69.8933L39.0234 70.2136L38.8281 70.5261C38.6918 70.7398 38.5509 70.9462 38.4141 71.1511L38.2109 71.4558L38.0156 71.7527C37.862 71.9828 37.6951 72.2041 37.5156 72.4167L37.2812 72.698L37.0469 72.9714C36.9451 73.092 36.8327 73.2541 36.7266 73.4558L36.5312 73.8308L36.3281 74.2136C36.0683 74.7076 35.6343 75.0716 35.0625 75.198L34.2812 75.3699C33.903 75.4535 33.5162 75.4714 33.1328 75.4167L32.7344 75.3542L32.3359 75.2996C32.2677 75.2901 32.2119 75.3006 32.1484 75.3308L31.7891 75.5027L31.4219 75.6746C30.8587 75.941 30.2652 75.8881 29.7578 75.5964L29.0078 75.1589C28.9743 75.1401 28.9529 75.1374 28.9453 75.1355L28.1953 75.2761C27.9059 75.3299 27.6115 75.3601 27.3203 75.3777L26.5703 75.4246C26.2242 75.4454 25.8786 75.4157 25.5391 75.3386L24.7891 75.1667L24.7812 75.1746C24.773 75.1776 24.7594 75.1807 24.7422 75.1902L24.3672 75.4011L23.9922 75.6042C23.5886 75.827 23.1355 75.9426 22.6562 75.8933L22.2812 75.8542L21.8984 75.8152C21.6981 75.7944 21.488 75.7829 21.2734 75.7917L20.4922 75.823C20.1163 75.8385 19.7424 75.7932 19.3828 75.6824L18.6328 75.448C18.1268 75.2921 17.733 74.9665 17.4688 74.5339L17.25 74.1667L17.0234 73.7996C16.9428 73.6676 16.8705 73.6034 16.8203 73.573L16.1953 73.198C15.9999 73.0794 15.7843 72.9574 15.5547 72.8308L15.1953 72.6277L14.8359 72.4324C14.3419 72.16 14.0065 71.7132 13.8984 71.1511L13.8281 70.7527L13.75 70.3542C13.7221 70.2089 13.6736 70.0799 13.6016 69.9636L13.1797 69.2917C12.8848 68.8151 12.8278 68.2755 12.9844 67.7527L13.1016 67.3621L13.2109 66.9792L13.0078 66.6042L12.7969 66.2292C12.4835 65.6696 12.4888 65.0451 12.8047 64.4949L13.0234 64.1199L13.1953 63.823L13.0625 63.5496L12.8828 63.1746C12.6636 62.7189 12.6047 62.2164 12.75 61.7136L12.9688 60.9636C13.0335 60.7395 13.0875 60.5143 13.1328 60.2917L13.2109 59.9167L13.2812 59.5417V59.5339C13.2794 59.526 13.2759 59.5045 13.2578 59.4714L13.0547 59.0964L12.8438 58.7214C12.5579 58.1978 12.5363 57.6009 12.8125 57.0496L12.9922 56.6824L13.1797 56.3152C13.2735 56.1277 13.3343 55.9513 13.375 55.7917L13.4688 55.4402L13.5625 55.0808C13.6414 54.7719 13.7531 54.4738 13.8984 54.1902L14.2266 53.5339C14.2861 53.4175 14.3472 53.2693 14.3828 53.073L14.4531 52.6511L14.5312 52.2292L14.6406 51.8386C14.7903 51.4621 15.0553 51.145 15.4297 50.9246L15.7734 50.7214L16.125 50.5183C16.3548 50.3831 16.5782 50.2492 16.7969 50.1199L17.125 49.9246L17.4609 49.7292C17.7246 49.5734 17.9972 49.4363 18.2812 49.323L18.6328 49.1824L18.9922 49.0417C19.4318 48.8665 19.893 48.839 20.3438 48.948L20.7344 49.0417L20.8203 49.0652L20.9766 48.8152C21.0149 48.7547 21.0624 48.6889 21.1094 48.6277Z" fill="black"/>
<path d="M21 66.8042C22.0574 69.7423 25.2641 71.7394 26.2264 70.0451C27.8498 67.1867 31.43 55.3868 32 53.6667" stroke="black" stroke-width="2" stroke-linecap="round"/>
<path d="M14 57.6667C14 53.2485 17.5817 49.6667 22 49.6667H31C35.4183 49.6667 39 53.2485 39 57.6667V66.6667C39 71.085 35.4183 74.6667 31 74.6667H22C17.5817 74.6667 14 71.085 14 66.6667V57.6667Z" fill="white"/>
<path d="M28.7812 50.2292L28.4062 50.2449C28.344 50.247 28.2532 50.2652 28.125 50.3386L27.75 50.5574L27.375 50.7683C27.0045 50.9814 26.5942 51.1142 26.1562 51.1277L25.7812 51.1433L25.4062 51.1511C25.1011 51.1604 24.7958 51.1457 24.4922 51.1042L24.1172 51.0574L23.7422 51.0027C23.4732 50.9658 23.1982 50.9224 22.9297 50.8699L22.5547 50.7917L22.1797 50.7214C22.1516 50.7159 22.1248 50.6973 22.0938 50.6902C21.9443 50.843 21.772 50.982 21.5469 51.0574C21.224 51.1645 20.9086 51.1417 20.6562 51.0808L19.875 50.8933C19.8067 50.8768 19.7669 50.8808 19.7344 50.8933L19.375 51.0417L19.0234 51.1824C18.8352 51.2575 18.652 51.3443 18.4766 51.448L18.1484 51.6433L17.8125 51.8386C17.5937 51.9681 17.3703 52.1019 17.1406 52.2371L16.7891 52.4402L16.4922 52.6121L16.4219 53.0027L16.3438 53.4246C16.2786 53.7857 16.1708 54.1299 16.0078 54.448L15.8438 54.7761L15.6719 55.1042C15.5958 55.2533 15.5417 55.4103 15.5 55.573L15.3125 56.2917C15.2324 56.6046 15.1191 56.9134 14.9688 57.2136L14.7812 57.5808L14.6406 57.8386L14.8047 58.1355L15.0156 58.5105C15.2515 58.9415 15.3453 59.4318 15.2422 59.9402L15.1641 60.3152L15.0938 60.6902C15.0376 60.9662 14.9699 61.2439 14.8906 61.5183L14.6719 62.2683V62.2761C14.6734 62.2813 14.673 62.2932 14.6797 62.3074L14.8594 62.6824L15.0469 63.0574C15.317 63.6189 15.2777 64.2224 14.9766 64.7449L14.7578 65.1199L14.6016 65.3699L14.75 65.6277L14.9609 66.0027C15.2243 66.4754 15.2925 67.0095 15.1328 67.5417L15.0156 67.9324L14.9062 68.2761L15.0859 68.573L15.2969 68.9089C15.5014 69.2384 15.6379 69.5981 15.7109 69.9792L15.7891 70.3777L15.8516 70.7058L16.1641 70.8777L16.5234 71.0808C16.7737 71.2188 17.0131 71.3528 17.2344 71.4871L17.5469 71.6746L17.8594 71.8699C18.2254 72.0926 18.5089 72.4041 18.7266 72.7605L18.9531 73.1277L19.1797 73.4871C19.1958 73.5134 19.206 73.5292 19.2109 73.5339L19.2188 73.5417L19.5938 73.6589L19.9766 73.7683C20.1187 73.812 20.2596 73.8366 20.4062 73.8308L20.8047 73.8152L21.1953 73.7996C21.5033 73.7869 21.8089 73.7917 22.1094 73.823L22.8594 73.9011C22.8809 73.9034 22.9291 73.9059 23.0234 73.8542L23.3984 73.6433L23.7734 73.4402C24.1015 73.2591 24.4657 73.1563 24.8438 73.1667L25.2344 73.2214L25.6094 73.2996L25.9844 73.3855C26.1421 73.4211 26.2941 73.4334 26.4453 73.4246L26.8203 73.4089L27.1953 73.3855C27.4035 73.373 27.618 73.3464 27.8281 73.3074L28.5781 73.1667C29.0923 73.0717 29.5817 73.1874 30.0078 73.4324L30.3828 73.6433L30.6797 73.8152L30.9297 73.698L31.2891 73.5261C31.708 73.3268 32.1655 73.2572 32.625 73.323L33.0156 73.3777L33.4141 73.4324C33.5578 73.4529 33.6994 73.4483 33.8438 73.4167L34.2422 73.3308L34.5625 73.2527L34.7578 72.9011L34.9609 72.5183C35.1219 72.2127 35.3057 71.9309 35.5156 71.6824L35.75 71.4089L35.9844 71.1277C36.1163 70.9716 36.2396 70.8108 36.3516 70.6433L36.5547 70.3386L37.1406 69.448L37.3359 69.1355L37.5391 68.823C37.643 68.6601 37.7361 68.4821 37.8203 68.2917L37.9766 67.9324L38.1172 67.6042L37.9688 67.2371L37.8203 66.8542C37.6814 66.5089 37.5919 66.1517 37.5703 65.7839L37.5469 65.4089L37.5312 65.0339C37.5006 64.5115 37.6764 64.0436 37.9531 63.6511L38.2188 63.2761L38.4531 62.9402L38.3594 62.6746L38.2344 62.2996C38.0931 61.8875 38.0607 61.457 38.1484 61.0261L38.2188 60.6511L38.2969 60.2761C38.2987 60.2673 38.2978 60.2586 38.2969 60.2527C38.2949 60.2428 38.2915 60.2171 38.2734 60.1824L37.8828 59.4324C37.6945 59.0693 37.5742 58.6765 37.5625 58.2605L37.5469 57.5261C37.5404 57.2957 37.5239 57.0693 37.5078 56.8464L37.4844 56.4871L37.4609 56.1355C37.4438 55.8981 37.4246 55.6483 37.4062 55.3933L37.375 55.0105L37.3516 54.6199C37.3383 54.4388 37.3058 54.2492 37.25 54.0574L37.1328 53.6746L37.0234 53.3074L36.6719 53.1199L36.3125 52.9246C36.057 52.7892 35.8138 52.6556 35.5859 52.5183L35.2656 52.323L34.9453 52.1355C34.6022 51.9282 34.3191 51.6469 34.0859 51.323L33.8359 50.9714L33.7266 50.823L33.5312 50.8699L33.1094 50.9792C32.673 51.0908 32.2135 51.1017 31.7656 50.9558L31.0469 50.7214C30.8171 50.6465 30.5775 50.5747 30.3359 50.5027L29.9609 50.3933L29.5859 50.2761C29.436 50.2319 29.293 50.217 29.1562 50.2214L28.7812 50.2292ZM21.1094 48.6277C21.1457 48.5804 21.2329 48.4723 21.3594 48.3777C21.4207 48.3319 21.5654 48.2248 21.7812 48.1824C22.0526 48.1299 22.395 48.186 22.6641 48.4324C22.8101 48.5662 22.8797 48.719 22.9219 48.8308H22.9453L23.3203 48.9089C23.5495 48.9537 23.7792 48.9869 24.0078 49.0183L24.3828 49.073L24.7578 49.1199C24.953 49.1466 25.15 49.157 25.3438 49.1511L26.0938 49.1355C26.1555 49.1336 26.2458 49.1083 26.375 49.0339L26.75 48.823L27.125 48.6042C27.4953 48.3912 27.9062 48.259 28.3438 48.2449L28.7188 48.2371L29.0938 48.2214C29.4554 48.2099 29.8158 48.2583 30.1641 48.3621L30.5391 48.4714L30.9141 48.5886C31.1706 48.6651 31.426 48.7427 31.6719 48.823L32.0234 48.9402L32.3828 49.0574C32.4118 49.0668 32.4771 49.0754 32.6094 49.0417L33.4688 48.823L33.9297 48.7683C34.0926 48.7704 34.2601 48.802 34.4297 48.8621C34.7703 48.9829 35.0242 49.2068 35.2031 49.4558L35.4531 49.7996L35.7109 50.1511C35.8124 50.2923 35.9064 50.3775 35.9844 50.4246L36.2969 50.6121L36.6172 50.8074C36.8105 50.9239 37.0233 51.0388 37.25 51.1589L37.6094 51.3542L37.9766 51.5496C38.4505 51.8015 38.7932 52.2067 38.9453 52.7292L39.0547 53.1121L39.1641 53.5027C39.2578 53.8246 39.32 54.1502 39.3438 54.4792L39.375 54.8621L39.3984 55.2449C39.4168 55.5002 39.436 55.7494 39.4531 55.9871L39.4766 56.3464L39.5078 56.7058C39.5259 56.9576 39.5397 57.2137 39.5469 57.4714L39.5625 58.2058C39.5647 58.2778 39.587 58.3764 39.6562 58.5105L40.0469 59.2605C40.2708 59.6911 40.3592 60.1764 40.2578 60.6746L40.1016 61.4246C40.0877 61.4933 40.095 61.5637 40.125 61.6511L40.25 62.0261L40.3828 62.4011C40.5892 63.0045 40.4441 63.5854 40.1172 64.0496L39.5859 64.7996C39.5465 64.8555 39.5282 64.8941 39.5234 64.9089C39.5202 64.9194 39.5236 64.9211 39.5234 64.9167L39.5703 65.6667C39.5781 65.7987 39.606 65.9483 39.6719 66.1121L39.8281 66.4871L39.9844 66.8699C40.1801 67.3564 40.1883 67.8864 39.9688 68.3855L39.8125 68.7449L39.6562 69.0964C39.5329 69.3758 39.3872 69.6411 39.2266 69.8933L39.0234 70.2136L38.8281 70.5261C38.6918 70.7398 38.5509 70.9462 38.4141 71.1511L38.2109 71.4558L38.0156 71.7527C37.862 71.9828 37.6951 72.2041 37.5156 72.4167L37.2812 72.698L37.0469 72.9714C36.9451 73.092 36.8327 73.2541 36.7266 73.4558L36.5312 73.8308L36.3281 74.2136C36.0683 74.7076 35.6343 75.0716 35.0625 75.198L34.2812 75.3699C33.903 75.4535 33.5162 75.4714 33.1328 75.4167L32.7344 75.3542L32.3359 75.2996C32.2677 75.2901 32.2119 75.3006 32.1484 75.3308L31.7891 75.5027L31.4219 75.6746C30.8587 75.941 30.2652 75.8881 29.7578 75.5964L29.0078 75.1589C28.9743 75.1401 28.9529 75.1374 28.9453 75.1355L28.1953 75.2761C27.9059 75.3299 27.6115 75.3601 27.3203 75.3777L26.5703 75.4246C26.2242 75.4454 25.8786 75.4157 25.5391 75.3386L24.7891 75.1667L24.7812 75.1746C24.773 75.1776 24.7594 75.1807 24.7422 75.1902L24.3672 75.4011L23.9922 75.6042C23.5886 75.827 23.1355 75.9426 22.6562 75.8933L22.2812 75.8542L21.8984 75.8152C21.6981 75.7944 21.488 75.7829 21.2734 75.7917L20.4922 75.823C20.1163 75.8385 19.7424 75.7932 19.3828 75.6824L18.6328 75.448C18.1268 75.2921 17.733 74.9665 17.4688 74.5339L17.25 74.1667L17.0234 73.7996C16.9428 73.6676 16.8705 73.6034 16.8203 73.573L16.1953 73.198C15.9999 73.0794 15.7843 72.9574 15.5547 72.8308L15.1953 72.6277L14.8359 72.4324C14.3419 72.16 14.0065 71.7132 13.8984 71.1511L13.8281 70.7527L13.75 70.3542C13.7221 70.2089 13.6736 70.0799 13.6016 69.9636L13.1797 69.2917C12.8848 68.8151 12.8278 68.2755 12.9844 67.7527L13.1016 67.3621L13.2109 66.9792L13.0078 66.6042L12.7969 66.2292C12.4835 65.6696 12.4888 65.0451 12.8047 64.4949L13.0234 64.1199L13.1953 63.823L13.0625 63.5496L12.8828 63.1746C12.6636 62.7189 12.6047 62.2164 12.75 61.7136L12.9688 60.9636C13.0335 60.7395 13.0875 60.5143 13.1328 60.2917L13.2109 59.9167L13.2812 59.5417V59.5339C13.2794 59.526 13.2759 59.5045 13.2578 59.4714L13.0547 59.0964L12.8438 58.7214C12.5579 58.1978 12.5363 57.6009 12.8125 57.0496L12.9922 56.6824L13.1797 56.3152C13.2735 56.1277 13.3343 55.9513 13.375 55.7917L13.4688 55.4402L13.5625 55.0808C13.6414 54.7719 13.7531 54.4738 13.8984 54.1902L14.2266 53.5339C14.2861 53.4175 14.3472 53.2693 14.3828 53.073L14.4531 52.6511L14.5312 52.2292L14.6406 51.8386C14.7903 51.4621 15.0553 51.145 15.4297 50.9246L15.7734 50.7214L16.125 50.5183C16.3548 50.3831 16.5782 50.2492 16.7969 50.1199L17.125 49.9246L17.4609 49.7292C17.7246 49.5734 17.9972 49.4363 18.2812 49.323L18.6328 49.1824L18.9922 49.0417C19.4318 48.8665 19.893 48.839 20.3438 48.948L20.7344 49.0417L20.8203 49.0652L20.9766 48.8152C21.0149 48.7547 21.0624 48.6889 21.1094 48.6277Z" fill="black"/>
</g>
<rect x="1.25" y="1.25" width="131.5" height="97.5" rx="13.75" stroke="black" stroke-width="2.5"/>
<defs>
<clipPath id="clip0_1084_607">
<rect width="134" height="100" rx="15" fill="white"/>
</clipPath>
</defs>
</svg>
