<svg xmlns="http://www.w3.org/2000/svg" width="134" height="100" fill="none" viewBox="0 0 134 100"><g clip-path="url(#a)"><rect width="134" height="100" fill="#eee" rx="15"/><mask id="b" width="65" height="26" x="12" y="18" fill="#000" maskUnits="userSpaceOnUse"><path fill="#fff" d="M12 18h65v26H12z"/><path d="M19.82 36.42q-1.4 0-2.68-.5-.37.38-.91.38t-.94-.36a1.2 1.2 0 0 1-.38-.9q0-.26.03-.75l.03-.74V22.1q0-.72.32-1.29.4-.7 1.15-.71 1.08 0 1.08 1.17 0 .13-.04.42l-.03.41v3.87q.75-.41 1.43-.62.69-.2 1.33-.2 2.37 0 3.83 1.72a6 6 0 0 1 1.36 3.91q0 2.34-1.58 3.97a5.3 5.3 0 0 1-4 1.66m.39-8.68q-.53 0-1.21.3-.7.3-1.55.9v4.3q1.38.6 2.37.59a2.8 2.8 0 0 0 2.11-.86q.83-.86.83-2.18 0-1.31-.68-2.17-.71-.88-1.87-.88m9.4-3.87q-.65 0-1.13-.43a1.4 1.4 0 0 1-.47-1.06q0-.63.47-1.06a1.6 1.6 0 0 1 1.12-.44q.64 0 1.11.44.48.43.48 1.06 0 .62-.48 1.06-.46.43-1.1.43m.85 7.4q0 .57.03 1.84.04 1.28.04 1.85 0 .59-.4.97-.39.37-1 .37-.6 0-1-.37a1.3 1.3 0 0 1-.39-.97q.01-.57-.04-1.85l-.03-1.84q0-.9.1-2.25t.1-2.25q0-.6.4-.96.4-.39 1-.39t1 .39.39.96q0 .9-.1 2.25t-.1 2.25m7.27 5.37a5.6 5.6 0 0 1-3.72-1.27 4.4 4.4 0 0 1-1.58-3.5 7.5 7.5 0 0 1 1.42-4.15q1.62-2.45 3.75-2.45 1.05 0 2.46.57 1.7.7 1.7 1.6 0 .5-.34.88a1.2 1.2 0 0 1-.94.41q-.44 0-1.05-.46-.6-.48-1.83-.47-.77 0-1.68 1.52a5 5 0 0 0-.87 2.54 2 2 0 0 0 .77 1.67 3 3 0 0 0 1.91.57q.68 0 1.66-.51a4 4 0 0 1 1.24-.52q.54 0 .93.4.4.39.4.9 0 .78-1.72 1.57-1.54.7-2.5.7m11.06-.18a6.4 6.4 0 0 1-3.94-1.15 4.2 4.2 0 0 1-1.7-3.58q0-2.55 1.35-4.32a4.8 4.8 0 0 1 4.02-1.96q1.75 0 2.92.57 1.52.75 1.52 2.32 0 1.11-1.24 1.97-.57.39-2.27 1.15l-3.4 1.5q.48.52 1.17.79.69.26 1.57.26 1.35 0 2.3-.55.83-.5 1.34-.5 1.05 0 1.05 1.02 0 1.16-1.69 1.88-1.41.6-3 .6m-.27-8.56q-.94 0-1.6.62-.67.63-1.07 1.88l2.27-.98q1.36-.61 2.17-1.14a3.6 3.6 0 0 0-1.77-.38m11.41 8.7q-.86 0-1.82-.2l-.01 4.11q0 .59-.4.97-.4.39-1 .38-.6 0-1-.38a1.3 1.3 0 0 1-.39-.97l.02-3.76q.03-2.45 0-3.99a68 68 0 0 0-.29-5.74q0-.84.37-1.43.44-.68 1.17-.68.57 0 .95.38.39.4.39.92l-.01.1a6 6 0 0 1 2.72-.75q2.32 0 3.4 1.96.78 1.49.79 3.85 0 2.21-1.26 3.66a4.6 4.6 0 0 1-3.63 1.57m.7-8.35q-.63 0-1.3.3-.65.3-1.31.9.12 2.07.12 4.16.9.3 1.8.3 1.03 0 1.59-.75.5-.66.5-1.8 0-1.35-.12-1.88-.3-1.23-1.28-1.23m12.8.36q-.99 0-1.2-.83a5 5 0 0 0-.82-.07q-2.43 0-2.43.66 0 .4 1.46 1.06 2 .92 2.7 1.43 1.47 1.06 1.47 2.4 0 1.73-1.62 2.63-1.3.72-3.2.72-1.34 0-2.45-.42-1.5-.56-1.51-1.66 0-1.02 1.2-1.01.46 0 1.34.29.89.3 1.35.3 2.06 0 2.06-.83 0-.52-1.42-1.14a20 20 0 0 1-2.67-1.33q-1.41-.99-1.42-2.43 0-2.02 2.15-2.73 1.26-.42 3.84-.42 1 0 1.49.27.66.34.67 1.3 0 1.8-.98 1.81"/></mask><path fill="#000" d="M19.82 36.42q-1.4 0-2.68-.5-.37.38-.91.38t-.94-.36a1.2 1.2 0 0 1-.38-.9q0-.26.03-.75l.03-.74V22.1q0-.72.32-1.29.4-.7 1.15-.71 1.08 0 1.08 1.17 0 .13-.04.42l-.03.41v3.87q.75-.41 1.43-.62.69-.2 1.33-.2 2.37 0 3.83 1.72a6 6 0 0 1 1.36 3.91q0 2.34-1.58 3.97a5.3 5.3 0 0 1-4 1.66m.39-8.68q-.53 0-1.21.3-.7.3-1.55.9v4.3q1.38.6 2.37.59a2.8 2.8 0 0 0 2.11-.86q.83-.86.83-2.18 0-1.31-.68-2.17-.71-.88-1.87-.88m9.4-3.87q-.65 0-1.13-.43a1.4 1.4 0 0 1-.47-1.06q0-.63.47-1.06a1.6 1.6 0 0 1 1.12-.44q.64 0 1.11.44.48.43.48 1.06 0 .62-.48 1.06-.46.43-1.1.43m.85 7.4q0 .57.03 1.84.04 1.28.04 1.85 0 .59-.4.97-.39.37-1 .37-.6 0-1-.37a1.3 1.3 0 0 1-.39-.97q.01-.57-.04-1.85l-.03-1.84q0-.9.1-2.25t.1-2.25q0-.6.4-.96.4-.39 1-.39t1 .39.39.96q0 .9-.1 2.25t-.1 2.25m7.27 5.37a5.6 5.6 0 0 1-3.72-1.27 4.4 4.4 0 0 1-1.58-3.5 7.5 7.5 0 0 1 1.42-4.15q1.62-2.45 3.75-2.45 1.05 0 2.46.57 1.7.7 1.7 1.6 0 .5-.34.88a1.2 1.2 0 0 1-.94.41q-.44 0-1.05-.46-.6-.48-1.83-.47-.77 0-1.68 1.52a5 5 0 0 0-.87 2.54 2 2 0 0 0 .77 1.67 3 3 0 0 0 1.91.57q.68 0 1.66-.51a4 4 0 0 1 1.24-.52q.54 0 .93.4.4.39.4.9 0 .78-1.72 1.57-1.54.7-2.5.7m11.06-.18a6.4 6.4 0 0 1-3.94-1.15 4.2 4.2 0 0 1-1.7-3.58q0-2.55 1.35-4.32a4.8 4.8 0 0 1 4.02-1.96q1.75 0 2.92.57 1.52.75 1.52 2.32 0 1.11-1.24 1.97-.57.39-2.27 1.15l-3.4 1.5q.48.52 1.17.79.69.26 1.57.26 1.35 0 2.3-.55.83-.5 1.34-.5 1.05 0 1.05 1.02 0 1.16-1.69 1.88-1.41.6-3 .6m-.27-8.56q-.94 0-1.6.62-.67.63-1.07 1.88l2.27-.98q1.36-.61 2.17-1.14a3.6 3.6 0 0 0-1.77-.38m11.41 8.7q-.86 0-1.82-.2l-.01 4.11q0 .59-.4.97-.4.39-1 .38-.6 0-1-.38a1.3 1.3 0 0 1-.39-.97l.02-3.76q.03-2.45 0-3.99a68 68 0 0 0-.29-5.74q0-.84.37-1.43.44-.68 1.17-.68.57 0 .95.38.39.4.39.92l-.01.1a6 6 0 0 1 2.72-.75q2.32 0 3.4 1.96.78 1.49.79 3.85 0 2.21-1.26 3.66a4.6 4.6 0 0 1-3.63 1.57m.7-8.35q-.63 0-1.3.3-.65.3-1.31.9.12 2.07.12 4.16.9.3 1.8.3 1.03 0 1.59-.75.5-.66.5-1.8 0-1.35-.12-1.88-.3-1.23-1.28-1.23m12.8.36q-.99 0-1.2-.83a5 5 0 0 0-.82-.07q-2.43 0-2.43.66 0 .4 1.46 1.06 2 .92 2.7 1.43 1.47 1.06 1.47 2.4 0 1.73-1.62 2.63-1.3.72-3.2.72-1.34 0-2.45-.42-1.5-.56-1.51-1.66 0-1.02 1.2-1.01.46 0 1.34.29.89.3 1.35.3 2.06 0 2.06-.83 0-.52-1.42-1.14a20 20 0 0 1-2.67-1.33q-1.41-.99-1.42-2.43 0-2.02 2.15-2.73 1.26-.42 3.84-.42 1 0 1.49.27.66.34.67 1.3 0 1.8-.98 1.81"/><path fill="#e7e7e7" d="m17.14 35.93.72-1.86-1.21-.48-.93.93zm-1.85.01-1.37 1.45v.01h.02zm-.35-1.65 2 .13zm.35-13.47 1.74 1v-.02zm2.2.88-1.99-.27v.06zm-.04 4.28h-2v3.4l2.97-1.65zm1.43-.62.57 1.92h.02zm5.16 1.52 1.53-1.3zm-.22 7.88-1.43-1.4zM19 28.04l-.81-1.83zm-1.55.9-1.15-1.63-.84.6v1.02zm0 4.3h-2v1.31l1.21.52zm4.48-.27 1.44 1.4v-.02zm.15-4.35 1.57-1.23v-.01zm-2.26 7.8v-2q-1.05 0-1.96-.35l-.72 1.86-.73 1.86q1.64.64 3.41.63zm-2.68-.5-1.42-1.4a.8.8 0 0 1 .51-.22v4c.88 0 1.7-.33 2.32-.96zm-.91.38v-2q.07 0 .22.05t.2.12l-1.36 1.47-1.35 1.47c.63.59 1.43.9 2.29.9zm-.94-.36 1.38-1.45a.8.8 0 0 1 .24.54h-4c0 .9.34 1.73 1 2.36zm-.38-.9h2l.02-.62-2-.13-1.99-.12-.03.86zm.03-.75 2 .12.03-.86h-4q0 .15-.03.62zm.03-.74h2V22.1h-4v11.44zm0-11.44h2q.02-.24.06-.3l-1.74-.99-1.73-.99c-.41.71-.6 1.5-.6 2.28zm.32-1.29 1.74.98s-.04.1-.2.18a1 1 0 0 1-.39.13v-4c-1.3 0-2.31.7-2.9 1.73zm1.15-.71v2h-.05l-.16-.05q-.22-.07-.45-.3c-.29-.32-.26-.6-.26-.48h4c0-.66-.15-1.53-.8-2.24a3 3 0 0 0-2.28-.93zm1.08 1.17h-2v-.04.02q0 .05-.02.17l1.98.27 1.98.27c.03-.2.06-.46.06-.7zm-.04.42-1.99-.21q-.04.31-.04.62h4v-.02l.02-.18zm-.03.41h-2v3.87h4V22.1zm0 3.87.97 1.75q.6-.32 1.03-.45l-.57-1.92-.56-1.91q-.93.28-1.84.78zm1.43-.62.6 1.91q.43-.12.73-.12v-4q-.98 0-1.92.3zm1.33-.2v2a2.8 2.8 0 0 1 2.3 1.01l1.53-1.3 1.53-1.29a6.8 6.8 0 0 0-5.36-2.43zm3.83 1.72-1.53 1.29c.58.68.9 1.52.9 2.62h4c0-1.96-.6-3.73-1.84-5.2zm1.36 3.91h-2c0 1.06-.33 1.88-1.01 2.57l1.43 1.4 1.43 1.4a7.5 7.5 0 0 0 2.15-5.37zm-1.58 3.97-1.44-1.4a3.4 3.4 0 0 1-2.56 1.06v4c2.11 0 3.97-.76 5.43-2.27zm-3.61-7.02v-2c-.72 0-1.41.2-2.02.47l.8 1.83.81 1.83q.22-.1.33-.12.1-.02.08-.01zm-1.21.3-.81-1.83q-.93.41-1.9 1.1l1.16 1.64 1.15 1.63q.75-.52 1.2-.71zm-1.55.9-2-.01v4.31h2l2-.01v-4.26zm0 4.3-.79 1.83c1.05.46 2.13.76 3.16.76v-4c-.28 0-.79-.1-1.58-.43zm2.37.59v2a4.8 4.8 0 0 0 3.55-1.47l-1.44-1.39-1.44-1.39c-.14.15-.31.25-.67.25zm2.11-.86 1.45 1.38a5 5 0 0 0 1.38-3.56h-4c0 .42-.11.63-.28.8zm.83-2.18h2c0-1.23-.32-2.41-1.1-3.4l-1.58 1.23-1.57 1.24c.12.15.25.41.25.93zm-.68-2.17 1.57-1.24a4.3 4.3 0 0 0-3.44-1.64v4q.18 0 .2.03 0-.01.1.1zm6.4-5.18-1.35 1.47zm0-2.12-1.35-1.48zm2.23 0-1.36 1.46.01.01zm0 2.12-1.35-1.48-.01.02zm-.22 9.67-2 .05v.01zm-.35 2.82 1.37 1.45h.01l.01-.02zm-2 0-1.4 1.43.01.01.01.01zm-.44-2.82-2 .05v.01zm.57-7.3 1.38 1.45v-.01l.01-.01zm2 0-1.4 1.43.01.01h.01zm-.67-1.94v-2q.02 0 .12.03.1.04.11.06l-1.35 1.48-1.35 1.47a3.6 3.6 0 0 0 2.47.96zm-1.12-.43 1.35-1.48q.05.03.12.18.07.16.06.24h-4c0 1 .4 1.88 1.12 2.53zm-.47-1.06h2a1 1 0 0 1-.06.24q-.07.14-.12.17l-1.35-1.47-1.35-1.48a3.4 3.4 0 0 0-1.12 2.54zm.47-1.06 1.35 1.47-.11.07-.12.02v-4a3.6 3.6 0 0 0-2.47.96zm1.12-.44v2q-.02 0-.13-.03l-.12-.07 1.36-1.46 1.37-1.46a3.6 3.6 0 0 0-2.48-.98zm1.11.44-1.35 1.47-.12-.17a1 1 0 0 1-.05-.24h4c0-1-.41-1.88-1.13-2.54zm.48 1.06h-2a1 1 0 0 1 .05-.24q.08-.15.12-.18l1.35 1.48 1.35 1.47a3.4 3.4 0 0 0 1.13-2.53zm-.48 1.06-1.36-1.46.12-.08.13-.03v4c.93 0 1.79-.33 2.48-.97zm-.25 7.83h-2q0 .6.03 1.9l2-.06 2-.04-.03-1.8zm.03 1.84-2 .07q.04 1.26.04 1.78h4l-.04-1.91zm.04 1.85h-2q-.01-.05.05-.22.07-.16.16-.24l1.4 1.43 1.4 1.43a3.3 3.3 0 0 0 .99-2.4zm-.4.97-1.37-1.45a1 1 0 0 1 .23-.14l.15-.04v4c.85 0 1.7-.28 2.37-.92zm-1 .37v-2q.02-.01.15.04a1 1 0 0 1 .23.14l-1.37 1.45-1.38 1.45c.68.64 1.53.92 2.38.92zm-1-.37 1.4-1.43a.7.7 0 0 1 .21.46h-4c0 .9.33 1.74 1 2.4zm-.39-.97h2q0-.63-.04-1.91l-2 .06-2 .07q.04 1.26.04 1.78zm-.04-1.85 2-.04-.03-1.8h-4l.03 1.9zm-.03-1.84h2q0-.8.1-2.1l-2-.15-1.99-.15q-.1 1.4-.1 2.4zm.1-2.25 2 .15q.1-1.4.1-2.4h-4q0 .79-.09 2.1zm.1-2.25h2q.01.05-.05.22a1 1 0 0 1-.17.27l-1.38-1.45-1.38-1.45a3.3 3.3 0 0 0-1.01 2.4zm.4-.96 1.4 1.43a1 1 0 0 1-.24.15l-.16.03v-4c-.87 0-1.72.3-2.4.96zm1-.39v2l-.17-.03a1 1 0 0 1-.23-.15l1.4-1.43 1.4-1.43a3.4 3.4 0 0 0-2.4-.96zm1 .39-1.38 1.45a.8.8 0 0 1-.23-.5h4c0-.88-.32-1.74-1.02-2.4zm.39.96h-2q0 .79-.1 2.1l2 .15 2 .15q.1-1.4.1-2.4zm-.1 2.25-2-.15q-.1 1.4-.1 2.4h4q0-.8.1-2.1zm3.45 6.35-1.29 1.54zm-.16-7.65 1.66 1.1zm6.2-1.88.76-1.85zm1.37 2.48L39.92 27V27zm-1.99-.05-1.23 1.57.01.02h.02zm-3.51 1.05L34.2 28.3zm-.1 4.2 1.24-1.56zm5.74-.05-1.43 1.4.01.01zm-1.32 2.47.82 1.82h.01zm-2.5.7v-2a3.6 3.6 0 0 1-2.44-.8L34 35.37l-1.28 1.54a7.6 7.6 0 0 0 5 1.73zM34 35.37l1.29-1.53a2.4 2.4 0 0 1-.87-1.98h-4c0 2.01.76 3.75 2.3 5.05zm-1.58-3.5h2c0-.86.3-1.86 1.08-3.05l-1.66-1.1-1.67-1.11a9.5 9.5 0 0 0-1.75 5.25zm1.42-4.15 1.67 1.1c.85-1.3 1.56-1.55 2.08-1.55v-4c-2.33 0-4.12 1.38-5.42 3.34zm3.75-2.45v2c.36 0 .91.1 1.7.42l.76-1.85.74-1.86a9 9 0 0 0-3.2-.7zm2.46.57-.76 1.85a4 4 0 0 1 .66.35q0 .02-.1-.15-.1-.18-.1-.45h4c0-1-.5-1.78-1.06-2.3a6 6 0 0 0-1.89-1.15zm1.7 1.6h-2a.7.7 0 0 1 .17-.45l1.49 1.33 1.49 1.33q.83-.92.85-2.2zm-.34.88L39.92 27a.8.8 0 0 1 .56-.27v4c.93 0 1.8-.36 2.44-1.09zm-.94.41v-2a1 1 0 0 1 .33.06l-.04-.02-.14-.1-1.2 1.6-1.2 1.6c.51.39 1.3.86 2.25.86zm-1.05-.46 1.23-1.57c-.9-.72-2.04-.9-3.06-.9v4q.43 0 .57.05c.1.03.08.04.03 0zm-1.83-.47v-2c-.94 0-1.67.46-2.15.9-.49.43-.9 1-1.25 1.6l1.72 1.02 1.72 1.02a5 5 0 0 1 .5-.68c.08-.07-.11.14-.54.14zm-1.68 1.52-1.73-1.02a7 7 0 0 0-1.14 3.56h4c0-.2.1-.68.6-1.53zm-.87 2.54h-2a4 4 0 0 0 1.53 3.24l1.24-1.57 1.24-1.57-.02-.01.02.02q0 .02 0 0l-.01-.1zm.77 1.67-1.24 1.57c.92.73 2.04 1 3.15 1v-4c-.47 0-.63-.1-.67-.14zm1.91.57v2c.92 0 1.81-.33 2.59-.74l-.93-1.77-.93-1.77q-.37.19-.57.24-.2.06-.16.04zm1.66-.51.93 1.77q.44-.24.64-.31l.05-.02-.1.02-.28.02v-4c-.53 0-1.02.2-1.2.28q-.45.18-.97.47zm1.24-.52v2a1 1 0 0 1-.28-.06 1 1 0 0 1-.22-.15l1.43-1.4 1.43-1.39c-.63-.64-1.45-1-2.36-1zm.93.4-1.42 1.41a1 1 0 0 1-.12-.19 1 1 0 0 1-.07-.32h4c0-.93-.38-1.72-.98-2.32zm.4.9h-2q.01-.38.13-.57l.08-.12-.23.16q-.19.13-.54.28l.84 1.82.83 1.82c.66-.3 1.3-.67 1.8-1.13a3 3 0 0 0 1.08-2.26zm-1.72 1.57-.83-1.82a5 5 0 0 1-1.68.52v4c1.07 0 2.22-.37 3.33-.88zm4.26-8.53-1.6-1.21zm6.94-1.39.88-1.8zm.28 4.29-1.14-1.65zm-2.27 1.15.8 1.83h.01zm-3.4 1.5-.8-1.83-2.57 1.13 1.9 2.06zm5.04.5-1.02-1.73zm.7 2.4.79 1.84zm-5.94-5.46-1.9-.61-1.36 4.2 4.05-1.76zm2.27-.98.79 1.84h.01l.02-.02zm2.17-1.14 1.09 1.68 2.76-1.8-2.87-1.62zm-1.5 8.18v-2c-1.28 0-2.15-.3-2.74-.75l-1.2 1.6-1.2 1.6a8.4 8.4 0 0 0 5.14 1.55zm-3.94-1.15 1.2-1.6c-.58-.43-.9-1-.9-1.98h-4c0 2.1.81 3.92 2.5 5.18zm-1.7-3.58h2c0-1.33.35-2.33.94-3.1l-1.6-1.22-1.59-1.2a9 9 0 0 0-1.75 5.52zm1.35-4.32 1.59 1.22c.6-.8 1.35-1.18 2.43-1.18v-4a6.8 6.8 0 0 0-5.61 2.75zm4.02-1.96v2c.97 0 1.62.16 2.04.37l.88-1.8.87-1.8a9 9 0 0 0-3.79-.77zm2.92.57-.88 1.8c.26.12.33.22.35.25s.05.08.05.27h4a4.4 4.4 0 0 0-2.64-4.12zm1.52 2.32h-2v-.03.01c-.03.04-.12.17-.38.34l1.14 1.65 1.14 1.64c1.15-.8 2.1-2 2.1-3.6zm-1.24 1.97-1.14-1.64c-.2.14-.79.45-1.94.96l.81 1.83.81 1.83a18 18 0 0 0 2.6-1.34zm-2.27 1.15-.8-1.83-3.4 1.5.8 1.83.8 1.83 3.4-1.5zm-3.4 1.5-1.47 1.36a5 5 0 0 0 1.93 1.3l.71-1.87.71-1.87q-.25-.1-.41-.27zm1.17.79-.71 1.87q1.1.41 2.28.4v-4q-.59-.02-.86-.14zm1.57.26v2c1.18 0 2.31-.24 3.31-.83l-1.02-1.72-1.01-1.72c-.25.14-.65.27-1.28.27zm2.3-.55 1.01 1.72q.31-.18.43-.22h.04-.14v-4c-.9 0-1.73.4-2.36.77zm1.34-.5v2c.05 0-.27.02-.6-.3a1.2 1.2 0 0 1-.35-.63v-.05h4a3 3 0 0 0-.87-2.2 3 3 0 0 0-2.18-.82zm1.05 1.02h-2q-.01-.1.04-.2.04-.1.05-.09 0 .01-.14.1t-.43.23l.8 1.84.78 1.84c1.37-.6 2.9-1.73 2.9-3.72zm-1.69 1.88L51 34.02q-1.02.45-2.2.44v4q1.97 0 3.78-.76zm-3.27-7.96v-2c-1.12 0-2.15.39-2.97 1.16l1.37 1.46 1.37 1.46c.06-.06.1-.08.23-.08zm-1.6.62-1.37-1.46a6.3 6.3 0 0 0-1.6 2.73l1.9.6 1.9.62c.2-.64.42-.92.54-1.03zm-1.07 1.88.8 1.83 2.26-.97-.8-1.84-.78-1.84-2.28.98zm2.27-.98.82 1.82q1.45-.65 2.44-1.28l-1.1-1.68-1.08-1.68q-.63.41-1.9 1zm2.17-1.14.98-1.74a5.5 5.5 0 0 0-2.75-.64v4c.51 0 .73.09.78.12zm7.82 8.11.41-1.95-2.4-.51-.01 2.46zm-.01 4.12h-2zm-2.77-3.76-2-.02zm0-3.99 2-.03zm-.14-3.75-2 .14zm.22-3.42-1.68-1.08-.01.01zm2.5.62 2 .2v-.2zm0 .1-2-.2-.38 3.85 3.36-1.9zm1.35-.56.52 1.93h.02zm4.76 1.77 1.76-.94v-.01zm-.46 7.51-1.51-1.31zm-4.22-6.48.81 1.83h.02v-.01zm-1.32.9-1.34-1.5-.72.64.06.97zm.12 4.16h-2v1.45l1.38.45zm3.39-.45-1.6-1.2zm.38-3.68 1.95-.45v-.01zm-1.98 7.12v-2q-.63 0-1.41-.16l-.41 1.95-.41 1.96q1.13.24 2.23.25zm-1.82-.2-2-.01-.01 4.12h4V36.4zm-.01 4.11h-2q-.01-.05.05-.22t.16-.24l1.4 1.43 1.39 1.43a3.3 3.3 0 0 0 1-2.4zm-.4.97-1.4-1.43a1 1 0 0 1 .24-.15l.17-.04v4c.86 0 1.71-.29 2.39-.95zm-1 .38v-2l.17.04q.15.07.23.15l-1.4 1.43-1.39 1.43c.68.66 1.53.95 2.4.95zm-1-.38 1.4-1.43a.7.7 0 0 1 .21.46h-4c0 .9.33 1.74 1 2.4zm-.39-.97h2l.02-3.75-2-.01-2-.02-.02 3.78zm.02-3.76 2 .01q.03-2.45 0-4.03l-2 .03-2 .03q.03 1.5 0 3.94zm0-3.99 2-.03a70 70 0 0 0-.14-3.86l-2 .14-2 .14q.11 1.5.14 3.64zm-.14-3.75 2-.14-.15-1.98c0-.01 0-.11-.02-.21l-.02-.1-.08-.26a2 2 0 0 0-.2-.39 2 2 0 0 0-3.36-.02c-.17.27-.23.5-.25.57l-.06.33v.2h4l-.01.09v.1q0 .06-.07.33c-.02.06-.08.3-.25.57a2 2 0 0 1-2.02.88c-.9-.16-1.31-.85-1.35-.9a2 2 0 0 1-.19-.39l-.07-.25-.02-.1-.01-.08.02.32.12 1.57zm-.15-2h2c0-.25.05-.34.07-.36l-1.7-1.06-1.69-1.07a4.6 4.6 0 0 0-.68 2.5zm.37-1.42 1.69 1.08c0-.01-.05.07-.18.14a1 1 0 0 1-.34.1v-4c-1.24 0-2.23.63-2.85 1.6zm1.17-.68v2q-.06.01-.23-.05a1 1 0 0 1-.23-.15l1.41-1.42 1.42-1.41a3.3 3.3 0 0 0-2.37-.97zm.95.38-1.41 1.42a.73.73 0 0 1-.2-.5h4c0-.9-.35-1.7-.97-2.33zm.39.92-2-.2v.1l1.99.2 1.99.2v-.1zm-.01.1.98 1.74q.48-.27.89-.37l-.52-1.93-.52-1.93q-.95.26-1.82.75zm1.35-.56.54 1.92q.43-.12.83-.11v-4q-.97 0-1.9.26zm1.37-.2v2q.72.02 1 .23c.21.12.43.32.63.7l1.76-.96 1.76-.95a5.7 5.7 0 0 0-2.14-2.25 6 6 0 0 0-3-.76zm3.4 1.97-1.77.95c.32.6.56 1.53.56 2.9h4c0-1.78-.3-3.42-1.04-4.8zm.79 3.85h-2c0 1.07-.3 1.8-.77 2.35l1.5 1.31 1.52 1.31a7.4 7.4 0 0 0 1.75-4.97zm-1.26 3.66-1.52-1.3c-.48.55-1.1.87-2.1.87v4c2.03 0 3.8-.73 5.13-2.26zm-2.93-6.78v-2q-1.13.01-2.13.49l.84 1.81.84 1.82q.3-.14.45-.12zm-1.3.3-.8-1.82q-1 .46-1.85 1.22l1.34 1.5 1.33 1.48q.5-.43.8-.55zm-1.31.9-2 .1q.12 2.02.12 4.06h4q0-2.15-.13-4.29zm.12 4.16-.62 1.9q1.19.4 2.41.4v-4q-.55 0-1.17-.2zm1.8.3v2c1.22 0 2.39-.48 3.19-1.54l-1.6-1.2-1.6-1.2q0 0 .03-.03l.05-.04h.02-.1zm1.59-.75 1.6 1.21c.67-.9.9-1.96.9-3h-4q0 .34-.05.47l-.04.12zm.5-1.8h2c0-.89-.03-1.73-.17-2.33l-1.95.45-1.95.45v.03l.02.08.03.3.02 1.03zm-.12-1.88 1.95-.46a4 4 0 0 0-1.03-1.9 3.1 3.1 0 0 0-2.2-.87v4q-.07.01-.25-.05a1 1 0 0 1-.32-.2c-.16-.15-.14-.24-.1-.06zm10.33-1.7 1.94-.47-.3-1.28-1.3-.22zm-1.8 1.65.84-1.82h-.01zm2.7 1.43-1.17 1.62zM73 35.9l.97 1.75zm-5.65.3-.7 1.88zm1.03-2.38-.63 1.9zm3.41-.53 2 .02v-.02zm-1.42-1.14-.8 1.82zm-2.67-1.33-1.14 1.64.01.01zm.73-5.16-.62-1.9zm5.33-.15-.95 1.75.01.01zm-.31 3.11v-2c-.07 0 .1-.01.34.15a1 1 0 0 1 .4.55l-1.94.47-1.95.46c.16.67.53 1.34 1.2 1.8.64.45 1.35.57 1.95.57zm-1.2-.83.34-1.97a7 7 0 0 0-1.17-.1v4q.25-.01.48.04zm-.83-.07v-2c-.86 0-1.68.05-2.35.23a3 3 0 0 0-1.2.6 2.4 2.4 0 0 0-.88 1.83h4a1.7 1.7 0 0 1-.58 1.26c-.21.17-.36.2-.29.17.14-.04.53-.1 1.3-.1zm-2.43.66h-2c0 .7.31 1.2.52 1.46.22.27.47.48.67.62.4.3.91.56 1.44.8l.83-1.82.83-1.82c-.45-.2-.67-.34-.75-.4-.05-.03.02.01.12.13.08.11.34.47.34 1.03zm1.46 1.06-.84 1.82c1.34.61 2.08 1.02 2.37 1.23l1.17-1.62 1.18-1.61a20 20 0 0 0-3.04-1.64zm2.7 1.43-1.17 1.62c.66.48.64.74.64.78h4c0-1.75-1-3.08-2.3-4.02zm1.47 2.4h-2q-.02.36-.11.48c-.06.09-.18.24-.48.4L73 35.9l.98 1.75a4.86 4.86 0 0 0 2.64-4.38zm-1.62 2.63-.96-1.75c-.5.27-1.22.47-2.24.47v4c1.51 0 2.93-.29 4.17-.97zm-3.2.72v-2q-1.02 0-1.75-.3l-.7 1.88-.7 1.88q1.5.55 3.15.54zm-2.45-.42.7-1.87q-.22-.09-.31-.15t-.04-.02l.1.16a1 1 0 0 1 .04.22h-4c0 1.95 1.46 3.03 2.81 3.54zm-1.51-1.66h2q.02.05-.07.3t-.34.47c-.31.26-.56.22-.4.22v-4c-.62 0-1.47.12-2.18.72a3 3 0 0 0-1.01 2.29zm1.2-1.01v2l.14.02q.2.05.57.17l.63-1.9.63-1.9a7 7 0 0 0-1.97-.4zm1.34.29-.63 1.9c.63.2 1.33.4 1.98.4v-4l-.15-.03-.57-.17zm1.35.3v2c.76 0 1.58-.08 2.29-.36.37-.15.81-.4 1.17-.83.4-.46.6-1.03.6-1.62l-2-.02-2-.03c0-.31.12-.64.34-.9.18-.22.37-.3.4-.31l-.17.03q-.21.03-.63.03zm2.06-.83h2c0-1.12-.74-1.82-1.1-2.1a7 7 0 0 0-1.52-.88l-.8 1.84-.8 1.83a5 5 0 0 1 .62.32q0 .03-.16-.18c-.1-.15-.24-.44-.24-.83zm-1.42-1.14.8-1.83c-1.42-.63-2.12-1-2.33-1.14l-1.14 1.64-1.13 1.65c.57.4 1.64.9 3 1.5zm-2.67-1.33 1.15-1.63c-.54-.39-.57-.64-.57-.8h-4a4.9 4.9 0 0 0 2.28 4.07zm-1.42-2.43h2c0-.3.08-.41.11-.46.05-.07.21-.22.67-.37l-.63-1.9-.62-1.9a4.66 4.66 0 0 0-3.53 4.63zm2.15-2.73.62 1.9a12 12 0 0 1 3.22-.32v-4a15 15 0 0 0-4.46.52zm3.84-.42v2q.37 0 .53.04.15.04 0-.02l.96-1.75.95-1.76a5 5 0 0 0-2.44-.5zm1.49.27-.94 1.76-.19-.14-.15-.21c-.07-.14-.05-.2-.05-.11h4c0-1.15-.46-2.4-1.73-3.07zm.67 1.3h-2q0 .32-.03.44-.04.11.02-.03c.05-.1.17-.27.4-.41q.38-.2.63-.19v4a2.8 2.8 0 0 0 2.5-1.5c.39-.74.48-1.6.48-2.31z" mask="url(#b)"/><path fill="#ccc" d="m135.95 85.97-.17-.12a2 2 0 0 1-.33-.27l-.25-.26-.44-.24-.23-.11-.26-.03a1 1 0 0 1-.38-.1l.03.21q.01 0 .02.03.07.07.1.17v.16q.18.38.57.72l1.43 1.3q.2.18.3.44l.02.13a1 1 0 0 1-.07.24l-.03.06-.1.1-.23.1h-.14l-.06-.02-.06-.02-.06-.02-1.5-1.39.04.07q.3.44.7.8.34.28.51.7a1 1 0 0 1-.06.3l-.08.13-.14.09-.16.04-.15.02-.08-.03-.06-.02-.13-.1q-.52-.57-1-1.18-.48-.6-.9-1.27-.15-.24-.25-.51l-.08-.21-.05-.17-.07.02-.02.02q0 .19.03.38.19.27.35.58.14.27.15.59a1 1 0 0 1-.09.22l.2.35q.3.51.67.99.5.65.73 1.4l-.02.13-.05.12-.11.15-.12.06a1 1 0 0 1-.26.03h-.06l-.12-.06-.1-.08-.09-.1-.06-.11a14 14 0 0 0-1.33-2.1q.18.7.29 1.4.14.87-.45 1.51-.28.3-.63.53a3 3 0 0 1-.69.27l.02.02.04.05.03.06.02.06.01.07v.12l.13.13.13.15.05.06.01.01.04.04.05.04.05.04.06.03.3.07h.07q.13-.07.23-.18l.17-.17q.07-.08.17-.11l.06-.03h.14l.13.01.12.05.06.04q.04.03.07.09.05.05.08.12l.03.11.01.08q-.02.13.1.14.15 0 .28.05l.25.05.08-.03.06-.02.07-.04.06-.03.05-.07.04-.13.02-.13.04-.13.07-.12.12-.1.14-.07h.17q.08 0 .15.02l.14.08.06.05.05.06.04.07.05.05.14-.03.22-.08.13-.06.06-.04.17-.16.12-.12.11-.12.05-.06.05-.08.07-.1.04-.07.07-.11a2 2 0 0 0 .34-.43q.12-.3.26-.58t.26-.58l.22-.47V87.1l-.18-.2-.48-.5-.16-.22-.1-.06zm-27.32 7.53.05-.07q0 .04.2-.3.13-.19.22-.4l-.04-.04-.07-.17q-.54.48-1.17.85-.14.08-.28.12l-.51.32q-1 .63-2 1.23l.09.03q.04 0 .08.03l.09.02.09.05a5 5 0 0 0 1.5-.52 23 23 0 0 0 1.64-1.02l.06-.07zm-.22-5.11-.06-.09-.13.1a5 5 0 0 1-.09.78l.1.04.1.08.09.1.04.12.02.08v.08a4.6 4.6 0 0 1-2.61 3.1q-.97.45-1.9 1-.45.27-.91.44l.04.02.3.12q.17.1.35.1.77-.25 1.47-.7a41 41 0 0 1 2-1.22l1.23-.8q.1-.1.11-.23.04-.18.04-.37a1 1 0 0 1 .06-.25l.09-.1.13-.1q.08-.52-.06-1.03-.14-.65-.41-1.27m-1.78.5-.03.15q-.4.67-1.16.9-.61.17-1.17.5a.4.4 0 0 1-.2.07h-.14l-.24-.01a3 3 0 0 1-.56-.14h-.4l-.53.03a2 2 0 0 1-.54.14q-.3.13-.57.28 0 .6.08 1.18.08.45.08.91.03.14.1.27.05.15.16.26l.04.04.09.05h.07l.13.02q1.31-.39 2.47-1.12a36 36 0 0 1 2.3-1.34q.38-.42.6-.93l.13-.3-.1-.05a.48.48 0 0 1-.19-.33q.07-.33.1-.65a2 2 0 0 1-.5-.02z"/><path fill="#fff" d="M100.99 11.18q-1.08-.21-2.22-.36-1.9.41-3.68 1.2a9 9 0 0 0-3.32 2.41q-.34.39-.6.84a7.5 7.5 0 0 0-.96 3.7l.02.04q0 .03.03.04-.22 2.05.23 4.09.21 1 .63 1.95.1.1.18.23.05.07.08.17l.07.17-.01-.01v.01l.02.01v.01l.01.04.01.02.01.02v.02l.06.11v.01l.02.04.07.14.15.24.03.05q.06.12.14.37l.19.36.03.13.02.07.06.12q.4.98.62 2.02.11.46.07.95a16 16 0 0 1-.28 1.96l-.02.04-.04.05-.11.09-.05.02-.03.01-.03.04-.27.16q.13.1.16.35.05.29.05.58 0 .79.19 1.56a13 13 0 0 0 .57 1.78l.72 1.77q.36.88 1.04 1.54a.8.8 0 0 1 .26.53.4.4 0 0 1-.15.29.5.5 0 0 1-.31.1q-.13 0-.26-.02l-.32-.08-.33-.13-.25-.13q-1.2-.6-2.35-1.33a8 8 0 0 0-2.44-1q-1.08-.27-2.12-.61l-.05.02-.1.07-.06.03-.13.01-.14-.01-.12-.05-.05-.04a1 1 0 0 0-.54 0 6 6 0 0 1-.85.17 5 5 0 0 1-.66.28q.15.06.23.28.07.18-.04.34l-1.06.89q-.48.4-.82.95a10.4 10.4 0 0 0-1.58 4.88q-.09 1.35.13 2.66.23 1.33.65 2.6.45 1.31 1.18 2.5l.9 1.44q.06.08.02.15v.02q.48.35.98.7.55.38.94.91a6 6 0 0 1 .4.57q.52-.64 1.18-1.12a1 1 0 0 1-.15-.16 8 8 0 0 1-.5-2.6l-.04-1.32a53 53 0 0 1 .02-3.98q.06-1.32.37-2.61.33-1.28.76-2.52.44-1.26 1.25-2.32.65-.83 1.6-1.13.45-.14.78.13.15.14.1.33a.4.4 0 0 1-.21.3q-1.17.14-1.82 1.17-.33.5-.59 1.06-.5 1.1-.8 2.25-.33 1.26-.5 2.53-.09.66-.1 1.34-.03 1.35-.03 2.72t.1 2.75a6 6 0 0 0 .37 1.63l.08-.07 2.05-1.67q.14-.33.42-.4l-.37-.85a5 5 0 0 1-.36-1l.07-.2a1 1 0 0 1 .19-.2l.1-.03.12-.02h.1q.11-.54.3-1.09.25-.68.35-1.4a1 1 0 0 1 .08-.23q.07-.1.18-.16a1 1 0 0 1 .23-.07l.16.03a1 1 0 0 1 .22.13l.04.04.04.06.06.15a6 6 0 0 1-.32 1.6l-.46 1.39a.4.4 0 0 1-.09.16l-.19.12a15 15 0 0 1 1.65 7.7l-.06.98q2.97-.8 6.07-.79 1.45 0 1.9 1.41.38 1.2-.58 2.08-.52.48-1.12.7.86.83.98 2.36.07.77-.27 1.46a1 1 0 0 1-.22.19l-.12.08-.07.02q-.27.05-.55.03l-.76-.02-.84-.16a4.5 4.5 0 0 1 1.47 2q.45 1.2-.17 2.28-.65 1.13-2 .8l-.07-.02-.23-.06-2.28-1.76a76 76 0 0 1-2.2-1.77q-.36-.3-.6-.7l-.01-.07v-.07l-.36.94-.08.43-.04.08a19 19 0 0 1 5.06 4.14 30 30 0 0 1 4.5 6.87h.13l.2.06.1.07.02.03q-.04-.52-.15-1-.15-.75-.14-1.51 0-.18.09-.35.05-.08.13-.14a1 1 0 0 1 .17-.1h.27a1 1 0 0 1 .27.2l.03.04.03.06.03.06q0 .83.13 1.62.12.62.17 1.24.18-.06.38-.09.51-.08.98-.3l.14-.05q.3.02.6-.06l.5-.1q.16 0 .33.07l.25.09q.23-.01.44.02l.6.13h.21a6 6 0 0 0-.15-1.67 5 5 0 0 0-.43-1.16.4.4 0 0 1-.04-.22q0-.1.04-.2l.04-.08q-.44.08-.92.14a9 9 0 0 1-2.5-.09 4 4 0 0 1-.93.24q-.25.05-.5 0l-.03.03-.05.06-.05.04-.05.05-.07.03-.05.02-.07.02h-.15l-.12-.04-.11-.06-.05-.04-.04-.05-.04-.05-.03-.06-.04-.13v-.07l.01-1.46q.02-.72-.07-1.44-.04-.27.06-.5 0-.34-.02-.67l-.05-.69a1 1 0 0 1 .07-.43v-.13l.01-.07.04-.14.02-.06q.2-.18.44-.33a.6.6 0 0 1-.32-.3l-.04-.2a2 2 0 0 1 .12-.54l.08-.82q.03-.32.1-.62l.02-.23-.04-.13-.05-.14-.01-.07.01-.14.02-.07.03-.06.13-.17.14-.36.07-.1q.07-.07.16-.1l.12-.04h.07q.07 0 .13.02l.07.01.06.02q.02 0 .03-.02.51-.59 1.2-.94a9 9 0 0 1 1.9-.7q.66-.3 1.23-.7.3-.2.64-.4a31 31 0 0 0-4.1 1.18q-.47.18-.98.2l-.17-.09-.13-.15a1 1 0 0 1-.08-.25q-.03-1.34.1-2.66.16-1.32.27-2.66.03-.4.23-.75l.05-.04.05-.03.04-.02a13 13 0 0 1-1.45-.35l-1.47-.5-.27-.09a8 8 0 0 1-4.23-3.54 11 11 0 0 1-1.53-5.25q-.03-.73.33-1.34l.18-.1-.03-.15q0-.1.04-.2a30 30 0 0 0 2.29-3.12q.97-1.51 1.37-3.25a2 2 0 0 1 .38-.8 6 6 0 0 1 3.37-.44l3.19.41q.37.06.72.15l.1.09q.09.08.12.2.02.03.03.07v.2a.4.4 0 0 1-.1.19l-.04.05-.11.07-.18.08-.47-.05.02.02q.02 0 .05.03l.05.03a5 5 0 0 1 .6 1.3q1.28 2.47 2.24 5.07.69 1.88.82 3.86.1 1.52-.2 2.96-.03.26-.16.47a6 6 0 0 1-.55.87l-.33.49-.3.43q.06-.05-.3.4-.45.55-1.03.94.32-.17.61-.38a5 5 0 0 1 .75-.42l.06-.01h.08l.08.02.07.04q.07.04.13.09l.12.13.14.2q.41 1.16.68 2.36l.52 2.4a10 10 0 0 0-.25-1.96q-.3-1.23-.62-2.45a1.4 1.4 0 0 1-.03-.66l.03-.08.04-.06.05-.04.05-.04.05-.05.36-.12q.23-.07.45-.09l.3-.02q.42-.16.85-.15h1l.45.06q.16.09.28.22l.3.32q.08.1.14.24l.02.08v.16l.02.08v.04l.04.05.03.06.04.06.04.06.03.05.05.05q.43 1.2.37 2.49-.06 1.35-.24 2.7a1 1 0 0 1-.27.55q-.02 0-.05.03l-.07.03-.06.02h-.06l-.06.02.03-.01h-.19a4 4 0 0 1-.92-.15h-.68l-.52-.01a2 2 0 0 1-.5-.11 1 1 0 0 1-.39-.5l-.06-.13q-.07.38-.4.68l-.12.04-.02.01.03.04.04.06.02.06.04.06.34.24.05-.02.13-.03.16-.01h.26l.18-.05.27-.06q.14-.04.27-.04l.15.04.08.03.07.03.06.02 1 .11q.45.05.91.24a.7.7 0 0 1 .3.24l.03.06.03.06q.03.22 0 .47a7 7 0 0 1-.15.8q-.12.9-.1 1.77.01.38-.04.74l.1.01q.22-.12.43.06l.13-.04h.13l.13.04.16.1.04.05.04.05.03.06.03.06a61 61 0 0 0 .55 3.22l.09-.15q.05-.87.44-1.62.13-.26.34-.46a1.6 1.6 0 0 1 1.17-.46q.64 0 1.11.45a61 61 0 0 1 1.83 1.77q.9.91 1.84 1.67a10 10 0 0 1 1.8 1.83l.11.14q.56.72 1.29 1.41.74.73 1.58 1.35l1.29 1q.72.58 1.16 1.36.18.3-.06.56a.8.8 0 0 1-.56.27 5 5 0 0 1-1.83-.77l-4.45-2.9q-.7-.44-1.38-.95a11 11 0 0 0-2.3-1.33 12 12 0 0 1-2.33-1.28q-.2-.14-.37-.33 1.43 2.1 3.6 3.57 2.72 1.86 5.33 3.86.84.64 1.62 1.34l.03.19v.07l-.02.06-.02.06-.07.11-.08.09q.87.28 1.71.72.86.44 1.77.69a8 8 0 0 0 .84.02h.18a5 5 0 0 1 .96-.17q.39-.23.78-.43.27-.16.57-.28a4 4 0 0 1-.13-.7q-.06-.81.57-1.31l.08-.03.01-.39a1 1 0 0 1 .42-.5 3 3 0 0 1 .92-.36l.2.05.13-.1.07-.2.14-.14.23-.14.31-.15q.15-.07.3-.1.15.02.32.08.17.07.36.1l.27.03a8 8 0 0 1 .95.49q.04 0 .08.03l.45.32a1.3 1.3 0 0 1 .42.45h.02l.13.12.1.07q.02 0 .05.03v-.93l-.02-.03a1 1 0 0 0-.3-.22l-.57-.26-.41-.06a2 2 0 0 1-.55-.13H135l-.08-.02-.11-.01-.4-.16a4 4 0 0 0-.79-.24l-1.74.93q-.9.46-1.92.39l-.06-.03-.05-.04-.1-.1-.04-.08-.14-.08a17 17 0 0 1-2.38-3.34l-.12-.04-.2-.08h-.02a8 8 0 0 1-2.68-1.77q-.56-.44-1.2-.78-.16-.09-.28-.22-.78-.74-1.61-1.4a2 2 0 0 1-.33-.38l-.39-.59q-.43-.67-.82-1.37a11 11 0 0 0-1.22-1.74.4.4 0 0 1-.08-.17q-.27.06-.56.06h-.98a4 4 0 0 1-2-.57q-.6-.36-1.07-.86l-.02-.02a2 2 0 0 1-.82-.77l-.15-.15a2.5 2.5 0 0 1-.72-.84l-.08-.01-.05-.02-.05-.02-.04-.04-.08-.07-.06-.1-.02-.05v-.05l-.01-.06v-.06l.02-.06.02-.06.03-.05q.33-1.86.37-3.73.05-1.83.12-3.65l.01-.31q-.25.06-.52.07a4.8 4.8 0 0 1-4.26-3.63 10 10 0 0 1-.44-3.38q.11-2.34.55-4.6l-.09-.06-.13-.15-.06-.18q.44-1.4.47-2.88.02-1.3.88-2.2.25-.26.61-.33.57.26 1.18.38.55.13 1.01.47.15.13.26.28l.05.15.04.16q.55.96 1.24 1.85.59.75 1.09 1.58.13.24.13.48l-.07.2a.5.5 0 0 1-.3.24l-.11.01h-.02a26 26 0 0 1 1.25 6.37.2.2 0 0 1 .2.02q.33.2.5.55.36.78.89 1.45.38-1.68.6-3.37.27-1.86.05-3.7l-.1-1.01q-.37-.9-.58-1.87a5 5 0 0 0-.74-1.65q-.16-.22-.24-.5a27 27 0 0 0-1.36-1.6q-.7-.77-1.6-1.25l-.78-.38-.2-.1-.43-.19-1.27-.24-1.08-.23a2 2 0 0 1-.43-.14l-.4-.06a2 2 0 0 1-.38-.11 8 8 0 0 0-1.08-.02q-.07 0-.15-.02a1 1 0 0 1-.2-.16l-.08-.12-.04-.18a8 8 0 0 1-2.55-3.2.5.5 0 0 1-.19-.24l-.02-.05v-.15l.01-.05.02-.05q-.02-.15-.02-.29-.12-.9.27-1.72.23-.48.63-.78a36 36 0 0 1-2.2-.47 19 19 0 0 1-5.07-2.13q-.17-.1-.28-.26l-.03-.05-.03-.16v-.05l.02-.06.06-.14.05-.04.04-.05.04-.02.05-.03.05-.01.06-.01h.16l.05.02q.1.05.2.14a1 1 0 0 0 .27.2 29 29 0 0 0 3.92 1.72q.9.33 1.84.46l2.36.32.16-.03.2-.08.26-.07.21-.1.25-.13.1-.15.19-.22.05-.05a3 3 0 0 0 0-1.43l-.02-.14q.61-2.14.57-4.33 0-.65-.22-1.27l-.38-1.06a2.3 2.3 0 0 1 .11-2.02q.14-.27.17-.57.06-.45.08-.89l-.07-.02-.12-.05-.07-.01q-.27.15-.5.35-.19.2-.31.42l-.06.1-.05.03-.04.03-.05.02-.16.03h-.06l-.05-.01-.05-.02-.05-.02-.04-.04-.04-.03-.05-.04-.02-.05-.03-.05-.01-.05-.02-.07v-.06l.02-.06.01-.07q.18-.37.5-.67.31-.3.71-.52l.19-.08q.15 0 .3.02a19 19 0 0 0-1.01-3.15l-.36-.56-.02-.02h.02a5.5 5.5 0 0 0-3.59-2.33zm-8.8 10.12a.7.7 0 0 0-.37.27q-.12.16-.23.34l-.1.17q-.25 1.05.35 1.97.59.9 1.69 1.17l.57.16.04-.01.06-.01q.03 0 .07-.03l.07-.01q.07-.07.03-.25a1 1 0 0 1 0-.24v-.05l.02-.04.03-.05.11-.1.04-.03.04-.02.16-.03h.05l.05.01.13.06.04.04q.03 0 .04.03l.03.04.03.05q.12.38.07.79-.07.45-.52.59-.3.1-.62.1-.77-.19-1.47-.53a.4.4 0 0 1-.27-.05q-.15-.05-.3-.14l-.13-.09-.35-.27a1 1 0 0 1-.25-.31q-.13-.15-.23-.3a3 3 0 0 1 0-3.34q.32-.5.87-.73.6-.04 1.07.32v-.02q.13.1.37.35.11.1.21.15h-.01l-.05.02q.27.34.5.7.1.2.15.42v.05l-.01.04-.01.05-.04.1-.04.04-.03.03-.08.06-.05.03-.04.01-.05.02h-.1l-.05-.01-.1-.03-.05-.02q-.28-.33-.5-.72-.22-.42-.61-.66zm13.4-1.55.45.54q.26-.66.73-.09.15.18-.01.35-.24.22-.43.17.39.6.67 1.22.08.21.14.44.19 1.23-1.03 1.43-.18.03-.36.02l-.36-.03-.34-.04h-.2l-.06.02-.06.02h-.05l-.05.02h-.06l-.04-.01-.05-.02-.06-.02-.04-.02-.03-.04-.04-.03-.04-.04-.02-.04-.03-.05-.01-.05-.01-.05-.01-.06v-.05l.02-.06.01-.05.03-.05.03-.04.04-.04.04-.04q.34-.2.72-.13.53.08 1.05.02.06 0 .11-.03l.05-.03.02-.02.02-.03a1 1 0 0 0 0-.27l-.07-.42-.47-.74q-.34-.54-.77-1.02l-.08-.15-.02-.05v-.06l-.01-.05v-.05l.01-.06.02-.05.03-.05.02-.04.04-.04.04-.04.04-.03q.02 0 .05-.03h.04l.05-.02h.21l.04.02.05.03zm-4.44-1.36-.05-.12v-.15q0-.08.04-.13l.05-.09q.6-.4 1.36-.3a5 5 0 0 1 1.93.77l.08.1q.03.08.04.14v.15l-.05.12q0 .03-.03.05l-.03.05-.05.03-.04.03-.05.02-.05.02-.05.02h-.11l-.06-.02-.05-.02-.05-.02-.99-.51a1.3 1.3 0 0 0-1.06-.05q-.2.08-.4.13l-.06-.01-.07-.01-.05-.02-.05-.02-.04-.04-.04-.03-.04-.04zm1.09 2.22-.03-.13a1 1 0 0 1 .12-.24l.03-.06-.04-.05-.03-.12q.27-.73.75-.13.15.17 0 .33.15.16 0 .34a.3.3 0 0 1-.1.15q-.42.41-.7-.1m1.74 5.98-.05-.02-.05-.04-.04-.03-.04-.04-.02-.04-.03-.06-.02-.05-.01-.06.01-.13.05-.13.02-.04.04-.04.05-.04.04-.04a6 6 0 0 1 1.58-.22q.72-.03 1.43.06.14.02.25.11l.06.09.05.08.01.05v.2l-.02.06-.02.04-.03.04-.04.04-.07.06-.09.04-.05.02h-.2l-.12-.03q-.7 0-1.42.02a9 9 0 0 0-1.17.14l-.05-.02zm20.46 52.94h.01m-9.05-4.13.34.15 1.58.77q.47.22.9.52l2.18 1.49q1.1.72 2.24 1.41a15 15 0 0 1 1.1.77l.07.04.16.1.6.35.84.47a33 33 0 0 0-2.7-2.2 11 11 0 0 1-1.9-1.98 10 10 0 0 0-1.8-1.87 25 25 0 0 1-1.93-1.76 39 39 0 0 0-1.91-1.8q-.19-.16-.4-.26-.56.06-.89.54-.24.37-.27.82v.88q.6 1.1 1.79 1.56M94.07 68a3 3 0 0 1-.83-.23l-.27-.1a1 1 0 0 0-.55.05 3 3 0 0 1-.8.1l-.05.02-.05.02-.07.04-.07.03-.08.04.03.04.03.06q0 .03.04.06 0 .04.03.07l.06.15v.16q.87.95 1.94 1.68t2.05 1.56l.55.43q.14.03.27.04h.46q.08-.02.15-.06l.14-.1.06-.08a2.5 2.5 0 0 0 .02-1.8q-.07-.18-.17-.34l-1.15-.94a5 5 0 0 0-1.22-.66zm-1.98-1.6a3 3 0 0 1-.73-.53l-.3 1.16a6 6 0 0 1 1.76-.29zm14.5 11.63-.07.02-.03.09-.04.1-.1.11-.13.09-.1.04h-.02q.24.6.33 1.25.1.73.1 1.47h.08l.07.02q.5.4 1.07.69.58.27 1.1.6.22.16.47.27 0-1.12-.12-2.28-.14-1.17-.27-2.36l-.07-.28q-.41.15-.86.25-.5.09-1-.02zm-3.6-5.67q-.57.1-1.17.1h-.77q-.08.02-.14.06l-.2.09-.53.29-.04.06q0 .04-.02.08l-.03.08.08.72a4 4 0 0 1-.08 1.12q.07.44.08.87v1.27l.1.02.08.01.08.03a8 8 0 0 0 .98-.27q.82.13 1.63.1.75-.03 1.49-.12l.45-.01.27-.09a1 1 0 0 1 .48-.07q.15-.3.19-.65.05-.44.08-.87 0-.18.05-.34-.04-.66-.22-1.3l-.32-1.08q-.1-.3-.26-.6-.2 0-.39.06a3 3 0 0 1-.7.07q-.46.23-1.16.37m-4.61-5.09a3.7 3.7 0 0 0-.63-2.49l-.05-.05-.06-.03-.06-.04-.06-.03q-.51-.17-1.01-.26h-.26l-.07-.01-.05-.02-.27-.06q-.37-.05-.75-.03-1.24.03-2.4.48-.51.2-1.07.29l-.1.05q0 .06-.02.13l.08-.05.06-.03h.27l.07.02q.69.6 1.57.83.71.2 1.37.56l.4.21q.7.14 1.38.34a5 5 0 0 0 1.66.2m9.16 4.4-.17.01q-.15.4-.1.98l.03.9v.16q.08.31.11.65.04.31.04.65v.18q.08.3.12.63.03.25.12.51.06.15.03.29l-.02.07-.03.07v.04q0 .03.05.04h.81l.02-.01.28-.22q.2-1 .2-2.1l.02-2.25.01-.68-.55.08a2 2 0 0 1-.37-.07l-.12-.04-.2.06a1 1 0 0 1-.28.05m-.46-1.9-.1.4-.01.51h.12l.16-.01h.01l-.02-.05a4 4 0 0 1-.16-.86m-.79 1.91.04.1.02-.1zm0-5.47v-.09l-.02-.04-.05-.03-1.63.78-3 1.49-.36.37a2 2 0 0 1-.3.24l-.26.15q-.02.34-.09.7a5 5 0 0 0-.1.99q.47-.14.96-.12l.95.02h.38q.61-.18 1.26-.16h1.43q.26 0 .51.04-.03-.55.07-1.09.08-.51.13-1.02.02-.24.1-.46.02-.27.01-.54 0-.23.09-.45a1 1 0 0 0 .06-.27l-.05-.2-.04-.06-.02-.06zm3.23.3a4 4 0 0 0-.71-.12 1 1 0 0 1-.37-.1l-.26.07-.27.06v.65l.07.31q.02.12.02.25l-.05.25a9 9 0 0 1 .11 1.46v.3q.36-.05.71.01.33.06.63.18l.1.04h.02l.07.01.06.01h.06q.23-.52.24-1.37 0-.72.12-1.44l.07-.5q-.32 0-.62-.08M81.59 40.3a6 6 0 0 1 1.74-1.71l-.1.03a9 9 0 0 0-3.64 4.01q-.62 1.35-.82 2.84-.35 2.64-.2 5.3l.07.14q.04.1.12.2l.07.19v.06l-.01.06q0 .04-.02.07l-.05.12-.03.06-.1.08-.13.08-.16.04h-.02q-.12 1.05-.4 2.08a9 9 0 0 0-.28 3.61l.52 2.03q.3 1.13.86 2.17.27.48.26 1.02l-.06.12-.07.1-.1.08-.05.04-.14.02h-.13l-.12-.02-.06-.03-.06-.03-.05-.04-.04-.05-.05-.06-.02-.05-.03-.07-.26-.58a22.6 22.6 0 0 0 2.66 11.15 8.4 8.4 0 0 0 4.13 3.85q.86.38 1.66.85h.12q.37-.17.78-.14.45.03.9-.07l.42-.08.16.04.16.04.17.04.07.03q1.65-.08 3.1.75a10 10 0 0 1 2.84 2.47q.29.38.41.83.77 1.68 1.17 3.45.77-.35 1.42-.9a4.5 4.5 0 0 1 1.93-.93q.78-.18 1.6-.24a7 7 0 0 1 1.97.13h-.09q.65.11 1.25.37a4 4 0 0 1 .95.56q.22 0 .41.07a2 2 0 0 1 .5.27l.05.13q.21.03.42.01l.05-.01v-.02q0-.07.03-.13l.09-.1a.4.4 0 0 1 .16-.1l.12-.04h.16l-.15-.27-.24-.34-.15-.22a7 7 0 0 1-.85-.65q-.25-.24-.1-.08a4 4 0 0 0-.81-.33 7 7 0 0 0-3.58-.08q-.6.31-1.23.41l-.11.02h-.23q-.3 0-.57-.1a1 1 0 0 1-.31-.2l-.06-.03-.11-.07-.1-.08-.04-.05a29 29 0 0 1-1.5-2.38q-.72-1.24-1.35-2.5-.21-.42-.48-.8l-.48-.55a44 44 0 0 0-1.47-1.6q.04.09.05.2.02.48-.46.45-.06 0-.12-.02.03.92.12 1.83a.7.7 0 0 1-.1.44q-.1.2-.26.22-.21.2-.47.03l-.13-.13a7 7 0 0 0-1.35-1.6q-.32-.3-.65-.56l-.16-.09q-.3-.36-.66-.68-.34-.33-.72-.63l-.18-.13v-.01l-.02-.01h-.02v-.02h-.01l-.02-.01q-.84-.61-1.77-1.09a18 18 0 0 1-2.97-1.9 38 38 0 0 1-1.54-1.33 3.8 3.8 0 0 1-1.16-2.28 13 13 0 0 1 .04-3.64v.01q.19-1.05.16-2.1a71 71 0 0 0-.06-2.59l-.06-2.1a6 6 0 0 0-.14-1.11q-.12-.54.07-1.02v-.07q.01-.28.28-.33.24-.05.48-.03-.39-.6-.72-1.3-.56-1.2-.96-2.48t-.53-2.6a14 14 0 0 1-.01-2.64 11 11 0 0 1 1.76-4.97m-2.9 27.35v.08-.08m30.26-8.82h-.66l-.38.1q-.17.05-.33.05h-.13q.14 1.02.45 2.15.3 1.14.3 2.3-.01.33.04.54.28.06.64.03.42-.02.83.06l.43.1q0-.96.12-1.9a5 5 0 0 0-.14-1.9q-.08-.28-.12-.59l-.1-.13a1 1 0 0 1-.15-.4.5.5 0 0 0-.15-.33l-.04-.04-.04-.03-.1-.01zm-6.87 2.24q-.3.18-.64.24-.06.86-.16 1.79a49 49 0 0 0-.17 2.29q.93-.4 1.91-.65.98-.27 1.95-.48a4 4 0 0 1 .78-.11l.07-.03.07-.03.06-.04h.07l.23-.04q-.22-.97-.47-1.94-.21-.9-.37-1.81-.07-.37-.18-.71-.77.6-1.73.87-.75.2-1.42.65m-.66-1.09.04.05.04.06.04.07.03.06h.04q.35-.26.74-.45a6 6 0 0 1-1.02.14l.04.03zm-8.98 2.9q-.25-.18-.43-.39l-.23 1.46h.04a8 8 0 0 1 1.47-.55 6 6 0 0 1-.85-.53m1.85-1.6-.28.03q-.33.1-.69.15a3 3 0 0 0-.82.24q.71.5 1.54.78a18 18 0 0 1 1.59.67 8 8 0 0 1 1.12.14q.22-.04.46 0l.24.06a3 3 0 0 0 1.27-.52l.07-.05.14-.19.24-.3q.1-.1.14-.23V62l.02-.07v-.08l-.02-.15-.07-.13-.02-.03.02.02-.1-.14-.2-.3v-.01l-.08-.04-.07-.05-.23-.12q-.3-.06-.6-.05h-.77q-.75.18-1.51.25-.7.06-1.39.19m-1.95-23.75q-.48-1.26-.77-2.58a4 4 0 0 1-.03-1.85q-1.12.69-2.16 1.5-1.16.91-2.13 2.28l-.26.32q.33.07.67.17.61.17 1.26.33 1.28.33 2.42 1A68 68 0 0 0 93.47 40q-.63-1.2-1.13-2.45m17.28 4.51q-.3-.1-.56-.13-.48 1-.46 2.18 0 .4-.05.76l.02.02.04.05.03.06.02.07.01.06.01.07a57 57 0 0 0-.84 5.92 7 7 0 0 0 .82 4.09q.63 1.19 1.83 1.81.38.15.78.19.42.04.81-.04l.09-.02.56-.6a3 3 0 0 0 .6-.78q.68-2.18.3-4.44a38 38 0 0 0-.94-4.18l-.21-.92.1-.23.09-.1.05-.05.11-.04a32 32 0 0 0-1.46-2.08 4 4 0 0 1-.72-1.29l-.24-.13-.24-.12zm-7.23.4.08-.12.04-.05.12-.06.06-.02-2.23-.25q-1.4-.16-2.83-.15a1 1 0 0 0-.44.1q-.39 1.53-1.08 2.94-.63 1.27-1.51 2.35a9 9 0 0 0-.9 1.23 3 3 0 0 1-.66.64v.02l.02.07v.05a8.2 8.2 0 0 0 3.92 8.36q.45.26.91.43.65.18 1.28.43.56.21 1.16.35l.33.11q.16.03.34.03h.57l1.6-.62a2.7 2.7 0 0 0 1.4-1.2q.11-.2.43-.66l.58-.87.04-.07.02-.07.01-.08.04-.16.04-.08.06-.17q.04-.63.04-1.27l-.01-1.26v-.16q-.16-2.45-1.23-4.65l-1.95-4.06a4 4 0 0 1-.32-.85l.03-.13z"/><path fill="#000" d="M124.44 79.52v.01h.01zm-20.51-52.95.05.02.05.02.05.02.1-.02q.54-.09 1.07-.12.72-.02 1.42-.02l.12.02.1.02.1-.01.14-.06.07-.06.04-.04.03-.04.02-.04q0-.03.02-.06V26l-.01-.05-.05-.08-.06-.09a.5.5 0 0 0-.25-.1q-.71-.1-1.42-.07a6 6 0 0 0-1.63.26l-.05.04-.04.04-.02.04-.05.13-.01.13.01.06.02.05.03.06.02.04.04.04.05.03zm-1.73-6.09q0 .06.04.13.28.5.7.09.07-.08.1-.15.15-.18 0-.34.15-.16 0-.33-.48-.6-.75.13l.03.12.04.05-.03.06a1 1 0 0 0-.12.24m-1.1-2.21q0 .07.05.12l.03.05.04.04q0 .03.04.03l.1.06.04.02h.07l.07.02.39-.13a1.3 1.3 0 0 1 1.06.05l1.15.57h.11l.05-.02.05-.02.05-.02.04-.03.05-.03.03-.05.03-.05.05-.12v-.15l-.04-.13-.08-.11a4.4 4.4 0 0 0-1.93-.77 2 2 0 0 0-1.36.3l-.05.09-.04.13zm4.94 2.02-.5-.57-.04-.03-.04-.01-.05-.01h-.16l-.05.02h-.04l-.05.03-.04.03-.1.12-.03.05-.02.05v.06l-.01.05v.05l.01.06.02.05.09.15q.42.48.76 1.02l.47.74q0 .1.02.2l.05.22v.27l-.02.03-.02.02q-.03 0-.05.03l-.1.03q-.53.06-1.06-.02-.38-.06-.72.13l-.04.04-.04.04-.03.04-.03.05-.01.05-.01.06-.01.05v.06l.02.05.01.05q0 .02.03.05l.02.04.04.04.04.03.03.04.05.02.05.02.05.02h.15l.05-.01.06-.02.06-.02h.2l.34.04.36.03q.18 0 .36-.02 1.22-.19 1.03-1.43-.05-.23-.14-.44a9 9 0 0 0-.67-1.22q.2.06.43-.17.16-.18.01-.35-.47-.57-.73.1m-14.22 1.28q.15-.21.37-.27.12.03.23.1.39.24.62.65.2.39.5.72l.04.02.1.03h.15l.1-.02.04-.03.08-.06.03-.03.04-.05q0-.05.04-.09v-.05l.02-.04v-.05a1 1 0 0 0-.15-.42 6 6 0 0 0-.5-.7l.05-.01.01-.01-.2-.15-.38-.35v.02a1.6 1.6 0 0 0-1.07-.32 2 2 0 0 0-.86.73 3 3 0 0 0 .22 3.64 1 1 0 0 0 .25.31l.49.36q.13.09.29.14a.4.4 0 0 0 .27.05q.7.33 1.47.53.32 0 .62-.1.45-.15.52-.6a2 2 0 0 0-.07-.78l-.03-.05-.03-.04-.03-.03-.05-.04-.04-.02-.14-.04h-.1l-.15.04-.04.02-.04.04-.07.07-.03.05-.02.04v.05a1 1 0 0 0 0 .24q.05.18-.03.25l-.07.01-.13.04h-.04l-.12-.02q-.22-.08-.45-.13a2.7 2.7 0 0 1-1.7-1.17 2.4 2.4 0 0 1-.34-1.97l.1-.17zm7.54-11.54a2 2 0 0 0-.8.03l-2.05.54q-2.05.54-3.78 1.73a7.6 7.6 0 0 0-2.62 3.18 9 9 0 0 0-.75 4.25l.03.04v.01q-.07.52-.06 1.07a11 11 0 0 0 .28 2.3q.04.38.17.74.17.52.37 1-.02.15.07.29a1 1 0 0 0 .15.33l.09.12.26.56q.56 1.1 1.07 2.23v.02l.02.04.15.45q.24.77.13 1.58l-.16 1.22q-.39.09-.73.3-1.56.97-2.88 2.27-1.34 1.32-2.55 2.77a5.5 5.5 0 0 0-3.62.97 9.3 9.3 0 0 0-3.27 3.73 15 15 0 0 0-1.5 5.74q-.1 1.8.32 3.45l-.07.04q-.08.04-.13.1l-.08.1q-.09.14-.1.3-.1.63-.3 1.25-.74 2.52-.29 5.12.3 1.69.89 3.3l-.08-.02-.15.03-.14.08-.12.1q-.16.43-.2.9a7 7 0 0 0-.01 1.12q.31 4 1.69 7.85.5 1.4 1.25 2.67a11 11 0 0 0 5 4.5l-.35.17q-1.96.33-3.72 1.92-.62.57-.97 1.33a31 31 0 0 0-1.72 4.92l-.07.07-.06.06-.05.05q0 .03-.03.05l-.03.06-.03.13v.14l.03.11.04.08a86 86 0 0 1-3.42-.14l-.06.03-.06.03-.05.04-.1.1-.05.1-.04.13v.13l.01.06h-.02q-.08 0-.14.02-.28.15-.47.4-.64.85-.46 1.92.15.9.76 1.44-.1.05-.2.12l-.03.05-.06.12-.02.16.04.15q.03.12.11.18.1.08.22.14h.07l.07.01h.07l.07-.01.06-.03.2-.13q.12-.12.27-.2l.09-.03.08-.03.08-.02q1.88-.18 3.75-.21-.14.4-.03.8.23.88.63 1.67.47.9.98 1.28.29.46.6.87a7 7 0 0 0 1.7 1.6l-.06.13q-.05.14 0 .32.35.97.65 1.96.12.45.3.89h32.64a3 3 0 0 0-.37-1.26 34 34 0 0 1-2.26-5.1 44 44 0 0 1-1.32-4.6q.5-.06.97-.23 1.5-.52 2.95-1.2a6 6 0 0 1 .95-.37q.66-.24 1.33-.39.61-.14 1.16-.45a5 5 0 0 1 1.48-.17q.74.02 1.44.2 1.4.33 2.77.83 2.1.76 4.25.51a.7.7 0 0 0 .12.54q.25.36.46.59.24.27.54.47l.3.08q.27.05.52.05.28-.03.55-.16.08.09.2.14.25.1.54.16t.6.1q.2 0 .39-.07.2-.06.37-.17.2-.1.34-.28.37.04.75-.07.57-.18 1.01-.6.37-.33.61-.78.16-.15.27-.33v-2.33l-.22.46-.26.58q-.14.28-.26.58l-.07.12-.07.08-.1.1-.1.13-.07.12-.04.05-.07.1-.05.09-.05.06-.1.12-.13.12-.23.2-.13.06a1 1 0 0 1-.36.12l-.14-.19-.06-.05-.06-.04-.08-.04-.15-.02h-.17l-.14.07a.5.5 0 0 0-.2.22l-.05.27-.04.12-.05.07-.06.03-.07.04-.06.02-.08.03-.25-.05-.28-.05q-.12 0-.1-.14V90l-.04-.12-.08-.12-.07-.1-.06-.03-.12-.05-.13-.02-.14.01-.06.03a.4.4 0 0 0-.17.1l-.17.18a1 1 0 0 1-.23.17l-.06.01-.3-.06-.06-.04-.06-.04-.05-.04-.04-.04-.06-.07-.12-.15-.13-.13v-.05l-.01-.07v-.07l-.03-.06-.03-.06-.04-.05-.02-.02.1-.03q.3-.1.59-.24a3 3 0 0 0 .63-.52q.6-.66.45-1.52-.12-.7-.29-1.4l.07.1a14 14 0 0 1 1.32 2.11q.03.06.09.1.04.05.1.08l.12.06h.06a1 1 0 0 0 .26-.03l.12-.06.04-.05.07-.1.07-.25q-.23-.75-.72-1.4a10 10 0 0 1-.87-1.34l.01-.04.07-.18q0-.3-.15-.6t-.35-.57l-.03-.38.02-.01.07-.03.05.17.08.21q.1.27.26.52.4.65.89 1.26a22 22 0 0 0 1.06 1.23l.07.05.06.02.08.03q.08 0 .15-.02.09 0 .16-.04l.14-.09.08-.13q.04-.08.04-.14l.02-.17q-.18-.4-.5-.7a5 5 0 0 1-.76-.87l.01.01 1.56 1.41.06.02.06.02h.14l.23-.1.1-.1.03-.06.05-.11.02-.13-.01-.13a1 1 0 0 0-.31-.45l-1.43-1.29a2 2 0 0 1-.57-.72v-.16a.4.4 0 0 0-.12-.2l-.03-.21.12.04q.13.05.26.06l.26.03.67.35q.12.15.25.26.16.17.33.27l.17.12.14.14.1.06q.06.13.15.22l.66.7v-1.6l-.05-.02-.1-.07-.15-.12-.03-.06q-.15-.24-.39-.39-.23-.15-.45-.32l-.07-.03h-.01l-.24-.15a8 8 0 0 0-.71-.34l-.27-.04a1 1 0 0 1-.36-.09 1 1 0 0 0-.32-.07q-.15.02-.3.09l-.3.15-.24.13a1 1 0 0 0-.14.16l-.08.18-.06.06-.05.05-.2-.05a2.4 2.4 0 0 0-.93.36 1 1 0 0 0-.42.5v.4l-.1.02q-.62.5-.56 1.31.04.36.13.7-.3.12-.57.28l-.78.43-.27.05q-.2 0-.37.05l-.32.07h-.18a6 6 0 0 1-.85-.02q-.91-.25-1.76-.7-.84-.42-1.71-.71l.08-.09.07-.1.02-.07.01-.06.01-.07v-.07l-.03-.13a27 27 0 0 0-1.62-1.33 114 114 0 0 0-5.32-3.86 14 14 0 0 1-3.62-3.57h.01q.17.18.37.33 1.1.76 2.32 1.27 1.23.53 2.3 1.34.69.5 1.39.95l2.24 1.46q1.11.71 2.21 1.44a5 5 0 0 0 1.83.77.8.8 0 0 0 .56-.27q.24-.27.06-.56a5 5 0 0 0-1.16-1.36q-.63-.5-1.29-1a15 15 0 0 1-2.87-2.76l-.1-.14a11 11 0 0 0-1.8-1.83q-.95-.75-1.85-1.67-.9-.9-1.83-1.77-.48-.44-1.11-.45-.68-.02-1.17.46-.2.2-.34.46-.39.75-.44 1.62l-.09.15a49 49 0 0 1-.58-3.28l-.02-.06-.05-.05-.04-.05-.05-.04-.11-.06-.13-.03-.13-.01q-.03 0-.07.02l-.06.02q-.21-.18-.44-.06l-.1-.02q.06-.36.05-.73-.02-.87.1-1.76.05-.12.06-.23l.1-.58a2 2 0 0 0-.01-.47l-.03-.06-.02-.06-.05-.05-.04-.05a1 1 0 0 0-.22-.14q-.44-.19-.92-.24l-1.05-.13-.07-.03-.15-.06h-.08q-.14 0-.27.03l-.27.06-.18.05h-.26l-.16.01-.13.03-.05.02-.06-.05-.11-.09-.17-.1-.06-.12-.07-.1h.02l.12-.05q.33-.3.4-.68l.06.14q.07.16.16.28a1 1 0 0 0 .23.2q.24.1.5.12a8 8 0 0 0 1.2 0l.17.06q.18.06.37.07l.38.04h.14l.05-.01h-.03.06l.12-.03.07-.03.05-.03a1 1 0 0 0 .27-.54q.18-1.35.24-2.71a6 6 0 0 0-.42-2.54l-.03-.05-.04-.06-.04-.06-.03-.06-.03-.05-.01-.04-.01-.08v-.16l-.03-.08a1 1 0 0 0-.15-.24l-.3-.32a1 1 0 0 0-.27-.22l-.45-.06h-1q-.44 0-.84.15l-.3.02q-.24 0-.46.09l-.41.17-.05.04-.05.04-.04.06-.03.08q-.06.33.03.66.32 1.22.62 2.45.22.97.25 1.95l-.52-2.39a18 18 0 0 0-.71-2.42 2 2 0 0 0-.36-.36l-.06-.04-.16-.02h-.07l-.07.01q-.35.18-.68.42-.3.21-.61.38a5 5 0 0 0 1.43-1.49l.34-.49.27-.4.18-.26.3-.49q.11-.21.16-.47.3-1.44.19-2.96-.14-1.99-.82-3.86a42 42 0 0 0-2.24-5.08l-.07-.23a4 4 0 0 0-.53-1.06l-.05-.03-.05-.03-.02-.02.47.05.06-.02.12-.06.1-.07.05-.05a.4.4 0 0 0 .1-.18 1 1 0 0 0 0-.21l-.03-.08a1 1 0 0 0-.11-.2l-.11-.08a5 5 0 0 0-.72-.15l-3.2-.41a6 6 0 0 0-3.36.45 2 2 0 0 0-.38.79 10 10 0 0 1-1.37 3.25 30 30 0 0 1-2.29 3.12l-.04.2q0 .08.03.15l-.08.03-.1.07q-.36.6-.33 1.34.1 2.8 1.53 5.25a8 8 0 0 0 4.23 3.54l.27.1 1.47.49a13 13 0 0 0 1.4.37l-.04.03-.05.04q-.2.34-.23.75a84 84 0 0 1-.27 2.66 19 19 0 0 0-.07 2.8l.05.1q.05.1.13.16l.17.09q.5-.02.98-.2a30 30 0 0 1 4.1-1.18q-.33.2-.63.4-.59.4-1.24.7l-.28.06q-.83.24-1.62.64a4 4 0 0 0-1.23.96l-.06-.02-.07-.01-.13-.03h-.07l-.12.04a.4.4 0 0 0-.16.1l-.07.11a1 1 0 0 0-.14.36l-.04.05-.1.12-.02.06-.02.07-.01.14.01.07.09.27q0 .1-.02.23-.06.3-.1.62l-.08.82a1 1 0 0 0-.09.3l-.03.25q0 .1.04.19.04.1.1.16.1.08.22.14-.23.15-.44.33l-.02.06-.03.07v.07l-.02.07v.13a1 1 0 0 0-.07.43 13 13 0 0 1 .07 1.35q-.1.25-.06.5.09.73.07 1.45v1.59l.03.07.03.06.04.05.04.05.05.04.1.06.13.03.15.01.07-.02.05-.02.12-.08.1-.1q0-.03.03-.02.25.03.5-.01l.47-.1q.24-.05.47-.14l.57.09a9 9 0 0 0 2.84-.14l-.04.09a1 1 0 0 0-.04.19q-.01.12.04.22.33.64.43 1.16.19.82.15 1.67h-.22l-.08-.03-.51-.1a2 2 0 0 0-.44-.02l-.25-.09a1 1 0 0 0-.34-.07l-.5.1q-.3.07-.59.06l-.14.05q-.47.23-.98.3-.2.03-.38.1-.05-.63-.17-1.25a9 9 0 0 1-.13-1.62l-.03-.06-.1-.16-.06-.04-.17-.1a1 1 0 0 0-.2 0h-.07a1 1 0 0 0-.17.1l-.13.14a1 1 0 0 0-.1.35q0 .75.15 1.5.1.5.15 1l-.02-.02-.05-.04-.05-.04-.07-.02-.13-.03h-.13l-.3-.57a30 30 0 0 0-4.2-6.3 19 19 0 0 0-5.06-4.14l.04-.08.03-.13.02-.14.03-.16.35-.94v.07q.02.03.03.08.23.4.59.69 1.08.9 2.2 1.77l2.28 1.76.08.02.07.03.15.02q1.35.34 2-.8.62-1.08.17-2.26-.45-1.2-1.47-2.01a15 15 0 0 0 1.1.18h.5a3 3 0 0 0 .62-.05l.12-.08a1 1 0 0 0 .22-.2q.34-.67.27-1.45a3.5 3.5 0 0 0-.98-2.36q.6-.22 1.12-.7.96-.9.58-2.08-.45-1.4-1.9-1.4-3.1-.02-6.07.78l.06-.98a15 15 0 0 0-1.65-7.7l.19-.12q.06-.07.1-.16l.45-1.39q.27-.79.32-1.6l-.03-.08-.03-.07-.08-.1-.1-.08-.12-.05-.16-.03a1 1 0 0 0-.23.07 1 1 0 0 0-.18.16 1 1 0 0 0-.08.24 8 8 0 0 1-.34 1.4 8 8 0 0 0-.31 1.09l-.1-.01-.12.02-.1.04-.06.04-.13.15-.07.2q.12.5.36 1l.37.85q-.28.07-.42.4l-.42.35-1.71 1.4-.02-.04a6 6 0 0 1-.34-1.6q-.1-1.37-.1-2.75-.01-1.35.02-2.72.01-.68.1-1.34.17-1.28.5-2.53.3-1.16.8-2.25.26-.56.6-1.06a2.4 2.4 0 0 1 1.8-1.18.4.4 0 0 0 .23-.29.3.3 0 0 0-.11-.33q-.33-.27-.77-.13-.97.3-1.6 1.13-.82 1.05-1.26 2.32-.43 1.24-.76 2.52-.3 1.3-.37 2.6l-.04 1.33a53 53 0 0 0 .06 3.97 8 8 0 0 0 .5 2.61q.07.1.15.16a7 7 0 0 0-1.19 1.13q-.18-.3-.39-.58a4 4 0 0 0-.94-.91q-.5-.35-.98-.7v-.02a.2.2 0 0 0-.01-.15l-.9-1.44q-.75-1.19-1.19-2.5-.42-1.27-.65-2.6-.22-1.3-.13-2.66.07-1.3.5-2.58.4-1.23 1.08-2.3.34-.54.82-.95l1.06-.89a.4.4 0 0 0 .04-.34q-.09-.22-.23-.28l.08-.03q.3-.1.58-.25l.3-.06.55-.1q.29-.07.54 0 .02 0 .05.03a1 1 0 0 0 .26.06l.18-.04.11-.07.05-.02q1.04.34 2.12.6 1.3.3 2.44 1.01 1.15.72 2.35 1.33l.25.13a2 2 0 0 0 .65.21q.13.03.26.03.18 0 .31-.11a.4.4 0 0 0 .15-.29.8.8 0 0 0-.26-.53q-.68-.66-1.04-1.54L93.07 37a13 13 0 0 1-.55-1.74 6 6 0 0 1-.2-1.56q.01-.3-.04-.58-.03-.25-.16-.35l.42-.26.04-.03.03-.03.04-.05.02-.04.03-.04q.18-.95.25-1.92.03-.48-.07-.95a12 12 0 0 0-.68-2.14l-.02-.07-.03-.13-.19-.36-.14-.37-.03-.05-.09-.13-.06-.11-.07-.14-.01-.04h-.01l-.1-.22v-.02l-.01-.01-.06-.16-.08-.17a1 1 0 0 0-.18-.23q-.42-.95-.63-1.95-.45-2.04-.23-4.09l-.03-.04-.02-.03-.02-.03q.02-1.95.99-3.68.25-.45.59-.84a9 9 0 0 1 3.32-2.42q1.77-.78 3.68-1.19a41 41 0 0 1 3.55.6 5.5 5.5 0 0 1 3.58 2.34h-.02l.02.02q0 .03.15.22l.2.34q.05.09.06.18.6 1.44.96 2.97a1 1 0 0 0-.3-.02l-.19.08q-.39.22-.72.52-.3.3-.49.67l-.01.07-.02.06v.06l.02.07.01.05.03.05.03.05.04.04.04.03.1.06.04.02h.05l.06.01h.05l.06-.01.05-.02.05-.02.05-.03.04-.03.06-.1q.12-.23.32-.42.22-.2.49-.35l.06.01.13.05.07.02q-.03.45-.08.89-.03.3-.17.57a2.3 2.3 0 0 0-.11 2.02l.39 1.06q.2.62.21 1.27.05 2.19-.57 4.33l.02.14q.07.32.07.66 0 .38-.07.77l-.05.05-.18.22-.11.15-.25.12-.2.11-.1.02-.17.05-.2.08-.05.01-.11.02-2.36-.32a10 10 0 0 1-1.84-.46 29 29 0 0 1-4-1.78l-.2-.14a1 1 0 0 0-.19-.14l-.16-.03h-.05l-.06.02-.05.01-.05.03-.04.02-.04.05-.05.04-.02.04-.03.05-.03.16v.05l.02.06.04.1q.1.16.28.26.54.35 1.13.65 1.89.96 3.94 1.48 1.1.27 2.2.47-.4.3-.63.78a3 3 0 0 0-.27 1.72q0 .15.02.28v.01l-.03.1v.15l.02.05q.02.08.08.13l.11.1.02.01a8 8 0 0 0 2.53 3.2q0 .09.04.18l.08.12a1 1 0 0 0 .2.16l.15.02a12 12 0 0 1 1.08.02l.07.02.3.09.41.06q.2.09.43.14.54.13 1.09.23l1.26.24.42.2.21.1.77.37q.9.48 1.6 1.24.72.78 1.37 1.62.08.27.24.49.53.75.74 1.65.21.96.57 1.87l.11 1.02q.21 1.83-.04 3.69a38 38 0 0 1-.61 3.37 7 7 0 0 1-.9-1.45q-.15-.35-.5-.55a.2.2 0 0 0-.2-.02q0-.26-.03-.53a26 26 0 0 0-1.2-5.84h.01l.12-.01.1-.05.07-.04a.5.5 0 0 0 .2-.35 1 1 0 0 0-.14-.48q-.5-.83-1.1-1.58-.68-.88-1.23-1.85l-.04-.16-.05-.15q-.1-.16-.26-.28-.45-.34-1.01-.47-.6-.12-1.18-.38-.36.07-.61.34-.85.88-.88 2.19-.03 1.48-.47 2.88 0 .09.06.18l.13.15q.04.05.1.06a33 33 0 0 0-.56 4.6 10 10 0 0 0 .44 3.38 4.8 4.8 0 0 0 4.26 3.63q.27-.01.52-.07 0 .15-.02.3l-.11 3.66q-.04 1.88-.37 3.73l-.03.05-.02.06-.01.06-.01.06v.06q0 .03.02.05l.01.05q0 .03.03.05 0 .03.03.05l.03.04.05.03.09.06.05.02h.08q.25.5.72.85l.15.15q.32.52.82.77l.02.02q.47.5 1.07.86.93.55 2 .57h.98q.3 0 .56-.06a.4.4 0 0 0 .08.17q.7.81 1.22 1.74.39.7.82 1.37l.39.6q.14.2.33.36.84.67 1.61 1.41.12.13.29.22.63.34 1.2.79l-.01-.01.41.36a8 8 0 0 0 2.27 1.41h.02l.32.12q.98 1.79 2.38 3.34l.14.08.05.09.14.13.06.03q1.01.08 1.92-.4.87-.45 1.74-.92l.2.05q.3.07.59.2l.51.16.08.01h.08l.08.01.08.02q.22.1.47.1l.41.07.09.04.49.22a1 1 0 0 1 .3.22l.01.03v-1.23l-.21-.11a2 2 0 0 0-1-.21l-.09-.04-.36-.1-.3-.03a6 6 0 0 0-1.54-.45q-.6.23-1.15.57a10 10 0 0 1-1.26.68l-.84.12a13 13 0 0 1-2.4-3.84l-.15-.37q-1.35-3.3-2.95-6.48a2.3 2.3 0 0 0-.91-.96 18 18 0 0 1-2.62-1.83v-.03q.06-.25-.02-.38.07-.73-.04-1.47a27 27 0 0 0-1.38-5.56 20 20 0 0 0-2.43-4.66q.43-1.3.64-2.64.77-4.35-.87-8.47a10 10 0 0 0-5-5.41l-.04-.02q-.36-.16-.73-.27-.9-.25-1.8-.43t-1.8-.43l-.62-.04h-.33a1 1 0 0 0-.31-.36 6 6 0 0 1-1.4-1.39 8 8 0 0 1-.87-1.7l-.01-.06-.01-.08-.03-.08-.02-.06-.05-.07-.02-.03v-.08q-.09-.55.2-1.08l.04-.05.26-.27q.52-.27 1.08-.44l.33.04h.11l.13-.07.05-.04.03-.03.02-.04.04-.04q.68-.2 1.1-.76a2.6 2.6 0 0 0 .43-2.38q.33-1.13.54-2.29.15-.78.07-1.67a8 8 0 0 0-.8-3.06l-.02-.1-.03-.12v-.08q0-.06.02-.13l.02-.09.09-.24q.27-.66.4-1.37a6 6 0 0 0-.03-1.76l-.03-.04-.03-.04-.01-.01-.07-.36-.45-1.95a5 5 0 0 0-.51-1.21v-.01a.4.4 0 0 0 .02-.19l-.05-.17q0-.03-.03-.05l-.03-.04-.09-.06-.1-.04-.08-.02q-.22-.35-.48-.65a5.3 5.3 0 0 0-2.58-1.76 24 24 0 0 0-2.81-.7q-.75-.15-1.47-.26m3.1 32.3-.07.11-.04.11-.03.13q.12.43.32.85l1.95 4.06a12 12 0 0 1 1.23 4.65v1.42a15 15 0 0 1-.04 1.32q0 .03-.02.04l-.03.08-.04.08-.02.09-.02.07v.08l-.03.07-.04.07-.58.87-.49.76q-.5.77-1.33 1.1l-1.62.62h-.09a7 7 0 0 1-.81-.03l-.33-.11a8 8 0 0 1-1.16-.35q-.63-.25-1.28-.43a7.62 7.62 0 0 1-4.08-3.82 8 8 0 0 1-.75-4.97v-.05l-.02-.07v-.02l.05-.02q.35-.26.6-.62l.43-.62q.22-.32.48-.61.9-1.08 1.5-2.35.7-1.42 1.09-2.93a1 1 0 0 1 .44-.11q1.43 0 2.83.15l2.17.27-.12.06zm6.6-.41q.26.04.56.13t.55.13l.24.12.24.13q.24.71.72 1.3a20 20 0 0 1 1.46 2.07l-.1.04-.06.05-.09.1-.06.1-.04.13.21.92q.6 2.06.95 4.17.37 2.28-.3 4.45l-.08.12a3 3 0 0 1-.53.66l-.56.6-.09.02a3 3 0 0 1-.8.04 3 3 0 0 1-.8-.19 4.3 4.3 0 0 1-1.82-1.81 7 7 0 0 1-.81-4.09 57 57 0 0 1 .82-6l-.01-.05-.02-.07-.03-.06-.04-.05-.02-.02q.06-.36.05-.76-.02-1.17.46-2.18m-2.36-3.38h.02l.01-.02zm-15.13-3.58q.29 1.32.77 2.58t1.13 2.45l-2.13-1.27a9 9 0 0 0-2.42-1l-1.26-.34q-.34-.1-.67-.17l.26-.32q.98-1.36 2.13-2.28 1.04-.81 2.16-1.5-.18.9.03 1.85m-2.28 20.72-.05-.13.07-.06q.66-.43 1.14-1.03.21.63.37 1.3.69 2.84.32 5.9a33 33 0 0 1-2.09 8.19l-.06-.36a23 23 0 0 1-.26-5.21q.03-1.05.1-2.09l.13-2.09.13-2.07q.08-1.05.2-2.1a1 1 0 0 0 0-.25m-.89.55-.04.32q-.09 1.05-.14 2.1a88 88 0 0 1-.3 4.22q-.08 1.02-.08 2.07a66 66 0 0 0 .11 3.35q.05.84.26 1.62l-.54-.5q-.51-.51-.9-1.07v-.32q.08-1.01-.02-2.02-.1-1.31-.06-2.62.04-1.14.04-2.27 0-1.03-.19-2.04a1 1 0 0 0-.09-.22l-.07-.1a.4.4 0 0 0-.08-.25l-.1-.3.51-.61.25-.24q.73-.54 1.44-1.12m-3.07 2.13q.1.45.4.71l.07.87q.1 1.08.1 2.16l-.03 1.92q-.02 1.13.06 2.24a13 13 0 0 1 0 2.21q-.52.05-1.03.06a7 7 0 0 0-1.97.38q-.24-.27-.43-.6-.44-.75-.45-1.64v-.16q0-.06-.02-.23a10 10 0 0 1 0-1.34q.03-.6.11-1.17.18-.93.19-1.87 0-1.05-.04-2.07-.04-1.05-.05-2.11a19 19 0 0 0-.18-2.17 1 1 0 0 1-.03-.34q.53.28 1.03.65.44.3.87.63a4 4 0 0 1 1.4 1.87m8.69 2.96q.14 0 .27-.03.69-.13 1.39-.19.76-.07 1.51-.24l.77-.01q.3-.01.6.05l.39.22.05.07q.07.12.15.23l.1.14-.03-.02.02.03.04.05.03.08.02.15v.08l-.01.07-.01.07a1 1 0 0 1-.14.24l-.24.3-.14.18-.07.05q-.28.2-.6.33t-.67.19l-.24-.06q-.23-.04-.46 0l-.22-.04a8 8 0 0 0-.94-.12q-.77-.36-1.55-.65a7 7 0 0 1-1.54-.78l.25-.1q.28-.1.57-.14.36-.04.7-.15m-1.91.49-.02.02v-.05l.07-.01zm-.1.7q.18.2.43.37.4.3.85.53a8 8 0 0 0-1.51.55zm9.45-2.47-.04-.05-.05-.04-.04-.03q.51-.03 1.02-.14-.39.19-.74.45h-.04l-.03-.06-.04-.07zm-.02 1.28q.34-.06.64-.24.66-.44 1.42-.65a5 5 0 0 0 1.73-.87q.1.34.17.7.17.92.38 1.82l.47 1.94-.08.01h-.07l-.08.03h-.07l-.06.04q-.04 0-.07.03l-.07.03-.08.01q-.35.03-.7.1-.97.21-1.95.48-.98.26-1.91.65l.01-.5q.06-.9.16-1.79.1-.93.16-1.79m6.95-2.48h.56l.57.01.04.03.04.04.04.05q.1.12.11.28a1 1 0 0 0 .16.4l.09.13q.04.3.13.6.24.92.13 1.9-.1.93-.12 1.89l-.43-.1a3 3 0 0 0-.83-.06q-.36.02-.64-.03a2 2 0 0 1-.05-.53q0-1.17-.3-2.3-.3-1.15-.44-2.15l.13-.01q.16 0 .33-.05l.38-.1zM83.37 38.59a6 6 0 0 0-1.78 1.72q-.72 1.12-1.19 2.38-.45 1.26-.57 2.59a14 14 0 0 0 0 2.64q.14 1.32.54 2.6t.96 2.48q.33.7.72 1.3-.24-.02-.48.03-.26.06-.28.33v.07q-.2.49-.07 1.02.12.54.14 1.1l.1 3.14.03 1.56q0 1.05-.17 2.1-.12.75-.14 1.55-.03 1.05.1 2.08a3.8 3.8 0 0 0 1.16 2.28q.75.69 1.54 1.34l-.03-.02.06.04.15.12.14.1q.4.3.82.58.89.6 1.83 1.07a14 14 0 0 1 1.8 1.1v.01h.02q0 .02.02.02l.18.14a11 11 0 0 1 1.38 1.31l.16.1.65.54q.82.7 1.35 1.61.06.08.13.13.26.16.47-.03.15-.03.26-.22a.7.7 0 0 0 .1-.44q-.09-.9-.12-1.83.06.02.12.02.48.03.46-.45a1 1 0 0 0-.05-.2 44 44 0 0 1 1.95 2.15q.27.39.48.8.63 1.26 1.34 2.5a29 29 0 0 0 1.55 2.43l.1.08.11.07.06.03q.12.12.31.2a2 2 0 0 0 .8.1l.11-.02q.64-.1 1.23-.41l.25-.03q.48-.12.97-.13.6-.02 1.16-.02l.29.06q.46.07.9.2.46.13.82.33-.14-.16.1.08.18.2.41.35l.44.3.4.56.14.28a.3.3 0 0 0-.16-.01l-.12.04a.4.4 0 0 0-.16.1l-.09.1-.03.13v.02l-.05.01q-.21.01-.42-.01v-.02l-.06-.11-.1-.08a2 2 0 0 0-.39-.2 1 1 0 0 0-.41-.06l-.14-.1a4 4 0 0 0-.8-.46 6 6 0 0 0-1.2-.37h.03l-.3-.05q-.83-.15-1.68-.08a10 10 0 0 0-1.8.3q-1.05.3-1.72.87-.64.56-1.42.9a17 17 0 0 0-1.17-3.45q-.12-.45-.41-.83a10 10 0 0 0-2.85-2.47 5.7 5.7 0 0 0-3.09-.75l-.07-.03-.17-.04-.16-.04-.16-.04-.43.08q-.44.11-.9.07-.4-.03-.77.13l-.12.01a15 15 0 0 0-1.66-.85 8.4 8.4 0 0 1-4.13-3.85 23 23 0 0 1-2.66-11.15l.4.8.05.05.12.06.12.02h.13l.14-.02.05-.04.1-.08.07-.1.06-.12q0-.54-.26-1.02-.56-1.05-.86-2.17l-.52-2.03q-.04-.39-.05-.78-.06-1.44.33-2.83.28-1.03.4-2.08h.02l.16-.04.13-.08.1-.08.03-.06.05-.12.02-.07v-.12l-.06-.19-.12-.2-.08-.15q-.15-2.65.2-5.29.21-1.49.83-2.84a9 9 0 0 1 3.74-4.04zm.33 30.98.02.02za14 14 0 0 1 2.27-.24q.23 0 .45-.06.35.46.8.87a21 21 0 0 0 1.84 1.52q.56.46 1.18.86a10 10 0 0 1 1.49 1.14 7 7 0 0 1 .83.8q-.15.36-.1.77l.08.97a9 9 0 0 0-.7-.7q-.51-.44-.96-.9l-.18-.12-.22-.24q-.8-.74-1.7-1.32a17 17 0 0 0-1.76-1.01q-.92-.48-1.75-1.08a30 30 0 0 1-1.6-1.26zm-1.02 11.91.12.01q.07 0 .13-.02.06 0 .13-.04.3-.3.54-.67.5-.79 1.3-1.16a9 9 0 0 1 2.15.08q1.23.19 2.24.92.2.24.42.46.56.56 1.01 1.23l.82 1.21.11.35a3 3 0 0 0 .52.9l.08.3.16.53q.09.26.22.49l.26.75q.27.69.43 1.4.17.7.12 1.44-.12.4-.12.82 0 1.64-.87 2.82-.83 1.15-1.81 2.22-.2.14-.37.33l-.32.38q-.18.22-.33.46-.18.15-.34.33a4.2 4.2 0 0 1-3.1 1.32q-.74 0-1.43-.15a13 13 0 0 1-.97-.57l-.12-.04h-.14l-.23.1-.14-.07-.63-.68q-1.05-1.06-1.96-2.25a4.4 4.4 0 0 1-1-2.57l-.03-.07 1.19.02q2.31.09 4.54-.35l.06.1q.06.08.14.14l.09.04a.5.5 0 0 0 .44-.05l.7-.74a2.3 2.3 0 0 0 .65-2.02 2.3 2.3 0 0 0-1-1.64l-.03-.06q0-.03-.03-.05l-.1-.09-.11-.06-.14-.05-.07.01-.1.02-.14-.04h-.07l-.15.05-.12.05-.05.07-.3.04-.36.09h-5.8l.04-.03.1-.11q.15-.25.22-.52l1.12-4q.15-.28.35-.55a8 8 0 0 1 2.1-2.04 6 6 0 0 0-.39.59v.26l.03.06.07.12.09.09.12.08zm-6.35 7.04.45.01q2 0 4 .04 2.34.05 4.3-.15h.02l.53-.05.08-.01q.3.15.53.42l.06.1.1.29q.06.11.08.22l-.06.24q-.1.53-.52.9l-.1.1-.06-.01q-1.7.42-3.46.42a217 217 0 0 1-5.9-.04l.02-.09q.25-1.14-.12-2.24l-.12-.17zm-1.25.44.09.03.13.08.06.06.07.27q.09.39.09.77-.02.42-.2.78-.04 0-.08.03a1 1 0 0 1-.4.1h-.39q-.08-.17-.18-.32-.15-.3-.24-.6-.11-.47.17-.62l.13-.08a5 5 0 0 0 .5-.44l.04-.02.07-.02.07-.02zm33.73-22.57q.35.02.7.11.31.1.63.08l-.07.5q-.1.72-.12 1.44a4 4 0 0 1-.24 1.37h-.12l-.07-.02h-.01l-.11-.04a3 3 0 0 0-1.34-.2v-.29q.01-.34-.02-.72t-.09-.74l.05-.25q0-.13-.02-.25l-.07-.32v-.64q.06 0 .1-.03.1 0 .17-.03l.26-.07q.17.07.37.1m-2.53-.27.01.09.01.08.04.17.04.06.02.07.03.13q0 .14-.06.27-.1.22-.09.45l-.01.54q-.08.22-.1.46l-.13 1.02q-.1.54-.07 1.09a3 3 0 0 0-.51-.04h-1.43q-.64-.02-1.26.16h-.38q-.47 0-.95-.02-.5-.02-.96.12l.01-.39q.03-.3.1-.6.06-.36.08-.7l.27-.15.3-.24.35-.37q.5-.27 1-.5l3.63-1.77.06.03zm.05 5.66-.04-.1h.06zm.68-1.7.07-.32a4 4 0 0 0 .18.9h-.01l-.16.02h-.12q.02-.25.01-.51zm.36 1.6h.17q.15 0 .28-.06l.2-.06.12.04.2.05.17.02h.08l.47-.08v.68l-.02 2.26q-.03 1.08-.2 2.09l-.08.04-.21.18-.02.02h-.45l-.36-.01q-.05 0-.05-.04v-.04l.03-.07.02-.07q.03-.15-.03-.29-.09-.26-.12-.51a4 4 0 0 0-.12-.63v-.18a4 4 0 0 0-.15-1.3v-.17q0-.45-.03-.89-.05-.56.1-.98m3.63-1.04.14.03h.02q.06 1.3.32 2.6.2 1.07.82 1.95 1.8 2.55 4.37 4.27a70 70 0 0 1 6.16 4.63q-2.16-.52-4.45-.19-.33.06-.65.16-2.85 1.05-5.22 3.03l-.16.05-.3.05-.08-.01-.07-.02-.09-.02-.07-.02-.17-.09q-.44-.26-.84-.59t-.8-.61l-.07-.02h-.22a7 7 0 0 0-.48-1.1q-.06-.28-.18-.52a2 2 0 0 0-.27-.4q-.03 0-.05-.03l-.06-.03-.05-.01-.03-.01-.12-.17q-.18-.28-.05-.1l-.12-.16.13.06.14.1.3.2.3.13.05.06.06.05.06.05a1 1 0 0 0 .3.1l.13-.03a1 1 0 0 0 .22-.12q.4-.68.4-1.46-.03-1.22-.1-2.44a10 10 0 0 0-.47-2.72l.1-.17.05-.24a55 55 0 0 0 .13-5.84h.03l.06.02q.1.02.2-.01a1 1 0 0 0 .24-.14l.05-.1.06-.15q.17.07.33-.02M98.3 66.06q.15.6.07 1.21h-.48q-.6-.02-1.18-.2-.67-.18-1.37-.33l-.4-.21q-.67-.36-1.38-.56a4 4 0 0 1-1.57-.83l-.07-.02h-.27l-.06.03-.08.05.03-.13.1-.05q.55-.09 1.06-.29a7 7 0 0 1 3.15-.45l.27.06.05.02h.07l.06.02h.01l.14-.01h.05a8 8 0 0 1 1.07.3l.06.03.06.03.05.05q.1.12.18.27.26.48.38 1m3.5 6.4a6 6 0 0 0 2.35-.47 5 5 0 0 0 .7-.07q.2-.06.4-.05.15.28.25.59l.32 1.09q.17.63.22 1.29l-.05.34q-.03.44-.08.87-.05.35-.19.65l-.22.01q-.13.02-.26.06l-.27.09-.45.01q-.75.1-1.49.11-.82.05-1.63-.09l-.28.1a4 4 0 0 1-.7.17l-.08-.03-.09-.01-.08-.02v-.28l-.01-1q0-.42-.08-.86l.05-.2q.06-.44.03-.92l-.08-.72.03-.08.02-.08q.01-.04.04-.06l.04-.04.14-.07a7 7 0 0 1 .69-.33zm4.71 5.59.14-.03.35.07q.5.1.99.02.44-.09.86-.25.05.14.07.28l.27 2.36q.14 1.16.12 2.28l-.47-.27a9 9 0 0 0-1.1-.6 6 6 0 0 1-1.07-.69l-.07-.02h-.08q0-.74-.1-1.47a6 6 0 0 0-.33-1.24l.02-.01.1-.05.13-.08.1-.12.04-.1zM91.36 65.87q.33.33.73.52l.73.35q-.87 0-1.76.29zm2.3 2.04.4.1q.27.13.53.23.66.24 1.22.66.59.45 1.15.94l.17.34q.18.42.17.87 0 .48-.19.93a1 1 0 0 1-.2.18l-.15.06h-.19l-.54-.04-.55-.43a26 26 0 0 0-2.05-1.56q-1.07-.74-1.93-1.68v-.08l-.03-.15-.04-.08-.03-.07-.07-.12-.03-.04.08-.04.07-.03.18-.08h.27q.27-.03.52-.1.27-.09.55-.05l.27.1zm-6.64.82v-.01l.01.01m1.88 1.74.07-.04.02.11zm-.22 8.34.27.08a2 2 0 0 0 .55.06h.54a4 4 0 0 0 .9.17q3.4 1.35 4.38 4.81 1.13 3.98.45 8.06A13 13 0 0 1 92.22 99q-.07.05-.16.09l-.45.27q-.2.06-.42.08-1.9.15-3.72-.25l.6-.2q.66-.26.87-.43a29 29 0 0 0 4.11-4.33 6.5 6.5 0 0 0 1.36-3.59 8 8 0 0 0-.07-1.66 18 18 0 0 0-2.55-7.05 6.8 6.8 0 0 0-3-2.63q-.45-.22-.9-.37l.21-.01zm4-5.42q-.65-.63-1.38-1.14l-1.26-.92q1.44.86 2.64 2.06m4.47 15.3q-.02-1.16-.19-2.28.7-.27 1.29-.72a8 8 0 0 1 1.72-1.02l.2-.03.33-.1h.02l.07-.02a8 8 0 0 1 2.2-.12q.7.05 1.36.28.11.13.25.22a14 14 0 0 0 1.32.71l-.04.04q-.12.18-.28.3-.08.06-.17.08-.42.16-.85.3-.28.1-.51.26h-.13l-.31-.1a4 4 0 0 0-.78-.08q-.51 0-.98.19-.12 0-.24.04a4 4 0 0 0-.79.32q-.5.26-.97.6-.18.01-.34.1a65 65 0 0 0-2.18 1.03m9.45-2.56.03-.15.02-.09.2.03.3-.01q-.02.32-.09.65a.5.5 0 0 0 .28.39q-.08.14-.14.3-.2.5-.59.92l-.25.14q-1.05.57-2.05 1.2-1.16.73-2.47 1.12l-.2-.02-.1-.05-.03-.03a1 1 0 0 1-.17-.27l-.09-.27q0-.46-.08-.9a7 7 0 0 1-.08-1.19q.27-.16.57-.28h.1l.2-.06.25-.08q.26-.03.53-.03h.4l.07.03a3 3 0 0 0 .86.12q.1 0 .2-.06.56-.34 1.17-.52.75-.21 1.16-.9m1.75-.74.06.09q.25.62.42 1.27.12.52.05 1.03l-.03.02-.1.07-.09.1a1 1 0 0 0-.06.26q0 .19-.04.37a.4.4 0 0 1-.1.24l-.29.2a17 17 0 0 0-1.04.67q-.98.55-1.91 1.15-.7.44-1.47.69a1 1 0 0 1-.35-.1l-.34-.14q.45-.18.91-.44.93-.54 1.9-1a4.6 4.6 0 0 0 2.6-3.1v-.16l-.05-.12-.1-.1a1 1 0 0 0-.19-.12 5 5 0 0 0 .09-.78zm1.6 1.77.83.6q.59.44 1.31.48a7 7 0 0 0 2.83-1.57 7.2 7.2 0 0 1 6.42-1.73q2.92.6 5.67 1.85l.5.04q1.02.04 2-.34.75-.29 1.5-.64a7 7 0 0 1 .2 1.01l-.04.39q-.08.16-.18.28l-.28.3-.05.04-.11.06-.07.05a2 2 0 0 1-.56.17l-.23.1a.3.3 0 0 0-.12.1l-.05.02-.25.08h-.53l-.37-.01-.32-.07-.77-.15q-.55-.12-.55-.1-.06 0-.14-.02l-.42-.09-.1-.02q-.1 0-.19-.03-.73-.4-1.55-.53l-1.4-.22-.02-.01h-.07l-.07-.02q-.62-.3-1.3-.31-2.44-.05-4.73 1-2.4 1.1-5.1 1.83l-.18-.01-.17-.02q-.07 0-.15-.04l-.13-.08-.35-.25-.27-.2-.2-.03-.06.01-.07.01a.4.4 0 0 0-.17.1q0 0-.03.02v-.01l-.01-.07-.01-.08.08-.54q.12-.68.04-1.35m-1.27 3.37-.21.25q-.78.51-1.59.96-.7.38-1.5.52l-.1-.05-.08-.02-.08-.03-.09-.02v-.01a73 73 0 0 0 2.51-1.55q.15-.04.28-.12.62-.37 1.17-.85l.07.17.04.05a5 5 0 0 1-.42.7m5.96-35.6q.12-.45.16-.93l.28.5a9 9 0 0 0 1.2 1.65q.3.44.72.75h.22l.02.05a25 25 0 0 1 2.67 7.71q-.2.06-.4.15l-.27.04q-.17.05-.34.14l-.13.03-.23.04h.04l-.17.02-.42.06.01-.01-.07.02a16 16 0 0 0-.28-2.03 60 60 0 0 0-.78-3.35q-.28-1.02-.72-2a50 50 0 0 1-1.1-2.57q-.16-.32-.4-.26m.64 2.97.03.06a22 22 0 0 1 1 2.9q.3 1 .45 2.04l.15 1.03.17 1.26.03.2-.2.12-.9.6-1.7 1.23a.4.4 0 0 0-.12.13.2.2 0 0 1-.09.08l-.06-.02-.08-.03a1 1 0 0 1-.22-.2q-.15-.2-.33-.38l-.72-.74-.2-.18-.05-.04q.11-.3.16-.65.28-1.88.3-3.8l.04-3.72q.66-.43 1.1-1.26.2-.39.35-.78.05.2.15.4v.01l.02.02.08.2zm11.3 19.08-.1-.06-.48-.27a7 7 0 0 1-1.34-1.04h-.02v-.02l-.13-.08-.07-.06q-.3-.25-.66-.42l-.23-.14-1.55-1.27q-.24-.19-.43-.44a21 21 0 0 1-1.32-2.07 11 11 0 0 0-1.28-1.8q.22-.14.4-.32a15 15 0 0 1 1.07-.94q.9.98 2.19 1.5.36.15.57.45 1.08 1.57 1.87 3.15.45.9.75 1.86a18 18 0 0 0 .76 1.97m-6.6-11.46.06-.01q.1.8.16 1.6l-.05.04-.01.03a3 3 0 0 0-.64.6 3.3 3.3 0 0 1-1.87 1.09v-.06l.1-.55q.27-1.05.24-2.12V66l.2-.04h-.04l.07-.01.38-.05.11-.01q.33-.03.64-.14zm-2.83.79q0 .48-.09.95l-.23 1.52v.08a4.1 4.1 0 0 1-2.1-.72l.2-.23.07-.06q.18-.1.35-.21.66-.48 1.28-.98.25-.2.52-.35m-1.42 9.24-.34-.15a3.4 3.4 0 0 1-1.8-1.56l-.01-.23.02-.65q.03-.45.27-.82.33-.48.88-.54.23.1.4.26 1 .87 1.92 1.8.92.92 1.94 1.76a10 10 0 0 1 1.79 1.87 11 11 0 0 0 2.62 2.54 33 33 0 0 1 1.98 1.64l-.24-.12-1.25-.72-.1-.08-.07-.05v.01l-.04-.02q-.52-.4-1.07-.75a83 83 0 0 1-4.42-2.9 6 6 0 0 0-.9-.52zm.33 13.6h.03l.02-.02zM78.7 67.75l-.01-.08v.08"/><path fill="#ca6a40" d="M117.07 67.26q.07-.47.08-.95-.28.14-.52.35l-1.28.98q-.17.11-.34.2l-.07.07-.08.09-.12.14a4 4 0 0 0 2.1.72l-.01-.08zm2.97-1.75h-.05q-.33.14-.66.24-.31.1-.64.14l-.11.02-.45.05h.03q-.1 0-.2.04v.14q.04 1.08-.23 2.12a4 4 0 0 0-.1.6q.24-.02.47-.1.82-.3 1.4-.97a3 3 0 0 1 .64-.61v-.03l.06-.05q-.06-.8-.16-1.6m-4.73-7.55-.03-.06a33 33 0 0 1-.73-1.74l-.01-.02a2 2 0 0 1-.15-.4q-.15.4-.36.8-.43.81-1.09 1.25 0 1.86-.04 3.72a28 28 0 0 1-.3 3.8 4 4 0 0 1-.16.65l.05.04q.1.07.2.18.34.38.72.74.18.18.33.39.09.12.22.2.04 0 .08.02l.06.02a.2.2 0 0 0 .09-.08q.03-.08.11-.13l1.72-1.23a16 16 0 0 1 1.09-.71l-.03-.21-.17-1.26-.15-1.03q-.15-1.04-.45-2.04-.22-.75-.46-1.48-.24-.72-.54-1.42m-.5-3.96q-.06.48-.17.94.25-.06.42.26.05.1.09.2l.17.42q.4.97.83 1.95.44.98.72 2a43 43 0 0 1 .78 3.35 16 16 0 0 1 .28 2.03l.07-.02h.02l.04-.01.35-.04.17-.02h-.04l.36-.07q.16-.08.34-.14l.27-.04q.2-.09.4-.15-.24-1.4-.64-2.78a25 25 0 0 0-2.05-4.98 1 1 0 0 1-.22 0q-.42-.3-.73-.75l-.2-.25a9 9 0 0 1-1.27-1.9m-26.45 2.55q0-.17.04-.32-.7.58-1.44 1.12l-.25.24-.5.61.09.3q.08.12.08.25l.07.1q.06.1.1.22.18 1 .18 2.04 0 1.13-.04 2.27-.05 1.31.06 2.62a12 12 0 0 1 .01 2.34 8 8 0 0 0 1.45 1.57 8 8 0 0 1-.26-1.62 92 92 0 0 1-.1-3.35q0-1.05.08-2.07a133 133 0 0 0 .3-4.23q.03-1.05.13-2.09m.88-1a1 1 0 0 1 .05.38q-.13 1.05-.2 2.1l-.13 2.07-.13 2.09a64 64 0 0 0-.13 3.13 20 20 0 0 0 .38 4.48 33 33 0 0 0 2.06-8.13 16.6 16.6 0 0 0-.69-7.21q-.48.6-1.14 1.03z"/><path fill="#e0a192" d="m126.47 76.92.11.06-.14-.33a18 18 0 0 1-.62-1.64q-.3-.96-.75-1.86A25 25 0 0 0 123.2 70q-.21-.3-.57-.46a6 6 0 0 1-2.19-1.49l-.1.08q-.49.4-.96.86a3 3 0 0 1-.4.33l.11.11a11 11 0 0 1 1.26 1.85q.57 1 1.22 1.9.2.25.43.44.76.64 1.55 1.27.1.08.23.14a3 3 0 0 1 .73.48l.12.08v.02h.03l.05.05.1.08a7 7 0 0 0 1.66 1.18M83.72 69.6l-.02-.02h-.01q.78.66 1.59 1.26.83.6 1.75 1.08.92.45 1.76 1.01a12 12 0 0 1 2.1 1.68q.45.46.95.9.38.33.7.7l-.08-.97q-.03-.41.11-.76l-.08-.09a7 7 0 0 0-1.02-.94l-.08-.08q-.54-.46-1.14-.84a13 13 0 0 1-1.41-1.03q-.84-.64-1.61-1.35-.45-.4-.8-.87-.22.07-.45.06h-.26q-1.02.05-2.01.24zm2.01-10.52q-.3-.26-.4-.71-.04-.16-.1-.28a4 4 0 0 0-1.3-1.59l-.87-.63q-.5-.36-1.03-.65 0 .18.03.34.15 1.07.18 2.16 0 1.05.05 2.12.03 1.02.04 2.07 0 .94-.19 1.87-.08.59-.11 1.17a10 10 0 0 0 .03 1.57l-.01.16a3.3 3.3 0 0 0 .88 2.24l.07-.03q.91-.3 1.9-.35.52-.02 1.03-.06v-.14q.07-1.03 0-2.07-.08-1.11-.06-2.24l.02-1.92q.01-1.08-.1-2.16z"/><path fill="#999" d="m110.77 87.76-.81-.6q.08.67-.04 1.35l-.08.54v.08l.02.07.03-.02q.07-.06.17-.09h.2q.07 0 .13.02.14.08.27.2a4 4 0 0 0 .48.32l.15.04.17.02h.18q2.7-.73 5.1-1.82 2.28-1.05 4.72-1 .7.02 1.31.31l.07.01h.06l.02.02 1.4.22q.83.13 1.56.53l.19.03.1.02.56.12q0-.04.55.1a10 10 0 0 0 1.46.22h.53q.15-.03.25-.08l.05-.01a.3.3 0 0 1 .12-.11l.23-.1a2 2 0 0 0 .56-.17l.07-.05.1-.06.06-.04.28-.3q.1-.13.18-.28.01 0 .02-.13l.03-.36-.1-.44-.12-.47q-.75.35-1.49.64a5 5 0 0 1-2.5.3 27 27 0 0 0-5.67-1.85 7.19 7.19 0 0 0-6.42 1.73 7 7 0 0 1-2.83 1.57 2.4 2.4 0 0 1-1.32-.48m-13.8-1.35q.16 1.12.18 2.28l1.09-.52q.54-.26 1.09-.51.16-.09.34-.1.48-.34.97-.6.39-.2.79-.32l.24-.04q.47-.2.98-.19a4 4 0 0 1 1.1.17l.12.01q.22-.17.51-.26a14 14 0 0 0 1.03-.37 2 2 0 0 0 .3-.35l-.15-.07q-.6-.29-1.16-.64a1 1 0 0 1-.25-.22 5 5 0 0 0-1.35-.28 8 8 0 0 0-2.28.13h-.02a2 2 0 0 1-.58.15q-.9.4-1.68 1-.59.46-1.28.73M75.16 89l-.09-.03h-.07l-.07.02-.07.02-.05.02-.04.04-.2.17-.38.3q-.28.15-.17.62.09.33.24.61.1.15.18.31h.08l.16.01h.16l.2-.03.26-.1q.2-.36.2-.78a4 4 0 0 0-.15-1.04l-.06-.06zm1.61-.46-.62-.03.12.17q.38 1.1.12 2.24l-.02.09q.24-.02.49-.01 2.7.06 5.4.05a14 14 0 0 0 3.53-.41l.1-.1q.42-.37.52-.9l.05-.24-.06-.22-.17-.4a2 2 0 0 0-.53-.41l-.08.01-.25.02q-.16 0-.28.03h-.02q-1.96.2-4.3.15-2-.04-4-.04"/><path fill="#333" d="m88.95 78.9-.27-.09a5 5 0 0 1-.79.12q.45.16.9.37a6.8 6.8 0 0 1 3 2.63 18 18 0 0 1 2.55 7.05q.12.82.07 1.66a6.5 6.5 0 0 1-1.36 3.6 29 29 0 0 1-4.11 4.32q-.21.17-.86.43l-.6.2q1.8.4 3.71.25.22-.01.42-.08l.6-.36a13 13 0 0 0 3.56-7q.68-4.1-.45-8.07a7 7 0 0 0-4.39-4.81l-.33-.03q-.15 0-.3-.06l-.26-.07-.54-.01a2 2 0 0 1-.55-.06m-6.15 2.6-.12-.02-.06-.01-.12-.08-.09-.1-.1-.17v-.26l.03-.06q.17-.28.36-.53-.26.15-.5.34a8 8 0 0 0-1.95 2.26l-1.12 4q-.08.26-.21.5l-.11.12-.04.04h.83l4.47-.01h.5l.37-.1q.14 0 .29-.03l.05-.07.12-.05.15-.05h.07q.08 0 .14.04l.1-.02h.07q.08 0 .14.04l.12.06.1.09.02.05.03.06q.82.53 1 1.64a2.3 2.3 0 0 1-.65 2.02l-.7.74a.52.52 0 0 1-.45.05l-.08-.04-.14-.13-.06-.11q-2.23.44-4.54.35h-1.19l.04.05.02.06q.1 1.4.97 2.51.9 1.19 1.95 2.25l.64.68.14.08.11-.06.12-.05h.13l.06.01q.04 0 .07.03l.06.02q.45.3.91.55.7.15 1.43.15a4.2 4.2 0 0 0 3.1-1.32q.16-.18.34-.33a5 5 0 0 1 1.02-1.17q.98-1.06 1.81-2.22.87-1.19.87-2.82 0-.42.12-.82.05-.74-.12-1.45-.16-.7-.43-1.4-.14-.36-.26-.74a2 2 0 0 1-.22-.5l-.24-.82-.3-.45a3 3 0 0 1-.33-.8l-.82-1.21q-.44-.68-1.01-1.23l-.42-.46a5 5 0 0 0-2.24-.92 9 9 0 0 0-2.15-.08q-.8.37-1.3 1.16-.23.37-.54.67l-.13.04z"/><path fill="#d9d9d9" d="m111.14 73.58-.15-.03a.4.4 0 0 1-.32.02l-.06.14-.05.11-.24.14a.3.3 0 0 1-.2 0l-.09-.01q.03 1.65 0 3.32-.04 1.25-.13 2.52-.01.12-.05.24l-.1.17v.05l.01.04.01.04q.39 1.25.46 2.6.06 1.2.09 2.42 0 .8-.4 1.47l-.1.07a1 1 0 0 1-.25.08 1 1 0 0 1-.3-.1l-.06-.05-.06-.06-.06-.05-.28-.14a3 3 0 0 1-.45-.29l-.13-.06.17.26.12.17h.03l.1.05.06.03q.16.18.27.4a3 3 0 0 1 .22.6q.27.5.44 1.01h.22l.07.03q.42.29.8.61.4.33.84.6l.17.08.07.02.25.05.13-.02.32-.08a18 18 0 0 1 5.22-3.03q.32-.11.65-.16 2.3-.33 4.45.19a70 70 0 0 0-6.16-4.63 17 17 0 0 1-4.37-4.27 5 5 0 0 1-.82-1.94q-.26-1.32-.32-2.61z"/><path fill="#fff" d="M14 61.33a8 8 0 0 1 8-8h9a8 8 0 0 1 8 8v9a8 8 0 0 1-8 8h-9a8 8 0 0 1-8-8z"/><path fill="#000" d="m23.13 53.55-.2.98zm2.25.27.03 1zm.75-.02.03 1zm.75-.23.5.87zm.75-.43-.5-.87zm2.62-.04-.29.96zm.38.11.28-.96zm1.44.46.31-.95zm2.32.03-.8.59zm.25.35-.8.59zm.26.35.8-.58zm.56.54.52-.85zm.32.2-.51.85zm1 .57-.47.88zm.36.2.47-.89zm.37.19-.47.88zm.47.58-.96.27zm.12.38.96-.28zm.25 1.16 1-.07zm.05.77-1 .07zm.06.74 1-.08zm.05.71-1 .07zm.03.72 1-.02zm.02.74-1 .03zm.21.74.89-.46zm.39.75-.89.46zm.12.75.98.2zm-.08.38-.98-.2zm-.07.37.98.2zm.05.75-.95.33zm.25.75.95-.32zm-.13.75.82.58zm-.27.38-.81-.58zm-.28 2.63.92-.37zm.3.76-.92.38zm0 .74-.91-.4zm-.16.35.92.4zm-.15.36-.92-.4zm-.36.67.84.53zm-.2.3-.84-.53zm-.2.32-.84-.54zm-.4.61-.83-.55zm-.4.6-.83-.55zm-.43.58-.77-.65zm-.47.56-.76-.65zm-.44.65.89.47zm-.2.39-.88-.47zm-.2.38.89.46zm-.98.55-.22-.97zm-.4.09.22.98zm-.79.03-.14.99zm-.79-.11.14-1zm-.76.11-.43-.9zm-.72.35.43.9zm-.74-.05-.5.87zm-.75-.43.5-.86zm-.75-.14.18.98zm-.38.07.19.98zm-.37.07-.18-.99zm-.75.09.06 1zm-.75.04-.06-1zm-.75-.06.22-.97zm-.75-.17-.22.97zm-.75.12-.48-.87zm-.38.2.49.88zm-.37.22.48.87zm-.75.16-.1 1zm-.38-.04-.1 1zm-.38-.04.1-.99zm-.76-.02.04 1zm-.79.03.04 1zm-.77-.1-.3.96zm-.38-.11-.3.95zm-.37-.12.29-.95zm-.6-.48.85-.52zm-.23-.37.85-.52zm-.22-.37-.86.53zm-.54-.55.52-.86zm-.31-.2-.52.86zm-.32-.18.52-.86zm-.67-.4-.48.89zm-1.16-.98.99-.19zm-.15-.8-.98.2zm-.28-.73-.85.53zm-.42-.67.85-.52zm.03-1.12.96.29zm.12-.39-.96-.29zm-.1-.77.88-.48zm-.41-.74.87-.5zm0-.75-.86-.5zm.44-.75-.87-.5zm.03-.75.9-.43zm-.36-.75-.9.43zm-.08-5.24-.9-.45zm.19-.37.9.45zm.9-2.49.89.46zm.57-1.4.99.18zm.15-.83-.98-.18zm1.12-1.04-.5-.86zm.68-.4-.51-.86zm1.34-.72-.37-.93zm1.46-.33-.24.97zm.78.19-.24.97zm.57-.2.85.54zm.36-.56-.84-.54zm.55.39-.19.98zm.38.07-.2.98.38.07.2-.98.19-.98-.38-.07zm.38.07-.2.98q.4.09.8.14l.14-1 .14-.98-.7-.12zm.75.13-.14.99.37.05.14-.99.14-1-.38-.04zm.37.05-.14.99.38.05.14-.99.13-.99-.37-.05zm.38.05-.14 1q.45.05.92.04l-.04-1-.03-1q-.28 0-.58-.03zm.75.04.03 1 .37-.01-.03-1-.03-1-.38.01zm.37-.01.03 1 .38-.01-.04-1-.03-1-.37.01zm.38-.01.03 1q.65-.04 1.21-.36l-.5-.87-.5-.87a1 1 0 0 1-.28.1zm.75-.23.5.87.37-.22-.5-.86-.5-.87-.37.21zm.37-.21.5.86.37-.21-.5-.87-.5-.87-.37.22zm.38-.22.5.87a1 1 0 0 1 .28-.1l-.04-1-.03-1a2.6 2.6 0 0 0-1.21.36zm.75-.23.03 1 .37-.01-.03-1-.03-1-.38.01zm.37-.01.03 1 .38-.01-.04-1-.03-1-.37.01zm.38-.01.03 1q.2 0 .43.06l.29-.96.28-.96q-.52-.15-1.07-.14zm.75.1-.3.96.38.1.29-.95.29-.96-.38-.11zm.37.1-.29.97.38.1.29-.95.28-.96-.37-.1zm.38.12-.3.96.72.22.3-.95.32-.95-.76-.24zm.73.23-.31.95.36.12.3-.95.32-.95-.36-.12zm.36.12-.31.95.35.11.31-.95.31-.95-.35-.11zm.35.11-.3.95q.67.21 1.34.03l-.25-.97-.25-.97q-.19.04-.23.01zm.79.01.25.97.42-.11-.24-.97-.25-.97-.43.11zm.43-.1.24.96.43-.1-.25-.98-.24-.97-.43.11zm.42-.12.25.97s-.08.02-.2-.02a.4.4 0 0 1-.18-.12l.81-.59.82-.58a1.6 1.6 0 0 0-.78-.6q-.52-.15-.96-.03zm.68.24-.8.59.24.35.81-.59.82-.58-.25-.35zm.25.35-.8.59.24.35.82-.59.8-.58-.24-.35zm.26.35-.82.59q.35.49.87.81l.51-.86.52-.85a1 1 0 0 1-.27-.27zm.56.54-.51.86.32.2.51-.86.52-.86-.32-.2zm.32.2-.51.85.31.2.52-.86.52-.86-.32-.19zm.32.19-.52.85q.34.21.73.41l.47-.88.47-.88-.63-.36zm.68.38-.47.88.37.2.46-.89.47-.88-.36-.2zm.36.2-.46.88.36.19.47-.88.46-.89-.36-.19zm.37.19-.47.88-.02-.03.96-.27.96-.28q-.24-.8-.97-1.19zm.47.58-.96.27.11.4.97-.29.96-.28-.12-.38zm.12.38-.97.28.12.39.96-.28.96-.28-.11-.39zm.1.39-.95.28q.08.3.1.56l1-.07 1-.07a5 5 0 0 0-.18-.98zm.15.77-1 .07.03.38 1-.07 1-.07-.03-.38zm.03.38-1 .07.03.39 1-.07.99-.08-.03-.38zm.02.39-1 .07.06.74 1-.07 1-.08-.06-.74zm.06.74-1 .07.02.36 1-.08 1-.07-.03-.36zm.02.35-1 .08.03.35 1-.07 1-.07-.03-.36zm.03.36-1 .07q.03.34.03.68l1-.03 1-.02q0-.4-.03-.77zm.03.72-1 .03.01.37 1-.03 1-.03v-.36zm.01.37-1 .03.01.37 1-.03 1-.03v-.37zm.01.37-1 .03q.03.61.32 1.17l.89-.46.89-.46a1 1 0 0 1-.1-.3zm.21.74-.89.46.2.38.88-.46.9-.46-.2-.38zm.2.38-.9.46.2.37.89-.46.89-.46-.2-.37zm.19.37-.89.46.03.07v.02l.98.2.98.2q.13-.76-.21-1.41zm.12.75-.98-.2-.08.38.98.2.98.2.08-.38zm-.08.38-.98-.2-.07.37.98.2.98.2.07-.37zm-.07.37-.98-.2q-.14.65.08 1.28l.95-.33.94-.32a.4.4 0 0 1-.01-.23zm.05.75-.95.33.13.37.95-.32.94-.33-.13-.37zm.13.38-.95.32.13.38.94-.33.95-.32-.13-.38zm.12.37-.94.33-.01-.06v-.07q.02-.08 0-.03l.82.58.82.58a1.8 1.8 0 0 0 .26-1.65zm-.13.75-.82-.58-.26.38.81.58.82.57.27-.37zm-.27.38-.81-.58-.27.37.82.58.82.58.26-.38zm-.26.37-.82-.58c-.28.4-.45.87-.42 1.39l1-.06 1-.06q0-.03.06-.11zm-.24.75-1 .06.02.38 1-.06 1-.06-.03-.38zm.02.38-1 .06.02.37 1-.06 1-.06-.02-.37zm.02.37-1 .06q.03.56.25 1.07l.93-.37.92-.37a1 1 0 0 1-.1-.45zm.18.76-.93.37.15.38.93-.37.93-.37-.16-.38zm.15.38-.93.37.16.39.92-.38.93-.37-.15-.38zm.15.38-.92.38v.01-.05l.92.4.92.4q.31-.76.01-1.51zm0 .74-.91-.4-.16.35.91.4.92.4.16-.35zm-.16.35-.91-.4-.16.35.92.4.91.41.16-.35zm-.15.36-.92-.4q-.12.28-.28.53l.84.54.84.53q.24-.38.43-.8zm-.36.67-.84-.54-.2.31.84.54.84.54.2-.32zm-.2.3-.84-.53-.2.31.84.54.85.54.2-.31zm-.2.32-.84-.54-.39.6.83.55.83.56.42-.63zm-.4.61-.83-.55-.2.3.83.55.83.56.2-.3zm-.2.3-.83-.55-.2.3.83.55.83.56.2-.3zm-.2.3-.83-.55-.37.48.77.65.76.65q.27-.33.5-.67zm-.43.58-.77-.65-.23.28.76.65.77.64.23-.27zm-.24.28-.76-.65-.23.28.76.65.76.64.24-.28zm-.23.28-.76-.65q-.33.38-.56.84l.88.46.89.47q.16-.3.31-.48zm-.44.65-.88-.46-.2.38.88.47.89.46.2-.38zm-.2.39-.88-.47-.2.38.88.47.89.46.2-.38zm-.2.38-.88-.47.01-.01.06-.03.22.98.21.97c.58-.12 1-.48 1.27-.98zm-.6.47-.2-.98-.4.09.22.97.21.98.4-.09zm-.38.08-.22-.97-.4.08.22.98.22.98.4-.1zm-.4.09-.21-.98a1 1 0 0 1-.44.02l-.14.99-.14.99q.58.08 1.15-.04zm-.79.03.14-.99-.4-.06-.13 1-.15.98.4.06zm-.4-.06.15-.99-.4-.05-.14.99-.14.99.4.05zm-.39-.05.14-1a2.3 2.3 0 0 0-1.33.2l.43.91.43.9a.3.3 0 0 1 .19-.02zm-.76.11-.43-.9-.36.17.43.9.43.9.36-.17zm-.36.17-.43-.9-.36.17.43.9.43.91.36-.17zm-.36.18-.43-.9q.02-.02.12-.03.09.01.07.02l-.5.86-.5.87c.5.3 1.1.35 1.67.08zm-.74-.05.5-.86-.38-.22-.5.87-.5.86.38.22zm-.38-.21.5-.87-.37-.21-.5.86-.5.87.38.21zm-.37-.22.5-.86a2 2 0 0 0-1.43-.27l.18.99.18.98q0 0 .07.03zm-.75-.14-.18-.99-.38.07.18.99.19.98.37-.07zm-.38.07-.18-.99-.37.07.18.99.18.98.38-.07zm-.37.07-.18-.99-.63.08.06 1 .06 1q.44-.03.87-.11zm-.75.09-.06-1-.38.02.06 1 .06 1 .38-.02zm-.38.02-.06-1-.37.02.06 1 .06 1 .37-.02zm-.37.02-.06-1q-.23.02-.47-.03l-.22.97-.22.98q.5.1 1.03.08zm-.75-.06.22-.97-.37-.09-.23.97-.22.98.38.09zm-.38-.09.23-.97-.38-.09-.22.98-.22.97.37.09zm-.37-.08.22-.98a2 2 0 0 0-1.45.23l.48.87.48.88.05-.02zm-.75.12-.48-.87-.38.2.48.88.49.87.37-.2zm-.38.2-.48-.87-.37.21.48.88.48.87.38-.2zm-.37.22-.48-.88q-.14.06-.17.05l-.1 1-.1.99q.72.06 1.33-.29zm-.75.16.1-1-.38-.03-.1 1-.1.99.37.04zm-.38-.04.1-1-.37-.03-.1 1-.1.99.37.04zm-.38-.04.1-.99q-.45-.05-.9-.03l.04 1 .04 1q.32 0 .62.02zm-.76-.02-.05-1-.39.02.04 1 .04 1 .4-.02zm-.4.02-.04-1-.4.02.05 1 .04 1 .4-.02zm-.39.01-.04-1q-.23.02-.44-.05l-.29.95-.3.96q.55.17 1.11.14zm-.77-.1.3-.95-.38-.12-.3.96-.3.95.39.12zm-.38-.11.3-.96-.38-.11-.3.95-.29.96.38.11zm-.37-.12.29-.95-.04-.05-.86.52-.85.52q.4.66 1.16.92zm-.6-.48.85-.52-.23-.37-.85.52-.85.52.22.37zm-.23-.37.85-.52-.22-.37-.85.52-.86.53.23.36zm-.22-.37.85-.52q-.32-.53-.87-.89l-.52.86-.52.85q.08.04.2.23zm-.54-.55.52-.86-.31-.19-.52.86-.52.85.31.2zm-.31-.2.52-.85-.32-.19-.52.86-.52.85.32.2zm-.32-.18.52-.86-.7-.4-.49.87-.48.88.63.36zm-.67-.4.48-.87-.36-.2-.48.88-.48.88.36.2zm-.36-.19.48-.87-.36-.2-.48.87-.48.88.36.2zm-.36-.2.48-.87.04.03.02.04v.02l-.98.19-.98.18c.1.57.44 1.02.94 1.29zm-.44-.6.99-.18-.08-.4-.98.2-.99.18.08.4zm-.07-.39.98-.19-.08-.4-.98.2-.98.18.07.4zm-.08-.4.98-.18a3 3 0 0 0-.41-1.07l-.85.52-.85.53q.1.18.15.4zm-.28-.73.85-.52-.21-.34-.85.53-.85.53.2.33zm-.21-.33.85-.53-.2-.33-.86.52-.85.53.21.34zm-.2-.34.84-.52v.01l.02.04v.03l-.96-.28-.96-.3q-.24.81.2 1.55zm-.1-.72.96.28.12-.39-.96-.29-.96-.28-.12.39zm.12-.4.96.29.11-.4-.95-.28-.96-.29-.12.4zm.12-.39.95.29q.24-.82-.17-1.54l-.87.48-.88.5.01.01v-.03zm-.1-.77.88-.48-.21-.38-.87.49-.88.49.21.37zm-.2-.37.87-.49-.21-.37-.87.49-.87.49.2.37zm-.21-.37.87-.5q.02.02.02.13v.09l-.02.03-.87-.5-.86-.5a1.7 1.7 0 0 0-.01 1.74zm0-.75.87.5.22-.38-.87-.5-.87-.5-.21.38zm.22-.38.87.5.21-.37-.86-.5-.87-.5-.22.37zm.22-.37.86.5c.3-.52.34-1.12.07-1.68l-.9.43-.9.43-.02-.1q.02-.1.02-.08zm.03-.75.9-.43-.18-.38-.9.43-.9.44.18.37zm-.18-.38.9-.43-.18-.37-.9.43-.9.43.18.38zm-.18-.37.9-.43-.01-.04-.96-.28-.96-.28q-.21.76.13 1.46zm-.07-.75.96.28.1-.38-.95-.28-.96-.27-.11.37zm.1-.38.97.28.1-.37-.95-.28-.96-.28-.11.38zm.12-.37.96.28q.12-.41.2-.83l-.98-.2-.98-.2q-.06.33-.16.67zm.18-.75.98.2.08-.38-.98-.2-.98-.2-.08.38zm.08-.38.98.2.07-.37-.98-.2-.98-.2-.07.37zm.07-.37.98.2q.13-.77-.23-1.43l-.88.48-.87.48.02.06zm-.13-.75.88-.48-.2-.38-.88.48-.88.48.2.38zm-.2-.38.88-.48-.2-.37-.89.48-.87.48.2.37zm-.2-.37.87-.48.02.08q-.01.1-.02.1l-.9-.44-.9-.45c-.27.55-.24 1.14.05 1.67zm-.03-.74.9.44.18-.36-.9-.45-.89-.45-.18.37zm.19-.37.9.45.18-.37-.9-.45-.9-.45-.18.37zm.18-.37.9.45q.23-.45.35-.93l-.97-.24-.97-.25q-.05.24-.2.52zm.28-.72.97.24.09-.35-.97-.25-.97-.25-.1.36zm.09-.36.97.25.09-.36-.97-.24-.97-.25-.1.35zm.09-.35.97.24q.06-.24.18-.47l-.9-.46-.88-.45q-.22.42-.34.89zm.26-.69.89.46.16-.33-.89-.45-.89-.46-.16.33zm.16-.32.9.45.16-.32-.89-.46-.89-.46-.17.33zm.17-.33.89.46q.24-.48.34-1.03l-.99-.18-.98-.17q-.06.3-.15.46zm.24-.75.99.18.07-.42-.98-.18-.99-.17-.07.42zm.08-.42.98.18.08-.42-.99-.17-.98-.18-.08.42zm.07-.41.99.17-.01.02-.04.04-.51-.86-.51-.86q-.75.47-.9 1.3zm.43-.63.5.86.35-.2-.5-.86-.51-.86-.35.2zm.34-.2.51.86.35-.2-.51-.87-.5-.86-.35.2zm.35-.2.5.86.69-.4-.51-.87-.51-.86-.68.4zm.68-.4.5.86.34-.2-.51-.86-.51-.86-.33.2zm.33-.2.5.86.34-.2-.51-.86-.51-.86-.33.2zm.33-.2.5.86q.27-.15.55-.26l-.37-.93-.37-.93q-.42.17-.82.4zm.68-.33.37.93.36-.15-.37-.92-.37-.93-.36.14zm.36-.14.37.92.35-.14-.37-.93-.37-.92-.35.14zm.35-.15.37.93q.05-.02.14 0l.24-.97.23-.97a2.2 2.2 0 0 0-1.35.09zm.75-.04-.24.97.4.1.23-.98.23-.97-.39-.1zm.39.1-.24.96.4.1.23-.97.23-.98-.39-.09zm.39.09-.24.97q.4.11.9-.02.5-.2.76-.6l-.85-.54-.84-.54a.6.6 0 0 1 .3-.22c.13-.05.21-.02.2-.03zm.57-.2.85.54.18-.28-.85-.54-.84-.53-.18.28zm.18-.28.85.54.18-.29-.85-.53-.84-.54-.18.29zm.18-.28.85.53.02-.04q0 0-.03.04l-.1.1a.98.98 0 0 1-1.53-.56l-.03-.2h2q0-.09-.03-.27a1.01 1.01 0 0 0-1.61-.58q-.2.16-.25.26-.08.09-.13.18zm.18-.14h-1v.15h2v-.15zm0 .15h-1v.15h2v-.15zm0 .15h-1c0 .55.37.87.58 1 .21.12.44.18.6.2l.2-.97.19-.98c-.09-.02-.05-.02.03.02q.09.04.24.22.16.21.16.51zm.38.23-.2.98.38.07.19-.98.2-.98-.38-.07z"/></g><rect width="131.5" height="97.5" x="1.25" y="1.25" stroke="#000" stroke-width="2.5" rx="13.75"/><defs><clipPath id="a"><rect width="134" height="100" fill="#fff" rx="15"/></clipPath></defs></svg>