<svg xmlns="http://www.w3.org/2000/svg" width="134" height="100" fill="none" viewBox="0 0 134 100"><g clip-path="url(#a)"><rect width="134" height="100" fill="#eee" rx="15"/><path fill="#000" d="m136.5 33.93-.03-.07-.04-.06-.1-.1-.12-.08-.15-.03h-.15l-.14.03-.12.09-.1.1-.07.08-.22-.04a4.6 4.6 0 0 0-2.71.25 35 35 0 0 0-3.44 1.44q-1.11.5-2.16 1.1a172 172 0 0 0-3.85 2.3q-1.03.66-1.98 1.42l-2.01 1.6-.16.12h-.02l-.3.25q-.82.63-1.44 1.43l-1.37 1.75-.08.1-1.16 1.6a22 22 0 0 0-1.19 1.78l-.05.08-.17.2q-.15.02-.3.09-.43 0-.84.09-.66.15-1.28.2-.64.05-1.25.18-.9.19-1.77.44-1.18.32-2.32.79-1.11.45-2.19 1.03-1.08.57-2.14 1.2-1.06.62-1.99 1.43t-1.76 1.7a8 8 0 0 0-1.38 2q-.5 1-.89 2.07l-.13-.16a74 74 0 0 1-1.52-2.22q-.35-.45-.6-.97l-.46-1 .02.05a49 49 0 0 0-1.94-3.6 29 29 0 0 1-1.32-2.5 16 16 0 0 1-1.48-5.94q-.16-1.26-.51-2.5-.3-1.12-.43-2.25-.14-1.23-.25-2.48a15 15 0 0 1-.01-2.36q.06-1 .2-2.01a4.67 4.67 0 0 0 3.43-1.51q.38-.35.73-.71a10 10 0 0 0 1.42-1.84l.54.4q.48.32 1.05.44.42.06.84-.02a6 6 0 0 0 2.28-.96q.25-.17.55-.25 1.2-.34 2.07-1.21.66-.65.73-1.56a7 7 0 0 0-.03-1.01v-.01q.33-.21.64-.46.34-.27.57-.66.6-1.1.3-2.34l-.17-.68-.1-.22a6 6 0 0 0 1.51-1.67q.17-.3.12-.61.4 0 .77-.03.63-.05 1.12-.45a3.1 3.1 0 0 0 1.21-2.33 2.1 2.1 0 0 0-.94-2l-.15-.1-.01-.01-.84-.66q-.4-.3-.8-.64l-.13-.1-.19-.16-.76-.65v-.02l-.13-.37a1 1 0 0 0-.14-.26l-.16-.21q-.09-.31-.27-.58a4 4 0 0 0-.73-.78q-.4-.3-.86-.43l-.29-.17q-.36-.18-.76-.3l-.8-.23q-.68-.3-1.4-.46-1.53-.37-2.91-1.08a5.6 5.6 0 0 0-3.51-.58q-.83.14-1.46.67a29 29 0 0 0-3.67 3.72q-2.4 2.94-4.43 6.13l.04-.05a22 22 0 0 1-.85 1.12 17 17 0 0 0-2.55 4.19 126 126 0 0 0-2.01 5.07l-.8 1.95a10 10 0 0 0-.56 1.91q-.18.27-.28.56-.28.78-.53 1.55-.12.37-.19.74-.64 1.98-1.47 3.88-.8 1.83-1.4 3.73a99 99 0 0 0-2.02 7.57A81 81 0 0 0 67 54.75a56.47 56.47 0 0 0-.94 8.58q-.13 3.77.03 7.52.08 2.1.58 4.15l1.8 7.25q.23.94.3 1.9.25 3.82 2.4 7a5.8 5.8 0 0 0 3.44 2.52q1.63.42 3.33.54 3.7.29 7.42.4.45.05.88.04 1.5-.03 2.99-.2 1.27-.15 2.55-.35 3.52-.34 7-1.84 1.97-.83 4.34-1.33a33 33 0 0 0 5.99-1.83l.06.02.17.04.17-.05 1.25-.61a16 16 0 0 1 1.65-.73l-.04.01.04-.01.36-.17q1-.51 2.17-1.16l2.5-1.38q2.98-1.4 5.86-2.97 3.32-1.8 6.25-4.19a32 32 0 0 0 4.94-4.98h.06l.07-.03.13-.08.11-.1.03-.05q1.52-3.5 1.94-7.32.43-3.7.48-7.44.06-3.8.17-7.56.11-3.66.43-7.29a19 19 0 0 0-.92-7.84q0-.27-.14-.51l-.3-.52v-.04l-.01-.07zm-24.4 52.74h.03l-.05.02zM99.12 16.72l.17-.01a3.2 3.2 0 0 1-1.47 1.12q-.5.16-1.03.28l.36-.91q.1-.08.22-.13l.12-.05q.31-.15.67-.2.48-.07.96-.1m-2.53 2.55a1 1 0 0 0 .49-.05q.27-.12.56-.16.57-.09 1.08-.36a4 4 0 0 0 1.65-1.6l.19.1q.58.23 1.18.35.06.16.23.33a5 5 0 0 1-1.6 1.44q-.43.23-.85.5-.88.55-1.8 1.02-.3.15-.6.14-.75-.04-1.48 0 .3-.54.5-1.13.15-.34.26-.7.09.07.19.12m-1.66 2.85.01.02q.2.02.41.01l.47-.01q.45 0 .91-.06 1.12.14 2.08-.52a12 12 0 0 1 1.74-1.02q.21.75.17 1.52-.08.45-.4.75-.9.84-2.08 1.22-.6.2-1.14.5-1.11.6-2.37.48a6 6 0 0 1-1.81-.47 16 16 0 0 0 2-2.42m-3.6 3.86.22-.21.43-.35q.1.06.23.1 1.13.48 2.34.6a3.5 3.5 0 0 0 1.98-.2 38 38 0 0 1 2.6-1v.18q.03.76-.61 1.24-.6.44-1.33.65a2 2 0 0 0-.49.23q-1.02.69-2.21.97h.01-.03l-.14.03a1 1 0 0 1-.66-.13 8 8 0 0 1-1.97-1.56q-.16-.3-.37-.55m-16.6 5.2.06-.16q0 2.89-.65 5.72-.66 2.95-1.18 5.93-.5 2.94-1.36 5.8-.87 2.87-1.63 5.78a48 48 0 0 1-1.87 5.72q-.44 1.12-.84 2.23l.02-.21q.32-3.51.83-7.01l.01-.04q.4-2.8.95-5.56a67 67 0 0 1 2-7.57q.3-.98.7-1.94 1.13-2.85 2.02-5.78l.06-.02.07-.04q.03 0 .06-.04l.05-.05.09-.1.03-.07q.16-1.32.59-2.6m25.26-22.1a3 3 0 0 0 .53.4q.13.1.23.2a4 4 0 0 0-1.31-.2q-1.17.02-2.35.13-1.35.12-2.7.38a7 7 0 0 0-3.28 1.58q-1 .85-2.08 1.6-.14.1-.3.16-.62.26-1.16.68-.37.29-.48.72-.08.29.16.46.54.42.9-.17l.09-.08a1 1 0 0 1 .23-.16q.54-.26 1.05-.58 1.03-.67 1.96-1.47.74-.64 1.59-1.11.62-.36 1.34-.5 1.27-.24 2.55-.4l.18-.02h-.02.05l1.68-.1q.64-.07 1.26.08 1.09.27 1.86 1 .45.37.88.76a12 12 0 0 0 1.57 1.2l-.02-.02.05.04.17.12q.3.2.4.52.1.31.09.64a2.5 2.5 0 0 1-.52 1.16 1 1 0 0 1-.31.23q-.7.29-1.49.25a4 4 0 0 1-1.64-.4q.14-.13.23-.33a.4.4 0 0 0-.04-.38q-.37-.56-.96-.14l-.54.13a5 5 0 0 1-1.47.18 3 3 0 0 0-1.25.32q-.3.12-.58.3a1 1 0 0 0-.27.27q-.5.9-.8 1.89a9 9 0 0 1-.96 2.21 17 17 0 0 1-3.56 4.16q-.18.15-.28.29l-.2.13q-.99.72-1.93 1.52l-.5.4q-.59.4-.19.97.1.1.26.14.15.03.3-.04.61-.36 1.16-.83.4-.34.82-.66.16.32.51.57l.04.04q.14.26.38.47a15 15 0 0 1-1.25 1.66 5.8 5.8 0 0 1-3.6 2.02l-.02-.02-.04-.04a4 4 0 0 0-.55-.32l-.06-.05-.05-.03-.06-.04a1 1 0 0 0-.2-.03h-.16l-.14-.01h-.03a8 8 0 0 0-2.61-.21q-1.59.14-3.12-.2-1.98-.44-3.93-.93l-.05-.05-.06-.05-.05-.04-.02-.02A48 48 0 0 1 76.67 26l.16-.4q.37-1.08.82-2.1.37-.85.67-1.72a75 75 0 0 1 1.06-2.2q.34-.68.83-1.28.3-.4.62-.78a28 28 0 0 0 2.11-2.9 26 26 0 0 1 2.1-2.87l.44-.55 2-2.53q.99-1.25 2.23-2.2 1.32-.68 2.63-.14.84.35 1.68.63 1.75.6 3.52 1.14.27.17.57.25.55.14 1.06.38.4.18.8.34m-5.8 63.1-.03.07q.12 2.08-.38 4.15-.68 2.8-1.22 5.7a34 34 0 0 1-2.2 7.3 36 36 0 0 1-1.95 3.96q-.82.05-1.66.05-3.87.03-7.72-.2.33-1.86.75-3.72.66-2.94 2.6-5.22 1.97-2.31 3.87-4.68a35 35 0 0 0 3.34-5.02l1.68-3.1.05.01h.14l.07-.03.05-.03.07-.04.18-.06q.3-.1.63-.08l.7.06.15.07.16.07.38.33.17.15zM67.2 70.13l.15-.06q.23-.04.45-.03.63.02 1.13.38t.84.9q.03 0 .06.04l.1.05.04.3q.17 1.47.53 2.92.73 2.9 1.81 5.7.53 1.39 1.22 2.72a41 41 0 0 1 2.2 5.13q.88 2.5 1.84 4.89a18 18 0 0 1-3.27-.71 6 6 0 0 1-2.6-2.3 9 9 0 0 1-1.29-3.52 54 54 0 0 0-1.52-7.19q-.65-2.26-1.1-4.57-.45-2.3-.62-4.64zm9.44-39.17-.02.06a66 66 0 0 1-.73 4.05q-.37 1.72-.45 3.49a80 80 0 0 1-1.05 9.59 31 31 0 0 0-.5 4.45q-.05 1.23-.18 2.45-.41.57-.93 1.05-.44.41-.98.64-.16.04-.33.04a4 4 0 0 1-1.1-.17q.49-1.55.9-3.12l1.55-5.72q.8-2.87 1.31-5.8.52-2.87 1.12-5.72.6-2.77.5-5.56zm3.1.63.56.04-.01.14-.07.95a9 9 0 0 1-.15 1.06q-.12.69-.19 1.38-.15 1.38-.1 2.76a13 13 0 0 1-.54 4.24q-.12.87-.19 1.76-.23 3.03-1.34 5.86-.76 1.95-1.48 3.95l-.46.52-.02.06-.02.13v.06l.04.13.03.06.04.06.02.03-.21.63q-.69 2.04-1.53 4 .53-2.88.68-5.8.16-3.03.7-6.03a40 40 0 0 0 .65-5.8q.1-2.91.55-5.78.18-1.09.5-2.15.4-1.31.37-2.62 1.07.27 2.17.36m2.23 22.9q-.05.54-.09 1.1-.3-.45-.54-.96a6 6 0 0 0-1.66-2.15.6.6 0 0 0-.5-.14q-.75.1-1.41.37l.8-2.02q.15.05.31.06l.17.01q1.05-.01 2.08-.12a3 3 0 0 0 1.23-.41zm-.21 2.43.05.03a57 57 0 0 0-.04 3.18 6.28 6.28 0 0 0-2.97-1.87 2 2 0 0 0-1.67.25q-1.1.75-2.2 1.52.56-1.4 1.08-2.8l1.12-2.91q.38-.35.8-.6.51-.33 1.08-.46l.12.06.22.15q.1.08.2.18l.3.53q.36.72.78 1.4.41.69.98 1.27zm-11.72.67q.3.12.6.16a5 5 0 0 0 .83.03 3 3 0 0 0 2.02-.9q-.12.86-.27 1.71a255 255 0 0 0-.98 5.82q0 .03.02.07l.01.06.03.05-.17.73v.07l.06.12.04.06.04.04.1.08.06.03.06.03h.07a.4.4 0 0 0 .2 0l.07-.03q.02 0 .05-.03l.06-.03.04-.05.05-.04.04-.06q.55-1.93 1.24-3.82a73 73 0 0 0 3.22-2.27q.5-.37 1.07-.15a6.2 6.2 0 0 1 3.16 2.6l.05.04a169 169 0 0 1 0 6.37 38 38 0 0 1-1.76 11.41q-.49 1.54-.83 3.12a5.5 5.5 0 0 0-2.29-1.8q-.21-.09-.38.03-.36.27-.63.58-.08-.53-.18-1.07-.43-2.46-.33-4.95l-.03-.06-.03-.07-.13-.14-.05-.04-.06-.03-.06-.02-.07-.01h-.13l-.07.01-.06.02-.06.03-.06.04-.04.04-.08.1-.04.06q-.06.72-.06 1.44.03 2.47.48 4.66.27 1.3.38 2.61-.22-.45-.45-.88a39 39 0 0 1-2.34-5.42q-.5-1.42-.82-2.86a30 30 0 0 1-.78-6.27l-.1-.18-.04-.05-.22-.13-.07-.02-.13.01-.13.03-.06.03a.5.5 0 0 0-.21.24l-.03 1.1q-.42-.35-.97-.54a4 4 0 0 0-1.78-.23 52 52 0 0 1-.05-3.13l.4-1.13q.98-2.77 2-5.53.3-.84.58-1.69m7.1 24.63q.53.34.9.83l.78 1 .13.1-.22 1.37q-.21 1.47.36 2.76l.03.02a39 39 0 0 0-.92 3.73q-.56-1.5-1.05-3.04-.39-1.2-.86-2.37.08-.63.03-1.26-.05-.84-.14-1.69l.02-.06.02-.13v-.07a9 9 0 0 1 .55-1.41q.2.1.38.22m7.81-50.32.08.1.1.09.06.02.06.03.07.01.23-.02q-.15.85-.23 1.74a14 14 0 0 0-.07 2.12l-.06.02-.06.02q-.3.24-.52.58a16 16 0 0 0-1.2 2.26q-.19-2.03-.3-4.05-.04-.75-.04-1.48a4 4 0 0 0-.27-1.62l1.27-.01.27.05q.2.03.4.1zm-3.11-.2-.01.17.02.07.06.13v-.01q.12 1.77.28 3.55a434 434 0 0 1 .45 6.03 41 41 0 0 1-.15 7.21l-.06.02a1 1 0 0 0-.16.11 4 4 0 0 1-.78.6q-.67.18-1.35.16l-1.23-.01a20 20 0 0 0 .72-3.28q.37-2.77.89-5.42.14-.71.14-1.42.03-2.85.4-5.7v.01l.23-1.53q.05-.36.05-.7zm2.58 7.43q.4-.95.95-1.8l.11 1.4q.1 1.32.41 2.59l.33 1.56a62 62 0 0 1 .46 2.53l.04.3.14 1.07q.09.64.25 1.24l-.5 1.12q-.3.64-.81 1.14h-.19q-.23-.01-.45-.05a1 1 0 0 0-.4-.01 1 1 0 0 0-.2.08l-.2.1-.31.08h-.01l-.04-.01-.07-.04a.3.3 0 0 1-.12-.18 12 12 0 0 1-.3-1.44q.1-1.12.17-2.25.16-2.55-.03-5.12l.06-.2q.27-1.1.71-2.11m3.12 10.46.06-.14.2.48q.47 1.1 1.04 2.1l1.2 2.19-.08.32-.18.75v.08l.01.07.02.08.03.06.07.1q-.2.7-.3 1.44-.23 1.74-.8 3.42a34 34 0 0 1-3.94 8.01 10.5 10.5 0 0 0-1.62 4.13q-.09.6-.3 1.15-.75 1.95.24 3.59l.06.03.07.01.07.02h.06q.78-.15 1.36-.74 1.31-1.3 2.47-2.74 1.21-1.5 1.98-3.3l.32-.34q.36-.4.76-.74a2 2 0 0 1 .85-.42l.08.05.02.01q-1.34 2.55-2.74 5.03-1.47 2.62-3.37 4.97l-3.77 4.62a12 12 0 0 0-1.64 2.57q.17-3.12 1.09-6.11.69-2.3 1.23-4.6.69-2.99.7-6.05 0-2.04.05-4.1.04-2.3-.08-4.6a39 39 0 0 1 .08-5.15q.17-2.32.4-4.66.21.17.5.28.14.04.32.04.26-.02.5-.1.27-.11.52-.16h.05l.16.03q.22.03.43.03t.42-.05q.24-.1.42-.28.6-.61.98-1.37m43.14-13.55.19-.09q1.06-.48 2.17-.83.45-.15.91-.18.75-.07 1.53.08l.27.02.11.19q.98 3.1.93 6.34-.02 1.88-.11 3.74l-.37 7.48q-.19 3.75-.24 7.5a43 43 0 0 1-.32 4.67 31 31 0 0 1-1.65 6.81q-1.22 1.47-2.59 2.84a34 34 0 0 1-5.9 4.75 72 72 0 0 1-6.58 3.7 188 188 0 0 0-7.1 3.67q-.7.27-1.4.58-.6.27-1.15.61-.3-.08-.6.03-.66.22-1.28.46-3.4 1.38-7.01 2.01a4 4 0 0 0-.92.28 28 28 0 0 1-6.85 2.15q-1.53.26-3.06.4.21-.36.36-.73l.76-1.65a31 31 0 0 0 2.08-5.56q.82-3.07 1.3-6.22v.03q.09-.75.3-1.5.31-1.07.56-2.17a8 8 0 0 0 .17-2.78l.08-.1.04-.05.01-.07.03-.16a2.91 2.91 0 0 0-2.22-2.02q-.65-.14-1.22-.02l.43-.82.01-.08.02-.08-.01-.08-.02-.08-.03-.07-.05-.06-.04-.06v-.03l-.05-.16q-1.05-1.05-2.28-.06a7 7 0 0 0-1.59 1.82q-.5.84-1.04 1.68-1.5 2.29-3.55 4.11a1 1 0 0 1-.04-.5q.34-1.83.76-3.66a7 7 0 0 1 .97-2.33q.83-1.25 1.55-2.57a43 43 0 0 0 2.54-5.54q1.08-2.85 1.4-5.86l.53.98.57 1.16a5 5 0 0 0 .6.92l.3.44q.44.74.92 1.43.12.18.27.3a5 5 0 0 1 .97 1.09q.06.68-.07 1.35-.03.15-.12.3-.37.57.12 1.01l.14.06q.18.05.34-.06.45-.28.6-.84.3-1.2.04-2.41a1 1 0 0 0-.17-.33q.42-.89.79-1.8.48-1.12 1.28-2.04.79-.89 1.67-1.68.9-.82 1.96-1.44 1.06-.6 2.13-1.2 1.13-.6 2.32-1.08 1.2-.48 2.43-.77a22 22 0 0 1 2.7-.47q.27-.03.52-.1.34-.07.68-.1.45-.03.86-.15l.11.03q.16.03.27-.07.45-.37.8-.9t.68-1.08q.48-.76 1.03-1.48l1.5-1.98q.76-1.02 1.77-1.8l.15-.11.01-.02.81-.66q.86-.64 1.7-1.3.99-.78 2.08-1.45a87 87 0 0 1 4.18-2.39 85 85 0 0 1 2.34-1.15zm-26.22-22.38-.02-.02-.03-.02z"/><path fill="#fff" d="m130.87 35.96-.14.07q-1.2.56-2.37 1.16-1.06.55-2.1 1.16-1.06.6-2.08 1.23-1.1.67-2.08 1.45-.84.67-1.7 1.3l-.82.68-.15.11a9 9 0 0 0-1.78 1.8q-.73 1-1.5 1.98-.54.72-1.02 1.48l-.69 1.08q-.33.52-.8.9a.3.3 0 0 1-.26.07l-.1-.03q-.42.12-.87.15-.34.03-.68.1a7 7 0 0 1-.76.14q-1.24.15-2.46.43-1.24.3-2.43.77t-2.32 1.09q-1.08.57-2.13 1.2-1.06.6-1.96 1.43-.88.8-1.67 1.68-.8.92-1.28 2.04-.37.91-.8 1.8.14.14.18.33.27 1.2-.04 2.41-.15.55-.6.84a.4.4 0 0 1-.34.06l-.14-.06q-.5-.44-.12-1.02.09-.13.12-.29.12-.67.07-1.35l-.08-.12a5 5 0 0 0-.89-.96q-.16-.15-.27-.3-.49-.7-.92-1.44l-.3-.44.02.04q-.36-.44-.62-.96l-.64-1.3-.45-.84q-.33 3-1.4 5.86a43 43 0 0 1-4.1 8.11 7 7 0 0 0-.97 2.33q-.42 1.83-.76 3.67a1 1 0 0 0 .04.5 21 21 0 0 0 3.55-4.12q.53-.84 1.04-1.68.61-1.05 1.59-1.82 1.23-.99 2.28.06l.05.19.12.2.02.07v.16l-.02.08-.43.82q.57-.12 1.21.02a2.9 2.9 0 0 1 2.23 2.02l-.03.16-.01.07-.04.05-.03.06-.07.06q.16 1.36-.15 2.76-.25 1.1-.56 2.18-.21.73-.3 1.5v-.04q-.48 3.15-1.3 6.22a31 31 0 0 1-2.08 5.56q-.39.82-.76 1.66-.15.36-.36.72 1.53-.14 3.06-.4a28 28 0 0 0 6.85-2.15q.44-.2.92-.28 3.62-.63 7-2 .64-.27 1.28-.47.32-.1.61-.03a9 9 0 0 1 1.15-.61q.7-.31 1.4-.58.06 0 .12-.04 3.45-1.89 6.98-3.64a73 73 0 0 0 6.58-3.68 34 34 0 0 0 5.9-4.76q1.37-1.36 2.6-2.84 1.2-3.3 1.64-6.8.29-2.33.32-4.67.05-3.76.24-7.51l.37-7.48q.1-1.88.11-3.74a20 20 0 0 0-.93-6.34l-.1-.19q-.15 0-.28-.02a5.5 5.5 0 0 0-2.44.1 19 19 0 0 0-2.17.83m-30.65-26.7-.24-.2q-.42-.16-.81-.34a7 7 0 0 0-1.06-.38q-.3-.08-.57-.25-1.77-.54-3.52-1.14-.84-.29-1.68-.63a3 3 0 0 0-2.63.14q-1.24.95-2.23 2.2l-2.4 3.04q-1.12 1.32-2.14 2.9a28 28 0 0 1-2.11 2.9q-.33.39-.62.79-.48.6-.83 1.29a53 53 0 0 0-1.06 2.19q-.3.87-.67 1.71a32 32 0 0 0-.98 2.5q-.03.11-.3.72a48 48 0 0 0-1.04 2.74l.05.04.06.05.05.06q1.94.48 3.92.92 1.54.34 3.13.2a8 8 0 0 1 2.6.21h.07l.04.01-.07-.01h.3q.1 0 .2.04l.06.04.05.03.05.05h.01a4 4 0 0 1 .6.38 8 8 0 0 0 2.07-.72q.88-.5 1.54-1.3a19 19 0 0 0 1.25-1.66q-.23-.21-.38-.47l-.04-.04q-.34-.24-.51-.57-.42.32-.82.66-.55.47-1.16.83a.4.4 0 0 1-.3.04 1 1 0 0 1-.26-.14q-.39-.56.18-.98.27-.18.5-.4a31 31 0 0 1 2.14-1.64q.1-.15.27-.3.25-.19.5-.4a17 17 0 0 0 3.07-3.75q.63-1.04.96-2.21.3-1 .8-1.89.1-.16.27-.28.28-.16.57-.29.6-.3 1.26-.32l.84-.05q.31-.04.63-.13.27-.08.54-.13.6-.42.96.14.13.18.04.38a1 1 0 0 1-.23.34 4 4 0 0 0 1.64.39q.78.03 1.49-.25a1 1 0 0 0 .31-.23q.4-.52.52-1.16.01-.33-.08-.64a1 1 0 0 0-.4-.52l-.64-.45q-.6-.4-1.14-.89l-.88-.76a4 4 0 0 0-3.12-1.08l-.5.04-1.23.06h.02l-.18.02q-1.29.16-2.55.4-.72.14-1.34.5-.85.48-1.59 1.11-.93.8-1.96 1.47-.51.31-1.05.58a1 1 0 0 0-.23.16l-.09.08q-.36.6-.9.17a.4.4 0 0 1-.16-.46q.1-.44.48-.72.54-.41 1.17-.68.15-.06.3-.16 1.07-.75 2.07-1.6a7 7 0 0 1 3.28-1.58 27 27 0 0 1 5.05-.52q.67-.01 1.3.22a1 1 0 0 0-.22-.21zm-8.77 16.6-.13.1q.21.27.37.56l.2.18q.8.82 1.77 1.38a1 1 0 0 0 .66.13l.14-.02h.04-.03q1.2-.3 2.22-.98.23-.15.5-.23.72-.21 1.32-.65.64-.49.6-1.24v-.19l-.38.15q-1.11.4-2.2.86-.26.1-.5.17-.75.18-1.5.04a9 9 0 0 1-2.56-.71zm3.48-3.73-.01-.02-.67.9q-.62.81-1.34 1.52.86.39 1.81.47 1.26.12 2.37-.49.55-.3 1.14-.49a5.5 5.5 0 0 0 2.08-1.22q.32-.3.4-.75a5 5 0 0 0-.17-1.52l-.05.03q-.9.42-1.7.99-.94.67-2.07.52-.45.06-.91.06l-.47.01q-.2.01-.4-.01m2.13-2.92a1 1 0 0 1-.48.05l-.19-.11-.25.69q-.23.58-.51 1.14.75-.05 1.48-.01.3 0 .6-.14.92-.46 1.8-1.02.42-.27.85-.5a5 5 0 0 0 1.6-1.44 1 1 0 0 1-.23-.33 6 6 0 0 1-1.37-.45 4 4 0 0 1-1.65 1.6q-.51.27-1.08.36-.3.04-.56.16m2.22-2.51h-.17q-.48.04-.96.11a2 2 0 0 0-.8.25l-.21.13-.36.91q.53-.12 1.03-.28.15-.05.32-.14a3 3 0 0 0 1.15-.98"/><path fill="#ca6a40" d="m87.6 49.46-.06.15q-.39.75-.98 1.37-.18.18-.42.28-.21.05-.42.05a3 3 0 0 1-.63-.06h-.01q-.25.05-.51.15t-.51.11a1 1 0 0 1-.32-.04 2 2 0 0 1-.49-.28q-.24 2.32-.41 4.66-.08 1.02-.11 2.05-.04 1.54.03 3.1.11 2.3.08 4.6-.04 2.06-.05 4.1a28 28 0 0 1-.7 6.04 70 70 0 0 1-1.23 4.6 26 26 0 0 0-1.1 6.17q.64-1.4 1.65-2.62 1.9-2.3 3.77-4.62a36 36 0 0 0 3.37-4.97 230 230 0 0 0 2.72-5.04l-.08-.05a2 2 0 0 0-.85.42q-.4.34-.76.74l-.32.34q-.77 1.8-1.98 3.3a34 34 0 0 1-2.47 2.74q-.58.58-1.36.75h-.06l-.07-.03-.13-.04a4 4 0 0 1-.25-3.6q.22-.54.32-1.14.36-2.25 1.6-4.13a34 34 0 0 0 3.95-8q.57-1.7.8-3.43.1-.74.3-1.43l-.1-.17-.02-.08v-.15l.25-1.07-1.2-2.18a20 20 0 0 1-1.24-2.6m-5.8 7.5-.04-.03-.14-.07q-.57-.58-1-1.28-.4-.67-.77-1.39l-.3-.53-.2-.18-.22-.15-.12-.06q-.57.14-1.08.45-.42.27-.8.6l-1.12 2.93q-.52 1.4-1.07 2.79 1.08-.77 2.19-1.52a2 2 0 0 1 1.67-.26 6.3 6.3 0 0 1 2.97 1.88q-.02-1.6.04-3.18m-1.5-25.32-.56-.04q-1.1-.09-2.17-.36.03 1.31-.37 2.62-.33 1.05-.5 2.15-.45 2.87-.55 5.77a40 40 0 0 1-.64 5.81q-.55 3-.71 6.04-.14 2.9-.68 5.8a58 58 0 0 0 1.74-4.64l-.02-.03-.04-.06-.03-.06-.02-.06-.02-.13v-.07l.04-.12.03-.06q.2-.25.43-.46.71-1.99 1.48-3.95a20 20 0 0 0 1.34-5.86q.07-.9.19-1.76 0-.06.14-.54.48-1.83.4-3.7-.05-1.38.1-2.76l.18-1.33q.12-.55.16-1.11zm-5.52-.63-.05.16q-.42 1.27-.59 2.59l-.03.06-.04.06-.05.05-.11.1-.07.03-.06.02a74 74 0 0 1-2.03 5.78 34 34 0 0 0-.7 1.94q-1.21 3.72-1.99 7.57-.56 2.77-.95 5.56v.04a124 124 0 0 0-.86 7.22q.4-1.12.84-2.23a48 48 0 0 0 1.88-5.72q.76-2.91 1.62-5.79a48 48 0 0 0 1.36-5.79q.51-2.98 1.18-5.93.65-2.84.65-5.72"/><path fill="#e0a192" d="M85.37 37.34a13 13 0 0 0-1.72 4.11 38 38 0 0 1-.15 7.37 7 7 0 0 0 .3 1.44q.04.1.13.18l.1.05h.02l.08-.01a2 2 0 0 0 .44-.17 1 1 0 0 1 .2-.08q.2-.02.4 0 .22.04.44.06h.19q.5-.49.8-1.14l.5-1.12q-.15-.6-.24-1.24a55 55 0 0 0-.97-5.46q-.3-1.28-.4-2.58zM70.63 57.76q-.3-.04-.59-.16l-.58 1.7-2.4 6.65q-.02 1.56.05 3.13a4 4 0 0 1 2.75.77q0-.54.03-1.1l.06-.1a1 1 0 0 1 .2-.17l.14-.03h.13l.07.01q.06.02.11.06l.11.07.05.05.03.06.06.12a30 30 0 0 0 1.6 9.13 39 39 0 0 0 2.34 5.42l.45.88q-.1-1.3-.38-2.6-.45-2.2-.48-4.67 0-.72.06-1.44l.04-.06.08-.1.04-.04.06-.04.06-.03.06-.02.07-.02h.13l.07.02.06.02.06.03.05.04.05.04.08.1.03.07.03.06q-.1 2.49.34 4.95l.17 1.07q.27-.31.63-.58.17-.12.38-.02 1.4.6 2.29 1.79.34-1.58.83-3.12A38 38 0 0 0 81.8 68.3l.01-1.76q.03-2.3 0-4.61l-.06-.03-.05-.05a6.2 6.2 0 0 0-3.1-2.56 1.1 1.1 0 0 0-1.08.15 73 73 0 0 1-3.22 2.27 57 57 0 0 0-1.28 3.88l-.04.04-.05.05-.06.03-.05.03-.07.02a.4.4 0 0 1-.2.02l-.07-.01-.06-.03-.06-.03-.1-.08-.04-.04-.04-.06-.02-.06-.03-.06-.01-.07-.01-.07.18-.66-.03-.05-.01-.06-.03-.14q.48-2.97.99-5.75.16-.85.27-1.7l-.06.06a3 3 0 0 1-2.16.84q-.32 0-.64-.04m23.52 14.48q0-.04.03-.08l-.03-.04-.14-.21-.38-.32-.17-.16-.4-.17q-.3-.03-.61-.03-.33-.01-.63.08l-.18.06-.07.04-.05.03-.07.02-.07.01h-.12l-1.68 3.09a35 35 0 0 1-3.34 5.02 191 191 0 0 1-3.86 4.68 12 12 0 0 0-2.6 5.22 90 90 0 0 0-.76 3.72q3.85.23 7.72.2.84 0 1.66-.05a36 36 0 0 0 2.52-5.41q1.08-2.85 1.63-5.85.54-2.9 1.22-5.7.5-2.07.38-4.15"/><path fill="#fcf1d1" d="M81.83 31.88v-.16l-.5-.02q.02.34-.04.7l-.22 1.53q-.38 2.83-.41 5.69 0 .71-.14 1.42a95 95 0 0 0-.89 5.42 20 20 0 0 1-.71 3.28h1.22q.69.03 1.35-.15l.39-.26q.2-.16.39-.34.06-.07.16-.1l.06-.03.01-.08.11-1.15a41 41 0 0 0 .02-6.17q-.2-2.93-.44-5.84l-.29-3.55h.02l-.04-.05-.03-.07zm3.12.03-.2-.05-.41-.09-.27-.05-1.27.01q.3.75.27 1.62 0 .73.03 1.48a133 133 0 0 0 .32 4.02q.5-1.16 1.19-2.23.22-.34.52-.58l.06-.02.06-.02h.02q-.06-1.07.05-2.12.08-.88.23-1.74l-.08.01-.15.01-.07-.01-.06-.03-.06-.02-.1-.08zm-6.9 51.15a4 4 0 0 0-1.28-1.05q-.18.33-.3.68-.15.36-.25.73v.07l-.02.13-.02.06q.08.84.14 1.69.05.63-.03 1.25.47 1.18.86 2.38.49 1.54 1.05 3.04.37-1.88.92-3.73l-.03-.02a5 5 0 0 1-.36-2.76l.22-1.38-.13-.08zm-1.43-52.03.02-.06-.9-.27q.1 2.8-.49 5.56-.6 2.84-1.12 5.72a64 64 0 0 1-1.3 5.8q-.8 2.84-1.55 5.72-.43 1.58-.91 3.12a4 4 0 0 0 1.1.17q.17 0 .33-.04.54-.24.98-.64.52-.48.93-1.05.14-1.22.18-2.45.1-2.25.5-4.45a49 49 0 0 0 .59-3.9q.33-2.85.47-5.7.08-1.75.44-3.48.43-2.02.73-4.05m-9.27 39.05-.18.07a39 39 0 0 0 .62 4.64q.45 2.32 1.1 4.57a54 54 0 0 1 1.52 7.19q.26 1.88 1.3 3.51.36.58.83 1.07a6 6 0 0 0 1.76 1.24q1.6.5 3.27.7-.97-2.38-1.84-4.88a41 41 0 0 0-2.2-5.13q-.68-1.33-1.22-2.71a49 49 0 0 1-1.81-5.71 22 22 0 0 1-.56-3.22l-.17-.1q-.34-.53-.84-.9a2 2 0 0 0-1.13-.37q-.22 0-.45.03"/><path fill="#ffd0a1" d="M81.88 55.6q.04-.56.09-1.1.18-2.14.39-4.26a3 3 0 0 1-1.23.41 26 26 0 0 1-2.25.1q-.15 0-.3-.05l-.27.7-.54 1.32q.66-.27 1.4-.37.28-.04.51.14a6 6 0 0 1 1.66 2.15q.22.5.54.95"/><mask id="b" width="107" height="22" x="12" y="19" fill="#000" maskUnits="userSpaceOnUse"><path fill="#fff" d="M12 19h107v22H12z"/><path d="M18.4 34.46q-.66 0-1.4-.16l-.02 3.2a1 1 0 0 1-.3.74q-.3.3-.77.3t-.78-.3a1 1 0 0 1-.3-.75l.01-2.91v-3.09a53 53 0 0 0-.22-4.44q0-.65.29-1.11.33-.53.9-.53.45 0 .74.3.3.3.3.71l-.01.08a4.5 4.5 0 0 1 2.1-.59q1.8 0 2.63 1.53.62 1.15.62 2.97 0 1.71-.98 2.84-1.05 1.2-2.8 1.21m.55-6.46q-.5 0-1 .23a4 4 0 0 0-1.03.7q.1 1.6.1 3.22.69.23 1.39.23.8 0 1.23-.58.4-.5.4-1.39 0-1.05-.1-1.46-.22-.95-1-.95m10.96.37q-.07 1.2-1.09 1.2-.99 0-.98-1.02l-.04-.8a3.2 3.2 0 0 0-2.52 1.81v3.93q0 .44-.3.74t-.77.3a1 1 0 0 1-.75-.32 1 1 0 0 1-.25-.72v-5.12a24 24 0 0 1 .03-1.44q0-.44.26-.73.27-.3.75-.3.87 0 1.03.9a5 5 0 0 1 3.07-1.03q1.56 0 1.56 2.07zm7.86-.34q-.67.76-1.6 2.02l-1.63 2.18.79-.02q.3 0 .9.12.6.1.91.1.47 0 .77.3.32.3.32.74 0 .45-.3.73-.31.3-.79.3-.3 0-.91-.12-.6-.1-.9-.1-1.75 0-3.28.28-.2.04-.34.04-.43 0-.73-.23a.8.8 0 0 1-.35-.68q0-.5.5-.92a23 23 0 0 0 4.07-4.82 19 19 0 0 1-3.36-.15q-.96-.12-.96-1.01 0-.43.3-.74.3-.3.76-.3.38 0 1.15.09a13 13 0 0 0 2.77.01q1.05-.07 1.6-.07.96 0 .97.8 0 .7-.66 1.45m5.82 6.33q-1.86 0-3.05-.9a3.3 3.3 0 0 1-1.31-2.76q0-1.98 1.04-3.35a3.7 3.7 0 0 1 3.11-1.51q1.35 0 2.26.43 1.18.59 1.18 1.8 0 .86-.96 1.52-.45.3-1.76.9l-2.63 1.16q.38.4.9.6.54.21 1.22.21 1.05 0 1.78-.43.65-.38 1.04-.38.8 0 .8.79 0 .9-1.3 1.45-1.1.47-2.32.47m-.2-6.63q-.74 0-1.25.48t-.83 1.45l1.76-.75q1.05-.48 1.68-.89-.52-.3-1.37-.3m10.94-1.58q.1-2.66.24-3.68.13-.93 1.02-.92.45 0 .74.3t.28.72q0 1.14-.18 3.38t-.17 3.37a24 24 0 0 0 .2 3.93q0 .43-.31.71t-.73.27a.9.9 0 0 1-.86-.51 4.4 4.4 0 0 1-2.28.64 4 4 0 0 1-2.9-1.12 3.9 3.9 0 0 1-1.18-2.9q0-2.1 1.18-3.4a4 4 0 0 1 3.1-1.3 4 4 0 0 1 1.05.13q.45.13.8.38m-.16 2.46q-.26-.5-.67-.73-.42-.25-.98-.25-1.16 0-1.74.67t-.58 2q0 .85.63 1.45.62.6 1.45.6.6 0 .92-.14a4 4 0 0 0 .97-.74zm10.4-.24q-.08 1.2-1.1 1.2-.98 0-.98-1.02l-.04-.8a3.2 3.2 0 0 0-2.51 1.81v3.93q0 .44-.3.74t-.77.3a1 1 0 0 1-.75-.32 1 1 0 0 1-.25-.72v-5.12a24 24 0 0 1 .03-1.44q0-.44.26-.73.26-.3.75-.3.86 0 1.03.9A5 5 0 0 1 63 25.77q1.56 0 1.56 2.07zm7.88 6.15q-.36 0-1.15-.79-.71.34-1.26.52-.56.18-.93.18-1.89 0-2.83-1-.94-1.02-.94-3.02a4.3 4.3 0 0 1 1.4-3.22 4.6 4.6 0 0 1 3.32-1.35q.75 0 1.72.43 1.18.5 1.18 1.18 0 .28-.18.49-.08.3-.12.79-.04.46-.04 1.1 0 1.49.2 2.15l.37.8q.3.69.3.77 0 .42-.32.7-.3.26-.72.27m-1.94-5.36a6 6 0 0 1 .14-1.3 1 1 0 0 0-.49-.15q-1.05 0-1.86.84-.8.82-.8 1.92 0 1.04.38 1.58.38.52 1.13.52a2.7 2.7 0 0 0 1.73-.63 24 24 0 0 1-.23-2.78m6.1-2.07q1.2-1.38 2.24-1.37 1.2 0 1.77.91a3.3 3.3 0 0 1 2.3-.84q1.53 0 2.08 1.52.1.32.34 2.12.21 1.26.56 4.22.03.45-.3.73-.35.3-.8.3-.9 0-1.05-.9-.14-.81-.29-2.27a50 50 0 0 0-.26-2.28q-.21-1.4-.54-1.4-.18 0-.82.36t-.93.61q0 .9.2 2.57.23 1.72.23 2.56a1 1 0 0 1-.3.74q-.31.3-.78.3t-.78-.3a1 1 0 0 1-.3-.74q0-.9-.2-2.62a27 27 0 0 1-.18-2.62q0-.5-.09-.8a6.4 6.4 0 0 0-1.95 1.9l-.05 3.08-.01.54q0 .42-.35.67-.3.22-.77.22-.66 0-.9-.57-.16-.4-.16-1.25v-2.9q0-.39-.04-1.14l-.03-1.15q0-.69.25-1.26.31-.7.86-.7.44 0 .78.34t.35.74q0-.15-.07.68m12.2-2.48q-.5 0-.86-.34-.37-.33-.37-.82t.37-.82.86-.33.86.33q.37.34.37.82 0 .5-.37.82-.35.34-.86.34m.67 5.73a68 68 0 0 0 .05 2.86 1 1 0 0 1-.3.75q-.3.28-.78.28-.46 0-.77-.28a1 1 0 0 1-.3-.75l-.04-1.43-.02-1.43q0-.7.08-1.75.08-1.04.08-1.74 0-.45.3-.74.3-.3.77-.3t.78.3.3.74q0 .7-.08 1.74-.07 1.05-.07 1.75m5.25 4.12q-1.44 0-2.48-1a4 4 0 0 1-1.2-2.89 4.8 4.8 0 0 1 .95-3.08q1.2-1.6 3.3-1.6 1.57 0 2.49 1.26.83 1.13.83 2.79 0 1.8-.97 3.1a3.5 3.5 0 0 1-2.92 1.42m.47-6.5a1.7 1.7 0 0 0-1.51.88q-.47.75-.47 1.73 0 .94.53 1.44.41.4.98.4.69 0 1.18-.46.58-.54.61-1.47.1-2.5-1.32-2.52m10.9 6.6q-.97 0-1.08-.95l-.21-1.62a12 12 0 0 1-.07-3l.02-.28.01-.37q0-.64-.33-.64-.72 0-1.42.84a6 6 0 0 0-1.08 2.12l-.06.7a5 5 0 0 0 0 1.34q.05.44.05.66 0 .45-.31.73-.3.3-.78.3-.46 0-.77-.3a1 1 0 0 1-.3-.73q0-.23-.05-.66-.05-.45-.05-.66 0-.75.11-2.09t.11-2.08l-.03-.7q-.03-.46-.02-.7 0-.43.3-.71.33-.3.79-.3 1.02 0 1.1 1.24v.08a3.4 3.4 0 0 1 2.4-1.15q1.49 0 2.05 1.24.37.82.37 2.47v1.06q0 .62.16 1.58.17.96.17 1.56 0 .44-.31.73t-.78.28m8.96-.04q-.37 0-1.15-.79-.71.34-1.26.52-.56.18-.93.18-1.89 0-2.83-1-.94-1.02-.94-3.02a4.3 4.3 0 0 1 1.4-3.22 4.6 4.6 0 0 1 3.32-1.35q.75 0 1.72.43 1.18.5 1.18 1.18 0 .28-.18.49-.08.3-.12.79-.04.46-.04 1.1 0 1.49.2 2.15l.37.8q.3.69.3.77 0 .42-.32.7-.3.26-.72.27m-1.94-5.36a6 6 0 0 1 .14-1.3 1 1 0 0 0-.49-.15q-1.06 0-1.86.84-.8.82-.8 1.92 0 1.04.38 1.58.38.52 1.13.52a2.7 2.7 0 0 0 1.73-.63 24 24 0 0 1-.23-2.78"/></mask><path fill="#000" d="M18.4 34.46q-.66 0-1.4-.16l-.02 3.2a1 1 0 0 1-.3.74q-.3.3-.77.3t-.78-.3a1 1 0 0 1-.3-.75l.01-2.91v-3.09a53 53 0 0 0-.22-4.44q0-.65.29-1.11.33-.53.9-.53.45 0 .74.3.3.3.3.71l-.01.08a4.5 4.5 0 0 1 2.1-.59q1.8 0 2.63 1.53.62 1.15.62 2.97 0 1.71-.98 2.84-1.05 1.2-2.8 1.21m.55-6.46q-.5 0-1 .23a4 4 0 0 0-1.03.7q.1 1.6.1 3.22.69.23 1.39.23.8 0 1.23-.58.4-.5.4-1.39 0-1.05-.1-1.46-.22-.95-1-.95m10.96.37q-.07 1.2-1.09 1.2-.99 0-.98-1.02l-.04-.8a3.2 3.2 0 0 0-2.52 1.81v3.93q0 .44-.3.74t-.77.3a1 1 0 0 1-.75-.32 1 1 0 0 1-.25-.72v-5.12a24 24 0 0 1 .03-1.44q0-.44.26-.73.27-.3.75-.3.87 0 1.03.9a5 5 0 0 1 3.07-1.03q1.56 0 1.56 2.07zm7.86-.34q-.67.76-1.6 2.02l-1.63 2.18.79-.02q.3 0 .9.12.6.1.91.1.47 0 .77.3.32.3.32.74 0 .45-.3.73-.31.3-.79.3-.3 0-.91-.12-.6-.1-.9-.1-1.75 0-3.28.28-.2.04-.34.04-.43 0-.73-.23a.8.8 0 0 1-.35-.68q0-.5.5-.92a23 23 0 0 0 4.07-4.82 19 19 0 0 1-3.36-.15q-.96-.12-.96-1.01 0-.43.3-.74.3-.3.76-.3.38 0 1.15.09a13 13 0 0 0 2.77.01q1.05-.07 1.6-.07.96 0 .97.8 0 .7-.66 1.45m5.82 6.33q-1.86 0-3.05-.9a3.3 3.3 0 0 1-1.31-2.76q0-1.98 1.04-3.35a3.7 3.7 0 0 1 3.11-1.51q1.35 0 2.26.43 1.18.59 1.18 1.8 0 .86-.96 1.52-.45.3-1.76.9l-2.63 1.16q.38.4.9.6.54.21 1.22.21 1.05 0 1.78-.43.65-.38 1.04-.38.8 0 .8.79 0 .9-1.3 1.45-1.1.47-2.32.47m-.2-6.63q-.74 0-1.25.48t-.83 1.45l1.76-.75q1.05-.48 1.68-.89-.52-.3-1.37-.3m10.94-1.58q.1-2.66.24-3.68.13-.93 1.02-.92.45 0 .74.3t.28.72q0 1.14-.18 3.38t-.17 3.37a24 24 0 0 0 .2 3.93q0 .43-.31.71t-.73.27a.9.9 0 0 1-.86-.51 4.4 4.4 0 0 1-2.28.64 4 4 0 0 1-2.9-1.12 3.9 3.9 0 0 1-1.18-2.9q0-2.1 1.18-3.4a4 4 0 0 1 3.1-1.3 4 4 0 0 1 1.05.13q.45.13.8.38m-.16 2.46q-.26-.5-.67-.73-.42-.25-.98-.25-1.16 0-1.74.67t-.58 2q0 .85.63 1.45.62.6 1.45.6.6 0 .92-.14a4 4 0 0 0 .97-.74zm10.4-.24q-.08 1.2-1.1 1.2-.98 0-.98-1.02l-.04-.8a3.2 3.2 0 0 0-2.51 1.81v3.93q0 .44-.3.74t-.77.3a1 1 0 0 1-.75-.32 1 1 0 0 1-.25-.72v-5.12a24 24 0 0 1 .03-1.44q0-.44.26-.73.26-.3.75-.3.86 0 1.03.9A5 5 0 0 1 63 25.77q1.56 0 1.56 2.07zm7.88 6.15q-.36 0-1.15-.79-.71.34-1.26.52-.56.18-.93.18-1.89 0-2.83-1-.94-1.02-.94-3.02a4.3 4.3 0 0 1 1.4-3.22 4.6 4.6 0 0 1 3.32-1.35q.75 0 1.72.43 1.18.5 1.18 1.18 0 .28-.18.49-.08.3-.12.79-.04.46-.04 1.1 0 1.49.2 2.15l.37.8q.3.69.3.77 0 .42-.32.7-.3.26-.72.27m-1.94-5.36a6 6 0 0 1 .14-1.3 1 1 0 0 0-.49-.15q-1.05 0-1.86.84-.8.82-.8 1.92 0 1.04.38 1.58.38.52 1.13.52a2.7 2.7 0 0 0 1.73-.63 24 24 0 0 1-.23-2.78m6.1-2.07q1.2-1.38 2.24-1.37 1.2 0 1.77.91a3.3 3.3 0 0 1 2.3-.84q1.53 0 2.08 1.52.1.32.34 2.12.21 1.26.56 4.22.03.45-.3.73-.35.3-.8.3-.9 0-1.05-.9-.14-.81-.29-2.27a50 50 0 0 0-.26-2.28q-.21-1.4-.54-1.4-.18 0-.82.36t-.93.61q0 .9.2 2.57.23 1.72.23 2.56a1 1 0 0 1-.3.74q-.31.3-.78.3t-.78-.3a1 1 0 0 1-.3-.74q0-.9-.2-2.62a27 27 0 0 1-.18-2.62q0-.5-.09-.8a6.4 6.4 0 0 0-1.95 1.9l-.05 3.08-.01.54q0 .42-.35.67-.3.22-.77.22-.66 0-.9-.57-.16-.4-.16-1.25v-2.9q0-.39-.04-1.14l-.03-1.15q0-.69.25-1.26.31-.7.86-.7.44 0 .78.34t.35.74q0-.15-.07.68m12.2-2.48q-.5 0-.86-.34-.37-.33-.37-.82t.37-.82.86-.33.86.33q.37.34.37.82 0 .5-.37.82-.35.34-.86.34m.67 5.73a68 68 0 0 0 .05 2.86 1 1 0 0 1-.3.75q-.3.28-.78.28-.46 0-.77-.28a1 1 0 0 1-.3-.75l-.04-1.43-.02-1.43q0-.7.08-1.75.08-1.04.08-1.74 0-.45.3-.74.3-.3.77-.3t.78.3.3.74q0 .7-.08 1.74-.07 1.05-.07 1.75m5.25 4.12q-1.44 0-2.48-1a4 4 0 0 1-1.2-2.89 4.8 4.8 0 0 1 .95-3.08q1.2-1.6 3.3-1.6 1.57 0 2.49 1.26.83 1.13.83 2.79 0 1.8-.97 3.1a3.5 3.5 0 0 1-2.92 1.42m.47-6.5a1.7 1.7 0 0 0-1.51.88q-.47.75-.47 1.73 0 .94.53 1.44.41.4.98.4.69 0 1.18-.46.58-.54.61-1.47.1-2.5-1.32-2.52m10.9 6.6q-.97 0-1.08-.95l-.21-1.62a12 12 0 0 1-.07-3l.02-.28.01-.37q0-.64-.33-.64-.72 0-1.42.84a6 6 0 0 0-1.08 2.12l-.06.7a5 5 0 0 0 0 1.34q.05.44.05.66 0 .45-.31.73-.3.3-.78.3-.46 0-.77-.3a1 1 0 0 1-.3-.73q0-.23-.05-.66-.05-.45-.05-.66 0-.75.11-2.09t.11-2.08l-.03-.7q-.03-.46-.02-.7 0-.43.3-.71.33-.3.79-.3 1.02 0 1.1 1.24v.08a3.4 3.4 0 0 1 2.4-1.15q1.49 0 2.05 1.24.37.82.37 2.47v1.06q0 .62.16 1.58.17.96.17 1.56 0 .44-.31.73t-.78.28m8.96-.04q-.37 0-1.15-.79-.71.34-1.26.52-.56.18-.93.18-1.89 0-2.83-1-.94-1.02-.94-3.02a4.3 4.3 0 0 1 1.4-3.22 4.6 4.6 0 0 1 3.32-1.35q.75 0 1.72.43 1.18.5 1.18 1.18 0 .28-.18.49-.08.3-.12.79-.04.46-.04 1.1 0 1.49.2 2.15l.37.8q.3.69.3.77 0 .42-.32.7-.3.26-.72.27m-1.94-5.36a6 6 0 0 1 .14-1.3 1 1 0 0 0-.49-.15q-1.06 0-1.86.84-.8.82-.8 1.92 0 1.04.38 1.58.38.52 1.13.52a2.7 2.7 0 0 0 1.73-.63 24 24 0 0 1-.23-2.78"/><path fill="#e7e7e7" d="m17 34.3.4-1.95-2.4-.5v2.45zm-.02 3.2-2-.01zm-2.14-2.92-2-.02zm0-3.09 2-.02zm-.1-2.9-2 .14zm.17-2.65-1.69-1.08v.01zm1.93.48 2 .2v-.2zm0 .08-2-.2-.38 3.85 3.36-1.91zm1.04-.44L18.4 28h.02zm3.69 1.38 1.76-.95zm-.36 5.81-1.5-1.31h-.01zm-3.26-5.02.81 1.83h.01l.01-.01zm-1.03.7-1.33-1.5-.72.64.06.97zm.1 3.22h-2v1.45l1.38.45zm2.62-.35-1.6-1.2zm.3-2.85 1.95-.45zm-1.53 5.51v-2q-.45 0-1-.11l-.42 1.95-.41 1.96q.91.2 1.83.2zm-1.42-.16h-2v3.19h4v-3.18zm0 3.2h-2q-.02-.12.07-.35.09-.21.22-.34l1.4 1.43 1.4 1.43a3 3 0 0 0 .9-2.18zm-.31.74-1.4-1.43a1 1 0 0 1 .63-.27v4c.77 0 1.55-.26 2.17-.87zm-.77.3v-2q.08-.01.29.06t.33.21l-1.4 1.43-1.4 1.43c.62.6 1.4.87 2.18.87zm-.78-.3 1.4-1.43a1 1 0 0 1 .3.68h-4a3 3 0 0 0 .9 2.18zm-.3-.75h2l.01-2.9-2-.01-2-.01-.01 2.92zm.01-2.91 2 .01v-3.12l-2 .02-2 .03v3.04zm0-3.09 2-.03a55 55 0 0 0-.11-3.01l-2 .14-2 .14q.1 1.14.11 2.79zm-.1-2.9 1.99-.14-.11-1.55-.03-.2q0-.02-.02-.09l-.07-.26a2 2 0 0 0-.2-.39c-.03-.05-.43-.74-1.34-.9a2 2 0 0 0-2.02.88c-.17.27-.24.5-.25.57q-.07.27-.06.33l-.01.2h4v.09l-.01.1c0 .03-.02.17-.06.33-.02.06-.08.3-.26.57a2 2 0 0 1-2.01.88c-.91-.16-1.32-.85-1.35-.9a2 2 0 0 1-.19-.39q-.07-.2-.08-.25l-.01-.1-.02-.1.02.24.09 1.22zm-.12-1.54h2v-.1.02l-.02.03-1.7-1.06-1.69-1.07c-.43.69-.6 1.44-.6 2.18zm.29-1.11 1.68 1.08a1 1 0 0 1-.78.4v-4c-1.13 0-2.03.58-2.59 1.44zm.9-.53v2a1 1 0 0 1-.68-.29l1.42-1.4 1.41-1.42a3 3 0 0 0-2.15-.89zm.74.3-1.42 1.42a1.01 1.01 0 0 1-.29-.7h4c0-.82-.31-1.57-.88-2.13zm.3.71-2-.2v.08l1.99.2 1.99.2v-.08zm-.01.08.98 1.74q.33-.18.58-.25l-.52-1.93-.52-1.93q-.8.22-1.51.63zm1.04-.44.54 1.93q.28-.08.53-.08v-4q-.82 0-1.6.23zm1.07-.15v2c.3 0 .47.07.55.11.07.05.19.14.31.37l1.76-.95 1.76-.96a5 5 0 0 0-1.83-1.91 5 5 0 0 0-2.55-.66zm2.62 1.53-1.76.94c.2.39.38 1.02.38 2.03h4c0-1.42-.24-2.77-.86-3.92zm.62 2.97h-2c0 .74-.2 1.2-.49 1.53l1.51 1.31 1.51 1.31a6.2 6.2 0 0 0 1.47-4.15zm-.98 2.84-1.51-1.3c-.28.31-.64.51-1.3.51v4c1.7 0 3.2-.6 4.32-1.9zM18.95 28v-2q-1 .02-1.84.42l.84 1.81.83 1.82q.17-.06.17-.05zm-1 .23-.82-1.82a6 6 0 0 0-1.54 1.02l1.33 1.5 1.33 1.48q.35-.29.51-.35zm-1.03.7-2 .1q.1 1.56.1 3.12h4q0-1.68-.1-3.34zm.1 3.22-.62 1.9q.98.32 2 .33v-4q-.36 0-.76-.13zm1.39.23v2c1.07 0 2.11-.42 2.83-1.37l-1.6-1.2-1.6-1.2a1 1 0 0 1 .24-.2l.13-.04zm1.23-.58 1.6 1.21c.6-.8.8-1.73.8-2.6h-4q-.02.22-.03.25t.04-.06zm.4-1.39h2c0-.69-.03-1.39-.15-1.9l-1.95.44-1.95.45.02.25.02.76zm-.1-1.46 1.94-.46a3.4 3.4 0 0 0-.92-1.7c-.58-.55-1.3-.79-2.01-.79v4q-.14.01-.36-.07a1 1 0 0 1-.4-.25c-.2-.2-.22-.36-.2-.26zm9.97-.58-2-.13v.01zm-2.07.18h2v-.1zm-.04-.8 2-.1-.12-2.22-2.2.35zm-2.52 1.81-1.79-.89-.21.42v.48zm0 3.93h2zm-.3.74-1.37-1.45h-.01l-.01.01zm-1.52-.02 1.52-1.3v-.01l-.02-.02zm-.23-6.55 2 .06zm.27-1.46L22 24.87zm1.78.6-1.97.36.59 3.16 2.58-1.92zm4.63 1.57-2-.12c0 .15-.03-.06.2-.33q.22-.21.44-.3a1 1 0 0 1 .27-.06v4a3 3 0 0 0 2.26-.95c.6-.67.79-1.48.82-2.13zm-1.09 1.2v-2q.01-.01.22.04.23.07.48.3c.33.35.32.68.32.64h-4c0 .63.15 1.47.8 2.15.67.7 1.53.86 2.18.86zm-.98-1.02 2-.1-.05-.8-2 .1-2 .1.05.8zm-.04-.8-.32-1.97a5.2 5.2 0 0 0-3.99 2.9l1.8.88 1.78.9c.2-.41.47-.64 1.04-.73zm-2.52 1.81h-2v3.94h2l2-.01v-3.93zm0 3.93h-2q0-.13.09-.36.1-.23.24-.35l1.37 1.45 1.38 1.45c.63-.6.93-1.38.93-2.19zm-.3.74-1.4-1.44a1 1 0 0 1 .63-.27v4c.78 0 1.55-.26 2.17-.86zm-.77.3v-2a1 1 0 0 1 .34.07q.26.1.43.32l-1.52 1.3-1.52 1.29a3 3 0 0 0 2.27 1.01zm-.75-.32 1.5-1.33q.14.16.2.35a1 1 0 0 1 .05.26h-4c0 .7.21 1.44.76 2.05zm-.25-.72h2v-5.12h-4v5.12zm0-5.12h2q0-.18.02-.65l-2-.06-2-.07-.02.79zm.02-.71 2 .06.01-.79h-4l-.01.66zm.01-.73h2q.01.08-.05.27t-.2.33L23.5 26.2 22 24.87c-.53.6-.76 1.35-.76 2.06zm.26-.73 1.5 1.34q-.2.2-.44.3a1 1 0 0 1-.31.07v-4c-.76 0-1.6.25-2.24.96zm.75-.3v2c-.06 0-.33-.01-.62-.26-.27-.23-.32-.48-.32-.48l1.97-.36 1.97-.37a3 3 0 0 0-1-1.81 3 3 0 0 0-2-.71zm1.03.9 1.2 1.6q.86-.64 1.87-.63v-4q-2.36 0-4.26 1.42zm3.07-1.03v2q.05.01-.13-.05a1 1 0 0 1-.3-.23q-.08-.15-.04-.07.02.09.03.42h4c0-.88-.15-1.91-.79-2.76a3.4 3.4 0 0 0-2.77-1.31zm1.56 2.07h-2v.4l2 .13 2 .12v-.65zm6.25 2.21 1.61 1.2v-.01zm-1.62 2.18-1.57-1.24-2.67 3.38 4.3-.14zm1.7.1-.4 1.96h.04zm1.67.4-1.4 1.44.03.01.02.02zm.01 1.47-1.37-1.45zm-1.7.18-.36 1.97zm-4.17.18-.37-1.96zm-1.07-.2 1.22-1.58h-.01l-.01-.01zm.14-1.59 1.3 1.53zm4.08-4.82 1.66 1.12 2.21-3.3-3.97.19zm-3.36-.15.28-1.98zm-.66-1.75-1.43-1.4zm1.91-.21-.22 1.98h.02zm2.77.01.12 2H36zm1.9 2.18-1.5-1.32q-.74.85-1.7 2.16l1.6 1.18 1.61 1.19q.9-1.23 1.5-1.88zm-1.6 2.02-1.6-1.18q-1.31 1.76-1.6 2.12l1.58 1.24 1.57 1.23q.36-.46 1.66-2.22zm-1.62 2.18.06 2 .73-.02v-4q-.36 0-.86.02zm.79-.02v2l.12.01.4.07.38-1.96.4-1.96a7 7 0 0 0-1.3-.16zm.9.12-.35 1.97c.42.07.87.14 1.26.14v-4l-.14-.02-.4-.06zm.91.1v2a1 1 0 0 1-.62-.27l1.4-1.43 1.39-1.43c-.62-.6-1.4-.86-2.17-.86zm.77.3-1.35 1.47a1 1 0 0 1-.33-.73h4c0-.83-.32-1.61-.96-2.2zm.32.74h-2q-.01-.13.07-.36.11-.23.25-.36l1.37 1.45 1.38 1.45c.63-.6.93-1.37.93-2.18zm-.3.73-1.38-1.45q.14-.14.33-.2a1 1 0 0 1 .26-.06v4c.76 0 1.53-.24 2.16-.84zm-.79.3v-2l-.15-.02-.4-.06-.36 1.96-.36 1.97q.66.13 1.27.14zm-.91-.12.36-1.96a7 7 0 0 0-1.26-.15v4l.13.02q.15 0 .4.06zm-.9-.1v-2q-1.92 0-3.65.32l.37 1.96.38 1.97q1.32-.26 2.9-.26zm-3.28.28-.37-1.96h-.04.07v4q.4 0 .72-.07zm-.34.04v-2l.21.04q.16.05.28.14l-1.22 1.59-1.22 1.58c.6.46 1.28.65 1.95.65zm-.73-.23 1.2-1.6q.17.1.32.4t.13.52h-4c0 .92.42 1.74 1.15 2.28zm-.35-.68h2a1 1 0 0 1-.11.47l-.1.14-1.3-1.53-1.28-1.53a3.2 3.2 0 0 0-1.2 2.45zm.5-.92 1.29 1.53a25 25 0 0 0 4.44-5.23l-1.66-1.12-1.67-1.11a22 22 0 0 1-3.7 4.4zm4.07-4.82-.1-2-.83.03v4l1.02-.03zm-.93.03v-2q-1.05 0-2.15-.16l-.28 1.98-.27 1.99q1.35.19 2.7.19zm-2.43-.18.28-1.98c-.04 0 .2.02.46.29.27.3.3.6.3.68h-4c0 .66.2 1.44.79 2.07.57.6 1.3.84 1.9.93zm-.96-1.01h2q.01.15-.07.35a1 1 0 0 1-.2.31l-1.43-1.4-1.43-1.4a3 3 0 0 0-.87 2.14zm.3-.74 1.43 1.4a1 1 0 0 1-.67.3v-4c-.8 0-1.58.29-2.2.9zm.76-.3v2q.2 0 .93.07l.22-1.98.22-2q-.8-.08-1.37-.09zm1.15.09-.2 1.99q.82.08 1.38.08v-4q-.23 0-.98-.06zm1.18.07v2q.62 0 1.7-.06l-.11-2-.12-2q-1.04.07-1.47.06zm1.59-.06.13 2q1.05-.07 1.46-.07v-4q-.64 0-1.72.08zm1.6-.07v2c.1 0-.2.03-.54-.25a1.4 1.4 0 0 1-.4-.54 1 1 0 0 1-.09-.41h4c0-.7-.23-1.54-.98-2.15a3 3 0 0 0-2-.65zm.97.8h-2l.01-.12q0 .04-.17.25l1.5 1.32 1.5 1.33a4.2 4.2 0 0 0 1.16-2.78zm1.84.77-1.6-1.21zm5.37-1.08.88-1.8zm.22 3.32-1.14-1.64zm-1.76.9.81 1.82zm-2.63 1.16-.81-1.83-2.56 1.13 1.9 2.06zm3.9.38-1.02-1.72zm.54 1.86.8 1.84zm-4.6-4.23-1.9-.61-1.36 4.2 4.06-1.75zm1.76-.75.79 1.83h.02l.01-.01zm1.68-.89 1.09 1.68 2.76-1.8-2.86-1.62zm-1.16 6.34v-2c-.92 0-1.49-.22-1.85-.5l-1.2 1.6-1.2 1.6a7 7 0 0 0 4.25 1.3zm-3.05-.9 1.2-1.6c-.32-.23-.51-.54-.51-1.16h-4c0 1.75.68 3.3 2.1 4.37zm-1.31-2.76h2c0-.95.24-1.63.63-2.14l-1.6-1.2-1.59-1.22a7.4 7.4 0 0 0-1.44 4.56zm1.04-3.35 1.59 1.21c.38-.5.82-.72 1.52-.72v-4c-1.9 0-3.54.78-4.7 2.3zm3.11-1.51v2c.7 0 1.14.11 1.38.23l.88-1.8.88-1.8a7 7 0 0 0-3.14-.63zm2.26.43-.88 1.8.12.07-.03-.03-.03-.07v.03h4a3.9 3.9 0 0 0-2.3-3.6zm1.18 1.8h-2a1 1 0 0 1 .07-.26c.02-.03 0 .03-.17.14l1.14 1.64L47 31.24a3.9 3.9 0 0 0 1.82-3.17zm-.96 1.52-1.14-1.64c-.12.08-.53.3-1.43.7l.81 1.83.81 1.83c.87-.38 1.62-.75 2.1-1.08zm-1.76.9-.8-1.83-2.64 1.16.8 1.83.82 1.83 2.63-1.17zm-2.63 1.16L40 33q.7.75 1.66 1.12l.72-1.87.7-1.87a.4.4 0 0 1-.14-.1zm.9.6-.7 1.88q.94.34 1.92.33v-4q-.38-.01-.5-.07zm1.22.21v2c.97 0 1.94-.2 2.8-.7l-1.02-1.73-1.02-1.72c-.11.06-.33.15-.76.15zm1.78-.43 1.01 1.72.26-.13-.03.01-.2.02v-4c-.82 0-1.56.36-2.06.66zm1.04-.38v2c-.03 0-.41 0-.79-.37s-.4-.78-.4-.84h4c0-.59-.16-1.4-.81-2.03a2.8 2.8 0 0 0-2-.76zm.8.79h-2q0-.16.07-.33l.12-.2q.05-.04-.02 0-.06.06-.26.14l.8 1.84.79 1.84c1.11-.48 2.5-1.48 2.5-3.3zm-1.3 1.45-.78-1.84q-.71.3-1.54.3v4q1.63 0 3.11-.62zm-2.53-6.16v-2c-.98 0-1.88.34-2.6 1.02l1.36 1.46 1.37 1.46-.02.01-.05.03-.06.02zm-1.24.48-1.37-1.46a5.4 5.4 0 0 0-1.36 2.3l1.9.61 1.9.62c.15-.46.29-.6.3-.61zm-.83 1.45.8 1.84 1.75-.76-.79-1.83-.79-1.84-1.76.76zm1.76-.75.82 1.82q1.14-.5 1.95-1.03l-1.09-1.68-1.09-1.67q-.44.3-1.41.73zm1.68-.89.99-1.74a5 5 0 0 0-2.36-.55v4c.35 0 .43.06.38.03zm9.58-1.87-1.2 1.6 3.05 2.27.15-3.8zm.24-3.68-1.98-.29v.01zm1.86 3.48-2-.16zm0 7.07 1.97-.37zm-.28.94 1.32 1.5.02-.01zm-1.59-.24 1.76-.96-1-1.83L53.53 32zm-1.1.48-.53-1.93h-.02zm-4.09-.96-1.39 1.44zm.01-6.3 1.47 1.36zm4.8 1.67 2 .01v-.5l-.24-.44zm-3.4-.3 1.51 1.3zm2.42 3.9-.82-1.83zm.71-.5 1.25 1.56h.01l.02-.02zm.26-.24 1.46 1.37.58-.61-.04-.84zm.16-5.32 2 .07c.06-1.78.14-2.91.22-3.48l-1.98-.27-1.98-.28q-.17 1.21-.26 3.88zm.24-3.68 1.98.28v.04l-.05.12q-.07.16-.27.35c-.29.27-.59.29-.64.29v-4c-.65 0-1.41.17-2.04.75a3 3 0 0 0-.96 1.88zm1.02-.92v2a1 1 0 0 1-.33-.07 1 1 0 0 1-.38-.26l1.45-1.38 1.45-1.37a3 3 0 0 0-2.2-.92zm.74.3-1.45 1.37a1 1 0 0 1-.27-.65h4c0-.77-.27-1.51-.83-2.1zm.28.72h-2q0 1-.17 3.22l1.99.16 2 .16q.17-2.27.18-3.54zm-.18 3.38-2-.16q-.17 2.27-.17 3.53h4q0-1.01.16-3.22zm-.17 3.37h-2c0 1.82.05 3.24.21 4.08l1.97-.38 1.96-.37c-.08-.41-.14-1.46-.14-3.33zm.18 3.7-1.97.37v-.14h4q0-.33-.07-.6zm.02.23h-2q-.01-.16.1-.41t.25-.37l1.34 1.5 1.34 1.48c.64-.58.97-1.36.97-2.2zm-.31.71-1.32-1.5a1 1 0 0 1 .6-.23v4c.75 0 1.46-.26 2.04-.76zm-.73.27v-2q.18-.02.53.16.3.22.37.37l-1.76.96-1.75.96a2.96 2.96 0 0 0 2.62 1.56zm-.86-.51L53.53 32q-.3.17-.6.26l.53 1.93.53 1.92q.85-.23 1.6-.69zm-1.1.48-.55-1.93q-.3.09-.63.09v4q.89 0 1.73-.24zm-1.18.16v-2c-.7 0-1.15-.2-1.52-.56l-1.38 1.44-1.4 1.44a6 6 0 0 0 4.3 1.68zm-2.9-1.12 1.39-1.44a1.9 1.9 0 0 1-.57-1.46h-4c0 1.67.58 3.17 1.78 4.34zm-1.18-2.9h2c0-1 .27-1.62.65-2.04l-1.47-1.35-1.47-1.36a6.8 6.8 0 0 0-1.71 4.75zm1.18-3.4 1.48 1.36c.37-.42.85-.65 1.62-.65v-4a6 6 0 0 0-4.57 1.94zm3.1-1.3v2q.38.02.53.06l.52-1.93.52-1.93a6 6 0 0 0-1.57-.2zm1.05.13-.52 1.93.12.05 1.2-1.6 1.2-1.6a4 4 0 0 0-1.48-.7zm.64 2.84 1.77-.93a4 4 0 0 0-1.43-1.53l-1.01 1.73-1.01 1.72-.1-.07q0-.03.01 0zm-.67-.73 1.01-1.73a4 4 0 0 0-2-.52v4h.06-.03l-.05-.03zm-.98-.25v-2c-1.17 0-2.38.36-3.25 1.37l1.51 1.3 1.52 1.3-.05.05-.02.02q0-.02.29-.04zm-1.74.67-1.5-1.3a5 5 0 0 0-1.08 3.3h4c0-.64.15-.75.09-.68zm-.58 2h-2c0 1.13.45 2.12 1.24 2.9l1.39-1.45 1.39-1.44-.03-.03.01.04v-.02zm.63 1.45-1.39 1.44a4 4 0 0 0 2.84 1.16v-4h-.02q.02 0 0 0l-.04-.04zm1.45.6v2c.5 0 1.14-.05 1.74-.32l-.82-1.82-.83-1.82.12-.05h.02-.08l-.15.01zm.92-.14.8 1.83a6 6 0 0 0 1.16-.77l-1.25-1.56-1.25-1.56-.37.28.02-.01.07-.04zm.71-.5 1.28 1.54q.23-.18.44-.41l-1.46-1.37-1.45-1.37-.08.07zm.26-.24 2-.08v-2.77l-2-.01-2-.01v2.95zm10.4-3.1-2-.13v.01zm-2.08.18h2v-.1zm-.04-.8 2-.1-.11-2.22-2.2.35zm-2.51 1.81-1.8-.89-.2.42v.48zm0 3.93h2zm-.3.74-1.38-1.45-.02.01zm-1.52-.02 1.52-1.3-.01-.01-.02-.02zm-.24-6.55 2 .06zm.28-1.46-1.5-1.33zm1.78.6-1.97.36.58 3.16 2.58-1.92zm4.62 1.57-2-.12c0 .15-.03-.06.22-.33q.2-.21.43-.3a1 1 0 0 1 .27-.06v4a3 3 0 0 0 2.26-.95c.6-.67.78-1.48.82-2.13zm-1.08 1.2v-2q0-.01.22.04.23.07.47.3c.33.35.32.68.32.64h-4c0 .63.15 1.47.81 2.15.67.7 1.52.86 2.18.86zm-.99-1.02 2-.1-.04-.8-2 .1-2 .1.04.8zm-.04-.8-.31-1.97a5.2 5.2 0 0 0-4 2.9l1.8.88 1.79.9c.2-.41.47-.64 1.04-.73zm-2.51 1.81h-2v3.94h2l2-.01v-3.93zm0 3.93h-2q0-.13.08-.36.1-.23.24-.35l1.38 1.45 1.38 1.45c.62-.6.93-1.38.93-2.19zm-.3.74-1.4-1.44a1 1 0 0 1 .63-.27v4c.77 0 1.55-.26 2.17-.86zm-.77.3v-2a1 1 0 0 1 .34.07q.26.1.43.32l-1.52 1.3-1.53 1.29a3 3 0 0 0 2.28 1.01zm-.75-.32 1.5-1.33q.13.16.2.35a1 1 0 0 1 .05.26h-4c0 .7.2 1.44.75 2.05zm-.25-.72h2v-5.12h-4v5.12zm0-5.12h2l.01-.65-2-.06-2-.07-.01.79zm.01-.71 2 .06.02-.79h-4q0 .19-.02.66zm.02-.73h2q.01.08-.05.27-.08.19-.2.33l-1.5-1.33-1.49-1.33c-.54.6-.76 1.35-.76 2.06zm.26-.73 1.49 1.34q-.19.2-.44.3a1 1 0 0 1-.3.07v-4c-.76 0-1.6.25-2.24.96zm.75-.3v2c-.06 0-.34-.01-.62-.26-.27-.23-.32-.48-.32-.48l1.97-.36 1.96-.37a3 3 0 0 0-1-1.81 3 3 0 0 0-2-.71zm1.03.9 1.2 1.6q.85-.64 1.87-.63v-4q-2.36 0-4.27 1.42zM63 25.77v2q.05.01-.13-.05a1 1 0 0 1-.3-.23q-.08-.15-.05-.07.03.09.04.42h4c0-.88-.16-1.91-.8-2.76a3.4 3.4 0 0 0-2.76-1.31zm1.56 2.07h-2v.4l2 .13 1.99.12.01-.65zm6.73 5.9 1.42-1.42-1-1-1.28.61zm-1.26.51-.6-1.9h-.03zm-3.76-.83-1.46 1.36v.01zm.45-6.23 1.39 1.44zm5.05-.92-.8 1.83H71zm1 1.67-1.52-1.3-.3.36-.12.45zm-.12.79-2-.2v.03zm.17 3.25-1.9.6v.02zm.36.8-1.82.83zm-.02 1.46-1.3-1.52-.02.02zm-2.63-5.65-1.99-.24v.04zm.1-.73 1.98.35.26-1.47-1.34-.67zm-.27-.11-.64 1.9.08.02.07.02zm-2.07.8 1.45 1.38zm-.42 3.5-1.63 1.15v.01zm2.04.36.69 1.88h.01zm.82-.47 1.27 1.55.85-.7-.13-1.1zm1.7 2.58v-2a2 2 0 0 1 .57.1l.1.05-.13-.1-.26-.25-1.42 1.41-1.4 1.42q.45.47.95.82c.26.18.84.55 1.6.55zm-1.14-.79-.86-1.8q-.63.3-1 .41l.6 1.91.6 1.9q.73-.22 1.53-.61zm-1.26.52-.63-1.9q-.17.06-.26.07l-.04.01v4q.83-.02 1.55-.28zm-.93.18v-2c-.91 0-1.24-.24-1.37-.38l-1.46 1.37-1.46 1.37a5.7 5.7 0 0 0 4.29 1.64zm-2.83-1 1.47-1.37c-.16-.16-.4-.6-.4-1.65h-4c0 1.61.37 3.2 1.47 4.37zm-.94-3.02h2c0-.7.23-1.26.78-1.78l-1.39-1.44-1.38-1.44a6.3 6.3 0 0 0-2 4.66zm1.4-3.22 1.38 1.44a2.6 2.6 0 0 1 1.94-.79v-4c-1.8 0-3.41.65-4.72 1.9zm3.32-1.35v2c.13 0 .43.05.93.26l.8-1.83.78-1.84a6 6 0 0 0-2.5-.59zm1.72.43L71 28.1l.25.13q.07.05.01 0a1 1 0 0 1-.17-.26 1 1 0 0 1-.12-.52h4c0-1.8-1.55-2.66-2.39-3.02zm1.18 1.18h-2a1.2 1.2 0 0 1 .3-.8l1.52 1.29 1.52 1.3c.44-.51.66-1.14.66-1.8zm-.18.49-1.94-.49q-.12.51-.17 1.08l1.99.2 1.99.2q.03-.4.07-.5zm-.12.79-2-.17q-.04.57-.04 1.27h4q0-.58.03-.94zm-.04 1.1h-2c0 1.02.06 2 .3 2.76l1.9-.61 1.91-.62a7 7 0 0 1-.11-1.53zm.2 2.15-1.89.63.17.41.27.6 1.82-.83 1.82-.83-.32-.7.01.01.03.07zm.37.8-1.82.84.19.44.01.03-.06-.26-.02-.28h4c0-.37-.1-.67-.11-.69l-.1-.28-.27-.62zm.3.77h-2a1.1 1.1 0 0 1 .38-.83l1.3 1.52 1.3 1.52a2.9 2.9 0 0 0 1.02-2.2zm-.32.7-1.32-1.51a1 1 0 0 1 .6-.22v4c.76 0 1.47-.27 2.04-.77zm-2.66-5.1h2l.02-.37-2-.2-1.98-.19q-.04.4-.04.77zm.03-.56 1.98.23.1-.61-1.97-.35-1.97-.35q-.08.45-.13.84zm.1-.73.9-1.79q-.28-.16-.69-.26l-.48 1.94-.49 1.94-.1-.03-.03-.01zm-.27-.11.63-1.9c-.2-.06-.5-.14-.84-.14v4a2 2 0 0 1-.43-.06zm-.2-.04v-2c-1.31 0-2.44.54-3.31 1.46l1.44 1.38 1.45 1.38c.2-.2.3-.22.41-.22zm-1.87.84-1.44-1.39a4.7 4.7 0 0 0-1.35 3.3h4c0-.18.04-.33.24-.53zm-.8 1.92h-2c0 .88.16 1.89.75 2.73l1.63-1.15 1.64-1.16q.07.13.03.03a2 2 0 0 1-.04-.45zm.38 1.58-1.62 1.16c.69.97 1.72 1.36 2.75 1.36v-4q-.02-.02.19.06.2.1.3.25zm1.13.52v2q.81 0 1.6-.28l-.69-1.88-.68-1.88a1 1 0 0 1-.23.04zm.91-.16.7 1.88q.76-.3 1.39-.8l-1.27-1.55-1.26-1.55a1 1 0 0 1-.26.15zm.82-.47 1.99-.25a23 23 0 0 1-.22-2.53h-4q0 1.13.25 3.03zm5.88-4.85-2-.17-.51 6.14 4.02-4.67zm4-.46-1.7 1.05 1.24 2.03 1.78-1.58zm4.38.68 1.89-.66v-.01zm.34 2.12-1.99.25v.04l.02.05zm.56 4.22 2-.14-.01-.05v-.04zm-2.15.13-1.97.35zm-.29-2.27-1.99.2zm-.26-2.28-1.97.3zm-1.36-1.04-.97-1.75zm-.93.61-1.32-1.5-.68.6v.9zm.2 2.57-1.98.25zm-2.13-.06-1.98.22zm-.27-3.42 1.92-.56-.7-2.45-2.22 1.28zm-1.82 1.74-1.6-1.2-.01.02-.02.02zm-.13.17-1.52-1.3-.47.54-.01.72zm-.05 3.07 2 .08zm-.36 1.2-1.15-1.63-.01.01h-.01zm-1.67-.34 1.85-.75v-.02zm-.2-5.3-2 .09zm.22-2.4 1.83.81v-.01zm1.64-.36-1.41 1.42.02.01zm.28 1.42 1.51 1.3q.46-.51.68-.62c.13-.09.14-.05.04-.05v-4c-1.59 0-2.84 1-3.75 2.06zm2.23-1.37v2l.14.01h-.02l-.05-.05q-.03-.02 0 0l1.7-1.05 1.7-1.05a3.9 3.9 0 0 0-3.47-1.86zm1.77.91 1.32 1.5q.21-.18.42-.25L81.67 26 81 24.12q-.95.34-1.7 1.02zm1.05-.63.69 1.88q.21-.09.56-.1v-4q-.99 0-1.93.34zm1.25-.21v2l.14.01-.04-.02q-.02-.02 0 0l.1.2 1.88-.67 1.88-.67a4.3 4.3 0 0 0-1.49-2.08 4 4 0 0 0-2.47-.77zM85 27.3l-1.89.66a9.12 9.12 0 0 1 .05.34l.2 1.37 1.98-.25 1.98-.25-.2-1.5a7 7 0 0 0-.23-1.03zm.34 2.12-1.97.34q.2 1.16.54 4.11l1.99-.23 1.98-.23a89 89 0 0 0-.57-4.33zm.56 4.22-2 .14c0-.12 0-.3.1-.5.07-.2.2-.34.29-.42l1.3 1.51 1.3 1.52c.72-.6 1.07-1.47 1-2.4zm-.3.73-1.31-1.51a1 1 0 0 1 .51-.2v4c.77 0 1.5-.26 2.1-.77zm-.8.3v-2c.03 0 .3 0 .58.24s.34.5.34.52l-1.97.34-1.97.35c.1.61.39 1.31 1.02 1.85.64.53 1.38.7 2 .7zm-1.05-.9 1.97-.34q-.12-.7-.27-2.13l-1.99.2-1.99.2q.15 1.5.31 2.42zm-.29-2.27 2-.2q-.16-1.62-.28-2.38l-1.98.3-1.97.3q.08.57.24 2.17zm-.26-2.28 1.98-.3a7 7 0 0 0-.35-1.47 3 3 0 0 0-.49-.84 2.2 2.2 0 0 0-1.68-.8v4a1.8 1.8 0 0 1-1.52-.84l-.04-.08.04.16.09.46zm-.54-1.4v-2c-.52 0-.97.2-1.1.26l-.7.35.98 1.75.98 1.74.35-.18q.02 0 0 0l-.04.01-.15.04q-.1.02-.32.03zm-.82.36-.97-1.75a8 8 0 0 0-1.28.85l1.32 1.51 1.3 1.51c.05-.03.22-.16.61-.38zm-.93.61h-2q0 1.1.22 2.82l1.99-.25 1.98-.25q-.2-1.63-.2-2.32zm.2 2.57-1.98.25q.21 1.66.2 2.31h4q0-1.06-.23-2.82zm.23 2.56h-2q-.01-.12.07-.35.1-.22.23-.34l1.4 1.43 1.39 1.43a3 3 0 0 0 .9-2.17zm-.3.74-1.4-1.43a1 1 0 0 1 .62-.27v4c.77 0 1.55-.27 2.17-.87zm-.78.3v-2q.09-.02.29.06t.33.2l-1.4 1.44-1.4 1.43c.62.6 1.4.87 2.18.87zm-.78-.3 1.4-1.43a1 1 0 0 1 .3.69h-4a3 3 0 0 0 .9 2.17zm-.3-.74h2q-.01-1.08-.2-2.84l-2 .22-1.98.23q.19 1.68.18 2.39zm-.2-2.62 2-.21a25 25 0 0 1-.18-2.41h-4q0 1.06.2 2.84zm-.18-2.62h2q.01-.65-.17-1.36l-1.92.56-1.92.56q0-.07 0 0v.24zm-.09-.8-1-1.73a8 8 0 0 0-2.42 2.27l1.6 1.2 1.6 1.2c.52-.68.93-1.04 1.22-1.2zm-1.82 1.74-1.63-1.16.02-.03-.04.06 1.52 1.3 1.52 1.3.24-.3zm-.13.17-2-.04-.03 2.51h4q0-.87.03-2.43zm-.03 2.47h-2q0 .16-.02.51l2 .09 2 .08.02-.68zm-.02.6-2-.09-.01.63h4v-.46zm-.01.54h-2q-.01-.21.13-.54.18-.3.37-.43l1.15 1.64 1.15 1.63a2.8 2.8 0 0 0 1.2-2.3zm-.35.67-1.17-1.62q.14-.1.26-.13l.14-.03v4c.64 0 1.33-.16 1.95-.6zm-.77.22v-2c.07 0 .28.02.52.18.26.16.38.37.43.5l-1.85.75-1.85.75a2.9 2.9 0 0 0 2.75 1.82zm-.9-.57 1.84-.78q.05.16.02 0l-.02-.47h-4c0 .62.04 1.37.32 2.02zm-.16-1.25h2v-2.9h-4v2.9zm0-2.9h2l-.04-1.23-2 .09-2 .08q.04.74.04 1.06zm-.04-1.14 2-.08-.03-1.07h-4l.04 1.23zm-.03-1.15h2q.01-.32.08-.45l-1.83-.8-1.82-.82q-.44 1-.43 2.07zm.25-1.26 1.84.8c.02-.05-.02.08-.2.22q-.34.28-.78.28v-4c-1.47 0-2.32 1.04-2.7 1.9zm.86-.7v2a1 1 0 0 1-.39-.09 1 1 0 0 1-.24-.15l1.41-1.42 1.42-1.41a3 3 0 0 0-2.2-.93zm.78.34-1.4 1.43a1 1 0 0 1-.15-.23q-.1-.21-.1-.46h4c0-.9-.41-1.64-.95-2.17zm.35.74h2a3 3 0 0 0-.05-.46l-.11-.34c-.04-.09-.22-.52-.69-.85a2 2 0 0 0-2.24-.05c-.42.27-.61.62-.66.7-.12.22-.17.41-.18.44l-.04.14-.04.3-.06.63 2 .17 1.99.16.05-.54c0-.1 0-.02-.02.09l-.03.13c0 .02-.06.22-.18.44-.05.08-.24.43-.66.7a2 2 0 0 1-2.24-.05c-.47-.34-.65-.77-.69-.85a2 2 0 0 1-.15-.69v-.07zm12.98-3.78-1.36 1.46v.01h.01zm0 1.64-1.35-1.47-.01.01zm-.17 7.5-2 .04v.01zm-.27 2.18 1.37 1.45.01-.01.01-.01zm-1.55 0-1.4 1.43h.01l.01.02zm-.34-2.18-2 .04v.01zm.44-5.66 1.38 1.45.02-.02zm1.55 0-1.4 1.43.01.01.01.01zm-.52-1.5v-2q.1 0 .26.05.15.07.23.14l-1.35 1.47-1.35 1.48c.61.56 1.38.86 2.21.86zm-.86-.34 1.35-1.47q.08.07.2.28.08.22.08.37h-4c0 .9.37 1.7 1.02 2.3zm-.37-.82h2a1 1 0 0 1-.28.66l-1.35-1.48-1.35-1.47c-.65.59-1.02 1.4-1.02 2.3zm.37-.82 1.35 1.48a1 1 0 0 1-.23.14q-.16.05-.26.05v-4c-.83 0-1.6.3-2.21.86zm.86-.33v2a.77.77 0 0 1-.5-.2l1.36-1.47 1.37-1.46a3.2 3.2 0 0 0-2.23-.87zm.86.33-1.35 1.48a.92.92 0 0 1-.28-.66h4c0-.9-.37-1.7-1.02-2.3zm.37.82h-2a1 1 0 0 1 .28-.65l1.35 1.47 1.35 1.48c.65-.6 1.02-1.4 1.02-2.3zm-.37.82-1.36-1.46a.8.8 0 0 1 .5-.2v4c.83 0 1.61-.3 2.23-.88zm-.2 6.07h-2l.03 1.47 2-.04 2-.05-.02-1.38zm.03 1.43-2 .06.03 1.37h4l-.03-1.5zm.03 1.43h-2q-.01-.12.07-.34.1-.22.23-.35l1.4 1.44 1.4 1.43a3 3 0 0 0 .9-2.18zm-.3.75-1.38-1.46q.13-.12.33-.2a1 1 0 0 1 .27-.06v4c.76 0 1.53-.25 2.15-.83zm-.78.28v-2a1 1 0 0 1 .28.06q.19.08.33.2l-1.38 1.46-1.38 1.45c.62.58 1.4.83 2.15.83zm-.77-.28 1.4-1.44a1 1 0 0 1 .3.69h-4a3 3 0 0 0 .9 2.18zm-.3-.75h2l-.04-1.5-2 .07-2 .06q.04.97.03 1.37zm-.04-1.43 2-.05-.02-1.38h-4q0 .49.02 1.47zm-.02-1.43h2q0-.6.07-1.6l-2-.15-1.99-.15q-.08 1.1-.08 1.9zm.08-1.75 2 .15q.08-1.09.08-1.89h-4q0 .59-.08 1.6zm.08-1.74h2q0 .12-.08.35-.1.23-.24.36l-1.38-1.45-1.38-1.45c-.63.6-.92 1.39-.92 2.2zm.3-.74 1.4 1.43a1 1 0 0 1-.63.27v-4c-.77 0-1.55.27-2.16.87zm.77-.3v2q-.09.02-.28-.06a1 1 0 0 1-.34-.2l1.4-1.44 1.4-1.43c-.62-.6-1.4-.87-2.18-.87zm.78.3-1.38 1.45a1 1 0 0 1-.32-.7h4c0-.81-.29-1.6-.93-2.2zm.3.74h-2q0 .59-.07 1.6l2 .14 1.99.15q.08-1.09.08-1.89zm-.08 1.74-1.99-.15q-.08 1.1-.08 1.9h4q0-.6.07-1.6zm2.7 4.88 1.38-1.45zm-1.2-2.9 2-.06zm.95-3.08-1.6-1.2v.01zm5.79-.34 1.61-1.19zm-.14 5.88 1.6 1.21zm-2.45-5.07-.01 2zm-1.51.88 1.69 1.06zm.06 3.17 1.37-1.46zm2.16-.06 1.36 1.47v-.01l.02-.01zm.61-1.47 2 .09zm-1.79 3.98v-2c-.45 0-.78-.13-1.1-.44l-1.38 1.45-1.38 1.45a5.5 5.5 0 0 0 3.86 1.54zm-2.48-1 1.38-1.44c-.32-.3-.55-.74-.58-1.51l-2 .06-2 .06a6 6 0 0 0 1.82 4.29zm-1.2-2.89 2-.06c-.02-.72.17-1.3.56-1.83L92 27.5l-1.6-1.19a6.8 6.8 0 0 0-1.34 4.33zm.95-3.08 1.6 1.2c.39-.52.88-.8 1.7-.8v-4c-1.99 0-3.7.8-4.9 2.4zm3.3-1.6v2c.42 0 .64.13.88.45l1.6-1.2 1.62-1.18a5 5 0 0 0-4.1-2.06zm2.49 1.26-1.61 1.18c.25.35.44.84.44 1.6h4c0-1.44-.37-2.81-1.22-3.97zm.83 2.79h-2a3 3 0 0 1-.57 1.88l1.6 1.21 1.6 1.2a7 7 0 0 0 1.37-4.3zm-.97 3.1-1.6-1.22c-.33.45-.7.64-1.32.64v4c1.83 0 3.4-.76 4.51-2.22zm-2.45-5.08.02-2c-1.4-.01-2.52.7-3.23 1.81l1.7 1.07 1.7 1.06c.04-.07.03-.04-.05 0l-.1.05-.05.01zm-1.51.88-1.7-1.07a5 5 0 0 0-.77 2.8h4q.01-.48.16-.67zm-.47 1.73h-2c0 1.01.3 2.08 1.16 2.9L93.75 32l1.37-1.46.1.16q.02.04 0-.14zm.53 1.44-1.37 1.45c.64.6 1.45.95 2.35.95v-4a.6.6 0 0 1 .4.14zm.98.4v2c.96 0 1.84-.35 2.54-1l-1.36-1.46-1.35-1.48.02-.01.15-.05zm1.18-.46 1.38 1.45a4 4 0 0 0 1.23-2.83l-2-.09-2-.08-.01.14v-.02l.03-.03zm.61-1.47 2 .09a6 6 0 0 0-.5-2.9 3 3 0 0 0-1.16-1.26 3 3 0 0 0-1.65-.45v2l-.02 2a1 1 0 0 1-.41-.13 1 1 0 0 1-.3-.3q-.03-.09.02.15.04.24.03.72zm8.5 3.13 1.99-.23v-.04zm-.21-1.62 1.98-.26zm-.1-2.31-2-.13v.03zm.05-.97 2 .14zm-1.74-.17-1.54-1.27zm-1.08 2.12-1.9-.58-.08.23-.01.23zm-.06.7 1.98.26v-.02zm0 1.34-2 .21v.02l.01.02zm-.26 1.4-1.36-1.47-.02.01-.02.02zm-1.55 0 1.4-1.44h-.01l-.01-.02zm-.35-1.4-1.99.21zm.14-5.53-2 .1v.04zm.29-1.41 1.34 1.48zm1.87.94-2 .11v.03l.01.04zm.01.08-2 .18.4 4.27 3.02-3.04zm4.45.09 1.82-.83zm.37 3.03 2 .04v-.04zm.16 2.08-1.97.33v.01zm-.92 2.57v-2q0-.01.18.04a1.1 1.1 0 0 1 .74.79l-1.99.23-1.98.23c.07.64.32 1.4.98 1.98s1.44.73 2.07.73zm-1.07-.94 1.98-.27-.21-1.61-1.98.26-1.99.27.22 1.62zm-.21-1.62 1.98-.27q-.1-.75-.1-1.34h-4q0 .9.13 1.88zm-.12-1.61h2l.02-.6-2-.1-2-.1-.02.8zm.02-.7 2 .13.03-.83h-4l-.02.57zm.03-.7h2v.04V29l.01-.15-2-.14-1.99-.14-.02.41zm.02-.27 2 .14.01-.5h-4v.22zm.01-.37h2c0-.32-.03-.87-.3-1.4a2.27 2.27 0 0 0-2.03-1.24v4a1.7 1.7 0 0 1-1.53-.92c-.16-.32-.14-.54-.14-.44zm-.33-.64v-2c-1.34 0-2.32.79-2.96 1.57l1.54 1.27 1.55 1.27.14-.16.04-.03-.1.05-.21.03zm-1.42.84-1.54-1.27a8 8 0 0 0-1.45 2.81l1.91.58 1.92.58q.31-.98.7-1.43zm-1.08 2.12-2-.12q0 .17-.05.56l1.98.25 1.99.25q.06-.46.08-.81zm-.06.7-1.99-.27q-.06.47-.06.95h4q0-.2.03-.42zm-.05.68h-2q0 .39.06.87l1.98-.2 2-.22-.04-.45zm.05.66-1.99.25.03.3.01.1h4q0-.42-.07-.9zm.05.66h-2q0-.14.08-.38.11-.23.25-.35l1.36 1.46 1.35 1.47c.64-.59.96-1.38.96-2.2zm-.31.73-1.4-1.43a1 1 0 0 1 .62-.27v4c.78 0 1.56-.26 2.17-.86zm-.78.3v-2q.09 0 .3.06a1 1 0 0 1 .33.21l-1.4 1.43-1.4 1.44c.62.6 1.4.86 2.17.86zm-.77-.3 1.38-1.45a1 1 0 0 1 .32.72h-4c0 .8.3 1.59.92 2.18zm-.3-.73h2q0-.4-.06-.87l-2 .21-1.98.22.04.44zm-.05-.66 1.99-.2-.04-.46h-4q0 .39.06.87zm-.05-.66h2q0-.62.1-1.92l-1.99-.17-2-.16q-.1 1.37-.1 2.25zm.11-2.09 2 .17q.1-1.37.11-2.25h-4q0 .62-.1 1.92zm.11-2.08h2l-.03-.83-2 .13-2 .14.03.56zm-.03-.7 2-.1-.02-.6h-4q0 .32.02.8zm-.02-.7h2a1.07 1.07 0 0 1-.35.77l-1.34-1.48-1.34-1.49a3 3 0 0 0-.97 2.2zm.3-.71 1.35 1.48a1 1 0 0 1-.56.23v-4c-.77 0-1.51.25-2.12.8zm.79-.3v2a1 1 0 0 1-.28-.05q-.23-.09-.43-.3c-.23-.27-.2-.47-.2-.3l2-.11 2-.12a3.5 3.5 0 0 0-.81-2.14 3 3 0 0 0-2.28-.97zm1.1 1.24-2 .18v.08l2-.18 2-.18-.02-.09zm0 .08 1.42 1.41c.5-.5.81-.56.99-.56v-4c-1.52 0-2.8.7-3.83 1.74zm2.4-1.15v2c.22 0 .26.05.22.02l-.03-.02.04.07 1.82-.83 1.82-.83a4 4 0 0 0-3.86-2.4zm2.05 1.24-1.83.82c.08.16.2.64.2 1.65h4c0-1.19-.12-2.35-.55-3.3zm.37 2.47h-2v.56h4v-.56zm0 .56-2-.04v.55h4v-.47zm0 .5h-2q0 .86.19 1.91l1.97-.33 1.97-.34q-.14-.88-.14-1.23zm.16 1.58-1.97.35q.14.88.14 1.2h4q-.01-.85-.2-1.9zm.17 1.56h-2a1.05 1.05 0 0 1 .33-.74l1.36 1.47 1.35 1.46c.64-.58.96-1.36.96-2.2zm-.31.73-1.36-1.47a1 1 0 0 1 .58-.25v4a3 3 0 0 0 2.13-.82zm7.04-.54 1.42-1.41-1-1-1.28.61zm-1.26.52-.6-1.9h-.03zm-3.76-.83-1.46 1.36v.01zm.45-6.23 1.39 1.44zm5.05-.92-.8 1.83h.01zm1 1.67-1.52-1.3-.3.36-.12.45zm-.12.79-2-.2v.03zm.17 3.25-1.9.6v.02zm.36.8-1.83.83zm-.02 1.46-1.3-1.52-.02.02zm-2.63-5.65-1.99-.24v.04zm.1-.73 1.98.35.26-1.47-1.34-.67zm-.27-.11-.64 1.9.08.02.07.02zm-2.07.8 1.45 1.38zm-.42 3.5-1.63 1.15v.01zm2.04.36.69 1.88h.01zm.82-.47 1.27 1.55.85-.7-.13-1.1zm1.7 2.58v-2a2 2 0 0 1 .57.1l.1.05-.13-.1-.26-.25-1.42 1.41-1.41 1.42q.46.47.96.82c.26.18.84.55 1.6.55zm-1.14-.79-.86-1.8q-.63.3-1 .41l.6 1.91.6 1.9q.73-.22 1.53-.61zm-1.26.52-.63-1.9q-.17.06-.26.07l-.04.01v4q.83-.02 1.55-.28zm-.93.18v-2c-.91 0-1.24-.24-1.37-.38l-1.46 1.37-1.46 1.37a5.7 5.7 0 0 0 4.29 1.64zm-2.83-1 1.47-1.37c-.16-.16-.4-.6-.4-1.65h-4c0 1.61.37 3.2 1.47 4.37zm-.94-3.02h2c0-.7.23-1.26.78-1.78l-1.39-1.44-1.38-1.44a6.3 6.3 0 0 0-2 4.66zm1.4-3.22 1.38 1.44a2.6 2.6 0 0 1 1.94-.79v-4c-1.8 0-3.42.65-4.72 1.9zm3.32-1.35v2c.13 0 .43.05.93.26l.8-1.83.78-1.84a6 6 0 0 0-2.5-.59zm1.72.43-.79 1.83.25.13q.06.05.01 0a1 1 0 0 1-.17-.26 1 1 0 0 1-.12-.52h4c0-1.8-1.55-2.66-2.39-3.02zm1.18 1.18h-2a1.2 1.2 0 0 1 .3-.8l1.52 1.29 1.52 1.3c.44-.51.66-1.14.66-1.8zm-.18.49-1.94-.49q-.12.51-.17 1.08l1.99.2 1.99.2q.03-.4.07-.5zm-.12.79-2-.17q-.04.57-.04 1.27h4q0-.58.03-.94zm-.04 1.1h-2c0 1.02.06 2 .3 2.76l1.9-.61 1.91-.62a6 6 0 0 1-.11-1.53zm.2 2.15-1.89.63.17.41.27.6 1.82-.83 1.82-.83-.25-.55-.06-.14v-.02.02l.02.07zm.37.8-1.83.84.13.26.07.18.01.03-.01-.05-.02-.07-.04-.25v-.17h4c0-.37-.12-.67-.12-.69l-.1-.28-.27-.62zm.3.77h-2a1.1 1.1 0 0 1 .38-.83l1.3 1.52 1.3 1.52a2.9 2.9 0 0 0 1.02-2.2zm-.32.7-1.32-1.51a1 1 0 0 1 .6-.22v4c.76 0 1.47-.27 2.04-.77zm-2.66-5.1h2q0-.12.02-.37l-2-.2-1.98-.19q-.04.4-.04.77zm.03-.56 1.98.23.1-.61-1.97-.35-1.97-.35q-.08.45-.13.84zm.1-.73.9-1.79q-.28-.16-.69-.26l-.48 1.94-.49 1.94-.1-.03-.03-.01zm-.27-.11.63-1.9c-.2-.06-.5-.14-.84-.14v4a2 2 0 0 1-.43-.06zm-.2-.04v-2c-1.31 0-2.44.54-3.31 1.46l1.44 1.38 1.45 1.38c.2-.2.3-.22.41-.22zm-1.87.84-1.44-1.39a4.7 4.7 0 0 0-1.35 3.3h4c0-.18.04-.33.23-.53zm-.8 1.92h-2c0 .88.16 1.89.75 2.73l1.63-1.15 1.64-1.16q.06.13.03.03a2 2 0 0 1-.04-.45zm.38 1.58-1.62 1.16c.69.97 1.72 1.36 2.75 1.36v-4q-.02-.02.19.06.2.1.3.25zm1.13.52v2q.81 0 1.6-.28l-.69-1.88-.68-1.88a1 1 0 0 1-.23.04zm.91-.16.7 1.88q.76-.3 1.39-.8l-1.27-1.55-1.26-1.55a1 1 0 0 1-.26.15zm.82-.47 1.99-.25a23 23 0 0 1-.22-2.53h-4q0 1.13.25 3.03z" mask="url(#b)"/><path fill="#fff" d="M14 57.67a8 8 0 0 1 8-8h9a8 8 0 0 1 8 8v9a8 8 0 0 1-8 8h-9a8 8 0 0 1-8-8z"/><path fill="#000" d="m23.13 49.89-.2.98zm2.25.26.03 1zm.75-.02.03 1zm.75-.23.5.87zm.75-.43-.5-.86zm2.62-.04-.29.96zm.38.11.28-.95zm1.44.47.31-.95zm2.32.03-.8.58zm.25.35-.8.58zm.26.35.8-.59zm.56.54.52-.86zm.32.19-.51.86zm1 .57-.47.89zm.36.2.47-.89zm.37.19-.47.88zm.47.58-.96.28zm.12.39.96-.28zm.25 1.15 1-.07zm.05.77-1 .07zm.06.74 1-.07zm.05.71-1 .08zm.03.73 1-.03zm.02.73-1 .03zm.21.74.89-.46zm.39.75-.89.47zm.12.75.98.2zm-.08.38-.98-.2zm-.07.37.98.2zm.05.75-.95.33zm.25.75.95-.32zm-.13.75.82.58zm-.27.38-.81-.58zm-.28 2.63.92-.37zm.3.77-.92.37zm0 .73-.91-.4zm-.16.36.92.4zm-.15.35-.92-.4zm-.36.67.84.54zm-.2.31-.84-.54zm-.2.32-.84-.54zm-.4.6-.83-.55zm-.4.6-.83-.55zm-.43.58-.77-.64zm-.47.56-.76-.65zm-.44.66.89.46zm-.2.38-.88-.47zm-.2.38.89.47zm-.98.56-.22-.98zm-.4.08.22.98zm-.79.03-.14 1zm-.79-.11.14-.99zm-.76.12-.43-.9zm-.72.34.43.9zm-.74-.04-.5.86zm-.75-.43.5-.87zm-.75-.15.18.98zm-.38.07.19.98zm-.37.07-.18-.98zm-.75.1.06.99zm-.75.04-.06-1zm-.75-.07.22-.97zM25 74.2l-.22.98zm-.75.12-.48-.87zm-.38.21.49.88zm-.37.2.48.88zm-.75.18-.1 1zm-.38-.04-.1 1zm-.38-.04.1-1zm-.76-.02.04 1zm-.79.03.04 1zm-.77-.1-.3.95zm-.38-.12-.3.96zm-.37-.11.29-.96zm-.6-.49.85-.52zm-.23-.36.85-.53zm-.22-.37-.86.52zm-.54-.56.52-.85zm-.31-.19-.52.86zm-.32-.19.52-.85zm-.67-.39-.48.88zm-1.16-.99.99-.19zm-.15-.8-.98.2zm-.28-.72-.85.52zm-.42-.67.85-.53zm.03-1.12.96.28zm.12-.4-.96-.28zm-.1-.76.88-.5zm-.41-.75.87-.49zm0-.75-.86-.5zm.44-.75-.87-.5zm.03-.75.9-.43zm-.36-.75-.9.44zm-.08-5.24-.9-.45zm.19-.37.9.45zm.9-2.48.89.45zm.57-1.4.99.17zm.15-.84-.98-.18zm1.12-1.03-.5-.86zm.68-.4-.51-.86zm1.34-.73-.37-.93zm1.46-.33-.24.97zm.78.19-.24.97zm.57-.19.85.54zm.36-.57-.84-.53zm.55.39-.19.98zm.38.07-.2.98.38.08.2-.98.19-.98-.38-.08zm.38.08-.2.98q.4.08.8.13l.14-.99.14-.99-.7-.11zm.75.12-.14 1 .37.04.14-.99.14-.99-.38-.05zm.37.05-.14 1 .38.05.14-1 .13-.99-.37-.05zm.38.05-.14 1q.45.06.92.04l-.04-1-.03-1q-.28.02-.58-.03zm.75.04.03 1h.37l-.03-1-.03-1h-.38zm.37 0 .03 1 .38-.02-.04-1-.03-1-.37.01zm.38-.02.03 1q.65-.03 1.21-.36l-.5-.87-.5-.86a1 1 0 0 1-.28.1zm.75-.23.5.87.37-.21-.5-.87-.5-.87-.37.22zm.37-.21.5.87.37-.22-.5-.87-.5-.86-.37.21zm.38-.22.5.87a1 1 0 0 1 .28-.1l-.04-1-.03-1a2.6 2.6 0 0 0-1.21.37zm.75-.22.03 1 .37-.02-.03-1-.03-1-.38.02zm.37-.02.03 1h.38l-.04-1-.03-1h-.37zm.38 0 .03 1q.2-.02.43.05l.29-.96.28-.96q-.52-.15-1.07-.14zm.75.1-.3.95.38.11.29-.96.29-.96-.38-.1zm.37.1-.29.96.38.11.29-.96.28-.95-.37-.12zm.38.11-.3.96.72.22.3-.95.32-.95-.76-.23zm.73.23-.31.95.36.12.3-.95.32-.95-.36-.12zm.36.12-.31.95.35.12.31-.95.31-.95-.35-.12zm.35.12-.3.95q.67.2 1.34.02l-.25-.97-.25-.96q-.19.04-.23 0zm.79 0 .25.97.42-.1-.24-.98-.25-.96-.43.1zm.43-.1.24.96.43-.1-.25-.97-.24-.97-.43.1zm.42-.11.25.96q-.01.02-.2-.02a.4.4 0 0 1-.18-.12l.81-.58.82-.59a1.6 1.6 0 0 0-.78-.6q-.52-.15-.96-.02zm.68.24-.8.58.24.35.81-.58.82-.59-.25-.35zm.25.35-.8.58.24.35.82-.58.8-.59-.24-.35zm.26.35-.82.58q.35.5.87.81l.51-.85.52-.86a1 1 0 0 1-.27-.27zm.56.54-.51.85.32.2.51-.86.52-.86-.32-.19zm.32.19-.51.86.31.19.52-.86.52-.86-.32-.19zm.32.2-.52.85q.34.2.73.4l.47-.88.47-.88-.63-.36zm.68.37-.47.89.37.2.46-.9.47-.88-.36-.19zm.36.2-.46.88.36.2.47-.89.46-.88-.36-.2zm.37.19-.47.88-.02-.02.96-.28.96-.28q-.24-.8-.97-1.18zm.47.58-.96.28.11.38.97-.27.96-.28-.12-.4zm.12.39-.97.27.12.4.96-.29.96-.28-.11-.38zm.1.38-.95.28q.08.3.1.56l1-.07 1-.07a5 5 0 0 0-.18-.98zm.15.77-1 .07.03.39 1-.07 1-.08-.03-.38zm.03.39-1 .07.03.38 1-.07.99-.07-.03-.39zm.02.38-1 .07.06.74 1-.07 1-.07-.06-.74zm.06.74-1 .07.02.36 1-.07 1-.08-.03-.35zm.02.36-1 .07.03.36 1-.08 1-.07-.03-.36zm.03.35-1 .08q.03.33.03.68l1-.03 1-.03q0-.4-.03-.77zm.03.73-1 .03.01.36 1-.02 1-.03v-.37zm.01.37-1 .02.01.37 1-.03 1-.03v-.36zm.01.36-1 .03q.03.63.32 1.18l.89-.47.89-.46a1 1 0 0 1-.1-.3zm.21.74-.89.47.2.37.88-.46.9-.46-.2-.38zm.2.38-.9.46.2.38.89-.47.89-.46-.2-.37zm.19.37-.89.47.03.07v.02l.98.2.98.2q.13-.76-.21-1.42zm.12.75-.98-.2-.08.38.98.2.98.2.08-.38zm-.08.38-.98-.2-.07.38.98.2.98.2.07-.38zm-.07.37-.98-.2q-.14.66.08 1.28l.95-.33.94-.32a.4.4 0 0 1-.01-.23zm.05.75-.95.33.13.37.95-.32.94-.32-.13-.38zm.13.38-.95.32.13.38.94-.33.95-.32-.13-.37zm.12.37-.94.33-.01-.06v-.07q.02-.06 0-.02l.82.57.82.58a1.8 1.8 0 0 0 .26-1.65zm-.13.75-.82-.57-.26.37.81.58.82.58.27-.38zm-.27.38-.81-.58-.27.38.82.57.82.58.26-.37zm-.26.37-.82-.57c-.28.4-.45.86-.42 1.38l1-.06 1-.05v-.01q0-.03.06-.1zm-.24.75-1 .06.02.38 1-.06 1-.06-.03-.37zm.02.38-1 .06.02.37 1-.06 1-.05-.02-.38zm.02.37-1 .06q.03.56.25 1.08l.93-.38.92-.37a1 1 0 0 1-.1-.44zm.18.76-.93.38.15.38.93-.38.93-.37-.16-.38zm.15.38-.93.38.16.38.92-.37.93-.38-.15-.38zm.15.39-.92.37v.01-.05l.92.4.92.4q.31-.77.01-1.5zm0 .73-.91-.4-.16.35.91.4.92.41.16-.35zm-.16.36-.91-.4-.16.35.92.4.91.4.16-.35zm-.15.35-.92-.4q-.12.29-.28.53l.84.54.84.54q.24-.39.43-.8zm-.36.67-.84-.54-.2.31.84.54.84.54.2-.31zm-.2.31-.84-.54-.2.32.84.54.85.53.2-.31zm-.2.32-.84-.54-.39.6.83.55.83.55.42-.63zm-.4.6-.83-.55-.2.3.83.56.83.55.2-.3zm-.2.3-.83-.55-.2.3.83.56.83.55.2-.3zm-.2.3-.83-.55-.37.49.77.64.76.65q.27-.32.5-.67zm-.43.58-.77-.64-.23.28.76.64.77.65.23-.28zm-.24.28-.76-.64-.23.27.76.65.76.64.24-.27zm-.23.28-.76-.65q-.33.38-.56.84l.88.47.89.46q.16-.3.31-.48zm-.44.66-.88-.47-.2.38.88.47.89.46.2-.38zm-.2.38-.88-.47-.2.39.88.46.89.47.2-.39zm-.2.38-.88-.46.01-.02.06-.03.22.98.21.98c.58-.13 1-.49 1.27-.98zm-.6.47-.2-.98-.4.09.22.98.21.97.4-.08zm-.38.09-.22-.98-.4.09.22.97.22.98.4-.09zm-.4.08-.21-.97a1 1 0 0 1-.44.01l-.14 1-.14.98q.58.08 1.15-.04zm-.79.03.14-.99-.4-.05-.13.99-.15.99.4.05zm-.4-.05.15-1-.4-.05-.14.99-.14.99.4.06zm-.39-.06.14-.99a2.3 2.3 0 0 0-1.33.2l.43.9.43.9a.3.3 0 0 1 .19-.02zm-.76.12-.43-.9-.36.16.43.9.43.91.36-.17zm-.36.17-.43-.9-.36.17.43.9.43.9.36-.17zm-.36.17-.43-.9q.02-.03.12-.02l.07.01-.5.87-.5.86c.5.3 1.1.35 1.67.08zm-.74-.04.5-.87-.38-.22-.5.87-.5.87.38.21zm-.38-.22.5-.87-.37-.21-.5.87-.5.86.38.22zm-.37-.21.5-.87a2 2 0 0 0-1.43-.26l.18.98.18.98q0 0 .07.03zm-.75-.15-.18-.98-.38.07.18.98.19.98.37-.07zm-.38.07-.18-.98-.37.07.18.98.18.98.38-.07zm-.37.07-.18-.98-.63.07.06 1 .06 1q.44-.03.87-.1zm-.75.1-.06-1-.38.02.06 1 .06 1 .38-.03zm-.38.01-.06-1-.37.03.06 1 .06 1 .37-.03zm-.37.03-.06-1q-.23.01-.47-.04l-.22.97-.22.98q.5.11 1.03.08zm-.75-.07.22-.97-.37-.09-.23.98-.22.97.38.09zm-.38-.08.23-.98-.38-.08-.22.97-.22.98.37.08zm-.37-.09.22-.97a2 2 0 0 0-1.45.22l.48.87.48.88.05-.02zm-.75.12-.48-.87-.38.2.48.88.49.88.37-.21zm-.38.21-.48-.87-.37.2.48.88.48.87.38-.2zm-.37.2-.48-.87c-.1.06-.15.05-.17.05l-.1 1-.1 1q.72.05 1.33-.3zm-.75.18.1-1-.38-.04-.1 1-.1 1 .37.03zm-.38-.04.1-1-.37-.04-.1 1-.1 1 .37.03zm-.38-.04.1-1q-.45-.05-.9-.02l.04 1 .04 1q.32-.01.62.01zm-.76-.02-.05-1-.39.01.04 1 .04 1 .4-.02zm-.4.01-.04-1-.4.02.05 1 .04 1 .4-.02zm-.39.02-.04-1q-.23 0-.44-.06l-.29.96-.3.95q.55.16 1.11.15zm-.77-.1.3-.96-.38-.11-.3.95-.3.96.39.11zm-.38-.12.3-.95-.38-.12-.3.96-.29.95.38.12zm-.37-.11.29-.96-.04-.05-.86.52-.85.52q.4.68 1.16.92zm-.6-.49.85-.52-.23-.37-.85.53-.85.52.22.36zm-.23-.36.85-.53-.22-.36-.85.52-.86.52.23.37zm-.22-.37.85-.52q-.32-.55-.87-.9l-.52.86-.52.86q.08.03.2.22zm-.54-.56.52-.85-.31-.2-.52.86-.52.86.31.19zm-.31-.19.52-.85-.32-.2-.52.86-.52.86.32.19zm-.32-.19.52-.85-.7-.41-.49.87-.48.88.63.37zm-.67-.39.48-.87-.36-.2-.48.87-.48.88.36.2zm-.36-.2.48-.87-.36-.2-.48.88-.48.87.36.2zm-.36-.2.48-.87.04.04.02.04v.01l-.98.2-.98.18c.1.56.44 1 .94 1.28zm-.44-.59.99-.19-.08-.4-.98.2-.99.18.08.4zm-.07-.4.98-.18-.08-.4-.98.19-.98.19.07.4zm-.08-.4.98-.18a3 3 0 0 0-.41-1.07l-.85.53-.85.52q.1.18.15.4zm-.28-.72.85-.53-.21-.34-.85.53-.85.53.2.33zm-.21-.34.85-.53-.2-.33-.86.53-.85.52.21.34zm-.2-.33.84-.53v.01l.02.04v.04l-.96-.3-.96-.28q-.24.81.2 1.54zm-.1-.73.96.29.12-.4-.96-.28-.96-.3-.12.4zm.12-.4.96.3.11-.4-.95-.29-.96-.28-.12.39zm.12-.39.95.3q.24-.83-.17-1.55l-.87.49-.88.49.01.01v-.02zm-.1-.76.88-.5-.21-.36-.87.48-.88.5.21.37zm-.2-.38.87-.48-.21-.38-.87.5-.87.48.2.37zm-.21-.37.87-.49q.02 0 .02.13v.08l-.02.03-.87-.5-.86-.5a1.7 1.7 0 0 0-.01 1.74zm0-.75.87.5.22-.37-.87-.5-.87-.5-.21.37zm.22-.37.87.5.21-.38-.86-.5-.87-.5-.22.38zm.22-.38.86.5c.3-.52.34-1.12.07-1.68l-.9.43-.9.44q-.01-.02-.02-.11.02-.1.02-.08zm.03-.75.9-.43-.18-.38-.9.44-.9.43.18.38zm-.18-.37.9-.44-.18-.37-.9.43-.9.44.18.37zm-.18-.38.9-.43-.01-.03v-.01l-.96-.28-.96-.28q-.21.77.13 1.47zm-.07-.75.96.28.1-.37-.95-.28-.96-.28-.11.37zm.1-.37.97.28.1-.38-.95-.28-.96-.28-.11.38zm.12-.38.96.28q.12-.41.2-.83l-.98-.2-.98-.2q-.06.34-.16.67zm.18-.75.98.2.08-.37-.98-.2-.98-.2-.08.37zm.08-.37.98.2.07-.38-.98-.2-.98-.2-.07.38zm.07-.38.98.2q.13-.77-.23-1.43l-.88.48-.87.48.02.07zm-.13-.75.88-.48-.2-.37-.88.48-.88.48.2.37zm-.2-.37.88-.48-.2-.38-.89.48-.87.48.2.38zm-.2-.38.87-.48.02.08q-.01.1-.02.1l-.9-.44-.9-.45c-.27.55-.24 1.15.05 1.67zm-.03-.74.9.45.18-.37-.9-.45-.89-.45-.18.37zm.19-.37.9.45.18-.37-.9-.45-.9-.44-.18.36zm.18-.37.9.45q.23-.44.35-.92l-.97-.25-.97-.25q-.05.24-.2.53zm.28-.72.97.25.09-.36-.97-.24-.97-.25-.1.35zm.09-.35.97.24.09-.35-.97-.25-.97-.25-.1.36zm.09-.36.97.25q.06-.26.18-.48l-.9-.45-.88-.46q-.22.42-.34.9zm.26-.68.89.45.16-.32-.89-.46-.89-.46-.16.33zm.16-.33.9.46.16-.33-.89-.46-.89-.45-.17.32zm.17-.33.89.46q.24-.48.34-1.03l-.99-.17-.98-.18q-.06.3-.15.47zm.24-.74.99.17.07-.41-.98-.18-.99-.18-.07.42zm.08-.42.98.18.08-.42-.99-.18-.98-.18-.08.42zm.07-.42.99.18q0-.02-.01.01l-.04.04-.51-.86-.51-.86q-.75.47-.9 1.31zm.43-.62.5.86.35-.2-.5-.87-.51-.86-.35.2zm.34-.2.51.85.35-.2-.51-.86-.5-.86-.35.2zm.35-.21.5.86.69-.4-.51-.86-.51-.86-.68.4zm.68-.4.5.86.34-.2-.51-.86-.51-.86-.33.2zm.33-.2.5.86.34-.2-.51-.85-.51-.86-.33.2zm.33-.2.5.87q.27-.16.55-.27l-.37-.93-.37-.93q-.42.18-.82.4zm.68-.33.37.93.36-.14-.37-.93-.37-.93-.36.14zm.36-.14.37.93.35-.14-.37-.93-.37-.93-.35.14zm.35-.14.37.93q.05-.03.14 0l.24-.98.23-.97a2.2 2.2 0 0 0-1.35.09zm.75-.05-.24.97.4.1.23-.97.23-.98-.39-.1zm.39.1-.24.97.4.1.23-.98.23-.97-.39-.1zm.39.09-.24.97c.26.06.57.09.9-.02s.59-.34.76-.6l-.85-.54-.84-.53a.6.6 0 0 1 .3-.23c.13-.04.21-.02.2-.02zm.57-.19.85.54.18-.29-.85-.53-.84-.54-.18.29zm.18-.28.85.53.18-.28-.85-.54-.84-.53-.18.28zm.18-.29.85.54.02-.04-.03.03-.1.1a.98.98 0 0 1-1.53-.56l-.03-.2h2q0-.1-.03-.26c-.02-.1-.09-.33-.3-.53a1 1 0 0 0-1.31-.05q-.2.16-.25.25l-.13.19zm.18-.13h-1v.15h2v-.15zm0 .15h-1v.15h2v-.15zm0 .15h-1c0 .55.37.86.58.99.21.12.44.18.6.21l.2-.98.19-.98c-.09-.02-.05-.02.03.03q.09.05.24.21.16.22.16.52zm.38.22-.2.98.38.07.19-.98.2-.98-.38-.07z"/><path stroke="#000" stroke-linecap="round" stroke-width="2" d="M21 66.8c1.06 2.94 4.26 4.94 5.23 3.25 1.62-2.86 5.2-14.66 5.77-16.38"/><path fill="#fff" d="M14 57.67a8 8 0 0 1 8-8h9a8 8 0 0 1 8 8v9a8 8 0 0 1-8 8h-9a8 8 0 0 1-8-8z"/><path fill="#000" d="m23.13 49.89-.2.98zm2.25.26.03 1zm.75-.02.03 1zm.75-.23.5.87zm.75-.43-.5-.86zm2.62-.04-.29.96zm.38.11.28-.95zm1.44.47.31-.95zm2.32.03-.8.58zm.25.35-.8.58zm.26.35.8-.59zm.56.54.52-.86zm.32.19-.51.86zm1 .57-.47.89zm.36.2.47-.89zm.37.19-.47.88zm.47.58-.96.28zm.12.39.96-.28zm.25 1.15 1-.07zm.05.77-1 .07zm.06.74 1-.07zm.05.71-1 .08zm.03.73 1-.03zm.02.73-1 .03zm.21.74.89-.46zm.39.75-.89.47zm.12.75.98.2zm-.08.38-.98-.2zm-.07.37.98.2zm.05.75-.95.33zm.25.75.95-.32zm-.13.75.82.58zm-.27.38-.81-.58zm-.28 2.63.92-.37zm.3.77-.92.37zm0 .73-.91-.4zm-.16.36.92.4zm-.15.35-.92-.4zm-.36.67.84.54zm-.2.31-.84-.54zm-.2.32-.84-.54zm-.4.6-.83-.55zm-.4.6-.83-.55zm-.43.58-.77-.64zm-.47.56-.76-.65zm-.44.66.89.46zm-.2.38-.88-.47zm-.2.38.89.47zm-.98.56-.22-.98zm-.4.08.22.98zm-.79.03-.14 1zm-.79-.11.14-.99zm-.76.12-.43-.9zm-.72.34.43.9zm-.74-.04-.5.86zm-.75-.43.5-.87zm-.75-.15.18.98zm-.38.07.19.98zm-.37.07-.18-.98zm-.75.1.06.99zm-.75.04-.06-1zm-.75-.07.22-.97zM25 74.2l-.22.98zm-.75.12-.48-.87zm-.38.21.49.88zm-.37.2.48.88zm-.75.18-.1 1zm-.38-.04-.1 1zm-.38-.04.1-1zm-.76-.02.04 1zm-.79.03.04 1zm-.77-.1-.3.95zm-.38-.12-.3.96zm-.37-.11.29-.96zm-.6-.49.85-.52zm-.23-.36.85-.53zm-.22-.37-.86.52zm-.54-.56.52-.85zm-.31-.19-.52.86zm-.32-.19.52-.85zm-.67-.39-.48.88zm-1.16-.99.99-.19zm-.15-.8-.98.2zm-.28-.72-.85.52zm-.42-.67.85-.53zm.03-1.12.96.28zm.12-.4-.96-.28zm-.1-.76.88-.5zm-.41-.75.87-.49zm0-.75-.86-.5zm.44-.75-.87-.5zm.03-.75.9-.43zm-.36-.75-.9.44zm-.08-5.24-.9-.45zm.19-.37.9.45zm.9-2.48.89.45zm.57-1.4.99.17zm.15-.84-.98-.18zm1.12-1.03-.5-.86zm.68-.4-.51-.86zm1.34-.73-.37-.93zm1.46-.33-.24.97zm.78.19-.24.97zm.57-.19.85.54zm.36-.57-.84-.53zm.55.39-.19.98zm.38.07-.2.98.38.08.2-.98.19-.98-.38-.08zm.38.08-.2.98q.4.08.8.13l.14-.99.14-.99-.7-.11zm.75.12-.14 1 .37.04.14-.99.14-.99-.38-.05zm.37.05-.14 1 .38.05.14-1 .13-.99-.37-.05zm.38.05-.14 1q.45.06.92.04l-.04-1-.03-1q-.28.02-.58-.03zm.75.04.03 1h.37l-.03-1-.03-1h-.38zm.37 0 .03 1 .38-.02-.04-1-.03-1-.37.01zm.38-.02.03 1q.65-.03 1.21-.36l-.5-.87-.5-.86a1 1 0 0 1-.28.1zm.75-.23.5.87.37-.21-.5-.87-.5-.87-.37.22zm.37-.21.5.87.37-.22-.5-.87-.5-.86-.37.21zm.38-.22.5.87a1 1 0 0 1 .28-.1l-.04-1-.03-1a2.6 2.6 0 0 0-1.21.37zm.75-.22.03 1 .37-.02-.03-1-.03-1-.38.02zm.37-.02.03 1h.38l-.04-1-.03-1h-.37zm.38 0 .03 1q.2-.02.43.05l.29-.96.28-.96q-.52-.15-1.07-.14zm.75.1-.3.95.38.11.29-.96.29-.96-.38-.1zm.37.1-.29.96.38.11.29-.96.28-.95-.37-.12zm.38.11-.3.96.72.22.3-.95.32-.95-.76-.23zm.73.23-.31.95.36.12.3-.95.32-.95-.36-.12zm.36.12-.31.95.35.12.31-.95.31-.95-.35-.12zm.35.12-.3.95q.67.2 1.34.02l-.25-.97-.25-.96q-.19.04-.23 0zm.79 0 .25.97.42-.1-.24-.98-.25-.96-.43.1zm.43-.1.24.96.43-.1-.25-.97-.24-.97-.43.1zm.42-.11.25.96q-.01.02-.2-.02a.4.4 0 0 1-.18-.12l.81-.58.82-.59a1.6 1.6 0 0 0-.78-.6q-.52-.15-.96-.02zm.68.24-.8.58.24.35.81-.58.82-.59-.25-.35zm.25.35-.8.58.24.35.82-.58.8-.59-.24-.35zm.26.35-.82.58q.35.5.87.81l.51-.85.52-.86a1 1 0 0 1-.27-.27zm.56.54-.51.85.32.2.51-.86.52-.86-.32-.19zm.32.19-.51.86.31.19.52-.86.52-.86-.32-.19zm.32.2-.52.85q.34.2.73.4l.47-.88.47-.88-.63-.36zm.68.37-.47.89.37.2.46-.9.47-.88-.36-.19zm.36.2-.46.88.36.2.47-.89.46-.88-.36-.2zm.37.19-.47.88-.02-.02.96-.28.96-.28q-.24-.8-.97-1.18zm.47.58-.96.28.11.38.97-.27.96-.28-.12-.4zm.12.39-.97.27.12.4.96-.29.96-.28-.11-.38zm.1.38-.95.28q.08.3.1.56l1-.07 1-.07a5 5 0 0 0-.18-.98zm.15.77-1 .07.03.39 1-.07 1-.08-.03-.38zm.03.39-1 .07.03.38 1-.07.99-.07-.03-.39zm.02.38-1 .07.06.74 1-.07 1-.07-.06-.74zm.06.74-1 .07.02.36 1-.07 1-.08-.03-.35zm.02.36-1 .07.03.36 1-.08 1-.07-.03-.36zm.03.35-1 .08q.03.33.03.68l1-.03 1-.03q0-.4-.03-.77zm.03.73-1 .03.01.36 1-.02 1-.03v-.37zm.01.37-1 .02.01.37 1-.03 1-.03v-.36zm.01.36-1 .03q.03.63.32 1.18l.89-.47.89-.46a1 1 0 0 1-.1-.3zm.21.74-.89.47.2.37.88-.46.9-.46-.2-.38zm.2.38-.9.46.2.38.89-.47.89-.46-.2-.37zm.19.37-.89.47.03.07v.02l.98.2.98.2q.13-.76-.21-1.42zm.12.75-.98-.2-.08.38.98.2.98.2.08-.38zm-.08.38-.98-.2-.07.38.98.2.98.2.07-.38zm-.07.37-.98-.2q-.14.66.08 1.28l.95-.33.94-.32a.4.4 0 0 1-.01-.23zm.05.75-.95.33.13.37.95-.32.94-.32-.13-.38zm.13.38-.95.32.13.38.94-.33.95-.32-.13-.37zm.12.37-.94.33-.01-.06v-.07q.02-.06 0-.02l.82.57.82.58a1.8 1.8 0 0 0 .26-1.65zm-.13.75-.82-.57-.26.37.81.58.82.58.27-.38zm-.27.38-.81-.58-.27.38.82.57.82.58.26-.37zm-.26.37-.82-.57c-.28.4-.45.86-.42 1.38l1-.06 1-.05v-.01q0-.03.06-.1zm-.24.75-1 .06.02.38 1-.06 1-.06-.03-.37zm.02.38-1 .06.02.37 1-.06 1-.05-.02-.38zm.02.37-1 .06q.03.56.25 1.08l.93-.38.92-.37a1 1 0 0 1-.1-.44zm.18.76-.93.38.15.38.93-.38.93-.37-.16-.38zm.15.38-.93.38.16.38.92-.37.93-.38-.15-.38zm.15.39-.92.37v.01-.05l.92.4.92.4q.31-.77.01-1.5zm0 .73-.91-.4-.16.35.91.4.92.41.16-.35zm-.16.36-.91-.4-.16.35.92.4.91.4.16-.35zm-.15.35-.92-.4q-.12.29-.28.53l.84.54.84.54q.24-.39.43-.8zm-.36.67-.84-.54-.2.31.84.54.84.54.2-.31zm-.2.31-.84-.54-.2.32.84.54.85.53.2-.31zm-.2.32-.84-.54-.39.6.83.55.83.55.42-.63zm-.4.6-.83-.55-.2.3.83.56.83.55.2-.3zm-.2.3-.83-.55-.2.3.83.56.83.55.2-.3zm-.2.3-.83-.55-.37.49.77.64.76.65q.27-.32.5-.67zm-.43.58-.77-.64-.23.28.76.64.77.65.23-.28zm-.24.28-.76-.64-.23.27.76.65.76.64.24-.27zm-.23.28-.76-.65q-.33.38-.56.84l.88.47.89.46q.16-.3.31-.48zm-.44.66-.88-.47-.2.38.88.47.89.46.2-.38zm-.2.38-.88-.47-.2.39.88.46.89.47.2-.39zm-.2.38-.88-.46.01-.02.06-.03.22.98.21.98c.58-.13 1-.49 1.27-.98zm-.6.47-.2-.98-.4.09.22.98.21.97.4-.08zm-.38.09-.22-.98-.4.09.22.97.22.98.4-.09zm-.4.08-.21-.97a1 1 0 0 1-.44.01l-.14 1-.14.98q.58.08 1.15-.04zm-.79.03.14-.99-.4-.05-.13.99-.15.99.4.05zm-.4-.05.15-1-.4-.05-.14.99-.14.99.4.06zm-.39-.06.14-.99a2.3 2.3 0 0 0-1.33.2l.43.9.43.9a.3.3 0 0 1 .19-.02zm-.76.12-.43-.9-.36.16.43.9.43.91.36-.17zm-.36.17-.43-.9-.36.17.43.9.43.9.36-.17zm-.36.17-.43-.9q.02-.03.12-.02l.07.01-.5.87-.5.86c.5.3 1.1.35 1.67.08zm-.74-.04.5-.87-.38-.22-.5.87-.5.87.38.21zm-.38-.22.5-.87-.37-.21-.5.87-.5.86.38.22zm-.37-.21.5-.87a2 2 0 0 0-1.43-.26l.18.98.18.98q0 0 .07.03zm-.75-.15-.18-.98-.38.07.18.98.19.98.37-.07zm-.38.07-.18-.98-.37.07.18.98.18.98.38-.07zm-.37.07-.18-.98-.63.07.06 1 .06 1q.44-.03.87-.1zm-.75.1-.06-1-.38.02.06 1 .06 1 .38-.03zm-.38.01-.06-1-.37.03.06 1 .06 1 .37-.03zm-.37.03-.06-1q-.23.01-.47-.04l-.22.97-.22.98q.5.11 1.03.08zm-.75-.07.22-.97-.37-.09-.23.98-.22.97.38.09zm-.38-.08.23-.98-.38-.08-.22.97-.22.98.37.08zm-.37-.09.22-.97a2 2 0 0 0-1.45.22l.48.87.48.88.05-.02zm-.75.12-.48-.87-.38.2.48.88.49.88.37-.21zm-.38.21-.48-.87-.37.2.48.88.48.87.38-.2zm-.37.2-.48-.87c-.1.06-.15.05-.17.05l-.1 1-.1 1q.72.05 1.33-.3zm-.75.18.1-1-.38-.04-.1 1-.1 1 .37.03zm-.38-.04.1-1-.37-.04-.1 1-.1 1 .37.03zm-.38-.04.1-1q-.45-.05-.9-.02l.04 1 .04 1q.32-.01.62.01zm-.76-.02-.05-1-.39.01.04 1 .04 1 .4-.02zm-.4.01-.04-1-.4.02.05 1 .04 1 .4-.02zm-.39.02-.04-1q-.23 0-.44-.06l-.29.96-.3.95q.55.16 1.11.15zm-.77-.1.3-.96-.38-.11-.3.95-.3.96.39.11zm-.38-.12.3-.95-.38-.12-.3.96-.29.95.38.12zm-.37-.11.29-.96-.04-.05-.86.52-.85.52q.4.68 1.16.92zm-.6-.49.85-.52-.23-.37-.85.53-.85.52.22.36zm-.23-.36.85-.53-.22-.36-.85.52-.86.52.23.37zm-.22-.37.85-.52q-.32-.55-.87-.9l-.52.86-.52.86q.08.03.2.22zm-.54-.56.52-.85-.31-.2-.52.86-.52.86.31.19zm-.31-.19.52-.85-.32-.2-.52.86-.52.86.32.19zm-.32-.19.52-.85-.7-.41-.49.87-.48.88.63.37zm-.67-.39.48-.87-.36-.2-.48.87-.48.88.36.2zm-.36-.2.48-.87-.36-.2-.48.88-.48.87.36.2zm-.36-.2.48-.87.04.04.02.04v.01l-.98.2-.98.18c.1.56.44 1 .94 1.28zm-.44-.59.99-.19-.08-.4-.98.2-.99.18.08.4zm-.07-.4.98-.18-.08-.4-.98.19-.98.19.07.4zm-.08-.4.98-.18a3 3 0 0 0-.41-1.07l-.85.53-.85.52q.1.18.15.4zm-.28-.72.85-.53-.21-.34-.85.53-.85.53.2.33zm-.21-.34.85-.53-.2-.33-.86.53-.85.52.21.34zm-.2-.33.84-.53v.01l.02.04v.04l-.96-.3-.96-.28q-.24.81.2 1.54zm-.1-.73.96.29.12-.4-.96-.28-.96-.3-.12.4zm.12-.4.96.3.11-.4-.95-.29-.96-.28-.12.39zm.12-.39.95.3q.24-.83-.17-1.55l-.87.49-.88.49.01.01v-.02zm-.1-.76.88-.5-.21-.36-.87.48-.88.5.21.37zm-.2-.38.87-.48-.21-.38-.87.5-.87.48.2.37zm-.21-.37.87-.49q.02 0 .02.13v.08l-.02.03-.87-.5-.86-.5a1.7 1.7 0 0 0-.01 1.74zm0-.75.87.5.22-.37-.87-.5-.87-.5-.21.37zm.22-.37.87.5.21-.38-.86-.5-.87-.5-.22.38zm.22-.38.86.5c.3-.52.34-1.12.07-1.68l-.9.43-.9.44q-.01-.02-.02-.11.02-.1.02-.08zm.03-.75.9-.43-.18-.38-.9.44-.9.43.18.38zm-.18-.37.9-.44-.18-.37-.9.43-.9.44.18.37zm-.18-.38.9-.43-.01-.03v-.01l-.96-.28-.96-.28q-.21.77.13 1.47zm-.07-.75.96.28.1-.37-.95-.28-.96-.28-.11.37zm.1-.37.97.28.1-.38-.95-.28-.96-.28-.11.38zm.12-.38.96.28q.12-.41.2-.83l-.98-.2-.98-.2q-.06.34-.16.67zm.18-.75.98.2.08-.37-.98-.2-.98-.2-.08.37zm.08-.37.98.2.07-.38-.98-.2-.98-.2-.07.38zm.07-.38.98.2q.13-.77-.23-1.43l-.88.48-.87.48.02.07zm-.13-.75.88-.48-.2-.37-.88.48-.88.48.2.37zm-.2-.37.88-.48-.2-.38-.89.48-.87.48.2.38zm-.2-.38.87-.48.02.08q-.01.1-.02.1l-.9-.44-.9-.45c-.27.55-.24 1.15.05 1.67zm-.03-.74.9.45.18-.37-.9-.45-.89-.45-.18.37zm.19-.37.9.45.18-.37-.9-.45-.9-.44-.18.36zm.18-.37.9.45q.23-.44.35-.92l-.97-.25-.97-.25q-.05.24-.2.53zm.28-.72.97.25.09-.36-.97-.24-.97-.25-.1.35zm.09-.35.97.24.09-.35-.97-.25-.97-.25-.1.36zm.09-.36.97.25q.06-.26.18-.48l-.9-.45-.88-.46q-.22.42-.34.9zm.26-.68.89.45.16-.32-.89-.46-.89-.46-.16.33zm.16-.33.9.46.16-.33-.89-.46-.89-.45-.17.32zm.17-.33.89.46q.24-.48.34-1.03l-.99-.17-.98-.18q-.06.3-.15.47zm.24-.74.99.17.07-.41-.98-.18-.99-.18-.07.42zm.08-.42.98.18.08-.42-.99-.18-.98-.18-.08.42zm.07-.42.99.18q0-.02-.01.01l-.04.04-.51-.86-.51-.86q-.75.47-.9 1.31zm.43-.62.5.86.35-.2-.5-.87-.51-.86-.35.2zm.34-.2.51.85.35-.2-.51-.86-.5-.86-.35.2zm.35-.21.5.86.69-.4-.51-.86-.51-.86-.68.4zm.68-.4.5.86.34-.2-.51-.86-.51-.86-.33.2zm.33-.2.5.86.34-.2-.51-.85-.51-.86-.33.2zm.33-.2.5.87q.27-.16.55-.27l-.37-.93-.37-.93q-.42.18-.82.4zm.68-.33.37.93.36-.14-.37-.93-.37-.93-.36.14zm.36-.14.37.93.35-.14-.37-.93-.37-.93-.35.14zm.35-.14.37.93q.05-.03.14 0l.24-.98.23-.97a2.2 2.2 0 0 0-1.35.09zm.75-.05-.24.97.4.1.23-.97.23-.98-.39-.1zm.39.1-.24.97.4.1.23-.98.23-.97-.39-.1zm.39.09-.24.97c.26.06.57.09.9-.02s.59-.34.76-.6l-.85-.54-.84-.53a.6.6 0 0 1 .3-.23c.13-.04.21-.02.2-.02zm.57-.19.85.54.18-.29-.85-.53-.84-.54-.18.29zm.18-.28.85.53.18-.28-.85-.54-.84-.53-.18.28zm.18-.29.85.54.02-.04-.03.03-.1.1a.98.98 0 0 1-1.53-.56l-.03-.2h2q0-.1-.03-.26c-.02-.1-.09-.33-.3-.53a1 1 0 0 0-1.31-.05q-.2.16-.25.25l-.13.19zm.18-.13h-1v.15h2v-.15zm0 .15h-1v.15h2v-.15zm0 .15h-1c0 .55.37.86.58.99.21.12.44.18.6.21l.2-.98.19-.98c-.09-.02-.05-.02.03.03q.09.05.24.21.16.22.16.52zm.38.22-.2.98.38.07.19-.98.2-.98-.38-.07z"/></g><rect width="131.5" height="97.5" x="1.25" y="1.25" stroke="#000" stroke-width="2.5" rx="13.75"/><defs><clipPath id="a"><rect width="134" height="100" fill="#fff" rx="15"/></clipPath></defs></svg>