<svg width="310" height="36" viewBox="0 0 310 36" fill="none" xmlns="http://www.w3.org/2000/svg">
<rect x="1" y="1" width="308" height="34" rx="7" fill="#EBE8E8"/>
<rect x="1" y="1" width="308" height="34" rx="7" stroke="black" stroke-width="2"/>
<path d="M48.0391 19.6406C47.9505 19.6406 47.7318 19.6224 47.3828 19.5859C47.3516 20.3151 47.3359 21.513 47.3359 23.1797C47.3359 23.4557 47.2396 23.6927 47.0469 23.8906C46.8542 24.0885 46.6094 24.1875 46.3125 24.1875C46.0156 24.1875 45.7682 24.0885 45.5703 23.8906C45.3776 23.6927 45.2812 23.4557 45.2812 23.1797V21C45.2812 20.1927 45.3333 18.9974 45.4375 17.4141C45.5365 15.8047 45.5885 14.6042 45.5938 13.8125C45.599 12.4583 45.9792 11.8099 46.7344 11.8672C46.9115 11.8203 47.1562 11.7865 47.4688 11.7656C47.7812 11.7396 48.1615 11.7266 48.6094 11.7266C49.6302 11.7266 50.5885 12.0573 51.4844 12.7188C52.4792 13.4583 52.9766 14.3594 52.9766 15.4219C52.9766 16.7552 52.4479 17.8151 51.3906 18.6016C50.4531 19.2943 49.3359 19.6406 48.0391 19.6406ZM48.4297 13.7422C48.263 13.7422 48.1146 13.7448 47.9844 13.75C47.8594 13.75 47.7526 13.7552 47.6641 13.7656C47.6641 14.0104 47.6615 14.3776 47.6562 14.8672C47.6458 15.4453 47.5964 16.3464 47.5078 17.5703C47.7734 17.612 47.9505 17.6328 48.0391 17.6328C48.8516 17.6328 49.526 17.4401 50.0625 17.0547C50.6354 16.6432 50.9219 16.099 50.9219 15.4219C50.9219 14.9792 50.6536 14.5859 50.1172 14.2422C49.6016 13.9089 49.0391 13.7422 48.4297 13.7422ZM58.0781 24.3594C56.8333 24.3594 55.8151 24.0625 55.0234 23.4688C54.1484 22.8125 53.7109 21.888 53.7109 20.6953C53.7109 19.3776 54.0573 18.263 54.75 17.3516C55.5208 16.3411 56.5599 15.8359 57.8672 15.8359C58.7734 15.8359 59.526 15.9818 60.125 16.2734C60.9115 16.6589 61.3047 17.2578 61.3047 18.0703C61.3047 18.6432 60.9844 19.151 60.3438 19.5938C60.0521 19.7969 59.4661 20.0938 58.5859 20.4844L55.9531 21.6484C56.2031 21.9193 56.5052 22.1224 56.8594 22.2578C57.2135 22.3932 57.6198 22.4609 58.0781 22.4609C58.776 22.4609 59.3672 22.3177 59.8516 22.0312C60.2839 21.776 60.6302 21.6484 60.8906 21.6484C61.4323 21.6484 61.7031 21.9115 61.7031 22.4375C61.7031 23.0312 61.2682 23.5156 60.3984 23.8906C59.6693 24.2031 58.8958 24.3594 58.0781 24.3594ZM57.8672 17.7266C57.3828 17.7266 56.9688 17.888 56.625 18.2109C56.2812 18.5339 56.0052 19.0182 55.7969 19.6641C56.3854 19.4089 56.9714 19.1562 57.5547 18.9062C58.2578 18.5885 58.8177 18.2943 59.2344 18.0234C58.8854 17.8255 58.4297 17.7266 57.8672 17.7266ZM65.8359 24.3672C65.138 24.3672 64.5078 24.263 63.9453 24.0547C63.1901 23.7734 62.8125 23.3594 62.8125 22.8125C62.8125 22.6042 62.9167 22.3958 63.125 22.1875C63.3385 21.974 63.5625 21.8672 63.7969 21.8672C64.0417 21.8672 64.3776 21.9557 64.8047 22.1328C65.237 22.3099 65.5807 22.3984 65.8359 22.3984C66.0339 22.3984 66.2292 22.3099 66.4219 22.1328C66.6146 21.9505 66.7109 21.7656 66.7109 21.5781C66.7109 21.2865 66.5052 21.0703 66.0938 20.9297C65.7031 20.8203 65.3151 20.7135 64.9297 20.6094C64.513 20.4635 64.3047 20.2422 64.3047 19.9453C64.3047 19.5651 64.4583 19.3021 64.7656 19.1562C64.9375 19.0677 65.2526 18.9974 65.7109 18.9453C66.0443 18.9089 66.2708 18.8516 66.3906 18.7734C66.5521 18.6641 66.6328 18.4661 66.6328 18.1797C66.6328 17.7943 66.2344 17.6016 65.4375 17.6016C65.276 17.6016 65.0521 17.7005 64.7656 17.8984C64.4792 18.0964 64.2109 18.1953 63.9609 18.1953C63.6849 18.1953 63.4401 18.112 63.2266 17.9453C62.9974 17.7682 62.8828 17.5417 62.8828 17.2656C62.8828 16.8073 63.224 16.4062 63.9062 16.0625C64.4792 15.776 64.9896 15.6328 65.4375 15.6328C66.2344 15.6328 66.9505 15.8047 67.5859 16.1484C68.3776 16.5755 68.7734 17.1693 68.7734 17.9297C68.7734 18.7109 68.5208 19.3568 68.0156 19.8672C68.5469 20.4714 68.8125 21.0417 68.8125 21.5781C68.8125 22.4219 68.5417 23.099 68 23.6094C67.4583 24.1146 66.737 24.3672 65.8359 24.3672ZM74.4531 20.9219H74.4219C74.0781 20.9219 73.1953 21.0286 71.7734 21.2422C71.7214 22.0026 71.6953 22.7396 71.6953 23.4531C71.6953 23.7552 71.5885 23.9948 71.375 24.1719C71.1875 24.3333 70.9557 24.4141 70.6797 24.4141C70.4089 24.4141 70.1797 24.3333 69.9922 24.1719C69.7786 23.9948 69.6719 23.7552 69.6719 23.4531C69.6719 22.5625 69.7135 21.6042 69.7969 20.5781C69.9479 18.7031 70.0234 17.7474 70.0234 17.7109C70.0339 17.6016 70.0599 17.3568 70.1016 16.9766C70.138 16.6849 70.1562 16.4245 70.1562 16.1953C70.1562 15.8932 70.2604 15.6536 70.4688 15.4766C70.6562 15.3151 70.888 15.2344 71.1641 15.2344C71.4349 15.2344 71.6667 15.3151 71.8594 15.4766C72.0677 15.6536 72.1719 15.8932 72.1719 16.1953C72.1719 16.4401 72.1562 16.7214 72.125 17.0391C72.0781 17.4557 72.0521 17.7188 72.0469 17.8281C72.0156 18.25 71.9792 18.7318 71.9375 19.2734C73.026 19.0964 73.8542 19.0078 74.4219 19.0078C74.5208 19.0078 74.6328 19.0104 74.7578 19.0156C75.112 18.0208 75.651 17.2109 76.375 16.5859C77.2031 15.8672 78.1615 15.5078 79.25 15.5078C82.0156 15.5078 83.3984 16.7422 83.3984 19.2109C83.3984 20.4714 83.0208 21.6198 82.2656 22.6562C81.3802 23.875 80.2109 24.4844 78.7578 24.4844C77.6172 24.4844 76.638 24.1693 75.8203 23.5391C74.9401 22.8672 74.4844 21.9948 74.4531 20.9219ZM79.25 17.5C78.5469 17.5 77.9297 17.8464 77.3984 18.5391C76.8828 19.2057 76.625 19.9531 76.625 20.7812C76.625 21.2917 76.8255 21.7057 77.2266 22.0234C77.6276 22.3359 78.138 22.4922 78.7578 22.4922C79.4505 22.4922 80.0391 22.1484 80.5234 21.4609C80.987 20.8099 81.2188 20.0599 81.2188 19.2109C81.2188 18.5339 81.0807 18.0807 80.8047 17.8516C80.5286 17.6172 80.0104 17.5 79.25 17.5ZM86.9453 20.0391C86.763 20.5495 86.5078 21.3177 86.1797 22.3438C86.0807 22.776 85.9844 23.2083 85.8906 23.6406C85.7031 24.1198 85.3542 24.3594 84.8438 24.3594C84.526 24.3594 84.2708 24.2734 84.0781 24.1016C83.8906 23.9297 83.7969 23.724 83.7969 23.4844C83.7969 22.901 83.9531 22.1979 84.2656 21.375C84.7292 20.1354 84.9766 19.4531 85.0078 19.3281C85.1432 18.776 85.2786 18.224 85.4141 17.6719C85.6172 16.9323 85.8438 16.4297 86.0938 16.1641C86.349 15.8984 86.6615 15.7656 87.0312 15.7656C87.6615 15.7656 88.1094 16.2656 88.375 17.2656C88.3906 17.3281 88.4609 17.6458 88.5859 18.2188C88.7682 19.0781 89.0365 19.9974 89.3906 20.9766C90.1146 19.4766 90.612 18.2135 90.8828 17.1875C91.1484 16.1875 91.6198 15.6875 92.2969 15.6875C92.8021 15.6875 93.1797 15.9714 93.4297 16.5391C93.5443 16.8047 93.6615 17.2839 93.7812 17.9766C94.0417 19.4714 94.3672 20.7448 94.7578 21.7969C95.1589 22.8906 95.3594 23.4974 95.3594 23.6172C95.3594 23.8828 95.2344 24.0938 94.9844 24.25C94.776 24.3854 94.5469 24.4531 94.2969 24.4531C93.8073 24.4531 93.4401 24.1849 93.1953 23.6484C93.0495 23.1901 92.9036 22.7344 92.7578 22.2812C92.5495 21.6719 92.3333 20.8438 92.1094 19.7969C91.9219 20.224 91.6224 20.888 91.2109 21.7891C91.0703 22.1224 90.9297 22.4531 90.7891 22.7812C90.6224 23.1667 90.4505 23.4818 90.2734 23.7266C90.0182 24.0755 89.6693 24.25 89.2266 24.25C88.7995 24.25 88.4714 24.0625 88.2422 23.6875C88.2057 23.625 88.0625 23.2682 87.8125 22.6172C87.4948 21.8047 87.2057 20.9453 86.9453 20.0391ZM100.25 24.3594C99.0052 24.3594 97.987 24.0625 97.1953 23.4688C96.3203 22.8125 95.8828 21.888 95.8828 20.6953C95.8828 19.3776 96.2292 18.263 96.9219 17.3516C97.6927 16.3411 98.7318 15.8359 100.039 15.8359C100.945 15.8359 101.698 15.9818 102.297 16.2734C103.083 16.6589 103.477 17.2578 103.477 18.0703C103.477 18.6432 103.156 19.151 102.516 19.5938C102.224 19.7969 101.638 20.0938 100.758 20.4844L98.125 21.6484C98.375 21.9193 98.6771 22.1224 99.0312 22.2578C99.3854 22.3932 99.7917 22.4609 100.25 22.4609C100.948 22.4609 101.539 22.3177 102.023 22.0312C102.456 21.776 102.802 21.6484 103.062 21.6484C103.604 21.6484 103.875 21.9115 103.875 22.4375C103.875 23.0312 103.44 23.5156 102.57 23.8906C101.841 24.2031 101.068 24.3594 100.25 24.3594ZM100.039 17.7266C99.5547 17.7266 99.1406 17.888 98.7969 18.2109C98.4531 18.5339 98.1771 19.0182 97.9688 19.6641C98.5573 19.4089 99.1432 19.1562 99.7266 18.9062C100.43 18.5885 100.99 18.2943 101.406 18.0234C101.057 17.8255 100.602 17.7266 100.039 17.7266ZM118.641 24.2891C118.328 24.2891 118.068 24.1927 117.859 24C117.651 23.8073 117.547 23.5651 117.547 23.2734C117.547 22.8203 117.536 22.0078 117.516 20.8359C117.417 20.8359 117.331 20.8359 117.258 20.8359C116.138 20.8359 115.052 20.9479 114 21.1719C113.995 21.375 113.966 21.7422 113.914 22.2734C113.872 22.7266 113.852 23.1016 113.852 23.3984C113.852 23.6901 113.747 23.9323 113.539 24.125C113.336 24.3177 113.078 24.4141 112.766 24.4141C112.453 24.4141 112.193 24.3177 111.984 24.125C111.781 23.9323 111.68 23.6875 111.68 23.3906C111.68 23.2135 111.703 22.974 111.75 22.6719C111.802 22.3646 111.828 22.1224 111.828 21.9453C111.828 21.6536 111.82 21.2161 111.805 20.6328C111.789 20.0443 111.781 19.6042 111.781 19.3125C111.781 19.0052 111.781 18.5521 111.781 17.9531C111.786 17.3542 111.789 16.901 111.789 16.5938C111.789 16.3021 111.891 16.0599 112.094 15.8672C112.302 15.6745 112.562 15.5781 112.875 15.5781C113.188 15.5781 113.448 15.6745 113.656 15.8672C113.865 16.0599 113.969 16.3021 113.969 16.5938C113.969 16.9271 113.974 17.3438 113.984 17.8438C114 18.5365 114.008 18.9479 114.008 19.0781C115.107 18.8698 116.266 18.7786 117.484 18.8047V18.6328C117.484 18.3672 117.495 17.987 117.516 17.4922C117.536 16.9974 117.547 16.6224 117.547 16.3672C117.547 16.0755 117.651 15.8333 117.859 15.6406C118.068 15.4479 118.328 15.3516 118.641 15.3516C118.953 15.3516 119.211 15.4479 119.414 15.6406C119.622 15.8333 119.727 16.0755 119.727 16.3672C119.727 16.6276 119.716 17.0052 119.695 17.5C119.674 17.9948 119.664 18.3724 119.664 18.6328C119.664 19.1641 119.674 19.9375 119.695 20.9531C119.716 21.9688 119.727 22.7422 119.727 23.2734C119.727 23.5651 119.622 23.8073 119.414 24C119.211 24.1927 118.953 24.2891 118.641 24.2891ZM127.898 24.5156C127.659 24.5156 127.279 24.2552 126.758 23.7344C126.279 23.9635 125.857 24.1354 125.492 24.25C125.128 24.3698 124.818 24.4297 124.562 24.4297C123.307 24.4297 122.365 24.0938 121.734 23.4219C121.109 22.75 120.797 21.7448 120.797 20.4062C120.797 19.151 121.26 18.0781 122.188 17.1875C123.115 16.2917 124.224 15.8438 125.516 15.8438C126.01 15.8438 126.583 15.9844 127.234 16.2656C128.021 16.6042 128.414 16.9974 128.414 17.4453C128.414 17.6328 128.354 17.7969 128.234 17.9375C128.182 18.1458 128.141 18.4089 128.109 18.7266C128.083 19.0391 128.07 19.4062 128.07 19.8281C128.07 20.8229 128.141 21.5391 128.281 21.9766C128.297 22.0234 128.417 22.2943 128.641 22.7891C128.844 23.237 128.945 23.4922 128.945 23.5547C128.945 23.8307 128.839 24.0599 128.625 24.2422C128.417 24.4245 128.174 24.5156 127.898 24.5156ZM125.961 19.1562C125.961 18.9896 125.971 18.7995 125.992 18.5859C126.018 18.3672 126.055 18.125 126.102 17.8594C125.997 17.8073 125.904 17.7708 125.82 17.75C125.742 17.724 125.674 17.7109 125.617 17.7109C124.909 17.7109 124.289 17.9896 123.758 18.5469C123.227 19.099 122.961 19.7396 122.961 20.4688C122.961 21.1667 123.086 21.6927 123.336 22.0469C123.586 22.3958 123.961 22.5703 124.461 22.5703C124.784 22.5703 125.089 22.5182 125.375 22.4141C125.667 22.3047 125.94 22.1458 126.195 21.9375C126.039 20.6979 125.961 19.7708 125.961 19.1562ZM142.5 17.8203C142.359 17.8203 142.148 17.8151 141.867 17.8047C141.591 17.7891 141.383 17.7812 141.242 17.7812C141.164 17.7812 141.078 17.7865 140.984 17.7969C141.094 20.1354 141.148 21.7865 141.148 22.75C141.148 23.9167 140.768 24.5 140.008 24.5C139.727 24.5 139.479 24.4141 139.266 24.2422C139.036 24.0599 138.922 23.8281 138.922 23.5469C138.922 23.3646 138.93 23.0885 138.945 22.7188C138.961 22.3438 138.969 22.0651 138.969 21.8828C138.969 21.1693 138.922 19.8177 138.828 17.8281C138.734 17.8281 138.503 17.8281 138.133 17.8281C137.602 17.8281 137.214 17.7786 136.969 17.6797C136.578 17.5234 136.383 17.224 136.383 16.7812C136.383 16.5 136.479 16.2578 136.672 16.0547C136.87 15.8464 137.125 15.7422 137.438 15.7422H142.055C143.07 15.7422 143.578 16.0911 143.578 16.7891C143.578 17.0807 143.477 17.3255 143.273 17.5234C143.076 17.7214 142.818 17.8203 142.5 17.8203ZM145.617 24.3594C145.336 24.3594 145.076 24.2604 144.836 24.0625C144.576 23.8542 144.445 23.612 144.445 23.3359V21.9609C144.445 21.3776 144.456 20.6146 144.477 19.6719C144.508 18.4375 144.523 17.6771 144.523 17.3906C144.529 17 144.562 16.7188 144.625 16.5469C144.729 16.2552 144.938 16.0703 145.25 15.9922C145.698 15.8724 146.336 15.8125 147.164 15.8125C148.055 15.8125 148.867 16.0156 149.602 16.4219C150.503 16.9115 150.953 17.5807 150.953 18.4297C150.953 19.0599 150.669 19.5599 150.102 19.9297C151.055 20.5339 151.531 21.1693 151.531 21.8359C151.531 22.7839 150.753 23.4766 149.195 23.9141C148.148 24.2109 146.956 24.3594 145.617 24.3594ZM147.43 17.6484H147.109C146.911 17.6484 146.745 17.651 146.609 17.6562C146.609 17.7604 146.609 17.9349 146.609 18.1797C146.609 18.2839 146.617 18.4609 146.633 18.7109C146.654 19.0026 146.664 19.1797 146.664 19.2422C146.883 19.2578 147.047 19.2656 147.156 19.2656C147.505 19.2656 147.849 19.2083 148.188 19.0938C148.641 18.9375 148.867 18.7161 148.867 18.4297C148.867 18.2578 148.703 18.0859 148.375 17.9141C148.047 17.737 147.732 17.6484 147.43 17.6484ZM147.984 20.6172C147.87 20.5964 147.391 20.5729 146.547 20.5469C146.536 20.7396 146.531 21.0208 146.531 21.3906V22.5C148.417 22.4167 149.359 22.1745 149.359 21.7734C149.359 21.5495 149.182 21.3073 148.828 21.0469C148.516 20.8125 148.234 20.6693 147.984 20.6172ZM156.375 24.4844C155.198 24.4844 154.193 24.1589 153.359 23.5078C152.469 22.8047 152.023 21.8958 152.023 20.7812C152.023 19.5208 152.435 18.3672 153.258 17.3203C154.201 16.1172 155.401 15.5156 156.859 15.5156C159.651 15.5156 161.047 16.75 161.047 19.2188C161.047 20.4792 160.669 21.625 159.914 22.6562C159.018 23.875 157.839 24.4844 156.375 24.4844ZM156.859 17.5703C156.167 17.5703 155.562 17.9036 155.047 18.5703C154.531 19.2318 154.273 19.9688 154.273 20.7812C154.273 21.2708 154.469 21.6693 154.859 21.9766C155.255 22.2839 155.76 22.4375 156.375 22.4375C157.047 22.4375 157.622 22.1042 158.102 21.4375C158.565 20.7969 158.797 20.0573 158.797 19.2188C158.797 18.5677 158.661 18.1302 158.391 17.9062C158.125 17.6823 157.615 17.5703 156.859 17.5703ZM170.547 23.4375C170.547 23.724 170.443 23.9635 170.234 24.1562C170.026 24.3542 169.768 24.4531 169.461 24.4531C169.148 24.4531 168.888 24.3542 168.68 24.1562C168.471 23.9635 168.367 23.724 168.367 23.4375C168.367 23.125 168.383 22.6562 168.414 22.0312C168.445 21.401 168.461 20.9297 168.461 20.6172C168.461 20.3307 168.448 20.0286 168.422 19.7109C167.453 21.0182 166.583 21.9792 165.812 22.5938C165.115 23.1458 164.596 23.5859 164.258 23.9141C163.919 24.237 163.555 24.3984 163.164 24.3984C162.872 24.3984 162.612 24.3255 162.383 24.1797C162.117 24.0026 161.984 23.7552 161.984 23.4375C161.984 22.0573 161.958 20.6172 161.906 19.1172C161.849 17.5599 161.82 16.7969 161.82 16.8281C161.82 16.5312 161.922 16.2865 162.125 16.0938C162.328 15.8958 162.591 15.7969 162.914 15.7969C163.497 15.7969 163.854 16.099 163.984 16.7031C164.005 16.7865 164.029 17.2917 164.055 18.2188L164.133 21.1953C164.805 20.5911 165.521 19.8438 166.281 18.9531C166.458 18.7448 167.107 17.9453 168.227 16.5547C168.596 16.0911 169.008 15.8594 169.461 15.8594C169.768 15.8594 170.026 15.9583 170.234 16.1562C170.443 16.349 170.547 16.5885 170.547 16.875C170.547 17.4167 170.557 18.2292 170.578 19.3125C170.599 20.3958 170.609 21.2083 170.609 21.75C170.609 21.9375 170.599 22.2188 170.578 22.5938C170.557 22.9688 170.547 23.25 170.547 23.4375ZM177.766 17.8203C177.625 17.8203 177.414 17.8151 177.133 17.8047C176.857 17.7891 176.648 17.7812 176.508 17.7812C176.43 17.7812 176.344 17.7865 176.25 17.7969C176.359 20.1354 176.414 21.7865 176.414 22.75C176.414 23.9167 176.034 24.5 175.273 24.5C174.992 24.5 174.745 24.4141 174.531 24.2422C174.302 24.0599 174.188 23.8281 174.188 23.5469C174.188 23.3646 174.195 23.0885 174.211 22.7188C174.227 22.3438 174.234 22.0651 174.234 21.8828C174.234 21.1693 174.188 19.8177 174.094 17.8281C174 17.8281 173.768 17.8281 173.398 17.8281C172.867 17.8281 172.479 17.7786 172.234 17.6797C171.844 17.5234 171.648 17.224 171.648 16.7812C171.648 16.5 171.745 16.2578 171.938 16.0547C172.135 15.8464 172.391 15.7422 172.703 15.7422H177.32C178.336 15.7422 178.844 16.0911 178.844 16.7891C178.844 17.0807 178.742 17.3255 178.539 17.5234C178.341 17.7214 178.083 17.8203 177.766 17.8203ZM183.734 24.3594C182.49 24.3594 181.471 24.0625 180.68 23.4688C179.805 22.8125 179.367 21.888 179.367 20.6953C179.367 19.3776 179.714 18.263 180.406 17.3516C181.177 16.3411 182.216 15.8359 183.523 15.8359C184.43 15.8359 185.182 15.9818 185.781 16.2734C186.568 16.6589 186.961 17.2578 186.961 18.0703C186.961 18.6432 186.641 19.151 186 19.5938C185.708 19.7969 185.122 20.0938 184.242 20.4844L181.609 21.6484C181.859 21.9193 182.161 22.1224 182.516 22.2578C182.87 22.3932 183.276 22.4609 183.734 22.4609C184.432 22.4609 185.023 22.3177 185.508 22.0312C185.94 21.776 186.286 21.6484 186.547 21.6484C187.089 21.6484 187.359 21.9115 187.359 22.4375C187.359 23.0312 186.924 23.5156 186.055 23.8906C185.326 24.2031 184.552 24.3594 183.734 24.3594ZM183.523 17.7266C183.039 17.7266 182.625 17.888 182.281 18.2109C181.938 18.5339 181.661 19.0182 181.453 19.6641C182.042 19.4089 182.628 19.1562 183.211 18.9062C183.914 18.5885 184.474 18.2943 184.891 18.0234C184.542 17.8255 184.086 17.7266 183.523 17.7266ZM199.469 24.4844C198.292 24.4844 197.286 24.1589 196.453 23.5078C195.562 22.8047 195.117 21.8958 195.117 20.7812C195.117 19.5208 195.529 18.3672 196.352 17.3203C197.294 16.1172 198.495 15.5156 199.953 15.5156C202.745 15.5156 204.141 16.75 204.141 19.2188C204.141 20.4792 203.763 21.625 203.008 22.6562C202.112 23.875 200.932 24.4844 199.469 24.4844ZM199.953 17.5703C199.26 17.5703 198.656 17.9036 198.141 18.5703C197.625 19.2318 197.367 19.9688 197.367 20.7812C197.367 21.2708 197.562 21.6693 197.953 21.9766C198.349 22.2839 198.854 22.4375 199.469 22.4375C200.141 22.4375 200.716 22.1042 201.195 21.4375C201.659 20.7969 201.891 20.0573 201.891 19.2188C201.891 18.5677 201.755 18.1302 201.484 17.9062C201.219 17.6823 200.708 17.5703 199.953 17.5703ZM210.672 17.8203C210.531 17.8203 210.32 17.8151 210.039 17.8047C209.763 17.7891 209.555 17.7812 209.414 17.7812C209.336 17.7812 209.25 17.7865 209.156 17.7969C209.266 20.1354 209.32 21.7865 209.32 22.75C209.32 23.9167 208.94 24.5 208.18 24.5C207.898 24.5 207.651 24.4141 207.438 24.2422C207.208 24.0599 207.094 23.8281 207.094 23.5469C207.094 23.3646 207.102 23.0885 207.117 22.7188C207.133 22.3438 207.141 22.0651 207.141 21.8828C207.141 21.1693 207.094 19.8177 207 17.8281C206.906 17.8281 206.674 17.8281 206.305 17.8281C205.773 17.8281 205.385 17.7786 205.141 17.6797C204.75 17.5234 204.555 17.224 204.555 16.7812C204.555 16.5 204.651 16.2578 204.844 16.0547C205.042 15.8464 205.297 15.7422 205.609 15.7422H210.227C211.242 15.7422 211.75 16.0911 211.75 16.7891C211.75 17.0807 211.648 17.3255 211.445 17.5234C211.247 17.7214 210.99 17.8203 210.672 17.8203ZM214.867 17.7422C214.904 18.0078 214.945 18.4036 214.992 18.9297C215.07 21.0339 215.109 22.5052 215.109 23.3438C215.109 23.6354 215.005 23.8776 214.797 24.0703C214.589 24.263 214.328 24.3594 214.016 24.3594C213.703 24.3594 213.443 24.263 213.234 24.0703C213.031 23.8776 212.93 23.6354 212.93 23.3438C212.93 22.5365 212.893 21.0859 212.82 18.9922C212.815 18.7995 212.781 18.4818 212.719 18.0391C212.667 17.6328 212.641 17.3177 212.641 17.0938C212.641 16.1823 213.346 15.7266 214.758 15.7266C215.049 15.7266 215.49 15.7396 216.078 15.7656C216.672 15.7917 217.115 15.8047 217.406 15.8047C217.526 15.8047 217.703 15.7969 217.938 15.7812C218.177 15.7604 218.357 15.75 218.477 15.75C218.784 15.75 219.042 15.8516 219.25 16.0547C219.443 16.2526 219.539 16.4922 219.539 16.7734C219.539 17.2526 219.292 17.5677 218.797 17.7188C218.542 17.7969 218.096 17.8359 217.461 17.8359C217.185 17.8359 216.753 17.8203 216.164 17.7891C215.596 17.7578 215.164 17.7422 214.867 17.7422ZM224.016 24.4844C222.839 24.4844 221.833 24.1589 221 23.5078C220.109 22.8047 219.664 21.8958 219.664 20.7812C219.664 19.5208 220.076 18.3672 220.898 17.3203C221.841 16.1172 223.042 15.5156 224.5 15.5156C227.292 15.5156 228.688 16.75 228.688 19.2188C228.688 20.4792 228.31 21.625 227.555 22.6562C226.659 23.875 225.479 24.4844 224.016 24.4844ZM224.5 17.5703C223.807 17.5703 223.203 17.9036 222.688 18.5703C222.172 19.2318 221.914 19.9688 221.914 20.7812C221.914 21.2708 222.109 21.6693 222.5 21.9766C222.896 22.2839 223.401 22.4375 224.016 22.4375C224.688 22.4375 225.263 22.1042 225.742 21.4375C226.206 20.7969 226.438 20.0573 226.438 19.2188C226.438 18.5677 226.302 18.1302 226.031 17.9062C225.766 17.6823 225.255 17.5703 224.5 17.5703ZM230.789 24.3594C230.508 24.3594 230.247 24.2604 230.008 24.0625C229.747 23.8542 229.617 23.612 229.617 23.3359V21.9609C229.617 21.3776 229.628 20.6146 229.648 19.6719C229.68 18.4375 229.695 17.6771 229.695 17.3906C229.701 17 229.734 16.7188 229.797 16.5469C229.901 16.2552 230.109 16.0703 230.422 15.9922C230.87 15.8724 231.508 15.8125 232.336 15.8125C233.227 15.8125 234.039 16.0156 234.773 16.4219C235.674 16.9115 236.125 17.5807 236.125 18.4297C236.125 19.0599 235.841 19.5599 235.273 19.9297C236.227 20.5339 236.703 21.1693 236.703 21.8359C236.703 22.7839 235.924 23.4766 234.367 23.9141C233.32 24.2109 232.128 24.3594 230.789 24.3594ZM232.602 17.6484H232.281C232.083 17.6484 231.917 17.651 231.781 17.6562C231.781 17.7604 231.781 17.9349 231.781 18.1797C231.781 18.2839 231.789 18.4609 231.805 18.7109C231.826 19.0026 231.836 19.1797 231.836 19.2422C232.055 19.2578 232.219 19.2656 232.328 19.2656C232.677 19.2656 233.021 19.2083 233.359 19.0938C233.812 18.9375 234.039 18.7161 234.039 18.4297C234.039 18.2578 233.875 18.0859 233.547 17.9141C233.219 17.737 232.904 17.6484 232.602 17.6484ZM233.156 20.6172C233.042 20.5964 232.562 20.5729 231.719 20.5469C231.708 20.7396 231.703 21.0208 231.703 21.3906V22.5C233.589 22.4167 234.531 22.1745 234.531 21.7734C234.531 21.5495 234.354 21.3073 234 21.0469C233.688 20.8125 233.406 20.6693 233.156 20.6172ZM241.547 24.4844C240.37 24.4844 239.365 24.1589 238.531 23.5078C237.641 22.8047 237.195 21.8958 237.195 20.7812C237.195 19.5208 237.607 18.3672 238.43 17.3203C239.372 16.1172 240.573 15.5156 242.031 15.5156C244.823 15.5156 246.219 16.75 246.219 19.2188C246.219 20.4792 245.841 21.625 245.086 22.6562C244.19 23.875 243.01 24.4844 241.547 24.4844ZM242.031 17.5703C241.339 17.5703 240.734 17.9036 240.219 18.5703C239.703 19.2318 239.445 19.9688 239.445 20.7812C239.445 21.2708 239.641 21.6693 240.031 21.9766C240.427 22.2839 240.932 22.4375 241.547 22.4375C242.219 22.4375 242.794 22.1042 243.273 21.4375C243.737 20.7969 243.969 20.0573 243.969 19.2188C243.969 18.5677 243.833 18.1302 243.562 17.9062C243.297 17.6823 242.786 17.5703 242.031 17.5703ZM250.844 24.4609C250.396 24.4609 249.924 24.4089 249.43 24.3047L249.422 27.4922C249.422 27.7943 249.32 28.0443 249.117 28.2422C248.914 28.4401 248.656 28.5391 248.344 28.5391C248.031 28.5391 247.773 28.4401 247.57 28.2422C247.367 28.0443 247.266 27.7943 247.266 27.4922C247.266 27.2474 247.271 26.276 247.281 24.5781C247.292 23.3177 247.292 22.2891 247.281 21.4922C247.266 20.3672 247.229 19.3984 247.172 18.5859C247.094 17.4661 247.055 16.9531 247.055 17.0469C247.055 16.6146 247.151 16.2448 247.344 15.9375C247.568 15.5885 247.87 15.4141 248.25 15.4141C248.542 15.4141 248.786 15.513 248.984 15.7109C249.182 15.9089 249.281 16.1458 249.281 16.4219L249.273 16.5C249.622 16.3021 249.971 16.1562 250.32 16.0625C250.674 15.9635 251.029 15.9141 251.383 15.9141C252.581 15.9141 253.456 16.4219 254.008 17.4375C254.419 18.2031 254.625 19.1953 254.625 20.4141C254.625 21.5547 254.299 22.5 253.648 23.25C252.951 24.0573 252.016 24.4609 250.844 24.4609ZM251.383 18C251.055 18 250.721 18.0781 250.383 18.2344C250.044 18.3854 249.703 18.6146 249.359 18.9219C249.422 19.9948 249.453 21.0703 249.453 22.1484C249.917 22.2995 250.38 22.375 250.844 22.375C251.38 22.375 251.792 22.1849 252.078 21.8047C252.339 21.4609 252.469 20.9974 252.469 20.4141C252.469 19.7109 252.438 19.224 252.375 18.9531C252.224 18.3177 251.893 18 251.383 18ZM264.281 23.4375C264.281 23.724 264.177 23.9635 263.969 24.1562C263.76 24.3542 263.503 24.4531 263.195 24.4531C262.883 24.4531 262.622 24.3542 262.414 24.1562C262.206 23.9635 262.102 23.724 262.102 23.4375C262.102 23.125 262.117 22.6562 262.148 22.0312C262.18 21.401 262.195 20.9297 262.195 20.6172C262.195 20.3307 262.182 20.0286 262.156 19.7109C261.188 21.0182 260.318 21.9792 259.547 22.5938C258.849 23.1458 258.331 23.5859 257.992 23.9141C257.654 24.237 257.289 24.3984 256.898 24.3984C256.607 24.3984 256.346 24.3255 256.117 24.1797C255.852 24.0026 255.719 23.7552 255.719 23.4375C255.719 22.0573 255.693 20.6172 255.641 19.1172C255.583 17.5599 255.555 16.7969 255.555 16.8281C255.555 16.5312 255.656 16.2865 255.859 16.0938C256.062 15.8958 256.326 15.7969 256.648 15.7969C257.232 15.7969 257.589 16.099 257.719 16.7031C257.74 16.7865 257.763 17.2917 257.789 18.2188L257.867 21.1953C258.539 20.5911 259.255 19.8438 260.016 18.9531C260.193 18.7448 260.841 17.9453 261.961 16.5547C262.331 16.0911 262.742 15.8594 263.195 15.8594C263.503 15.8594 263.76 15.9583 263.969 16.1562C264.177 16.349 264.281 16.5885 264.281 16.875C264.281 17.4167 264.292 18.2292 264.312 19.3125C264.333 20.3958 264.344 21.2083 264.344 21.75C264.344 21.9375 264.333 22.2188 264.312 22.5938C264.292 22.9688 264.281 23.25 264.281 23.4375Z" fill="black"/>
<path d="M44.8125 26.8047H245.898V28.1719H44.8125V26.8047ZM250.789 26.8047H265.188V28.1719H250.789V26.8047Z" fill="black"/>
</svg>
