<svg width="318" height="65" viewBox="0 0 318 65" fill="none" xmlns="http://www.w3.org/2000/svg">
<path d="M4.26221 4.21289L314.156 9.55086L313.273 60.8433L3.37869 55.5053L4.26221 4.21289Z" fill="#EEEEEE"/>
<path d="M20.53 2.94514L20.3149 5.59932L20.53 2.94514ZM27.0256 3.10676L26.9426 0.445171L27.0256 3.10676ZM111.465 5.43021L110.883 2.8317L111.465 5.43021ZM215.39 8.25889L214.971 5.62926L215.39 8.25889ZM221.885 8.46093L221.306 11.06L221.885 8.46093ZM241.384 8.23475L241.667 5.58695L241.384 8.23475ZM260.862 9.23748L261.509 11.8205L260.862 9.23748ZM313.782 14.7304L316.423 15.0706L313.782 14.7304ZM314.078 27.7323L311.6 28.7093L314.078 27.7323ZM313.813 34.2262L316.212 35.3832L313.813 34.2262ZM313.523 47.2179L311.143 46.0237L313.523 47.2179ZM311.392 59.3489L313.934 60.142L311.392 59.3489ZM307.397 61.4348L307.659 58.7849L307.397 61.4348ZM294.412 60.739L295.508 63.1661L294.412 60.739ZM287.919 60.4227L286.623 62.7485L287.919 60.4227ZM261.926 60.4066L262.653 57.8449L261.926 60.4066ZM255.454 58.897L254.975 61.5165L255.454 58.897ZM248.943 59.6012L249.924 62.0769L248.943 59.6012ZM242.422 60.9004L242.42 58.2375L242.422 60.9004ZM222.949 59.6211L221.927 57.1621L222.949 59.6211ZM203.458 59.3691L203.202 56.7185L203.458 59.3691ZM190.459 59.5122L190.002 56.8888L190.459 59.5122ZM183.957 59.699L184.268 57.0542L183.957 59.699ZM177.46 59.6366L177.201 56.9863L177.46 59.6366ZM164.482 58.5369L164.485 61.1998L164.482 58.5369ZM157.996 57.8631L158.541 55.2566L157.996 57.8631ZM138.504 57.6737L138.353 55.0151L138.504 57.6737ZM131.991 58.5163L132.518 61.1264L131.991 58.5163ZM125.483 59.0689L125.396 61.7304L125.483 59.0689ZM99.5055 58.1249L99.4162 60.7863L99.5055 58.1249ZM86.5085 58.1362L86.3768 55.4766L86.5085 58.1362ZM67.0383 56.6834L65.9554 54.2507V54.2507L67.0383 56.6834ZM47.5423 56.7314L47.8759 54.0895L47.5423 56.7314ZM41.0426 56.8089L40.649 54.1753L41.0426 56.8089ZM34.5587 55.9683L33.5454 58.4309L34.5587 55.9683ZM21.5606 56.0471L20.4564 58.4703L21.5606 56.0471ZM8.58693 54.7021L9.22027 52.1156L8.58693 54.7021ZM4.86092 52.4395L7.38697 51.5969L4.86092 52.4395ZM3.40175 34.7065L0.754279 34.4205L3.40175 34.7065ZM7.52491 3.42855L8.14733 6.01767C10.1204 5.54334 12.0768 5.31466 14.0209 5.32601L14.0365 2.66318L14.052 0.000342589C11.6643 -0.0135973 9.27966 0.267974 6.9025 0.839432L7.52491 3.42855ZM14.0365 2.66318L14.0209 5.32601C16.1201 5.33827 18.218 5.42936 20.3149 5.59932L20.53 2.94514L20.7452 0.290967C18.5158 0.110264 16.2847 0.0133775 14.052 0.000342589L14.0365 2.66318ZM20.53 2.94514L20.3149 5.59932C22.5771 5.78268 24.8418 5.83904 27.1086 5.76834L27.0256 3.10676L26.9426 0.445171C24.8749 0.509656 22.8092 0.458268 20.7452 0.290967L20.53 2.94514ZM27.0256 3.10676L27.1086 5.76834C28.7832 5.71612 30.5016 6.10326 32.2959 7.01073L33.4977 4.63447L34.6995 2.25821C32.199 0.993553 29.6027 0.362216 26.9426 0.445171L27.0256 3.10676ZM33.4977 4.63447L32.2959 7.01073C35.1131 8.43555 38.081 8.58435 40.9936 7.40064L39.9909 4.93372L38.9883 2.46679C37.5381 3.05621 36.1771 3.00551 34.6995 2.25821L33.4977 4.63447ZM39.9909 4.93372L40.9936 7.40064C42.8922 6.62898 44.7365 6.25144 46.5408 6.23251L46.5128 3.56978L46.4849 0.907046C43.9561 0.933573 41.4525 1.46533 38.9883 2.46679L39.9909 4.93372ZM46.5128 3.56978L46.5408 6.23251C48.45 6.21249 50.363 6.46468 52.2864 6.99679L52.9964 4.43031L53.7064 1.86383C51.3181 1.20312 48.9087 0.881621 46.4849 0.907046L46.5128 3.56978ZM52.9964 4.43031L52.2864 6.99679C54.4602 7.59816 56.6345 8.17517 58.8094 8.72781L59.4652 6.14695L60.121 3.56608C57.9825 3.0227 55.8443 2.45528 53.7064 1.86383L52.9964 4.43031ZM59.4652 6.14695L58.8094 8.72781C61.6628 9.45285 64.4976 9.0392 67.1958 7.6524L65.9785 5.28404L64.7612 2.91568C63.0884 3.77545 61.5811 3.93708 60.121 3.56608L59.4652 6.14695ZM65.9785 5.28404L67.1958 7.6524C68.6636 6.89797 69.9504 6.89233 71.3199 7.55451L72.4791 5.15715L73.6382 2.7598C70.7113 1.34459 67.6643 1.42354 64.7612 2.91568L65.9785 5.28404ZM72.4791 5.15715L71.3199 7.55451C73.8615 8.78339 76.5035 9.3153 79.2008 9.06605L78.9558 6.41446L78.7108 3.76288C77.069 3.9146 75.3931 3.6083 73.6382 2.7598L72.4791 5.15715ZM78.9558 6.41446L79.2008 9.06605C81.4139 8.86155 83.6275 8.60213 85.8416 8.28784L85.4673 5.65139L85.0931 3.01494C82.9643 3.31711 80.8369 3.56641 78.7108 3.76288L78.9558 6.41446ZM85.4673 5.65139L85.8416 8.28784C87.8887 7.99725 89.9304 7.85457 91.9677 7.85903L91.9736 5.19616L91.9794 2.53328C89.6846 2.52826 87.3888 2.68906 85.0931 3.01494L85.4673 5.65139ZM91.9736 5.19616L91.9677 7.85903C94.0006 7.86348 96.032 8.0198 98.0631 8.32858L98.4633 5.69595L98.8636 3.06332C96.5737 2.7152 94.2787 2.53832 91.9794 2.53328L91.9736 5.19616ZM98.4633 5.69595L98.0631 8.32858C100.359 8.67756 102.66 8.84742 104.965 8.83751L104.953 6.17466L104.942 3.5118C102.915 3.52052 100.889 3.37124 98.8636 3.06332L98.4633 5.69595ZM104.953 6.17466L104.965 8.83751C107.329 8.82736 109.69 8.55645 112.047 8.02872L111.465 5.43021L110.883 2.8317C108.89 3.27794 106.911 3.50334 104.942 3.5118L104.953 6.17466ZM111.465 5.43021L112.047 8.02872C113.815 7.63276 115.557 7.65646 117.309 8.09925L117.962 5.5176L118.614 2.93594C116.052 2.28824 113.464 2.25368 110.883 2.8317L111.465 5.43021ZM117.962 5.5176L117.309 8.09925C119.493 8.65139 121.678 9.16698 123.864 9.64599L124.434 7.04484L125.004 4.44368C122.874 3.97688 120.744 3.4743 118.614 2.93594L117.962 5.5176ZM124.434 7.04484L123.864 9.64599C126.591 10.2438 129.316 9.95463 131.964 8.85571L130.943 6.39618L129.923 3.93666C128.207 4.64843 126.592 4.79173 125.004 4.44368L124.434 7.04484ZM130.943 6.39618L131.964 8.85571C133.635 8.16235 135.2 8.06383 136.753 8.48471L137.45 5.91453L138.146 3.34434C135.387 2.59673 132.615 2.81932 129.923 3.93666L130.943 6.39618ZM137.45 5.91453L136.753 8.48471C139.246 9.16022 141.769 9.33079 144.3 8.98663L143.941 6.34803L143.582 3.70944C141.771 3.95575 139.966 3.83732 138.146 3.34434L137.45 5.91453ZM143.941 6.34803L144.3 8.98663C145.989 8.75686 147.688 8.96782 149.438 9.66593L150.425 7.19262L151.411 4.71931C148.859 3.70083 146.235 3.34873 143.582 3.70944L143.941 6.34803ZM150.425 7.19262L149.438 9.66593C152.336 10.822 155.294 10.6369 158.116 9.2308L156.929 6.84733L155.742 4.46385C154.194 5.23477 152.816 5.27986 151.411 4.71931L150.425 7.19262ZM156.929 6.84733L158.116 9.2308C159.823 8.38049 161.383 8.18751 162.889 8.508L163.444 5.90343L163.998 3.29886C161.188 2.7009 158.405 3.13719 155.742 4.46385L156.929 6.84733ZM163.444 5.90343L162.889 8.508C165.049 8.96741 167.208 9.4257 169.367 9.88288L169.918 7.27776L170.47 4.67264C168.313 4.21583 166.155 3.7579 163.998 3.29886L163.444 5.90343ZM169.918 7.27776L169.367 9.88288C171.587 10.353 173.81 10.741 176.035 11.0469L176.397 8.40884L176.76 5.77076C174.663 5.48251 172.566 5.11653 170.47 4.67264L169.918 7.27776ZM176.397 8.40884L176.035 11.0469C178.326 11.3619 180.623 11.505 182.923 11.4758L182.889 8.81313L182.855 6.15046C180.822 6.1763 178.791 6.04989 176.76 5.77076L176.397 8.40884ZM182.889 8.81313L182.923 11.4758C185.176 11.4472 187.431 11.3082 189.686 11.0592L189.394 8.41239L189.102 5.7656C187.017 5.99582 184.935 6.12403 182.855 6.15046L182.889 8.81313ZM189.394 8.41239L189.686 11.0592C191.638 10.8437 193.582 10.871 195.524 11.1408L195.891 8.50323L196.257 5.86568C193.878 5.53514 191.491 5.5018 189.102 5.7656L189.394 8.41239ZM195.891 8.50323L195.524 11.1408C197.93 11.475 200.343 11.4733 202.757 11.1367L202.389 8.49931L202.022 5.86195C200.093 6.13096 198.173 6.13186 196.257 5.86568L195.891 8.50323ZM202.389 8.49931L202.757 11.1367C204.709 10.8645 206.652 10.8387 208.59 11.0579L208.889 8.41189L209.188 5.76588C206.803 5.49608 204.412 5.52856 202.022 5.86195L202.389 8.49931ZM208.889 8.41189L208.59 11.0579C210.994 11.3298 213.403 11.2725 215.81 10.8885L215.39 8.25889L214.971 5.62926C213.034 5.93826 211.109 5.98304 209.188 5.76588L208.889 8.41189ZM215.39 8.25889L215.81 10.8885C217.648 10.5952 219.474 10.6515 221.306 11.06L221.885 8.46093L222.465 5.86189C219.981 5.3079 217.477 5.2295 214.971 5.62926L215.39 8.25889ZM221.885 8.46093L221.306 11.06C224.031 11.6678 226.755 11.3911 229.405 10.304L228.394 7.84034L227.384 5.3767C225.67 6.07949 224.055 6.21652 222.465 5.86189L221.885 8.46093ZM228.394 7.84034L229.405 10.304C231.125 9.59832 232.749 9.45383 234.345 9.79657L234.904 7.19304L235.463 4.5895C232.743 4.00545 230.027 4.29249 227.384 5.3767L228.394 7.84034ZM234.904 7.19304L234.345 9.79657C236.593 10.2793 238.845 10.6414 241.101 10.8826L241.384 8.23475L241.667 5.58695C239.599 5.36593 237.531 5.03361 235.463 4.5895L234.904 7.19304ZM241.384 8.23475L241.101 10.8826C243.302 11.1177 245.503 11.3047 247.706 11.4433L247.873 8.78569L248.04 6.12807C245.915 5.9943 243.791 5.81393 241.667 5.58695L241.384 8.23475ZM247.873 8.78569L247.706 11.4433C249.78 11.5739 251.854 11.8094 253.927 12.1502L254.359 9.52259L254.791 6.89497C252.544 6.52565 250.294 6.26992 248.04 6.12807L247.873 8.78569ZM254.359 9.52259L253.927 12.1502C256.455 12.5657 258.99 12.4518 261.509 11.8205L260.862 9.23748L260.215 6.65445C258.383 7.11338 256.583 7.18954 254.791 6.89497L254.359 9.52259ZM260.862 9.23748L261.509 11.8205C263.474 11.3283 265.42 11.0935 267.352 11.1096L267.374 8.44685L267.396 5.78406C264.997 5.76407 262.602 6.05644 260.215 6.65445L260.862 9.23748ZM267.374 8.44685L267.352 11.1096C269.42 11.1269 271.487 11.2578 273.552 11.5026L273.865 8.85821L274.179 6.21384C271.921 5.94624 269.66 5.80292 267.396 5.78406L267.374 8.44685ZM273.865 8.85821L273.552 11.5026C275.809 11.77 278.068 11.9151 280.33 11.9375L280.357 9.27476L280.383 6.61201C278.314 6.59147 276.246 6.45881 274.179 6.21384L273.865 8.85821ZM280.357 9.27476L280.33 11.9375C282.458 11.9586 284.585 12.0254 286.711 12.1379L286.852 9.47872L286.992 6.81956C284.79 6.70307 282.587 6.63389 280.383 6.61201L280.357 9.27476ZM286.852 9.47872L286.711 12.1379C288.893 12.2533 291.075 12.3469 293.258 12.4186L293.345 9.75716L293.433 7.09572C291.285 7.02514 289.139 6.93309 286.992 6.81956L286.852 9.47872ZM293.345 9.75716L293.258 12.4186C295.716 12.4994 298.168 12.1789 300.602 11.4707L299.858 8.91381L299.114 6.35695C297.194 6.91552 295.304 7.15721 293.433 7.09572L293.345 9.75716ZM299.858 8.91381L300.602 11.4707C302.481 10.924 304.325 10.7343 306.15 10.8842L306.368 8.23029L306.586 5.57635C304.085 5.37085 301.589 5.63689 299.114 6.35695L299.858 8.91381ZM306.368 8.23029L306.15 10.8842C307.955 11.0325 309.357 11.5094 310.452 12.2231L311.906 9.99264L313.361 7.76222C311.397 6.48146 309.107 5.78345 306.586 5.57635L306.368 8.23029ZM311.906 9.99264L310.452 12.2231C310.791 12.4444 310.952 12.6669 311.046 12.9053C311.152 13.1736 311.239 13.6332 311.141 14.3903L313.782 14.7304L316.423 15.0706C316.604 13.6664 316.517 12.2557 315.998 10.9447C315.467 9.6038 314.551 8.53812 313.361 7.76222L311.906 9.99264ZM313.782 14.7304L311.141 14.3903C310.858 16.5861 310.619 18.7829 310.424 20.9807L313.076 21.2167L315.728 21.4527C315.918 19.3248 316.149 17.1974 316.423 15.0706L313.782 14.7304ZM313.076 21.2167L310.424 20.9807C310.191 23.5883 310.601 26.1745 311.6 28.7093L314.078 27.7323L316.555 26.7553C315.834 24.9282 315.575 23.1707 315.728 21.4527L313.076 21.2167ZM314.078 27.7323L311.6 28.7093C312.183 30.1855 312.135 31.5768 311.415 33.0691L313.813 34.2262L316.212 35.3832C317.564 32.579 317.693 29.641 316.555 26.7553L314.078 27.7323ZM313.813 34.2262L311.415 33.0691C310.04 35.9188 309.987 38.899 311.262 41.795L313.699 40.7226L316.136 39.6502C315.49 38.1808 315.514 36.83 316.212 35.3832L313.813 34.2262ZM313.699 40.7226L311.262 41.795C311.9 43.2449 311.868 44.5791 311.143 46.0237L313.523 47.2179L315.903 48.4122C317.334 45.5616 317.419 42.5656 316.136 39.6502L313.699 40.7226ZM313.523 47.2179L311.143 46.0237C309.887 48.5271 309.267 51.1258 309.364 53.787L312.025 53.6905L314.686 53.594C314.625 51.9203 315.004 50.2039 315.903 48.4122L313.523 47.2179ZM312.025 53.6905L309.364 53.787C309.434 55.7363 309.239 57.3084 308.85 58.5557L311.392 59.3489L313.934 60.142C314.546 58.1798 314.773 55.9797 314.686 53.594L312.025 53.6905ZM311.392 59.3489L308.85 58.5557C308.829 58.6223 308.81 58.6652 308.797 58.6901C308.791 58.7026 308.786 58.7109 308.782 58.7158C308.781 58.7183 308.78 58.72 308.779 58.7211C308.778 58.7222 308.778 58.7227 308.778 58.7227C308.778 58.7228 308.778 58.7224 308.779 58.7217C308.779 58.721 308.78 58.7201 308.781 58.719C308.783 58.7167 308.786 58.7145 308.788 58.7124C308.794 58.7078 308.794 58.7086 308.785 58.7135C308.741 58.7364 308.444 58.8626 307.659 58.7849L307.397 61.4348L307.135 64.0848C308.513 64.2212 309.962 64.1067 311.25 63.4344C312.621 62.7187 313.5 61.5321 313.934 60.142L311.392 59.3489ZM307.397 61.4348L307.659 58.7849C305.661 58.5871 303.66 58.2023 301.654 57.6275L300.92 60.1873L300.187 62.7472C302.491 63.4075 304.808 63.8544 307.135 64.0848L307.397 61.4348ZM300.92 60.1873L301.654 57.6275C298.849 56.8239 296.032 57.0863 293.317 58.3119L294.412 60.739L295.508 63.1661C297.158 62.4211 298.681 62.3157 300.187 62.7472L300.92 60.1873ZM294.412 60.739L293.317 58.3119C291.925 58.94 290.647 58.8949 289.216 58.0969L287.919 60.4227L286.623 62.7485C289.482 64.3429 292.533 64.5086 295.508 63.1661L294.412 60.739ZM287.919 60.4227L289.216 58.0969C286.398 56.5255 283.387 56.2889 280.42 57.5032L281.429 59.9676L282.437 62.4321C283.833 61.8607 285.15 61.9274 286.623 62.7485L287.919 60.4227ZM281.429 59.9676L280.42 57.5032C278.504 58.2873 276.639 58.6956 274.812 58.7597L274.905 61.4209L274.999 64.0822C277.507 63.9942 279.99 63.4337 282.437 62.4321L281.429 59.9676ZM274.905 61.4209L274.812 58.7597C272.704 58.8336 270.598 58.8364 268.493 58.7681L268.407 61.4296L268.32 64.0911C270.545 64.1633 272.771 64.1603 274.999 64.0822L274.905 61.4209ZM268.407 61.4296L268.493 58.7681C266.552 58.7052 264.607 58.3995 262.653 57.8449L261.926 60.4066L261.199 62.9683C263.556 63.6373 265.931 64.0136 268.32 64.0911L268.407 61.4296ZM261.926 60.4066L262.653 57.8449C260.417 57.2103 258.177 56.6877 255.932 56.2775L255.454 58.897L254.975 61.5165C257.049 61.8955 259.123 62.3792 261.199 62.9683L261.926 60.4066ZM255.454 58.897L255.932 56.2775C253.249 55.7871 250.574 56.0911 247.962 57.1255L248.943 59.6012L249.924 62.0769C251.675 61.3833 253.34 61.2178 254.975 61.5165L255.454 58.897ZM248.943 59.6012L247.962 57.1255C246.067 57.8765 244.224 58.2357 242.42 58.2375L242.422 60.9004L242.425 63.5633C244.953 63.5608 247.457 63.054 249.924 62.0769L248.943 59.6012ZM242.422 60.9004L242.42 58.2375C240.619 58.2392 238.799 57.8813 236.942 57.1326L235.946 59.6022L234.95 62.0718C237.396 63.0582 239.893 63.5657 242.425 63.5633L242.422 60.9004ZM235.946 59.6022L236.942 57.1326C234.502 56.1484 232.012 55.6336 229.487 55.6182L229.471 58.281L229.454 60.9439C231.261 60.9549 233.088 61.3209 234.95 62.0718L235.946 59.6022ZM229.471 58.281L229.487 55.6182C226.934 55.6026 224.408 56.1313 221.927 57.1621L222.949 59.6211L223.971 62.0801C225.854 61.2977 227.676 60.933 229.454 60.9439L229.471 58.281ZM222.949 59.6211L221.927 57.1621C220.095 57.9236 218.337 58.2138 216.624 58.0895L216.431 60.7454L216.239 63.4013C218.853 63.5911 221.44 63.1318 223.971 62.0801L222.949 59.6211ZM216.431 60.7454L216.624 58.0895C214.595 57.9421 212.565 57.6408 210.534 57.1842L209.95 59.7822L209.366 62.3803C211.65 62.8937 213.941 63.2344 216.239 63.4013L216.431 60.7454ZM209.95 59.7822L210.534 57.1842C208.104 56.6382 205.657 56.4814 203.202 56.7185L203.458 59.3691L203.714 62.0196C205.599 61.8376 207.479 61.9563 209.366 62.3803L209.95 59.7822ZM203.458 59.3691L203.202 56.7185C201.218 56.9102 199.239 56.8935 197.262 56.6684L196.961 59.3142L196.66 61.96C199.007 62.2272 201.36 62.247 203.714 62.0196L203.458 59.3691ZM196.961 59.3142L197.262 56.6684C194.844 56.3932 192.422 56.4677 190.002 56.8888L190.459 59.5122L190.916 62.1357C192.841 61.8005 194.754 61.743 196.66 61.96L196.961 59.3142ZM190.459 59.5122L190.002 56.8888C188.08 57.2234 186.171 57.2775 184.268 57.0542L183.957 59.699L183.647 62.3437C186.068 62.6277 188.493 62.5573 190.916 62.1357L190.459 59.5122ZM183.957 59.699L184.268 57.0542C181.917 56.7783 179.56 56.7558 177.201 56.9863L177.46 59.6366L177.719 62.2868C179.7 62.0933 181.675 62.1123 183.647 62.3437L183.957 59.699ZM177.46 59.6366L177.201 56.9863C175.313 57.1709 173.429 57.0579 171.539 56.6432L170.968 59.2442L170.398 61.8451C172.824 62.3778 175.268 62.5264 177.719 62.2868L177.46 59.6366ZM170.968 59.2442L171.539 56.6432C169.197 56.129 166.843 55.8717 164.48 55.874L164.482 58.5369L164.485 61.1998C166.454 61.1978 168.424 61.412 170.398 61.8451L170.968 59.2442ZM164.482 58.5369L164.48 55.874C162.501 55.876 160.522 55.6709 158.541 55.2566L157.996 57.8631L157.45 60.4696C159.786 60.9579 162.131 61.2021 164.485 61.1998L164.482 58.5369ZM157.996 57.8631L158.541 55.2566C156.274 54.7826 154.002 54.4544 151.725 54.2728L151.513 56.9272L151.301 59.5817C153.351 59.7452 155.4 60.0409 157.45 60.4696L157.996 57.8631ZM151.513 56.9272L151.725 54.2728C149.379 54.0856 147.029 54.1408 144.679 54.4373L145.012 57.0792L145.346 59.7212C147.337 59.4699 149.321 59.4237 151.301 59.5817L151.513 56.9272ZM145.012 57.0792L144.679 54.4373C142.568 54.7036 140.46 54.8961 138.353 55.0151L138.504 57.6737L138.654 60.3324C140.884 60.2065 143.114 60.0027 145.346 59.7212L145.012 57.0792ZM138.504 57.6737L138.353 55.0151C136.056 55.1448 133.759 55.4422 131.463 55.9061L131.991 58.5163L132.518 61.1264C134.57 60.7117 136.615 60.4475 138.654 60.3324L138.504 57.6737ZM131.991 58.5163L131.463 55.9061C129.487 56.3055 127.524 56.4714 125.57 56.4075L125.483 59.0689L125.396 61.7304C127.772 61.8081 130.147 61.6055 132.518 61.1264L131.991 58.5163ZM125.483 59.0689L125.57 56.4075C123.345 56.3346 121.118 56.3375 118.89 56.416L118.984 59.0772L119.078 61.7384C121.185 61.6642 123.291 61.6615 125.396 61.7304L125.483 59.0689ZM118.984 59.0772L118.89 56.416C117.004 56.4824 115.115 56.2556 113.213 55.7265L112.499 58.2918L111.785 60.8572C114.196 61.5279 116.629 61.8247 119.078 61.7384L118.984 59.0772ZM112.499 58.2918L113.213 55.7265C110.722 55.0332 108.2 54.8447 105.668 55.1719L106.009 57.8129L106.351 60.4538C108.16 60.2199 109.965 60.3506 111.785 60.8572L112.499 58.2918ZM106.009 57.8129L105.668 55.1719C103.638 55.4343 101.614 55.5312 99.5947 55.4635L99.5055 58.1249L99.4162 60.7863C101.726 60.8637 104.038 60.7526 106.351 60.4538L106.009 57.8129ZM99.5055 58.1249L99.5947 55.4635C97.4057 55.3901 95.2161 55.3465 93.026 55.3327L93.0093 57.9955L92.9926 60.6584C95.1343 60.6718 97.2755 60.7145 99.4162 60.7863L99.5055 58.1249ZM93.0093 57.9955L93.026 55.3327C90.8105 55.3188 88.5941 55.3668 86.3768 55.4766L86.5085 58.1362L86.6402 60.7958C88.7588 60.6909 90.8763 60.6451 92.9926 60.6584L93.0093 57.9955ZM86.5085 58.1362L86.3768 55.4766C84.4031 55.5743 82.4322 55.4572 80.4608 55.1238L80.0168 57.7494L79.5727 60.375C81.9209 60.7721 84.2779 60.9128 86.6402 60.7958L86.5085 58.1362ZM80.0168 57.7494L80.4608 55.1238C78.4171 54.7782 76.3714 54.2931 74.3231 53.6671L73.5448 56.2137L72.7665 58.7603C75.0278 59.4514 77.2967 59.9901 79.5727 60.375L80.0168 57.7494ZM73.5448 56.2137L74.3231 53.6671C71.5153 52.8089 68.6861 53.0351 65.9554 54.2507L67.0383 56.6834L68.1213 59.1161C69.7563 58.3883 71.2648 58.3013 72.7665 58.7603L73.5448 56.2137ZM67.0383 56.6834L65.9554 54.2507C64.3436 54.9682 62.86 55.0356 61.3716 54.5419L60.5333 57.0694L59.695 59.5968C62.5143 60.532 65.3674 60.342 68.1213 59.1161L67.0383 56.6834ZM60.5333 57.0694L61.3716 54.5419C58.8121 53.6929 56.203 53.4871 53.5835 53.9464L54.0435 56.5693L54.5035 59.1921C56.2294 58.8895 57.9468 59.017 59.695 59.5968L60.5333 57.0694ZM54.0435 56.5693L53.5835 53.9464C51.6696 54.2821 49.77 54.3287 47.8759 54.0895L47.5423 56.7314L47.2087 59.3733C49.6375 59.68 52.072 59.6185 54.5035 59.1921L54.0435 56.5693ZM47.5423 56.7314L47.8759 54.0895C45.4709 53.7858 43.0597 53.815 40.649 54.1753L41.0426 56.8089L41.4363 59.4426C43.369 59.1537 45.2909 59.1312 47.2087 59.3733L47.5423 56.7314ZM41.0426 56.8089L40.649 54.1753C38.9815 54.4245 37.3054 54.219 35.5719 53.5058L34.5587 55.9683L33.5454 58.4309C36.1138 59.4877 38.7602 59.8426 41.4363 59.4426L41.0426 56.8089ZM34.5587 55.9683L35.5719 53.5058C32.7334 52.3378 29.8143 52.3991 26.9878 53.6403L28.0584 56.0784L29.129 58.5166C30.6678 57.8409 32.0822 57.8288 33.5454 58.4309L34.5587 55.9683ZM28.0584 56.0784L26.9878 53.6403C25.4918 54.2972 24.1169 54.2856 22.6647 53.6239L21.5606 56.0471L20.4564 58.4703C23.3027 59.7672 26.2597 59.7765 29.129 58.5166L28.0584 56.0784ZM21.5606 56.0471L22.6647 53.6239C20.0912 52.4513 17.421 52.0178 14.7087 52.3993L15.0796 55.0362L15.4505 57.6731C17.081 57.4438 18.7314 57.6842 20.4564 58.4703L21.5606 56.0471ZM15.0796 55.0362L14.7087 52.3993C12.8765 52.657 11.0531 52.5644 9.22027 52.1156L8.58693 54.7021L7.95358 57.2885C10.4348 57.8961 12.9398 58.0263 15.4505 57.6731L15.0796 55.0362ZM8.58693 54.7021L9.22027 52.1156C8.28178 51.8858 7.72005 51.6465 7.41978 51.4642C7.12115 51.2828 7.28318 51.2857 7.38697 51.5969L4.86092 52.4395L2.33487 53.2821C2.76562 54.5734 3.71214 55.4435 4.65551 56.0164C5.59725 56.5882 6.73503 56.9901 7.95358 57.2885L8.58693 54.7021ZM4.86092 52.4395L7.38697 51.5969C7.07477 50.6609 6.59775 49.1178 5.95059 46.9436L3.39837 47.7032L0.846147 48.4629C1.49513 50.6433 1.99314 52.2576 2.33487 53.2821L4.86092 52.4395ZM3.39837 47.7032L5.95059 46.9436C5.39586 45.0799 5.21545 43.2544 5.38941 41.4489L2.73881 41.1935L0.0882033 40.9381C-0.154558 43.4577 0.104737 45.972 0.846147 48.4629L3.39837 47.7032ZM2.73881 41.1935L5.38941 41.4489C5.59679 39.2966 5.81673 37.1445 6.04922 34.9926L3.40175 34.7065L0.754279 34.4205C0.519577 36.5928 0.297551 38.7653 0.0882033 40.9381L2.73881 41.1935ZM3.40175 34.7065L6.04922 34.9926C6.29006 32.7635 6.44565 30.5325 6.51592 28.2997L3.85435 28.2159L1.19279 28.1322C1.12679 30.2293 0.980646 32.3253 0.754279 34.4205L3.40175 34.7065ZM3.85435 28.2159L6.51592 28.2997C6.5833 26.1587 6.6796 24.0182 6.80483 21.8781L4.1465 21.7226L1.48817 21.567C1.36014 23.7549 1.26168 25.9432 1.19279 28.1322L3.85435 28.2159ZM4.1465 21.7226L6.80483 21.8781C6.93496 19.6544 6.99002 17.4294 6.97001 15.203L4.30723 15.2269L1.64446 15.2509C1.6634 17.3575 1.6113 19.4628 1.48817 21.567L4.1465 21.7226ZM4.30723 15.2269L6.97001 15.203C6.94858 12.8197 6.63871 10.4402 6.04609 8.06848L3.46264 8.714L0.879184 9.35953C1.37374 11.3388 1.62693 13.3012 1.64446 15.2509L4.30723 15.2269ZM3.46264 8.714L6.04609 8.06848C5.79445 7.06141 5.71652 6.43636 5.71584 6.10642C5.71551 5.94477 5.73521 5.96981 5.69309 6.10401C5.64766 6.24876 5.49468 6.62335 5.0747 6.94527L3.45473 4.83183L1.83476 2.71839C0.501207 3.74057 0.388508 5.33853 0.390094 6.11726C0.392057 7.08137 0.587231 8.19111 0.879184 9.35953L3.46264 8.714ZM3.45473 4.83183L5.0747 6.94527C4.98045 7.01751 5.10362 6.90977 5.74396 6.689C6.31024 6.49376 7.10245 6.26885 8.14733 6.01767L7.52491 3.42855L6.9025 0.839432C5.77224 1.11114 4.79852 1.38156 4.00807 1.65408C3.29169 1.90107 2.46733 2.23352 1.83476 2.71839L3.45473 4.83183Z" fill="black"/>
<path d="M35.7778 27.7278C35.2043 27.718 34.7858 27.408 34.5222 26.7979C34.3997 26.509 34.2752 26.3347 34.1487 26.2752C34.0539 26.2289 33.8026 26.2023 33.3948 26.1952C32.5919 26.1814 31.6539 26.7899 30.581 28.0208C29.0789 29.7414 28.3148 31.3632 28.2885 32.8862C28.2766 33.5808 28.4989 34.1806 28.9555 34.6857C29.4121 35.1907 29.9654 35.4488 30.6154 35.46C31.2463 35.4709 31.8895 35.3163 32.5452 34.9961C32.7767 34.879 33.2664 34.5751 34.0142 34.0844C34.517 33.7616 34.8958 33.6024 35.1507 33.6068C35.533 33.6134 35.8556 33.7592 36.1184 34.0441C36.3624 34.3097 36.4815 34.6113 36.4757 34.9491C36.4692 35.325 36.2979 35.6503 35.9617 35.925C34.1839 37.3732 32.3869 38.0816 30.5708 38.0504C29.137 38.0257 27.9353 37.4823 26.9656 36.4202C26.0398 35.3972 25.5887 34.2038 25.6122 32.8401C25.649 30.7054 26.62 28.5422 28.5254 26.3504C30.1446 24.4915 31.7826 23.5764 33.4394 23.6049C33.7198 23.6097 33.9713 23.6236 34.194 23.6466C34.4231 23.6697 34.6233 23.7018 34.7947 23.743C35.0798 23.4738 35.4199 23.3426 35.815 23.3494C36.465 23.3606 36.86 23.7403 37.0001 24.4885C37.0992 25.0257 37.1426 25.6511 37.1303 26.3648C37.1248 26.6834 37.0274 26.9717 36.8381 27.2298C36.5901 27.5697 36.2366 27.7358 35.7778 27.7278ZM44.4608 38.194C44.2505 38.1904 43.9321 38.1753 43.5055 38.1489C43.0789 38.1224 42.7604 38.1074 42.5501 38.1037L42.368 38.1293C42.3297 38.135 42.285 38.1374 42.234 38.1365C41.3292 38.1209 40.8858 37.5843 40.9041 36.5265C40.9064 36.3926 40.9478 36.0236 41.0283 35.4195C41.1308 34.65 41.188 33.9179 41.2 33.2234C41.1965 33.4273 41.1603 32.3813 41.0915 30.0854C40.6068 30.1025 40.1573 30.1075 39.7431 30.1004C38.9657 30.087 38.4026 30.0263 38.0539 29.9183C37.4136 29.7161 37.0984 29.3282 37.1083 28.7547C37.1139 28.4297 37.2367 28.145 37.4767 27.9005C37.7168 27.6561 38.0184 27.537 38.3817 27.5432C38.5027 27.5453 38.719 27.5713 39.0305 27.6213C39.3484 27.6651 39.5998 27.6885 39.7846 27.6917C40.1032 27.6972 40.5017 27.6913 40.9801 27.674C41.4584 27.6568 41.8569 27.6509 42.1755 27.6564C42.7235 27.6658 43.1202 27.7651 43.3656 27.9542C43.6423 28.1693 43.7761 28.5413 43.767 29.0702C43.7569 29.6564 43.7758 30.4089 43.8238 31.3276C43.9641 31.3237 44.0916 31.3227 44.2063 31.3246C45.7483 31.3512 46.9016 31.5655 47.6659 31.9675C48.7526 32.528 49.2838 33.5156 49.2594 34.9302C49.2386 36.141 48.7007 37.0241 47.6457 37.5796C46.816 38.0115 45.7544 38.2163 44.4608 38.194ZM44.4833 33.5572C44.2985 33.554 44.0849 33.5567 43.8426 33.5653C43.8408 34.0369 43.7827 34.8231 43.6681 35.9239C43.9802 35.9357 44.2574 35.9436 44.4995 35.9478C45.9205 35.9723 46.6373 35.6181 46.65 34.8853C46.6601 34.299 46.4372 33.9159 45.9814 33.736C45.7282 33.6296 45.2289 33.57 44.4833 33.5572ZM53.6506 38.6678C52.7967 38.6531 52.0278 38.5124 51.344 38.2456C50.426 37.8856 49.9727 37.3711 49.9842 36.702C49.9886 36.4471 50.1205 36.1944 50.3797 35.9439C50.6455 35.6871 50.9218 35.5612 51.2085 35.5662C51.508 35.5713 51.9172 35.6867 52.436 35.9124C52.9611 36.1382 53.3798 36.2537 53.6921 36.2591C53.9342 36.2633 54.175 36.1591 54.4146 35.9465C54.6542 35.7275 54.776 35.5033 54.7799 35.2739C54.7861 34.9171 54.5389 34.6483 54.0385 34.4676C53.5628 34.3255 53.0904 34.1867 52.621 34.0511C52.1143 33.8639 51.8641 33.5887 51.8703 33.2255C51.8783 32.7603 52.0719 32.4418 52.4509 32.2698C52.6631 32.1651 53.0501 32.0857 53.6119 32.0316C54.0205 31.9941 54.2989 31.9287 54.4471 31.8357C54.647 31.7053 54.7499 31.4648 54.7559 31.1144C54.7641 30.6428 54.2806 30.3986 53.3057 30.3818C53.1081 30.3784 52.8321 30.4948 52.4774 30.7309C52.1228 30.967 51.7925 31.0824 51.4866 31.0772C51.1489 31.0713 50.8512 30.9642 50.5934 30.7558C50.3168 30.5343 50.1813 30.2547 50.1872 29.917C50.1968 29.3562 50.6227 28.8727 51.4647 28.4666C52.1717 28.1282 52.7992 27.9637 53.3472 27.9731C54.3221 27.9899 55.1947 28.2153 55.9649 28.6492C56.9245 29.1885 57.3962 29.9232 57.3802 30.8536C57.3638 31.8094 57.0411 32.5943 56.4122 33.2081C57.0495 33.9585 57.3624 34.6619 57.3511 35.3182C57.3333 36.3505 56.9877 37.1732 56.3142 37.7863C55.6409 38.393 54.753 38.6868 53.6506 38.6678ZM68.0972 40.915C67.4918 40.9045 67.0948 40.6396 66.9062 40.12C66.7843 39.7928 66.7421 39.2822 66.7796 38.588L61.857 38.5032C61.806 38.5023 61.369 38.5267 60.5458 38.5763C60.5441 38.6782 60.5445 38.8408 60.547 39.0639C60.5494 39.2934 60.5496 39.4687 60.5475 39.5898C60.5412 39.953 60.4086 40.2503 60.1497 40.4817C59.8971 40.7132 59.5796 40.8256 59.1973 40.819C58.2797 40.8032 57.8306 40.2314 57.85 39.1035C57.854 38.8741 57.8657 38.5651 57.8851 38.1767C57.9046 37.7882 57.9162 37.4824 57.92 37.2594C57.9264 36.8898 58.0591 36.5893 58.318 36.3579C58.5575 36.1453 58.8622 36.0358 59.232 36.0294C59.813 35.2363 60.2181 34.2904 60.4474 33.1916C60.6074 32.4103 60.6984 31.3824 60.7204 30.108C60.742 28.8526 61.4346 28.2367 62.7983 28.2602C62.9576 28.263 63.2537 28.2808 63.6866 28.3138C64.1259 28.3404 64.4731 28.356 64.728 28.3604C64.9701 28.3645 65.3305 28.3516 65.8091 28.3216C66.2876 28.2916 66.6321 28.2784 66.8424 28.2821C67.4796 28.293 67.8992 28.5393 68.1013 29.0208C68.2238 29.3098 68.2793 29.7888 68.2677 30.4579C68.263 30.7319 68.2369 31.1394 68.1893 31.6804C68.1481 32.2215 68.1252 32.629 68.1205 32.903C68.1163 33.1452 68.1122 34.3084 68.1082 36.3927C69.0115 36.4975 69.4568 36.9195 69.444 37.6587C69.4398 37.9072 69.4403 38.245 69.4457 38.6722C69.4511 39.0993 69.4517 39.434 69.4475 39.6762C69.4413 40.0394 69.3087 40.3367 69.0497 40.5681C68.797 40.8059 68.4795 40.9216 68.0972 40.915ZM61.9735 36.1818L65.4432 36.2416C65.4474 34.1446 65.4509 33.0164 65.4537 32.8571C65.458 32.6022 65.4805 32.2233 65.521 31.7205C65.57 31.0967 65.5957 30.7146 65.5981 30.5745C64.4697 30.5869 63.7209 30.5804 63.3516 30.5549C63.2563 32.7587 62.7969 34.6344 61.9735 36.1818ZM78.7479 39.2818C78.4547 39.2767 77.9951 38.9501 77.3688 38.3019C76.7777 38.5722 76.2579 38.7736 75.8095 38.9061C75.3609 39.045 74.9805 39.1117 74.6682 39.1064C73.1325 39.0799 71.9862 38.649 71.2293 37.8137C70.4788 36.9785 70.1177 35.7421 70.1459 34.1044C70.1723 32.5687 70.7621 31.2658 71.9151 30.1956C73.0682 29.1191 74.435 28.5945 76.0153 28.6217C76.6207 28.6322 77.3187 28.8163 78.1093 29.1741C79.0644 29.6049 79.5372 30.0943 79.5277 30.6423C79.5238 30.8717 79.447 31.0712 79.2975 31.2407C79.2294 31.4945 79.1729 31.8154 79.128 32.2035C79.0895 32.5852 79.0658 33.0342 79.0569 33.5504C79.036 34.7675 79.1069 35.6451 79.2697 36.1834C79.2879 36.2411 79.4287 36.5749 79.6923 37.185C79.9314 37.7373 80.0503 38.0517 80.049 38.1282C80.0431 38.4659 79.9077 38.744 79.6426 38.9626C79.3838 39.1812 79.0856 39.2876 78.7479 39.2818ZM76.4903 32.6839C76.4938 32.48 76.5106 32.2476 76.5406 31.9868C76.5771 31.7197 76.6268 31.4242 76.6897 31.1002C76.5634 31.0342 76.4494 30.9877 76.3479 30.9604C76.2529 30.9269 76.1703 30.9095 76.1002 30.9083C75.2336 30.8934 74.4694 31.2213 73.8077 31.8919C73.1461 32.5562 72.8076 33.3344 72.7922 34.2265C72.7775 35.0804 72.9194 35.7266 73.2178 36.1652C73.5163 36.5974 73.9714 36.8188 74.5832 36.8293C74.9782 36.8361 75.3521 36.7788 75.7048 36.6574C76.0639 36.5297 76.4018 36.3411 76.7185 36.0916C76.5534 34.5717 76.4774 33.4358 76.4903 32.6839ZM91.7796 38.1868C91.7736 38.5373 91.6411 38.8282 91.3821 39.0596C91.1231 39.2974 90.8055 39.413 90.4296 39.4065C90.0472 39.3999 89.7307 39.2734 89.48 39.0268C89.2292 38.7867 89.1068 38.4914 89.1128 38.1409C89.1194 37.7585 89.1484 37.1854 89.1998 36.4214C89.2513 35.651 89.2804 35.0746 89.2869 34.6923C89.293 34.3418 89.2834 33.9719 89.2583 33.5827C88.0455 35.1617 86.961 36.319 86.005 37.0547C85.1395 37.7155 84.4961 38.243 84.075 38.6373C83.654 39.0253 83.2046 39.2151 82.7266 39.2069C82.3698 39.2008 82.0527 39.1061 81.7754 38.9228C81.4542 38.7006 81.2969 38.3951 81.3036 38.0064C81.3327 36.3177 81.3312 34.5552 81.299 32.7189C81.2618 30.8124 81.2428 29.8782 81.2421 29.9165C81.2484 29.5533 81.3778 29.2559 81.6304 29.0244C81.8831 28.7865 82.207 28.671 82.6021 28.6778C83.3157 28.6901 83.7459 29.0672 83.8925 29.8092C83.9162 29.9116 83.9342 30.5302 83.9465 31.665L83.9794 35.3084C84.8142 34.5834 85.7061 33.684 86.6552 32.6104C86.8763 32.3592 87.6865 31.3947 89.0858 29.7169C89.548 29.1576 90.0563 28.8827 90.6107 28.8923C90.9867 28.8987 91.3 29.0252 91.5507 29.2718C91.8016 29.5119 91.9239 29.8073 91.9179 30.1577C91.9065 30.8205 91.9021 31.8148 91.9048 33.1406C91.9074 34.4665 91.9031 35.4608 91.8916 36.1235C91.8877 36.3529 91.869 36.6968 91.8356 37.1552C91.8022 37.6135 91.7836 37.9574 91.7796 38.1868ZM91.3086 25.0129C91.2031 25.9544 90.5539 26.638 89.361 27.0637C88.4886 27.3801 87.4567 27.528 86.2651 27.5075C85.2646 27.4903 84.3933 27.1916 83.6511 26.6115C82.8711 26.0117 82.4883 25.288 82.5029 24.4405C82.5074 24.1792 82.6131 23.9643 82.82 23.7958C83.0334 23.621 83.2962 23.5363 83.6084 23.5416C83.9206 23.547 84.1804 23.6407 84.3876 23.8228C84.5949 23.9984 84.6963 24.2169 84.6918 24.4782C84.6864 24.7904 84.8475 25.0641 85.1749 25.2992C85.5022 25.5407 85.8761 25.6651 86.2967 25.6723C87.9662 25.7011 88.9185 25.3701 89.1535 24.6793C89.3213 24.185 89.6793 23.9426 90.2273 23.952C90.5841 23.9582 90.8628 24.0618 91.0633 24.2628C91.2638 24.4639 91.3456 24.7139 91.3086 25.0129ZM109.218 31.6126C109.046 31.6097 108.788 31.5989 108.444 31.5802C108.107 31.5553 107.852 31.5413 107.68 31.5383C107.584 31.5367 107.479 31.5413 107.364 31.552C107.449 34.4155 107.481 36.4367 107.46 37.6155C107.436 39.0429 106.958 39.7486 106.028 39.7326C105.684 39.7267 105.383 39.6163 105.125 39.4015C104.849 39.1736 104.713 38.8877 104.719 38.5436C104.723 38.3205 104.739 37.983 104.766 37.5309C104.793 37.0724 104.808 36.7316 104.812 36.5086C104.827 35.6356 104.798 33.981 104.725 31.5448C104.611 31.5428 104.327 31.538 103.875 31.5302C103.225 31.519 102.751 31.4503 102.453 31.324C101.979 31.1246 101.746 30.7541 101.755 30.2125C101.761 29.8684 101.884 29.5741 102.124 29.3296C102.371 29.0789 102.685 28.9568 103.068 28.9634L108.717 29.0607C109.959 29.0821 110.573 29.5198 110.559 30.3737C110.552 30.7305 110.423 31.0279 110.17 31.2657C109.924 31.5037 109.607 31.6193 109.218 31.6126ZM115.979 39.8562C115.431 39.8467 114.855 39.7731 114.252 39.6352L114.176 43.5349C114.169 43.9045 114.04 44.2082 113.787 44.4461C113.534 44.6839 113.217 44.7996 112.834 44.793C112.452 44.7864 112.139 44.6599 111.894 44.4135C111.65 44.167 111.531 43.859 111.537 43.4894C111.543 43.1899 111.569 42.0016 111.618 39.9245C111.657 38.3826 111.679 37.1241 111.683 36.1489C111.688 34.7722 111.663 33.5861 111.61 32.5909C111.538 31.2192 111.501 30.5907 111.499 30.7054C111.509 30.1765 111.634 29.7261 111.877 29.3542C112.158 28.932 112.531 28.7249 112.996 28.7329C113.353 28.739 113.651 28.8652 113.889 29.1116C114.127 29.3579 114.243 29.6499 114.237 29.9876L114.226 30.0831C114.657 29.8483 115.087 29.6772 115.516 29.5698C115.951 29.4562 116.385 29.4032 116.819 29.4106C118.284 29.4359 119.344 30.0756 119.998 31.3298C120.486 32.2752 120.716 33.4935 120.691 34.9846C120.667 36.3801 120.248 37.5298 119.436 38.4337C118.565 39.4067 117.413 39.8809 115.979 39.8562ZM116.775 31.9627C116.373 31.9558 115.964 32.0444 115.546 32.2284C115.129 32.4061 114.707 32.6793 114.28 33.048C114.334 34.362 114.349 35.6785 114.326 36.9976C114.89 37.1921 115.456 37.2943 116.023 37.3041C116.679 37.3154 117.187 37.0915 117.545 36.6323C117.871 36.2172 118.04 35.6529 118.053 34.9392C118.067 34.0789 118.039 33.4824 117.969 33.1498C117.797 32.3692 117.399 31.9735 116.775 31.9627ZM126.859 39.9193C125.336 39.8931 124.096 39.5084 123.14 38.7653C122.083 37.9439 121.568 36.8036 121.593 35.3444C121.621 33.7322 122.068 32.3758 122.935 31.2752C123.899 30.0553 125.181 29.4591 126.78 29.4866C127.889 29.5057 128.807 29.7 129.533 30.0695C130.488 30.5576 130.956 31.2987 130.939 32.2928C130.927 32.9937 130.524 33.6083 129.731 34.1364C129.37 34.3788 128.647 34.7296 127.562 35.189L124.316 36.5577C124.616 36.8944 124.981 37.1492 125.412 37.3224C125.842 37.4955 126.338 37.5869 126.899 37.5966C127.753 37.6113 128.479 37.4485 129.078 37.1083C129.612 36.8051 130.038 36.6563 130.357 36.6618C131.02 36.6732 131.345 37.0007 131.334 37.6443C131.322 38.3708 130.78 38.9542 129.707 39.3947C128.809 39.7617 127.859 39.9365 126.859 39.9193ZM126.74 31.7997C126.148 31.7895 125.638 31.9783 125.21 32.3662C124.783 32.754 124.435 33.3408 124.167 34.1266C124.892 33.8268 125.614 33.5301 126.333 33.2365C127.2 32.8626 127.891 32.5144 128.407 32.1918C127.984 31.9423 127.429 31.8116 126.74 31.7997ZM140.873 40.0746C140.49 40.068 140.174 39.9447 139.923 39.7045C139.672 39.4643 139.55 39.1658 139.556 38.809C139.566 38.2546 139.57 37.2603 139.569 35.8261C139.448 35.824 139.343 35.8222 139.254 35.8207C137.884 35.7971 136.553 35.9112 135.261 36.163C135.25 36.4114 135.207 36.8601 135.132 37.5089C135.072 38.0625 135.039 38.5208 135.032 38.884C135.026 39.2409 134.894 39.535 134.635 39.7664C134.382 39.9979 134.065 40.1103 133.682 40.1038C133.3 40.0972 132.983 39.9738 132.733 39.7336C132.488 39.4936 132.369 39.1919 132.375 38.8287C132.379 38.6121 132.413 38.3194 132.476 37.9508C132.547 37.576 132.584 37.2802 132.587 37.0635C132.593 36.7067 132.593 36.1713 132.586 35.4572C132.58 34.7368 132.579 34.1982 132.585 33.8414C132.592 33.4654 132.601 32.911 132.614 32.1782C132.633 31.4455 132.646 30.8912 132.652 30.5152C132.658 30.1583 132.788 29.8642 133.04 29.6327C133.299 29.4013 133.62 29.2889 134.002 29.2955C134.385 29.3021 134.701 29.4254 134.952 29.6656C135.203 29.9058 135.325 30.2043 135.319 30.5611C135.312 30.969 135.31 31.4788 135.312 32.0908C135.316 32.9386 135.317 33.4422 135.315 33.6015C136.663 33.3698 138.083 33.2827 139.574 33.3403L139.577 33.13C139.583 32.805 139.604 32.34 139.64 31.7351C139.676 31.1302 139.696 30.6716 139.702 30.3593C139.708 30.0025 139.84 29.7084 140.099 29.477C140.358 29.2456 140.679 29.1332 141.061 29.1398C141.444 29.1464 141.757 29.2697 142.001 29.5098C142.252 29.7499 142.375 30.0484 142.368 30.4053C142.363 30.7239 142.342 31.1857 142.306 31.7906C142.27 32.3955 142.25 32.8573 142.244 33.1759C142.233 33.8259 142.229 34.7724 142.234 36.0154C142.238 37.2584 142.234 38.205 142.223 38.8549C142.217 39.2118 142.084 39.5059 141.825 39.7373C141.573 39.9688 141.255 40.0812 140.873 40.0746ZM154.349 39.2646C154.343 39.6151 154.211 39.906 153.952 40.1374C153.692 40.3751 153.375 40.4908 152.999 40.4843C152.617 40.4777 152.3 40.3511 152.049 40.1046C151.799 39.8644 151.676 39.5691 151.682 39.2186C151.689 38.8363 151.718 38.2631 151.769 37.4991C151.821 36.7287 151.85 36.1524 151.856 35.77C151.862 35.4196 151.853 35.0497 151.828 34.6604C150.615 36.2395 149.53 37.3968 148.574 38.1325C147.709 38.7933 147.066 39.3208 146.644 39.7151C146.223 40.1031 145.774 40.2929 145.296 40.2847C144.939 40.2785 144.622 40.1838 144.345 40.0006C144.024 39.7783 143.866 39.4728 143.873 39.0841C143.902 37.3955 143.901 35.633 143.868 33.7967C143.831 31.8902 143.812 30.956 143.812 30.9943C143.818 30.631 143.947 30.3337 144.2 30.1022C144.453 29.8643 144.776 29.7488 145.171 29.7556C145.885 29.7679 146.315 30.145 146.462 30.8869C146.486 30.9893 146.504 31.6079 146.516 32.7427L146.549 36.3861C147.384 35.6611 148.276 34.7618 149.225 33.6882C149.446 33.437 150.256 32.4725 151.655 30.7947C152.117 30.2354 152.626 29.9605 153.18 29.97C153.556 29.9765 153.869 30.103 154.12 30.3495C154.371 30.5897 154.493 30.885 154.487 31.2355C154.476 31.8982 154.472 32.8925 154.474 34.2184C154.477 35.5443 154.472 36.5386 154.461 37.2013C154.457 37.4307 154.438 37.7746 154.405 38.2329C154.372 38.6913 154.353 39.0352 154.349 39.2646ZM160.827 40.6287C160.279 40.6193 159.704 40.5456 159.1 40.4077L159.024 44.3074C159.017 44.677 158.888 44.9807 158.635 45.2186C158.382 45.4565 158.065 45.5721 157.683 45.5655C157.3 45.5589 156.987 45.4324 156.743 45.186C156.498 44.9396 156.379 44.6316 156.386 44.262C156.391 43.9625 156.418 42.7741 156.466 40.697C156.505 39.1551 156.527 37.8966 156.531 36.9214C156.536 35.5447 156.512 34.3587 156.459 33.3634C156.387 31.9917 156.35 31.3632 156.348 31.4779C156.357 30.949 156.482 30.4986 156.725 30.1267C157.006 29.7045 157.379 29.4974 157.844 29.5054C158.201 29.5115 158.499 29.6378 158.737 29.8841C158.975 30.1304 159.091 30.4224 159.085 30.7602L159.074 30.8556C159.505 30.6208 159.935 30.4497 160.364 30.3424C160.799 30.2288 161.234 30.1757 161.667 30.1831C163.132 30.2084 164.192 30.8481 164.846 32.1024C165.334 33.0478 165.564 34.266 165.539 35.7571C165.515 37.1527 165.097 38.3024 164.284 39.2062C163.413 40.1792 162.261 40.6534 160.827 40.6287ZM161.623 32.7352C161.221 32.7283 160.812 32.8169 160.394 33.0009C159.977 33.1786 159.555 33.4518 159.128 33.8205C159.182 35.1345 159.197 36.451 159.175 37.7701C159.738 37.9647 160.304 38.0668 160.871 38.0766C161.528 38.0879 162.035 37.864 162.393 37.4048C162.719 36.9898 162.888 36.4254 162.901 35.7117C162.915 34.8514 162.887 34.255 162.817 33.9223C162.645 33.1417 162.247 32.746 161.623 32.7352ZM171.513 40.8414C170.073 40.8166 168.85 40.3972 167.844 39.5831C166.769 38.7041 166.244 37.5827 166.267 36.219C166.294 34.677 166.821 33.2742 167.85 32.0107C169.029 30.5585 170.51 29.8479 172.295 29.8786C175.71 29.9374 177.392 31.4771 177.34 34.4975C177.313 36.0396 176.827 37.4336 175.882 38.6794C174.76 40.1516 173.304 40.8723 171.513 40.8414ZM172.251 32.3925C171.404 32.3779 170.658 32.7729 170.013 33.5777C169.368 34.3761 169.037 35.2724 169.02 36.2665C169.01 36.8655 169.24 37.3571 169.712 37.7413C170.189 38.1256 170.804 38.3242 171.556 38.3371C172.378 38.3513 173.089 37.9556 173.69 37.15C174.27 36.376 174.569 35.476 174.587 34.4501C174.601 33.6536 174.444 33.1154 174.118 32.8357C173.797 32.5561 173.175 32.4084 172.251 32.3925ZM179.803 40.8313C179.459 40.8253 179.142 40.6988 178.853 40.4516C178.539 40.1912 178.385 39.8921 178.391 39.5544L178.42 37.8721C178.432 37.1584 178.461 36.2251 178.506 35.0722C178.57 33.5626 178.605 32.6326 178.611 32.2821C178.626 31.8043 178.673 31.4609 178.754 31.2519C178.887 30.8973 179.146 30.6754 179.53 30.5865C180.08 30.4493 180.862 30.3895 181.875 30.4069C182.965 30.4257 183.955 30.6914 184.845 31.2039C185.937 31.8219 186.474 32.6502 186.456 33.6889C186.443 34.4599 186.085 35.0657 185.383 35.5061C186.536 36.2654 187.106 37.0529 187.092 37.8685C187.072 39.0283 186.104 39.8594 184.19 40.3618C182.903 40.703 181.44 40.8595 179.803 40.8313ZM182.162 32.6588L181.77 32.652C181.528 32.6479 181.324 32.6475 181.158 32.651C181.156 32.7785 181.152 32.992 181.147 33.2915C181.145 33.4189 181.151 33.6357 181.164 33.9419C181.184 34.2992 181.193 34.5161 181.191 34.5926C181.459 34.6163 181.659 34.6293 181.793 34.6316C182.22 34.639 182.642 34.5761 183.058 34.4431C183.616 34.2614 183.898 33.9954 183.904 33.6449C183.908 33.4346 183.711 33.2209 183.313 33.0037C182.915 32.7801 182.531 32.6651 182.162 32.6588ZM182.778 36.3027C182.638 36.2748 182.052 36.236 181.021 36.1863C181.004 36.4219 180.991 36.7659 180.984 37.2183L180.96 38.5756C183.269 38.5134 184.427 38.237 184.436 37.7463C184.441 37.4723 184.229 37.1722 183.801 36.8462C183.424 36.5528 183.083 36.3717 182.778 36.3027ZM194.662 40.7812C194.452 40.7776 194.133 40.7626 193.707 40.7361C193.28 40.7096 192.961 40.6946 192.751 40.691L192.569 40.7165C192.531 40.7222 192.486 40.7246 192.435 40.7238C191.53 40.7082 191.087 40.1715 191.105 39.1137C191.107 38.9799 191.149 38.6109 191.229 38.0067C191.332 37.2372 191.389 36.5052 191.401 35.8106C191.398 36.0145 191.361 34.9685 191.293 32.6726C190.808 32.6898 190.358 32.6948 189.944 32.6877C189.167 32.6743 188.604 32.6136 188.255 32.5056C187.615 32.3033 187.299 31.9154 187.309 31.3419C187.315 31.0169 187.438 30.7322 187.678 30.4878C187.918 30.2433 188.219 30.1242 188.583 30.1305C188.704 30.1326 188.92 30.1586 189.232 30.2086C189.549 30.2523 189.801 30.2757 189.986 30.2789C190.304 30.2844 190.703 30.2785 191.181 30.2613C191.659 30.244 192.058 30.2381 192.377 30.2436C192.925 30.2531 193.321 30.3523 193.567 30.5414C193.843 30.7565 193.977 31.1285 193.968 31.6574C193.958 32.2437 193.977 32.9961 194.025 33.9149C194.165 33.9109 194.293 33.9099 194.407 33.9119C195.949 33.9384 197.103 34.1527 197.867 34.5547C198.954 35.1152 199.485 36.1028 199.46 37.5175C199.44 38.7282 198.902 39.6113 197.847 40.1668C197.017 40.5987 195.955 40.8035 194.662 40.7812ZM194.684 36.1444C194.5 36.1412 194.286 36.1439 194.044 36.1525C194.042 36.6242 193.984 37.4104 193.869 38.5111C194.181 38.5229 194.458 38.5308 194.701 38.535C196.122 38.5595 196.838 38.2053 196.851 37.4725C196.861 36.8863 196.638 36.5032 196.182 36.3232C195.929 36.2169 195.43 36.1573 194.684 36.1444ZM207.961 41.3737C207.579 41.3671 207.262 41.2437 207.011 41.0035C206.76 40.7634 206.638 40.4649 206.644 40.108C206.654 39.5218 206.656 38.7059 206.648 37.6604C205.826 37.9968 204.985 38.1576 204.125 38.1428C202.628 38.117 201.553 37.6109 200.9 36.6244C200.273 35.6766 199.977 34.1895 200.012 32.1631C200.033 30.946 200.508 30.3454 201.439 30.3615C201.821 30.3681 202.134 30.4914 202.379 30.7314C202.63 30.9716 202.752 31.2733 202.746 31.6365C202.745 31.7002 202.733 31.7957 202.712 31.9228C202.691 32.0499 202.68 32.1453 202.678 32.209C202.652 33.7384 202.778 34.7317 203.057 35.1891C203.274 35.5562 203.739 35.7458 204.453 35.7581C204.765 35.7635 205.162 35.6652 205.644 35.4631C206.132 35.2548 206.477 35.0249 206.679 34.7734C206.688 34.6015 206.7 34.2479 206.716 33.7128C206.738 33.1968 206.75 32.8624 206.752 32.7095C206.755 32.5884 206.745 32.4097 206.723 32.1735C206.708 31.9374 206.702 31.762 206.704 31.6473C206.71 31.2905 206.849 31.0028 207.12 30.7844C207.392 30.5596 207.709 30.4504 208.072 30.4566C208.996 30.4725 209.447 31.1464 209.424 32.4782C209.421 32.6375 209.411 32.8477 209.394 33.1087C209.377 33.3698 209.367 33.5481 209.366 33.6437C209.354 34.3255 209.345 35.4121 209.338 36.9036C209.332 38.3887 209.323 39.4721 209.311 40.1539C209.305 40.5108 209.172 40.8049 208.913 41.0363C208.661 41.2678 208.343 41.3802 207.961 41.3737ZM215.771 41.4508C214.248 41.4246 213.009 41.0399 212.053 40.2968C210.996 39.4754 210.48 38.3351 210.505 36.8759C210.533 35.2637 210.98 33.9073 211.847 32.8068C212.811 31.5868 214.093 30.9906 215.693 31.0181C216.801 31.0372 217.719 31.2315 218.446 31.601C219.4 32.0891 219.868 32.8302 219.851 33.8243C219.839 34.5252 219.437 35.1398 218.644 35.6679C218.282 35.9103 217.559 36.2612 216.474 36.7205L213.228 38.0893C213.529 38.4259 213.894 38.6808 214.324 38.8539C214.755 39.0271 215.25 39.1185 215.811 39.1281C216.665 39.1428 217.391 38.9801 217.99 38.6398C218.524 38.3367 218.951 38.1878 219.269 38.1933C219.932 38.2047 220.258 38.5322 220.247 39.1758C220.234 39.9023 219.692 40.4857 218.62 40.9262C217.721 41.2932 216.772 41.4681 215.771 41.4508ZM215.653 33.3313C215.06 33.3211 214.55 33.5099 214.123 33.8977C213.695 34.2856 213.348 34.8724 213.079 35.6581C213.804 35.3583 214.527 35.0616 215.246 34.768C216.113 34.3941 216.804 34.0459 217.319 33.7233C216.897 33.4738 216.341 33.3431 215.653 33.3313ZM229.785 41.6062C229.403 41.5996 229.086 41.4762 228.836 41.236C228.585 40.9959 228.462 40.6974 228.468 40.3405C228.478 39.7861 228.482 38.7918 228.482 37.3576C228.361 37.3555 228.255 37.3537 228.166 37.3522C226.796 37.3286 225.465 37.4427 224.173 37.6946C224.163 37.943 224.12 38.3916 224.045 39.0405C223.984 39.594 223.951 40.0524 223.945 40.4156C223.939 40.7724 223.806 41.0665 223.547 41.2979C223.295 41.5294 222.977 41.6419 222.595 41.6353C222.212 41.6287 221.896 41.5053 221.645 41.2652C221.4 41.0251 221.281 40.7235 221.288 40.3602C221.291 40.1436 221.325 39.851 221.389 39.4824C221.459 39.1075 221.496 38.8117 221.5 38.5951C221.506 38.2382 221.506 37.7028 221.499 36.9888C221.492 36.2684 221.492 35.7297 221.498 35.3729C221.504 34.9969 221.514 34.4425 221.527 33.7097C221.546 32.977 221.558 32.4227 221.565 32.0467C221.571 31.6899 221.7 31.3957 221.953 31.1642C222.212 30.9328 222.532 30.8204 222.915 30.827C223.297 30.8336 223.614 30.957 223.864 31.1971C224.115 31.4373 224.238 31.7358 224.232 32.0927C224.224 32.5005 224.222 33.0104 224.224 33.6223C224.229 34.4702 224.23 34.9738 224.227 35.1331C225.576 34.9013 226.996 34.8142 228.486 34.8718L228.49 34.6615C228.495 34.3365 228.516 33.8716 228.552 33.2666C228.588 32.6617 228.609 32.2031 228.614 31.8909C228.62 31.534 228.753 31.2399 229.012 31.0085C229.271 30.7771 229.591 30.6647 229.974 30.6713C230.356 30.6779 230.669 30.8012 230.914 31.0413C231.165 31.2815 231.287 31.58 231.281 31.9368C231.275 32.2554 231.255 32.7172 231.219 33.3221C231.183 33.927 231.162 34.3888 231.157 34.7074C231.145 35.3574 231.142 36.3039 231.146 37.5469C231.15 38.79 231.146 39.7365 231.135 40.3865C231.129 40.7433 230.997 41.0374 230.738 41.2688C230.485 41.5003 230.168 41.6127 229.785 41.6062ZM250.766 41.958C250.384 41.9514 250.067 41.8312 249.816 41.5974C249.572 41.3574 249.453 41.0589 249.459 40.7021C249.467 40.2178 249.438 39.5002 249.372 38.5493C249.305 37.5984 249.276 36.884 249.284 36.4061C249.29 36.0556 249.326 35.2881 249.391 34.1036C247.103 34.0451 245.906 34.0149 245.797 34.0131C245.562 34.009 245.242 34.029 244.84 34.0731C244.842 34.3599 244.871 35.0361 244.93 36.1016C244.973 36.931 244.99 37.6037 244.981 38.1199C244.976 38.4066 244.94 38.8363 244.873 39.4088C244.805 39.9749 244.769 40.4014 244.764 40.6881C244.758 41.045 244.626 41.3391 244.367 41.5705C244.108 41.8019 243.787 41.9143 243.405 41.9077C243.023 41.9011 242.706 41.7777 242.455 41.5376C242.211 41.2975 242.092 40.9991 242.098 40.6422C242.103 40.3555 242.139 39.929 242.206 39.3629C242.279 38.7905 242.319 38.3609 242.324 38.0741C242.333 37.5261 242.306 36.7034 242.242 35.6059C242.184 34.5086 242.16 33.6827 242.17 33.1283C242.177 32.7077 242.33 32.3598 242.628 32.0845C242.925 31.8091 243.304 31.6754 243.763 31.6833C243.992 31.6873 244.337 31.6613 244.797 31.6055C245.257 31.5497 245.604 31.5238 245.84 31.5279C246.388 31.5373 247.213 31.5579 248.315 31.5896C249.418 31.6214 250.243 31.6419 250.791 31.6514C251.148 31.6575 251.454 31.7871 251.711 32.0401C251.975 32.2933 252.104 32.5855 252.098 32.9169C252.091 33.3056 252.065 33.8852 252.02 34.6557C251.975 35.4262 251.949 36.0026 251.943 36.3849C251.934 36.8756 251.963 37.6027 252.029 38.5664C252.102 39.5301 252.134 40.2573 252.126 40.748C252.119 41.1049 251.987 41.399 251.728 41.6304C251.475 41.8555 251.155 41.9647 250.766 41.958ZM263.402 42.2043C263.02 42.1978 262.703 42.0744 262.452 41.8342C262.208 41.5942 262.089 41.2957 262.095 40.9389C262.098 40.7477 262.087 40.4862 262.06 40.1542C262.029 39.7776 262.011 39.5192 262.007 39.3789C261.996 38.8942 261.997 38.2696 262.01 37.5049C262.015 37.2245 262.046 36.167 262.103 34.3322C261.803 34.3525 261.507 34.3601 261.214 34.3551C260.283 34.3391 259.379 34.3076 258.5 34.2605L258.487 36.1248C258.454 38.0556 258.277 39.4262 257.957 40.2365C257.478 41.4394 256.569 42.0293 255.23 42.0062C254.695 41.997 254.219 41.8804 253.802 41.6565C253.246 41.3601 252.973 40.9315 252.983 40.3708C252.988 40.0585 253.101 39.7896 253.322 39.5639C253.549 39.3383 253.841 39.2286 254.198 39.2348C254.338 39.2372 254.525 39.285 254.759 39.3783C254.994 39.4716 255.165 39.5192 255.273 39.521C255.707 39.5285 255.937 38.7134 255.966 37.0757C255.974 36.6105 255.95 35.9153 255.896 34.9902C255.848 34.0651 255.829 33.37 255.837 32.9048C255.843 32.5288 255.985 32.2317 256.263 32.0134C256.541 31.7951 256.871 31.6892 257.253 31.6958C257.419 31.6986 257.642 31.7088 257.922 31.7264C258.272 31.7579 258.495 31.7777 258.59 31.7857C259.285 31.8232 260.173 31.8512 261.257 31.8699C261.492 31.874 261.844 31.8386 262.31 31.7638C262.777 31.6889 263.131 31.6536 263.373 31.6578C264.335 31.6743 264.81 32.0873 264.796 32.8966C264.787 33.4127 264.764 34.1868 264.727 35.2188C264.697 36.2445 264.677 37.0122 264.668 37.522C264.656 38.2484 264.655 38.8508 264.666 39.329C264.669 39.4821 264.687 39.7597 264.718 40.1618C264.751 40.5065 264.765 40.7809 264.762 40.9848C264.755 41.3416 264.623 41.6358 264.364 41.8671C264.105 42.0985 263.784 42.2109 263.402 42.2043ZM274.944 42.6613C274.651 42.6563 274.191 42.3296 273.565 41.6814C272.974 41.9517 272.454 42.1531 272.006 42.2856C271.557 42.4245 271.177 42.4912 270.864 42.4859C269.329 42.4594 268.182 42.0285 267.425 41.1932C266.675 40.358 266.314 39.1216 266.342 37.4839C266.368 35.9482 266.958 34.6453 268.111 33.5752C269.264 32.4987 270.631 31.974 272.211 32.0012C272.817 32.0117 273.515 32.1958 274.305 32.5536C275.261 32.9844 275.733 33.4738 275.724 34.0218C275.72 34.2512 275.643 34.4507 275.494 34.6202C275.426 34.874 275.369 35.1949 275.324 35.583C275.286 35.9647 275.262 36.4137 275.253 36.9299C275.232 38.147 275.303 39.0247 275.466 39.5629C275.484 39.6206 275.625 39.9544 275.888 40.5645C276.128 41.1168 276.246 41.4312 276.245 41.5077C276.239 41.8454 276.104 42.1235 275.839 42.3421C275.58 42.5607 275.282 42.6671 274.944 42.6613ZM272.687 36.0634C272.69 35.8595 272.707 35.6271 272.737 35.3663C272.773 35.0992 272.823 34.8037 272.886 34.4797C272.76 34.4137 272.646 34.3672 272.544 34.3399C272.449 34.3064 272.366 34.2891 272.296 34.2878C271.43 34.2729 270.666 34.6008 270.004 35.2714C269.342 35.9357 269.004 36.7139 268.988 37.606C268.974 38.4599 269.116 39.1061 269.414 39.5447C269.712 39.9769 270.168 40.1983 270.779 40.2088C271.174 40.2156 271.548 40.1583 271.901 40.0369C272.26 39.9092 272.598 39.7206 272.915 39.4711C272.75 37.9512 272.674 36.8153 272.687 36.0634ZM285.454 42.5651C285.071 42.5585 284.755 42.4351 284.504 42.1949C284.253 41.9548 284.131 41.6563 284.137 41.2994C284.146 40.745 284.151 39.7507 284.15 38.3165C284.029 38.3144 283.924 38.3126 283.834 38.3111C282.464 38.2875 281.133 38.4016 279.842 38.6534C279.831 38.9019 279.788 39.3505 279.713 39.9994C279.653 40.5529 279.619 41.0112 279.613 41.3745C279.607 41.7313 279.474 42.0254 279.215 42.2568C278.963 42.4883 278.645 42.6008 278.263 42.5942C277.881 42.5876 277.564 42.4642 277.313 42.2241C277.069 41.984 276.95 41.6824 276.956 41.3191C276.96 41.1025 276.993 40.8099 277.057 40.4412C277.127 40.0664 277.164 39.7706 277.168 39.554C277.174 39.1971 277.174 38.6617 277.167 37.9477C277.16 37.2273 277.16 36.6886 277.166 36.3318C277.173 35.9558 277.182 35.4014 277.195 34.6686C277.214 33.9359 277.226 33.3816 277.233 33.0056C277.239 32.6488 277.368 32.3546 277.621 32.1231C277.88 31.8917 278.201 31.7793 278.583 31.7859C278.965 31.7925 279.282 31.9159 279.533 32.156C279.784 32.3962 279.906 32.6947 279.9 33.0516C279.893 33.4594 279.89 33.9693 279.893 34.5812C279.897 35.4291 279.898 35.9326 279.895 36.092C281.244 35.8602 282.664 35.7731 284.154 35.8307L284.158 35.6204C284.164 35.2954 284.184 34.8304 284.22 34.2255C284.256 33.6206 284.277 33.162 284.282 32.8498C284.288 32.4929 284.421 32.1988 284.68 31.9674C284.939 31.736 285.26 31.6236 285.642 31.6302C286.024 31.6368 286.338 31.7601 286.582 32.0002C286.833 32.2403 286.955 32.5389 286.949 32.8957C286.944 33.2143 286.923 33.6761 286.887 34.281C286.851 34.8859 286.83 35.3477 286.825 35.6663C286.814 36.3163 286.81 37.2628 286.814 38.5058C286.818 39.7489 286.815 40.6954 286.804 41.3453C286.797 41.7022 286.665 41.9963 286.406 42.2277C286.153 42.4592 285.836 42.5716 285.454 42.5651ZM289.925 39.4486C289.568 39.4425 289.273 39.3258 289.041 39.0988C288.816 38.8718 288.706 38.5894 288.712 38.2517C288.716 38.0032 288.713 37.6334 288.702 37.1424C288.698 36.6452 288.698 36.2723 288.702 36.0237C288.717 35.1444 288.747 33.8254 288.79 32.0669C288.839 30.3085 288.871 28.9896 288.886 28.1102C288.892 27.7725 289.015 27.4941 289.255 27.2751C289.494 27.0498 289.789 26.9402 290.14 26.9462C290.49 26.9522 290.781 27.072 291.013 27.3054C291.245 27.5325 291.358 27.8149 291.352 28.1527L291.178 38.2942C291.172 38.6319 291.049 38.9102 290.81 39.1292C290.576 39.3483 290.281 39.4548 289.925 39.4486ZM289.836 42.9178C289.454 42.9112 289.1 42.7012 288.776 42.2876C288.483 41.9065 288.339 41.5535 288.345 41.2285C288.351 40.8971 288.486 40.6222 288.751 40.4036C289.016 40.1851 289.314 40.0787 289.646 40.0844C290.028 40.091 290.378 40.301 290.696 40.7144C290.989 41.0956 291.133 41.4454 291.128 41.764C291.122 42.089 290.987 42.364 290.721 42.5889C290.463 42.8139 290.167 42.9235 289.836 42.9178Z" fill="black"/>
</svg>
