<svg width="316" height="65" viewBox="0 0 316 65" fill="none" xmlns="http://www.w3.org/2000/svg">
<path d="M4.20068 4.21289L312.308 9.52009L311.425 60.8155L3.31711 55.5083L4.20068 4.21289Z" fill="#EEEEEE"/>
<path d="M26.9641 3.10676L26.8811 0.445171L26.9641 3.10676ZM130.882 6.39618L129.861 3.93666L130.882 6.39618ZM260.801 9.23748L260.153 6.65445L260.801 9.23748ZM311.903 16.4862L314.544 16.8264L311.903 16.4862ZM312.199 29.4881L309.722 30.4651L312.199 29.4881ZM311.934 35.9819L314.333 37.139L311.934 35.9819ZM311.644 48.9737L309.264 47.7795L311.644 48.9737ZM308.636 60.1975L310.441 62.1556L308.636 60.1975ZM303.765 61.3764L304.028 58.7265L303.765 61.3764ZM290.781 60.6805L291.876 63.1077L290.781 60.6805ZM284.288 60.3642L282.991 62.69L284.288 60.3642ZM258.294 60.3481L259.021 57.7864L258.294 60.3481ZM251.822 58.8386L251.343 61.4581L251.822 58.8386ZM245.311 59.5427L246.292 62.0184L245.311 59.5427ZM238.791 60.8419L238.788 58.179L238.791 60.8419ZM219.317 59.5626L218.296 57.1036L219.317 59.5626ZM199.827 59.3106L199.571 56.6601L199.827 59.3106ZM186.827 59.4538L186.371 56.8303L186.827 59.4538ZM180.326 59.6405L180.636 56.9958L180.326 59.6405ZM173.828 59.5781L173.569 56.9279L173.828 59.5781ZM160.851 58.4784L160.853 61.1413L160.851 58.4784ZM154.364 57.8046L154.909 55.1981L154.364 57.8046ZM134.872 57.6153L134.722 54.9566L134.872 57.6153ZM128.359 58.4578L128.886 61.0679L128.359 58.4578ZM121.851 59.0105L121.764 61.6719L121.851 59.0105ZM95.8738 58.0664L95.7845 60.7278L95.8738 58.0664ZM82.8768 58.0777L82.7451 55.4181L82.8768 58.0777ZM43.9107 56.673L44.2443 54.0311L43.9107 56.673ZM37.4109 56.7505L37.0173 54.1169L37.4109 56.7505ZM17.9289 55.9886L16.8247 58.4118L17.9289 55.9886ZM7.46339 3.42855L8.0858 6.01767C10.0589 5.54334 12.0153 5.31466 13.9594 5.32601L13.975 2.66318L13.9905 0.000342589C11.6028 -0.0135974 9.21813 0.267974 6.84098 0.839432L7.46339 3.42855ZM13.975 2.66318L13.9594 5.32601C16.0586 5.33827 18.1565 5.42936 20.2534 5.59932L20.4685 2.94514L20.6836 0.290967C18.4543 0.110264 16.2232 0.0133775 13.9905 0.000342589L13.975 2.66318ZM20.4685 2.94514L20.2534 5.59932C22.5156 5.78268 24.7803 5.83904 27.0471 5.76834L26.9641 3.10676L26.8811 0.445171C24.8133 0.509656 22.7477 0.458268 20.6836 0.290967L20.4685 2.94514ZM26.9641 3.10676L27.0471 5.76834C28.7217 5.71612 30.4401 6.10326 32.2344 7.01073L33.4362 4.63447L34.638 2.25821C32.1374 0.993553 29.5411 0.362216 26.8811 0.445171L26.9641 3.10676ZM33.4362 4.63447L32.2344 7.01073C35.0516 8.43555 38.0195 8.58435 40.932 7.40064L39.9294 4.93372L38.9268 2.46679C37.4765 3.05621 36.1156 3.00551 34.638 2.25821L33.4362 4.63447ZM39.9294 4.93372L40.932 7.40064C42.8307 6.62898 44.675 6.25144 46.4792 6.23251L46.4513 3.56978L46.4234 0.907046C43.8946 0.933573 41.3909 1.46533 38.9268 2.46679L39.9294 4.93372ZM46.4513 3.56978L46.4792 6.23251C48.3885 6.21249 50.3014 6.46468 52.2249 6.99679L52.9349 4.43031L53.6449 1.86383C51.2566 1.20312 48.8472 0.881621 46.4234 0.907046L46.4513 3.56978ZM52.9349 4.43031L52.2249 6.99679C54.3987 7.59816 56.573 8.17517 58.7479 8.72781L59.4037 6.14695L60.0595 3.56608C57.921 3.0227 55.7828 2.45528 53.6449 1.86383L52.9349 4.43031ZM59.4037 6.14695L58.7479 8.72781C61.6013 9.45285 64.4361 9.0392 67.1342 7.6524L65.917 5.28404L64.6997 2.91568C63.0269 3.77545 61.5195 3.93708 60.0595 3.56608L59.4037 6.14695ZM65.917 5.28404L67.1342 7.6524C68.6021 6.89797 69.8889 6.89233 71.2584 7.55451L72.4175 5.15715L73.5767 2.7598C70.6497 1.34459 67.6028 1.42354 64.6997 2.91568L65.917 5.28404ZM72.4175 5.15715L71.2584 7.55451C73.8 8.78339 76.4419 9.3153 79.1393 9.06605L78.8943 6.41446L78.6492 3.76288C77.0074 3.9146 75.3316 3.6083 73.5767 2.7598L72.4175 5.15715ZM78.8943 6.41446L79.1393 9.06605C81.3524 8.86155 83.5659 8.60213 85.78 8.28784L85.4058 5.65139L85.0316 3.01494C82.9028 3.31711 80.7754 3.56641 78.6492 3.76288L78.8943 6.41446ZM85.4058 5.65139L85.78 8.28784C87.8272 7.99725 89.8689 7.85457 91.9062 7.85903L91.912 5.19616L91.9179 2.53328C89.6231 2.52826 87.3273 2.68906 85.0316 3.01494L85.4058 5.65139ZM91.912 5.19616L91.9062 7.85903C93.939 7.86348 95.9705 8.0198 98.0016 8.32858L98.4018 5.69595L98.8021 3.06332C96.5122 2.7152 94.2171 2.53832 91.9179 2.53328L91.912 5.19616ZM98.4018 5.69595L98.0016 8.32858C100.297 8.67756 102.598 8.84742 104.903 8.83751L104.892 6.17466L104.881 3.5118C102.853 3.52052 100.827 3.37124 98.8021 3.06332L98.4018 5.69595ZM104.892 6.17466L104.903 8.83751C107.267 8.82736 109.629 8.55645 111.985 8.02872L111.403 5.43021L110.821 2.83169C108.829 3.27794 106.849 3.50334 104.881 3.5118L104.892 6.17466ZM111.403 5.43021L111.985 8.02872C113.753 7.63276 115.496 7.65646 117.247 8.09925L117.9 5.5176L118.553 2.93594C115.991 2.28824 113.402 2.25368 110.821 2.83169L111.403 5.43021ZM117.9 5.5176L117.247 8.09925C119.431 8.65139 121.616 9.16698 123.802 9.64599L124.372 7.04484L124.942 4.44368C122.812 3.97688 120.682 3.4743 118.553 2.93594L117.9 5.5176ZM124.372 7.04484L123.802 9.64599C126.53 10.2438 129.254 9.95464 131.902 8.85571L130.882 6.39618L129.861 3.93666C128.146 4.64843 126.53 4.79173 124.942 4.44368L124.372 7.04484ZM130.882 6.39618L131.902 8.85571C133.573 8.16235 135.139 8.06383 136.692 8.48471L137.388 5.91452L138.085 3.34434C135.326 2.59673 132.554 2.81932 129.861 3.93666L130.882 6.39618ZM137.388 5.91452L136.692 8.48471C139.185 9.16022 141.707 9.33079 144.238 8.98663L143.879 6.34803L143.521 3.70944C141.709 3.95575 139.904 3.83732 138.085 3.34434L137.388 5.91452ZM143.879 6.34803L144.238 8.98663C145.928 8.75686 147.627 8.96782 149.376 9.66593L150.363 7.19262L151.35 4.71931C148.797 3.70083 146.173 3.34873 143.521 3.70944L143.879 6.34803ZM150.363 7.19262L149.376 9.66593C152.274 10.822 155.233 10.6369 158.055 9.2308L156.868 6.84733L155.68 4.46385C154.133 5.23477 152.755 5.27986 151.35 4.71931L150.363 7.19262ZM156.868 6.84733L158.055 9.2308C159.762 8.38049 161.322 8.18751 162.828 8.508L163.382 5.90343L163.936 3.29886C161.126 2.7009 158.343 3.13719 155.68 4.46385L156.868 6.84733ZM163.382 5.90343L162.828 8.508C164.987 8.96741 167.146 9.4257 169.305 9.88288L169.857 7.27776L170.408 4.67264C168.251 4.21583 166.094 3.7579 163.936 3.29886L163.382 5.90343ZM169.857 7.27776L169.305 9.88288C171.525 10.353 173.748 10.741 175.973 11.0469L176.336 8.40884L176.698 5.77076C174.601 5.48251 172.505 5.11653 170.408 4.67264L169.857 7.27776ZM176.336 8.40884L175.973 11.0469C178.265 11.3619 180.561 11.505 182.861 11.4758L182.827 8.81313L182.793 6.15046C180.76 6.1763 178.729 6.04989 176.698 5.77076L176.336 8.40884ZM182.827 8.81313L182.861 11.4758C185.115 11.4472 187.369 11.3082 189.625 11.0592L189.333 8.41239L189.04 5.7656C186.955 5.99582 184.873 6.12403 182.793 6.15046L182.827 8.81313ZM189.333 8.41239L189.625 11.0592C191.576 10.8437 193.52 10.871 195.463 11.1408L195.829 8.50323L196.196 5.86568C193.816 5.53514 191.429 5.5018 189.04 5.7656L189.333 8.41239ZM195.829 8.50323L195.463 11.1408C197.869 11.475 200.282 11.4733 202.696 11.1367L202.328 8.49931L201.96 5.86195C200.031 6.13096 198.112 6.13186 196.196 5.86568L195.829 8.50323ZM202.328 8.49931L202.696 11.1367C204.648 10.8645 206.59 10.8387 208.528 11.0579L208.828 8.41189L209.127 5.76588C206.742 5.49608 204.351 5.52856 201.96 5.86195L202.328 8.49931ZM208.828 8.41189L208.528 11.0579C210.932 11.3298 213.341 11.2725 215.748 10.8885L215.329 8.25889L214.909 5.62926C212.972 5.93826 211.047 5.98303 209.127 5.76588L208.828 8.41189ZM215.329 8.25889L215.748 10.8885C217.587 10.5952 219.413 10.6515 221.244 11.06L221.824 8.46093L222.403 5.86189C219.919 5.3079 217.415 5.2295 214.909 5.62926L215.329 8.25889ZM221.824 8.46093L221.244 11.06C223.97 11.6678 226.693 11.3911 229.343 10.304L228.333 7.84034L227.322 5.3767C225.609 6.07949 223.993 6.21652 222.403 5.86189L221.824 8.46093ZM228.333 7.84034L229.343 10.304C231.064 9.59832 232.687 9.45383 234.283 9.79657L234.842 7.19304L235.401 4.5895C232.681 4.00545 229.965 4.29249 227.322 5.3767L228.333 7.84034ZM234.842 7.19304L234.283 9.79657C236.531 10.2793 238.783 10.6414 241.04 10.8826L241.323 8.23475L241.606 5.58695C239.538 5.36593 237.47 5.03361 235.401 4.5895L234.842 7.19304ZM241.323 8.23475L241.04 10.8826C243.24 11.1177 245.442 11.3047 247.644 11.4433L247.812 8.78569L247.979 6.12807C245.854 5.9943 243.729 5.81393 241.606 5.58695L241.323 8.23475ZM247.812 8.78569L247.644 11.4433C249.719 11.5739 251.792 11.8094 253.865 12.1502L254.297 9.52259L254.729 6.89497C252.482 6.52565 250.232 6.26992 247.979 6.12807L247.812 8.78569ZM254.297 9.52259L253.865 12.1502C256.393 12.5657 258.928 12.4518 261.448 11.8205L260.801 9.23748L260.153 6.65445C258.322 7.11338 256.521 7.18954 254.729 6.89497L254.297 9.52259ZM260.801 9.23748L261.448 11.8205C263.412 11.3283 265.358 11.0935 267.29 11.1096L267.313 8.44685L267.335 5.78406C264.935 5.76407 262.54 6.05644 260.153 6.65445L260.801 9.23748ZM267.313 8.44685L267.29 11.1096C269.358 11.1269 271.425 11.2578 273.491 11.5026L273.804 8.85821L274.117 6.21384C271.859 5.94624 269.598 5.80292 267.335 5.78406L267.313 8.44685ZM273.804 8.85821L273.491 11.5026C275.747 11.77 278.007 11.9151 280.269 11.9375L280.295 9.27476L280.322 6.61201C278.252 6.59147 276.184 6.45881 274.117 6.21384L273.804 8.85821ZM280.295 9.27476L280.269 11.9375C282.396 11.9586 284.523 12.0254 286.649 12.1379L286.79 9.47872L286.931 6.81956C284.728 6.70307 282.525 6.63389 280.322 6.61201L280.295 9.27476ZM286.79 9.47872L286.649 12.1379C288.831 12.2533 291.014 12.3469 293.196 12.4186L293.284 9.75716L293.371 7.09571C291.224 7.02514 289.077 6.93309 286.931 6.81956L286.79 9.47872ZM293.284 9.75716L293.196 12.4186C295.655 12.4994 298.106 12.1789 300.54 11.4707L299.797 8.91381L299.053 6.35695C297.133 6.91552 295.242 7.15721 293.371 7.09571L293.284 9.75716ZM299.797 8.91381L300.54 11.4707C302.42 10.924 304.264 10.7343 306.089 10.8842L306.307 8.23029L306.525 5.57635C304.023 5.37085 301.528 5.63689 299.053 6.35695L299.797 8.91381ZM306.307 8.23029L306.089 10.8842C307.568 11.0058 308.236 11.5267 308.636 12.2124L310.936 10.8705L313.236 9.52873C311.79 7.04944 309.371 5.81022 306.525 5.57635L306.307 8.23029ZM310.936 10.8705L308.636 12.2124C309.21 13.1959 309.48 14.4534 309.262 16.1461L311.903 16.4862L314.544 16.8264C314.883 14.1964 314.509 11.7101 313.236 9.52873L310.936 10.8705ZM311.903 16.4862L309.262 16.1461C308.979 18.3419 308.74 20.5387 308.545 22.7365L311.197 22.9725L313.849 23.2085C314.039 21.0806 314.27 18.9532 314.544 16.8264L311.903 16.4862ZM311.197 22.9725L308.545 22.7365C308.313 25.3441 308.722 27.9303 309.722 30.4651L312.199 29.4881L314.676 28.5111C313.955 26.684 313.697 24.9265 313.849 23.2085L311.197 22.9725ZM312.199 29.4881L309.722 30.4651C310.304 31.9413 310.256 33.3326 309.536 34.8249L311.934 35.9819L314.333 37.139C315.686 34.3348 315.814 31.3968 314.676 28.5111L312.199 29.4881ZM311.934 35.9819L309.536 34.8249C308.161 37.6746 308.109 40.6548 309.383 43.5508L311.82 42.4784L314.258 41.406C313.611 39.9366 313.635 38.5858 314.333 37.139L311.934 35.9819ZM311.82 42.4784L309.383 43.5508C310.021 45.0007 309.989 46.3349 309.264 47.7795L311.644 48.9737L314.024 50.168C315.455 47.3174 315.54 44.3214 314.258 41.406L311.82 42.4784ZM311.644 48.9737L309.264 47.7795C308.008 50.2829 307.388 52.8816 307.485 55.5428L310.146 55.4463L312.807 55.3498C312.746 53.6761 313.125 51.9597 314.024 50.168L311.644 48.9737ZM310.146 55.4463L307.485 55.5428C307.549 57.3062 307.118 57.9755 306.832 58.2395L308.636 60.1975L310.441 62.1556C312.325 60.4196 312.9 57.9214 312.807 55.3498L310.146 55.4463ZM308.636 60.1975L306.832 58.2395C306.527 58.5207 305.796 58.9016 304.028 58.7265L303.765 61.3764L303.503 64.0263C306.059 64.2794 308.576 63.8744 310.441 62.1556L308.636 60.1975ZM303.765 61.3764L304.028 58.7265C302.03 58.5286 300.028 58.1438 298.022 57.569L297.288 60.1289L296.555 62.6888C298.86 63.349 301.176 63.7959 303.503 64.0263L303.765 61.3764ZM297.288 60.1289L298.022 57.569C295.217 56.7654 292.4 57.0279 289.685 58.2534L290.781 60.6805L291.876 63.1077C293.527 62.3626 295.049 62.2573 296.555 62.6888L297.288 60.1289ZM290.781 60.6805L289.685 58.2534C288.293 58.8816 287.016 58.8364 285.584 58.0384L284.288 60.3642L282.991 62.69C285.851 64.2844 288.902 64.4502 291.876 63.1077L290.781 60.6805ZM284.288 60.3642L285.584 58.0384C282.766 56.467 279.755 56.2304 276.788 57.4447L277.797 59.9092L278.806 62.3736C280.202 61.8022 281.518 61.869 282.991 62.69L284.288 60.3642ZM277.797 59.9092L276.788 57.4447C274.873 58.2288 273.007 58.6372 271.18 58.7012L271.274 61.3625L271.367 64.0237C273.875 63.9358 276.358 63.3753 278.806 62.3736L277.797 59.9092ZM271.274 61.3625L271.18 58.7012C269.073 58.7752 266.966 58.778 264.861 58.7097L264.775 61.3712L264.689 64.0326C266.914 64.1048 269.14 64.1018 271.367 64.0237L271.274 61.3625ZM264.775 61.3712L264.861 58.7097C262.921 58.6467 260.975 58.341 259.021 57.7864L258.294 60.3481L257.567 62.9098C259.924 63.5788 262.3 63.9551 264.689 64.0326L264.775 61.3712ZM258.294 60.3481L259.021 57.7864C256.786 57.1519 254.545 56.6292 252.301 56.2191L251.822 58.8386L251.343 61.4581C253.417 61.837 255.492 62.3208 257.567 62.9098L258.294 60.3481ZM251.822 58.8386L252.301 56.2191C249.617 55.7287 246.942 56.0326 244.331 57.0671L245.311 59.5427L246.292 62.0184C248.043 61.3249 249.708 61.1593 251.343 61.4581L251.822 58.8386ZM245.311 59.5427L244.331 57.0671C242.435 57.818 240.592 58.1773 238.788 58.179L238.791 60.8419L238.793 63.5048C241.321 63.5023 243.826 62.9955 246.292 62.0184L245.311 59.5427ZM238.791 60.8419L238.788 58.179C236.988 58.1808 235.167 57.8228 233.311 57.0741L232.315 59.5437L231.319 62.0133C233.764 62.9997 236.261 63.5072 238.793 63.5048L238.791 60.8419ZM232.315 59.5437L233.311 57.0741C230.87 56.09 228.38 55.5752 225.855 55.5598L225.839 58.2226L225.823 60.8854C227.63 60.8964 229.457 61.2624 231.319 62.0133L232.315 59.5437ZM225.839 58.2226L225.855 55.5598C223.302 55.5442 220.776 56.0728 218.296 57.1036L219.317 59.5626L220.339 62.0217C222.222 61.2393 224.044 60.8746 225.823 60.8854L225.839 58.2226ZM219.317 59.5626L218.296 57.1036C216.463 57.8651 214.705 58.1554 212.993 58.031L212.8 60.6869L212.607 63.3428C215.221 63.5326 217.808 63.0733 220.339 62.0217L219.317 59.5626ZM212.8 60.6869L212.993 58.031C210.963 57.8837 208.933 57.5824 206.902 57.1257L206.318 59.7238L205.734 62.3218C208.018 62.8352 210.309 63.176 212.607 63.3428L212.8 60.6869ZM206.318 59.7238L206.902 57.1257C204.473 56.5797 202.025 56.423 199.571 56.6601L199.827 59.3106L200.083 61.9612C201.967 61.7791 203.848 61.8978 205.734 62.3218L206.318 59.7238ZM199.827 59.3106L199.571 56.6601C197.586 56.8518 195.607 56.835 193.63 56.61L193.329 59.2558L193.028 61.9016C195.375 62.1688 197.728 62.1886 200.083 61.9612L199.827 59.3106ZM193.329 59.2558L193.63 56.61C191.213 56.3347 188.79 56.4093 186.371 56.8303L186.827 59.4538L187.284 62.0772C189.21 61.7421 191.122 61.6846 193.028 61.9016L193.329 59.2558ZM186.827 59.4538L186.371 56.8303C184.448 57.165 182.539 57.2191 180.636 56.9958L180.326 59.6405L180.015 62.2852C182.436 62.5692 184.861 62.4988 187.284 62.0772L186.827 59.4538ZM180.326 59.6405L180.636 56.9958C178.285 56.7199 175.928 56.6973 173.569 56.9279L173.828 59.5781L174.087 62.2284C176.068 62.0348 178.043 62.0538 180.015 62.2852L180.326 59.6405ZM173.828 59.5781L173.569 56.9279C171.681 57.1125 169.797 56.9995 167.908 56.5848L167.337 59.1857L166.766 61.7867C169.193 62.3193 171.636 62.468 174.087 62.2284L173.828 59.5781ZM167.337 59.1857L167.908 56.5848C165.565 56.0706 163.211 55.8132 160.848 55.8155L160.851 58.4784L160.853 61.1413C162.823 61.1393 164.793 61.3535 166.766 61.7867L167.337 59.1857ZM160.851 58.4784L160.848 55.8155C158.869 55.8175 156.89 55.6125 154.909 55.1981L154.364 57.8046L153.819 60.4111C156.154 60.8995 158.5 61.1436 160.853 61.1413L160.851 58.4784ZM154.364 57.8046L154.909 55.1981C152.642 54.7242 150.37 54.396 148.093 54.2143L147.882 56.8688L147.67 59.5232C149.719 59.6867 151.769 59.9824 153.819 60.4111L154.364 57.8046ZM147.882 56.8688L148.093 54.2143C145.747 54.0271 143.397 54.0823 141.047 54.3788L141.381 57.0208L141.714 59.6627C143.705 59.4114 145.69 59.3652 147.67 59.5232L147.882 56.8688ZM141.381 57.0208L141.047 54.3788C138.937 54.6451 136.828 54.8377 134.722 54.9566L134.872 57.6153L135.022 60.2739C137.252 60.148 139.483 59.9442 141.714 59.6627L141.381 57.0208ZM134.872 57.6153L134.722 54.9566C132.424 55.0863 130.127 55.3838 127.832 55.8477L128.359 58.4578L128.886 61.0679C130.938 60.6533 132.983 60.389 135.022 60.2739L134.872 57.6153ZM128.359 58.4578L127.832 55.8477C125.855 56.2471 123.892 56.4129 121.938 56.349L121.851 59.0105L121.764 61.6719C124.14 61.7497 126.515 61.5471 128.886 61.0679L128.359 58.4578ZM121.851 59.0105L121.938 56.349C119.713 56.2762 117.486 56.279 115.259 56.3575L115.353 59.0187L115.446 61.68C117.554 61.6057 119.659 61.603 121.764 61.6719L121.851 59.0105ZM115.353 59.0187L115.259 56.3575C113.372 56.424 111.483 56.1972 109.582 55.668L108.868 58.2334L108.154 60.7988C110.564 61.4695 112.998 61.7662 115.446 61.68L115.353 59.0187ZM108.868 58.2334L109.582 55.668C107.09 54.9747 104.568 54.7862 102.036 55.1135L102.378 57.7544L102.719 60.3953C104.529 60.1614 106.333 60.2922 108.154 60.7988L108.868 58.2334ZM102.378 57.7544L102.036 55.1135C100.006 55.3758 97.9826 55.4728 95.963 55.405L95.8738 58.0664L95.7845 60.7278C98.0948 60.8053 100.407 60.6942 102.719 60.3953L102.378 57.7544ZM95.8738 58.0664L95.963 55.405C93.774 55.3316 91.5844 55.288 89.3944 55.2743L89.3776 57.9371L89.3609 60.5999C91.5026 60.6134 93.6438 60.656 95.7845 60.7278L95.8738 58.0664ZM89.3776 57.9371L89.3944 55.2743C87.1789 55.2603 84.9624 55.3083 82.7451 55.4181L82.8768 58.0777L83.0085 60.7374C85.1272 60.6324 87.2446 60.5866 89.3609 60.5999L89.3776 57.9371ZM82.8768 58.0777L82.7451 55.4181C80.7715 55.5159 78.8006 55.3987 76.8291 55.0653L76.3851 57.6909L75.9411 60.3165C78.2893 60.7136 80.6462 60.8544 83.0085 60.7374L82.8768 58.0777ZM76.3851 57.6909L76.8291 55.0653C74.7854 54.7197 72.7397 54.2346 70.6914 53.6086L69.9131 56.1552L69.1348 58.7018C71.3961 59.3929 73.665 59.9316 75.9411 60.3165L76.3851 57.6909ZM69.9131 56.1552L70.6914 53.6086C67.8836 52.7505 65.0545 52.9766 62.3237 54.1922L63.4067 56.625L64.4896 59.0577C66.1246 58.3299 67.6331 58.2428 69.1348 58.7018L69.9131 56.1552ZM63.4067 56.625L62.3237 54.1922C60.7119 54.9097 59.2283 54.9771 57.74 54.4834L56.9016 57.0109L56.0633 59.5384C58.8826 60.4735 61.7357 60.2836 64.4896 59.0577L63.4067 56.625ZM56.9016 57.0109L57.74 54.4834C55.1804 53.6345 52.5714 53.4286 49.9519 53.888L50.4118 56.5108L50.8718 59.1337C52.5977 58.831 54.3152 58.9586 56.0633 59.5384L56.9016 57.0109ZM50.4118 56.5108L49.9519 53.888C48.0379 54.2236 46.1384 54.2702 44.2443 54.0311L43.9107 56.673L43.5771 59.3149C46.0058 59.6215 48.4404 59.5601 50.8718 59.1337L50.4118 56.5108ZM43.9107 56.673L44.2443 54.0311C41.8392 53.7274 39.428 53.7565 37.0173 54.1169L37.4109 56.7505L37.8046 59.3841C39.7373 59.0952 41.6592 59.0727 43.5771 59.3149L43.9107 56.673ZM37.4109 56.7505L37.0173 54.1169C35.3499 54.3661 33.6737 54.1605 31.9403 53.4473L30.927 55.9099L29.9138 58.3724C32.4821 59.4292 35.1285 59.7841 37.8046 59.3841L37.4109 56.7505ZM30.927 55.9099L31.9403 53.4473C29.1017 52.2793 26.1826 52.3407 23.3561 53.5818L24.4267 56.02L25.4974 58.4582C27.0361 57.7825 28.4505 57.7704 29.9138 58.3724L30.927 55.9099ZM24.4267 56.02L23.3561 53.5818C21.8601 54.2387 20.4852 54.2272 19.033 53.5654L17.9289 55.9886L16.8247 58.4118C19.671 59.7087 22.6281 59.7181 25.4974 58.4582L24.4267 56.02ZM17.9289 55.9886L19.033 53.5654C16.4595 52.3928 13.7893 51.9593 11.077 52.3408L11.4479 54.9778L11.8188 57.6147C13.4493 57.3853 15.0997 57.6258 16.8247 58.4118L17.9289 55.9886ZM11.4479 54.9778L11.077 52.3408C9.04648 52.6264 8.07147 52.4323 7.72319 52.2672L6.58247 54.6734L5.44175 57.0796C7.23795 57.9311 9.50655 57.9399 11.8188 57.6147L11.4479 54.9778ZM6.58247 54.6734L7.72319 52.2672C7.8682 52.336 7.82794 52.4017 7.70555 52.1443C7.56877 51.8567 7.4078 51.3167 7.32376 50.4106L4.67226 50.6565L2.02076 50.9025C2.23719 53.2358 2.99779 55.921 5.44175 57.0796L6.58247 54.6734ZM4.67226 50.6565L7.32376 50.4106C7.10569 48.0597 6.64634 45.7143 5.95051 43.3765L3.39829 44.1362L0.846067 44.8959C1.44638 46.9127 1.83633 48.9142 2.02076 50.9025L4.67226 50.6565ZM3.39829 44.1362L5.95051 43.3765C5.39578 41.5128 5.21537 39.6873 5.38933 37.8818L2.73873 37.6264L0.088123 37.371C-0.154638 39.8906 0.104657 42.405 0.846067 44.8959L3.39829 44.1362ZM2.73873 37.6264L5.38933 37.8818C5.59671 35.7295 5.81665 33.5774 6.04914 31.4255L3.40167 31.1395L0.754199 30.8534C0.519496 33.0257 0.297471 35.1983 0.088123 37.371L2.73873 37.6264ZM3.40167 31.1395L6.04914 31.4255C6.28998 29.1964 6.44557 26.9654 6.51584 24.7326L3.85427 24.6489L1.19271 24.5651C1.12671 26.6622 0.980565 28.7583 0.754199 30.8534L3.40167 31.1395ZM3.85427 24.6489L6.51584 24.7326C6.58322 22.5916 6.67952 20.4511 6.80475 18.3111L4.14642 18.1555L1.48809 17.9999C1.36006 20.1878 1.2616 22.3762 1.19271 24.5651L3.85427 24.6489ZM4.14642 18.1555L6.80475 18.3111C6.93488 16.0874 6.98994 13.8623 6.96993 11.6359L4.30715 11.6599L1.64438 11.6838C1.66332 13.7904 1.61122 15.8957 1.48809 17.9999L4.14642 18.1555ZM4.30715 11.6599L6.96993 11.6359C6.94867 9.27173 6.63601 7.13194 5.91907 5.3187L3.44273 6.29782L0.966392 7.27693C1.36307 8.28019 1.62668 9.71511 1.64438 11.6838L4.30715 11.6599ZM3.44273 6.29782L5.91907 5.3187C5.8037 5.02691 5.73511 4.81792 5.69776 4.67974C5.65554 4.52351 5.67552 4.53865 5.6779 4.66797C5.67933 4.74542 5.69024 5.32051 5.23755 5.92366C4.99027 6.25313 4.65685 6.51602 4.27266 6.67942C3.9069 6.83498 3.57921 6.86546 3.35824 6.86165L3.4041 4.19917L3.44997 1.53668C2.68427 1.52349 1.67507 1.79804 0.978053 2.72672C0.395821 3.50247 0.345179 4.33874 0.353043 4.76598C0.368948 5.6301 0.675161 6.54037 0.966392 7.27693L3.44273 6.29782ZM3.4041 4.19917L3.35824 6.86165C3.93217 6.87154 4.65353 6.75489 5.31387 6.62953C6.05022 6.48974 6.97875 6.2838 8.0858 6.01767L7.46339 3.42855L6.84098 0.839432C5.7729 1.09619 4.93731 1.28014 4.32056 1.39722C3.6278 1.52873 3.40709 1.53595 3.44997 1.53668L3.4041 4.19917Z" fill="black"/>
<path d="M23.9756 28.1307C23.3515 28.12 22.8961 27.7827 22.6093 27.1189C22.476 26.8045 22.3406 26.6149 22.203 26.5501C22.0998 26.4998 21.8264 26.4708 21.3826 26.4631C20.509 26.4481 19.4885 27.1102 18.321 28.4495C16.6866 30.3217 15.8552 32.0863 15.8266 33.7435C15.8136 34.4992 16.0555 35.1519 16.5524 35.7014C17.0492 36.2509 17.6512 36.5318 18.3584 36.544C19.0449 36.5558 19.7448 36.3875 20.4582 36.0392C20.7101 35.9117 21.2429 35.5811 22.0566 35.0472C22.6037 34.6959 23.0158 34.5227 23.2932 34.5275C23.7092 34.5346 24.0602 34.6933 24.3461 35.0034C24.6116 35.2923 24.7412 35.6205 24.7349 35.988C24.7279 36.3971 24.5414 36.751 24.1756 37.0499C22.2412 38.6256 20.286 39.3965 18.3099 39.3625C16.7498 39.3356 15.4423 38.7443 14.3871 37.5887C13.3798 36.4756 12.889 35.1771 12.9145 33.6933C12.9545 31.3706 14.0112 29.0168 16.0844 26.632C17.8462 24.6094 19.6284 23.6136 21.4312 23.6446C21.7362 23.6499 22.0099 23.665 22.2523 23.69C22.5015 23.7151 22.7194 23.7501 22.9059 23.7949C23.2161 23.502 23.5861 23.3593 24.016 23.3667C24.7232 23.3788 25.1531 23.792 25.3055 24.6061C25.4133 25.1905 25.4606 25.871 25.4472 26.6476C25.4412 26.9943 25.3352 27.308 25.1293 27.5888C24.8593 27.9587 24.4748 28.1393 23.9756 28.1307ZM33.4234 39.5188C33.1946 39.5148 32.8481 39.4984 32.3839 39.4696C31.9197 39.4408 31.5732 39.4245 31.3444 39.4205L31.1462 39.4483C31.1045 39.4545 31.0559 39.4572 31.0004 39.4562C30.0159 39.4393 29.5335 38.8553 29.5533 37.7043C29.5558 37.5587 29.6009 37.1572 29.6885 36.4999C29.8 35.6626 29.8623 34.866 29.8753 34.1103C29.8715 34.3322 29.8322 33.194 29.7573 30.6959C29.2299 30.7146 28.7408 30.72 28.2901 30.7123C27.4442 30.6977 26.8316 30.6317 26.4521 30.5142C25.7554 30.2941 25.4124 29.872 25.4232 29.248C25.4293 28.8944 25.5629 28.5846 25.8241 28.3186C26.0853 28.0526 26.4135 27.923 26.8087 27.9299C26.9405 27.9321 27.1758 27.9604 27.5147 28.0148C27.8607 28.0624 28.1342 28.0879 28.3353 28.0914C28.6819 28.0974 29.1155 28.091 29.636 28.0722C30.1565 28.0534 30.5901 28.047 30.9368 28.053C31.5331 28.0632 31.9647 28.1712 32.2316 28.377C32.5328 28.611 32.6784 29.0158 32.6685 29.5913C32.6575 30.2292 32.678 31.0479 32.7302 32.0476C32.8828 32.0433 33.0216 32.0422 33.1464 32.0443C34.8243 32.0732 36.0791 32.3064 36.9108 32.7438C38.0932 33.3537 38.6711 34.4283 38.6446 35.9675C38.6219 37.2849 38.0367 38.2458 36.8888 38.8502C35.986 39.3202 34.8309 39.543 33.4234 39.5188ZM33.4478 34.4735C33.2468 34.4701 33.0144 34.473 32.7507 34.4823C32.7488 34.9955 32.6855 35.851 32.5608 37.0487C32.9004 37.0615 33.202 37.0701 33.4655 37.0747C35.0116 37.1013 35.7916 36.716 35.8053 35.9186C35.8163 35.2807 35.5738 34.8639 35.0778 34.6681C34.8024 34.5523 34.2591 34.4875 33.4478 34.4735ZM43.4226 40.0343C42.4935 40.0183 41.6569 39.8652 40.9129 39.5749C39.9139 39.1832 39.4208 38.6233 39.4333 37.8953C39.4381 37.618 39.5815 37.343 39.8636 37.0705C40.1528 36.7911 40.4534 36.6541 40.7654 36.6594C41.0913 36.6651 41.5365 36.7906 42.101 37.0362C42.6724 37.2818 43.128 37.4076 43.4677 37.4134C43.7312 37.418 43.9932 37.3046 44.2538 37.0733C44.5146 36.835 44.6471 36.5911 44.6514 36.3415C44.6581 35.9532 44.3891 35.6607 43.8446 35.4641C43.3271 35.3095 42.813 35.1585 42.3023 35.011C41.751 34.8073 41.4787 34.5078 41.4855 34.1126C41.4942 33.6065 41.7048 33.2598 42.1172 33.0727C42.3481 32.9588 42.7691 32.8724 43.3805 32.8136C43.8251 32.7727 44.128 32.7016 44.2893 32.6004C44.5067 32.4585 44.6187 32.1969 44.6253 31.8155C44.6341 31.3024 44.1081 31.0368 43.0473 31.0185C42.8324 31.0148 42.5319 31.1414 42.1461 31.3983C41.7602 31.6552 41.4008 31.7808 41.068 31.7751C40.7005 31.7687 40.3766 31.6522 40.0961 31.4254C39.7951 31.1844 39.6478 30.8802 39.6541 30.5127C39.6646 29.9025 40.1279 29.3765 41.0441 28.9345C41.8134 28.5663 42.4962 28.3873 43.0924 28.3976C44.1533 28.4159 45.1027 28.6611 45.9407 29.1333C46.9848 29.72 47.4982 30.5195 47.4807 31.5318C47.4628 32.5718 47.1117 33.4258 46.4275 34.0937C47.1208 34.9102 47.4614 35.6755 47.4491 36.3896C47.4297 37.5129 47.0536 38.408 46.3208 39.0751C45.5882 39.7352 44.6221 40.055 43.4226 40.0343ZM59.1416 42.4794C58.4829 42.468 58.051 42.1797 57.8457 41.6144C57.7131 41.2584 57.6672 40.7028 57.708 39.9475L52.3518 39.8552C52.2963 39.8543 51.8208 39.8807 50.9252 39.9347C50.9232 40.0456 50.9237 40.2225 50.9264 40.4653C50.9291 40.715 50.9292 40.9057 50.927 41.0375C50.9202 41.4327 50.7759 41.7562 50.4941 42.0079C50.2193 42.2598 49.8739 42.3822 49.4578 42.375C48.4594 42.3578 47.9708 41.7356 47.9919 40.5083C47.9962 40.2587 48.0089 39.9226 48.0301 39.4999C48.0512 39.0772 48.0639 38.7445 48.0681 38.5018C48.075 38.0997 48.2194 37.7727 48.5011 37.5209C48.7617 37.2896 49.0932 37.1705 49.4956 37.1635C50.1277 36.3005 50.5685 35.2713 50.818 34.0757C50.9922 33.2256 51.0912 32.1072 51.1151 30.7205C51.1386 29.3546 51.8923 28.6844 53.376 28.71C53.5494 28.713 53.8716 28.7324 54.3426 28.7682C54.8206 28.7973 55.1983 28.8142 55.4757 28.819C55.7391 28.8235 56.1312 28.8095 56.652 28.7768C57.1727 28.7442 57.5475 28.7298 57.7763 28.7338C58.4696 28.7457 58.9262 29.0137 59.1461 29.5376C59.2794 29.852 59.3398 30.3732 59.3272 31.1012C59.3221 31.3994 59.2936 31.8428 59.2419 32.4314C59.1971 33.0202 59.1721 33.4636 59.167 33.7618C59.1624 34.0252 59.158 35.2909 59.1536 37.5588C60.1365 37.6728 60.621 38.132 60.6071 38.9363C60.6025 39.2067 60.6031 39.5743 60.6089 40.0391C60.6148 40.5038 60.6155 40.868 60.6109 41.1314C60.6041 41.5267 60.4598 41.8501 60.1781 42.1019C59.9031 42.3607 59.5576 42.4866 59.1416 42.4794ZM52.4785 37.3294L56.2538 37.3944C56.2585 35.1127 56.2623 33.8851 56.2653 33.7118C56.27 33.4344 56.2945 33.0222 56.3386 32.475C56.3919 31.7963 56.4199 31.3806 56.4225 31.2281C55.1946 31.2416 54.3798 31.2345 53.978 31.2068C53.8743 33.6047 53.3745 35.6456 52.4785 37.3294ZM70.7304 40.7024C70.4115 40.6969 69.9113 40.3415 69.2299 39.6362C68.5868 39.9303 68.0212 40.1494 67.5332 40.2936C67.0451 40.4447 66.6312 40.5173 66.2915 40.5115C64.6205 40.4827 63.3732 40.0138 62.5497 39.105C61.733 38.1962 61.3401 36.8509 61.3708 35.0689C61.3996 33.398 62.0412 31.9803 63.2958 30.8159C64.5506 29.6446 66.0377 29.0737 67.7572 29.1033C68.4159 29.1147 69.1754 29.315 70.0356 29.7044C71.0748 30.1731 71.5893 30.7056 71.579 31.3019C71.5747 31.5515 71.4912 31.7685 71.3285 31.953C71.2544 32.2291 71.1929 32.5783 71.144 33.0005C71.1022 33.416 71.0764 33.9045 71.0667 34.4661C71.0439 35.7904 71.1211 36.7454 71.2983 37.331C71.318 37.3938 71.4713 37.7571 71.7581 38.4209C72.0182 39.0218 72.1476 39.3639 72.1461 39.4471C72.1398 39.8146 71.9924 40.1172 71.7039 40.355C71.4224 40.5929 71.0979 40.7087 70.7304 40.7024ZM68.2741 33.5233C68.2779 33.3014 68.2961 33.0486 68.3287 32.7648C68.3684 32.4742 68.4225 32.1526 68.491 31.8001C68.3535 31.7283 68.2296 31.6777 68.1191 31.648C68.0157 31.6116 67.9259 31.5927 67.8496 31.5914C66.9066 31.5751 66.0751 31.9318 65.3551 32.6616C64.6353 33.3843 64.267 34.2311 64.2502 35.2018C64.2342 36.1309 64.3886 36.834 64.7133 37.3112C65.0381 37.7815 65.5333 38.0224 66.1989 38.0339C66.6288 38.0413 67.0356 37.9789 67.4193 37.8468C67.8101 37.7079 68.1778 37.5027 68.5223 37.2312C68.3427 35.5774 68.26 34.3415 68.2741 33.5233ZM84.91 39.5109C84.9035 39.8923 84.7593 40.2088 84.4775 40.4606C84.1956 40.7193 83.8502 40.8451 83.4411 40.8381C83.0251 40.8309 82.6807 40.6932 82.4079 40.4249C82.1349 40.1636 82.0018 39.8423 82.0083 39.461C82.0155 39.0449 82.047 38.4213 82.103 37.59C82.159 36.7517 82.1906 36.1246 82.1978 35.7086C82.2044 35.3272 82.194 34.9248 82.1666 34.5012C80.847 36.2194 79.667 37.4786 78.6268 38.2791C77.685 38.9981 76.985 39.5721 76.5268 40.0011C76.0687 40.4233 75.5797 40.6298 75.0597 40.6209C74.6714 40.6142 74.3264 40.5111 74.0247 40.3118C73.6751 40.0699 73.504 39.7375 73.5113 39.3146C73.5429 37.4772 73.5413 35.5595 73.5063 33.5614C73.4658 31.487 73.4451 30.4705 73.4444 30.5121C73.4512 30.1169 73.592 29.7934 73.8669 29.5415C74.1418 29.2827 74.4942 29.157 74.9241 29.1644C75.7007 29.1778 76.1687 29.5881 76.3282 30.3954C76.354 30.5068 76.3736 31.1799 76.387 32.4146L76.4228 36.379C77.331 35.5901 78.3015 34.6115 79.3343 33.4433C79.5748 33.17 80.4563 32.1206 81.979 30.295C82.4819 29.6864 83.0349 29.3873 83.6381 29.3977C84.0472 29.4048 84.3882 29.5424 84.661 29.8107C84.9339 30.072 85.0671 30.3933 85.0605 30.7747C85.0481 31.4957 85.0433 32.5776 85.0462 34.0203C85.0491 35.4629 85.0443 36.5448 85.0319 37.2659C85.0276 37.5155 85.0073 37.8897 84.971 38.3884C84.9346 38.8872 84.9143 39.2613 84.91 39.5109ZM84.3975 25.1766C84.2827 26.2011 83.5764 26.9449 82.2784 27.408C81.3292 27.7523 80.2063 27.9133 78.9097 27.891C77.8212 27.8722 76.8731 27.5473 76.0656 26.9161C75.2168 26.2634 74.8004 25.476 74.8163 24.5538C74.8212 24.2695 74.9362 24.0357 75.1613 23.8523C75.3934 23.6621 75.6793 23.5699 76.0191 23.5758C76.3588 23.5817 76.6414 23.6836 76.8669 23.8817C77.0925 24.0728 77.2028 24.3106 77.1979 24.5948C77.1921 24.9346 77.3673 25.2324 77.7235 25.4882C78.0796 25.7509 78.4865 25.8862 78.9441 25.8941C80.7607 25.9254 81.7969 25.5653 82.0526 24.8137C82.2352 24.2759 82.6247 24.0121 83.221 24.0224C83.6093 24.029 83.9125 24.1418 84.1306 24.3605C84.3488 24.5793 84.4378 24.8513 84.3975 25.1766ZM103.884 32.3577C103.697 32.3545 103.416 32.3427 103.042 32.3224C102.675 32.2953 102.398 32.2801 102.211 32.2769C102.107 32.2751 101.992 32.28 101.867 32.2918C101.959 35.4074 101.994 37.6066 101.972 38.8893C101.945 40.4424 101.426 41.2103 100.413 41.1928C100.039 41.1864 99.7116 41.0663 99.4312 40.8326C99.1303 40.5847 98.9831 40.2735 98.9896 39.8991C98.9937 39.6564 99.0105 39.2891 99.0398 38.7972C99.0692 38.2983 99.0859 37.9276 99.0901 37.6849C99.1065 36.735 99.0751 34.9347 98.9959 32.2839C98.8711 32.2818 98.5625 32.2764 98.0703 32.268C97.363 32.2558 96.8476 32.181 96.524 32.0437C96.0076 31.8267 95.7544 31.4235 95.7646 30.8342C95.771 30.4598 95.9049 30.1396 96.1661 29.8736C96.4343 29.6008 96.7765 29.468 97.1925 29.4751L103.339 29.581C104.691 29.6043 105.359 30.0805 105.343 31.0096C105.336 31.3979 105.196 31.7214 104.921 31.9802C104.653 32.2392 104.307 32.365 103.884 32.3577ZM111.241 41.3273C110.645 41.3171 110.018 41.2369 109.362 41.0869L109.279 45.3301C109.272 45.7322 109.131 46.0627 108.856 46.3215C108.581 46.5803 108.235 46.7061 107.819 46.699C107.403 46.6918 107.062 46.5542 106.797 46.286C106.531 46.0179 106.401 45.6828 106.408 45.2806C106.414 44.9547 106.443 43.6617 106.496 41.4016C106.539 39.724 106.562 38.3546 106.567 37.2935C106.572 35.7955 106.545 34.505 106.488 33.4221C106.409 31.9296 106.369 31.2457 106.367 31.3705C106.377 30.795 106.514 30.305 106.777 29.9003C107.083 29.4409 107.489 29.2156 107.996 29.2243C108.384 29.231 108.707 29.3683 108.966 29.6363C109.225 29.9043 109.352 30.2221 109.345 30.5896L109.333 30.6934C109.802 30.4379 110.27 30.2518 110.737 30.135C111.211 30.0114 111.683 29.9536 112.155 29.9617C113.749 29.9892 114.903 30.6853 115.614 32.05C116.144 33.0787 116.396 34.4042 116.368 36.0267C116.341 37.5451 115.886 38.7961 115.002 39.7796C114.055 40.8383 112.801 41.3542 111.241 41.3273ZM112.107 32.7386C111.67 32.7311 111.224 32.8275 110.77 33.0277C110.316 33.221 109.857 33.5183 109.392 33.9195C109.451 35.3492 109.467 36.7817 109.443 38.2169C110.056 38.4287 110.672 38.5398 111.289 38.5504C112.003 38.5627 112.555 38.3191 112.945 37.8195C113.3 37.3679 113.484 36.7538 113.497 35.9772C113.513 35.0412 113.483 34.3922 113.406 34.0302C113.219 33.1809 112.786 32.7503 112.107 32.7386ZM123.079 41.396C121.422 41.3675 120.073 40.9489 119.033 40.1403C117.883 39.2466 117.322 38.0059 117.349 36.4181C117.379 34.6639 117.866 33.1881 118.809 31.9906C119.858 30.6632 121.253 30.0144 122.994 30.0444C124.2 30.0652 125.199 30.2766 125.989 30.6786C127.027 31.2097 127.537 32.0161 127.518 33.0977C127.505 33.8604 127.067 34.5291 126.204 35.1038C125.811 35.3675 125.025 35.7492 123.844 36.2491L120.312 37.7384C120.639 38.1046 121.036 38.382 121.505 38.5704C121.973 38.7588 122.512 38.8582 123.122 38.8687C124.052 38.8847 124.842 38.7076 125.493 38.3374C126.075 38.0075 126.539 37.8456 126.885 37.8516C127.606 37.864 127.961 38.2204 127.949 38.9206C127.935 39.7111 127.345 40.3459 126.179 40.8252C125.201 41.2245 124.167 41.4148 123.079 41.396ZM122.95 32.5613C122.305 32.5502 121.75 32.7556 121.285 33.1776C120.82 33.5996 120.442 34.2381 120.15 35.0931C120.939 34.7668 121.725 34.444 122.507 34.1246C123.45 33.7177 124.203 33.3388 124.763 32.9878C124.303 32.7164 123.699 32.5742 122.95 32.5613ZM138.327 41.565C137.911 41.5579 137.567 41.4236 137.294 41.1623C137.021 40.901 136.888 40.5762 136.895 40.1879C136.905 39.5847 136.91 38.5028 136.909 36.9423C136.777 36.94 136.663 36.938 136.566 36.9364C135.075 36.9107 133.627 37.0349 132.221 37.3089C132.209 37.5792 132.163 38.0673 132.081 38.7734C132.016 39.3756 131.979 39.8744 131.972 40.2696C131.966 40.6579 131.822 40.9779 131.54 41.2296C131.265 41.4815 130.92 41.6039 130.503 41.5967C130.087 41.5895 129.743 41.4553 129.47 41.194C129.204 40.9328 129.075 40.6046 129.081 40.2094C129.085 39.9736 129.122 39.6552 129.191 39.2542C129.268 38.8463 129.308 38.5245 129.312 38.2887C129.319 37.9004 129.318 37.3178 129.311 36.5409C129.304 35.7571 129.303 35.171 129.31 34.7827C129.317 34.3736 129.327 33.7704 129.341 32.9731C129.362 32.1758 129.376 31.5727 129.383 31.1636C129.389 30.7753 129.53 30.4552 129.805 30.2033C130.087 29.9516 130.436 29.8293 130.852 29.8364C131.268 29.8436 131.612 29.9779 131.885 30.2392C132.158 30.5005 132.291 30.8253 132.284 31.2136C132.277 31.6573 132.274 32.2121 132.277 32.878C132.282 33.8005 132.282 34.3484 132.279 34.5218C133.747 34.2696 135.292 34.1749 136.914 34.2375L136.918 34.0087C136.924 33.6551 136.947 33.1492 136.986 32.4909C137.025 31.8327 137.047 31.3338 137.053 30.994C137.06 30.6057 137.204 30.2857 137.486 30.0339C137.767 29.7822 138.116 29.6599 138.532 29.667C138.948 29.6742 139.289 29.8084 139.555 30.0696C139.828 30.3309 139.961 30.6557 139.955 31.044C139.949 31.3907 139.926 31.8931 139.887 32.5513C139.848 33.2095 139.826 33.712 139.82 34.0587C139.807 34.7659 139.804 35.7957 139.808 37.1483C139.812 38.5008 139.809 39.5307 139.796 40.2379C139.79 40.6262 139.645 40.9462 139.364 41.198C139.089 41.4498 138.743 41.5722 138.327 41.565ZM152.991 40.6836C152.984 41.065 152.84 41.3815 152.558 41.6333C152.276 41.892 151.931 42.0178 151.522 42.0108C151.106 42.0036 150.761 41.8659 150.488 41.5976C150.216 41.3363 150.082 41.015 150.089 40.6336C150.096 40.2176 150.128 39.594 150.184 38.7627C150.24 37.9244 150.271 37.2973 150.278 36.8813C150.285 36.4999 150.275 36.0975 150.247 35.6739C148.928 37.3921 147.748 38.6513 146.707 39.4518C145.766 40.1708 145.066 40.7448 144.607 41.1738C144.149 41.596 143.66 41.8025 143.14 41.7936C142.752 41.7869 142.407 41.6838 142.105 41.4845C141.756 41.2426 141.585 40.9102 141.592 40.4873C141.623 38.6499 141.622 36.7322 141.587 34.7341C141.546 32.6597 141.526 31.6432 141.525 31.6848C141.532 31.2896 141.673 30.9661 141.947 30.7142C142.222 30.4554 142.575 30.3297 143.005 30.3371C143.781 30.3505 144.249 30.7608 144.409 31.5681C144.435 31.6795 144.454 32.3526 144.468 33.5873L144.503 37.5517C145.412 36.7628 146.382 35.7842 147.415 34.616C147.655 34.3427 148.537 33.2933 150.06 31.4677C150.562 30.8591 151.116 30.56 151.719 30.5704C152.128 30.5775 152.469 30.7151 152.742 30.9834C153.014 31.2447 153.148 31.566 153.141 31.9474C153.129 32.6684 153.124 33.7503 153.127 35.193C153.13 36.6356 153.125 37.7175 153.113 38.4386C153.108 38.6882 153.088 39.0624 153.052 39.5611C153.015 40.0598 152.995 40.434 152.991 40.6836ZM160.039 42.1679C159.443 42.1576 158.817 42.0775 158.16 41.9275L158.077 46.1706C158.07 46.5728 157.929 46.9032 157.654 47.1621C157.379 47.4209 157.034 47.5467 156.618 47.5395C156.202 47.5324 155.861 47.3947 155.595 47.1266C155.329 46.8585 155.2 46.5233 155.206 46.1212C155.212 45.7953 155.241 44.5023 155.294 42.2422C155.337 40.5645 155.36 39.1951 155.365 38.1341C155.37 36.6361 155.344 35.3456 155.286 34.2626C155.208 32.7701 155.167 32.0863 155.165 32.2111C155.175 31.6356 155.312 31.1455 155.575 30.7409C155.882 30.2815 156.288 30.0561 156.794 30.0648C157.182 30.0715 157.506 30.2089 157.765 30.4769C158.024 30.7449 158.15 31.0626 158.144 31.4301L158.131 31.5339C158.601 31.2785 159.068 31.0923 159.535 30.9755C160.009 30.8519 160.481 30.7942 160.953 30.8023C162.548 30.8298 163.701 31.5258 164.413 32.8905C164.943 33.9192 165.194 35.2448 165.166 36.8672C165.14 38.3857 164.685 39.6367 163.801 40.6202C162.853 41.6789 161.599 42.1948 160.039 42.1679ZM160.905 33.5792C160.468 33.5717 160.023 33.668 159.569 33.8683C159.114 34.0616 158.655 34.3588 158.19 34.76C158.249 36.1898 158.266 37.6223 158.241 39.0575C158.855 39.2692 159.47 39.3804 160.087 39.391C160.801 39.4033 161.353 39.1597 161.744 38.6601C162.098 38.2084 162.282 37.5943 162.295 36.8178C162.312 35.8818 162.281 35.2328 162.204 34.8708C162.018 34.0214 161.585 33.5909 160.905 33.5792ZM171.666 42.3994C170.099 42.3724 168.769 41.916 167.674 41.0302C166.505 40.0737 165.933 38.8536 165.958 37.3698C165.987 35.6919 166.561 34.1656 167.681 32.7908C168.963 31.2108 170.575 30.4375 172.517 30.4709C176.233 30.5349 178.063 32.2102 178.007 35.4967C177.978 37.1746 177.449 38.6913 176.42 40.0469C175.199 41.6488 173.615 42.4329 171.666 42.3994ZM172.47 33.2062C171.548 33.1903 170.736 33.6202 170.034 34.4959C169.332 35.3646 168.972 36.3398 168.954 37.4214C168.942 38.0732 169.193 38.6081 169.706 39.0261C170.226 39.4443 170.895 39.6604 171.713 39.6745C172.608 39.6899 173.382 39.2594 174.035 38.3828C174.667 37.5406 174.992 36.5614 175.011 35.4451C175.026 34.5784 174.856 33.9929 174.501 33.6885C174.152 33.3843 173.475 33.2235 172.47 33.2062ZM180.686 42.3883C180.312 42.3818 179.968 42.2441 179.653 41.9752C179.311 41.6919 179.143 41.3665 179.15 40.999L179.181 39.1685C179.195 38.392 179.226 37.3764 179.275 36.1219C179.345 34.4794 179.384 33.4675 179.39 33.0861C179.406 32.5662 179.458 32.1926 179.545 31.9652C179.69 31.5793 179.972 31.338 180.389 31.2411C180.988 31.0919 181.839 31.0268 182.942 31.0458C184.127 31.0662 185.204 31.3553 186.173 31.9129C187.361 32.5853 187.945 33.4866 187.926 34.6168C187.911 35.4558 187.522 36.1149 186.758 36.5941C188.013 37.4203 188.633 38.2771 188.617 39.1646C188.596 40.4265 187.543 41.3308 185.46 41.8775C184.059 42.2487 182.468 42.419 180.686 42.3883ZM183.253 33.496L182.827 33.4886C182.563 33.4841 182.341 33.4837 182.161 33.4876C182.159 33.6262 182.155 33.8585 182.149 34.1844C182.147 34.3231 182.153 34.559 182.168 34.8921C182.189 35.2809 182.199 35.5169 182.197 35.6001C182.488 35.6259 182.706 35.6401 182.852 35.6426C183.317 35.6506 183.775 35.5822 184.229 35.4374C184.836 35.2398 185.142 34.9503 185.149 34.569C185.153 34.3402 184.938 34.1076 184.505 33.8713C184.073 33.628 183.655 33.5029 183.253 33.496ZM183.923 37.4608C183.771 37.4305 183.134 37.3883 182.011 37.3343C181.993 37.5906 181.98 37.9648 181.971 38.4571L181.946 39.934C184.458 39.8663 185.718 39.5655 185.727 39.0316C185.733 38.7335 185.502 38.407 185.037 38.0522C184.626 37.733 184.255 37.5359 183.923 37.4608ZM196.854 42.3339C196.625 42.3299 196.279 42.3136 195.815 42.2848C195.351 42.256 195.004 42.2396 194.775 42.2357L194.577 42.2634C194.535 42.2697 194.487 42.2723 194.431 42.2713C193.447 42.2544 192.964 41.6704 192.984 40.5194C192.987 40.3738 193.032 39.9724 193.119 39.315C193.231 38.4777 193.293 37.6812 193.306 36.9254C193.302 37.1473 193.263 36.0092 193.188 33.5111C192.661 33.5297 192.172 33.5352 191.721 33.5274C190.875 33.5128 190.262 33.4468 189.883 33.3293C189.186 33.1092 188.843 32.6872 188.854 32.0631C188.86 31.7095 188.994 31.3997 189.255 31.1337C189.516 30.8678 189.844 30.7382 190.24 30.745C190.371 30.7472 190.607 30.7756 190.946 30.83C191.292 30.8775 191.565 30.903 191.766 30.9065C192.113 30.9125 192.546 30.9061 193.067 30.8873C193.587 30.8685 194.021 30.8621 194.368 30.8681C194.964 30.8784 195.396 30.9864 195.662 31.1921C195.964 31.4262 196.109 31.8309 196.099 32.4064C196.088 33.0443 196.109 33.8631 196.161 34.8627C196.314 34.8584 196.452 34.8573 196.577 34.8595C198.255 34.8884 199.51 35.1215 200.342 35.5589C201.524 36.1688 202.102 37.2434 202.075 38.7826C202.053 40.1 201.468 41.0609 200.32 41.6653C199.417 42.1353 198.262 42.3581 196.854 42.3339ZM196.879 37.2886C196.678 37.2852 196.445 37.2881 196.182 37.2974C196.18 37.8106 196.116 38.6661 195.992 39.8638C196.331 39.8766 196.633 39.8853 196.896 39.8898C198.442 39.9164 199.222 39.5311 199.236 38.7337C199.247 38.0958 199.005 37.679 198.509 37.4832C198.233 37.3675 197.69 37.3026 196.879 37.2886ZM211.325 42.9785C210.909 42.9713 210.564 42.8371 210.291 42.5757C210.018 42.3144 209.885 41.9896 209.892 41.6013C209.903 40.9635 209.904 40.0757 209.896 38.9381C209.002 39.3042 208.087 39.4792 207.151 39.463C205.522 39.435 204.352 38.8843 203.642 37.8109C202.96 36.7796 202.637 35.1615 202.675 32.9566C202.698 31.6323 203.216 30.9789 204.228 30.9963C204.644 31.0035 204.985 31.1377 205.251 31.3989C205.524 31.6602 205.657 31.9885 205.65 32.3837C205.649 32.453 205.637 32.5568 205.613 32.6951C205.59 32.8335 205.578 32.9373 205.577 33.0066C205.548 34.6707 205.686 35.7515 205.989 36.2492C206.225 36.6486 206.731 36.855 207.508 36.8683C207.848 36.8742 208.279 36.7672 208.803 36.5473C209.334 36.3207 209.71 36.0705 209.929 35.7969C209.94 35.6098 209.953 35.2251 209.97 34.6428C209.994 34.0814 210.007 33.7175 210.01 33.5511C210.012 33.4194 210.002 33.225 209.978 32.968C209.962 32.7111 209.955 32.5202 209.957 32.3954C209.964 32.0072 210.115 31.6942 210.41 31.4565C210.705 31.2119 211.051 31.093 211.446 31.0999C212.451 31.1172 212.942 31.8504 212.917 33.2995C212.914 33.4728 212.903 33.7015 212.884 33.9856C212.865 34.2696 212.855 34.4636 212.853 34.5676C212.84 35.3095 212.83 36.4919 212.823 38.1147C212.816 39.7306 212.806 40.9094 212.794 41.6513C212.787 42.0396 212.643 42.3596 212.361 42.6114C212.086 42.8633 211.741 42.9856 211.325 42.9785ZM219.823 43.0624C218.166 43.0339 216.817 42.6153 215.777 41.8067C214.627 40.9131 214.066 39.6723 214.093 38.0845C214.123 36.3303 214.61 34.8545 215.553 33.657C216.602 32.3296 217.997 31.6809 219.737 31.7108C220.944 31.7316 221.942 31.943 222.733 32.345C223.771 32.8761 224.281 33.6825 224.262 34.7641C224.249 35.5268 223.811 36.1955 222.948 36.7702C222.555 37.0339 221.768 37.4157 220.588 37.9155L217.056 39.4048C217.383 39.7711 217.78 40.0484 218.249 40.2368C218.717 40.4252 219.256 40.5246 219.866 40.5351C220.795 40.5512 221.586 40.374 222.237 40.0038C222.818 39.674 223.282 39.512 223.629 39.518C224.35 39.5304 224.705 39.8868 224.693 40.5871C224.679 41.3775 224.089 42.0123 222.922 42.4916C221.945 42.8909 220.911 43.0812 219.823 43.0624ZM219.694 34.2277C219.049 34.2166 218.494 34.422 218.029 34.844C217.564 35.266 217.186 35.9045 216.894 36.7595C217.683 36.4333 218.469 36.1104 219.251 35.791C220.194 35.3842 220.946 35.0053 221.507 34.6543C221.047 34.3828 220.443 34.2406 219.694 34.2277ZM235.071 43.2315C234.655 43.2243 234.311 43.09 234.038 42.8287C233.765 42.5674 233.632 42.2426 233.639 41.8543C233.649 41.2511 233.654 40.1692 233.653 38.6087C233.521 38.6064 233.407 38.6045 233.31 38.6028C231.819 38.5771 230.371 38.7013 228.965 38.9753C228.953 39.2456 228.907 39.7338 228.825 40.4398C228.759 41.042 228.723 41.5408 228.716 41.936C228.71 42.3243 228.565 42.6443 228.284 42.8961C228.009 43.1479 227.663 43.2703 227.247 43.2631C226.831 43.256 226.487 43.1217 226.214 42.8604C225.948 42.5992 225.818 42.271 225.825 41.8758C225.829 41.6401 225.866 41.3217 225.935 40.9206C226.012 40.5127 226.052 40.1909 226.056 39.9551C226.063 39.5669 226.062 38.9843 226.055 38.2073C226.048 37.4235 226.047 36.8374 226.054 36.4492C226.061 36.0401 226.071 35.4369 226.085 34.6395C226.106 33.8423 226.12 33.2391 226.127 32.83C226.133 32.4417 226.274 32.1217 226.549 31.8698C226.831 31.618 227.18 31.4957 227.596 31.5029C228.012 31.51 228.356 31.6443 228.629 31.9056C228.902 32.1669 229.035 32.4917 229.028 32.88C229.021 33.3237 229.018 33.8785 229.021 34.5444C229.025 35.4669 229.026 36.0149 229.023 36.1882C230.491 35.9361 232.036 35.8413 233.658 35.9039L233.662 35.6751C233.668 35.3215 233.69 34.8156 233.73 34.1574C233.769 33.4992 233.791 33.0002 233.797 32.6604C233.804 32.2722 233.948 31.9521 234.23 31.7004C234.511 31.4486 234.86 31.3263 235.276 31.3335C235.692 31.3406 236.033 31.4748 236.299 31.736C236.572 31.9973 236.705 32.3221 236.699 32.7104C236.693 33.0571 236.67 33.5595 236.631 34.2178C236.592 34.876 236.569 35.3784 236.563 35.7251C236.551 36.4323 236.547 37.4622 236.552 38.8147C236.556 40.1672 236.552 41.1971 236.54 41.9043C236.534 42.2926 236.389 42.6126 236.108 42.8644C235.833 43.1163 235.487 43.2386 235.071 43.2315ZM257.9 43.6143C257.484 43.6071 257.14 43.4763 256.867 43.222C256.601 42.9608 256.471 42.636 256.478 42.2477C256.487 41.7208 256.455 40.94 256.383 39.9053C256.31 38.8707 256.279 38.0933 256.288 37.5733C256.294 37.192 256.333 36.3569 256.404 35.0681C253.915 35.0044 252.612 34.9716 252.494 34.9695C252.237 34.9651 251.89 34.9869 251.452 35.0348C251.454 35.347 251.486 36.0827 251.549 37.242C251.596 38.1445 251.615 38.8765 251.605 39.4381C251.6 39.7501 251.561 40.2176 251.487 40.8405C251.414 41.4566 251.375 41.9206 251.37 42.2326C251.363 42.6209 251.219 42.9409 250.937 43.1926C250.655 43.4444 250.307 43.5667 249.891 43.5595C249.475 43.5524 249.13 43.4181 248.857 43.1568C248.591 42.8956 248.461 42.5709 248.468 42.1826C248.474 41.8706 248.513 41.4066 248.586 40.7906C248.666 40.1677 248.709 39.7003 248.714 39.3883C248.724 38.792 248.695 37.8968 248.625 36.7027C248.562 35.5087 248.536 34.6101 248.547 34.0069C248.554 33.5492 248.72 33.1706 249.045 32.8711C249.369 32.5715 249.781 32.426 250.28 32.4346C250.529 32.4389 250.904 32.4107 251.405 32.3499C251.905 32.2892 252.284 32.261 252.54 32.2655C253.137 32.2757 254.034 32.2981 255.234 32.3327C256.433 32.3672 257.331 32.3896 257.927 32.3999C258.315 32.4065 258.649 32.5475 258.929 32.8228C259.215 33.0983 259.355 33.4163 259.349 33.7768C259.342 34.1998 259.314 34.8304 259.265 35.6688C259.216 36.5071 259.187 37.1343 259.18 37.5503C259.171 38.0842 259.203 38.8754 259.275 39.9239C259.354 40.9726 259.389 41.7638 259.379 42.2977C259.373 42.686 259.228 43.006 258.947 43.2578C258.672 43.5027 258.323 43.6216 257.9 43.6143ZM271.649 43.8823C271.233 43.8752 270.888 43.7409 270.616 43.4796C270.35 43.2184 270.22 42.8937 270.227 42.5054C270.23 42.2974 270.218 42.0128 270.189 41.6517C270.155 41.2419 270.135 40.9606 270.131 40.808C270.119 40.2807 270.121 39.601 270.135 38.769C270.14 38.4639 270.174 37.3132 270.236 35.3168C269.91 35.3389 269.587 35.3472 269.268 35.3417C268.256 35.3243 267.271 35.29 266.315 35.2388L266.301 37.2673C266.265 39.3681 266.073 40.8594 265.725 41.7412C265.203 43.05 264.214 43.6918 262.758 43.6667C262.175 43.6567 261.657 43.5299 261.204 43.2863C260.599 42.9637 260.302 42.4974 260.312 41.8873C260.318 41.5475 260.441 41.2549 260.681 41.0093C260.928 40.7639 261.246 40.6445 261.634 40.6512C261.787 40.6538 261.99 40.7059 262.245 40.8074C262.5 40.9089 262.686 40.9606 262.804 40.9627C263.276 40.9708 263.527 40.0839 263.558 38.302C263.566 37.7958 263.541 37.0394 263.482 36.0327C263.43 35.0262 263.409 34.2698 263.417 33.7636C263.424 33.3546 263.579 33.0313 263.881 32.7937C264.184 32.5562 264.543 32.441 264.959 32.4482C265.139 32.4513 265.382 32.4624 265.686 32.4815C266.067 32.5158 266.31 32.5373 266.414 32.546C267.169 32.5868 268.136 32.6173 269.315 32.6376C269.571 32.642 269.953 32.6035 270.461 32.5221C270.969 32.4407 271.354 32.4023 271.618 32.4068C272.665 32.4248 273.181 32.8741 273.165 33.7547C273.156 34.3163 273.131 35.1586 273.091 36.2814C273.058 37.3975 273.036 38.2329 273.027 38.7876C273.013 39.578 273.012 40.2334 273.024 40.7538C273.028 40.9203 273.047 41.2223 273.081 41.6599C273.116 42.035 273.132 42.3335 273.128 42.5554C273.122 42.9436 272.977 43.2637 272.696 43.5154C272.414 43.7672 272.065 43.8895 271.649 43.8823ZM284.208 44.3795C283.889 44.374 283.389 44.0186 282.707 43.3133C282.064 43.6074 281.498 43.8266 281.01 43.9707C280.522 44.1219 280.108 44.1945 279.769 44.1886C278.098 44.1599 276.85 43.691 276.027 42.7821C275.21 41.8734 274.817 40.528 274.848 38.7461C274.877 37.0751 275.518 35.6574 276.773 34.4931C278.028 33.3218 279.515 32.7509 281.234 32.7805C281.893 32.7919 282.653 32.9922 283.513 33.3816C284.552 33.8503 285.066 34.3828 285.056 34.9791C285.052 35.2287 284.968 35.4457 284.806 35.6302C284.732 35.9063 284.67 36.2555 284.621 36.6777C284.579 37.0931 284.554 37.5817 284.544 38.1433C284.521 39.4676 284.598 40.4226 284.776 41.0082C284.795 41.071 284.948 41.4343 285.235 42.0981C285.495 42.699 285.625 43.0411 285.623 43.1243C285.617 43.4918 285.47 43.7944 285.181 44.0322C284.9 44.2701 284.575 44.3859 284.208 44.3795ZM281.751 37.2005C281.755 36.9786 281.773 36.7258 281.806 36.442C281.846 36.1514 281.9 35.8298 281.968 35.4772C281.831 35.4055 281.707 35.3548 281.596 35.3252C281.493 35.2887 281.403 35.2698 281.327 35.2685C280.384 35.2523 279.552 35.609 278.832 36.3387C278.112 37.0615 277.744 37.9082 277.727 38.8789C277.711 39.808 277.866 40.5112 278.19 40.9884C278.515 41.4587 279.011 41.6996 279.676 41.711C280.106 41.7184 280.513 41.6561 280.897 41.524C281.287 41.3851 281.655 41.1799 282 40.9084C281.82 39.2546 281.737 38.0186 281.751 37.2005ZM295.643 44.2748C295.227 44.2676 294.882 44.1334 294.609 43.8721C294.337 43.6108 294.203 43.286 294.21 42.8977C294.22 42.2945 294.225 41.2126 294.224 39.6521C294.093 39.6498 293.978 39.6478 293.881 39.6462C292.39 39.6205 290.942 39.7446 289.537 40.0187C289.525 40.289 289.478 40.7771 289.397 41.4831C289.331 42.0854 289.295 42.5841 289.288 42.9794C289.281 43.3676 289.137 43.6877 288.855 43.9394C288.58 44.1913 288.235 44.3137 287.819 44.3065C287.403 44.2993 287.058 44.1651 286.786 43.9038C286.52 43.6426 286.39 43.3144 286.397 42.9192C286.401 42.6834 286.438 42.365 286.507 41.9639C286.583 41.556 286.623 41.2342 286.627 40.9985C286.634 40.6102 286.634 40.0276 286.626 39.2507C286.619 38.4669 286.619 37.8808 286.625 37.4925C286.633 37.0834 286.643 36.4802 286.657 35.6828C286.677 34.8856 286.691 34.2824 286.698 33.8734C286.705 33.4851 286.846 33.165 287.12 32.9131C287.402 32.6614 287.751 32.5391 288.167 32.5462C288.583 32.5534 288.928 32.6876 289.201 32.949C289.473 33.2103 289.607 33.5351 289.6 33.9234C289.592 34.3671 289.59 34.9219 289.592 35.5878C289.597 36.5103 289.598 37.0582 289.595 37.2316C291.063 36.9794 292.607 36.8846 294.229 36.9473L294.233 36.7185C294.239 36.3648 294.262 35.8589 294.301 35.2007C294.34 34.5425 294.363 34.0435 294.368 33.7038C294.375 33.3155 294.519 32.9955 294.801 32.7437C295.083 32.492 295.432 32.3697 295.848 32.3768C296.264 32.384 296.605 32.5182 296.871 32.7794C297.144 33.0407 297.277 33.3655 297.27 33.7538C297.264 34.1005 297.242 34.6029 297.203 35.2611C297.163 35.9193 297.141 36.4218 297.135 36.7684C297.123 37.4757 297.119 38.5055 297.123 39.8581C297.128 41.2106 297.124 42.2404 297.112 42.9477C297.105 43.3359 296.961 43.656 296.679 43.9077C296.404 44.1596 296.059 44.282 295.643 44.2748ZM300.508 40.8839C300.119 40.8772 299.799 40.7503 299.547 40.5032C299.301 40.2562 299.182 39.949 299.188 39.5815C299.193 39.3111 299.189 38.9088 299.178 38.3745C299.173 37.8335 299.173 37.4277 299.178 37.1573C299.194 36.2005 299.226 34.7654 299.273 32.852C299.327 30.9387 299.362 29.5036 299.378 28.5468C299.384 28.1793 299.518 27.8764 299.779 27.6382C300.04 27.393 300.361 27.2737 300.742 27.2802C301.123 27.2868 301.44 27.4171 301.692 27.6711C301.945 27.9182 302.068 28.2255 302.061 28.593L301.871 39.6277C301.865 39.9952 301.731 40.2981 301.471 40.5363C301.217 40.7747 300.896 40.8906 300.508 40.8839ZM300.411 44.6586C299.995 44.6515 299.611 44.4229 299.258 43.973C298.939 43.5583 298.783 43.1741 298.789 42.8205C298.795 42.46 298.942 42.1608 299.231 41.923C299.519 41.6852 299.844 41.5695 300.204 41.5757C300.62 41.5828 301.001 41.8113 301.347 42.2612C301.666 42.6759 301.823 43.0566 301.817 43.4032C301.811 43.7568 301.663 44.056 301.375 44.3007C301.093 44.5455 300.772 44.6649 300.411 44.6586Z" fill="black"/>
</svg>
