<svg width="335" height="67" viewBox="0 0 335 67" fill="none" xmlns="http://www.w3.org/2000/svg">
<path d="M3.79517 21.4928C3.79517 11.7501 11.6932 3.85205 21.4359 3.85205H313.39C323.133 3.85205 331.031 11.7501 331.031 21.4928V45.3078C331.031 55.0505 323.133 62.9486 313.39 62.9486H21.4359C11.6932 62.9486 3.79517 55.0505 3.79517 45.3078V21.4928Z" fill="#EEEEEE"/>
<path d="M31.6764 2.94626L31.3269 0.323332V0.323332L31.6764 2.94626ZM40.2101 3.9467L39.4867 6.492L40.2101 3.9467ZM57.2775 4.45215L56.9445 1.82708L57.2775 4.45215ZM60.691 4.01908L60.358 1.39401L60.691 4.01908ZM77.7584 4.52793L77.5876 7.16853L77.7584 4.52793ZM81.1719 4.74874L81.0011 7.38934L81.1719 4.74874ZM84.5854 4.71466L84.3622 2.07798L84.5854 4.71466ZM87.9989 4.4257L88.2221 7.06238L87.9989 4.4257ZM91.4124 4.47538L91.1133 7.10454V7.10454L91.4124 4.47538ZM98.2393 4.77025L97.7996 2.16093L98.2393 4.77025ZM99.9461 4.48263L100.386 7.09195L99.9461 4.48263ZM101.653 4.19502L101.213 1.58569L101.653 4.19502ZM115.307 4.35968L116.136 1.84683L115.307 4.35968ZM125.547 2.9077L125.274 5.53971L125.547 2.9077ZM132.374 3.35309L132.242 0.710285L132.374 3.35309ZM135.788 3.18215L135.655 0.539351L135.788 3.18215ZM149.442 4.39888L150.161 1.8523L149.442 4.39888ZM156.269 3.73919L155.693 1.15648L156.269 3.73919ZM159.682 3.6898L159.178 6.28748L159.682 3.6898ZM163.096 4.35202L162.592 6.9497L163.096 4.35202ZM166.509 4.50177L166.229 1.87047L166.509 4.50177ZM169.923 4.13906L169.643 1.50776L169.923 4.13906ZM180.163 3.46323L179.675 6.06397L180.163 3.46323ZM181.87 3.78342L182.358 1.18268L181.87 3.78342ZM183.576 4.10361L183.089 6.70435L183.576 4.10361ZM207.471 4.10391L207.897 1.49241L207.471 4.10391ZM209.178 4.38273L208.751 6.99422L209.178 4.38273ZM210.884 4.66154L211.311 2.05005L210.884 4.66154ZM227.952 2.78372L227.78 5.42423L227.952 2.78372ZM229.659 2.89499L229.831 0.254486L229.659 2.89499ZM231.365 3.00626L231.193 5.64677L231.365 3.00626ZM234.779 3.59585L234.065 6.1438L234.779 3.59585ZM238.192 4.55249L238.906 2.00455L238.192 4.55249ZM241.606 4.88061L241.374 2.24468L241.606 4.88061ZM248.433 4.12961L248.891 6.73566L248.433 4.12961ZM251.846 3.5288L251.387 0.922743L251.846 3.5288ZM268.914 3.12717L268.21 5.67813L268.914 3.12717ZM272.327 4.06819L273.03 1.51723L272.327 4.06819ZM277.447 3.62479L278.132 6.18087L277.447 3.62479ZM279.154 3.16783L278.47 0.611748V0.611748L279.154 3.16783ZM304.755 4.20612L304.727 6.85208L304.755 4.20612ZM313.358 3.22871L313.865 5.82574L313.358 3.22871ZM316.602 3.79927L315.24 6.06829L316.602 3.79927ZM319.63 5.61616L320.991 3.34714L319.63 5.61616ZM322.341 7.5944L324.104 5.62129L322.341 7.5944ZM323.538 8.6642L321.775 10.6373L323.538 8.6642ZM324.735 9.734L322.972 11.7071L324.735 9.734ZM327.127 12.0466L329.035 10.2129L327.127 12.0466ZM328.322 13.2893L326.414 15.1229L328.322 13.2893ZM329.516 14.532L327.608 16.3657L329.516 14.532ZM330.976 17.5048L333.591 17.104L330.976 17.5048ZM331.506 20.9648L328.89 21.3657L331.506 20.9648ZM331.758 24.4016L334.404 24.4213L331.758 24.4016ZM331.733 27.8151L329.087 27.7953L331.733 27.8151ZM331.572 31.2286L334.208 31.4577L331.572 31.2286ZM331.423 32.9353L328.787 32.7061L331.423 32.9353ZM331.275 34.642L328.639 34.4129L331.275 34.642ZM331.075 38.0555L328.43 37.9759L331.075 38.0555ZM330.972 41.469L333.617 41.5486L330.972 41.469ZM330.574 44.8092L333.162 45.359L330.574 44.8092ZM329.88 48.076L327.292 47.5262L329.88 48.076ZM329.185 51.4306L331.779 51.9552L329.185 51.4306ZM328.837 53.1518L331.43 53.6764L328.837 53.1518ZM328.489 54.873L325.895 54.3485L328.489 54.873ZM326.713 57.6241L325.165 55.4784L326.713 57.6241ZM325.286 58.6541L326.834 60.7998L325.286 58.6541ZM323.859 59.684L325.407 61.8298L323.859 59.684ZM320.753 60.8755L321.006 63.5094L320.753 60.8755ZM317.395 61.1986L317.141 58.5647L317.395 61.1986ZM314.062 61.5153L313.815 58.8807L314.062 61.5153ZM312.407 61.6704L312.654 64.3049L312.407 61.6704ZM307.392 61.8866L307.246 64.5288L307.392 61.8866ZM303.978 61.6987L304.124 59.0566L303.978 61.6987ZM300.565 61.8299L300.911 64.4533V64.4533L300.565 61.8299ZM297.151 62.2803L296.805 59.6569L297.151 62.2803ZM292.031 62.3635L292.141 59.7197L292.031 62.3635ZM290.325 62.2926L290.215 64.9364L290.325 62.2926ZM286.911 62.3202L286.759 59.6784L286.911 62.3202ZM283.498 62.5171L283.65 65.1588L283.498 62.5171ZM280.084 62.995L279.51 60.412L280.084 62.995ZM278.377 63.3745L278.952 65.9575L278.377 63.3745ZM276.671 63.7539L277.245 66.3369L276.671 63.7539ZM273.257 64.0889L273.326 61.4437L273.257 64.0889ZM269.844 64L269.775 66.6452L269.844 64ZM266.43 63.9792L266.393 61.3333L266.43 63.9792ZM263.017 64.0265L263.053 66.6723L263.017 64.0265ZM256.19 62.346L255.354 64.8567L256.19 62.346ZM252.776 62.1145L252.264 59.5184L252.776 62.1145ZM251.069 62.451L251.581 65.0471L251.069 62.451ZM242.536 62.1369L242.035 64.7352L242.536 62.1369ZM239.122 61.9489L239.34 64.586V64.586L239.122 61.9489ZM235.709 62.2309L235.491 59.5938V59.5938L235.709 62.2309ZM232.295 62.4777L232.132 59.8366L232.295 62.4777ZM228.882 62.6892L228.718 60.0481L228.882 62.6892ZM225.468 63.1084L224.99 60.5058L225.468 63.1084ZM222.055 63.7354L221.577 61.1328L222.055 63.7354ZM218.641 64.0469L218.638 66.693V66.693L218.641 64.0469ZM215.228 64.0429L215.231 61.3968V61.3968L215.228 64.0429ZM211.814 64.0789L211.873 66.7244L211.814 64.0789ZM208.401 64.1549L208.342 61.5095L208.401 64.1549ZM204.987 64.0311L205.237 61.3968V61.3968L204.987 64.0311ZM203.281 63.8694L203.53 61.2351V61.2351L203.281 63.8694ZM201.574 63.7076L201.324 66.3419V66.3419L201.574 63.7076ZM198.16 63.4639L198.034 66.107L198.16 63.4639ZM194.747 63.3002L194.874 60.6571L194.747 63.3002ZM191.333 63.2603L191.268 60.615V60.615L191.333 63.2603ZM187.92 63.3444L187.985 65.9897V65.9897L187.92 63.3444ZM184.506 63.458L184.396 60.8143L184.506 63.458ZM181.093 63.6012L180.982 60.9574L181.093 63.6012ZM177.68 63.8099L177.892 66.4475L177.68 63.8099ZM175.973 63.9471L176.185 66.5847L175.973 63.9471ZM174.266 64.0843L174.054 61.4467L174.266 64.0843ZM170.853 63.7497L171.558 61.1992L170.853 63.7497ZM167.439 62.8059L168.144 60.2555L167.439 62.8059ZM164.026 62.4839L164.257 65.1199L164.026 62.4839ZM162.319 62.6338L162.087 59.9978L162.319 62.6338ZM160.612 62.7837L160.844 65.4196L160.612 62.7837ZM157.199 62.5885L157.723 59.9949L157.199 62.5885ZM153.785 61.8984L153.261 64.492L153.785 61.8984ZM150.372 61.6445L150.231 59.0021L150.372 61.6445ZM148.665 61.7356L148.524 59.0933L148.665 61.7356ZM146.958 61.8267L147.099 64.4691L146.958 61.8267ZM143.545 61.8228L143.397 64.4648L143.545 61.8228ZM140.131 61.6326L139.984 64.2746L140.131 61.6326ZM136.718 61.8098L136.301 59.1967L136.718 61.8098ZM133.304 62.3544L133.721 64.9675L133.304 62.3544ZM129.891 62.5259L129.735 65.1675L129.891 62.5259ZM126.477 62.3244L126.633 59.6829L126.477 62.3244ZM121.357 62.1367L121.29 64.782L121.357 62.1367ZM119.65 62.0933L119.718 59.448L119.65 62.0933ZM116.237 62.2029L116 59.5673L116.237 62.2029ZM112.823 62.509L113.06 65.1446L112.823 62.509ZM109.41 63.0434L108.833 60.4609L109.41 63.0434ZM105.996 63.8059L106.573 66.3883L105.996 63.8059ZM102.583 63.9612L102.236 66.5845L102.583 63.9612ZM100.876 63.7353L101.223 61.1121L100.876 63.7353ZM99.1693 63.5094L99.5166 60.8862L99.1693 63.5094ZM92.3424 63.3521L92.3778 65.998L92.3424 63.3521ZM88.9289 63.3844L88.9142 60.7384L88.9289 63.3844ZM87.2222 63.3939L87.2369 66.04L87.2222 63.3939ZM85.5154 63.4034L85.5301 66.0495L85.5154 63.4034ZM82.1019 62.9738L82.7612 60.4112L82.1019 62.9738ZM80.3952 62.5348L81.0544 59.9721L80.3952 62.5348ZM78.6884 62.0957L78.0292 64.6584L78.6884 62.0957ZM75.2749 62.1544L74.5341 59.6142L75.2749 62.1544ZM71.8615 63.1499L72.6023 65.6902L71.8615 63.1499ZM68.448 63.6983L68.3695 61.0534L68.448 63.6983ZM65.0345 63.7996L65.1129 66.4445L65.0345 63.7996ZM61.621 63.5009L61.0904 66.0932L61.621 63.5009ZM59.9143 63.1515L60.4448 60.5592L59.9143 63.1515ZM58.2075 62.8022L58.7381 60.2098L58.2075 62.8022ZM53.0873 63.0764L53.5628 65.6795L53.0873 63.0764ZM51.3806 63.3882L50.9051 60.7852L51.3806 63.3882ZM47.9671 63.5169L48.2493 60.8859L47.9671 63.5169ZM44.5536 63.1507L44.8358 60.5197L44.5536 63.1507ZM41.1401 62.618L40.6091 65.2103L41.1401 62.618ZM37.7266 61.9188L38.2576 59.3265L37.7266 61.9188ZM34.3131 62.0107L34.9759 64.5725L34.3131 62.0107ZM30.8997 62.8938L30.2369 60.3321L30.8997 62.8938ZM24.0727 62.9894L23.8943 65.6294L24.0727 62.9894ZM20.6212 62.8362L20.5639 65.4817L20.6212 62.8362ZM17.1319 62.7607L17.1892 60.1152L17.1319 62.7607ZM14.1953 61.4446L12.26 63.2491L14.1953 61.4446ZM11.8116 58.888L13.747 57.0835L11.8116 58.888ZM9.14094 56.6203L10.6125 54.421L9.14094 56.6203ZM6.18328 54.6412L4.71176 56.8405L6.18328 54.6412ZM4.32017 38.1074L1.82768 38.9959L4.32017 38.1074ZM2.69633 31.2804L0.068445 30.9703L2.69633 31.2804ZM3.0991 27.8669L0.471217 27.5568L3.0991 27.8669ZM4.44269 21.125L1.86214 20.5397L4.44269 21.125ZM5.20515 14.2345L2.56611 14.0412L5.20515 14.2345ZM20.1178 4.46955L19.5855 7.06158L20.1178 4.46955ZM23.1427 3.73931L22.9683 1.09896L23.1427 3.73931ZM24.8494 3.62658L25.0238 6.26694L26.7306 6.1542L26.5561 3.51384L26.3817 0.873482L24.675 0.986219L24.8494 3.62658ZM26.5561 3.51384L26.7306 6.1542C27.9273 6.07515 29.1235 5.95592 30.3191 5.79661L29.9696 3.17368L29.6201 0.550753C28.5401 0.694669 27.4606 0.802217 26.3817 0.873482L26.5561 3.51384ZM29.9696 3.17368L30.3191 5.79661L32.0259 5.56919L31.6764 2.94626L31.3269 0.323332L29.6201 0.550753L29.9696 3.17368ZM31.6764 2.94626L32.0259 5.56919L33.7326 5.34177L33.3831 2.71884L33.0336 0.0959103L31.3269 0.323332L31.6764 2.94626ZM33.3831 2.71884L33.7326 5.34177C34.5002 5.23949 35.273 5.29439 36.0732 5.52181L36.7966 2.97651L37.52 0.431212C36.0445 0.011843 34.5417 -0.105038 33.0336 0.0959103L33.3831 2.71884ZM36.7966 2.97651L36.0732 5.52181L37.7799 6.00691L38.5033 3.46161L39.2268 0.916307L37.52 0.431212L36.7966 2.97651ZM38.5033 3.46161L37.7799 6.00691L39.4867 6.492L40.2101 3.9467L40.9335 1.4014L39.2268 0.916307L38.5033 3.46161ZM40.2101 3.9467L39.4867 6.492C40.8587 6.88198 42.249 7.07468 43.6504 7.06049L43.6236 4.41451L43.5968 1.76853C42.7224 1.77739 41.8371 1.65822 40.9335 1.4014L40.2101 3.9467ZM43.6236 4.41451L43.6504 7.06049L45.3571 7.0432L45.3303 4.39722L45.3035 1.75124L43.5968 1.76853L43.6236 4.41451ZM45.3303 4.39722L45.3571 7.0432L47.0639 7.02591L47.0371 4.37993L47.0103 1.73396L45.3035 1.75124L45.3303 4.39722ZM47.0371 4.37993L47.0639 7.02591C48.1532 7.01487 49.2426 7.03377 50.332 7.08261L50.4505 4.43915L50.569 1.7957C49.3829 1.74252 48.1966 1.72194 47.0103 1.73396L47.0371 4.37993ZM50.4505 4.43915L50.332 7.08261L52.0388 7.15912L52.1573 4.51566L52.2758 1.87221L50.569 1.7957L50.4505 4.43915ZM52.1573 4.51566L52.0388 7.15912L53.7455 7.23563L53.864 4.59217L53.9825 1.94872L52.2758 1.87221L52.1573 4.51566ZM53.864 4.59217L53.7455 7.23563C55.0352 7.29345 56.3241 7.24044 57.6106 7.07722L57.2775 4.45215L56.9445 1.82708C55.9553 1.95258 54.9685 1.99292 53.9825 1.94872L53.864 4.59217ZM57.2775 4.45215L57.6106 7.07722L59.3173 6.86069L58.9843 4.23562L58.6512 1.61054L56.9445 1.82708L57.2775 4.45215ZM58.9843 4.23562L59.3173 6.86069L61.024 6.64415L60.691 4.01908L60.358 1.39401L58.6512 1.61054L58.9843 4.23562ZM60.691 4.01908L61.024 6.64415C62.0171 6.51816 63.0078 6.47545 63.9977 6.51541L64.1045 3.87145L64.2112 1.2275C62.9255 1.17558 61.6405 1.23129 60.358 1.39401L60.691 4.01908ZM64.1045 3.87145L63.9977 6.51541L65.7045 6.58432L65.8112 3.94036L65.918 1.2964L64.2112 1.2275L64.1045 3.87145ZM65.8112 3.94036L65.7045 6.58432L67.4112 6.65323L67.518 4.00927L67.6247 1.36531L65.918 1.2964L65.8112 3.94036ZM67.518 4.00927L67.4112 6.65323C68.5408 6.69884 69.6705 6.74972 70.8001 6.80587L70.9314 4.16302L71.0628 1.52017C69.9168 1.4632 68.7708 1.41158 67.6247 1.36531L67.518 4.00927ZM70.9314 4.16302L70.8001 6.80587L72.5068 6.8907L72.6382 4.24785L72.7696 1.605L71.0628 1.52017L70.9314 4.16302ZM72.6382 4.24785L72.5068 6.8907L74.2136 6.97554L74.3449 4.33269L74.4763 1.68984L72.7696 1.605L72.6382 4.24785ZM74.3449 4.33269L74.2136 6.97554C75.3382 7.03144 76.4629 7.09577 77.5876 7.16853L77.7584 4.52793L77.9292 1.88734C76.7783 1.81289 75.6273 1.74705 74.4763 1.68984L74.3449 4.33269ZM77.7584 4.52793L77.5876 7.16853L79.2943 7.27893L79.4652 4.63834L79.636 1.99774L77.9292 1.88734L77.7584 4.52793ZM79.4652 4.63834L79.2943 7.27893L81.0011 7.38934L81.1719 4.74874L81.3427 2.10815L79.636 1.99774L79.4652 4.63834ZM81.1719 4.74874L81.0011 7.38934C82.2704 7.47144 83.5399 7.45875 84.8086 7.35135L84.5854 4.71466L84.3622 2.07798C83.3552 2.16323 82.3491 2.17325 81.3427 2.10815L81.1719 4.74874ZM84.5854 4.71466L84.8086 7.35135L86.5153 7.20687L86.2921 4.57018L86.0689 1.9335L84.3622 2.07798L84.5854 4.71466ZM86.2921 4.57018L86.5153 7.20687L88.2221 7.06238L87.9989 4.4257L87.7757 1.78902L86.0689 1.9335L86.2921 4.57018ZM87.9989 4.4257L88.2221 7.06238C89.1855 6.98083 90.1484 6.99477 91.1133 7.10454L91.4124 4.47538L91.7115 1.84623C90.4007 1.69712 89.0879 1.67793 87.7757 1.78902L87.9989 4.4257ZM91.4124 4.47538L91.1133 7.10454L92.82 7.2987L93.1191 4.66954L93.4182 2.04039L91.7115 1.84623L91.4124 4.47538ZM93.1191 4.66954L92.82 7.2987L94.5267 7.49286L94.8258 4.86371L95.1249 2.23455L93.4182 2.04039L93.1191 4.66954ZM94.8258 4.86371L94.5267 7.49286C95.9125 7.6505 97.299 7.61214 98.6791 7.37957L98.2393 4.77025L97.7996 2.16093C96.904 2.31185 96.0149 2.33579 95.1249 2.23455L94.8258 4.86371ZM98.2393 4.77025L98.6791 7.37957L100.386 7.09195L99.9461 4.48263L99.5064 1.87331L97.7996 2.16093L98.2393 4.77025ZM99.9461 4.48263L100.386 7.09195L102.093 6.80434L101.653 4.19502L101.213 1.58569L99.5064 1.87331L99.9461 4.48263ZM101.653 4.19502L102.093 6.80434C103.241 6.61078 104.39 6.40994 105.538 6.2018L105.066 3.5981L104.594 0.994396C103.467 1.19866 102.34 1.39576 101.213 1.58569L101.653 4.19502ZM105.066 3.5981L105.538 6.2018L107.245 5.8925L106.773 3.2888L106.301 0.685097L104.594 0.994396L105.066 3.5981ZM106.773 3.2888L107.245 5.8925L108.952 5.5832L108.48 2.9795L108.008 0.375798L106.301 0.685097L106.773 3.2888ZM108.48 2.9795L108.952 5.5832C109.639 5.45864 110.33 5.50393 111.064 5.74621L111.893 3.23336L112.722 0.720509C111.181 0.211914 109.596 0.087961 108.008 0.375798L108.48 2.9795ZM111.893 3.23336L111.064 5.74621L112.771 6.30937L113.6 3.79652L114.429 1.28367L112.722 0.720509L111.893 3.23336ZM113.6 3.79652L112.771 6.30937L114.478 6.87253L115.307 4.35968L116.136 1.84683L114.429 1.28367L113.6 3.79652ZM115.307 4.35968L114.478 6.87253C116.146 7.42289 117.857 7.43121 119.529 6.89424L118.72 4.37482L117.911 1.8554C117.308 2.04913 116.744 2.04736 116.136 1.84683L115.307 4.35968ZM118.72 4.37482L119.529 6.89424L121.236 6.34622L120.427 3.8268L119.618 1.30738L117.911 1.8554L118.72 4.37482ZM120.427 3.8268L121.236 6.34622L122.943 5.7982L122.134 3.27878L121.325 0.759355L119.618 1.30738L120.427 3.8268ZM122.134 3.27878L122.943 5.7982C123.748 5.53977 124.517 5.46122 125.274 5.53971L125.547 2.9077L125.82 0.2757C124.301 0.118253 122.796 0.287083 121.325 0.759355L122.134 3.27878ZM125.547 2.9077L125.274 5.53971L126.981 5.71666L127.254 3.08465L127.527 0.452649L125.82 0.2757L125.547 2.9077ZM127.254 3.08465L126.981 5.71666L128.688 5.89361L128.961 3.2616L129.234 0.629599L127.527 0.452649L127.254 3.08465ZM128.961 3.2616L128.688 5.89361C129.96 6.02547 131.233 6.05966 132.507 5.99589L132.374 3.35309L132.242 0.710285C131.24 0.760468 130.237 0.733668 129.234 0.629599L128.961 3.2616ZM132.374 3.35309L132.507 5.99589L134.213 5.91042L134.081 3.26762L133.949 0.624818L132.242 0.710285L132.374 3.35309ZM134.081 3.26762L134.213 5.91042L135.92 5.82495L135.788 3.18215L135.655 0.539351L133.949 0.624818L134.081 3.26762ZM135.788 3.18215L135.92 5.82495C137.032 5.76926 138.145 5.72974 139.257 5.7064L139.201 3.06087L139.146 0.415341C137.982 0.439755 136.819 0.481093 135.655 0.539351L135.788 3.18215ZM139.201 3.06087L139.257 5.7064L140.963 5.67059L140.908 3.02506L140.852 0.379526L139.146 0.415341L139.201 3.06087ZM140.908 3.02506L140.963 5.67059L142.67 5.63477L142.615 2.98924L142.559 0.343711L140.852 0.379526L140.908 3.02506ZM142.615 2.98924L142.67 5.63477C143.536 5.6166 144.413 5.72893 145.309 5.98183L146.028 3.43524L146.747 0.888662C145.367 0.499139 143.969 0.314134 142.559 0.343711L142.615 2.98924ZM146.028 3.43524L145.309 5.98183L147.016 6.46364L147.735 3.91706L148.454 1.37048L146.747 0.888662L146.028 3.43524ZM147.735 3.91706L147.016 6.46364L148.723 6.94546L149.442 4.39888L150.161 1.8523L148.454 1.37048L147.735 3.91706ZM149.442 4.39888L148.723 6.94546C150.276 7.38402 151.859 7.43337 153.431 7.0829L152.855 4.5002L152.279 1.91749C151.576 2.07436 150.883 2.05617 150.161 1.8523L149.442 4.39888ZM152.855 4.5002L153.431 7.0829L155.138 6.7024L154.562 4.11969L153.986 1.53699L152.279 1.91749L152.855 4.5002ZM154.562 4.11969L155.138 6.7024L156.844 6.3219L156.269 3.73919L155.693 1.15648L153.986 1.53699L154.562 4.11969ZM156.269 3.73919L156.844 6.3219C157.629 6.14691 158.4 6.13643 159.178 6.28748L159.682 3.6898L160.186 1.09212C158.689 0.801685 157.184 0.824132 155.693 1.15648L156.269 3.73919ZM159.682 3.6898L159.178 6.28748L160.885 6.61859L161.389 4.02091L161.893 1.42323L160.186 1.09212L159.682 3.6898ZM161.389 4.02091L160.885 6.61859L162.592 6.9497L163.096 4.35202L163.6 1.75434L161.893 1.42323L161.389 4.02091ZM163.096 4.35202L162.592 6.9497C163.984 7.21985 165.386 7.28212 166.789 7.13307L166.509 4.50177L166.229 1.87047C165.356 1.96324 164.483 1.92567 163.6 1.75434L163.096 4.35202ZM166.509 4.50177L166.789 7.13307L168.495 6.95171L168.216 4.32041L167.936 1.68912L166.229 1.87047L166.509 4.50177ZM168.216 4.32041L168.495 6.95171L170.202 6.77035L169.923 4.13906L169.643 1.50776L167.936 1.68912L168.216 4.32041ZM169.923 4.13906L170.202 6.77035C171.351 6.64824 172.5 6.51863 173.65 6.3815L173.336 3.75403L173.022 1.12656C171.896 1.26099 170.769 1.38805 169.643 1.50776L169.923 4.13906ZM173.336 3.75403L173.65 6.3815L175.356 6.17784L175.043 3.55037L174.729 0.922895L173.022 1.12656L173.336 3.75403ZM175.043 3.55037L175.356 6.17784L177.063 5.97417L176.749 3.3467L176.436 0.719231L174.729 0.922895L175.043 3.55037ZM176.749 3.3467L177.063 5.97417C177.931 5.87058 178.799 5.89956 179.675 6.06397L180.163 3.46323L180.651 0.862487C179.252 0.599972 177.844 0.551268 176.436 0.719231L176.749 3.3467ZM180.163 3.46323L179.675 6.06397L181.382 6.38416L181.87 3.78342L182.358 1.18268L180.651 0.862487L180.163 3.46323ZM181.87 3.78342L181.382 6.38416L183.089 6.70435L183.576 4.10361L184.064 1.50287L182.358 1.18268L181.87 3.78342ZM183.576 4.10361L183.089 6.70435C184.392 6.94892 185.701 7.06624 187.014 7.05435L186.99 4.40835L186.966 1.76234C186.003 1.77106 185.036 1.68522 184.064 1.50287L183.576 4.10361ZM186.99 4.40835L187.014 7.05435L188.721 7.0389L188.697 4.39289L188.673 1.74689L186.966 1.76234L186.99 4.40835ZM188.697 4.39289L188.721 7.0389L190.427 7.02344L190.403 4.37744L190.379 1.73144L188.673 1.74689L188.697 4.39289ZM190.403 4.37744L190.427 7.02344C191.64 7.01247 192.852 6.95039 194.063 6.8373L193.817 4.20264L193.571 1.56799C192.507 1.66735 191.443 1.72181 190.379 1.73144L190.403 4.37744ZM193.817 4.20264L194.063 6.8373L195.77 6.67795L195.524 4.0433L195.278 1.40864L193.571 1.56799L193.817 4.20264ZM195.524 4.0433L195.77 6.67795L197.476 6.51861L197.23 3.88395L196.984 1.2493L195.278 1.40864L195.524 4.0433ZM197.23 3.88395L197.476 6.51861C198.52 6.42118 199.563 6.38022 200.605 6.39556L200.644 3.74973L200.683 1.1039C199.449 1.08575 198.217 1.13427 196.984 1.2493L197.23 3.88395ZM200.644 3.74973L200.605 6.39556L202.312 6.42068L202.351 3.77485L202.39 1.12903L200.683 1.1039L200.644 3.74973ZM202.351 3.77485L202.312 6.42068L204.018 6.4458L204.057 3.79997L204.096 1.15415L202.39 1.12903L202.351 3.77485ZM204.057 3.79997L204.018 6.4458C205.025 6.46061 206.033 6.5502 207.044 6.71541L207.471 4.10391L207.897 1.49241C206.633 1.28587 205.366 1.17283 204.096 1.15415L204.057 3.79997ZM207.471 4.10391L207.044 6.71541L208.751 6.99422L209.178 4.38273L209.604 1.77123L207.897 1.49241L207.471 4.10391ZM209.178 4.38273L208.751 6.99422L210.458 7.27304L210.884 4.66154L211.311 2.05005L209.604 1.77123L209.178 4.38273ZM210.884 4.66154L210.458 7.27304C211.942 7.51555 213.43 7.46182 214.9 7.11811L214.298 4.54144L213.696 1.96478C212.89 2.15296 212.102 2.1793 211.311 2.05005L210.884 4.66154ZM214.298 4.54144L214.9 7.11811L216.607 6.71919L216.005 4.14253L215.402 1.56586L213.696 1.96478L214.298 4.54144ZM216.005 4.14253L216.607 6.71919L218.314 6.32028L217.711 3.74361L217.109 1.16694L215.402 1.56586L216.005 4.14253ZM217.711 3.74361L218.314 6.32028C219.341 6.08015 220.364 5.91043 221.384 5.81001L221.125 3.17663L220.865 0.543254C219.61 0.666908 218.357 0.875178 217.109 1.16694L217.711 3.74361ZM221.125 3.17663L221.384 5.81001L223.091 5.64195L222.832 3.00857L222.572 0.375194L220.865 0.543254L221.125 3.17663ZM222.832 3.00857L223.091 5.64195L224.798 5.47389L224.538 2.84051L224.279 0.207133L222.572 0.375194L222.832 3.00857ZM224.538 2.84051L224.798 5.47389C225.792 5.37593 226.786 5.35945 227.78 5.42423L227.952 2.78372L228.124 0.143214C226.842 0.0596344 225.56 0.0810125 224.279 0.207133L224.538 2.84051ZM227.952 2.78372L227.78 5.42423L229.486 5.5355L229.659 2.89499L229.831 0.254486L228.124 0.143214L227.952 2.78372ZM229.659 2.89499L229.486 5.5355L231.193 5.64677L231.365 3.00626L231.537 0.365758L229.831 0.254486L229.659 2.89499ZM231.365 3.00626L231.193 5.64677C232.141 5.70857 233.097 5.87271 234.065 6.1438L234.779 3.59585L235.493 1.04791C234.184 0.681245 232.865 0.45232 231.537 0.365758L231.365 3.00626ZM234.779 3.59585L234.065 6.1438L235.771 6.62212L236.485 4.07417L237.2 1.52623L235.493 1.04791L234.779 3.59585ZM236.485 4.07417L235.771 6.62212L237.478 7.10043L238.192 4.55249L238.906 2.00455L237.2 1.52623L236.485 4.07417ZM238.192 4.55249L237.478 7.10043C238.913 7.50246 240.371 7.64562 241.838 7.51653L241.606 4.88061L241.374 2.24468C240.565 2.31586 239.747 2.24028 238.906 2.00455L238.192 4.55249ZM241.606 4.88061L241.838 7.51653L243.544 7.36634L243.312 4.73041L243.08 2.09449L241.374 2.24468L241.606 4.88061ZM243.312 4.73041L243.544 7.36634L245.251 7.21614L245.019 4.58021L244.787 1.94429L243.08 2.09449L243.312 4.73041ZM245.019 4.58021L245.251 7.21614C246.466 7.10924 247.679 6.949 248.891 6.73566L248.433 4.12961L247.974 1.52355C246.91 1.71076 245.848 1.85091 244.787 1.94429L245.019 4.58021ZM248.433 4.12961L248.891 6.73566L250.598 6.43525L250.139 3.8292L249.681 1.22315L247.974 1.52355L248.433 4.12961ZM250.139 3.8292L250.598 6.43525L252.305 6.13485L251.846 3.5288L251.387 0.922743L249.681 1.22315L250.139 3.8292ZM251.846 3.5288L252.305 6.13485C253.208 5.97584 254.105 5.94159 255 6.02977L255.26 3.39638L255.519 0.762995C254.139 0.627186 252.76 0.681211 251.387 0.922743L251.846 3.5288ZM255.26 3.39638L255 6.02977L256.707 6.19776L256.966 3.56437L257.226 0.930986L255.519 0.762995L255.26 3.39638ZM256.966 3.56437L256.707 6.19776L258.414 6.36575L258.673 3.73236L258.932 1.09898L257.226 0.930986L256.966 3.56437ZM258.673 3.73236L258.414 6.36575C259.799 6.50211 261.184 6.44353 262.561 6.1927L262.087 3.58943L261.612 0.986166C260.714 1.1499 259.823 1.18661 258.932 1.09898L258.673 3.73236ZM262.087 3.58943L262.561 6.1927L264.268 5.88178L263.793 3.27851L263.319 0.675243L261.612 0.986166L262.087 3.58943ZM263.793 3.27851L264.268 5.88178L265.974 5.57086L265.5 2.96759L265.026 0.364321L263.319 0.675243L263.793 3.27851ZM265.5 2.96759L265.974 5.57086C266.713 5.43638 267.448 5.46796 268.21 5.67813L268.914 3.12717L269.617 0.576219C268.104 0.159048 266.563 0.0842338 265.026 0.364321L265.5 2.96759ZM268.914 3.12717L268.21 5.67813L269.917 6.14864L270.62 3.59768L271.324 1.04673L269.617 0.576219L268.914 3.12717ZM270.62 3.59768L269.917 6.14864L271.624 6.61914L272.327 4.06819L273.03 1.51723L271.324 1.04673L270.62 3.59768ZM272.327 4.06819L271.624 6.61914C273.215 7.05766 274.831 7.06447 276.425 6.63783L275.741 4.08174L275.056 1.52566C274.374 1.70828 273.715 1.70606 273.03 1.51723L272.327 4.06819ZM275.741 4.08174L276.425 6.63783L278.132 6.18087L277.447 3.62479L276.763 1.0687L275.056 1.52566L275.741 4.08174ZM277.447 3.62479L278.132 6.18087L279.838 5.72392L279.154 3.16783L278.47 0.611748L276.763 1.0687L277.447 3.62479ZM279.154 3.16783L279.838 5.72392C280.588 5.52315 281.313 5.50128 282.045 5.64874L282.568 3.05475L283.09 0.460767C281.546 0.14972 279.995 0.203237 278.47 0.611748L279.154 3.16783ZM282.568 3.05475L282.045 5.64874L283.752 5.99261L284.274 3.39863L284.797 0.804642L283.09 0.460767L282.568 3.05475ZM284.274 3.39863L283.752 5.99261L285.458 6.33649L285.981 3.7425L286.504 1.14852L284.797 0.804642L284.274 3.39863ZM285.981 3.7425L285.458 6.33649C286.689 6.58441 287.922 6.76432 289.157 6.87566L289.395 4.24023L289.632 1.60481C288.591 1.511 287.549 1.35909 286.504 1.14852L285.981 3.7425ZM289.395 4.24023L289.157 6.87566L290.864 7.02952L291.101 4.39409L291.339 1.75866L289.632 1.60481L289.395 4.24023ZM291.101 4.39409L290.864 7.02952L292.57 7.18337L292.808 4.54795L293.046 1.91252L291.339 1.75866L291.101 4.39409ZM292.808 4.54795L292.57 7.18337C293.855 7.29921 295.142 7.3071 296.427 7.20694L296.221 4.56882L296.016 1.9307C295.026 2.00785 294.036 2.00182 293.046 1.91252L292.808 4.54795ZM296.221 4.56882L296.427 7.20694L298.134 7.07395L297.928 4.43584L297.723 1.79772L296.016 1.9307L296.221 4.56882ZM297.928 4.43584L298.134 7.07395L299.841 6.94097L299.635 4.30285L299.429 1.66474L297.723 1.79772L297.928 4.43584ZM299.635 4.30285L299.841 6.94097C300.901 6.85835 301.961 6.82271 303.02 6.83396L303.048 4.188L303.077 1.54203C301.861 1.52912 300.645 1.57004 299.429 1.66474L299.635 4.30285ZM303.048 4.188L303.02 6.83396L304.727 6.85208L304.755 4.20612L304.783 1.56016L303.077 1.54203L303.048 4.188ZM304.755 4.20612L304.727 6.85208L306.434 6.8702L306.462 4.22424L306.49 1.57828L304.783 1.56016L304.755 4.20612ZM306.462 4.22424L306.434 6.8702C307.757 6.88426 309.082 6.76009 310.406 6.50151L309.898 3.90448L309.391 1.30745C308.409 1.49938 307.442 1.58839 306.49 1.57828L306.462 4.22424ZM309.898 3.90448L310.406 6.50151L312.135 6.16362L311.628 3.5666L311.121 0.969568L309.391 1.30745L309.898 3.90448ZM311.628 3.5666L312.135 6.16362L313.865 5.82574L313.358 3.22871L312.851 0.631683L311.121 0.969568L311.628 3.5666ZM313.358 3.22871L313.865 5.82574C314.375 5.72616 314.791 5.79854 315.24 6.06829L316.602 3.79927L317.963 1.53025C316.394 0.588745 314.647 0.280752 312.851 0.631683L313.358 3.22871ZM316.602 3.79927L315.24 6.06829L316.754 6.97674L318.116 4.70771L319.477 2.43869L317.963 1.53025L316.602 3.79927ZM318.116 4.70771L316.754 6.97674L318.268 7.88518L319.63 5.61616L320.991 3.34714L319.477 2.43869L318.116 4.70771ZM319.63 5.61616L318.268 7.88518C319.149 8.41345 319.916 8.97576 320.578 9.56752L322.341 7.5944L324.104 5.62129C323.17 4.78665 322.13 4.03013 320.991 3.34714L319.63 5.61616ZM322.341 7.5944L320.578 9.56752L321.775 10.6373L323.538 8.6642L325.301 6.69109L324.104 5.62129L322.341 7.5944ZM323.538 8.6642L321.775 10.6373L322.972 11.7071L324.735 9.734L326.499 7.76089L325.301 6.69109L323.538 8.6642ZM324.735 9.734L322.972 11.7071C323.717 12.3726 324.466 13.0965 325.219 13.8802L327.127 12.0466L329.035 10.2129C328.195 9.3396 327.35 8.52185 326.499 7.76089L324.735 9.734ZM327.127 12.0466L325.219 13.8802L326.414 15.1229L328.322 13.2893L330.229 11.4557L329.035 10.2129L327.127 12.0466ZM328.322 13.2893L326.414 15.1229L327.608 16.3657L329.516 14.532L331.424 12.6984L330.229 11.4557L328.322 13.2893ZM329.516 14.532L327.608 16.3657C328.02 16.7945 328.264 17.2826 328.36 17.9056L330.976 17.5048L333.591 17.104C333.333 15.4204 332.604 13.9266 331.424 12.6984L329.516 14.532ZM330.976 17.5048L328.36 17.9056L328.625 19.6357L331.241 19.2348L333.856 18.834L333.591 17.104L330.976 17.5048ZM331.241 19.2348L328.625 19.6357L328.89 21.3657L331.506 20.9648L334.121 20.564L333.856 18.834L331.241 19.2348ZM331.506 20.9648L328.89 21.3657C329.046 22.3834 329.12 23.3883 329.112 24.3818L331.758 24.4016L334.404 24.4213C334.414 23.1392 334.319 21.853 334.121 20.564L331.506 20.9648ZM331.758 24.4016L329.112 24.3818L329.099 26.0886L331.745 26.1083L334.391 26.1281L334.404 24.4213L331.758 24.4016ZM331.745 26.1083L329.099 26.0886L329.087 27.7953L331.733 27.8151L334.379 27.8348L334.391 26.1281L331.745 26.1083ZM331.733 27.8151L329.087 27.7953C329.079 28.863 329.028 29.931 328.935 30.9994L331.572 31.2286L334.208 31.4577C334.313 30.2505 334.37 29.0428 334.379 27.8348L331.733 27.8151ZM331.572 31.2286L328.935 30.9994L328.787 32.7061L331.423 32.9353L334.059 33.1645L334.208 31.4577L331.572 31.2286ZM331.423 32.9353L328.787 32.7061L328.639 34.4129L331.275 34.642L333.911 34.8712L334.059 33.1645L331.423 32.9353ZM331.275 34.642L328.639 34.4129C328.535 35.6003 328.466 36.788 328.43 37.9759L331.075 38.0555L333.72 38.1351C333.753 37.0474 333.816 35.9594 333.911 34.8712L331.275 34.642ZM331.075 38.0555L328.43 37.9759L328.379 39.6827L331.024 39.7623L333.669 39.8419L333.72 38.1351L331.075 38.0555ZM331.024 39.7623L328.379 39.6827L328.327 41.3894L330.972 41.469L333.617 41.5486L333.669 39.8419L331.024 39.7623ZM330.972 41.469L328.327 41.3894C328.298 42.3727 328.183 43.3286 327.986 44.2593L330.574 44.8092L333.162 45.359C333.427 44.1119 333.578 42.841 333.617 41.5486L330.972 41.469ZM330.574 44.8092L327.986 44.2593L327.639 45.8927L330.227 46.4426L332.815 46.9925L333.162 45.359L330.574 44.8092ZM330.227 46.4426L327.639 45.8927L327.292 47.5262L329.88 48.076L332.468 48.6259L332.815 46.9925L330.227 46.4426ZM329.88 48.076L327.292 47.5262C327.058 48.624 326.825 49.7506 326.591 50.9061L329.185 51.4306L331.779 51.9552C332.009 50.8158 332.239 49.706 332.468 48.6259L329.88 48.076ZM329.185 51.4306L326.591 50.9061L326.243 52.6273L328.837 53.1518L331.43 53.6764L331.779 51.9552L329.185 51.4306ZM328.837 53.1518L326.243 52.6273L325.895 54.3485L328.489 54.873L331.082 55.3976L331.43 53.6764L328.837 53.1518ZM328.489 54.873L325.895 54.3485C325.795 54.8416 325.578 55.1804 325.165 55.4784L326.713 57.6241L328.262 59.7699C329.752 58.6946 330.718 57.1994 331.082 55.3976L328.489 54.873ZM326.713 57.6241L325.165 55.4784L323.738 56.5083L325.286 58.6541L326.834 60.7998L328.262 59.7699L326.713 57.6241ZM325.286 58.6541L323.738 56.5083L322.31 57.5382L323.859 59.684L325.407 61.8298L326.834 60.7998L325.286 58.6541ZM323.859 59.684L322.31 57.5382C321.722 57.9626 321.13 58.1808 320.499 58.2415L320.753 60.8755L321.006 63.5094C322.613 63.3547 324.092 62.7786 325.407 61.8298L323.859 59.684ZM320.753 60.8755L320.499 58.2415L318.82 58.4031L319.074 61.037L319.327 63.671L321.006 63.5094L320.753 60.8755ZM319.074 61.037L318.82 58.4031L317.141 58.5647L317.395 61.1986L317.648 63.8325L319.327 63.671L319.074 61.037ZM317.395 61.1986L317.141 58.5647C316.024 58.6722 314.915 58.7775 313.815 58.8807L314.062 61.5153L314.309 64.1498C315.414 64.0462 316.527 63.9405 317.648 63.8325L317.395 61.1986ZM314.062 61.5153L313.815 58.8807L312.16 59.0358L312.407 61.6704L312.654 64.3049L314.309 64.1498L314.062 61.5153ZM312.407 61.6704L312.16 59.0358L310.506 59.1909L310.753 61.8255L311 64.46L312.654 64.3049L312.407 61.6704ZM310.753 61.8255L310.506 59.1909C309.537 59.2818 308.548 59.3002 307.537 59.2445L307.392 61.8866L307.246 64.5288C308.511 64.5984 309.763 64.576 311 64.46L310.753 61.8255ZM307.392 61.8866L307.537 59.2445L305.831 59.1506L305.685 61.7927L305.54 64.4348L307.246 64.5288L307.392 61.8866ZM305.685 61.7927L305.831 59.1506L304.124 59.0566L303.978 61.6987L303.833 64.3408L305.54 64.4348L305.685 61.7927ZM303.978 61.6987L304.124 59.0566C302.821 58.9849 301.518 59.0351 300.219 59.2066L300.565 61.8299L300.911 64.4533C301.887 64.3245 302.86 64.2873 303.833 64.3408L303.978 61.6987ZM300.565 61.8299L300.219 59.2066L298.512 59.4317L298.858 62.0551L299.204 64.6785L300.911 64.4533L300.565 61.8299ZM298.858 62.0551L298.512 59.4317L296.805 59.6569L297.151 62.2803L297.498 64.9036L299.204 64.6785L298.858 62.0551ZM297.151 62.2803L296.805 59.6569C295.818 59.7872 294.832 59.8316 293.848 59.7907L293.738 62.4345L293.628 65.0783C294.919 65.132 296.21 65.0735 297.498 64.9036L297.151 62.2803ZM293.738 62.4345L293.848 59.7907L292.141 59.7197L292.031 62.3635L291.921 65.0074L293.628 65.0783L293.738 62.4345ZM292.031 62.3635L292.141 59.7197L290.434 59.6488L290.325 62.2926L290.215 64.9364L291.921 65.0074L292.031 62.3635ZM290.325 62.2926L290.434 59.6488C289.209 59.5978 287.984 59.6077 286.759 59.6784L286.911 62.3202L287.063 64.9619C288.114 64.9012 289.164 64.8928 290.215 64.9364L290.325 62.2926ZM286.911 62.3202L286.759 59.6784L285.052 59.7769L285.204 62.4186L285.357 65.0604L287.063 64.9619L286.911 62.3202ZM285.204 62.4186L285.052 59.7769L283.345 59.8754L283.498 62.5171L283.65 65.1588L285.357 65.0604L285.204 62.4186ZM283.498 62.5171L283.345 59.8754C282.062 59.9494 280.783 60.1289 279.51 60.412L280.084 62.995L280.658 65.5781C281.66 65.3553 282.657 65.2161 283.65 65.1588L283.498 62.5171ZM280.084 62.995L279.51 60.412L277.803 60.7914L278.377 63.3745L278.952 65.9575L280.658 65.5781L280.084 62.995ZM278.377 63.3745L277.803 60.7914L276.096 61.1708L276.671 63.7539L277.245 66.3369L278.952 65.9575L278.377 63.3745ZM276.671 63.7539L276.096 61.1708C275.164 61.378 274.243 61.4675 273.326 61.4437L273.257 64.0889L273.188 66.7341C274.547 66.7695 275.901 66.6357 277.245 66.3369L276.671 63.7539ZM273.257 64.0889L273.326 61.4437L271.619 61.3992L271.55 64.0444L271.481 66.6897L273.188 66.7341L273.257 64.0889ZM271.55 64.0444L271.619 61.3992L269.912 61.3548L269.844 64L269.775 66.6452L271.481 66.6897L271.55 64.0444ZM269.844 64L269.912 61.3548C268.74 61.3242 267.566 61.3171 266.393 61.3333L266.43 63.9792L266.467 66.6251C267.569 66.6098 268.672 66.6165 269.775 66.6452L269.844 64ZM266.43 63.9792L266.393 61.3333L264.687 61.357L264.723 64.0028L264.76 66.6487L266.467 66.6251L266.43 63.9792ZM264.723 64.0028L264.687 61.357L262.98 61.3806L263.017 64.0265L263.053 66.6723L264.76 66.6487L264.723 64.0028ZM263.017 64.0265L262.98 61.3806C262.154 61.392 261.311 61.2616 260.439 60.9714L259.603 63.4821L258.768 65.9928C260.171 66.46 261.604 66.6924 263.053 66.6723L263.017 64.0265ZM259.603 63.4821L260.439 60.9714L258.732 60.4033L257.896 62.914L257.061 65.4248L258.768 65.9928L259.603 63.4821ZM257.896 62.914L258.732 60.4033L257.025 59.8353L256.19 62.346L255.354 64.8567L257.061 65.4248L257.896 62.914ZM256.19 62.346L257.025 59.8353C255.469 59.3172 253.867 59.2024 252.264 59.5184L252.776 62.1145L253.288 64.7106C253.961 64.5779 254.635 64.6174 255.354 64.8567L256.19 62.346ZM252.776 62.1145L252.264 59.5184L250.558 59.8549L251.069 62.451L251.581 65.0471L253.288 64.7106L252.776 62.1145ZM251.069 62.451L250.558 59.8549L248.851 60.1914L249.363 62.7875L249.875 65.3837L251.581 65.0471L251.069 62.451ZM249.363 62.7875L248.851 60.1914C248.047 60.3499 247.253 60.3515 246.45 60.1967L245.949 62.795L245.448 65.3933C246.921 65.6772 248.403 65.6739 249.875 65.3837L249.363 62.7875ZM245.949 62.795L246.45 60.1967L244.743 59.8677L244.242 62.466L243.742 65.0642L245.448 65.3933L245.949 62.795ZM244.242 62.466L244.743 59.8677L243.037 59.5387L242.536 62.1369L242.035 64.7352L243.742 65.0642L244.242 62.466ZM242.536 62.1369L243.037 59.5387C241.666 59.2744 240.286 59.1976 238.904 59.3118L239.122 61.9489L239.34 64.586C240.234 64.5122 241.13 64.5608 242.035 64.7352L242.536 62.1369ZM239.122 61.9489L238.904 59.3118L237.198 59.4528L237.415 62.0899L237.633 64.727L239.34 64.586L239.122 61.9489ZM237.415 62.0899L237.198 59.4528L235.491 59.5938L235.709 62.2309L235.927 64.868L237.633 64.727L237.415 62.0899ZM235.709 62.2309L235.491 59.5938C234.371 59.6863 233.251 59.7672 232.132 59.8366L232.295 62.4777L232.459 65.1187C233.615 65.0471 234.771 64.9635 235.927 64.868L235.709 62.2309ZM232.295 62.4777L232.132 59.8366L230.425 59.9424L230.589 62.5834L230.752 65.2245L232.459 65.1187L232.295 62.4777ZM230.589 62.5834L230.425 59.9424L228.718 60.0481L228.882 62.6892L229.045 65.3302L230.752 65.2245L230.589 62.5834ZM228.882 62.6892L228.718 60.0481C227.473 60.1252 226.23 60.278 224.99 60.5058L225.468 63.1084L225.946 65.711C226.982 65.5208 228.015 65.3941 229.045 65.3302L228.882 62.6892ZM225.468 63.1084L224.99 60.5058L223.284 60.8193L223.762 63.4219L224.24 66.0245L225.946 65.711L225.468 63.1084ZM223.762 63.4219L223.284 60.8193L221.577 61.1328L222.055 63.7354L222.533 66.3379L224.24 66.0245L223.762 63.4219ZM222.055 63.7354L221.577 61.1328C220.595 61.3131 219.618 61.4019 218.644 61.4008L218.641 64.0469L218.638 66.693C219.94 66.6945 221.239 66.5756 222.533 66.3379L222.055 63.7354ZM218.641 64.0469L218.644 61.4008L216.938 61.3988L216.935 64.0449L216.932 66.691L218.638 66.693L218.641 64.0469ZM216.935 64.0449L216.938 61.3988L215.231 61.3968L215.228 64.0429L215.225 66.689L216.932 66.691L216.935 64.0449ZM215.228 64.0429L215.231 61.3968C214.072 61.3955 212.914 61.4077 211.755 61.4335L211.814 64.0789L211.873 66.7244C212.99 66.6995 214.108 66.6878 215.225 66.689L215.228 64.0429ZM211.814 64.0789L211.755 61.4335L210.049 61.4715L210.108 64.1169L210.166 66.7624L211.873 66.7244L211.814 64.0789ZM210.108 64.1169L210.049 61.4715L208.342 61.5095L208.401 64.1549L208.46 66.8004L210.166 66.7624L210.108 64.1169ZM208.401 64.1549L208.342 61.5095C207.308 61.5325 206.273 61.495 205.237 61.3968L204.987 64.0311L204.738 66.6654C205.978 66.783 207.219 66.828 208.46 66.8004L208.401 64.1549ZM204.987 64.0311L205.237 61.3968L203.53 61.2351L203.281 63.8694L203.031 66.5037L204.738 66.6654L204.987 64.0311ZM203.281 63.8694L203.53 61.2351L201.824 61.0733L201.574 63.7076L201.324 66.3419L203.031 66.5037L203.281 63.8694ZM201.574 63.7076L201.824 61.0733C200.645 60.9616 199.466 60.8774 198.287 60.8209L198.16 63.4639L198.034 66.107C199.13 66.1596 200.227 66.2379 201.324 66.3419L201.574 63.7076ZM198.16 63.4639L198.287 60.8209L196.58 60.739L196.454 63.3821L196.327 66.0251L198.034 66.107L198.16 63.4639ZM196.454 63.3821L196.58 60.739L194.874 60.6571L194.747 63.3002L194.62 65.9432L196.327 66.0251L196.454 63.3821ZM194.747 63.3002L194.874 60.6571C193.672 60.5994 192.47 60.5854 191.268 60.615L191.333 63.2603L191.399 65.9056C192.472 65.8792 193.546 65.8917 194.62 65.9432L194.747 63.3002ZM191.333 63.2603L191.268 60.615L189.562 60.6571L189.627 63.3024L189.692 65.9477L191.399 65.9056L191.333 63.2603ZM189.627 63.3024L189.562 60.6571L187.855 60.6991L187.92 63.3444L187.985 65.9897L189.692 65.9477L189.627 63.3024ZM187.92 63.3444L187.855 60.6991C186.702 60.7275 185.549 60.7659 184.396 60.8143L184.506 63.458L184.617 66.1018C185.74 66.0548 186.863 66.0174 187.985 65.9897L187.92 63.3444ZM184.506 63.458L184.396 60.8143L182.689 60.8858L182.8 63.5296L182.911 66.1734L184.617 66.1018L184.506 63.458ZM182.8 63.5296L182.689 60.8858L180.982 60.9574L181.093 63.6012L181.204 66.245L182.911 66.1734L182.8 63.5296ZM181.093 63.6012L180.982 60.9574C179.81 61.0065 178.639 61.0782 177.467 61.1723L177.68 63.8099L177.892 66.4475C178.996 66.3588 180.1 66.2913 181.204 66.245L181.093 63.6012ZM177.68 63.8099L177.467 61.1723L175.761 61.3095L175.973 63.9471L176.185 66.5847L177.892 66.4475L177.68 63.8099ZM175.973 63.9471L175.761 61.3095L174.054 61.4467L174.266 64.0843L174.478 66.722L176.185 66.5847L175.973 63.9471ZM174.266 64.0843L174.054 61.4467C173.235 61.5126 172.408 61.4342 171.558 61.1992L170.853 63.7497L170.147 66.3001C171.573 66.6943 173.021 66.8391 174.478 66.722L174.266 64.0843ZM170.853 63.7497L171.558 61.1992L169.851 60.7274L169.146 63.2778L168.441 65.8282L170.147 66.3001L170.853 63.7497ZM169.146 63.2778L169.851 60.7274L168.144 60.2555L167.439 62.8059L166.734 65.3563L168.441 65.8282L169.146 63.2778ZM167.439 62.8059L168.144 60.2555C166.712 59.8596 165.257 59.7195 163.794 59.848L164.026 62.4839L164.257 65.1199C165.07 65.0485 165.89 65.1231 166.734 65.3563L167.439 62.8059ZM164.026 62.4839L163.794 59.848L162.087 59.9978L162.319 62.6338L162.55 65.2698L164.257 65.1199L164.026 62.4839ZM162.319 62.6338L162.087 59.9978L160.381 60.1477L160.612 62.7837L160.844 65.4196L162.55 65.2698L162.319 62.6338ZM160.612 62.7837L160.381 60.1477C159.5 60.2251 158.616 60.1755 157.723 59.9949L157.199 62.5885L156.674 65.1821C158.057 65.4616 159.449 65.5421 160.844 65.4196L160.612 62.7837ZM157.199 62.5885L157.723 59.9949L156.016 59.6498L155.492 62.2434L154.967 64.8371L156.674 65.1821L157.199 62.5885ZM155.492 62.2434L156.016 59.6498L154.309 59.3048L153.785 61.8984L153.261 64.492L154.967 64.8371L155.492 62.2434ZM153.785 61.8984L154.309 59.3048C152.957 59.0313 151.596 58.9292 150.231 59.0021L150.372 61.6445L150.513 64.2868C151.423 64.2382 152.338 64.3054 153.261 64.492L153.785 61.8984ZM150.372 61.6445L150.231 59.0021L148.524 59.0933L148.665 61.7356L148.806 64.378L150.513 64.2868L150.372 61.6445ZM148.665 61.7356L148.524 59.0933L146.817 59.1844L146.958 61.8267L147.099 64.4691L148.806 64.378L148.665 61.7356ZM146.958 61.8267L146.817 59.1844C145.775 59.24 144.734 59.2388 143.692 59.1808L143.545 61.8228L143.397 64.4648C144.631 64.5335 145.865 64.535 147.099 64.4691L146.958 61.8267ZM143.545 61.8228L143.692 59.1808L141.985 59.0856L141.838 61.7277L141.691 64.3697L143.397 64.4648L143.545 61.8228ZM141.838 61.7277L141.985 59.0856L140.278 58.9905L140.131 61.6326L139.984 64.2746L141.691 64.3697L141.838 61.7277ZM140.131 61.6326L140.278 58.9905C138.95 58.9165 137.623 58.9857 136.301 59.1967L136.718 61.8098L137.135 64.4228C138.088 64.2707 139.037 64.2218 139.984 64.2746L140.131 61.6326ZM136.718 61.8098L136.301 59.1967L134.594 59.469L135.011 62.0821L135.428 64.6951L137.135 64.4228L136.718 61.8098ZM135.011 62.0821L134.594 59.469L132.887 59.7413L133.304 62.3544L133.721 64.9675L135.428 64.6951L135.011 62.0821ZM133.304 62.3544L132.887 59.7413C131.937 59.893 130.991 59.9402 130.047 59.8844L129.891 62.5259L129.735 65.1675C131.066 65.2461 132.396 65.1789 133.721 64.9675L133.304 62.3544ZM129.891 62.5259L130.047 59.8844L128.34 59.7836L128.184 62.4252L128.028 65.0667L129.735 65.1675L129.891 62.5259ZM128.184 62.4252L128.34 59.7836L126.633 59.6829L126.477 62.3244L126.321 64.9659L128.028 65.0667L128.184 62.4252ZM126.477 62.3244L126.633 59.6829C125.466 59.6139 124.299 59.5646 123.131 59.5349L123.064 62.1801L122.996 64.8254C124.105 64.8536 125.213 64.9004 126.321 64.9659L126.477 62.3244ZM123.064 62.1801L123.131 59.5349L121.424 59.4914L121.357 62.1367L121.29 64.782L122.996 64.8254L123.064 62.1801ZM121.357 62.1367L121.424 59.4914L119.718 59.448L119.65 62.0933L119.583 64.7385L121.29 64.782L121.357 62.1367ZM119.65 62.0933L119.718 59.448C118.478 59.4165 117.239 59.4563 116 59.5673L116.237 62.2029L116.473 64.8384C117.51 64.7454 118.547 64.7121 119.583 64.7385L119.65 62.0933ZM116.237 62.2029L116 59.5673L114.294 59.7204L114.53 62.3559L114.766 64.9915L116.473 64.8384L116.237 62.2029ZM114.53 62.3559L114.294 59.7204L112.587 59.8735L112.823 62.509L113.06 65.1446L114.766 64.9915L114.53 62.3559ZM112.823 62.509L112.587 59.8735C111.332 59.986 110.081 60.1822 108.833 60.4609L109.41 63.0434L109.987 65.6258C111.015 65.3962 112.039 65.2361 113.06 65.1446L112.823 62.509ZM109.41 63.0434L108.833 60.4609L107.126 60.8422L107.703 63.4246L108.28 66.0071L109.987 65.6258L109.41 63.0434ZM107.703 63.4246L107.126 60.8422L105.419 61.2234L105.996 63.8059L106.573 66.3883L108.28 66.0071L107.703 63.4246ZM105.996 63.8059L105.419 61.2234C104.58 61.4109 103.755 61.4472 102.93 61.338L102.583 63.9612L102.236 66.5845C103.686 66.7765 105.137 66.7092 106.573 66.3883L105.996 63.8059ZM102.583 63.9612L102.93 61.338L101.223 61.1121L100.876 63.7353L100.529 66.3586L102.236 66.5845L102.583 63.9612ZM100.876 63.7353L101.223 61.1121L99.5166 60.8862L99.1693 63.5094L98.8221 66.1327L100.529 66.3586L100.876 63.7353ZM99.1693 63.5094L99.5166 60.8862C98.253 60.7189 96.9873 60.6435 95.7204 60.6605L95.7559 63.3064L95.7913 65.9522C96.8001 65.9387 97.81 65.9987 98.8221 66.1327L99.1693 63.5094ZM95.7559 63.3064L95.7204 60.6605L94.0137 60.6833L94.0491 63.3292L94.0846 65.9751L95.7913 65.9522L95.7559 63.3064ZM94.0491 63.3292L94.0137 60.6833L92.3069 60.7062L92.3424 63.3521L92.3778 65.998L94.0846 65.9751L94.0491 63.3292ZM92.3424 63.3521L92.3069 60.7062C91.176 60.7213 90.0451 60.7321 88.9142 60.7384L88.9289 63.3844L88.9436 66.0305C90.0883 66.0241 91.2331 66.0133 92.3778 65.998L92.3424 63.3521ZM88.9289 63.3844L88.9142 60.7384L87.2074 60.7478L87.2222 63.3939L87.2369 66.04L88.9436 66.0305L88.9289 63.3844ZM87.2222 63.3939L87.2074 60.7478L85.5007 60.7573L85.5154 63.4034L85.5301 66.0495L87.2369 66.04L87.2222 63.3939ZM85.5154 63.4034L85.5007 60.7573C84.5975 60.7624 83.6861 60.6491 82.7612 60.4112L82.1019 62.9738L81.4427 65.5365C82.7935 65.884 84.1577 66.0571 85.5301 66.0495L85.5154 63.4034ZM82.1019 62.9738L82.7612 60.4112L81.0544 59.9721L80.3952 62.5348L79.7359 65.0975L81.4427 65.5365L82.1019 62.9738ZM80.3952 62.5348L81.0544 59.9721L79.3477 59.5331L78.6884 62.0957L78.0292 64.6584L79.7359 65.0975L80.3952 62.5348ZM78.6884 62.0957L79.3477 59.5331C77.7453 59.1209 76.1239 59.1505 74.5341 59.6142L75.2749 62.1544L76.0158 64.6947C76.7016 64.4947 77.3559 64.4852 78.0292 64.6584L78.6884 62.0957ZM75.2749 62.1544L74.5341 59.6142L72.8273 60.1119L73.5682 62.6522L74.3091 65.1925L76.0158 64.6947L75.2749 62.1544ZM73.5682 62.6522L72.8273 60.1119L71.1206 60.6097L71.8615 63.1499L72.6023 65.6902L74.3091 65.1925L73.5682 62.6522ZM71.8615 63.1499L71.1206 60.6097C70.1894 60.8813 69.2739 61.0266 68.3695 61.0534L68.448 63.6983L68.5264 66.3433C69.8977 66.3026 71.2579 66.0823 72.6023 65.6902L71.8615 63.1499ZM68.448 63.6983L68.3695 61.0534L66.6628 61.104L66.7412 63.7489L66.8197 66.3939L68.5264 66.3433L68.448 63.6983ZM66.7412 63.7489L66.6628 61.104L64.9561 61.1546L65.0345 63.7996L65.1129 66.4445L66.8197 66.3939L66.7412 63.7489ZM65.0345 63.7996L64.9561 61.1546C64.0267 61.1822 63.0932 61.1012 62.1516 60.9085L61.621 63.5009L61.0904 66.0932C62.4245 66.3663 63.7666 66.4844 65.1129 66.4445L65.0345 63.7996ZM61.621 63.5009L62.1516 60.9085L60.4448 60.5592L59.9143 63.1515L59.3837 65.7439L61.0904 66.0932L61.621 63.5009ZM59.9143 63.1515L60.4448 60.5592L58.7381 60.2098L58.2075 62.8022L57.6769 65.3946L59.3837 65.7439L59.9143 63.1515ZM58.2075 62.8022L58.7381 60.2098C57.2701 59.9094 55.7907 59.8927 54.3185 60.1616L54.794 62.7647L55.2695 65.3677C56.073 65.2209 56.8693 65.2293 57.6769 65.3946L58.2075 62.8022ZM54.794 62.7647L54.3185 60.1616L52.6118 60.4734L53.0873 63.0764L53.5628 65.6795L55.2695 65.3677L54.794 62.7647ZM53.0873 63.0764L52.6118 60.4734L50.9051 60.7852L51.3806 63.3882L51.856 65.9912L53.5628 65.6795L53.0873 63.0764ZM51.3806 63.3882L50.9051 60.7852C50.0144 60.9479 49.1318 60.9805 48.2493 60.8859L47.9671 63.5169L47.6848 66.1479C49.078 66.2974 50.471 66.2443 51.856 65.9912L51.3806 63.3882ZM47.9671 63.5169L48.2493 60.8859L46.5426 60.7028L46.2603 63.3338L45.9781 65.9648L47.6848 66.1479L47.9671 63.5169ZM46.2603 63.3338L46.5426 60.7028L44.8358 60.5197L44.5536 63.1507L44.2713 65.7817L45.9781 65.9648L46.2603 63.3338ZM44.5536 63.1507L44.8358 60.5197C43.7827 60.4067 42.7279 60.2422 41.6711 60.0257L41.1401 62.618L40.6091 65.2103C41.828 65.4599 43.0488 65.6506 44.2713 65.7817L44.5536 63.1507ZM41.1401 62.618L41.6711 60.0257L39.9644 59.6761L39.4334 62.2684L38.9024 64.8607L40.6091 65.2103L41.1401 62.618ZM39.4334 62.2684L39.9644 59.6761L38.2576 59.3265L37.7266 61.9188L37.1956 64.5111L38.9024 64.8607L39.4334 62.2684ZM37.7266 61.9188L38.2576 59.3265C36.7199 59.0115 35.1738 59.0548 33.6504 59.449L34.3131 62.0107L34.9759 64.5725C35.7281 64.3779 36.4577 64.3599 37.1956 64.5111L37.7266 61.9188ZM34.3131 62.0107L33.6504 59.449L31.9436 59.8905L32.6064 62.4523L33.2692 65.014L34.9759 64.5725L34.3131 62.0107ZM32.6064 62.4523L31.9436 59.8905L30.2369 60.3321L30.8997 62.8938L31.5624 65.4556L33.2692 65.014L32.6064 62.4523ZM30.8997 62.8938L30.2369 60.3321C29.365 60.5576 28.511 60.6371 27.6646 60.5799L27.4862 63.22L27.3078 65.8601C28.737 65.9567 30.1587 65.8188 31.5624 65.4556L30.8997 62.8938ZM27.4862 63.22L27.6646 60.5799L25.9578 60.4646L25.7794 63.1047L25.601 65.7448L27.3078 65.8601L27.4862 63.22ZM25.7794 63.1047L25.9578 60.4646L24.2511 60.3493L24.0727 62.9894L23.8943 65.6294L25.601 65.7448L25.7794 63.1047ZM24.0727 62.9894L24.2511 60.3493C23.0721 60.2696 21.8813 60.2168 20.6785 60.1907L20.6212 62.8362L20.5639 65.4817C21.6875 65.5061 22.7975 65.5553 23.8943 65.6294L24.0727 62.9894ZM20.6212 62.8362L20.6785 60.1907L18.9338 60.1529L18.8765 62.7984L18.8193 65.4439L20.5639 65.4817L20.6212 62.8362ZM18.8765 62.7984L18.9338 60.1529L17.1892 60.1152L17.1319 62.7607L17.0746 65.4061L18.8193 65.4439L18.8765 62.7984ZM17.1319 62.7607L17.1892 60.1152C16.7411 60.1055 16.4392 59.9709 16.1307 59.6401L14.1953 61.4446L12.26 63.2491C13.5406 64.6226 15.1964 65.3655 17.0746 65.4061L17.1319 62.7607ZM14.1953 61.4446L16.1307 59.6401L14.9388 58.3618L13.0035 60.1663L11.0681 61.9708L12.26 63.2491L14.1953 61.4446ZM13.0035 60.1663L14.9388 58.3618L13.747 57.0835L11.8116 58.888L9.87626 60.6926L11.0681 61.9708L13.0035 60.1663ZM11.8116 58.888L13.747 57.0835C12.811 56.0797 11.7646 55.1919 10.6125 54.421L9.14094 56.6203L7.66942 58.8195C8.4891 59.3679 9.2231 59.992 9.87626 60.6926L11.8116 58.888ZM9.14094 56.6203L10.6125 54.421L9.13363 53.4315L7.66211 55.6308L6.19059 57.83L7.66942 58.8195L9.14094 56.6203ZM7.66211 55.6308L9.13363 53.4315L7.6548 52.442L6.18328 54.6412L4.71176 56.8405L6.19059 57.83L7.66211 55.6308ZM6.18328 54.6412L7.6548 52.442C7.56619 52.3827 7.51842 52.3371 7.49528 52.3118C7.47343 52.2879 7.46742 52.2756 7.46626 52.2733C7.4651 52.271 7.45895 52.2589 7.45302 52.2272C7.44673 52.1936 7.43895 52.1282 7.44483 52.0219L4.80276 51.8757L2.16069 51.7294C2.04344 53.8476 2.94894 55.6609 4.71176 56.8405L6.18328 54.6412ZM4.80276 51.8757L7.44483 52.0219L7.54315 50.2459L4.90108 50.0996L2.25901 49.9534L2.16069 51.7294L4.80276 51.8757ZM4.90108 50.0996L7.54315 50.2459L7.64147 48.4698L4.9994 48.3236L2.35733 48.1773L2.25901 49.9534L4.90108 50.0996ZM4.9994 48.3236L7.64147 48.4698C7.71071 47.2189 7.73078 45.9947 7.70071 44.7977L5.05543 44.8642L2.41015 44.9306C2.43646 45.9781 2.41917 47.0602 2.35733 48.1773L4.9994 48.3236ZM5.05543 44.8642L7.70071 44.7977L7.65842 43.1144L5.01315 43.1808L2.36787 43.2473L2.41015 44.9306L5.05543 44.8642ZM5.01315 43.1808L7.65842 43.1144L7.61614 41.431L4.97086 41.4975L2.32558 41.5639L2.36787 43.2473L5.01315 43.1808ZM4.97086 41.4975L7.61614 41.431C7.58039 40.0078 7.30527 38.6008 6.81265 37.2189L4.32017 38.1074L1.82768 38.9959C2.14627 39.8896 2.30495 40.7426 2.32558 41.5639L4.97086 41.4975ZM4.32017 38.1074L6.81265 37.2189L6.20424 35.5121L3.71176 36.4006L1.21927 37.2891L1.82768 38.9959L4.32017 38.1074ZM3.71176 36.4006L6.20424 35.5121L5.59583 33.8054L3.10335 34.6939L0.610866 35.5824L1.21927 37.2891L3.71176 36.4006ZM3.10335 34.6939L5.59583 33.8054C5.3194 33.0299 5.24029 32.3017 5.32421 31.5905L2.69633 31.2804L0.068445 30.9703C-0.116149 32.5348 0.0760858 34.0822 0.610866 35.5824L3.10335 34.6939ZM2.69633 31.2804L5.32421 31.5905L5.5256 29.8837L2.89771 29.5737L0.269831 29.2636L0.068445 30.9703L2.69633 31.2804ZM2.89771 29.5737L5.5256 29.8837L5.72698 28.177L3.0991 27.8669L0.471217 27.5568L0.269831 29.2636L2.89771 29.5737ZM3.0991 27.8669L5.72698 28.177C5.8503 27.1318 6.02853 26.0954 6.26177 25.0672L3.68122 24.4818L1.10067 23.8964C0.826263 25.1061 0.61641 26.3263 0.471217 27.5568L3.0991 27.8669ZM3.68122 24.4818L6.26177 25.0672L6.6425 23.3888L4.06195 22.8034L1.48141 22.218L1.10067 23.8964L3.68122 24.4818ZM4.06195 22.8034L6.6425 23.3888L7.02324 21.7104L4.44269 21.125L1.86214 20.5397L1.48141 22.218L4.06195 22.8034ZM4.44269 21.125L7.02324 21.7104C7.30669 20.4609 7.49533 19.1912 7.58971 17.9026L4.95067 17.7093L2.31162 17.516C2.23634 18.5439 2.08633 19.5514 1.86214 20.5397L4.44269 21.125ZM4.95067 17.7093L7.58971 17.9026L7.71695 16.1652L5.07791 15.9719L2.43886 15.7786L2.31162 17.516L4.95067 17.7093ZM5.07791 15.9719L7.71695 16.1652L7.8442 14.4278L5.20515 14.2345L2.56611 14.0412L2.43886 15.7786L5.07791 15.9719ZM5.20515 14.2345L7.8442 14.4278C7.88743 13.8375 8.08894 13.3342 8.49848 12.8493L6.47686 11.142L4.45523 9.43466C3.33882 10.7566 2.69254 12.315 2.56611 14.0412L5.20515 14.2345ZM6.47686 11.142L8.49848 12.8493L9.64294 11.4942L7.62132 9.78684L5.59969 8.07952L4.45523 9.43466L6.47686 11.142ZM7.62132 9.78684L9.64294 11.4942L10.7874 10.139L8.76578 8.43169L6.74415 6.72437L5.59969 8.07952L7.62132 9.78684ZM8.76578 8.43169L10.7874 10.139C11.3387 9.48618 11.9859 8.95743 12.743 8.54352L11.4735 6.22179L10.2041 3.90007C8.8767 4.62583 7.71876 5.57035 6.74415 6.72437L8.76578 8.43169ZM11.4735 6.22179L12.743 8.54352L14.3062 7.68876L13.0368 5.36704L11.7673 3.04532L10.2041 3.90007L11.4735 6.22179ZM13.0368 5.36704L14.3062 7.68876L15.8695 6.83401L14.6 4.51228L13.3306 2.19056L11.7673 3.04532L13.0368 5.36704ZM14.6 4.51228L15.8695 6.83401C16.5421 6.46624 16.8589 6.50169 16.9492 6.52023L17.4815 3.9282L18.0137 1.33617C16.3465 0.993815 14.7423 1.41865 13.3306 2.19056L14.6 4.51228ZM17.4815 3.9282L16.9492 6.52023L18.2674 6.79091L18.7996 4.19888L19.3319 1.60685L18.0137 1.33617L17.4815 3.9282ZM18.7996 4.19888L18.2674 6.79091L19.5855 7.06158L20.1178 4.46955L20.65 1.87752L19.3319 1.60685L18.7996 4.19888ZM20.1178 4.46955L19.5855 7.06158C20.0528 7.15753 20.5598 7.24479 21.0088 7.26136C21.1937 7.26818 21.6308 7.27785 22.1139 7.13292C22.3634 7.05807 22.8285 6.88335 23.2614 6.46174C23.7661 5.97024 24.082 5.2788 24.082 4.51818H21.4359H18.7898C18.7898 3.79457 19.092 3.135 19.5692 2.67025C19.9747 2.27538 20.3986 2.12227 20.5932 2.0639C20.8091 1.99911 20.978 1.98235 21.0516 1.9768C21.1351 1.97051 21.1901 1.97222 21.2039 1.97273C21.2136 1.97309 21.0615 1.96202 20.65 1.87752L20.1178 4.46955ZM21.4359 4.51818H24.082V4.29614H21.4359H18.7898V4.51818H21.4359ZM21.4359 4.29614H24.082V4.07409H21.4359H18.7898V4.29614H21.4359ZM21.4359 4.07409H24.082C24.082 4.98656 23.6226 5.60939 23.3115 5.91326C23.0224 6.1957 22.743 6.33072 22.6411 6.3772C22.4271 6.47486 22.2917 6.49175 22.3719 6.47601C22.4853 6.45377 22.7751 6.41547 23.3171 6.37967L23.1427 3.73931L22.9683 1.09896C22.3724 1.13832 21.8088 1.19339 21.3533 1.28275C21.149 1.32281 20.8003 1.40004 20.444 1.56261C20.2711 1.64154 19.9384 1.81015 19.6136 2.12732C19.267 2.46592 18.7898 3.12462 18.7898 4.07409H21.4359ZM23.1427 3.73931L23.3171 6.37967L25.0238 6.26694L24.8494 3.62658L24.675 0.986219L22.9683 1.09896L23.1427 3.73931Z" fill="black"/>
<path d="M121.649 36.6714C121.512 36.6714 121.174 36.6433 120.636 36.587C120.588 37.7125 120.563 39.5616 120.563 42.1342C120.563 42.5603 120.415 42.9261 120.117 43.2316C119.82 43.5371 119.442 43.6898 118.984 43.6898C118.525 43.6898 118.144 43.5371 117.838 43.2316C117.541 42.9261 117.392 42.5603 117.392 42.1342V38.7697C117.392 37.5236 117.472 35.6785 117.633 33.2346C117.786 30.7504 117.866 28.8973 117.874 27.6753C117.882 25.5851 118.469 24.5842 119.635 24.6726C119.908 24.6002 120.286 24.548 120.768 24.5158C121.251 24.4756 121.838 24.4555 122.529 24.4555C124.105 24.4555 125.584 24.966 126.967 25.987C128.502 27.1286 129.27 28.5195 129.27 30.1595C129.27 32.2176 128.454 33.8536 126.822 35.0675C125.375 36.1368 123.651 36.6714 121.649 36.6714ZM122.252 27.5668C121.994 27.5668 121.765 27.5708 121.564 27.5788C121.371 27.5788 121.207 27.5869 121.07 27.603C121.07 27.9808 121.066 28.5476 121.058 29.3033C121.042 30.1957 120.965 31.5865 120.829 33.4757C121.239 33.5401 121.512 33.5722 121.649 33.5722C122.903 33.5722 123.944 33.2748 124.772 32.6798C125.656 32.0447 126.099 31.2046 126.099 30.1595C126.099 29.4761 125.685 28.8692 124.856 28.3386C124.061 27.824 123.192 27.5668 122.252 27.5668ZM141.474 44.1963C141.104 44.1963 140.517 43.7943 139.713 42.9904C138.974 43.3441 138.323 43.6094 137.76 43.7863C137.197 43.9712 136.719 44.0636 136.325 44.0636C134.387 44.0636 132.932 43.5451 131.959 42.508C130.995 41.4709 130.512 39.9193 130.512 37.8532C130.512 35.9157 131.228 34.2596 132.659 32.8848C134.09 31.5021 135.802 30.8107 137.796 30.8107C138.56 30.8107 139.444 31.0277 140.449 31.4619C141.663 31.9844 142.27 32.5914 142.27 33.2828C142.27 33.5722 142.177 33.8255 141.992 34.0425C141.912 34.3641 141.848 34.7701 141.8 35.2605C141.759 35.7429 141.739 36.3096 141.739 36.9608C141.739 38.4964 141.848 39.6018 142.065 40.2771C142.089 40.3494 142.274 40.7675 142.62 41.5312C142.933 42.2226 143.09 42.6165 143.09 42.713C143.09 43.1391 142.925 43.4928 142.595 43.7742C142.274 44.0556 141.9 44.1963 141.474 44.1963ZM138.483 35.9237C138.483 35.6665 138.499 35.373 138.532 35.0434C138.572 34.7058 138.628 34.3319 138.7 33.9219C138.54 33.8415 138.395 33.7853 138.266 33.7531C138.146 33.7129 138.041 33.6928 137.953 33.6928C136.859 33.6928 135.903 34.1229 135.083 34.9831C134.263 35.8353 133.853 36.8242 133.853 37.9497C133.853 39.027 134.046 39.8389 134.431 40.3856C134.817 40.9243 135.396 41.1936 136.168 41.1936C136.666 41.1936 137.137 41.1132 137.579 40.9524C138.029 40.7836 138.451 40.5384 138.845 40.2168C138.604 38.3034 138.483 36.8724 138.483 35.9237ZM149.023 43.9672C147.946 43.9672 146.973 43.8064 146.105 43.4848C144.939 43.0507 144.356 42.4115 144.356 41.5674C144.356 41.2458 144.517 40.9243 144.838 40.6027C145.168 40.2731 145.514 40.1083 145.876 40.1083C146.253 40.1083 146.772 40.2449 147.431 40.5183C148.098 40.7916 148.629 40.9283 149.023 40.9283C149.328 40.9283 149.63 40.7916 149.927 40.5183C150.225 40.2369 150.374 39.9515 150.374 39.6621C150.374 39.2119 150.056 38.8782 149.421 38.6612C148.818 38.4923 148.219 38.3275 147.624 38.1667C146.981 37.9416 146.659 37.6 146.659 37.1417C146.659 36.5548 146.897 36.1488 147.371 35.9237C147.636 35.7871 148.123 35.6785 148.83 35.5981C149.345 35.5419 149.694 35.4534 149.879 35.3328C150.128 35.164 150.253 34.8585 150.253 34.4164C150.253 33.8214 149.638 33.524 148.408 33.524C148.159 33.524 147.813 33.6767 147.371 33.9822C146.929 34.2877 146.515 34.4405 146.129 34.4405C145.703 34.4405 145.325 34.3118 144.995 34.0546C144.641 33.7812 144.465 33.4315 144.465 33.0054C144.465 32.298 144.991 31.6789 146.044 31.1483C146.929 30.7062 147.717 30.4851 148.408 30.4851C149.638 30.4851 150.743 30.7504 151.724 31.281C152.946 31.9402 153.557 32.8567 153.557 34.0305C153.557 35.2364 153.167 36.2333 152.387 37.0211C153.207 37.9537 153.617 38.834 153.617 39.6621C153.617 40.9645 153.199 42.0096 152.363 42.7974C151.527 43.5773 150.414 43.9672 149.023 43.9672ZM169.089 40.7594C169.146 40.261 169.174 39.6741 169.174 38.9988C169.174 38.4361 169.154 37.6 169.113 36.4905C169.073 35.373 169.053 34.5329 169.053 33.9702C169.053 33.118 169.17 32.3904 169.403 31.7875C169.732 30.9433 170.251 30.5213 170.958 30.5213C171.401 30.5213 171.799 30.666 172.152 30.9554C172.506 31.2448 172.683 31.6106 172.683 32.0528C172.683 32.1975 172.635 32.507 172.538 32.9813C172.45 33.4556 172.406 33.8295 172.406 34.1028C172.406 34.6254 172.426 35.4092 172.466 36.4543C172.514 37.4914 172.538 38.2713 172.538 38.7938C172.538 39.0511 172.518 39.437 172.478 39.9515C172.438 40.466 172.418 40.8519 172.418 41.1092C172.418 42.1623 172.257 42.8939 171.935 43.3039C171.549 43.7782 170.814 44.0154 169.728 44.0154C168.297 44.0154 166.159 43.9792 163.313 43.9069C160.467 43.8345 158.329 43.7983 156.898 43.7983C156.447 43.7983 156.053 43.6416 155.716 43.328C155.386 43.0145 155.221 42.6487 155.221 42.2307C155.221 42.1583 155.298 41.3222 155.45 39.7224C155.611 38.0341 155.692 35.4253 155.692 31.896C155.692 31.4538 155.852 31.084 156.174 30.7866C156.496 30.4811 156.894 30.3283 157.368 30.3283C157.842 30.3283 158.24 30.4811 158.562 30.7866C158.883 31.084 159.044 31.4538 159.044 31.896C159.044 35.6263 158.927 38.5848 158.694 40.7715C159.145 40.7956 159.639 40.8077 160.178 40.8077C160.411 40.8077 160.752 40.7996 161.203 40.7836C161.653 40.7675 161.991 40.7594 162.216 40.7594C162.272 40.261 162.3 39.6741 162.3 38.9988C162.3 38.4361 162.28 37.6 162.24 36.4905C162.2 35.373 162.179 34.5329 162.179 33.9702C162.179 33.118 162.296 32.3904 162.529 31.7875C162.859 30.9433 163.377 30.5213 164.085 30.5213C164.527 30.5213 164.925 30.666 165.279 30.9554C165.632 31.2448 165.809 31.6106 165.809 32.0528C165.809 32.1975 165.761 32.507 165.665 32.9813C165.576 33.4556 165.532 33.8295 165.532 34.1028C165.532 34.6254 165.552 35.4092 165.592 36.4543C165.64 37.4914 165.665 38.2713 165.665 38.7938C165.665 39.043 165.648 39.3726 165.616 39.7827C165.584 40.2811 165.564 40.6107 165.556 40.7715C166.006 40.7956 166.505 40.8077 167.051 40.8077C167.284 40.8077 167.626 40.7996 168.076 40.7836C168.527 40.7675 168.864 40.7594 169.089 40.7594ZM187.817 42.5321C187.817 42.9743 187.656 43.3441 187.335 43.6416C187.013 43.9471 186.615 44.0998 186.141 44.0998C185.659 44.0998 185.257 43.9471 184.935 43.6416C184.613 43.3441 184.453 42.9743 184.453 42.5321C184.453 42.0498 184.477 41.3262 184.525 40.3615C184.573 39.3887 184.597 38.6612 184.597 38.1788C184.597 37.7366 184.577 37.2703 184.537 36.7799C183.042 38.7978 181.699 40.2811 180.509 41.2298C179.432 42.0819 178.632 42.7613 178.11 43.2677C177.587 43.7662 177.024 44.0154 176.421 44.0154C175.971 44.0154 175.569 43.9029 175.215 43.6778C174.805 43.4044 174.6 43.0225 174.6 42.5321C174.6 40.4017 174.56 38.1788 174.48 35.8634C174.391 33.4597 174.347 32.2819 174.347 32.3301C174.347 31.8719 174.504 31.494 174.817 31.1966C175.131 30.8911 175.537 30.7383 176.035 30.7383C176.936 30.7383 177.486 31.2046 177.687 32.1372C177.72 32.2658 177.756 33.0456 177.796 34.4767L177.917 39.0712C178.954 38.1386 180.059 36.9849 181.233 35.6102C181.506 35.2886 182.507 34.0546 184.236 31.9081C184.806 31.1926 185.441 30.8348 186.141 30.8348C186.615 30.8348 187.013 30.9876 187.335 31.293C187.656 31.5905 187.817 31.9603 187.817 32.4025C187.817 33.2386 187.833 34.4927 187.865 36.1649C187.897 37.8371 187.914 39.0913 187.914 39.9274C187.914 40.2168 187.897 40.6509 187.865 41.2298C187.833 41.8086 187.817 42.2427 187.817 42.5321ZM196.017 44.1119C195.326 44.1119 194.598 44.0315 193.835 43.8707L193.823 48.7908C193.823 49.2571 193.666 49.643 193.352 49.9485C193.039 50.254 192.641 50.4067 192.158 50.4067C191.676 50.4067 191.278 50.254 190.965 49.9485C190.651 49.643 190.494 49.2571 190.494 48.7908C190.494 48.413 190.502 46.9136 190.518 44.2928C190.534 42.3472 190.534 40.7594 190.518 39.5294C190.494 37.7929 190.438 36.2976 190.35 35.0434C190.229 33.315 190.169 32.5231 190.169 32.6678C190.169 32.0005 190.317 31.4297 190.615 30.9554C190.961 30.4168 191.427 30.1474 192.014 30.1474C192.464 30.1474 192.842 30.3002 193.147 30.6057C193.453 30.9112 193.605 31.277 193.605 31.7031L193.593 31.8236C194.132 31.5182 194.671 31.293 195.209 31.1483C195.756 30.9956 196.303 30.9192 196.849 30.9192C198.698 30.9192 200.049 31.7031 200.901 33.2707C201.536 34.4525 201.854 35.984 201.854 37.8653C201.854 39.6259 201.351 41.085 200.347 42.2427C199.269 43.4888 197.826 44.1119 196.017 44.1119ZM196.849 34.139C196.343 34.139 195.828 34.2596 195.306 34.5008C194.783 34.7339 194.257 35.0876 193.726 35.562C193.823 37.2181 193.871 38.8782 193.871 40.5424C194.586 40.7755 195.302 40.8921 196.017 40.8921C196.845 40.8921 197.48 40.5987 197.923 40.0118C198.325 39.4812 198.526 38.7657 198.526 37.8653C198.526 36.7799 198.477 36.0283 198.381 35.6102C198.148 34.6294 197.637 34.139 196.849 34.139ZM216.759 42.5321C216.759 42.9743 216.598 43.3441 216.277 43.6416C215.955 43.9471 215.557 44.0998 215.083 44.0998C214.6 44.0998 214.198 43.9471 213.877 43.6416C213.555 43.3441 213.394 42.9743 213.394 42.5321C213.394 42.0498 213.419 41.3262 213.467 40.3615C213.515 39.3887 213.539 38.6612 213.539 38.1788C213.539 37.7366 213.519 37.2703 213.479 36.7799C211.984 38.7978 210.641 40.2811 209.451 41.2298C208.374 42.0819 207.574 42.7613 207.051 43.2677C206.529 43.7662 205.966 44.0154 205.363 44.0154C204.913 44.0154 204.511 43.9029 204.157 43.6778C203.747 43.4044 203.542 43.0225 203.542 42.5321C203.542 40.4017 203.502 38.1788 203.422 35.8634C203.333 33.4597 203.289 32.2819 203.289 32.3301C203.289 31.8719 203.446 31.494 203.759 31.1966C204.073 30.8911 204.479 30.7383 204.977 30.7383C205.878 30.7383 206.428 31.2046 206.629 32.1372C206.661 32.2658 206.698 33.0456 206.738 34.4767L206.858 39.0712C207.896 38.1386 209.001 36.9849 210.175 35.6102C210.448 35.2886 211.449 34.0546 213.177 31.9081C213.748 31.1926 214.383 30.8348 215.083 30.8348C215.557 30.8348 215.955 30.9876 216.277 31.293C216.598 31.5905 216.759 31.9603 216.759 32.4025C216.759 33.2386 216.775 34.4927 216.807 36.1649C216.839 37.8371 216.855 39.0913 216.855 39.9274C216.855 40.2168 216.839 40.6509 216.807 41.2298C216.775 41.8086 216.759 42.2427 216.759 42.5321Z" fill="black"/>
</svg>
