<svg xmlns="http://www.w3.org/2000/svg" width="134" height="100" fill="none"><g clip-path="url(#a)"><rect width="134" height="100" fill="#EEE" rx="15"/><mask id="b" width="57" height="23" x="12" y="17" fill="#000" maskUnits="userSpaceOnUse"><path fill="#fff" d="M12 17h57v23H12z"/><path d="M20.2 37.45c-1 0-1.96-.17-2.86-.53-.26.27-.59.4-.97.4s-.72-.13-1-.38c-.27-.26-.4-.58-.4-.97 0-.17 0-.43.03-.79l.03-.79V22.22c0-.52.12-.98.35-1.38.28-.5.69-.76 1.22-.76.77 0 1.15.42 1.15 1.25l-.04.45c-.03.2-.04.35-.04.44v4.11a7.6 7.6 0 0 1 1.53-.65 5.1 5.1 0 0 1 5.49 1.61 6.25 6.25 0 0 1 1.45 4.17c0 1.66-.56 3.07-1.69 4.22a5.69 5.69 0 0 1-4.25 1.77Zm.4-9.25c-.37 0-.8.11-1.28.32-.49.22-1.04.54-1.65.97v4.57a6.6 6.6 0 0 0 2.53.63c.9 0 1.66-.3 2.24-.91.6-.62.88-1.4.88-2.32 0-.93-.24-1.7-.72-2.31a2.43 2.43 0 0 0-2-.95Zm16.83 9.5c-.33 0-.85-.35-1.57-1.07-.66.32-1.24.56-1.74.71-.5.17-.93.25-1.28.25-1.72 0-3.02-.46-3.89-1.38-.86-.93-1.29-2.31-1.29-4.15 0-1.73.64-3.2 1.92-4.43a6.35 6.35 0 0 1 4.57-1.84c.68 0 1.47.19 2.37.58 1.08.46 1.62 1 1.62 1.62 0 .26-.08.48-.25.67-.07.3-.13.65-.17 1.09-.04.43-.05.93-.05 1.51 0 1.37.1 2.36.29 2.96l.49 1.12c.28.61.42.96.42 1.05 0 .38-.15.7-.44.94-.29.25-.62.38-1 .38Zm-2.67-7.36a8.19 8.19 0 0 1 .2-1.78 1.93 1.93 0 0 0-.67-.2c-.97 0-1.82.38-2.55 1.14a3.7 3.7 0 0 0-1.1 2.64c0 .96.17 1.69.52 2.17.34.48.85.72 1.54.72a3.65 3.65 0 0 0 2.39-.87c-.22-1.7-.33-2.98-.33-3.82Zm14.62-1.09c-.06 1.1-.56 1.65-1.49 1.65-.9 0-1.35-.47-1.35-1.4l-.06-1.08a4.41 4.41 0 0 0-3.45 2.48v5.4c0 .41-.13.75-.41 1.01-.28.27-.64.41-1.07.41-.44 0-.78-.14-1.03-.43a1.43 1.43 0 0 1-.34-.99v-7.03c0-.23 0-.56.02-1l.02-1c0-.4.12-.73.36-1 .24-.26.58-.4 1.03-.4.8 0 1.27.4 1.42 1.23a6.9 6.9 0 0 1 4.22-1.42c1.43 0 2.15.95 2.15 2.86 0 .36 0 .6-.02.71Zm10.6 8.19c-.56 0-.99-.27-1.28-.82-.35-.65-.88-1.42-1.58-2.3a449.23 449.23 0 0 1-1.73-2.2c-.57.41-1.05.74-1.42.96-.07 1-.1 1.95-.1 2.86 0 .41-.15.76-.42 1.03-.28.27-.64.4-1.07.4-1 0-1.51-.6-1.51-1.8 0-.56.04-1.41.12-2.53.08-1.14.12-1.98.12-2.55 0-1.04.02-2.22.05-3.56.03-1.33.05-2.52.05-3.54 0-.3-.02-.67-.05-1.09-.03-.42-.05-.78-.05-1.1 0-.4.14-.75.42-1.01.28-.27.64-.41 1.07-.41.43 0 .78.14 1.06.4.28.27.42.61.42 1.03 0 .31.02.69.05 1.12.04.43.06.8.06 1.11 0 .86-.02 1.87-.07 3.03a64.67 64.67 0 0 0-.05 2.99c.97-.75 2.45-2.12 4.45-4.1a1.48 1.48 0 0 1 2.13-.04c.31.3.47.64.47 1.02 0 .33-.14.65-.42.96a36.2 36.2 0 0 1-3.02 2.96l2.23 2.88c1.08 1.44 1.62 2.4 1.62 2.88 0 .4-.15.73-.47 1-.31.28-.67.42-1.07.42Zm5.3-13.35a1.7 1.7 0 0 1-1.19-.46c-.34-.31-.5-.69-.5-1.13 0-.45.16-.82.5-1.13.34-.3.73-.46 1.2-.46.45 0 .85.15 1.17.46.34.3.51.68.51 1.13 0 .44-.17.82-.5 1.13-.33.3-.73.46-1.19.46Zm.92 7.87c0 .41 0 1.07.03 1.97.03.9.04 1.56.04 1.96 0 .42-.14.76-.42 1.03-.28.27-.63.4-1.06.4-.43 0-.79-.13-1.06-.4a1.38 1.38 0 0 1-.42-1.03 92.88 92.88 0 0 1-.08-3.93c0-.64.04-1.43.1-2.4.08-.95.12-1.75.12-2.39 0-.41.14-.75.42-1.02.27-.27.63-.4 1.06-.4.43 0 .78.13 1.06.4s.42.6.42 1.02c0 .64-.03 1.44-.1 2.4-.08.96-.11 1.75-.11 2.4Z"/></mask><path fill="#000" d="M20.2 37.45c-1 0-1.96-.17-2.86-.53-.26.27-.59.4-.97.4s-.72-.13-1-.38c-.27-.26-.4-.58-.4-.97 0-.17 0-.43.03-.79l.03-.79V22.22c0-.52.12-.98.35-1.38.28-.5.69-.76 1.22-.76.77 0 1.15.42 1.15 1.25l-.04.45c-.03.2-.04.35-.04.44v4.11a7.6 7.6 0 0 1 1.53-.65 5.1 5.1 0 0 1 5.49 1.61 6.25 6.25 0 0 1 1.45 4.17c0 1.66-.56 3.07-1.69 4.22a5.69 5.69 0 0 1-4.25 1.77Zm.4-9.25c-.37 0-.8.11-1.28.32-.49.22-1.04.54-1.65.97v4.57a6.6 6.6 0 0 0 2.53.63c.9 0 1.66-.3 2.24-.91.6-.62.88-1.4.88-2.32 0-.93-.24-1.7-.72-2.31a2.43 2.43 0 0 0-2-.95Zm16.83 9.5c-.33 0-.85-.35-1.57-1.07-.66.32-1.24.56-1.74.71-.5.17-.93.25-1.28.25-1.72 0-3.02-.46-3.89-1.38-.86-.93-1.29-2.31-1.29-4.15 0-1.73.64-3.2 1.92-4.43a6.35 6.35 0 0 1 4.57-1.84c.68 0 1.47.19 2.37.58 1.08.46 1.62 1 1.62 1.62 0 .26-.08.48-.25.67-.07.3-.13.65-.17 1.09-.04.43-.05.93-.05 1.51 0 1.37.1 2.36.29 2.96l.49 1.12c.28.61.42.96.42 1.05 0 .38-.15.7-.44.94-.29.25-.62.38-1 .38Zm-2.67-7.36a8.19 8.19 0 0 1 .2-1.78 1.93 1.93 0 0 0-.67-.2c-.97 0-1.82.38-2.55 1.14a3.7 3.7 0 0 0-1.1 2.64c0 .96.17 1.69.52 2.17.34.48.85.72 1.54.72a3.65 3.65 0 0 0 2.39-.87c-.22-1.7-.33-2.98-.33-3.82Zm14.62-1.09c-.06 1.1-.56 1.65-1.49 1.65-.9 0-1.35-.47-1.35-1.4l-.06-1.08a4.41 4.41 0 0 0-3.45 2.48v5.4c0 .41-.13.75-.41 1.01-.28.27-.64.41-1.07.41-.44 0-.78-.14-1.03-.43a1.43 1.43 0 0 1-.34-.99v-7.03c0-.23 0-.56.02-1l.02-1c0-.4.12-.73.36-1 .24-.26.58-.4 1.03-.4.8 0 1.27.4 1.42 1.23a6.9 6.9 0 0 1 4.22-1.42c1.43 0 2.15.95 2.15 2.86 0 .36 0 .6-.02.71Zm10.6 8.19c-.56 0-.99-.27-1.28-.82-.35-.65-.88-1.42-1.58-2.3a449.23 449.23 0 0 1-1.73-2.2c-.57.41-1.05.74-1.42.96-.07 1-.1 1.95-.1 2.86 0 .41-.15.76-.42 1.03-.28.27-.64.4-1.07.4-1 0-1.51-.6-1.51-1.8 0-.56.04-1.41.12-2.53.08-1.14.12-1.98.12-2.55 0-1.04.02-2.22.05-3.56.03-1.33.05-2.52.05-3.54 0-.3-.02-.67-.05-1.09-.03-.42-.05-.78-.05-1.1 0-.4.14-.75.42-1.01.28-.27.64-.41 1.07-.41.43 0 .78.14 1.06.4.28.27.42.61.42 1.03 0 .31.02.69.05 1.12.04.43.06.8.06 1.11 0 .86-.02 1.87-.07 3.03a64.67 64.67 0 0 0-.05 2.99c.97-.75 2.45-2.12 4.45-4.1a1.48 1.48 0 0 1 2.13-.04c.31.3.47.64.47 1.02 0 .33-.14.65-.42.96a36.2 36.2 0 0 1-3.02 2.96l2.23 2.88c1.08 1.44 1.62 2.4 1.62 2.88 0 .4-.15.73-.47 1-.31.28-.67.42-1.07.42Zm5.3-13.35a1.7 1.7 0 0 1-1.19-.46c-.34-.31-.5-.69-.5-1.13 0-.45.16-.82.5-1.13.34-.3.73-.46 1.2-.46.45 0 .85.15 1.17.46.34.3.51.68.51 1.13 0 .44-.17.82-.5 1.13-.33.3-.73.46-1.19.46Zm.92 7.87c0 .41 0 1.07.03 1.97.03.9.04 1.56.04 1.96 0 .42-.14.76-.42 1.03-.28.27-.63.4-1.06.4-.43 0-.79-.13-1.06-.4a1.38 1.38 0 0 1-.42-1.03 92.88 92.88 0 0 1-.08-3.93c0-.64.04-1.43.1-2.4.08-.95.12-1.75.12-2.39 0-.41.14-.75.42-1.02.27-.27.63-.4 1.06-.4.43 0 .78.13 1.06.4s.42.6.42 1.02c0 .64-.03 1.44-.1 2.4-.08.96-.11 1.75-.11 2.4Z"/><path fill="#E7E7E7" d="m17.34 36.92.73-1.86-1.22-.47-.92.92 1.41 1.41Zm-1.96.02L14 38.39l.02.02 1.36-1.47ZM15 35.18l2 .13-2-.13Zm.38-14.34 1.73 1v-.01l-1.73-.99Zm2.33.94-1.99-.28v.07l1.99.2Zm-.04 4.55h-2v3.4l2.97-1.65-.97-1.75Zm1.53-.65.56 1.92h.02v-.01l-.58-1.91Zm5.49 1.6L26.22 26l-1.53 1.29Zm-.24 8.4-1.43-1.4 1.43 1.4Zm-5.13-7.16-.81-1.83.8 1.83Zm-1.65.97-1.15-1.63-.84.59v1.02l2 .02Zm0 4.57h-2v1.31l1.21.52.8-1.83Zm4.77-.28 1.44 1.39.01-.01-1.45-1.38Zm.16-4.63 1.58-1.24h-.01l-1.57 1.24Zm-2.4 8.3v-2c-.77 0-1.47-.13-2.13-.39l-.73 1.86-.72 1.87c1.14.44 2.34.66 3.58.66v-2Zm-2.86-.53-1.41-1.4c.04-.05.1-.1.21-.15.1-.04.19-.05.23-.05v4c.9 0 1.74-.34 2.38-.98l-1.4-1.42Zm-.97.4v-2c.04 0 .1 0 .19.04.08.03.14.08.17.1l-1.36 1.48-1.35 1.47c.65.6 1.47.91 2.35.91v-2Zm-1-.38 1.38-1.46a.72.72 0 0 1 .22.49h-4c0 .92.34 1.77 1.03 2.42l1.38-1.45Zm-.4-.97h2c0-.1 0-.32.03-.66l-2-.13-2-.12-.03.9h2Zm.03-.79 2 .12.03-.91h-4c0 .1 0 .32-.03.67l2 .12Zm.03-.79h2V22.22h-4v12.17h2Zm0-12.17h2c0-.21.04-.32.08-.38l-1.73-1-1.74-.99c-.42.74-.6 1.55-.6 2.37h2Zm.35-1.38 1.74.99c.01-.03-.03.06-.17.14a.7.7 0 0 1-.35.11v-4c-1.34 0-2.37.72-2.97 1.78l1.74.98Zm1.22-.76v2c.03 0-.3 0-.6-.33-.29-.3-.25-.57-.25-.42h4c0-.69-.16-1.58-.82-2.3a3.1 3.1 0 0 0-2.33-.95v2Zm1.15 1.25h-2v-.04.03l-.03.18 1.99.28 1.98.27c.03-.21.06-.48.06-.72h-2Zm-.04.45-2-.21c-.02.2-.04.44-.04.65h4v-.04l.02-.19-1.98-.21Zm-.04.44h-2v4.11h4v-4.11h-2Zm0 4.11.97 1.75c.43-.23.8-.39 1.12-.48l-.56-1.92-.57-1.92c-.65.2-1.3.47-1.93.82l.97 1.75Zm1.53-.65.59 1.9c.32-.09.59-.13.82-.13v-4c-.68 0-1.35.11-2 .32l.59 1.9Zm1.4-.23v2a3.1 3.1 0 0 1 2.56 1.13l1.53-1.3L26.2 26a7.09 7.09 0 0 0-5.6-2.55v2Zm4.09 1.84-1.53 1.29c.63.75.98 1.67.98 2.88h4c0-2.06-.62-3.92-1.92-5.46l-1.53 1.29Zm1.45 4.17h-2c0 1.16-.37 2.06-1.12 2.82l1.43 1.4 1.43 1.4a7.82 7.82 0 0 0 2.26-5.62h-2Zm-1.69 4.22-1.43-1.4a3.7 3.7 0 0 1-2.82 1.17v4c2.21 0 4.15-.8 5.69-2.38l-1.44-1.4Zm-3.84-7.48v-2c-.75 0-1.46.21-2.1.5l.8 1.82.81 1.83c.16-.07.28-.1.37-.13l.12-.02v-2Zm-1.3.32-.8-1.83c-.65.29-1.31.69-1.99 1.17l1.15 1.63 1.16 1.64c.54-.39.97-.63 1.3-.78l-.81-1.83Zm-1.64.97-2-.02v4.6l2-.01h2V29.5l-2-.02Zm0 4.57-.79 1.83c1.12.48 2.24.8 3.32.8v-4c-.33 0-.89-.1-1.74-.47l-.79 1.84Zm2.53.63v2c1.4 0 2.69-.5 3.68-1.52l-1.44-1.4L21 32.4c-.18.19-.39.3-.8.3v2Zm2.24-.91 1.45 1.38a5.23 5.23 0 0 0 1.43-3.7h-4c0 .47-.13.73-.32.94l1.44 1.38Zm.88-2.32h2a5.6 5.6 0 0 0-1.14-3.55l-1.58 1.24-1.57 1.24c.15.18.3.5.3 1.07h2Zm-.72-2.31 1.57-1.25a4.42 4.42 0 0 0-3.56-1.7v4c.24 0 .32.06.43.2l1.56-1.25Zm13.26 7.48 1.41-1.4-1-1.01-1.27.61.86 1.8Zm-1.74.71-.6-1.9h-.02l.62 1.9Zm-5.17-1.13-1.46 1.36 1.46-1.36Zm.63-8.58 1.38 1.45-1.38-1.45Zm6.94-1.26-.8 1.83.8-1.83Zm1.37 2.3-1.52-1.3-.3.35-.12.46 1.94.48Zm-.17 1.08-2-.2v.03l2 .17Zm.24 4.47-1.9.61v.02l1.9-.63Zm.49 1.12-1.82.82 1.82-.82Zm-.02 2-1.3-1.53-.01.01 1.3 1.51Zm-3.62-7.78-1.99-.24v.04l1.99.2Zm.15-1 1.97.34.26-1.46-1.34-.67-.9 1.79Zm-.39-.15-.63 1.9.07.02.08.02.48-1.94Zm-2.83 1.1 1.44 1.38-1.44-1.39Zm-.58 4.8-1.64 1.16 1.64-1.16Zm2.8.5.68 1.89h.02l-.7-1.88Zm1.13-.65 1.26 1.55.86-.7-.14-1.1-1.98.25Zm2.34 3.55v-2c.27 0 .44.07.49.09.05.02.06.03 0-.01a5.1 5.1 0 0 1-.65-.57l-1.41 1.41-1.41 1.42c.4.4.8.76 1.2 1.04.34.23.98.62 1.78.62v-2Zm-1.57-1.08-.86-1.8c-.6.29-1.1.48-1.48.6l.6 1.91.6 1.91c.62-.2 1.29-.47 2-.81l-.86-1.8Zm-1.74.71-.62-1.9c-.4.13-.6.15-.66.15v4c.64 0 1.3-.15 1.9-.35l-.62-1.9Zm-1.28.25v-2c-1.38 0-2.06-.36-2.43-.75l-1.46 1.37-1.46 1.36c1.37 1.46 3.28 2.02 5.35 2.02v-2Zm-3.89-1.38 1.47-1.37c-.39-.41-.76-1.22-.76-2.78h-4c0 2.12.5 4.07 1.83 5.5l1.46-1.35Zm-1.29-4.15h2c0-1.17.4-2.13 1.3-2.98l-1.38-1.45-1.39-1.44a7.91 7.91 0 0 0-2.53 5.87h2Zm1.92-4.43 1.39 1.44a4.36 4.36 0 0 1 3.18-1.28v-4c-2.3 0-4.32.81-5.96 2.4l1.39 1.44Zm4.57-1.84v2c.32 0 .83.09 1.57.41l.8-1.83.79-1.84a8.06 8.06 0 0 0-3.16-.74v2Zm2.37.58-.8 1.83a3.43 3.43 0 0 1 .6.33s-.05-.04-.1-.14a.96.96 0 0 1-.08-.4h4c0-1.96-1.7-2.97-2.83-3.46l-.8 1.84Zm1.62 1.62h-2a.95.95 0 0 1 .23-.62l1.52 1.3 1.52 1.3c.48-.57.73-1.26.73-1.98h-2Zm-.25.67-1.94-.48c-.1.41-.17.88-.22 1.37l1.99.2 1.99.2c.04-.39.08-.64.12-.8l-1.94-.49Zm-.17 1.09-2-.17c-.04.5-.05 1.07-.05 1.68h4c0-.54.01-.99.04-1.34l-2-.17Zm-.05 1.51h-2c0 1.4.09 2.65.38 3.57l1.9-.61 1.9-.61c-.08-.29-.19-1-.19-2.35h-2Zm.29 2.96-1.9.63.2.5.37.81 1.82-.82 1.82-.83a106.8 106.8 0 0 1-.45-1l.03.08-1.9.63Zm.49 1.12-1.82.82.28.64.03.08a1.1 1.1 0 0 1-.05-.22l-.02-.27h4c0-.38-.11-.7-.12-.73a19.88 19.88 0 0 0-.48-1.16l-1.82.84Zm.42 1.05h-2c0-.08.01-.2.08-.33a.75.75 0 0 1 .18-.25l1.3 1.52 1.3 1.52a3.19 3.19 0 0 0 1.14-2.46h-2Zm-.44.94-1.32-1.5a.5.5 0 0 1 .15-.09.5.5 0 0 1 .17-.03v4c.86 0 1.66-.3 2.31-.87l-1.31-1.5Zm-3.67-6.99h2c0-.15.01-.34.04-.59l-2-.2-1.98-.19c-.04.34-.06.67-.06.98h2Zm.05-.78 1.98.23.14-.89-1.97-.34-1.97-.35c-.07.4-.13.76-.17 1.1l1.99.25Zm.15-1 .9-1.8a3.9 3.9 0 0 0-.8-.3l-.49 1.95-.48 1.94a.64.64 0 0 1-.06-.02l.03.02.9-1.8Zm-.39-.15.63-1.9a2.89 2.89 0 0 0-.9-.16v4a1.32 1.32 0 0 1-.36-.05l.63-1.9Zm-.28-.06v-2c-1.57 0-2.93.65-4 1.77l1.45 1.38 1.44 1.38c.4-.4.74-.53 1.11-.53v-2Zm-2.55 1.15-1.45-1.38a5.7 5.7 0 0 0-1.65 4.02h4c0-.45.14-.84.54-1.25l-1.44-1.39Zm-1.1 2.64h-2c0 1.15.2 2.35.88 3.33l1.64-1.16 1.63-1.15c0 .01-.03-.04-.08-.22a3.54 3.54 0 0 1-.07-.8h-2Zm.52 2.17-1.63 1.17a3.77 3.77 0 0 0 3.17 1.55v-4c-.11 0-.11-.02-.06.01a.4.4 0 0 1 .14.11l-1.62 1.16Zm1.54.72v2c.67 0 1.32-.1 1.94-.33l-.68-1.88-.68-1.88c-.17.06-.35.1-.58.1v2Zm1.26-.21.7 1.87a6 6 0 0 0 1.7-.98l-1.27-1.55-1.27-1.55a2 2 0 0 1-.56.34l.7 1.87Zm1.13-.66 1.98-.25c-.21-1.68-.3-2.86-.3-3.57h-4c0 .98.12 2.35.33 4.07l1.99-.25Zm14.3-4.9-2-.13 2 .12Zm-2.85.24h2v-.1l-2 .1Zm-.06-1.08 2-.1-.1-2.23-2.21.35.31 1.98Zm-3.45 2.48-1.8-.9-.2.43v.47h2Zm0 5.4h2-2Zm-.41 1.01-1.38-1.45v.01h-.02l1.4 1.44Zm-2.1-.02 1.53-1.3-.02-.01-.01-.02-1.5 1.33Zm-.32-9.01 2 .06-2-.06Zm.38-2-1.5-1.33 1.5 1.33Zm2.45.82-1.97.36.58 3.16 2.58-1.92-1.2-1.6Zm6.35 2.15-2-.11c-.01.3-.07.2.1 0 .1-.1.2-.17.31-.21.1-.04.14-.03.1-.03v4c.88 0 1.83-.27 2.55-1.07.68-.74.9-1.67.94-2.46l-2-.12ZM47.9 30.9v-2c-.13 0 .14-.03.42.26.27.27.23.51.23.34h-4c0 .76.18 1.7.9 2.44.73.75 1.68.96 2.45.96v-2Zm-1.35-1.4 2-.1-.06-1.08-2 .1-2 .1.06 1.08 2-.1Zm-.06-1.08-.31-1.98a6.4 6.4 0 0 0-4.94 3.57l1.8.89 1.79.89c.39-.79.97-1.24 1.98-1.4l-.32-1.97Zm-3.45 2.48h-2v5.4h4v-5.4h-2Zm0 5.4h-2a.7.7 0 0 1 .2-.44l1.39 1.45 1.37 1.45a3.33 3.33 0 0 0 1.05-2.46h-2Zm-.41 1.01-1.4-1.43c.05-.05.12-.1.2-.13.08-.03.14-.03.13-.03v4c.9 0 1.77-.3 2.46-.98l-1.4-1.43Zm-1.07.41v-2s.07 0 .18.05c.12.05.24.13.32.22l-1.53 1.3-1.52 1.3c.7.81 1.64 1.13 2.55 1.13v-2Zm-1.03-.43 1.5-1.33c.06.07.1.15.13.23l.03.11h-4c0 .8.24 1.64.85 2.32l1.5-1.33Zm-.34-.99h2v-7.03h-4v7.03h2Zm0-7.03h2c0-.2 0-.5.02-.93l-2-.06-2-.07-.02 1.06h2Zm.02-1 2 .07.02-1.06h-4c0 .19 0 .5-.02.93l2 .07Zm.02-1h2l-.02.13a.66.66 0 0 1-.13.21l-1.5-1.33-1.49-1.33c-.6.68-.86 1.5-.86 2.33h2Zm.36-1 1.49 1.34c-.1.1-.2.18-.32.22-.1.04-.16.04-.14.04v-4a3.3 3.3 0 0 0-2.52 1.08l1.49 1.33Zm1.03-.4v2c.05 0-.14 0-.36-.18-.2-.18-.21-.34-.2-.23l1.98-.36 1.96-.37a3.52 3.52 0 0 0-1.12-2.07 3.4 3.4 0 0 0-2.26-.79v2Zm1.42 1.23 1.2 1.6a4.9 4.9 0 0 1 3.02-1.02v-4a8.9 8.9 0 0 0-5.42 1.81l1.2 1.6Zm4.22-1.42v2c.14 0 .16.02.13 0a.33.33 0 0 1-.12-.09c-.01-.02.02.02.06.18.04.16.08.4.08.77h4a5.5 5.5 0 0 0-.94-3.35 3.88 3.88 0 0 0-3.21-1.51v2Zm2.15 2.86h-2a29.23 29.23 0 0 1-.01.54v.05l2 .12 2 .13v-.84h-2Zm9.3 8.08-1.76.95 1.76-.95Zm-1.58-2.3-1.57 1.23 1.57-1.24Zm-1.73-2.2 1.6-1.2-1.2-1.6-1.59 1.18 1.19 1.61Zm-1.42.96-1.02-1.72-.9.54-.07 1.04 2 .14ZM51 33.04l-2-.16v.02l2 .14Zm.17-6.1-2-.06v.01l2 .04Zm0-4.64-2 .14v.04l2-.18Zm.37-2.11 1.38 1.45v-.01h.02l-1.4-1.44Zm2.13 0-1.4 1.43.01.01h.01l1.38-1.44Zm.46 6.28 2 .08-2-.08Zm-.05 2.99-2 .02.03 4.02 3.2-2.46-1.23-1.58Zm4.45-4.1 1.4 1.41h.01l-1.41-1.41Zm2.13-.04-1.38 1.45 1.38-1.45Zm.05 1.98-1.49-1.34 1.49 1.34Zm-3.02 2.96-1.33-1.5-1.4 1.25 1.15 1.48 1.58-1.23Zm2.23 2.88 1.6-1.2v-.01l-.02-.01-1.58 1.22Zm1.15 3.88-1.3-1.51h-.02v.01l1.32 1.5Zm-1.07.42v-2c.05 0 .18.02.32.1.13.09.17.17.15.13l-1.76.95-1.76.95a3.36 3.36 0 0 0 3.05 1.87v-2Zm-1.3-.82 1.77-.94c-.43-.8-1.03-1.67-1.77-2.6l-1.57 1.23-1.57 1.24c.66.84 1.11 1.51 1.39 2.02l1.76-.95Zm-1.57-2.3 1.57-1.24a1709.07 1709.07 0 0 1-1.67-2.13l-.03-.04-1.6 1.2-1.6 1.2 1.76 2.24 1.57-1.24Zm-1.73-2.2L54.2 30.5c-.55.4-.96.69-1.25.86l1.02 1.72L55 34.8c.45-.27.98-.64 1.58-1.08l-1.19-1.6Zm-1.42.96-2-.14a41.89 41.89 0 0 0-.1 3h4c0-.86.03-1.77.1-2.72l-2-.14Zm-.1 2.86h-2c0-.02 0-.1.04-.19.04-.1.1-.17.14-.21l1.4 1.43 1.4 1.43a3.38 3.38 0 0 0 1.01-2.46h-2Zm-.42 1.03-1.4-1.43c.05-.05.12-.1.2-.13.08-.03.13-.03.13-.03v4c.9 0 1.77-.3 2.46-.98l-1.4-1.43Zm-1.07.4v-2c-.06 0-.02 0 .08.03.1.05.22.13.32.24.09.1.1.19.1.18l-.01-.25h-4c0 .83.16 1.83.84 2.64a3.39 3.39 0 0 0 2.67 1.17v-2Zm-1.51-1.8h2c0-.5.03-1.28.11-2.4l-2-.13L49 32.9a41.41 41.41 0 0 0-.12 2.67h2Zm.12-2.53 1.99.15c.09-1.14.13-2.06.13-2.7h-4c0 .49-.03 1.27-.12 2.4l2 .15Zm.12-2.55h2c0-1.02.02-2.2.05-3.51l-2-.05-2-.04a169.1 169.1 0 0 0-.05 3.6h2Zm.05-3.56 2 .06c.03-1.35.05-2.55.05-3.6h-4c0 1-.02 2.16-.05 3.5l2 .04Zm.05-3.54h2c0-.38-.02-.8-.06-1.26l-2 .17-1.99.18c.04.37.05.68.05.91h2Zm-.05-1.09 2-.13c-.03-.4-.05-.71-.05-.96h-4c0 .37.02.78.05 1.23l2-.14Zm-.05-1.1h2c0 .03 0 .1-.04.2a.7.7 0 0 1-.16.24l-1.38-1.45-1.37-1.45a3.34 3.34 0 0 0-1.05 2.47h2Zm.42-1.01 1.4 1.43a.61.61 0 0 1-.2.13c-.08.03-.14.03-.13.03v-4c-.9 0-1.77.3-2.46.98l1.4 1.43Zm1.07-.41v2s-.05 0-.13-.03a.61.61 0 0 1-.2-.13l1.39-1.43 1.4-1.43a3.46 3.46 0 0 0-2.46-.98v2Zm1.06.4-1.38 1.46a.7.7 0 0 1-.2-.43h4c0-.92-.33-1.8-1.04-2.47l-1.38 1.45Zm.42 1.03h-2c0 .39.02.82.06 1.28l2-.16 1.99-.17c-.04-.4-.05-.7-.05-.95h-2Zm.05 1.12-1.99.16c.03.4.05.71.05.95h4c0-.38-.03-.81-.06-1.28l-2 .17Zm.06 1.11h-2c0 .82-.02 1.8-.07 2.96l2 .07 2 .08c.04-1.19.07-2.22.07-3.1h-2Zm-.07 3.03-2-.07a66.93 66.93 0 0 0-.05 3.08l2-.02 2-.02c0-.83 0-1.8.05-2.9l-2-.07Zm-.05 2.99 1.22 1.58a56.07 56.07 0 0 0 4.64-4.27l-1.41-1.41-1.42-1.42a52.91 52.91 0 0 1-4.25 3.94l1.22 1.58Zm4.45-4.1 1.41 1.41s-.03.03-.1.06a.6.6 0 0 1-.24.05v-4c-1 0-1.84.42-2.49 1.06l1.42 1.42Zm1.07-.48v2a.54.54 0 0 1-.32-.1l1.38-1.46 1.38-1.44a3.5 3.5 0 0 0-2.44-1v2Zm1.06.44-1.38 1.45a.5.5 0 0 1-.1-.15.7.7 0 0 1-.05-.28h4c0-.99-.43-1.84-1.09-2.46l-1.38 1.44Zm.47 1.02h-2a.8.8 0 0 1 .06-.31c.03-.08.06-.1.03-.07l1.49 1.34 1.48 1.34a3.4 3.4 0 0 0 .94-2.3h-2Zm-.42.96-1.5-1.33c-.78.87-1.73 1.8-2.85 2.8l1.33 1.5 1.32 1.5a38.2 38.2 0 0 0 3.19-3.14l-1.5-1.33Zm-3.02 2.96L56.1 31.5l2.23 2.88 1.58-1.23 1.58-1.22-2.23-2.88-1.58 1.22Zm2.23 2.88-1.6 1.2a15.44 15.44 0 0 1 1.25 1.94c.03.07-.03-.04-.03-.26h4c0-.8-.39-1.57-.66-2.06-.33-.59-.8-1.27-1.36-2.02l-1.6 1.2Zm1.62 2.88h-2a.75.75 0 0 1 .22-.51l1.31 1.51 1.3 1.52a3.27 3.27 0 0 0 1.17-2.52h-2Zm-.47 1-1.33-1.5.1-.05a.45.45 0 0 1 .16-.03v4c.91 0 1.74-.34 2.4-.92l-1.33-1.5Zm5.4-15.65-1.36 1.46.01.02 1.35-1.48Zm0 2.26-1.35-1.48-.01.01 1.36 1.47Zm-.23 10.3-2 .05V34l2-.06Zm-.38 3 1.38 1.45v-.01l.02-.01-1.4-1.44Zm-2.12 0-1.4 1.43.02.02 1.38-1.46Zm-.47-3-2 .05V34l2-.06Zm.6-7.78 1.38 1.45h.01l.01-.02-1.4-1.43Zm2.13 0-1.4 1.43.02.01v.01L66 26.15Zm-.7-2.06v-2l.07.02c.03 0 .05.02.06.03l.02.01-1.35 1.48-1.35 1.47c.7.65 1.59.99 2.54.99v-2Zm-1.2-.46 1.35-1.48c.01.01.06.06.1.15.04.08.05.16.05.2h-4c0 1.02.41 1.93 1.15 2.6l1.35-1.47Zm-.5-1.13h2c0 .04-.01.11-.05.2a.46.46 0 0 1-.1.15l-1.35-1.48-1.35-1.48a3.47 3.47 0 0 0-1.15 2.6h2Zm.5-1.13 1.35 1.48-.02.01a.34.34 0 0 1-.06.03l-.08.02v-4a3.7 3.7 0 0 0-2.54.98l1.35 1.48Zm1.2-.46v2l-.1-.02a.32.32 0 0 1-.1-.06l1.37-1.46 1.37-1.46c-.7-.66-1.6-1-2.55-1v2Zm1.17.46-1.35 1.48a.46.46 0 0 1-.1-.15.52.52 0 0 1-.04-.2h4c0-1.02-.42-1.93-1.16-2.6l-1.35 1.47Zm.51 1.13h-2c0-.04 0-.12.05-.2a.46.46 0 0 1 .1-.15l1.34 1.48 1.35 1.47a3.47 3.47 0 0 0 1.16-2.6h-2Zm-.5 1.13-1.37-1.47.1-.05.08-.02v4c.96 0 1.84-.34 2.55-1l-1.37-1.46Zm-.27 8.33h-2c0 .44 0 1.11.03 2.02l2-.05 2-.05-.03-1.92h-2Zm.03 1.97-2 .06c.03.9.04 1.53.04 1.9h4c0-.44-.01-1.12-.04-2.03l-2 .07Zm.04 1.96h-2c0-.02 0-.09.04-.18.04-.1.1-.17.15-.22l1.4 1.43 1.39 1.44a3.38 3.38 0 0 0 1.02-2.47h-2Zm-.42 1.03-1.37-1.45a.6.6 0 0 1 .2-.12l.1-.03v4c.89 0 1.75-.28 2.45-.94l-1.38-1.46Zm-1.06.4v-2s.04 0 .11.03a.6.6 0 0 1 .2.12l-1.37 1.45-1.38 1.46c.7.66 1.56.94 2.44.94v-2Zm-1.06-.4 1.4-1.43a.65.65 0 0 1 .18.4h-4c0 .92.33 1.8 1.02 2.47l1.4-1.44Zm-.42-1.03h2c0-.44-.02-1.12-.05-2.03l-2 .07-2 .06.05 1.9h2Zm-.05-1.96 2-.05-.03-1.92h-4l.03 2.02 2-.05Zm-.03-1.97h2c0-.57.03-1.31.1-2.24l-2-.15-1.99-.15c-.07.98-.1 1.84-.1 2.54h2Zm.1-2.4 2 .16c.08-1 .12-1.84.12-2.55h-4c0 .57-.04 1.32-.1 2.25l1.99.15Zm.12-2.39h2c0 .02 0 .1-.05.2a.7.7 0 0 1-.16.23l-1.37-1.45-1.38-1.45a3.34 3.34 0 0 0-1.04 2.47h2Zm.42-1.02 1.4 1.43a.61.61 0 0 1-.21.13c-.08.03-.13.03-.13.03v-4c-.9 0-1.77.3-2.46.98l1.4 1.43Zm1.06-.4v2s-.05 0-.13-.04a.61.61 0 0 1-.2-.13l1.4-1.43 1.39-1.43a3.46 3.46 0 0 0-2.46-.98v2Zm1.06.4-1.37 1.45a.7.7 0 0 1-.2-.43h4c0-.91-.34-1.8-1.05-2.47l-1.38 1.45Zm.42 1.02h-2c0 .57-.03 1.32-.1 2.25l2 .15 1.99.15c.07-1 .11-1.84.11-2.55h-2Zm-.1 2.4-2-.15c-.07.98-.11 1.84-.11 2.54h4c0-.57.03-1.31.1-2.24l-2-.15Z" mask="url(#b)"/><path fill="#fff" d="M14 62a8 8 0 0 1 8-8h9a8 8 0 0 1 8 8v9a8 8 0 0 1-8 8h-9a8 8 0 0 1-8-8v-9Z"/><path fill="#000" d="m28.78 54.56-.37.02a.6.6 0 0 0-.29.1l-.37.21-.38.21a2.6 2.6 0 0 1-1.21.36l-.38.02h-.37c-.3.01-.61 0-.92-.04l-.37-.05-.38-.05c-.27-.04-.54-.08-.81-.14l-.38-.08-.37-.07-.09-.03c-.15.16-.32.3-.54.37-.33.1-.64.08-.9.02l-.77-.18c-.07-.02-.11-.02-.15 0l-.36.15-.35.14c-.18.07-.37.16-.54.26l-.33.2-.34.2-.67.39-.35.2-.3.18-.07.39-.08.42c-.06.36-.17.7-.33 1.02l-.17.33-.17.33c-.07.15-.13.3-.17.47l-.19.72c-.08.3-.2.62-.34.92l-.19.36-.14.26.16.3.22.37c.23.43.33.92.22 1.43l-.08.38-.07.37c-.05.28-.12.56-.2.83l-.22.75.01.04.18.38.19.37c.27.56.23 1.17-.07 1.69l-.22.37-.16.25.15.26.21.38c.26.47.33 1 .17 1.53l-.11.4-.11.34.18.3.2.33c.21.33.35.7.42 1.07l.08.4.06.33.31.17.36.2.71.41.32.19.3.2c.38.22.66.53.88.88l.22.37.23.36.03.05.38.12.39.11c.14.05.28.07.43.06l.4-.01.39-.02c.3-.01.6 0 .9.03l.76.07c.02 0 .07 0 .16-.04l.38-.21.37-.2c.33-.19.7-.29 1.07-.28l.4.05.37.08.37.09c.16.03.31.05.47.04l.37-.02.38-.02c.2-.01.42-.04.63-.08l.75-.14c.51-.1 1 .02 1.43.27l.37.2.3.18.25-.12.36-.17c.42-.2.88-.27 1.34-.2l.39.05.4.06c.14.02.28.01.42-.02l.4-.09.32-.07.2-.36.2-.38c.16-.3.35-.59.56-.83l.23-.28.23-.28c.14-.16.26-.32.37-.48l.2-.3.6-.9.19-.31.2-.31c.1-.17.2-.34.28-.53l.16-.36.14-.33-.15-.37-.15-.38a3.4 3.4 0 0 1-.25-1.07l-.02-.38-.02-.37c-.03-.53.15-1 .42-1.39l.27-.37.23-.34-.1-.26-.12-.38a2.4 2.4 0 0 1-.08-1.27l.07-.38.08-.37v-.02c0-.01 0-.04-.03-.07l-.39-.75a2.7 2.7 0 0 1-.32-1.18l-.01-.73-.04-.68-.03-.36-.02-.35-.05-.74-.03-.39-.03-.39a2.74 2.74 0 0 0-.1-.56l-.12-.38-.1-.37-.36-.19-.36-.2c-.25-.13-.5-.26-.72-.4l-.32-.2-.32-.18c-.35-.2-.63-.49-.86-.81l-.25-.36-.11-.14-.2.04-.42.11c-.44.11-.9.12-1.34-.02l-.72-.24a29.1 29.1 0 0 0-.71-.21l-.38-.11-.37-.12c-.15-.04-.3-.06-.43-.06l-.38.01Zm-7.67-1.6c.04-.05.12-.15.25-.25.06-.04.2-.15.42-.2.27-.05.61 0 .88.26a1 1 0 0 1 .26.4h.03l.37.07c.23.05.46.08.69.11l.37.06.38.04c.2.03.39.04.58.03l.75-.01c.07 0 .16-.03.29-.1l.37-.21.38-.22a2.6 2.6 0 0 1 1.21-.36l.38-.01.37-.02c.37 0 .73.04 1.07.15l.38.1.37.12.76.24.35.11.36.12c.03.01.1.02.23-.02l.86-.21.46-.06a1.62 1.62 0 0 1 1.27.69l.25.34.26.35c.1.15.2.23.27.28l.32.19.32.2.63.34.36.2.37.2c.47.24.81.65.97 1.17l.1.39.11.39c.1.32.16.64.18.97l.03.39.03.38.05.74.03.36.03.36.04.76.01.74c0 .07.03.17.1.3l.39.75c.22.43.3.92.2 1.42l-.15.75c-.01.07 0 .14.02.22l.13.38.13.37c.2.6.06 1.19-.26 1.65l-.53.75a.5.5 0 0 0-.07.11v.01l.05.75c0 .13.04.28.1.45l.16.37.15.38c.2.49.2 1.02-.01 1.52l-.16.36-.15.35c-.13.28-.27.54-.43.8l-.2.32-.2.3-.42.63-.2.3-.2.3c-.15.24-.31.46-.5.67l-.23.28-.23.27c-.1.13-.22.29-.32.49l-.2.37-.2.39c-.26.5-.7.85-1.27.98l-.78.17c-.38.09-.76.1-1.15.05l-.4-.06-.4-.06c-.06 0-.12 0-.18.03l-.36.18-.37.17c-.56.26-1.15.21-1.66-.08l-.75-.44-.06-.02-.75.14c-.3.05-.59.08-.88.1l-.75.05c-.35.02-.7-.01-1.03-.09l-.75-.17-.05.02-.37.21-.38.2c-.4.23-.85.35-1.33.3l-.38-.04-.38-.04c-.2-.02-.41-.03-.63-.03l-.78.04a3.3 3.3 0 0 1-1.1-.14l-.76-.24c-.5-.15-.9-.48-1.16-.91l-.22-.37-.23-.37a.66.66 0 0 0-.2-.22l-.62-.38-.65-.37-.35-.2-.36-.2c-.5-.27-.83-.71-.94-1.28l-.07-.4-.08-.4a1.14 1.14 0 0 0-.15-.38l-.42-.67a1.85 1.85 0 0 1-.2-1.54l.12-.4.11-.38-.2-.37-.21-.38a1.71 1.71 0 0 1 0-1.73l.22-.38.18-.3-.14-.27-.18-.37a2.02 2.02 0 0 1-.13-1.46l.22-.75c.06-.23.12-.45.16-.67l.08-.38.07-.38-.02-.07-.2-.37-.22-.38a1.76 1.76 0 0 1-.03-1.67l.18-.36.19-.37c.1-.19.15-.37.2-.52l.09-.36.1-.36c.07-.3.18-.6.33-.89l.33-.65c.06-.12.12-.27.15-.46l.07-.43.08-.42.11-.39c.15-.37.42-.7.79-.91l.34-.2.36-.2.67-.4.32-.2.34-.2c.26-.15.54-.29.82-.4l.35-.14.36-.15c.44-.17.9-.2 1.35-.09l.4.1.08.02.16-.25.13-.19Z"/><path fill="#DE9E71" d="M113.82 98.47c-.1-.56-.3-1.09-.56-1.6-.22-.4-.4-.82-.55-1.24l-.1.4c-.28 1.14-.53 2.28-.76 3.44-.1.55-.17 1.1-.18 1.65l.03.1h2.56c-.12-.91-.27-1.83-.44-2.75Zm-.3-78.96c-.11-.4-.19-.78-.23-1.17l-1.04-.09a1.1 1.1 0 0 1-.37-.1 2.6 2.6 0 0 0-1.96-.16l-.7.24c-.66.26-1.3.56-1.93.9a.5.5 0 0 1-.47.01.32.32 0 0 0-.15-.03 1.1 1.1 0 0 0-.48.31 1.99 1.99 0 0 0-.31.45 6.56 6.56 0 0 1-.28 3.48c-.13.36-.36.66-.69.88a8.23 8.23 0 0 0-1.27 1.08c-.62.9-.97 1.9-1.04 2.99-.07 1.2-.68 1.94-1.83 2.22-.3.08-.6.06-.9-.03a1.52 1.52 0 0 0-.56-.07.49.49 0 0 1-.42-.18c-.2-.51-.5-.98-.88-1.39l-.97-.99c.08.38.06.76-.05 1.16a.16.16 0 0 1-.12.11c-.44.11-.66-.07-.66-.53a2.06 2.06 0 0 0-1.18-1.92 3.75 3.75 0 0 0-1.5-.34 3 3 0 0 0-1.01.48c-.04.03-.08.07-.1.11l-.15.16-.1.1a4.8 4.8 0 0 0-.64 1.82l-.01.36c.1.37.21.74.34 1.1.13.34.22.7.3 1.05a3.53 3.53 0 0 0 .08.35c.18.79.57 1.44 1.17 1.96s1.26.93 1.98 1.23l.8.32h.4c.14-.01.27-.03.4-.07.04-.01.09-.03.13-.06l.03-.02a.7.7 0 0 0 .05-.07.4.4 0 0 0 .05-.14 2.08 2.08 0 0 1 .05-.24 1.67 1.67 0 0 0-.04-.23.41.41 0 0 1 .12-.35c.1-.1.24-.15.39-.13.1.01.2.06.27.14.21.44.2.88-.05 1.33-.22.4-.57.64-1.04.7-.21.04-.42.04-.63.03a6.79 6.79 0 0 1-3-1.31 5.19 5.19 0 0 1-1.7-2.23 47.45 47.45 0 0 0-.28 2.2l-.1 1.16a.83.83 0 0 1-.15.37 3.31 3.31 0 0 1-2.62 1.52 1.68 1.68 0 0 1-.63-.18 7.35 7.35 0 0 1-.36-.2c.03.66 0 1.31-.13 1.97a3.66 3.66 0 0 1-.34.96c-.18.98-.43 1.94-.73 2.88a4.8 4.8 0 0 1-1.06 1.8 22.34 22.34 0 0 1-3.73 3.08 32.75 32.75 0 0 0-3 2.2l.04-.03a6.6 6.6 0 0 0-1.82 2.2l.46-.31c.88-.58 1.83-1 2.85-1.27a7.46 7.46 0 0 1 3.07-.15c.69-.08 1.37 0 2.06.22.3.1.6.19.91.25 1.11.25 2.15.67 3.1 1.28a18 18 0 0 1 2.56 1.96 6.96 6.96 0 0 1 1.75 2.49 9.7 9.7 0 0 1 .91 3.38c.12.77.08 1.52-.11 2.27a3 3 0 0 1-.26.65c-.38.73-.8 1.45-1.25 2.14-.47.72-1 1.4-1.6 2.07a7.55 7.55 0 0 1-.95.88h-.01c-.36.28-.73.53-1.14.74-.57.3-1.11.63-1.64 1-.72.5-1.43 1.03-2.11 1.59-.72.59-1.45 1.14-2.21 1.67-.6.42-1.15.89-1.66 1.4a3.1 3.1 0 0 1-.82.63c0 .03-.02.07-.04.1-.05.22-.22.32-.51.3a.38.38 0 0 0-.06-.02c-.84-.26-1.64-.6-2.41-1.02-.77-.43-1.5-.91-2.19-1.46-.7-.55-1.37-1.14-2.01-1.75l-.77-.69a13.3 13.3 0 0 1-2.58-3c-.27-.4-.5-.8-.72-1.2a15.88 15.88 0 0 1-.18 1.15 4.35 4.35 0 0 1-.12.6 29.93 29.93 0 0 0-.1 3.5c.15-.53.32-1.06.5-1.58.1-.3.2-.58.35-.84.05-.1.13-.14.24-.14.38.03.53.23.43.62-.2.79-.43 1.56-.7 2.33-.28.81-.5 1.64-.64 2.5-.16.93-.23 1.88-.19 2.82.04 1.05.11 2.1.21 3.13.12 1.23.32 2.47.62 3.74a16.74 16.74 0 0 1 .43 3.12l.1 1.56c.08 1.1.1 2.2.08 3.29a52.98 52.98 0 0 1-.4 5.4 2.03 2.03 0 0 0 .13.37c.24.53.48 1.04.74 1.54.1.2.16.4.18.61.15.22.29.46.42.7h13.6c.05-.07.11-.13.18-.19a8.37 8.37 0 0 1-.5-3.68c.07-.6.26-1.2.59-1.81a18.08 18.08 0 0 1 1.38-2.16c.6-.9 1.14-1.8 1.64-2.75a19.96 19.96 0 0 0 2.17-7.27 531.63 531.63 0 0 0 .27-2.16v-.04a6.21 6.21 0 0 1 .06-.37c.19-1.07.31-2.15.39-3.23.08-1.17.12-2.34.12-3.51 0-.72.05-1.44.15-2.15.02-.11.06-.2.13-.25.04-.16.17-.31.37-.45.22-.14.4-.32.58-.53a33.6 33.6 0 0 0 1.1-1.42c.44-.19.66-.04.67.43 0 .1-.03.2-.1.29-.36.5-.74.97-1.15 1.43-.25.27-.5.53-.78.77a282.2 282.2 0 0 1-.13 3.43 86.1 86.1 0 0 1-.21 3.26 21.72 21.72 0 0 1-.24 1.84 80.8 80.8 0 0 0-.41 3.33 20.23 20.23 0 0 1-1.94 6.47c-.5.98-1.04 1.94-1.64 2.86-.4.63-.82 1.26-1.25 1.88-.32.41-.56.87-.71 1.38a5.35 5.35 0 0 0-.2 1.9v-.02c.07.58.19 1.15.35 1.71a6.74 6.74 0 0 1 .2 1h24.67a.2.2 0 0 0 .02-.02v-.02l-.01-.08c.06-1.1.2-2.18.44-3.26.24-1.08.54-2.14.9-3.18.28-.77.54-1.54.79-2.31.04-.14.07-.29.08-.44.1-.97.06-1.94-.1-2.9a.9.9 0 0 1 .02-.34c.14-.53.25-1.07.35-1.62.06-.34.1-.68.1-1.03 0-.6 0-1.2-.02-1.8v.06l.01.03a17.86 17.86 0 0 0-.3-1.97l-.03-.03-.02-.04a.51.51 0 0 1-.02-.11 5.94 5.94 0 0 1-.92-.6c-.2-.16-.4-.32-.6-.5-.4-.32-.39-.6.03-.85.1-.05.18-.05.27.01.63.43 1.2.84 1.73 1.25a6.54 6.54 0 0 0 1.43-1.98c.21-.43.4-.88.54-1.33a6.27 6.27 0 0 0 .29-2.69 64.4 64.4 0 0 0-1.12-4.89c-.16-.55-.36-1.1-.61-1.62l-.71-1.52a44.96 44.96 0 0 0-1.23-2.5l-.02-.04v.02c-.19-.4-.42-.78-.68-1.13a32.7 32.7 0 0 1-.73-.98 1.48 1.48 0 0 1-.22-.48c-.31-.4-.65-.78-1.03-1.14a68.27 68.27 0 0 0-3.45-3.08c-.02 0-.03-.02-.05-.04a10.11 10.11 0 0 0-2.9-1.54c-.27-.1-.37-.27-.27-.51l-.02-.02a.55.55 0 0 1-.05-.07 3.76 3.76 0 0 1 .3-3.16 14.62 14.62 0 0 0 1.54-4.19l.16-.8c-.02-.47.03-.91.15-1.35a16.47 16.47 0 0 1-2.3-1.07.19.19 0 0 1-.1-.2c.02-.38.21-.52.58-.4l.44.16c1.2.53 2.45.94 3.73 1.23a111.36 111.36 0 0 1 2.13.49 7.62 7.62 0 0 0 .17.03c1.06.24 2.13.3 3.2.2.26-.04.49-.14.69-.32a2 2 0 0 0 .56-2.35 1.8 1.8 0 0 1-.1-.85c.09-.64.31-1.24.68-1.78.17-.25.3-.53.4-.83l.13-.3a.9.9 0 0 1-.04-.09l-.17-.02a5.9 5.9 0 0 0-.73-.05c-.25 0-.5 0-.74-.02-.27 0-.54-.03-.8-.09a2.67 2.67 0 0 1-1.05-.46.44.44 0 0 1-.12-.4c.03-.14.1-.25.24-.31a.46.46 0 0 1 .34-.03c.7.37 1.46.5 2.28.4.3-.05.56-.03.81.03.1-.22.2-.44.33-.66.1-.16.16-.34.19-.53.08-.56.19-1.13.32-1.68a.86.86 0 0 1 .08-.22 7.5 7.5 0 0 1-1.42.02h-.22a.8.8 0 0 1-.15.05.88.88 0 0 1-.1.02l-.05-.01-.06-.01a.44.44 0 0 1-.28-.25.44.44 0 0 1 0-.38l.1-.14c.21-.13.44-.2.69-.2.26.01.51.04.77.09.44-.05.89-.1 1.33-.13a7.3 7.3 0 0 0 1.26-.23l.05-.07.04-.07.03-.03a5.42 5.42 0 0 0 .14-.68 62.38 62.38 0 0 0-1.48-3.07c-.43-.84-.92-1.64-1.46-2.4a.93.93 0 0 1-.15-.33 1.2 1.2 0 0 1 .2-1.02 4.76 4.76 0 0 0 .28-.73l.02-.06a7.01 7.01 0 0 0-.01-.44c-.3-1.12-.63-2.24-.99-3.35-.36-1.12-.7-2.25-1-3.38Zm-4.66 51.13c.25.9.46 1.83.64 2.76a9.43 9.43 0 0 1-.2 4.44 5.8 5.8 0 0 1-1.7 2.68c-.41.38-.9.65-1.43.82a13.9 13.9 0 0 1-3.14.58 22.88 22.88 0 0 1-3.66-.7 15.02 15.02 0 0 1-3.47-1.48.44.44 0 0 1-.3-.16.4.4 0 0 1-.1-.4.46.46 0 0 1 .24-.3l.05-.02c.53.07 1.04.25 1.53.54.97.59 2.02.98 3.14 1.17.31.06.62.12.92.2a6.94 6.94 0 0 0 5.02-.52 3.59 3.59 0 0 0 1.84-2.05 9.43 9.43 0 0 0 .46-4.14c-.1-.88-.28-1.74-.52-2.6-.33-1.14-.7-2.2-1.1-3.2a2.42 2.42 0 0 0-.27-.48c-.08-.43.1-.62.52-.58.12 0 .2.06.26.17.54 1.04.96 2.13 1.27 3.27Zm-16.6-4.32v.01h-.02.01Zm1.42-36.77c.02-.38.2-.54.56-.47.2.04.32.16.33.37a1.07 1.07 0 0 1-.05.22c.06.6.21 1.2.46 1.8l.62 1.5a.7.7 0 0 1 .05.35.53.53 0 0 1-.2.28.42.42 0 0 1-.14.05.7.7 0 0 1-.22 0c-.29-.23-.5-.55-.61-.96a10 10 0 0 0-.44-1.2 4.22 4.22 0 0 1-.36-1.94Zm19.98-.7a.51.51 0 0 1-.05.17l-.02.03c-.05.46-.26.85-.64 1.17-.41.35-.9.57-1.44.65-.3.05-.61.07-.92.05a6.43 6.43 0 0 1-2.22-.46 1.54 1.54 0 0 1-1.02-1.2.33.33 0 0 1 0-.15.4.4 0 0 1-.1-.22c.14-.55.45-1.01.92-1.39a4.26 4.26 0 0 1 3.13-.92c.68.06 1.24.35 1.68.87a3 3 0 0 1 .53.88c.06.13.1.26.14.39.01.04.02.09.01.13Zm-1.56-3.06a3.35 3.35 0 0 0-2.4.24c-.24.12-.48.22-.73.32-.9.33-1.63.86-2.22 1.57-.17.2-.38.25-.63.14a.44.44 0 0 1-.21-.32c.14-.53.46-.96.97-1.27a16.9 16.9 0 0 1 3.05-1.47 3.7 3.7 0 0 1 2.87.12c.7.33 1.27.8 1.7 1.4.04.06.04.12.01.18-.19.37-.44.42-.75.15l-.32-.25.03.03-.05-.04v-.01a5.39 5.39 0 0 0-1.32-.8Zm-8.85 50.9c.3.03.43.2.4.49-.03.29-.18.43-.47.44a.4.4 0 0 1-.07-.01c-.35-.18-.4-.43-.19-.76a.33.33 0 0 1 .33-.15Z"/><path fill="#000" d="M91.98 71.21a.85.85 0 0 0-.37.45.38.38 0 0 0-.12.25c-.1.71-.16 1.43-.16 2.15 0 1.17-.04 2.34-.12 3.5a33.28 33.28 0 0 1-.45 3.69l-.06.44a531.63 531.63 0 0 1-.41 3.3 21.1 21.1 0 0 1-1.97 5.65 31.2 31.2 0 0 1-2.06 3.33c-.35.51-.67 1.04-.96 1.58a4.89 4.89 0 0 0-.62 2.26 8.38 8.38 0 0 0 .53 3.23c-.07.06-.13.12-.18.19h1.09v-.08c-.05-.31-.11-.62-.2-.93a11.25 11.25 0 0 1-.34-1.69 5.35 5.35 0 0 1 .19-1.9c.15-.5.39-.97.71-1.38.43-.62.84-1.25 1.25-1.88a30.3 30.3 0 0 0 1.64-2.86c.5-1.01.92-2.07 1.25-3.15.35-1.13.58-2.23.69-3.32a80.98 80.98 0 0 1 .41-3.28c.1-.63.19-1.26.24-1.9.09-1.08.16-2.16.21-3.25.05-1.14.1-2.28.13-3.43.27-.24.53-.5.78-.77.4-.46.8-.93 1.16-1.43.06-.09.1-.18.1-.29-.02-.47-.24-.62-.68-.43l-.15.17c-.3.42-.62.84-.95 1.25-.17.21-.36.39-.58.53ZM91.2 84.8v.05a2.18 2.18 0 0 1 0-.05Zm-.87-.13v-.04.05Zm-4.73 12.7Zm18.04-20.18c.03-.3-.1-.46-.4-.48a.33.33 0 0 0-.33.15c-.22.33-.16.58.19.76a.4.4 0 0 0 .07 0c.29 0 .44-.14.47-.43Zm8.4-51.42.05.03a6.8 6.8 0 0 1 1.32.79l.05.05-.03-.03.32.25c.31.27.56.22.75-.15.03-.06.03-.12 0-.17a4.3 4.3 0 0 0-2.53-1.69 3.7 3.7 0 0 0-2.05.16c-1.06.38-2.08.88-3.05 1.47-.5.31-.83.74-.97 1.27l.01.06a.42.42 0 0 0 .2.26c.25.11.46.07.63-.14a5.21 5.21 0 0 1 2.22-1.57c.25-.1.5-.2.73-.32a3.35 3.35 0 0 1 2.35-.27Zm1.58 3.22a.47.47 0 0 0 .02-.26 4.72 4.72 0 0 0-.14-.39 3 3 0 0 0-.53-.88c-.44-.52-1-.81-1.68-.87-1.17-.11-2.21.2-3.13.92-.47.38-.78.84-.92 1.39a.4.4 0 0 0 .1.22.31.31 0 0 0 0 .15c.1.57.45.97 1.02 1.2a6.43 6.43 0 0 0 3.14.41c.55-.08 1.03-.3 1.44-.65.38-.32.59-.7.64-1.17l.02-.03.02-.04Zm-.93-.3.06.16-.03.07c0 .05-.02.09-.03.13l-.05.15-.03.04-.02.04-.02.04-.03.04-.03.03a4.23 4.23 0 0 0-.14.13l-.06.07-.07.08-.3.16v-.1c.05-.36.07-.73.06-1.1 0-.34-.07-.67-.21-.97.34.18.63.47.86.88 0 .05.02.1.04.15Zm-1.88-1.24c-.06.09-.11.2-.14.3a3.7 3.7 0 0 0 .03 2.3l-1-.06a2.18 2.18 0 0 1-1.52-.76.8.8 0 0 0-.1-.23l.2-.23a3.24 3.24 0 0 1 2.53-1.32Zm-16.58 1.64c-.36-.07-.54.1-.56.47-.03.67.09 1.31.36 1.94.17.39.32.79.44 1.2.12.4.32.73.61.96a.7.7 0 0 0 .22 0 .42.42 0 0 0 .18-.08.54.54 0 0 0 .16-.25.7.7 0 0 0-.05-.36l-.62-1.5a6.28 6.28 0 0 1-.46-1.8.78.78 0 0 0 .05-.2c-.01-.22-.12-.34-.33-.38Zm.97 3.7h.02-.02Zm-2.96 33.55c.01 0 .01-.01 0 0Zm17.25 7.07c-.18-.93-.4-1.85-.64-2.76a16.1 16.1 0 0 0-1.27-3.27.3.3 0 0 0-.26-.17c-.43-.04-.6.15-.52.58.1.15.2.31.27.49.4.98.77 2.05 1.1 3.2.24.85.42 1.71.52 2.59a9.4 9.4 0 0 1-.46 4.14 3.58 3.58 0 0 1-1.84 2.05 6.94 6.94 0 0 1-5.01.52c-.31-.08-.62-.14-.93-.2a9.08 9.08 0 0 1-3.14-1.17c-.5-.29-1-.47-1.53-.54a.54.54 0 0 0-.05.02.46.46 0 0 0-.23.3.4.4 0 0 0 .09.4c.08.1.18.15.3.16.18.08.35.17.51.26a15.02 15.02 0 0 0 3.4 1.34c1.06.27 2.14.47 3.22.58 1.07-.07 2.11-.26 3.14-.58a3.81 3.81 0 0 0 1.44-.82 5.8 5.8 0 0 0 1.69-2.68 9.18 9.18 0 0 0 .2-4.44Zm2.72-60.65a9.71 9.71 0 0 1-.92-.42 4.21 4.21 0 0 0-1.46-.44 51.1 51.1 0 0 1-3.13-.46 8.06 8.06 0 0 0-.8-.1c-1.16-.09-2.3-.21-3.43-.37a24.48 24.48 0 0 0-3.26-.25c-1.1 0-2.2.12-3.28.36-1.15.27-2.29.55-3.43.85l-.47.06-1.56.22a7.01 7.01 0 0 0-2.01.62c-1 .4-1.81 1.03-2.46 1.88-.17.22-.34.43-.53.63a7.93 7.93 0 0 0-1.78 3l-.16.41a14.03 14.03 0 0 0-.91 4.74 12 12 0 0 0 .62 4.08 37.5 37.5 0 0 0 1.1 2.9l.02.02.02.04v.01l.01.04.01.02a.88.88 0 0 0-.04-.1c.12.31.24.6.4.89.5.96.89 1.97 1.17 3.03l.23.8a8.76 8.76 0 0 1 .35 3.53v.03a.8.8 0 0 0 0 .06l-.03.18a4.65 4.65 0 0 1-.17.83 88.4 88.4 0 0 0-.75 2.9c-.04.2-.11.38-.2.55a8.88 8.88 0 0 1-2.56 2.96l-2.66 1.87c-.47.32-.92.65-1.38 1-.9.66-1.68 1.43-2.36 2.3-.51.67-.85 1.4-1.01 2.2a25.6 25.6 0 0 0-.73.6 6.3 6.3 0 0 1-.87.68c-.84.55-1.6 1.2-2.26 1.93a7.23 7.23 0 0 0-1.54 2.7 57.59 57.59 0 0 0-.92 3.25c-.11.43-.2.86-.26 1.3a158.58 158.58 0 0 1-.66 4.35l-.01.06a21.4 21.4 0 0 0 .15 5.7v.05l.01.06.02.05a1.26 1.26 0 0 1 .03.06c-.1.57-.2 1.14-.26 1.71a14.4 14.4 0 0 0-.02 3.19c.11 1.06.25 2.12.42 3.17a117.65 117.65 0 0 0 .61 3.5 57.75 57.75 0 0 1 .2 1.9 41.31 41.31 0 0 1-.2 9.8c-.02.1-.01.2 0 .28.24.89.56 1.74.96 2.56 0 .1.06.23.16.37l.11.22.05.12h1.04a7.12 7.12 0 0 0-.42-.7 1.6 1.6 0 0 0-.18-.61c-.26-.5-.5-1.02-.73-1.53l-.01-.01v-.02l-.02-.04c-.05-.1-.08-.2-.1-.3l.19-1.94c.1-1.16.17-2.31.2-3.47.03-1.1 0-2.2-.07-3.29l-.11-1.56a16.74 16.74 0 0 0-.43-3.12c-.3-1.27-.5-2.51-.62-3.74-.1-1.04-.17-2.08-.2-3.13-.04-.94.02-1.89.18-2.83.15-.85.36-1.68.65-2.5.26-.76.5-1.53.7-2.32.09-.39-.06-.6-.44-.62-.11 0-.2.04-.24.14-.14.26-.26.54-.36.84-.17.52-.34 1.05-.49 1.58a29.94 29.94 0 0 1 .14-3.66 4.35 4.35 0 0 0 .13-.82c.05-.26.1-.52.13-.78a14.44 14.44 0 0 0 1.48 2.27c.54.7 1.15 1.36 1.82 1.94l.77.7c.64.6 1.31 1.19 2.01 1.74.7.55 1.42 1.03 2.2 1.46a12.19 12.19 0 0 0 2.46 1.04c.3.02.46-.08.51-.3a.27.27 0 0 0 .04-.1c.3-.16.57-.36.83-.62.5-.52 1.05-1 1.65-1.4.76-.54 1.5-1.1 2.2-1.68.7-.56 1.4-1.1 2.12-1.6.53-.36 1.08-.7 1.64-.99.4-.21.78-.46 1.14-.73v-.01h.01l.01-.01c.34-.26.65-.55.94-.87.6-.66 1.13-1.35 1.6-2.07.45-.7.87-1.4 1.25-2.14a3 3 0 0 0 .26-.65c.2-.75.23-1.5.11-2.27a.44.44 0 0 0-.05-.16l-.02-.18a8.77 8.77 0 0 0-.84-3.02c-.4-.97-.98-1.8-1.75-2.51a18 18 0 0 0-2.55-1.96c-.96-.61-2-1.03-3.1-1.28a8.75 8.75 0 0 1-.92-.25 4.74 4.74 0 0 0-2.13-.23 7.46 7.46 0 0 0-3 .16 9.72 9.72 0 0 0-3.31 1.57l.28-.48c.4-.66.92-1.22 1.54-1.7a22.43 22.43 0 0 0 .3-.24c.85-.7 1.74-1.34 2.67-1.95a22.35 22.35 0 0 0 3.73-3.07 4.8 4.8 0 0 0 1.05-1.8c.3-.94.55-1.9.74-2.88a3.66 3.66 0 0 0 .34-.96c.11-.66.15-1.31.12-1.96l.36.19c.2.1.4.16.63.18a3.31 3.31 0 0 0 2.62-1.52.83.83 0 0 0 .15-.37c.04-.38.08-.77.1-1.15 0-.22.03-.43.05-.65l.23-1.56.14.31c.36.76.88 1.4 1.56 1.92.9.68 1.9 1.12 3 1.31.21.01.42 0 .63-.02.47-.07.82-.3 1.04-.71.25-.45.26-.9.05-1.33a.44.44 0 0 0-.27-.14.43.43 0 0 0-.4.13c-.09.1-.12.22-.11.35a2.48 2.48 0 0 1 .04.23c0 .03 0 .06-.02.1l-.03.14a.4.4 0 0 1-.08.17l-.02.04-.03.02a.58.58 0 0 1-.14.06 3.52 3.52 0 0 1-.78.07c-.27-.1-.54-.2-.8-.32-.73-.3-1.4-.7-1.99-1.23a3.64 3.64 0 0 1-1.25-2.3 7.44 7.44 0 0 0-.3-1.06c-.13-.36-.24-.73-.34-1.1l.01-.36a4.8 4.8 0 0 1 .63-1.82 6.74 6.74 0 0 1 .25-.26l.1-.11a8.06 8.06 0 0 1 .6-.33 3 3 0 0 1 .42-.15c.52 0 1.02.12 1.5.34.12.05.22.12.32.2.57.42.86 1 .86 1.72 0 .46.22.64.66.53.06-.01.1-.05.12-.11.11-.4.13-.78.05-1.16l.97 1c.38.4.68.87.88 1.38.11.13.25.19.42.18.2-.01.38 0 .56.07.3.1.6.1.9.03 1.15-.28 1.76-1.02 1.83-2.22a5.78 5.78 0 0 1 1.22-3.2c.33-.31.7-.6 1.1-.87.32-.22.55-.52.68-.88a6.55 6.55 0 0 0 .29-3.5c.08-.16.18-.3.3-.43.13-.15.3-.25.48-.31.06 0 .1 0 .15.03a.5.5 0 0 0 .47-.01 17.83 17.83 0 0 1 2.63-1.14 2.6 2.6 0 0 1 1.96.16c.12.06.24.1.37.1l1.04.09c.04.39.12.78.22 1.17.32 1.13.65 2.26 1.01 3.38.36 1.1.69 2.23 1 3.35a18.76 18.76 0 0 1 0 .44l-.02.06a14.13 14.13 0 0 1-.27.73c-.23.3-.3.64-.2 1.02.02.12.07.23.14.33.54.76 1.03 1.56 1.46 2.4a62.36 62.36 0 0 1 1.48 3.07 11.99 11.99 0 0 1-.17.71l-.04.07-.05.07-.2.07c-.35.08-.7.13-1.06.16l-1.33.13c-.26-.05-.51-.08-.77-.08-.25 0-.48.06-.68.2a.44.44 0 0 0-.1.51c.05.13.14.2.28.25l.05.01h.06a.83.83 0 0 0 .24-.06h.22a13.91 13.91 0 0 0 1.42-.02.83.83 0 0 0-.08.22c-.14.55-.24 1.12-.32 1.68-.03.2-.09.37-.19.53-.12.22-.23.44-.32.66a2.05 2.05 0 0 0-.82-.04 3.63 3.63 0 0 1-2.28-.4.46.46 0 0 0-.34.04.42.42 0 0 0-.24.31c-.03.15.02.28.12.4l.27.18c.25.13.5.23.78.28.26.06.53.09.8.1l.74.01a5.9 5.9 0 0 1 .9.06v.01a.9.9 0 0 0 .04.09c-.05.1-.1.2-.13.3-.1.3-.23.58-.4.83a4.03 4.03 0 0 0-.67 1.78c-.04.3 0 .58.1.85a2 2 0 0 1-.57 2.35c-.2.18-.43.28-.7.31a9.77 9.77 0 0 1-3.44-.23 67.55 67.55 0 0 1-2.05-.48c-1.28-.3-2.52-.7-3.73-1.23a4.45 4.45 0 0 0-.44-.16c-.37-.12-.56.02-.58.4 0 .1.02.16.1.2a16.4 16.4 0 0 0 2.3 1.06v.01c-.12.44-.17.88-.15 1.35l-.16.8a14.51 14.51 0 0 1-1.54 4.19c-.56 1-.66 2.06-.3 3.16l.05.07c.01 0 .02 0 .02.02-.1.24 0 .41.28.5 1.05.37 2 .88 2.89 1.55l.05.04a9.88 9.88 0 0 1 4.48 4.22l.02.1c.05.13.12.26.2.38.24.34.48.67.73.98.26.35.5.72.69 1.13l-.01-.02.02.04.07.15.02.05a45 45 0 0 1 1.14 2.3l.71 1.52a10.32 10.32 0 0 1 .83 2.44 64.38 64.38 0 0 1 .9 4.07l.04.27c.05.82-.06 1.62-.33 2.42-.15.45-.33.9-.54 1.33a6.54 6.54 0 0 1-1.43 1.98c-.53-.4-1.1-.82-1.73-1.25-.09-.06-.18-.06-.27-.01-.42.24-.43.53-.03.86l.6.49c.3.23.6.43.92.6l.02.1.02.05.02.03.07.4a13.2 13.2 0 0 1 .24 1.57v-.03l-.01-.06.02 1.8c0 .35-.04.7-.1 1.03-.1.55-.21 1.09-.35 1.62a.89.89 0 0 0-.01.34c.15.96.18 1.93.1 2.9-.02.15-.05.3-.1.44-.24.77-.5 1.54-.77 2.31-.37 1.04-.67 2.1-.9 3.18a20.46 20.46 0 0 0-.46 3.39h.9a.63.63 0 0 0-.02-.1c.01-.56.07-1.11.18-1.66a82.62 82.62 0 0 1 .86-3.84c.15.42.33.84.55 1.25.27.5.45 1.03.56 1.59.18.92.32 1.84.44 2.76h.86c-.06-.79-.15-1.57-.27-2.36a5.24 5.24 0 0 0-.36-1.28 494.1 494.1 0 0 1-1.32-3.13c.48-1 .74-2.04.79-3.13.02-.56-.02-1.1-.14-1.65-.07-.28-.06-.55.01-.82.18-.65.3-1.31.36-1.98.1-1.04.1-2.08 0-3.12a23.1 23.1 0 0 1-.07-.74c-.02-.3-.08-.56-.18-.81a3.73 3.73 0 0 0 1.34-1.5c.3-.57.58-1.16.86-1.76a9.11 9.11 0 0 0 .58-2.61c0-.66-.08-1.31-.24-1.96v.06l.01.06c0-.04 0-.08-.02-.12l-.43-2.1c-.13-.61-.3-1.2-.53-1.78l.02.05.02.05c-.16-.67-.39-1.31-.68-1.94l-.74-1.59a59.28 59.28 0 0 0-1.23-2.5 6.9 6.9 0 0 0-.43-.73l-.79-1.17c-.08-.31-.24-.6-.46-.84-.75-.82-1.52-1.61-2.32-2.38-.9-.86-1.83-1.64-2.82-2.34-.8-.56-1.65-1-2.58-1.32l.01-.07c-.05-.2-.09-.39-.11-.59-.1-.76.05-1.47.44-2.13.34-.57.63-1.16.86-1.78a5.23 5.23 0 0 0 .24-.64c.06-.13.1-.25.13-.38l-.02.06c.06-.17.11-.34.14-.51.07-.4.16-.78.27-1.16.08-.27.11-.53.1-.8a4.25 4.25 0 0 0 .04-1.11l.67.18a98.54 98.54 0 0 0 3.15.7l.35.05c.34.06.67.11 1.02.15l.99.1a3.03 3.03 0 0 0 3.14-2.29c.06-.25.05-.49-.02-.73a3.46 3.46 0 0 1-.05-2.01l.01-.02-.01.02.15-.24a10.56 10.56 0 0 0 .62-1.2v-.02l.02-.02v-.02l.01-.02.06-.14.09-.25a.72.72 0 0 1 .07-.17.47.47 0 0 0 .13-.23.43.43 0 0 0-.03-.28.7.7 0 0 0-.14-.2v-.1l-.02-.06a3.76 3.76 0 0 0 .7-1.84c.04-.4.11-.81.2-1.21.1-.07.16-.17.18-.28a.41.41 0 0 0-.07-.35c.46 0 .9-.08 1.32-.27.42-.18.7-.51.8-.98.1-.43.07-.85-.12-1.25l-1.08-2.31a13.78 13.78 0 0 0-1.78-2.87v-.06c0-.08-.02-.15-.03-.23a1.44 1.44 0 0 1-.03-.19c.48-.7.62-1.44.42-2.24a58.46 58.46 0 0 0-1.2-4.12l-.96-3.3c.7 0 1.13-.37 1.3-1.08.12-.55.15-1.1.08-1.66-.07-.53-.3-.97-.7-1.31a8.93 8.93 0 0 0-2.62-1.58Zm-.36 50.2.02.02-.01-.02c-.02-.01-.02-.02 0 0ZM92.56 11.9h.02-.04.03Zm-3.93.84Zm1.05 55.07-.03.01.02-.01a.25.25 0 0 0 .03-.02s-.02 0-.02.02Zm2.97-10.35.01.02.11.26c.14.32.26.66.36 1a16.53 16.53 0 0 1 .27 1.1c.03.17.05.33.04.5-.01.17 0 .34.04.5a24.1 24.1 0 0 1-.02.32l.02.05.05.09.04.06c.02.58-.11 1.14-.38 1.67a22 22 0 0 1-1.3 2.22c-.49.75-1.06 1.44-1.7 2.08-.15.15-.32.29-.5.41-.7.47-1.42.93-2.15 1.37-.18.15-.38.3-.58.42-.75.49-1.46 1.02-2.15 1.58-.68.55-1.38 1.08-2.1 1.59a16.27 16.27 0 0 0-2.05 1.7c.04-.54.13-1.07.27-1.6.25-.88.47-1.76.66-2.66a55.36 55.36 0 0 1 .83-3.5c.2-.86.38-1.73.57-2.6.1-.43.2-.85.32-1.27.25-.86.49-1.72.71-2.59.23-.86.5-1.72.8-2.56.3-.8.58-1.62.86-2.44a26.9 26.9 0 0 1 1.04-2.64c.85.3 1.66.68 2.42 1.17l-.04-.04c-.02 0-.03-.02-.05-.03l.5.36c.65.45 1.27.98 1.85 1.57.54.55.96 1.18 1.25 1.9Zm-19.21-.92a.38.38 0 0 0 0-.3l.06-.04a20.1 20.1 0 0 0 2.37-1.88c.62-.4 1.24-.8 1.85-1.23a7.9 7.9 0 0 1 2.6-1.16c1-.25 2-.27 3.02-.07l.13-.07a8.24 8.24 0 0 1 2.4.47l-.53 1.27c-.34.81-.64 1.64-.92 2.48l-.82 2.53a55.6 55.6 0 0 0-1.02 3.5c-.24.85-.45 1.71-.63 2.59a107.12 107.12 0 0 1-.88 3.87c-.22.86-.42 1.73-.6 2.6-.1.44-.21.88-.34 1.32-.15.48-.26.97-.34 1.46-.15-.33-.3-.66-.42-1-.32-.84-.67-1.66-1.05-2.47l-1.1-2.32c-.4-.8-.74-1.63-1.03-2.48-.29-.86-.55-1.73-.77-2.6-.14-.56-.3-1.1-.5-1.62a46.26 46.26 0 0 1-1.48-4.85Zm-.8.37c.02.22.07.44.13.66.08.35.18.7.27 1.03.25.86.53 1.7.85 2.53.31.83.58 1.68.78 2.55.2.86.46 1.7.77 2.53.31.82.66 1.63 1.05 2.43a50.13 50.13 0 0 1 2.16 4.83c.17.41.35.81.56 1.2l-.49-.2c-.8-.36-1.55-.8-2.25-1.32-.71-.53-1.39-1.1-2.03-1.7-.65-.61-1.3-1.22-1.93-1.84a11.3 11.3 0 0 1-1.22-1.37c-.53-.7-1-1.45-1.4-2.23a1.5 1.5 0 0 0-.27-.38.78.78 0 0 0-.14-.1c.07-.55.17-1.08.28-1.61l.6-2.69c.22-1.03.61-2 1.16-2.9a7.3 7.3 0 0 1 1.11-1.42Zm37.43-44.03a13.37 13.37 0 0 1 4 1.9c.12.08.2.18.27.3.41.77.45 1.55.12 2.34a.66.66 0 0 1-.33.09 72.11 72.11 0 0 0-1.65-.08c-.2-.15-.43-.24-.67-.3a4.61 4.61 0 0 0-2.31.04c-.87.23-1.67.6-2.42 1.1a1.04 1.04 0 0 0-.36-.05c-.42.02-.8.17-1.12.46-.42.39-.61.86-.58 1.41l.05.59c.04.38.06.76.05 1.14a2.16 2.16 0 0 1-1.12 1.95c-.27.16-.52.35-.73.58a5.72 5.72 0 0 0-1.46 3.62c-.02.6-.23 1.1-.64 1.48a2.5 2.5 0 0 0-.34.15c-.1.04-.19.07-.29.09h-.03l-.45-.13a1.92 1.92 0 0 0-.52-.05c-.22-.45-.5-.87-.84-1.24a12.2 12.2 0 0 1-.62-.72 2.75 2.75 0 0 0-1.61-1.02.53.53 0 0 0-.1.03l-.16-.15a4.22 4.22 0 0 0-1.62-.83 2.7 2.7 0 0 0-2.96.93c-.39.44-.67.95-.85 1.52a2.9 2.9 0 0 0 0 1.85l.25.8a.6.6 0 0 0 0 .25c-.14.71-.25 1.44-.32 2.16l-.06.35a8.55 8.55 0 0 0-.23 2.37 3 3 0 0 1-1.3 1.15.93.93 0 0 1-.99-.08c-.24-.17-.5-.28-.77-.32a31.33 31.33 0 0 0-.95-3.56 16.87 16.87 0 0 0-1.2-2.82v.01a.78.78 0 0 0-.03-.06.59.59 0 0 0-.01-.03l-.61-1.48c-.45-1.03-.76-2.1-.95-3.21-.18-1.1-.18-2.2.02-3.3a24.69 24.69 0 0 1 .85-3.4c.24-.66.54-1.3.9-1.9.1-.15.2-.29.31-.41.52-.56 1.03-1.13 1.52-1.72l.03-.04a5.5 5.5 0 0 1 1.66-1.06l.48-.2a5 5 0 0 1 1.3-.31 24.87 24.87 0 0 0 4-.77 17.9 17.9 0 0 1 3.32-.66c1.1-.12 2.2-.09 3.28.08 1.07.16 2.13.26 3.2.32.28 0 .57.04.85.08 1.05.17 2.11.32 3.17.46.53.07 1.05.17 1.57.3Z"/><path fill="#fff" d="M110.67 27.75c.04-.12.09-.22.15-.31h-.08c-1 .06-1.8.5-2.45 1.32l-.2.23a.8.8 0 0 1 .1.23c.4.45.9.7 1.52.76l1 .06a3.74 3.74 0 0 1-.03-2.3Zm2.09 1.1a5.93 5.93 0 0 0-.1-.32c-.23-.4-.52-.7-.86-.88.14.3.2.63.21.96a8.79 8.79 0 0 1-.07 1.2l.31-.15.07-.08.06-.07a2.13 2.13 0 0 1 .14-.13l.03-.03.03-.04.02-.04.02-.04.03-.04.05-.15a.87.87 0 0 0 .03-.13l.03-.07Z"/><path fill="#87441D" d="M111.42 13.35a11.2 11.2 0 0 0-2.92-.76 98.18 98.18 0 0 1-3.17-.46 7.67 7.67 0 0 0-.85-.08 31.12 31.12 0 0 1-3.2-.32c-1.09-.17-2.18-.2-3.28-.08-1.13.11-2.23.33-3.32.66a19.52 19.52 0 0 1-4 .77 5 5 0 0 0-1.74.5 6.93 6.93 0 0 0-1.7 1.07l-.03.04c-.5.6-1 1.16-1.52 1.72-.11.12-.22.26-.3.4a10.78 10.78 0 0 0-.86 1.81 24.7 24.7 0 0 0-.9 3.5c-.2 1.1-.2 2.2-.02 3.3.19 1.11.5 2.18.95 3.21a44.47 44.47 0 0 1 .65 1.58v-.01A16.86 16.86 0 0 1 86.4 33a31.28 31.28 0 0 1 .95 3.56c.27.04.53.15.77.32.31.22.65.25 1 .08a3 3 0 0 0 1.3-1.15c-.04-.8.03-1.59.22-2.37l.06-.35c.07-.72.18-1.45.32-2.16a.6.6 0 0 1 0-.26l-.25-.79a2.9 2.9 0 0 1 0-1.85c.18-.57.46-1.08.85-1.52a2.7 2.7 0 0 1 2.96-.93 4.22 4.22 0 0 1 1.79.98.54.54 0 0 1 .09-.03c.64.14 1.18.48 1.61 1.02.2.25.4.5.62.72.35.37.63.79.84 1.24.17 0 .35.01.52.05a7.7 7.7 0 0 1 .48.13 1 1 0 0 0 .29-.1l.34-.14c.4-.38.62-.88.64-1.47a5.73 5.73 0 0 1 1.46-3.63c.22-.23.46-.42.73-.58a2.16 2.16 0 0 0 1.12-1.95c0-.38-.01-.76-.05-1.14l-.05-.59c-.03-.55.16-1.02.59-1.4.31-.3.69-.45 1.11-.47.13 0 .25.02.36.06.75-.5 1.55-.87 2.42-1.1a4.6 4.6 0 0 1 2.31-.05c.24.06.46.15.67.3a72.11 72.11 0 0 1 1.65.08c.12 0 .23-.03.33-.09.33-.8.3-1.57-.12-2.34a.84.84 0 0 0-.27-.3 13.4 13.4 0 0 0-2.65-1.44Z"/><path fill="#FF5736" d="M72.76 57.58c-.05-.22-.1-.44-.13-.66-.41.4-.78.88-1.1 1.42-.56.9-.95 1.87-1.18 2.9l-.59 2.69c-.11.53-.21 1.06-.28 1.6l.13.11c.12.11.2.24.28.38.4.78.87 1.53 1.4 2.23.37.5.77.95 1.22 1.37l1.93 1.84c.64.6 1.32 1.17 2.03 1.7a11.33 11.33 0 0 0 2.74 1.52c-.2-.39-.4-.79-.55-1.2-.33-.82-.67-1.64-1.03-2.44l-1.14-2.4c-.39-.79-.74-1.6-1.05-2.42-.3-.83-.56-1.67-.77-2.53a20.5 20.5 0 0 0-.78-2.55 32.89 32.89 0 0 1-1.13-3.56ZM73.44 56.25c.04.1.04.2 0 .3a39.26 39.26 0 0 0 1.48 4.85c.2.53.36 1.06.5 1.61.22.88.48 1.75.77 2.6.29.86.63 1.69 1.03 2.5l1.1 2.3c.38.82.73 1.64 1.05 2.47.13.35.27.68.42 1 .08-.48.19-.97.33-1.45.14-.44.25-.88.34-1.32.19-.87.39-1.74.6-2.6a68.27 68.27 0 0 0 .9-3.87 32.7 32.7 0 0 1 .9-3.57c.22-.85.47-1.69.74-2.52l.82-2.54a36.3 36.3 0 0 1 1.45-3.74l-.32-.1a8.25 8.25 0 0 0-2.08-.37l-.13.07a6.96 6.96 0 0 0-3.02.07 7.9 7.9 0 0 0-2.6 1.16c-.61.42-1.23.83-1.85 1.23a20.1 20.1 0 0 1-2.43 1.92ZM92.66 57.5v-.03c-.3-.7-.72-1.34-1.26-1.89a13.01 13.01 0 0 0-2.35-1.93l.05.03.04.04c-.76-.49-1.57-.88-2.42-1.17l-.1.29a26.9 26.9 0 0 0-.94 2.35l-.86 2.44c-.3.84-.57 1.7-.8 2.56-.22.87-.46 1.73-.71 2.6-.12.4-.23.83-.32 1.26a226.07 226.07 0 0 1-.8 3.55c-.22.85-.42 1.7-.6 2.55-.2.9-.41 1.79-.66 2.67a7.87 7.87 0 0 0-.27 1.58c.64-.62 1.32-1.19 2.05-1.7.72-.5 1.42-1.03 2.1-1.58.69-.56 1.4-1.09 2.15-1.58.2-.13.4-.27.58-.42.73-.44 1.44-.9 2.14-1.37.19-.12.36-.26.51-.41a13.2 13.2 0 0 0 1.7-2.08 22 22 0 0 0 1.3-2.22c.27-.53.4-1.09.38-1.67a1.23 1.23 0 0 1-.09-.15.4.4 0 0 1-.02-.05 1 1 0 0 1 0-.2l.01-.11a1.98 1.98 0 0 1-.03-.52 1.75 1.75 0 0 0-.06-.55c-.07-.35-.16-.7-.25-1.03a8 8 0 0 0-.47-1.27Z"/></g><rect width="131.5" height="97.5" x="1.25" y="1.25" stroke="#000" stroke-width="2.5" rx="13.75"/><defs><clipPath id="a"><rect width="134" height="100" fill="#fff" rx="15"/></clipPath></defs></svg>