<svg width="310" height="36" viewBox="0 0 310 36" fill="none" xmlns="http://www.w3.org/2000/svg">
<rect x="1" y="1" width="308" height="34" rx="7" fill="#EBE8E8"/>
<rect x="1" y="1" width="308" height="34" rx="7" stroke="black" stroke-width="2"/>
<path d="M65.4609 20.7188C66.2474 18.7396 66.8568 17.1641 67.2891 15.9922C67.5182 15.3724 67.7448 14.75 67.9688 14.125C68.276 13.3854 68.6068 12.8151 68.9609 12.4141C69.1953 12.1484 69.4766 12.0156 69.8047 12.0156C70.1016 12.0156 70.362 12.1198 70.5859 12.3281C70.8099 12.5312 70.9219 12.7812 70.9219 13.0781C70.9219 13.2865 70.8516 13.4922 70.7109 13.6953C70.4297 14.1016 70.1719 14.5911 69.9375 15.1641C69.9271 15.1849 69.7344 15.7005 69.3594 16.7109C68.8906 17.9141 68.1927 19.7188 67.2656 22.125C67.026 22.7552 66.7318 23.3854 66.3828 24.0156C66.1589 24.4219 65.8333 24.625 65.4062 24.625C64.8646 24.625 64.487 24.3698 64.2734 23.8594C63.638 22.3438 62.9323 20.1589 62.1562 17.3047C61.9427 16.6016 61.7266 15.8984 61.5078 15.1953C61.2161 14.2161 61.0703 13.5365 61.0703 13.1562C61.0703 12.849 61.1849 12.5938 61.4141 12.3906C61.6328 12.2031 61.888 12.1094 62.1797 12.1094C62.6797 12.1094 63.0286 12.3698 63.2266 12.8906C63.3307 13.3438 63.4349 13.7943 63.5391 14.2422C63.7109 14.8047 63.9583 15.6484 64.2812 16.7734C64.6875 18.263 65.0807 19.5781 65.4609 20.7188ZM78.8438 24.5156C78.6042 24.5156 78.224 24.2552 77.7031 23.7344C77.224 23.9635 76.8021 24.1354 76.4375 24.25C76.0729 24.3698 75.763 24.4297 75.5078 24.4297C74.2526 24.4297 73.3099 24.0938 72.6797 23.4219C72.0547 22.75 71.7422 21.7448 71.7422 20.4062C71.7422 19.151 72.2057 18.0781 73.1328 17.1875C74.0599 16.2917 75.1693 15.8438 76.4609 15.8438C76.9557 15.8438 77.5286 15.9844 78.1797 16.2656C78.9661 16.6042 79.3594 16.9974 79.3594 17.4453C79.3594 17.6328 79.2995 17.7969 79.1797 17.9375C79.1276 18.1458 79.0859 18.4089 79.0547 18.7266C79.0286 19.0391 79.0156 19.4062 79.0156 19.8281C79.0156 20.8229 79.0859 21.5391 79.2266 21.9766C79.2422 22.0234 79.362 22.2943 79.5859 22.7891C79.7891 23.237 79.8906 23.4922 79.8906 23.5547C79.8906 23.8307 79.7839 24.0599 79.5703 24.2422C79.362 24.4245 79.1198 24.5156 78.8438 24.5156ZM76.9062 19.1562C76.9062 18.9896 76.9167 18.7995 76.9375 18.5859C76.9635 18.3672 77 18.125 77.0469 17.8594C76.9427 17.8073 76.849 17.7708 76.7656 17.75C76.6875 17.724 76.6198 17.7109 76.5625 17.7109C75.8542 17.7109 75.2344 17.9896 74.7031 18.5469C74.1719 19.099 73.9062 19.7396 73.9062 20.4688C73.9062 21.1667 74.0312 21.6927 74.2812 22.0469C74.5312 22.3958 74.9062 22.5703 75.4062 22.5703C75.7292 22.5703 76.0339 22.5182 76.3203 22.4141C76.612 22.3047 76.8854 22.1458 77.1406 21.9375C76.9844 20.6979 76.9062 19.7708 76.9062 19.1562ZM78.4531 12.5703C78.1771 12.7578 77.8359 13.0755 77.4297 13.5234C77.0026 13.9922 76.6641 14.3177 76.4141 14.5C76.2109 14.651 75.987 14.7266 75.7422 14.7266C75.4661 14.7266 75.2266 14.638 75.0234 14.4609C74.8203 14.2839 74.7188 14.0781 74.7188 13.8438C74.7188 13.651 74.8281 13.4401 75.0469 13.2109C75.2396 13.0339 75.4297 12.8568 75.6172 12.6797C76.1745 12.0703 76.5026 11.7214 76.6016 11.6328C77.0755 11.2057 77.4948 10.9922 77.8594 10.9922C78.1354 10.9922 78.3724 11.0833 78.5703 11.2656C78.7734 11.4479 78.875 11.6536 78.875 11.8828C78.875 12.1484 78.7344 12.3776 78.4531 12.5703ZM83.3984 22.8516C83.3984 23.8411 83.0391 24.3359 82.3203 24.3359C82.0078 24.3359 81.75 24.237 81.5469 24.0391C81.3438 23.8411 81.2422 23.5859 81.2422 23.2734V12.4688C81.2422 12.1667 81.3516 11.9193 81.5703 11.7266C81.7786 11.5495 82.0365 11.4609 82.3438 11.4609C82.651 11.4609 82.9036 11.5547 83.1016 11.7422C83.2995 11.9245 83.3984 12.1667 83.3984 12.4688V22.8516ZM92.125 24.5156C91.8854 24.5156 91.5052 24.2552 90.9844 23.7344C90.5052 23.9635 90.0833 24.1354 89.7188 24.25C89.3542 24.3698 89.0443 24.4297 88.7891 24.4297C87.5339 24.4297 86.5911 24.0938 85.9609 23.4219C85.3359 22.75 85.0234 21.7448 85.0234 20.4062C85.0234 19.151 85.487 18.0781 86.4141 17.1875C87.3411 16.2917 88.4505 15.8438 89.7422 15.8438C90.237 15.8438 90.8099 15.9844 91.4609 16.2656C92.2474 16.6042 92.6406 16.9974 92.6406 17.4453C92.6406 17.6328 92.5807 17.7969 92.4609 17.9375C92.4089 18.1458 92.3672 18.4089 92.3359 18.7266C92.3099 19.0391 92.2969 19.4062 92.2969 19.8281C92.2969 20.8229 92.3672 21.5391 92.5078 21.9766C92.5234 22.0234 92.6432 22.2943 92.8672 22.7891C93.0703 23.237 93.1719 23.4922 93.1719 23.5547C93.1719 23.8307 93.0651 24.0599 92.8516 24.2422C92.6432 24.4245 92.401 24.5156 92.125 24.5156ZM90.1875 19.1562C90.1875 18.9896 90.1979 18.7995 90.2188 18.5859C90.2448 18.3672 90.2812 18.125 90.3281 17.8594C90.224 17.8073 90.1302 17.7708 90.0469 17.75C89.9688 17.724 89.901 17.7109 89.8438 17.7109C89.1354 17.7109 88.5156 17.9896 87.9844 18.5469C87.4531 19.099 87.1875 19.7396 87.1875 20.4688C87.1875 21.1667 87.3125 21.6927 87.5625 22.0469C87.8125 22.3958 88.1875 22.5703 88.6875 22.5703C89.0104 22.5703 89.3151 22.5182 89.6016 22.4141C89.8932 22.3047 90.1667 22.1458 90.4219 21.9375C90.2656 20.6979 90.1875 19.7708 90.1875 19.1562ZM99.7734 18.2812C99.2578 18.2812 98.9479 18.0651 98.8438 17.6328C98.6354 17.5964 98.4219 17.5781 98.2031 17.5781C96.9479 17.5781 96.3203 17.75 96.3203 18.0938C96.3203 18.2969 96.6979 18.5703 97.4531 18.9141C98.4844 19.388 99.1823 19.7578 99.5469 20.0234C100.302 20.5703 100.68 21.1875 100.68 21.875C100.68 22.7708 100.263 23.4505 99.4297 23.9141C98.7578 24.2839 97.9323 24.4688 96.9531 24.4688C96.2604 24.4688 95.6276 24.362 95.0547 24.1484C94.2734 23.8568 93.8828 23.4271 93.8828 22.8594C93.8828 22.3385 94.1927 22.0781 94.8125 22.0781C95.0521 22.0781 95.3984 22.1536 95.8516 22.3047C96.3047 22.4557 96.6536 22.5312 96.8984 22.5312C97.9557 22.5312 98.487 22.3177 98.4922 21.8906C98.4922 21.625 98.125 21.3307 97.3906 21.0078C96.3177 20.5339 95.6302 20.1927 95.3281 19.9844C94.5938 19.4688 94.2266 18.8411 94.2266 18.1016C94.2266 17.0547 94.7812 16.349 95.8906 15.9844C96.5417 15.7708 97.5312 15.6641 98.8594 15.6641C99.3802 15.6641 99.7656 15.7318 100.016 15.8672C100.359 16.0495 100.531 16.3854 100.531 16.875C100.531 17.8125 100.279 18.2812 99.7734 18.2812ZM108.789 18.0312C108.346 18.5312 107.812 19.2057 107.188 20.0547C106.318 21.2318 105.776 21.9557 105.562 22.2266C105.88 22.2161 106.143 22.2109 106.352 22.2109C106.56 22.2109 106.862 22.25 107.258 22.3281C107.659 22.401 107.961 22.4375 108.164 22.4375C108.477 22.4375 108.734 22.5365 108.938 22.7344C109.146 22.9271 109.25 23.1719 109.25 23.4688C109.25 23.7656 109.148 24.0104 108.945 24.2031C108.742 24.3958 108.482 24.4922 108.164 24.4922C107.956 24.4922 107.651 24.4557 107.25 24.3828C106.854 24.3099 106.555 24.2734 106.352 24.2734C105.185 24.2734 104.094 24.3698 103.078 24.5625C102.943 24.5885 102.828 24.6016 102.734 24.6016C102.448 24.6016 102.203 24.5234 102 24.3672C101.771 24.1953 101.656 23.9688 101.656 23.6875C101.656 23.3542 101.82 23.0495 102.148 22.7734C103.445 21.6745 104.802 20.0677 106.219 17.9531C105.896 17.9688 105.586 17.9766 105.289 17.9766C104.492 17.9766 103.685 17.9193 102.867 17.8047C102.227 17.7161 101.906 17.3776 101.906 16.7891C101.906 16.5026 102.005 16.2578 102.203 16.0547C102.401 15.8516 102.654 15.75 102.961 15.75C103.216 15.75 103.602 15.7786 104.117 15.8359C104.638 15.888 105.029 15.9141 105.289 15.9141C105.643 15.9141 106.174 15.8932 106.883 15.8516C107.591 15.8047 108.122 15.7812 108.477 15.7812C109.128 15.7812 109.453 16.0469 109.453 16.5781C109.453 17.0469 109.232 17.5312 108.789 18.0312ZM117.422 24.5156C117.182 24.5156 116.802 24.2552 116.281 23.7344C115.802 23.9635 115.38 24.1354 115.016 24.25C114.651 24.3698 114.341 24.4297 114.086 24.4297C112.831 24.4297 111.888 24.0938 111.258 23.4219C110.633 22.75 110.32 21.7448 110.32 20.4062C110.32 19.151 110.784 18.0781 111.711 17.1875C112.638 16.2917 113.747 15.8438 115.039 15.8438C115.534 15.8438 116.107 15.9844 116.758 16.2656C117.544 16.6042 117.938 16.9974 117.938 17.4453C117.938 17.6328 117.878 17.7969 117.758 17.9375C117.706 18.1458 117.664 18.4089 117.633 18.7266C117.607 19.0391 117.594 19.4062 117.594 19.8281C117.594 20.8229 117.664 21.5391 117.805 21.9766C117.82 22.0234 117.94 22.2943 118.164 22.7891C118.367 23.237 118.469 23.4922 118.469 23.5547C118.469 23.8307 118.362 24.0599 118.148 24.2422C117.94 24.4245 117.698 24.5156 117.422 24.5156ZM115.484 19.1562C115.484 18.9896 115.495 18.7995 115.516 18.5859C115.542 18.3672 115.578 18.125 115.625 17.8594C115.521 17.8073 115.427 17.7708 115.344 17.75C115.266 17.724 115.198 17.7109 115.141 17.7109C114.432 17.7109 113.812 17.9896 113.281 18.5469C112.75 19.099 112.484 19.7396 112.484 20.4688C112.484 21.1667 112.609 21.6927 112.859 22.0469C113.109 22.3958 113.484 22.5703 113.984 22.5703C114.307 22.5703 114.612 22.5182 114.898 22.4141C115.19 22.3047 115.464 22.1458 115.719 21.9375C115.562 20.6979 115.484 19.7708 115.484 19.1562ZM121.352 14.6094C121.018 14.6094 120.729 14.4974 120.484 14.2734C120.24 14.0495 120.117 13.776 120.117 13.4531C120.117 13.1302 120.24 12.8568 120.484 12.6328C120.729 12.4089 121.018 12.2969 121.352 12.2969C121.685 12.2969 121.971 12.4089 122.211 12.6328C122.456 12.8568 122.578 13.1302 122.578 13.4531C122.578 13.776 122.456 14.0495 122.211 14.2734C121.971 14.4974 121.685 14.6094 121.352 14.6094ZM122.016 20.3359C122.016 20.6328 122.023 21.1094 122.039 21.7656C122.06 22.4219 122.07 22.8984 122.07 23.1953C122.07 23.4974 121.969 23.7474 121.766 23.9453C121.562 24.138 121.305 24.2344 120.992 24.2344C120.68 24.2344 120.422 24.138 120.219 23.9453C120.016 23.7474 119.914 23.4974 119.914 23.1953C119.914 22.8984 119.904 22.4219 119.883 21.7656C119.867 21.1094 119.859 20.6328 119.859 20.3359C119.859 19.8724 119.885 19.2917 119.938 18.5938C119.99 17.8958 120.016 17.3151 120.016 16.8516C120.016 16.5495 120.117 16.3021 120.32 16.1094C120.523 15.9115 120.781 15.8125 121.094 15.8125C121.406 15.8125 121.664 15.9115 121.867 16.1094C122.07 16.3021 122.172 16.5495 122.172 16.8516C122.172 17.3151 122.146 17.8958 122.094 18.5938C122.042 19.2917 122.016 19.8724 122.016 20.3359ZM129.773 16.1484C129.841 14.3724 129.922 13.1458 130.016 12.4688C130.104 11.8542 130.443 11.5469 131.031 11.5469C131.339 11.5469 131.586 11.6458 131.773 11.8438C131.961 12.0417 132.055 12.2839 132.055 12.5703C132.055 13.3255 131.995 14.4505 131.875 15.9453C131.76 17.4401 131.703 18.5651 131.703 19.3203C131.703 21.1641 131.763 22.3984 131.883 23.0234C131.898 23.1068 131.906 23.1823 131.906 23.25C131.906 23.5365 131.802 23.7734 131.594 23.9609C131.385 24.1432 131.143 24.2344 130.867 24.2344C130.482 24.2344 130.195 24.0625 130.008 23.7188C129.654 23.9323 129.286 24.0911 128.906 24.1953C128.526 24.3047 128.133 24.3594 127.727 24.3594C126.56 24.3594 125.591 23.987 124.82 23.2422C124.034 22.4818 123.641 21.513 123.641 20.3359C123.641 18.9349 124.036 17.8047 124.828 16.9453C125.62 16.0807 126.654 15.6484 127.93 15.6484C128.32 15.6484 128.669 15.6901 128.977 15.7734C129.284 15.8568 129.549 15.9818 129.773 16.1484ZM129.617 18.6094C129.445 18.2812 129.221 18.0365 128.945 17.875C128.669 17.7135 128.341 17.6328 127.961 17.6328C127.19 17.6328 126.612 17.8568 126.227 18.3047C125.841 18.7474 125.648 19.4141 125.648 20.3047C125.648 20.8672 125.857 21.349 126.273 21.75C126.69 22.151 127.174 22.3516 127.727 22.3516C128.128 22.3516 128.432 22.3047 128.641 22.2109C128.781 22.1484 129.021 21.9818 129.359 21.7109C129.448 21.638 129.534 21.5573 129.617 21.4688C129.607 21.2188 129.607 20.2656 129.617 18.6094ZM143.672 24.4609C142.708 24.4609 141.88 24.1302 141.188 23.4688C140.427 22.7448 140.029 21.7786 139.992 20.5703C139.956 19.4193 140.271 18.3932 140.938 17.4922C141.729 16.4297 142.831 15.8984 144.242 15.8984C145.284 15.8984 146.112 16.3151 146.727 17.1484C147.279 17.8984 147.555 18.8281 147.555 19.9375C147.555 21.1458 147.232 22.1771 146.586 23.0312C145.862 23.9844 144.891 24.4609 143.672 24.4609ZM144.141 17.9609C143.5 17.9557 142.995 18.2474 142.625 18.8359C142.312 19.3307 142.156 19.9089 142.156 20.5703C142.156 21.1953 142.333 21.6745 142.688 22.0078C142.969 22.2734 143.297 22.4062 143.672 22.4062C144.125 22.4062 144.518 22.2526 144.852 21.9453C145.232 21.5859 145.435 21.099 145.461 20.4844C145.529 18.8073 145.089 17.9661 144.141 17.9609ZM146.117 14.9062C145.81 14.9062 145.521 14.8229 145.25 14.6562C144.927 14.4583 144.766 14.2083 144.766 13.9062C144.766 13.1771 145.307 12.8125 146.391 12.8125C146.672 12.8125 146.951 12.9062 147.227 13.0938C147.544 13.3073 147.703 13.5625 147.703 13.8594C147.703 14.2083 147.526 14.4792 147.172 14.6719C146.88 14.8281 146.529 14.9062 146.117 14.9062ZM142.75 14.9062C141.781 14.9062 141.297 14.5365 141.297 13.7969C141.297 13.5469 141.458 13.3125 141.781 13.0938C142.083 12.8906 142.378 12.7891 142.664 12.7891C143.669 12.7891 144.169 13.1641 144.164 13.9141C144.164 14.1745 143.982 14.4115 143.617 14.625C143.299 14.8125 143.01 14.9062 142.75 14.9062ZM154.32 18.2812C153.805 18.2812 153.495 18.0651 153.391 17.6328C153.182 17.5964 152.969 17.5781 152.75 17.5781C151.495 17.5781 150.867 17.75 150.867 18.0938C150.867 18.2969 151.245 18.5703 152 18.9141C153.031 19.388 153.729 19.7578 154.094 20.0234C154.849 20.5703 155.227 21.1875 155.227 21.875C155.227 22.7708 154.81 23.4505 153.977 23.9141C153.305 24.2839 152.479 24.4688 151.5 24.4688C150.807 24.4688 150.174 24.362 149.602 24.1484C148.82 23.8568 148.43 23.4271 148.43 22.8594C148.43 22.3385 148.74 22.0781 149.359 22.0781C149.599 22.0781 149.945 22.1536 150.398 22.3047C150.852 22.4557 151.201 22.5312 151.445 22.5312C152.503 22.5312 153.034 22.3177 153.039 21.8906C153.039 21.625 152.672 21.3307 151.938 21.0078C150.865 20.5339 150.177 20.1927 149.875 19.9844C149.141 19.4688 148.773 18.8411 148.773 18.1016C148.773 17.0547 149.328 16.349 150.438 15.9844C151.089 15.7708 152.078 15.6641 153.406 15.6641C153.927 15.6641 154.312 15.7318 154.562 15.8672C154.906 16.0495 155.078 16.3854 155.078 16.875C155.078 17.8125 154.826 18.2812 154.32 18.2812ZM162.117 18.2812C161.602 18.2812 161.292 18.0651 161.188 17.6328C160.979 17.5964 160.766 17.5781 160.547 17.5781C159.292 17.5781 158.664 17.75 158.664 18.0938C158.664 18.2969 159.042 18.5703 159.797 18.9141C160.828 19.388 161.526 19.7578 161.891 20.0234C162.646 20.5703 163.023 21.1875 163.023 21.875C163.023 22.7708 162.607 23.4505 161.773 23.9141C161.102 24.2839 160.276 24.4688 159.297 24.4688C158.604 24.4688 157.971 24.362 157.398 24.1484C156.617 23.8568 156.227 23.4271 156.227 22.8594C156.227 22.3385 156.536 22.0781 157.156 22.0781C157.396 22.0781 157.742 22.1536 158.195 22.3047C158.648 22.4557 158.997 22.5312 159.242 22.5312C160.299 22.5312 160.831 22.3177 160.836 21.8906C160.836 21.625 160.469 21.3307 159.734 21.0078C158.661 20.5339 157.974 20.1927 157.672 19.9844C156.938 19.4688 156.57 18.8411 156.57 18.1016C156.57 17.0547 157.125 16.349 158.234 15.9844C158.885 15.7708 159.875 15.6641 161.203 15.6641C161.724 15.6641 162.109 15.7318 162.359 15.8672C162.703 16.0495 162.875 16.3854 162.875 16.875C162.875 17.8125 162.622 18.2812 162.117 18.2812ZM171.133 18.0312C170.69 18.5312 170.156 19.2057 169.531 20.0547C168.661 21.2318 168.12 21.9557 167.906 22.2266C168.224 22.2161 168.487 22.2109 168.695 22.2109C168.904 22.2109 169.206 22.25 169.602 22.3281C170.003 22.401 170.305 22.4375 170.508 22.4375C170.82 22.4375 171.078 22.5365 171.281 22.7344C171.49 22.9271 171.594 23.1719 171.594 23.4688C171.594 23.7656 171.492 24.0104 171.289 24.2031C171.086 24.3958 170.826 24.4922 170.508 24.4922C170.299 24.4922 169.995 24.4557 169.594 24.3828C169.198 24.3099 168.898 24.2734 168.695 24.2734C167.529 24.2734 166.438 24.3698 165.422 24.5625C165.286 24.5885 165.172 24.6016 165.078 24.6016C164.792 24.6016 164.547 24.5234 164.344 24.3672C164.115 24.1953 164 23.9688 164 23.6875C164 23.3542 164.164 23.0495 164.492 22.7734C165.789 21.6745 167.146 20.0677 168.562 17.9531C168.24 17.9688 167.93 17.9766 167.633 17.9766C166.836 17.9766 166.029 17.9193 165.211 17.8047C164.57 17.7161 164.25 17.3776 164.25 16.7891C164.25 16.5026 164.349 16.2578 164.547 16.0547C164.745 15.8516 164.997 15.75 165.305 15.75C165.56 15.75 165.945 15.7786 166.461 15.8359C166.982 15.888 167.372 15.9141 167.633 15.9141C167.987 15.9141 168.518 15.8932 169.227 15.8516C169.935 15.8047 170.466 15.7812 170.82 15.7812C171.471 15.7812 171.797 16.0469 171.797 16.5781C171.797 17.0469 171.576 17.5312 171.133 18.0312ZM176.961 24.3594C175.716 24.3594 174.698 24.0625 173.906 23.4688C173.031 22.8125 172.594 21.888 172.594 20.6953C172.594 19.3776 172.94 18.263 173.633 17.3516C174.404 16.3411 175.443 15.8359 176.75 15.8359C177.656 15.8359 178.409 15.9818 179.008 16.2734C179.794 16.6589 180.188 17.2578 180.188 18.0703C180.188 18.6432 179.867 19.151 179.227 19.5938C178.935 19.7969 178.349 20.0938 177.469 20.4844L174.836 21.6484C175.086 21.9193 175.388 22.1224 175.742 22.2578C176.096 22.3932 176.503 22.4609 176.961 22.4609C177.659 22.4609 178.25 22.3177 178.734 22.0312C179.167 21.776 179.513 21.6484 179.773 21.6484C180.315 21.6484 180.586 21.9115 180.586 22.4375C180.586 23.0312 180.151 23.5156 179.281 23.8906C178.552 24.2031 177.779 24.3594 176.961 24.3594ZM176.75 17.7266C176.266 17.7266 175.852 17.888 175.508 18.2109C175.164 18.5339 174.888 19.0182 174.68 19.6641C175.268 19.4089 175.854 19.1562 176.438 18.9062C177.141 18.5885 177.701 18.2943 178.117 18.0234C177.768 17.8255 177.312 17.7266 176.75 17.7266ZM185.688 15.9766C186.385 15.9141 186.885 15.8828 187.188 15.8828C188.161 15.8828 188.648 16.2161 188.648 16.8828C188.648 17.5703 188.13 17.8984 187.094 17.8672C186.766 17.8568 186.268 17.8802 185.602 17.9375C185.581 18.4896 185.576 19.1927 185.586 20.0469C185.607 21.276 185.617 21.9766 185.617 22.1484C185.617 23.1016 185.557 23.8568 185.438 24.4141C185.318 24.9714 184.974 25.25 184.406 25.25C184.115 25.25 183.859 25.1562 183.641 24.9688C183.427 24.7812 183.32 24.5443 183.32 24.2578C183.32 24.1901 183.326 24.125 183.336 24.0625C183.461 23.3177 183.523 22.6172 183.523 21.9609V18.0547C183.43 18.0599 183.258 18.0807 183.008 18.1172C182.81 18.1432 182.659 18.1562 182.555 18.1562C182.237 18.1562 181.974 18.0651 181.766 17.8828C181.557 17.6953 181.453 17.4453 181.453 17.1328C181.453 16.6484 181.708 16.3307 182.219 16.1797C182.448 16.112 182.904 16.0677 183.586 16.0469C183.591 15.9531 183.625 15.6589 183.688 15.1641C183.833 14.0026 184.148 13.138 184.633 12.5703C185.237 11.862 186.164 11.5078 187.414 11.5078C188.367 11.5078 188.844 11.849 188.844 12.5312C188.844 13.2083 188.401 13.5469 187.516 13.5469C186.885 13.5469 186.427 13.7682 186.141 14.2109C185.927 14.5391 185.784 15.0521 185.711 15.75L185.688 15.9766ZM193.336 24.4609C192.372 24.4609 191.544 24.1302 190.852 23.4688C190.091 22.7448 189.693 21.7786 189.656 20.5703C189.62 19.4193 189.935 18.3932 190.602 17.4922C191.393 16.4297 192.495 15.8984 193.906 15.8984C194.948 15.8984 195.776 16.3151 196.391 17.1484C196.943 17.8984 197.219 18.8281 197.219 19.9375C197.219 21.1458 196.896 22.1771 196.25 23.0312C195.526 23.9844 194.555 24.4609 193.336 24.4609ZM193.805 17.9609C193.164 17.9557 192.659 18.2474 192.289 18.8359C191.977 19.3307 191.82 19.9089 191.82 20.5703C191.82 21.1953 191.997 21.6745 192.352 22.0078C192.633 22.2734 192.961 22.4062 193.336 22.4062C193.789 22.4062 194.182 22.2526 194.516 21.9453C194.896 21.5859 195.099 21.099 195.125 20.4844C195.193 18.8073 194.753 17.9661 193.805 17.9609ZM205.781 19.3438C205.562 20.5677 205.432 21.8594 205.391 23.2188C205.339 24.901 205.057 26.1224 204.547 26.8828C203.865 27.8984 202.656 28.4062 200.922 28.4062C198.896 28.4062 197.883 28.0052 197.883 27.2031C197.883 26.9167 197.974 26.6849 198.156 26.5078C198.339 26.3307 198.578 26.2422 198.875 26.2422C199.109 26.2422 199.445 26.2865 199.883 26.375C200.32 26.4635 200.708 26.5078 201.047 26.5078C201.823 26.5078 202.396 26.2708 202.766 25.7969C203.12 25.3333 203.328 24.5964 203.391 23.5859C203.125 23.8568 202.826 24.0599 202.492 24.1953C202.159 24.3307 201.794 24.3984 201.398 24.3984C200.362 24.3984 199.518 24.0625 198.867 23.3906C198.221 22.7135 197.898 21.849 197.898 20.7969C197.898 19.3802 198.331 18.2344 199.195 17.3594C200.091 16.4531 201.302 16 202.828 16C203.318 16 203.74 16.0599 204.094 16.1797C204.448 16.2995 204.734 16.4818 204.953 16.7266C205.615 16.8047 205.945 17.1953 205.945 17.8984C205.945 18.2474 205.891 18.7292 205.781 19.3438ZM202.75 17.7812C201.87 17.7812 201.185 18.0703 200.695 18.6484C200.258 19.1745 200.039 19.8568 200.039 20.6953C200.039 21.3151 200.156 21.7812 200.391 22.0938C200.625 22.4062 200.977 22.5625 201.445 22.5625C201.872 22.5625 202.302 22.3151 202.734 21.8203C203.141 21.3516 203.372 20.888 203.43 20.4297C203.529 19.9297 203.643 19.151 203.773 18.0938C203.596 17.9896 203.422 17.9115 203.25 17.8594C203.078 17.8073 202.911 17.7812 202.75 17.7812ZM209.445 22.8516C209.445 23.8411 209.086 24.3359 208.367 24.3359C208.055 24.3359 207.797 24.237 207.594 24.0391C207.391 23.8411 207.289 23.5859 207.289 23.2734V12.4688C207.289 12.1667 207.398 11.9193 207.617 11.7266C207.826 11.5495 208.083 11.4609 208.391 11.4609C208.698 11.4609 208.951 11.5547 209.148 11.7422C209.346 11.9245 209.445 12.1667 209.445 12.4688V22.8516ZM218.172 24.5156C217.932 24.5156 217.552 24.2552 217.031 23.7344C216.552 23.9635 216.13 24.1354 215.766 24.25C215.401 24.3698 215.091 24.4297 214.836 24.4297C213.581 24.4297 212.638 24.0938 212.008 23.4219C211.383 22.75 211.07 21.7448 211.07 20.4062C211.07 19.151 211.534 18.0781 212.461 17.1875C213.388 16.2917 214.497 15.8438 215.789 15.8438C216.284 15.8438 216.857 15.9844 217.508 16.2656C218.294 16.6042 218.688 16.9974 218.688 17.4453C218.688 17.6328 218.628 17.7969 218.508 17.9375C218.456 18.1458 218.414 18.4089 218.383 18.7266C218.357 19.0391 218.344 19.4062 218.344 19.8281C218.344 20.8229 218.414 21.5391 218.555 21.9766C218.57 22.0234 218.69 22.2943 218.914 22.7891C219.117 23.237 219.219 23.4922 219.219 23.5547C219.219 23.8307 219.112 24.0599 218.898 24.2422C218.69 24.4245 218.448 24.5156 218.172 24.5156ZM216.234 19.1562C216.234 18.9896 216.245 18.7995 216.266 18.5859C216.292 18.3672 216.328 18.125 216.375 17.8594C216.271 17.8073 216.177 17.7708 216.094 17.75C216.016 17.724 215.948 17.7109 215.891 17.7109C215.182 17.7109 214.562 17.9896 214.031 18.5469C213.5 19.099 213.234 19.7396 213.234 20.4688C213.234 21.1667 213.359 21.6927 213.609 22.0469C213.859 22.3958 214.234 22.5703 214.734 22.5703C215.057 22.5703 215.362 22.5182 215.648 22.4141C215.94 22.3047 216.214 22.1458 216.469 21.9375C216.312 20.6979 216.234 19.7708 216.234 19.1562ZM222.727 22.8516C222.727 23.8411 222.367 24.3359 221.648 24.3359C221.336 24.3359 221.078 24.237 220.875 24.0391C220.672 23.8411 220.57 23.5859 220.57 23.2734V12.4688C220.57 12.1667 220.68 11.9193 220.898 11.7266C221.107 11.5495 221.365 11.4609 221.672 11.4609C221.979 11.4609 222.232 11.5547 222.43 11.7422C222.628 11.9245 222.727 12.1667 222.727 12.4688V22.8516ZM231.453 24.5156C231.214 24.5156 230.833 24.2552 230.312 23.7344C229.833 23.9635 229.411 24.1354 229.047 24.25C228.682 24.3698 228.372 24.4297 228.117 24.4297C226.862 24.4297 225.919 24.0938 225.289 23.4219C224.664 22.75 224.352 21.7448 224.352 20.4062C224.352 19.151 224.815 18.0781 225.742 17.1875C226.669 16.2917 227.779 15.8438 229.07 15.8438C229.565 15.8438 230.138 15.9844 230.789 16.2656C231.576 16.6042 231.969 16.9974 231.969 17.4453C231.969 17.6328 231.909 17.7969 231.789 17.9375C231.737 18.1458 231.695 18.4089 231.664 18.7266C231.638 19.0391 231.625 19.4062 231.625 19.8281C231.625 20.8229 231.695 21.5391 231.836 21.9766C231.852 22.0234 231.971 22.2943 232.195 22.7891C232.398 23.237 232.5 23.4922 232.5 23.5547C232.5 23.8307 232.393 24.0599 232.18 24.2422C231.971 24.4245 231.729 24.5156 231.453 24.5156ZM229.516 19.1562C229.516 18.9896 229.526 18.7995 229.547 18.5859C229.573 18.3672 229.609 18.125 229.656 17.8594C229.552 17.8073 229.458 17.7708 229.375 17.75C229.297 17.724 229.229 17.7109 229.172 17.7109C228.464 17.7109 227.844 17.9896 227.312 18.5469C226.781 19.099 226.516 19.7396 226.516 20.4688C226.516 21.1667 226.641 21.6927 226.891 22.0469C227.141 22.3958 227.516 22.5703 228.016 22.5703C228.339 22.5703 228.643 22.5182 228.93 22.4141C229.221 22.3047 229.495 22.1458 229.75 21.9375C229.594 20.6979 229.516 19.7708 229.516 19.1562ZM231.062 12.5703C230.786 12.7578 230.445 13.0755 230.039 13.5234C229.612 13.9922 229.273 14.3177 229.023 14.5C228.82 14.651 228.596 14.7266 228.352 14.7266C228.076 14.7266 227.836 14.638 227.633 14.4609C227.43 14.2839 227.328 14.0781 227.328 13.8438C227.328 13.651 227.438 13.4401 227.656 13.2109C227.849 13.0339 228.039 12.8568 228.227 12.6797C228.784 12.0703 229.112 11.7214 229.211 11.6328C229.685 11.2057 230.104 10.9922 230.469 10.9922C230.745 10.9922 230.982 11.0833 231.18 11.2656C231.383 11.4479 231.484 11.6536 231.484 11.8828C231.484 12.1484 231.344 12.3776 231.062 12.5703ZM239.102 18.2812C238.586 18.2812 238.276 18.0651 238.172 17.6328C237.964 17.5964 237.75 17.5781 237.531 17.5781C236.276 17.5781 235.648 17.75 235.648 18.0938C235.648 18.2969 236.026 18.5703 236.781 18.9141C237.812 19.388 238.51 19.7578 238.875 20.0234C239.63 20.5703 240.008 21.1875 240.008 21.875C240.008 22.7708 239.591 23.4505 238.758 23.9141C238.086 24.2839 237.26 24.4688 236.281 24.4688C235.589 24.4688 234.956 24.362 234.383 24.1484C233.602 23.8568 233.211 23.4271 233.211 22.8594C233.211 22.3385 233.521 22.0781 234.141 22.0781C234.38 22.0781 234.727 22.1536 235.18 22.3047C235.633 22.4557 235.982 22.5312 236.227 22.5312C237.284 22.5312 237.815 22.3177 237.82 21.8906C237.82 21.625 237.453 21.3307 236.719 21.0078C235.646 20.5339 234.958 20.1927 234.656 19.9844C233.922 19.4688 233.555 18.8411 233.555 18.1016C233.555 17.0547 234.109 16.349 235.219 15.9844C235.87 15.7708 236.859 15.6641 238.188 15.6641C238.708 15.6641 239.094 15.7318 239.344 15.8672C239.688 16.0495 239.859 16.3854 239.859 16.875C239.859 17.8125 239.607 18.2812 239.102 18.2812ZM248.141 24.5156C247.901 24.5156 247.521 24.2552 247 23.7344C246.521 23.9635 246.099 24.1354 245.734 24.25C245.37 24.3698 245.06 24.4297 244.805 24.4297C243.549 24.4297 242.607 24.0938 241.977 23.4219C241.352 22.75 241.039 21.7448 241.039 20.4062C241.039 19.151 241.503 18.0781 242.43 17.1875C243.357 16.2917 244.466 15.8438 245.758 15.8438C246.253 15.8438 246.826 15.9844 247.477 16.2656C248.263 16.6042 248.656 16.9974 248.656 17.4453C248.656 17.6328 248.596 17.7969 248.477 17.9375C248.424 18.1458 248.383 18.4089 248.352 18.7266C248.326 19.0391 248.312 19.4062 248.312 19.8281C248.312 20.8229 248.383 21.5391 248.523 21.9766C248.539 22.0234 248.659 22.2943 248.883 22.7891C249.086 23.237 249.188 23.4922 249.188 23.5547C249.188 23.8307 249.081 24.0599 248.867 24.2422C248.659 24.4245 248.417 24.5156 248.141 24.5156ZM246.203 19.1562C246.203 18.9896 246.214 18.7995 246.234 18.5859C246.26 18.3672 246.297 18.125 246.344 17.8594C246.24 17.8073 246.146 17.7708 246.062 17.75C245.984 17.724 245.917 17.7109 245.859 17.7109C245.151 17.7109 244.531 17.9896 244 18.5469C243.469 19.099 243.203 19.7396 243.203 20.4688C243.203 21.1667 243.328 21.6927 243.578 22.0469C243.828 22.3958 244.203 22.5703 244.703 22.5703C245.026 22.5703 245.331 22.5182 245.617 22.4141C245.909 22.3047 246.182 22.1458 246.438 21.9375C246.281 20.6979 246.203 19.7708 246.203 19.1562Z" fill="black"/>
<path d="M60.5078 26.8047H196.516V28.1719H60.5078V26.8047ZM205.961 26.8047H249.492V28.1719H205.961V26.8047Z" fill="black"/>
</svg>
