<svg width="318" height="65" viewBox="0 0 318 65" fill="none" xmlns="http://www.w3.org/2000/svg">
<path d="M4.26221 4.21289L314.155 9.55084L313.271 60.8463L3.37864 55.5083L4.26221 4.21289Z" fill="#EEEEEE"/>
<path d="M27.0256 3.10676L26.9426 0.445171L27.0256 3.10676ZM163.444 5.90343L162.889 8.508L163.444 5.90343ZM241.384 8.23475L241.667 5.58695L241.384 8.23475ZM313.781 14.7316L316.422 15.0718L313.781 14.7316ZM314.076 27.7335L311.599 28.7105L314.076 27.7335ZM313.812 34.2273L316.21 35.3844L313.812 34.2273ZM313.522 47.2191L311.142 46.0249L313.522 47.2191ZM311.391 59.351L308.849 58.559L311.391 59.351ZM307.398 61.4379L307.66 58.788L307.398 61.4379ZM294.413 60.7421L295.508 63.1692L294.413 60.7421ZM287.92 60.4257L286.623 62.7515L287.92 60.4257ZM261.927 60.4096L262.654 57.8479L261.927 60.4096ZM255.454 58.9001L254.976 61.5196L255.454 58.9001ZM248.944 59.6043L249.924 62.0799L248.944 59.6043ZM242.423 60.9034L242.42 58.2405L242.423 60.9034ZM222.95 59.6241L221.928 57.1651L222.95 59.6241ZM203.459 59.3721L203.203 56.7216L203.459 59.3721ZM190.46 59.5153L190.003 56.8918L190.46 59.5153ZM183.958 59.702L184.268 57.0573L183.958 59.702ZM177.461 59.6396L177.202 56.9894L177.461 59.6396ZM164.483 58.5399L164.486 61.2028L164.483 58.5399ZM157.996 57.8661L158.541 55.2596L157.996 57.8661ZM138.504 57.6768L138.354 55.0181L138.504 57.6768ZM131.991 58.5193L132.519 61.1294L131.991 58.5193ZM125.483 59.072L125.396 61.7334L125.483 59.072ZM99.5061 58.1279L99.4168 60.7893L99.5061 58.1279ZM86.5091 58.1392L86.3774 55.4796L86.5091 58.1392ZM67.0389 56.6865L68.1219 59.1192L67.0389 56.6865ZM47.5429 56.7345L47.8765 54.0926L47.5429 56.7345ZM41.0432 56.812L40.6496 54.1784L41.0432 56.812ZM21.5611 56.0501L20.457 58.4733L21.5611 56.0501ZM8.58755 54.7051L9.22089 52.1186L8.58755 54.7051ZM4.8612 52.4429L7.38702 51.5995L4.8612 52.4429ZM7.52491 3.42855L8.14733 6.01767C10.1204 5.54334 12.0768 5.31466 14.0209 5.32601L14.0365 2.66318L14.052 0.000342589C11.6643 -0.0135973 9.27966 0.267974 6.9025 0.839432L7.52491 3.42855ZM14.0365 2.66318L14.0209 5.32601C16.1201 5.33827 18.218 5.42936 20.3149 5.59932L20.53 2.94514L20.7452 0.290967C18.5158 0.110264 16.2847 0.0133775 14.052 0.000342589L14.0365 2.66318ZM20.53 2.94514L20.3149 5.59932C22.5771 5.78268 24.8418 5.83904 27.1086 5.76834L27.0256 3.10676L26.9426 0.445171C24.8749 0.509656 22.8092 0.458268 20.7452 0.290967L20.53 2.94514ZM27.0256 3.10676L27.1086 5.76834C28.7832 5.71612 30.5016 6.10326 32.2959 7.01073L33.4977 4.63447L34.6995 2.25821C32.199 0.993553 29.6027 0.362216 26.9426 0.445171L27.0256 3.10676ZM33.4977 4.63447L32.2959 7.01073C35.1131 8.43555 38.081 8.58435 40.9936 7.40064L39.9909 4.93372L38.9883 2.46679C37.5381 3.05621 36.1771 3.00551 34.6995 2.25821L33.4977 4.63447ZM39.9909 4.93372L40.9936 7.40064C42.8922 6.62898 44.7365 6.25144 46.5408 6.23251L46.5128 3.56978L46.4849 0.907046C43.9561 0.933573 41.4525 1.46533 38.9883 2.46679L39.9909 4.93372ZM46.5128 3.56978L46.5408 6.23251C48.45 6.21249 50.363 6.46468 52.2864 6.99679L52.9964 4.43031L53.7064 1.86383C51.3181 1.20312 48.9087 0.881621 46.4849 0.907046L46.5128 3.56978ZM52.9964 4.43031L52.2864 6.99679C54.4602 7.59816 56.6345 8.17517 58.8094 8.72781L59.4652 6.14695L60.121 3.56608C57.9825 3.0227 55.8443 2.45528 53.7064 1.86383L52.9964 4.43031ZM59.4652 6.14695L58.8094 8.72781C61.6628 9.45285 64.4976 9.0392 67.1958 7.6524L65.9785 5.28404L64.7612 2.91568C63.0884 3.77545 61.581 3.93708 60.121 3.56608L59.4652 6.14695ZM65.9785 5.28404L67.1958 7.6524C68.6636 6.89797 69.9504 6.89233 71.3199 7.55451L72.4791 5.15715L73.6382 2.7598C70.7113 1.34459 67.6643 1.42354 64.7612 2.91568L65.9785 5.28404ZM72.4791 5.15715L71.3199 7.55451C73.8615 8.78339 76.5035 9.3153 79.2008 9.06605L78.9558 6.41446L78.7108 3.76288C77.069 3.9146 75.3931 3.6083 73.6382 2.7598L72.4791 5.15715ZM78.9558 6.41446L79.2008 9.06605C81.4139 8.86155 83.6275 8.60213 85.8416 8.28784L85.4673 5.65139L85.0931 3.01494C82.9643 3.31711 80.8369 3.56641 78.7108 3.76288L78.9558 6.41446ZM85.4673 5.65139L85.8416 8.28784C87.8887 7.99725 89.9304 7.85457 91.9677 7.85903L91.9736 5.19616L91.9794 2.53328C89.6846 2.52826 87.3888 2.68906 85.0931 3.01494L85.4673 5.65139ZM91.9736 5.19616L91.9677 7.85903C94.0006 7.86348 96.032 8.0198 98.0631 8.32858L98.4633 5.69595L98.8636 3.06332C96.5737 2.7152 94.2786 2.53832 91.9794 2.53328L91.9736 5.19616ZM98.4633 5.69595L98.0631 8.32858C100.359 8.67756 102.66 8.84742 104.965 8.83751L104.953 6.17466L104.942 3.5118C102.915 3.52052 100.889 3.37124 98.8636 3.06332L98.4633 5.69595ZM104.953 6.17466L104.965 8.83751C107.329 8.82736 109.69 8.55645 112.047 8.02872L111.465 5.43021L110.883 2.8317C108.89 3.27794 106.911 3.50334 104.942 3.5118L104.953 6.17466ZM111.465 5.43021L112.047 8.02872C113.815 7.63276 115.557 7.65646 117.309 8.09925L117.962 5.5176L118.614 2.93594C116.052 2.28824 113.464 2.25368 110.883 2.8317L111.465 5.43021ZM117.962 5.5176L117.309 8.09925C119.493 8.65139 121.678 9.16698 123.864 9.64599L124.434 7.04484L125.004 4.44368C122.874 3.97688 120.744 3.4743 118.614 2.93594L117.962 5.5176ZM124.434 7.04484L123.864 9.64599C126.591 10.2438 129.316 9.95463 131.964 8.85571L130.943 6.39618L129.923 3.93666C128.207 4.64843 126.592 4.79173 125.004 4.44368L124.434 7.04484ZM130.943 6.39618L131.964 8.85571C133.635 8.16235 135.2 8.06383 136.753 8.48471L137.45 5.91453L138.146 3.34434C135.387 2.59673 132.615 2.81932 129.923 3.93666L130.943 6.39618ZM137.45 5.91453L136.753 8.48471C139.246 9.16022 141.769 9.33079 144.3 8.98663L143.941 6.34803L143.582 3.70944C141.771 3.95575 139.966 3.83732 138.146 3.34434L137.45 5.91453ZM143.941 6.34803L144.3 8.98663C145.989 8.75686 147.688 8.96782 149.438 9.66593L150.425 7.19262L151.411 4.71931C148.859 3.70083 146.235 3.34873 143.582 3.70944L143.941 6.34803ZM150.425 7.19262L149.438 9.66593C152.336 10.822 155.294 10.6369 158.116 9.2308L156.929 6.84733L155.742 4.46385C154.194 5.23477 152.816 5.27986 151.411 4.71931L150.425 7.19262ZM156.929 6.84733L158.116 9.2308C159.823 8.38049 161.383 8.18751 162.889 8.508L163.444 5.90343L163.998 3.29886C161.188 2.7009 158.405 3.13719 155.742 4.46385L156.929 6.84733ZM163.444 5.90343L162.889 8.508C165.049 8.96741 167.208 9.4257 169.367 9.88288L169.918 7.27776L170.47 4.67264C168.313 4.21583 166.155 3.7579 163.998 3.29886L163.444 5.90343ZM169.918 7.27776L169.367 9.88288C171.587 10.353 173.81 10.741 176.035 11.0469L176.397 8.40884L176.76 5.77076C174.663 5.48251 172.566 5.11653 170.47 4.67264L169.918 7.27776ZM176.397 8.40884L176.035 11.0469C178.326 11.3619 180.622 11.505 182.923 11.4758L182.889 8.81313L182.855 6.15046C180.822 6.1763 178.79 6.04989 176.76 5.77076L176.397 8.40884ZM182.889 8.81313L182.923 11.4758C185.176 11.4472 187.431 11.3082 189.686 11.0592L189.394 8.41239L189.102 5.76559C187.017 5.99582 184.934 6.12403 182.855 6.15046L182.889 8.81313ZM189.394 8.41239L189.686 11.0592C191.638 10.8437 193.582 10.871 195.524 11.1408L195.891 8.50323L196.257 5.86568C193.878 5.53514 191.491 5.5018 189.102 5.76559L189.394 8.41239ZM195.891 8.50323L195.524 11.1408C197.93 11.475 200.343 11.4733 202.757 11.1367L202.389 8.49931L202.022 5.86195C200.093 6.13096 198.173 6.13186 196.257 5.86568L195.891 8.50323ZM202.389 8.49931L202.757 11.1367C204.709 10.8645 206.652 10.8387 208.59 11.0579L208.889 8.41189L209.188 5.76588C206.803 5.49608 204.412 5.52856 202.022 5.86195L202.389 8.49931ZM208.889 8.41189L208.59 11.0579C210.994 11.3298 213.403 11.2725 215.81 10.8885L215.39 8.25889L214.971 5.62926C213.034 5.93826 211.109 5.98304 209.188 5.76588L208.889 8.41189ZM215.39 8.25889L215.81 10.8885C217.648 10.5952 219.474 10.6515 221.306 11.06L221.885 8.46093L222.465 5.86189C219.981 5.3079 217.477 5.2295 214.971 5.62926L215.39 8.25889ZM221.885 8.46093L221.306 11.06C224.031 11.6678 226.755 11.3911 229.405 10.304L228.394 7.84034L227.384 5.3767C225.67 6.07949 224.055 6.21652 222.465 5.86189L221.885 8.46093ZM228.394 7.84034L229.405 10.304C231.125 9.59832 232.748 9.45383 234.345 9.79657L234.904 7.19304L235.463 4.5895C232.743 4.00545 230.027 4.29249 227.384 5.3767L228.394 7.84034ZM234.904 7.19304L234.345 9.79657C236.593 10.2793 238.845 10.6414 241.101 10.8826L241.384 8.23475L241.667 5.58695C239.599 5.36593 237.531 5.03361 235.463 4.5895L234.904 7.19304ZM241.384 8.23475L241.101 10.8826C243.302 11.1177 245.503 11.3047 247.706 11.4433L247.873 8.78569L248.04 6.12807C245.915 5.9943 243.791 5.81393 241.667 5.58695L241.384 8.23475ZM247.873 8.78569L247.706 11.4433C249.78 11.5739 251.854 11.8094 253.927 12.1502L254.359 9.52259L254.791 6.89497C252.544 6.52565 250.294 6.26992 248.04 6.12807L247.873 8.78569ZM254.359 9.52259L253.927 12.1502C256.455 12.5657 258.99 12.4518 261.509 11.8205L260.862 9.23748L260.215 6.65445C258.383 7.11338 256.583 7.18954 254.791 6.89497L254.359 9.52259ZM260.862 9.23748L261.509 11.8205C263.474 11.3283 265.42 11.0935 267.352 11.1096L267.374 8.44685L267.396 5.78406C264.997 5.76407 262.602 6.05644 260.215 6.65445L260.862 9.23748ZM267.374 8.44685L267.352 11.1096C269.42 11.1269 271.486 11.2578 273.552 11.5026L273.865 8.85821L274.179 6.21384C271.921 5.94624 269.66 5.80292 267.396 5.78406L267.374 8.44685ZM273.865 8.85821L273.552 11.5026C275.809 11.77 278.068 11.9151 280.33 11.9375L280.357 9.27476L280.383 6.61201C278.314 6.59147 276.246 6.45881 274.179 6.21384L273.865 8.85821ZM280.357 9.27476L280.33 11.9375C282.458 11.9586 284.585 12.0254 286.711 12.1379L286.852 9.47872L286.992 6.81956C284.79 6.70307 282.587 6.63389 280.383 6.61201L280.357 9.27476ZM286.852 9.47872L286.711 12.1379C288.893 12.2533 291.075 12.3469 293.258 12.4186L293.345 9.75716L293.433 7.09571C291.285 7.02514 289.139 6.93309 286.992 6.81956L286.852 9.47872ZM293.345 9.75716L293.258 12.4186C295.716 12.4994 298.168 12.1789 300.602 11.4707L299.858 8.91381L299.114 6.35695C297.194 6.91552 295.304 7.15721 293.433 7.09571L293.345 9.75716ZM299.858 8.91381L300.602 11.4707C302.481 10.924 304.325 10.7343 306.15 10.8842L306.368 8.23029L306.586 5.57635C304.085 5.37085 301.589 5.63689 299.114 6.35695L299.858 8.91381ZM306.368 8.23029L306.15 10.8842C307.955 11.0325 309.357 11.5095 310.45 12.2232L311.906 9.99323L313.361 7.76324C311.398 6.48177 309.107 5.78346 306.586 5.57635L306.368 8.23029ZM311.906 9.99323L310.45 12.2232C310.79 12.4446 310.95 12.6673 311.045 12.9059C311.151 13.1745 311.237 13.6343 311.14 14.3915L313.781 14.7316L316.422 15.0718C316.603 13.6676 316.516 12.257 315.997 10.9461C315.466 9.60527 314.55 8.53944 313.361 7.76324L311.906 9.99323ZM313.781 14.7316L311.14 14.3915C310.857 16.5873 310.618 18.7841 310.422 20.9818L313.075 21.2178L315.727 21.4538C315.916 19.3259 316.148 17.1986 316.422 15.0718L313.781 14.7316ZM313.075 21.2178L310.422 20.9818C310.19 23.5894 310.599 26.1757 311.599 28.7105L314.076 27.7335L316.553 26.7565C315.833 24.9294 315.574 23.1719 315.727 21.4538L313.075 21.2178ZM314.076 27.7335L311.599 28.7105C312.181 30.1867 312.134 31.578 311.414 33.0702L313.812 34.2273L316.21 35.3844C317.563 32.5801 317.692 29.6422 316.553 26.7565L314.076 27.7335ZM313.812 34.2273L311.414 33.0702C310.039 35.92 309.986 38.9002 311.26 41.7962L313.698 40.7237L316.135 39.6513C315.489 38.182 315.512 36.8312 316.21 35.3844L313.812 34.2273ZM313.698 40.7237L311.26 41.7962C311.898 43.2461 311.867 44.5803 311.142 46.0249L313.522 47.2191L315.902 48.4133C317.332 45.5628 317.418 42.5667 316.135 39.6513L313.698 40.7237ZM313.522 47.2191L311.142 46.0249C309.886 48.5283 309.266 51.127 309.362 53.7882L312.024 53.6917L314.685 53.5952C314.624 51.9214 315.003 50.2051 315.902 48.4133L313.522 47.2191ZM312.024 53.6917L309.362 53.7882C309.433 55.7377 309.238 57.3106 308.849 58.559L311.391 59.351L313.934 60.143C314.545 58.1806 314.771 55.9807 314.685 53.5952L312.024 53.6917ZM311.391 59.351L308.849 58.559C308.828 58.6256 308.809 58.6686 308.796 58.6935C308.79 58.706 308.785 58.7143 308.782 58.7193C308.78 58.7217 308.779 58.7235 308.778 58.7246C308.777 58.7256 308.777 58.7262 308.777 58.7262C308.777 58.7262 308.777 58.7258 308.778 58.7251C308.778 58.7244 308.779 58.7235 308.78 58.7224C308.783 58.7201 308.785 58.7178 308.788 58.7158C308.793 58.711 308.794 58.7118 308.785 58.7166C308.741 58.7394 308.444 58.8656 307.66 58.788L307.398 61.4379L307.135 64.0878C308.514 64.2243 309.963 64.1097 311.251 63.4368C312.622 62.7207 313.501 61.5333 313.934 60.143L311.391 59.351ZM307.398 61.4379L307.66 58.788C305.662 58.5901 303.661 58.2053 301.654 57.6305L300.921 60.1904L300.187 62.7503C302.492 63.4106 304.808 63.8574 307.135 64.0878L307.398 61.4379ZM300.921 60.1904L301.654 57.6305C298.849 56.8269 296.033 57.0894 293.317 58.3149L294.413 60.7421L295.508 63.1692C297.159 62.4241 298.681 62.3188 300.187 62.7503L300.921 60.1904ZM294.413 60.7421L293.317 58.3149C291.926 58.9431 290.648 58.8979 289.217 58.0999L287.92 60.4257L286.623 62.7515C289.483 64.3459 292.534 64.5117 295.508 63.1692L294.413 60.7421ZM287.92 60.4257L289.217 58.0999C286.398 56.5285 283.388 56.2919 280.421 57.5062L281.429 59.9707L282.438 62.4351C283.834 61.8637 285.15 61.9305 286.623 62.7515L287.92 60.4257ZM281.429 59.9707L280.421 57.5062C278.505 58.2903 276.639 58.6987 274.813 58.7627L274.906 61.424L274.999 64.0852C277.507 63.9973 279.991 63.4368 282.438 62.4351L281.429 59.9707ZM274.906 61.424L274.813 58.7627C272.705 58.8367 270.599 58.8395 268.494 58.7712L268.407 61.4327L268.321 64.0941C270.546 64.1663 272.772 64.1633 274.999 64.0852L274.906 61.424ZM268.407 61.4327L268.494 58.7712C266.553 58.7082 264.608 58.4025 262.654 57.8479L261.927 60.4096L261.2 62.9713C263.557 63.6403 265.932 64.0167 268.321 64.0941L268.407 61.4327ZM261.927 60.4096L262.654 57.8479C260.418 57.2134 258.178 56.6907 255.933 56.2806L255.454 58.9001L254.976 61.5196C257.049 61.8985 259.124 62.3823 261.2 62.9713L261.927 60.4096ZM255.454 58.9001L255.933 56.2806C253.249 55.7902 250.574 56.0941 247.963 57.1286L248.944 59.6043L249.924 62.0799C251.675 61.3864 253.341 61.2208 254.976 61.5196L255.454 58.9001ZM248.944 59.6043L247.963 57.1286C246.067 57.8795 244.225 58.2388 242.42 58.2405L242.423 60.9034L242.425 63.5663C244.953 63.5639 247.458 63.057 249.924 62.0799L248.944 59.6043ZM242.423 60.9034L242.42 58.2405C240.62 58.2423 238.799 57.8844 236.943 57.1356L235.947 59.6052L234.951 62.0749C237.397 63.0612 239.893 63.5688 242.425 63.5663L242.423 60.9034ZM235.947 59.6052L236.943 57.1356C234.502 56.1515 232.012 55.6367 229.487 55.6213L229.471 58.2841L229.455 60.9469C231.262 60.9579 233.089 61.3239 234.951 62.0749L235.947 59.6052ZM229.471 58.2841L229.487 55.6213C226.934 55.6057 224.409 56.1343 221.928 57.1651L222.95 59.6241L223.972 62.0832C225.854 61.3008 227.676 60.9361 229.455 60.9469L229.471 58.2841ZM222.95 59.6241L221.928 57.1651C220.095 57.9266 218.337 58.2169 216.625 58.0925L216.432 60.7484L216.239 63.4043C218.853 63.5941 221.441 63.1348 223.972 62.0832L222.95 59.6241ZM216.432 60.7484L216.625 58.0925C214.596 57.9452 212.566 57.6439 210.534 57.1872L209.95 59.7853L209.366 62.3833C211.65 62.8967 213.942 63.2375 216.239 63.4043L216.432 60.7484ZM209.95 59.7853L210.534 57.1872C208.105 56.6412 205.658 56.4845 203.203 56.7216L203.459 59.3721L203.715 62.0227C205.6 61.8406 207.48 61.9593 209.366 62.3833L209.95 59.7853ZM203.459 59.3721L203.203 56.7216C201.218 56.9133 199.239 56.8965 197.263 56.6715L196.961 59.3173L196.66 61.9631C199.008 62.2303 201.36 62.2501 203.715 62.0227L203.459 59.3721ZM196.961 59.3173L197.263 56.6715C194.845 56.3962 192.423 56.4708 190.003 56.8918L190.46 59.5153L190.916 62.1387C192.842 61.8036 194.754 61.7461 196.66 61.9631L196.961 59.3173ZM190.46 59.5153L190.003 56.8918C188.08 57.2265 186.171 57.2806 184.268 57.0573L183.958 59.702L183.648 62.3467C186.068 62.6308 188.494 62.5604 190.916 62.1387L190.46 59.5153ZM183.958 59.702L184.268 57.0573C181.917 56.7814 179.561 56.7588 177.202 56.9894L177.461 59.6396L177.72 62.2899C179.7 62.0963 181.675 62.1153 183.648 62.3467L183.958 59.702ZM177.461 59.6396L177.202 56.9894C175.313 57.174 173.429 57.061 171.54 56.6463L170.969 59.2472L170.398 61.8482C172.825 62.3808 175.269 62.5295 177.72 62.2899L177.461 59.6396ZM170.969 59.2472L171.54 56.6463C169.197 56.1321 166.843 55.8747 164.48 55.8771L164.483 58.5399L164.486 61.2028C166.455 61.2009 168.425 61.415 170.398 61.8482L170.969 59.2472ZM164.483 58.5399L164.48 55.8771C162.501 55.879 160.523 55.674 158.541 55.2596L157.996 57.8661L157.451 60.4726C159.786 60.961 162.132 61.2051 164.486 61.2028L164.483 58.5399ZM157.996 57.8661L158.541 55.2596C156.275 54.7857 154.003 54.4575 151.726 54.2758L151.514 56.9303L151.302 59.5847C153.351 59.7482 155.401 60.0439 157.451 60.4726L157.996 57.8661ZM151.514 56.9303L151.726 54.2758C149.379 54.0886 147.03 54.1438 144.679 54.4403L145.013 57.0823L145.346 59.7242C147.338 59.4729 149.322 59.4267 151.302 59.5847L151.514 56.9303ZM145.013 57.0823L144.679 54.4403C142.569 54.7066 140.461 54.8992 138.354 55.0181L138.504 57.6768L138.654 60.3354C140.884 60.2095 143.115 60.0057 145.346 59.7242L145.013 57.0823ZM138.504 57.6768L138.354 55.0181C136.056 55.1478 133.759 55.4453 131.464 55.9092L131.991 58.5193L132.519 61.1294C134.571 60.7148 136.615 60.4505 138.654 60.3354L138.504 57.6768ZM131.991 58.5193L131.464 55.9092C129.487 56.3086 127.524 56.4745 125.57 56.4105L125.483 59.072L125.396 61.7334C127.772 61.8112 130.148 61.6086 132.519 61.1294L131.991 58.5193ZM125.483 59.072L125.57 56.4105C123.345 56.3377 121.119 56.3405 118.891 56.419L118.985 59.0802L119.079 61.7415C121.186 61.6672 123.292 61.6645 125.396 61.7334L125.483 59.072ZM118.985 59.0802L118.891 56.419C117.005 56.4855 115.115 56.2587 113.214 55.7295L112.5 58.2949L111.786 60.8603C114.196 61.531 116.63 61.8277 119.079 61.7415L118.985 59.0802ZM112.5 58.2949L113.214 55.7295C110.723 55.0363 108.201 54.8477 105.668 55.175L106.01 57.8159L106.351 60.4568C108.161 60.2229 109.966 60.3537 111.786 60.8603L112.5 58.2949ZM106.01 57.8159L105.668 55.175C103.639 55.4373 101.615 55.5343 99.5953 55.4665L99.5061 58.1279L99.4168 60.7893C101.727 60.8668 104.039 60.7557 106.351 60.4568L106.01 57.8159ZM99.5061 58.1279L99.5953 55.4665C97.4063 55.3931 95.2167 55.3495 93.0267 55.3358L93.0099 57.9986L92.9932 60.6614C95.1349 60.6749 97.2761 60.7175 99.4168 60.7893L99.5061 58.1279ZM93.0099 57.9986L93.0267 55.3358C90.8111 55.3218 88.5947 55.3698 86.3774 55.4796L86.5091 58.1392L86.6408 60.7989C88.7595 60.6939 90.8769 60.6481 92.9932 60.6614L93.0099 57.9986ZM86.5091 58.1392L86.3774 55.4796C84.4037 55.5774 82.4329 55.4602 80.4614 55.1268L80.0174 57.7524L79.5734 60.378C81.9215 60.7751 84.2785 60.9159 86.6408 60.7989L86.5091 58.1392ZM80.0174 57.7524L80.4614 55.1268C78.4177 54.7812 76.372 54.2961 74.3237 53.6701L73.5454 56.2167L72.7671 58.7633C75.0284 59.4544 77.2973 59.9931 79.5734 60.378L80.0174 57.7524ZM73.5454 56.2167L74.3237 53.6701C71.5159 52.812 68.6867 53.0381 65.956 54.2537L67.0389 56.6865L68.1219 59.1192C69.7569 58.3914 71.2654 58.3043 72.7671 58.7633L73.5454 56.2167ZM67.0389 56.6865L65.956 54.2537C64.3442 54.9712 62.8606 55.0386 61.3722 54.5449L60.5339 57.0724L59.6956 59.5999C62.5149 60.535 65.368 60.3451 68.1219 59.1192L67.0389 56.6865ZM60.5339 57.0724L61.3722 54.5449C58.8127 53.696 56.2036 53.4901 53.5842 53.9495L54.0441 56.5723L54.5041 59.1952C56.23 58.8925 57.9475 59.0201 59.6956 59.5999L60.5339 57.0724ZM54.0441 56.5723L53.5842 53.9495C51.6702 54.2851 49.7707 54.3317 47.8765 54.0926L47.5429 56.7345L47.2093 59.3764C49.6381 59.6831 52.0726 59.6216 54.5041 59.1952L54.0441 56.5723ZM47.5429 56.7345L47.8765 54.0926C45.4715 53.7889 43.0602 53.818 40.6496 54.1784L41.0432 56.812L41.4369 59.4456C43.3696 59.1567 45.2915 59.1342 47.2093 59.3764L47.5429 56.7345ZM41.0432 56.812L40.6496 54.1784C38.9822 54.4276 37.306 54.222 35.5726 53.5088L34.5593 55.9714L33.546 58.4339C36.1144 59.4907 38.7608 59.8456 41.4369 59.4456L41.0432 56.812ZM34.5593 55.9714L35.5726 53.5088C32.734 52.3409 29.8149 52.4022 26.9884 53.6433L28.059 56.0815L29.1296 58.5197C30.6684 57.844 32.0828 57.8319 33.546 58.4339L34.5593 55.9714ZM28.059 56.0815L26.9884 53.6433C25.4924 54.3002 24.1175 54.2887 22.6653 53.6269L21.5611 56.0501L20.457 58.4733C23.3033 59.7703 26.2603 59.7796 29.1296 58.5197L28.059 56.0815ZM21.5611 56.0501L22.6653 53.6269C20.0918 52.4543 17.4216 52.0208 14.7093 52.4023L15.0802 55.0393L15.4511 57.6762C17.0816 57.4468 18.7319 57.6873 20.457 58.4733L21.5611 56.0501ZM15.0802 55.0393L14.7093 52.4023C12.8772 52.66 11.0537 52.5674 9.22089 52.1186L8.58755 54.7051L7.9542 57.2916C10.4354 57.8992 12.9404 58.0293 15.4511 57.6762L15.0802 55.0393ZM8.58755 54.7051L9.22089 52.1186C8.28236 51.8888 7.7205 51.6495 7.42008 51.4672C7.12124 51.2857 7.28317 51.2885 7.38702 51.5995L4.8612 52.4429L2.33539 53.2862C2.76643 54.5772 3.71301 55.447 4.65628 56.0196C5.59798 56.5913 6.73569 56.9932 7.9542 57.2916L8.58755 54.7051ZM4.8612 52.4429L7.38702 51.5995C7.07472 50.6642 6.59768 49.1215 5.95053 46.9473L3.39831 47.7069L0.846084 48.4666C1.49507 50.647 1.99329 52.2616 2.33539 53.2862L4.8612 52.4429ZM3.39831 47.7069L5.95053 46.9473C5.3958 45.0836 5.21539 43.2581 5.38935 41.4526L2.73874 41.1972L0.0881396 40.9418C-0.154622 43.4614 0.104673 45.9757 0.846084 48.4666L3.39831 47.7069ZM2.73874 41.1972L5.38935 41.4526C5.59673 39.3003 5.81666 37.1482 6.04916 34.9963L3.40169 34.7102L0.754215 34.4242C0.519513 36.5965 0.297487 38.769 0.0881396 40.9418L2.73874 41.1972ZM3.40169 34.7102L6.04916 34.9963C6.28999 32.7672 6.44558 30.5362 6.51585 28.3034L3.85429 28.2196L1.19273 28.1359C1.12673 30.233 0.980582 32.329 0.754215 34.4242L3.40169 34.7102ZM3.85429 28.2196L6.51585 28.3034C6.58323 26.1624 6.67954 24.0219 6.80477 21.8818L4.14644 21.7263L1.48811 21.5707C1.36008 23.7586 1.26162 25.9469 1.19273 28.1359L3.85429 28.2196ZM4.14644 21.7263L6.80477 21.8818C6.9349 19.6581 6.98996 17.4331 6.96994 15.2067L4.30717 15.2306L1.6444 15.2546C1.66333 17.3612 1.61124 19.4665 1.48811 21.5707L4.14644 21.7263ZM4.30717 15.2306L6.96994 15.2067C6.94852 12.8234 6.63864 10.4439 6.04603 8.07218L3.46257 8.71771L0.87912 9.36323C1.37368 11.3425 1.62687 13.3049 1.6444 15.2546L4.30717 15.2306ZM3.46257 8.71771L6.04603 8.07218C5.79442 7.06523 5.71646 6.43999 5.71579 6.10968C5.71546 5.94788 5.73515 5.97238 5.69328 6.10593C5.64813 6.24993 5.49592 6.62328 5.07767 6.94481L3.4547 4.83368L1.83173 2.72254C0.501545 3.74514 0.388457 5.34057 0.390038 6.12048C0.391993 7.08484 0.587136 8.19468 0.87912 9.36323L3.46257 8.71771ZM3.4547 4.83368L5.07767 6.94481C4.98279 7.01776 5.10503 6.91003 5.74497 6.68911C6.31081 6.49377 7.10264 6.26881 8.14733 6.01767L7.52491 3.42855L6.9025 0.839432C5.77205 1.11119 4.79794 1.38186 4.00705 1.65489C3.29025 1.90235 2.46495 2.23574 1.83173 2.72254L3.4547 4.83368Z" fill="black"/>
<path d="M57.6938 35.1812L57.6079 39.5596C57.6027 39.8647 57.5112 40.144 57.3334 40.3975C57.0847 40.747 56.728 40.9177 56.2634 40.9097C55.7157 40.9002 55.2896 40.671 54.9853 40.2218C54.7486 39.871 54.6336 39.4979 54.6404 39.1027C54.6669 37.5635 54.7553 35.252 54.9055 32.1682C55.0557 29.0845 55.1441 26.773 55.1706 25.2337C55.1773 24.8454 55.3217 24.515 55.6038 24.2424C55.886 23.9699 56.235 23.8372 56.651 23.8443C57.067 23.8515 57.4079 23.9961 57.6735 24.2781C57.9461 24.5602 58.079 24.8954 58.0723 25.2837C58.0616 25.9077 58.0159 26.7496 57.9352 27.8094C57.8376 29.0422 57.7781 29.8839 57.7564 30.3343C58.2497 29.8851 60.0821 27.9885 63.2538 24.6447C63.5787 24.3035 63.9492 24.1365 64.3652 24.1437C64.7604 24.1505 65.1012 24.2951 65.3877 24.5774C65.681 24.8599 65.8243 25.1987 65.8175 25.594C65.8101 26.0238 64.9658 27.1259 63.2846 28.9002C62.0414 30.2035 60.7327 31.4883 59.3585 32.7547C60.1019 33.4819 60.8489 34.2091 61.5993 34.9364C62.4727 35.7698 63.2584 36.4561 63.9566 36.9953C64.3058 37.2579 64.6838 37.4586 65.0906 37.5974C65.8284 37.8459 66.1915 38.3064 66.18 38.979C66.1748 39.2771 66.0763 39.5633 65.8843 39.8374C65.6213 40.2074 65.261 40.3884 64.8034 40.3806C63.8119 40.3635 62.5369 39.693 60.9783 38.3692C60.5135 37.9728 59.4187 36.9102 57.6938 35.1812ZM72.8218 40.5291C71.1647 40.5005 69.816 40.082 68.7757 39.2734C67.6259 38.3797 67.0647 37.139 67.0921 35.5512C67.1223 33.797 67.6089 32.3211 68.552 31.1237C69.6013 29.7962 70.9962 29.1475 72.7365 29.1775C73.9429 29.1983 74.9415 29.4097 75.7321 29.8117C76.7703 30.3428 77.28 31.1492 77.2614 32.2308C77.2483 32.9935 76.8102 33.6622 75.9472 34.2368C75.5543 34.5005 74.7674 34.8823 73.5867 35.3822L70.0551 36.8714C70.3817 37.2377 70.7792 37.515 71.2476 37.7034C71.716 37.8918 72.2552 37.9913 72.8654 38.0018C73.7945 38.0178 74.5847 37.8407 75.2361 37.4704C75.8174 37.1406 76.2814 36.9787 76.6281 36.9847C77.3492 36.9971 77.7037 37.3534 77.6917 38.0537C77.6781 38.8441 77.088 39.479 75.9215 39.9583C74.9436 40.3576 73.9104 40.5478 72.8218 40.5291ZM72.6931 31.6944C72.0483 31.6833 71.4934 31.8887 71.0284 32.3107C70.5633 32.7327 70.1848 33.3712 69.8926 34.2262C70.682 33.8999 71.4678 33.5771 72.2501 33.2576C73.1934 32.8508 73.9455 32.4719 74.5064 32.1209C74.0464 31.8494 73.442 31.7073 72.6931 31.6944ZM75.6091 24.8783C75.2373 25.1216 74.7758 25.5367 74.2248 26.1237C73.6455 26.7379 73.1873 27.1635 72.8503 27.4005C72.5764 27.5969 72.2766 27.6923 71.9507 27.6867C71.5832 27.6803 71.2663 27.557 71 27.3166C70.7336 27.0762 70.6031 26.8 70.6085 26.4879C70.6129 26.2314 70.7634 25.9531 71.0598 25.653C71.3204 25.4217 71.5776 25.1903 71.8312 24.9589C72.5871 24.1605 73.0319 23.7034 73.1657 23.5878C73.8064 23.0301 74.3695 22.7555 74.8548 22.7638C75.2223 22.7702 75.5357 22.8969 75.795 23.1442C76.0612 23.3915 76.1917 23.6677 76.1864 23.9728C76.1803 24.3264 75.9879 24.6282 75.6091 24.8783ZM86.9601 32.6788C86.2736 32.6669 85.8661 32.3721 85.7373 31.7942C85.4608 31.7409 85.1769 31.7117 84.8857 31.7067C83.2147 31.6779 82.3753 31.8923 82.3674 32.35C82.3628 32.6204 82.8592 32.993 83.8567 33.468C85.2186 34.1226 86.1393 34.6309 86.6185 34.9928C87.6113 35.7382 88.0999 36.5685 88.0841 37.4837C88.0636 38.6763 87.4933 39.5715 86.3733 40.1695C85.4704 40.6464 84.3672 40.8736 83.0637 40.8511C82.1415 40.8353 81.3015 40.6786 80.5437 40.3812C79.5104 39.975 79.0002 39.394 79.0132 38.6383C79.0252 37.9449 79.4437 37.6053 80.2688 37.6196C80.5877 37.625 81.0471 37.7335 81.6468 37.945C82.2466 38.1565 82.7094 38.265 83.0353 38.2706C84.4428 38.2948 85.1549 38.0228 85.1716 37.4543C85.1777 37.1007 84.6957 36.7005 83.7254 36.2538C82.308 35.5983 81.4006 35.1284 81.0032 34.8441C80.0374 34.1408 79.563 33.2969 79.58 32.3123C79.604 30.9187 80.3586 29.9919 81.8438 29.532C82.7154 29.2627 84.0352 29.1432 85.8032 29.1737C86.4966 29.1856 87.0081 29.2846 87.3378 29.4706C87.7913 29.7212 88.0124 30.1723 88.0011 30.8241C87.9796 32.0721 87.6326 32.6903 86.9601 32.6788ZM98.9678 32.5527C98.367 33.2081 97.6408 34.0938 96.7893 35.2096C95.6044 36.7567 94.8667 37.708 94.5762 38.0637C94.9994 38.0571 95.3497 38.0562 95.627 38.061C95.9044 38.0657 96.3056 38.1247 96.8308 38.2377C97.363 38.344 97.7643 38.3995 98.0347 38.4041C98.4507 38.4113 98.7917 38.5489 99.0575 38.8171C99.3305 39.0784 99.4635 39.4067 99.4567 39.8019C99.4499 40.1971 99.3091 40.5206 99.0343 40.7725C98.7594 41.0244 98.4105 41.1467 97.9876 41.1394C97.7103 41.1346 97.3055 41.0791 96.7733 40.9729C96.248 40.8667 95.8501 40.8113 95.5797 40.8066C94.0266 40.7799 92.5718 40.8831 91.2154 41.1164C91.0345 41.148 90.8817 41.1627 90.7569 41.1605C90.3755 41.1539 90.0514 41.0443 89.7846 40.8317C89.4835 40.5976 89.3361 40.2934 89.3426 39.919C89.3502 39.4752 89.5756 39.0734 90.0188 38.7134C91.7704 37.2802 93.6134 35.1723 95.5479 32.3897C95.1176 32.4031 94.7049 32.4064 94.3097 32.3996C93.2489 32.3813 92.1755 32.2866 91.0895 32.1153C90.2387 31.9827 89.8201 31.5247 89.8336 30.7412C89.8401 30.3598 89.9775 30.0362 90.2456 29.7704C90.5138 29.5045 90.8524 29.3751 91.2614 29.3821C91.6012 29.388 92.1136 29.435 92.7987 29.5231C93.4909 29.6043 94.0103 29.648 94.357 29.6539C94.8285 29.662 95.5362 29.6465 96.4801 29.6073C97.4241 29.5611 98.1319 29.5421 98.6034 29.5502C99.4701 29.5651 99.8973 29.9262 99.8851 30.6334C99.8744 31.2575 99.5686 31.8972 98.9678 32.5527ZM105.103 35.7274C105.096 36.1226 105.096 36.7572 105.102 37.6312C105.114 38.5053 105.117 39.1399 105.11 39.5351C105.103 39.9373 104.963 40.2678 104.688 40.5266C104.413 40.7785 104.067 40.9008 103.651 40.8937C103.235 40.8865 102.894 40.7523 102.628 40.4911C102.362 40.223 102.233 39.8878 102.24 39.4857C102.247 39.0905 102.244 38.4558 102.231 37.5817C102.225 36.7077 102.226 36.0731 102.233 35.6779C102.243 35.0608 102.291 34.2883 102.377 33.3604C102.462 32.4325 102.51 31.66 102.521 31.043C102.527 30.6408 102.668 30.3138 102.943 30.0619C103.218 29.8031 103.564 29.6773 103.98 29.6844C104.396 29.6916 104.737 29.8292 105.002 30.0974C105.268 30.3586 105.398 30.6903 105.391 31.0924C105.38 31.7095 105.332 32.482 105.247 33.4099C105.162 34.3378 105.114 35.1103 105.103 35.7274ZM106.519 25.4108C106.147 25.654 105.686 26.0692 105.135 26.6561C104.555 27.2704 104.097 27.6959 103.76 27.9329C103.486 28.1293 103.186 28.2247 102.86 28.2191C102.493 28.2128 102.176 28.0894 101.91 27.849C101.643 27.6086 101.513 27.3324 101.518 27.0204C101.523 26.7638 101.673 26.4855 101.97 26.1855C102.23 25.9542 102.487 25.7228 102.741 25.4913C103.497 24.6929 103.942 24.2359 104.075 24.1203C104.716 23.5626 105.279 23.2879 105.765 23.2963C106.132 23.3026 106.445 23.4294 106.705 23.6766C106.971 23.9239 107.101 24.2001 107.096 24.5052C107.09 24.8588 106.898 25.1607 106.519 25.4108ZM114.804 32.3989C114.659 32.3964 114.486 32.39 114.285 32.3796C114.091 32.3624 113.921 32.3525 113.775 32.35C113.491 32.3451 113.161 32.3672 112.786 32.4162C112.862 35.2195 112.893 37.051 112.878 37.9108C112.877 38.0009 112.877 38.1708 112.88 38.4206C112.883 38.6634 112.883 38.861 112.88 39.0136C112.853 40.6083 112.336 41.397 111.331 41.3797C110.95 41.3731 110.622 41.2496 110.349 41.009C110.048 40.7542 109.901 40.4395 109.908 40.0651C109.912 39.8155 109.929 39.4413 109.958 38.9424C109.988 38.4436 110.004 38.0693 110.009 37.8197C110.023 36.9808 109.992 35.1839 109.914 32.4291C109.485 32.4009 108.834 32.3342 107.962 32.229C107.097 32.117 106.671 31.6589 106.685 30.8546C106.692 30.4663 106.829 30.1393 107.097 29.8734C107.366 29.6075 107.708 29.4782 108.124 29.4853C108.38 29.4897 108.969 29.5415 109.89 29.6406C109.886 29.4186 109.875 29.0508 109.857 28.5373C109.836 28.093 109.828 27.7496 109.833 27.5069C109.839 27.1186 109.987 26.7987 110.276 26.547C110.564 26.2954 110.91 26.173 111.312 26.1799C112.338 26.1976 112.836 27.0697 112.807 28.7961L112.771 29.6486C113.202 29.5936 113.553 29.5684 113.823 29.5731C114.621 29.5868 115.164 29.6482 115.453 29.7572C116.005 29.9609 116.275 30.3886 116.264 31.0404C116.257 31.4356 116.116 31.7626 115.841 32.0214C115.566 32.2803 115.22 32.4061 114.804 32.3989ZM124.817 33.3308C124.131 33.319 123.723 33.0242 123.595 32.4463C123.318 32.393 123.034 32.3638 122.743 32.3588C121.072 32.33 120.233 32.5444 120.225 33.0021C120.22 33.2725 120.716 33.6451 121.714 34.1201C123.076 34.7747 123.996 35.283 124.476 35.6449C125.469 36.3903 125.957 37.2206 125.941 38.1358C125.921 39.3284 125.35 40.2236 124.231 40.8216C123.328 41.2985 122.224 41.5257 120.921 41.5032C119.999 41.4874 119.159 41.3307 118.401 41.0333C117.368 40.6271 116.857 40.0461 116.87 39.2904C116.882 38.597 117.301 38.2574 118.126 38.2716C118.445 38.2771 118.904 38.3856 119.504 38.5971C120.104 38.8085 120.567 38.9171 120.893 38.9227C122.3 38.9469 123.012 38.6749 123.029 38.1064C123.035 37.7528 122.553 37.3526 121.583 36.9059C120.165 36.2504 119.258 35.7805 118.86 35.4962C117.895 34.7929 117.42 33.949 117.437 32.9644C117.461 31.5708 118.216 30.644 119.701 30.1841C120.573 29.9148 121.892 29.7953 123.66 29.8258C124.354 29.8377 124.865 29.9367 125.195 30.1227C125.648 30.3733 125.87 30.8244 125.858 31.4762C125.837 32.7242 125.49 33.3424 124.817 33.3308ZM142.213 41.7243C140.556 41.6958 139.207 41.2772 138.167 40.4687C137.017 39.575 136.456 38.3342 136.483 36.7464C136.513 34.9923 137 33.5164 137.943 32.3189C138.992 30.9915 140.387 30.3428 142.128 30.3727C143.334 30.3935 144.332 30.6049 145.123 31.0069C146.161 31.5381 146.671 32.3444 146.652 33.4261C146.639 34.1888 146.201 34.8574 145.338 35.4321C144.945 35.6958 144.158 36.0776 142.978 36.5774L139.446 38.0667C139.773 38.433 140.17 38.7103 140.639 38.8987C141.107 39.0871 141.646 39.1866 142.256 39.1971C143.185 39.2131 143.976 39.036 144.627 38.6657C145.208 38.3359 145.672 38.174 146.019 38.1799C146.74 38.1923 147.095 38.5487 147.083 39.249C147.069 40.0394 146.479 40.6743 145.313 41.1535C144.335 41.5528 143.301 41.7431 142.213 41.7243ZM142.084 32.8896C141.439 32.8785 140.884 33.084 140.419 33.506C139.954 33.928 139.576 34.5665 139.284 35.4214C140.073 35.0952 140.859 34.7723 141.641 34.4529C142.584 34.0461 143.337 33.6672 143.897 33.3162C143.437 33.0447 142.833 32.9025 142.084 32.8896ZM156.691 31.0397C156.822 28.677 156.958 27.046 157.098 26.1467C157.23 25.3306 157.688 24.9293 158.471 24.9428C158.88 24.9498 159.207 25.0872 159.452 25.355C159.697 25.6228 159.817 25.9474 159.81 26.3287C159.793 27.3341 159.687 28.8303 159.494 30.8175C159.307 32.8048 159.205 34.3012 159.187 35.3065C159.145 37.761 159.197 39.4056 159.342 40.2404C159.361 40.3517 159.369 40.4524 159.368 40.5426C159.361 40.9239 159.217 41.237 158.935 41.4818C158.654 41.7197 158.329 41.8355 157.962 41.8292C157.449 41.8203 157.071 41.585 156.83 41.123C156.353 41.3992 155.861 41.6023 155.352 41.7322C154.844 41.8691 154.319 41.9329 153.778 41.9236C152.225 41.8968 150.944 41.3788 149.935 40.3697C148.905 39.3393 148.404 38.0407 148.431 36.4737C148.463 34.6086 149.016 33.1131 150.09 31.9872C151.163 30.8544 152.549 30.3026 154.248 30.3318C154.768 30.3408 155.232 30.4043 155.639 30.5223C156.046 30.6402 156.397 30.8127 156.691 31.0397ZM156.427 34.3123C156.205 33.8715 155.913 33.5405 155.549 33.3192C155.185 33.098 154.75 32.983 154.244 32.9742C153.218 32.9566 152.443 33.2415 151.92 33.8289C151.397 34.4094 151.125 35.2925 151.105 36.4781C151.092 37.227 151.358 37.8731 151.903 38.4165C152.449 38.96 153.089 39.238 153.824 39.2507C154.358 39.2599 154.765 39.2045 155.044 39.0844C155.233 39.0045 155.556 38.7881 156.012 38.4353C156.132 38.3402 156.248 38.2347 156.361 38.1188C156.353 37.7857 156.375 36.5169 156.427 34.3123ZM170.501 33.7849C169.9 34.4403 169.174 35.326 168.323 36.4418C167.138 37.9889 166.4 38.9402 166.11 39.2958C166.533 39.2893 166.883 39.2884 167.161 39.2931C167.438 39.2979 167.839 39.3568 168.364 39.4699C168.896 39.5762 169.298 39.6316 169.568 39.6363C169.984 39.6435 170.325 39.7811 170.591 40.0493C170.864 40.3106 170.997 40.6388 170.99 41.0341C170.983 41.4293 170.843 41.7528 170.568 42.0047C170.293 42.2566 169.944 42.3789 169.521 42.3716C169.244 42.3668 168.839 42.3113 168.307 42.205C167.781 42.0989 167.384 42.0435 167.113 42.0388C165.56 42.0121 164.105 42.1153 162.749 42.3486C162.568 42.3801 162.415 42.3948 162.29 42.3927C161.909 42.3861 161.585 42.2765 161.318 42.0638C161.017 41.8298 160.87 41.5255 160.876 41.1511C160.884 40.7074 161.109 40.3055 161.552 39.9456C163.304 38.5123 165.147 36.4044 167.081 33.6219C166.651 33.6353 166.238 33.6386 165.843 33.6318C164.782 33.6135 163.709 33.5187 162.623 33.3474C161.772 33.2149 161.354 32.7569 161.367 31.9734C161.374 31.592 161.511 31.2684 161.779 31.0025C162.047 30.7367 162.386 30.6073 162.795 30.6143C163.135 30.6202 163.647 30.6671 164.332 30.7552C165.024 30.8365 165.544 30.8801 165.89 30.8861C166.362 30.8942 167.07 30.8787 168.014 30.8394C168.958 30.7933 169.665 30.7743 170.137 30.7824C171.004 30.7973 171.431 31.1584 171.419 31.8656C171.408 32.4896 171.102 33.1294 170.501 33.7849ZM178.115 42.3428C176.458 42.3142 175.109 41.8957 174.069 41.0871C172.919 40.1934 172.358 38.9526 172.385 37.3649C172.415 35.6107 172.902 34.1348 173.845 32.9373C174.894 31.6099 176.289 30.9612 178.029 30.9912C179.236 31.0119 180.234 31.2233 181.025 31.6254C182.063 32.1565 182.573 32.9628 182.554 34.0445C182.541 34.8072 182.103 35.4759 181.24 36.0505C180.847 36.3142 180.06 36.696 178.88 37.1958L175.348 38.6851C175.675 39.0514 176.072 39.3287 176.541 39.5171C177.009 39.7055 177.548 39.805 178.158 39.8155C179.087 39.8315 179.878 39.6544 180.529 39.2841C181.11 38.9543 181.574 38.7924 181.921 38.7983C182.642 38.8108 182.997 39.1671 182.985 39.8674C182.971 40.6578 182.381 41.2927 181.214 41.772C180.237 42.1712 179.203 42.3615 178.115 42.3428ZM177.986 33.508C177.341 33.4969 176.786 33.7024 176.321 34.1244C175.856 34.5464 175.478 35.1849 175.186 36.0399C175.975 35.7136 176.761 35.3908 177.543 35.0713C178.486 34.6645 179.238 34.2856 179.799 33.9346C179.339 33.6631 178.735 33.5209 177.986 33.508ZM180.902 26.692C180.53 26.9353 180.069 27.3504 179.518 27.9374C178.938 28.5516 178.48 28.9772 178.143 29.2141C177.869 29.4106 177.57 29.506 177.244 29.5003C176.876 29.494 176.559 29.3706 176.293 29.1303C176.027 28.8899 175.896 28.6136 175.901 28.3016C175.906 28.0451 176.056 27.7668 176.353 27.4667C176.613 27.2354 176.871 27.004 177.124 26.7726C177.88 25.9741 178.325 25.5171 178.459 25.4015C179.099 24.8438 179.662 24.5692 180.148 24.5775C180.515 24.5839 180.829 24.7106 181.088 24.9578C181.354 25.2052 181.485 25.4814 181.479 25.7865C181.473 26.1401 181.281 26.4419 180.902 26.692ZM192.253 34.4924C191.567 34.4806 191.159 34.1858 191.03 33.6079C190.754 33.5546 190.47 33.5254 190.179 33.5204C188.508 33.4916 187.668 33.706 187.66 34.1636C187.656 34.4341 188.152 34.8067 189.15 35.2817C190.512 35.9363 191.432 36.4445 191.911 36.8065C192.904 37.5519 193.393 38.3821 193.377 39.2974C193.357 40.4899 192.786 41.3852 191.666 41.9832C190.763 42.4601 189.66 42.6873 188.357 42.6648C187.434 42.6489 186.594 42.4923 185.837 42.1949C184.803 41.7887 184.293 41.2077 184.306 40.452C184.318 39.7586 184.737 39.419 185.562 39.4332C185.881 39.4387 186.34 39.5472 186.94 39.7587C187.54 39.9701 188.002 40.0787 188.328 40.0843C189.736 40.1085 190.448 39.8364 190.465 39.268C190.471 38.9144 189.989 38.5142 189.018 38.0675C187.601 37.412 186.694 36.942 186.296 36.6578C185.33 35.9545 184.856 35.1106 184.873 34.126C184.897 32.7324 185.652 31.8056 187.137 31.3457C188.008 31.0764 189.328 30.9569 191.096 30.9874C191.79 30.9993 192.301 31.0983 192.631 31.2843C193.084 31.5348 193.305 31.986 193.294 32.6378C193.273 33.8858 192.926 34.504 192.253 34.4924ZM202.666 33.9124C202.521 33.9099 202.348 33.9034 202.147 33.893C201.953 33.8758 201.783 33.8659 201.637 33.8634C201.353 33.8585 201.023 33.8806 200.648 33.9296C200.724 36.7329 200.755 38.5644 200.741 39.4242C200.739 39.5143 200.739 39.6843 200.742 39.934C200.745 40.1768 200.745 40.3745 200.742 40.527C200.715 42.1217 200.198 42.9104 199.193 42.8931C198.812 42.8865 198.484 42.763 198.211 42.5225C197.91 42.2676 197.763 41.953 197.77 41.5786C197.774 41.329 197.791 40.9547 197.82 40.4559C197.85 39.957 197.866 39.5828 197.871 39.3332C197.885 38.4942 197.854 36.6973 197.776 33.9426C197.347 33.9144 196.696 33.8477 195.824 33.7425C194.959 33.6305 194.533 33.1723 194.547 32.368C194.554 31.9798 194.691 31.6527 194.959 31.3868C195.228 31.1209 195.57 30.9916 195.986 30.9988C196.242 31.0032 196.831 31.0549 197.752 31.154C197.748 30.932 197.737 30.5643 197.719 30.0507C197.698 29.6065 197.69 29.263 197.695 29.0203C197.701 28.6321 197.849 28.3121 198.138 28.0605C198.426 27.8088 198.772 27.6865 199.174 27.6934C200.2 27.7111 200.698 28.5831 200.669 30.3096L200.633 31.162C201.064 31.107 201.415 31.0819 201.685 31.0865C202.483 31.1003 203.026 31.1616 203.315 31.2707C203.867 31.4744 204.137 31.9021 204.126 32.5538C204.119 32.9491 203.978 33.2761 203.703 33.5349C203.428 33.7937 203.082 33.9195 202.666 33.9124ZM210.46 42.8999C208.803 42.8714 207.454 42.4528 206.414 41.6442C205.264 40.7505 204.703 39.5098 204.73 37.922C204.76 36.1678 205.247 34.692 206.19 33.4945C207.239 32.1671 208.634 31.5183 210.374 31.5483C211.581 31.5691 212.579 31.7805 213.37 32.1825C214.408 32.7136 214.918 33.52 214.899 34.6016C214.886 35.3643 214.448 36.033 213.585 36.6077C213.192 36.8714 212.405 37.2532 211.225 37.753L207.693 39.2423C208.02 39.6085 208.417 39.8859 208.886 40.0743C209.354 40.2627 209.893 40.3621 210.503 40.3726C211.432 40.3886 212.223 40.2115 212.874 39.8413C213.455 39.5114 213.919 39.3495 214.266 39.3555C214.987 39.3679 215.342 39.7243 215.33 40.4246C215.316 41.215 214.726 41.8498 213.559 42.3291C212.582 42.7284 211.548 42.9187 210.46 42.8999ZM210.331 34.0652C209.686 34.0541 209.131 34.2595 208.666 34.6815C208.201 35.1035 207.823 35.742 207.531 36.597C208.32 36.2708 209.106 35.9479 209.888 35.6285C210.831 35.2217 211.583 34.8427 212.144 34.4918C211.684 34.2203 211.08 34.0781 210.331 34.0652ZM225.99 35.188C225.909 36.2478 225.418 36.7699 224.517 36.7543C223.643 36.7393 223.214 36.2811 223.23 35.3797L223.196 34.3284C221.631 34.5511 220.501 35.3327 219.805 36.6732L219.726 41.9047C219.719 42.3 219.578 42.6235 219.303 42.8754C219.028 43.1342 218.683 43.26 218.267 43.2529C217.837 43.2455 217.506 43.1011 217.275 42.8196C217.058 42.5662 216.952 42.2454 216.959 41.8571L217.076 35.0449C217.08 34.8299 217.093 34.5111 217.114 34.0884C217.135 33.6588 217.148 33.3365 217.151 33.1215C217.158 32.7332 217.278 32.4128 217.511 32.1602C217.751 31.9008 218.086 31.7748 218.516 31.7822C219.286 31.7954 219.737 32.1985 219.869 32.9915C221.112 32.0974 222.482 31.6632 223.98 31.689C225.366 31.7129 226.044 32.647 226.012 34.4914C226.006 34.845 225.999 35.0772 225.99 35.188ZM232.977 42.0394C232.937 42.3854 232.79 42.6673 232.536 42.8849C232.283 43.1024 231.972 43.208 231.605 43.2017C230.905 43.1897 230.415 42.8206 230.136 42.0945C229.42 40.2095 228.32 37.3955 226.838 33.6525C226.752 33.4429 226.71 33.2446 226.713 33.0574C226.72 32.6829 226.874 32.37 227.177 32.1186C227.486 31.8604 227.835 31.7346 228.223 31.7413C228.82 31.7516 229.241 32.0328 229.489 32.585C229.869 33.4308 230.605 35.4062 231.696 38.5113C232.077 37.7342 232.604 36.5503 233.276 34.9598C233.479 34.4292 233.794 33.6891 234.219 32.7393C234.513 32.1895 234.948 31.9196 235.523 31.9295C235.912 31.9362 236.253 32.0704 236.546 32.332C236.847 32.5938 236.994 32.9154 236.988 33.2967C236.983 33.5464 236.398 34.9095 235.232 37.3863C234.281 39.409 233.53 40.96 232.977 42.0394ZM242.971 43.4599C241.314 43.4314 239.965 43.0128 238.925 42.2042C237.775 41.3106 237.214 40.0698 237.242 38.482C237.272 36.7278 237.758 35.252 238.701 34.0545C239.751 32.7271 241.146 32.0783 242.886 32.1083C244.092 32.1291 245.091 32.3405 245.882 32.7425C246.92 33.2736 247.429 34.08 247.411 35.1616C247.398 35.9243 246.96 36.593 246.097 37.1677C245.704 37.4314 244.917 37.8132 243.736 38.313L240.205 39.8023C240.531 40.1686 240.929 40.4459 241.397 40.6343C241.865 40.8227 242.405 40.9221 243.015 40.9326C243.944 40.9487 244.734 40.7715 245.386 40.4013C245.967 40.0715 246.431 39.9095 246.778 39.9155C247.499 39.9279 247.853 40.2843 247.841 40.9846C247.827 41.775 247.237 42.4098 246.071 42.8891C245.093 43.2884 244.06 43.4787 242.971 43.4599ZM242.843 34.6252C242.198 34.6141 241.643 34.8195 241.178 35.2415C240.713 35.6635 240.334 36.302 240.042 37.157C240.831 36.8308 241.617 36.5079 242.4 36.1885C243.343 35.7817 244.095 35.4028 244.656 35.0518C244.196 34.7803 243.591 34.6381 242.843 34.6252ZM257.143 34.8507C256.998 34.8482 256.825 34.8418 256.624 34.8314C256.43 34.8142 256.26 34.8043 256.114 34.8018C255.83 34.7969 255.5 34.819 255.125 34.868C255.201 37.6713 255.232 39.5028 255.217 40.3626C255.216 40.4527 255.216 40.6226 255.219 40.8724C255.222 41.1152 255.222 41.3128 255.219 41.4654C255.192 43.0601 254.675 43.8488 253.67 43.8315C253.289 43.8249 252.961 43.7014 252.688 43.4608C252.387 43.206 252.24 42.8913 252.247 42.5169C252.251 42.2673 252.268 41.8931 252.297 41.3942C252.327 40.8954 252.343 40.5211 252.348 40.2715C252.362 39.4326 252.331 37.6357 252.253 34.8809C251.824 34.8527 251.173 34.786 250.301 34.6809C249.436 34.5689 249.01 34.1107 249.024 33.3064C249.031 32.9181 249.168 32.5911 249.436 32.3252C249.704 32.0593 250.047 31.93 250.463 31.9371C250.719 31.9416 251.308 31.9933 252.228 32.0924C252.225 31.8704 252.214 31.5026 252.195 30.9891C252.175 30.5448 252.167 30.2014 252.172 29.9587C252.178 29.5704 252.326 29.2505 252.615 28.9988C252.903 28.7472 253.249 28.6248 253.651 28.6318C254.677 28.6494 255.175 29.5215 255.146 31.2479L255.11 32.1004C255.541 32.0454 255.892 32.0203 256.162 32.0249C256.959 32.0386 257.503 32.1 257.792 32.209C258.344 32.4127 258.614 32.8405 258.602 33.4922C258.596 33.8874 258.455 34.2144 258.18 34.4733C257.905 34.7321 257.559 34.8579 257.143 34.8507ZM261.213 40.2058C260.824 40.1991 260.504 40.0722 260.252 39.8251C260.006 39.5781 259.887 39.2709 259.893 38.9034C259.898 38.633 259.894 38.2307 259.882 37.6964C259.878 37.1554 259.878 36.7496 259.883 36.4792C259.899 35.5224 259.931 34.0873 259.978 32.1739C260.031 30.2606 260.067 28.8255 260.083 27.8687C260.089 27.5012 260.223 27.1983 260.484 26.9601C260.744 26.7149 261.066 26.5956 261.447 26.6021C261.828 26.6087 262.145 26.739 262.397 26.993C262.65 27.2401 262.773 27.5474 262.766 27.9149L262.576 38.9496C262.57 39.3171 262.436 39.62 262.176 39.8582C261.922 40.0966 261.601 40.2125 261.213 40.2058ZM261.116 43.9805C260.7 43.9734 260.316 43.7448 259.963 43.2949C259.644 42.8802 259.488 42.496 259.494 42.1424C259.5 41.7819 259.647 41.4827 259.936 41.2449C260.224 41.0071 260.549 40.8914 260.909 40.8976C261.325 40.9047 261.706 41.1332 262.052 41.5831C262.371 41.9978 262.528 42.3785 262.522 42.7251C262.515 43.0787 262.368 43.3779 262.08 43.6226C261.798 43.8674 261.477 43.9868 261.116 43.9805Z" fill="black"/>
</svg>
