<svg width="520" height="76" viewBox="0 0 520 76" fill="none" xmlns="http://www.w3.org/2000/svg">
<path d="M3.71387 24.3672C3.71387 13.3215 12.6682 4.36719 23.7139 4.36719H495.714C506.76 4.36719 515.714 13.3215 515.714 24.3672V51.3672C515.714 62.4129 506.76 71.3672 495.714 71.3672H23.7139C12.6682 71.3672 3.71387 62.4129 3.71387 51.3672V24.3672Z" fill="white"/>
<path d="M41.1289 3.37456L40.3087 6.26026L41.1289 3.37456ZM43.0639 3.92453L42.2437 6.81023L43.0639 3.92453ZM44.9989 4.4745L44.1787 7.3602L44.9989 4.4745ZM48.8689 5.00487L48.8385 2.00502L48.8689 5.00487ZM52.7389 4.96567L52.7693 7.96551L52.7389 4.96567ZM60.4789 5.20629L60.3445 8.20328L60.4789 5.20629ZM83.6989 4.91211L83.5499 7.90841L83.6989 4.91211ZM87.5689 5.13346L87.3752 8.1272L87.5689 5.13346ZM95.3089 5.34517L95.0558 2.35586L95.3089 5.34517ZM106.919 5.51414L106.58 8.49491L106.919 5.51414ZM110.789 5.40819L111.287 8.36647L110.789 5.40819ZM118.529 4.07927L117.994 1.12735L118.529 4.07927ZM126.269 3.66576L127.209 0.816837L126.269 3.66576ZM130.139 4.94271L129.199 7.79163L130.139 4.94271ZM134.009 4.95987L134.926 7.81624L134.009 4.95987ZM137.879 3.71724L136.962 0.860879L137.879 3.71724ZM149.489 3.80149L149.339 0.805247L149.489 3.80149ZM151.424 3.7046L151.274 0.708349L151.424 3.7046ZM157.229 3.4702L157.166 0.470856L157.229 3.4702ZM172.709 5.10201L172.056 2.1739L172.709 5.10201ZM176.579 4.23923L177.232 7.16735L176.579 4.23923ZM180.449 4.18324L181.02 1.23815L180.449 4.18324ZM184.319 4.93402L183.748 7.87911L184.319 4.93402ZM188.189 5.1038L188.506 8.08701L188.189 5.1038ZM192.059 4.69258L191.742 1.70937L192.059 4.69258ZM195.929 4.25606L195.573 1.27719L195.929 4.25606ZM199.799 3.79425L199.443 0.815388L199.799 3.79425ZM211.409 4.99788L211.382 1.99801L211.409 4.99788ZM215.279 4.96284L215.306 7.96272L215.279 4.96284ZM219.149 4.76467L218.87 1.77765L219.149 4.76467ZM242.369 5.14878L241.686 2.22751L242.369 5.14878ZM246.239 4.24424L246.922 7.16551L246.239 4.24424ZM250.109 3.60144L249.815 0.615877L250.109 3.60144ZM253.979 3.22036L254.273 6.20593L253.979 3.22036ZM257.849 3.15598L257.654 6.14963L257.849 3.15598ZM269.459 5.1613L268.649 8.05001L269.459 5.1613ZM288.809 3.85058L288.515 6.83615L288.809 3.85058ZM290.744 4.04104L291.038 1.05546L290.744 4.04104ZM296.549 4.06945L296.011 1.11802L296.549 4.06945ZM298.484 3.71694L299.022 6.66837L298.484 3.71694ZM300.419 3.36444L300.957 6.31586L300.419 3.36444ZM304.289 3.54537L305.086 0.65325L304.289 3.54537ZM308.159 4.61223L307.362 7.50435L308.159 4.61223ZM312.029 4.6276L311.253 1.72967L312.029 4.6276ZM315.899 3.59146L316.675 6.48939L315.899 3.59146ZM327.509 4.80729L327.24 7.79517L327.509 4.80729ZM331.379 5.15615L331.648 2.16827L331.379 5.15615ZM335.249 5.17982L335.482 8.17075L335.249 5.17982ZM339.119 4.87828L338.886 1.88735L339.119 4.87828ZM346.859 4.78915L346.827 7.78899L346.859 4.78915ZM350.729 4.40505L350.115 1.46857L350.729 4.40505ZM354.599 3.59574L355.213 6.53222L354.599 3.59574ZM358.469 3.70825L359.243 0.809977L358.469 3.70825ZM362.339 4.74257L361.564 7.64084L362.339 4.74257ZM366.209 5.36592L366.044 8.36141L366.209 5.36592ZM373.949 5.18682L373.202 2.28138L373.949 5.18682ZM377.819 4.19146L378.566 7.0969L377.819 4.19146ZM385.559 3.56979L385.495 0.570471L385.559 3.56979ZM420.389 4.87971L419.606 1.98354L420.389 4.87971ZM424.259 3.8342L425.041 6.73038L424.259 3.8342ZM428.129 3.51315L428.44 0.52932L428.129 3.51315ZM430.064 3.71486L429.753 6.69869L430.064 3.71486ZM431.999 3.91656L431.688 6.9004L431.999 3.91656ZM443.609 5.85161L443.409 2.85826L443.609 5.85161ZM447.479 5.59361L447.678 8.58697L447.479 5.59361ZM455.219 5.78418L455.054 8.77964L455.219 5.78418ZM459.089 5.63542L458.697 2.6612L459.089 5.63542ZM462.959 5.12487L463.351 8.0991L462.959 5.12487ZM490.051 3.0745L489.973 6.07349L490.051 3.0745ZM497.865 3.60493L497.307 6.55264L497.865 3.60493ZM501.87 4.36275L501.313 7.31046L501.87 4.36275ZM505.12 6.33252L502.758 8.18275L505.12 6.33252ZM507.612 9.51423L509.974 7.66399L507.612 9.51423ZM510.219 12.4404L512.321 10.2995L510.219 12.4404ZM512.94 15.1111L510.839 17.2521L512.94 15.1111ZM514.33 18.3521L517.33 18.3058L514.33 18.3521ZM514.389 22.1633L511.389 22.2096L514.389 22.1633ZM514.579 25.9992L517.568 25.7507L514.579 25.9992ZM514.739 27.9295L511.75 28.178L514.739 27.9295ZM515.18 33.725L512.186 33.9105L515.18 33.725ZM515.3 35.66L518.294 35.4745L515.3 35.66ZM515.42 37.595L512.426 37.7805L515.42 37.595ZM515.895 41.465L518.846 40.923L515.895 41.465ZM516.606 45.335L513.655 45.877L516.606 45.335ZM516.872 49.2561L513.875 49.1216L516.872 49.2561ZM516.783 51.2423L519.78 51.3769L516.783 51.2423ZM516.694 53.2284L513.697 53.0939L516.694 53.2284ZM515.891 57.1378L518.704 58.1811L515.891 57.1378ZM514.465 60.9843L511.652 59.941L514.465 60.9843ZM512.223 64.2458L514.2 66.5025L512.223 64.2458ZM509.168 66.9223L507.191 64.6655L509.168 66.9223ZM505.805 68.9836L506.905 71.7747L505.805 68.9836ZM503.97 69.7067L502.87 66.9156L503.97 69.7067ZM502.135 70.4298L503.235 73.2209L502.135 70.4298ZM498.357 71.3306L498.63 74.3182L498.357 71.3306ZM496.414 71.5083L496.141 68.5208L496.414 71.5083ZM494.471 71.686L494.744 74.6735L494.471 71.686ZM490.593 71.9448L490.468 68.9474L490.593 71.9448ZM486.723 72.1071L486.598 69.1097L486.723 72.1071ZM482.853 72.3438L483.094 75.3341L482.853 72.3438ZM478.983 72.6549L478.743 69.6645L478.983 72.6549ZM475.113 72.2754L474.314 75.167L475.113 72.2754ZM471.243 71.2055L472.043 68.3139L471.243 71.2055ZM467.373 70.8404L467.636 73.8289L467.373 70.8404ZM463.503 71.1802L463.241 68.1917L463.503 71.1802ZM459.633 70.959L459.039 73.8995L459.633 70.959ZM455.763 70.1766L456.358 67.2361L455.763 70.1766ZM451.893 69.8887L452.053 72.8844L451.893 69.8887ZM448.023 70.0953L447.863 67.0996L448.023 70.0953ZM444.153 70.0908L444.32 67.0955L444.153 70.0908ZM440.283 69.8752L440.116 72.8705L440.283 69.8752ZM436.413 70.0761L435.941 67.1136L436.413 70.0761ZM432.543 70.6936L433.016 73.6561L432.543 70.6936ZM428.673 70.888L428.496 73.8828L428.673 70.888ZM424.803 70.6595L424.98 67.6647L424.803 70.6595ZM420.933 70.496L421.01 67.497L420.933 70.496ZM413.193 70.5218L413.461 73.5098L413.193 70.5218ZM411.258 70.6953L410.99 67.7073L411.258 70.6953ZM409.323 70.8689L409.591 73.8569L409.323 70.8689ZM405.453 71.4746L406.107 74.4025L405.453 71.4746ZM401.583 72.3392L400.929 69.4113L401.583 72.3392ZM397.713 72.5153L397.32 75.4893L397.713 72.5153ZM393.843 72.003L394.237 69.029L393.843 72.003ZM389.973 71.7728L390.013 74.7726L389.973 71.7728ZM388.038 71.7988L387.998 68.799L388.038 71.7988ZM386.103 71.8247L386.063 68.8249L386.103 71.8247ZM382.233 71.8613L382.25 74.8613L382.233 71.8613ZM378.363 71.8829L378.347 68.8829L378.363 71.8829ZM366.753 70.4669L367.593 73.3469L366.753 70.4669ZM362.883 71.5955L362.043 68.7155L362.883 71.5955ZM359.013 72.2172L358.924 69.2185L359.013 72.2172ZM355.143 72.332L355.232 75.3307L355.143 72.332ZM351.273 71.9933L350.672 74.9324V74.9324L351.273 71.9933ZM347.403 71.2013L348.005 68.2622V68.2622L347.403 71.2013ZM343.533 71.1587L344.072 74.1099V74.1099L343.533 71.1587ZM341.598 71.5122L341.059 68.561L341.598 71.5122ZM339.663 71.8656L340.202 74.8168L339.663 71.8656ZM335.793 72.0115L336.113 69.0286L335.793 72.0115ZM328.053 70.9924L327.451 73.9314L328.053 70.9924ZM324.183 70.1997L323.581 73.1387L324.183 70.1997ZM316.443 71.3051L317.195 74.2095L316.443 71.3051ZM312.573 71.675L312.776 68.6818L312.573 71.675ZM308.703 71.4134L308.501 74.4066L308.703 71.4134ZM304.833 71.5277L304.456 68.5515V68.5515L304.833 71.5277ZM300.963 72.0178L301.34 74.9941V74.9941L300.963 72.0178ZM297.093 71.6817L296.23 74.555L297.093 71.6817ZM293.223 70.5195L294.086 67.6463L293.223 70.5195ZM289.353 70.5937L288.391 67.7523L289.353 70.5937ZM285.483 71.9045L286.446 74.7459L285.483 71.9045ZM281.613 71.9056L280.652 74.7475L281.613 71.9056ZM273.873 69.9776L273.819 66.9781L273.873 69.9776ZM271.938 70.0125L271.884 67.013L271.938 70.0125ZM270.003 70.0473L270.057 73.0468L270.003 70.0473ZM266.133 70.772L265.126 67.9462L266.133 70.772ZM264.198 71.4618L263.191 68.6359L264.198 71.4618ZM262.263 72.1515L263.271 74.9773L262.263 72.1515ZM254.523 72.1563L254.172 75.1357L254.523 72.1563ZM250.653 71.5314L251.256 68.5925L250.653 71.5314ZM235.173 72.2802L235.167 69.2802L235.173 72.2802ZM227.433 72.331L227.373 69.3316L227.433 72.331ZM223.563 72.4087L223.623 75.4081L223.563 72.4087ZM219.693 71.9257L220.474 69.0292L219.693 71.9257ZM215.823 70.8821L215.042 73.7786L215.823 70.8821ZM211.953 70.3359L211.915 73.3356L211.953 70.3359ZM208.083 70.2872L208.121 67.2874L208.083 70.2872ZM204.213 70.6041L204.734 73.5585L204.213 70.6041ZM200.343 71.2867L200.864 74.2411L200.343 71.2867ZM196.473 71.4367L196.178 74.4221L196.473 71.4367ZM194.538 71.2454L194.833 68.26L194.538 71.2454ZM192.603 71.0542L192.308 74.0396L192.603 71.0542ZM188.733 71.2204L189.278 74.1705L188.733 71.2204ZM184.863 71.9355L184.318 68.9854L184.863 71.9355ZM180.993 72.4059L181.168 75.4008L180.993 72.4059ZM179.058 72.5189L178.883 69.524L179.058 72.5189ZM177.123 72.6318L177.298 75.6267L177.123 72.6318ZM173.253 72.7142L173.206 75.7138L173.253 72.7142ZM169.383 72.653L169.336 75.6526L169.383 72.653ZM165.513 72.1669L166.201 69.2467L165.513 72.1669ZM161.643 71.2559L160.956 74.1761L161.643 71.2559ZM157.773 70.9216L157.586 67.9275L157.773 70.9216ZM155.838 71.0428L155.651 68.0487L155.838 71.0428ZM153.903 71.164L154.091 74.1581L153.903 71.164ZM150.033 71.0005L149.597 73.9685L150.033 71.0005ZM146.163 70.431L146.6 67.463L146.163 70.431ZM142.293 70.4764L142.798 73.4337L142.293 70.4764ZM138.423 71.1366L138.928 74.0939L138.423 71.1366ZM134.553 71.0782L133.963 74.0195L134.553 71.0782ZM132.618 70.6897L132.028 73.631L132.618 70.6897ZM130.683 70.3012L131.274 67.3599L130.683 70.3012ZM119.073 71.3165L119.451 74.2926L119.073 71.3165ZM115.203 71.8074L114.826 68.8313L115.203 71.8074ZM111.333 72.0147L111.274 75.0141L111.333 72.0147ZM109.398 71.9765L109.457 68.9771L109.398 71.9765ZM107.463 71.9383L107.404 74.9378L107.463 71.9383ZM103.593 72.0413L103.811 75.0333V75.0333L103.593 72.0413ZM101.658 72.1824L101.876 75.1745L101.658 72.1824ZM99.7232 72.3235L99.505 69.3315L99.7232 72.3235ZM95.8532 72.3131L95.619 75.304L95.8532 72.3131ZM91.9832 72.01L92.2175 69.0192L91.9832 72.01ZM88.1133 71.5618L88.5679 68.5965L88.1133 71.5618ZM84.2433 70.9685L83.7887 73.9339L84.2433 70.9685ZM80.3733 70.9682L79.9191 68.0028L80.3733 70.9682ZM72.6332 71.8043L72.7154 68.8054L72.6332 71.8043ZM68.7632 71.6983L68.6811 74.6972L68.7632 71.6983ZM64.8932 71.337L64.4212 74.2996L64.8932 71.337ZM57.1533 70.2587L57.3902 67.2681L57.1533 70.2587ZM55.2182 70.1054L54.9813 73.096L55.2182 70.1054ZM49.4132 70.2423L50.0835 73.1664L49.4132 70.2423ZM45.5432 71.1294L44.873 68.2052L45.5432 71.1294ZM41.6733 71.6221L41.597 68.6231L41.6733 71.6221ZM33.9332 71.9866L34.2674 74.9679L33.9332 71.9866ZM30.0632 72.4203L29.7291 69.439L30.0632 72.4203ZM22.5206 70.3583L21.3911 73.1376L22.5206 70.3583ZM18.6178 69.5726L18.6562 66.5729L18.6178 69.5726ZM14.5508 69.5206L14.5124 72.5203L14.5508 69.5206ZM10.951 68.1496L8.99665 70.4257L10.951 68.1496ZM7.81846 65.4598L5.86409 67.7359L7.81846 65.4598ZM6.0525 62.0628L3.0666 62.3533L6.0525 62.0628ZM4.99527 54.0546L7.90747 53.3341L4.99527 54.0546ZM4.53708 52.2026L1.62489 52.9232L4.53708 52.2026ZM4.7902 42.6937L1.84929 42.1012L4.7902 42.6937ZM11.528 8.69932L10.5209 5.87342L11.528 8.69932ZM20.5275 4.05078L18.9178 1.51923L20.5275 4.05078ZM22.6133 3.31012L20.5352 5.47375L22.6133 3.31012ZM23.347 4.01483L21.2689 6.17846L23.347 4.01483ZM27.5839 4.11156L27.7816 7.10504L29.7166 6.97722L29.5189 3.98375L29.3211 0.990269L27.3861 1.11808L27.5839 4.11156ZM29.5189 3.98375L29.7166 6.97722C31.0734 6.8876 32.4296 6.75243 33.7851 6.57181L33.3889 3.5981L32.9926 0.624378C31.7681 0.787542 30.5443 0.909473 29.3211 0.990269L29.5189 3.98375ZM33.3889 3.5981L33.7851 6.57181L35.7201 6.31398L35.3239 3.34026L34.9276 0.366542L32.9926 0.624378L33.3889 3.5981ZM35.3239 3.34026L35.7201 6.31398L37.6551 6.05614L37.2589 3.08242L36.8626 0.108706L34.9276 0.366542L35.3239 3.34026ZM37.2589 3.08242L37.6551 6.05614C38.5254 5.94018 39.4015 6.00242 40.3087 6.26026L41.1289 3.37456L41.9491 0.488851C40.2762 0.0133953 38.5724 -0.119117 36.8626 0.108706L37.2589 3.08242ZM41.1289 3.37456L40.3087 6.26026L42.2437 6.81023L43.0639 3.92453L43.884 1.03882L41.9491 0.488851L41.1289 3.37456ZM43.0639 3.92453L42.2437 6.81023L44.1787 7.3602L44.9989 4.4745L45.819 1.58879L43.884 1.03882L43.0639 3.92453ZM44.9989 4.4745L44.1787 7.3602C45.7343 7.80234 47.3105 8.02081 48.8993 8.00471L48.8689 5.00487L48.8385 2.00502C47.8472 2.01506 46.8435 1.87995 45.819 1.58879L44.9989 4.4745ZM48.8689 5.00487L48.8993 8.00471L50.8343 7.98511L50.8039 4.98527L50.7735 1.98542L48.8385 2.00502L48.8689 5.00487ZM50.8039 4.98527L50.8343 7.98511L52.7693 7.96551L52.7389 4.96567L52.7085 1.96582L50.7735 1.98542L50.8039 4.98527ZM52.7389 4.96567L52.7693 7.96551C54.0043 7.953 55.2393 7.97443 56.4745 8.0298L56.6089 5.03281L56.7432 2.03582C55.3984 1.97553 54.0535 1.9522 52.7085 1.96582L52.7389 4.96567ZM56.6089 5.03281L56.4745 8.0298L58.4095 8.11654L58.5439 5.11955L58.6782 2.12256L56.7432 2.03582L56.6089 5.03281ZM58.5439 5.11955L58.4095 8.11654L60.3445 8.20328L60.4789 5.20629L60.6132 2.2093L58.6782 2.12256L58.5439 5.11955ZM60.4789 5.20629L60.3445 8.20328C61.8066 8.26883 63.2679 8.20873 64.7264 8.02369L64.3489 5.04754L63.9713 2.0714C62.8498 2.21368 61.7311 2.25942 60.6132 2.2093L60.4789 5.20629ZM64.3489 5.04754L64.7264 8.02369L66.6614 7.77819L66.2839 4.80205L65.9063 1.82591L63.9713 2.0714L64.3489 5.04754ZM66.2839 4.80205L66.6614 7.77819L68.5965 7.5327L68.2189 4.55656L67.8413 1.58041L65.9063 1.82591L66.2839 4.80205ZM68.2189 4.55656L68.5965 7.5327C69.7223 7.38986 70.8456 7.34143 71.9678 7.38674L72.0889 4.38919L72.2099 1.39163C70.7522 1.33277 69.2954 1.39593 67.8413 1.58041L68.2189 4.55656ZM72.0889 4.38919L71.9678 7.38674L73.9028 7.46487L74.0239 4.46731L74.1449 1.46975L72.2099 1.39163L72.0889 4.38919ZM74.0239 4.46731L73.9028 7.46487L75.8378 7.54299L75.9589 4.54543L76.0799 1.54788L74.1449 1.46975L74.0239 4.46731ZM75.9589 4.54543L75.8378 7.54299C77.1185 7.5947 78.3992 7.65238 79.6799 7.71604L79.8289 4.71974L79.9778 1.72344C78.6785 1.65886 77.3792 1.60033 76.0799 1.54788L75.9589 4.54543ZM79.8289 4.71974L79.6799 7.71604L81.6149 7.81223L81.7639 4.81592L81.9128 1.81962L79.9778 1.72344L79.8289 4.71974ZM81.7639 4.81592L81.6149 7.81223L83.5499 7.90841L83.6989 4.91211L83.8478 1.91581L81.9128 1.81962L81.7639 4.81592ZM83.6989 4.91211L83.5499 7.90841C84.825 7.97179 86.1001 8.04472 87.3752 8.1272L87.5689 5.13346L87.7625 2.13972C86.4576 2.05531 85.1527 1.98067 83.8478 1.91581L83.6989 4.91211ZM87.5689 5.13346L87.3752 8.1272L89.3102 8.25237L89.5039 5.25863L89.6975 2.26489L87.7625 2.13972L87.5689 5.13346ZM89.5039 5.25863L89.3102 8.25237L91.2452 8.37754L91.4389 5.3838L91.6325 2.39006L89.6975 2.26489L89.5039 5.25863ZM91.4389 5.3838L91.2452 8.37754C92.6842 8.47063 94.1236 8.45624 95.5619 8.33447L95.3089 5.34517L95.0558 2.35586C93.9142 2.4525 92.7735 2.46386 91.6325 2.39006L91.4389 5.3838ZM95.3089 5.34517L95.5619 8.33447L97.4969 8.17067L97.2439 5.18136L96.9908 2.19205L95.0558 2.35586L95.3089 5.34517ZM97.2439 5.18136L97.4969 8.17067L99.4319 8.00687L99.1789 5.01756L98.9258 2.02825L96.9908 2.19205L97.2439 5.18136ZM99.1789 5.01756L99.4319 8.00687C100.524 7.9144 101.616 7.93021 102.71 8.05466L103.049 5.07388L103.388 2.09311C101.902 1.92405 100.414 1.90231 98.9258 2.02825L99.1789 5.01756ZM103.049 5.07388L102.71 8.05466L104.645 8.27479L104.984 5.29401L105.323 2.31324L103.388 2.09311L103.049 5.07388ZM104.984 5.29401L104.645 8.27479L106.58 8.49491L106.919 5.51414L107.258 2.53337L105.323 2.31324L104.984 5.29401ZM106.919 5.51414L106.58 8.49491C108.151 8.67364 109.723 8.63015 111.287 8.36647L110.789 5.40819L110.29 2.4499C109.275 2.621 108.267 2.64815 107.258 2.53337L106.919 5.51414ZM110.789 5.40819L111.287 8.36647L113.222 8.04039L112.724 5.0821L112.225 2.12381L110.29 2.4499L110.789 5.40819ZM112.724 5.0821L113.222 8.04039L115.157 7.71431L114.659 4.75602L114.16 1.79773L112.225 2.12381L112.724 5.0821ZM114.659 4.75602L115.157 7.71431C116.46 7.49487 117.762 7.26716 119.064 7.03119L118.529 4.07927L117.994 1.12735C116.716 1.35894 115.438 1.5824 114.16 1.79773L114.659 4.75602ZM118.529 4.07927L119.064 7.03119L120.999 6.68053L120.464 3.72861L119.929 0.77669L117.994 1.12735L118.529 4.07927ZM120.464 3.72861L120.999 6.68053L122.934 6.32986L122.399 3.37794L121.864 0.426025L119.929 0.77669L120.464 3.72861ZM122.399 3.37794L122.934 6.32986C123.713 6.18864 124.496 6.23999 125.329 6.51467L126.269 3.66576L127.209 0.816837C125.461 0.240224 123.665 0.0996933 121.864 0.426025L122.399 3.37794ZM126.269 3.66576L125.329 6.51467L127.264 7.15315L128.204 4.30423L129.144 1.45531L127.209 0.816837L126.269 3.66576ZM128.204 4.30423L127.264 7.15315L129.199 7.79163L130.139 4.94271L131.079 2.09379L129.144 1.45531L128.204 4.30423ZM130.139 4.94271L129.199 7.79163C131.09 8.41558 133.03 8.42502 134.926 7.81624L134.009 4.95987L133.092 2.10351C132.408 2.32314 131.768 2.32114 131.079 2.09379L130.139 4.94271ZM134.009 4.95987L134.926 7.81624L136.861 7.19492L135.944 4.33856L135.027 1.48219L133.092 2.10351L134.009 4.95987ZM135.944 4.33856L136.861 7.19492L138.796 6.57361L137.879 3.71724L136.962 0.860879L135.027 1.48219L135.944 4.33856ZM137.879 3.71724L138.796 6.57361C139.708 6.28062 140.581 6.19157 141.439 6.28055L141.749 3.29655L142.058 0.31254C140.337 0.134037 138.629 0.325446 136.962 0.860879L137.879 3.71724ZM141.749 3.29655L141.439 6.28055L143.374 6.48117L143.684 3.49716L143.993 0.513155L142.058 0.31254L141.749 3.29655ZM143.684 3.49716L143.374 6.48117L145.309 6.68178L145.619 3.69777L145.928 0.713769L143.993 0.513155L143.684 3.49716ZM145.619 3.69777L145.309 6.68178C146.751 6.83128 148.195 6.87004 149.639 6.79774L149.489 3.80149L149.339 0.805247C148.203 0.86214 147.066 0.831756 145.928 0.713769L145.619 3.69777ZM149.489 3.80149L149.639 6.79774L151.574 6.70084L151.424 3.7046L151.274 0.708349L149.339 0.805247L149.489 3.80149ZM151.424 3.7046L151.574 6.70084L153.509 6.60394L153.359 3.6077L153.209 0.611452L151.274 0.708349L151.424 3.7046ZM153.359 3.6077L153.509 6.60394C154.77 6.5408 156.031 6.496 157.292 6.46954L157.229 3.4702L157.166 0.470856C155.847 0.498536 154.528 0.545403 153.209 0.611452L153.359 3.6077ZM157.229 3.4702L157.292 6.46954L159.227 6.42893L159.164 3.42959L159.101 0.430252L157.166 0.470856L157.229 3.4702ZM159.164 3.42959L159.227 6.42893L161.162 6.38833L161.099 3.38899L161.036 0.389647L159.101 0.430252L159.164 3.42959ZM161.099 3.38899L161.162 6.38833C162.144 6.36772 163.138 6.49507 164.154 6.7818L164.969 3.89464L165.784 1.00748C164.22 0.565862 162.634 0.356115 161.036 0.389647L161.099 3.38899ZM164.969 3.89464L164.154 6.7818L166.089 7.32805L166.904 4.44089L167.719 1.55373L165.784 1.00748L164.969 3.89464ZM166.904 4.44089L166.089 7.32805L168.024 7.87431L168.839 4.98715L169.654 2.09999L167.719 1.55373L166.904 4.44089ZM168.839 4.98715L168.024 7.87431C169.785 8.37151 171.579 8.42747 173.362 8.03013L172.709 5.10201L172.056 2.1739C171.258 2.35175 170.473 2.33112 169.654 2.09999L168.839 4.98715ZM172.709 5.10201L173.362 8.03013L175.297 7.59874L174.644 4.67062L173.991 1.74251L172.056 2.1739L172.709 5.10201ZM174.644 4.67062L175.297 7.59874L177.232 7.16735L176.579 4.23923L175.926 1.31112L173.991 1.74251L174.644 4.67062ZM176.579 4.23923L177.232 7.16735C178.122 6.96896 178.995 6.95708 179.878 7.12833L180.449 4.18324L181.02 1.23815C179.323 0.90887 177.616 0.934318 175.926 1.31112L176.579 4.23923ZM180.449 4.18324L179.878 7.12833L181.812 7.50372L182.384 4.55863L182.955 1.61354L181.02 1.23815L180.449 4.18324ZM182.384 4.55863L181.812 7.50372L183.748 7.87911L184.319 4.93402L184.89 1.98893L182.955 1.61354L182.384 4.55863ZM184.319 4.93402L183.748 7.87911C185.326 8.18539 186.916 8.25599 188.506 8.08701L188.189 5.1038L187.872 2.1206C186.882 2.22577 185.891 2.18318 184.89 1.98893L184.319 4.93402ZM188.189 5.1038L188.506 8.08701L190.441 7.88139L190.124 4.89819L189.807 1.91498L187.872 2.1206L188.189 5.1038ZM190.124 4.89819L190.441 7.88139L192.376 7.67578L192.059 4.69258L191.742 1.70937L189.807 1.91498L190.124 4.89819ZM192.059 4.69258L192.376 7.67578C193.679 7.53734 194.982 7.39039 196.284 7.23493L195.929 4.25606L195.573 1.27719C194.296 1.4296 193.019 1.57366 191.742 1.70937L192.059 4.69258ZM195.929 4.25606L196.284 7.23493L198.219 7.00402L197.864 4.02516L197.508 1.04629L195.573 1.27719L195.929 4.25606ZM197.864 4.02516L198.219 7.00402L200.154 6.77312L199.799 3.79425L199.443 0.815388L197.508 1.04629L197.864 4.02516ZM199.799 3.79425L200.154 6.77312C201.139 6.65568 202.122 6.68853 203.116 6.87493L203.669 3.92636L204.222 0.977804C202.636 0.68018 201.039 0.624963 199.443 0.815388L199.799 3.79425ZM203.669 3.92636L203.116 6.87493L205.051 7.23794L205.604 4.28938L206.157 1.34082L204.222 0.977804L203.669 3.92636ZM205.604 4.28938L205.051 7.23794L206.986 7.60095L207.539 4.65239L208.092 1.70383L206.157 1.34082L205.604 4.28938ZM207.539 4.65239L206.986 7.60095C208.464 7.87823 209.948 8.01123 211.436 7.99776L211.409 4.99788L211.382 1.99801C210.29 2.00789 209.194 1.91057 208.092 1.70383L207.539 4.65239ZM211.409 4.99788L211.436 7.99776L213.371 7.98024L213.344 4.98036L213.317 1.98048L211.382 1.99801L211.409 4.99788ZM213.344 4.98036L213.371 7.98024L215.306 7.96272L215.279 4.96284L215.252 1.96296L213.317 1.98048L213.344 4.98036ZM215.279 4.96284L215.306 7.96272C216.68 7.95027 218.054 7.87989 219.428 7.75168L219.149 4.76467L218.87 1.77765C217.663 1.89031 216.457 1.95205 215.252 1.96296L215.279 4.96284ZM219.149 4.76467L219.428 7.75168L221.363 7.57102L221.084 4.58401L220.805 1.597L218.87 1.77765L219.149 4.76467ZM221.084 4.58401L221.363 7.57102L223.298 7.39037L223.019 4.40336L222.74 1.41635L220.805 1.597L221.084 4.58401ZM223.019 4.40336L223.298 7.39037C224.481 7.27991 225.663 7.23347 226.845 7.25086L226.889 4.25118L226.933 1.25151C225.535 1.23093 224.137 1.28593 222.74 1.41635L223.019 4.40336ZM226.889 4.25118L226.845 7.25086L228.78 7.27934L228.824 4.27966L228.868 1.27999L226.933 1.25151L226.889 4.25118ZM228.824 4.27966L228.78 7.27934L230.715 7.30782L230.759 4.30814L230.803 1.30847L228.868 1.27999L228.824 4.27966ZM230.759 4.30814L230.715 7.30782C231.856 7.32461 232.999 7.42618 234.145 7.61348L234.629 4.65273L235.113 1.69198C233.679 1.45781 232.242 1.32965 230.803 1.30847L230.759 4.30814ZM234.629 4.65273L234.145 7.61348L236.08 7.92959L236.564 4.96884L237.048 2.00808L235.113 1.69198L234.629 4.65273ZM236.564 4.96884L236.08 7.92959L238.015 8.24569L238.499 5.28494L238.983 2.32419L237.048 2.00808L236.564 4.96884ZM238.499 5.28494L238.015 8.24569C239.698 8.52063 241.384 8.45972 243.052 8.07005L242.369 5.14878L241.686 2.22751C240.773 2.44087 239.88 2.47073 238.983 2.32419L238.499 5.28494ZM242.369 5.14878L243.052 8.07005L244.987 7.61778L244.304 4.69651L243.621 1.77524L241.686 2.22751L242.369 5.14878ZM244.304 4.69651L244.987 7.61778L246.922 7.16551L246.239 4.24424L245.556 1.32298L243.621 1.77524L244.304 4.69651ZM246.239 4.24424L246.922 7.16551C248.086 6.89327 249.247 6.70086 250.403 6.587L250.109 3.60144L249.815 0.615877C248.391 0.756068 246.971 0.992191 245.556 1.32298L246.239 4.24424ZM250.109 3.60144L250.403 6.587L252.338 6.39646L252.044 3.4109L251.75 0.42534L249.815 0.615877L250.109 3.60144ZM252.044 3.4109L252.338 6.39646L254.273 6.20593L253.979 3.22036L253.685 0.234804L251.75 0.42534L252.044 3.4109ZM253.979 3.22036L254.273 6.20593C255.401 6.09486 256.527 6.07618 257.654 6.14963L257.849 3.15598L258.044 0.162336C256.591 0.0675783 255.137 0.0918155 253.685 0.234804L253.979 3.22036ZM257.849 3.15598L257.654 6.14963L259.589 6.27578L259.784 3.28213L259.979 0.288489L258.044 0.162336L257.849 3.15598ZM259.784 3.28213L259.589 6.27578L261.524 6.40193L261.719 3.40829L261.914 0.414643L259.979 0.288489L259.784 3.28213ZM261.719 3.40829L261.524 6.40193C262.598 6.472 263.683 6.65808 264.779 6.96543L265.589 4.07673L266.398 1.18802C264.915 0.772322 263.419 0.512781 261.914 0.414643L261.719 3.40829ZM265.589 4.07673L264.779 6.96543L266.714 7.50772L267.524 4.61902L268.333 1.73031L266.398 1.18802L265.589 4.07673ZM267.524 4.61902L266.714 7.50772L268.649 8.05001L269.459 5.1613L270.268 2.2726L268.333 1.73031L267.524 4.61902ZM269.459 5.1613L268.649 8.05001C270.276 8.50579 271.929 8.66811 273.592 8.52175L273.329 5.5333L273.066 2.54485C272.149 2.62555 271.222 2.53986 270.268 2.2726L269.459 5.1613ZM273.329 5.5333L273.592 8.52175L275.527 8.35147L275.264 5.36302L275.001 2.37457L273.066 2.54485L273.329 5.5333ZM275.264 5.36302L275.527 8.35147L277.462 8.18118L277.199 5.19273L276.936 2.20428L275.001 2.37457L275.264 5.36302ZM277.199 5.19273L277.462 8.18118C278.839 8.05999 280.215 7.87832 281.589 7.63645L281.069 4.68186L280.549 1.72728C279.343 1.93952 278.139 2.09842 276.936 2.20428L277.199 5.19273ZM281.069 4.68186L281.589 7.63645L283.524 7.29587L283.004 4.34128L282.484 1.3867L280.549 1.72728L281.069 4.68186ZM283.004 4.34128L283.524 7.29587L285.459 6.95528L284.939 4.0007L284.419 1.04612L282.484 1.3867L283.004 4.34128ZM284.939 4.0007L285.459 6.95528C286.483 6.77501 287.499 6.73618 288.515 6.83615L288.809 3.85058L289.103 0.865006C287.538 0.711034 285.975 0.772284 284.419 1.04612L284.939 4.0007ZM288.809 3.85058L288.515 6.83615L290.45 7.02661L290.744 4.04104L291.038 1.05546L289.103 0.865006L288.809 3.85058ZM290.744 4.04104L290.45 7.02661L292.385 7.21707L292.679 4.23149L292.973 1.24592L291.038 1.05546L290.744 4.04104ZM292.679 4.23149L292.385 7.21707C293.956 7.37166 295.526 7.30525 297.087 7.02087L296.549 4.06945L296.011 1.11802C294.992 1.30365 293.982 1.34527 292.973 1.24592L292.679 4.23149ZM296.549 4.06945L297.087 7.02087L299.022 6.66837L298.484 3.71694L297.946 0.765518L296.011 1.11802L296.549 4.06945ZM298.484 3.71694L299.022 6.66837L300.957 6.31586L300.419 3.36444L299.881 0.413013L297.946 0.765518L298.484 3.71694ZM300.419 3.36444L300.957 6.31586C301.793 6.1634 302.627 6.1992 303.492 6.43748L304.289 3.54537L305.086 0.65325C303.37 0.180288 301.624 0.0954671 299.881 0.413013L300.419 3.36444ZM304.289 3.54537L303.492 6.43748L305.427 6.97092L306.224 4.0788L307.021 1.18668L305.086 0.65325L304.289 3.54537ZM306.224 4.0788L305.427 6.97092L307.362 7.50435L308.159 4.61223L308.956 1.72012L307.021 1.18668L306.224 4.0788ZM308.159 4.61223L307.362 7.50435C309.165 8.00151 310.998 8.00924 312.805 7.52553L312.029 4.6276L311.253 1.72967C310.48 1.93671 309.733 1.93419 308.956 1.72012L308.159 4.61223ZM312.029 4.6276L312.805 7.52553L314.74 7.00746L313.964 4.10953L313.188 1.2116L311.253 1.72967L312.029 4.6276ZM313.964 4.10953L314.74 7.00746L316.675 6.48939L315.899 3.59146L315.123 0.693531L313.188 1.2116L313.964 4.10953ZM315.899 3.59146L316.675 6.48939C317.525 6.26178 318.347 6.23699 319.176 6.40416L319.769 3.46326L320.361 0.522358C318.611 0.169713 316.853 0.230386 315.123 0.693531L315.899 3.59146ZM319.769 3.46326L319.176 6.40416L321.111 6.79403L321.704 3.85312L322.296 0.912222L320.361 0.522358L319.769 3.46326ZM321.704 3.85312L321.111 6.79403L323.046 7.18389L323.639 4.24299L324.231 1.30209L322.296 0.912222L321.704 3.85312ZM323.639 4.24299L323.046 7.18389C324.441 7.46497 325.839 7.66895 327.24 7.79517L327.509 4.80729L327.778 1.8194C326.598 1.71305 325.416 1.54082 324.231 1.30209L323.639 4.24299ZM327.509 4.80729L327.24 7.79517L329.174 7.9696L329.444 4.98172L329.713 1.99383L327.778 1.8194L327.509 4.80729ZM329.444 4.98172L329.174 7.9696L331.109 8.14403L331.379 5.15615L331.648 2.16827L329.713 1.99383L329.444 4.98172ZM331.379 5.15615L331.109 8.14403C332.566 8.27537 334.024 8.28431 335.482 8.17075L335.249 5.17982L335.016 2.18888C333.893 2.27635 332.771 2.26951 331.648 2.16827L331.379 5.15615ZM335.249 5.17982L335.482 8.17075L337.417 8.01998L337.184 5.02905L336.951 2.03811L335.016 2.18888L335.249 5.17982ZM337.184 5.02905L337.417 8.01998L339.352 7.86922L339.119 4.87828L338.886 1.88735L336.951 2.03811L337.184 5.02905ZM339.119 4.87828L339.352 7.86922C340.554 7.77555 341.756 7.73514 342.957 7.74789L342.989 4.74806L343.021 1.74823C341.642 1.73359 340.264 1.77999 338.886 1.88735L339.119 4.87828ZM342.989 4.74806L342.957 7.74789L344.892 7.76844L344.924 4.76861L344.956 1.76878L343.021 1.74823L342.989 4.74806ZM344.924 4.76861L344.892 7.76844L346.827 7.78899L346.859 4.78915L346.891 1.78932L344.956 1.76878L344.924 4.76861ZM346.859 4.78915L346.827 7.78899C348.339 7.80504 349.845 7.65475 351.343 7.34153L350.729 4.40505L350.115 1.46857C349.033 1.69489 347.959 1.80067 346.891 1.78932L346.859 4.78915ZM350.729 4.40505L351.343 7.34153L353.278 6.93687L352.664 4.0004L352.05 1.06392L350.115 1.46857L350.729 4.40505ZM352.664 4.0004L353.278 6.93687L355.213 6.53222L354.599 3.59574L353.985 0.659266L352.05 1.06392L352.664 4.0004ZM354.599 3.59574L355.213 6.53222C356.037 6.35985 356.852 6.3813 357.694 6.60652L358.469 3.70825L359.243 0.809977C357.506 0.345652 355.741 0.292095 353.985 0.659266L354.599 3.59574ZM358.469 3.70825L357.694 6.60652L359.629 7.12368L360.404 4.22541L361.178 1.32714L359.243 0.809977L358.469 3.70825ZM360.404 4.22541L359.629 7.12368L361.564 7.64084L362.339 4.74257L363.113 1.8443L361.178 1.32714L360.404 4.22541ZM362.339 4.74257L361.564 7.64084C363.047 8.03715 364.541 8.27893 366.044 8.36141L366.209 5.36592L366.373 2.37043C365.296 2.31132 364.211 2.13753 363.113 1.8443L362.339 4.74257ZM366.209 5.36592L366.044 8.36141L367.979 8.4676L368.144 5.47211L368.308 2.47662L366.373 2.37043L366.209 5.36592ZM368.144 5.47211L367.979 8.4676L369.914 8.5738L370.079 5.5783L370.243 2.58281L368.308 2.47662L368.144 5.47211ZM370.079 5.5783L369.914 8.5738C371.521 8.66194 373.118 8.49816 374.696 8.09226L373.949 5.18682L373.202 2.28138C372.2 2.53905 371.217 2.63626 370.243 2.58281L370.079 5.5783ZM373.949 5.18682L374.696 8.09226L376.631 7.59458L375.884 4.68914L375.137 1.7837L373.202 2.28138L373.949 5.18682ZM375.884 4.68914L376.631 7.59458L378.566 7.0969L377.819 4.19146L377.072 1.28602L375.137 1.7837L375.884 4.68914ZM377.819 4.19146L378.566 7.0969C379.64 6.8207 380.701 6.67424 381.753 6.65176L381.689 3.65245L381.625 0.653132C380.097 0.685768 378.578 0.898641 377.072 1.28602L377.819 4.19146ZM381.689 3.65245L381.753 6.65176L383.688 6.61043L383.624 3.61112L383.56 0.611801L381.625 0.653132L381.689 3.65245ZM383.624 3.61112L383.688 6.61043L385.623 6.5691L385.559 3.56979L385.495 0.570471L383.56 0.611801L383.624 3.61112ZM385.559 3.56979L385.623 6.5691C386.884 6.54216 388.145 6.5334 389.406 6.54281L389.429 3.54289L389.451 0.542973C388.132 0.533135 386.814 0.542301 385.495 0.570471L385.559 3.56979ZM389.429 3.54289L389.406 6.54281L391.341 6.55724L391.364 3.55732L391.386 0.557406L389.451 0.542973L389.429 3.54289ZM391.364 3.55732L391.341 6.55724L393.276 6.57167L393.299 3.57176L393.321 0.571839L391.386 0.557406L391.364 3.55732ZM393.299 3.57176L393.276 6.57167C394.487 6.5807 395.698 6.63783 396.909 6.74313L397.169 3.7544L397.429 0.765669C396.06 0.646691 394.691 0.582055 393.321 0.571839L393.299 3.57176ZM397.169 3.7544L396.909 6.74313L398.844 6.91134L399.104 3.92261L399.364 0.933878L397.429 0.765669L397.169 3.7544ZM399.104 3.92261L398.844 6.91134L400.779 7.07954L401.039 4.09082L401.299 1.10209L399.364 0.933878L399.104 3.92261ZM401.039 4.09082L400.779 7.07954C402.125 7.19657 403.472 7.27537 404.819 7.3159L404.909 4.31726L404.999 1.31862C403.766 1.2815 402.532 1.20934 401.299 1.10209L401.039 4.09082ZM404.909 4.31726L404.819 7.3159L406.754 7.37414L406.844 4.37549L406.934 1.37685L404.999 1.31862L404.909 4.31726ZM406.844 4.37549L406.754 7.37414L408.689 7.43237L408.779 4.43373L408.869 1.43509L406.934 1.37685L406.844 4.37549ZM408.779 4.43373L408.689 7.43237C409.891 7.46856 411.094 7.55739 412.298 7.69904L412.649 4.71959L412.999 1.74013C411.623 1.57828 410.247 1.47654 408.869 1.43509L408.779 4.43373ZM412.649 4.71959L412.298 7.69904L414.233 7.92667L414.584 4.94721L414.934 1.96776L412.999 1.74013L412.649 4.71959ZM414.584 4.94721L414.233 7.92667L416.168 8.1543L416.519 5.17484L416.869 2.19538L414.934 1.96776L414.584 4.94721ZM416.519 5.17484L416.168 8.1543C417.849 8.35198 419.523 8.22112 421.171 7.77588L420.389 4.87971L419.606 1.98354C418.674 2.23531 417.769 2.3012 416.869 2.19538L416.519 5.17484ZM420.389 4.87971L421.171 7.77588L423.106 7.25313L422.324 4.35696L421.541 1.46079L419.606 1.98354L420.389 4.87971ZM422.324 4.35696L423.106 7.25313L425.041 6.73038L424.259 3.8342L423.476 0.938031L421.541 1.46079L422.324 4.35696ZM424.259 3.8342L425.041 6.73038C425.986 6.47509 426.906 6.40191 427.818 6.49699L428.129 3.51315L428.44 0.52932C426.772 0.355458 425.111 0.496315 423.476 0.938031L424.259 3.8342ZM428.129 3.51315L427.818 6.49699L429.753 6.69869L430.064 3.71486L430.375 0.731025L428.44 0.52932L428.129 3.51315ZM430.064 3.71486L429.753 6.69869L431.688 6.9004L431.999 3.91656L432.31 0.93273L430.375 0.731025L430.064 3.71486ZM431.999 3.91656L431.688 6.9004C432.843 7.02084 434.003 7.22046 435.167 7.50061L435.869 4.58385L436.571 1.6671C435.155 1.32647 433.734 1.08123 432.31 0.93273L431.999 3.91656ZM435.869 4.58385L435.167 7.50061L437.102 7.9662L437.804 5.04944L438.506 2.13268L436.571 1.6671L435.869 4.58385ZM437.804 5.04944L437.102 7.9662L439.037 8.43178L439.739 5.51503L440.441 2.59827L438.506 2.13268L437.804 5.04944ZM439.739 5.51503L439.037 8.43178C440.614 8.81124 442.208 8.95167 443.808 8.84497L443.609 5.85161L443.409 2.85826C442.43 2.92356 441.444 2.8396 440.441 2.59827L439.739 5.51503ZM443.609 5.85161L443.808 8.84497L445.743 8.71597L445.544 5.72261L445.344 2.72926L443.409 2.85826L443.609 5.85161ZM445.544 5.72261L445.743 8.71597L447.678 8.58697L447.479 5.59361L447.279 2.60026L445.344 2.72926L445.544 5.72261ZM447.479 5.59361L447.678 8.58697C448.847 8.50905 450.015 8.50227 451.184 8.5666L451.349 5.57113L451.514 2.57567C450.102 2.49797 448.691 2.50617 447.279 2.60026L447.479 5.59361ZM451.349 5.57113L451.184 8.5666L453.119 8.67312L453.284 5.67766L453.449 2.68219L451.514 2.57567L451.349 5.57113ZM453.284 5.67766L453.119 8.67312L455.054 8.77964L455.219 5.78418L455.384 2.78871L453.449 2.68219L453.284 5.67766ZM455.219 5.78418L455.054 8.77964C456.531 8.86097 458.008 8.80403 459.481 8.60965L459.089 5.63542L458.697 2.6612C457.59 2.80719 456.486 2.84941 455.384 2.78871L455.219 5.78418ZM459.089 5.63542L459.481 8.60965L461.416 8.35438L461.024 5.38015L460.631 2.40592L458.697 2.6612L459.089 5.63542ZM461.024 5.38015L461.416 8.35438L463.351 8.0991L462.959 5.12487L462.566 2.15065L460.631 2.40592L461.024 5.38015ZM462.959 5.12487L463.351 8.0991C464.471 7.95135 465.588 7.90105 466.704 7.94744L466.829 4.95002L466.953 1.95261C465.489 1.89176 464.026 1.95804 462.566 2.15065L462.959 5.12487ZM466.829 4.95002L466.704 7.94744L468.639 8.02786L468.764 5.03045L468.888 2.03304L466.953 1.95261L466.829 4.95002ZM468.764 5.03045L468.639 8.02786L470.574 8.10829L470.699 5.11088L470.823 2.11346L468.888 2.03304L468.764 5.03045ZM470.699 5.11088L470.574 8.10829C471.963 8.16603 473.353 8.15481 474.742 8.07466L474.569 5.07964L474.396 2.08463C473.205 2.15335 472.014 2.16296 470.823 2.11346L470.699 5.11088ZM474.569 5.07964L474.742 8.07466L476.677 7.963L476.504 4.96799L476.331 1.97297L474.396 2.08463L474.569 5.07964ZM476.504 4.96799L476.677 7.963L478.612 7.85135L478.439 4.85633L478.266 1.86131L476.331 1.97297L476.504 4.96799ZM478.439 4.85633L478.612 7.85135C480.066 7.76742 481.516 7.56398 482.96 7.24301L482.309 4.3145L481.658 1.386C480.522 1.63859 479.391 1.79637 478.266 1.86131L478.439 4.85633ZM482.309 4.3145L482.96 7.24301L484.895 6.81284L484.244 3.88434L483.593 0.955828L481.658 1.386L482.309 4.3145ZM484.244 3.88434L484.895 6.81284L486.83 6.38267L486.179 3.45417L485.528 0.52566L483.593 0.955828L484.244 3.88434ZM486.179 3.45417L486.83 6.38267C487.886 6.14786 488.932 6.04635 489.973 6.07349L490.051 3.0745L490.129 0.0755234C488.587 0.0353184 487.052 0.186913 485.528 0.52566L486.179 3.45417ZM490.051 3.0745L489.973 6.07349L491.91 6.12399L491.988 3.12501L492.066 0.126029L490.129 0.0755234L490.051 3.0745ZM491.988 3.12501L491.91 6.12399L493.847 6.1745L493.925 3.17552L494.003 0.176536L492.066 0.126029L491.988 3.12501ZM493.925 3.17552L493.847 6.1745C494.969 6.20376 496.122 6.32842 497.307 6.55264L497.865 3.60493L498.423 0.657229C496.938 0.376228 495.464 0.214613 494.003 0.176536L493.925 3.17552ZM497.865 3.60493L497.307 6.55264L499.31 6.93155L499.868 3.98384L500.426 1.03614L498.423 0.657229L497.865 3.60493ZM499.868 3.98384L499.31 6.93155L501.313 7.31046L501.87 4.36275L502.428 1.41505L500.426 1.03614L499.868 3.98384ZM501.87 4.36275L501.313 7.31046C501.94 7.42917 502.38 7.69985 502.758 8.18275L505.12 6.33252L507.481 4.48229C506.198 2.84405 504.471 1.80155 502.428 1.41505L501.87 4.36275ZM505.12 6.33252L502.758 8.18275L504.005 9.77361L506.366 7.92337L508.728 6.07314L507.481 4.48229L505.12 6.33252ZM506.366 7.92337L504.005 9.77361L505.251 11.3645L507.612 9.51423L509.974 7.66399L508.728 6.07314L506.366 7.92337ZM507.612 9.51423L505.251 11.3645C506.157 12.5214 507.113 13.5947 508.118 14.5814L510.219 12.4404L512.321 10.2995C511.512 9.50566 510.729 8.62821 509.974 7.66399L507.612 9.51423ZM510.219 12.4404L508.118 14.5814L509.478 15.9167L511.58 13.7758L513.681 11.6348L512.321 10.2995L510.219 12.4404ZM511.58 13.7758L509.478 15.9167L510.839 17.2521L512.94 15.1111L515.042 12.9701L513.681 11.6348L511.58 13.7758ZM512.94 15.1111L510.839 17.2521C511.183 17.5896 511.323 17.9173 511.33 18.3984L514.33 18.3521L517.33 18.3058C517.298 16.246 516.512 14.4131 515.042 12.9701L512.94 15.1111ZM514.33 18.3521L511.33 18.3984L511.36 20.304L514.359 20.2577L517.359 20.2114L517.33 18.3058L514.33 18.3521ZM514.359 20.2577L511.36 20.304L511.389 22.2096L514.389 22.1633L517.389 22.117L517.359 20.2114L514.359 20.2577ZM514.389 22.1633L511.389 22.2096C511.41 23.5486 511.477 24.8947 511.589 26.2477L514.579 25.9992L517.568 25.7507C517.467 24.53 517.407 23.3188 517.389 22.117L514.389 22.1633ZM514.579 25.9992L511.589 26.2477L511.75 28.178L514.739 27.9295L517.729 27.681L517.568 25.7507L514.579 25.9992ZM514.739 27.9295L511.75 28.178L511.91 30.1082L514.9 29.8597L517.889 29.6112L517.729 27.681L514.739 27.9295ZM514.9 29.8597L511.91 30.1082C512.015 31.3741 512.107 32.6415 512.186 33.9105L515.18 33.725L518.174 33.5395C518.093 32.2285 517.998 30.9191 517.889 29.6112L514.9 29.8597ZM515.18 33.725L512.186 33.9105L512.306 35.8455L515.3 35.66L518.294 35.4745L518.174 33.5395L515.18 33.725ZM515.3 35.66L512.306 35.8455L512.426 37.7805L515.42 37.595L518.414 37.4095L518.294 35.4745L515.3 35.66ZM515.42 37.595L512.426 37.7805C512.513 39.1918 512.686 40.6009 512.944 42.007L515.895 41.465L518.846 40.923C518.63 39.7491 518.486 38.5781 518.414 37.4095L515.42 37.595ZM515.895 41.465L512.944 42.007L513.3 43.942L516.25 43.4L519.201 42.858L518.846 40.923L515.895 41.465ZM516.25 43.4L513.3 43.942L513.655 45.877L516.606 45.335L519.557 44.793L519.201 42.858L516.25 43.4ZM516.606 45.335L513.655 45.877C513.851 46.9416 513.925 48.0216 513.875 49.1216L516.872 49.2561L519.869 49.3907C519.939 47.8425 519.835 46.3084 519.557 44.793L516.606 45.335ZM516.872 49.2561L513.875 49.1216L513.786 51.1077L516.783 51.2423L519.78 51.3769L519.869 49.3907L516.872 49.2561ZM516.783 51.2423L513.786 51.1077L513.697 53.0939L516.694 53.2284L519.691 53.363L519.78 51.3769L516.783 51.2423ZM516.694 53.2284L513.697 53.0939C513.652 54.0975 513.449 55.0946 513.078 56.0946L515.891 57.1378L518.704 58.1811C519.284 56.6168 519.617 55.0075 519.691 53.363L516.694 53.2284ZM515.891 57.1378L513.078 56.0946L512.365 58.0178L515.178 59.0611L517.991 60.1043L518.704 58.1811L515.891 57.1378ZM515.178 59.0611L512.365 58.0178L511.652 59.941L514.465 60.9843L517.277 62.0275L517.991 60.1043L515.178 59.0611ZM514.465 60.9843L511.652 59.941C511.348 60.7603 510.886 61.429 510.247 61.989L512.223 64.2458L514.2 66.5025C515.598 65.2783 516.63 63.7726 517.277 62.0275L514.465 60.9843ZM512.223 64.2458L510.247 61.989L508.719 63.3273L510.696 65.584L512.672 67.8407L514.2 66.5025L512.223 64.2458ZM510.696 65.584L508.719 63.3273L507.191 64.6655L509.168 66.9223L511.144 69.179L512.672 67.8407L510.696 65.584ZM509.168 66.9223L507.191 64.6655C506.424 65.3374 505.598 65.8406 504.705 66.1925L505.805 68.9836L506.905 71.7747C508.458 71.1625 509.874 70.2915 511.144 69.179L509.168 66.9223ZM505.805 68.9836L504.705 66.1925L502.87 66.9156L503.97 69.7067L505.07 72.4978L506.905 71.7747L505.805 68.9836ZM503.97 69.7067L502.87 66.9156L501.035 67.6387L502.135 70.4298L503.235 73.2209L505.07 72.4978L503.97 69.7067ZM502.135 70.4298L501.035 67.6387C500.073 68.0176 499.092 68.2508 498.084 68.3431L498.357 71.3306L498.63 74.3182C500.212 74.1735 501.749 73.8062 503.235 73.2209L502.135 70.4298ZM498.357 71.3306L498.084 68.3431L496.141 68.5208L496.414 71.5083L496.687 74.4958L498.63 74.3182L498.357 71.3306ZM496.414 71.5083L496.141 68.5208L494.198 68.6985L494.471 71.686L494.744 74.6735L496.687 74.4958L496.414 71.5083ZM494.471 71.686L494.198 68.6985C492.951 68.8125 491.708 68.8954 490.468 68.9474L490.593 71.9448L490.719 74.9422C492.059 74.886 493.4 74.7964 494.744 74.6735L494.471 71.686ZM490.593 71.9448L490.468 68.9474L488.533 69.0286L488.658 72.0259L488.784 75.0233L490.719 74.9422L490.593 71.9448ZM488.658 72.0259L488.533 69.0286L486.598 69.1097L486.723 72.1071L486.849 75.1044L488.784 75.0233L488.658 72.0259ZM486.723 72.1071L486.598 69.1097C485.269 69.1654 483.941 69.2466 482.613 69.3534L482.853 72.3438L483.094 75.3341C484.346 75.2335 485.597 75.1569 486.849 75.1044L486.723 72.1071ZM482.853 72.3438L482.613 69.3534L480.678 69.509L480.918 72.4993L481.159 75.4897L483.094 75.3341L482.853 72.3438ZM480.918 72.4993L480.678 69.509L478.743 69.6645L478.983 72.6549L479.224 75.6452L481.159 75.4897L480.918 72.4993ZM478.983 72.6549L478.743 69.6645C477.814 69.7391 476.876 69.6503 475.913 69.3839L475.113 72.2754L474.314 75.167C475.93 75.6139 477.572 75.778 479.224 75.6452L478.983 72.6549ZM475.113 72.2754L475.913 69.3839L473.978 68.8489L473.178 71.7404L472.379 74.632L474.314 75.167L475.113 72.2754ZM473.178 71.7404L473.978 68.8489L472.043 68.3139L471.243 71.2055L470.444 74.097L472.379 74.632L473.178 71.7404ZM471.243 71.2055L472.043 68.3139C470.419 67.8651 468.77 67.7062 467.111 67.8519L467.373 70.8404L467.636 73.8289C468.557 73.748 469.487 73.8326 470.444 74.097L471.243 71.2055ZM467.373 70.8404L467.111 67.8519L465.176 68.0218L465.438 71.0103L465.701 73.9988L467.636 73.8289L467.373 70.8404ZM465.438 71.0103L465.176 68.0218L463.241 68.1917L463.503 71.1802L463.766 74.1687L465.701 73.9988L465.438 71.0103ZM463.503 71.1802L463.241 68.1917C462.242 68.2795 461.241 68.2232 460.228 68.0185L459.633 70.959L459.039 73.8995C460.606 74.2163 462.185 74.3076 463.766 74.1687L463.503 71.1802ZM459.633 70.959L460.228 68.0185L458.293 67.6273L457.698 70.5678L457.104 73.5083L459.039 73.8995L459.633 70.959ZM457.698 70.5678L458.293 67.6273L456.358 67.2361L455.763 70.1766L455.169 73.1171L457.104 73.5083L457.698 70.5678ZM455.763 70.1766L456.358 67.2361C454.824 66.926 453.281 66.8103 451.733 66.893L451.893 69.8887L452.053 72.8844C453.086 72.8293 454.122 72.9055 455.169 73.1171L455.763 70.1766ZM451.893 69.8887L451.733 66.893L449.798 66.9963L449.958 69.992L450.118 72.9877L452.053 72.8844L451.893 69.8887ZM449.958 69.992L449.798 66.9963L447.863 67.0996L448.023 70.0953L448.183 73.0911L450.118 72.9877L449.958 69.992ZM448.023 70.0953L447.863 67.0996C446.682 67.1627 445.501 67.1613 444.32 67.0955L444.153 70.0908L443.986 73.0862C445.385 73.1641 446.784 73.1658 448.183 73.0911L448.023 70.0953ZM444.153 70.0908L444.32 67.0955L442.385 66.9876L442.218 69.983L442.051 72.9783L443.986 73.0862L444.153 70.0908ZM442.218 69.983L442.385 66.9876L440.45 66.8798L440.283 69.8752L440.116 72.8705L442.051 72.9783L442.218 69.983ZM440.283 69.8752L440.45 66.8798C438.944 66.7959 437.44 66.8744 435.941 67.1136L436.413 70.0761L436.886 73.0386C437.967 72.8661 439.042 72.8107 440.116 72.8705L440.283 69.8752ZM436.413 70.0761L435.941 67.1136L434.006 67.4223L434.478 70.3848L434.951 73.3474L436.886 73.0386L436.413 70.0761ZM434.478 70.3848L434.006 67.4223L432.071 67.731L432.543 70.6936L433.016 73.6561L434.951 73.3474L434.478 70.3848ZM432.543 70.6936L432.071 67.731C430.993 67.903 429.921 67.9565 428.85 67.8933L428.673 70.888L428.496 73.8828C430.006 73.972 431.514 73.8958 433.016 73.6561L432.543 70.6936ZM428.673 70.888L428.85 67.8933L426.915 67.779L426.738 70.7738L426.561 73.7686L428.496 73.8828L428.673 70.888ZM426.738 70.7738L426.915 67.779L424.98 67.6647L424.803 70.6595L424.626 73.6543L426.561 73.7686L426.738 70.7738ZM424.803 70.6595L424.98 67.6647C423.657 67.5866 422.333 67.5307 421.01 67.497L420.933 70.496L420.857 73.495C422.113 73.527 423.37 73.5801 424.626 73.6543L424.803 70.6595ZM420.933 70.496L421.01 67.497L419.075 67.4477L418.998 70.4467L418.922 73.4458L420.857 73.495L420.933 70.496ZM418.998 70.4467L419.075 67.4477L417.14 67.3985L417.063 70.3975L416.987 73.3965L418.922 73.4458L418.998 70.4467ZM417.063 70.3975L417.14 67.3985C415.734 67.3627 414.329 67.4078 412.925 67.5338L413.193 70.5218L413.461 73.5098C414.637 73.4043 415.812 73.3666 416.987 73.3965L417.063 70.3975ZM413.193 70.5218L412.925 67.5338L410.99 67.7073L411.258 70.6953L411.526 73.6833L413.461 73.5098L413.193 70.5218ZM411.258 70.6953L410.99 67.7073L409.055 67.8808L409.323 70.8689L409.591 73.8569L411.526 73.6833L411.258 70.6953ZM409.323 70.8689L409.055 67.8808C407.633 68.0084 406.214 68.2308 404.799 68.5468L405.453 71.4746L406.107 74.4025C407.273 74.1422 408.434 73.9607 409.591 73.8569L409.323 70.8689ZM405.453 71.4746L404.799 68.5468L402.864 68.9791L403.518 71.9069L404.172 74.8347L406.107 74.4025L405.453 71.4746ZM403.518 71.9069L402.864 68.9791L400.929 69.4113L401.583 72.3392L402.237 75.267L404.172 74.8347L403.518 71.9069ZM401.583 72.3392L400.929 69.4113C399.977 69.6239 399.042 69.665 398.107 69.5412L397.713 72.5153L397.32 75.4893C398.964 75.7071 400.609 75.6307 402.237 75.267L401.583 72.3392ZM397.713 72.5153L398.107 69.5412L396.172 69.2851L395.778 72.2592L395.385 75.2332L397.32 75.4893L397.713 72.5153ZM395.778 72.2592L396.172 69.2851L394.237 69.029L393.843 72.003L393.45 74.9771L395.385 75.2332L395.778 72.2592ZM393.843 72.003L394.237 69.029C392.804 68.8394 391.369 68.7539 389.933 68.7731L389.973 71.7728L390.013 74.7726C391.157 74.7573 392.302 74.8252 393.45 74.9771L393.843 72.003ZM389.973 71.7728L389.933 68.7731L387.998 68.799L388.038 71.7988L388.078 74.7985L390.013 74.7726L389.973 71.7728ZM388.038 71.7988L387.998 68.799L386.063 68.8249L386.103 71.8247L386.143 74.8244L388.078 74.7985L388.038 71.7988ZM386.103 71.8247L386.063 68.8249C384.781 68.8421 383.499 68.8543 382.217 68.8614L382.233 71.8613L382.25 74.8613C383.548 74.8541 384.846 74.8418 386.143 74.8244L386.103 71.8247ZM382.233 71.8613L382.217 68.8614L380.282 68.8721L380.298 71.8721L380.315 74.872L382.25 74.8613L382.233 71.8613ZM380.298 71.8721L380.282 68.8721L378.347 68.8829L378.363 71.8829L378.38 74.8828L380.315 74.872L380.298 71.8721ZM378.363 71.8829L378.347 68.8829C377.323 68.8886 376.289 68.7602 375.241 68.4904L374.493 71.3958L373.746 74.3012C375.277 74.6952 376.824 74.8915 378.38 74.8828L378.363 71.8829ZM374.493 71.3958L375.241 68.4904L373.306 67.9927L372.558 70.8981L371.811 73.8035L373.746 74.3012L374.493 71.3958ZM372.558 70.8981L373.306 67.9927L371.371 67.4949L370.623 70.4003L369.876 73.3057L371.811 73.8035L372.558 70.8981ZM370.623 70.4003L371.371 67.4949C369.554 67.0276 367.716 67.0612 365.913 67.5868L366.753 70.4669L367.593 73.3469C368.371 73.1201 369.112 73.1093 369.876 73.3057L370.623 70.4003ZM366.753 70.4669L365.913 67.5868L363.978 68.1512L364.818 71.0312L365.658 73.9112L367.593 73.3469L366.753 70.4669ZM364.818 71.0312L363.978 68.1512L362.043 68.7155L362.883 71.5955L363.723 74.4755L365.658 73.9112L364.818 71.0312ZM362.883 71.5955L362.043 68.7155C360.988 69.0234 359.95 69.1881 358.924 69.2185L359.013 72.2172L359.102 75.2159C360.657 75.1698 362.199 74.92 363.723 74.4755L362.883 71.5955ZM359.013 72.2172L358.924 69.2185L356.989 69.2759L357.078 72.2746L357.167 75.2733L359.102 75.2159L359.013 72.2172ZM357.078 72.2746L356.989 69.2759L355.054 69.3333L355.143 72.332L355.232 75.3307L357.167 75.2733L357.078 72.2746ZM355.143 72.332L355.054 69.3333C354.001 69.3645 352.942 69.2728 351.875 69.0543L351.273 71.9933L350.672 74.9324C352.184 75.242 353.706 75.3759 355.232 75.3307L355.143 72.332ZM351.273 71.9933L351.875 69.0543L349.94 68.6582L349.338 71.5973L348.737 74.5364L350.672 74.9324L351.273 71.9933ZM349.338 71.5973L349.94 68.6582L348.005 68.2622L347.403 71.2013L346.802 74.1403L348.737 74.5364L349.338 71.5973ZM347.403 71.2013L348.005 68.2622C346.34 67.9216 344.663 67.9026 342.994 68.2075L343.533 71.1587L344.072 74.1099C344.983 73.9435 345.886 73.9529 346.802 74.1403L347.403 71.2013ZM343.533 71.1587L342.994 68.2075L341.059 68.561L341.598 71.5122L342.137 74.4633L344.072 74.1099L343.533 71.1587ZM341.598 71.5122L341.059 68.561L339.124 68.9145L339.663 71.8656L340.202 74.8168L342.137 74.4633L341.598 71.5122ZM339.663 71.8656L339.124 68.9145C338.114 69.0989 337.114 69.136 336.113 69.0286L335.793 72.0115L335.473 74.9944C337.053 75.1638 338.632 75.1036 340.202 74.8168L339.663 71.8656ZM335.793 72.0115L336.113 69.0286L334.178 68.821L333.858 71.8039L333.538 74.7868L335.473 74.9944L335.793 72.0115ZM333.858 71.8039L334.178 68.821L332.243 68.6135L331.923 71.5963L331.603 74.5792L333.538 74.7868L333.858 71.8039ZM331.923 71.5963L332.243 68.6135C331.049 68.4854 329.853 68.2988 328.655 68.0534L328.053 70.9924L327.451 73.9314C328.833 74.2144 330.217 74.4305 331.603 74.5792L331.923 71.5963ZM328.053 70.9924L328.655 68.0534L326.72 67.6571L326.118 70.596L325.516 73.535L327.451 73.9314L328.053 70.9924ZM326.118 70.596L326.72 67.6571L324.785 67.2607L324.183 70.1997L323.581 73.1387L325.516 73.535L326.118 70.596ZM324.183 70.1997L324.785 67.2607C323.042 66.9036 321.289 66.9527 319.562 67.3995L320.313 70.3039L321.065 73.2083C321.918 72.9877 322.745 72.9673 323.581 73.1387L324.183 70.1997ZM320.313 70.3039L319.562 67.3995L317.627 67.9001L318.378 70.8045L319.13 73.7089L321.065 73.2083L320.313 70.3039ZM318.378 70.8045L317.627 67.9001L315.692 68.4007L316.443 71.3051L317.195 74.2095L319.13 73.7089L318.378 70.8045ZM316.443 71.3051L315.692 68.4007C314.703 68.6565 313.735 68.7466 312.776 68.6818L312.573 71.675L312.371 74.6681C313.991 74.7776 315.603 74.6212 317.195 74.2095L316.443 71.3051ZM312.573 71.675L312.776 68.6818L310.841 68.551L310.638 71.5442L310.436 74.5374L312.371 74.6681L312.573 71.675ZM310.638 71.5442L310.841 68.551L308.906 68.4203L308.703 71.4134L308.501 74.4066L310.436 74.5374L310.638 71.5442ZM308.703 71.4134L308.906 68.4203C307.421 68.32 305.937 68.3639 304.456 68.5515L304.833 71.5277L305.21 74.5039C306.309 74.3648 307.405 74.3326 308.501 74.4066L308.703 71.4134ZM304.833 71.5277L304.456 68.5515L302.521 68.7965L302.898 71.7728L303.275 74.749L305.21 74.5039L304.833 71.5277ZM302.898 71.7728L302.521 68.7965L300.586 69.0416L300.963 72.0178L301.34 74.9941L303.275 74.749L302.898 71.7728ZM300.963 72.0178L300.586 69.0416C299.727 69.1504 298.859 69.0798 297.956 68.8085L297.093 71.6817L296.23 74.555C297.907 75.0586 299.619 75.212 301.34 74.9941L300.963 72.0178ZM297.093 71.6817L297.956 68.8085L296.021 68.2274L295.158 71.1006L294.295 73.9738L296.23 74.555L297.093 71.6817ZM295.158 71.1006L296.021 68.2274L294.086 67.6463L293.223 70.5195L292.36 73.3927L294.295 73.9738L295.158 71.1006ZM293.223 70.5195L294.086 67.6463C292.192 67.0774 290.264 67.1178 288.391 67.7523L289.353 70.5937L290.316 73.4352C291.022 73.1958 291.674 73.1867 292.36 73.3927L293.223 70.5195ZM289.353 70.5937L288.391 67.7523L286.456 68.4077L287.418 71.2491L288.381 74.0905L290.316 73.4352L289.353 70.5937ZM287.418 71.2491L286.456 68.4077L284.521 69.063L285.483 71.9045L286.446 74.7459L288.381 74.0905L287.418 71.2491ZM285.483 71.9045L284.521 69.063C283.854 69.2888 283.24 69.2889 282.574 69.0636L281.613 71.9056L280.652 74.7475C282.566 75.3947 284.532 75.394 286.446 74.7459L285.483 71.9045ZM281.613 71.9056L282.574 69.0636L280.639 68.4094L279.678 71.2513L278.717 74.0932L280.652 74.7475L281.613 71.9056ZM279.678 71.2513L280.639 68.4094L278.704 67.7551L277.743 70.597L276.782 73.439L278.717 74.0932L279.678 71.2513ZM277.743 70.597L278.704 67.7551C277.106 67.2146 275.473 66.9483 273.819 66.9781L273.873 69.9776L273.927 72.9771C274.854 72.9604 275.801 73.1071 276.782 73.439L277.743 70.597ZM273.873 69.9776L273.819 66.9781L271.884 67.013L271.938 70.0125L271.992 73.012L273.927 72.9771L273.873 69.9776ZM271.938 70.0125L271.884 67.013L269.949 67.0478L270.003 70.0473L270.057 73.0468L271.992 73.012L271.938 70.0125ZM270.003 70.0473L269.949 67.0478C268.315 67.0773 266.703 67.3839 265.126 67.9462L266.133 70.772L267.141 73.5978C268.143 73.2404 269.112 73.0639 270.057 73.0468L270.003 70.0473ZM266.133 70.772L265.126 67.9462L263.191 68.6359L264.198 71.4618L265.206 74.2876L267.141 73.5978L266.133 70.772ZM264.198 71.4618L263.191 68.6359L261.256 69.3257L262.263 72.1515L263.271 74.9773L265.206 74.2876L264.198 71.4618ZM262.263 72.1515L261.256 69.3257C260.377 69.6391 259.551 69.7288 258.745 69.6337L258.393 72.613L258.042 75.5923C259.815 75.8016 261.57 75.5837 263.271 74.9773L262.263 72.1515ZM258.393 72.613L258.745 69.6337L256.81 69.4053L256.458 72.3847L256.107 75.364L258.042 75.5923L258.393 72.613ZM256.458 72.3847L256.81 69.4053L254.875 69.177L254.523 72.1563L254.172 75.1357L256.107 75.364L256.458 72.3847ZM254.523 72.1563L254.875 69.177C253.67 69.0349 252.464 68.8401 251.256 68.5925L250.653 71.5314L250.051 74.4704C251.423 74.7515 252.796 74.9734 254.172 75.1357L254.523 72.1563ZM250.653 71.5314L251.256 68.5925L249.321 68.1959L248.718 71.1349L248.116 74.0738L250.051 74.4704L250.653 71.5314ZM248.718 71.1349L249.321 68.1959L247.386 67.7994L246.783 70.7383L246.181 73.6772L248.116 74.0738L248.718 71.1349ZM246.783 70.7383L247.386 67.7994C245.651 67.4439 243.907 67.4847 242.186 67.9149L242.913 70.8253L243.641 73.7358C244.5 73.5211 245.335 73.5038 246.181 73.6772L246.783 70.7383ZM242.913 70.8253L242.186 67.9149L240.251 68.3985L240.978 71.309L241.706 74.2194L243.641 73.7358L242.913 70.8253ZM240.978 71.309L240.251 68.3985L238.316 68.8821L239.043 71.7926L239.771 74.7031L241.706 74.2194L240.978 71.309ZM239.043 71.7926L238.316 68.8821C237.254 69.1474 236.207 69.2781 235.167 69.2802L235.173 72.2802L235.179 75.2802C236.72 75.277 238.252 75.0826 239.771 74.7031L239.043 71.7926ZM235.173 72.2802L235.167 69.2802L233.232 69.2842L233.238 72.2842L233.244 75.2842L235.179 75.2802L235.173 72.2802ZM233.238 72.2842L233.232 69.2842L231.297 69.2882L231.303 72.2882L231.309 75.2882L233.244 75.2842L233.238 72.2842ZM231.303 72.2882L231.297 69.2882C229.989 69.2908 228.681 69.3053 227.373 69.3316L227.433 72.331L227.493 75.3304C228.765 75.3048 230.037 75.2908 231.309 75.2882L231.303 72.2882ZM227.433 72.331L227.373 69.3316L225.438 69.3705L225.498 72.3699L225.558 75.3692L227.493 75.3304L227.433 72.331ZM225.498 72.3699L225.438 69.3705L223.503 69.4093L223.563 72.4087L223.623 75.4081L225.558 75.3692L225.498 72.3699ZM223.563 72.4087L223.503 69.4093C222.507 69.4293 221.5 69.3058 220.474 69.0292L219.693 71.9257L218.912 74.8223C220.466 75.2414 222.04 75.4399 223.623 75.4081L223.563 72.4087ZM219.693 71.9257L220.474 69.0292L218.539 68.5074L217.758 71.4039L216.977 74.3004L218.912 74.8223L219.693 71.9257ZM217.758 71.4039L218.539 68.5074L216.604 67.9855L215.823 70.8821L215.042 73.7786L216.977 74.3004L217.758 71.4039ZM215.823 70.8821L216.604 67.9855C215.081 67.5746 213.541 67.3556 211.991 67.3361L211.953 70.3359L211.915 73.3356C212.946 73.3486 213.986 73.4938 215.042 73.7786L215.823 70.8821ZM211.953 70.3359L211.991 67.3361L210.056 67.3118L210.018 70.3115L209.98 73.3113L211.915 73.3356L211.953 70.3359ZM210.018 70.3115L210.056 67.3118L208.121 67.2874L208.083 70.2872L208.046 73.2869L209.98 73.3113L210.018 70.3115ZM208.083 70.2872L208.121 67.2874C206.641 67.2688 205.164 67.3901 203.692 67.6497L204.213 70.6041L204.734 73.5585C205.843 73.363 206.946 73.2731 208.046 73.2869L208.083 70.2872ZM204.213 70.6041L203.692 67.6497L201.757 67.991L202.278 70.9454L202.799 73.8998L204.734 73.5585L204.213 70.6041ZM202.278 70.9454L201.757 67.991L199.822 68.3322L200.343 71.2867L200.864 74.2411L202.799 73.8998L202.278 70.9454ZM200.343 71.2867L199.822 68.3322C198.799 68.5128 197.783 68.5515 196.768 68.4512L196.473 71.4367L196.178 74.4221C197.743 74.5768 199.308 74.5156 200.864 74.2411L200.343 71.2867ZM196.473 71.4367L196.768 68.4512L194.833 68.26L194.538 71.2454L194.243 74.2309L196.178 74.4221L196.473 71.4367ZM194.538 71.2454L194.833 68.26L192.898 68.0687L192.603 71.0542L192.308 74.0396L194.243 74.2309L194.538 71.2454ZM192.603 71.0542L192.898 68.0687C191.325 67.9132 189.752 67.9814 188.188 68.2703L188.733 71.2204L189.278 74.1705C190.295 73.9827 191.302 73.9401 192.308 74.0396L192.603 71.0542ZM188.733 71.2204L188.188 68.2703L186.253 68.6279L186.798 71.5779L187.343 74.528L189.278 74.1705L188.733 71.2204ZM186.798 71.5779L186.253 68.6279L184.318 68.9854L184.863 71.9355L185.408 74.8855L187.343 74.528L186.798 71.5779ZM184.863 71.9355L184.318 68.9854C183.149 69.2015 181.982 69.3431 180.818 69.411L180.993 72.4059L181.168 75.4008C182.584 75.3182 183.998 75.1461 185.408 74.8855L184.863 71.9355ZM180.993 72.4059L180.818 69.411L178.883 69.524L179.058 72.5189L179.233 75.5138L181.168 75.4008L180.993 72.4059ZM179.058 72.5189L178.883 69.524L176.948 69.6369L177.123 72.6318L177.298 75.6267L179.233 75.5138L179.058 72.5189ZM177.123 72.6318L176.948 69.6369C175.732 69.7079 174.516 69.7337 173.301 69.7145L173.253 72.7142L173.206 75.7138C174.57 75.7353 175.934 75.7063 177.298 75.6267L177.123 72.6318ZM173.253 72.7142L173.301 69.7145L171.366 69.684L171.318 72.6836L171.271 75.6832L173.206 75.7138L173.253 72.7142ZM171.318 72.6836L171.366 69.684L169.431 69.6534L169.383 72.653L169.336 75.6526L171.271 75.6832L171.318 72.6836ZM169.383 72.653L169.431 69.6534C168.362 69.6365 167.287 69.5023 166.201 69.2467L165.513 72.1669L164.826 75.0871C166.32 75.4388 167.824 75.6287 169.336 75.6526L169.383 72.653ZM165.513 72.1669L166.201 69.2467L164.266 68.7912L163.578 71.7114L162.891 74.6316L164.826 75.0871L165.513 72.1669ZM163.578 71.7114L164.266 68.7912L162.331 68.3357L161.643 71.2559L160.956 74.1761L162.891 74.6316L163.578 71.7114ZM161.643 71.2559L162.331 68.3357C160.762 67.9663 159.177 67.8278 157.586 67.9275L157.773 70.9216L157.961 73.9157C158.95 73.8538 159.945 73.9381 160.956 74.1761L161.643 71.2559ZM157.773 70.9216L157.586 67.9275L155.651 68.0487L155.838 71.0428L156.026 74.0369L157.961 73.9157L157.773 70.9216ZM155.838 71.0428L155.651 68.0487L153.716 68.1699L153.903 71.164L154.091 74.1581L156.026 74.0369L155.838 71.0428ZM153.903 71.164L153.716 68.1699C152.636 68.2375 151.555 68.1921 150.47 68.0324L150.033 71.0005L149.597 73.9685C151.091 74.1885 152.591 74.2521 154.091 74.1581L153.903 71.164ZM150.033 71.0005L150.47 68.0324L148.535 67.7477L148.098 70.7157L147.661 73.6838L149.597 73.9685L150.033 71.0005ZM148.098 70.7157L148.535 67.7477L146.6 67.463L146.163 70.431L145.726 73.399L147.661 73.6838L148.098 70.7157ZM146.163 70.431L146.6 67.463C144.996 67.227 143.389 67.2461 141.789 67.5191L142.293 70.4764L142.798 73.4337C143.778 73.2665 144.75 73.2553 145.726 73.399L146.163 70.431ZM142.293 70.4764L141.789 67.5191L139.854 67.8492L140.358 70.8065L140.863 73.7638L142.798 73.4337L142.293 70.4764ZM140.358 70.8065L139.854 67.8492L137.919 68.1794L138.423 71.1366L138.928 74.0939L140.863 73.7638L140.358 70.8065ZM138.423 71.1366L137.919 68.1794C136.994 68.3372 136.075 68.3239 135.144 68.1369L134.553 71.0782L133.963 74.0195C135.612 74.3506 137.273 74.3763 138.928 74.0939L138.423 71.1366ZM134.553 71.0782L135.144 68.1369L133.209 67.7484L132.618 70.6897L132.028 73.631L133.963 74.0195L134.553 71.0782ZM132.618 70.6897L133.209 67.7484L131.274 67.3599L130.683 70.3012L130.093 73.2425L132.028 73.631L132.618 70.6897ZM130.683 70.3012L131.274 67.3599C129.646 67.0331 128.006 66.9904 126.369 67.2353L126.813 70.2023L127.257 73.1692C128.2 73.0281 129.14 73.0513 130.093 73.2425L130.683 70.3012ZM126.813 70.2023L126.369 67.2353L124.434 67.5249L124.878 70.4918L125.322 73.4588L127.257 73.1692L126.813 70.2023ZM124.878 70.4918L124.434 67.5249L122.499 67.8144L122.943 70.7814L123.387 73.7484L125.322 73.4588L124.878 70.4918ZM122.943 70.7814L122.499 67.8144C121.231 68.0042 119.963 68.1795 118.696 68.3403L119.073 71.3165L119.451 74.2926C120.763 74.1261 122.075 73.9447 123.387 73.7484L122.943 70.7814ZM119.073 71.3165L118.696 68.3403L116.761 68.5858L117.138 71.5619L117.516 74.5381L119.451 74.2926L119.073 71.3165ZM117.138 71.5619L116.761 68.5858L114.826 68.8313L115.203 71.8074L115.581 74.7836L117.516 74.5381L117.138 71.5619ZM115.203 71.8074L114.826 68.8313C113.679 68.9767 112.535 69.0378 111.392 69.0153L111.333 72.0147L111.274 75.0141C112.711 75.0425 114.147 74.9654 115.581 74.7836L115.203 71.8074ZM111.333 72.0147L111.392 69.0153L109.457 68.9771L109.398 71.9765L109.339 74.9759L111.274 75.0141L111.333 72.0147ZM109.398 71.9765L109.457 68.9771L107.522 68.9389L107.463 71.9383L107.404 74.9378L109.339 74.9759L109.398 71.9765ZM107.463 71.9383L107.522 68.9389C106.14 68.9116 104.757 68.9484 103.375 69.0492L103.593 72.0413L103.811 75.0333C105.009 74.946 106.207 74.9141 107.404 74.9378L107.463 71.9383ZM103.593 72.0413L103.375 69.0492L101.44 69.1904L101.658 72.1824L101.876 75.1745L103.811 75.0333L103.593 72.0413ZM101.658 72.1824L101.44 69.1904L99.505 69.3315L99.7232 72.3235L99.9415 75.3156L101.876 75.1745L101.658 72.1824ZM99.7232 72.3235L99.505 69.3315C98.3657 69.4146 97.227 69.4115 96.0875 69.3223L95.8532 72.3131L95.619 75.304C97.0595 75.4168 98.5008 75.4207 99.9415 75.3156L99.7232 72.3235ZM95.8532 72.3131L96.0875 69.3223L94.1525 69.1707L93.9182 72.1616L93.684 75.1524L95.619 75.304L95.8532 72.3131ZM93.9182 72.1616L94.1525 69.1707L92.2175 69.0192L91.9832 72.01L91.749 75.0009L93.684 75.1524L93.9182 72.1616ZM91.9832 72.01L92.2175 69.0192C91.0019 68.924 89.7854 68.7831 88.5679 68.5965L88.1133 71.5618L87.6586 74.5272C89.0211 74.7361 90.3846 74.894 91.749 75.0009L91.9832 72.01ZM88.1133 71.5618L88.5679 68.5965L86.6329 68.2998L86.1783 71.2652L85.7236 74.2305L87.6586 74.5272L88.1133 71.5618ZM86.1783 71.2652L86.6329 68.2998L84.6979 68.0032L84.2433 70.9685L83.7887 73.9339L85.7236 74.2305L86.1783 71.2652ZM84.2433 70.9685L84.6979 68.0032C83.1067 67.7592 81.5103 67.7591 79.9191 68.0028L80.3733 70.9682L80.8274 73.9336C81.8162 73.7822 82.7998 73.7823 83.7887 73.9339L84.2433 70.9685ZM80.3733 70.9682L79.9191 68.0028L77.9841 68.2991L78.4383 71.2646L78.8924 74.23L80.8274 73.9336L80.3733 70.9682ZM78.4383 71.2646L77.9841 68.2991L76.0491 68.5955L76.5032 71.5609L76.9574 74.5263L78.8924 74.23L78.4383 71.2646ZM76.5032 71.5609L76.0491 68.5955C74.9345 68.7662 73.8239 68.8357 72.7154 68.8054L72.6332 71.8043L72.5511 74.8031C74.0225 74.8434 75.492 74.7508 76.9574 74.5263L76.5032 71.5609ZM72.6332 71.8043L72.7154 68.8054L70.7804 68.7524L70.6982 71.7513L70.6161 74.7501L72.5511 74.8031L72.6332 71.8043ZM70.6982 71.7513L70.7804 68.7524L68.8454 68.6994L68.7632 71.6983L68.6811 74.6972L70.6161 74.7501L70.6982 71.7513ZM68.7632 71.6983L68.8454 68.6994C67.6876 68.6677 66.5278 68.5596 65.3653 68.3744L64.8932 71.337L64.4212 74.2996C65.8387 74.5255 67.2589 74.6582 68.6811 74.6972L68.7632 71.6983ZM64.8932 71.337L65.3653 68.3744L63.4303 68.066L62.9582 71.0287L62.4862 73.9913L64.4212 74.2996L64.8932 71.337ZM62.9582 71.0287L63.4303 68.066L61.4953 67.7577L61.0233 70.7204L60.5512 73.683L62.4862 73.9913L62.9582 71.0287ZM61.0233 70.7204L61.4953 67.7577C60.1281 67.5399 58.7597 67.3766 57.3902 67.2681L57.1533 70.2587L56.9163 73.2494C58.1268 73.3453 59.3384 73.4898 60.5512 73.683L61.0233 70.7204ZM57.1533 70.2587L57.3902 67.2681L55.4552 67.1148L55.2182 70.1054L54.9813 73.096L56.9163 73.2494L57.1533 70.2587ZM55.2182 70.1054L55.4552 67.1148L53.5202 66.9614L53.2832 69.9521L53.0463 72.9427L54.9813 73.096L55.2182 70.1054ZM53.2832 69.9521L53.5202 66.9614C51.9193 66.8346 50.3234 66.9558 48.7429 67.3181L49.4132 70.2423L50.0835 73.1664C51.0831 72.9373 52.0672 72.8651 53.0463 72.9427L53.2832 69.9521ZM49.4132 70.2423L48.7429 67.3181L46.8079 67.7617L47.4782 70.6858L48.1485 73.61L50.0835 73.1664L49.4132 70.2423ZM47.4782 70.6858L46.8079 67.7617L44.873 68.2052L45.5432 71.1294L46.2135 74.0535L48.1485 73.61L47.4782 70.6858ZM45.5432 71.1294L44.873 68.2052C43.773 68.4574 42.6819 68.5955 41.597 68.6231L41.6733 71.6221L41.7495 74.6212C43.2446 74.5831 44.7335 74.3928 46.2135 74.0535L45.5432 71.1294ZM41.6733 71.6221L41.597 68.6231L39.662 68.6723L39.7383 71.6713L39.8145 74.6704L41.7495 74.6212L41.6733 71.6221ZM39.7383 71.6713L39.662 68.6723L37.727 68.7215L37.8033 71.7205L37.8795 74.7196L39.8145 74.6704L39.7383 71.6713ZM37.8033 71.7205L37.727 68.7215C36.3503 68.7565 34.9743 68.8511 33.5991 69.0053L33.9332 71.9866L34.2674 74.9679C35.4722 74.8329 36.6762 74.7502 37.8795 74.7196L37.8033 71.7205ZM33.9332 71.9866L33.5991 69.0053L31.6641 69.2221L31.9982 72.2035L32.3324 75.1848L34.2674 74.9679L33.9332 71.9866ZM31.9982 72.2035L31.6641 69.2221L29.7291 69.439L30.0632 72.4203L30.3974 75.4017L32.3324 75.1848L31.9982 72.2035ZM30.0632 72.4203L29.7291 69.439C28.9545 69.5258 28.1887 69.4235 27.3885 69.0983L26.259 71.8776L25.1295 74.6569C26.8216 75.3445 28.5919 75.604 30.3974 75.4017L30.0632 72.4203ZM26.259 71.8776L27.3885 69.0983L25.5192 68.3387L24.3898 71.118L23.2603 73.8972L25.1295 74.6569L26.259 71.8776ZM24.3898 71.118L25.5192 68.3387L23.65 67.5791L22.5206 70.3583L21.3911 73.1376L23.2603 73.8972L24.3898 71.118ZM22.5206 70.3583L23.65 67.5791C22.0543 66.9306 20.3831 66.595 18.6562 66.5729L18.6178 69.5726L18.5794 72.5724C19.5639 72.585 20.4945 72.7732 21.3911 73.1376L22.5206 70.3583ZM18.6178 69.5726L18.6562 66.5729L16.6227 66.5469L16.5843 69.5466L16.5459 72.5464L18.5794 72.5724L18.6178 69.5726ZM16.5843 69.5466L16.6227 66.5469L14.5892 66.5208L14.5508 69.5206L14.5124 72.5203L16.5459 72.5464L16.5843 69.5466ZM14.5508 69.5206L14.5892 66.5208C13.9489 66.5126 13.4244 66.3193 12.9054 65.8736L10.951 68.1496L8.99665 70.4257C10.566 71.7732 12.4414 72.4938 14.5124 72.5203L14.5508 69.5206ZM10.951 68.1496L12.9054 65.8736L11.3391 64.5287L9.38474 66.8047L7.43037 69.0808L8.99665 70.4257L10.951 68.1496ZM9.38474 66.8047L11.3391 64.5287L9.77283 63.1837L7.81846 65.4598L5.86409 67.7359L7.43037 69.0808L9.38474 66.8047ZM7.81846 65.4598L9.77283 63.1837C9.31481 62.7905 9.09647 62.3691 9.0384 61.7723L6.0525 62.0628L3.0666 62.3533C3.27477 64.4926 4.23374 66.3359 5.86409 67.7359L7.81846 65.4598ZM6.0525 62.0628L9.0384 61.7723L8.83872 59.7202L5.85283 60.0107L2.86693 60.3013L3.0666 62.3533L6.0525 62.0628ZM5.85283 60.0107L8.83872 59.7202L8.63905 57.6681L5.65315 57.9586L2.66725 58.2492L2.86693 60.3013L5.85283 60.0107ZM5.65315 57.9586L8.63905 57.6681C8.49295 56.1666 8.25057 54.7209 7.90747 53.3341L4.99527 54.0546L2.08308 54.7751C2.35091 55.8576 2.54712 57.0145 2.66725 58.2492L5.65315 57.9586ZM4.99527 54.0546L7.90747 53.3341L7.44927 51.4821L4.53708 52.2026L1.62489 52.9232L2.08308 54.7751L4.99527 54.0546ZM4.53708 52.2026L7.44927 51.4821L6.99107 49.6302L4.07888 50.3507L1.16669 51.0712L1.62489 52.9232L4.53708 52.2026ZM4.07888 50.3507L6.99107 49.6302C6.79577 48.8408 6.77594 48.0273 6.95143 47.1562L4.01052 46.5637L1.06961 45.9712C0.725316 47.6802 0.751062 49.3913 1.16669 51.0712L4.07888 50.3507ZM4.01052 46.5637L6.95143 47.1562L7.34127 45.2212L4.40036 44.6287L1.45945 44.0363L1.06961 45.9712L4.01052 46.5637ZM4.40036 44.6287L7.34127 45.2212L7.73111 43.2862L4.7902 42.6937L1.84929 42.1012L1.45945 44.0363L4.40036 44.6287ZM4.7902 42.6937L7.73111 43.2862C8.05625 41.6724 8.11097 40.0462 7.89116 38.4215L4.91825 38.8237L1.94533 39.226C2.07458 40.1813 2.04394 41.1351 1.84929 42.1012L4.7902 42.6937ZM4.91825 38.8237L7.89116 38.4215L7.62937 36.4865L4.65645 36.8887L1.68354 37.291L1.94533 39.226L4.91825 38.8237ZM4.65645 36.8887L7.62937 36.4865L7.36757 34.5515L4.39466 34.9537L1.42174 35.356L1.68354 37.291L4.65645 36.8887ZM4.39466 34.9537L7.36757 34.5515C7.18745 33.2202 6.97912 31.8893 6.74261 30.5587L3.78891 31.0837L0.835211 31.6088C1.05731 32.8582 1.2528 34.1073 1.42174 35.356L4.39466 34.9537ZM3.78891 31.0837L6.74261 30.5587L6.39866 28.6237L3.44496 29.1487L0.491261 29.6738L0.835211 31.6088L3.78891 31.0837ZM3.44496 29.1487L6.39866 28.6237L6.05471 26.6887L3.10101 27.2137L0.147311 27.7388L0.491261 29.6738L3.44496 29.1487ZM3.10101 27.2137L6.05471 26.6887C5.93317 26.0049 6.012 25.3818 6.30877 24.7368L3.58343 23.4828L0.858093 22.2288C0.0530393 23.9784 -0.189746 25.8425 0.147311 27.7388L3.10101 27.2137ZM3.58343 23.4828L6.30877 24.7368L7.13514 22.9409L4.4098 21.6868L1.68446 20.4328L0.858093 22.2288L3.58343 23.4828ZM4.4098 21.6868L7.13514 22.9409L7.96151 21.1449L5.23617 19.8909L2.51083 18.6369L1.68446 20.4328L4.4098 21.6868ZM5.23617 19.8909L7.96151 21.1449C8.61278 19.7295 9.09392 18.24 9.40874 16.683L6.46825 16.0884L3.52776 15.4939C3.30162 16.6122 2.96138 17.6577 2.51083 18.6369L5.23617 19.8909ZM6.46825 16.0884L9.40874 16.683L9.81446 14.6764L6.87396 14.0819L3.93347 13.4873L3.52776 15.4939L6.46825 16.0884ZM6.87396 14.0819L9.81446 14.6764L10.2202 12.6699L7.27967 12.0753L4.33918 11.4808L3.93347 13.4873L6.87396 14.0819ZM7.27967 12.0753L10.2202 12.6699C10.2687 12.4299 10.3315 12.3639 10.3336 12.3614C10.3354 12.3594 10.3891 12.29 10.6138 12.21L9.60671 9.38406L8.59959 6.55816C6.32308 7.36949 4.81726 9.11636 4.33918 11.4808L7.27967 12.0753ZM9.60671 9.38406L10.6138 12.21L12.5352 11.5252L11.528 8.69932L10.5209 5.87342L8.59959 6.55816L9.60671 9.38406ZM11.528 8.69932L12.5352 11.5252L14.4565 10.8405L13.4494 8.01458L12.4422 5.18868L10.5209 5.87342L11.528 8.69932ZM13.4494 8.01458L14.4565 10.8405C15.9483 10.3088 17.3639 9.61754 18.6994 8.76837L17.0896 6.23682L15.4799 3.70526C14.5234 4.31345 13.5122 4.80737 12.4422 5.18868L13.4494 8.01458ZM17.0896 6.23682L18.6994 8.76837L20.4183 7.67536L18.8086 5.1438L17.1989 2.61224L15.4799 3.70526L17.0896 6.23682ZM18.8086 5.1438L20.4183 7.67536L22.1373 6.58234L20.5275 4.05078L18.9178 1.51923L17.1989 2.61224L18.8086 5.1438ZM20.5275 4.05078L22.1373 6.58234C22.3757 6.4307 22.5641 6.32126 22.7071 6.2455C22.8562 6.16648 22.9194 6.14366 22.9123 6.14616C22.906 6.1484 22.8613 6.16416 22.7843 6.18086C22.7103 6.19694 22.5712 6.22164 22.3836 6.22404C22.0222 6.22864 21.2319 6.14294 20.5352 5.47375L22.6133 3.31012L24.6915 1.1465C23.8725 0.359854 22.9035 0.216919 22.3071 0.224524C21.7281 0.231907 21.2327 0.375531 20.9046 0.492058C20.2364 0.729308 19.5506 1.11686 18.9178 1.51923L20.5275 4.05078ZM22.6133 3.31012L20.5352 5.47375L20.902 5.8261L22.9802 3.66248L25.0583 1.49885L24.6915 1.1465L22.6133 3.31012ZM22.9802 3.66248L20.902 5.8261L21.2689 6.17846L23.347 4.01483L25.4252 1.85121L25.0583 1.49885L22.9802 3.66248ZM23.347 4.01483L21.2689 6.17846C21.8069 6.69521 22.4014 6.92279 22.7503 7.0296C23.133 7.14676 23.5053 7.2028 23.8146 7.23297C24.433 7.29329 25.1319 7.28006 25.8466 7.23285L25.6489 4.23937L25.4511 1.2459C25.1748 1.26415 24.9474 1.27239 24.7643 1.27331C24.5779 1.27425 24.46 1.26745 24.3972 1.26132C24.3229 1.25407 24.3768 1.25268 24.5066 1.2924C24.5762 1.3137 24.697 1.35572 24.846 1.43308C24.9936 1.50976 25.2053 1.64006 25.4252 1.85121L23.347 4.01483ZM25.6489 4.23937L25.8466 7.23285L27.7816 7.10504L27.5839 4.11156L27.3861 1.11808L25.4511 1.2459L25.6489 4.23937Z" fill="black"/>
<path d="M156.409 47.002C155.744 47.9043 154.942 48.6562 154.003 49.2578C152.854 49.987 151.674 50.3516 150.462 50.3516C148.138 50.3516 146.41 49.9049 145.28 49.0117C142.892 47.125 141.698 43.8483 141.698 39.1816C141.698 38.735 141.721 38.0697 141.767 37.1855C141.812 36.3014 141.835 35.6361 141.835 35.1895C141.835 34.834 141.844 34.3053 141.862 33.6035C141.881 32.8926 141.89 32.3594 141.89 32.0039C141.89 31.2747 142.022 30.5866 142.286 29.9395C142.642 29.0827 143.138 28.6543 143.776 28.6543C144.278 28.6543 144.72 28.8184 145.103 29.1465C145.522 29.4928 145.731 29.9395 145.731 30.4863C145.731 31.0059 145.722 31.7943 145.704 32.8516C145.695 33.8997 145.69 34.6882 145.69 35.2168C145.69 35.6543 145.668 36.3151 145.622 37.1992C145.576 38.0833 145.554 38.7441 145.554 39.1816C145.554 40.5944 145.718 41.9069 146.046 43.1191C146.429 44.5684 146.989 45.5801 147.728 46.1543C148.11 46.4551 149.022 46.6146 150.462 46.6328C152.868 46.6693 154.491 44.6185 155.329 40.4805C155.767 38.3385 155.985 35.3307 155.985 31.457C155.985 30.9466 156.136 30.4544 156.437 29.9805C156.847 29.3516 157.43 29.0371 158.187 29.0371C158.806 29.0371 159.271 29.265 159.581 29.7207C159.818 30.0579 159.937 30.4316 159.937 30.8418C159.937 34.4421 159.768 37.2493 159.431 39.2637C158.92 42.3717 157.913 44.9512 156.409 47.002ZM158.022 24.1699L155.89 25.8652C154.878 26.6491 154.149 27.041 153.702 27.041C153.265 27.041 152.891 26.9043 152.581 26.6309C152.28 26.3574 152.13 26.043 152.13 25.6875C152.13 25.3776 152.303 25.0632 152.649 24.7441C152.968 24.5072 153.283 24.2656 153.593 24.0195C155.388 22.5156 156.582 21.7637 157.175 21.7637C157.612 21.7637 157.981 21.9049 158.282 22.1875C158.583 22.4609 158.733 22.7708 158.733 23.1172C158.733 23.5 158.496 23.8509 158.022 24.1699ZM152.212 23.582C151.856 23.9557 151.287 24.4479 150.503 25.0586C149.683 25.7057 149.104 26.1979 148.767 26.5352C148.429 26.8724 148.028 27.041 147.563 27.041C147.144 27.041 146.771 26.9134 146.442 26.6582C146.123 26.3939 145.964 26.0794 145.964 25.7148C145.964 25.3411 146.506 24.6758 147.591 23.7188C148.347 23.099 149.099 22.4792 149.847 21.8594C150.184 21.5586 150.571 21.4082 151.009 21.4082C151.428 21.4082 151.797 21.5404 152.116 21.8047C152.444 22.0599 152.608 22.3698 152.608 22.7344C152.608 23.026 152.476 23.3086 152.212 23.582ZM174.128 39.5098C174.046 40.9043 173.412 41.6016 172.228 41.6016C171.079 41.6016 170.505 41.0091 170.505 39.8242L170.437 38.4434C168.386 38.7715 166.918 39.8242 166.034 41.6016L166.048 48.4785C166.048 48.998 165.87 49.4264 165.515 49.7637C165.159 50.11 164.708 50.2832 164.161 50.2832C163.596 50.2832 163.159 50.1009 162.849 49.7363C162.557 49.4082 162.411 48.9889 162.411 48.4785V39.5234C162.411 39.2409 162.42 38.8216 162.438 38.2656C162.457 37.7005 162.466 37.2767 162.466 36.9941C162.466 36.4837 162.616 36.0599 162.917 35.7227C163.227 35.3763 163.664 35.2031 164.229 35.2031C165.241 35.2031 165.843 35.7227 166.034 36.7617C167.647 35.5586 169.438 34.957 171.407 34.957C173.23 34.957 174.142 36.1693 174.142 38.5938C174.142 39.0586 174.137 39.3639 174.128 39.5098ZM180.335 47.3574C180.335 49.0892 179.706 49.9551 178.448 49.9551C177.901 49.9551 177.45 49.7819 177.095 49.4355C176.739 49.0892 176.562 48.6426 176.562 48.0957V29.1875C176.562 28.6589 176.753 28.2259 177.136 27.8887C177.5 27.5788 177.951 27.4238 178.489 27.4238C179.027 27.4238 179.469 27.5879 179.815 27.916C180.162 28.235 180.335 28.6589 180.335 29.1875V47.3574ZM195.606 50.2695C195.187 50.2695 194.522 49.8138 193.61 48.9023C192.772 49.3034 192.034 49.6042 191.396 49.8047C190.757 50.0143 190.215 50.1191 189.769 50.1191C187.572 50.1191 185.922 49.5312 184.819 48.3555C183.726 47.1797 183.179 45.4206 183.179 43.0781C183.179 40.8815 183.99 39.0039 185.612 37.4453C187.235 35.8776 189.176 35.0938 191.437 35.0938C192.302 35.0938 193.305 35.3398 194.444 35.832C195.821 36.4245 196.509 37.1126 196.509 37.8965C196.509 38.2246 196.404 38.5117 196.194 38.7578C196.103 39.1224 196.03 39.5827 195.976 40.1387C195.93 40.6855 195.907 41.3281 195.907 42.0664C195.907 43.8073 196.03 45.0605 196.276 45.8262C196.304 45.9082 196.513 46.3822 196.905 47.248C197.261 48.0319 197.438 48.4785 197.438 48.5879C197.438 49.071 197.252 49.472 196.878 49.791C196.513 50.11 196.09 50.2695 195.606 50.2695ZM192.216 40.8906C192.216 40.599 192.234 40.2663 192.271 39.8926C192.316 39.5098 192.38 39.0859 192.462 38.6211C192.28 38.5299 192.116 38.4661 191.97 38.4297C191.833 38.3841 191.715 38.3613 191.614 38.3613C190.375 38.3613 189.29 38.849 188.36 39.8242C187.431 40.7904 186.966 41.9115 186.966 43.1875C186.966 44.4089 187.185 45.3294 187.622 45.9492C188.06 46.5599 188.716 46.8652 189.591 46.8652C190.156 46.8652 190.689 46.7741 191.19 46.5918C191.701 46.4004 192.179 46.1224 192.626 45.7578C192.353 43.5885 192.216 41.9661 192.216 40.8906ZM205.683 50.1738C204.899 50.1738 204.074 50.0827 203.208 49.9004L203.194 55.4785C203.194 56.0072 203.017 56.4447 202.661 56.791C202.306 57.1374 201.854 57.3105 201.308 57.3105C200.761 57.3105 200.31 57.1374 199.954 56.791C199.599 56.4447 199.421 56.0072 199.421 55.4785C199.421 55.0501 199.43 53.3503 199.448 50.3789C199.466 48.1732 199.466 46.373 199.448 44.9785C199.421 43.0098 199.357 41.3145 199.257 39.8926C199.12 37.9329 199.052 37.0352 199.052 37.1992C199.052 36.4427 199.22 35.7956 199.558 35.2578C199.95 34.6471 200.478 34.3418 201.144 34.3418C201.654 34.3418 202.082 34.515 202.429 34.8613C202.775 35.2077 202.948 35.6224 202.948 36.1055L202.935 36.2422C203.545 35.8958 204.156 35.6406 204.767 35.4766C205.386 35.3034 206.006 35.2168 206.626 35.2168C208.722 35.2168 210.254 36.1055 211.22 37.8828C211.94 39.2227 212.3 40.959 212.3 43.0918C212.3 45.0879 211.73 46.7422 210.591 48.0547C209.369 49.4674 207.733 50.1738 205.683 50.1738ZM206.626 38.8672C206.052 38.8672 205.468 39.0039 204.876 39.2773C204.284 39.5417 203.687 39.9427 203.085 40.4805C203.194 42.3581 203.249 44.2402 203.249 46.127C204.06 46.3913 204.871 46.5234 205.683 46.5234C206.621 46.5234 207.341 46.1908 207.843 45.5254C208.299 44.9238 208.526 44.1126 208.526 43.0918C208.526 41.8613 208.472 41.0091 208.362 40.5352C208.098 39.4232 207.519 38.8672 206.626 38.8672ZM239.233 41.4648C239.233 42.0755 239.238 42.9961 239.247 44.2266C239.256 45.457 239.261 46.3776 239.261 46.9883C239.261 47.1797 239.274 47.4668 239.302 47.8496C239.338 48.2233 239.356 48.5059 239.356 48.6973C239.356 49.2077 239.17 49.627 238.796 49.9551C238.431 50.2923 237.98 50.4609 237.442 50.4609C236.686 50.4609 236.134 50.1191 235.788 49.4355C234.621 49.8639 233.414 50.0781 232.165 50.0781C230.871 50.0781 229.782 49.8047 228.897 49.2578C227.904 48.6289 227.312 47.7129 227.12 46.5098C226.765 44.2311 226.587 42.194 226.587 40.3984C226.587 39.2135 226.724 37.86 226.997 36.3379C227.179 35.3079 227.795 34.793 228.843 34.793C229.371 34.793 229.823 34.9616 230.196 35.2988C230.57 35.627 230.757 36.0462 230.757 36.5566C230.757 36.9577 230.688 37.5866 230.552 38.4434C230.424 39.3001 230.36 39.9518 230.36 40.3984C230.36 41.6836 230.401 42.8092 230.483 43.7754C230.575 44.7324 230.707 45.5254 230.88 46.1543C231.108 46.2546 231.326 46.332 231.536 46.3867C231.755 46.4414 231.965 46.4688 232.165 46.4688C233.177 46.4688 234.289 46.3229 235.501 46.0312C235.501 45.3294 235.496 44.5319 235.487 43.6387C235.469 42.5723 235.46 41.8066 235.46 41.3418C235.46 39.4733 235.547 37.86 235.72 36.502C235.856 35.4173 236.476 34.875 237.579 34.875C238.117 34.875 238.577 35.0436 238.96 35.3809C239.343 35.7181 239.521 36.1419 239.493 36.6523C239.32 40.125 239.233 41.7292 239.233 41.4648ZM238.099 29.3652C237.616 29.6934 237.019 30.2493 236.308 31.0332C235.56 31.8535 234.968 32.4232 234.53 32.7422C234.175 33.0065 233.783 33.1387 233.354 33.1387C232.871 33.1387 232.452 32.9837 232.097 32.6738C231.741 32.3639 231.563 32.0039 231.563 31.5938C231.563 31.2565 231.755 30.8874 232.138 30.4863C232.475 30.1764 232.808 29.8665 233.136 29.5566C234.111 28.4902 234.685 27.8796 234.858 27.7246C235.688 26.9772 236.422 26.6035 237.06 26.6035C237.543 26.6035 237.957 26.763 238.304 27.082C238.659 27.401 238.837 27.7611 238.837 28.1621C238.837 28.627 238.591 29.028 238.099 29.3652ZM246.056 33.002C245.472 33.002 244.966 32.806 244.538 32.4141C244.119 32.0221 243.909 31.5391 243.909 30.9648C243.909 30.3906 244.119 29.9076 244.538 29.5156C244.966 29.1146 245.472 28.9141 246.056 28.9141C246.639 28.9141 247.145 29.1146 247.573 29.5156C248.002 29.9076 248.216 30.3906 248.216 30.9648C248.216 31.5391 248.002 32.0221 247.573 32.4141C247.145 32.806 246.639 33.002 246.056 33.002ZM245.399 51.9238C245.399 50.9668 245.244 48.4421 244.935 44.3496C244.625 40.2572 244.47 37.8281 244.47 37.0625C244.47 36.5156 244.629 36.0234 244.948 35.5859C245.322 35.0938 245.805 34.8477 246.397 34.8477C246.817 34.8477 247.236 34.9889 247.655 35.2715C248.111 35.5814 248.348 35.9368 248.366 36.3379C248.476 38.0788 248.626 40.6081 248.817 43.9258C249.063 48.3464 249.187 51.0579 249.187 52.0605C249.187 53.3822 248.772 54.5944 247.942 55.6973C247.022 56.9186 245.878 57.5293 244.511 57.5293C242.305 57.5293 240.496 55.9707 239.083 52.8535C238.946 52.5527 238.878 52.2702 238.878 52.0059C238.878 51.5046 239.078 51.0716 239.479 50.707C239.871 50.3698 240.323 50.2012 240.833 50.2012C241.416 50.2012 241.931 50.5156 242.378 51.1445C242.706 51.7279 243.039 52.3158 243.376 52.9082C243.741 53.5371 244.119 53.8516 244.511 53.8516C244.985 53.8516 245.281 53.209 245.399 51.9238ZM263.815 39.5098C263.733 40.9043 263.1 41.6016 261.915 41.6016C260.767 41.6016 260.192 41.0091 260.192 39.8242L260.124 38.4434C258.073 38.7715 256.606 39.8242 255.722 41.6016L255.735 48.4785C255.735 48.998 255.558 49.4264 255.202 49.7637C254.847 50.11 254.396 50.2832 253.849 50.2832C253.284 50.2832 252.846 50.1009 252.536 49.7363C252.244 49.4082 252.099 48.9889 252.099 48.4785V39.5234C252.099 39.2409 252.108 38.8216 252.126 38.2656C252.144 37.7005 252.153 37.2767 252.153 36.9941C252.153 36.4837 252.304 36.0599 252.604 35.7227C252.914 35.3763 253.352 35.2031 253.917 35.2031C254.929 35.2031 255.53 35.7227 255.722 36.7617C257.335 35.5586 259.126 34.957 261.095 34.957C262.918 34.957 263.829 36.1693 263.829 38.5938C263.829 39.0586 263.825 39.3639 263.815 39.5098ZM277.61 50.2695C277.191 50.2695 276.526 49.8138 275.614 48.9023C274.776 49.3034 274.037 49.6042 273.399 49.8047C272.761 50.0143 272.219 50.1191 271.772 50.1191C269.576 50.1191 267.926 49.5312 266.823 48.3555C265.729 47.1797 265.183 45.4206 265.183 43.0781C265.183 40.8815 265.994 39.0039 267.616 37.4453C269.239 35.8776 271.18 35.0938 273.44 35.0938C274.306 35.0938 275.309 35.3398 276.448 35.832C277.825 36.4245 278.513 37.1126 278.513 37.8965C278.513 38.2246 278.408 38.5117 278.198 38.7578C278.107 39.1224 278.034 39.5827 277.979 40.1387C277.934 40.6855 277.911 41.3281 277.911 42.0664C277.911 43.8073 278.034 45.0605 278.28 45.8262C278.308 45.9082 278.517 46.3822 278.909 47.248C279.265 48.0319 279.442 48.4785 279.442 48.5879C279.442 49.071 279.256 49.472 278.882 49.791C278.517 50.11 278.093 50.2695 277.61 50.2695ZM274.22 40.8906C274.22 40.599 274.238 40.2663 274.274 39.8926C274.32 39.5098 274.384 39.0859 274.466 38.6211C274.284 38.5299 274.119 38.4661 273.974 38.4297C273.837 38.3841 273.718 38.3613 273.618 38.3613C272.379 38.3613 271.294 38.849 270.364 39.8242C269.435 40.7904 268.97 41.9115 268.97 43.1875C268.97 44.4089 269.188 45.3294 269.626 45.9492C270.063 46.5599 270.72 46.8652 271.595 46.8652C272.16 46.8652 272.693 46.7741 273.194 46.5918C273.705 46.4004 274.183 46.1224 274.63 45.7578C274.356 43.5885 274.22 41.9661 274.22 40.8906ZM292.868 49.9277C292.148 49.9277 291.601 49.5814 291.228 48.8887C290.781 48.0592 290.111 47.0794 289.218 45.9492C287.832 44.1901 287.099 43.2559 287.017 43.1465C286.287 43.6842 285.686 44.0944 285.212 44.377C285.121 45.6439 285.075 46.8561 285.075 48.0137C285.075 48.5423 284.897 48.9798 284.542 49.3262C284.187 49.6725 283.735 49.8457 283.188 49.8457C281.903 49.8457 281.261 49.0801 281.261 47.5488C281.261 46.8288 281.311 45.7533 281.411 44.3223C281.521 42.8822 281.575 41.8021 281.575 41.082C281.575 39.7604 281.593 38.252 281.63 36.5566C281.675 34.8522 281.698 33.3483 281.698 32.0449C281.698 31.653 281.675 31.1927 281.63 30.6641C281.593 30.1263 281.575 29.6615 281.575 29.2695C281.575 28.7409 281.753 28.3079 282.108 27.9707C282.464 27.6243 282.915 27.4512 283.462 27.4512C284.009 27.4512 284.46 27.6243 284.815 27.9707C285.171 28.3079 285.349 28.7409 285.349 29.2695C285.349 29.6706 285.371 30.1445 285.417 30.6914C285.463 31.2383 285.485 31.7122 285.485 32.1133C285.485 33.1979 285.458 34.4831 285.403 35.9688C285.349 37.3906 285.326 38.6576 285.335 39.7695C286.575 38.8125 288.461 37.0716 290.995 34.5469C291.396 34.1458 291.852 33.9453 292.362 33.9453C292.873 33.9453 293.324 34.1322 293.716 34.5059C294.108 34.8796 294.304 35.3125 294.304 35.8047C294.304 36.224 294.126 36.6296 293.771 37.0215C292.695 38.2246 291.414 39.4824 289.929 40.7949L292.772 44.459C294.149 46.291 294.837 47.5124 294.837 48.123C294.837 48.6243 294.636 49.0482 294.235 49.3945C293.834 49.75 293.379 49.9277 292.868 49.9277ZM309.233 41.4648C309.233 42.0755 309.238 42.9961 309.247 44.2266C309.256 45.457 309.261 46.3776 309.261 46.9883C309.261 47.1797 309.274 47.4668 309.302 47.8496C309.338 48.2233 309.356 48.5059 309.356 48.6973C309.356 49.2077 309.17 49.627 308.796 49.9551C308.431 50.2923 307.98 50.4609 307.442 50.4609C306.686 50.4609 306.134 50.1191 305.788 49.4355C304.621 49.8639 303.414 50.0781 302.165 50.0781C300.871 50.0781 299.782 49.8047 298.897 49.2578C297.904 48.6289 297.312 47.7129 297.12 46.5098C296.765 44.2311 296.587 42.194 296.587 40.3984C296.587 39.2135 296.724 37.86 296.997 36.3379C297.179 35.3079 297.795 34.793 298.843 34.793C299.371 34.793 299.823 34.9616 300.196 35.2988C300.57 35.627 300.757 36.0462 300.757 36.5566C300.757 36.9577 300.688 37.5866 300.552 38.4434C300.424 39.3001 300.36 39.9518 300.36 40.3984C300.36 41.6836 300.401 42.8092 300.483 43.7754C300.575 44.7324 300.707 45.5254 300.88 46.1543C301.108 46.2546 301.326 46.332 301.536 46.3867C301.755 46.4414 301.965 46.4688 302.165 46.4688C303.177 46.4688 304.289 46.3229 305.501 46.0312C305.501 45.3294 305.496 44.5319 305.487 43.6387C305.469 42.5723 305.46 41.8066 305.46 41.3418C305.46 39.4733 305.547 37.86 305.72 36.502C305.856 35.4173 306.476 34.875 307.579 34.875C308.117 34.875 308.577 35.0436 308.96 35.3809C309.343 35.7181 309.521 36.1419 309.493 36.6523C309.32 40.125 309.233 41.7292 309.233 41.4648ZM306.909 33.4531C306.371 33.4531 305.866 33.3073 305.392 33.0156C304.826 32.6693 304.544 32.2318 304.544 31.7031C304.544 30.4271 305.492 29.7891 307.388 29.7891C307.88 29.7891 308.368 29.9531 308.851 30.2812C309.407 30.6549 309.685 31.1016 309.685 31.6211C309.685 32.2318 309.375 32.7057 308.755 33.043C308.244 33.3164 307.629 33.4531 306.909 33.4531ZM301.017 33.4531C299.321 33.4531 298.474 32.806 298.474 31.5117C298.474 31.0742 298.756 30.6641 299.321 30.2812C299.85 29.9258 300.365 29.748 300.866 29.748C302.625 29.748 303.5 30.4043 303.491 31.7168C303.491 32.1725 303.172 32.5872 302.534 32.9609C301.978 33.2891 301.472 33.4531 301.017 33.4531ZM315.276 47.3574C315.276 49.0892 314.647 49.9551 313.39 49.9551C312.843 49.9551 312.392 49.7819 312.036 49.4355C311.681 49.0892 311.503 48.6426 311.503 48.0957V29.1875C311.503 28.6589 311.694 28.2259 312.077 27.8887C312.442 27.5788 312.893 27.4238 313.431 27.4238C313.968 27.4238 314.41 27.5879 314.757 27.916C315.103 28.235 315.276 28.6589 315.276 29.1875V47.3574ZM328.757 35.627C328.875 32.5189 329.017 30.3724 329.181 29.1875C329.336 28.112 329.928 27.5742 330.958 27.5742C331.496 27.5742 331.929 27.7474 332.257 28.0938C332.585 28.4401 332.749 28.8639 332.749 29.3652C332.749 30.6868 332.644 32.6556 332.435 35.2715C332.234 37.8874 332.134 39.8561 332.134 41.1777C332.134 44.4043 332.239 46.5645 332.448 47.6582C332.476 47.804 332.489 47.9362 332.489 48.0547C332.489 48.556 332.307 48.9707 331.942 49.2988C331.578 49.6178 331.154 49.7773 330.671 49.7773C329.996 49.7773 329.495 49.4766 329.167 48.875C328.547 49.2487 327.905 49.5267 327.239 49.709C326.574 49.9004 325.886 49.9961 325.175 49.9961C323.133 49.9961 321.438 49.3444 320.089 48.041C318.713 46.7103 318.024 45.015 318.024 42.9551C318.024 40.5033 318.717 38.5254 320.103 37.0215C321.488 35.5085 323.297 34.752 325.53 34.752C326.214 34.752 326.825 34.8249 327.362 34.9707C327.9 35.1165 328.365 35.3353 328.757 35.627ZM328.483 39.9336C328.183 39.3594 327.791 38.931 327.308 38.6484C326.825 38.3659 326.25 38.2246 325.585 38.2246C324.236 38.2246 323.224 38.6165 322.55 39.4004C321.875 40.1751 321.538 41.3418 321.538 42.9004C321.538 43.8848 321.903 44.7279 322.632 45.4297C323.361 46.1315 324.209 46.4824 325.175 46.4824C325.877 46.4824 326.41 46.4004 326.774 46.2363C327.021 46.127 327.44 45.8353 328.032 45.3613C328.187 45.2337 328.338 45.0924 328.483 44.9375C328.465 44.5 328.465 42.832 328.483 39.9336ZM342.101 49.9961C339.922 49.9961 338.14 49.4766 336.755 48.4375C335.224 47.2891 334.458 45.6712 334.458 43.584C334.458 41.278 335.064 39.3275 336.276 37.7324C337.625 35.9642 339.444 35.0801 341.731 35.0801C343.317 35.0801 344.634 35.3353 345.683 35.8457C347.059 36.5202 347.747 37.5684 347.747 38.9902C347.747 39.9928 347.187 40.8815 346.065 41.6562C345.555 42.0117 344.53 42.5312 342.989 43.2148L338.382 45.252C338.819 45.7259 339.348 46.0814 339.968 46.3184C340.588 46.5553 341.299 46.6738 342.101 46.6738C343.322 46.6738 344.356 46.4232 345.204 45.9219C345.961 45.4753 346.567 45.252 347.022 45.252C347.97 45.252 348.444 45.7122 348.444 46.6328C348.444 47.6719 347.683 48.5195 346.161 49.1758C344.885 49.7227 343.532 49.9961 342.101 49.9961ZM341.731 38.3887C340.884 38.3887 340.159 38.6712 339.558 39.2363C338.956 39.8014 338.473 40.6491 338.108 41.7793C339.138 41.3327 340.164 40.8906 341.185 40.4531C342.415 39.8971 343.395 39.3822 344.124 38.9082C343.513 38.5618 342.716 38.3887 341.731 38.3887ZM345.409 29.3652C344.926 29.6934 344.329 30.2493 343.618 31.0332C342.871 31.8535 342.278 32.4232 341.841 32.7422C341.485 33.0065 341.093 33.1387 340.665 33.1387C340.182 33.1387 339.763 32.9837 339.407 32.6738C339.052 32.3639 338.874 32.0039 338.874 31.5938C338.874 31.2565 339.065 30.8874 339.448 30.4863C339.785 30.1764 340.118 29.8665 340.446 29.5566C341.422 28.4902 341.996 27.8796 342.169 27.7246C342.998 26.9772 343.732 26.6035 344.37 26.6035C344.853 26.6035 345.268 26.763 345.614 27.082C345.97 27.401 346.147 27.7611 346.147 28.1621C346.147 28.627 345.901 29.028 345.409 29.3652ZM360.503 39.3594C359.601 39.3594 359.058 38.9811 358.876 38.2246C358.511 38.1608 358.138 38.1289 357.755 38.1289C355.558 38.1289 354.46 38.4297 354.46 39.0312C354.46 39.3867 355.121 39.8652 356.442 40.4668C358.247 41.2962 359.468 41.9434 360.106 42.4082C361.428 43.3652 362.089 44.4453 362.089 45.6484C362.089 47.2161 361.36 48.4056 359.901 49.2168C358.726 49.8639 357.281 50.1875 355.567 50.1875C354.355 50.1875 353.248 50.0007 352.245 49.627C350.878 49.1165 350.194 48.3646 350.194 47.3711C350.194 46.4596 350.737 46.0039 351.821 46.0039C352.241 46.0039 352.847 46.1361 353.64 46.4004C354.433 46.6647 355.043 46.7969 355.472 46.7969C357.322 46.7969 358.252 46.4232 358.261 45.6758C358.261 45.2109 357.618 44.696 356.333 44.1309C354.455 43.3014 353.252 42.7044 352.724 42.3398C351.438 41.4375 350.796 40.3392 350.796 39.0449C350.796 37.2129 351.767 35.9779 353.708 35.3398C354.847 34.9661 356.579 34.7793 358.903 34.7793C359.815 34.7793 360.489 34.8978 360.927 35.1348C361.528 35.4538 361.829 36.0417 361.829 36.8984C361.829 38.5391 361.387 39.3594 360.503 39.3594ZM371.413 49.9961C369.235 49.9961 367.453 49.4766 366.067 48.4375C364.536 47.2891 363.771 45.6712 363.771 43.584C363.771 41.278 364.377 39.3275 365.589 37.7324C366.938 35.9642 368.756 35.0801 371.044 35.0801C372.63 35.0801 373.947 35.3353 374.995 35.8457C376.371 36.5202 377.06 37.5684 377.06 38.9902C377.06 39.9928 376.499 40.8815 375.378 41.6562C374.868 42.0117 373.842 42.5312 372.302 43.2148L367.694 45.252C368.132 45.7259 368.66 46.0814 369.28 46.3184C369.9 46.5553 370.611 46.6738 371.413 46.6738C372.634 46.6738 373.669 46.4232 374.517 45.9219C375.273 45.4753 375.879 45.252 376.335 45.252C377.283 45.252 377.757 45.7122 377.757 46.6328C377.757 47.6719 376.996 48.5195 375.474 49.1758C374.198 49.7227 372.844 49.9961 371.413 49.9961ZM371.044 38.3887C370.196 38.3887 369.472 38.6712 368.87 39.2363C368.269 39.8014 367.785 40.6491 367.421 41.7793C368.451 41.3327 369.476 40.8906 370.497 40.4531C371.728 39.8971 372.707 39.3822 373.437 38.9082C372.826 38.5618 372.028 38.3887 371.044 38.3887Z" fill="black"/>
</svg>
