<svg width="348" height="146" viewBox="0 0 348 146" fill="none" xmlns="http://www.w3.org/2000/svg">
<g clip-path="url(#clip0_1584_2895)">
<path d="M2.99316 21.2231C2.99316 11.282 11.052 3.22314 20.9932 3.22314H325.993C335.934 3.22314 343.993 11.282 343.993 21.2231V124.223C343.993 134.164 335.934 142.223 325.993 142.223H20.9932C11.052 142.223 2.99316 134.164 2.99316 124.223V21.2231Z" fill="white"/>
<path d="M43.874 65.001C42.248 65.001 40.8506 64.4429 39.6816 63.3267C38.3984 62.105 37.7261 60.4746 37.6646 58.4355C37.603 56.4932 38.1348 54.7617 39.2598 53.2412C40.5957 51.4482 42.4546 50.5518 44.8364 50.5518C46.5942 50.5518 47.9917 51.2549 49.0288 52.6611C49.9604 53.9268 50.4263 55.4956 50.4263 57.3677C50.4263 59.4067 49.8813 61.147 48.7915 62.5884C47.5698 64.1968 45.9307 65.001 43.874 65.001ZM44.665 54.0322C43.584 54.0234 42.7314 54.5156 42.1074 55.5088C41.5801 56.3438 41.3164 57.3193 41.3164 58.4355C41.3164 59.4902 41.6152 60.2988 42.2129 60.8613C42.6875 61.3096 43.2412 61.5337 43.874 61.5337C44.6387 61.5337 45.3022 61.2744 45.8647 60.7559C46.5063 60.1494 46.8491 59.3276 46.8931 58.2905C47.0073 55.4604 46.2646 54.041 44.665 54.0322ZM61.9619 53.6104C61.7773 53.6104 61.5576 53.606 61.3027 53.5972C61.0566 53.5796 60.8413 53.5708 60.6567 53.5708C60.2964 53.5708 59.8789 53.606 59.4043 53.6763C59.5625 57.2271 59.6416 59.5474 59.6416 60.6372C59.6416 60.7515 59.646 60.9668 59.6548 61.2832C59.6636 61.5908 59.668 61.8413 59.668 62.0347C59.668 64.0562 59.0308 65.0669 57.7563 65.0669C57.2729 65.0669 56.8555 64.9175 56.5039 64.6187C56.1172 64.3022 55.9238 63.9067 55.9238 63.4321C55.9238 63.1157 55.937 62.6411 55.9634 62.0083C55.9897 61.3755 56.0029 60.9009 56.0029 60.5845C56.0029 59.521 55.9238 57.2446 55.7656 53.7554C55.2207 53.729 54.3945 53.6587 53.2871 53.5444C52.1885 53.4214 51.6392 52.8501 51.6392 51.8306C51.6392 51.3384 51.8062 50.9209 52.1401 50.5781C52.4741 50.2354 52.9048 50.064 53.4321 50.064C53.7573 50.064 54.5044 50.1167 55.6733 50.2222C55.6646 49.9409 55.6426 49.4751 55.6074 48.8247C55.5723 48.2622 55.5547 47.8271 55.5547 47.5195C55.5547 47.0273 55.7349 46.6187 56.0952 46.2935C56.4556 45.9683 56.8906 45.8057 57.4004 45.8057C58.7012 45.8057 59.3516 46.8999 59.3516 49.0884L59.3252 50.1694C59.8701 50.0903 60.314 50.0508 60.6567 50.0508C61.6675 50.0508 62.3574 50.1167 62.7266 50.2485C63.4297 50.4946 63.7812 51.0308 63.7812 51.8569C63.7812 52.3579 63.6099 52.7754 63.2671 53.1094C62.9243 53.4434 62.4893 53.6104 61.9619 53.6104ZM74.6973 53.6104C74.5127 53.6104 74.293 53.606 74.0381 53.5972C73.792 53.5796 73.5767 53.5708 73.3921 53.5708C73.0317 53.5708 72.6143 53.606 72.1396 53.6763C72.2979 57.2271 72.377 59.5474 72.377 60.6372C72.377 60.7515 72.3813 60.9668 72.3901 61.2832C72.3989 61.5908 72.4033 61.8413 72.4033 62.0347C72.4033 64.0562 71.7661 65.0669 70.4917 65.0669C70.0083 65.0669 69.5908 64.9175 69.2393 64.6187C68.8525 64.3022 68.6592 63.9067 68.6592 63.4321C68.6592 63.1157 68.6724 62.6411 68.6987 62.0083C68.7251 61.3755 68.7383 60.9009 68.7383 60.5845C68.7383 59.521 68.6592 57.2446 68.501 53.7554C67.9561 53.729 67.1299 53.6587 66.0225 53.5444C64.9238 53.4214 64.3745 52.8501 64.3745 51.8306C64.3745 51.3384 64.5415 50.9209 64.8755 50.5781C65.2095 50.2354 65.6401 50.064 66.1675 50.064C66.4927 50.064 67.2397 50.1167 68.4087 50.2222C68.3999 49.9409 68.3779 49.4751 68.3428 48.8247C68.3076 48.2622 68.29 47.8271 68.29 47.5195C68.29 47.0273 68.4702 46.6187 68.8306 46.2935C69.1909 45.9683 69.626 45.8057 70.1357 45.8057C71.4365 45.8057 72.0869 46.8999 72.0869 49.0884L72.0605 50.1694C72.6055 50.0903 73.0493 50.0508 73.3921 50.0508C74.4028 50.0508 75.0928 50.1167 75.4619 50.2485C76.165 50.4946 76.5166 51.0308 76.5166 51.8569C76.5166 52.3579 76.3452 52.7754 76.0024 53.1094C75.6597 53.4434 75.2246 53.6104 74.6973 53.6104ZM82.0405 52.1602C82.6821 51.5273 83.3677 51.0571 84.0972 50.7495C84.8354 50.4331 85.6221 50.2749 86.457 50.2749C87.96 50.2749 89.041 50.6968 89.7002 51.5405C90.1924 52.1733 90.4912 53.1445 90.5967 54.4541C90.6406 55.5352 90.689 56.6206 90.7417 57.7104C90.8823 59.1255 90.9702 59.9868 91.0054 60.2944C91.1284 61.27 91.2778 62.1226 91.4536 62.8521C91.4976 63.0366 91.5195 63.1992 91.5195 63.3398C91.5195 63.832 91.3306 64.2363 90.9526 64.5527C90.5835 64.8779 90.1484 65.0405 89.6475 65.0405C88.7598 65.0405 88.1841 64.6011 87.9204 63.7222C87.7095 63.0103 87.5161 62.0083 87.3403 60.7163C87.1821 59.4771 87.103 58.4575 87.103 57.6577C87.103 57.438 87.1118 57.1084 87.1294 56.6689C87.1558 56.2207 87.1689 55.8867 87.1689 55.667C87.1689 55.0166 87.1602 54.6387 87.1426 54.5332C87.0635 54.0498 86.835 53.8081 86.457 53.8081C85.4814 53.8081 84.5981 54.2563 83.8071 55.1528C83.4028 55.6011 82.8491 56.4536 82.146 57.7104C82.146 60.8921 81.9922 62.8081 81.6846 63.4585C81.3418 64.1792 80.7969 64.5396 80.0498 64.5396C79.5576 64.5396 79.1182 64.377 78.7314 64.0518C78.3535 63.7178 78.1646 63.3091 78.1646 62.8257C78.1646 62.6587 78.2129 62.4258 78.3096 62.127C78.3711 61.9336 78.4238 60.7471 78.4678 58.5674C78.4238 56.8008 78.4326 53.8608 78.4941 49.7476L78.5205 49.3125C78.5732 48.2754 78.5996 47.5811 78.5996 47.2295C78.5996 46.957 78.5557 46.5571 78.4678 46.0298C78.3887 45.4937 78.3491 45.0894 78.3491 44.8169C78.3491 44.3159 78.5293 43.9072 78.8896 43.5908C79.25 43.2656 79.6851 43.103 80.1948 43.103C81.0649 43.103 81.6494 43.5688 81.9482 44.5005C82.1152 45.0278 82.1987 45.8364 82.1987 46.9263C82.1987 47.8052 82.1724 48.6973 82.1196 49.6025C82.0669 50.4639 82.0405 51.3164 82.0405 52.1602ZM99.166 65.001C97.54 65.001 96.1426 64.4429 94.9736 63.3267C93.6904 62.105 93.0181 60.4746 92.9565 58.4355C92.895 56.4932 93.4268 54.7617 94.5518 53.2412C95.8877 51.4482 97.7466 50.5518 100.128 50.5518C101.886 50.5518 103.284 51.2549 104.321 52.6611C105.252 53.9268 105.718 55.4956 105.718 57.3677C105.718 59.4067 105.173 61.147 104.083 62.5884C102.862 64.1968 101.223 65.001 99.166 65.001ZM99.957 54.0322C98.876 54.0234 98.0234 54.5156 97.3994 55.5088C96.8721 56.3438 96.6084 57.3193 96.6084 58.4355C96.6084 59.4902 96.9072 60.2988 97.5049 60.8613C97.9795 61.3096 98.5332 61.5337 99.166 61.5337C99.9307 61.5337 100.594 61.2744 101.157 60.7559C101.798 60.1494 102.141 59.3276 102.185 58.2905C102.299 55.4604 101.557 54.041 99.957 54.0322ZM118.335 65.1592C117.254 65.1592 116.652 64.6274 116.529 63.564C116.406 62.6587 116.283 61.749 116.16 60.835C116.028 59.8682 115.962 58.9585 115.962 58.106C115.962 57.8774 115.975 57.4863 116.001 56.9326C116.037 56.3789 116.054 55.9878 116.054 55.7593C116.054 55.6978 116.063 55.5439 116.081 55.2979C116.098 55.043 116.107 54.8364 116.107 54.6782C116.107 53.9487 115.918 53.584 115.54 53.584C114.731 53.584 113.936 54.0586 113.154 55.0078C112.38 55.9482 111.774 57.1436 111.334 58.5938C111.317 58.8838 111.277 59.2705 111.216 59.7539C111.163 60.1494 111.137 60.5361 111.137 60.9141C111.137 61.1602 111.163 61.5337 111.216 62.0347C111.277 62.5269 111.308 62.896 111.308 63.1421C111.308 63.6431 111.132 64.0562 110.781 64.3813C110.438 64.7153 110.003 64.8823 109.476 64.8823C108.948 64.8823 108.513 64.7153 108.17 64.3813C107.828 64.0562 107.656 63.6431 107.656 63.1421C107.656 62.896 107.63 62.5269 107.577 62.0347C107.524 61.5337 107.498 61.1602 107.498 60.9141C107.498 60.0703 107.56 58.897 107.683 57.394C107.806 55.8911 107.867 54.7178 107.867 53.874C107.867 53.6104 107.85 53.2192 107.814 52.7007C107.788 52.1733 107.775 51.7822 107.775 51.5273C107.775 51.0352 107.951 50.6309 108.302 50.3145C108.663 49.9893 109.102 49.8267 109.621 49.8267C110.772 49.8267 111.387 50.5166 111.466 51.8965L111.479 52.0415C112.763 50.7495 114.116 50.1035 115.54 50.1035C117.201 50.1035 118.348 50.7979 118.981 52.1865C119.403 53.1182 119.614 54.5112 119.614 56.3657V57.3018C119.605 57.7061 119.601 57.9917 119.601 58.1587C119.601 58.8442 119.693 59.7275 119.877 60.8086C120.071 61.8896 120.167 62.7686 120.167 63.4453C120.167 63.9375 119.992 64.3462 119.64 64.6714C119.289 64.9966 118.854 65.1592 118.335 65.1592ZM139.495 45.687C137.368 45.687 136.177 47.1636 135.922 50.1167L135.882 50.9341C137.376 50.8286 138.343 50.7759 138.783 50.7759C140.18 50.7759 140.879 51.2153 140.879 52.0942C140.879 52.7358 140.536 53.1182 139.851 53.2412C139.552 53.2939 139.2 53.3159 138.796 53.3071C138.4 53.2896 137.39 53.3467 135.764 53.4785L135.658 56.4844C135.658 57.0293 135.676 57.8467 135.711 58.9365C135.746 60.0264 135.764 60.8394 135.764 61.3755C135.764 63.0454 135.667 64.3462 135.474 65.2778C135.324 65.981 134.916 66.3325 134.248 66.3325C133.887 66.3325 133.58 66.2139 133.325 65.9766C133.07 65.748 132.942 65.458 132.942 65.1064C132.942 65.0361 132.951 64.9482 132.969 64.8428C133.153 63.7002 133.246 62.4565 133.246 61.1118L133.206 57.5127V53.6895C132.107 53.7773 131.413 53.8213 131.123 53.8213C130.235 53.8213 129.792 53.395 129.792 52.5425C129.792 51.6724 130.561 51.2153 132.099 51.1714L133.364 51.1318C133.391 50.6396 133.457 49.9717 133.562 49.1279C133.791 47.1768 134.283 45.7397 135.039 44.8169C135.953 43.7007 137.381 43.1426 139.323 43.1426C140.58 43.1426 141.208 43.5688 141.208 44.4214C141.208 45.2651 140.637 45.687 139.495 45.687ZM149.316 65.001C147.84 65.001 146.57 64.4561 145.506 63.3662C144.32 62.1533 143.696 60.5229 143.634 58.4751C143.582 56.4888 144.083 54.7397 145.137 53.228C146.368 51.4438 148.082 50.5518 150.279 50.5518C152.037 50.5518 153.368 51.356 154.273 52.9644C154.994 54.2651 155.341 55.8296 155.315 57.6577C155.289 59.6089 154.779 61.2744 153.786 62.6543C152.661 64.2188 151.171 65.001 149.316 65.001ZM150.107 53.228C148.815 53.2192 147.809 53.8345 147.088 55.0737C146.517 56.0669 146.231 57.2007 146.231 58.4751C146.231 59.7495 146.579 60.7427 147.273 61.4546C147.853 62.0435 148.534 62.3379 149.316 62.3379C150.23 62.3379 151.017 62.0039 151.676 61.3359C152.423 60.5977 152.819 59.6001 152.863 58.3433C152.986 54.9419 152.067 53.2368 150.107 53.228ZM169.435 58.541L169.131 62.9707C169.079 64.7285 168.898 66.1655 168.591 67.2817C168.195 68.7056 167.562 69.7559 166.692 70.4326C165.638 71.25 164.113 71.6587 162.118 71.6587C160.949 71.6587 159.969 71.5796 159.178 71.4214C158.07 71.2017 157.517 70.7446 157.517 70.0503C157.517 69.2681 157.899 68.877 158.664 68.877C158.98 68.877 159.507 68.9517 160.246 69.1011C160.984 69.2593 161.801 69.3296 162.698 69.312C164.385 69.2856 165.55 68.4683 166.191 66.8599C166.613 65.7876 166.837 64.1396 166.864 61.916C166.389 62.7949 165.822 63.4541 165.163 63.8936C164.513 64.333 163.766 64.5527 162.922 64.5527C161.331 64.5527 160.035 64.0122 159.033 62.9312C158.04 61.8413 157.543 60.4307 157.543 58.6992C157.543 56.3262 158.224 54.4146 159.586 52.9644C160.993 51.4702 162.909 50.7231 165.334 50.7231C166.152 50.7231 166.837 50.8286 167.391 51.0396C167.945 51.2505 168.367 51.5669 168.657 51.9888C169.597 52.0151 170.067 52.5381 170.067 53.5576C170.067 54.1816 169.975 55.0166 169.791 56.0625C169.588 57.2754 169.47 58.1016 169.435 58.541ZM165.203 52.8325C163.533 52.8325 162.241 53.4082 161.327 54.5596C160.509 55.5967 160.101 56.915 160.101 58.5146C160.101 59.7891 160.342 60.7471 160.826 61.3887C161.309 62.0303 162.034 62.3511 163.001 62.3511C163.889 62.3511 164.75 61.8501 165.585 60.8481C166.341 59.9253 166.771 59.0112 166.877 58.106C167.062 57.1567 167.259 55.667 167.47 53.6367C167.119 53.3643 166.754 53.1621 166.376 53.0303C165.998 52.8984 165.607 52.8325 165.203 52.8325ZM177.872 65.001C176.396 65.001 175.125 64.4561 174.062 63.3662C172.875 62.1533 172.251 60.5229 172.19 58.4751C172.137 56.4888 172.638 54.7397 173.693 53.228C174.923 51.4438 176.637 50.5518 178.834 50.5518C180.592 50.5518 181.924 51.356 182.829 52.9644C183.55 54.2651 183.897 55.8296 183.871 57.6577C183.844 59.6089 183.334 61.2744 182.341 62.6543C181.216 64.2188 179.727 65.001 177.872 65.001ZM178.663 53.228C177.371 53.2192 176.365 53.8345 175.644 55.0737C175.073 56.0669 174.787 57.2007 174.787 58.4751C174.787 59.7495 175.134 60.7427 175.829 61.4546C176.409 62.0435 177.09 62.3379 177.872 62.3379C178.786 62.3379 179.573 62.0039 180.232 61.3359C180.979 60.5977 181.375 59.6001 181.418 58.3433C181.542 54.9419 180.623 53.2368 178.663 53.228ZM198.122 64.7637C197.639 64.7637 197.265 64.5088 197.001 63.999C196.544 63.1113 195.854 62.061 194.932 60.8481L192.598 57.6709C192.088 58.0752 191.297 58.6421 190.225 59.3716C190.128 60.7339 190.08 62.061 190.08 63.353C190.08 63.7485 189.957 64.0693 189.711 64.3154C189.474 64.5615 189.166 64.6846 188.788 64.6846C187.9 64.6846 187.457 64.0869 187.457 62.8916C187.457 62.1621 187.505 61.0723 187.602 59.6221C187.707 58.1631 187.76 57.0688 187.76 56.3394C187.76 55.0034 187.777 53.4785 187.812 51.7646C187.856 50.042 187.878 48.5215 187.878 47.2031C187.878 46.8076 187.856 46.3418 187.812 45.8057C187.777 45.2695 187.76 44.8037 187.76 44.4082C187.76 44.0127 187.878 43.6919 188.116 43.4458C188.362 43.1997 188.674 43.0767 189.052 43.0767C189.43 43.0767 189.737 43.1997 189.975 43.4458C190.221 43.6919 190.344 44.0127 190.344 44.4082C190.344 44.8125 190.366 45.2915 190.41 45.8452C190.454 46.3901 190.476 46.8647 190.476 47.269L190.383 51.5142C190.339 53.0435 190.326 54.5728 190.344 56.1021C191.539 55.188 192.69 54.186 193.798 53.0962L196.698 50.1035C196.988 49.8047 197.3 49.6553 197.634 49.6553C197.977 49.6553 198.285 49.7915 198.557 50.064C198.838 50.3364 198.979 50.6528 198.979 51.0132C198.979 51.312 198.852 51.6064 198.597 51.8965C197.516 53.1621 196.184 54.52 194.602 55.9702L197.476 59.8857C198.821 61.7227 199.493 62.918 199.493 63.4717C199.493 63.8232 199.353 64.1265 199.071 64.3813C198.799 64.6362 198.482 64.7637 198.122 64.7637ZM85.6396 102.83C83.6533 102.83 82.0449 102.333 80.8145 101.34C79.4697 100.241 78.7974 98.7031 78.7974 96.7256C78.7974 94.4404 79.3511 92.5244 80.4585 90.9775C81.6626 89.29 83.271 88.4463 85.2837 88.4463C86.7427 88.4463 87.9336 88.6924 88.8564 89.1846C89.9902 89.791 90.5571 90.7227 90.5571 91.9795C90.5571 92.8584 90.0605 93.6582 89.0674 94.3789C88.6279 94.6953 87.6963 95.1875 86.2725 95.8555L81.2363 98.2417C81.7285 98.9712 82.3394 99.5205 83.0688 99.8896C83.8071 100.259 84.6641 100.443 85.6396 100.443C86.2461 100.443 86.958 100.329 87.7754 100.101C88.8125 99.8105 89.4805 99.4326 89.7793 98.9668C90.0781 98.4922 90.3989 98.2549 90.7417 98.2549C91.0493 98.2549 91.3218 98.3735 91.5591 98.6108C91.8052 98.8394 91.9282 99.1074 91.9282 99.415C91.9282 100.391 91.1416 101.23 89.5684 101.933C88.2236 102.531 86.9141 102.83 85.6396 102.83ZM85.2837 90.8193C84.2114 90.8193 83.3193 91.2368 82.6074 92.0718C81.8955 92.8979 81.3638 94.146 81.0122 95.8159L85.0596 93.8911C86.6504 93.1177 87.7842 92.4453 88.4609 91.874C87.7051 91.1709 86.646 90.8193 85.2837 90.8193ZM106.417 90.582C106.312 91.874 106.259 93.166 106.259 94.458C106.259 97.3848 106.395 99.5952 106.667 101.089C106.685 101.212 106.694 101.313 106.694 101.393C106.694 101.744 106.571 102.034 106.325 102.263C106.079 102.491 105.793 102.605 105.468 102.605C104.923 102.605 104.523 102.21 104.268 101.419C103.635 101.885 102.976 102.236 102.291 102.474C101.614 102.711 100.906 102.83 100.168 102.83C98.3486 102.83 96.8413 102.223 95.646 101.01C94.4155 99.771 93.8003 98.1802 93.8003 96.2378C93.8003 93.8911 94.4199 92.0103 95.6592 90.5952C96.9072 89.1802 98.5244 88.4727 100.511 88.4727C101.53 88.4727 102.317 88.6309 102.871 88.9473L104.11 89.8569C104.233 86.1567 104.378 83.665 104.545 82.3818C104.659 81.5996 105.059 81.2085 105.745 81.2085C106.544 81.2085 106.944 81.6348 106.944 82.4873C106.944 83.709 106.769 86.4072 106.417 90.582ZM100.563 90.9248C99.0869 90.9248 97.9795 91.3643 97.2412 92.2432C96.5029 93.1133 96.1338 94.4272 96.1338 96.1851C96.1338 97.3188 96.5337 98.2944 97.3335 99.1118C98.1421 99.9292 99.0869 100.338 100.168 100.338C100.906 100.338 101.53 100.202 102.04 99.9292C102.339 99.771 102.827 99.4062 103.503 98.835C103.635 98.7207 103.763 98.5845 103.886 98.4263L103.846 96.1455L103.859 94.6162L103.886 93.0605C103.552 92.3486 103.108 91.8169 102.554 91.4653C102 91.105 101.337 90.9248 100.563 90.9248ZM121.024 91.5576C120.242 92.498 119.24 93.8604 118.019 95.6445C116.604 97.7188 115.566 99.1865 114.907 100.048C115.83 100.004 116.634 99.9819 117.32 99.9819C117.663 99.9819 118.172 100.048 118.849 100.18C119.526 100.312 120.036 100.377 120.378 100.377C120.765 100.377 121.077 100.505 121.314 100.76C121.561 101.006 121.684 101.322 121.684 101.709C121.684 102.104 121.561 102.425 121.314 102.671C121.077 102.917 120.765 103.041 120.378 103.041C120.036 103.041 119.526 102.975 118.849 102.843C118.172 102.711 117.663 102.645 117.32 102.645C115.342 102.645 113.466 102.825 111.69 103.186C111.506 103.221 111.343 103.238 111.203 103.238C110.35 103.238 109.924 102.865 109.924 102.118C109.924 101.678 110.144 101.256 110.583 100.852C112.877 98.7778 115.373 95.5479 118.071 91.1621C116.902 91.2324 116.054 91.2676 115.527 91.2676C114.226 91.2676 112.89 91.1665 111.519 90.9644C110.737 90.8501 110.346 90.415 110.346 89.6592C110.346 89.2725 110.464 88.9517 110.702 88.6968C110.939 88.4331 111.238 88.3013 111.598 88.3013C112.029 88.3013 112.679 88.354 113.549 88.4595C114.419 88.5562 115.079 88.6045 115.527 88.6045C116.125 88.6045 117.021 88.5649 118.216 88.4858C119.412 88.3979 120.308 88.354 120.906 88.354C121.653 88.354 122.026 88.6616 122.026 89.2769C122.026 89.9888 121.692 90.749 121.024 91.5576ZM130.833 102.83C128.847 102.83 127.238 102.333 126.008 101.34C124.663 100.241 123.991 98.7031 123.991 96.7256C123.991 94.4404 124.544 92.5244 125.652 90.9775C126.856 89.29 128.464 88.4463 130.477 88.4463C131.936 88.4463 133.127 88.6924 134.05 89.1846C135.184 89.791 135.75 90.7227 135.75 91.9795C135.75 92.8584 135.254 93.6582 134.261 94.3789C133.821 94.6953 132.89 95.1875 131.466 95.8555L126.43 98.2417C126.922 98.9712 127.533 99.5205 128.262 99.8896C129 100.259 129.857 100.443 130.833 100.443C131.439 100.443 132.151 100.329 132.969 100.101C134.006 99.8105 134.674 99.4326 134.973 98.9668C135.271 98.4922 135.592 98.2549 135.935 98.2549C136.243 98.2549 136.515 98.3735 136.752 98.6108C136.999 98.8394 137.122 99.1074 137.122 99.415C137.122 100.391 136.335 101.23 134.762 101.933C133.417 102.531 132.107 102.83 130.833 102.83ZM130.477 90.8193C129.405 90.8193 128.513 91.2368 127.801 92.0718C127.089 92.8979 126.557 94.146 126.206 95.8159L130.253 93.8911C131.844 93.1177 132.978 92.4453 133.654 91.874C132.898 91.1709 131.839 90.8193 130.477 90.8193ZM149.58 103.159C148.824 103.159 148.398 102.746 148.301 101.92L147.932 99.0327C147.809 98.0044 147.748 97.042 147.748 96.1455C147.748 95.8994 147.761 95.4819 147.787 94.8931C147.822 94.3042 147.84 93.8867 147.84 93.6406C147.84 91.7422 147.488 90.793 146.785 90.793C145.801 90.793 144.86 91.3774 143.964 92.5464C143.155 93.6099 142.522 94.9546 142.065 96.5806C142.048 96.9233 142.008 97.354 141.947 97.8726C141.894 98.312 141.868 98.7383 141.868 99.1514C141.868 99.415 141.894 99.8105 141.947 100.338C142 100.865 142.026 101.261 142.026 101.524C142.026 101.92 141.903 102.241 141.657 102.487C141.419 102.733 141.112 102.856 140.734 102.856C140.347 102.856 140.035 102.733 139.798 102.487C139.561 102.241 139.442 101.92 139.442 101.524C139.442 101.261 139.411 100.865 139.35 100.338C139.297 99.8105 139.271 99.415 139.271 99.1514C139.271 98.2461 139.332 96.9937 139.455 95.394C139.587 93.7856 139.653 92.5288 139.653 91.6235C139.653 91.3423 139.635 90.9248 139.6 90.3711C139.574 89.8174 139.561 89.3999 139.561 89.1187C139.561 88.7407 139.684 88.4331 139.93 88.1958C140.185 87.9497 140.497 87.8267 140.866 87.8267C141.674 87.8267 142.118 88.3979 142.197 89.5405L142.237 91.083C143.713 89.1143 145.229 88.1299 146.785 88.1299C148.191 88.1299 149.171 88.7495 149.725 89.9888C150.103 90.8149 150.31 92.0366 150.345 93.6538V94.9854L150.332 96.2114C150.332 96.9409 150.424 97.8857 150.608 99.0459C150.802 100.197 150.898 101.133 150.898 101.854C150.898 102.241 150.771 102.553 150.516 102.79C150.27 103.036 149.958 103.159 149.58 103.159ZM156.119 85.5327C155.697 85.5327 155.333 85.3833 155.025 85.0845C154.717 84.7856 154.563 84.4253 154.563 84.0034C154.563 83.5815 154.717 83.2212 155.025 82.9224C155.333 82.6235 155.697 82.4741 156.119 82.4741C156.541 82.4741 156.901 82.6235 157.2 82.9224C157.508 83.2212 157.662 83.5815 157.662 84.0034C157.662 84.4253 157.508 84.7856 157.2 85.0845C156.901 85.3833 156.541 85.5327 156.119 85.5327ZM156.712 96.2378C156.712 96.7651 156.726 97.5562 156.752 98.6108C156.787 99.6567 156.805 100.443 156.805 100.971C156.805 101.357 156.686 101.674 156.449 101.92C156.211 102.166 155.899 102.289 155.513 102.289C155.135 102.289 154.823 102.166 154.577 101.92C154.339 101.674 154.221 101.357 154.221 100.971C154.221 100.443 154.203 99.6567 154.168 98.6108C154.142 97.5562 154.128 96.7651 154.128 96.2378C154.128 95.4116 154.172 94.3833 154.26 93.1528C154.348 91.9136 154.392 90.8809 154.392 90.0547C154.392 89.6592 154.511 89.3384 154.748 89.0923C154.994 88.8462 155.306 88.7231 155.684 88.7231C156.062 88.7231 156.37 88.8462 156.607 89.0923C156.853 89.3384 156.976 89.6592 156.976 90.0547C156.976 90.8809 156.932 91.9136 156.844 93.1528C156.756 94.3833 156.712 95.4116 156.712 96.2378Z" fill="black"/>
<path d="M291.121 20.7176C290.962 20.6674 290.798 20.6297 290.631 20.6045C290.011 20.5208 289.412 20.3804 288.834 20.1836C288.226 19.9741 287.615 19.7877 286.999 19.6243C286.567 19.507 286.174 19.3165 285.818 19.0525C285.193 18.5918 284.515 18.3153 283.782 18.2231C283.673 18.2608 283.574 18.3174 283.486 18.3928C283.181 18.6651 282.839 18.8682 282.462 19.0023C282.161 19.1154 281.911 19.2955 281.715 19.5427C281.338 20.0202 281.015 20.5312 280.747 21.0758C280.16 22.2487 279.863 23.4865 279.855 24.7893C279.854 24.8896 279.858 24.9859 279.867 25.0783C279.756 25.1039 279.643 25.1353 279.528 25.1725C278.435 25.1055 277.318 25.3003 276.179 25.7569C275.601 25.9915 275.008 26.1632 274.401 26.2721C273.299 26.4648 272.281 26.8565 271.347 27.4471C270.287 28.1173 269.38 28.9551 268.626 29.9605C267.864 30.9742 267.361 32.1115 267.118 33.3723C266.926 34.3651 266.812 35.3642 266.779 36.3695C266.75 37.3581 266.854 38.3257 267.093 39.2724C267.135 39.44 267.16 39.6075 267.169 39.7751C267.215 40.9815 267.009 42.1544 266.553 43.2938C266.482 43.4697 266.402 43.6393 266.314 43.8027C266.008 44.3766 265.964 44.9379 266.182 45.4867C266.257 45.5579 266.341 45.6144 266.433 45.6563C266.668 45.7694 266.919 45.8469 267.187 45.8888C267.464 45.9307 267.74 45.9788 268.017 46.0333C268.042 46.1171 268.069 46.203 268.098 46.2909C268.375 47.1287 268.737 47.933 269.186 48.7037C269.269 48.8462 269.338 48.9928 269.393 49.1436C269.703 50.0484 270.281 50.6914 271.127 51.0726C271.215 51.1647 271.301 51.2611 271.385 51.3616C271.657 51.6883 272 51.9082 272.415 52.0213C272.809 52.1303 273.211 52.1868 273.622 52.191C274.225 52.1826 274.828 52.1596 275.431 52.1219C275.546 52.1148 275.659 52.1064 275.77 52.0967C275.661 52.5256 275.592 52.9675 275.563 53.4225C275.498 54.4653 275.571 55.4958 275.783 56.514C274.935 57.0414 274.166 57.6718 273.477 58.4052C273.142 58.7613 272.836 59.1425 272.56 59.5488C271.856 60.5918 271.36 61.7291 271.071 62.9607C271.016 63.1827 270.993 63.4089 271.001 63.6393C271.03 64.4664 271.074 65.2938 271.133 66.1212C271.014 66.1682 270.93 66.2666 270.882 66.4165C270.798 66.6846 270.75 66.9653 270.738 67.2585C270.7 68.5235 270.654 69.7886 270.599 71.0536C270.541 72.3019 270.574 73.5523 270.7 74.8048C270.733 75.1106 270.781 75.4122 270.844 75.7096C271.1 76.937 271.404 78.1538 271.755 79.3603C271.837 79.6338 271.946 79.881 272.082 80.1017C272.079 80.1519 272.086 80.1959 272.101 80.2336C272.081 80.3764 272.045 80.5125 271.994 80.6421C271.797 81.1477 271.658 81.6608 271.579 82.1815C271.284 81.5341 270.964 80.8869 270.618 80.2399C270.262 79.5823 269.829 78.9853 269.317 78.4492C268.417 77.515 267.42 76.6898 266.327 75.9735C265.924 75.7096 265.51 75.4688 265.082 75.2509C263.922 74.6645 262.758 74.0843 261.589 73.5104C260.441 72.9491 259.306 72.3648 258.183 71.7574C257.379 71.3259 256.587 70.8714 255.808 70.3939C255.037 69.9289 254.256 69.4828 253.465 69.0555C252.38 68.4649 251.236 68.0146 250.034 67.7046C248.681 67.3569 247.305 67.1412 245.906 67.0574C244.641 66.982 243.388 67.0721 242.148 67.3276C240.967 67.5748 239.901 68.0732 238.95 68.8231C238.481 69.1917 238.028 69.5833 237.593 69.998C236.964 70.6012 236.338 71.2065 235.714 71.8139C234.788 72.7146 233.997 73.7199 233.339 74.8299C233.147 75.1547 233.059 75.4898 233.075 75.8353C232.505 76.5238 231.948 77.2254 231.404 77.9402C230.625 78.9665 229.877 79.9383 229.16 80.8557C228.39 81.8401 227.55 82.7595 226.641 83.6141C226.402 83.8361 226.165 84.0581 225.931 84.2801C225.24 84.9294 224.63 85.652 224.102 86.4479C223.394 87.5161 222.678 88.58 221.953 89.6398C221.262 90.6535 220.506 91.661 219.685 92.6621C218.864 93.6717 218.022 94.6644 217.159 95.6404C216.275 96.6416 215.389 97.6448 214.501 98.6502C214.17 99.0272 213.819 99.3832 213.446 99.7183C212.817 100.292 212.162 100.837 211.479 101.352C210.956 101.75 210.43 102.144 209.902 102.533C209.391 102.91 208.909 103.317 208.457 103.752C207.502 104.67 206.499 105.53 205.447 106.335C205.468 106.318 205.489 106.301 205.51 106.284C205.531 106.268 205.552 106.251 205.573 106.234C204.949 106.703 204.322 107.173 203.694 107.642C203.568 107.738 203.43 107.807 203.279 107.849C202.375 108.1 201.457 108.306 200.527 108.465C199.254 108.683 198.068 109.131 196.971 109.809C196.137 110.333 195.274 110.8 194.382 111.211C193.888 111.441 193.473 111.764 193.138 112.178C192.774 112.626 192.667 113.129 192.818 113.686C193.119 114.8 193.856 115.416 195.029 115.534C195.214 115.55 195.398 115.548 195.582 115.527C196.567 115.414 197.549 115.307 198.529 115.207C198.634 115.249 198.732 115.303 198.824 115.37C199.036 115.521 199.263 115.647 199.503 115.747C199.149 115.877 198.784 115.955 198.41 115.98C195.666 116.168 192.998 116.675 190.405 117.5C190.359 117.546 190.317 117.594 190.279 117.645C190.237 117.691 190.202 117.739 190.172 117.789C190.139 117.844 190.107 117.898 190.078 117.953C189.965 118.38 189.965 118.809 190.078 119.241C190.451 120.673 191.111 121.957 192.057 123.092C193.029 124.257 194.235 125.044 195.676 125.455C195.714 125.463 195.75 125.463 195.783 125.455C199.49 124.848 203.227 124.462 206.993 124.299C208.044 124.253 209.083 124.337 210.109 124.55C212.078 124.961 214.003 124.915 215.884 124.412C216.231 124.316 216.462 124.11 216.575 123.796C217.17 122.116 217.452 120.361 217.423 118.531C217.486 118.413 217.555 118.3 217.631 118.191C217.836 117.894 218.039 117.595 218.24 117.293C218.307 117.195 218.374 117.103 218.441 117.016C219.371 116.631 220.299 116.214 221.225 115.766C221.807 115.481 222.374 115.182 222.927 114.868C225.428 113.431 227.998 112.122 230.637 110.94C233.326 109.738 235.854 108.293 238.221 106.605C238.606 106.328 238.931 106 239.195 105.618C240.788 103.332 241.708 100.875 241.953 98.248C243.312 101.02 244.887 103.663 246.679 106.178C247.064 106.714 247.508 107.185 248.011 107.591C250.776 109.839 253.771 111.732 256.996 113.272C257.353 113.705 257.698 114.147 258.033 114.597C258.19 114.811 258.349 115.023 258.51 115.232C258.491 115.285 258.472 115.337 258.454 115.389C258.454 115.418 258.456 115.446 258.46 115.471C258.464 115.5 258.47 115.527 258.479 115.552C258.487 115.578 258.495 115.603 258.504 115.628C258.516 115.653 258.529 115.678 258.541 115.703C258.554 115.724 258.569 115.747 258.585 115.772C258.602 115.793 258.621 115.812 258.642 115.829C258.659 115.85 258.678 115.869 258.699 115.885C258.724 115.902 258.747 115.915 258.768 115.923C258.818 115.948 258.868 115.971 258.918 115.992C258.944 116.001 258.971 116.005 259 116.005C259.039 116.008 259.079 116.008 259.12 116.005C260.078 117.19 261.102 118.313 262.192 119.373C263.001 120.16 263.815 120.939 264.636 121.71C266.907 123.842 269.592 124.973 272.692 125.103C273.027 125.12 273.364 125.118 273.703 125.097C276.434 124.938 279.055 124.328 281.564 123.268C284.023 122.234 286.176 120.766 288.023 118.864C288.463 118.411 288.712 118.141 288.771 118.053C289.914 116.784 290.591 115.307 290.8 113.623C290.926 112.601 291.06 111.581 291.202 110.563C291.455 108.754 291.309 107.02 290.763 105.361C290.942 105.17 291.118 104.976 291.29 104.776C291.345 104.767 291.398 104.746 291.447 104.714C291.473 104.701 291.496 104.686 291.517 104.67C291.538 104.653 291.556 104.634 291.573 104.613C291.594 104.596 291.613 104.577 291.63 104.557C291.646 104.536 291.663 104.513 291.68 104.487C291.693 104.458 291.703 104.427 291.711 104.393C291.728 104.344 291.738 104.294 291.743 104.242C293.349 102.304 294.682 100.168 295.739 97.8333C296.937 95.1901 298.081 92.5197 299.17 89.8221C300.685 86.0683 301.477 82.2166 301.545 78.2669C301.786 78.0522 301.998 77.8051 302.179 77.5255C302.64 76.8176 303.038 76.0761 303.373 75.3012C303.44 75.1504 303.591 74.7462 303.826 74.0885C304.831 71.3029 305.187 68.444 304.894 65.5117C304.58 62.3575 304.201 59.2284 303.757 56.1244C303.74 56.1034 303.721 56.0825 303.7 56.0615L303.694 56.0553C303.574 55.4553 303.421 54.8605 303.235 54.2708C303.114 53.8896 303.03 53.5 302.984 53.1021C302.841 51.8705 302.76 50.6306 302.739 49.3823C302.73 49.0598 302.722 48.7351 302.714 48.4084C302.672 47.2942 302.477 46.2092 302.129 45.1536C301.74 43.9765 301.459 42.7743 301.287 41.547C301.41 41.2857 301.383 41.0574 301.206 40.8621C301.207 40.6904 301.191 40.5145 301.155 40.3343C301.009 39.597 300.648 38.952 300.075 38.399C299.576 37.9215 299.147 37.3937 298.786 36.8156C298.116 35.7349 297.32 34.7526 296.399 33.8687C296.051 33.5336 295.745 33.1692 295.481 32.7754C295.314 32.5157 295.144 32.256 294.972 31.9963C294.482 31.2632 294.17 30.461 294.036 29.5897C294.074 29.3761 294.105 29.1625 294.13 28.9488C294.197 28.3038 294.252 27.6587 294.294 27.0136C294.386 25.6857 294.195 24.4018 293.722 23.1619C293.244 21.9261 292.377 21.1114 291.121 20.7176ZM290.781 21.9366C291.05 22.0246 291.292 22.1607 291.51 22.345C292.377 23.0823 292.861 24.0373 292.962 25.2102C293.047 25.9309 293.066 26.6535 293.018 27.378C292.989 27.8472 292.932 28.3121 292.849 28.7729C292.731 29.3929 292.761 30.0107 292.937 30.6265C293.004 30.8569 293.094 31.0768 293.207 31.2863C293.441 31.7093 293.663 32.1429 293.873 32.5869C294.141 33.1524 294.495 33.6509 294.935 34.0823C295.284 34.4237 295.619 34.7756 295.94 35.138C295.943 35.1824 295.958 35.2243 295.984 35.2636C296.382 35.8375 296.558 36.4742 296.512 37.1738C296.449 38.1623 296.426 39.1446 296.443 40.1207C296.452 40.2694 296.448 40.4181 296.43 40.5668C296.363 41.1658 296.212 41.7439 295.978 42.301C295.747 42.8482 295.5 43.3865 295.236 43.9158C295.239 43.9127 295.241 43.9085 295.243 43.9032C295.251 43.8865 295.257 43.8697 295.261 43.853C295.228 43.9326 295.192 44.0122 295.155 44.0917C295.117 44.1839 295.096 44.2781 295.092 44.3745C295.079 44.7934 295.134 45.2165 295.255 45.6437C295.372 46.0584 295.532 46.4543 295.733 46.8313C295.729 46.9444 295.724 47.0575 295.72 47.1706C295.712 47.4135 295.71 47.6544 295.714 47.8932C295.714 48.1278 295.674 48.354 295.594 48.5718C295.548 48.6011 295.502 48.6304 295.456 48.6597C295.352 48.731 295.251 48.8105 295.155 48.8985C295.025 49.0158 294.895 49.1373 294.765 49.263C294.179 49.4473 293.85 49.8494 293.779 50.4694C293.728 50.9427 293.887 51.3239 294.256 51.6129C295.194 52.346 296.168 53.0309 297.178 53.6676C298.246 54.3462 299.297 55.0499 300.332 55.7788C300.449 55.8458 300.573 55.873 300.703 55.8605C300.854 55.8479 300.984 55.7893 301.092 55.6845C301.226 55.5421 301.289 55.3725 301.281 55.1756C301.277 55.1588 301.273 55.1421 301.268 55.1253C301.26 55.0918 301.25 55.0604 301.237 55.0311C301.229 55.0018 301.218 54.9724 301.206 54.9431C301.013 54.7002 300.78 54.4907 300.508 54.3148C299.628 53.7451 298.745 53.1775 297.856 52.612C296.914 52.0088 295.988 51.3804 295.079 50.727C295.067 50.7144 295.056 50.6997 295.048 50.683C295.039 50.6704 295.035 50.6558 295.035 50.639C295.035 50.6223 295.035 50.6055 295.035 50.5887C295.039 50.572 295.044 50.5573 295.048 50.5448C295.052 50.5238 295.062 50.505 295.079 50.4882C295.088 50.484 295.098 50.4798 295.111 50.4756C295.173 50.4547 295.232 50.4254 295.287 50.3877C295.597 50.1824 295.9 49.9667 296.198 49.7405C296.395 49.5897 296.541 49.4012 296.638 49.175C296.918 48.5215 297.04 47.8324 297.002 47.1078C296.998 46.9737 296.975 46.846 296.933 46.7245C296.681 46.0249 296.472 45.3149 296.304 44.5944C296.33 44.5316 296.355 44.4708 296.38 44.4122C296.401 44.3597 296.422 44.3073 296.443 44.2551C296.448 44.2513 296.452 44.2451 296.455 44.2363C296.456 44.2334 296.456 44.2292 296.455 44.2237C296.458 44.2236 296.46 44.2215 296.462 44.2174C296.854 43.5898 297.164 42.9238 297.392 42.2193C297.605 41.5658 297.689 40.8977 297.643 40.2149C297.601 39.5405 297.637 38.8661 297.75 38.1917C297.784 37.9873 297.805 37.7842 297.812 37.5822C298.49 38.4903 299.186 39.3825 299.899 40.2589C299.899 40.4139 299.903 40.5689 299.911 40.7239C299.915 40.883 299.932 41.0401 299.961 41.1951C299.945 41.2747 299.93 41.3543 299.917 41.4339C299.896 41.5847 299.93 41.7229 300.018 41.8486C300.055 41.9018 300.097 41.9479 300.144 41.9868C300.263 43.0071 300.485 44.0062 300.81 44.984C301.22 46.2113 301.434 47.4764 301.451 48.7791C301.449 48.7733 301.447 48.767 301.444 48.7603C301.556 49.6719 301.598 50.5872 301.57 51.5061C301.557 51.9795 301.599 52.4486 301.696 52.9136C301.913 53.9943 302.161 55.0709 302.437 56.1432C302.517 56.4532 302.573 56.7674 302.607 57.0857C302.64 57.4264 302.709 57.751 302.814 58.0597C302.944 59.8587 303.192 61.6558 303.555 63.4508C303.899 65.1473 304.016 66.8522 303.907 68.5654C303.677 72.1888 302.414 75.2824 300.118 77.846C300.106 77.8669 300.091 77.8899 300.075 77.9151C300.062 77.936 300.051 77.9591 300.043 77.9842C300.031 78.0093 300.02 78.0366 300.012 78.0659C300.003 78.0952 299.997 78.1266 299.993 78.1601C299.993 78.2272 299.999 78.2921 300.012 78.3549C300.033 78.4806 300.087 78.5874 300.175 78.6754C300.25 78.7508 300.34 78.8031 300.445 78.8324C300.264 80.6133 299.931 82.3768 299.446 84.123C298.42 87.8302 297.186 91.4767 295.745 95.0624C294.524 98.0971 292.901 100.885 290.876 103.426C290.814 103.41 290.751 103.396 290.687 103.382C288.953 102.619 287.212 101.867 285.466 101.126C283.225 100.175 281.025 99.1361 278.868 98.0093C278.185 97.6532 277.524 97.2657 276.883 96.8468C274.933 95.5643 273.1 94.1442 271.385 92.5867C271.59 92.1809 271.802 91.7787 272.019 91.3803C272.589 90.3331 272.859 89.2209 272.83 88.0439C272.826 87.8805 272.84 87.7192 272.874 87.56C273.004 86.9516 273.06 86.3442 273.043 85.7379C272.96 85.5628 272.922 85.3575 272.93 85.1221C272.933 85.0357 272.944 84.9435 272.962 84.8456C272.936 84.662 272.902 84.4777 272.861 84.2927C272.873 84.2718 272.884 84.2487 272.893 84.2236C272.964 84.0099 272.932 83.8131 272.798 83.6329C272.778 83.6056 272.757 83.5784 272.736 83.5513C272.7 83.0321 272.781 82.519 272.981 82.0118C273.076 81.7668 273.149 81.5176 273.201 81.2641C273.294 81.3356 273.388 81.4026 273.483 81.4652L273.728 80.1331C273.631 80.0654 273.535 79.9963 273.439 79.9258C273.406 79.781 273.354 79.6407 273.282 79.5048C273.056 79.0733 272.865 78.6272 272.71 78.1664C272.304 76.9558 272.047 75.7159 271.938 74.4467C271.829 73.1858 271.804 71.9228 271.862 70.6578C271.915 69.6003 271.966 68.5405 272.013 67.4784C272.083 67.4543 272.154 67.4187 272.227 67.3716C272.323 67.3088 272.373 67.2208 272.377 67.1077C272.419 66.2322 272.394 65.3567 272.302 64.4812C272.185 63.3712 272.392 62.3072 272.924 61.2893C273.138 60.8788 273.389 60.4976 273.678 60.1457C274.467 59.1902 275.344 58.3336 276.311 57.5758C276.467 57.6338 276.654 57.6087 276.87 57.5004C277 57.4376 277.069 57.3371 277.077 57.1988C277.123 56.6962 277.094 56.1914 276.989 55.6845C276.742 54.4404 276.767 53.1963 277.065 51.9522C277.07 51.9321 277.074 51.9112 277.077 51.8894C277.841 51.7232 278.582 51.4719 279.302 51.1354C279.444 51.0684 279.572 50.9804 279.685 50.8715C280.037 50.5238 280.018 50.1971 279.628 49.8913C279.532 49.8201 279.434 49.8054 279.333 49.8473C278.386 50.2327 277.406 50.5196 276.393 50.7081C276.053 50.7668 275.714 50.8275 275.375 50.8903C274.311 51.0788 273.299 50.9741 272.34 50.5762C272.289 50.5133 272.241 50.4505 272.195 50.3877C272.053 50.1992 271.873 50.0567 271.655 49.9604C271.429 49.8557 271.228 49.7195 271.052 49.552C270.997 49.4221 270.936 49.2965 270.869 49.175C270.74 48.9278 270.61 48.6828 270.48 48.4398C270.363 48.2304 270.287 48.1005 270.254 48.0503C270.27 48.088 270.245 48.0482 270.178 47.9309C269.789 47.2607 269.491 46.5527 269.286 45.8071C269.232 45.6102 269.133 45.4406 268.991 45.2981C268.563 44.8709 268.031 44.651 267.395 44.6384C267.466 44.4499 267.537 44.2593 267.608 44.0666C268.057 42.8728 268.352 41.6391 268.494 40.3657C268.545 39.8798 268.494 39.4044 268.344 38.9394C268.147 38.3404 268.044 37.7204 268.036 37.0795C268.019 35.8228 268.145 34.5829 268.413 33.3598C268.618 32.4047 269.01 31.5397 269.588 30.7647C270.317 29.7803 271.211 28.9824 272.271 28.3708C272.949 27.977 273.676 27.711 274.451 27.5728C274.924 27.489 275.381 27.3571 275.821 27.1769C276.881 26.7455 277.976 26.5004 279.107 26.4418C279.645 26.4135 280.183 26.3548 280.722 26.2658C280.727 26.2684 280.731 26.2705 280.734 26.2721C281.036 26.4187 281.354 26.4962 281.689 26.5046C282.167 26.5172 282.638 26.5842 283.103 26.7057C284.402 27.045 285.629 27.5623 286.785 28.2577C287.066 28.4252 287.303 28.6389 287.495 28.8986C288.036 29.6023 288.559 30.3186 289.066 31.0475C289.678 31.9272 290.094 32.878 290.316 33.9001C290.057 34.6416 289.743 35.3579 289.374 36.049C289.332 36.1253 289.293 36.2007 289.255 36.2752C289.246 36.2561 289.238 36.2351 289.229 36.2124C289.222 36.1929 289.214 36.172 289.204 36.1496C289.193 36.1736 289.18 36.1966 289.167 36.2187C288.882 36.6837 288.624 37.1591 288.394 37.645C288.339 37.6827 288.283 37.7183 288.224 37.7518C288.165 37.7853 288.107 37.8168 288.048 37.8461C287.998 37.8712 287.946 37.8964 287.891 37.9215C287.74 37.9215 287.589 37.9236 287.439 37.9278C287.296 37.9278 287.166 37.9571 287.049 38.0157C286.963 38.0611 286.877 38.1009 286.791 38.1351V38.1414C285.983 38.1582 285.279 38.4388 284.68 38.9834C283.168 40.3741 282.001 41.9994 281.18 43.8593C280.297 45.8532 280.399 47.801 281.488 49.7028C281.987 52.6811 282.416 55.6678 282.776 58.6629C282.919 59.8651 283.29 60.9877 283.889 62.0307C285.526 64.9001 287.835 67.0993 290.813 68.6283C290.846 68.645 290.88 68.6618 290.913 68.6785C290.947 68.6911 290.98 68.6995 291.014 68.7037C291.047 68.7121 291.083 68.7162 291.121 68.7162C291.146 68.7162 291.173 68.7162 291.202 68.7162C291.228 68.7079 291.255 68.6995 291.284 68.6911C291.334 68.6743 291.385 68.6513 291.435 68.622C291.481 68.5969 291.525 68.5654 291.567 68.5277C291.605 68.49 291.64 68.4481 291.674 68.4021C291.69 68.3727 291.703 68.3434 291.711 68.3141C291.732 68.2513 291.743 68.1863 291.743 68.1193C291.747 68.0523 291.741 67.9874 291.724 67.9245C291.711 67.8743 291.695 67.824 291.674 67.7737C290.538 66.9988 289.407 66.205 288.281 65.3923C287.062 64.5085 286.061 63.4298 285.277 62.1564C284.917 61.57 284.71 61.1972 284.655 61.038C284.483 60.6191 284.36 60.1834 284.284 59.731C284.004 58.022 283.736 56.315 283.48 54.6101C283.22 52.8759 282.965 51.1438 282.714 49.4137C282.575 48.8859 282.414 48.3707 282.23 47.868C281.66 46.314 281.846 44.8039 282.789 43.3377C283.618 42.0434 284.592 40.8684 285.711 39.8128C285.74 39.7918 285.769 39.7709 285.799 39.7499C285.887 39.6955 285.975 39.6431 286.063 39.5929C286.155 39.5384 286.249 39.4881 286.345 39.4421C286.37 39.4379 286.396 39.4337 286.421 39.4295C286.496 39.4211 286.572 39.4148 286.647 39.4106C286.718 39.4065 286.789 39.4002 286.861 39.3918C286.919 39.3876 286.98 39.3834 287.043 39.3792C287.076 39.3667 287.108 39.3562 287.137 39.3478C287.2 39.3227 287.265 39.2954 287.332 39.2661C287.395 39.2368 287.46 39.2075 287.527 39.1782C287.602 39.1782 287.68 39.1782 287.759 39.1782C287.835 39.1782 287.91 39.1761 287.985 39.1719C288.048 39.1677 288.111 39.1614 288.174 39.153C288.589 39.0232 288.913 38.7907 289.148 38.4556C289.258 38.2999 289.369 38.1428 289.481 37.9843C289.738 38.0223 289.943 37.8526 290.097 37.4754C290.595 36.5622 291.022 35.6155 291.378 34.6353C291.429 34.4887 291.464 34.3379 291.485 34.1829C291.569 33.521 291.452 32.8906 291.133 32.2916C290.534 31.1522 289.883 30.0421 289.179 28.9614C289.003 28.6933 288.802 28.4462 288.576 28.22C287.742 27.378 286.771 26.7203 285.66 26.247C284.355 25.6925 282.997 25.349 281.589 25.2165C281.551 25.1399 281.486 25.0917 281.394 25.072C281.32 25.0553 281.245 25.0407 281.168 25.028C281.044 24.262 281.127 23.5059 281.419 22.7597C281.75 21.9261 282.144 21.124 282.6 20.3532C282.617 20.3406 282.634 20.3323 282.651 20.3281C282.906 20.2192 283.16 20.1019 283.411 19.9762C283.641 19.8631 283.845 19.7081 284.021 19.5112C284.247 19.6243 284.469 19.7521 284.687 19.8945C284.925 20.0495 285.177 20.1815 285.441 20.2904C286.412 20.6883 287.397 21.059 288.394 21.4025C288.549 21.4528 288.708 21.4884 288.871 21.5093C289.212 21.5509 289.547 21.6095 289.877 21.6853C290.183 21.7547 290.485 21.8385 290.781 21.9366ZM292.968 25.2417C292.968 25.2463 292.968 25.2505 292.968 25.2542V25.2417ZM294.734 49.2881H294.727L294.734 49.2818H294.74L294.734 49.2881ZM234.124 76.4636C234.217 76.3421 234.288 76.2123 234.338 76.0741C234.409 75.8931 234.432 75.7381 234.407 75.6091C234.531 75.3718 234.661 75.1372 234.797 74.9053C235.014 74.52 235.268 74.1597 235.557 73.8246C235.549 73.8372 235.54 73.8477 235.532 73.856C235.529 73.8597 235.527 73.8618 235.526 73.8623C235.552 73.8345 235.577 73.8052 235.601 73.7743C236.397 72.8193 237.235 71.971 238.114 71.2296C238.613 70.8065 239.111 70.3855 239.61 69.9666C240.732 69.0157 242.027 68.4775 243.493 68.3518C243.732 68.3309 243.797 68.3267 243.688 68.3392C243.692 68.3392 243.698 68.3392 243.706 68.3392C244.871 68.268 246.031 68.3036 247.187 68.446C248.444 68.5968 249.674 68.8733 250.876 69.2755C251.471 69.4765 252.044 69.7258 252.597 70.0232C253.72 70.6348 254.828 71.2757 255.921 71.9459C256.152 72.0883 256.388 72.2244 256.631 72.3543C257.712 72.9324 258.799 73.5042 259.892 74.0697C261.015 74.6519 262.15 75.2049 263.298 75.7285C264.442 76.2479 265.518 76.8804 266.528 77.626C267.051 78.0156 267.543 78.4429 268.004 78.9078C268.885 79.8015 269.568 80.8361 270.053 82.0118C269.836 82.4144 269.713 82.848 269.682 83.3125C269.577 84.9503 269.28 86.5526 268.79 88.1193C268.668 88.5088 268.524 88.8858 268.356 89.2503C268.004 90.0137 267.679 90.7802 267.382 91.55C266.792 91.0744 266.206 90.5927 265.623 90.1048C263.956 88.7057 262.146 87.4993 260.194 86.4856C259.591 86.1714 259.218 85.9787 259.076 85.9075C258.929 85.7902 258.78 85.6792 258.629 85.5745C255.333 83.2957 251.732 81.8778 247.828 81.3207C245.91 81.0484 243.998 80.7845 242.092 80.529C239.792 80.2232 237.783 80.7573 236.066 82.1312C235.718 82.4077 235.438 82.7323 235.224 83.1051C233.289 86.5023 230.924 89.5519 228.13 92.2537C228.13 92.283 228.13 92.3103 228.13 92.3354C228.131 92.3482 228.131 92.3608 228.13 92.3731C227.509 93.0437 226.914 93.7391 226.346 94.4592C223.891 97.5715 221.528 100.759 219.258 104.022C217.063 107.173 214.181 109.47 210.612 110.915C207.31 112.251 204.123 113.629 201.049 115.05C200.934 114.832 200.709 114.71 200.376 114.685C200.238 114.677 200.115 114.631 200.006 114.547C199.386 114.078 198.699 113.883 197.945 113.963C197.312 114.03 196.686 114.13 196.066 114.264C195.207 114.453 194.527 114.227 194.024 113.586C194.02 113.561 194.013 113.535 194.005 113.51C193.997 113.46 193.99 113.408 193.986 113.353C193.982 113.299 193.978 113.244 193.974 113.19C193.995 113.144 194.016 113.098 194.037 113.052C194.057 113.006 194.08 112.962 194.106 112.92C194.127 112.886 194.15 112.855 194.175 112.825C194.221 112.784 194.271 112.748 194.326 112.719C195.398 112.178 196.447 111.598 197.474 110.978C197.888 110.727 198.32 110.507 198.768 110.318C199.874 109.849 201.028 109.56 202.23 109.451C202.984 109.38 203.665 109.131 204.272 108.704C205.269 108.008 206.245 107.281 207.2 106.523C207.699 106.129 208.18 105.715 208.645 105.279C209.563 104.42 210.524 103.612 211.529 102.854C211.802 102.644 212.078 102.445 212.359 102.257C213.368 101.57 214.279 100.774 215.092 99.8691C215.951 98.9099 216.81 97.9485 217.668 96.9851C218.682 95.8499 219.668 94.6875 220.628 93.4978C221.432 92.5009 222.196 91.4767 222.921 90.4252C223.65 89.378 224.362 88.3224 225.057 87.2584C225.581 86.4584 226.197 85.7421 226.905 85.1095C227.839 84.2717 228.704 83.3669 229.5 82.3951C230.279 81.44 231.052 80.4787 231.818 79.5111C232.606 78.5099 233.375 77.4941 234.124 76.4636ZM225.164 98.0218C226.212 96.4594 227.391 95.01 228.702 93.6737C229.083 93.2846 229.469 92.8992 229.858 92.5176C229.864 92.3845 229.87 92.2525 229.877 92.1218C232.217 90.0472 234.1 87.6051 235.526 84.7954C235.974 83.9157 236.613 83.2057 237.442 82.6653C238.485 81.9867 239.652 81.6935 240.942 81.7856C241.943 81.8568 242.944 81.926 243.945 81.993C246.32 82.1563 248.649 82.571 250.932 83.2371C251.548 83.4172 251.906 83.5324 252.007 83.5827C252.112 83.6246 252.218 83.6706 252.327 83.7209C255.159 84.9524 257.84 86.3976 260.37 88.0564C261.061 88.5088 261.746 88.9675 262.425 89.4325C263.974 90.4933 265.49 91.6012 266.974 92.7564V92.7627C266.978 92.792 266.984 92.8192 266.993 92.8443C267.001 92.8695 267.009 92.8967 267.018 92.926C267.03 92.947 267.043 92.97 267.055 92.9951C267.068 93.0161 267.083 93.0391 267.099 93.0643C267.116 93.0852 267.135 93.1041 267.156 93.1208C267.173 93.1418 267.192 93.1606 267.213 93.1774C267.238 93.1941 267.261 93.2088 267.282 93.2213C267.307 93.2339 267.332 93.2465 267.357 93.259C267.382 93.2674 267.407 93.2758 267.432 93.2842C267.458 93.2926 267.485 93.2988 267.514 93.303C267.539 93.3072 267.566 93.3093 267.596 93.3093C267.622 93.3093 267.645 93.3072 267.665 93.303C268.191 93.7195 268.71 94.1405 269.223 94.566C269.198 94.6336 269.177 94.7027 269.16 94.7733C268.968 95.5525 268.729 96.3232 268.444 97.0856C268.094 98.0216 267.729 98.9515 267.351 99.8754C267.344 99.89 267.338 99.9047 267.332 99.9194L267.326 99.9383C267.328 99.9348 267.33 99.9306 267.332 99.9257C266.863 101.232 266.308 102.501 265.667 103.733C264.523 105.937 263.271 108.079 261.909 110.161C261.553 110.702 261.155 111.211 260.716 111.688C260.041 112.424 259.481 113.211 259.038 114.051C258.882 113.845 258.727 113.638 258.573 113.429C258.585 113.408 258.595 113.387 258.604 113.366C258.625 113.316 258.644 113.263 258.661 113.209C258.661 113.15 258.657 113.094 258.648 113.039C258.64 112.985 258.623 112.93 258.598 112.876C258.581 112.83 258.56 112.786 258.535 112.744C258.506 112.698 258.474 112.652 258.441 112.606C256.791 111.759 255.128 110.924 253.452 110.098C251.01 108.892 249.016 107.2 247.47 105.021C245.372 102.064 243.612 98.9162 242.192 95.5776C242.184 95.5231 242.175 95.4708 242.167 95.4205C242.159 95.3661 242.148 95.3116 242.136 95.2572C242.119 95.2069 242.098 95.1587 242.073 95.1126C242.043 95.0666 242.012 95.0226 241.979 94.9807C241.962 94.9604 241.941 94.9436 241.916 94.9304C241.889 94.6746 241.855 94.417 241.815 94.1576C241.798 94.1366 241.78 94.1178 241.759 94.101C241.717 94.0675 241.673 94.0361 241.627 94.0068C241.581 93.9816 241.532 93.9607 241.482 93.9439C241.428 93.9314 241.373 93.9209 241.319 93.9125C241.289 93.9125 241.262 93.9146 241.237 93.9188C241.153 93.9314 241.076 93.9607 241.005 94.0068C240.963 94.0361 240.923 94.0696 240.885 94.1073C240.848 94.145 240.812 94.1848 240.778 94.2267C240.678 94.7754 240.644 95.3367 240.678 95.9106C240.845 98.4617 240.364 100.87 239.233 103.136C238.081 105.449 236.254 107.022 233.754 107.855C233.224 108.081 232.673 108.32 232.101 108.572C229.613 109.673 227.211 110.917 224.894 112.304C222.784 113.562 220.631 114.729 218.435 115.804C218.425 115.8 218.414 115.796 218.403 115.791C218.353 115.77 218.303 115.758 218.253 115.753C218.198 115.745 218.144 115.745 218.089 115.753C218.039 115.758 217.987 115.768 217.932 115.785C217.664 115.965 217.425 116.181 217.216 116.432C216.466 117.337 216.106 118.363 216.135 119.511C216.164 120.734 216.03 121.93 215.733 123.099C215.088 123.53 214.363 123.702 213.559 123.614C212.189 123.459 210.817 123.327 209.443 123.218C205.409 122.896 201.417 123.191 197.467 124.104C197.082 124.196 196.709 124.194 196.349 124.098C193.471 123.352 191.77 121.471 191.247 118.455C192.528 118.083 193.831 117.884 195.155 117.858C196.504 117.833 197.796 117.574 199.032 117.079C200.95 116.313 202.854 115.594 204.743 114.924C208.534 113.584 212.103 111.824 215.45 109.646C216.447 108.997 217.331 108.224 218.102 107.327C220.636 104.366 222.99 101.264 225.164 98.0218ZM269.487 93.2151C269.108 92.9222 268.729 92.6247 268.35 92.3228C268.546 91.936 268.743 91.5464 268.94 91.1541C269.632 89.7634 270.13 88.3036 270.436 86.7746C270.65 85.7185 270.838 84.6608 271.001 83.6015C271.138 83.7646 271.283 83.9196 271.435 84.0665C271.418 84.0497 271.448 84.0686 271.523 84.123C271.555 84.145 271.584 84.168 271.611 84.1922C271.813 85.0031 271.836 85.8158 271.68 86.6301C271.617 86.961 271.596 87.2919 271.617 87.6229C271.646 88.0543 271.617 88.4795 271.529 88.8984C271.269 90.1467 270.781 91.3028 270.065 92.3668C269.977 92.5009 269.881 92.6265 269.776 92.7438C269.641 92.9018 269.544 93.0589 269.487 93.2151ZM267.388 103.017C267.748 102.168 268.098 101.315 268.438 100.46C268.445 100.447 268.452 100.435 268.457 100.422C269.06 98.9154 269.636 97.3991 270.185 95.8729C270.239 95.7305 270.281 95.586 270.31 95.4394C270.322 95.3757 270.333 95.3107 270.342 95.2446C270.827 95.8199 271.227 96.4504 271.542 97.1359C271.827 97.7517 272.13 98.4114 272.453 99.1151C272.47 99.1403 272.486 99.1654 272.503 99.1905C272.549 99.2617 272.61 99.3225 272.685 99.3728C272.71 99.3853 272.736 99.3958 272.761 99.4042C272.815 99.4251 272.87 99.4419 272.924 99.4544C273.041 99.4754 273.15 99.4628 273.251 99.4167C273.297 99.3874 273.343 99.356 273.389 99.3225C273.431 99.289 273.469 99.2513 273.502 99.2094C273.573 99.1256 273.617 99.0272 273.634 98.9141C273.638 98.8889 273.638 98.8638 273.634 98.8387C273.571 98.5371 273.471 98.2459 273.333 97.9653C273.077 97.4584 272.945 97.1903 272.937 97.161C272.891 97.0605 272.845 96.9599 272.798 96.8594C272.564 96.3651 272.304 95.8855 272.019 95.4205C271.676 94.8718 271.29 94.3565 270.863 93.8748C270.842 93.8581 270.819 93.8413 270.794 93.8245C270.773 93.8078 270.75 93.7931 270.725 93.7806C270.716 93.7754 270.708 93.7691 270.7 93.7617C270.728 93.7323 270.755 93.7008 270.781 93.6675C272.086 94.9429 273.517 96.0844 275.073 97.0919C276.112 97.7621 277.165 98.403 278.234 99.0146C280.106 100.087 282.031 101.055 284.008 101.918C286.012 102.795 288.027 103.631 290.053 104.425C290.013 104.47 289.974 104.516 289.933 104.563C289.895 104.581 289.857 104.602 289.82 104.626C289.774 104.655 289.73 104.688 289.688 104.726C289.65 104.764 289.619 104.806 289.594 104.852C289.565 104.902 289.539 104.952 289.518 105.003C289.52 105.011 289.522 105.02 289.525 105.028C289.501 105.053 289.478 105.078 289.456 105.103C289.426 105.183 289.41 105.262 289.405 105.342C289.405 105.422 289.422 105.501 289.456 105.581C289.485 105.66 289.529 105.729 289.588 105.788C289.611 105.807 289.636 105.826 289.663 105.845C289.717 106.2 289.766 106.558 289.808 106.919C289.954 108.26 290 109.606 289.946 110.959C289.87 112.836 289.378 114.583 288.469 116.2C288.18 116.711 288.017 116.991 287.979 117.042C287.724 117.377 287.447 117.695 287.15 117.997C284.331 120.858 280.958 122.718 277.033 123.576C274.29 124.175 271.636 123.951 269.072 122.904C267.682 122.334 266.408 121.557 265.252 120.573C263.28 118.903 261.476 117.067 259.842 115.062C259.928 114.892 260.035 114.731 260.163 114.578C261.738 112.677 263.185 110.672 264.504 108.565C265.614 106.789 266.576 104.94 267.388 103.017ZM208.004 113.473C207.976 113.487 207.944 113.5 207.91 113.51C207.932 113.503 207.95 113.495 207.967 113.485L208.004 113.473ZM260.301 112.379C260.284 112.406 260.263 112.434 260.238 112.461C260.246 112.453 260.253 112.445 260.257 112.436L260.301 112.379ZM247.332 82.4328C247.307 82.4286 247.282 82.4244 247.257 82.4202L247.219 82.414C247.257 82.4223 247.294 82.4286 247.332 82.4328Z" fill="black"/>
<path d="M268.438 100.46C268.098 101.315 267.748 102.168 267.388 103.017C266.576 104.94 265.614 106.789 264.504 108.565C263.185 110.672 261.738 112.677 260.162 114.579C260.035 114.731 259.928 114.892 259.842 115.062C261.476 117.067 263.28 118.904 265.252 120.573C266.408 121.557 267.682 122.334 269.072 122.904C271.636 123.951 274.29 124.175 277.033 123.576C280.958 122.718 284.33 120.858 287.15 117.997C287.447 117.695 287.723 117.377 287.979 117.042C288.017 116.991 288.18 116.711 288.469 116.2C289.378 114.583 289.87 112.836 289.946 110.959C290 109.606 289.954 108.26 289.807 106.919C289.765 106.558 289.717 106.2 289.663 105.845C289.636 105.826 289.611 105.807 289.587 105.788C289.529 105.729 289.485 105.66 289.456 105.581C289.422 105.501 289.405 105.422 289.405 105.342C289.409 105.262 289.426 105.183 289.456 105.103C289.478 105.078 289.501 105.053 289.525 105.028C289.522 105.02 289.52 105.011 289.518 105.003C289.539 104.952 289.564 104.902 289.594 104.852C289.619 104.806 289.65 104.764 289.688 104.726C289.73 104.689 289.774 104.655 289.82 104.626C289.857 104.602 289.894 104.581 289.933 104.563C289.973 104.516 290.013 104.47 290.052 104.425C288.027 103.631 286.012 102.795 284.008 101.918C282.031 101.055 280.106 100.087 278.233 99.0146C277.165 98.4031 276.112 97.7622 275.073 97.0919C273.516 96.0844 272.086 94.9429 270.781 93.6675C270.755 93.7009 270.728 93.7323 270.7 93.7618C270.708 93.7691 270.716 93.7754 270.725 93.7806C270.75 93.7932 270.773 93.8078 270.794 93.8246C270.819 93.8413 270.842 93.8581 270.863 93.8749C271.29 94.3566 271.676 94.8718 272.019 95.4206C272.304 95.8855 272.564 96.3652 272.798 96.8595C272.844 96.96 272.89 97.0605 272.937 97.1611C272.945 97.1904 273.077 97.4585 273.332 97.9653C273.471 98.246 273.571 98.5371 273.634 98.8387C273.638 98.8638 273.638 98.889 273.634 98.9141C273.617 99.0272 273.573 99.1257 273.502 99.2094C273.469 99.2513 273.431 99.289 273.389 99.3225C273.343 99.356 273.297 99.3875 273.251 99.4168C273.15 99.4629 273.041 99.4754 272.924 99.4545C272.87 99.4419 272.815 99.4252 272.761 99.4042C272.736 99.3958 272.71 99.3854 272.685 99.3728C272.61 99.3225 272.549 99.2618 272.503 99.1906C272.486 99.1654 272.469 99.1403 272.453 99.1152C272.13 98.4114 271.827 97.7517 271.542 97.1359C271.226 96.4504 270.826 95.82 270.342 95.2446C270.333 95.3108 270.322 95.3757 270.31 95.4394C270.281 95.586 270.239 95.7305 270.184 95.873C269.636 97.3991 269.06 98.9155 268.457 100.422C268.451 100.435 268.445 100.447 268.438 100.46ZM268.35 92.3229C268.729 92.6248 269.108 92.9222 269.487 93.2151C269.544 93.0589 269.641 92.9018 269.776 92.7439C269.881 92.6266 269.977 92.5009 270.065 92.3669C270.781 91.3029 271.269 90.1467 271.529 88.8984C271.617 88.4795 271.646 88.0544 271.617 87.6229C271.596 87.292 271.617 86.9611 271.68 86.6301C271.836 85.8158 271.813 85.0032 271.611 84.1922C271.584 84.1681 271.555 84.145 271.523 84.1231C271.447 84.0686 271.418 84.0498 271.435 84.0665C271.283 83.9197 271.138 83.7647 271.001 83.6016C270.838 84.6608 270.649 85.7185 270.436 86.7747C270.13 88.3036 269.632 89.7634 268.94 91.1542C268.742 91.5465 268.546 91.936 268.35 92.3229Z" fill="#333333"/>
<path d="M228.702 93.6737C227.391 95.01 226.212 96.4594 225.164 98.0218C222.99 101.264 220.636 104.366 218.102 107.327C217.331 108.224 216.447 108.997 215.45 109.646C212.103 111.824 208.534 113.584 204.743 114.924C202.854 115.594 200.95 116.313 199.032 117.079C197.796 117.574 196.504 117.833 195.155 117.858C193.831 117.884 192.529 118.082 191.247 118.455C191.77 121.471 193.471 123.352 196.349 124.098C196.709 124.194 197.082 124.196 197.467 124.104C201.417 123.191 205.41 122.896 209.443 123.218C210.817 123.327 212.189 123.459 213.559 123.614C214.363 123.702 215.088 123.53 215.733 123.099C216.03 121.93 216.165 120.734 216.135 119.511C216.106 118.363 216.466 117.337 217.216 116.432C217.425 116.181 217.664 115.965 217.932 115.785C217.987 115.768 218.039 115.758 218.089 115.753C218.144 115.745 218.198 115.745 218.253 115.753C218.303 115.758 218.353 115.77 218.404 115.791C218.414 115.796 218.425 115.8 218.435 115.804C220.631 114.729 222.784 113.562 224.894 112.304C227.211 110.917 229.613 109.673 232.101 108.572C232.673 108.32 233.224 108.081 233.754 107.855C236.255 107.022 238.081 105.449 239.233 103.136C240.364 100.87 240.846 98.4617 240.678 95.9106C240.645 95.3367 240.678 94.7754 240.779 94.2267C240.812 94.1848 240.848 94.145 240.885 94.1073C240.923 94.0696 240.963 94.0361 241.005 94.0068C241.076 93.9607 241.153 93.9314 241.237 93.9188C241.262 93.9146 241.29 93.9125 241.319 93.9125C241.373 93.9209 241.428 93.9314 241.482 93.9439C241.533 93.9607 241.581 93.9816 241.627 94.0068C241.673 94.0361 241.717 94.0675 241.759 94.101C241.78 94.1178 241.799 94.1366 241.815 94.1576C241.855 94.417 241.889 94.6746 241.916 94.9304C241.942 94.9436 241.962 94.9604 241.979 94.9807C242.012 95.0226 242.044 95.0665 242.073 95.1126C242.098 95.1587 242.119 95.2069 242.136 95.2571C242.148 95.3116 242.159 95.3661 242.167 95.4205C242.176 95.4708 242.184 95.5231 242.192 95.5776C243.612 98.9162 245.372 102.064 247.47 105.021C249.016 107.2 251.01 108.892 253.452 110.098C255.128 110.924 256.791 111.759 258.441 112.605C258.475 112.652 258.506 112.698 258.535 112.744C258.56 112.786 258.581 112.83 258.598 112.876C258.623 112.93 258.64 112.985 258.648 113.039C258.657 113.094 258.661 113.15 258.661 113.209C258.644 113.263 258.625 113.316 258.604 113.366C258.596 113.387 258.585 113.408 258.573 113.429C258.728 113.638 258.883 113.845 259.038 114.051C259.482 113.211 260.041 112.424 260.716 111.688C261.156 111.211 261.553 110.702 261.91 110.161C263.271 108.079 264.523 105.937 265.667 103.733C266.308 102.501 266.863 101.232 267.332 99.9257C267.33 99.9305 267.328 99.9347 267.326 99.9382L267.332 99.9194C267.338 99.9046 267.344 99.89 267.351 99.8754C267.729 98.9515 268.094 98.0215 268.444 97.0856C268.729 96.3232 268.968 95.5525 269.161 94.7733C269.178 94.7027 269.198 94.6335 269.223 94.566C268.711 94.1405 268.191 93.7195 267.665 93.303C267.645 93.3072 267.622 93.3093 267.596 93.3093C267.567 93.3093 267.539 93.3072 267.514 93.303C267.485 93.2988 267.458 93.2925 267.433 93.2842C267.407 93.2758 267.382 93.2674 267.357 93.259C267.332 93.2465 267.307 93.2339 267.282 93.2213C267.261 93.2088 267.238 93.1941 267.213 93.1774C267.192 93.1606 267.173 93.1417 267.156 93.1208C267.135 93.104 267.116 93.0852 267.1 93.0642C267.083 93.0391 267.068 93.0161 267.056 92.9951C267.043 92.97 267.03 92.947 267.018 92.926C267.009 92.8967 267.001 92.8695 266.993 92.8443C266.984 92.8192 266.978 92.792 266.974 92.7626V92.7564C265.49 91.6012 263.974 90.4933 262.425 89.4325C261.746 88.9675 261.061 88.5088 260.37 88.0564C257.84 86.3976 255.159 84.9524 252.327 83.7209C252.218 83.6706 252.112 83.6245 252.007 83.5827C251.906 83.5324 251.548 83.4172 250.932 83.2371C248.65 82.571 246.32 82.1563 243.945 81.993C242.944 81.9259 241.943 81.8568 240.942 81.7856C239.652 81.6935 238.485 81.9867 237.442 82.6653C236.613 83.2057 235.974 83.9157 235.526 84.7953C234.1 87.6051 232.218 90.0472 229.877 92.1217C229.87 92.2525 229.864 92.3844 229.858 92.5176C229.469 92.8992 229.083 93.2846 228.702 93.6737ZM247.257 82.4202C247.282 82.4244 247.307 82.4286 247.332 82.4328C247.294 82.4286 247.257 82.4223 247.219 82.414L247.257 82.4202ZM234.338 76.074C234.288 76.2123 234.217 76.3421 234.124 76.4636C233.375 77.4941 232.606 78.5099 231.818 79.511C231.052 80.4787 230.279 81.44 229.5 82.3951C228.704 83.3669 227.839 84.2717 226.905 85.1095C226.197 85.742 225.581 86.4583 225.058 87.2584C224.362 88.3224 223.65 89.378 222.921 90.4252C222.197 91.4767 221.432 92.5008 220.628 93.4978C219.669 94.6875 218.682 95.8499 217.668 96.9851C216.81 97.9485 215.951 98.9099 215.092 99.8691C214.28 100.774 213.368 101.57 212.359 102.257C212.078 102.445 211.802 102.644 211.53 102.854C210.524 103.612 209.563 104.42 208.645 105.279C208.18 105.715 207.699 106.129 207.2 106.523C206.245 107.281 205.269 108.008 204.272 108.704C203.665 109.131 202.984 109.38 202.23 109.451C201.028 109.56 199.874 109.849 198.768 110.318C198.32 110.507 197.888 110.727 197.474 110.978C196.447 111.598 195.398 112.178 194.326 112.719C194.271 112.748 194.221 112.784 194.175 112.825C194.15 112.855 194.127 112.886 194.106 112.92C194.081 112.962 194.058 113.006 194.037 113.052C194.016 113.098 193.995 113.144 193.974 113.19C193.978 113.244 193.982 113.299 193.986 113.353C193.991 113.408 193.997 113.46 194.005 113.51C194.014 113.535 194.02 113.561 194.024 113.586C194.527 114.227 195.207 114.453 196.066 114.264C196.686 114.13 197.312 114.03 197.945 113.963C198.699 113.883 199.386 114.078 200.006 114.547C200.115 114.631 200.238 114.677 200.377 114.685C200.71 114.71 200.934 114.832 201.049 115.05C204.123 113.629 207.311 112.251 210.612 110.915C214.181 109.47 217.063 107.172 219.258 104.022C221.528 100.759 223.891 97.5715 226.346 94.4592C226.914 93.7391 227.509 93.0437 228.13 92.3731C228.131 92.3608 228.131 92.3482 228.13 92.3354C228.13 92.3102 228.13 92.283 228.13 92.2537C230.924 89.5518 233.289 86.5023 235.224 83.1051C235.438 82.7323 235.718 82.4077 236.066 82.1312C237.783 80.7572 239.792 80.2232 242.092 80.5289C243.998 80.7845 245.91 81.0484 247.828 81.3206C251.733 81.8778 255.333 83.2957 258.63 85.5745C258.78 85.6792 258.929 85.7902 259.076 85.9075C259.218 85.9787 259.591 86.1714 260.194 86.4856C262.146 87.4993 263.956 88.7057 265.623 90.1048C266.206 90.5927 266.792 91.0744 267.382 91.55C267.679 90.7802 268.004 90.0136 268.356 89.2503C268.524 88.8858 268.668 88.5088 268.79 88.1192C269.28 86.5526 269.577 84.9503 269.682 83.3125C269.713 82.848 269.837 82.4144 270.053 82.0118C269.568 80.8361 268.886 79.8015 268.004 78.9078C267.544 78.4429 267.051 78.0156 266.528 77.626C265.518 76.8804 264.442 76.2479 263.298 75.7285C262.15 75.2048 261.015 74.6519 259.893 74.0696C258.799 73.5041 257.712 72.9324 256.631 72.3543C256.389 72.2244 256.152 72.0883 255.921 71.9459C254.828 71.2757 253.72 70.6348 252.598 70.0232C252.045 69.7258 251.471 69.4765 250.876 69.2754C249.674 68.8733 248.444 68.5968 247.188 68.446C246.031 68.3036 244.871 68.268 243.707 68.3392C243.698 68.3392 243.692 68.3392 243.688 68.3392C243.797 68.3267 243.732 68.3308 243.493 68.3518C242.027 68.4775 240.732 69.0157 239.61 69.9666C239.111 70.3855 238.613 70.8065 238.114 71.2296C237.235 71.971 236.397 72.8193 235.601 73.7743C235.577 73.8051 235.552 73.8345 235.526 73.8623C235.527 73.8618 235.529 73.8597 235.532 73.856C235.54 73.8476 235.549 73.8372 235.557 73.8246C235.268 74.1597 235.015 74.52 234.797 74.9053C234.661 75.1372 234.531 75.3717 234.407 75.6091C234.432 75.7381 234.409 75.8931 234.338 76.074ZM291.51 22.345C291.293 22.1607 291.05 22.0246 290.782 21.9366C290.485 21.8384 290.183 21.7547 289.877 21.6853C289.547 21.6095 289.212 21.5509 288.871 21.5093C288.708 21.4884 288.549 21.4528 288.394 21.4025C287.397 21.059 286.413 20.6883 285.441 20.2904C285.177 20.1815 284.925 20.0495 284.687 19.8945C284.469 19.7521 284.247 19.6243 284.021 19.5112C283.845 19.7081 283.642 19.8631 283.411 19.9762C283.16 20.1019 282.906 20.2192 282.651 20.3281C282.634 20.3323 282.617 20.3406 282.601 20.3532C282.144 21.124 281.75 21.9261 281.419 22.7597C281.128 23.5059 281.044 24.262 281.168 25.028C281.245 25.0407 281.32 25.0553 281.394 25.072C281.486 25.0917 281.551 25.1398 281.589 25.2165C282.998 25.349 284.355 25.6925 285.661 26.247C286.771 26.7203 287.743 27.378 288.576 28.22C288.802 28.4462 289.003 28.6933 289.179 28.9614C289.883 30.0421 290.534 31.1522 291.133 32.2916C291.452 32.8906 291.569 33.521 291.485 34.1829C291.464 34.3379 291.429 34.4887 291.378 34.6353C291.022 35.6155 290.595 36.5622 290.097 37.4754C289.944 37.8526 289.738 38.0223 289.481 37.9843C289.369 38.1428 289.258 38.2999 289.148 38.4556C288.913 38.7907 288.589 39.0232 288.174 39.153C288.111 39.1614 288.048 39.1677 287.985 39.1719C287.91 39.1761 287.835 39.1782 287.759 39.1782C287.68 39.1782 287.602 39.1782 287.527 39.1782C287.46 39.2075 287.395 39.2368 287.332 39.2661C287.265 39.2954 287.2 39.3227 287.137 39.3478C287.108 39.3562 287.076 39.3666 287.043 39.3792C286.98 39.3834 286.919 39.3876 286.861 39.3918C286.79 39.4002 286.718 39.4064 286.647 39.4106C286.572 39.4148 286.496 39.4211 286.421 39.4295C286.396 39.4337 286.371 39.4379 286.346 39.442C286.249 39.4881 286.155 39.5384 286.063 39.5929C285.975 39.6431 285.887 39.6955 285.799 39.7499C285.77 39.7709 285.74 39.7918 285.711 39.8128C284.592 40.8684 283.619 42.0434 282.789 43.3377C281.847 44.8039 281.66 46.314 282.23 47.868C282.414 48.3707 282.575 48.8859 282.714 49.4137C282.965 51.1438 283.221 52.8759 283.48 54.6101C283.736 56.315 284.004 58.0219 284.285 59.731C284.36 60.1834 284.484 60.6191 284.655 61.038C284.71 61.1971 284.917 61.57 285.277 62.1564C286.061 63.4298 287.062 64.5085 288.281 65.3923C289.408 66.205 290.539 66.9988 291.674 67.7737C291.695 67.824 291.712 67.8743 291.724 67.9245C291.741 67.9874 291.747 68.0523 291.743 68.1193C291.743 68.1863 291.732 68.2513 291.711 68.3141C291.703 68.3434 291.691 68.3727 291.674 68.4021C291.64 68.4481 291.605 68.49 291.567 68.5277C291.525 68.5654 291.481 68.5968 291.435 68.622C291.385 68.6513 291.334 68.6743 291.284 68.6911C291.255 68.6995 291.228 68.7078 291.203 68.7162C291.173 68.7162 291.146 68.7162 291.121 68.7162C291.083 68.7162 291.048 68.712 291.014 68.7037C290.981 68.6995 290.947 68.6911 290.914 68.6785C290.88 68.6618 290.846 68.645 290.813 68.6283C287.835 67.0993 285.527 64.9001 283.889 62.0307C283.29 60.9877 282.919 59.8651 282.777 58.6628C282.416 55.6678 281.987 52.6811 281.488 49.7028C280.399 47.801 280.297 45.8532 281.181 43.8593C282.002 41.9994 283.168 40.3741 284.68 38.9834C285.279 38.4388 285.983 38.1582 286.792 38.1414V38.1351C286.877 38.1009 286.963 38.0611 287.049 38.0157C287.167 37.9571 287.296 37.9278 287.439 37.9278C287.59 37.9236 287.74 37.9215 287.891 37.9215C287.946 37.8963 287.998 37.8712 288.048 37.8461C288.107 37.8168 288.166 37.7853 288.224 37.7518C288.283 37.7183 288.339 37.6827 288.394 37.645C288.624 37.1591 288.882 36.6837 289.167 36.2187C289.181 36.1966 289.193 36.1736 289.204 36.1496C289.214 36.172 289.222 36.1929 289.23 36.2124C289.238 36.2351 289.246 36.2561 289.255 36.2752C289.293 36.2007 289.333 36.1253 289.374 36.049C289.743 35.3579 290.057 34.6416 290.317 33.9001C290.095 32.878 289.678 31.9272 289.066 31.0475C288.559 30.3186 288.036 29.6023 287.495 28.8986C287.303 28.6389 287.066 28.4252 286.785 28.2577C285.629 27.5623 284.402 27.045 283.103 26.7057C282.638 26.5842 282.167 26.5172 281.69 26.5046C281.354 26.4962 281.036 26.4187 280.734 26.2721C280.731 26.2705 280.727 26.2684 280.722 26.2658C280.183 26.3548 279.645 26.4135 279.107 26.4418C277.976 26.5004 276.881 26.7455 275.821 27.1769C275.381 27.3571 274.924 27.489 274.451 27.5728C273.676 27.711 272.949 27.977 272.271 28.3708C271.211 28.9823 270.317 29.7803 269.588 30.7647C269.01 31.5397 268.618 32.4047 268.413 33.3598C268.145 34.5829 268.019 35.8228 268.036 37.0795C268.044 37.7204 268.147 38.3404 268.344 38.9394C268.494 39.4044 268.545 39.8798 268.494 40.3657C268.352 41.6391 268.057 42.8728 267.609 44.0666C267.537 44.2593 267.466 44.4499 267.395 44.6384C268.032 44.651 268.564 44.8709 268.991 45.2981C269.133 45.4406 269.232 45.6102 269.286 45.8071C269.491 46.5527 269.789 47.2606 270.178 47.9309C270.245 48.0482 270.271 48.088 270.254 48.0503C270.287 48.1005 270.363 48.2304 270.48 48.4398C270.61 48.6828 270.74 48.9278 270.87 49.175C270.937 49.2965 270.997 49.4221 271.052 49.552C271.228 49.7195 271.429 49.8557 271.655 49.9604C271.873 50.0567 272.053 50.1992 272.195 50.3877C272.241 50.4505 272.29 50.5133 272.34 50.5762C273.299 50.9741 274.311 51.0788 275.375 50.8903C275.714 50.8275 276.053 50.7668 276.393 50.7081C277.406 50.5196 278.387 50.2327 279.333 49.8473C279.434 49.8054 279.532 49.8201 279.629 49.8913C280.018 50.1971 280.037 50.5238 279.685 50.8715C279.572 50.9804 279.444 51.0684 279.302 51.1354C278.582 51.4719 277.841 51.7232 277.078 51.8894C277.074 51.9112 277.07 51.9321 277.065 51.9522C276.768 53.1963 276.742 54.4404 276.99 55.6845C277.094 56.1914 277.124 56.6962 277.078 57.1988C277.069 57.3371 277 57.4376 276.87 57.5004C276.654 57.6087 276.467 57.6338 276.311 57.5758C275.345 58.3336 274.467 59.1902 273.678 60.1457C273.389 60.4976 273.138 60.8788 272.924 61.2893C272.392 62.3072 272.185 63.3712 272.302 64.4812C272.394 65.3567 272.419 66.2322 272.378 67.1077C272.373 67.2208 272.323 67.3088 272.227 67.3716C272.154 67.4187 272.083 67.4543 272.013 67.4784C271.966 68.5405 271.915 69.6003 271.862 70.6578C271.804 71.9228 271.829 73.1858 271.938 74.4466C272.047 75.7159 272.304 76.9558 272.711 78.1664C272.866 78.6272 273.056 79.0733 273.282 79.5048C273.354 79.6406 273.406 79.781 273.439 79.9257C273.535 79.9963 273.631 80.0654 273.729 80.1331L273.483 81.4652C273.388 81.4026 273.294 81.3356 273.201 81.2641C273.149 81.5176 273.076 81.7668 272.981 82.0118C272.782 82.519 272.7 83.0321 272.736 83.5512C272.757 83.5784 272.778 83.6056 272.799 83.6329C272.933 83.813 272.964 84.0099 272.893 84.2236C272.884 84.2487 272.873 84.2718 272.861 84.2927C272.902 84.4777 272.936 84.662 272.962 84.8456C272.944 84.9435 272.933 85.0357 272.931 85.1221C272.922 85.3575 272.96 85.5628 273.044 85.7379C273.06 86.3441 273.004 86.9515 272.874 87.56C272.84 87.7192 272.826 87.8805 272.83 88.0438C272.859 89.2209 272.589 90.3331 272.019 91.3803C271.802 91.7787 271.59 92.1808 271.385 92.5867C273.1 94.1442 274.933 95.5643 276.883 96.8468C277.524 97.2657 278.186 97.6532 278.868 98.0093C281.026 99.1361 283.225 100.175 285.466 101.126C287.213 101.867 288.953 102.619 290.687 103.382C290.752 103.396 290.814 103.41 290.876 103.426C292.901 100.885 294.524 98.097 295.745 95.0624C297.186 91.4767 298.42 87.8302 299.446 84.123C299.931 82.3768 300.264 80.6133 300.445 78.8324C300.341 78.8031 300.251 78.7508 300.175 78.6754C300.087 78.5874 300.033 78.4806 300.012 78.3549C299.999 78.2921 299.993 78.2271 299.993 78.1601C299.997 78.1266 300.003 78.0952 300.012 78.0659C300.02 78.0365 300.031 78.0093 300.043 77.9842C300.052 77.959 300.062 77.936 300.075 77.9151C300.091 77.8899 300.106 77.8669 300.119 77.846C302.414 75.2823 303.677 72.1888 303.907 68.5654C304.016 66.8522 303.899 65.1473 303.556 63.4508C303.192 61.6558 302.945 59.8587 302.814 58.0596C302.709 57.751 302.64 57.4264 302.607 57.0857C302.573 56.7674 302.517 56.4532 302.437 56.1432C302.161 55.0709 301.914 53.9943 301.696 52.9136C301.599 52.4486 301.558 51.9795 301.57 51.5061C301.598 50.5872 301.556 49.6719 301.444 48.7603C301.447 48.767 301.45 48.7733 301.451 48.7791C301.434 47.4764 301.22 46.2113 300.81 44.984C300.485 44.0062 300.263 43.0071 300.144 41.9868C300.097 41.9479 300.055 41.9018 300.018 41.8486C299.93 41.7229 299.897 41.5847 299.918 41.4339C299.93 41.3543 299.945 41.2747 299.962 41.1951C299.932 41.0401 299.915 40.883 299.911 40.7239C299.903 40.5689 299.899 40.4139 299.899 40.2589C299.186 39.3825 298.49 38.4903 297.813 37.5822C297.805 37.7842 297.784 37.9873 297.75 38.1917C297.637 38.8661 297.601 39.5405 297.643 40.2149C297.689 40.8977 297.605 41.5658 297.392 42.2193C297.164 42.9238 296.854 43.5898 296.462 44.2174C296.46 44.2215 296.458 44.2236 296.455 44.2237C296.456 44.2292 296.456 44.2333 296.455 44.2363C296.452 44.245 296.448 44.2513 296.443 44.2551C296.422 44.3073 296.401 44.3597 296.38 44.4122C296.355 44.4708 296.33 44.5316 296.305 44.5944C296.472 45.3149 296.682 46.0249 296.933 46.7245C296.975 46.8459 296.998 46.9737 297.002 47.1077C297.04 47.8324 296.918 48.5215 296.638 49.175C296.541 49.4012 296.395 49.5897 296.198 49.7405C295.9 49.9667 295.597 50.1824 295.287 50.3877C295.232 50.4254 295.174 50.4547 295.111 50.4756C295.098 50.4798 295.088 50.484 295.079 50.4882C295.063 50.505 295.052 50.5238 295.048 50.5447C295.044 50.5573 295.04 50.572 295.035 50.5887C295.035 50.6055 295.035 50.6222 295.035 50.639C295.035 50.6558 295.04 50.6704 295.048 50.683C295.056 50.6997 295.067 50.7144 295.079 50.727C295.988 51.3804 296.914 52.0088 297.857 52.612C298.745 53.1775 299.629 53.7451 300.508 54.3148C300.78 54.4907 301.013 54.7001 301.206 54.9431C301.218 54.9724 301.229 55.0018 301.237 55.0311C301.25 55.0604 301.26 55.0918 301.268 55.1253C301.273 55.1421 301.277 55.1588 301.281 55.1756C301.289 55.3725 301.227 55.5421 301.093 55.6845C300.984 55.7893 300.854 55.8479 300.703 55.8605C300.573 55.873 300.45 55.8458 300.332 55.7788C299.298 55.0499 298.246 54.3462 297.178 53.6676C296.168 53.0309 295.195 52.346 294.256 51.6129C293.888 51.3239 293.728 50.9427 293.779 50.4693C293.85 49.8494 294.179 49.4473 294.765 49.2629C294.895 49.1373 295.025 49.0158 295.155 48.8985C295.251 48.8105 295.352 48.731 295.456 48.6597C295.502 48.6304 295.549 48.6011 295.595 48.5718C295.674 48.354 295.714 48.1277 295.714 47.8932C295.71 47.6544 295.712 47.4135 295.72 47.1706C295.724 47.0575 295.729 46.9444 295.733 46.8313C295.532 46.4543 295.373 46.0584 295.255 45.6437C295.134 45.2165 295.079 44.7934 295.092 44.3745C295.096 44.2781 295.117 44.1839 295.155 44.0917C295.192 44.0121 295.228 43.9326 295.262 43.853C295.257 43.8697 295.251 43.8865 295.243 43.9032C295.241 43.9085 295.239 43.9127 295.236 43.9158C295.5 43.3865 295.747 42.8482 295.978 42.301C296.212 41.7439 296.363 41.1658 296.43 40.5668C296.448 40.4181 296.453 40.2694 296.443 40.1207C296.426 39.1446 296.449 38.1623 296.512 37.1738C296.558 36.4742 296.382 35.8375 295.984 35.2636C295.958 35.2242 295.943 35.1824 295.94 35.1379C295.619 34.7756 295.284 34.4237 294.935 34.0823C294.495 33.6509 294.141 33.1524 293.873 32.5869C293.664 32.1429 293.442 31.7093 293.207 31.2862C293.094 31.0768 293.004 30.8569 292.937 30.6265C292.761 30.0107 292.731 29.3929 292.849 28.7729C292.933 28.3121 292.989 27.8472 293.018 27.378C293.066 26.6535 293.048 25.9309 292.962 25.2102C292.861 24.0373 292.378 23.0823 291.51 22.345Z" fill="white"/>
</g>
<path d="M26.6732 3.29633L26.6989 1.2965L26.6732 3.29633ZM72.1132 3.05106L71.5728 4.97667L72.1132 3.05106ZM128.913 3.43089L129.328 5.38747L128.913 3.43089ZM174.353 2.98403L174.207 4.97867L174.353 2.98403ZM185.713 3.81248L185.569 5.80724L185.713 3.81248ZM287.953 3.81334L287.631 1.83947L287.953 3.81334ZM310.673 3.6981L310.926 5.68207L310.673 3.6981ZM322.101 2.41447L322.295 4.40504L322.101 2.41447ZM333.019 4.67823L332.061 6.43353L333.019 4.67823ZM342.591 23.2244L344.588 23.1054L342.591 23.2244ZM344.231 34.4277L342.282 34.8773L344.231 34.4277ZM343.82 57.1477L341.86 56.752L343.82 57.1477ZM344.164 79.8677L342.184 80.1552L344.164 79.8677ZM344.365 113.948L346.363 114.049L344.365 113.948ZM330.371 141.755L329.766 139.849L330.371 141.755ZM319.104 143.644L319.064 141.644L319.104 143.644ZM307.744 142.517L307.317 144.471L307.744 142.517ZM285.024 142.436L284.968 140.436L285.024 142.436ZM273.664 141.713L273.971 139.737L273.664 141.713ZM262.304 141.634L262.584 143.614L262.304 141.634ZM250.944 141.927L251.123 139.935L250.944 141.927ZM239.584 141.833L239.438 139.839L239.584 141.833ZM216.864 142.216L216.234 144.114L216.864 142.216ZM205.504 142.211L206.133 144.109L205.504 142.211ZM194.144 142.781L193.694 144.73L194.144 142.781ZM182.784 142.157L183.024 144.142L182.784 142.157ZM171.424 142.436L171.281 144.431L171.424 142.436ZM148.704 141.454L148.648 143.454L148.704 141.454ZM137.344 142.715L136.859 140.775L137.344 142.715ZM103.264 142.14L103.21 144.139L103.264 142.14ZM91.9041 141.812L91.9651 139.813L91.9041 141.812ZM23.8403 140.633L23.9285 142.631L23.8403 140.633ZM13.804 138.275L12.7942 140.001L13.804 138.275ZM5.38574 131.384L6.85382 130.026L5.38574 131.384ZM17.0103 5.31452L16.4284 3.40103L17.0103 5.31452ZM26.6732 3.29633L26.6474 5.29616C30.5102 5.34594 34.3725 5.17573 38.2341 4.78568L38.0332 2.79581L37.8322 0.805933C34.1205 1.18083 30.4095 1.34431 26.6989 1.2965L26.6732 3.29633ZM38.0332 2.79581L38.2341 4.78568C41.8248 4.42301 45.4162 4.58729 49.0145 5.28105L49.3932 3.31722L49.7718 1.35339C45.7968 0.586993 41.8149 0.403661 37.8322 0.805933L38.0332 2.79581ZM49.3932 3.31722L49.0145 5.28105C53.0981 6.06837 57.1861 5.92923 61.2567 4.87029L60.7532 2.93471L60.2496 0.999137C56.7469 1.91036 53.2616 2.02623 49.7718 1.35339L49.3932 3.31722ZM60.7532 2.93471L61.2567 4.87029C64.6988 3.97485 68.1252 4.00919 71.5728 4.97667L72.1132 3.05106L72.6535 1.12545C68.5278 -0.0323596 64.3809 -0.0755866 60.2496 0.999137L60.7532 2.93471ZM72.1132 3.05106L71.5728 4.97667C75.5081 6.08105 79.454 6.70101 83.4071 6.83164L83.4732 4.83273L83.5392 2.83382C79.919 2.71419 76.2915 2.14637 72.6535 1.12545L72.1132 3.05106ZM83.4732 4.83273L83.4071 6.83164C87.3684 6.96254 91.3255 6.57966 95.2743 5.68662L94.8332 3.73588L94.392 1.78514C90.7675 2.60482 87.1513 2.95318 83.5392 2.83382L83.4732 4.83273ZM94.8332 3.73588L95.2743 5.68662C98.8987 4.86696 102.515 4.51889 106.127 4.63879L106.193 2.63989L106.26 0.640992C102.298 0.509493 98.341 0.892082 94.392 1.78514L94.8332 3.73588ZM106.193 2.63989L106.127 4.63879C109.83 4.7617 113.533 5.11749 117.239 5.70656L117.553 3.73136L117.867 1.75616C113.999 1.14134 110.13 0.769478 106.26 0.640992L106.193 2.63989ZM117.553 3.73136L117.239 5.70656C121.27 6.34733 125.304 6.24 129.328 5.38747L128.913 3.43089L128.499 1.47432C124.949 2.2263 121.41 2.31927 117.867 1.75616L117.553 3.73136ZM128.913 3.43089L129.328 5.38747C133.002 4.60903 136.672 4.16062 140.339 4.04073L140.273 2.0418L140.208 0.0428684C136.301 0.170598 132.398 0.648249 128.499 1.47432L128.913 3.43089ZM140.273 2.0418L140.339 4.04073C144.029 3.92008 147.719 4.06635 151.411 4.47979L151.633 2.49222L151.856 0.504644C147.974 0.0699129 144.091 -0.0841012 140.208 0.0428684L140.273 2.0418ZM151.633 2.49222L151.411 4.47979C155.303 4.91576 159.197 5.03774 163.092 4.84545L162.993 2.84788L162.895 0.850316C159.216 1.03197 155.536 0.916848 151.856 0.504644L151.633 2.49222ZM162.993 2.84788L163.092 4.84545C166.797 4.66251 170.502 4.7069 174.207 4.97867L174.353 2.98403L174.499 0.989387C170.631 0.705676 166.763 0.659302 162.895 0.850316L162.993 2.84788ZM174.353 2.98403L174.207 4.97867C177.994 5.25645 181.781 5.53264 185.569 5.80724L185.713 3.81248L185.858 1.81771C182.072 1.5432 178.286 1.26709 174.499 0.989387L174.353 2.98403ZM185.713 3.81248L185.569 5.80724C189.353 6.08167 193.138 6.3612 196.923 6.64582L197.073 4.65145L197.223 2.65708C193.435 2.37219 189.646 2.0924 185.858 1.81771L185.713 3.81248ZM197.073 4.65145L196.923 6.64582C200.766 6.93477 204.608 7.06185 208.451 7.02702L208.433 5.0271L208.415 3.02719C204.685 3.06099 200.954 2.93764 197.223 2.65708L197.073 4.65145ZM208.433 5.0271L208.451 7.02702C212.35 6.99169 216.248 6.62904 220.142 5.94005L219.793 3.97064L219.445 2.00123C215.765 2.65222 212.089 2.99389 208.415 3.02719L208.433 5.0271ZM219.793 3.97064L220.142 5.94005C223.691 5.31212 227.234 5.33063 230.785 5.99614L231.153 4.03038L231.522 2.06462C227.499 1.3105 223.469 1.28918 219.445 2.00123L219.793 3.97064ZM231.153 4.03038L230.785 5.99614C234.732 6.73602 238.684 6.98234 242.639 6.73298L242.513 4.73694L242.387 2.74091C238.769 2.96909 235.148 2.74437 231.522 2.06462L231.153 4.03038ZM242.513 4.73694L242.639 6.73298C246.483 6.4906 250.326 6.08267 254.168 5.50934L253.873 3.53124L253.578 1.55314C249.847 2.10987 246.117 2.50574 242.387 2.74091L242.513 4.73694ZM253.873 3.53124L254.168 5.50934C257.884 4.95484 261.599 4.6036 265.313 4.45533L265.233 2.45692L265.153 0.458515C261.294 0.6126 257.435 0.977564 253.578 1.55314L253.873 3.53124ZM265.233 2.45692L265.313 4.45533C268.924 4.31117 272.539 4.63767 276.162 5.43829L276.593 3.48541L277.025 1.53253C273.074 0.659483 269.116 0.300324 265.153 0.458515L265.233 2.45692ZM276.593 3.48541L276.162 5.43829C280.193 6.32925 284.236 6.44674 288.275 5.78721L287.953 3.81334L287.631 1.83947C284.097 2.41637 280.566 2.31523 277.025 1.53253L276.593 3.48541ZM287.953 3.81334L288.275 5.78721C291.868 5.20074 295.455 5.15057 299.045 5.63586L299.313 3.65388L299.581 1.67191C295.598 1.1334 291.612 1.18952 287.631 1.83947L287.953 3.81334ZM299.313 3.65388L299.045 5.63586C303.004 6.17109 306.966 6.18654 310.926 5.68207L310.673 3.6981L310.42 1.71414C306.807 2.17451 303.195 2.16049 299.581 1.67191L299.313 3.65388ZM310.673 3.6981L310.926 5.68207C314.693 5.20215 318.482 4.77648 322.295 4.40504L322.101 2.41447L321.907 0.423895C318.056 0.799121 314.227 1.2292 310.42 1.71414L310.673 3.6981ZM322.101 2.41447L322.295 4.40504C325.719 4.07142 328.958 4.73909 332.061 6.43353L333.019 4.67823L333.978 2.92294C330.186 0.85237 326.146 0.0108571 321.907 0.423895L322.101 2.41447ZM333.019 4.67823L332.061 6.43353C335.131 8.1105 337.197 10.4084 338.368 13.3432L340.226 12.6016L342.083 11.8599C340.54 7.99532 337.801 5.01098 333.978 2.92294L333.019 4.67823ZM340.226 12.6016L338.368 13.3432C339.646 16.5427 340.388 19.8733 340.595 23.3435L342.591 23.2244L344.588 23.1054C344.356 19.2112 343.521 15.46 342.083 11.8599L340.226 12.6016ZM342.591 23.2244L340.595 23.3435C340.822 27.1427 341.385 30.9877 342.282 34.8773L344.231 34.4277L346.18 33.9781C345.33 30.2943 344.801 26.6705 344.588 23.1054L342.591 23.2244ZM344.231 34.4277L342.282 34.8773C343.115 38.488 343.439 42.0894 343.257 45.6866L345.254 45.7877L347.251 45.8888C347.453 41.9126 347.094 37.9406 346.18 33.9781L344.231 34.4277ZM345.254 45.7877L343.257 45.6866C343.07 49.3724 342.605 53.0607 341.86 56.752L343.82 57.1477L345.781 57.5433C346.564 53.6614 347.055 49.7762 347.251 45.8888L345.254 45.7877ZM343.82 57.1477L341.86 56.752C341.062 60.7041 340.778 64.663 341.01 68.6245L343.006 68.5077L345.003 68.3909C344.792 64.779 345.05 61.1646 345.781 57.5433L343.82 57.1477ZM343.006 68.5077L341.01 68.6245C341.234 72.4688 341.626 76.3124 342.184 80.1552L344.164 79.8677L346.143 79.5801C345.601 75.8496 345.221 72.1199 345.003 68.3909L343.006 68.5077ZM344.164 79.8677L342.184 80.1552C342.713 83.7931 342.826 87.428 342.526 91.0627L344.519 91.2277L346.512 91.3927C346.838 87.454 346.715 83.5155 346.143 79.5801L344.164 79.8677ZM344.519 91.2277L342.526 91.0627C342.205 94.9393 342.147 98.8166 342.353 102.694L344.35 102.588L346.348 102.482C346.151 98.7854 346.206 95.0893 346.512 91.3927L344.519 91.2277ZM344.35 102.588L342.353 102.694C342.551 106.412 342.556 110.129 342.368 113.847L344.365 113.948L346.363 114.049C346.558 110.193 346.553 106.337 346.348 102.482L344.35 102.588ZM344.365 113.948L342.368 113.847C342.176 117.65 342.029 121.496 341.929 125.383L343.928 125.434L345.928 125.486C346.027 121.631 346.172 117.818 346.363 114.049L344.365 113.948ZM343.928 125.434L341.929 125.383C341.842 128.775 340.672 131.714 338.378 134.277L339.869 135.611L341.359 136.944C344.279 133.681 345.816 129.836 345.928 125.486L343.928 125.434ZM339.869 135.611L338.378 134.277C336.01 136.924 333.15 138.774 329.766 139.849L330.371 141.755L330.977 143.661C335.043 142.37 338.514 140.124 341.359 136.944L339.869 135.611ZM330.371 141.755L329.766 139.849C326.218 140.976 322.653 141.573 319.064 141.644L319.104 143.644L319.144 145.644C323.129 145.564 327.075 144.901 330.977 143.661L330.371 141.755ZM319.104 143.644L319.064 141.644C315.438 141.717 311.808 141.358 308.171 140.563L307.744 142.517L307.317 144.471C311.254 145.331 315.197 145.723 319.144 145.644L319.104 143.644ZM307.744 142.517L308.171 140.563C304.19 139.694 300.201 139.433 296.209 139.784L296.384 141.777L296.559 143.769C300.141 143.454 303.724 143.687 307.317 144.471L307.744 142.517ZM296.384 141.777L296.209 139.784C292.462 140.114 288.715 140.331 284.968 140.436L285.024 142.436L285.08 144.435C288.907 144.328 292.733 144.106 296.559 143.769L296.384 141.777ZM285.024 142.436L284.968 140.436C281.304 140.539 277.639 140.306 273.971 139.737L273.664 141.713L273.357 143.689C277.263 144.296 281.171 144.544 285.08 144.435L285.024 142.436ZM273.664 141.713L273.971 139.737C269.99 139.119 266.006 139.091 262.024 139.654L262.304 141.634L262.584 143.614C266.176 143.107 269.765 143.132 273.357 143.689L273.664 141.713ZM262.304 141.634L262.024 139.654C258.389 140.167 254.756 140.261 251.123 139.935L250.944 141.927L250.765 143.919C254.706 144.272 258.646 144.171 262.584 143.614L262.304 141.634ZM250.944 141.927L251.123 139.935C247.228 139.586 243.333 139.554 239.438 139.839L239.584 141.833L239.73 143.828C243.408 143.559 247.087 143.589 250.765 143.919L250.944 141.927ZM239.584 141.833L239.438 139.839C235.592 140.12 231.746 140.574 227.902 141.202L228.224 143.176L228.546 145.15C232.275 144.541 236.003 144.1 239.73 143.828L239.584 141.833ZM228.224 143.176L227.902 141.202C224.447 141.766 220.987 141.478 217.495 140.318L216.864 142.216L216.234 144.114C220.314 145.47 224.428 145.822 228.546 145.15L228.224 143.176ZM216.864 142.216L217.495 140.318C213.299 138.924 209.071 138.922 204.875 140.312L205.504 142.211L206.133 144.109C209.511 142.99 212.856 142.992 216.234 144.114L216.864 142.216ZM205.504 142.211L204.875 140.312C201.427 141.455 198.013 141.622 194.594 140.833L194.144 142.781L193.694 144.73C197.848 145.689 202.008 145.476 206.133 144.109L205.504 142.211ZM194.144 142.781L194.594 140.833C190.586 139.907 186.565 139.685 182.544 140.171L182.784 142.157L183.024 144.142C186.576 143.713 190.129 143.907 193.694 144.73L194.144 142.781ZM182.784 142.157L182.544 140.171C178.884 140.614 175.226 140.704 171.567 140.441L171.424 142.436L171.281 144.431C175.196 144.712 179.111 144.616 183.024 144.142L182.784 142.157ZM171.424 142.436L171.567 140.441C167.757 140.168 163.947 139.962 160.137 139.822L160.064 141.821L159.991 143.82C163.754 143.957 167.518 144.161 171.281 144.431L171.424 142.436ZM160.064 141.821L160.137 139.822C156.345 139.684 152.552 139.561 148.76 139.455L148.704 141.454L148.648 143.454C152.429 143.559 156.21 143.681 159.991 143.82L160.064 141.821ZM148.704 141.454L148.76 139.455C144.786 139.344 140.817 139.786 136.859 140.775L137.344 142.715L137.829 144.656C141.444 143.752 145.049 143.353 148.648 143.454L148.704 141.454ZM137.344 142.715L136.859 140.775C133.385 141.644 129.925 141.659 126.453 140.823L125.984 142.767L125.516 144.711C129.617 145.699 133.73 145.68 137.829 144.656L137.344 142.715ZM125.984 142.767L126.453 140.823C122.466 139.862 118.469 139.537 114.467 139.853L114.624 141.847L114.781 143.84C118.353 143.559 121.928 143.847 125.516 144.711L125.984 142.767ZM114.624 141.847L114.467 139.853C110.75 140.146 107.034 140.242 103.318 140.141L103.264 142.14L103.21 144.139C107.067 144.244 110.925 144.145 114.781 143.84L114.624 141.847ZM103.264 142.14L103.318 140.141C99.534 140.038 95.7495 139.929 91.9651 139.813L91.9041 141.812L91.8431 143.812C95.632 143.927 99.4209 144.036 103.21 144.139L103.264 142.14ZM91.9041 141.812L91.9651 139.813C88.0834 139.695 84.2021 139.853 80.3221 140.286L80.5441 142.274L80.7662 144.261C84.4594 143.849 88.1515 143.699 91.8431 143.812L91.9041 141.812ZM80.5441 142.274L80.3221 140.286C76.69 140.692 73.0592 140.673 69.4266 140.229L69.1841 142.215L68.9416 144.2C72.8823 144.681 76.8249 144.702 80.7662 144.261L80.5441 142.274ZM69.1841 142.215L69.4266 140.229C65.4415 139.742 61.4555 139.853 57.4752 140.558L57.8241 142.527L58.173 144.496C61.766 143.86 65.3534 143.761 68.9416 144.2L69.1841 142.215ZM57.8241 142.527L57.4752 140.558C53.9418 141.184 50.4131 141.127 46.8751 140.384L46.4641 142.341L46.0531 144.298C50.0884 145.146 54.1331 145.212 58.173 144.496L57.8241 142.527ZM46.4641 142.341L46.8751 140.384C42.9988 139.57 39.1196 139.032 35.2379 138.772L35.1041 140.767L34.9703 142.763C38.662 143.01 42.3561 143.522 46.0531 144.298L46.4641 142.341ZM35.1041 140.767L35.2379 138.772C31.3787 138.513 27.55 138.467 23.7522 138.635L23.8403 140.633L23.9285 142.631C27.5757 142.47 31.2561 142.514 34.9703 142.763L35.1041 140.767ZM23.8403 140.633L23.7522 138.635C20.3807 138.784 17.4221 138.074 14.8137 136.549L13.804 138.275L12.7942 140.001C16.1226 141.948 19.855 142.811 23.9285 142.631L23.8403 140.633ZM13.804 138.275L14.8137 136.549C12.0361 134.924 9.38111 132.758 6.85382 130.026L5.38574 131.384L3.91766 132.743C6.67783 135.726 9.63497 138.154 12.7942 140.001L13.804 138.275ZM5.38574 131.384L6.85382 130.026C4.69466 127.692 4.04866 125.046 4.9239 121.817L2.99357 121.294L1.06324 120.77C-0.159428 125.281 0.789353 129.361 3.91766 132.743L5.38574 131.384ZM2.99357 121.294L4.9239 121.817C6.06326 117.614 6.08266 113.426 4.96916 109.29L3.03791 109.81L1.10667 110.329C2.03194 113.767 2.02178 117.235 1.06324 120.77L2.99357 121.294ZM3.03791 109.81L4.96916 109.29C4.02897 105.797 3.91385 102.324 4.61635 98.8455L2.65593 98.4495L0.695504 98.0536C-0.131454 102.148 0.00807762 106.249 1.10667 110.329L3.03791 109.81ZM2.65593 98.4495L4.61635 98.8455C5.43503 94.7916 5.41758 90.7301 4.56464 86.6776L2.60752 87.0895L0.650399 87.5015C1.39146 91.0223 1.40628 94.5341 0.695504 98.0536L2.65593 98.4495ZM2.60752 87.0895L4.56464 86.6776C3.82383 83.1579 3.81206 79.6473 4.5288 76.1288L2.56905 75.7295L0.609298 75.3303C-0.216669 79.3851 -0.202796 83.4478 0.650399 87.5015L2.60752 87.0895ZM2.56905 75.7295L4.5288 76.1288C5.334 72.1759 5.62311 68.2162 5.3933 64.2537L3.39665 64.3695L1.40001 64.4854C1.60943 68.0962 1.34681 71.7098 0.609298 75.3303L2.56905 75.7295ZM3.39665 64.3695L5.3933 64.2537C5.17973 60.5714 5.25447 56.8891 5.6177 53.2058L3.62736 53.0095L1.63701 52.8133C1.25339 56.7033 1.17433 60.5943 1.40001 64.4854L3.39665 64.3695ZM3.62736 53.0095L5.6177 53.2058C5.99497 49.3802 6.25895 45.5543 6.40961 41.7282L4.41116 41.6496L2.41271 41.5709C2.26515 45.3181 2.0066 49.0656 1.63701 52.8133L3.62736 53.0095ZM4.41116 41.6496L6.40961 41.7282C6.56154 37.87 6.5062 34.0117 6.24363 30.1537L4.24825 30.2896L2.25287 30.4254C2.50573 34.1407 2.559 37.8558 2.41271 41.5709L4.41116 41.6496ZM4.24825 30.2896L6.24363 30.1537C5.98934 26.4174 5.87554 22.6615 5.90231 18.886L3.90236 18.8718L1.90241 18.8576C1.87493 22.7324 1.99172 26.5884 2.25287 30.4254L4.24825 30.2896ZM3.90236 18.8718L5.90231 18.886C5.92506 15.6794 7.15991 13.2671 9.66176 11.4471L8.48524 9.82981L7.30871 8.21247C3.75432 10.7981 1.93393 14.4138 1.90241 18.8576L3.90236 18.8718ZM8.48524 9.82981L9.66176 11.4471C12.5684 9.33276 15.2102 7.95231 17.5921 7.22802L17.0103 5.31452L16.4284 3.40103C13.4999 4.29153 10.4584 5.92128 7.30871 8.21247L8.48524 9.82981ZM17.0103 5.31452L17.5921 7.22802C18.9361 6.81933 20.0071 6.45724 20.7634 6.14368C21.1301 5.99167 21.5047 5.81802 21.8171 5.61945C21.968 5.5235 22.1902 5.36861 22.397 5.14579C22.5687 4.96077 22.9932 4.44855 22.9932 3.66329H20.9932H18.9932C18.9932 2.95138 19.3762 2.52055 19.4649 2.42495C19.5335 2.35104 19.591 2.30354 19.6202 2.28069C19.6512 2.25644 19.6704 2.24429 19.6714 2.24364C19.6732 2.24247 19.6651 2.24771 19.6442 2.25916C19.6236 2.2704 19.5945 2.28557 19.5556 2.30459C19.4766 2.34313 19.3701 2.39117 19.2315 2.44865C18.6602 2.6855 17.7397 3.00231 16.4284 3.40103L17.0103 5.31452ZM20.9932 3.66329H22.9932C22.9932 4.82832 22.0678 5.30229 22.0179 5.32875C21.8373 5.42435 21.7174 5.44186 21.7771 5.42876C21.8612 5.4103 22.0935 5.3763 22.5421 5.34732C23.4087 5.29133 24.7656 5.27192 26.6474 5.29616L26.6732 3.29633L26.6989 1.2965C24.7941 1.27195 23.311 1.2893 22.2842 1.35564C21.7862 1.38781 21.3085 1.43636 20.9192 1.52184C20.7422 1.5607 20.4448 1.63553 20.146 1.79379C19.9777 1.88292 18.9932 2.4249 18.9932 3.66329H20.9932Z" fill="black"/>
<defs>
<clipPath id="clip0_1584_2895">
<path d="M2.99316 21.2231C2.99316 11.282 11.052 3.22314 20.9932 3.22314H325.993C335.934 3.22314 343.993 11.282 343.993 21.2231V124.223C343.993 134.164 335.934 142.223 325.993 142.223H20.9932C11.052 142.223 2.99316 134.164 2.99316 124.223V21.2231Z" fill="white"/>
</clipPath>
</defs>
</svg>
