<svg width="269" height="54" viewBox="0 0 269 54" fill="none" xmlns="http://www.w3.org/2000/svg">
<path d="M3.05029 17.2736C3.05029 9.44336 9.39795 3.0957 17.2282 3.0957H251.872C259.703 3.0957 266.05 9.44336 266.05 17.2736V36.4138C266.05 44.244 259.703 50.5917 251.872 50.5917H17.2282C9.39795 50.5917 3.05029 44.244 3.05029 36.4138V17.2736Z" fill="#EEEEEE"/>
<path d="M26.8302 2.18494L26.5493 0.0768871L26.8302 2.18494ZM29.5736 2.39203L28.9922 4.43769L29.5736 2.39203ZM35.0604 3.54775L35.0389 1.42118L35.0604 3.54775ZM43.2907 3.69054L43.1955 5.81509L43.2907 3.69054ZM47.4058 3.40397L47.1382 1.2942L47.4058 3.40397ZM51.521 3.1113L51.4352 5.23625L51.521 3.1113ZM54.2644 3.22206L54.3502 1.09711L54.2644 3.22206ZM67.9815 3.78899L68.1609 5.90809L67.9815 3.78899ZM69.3532 3.67287L69.1738 1.55376L69.3532 3.67287ZM76.2118 3.90877L75.9714 6.02183L76.2118 3.90877ZM78.9552 3.83366L79.3086 5.93078L78.9552 3.83366ZM81.6986 3.37134L81.3452 1.27423L81.6986 3.37134ZM84.4421 2.8916L84.0628 0.799002L84.4421 2.8916ZM87.1855 2.39443L86.8063 0.301833L87.1855 2.39443ZM89.9289 2.59846L89.2625 4.61805L89.9289 2.59846ZM92.6723 3.50369L93.3387 1.4841L92.6723 3.50369ZM95.4157 3.51585L94.7656 1.49099L95.4157 3.51585ZM98.1592 2.63496L97.509 0.610099L98.1592 2.63496ZM100.903 2.33673L100.683 4.45208L100.903 2.33673ZM103.646 2.62116L103.427 4.73651L103.646 2.62116ZM106.389 2.69468L106.283 0.570661L106.389 2.69468ZM109.133 2.5573L109.027 0.433282L109.133 2.5573ZM117.363 2.76072L116.785 4.80741L117.363 2.76072ZM120.107 3.53519L120.684 1.4885L120.107 3.53519ZM122.85 3.61662L122.387 1.54089L122.85 3.61662ZM125.593 3.005L125.131 0.929272L125.593 3.005ZM128.337 2.9653L128.742 0.877542L128.337 2.9653ZM133.824 3.61789L133.599 1.50311L133.824 3.61789ZM136.567 3.32637L136.792 5.44115L136.567 3.32637ZM140.682 2.85324L140.43 0.741536L140.682 2.85324ZM142.054 2.68955L142.306 4.80126L142.054 2.68955ZM144.797 2.78321L145.19 0.692986L144.797 2.78321ZM155.771 3.37747L155.969 5.49495L155.771 3.37747ZM158.514 3.12134L158.317 1.00387L158.514 3.12134ZM161.258 3.01347L161.227 5.13992L161.258 3.01347ZM166.745 3.29812L166.402 5.39699L166.745 3.29812ZM169.488 3.74629L169.831 1.64743L169.488 3.74629ZM172.232 3.64977L171.748 1.5789L172.232 3.64977ZM174.975 3.00855L175.459 5.07942L174.975 3.00855ZM177.718 2.55287L177.51 0.436418L177.718 2.55287ZM180.462 2.28273L180.67 4.39917L180.462 2.28273ZM183.205 2.23708L183.067 4.35926L183.205 2.23708ZM185.949 2.41594L186.087 0.293764L185.949 2.41594ZM188.692 2.8898L189.266 0.842011L188.692 2.8898ZM191.436 3.65865L190.862 5.70643L191.436 3.65865ZM194.179 3.92236L193.993 1.80386L194.179 3.92236ZM196.922 3.68093L197.109 5.79942L196.922 3.68093ZM199.666 3.31878L199.297 1.22429L199.666 3.31878ZM202.409 2.8359L202.778 4.93039L202.409 2.8359ZM205.153 2.72948L204.944 4.84594L205.153 2.72948ZM207.896 2.99951L208.104 0.883054L207.896 2.99951ZM210.64 2.88464L210.258 0.792387L210.64 2.88464ZM213.383 2.38486L213.764 4.47711L213.383 2.38486ZM216.126 2.51312L215.561 4.56332L216.126 2.51312ZM218.87 3.26941L219.435 1.21921L218.87 3.26941ZM221.613 3.28031L222.163 5.33464L221.613 3.28031ZM224.357 2.5458L223.807 0.491466L224.357 2.5458ZM227.1 2.45491L226.68 4.5397L227.1 2.45491ZM229.843 3.00766L230.264 0.922869L229.843 3.00766ZM232.587 3.40769L232.396 5.52578L232.587 3.40769ZM235.33 3.65499L235.521 1.5369L235.33 3.65499ZM238.074 3.67177L237.909 1.55151L238.074 3.67177ZM243.561 3.3657L243.538 5.49227L243.561 3.3657ZM249.066 3.13784L249.474 5.22508V5.22508L249.066 3.13784ZM250.456 2.86628L250.864 4.95352L250.456 2.86628ZM251.846 2.59473L251.439 0.50749L251.846 2.59473ZM254.453 3.05329L253.359 4.8769L254.453 3.05329ZM256.887 4.51353L257.981 2.68991L256.887 4.51353ZM259.066 6.10345L260.483 4.51765L259.066 6.10345ZM260.99 7.82305L262.408 6.23725L260.99 7.82305ZM262.913 9.68165L261.379 11.1553L262.913 9.68165ZM264.833 11.6792L266.366 10.2055L264.833 11.6792ZM266.006 14.0685L268.108 13.7463L266.006 14.0685ZM266.432 16.8493L264.33 17.1714L266.432 16.8493ZM266.635 19.6114L264.508 19.5956L266.635 19.6114ZM266.614 22.3548L268.741 22.3707L266.614 22.3548ZM266.485 25.0983L268.603 25.2824L266.485 25.0983ZM266.365 26.47L264.247 26.2858L266.365 26.47ZM266.246 27.8417L264.128 27.6575L266.246 27.8417ZM266.086 30.5851L263.96 30.5211L266.086 30.5851ZM266.044 31.9568L263.919 31.8928L266.044 31.9568ZM266.003 33.3285L268.129 33.3925L266.003 33.3285ZM265.125 38.6386L263.045 38.1967V38.1967L265.125 38.6386ZM264.566 41.3347L266.651 41.7563L264.566 41.3347ZM264.287 42.718L262.202 42.2964L264.287 42.718ZM262.58 46.3124L263.825 48.037L262.58 46.3124ZM260.286 47.9679L259.041 46.2434L260.286 47.9679ZM257.789 48.9255L257.586 46.8086L257.789 48.9255ZM255.091 49.1852L255.294 51.3021L255.091 49.1852ZM252.412 49.4397L252.61 51.5571L252.412 49.4397ZM249.753 49.689L249.554 47.5716L249.753 49.689ZM247.051 49.7382L246.935 51.8617L247.051 49.7382ZM244.308 49.5872L244.191 51.7106L244.308 49.5872ZM241.565 49.6926L241.843 51.801L241.565 49.6926ZM238.821 50.0545L238.543 47.9461L238.821 50.0545ZM236.078 50.1785L236.166 48.0536L236.078 50.1785ZM233.334 50.0645L233.246 52.1893L233.334 50.0645ZM230.591 50.0866L230.468 47.9635L230.591 50.0866ZM229.219 50.1658L229.342 52.2889L229.219 50.1658ZM227.847 50.2449L227.97 52.3681L227.847 50.2449ZM225.104 50.629L225.566 52.705L225.104 50.629ZM222.361 51.2389L221.899 49.1629L222.361 51.2389ZM219.617 51.5081L219.562 53.6341L219.617 51.5081ZM216.874 51.4367L216.929 49.3107L216.874 51.4367ZM214.13 51.42L214.101 49.2935L214.13 51.42ZM211.387 51.458L211.416 53.5844L211.387 51.458ZM208.644 51.0204L209.315 49.0026L208.644 51.0204ZM205.9 50.1074L205.229 52.1253L205.9 50.1074ZM203.157 49.9213L202.745 47.8348V47.8348L203.157 49.9213ZM197.67 50.4682L198.072 48.38L197.67 50.4682ZM194.926 49.9394L194.524 52.0276L194.926 49.9394ZM192.183 49.7882L192.358 51.9077L192.183 49.7882ZM189.44 50.0149L189.264 47.8954L189.44 50.0149ZM186.696 50.2132L186.565 48.0906L186.696 50.2132ZM185.324 50.2982L185.193 48.1756L185.324 50.2982ZM183.953 50.3832L183.821 48.2606L183.953 50.3832ZM181.209 50.7201L180.825 48.6284L181.209 50.7201ZM179.838 50.9721L179.453 48.8804L179.838 50.9721ZM178.466 51.224L178.85 53.3157L178.466 51.224ZM167.492 51.5612L167.445 49.4351L167.492 51.5612ZM164.749 51.4617L164.548 53.5789L164.749 51.4617ZM162.005 51.2017L162.206 49.0845L162.005 51.2017ZM159.262 51.0059L159.364 48.8816L159.262 51.0059ZM156.518 50.8742L156.417 52.9985L156.518 50.8742ZM153.775 50.8422L153.827 52.9683L153.775 50.8422ZM151.032 50.9098L150.979 48.7838L151.032 50.9098ZM148.288 51.0011L148.199 48.8763L148.288 51.0011ZM142.801 51.2839L142.631 49.1641L142.801 51.2839ZM141.43 51.3942L141.6 53.5141L141.43 51.3942ZM140.058 51.5045L140.228 53.6243L140.058 51.5045ZM137.315 51.2355L136.748 53.2853L137.315 51.2355ZM134.571 50.477L135.138 48.4272L134.571 50.477ZM131.828 50.2182L132.014 52.3368L131.828 50.2182ZM130.456 50.3387L130.642 52.4572L130.456 50.3387ZM129.084 50.4591L128.898 48.3406L129.084 50.4591ZM126.341 50.3023L125.919 52.3868L126.341 50.3023ZM123.597 49.7476L124.019 47.6631L123.597 49.7476ZM120.854 49.5436L120.741 47.4199L120.854 49.5436ZM118.111 49.69L118.224 51.8137L118.111 49.69ZM115.367 49.6869L115.249 51.8102L115.367 49.6869ZM112.624 49.534L112.742 47.4106L112.624 49.534ZM109.88 49.6764L110.215 51.7765L109.88 49.6764ZM108.509 49.8953L108.174 47.7951L108.509 49.8953ZM107.137 50.1141L107.472 52.2143L107.137 50.1141ZM104.393 50.252L104.268 52.375L104.393 50.252ZM101.65 50.09L101.525 52.213L101.65 50.09ZM98.9066 49.9741L98.8525 52.1001L98.9066 49.9741ZM97.5349 49.9392L97.589 47.8132L97.5349 49.9392ZM93.4198 49.9924L93.6097 52.1105L93.4198 49.9924ZM90.6763 50.2384L90.4864 48.1202L90.6763 50.2384ZM87.9329 50.6678L87.4693 48.5923L87.9329 50.6678ZM85.1895 51.2807L85.6531 53.3562L85.1895 51.2807ZM82.4461 51.4055L82.7251 49.2972L82.4461 51.4055ZM79.7026 51.0424L79.4236 53.1507L79.7026 51.0424ZM76.9592 50.8792L76.9307 48.7527L76.9592 50.8792ZM75.5875 50.8976L75.559 48.7711L75.5875 50.8976ZM74.2158 50.916L74.2443 53.0425L74.2158 50.916ZM71.4724 50.942L71.4842 53.0686L71.4724 50.942ZM68.7289 50.9572L68.7171 48.8306L68.7289 50.9572ZM65.9855 50.612L66.5154 48.5523L65.9855 50.612ZM63.2421 49.9062L62.7123 51.9659L63.2421 49.9062ZM60.4987 49.9534L61.0941 51.995L60.4987 49.9534ZM59.127 50.3535L58.5315 48.3118L59.127 50.3535ZM57.7552 50.7535L58.3507 52.7951L57.7552 50.7535ZM55.0118 51.1942L55.0749 53.32L55.0118 51.1942ZM52.2684 51.2756L52.3314 53.4013L52.2684 51.2756ZM49.525 51.0355L49.0986 53.119L49.525 51.0355ZM46.7816 50.474L47.208 48.3905L46.7816 50.474ZM44.0381 50.4439L43.656 48.3518L44.0381 50.4439ZM42.6664 50.6944L43.0486 52.7865L42.6664 50.6944ZM41.2947 50.945L40.9126 48.8529L41.2947 50.945ZM38.5513 51.0484L38.7781 48.9339L38.5513 51.0484ZM35.8079 50.7541L35.581 52.8687L35.8079 50.7541ZM33.0644 50.326L32.6377 52.4094L33.0644 50.326ZM31.6927 50.045L31.266 52.1284L31.6927 50.045ZM30.321 49.764L30.7478 47.6806L30.321 49.764ZM27.5776 49.8379L28.1102 51.8968L27.5776 49.8379ZM24.8342 50.5477L24.3015 48.4888L24.8342 50.5477ZM22.0907 50.8098L21.9473 52.9317L22.0907 50.8098ZM20.719 50.7171L20.8624 48.5953L20.719 50.7171ZM19.3473 50.6244L19.2039 52.7463L19.3473 50.6244ZM16.5734 50.5014L16.5273 52.6276L16.5734 50.5014ZM13.769 50.4406L13.815 48.3144L13.769 50.4406ZM11.4089 49.3829L9.85342 50.8332L11.4089 49.3829ZM9.49311 47.3282L11.0486 45.8779L9.49311 47.3282ZM7.34668 45.5056L8.52935 43.738L7.34668 45.5056ZM4.9696 43.915L3.78694 45.6825L4.9696 43.915ZM4.01813 38.8375L1.8947 38.7199L4.01813 38.8375ZM4.06317 36.0571L1.93715 36.1105L4.06317 36.0571ZM3.47224 30.6267L1.46902 31.3408L3.47224 30.6267ZM2.16715 25.1399L0.0551217 24.8907L2.16715 25.1399ZM3.57071 16.978L1.49672 16.5075L3.57071 16.978ZM4.18352 11.4401L2.06252 11.2847L4.18352 11.4401ZM6.12541 7.86546L4.50063 6.49328L6.12541 7.86546ZM11.7342 3.62632L10.714 1.76034L11.7342 3.62632ZM16.1688 3.59198L15.741 5.6752L16.1688 3.59198ZM18.5999 3.0051L18.4597 0.883036L18.5999 3.0051ZM19.9716 2.91449L20.1118 5.03655L21.4835 4.94594L21.3433 2.82388L21.2032 0.701823L19.8314 0.792429L19.9716 2.91449ZM21.3433 2.82388L21.4835 4.94594C22.4453 4.88241 23.4067 4.78659 24.3676 4.65855L24.0867 2.5505L23.8059 0.442445C22.9378 0.558111 22.0703 0.644547 21.2032 0.701823L21.3433 2.82388ZM24.0867 2.5505L24.3676 4.65855L25.7394 4.47577L25.4585 2.36772L25.1776 0.259666L23.8059 0.442445L24.0867 2.5505ZM25.4585 2.36772L25.7394 4.47577L27.1111 4.29299L26.8302 2.18494L26.5493 0.0768871L25.1776 0.259666L25.4585 2.36772ZM26.8302 2.18494L27.1111 4.29299C27.728 4.21079 28.3491 4.25491 28.9922 4.43769L29.5736 2.39203L30.155 0.34637C28.9692 0.00932217 27.7613 -0.0846155 26.5493 0.0768871L26.8302 2.18494ZM29.5736 2.39203L28.9922 4.43769L30.3639 4.82757L30.9453 2.7819L31.5267 0.736241L30.155 0.34637L29.5736 2.39203ZM30.9453 2.7819L30.3639 4.82757L31.7356 5.21744L32.317 3.17178L32.8984 1.12611L31.5267 0.736241L30.9453 2.7819ZM32.317 3.17178L31.7356 5.21744C32.8383 5.53086 33.9557 5.68574 35.082 5.67433L35.0604 3.54775L35.0389 1.42118C34.3362 1.42829 33.6246 1.33252 32.8984 1.12611L32.317 3.17178ZM35.0604 3.54775L35.082 5.67433L36.4537 5.66043L36.4322 3.53386L36.4106 1.40728L35.0389 1.42118L35.0604 3.54775ZM36.4322 3.53386L36.4537 5.66043L37.8254 5.64654L37.8039 3.51996L37.7823 1.39339L36.4106 1.40728L36.4322 3.53386ZM37.8039 3.51996L37.8254 5.64654C38.7009 5.63767 39.5764 5.65286 40.452 5.69211L40.5473 3.56756L40.6425 1.44301C39.6892 1.40027 38.7358 1.38373 37.7823 1.39339L37.8039 3.51996ZM40.5473 3.56756L40.452 5.69211L41.8238 5.7536L41.919 3.62905L42.0142 1.5045L40.6425 1.44301L40.5473 3.56756ZM41.919 3.62905L41.8238 5.7536L43.1955 5.81509L43.2907 3.69054L43.386 1.56599L42.0142 1.5045L41.919 3.62905ZM43.2907 3.69054L43.1955 5.81509C44.232 5.86156 45.2678 5.81895 46.3018 5.68778L46.0341 3.578L45.7665 1.46823C44.9715 1.56909 44.1784 1.60152 43.386 1.56599L43.2907 3.69054ZM46.0341 3.578L46.3018 5.68778L47.6735 5.51375L47.4058 3.40397L47.1382 1.2942L45.7665 1.46823L46.0341 3.578ZM47.4058 3.40397L47.6735 5.51375L49.0452 5.33972L48.7776 3.22994L48.5099 1.12017L47.1382 1.2942L47.4058 3.40397ZM48.7776 3.22994L49.0452 5.33972C49.8433 5.23846 50.6396 5.20413 51.4352 5.23625L51.521 3.1113L51.6068 0.986344C50.5734 0.944623 49.5407 0.989391 48.5099 1.12017L48.7776 3.22994ZM51.521 3.1113L51.4352 5.23625L52.8069 5.29163L52.8927 3.16668L52.9785 1.04173L51.6068 0.986344L51.521 3.1113ZM52.8927 3.16668L52.8069 5.29163L54.1786 5.34701L54.2644 3.22206L54.3502 1.09711L52.9785 1.04173L52.8927 3.16668ZM54.2644 3.22206L54.1786 5.34701C55.0865 5.38367 55.9944 5.42456 56.9022 5.46969L57.0078 3.34563L57.1134 1.22156C56.1923 1.17578 55.2713 1.1343 54.3502 1.09711L54.2644 3.22206ZM57.0078 3.34563L56.9022 5.46969L58.274 5.53787L58.3795 3.41381L58.4851 1.28975L57.1134 1.22156L57.0078 3.34563ZM58.3795 3.41381L58.274 5.53787L59.6457 5.60606L59.7513 3.48199L59.8568 1.35793L58.4851 1.28975L58.3795 3.41381ZM59.7513 3.48199L59.6457 5.60606C60.5496 5.65099 61.4535 5.70269 62.3574 5.76116L62.4947 3.63891L62.632 1.51666C61.7069 1.45682 60.7819 1.40391 59.8568 1.35793L59.7513 3.48199ZM62.4947 3.63891L62.3574 5.76116L63.7291 5.84989L63.8664 3.72764L64.0037 1.60539L62.632 1.51666L62.4947 3.63891ZM63.8664 3.72764L63.7291 5.84989L65.1008 5.93862L65.2381 3.81638L65.3754 1.69413L64.0037 1.60539L63.8664 3.72764ZM65.2381 3.81638L65.1008 5.93862C66.1209 6.00461 67.1413 5.99441 68.1609 5.90809L67.9815 3.78899L67.8021 1.66988C66.9928 1.73839 66.1842 1.74645 65.3754 1.69413L65.2381 3.81638ZM67.9815 3.78899L68.1609 5.90809L69.5326 5.79197L69.3532 3.67287L69.1738 1.55376L67.8021 1.66988L67.9815 3.78899ZM69.3532 3.67287L69.5326 5.79197L70.9043 5.67585L70.7249 3.55675L70.5456 1.43764L69.1738 1.55376L69.3532 3.67287ZM70.7249 3.55675L70.9043 5.67585C71.6786 5.61031 72.4525 5.62151 73.228 5.70973L73.4684 3.59668L73.7087 1.48362C72.6553 1.36378 71.6002 1.34836 70.5456 1.43764L70.7249 3.55675ZM73.4684 3.59668L73.228 5.70973L74.5997 5.86578L74.8401 3.75272L75.0805 1.63967L73.7087 1.48362L73.4684 3.59668ZM74.8401 3.75272L74.5997 5.86578L75.9714 6.02183L76.2118 3.90877L76.4522 1.79572L75.0805 1.63967L74.8401 3.75272ZM76.2118 3.90877L75.9714 6.02183C77.0851 6.14852 78.1994 6.11769 79.3086 5.93078L78.9552 3.83366L78.6018 1.73655C77.882 1.85784 77.1674 1.87709 76.4522 1.79572L76.2118 3.90877ZM78.9552 3.83366L79.3086 5.93078L80.6803 5.69962L80.3269 3.6025L79.9735 1.50539L78.6018 1.73655L78.9552 3.83366ZM80.3269 3.6025L80.6803 5.69962L82.052 5.46846L81.6986 3.37134L81.3452 1.27423L79.9735 1.50539L80.3269 3.6025ZM81.6986 3.37134L82.052 5.46846C82.9751 5.3129 83.8982 5.15148 84.8213 4.9842L84.4421 2.8916L84.0628 0.799002C83.1569 0.96317 82.2511 1.12158 81.3452 1.27423L81.6986 3.37134ZM84.4421 2.8916L84.8213 4.9842L86.193 4.73562L85.8138 2.64302L85.4345 0.550417L84.0628 0.799002L84.4421 2.8916ZM85.8138 2.64302L86.193 4.73562L87.5647 4.48703L87.1855 2.39443L86.8063 0.301833L85.4345 0.550417L85.8138 2.64302ZM87.1855 2.39443L87.5647 4.48703C88.1171 4.38692 88.6724 4.42332 89.2625 4.61805L89.9289 2.59846L90.5953 0.578878C89.3565 0.170119 88.0828 0.0704985 86.8063 0.301833L87.1855 2.39443ZM89.9289 2.59846L89.2625 4.61805L90.6342 5.07066L91.3006 3.05107L91.967 1.03149L90.5953 0.578878L89.9289 2.59846ZM91.3006 3.05107L90.6342 5.07066L92.0059 5.52327L92.6723 3.50369L93.3387 1.4841L91.967 1.03149L91.3006 3.05107ZM92.6723 3.50369L92.0059 5.52327C93.3465 5.96559 94.7219 5.97228 96.0659 5.54072L95.4157 3.51585L94.7656 1.49099C94.2807 1.64669 93.8271 1.64527 93.3387 1.4841L92.6723 3.50369ZM95.4157 3.51585L96.0659 5.54072L97.4376 5.10027L96.7875 3.07541L96.1373 1.05054L94.7656 1.49099L95.4157 3.51585ZM96.7875 3.07541L97.4376 5.10027L98.8093 4.65982L98.1592 2.63496L97.509 0.610099L96.1373 1.05054L96.7875 3.07541ZM98.1592 2.63496L98.8093 4.65982C99.4562 4.45213 100.075 4.389 100.683 4.45208L100.903 2.33673L101.122 0.221384C99.9014 0.0948443 98.6911 0.230533 97.509 0.610099L98.1592 2.63496ZM100.903 2.33673L100.683 4.45208L102.055 4.59429L102.274 2.47895L102.494 0.363599L101.122 0.221384L100.903 2.33673ZM102.274 2.47895L102.055 4.59429L103.427 4.73651L103.646 2.62116L103.865 0.505814L102.494 0.363599L102.274 2.47895ZM103.646 2.62116L103.427 4.73651C104.449 4.84249 105.472 4.86996 106.496 4.81871L106.389 2.69468L106.283 0.570661C105.478 0.610993 104.672 0.589454 103.865 0.505814L103.646 2.62116ZM106.389 2.69468L106.496 4.81871L107.868 4.75002L107.761 2.62599L107.655 0.501971L106.283 0.570661L106.389 2.69468ZM107.761 2.62599L107.868 4.75002L109.239 4.68133L109.133 2.5573L109.027 0.433282L107.655 0.501971L107.761 2.62599ZM109.133 2.5573L109.239 4.68133C110.133 4.63656 111.027 4.6048 111.921 4.58605L111.876 2.45983L111.832 0.333614C110.897 0.353236 109.962 0.386459 109.027 0.433282L109.133 2.5573ZM111.876 2.45983L111.921 4.58605L113.293 4.55726L113.248 2.43105L113.203 0.30483L111.832 0.333614L111.876 2.45983ZM113.248 2.43105L113.293 4.55726L114.664 4.52848L114.62 2.40226L114.575 0.276045L113.203 0.30483L113.248 2.43105ZM114.62 2.40226L114.664 4.52848C115.36 4.51387 116.065 4.60415 116.785 4.80741L117.363 2.76072L117.941 0.714022C116.832 0.400963 115.708 0.252274 114.575 0.276045L114.62 2.40226ZM117.363 2.76072L116.785 4.80741L118.157 5.19465L118.735 3.14795L119.313 1.10126L117.941 0.714022L117.363 2.76072ZM118.735 3.14795L118.157 5.19465L119.529 5.58188L120.107 3.53519L120.684 1.4885L119.313 1.10126L118.735 3.14795ZM120.107 3.53519L119.529 5.58188C120.777 5.93435 122.049 5.97401 123.313 5.69234L122.85 3.61662L122.387 1.54089C121.822 1.66697 121.265 1.65235 120.684 1.4885L120.107 3.53519ZM122.85 3.61662L123.313 5.69234L124.684 5.38653L124.222 3.31081L123.759 1.23508L122.387 1.54089L122.85 3.61662ZM124.222 3.31081L124.684 5.38653L126.056 5.08072L125.593 3.005L125.131 0.929272L123.759 1.23508L124.222 3.31081ZM125.593 3.005L126.056 5.08072C126.687 4.94009 127.306 4.93167 127.932 5.05306L128.337 2.9653L128.742 0.877542C127.539 0.644119 126.329 0.66216 125.131 0.929272L125.593 3.005ZM128.337 2.9653L127.932 5.05306L129.304 5.31918L129.709 3.23142L130.114 1.14366L128.742 0.877542L128.337 2.9653ZM129.709 3.23142L129.304 5.31918L130.675 5.58529L131.08 3.49753L131.485 1.40977L130.114 1.14366L129.709 3.23142ZM131.08 3.49753L130.675 5.58529C131.794 5.80241 132.921 5.85245 134.048 5.73266L133.824 3.61789L133.599 1.50311C132.897 1.57766 132.195 1.54747 131.485 1.40977L131.08 3.49753ZM133.824 3.61789L134.048 5.73266L135.42 5.58691L135.195 3.47213L134.971 1.35735L133.599 1.50311L133.824 3.61789ZM135.195 3.47213L135.42 5.58691L136.792 5.44115L136.567 3.32637L136.342 1.21159L134.971 1.35735L135.195 3.47213ZM136.567 3.32637L136.792 5.44115C137.715 5.34301 138.639 5.23883 139.563 5.12863L139.311 3.01692L139.059 0.905222C138.153 1.01326 137.248 1.11539 136.342 1.21159L136.567 3.32637ZM139.311 3.01692L139.563 5.12863L140.934 4.96494L140.682 2.85324L140.43 0.741536L139.059 0.905222L139.311 3.01692ZM140.682 2.85324L140.934 4.96494L142.306 4.80126L142.054 2.68955L141.802 0.577851L140.43 0.741536L140.682 2.85324ZM142.054 2.68955L142.306 4.80126C143.004 4.718 143.701 4.74129 144.405 4.87343L144.797 2.78321L145.19 0.692986C144.065 0.482002 142.933 0.442859 141.802 0.577851L142.054 2.68955ZM144.797 2.78321L144.405 4.87343L145.777 5.13076L146.169 3.04054L146.561 0.950324L145.19 0.692986L144.797 2.78321ZM146.169 3.04054L145.777 5.13076L147.149 5.3881L147.541 3.29788L147.933 1.20766L146.561 0.950324L146.169 3.04054ZM147.541 3.29788L147.149 5.3881C148.196 5.58466 149.249 5.67895 150.303 5.6694L150.284 3.5428L150.265 1.4162C149.491 1.42321 148.714 1.35422 147.933 1.20766L147.541 3.29788ZM150.284 3.5428L150.303 5.6694L151.675 5.65698L151.656 3.53038L151.637 1.40378L150.265 1.4162L150.284 3.5428ZM151.656 3.53038L151.675 5.65698L153.047 5.64456L153.028 3.51796L153.008 1.39136L151.637 1.40378L151.656 3.53038ZM153.028 3.51796L153.047 5.64456C154.021 5.63573 154.995 5.58584 155.969 5.49495L155.771 3.37747L155.573 1.26C154.718 1.33986 153.863 1.38362 153.008 1.39136L153.028 3.51796ZM155.771 3.37747L155.969 5.49495L157.34 5.36688L157.143 3.24941L156.945 1.13193L155.573 1.26L155.771 3.37747ZM157.143 3.24941L157.34 5.36688L158.712 5.23882L158.514 3.12134L158.317 1.00387L156.945 1.13193L157.143 3.24941ZM158.514 3.12134L158.712 5.23882C159.551 5.16052 160.389 5.12759 161.227 5.13992L161.258 3.01347L161.289 0.887014C160.298 0.872425 159.307 0.911415 158.317 1.00387L158.514 3.12134ZM161.258 3.01347L161.227 5.13992L162.598 5.16011L162.63 3.03366L162.661 0.907204L161.289 0.887014L161.258 3.01347ZM162.63 3.03366L162.598 5.16011L163.97 5.1803L164.001 3.05385L164.033 0.927393L162.661 0.907204L162.63 3.03366ZM164.001 3.05385L163.97 5.1803C164.779 5.1922 165.589 5.26421 166.402 5.39699L166.745 3.29812L167.088 1.19926C166.071 1.03326 165.053 0.942409 164.033 0.927393L164.001 3.05385ZM166.745 3.29812L166.402 5.39699L167.774 5.62107L168.116 3.52221L168.459 1.42335L167.088 1.19926L166.745 3.29812ZM168.116 3.52221L167.774 5.62107L169.145 5.84516L169.488 3.74629L169.831 1.64743L168.459 1.42335L168.116 3.52221ZM169.488 3.74629L169.145 5.84516C170.338 6.04006 171.534 5.99688 172.716 5.72064L172.232 3.64977L171.748 1.5789C171.1 1.73014 170.467 1.75131 169.831 1.64743L169.488 3.74629ZM172.232 3.64977L172.716 5.72064L174.087 5.40003L173.603 3.32916L173.119 1.25829L171.748 1.5789L172.232 3.64977ZM173.603 3.32916L174.087 5.40003L175.459 5.07942L174.975 3.00855L174.491 0.937677L173.119 1.25829L173.603 3.32916ZM174.975 3.00855L175.459 5.07942C176.285 4.88643 177.107 4.75003 177.927 4.66932L177.718 2.55287L177.51 0.436418C176.501 0.535799 175.494 0.703186 174.491 0.937677L174.975 3.00855ZM177.718 2.55287L177.927 4.66932L179.299 4.53425L179.09 2.4178L178.882 0.301348L177.51 0.436418L177.718 2.55287ZM179.09 2.4178L179.299 4.53425L180.67 4.39917L180.462 2.28273L180.253 0.166277L178.882 0.301348L179.09 2.4178ZM180.462 2.28273L180.67 4.39917C181.47 4.32044 182.268 4.3072 183.067 4.35926L183.205 2.23708L183.344 0.114906C182.313 0.0477321 181.283 0.0649137 180.253 0.166277L180.462 2.28273ZM183.205 2.23708L183.067 4.35926L184.439 4.44869L184.577 2.32651L184.715 0.204335L183.344 0.114906L183.205 2.23708ZM184.577 2.32651L184.439 4.44869L185.81 4.53812L185.949 2.41594L186.087 0.293764L184.715 0.204335L184.577 2.32651ZM185.949 2.41594L185.81 4.53812C186.572 4.58779 187.341 4.71971 188.118 4.93758L188.692 2.8898L189.266 0.842011C188.215 0.547321 187.154 0.363334 186.087 0.293764L185.949 2.41594ZM188.692 2.8898L188.118 4.93758L189.49 5.32201L190.064 3.27422L190.638 1.22644L189.266 0.842011L188.692 2.8898ZM190.064 3.27422L189.49 5.32201L190.862 5.70643L191.436 3.65865L192.009 1.61086L190.638 1.22644L190.064 3.27422ZM191.436 3.65865L190.862 5.70643C192.015 6.02954 193.186 6.1446 194.365 6.04085L194.179 3.92236L193.993 1.80386C193.343 1.86106 192.686 1.80032 192.009 1.61086L191.436 3.65865ZM194.179 3.92236L194.365 6.04085L195.737 5.92014L195.551 3.80164L195.364 1.68314L193.993 1.80386L194.179 3.92236ZM195.551 3.80164L195.737 5.92014L197.109 5.79942L196.922 3.68093L196.736 1.56243L195.364 1.68314L195.551 3.80164ZM196.922 3.68093L197.109 5.79942C198.085 5.71351 199.06 5.58472 200.034 5.41326L199.666 3.31878L199.297 1.22429C198.442 1.37474 197.589 1.48739 196.736 1.56243L196.922 3.68093ZM199.666 3.31878L200.034 5.41326L201.406 5.17183L201.038 3.07734L200.669 0.98285L199.297 1.22429L199.666 3.31878ZM201.038 3.07734L201.406 5.17183L202.778 4.93039L202.409 2.8359L202.041 0.741414L200.669 0.98285L201.038 3.07734ZM202.409 2.8359L202.778 4.93039C203.504 4.8026 204.224 4.77507 204.944 4.84594L205.153 2.72948L205.361 0.613024C204.252 0.503874 203.143 0.547294 202.041 0.741414L202.409 2.8359ZM205.153 2.72948L204.944 4.84594L206.316 4.98095L206.524 2.8645L206.733 0.748039L205.361 0.613024L205.153 2.72948ZM206.524 2.8645L206.316 4.98095L207.688 5.11597L207.896 2.99951L208.104 0.883054L206.733 0.748039L206.524 2.8645ZM207.896 2.99951L207.688 5.11597C208.801 5.22556 209.914 5.17848 211.021 4.97689L210.64 2.88464L210.258 0.792387C209.536 0.923978 208.82 0.953482 208.104 0.883054L207.896 2.99951ZM210.64 2.88464L211.021 4.97689L212.392 4.727L212.011 2.63475L211.63 0.542498L210.258 0.792387L210.64 2.88464ZM212.011 2.63475L212.392 4.727L213.764 4.47711L213.383 2.38486L213.002 0.292609L211.63 0.542498L212.011 2.63475ZM213.383 2.38486L213.764 4.47711C214.357 4.36903 214.948 4.39441 215.561 4.56332L216.126 2.51312L216.692 0.462912C215.475 0.127631 214.237 0.0675027 213.002 0.292609L213.383 2.38486ZM216.126 2.51312L215.561 4.56332L216.933 4.94147L217.498 2.89127L218.063 0.84106L216.692 0.462912L216.126 2.51312ZM217.498 2.89127L216.933 4.94147L218.305 5.31962L218.87 3.26941L219.435 1.21921L218.063 0.84106L217.498 2.89127ZM218.87 3.26941L218.305 5.31962C219.583 5.67206 220.882 5.67753 222.163 5.33464L221.613 3.28031L221.063 1.22598C220.515 1.37275 219.985 1.37097 219.435 1.21921L218.87 3.26941ZM221.613 3.28031L222.163 5.33464L223.535 4.96738L222.985 2.91305L222.435 0.858721L221.063 1.22598L221.613 3.28031ZM222.985 2.91305L223.535 4.96738L224.907 4.60013L224.357 2.5458L223.807 0.491466L222.435 0.858721L222.985 2.91305ZM224.357 2.5458L224.907 4.60013C225.509 4.43877 226.092 4.4212 226.68 4.5397L227.1 2.45491L227.52 0.370123C226.279 0.120134 225.033 0.163146 223.807 0.491466L224.357 2.5458ZM227.1 2.45491L226.68 4.5397L228.052 4.81608L228.472 2.73129L228.892 0.646496L227.52 0.370123L227.1 2.45491ZM228.472 2.73129L228.052 4.81608L229.423 5.09245L229.843 3.00766L230.264 0.922869L228.892 0.646496L228.472 2.73129ZM229.843 3.00766L229.423 5.09245C230.412 5.29171 231.403 5.4363 232.396 5.52578L232.587 3.40769L232.778 1.28959C231.942 1.2142 231.104 1.09211 230.264 0.922869L229.843 3.00766ZM232.587 3.40769L232.396 5.52578L233.768 5.64944L233.959 3.53134L234.15 1.41324L232.778 1.28959L232.587 3.40769ZM233.959 3.53134L233.768 5.64944L235.139 5.77309L235.33 3.65499L235.521 1.5369L234.15 1.41324L233.959 3.53134ZM235.33 3.65499L235.139 5.77309C236.172 5.86619 237.206 5.87253 238.239 5.79203L238.074 3.67177L237.909 1.55151C237.113 1.61352 236.317 1.60867 235.521 1.5369L235.33 3.65499ZM238.074 3.67177L238.239 5.79203L239.611 5.68515L239.445 3.56489L239.28 1.44463L237.909 1.55151L238.074 3.67177ZM239.445 3.56489L239.611 5.68515L240.982 5.57827L240.817 3.45801L240.652 1.33776L239.28 1.44463L239.445 3.56489ZM240.817 3.45801L240.982 5.57827C241.835 5.51187 242.686 5.48322 243.538 5.49227L243.561 3.3657L243.583 1.23914C242.606 1.22876 241.629 1.26165 240.652 1.33776L240.817 3.45801ZM243.561 3.3657L243.538 5.49227L244.91 5.50683L244.932 3.38027L244.955 1.2537L243.583 1.23914L243.561 3.3657ZM244.932 3.38027L244.91 5.50683L246.281 5.5214L246.304 3.39483L246.327 1.26827L244.955 1.2537L244.932 3.38027ZM246.304 3.39483L246.281 5.5214C247.345 5.53269 248.41 5.4329 249.474 5.22508L249.066 3.13784L248.658 1.05061C247.869 1.20486 247.092 1.2764 246.327 1.26827L246.304 3.39483ZM249.066 3.13784L249.474 5.22508L250.864 4.95352L250.456 2.86628L250.048 0.779048L248.658 1.05061L249.066 3.13784ZM250.456 2.86628L250.864 4.95352L252.254 4.68196L251.846 2.59473L251.439 0.50749L250.048 0.779048L250.456 2.86628ZM251.846 2.59473L252.254 4.68196C252.664 4.60193 252.998 4.6601 253.359 4.8769L254.453 3.05329L255.548 1.22967C254.286 0.472982 252.882 0.225447 251.439 0.50749L251.846 2.59473ZM254.453 3.05329L253.359 4.8769L254.576 5.60702L255.67 3.78341L256.764 1.95979L255.548 1.22967L254.453 3.05329ZM255.67 3.78341L254.576 5.60702L255.793 6.33714L256.887 4.51353L257.981 2.68991L256.764 1.95979L255.67 3.78341ZM256.887 4.51353L255.793 6.33714C256.5 6.76171 257.117 7.21364 257.649 7.68924L259.066 6.10345L260.483 4.51765C259.732 3.84685 258.896 3.23883 257.981 2.68991L256.887 4.51353ZM259.066 6.10345L257.649 7.68924L258.611 8.54904L260.028 6.96325L261.445 5.37745L260.483 4.51765L259.066 6.10345ZM260.028 6.96325L258.611 8.54904L259.573 9.40884L260.99 7.82305L262.408 6.23725L261.445 5.37745L260.028 6.96325ZM260.99 7.82305L259.573 9.40884C260.172 9.94366 260.774 10.5255 261.379 11.1553L262.913 9.68165L264.446 8.20795C263.771 7.50607 263.092 6.84884 262.408 6.23725L260.99 7.82305ZM262.913 9.68165L261.379 11.1553L262.339 12.1541L263.873 10.6804L265.406 9.20675L264.446 8.20795L262.913 9.68165ZM263.873 10.6804L262.339 12.1541L263.299 13.1529L264.833 11.6792L266.366 10.2055L265.406 9.20675L263.873 10.6804ZM264.833 11.6792L263.299 13.1529C263.631 13.4976 263.827 13.8898 263.903 14.3906L266.006 14.0685L268.108 13.7463C267.9 12.3932 267.315 11.1926 266.366 10.2055L264.833 11.6792ZM266.006 14.0685L263.903 14.3906L264.117 15.781L266.219 15.4589L268.321 15.1367L268.108 13.7463L266.006 14.0685ZM266.219 15.4589L264.117 15.781L264.33 17.1714L266.432 16.8493L268.534 16.5271L268.321 15.1367L266.219 15.4589ZM266.432 16.8493L264.33 17.1714C264.455 17.9894 264.514 18.7971 264.508 19.5956L266.635 19.6114L268.761 19.6273C268.769 18.5968 268.693 17.5631 268.534 16.5271L266.432 16.8493ZM266.635 19.6114L264.508 19.5956L264.498 20.9673L266.624 20.9831L268.751 20.999L268.761 19.6273L266.635 19.6114ZM266.624 20.9831L264.498 20.9673L264.488 22.339L266.614 22.3548L268.741 22.3707L268.751 20.999L266.624 20.9831ZM266.614 22.3548L264.488 22.339C264.481 23.1971 264.441 24.0554 264.366 24.9141L266.485 25.0983L268.603 25.2824C268.688 24.3122 268.734 23.3416 268.741 22.3707L266.614 22.3548ZM266.485 25.0983L264.366 24.9141L264.247 26.2858L266.365 26.47L268.484 26.6541L268.603 25.2824L266.485 25.0983ZM266.365 26.47L264.247 26.2858L264.128 27.6575L266.246 27.8417L268.365 28.0259L268.484 26.6541L266.365 26.47ZM266.246 27.8417L264.128 27.6575C264.045 28.6118 263.989 29.5664 263.96 30.5211L266.086 30.5851L268.211 30.6491C268.238 29.7749 268.289 28.9005 268.365 28.0259L266.246 27.8417ZM266.086 30.5851L263.96 30.5211L263.919 31.8928L266.044 31.9568L268.17 32.0208L268.211 30.6491L266.086 30.5851ZM266.044 31.9568L263.919 31.8928L263.877 33.2646L266.003 33.3285L268.129 33.3925L268.17 32.0208L266.044 31.9568ZM266.003 33.3285L263.877 33.2646C263.854 34.0548 263.762 34.8231 263.603 35.5711L265.683 36.013L267.763 36.455C267.976 35.4526 268.098 34.4312 268.129 33.3925L266.003 33.3285ZM265.683 36.013L263.603 35.5711L263.324 36.8839L265.404 37.3258L267.484 37.7677L267.763 36.455L265.683 36.013ZM265.404 37.3258L263.324 36.8839L263.045 38.1967L265.125 38.6386L267.205 39.0805L267.484 37.7677L265.404 37.3258ZM265.125 38.6386L263.045 38.1967C262.857 39.079 262.67 39.9845 262.482 40.9131L264.566 41.3347L266.651 41.7563C266.836 40.8405 267.021 39.9486 267.205 39.0805L265.125 38.6386ZM264.566 41.3347L262.482 40.9131L262.202 42.2964L264.287 42.718L266.371 43.1396L266.651 41.7563L264.566 41.3347ZM264.287 42.718L262.202 42.2964L261.922 43.6798L264.007 44.1014L266.091 44.523L266.371 43.1396L264.287 42.718ZM264.007 44.1014L261.922 43.6798C261.842 44.0761 261.667 44.3484 261.336 44.5879L262.58 46.3124L263.825 48.037C265.022 47.1728 265.798 45.971 266.091 44.523L264.007 44.1014ZM262.58 46.3124L261.336 44.5879L260.189 45.4156L261.433 47.1402L262.677 48.8647L263.825 48.037L262.58 46.3124ZM261.433 47.1402L260.189 45.4156L259.041 46.2434L260.286 47.9679L261.53 49.6925L262.677 48.8647L261.433 47.1402ZM260.286 47.9679L259.041 46.2434C258.569 46.5844 258.093 46.7598 257.586 46.8086L257.789 48.9255L257.993 51.0424C259.285 50.9181 260.474 50.4551 261.53 49.6925L260.286 47.9679ZM257.789 48.9255L257.586 46.8086L256.236 46.9385L256.44 49.0554L256.644 51.1723L257.993 51.0424L257.789 48.9255ZM256.44 49.0554L256.236 46.9385L254.887 47.0683L255.091 49.1852L255.294 51.3021L256.644 51.1723L256.44 49.0554ZM255.091 49.1852L254.887 47.0683C253.989 47.1547 253.098 47.2394 252.213 47.3223L252.412 49.4397L252.61 51.5571C253.498 51.4739 254.393 51.3888 255.294 51.3021L255.091 49.1852ZM252.412 49.4397L252.213 47.3223L250.884 47.447L251.082 49.5644L251.281 51.6818L252.61 51.5571L252.412 49.4397ZM251.082 49.5644L250.884 47.447L249.554 47.5716L249.753 49.689L249.951 51.8064L251.281 51.6818L251.082 49.5644ZM249.753 49.689L249.554 47.5716C248.776 47.6446 247.981 47.6594 247.168 47.6147L247.051 49.7382L246.935 51.8617C247.951 51.9176 248.957 51.8997 249.951 51.8064L249.753 49.689ZM247.051 49.7382L247.168 47.6147L245.797 47.5392L245.68 49.6627L245.563 51.7861L246.935 51.8617L247.051 49.7382ZM245.68 49.6627L245.797 47.5392L244.425 47.4637L244.308 49.5872L244.191 51.7106L245.563 51.7861L245.68 49.6627ZM244.308 49.5872L244.425 47.4637C243.378 47.406 242.331 47.4464 241.286 47.5842L241.565 49.6926L241.843 51.801C242.627 51.6975 243.409 51.6676 244.191 51.7106L244.308 49.5872ZM241.565 49.6926L241.286 47.5842L239.915 47.7652L240.193 49.8736L240.471 51.982L241.843 51.801L241.565 49.6926ZM240.193 49.8736L239.915 47.7652L238.543 47.9461L238.821 50.0545L239.099 52.163L240.471 51.982L240.193 49.8736ZM238.821 50.0545L238.543 47.9461C237.749 48.0509 236.957 48.0865 236.166 48.0536L236.078 50.1785L235.989 52.3033C237.027 52.3465 238.064 52.2995 239.099 52.163L238.821 50.0545ZM236.078 50.1785L236.166 48.0536L234.794 47.9966L234.706 50.1215L234.618 52.2463L235.989 52.3033L236.078 50.1785ZM234.706 50.1215L234.794 47.9966L233.423 47.9396L233.334 50.0645L233.246 52.1893L234.618 52.2463L234.706 50.1215ZM233.334 50.0645L233.423 47.9396C232.438 47.8987 231.453 47.9066 230.468 47.9635L230.591 50.0866L230.713 52.2098C231.558 52.161 232.402 52.1542 233.246 52.1893L233.334 50.0645ZM230.591 50.0866L230.468 47.9635L229.097 48.0426L229.219 50.1658L229.342 52.2889L230.713 52.2098L230.591 50.0866ZM229.219 50.1658L229.097 48.0426L227.725 48.1218L227.847 50.2449L227.97 52.3681L229.342 52.2889L229.219 50.1658ZM227.847 50.2449L227.725 48.1218C226.694 48.1813 225.666 48.3255 224.643 48.553L225.104 50.629L225.566 52.705C226.371 52.526 227.172 52.4141 227.97 52.3681L227.847 50.2449ZM225.104 50.629L224.643 48.553L223.271 48.8579L223.732 50.934L224.194 53.01L225.566 52.705L225.104 50.629ZM223.732 50.934L223.271 48.8579L221.899 49.1629L222.361 51.2389L222.822 53.3149L224.194 53.01L223.732 50.934ZM222.361 51.2389L221.899 49.1629C221.15 49.3294 220.409 49.4013 219.673 49.3822L219.617 51.5081L219.562 53.6341C220.654 53.6625 221.742 53.555 222.822 53.3149L222.361 51.2389ZM219.617 51.5081L219.673 49.3822L218.301 49.3465L218.245 51.4724L218.19 53.5984L219.562 53.6341L219.617 51.5081ZM218.245 51.4724L218.301 49.3465L216.929 49.3107L216.874 51.4367L216.818 53.5627L218.19 53.5984L218.245 51.4724ZM216.874 51.4367L216.929 49.3107C215.986 49.2862 215.044 49.2804 214.101 49.2935L214.13 51.42L214.16 53.5465C215.046 53.5342 215.932 53.5396 216.818 53.5627L216.874 51.4367ZM214.13 51.42L214.101 49.2935L212.729 49.3125L212.759 51.439L212.788 53.5655L214.16 53.5465L214.13 51.42ZM212.759 51.439L212.729 49.3125L211.357 49.3315L211.387 51.458L211.416 53.5844L212.788 53.5655L212.759 51.439ZM211.387 51.458L211.357 49.3315C210.694 49.3407 210.016 49.2358 209.315 49.0026L208.644 51.0204L207.972 53.0383C209.1 53.4138 210.251 53.6006 211.416 53.5844L211.387 51.458ZM208.644 51.0204L209.315 49.0026L207.943 48.546L207.272 50.5639L206.6 52.5818L207.972 53.0383L208.644 51.0204ZM207.272 50.5639L207.943 48.546L206.572 48.0895L205.9 50.1074L205.229 52.1253L206.6 52.5818L207.272 50.5639ZM205.9 50.1074L206.572 48.0895C205.321 47.6732 204.033 47.5809 202.745 47.8348L203.157 49.9213L203.568 52.0078C204.109 51.9012 204.651 51.9329 205.229 52.1253L205.9 50.1074ZM203.157 49.9213L202.745 47.8348L201.374 48.1053L201.785 50.1918L202.196 52.2783L203.568 52.0078L203.157 49.9213ZM201.785 50.1918L201.374 48.1053L200.002 48.3757L200.413 50.4622L200.825 52.5488L202.196 52.2783L201.785 50.1918ZM200.413 50.4622L200.002 48.3757C199.356 48.5031 198.718 48.5044 198.072 48.38L197.67 50.4682L197.267 52.5565C198.451 52.7847 199.642 52.782 200.825 52.5488L200.413 50.4622ZM197.67 50.4682L198.072 48.38L196.701 48.1156L196.298 50.2038L195.896 52.292L197.267 52.5565L197.67 50.4682ZM196.298 50.2038L196.701 48.1156L195.329 47.8511L194.926 49.9394L194.524 52.0276L195.896 52.292L196.298 50.2038ZM194.926 49.9394L195.329 47.8511C194.227 47.6387 193.118 47.577 192.008 47.6688L192.183 49.7882L192.358 51.9077C193.077 51.8483 193.797 51.8874 194.524 52.0276L194.926 49.9394ZM192.183 49.7882L192.008 47.6688L190.636 47.7821L190.811 49.9016L190.986 52.021L192.358 51.9077L192.183 49.7882ZM190.811 49.9016L190.636 47.7821L189.264 47.8954L189.44 50.0149L189.615 52.1343L190.986 52.021L190.811 49.9016ZM189.44 50.0149L189.264 47.8954C188.364 47.9698 187.465 48.0348 186.565 48.0906L186.696 50.2132L186.828 52.3358C187.757 52.2783 188.686 52.2111 189.615 52.1343L189.44 50.0149ZM186.696 50.2132L186.565 48.0906L185.193 48.1756L185.324 50.2982L185.456 52.4208L186.828 52.3358L186.696 50.2132ZM185.324 50.2982L185.193 48.1756L183.821 48.2606L183.953 50.3832L184.084 52.5058L185.456 52.4208L185.324 50.2982ZM183.953 50.3832L183.821 48.2606C182.821 48.3226 181.822 48.4453 180.825 48.6284L181.209 50.7201L181.593 52.8118C182.426 52.659 183.256 52.5571 184.084 52.5058L183.953 50.3832ZM181.209 50.7201L180.825 48.6284L179.453 48.8804L179.838 50.9721L180.222 53.0638L181.593 52.8118L181.209 50.7201ZM179.838 50.9721L179.453 48.8804L178.082 49.1323L178.466 51.224L178.85 53.3157L180.222 53.0638L179.838 50.9721ZM178.466 51.224L178.082 49.1323C177.293 49.2773 176.508 49.3486 175.725 49.3477L175.722 51.4744L175.72 53.6011C176.766 53.6023 177.81 53.5067 178.85 53.3157L178.466 51.224ZM175.722 51.4744L175.725 49.3477L174.353 49.3461L174.351 51.4728L174.348 53.5995L175.72 53.6011L175.722 51.4744ZM174.351 51.4728L174.353 49.3461L172.981 49.3445L172.979 51.4712L172.977 53.5979L174.348 53.5995L174.351 51.4728ZM172.979 51.4712L172.981 49.3445C172.05 49.3434 171.119 49.3533 170.188 49.374L170.236 51.5001L170.283 53.6263C171.181 53.6063 172.079 53.5968 172.977 53.5979L172.979 51.4712ZM170.236 51.5001L170.188 49.374L168.817 49.4045L168.864 51.5307L168.911 53.6568L170.283 53.6263L170.236 51.5001ZM168.864 51.5307L168.817 49.4045L167.445 49.4351L167.492 51.5612L167.539 53.6874L168.911 53.6568L168.864 51.5307ZM167.492 51.5612L167.445 49.4351C166.613 49.4536 165.782 49.4234 164.949 49.3445L164.749 51.4617L164.548 53.5789C165.545 53.6734 166.542 53.7096 167.539 53.6874L167.492 51.5612ZM164.749 51.4617L164.949 49.3445L163.578 49.2145L163.377 51.3317L163.176 53.4489L164.548 53.5789L164.749 51.4617ZM163.377 51.3317L163.578 49.2145L162.206 49.0845L162.005 51.2017L161.805 53.3189L163.176 53.4489L163.377 51.3317ZM162.005 51.2017L162.206 49.0845C161.259 48.9947 160.311 48.9271 159.364 48.8816L159.262 51.0059L159.16 53.1301C160.041 53.1724 160.923 53.2353 161.805 53.3189L162.005 51.2017ZM159.262 51.0059L159.364 48.8816L157.992 48.8158L157.89 50.9401L157.788 53.0643L159.16 53.1301L159.262 51.0059ZM157.89 50.9401L157.992 48.8158L156.62 48.75L156.518 50.8742L156.417 52.9985L157.788 53.0643L157.89 50.9401ZM156.518 50.8742L156.62 48.75C155.655 48.7037 154.689 48.6924 153.723 48.7162L153.775 50.8422L153.827 52.9683C154.69 52.947 155.553 52.9571 156.417 52.9985L156.518 50.8742ZM153.775 50.8422L153.723 48.7162L152.351 48.75L152.403 50.876L152.456 53.0021L153.827 52.9683L153.775 50.8422ZM152.403 50.876L152.351 48.75L150.979 48.7838L151.032 50.9098L151.084 53.0359L152.456 53.0021L152.403 50.876ZM151.032 50.9098L150.979 48.7838C150.053 48.8066 149.126 48.8375 148.199 48.8763L148.288 51.0011L148.377 53.1259C149.28 53.0881 150.182 53.0581 151.084 53.0359L151.032 50.9098ZM148.288 51.0011L148.199 48.8763L146.827 48.9338L146.917 51.0586L147.006 53.1835L148.377 53.1259L148.288 51.0011ZM146.917 51.0586L146.827 48.9338L145.456 48.9913L145.545 51.1162L145.634 53.241L147.006 53.1835L146.917 51.0586ZM145.545 51.1162L145.456 48.9913C144.514 49.0308 143.572 49.0884 142.631 49.1641L142.801 51.2839L142.972 53.4038C143.859 53.3325 144.747 53.2782 145.634 53.241L145.545 51.1162ZM142.801 51.2839L142.631 49.1641L141.259 49.2744L141.43 51.3942L141.6 53.5141L142.972 53.4038L142.801 51.2839ZM141.43 51.3942L141.259 49.2744L139.888 49.3846L140.058 51.5045L140.228 53.6243L141.6 53.5141L141.43 51.3942ZM140.058 51.5045L139.888 49.3846C139.229 49.4375 138.564 49.3746 137.881 49.1857L137.315 51.2355L136.748 53.2853C137.894 53.6021 139.058 53.7185 140.228 53.6243L140.058 51.5045ZM137.315 51.2355L137.881 49.1857L136.51 48.8065L135.943 50.8563L135.376 52.906L136.748 53.2853L137.315 51.2355ZM135.943 50.8563L136.51 48.8065L135.138 48.4272L134.571 50.477L134.004 52.5268L135.376 52.906L135.943 50.8563ZM134.571 50.477L135.138 48.4272C133.987 48.109 132.818 47.9964 131.642 48.0997L131.828 50.2182L132.014 52.3368C132.667 52.2794 133.326 52.3393 134.004 52.5268L134.571 50.477ZM131.828 50.2182L131.642 48.0997L130.27 48.2201L130.456 50.3387L130.642 52.4572L132.014 52.3368L131.828 50.2182ZM130.456 50.3387L130.27 48.2201L128.898 48.3406L129.084 50.4591L129.27 52.5777L130.642 52.4572L130.456 50.3387ZM129.084 50.4591L128.898 48.3406C128.19 48.4028 127.48 48.3629 126.762 48.2178L126.341 50.3023L125.919 52.3868C127.03 52.6114 128.149 52.6761 129.27 52.5777L129.084 50.4591ZM126.341 50.3023L126.762 48.2178L125.391 47.9404L124.969 50.025L124.548 52.1095L125.919 52.3868L126.341 50.3023ZM124.969 50.025L125.391 47.9404L124.019 47.6631L123.597 49.7476L123.176 51.8321L124.548 52.1095L124.969 50.025ZM123.597 49.7476L124.019 47.6631C122.932 47.4433 121.838 47.3613 120.741 47.4199L120.854 49.5436L120.967 51.6672C121.699 51.6281 122.434 51.6822 123.176 51.8321L123.597 49.7476ZM120.854 49.5436L120.741 47.4199L119.369 47.4931L119.482 49.6168L119.596 51.7405L120.967 51.6672L120.854 49.5436ZM119.482 49.6168L119.369 47.4931L117.997 47.5664L118.111 49.69L118.224 51.8137L119.596 51.7405L119.482 49.6168ZM118.111 49.69L117.997 47.5664C117.16 47.6111 116.323 47.6101 115.485 47.5635L115.367 49.6869L115.249 51.8102C116.24 51.8655 117.232 51.8667 118.224 51.8137L118.111 49.69ZM115.367 49.6869L115.485 47.5635L114.114 47.487L113.995 49.6104L113.877 51.7338L115.249 51.8102L115.367 49.6869ZM113.995 49.6104L114.114 47.487L112.742 47.4106L112.624 49.534L112.505 51.6574L113.877 51.7338L113.995 49.6104ZM112.624 49.534L112.742 47.4106C111.674 47.3511 110.608 47.4067 109.545 47.5763L109.88 49.6764L110.215 51.7765C110.982 51.6543 111.744 51.6149 112.505 51.6574L112.624 49.534ZM109.88 49.6764L109.545 47.5763L108.174 47.7951L108.509 49.8953L108.844 51.9954L110.215 51.7765L109.88 49.6764ZM108.509 49.8953L108.174 47.7951L106.802 48.014L107.137 50.1141L107.472 52.2143L108.844 51.9954L108.509 49.8953ZM107.137 50.1141L106.802 48.014C106.038 48.1359 105.278 48.1738 104.519 48.129L104.393 50.252L104.268 52.375C105.338 52.4382 106.407 52.3842 107.472 52.2143L107.137 50.1141ZM104.393 50.252L104.519 48.129L103.147 48.048L103.022 50.171L102.896 52.294L104.268 52.375L104.393 50.252ZM103.022 50.171L103.147 48.048L101.775 47.967L101.65 50.09L101.525 52.213L102.896 52.294L103.022 50.171ZM101.65 50.09L101.775 47.967C100.837 47.9116 99.899 47.872 98.9607 47.8481L98.9066 49.9741L98.8525 52.1001C99.7432 52.1227 100.634 52.1604 101.525 52.213L101.65 50.09ZM98.9066 49.9741L98.9607 47.8481L97.589 47.8132L97.5349 49.9392L97.4808 52.0652L98.8525 52.1001L98.9066 49.9741ZM97.5349 49.9392L97.589 47.8132L96.2173 47.7783L96.1632 49.9042L96.1091 52.0302L97.4808 52.0652L97.5349 49.9392ZM96.1632 49.9042L96.2173 47.7783C95.2211 47.7529 94.2251 47.7849 93.2298 47.8742L93.4198 49.9924L93.6097 52.1105C94.4434 52.0358 95.2763 52.009 96.1091 52.0302L96.1632 49.9042ZM93.4198 49.9924L93.2298 47.8742L91.8581 47.9972L92.048 50.1154L92.238 52.2336L93.6097 52.1105L93.4198 49.9924ZM92.048 50.1154L91.8581 47.9972L90.4864 48.1202L90.6763 50.2384L90.8663 52.3566L92.238 52.2336L92.048 50.1154ZM90.6763 50.2384L90.4864 48.1202C89.478 48.2106 88.4721 48.3683 87.4693 48.5923L87.9329 50.6678L88.3966 52.7434C89.2227 52.5588 90.0457 52.4302 90.8663 52.3566L90.6763 50.2384ZM87.9329 50.6678L87.4693 48.5923L86.0975 48.8987L86.5612 50.9743L87.0248 53.0498L88.3966 52.7434L87.9329 50.6678ZM86.5612 50.9743L86.0975 48.8987L84.7258 49.2052L85.1895 51.2807L85.6531 53.3562L87.0248 53.0498L86.5612 50.9743ZM85.1895 51.2807L84.7258 49.2052C84.0512 49.3559 83.3881 49.385 82.7251 49.2972L82.4461 51.4055L82.167 53.5138C83.333 53.6682 84.4988 53.6141 85.6531 53.3562L85.1895 51.2807ZM82.4461 51.4055L82.7251 49.2972L81.3534 49.1157L81.0743 51.224L80.7953 53.3323L82.167 53.5138L82.4461 51.4055ZM81.0743 51.224L81.3534 49.1157L79.9817 48.9341L79.7026 51.0424L79.4236 53.1507L80.7953 53.3323L81.0743 51.224ZM79.7026 51.0424L79.9817 48.9341C78.9662 48.7997 77.9489 48.7391 76.9307 48.7527L76.9592 50.8792L76.9877 53.0057C77.7985 52.9949 78.6102 53.043 79.4236 53.1507L79.7026 51.0424ZM76.9592 50.8792L76.9307 48.7527L75.559 48.7711L75.5875 50.8976L75.616 53.0241L76.9877 53.0057L76.9592 50.8792ZM75.5875 50.8976L75.559 48.7711L74.1873 48.7895L74.2158 50.916L74.2443 53.0425L75.616 53.0241L75.5875 50.8976ZM74.2158 50.916L74.1873 48.7895C73.2784 48.8016 72.3695 48.8103 71.4605 48.8153L71.4724 50.942L71.4842 53.0686C72.4042 53.0635 73.3242 53.0548 74.2443 53.0425L74.2158 50.916ZM71.4724 50.942L71.4605 48.8153L70.0888 48.8229L70.1007 50.9496L70.1125 53.0762L71.4842 53.0686L71.4724 50.942ZM70.1007 50.9496L70.0888 48.8229L68.7171 48.8306L68.7289 50.9572L68.7408 53.0839L70.1125 53.0762L70.1007 50.9496ZM68.7289 50.9572L68.7171 48.8306C67.9912 48.8346 67.2587 48.7436 66.5154 48.5523L65.9855 50.612L65.4557 52.6716C66.5413 52.9509 67.6377 53.09 68.7408 53.0839L68.7289 50.9572ZM65.9855 50.612L66.5154 48.5523L65.1436 48.1995L64.6138 50.2591L64.084 52.3187L65.4557 52.6716L65.9855 50.612ZM64.6138 50.2591L65.1436 48.1995L63.7719 47.8466L63.2421 49.9062L62.7123 51.9659L64.084 52.3187L64.6138 50.2591ZM63.2421 49.9062L63.7719 47.8466C62.4841 47.5153 61.181 47.5391 59.9033 47.9118L60.4987 49.9534L61.0941 51.995C61.6453 51.8343 62.1711 51.8267 62.7123 51.9659L63.2421 49.9062ZM60.4987 49.9534L59.9033 47.9118L58.5315 48.3118L59.127 50.3535L59.7224 52.3951L61.0941 51.995L60.4987 49.9534ZM59.127 50.3535L58.5315 48.3118L57.1598 48.7119L57.7552 50.7535L58.3507 52.7951L59.7224 52.3951L59.127 50.3535ZM57.7552 50.7535L57.1598 48.7119C56.4114 48.9302 55.6757 49.0469 54.9488 49.0685L55.0118 51.1942L55.0749 53.32C56.1769 53.2873 57.2702 53.1103 58.3507 52.7951L57.7552 50.7535ZM55.0118 51.1942L54.9488 49.0685L53.5771 49.1092L53.6401 51.2349L53.7032 53.3607L55.0749 53.32L55.0118 51.1942ZM53.6401 51.2349L53.5771 49.1092L52.2054 49.1498L52.2684 51.2756L52.3314 53.4013L53.7032 53.3607L53.6401 51.2349ZM52.2684 51.2756L52.2054 49.1498C51.4584 49.172 50.7082 49.1069 49.9514 48.952L49.525 51.0355L49.0986 53.119C50.1707 53.3385 51.2494 53.4334 52.3314 53.4013L52.2684 51.2756ZM49.525 51.0355L49.9514 48.952L48.5797 48.6713L48.1533 50.7548L47.7268 52.8383L49.0986 53.119L49.525 51.0355ZM48.1533 50.7548L48.5797 48.6713L47.208 48.3905L46.7816 50.474L46.3551 52.5575L47.7268 52.8383L48.1533 50.7548ZM46.7816 50.474L47.208 48.3905C46.0281 48.1491 44.8392 48.1357 43.656 48.3518L44.0381 50.4439L44.4203 52.5359C45.066 52.418 45.706 52.4247 46.3551 52.5575L46.7816 50.474ZM44.0381 50.4439L43.656 48.3518L42.2843 48.6024L42.6664 50.6944L43.0486 52.7865L44.4203 52.5359L44.0381 50.4439ZM42.6664 50.6944L42.2843 48.6024L40.9126 48.8529L41.2947 50.945L41.6769 53.0371L43.0486 52.7865L42.6664 50.6944ZM41.2947 50.945L40.9126 48.8529C40.1968 48.9837 39.4874 49.01 38.7781 48.9339L38.5513 51.0484L38.3244 53.163C39.4441 53.2831 40.5637 53.2404 41.6769 53.0371L41.2947 50.945ZM38.5513 51.0484L38.7781 48.9339L37.4064 48.7867L37.1796 50.9013L36.9527 53.0158L38.3244 53.163L38.5513 51.0484ZM37.1796 50.9013L37.4064 48.7867L36.0347 48.6396L35.8079 50.7541L35.581 52.8687L36.9527 53.0158L37.1796 50.9013ZM35.8079 50.7541L36.0347 48.6396C35.1883 48.5488 34.3406 48.4165 33.4912 48.2425L33.0644 50.326L32.6377 52.4094C33.6173 52.6101 34.5985 52.7632 35.581 52.8687L35.8079 50.7541ZM33.0644 50.326L33.4912 48.2425L32.1195 47.9616L31.6927 50.045L31.266 52.1284L32.6377 52.4094L33.0644 50.326ZM31.6927 50.045L32.1195 47.9616L30.7478 47.6806L30.321 49.764L29.8943 51.8474L31.266 52.1284L31.6927 50.045ZM30.321 49.764L30.7478 47.6806C29.5119 47.4274 28.2693 47.4623 27.0449 47.779L27.5776 49.8379L28.1102 51.8968C28.7148 51.7404 29.3012 51.726 29.8943 51.8474L30.321 49.764ZM27.5776 49.8379L27.0449 47.779L25.6732 48.1339L26.2059 50.1928L26.7385 52.2517L28.1102 51.8968L27.5776 49.8379ZM26.2059 50.1928L25.6732 48.1339L24.3015 48.4888L24.8342 50.5477L25.3668 52.6066L26.7385 52.2517L26.2059 50.1928ZM24.8342 50.5477L24.3015 48.4888C23.6007 48.6701 22.9144 48.734 22.2341 48.688L22.0907 50.8098L21.9473 52.9317C23.096 53.0093 24.2386 52.8984 25.3668 52.6066L24.8342 50.5477ZM22.0907 50.8098L22.2341 48.688L20.8624 48.5953L20.719 50.7171L20.5756 52.839L21.9473 52.9317L22.0907 50.8098ZM20.719 50.7171L20.8624 48.5953L19.4907 48.5026L19.3473 50.6244L19.2039 52.7463L20.5756 52.839L20.719 50.7171ZM19.3473 50.6244L19.4907 48.5026C18.5432 48.4386 17.5861 48.3961 16.6195 48.3752L16.5734 50.5014L16.5273 52.6276C17.4303 52.6471 18.3225 52.6867 19.2039 52.7463L19.3473 50.6244ZM16.5734 50.5014L16.6195 48.3752L15.2172 48.3448L15.1712 50.471L15.1251 52.5972L16.5273 52.6276L16.5734 50.5014ZM15.1712 50.471L15.2172 48.3448L13.815 48.3144L13.769 50.4406L13.7229 52.5668L15.1251 52.5972L15.1712 50.471ZM13.769 50.4406L13.815 48.3144C13.4549 48.3066 13.2123 48.1985 12.9643 47.9326L11.4089 49.3829L9.85342 50.8332C10.8827 51.9371 12.2134 52.5341 13.7229 52.5668L13.769 50.4406ZM11.4089 49.3829L12.9643 47.9326L12.0065 46.9053L10.451 48.3555L8.89553 49.8058L9.85342 50.8332L11.4089 49.3829ZM10.451 48.3555L12.0065 46.9053L11.0486 45.8779L9.49311 47.3282L7.93764 48.7785L8.89553 49.8058L10.451 48.3555ZM9.49311 47.3282L11.0486 45.8779C10.2963 45.0711 9.45529 44.3576 8.52935 43.738L7.34668 45.5056L6.16401 47.2731C6.82279 47.7139 7.41271 48.2155 7.93764 48.7785L9.49311 47.3282ZM7.34668 45.5056L8.52935 43.738L7.34081 42.9428L6.15814 44.7103L4.97547 46.4778L6.16401 47.2731L7.34668 45.5056ZM6.15814 44.7103L7.34081 42.9428L6.15227 42.1475L4.9696 43.915L3.78694 45.6825L4.97547 46.4778L6.15814 44.7103ZM4.9696 43.915L6.15227 42.1475C6.08106 42.0999 6.04267 42.0631 6.02407 42.0428C6.0065 42.0236 6.00168 42.0138 6.00075 42.0119C5.99981 42.01 5.99487 42.0003 5.9901 41.9748C5.98504 41.9479 5.97879 41.8953 5.98352 41.8099L3.86009 41.6923L1.73665 41.5748C1.64241 43.2771 2.37016 44.7345 3.78694 45.6825L4.9696 43.915ZM3.86009 41.6923L5.98352 41.8099L6.06254 40.3825L3.93911 40.2649L1.81567 40.1474L1.73665 41.5748L3.86009 41.6923ZM3.93911 40.2649L6.06254 40.3825L6.14156 38.955L4.01813 38.8375L1.8947 38.7199L1.81567 40.1474L3.93911 40.2649ZM4.01813 38.8375L6.14156 38.955C6.19722 37.9497 6.21335 36.9658 6.18918 36.0037L4.06317 36.0571L1.93715 36.1105C1.9583 36.9524 1.9444 37.8221 1.8947 38.7199L4.01813 38.8375ZM4.06317 36.0571L6.18918 36.0037L6.1552 34.6508L4.02918 34.7042L1.90317 34.7576L1.93715 36.1105L4.06317 36.0571ZM4.02918 34.7042L6.1552 34.6508L6.12121 33.2979L3.9952 33.3513L1.86919 33.4047L1.90317 34.7576L4.02918 34.7042ZM3.9952 33.3513L6.12121 33.2979C6.09248 32.1541 5.87137 31.0233 5.47545 29.9126L3.47224 30.6267L1.46902 31.3408C1.72508 32.0591 1.8526 32.7447 1.86919 33.4047L3.9952 33.3513ZM3.47224 30.6267L5.47545 29.9126L4.98647 28.5409L2.98326 29.255L0.980045 29.9691L1.46902 31.3408L3.47224 30.6267ZM2.98326 29.255L4.98647 28.5409L4.49749 27.1692L2.49428 27.8833L0.491066 28.5974L0.980045 29.9691L2.98326 29.255ZM2.49428 27.8833L4.49749 27.1692C4.27532 26.546 4.21174 25.9607 4.27919 25.3891L2.16715 25.1399L0.0551217 24.8907C-0.0932372 26.148 0.0612624 27.3917 0.491066 28.5974L2.49428 27.8833ZM2.16715 25.1399L4.27919 25.3891L4.44104 24.0174L2.32901 23.7682L0.216976 23.5189L0.0551217 24.8907L2.16715 25.1399ZM2.32901 23.7682L4.44104 24.0174L4.6029 22.6456L2.49086 22.3964L0.37883 22.1472L0.216976 23.5189L2.32901 23.7682ZM2.49086 22.3964L4.6029 22.6456C4.70201 21.8057 4.84525 20.9726 5.03271 20.1463L2.95872 19.6758L0.884725 19.2053C0.664182 20.1775 0.495522 21.1583 0.37883 22.1472L2.49086 22.3964ZM2.95872 19.6758L5.03271 20.1463L5.3387 18.7974L3.26471 18.3269L1.19072 17.8564L0.884725 19.2053L2.95872 19.6758ZM3.26471 18.3269L5.3387 18.7974L5.6447 17.4485L3.57071 16.978L1.49672 16.5075L1.19072 17.8564L3.26471 18.3269ZM3.57071 16.978L5.6447 17.4485C5.87252 16.4442 6.02413 15.4237 6.09998 14.3881L3.97898 14.2327L1.85798 14.0774C1.79747 14.9035 1.6769 15.7132 1.49672 16.5075L3.57071 16.978ZM3.97898 14.2327L6.09998 14.3881L6.20225 12.9917L4.08125 12.8364L1.96025 12.6811L1.85798 14.0774L3.97898 14.2327ZM4.08125 12.8364L6.20225 12.9917L6.30453 11.5954L4.18352 11.4401L2.06252 11.2847L1.96025 12.6811L4.08125 12.8364ZM4.18352 11.4401L6.30453 11.5954C6.33927 11.121 6.50123 10.7165 6.83038 10.3268L5.2056 8.95459L3.58082 7.58241C2.68356 8.64484 2.16413 9.89732 2.06252 11.2847L4.18352 11.4401ZM5.2056 8.95459L6.83038 10.3268L7.75019 9.23765L6.12541 7.86546L4.50063 6.49328L3.58082 7.58241L5.2056 8.95459ZM6.12541 7.86546L7.75019 9.23765L8.66999 8.14852L7.04522 6.77634L5.42044 5.40415L4.50063 6.49328L6.12541 7.86546ZM7.04522 6.77634L8.66999 8.14852C9.11311 7.62383 9.63327 7.19888 10.2417 6.86622L9.22143 5.00024L8.20117 3.13427C7.13438 3.71756 6.20373 4.47667 5.42044 5.40415L7.04522 6.77634ZM9.22143 5.00024L10.2417 6.86622L11.4981 6.17925L10.4778 4.31328L9.45758 2.4473L8.20117 3.13427L9.22143 5.00024ZM10.4778 4.31328L11.4981 6.17925L12.7545 5.49229L11.7342 3.62632L10.714 1.76034L9.45758 2.4473L10.4778 4.31328ZM11.7342 3.62632L12.7545 5.49229C13.2951 5.19672 13.5497 5.22521 13.6222 5.24011L14.05 3.1569L14.4778 1.07368C13.1379 0.798518 11.8486 1.13996 10.714 1.76034L11.7342 3.62632ZM14.05 3.1569L13.6222 5.24011L14.6816 5.45766L15.1094 3.37444L15.5372 1.29122L14.4778 1.07368L14.05 3.1569ZM15.1094 3.37444L14.6816 5.45766L15.741 5.6752L16.1688 3.59198L16.5966 1.50877L15.5372 1.29122L15.1094 3.37444ZM16.1688 3.59198L15.741 5.6752C16.1166 5.75232 16.524 5.82245 16.8849 5.83577C17.0335 5.84125 17.3848 5.84903 17.7731 5.73254C17.9736 5.67238 18.3474 5.53196 18.6954 5.1931C19.101 4.79809 19.3549 4.24237 19.3549 3.63107H17.2282H15.1015C15.1015 3.04951 15.3444 2.51942 15.7279 2.14589C16.0538 1.82853 16.3945 1.70547 16.5509 1.65856C16.7244 1.60649 16.8602 1.59302 16.9193 1.58856C16.9864 1.5835 17.0306 1.58488 17.0418 1.58529C17.0495 1.58558 16.9273 1.57668 16.5966 1.50877L16.1688 3.59198ZM17.2282 3.63107H19.3549V3.45262H17.2282H15.1015V3.63107H17.2282ZM17.2282 3.45262H19.3549V3.27416H17.2282H15.1015V3.45262H17.2282ZM17.2282 3.27416H19.3549C19.3549 4.00751 18.9857 4.50808 18.7356 4.7523C18.5032 4.9793 18.2787 5.08782 18.1968 5.12517C18.0248 5.20366 17.916 5.21723 17.9805 5.20458C18.0716 5.18671 18.3045 5.15593 18.7401 5.12716L18.5999 3.0051L18.4597 0.883036C17.9808 0.91467 17.5279 0.958931 17.1618 1.03075C16.9976 1.06295 16.7173 1.12502 16.431 1.25567C16.292 1.31911 16.0246 1.45463 15.7636 1.70953C15.485 1.98167 15.1015 2.51107 15.1015 3.27416H17.2282ZM18.5999 3.0051L18.7401 5.12716L20.1118 5.03655L19.9716 2.91449L19.8314 0.792429L18.4597 0.883036L18.5999 3.0051Z" fill="black"/>
<path d="M54.9699 27.1871C54.6792 28.2339 54.2721 29.8136 53.7487 31.9265C53.626 32.6566 53.5064 33.3835 53.3901 34.1072C53.1252 35.0247 52.6374 35.4834 51.9267 35.4834C51.4808 35.4834 51.1287 35.3316 50.8702 35.0279C50.6506 34.7694 50.5407 34.4625 50.5407 34.1072C50.5407 33.0604 50.7636 31.7843 51.2095 30.2789C51.875 28.0239 52.2336 26.7736 52.2853 26.5281C52.4726 25.533 52.6632 24.538 52.8571 23.543C53.1478 22.1732 53.4612 21.2621 53.7972 20.8098C54.1396 20.3511 54.5693 20.1217 55.0862 20.1217C55.6742 20.1217 56.1071 20.4189 56.3849 21.0134C56.6434 21.5755 56.9212 22.7256 57.2184 24.4637C57.5027 26.1501 57.926 27.9657 58.4881 29.9106C59.2247 27.9916 59.9096 25.8852 60.5428 23.5914L61.0855 21.3623C61.4344 20.4383 61.974 19.9763 62.7041 19.9763C63.4084 19.9763 63.9317 20.5126 64.2742 21.5852C64.4163 22.0181 64.5682 22.8258 64.7297 24.0082C65.1044 26.7607 65.5761 29.1191 66.1447 31.0833C66.7198 33.0798 67.0073 34.1653 67.0073 34.3398C67.0073 34.721 66.8554 35.0408 66.5518 35.2993C66.2675 35.5319 65.9476 35.6482 65.5923 35.6482C64.888 35.6482 64.3646 35.1442 64.0222 34.1362L63.4794 31.7908C63.1693 30.6278 62.8333 28.9575 62.4715 26.7801C62.1807 27.6459 61.6993 29.006 61.0274 30.8604L60.4459 32.6437C60.2068 33.348 59.958 33.9262 59.6996 34.3785C59.3571 34.9794 58.879 35.2799 58.2652 35.2799C57.6578 35.2799 57.1926 34.9213 56.8695 34.2041L56.3268 32.4014C55.8228 30.7473 55.3705 29.0092 54.9699 27.1871ZM73.2392 35.2896C71.6949 35.2896 70.4318 34.9213 69.4497 34.1847C68.3642 33.3706 67.8214 32.2237 67.8214 30.7441C67.8214 29.1094 68.2511 27.7266 69.1104 26.5959C70.0667 25.3424 71.3557 24.7157 72.9775 24.7157C74.1018 24.7157 75.0354 24.8966 75.7785 25.2584C76.7541 25.7366 77.242 26.4796 77.242 27.4876C77.242 28.1983 76.8446 28.8283 76.0499 29.3775C75.688 29.6295 74.9611 29.9978 73.8692 30.4824L70.603 31.9265C70.9131 32.2625 71.2879 32.5145 71.7273 32.6825C72.1666 32.8504 72.6706 32.9344 73.2392 32.9344C74.105 32.9344 74.8384 32.7568 75.4393 32.4014C75.9755 32.0848 76.4052 31.9265 76.7283 31.9265C77.4003 31.9265 77.7362 32.2528 77.7362 32.9054C77.7362 33.642 77.1967 34.2429 76.1177 34.7081C75.2131 35.0957 74.2536 35.2896 73.2392 35.2896ZM72.9775 27.0611C72.3766 27.0611 71.8629 27.2614 71.4365 27.662C71.0101 28.0626 70.6676 28.6635 70.4092 29.4647C71.1393 29.1481 71.8662 28.8348 72.5898 28.5246C73.4621 28.1305 74.1567 27.7654 74.6736 27.4294C74.2407 27.1839 73.6753 27.0611 72.9775 27.0611ZM82.3399 25.9756C82.8116 25.5104 83.3156 25.1648 83.8518 24.9386C84.3946 24.706 84.9729 24.5897 85.5867 24.5897C86.6916 24.5897 87.4863 24.8998 87.9709 25.5201C88.3327 25.9853 88.5524 26.6993 88.63 27.662C88.6623 28.4568 88.6978 29.2547 88.7366 30.0559C88.84 31.0962 88.9046 31.7294 88.9304 31.9556C89.0209 32.6728 89.1307 33.2995 89.2599 33.8358C89.2922 33.9715 89.3084 34.091 89.3084 34.1944C89.3084 34.5562 89.1695 34.8534 88.8916 35.086C88.6203 35.3251 88.3004 35.4446 87.9321 35.4446C87.2796 35.4446 86.8563 35.1216 86.6625 34.4755C86.5074 33.9521 86.3653 33.2155 86.2361 32.2657C86.1198 31.3547 86.0616 30.6051 86.0616 30.0172C86.0616 29.8556 86.0681 29.6133 86.081 29.2903C86.1004 28.9608 86.1101 28.7152 86.1101 28.5537C86.1101 28.0756 86.1036 27.7977 86.0907 27.7202C86.0325 27.3648 85.8645 27.1871 85.5867 27.1871C84.8695 27.1871 84.2201 27.5167 83.6386 28.1757C83.3414 28.5052 82.9343 29.132 82.4174 30.0559C82.4174 32.3949 82.3044 33.8035 82.0782 34.2816C81.8262 34.8114 81.4256 35.0764 80.8764 35.0764C80.5146 35.0764 80.1915 34.9568 79.9072 34.7178C79.6294 34.4722 79.4905 34.1718 79.4905 33.8164C79.4905 33.6936 79.526 33.5224 79.5971 33.3027C79.6423 33.1606 79.6811 32.2883 79.7134 30.6859C79.6811 29.3872 79.6876 27.2259 79.7328 24.202L79.7522 23.8822C79.7909 23.1198 79.8103 22.6093 79.8103 22.3509C79.8103 22.1506 79.778 21.8566 79.7134 21.4689C79.6552 21.0748 79.6262 20.7775 79.6262 20.5772C79.6262 20.2089 79.7586 19.9085 80.0235 19.6759C80.2885 19.4368 80.6083 19.3173 80.983 19.3173C81.6227 19.3173 82.0524 19.6597 82.2721 20.3446C82.3948 20.7323 82.4562 21.3267 82.4562 22.1279C82.4562 22.7741 82.4368 23.4299 82.3981 24.0954C82.3593 24.7286 82.3399 25.3554 82.3399 25.9756ZM95.8214 35.2896C94.2771 35.2896 93.0139 34.9213 92.0318 34.1847C90.9463 33.3706 90.4036 32.2237 90.4036 30.7441C90.4036 29.1094 90.8333 27.7266 91.6926 26.5959C92.6489 25.3424 93.9379 24.7157 95.5597 24.7157C96.684 24.7157 97.6176 24.8966 98.3607 25.2584C99.3363 25.7366 99.8241 26.4796 99.8241 27.4876C99.8241 28.1983 99.4268 28.8283 98.632 29.3775C98.2702 29.6295 97.5433 29.9978 96.4513 30.4824L93.1852 31.9265C93.4953 32.2625 93.8701 32.5145 94.3094 32.6825C94.7488 32.8504 95.2528 32.9344 95.8214 32.9344C96.6872 32.9344 97.4205 32.7568 98.0214 32.4014C98.5577 32.0848 98.9874 31.9265 99.3105 31.9265C99.9824 31.9265 100.318 32.2528 100.318 32.9054C100.318 33.642 99.7789 34.2429 98.6999 34.7081C97.7953 35.0957 96.8358 35.2896 95.8214 35.2896ZM95.5597 27.0611C94.9588 27.0611 94.4451 27.2614 94.0187 27.662C93.5922 28.0626 93.2498 28.6635 92.9913 29.4647C93.7215 29.1481 94.4483 28.8348 95.172 28.5246C96.0443 28.1305 96.7389 27.7654 97.2558 27.4294C96.8229 27.1839 96.2575 27.0611 95.5597 27.0611ZM108.886 27.0418C108.75 27.0418 108.589 27.0385 108.401 27.0321C108.221 27.0191 108.062 27.0127 107.927 27.0127C107.662 27.0127 107.355 27.0385 107.006 27.0902C107.122 29.7006 107.18 31.4063 107.18 32.2075C107.18 32.2915 107.184 32.4498 107.19 32.6825C107.196 32.9086 107.2 33.0927 107.2 33.2349C107.2 34.721 106.731 35.464 105.794 35.464C105.439 35.464 105.132 35.3542 104.874 35.1345C104.589 34.9019 104.447 34.6111 104.447 34.2622C104.447 34.0296 104.457 33.6807 104.476 33.2155C104.496 32.7503 104.505 32.4014 104.505 32.1688C104.505 31.387 104.447 29.7135 104.331 27.1484C103.93 27.129 103.323 27.0773 102.509 26.9933C101.701 26.9028 101.297 26.4829 101.297 25.7333C101.297 25.3715 101.42 25.0646 101.666 24.8126C101.911 24.5606 102.228 24.4346 102.615 24.4346C102.854 24.4346 103.404 24.4734 104.263 24.5509C104.257 24.3442 104.24 24.0017 104.215 23.5236C104.189 23.1101 104.176 22.7902 104.176 22.5641C104.176 22.2023 104.308 21.9018 104.573 21.6627C104.838 21.4237 105.158 21.3041 105.533 21.3041C106.489 21.3041 106.967 22.1086 106.967 23.7174L106.948 24.5122C107.348 24.454 107.675 24.4249 107.927 24.4249C108.67 24.4249 109.177 24.4734 109.448 24.5703C109.965 24.7512 110.224 25.1454 110.224 25.7527C110.224 26.121 110.098 26.4279 109.846 26.6735C109.594 26.919 109.274 27.0418 108.886 27.0418ZM120.439 29.2418C120.439 29.6747 120.442 30.3273 120.449 31.1996C120.455 32.0719 120.458 32.7244 120.458 33.1574C120.458 33.293 120.468 33.4966 120.487 33.7679C120.513 34.0329 120.526 34.2332 120.526 34.3688C120.526 34.7307 120.394 35.0279 120.129 35.2605C119.87 35.4996 119.55 35.6191 119.169 35.6191C118.633 35.6191 118.242 35.3768 117.996 34.8922C117.169 35.1959 116.313 35.3477 115.428 35.3477C114.511 35.3477 113.739 35.1539 113.112 34.7662C112.407 34.3204 111.987 33.671 111.852 32.8181C111.6 31.2028 111.474 29.7587 111.474 28.4858C111.474 27.6459 111.571 26.6864 111.765 25.6073C111.894 24.8772 112.33 24.5122 113.073 24.5122C113.448 24.5122 113.768 24.6317 114.032 24.8708C114.297 25.1034 114.43 25.4006 114.43 25.7624C114.43 26.0467 114.381 26.4925 114.284 27.0999C114.194 27.7073 114.149 28.1692 114.149 28.4858C114.149 29.3969 114.178 30.1949 114.236 30.8798C114.301 31.5582 114.394 32.1203 114.517 32.5661C114.679 32.6372 114.834 32.6921 114.982 32.7309C115.137 32.7697 115.286 32.7891 115.428 32.7891C116.145 32.7891 116.934 32.6857 117.793 32.4789C117.793 31.9814 117.79 31.416 117.783 30.7828C117.77 30.0269 117.764 29.4841 117.764 29.1546C117.764 27.83 117.825 26.6864 117.948 25.7237C118.045 24.9548 118.484 24.5703 119.266 24.5703C119.647 24.5703 119.974 24.6898 120.245 24.9289C120.516 25.168 120.642 25.4684 120.623 25.8303C120.5 28.292 120.439 29.4292 120.439 29.2418ZM118.791 23.5624C118.41 23.5624 118.051 23.459 117.715 23.2522C117.315 23.0067 117.115 22.6965 117.115 22.3218C117.115 21.4172 117.786 20.9649 119.13 20.9649C119.479 20.9649 119.825 21.0812 120.167 21.3138C120.562 21.5787 120.759 21.8953 120.759 22.2636C120.759 22.6965 120.539 23.0325 120.1 23.2716C119.738 23.4654 119.302 23.5624 118.791 23.5624ZM114.614 23.5624C113.412 23.5624 112.811 23.1036 112.811 22.1861C112.811 21.876 113.012 21.5852 113.412 21.3138C113.787 21.0618 114.152 20.9358 114.507 20.9358C115.754 20.9358 116.375 21.4011 116.368 22.3315C116.368 22.6545 116.142 22.9485 115.69 23.2134C115.296 23.446 114.937 23.5624 114.614 23.5624ZM129.375 35.5319C128.58 35.5319 128.137 35.141 128.047 34.3592C127.957 33.6936 127.866 33.0249 127.776 32.3529C127.679 31.6422 127.63 30.9734 127.63 30.3467C127.63 30.1787 127.64 29.8912 127.659 29.4841C127.685 29.0771 127.698 28.7895 127.698 28.6215C127.698 28.5763 127.705 28.4632 127.717 28.2823C127.73 28.0949 127.737 27.9431 127.737 27.8268C127.737 27.2905 127.598 27.0224 127.32 27.0224C126.726 27.0224 126.141 27.3713 125.566 28.0691C124.997 28.7605 124.551 29.6392 124.228 30.7053C124.215 30.9185 124.186 31.2028 124.141 31.5582C124.102 31.8489 124.083 32.1332 124.083 32.4111C124.083 32.592 124.102 32.8666 124.141 33.2349C124.186 33.5967 124.209 33.8681 124.209 34.049C124.209 34.4173 124.08 34.721 123.821 34.9601C123.569 35.2056 123.25 35.3283 122.862 35.3283C122.474 35.3283 122.154 35.2056 121.902 34.9601C121.65 34.721 121.524 34.4173 121.524 34.049C121.524 33.8681 121.505 33.5967 121.466 33.2349C121.427 32.8666 121.408 32.592 121.408 32.4111C121.408 31.7908 121.453 30.9282 121.544 29.8233C121.634 28.7185 121.679 27.8559 121.679 27.2356C121.679 27.0418 121.666 26.7542 121.641 26.373C121.621 25.9853 121.612 25.6978 121.612 25.5104C121.612 25.1486 121.741 24.8514 121.999 24.6188C122.264 24.3797 122.587 24.2602 122.968 24.2602C123.815 24.2602 124.267 24.7674 124.325 25.7818L124.335 25.8884C125.278 24.9386 126.273 24.4637 127.32 24.4637C128.541 24.4637 129.384 24.9741 129.85 25.995C130.16 26.6799 130.315 27.704 130.315 29.0674V29.7555C130.308 30.0527 130.305 30.2627 130.305 30.3855C130.305 30.8894 130.373 31.5388 130.509 32.3335C130.651 33.1283 130.722 33.7744 130.722 34.2719C130.722 34.6338 130.593 34.9342 130.334 35.1733C130.076 35.4123 129.756 35.5319 129.375 35.5319ZM140.278 35.2411C139.768 35.2411 139.38 34.9956 139.115 34.5045C138.799 33.9166 138.324 33.222 137.69 32.4208C136.708 31.1737 136.188 30.5115 136.13 30.4339C135.613 30.8151 135.187 31.1059 134.851 31.3062C134.786 32.2043 134.754 33.0637 134.754 33.8842C134.754 34.259 134.628 34.5691 134.376 34.8147C134.124 35.0602 133.804 35.183 133.416 35.183C132.505 35.183 132.05 34.6402 132.05 33.5547C132.05 33.0443 132.085 32.2819 132.156 31.2674C132.234 30.2465 132.273 29.4809 132.273 28.9704C132.273 28.0336 132.286 26.9642 132.311 25.7624C132.344 24.5542 132.36 23.488 132.36 22.5641C132.36 22.2862 132.344 21.96 132.311 21.5852C132.286 21.204 132.273 20.8745 132.273 20.5966C132.273 20.2219 132.399 19.915 132.651 19.6759C132.903 19.4304 133.222 19.3076 133.61 19.3076C133.998 19.3076 134.318 19.4304 134.57 19.6759C134.822 19.915 134.948 20.2219 134.948 20.5966C134.948 20.8809 134.964 21.2169 134.996 21.6046C135.028 21.9923 135.045 22.3282 135.045 22.6125C135.045 23.3814 135.025 24.2925 134.986 25.3457C134.948 26.3536 134.932 27.2517 134.938 28.04C135.817 27.3616 137.154 26.1275 138.95 24.3377C139.235 24.0534 139.558 23.9113 139.92 23.9113C140.281 23.9113 140.601 24.0437 140.879 24.3086C141.157 24.5735 141.296 24.8805 141.296 25.2294C141.296 25.5266 141.17 25.8141 140.918 26.0919C140.155 26.9448 139.248 27.8365 138.194 28.7669L140.21 31.3644C141.186 32.6631 141.674 33.5289 141.674 33.9618C141.674 34.3172 141.532 34.6176 141.247 34.8631C140.963 35.1151 140.64 35.2411 140.278 35.2411ZM158.296 27.0418C158.16 27.0418 157.998 27.0385 157.811 27.0321C157.63 27.0191 157.472 27.0127 157.336 27.0127C157.071 27.0127 156.764 27.0385 156.415 27.0902C156.532 29.7006 156.59 31.4063 156.59 32.2075C156.59 32.2915 156.593 32.4498 156.599 32.6825C156.606 32.9086 156.609 33.0927 156.609 33.2349C156.609 34.721 156.141 35.464 155.204 35.464C154.848 35.464 154.542 35.3542 154.283 35.1345C153.999 34.9019 153.857 34.6111 153.857 34.2622C153.857 34.0296 153.866 33.6807 153.886 33.2155C153.905 32.7503 153.915 32.4014 153.915 32.1688C153.915 31.387 153.857 29.7135 153.74 27.1484C153.34 27.129 152.732 27.0773 151.918 26.9933C151.111 26.9028 150.707 26.4829 150.707 25.7333C150.707 25.3715 150.829 25.0646 151.075 24.8126C151.321 24.5606 151.637 24.4346 152.025 24.4346C152.264 24.4346 152.813 24.4734 153.672 24.5509C153.666 24.3442 153.65 24.0017 153.624 23.5236C153.598 23.1101 153.585 22.7902 153.585 22.5641C153.585 22.2023 153.718 21.9018 153.983 21.6627C154.248 21.4237 154.567 21.3041 154.942 21.3041C155.898 21.3041 156.377 22.1086 156.377 23.7174L156.357 24.5122C156.758 24.454 157.084 24.4249 157.336 24.4249C158.079 24.4249 158.586 24.4734 158.858 24.5703C159.375 24.7512 159.633 25.1454 159.633 25.7527C159.633 26.121 159.507 26.4279 159.255 26.6735C159.003 26.919 158.683 27.0418 158.296 27.0418ZM164.808 35.4156C163.613 35.4156 162.586 35.0053 161.726 34.1847C160.783 33.2866 160.289 32.088 160.244 30.589C160.198 29.1611 160.589 27.8882 161.416 26.7704C162.398 25.4523 163.765 24.7932 165.516 24.7932C166.808 24.7932 167.836 25.3101 168.598 26.3439C169.283 27.2744 169.625 28.4277 169.625 29.804C169.625 31.303 169.225 32.5823 168.424 33.642C167.525 34.8244 166.32 35.4156 164.808 35.4156ZM165.39 27.3519C164.595 27.3454 163.969 27.7073 163.51 28.4374C163.122 29.0512 162.928 29.7684 162.928 30.589C162.928 31.3644 163.148 31.9588 163.587 32.3723C163.936 32.7018 164.343 32.8666 164.808 32.8666C165.371 32.8666 165.858 32.676 166.272 32.2948C166.744 31.8489 166.996 31.2448 167.028 30.4824C167.112 28.4019 166.566 27.3584 165.39 27.3519ZM176.468 34.1265C176.436 34.4496 176.303 34.7145 176.07 34.9213C175.838 35.128 175.55 35.2314 175.208 35.2314C174.555 35.2314 174.093 34.8954 173.822 34.2235C173.124 32.4789 172.055 29.875 170.614 26.4118C170.53 26.2179 170.488 26.0338 170.488 25.8593C170.488 25.5104 170.627 25.2164 170.905 24.9774C171.189 24.7318 171.512 24.6091 171.874 24.6091C172.43 24.6091 172.827 24.8643 173.066 25.3747C173.434 26.1566 174.151 27.9851 175.218 30.8604C175.56 30.1302 176.032 29.0189 176.633 27.5263C176.814 27.0288 177.095 26.3342 177.476 25.4426C177.741 24.9257 178.141 24.6672 178.678 24.6672C179.039 24.6672 179.359 24.7868 179.637 25.0258C179.921 25.2649 180.064 25.5621 180.064 25.9175C180.064 26.1501 179.54 27.4294 178.493 29.7555C177.641 31.6551 176.965 33.1121 176.468 34.1265ZM189.281 35.4834C188.983 35.4834 188.512 35.1604 187.866 34.5142C187.271 34.7985 186.748 35.0117 186.295 35.1539C185.843 35.3025 185.459 35.3768 185.142 35.3768C183.585 35.3768 182.415 34.9601 181.634 34.1265C180.858 33.293 180.471 32.046 180.471 30.3855C180.471 28.8283 181.046 27.4973 182.196 26.3924C183.346 25.2811 184.722 24.7254 186.325 24.7254C186.938 24.7254 187.649 24.8998 188.457 25.2487C189.432 25.6687 189.92 26.1566 189.92 26.7122C189.92 26.9448 189.846 27.1484 189.697 27.3228C189.633 27.5813 189.581 27.9076 189.542 28.3017C189.51 28.6894 189.494 29.1449 189.494 29.6683C189.494 30.9024 189.581 31.7908 189.755 32.3335C189.775 32.3917 189.923 32.7277 190.201 33.3415C190.453 33.8972 190.579 34.2138 190.579 34.2913C190.579 34.6338 190.447 34.9181 190.182 35.1442C189.923 35.3703 189.623 35.4834 189.281 35.4834ZM186.877 28.8348C186.877 28.628 186.89 28.3922 186.916 28.1272C186.948 27.8559 186.993 27.5554 187.051 27.2259C186.922 27.1613 186.806 27.1161 186.703 27.0902C186.606 27.0579 186.522 27.0418 186.451 27.0418C185.572 27.0418 184.803 27.3874 184.144 28.0788C183.485 28.7637 183.155 29.5584 183.155 30.463C183.155 31.3288 183.31 31.9814 183.62 32.4208C183.931 32.8537 184.396 33.0701 185.016 33.0701C185.417 33.0701 185.795 33.0055 186.15 32.8763C186.512 32.7406 186.851 32.5435 187.168 32.2851C186.974 30.7473 186.877 29.5972 186.877 28.8348ZM188.796 20.6645C188.454 20.8971 188.03 21.2912 187.526 21.8469C186.997 22.4284 186.577 22.8322 186.266 23.0584C186.014 23.2458 185.737 23.3394 185.433 23.3394C185.09 23.3394 184.793 23.2296 184.541 23.0099C184.289 22.7902 184.163 22.535 184.163 22.2443C184.163 22.0052 184.299 21.7435 184.57 21.4592C184.809 21.2395 185.045 21.0198 185.278 20.8002C185.969 20.0442 186.376 19.6113 186.499 19.5014C187.087 18.9716 187.607 18.7067 188.059 18.7067C188.402 18.7067 188.696 18.8198 188.941 19.0459C189.193 19.2721 189.319 19.5273 189.319 19.8116C189.319 20.1411 189.145 20.4254 188.796 20.6645ZM196.55 35.2508C195.645 35.2508 194.786 35.0925 193.971 34.7759C193.732 35.015 193.442 35.1345 193.099 35.1345C192.75 35.1345 192.45 35.0182 192.198 34.7856C191.952 34.553 191.83 34.2622 191.83 33.9133C191.83 33.7583 191.839 33.5224 191.859 33.2058C191.878 32.8828 191.888 32.6437 191.888 32.4886V21.5077C191.888 21.0425 191.991 20.6289 192.198 20.2671C192.456 19.8083 192.825 19.579 193.303 19.579C193.994 19.579 194.34 19.9537 194.34 20.7032C194.34 20.7872 194.327 20.9229 194.301 21.1103C194.282 21.2912 194.272 21.4237 194.272 21.5077V25.2197C194.75 24.9548 195.209 24.7577 195.648 24.6285C196.088 24.4928 196.511 24.4249 196.918 24.4249C198.436 24.4249 199.664 24.9774 200.601 26.0823C201.473 27.1161 201.909 28.3695 201.909 29.8427C201.909 31.3417 201.402 32.6114 200.388 33.6516C199.354 34.7178 198.074 35.2508 196.55 35.2508ZM196.918 26.9061C196.582 26.9061 196.194 27.003 195.755 27.1968C195.315 27.3907 194.821 27.6814 194.272 28.0691C194.265 28.6829 194.265 30.0559 194.272 32.1882C195.157 32.5694 195.916 32.76 196.55 32.76C197.37 32.76 198.045 32.4854 198.575 31.9362C199.105 31.3805 199.37 30.6827 199.37 29.8427C199.37 29.0028 199.153 28.3082 198.721 27.759C198.268 27.1904 197.667 26.9061 196.918 26.9061ZM208.335 35.2508C207.43 35.2508 206.571 35.0925 205.757 34.7759C205.518 35.015 205.227 35.1345 204.885 35.1345C204.536 35.1345 204.235 35.0182 203.983 34.7856C203.738 34.553 203.615 34.2622 203.615 33.9133C203.615 33.7583 203.625 33.5224 203.644 33.2058C203.663 32.8828 203.673 32.6437 203.673 32.4886V21.5077C203.673 21.0425 203.776 20.6289 203.983 20.2671C204.242 19.8083 204.61 19.579 205.088 19.579C205.779 19.579 206.125 19.9537 206.125 20.7032C206.125 20.7872 206.112 20.9229 206.086 21.1103C206.067 21.2912 206.057 21.4237 206.057 21.5077V25.2197C206.535 24.9548 206.994 24.7577 207.434 24.6285C207.873 24.4928 208.296 24.4249 208.703 24.4249C210.222 24.4249 211.449 24.9774 212.386 26.0823C213.258 27.1161 213.695 28.3695 213.695 29.8427C213.695 31.3417 213.187 32.6114 212.173 33.6516C211.139 34.7178 209.86 35.2508 208.335 35.2508ZM208.703 26.9061C208.367 26.9061 207.98 27.003 207.54 27.1968C207.101 27.3907 206.607 27.6814 206.057 28.0691C206.051 28.6829 206.051 30.0559 206.057 32.1882C206.942 32.5694 207.702 32.76 208.335 32.76C209.155 32.76 209.831 32.4854 210.361 31.9362C210.89 31.3805 211.155 30.6827 211.155 29.8427C211.155 29.0028 210.939 28.3082 210.506 27.759C210.054 27.1904 209.453 26.9061 208.703 26.9061ZM216.873 31.9652C216.512 31.9652 216.211 31.8522 215.972 31.626C215.74 31.3999 215.623 31.1156 215.623 30.7731C215.623 30.5212 215.614 30.1464 215.594 29.6489C215.581 29.1449 215.575 28.7669 215.575 28.5149C215.575 27.6233 215.581 26.2858 215.594 24.5025C215.614 22.7192 215.623 21.3817 215.623 20.49C215.623 20.1476 215.743 19.8633 215.982 19.6371C216.221 19.4045 216.518 19.2882 216.873 19.2882C217.229 19.2882 217.526 19.4045 217.765 19.6371C218.004 19.8633 218.124 20.1476 218.124 20.49V30.7731C218.124 31.1156 218.004 31.3999 217.765 31.626C217.533 31.8522 217.235 31.9652 216.873 31.9652ZM216.844 35.4834C216.457 35.4834 216.095 35.2767 215.759 34.8631C215.455 34.4819 215.303 34.1265 215.303 33.797C215.303 33.461 215.436 33.18 215.701 32.9538C215.966 32.7277 216.266 32.6146 216.602 32.6146C216.99 32.6146 217.348 32.8214 217.678 33.2349C217.982 33.6161 218.133 33.9682 218.133 34.2913C218.133 34.6208 218.001 34.9019 217.736 35.1345C217.478 35.3671 217.18 35.4834 216.844 35.4834Z" fill="black"/>
</svg>
