<svg width="380" height="76" viewBox="0 0 380 76" fill="none" xmlns="http://www.w3.org/2000/svg">
<path d="M4.30273 24.3672C4.30273 13.3215 13.257 4.36719 24.3027 4.36719H355.303C366.348 4.36719 375.303 13.3215 375.303 24.3672V51.3672C375.303 62.4129 366.348 71.3672 355.303 71.3672H24.3027C13.257 71.3672 4.30273 62.4129 4.30273 51.3672V24.3672Z" fill="#EEEEEE"/>
<path d="M37.8477 3.08242L37.4515 0.108706V0.108706L37.8477 3.08242ZM43.6527 3.92453L42.8326 6.81023L43.6527 3.92453ZM45.5877 4.4745L44.7676 7.3602L45.5877 4.4745ZM49.4577 5.00487L49.4273 2.00502L49.4577 5.00487ZM51.3927 4.98527L51.3623 1.98542L51.3927 4.98527ZM53.3277 4.96567L53.3581 7.96551L53.3277 4.96567ZM64.9377 5.04754L64.5601 2.0714L64.9377 5.04754ZM68.8077 4.55656L68.4301 1.58041L68.8077 4.55656ZM82.3527 4.81592L82.2038 7.81223L82.3527 4.81592ZM88.1577 5.13346L88.3514 2.13972L88.1577 5.13346ZM97.8327 5.18136L97.5797 2.19205L97.8327 5.18136ZM103.638 5.07388L103.977 2.09311L103.638 5.07388ZM111.378 5.40819L110.879 2.4499L111.378 5.40819ZM113.313 5.0821L112.814 2.12381L113.313 5.0821ZM115.248 4.75602L115.746 7.71431L115.248 4.75602ZM119.118 4.07927L118.583 1.12735L119.118 4.07927ZM121.053 3.72861L121.588 6.68053L121.053 3.72861ZM122.988 3.37794L122.453 0.426025L122.988 3.37794ZM126.858 3.66576L125.918 6.51467L126.858 3.66576ZM130.728 4.94271L131.668 2.09379L130.728 4.94271ZM134.598 4.95987L135.515 7.81624L134.598 4.95987ZM138.468 3.71724L137.551 0.860879L138.468 3.71724ZM142.338 3.29655L142.647 0.31254L142.338 3.29655ZM146.208 3.69777L146.517 0.713769L146.208 3.69777ZM150.078 3.80149L150.228 6.79774L150.078 3.80149ZM153.948 3.6077L153.798 0.611452L153.948 3.6077ZM157.818 3.4702L157.755 0.470856L157.818 3.4702ZM161.688 3.38899L161.625 0.389647L161.688 3.38899ZM165.558 3.89464L166.373 1.00748L165.558 3.89464ZM169.428 4.98715L168.613 7.87431L169.428 4.98715ZM173.298 5.10201L173.951 8.03013L173.298 5.10201ZM177.168 4.23923L177.821 7.16735L177.168 4.23923ZM181.038 4.18324L181.609 1.23815L181.038 4.18324ZM184.908 4.93402L184.336 7.87911L184.908 4.93402ZM188.778 5.1038L188.461 2.1206L188.778 5.1038ZM192.648 4.69258L192.965 7.67578L192.648 4.69258ZM196.518 4.25606L196.162 1.27719L196.518 4.25606ZM200.388 3.79425L200.032 0.815388L200.388 3.79425ZM204.258 3.92636L204.811 0.977804V0.977804L204.258 3.92636ZM208.128 4.65239L208.681 1.70383L208.128 4.65239ZM211.998 4.99788L211.971 1.99801L211.998 4.99788ZM215.868 4.96284L215.841 1.96296L215.868 4.96284ZM219.738 4.76467L220.017 7.75168L219.738 4.76467ZM223.608 4.40336L223.887 7.39037L223.608 4.40336ZM227.478 4.25118L227.522 1.25151L227.478 4.25118ZM229.413 4.27966L229.369 7.27934L229.413 4.27966ZM235.218 4.65273L234.734 7.61348L235.218 4.65273ZM239.088 5.28494L238.604 8.24569L239.088 5.28494ZM242.958 5.14878L243.641 8.07005V8.07005L242.958 5.14878ZM246.828 4.24424L246.145 1.32298V1.32298L246.828 4.24424ZM254.568 3.22036L254.862 6.20593L254.568 3.22036ZM258.438 3.15598L258.243 6.14963L258.438 3.15598ZM262.308 3.40829L262.503 0.414643L262.308 3.40829ZM266.178 4.07673L265.368 6.96543L266.178 4.07673ZM270.048 5.1613L270.857 2.2726L270.048 5.1613ZM273.918 5.5333L274.181 8.52175L273.918 5.5333ZM275.853 5.36302L275.59 2.37457L275.853 5.36302ZM277.788 5.19273L277.525 2.20428L277.788 5.19273ZM281.658 4.68186L281.138 1.72728L281.658 4.68186ZM285.528 4.0007L286.048 6.95528L285.528 4.0007ZM289.398 3.85058L289.104 6.83615L289.398 3.85058ZM293.268 4.23149L293.562 1.24592L293.268 4.23149ZM297.138 4.06945L296.6 1.11802L297.138 4.06945ZM301.008 3.36444L301.545 6.31586L301.008 3.36444ZM304.878 3.54537L304.08 6.43748L304.878 3.54537ZM308.748 4.61223L309.545 1.72012L308.748 4.61223ZM320.358 3.46326L319.765 6.40416L320.358 3.46326ZM324.228 4.24299L324.82 1.30209L324.228 4.24299ZM328.098 4.80729L327.828 7.79517L328.098 4.80729ZM331.968 5.15615L332.237 2.16827L331.968 5.15615ZM335.838 5.17982L336.071 8.17075L335.838 5.17982ZM339.708 4.87828L339.475 1.88735L339.708 4.87828ZM343.578 4.74806L343.546 7.74789L343.578 4.74806ZM358.944 4.30735L360.487 1.73488L358.944 4.30735ZM360.66 5.33729L359.117 7.90977L360.66 5.33729ZM365.451 8.61005L363.452 10.847L365.451 8.61005ZM368.165 11.0358L370.164 8.7988L368.165 11.0358ZM372.231 15.0666L374.394 12.9877L372.231 15.0666ZM373.585 16.4755L371.422 18.5544L373.585 16.4755ZM375.24 19.8459L378.205 19.3914L375.24 19.8459ZM375.54 21.8072L372.575 22.2617L375.54 21.8072ZM375.841 23.7686L372.876 24.2231L375.841 23.7686ZM376.127 27.665L379.127 27.6874L376.127 27.665ZM376.098 31.535L373.098 31.5126L376.098 31.535ZM375.747 37.34L372.759 37.0802L375.747 37.34ZM375.579 39.275L378.568 39.5348L375.579 39.275ZM375.353 43.145L378.351 43.2352L375.353 43.145ZM375.294 45.08L372.296 44.9898L375.294 45.08ZM375.236 47.015L372.238 46.9248L375.236 47.015ZM374.785 50.8019L371.85 50.1785L374.785 50.8019ZM373.998 54.5056L376.932 55.129L373.998 54.5056ZM370.407 65.3307L372.163 67.7634L370.407 65.3307ZM367.171 67.666L365.416 65.2333L367.171 67.666ZM363.65 69.0168L363.937 72.003L363.65 69.0168ZM361.746 69.2L361.459 66.2138L361.746 69.2ZM359.843 69.3832L359.555 66.397L359.843 69.3832ZM356.064 69.7422L355.784 66.7553L356.064 69.7422ZM354.188 69.9181L354.468 72.905L354.188 69.9181ZM352.313 70.0939L352.033 67.107L352.313 70.0939ZM348.502 70.1632L348.337 73.1587L348.502 70.1632ZM346.567 70.0567L346.402 73.0522L346.567 70.0567ZM344.632 69.9502L344.797 66.9547L344.632 69.9502ZM338.827 70.3542L339.219 73.3285L338.827 70.3542ZM336.892 70.6095L336.5 67.6353L336.892 70.6095ZM333.022 70.7843L332.898 73.7818L333.022 70.7843ZM331.087 70.7039L330.963 73.7013L331.087 70.7039ZM329.152 70.6235L329.277 67.6261L329.152 70.6235ZM325.282 70.6547L325.109 67.6597L325.282 70.6547ZM321.412 70.878L321.585 73.8731L321.412 70.878ZM317.542 71.4199L316.891 68.4914L317.542 71.4199ZM313.672 72.2802L314.323 75.2087L313.672 72.2802ZM309.802 72.66L309.88 69.661L309.802 72.66ZM305.932 72.5592L305.854 75.5582L305.932 72.5592ZM298.192 72.5892L298.151 69.5895L298.192 72.5892ZM294.322 71.972L295.269 69.1255L294.322 71.972ZM290.452 70.6841L289.505 73.5305L290.452 70.6841ZM286.582 70.4216L287.162 73.3649L286.582 70.4216ZM284.647 70.8031L284.067 67.8598L284.647 70.8031ZM282.712 71.1846L283.292 74.128L282.712 71.1846ZM276.907 70.8201L277.475 67.8743L276.907 70.8201ZM274.972 70.447L274.404 73.3928L274.972 70.447ZM271.102 70.2338L271.349 73.2236L271.102 70.2338ZM267.232 70.5536L266.985 67.5637L267.232 70.5536ZM263.362 70.8333L263.548 73.8276L263.362 70.8333ZM261.427 70.9532L261.242 67.9589L261.427 70.9532ZM259.492 71.0731L259.307 68.0788L259.492 71.0731ZM255.622 71.5484L255.08 68.5978L255.622 71.5484ZM247.882 72.6124L247.879 75.6124L247.882 72.6124ZM244.012 72.6079L244.009 75.6079L244.012 72.6079ZM240.142 72.6487L240.209 75.648L240.142 72.6487ZM236.272 72.7349L236.205 69.7356L236.272 72.7349ZM232.402 72.5945L232.119 75.5812L232.402 72.5945ZM228.532 72.2277L228.815 69.2411L228.532 72.2277ZM224.662 71.9515L224.518 74.948L224.662 71.9515ZM220.792 71.7658L220.648 74.7624L220.792 71.7658ZM216.922 71.7206L216.996 74.7197L216.922 71.7206ZM213.052 71.816L212.978 68.8169L213.052 71.816ZM209.182 71.9448L209.056 68.9474L209.182 71.9448ZM205.312 72.1071L205.186 69.1097L205.312 72.1071ZM201.442 72.3438L201.682 75.3341L201.442 72.3438ZM197.572 72.6549L197.332 69.6645L197.572 72.6549ZM193.702 72.2754L192.903 75.167L193.702 72.2754ZM189.832 71.2055L190.632 68.3139L189.832 71.2055ZM185.962 70.8404L186.225 73.8289L185.962 70.8404ZM182.092 71.1802L181.83 68.1917L182.092 71.1802ZM178.222 70.959L177.628 73.8995L178.222 70.959ZM174.352 70.1766L174.947 67.2361L174.352 70.1766ZM170.482 69.8887L170.642 72.8844L170.482 69.8887ZM166.612 70.0953L166.452 67.0996L166.612 70.0953ZM162.742 70.0908L162.909 67.0955L162.742 70.0908ZM158.872 69.8752L158.705 72.8705L158.872 69.8752ZM155.002 70.0761L154.529 67.1136L155.002 70.0761ZM151.132 70.6936L151.605 73.6561L151.132 70.6936ZM147.262 70.888L147.085 73.8828L147.262 70.888ZM143.392 70.6595L143.569 67.6647L143.392 70.6595ZM139.522 70.496L139.598 67.497V67.497L139.522 70.496ZM137.587 70.4467L137.511 73.4458L137.587 70.4467ZM129.847 70.6953L129.579 67.7073L129.847 70.6953ZM127.912 70.8689L128.18 73.8569L127.912 70.8689ZM124.042 71.4746L124.696 74.4025L124.042 71.4746ZM120.172 72.3392L119.518 69.4113L120.172 72.3392ZM116.302 72.5153L115.908 75.4893L116.302 72.5153ZM112.432 72.003L112.826 69.029L112.432 72.003ZM108.562 71.7728L108.602 74.7726L108.562 71.7728ZM106.627 71.7988L106.587 68.799L106.627 71.7988ZM104.692 71.8247L104.652 68.8249L104.692 71.8247ZM100.822 71.8613L100.839 74.8613L100.822 71.8613ZM96.9521 71.8829L96.9354 68.8829L96.9521 71.8829ZM85.3421 70.4669L86.182 73.3469L85.3421 70.4669ZM81.4721 71.5955L80.6322 68.7155L81.4721 71.5955ZM77.6021 72.2172L77.5132 69.2185L77.6021 72.2172ZM73.7321 72.332L73.821 75.3307L73.7321 72.332ZM69.8621 71.9933L69.2606 74.9324L69.8621 71.9933ZM65.9921 71.2013L66.5936 68.2622L65.9921 71.2013ZM62.1221 71.1587L62.6612 74.1099L62.1221 71.1587ZM60.1871 71.5122L59.648 68.561L60.1871 71.5122ZM58.2521 71.8656L58.7912 74.8168L58.2521 71.8656ZM54.3821 72.0115L54.7021 69.0286L54.3821 72.0115ZM50.5121 71.5963L50.1921 74.5792L50.5121 71.5963ZM46.6421 70.9924L46.0401 73.9314L46.6421 70.9924ZM42.7721 70.1997L42.1701 73.1387L42.7721 70.1997ZM38.9021 70.3039L38.1507 67.3995L38.9021 70.3039ZM35.0321 71.3051L35.7835 74.2095L35.0321 71.3051ZM31.1621 71.675L31.3644 68.6818L31.1621 71.675ZM27.2921 71.4134L27.0898 74.4066L27.2921 71.4134ZM23.3791 71.2398L23.3141 74.2391L23.3791 71.2398ZM19.423 71.1541L19.3581 74.1534L19.423 71.1541ZM16.0938 69.6621L13.8996 71.7079L16.0938 69.6621ZM13.3913 66.7636L15.5855 64.7177L13.3913 66.7636ZM7.01022 61.9488L5.3419 64.4422L7.01022 61.9488ZM5.44508 58.8134L2.44966 58.6476L5.44508 58.8134ZM4.89795 43.2037L2.07212 44.2111L4.89795 43.2037ZM4.20817 41.2687L7.034 40.2614L4.20817 41.2687ZM5.03686 23.9502L2.11119 23.2865L5.03686 23.9502ZM7.34309 12.632L5.0511 10.6964L7.34309 12.632ZM16.5527 5.11571L15.1135 2.48348L16.5527 5.11571ZM19.8195 4.45352L19.216 7.3922L19.8195 4.45352ZM21.3139 4.76039L20.7104 7.69907L21.3139 4.76039ZM28.1727 4.11156L28.3705 7.10504L30.3055 6.97722L30.1077 3.98375L29.91 0.990269L27.975 1.11808L28.1727 4.11156ZM30.1077 3.98375L30.3055 6.97722C31.6623 6.8876 33.0185 6.75243 34.374 6.57181L33.9777 3.5981L33.5815 0.624378C32.357 0.787542 31.1332 0.909473 29.91 0.990269L30.1077 3.98375ZM33.9777 3.5981L34.374 6.57181L36.309 6.31398L35.9127 3.34026L35.5165 0.366542L33.5815 0.624378L33.9777 3.5981ZM35.9127 3.34026L36.309 6.31398L38.244 6.05614L37.8477 3.08242L37.4515 0.108706L35.5165 0.366542L35.9127 3.34026ZM37.8477 3.08242L38.244 6.05614C39.1142 5.94018 39.9904 6.00242 40.8975 6.26026L41.7177 3.37456L42.5379 0.48885C40.8651 0.0133953 39.1612 -0.119117 37.4515 0.108706L37.8477 3.08242ZM41.7177 3.37456L40.8975 6.26026L42.8326 6.81023L43.6527 3.92453L44.4729 1.03882L42.5379 0.48885L41.7177 3.37456ZM43.6527 3.92453L42.8326 6.81023L44.7676 7.3602L45.5877 4.4745L46.4079 1.58879L44.4729 1.03882L43.6527 3.92453ZM45.5877 4.4745L44.7676 7.3602C46.3231 7.80234 47.8994 8.02081 49.4881 8.00471L49.4577 5.00487L49.4273 2.00502C48.4361 2.01506 47.4323 1.87995 46.4079 1.58879L45.5877 4.4745ZM49.4577 5.00487L49.4881 8.00471L51.4231 7.98511L51.3927 4.98527L51.3623 1.98542L49.4273 2.00502L49.4577 5.00487ZM51.3927 4.98527L51.4231 7.98511L53.3581 7.96551L53.3277 4.96567L53.2973 1.96582L51.3623 1.98542L51.3927 4.98527ZM53.3277 4.96567L53.3581 7.96551C54.5931 7.953 55.8282 7.97443 57.0634 8.0298L57.1977 5.03281L57.3321 2.03582C55.9873 1.97553 54.6423 1.9522 53.2973 1.96582L53.3277 4.96567ZM57.1977 5.03281L57.0634 8.0298L58.9984 8.11654L59.1327 5.11955L59.2671 2.12256L57.3321 2.03582L57.1977 5.03281ZM59.1327 5.11955L58.9984 8.11654L60.9334 8.20328L61.0677 5.20629L61.2021 2.2093L59.2671 2.12256L59.1327 5.11955ZM61.0677 5.20629L60.9334 8.20328C62.3955 8.26883 63.8568 8.20873 65.3153 8.02369L64.9377 5.04754L64.5601 2.0714C63.4387 2.21368 62.32 2.25942 61.2021 2.2093L61.0677 5.20629ZM64.9377 5.04754L65.3153 8.02369L67.2503 7.77819L66.8727 4.80205L66.4951 1.82591L64.5601 2.0714L64.9377 5.04754ZM66.8727 4.80205L67.2503 7.77819L69.1853 7.5327L68.8077 4.55656L68.4301 1.58041L66.4951 1.82591L66.8727 4.80205ZM68.8077 4.55656L69.1853 7.5327C70.3112 7.38986 71.4344 7.34143 72.5567 7.38674L72.6777 4.38919L72.7988 1.39163C71.341 1.33277 69.8843 1.39593 68.4301 1.58041L68.8077 4.55656ZM72.6777 4.38919L72.5567 7.38674L74.4917 7.46487L74.6127 4.46731L74.7338 1.46975L72.7988 1.39163L72.6777 4.38919ZM74.6127 4.46731L74.4917 7.46487L76.4267 7.54299L76.5477 4.54543L76.6688 1.54788L74.7338 1.46975L74.6127 4.46731ZM76.5477 4.54543L76.4267 7.54299C77.7074 7.5947 78.9881 7.65238 80.2688 7.71604L80.4177 4.71974L80.5667 1.72344C79.2674 1.65886 77.9681 1.60033 76.6688 1.54788L76.5477 4.54543ZM80.4177 4.71974L80.2688 7.71604L82.2038 7.81223L82.3527 4.81592L82.5017 1.81962L80.5667 1.72344L80.4177 4.71974ZM82.3527 4.81592L82.2038 7.81223L84.1388 7.90841L84.2877 4.91211L84.4367 1.91581L82.5017 1.81962L82.3527 4.81592ZM84.2877 4.91211L84.1388 7.90841C85.4139 7.97179 86.689 8.04472 87.9641 8.1272L88.1577 5.13346L88.3514 2.13972C87.0465 2.05531 85.7416 1.98067 84.4367 1.91581L84.2877 4.91211ZM88.1577 5.13346L87.9641 8.1272L89.8991 8.25237L90.0927 5.25863L90.2864 2.26489L88.3514 2.13972L88.1577 5.13346ZM90.0927 5.25863L89.8991 8.25237L91.8341 8.37754L92.0277 5.3838L92.2214 2.39006L90.2864 2.26489L90.0927 5.25863ZM92.0277 5.3838L91.8341 8.37754C93.2731 8.47063 94.7124 8.45624 96.1508 8.33447L95.8977 5.34517L95.6447 2.35586C94.503 2.4525 93.3624 2.46386 92.2214 2.39006L92.0277 5.3838ZM95.8977 5.34517L96.1508 8.33447L98.0858 8.17067L97.8327 5.18136L97.5797 2.19205L95.6447 2.35586L95.8977 5.34517ZM97.8327 5.18136L98.0858 8.17067L100.021 8.00687L99.7677 5.01756L99.5147 2.02825L97.5797 2.19205L97.8327 5.18136ZM99.7677 5.01756L100.021 8.00687C101.113 7.9144 102.205 7.93021 103.299 8.05466L103.638 5.07388L103.977 2.09311C102.491 1.92405 101.002 1.90231 99.5147 2.02825L99.7677 5.01756ZM103.638 5.07388L103.299 8.05466L105.234 8.27479L105.573 5.29401L105.912 2.31324L103.977 2.09311L103.638 5.07388ZM105.573 5.29401L105.234 8.27479L107.169 8.49491L107.508 5.51414L107.847 2.53337L105.912 2.31324L105.573 5.29401ZM107.508 5.51414L107.169 8.49491C108.74 8.67364 110.312 8.63015 111.876 8.36647L111.378 5.40819L110.879 2.4499C109.864 2.621 108.856 2.64815 107.847 2.53337L107.508 5.51414ZM111.378 5.40819L111.876 8.36647L113.811 8.04039L113.313 5.0821L112.814 2.12381L110.879 2.4499L111.378 5.40819ZM113.313 5.0821L113.811 8.04039L115.746 7.71431L115.248 4.75602L114.749 1.79773L112.814 2.12381L113.313 5.0821ZM115.248 4.75602L115.746 7.71431C117.048 7.49487 118.351 7.26716 119.653 7.03119L119.118 4.07927L118.583 1.12735C117.305 1.35894 116.027 1.5824 114.749 1.79773L115.248 4.75602ZM119.118 4.07927L119.653 7.03119L121.588 6.68053L121.053 3.72861L120.518 0.77669L118.583 1.12735L119.118 4.07927ZM121.053 3.72861L121.588 6.68053L123.523 6.32986L122.988 3.37794L122.453 0.426025L120.518 0.77669L121.053 3.72861ZM122.988 3.37794L123.523 6.32986C124.302 6.18864 125.085 6.23999 125.918 6.51467L126.858 3.66576L127.798 0.816837C126.05 0.240224 124.254 0.0996933 122.453 0.426025L122.988 3.37794ZM126.858 3.66576L125.918 6.51467L127.853 7.15315L128.793 4.30423L129.733 1.45531L127.798 0.816837L126.858 3.66576ZM128.793 4.30423L127.853 7.15315L129.788 7.79163L130.728 4.94271L131.668 2.09379L129.733 1.45531L128.793 4.30423ZM130.728 4.94271L129.788 7.79163C131.679 8.41558 133.619 8.42502 135.515 7.81624L134.598 4.95987L133.681 2.10351C132.997 2.32314 132.357 2.32114 131.668 2.09379L130.728 4.94271ZM134.598 4.95987L135.515 7.81624L137.45 7.19492L136.533 4.33856L135.616 1.48219L133.681 2.10351L134.598 4.95987ZM136.533 4.33856L137.45 7.19492L139.385 6.57361L138.468 3.71724L137.551 0.860879L135.616 1.48219L136.533 4.33856ZM138.468 3.71724L139.385 6.57361C140.297 6.28062 141.17 6.19157 142.028 6.28055L142.338 3.29655L142.647 0.31254C140.925 0.134037 139.218 0.325446 137.551 0.860879L138.468 3.71724ZM142.338 3.29655L142.028 6.28055L143.963 6.48117L144.273 3.49716L144.582 0.513155L142.647 0.31254L142.338 3.29655ZM144.273 3.49716L143.963 6.48117L145.898 6.68178L146.208 3.69777L146.517 0.713769L144.582 0.513155L144.273 3.49716ZM146.208 3.69777L145.898 6.68178C147.34 6.83128 148.784 6.87004 150.228 6.79774L150.078 3.80149L149.928 0.805247C148.792 0.86214 147.655 0.831756 146.517 0.713769L146.208 3.69777ZM150.078 3.80149L150.228 6.79774L152.163 6.70084L152.013 3.7046L151.863 0.708349L149.928 0.805247L150.078 3.80149ZM152.013 3.7046L152.163 6.70084L154.098 6.60394L153.948 3.6077L153.798 0.611452L151.863 0.708349L152.013 3.7046ZM153.948 3.6077L154.098 6.60394C155.359 6.5408 156.62 6.496 157.881 6.46954L157.818 3.4702L157.755 0.470856C156.436 0.498536 155.117 0.545403 153.798 0.611452L153.948 3.6077ZM157.818 3.4702L157.881 6.46954L159.816 6.42893L159.753 3.42959L159.69 0.430252L157.755 0.470856L157.818 3.4702ZM159.753 3.42959L159.816 6.42893L161.751 6.38833L161.688 3.38899L161.625 0.389647L159.69 0.430252L159.753 3.42959ZM161.688 3.38899L161.751 6.38833C162.733 6.36772 163.727 6.49507 164.743 6.7818L165.558 3.89464L166.373 1.00748C164.808 0.565862 163.223 0.356115 161.625 0.389647L161.688 3.38899ZM165.558 3.89464L164.743 6.7818L166.678 7.32805L167.493 4.44089L168.308 1.55373L166.373 1.00748L165.558 3.89464ZM167.493 4.44089L166.678 7.32805L168.613 7.87431L169.428 4.98715L170.243 2.09999L168.308 1.55373L167.493 4.44089ZM169.428 4.98715L168.613 7.87431C170.374 8.37151 172.168 8.42747 173.951 8.03013L173.298 5.10201L172.645 2.1739C171.847 2.35175 171.062 2.33112 170.243 2.09999L169.428 4.98715ZM173.298 5.10201L173.951 8.03013L175.886 7.59874L175.233 4.67062L174.58 1.74251L172.645 2.1739L173.298 5.10201ZM175.233 4.67062L175.886 7.59874L177.821 7.16735L177.168 4.23923L176.515 1.31112L174.58 1.74251L175.233 4.67062ZM177.168 4.23923L177.821 7.16735C178.71 6.96896 179.584 6.95708 180.466 7.12833L181.038 4.18324L181.609 1.23815C179.912 0.90887 178.205 0.934319 176.515 1.31112L177.168 4.23923ZM181.038 4.18324L180.466 7.12833L182.401 7.50372L182.973 4.55863L183.544 1.61354L181.609 1.23815L181.038 4.18324ZM182.973 4.55863L182.401 7.50372L184.336 7.87911L184.908 4.93402L185.479 1.98893L183.544 1.61354L182.973 4.55863ZM184.908 4.93402L184.336 7.87911C185.915 8.18539 187.505 8.25599 189.095 8.08701L188.778 5.1038L188.461 2.1206C187.471 2.22577 186.48 2.18318 185.479 1.98893L184.908 4.93402ZM188.778 5.1038L189.095 8.08701L191.03 7.88139L190.713 4.89819L190.396 1.91498L188.461 2.1206L188.778 5.1038ZM190.713 4.89819L191.03 7.88139L192.965 7.67578L192.648 4.69258L192.331 1.70937L190.396 1.91498L190.713 4.89819ZM192.648 4.69258L192.965 7.67578C194.268 7.53734 195.57 7.39039 196.873 7.23493L196.518 4.25606L196.162 1.27719C194.885 1.4296 193.608 1.57366 192.331 1.70937L192.648 4.69258ZM196.518 4.25606L196.873 7.23493L198.808 7.00402L198.453 4.02516L198.097 1.04629L196.162 1.27719L196.518 4.25606ZM198.453 4.02516L198.808 7.00402L200.743 6.77312L200.388 3.79425L200.032 0.815388L198.097 1.04629L198.453 4.02516ZM200.388 3.79425L200.743 6.77312C201.727 6.65568 202.711 6.68853 203.705 6.87493L204.258 3.92636L204.811 0.977804C203.224 0.68018 201.628 0.624963 200.032 0.815388L200.388 3.79425ZM204.258 3.92636L203.705 6.87493L205.64 7.23794L206.193 4.28938L206.746 1.34082L204.811 0.977804L204.258 3.92636ZM206.193 4.28938L205.64 7.23794L207.575 7.60095L208.128 4.65239L208.681 1.70383L206.746 1.34082L206.193 4.28938ZM208.128 4.65239L207.575 7.60095C209.053 7.87823 210.537 8.01123 212.025 7.99776L211.998 4.99788L211.971 1.99801C210.879 2.00789 209.783 1.91057 208.681 1.70383L208.128 4.65239ZM211.998 4.99788L212.025 7.99776L213.96 7.98024L213.933 4.98036L213.906 1.98048L211.971 1.99801L211.998 4.99788ZM213.933 4.98036L213.96 7.98024L215.895 7.96272L215.868 4.96284L215.841 1.96296L213.906 1.98048L213.933 4.98036ZM215.868 4.96284L215.895 7.96272C217.269 7.95027 218.643 7.87989 220.017 7.75168L219.738 4.76467L219.459 1.77765C218.252 1.89031 217.046 1.95205 215.841 1.96296L215.868 4.96284ZM219.738 4.76467L220.017 7.75168L221.952 7.57102L221.673 4.58401L221.394 1.597L219.459 1.77765L219.738 4.76467ZM221.673 4.58401L221.952 7.57102L223.887 7.39037L223.608 4.40336L223.329 1.41635L221.394 1.597L221.673 4.58401ZM223.608 4.40336L223.887 7.39037C225.07 7.27991 226.252 7.23347 227.434 7.25086L227.478 4.25118L227.522 1.25151C226.124 1.23093 224.726 1.28593 223.329 1.41635L223.608 4.40336ZM227.478 4.25118L227.434 7.25086L229.369 7.27934L229.413 4.27966L229.457 1.27999L227.522 1.25151L227.478 4.25118ZM229.413 4.27966L229.369 7.27934L231.304 7.30782L231.348 4.30814L231.392 1.30847L229.457 1.27999L229.413 4.27966ZM231.348 4.30814L231.304 7.30782C232.444 7.32461 233.588 7.42618 234.734 7.61348L235.218 4.65273L235.701 1.69198C234.268 1.45781 232.831 1.32965 231.392 1.30847L231.348 4.30814ZM235.218 4.65273L234.734 7.61348L236.669 7.92959L237.153 4.96884L237.636 2.00808L235.701 1.69198L235.218 4.65273ZM237.153 4.96884L236.669 7.92959L238.604 8.24569L239.088 5.28494L239.571 2.32419L237.636 2.00808L237.153 4.96884ZM239.088 5.28494L238.604 8.24569C240.287 8.52063 241.973 8.45972 243.641 8.07005L242.958 5.14878L242.275 2.22751C241.362 2.44087 240.468 2.47073 239.571 2.32419L239.088 5.28494ZM242.958 5.14878L243.641 8.07005L245.576 7.61778L244.893 4.69651L244.21 1.77524L242.275 2.22751L242.958 5.14878ZM244.893 4.69651L245.576 7.61778L247.511 7.16551L246.828 4.24424L246.145 1.32298L244.21 1.77524L244.893 4.69651ZM246.828 4.24424L247.511 7.16551C248.675 6.89327 249.835 6.70086 250.992 6.587L250.698 3.60144L250.404 0.615877C248.98 0.756068 247.56 0.992191 246.145 1.32298L246.828 4.24424ZM250.698 3.60144L250.992 6.587L252.927 6.39646L252.633 3.4109L252.339 0.42534L250.404 0.615877L250.698 3.60144ZM252.633 3.4109L252.927 6.39646L254.862 6.20593L254.568 3.22036L254.274 0.234804L252.339 0.42534L252.633 3.4109ZM254.568 3.22036L254.862 6.20593C255.99 6.09486 257.116 6.07618 258.243 6.14963L258.438 3.15598L258.633 0.162336C257.179 0.0675783 255.726 0.0918155 254.274 0.234804L254.568 3.22036ZM258.438 3.15598L258.243 6.14963L260.178 6.27578L260.373 3.28213L260.568 0.288489L258.633 0.162336L258.438 3.15598ZM260.373 3.28213L260.178 6.27578L262.113 6.40193L262.308 3.40829L262.503 0.414643L260.568 0.288489L260.373 3.28213ZM262.308 3.40829L262.113 6.40193C263.187 6.472 264.271 6.65808 265.368 6.96543L266.178 4.07673L266.987 1.18802C265.504 0.772322 264.008 0.512781 262.503 0.414643L262.308 3.40829ZM266.178 4.07673L265.368 6.96543L267.303 7.50772L268.113 4.61902L268.922 1.73031L266.987 1.18802L266.178 4.07673ZM268.113 4.61902L267.303 7.50772L269.238 8.05001L270.048 5.1613L270.857 2.2726L268.922 1.73031L268.113 4.61902ZM270.048 5.1613L269.238 8.05001C270.865 8.50579 272.518 8.66811 274.181 8.52175L273.918 5.5333L273.655 2.54485C272.738 2.62555 271.811 2.53986 270.857 2.2726L270.048 5.1613ZM273.918 5.5333L274.181 8.52175L276.116 8.35147L275.853 5.36302L275.59 2.37457L273.655 2.54485L273.918 5.5333ZM275.853 5.36302L276.116 8.35147L278.051 8.18118L277.788 5.19273L277.525 2.20428L275.59 2.37457L275.853 5.36302ZM277.788 5.19273L278.051 8.18118C279.428 8.05999 280.804 7.87832 282.178 7.63645L281.658 4.68186L281.138 1.72728C279.932 1.93952 278.728 2.09842 277.525 2.20428L277.788 5.19273ZM281.658 4.68186L282.178 7.63645L284.113 7.29587L283.593 4.34128L283.073 1.3867L281.138 1.72728L281.658 4.68186ZM283.593 4.34128L284.113 7.29587L286.048 6.95528L285.528 4.0007L285.008 1.04612L283.073 1.3867L283.593 4.34128ZM285.528 4.0007L286.048 6.95528C287.072 6.77501 288.088 6.73618 289.104 6.83615L289.398 3.85058L289.692 0.865006C288.127 0.711034 286.563 0.772284 285.008 1.04612L285.528 4.0007ZM289.398 3.85058L289.104 6.83615L291.039 7.02661L291.333 4.04104L291.627 1.05546L289.692 0.865006L289.398 3.85058ZM291.333 4.04104L291.039 7.02661L292.974 7.21707L293.268 4.23149L293.562 1.24592L291.627 1.05546L291.333 4.04104ZM293.268 4.23149L292.974 7.21707C294.545 7.37166 296.114 7.30525 297.675 7.02087L297.138 4.06945L296.6 1.11802C295.581 1.30365 294.571 1.34527 293.562 1.24592L293.268 4.23149ZM297.138 4.06945L297.675 7.02087L299.61 6.66837L299.073 3.71694L298.535 0.765518L296.6 1.11802L297.138 4.06945ZM299.073 3.71694L299.61 6.66837L301.545 6.31586L301.008 3.36444L300.47 0.413013L298.535 0.765518L299.073 3.71694ZM301.008 3.36444L301.545 6.31586C302.382 6.1634 303.216 6.1992 304.08 6.43748L304.878 3.54537L305.675 0.65325C303.959 0.180287 302.213 0.0954676 300.47 0.413013L301.008 3.36444ZM304.878 3.54537L304.08 6.43748L306.015 6.97092L306.813 4.0788L307.61 1.18668L305.675 0.65325L304.878 3.54537ZM306.813 4.0788L306.015 6.97092L307.95 7.50435L308.748 4.61223L309.545 1.72012L307.61 1.18668L306.813 4.0788ZM308.748 4.61223L307.95 7.50435C309.754 8.00151 311.587 8.00924 313.394 7.52553L312.618 4.6276L311.842 1.72967C311.069 1.93671 310.322 1.93419 309.545 1.72012L308.748 4.61223ZM312.618 4.6276L313.394 7.52553L315.329 7.00746L314.553 4.10953L313.777 1.2116L311.842 1.72967L312.618 4.6276ZM314.553 4.10953L315.329 7.00746L317.264 6.48939L316.488 3.59146L315.712 0.693531L313.777 1.2116L314.553 4.10953ZM316.488 3.59146L317.264 6.48939C318.114 6.26178 318.935 6.23699 319.765 6.40416L320.358 3.46326L320.95 0.522358C319.2 0.169713 317.442 0.230386 315.712 0.693531L316.488 3.59146ZM320.358 3.46326L319.765 6.40416L321.7 6.79403L322.293 3.85312L322.885 0.912222L320.95 0.522358L320.358 3.46326ZM322.293 3.85312L321.7 6.79403L323.635 7.18389L324.228 4.24299L324.82 1.30209L322.885 0.912222L322.293 3.85312ZM324.228 4.24299L323.635 7.18389C325.03 7.46497 326.428 7.66895 327.828 7.79517L328.098 4.80729L328.367 1.8194C327.187 1.71305 326.005 1.54082 324.82 1.30209L324.228 4.24299ZM328.098 4.80729L327.828 7.79517L329.763 7.9696L330.033 4.98172L330.302 1.99383L328.367 1.8194L328.098 4.80729ZM330.033 4.98172L329.763 7.9696L331.698 8.14403L331.968 5.15615L332.237 2.16827L330.302 1.99383L330.033 4.98172ZM331.968 5.15615L331.698 8.14403C333.155 8.27537 334.613 8.28431 336.071 8.17075L335.838 5.17982L335.605 2.18888C334.482 2.27635 333.36 2.26951 332.237 2.16827L331.968 5.15615ZM335.838 5.17982L336.071 8.17075L338.006 8.01998L337.773 5.02905L337.54 2.03811L335.605 2.18888L335.838 5.17982ZM337.773 5.02905L338.006 8.01998L339.941 7.86922L339.708 4.87828L339.475 1.88735L337.54 2.03811L337.773 5.02905ZM339.708 4.87828L339.941 7.86922C341.143 7.77555 342.345 7.73514 343.546 7.74789L343.578 4.74806L343.61 1.74823C342.231 1.73359 340.853 1.77999 339.475 1.88735L339.708 4.87828ZM343.578 4.74806L343.546 7.74789L345.481 7.76844L345.513 4.76861L345.545 1.76878L343.61 1.74823L343.578 4.74806ZM345.513 4.76861L345.481 7.76844L347.416 7.78899L347.448 4.78915L347.48 1.78932L345.545 1.76878L345.513 4.76861ZM347.448 4.78915L347.416 7.78899C348.916 7.80492 350.418 7.66414 351.919 7.37098L351.344 4.42663L350.769 1.48228C349.655 1.69988 348.559 1.80079 347.48 1.78932L347.448 4.78915ZM351.344 4.42663L351.919 7.37098L353.88 6.98791L353.305 4.04356L352.73 1.09921L350.769 1.48228L351.344 4.42663ZM353.305 4.04356L353.88 6.98791L355.841 6.60484L355.266 3.66048L354.691 0.716134L352.73 1.09921L353.305 4.04356ZM355.266 3.66048L355.841 6.60484C356.419 6.49194 356.89 6.574 357.4 6.87983L358.944 4.30735L360.487 1.73488C358.708 0.667455 356.728 0.31827 354.691 0.716134L355.266 3.66048ZM358.944 4.30735L357.4 6.87983L359.117 7.90977L360.66 5.33729L362.204 2.76482L360.487 1.73488L358.944 4.30735ZM360.66 5.33729L359.117 7.90977L360.833 8.93971L362.377 6.36723L363.92 3.79476L362.204 2.76482L360.66 5.33729ZM362.377 6.36723L360.833 8.93971C361.831 9.53863 362.701 10.1761 363.452 10.847L365.451 8.61005L367.449 6.37305C366.391 5.42678 365.211 4.56909 363.92 3.79476L362.377 6.36723ZM365.451 8.61005L363.452 10.847L364.809 12.0599L366.808 9.82292L368.807 7.58592L367.449 6.37305L365.451 8.61005ZM366.808 9.82292L364.809 12.0599L366.166 13.2728L368.165 11.0358L370.164 8.7988L368.807 7.58592L366.808 9.82292ZM368.165 11.0358L366.166 13.2728C367.01 14.0272 367.86 14.848 368.714 15.7365L370.877 13.6576L373.04 11.5788C372.088 10.5886 371.13 9.66153 370.164 8.7988L368.165 11.0358ZM370.877 13.6576L368.714 15.7365L370.068 17.1454L372.231 15.0666L374.394 12.9877L373.04 11.5788L370.877 13.6576ZM372.231 15.0666L370.068 17.1454L371.422 18.5544L373.585 16.4755L375.748 14.3967L374.394 12.9877L372.231 15.0666ZM373.585 16.4755L371.422 18.5544C371.889 19.0406 372.166 19.5939 372.274 20.3003L375.24 19.8459L378.205 19.3914C377.913 17.4827 377.086 15.7891 375.748 14.3967L373.585 16.4755ZM375.24 19.8459L372.274 20.3003L372.575 22.2617L375.54 21.8072L378.506 21.3528L378.205 19.3914L375.24 19.8459ZM375.54 21.8072L372.575 22.2617L372.876 24.2231L375.841 23.7686L378.806 23.3142L378.506 21.3528L375.54 21.8072ZM375.841 23.7686L372.876 24.2231C373.052 25.3769 373.136 26.5162 373.127 27.6426L376.127 27.665L379.127 27.6874C379.138 26.2338 379.03 24.7755 378.806 23.3142L375.841 23.7686ZM376.127 27.665L373.127 27.6426L373.113 29.5776L376.113 29.6L379.113 29.6224L379.127 27.6874L376.127 27.665ZM376.113 29.6L373.113 29.5776L373.098 31.5126L376.098 31.535L379.098 31.5574L379.113 29.6224L376.113 29.6ZM376.098 31.535L373.098 31.5126C373.089 32.7231 373.032 33.9339 372.927 35.1452L375.916 35.405L378.904 35.6648C379.023 34.2961 379.088 32.9269 379.098 31.5574L376.098 31.535ZM375.916 35.405L372.927 35.1452L372.759 37.0802L375.747 37.34L378.736 37.5998L378.904 35.6648L375.916 35.405ZM375.747 37.34L372.759 37.0802L372.59 39.0152L375.579 39.275L378.568 39.5348L378.736 37.5998L375.747 37.34ZM375.579 39.275L372.59 39.0152C372.473 40.3614 372.395 41.708 372.354 43.0548L375.353 43.145L378.351 43.2352C378.388 42.002 378.461 40.7686 378.568 39.5348L375.579 39.275ZM375.353 43.145L372.354 43.0548L372.296 44.9898L375.294 45.08L378.293 45.1702L378.351 43.2352L375.353 43.145ZM375.294 45.08L372.296 44.9898L372.238 46.9248L375.236 47.015L378.235 47.1052L378.293 45.1702L375.294 45.08ZM375.236 47.015L372.238 46.9248C372.204 48.0395 372.074 49.1232 371.85 50.1785L374.785 50.8019L377.719 51.4253C378.019 50.0113 378.191 48.5705 378.235 47.1052L375.236 47.015ZM374.785 50.8019L371.85 50.1785L371.457 52.0303L374.391 52.6538L377.326 53.2772L377.719 51.4253L374.785 50.8019ZM374.391 52.6538L371.457 52.0303L371.063 53.8822L373.998 54.5056L376.932 55.129L377.326 53.2772L374.391 52.6538ZM373.998 54.5056L371.063 53.8822C370.799 55.1268 370.534 56.4042 370.269 57.7142L373.21 58.3089L376.15 58.9036C376.411 57.6118 376.672 56.3536 376.932 55.129L373.998 54.5056ZM373.21 58.3089L370.269 57.7142L369.874 59.6655L372.815 60.2603L375.755 60.855L376.15 58.9036L373.21 58.3089ZM372.815 60.2603L369.874 59.6655L369.48 61.6169L372.42 62.2117L375.361 62.8064L375.755 60.855L372.815 60.2603ZM372.42 62.2117L369.48 61.6169C369.367 62.176 369.12 62.5602 368.652 62.898L370.407 65.3307L372.163 67.7634C373.852 66.5444 374.948 64.8491 375.361 62.8064L372.42 62.2117ZM370.407 65.3307L368.652 62.898L367.034 64.0656L368.789 66.4984L370.545 68.9311L372.163 67.7634L370.407 65.3307ZM368.789 66.4984L367.034 64.0656L365.416 65.2333L367.171 67.666L368.927 70.0987L370.545 68.9311L368.789 66.4984ZM367.171 67.666L365.416 65.2333C364.749 65.7144 364.078 65.9618 363.362 66.0306L363.65 69.0168L363.937 72.003C365.759 71.8277 367.436 71.1745 368.927 70.0987L367.171 67.666ZM363.65 69.0168L363.362 66.0306L361.459 66.2138L361.746 69.2L362.034 72.1862L363.937 72.003L363.65 69.0168ZM361.746 69.2L361.459 66.2138L359.555 66.397L359.843 69.3832L360.13 72.3694L362.034 72.1862L361.746 69.2ZM359.843 69.3832L359.555 66.397C358.289 66.5189 357.032 66.6383 355.784 66.7553L356.064 69.7422L356.344 72.7291C357.597 72.6116 358.859 72.4917 360.13 72.3694L359.843 69.3832ZM356.064 69.7422L355.784 66.7553L353.908 66.9312L354.188 69.9181L354.468 72.905L356.344 72.7291L356.064 69.7422ZM354.188 69.9181L353.908 66.9312L352.033 67.107L352.313 70.0939L352.593 73.0808L354.468 72.905L354.188 69.9181ZM352.313 70.0939L352.033 67.107C350.934 67.21 349.813 67.2309 348.667 67.1678L348.502 70.1632L348.337 73.1587C349.771 73.2377 351.19 73.2123 352.593 73.0808L352.313 70.0939ZM348.502 70.1632L348.667 67.1678L346.732 67.0613L346.567 70.0567L346.402 73.0522L348.337 73.1587L348.502 70.1632ZM346.567 70.0567L346.732 67.0613L344.797 66.9547L344.632 69.9502L344.467 72.9457L346.402 73.0522L346.567 70.0567ZM344.632 69.9502L344.797 66.9547C343.32 66.8734 341.843 66.9303 340.37 67.1247L340.762 70.099L341.154 73.0732C342.261 72.9272 343.365 72.885 344.467 72.9457L344.632 69.9502ZM340.762 70.099L340.37 67.1247L338.435 67.38L338.827 70.3542L339.219 73.3285L341.154 73.0732L340.762 70.099ZM338.827 70.3542L338.435 67.38L336.5 67.6353L336.892 70.6095L337.284 73.5837L339.219 73.3285L338.827 70.3542ZM336.892 70.6095L336.5 67.6353C335.38 67.783 334.263 67.8333 333.147 67.7869L333.022 70.7843L332.898 73.7818C334.362 73.8426 335.824 73.7763 337.284 73.5837L336.892 70.6095ZM333.022 70.7843L333.147 67.7869L331.212 67.7065L331.087 70.7039L330.963 73.7013L332.898 73.7818L333.022 70.7843ZM331.087 70.7039L331.212 67.7065L329.277 67.6261L329.152 70.6235L329.028 73.6209L330.963 73.7013L331.087 70.7039ZM329.152 70.6235L329.277 67.6261C327.887 67.5683 326.498 67.5796 325.109 67.6597L325.282 70.6547L325.455 73.6497C326.646 73.581 327.837 73.5714 329.028 73.6209L329.152 70.6235ZM325.282 70.6547L325.109 67.6597L323.174 67.7714L323.347 70.7664L323.52 73.7614L325.455 73.6497L325.282 70.6547ZM323.347 70.7664L323.174 67.7714L321.239 67.883L321.412 70.878L321.585 73.8731L323.52 73.7614L323.347 70.7664ZM321.412 70.878L321.239 67.883C319.785 67.967 318.335 68.1704 316.891 68.4914L317.542 71.4199L318.193 74.3484C319.329 74.0958 320.459 73.938 321.585 73.8731L321.412 70.878ZM317.542 71.4199L316.891 68.4914L314.956 68.9215L315.607 71.85L316.258 74.7785L318.193 74.3484L317.542 71.4199ZM315.607 71.85L314.956 68.9215L313.021 69.3517L313.672 72.2802L314.323 75.2087L316.258 74.7785L315.607 71.85ZM313.672 72.2802L313.021 69.3517C311.965 69.5866 310.919 69.6881 309.88 69.661L309.802 72.66L309.724 75.659C311.265 75.6991 312.8 75.5474 314.323 75.2087L313.672 72.2802ZM309.802 72.66L309.88 69.661L307.945 69.6106L307.867 72.6096L307.789 75.6086L309.724 75.659L309.802 72.66ZM307.867 72.6096L307.945 69.6106L306.01 69.5603L305.932 72.5592L305.854 75.5582L307.789 75.6086L307.867 72.6096ZM305.932 72.5592L306.01 69.5603C304.68 69.5256 303.35 69.5175 302.021 69.5359L302.062 72.5357L302.104 75.5354C303.354 75.5181 304.604 75.5257 305.854 75.5582L305.932 72.5592ZM302.062 72.5357L302.021 69.5359L300.086 69.5627L300.127 72.5624L300.169 75.5622L302.104 75.5354L302.062 72.5357ZM300.127 72.5624L300.086 69.5627L298.151 69.5895L298.192 72.5892L298.234 75.589L300.169 75.5622L300.127 72.5624ZM298.192 72.5892L298.151 69.5895C297.214 69.6025 296.258 69.4546 295.269 69.1255L294.322 71.972L293.375 74.8185C294.966 75.3482 296.59 75.6117 298.234 75.589L298.192 72.5892ZM294.322 71.972L295.269 69.1255L293.334 68.4816L292.387 71.328L291.44 74.1745L293.375 74.8185L294.322 71.972ZM292.387 71.328L293.334 68.4816L291.399 67.8376L290.452 70.6841L289.505 73.5305L291.44 74.1745L292.387 71.328ZM290.452 70.6841L291.399 67.8376C289.635 67.2502 287.819 67.12 286.002 67.4782L286.582 70.4216L287.162 73.3649C287.926 73.2144 288.69 73.2592 289.505 73.5305L290.452 70.6841ZM286.582 70.4216L286.002 67.4782L284.067 67.8598L284.647 70.8031L285.227 73.7464L287.162 73.3649L286.582 70.4216ZM284.647 70.8031L284.067 67.8598L282.132 68.2413L282.712 71.1846L283.292 74.128L285.227 73.7464L284.647 70.8031ZM282.712 71.1846L282.132 68.2413C281.22 68.421 280.32 68.4228 279.41 68.2473L278.842 71.1931L278.274 74.1389C279.944 74.4607 281.624 74.457 283.292 74.128L282.712 71.1846ZM278.842 71.1931L279.41 68.2473L277.475 67.8743L276.907 70.8201L276.339 73.7658L278.274 74.1389L278.842 71.1931ZM276.907 70.8201L277.475 67.8743L275.54 67.5013L274.972 70.447L274.404 73.3928L276.339 73.7658L276.907 70.8201ZM274.972 70.447L275.54 67.5013C273.986 67.2016 272.422 67.1146 270.855 67.244L271.102 70.2338L271.349 73.2236C272.363 73.1399 273.379 73.195 274.404 73.3928L274.972 70.447ZM271.102 70.2338L270.855 67.244L268.92 67.4039L269.167 70.3937L269.414 73.3835L271.349 73.2236L271.102 70.2338ZM269.167 70.3937L268.92 67.4039L266.985 67.5637L267.232 70.5536L267.479 73.5434L269.414 73.3835L269.167 70.3937ZM267.232 70.5536L266.985 67.5637C265.716 67.6686 264.446 67.7604 263.177 67.8391L263.362 70.8333L263.548 73.8276C264.858 73.7464 266.169 73.6516 267.479 73.5434L267.232 70.5536ZM263.362 70.8333L263.177 67.8391L261.242 67.9589L261.427 70.9532L261.613 73.9475L263.548 73.8276L263.362 70.8333ZM261.427 70.9532L261.242 67.9589L259.307 68.0788L259.492 71.0731L259.678 74.0674L261.613 73.9475L261.427 70.9532ZM259.492 71.0731L259.307 68.0788C257.895 68.1663 256.486 68.3395 255.08 68.5978L255.622 71.5484L256.164 74.499C257.338 74.2834 258.509 74.1398 259.678 74.0674L259.492 71.0731ZM255.622 71.5484L255.08 68.5978L253.145 68.9532L253.687 71.9038L254.229 74.8544L256.164 74.499L255.622 71.5484ZM253.687 71.9038L253.145 68.9532L251.21 69.3086L251.752 72.2592L252.294 75.2099L254.229 74.8544L253.687 71.9038ZM251.752 72.2592L251.21 69.3086C250.097 69.513 248.99 69.6137 247.886 69.6124L247.882 72.6124L247.879 75.6124C249.355 75.6141 250.827 75.4793 252.294 75.2099L251.752 72.2592ZM247.882 72.6124L247.886 69.6124L245.951 69.6102L245.947 72.6102L245.944 75.6102L247.879 75.6124L247.882 72.6124ZM245.947 72.6102L245.951 69.6102L244.016 69.6079L244.012 72.6079L244.009 75.6079L245.944 75.6102L245.947 72.6102ZM244.012 72.6079L244.016 69.6079C242.702 69.6064 241.389 69.6203 240.075 69.6495L240.142 72.6487L240.209 75.648C241.475 75.6198 242.742 75.6064 244.009 75.6079L244.012 72.6079ZM240.142 72.6487L240.075 69.6495L238.14 69.6926L238.207 72.6918L238.274 75.6911L240.209 75.648L240.142 72.6487ZM238.207 72.6918L238.14 69.6926L236.205 69.7356L236.272 72.7349L236.339 75.7341L238.274 75.6911L238.207 72.6918ZM236.272 72.7349L236.205 69.7356C235.033 69.7617 233.859 69.7192 232.685 69.6079L232.402 72.5945L232.119 75.5812C233.525 75.7144 234.932 75.7655 236.339 75.7341L236.272 72.7349ZM232.402 72.5945L232.685 69.6079L230.75 69.4245L230.467 72.4111L230.184 75.3978L232.119 75.5812L232.402 72.5945ZM230.467 72.4111L230.75 69.4245L228.815 69.2411L228.532 72.2277L228.249 75.2143L230.184 75.3978L230.467 72.4111ZM228.532 72.2277L228.815 69.2411C227.479 69.1145 226.143 69.0191 224.806 68.9549L224.662 71.9515L224.518 74.948C225.762 75.0077 227.005 75.0965 228.249 75.2143L228.532 72.2277ZM224.662 71.9515L224.806 68.9549L222.871 68.8621L222.727 71.8587L222.583 74.8552L224.518 74.948L224.662 71.9515ZM222.727 71.8587L222.871 68.8621L220.936 68.7693L220.792 71.7658L220.648 74.7624L222.583 74.8552L222.727 71.8587ZM220.792 71.7658L220.936 68.7693C219.573 68.7039 218.211 68.688 216.848 68.7216L216.922 71.7206L216.996 74.7197C218.213 74.6897 219.431 74.7039 220.648 74.7624L220.792 71.7658ZM216.922 71.7206L216.848 68.7216L214.913 68.7692L214.987 71.7683L215.061 74.7674L216.996 74.7197L216.922 71.7206ZM214.987 71.7683L214.913 68.7692L212.978 68.8169L213.052 71.816L213.126 74.8151L215.061 74.7674L214.987 71.7683ZM213.052 71.816L212.978 68.8169C211.671 68.8491 210.364 68.8926 209.056 68.9474L209.182 71.9448L209.308 74.9422C210.581 74.8888 211.853 74.8464 213.126 74.8151L213.052 71.816ZM209.182 71.9448L209.056 68.9474L207.121 69.0286L207.247 72.0259L207.373 75.0233L209.308 74.9422L209.182 71.9448ZM207.247 72.0259L207.121 69.0286L205.186 69.1097L205.312 72.1071L205.438 75.1044L207.373 75.0233L207.247 72.0259ZM205.312 72.1071L205.186 69.1097C203.858 69.1654 202.53 69.2466 201.202 69.3534L201.442 72.3438L201.682 75.3341C202.934 75.2335 204.186 75.1569 205.438 75.1044L205.312 72.1071ZM201.442 72.3438L201.202 69.3534L199.267 69.509L199.507 72.4993L199.747 75.4897L201.682 75.3341L201.442 72.3438ZM199.507 72.4993L199.267 69.509L197.332 69.6645L197.572 72.6549L197.812 75.6452L199.747 75.4897L199.507 72.4993ZM197.572 72.6549L197.332 69.6645C196.403 69.7391 195.465 69.6503 194.502 69.3839L193.702 72.2754L192.903 75.167C194.519 75.6139 196.161 75.778 197.812 75.6452L197.572 72.6549ZM193.702 72.2754L194.502 69.3839L192.567 68.8489L191.767 71.7404L190.968 74.632L192.903 75.167L193.702 72.2754ZM191.767 71.7404L192.567 68.8489L190.632 68.3139L189.832 71.2055L189.033 74.097L190.968 74.632L191.767 71.7404ZM189.832 71.2055L190.632 68.3139C189.008 67.8651 187.359 67.7062 185.7 67.8519L185.962 70.8404L186.225 73.8289C187.146 73.748 188.076 73.8326 189.033 74.097L189.832 71.2055ZM185.962 70.8404L185.7 67.8519L183.765 68.0218L184.027 71.0103L184.29 73.9988L186.225 73.8289L185.962 70.8404ZM184.027 71.0103L183.765 68.0218L181.83 68.1917L182.092 71.1802L182.355 74.1687L184.29 73.9988L184.027 71.0103ZM182.092 71.1802L181.83 68.1917C180.831 68.2795 179.829 68.2232 178.817 68.0185L178.222 70.959L177.628 73.8995C179.195 74.2163 180.773 74.3076 182.355 74.1687L182.092 71.1802ZM178.222 70.959L178.817 68.0185L176.882 67.6273L176.287 70.5678L175.693 73.5083L177.628 73.8995L178.222 70.959ZM176.287 70.5678L176.882 67.6273L174.947 67.2361L174.352 70.1766L173.758 73.1171L175.693 73.5083L176.287 70.5678ZM174.352 70.1766L174.947 67.2361C173.413 66.926 171.87 66.8103 170.322 66.893L170.482 69.8887L170.642 72.8844C171.675 72.8293 172.711 72.9055 173.758 73.1171L174.352 70.1766ZM170.482 69.8887L170.322 66.893L168.387 66.9963L168.547 69.992L168.707 72.9877L170.642 72.8844L170.482 69.8887ZM168.547 69.992L168.387 66.9963L166.452 67.0996L166.612 70.0953L166.772 73.0911L168.707 72.9877L168.547 69.992ZM166.612 70.0953L166.452 67.0996C165.271 67.1627 164.09 67.1613 162.909 67.0955L162.742 70.0908L162.575 73.0862C163.974 73.1641 165.373 73.1658 166.772 73.0911L166.612 70.0953ZM162.742 70.0908L162.909 67.0955L160.974 66.9876L160.807 69.983L160.64 72.9783L162.575 73.0862L162.742 70.0908ZM160.807 69.983L160.974 66.9876L159.039 66.8798L158.872 69.8752L158.705 72.8705L160.64 72.9783L160.807 69.983ZM158.872 69.8752L159.039 66.8798C157.533 66.7959 156.028 66.8744 154.529 67.1136L155.002 70.0761L155.475 73.0386C156.556 72.8661 157.631 72.8107 158.705 72.8705L158.872 69.8752ZM155.002 70.0761L154.529 67.1136L152.594 67.4223L153.067 70.3848L153.54 73.3474L155.475 73.0386L155.002 70.0761ZM153.067 70.3848L152.594 67.4223L150.659 67.731L151.132 70.6936L151.605 73.6561L153.54 73.3474L153.067 70.3848ZM151.132 70.6936L150.659 67.731C149.582 67.903 148.51 67.9565 147.439 67.8933L147.262 70.888L147.085 73.8828C148.595 73.972 150.102 73.8958 151.605 73.6561L151.132 70.6936ZM147.262 70.888L147.439 67.8933L145.504 67.779L145.327 70.7738L145.15 73.7686L147.085 73.8828L147.262 70.888ZM145.327 70.7738L145.504 67.779L143.569 67.6647L143.392 70.6595L143.215 73.6543L145.15 73.7686L145.327 70.7738ZM143.392 70.6595L143.569 67.6647C142.246 67.5866 140.922 67.5307 139.598 67.497L139.522 70.496L139.446 73.495C140.702 73.527 141.959 73.5801 143.215 73.6543L143.392 70.6595ZM139.522 70.496L139.598 67.497L137.663 67.4477L137.587 70.4467L137.511 73.4458L139.446 73.495L139.522 70.496ZM137.587 70.4467L137.663 67.4477L135.728 67.3985L135.652 70.3975L135.576 73.3965L137.511 73.4458L137.587 70.4467ZM135.652 70.3975L135.728 67.3985C134.323 67.3627 132.918 67.4078 131.514 67.5338L131.782 70.5218L132.05 73.5098C133.226 73.4043 134.401 73.3666 135.576 73.3965L135.652 70.3975ZM131.782 70.5218L131.514 67.5338L129.579 67.7073L129.847 70.6953L130.115 73.6833L132.05 73.5098L131.782 70.5218ZM129.847 70.6953L129.579 67.7073L127.644 67.8808L127.912 70.8689L128.18 73.8569L130.115 73.6833L129.847 70.6953ZM127.912 70.8689L127.644 67.8808C126.222 68.0084 124.803 68.2308 123.388 68.5468L124.042 71.4746L124.696 74.4025C125.862 74.1422 127.023 73.9607 128.18 73.8569L127.912 70.8689ZM124.042 71.4746L123.388 68.5468L121.453 68.9791L122.107 71.9069L122.761 74.8347L124.696 74.4025L124.042 71.4746ZM122.107 71.9069L121.453 68.9791L119.518 69.4113L120.172 72.3392L120.826 75.267L122.761 74.8347L122.107 71.9069ZM120.172 72.3392L119.518 69.4113C118.566 69.6239 117.631 69.665 116.696 69.5412L116.302 72.5153L115.908 75.4893C117.553 75.7071 119.198 75.6307 120.826 75.267L120.172 72.3392ZM116.302 72.5153L116.696 69.5412L114.761 69.2851L114.367 72.2592L113.973 75.2332L115.908 75.4893L116.302 72.5153ZM114.367 72.2592L114.761 69.2851L112.826 69.029L112.432 72.003L112.038 74.9771L113.973 75.2332L114.367 72.2592ZM112.432 72.003L112.826 69.029C111.393 68.8394 109.958 68.7539 108.522 68.7731L108.562 71.7728L108.602 74.7726C109.746 74.7573 110.891 74.8252 112.038 74.9771L112.432 72.003ZM108.562 71.7728L108.522 68.7731L106.587 68.799L106.627 71.7988L106.667 74.7985L108.602 74.7726L108.562 71.7728ZM106.627 71.7988L106.587 68.799L104.652 68.8249L104.692 71.8247L104.732 74.8244L106.667 74.7985L106.627 71.7988ZM104.692 71.8247L104.652 68.8249C103.37 68.8421 102.088 68.8543 100.805 68.8614L100.822 71.8613L100.839 74.8613C102.137 74.8541 103.434 74.8418 104.732 74.8244L104.692 71.8247ZM100.822 71.8613L100.805 68.8614L98.8704 68.8721L98.8871 71.8721L98.9038 74.872L100.839 74.8613L100.822 71.8613ZM98.8871 71.8721L98.8704 68.8721L96.9354 68.8829L96.9521 71.8829L96.9688 74.8828L98.9038 74.872L98.8871 71.8721ZM96.9521 71.8829L96.9354 68.8829C95.9114 68.8886 94.8781 68.7602 93.8295 68.4904L93.0821 71.3958L92.3347 74.3012C93.8661 74.6952 95.4128 74.8915 96.9688 74.8828L96.9521 71.8829ZM93.0821 71.3958L93.8295 68.4904L91.8945 67.9927L91.1471 70.8981L90.3997 73.8035L92.3347 74.3012L93.0821 71.3958ZM91.1471 70.8981L91.8945 67.9927L89.9595 67.4949L89.2121 70.4003L88.4647 73.3057L90.3997 73.8035L91.1471 70.8981ZM89.2121 70.4003L89.9595 67.4949C88.1429 67.0276 86.3046 67.0612 84.5022 67.5868L85.3421 70.4669L86.182 73.3469C86.9596 73.1201 87.7013 73.1093 88.4647 73.3057L89.2121 70.4003ZM85.3421 70.4669L84.5022 67.5868L82.5672 68.1512L83.4071 71.0312L84.247 73.9112L86.182 73.3469L85.3421 70.4669ZM83.4071 71.0312L82.5672 68.1512L80.6322 68.7155L81.4721 71.5955L82.312 74.4755L84.247 73.9112L83.4071 71.0312ZM81.4721 71.5955L80.6322 68.7155C79.5764 69.0234 78.5385 69.1881 77.5132 69.2185L77.6021 72.2172L77.691 75.2159C79.2457 75.1698 80.7878 74.92 82.312 74.4755L81.4721 71.5955ZM77.6021 72.2172L77.5132 69.2185L75.5782 69.2759L75.6671 72.2746L75.7561 75.2733L77.691 75.2159L77.6021 72.2172ZM75.6671 72.2746L75.5782 69.2759L73.6432 69.3333L73.7321 72.332L73.821 75.3307L75.7561 75.2733L75.6671 72.2746ZM73.7321 72.332L73.6432 69.3333C72.5895 69.3645 71.5312 69.2728 70.4636 69.0543L69.8621 71.9933L69.2606 74.9324C70.773 75.242 72.2947 75.3759 73.821 75.3307L73.7321 72.332ZM69.8621 71.9933L70.4636 69.0543L68.5286 68.6582L67.9271 71.5973L67.3256 74.5364L69.2606 74.9324L69.8621 71.9933ZM67.9271 71.5973L68.5286 68.6582L66.5936 68.2622L65.9921 71.2013L65.3906 74.1403L67.3256 74.5364L67.9271 71.5973ZM65.9921 71.2013L66.5936 68.2622C64.9293 67.9216 63.2521 67.9026 61.583 68.2075L62.1221 71.1587L62.6612 74.1099C63.5721 73.9435 64.4749 73.9529 65.3906 74.1403L65.9921 71.2013ZM62.1221 71.1587L61.583 68.2075L59.648 68.561L60.1871 71.5122L60.7262 74.4633L62.6612 74.1099L62.1221 71.1587ZM60.1871 71.5122L59.648 68.561L57.713 68.9145L58.2521 71.8656L58.7912 74.8168L60.7262 74.4633L60.1871 71.5122ZM58.2521 71.8656L57.713 68.9145C56.7033 69.0989 55.7026 69.136 54.7021 69.0286L54.3821 72.0115L54.0621 74.9944C55.6416 75.1638 57.2209 75.1036 58.7912 74.8168L58.2521 71.8656ZM54.3821 72.0115L54.7021 69.0286L52.7671 68.821L52.4471 71.8039L52.1271 74.7868L54.0621 74.9944L54.3821 72.0115ZM52.4471 71.8039L52.7671 68.821L50.8321 68.6135L50.5121 71.5963L50.1921 74.5792L52.1271 74.7868L52.4471 71.8039ZM50.5121 71.5963L50.8321 68.6135C49.6382 68.4854 48.4423 68.2988 47.2441 68.0534L46.6421 70.9924L46.0401 73.9314C47.422 74.2144 48.8061 74.4305 50.1921 74.5792L50.5121 71.5963ZM46.6421 70.9924L47.2441 68.0534L45.3091 67.6571L44.7071 70.596L44.1051 73.535L46.0401 73.9314L46.6421 70.9924ZM44.7071 70.596L45.3091 67.6571L43.3741 67.2607L42.7721 70.1997L42.1701 73.1387L44.1051 73.535L44.7071 70.596ZM42.7721 70.1997L43.3741 67.2607C41.6307 66.9036 39.8778 66.9527 38.1507 67.3995L38.9021 70.3039L39.6535 73.2083C40.5063 72.9877 41.3335 72.9673 42.1701 73.1387L42.7721 70.1997ZM38.9021 70.3039L38.1507 67.3995L36.2157 67.9001L36.9671 70.8045L37.7185 73.7089L39.6535 73.2083L38.9021 70.3039ZM36.9671 70.8045L36.2157 67.9001L34.2807 68.4007L35.0321 71.3051L35.7835 74.2095L37.7185 73.7089L36.9671 70.8045ZM35.0321 71.3051L34.2807 68.4007C33.2922 68.6565 32.324 68.7466 31.3644 68.6818L31.1621 71.675L30.9598 74.6681C32.5802 74.7776 34.192 74.6212 35.7835 74.2095L35.0321 71.3051ZM31.1621 71.675L31.3644 68.6818L29.4294 68.551L29.2271 71.5442L29.0248 74.5374L30.9598 74.6681L31.1621 71.675ZM29.2271 71.5442L29.4294 68.551L27.4944 68.4203L27.2921 71.4134L27.0898 74.4066L29.0248 74.5374L29.2271 71.5442ZM27.2921 71.4134L27.4944 68.4203C26.1578 68.3299 24.8076 68.2701 23.4441 68.2405L23.3791 71.2398L23.3141 74.2391C24.5879 74.2667 25.8465 74.3226 27.0898 74.4066L27.2921 71.4134ZM23.3791 71.2398L23.4441 68.2405L21.466 68.1977L21.4011 71.197L21.3361 74.1963L23.3141 74.2391L23.3791 71.2398ZM21.4011 71.197L21.466 68.1977L19.488 68.1548L19.423 71.1541L19.3581 74.1534L21.3361 74.1963L21.4011 71.197ZM19.423 71.1541L19.488 68.1548C18.98 68.1438 18.6377 67.9913 18.288 67.6162L16.0938 69.6621L13.8996 71.7079C15.3515 73.2651 17.2287 74.1073 19.3581 74.1534L19.423 71.1541ZM16.0938 69.6621L18.288 67.6162L16.9367 66.167L14.7425 68.2128L12.5483 70.2587L13.8996 71.7079L16.0938 69.6621ZM14.7425 68.2128L16.9367 66.167L15.5855 64.7177L13.3913 66.7636L11.1971 68.8094L12.5483 70.2587L14.7425 68.2128ZM13.3913 66.7636L15.5855 64.7177C14.5243 63.5796 13.3379 62.5732 12.0318 61.6992L10.3634 64.1925L8.69511 66.6858C9.62441 67.3077 10.4566 68.0152 11.1971 68.8094L13.3913 66.7636ZM10.3634 64.1925L12.0318 61.6992L10.3551 60.5773L8.68683 63.0707L7.0185 65.564L8.69511 66.6858L10.3634 64.1925ZM8.68683 63.0707L10.3551 60.5773L8.67854 59.4555L7.01022 61.9488L5.3419 64.4422L7.0185 65.564L8.68683 63.0707ZM7.01022 61.9488L8.67854 59.4555C8.57808 59.3883 8.52393 59.3365 8.49769 59.3078C8.47292 59.2807 8.46611 59.2668 8.46479 59.2642C8.46348 59.2615 8.4565 59.2478 8.44977 59.2119C8.44264 59.1739 8.43382 59.0997 8.44049 58.9792L5.44508 58.8134L2.44966 58.6476C2.31673 61.049 3.34333 63.1049 5.3419 64.4422L7.01022 61.9488ZM5.44508 58.8134L8.44049 58.9792L8.55196 56.9656L5.55655 56.7998L2.56113 56.634L2.44966 58.6476L5.44508 58.8134ZM5.55655 56.7998L8.55196 56.9656L8.66343 54.952L5.66802 54.7862L2.6726 54.6204L2.56113 56.634L5.55655 56.7998ZM5.66802 54.7862L8.66343 54.952C8.74194 53.5338 8.76469 52.1459 8.7306 50.7888L5.73154 50.8642L2.73249 50.9395C2.76232 52.1271 2.74272 53.3538 2.6726 54.6204L5.66802 54.7862ZM5.73154 50.8642L8.7306 50.7888L8.68266 48.8804L5.6836 48.9557L2.68455 49.031L2.73249 50.9395L5.73154 50.8642ZM5.6836 48.9557L8.68266 48.8804L8.63472 46.9719L5.63566 47.0472L2.63661 47.1225L2.68455 49.031L5.6836 48.9557ZM5.63566 47.0472L8.63472 46.9719C8.59419 45.3584 8.28228 43.7632 7.72377 42.1964L4.89795 43.2037L2.07212 44.2111C2.43332 45.2243 2.61322 46.1914 2.63661 47.1225L5.63566 47.0472ZM4.89795 43.2037L7.72377 42.1964L7.034 40.2614L4.20817 41.2687L1.38235 42.2761L2.07212 44.2111L4.89795 43.2037ZM4.20817 41.2687L7.034 40.2614L6.34422 38.3264L3.5184 39.3337L0.692571 40.3411L1.38235 42.2761L4.20817 41.2687ZM3.5184 39.3337L6.34422 38.3264C6.03082 37.4472 5.94113 36.6216 6.03627 35.8153L3.05694 35.4637L0.0776067 35.1122C-0.131675 36.8859 0.0862694 38.6402 0.692571 40.3411L3.5184 39.3337ZM3.05694 35.4637L6.03627 35.8153L6.26459 33.8803L3.28526 33.5287L0.305926 33.1772L0.0776067 35.1122L3.05694 35.4637ZM3.28526 33.5287L6.26459 33.8803L6.49291 31.9453L3.51358 31.5937L0.534245 31.2422L0.305926 33.1772L3.28526 33.5287ZM3.51358 31.5937L6.49291 31.9453C6.63272 30.7604 6.83479 29.5853 7.09922 28.4196L4.17355 27.7559L1.24788 27.0922C0.936775 28.4637 0.698856 29.8471 0.534245 31.2422L3.51358 31.5937ZM4.17355 27.7559L7.09922 28.4196L7.53087 26.5167L4.6052 25.8531L1.67954 25.1894L1.24788 27.0922L4.17355 27.7559ZM4.6052 25.8531L7.53087 26.5167L7.96253 24.6139L5.03686 23.9502L2.11119 23.2865L1.67954 25.1894L4.6052 25.8531ZM5.03686 23.9502L7.96253 24.6139C8.28389 23.1972 8.49776 21.7577 8.60476 20.2968L5.61278 20.0776L2.62079 19.8585C2.53544 21.0239 2.36537 22.1661 2.11119 23.2865L5.03686 23.9502ZM5.61278 20.0776L8.60476 20.2968L8.74903 18.327L5.75704 18.1079L2.76506 17.8888L2.62079 19.8585L5.61278 20.0776ZM5.75704 18.1079L8.74903 18.327L8.89329 16.3573L5.90131 16.1382L2.90932 15.919L2.76506 17.8888L5.75704 18.1079ZM5.90131 16.1382L8.89329 16.3573C8.9423 15.6881 9.17077 15.1175 9.63508 14.5677L7.34309 12.632L5.0511 10.6964C3.78538 12.1951 3.05266 13.9619 2.90932 15.919L5.90131 16.1382ZM7.34309 12.632L9.63508 14.5677L10.9326 13.0313L8.64061 11.0957L6.34862 9.16L5.0511 10.6964L7.34309 12.632ZM8.64061 11.0957L10.9326 13.0313L12.2301 11.4949L9.93813 9.55928L7.64614 7.62362L6.34862 9.16L8.64061 11.0957ZM9.93813 9.55928L12.2301 11.4949C12.8552 10.7548 13.589 10.1553 14.4472 9.68607L13.008 7.05384L11.5688 4.42161C10.0639 5.24443 8.75109 6.31527 7.64614 7.62362L9.93813 9.55928ZM13.008 7.05384L14.4472 9.68607L16.2196 8.717L14.7803 6.08477L13.3411 3.45255L11.5688 4.42161L13.008 7.05384ZM14.7803 6.08477L16.2196 8.717L17.9919 7.74794L16.5527 5.11571L15.1135 2.48348L13.3411 3.45255L14.7803 6.08477ZM16.5527 5.11571L17.9919 7.74794C18.7545 7.33099 19.1137 7.37118 19.216 7.3922L19.8195 4.45352L20.4229 1.51484C18.5327 1.12668 16.714 1.60834 15.1135 2.48348L16.5527 5.11571ZM19.8195 4.45352L19.216 7.3922L20.7104 7.69907L21.3139 4.76039L21.9173 1.82171L20.4229 1.51484L19.8195 4.45352ZM21.3139 4.76039L20.7104 7.69907L22.2049 8.00595L22.8083 5.06727L23.4118 2.12859L21.9173 1.82171L21.3139 4.76039ZM22.8083 5.06727L22.2049 8.00595C22.7346 8.11474 23.3094 8.21367 23.8185 8.23245C24.0281 8.24018 24.5237 8.25115 25.0714 8.08683C25.3542 8.00198 25.8815 7.80388 26.3724 7.32588C26.9446 6.76866 27.3027 5.98474 27.3027 5.1224H24.3027H21.3027C21.3027 4.30202 21.6453 3.55425 22.1864 3.02734C22.6461 2.57966 23.1267 2.40607 23.3473 2.33989C23.5921 2.26643 23.7836 2.24743 23.867 2.24115C23.9617 2.23401 24.024 2.23595 24.0397 2.23653C24.0507 2.23693 23.8783 2.22438 23.4118 2.12859L22.8083 5.06727ZM24.3027 5.1224H27.3027V4.87067H24.3027H21.3027V5.1224H24.3027ZM24.3027 4.87067H27.3027V4.61893H24.3027H21.3027V4.87067H24.3027ZM24.3027 4.61893H27.3027C27.3027 5.65342 26.7819 6.35955 26.4292 6.70406C26.1013 7.02427 25.7846 7.17735 25.6692 7.23005C25.4265 7.34077 25.273 7.35991 25.3639 7.34207C25.4924 7.31686 25.821 7.27343 26.4355 7.23285L26.2377 4.23937L26.04 1.2459C25.3644 1.29052 24.7255 1.35296 24.209 1.45427C23.9775 1.49969 23.5821 1.58725 23.1782 1.77156C22.9821 1.86104 22.6049 2.05221 22.2368 2.41179C21.8437 2.79568 21.3027 3.54247 21.3027 4.61893H24.3027ZM26.2377 4.23937L26.4355 7.23285L28.3705 7.10504L28.1727 4.11156L27.975 1.11808L26.04 1.2459L26.2377 4.23937Z" fill="black"/>
<path d="M159.191 32.9746C158.48 32.9746 157.373 32.9245 155.869 32.8242C154.42 32.724 153.312 32.6784 152.547 32.6875C152.583 33.7266 152.706 35.5768 152.916 38.2383C153.107 40.5898 153.203 42.4492 153.203 43.8164C153.203 44.1263 153.235 44.5866 153.299 45.1973C153.363 45.8079 153.395 46.2682 153.395 46.5781C153.395 47.2617 153.249 47.877 152.957 48.4238C152.583 49.1257 152.05 49.4766 151.357 49.4766C150.856 49.4766 150.414 49.3171 150.031 48.998C149.603 48.6426 149.389 48.196 149.389 47.6582C149.389 47.5306 149.411 47.3392 149.457 47.084C149.503 46.8197 149.525 46.6191 149.525 46.4824C149.525 46.0632 149.493 45.4297 149.43 44.582C149.375 43.7344 149.348 43.0964 149.348 42.668C149.348 41.4466 149.252 39.7923 149.061 37.7051C148.842 35.3079 148.714 33.6536 148.678 32.7422H147.967C145.934 32.7422 144.321 32.5964 143.127 32.3047C142.115 32.0586 141.609 31.4616 141.609 30.5137C141.609 30.0488 141.773 29.6296 142.102 29.2559C142.484 28.8092 142.986 28.6087 143.605 28.6543C143.924 28.6725 144.649 28.75 145.779 28.8867C146.682 28.987 147.411 29.0371 147.967 29.0371C148.523 29.0371 149.352 29.028 150.455 29.0098C151.567 28.9915 152.401 28.9824 152.957 28.9824C153.65 28.9824 154.689 29.0326 156.074 29.1328C157.46 29.224 158.499 29.2695 159.191 29.2695C159.738 29.2695 160.194 29.4473 160.559 29.8027C160.932 30.1582 161.119 30.5957 161.119 31.1152C161.119 31.6348 160.932 32.0768 160.559 32.4414C160.194 32.7969 159.738 32.9746 159.191 32.9746ZM167.996 50.1738C166.31 50.1738 164.861 49.5951 163.648 48.4375C162.318 47.1706 161.62 45.4798 161.557 43.3652C161.493 41.3509 162.044 39.5553 163.211 37.9785C164.596 36.1191 166.524 35.1895 168.994 35.1895C170.817 35.1895 172.266 35.9186 173.342 37.377C174.308 38.6895 174.791 40.3164 174.791 42.2578C174.791 44.3724 174.226 46.1771 173.096 47.6719C171.829 49.3398 170.129 50.1738 167.996 50.1738ZM168.816 38.7988C167.695 38.7897 166.811 39.3001 166.164 40.3301C165.617 41.196 165.344 42.2077 165.344 43.3652C165.344 44.459 165.654 45.2975 166.273 45.8809C166.766 46.3457 167.34 46.5781 167.996 46.5781C168.789 46.5781 169.477 46.3092 170.061 45.7715C170.726 45.1426 171.081 44.2904 171.127 43.2148C171.245 40.2799 170.475 38.8079 168.816 38.7988ZM184.443 48.3555C184.398 48.8112 184.211 49.1849 183.883 49.4766C183.555 49.7682 183.149 49.9141 182.666 49.9141C181.745 49.9141 181.094 49.4401 180.711 48.4922C179.727 46.0312 178.218 42.3581 176.186 37.4727C176.067 37.1992 176.008 36.9395 176.008 36.6934C176.008 36.2012 176.204 35.7865 176.596 35.4492C176.997 35.1029 177.452 34.9297 177.963 34.9297C178.747 34.9297 179.307 35.2897 179.645 36.0098C180.164 37.1126 181.176 39.6921 182.68 43.748C183.163 42.7181 183.828 41.1504 184.676 39.0449C184.931 38.3431 185.327 37.3633 185.865 36.1055C186.239 35.3763 186.804 35.0117 187.561 35.0117C188.071 35.0117 188.522 35.1803 188.914 35.5176C189.315 35.8548 189.516 36.2741 189.516 36.7754C189.516 37.1035 188.777 38.9082 187.301 42.1895C186.098 44.8691 185.145 46.9245 184.443 48.3555ZM202.518 50.2695C202.098 50.2695 201.433 49.8138 200.521 48.9023C199.683 49.3034 198.945 49.6042 198.307 49.8047C197.669 50.0143 197.126 50.1191 196.68 50.1191C194.483 50.1191 192.833 49.5312 191.73 48.3555C190.637 47.1797 190.09 45.4206 190.09 43.0781C190.09 40.8815 190.901 39.0039 192.523 37.4453C194.146 35.8776 196.087 35.0938 198.348 35.0938C199.214 35.0938 200.216 35.3398 201.355 35.832C202.732 36.4245 203.42 37.1126 203.42 37.8965C203.42 38.2246 203.315 38.5117 203.105 38.7578C203.014 39.1224 202.941 39.5827 202.887 40.1387C202.841 40.6855 202.818 41.3281 202.818 42.0664C202.818 43.8073 202.941 45.0605 203.188 45.8262C203.215 45.9082 203.424 46.3822 203.816 47.248C204.172 48.0319 204.35 48.4785 204.35 48.5879C204.35 49.071 204.163 49.472 203.789 49.791C203.424 50.11 203.001 50.2695 202.518 50.2695ZM199.127 40.8906C199.127 40.599 199.145 40.2663 199.182 39.8926C199.227 39.5098 199.291 39.0859 199.373 38.6211C199.191 38.5299 199.027 38.4661 198.881 38.4297C198.744 38.3841 198.626 38.3613 198.525 38.3613C197.286 38.3613 196.201 38.849 195.271 39.8242C194.342 40.7904 193.877 41.9115 193.877 43.1875C193.877 44.4089 194.096 45.3294 194.533 45.9492C194.971 46.5599 195.627 46.8652 196.502 46.8652C197.067 46.8652 197.6 46.7741 198.102 46.5918C198.612 46.4004 199.09 46.1224 199.537 45.7578C199.264 43.5885 199.127 41.9661 199.127 40.8906ZM201.834 29.3652C201.351 29.6934 200.754 30.2493 200.043 31.0332C199.296 31.8535 198.703 32.4232 198.266 32.7422C197.91 33.0065 197.518 33.1387 197.09 33.1387C196.607 33.1387 196.188 32.9837 195.832 32.6738C195.477 32.3639 195.299 32.0039 195.299 31.5938C195.299 31.2565 195.49 30.8874 195.873 30.4863C196.21 30.1764 196.543 29.8665 196.871 29.5566C197.846 28.4902 198.421 27.8796 198.594 27.7246C199.423 26.9772 200.157 26.6035 200.795 26.6035C201.278 26.6035 201.693 26.763 202.039 27.082C202.395 27.401 202.572 27.7611 202.572 28.1621C202.572 28.627 202.326 29.028 201.834 29.3652ZM212.771 49.9414C211.495 49.9414 210.283 49.7181 209.135 49.2715C208.798 49.6087 208.387 49.7773 207.904 49.7773C207.412 49.7773 206.988 49.6133 206.633 49.2852C206.286 48.957 206.113 48.5469 206.113 48.0547C206.113 47.8359 206.127 47.5033 206.154 47.0566C206.182 46.6009 206.195 46.2637 206.195 46.0449V30.5547C206.195 29.8984 206.341 29.3151 206.633 28.8047C206.997 28.1576 207.517 27.834 208.191 27.834C209.167 27.834 209.654 28.3626 209.654 29.4199C209.654 29.5384 209.636 29.7298 209.6 29.9941C209.572 30.2493 209.559 30.4362 209.559 30.5547V35.791C210.233 35.4173 210.88 35.1393 211.5 34.957C212.12 34.7656 212.717 34.6699 213.291 34.6699C215.433 34.6699 217.165 35.4492 218.486 37.0078C219.717 38.4661 220.332 40.2344 220.332 42.3125C220.332 44.4271 219.617 46.2181 218.186 47.6855C216.727 49.1895 214.923 49.9414 212.771 49.9414ZM213.291 38.1699C212.817 38.1699 212.27 38.3066 211.65 38.5801C211.031 38.8535 210.333 39.2637 209.559 39.8105C209.549 40.6764 209.549 42.6133 209.559 45.6211C210.807 46.1589 211.878 46.4277 212.771 46.4277C213.929 46.4277 214.882 46.0404 215.629 45.2656C216.376 44.4818 216.75 43.4974 216.75 42.3125C216.75 41.1276 216.445 40.1478 215.834 39.373C215.196 38.571 214.348 38.1699 213.291 38.1699ZM229.396 49.9414C228.12 49.9414 226.908 49.7181 225.76 49.2715C225.423 49.6087 225.012 49.7773 224.529 49.7773C224.037 49.7773 223.613 49.6133 223.258 49.2852C222.911 48.957 222.738 48.5469 222.738 48.0547C222.738 47.8359 222.752 47.5033 222.779 47.0566C222.807 46.6009 222.82 46.2637 222.82 46.0449V30.5547C222.82 29.8984 222.966 29.3151 223.258 28.8047C223.622 28.1576 224.142 27.834 224.816 27.834C225.792 27.834 226.279 28.3626 226.279 29.4199C226.279 29.5384 226.261 29.7298 226.225 29.9941C226.197 30.2493 226.184 30.4362 226.184 30.5547V35.791C226.858 35.4173 227.505 35.1393 228.125 34.957C228.745 34.7656 229.342 34.6699 229.916 34.6699C232.058 34.6699 233.79 35.4492 235.111 37.0078C236.342 38.4661 236.957 40.2344 236.957 42.3125C236.957 44.4271 236.242 46.2181 234.811 47.6855C233.352 49.1895 231.548 49.9414 229.396 49.9414ZM229.916 38.1699C229.442 38.1699 228.895 38.3066 228.275 38.5801C227.656 38.8535 226.958 39.2637 226.184 39.8105C226.174 40.6764 226.174 42.6133 226.184 45.6211C227.432 46.1589 228.503 46.4277 229.396 46.4277C230.554 46.4277 231.507 46.0404 232.254 45.2656C233.001 44.4818 233.375 43.4974 233.375 42.3125C233.375 41.1276 233.07 40.1478 232.459 39.373C231.821 38.571 230.973 38.1699 229.916 38.1699Z" fill="black"/>
</svg>
