<svg xmlns="http://www.w3.org/2000/svg" width="134" height="100" fill="none"><g clip-path="url(#a)"><rect width="134" height="100" fill="#EEE" rx="15"/><path fill="#000" d="m132.15 29.8.1-.03a35.4 35.4 0 0 1 10.62-1.05l.06-.03a.47.47 0 0 0 .11-.1v-.76a.81.81 0 0 0-.05-.04c-.92-.18-1.85-.25-2.81-.22-3 .09-5.93.5-8.81 1.24a10.7 10.7 0 0 0-5.74-3.32c-2.7-.62-5.25-.34-7.63.85a5.47 5.47 0 0 0-.22-.08.87.87 0 0 0-.44.08c-.2.1-.4.18-.6.25a.93.93 0 0 0-.35.2 61.27 61.27 0 0 1-3.58-3.62 25.37 25.37 0 0 0-4.1-3.61 68.04 68.04 0 0 1 4.82-3.11 23.56 23.56 0 0 1 11.25-3.3.95.95 0 0 0 .12-.08c.05-.04.1-.1.13-.15a.73.73 0 0 0 .06-.13.3.3 0 0 0 .01-.08.5.5 0 0 0-.03-.25.6.6 0 0 0-.14-.21c-2.4-.3-4.77.06-7.1 1.07a60.76 60.76 0 0 0-10.11 5.56 33.08 33.08 0 0 0-7.77-3.65.56.56 0 0 0-.01-.23.78.78 0 0 0-.1-.21.26.26 0 0 0-.06-.06.26.26 0 0 0-.06-.06l-.06-.04a1.66 1.66 0 0 0-.22-.07.56.56 0 0 0-.23.01l-.08.03a.22.22 0 0 0-.06.03.92.92 0 0 0-.13.09 16.3 16.3 0 0 1-.5-.44 5.32 5.32 0 0 1-.38-2.71 102.94 102.94 0 0 0 .26-2.78l-.02-.07a485.25 485.25 0 0 1-.08-.14 2.35 2.35 0 0 0-.25-.2l-.07-.01a.71.71 0 0 0-.15-.03l.04-.33c.03-.82-.04-1.63-.2-2.44a3.6 3.6 0 0 0-.97-1.69 1.07 1.07 0 0 0-.4-.09 5.5 5.5 0 0 1-.86-.09 4.05 4.05 0 0 0-.84-.06.28.28 0 0 0-.12.08 1.39 1.39 0 0 0-.23.4c-.07.35-.08.7-.03 1.04a35.57 35.57 0 0 1 .42 4.13l-.2-.41a13.3 13.3 0 0 1-1-2.56c-.1-.34-.25-.68-.46-1.02a.93.93 0 0 0 .1-.23c.14-.6.1-1.18-.15-1.75-.24-.56-.63-1-1.16-1.31a188.3 188.3 0 0 0-3.65.67.69.69 0 0 0-.24.08 2.22 2.22 0 0 0-.99-.24l-.25.07-.28.08h-.81c-.44-.01-.89 0-1.33.04-.46.04-.9.17-1.3.37l-.3.42c-.23.35-.4.72-.51 1.12-.16.54-.35 1.07-.57 1.59a.64.64 0 0 0 .02.19l.02.04a72 72 0 0 1-.93 2.31l-.01-.1a7.86 7.86 0 0 1-.05-.5l.9-2.24c.28-.68.38-1.36.3-2.03a6.02 6.02 0 0 1-.3-.21.67.67 0 0 0-.16-.06c-.25 0-.5 0-.74.03l-1.7.16c-.57.06-1.1.2-1.61.4-.11.17-.2.35-.24.54a7.8 7.8 0 0 0-.24 1.87c0 .45-.01.9-.04 1.35a.86.86 0 0 0-.2.2c-.08.23-.14.48-.18.73a26.67 26.67 0 0 0-.33 5.07l-.44.26c-.61.34-1.25.63-1.93.86a.47.47 0 0 0-.13.2 71.07 71.07 0 0 0-.04.28c-1.49.8-2.99 1.63-4.49 2.49-1.62.92-3.29 1.77-4.99 2.55-1.9.87-3.64 1.99-5.2 3.36l-3.03 2.62a4.44 4.44 0 0 0-2.63-.74 17.32 17.32 0 0 0-6.16 1.22c-1.43-1.29.98.7-.62-.4-1.13-.75.06-.42-1.1-1.12l-1.76 1.25c.96.6 1.35.18 2.3.81-1.22-1.17 1.4.94 0 0l-.64.34a15.38 15.38 0 0 0-6.04 6.19 9.47 9.47 0 0 0-1 2.76c-2.6-.7-4.42-2.67-7.11-2.63v1.1l.93.01c2.31.06 3.74 2 5.95 2.53l-.24 1.2a9.81 9.81 0 0 0 1.36 7.45c-.77.31-1.51.7-2.22 1.15a7.62 7.62 0 0 0-3.3 4.48 81.68 81.68 0 0 0-1.23 4.95c.03.2.08.4.15.6.1.28.15.57.12.87-.03.36-.1.7-.22 1.04l-.1.03-.1.02a2.2 2.2 0 0 0-.43.23c-.24.3-.34.64-.29 1.04.1.72.2 1.45.28 2.18.1.86.07 1.7-.11 2.55l-.04.07a.48.48 0 0 0-.04.08.92.92 0 0 1-.04.06.67.67 0 0 0-.04.07l-.07.08-.08.06a101.27 101.27 0 0 1-.24.18 7.76 7.76 0 0 1-.57.24c-.16.06-.3.14-.43.24a75.93 75.93 0 0 0-.23.07l-.07.04-.18.15-.2.18c-.16.27-.24.57-.26.89a6.46 6.46 0 0 0 .27 2.02 55.8 55.8 0 0 1-3.58.72v1.06c1.26-.2 2.5-.46 3.75-.75a21.5 21.5 0 0 1-1.32 2.47c-.6.96-1.13 1.88-1.59 2.75a32.14 32.14 0 0 0-3.05 8.53 19.12 19.12 0 0 0-.39 3.43 153.2 153.2 0 0 0 .1 9.52h1.02c.13-2.26.14-4.53.01-6.8-.15-2.9.18-5.73 1-8.5.4-1.36.94-2.66 1.61-3.9 1.39-2.52 2.7-5.08 3.92-7.66v-.17c1.27-.33 2.53-.71 3.79-1.14 3.6-1.23 7.13-2.64 10.6-4.22a91.58 91.58 0 0 0 7.45-3.84l.25.7c-.3.52-.57 1.07-.83 1.63a26.27 26.27 0 0 1-3.72 6.02 17.92 17.92 0 0 1-5.45 4.5.45.45 0 0 0-.14.2 2.21 2.21 0 0 0-.22 0c-.05 0-.1 0-.16.02l-.12.09a.7.7 0 0 0-.11.1l-.08.13a.94.94 0 0 0-.07.35 5.7 5.7 0 0 0 .24 1.5l.04.07a14.05 14.05 0 0 0 .15.17l.06.04.15.06a.69.69 0 0 0 .23.01c.03 2.86-.4 5.73-1.27 8.6-.11.4-.28.76-.48 1.1a79.11 79.11 0 0 1-4.8 6.95 20.77 20.77 0 0 0-2.44 4h1.44v-.01a37.48 37.48 0 0 1 5-7.47c.51-.59.94-1.22 1.3-1.9a20.42 20.42 0 0 0 2.34-8.81 13.89 13.89 0 0 0 .08-3.55.85.85 0 0 0-.19-.23 3.37 3.37 0 0 0-.12-.09.72.72 0 0 0-.16-.03h-.16a.72.72 0 0 0-.17.04.35.35 0 0 1-.01-.1l-.01-.12v-.1a6.63 6.63 0 0 0 2.78-1.45c.79-.69 1.53-1.42 2.22-2.2a31.5 31.5 0 0 0 5.3-8.14c.56 1.1 1.28 2.14 2.16 3.12a50.44 50.44 0 0 0 7.7 6.99l.16.1a21.65 21.65 0 0 0 1.2.74v.15l.04.15a2.8 2.8 0 0 0 .85.84c.09.43.09.87 0 1.31a5.66 5.66 0 0 1-.76 2.1l-.16.32c-.07.16-.11.33-.14.5l-.29.63c-.43.9-.53 1.86-.3 2.86.22.96.41 1.91.57 2.86l-.09.1a7.38 7.38 0 0 0-.08.22c0 .05-.02.1-.03.14a10.97 10.97 0 0 0-1.77 5.28 262.92 262.92 0 0 0-.3 5.26v-.05a4.26 4.26 0 0 0-.03.53h1.22c.1-1.6.16-3.22.2-4.83.03-1.2.3-2.34.82-3.41.41-.87.73-1.77.96-2.7a1.04 1.04 0 0 0 .19-.14c.15-.35.17-.72.04-1.1a10.3 10.3 0 0 1-.2-.64h.08c.06 0 .12-.03.17-.07.12-.11.27-.2.45-.24.6-.16 1.2-.34 1.78-.55.6-.2 1.2-.32 1.82-.34l.1.14.08.06a7.8 7.8 0 0 0 .3.17l.06.01a1.2 1.2 0 0 0 .11.02h.11a.2.2 0 0 1 .05 0l.05-.02c.01 0 .03 0 .05-.02.23-.08.42-.21.57-.4.13-.16.24-.33.33-.5h.1l.17-.04a.49.49 0 0 0 .08-.04.32.32 0 0 0 .07-.05.43.43 0 0 0 .07-.05 1 1 0 0 1 .06-.07 2.85 2.85 0 0 1 .36-.18c.2-.03.38-.08.57-.16.56-.23 1.1-.52 1.62-.85.36-.23.62-.5.78-.82.45.1.87.3 1.26.57a8.8 8.8 0 0 1 3.42 4.94 20.83 20.83 0 0 1 .74 6.09v.03A8.46 8.46 0 0 0 78 92c-.32.06-.64.13-.96.23a14.07 14.07 0 0 0-1.42.53c-.9.43-1.74.96-2.5 1.59a80.36 80.36 0 0 0-3.91 3.5h1.57a13.21 13.21 0 0 1 7.9-4.69 16.03 16.03 0 0 0 7.03 1.44c.4 1 .93 1.95 1.57 2.86l.07.05a.66.66 0 0 0 .15.07l.08.02.08.01a.74.74 0 0 0 .31-.11.95.95 0 0 0 .13-.1.34.34 0 0 0 .03-.06.57.57 0 0 0 .07-.26l-.01-.15a7.94 7.94 0 0 1-1.29-2.41c.95-.1 1.9-.27 2.84-.54.6-.16 1.2-.27 1.81-.32a71 71 0 0 1 5.85-.29c1.18 0 2.25.3 3.2.9 1.78 1.15 3.52 2.34 5.24 3.57h1.85a15.03 15.03 0 0 1-.93-.68 526.3 526.3 0 0 1-3.82-3.04 8.56 8.56 0 0 0-4.12-1.72c-2.54-.33-5.04-.3-7.5.1l.16-.49h.02c.08 0 .15-.02.21-.06l.08-.09c.03-.04.05-.1.05-.14 0-.06.02-.12.04-.16.55-.65 1.1-1.3 1.68-1.92l.96-1.1a8.26 8.26 0 0 1 4.9-2.94c2.6-.5 5.2-.56 7.8-.16a.35.35 0 0 0 0 .15c0 .04.02.09.04.13a.47.47 0 0 0 .17.15c.05.02.1.03.14.02.07 0 .13 0 .2.03l.18.06c.13.06.25.1.38.14.13.04.26.08.38.14l.02.09a.3.3 0 0 0 .11.16l.1.06-.05.16a.64.64 0 0 0 .02.19l.03.08a.96.96 0 0 0 .13.18.75.75 0 0 0 .09.08l.03.19c.38 1.83.58 3.68.6 5.55.03 1.62.13 3.24.3 4.84h1.2a58.8 58.8 0 0 1-.28-4.95c-.04-2.17-.3-4.3-.8-6.4.35-1.76.21-3.5-.4-5.21-.6-1.74-1.36-3.41-2.27-5.02a8.06 8.06 0 0 0-.17-.62c.2-.08.4-.17.6-.29a66.8 66.8 0 0 0 4.8-3.18 19.8 19.8 0 0 0 4.54-4.45l.75-.78a8.2 8.2 0 0 0 1.05 3.26 6.4 6.4 0 0 0 2.45 2.45c1.73.97 3.45 1.95 5.17 2.94l.2.2.41.4a5.9 5.9 0 0 1 .95 1.1l.03.14.13.3a9.6 9.6 0 0 0-.9 2.07c-.4 1.39-.53 2.8-.37 4.23.26 2.42.86 4.77 1.79 7.07a37.37 37.37 0 0 0 3.54 6.74h1.42a39.66 39.66 0 0 1-3.28-6.12c-.53-1.23-1.04-2.46-1.53-3.7a11.75 11.75 0 0 1 .35-9.73l.12-.13a1.06 1.06 0 0 0 .19-.26l.03-.15v-.15l-.03-.15a.87.87 0 0 0-.2-.24 1.21 1.21 0 0 0-.13-.09l-.07-.02a1.1 1.1 0 0 0-.4-.64 7.62 7.62 0 0 0-3.83-3.1 10.79 10.79 0 0 1-4.57-3.23 2.8 2.8 0 0 1-.47-.83c-.41-1.1-.77-2.22-1.1-3.38l.68-.77a17.77 17.77 0 0 0 2.11-3.12c3.44-.39 6.9-.53 10.36-.43 2.45.07 4.9.17 7.35.3.37 1.01.54 2.08.5 3.2-.07 1.92-.1 3.84-.06 5.76.02.74.28 1.38.78 1.93a12.66 12.66 0 0 1 3.32 6.87l.04.07a.37.37 0 0 0 .1.12.34.34 0 0 0 .11.1c.03 0 .05.02.07.03a1.89 1.89 0 0 1 .16.05h.08c.6 1.26 1.05 2.56 1.38 3.91.37 1.49.64 2.98.82 4.5v-.04.06a253.1 253.1 0 0 1 0-.07l.06.86c.14 2.03.16 4.07.08 6.11-.03.86-.12 1.69-.26 2.48h1.12l.01-.09a44 44 0 0 0 .2-9.9 22.32 22.32 0 0 0-2.95-9.25 8.77 8.77 0 0 0-.83-2.68 15.3 15.3 0 0 0-2.4-3.52 1.77 1.77 0 0 1-.4-.72 12.9 12.9 0 0 1-.29-5.14 9.6 9.6 0 0 0-.4-4.57l3.08.2c1.78.12 3.54.32 5.28.6v-1.1c-1.38-.23-2.78-.4-4.2-.52-1.55-.13-3.1-.24-4.66-.34a10.8 10.8 0 0 0-.3-.53c.45-2.4.4-4.8-.14-7.23a22.78 22.78 0 0 0-1.3-3.98 7.8 7.8 0 0 0-2.32-3.09c.02-.06.02-.12.02-.18l-.04-.18a1.22 1.22 0 0 0-.26-.33c-.16-.13-.28-.3-.36-.5a.92.92 0 0 0-.04-.09 364.8 364.8 0 0 0-.88-8.46 13.7 13.7 0 0 0-2.48-6.46Zm-3.35-1.55c.43.3.83.6 1.2.94l-.24.07a25.99 25.99 0 0 0-5.5 2.35 9.74 9.74 0 0 0-7.72-2.18.8.8 0 0 0 .14-.12.83.83 0 0 0 .1-.44c0-.04 0-.07-.02-.1a.43.43 0 0 0-.06-.13c.02-.04.03-.1.03-.15a10.26 10.26 0 0 0 .19-.58l.05-.03a.8.8 0 0 0 .2-.17 53.08 53.08 0 0 0 .67-.27l.04.02.07.02.15.03c1.7-.86 3.52-1.21 5.43-1.07 1.94.14 3.7.74 5.27 1.81Zm2.13 1.88a10.18 10.18 0 0 1 2.4 5.69l1 8.51a.47.47 0 0 0-.05.11.75.75 0 0 0-.06.17c-.01.13.01.25.07.37.13.28.28.55.46.8.12.2.27.37.45.51a1.07 1.07 0 0 0 .04.3l.07.13.05.05c.1.08.18.15.28.2l.24.19c.28.45.57.9.84 1.36a15.8 15.8 0 0 1 2.13 5.6c.34 1.92.35 3.84.03 5.74l-.05.05-.03.07a.22.22 0 0 0-.04.07l-.02.07a.71.71 0 0 0-.03.16v.07l.06.09v.03a60.94 60.94 0 0 0 .08.21l.03.05c-1.87-.1-3.75-.18-5.62-.24-3.66-.11-7.3.02-10.94.4.6-1.58.83-3.23.7-4.96l.03-.1a1.59 1.59 0 0 1 .1-.27.59.59 0 0 0 .05-.23c0-.02 0-.05-.02-.07 0-.06-.02-.1-.04-.15l-.07-.15a.77.77 0 0 0-.43-.23l.1-.27c.68-2.17 1.2-4.37 1.53-6.61.38-2.51.04-4.9-1.03-7.18a4.16 4.16 0 0 0 .22-.27l.13.03h.02l.61.19c.77.2 1.54.33 2.33.39.78.07 1.56.23 2.31.49.46.03.7-.19.73-.66a9.85 9.85 0 0 0-.58-3.88 8.64 8.64 0 0 0-1.94-3.1 14.21 14.21 0 0 0-1.68-1.49 31.98 31.98 0 0 1 5.54-2.24ZM148 88.24v.07-.07ZM91.39 3.31a3.29 3.29 0 0 1 .42.93.95.95 0 0 0-.32.14l-.12.1a.9.9 0 0 0-.07.14 2.01 2.01 0 0 0-.05.3c.01.06.03.1.06.15l.47.74a3.76 3.76 0 0 1 .3.6c.2.6.4 1.2.65 1.8a18.19 18.19 0 0 0 3.42 5.42c.42.48.86.93 1.32 1.36.26.37.6.67 1.02.9a23.11 23.11 0 0 0 2.95 2.08.7.7 0 0 0 .18.02l.19-.01.16-.1a.51.51 0 0 0 .12-.12l.1-.12.01-.08.02-.07v-.16a61.5 61.5 0 0 1 4.53 2.23 42.17 42.17 0 0 0-5.84 5.1 5.72 5.72 0 0 0 .07-.9 1.18 1.18 0 0 0-.06-.14l-.03-.06a1.27 1.27 0 0 0-.16-.14.5.5 0 0 0-.41-.05.62.62 0 0 0-.37.27c-.24.4-.43.81-.56 1.25a25.2 25.2 0 0 1-.5 1.5.44.44 0 0 0 0 .15 21.7 21.7 0 0 0 .03.14l.09.11-.06.07-.04.13a.5.5 0 0 0-.01.28c.03.09.07.17.14.24l.07.06c.07.05.14.08.23.1a.6.6 0 0 0 .25-.02l.24-.27c.32.15.66.26 1.02.34a8.16 8.16 0 0 0 1.66.17c.07 0 .14-.03.2-.07a.61.61 0 0 0 .25-.32v-.07c.01-.05.01-.1 0-.14a.43.43 0 0 0-.06-.2.57.57 0 0 0-.14-.16.7.7 0 0 0-.41-.13 5.18 5.18 0 0 1-1.74-.28 49.87 49.87 0 0 1 7.2-6.3c.71.49 1.39 1.04 2.02 1.66 2.02 1.97 4 3.97 5.97 6-.05.13-.09.27-.12.41a13.63 13.63 0 0 0-7.18.86c-.37.15-.75.27-1.14.35a5.23 5.23 0 0 0-3.87 3.05c.02.34.09.67.2 1 .78 2.44.87 4.9.26 7.42-.1.45-.29.87-.54 1.25a47.4 47.4 0 0 1-4.6 5.9l-.02.07a.91.91 0 0 0 0 .31 20.36 20.36 0 0 1 .06.14c0 .02.02.04.04.06a.98.98 0 0 0 .05.08 26.7 26.7 0 0 0-2.33 4.17 25.64 25.64 0 0 1-2.54 4.46 50.02 50.02 0 0 1-4.93 5.96 4.71 4.71 0 0 0-.57-.35 22.33 22.33 0 0 1-1.83-2.55.6.6 0 0 0-.28-.54 3.44 3.44 0 0 0-.06-.21 1.82 1.82 0 0 1-.06-.57c-.01-2.57.02-5.15.1-7.74.03-1.15.1-2.3.21-3.44l.43-3.97c.35-2.99.48-6 .41-9.01a99.4 99.4 0 0 1 .14-8.16l.03-.03c.15-.13.26-.3.34-.49.3-.74.67-1.44 1.13-2.1a7.9 7.9 0 0 1 1.98-1.96c.1-.05.2-.1.3-.13.13-.04.27-.1.4-.17l.13-.11.3-.28c.1-.1.16-.22.19-.36l-.01-.08a4.15 4.15 0 0 0-.42-1.1l-.48-.96c.12-.4.15-.8.09-1.23a48.83 48.83 0 0 0-1.48-6.76c-.7-2.4-1.1-4.81-1.2-7.26a.33.33 0 0 0-.03-.08l.05-.01c.42-.17.85-.3 1.3-.37.2 0 .38-.02.58-.06a1 1 0 0 1 .56.02Zm4.86 1.21c.04.04.07.1.1.15.04.09.1.17.15.24l.16.22c.07.18.13.36.17.54.11.54.19 1.08.22 1.63.04.53 0 1.05-.15 1.55l.02.1a.38.38 0 0 0 .1.15c0 .02.02.03.03.04-.04.17-.07.34-.09.52-.07 1-.09 1.99-.05 2.98-.5-.6-.97-1.2-1.43-1.84a54.4 54.4 0 0 1-.64-6.4c.07 0 .12.02.18.03.19.06.38.08.58.07.22 0 .44 0 .65.02Zm-5.87 14.12-.02.06a.3.3 0 0 1-.01.03.55.55 0 0 0-.08.24c0 .08.02.15.04.22v.02c.05.19.12.38.2.56l.6 1.19a2.2 2.2 0 0 0-.4.19 8.74 8.74 0 0 0-3.03 3.1 7.67 7.67 0 0 0-2.13-2.56c-.9-.72-1.9-1.3-2.97-1.77a23.8 23.8 0 0 0 4.84-7.43c.47-1.14.8-2.31 1-3.5.2.9.41 1.8.65 2.69a48.3 48.3 0 0 1 1.3 6.96ZM77.54 5.42c0-.06.02-.11.04-.17l.06-.21.08-.3c.18-.06.36-.1.55-.1.45-.02.9-.09 1.34-.19.48-.1.96-.15 1.45-.12a17.67 17.67 0 0 1-.76 2.3 30.83 30.83 0 0 0-.37.9.33.33 0 0 0-.1.1c-.04.1-.06.2-.06.31V8a44.83 44.83 0 0 0-.14.45l.03.09.05.08a.52.52 0 0 0 .12.1c0 .07.02.14.03.2a4.96 4.96 0 0 1 .1 1.04l-.09.17c.06-.12.04-.12-.06 0-.32.4-.62.82-.91 1.26-.34.5-.7 1-1.08 1.47a15.77 15.77 0 0 1-.66.41 220.15 220.15 0 0 1 .36-5.11.73.73 0 0 0-.1-.12 38.83 38.83 0 0 0 .12-2.62Zm5.33.52.17-.42c.15-.4.29-.81.42-1.22l.07-.09a1.32 1.32 0 0 0 .12-.16c.22 0 .45-.02.67-.07.42-.1.85-.14 1.29-.13.5.02 1 0 1.48-.07v.1a9 9 0 0 1-.03.54 3.73 3.73 0 0 0-.23.37.9.9 0 0 0-.12.36.73.73 0 0 0 .08.33l.1.11a.7.7 0 0 0 .25.16h.07l.15.02a.4.4 0 0 0 .1-.03c.1 2.54-.4 4.94-1.5 7.2a27.34 27.34 0 0 1-3.89 5.88l-.13.07c-.1.06-.18.13-.26.21l-.17.23-.1.07-.31.24c-.09.07-.17.16-.23.25l-.06.12a1.27 1.27 0 0 0-.03.25l.01.07.05.12a.62.62 0 0 0 .13.21 12.9 12.9 0 0 1 3.85 1.98 5.1 5.1 0 0 1 1.91 2.54.87.87 0 0 1-.05.04 8.88 8.88 0 0 0-.45 2.93l.09 9.22c.01 1.89-.1 3.76-.37 5.64-.3 2.12-.49 4.24-.58 6.37a211.02 211.02 0 0 0-.17 9.35 2.88 2.88 0 0 1-.05.17 2.47 2.47 0 0 0 .05.91 3.34 3.34 0 0 1 .13.7c-.51.81-1.07 1.57-1.69 2.27h-.06A24.79 24.79 0 0 1 82 60.91a42.56 42.56 0 0 1-6.44-12.56 7.6 7.6 0 0 1-.3-1.12c-.04-.1-.09-.2-.15-.28a.84.84 0 0 1-.12-.24 5.36 5.36 0 0 1-.04-.24 1.56 1.56 0 0 0-.07-.16 1.15 1.15 0 0 0-.36-.3 2.15 2.15 0 0 0 .08-.2c0-.25-.08-.49-.22-.7-.67-1.05-1.32-2.1-1.96-3.16a17.25 17.25 0 0 1-1.59-3.4 2.72 2.72 0 0 0-.18-.17c-.22-.48-.4-.98-.56-1.48l-.02-.64a.89.89 0 0 0 .04-.07c.07-.17.06-.31-.02-.42l.03-.32a7.72 7.72 0 0 0-.7-4 6.03 6.03 0 0 0-2.48-2.72 49.29 49.29 0 0 1-5.78-.49 6.86 6.86 0 0 1-1-.2c-.72-.2-1.43-.35-2.15-.47v-.03a.78.78 0 0 0-.17-.26.8.8 0 0 0-.16-.1l-.12-.03a.51.51 0 0 0-.2-.01.46.46 0 0 0-.17.04.8.8 0 0 0-.16.1.57.57 0 0 0-.12.15l-.19-.02c.49-.32.93-.72 1.32-1.18a9.95 9.95 0 0 1 2.15-1.9 62.2 62.2 0 0 1 6.55-3.77 94.72 94.72 0 0 0 8.23-4.6l.42-.08c.77-.16 1.28-.53 1.54-1.1a9.45 9.45 0 0 0 3.58-3.6c.12-.1.23-.22.31-.35a16.58 16.58 0 0 0 2.05-4.89Zm-27.8 21.55.02.02.02.03.02.07.02.03-.02.03a.71.71 0 0 0-.03.16v.15c0 .06.01.1.03.16l.09.13a.7.7 0 0 0 .23.19c.42.03.82.1 1.22.2 1.62.45 3.27.74 4.93.9 1.66.15 3.33.26 5 .34l.3.28.59.6c.18.19.34.38.47.58.2.56.41 1.12.64 1.67.1.25.17.5.22.74-.76-.59-1.6-1.08-2.5-1.46-1.16-.51-2.32-1.02-3.5-1.51-.22-.1-.44-.18-.67-.24-1.19-.34-2.37-.7-3.54-1.1-.75-.24-1.5-.4-2.29-.47a7.48 7.48 0 0 0-3.75.6 4.8 4.8 0 0 0-1.85 1.36 42.42 42.42 0 0 0-2.89-3.06c2.5-.9 4.91-1.04 7.25-.4ZM70.5 40.93c.1.16.2.32.28.49.41.82.87 1.6 1.39 2.35.48.72.93 1.46 1.33 2.22l-.03.02c-.4.2-.8.38-1.24.51-.4.12-.8.24-1.2.34a4.84 4.84 0 0 0-.28-1.5 2.56 2.56 0 0 0-.57-.92.56.56 0 0 0-.13-.04 2.7 2.7 0 0 1-.26-.06.52.52 0 0 0-.28 0 .55.55 0 0 0-.07.02.22.22 0 0 0-.07.04.55.55 0 0 0-.11.09l-.05.06a.41.41 0 0 1-.16.24 4.33 4.33 0 0 1-.36.25l.13-.3c.59-1.26 1.15-2.53 1.68-3.8Zm3.37 6.26.1.22c.9 2.68 2.02 5.36 3.35 8.04.34.7.68 1.4 1 2.1a18.63 18.63 0 0 0 4.8 6.4.25.25 0 0 0-.01.06c-.01.05 0 .1 0 .14l.02.03h-.02l-.13.12c-.12.25-.22.54-.31.86a5.83 5.83 0 0 1-2.07 3.05c-.75.58-1.53 1.13-2.33 1.64a9.62 9.62 0 0 0-2.5 2.27c-.25.34-.52.66-.8.96-.8.83-1.18 1.8-1.14 2.9.06 1.5.26 2.96.6 4.4-.13.06-.25.14-.36.23l-.56.44-.68.48c-.11.02-.22.05-.32.09l-.42.12c-.13.03-.25.08-.37.15a6.35 6.35 0 0 1-.6-.99 17.4 17.4 0 0 0-2.22-3.6 15.26 15.26 0 0 0-2.3-2.32c-.15-.4-.36-.77-.64-1.12a.99.99 0 0 0-.26-.1 4.7 4.7 0 0 1-.28-.1 3.1 3.1 0 0 0-.65-.42l-.62-.32a56.75 56.75 0 0 1-6.97-6.07 13.4 13.4 0 0 1-2.75-4.12c-.26-.59-.48-1.18-.66-1.79a53.78 53.78 0 0 0 10.83-8.16c.71-.69 1.44-1.35 2.2-2 .71-.6 1.36-1.26 1.95-1.95 1.7-.6 3.4-1.14 5.12-1.64Zm-8.32-13.8.02-.04a.44.44 0 0 0 .05-.13v-.04c.76.39 1.5.8 2.23 1.26.23.14.41.32.57.53a.9.9 0 0 0 .49.4v.24c-1.14.35-2.28.72-3.42 1.12-1.19.42-2.4.71-3.65.89l-3.04.44.15-.83a.71.71 0 0 0-.02-.07.63.63 0 0 0-.05-.17.55.55 0 0 0-.06-.13 56.21 56.21 0 0 0-.26-.29 237.69 237.69 0 0 1 3.64-1.43 16.6 16.6 0 0 0 3.35-1.75Zm-1.38-.89.88.4-.58.33a19.96 19.96 0 0 1-3.15 1.44c-1.17.42-2.31.87-3.44 1.36l-.06.07a.34.34 0 0 0-.03.28l-.3.02c-.62.08-1.23.17-1.84.3-.3-.57-.7-1.09-1.17-1.57a73.77 73.77 0 0 1-3.08-3.38 23.68 23.68 0 0 0 .15-.17l.02-.02a5.3 5.3 0 0 1 3-1.48 7.18 7.18 0 0 1 3.64.39c.59.21 1.18.4 1.79.55a33.26 33.26 0 0 1 4.17 1.48Zm1.43 5.36c.31-.1.62-.22.92-.34.82-.32 1.66-.57 2.52-.74a26.44 26.44 0 0 0 .55 2.44 4.08 4.08 0 0 0-.02.64l-.3.78a84.83 84.83 0 0 1-1.5 3.5 23.2 23.2 0 0 1-2 3.5l-.25.31c-.07.1-.11.2-.13.32a.9.9 0 0 0 .03.23l.04.1a32 32 0 0 1-.9.48 8.7 8.7 0 0 1-.65.14c-.33-.74-.71-1.46-1.16-2.15a22.82 22.82 0 0 0-4.56-5.12 1.67 1.67 0 0 0 .19-.14.72.72 0 0 0 .1-.12l.03-.07c.06-.2.07-.42.04-.64a6.2 6.2 0 0 1 .06-1.82c1.13-.11 2.26-.26 3.39-.43a21.3 21.3 0 0 0 3.6-.87Zm-14.86-5.21 1.58 1.58c.85.85 1.55 1.76 2.1 2.73-.9.22-1.82.4-2.73.57l-.08.07a.58.58 0 0 0-.11.14.85.85 0 0 0-.04.08.72.72 0 0 0-.03.2l-.06.04a.75.75 0 0 0-.24.24c-.06.55-.09 1.1-.08 1.66l-1.3.46c-.4.14-.8.29-1.19.45-.55-.27-1.11-.53-1.67-.78a9.71 9.71 0 0 1 .28-.68c.32-.67.66-1.33 1.02-1.98.33-.61.64-1.23.92-1.87.46-1.02 1-2 1.63-2.91Zm3.66 5.6v.15c0 .05.01.1.03.14l.06.13c.07.09.15.15.25.2a8.98 8.98 0 0 1 .61.23l.06.12a.55.55 0 0 0 .32.25h.14l.14-.01a.5.5 0 0 0 .29-.18.68.68 0 0 0 .1-.24.2.2 0 0 0 .04-.01c.03 0 .05-.02.07-.03a.9.9 0 0 0 .06-.03l.06-.03a.28.28 0 0 0 .05-.05c.1-.1.15-.2.18-.33l.12-.48c.03-.13.06-.26.07-.38l.63-.1-.13.58a9.2 9.2 0 0 0-.22 1.63c-.02.49-.02.98.01 1.46a24.65 24.65 0 0 0-4.5-2.73c.53-.08 1.05-.18 1.56-.29Zm-2.12 2.38.6-.22.09-.1.07-.1a.51.51 0 0 0 .04-.3c.66.34 1.3.72 1.91 1.12a24.9 24.9 0 0 1 4.56 3.94 22.76 22.76 0 0 1 3.32 4.68l-.54.29c-.44.05-.94.2-1.5.42-1.44.59-2.93 1-4.46 1.24-1.03.16-2.08.35-3.16.58-.04-.36-.1-.74-.17-1.1a38.52 38.52 0 0 1-.67-6.84 32.13 32.13 0 0 1 5.03 4.17c-.09.11-.2.2-.32.29a2.6 2.6 0 0 1-.66.24 1.89 1.89 0 0 0-.3-.07.5.5 0 0 0-.2 0l-.13.06a.42.42 0 0 0-.16.13l-.08.12a.55.55 0 0 0 .07.54c.07.1.17.17.29.2a20.36 20.36 0 0 1 .3.08l.17.03.1-.02c.55-.07 1.04-.29 1.46-.66.52-.47.88-1.03 1.07-1.7a27.47 27.47 0 0 1 .23-2.4.87.87 0 0 0-.12-.26 1.11 1.11 0 0 0-.1-.1.47.47 0 0 0-.18-.09.54.54 0 0 0-.21-.02.72.72 0 0 0-.2.07c-.3.32-.45.71-.44 1.18.01.45-.03.9-.1 1.33h-.01a30.76 30.76 0 0 0-5.55-4.45l-.05-2.28Zm-1.11 2.84.14 3.09c.1 1.98.35 3.94.74 5.89l-.24.06a.35.35 0 0 0-.06.05.35.35 0 0 0-.1.12.63.63 0 0 0-.04.1.6.6 0 0 0-.03.08l.01.19c0 .06.02.11.04.16l.07.14.05.06.06.06.07.04.07.03.07.03.08.02.07-.02c-.26 1.5-.34 3.01-.23 4.55.06.84.19 1.65.37 2.43a78.98 78.98 0 0 1-5.35 2.85c-3.52 1.7-7.1 3.24-10.76 4.62-1.89.71-3.81 1.32-5.76 1.82-.13-.3-.2-.6-.2-.93 0-.33 0-.65.03-.97l.2-.07.18-.11.03-.02a1.5 1.5 0 0 1 .23-.13c.51-.17.92-.47 1.24-.9.6-.82.87-1.76.79-2.8a29.39 29.39 0 0 0-.42-3.1 3.49 3.49 0 0 0 .54-.08.75.75 0 0 0 .1-.06.37.37 0 0 0 .08-.08l.07-.09.2-.83c.1-.43.15-.87.15-1.31 0-.44-.09-.87-.24-1.29.38-1.55.78-3.09 1.21-4.63.26-.9.7-1.71 1.33-2.41a8.42 8.42 0 0 1 4.08-2.55.97.97 0 0 0 .16-.12l.08-.07a.63.63 0 0 0 .08-.31l-.01-.24-.06-.1a.9.9 0 0 0-.07-.1.37.37 0 0 0-.04-.07 1.63 1.63 0 0 0-.11-.41l-.26-.42c-.08-.15-.18-.3-.28-.43a4.6 4.6 0 0 1-.33-.48 15.78 15.78 0 0 1-.2-6.53c1.12.32 2.23.69 3.32 1.12 1.08.43 2.16.87 3.22 1.33a41.58 41.58 0 0 0-.35.92.44.44 0 0 1-.06.09.56.56 0 0 0-.08.1.83.83 0 0 1-.08.16.75.75 0 0 0-.11.16.51.51 0 0 0-.07.09c-.08.1-.1.23-.1.35 0 .05.02.09.03.13l-.01.18c.03.12.1.21.2.28.05.05.1.06.16.05a11.47 11.47 0 0 0 3.52-1.12c.89.44 1.75.92 2.58 1.43Zm4.31 9.47c.95-.21 1.89-.43 2.82-.66a59.64 59.64 0 0 0 8.05-2.58 55.5 55.5 0 0 1-9.36 7.92 78.22 78.22 0 0 1-3.5 2.24 16.07 16.07 0 0 1-.14-6.5c.71-.12 1.42-.27 2.13-.42Zm14.02-6.9-.1.15c-.38.48-.77.95-1.17 1.4-.36.11-.71.26-1.05.45a7.9 7.9 0 0 1-.25.04c.58-.84 1.1-1.72 1.55-2.63l.03.15.06.13.08.1a.8.8 0 0 0 .1.1l.07.02.14.04a.8.8 0 0 0 .14 0 .8.8 0 0 0 .25-.1c.06-.03.11.01.15.13v.03Zm.45 1.19.1-.16.08.09-.18.07Zm-18.87-6.15.04 1.1c-.4-.22-.8-.44-1.22-.65l1.18-.45Zm2.09 17.75Zm32.07-.17v.01l-.01.01.01-.02Zm-.78 5.6a.8.8 0 0 0 .08-.15.72.72 0 0 0 .03-.2c0-.06 0-.12-.02-.18a.93.93 0 0 0-.05-.15l-.12-.1c.64-.64 1.2-1.35 1.66-2.14.22.33.43.67.63 1.02a5.45 5.45 0 0 0 2.08 2.06 6.17 6.17 0 0 0 .11.12 8.02 8.02 0 0 0-.44.51l.02-.03v.02a3.17 3.17 0 0 0-.95 1.68c-.01.05 0 .1 0 .14.02.06.05.11.09.16.04.04.1.08.16.1h.1c.04 0 .09 0 .13-.02a.82.82 0 0 0 .08-.04.22.22 0 0 0 .09-.11c.09-.26.2-.5.35-.73.23-.37.4-.6.48-.7l.05-.09v.01l.01-.02a.17.17 0 0 0 .04-.05h.01l.02-.03c.12-.15.26-.29.42-.41a4.47 4.47 0 0 1 .69-.46.5.5 0 0 0 .06-.16l.02-.1a.63.63 0 0 0-.02-.07.29.29 0 0 0-.03-.08l.09.04c.2.08.38.17.57.27l.06.07a2.26 2.26 0 0 1 .17.21 14.18 14.18 0 0 1 .57 4.05c0 1.21.5 2.16 1.51 2.83l.26.07.37.02c.15 0 .29.04.41.1.1.11.18.22.25.34a39.91 39.91 0 0 0 3.2 4.46l-.12.42a5.35 5.35 0 0 0-.11 2.18 7.09 7.09 0 0 0 .76 2.3c.26.47.57.9.95 1.29a3.06 3.06 0 0 0 1.42.88l.07.05a5.04 5.04 0 0 0 .14.09l.16.04c.1.02.19.01.27-.01a.85.85 0 0 0 .44-.35c.31-.46.58-.95.79-1.46l.55.97c.25.47.34.96.27 1.47l-.02.05a25.5 25.5 0 0 0-4.45.47c-.52.1-.99.3-1.42.58a23.9 23.9 0 0 0-5.68 5.2.79.79 0 0 0-.04-.03.33.33 0 0 0-.18-.06.32.32 0 0 0-.2.06.29.29 0 0 0-.12.15l-.38.97c-.1.29-.2.57-.27.87-.35.07-.7.14-1.05.23-1 .23-1.98.39-2.98.46-.5-1.67-.77-3.4-.8-5.18a12.2 12.2 0 0 1 1.2-5.51l.37.76c.23.5.54.9.93 1.23a.5.5 0 0 0 .24.01.58.58 0 0 0 .23-.1l.1-.1a.6.6 0 0 0 .06-.12l.05-.16a.67.67 0 0 0-.06-.33c-.2-.41-.38-.83-.55-1.26a7.42 7.42 0 0 0-.76-1.46 1.26 1.26 0 0 0-.23-.14c-.07 0-.11-.04-.14-.1a.81.81 0 0 0-.13-.23.53.53 0 0 0-.24-.18.96.96 0 0 0-.6-.03c-.35.09-.67.25-.95.48a6.47 6.47 0 0 0-1.1 1.21.26.26 0 0 0-.01.08l-.02.07a.43.43 0 0 0 0 .14c.01.07.03.14.07.2.04.06.08.11.14.16l.06.03a.49.49 0 0 0 .48.03c.1-.04.18-.1.24-.18.15-.21.32-.41.5-.6.2-.23.44-.4.71-.53l.03.04a12.55 12.55 0 0 0-1.51 4.33 18.35 18.35 0 0 0-.12 4.62c.1 1 .3 1.96.58 2.89-.9.02-1.79-.03-2.69-.14a3.42 3.42 0 0 1-1.27-.4l.06-.03a.85.85 0 0 0 .07-.05l.06-.07c.06-.29.08-.58.07-.87-.02-.98-.06-1.92-.1-2.84a10.39 10.39 0 0 0-2.42-6.22 7.17 7.17 0 0 0-3.45-2.35c.03-.28-.01-.58-.11-.91-.45-1.42-.6-2.87-.47-4.34l.13-.16c.26-.29.5-.59.72-.91l.7-1.03a8.85 8.85 0 0 1 2.97-2.67c.73-.4 1.4-.88 2.02-1.43a7.71 7.71 0 0 0 2.4-3.97 12.41 12.41 0 0 1 1.97 2.5l.07.06.08.05.1.02h.1c.02 0 .04 0 .06-.02a.33.33 0 0 0 .2-.2.53.53 0 0 0 .04-.13 2.53 2.53 0 0 0-.33-.7 11.83 11.83 0 0 0-1.92-2.22l.02-.02a.34.34 0 0 0 .06-.05.34.34 0 0 0 .05-.05Zm4.64 1.08-.02.03.02-.03Zm35.29-32.42.04.02.05.04.5.4a9.47 9.47 0 0 1 2.67 3.26 7.7 7.7 0 0 1 .84 3.6 13.95 13.95 0 0 0-2.63-.46 4.68 4.68 0 0 1-1.12-.23 3.84 3.84 0 0 0-1.25-.2.73.73 0 0 0-.33-.3.8.8 0 0 0-.34-.04c-.8.07-1.58-.03-2.35-.3a10.43 10.43 0 0 0-3.22-.59c-.21-.06-.42-.13-.62-.21-.18-.07-.35-.1-.53-.12a1.8 1.8 0 0 0-.33.12 3.23 3.23 0 0 0-.4.6c-.1.2-.17.42-.21.64l-.05.1c-.11-.1-.24-.17-.4-.22l-1.93-.65c-1.2-.4-2.34-.87-3.46-1.42-1.04-.52-2-1.13-2.88-1.86a27.03 27.03 0 0 1 2.26-2.26c.68-.48 1.4-.9 2.16-1.27.49-.24 1-.43 1.53-.55a19.51 19.51 0 0 1 4.11-.5l.66-.04c.95-.04 1.87.08 2.78.36a19.87 19.87 0 0 1 3.28 1.4c-.87.56-1.7 1.16-2.5 1.82a24.08 24.08 0 0 0-.35-.03l-.08.01a.19.19 0 0 0-.06.03.22.22 0 0 0-.07.03l-.06.04-.05.05c-.03-.03-.04-.07-.02-.14l.03-.15a1.2 1.2 0 0 0 .08-.17l.02-.07v-.07l-.02-.14a.96.96 0 0 0-.13-.25.55.55 0 0 0-.18-.11.44.44 0 0 0-.2-.04.57.57 0 0 0-.2.04.6.6 0 0 0-.22.17 1.02 1.02 0 0 0-.21.4 7 7 0 0 1-.08.5c-.08.44-.04.87.12 1.3.16.42.46.71.9.86l.26.05c.56.07 1.12.03 1.67-.12a5.5 5.5 0 0 0 1.72-.83l.05-.06a.87.87 0 0 0 .14-.26v-.16a.54.54 0 0 0-.07-.2.57.57 0 0 0-.13-.16.47.47 0 0 0-.26-.1c-.4-.05-.78-.1-1.16-.18a28.22 28.22 0 0 1 2.23-1.38Zm-4.22 2.11.1.14c.06.06.14.1.22.13.08.03.16.03.25.02l.2-.15.41.05-.2.04-.39.08a.6.6 0 0 1-.32-.02.98.98 0 0 1-.22-.07.35.35 0 0 1-.19-.2c-.06-.16-.06-.2.02-.1.03.04.08.06.12.08Zm-.31 4.74c.75.27 1.53.41 2.31.45-.35.28-.74.5-1.17.67a34.75 34.75 0 0 0-3.91 1.8c-1.17.62-2.3 1.32-3.4 2.1.13-.2.23-.39.32-.58.28-.6.6-1.18.94-1.75A10.34 10.34 0 0 0 116 40.2c.06-.19.14-.37.22-.55l.2-.52c.33.12.66.19 1 .2a7.9 7.9 0 0 1 2.44.44Zm-8.53-.75c1.13.4 2.27.78 3.4 1.16-.32.8-.69 1.56-1.1 2.31-.67 1.21-1.3 2.44-1.9 3.68l-.13.1a.77.77 0 0 0-.1.12l-.1.13v.08a2.15 2.15 0 0 1-.08.33 2.15 2.15 0 0 1-.38.5c-.08.07-.16.16-.22.26-.41.3-.82.6-1.23.93-.82.66-1.58 1.39-2.27 2.18l-.57-.35a11.87 11.87 0 0 0-.43-3.02c-.13-.49-.23-.99-.3-1.5a91.2 91.2 0 0 0-.63-3.87v-.01l.02-.05a.35.35 0 0 0 .02-.12.3.3 0 0 0 0-.07.52.52 0 0 0-.1-.3.54.54 0 0 0-.22-.18l.09-.34c.44-1.82.54-3.62.3-5.4l.09.1c.72.67 1.5 1.25 2.37 1.75 1.1.64 2.26 1.17 3.47 1.58Zm2.12 7.43a.86.86 0 0 0-.04-.02 39.89 39.89 0 0 1 4.16-2.65c.89-.49 1.82-.88 2.78-1.19a6.14 6.14 0 0 0 2.01-1.03l.27.83c.65 2 .77 4.02.36 6.06-.44 2.16-1 4.3-1.67 6.4a.42.42 0 0 0-.07.05 1.08 1.08 0 0 0-.25.2.7.7 0 0 0-.09.21l-.03.14v.01c-.3.12-.63.2-.96.25a23.38 23.38 0 0 1-7.9-1.7 6.99 6.99 0 0 1-.81-.51 59.5 59.5 0 0 0-2.93-2.02c.69-.82 1.46-1.54 2.32-2.16 1-.72 2-1.42 3-2.1a.92.92 0 0 0 .08-.37.94.94 0 0 0-.05-.15.98.98 0 0 0-.18-.25Zm-9.08-3.37.1.6a232.1 232.1 0 0 0 .82 4.68l.24 1.46c-.75-.41-1.51-.8-2.29-1.16l-.29-.27c-.3-.24-.6-.46-.91-.67a4.04 4.04 0 0 0-.9-.44l.5-.5a11.6 11.6 0 0 0 2.73-3.7Zm-3.85 5.16a477.52 477.52 0 0 0 6.8 4.11c.44.26.86.55 1.25.87a15.27 15.27 0 0 0 6.81 3.08l-.08-.01a3.4 3.4 0 0 0 .35.07c1.02.23 2.05.41 3.09.54a5.32 5.32 0 0 0 3.08-.51v.23c0 .21.01.42.04.63.02.23.03.47.03.7a15.17 15.17 0 0 1-1.12 3.1l-.45.06-1.68.24c-2.61.38-5.2.86-7.78 1.41a308.05 308.05 0 0 0-7.2 1.65 11.96 11.96 0 0 1 .96-.69c.36-.24.68-.53.96-.87l.04-.13.02-.14v-.13a3.79 3.79 0 0 0-.07-.13.55.55 0 0 0-.14-.17.54.54 0 0 0-.32-.1.86.86 0 0 0-.36.1l-1.08.57a21.26 21.26 0 0 0-1.35.8 1.15 1.15 0 0 0-.14.24v.07a.8.8 0 0 0 0 .14c0 .07.03.13.07.18.06.06.06.13.03.19a.93.93 0 0 0 .01.53.6.6 0 0 0-.11.23.52.52 0 0 0 .03.32c.04.11.12.2.22.26l.23-.04c.2.39.43.76.69 1.13.39.56.83 1.06 1.33 1.5l.07.01h.16l.18-.06.1-.1c.06-.04.1-.1.12-.16a.57.57 0 0 0 .05-.2.75.75 0 0 0-.17-.46 78.32 78.32 0 0 1-1.4-1.87c1.86-.35 3.72-.75 5.59-1.19 3.54-.84 7.12-1.5 10.73-2a20.16 20.16 0 0 1-1.61 2.35 2.16 2.16 0 0 0-.2-.07H118.15c-.05 0-.1.02-.15.04l-.14.07c-.2.3-.4.6-.58.9-.28.51-.58 1-.91 1.47-.87.87-1.8 1.69-2.8 2.45a117.57 117.57 0 0 1-7.84 5.5l-.03.03.03-.04-1.92 1.9c-.5.49-.9 1.05-1.18 1.67-.61 1.32-1.19 2.62-1.73 3.9l-.28-.1a1.5 1.5 0 0 1-.53-.38l-.4-.45a5 5 0 0 1-1-3.49l.08-.79c.02-.11.04-.23.08-.34.07-.27.05-.54-.06-.8a6.88 6.88 0 0 0-.82-1.16 11 11 0 0 1-1.82-2.71 2.96 2.96 0 0 0-2.53-1.82c-.25-.23-.4-.51-.47-.84a39.5 39.5 0 0 1-.58-4.02c-.1-1.16-.6-1.96-1.5-2.42l.57-.58c2-2.11 3.64-4.48 4.93-7.09.65-1.3 1.36-2.56 2.14-3.79a22.99 22.99 0 0 0 1.81-3.39Zm5.45 28.07.28-.22c.08.26.19.51.32.76a37.59 37.59 0 0 1 2.12 4.81c.48 1.33.62 2.66.42 4a1.75 1.75 0 0 0-.77-.39.64.64 0 0 0-.09-.22 1.6 1.6 0 0 0-.78-.34c-1.16-.17-2.31-.27-3.46-.28.08-.67-.02-1.3-.31-1.92a4.89 4.89 0 0 0-.94-1.37l.1-.4a6.58 6.58 0 0 1 1.34-2.63 14.6 14.6 0 0 1 1.77-1.8ZM45.43 29.03c.37-.22.75-.42 1.13-.6l3.4 3.44c-.35.5-.66 1.02-.92 1.58a65.77 65.77 0 0 1-1.75 3.39 24.61 24.61 0 0 0-1.35 2.83 65.87 65.87 0 0 0-6.7-2.44c.33-1.2.83-2.36 1.5-3.46 1.19-2 2.75-3.57 4.7-4.74Zm.84 12.76c.12-.22.22-.45.3-.68l.7.3c-.32.16-.66.29-1 .38Zm23.88 39.76.02.04-.01-.03.08.18c.1.22.23.42.37.62.13.17.24.35.35.54l-.2.28-.23.29a.15.15 0 0 0-.04.02.15.15 0 0 1-.04.01l-.01.01a.16.16 0 0 0-.04-.02 1.81 1.81 0 0 1-.34-.84 6.87 6.87 0 0 1-.05-.87.8.8 0 0 0-.04-.08l.07-.14a.37.37 0 0 0 0-.16l-.03-.14.14.29Zm.24 1.94h.01a.17.17 0 0 1-.02-.02l.01.02Zm-4.62-3.52.15-.28c.11-.24.23-.47.36-.7a4.9 4.9 0 0 0 .6-2.1c.41.4.8.81 1.16 1.26a16.68 16.68 0 0 1 1.76 2.74.28.28 0 0 0-.15-.03c-.06 0-.1.02-.15.05a.38.38 0 0 0-.19.19l-.28.62c-.1.23-.06.42.13.56l.06.03.08.02a6.48 6.48 0 0 0 .11.76c-.66.08-1.3.25-1.9.5-.7.3-1.43.5-2.17.6a.72.72 0 0 0-.07.03c-.07-.39-.12-.79-.14-1.2a5.92 5.92 0 0 1 .64-3.05Zm50.24-50.5c-.4 0-.79.03-1.18.07l-1.7.19a7.4 7.4 0 0 0-2.12.57 16.08 16.08 0 0 0-3.25 1.91c-.13.1-.26.22-.37.34-.38.38-.77.74-1.19 1.08-.43.37-.72.82-.87 1.34 0 .06.01.1.03.15a1.88 1.88 0 0 1-.02.07c-.13-.84-.35-1.69-.64-2.52l.05-.08a7.9 7.9 0 0 1 .28-.51c.31-.28.66-.5 1.05-.68 1.55-.69 3.15-1.25 4.78-1.69a12.3 12.3 0 0 1 5.15-.24Z"/><path fill="#FF5736" d="M100.67 48.36a.56.56 0 0 1-.15-.12 23.1 23.1 0 0 1-1.8 3.4c-.79 1.22-1.5 2.48-2.15 3.78a29.17 29.17 0 0 1-5.5 7.67c.9.45 1.4 1.26 1.5 2.41.13 1.38.32 2.72.58 4.03.07.33.22.6.47.84 1.16.1 2 .7 2.53 1.82a11 11 0 0 0 1.82 2.71 6.9 6.9 0 0 1 .82 1.16c.11.26.13.53.06.8a2.7 2.7 0 0 0-.08.34l-.07.8a5 5 0 0 0 1 3.48c0 .02.14.16.39.45.15.16.33.29.53.37l.27.1c.55-1.27 1.13-2.57 1.74-3.89.29-.63.68-1.18 1.18-1.67l1.92-1.9-.03.04.03-.04c2.7-1.72 5.31-3.56 7.85-5.5 1-.75 1.92-1.57 2.79-2.44.33-.47.63-.96.91-1.46.18-.32.37-.62.58-.91a1.22 1.22 0 0 1 .3-.11h.14a2.42 2.42 0 0 1 .2.07 25.19 25.19 0 0 0 1.61-2.34c-3.6.49-7.19 1.15-10.73 2-1.87.43-3.73.83-5.58 1.18a67.31 67.31 0 0 0 1.4 1.87c.1.13.16.28.16.45a.59.59 0 0 1-.16.38l-.1.09-.19.05-.16.01-.07-.01c-.5-.44-.94-.94-1.33-1.5-.26-.37-.49-.74-.7-1.13l-.22.04a.57.57 0 0 1-.22-.26.53.53 0 0 1 .08-.55.95.95 0 0 1-.01-.53c.03-.07.03-.13-.03-.19a.3.3 0 0 1-.07-.18.8.8 0 0 1 0-.21l.06-.12.08-.12a896.95 896.95 0 0 1 2.44-1.38c.1-.06.22-.09.35-.1.12 0 .22.04.32.1.06.05.1.11.14.18l.06.13v.13l-.01.14a1.7 1.7 0 0 1-.04.13c-.28.34-.6.63-.96.87a12.46 12.46 0 0 0-.97.7c2.4-.58 4.8-1.13 7.2-1.66a121.7 121.7 0 0 1 9.92-1.7c.49-1 .86-2.03 1.12-3.11 0-.23 0-.47-.03-.7-.03-.2-.04-.42-.04-.63v-.23c-.97.48-2 .65-3.08.51a34.17 34.17 0 0 1-3.44-.61l.08.01a15.28 15.28 0 0 1-6.8-3.08c-.4-.32-.82-.6-1.26-.87a471.8 471.8 0 0 1-6.65-3.99Zm23.76-15.42-.04-.02a30.75 30.75 0 0 0-2.23 1.38c.38.07.77.13 1.16.17.1.01.18.05.26.1.05.05.1.1.13.16.04.07.06.14.07.21v.16a.85.85 0 0 1-.14.26l-.05.06a5.5 5.5 0 0 1-1.72.83 4.08 4.08 0 0 1-1.94.07 1.38 1.38 0 0 1-.9-.87c-.15-.42-.19-.85-.11-1.3l.08-.5a1.02 1.02 0 0 1 .21-.4.6.6 0 0 1 .21-.16.58.58 0 0 1 .2-.04c.08 0 .15 0 .21.04.07.02.13.06.18.12a.86.86 0 0 1 .16.38v.07l-.02.07-.02.07a.99.99 0 0 0-.06.1.96.96 0 0 0-.04.15c-.02.07-.01.11.02.14l.05-.05.06-.04a.21.21 0 0 1 .07-.03.18.18 0 0 1 .06-.03l.08-.01h.06l.3.03c.8-.66 1.63-1.26 2.48-1.82a4.7 4.7 0 0 0-.76-.4c-.81-.4-1.65-.72-2.51-1a8.07 8.07 0 0 0-3.44-.31h-.29c-1.29.04-2.56.2-3.82.5-.53.11-1.04.3-1.53.54a16.14 16.14 0 0 0-2.18 1.29c-.52.42-1.03.86-1.52 1.33a3.77 3.77 0 0 0-.72.91c.89.72 1.84 1.34 2.88 1.86 1.12.55 2.27 1.03 3.46 1.42l1.94.65c.15.05.28.12.4.21 0-.03.02-.06.04-.09.04-.22.11-.43.21-.64a3.17 3.17 0 0 1 .4-.6 1.07 1.07 0 0 1 .24-.1l.09-.02c.18.01.36.05.53.12.2.08.4.15.62.21 1.1.03 2.18.22 3.22.59.77.27 1.55.37 2.36.3a.8.8 0 0 1 .33.05c.14.06.25.15.33.28.41 0 .83.07 1.25.21.36.13.74.2 1.12.24a13.95 13.95 0 0 1 2.63.46 7.7 7.7 0 0 0-.84-3.61 9.46 9.46 0 0 0-2.67-3.25l-.5-.4-.05-.05Zm-72.1 1.3-1.59-1.6c-.63.92-1.17 1.9-1.63 2.92a23.7 23.7 0 0 1-.92 1.87 37.35 37.35 0 0 0-1 1.93c-.11.24-.21.48-.3.73.56.25 1.12.5 1.67.77l1.18-.44 1.3-.46c0-.56.03-1.11.09-1.66l.1-.13a.75.75 0 0 1 .2-.14V38c0-.06.01-.13.03-.19a.82.82 0 0 1 .09-.15 1.08 1.08 0 0 1 .14-.14c.91-.16 1.82-.35 2.73-.57a12.83 12.83 0 0 0-2.1-2.73Zm12.72-1.33a28.7 28.7 0 0 0-3.93-1.56c-.37-.12-.74-.23-1.12-.33-.6-.15-1.2-.34-1.78-.55a7.18 7.18 0 0 0-3.65-.39 5.3 5.3 0 0 0-3 1.48l-.02.02.02-.03a2.2 2.2 0 0 0-.17.2 73.7 73.7 0 0 0 3.08 3.38c.47.48.86 1 1.17 1.56a24.6 24.6 0 0 1 2.14-.31.34.34 0 0 1 .03-.28l.06-.07c1.13-.5 2.27-.94 3.44-1.36a19.94 19.94 0 0 0 3.73-1.76Zm.52.44-.02.04a16.6 16.6 0 0 1-3.34 1.75 237.69 237.69 0 0 0-3.62 1.46l.13.13.1.13a.99.99 0 0 1 .13.37l-.15.83 3.04-.44a19.3 19.3 0 0 0 3.65-.9c1.14-.39 2.28-.76 3.42-1.1v-.26a.9.9 0 0 1-.5-.39c-.15-.21-.33-.4-.56-.53-.72-.45-1.47-.87-2.23-1.26v.04c0 .04-.02.09-.05.13Zm8.4 14.05-.1-.21c-1.72.5-3.43 1.05-5.12 1.64-.59.69-1.24 1.34-1.96 1.95-.75.64-1.48 1.31-2.2 2a53.78 53.78 0 0 1-10.82 8.16c.19.6.4 1.2.66 1.8a13.4 13.4 0 0 0 2.75 4.11 56.75 56.75 0 0 0 6.97 6.07l.62.32c.24.11.45.25.65.42l.28.1c.1.02.18.05.26.1.28.35.5.72.65 1.12.84.68 1.6 1.45 2.29 2.31a17.4 17.4 0 0 1 2.23 3.61c.12.27.32.6.6.99.1-.07.23-.12.36-.15a929.42 929.42 0 0 1 .74-.21 10.63 10.63 0 0 0 1.24-.92c.12-.1.23-.17.36-.23a23.3 23.3 0 0 1-.6-4.4 3.83 3.83 0 0 1 1.13-2.9c.29-.3.56-.62.81-.96a9.62 9.62 0 0 1 2.5-2.27c.8-.51 1.58-1.06 2.33-1.64a5.83 5.83 0 0 0 2.07-3.05c.1-.32.2-.61.3-.86l.14-.11.02-.01-.02-.03a.32.32 0 0 1 0-.14c0-.02 0-.04.02-.07a18.63 18.63 0 0 1-4.8-6.39l-1.01-2.1a62.85 62.85 0 0 1-3.34-8.05Zm9.07-41.88c-.05.14-.1.28-.17.42a16.58 16.58 0 0 1-2.05 4.89c-.08.13-.19.25-.31.36a9.45 9.45 0 0 1-2.41 2.78c-.38.3-.77.56-1.17.81-.26.57-.77.93-1.54 1.1l-.42.08a94.69 94.69 0 0 1-8.23 4.6 62.2 62.2 0 0 0-6.55 3.76 9.95 9.95 0 0 0-2.15 1.9c-.4.47-.83.87-1.32 1.2h.2c.02-.04.06-.1.11-.14a.8.8 0 0 1 .16-.1.46.46 0 0 1 .18-.05c.07 0 .13 0 .19.02l.12.03.16.1a.79.79 0 0 1 .16.26l.01.03c.72.12 1.43.27 2.15.47.32.1.66.16 1 .2 1.67.24 3.35.39 5.04.45.25 0 .5.02.74.04a6.03 6.03 0 0 1 2.47 2.72 7.72 7.72 0 0 1 .68 4.32c.08.1.09.25.02.42a.9.9 0 0 1-.03.07v.64a15.33 15.33 0 0 0 .58 1.51 1.45 1.45 0 0 1 .17.14c.4 1.18.93 2.32 1.59 3.4.64 1.06 1.3 2.11 1.96 3.15.14.22.21.46.22.71a2.17 2.17 0 0 1-.08.2l.05.02a1.15 1.15 0 0 1 .31.28 1.47 1.47 0 0 1 .07.16l.02.09a5.23 5.23 0 0 0 .02.15l.12.24a1.27 1.27 0 0 1 .22.58l.23.82A41.37 41.37 0 0 0 82.87 62c.23.27.46.53.71.77h.06c.62-.7 1.18-1.46 1.69-2.27a1.28 1.28 0 0 0-.02-.13c-.02-.2-.06-.38-.11-.57a2.47 2.47 0 0 1-.03-1 .73.73 0 0 0 .05-.14c-.02-3.1.03-6.19.15-9.29.1-2.13.28-4.26.58-6.38.26-1.87.38-3.74.37-5.63-.03-3.07-.05-6.15-.09-9.22 0-1.02.14-2 .45-2.93a.87.87 0 0 0 .05-.04 5.1 5.1 0 0 0-1.9-2.54 12.9 12.9 0 0 0-3.86-1.98.63.63 0 0 1-.14-.21.48.48 0 0 1-.04-.12.18.18 0 0 1 0-.07 1.27 1.27 0 0 1 .02-.25l.06-.12c.06-.1.14-.18.23-.25a9.33 9.33 0 0 1 .4-.3l.18-.24c.08-.08.17-.15.26-.2l.13-.08a27.34 27.34 0 0 0 3.89-5.88c1.1-2.26 1.6-4.66 1.5-7.2a.4.4 0 0 1-.1.02 1.74 1.74 0 0 1-.22-.01.7.7 0 0 1-.25-.16 1.39 1.39 0 0 1-.1-.11.54.54 0 0 1-.03-.08.81.81 0 0 1-.05-.26.9.9 0 0 1 .11-.35 3.73 3.73 0 0 1 .24-.37V4.2a9 9 0 0 0 .03-.43c-.48.07-.98.1-1.48.08-.44-.01-.87.03-1.3.13a2.5 2.5 0 0 1-.66.07 1.76 1.76 0 0 1-.19.25c-.13.4-.27.82-.42 1.22Zm8.6-1.74a3.29 3.29 0 0 0-.25-.47 1 1 0 0 0-.56-.02c-.2.04-.39.06-.58.06a6.25 6.25 0 0 0-1.35.4l.03.06c.1 2.45.5 4.87 1.2 7.26a48.83 48.83 0 0 1 1.48 6.76c.06.43.03.83-.09 1.23.15.32.31.64.48.95a4.16 4.16 0 0 1 .43 1.19.64.64 0 0 1-.2.36 9.82 9.82 0 0 1-.42.4c-.13.06-.27.12-.4.16-.1.03-.2.08-.3.13a7.9 7.9 0 0 0-1.98 1.96 10.1 10.1 0 0 0-1.13 2.1 1.32 1.32 0 0 1-.37.52c-.16 2.72-.2 5.43-.14 8.16.07 3.01-.06 6.02-.4 9.01-.16 1.33-.3 2.65-.44 3.97-.1 1.14-.18 2.29-.21 3.44-.08 2.59-.11 5.17-.1 7.74-.01.2.01.38.06.57l.06.2c.18.13.27.3.27.54l.83 1.25a22.33 22.33 0 0 0 1 1.3c.2.1.4.23.58.36a50 50 0 0 0 4.93-5.96c1-1.4 1.84-2.88 2.54-4.46a26.69 26.69 0 0 1 2.33-4.18.98.98 0 0 1-.1-.13.21.21 0 0 1-.03-.07l-.02-.07a1.02 1.02 0 0 1 0-.3l.02-.09a47.25 47.25 0 0 0 4.6-5.89c.25-.38.43-.8.54-1.25.6-2.51.52-4.98-.27-7.42a4.4 4.4 0 0 1-.2-1 5.23 5.23 0 0 1 3.88-3.05c.39-.08.77-.2 1.14-.35a13.46 13.46 0 0 1 7.18-.86c.03-.14.07-.28.12-.41a327.82 327.82 0 0 0-5.97-6c-.63-.62-1.3-1.17-2.03-1.66a49.89 49.89 0 0 0-7.19 6.3 5 5 0 0 0 1.74.28c.15 0 .3.04.42.13.05.04.1.1.13.16.04.06.06.12.06.2.01.04.01.1 0 .14v.07a.61.61 0 0 1-.25.32.44.44 0 0 1-.2.07h-.08c-.53 0-1.06-.06-1.58-.17-.36-.08-.7-.19-1.02-.34l-.24.27a.6.6 0 0 1-.25.01.58.58 0 0 1-.23-.1.85.85 0 0 0-.07-.05.65.65 0 0 1-.14-.24.5.5 0 0 1 0-.28l.05-.13.06-.07a1.48 1.48 0 0 1-.09-.11l-.02-.07-.01-.07a.56.56 0 0 1 0-.15l.01-.07c.18-.47.34-.95.49-1.43.13-.44.32-.86.56-1.25a.62.62 0 0 1 .37-.27.5.5 0 0 1 .4.06 1.27 1.27 0 0 1 .17.13 31.84 31.84 0 0 1 .09.19 2.05 2.05 0 0 0 .02.14c-.01.26-.04.51-.09.76a42.24 42.24 0 0 1 5.84-5.09l-.29-.16c-1.4-.75-2.8-1.44-4.24-2.08V17.5l-.02.07-.02.08-.09.12a.5.5 0 0 1-.13.12c-.04.04-.1.07-.15.1l-.19.01a.7.7 0 0 1-.18-.02 1.05 1.05 0 0 1-.17-.08 23.1 23.1 0 0 1-2.78-2 2.85 2.85 0 0 1-1.02-.9c-.46-.43-.9-.88-1.32-1.36a18.19 18.19 0 0 1-4.03-7.13c-.1-.24-.2-.47-.34-.7a46.68 46.68 0 0 1-.53-.88 2.06 2.06 0 0 1 .05-.3.9.9 0 0 1 .07-.14l.12-.1a.95.95 0 0 1 .32-.13c-.04-.16-.1-.32-.17-.47Z"/><path fill="#DE9E71" d="M76.69 81.6c-.4-.28-.81-.47-1.26-.57-.16.32-.42.59-.78.82-.52.33-1.06.62-1.62.85-.19.08-.38.13-.57.16l-.12.06a2.78 2.78 0 0 0-.24.12l-.06.07a.43.43 0 0 1-.06.05.32.32 0 0 1-.08.05.49.49 0 0 1-.08.04l-.17.04h-.1c-.1.17-.2.34-.33.5a1.24 1.24 0 0 1-.62.42l-.05.02a.2.2 0 0 0-.05 0h-.11a1.18 1.18 0 0 1-.11-.02h-.06a7.77 7.77 0 0 1-.3-.17l-.07-.07a2 2 0 0 1-.11-.14 6.2 6.2 0 0 0-1.82.34c-.59.2-1.18.39-1.78.55-.18.05-.33.13-.45.24a.35.35 0 0 1-.24.07c.05.22.12.43.19.64.13.38.11.75-.04 1.1a.86.86 0 0 1-.19.14c-.23.93-.55 1.83-.96 2.7a8.35 8.35 0 0 0-.82 3.41c-.04 1.61-.1 3.22-.2 4.83h5.78a80.36 80.36 0 0 1 3.91-3.49 11.47 11.47 0 0 1 3.92-2.12c.32-.1.64-.17.96-.23a8.46 8.46 0 0 1 2.85.62 8.8 8.8 0 0 0-4.16-11.02Zm14.86 12.07c-.6.05-1.2.16-1.8.32-.96.27-1.9.45-2.85.54l.23.58c.27.66.62 1.27 1.06 1.84v.13a.57.57 0 0 1-.06.27l-.03.06a.96.96 0 0 1-.27.17.74.74 0 0 1-.17.04h-.08a.71.71 0 0 1-.16-.06.69.69 0 0 1-.14-.1c-.64-.9-1.17-1.85-1.58-2.85a16.02 16.02 0 0 1-7.03-1.44c-3.16.6-5.8 2.16-7.9 4.68h35.07a124.6 124.6 0 0 0-5.23-3.56 5.72 5.72 0 0 0-3.2-.9 71 71 0 0 0-5.86.28Zm17.58-6.42a.73.73 0 0 1-.11-.1 1.01 1.01 0 0 1-.08-.13 1.9 1.9 0 0 1-.04-.19v-.09l.03-.16a.33.33 0 0 1-.09-.06.3.3 0 0 1-.1-.16l-.03-.1c-.12-.05-.25-.1-.38-.13a2.9 2.9 0 0 1-.38-.14.88.88 0 0 0-.38-.09c-.04 0-.09 0-.13-.02a.47.47 0 0 1-.17-.15.46.46 0 0 1-.05-.13v-.15c-2.6-.4-5.2-.34-7.8.16a8.26 8.26 0 0 0-4.9 2.93c-.3.37-.63.74-.96 1.1-.58.64-1.13 1.28-1.68 1.93a.28.28 0 0 0-.04.16c0 .05-.02.1-.05.14l-.08.09a.36.36 0 0 1-.21.06h-.02l-.16.49c2.46-.4 4.96-.43 7.5-.1 1.5.2 2.87.77 4.12 1.72l.94.73a574.58 574.58 0 0 0 2.83 2.28c.32.25.64.49.98.71h2.4a50.5 50.5 0 0 1-.3-4.84 29.66 29.66 0 0 0-.67-5.76ZM52.85 62.3a14.2 14.2 0 0 1-.25-.69 91.58 91.58 0 0 1-7.46 3.84 113.8 113.8 0 0 1-10.59 4.22c-1.26.43-2.52.8-3.8 1.14a9.87 9.87 0 0 1 .01.17 153.14 153.14 0 0 1-3.92 7.66 19.93 19.93 0 0 0-1.61 3.9 25.04 25.04 0 0 0-1 8.5c.13 2.27.12 4.54 0 6.8h9.6c.65-1.4 1.46-2.74 2.43-4a79.13 79.13 0 0 0 4.8-6.94c.22-.34.38-.7.5-1.1.87-2.87 1.29-5.74 1.26-8.6h-.08a.7.7 0 0 1-.15-.01l-.15-.06a.56.56 0 0 1-.06-.04l-.06-.05-.04-.06a31.6 31.6 0 0 0-.09-.13 5.65 5.65 0 0 1-.24-1.5c0-.12.02-.24.07-.35l.08-.13a.7.7 0 0 1 .1-.1l.14-.09.15-.03h.22a.45.45 0 0 1 .14-.2 17.92 17.92 0 0 0 5.45-4.49 26.28 26.28 0 0 0 3.73-6.02c.25-.56.52-1.1.82-1.64Zm87.15 2.8a8.14 8.14 0 0 0-.5-3.2c-2.45-.13-4.9-.23-7.35-.3-3.46-.1-6.92.04-10.36.43a17.77 17.77 0 0 1-2.79 3.9c.33 1.15.7 2.28 1.1 3.37.1.3.26.58.47.83a10.79 10.79 0 0 0 4.58 3.23 7.61 7.61 0 0 1 3.83 3.1c.2.17.33.38.39.64l.08.02.13.09.1.11c.04.04.07.08.09.13l.03.15v.15l-.03.15a1.21 1.21 0 0 1-.2.26l-.11.13a11.75 11.75 0 0 0-.34 9.72c.48 1.25 1 2.48 1.52 3.71a39.5 39.5 0 0 0 3.28 6.12h12.76c.14-.8.23-1.62.26-2.48a57.16 57.16 0 0 0-.14-6.92 37.41 37.41 0 0 0-.82-4.5 20.31 20.31 0 0 0-1.38-3.9.48.48 0 0 1-.16-.03l-.08-.03a1.8 1.8 0 0 1-.13-.08.35.35 0 0 1-.06-.05.35.35 0 0 1-.1-.12l-.03-.07a.76.76 0 0 1-.05-.23 12.67 12.67 0 0 0-3.27-6.64 2.85 2.85 0 0 1-.78-1.93c-.03-1.92-.01-3.84.06-5.76Zm-25.18-35.57c.4-.04.78-.07 1.18-.07a12.3 12.3 0 0 0-5.15.24c-1.63.44-3.23 1-4.78 1.7-.39.17-.74.39-1.05.67a15 15 0 0 0-.33.59 14.93 14.93 0 0 1 .65 2.5l.01-.05a.38.38 0 0 1-.03-.15c.15-.52.44-.97.87-1.34.42-.34.81-.7 1.19-1.08.11-.12.24-.23.37-.33 1-.77 2.08-1.4 3.25-1.92a7.4 7.4 0 0 1 2.12-.57l1.7-.19ZM65.92 79.69l-.15.29c-.49.96-.7 1.98-.64 3.05.02.4.07.8.14 1.2a.75.75 0 0 1 .07-.04c.74-.1 1.46-.3 2.16-.6a7.38 7.38 0 0 1 1.91-.5v-.05a6.5 6.5 0 0 1-.11-.71l-.08-.02-.06-.03c-.2-.14-.23-.33-.13-.56l.28-.62c.04-.09.1-.15.19-.2l.15-.04.15.03.04.02a16.67 16.67 0 0 0-2.96-4.02 4.9 4.9 0 0 1-.6 2.1c-.13.23-.25.46-.36.7Zm4.25 1.9-.02-.04-.14-.3c0 .06.02.1.03.15v.16l-.07.14.04.08c0 .3.02.59.05.87a1.81 1.81 0 0 0 .34.84l.04.02h.01l.04-.02.04-.02.23-.28.2-.3a8.02 8.02 0 0 0-.35-.53 3.32 3.32 0 0 1-.44-.77ZM46.56 28.42a13.58 13.58 0 0 0-5.82 5.34 13.96 13.96 0 0 0-1.5 3.47c2.28.7 4.52 1.51 6.7 2.45l.5-1.15c.27-.58.55-1.14.85-1.7a65.8 65.8 0 0 0 1.75-3.38c.26-.56.57-1.08.93-1.58l-3.41-3.45Zm59.69 47.67-.28.22a14.51 14.51 0 0 0-1.73 1.74 6.6 6.6 0 0 0-1.48 3.1c.38.38.7.84.94 1.36.29.61.4 1.25.3 1.92 1.16.02 2.31.1 3.47.28.3.04.56.15.78.34.05.07.08.14.1.22l.13.04c.25.08.46.2.63.35.2-1.34.06-2.67-.42-4-.6-1.65-1.3-3.25-2.12-4.81a4.9 4.9 0 0 1-.32-.76ZM51.3 46.56l-.14-3.1c-.83-.5-1.69-.98-2.58-1.42l-.41.19c-1 .46-2.04.77-3.1.93a.2.2 0 0 1-.17-.05.55.55 0 0 1-.2-.28l.01-.18a.66.66 0 0 1-.02-.13.53.53 0 0 1 .09-.35.5.5 0 0 1 .07-.09.73.73 0 0 1 .1-.16.84.84 0 0 0 .08-.15.56.56 0 0 1 .1-.11.44.44 0 0 0 .05-.1l.02-.02c.1-.3.22-.59.33-.88-1.06-.47-2.14-.91-3.22-1.34-1.1-.43-2.2-.8-3.31-1.12-.24 1.2-.31 2.43-.24 3.7.06.96.2 1.9.43 2.83.1.17.2.33.33.48a36.3 36.3 0 0 0 .58.96 1.91 1.91 0 0 1 .07.3l.04.06a.9.9 0 0 1 .07.1l.06.11c.01.08.02.16.01.24 0 .07-.02.14-.04.22a.62.62 0 0 1-.04.09 1.39 1.39 0 0 1-.15.14l-.09.05a8.42 8.42 0 0 0-4.08 2.55c-.63.7-1.07 1.5-1.33 2.41-.43 1.54-.83 3.09-1.21 4.63.15.42.23.85.24 1.29 0 .44-.05.88-.15 1.3-.06.3-.13.57-.2.84l-.07.1a.37.37 0 0 1-.09.07.73.73 0 0 1-.09.06l-.24.05-.3.04c.2 1.02.33 2.04.42 3.08a4.08 4.08 0 0 1-.79 2.81 2.46 2.46 0 0 1-1.1.84c-.13.04-.25.1-.37.19l-.03.02a1.67 1.67 0 0 1-.38.18c-.02.32-.03.64-.03.97 0 .32.07.63.2.93 1.95-.5 3.87-1.1 5.76-1.82 3.66-1.38 7.24-2.92 10.76-4.62 1.82-.88 3.6-1.83 5.35-2.85a15.4 15.4 0 0 1-.37-2.43 18.3 18.3 0 0 1 .23-4.55l-.07.02a.48.48 0 0 1-.08-.02l-.07-.03-.07-.03a.37.37 0 0 1-.07-.04.72.72 0 0 1-.11-.12 1.44 1.44 0 0 1-.07-.14.46.46 0 0 1-.04-.16.98.98 0 0 1 0-.19.6.6 0 0 1 .02-.09.63.63 0 0 1 .09-.15.35.35 0 0 1 .05-.06.35.35 0 0 1 .06-.05l.24-.06a40.7 40.7 0 0 1-.74-5.9ZM55.1 27.5l-.02-.02c-2.34-.64-4.75-.5-7.25.4 1.01.97 1.98 2 2.9 3.06a4.8 4.8 0 0 1 1.85-1.37 7.48 7.48 0 0 1 3.74-.6c.78.08 1.54.24 2.29.49 1.17.38 2.35.75 3.54 1.09.23.06.46.14.68.24l3.5 1.5c.9.4 1.73.88 2.5 1.47-.06-.25-.13-.5-.23-.74-.23-.55-.44-1.1-.64-1.67-.13-.2-.29-.4-.47-.58a79.92 79.92 0 0 0-.89-.88c-1.67-.08-3.34-.19-5-.34-1.66-.16-3.3-.45-4.93-.9-.4-.1-.8-.17-1.22-.2a.86.86 0 0 1-.23-.2 3.37 3.37 0 0 1-.09-.12.71.71 0 0 1-.03-.16v-.15c0-.06.02-.1.03-.16l.02-.03a.2.2 0 0 1-.02-.03l-.02-.07-.01-.03ZM77.58 5.25l-.04.17a23.1 23.1 0 0 1-.12 2.62l.1.12.04.06a115.02 115.02 0 0 0-.4 5.05l.11-.06c.19-.1.37-.23.55-.35.38-.47.74-.96 1.08-1.47.29-.44.6-.86.91-1.27.1-.11.12-.11.06.01a3.42 3.42 0 0 0 .1-.19 4.96 4.96 0 0 0-.16-1.23.51.51 0 0 1-.1-.1.8.8 0 0 1-.08-.16 44.83 44.83 0 0 1 .13-.45v-.06c0-.11.03-.21.07-.31a.33.33 0 0 1 .1-.1l.02-.02c.1-.3.22-.58.34-.87a17.65 17.65 0 0 0 .77-2.31c-.5-.03-.97.01-1.45.12-.44.1-.89.17-1.34.2-.19 0-.37.03-.55.09l-.08.3-.06.21ZM90.36 18.7l.02-.06a48.3 48.3 0 0 0-1.3-6.96c-.25-.9-.47-1.8-.66-2.7-.2 1.2-.53 2.37-1 3.51a23.8 23.8 0 0 1-4.84 7.42c1.07.47 2.06 1.06 2.97 1.77a7.67 7.67 0 0 1 2.13 2.56 8.74 8.74 0 0 1 3.03-3.1c.13-.07.26-.13.4-.18l-.6-1.19a3.02 3.02 0 0 1-.2-.56v-.02a2.7 2.7 0 0 1-.04-.22c0-.09.03-.17.08-.24a.3.3 0 0 0 .01-.03Zm6-14.03a.8.8 0 0 0-.1-.15 5.1 5.1 0 0 0-.66-.02c-.2.01-.4-.01-.58-.07l-.17-.04c.05 1 .13 2 .24 3a445.55 445.55 0 0 0 .4 3.4c.45.64.92 1.26 1.42 1.85-.04-.99-.02-1.98.05-2.98.02-.18.05-.35.1-.52A.32.32 0 0 1 97 9.1a.38.38 0 0 1-.09-.16.6.6 0 0 1-.02-.08c.14-.51.2-1.03.15-1.56-.03-.55-.1-1.09-.22-1.62-.04-.19-.1-.37-.17-.55l-.16-.22a1.27 1.27 0 0 1-.15-.24Zm36.98 31.15a10.18 10.18 0 0 0-2.4-5.7 31.97 31.97 0 0 0-5.55 2.25c.6.45 1.15.94 1.68 1.49.87.9 1.52 1.93 1.94 3.1.45 1.26.65 2.55.58 3.88-.03.47-.27.7-.73.66a9.76 9.76 0 0 0-2.31-.49 13.88 13.88 0 0 1-2.96-.58 6.45 6.45 0 0 0-.15-.03c-.06.1-.13.18-.2.27a12.27 12.27 0 0 1 1.03 7.18 44.26 44.26 0 0 1-1.63 6.88.87.87 0 0 1 .3.12c.05.04.1.07.13.11l.07.15.05.15v.07c0 .08 0 .16-.04.23a1.59 1.59 0 0 0-.13.37c.13 1.73-.1 3.38-.7 4.95 3.64-.37 7.28-.5 10.94-.39 1.88.06 3.75.14 5.62.24a.85.85 0 0 1-.09-.19l-.02-.07v-.03a3.43 3.43 0 0 1-.05-.09.56.56 0 0 1 .02-.23l.02-.07c0-.03.02-.05.04-.07l.03-.07.05-.05c.32-1.9.31-3.82-.03-5.75a15.8 15.8 0 0 0-2.13-5.6l-.84-1.35a1.5 1.5 0 0 0-.24-.18 2.22 2.22 0 0 1-.33-.26 1.47 1.47 0 0 1-.07-.14 1.08 1.08 0 0 1-.05-.29 2.44 2.44 0 0 1-.44-.5 6.13 6.13 0 0 1-.46-.81.67.67 0 0 1-.07-.37.7.7 0 0 1 .06-.17.4.4 0 0 1 .05-.1l-1-8.52ZM130 29.19a10.56 10.56 0 0 0-6.46-2.75c-1.92-.14-3.73.21-5.44 1.07a12.17 12.17 0 0 1-.26-.07 7.06 7.06 0 0 1-.67.27.82.82 0 0 1-.25.2l-.03.13-.16.45c0 .06 0 .11-.03.15l.07.14.02.09-.01.18a.89.89 0 0 1-.1.26.8.8 0 0 1-.16.13h.2a9.75 9.75 0 0 1 3.65.4 17.79 17.79 0 0 1 3.9 1.77A25.98 25.98 0 0 1 130 29.2Z"/><path fill="#4C84A3" d="M46.57 41.1c-.08.24-.18.47-.3.7.34-.1.68-.23 1-.38l-.7-.31Zm73.7-5.93a.59.59 0 0 1-.1-.14.46.46 0 0 1-.12-.08c-.08-.1-.08-.06-.02.1.05.1.1.16.2.2a1 1 0 0 0 .2.07c.12.04.22.04.33.02a11.75 11.75 0 0 1 .6-.12l-.42-.05-.2.15a.51.51 0 0 1-.25-.02.54.54 0 0 1-.22-.13Z"/><path fill="#E0A192" d="m104.47 43.69-.1-.61a11.58 11.58 0 0 1-2.72 3.7l-.5.5c.31.1.6.25.89.44a10.71 10.71 0 0 1 1.2.94c.78.36 1.54.75 2.3 1.16l-.25-1.46-.17-.97c-.23-1.23-.44-2.47-.65-3.7Zm8.94 2.74.04.02.1.11.08.14c.03.05.04.1.05.15a.92.92 0 0 1-.08.38c-1 .67-2 1.37-3 2.09-.86.62-1.63 1.34-2.32 2.16 1 .64 1.97 1.31 2.93 2.02.26.19.53.36.82.52a25.23 25.23 0 0 0 7.9 1.7c.32-.05.64-.14.95-.26l.03-.15a.7.7 0 0 1 .1-.22.9.9 0 0 1 .24-.2.37.37 0 0 1 .07-.04c.68-2.1 1.24-4.24 1.67-6.4.4-2.04.29-4.06-.36-6.06l-.27-.83c-.56.45-1.23.8-2 1.03-.97.3-1.9.7-2.79 1.2a40 40 0 0 0-4.16 2.64Zm1.33-6.25-3.41-1.16c-1.21-.41-2.36-.94-3.47-1.57a12.87 12.87 0 0 1-2.46-1.87 14.48 14.48 0 0 1-.4 5.75c.1.04.16.1.22.17.08.1.11.2.12.32a.3.3 0 0 1 0 .06.3.3 0 0 1-.03.12l-.02.05c.24 1.3.45 2.6.63 3.89.07.5.17 1 .3 1.49.28 1 .42 2 .44 3.02l.57.35a17.06 17.06 0 0 1 3.5-3.1c.05-.1.13-.2.21-.28a2.07 2.07 0 0 0 .38-.49 3.63 3.63 0 0 0 .09-.4l.08-.14a.77.77 0 0 1 .25-.22c.6-1.24 1.22-2.47 1.89-3.67.41-.76.79-1.53 1.11-2.32Zm7.44.04a7.99 7.99 0 0 1-2.32-.45 7.9 7.9 0 0 0-2.44-.44c-.34-.01-.67-.08-.99-.2a8.4 8.4 0 0 1-.21.52 9.2 9.2 0 0 0-.38.98c-.24.64-.53 1.25-.89 1.84-.34.56-.66 1.14-.94 1.74-.09.2-.2.39-.3.58a30.22 30.22 0 0 1 3.38-2.1 34.84 34.84 0 0 1 3.91-1.8c.43-.17.82-.4 1.18-.67ZM84.5 64.19a.38.38 0 0 1-.1.12.35.35 0 0 1-.06.07 11.82 11.82 0 0 1 1.92 2.23c.14.21.25.44.32.69 0 .05-.02.1-.03.14a.33.33 0 0 1-.21.2.21.21 0 0 1-.06.01h-.1a.33.33 0 0 1-.1-.02.45.45 0 0 1-.18-.15 12.4 12.4 0 0 0-1.94-2.46 7.71 7.71 0 0 1-2.4 3.97c-.62.55-1.29 1.03-2.02 1.43a8.86 8.86 0 0 0-2.98 2.67l-.69 1.03a8.34 8.34 0 0 1-.85 1.07c-.13 1.48.02 2.92.47 4.34.1.33.14.63.11.9 1.33.42 2.48 1.2 3.45 2.36a10.39 10.39 0 0 1 2.41 6.22c.05.92.09 1.86.12 2.84 0 .3-.02.59-.08.87a.96.96 0 0 1-.06.07.84.84 0 0 1-.07.05.23.23 0 0 1-.06.02l.15.08c.35.17.73.28 1.13.33.9.11 1.79.16 2.68.14-.28-.93-.47-1.89-.57-2.89-.16-1.55-.12-3.09.11-4.62.24-1.53.74-2.98 1.5-4.33a.48.48 0 0 1-.02-.04c-.27.13-.5.3-.71.53-.18.19-.35.39-.5.6a.58.58 0 0 1-.24.18.5.5 0 0 1-.48-.03l-.06-.03a.57.57 0 0 1-.14-.16.48.48 0 0 1-.07-.2.44.44 0 0 1 0-.14c0-.03 0-.05.02-.07 0-.03 0-.05.02-.08l.03-.06c.3-.43.66-.81 1.06-1.15.29-.23.6-.4.96-.48.2-.05.4-.04.59.03.1.04.18.1.24.19.06.06.1.14.13.22.03.06.07.1.13.1a1.25 1.25 0 0 1 .24.14l.05.05c.29.44.52.91.71 1.4.17.44.35.86.55 1.27.05.1.07.22.06.33l-.05.16a.6.6 0 0 1-.15.22.58.58 0 0 1-.24.1.5.5 0 0 1-.24-.01 3.4 3.4 0 0 1-.93-1.23l-.37-.76a12.2 12.2 0 0 0-1.2 5.51c.04 1.79.3 3.51.8 5.18 1-.07 1.99-.23 2.98-.46.35-.09.7-.16 1.05-.23.07-.3.17-.58.27-.87l.38-.97a.29.29 0 0 1 .13-.15.32.32 0 0 1 .2-.06c.05 0 .11.02.17.06.02 0 .03.02.04.03a23.9 23.9 0 0 1 5.68-5.2c.43-.29.9-.48 1.42-.58 1.48-.29 2.96-.45 4.45-.47a.23.23 0 0 0 .03-.05c.06-.5-.03-1-.28-1.47l-.55-.97c-.21.52-.47 1-.79 1.46a.85.85 0 0 1-.44.35.58.58 0 0 1-.27.01 1.43 1.43 0 0 1-.24-.07 4.34 4.34 0 0 1-.18-.14 3.06 3.06 0 0 1-1.37-.85 6.21 6.21 0 0 1-1.71-3.59 5.35 5.35 0 0 1 .22-2.6 38.22 38.22 0 0 1-3.19-4.46 2.55 2.55 0 0 0-.25-.34.94.94 0 0 0-.4-.1l-.38-.02a1.17 1.17 0 0 1-.26-.07 3.18 3.18 0 0 1-1.5-2.83 14.17 14.17 0 0 0-.58-4.05 2.29 2.29 0 0 0-.23-.28 4.36 4.36 0 0 0-.66-.3.3.3 0 0 1 .03.07l.02.08a6.37 6.37 0 0 1-.04.17.49.49 0 0 1-.04.08 2.37 2.37 0 0 0-1.17.96l-.01.01v-.01l-.06.08c-.08.1-.24.34-.48.71-.15.23-.26.47-.35.73a.22.22 0 0 1-.08.1.84.84 0 0 1-.09.05.27.27 0 0 1-.14.02h-.09a.39.39 0 0 1-.16-.1.33.33 0 0 1-.08-.16.44.44 0 0 1-.01-.14c.08-.3.2-.6.37-.87a11.17 11.17 0 0 1 .58-.83l-.02.04a1.47 1.47 0 0 1 .15-.2l.3-.32a4.07 4.07 0 0 1-.12-.12l-.01-.02a5.45 5.45 0 0 1-2.07-2.04c-.2-.35-.4-.69-.63-1.02-.47.79-1.02 1.5-1.66 2.15l.12.1.05.14c.02.06.02.13.02.19s0 .13-.02.19a.82.82 0 0 1-.05.08Zm-33.38-22-.04-1.1-1.18.44c.42.2.82.43 1.22.65Zm18.93 4.88-.1.16.18-.07a2.7 2.7 0 0 1-.08-.08v-.01Zm-.65-.88a6.86 6.86 0 0 0 .1-.17c-.04-.12-.09-.16-.15-.13a.86.86 0 0 1-.12.06.81.81 0 0 1-.13.04.8.8 0 0 1-.14 0 .78.78 0 0 1-.2-.06.8.8 0 0 1-.1-.1.56.56 0 0 1-.15-.23.6.6 0 0 1-.03-.15c-.45.91-.97 1.8-1.55 2.64l.25-.05c.34-.2.69-.34 1.05-.44.4-.46.79-.93 1.17-1.4Zm-11.1 6.1a125.94 125.94 0 0 1-4.95 1.08c-.4 2.21-.35 4.38.14 6.5a78.21 78.21 0 0 0 3.5-2.24 56.26 56.26 0 0 0 9.36-7.93l-.76.3c-2.37.9-4.8 1.67-7.29 2.28ZM52.89 40.4l-.6.22c0 .76.02 1.52.04 2.28a30.76 30.76 0 0 1 5.56 4.45c.08-.43.11-.88.1-1.33a1.6 1.6 0 0 1 .44-1.18.72.72 0 0 1 .2-.06c.07-.01.14 0 .21.01.07.02.13.05.19.1l.09.1a.78.78 0 0 1 .12.25 41.17 41.17 0 0 0-.22 2.4c-.2.67-.56 1.23-1.08 1.7-.42.37-.9.6-1.47.67h-.1c-.05 0-.1 0-.15-.02a2.63 2.63 0 0 1-.24-.06l-.07-.02a.5.5 0 0 1-.3-.2.55.55 0 0 1-.07-.54l.1-.11c.03-.06.08-.1.15-.14l.12-.06a.5.5 0 0 1 .2 0 1.9 1.9 0 0 1 .31.07l.35-.1.32-.14c.11-.08.22-.18.31-.29a.4.4 0 0 1-.21-.16 32.14 32.14 0 0 0-4.82-4.01l.04 1.12c.07 1.92.28 3.83.63 5.71.07.38.13.75.17 1.12 1.08-.24 2.13-.43 3.16-.6 1.53-.23 3.02-.64 4.47-1.23a6.03 6.03 0 0 1 1.49-.42l.54-.29c-.9-1.7-2.01-3.26-3.32-4.68a24.9 24.9 0 0 0-4.56-3.94c-.6-.4-1.25-.78-1.9-1.11a.5.5 0 0 1 0 .09c0 .07-.02.14-.05.2l-.07.1-.08.1Zm1.5-2v-.16c-.5.11-1.02.21-1.54.3 1.58.74 3.08 1.65 4.5 2.72-.04-.48-.04-.97-.02-1.46a9.19 9.19 0 0 1 .35-2.2c-.2.02-.42.05-.62.09l-.08.38-.12.48a.7.7 0 0 1-.18.33.28.28 0 0 1-.05.05.16.16 0 0 1-.06.03.88.88 0 0 1-.18.07.68.68 0 0 1-.1.24.5.5 0 0 1-.28.18.52.52 0 0 1-.14.02h-.14a.55.55 0 0 1-.19-.1.62.62 0 0 1-.19-.28 9 9 0 0 0-.61-.24.55.55 0 0 1-.24-.19 1.24 1.24 0 0 1-.07-.12.61.61 0 0 1-.03-.15Zm12.13-.89c-.3.12-.6.24-.92.34-1.18.4-2.38.69-3.6.87-1.13.17-2.26.32-3.4.43-.1.6-.12 1.21-.05 1.82.03.22.02.44-.04.64l-.04.08a.55.55 0 0 1-.1.12.66.66 0 0 1-.05.04 1.63 1.63 0 0 1-.13.08 22.82 22.82 0 0 1 4.56 5.13c.45.7.84 1.41 1.16 2.15a5.03 5.03 0 0 1 .65-.14c.3-.15.6-.3.9-.47l-.04-.11a.92.92 0 0 1-.03-.23.64.64 0 0 1 .14-.32 7.81 7.81 0 0 0 .27-.34 23.2 23.2 0 0 0 1.97-3.46 84.89 84.89 0 0 0 1.8-4.29v-.32a4.03 4.03 0 0 1 .03-.36c-.22-.8-.4-1.6-.56-2.4-.86.17-1.7.42-2.52.74Zm4.26 3.9a6.58 6.58 0 0 0-.28-.49 100.78 100.78 0 0 1-1.81 4.1l.14-.09.22-.15a.41.41 0 0 0 .16-.24 14.05 14.05 0 0 0 .1-.1.57.57 0 0 1 .13-.09.55.55 0 0 1 .07-.03c.1-.02.2-.02.28.01l.26.06c.05 0 .1.02.13.04.26.26.45.57.58.92.17.48.26.98.28 1.5.4-.1.8-.22 1.2-.34A7.26 7.26 0 0 0 73.5 46c-.4-.76-.85-1.5-1.33-2.21a21 21 0 0 1-1.39-2.36Z"/><path fill="#0C9AD0" d="M71.06 46.86h-.02.02Z"/><mask id="b" width="55" height="27" x="12" y="17" fill="#000" maskUnits="userSpaceOnUse"><path fill="#fff" d="M12 17h55v27H12z"/><path d="M19.7 36.6c-.59 0-1.2-.07-1.84-.2v4.11c0 .4-.14.71-.4.97s-.6.38-1 .38-.73-.12-1-.38a1.3 1.3 0 0 1-.39-.97l.02-3.76v-3.99a67.72 67.72 0 0 0-.3-5.74c0-.56.13-1.04.38-1.43.29-.45.68-.68 1.17-.68.38 0 .7.13.95.38.26.26.38.57.38.92v.1a5.79 5.79 0 0 1 2.72-.75c1.54 0 2.68.65 3.39 1.96.53 1 .8 2.27.8 3.85 0 1.47-.42 2.7-1.27 3.66a4.55 4.55 0 0 1-3.62 1.57Zm.69-8.35c-.43 0-.86.1-1.3.3-.43.2-.87.5-1.32.9.08 1.38.13 2.77.13 4.16.6.2 1.2.3 1.8.3.68 0 1.22-.25 1.59-.75.33-.44.5-1.04.5-1.8 0-.9-.04-1.53-.12-1.88-.2-.82-.62-1.23-1.28-1.23Zm8.8 6.27c0 1.27-.46 1.91-1.39 1.91a1.32 1.32 0 0 1-1.4-1.37V21.11c.01-.4.15-.71.44-.96.27-.23.6-.35 1-.35s.72.12.97.37c.26.23.39.55.39.94v13.4Zm7.66 1.94a6.4 6.4 0 0 1-3.95-1.15 4.22 4.22 0 0 1-1.7-3.58c0-1.7.45-3.14 1.35-4.32a4.8 4.8 0 0 1 4.02-1.96c1.17 0 2.15.2 2.92.57 1.02.5 1.52 1.27 1.52 2.32 0 .74-.41 1.4-1.24 1.97-.37.26-1.13.64-2.27 1.15l-3.4 1.5c.32.35.71.61 1.17.79.46.17.98.26 1.58.26.9 0 1.66-.18 2.29-.55.56-.33 1-.5 1.34-.5.7 0 1.05.34 1.05 1.02 0 .77-.56 1.4-1.69 1.88-.94.4-1.94.6-3 .6Zm-.28-8.56c-.62 0-1.16.2-1.6.62-.44.42-.8 1.05-1.07 1.88l2.27-.98c.9-.41 1.63-.79 2.17-1.14a3.56 3.56 0 0 0-1.77-.38Zm11.4 8.74a5.6 5.6 0 0 1-3.73-1.27 4.36 4.36 0 0 1-1.58-3.5 7.5 7.5 0 0 1 1.42-4.15c1.08-1.63 2.33-2.45 3.76-2.45.7 0 1.51.2 2.45.57 1.13.46 1.7 1 1.7 1.6 0 .33-.11.63-.34.88a1.2 1.2 0 0 1-.94.41c-.29 0-.64-.15-1.05-.46-.4-.32-1.01-.47-1.82-.47-.52 0-1.08.5-1.69 1.52a5.23 5.23 0 0 0-.87 2.54 2 2 0 0 0 .77 1.67 3 3 0 0 0 1.92.57c.45 0 1-.17 1.65-.51a4.06 4.06 0 0 1 1.24-.52c.37 0 .68.13.93.4.26.26.4.56.4.9 0 .52-.58 1.04-1.72 1.57-1.02.46-1.86.7-2.5.7Zm16-9.17-3.48 7.2a58.96 58.96 0 0 0-1.97 4.37l-.66 1.85c-.25.64-.68.95-1.3.95a1.5 1.5 0 0 1-1-.37 1.19 1.19 0 0 1-.44-.94c0-.62.71-2.48 2.14-5.56-.74-1.46-1.91-3.6-3.52-6.45l-.5-.77a1.7 1.7 0 0 1-.27-.85c0-.37.15-.68.44-.96a1.4 1.4 0 0 1 1-.41c.44 0 .79.16 1.03.49a38.71 38.71 0 0 1 3.34 5.74c.72-1.6 1.16-2.55 1.32-2.88.47-1 .94-1.89 1.4-2.65.29-.48.69-.72 1.19-.72.38 0 .71.12 1 .38.3.25.45.57.45.94 0 .2-.05.4-.17.64Z"/></mask><path fill="#000" d="M19.7 36.6c-.59 0-1.2-.07-1.84-.2v4.11c0 .4-.14.71-.4.97s-.6.38-1 .38-.73-.12-1-.38a1.3 1.3 0 0 1-.39-.97l.02-3.76v-3.99a67.72 67.72 0 0 0-.3-5.74c0-.56.13-1.04.38-1.43.29-.45.68-.68 1.17-.68.38 0 .7.13.95.38.26.26.38.57.38.92v.1a5.79 5.79 0 0 1 2.72-.75c1.54 0 2.68.65 3.39 1.96.53 1 .8 2.27.8 3.85 0 1.47-.42 2.7-1.27 3.66a4.55 4.55 0 0 1-3.62 1.57Zm.69-8.35c-.43 0-.86.1-1.3.3-.43.2-.87.5-1.32.9.08 1.38.13 2.77.13 4.16.6.2 1.2.3 1.8.3.68 0 1.22-.25 1.59-.75.33-.44.5-1.04.5-1.8 0-.9-.04-1.53-.12-1.88-.2-.82-.62-1.23-1.28-1.23Zm8.8 6.27c0 1.27-.46 1.91-1.39 1.91a1.32 1.32 0 0 1-1.4-1.37V21.11c.01-.4.15-.71.44-.96.27-.23.6-.35 1-.35s.72.12.97.37c.26.23.39.55.39.94v13.4Zm7.66 1.94a6.4 6.4 0 0 1-3.95-1.15 4.22 4.22 0 0 1-1.7-3.58c0-1.7.45-3.14 1.35-4.32a4.8 4.8 0 0 1 4.02-1.96c1.17 0 2.15.2 2.92.57 1.02.5 1.52 1.27 1.52 2.32 0 .74-.41 1.4-1.24 1.97-.37.26-1.13.64-2.27 1.15l-3.4 1.5c.32.35.71.61 1.17.79.46.17.98.26 1.58.26.9 0 1.66-.18 2.29-.55.56-.33 1-.5 1.34-.5.7 0 1.05.34 1.05 1.02 0 .77-.56 1.4-1.69 1.88-.94.4-1.94.6-3 .6Zm-.28-8.56c-.62 0-1.16.2-1.6.62-.44.42-.8 1.05-1.07 1.88l2.27-.98c.9-.41 1.63-.79 2.17-1.14a3.56 3.56 0 0 0-1.77-.38Zm11.4 8.74a5.6 5.6 0 0 1-3.73-1.27 4.36 4.36 0 0 1-1.58-3.5 7.5 7.5 0 0 1 1.42-4.15c1.08-1.63 2.33-2.45 3.76-2.45.7 0 1.51.2 2.45.57 1.13.46 1.7 1 1.7 1.6 0 .33-.11.63-.34.88a1.2 1.2 0 0 1-.94.41c-.29 0-.64-.15-1.05-.46-.4-.32-1.01-.47-1.82-.47-.52 0-1.08.5-1.69 1.52a5.23 5.23 0 0 0-.87 2.54 2 2 0 0 0 .77 1.67 3 3 0 0 0 1.92.57c.45 0 1-.17 1.65-.51a4.06 4.06 0 0 1 1.24-.52c.37 0 .68.13.93.4.26.26.4.56.4.9 0 .52-.58 1.04-1.72 1.57-1.02.46-1.86.7-2.5.7Zm16-9.17-3.48 7.2a58.96 58.96 0 0 0-1.97 4.37l-.66 1.85c-.25.64-.68.95-1.3.95a1.5 1.5 0 0 1-1-.37 1.19 1.19 0 0 1-.44-.94c0-.62.71-2.48 2.14-5.56-.74-1.46-1.91-3.6-3.52-6.45l-.5-.77a1.7 1.7 0 0 1-.27-.85c0-.37.15-.68.44-.96a1.4 1.4 0 0 1 1-.41c.44 0 .79.16 1.03.49a38.71 38.71 0 0 1 3.34 5.74c.72-1.6 1.16-2.55 1.32-2.88.47-1 .94-1.89 1.4-2.65.29-.48.69-.72 1.19-.72.38 0 .71.12 1 .38.3.25.45.57.45.94 0 .2-.05.4-.17.64Z"/><path fill="#E7E7E7" d="m17.86 36.4.42-1.96-2.4-.51-.02 2.46h2Zm0 4.11h-2 2Zm-2.77-3.76-2-.02 2 .02Zm0-3.99 2-.03-2 .03Zm-.14-3.75-2 .14 2-.14Zm.22-3.42L13.5 24.5l-.01.01 1.7 1.07Zm2.5.62 2 .2v-.2h-2Zm0 .1-2-.2-.38 3.85 3.36-1.9-.99-1.75Zm1.35-.56.51 1.93h.02l-.53-1.93Zm4.76 1.77 1.76-.94v-.01l-1.76.95Zm-.47 7.51-1.5-1.31 1.5 1.31Zm-4.21-6.48.81 1.83h.01l.01-.01-.83-1.82Zm-1.33.9-1.33-1.5-.72.64.06.97 2-.12Zm.13 4.16h-2v1.45l1.38.45.62-1.9Zm3.39-.45-1.6-1.2 1.6 1.2Zm.38-3.68 1.95-.45v-.01l-1.95.46Zm-1.98 7.12v-2c-.42 0-.9-.05-1.41-.16l-.42 1.95-.4 1.96c.75.16 1.5.25 2.23.25v-2Zm-1.83-.2-2-.01v4.12h4V36.4h-2Zm0 4.11h-2c0-.03 0-.11.04-.22.05-.1.1-.19.17-.24l1.4 1.43 1.39 1.43a3.3 3.3 0 0 0 1-2.4h-2Zm-.4.97-1.4-1.43a.7.7 0 0 1 .24-.15.5.5 0 0 1 .16-.04v4c.87 0 1.72-.29 2.4-.95l-1.4-1.43Zm-1 .38v-2a.5.5 0 0 1 .17.04c.09.04.17.1.23.15l-1.4 1.43-1.4 1.43c.68.66 1.54.95 2.4.95v-2Zm-1-.38 1.4-1.43a.74.74 0 0 1 .21.46h-4c0 .9.32 1.74 1 2.4l1.4-1.43Zm-.39-.97h2l.02-3.75-2-.01-2-.02-.02 3.78h2Zm.02-3.76 2 .01v-4.03l-2 .03-2 .03v3.94l2 .02Zm0-3.99 2-.03a69.84 69.84 0 0 0-.15-3.86l-2 .14-1.99.14c.07 1 .12 2.21.14 3.64l2-.03Zm-.14-3.75 2-.14a288.03 288.03 0 0 0-.15-1.98l-.03-.21c0-.02 0-.06-.02-.1l-.07-.26a2 2 0 0 0-.2-.39c-.03-.05-.43-.74-1.34-.9a2 2 0 0 0-2.02.88c-.17.27-.23.5-.25.57a2.04 2.04 0 0 0-.07.54h4v.08l-.01.1-.06.33c-.02.06-.08.3-.26.57a2 2 0 0 1-2.01.88c-.91-.16-1.32-.85-1.35-.9a2 2 0 0 1-.19-.39 1.88 1.88 0 0 1-.1-.35v-.08l.02.32.11 1.57 2-.14Zm-.15-2h2c0-.25.05-.34.06-.36l-1.69-1.06-1.7-1.07a4.64 4.64 0 0 0-.67 2.5h2Zm.37-1.42 1.68 1.08c0-.01-.04.07-.17.14a.71.71 0 0 1-.34.1v-4c-1.24 0-2.24.63-2.85 1.6l1.68 1.08Zm1.17-.68v2c-.04 0-.12 0-.23-.05a.72.72 0 0 1-.23-.15l1.41-1.42 1.41-1.41a3.29 3.29 0 0 0-2.36-.97v2Zm.95.38-1.41 1.42a.73.73 0 0 1-.2-.5h4c0-.9-.35-1.7-.98-2.33l-1.41 1.41Zm.38.92-1.99-.2v.1l1.98.2 2 .2v-.1l-1.99-.2Zm0 .1.98 1.74c.32-.18.61-.3.88-.37l-.51-1.93-.52-1.93c-.63.17-1.24.42-1.82.75l.98 1.74Zm1.35-.56.53 1.92c.3-.08.57-.11.84-.11v-4c-.65 0-1.29.09-1.91.26l.54 1.93Zm1.37-.2v2c.48 0 .8.1 1 .23.2.12.42.32.63.7l1.76-.96 1.76-.95a5.68 5.68 0 0 0-2.14-2.25 5.92 5.92 0 0 0-3.01-.76v2Zm3.39 1.97-1.76.95c.32.6.56 1.53.56 2.9h4c0-1.78-.3-3.42-1.04-4.8l-1.76.95Zm.8 3.85h-2c0 1.07-.3 1.8-.78 2.35l1.51 1.31 1.51 1.31a7.38 7.38 0 0 0 1.76-4.97h-2Zm-1.27 3.66-1.5-1.3c-.49.55-1.12.87-2.12.87v4c2.03 0 3.82-.73 5.14-2.26l-1.52-1.3Zm-2.92-6.78v-2c-.75 0-1.47.18-2.13.49l.84 1.81.83 1.82c.21-.1.36-.12.46-.12v-2Zm-1.3.3-.8-1.82c-.67.3-1.29.72-1.85 1.22l1.33 1.5 1.34 1.48c.32-.29.6-.46.8-.55l-.81-1.83Zm-1.32.9-2 .1c.09 1.35.13 2.7.13 4.06h4c0-1.43-.05-2.86-.13-4.29l-2 .12Zm.13 4.16-.62 1.9c.78.26 1.6.4 2.41.4v-4c-.38 0-.77-.07-1.18-.2l-.61 1.9Zm1.8.3v2c1.22 0 2.38-.48 3.18-1.54l-1.6-1.2-1.6-1.2.03-.03a.28.28 0 0 1 .06-.04h.02-.1v2Zm1.59-.75 1.59 1.21c.68-.9.91-1.96.91-3h-4c0 .23-.03.38-.05.47a.36.36 0 0 1-.05.12l1.6 1.2Zm.5-1.8h2c0-.89-.03-1.73-.17-2.33l-1.95.45-1.95.45v.03l.02.08.02.3c.02.26.03.6.03 1.03h2Zm-.12-1.88 1.95-.46a3.82 3.82 0 0 0-1.03-1.9 3.13 3.13 0 0 0-2.2-.87v4c-.05 0-.14 0-.26-.05a.94.94 0 0 1-.31-.2c-.16-.15-.14-.24-.1-.06l1.95-.46Zm5.17-9.33-1.3-1.53-.01.01-.02.02 1.33 1.5Zm1.97.02-1.37 1.45.02.02 1.35-1.47Zm.39 14.35h-2c0 .2-.02.32-.03.36-.01.05-.01 0 .06-.1a.9.9 0 0 1 .35-.28c.14-.07.23-.07.22-.07v4a3.2 3.2 0 0 0 2.67-1.3c.59-.81.73-1.8.73-2.61h-2Zm-1.4 1.91v-2a.5.5 0 0 1 .17.04c.1.04.17.1.23.15l-1.4 1.43-1.39 1.43c.68.66 1.53.95 2.4.95v-2Zm-1-.38 1.4-1.43c.06.06.13.15.17.25.04.1.04.17.04.2h-4c0 .87.31 1.74 1 2.41l1.4-1.43Zm-.39-.99h2V21.11h-4v13.95h2Zm0-13.95h2a.78.78 0 0 1-.25.54l-1.32-1.5-1.33-1.5a3.22 3.22 0 0 0-1.1 2.46h2Zm.43-.96 1.3 1.52a.61.61 0 0 1-.2.11l-.1.02v-4c-.81 0-1.62.25-2.3.82l1.3 1.53Zm1-.35v2c-.01 0-.07 0-.16-.03a.73.73 0 0 1-.24-.15l1.37-1.45 1.38-1.45a3.36 3.36 0 0 0-2.36-.92v2Zm.97.37-1.35 1.47a.86.86 0 0 1-.21-.3.64.64 0 0 1-.05-.23h4c0-.88-.31-1.75-1.03-2.41l-1.36 1.47Zm.39.94h-2v13.4h4v-13.4h-2Zm3.35 6.3-1.6-1.21 1.6 1.21Zm6.94-1.39.88-1.8-.88 1.8Zm.28 4.29-1.13-1.65h-.01l1.14 1.65Zm-2.27 1.15.81 1.83-.8-1.83Zm-3.4 1.5-.8-1.83-2.56 1.13 1.9 2.06 1.46-1.36Zm5.04.5-1.02-1.73 1.02 1.73Zm.7 2.4.8 1.84-.8-1.84ZM33.9 30.4l-1.9-.61-1.36 4.2 4.06-1.76-.8-1.83Zm2.27-.98.79 1.84h.02l.01-.02-.82-1.82Zm2.17-1.14 1.09 1.68 2.76-1.8-2.86-1.62-.99 1.74Zm-1.5 8.18v-2c-1.28 0-2.14-.3-2.74-.75l-1.2 1.6-1.2 1.6a8.38 8.38 0 0 0 5.15 1.55v-2Zm-3.94-1.15 1.2-1.6c-.58-.43-.9-1-.9-1.98h-4c0 2.1.82 3.92 2.5 5.18l1.2-1.6Zm-1.7-3.58h2c0-1.33.35-2.33.94-3.1l-1.6-1.22-1.58-1.2a8.92 8.92 0 0 0-1.75 5.52h2Zm1.35-4.32 1.59 1.22c.6-.8 1.35-1.18 2.43-1.18v-4a6.8 6.8 0 0 0-5.61 2.75l1.59 1.21Zm4.02-1.96v2c.97 0 1.62.16 2.04.37l.88-1.8.88-1.8a8.62 8.62 0 0 0-3.8-.77v2Zm2.92.57-.88 1.8c.26.12.33.22.35.25.01.02.05.08.05.27h4a4.43 4.43 0 0 0-2.64-4.12l-.88 1.8Zm1.52 2.32h-2v-.03.01c-.02.04-.12.17-.37.34l1.13 1.65 1.14 1.64c1.16-.8 2.1-2 2.1-3.6h-2Zm-1.24 1.97-1.14-1.64c-.2.14-.79.45-1.94.96l.81 1.83.81 1.83c1.12-.5 2.05-.95 2.6-1.34l-1.14-1.64Zm-2.27 1.15-.8-1.83-3.4 1.5.8 1.83.81 1.83 3.4-1.5-.8-1.83Zm-3.4 1.5-1.47 1.36a5.05 5.05 0 0 0 1.93 1.3l.71-1.87.72-1.87c-.18-.07-.31-.16-.42-.27l-1.47 1.35Zm1.17.79-.71 1.87c.73.28 1.5.4 2.29.4v-4c-.4 0-.68-.07-.86-.14l-.72 1.87Zm1.58.26v2c1.17 0 2.3-.24 3.3-.83l-1.01-1.72-1.02-1.72c-.25.14-.64.27-1.27.27v2Zm2.29-.55 1.01 1.72c.21-.12.35-.19.43-.22h.04a.7.7 0 0 1-.14 0v-4c-.9 0-1.73.4-2.36.77l1.02 1.73Zm1.34-.5v2c.06 0-.27.02-.6-.3a1.2 1.2 0 0 1-.35-.63v-.05h4a3 3 0 0 0-.87-2.2 3.07 3.07 0 0 0-2.18-.82v2Zm1.05 1.02h-2c0-.06.01-.13.04-.2l.05-.09s-.04.05-.14.1c-.1.07-.23.15-.43.23l.8 1.84.79 1.84c1.36-.6 2.89-1.73 2.89-3.72h-2Zm-1.69 1.88-.78-1.84c-.69.3-1.42.44-2.21.44v4c1.31 0 2.58-.25 3.78-.76l-.79-1.84Zm-3.27-7.96v-2c-1.12 0-2.14.39-2.97 1.16l1.37 1.46 1.37 1.46c.06-.06.1-.08.23-.08v-2Zm-1.6.62-1.37-1.46A6.33 6.33 0 0 0 32 29.8l1.9.6 1.9.62c.21-.64.43-.92.54-1.03l-1.37-1.46ZM33.9 30.4l.8 1.83 2.26-.97-.79-1.84-.79-1.84-2.28.98.8 1.84Zm2.27-.98.82 1.82c.96-.43 1.78-.86 2.44-1.28l-1.09-1.68-1.09-1.68c-.42.28-1.04.6-1.9 1l.82 1.82Zm2.17-1.14.99-1.74a5.53 5.53 0 0 0-2.76-.64v4c.52 0 .73.09.78.12l.99-1.74Zm5.9 7.1-1.28 1.53 1.28-1.54Zm-.16-7.66 1.67 1.1-1.67-1.1Zm6.2-1.88.76-1.85-.75 1.85Zm1.37 2.48L50.16 27l-.01.01 1.5 1.32Zm-1.99-.05-1.23 1.57.01.02h.02l1.2-1.59Zm-3.51 1.05-1.72-1.02 1.72 1.02Zm-.1 4.2 1.24-1.56-1.24 1.57Zm5.74-.05-1.43 1.4.02.01 1.41-1.41Zm-1.32 2.47.83 1.82-.83-1.82Zm-2.5.7v-2a3.6 3.6 0 0 1-2.44-.8l-1.29 1.53-1.28 1.54a7.6 7.6 0 0 0 5 1.73v-2Zm-3.73-1.27 1.29-1.53a2.37 2.37 0 0 1-.87-1.98h-4c0 2.01.76 3.75 2.3 5.05l1.28-1.54Zm-1.58-3.5h2c0-.86.3-1.86 1.09-3.05l-1.67-1.1-1.66-1.11a9.49 9.49 0 0 0-1.76 5.25h2Zm1.42-4.15 1.67 1.1c.86-1.3 1.56-1.55 2.09-1.55v-4c-2.33 0-4.13 1.38-5.43 3.34l1.67 1.1Zm3.76-2.45v2c.35 0 .9.1 1.7.42l.75-1.85.75-1.86a8.68 8.68 0 0 0-3.2-.7v2Zm2.45.57-.76 1.85a3.92 3.92 0 0 1 .67.35c0 .01-.05-.04-.1-.15-.06-.12-.1-.27-.1-.45h4c0-1-.5-1.78-1.06-2.3a6.13 6.13 0 0 0-1.9-1.15l-.75 1.85Zm1.7 1.6h-2a.73.73 0 0 1 .17-.45l1.49 1.33 1.5 1.33c.53-.6.84-1.36.84-2.2h-2Zm-.34.88L50.15 27a.81.81 0 0 1 .56-.27v4c.93 0 1.8-.36 2.44-1.09l-1.5-1.32Zm-.94.41v-2a1.04 1.04 0 0 1 .33.06l-.04-.02a1.7 1.7 0 0 1-.13-.1l-1.2 1.6-1.21 1.6c.52.39 1.3.86 2.25.86v-2Zm-1.05-.46 1.24-1.57c-.91-.72-2.05-.9-3.06-.9v4c.28 0 .46.02.56.05.1.03.09.04.03 0l1.23-1.58Zm-1.82-.47v-2c-.95 0-1.67.46-2.16.9-.48.43-.9 1-1.25 1.6l1.72 1.02 1.72 1.02a4.98 4.98 0 0 1 .5-.68c.08-.07-.11.14-.53.14v-2Zm-1.69 1.52-1.72-1.02a7.17 7.17 0 0 0-1.15 3.56h4c0-.2.1-.68.6-1.53l-1.73-1.01Zm-.87 2.54h-2a4 4 0 0 0 1.53 3.24l1.24-1.57 1.24-1.57-.01-.01.01.02c0 .01 0 .01 0 0v-.1h-2Zm.77 1.67-1.24 1.57c.93.73 2.04 1 3.16 1v-4c-.48 0-.64-.1-.68-.14l-1.24 1.57Zm1.92.57v2c.92 0 1.8-.33 2.58-.74l-.93-1.77-.93-1.77c-.25.13-.43.2-.57.24-.13.05-.18.04-.15.04v2Zm1.65-.51.93 1.77c.3-.16.51-.26.64-.31l.06-.02-.1.02-.29.02v-4c-.53 0-1.02.2-1.2.28-.3.12-.62.28-.97.47l.93 1.77Zm1.24-.52v2a.73.73 0 0 1-.27-.06.71.71 0 0 1-.23-.15l1.43-1.4 1.43-1.39c-.62-.64-1.45-1-2.36-1v2Zm.93.4-1.41 1.41a.64.64 0 0 1-.13-.19.83.83 0 0 1-.07-.32h4c0-.93-.38-1.72-.97-2.32l-1.42 1.42Zm.4.9h-2c0-.25.07-.45.13-.57l.08-.12a5.22 5.22 0 0 1-.77.44l.84 1.82.83 1.82c.66-.3 1.3-.67 1.8-1.13a3.08 3.08 0 0 0 1.08-2.26h-2Zm-1.72 1.57-.83-1.82a4.7 4.7 0 0 1-1.67.52v4c1.07 0 2.2-.37 3.33-.88l-.83-1.82Zm13.5-8.47-1.8-.87 1.8.87Zm-3.48 7.2 1.8.88-1.8-.88Zm-1.97 4.37-1.86-.73-.02.04-.01.05 1.9.64Zm-.66 1.85 1.86.72v-.01l.01-.01-1.87-.7Zm-2.3.58-1.3 1.52 1.3-1.52Zm1.7-6.5 1.82.84.4-.88-.44-.86-1.78.9Zm-3.52-6.45 1.74-.98-.02-.04-.03-.05-1.7 1.07Zm-.5-.77-1.72 1 .02.04.02.03 1.68-1.07Zm.17-1.81-1.38-1.45 1.38 1.45Zm2.03.08 1.6-1.2-1.6 1.2Zm3.34 5.74-1.79.9 1.88 3.77 1.74-3.85-1.83-.82Zm1.32-2.88-1.8-.86h-.01l1.8.86Zm1.4-2.65 1.71 1.03-1.71-1.03Zm2.2-.34 1.3-1.52-1.3 1.52Zm.27 1.58-1.8-.86-3.48 7.18 1.8.88 1.8.87 3.48-7.2-1.8-.87Zm-3.48 7.2-1.8-.88a60.83 60.83 0 0 0-2.03 4.52l1.86.73 1.87.72a57.05 57.05 0 0 1 1.9-4.21l-1.8-.88Zm-1.97 4.37-1.9-.64c-.12.39-.34.99-.64 1.8l1.88.7 1.87.69.69-1.91-1.9-.64Zm-.66 1.85-1.87-.71c-.02.05.01-.06.18-.19a.73.73 0 0 1 .4-.15v4a3.29 3.29 0 0 0 3.15-2.23l-1.86-.72Zm-1.3.95v-2c.03 0 .09 0 .16.03l.14.08-1.3 1.52-1.3 1.52a3.5 3.5 0 0 0 2.3.85v-2Zm-1-.37 1.3-1.52c.05.05.13.13.19.26s.07.25.07.32h-4c0 .97.4 1.83 1.13 2.46l1.3-1.52Zm-.44-.94h2c0 .14-.02.13.06-.15.06-.23.18-.56.34-.99.34-.87.85-2.05 1.56-3.58l-1.82-.84-1.81-.84a66.2 66.2 0 0 0-1.66 3.82c-.19.5-.35.94-.46 1.33-.1.34-.2.8-.2 1.25h2Zm2.14-5.56 1.78-.9c-.76-1.5-1.95-3.69-3.56-6.53l-1.74.98-1.74.99c1.6 2.83 2.76 4.95 3.48 6.36l1.78-.9Zm-3.52-6.45 1.69-1.07-.5-.78-1.69 1.08-1.68 1.07.49.77 1.69-1.07Zm-.5-.77 1.73-1.02c-.03-.05-.03-.06-.03-.04.01.02.03.1.03.2h-4c0 .73.26 1.37.55 1.87l1.72-1.01Zm-.27-.85h2c0 .09-.02.2-.07.31-.04.1-.1.16-.11.18l-1.38-1.45-1.38-1.45a3.28 3.28 0 0 0-1.06 2.4h2Zm.44-.96 1.38 1.45a.62.62 0 0 1-.38.14v-4a3.4 3.4 0 0 0-2.38.96l1.38 1.45Zm1-.41v2a.8.8 0 0 1-.56-.3l1.6-1.21 1.59-1.2a3.23 3.23 0 0 0-2.64-1.3v2Zm1.03.49-1.6 1.2A36.9 36.9 0 0 1 57 32.65l1.8-.89 1.79-.89a40.56 40.56 0 0 0-3.54-6.05l-1.6 1.2Zm3.34 5.74 1.83.82 1.3-2.85-1.81-.85-1.81-.85c-.17.34-.61 1.32-1.33 2.9l1.82.83Zm1.32-2.88 1.8.86c.46-.96.9-1.78 1.31-2.48l-1.71-1.03-1.71-1.03c-.5.83-1 1.77-1.5 2.82l1.8.86Zm1.4-2.65 1.72 1.03c.01-.03-.03.05-.16.13a.73.73 0 0 1-.37.12v-4c-1.3 0-2.3.7-2.9 1.7l1.7 1.02Zm1.19-.72v2a.5.5 0 0 1-.3-.1l1.3-1.52 1.32-1.52a3.5 3.5 0 0 0-2.32-.86v2Zm1 .38-1.3 1.51a.82.82 0 0 1-.25-.58h4a3.2 3.2 0 0 0-1.13-2.45L63.7 25.9Zm.45.94h-2c0-.2.06-.28.03-.23l1.8.87 1.8.88c.2-.42.37-.94.37-1.52h-2Z" mask="url(#b)"/><path fill="#fff" d="M14 57.67a8 8 0 0 1 8-8h9a8 8 0 0 1 8 8v9a8 8 0 0 1-8 8h-9a8 8 0 0 1-8-8v-9Z"/><path fill="#000" d="m28.78 50.23-.37.02a.6.6 0 0 0-.29.09l-.37.22-.38.2a2.6 2.6 0 0 1-1.21.37l-.38.01-.37.01c-.3.01-.61 0-.92-.05l-.37-.04-.38-.06a14.5 14.5 0 0 1-.81-.13l-.38-.08-.37-.07-.09-.03c-.15.15-.32.3-.54.37-.33.1-.64.08-.9.02l-.77-.19h-.15l-.36.15-.35.14c-.18.08-.37.16-.54.27l-.33.2-.34.19-.67.4-.35.2-.3.17-.07.4-.08.41c-.06.37-.17.71-.33 1.03l-.17.33-.17.32c-.07.15-.13.31-.17.47l-.19.72c-.08.31-.2.62-.34.92l-.19.37-.14.26.16.3.22.37c.23.43.33.92.22 1.43l-.08.38-.07.37c-.05.28-.12.55-.2.83l-.22.75.01.04.18.37.19.38c.27.56.23 1.16-.07 1.69l-.22.37-.16.25.15.26.21.37c.26.48.33 1.01.17 1.54l-.11.4-.11.34.18.3.2.33c.21.33.35.69.42 1.07l.08.4.06.33.31.17.36.2c.25.14.5.27.71.4l.32.2.3.19c.38.22.66.53.88.9l.22.36.23.36.03.04v.01l.38.12.39.1c.14.05.28.08.43.07l.4-.01.39-.02c.3-.01.6 0 .9.02l.76.08c.02 0 .07 0 .16-.05l.38-.2.37-.21c.33-.18.7-.28 1.07-.27l.4.05.37.08.37.09c.16.03.31.04.47.03l.37-.01.38-.02c.2-.02.42-.04.63-.08l.75-.14c.51-.1 1 .02 1.43.26l.37.21.3.18.25-.12.36-.17c.42-.2.88-.27 1.34-.2l.39.05.4.05c.14.02.28.02.42-.01l.4-.09.32-.08.2-.35.2-.38c.16-.3.35-.59.56-.84l.23-.27.23-.28c.14-.16.26-.32.37-.49l.2-.3.6-.9.19-.3.2-.32c.1-.16.2-.34.28-.53l.16-.36.14-.33-.15-.36-.15-.39a3.4 3.4 0 0 1-.25-1.07l-.02-.37-.02-.38c-.03-.52.15-.99.42-1.38l.27-.37.23-.34-.1-.27-.12-.37a2.4 2.4 0 0 1-.08-1.27l.07-.38.08-.37v-.03s0-.03-.03-.07l-.39-.75a2.7 2.7 0 0 1-.32-1.17l-.01-.73-.04-.68-.03-.36-.02-.35-.05-.75-.03-.38-.03-.39a2.73 2.73 0 0 0-.1-.56l-.12-.39-.1-.36-.36-.19-.36-.2c-.25-.13-.5-.26-.72-.4l-.32-.2-.32-.18c-.35-.21-.63-.5-.86-.82l-.25-.35-.11-.15-.2.05-.42.11c-.44.11-.9.12-1.34-.02l-.72-.24a29.1 29.1 0 0 0-.71-.22l-.38-.1-.37-.12c-.15-.05-.3-.06-.43-.06l-.38.01Zm-7.67-1.6c.04-.05.12-.16.25-.25.06-.05.2-.16.42-.2.27-.05.61 0 .88.25a1 1 0 0 1 .26.4h.03l.37.08c.23.04.46.08.69.1l.37.06.38.05c.2.03.39.04.58.03l.75-.01c.07 0 .16-.03.29-.1l.37-.22.38-.22a2.6 2.6 0 0 1 1.21-.35l.38-.01.37-.02c.37-.01.73.04 1.07.14l.38.11.37.12.76.23.35.12.36.12c.03 0 .1.02.23-.02l.86-.22.46-.05a1.62 1.62 0 0 1 1.27.69l.25.34.26.35c.1.14.2.23.27.27l.32.2.32.19.63.35.36.2.37.19c.47.25.81.66.97 1.18l.1.38.11.4c.1.31.16.64.18.97l.03.38.03.39.05.74.03.36.03.36.04.76.01.74c0 .07.03.17.1.3l.39.75c.22.43.3.92.2 1.41l-.15.75c-.01.07 0 .14.02.23l.13.38.13.37c.2.6.06 1.19-.26 1.65l-.53.75a.5.5 0 0 0-.07.1v.02l.05.75c0 .13.04.28.1.44l.16.38.15.38c.2.49.2 1.02-.01 1.52l-.16.36-.15.35c-.13.28-.27.54-.43.8l-.2.31-.2.32-.42.62-.2.3-.2.3c-.15.23-.31.45-.5.67l-.23.28-.23.27c-.1.12-.22.28-.32.49l-.2.37-.2.38c-.26.5-.7.86-1.27.99l-.78.17c-.38.08-.76.1-1.15.05l-.4-.07-.4-.05c-.06-.01-.12 0-.18.03l-.36.17-.37.17c-.56.27-1.15.22-1.66-.07l-.75-.44-.06-.02-.75.14c-.3.05-.59.08-.88.1l-.75.04c-.35.03-.7 0-1.03-.08l-.75-.17-.05.02-.37.21-.38.2c-.4.23-.85.34-1.33.3l-.38-.05-.38-.03c-.2-.03-.41-.04-.63-.03l-.78.03a3.3 3.3 0 0 1-1.1-.14l-.76-.23c-.5-.16-.9-.48-1.16-.92l-.22-.36-.23-.37a.66.66 0 0 0-.2-.23l-.62-.37-.65-.37-.35-.2-.36-.2c-.5-.27-.83-.72-.94-1.28l-.07-.4-.08-.4a1.14 1.14 0 0 0-.15-.39l-.42-.67a1.85 1.85 0 0 1-.2-1.54l.12-.39.11-.38-.2-.38-.21-.37a1.71 1.71 0 0 1 0-1.73l.22-.38.18-.3-.14-.27-.18-.38a2.02 2.02 0 0 1-.13-1.46l.22-.75c.06-.22.12-.45.16-.67l.08-.37.07-.38c0-.01 0-.04-.02-.07l-.2-.37-.22-.38a1.76 1.76 0 0 1-.03-1.67l.18-.37.19-.36c.1-.2.15-.37.2-.53l.09-.35.1-.36c.07-.3.18-.6.33-.89l.33-.66c.06-.11.12-.26.15-.46l.07-.42.08-.42.11-.4c.15-.37.42-.68.79-.9l.34-.2.36-.21.67-.4.32-.2.34-.2c.26-.15.54-.28.82-.4l.35-.14.36-.14c.44-.17.9-.2 1.35-.1l.4.1.08.03.16-.25c.03-.07.08-.13.13-.2Z"/><path stroke="#000" stroke-linecap="round" stroke-width="2" d="M21 66.8c1.06 2.94 4.26 4.94 5.23 3.25 1.62-2.86 5.2-14.66 5.77-16.38"/><path fill="#fff" d="M14 57.67a8 8 0 0 1 8-8h9a8 8 0 0 1 8 8v9a8 8 0 0 1-8 8h-9a8 8 0 0 1-8-8v-9Z"/><path fill="#000" d="m28.78 50.23-.37.02a.6.6 0 0 0-.29.09l-.37.22-.38.2a2.6 2.6 0 0 1-1.21.37l-.38.01-.37.01c-.3.01-.61 0-.92-.05l-.37-.04-.38-.06a14.5 14.5 0 0 1-.81-.13l-.38-.08-.37-.07-.09-.03c-.15.15-.32.3-.54.37-.33.1-.64.08-.9.02l-.77-.19h-.15l-.36.15-.35.14c-.18.08-.37.16-.54.27l-.33.2-.34.19-.67.4-.35.2-.3.17-.07.4-.08.41c-.06.37-.17.71-.33 1.03l-.17.33-.17.32c-.07.15-.13.31-.17.47l-.19.72c-.08.31-.2.62-.34.92l-.19.37-.14.26.16.3.22.37c.23.43.33.92.22 1.43l-.08.38-.07.37c-.05.28-.12.55-.2.83l-.22.75.01.04.18.37.19.38c.27.56.23 1.16-.07 1.69l-.22.37-.16.25.15.26.21.37c.26.48.33 1.01.17 1.54l-.11.4-.11.34.18.3.2.33c.21.33.35.69.42 1.07l.08.4.06.33.31.17.36.2c.25.14.5.27.71.4l.32.2.3.19c.38.22.66.53.88.9l.22.36.23.36.03.04v.01l.38.12.39.1c.14.05.28.08.43.07l.4-.01.39-.02c.3-.01.6 0 .9.02l.76.08c.02 0 .07 0 .16-.05l.38-.2.37-.21c.33-.18.7-.28 1.07-.27l.4.05.37.08.37.09c.16.03.31.04.47.03l.37-.01.38-.02c.2-.02.42-.04.63-.08l.75-.14c.51-.1 1 .02 1.43.26l.37.21.3.18.25-.12.36-.17c.42-.2.88-.27 1.34-.2l.39.05.4.05c.14.02.28.02.42-.01l.4-.09.32-.08.2-.35.2-.38c.16-.3.35-.59.56-.84l.23-.27.23-.28c.14-.16.26-.32.37-.49l.2-.3.6-.9.19-.3.2-.32c.1-.16.2-.34.28-.53l.16-.36.14-.33-.15-.36-.15-.39a3.4 3.4 0 0 1-.25-1.07l-.02-.37-.02-.38c-.03-.52.15-.99.42-1.38l.27-.37.23-.34-.1-.27-.12-.37a2.4 2.4 0 0 1-.08-1.27l.07-.38.08-.37v-.03s0-.03-.03-.07l-.39-.75a2.7 2.7 0 0 1-.32-1.17l-.01-.73-.04-.68-.03-.36-.02-.35-.05-.75-.03-.38-.03-.39a2.73 2.73 0 0 0-.1-.56l-.12-.39-.1-.36-.36-.19-.36-.2c-.25-.13-.5-.26-.72-.4l-.32-.2-.32-.18c-.35-.21-.63-.5-.86-.82l-.25-.35-.11-.15-.2.05-.42.11c-.44.11-.9.12-1.34-.02l-.72-.24a29.1 29.1 0 0 0-.71-.22l-.38-.1-.37-.12c-.15-.05-.3-.06-.43-.06l-.38.01Zm-7.67-1.6c.04-.05.12-.16.25-.25.06-.05.2-.16.42-.2.27-.05.61 0 .88.25a1 1 0 0 1 .26.4h.03l.37.08c.23.04.46.08.69.1l.37.06.38.05c.2.03.39.04.58.03l.75-.01c.07 0 .16-.03.29-.1l.37-.22.38-.22a2.6 2.6 0 0 1 1.21-.35l.38-.01.37-.02c.37-.01.73.04 1.07.14l.38.11.37.12.76.23.35.12.36.12c.03 0 .1.02.23-.02l.86-.22.46-.05a1.62 1.62 0 0 1 1.27.69l.25.34.26.35c.1.14.2.23.27.27l.32.2.32.19.63.35.36.2.37.19c.47.25.81.66.97 1.18l.1.38.11.4c.1.31.16.64.18.97l.03.38.03.39.05.74.03.36.03.36.04.76.01.74c0 .07.03.17.1.3l.39.75c.22.43.3.92.2 1.41l-.15.75c-.01.07 0 .14.02.23l.13.38.13.37c.2.6.06 1.19-.26 1.65l-.53.75a.5.5 0 0 0-.07.1v.02l.05.75c0 .13.04.28.1.44l.16.38.15.38c.2.49.2 1.02-.01 1.52l-.16.36-.15.35c-.13.28-.27.54-.43.8l-.2.31-.2.32-.42.62-.2.3-.2.3c-.15.23-.31.45-.5.67l-.23.28-.23.27c-.1.12-.22.28-.32.49l-.2.37-.2.38c-.26.5-.7.86-1.27.99l-.78.17c-.38.08-.76.1-1.15.05l-.4-.07-.4-.05c-.06-.01-.12 0-.18.03l-.36.17-.37.17c-.56.27-1.15.22-1.66-.07l-.75-.44-.06-.02-.75.14c-.3.05-.59.08-.88.1l-.75.04c-.35.03-.7 0-1.03-.08l-.75-.17-.05.02-.37.21-.38.2c-.4.23-.85.34-1.33.3l-.38-.05-.38-.03c-.2-.03-.41-.04-.63-.03l-.78.03a3.3 3.3 0 0 1-1.1-.14l-.76-.23c-.5-.16-.9-.48-1.16-.92l-.22-.36-.23-.37a.66.66 0 0 0-.2-.23l-.62-.37-.65-.37-.35-.2-.36-.2c-.5-.27-.83-.72-.94-1.28l-.07-.4-.08-.4a1.14 1.14 0 0 0-.15-.39l-.42-.67a1.85 1.85 0 0 1-.2-1.54l.12-.39.11-.38-.2-.38-.21-.37a1.71 1.71 0 0 1 0-1.73l.22-.38.18-.3-.14-.27-.18-.38a2.02 2.02 0 0 1-.13-1.46l.22-.75c.06-.22.12-.45.16-.67l.08-.37.07-.38c0-.01 0-.04-.02-.07l-.2-.37-.22-.38a1.76 1.76 0 0 1-.03-1.67l.18-.37.19-.36c.1-.2.15-.37.2-.53l.09-.35.1-.36c.07-.3.18-.6.33-.89l.33-.66c.06-.11.12-.26.15-.46l.07-.42.08-.42.11-.4c.15-.37.42-.68.79-.9l.34-.2.36-.21.67-.4.32-.2.34-.2c.26-.15.54-.28.82-.4l.35-.14.36-.14c.44-.17.9-.2 1.35-.1l.4.1.08.03.16-.25c.03-.07.08-.13.13-.2Z"/><path stroke="#000" stroke-linecap="round" stroke-width="2" d="M21 66.8c1.06 2.94 4.26 4.94 5.23 3.25 1.62-2.86 5.2-14.66 5.77-16.38"/></g><rect width="130" height="96" x="2" y="2" stroke="#000" stroke-width="4" rx="13"/><defs><clipPath id="a"><rect width="134" height="100" fill="#fff" rx="15"/></clipPath></defs></svg>