<svg xmlns="http://www.w3.org/2000/svg" width="134" height="100" fill="none"><g clip-path="url(#a)"><rect width="134" height="100" fill="#EEE" rx="15"/><mask id="b" width="65" height="26" x="12" y="18" fill="#000" maskUnits="userSpaceOnUse"><path fill="#fff" d="M12 18h65v26H12z"/><path d="M19.82 36.42c-.94 0-1.83-.16-2.68-.5-.25.26-.55.38-.91.38s-.68-.12-.94-.36a1.2 1.2 0 0 1-.38-.9c0-.17 0-.42.03-.75l.03-.74V22.1c0-.48.1-.91.32-1.29.27-.47.65-.71 1.15-.71.72 0 1.08.39 1.08 1.17 0 .08-.01.23-.04.42l-.03.41v3.87c.5-.28.98-.48 1.43-.62.46-.14.9-.2 1.33-.2 1.58 0 2.86.57 3.83 1.72a5.87 5.87 0 0 1 1.36 3.91c0 1.56-.53 2.89-1.58 3.97a5.34 5.34 0 0 1-4 1.66Zm.39-8.68c-.35 0-.76.1-1.21.3-.46.2-.98.5-1.55.9v4.3c.92.4 1.71.59 2.37.59a2.8 2.8 0 0 0 2.11-.86c.55-.58.83-1.3.83-2.18 0-.87-.23-1.6-.68-2.17-.47-.59-1.1-.88-1.87-.88Zm9.4-3.87c-.44 0-.81-.14-1.13-.43a1.38 1.38 0 0 1-.47-1.06c0-.42.15-.77.47-1.06a1.6 1.6 0 0 1 1.12-.44c.43 0 .8.15 1.11.44.32.29.48.64.48 1.06 0 .41-.16.77-.48 1.06-.3.29-.68.43-1.1.43Zm.85 7.4c0 .38 0 1 .03 1.84.03.85.04 1.47.04 1.85 0 .4-.13.71-.4.97-.26.25-.59.37-1 .37-.4 0-.73-.12-1-.37a1.3 1.3 0 0 1-.39-.97c0-.38 0-1-.04-1.85l-.03-1.84c0-.6.04-1.35.1-2.25.07-.9.1-1.65.1-2.25 0-.4.14-.71.4-.96.26-.26.6-.39 1-.39s.73.13 1 .39c.26.25.39.57.39.96 0 .6-.03 1.35-.1 2.25-.07.9-.1 1.65-.1 2.25Zm7.27 5.37a5.6 5.6 0 0 1-3.72-1.27 4.36 4.36 0 0 1-1.58-3.5 7.5 7.5 0 0 1 1.42-4.15c1.08-1.63 2.33-2.45 3.75-2.45.7 0 1.52.2 2.46.57 1.13.46 1.7 1 1.7 1.6 0 .33-.11.63-.34.88a1.2 1.2 0 0 1-.94.41c-.29 0-.64-.15-1.05-.46-.4-.32-1.01-.47-1.83-.47-.51 0-1.08.5-1.68 1.52a5.23 5.23 0 0 0-.87 2.54 2 2 0 0 0 .77 1.67 3 3 0 0 0 1.91.57c.46 0 1-.17 1.66-.51a4.06 4.06 0 0 1 1.24-.52c.36 0 .67.13.93.4.26.26.4.56.4.9 0 .52-.58 1.04-1.72 1.57-1.03.46-1.86.7-2.5.7Zm11.06-.18a6.4 6.4 0 0 1-3.94-1.15 4.22 4.22 0 0 1-1.7-3.58c0-1.7.45-3.14 1.35-4.32a4.8 4.8 0 0 1 4.02-1.96c1.17 0 2.14.2 2.92.57 1.01.5 1.52 1.27 1.52 2.32 0 .74-.41 1.4-1.24 1.97-.38.26-1.13.64-2.27 1.15l-3.4 1.5c.32.35.71.61 1.17.79.46.17.98.26 1.57.26.9 0 1.67-.18 2.3-.55.55-.33 1-.5 1.34-.5.7 0 1.05.34 1.05 1.02 0 .77-.57 1.4-1.69 1.88-.94.4-1.94.6-3 .6Zm-.27-8.56c-.62 0-1.16.2-1.6.62-.45.42-.8 1.05-1.07 1.88l2.27-.98c.9-.41 1.63-.79 2.17-1.14a3.56 3.56 0 0 0-1.77-.38Zm11.41 8.7c-.57 0-1.18-.07-1.82-.2l-.01 4.11c0 .4-.13.71-.4.97-.26.26-.6.38-1 .38s-.73-.12-1-.38a1.3 1.3 0 0 1-.39-.97l.02-3.76c.02-1.63.02-2.96 0-3.99a67.81 67.81 0 0 0-.29-5.74c0-.56.13-1.04.37-1.43.3-.45.68-.68 1.17-.68.38 0 .7.13.95.38.26.26.39.57.39.92l-.01.1a5.79 5.79 0 0 1 2.72-.75c1.55 0 2.68.65 3.4 1.96.52 1 .79 2.27.79 3.85 0 1.47-.42 2.7-1.26 3.66a4.55 4.55 0 0 1-3.63 1.57Zm.7-8.35c-.42 0-.85.1-1.3.3-.43.2-.87.5-1.31.9.08 1.38.12 2.77.12 4.16.6.2 1.2.3 1.8.3.69 0 1.22-.25 1.59-.75.34-.44.5-1.04.5-1.8 0-.9-.04-1.53-.12-1.88-.2-.82-.62-1.23-1.28-1.23Zm12.8.36c-.66 0-1.06-.28-1.2-.83a4.8 4.8 0 0 0-.82-.07c-1.62 0-2.43.22-2.43.66 0 .26.48.62 1.46 1.06 1.33.61 2.23 1.09 2.7 1.43.98.71 1.47 1.5 1.47 2.4 0 1.15-.54 2.03-1.62 2.63-.86.48-1.93.72-3.2.72-.9 0-1.7-.14-2.45-.42-1-.38-1.51-.93-1.51-1.66 0-.68.4-1.01 1.2-1.01.3 0 .76.1 1.34.29.59.2 1.04.3 1.35.3 1.37 0 2.06-.28 2.06-.83 0-.35-.47-.73-1.42-1.14a20.34 20.34 0 0 1-2.67-1.33c-.94-.66-1.42-1.47-1.42-2.43 0-1.35.72-2.26 2.15-2.73.84-.28 2.12-.42 3.84-.42.67 0 1.17.09 1.49.27.44.23.67.66.67 1.3 0 1.2-.33 1.81-.98 1.81Z"/></mask><path fill="#000" d="M19.82 36.42c-.94 0-1.83-.16-2.68-.5-.25.26-.55.38-.91.38s-.68-.12-.94-.36a1.2 1.2 0 0 1-.38-.9c0-.17 0-.42.03-.75l.03-.74V22.1c0-.48.1-.91.32-1.29.27-.47.65-.71 1.15-.71.72 0 1.08.39 1.08 1.17 0 .08-.01.23-.04.42l-.03.41v3.87c.5-.28.98-.48 1.43-.62.46-.14.9-.2 1.33-.2 1.58 0 2.86.57 3.83 1.72a5.87 5.87 0 0 1 1.36 3.91c0 1.56-.53 2.89-1.58 3.97a5.34 5.34 0 0 1-4 1.66Zm.39-8.68c-.35 0-.76.1-1.21.3-.46.2-.98.5-1.55.9v4.3c.92.4 1.71.59 2.37.59a2.8 2.8 0 0 0 2.11-.86c.55-.58.83-1.3.83-2.18 0-.87-.23-1.6-.68-2.17-.47-.59-1.1-.88-1.87-.88Zm9.4-3.87c-.44 0-.81-.14-1.13-.43a1.38 1.38 0 0 1-.47-1.06c0-.42.15-.77.47-1.06a1.6 1.6 0 0 1 1.12-.44c.43 0 .8.15 1.11.44.32.29.48.64.48 1.06 0 .41-.16.77-.48 1.06-.3.29-.68.43-1.1.43Zm.85 7.4c0 .38 0 1 .03 1.84.03.85.04 1.47.04 1.85 0 .4-.13.71-.4.97-.26.25-.59.37-1 .37-.4 0-.73-.12-1-.37a1.3 1.3 0 0 1-.39-.97c0-.38 0-1-.04-1.85l-.03-1.84c0-.6.04-1.35.1-2.25.07-.9.1-1.65.1-2.25 0-.4.14-.71.4-.96.26-.26.6-.39 1-.39s.73.13 1 .39c.26.25.39.57.39.96 0 .6-.03 1.35-.1 2.25-.07.9-.1 1.65-.1 2.25Zm7.27 5.37a5.6 5.6 0 0 1-3.72-1.27 4.36 4.36 0 0 1-1.58-3.5 7.5 7.5 0 0 1 1.42-4.15c1.08-1.63 2.33-2.45 3.75-2.45.7 0 1.52.2 2.46.57 1.13.46 1.7 1 1.7 1.6 0 .33-.11.63-.34.88a1.2 1.2 0 0 1-.94.41c-.29 0-.64-.15-1.05-.46-.4-.32-1.01-.47-1.83-.47-.51 0-1.08.5-1.68 1.52a5.23 5.23 0 0 0-.87 2.54 2 2 0 0 0 .77 1.67 3 3 0 0 0 1.91.57c.46 0 1-.17 1.66-.51a4.06 4.06 0 0 1 1.24-.52c.36 0 .67.13.93.4.26.26.4.56.4.9 0 .52-.58 1.04-1.72 1.57-1.03.46-1.86.7-2.5.7Zm11.06-.18a6.4 6.4 0 0 1-3.94-1.15 4.22 4.22 0 0 1-1.7-3.58c0-1.7.45-3.14 1.35-4.32a4.8 4.8 0 0 1 4.02-1.96c1.17 0 2.14.2 2.92.57 1.01.5 1.52 1.27 1.52 2.32 0 .74-.41 1.4-1.24 1.97-.38.26-1.13.64-2.27 1.15l-3.4 1.5c.32.35.71.61 1.17.79.46.17.98.26 1.57.26.9 0 1.67-.18 2.3-.55.55-.33 1-.5 1.34-.5.7 0 1.05.34 1.05 1.02 0 .77-.57 1.4-1.69 1.88-.94.4-1.94.6-3 .6Zm-.27-8.56c-.62 0-1.16.2-1.6.62-.45.42-.8 1.05-1.07 1.88l2.27-.98c.9-.41 1.63-.79 2.17-1.14a3.56 3.56 0 0 0-1.77-.38Zm11.41 8.7c-.57 0-1.18-.07-1.82-.2l-.01 4.11c0 .4-.13.71-.4.97-.26.26-.6.38-1 .38s-.73-.12-1-.38a1.3 1.3 0 0 1-.39-.97l.02-3.76c.02-1.63.02-2.96 0-3.99a67.81 67.81 0 0 0-.29-5.74c0-.56.13-1.04.37-1.43.3-.45.68-.68 1.17-.68.38 0 .7.13.95.38.26.26.39.57.39.92l-.01.1a5.79 5.79 0 0 1 2.72-.75c1.55 0 2.68.65 3.4 1.96.52 1 .79 2.27.79 3.85 0 1.47-.42 2.7-1.26 3.66a4.55 4.55 0 0 1-3.63 1.57Zm.7-8.35c-.42 0-.85.1-1.3.3-.43.2-.87.5-1.31.9.08 1.38.12 2.77.12 4.16.6.2 1.2.3 1.8.3.69 0 1.22-.25 1.59-.75.34-.44.5-1.04.5-1.8 0-.9-.04-1.53-.12-1.88-.2-.82-.62-1.23-1.28-1.23Zm12.8.36c-.66 0-1.06-.28-1.2-.83a4.8 4.8 0 0 0-.82-.07c-1.62 0-2.43.22-2.43.66 0 .26.48.62 1.46 1.06 1.33.61 2.23 1.09 2.7 1.43.98.71 1.47 1.5 1.47 2.4 0 1.15-.54 2.03-1.62 2.63-.86.48-1.93.72-3.2.72-.9 0-1.7-.14-2.45-.42-1-.38-1.51-.93-1.51-1.66 0-.68.4-1.01 1.2-1.01.3 0 .76.1 1.34.29.59.2 1.04.3 1.35.3 1.37 0 2.06-.28 2.06-.83 0-.35-.47-.73-1.42-1.14a20.34 20.34 0 0 1-2.67-1.33c-.94-.66-1.42-1.47-1.42-2.43 0-1.35.72-2.26 2.15-2.73.84-.28 2.12-.42 3.84-.42.67 0 1.17.09 1.49.27.44.23.67.66.67 1.3 0 1.2-.33 1.81-.98 1.81Z"/><path fill="#E7E7E7" d="m17.14 35.93.72-1.86-1.21-.48-.93.93 1.42 1.4Zm-1.85.01-1.37 1.45v.01h.02l1.35-1.46Zm-.35-1.65 2 .13-2-.13Zm.35-13.47 1.74 1v-.02l-1.74-.98Zm2.2.88-1.99-.27v.06l1.98.21Zm-.04 4.28h-2v3.4l2.97-1.65-.97-1.75Zm1.43-.62.57 1.92h.02l-.59-1.92Zm5.16 1.52 1.53-1.3-1.53 1.3Zm-.22 7.88-1.43-1.4 1.43 1.4ZM19 28.04l-.81-1.83.8 1.83Zm-1.55.9-1.15-1.63-.84.6v1.02l2 .02Zm0 4.3h-2v1.31l1.21.52.8-1.84Zm4.48-.27 1.44 1.4v-.02l-1.44-1.38Zm.15-4.35 1.57-1.23v-.01l-1.57 1.24Zm-2.26 7.8v-2c-.7 0-1.35-.12-1.96-.35l-.72 1.86-.73 1.86c1.09.43 2.23.63 3.41.63v-2Zm-2.68-.5-1.42-1.4a.75.75 0 0 1 .51-.22v4c.88 0 1.7-.33 2.32-.96l-1.41-1.41Zm-.91.38v-2c.04 0 .12.01.22.05.09.03.16.08.2.12l-1.36 1.47-1.35 1.47c.63.59 1.43.9 2.29.9v-2Zm-.94-.36 1.38-1.45a.8.8 0 0 1 .24.54h-4c0 .9.34 1.73 1 2.36l1.38-1.45Zm-.38-.9h2l.02-.62-2-.13-1.99-.12-.03.86h2Zm.03-.75 2 .12.03-.86h-4c0 .1 0 .3-.03.62l2 .12Zm.03-.74h2V22.1h-4v11.44h2Zm0-11.44h2c0-.17.04-.25.06-.3l-1.74-.99-1.73-.99c-.41.71-.6 1.5-.6 2.28h2Zm.32-1.29 1.74.98s-.04.1-.2.18a.78.78 0 0 1-.39.13v-4c-1.3 0-2.31.7-2.9 1.73l1.75.98Zm1.15-.71v2h-.05a1.17 1.17 0 0 1-.6-.35c-.3-.32-.27-.6-.27-.48h4c0-.66-.15-1.53-.8-2.24a3.04 3.04 0 0 0-2.28-.93v2Zm1.08 1.17h-2v-.04.02c0 .03 0 .09-.02.17l1.98.27 1.98.27c.03-.2.06-.46.06-.7h-2Zm-.04.42-1.99-.21c-.02.2-.04.42-.04.62h4v-.02l.02-.18-1.99-.2Zm-.03.41h-2v3.87h4V22.1h-2Zm0 3.87.97 1.75c.4-.22.74-.36 1.03-.45l-.57-1.92-.56-1.91c-.62.18-1.24.45-1.84.78l.97 1.75Zm1.43-.62.6 1.91c.29-.08.53-.12.73-.12v-4c-.65 0-1.3.11-1.92.3l.6 1.91Zm1.33-.2v2a2.8 2.8 0 0 1 2.3 1.01l1.53-1.3 1.53-1.29a6.78 6.78 0 0 0-5.36-2.43v2Zm3.83 1.72-1.53 1.29c.58.68.9 1.52.9 2.62h4c0-1.96-.6-3.73-1.84-5.2l-1.53 1.29Zm1.36 3.91h-2c0 1.06-.33 1.88-1.01 2.57l1.43 1.4 1.43 1.4a7.46 7.46 0 0 0 2.15-5.37h-2Zm-1.58 3.97-1.44-1.4a3.35 3.35 0 0 1-2.56 1.06v4c2.11 0 3.97-.76 5.43-2.27l-1.43-1.4Zm-3.61-7.02v-2c-.72 0-1.41.2-2.02.47l.8 1.83.81 1.83c.15-.07.25-.1.33-.12.07-.02.1-.01.08-.01v-2Zm-1.21.3-.81-1.83c-.62.27-1.25.65-1.9 1.1l1.16 1.64 1.15 1.63c.5-.35.9-.58 1.2-.71l-.8-1.83Zm-1.55.9-2-.01v4.31h2l2-.01v-4.26l-2-.02Zm0 4.3-.79 1.83c1.05.46 2.13.76 3.16.76v-4c-.28 0-.79-.1-1.58-.43l-.79 1.84Zm2.37.59v2a4.8 4.8 0 0 0 3.55-1.47l-1.44-1.39-1.44-1.39c-.14.15-.31.25-.67.25v2Zm2.11-.86 1.45 1.38a5.03 5.03 0 0 0 1.38-3.56h-4c0 .42-.11.63-.28.8l1.45 1.38Zm.83-2.18h2c0-1.23-.32-2.41-1.1-3.4l-1.58 1.23-1.57 1.24c.12.15.25.41.25.93h2Zm-.68-2.17 1.57-1.24a4.28 4.28 0 0 0-3.44-1.64v4c.13 0 .18.02.2.03 0 0 .04.02.1.1l1.57-1.25Zm6.4-5.18-1.35 1.47 1.35-1.47Zm0-2.12-1.35-1.48 1.35 1.48Zm2.23 0-1.36 1.46.01.01 1.35-1.47Zm0 2.12-1.35-1.48-.01.02 1.36 1.46Zm-.22 9.67-2 .05v.01l2-.06Zm-.35 2.82 1.37 1.45h.01l.01-.02-1.4-1.43Zm-2 0-1.4 1.43.01.01.01.01 1.38-1.45Zm-.44-2.82-2 .05v.01l2-.06Zm.57-7.3 1.38 1.45v-.01l.01-.01-1.4-1.43Zm2 0-1.4 1.43.01.01h.01l1.38-1.44Zm-.67-1.94v-2c.01 0 .06 0 .12.03.06.02.1.05.11.06l-1.35 1.48-1.35 1.47a3.6 3.6 0 0 0 2.47.96v-2Zm-1.12-.43 1.35-1.48c.02.02.08.08.12.18.05.1.06.19.06.24h-4c0 1 .4 1.88 1.12 2.53l1.35-1.47Zm-.47-1.06h2a.6.6 0 0 1-.06.24c-.04.1-.1.15-.12.17l-1.35-1.47-1.35-1.48a3.38 3.38 0 0 0-1.12 2.54h2Zm.47-1.06 1.35 1.47a.37.37 0 0 1-.11.07.36.36 0 0 1-.12.02v-4a3.6 3.6 0 0 0-2.47.96l1.35 1.48Zm1.12-.44v2c-.01 0-.06 0-.13-.03a.42.42 0 0 1-.12-.07l1.36-1.46 1.37-1.46a3.57 3.57 0 0 0-2.48-.98v2Zm1.11.44-1.35 1.47a.55.55 0 0 1-.12-.17.6.6 0 0 1-.05-.24h4c0-1-.41-1.88-1.13-2.54l-1.35 1.48Zm.48 1.06h-2a.6.6 0 0 1 .05-.24c.05-.1.1-.16.12-.18l1.35 1.48 1.35 1.47a3.38 3.38 0 0 0 1.13-2.53h-2Zm-.48 1.06-1.36-1.46a.42.42 0 0 1 .12-.08.38.38 0 0 1 .13-.03v4c.93 0 1.79-.33 2.48-.97l-1.37-1.46Zm-.25 7.83h-2c0 .4 0 1.04.03 1.9l2-.06 2-.04-.03-1.8h-2Zm.03 1.84-2 .07c.03.84.04 1.43.04 1.78h4l-.04-1.91-2 .06Zm.04 1.85h-2c0-.03 0-.11.05-.22.04-.1.1-.19.16-.24l1.4 1.43 1.4 1.43a3.3 3.3 0 0 0 .99-2.4h-2Zm-.4.97-1.37-1.45a.7.7 0 0 1 .23-.14.47.47 0 0 1 .15-.04v4c.85 0 1.7-.28 2.37-.92l-1.37-1.45Zm-1 .37v-2c.01 0 .07 0 .15.04a.7.7 0 0 1 .23.14l-1.37 1.45-1.38 1.45c.68.64 1.53.92 2.38.92v-2Zm-1-.37 1.4-1.43a.74.74 0 0 1 .21.46h-4c0 .9.33 1.74 1 2.4l1.4-1.43Zm-.39-.97h2c0-.42-.01-1.06-.04-1.91l-2 .06-2 .07c.03.84.04 1.43.04 1.78h2Zm-.04-1.85 2-.04-.03-1.8h-4l.03 1.9 2-.06Zm-.03-1.84h2c0-.53.03-1.23.1-2.1l-2-.15-1.99-.15c-.07.93-.1 1.73-.1 2.4h2Zm.1-2.25 2 .15c.07-.93.1-1.74.1-2.4h-4c0 .53-.02 1.22-.09 2.1l2 .15Zm.1-2.25h2c0 .03 0 .11-.05.22a.78.78 0 0 1-.17.27l-1.38-1.45-1.38-1.45a3.26 3.26 0 0 0-1.01 2.4h2Zm.4-.96 1.4 1.43a.7.7 0 0 1-.24.15.5.5 0 0 1-.16.03v-4c-.87 0-1.72.3-2.4.96l1.4 1.43Zm1-.39v2a.5.5 0 0 1-.17-.03.7.7 0 0 1-.23-.15l1.4-1.43 1.4-1.43a3.37 3.37 0 0 0-2.4-.96v2Zm1 .39-1.38 1.45a.78.78 0 0 1-.23-.5h4c0-.88-.32-1.74-1.02-2.4l-1.37 1.45Zm.39.96h-2c0 .53-.03 1.22-.1 2.1l2 .15 2 .15c.06-.93.1-1.74.1-2.4h-2Zm-.1 2.25-2-.15c-.06.93-.1 1.73-.1 2.4h4c0-.53.03-1.23.1-2.1l-2-.15Zm3.45 6.35-1.29 1.54 1.3-1.54Zm-.16-7.65 1.66 1.1-1.66-1.1Zm6.2-1.88.76-1.85-.75 1.85Zm1.37 2.48L39.92 27V27l1.5 1.32Zm-1.99-.05-1.23 1.57.01.02h.02l1.2-1.59Zm-3.51 1.05L34.2 28.3l1.72 1.02Zm-.1 4.2 1.24-1.56-1.24 1.57Zm5.74-.05-1.43 1.4.01.01 1.42-1.41Zm-1.32 2.47.82 1.82h.01l-.83-1.82Zm-2.5.7v-2a3.6 3.6 0 0 1-2.44-.8L34 35.37l-1.28 1.54a7.6 7.6 0 0 0 5 1.73v-2ZM34 35.37l1.29-1.53a2.37 2.37 0 0 1-.87-1.98h-4c0 2.01.76 3.75 2.3 5.05L34 35.37Zm-1.58-3.5h2c0-.86.3-1.86 1.08-3.05l-1.66-1.1-1.67-1.11a9.49 9.49 0 0 0-1.75 5.25h2Zm1.42-4.15 1.67 1.1c.85-1.3 1.56-1.55 2.08-1.55v-4c-2.33 0-4.12 1.38-5.42 3.34l1.67 1.1Zm3.75-2.45v2c.36 0 .91.1 1.7.42l.76-1.85.74-1.86a8.68 8.68 0 0 0-3.2-.7v2Zm2.46.57-.76 1.85a3.91 3.91 0 0 1 .66.35c.01.01-.04-.04-.1-.15-.06-.12-.1-.27-.1-.45h4c0-1-.5-1.78-1.06-2.3a6.13 6.13 0 0 0-1.89-1.15l-.75 1.85Zm1.7 1.6h-2a.73.73 0 0 1 .17-.45l1.49 1.33 1.49 1.33c.54-.6.85-1.36.85-2.2h-2Zm-.34.88L39.92 27a.81.81 0 0 1 .56-.27v4c.93 0 1.8-.36 2.44-1.09l-1.5-1.32Zm-.94.41v-2a1.04 1.04 0 0 1 .33.06l-.04-.02a1.7 1.7 0 0 1-.14-.1l-1.2 1.6-1.2 1.6c.51.39 1.3.86 2.25.86v-2Zm-1.05-.46 1.23-1.57c-.9-.72-2.04-.9-3.06-.9v4c.29 0 .47.02.57.05.1.03.08.04.03 0l1.23-1.58Zm-1.83-.47v-2c-.94 0-1.67.46-2.15.9-.49.43-.9 1-1.25 1.6l1.72 1.02 1.72 1.02a4.98 4.98 0 0 1 .5-.68c.08-.07-.11.14-.54.14v-2Zm-1.68 1.52-1.73-1.02a7.17 7.17 0 0 0-1.14 3.56h4c0-.2.1-.68.6-1.53l-1.73-1.01Zm-.87 2.54h-2a4 4 0 0 0 1.53 3.24l1.24-1.57 1.24-1.57-.02-.01.02.02c0 .01 0 .01 0 0l-.01-.1h-2Zm.77 1.67-1.24 1.57c.92.73 2.04 1 3.15 1v-4c-.47 0-.63-.1-.67-.14l-1.24 1.57Zm1.91.57v2c.92 0 1.81-.33 2.59-.74l-.93-1.77-.93-1.77c-.25.13-.43.2-.57.24-.13.05-.18.04-.16.04v2Zm1.66-.51.93 1.77c.3-.16.5-.26.64-.31l.05-.02-.1.02-.28.02v-4c-.53 0-1.02.2-1.2.28-.3.12-.62.28-.97.47l.93 1.77Zm1.24-.52v2a.73.73 0 0 1-.28-.06.71.71 0 0 1-.22-.15l1.43-1.4 1.43-1.39c-.63-.64-1.45-1-2.36-1v2Zm.93.4-1.42 1.41a.63.63 0 0 1-.12-.19.83.83 0 0 1-.07-.32h4c0-.93-.38-1.72-.98-2.32l-1.41 1.42Zm.4.9h-2c0-.25.06-.45.13-.57l.08-.12-.23.16c-.13.08-.3.18-.54.28l.84 1.82.83 1.82c.66-.3 1.3-.67 1.8-1.13a3.08 3.08 0 0 0 1.08-2.26h-2Zm-1.72 1.57-.83-1.82a4.7 4.7 0 0 1-1.68.52v4c1.07 0 2.22-.37 3.33-.88l-.82-1.82Zm4.26-8.53-1.6-1.21 1.6 1.21Zm6.94-1.39.88-1.8-.88 1.8Zm.28 4.29-1.14-1.65 1.14 1.65Zm-2.27 1.15.8 1.83h.01l-.81-1.83Zm-3.4 1.5-.8-1.83-2.57 1.13 1.9 2.06 1.47-1.36Zm5.04.5-1.02-1.73 1.02 1.73Zm.7 2.4.79 1.84-.79-1.84Zm-5.94-5.46-1.9-.61-1.36 4.2 4.05-1.76-.8-1.83Zm2.27-.98.79 1.84h.01l.02-.02-.82-1.82Zm2.17-1.14 1.09 1.68 2.76-1.8-2.87-1.62-.98 1.74Zm-1.5 8.18v-2c-1.28 0-2.15-.3-2.74-.75l-1.2 1.6-1.2 1.6a8.38 8.38 0 0 0 5.14 1.55v-2Zm-3.94-1.15 1.2-1.6c-.58-.43-.9-1-.9-1.98h-4c0 2.1.81 3.92 2.5 5.18l1.2-1.6Zm-1.7-3.58h2c0-1.33.35-2.33.94-3.1l-1.6-1.22-1.59-1.2a8.92 8.92 0 0 0-1.75 5.52h2Zm1.35-4.32 1.59 1.22c.6-.8 1.35-1.18 2.43-1.18v-4a6.8 6.8 0 0 0-5.61 2.75l1.59 1.21Zm4.02-1.96v2c.97 0 1.62.16 2.04.37l.88-1.8.87-1.8a8.62 8.62 0 0 0-3.79-.77v2Zm2.92.57-.88 1.8c.26.12.33.22.35.25.01.02.05.08.05.27h4a4.43 4.43 0 0 0-2.64-4.12l-.88 1.8Zm1.52 2.32h-2v-.03.01c-.03.04-.12.17-.38.34l1.14 1.65 1.14 1.64c1.15-.8 2.1-2 2.1-3.6h-2Zm-1.24 1.97-1.14-1.64c-.2.14-.79.45-1.94.96l.81 1.83.81 1.83a17.5 17.5 0 0 0 2.6-1.34l-1.14-1.64Zm-2.27 1.15-.8-1.83-3.4 1.5.8 1.83.8 1.83 3.4-1.5-.8-1.83Zm-3.4 1.5-1.47 1.36a5.05 5.05 0 0 0 1.93 1.3l.71-1.87.71-1.87c-.17-.07-.3-.16-.41-.27l-1.47 1.35Zm1.17.79-.71 1.87c.72.28 1.5.4 2.28.4v-4c-.4 0-.67-.07-.86-.14l-.71 1.87Zm1.57.26v2c1.18 0 2.31-.24 3.31-.83l-1.02-1.72-1.01-1.72c-.25.14-.65.27-1.28.27v2Zm2.3-.55 1.01 1.72c.21-.12.35-.19.43-.22h.04a.7.7 0 0 1-.14 0v-4c-.9 0-1.73.4-2.36.77l1.02 1.73Zm1.34-.5v2c.05 0-.27.02-.6-.3a1.2 1.2 0 0 1-.35-.63v-.05h4a3 3 0 0 0-.87-2.2 3.07 3.07 0 0 0-2.18-.82v2Zm1.05 1.02h-2c0-.06 0-.13.04-.2.02-.06.05-.1.05-.09 0 0-.05.05-.14.1-.1.07-.24.15-.43.23l.8 1.84.78 1.84c1.37-.6 2.9-1.73 2.9-3.72h-2Zm-1.69 1.88L51 34.02c-.68.3-1.41.44-2.2.44v4c1.31 0 2.58-.25 3.78-.76l-.79-1.84Zm-3.27-7.96v-2c-1.12 0-2.15.39-2.97 1.16l1.37 1.46 1.37 1.46c.06-.06.1-.08.23-.08v-2Zm-1.6.62-1.37-1.46a6.33 6.33 0 0 0-1.6 2.73l1.9.6 1.9.62c.2-.64.42-.92.54-1.03l-1.37-1.46Zm-1.07 1.88.8 1.83 2.26-.97-.8-1.84-.78-1.84-2.28.98.8 1.84Zm2.27-.98.82 1.82c.96-.43 1.78-.86 2.44-1.28l-1.1-1.68-1.08-1.68c-.42.28-1.05.6-1.9 1l.82 1.82Zm2.17-1.14.98-1.74a5.53 5.53 0 0 0-2.75-.64v4c.51 0 .73.09.78.12l.99-1.74Zm7.82 8.11.41-1.95-2.4-.51-.01 2.46h2Zm-.01 4.12h-2 2Zm-2.77-3.76-2-.02 2 .02Zm0-3.99 2-.03-2 .03Zm-.14-3.75-2 .14 2-.14Zm.22-3.42-1.68-1.08-.01.01 1.7 1.07Zm2.5.62 2 .2v-.2h-2Zm0 .1-2-.2-.38 3.85 3.36-1.9-.98-1.75Zm1.35-.56.52 1.93h.02l-.54-1.93Zm4.76 1.77 1.76-.94v-.01l-1.76.95Zm-.46 7.51-1.51-1.31 1.5 1.31Zm-4.22-6.48.81 1.83h.02v-.01l-.83-1.82Zm-1.32.9-1.34-1.5-.72.64.06.97 2-.12Zm.12 4.16h-2v1.45l1.38.45.62-1.9Zm3.39-.45-1.6-1.2 1.6 1.2Zm.38-3.68 1.95-.45v-.01l-1.95.46Zm-1.98 7.12v-2c-.42 0-.89-.05-1.41-.16l-.41 1.95-.41 1.96c.75.16 1.5.25 2.23.25v-2Zm-1.82-.2-2-.01-.01 4.12h4V36.4h-2Zm-.01 4.11h-2c0-.03 0-.11.05-.22.04-.1.1-.19.16-.24l1.4 1.43 1.39 1.43a3.3 3.3 0 0 0 1-2.4h-2Zm-.4.97-1.4-1.43a.7.7 0 0 1 .24-.15.5.5 0 0 1 .17-.04v4c.86 0 1.71-.29 2.39-.95l-1.4-1.43Zm-1 .38v-2a.5.5 0 0 1 .17.04c.1.04.17.1.23.15l-1.4 1.43-1.39 1.43c.68.66 1.53.95 2.4.95v-2Zm-1-.38 1.4-1.43a.74.74 0 0 1 .21.46h-4c0 .9.33 1.74 1 2.4l1.4-1.43Zm-.39-.97h2l.02-3.75-2-.01-2-.02a1180 1180 0 0 0-.02 3.78h2Zm.02-3.76 2 .01c.02-1.63.02-2.98 0-4.03l-2 .03-2 .03c.02 1 .02 2.32 0 3.94l2 .02Zm0-3.99 2-.03a69.75 69.75 0 0 0-.14-3.86l-2 .14-2 .14c.08 1 .12 2.21.14 3.64l2-.03Zm-.14-3.75 2-.14a288.03 288.03 0 0 0-.15-1.98c0-.01 0-.11-.02-.21l-.02-.1-.08-.26a2 2 0 0 0-.2-.39 2 2 0 0 0-3.36-.02c-.17.27-.23.5-.25.57l-.06.33a2.17 2.17 0 0 0 0 .2h4l-.01.09v.1c-.01.03-.02.16-.07.33-.02.06-.08.3-.25.57a2 2 0 0 1-2.02.88c-.9-.16-1.31-.85-1.35-.9a2 2 0 0 1-.19-.39l-.07-.25-.02-.1-.01-.08.02.32.12 1.57 2-.14Zm-.15-2h2c0-.25.05-.34.07-.36l-1.7-1.06-1.69-1.07a4.64 4.64 0 0 0-.68 2.5h2Zm.37-1.42 1.69 1.08c0-.01-.05.07-.18.14a.71.71 0 0 1-.34.1v-4c-1.24 0-2.23.63-2.85 1.6l1.68 1.08Zm1.17-.68v2c-.04 0-.12 0-.23-.05a.72.72 0 0 1-.23-.15l1.41-1.42 1.42-1.41a3.29 3.29 0 0 0-2.37-.97v2Zm.95.38-1.41 1.42a.73.73 0 0 1-.2-.5h4c0-.9-.35-1.7-.97-2.33l-1.42 1.41Zm.39.92-2-.2v.1l1.99.2 1.99.2v-.1l-1.98-.2Zm-.01.1.98 1.74c.32-.18.62-.3.89-.37l-.52-1.93-.52-1.93c-.63.17-1.24.42-1.82.75l.99 1.74Zm1.35-.56.54 1.92c.29-.08.56-.11.83-.11v-4c-.65 0-1.28.09-1.9.26l.53 1.93Zm1.37-.2v2c.49 0 .8.1 1 .23.21.12.43.32.63.7l1.76-.96 1.76-.95a5.68 5.68 0 0 0-2.14-2.25 5.92 5.92 0 0 0-3-.76v2Zm3.4 1.97-1.77.95c.32.6.56 1.53.56 2.9h4c0-1.78-.3-3.42-1.04-4.8l-1.76.95Zm.79 3.85h-2c0 1.07-.3 1.8-.77 2.35l1.5 1.31 1.52 1.31a7.38 7.38 0 0 0 1.75-4.97h-2Zm-1.26 3.66-1.52-1.3c-.48.55-1.1.87-2.1.87v4c2.03 0 3.8-.73 5.13-2.26l-1.51-1.3Zm-2.93-6.78v-2c-.75 0-1.46.18-2.13.49l.84 1.81.84 1.82c.2-.1.35-.12.45-.12v-2Zm-1.3.3-.8-1.82c-.67.3-1.28.72-1.85 1.22l1.34 1.5 1.33 1.48c.33-.29.6-.46.8-.55l-.81-1.83Zm-1.31.9-2 .1c.08 1.35.12 2.7.12 4.06h4c0-1.43-.04-2.86-.13-4.29l-2 .12Zm.12 4.16-.62 1.9c.79.26 1.6.4 2.41.4v-4c-.37 0-.76-.07-1.17-.2l-.62 1.9Zm1.8.3v2c1.22 0 2.39-.48 3.19-1.54l-1.6-1.2-1.6-1.2s0-.02.03-.03a.28.28 0 0 1 .05-.04h.02a.5.5 0 0 1-.1 0v2Zm1.59-.75 1.6 1.21c.67-.9.9-1.96.9-3h-4c0 .23-.02.38-.05.47a.36.36 0 0 1-.04.12l1.59 1.2Zm.5-1.8h2c0-.89-.03-1.73-.17-2.33l-1.95.45-1.95.45v.03l.02.08.03.3.02 1.03h2Zm-.12-1.88 1.95-.46a3.82 3.82 0 0 0-1.03-1.9 3.13 3.13 0 0 0-2.2-.87v4c-.04 0-.14 0-.25-.05a.94.94 0 0 1-.32-.2c-.16-.15-.14-.24-.1-.06l1.95-.46Zm10.33-1.7 1.94-.47-.3-1.28-1.3-.22-.34 1.97Zm-1.8 1.65.84-1.82h-.01l-.83 1.82Zm2.7 1.43-1.17 1.62 1.17-1.62ZM73 35.9l.97 1.75-.97-1.75Zm-5.65.3-.7 1.88.7-1.88Zm1.03-2.38-.63 1.9.63-1.9Zm3.41-.53 2 .02v-.02h-2Zm-1.42-1.14-.8 1.82.8-1.82Zm-2.67-1.33-1.14 1.64.01.01 1.13-1.65Zm.73-5.16-.62-1.9.62 1.9Zm5.33-.15-.95 1.75.01.01.94-1.76Zm-.31 3.11v-2c-.07 0 .1-.01.34.15a1 1 0 0 1 .4.55l-1.94.47-1.95.46c.16.67.53 1.34 1.2 1.8.64.45 1.35.57 1.95.57v-2Zm-1.2-.83.34-1.97a6.8 6.8 0 0 0-1.17-.1v4c.17 0 .33 0 .48.04l.35-1.97Zm-.83-.07v-2c-.86 0-1.68.05-2.35.23a3.2 3.2 0 0 0-1.2.6 2.37 2.37 0 0 0-.88 1.83h4a1.67 1.67 0 0 1-.58 1.26c-.21.17-.36.2-.29.17.14-.04.53-.1 1.3-.1v-2Zm-2.43.66h-2c0 .7.31 1.2.52 1.46.22.27.47.48.67.62.4.3.91.56 1.44.8l.83-1.82.83-1.82c-.45-.2-.67-.34-.75-.4-.05-.03.02.01.12.13.08.11.34.47.34 1.03h-2Zm1.46 1.06-.84 1.82c1.34.61 2.08 1.02 2.37 1.23l1.17-1.62 1.18-1.61a19.57 19.57 0 0 0-3.04-1.64l-.84 1.82Zm2.7 1.43-1.17 1.62c.66.48.64.74.64.78h4c0-1.75-1-3.08-2.3-4.02l-1.17 1.62Zm1.47 2.4h-2c0 .25-.06.39-.11.48-.06.09-.18.24-.48.4L73 35.9l.98 1.75a4.86 4.86 0 0 0 2.64-4.38h-2Zm-1.62 2.63-.96-1.75c-.5.27-1.22.47-2.24.47v4c1.51 0 2.93-.29 4.17-.97l-.97-1.75Zm-3.2.72v-2c-.68 0-1.26-.11-1.75-.3l-.7 1.88-.7 1.88c1 .37 2.05.54 3.15.54v-2Zm-2.45-.42.7-1.87c-.15-.06-.25-.11-.31-.15-.06-.03-.06-.05-.04-.02l.1.16a.6.6 0 0 1 .04.22h-4c0 1.95 1.46 3.03 2.81 3.54l.7-1.88Zm-1.51-1.66h2c0 .02 0 .14-.07.3-.07.16-.18.33-.34.47-.31.26-.56.22-.4.22v-4c-.62 0-1.47.12-2.18.72a2.92 2.92 0 0 0-1.01 2.29h2Zm1.2-1.01v2l.14.02c.14.03.32.09.57.17l.63-1.9.63-1.9a6.51 6.51 0 0 0-1.97-.4v2Zm1.34.29-.63 1.9c.63.2 1.33.4 1.98.4v-4l-.15-.03a5.63 5.63 0 0 1-.57-.17l-.63 1.9Zm1.35.3v2c.76 0 1.58-.08 2.29-.36.37-.15.81-.4 1.17-.83.4-.46.6-1.03.6-1.62l-2-.02-2-.03c0-.31.12-.64.34-.9.18-.22.37-.3.4-.31l-.17.03c-.14.02-.35.03-.63.03v2Zm2.06-.83h2c0-1.12-.74-1.82-1.1-2.1a6.85 6.85 0 0 0-1.52-.88l-.8 1.84-.8 1.83a5.31 5.31 0 0 1 .62.32c.01.02-.07-.04-.16-.18-.1-.15-.24-.44-.24-.83h2Zm-1.42-1.14.8-1.83c-1.42-.63-2.12-1-2.33-1.14l-1.14 1.64-1.13 1.65c.57.4 1.64.9 3 1.5l.8-1.82Zm-2.67-1.33 1.15-1.63c-.54-.39-.57-.64-.57-.8h-4a4.9 4.9 0 0 0 2.28 4.07l1.14-1.64Zm-1.42-2.43h2c0-.3.08-.41.11-.46.05-.07.21-.22.67-.37l-.63-1.9-.62-1.9a4.66 4.66 0 0 0-3.53 4.63h2Zm2.15-2.73.62 1.9a11.5 11.5 0 0 1 3.22-.32v-4a15 15 0 0 0-4.46.52l.62 1.9Zm3.84-.42v2c.25 0 .42.02.53.04.1.02.1.03 0-.02l.96-1.75.95-1.76a5.17 5.17 0 0 0-2.44-.5v2Zm1.49.27-.94 1.76a.86.86 0 0 1-.34-.35c-.07-.14-.05-.2-.05-.11h4c0-1.15-.46-2.4-1.73-3.07l-.94 1.77Zm.67 1.3h-2c0 .22-.02.36-.03.44-.02.08-.03.06.02-.03.05-.1.17-.27.4-.41.24-.15.47-.19.63-.19v4a2.8 2.8 0 0 0 2.5-1.5c.39-.74.48-1.6.48-2.31h-2Z" mask="url(#b)"/><path fill="#fff" d="M14 61.33a8 8 0 0 1 8-8h9a8 8 0 0 1 8 8v9a8 8 0 0 1-8 8h-9a8 8 0 0 1-8-8v-9Z"/><path fill="#000" d="m28.78 53.9-.37.01a.6.6 0 0 0-.29.1l-.37.21-.38.21a2.6 2.6 0 0 1-1.21.36l-.38.02h-.37c-.3.02-.61 0-.92-.04l-.37-.05-.38-.05-.81-.13-.38-.08-.37-.07-.09-.03c-.15.15-.32.29-.54.36-.33.11-.64.09-.9.03l-.77-.19c-.07-.02-.11-.01-.15 0l-.36.15-.35.14c-.18.07-.37.16-.54.26l-.33.2-.34.2-.67.4-.35.2-.3.17-.07.39-.08.42c-.06.36-.17.7-.33 1.02l-.17.33-.17.33c-.07.15-.13.3-.17.47l-.19.72c-.08.31-.2.62-.34.92l-.19.37-.14.25.16.3.22.38c.23.43.33.92.22 1.43l-.08.37-.07.38c-.05.27-.12.55-.2.82l-.22.75v.01l.01.03.18.38.19.37c.27.57.23 1.17-.07 1.7l-.22.37-.16.25.15.25.21.38c.26.47.33 1 .17 1.54l-.11.39-.11.34.18.3.2.34c.21.32.35.68.42 1.07l.08.4.06.32.31.17.36.2.71.41.32.2.3.19c.38.22.66.53.88.89l.22.36.23.36.03.05.38.13.39.1c.14.05.28.07.43.07l.4-.02.39-.01c.3-.02.6-.01.9.02l.76.08c.02 0 .07 0 .16-.05l.38-.21.37-.2c.33-.18.7-.29 1.07-.28l.4.06.37.08.37.08c.16.04.31.05.47.04l.37-.01.38-.03c.2-.01.42-.04.63-.08l.75-.14c.51-.1 1 .02 1.43.27l.37.21.3.17.25-.12.36-.17c.42-.2.88-.27 1.34-.2l.39.05.4.06c.14.02.28.01.42-.02l.4-.08.32-.08.2-.35.2-.39c.16-.3.35-.58.56-.83l.23-.27.23-.29c.14-.15.26-.31.37-.48l.2-.3.6-.9.19-.3.2-.32c.1-.16.2-.34.28-.53l.16-.36.14-.33-.15-.37-.15-.38a3.4 3.4 0 0 1-.25-1.07l-.02-.37-.02-.38c-.03-.52.15-.99.42-1.38l.27-.38.23-.33-.1-.27-.12-.37a2.4 2.4 0 0 1-.08-1.28l.07-.37.08-.38v-.02c0-.01 0-.04-.03-.07l-.39-.75a2.7 2.7 0 0 1-.32-1.17l-.01-.74-.04-.68-.03-.36-.02-.35-.05-.74-.03-.38-.03-.4a2.74 2.74 0 0 0-.1-.56l-.12-.38-.1-.37-.36-.18-.36-.2-.72-.4-.32-.2-.32-.19c-.35-.2-.63-.49-.86-.81l-.25-.35-.11-.15-.2.05-.42.1c-.44.12-.9.13-1.34-.02l-.72-.23a29.1 29.1 0 0 0-.71-.22l-.38-.11-.37-.12c-.15-.04-.3-.06-.43-.05h-.38Zm-7.67-1.6c.04-.05.12-.16.25-.26.06-.04.2-.15.42-.2.27-.04.61.01.88.26a1 1 0 0 1 .26.4h.03l.37.08.69.1.37.06.38.05.58.03.75-.02c.07 0 .16-.03.29-.1l.37-.21.38-.22a2.6 2.6 0 0 1 1.21-.36h.38l.37-.02c.37-.01.73.03 1.07.14l.38.1.37.12.76.24.35.12.36.11c.03.01.1.02.23-.01l.86-.22.46-.06a1.62 1.62 0 0 1 1.27.69l.25.35.26.35c.1.14.2.22.27.27l.32.19.32.2.63.35.36.2.37.19c.47.25.81.65.97 1.18l.1.38.11.39c.1.32.16.65.18.98l.03.38.03.38.05.74.03.36.03.36.04.77.01.73c0 .07.03.17.1.3l.39.76c.22.43.3.91.2 1.41l-.15.75c-.01.07 0 .14.02.23l.13.37.13.38c.2.6.06 1.18-.26 1.65l-.53.75a.5.5 0 0 0-.07.1v.01l.05.75c0 .13.04.28.1.45l.16.37.15.39c.2.48.2 1.01-.01 1.51l-.16.36-.15.35c-.13.28-.27.55-.43.8l-.2.32-.2.31-.42.63-.2.3-.2.3c-.15.23-.31.45-.5.66l-.23.28-.23.28c-.1.12-.22.28-.32.48l-.2.38-.2.38c-.26.5-.7.86-1.27.98l-.78.18c-.38.08-.76.1-1.15.04l-.4-.06-.4-.05c-.06-.01-.12 0-.18.03l-.36.17-.37.17c-.56.27-1.15.21-1.66-.08l-.75-.43-.06-.03-.75.14c-.3.06-.59.09-.88.1l-.75.05c-.35.02-.7 0-1.03-.09l-.75-.17v.01c-.02 0-.03 0-.05.02l-.37.2-.38.21c-.4.22-.85.34-1.33.29l-.38-.04-.38-.04c-.2-.02-.41-.03-.63-.02l-.78.03a3.3 3.3 0 0 1-1.1-.14l-.76-.24c-.5-.15-.9-.48-1.16-.91l-.22-.37-.23-.36a.65.65 0 0 0-.2-.23l-.62-.38-.65-.36-.35-.2-.36-.2c-.5-.27-.83-.72-.94-1.28l-.07-.4-.08-.4a1.14 1.14 0 0 0-.15-.39l-.42-.67a1.85 1.85 0 0 1-.2-1.54l.12-.4.11-.37-.2-.38-.21-.37a1.71 1.71 0 0 1 0-1.74l.22-.37.18-.3-.14-.27-.18-.38a2.02 2.02 0 0 1-.13-1.46l.22-.75c.06-.22.12-.45.16-.67l.08-.38.07-.37v-.01l-.02-.06-.2-.38-.22-.37a1.76 1.76 0 0 1-.03-1.67l.18-.37.19-.37c.1-.19.15-.36.2-.52l.09-.35.1-.36c.07-.31.18-.61.33-.9l.33-.65c.06-.12.12-.26.15-.46l.07-.42.08-.42.11-.4c.15-.37.42-.69.79-.9l.34-.21.36-.2.67-.4.32-.2.34-.2c.26-.15.54-.29.82-.4l.35-.14.36-.14c.44-.18.9-.2 1.35-.1l.4.1.08.02.16-.25.13-.19Z"/><path stroke="#000" stroke-linecap="round" stroke-width="2" d="M21 70.47c1.06 2.94 4.26 4.94 5.23 3.24 1.62-2.86 5.2-14.66 5.77-16.38"/><path fill="#000" d="M92 95.24a.4.4 0 0 0-.04.04c-.08.2-.14.41-.17.63-.1.74-.23 1.47-.38 2.2-.14.68-.32 1.35-.52 2.02h.84c.1-.35.2-.7.27-1.05l.3-1.43.14.5a19.63 19.63 0 0 1 .44 1.97h.83c-.13-.8-.3-1.6-.49-2.4-.2-.84-.41-1.67-.64-2.48a1.02 1.02 0 0 0-.09-.07.35.35 0 0 0-.05-.02.31.31 0 0 0-.05-.02.77.77 0 0 0-.21.01l-.1.03a.93.93 0 0 0-.08.07Zm22.83-53.12-.06-.18c-.2-.47-.44-.93-.7-1.38-.38-.69-.9-1.27-1.53-1.76-.6-.46-1.24-.88-1.91-1.25-.67-.37-1.37-.67-2.1-.9a61.25 61.25 0 0 1-2.15-.76l-1.63-.56a23.65 23.65 0 0 1-2.8-1.15c-.45-.28-.88-.58-1.28-.9-.11-.1-.23-.17-.34-.24a4.21 4.21 0 0 1-1.51-1.61c-.23-.5-.37-1-.44-1.54a8.56 8.56 0 0 0-.36-1.6c-.03-.1-.05-.19-.06-.29a.54.54 0 0 0-.19-.39c.15-.13.28-.3.38-.47.19-.36.35-.73.47-1.12l.47-1.45a33.46 33.46 0 0 1 .58-1.77l.1-.4a3.4 3.4 0 0 0 1.42.3c.25-.03.46-.13.64-.3.41-.37.61-.83.61-1.4 0-.5.02-1.02.05-1.54.02-.57-.13-1.1-.46-1.55a1.54 1.54 0 0 0-1.52-.68v-.01c.12-.52.18-1.05.2-1.58l.1-.9a3.44 3.44 0 0 0-.34-1.88c-.16-.4-.27-.81-.33-1.25-.04-.26-.13-.5-.28-.72a4.5 4.5 0 0 0-.96-1.05 2.6 2.6 0 0 0-.72-.4c-.38-.15-.76-.27-1.16-.38a2.4 2.4 0 0 1-.4-.15c-.37-.18-.75-.36-1.14-.53a.7.7 0 0 0-.2-.05c-.63-.05-1.25-.13-1.87-.25l-.45-.05a4.77 4.77 0 0 0-1.56.08c-.46.1-.92.15-1.38.17a11.23 11.23 0 0 0-1.98.3 5.7 5.7 0 0 1-1.87.16 1.8 1.8 0 0 0-1.6.6c-.18.12-.34.25-.49.4l-.29.3c-.32.38-.62.77-.88 1.2-.07.1-.13.22-.17.35-.11.33-.24.65-.38.96-.21.48-.32.98-.33 1.5 0 .14 0 .28-.02.42-.05.55 0 1.1.13 1.62.09.35.24.67.46.95.1.14.2.27.28.41-.26.02-.52.09-.78.22-.17.1-.3.21-.42.37-.3.44-.42.92-.36 1.46.04.38.09.75.15 1.13.1.51.28.99.56 1.42.3.46.7.76 1.2.9.1.03.2.03.3.02.15-.02.28-.06.41-.12a30.9 30.9 0 0 0 .14 1.53 5.65 5.65 0 0 0 .68 2.18l.76 1.36c.2.35.4.69.65 1.01-.1.1-.13.23-.1.4l.01.12a11.2 11.2 0 0 1-.19 2.32c-.07.52-.26 1-.57 1.41a.56.56 0 0 1-.13.13 7.68 7.68 0 0 1-1.45.81l-.17.06c.04-.02.02-.01-.04 0a34.58 34.58 0 0 1-2.62.83 23.68 23.68 0 0 0-3.05.96c-.74.27-1.49.53-2.24.77-.76.24-1.5.53-2.23.87-.72.34-1.33.81-1.84 1.43-.25.31-.5.63-.73.96-.28.4-.52.84-.72 1.29-.32.72-.57 1.47-.75 2.24-.18.78-.3 1.57-.38 2.36l-.09 1.17c-.05.76-.07 1.52-.07 2.28-.13.11-.25.26-.34.42a22.42 22.42 0 0 0-1.71 4.41c-.18.67-.34 1.33-.5 2-.08.38-.19.75-.32 1.12-.24.67-.44 1.36-.6 2.05-.15.17-.28.36-.39.57l-1.08 2.08c-.36.7-.7 1.4-1.02 2.11-.13.28-.24.56-.34.84l-.81 2.22c-.17.45-.3.9-.41 1.37-.19.79-.35 1.58-.5 2.38-.14.77-.33 1.54-.57 2.3-.23.73-.42 1.48-.57 2.24-.15.8-.33 1.58-.51 2.36a16.96 16.96 0 0 1-.81 2.5.45.45 0 0 0 0 .22c-.17.26-.32.53-.47.81a.65.65 0 0 1-.17.22 14.43 14.43 0 0 1-1.65 1.15l.02-.01c-.11.08-.24.16-.38.23l-.94.48a6.53 6.53 0 0 0-1.8 1.34c-.42.4-.87.78-1.34 1.12-.55.4-.9.92-1.03 1.57a.77.77 0 0 0 .01.4c.17.54.54.84 1.1.9.45-.03.85-.18 1.23-.43a9.8 9.8 0 0 1 1.14-.65c-.15.43-.29.87-.42 1.3-.2.62-.3 1.24-.33 1.87-.11.31-.2.63-.26.96-.03.33-.08.64-.16.95a46.9 46.9 0 0 1-.48 1.92 42.65 42.65 0 0 0-.5 1.96 4.9 4.9 0 0 0-.04.47c-.04.54.09 1.04.37 1.5.3.49.73.75 1.3.78.09 0 .17 0 .25-.03l.24-.13c.12.36.38.58.79.69a1 1 0 0 0 1-.43c.11-.14.21-.3.3-.45.14.28.38.46.73.55.08.02.15.03.23.03.54.04.95-.18 1.24-.64.23-.37.42-.76.57-1.16l.17.12a1.1 1.1 0 0 0 .2.03l.13-.01a.83.83 0 0 1 .16-.04c.07 0 .14-.01.2-.04.07-.02.12-.06.17-.1.27-.19.46-.44.57-.74a145.94 145.94 0 0 0 .32-.95c.24-.57.46-1.15.68-1.73a65.35 65.35 0 0 1 1.2-3.08c.31-.84.59-1.68.8-2.53.29-1.07.3-2.13.02-3.2l.02-.13.04-.27a.41.41 0 0 0 .05-.03c.1-.23.18-.47.26-.72a14.93 14.93 0 0 1 1.8-3.82c.9-1.37 1.74-2.79 2.51-4.23.2-.37.43-.7.7-1 .9-1 1.64-2.1 2.2-3.31a21.82 21.82 0 0 0 1.72-5.41c.21-1.32.55-2.59 1.02-3.81l.02-.01a.6.6 0 0 0 .08-.1.71.71 0 0 0 .06-.09l.01-.05v-.18a20.7 20.7 0 0 1 .09-.24c.38-.73.77-1.45 1.17-2.17a20.3 20.3 0 0 0 1.49-3.35c.11.42.24.83.38 1.24.43 1.3.87 2.66 1.31 4.08a34.52 34.52 0 0 1 1.02 4.14c.07.48.12.97.13 1.45a6.1 6.1 0 0 1-.16 1.58 20.9 20.9 0 0 0-.53 3.37c-.03.4-.01.8.07 1.2a16.55 16.55 0 0 1 .29 3.23.93.93 0 0 0-.06.08.4.4 0 0 0 0 .05l-.02.05v.05a.47.47 0 0 0 0 .1 2.39 2.39 0 0 0 .03.08.34.34 0 0 0 .04.07c-.17 1.1-.4 2.19-.68 3.26a49.3 49.3 0 0 0-.97 4.38c-.28 1.6-.55 3.2-.8 4.82-.23 1.4-.51 2.88-.85 4.45a109.14 109.14 0 0 0-1.1 5.83h.8a141.7 141.7 0 0 1 .87-4.66 253.82 253.82 0 0 0 1-5.28l.01-.03.15-.85c.3-1.6.58-3.2.87-4.81.15-.8.33-1.57.54-2.35.4-1.44.7-2.9.89-4.4.8.25 1.6.38 2.45.4a16.78 16.78 0 0 1 2.42.25 17.64 17.64 0 0 0 2.18.38.33.33 0 0 0 .34.01l.74.05 1.41.03c1.18 0 2.36.03 3.54.1l1.36.02c1.57.02 3.12-.12 4.66-.42l1.19-.22c1.43-.25 2.84-.58 4.22-.99l.04-.01c.26.61.46 1.24.6 1.9.15.74.29 1.48.4 2.23v.03l.01.04v.01a33.79 33.79 0 0 0 .29 1.7c.37 1.54.64 3.1.82 4.67a282.91 282.91 0 0 1 .62 5.77c.12 1.28.36 2.53.7 3.77.25.88.4 1.77.5 2.67h.8a17.78 17.78 0 0 0-.6-3.32c-.2-.75-.35-1.5-.45-2.27-.2-1.56-.36-3.11-.52-4.67a42.03 42.03 0 0 0-.66-4.43 64.65 64.65 0 0 1-.79-4.77 14.24 14.24 0 0 0-1.2-4.18c.1-.49.18-.98.21-1.49.12-1.55.07-3.1-.13-4.66-.08-.58-.1-1.16-.08-1.75.07-1.56.3-3.12.7-4.66.38-1.53.9-3.03 1.54-4.48l.19-.5a12.57 12.57 0 0 0 .55-1.91c.17.49.38.97.61 1.44l1.05 2.13a14.4 14.4 0 0 0 1.29 2.15c.12.42.22.84.3 1.27a54.37 54.37 0 0 0 .68 3.26 30.17 30.17 0 0 0 1.03 3.22c.3.74.62 1.48.96 2.2l1 2.14c.34.7.74 1.34 1.22 1.94.39.53.81 1.04 1.26 1.52.52.56 1 1.15 1.45 1.77.47.64.85 1.33 1.15 2.07l.15.36c.18.41.35.83.5 1.25.13.33.27.66.42.98a.7.7 0 0 0 0 .27l.03.3a30.15 30.15 0 0 0 .11 2.6v.01l.06.38.02.18c.1.54.22 1.07.35 1.6.07.29.15.58.21.88.18.77.39 1.53.64 2.28.17.5.32 1.01.47 1.53.2.76.45 1.52.73 2.26.23.61.65.97 1.24 1.08a1.1 1.1 0 0 0 .87-.53l.12.28c.13.3.28.58.45.85.24.39.57.66 1 .82.24.07.48.08.74.03.28-.05.48-.17.6-.36l.04.06c.2.26.46.45.77.57.1.03.2.04.3.03.63-.12.96-.5 1-1.17v-.88c.23.16.5.23.8.2.08.01.16 0 .23-.01a.61.61 0 0 0 .43-.28c.22-.35.32-.73.32-1.15-.01-.63-.07-1.26-.16-1.88v.01c-.04-.33-.1-.65-.19-.97-.22-.86-.46-1.71-.72-2.56-.18-.58-.34-1.16-.5-1.74-.15-.6-.33-1.21-.52-1.8l.2.06c.1.03.18.08.26.13.67.46 1.4.76 2.19.9.07 0 .14-.02.21-.04.67-.24.9-.7.7-1.38a1.36 1.36 0 0 0-.28-.5 12.64 12.64 0 0 0-1.86-1.75h.01a13.4 13.4 0 0 0-1.32-1.03c-.4-.27-.84-.5-1.3-.66-.51-.18-1-.42-1.45-.7a1.77 1.77 0 0 1-.73-.91c-.04-.12-.09-.23-.14-.33a.55.55 0 0 0-.07-.31l-.09-.17c-.19-.41-.35-.83-.5-1.26a72.73 72.73 0 0 1-1.34-4.5c-.2-.77-.37-1.54-.51-2.31-.15-.79-.32-1.56-.52-2.33s-.38-1.54-.56-2.32c-.17-.77-.36-1.54-.56-2.3a13.7 13.7 0 0 0-.81-2.27c-.33-.7-.69-1.4-1.08-2.08a11.8 11.8 0 0 0-1.47-2.04c.02-.26 0-.51-.07-.77-.2-.77-.43-1.52-.68-2.27a70.3 70.3 0 0 0-1.68-4.44c-.24-.58-.52-1.15-.82-1.7a4.41 4.41 0 0 0-.23-.47c-.2-.36-.38-.73-.53-1.1l.02-.21c.02-.77-.02-1.54-.11-2.3a4.04 4.04 0 0 1-.03-.54 3.61 3.61 0 0 0-.12-.92l-.02-.42a8.52 8.52 0 0 0-.41-2.27ZM83.32 56.16Zm10.44-2.32c.27-.04.55-.03.83.02a5.13 5.13 0 0 1 3.82 3.01c.45 1.2.67 2.42.65 3.7-.2-.12-.38-.29-.53-.5a1.24 1.24 0 0 0-.3-.29 42.54 42.54 0 0 0-2.4-1.57c-.82-.5-1.7-.73-2.63-.72 0-.16 0-.32.02-.48.07-.55.12-1.1.17-1.65.04-.53.17-1.04.37-1.52ZM91.39 66.5l-.01.24c0 .55-.03 1.1-.08 1.66a8.03 8.03 0 0 1-.32 1.72.62.62 0 0 1-.22.18l-.66.3c-.26.12-.53.17-.81.16-.14.01-.28 0-.42-.03-.52-.1-1.04-.18-1.57-.22a3.97 3.97 0 0 0-1.64.23 10.8 10.8 0 0 1-.3-2.05c-.03-.7.05-1.35.23-1.97l.82-.13c.7-.12 1.4-.2 2.12-.23.91-.04 1.82-.1 2.73-.18l.03.05.04.1c.03.06.05.11.06.17ZM74.35 37.21h.03-.04v.01h.01ZM56.01 82.74Zm19.83-36.48a5.03 5.03 0 0 1 .11.23 1.67 1.67 0 0 0 .03.14l.01.04c0 .08.02.16.03.23.13.57.24 1.14.34 1.7.12.8.17 1.59.14 2.38a15.78 15.78 0 0 1-.94 4.67c-.28.75-.62 1.47-1.02 2.17s-.81 1.38-1.25 2.04c-.45.68-.97 1.3-1.56 1.86-.35.34-.74.63-1.15.87-.01-.83 0-1.66.05-2.5l.18-2.4c.08-.82.23-1.62.47-2.41.23-.76.49-1.51.78-2.26.24-.6.51-1.2.81-1.78.4-.74.8-1.48 1.22-2.2l.29-.55a9.37 9.37 0 0 1 1.46-2.23Zm-.27 11.06a115.45 115.45 0 0 0-2.19 4.53c-.36.51-.6 1.08-.75 1.7a8.98 8.98 0 0 0-.85-.83.5.5 0 0 0-.05-.08l.19-.16c.58-.5 1.1-1.07 1.57-1.68.5-.63.94-1.3 1.32-2.01.27-.48.52-.97.76-1.47Zm-4.46 5.75.07-.05c.1.18.22.34.37.48l.91.9a65.68 65.68 0 0 1-.38 1.84 6.8 6.8 0 0 0-.23-.18l-.02-.01-.15-.12a3.2 3.2 0 0 1-.47-.44c-.16-.19-.33-.38-.48-.58a26 26 0 0 1-.12-1.55l.5-.29Zm3.7-16.66-.29.44a235.55 235.55 0 0 0-2.08 3.63c-.38.71-.72 1.44-1 2.2-.3.74-.56 1.5-.8 2.27-.23.76-.4 1.54-.48 2.34-.09.8-.16 1.6-.22 2.4a25.35 25.35 0 0 0-.06 3.27l-.15.07c-.64.26-1.23.6-1.8.98-.02-.15-.06-.3-.12-.44v-.46c.02-.79.07-1.57.16-2.35l.24-2.4c.07-.82.25-1.6.55-2.36.28-.75.59-1.48.92-2.2.32-.71.68-1.4 1.07-2.08.4-.66.79-1.32 1.2-1.97.41-.67.9-1.3 1.43-1.88.46-.5.94-.98 1.43-1.46Zm-6.08 4.63-.02.04a13 13 0 0 1 .18-.36c.1.52.17 1.04.2 1.57.02.27.08.5.2.71-.31.63-.6 1.27-.86 1.92a8.85 8.85 0 0 0-.6 1.71 15.8 15.8 0 0 0-.4 2.36 1146.13 1146.13 0 0 1-.25 3.02 5.48 5.48 0 0 1-.26-.74c-.2-.72-.43-1.42-.72-2.1a20 20 0 0 0 .47-1.48c.22-.76.43-1.52.63-2.29.19-.73.4-1.46.6-2.18a16.8 16.8 0 0 1 .85-2.22v-.01.02l-.02.03Zm38.96 39.14v-.03.04-.01Zm25.64-2.34v-.01l.02-.02.01-.01-.02.02-.01.02Zm-17.04-10.87a.5.5 0 0 1-.02-.04v.02l.03.02Zm-1.51-18.9v.02c0 .01 0 .01 0 0v-.02ZM110 47.52c-.05.1-.02.22.09.35.15.18.29.37.41.57.37.6.72 1.2 1.05 1.8a22.1 22.1 0 0 1 1.84 4.46c.23.76.4 1.54.53 2.33.12.8.22 1.6.31 2.39.1.8.13 1.6.12 2.4 0 .58-.03 1.17-.06 1.76a9.3 9.3 0 0 1-3-1.73l-.6-1.05a34.66 34.66 0 0 1-1.83-3.7 9.76 9.76 0 0 1-.64-2.26c-.12-.79-.22-1.58-.3-2.37a24.56 24.56 0 0 1 0-4.96l.2-1.4.51.33c.5.32.95.68 1.37 1.08Zm2.16 2.4.7.76c.55.6 1.05 1.24 1.51 1.91.17.25.31.51.44.78l.96 2.24c.3.72.56 1.46.78 2.21.23.79.35 1.59.37 2.4 0 .6-.02 1.19-.08 1.78-.08.8-.2 1.58-.34 2.36l-.73-.25-.8-.27a23 23 0 0 0 .03-3.6c-.06-.8-.14-1.59-.24-2.37a20.51 20.51 0 0 0-.96-4.1 26.16 26.16 0 0 0-1.64-3.85Zm1.3 15.09a10.4 10.4 0 0 0-.92 1.29c-.07-.3-.12-.59-.17-.88-.13-.74-.29-1.48-.47-2.2a21.81 21.81 0 0 0 2.15 1.04c-.18.25-.38.5-.59.75Zm2.06-13.7a4 4 0 0 1 .03-.49c.37.64.7 1.3.98 1.98.3.73.59 1.47.85 2.21a119.97 119.97 0 0 1 1.01 3.08l-.14.6a69.1 69.1 0 0 0-.5 2.34c-.04.2-.09.4-.16.6l-.05.15.06-.57a7.9 7.9 0 0 0-.14-2.42c-.17-.8-.4-1.6-.67-2.37l-.81-2.23a9.4 9.4 0 0 0-.63-1.34l.01-.09.14-1.01v-.02c.02-.14.03-.29.02-.43Zm-28.4 21.07h-.02.03-.02Zm11.37.03.02.04-.01-.02-.01-.03-.01-.02.01.03Zm-.7 5.48a.2.2 0 0 1-.02.04l.01-.03ZM86.58 72.6c.01-.08.02-.16.01-.24.6.04 1.2.1 1.79.15.79.09 1.58.07 2.36-.04a1.23 1.23 0 0 1 .2.14c.04.1.09.17.16.24.4.36.9.48 1.46.36a2.63 2.63 0 0 0 1.58-1.02l.73.17c.46.13.93.19 1.41.18.76 0 1.52.02 2.28.06.05.21.08.43.08.64 0 .9-.23 1.76-.68 2.57-.4.72-.72 1.47-.97 2.25-.97.1-1.95.13-2.94.1a340.82 340.82 0 0 0-5.48-.14c-.4-.02-.8-.04-1.21-.08l-.09-.27c-.23-.76-.42-1.54-.56-2.32a10.56 10.56 0 0 1-.13-2.75Zm-1.24-12.13c.04-.28.06-.57.07-.86.04-.92.15-1.82.34-2.72a3.18 3.18 0 0 1 1.65-2.21c.42-.17.86-.28 1.32-.33.46-.04.92-.1 1.38-.17a9.33 9.33 0 0 0 .4.07h.22c.06.03.12.04.18.05l.2.02a61.7 61.7 0 0 1 .36.12l.01.1v1.35c-.01.49-.05.97-.1 1.44a.54.54 0 0 1-.18.2c-.27.18-.54.34-.83.47-.3.13-.6.27-.89.42a9.54 9.54 0 0 0-1.89 1.23c-.16.1-.32.16-.5.2a4.4 4.4 0 0 0-.65.2.85.85 0 0 0-.14.05l-.49.14c-.18.06-.33.14-.46.23Zm-4.66 10.11h-.02.02Zm-.56.68c.1.02.2 0 .28-.06l.5.3 1.1.7a6.96 6.96 0 0 1 2.14 2.05c.3.43.56.87.81 1.32.4.74.8 1.49 1.17 2.24-.75-.1-1.5-.22-2.24-.39l.04.01h.04a4.59 4.59 0 0 0-.72-.08l-1.9-.1a3.89 3.89 0 0 1-1.3-.29c0-.36-.01-.73-.07-1.1a31.54 31.54 0 0 1-.28-3.07 4.55 4.55 0 0 1 .2-1.6.9.9 0 0 0 .23.07Zm24.25.14.05.39c.2 1.56.15 3.1-.17 4.64v.05l.01.05a9.83 9.83 0 0 1 0 .04l-.72.19a74.37 74.37 0 0 1-4.91 1.08l.02-.05c.43-.94.9-1.86 1.4-2.75a9.57 9.57 0 0 1 1.86-2.35 5.17 5.17 0 0 1 2.46-1.29Zm-6.53 6.5a1.11 1.11 0 0 0 .02.06h-.04v-.01l.02-.06ZM83.1 67.82l.24.24a4.13 4.13 0 0 0 .2.36c.13.35.22.72.27 1.1.06.54.05 1.08-.03 1.6a.6.6 0 0 1-.19.16c-.33.18-.7.26-1.08.26h-.1a13.67 13.67 0 0 0-2.05-1.1h-.1a.47.47 0 0 0-.12.06 3.53 3.53 0 0 1-.08-.05c.16-.84.26-1.68.3-2.54a12 12 0 0 0-.05-1.58.87.87 0 0 0 .35.07c.38.13.76.29 1.12.48.49.25.93.57 1.32.94Zm18.87.34c.56-.4 1.16-.7 1.8-.93.2-.06.38-.14.56-.23l-.01.14c-.1 1.2-.1 2.4 0 3.61-.17.01-.34.03-.5.07a.42.42 0 0 0-.1-.06.33.33 0 0 0-.22-.02.36.36 0 0 0-.1.05.23.23 0 0 0-.08.08.2.2 0 0 1-.1.09l-.11.06a5.06 5.06 0 0 1-.17.08 6.01 6.01 0 0 0-.3.12l-.23.08-.34.09c-.13.03-.27.05-.4.05a.3.3 0 0 1-.1-.1 2.05 2.05 0 0 1-.12-.26c-.04-.1-.07-.2-.08-.3v.01-.07a3.7 3.7 0 0 1-.05-.93c.03-.29.04-.58.04-.87l.01-.04.01-.04.02-.04a.54.54 0 0 1 .02-.05c.1-.1.19-.21.27-.32.08-.1.18-.2.28-.27ZM80.8 62.4h.02-.02Zm2.48.9a.42.42 0 0 1 .03.02l-.03-.02Zm-2.7-.92.07.02a1.59 1.59 0 0 0 .2 0 5.15 5.15 0 0 0 .83.23h-.03l.1.02c.27.07.54.18.78.3a8.99 8.99 0 0 0 .83.41 1.48 1.48 0 0 1 .12.11c.08.28.13.56.14.85l.07.83c.06.62.08 1.24.04 1.85a2 2 0 0 1-.14.12.74.74 0 0 1-.05.03h-.15a7.12 7.12 0 0 0-2.85-1.47.62.62 0 0 0-.32-.08l-.11-.62a33.27 33.27 0 0 0-.31-1.4c.13-.21.22-.4.28-.56.08-.23.2-.44.36-.63h.06l.05-.01h.02Zm.25-3.18h.16c.35-.02.7 0 1.04.04.37.05.73.15 1.07.3a3.66 3.66 0 0 1 .58 1.73c.05.48-.02.94-.2 1.37a8.74 8.74 0 0 0-2.72-.94.4.4 0 0 0-.05-.02l-.03-.01a5.27 5.27 0 0 0-.46-.66 1.93 1.93 0 0 1-.32-.57l.02-.05c.1-.22.22-.42.37-.61.17-.21.35-.4.54-.58Zm.95-2.47c.46-.33.96-.52 1.51-.57l.04.01.04.02.05.02c.15.08.28.18.4.29.16.14.25.32.27.53a18.46 18.46 0 0 1-.68 1.95 5.58 5.58 0 0 0-2.67-.47c-.1-.15-.22-.28-.37-.4a.86.86 0 0 1-.36-.44c.35-.21.71-.4 1.09-.56.24-.1.47-.23.68-.38Zm22.54 6.37a2.79 2.79 0 0 0 .01.13l.02.05.04.07.07.06a1.95 1.95 0 0 1 .42.46l.04.02v.01c-.17.69-.33 1.39-.45 2.1l-.05.24-2.17.91c-.2.09-.38.2-.55.31a.4.4 0 0 0-.15-.08l-.02-.02a2.82 2.82 0 0 0-.1-.08 1.11 1.11 0 0 1-.1-.1c-.07-.09-.12-.18-.15-.28a4.27 4.27 0 0 1-.26-1.33 5.5 5.5 0 0 1 .19-1.5l.02-.05.02-.03c.15-.16.31-.29.49-.4.32-.2.65-.4.99-.58.38-.2.8-.31 1.23-.32a2 2 0 0 1 .14.04c.05.01.1.03.14.06l.13.14.07.08v.04l-.02.05Zm-3.04-3.1a1.94 1.94 0 0 1 1.53-.53c.19.02.36.08.51.18.53.37.98.78 1.35 1.25a8.8 8.8 0 0 0-.52.7l-.27.4c-.2 0-.4.02-.64.08-.66.18-1.29.46-1.87.83l-.02-.01a.46.46 0 0 1-.1-.05 5.29 5.29 0 0 1-.2-1.56c.01-.44.09-.87.23-1.29Zm.84-3.52v-.01.01Zm-.64-.26.28-.06c.1.06.2.14.28.23.31.34.66.64 1.05.9.45.29.93.45 1.45.47l-.02.03-.06.07-.06.09-.5.69a3.2 3.2 0 0 0-.23.36 2.59 2.59 0 0 0-1.81-.14.34.34 0 0 0-.28-.14h-.05l-.05.01a4.05 4.05 0 0 1-.58-1.15c-.12-.4-.09-.76.11-1.12l.07-.05.06-.05a.48.48 0 0 1 .06-.04l.28-.1Zm5.57-4.76.01.2c.06.8.13 1.57.23 2.31.06.46.14.92.24 1.37a2.23 2.23 0 0 0-.14.05l-.04.03-.04.03a1.02 1.02 0 0 0-.08.13c.11.93 0 1.85-.35 2.74l-.26.65c-.12-.91-.2-1.84-.22-2.76a70.48 70.48 0 0 0-.17-3.47c.1-.1.18-.2.27-.32l.02-.03.02-.03a6.85 6.85 0 0 0 .5-.9Zm-29.9 3.93-.02-.01c.36-1.37.47-2.76.32-4.17a.67.67 0 0 0 .04-.27 15.3 15.3 0 0 0 0-.61 7.37 7.37 0 0 0 .76 1.39.55.55 0 0 0-.03.07c.05.62.05 1.24 0 1.86-.05.8-.06 1.59-.02 2.38.04.88.05 1.76.03 2.64l-.37-1.3c-.18-.7-.42-1.35-.7-1.98ZM63.12 82.9Zm2.46-22.4.2-.38c.2.68.42 1.35.68 2 .22.52.42 1.05.62 1.58v.09c-.01.27.03.52.13.75a.32.32 0 0 0-.07.2c0 .1.04.18.1.25.08.07.18.1.28.07.25-.06.48-.18.68-.34.26-.2.52-.37.81-.52l.9-.46.02.73c.01.36.13.68.34.96.46.61 1 1.12 1.65 1.53a41.29 41.29 0 0 1-.82 2.92c-.2.73-.48 1.42-.83 2.09-.13.23-.27.44-.43.64a37.84 37.84 0 0 0-2.43 3.46l-.78 1.25a78.75 78.75 0 0 0-2.97 5.14.29.29 0 0 0-.1-.07h-.03l-.05-.02c-.16-.1-.31-.2-.48-.28-.7-.36-1.44-.66-2.2-.9a9.83 9.83 0 0 0-1.75-.36l.05-.08a.54.54 0 0 0 .07-.26v-.04a81.72 81.72 0 0 1 6.41-19.96Zm-6.93 21.03.28.04a9 9 0 0 1 2.22.5 14.65 14.65 0 0 1 2.16.98l.1.02-.1.28-.29 1a.99.99 0 0 0-.12.08.24.24 0 0 0-.03.03.37.37 0 0 0-.02.05 3.68 3.68 0 0 0-.07 1.32c.2 1.44.03 2.87-.52 4.26l-.84 2.17-1.78 4.66a.72.72 0 0 0-.05.05l-.05.05a.63.63 0 0 0-.05.04l-.05.05a1.1 1.1 0 0 0-.16.02l-.01-.01c0-.16.03-.32.06-.47.15-.7.33-1.39.55-2.07a25.15 25.15 0 0 0 .6-2.22v-.06l-.02-.05-.01-.05a18.33 18.33 0 0 1-.1-.12.37.37 0 0 0-.03-.04.43.43 0 0 0-.04-.03.43.43 0 0 0-.26-.05l-.04.01a.59.59 0 0 0-.1.04.37.37 0 0 0-.08.06c-.12.15-.2.32-.24.5a27.31 27.31 0 0 1-1.04 3.62 43.04 43.04 0 0 1-.37 1.36c-.15.49-.4.9-.77 1.23a.93.93 0 0 1-.36 0 .49.49 0 0 1-.14-.05 4.2 4.2 0 0 1-.01-1.35 4.15 4.15 0 0 1 .12-.55l.55-1.9a27.53 27.53 0 0 1 .81-2.38c.12-.27.06-.48-.15-.65a.21.21 0 0 0-.2-.04c-.35.08-.53.3-.52.69l-.15.43c-.21.6-.41 1.2-.59 1.8a134.54 134.54 0 0 0-.59 2.14.79.79 0 0 0-.13.28A5.26 5.26 0 0 1 55 99.1H55a.77.77 0 0 1-.09-.02.35.35 0 0 1-.07-.04c-.12-.41-.11-.83.01-1.24l.53-1.88c.16-.62.3-1.24.42-1.86.12-.64.3-1.26.53-1.86.05-.14.07-.31.05-.54a.28.28 0 0 0-.19-.26c-.28-.11-.47-.02-.56.27a2.22 2.22 0 0 1-.04.14c-.18.47-.32.96-.42 1.45-.12.62-.25 1.24-.4 1.86-.14.62-.32 1.23-.54 1.84-.07.21-.13.43-.18.64-.1.35-.26.66-.47.96a.64.64 0 0 1-.5-.23c-.35-.4-.47-.87-.38-1.4.11-.64.25-1.27.43-1.9a50.25 50.25 0 0 0 .56-2.3c.1-.63.24-1.24.45-1.84a.61.61 0 0 0 .02-.34v-.02c.03-.44.11-.88.24-1.3.18-.61.39-1.2.62-1.8a.68.68 0 0 0 .2-.1.24.24 0 0 0 .1-.23c-.03-.36-.24-.52-.64-.46-.64.09-1.22.34-1.74.74-.4.32-.84.5-1.32.53a4.95 4.95 0 0 1-.2-.14.87.87 0 0 1-.07-.09 2.5 2.5 0 0 1 .08-.36l.1-.24.1-.1c.07-.09.16-.17.26-.25.36-.3.72-.61 1.06-.94a20.58 20.58 0 0 1 1.44-1.23c.35-.26.73-.47 1.13-.64.34-.14.69-.34 1.03-.6h.01l-.01.01a.2.2 0 0 1-.02.02h-.01l-.01.01a30.97 30.97 0 0 0 1.52-1.01c.16-.11.29-.25.39-.42l.24-.4Zm64.62.49a.18.18 0 0 1-.05.01h.03l.02-.01Zm-4.54-22.24c0 .12.06.23.16.33.24.22.45.46.64.72.45.64.87 1.31 1.24 2 .38.7.7 1.42.95 2.16.26.74.47 1.49.62 2.26.16.76.35 1.53.56 2.28a53.74 53.74 0 0 1 1.08 4.64c.15.78.34 1.55.56 2.32l.67 2.25c.23.73.48 1.44.77 2.14-.31-.06-.62-.08-.94-.05a5.8 5.8 0 0 0-1.69.45l-2.37 1.05c0-.03-.02-.05-.03-.08-.29-.73-.64-1.44-1.05-2.1-.42-.67-.9-1.3-1.44-1.86a18.76 18.76 0 0 1-1.53-1.8l-.02-.03a.65.65 0 0 0-.02-.02l-.1-.14c-.04-.05-.1-.12-.16-.22l-.21-.29a9.68 9.68 0 0 1-1.04-1.92 30.1 30.1 0 0 0-1.1-2.4c-.23-.45-.43-.91-.6-1.39a38.08 38.08 0 0 1-.9-2.82c.22-.34.44-.68.68-1.02.4-.6.82-1.17 1.26-1.73.72.27 1.44.5 2.18.7.2-.02.32-.13.33-.31.26-.17.4-.43.46-.78.05-.3.12-.6.21-.9.22-.7.4-1.4.54-2.1l.3-1.34Zm2.51 23.2.08-.04 2.07-.9a5.6 5.6 0 0 1 2.48-.47l.04.03a1.4 1.4 0 0 1 .08.04l.05.02a.89.89 0 0 0 .14 0 .28.28 0 0 0 .06 0 3.27 3.27 0 0 0 2.13 2.16c.75.24 1.45.6 2.09 1.04l.03.03c.15.1.28.2.41.33l.4.34.12.08.01.01.15.11.04.04.27.22c.29.28.6.55.92.8.32.26.5.58.55.97l-.02.03-.02.02-.02.02-.03.02-.02.01-.03.01-.01.01h-.1a2.9 2.9 0 0 1-.64-.21l-.03-.02-.26-.14a8.97 8.97 0 0 0-2.3-1 .3.3 0 0 0-.25-.16c-.4-.03-.56.16-.45.57.02.07.06.12.11.15l.26.12c.06.25.14.5.22.74.17.5.32 1 .47 1.5.22.82.46 1.64.7 2.45.3.93.53 1.89.72 2.85.15.79.16 1.6.05 2.46h-.12l-.15-.01a.29.29 0 0 1-.13-.04c-.22-.2-.37-.44-.44-.74a.86.86 0 0 0-.3-.5c-.11-.6-.25-1.18-.43-1.76a76.24 76.24 0 0 0-.74-2.36l-.1-.25a.84.84 0 0 0-.2-.27c-.25-.24-.47-.21-.65.08a.16.16 0 0 0-.02.14c.28.76.54 1.53.78 2.32.27.85.48 1.72.64 2.6v-.06.09l.05.26.04.25v-.04l-.01-.04.03.21c.05.32.08.64.11.96.03.35-.03.68-.18.98a.68.68 0 0 1-.1.02 3.48 3.48 0 0 1-1.03-1.32 4.36 4.36 0 0 0-.22-.7c-.28-.74-.52-1.49-.7-2.25-.2-.8-.41-1.58-.65-2.37a.89.89 0 0 0-.11-.24c-.22-.3-.44-.32-.69-.04a.16.16 0 0 0-.04.16c.26.96.5 1.93.75 2.9.2.8.46 1.58.76 2.36.17.4.22.8.17 1.19l-.06.01-.12.01-.17.01c-.21-.07-.38-.19-.51-.36a3.7 3.7 0 0 1-.52-.92 8.44 8.44 0 0 1-.2-.56c-.07-.25-.2-.47-.37-.66l-.02-.1a27.86 27.86 0 0 0-.77-2.5l-.02-.08a12.27 12.27 0 0 1-.38-1.17c-.1-.18-.26-.25-.47-.19-.22.06-.3.2-.26.43a6.98 6.98 0 0 0 .4 1.31l.17.57c.1.32.22.65.34.97.2.5.26 1.03.17 1.55a.66.66 0 0 1-.08.1l-.12.1a.17.17 0 0 1-.12.03.57.57 0 0 1-.23-.23 7.99 7.99 0 0 1-.49-1.04 15.7 15.7 0 0 1-.68-2.29 3.17 3.17 0 0 0-.11-.4c-.26-.73-.49-1.47-.68-2.22a73 73 0 0 1-.62-2.66v.02a16.4 16.4 0 0 0-.09-.67 8.66 8.66 0 0 1-.03-1.64c.03-.43-.02-.86-.13-1.28a.37.37 0 0 0 0-.22c-.04-.2-.1-.41-.2-.61l.01.01-.43-1.1ZM86.08 28.8v.01l.02.02-.02-.02Zm26.74 11.38a7.43 7.43 0 0 1 1.2 2.03v.01c.2.5.32 1 .37 1.52.05.61.1 1.22.12 1.84h.03a6 6 0 0 0 .05.69c.11.78.14 1.56.1 2.34 0 .08 0 .15.03.22.1.35.22.69.37 1.01l-.07.09a9.08 9.08 0 0 0-.2 1.66l-.05.35c-.41-.58-.86-1.14-1.33-1.67l-1.75-1.94v-.01a10.67 10.67 0 0 0-2.96-2.7c-.35-.28-.7-.34-1.07-.2a1.2 1.2 0 0 0-.08.1.27.27 0 0 0-.05.09 7.98 7.98 0 0 0-.27 1.7c-.08.4-.15.82-.2 1.23-.1.07-.14.18-.14.33a41.8 41.8 0 0 0-.1.38 5.3 5.3 0 0 1-.9 2.56h.03a7.71 7.71 0 0 1-1.73 1.63c-.68.47-1.41.77-2.22.89a9.4 9.4 0 0 1-2.55.04 3.64 3.64 0 0 0-.36-.06l.03.01a8.88 8.88 0 0 1-1.94-.58 6.75 6.75 0 0 1-2-1.32 7.75 7.75 0 0 1-1.47-1.91 2.25 2.25 0 0 0-.53-.64.25.25 0 0 0-.3-.04c-.32.17-.37.4-.13.68.29.47.6.94.92 1.4a8 8 0 0 0 1.17 1.3 6.5 6.5 0 0 0-.2-.03h-.03c-.25-.06-.5-.08-.76-.07-.1 0-.2.03-.28.09-.47.3-.73.75-.78 1.35-.02.25-.05.5-.1.75a6.77 6.77 0 0 0-.03 2.84l.03.03.04.03a.23.23 0 0 0 .09.03.63.63 0 0 0 .15.01h.05a.65.65 0 0 0 .1-.06.08.08 0 0 1 .04-.02h.04a4.2 4.2 0 0 1 2.16.64c.62.38 1.25.73 1.9 1.07.12.07.22.16.31.27a4 4 0 0 0 1.4 1.13c.12.04.25.03.37-.03a.48.48 0 0 0 .28-.31c.16-.54.2-1.1.11-1.68-.09-.63-.22-1.26-.38-1.88-.27-1-.75-1.83-1.45-2.5.44.12.89.21 1.34.27l.1.02.07.01a6.25 6.25 0 0 0 .63.06 11.02 11.02 0 0 0 2.64-.23 6.52 6.52 0 0 0 2.87-1.58 167.28 167.28 0 0 1 .23 3.33 388.68 388.68 0 0 0 .2 3.33l-.01.04v.03l.01.07c.02.06.05.12.1.16l-.4 1.07c-.2.54-.37 1.08-.54 1.63a.88.88 0 0 0-.1-.28c-.14-.23-.3-.41-.47-.54a6.36 6.36 0 0 0 .78-1.26.38.38 0 0 0-.05-.41 12.11 12.11 0 0 0-1.05-1.2l.02-.04c.06-.13.14-.25.22-.36l.01-.01a2.62 2.62 0 0 0 .08-.1l.01-.01v-.01l.06-.08a10.5 10.5 0 0 1 .47-.63c.11-.12.21-.26.3-.4.11-.22.1-.4-.06-.58a.3.3 0 0 0-.18-.06 2.87 2.87 0 0 1-1.7-.45c-.42-.28-.82-.6-1.18-.96a.64.64 0 0 0-.38-.19c-.53-.06-.99.09-1.36.46-.2.2-.31.43-.35.7-.1.8.05 1.56.48 2.27.09.16.2.28.31.36a2.33 2.33 0 0 0-.66 1.57c-.02.51 0 1.02.03 1.53.03.4.16.7.4.93-.18.18-.3.39-.36.64a7.34 7.34 0 0 0-.19 2.08c.05.79.35 1.41.92 1.89l-.1.11c-.13.16-.22.33-.26.53-.14.5-.21 1.02-.23 1.56-.03.8.24 1.44.8 1.93l.1.05c-.13.12-.27.24-.4.38-.7.72-1.3 1.53-1.76 2.42-.43.83-.86 1.66-1.27 2.49.27-.74.58-1.47.93-2.2.5-1.06.55-2.13.11-3.2a.48.48 0 0 0-.07-.06l-.04-.02a4.83 4.83 0 0 0-1.03-.04c-.71.06-1.41.02-2.1-.1-.6-.12-1.2-.2-1.8-.26a.19.19 0 0 0-.18.06 3 3 0 0 1-1.46.95h-.32a1 1 0 0 1-.42-.09 7.03 7.03 0 0 0-.16-.34.86.86 0 0 0-.22-.17.67.67 0 0 0-.32-.08c-.6 0-1.23-.02-1.85-.06l-2.6-.15a.35.35 0 0 0-.28-.17.32.32 0 0 0-.23.07l-.02.02.01-.05v-.1a.99.99 0 0 1 .65-.24c.38-.02.76.02 1.13.12 1.23.35 2.39.19 3.47-.47.1-.06.17-.13.21-.23.45-.93.66-1.93.63-2.99 0-.18 0-.35.04-.53.12-.71-.1-1.25-.65-1.6-.77.02-1.55.05-2.32.1-.37.02-.73.06-1.1.11-.94.14-1.88.27-2.83.39a.4.4 0 0 0-.14.09c-.1.1-.18.23-.2.38l-.08.53a1.45 1.45 0 0 1-.01.06c-.03.2-.05.38-.05.57 0 .7 0 1.4.04 2.1.04.74.27 1.4.68 1.96l.05.02a2.26 2.26 0 0 0 .1.03h.09l.04-.01.04-.02c.02 0 .03 0 .04-.02a.54.54 0 0 0 .07-.05l-.03.93a13.42 13.42 0 0 0 .31 3.64l-.38-.7c-.36-.65-.75-1.28-1.18-1.9a7.97 7.97 0 0 0-1.37-1.52c.26-.06.52-.16.76-.3.25-.15.4-.36.46-.64a4.89 4.89 0 0 0-.53-3.49c.31-.17.47-.42.48-.75.02-1.05-.02-2.1-.1-3.15-.03-.3-.11-.56-.25-.76a2.03 2.03 0 0 0 .3-.87c.12-.97-.04-1.89-.47-2.74l.04-.02.03-.03a.97.97 0 0 0 .15-.3 2.04 2.04 0 0 1 .15-.34c.16-.35.3-.7.43-1.07.25-.72.09-1.33-.5-1.81-.6-.5-1.24-.56-1.95-.17-.75.43-1.53.82-2.33 1.17-.37.16-.62.4-.77.74v.05l.02.04.01.05a7.86 7.86 0 0 0 .98 1.08c-.37.38-.67.83-.89 1.33a.53.53 0 0 0 .01.47c.21.41.45.81.71 1.2-.14.11-.26.25-.36.43l-.11.22c-.2-.68-.42-1.36-.66-2.02l.03-.01.04-.02a.77.77 0 0 0 .07-.06l.03-.03a9.97 9.97 0 0 0-.05-7.83c.5.51 1.05.95 1.68 1.3.7.4 1.44.66 2.23.78.8.13 1.6.2 2.4.21a10.77 10.77 0 0 0 .92-.1 4.92 4.92 0 0 0-1.27 2.66c-.18 1.26-.25 2.51-.2 3.76v.15l.01.05a.85.85 0 0 0 .06.12.3.3 0 0 0 .03.03l.04.03.03.03.04.02.05.02a.42.42 0 0 0 .23-.02l.04-.02.03-.03c.02 0 .03-.02.04-.03l.03-.03a.8.8 0 0 0 .02-.04l.02-.04.02-.05.02-.03.04-.02.04-.01a.98.98 0 0 0 .2-.17.9.9 0 0 1 .12-.12 6.95 6.95 0 0 0 2.81-1.25c.28-.2.54-.36.79-.48.78-.38 1.53-.8 2.26-1.27.13-.08.21-.2.24-.34.24-1.14.31-2.28.22-3.45a.6.6 0 0 0-.18-.2 2.35 2.35 0 0 0-1.43-.48 23.8 23.8 0 0 0-.4 0l.29-.17c.32-.2.6-.46.82-.77a4.47 4.47 0 0 0 .84-2.36c0-.11-.05-.19-.15-.24-.35-.16-.57-.04-.65.35-.07.35-.16.7-.26 1.04-.09.28-.23.53-.44.74a4.8 4.8 0 0 1-1.99 1.24 15 15 0 0 1-2.43.57 8.94 8.94 0 0 1-2.67 0 6.31 6.31 0 0 1-4.98-3.34 23.21 23.21 0 0 1-1.1-2.5.7.7 0 0 0-.13-.21c0-.3-.11-.51-.33-.66a.22.22 0 0 0-.18-.04 1.57 1.57 0 0 1-.04-.44c.01-.24-.04-.46-.14-.66a.2.2 0 0 0-.07-.08 1.29 1.29 0 0 0-.57-.6.86.86 0 0 0-1 .06 12.85 12.85 0 0 0-3.13 3.26 63.72 63.72 0 0 0-2 3.28c-.1-.6-.21-1.18-.34-1.76a.36.36 0 0 0-.1-.2.48.48 0 0 0 .07-.05c.06-.04.09-.1.1-.16.05-.74.09-1.48.12-2.23.03-.8.1-1.6.19-2.4a12.22 12.22 0 0 1 1-3.6 8.44 8.44 0 0 1 1.61-2.33c.52-.5 1.12-.9 1.8-1.16.7-.27 1.41-.53 2.15-.78a98.26 98.26 0 0 0 2.48-.9c.52-.18 1.04-.34 1.58-.46a27.4 27.4 0 0 0 3.6-1.13l.16-.06a8.19 8.19 0 0 0 1.2-.64c.25-.13.46-.33.62-.58l.16-.28c.26-.53.43-1.1.51-1.68a16.94 16.94 0 0 0 .17-2 5 5 0 0 0 1.04.42c.5.14.99.28 1.48.44a5.65 5.65 0 0 0 1.6.28c.37 0 .74-.05 1.1-.15.35-.1.7-.22 1.05-.36l.1-.04.05-.02.05-.03.05-.01.02-.01.03-.01a.3.3 0 0 1-.01 0l.02-.01 1.47-.68c.47-.23.92-.49 1.34-.79l.81-.54a6.05 6.05 0 0 1 .38 1.41c.08.52.18 1.03.32 1.54a3.79 3.79 0 0 0 .9 1.63c.21.3.48.54.8.75a11.78 11.78 0 0 1 .84.61l.04.03.01.01.01.01.16.13a4.39 4.39 0 0 0 .83.6l-.02.02.23.12.23.17c.05.04.1.07.17.08.06.01.12.02.17.01.31.14.64.27.96.4a88.25 88.25 0 0 0 2.41.84 19.4 19.4 0 0 1 .51.18c.47.18.94.34 1.4.5.73.25 1.44.53 2.13.84.53.23 1.05.5 1.55.78.65.38 1.21.86 1.7 1.44ZM94.93 12.94c.13-.05.26-.08.4-.1l.4-.03c.42-.01.72.17.9.56.12.24.26.46.43.67a7.05 7.05 0 0 0 1.1 1.08 3.63 3.63 0 0 1 1.05 1.54l.03 1.44c0 .53 0 1.06.02 1.6a10.44 10.44 0 0 1-.56 3.52c-.1.24-.18.49-.26.74-.14.47-.3.95-.46 1.42-.14.43-.3.86-.48 1.27a.76.76 0 0 1-.22.3 12.7 12.7 0 0 1-1.97 1.35l-.36.2-1.4.69c-.45.22-.92.4-1.4.55a4.53 4.53 0 0 1-2.58-.08 34.4 34.4 0 0 0-1.77-.54 1.57 1.57 0 0 1-.8-.44c-.2-.25-.39-.5-.55-.78l-.77-1.33a9.51 9.51 0 0 1-.64-1.4c-.09-.24-.14-.49-.16-.75-.02-.4-.05-.8-.1-1.2a7.87 7.87 0 0 1-.07-.98c0-.52-.05-1.04-.14-1.55a14.67 14.67 0 0 0-.36-1.6.36.36 0 0 0 0-.2 2.32 2.32 0 0 1-.09-.42c-.04-.33-.05-.66-.04-1 0-.08.02-.15.03-.23a12.59 12.59 0 0 1 .91-2.77c.23-.46.5-.89.79-1.3l.47-.23c.09-.05.18-.09.27-.11.25-.08.5-.16.74-.27a2.9 2.9 0 0 1 1.1-.25c.55-.02 1.09-.02 1.63 0 .3.02.6.07.88.14.53.13 1.06.17 1.6.12.3.16.6.28.9.38a2.4 2.4 0 0 0 1.53-.01Zm-11.7 5.4.06.06a11.96 11.96 0 0 0 .06.5c0 .15.02.3.08.45a9 9 0 0 1 .45 2.58 8.65 8.65 0 0 1-.4.24h-.06a.58.58 0 0 1-.2-.08 1.97 1.97 0 0 1-.85-1.2l-.14-.56a4.14 4.14 0 0 1-.06-1.52.41.41 0 0 1 .08-.18c.21-.3.51-.42.9-.39l.09.1Zm17.44-.31c.06-.02.12-.01.18 0 .31.1.54.3.68.6a1 1 0 0 1 .1.4c0 .6.02 1.2.05 1.79.02.42-.12.77-.42 1.04a.57.57 0 0 1-.2.02 3.8 3.8 0 0 1-.54-.06 1.39 1.39 0 0 1-.58-.27l.04-.28a12.13 12.13 0 0 0 .09-2.45v-.1l.04-.15c.09-.3.27-.48.56-.54ZM98.3 10.4h-.01Zm-.03-.02-.02-.01.02.01Zm-2.24-.85c.47.22.95.39 1.46.5.1.02.2.05.29.1.46.21.86.51 1.21.9.1.1.17.22.22.35.16.45.28.9.35 1.39l.06.18c.25.42.38.88.39 1.36 0 .26 0 .52-.03.77l-.11 1.02-.03-.07a4.05 4.05 0 0 0-.9-1.25l-1.12-1.08a.86.86 0 0 1-.13-.17c-.18-.3-.37-.58-.57-.86a1.45 1.45 0 0 0-.95-.6 3.04 3.04 0 0 0-1.5.11c-.24.08-.49.1-.74.06-.38-.07-.75-.2-1.09-.39a.35.35 0 0 0-.19-.05c-.42.02-.84-.02-1.26-.11-.5-.1-1-.17-1.52-.2h-1.53c-.22.01-.44.05-.66.11l-.74.23c-.5.14-.97.33-1.43.58a.68.68 0 0 0-.16.13c-.3.29-.54.61-.74.98-.26.45-.48.92-.66 1.41a27.82 27.82 0 0 0-.58 1.8 2.2 2.2 0 0 1-.54-1.21 21.4 21.4 0 0 1 .01-1.53 3 3 0 0 1 .12-.71c.07-.24.16-.48.27-.71l.19-.52c.06-.19.14-.37.25-.54.26-.44.58-.82.95-1.16l.56-.5c.14-.11.3-.2.46-.27a.83.83 0 0 1 .37-.05c.51.04 1.02.02 1.53-.06a30.6 30.6 0 0 0 1.6-.3c.14-.03.29-.05.43-.05a16.23 16.23 0 0 0 2.38-.29 7.26 7.26 0 0 1 2.08.17l.92.1c.25.02.5.1.72.23l.36.2Zm5.1 9.68a.48.48 0 0 0-.11-.22c-.18-.21-.37-.22-.56-.01a.13.13 0 0 0-.04.1c.03.28.04.56.04.84 0 .2-.05.4-.13.59-.11.27-.05.47.21.59.09.02.17 0 .25-.04a.56.56 0 0 0 .26-.33c.14-.5.17-1.01.08-1.52Zm-17.85.37c.01-.27-.12-.4-.39-.38-.06 0-.1.02-.14.07-.18.23-.25.5-.2.81.01.2.04.41.07.62.03.25.13.47.3.65.05.03.11.04.17.04.11 0 .2-.04.27-.12.08-.1.1-.2.07-.32a3 3 0 0 1-.16-1.12v-.25Zm11.17-3.94a2.99 2.99 0 0 0-.83.07c-.13.04-.26.08-.38.15-.15.08-.3.17-.44.28a2.07 2.07 0 0 0-.72.92.4.4 0 0 0 .17.45c.06.03.12.05.19.05a.4.4 0 0 0 .4-.27c.07-.16.18-.3.32-.42.1-.08.21-.16.33-.23a1.2 1.2 0 0 1 .52-.18H94a2.42 2.42 0 0 1 .86.05l.54.15c.17.05.33.13.48.23.16.1.3.23.45.36a.4.4 0 0 0 .4.29c.18-.02.3-.11.37-.29a.4.4 0 0 0-.11-.47 1.64 1.64 0 0 0-.2-.19 7.87 7.87 0 0 0-.58-.44 2.4 2.4 0 0 0-.48-.23 5.17 5.17 0 0 0-1.28-.28Zm-3.84 1.3a.36.36 0 0 0 0-.19.76.76 0 0 0-.18-.28 2.97 2.97 0 0 0-.86-.6 7.26 7.26 0 0 0-.48-.21 2.46 2.46 0 0 0-.9-.16 3.42 3.42 0 0 0-.77.07c-.17.04-.33.1-.5.17-.15.07-.3.16-.43.29a3.16 3.16 0 0 0-.64.81l-.14.24c-.08.15-.15.32-.18.49a.7.7 0 0 0-.02.17c0 .2.1.32.29.38a.4.4 0 0 0 .39-.1.29.29 0 0 0 .08-.14c.03-.12.07-.23.12-.34a3.8 3.8 0 0 1 .4-.67 1.43 1.43 0 0 1 .5-.42 2.47 2.47 0 0 1 2.54.57.4.4 0 0 0 .08.12c.08.09.18.13.3.13a.4.4 0 0 0 .35-.2.6.6 0 0 0 .05-.13Zm3.56.57c-.17 0-.34.04-.5.09a1.7 1.7 0 0 0-.47.23 6.17 6.17 0 0 0-.67.53c-.11.09-.16.21-.14.37 0 .04.01.08.04.12a6.64 6.64 0 0 0 .47.66c.12.13.24.25.38.35a1.65 1.65 0 0 0 1.04.34c.19-.01.37-.05.55-.09l.62-.15c.2-.05.39-.13.56-.25a2.94 2.94 0 0 0 .56-.5.58.58 0 0 0 .15-.25.41.41 0 0 0-.06-.38 3.03 3.03 0 0 0-.84-.6 8.48 8.48 0 0 0-.98-.4 1.79 1.79 0 0 0-.71-.07Zm1.26 1.16a1.8 1.8 0 0 1 .36.23l-.14.11a.93.93 0 0 1-.18.1 2.93 2.93 0 0 1-.45.14l.01-.5c0-.1-.02-.2-.04-.29l.44.21Zm-1.45-.32.06-.01a1.18 1.18 0 0 0-.08.45 1.53 1.53 0 0 0 .12.58h-.02a1.04 1.04 0 0 1-.44-.27 3.1 3.1 0 0 1-.3-.36c.08-.08.17-.14.25-.2.13-.1.26-.15.41-.2Zm-3.33.01c-.1-.13-.22-.25-.36-.35a2.45 2.45 0 0 0-1.01-.37l-.58-.06c-.2-.02-.4-.01-.6.01l-.27.04a1.69 1.69 0 0 0-.93.4.73.73 0 0 1-.14.1c-.18.1-.32.23-.43.4a.4.4 0 0 0-.12.37c0 .07.01.14.05.22l.14.23c.06.07.11.14.18.2a2.12 2.12 0 0 0 .88.56 2 2 0 0 0 .51.1 5.55 5.55 0 0 0 1.08 0 2.17 2.17 0 0 0 1.52-.94c.05-.08.1-.15.13-.23a.58.58 0 0 0 .07-.2.42.42 0 0 0-.03-.22.42.42 0 0 0-.09-.26Zm-2.61.08-.07.4c-.03.2.01.39.11.56v.02a1.84 1.84 0 0 1-.73-.25c-.11-.08-.2-.17-.29-.27l.17-.11a5.58 5.58 0 0 1 .43-.29l.38-.1a.4.4 0 0 1 0 .04Zm1 .95v-.03c.04-.18.05-.36.04-.55 0-.14-.04-.27-.1-.4l.36.05c.21.04.4.13.54.27l.02.08c-.05.1-.12.18-.2.26l-.24.17a1.04 1.04 0 0 1-.42.15Zm1.84 3.41c.04.18.14.32.3.43.12.09.26.17.4.24.2.09.4.13.61.14.12 0 .23-.02.35-.06.18-.07.35-.16.51-.27a.53.53 0 0 0 .18-.19.38.38 0 0 0-.2-.55.5.5 0 0 0-.53.14 21.73 21.73 0 0 1-.34.12.53.53 0 0 1-.22-.06 2.9 2.9 0 0 0-.18-.09.5.5 0 0 1-.07-.03.44.44 0 0 1-.04-.03 1.7 1.7 0 0 1 .22-1.05c.09-.1.13-.2.13-.32 0-.17-.07-.3-.23-.37a.34.34 0 0 0-.25-.02.53.53 0 0 0-.32.26c-.1.18-.2.37-.26.57a1.87 1.87 0 0 0-.06 1.15Zm1.9 2.96a14.1 14.1 0 0 1-1.26.11 2.56 2.56 0 0 1-1.28-.28c-.22-.12-.4-.27-.57-.45a.4.4 0 0 0-.3-.18.35.35 0 0 0-.3.12c-.16.18-.17.36-.04.55l.1.12.26.22a3.77 3.77 0 0 0 1.04.56 4.48 4.48 0 0 0 .85.14 10.91 10.91 0 0 0 1.69-.12 2.89 2.89 0 0 0 1.42-.54c.09-.05.17-.1.24-.16a.47.47 0 0 0 .15-.43.34.34 0 0 0-.25-.3c-.2-.06-.35-.01-.48.15l-.2.13c-.23.15-.48.26-.76.31l-.31.05Zm9.91 24.78c-.28-.33-.5-.29-.64.11 0 .07.02.12.06.17.23.25.43.23.6-.07.05-.08.04-.15-.02-.21ZM83 50.4c-.08-.04-.15-.03-.22.02-.32.28-.28.5.12.65.07 0 .12-.02.17-.07.26-.23.23-.43-.07-.6Zm28.32-7.79a3.2 3.2 0 0 0-1.28-2.1 8.98 8.98 0 0 1-.49-.4c-.48-.43-1-.56-1.56-.4a.25.25 0 0 0-.06.08.36.36 0 0 0 .17.52.94.94 0 0 0 .12.02 1.4 1.4 0 0 1 .08 0l.04-.02a4 4 0 0 1 1.25.7 3.47 3.47 0 0 1 1.14 2.43l.03.05.02.03c.02 0 .03.02.04.03l.04.02a.53.53 0 0 0 .08.04.46.46 0 0 0 .1 0l.1-.01c.06-.02.1-.05.14-.09.05-.04.08-.1.1-.16 0-.25-.02-.5-.06-.74Zm-19.27-.27c-.06.02-.08.06-.08.12.01.88-.03 1.77-.12 2.66a.8.8 0 0 0 .06.17l.06.05.06.04.07.04a.4.4 0 0 0 .05 0 .21.21 0 0 0 .1 0h.04l.04-.02a.44.44 0 0 0 .18-.16c.15-.83.18-1.67.1-2.51-.03-.39-.22-.51-.56-.39ZM75.16 40.1a1.4 1.4 0 0 0-1.18.42 4.97 4.97 0 0 0-1.1 1.63 4.31 4.31 0 0 0-.2 2.66l.01.03.02.03.1.07a.36.36 0 0 0 .23.05.3.3 0 0 0 .25-.27c.03-.16.03-.32.02-.48-.08-.65.01-1.28.26-1.9.27-.64.7-1.16 1.28-1.54l.05.06.06.04.07.04a.8.8 0 0 0 .08.02h.04c.11 0 .2-.05.27-.15.07-.1.1-.2.08-.33a.54.54 0 0 0-.19-.33.32.32 0 0 0-.15-.05Zm23.45-1.86-.02.05v.09a.43.43 0 0 0 0 .09c.02.05.04.1.08.13a.4.4 0 0 0 .11.1l.15.03c.2-.05.41-.08.62-.09l3.03-.13c.37-.02.5-.2.39-.53-.02-.07-.07-.11-.14-.12-.52-.03-1.03-.03-1.56-.01l-1.5.02c-.44 0-.81.1-1.14.33l-.02.04Zm-17.1-.62v.04a8.01 8.01 0 0 1 .04.09c.03.04.06.08.1.1a.36.36 0 0 0 .32.06.57.57 0 0 0 .08-.04c.33.03.66.1.99.2.43.14.87.25 1.3.34.59.12 1.13.34 1.65.64a.37.37 0 0 0 .18 0l.09-.03a.59.59 0 0 0 .06-.05.54.54 0 0 0 .05-.06.3.3 0 0 0 .03-.07.7.7 0 0 0 .03-.08.4.4 0 0 0-.02-.18.34.34 0 0 0-.03-.04.18.18 0 0 0-.02-.04.54.54 0 0 0-.06-.06 7.45 7.45 0 0 1-3.47-1.18c-.51-.2-.95-.15-1.3.18a1.24 1.24 0 0 0-.02.08v.1Zm21.11 18.36V56l.03.02.02.03-.03-.03-.02-.03Zm-5.8 4.3h-.03.01c-.38-.18-.73-.34-1.07-.47a4.76 4.76 0 0 0-1.4-.33.92.92 0 0 0-.23-.05 5.42 5.42 0 0 1-.69-.09 1.18 1.18 0 0 0-.36-.08.93.93 0 0 0-.4.06c-.1.04-.18.1-.25.17a.66.66 0 0 0-.15.3c-.04.17-.05.35-.05.53a62.2 62.2 0 0 0 .02.6l.02.05.03.04c.02.17.02.35-.02.54-.1.48-.15.96-.17 1.44-.03.48.05.92.22 1.33a.98.98 0 0 0 .2.16l.04.03c.22.17.46.29.74.35.91.23 1.84.37 2.77.44l2.79.17H99.05c.06 0 .11-.01.17-.03l.15-.07c.33-.35.54-.76.62-1.23.13-.74-.03-1.4-.47-1.98a4.4 4.4 0 0 0-1.76-1.38 25.12 25.12 0 0 0-.94-.49Zm-.07-.02.02.01a.61.61 0 0 1-.02 0Zm-.19.68.22.1a14.26 14.26 0 0 0 .67.37c.5.2.96.5 1.34.9.21.2.35.45.4.73.15.62.07 1.19-.22 1.72h-.74c-.21.01-.42 0-.63-.03-.86-.13-1.72-.21-2.59-.25a4.55 4.55 0 0 1-2.17-.63v-.78c0-.38.02-.76.08-1.14a7.6 7.6 0 0 0 .08-1.35.18.18 0 0 0-.02-.04l-.03-.03a.15.15 0 0 1-.03-.04V59.98l.04-.02.63.1a9.05 9.05 0 0 1 2.97.88Zm-11.1 1.36a.64.64 0 0 0-.22.38c-.15.92-.26 1.85-.32 2.8v.04l.01.04a.86.86 0 0 0 .06.12l.04.04.03.03.04.02.04.02.04.02a.45.45 0 0 0 .1.01h.05l.07-.02h.16l.05-.02a15.62 15.62 0 0 1 .1-.03h.18l.3-.02a1 1 0 0 0 .19-.06 1.86 1.86 0 0 0 .46-.07c.62-.08 1.23-.2 1.84-.35.2-.05.41-.07.62-.06a3.6 3.6 0 0 0 2.11-.51c.17-.1.28-.25.32-.44.13-.6.23-1.22.3-1.84a9.56 9.56 0 0 0-.17-2.8.37.37 0 0 0-.22-.18 1.03 1.03 0 0 0-.35 0c-.7.14-1.36.33-2.02.6l-1.33.56c-.37.15-.72.35-1.05.58-.5.36-.98.74-1.43 1.14Zm1.22-.11c.28-.18.55-.38.8-.59.37-.3.78-.52 1.22-.67.86-.29 1.72-.54 2.59-.77.05.19.07.38.06.59-.04.58-.08 1.17-.1 1.76-.03.51-.07 1.02-.14 1.52-.1.08-.22.15-.34.21a.77.77 0 0 1-.34.09c-.85.02-1.68.13-2.5.33-.74.19-1.5.31-2.25.39l.03-.25c.03-.2.04-.4.03-.59a6.85 6.85 0 0 1 .03-1.03v.07-.02c0-.05 0-.1.02-.15a1.16 1.16 0 0 1 .16-.34c.24-.2.48-.38.73-.55Zm6.46 3.38c-.64.27-.9.78-.77 1.53-.03.48-.08.96-.16 1.44-.1.65.04 1.23.42 1.73s.88.82 1.51.96c1.21.27 2.44.46 3.67.57.3-.02.58-.05.87-.09.31-.03.56-.18.75-.43.36-.46.58-1 .68-1.58.17-1 .1-1.99-.21-2.94a1.08 1.08 0 0 0-.83-.78 29.1 29.1 0 0 0-4.39-.64c-.32 0-.63.02-.95.07-.2.03-.4.08-.6.16Zm.23.6h.2c.18 0 .36-.02.54-.07l.52-.12c.2.05.39.08.6.1.6.05 1.2.12 1.8.2a22.88 22.88 0 0 1 2 .38.93.93 0 0 1 .06.04 3.07 3.07 0 0 0 .2.28 5.73 5.73 0 0 1 .17 2.21c-.06.6-.23 1.16-.52 1.67a3.26 3.26 0 0 1-.3.18h-.1a3.9 3.9 0 0 0-.62.06l-.46-.03c-.45-.04-.89-.1-1.33-.18a146.28 146.28 0 0 1-1.4-.3h-.03a4.54 4.54 0 0 1-.77-.22l-.48-.2c-.05-.04-.1-.08-.14-.14l-.2-.23a.96.96 0 0 1-.14-.25 5.55 5.55 0 0 1 .01-1.45c.05-.37.08-.73.1-1.1a.86.86 0 0 1-.02-.24c0-.1.01-.19.04-.28a.78.78 0 0 1 .1-.24l.02-.01a.3.3 0 0 1 .03-.01l.04-.01.04-.02.04-.01Zm25.96 5-.03-.03a.5.5 0 0 0-.16-.08.56.56 0 0 0-.19.03.54.54 0 0 0-.08.05.66.66 0 0 0-.06.06.4.4 0 0 0-.04.08.85.85 0 0 0-.03.09c.03.24.1.46.2.68l1.2 2.44a23.45 23.45 0 0 1 1.12 2.59l.04.02.03.03a3.34 3.34 0 0 1 .12.04h.16l.07-.04a.54.54 0 0 0 .08-.05.5.5 0 0 0 .1-.2 7.03 7.03 0 0 0-.25-.86c-.31-.84-.68-1.66-1.11-2.45-.43-.79-.82-1.59-1.17-2.4ZM55.55 91.88v.01-.01Zm.02-.04a.15.15 0 0 1-.01.02v-.02Zm0-.01v-.01.01ZM66.3 70.26a.66.66 0 0 0-.2.07c-.16.24-.28.5-.36.79a21.4 21.4 0 0 1-1.1 3.06 52.76 52.76 0 0 1-1.53 3.16l.01.1.03.08.03.04.03.03a.29.29 0 0 0 .07.06l.11.03c.05.02.1.02.15 0a.36.36 0 0 0 .13-.05c.17-.23.32-.48.46-.74.51-.98.98-2 1.4-3.02a28.4 28.4 0 0 0 1.12-3.36.52.52 0 0 0-.09-.16.46.46 0 0 0-.12-.07.81.81 0 0 0-.09-.03h-.05ZM86 30.89v-.02.02Zm.02-.1v.02-.02Zm0 .05v-.01.01Zm19.31 4.68ZM53.14 84.56h.01v-.01h-.01Z"/><path fill="#CCC" d="M84.84 78.39h.11c-.83-.14-1.67-.23-2.53-.25a9.35 9.35 0 0 1-2.45-.4 30.34 30.34 0 0 1-.89 4.4c-.22.77-.4 1.56-.54 2.35a2371.46 2371.46 0 0 1-1.02 5.65v.04-.03a58.61 58.61 0 0 1-.06.45c-.3 1.62-.62 3.24-.95 4.86a123.3 123.3 0 0 0-.87 4.66H90.9c.2-.66.38-1.33.52-2.02.15-.72.28-1.45.38-2.19.03-.22.09-.43.17-.63a.4.4 0 0 1 .04-.04.86.86 0 0 1 .08-.07l.1-.03.1-.02h.11l.05.03.05.02.05.03.04.04c.22.81.44 1.64.64 2.48.2.8.36 1.6.49 2.4h14.75c-.1-.9-.25-1.78-.5-2.66-.34-1.24-.58-2.5-.7-3.77l-.13-1.18c-.15-1.53-.31-3.06-.49-4.59a40.84 40.84 0 0 0-.82-4.68 33.79 33.79 0 0 1-.28-1.69v-.02l-.01-.02v-.04c-.12-.75-.26-1.5-.41-2.23-.14-.66-.34-1.3-.6-1.9l-.04.01c-1.38.41-2.8.74-4.22 1-.4.06-.8.13-1.19.21-1.54.3-3.1.44-4.66.42l-1.36-.02a51.8 51.8 0 0 0-3.54-.1 33.2 33.2 0 0 1-2.15-.08.34.34 0 0 1-.36-.03c-.73-.08-1.44-.2-2.16-.36Z"/><path fill="#87441D" d="M97.49 10.03a6.36 6.36 0 0 1-1.82-.7 1.6 1.6 0 0 0-.72-.23 14.09 14.09 0 0 1-1.2-.15 7.26 7.26 0 0 0-2-.1 15.26 15.26 0 0 1-2.18.27c-.14 0-.29.02-.43.05-.53.12-1.06.22-1.6.3-.5.09-1.02.1-1.53.06a.83.83 0 0 0-.37.05c-.16.06-.32.16-.46.28a14 14 0 0 0-.56.49c-.37.34-.69.72-.96 1.16-.1.17-.19.35-.24.54-.06.18-.12.35-.2.52-.1.23-.19.47-.26.7a3 3 0 0 0-.12.72 21.4 21.4 0 0 0 0 1.66 2.2 2.2 0 0 0 .53 1.09 27.82 27.82 0 0 1 .58-1.8c.18-.5.4-.97.65-1.42.21-.36.46-.7.75-.98.05-.05.1-.1.16-.13.46-.25.93-.44 1.43-.58l.74-.22c.22-.07.43-.1.66-.11.51-.02 1.02-.02 1.53 0 .52.02 1.02.08 1.52.2.42.08.84.12 1.26.1.07 0 .13.02.19.05.34.2.7.33 1.1.39.24.04.49.02.73-.06.49-.16.99-.2 1.5-.11.4.07.72.27.95.6.2.28.39.57.56.86l.14.17 1.12 1.08a4.05 4.05 0 0 1 .92 1.32c.05-.34.1-.68.12-1.01.03-.26.04-.52.03-.78a2.86 2.86 0 0 0-.39-1.36.54.54 0 0 1-.06-.18 6.85 6.85 0 0 0-.35-1.4 1.09 1.09 0 0 0-.22-.35 3.85 3.85 0 0 0-1.21-.9l-.3-.1Z"/><path fill="#DE9E71" d="M100.84 18.03a.37.37 0 0 0-.17 0c-.29.06-.47.24-.56.54a.94.94 0 0 1-.05.14v.11l.02.8a12.38 12.38 0 0 1-.14 1.93l.07.06c.16.1.33.17.51.21.18.03.36.06.54.06.06 0 .13 0 .2-.02.3-.27.43-.62.42-1.04l-.06-1.79a1 1 0 0 0-.09-.4 1.04 1.04 0 0 0-.69-.6Zm.18.96c.05.06.09.13.1.22.1.5.07 1.02-.07 1.52a.57.57 0 0 1-.26.33.32.32 0 0 1-.25.04c-.26-.13-.33-.32-.2-.6.07-.18.11-.37.11-.58 0-.28 0-.56-.03-.84 0-.03.01-.07.04-.1.19-.2.38-.2.56 0Zm-17.73-.6a.84.84 0 0 1-.06-.05.85.85 0 0 0-.09-.1.93.93 0 0 0-.9.39.41.41 0 0 0-.07.18c-.07.51-.05 1.02.06 1.52l.14.57c.13.5.41.9.84 1.19.06.04.14.07.21.08h.08l.38-.24c0-.16-.02-.31-.03-.47a9 9 0 0 0-.42-2.11c-.06-.15-.09-.3-.09-.46a11.96 11.96 0 0 1-.06-.5Zm-.4.8c.27-.01.4.12.38.39v.25a3 3 0 0 0 .16 1.12c.03.12 0 .23-.08.32a.34.34 0 0 1-.26.12.37.37 0 0 1-.18-.04c-.16-.18-.26-.4-.3-.65l-.07-.62c-.04-.3.03-.58.2-.81a.18.18 0 0 1 .15-.07Zm12.43-6.35a2.1 2.1 0 0 0-.39.1 2.4 2.4 0 0 1-1.52.01c-.32-.1-.62-.22-.91-.38-.54.05-1.07.01-1.6-.12a4.58 4.58 0 0 0-.88-.13c-.54-.03-1.08-.03-1.63-.01-.38 0-.75.1-1.1.25-.24.1-.49.2-.74.27-.1.02-.19.06-.27.1l-.47.24a9 9 0 0 0-1.35 2.71 12.59 12.59 0 0 0-.38 1.59c0 .34 0 .67.04 1 .01.15.04.29.08.42.02.07.02.14 0 .2l.03.1c.14.5.25 1 .34 1.5.09.51.14 1.03.14 1.55 0 .32.02.65.06.97.06.4.1.8.11 1.2.02.27.07.52.16.77.17.48.39.94.64 1.39.25.45.5.9.77 1.33.16.27.34.53.54.78.22.22.5.37.81.44l.3.07c.5.15.98.3 1.46.47.5.17 1 .25 1.53.24.36 0 .7-.06 1.05-.16.49-.15.96-.33 1.41-.55a64.21 64.21 0 0 0 1.76-.9 15.03 15.03 0 0 0 1.96-1.34c.1-.08.17-.18.23-.3.17-.41.34-.84.48-1.27a70.06 70.06 0 0 0 .72-2.16 9.09 9.09 0 0 0 .56-3.52l-.02-1.6-.03-1.44a3.63 3.63 0 0 0-1.06-1.54l-.3-.25a7.05 7.05 0 0 1-.8-.83c-.16-.21-.3-.43-.42-.67-.19-.39-.48-.57-.9-.56l-.4.03Zm-3.39 13a14.19 14.19 0 0 0 1.16-.13c.27-.05.53-.16.76-.31l.2-.13c.13-.16.29-.21.48-.15.14.05.23.15.25.3a.47.47 0 0 1-.15.43c-.07.06-.15.11-.24.16V26h.01l-.04.02a2.86 2.86 0 0 1-1.4.53l-.77.08a10.95 10.95 0 0 1-.99.04 4.48 4.48 0 0 1-1.14-.29 3.78 3.78 0 0 1-.93-.63.82.82 0 0 1-.1-.12c-.13-.2-.12-.37.03-.55a.35.35 0 0 1 .3-.12.4.4 0 0 1 .31.18c.16.18.35.33.57.45a2.56 2.56 0 0 0 1.27.28l.42-.02Zm-.76-2.61a.72.72 0 0 1-.3-.43 1.87 1.87 0 0 1 .07-1.15c.06-.2.15-.38.25-.56a.53.53 0 0 1 .32-.26.34.34 0 0 1 .26.02c.15.08.23.2.23.37 0 .12-.04.23-.13.32a.31.31 0 0 0-.05.07 1.75 1.75 0 0 0-.18.98l.05.03a.5.5 0 0 0 .07.03l.02.01.16.08.21.06h.08c.04 0 .08-.02.12-.04a6.9 6.9 0 0 0 .15-.08.5.5 0 0 1 .53-.15c.07.02.12.06.16.1.11.15.12.3.04.46a.53.53 0 0 1-.18.2c-.16.1-.33.19-.52.26a.84.84 0 0 1-.34.06c-.21 0-.42-.05-.6-.14a2.84 2.84 0 0 1-.42-.24ZM90.28 18c.14.1.27.22.37.35.06.08.1.17.1.25.02.07.03.14.02.23a.59.59 0 0 1-.07.2l-.13.23c-.1.15-.2.28-.33.39l-.41.29a2.07 2.07 0 0 1-.78.25 6.02 6.02 0 0 1-1.08.02 2.64 2.64 0 0 1-.98-.33 2.13 2.13 0 0 1-.59-.54l-.14-.23a.5.5 0 0 1-.05-.22.4.4 0 0 1 .12-.37c.1-.17.25-.3.42-.4.05-.02.1-.06.14-.1a1.72 1.72 0 0 1 .94-.4c.09 0 .18-.02.27-.04.2-.02.4-.03.6 0l.57.05a2.46 2.46 0 0 1 1.01.37Zm3.38-.41a2.07 2.07 0 0 1 .72-.1c.17 0 .34.03.5.07a4.12 4.12 0 0 1 .98.42c.17.09.34.2.5.32a9.6 9.6 0 0 0 .34.27c.08.12.1.24.06.38a.58.58 0 0 1-.15.25l-.14.14c-.13.14-.27.26-.42.36-.17.12-.36.2-.57.25l-.6.15a4.13 4.13 0 0 1-.62.1 1.65 1.65 0 0 1-.98-.35 2.5 2.5 0 0 1-.38-.36 4.72 4.72 0 0 1-.52-.77c-.01-.16.04-.28.14-.37a6.3 6.3 0 0 1 .67-.54c.15-.1.3-.17.47-.22Zm-3.06-.85c.02.06.02.13 0 .19a.6.6 0 0 1-.04.14.4.4 0 0 1-.35.2.4.4 0 0 1-.37-.26 2.75 2.75 0 0 0-1.67-.71c-.18-.01-.36 0-.54.03a1.56 1.56 0 0 0-.45.17c-.15.1-.28.21-.38.35a4 4 0 0 0-.53 1.02.29.29 0 0 1-.08.14.4.4 0 0 1-.4.1c-.18-.06-.27-.19-.28-.39l.01-.16c.04-.17.1-.34.19-.5l.14-.23a4.21 4.21 0 0 1 .64-.82c.13-.12.27-.21.43-.28a3.1 3.1 0 0 1 .75-.22 3.42 3.42 0 0 1 1.42.14l.48.2a2.96 2.96 0 0 1 .86.61c.08.08.13.18.17.28Zm3.33-1.1a3 3 0 0 1 1.3.13l.5.14a2.4 2.4 0 0 1 .7.38 7.82 7.82 0 0 1 .55.48.4.4 0 0 1 .12.47.41.41 0 0 1-.37.29.4.4 0 0 1-.4-.28 3.61 3.61 0 0 0-.45-.37c-.15-.1-.3-.18-.48-.23l-.54-.15a2.54 2.54 0 0 0-.86-.05h.04c-.2 0-.38.07-.56.18l-.32.23a1.1 1.1 0 0 0-.32.42.4.4 0 0 1-.4.27.36.36 0 0 1-.19-.05.4.4 0 0 1-.18-.45 2 2 0 0 1 .72-.92c.15-.1.3-.2.45-.28.12-.07.24-.12.38-.15l.3-.05Zm20.02 26.4a7.43 7.43 0 0 0-1.13-1.87 6.17 6.17 0 0 0-1.7-1.44c-.5-.29-1.01-.55-1.54-.78-.7-.3-1.4-.59-2.12-.83a56.07 56.07 0 0 1-1.92-.7 18.27 18.27 0 0 1-.55-.18l-1.86-.66c-.33-.12-.65-.25-.96-.39H102a.33.33 0 0 1-.17-.09 6.08 6.08 0 0 0-.23-.17 18 18 0 0 1-.23-.12l.02-.03a4.39 4.39 0 0 1-1.01-.74c-.02 0-.03-.02-.04-.03l.02.02c-.27-.21-.55-.42-.87-.63-.31-.2-.58-.46-.8-.75a13.75 13.75 0 0 0-.19-.25 3.79 3.79 0 0 1-.7-1.38c-.14-.5-.25-1.02-.32-1.54a6.05 6.05 0 0 0-.38-1.4l-.8.53c-.44.3-.88.56-1.35.79a72.78 72.78 0 0 1-1.5.7h-.03a.53.53 0 0 0-.1.05.52.52 0 0 1-.05.02l-.1.04c-.35.14-.7.26-1.06.36a3.78 3.78 0 0 1-1.18.14 5.65 5.65 0 0 1-1.51-.27c-.5-.16-.98-.3-1.48-.44a5 5 0 0 1-1.05-.42l-.02.46a16.9 16.9 0 0 1-.14 1.54 5.68 5.68 0 0 1-.67 1.96 1.7 1.7 0 0 1-.63.58 8.2 8.2 0 0 1-1.2.63l-.16.07a27.4 27.4 0 0 1-3.6 1.13 13.24 13.24 0 0 0-1.82.56l-2.23.8c-.74.25-1.45.51-2.14.78-.69.26-1.29.65-1.81 1.16a7.5 7.5 0 0 0-1.61 2.32 12.22 12.22 0 0 0-1 3.6c-.1.8-.16 1.6-.2 2.4-.02.76-.06 1.5-.12 2.24 0 .07-.04.12-.09.16a.5.5 0 0 1-.08.05c.05.04.09.1.1.2.14.58.25 1.17.35 1.76a63.52 63.52 0 0 1 2-3.28 12.44 12.44 0 0 1 3.12-3.26.86.86 0 0 1 1-.06 1.29 1.29 0 0 1 .58.6.2.2 0 0 1 .07.08c.1.2.15.42.14.66 0 .15 0 .3.04.44.06-.01.12 0 .18.04.22.15.32.37.33.66.05.06.1.13.12.22l.22.57c.27.65.57 1.3.9 1.91a6.22 6.22 0 0 0 4.97 3.34l.2.03c.82.11 1.65.1 2.47-.02.82-.12 1.64-.31 2.43-.57a4.8 4.8 0 0 0 2-1.24c.2-.21.34-.46.43-.74.1-.34.2-.69.26-1.04.08-.39.3-.5.65-.35.1.05.15.13.15.24a4.47 4.47 0 0 1-.84 2.36 3.02 3.02 0 0 1-1.1.94H90.52c.52 0 1 .16 1.43.48a.6.6 0 0 1 .18.2c.1 1.17.02 2.31-.22 3.45a.52.52 0 0 1-.24.34c-.73.46-1.48.88-2.26 1.27-.25.12-.51.28-.8.48a6.95 6.95 0 0 1-2.8 1.25.89.89 0 0 0-.13.12 1 1 0 0 1-.2.17h-.04a.06.06 0 0 0-.03.03.06.06 0 0 0-.02.03l-.02.05-.02.04-.02.04-.03.03-.04.03a.77.77 0 0 1-.07.05.47.47 0 0 1-.23.02.85.85 0 0 1-.09-.04.19.19 0 0 1-.03-.03.18.18 0 0 1-.04-.03.3.3 0 0 1-.03-.03.29.29 0 0 1-.02-.04.77.77 0 0 1-.04-.08 4.27 4.27 0 0 0-.01-.1v-.1c-.05-1.25.01-2.5.2-3.76a4.92 4.92 0 0 1 1.27-2.66 10.94 10.94 0 0 1-.92.1c-.8-.02-1.6-.08-2.4-.2a6.54 6.54 0 0 1-2.23-.79 7.36 7.36 0 0 1-1.68-1.3c.06.67.06 1.34-.02 2.02-.08.74-.1 1.48-.06 2.22a166.2 166.2 0 0 1 .15 3.52c0 .02 0 .05-.02.07a.47.47 0 0 0-.03.03.73.73 0 0 1-.07.06l-.04.02h-.03c.24.67.46 1.35.65 2.03l.12-.22c.1-.18.22-.32.36-.43-.26-.39-.5-.79-.7-1.2a.53.53 0 0 1-.02-.47c.22-.5.52-.95.9-1.33a6.58 6.58 0 0 1-1-1.13l-.01-.04v-.05c.14-.33.4-.58.76-.74.8-.35 1.58-.74 2.33-1.17.7-.4 1.36-.34 1.96.17.58.48.74 1.09.49 1.8a14.5 14.5 0 0 1-.5 1.22l.02-.04-.1.24a1.1 1.1 0 0 1-.15.3l-.04.03a.23.23 0 0 1-.03.02c.43.85.59 1.77.48 2.75a2.03 2.03 0 0 1-.3.86c.13.2.2.46.23.76.1 1.05.13 2.1.1 3.15 0 .33-.16.58-.46.75l.06.1a4.89 4.89 0 0 1 .46 3.39.95.95 0 0 1-.46.63c-.25.15-.5.25-.76.31.52.45.98.96 1.37 1.53a22.73 22.73 0 0 1 1.56 2.59 13.78 13.78 0 0 1-.31-3.64l.03-.93a.54.54 0 0 1-.07.05.48.48 0 0 1-.04.02.53.53 0 0 1-.13.03h-.05a2.25 2.25 0 0 1-.1-.03.5.5 0 0 1-.04-.02 3.56 3.56 0 0 1-.68-1.95c-.04-.7-.05-1.4-.04-2.1a4.23 4.23 0 0 1 .06-.64l.08-.53c.02-.15.09-.28.2-.38a.4.4 0 0 1 .14-.1c.95-.11 1.9-.24 2.84-.38.36-.05.72-.1 1.09-.11a82.3 82.3 0 0 1 2.32-.1c.56.35.77.89.65 1.6a2.7 2.7 0 0 0-.04.53 6.46 6.46 0 0 1-.63 2.99.52.52 0 0 1-.2.23 4.21 4.21 0 0 1-3.48.47c-.37-.1-.75-.14-1.13-.12a.99.99 0 0 0-.64.24.58.58 0 0 1-.02.15l.02-.02a.32.32 0 0 1 .23-.07.35.35 0 0 1 .29.17l2.6.15c.61.04 1.23.06 1.84.06.11 0 .22.03.32.08.08.05.16.1.22.17.04.04.06.09.08.14a8.57 8.57 0 0 1 .08.2 1 1 0 0 0 .42.1h.31a3 3 0 0 0 1.47-.96c.04-.05.1-.07.17-.06.6.05 1.2.14 1.8.25.7.13 1.4.17 2.1.11a4.83 4.83 0 0 1 1.03.04 8.85 8.85 0 0 0 .12.08c.43 1.07.4 2.14-.12 3.2-.34.73-.65 1.46-.92 2.2.41-.83.83-1.66 1.27-2.49a10.22 10.22 0 0 1 2.16-2.8.68.68 0 0 1-.1-.05 2.35 2.35 0 0 1-.8-1.93c.02-.54.1-1.06.22-1.56.05-.2.14-.37.27-.53l.1-.11a2.53 2.53 0 0 1-.92-1.89c-.03-.7.03-1.4.19-2.08.06-.25.18-.47.36-.64a1.32 1.32 0 0 1-.4-.93 14 14 0 0 1-.03-1.53 2.32 2.32 0 0 1 .66-1.57c-.11-.08-.22-.2-.32-.36a3.41 3.41 0 0 1-.47-2.26c.03-.28.15-.52.35-.7.37-.38.83-.53 1.35-.47.15.02.28.08.39.19.36.36.75.68 1.18.96.51.32 1.07.47 1.7.45a.3.3 0 0 1 .18.06c.15.17.17.36.05.57a2 2 0 0 1-.3.4 1.97 1.97 0 0 0-.2.29 10.5 10.5 0 0 0-.32.43v.01a1.59 1.59 0 0 1-.08.1l-.02.02c-.08.11-.16.23-.22.36l-.02.04.23.23c.3.33.58.65.82.97.1.13.12.27.05.41a5.3 5.3 0 0 1-.78 1.26c.18.13.33.31.47.54.05.09.08.18.1.27a27.08 27.08 0 0 1 .93-2.69.35.35 0 0 1-.09-.16.88.88 0 0 1-.01-.07v-.07a.43.43 0 0 1 .02-.06l-.21-3.27a167.27 167.27 0 0 0-.23-3.33 6.52 6.52 0 0 1-3.61 1.73 11.01 11.01 0 0 1-2.54.02l-.06-.01-.1-.02c-.45-.06-.9-.15-1.34-.28.7.68 1.18 1.52 1.45 2.51.16.62.3 1.25.38 1.88.09.58.05 1.14-.11 1.68a.48.48 0 0 1-.28.3.54.54 0 0 1-.38.04 4 4 0 0 1-1.4-1.13.95.95 0 0 0-.3-.27 35.3 35.3 0 0 1-1.9-1.07 4.2 4.2 0 0 0-2.24-.62.65.65 0 0 1-.1.05l-.05.01h-.06a.63.63 0 0 1-.14-.02.23.23 0 0 1-.04-.02l-.04-.03a.65.65 0 0 1-.06-.07 6.78 6.78 0 0 1 .05-2.8c.06-.25.1-.5.11-.75.05-.6.3-1.06.78-1.35a.56.56 0 0 1 .27-.09 2.79 2.79 0 0 1 .78.07h.02l.2.03a8 8 0 0 1-1.17-1.3c-.32-.46-.63-.93-.92-1.4-.24-.29-.2-.51.13-.68.11-.05.21-.04.3.04.21.17.39.39.52.64.4.71.89 1.35 1.48 1.91.59.56 1.26 1 2 1.32.62.27 1.27.46 1.94.58h-.07a33.81 33.81 0 0 1 .4.05l.18.01c.79.08 1.58.07 2.37-.05a5.2 5.2 0 0 0 2.21-.89 7.7 7.7 0 0 0 1.74-1.63h-.02l.1-.15c.21-.36.39-.74.52-1.13.13-.42.23-.85.28-1.28 0-.05.02-.1.04-.16a1.05 1.05 0 0 1 .03-.16l.01-.06c0-.15.06-.26.16-.33a10.97 10.97 0 0 1 .2-1.26l.03-.24c.03-.49.11-.96.23-1.43a.27.27 0 0 1 .05-.1l.08-.08c.37-.15.72-.09 1.06.2l.34.24a9.65 9.65 0 0 1 2.63 2.45l1.75 1.95c.47.53.92 1.09 1.33 1.67l.05-.35v-.17a9.08 9.08 0 0 1 .2-1.5l.07-.08a7.41 7.41 0 0 1-.38-1.01.64.64 0 0 1-.02-.22c.04-.78 0-1.56-.1-2.34a6.23 6.23 0 0 1-.05-.7h-.03l-.12-1.83a5.35 5.35 0 0 0-.37-1.52v-.01l-.07-.17ZM92.37 67.1c-.13-.75.13-1.26.77-1.53.19-.08.38-.13.59-.16a5.5 5.5 0 0 1 1.46-.04c1.3.12 2.6.32 3.87.61.42.1.7.36.83.78.31.95.39 1.93.22 2.94-.1.59-.32 1.12-.68 1.58-.2.25-.44.4-.75.43l-.87.1c-1.23-.12-2.46-.31-3.67-.58a2.5 2.5 0 0 1-1.5-.96 2.2 2.2 0 0 1-.43-1.73c.08-.48.13-.96.16-1.44Zm-7.13-4.42c.03-.15.1-.28.21-.38.46-.4.94-.78 1.44-1.14.33-.23.68-.43 1.05-.58.44-.2.89-.38 1.33-.56.65-.27 1.33-.46 2.01-.6.12-.02.24-.02.36 0a.5.5 0 0 1 .17.1.51.51 0 0 1 .08.13c.18.9.22 1.82.13 2.75-.06.62-.16 1.24-.3 1.84a.67.67 0 0 1-.3.44 3.6 3.6 0 0 1-2.12.5c-.21 0-.42.02-.62.07a17.09 17.09 0 0 1-1.98.39 2.79 2.79 0 0 1-.32.03 1.9 1.9 0 0 1-.49.07h-.17a.99.99 0 0 0-.05.03l-.06.01-.06.02H85.4a1.03 1.03 0 0 1-.13.02.47.47 0 0 1-.1-.01.77.77 0 0 1-.08-.04.19.19 0 0 1-.03-.02.19.19 0 0 1-.04-.03.3.3 0 0 1-.03-.04.28.28 0 0 1-.02-.03.77.77 0 0 1-.04-.08v-.05l-.01-.05c.06-.94.17-1.87.32-2.79Zm11.56-2.4h.01v.01a32.07 32.07 0 0 1 .95.49c.7.3 1.29.77 1.75 1.38.45.58.6 1.24.48 1.98-.08.47-.29.88-.62 1.23a.57.57 0 0 1-.32.1H98.84l-2.79-.18a16.6 16.6 0 0 1-2.77-.43 1.96 1.96 0 0 1-.84-.42.58.58 0 0 1-.1-.08.99.99 0 0 1-.04-.04 3.05 3.05 0 0 1-.23-1.33c.03-.48.09-.96.18-1.44.03-.2.04-.37.02-.54a.67.67 0 0 1-.07-.13v-.56c0-.18.01-.36.05-.53a.65.65 0 0 1 .15-.3.68.68 0 0 1 .25-.17.92.92 0 0 1 .4-.06c.12 0 .24.03.36.08.1 0 .21.02.32.04l.37.05c.08 0 .15.02.22.05.49.04.96.14 1.41.33a16 16 0 0 1 1.07.48Zm5.83-4.29h-.01l.02.02a.4.4 0 0 1-.01-.02ZM81.5 37.66v-.09a4.27 4.27 0 0 1 .02-.13c.35-.33.78-.39 1.29-.18.5.2 1.04.35 1.58.44.65.1 1.25.33 1.8.69a.41.41 0 0 1 .1.05.57.57 0 0 1 .06.06l.02.04.02.04.02.04v.05a.47.47 0 0 1 0 .09c0 .03 0 .06-.02.08 0 .03-.02.05-.03.07a.53.53 0 0 1-.05.06.58.58 0 0 1-.06.05.54.54 0 0 1-.1.03.37.37 0 0 1-.17 0 5.33 5.33 0 0 0-1.64-.64c-.45-.1-.88-.2-1.32-.34a5.31 5.31 0 0 0-1-.2.64.64 0 0 1-.07.03.34.34 0 0 1-.1.03.4.4 0 0 1-.21-.07.34.34 0 0 1-.1-.11l-.02-.04-.02-.05Zm17.08.63.02-.05.02-.04c.32-.22.7-.33 1.13-.33.5 0 1 0 1.5-.02.53-.03 1.05-.02 1.57.01.07 0 .11.05.14.12.1.33-.02.51-.4.53l-3.02.13c-.2.01-.41.04-.62.09a.33.33 0 0 1-.15-.04.4.4 0 0 1-.12-.09.32.32 0 0 1-.08-.22v-.05l.01-.04Zm-24.61 2.23c.34-.33.73-.47 1.18-.42.05 0 .1.02.15.05.1.08.16.2.19.33.02.12 0 .23-.08.33a.32.32 0 0 1-.28.15h-.04a.84.84 0 0 1-.07-.02.28.28 0 0 1-.07-.04.34.34 0 0 1-.06-.05.55.55 0 0 1-.05-.05c-.59.38-1.01.9-1.28 1.55a3.78 3.78 0 0 0-.27 1.89c.02.16.02.32 0 .48a.3.3 0 0 1-.27.27.36.36 0 0 1-.32-.12l-.02-.03a.7.7 0 0 1-.05-.1c-.18-.89-.1-1.75.25-2.59.25-.61.62-1.16 1.09-1.63Zm17.97 1.94c0-.06.03-.1.09-.12.34-.12.53 0 .56.39.08.84.05 1.68-.1 2.51a.6.6 0 0 1-.11.12.71.71 0 0 1-.07.04l-.04.02h-.05a.25.25 0 0 1-.1 0 .4.4 0 0 1-.04 0 .44.44 0 0 1-.13-.08 1.59 1.59 0 0 1-.06-.05.76.76 0 0 1-.06-.17c.1-.89.13-1.78.11-2.66Zm18.08-1.96a3.2 3.2 0 0 1 1.28 2.11c.04.25.06.49.06.74a.3.3 0 0 1-.1.16.44.44 0 0 1-.13.09.32.32 0 0 1-.12.02h-.05l-.04-.01a2.92 2.92 0 0 1-.12-.06l-.04-.03-.02-.04a.3.3 0 0 0-.03-.03c-.02-.62-.2-1.2-.53-1.73-.16-.27-.37-.5-.61-.7a4 4 0 0 0-1.25-.71.3.3 0 0 1-.04.01h-.04a2.9 2.9 0 0 0-.08 0h-.05a1 1 0 0 1-.03-.01.34.34 0 0 1-.19-.18.34.34 0 0 1-.03-.17c0-.06.02-.12.05-.17a.28.28 0 0 1 .06-.07 1.58 1.58 0 0 1 1.56.38l.49.4Zm-27.26 9.92c.07-.05.14-.06.22-.02.3.17.32.37.07.6a.24.24 0 0 1-.17.07c-.4-.15-.44-.37-.12-.65Zm19.28.23c.14-.4.36-.44.64-.11.06.06.06.13.02.21-.17.3-.37.32-.6.07a.24.24 0 0 1-.06-.17Zm-5.27 10.4a8.5 8.5 0 0 0-3.18-.99 9.96 9.96 0 0 1-.64-.1c-.02 0-.03.01-.03.03-.02.06-.02.13-.02.2v.28l.03.03.03.04.03.04.02.04c0 .43-.03.87-.1 1.31-.06.38-.09.76-.08 1.14v.78c.65.39 1.37.6 2.17.63.87.04 1.73.12 2.6.25.2.03.4.04.62.03h.74c.29-.53.37-1.1.23-1.72a1.5 1.5 0 0 0-.41-.74 4.09 4.09 0 0 0-1.34-.9 9.24 9.24 0 0 0-.67-.36Zm-9.3.55c-.26.21-.52.4-.8.59-.25.17-.5.35-.73.55l-.1.16a1.17 1.17 0 0 0-.09.33v.02-.02l.01-.05a3.31 3.31 0 0 0-.02.32v.71a3.1 3.1 0 0 1-.07.84c.75-.08 1.5-.2 2.25-.4.82-.2 1.65-.3 2.5-.32.11 0 .23-.03.34-.09.12-.06.23-.13.34-.21.07-.5.11-1.01.13-1.52l.1-1.76c.02-.2 0-.4-.05-.6-.87.24-1.73.5-2.59.78-.44.15-.85.38-1.22.67Zm6.08 4.58a3.58 3.58 0 0 1-.23.01l-.04.02h-.04a.3.3 0 0 0-.03.02h-.02a.78.78 0 0 0-.1.25c-.03.09-.04.19-.05.28 0 .08 0 .16.03.24-.02.37-.05.73-.1 1.1a5.54 5.54 0 0 0 0 1.45c.03.09.08.17.14.25a489.58 489.58 0 0 0 .32.37l.48.2a3.53 3.53 0 0 0 .78.23h.03-.03l1.43.29a11.46 11.46 0 0 0 1.79.21 6.29 6.29 0 0 1 .72-.06 1.21 1.21 0 0 0 .3-.18c.28-.52.46-1.07.52-1.67a6.22 6.22 0 0 0-.18-2.2 3.27 3.27 0 0 0-.25-.33 36.32 36.32 0 0 0-3.81-.58 3.9 3.9 0 0 1-.6-.1l-.5.12c-.19.05-.37.08-.56.08Zm27.76 16.76-.08.04.43 1.09v-.01c.08.2.15.4.2.6.02.1.02.17-.01.23.11.42.16.85.12 1.28a8.83 8.83 0 0 0 .09 1.96l.04.35v-.02c0-.05.01.01.05.18.17.83.37 1.66.57 2.48.19.75.41 1.49.67 2.22.05.13.09.26.12.4.17.78.4 1.54.68 2.29.14.36.3.7.49 1.04.05.1.13.18.23.23.04 0 .08 0 .12-.03l.11-.1a.72.72 0 0 0 .1-.1c.07-.52.02-1.04-.18-1.55a15.2 15.2 0 0 1-.51-1.54c0 .03-.01-.03-.07-.18a7.18 7.18 0 0 1-.33-1.13c-.05-.23.04-.37.26-.43.2-.06.36 0 .47.19a12.28 12.28 0 0 0 .38 1.17l.02.07.06.18c.27.77.5 1.54.7 2.33.02.03.03.07.03.1.17.19.3.4.38.66.05.18.12.37.2.56.12.33.3.64.5.92.14.17.3.3.51.36a3.12 3.12 0 0 0 .36-.03c.05-.39 0-.79-.17-1.2-.3-.77-.55-1.55-.76-2.35-.24-.97-.5-1.94-.75-2.9a.16.16 0 0 1 .04-.16c.25-.28.47-.27.69.04.05.07.09.15.11.24.23.79.45 1.58.64 2.37.19.76.43 1.51.71 2.25.1.23.16.47.2.7l.06.09a3.5 3.5 0 0 0 .98 1.23h.04l.04-.01.03-.01c.15-.3.21-.63.18-.98-.03-.32-.06-.64-.11-.96l-.03-.2a.55.55 0 0 0 0 .07 5.7 5.7 0 0 1-.1-.6l.01.03v.02c-.15-.88-.37-1.74-.63-2.6-.25-.78-.5-1.55-.78-2.31a.16.16 0 0 1 .02-.14c.18-.3.4-.32.65-.08.08.08.14.17.19.27l.1.25.05.15c.25.73.48 1.47.7 2.21.17.58.32 1.16.43 1.75.15.12.25.29.3.5.07.3.21.55.44.75.04.02.08.04.13.04a54.67 54.67 0 0 0 .27 0c.11-.84.1-1.66-.06-2.45-.18-.97-.42-1.92-.7-2.86-.25-.8-.5-1.62-.72-2.43a26 26 0 0 0-.46-1.52 9.55 9.55 0 0 1-.22-.73 9.74 9.74 0 0 1-.26-.12.21.21 0 0 1-.11-.15c-.1-.4.04-.6.45-.57.11 0 .2.05.25.15a9.85 9.85 0 0 1 2.56 1.15l.02.01h.01a2.85 2.85 0 0 0 .74.22h.01l.03-.02.02-.01.03-.02.02-.02.02-.02.02-.03c-.04-.39-.23-.71-.55-.97a11.3 11.3 0 0 1-.93-.8 2.47 2.47 0 0 0-.25-.22l-.05-.04-.15-.1-.02-.02-.1-.08c-.15-.1-.28-.22-.41-.34a3.31 3.31 0 0 0-.4-.33l-.05-.03a7.89 7.89 0 0 0-2.08-1.05 3.27 3.27 0 0 1-2.13-2.16l-.06.02a.81.81 0 0 1-.15 0l-.04-.03a.5.5 0 0 1-.04-.02l-.04-.02-.05-.03a5.6 5.6 0 0 0-2.47.47l-2.07.9Zm-2.43-22.83a.45.45 0 0 1-.16-.33l-.29 1.34c-.14.7-.33 1.4-.54 2.1-.1.3-.16.59-.2.9-.06.35-.22.6-.47.78-.01.18-.13.28-.33.31-.74-.2-1.46-.43-2.18-.7a30.82 30.82 0 0 0-1.94 2.75 29.34 29.34 0 0 0 1.5 4.22c.4.78.77 1.58 1.1 2.4a9.62 9.62 0 0 0 1.4 2.42l.11.14a.2.2 0 0 0-.01-.02l.03.04.02.02v.01l.08.1c.44.6.93 1.16 1.45 1.7.55.57 1.02 1.19 1.44 1.85a13.39 13.39 0 0 1 1.08 2.19l2.37-1.05a5.8 5.8 0 0 1 1.7-.45c.3-.03.62-.01.92.05a25.1 25.1 0 0 1-.76-2.14l-.67-2.25c-.23-.77-.41-1.54-.56-2.32a58.73 58.73 0 0 0-1.08-4.64 34.3 34.3 0 0 1-.56-2.28c-.16-.77-.36-1.52-.62-2.26-.26-.74-.58-1.46-.95-2.15-.37-.7-.79-1.37-1.24-2-.19-.27-.4-.5-.64-.73Zm.4 11.03.04.02c.35.82.74 1.62 1.17 2.41.42.8.8 1.6 1.1 2.45.1.28.2.57.26.85a.62.62 0 0 1-.08.17l-.02.03a.63.63 0 0 1-.16.09.57.57 0 0 1-.1.02.77.77 0 0 1-.11-.02l-.06-.03a1.04 1.04 0 0 1-.1-.09c-.31-.87-.67-1.72-1.08-2.55a567 567 0 0 1-1.2-2.44c-.11-.22-.18-.44-.22-.68l.03-.09a.4.4 0 0 1 .05-.08.81.81 0 0 1 .06-.06.58.58 0 0 1 .08-.05.58.58 0 0 1 .18-.03.63.63 0 0 1 .17.08ZM58.94 81.57c-.1 0-.19-.02-.28-.04l-.24.41c-.1.17-.23.3-.4.42a21.5 21.5 0 0 1-1.51 1.01l.02-.01v-.01h.02v-.02c-.35.26-.69.46-1.03.6a5.43 5.43 0 0 0-1.36.8h.02a5.02 5.02 0 0 1-.02 0c-.42.35-.82.7-1.21 1.07-.34.33-.7.64-1.07.94a2.2 2.2 0 0 0-.35.35 1.5 1.5 0 0 0-.18.6.88.88 0 0 0 .17.17l.1.06c.48-.04.93-.21 1.32-.53.52-.4 1.1-.65 1.74-.74.4-.06.61.1.65.45 0 .1-.03.18-.1.23a.68.68 0 0 1-.21.11 21.6 21.6 0 0 0-.62 1.8 6.3 6.3 0 0 0-.24 1.32.6.6 0 0 1-.02.34c-.2.6-.36 1.21-.45 1.83a50.1 50.1 0 0 1-.56 2.31c-.18.63-.32 1.26-.43 1.9-.1.53.03 1 .38 1.4.13.15.3.22.5.23.2-.3.36-.61.47-.96.04-.21.1-.43.18-.64.22-.6.4-1.22.55-1.84l.39-1.86c.1-.5.24-.98.42-1.46v.02l.04-.15c.1-.3.28-.38.56-.27.12.05.18.14.19.26.01.22 0 .4-.05.54-.23.6-.41 1.22-.53 1.86-.12.62-.26 1.24-.42 1.86l-.53 1.88c-.12.41-.13.83-.01 1.24l.03.01.04.03a.77.77 0 0 0 .1.02H55l.03-.02c.45-.56.78-1.19.98-1.9.02-.1.07-.2.13-.27l.08-.3.51-1.83a27.35 27.35 0 0 1 .74-2.24c0-.38.17-.61.53-.69.07-.02.13 0 .19.04.21.17.27.38.15.65l-.25.64c-.2.58-.4 1.16-.56 1.75a404.05 404.05 0 0 1-.62 2.15c0 .1 0 .19-.06.29-.06.45-.06.9.02 1.35.04.03.1.05.15.06a.92.92 0 0 0 .35 0c.36-.34.61-.75.76-1.24a42.03 42.03 0 0 0 .37-1.36l.33-.98c.28-.87.53-1.75.72-2.63.04-.2.12-.36.24-.5a.68.68 0 0 1 .08-.07.6.6 0 0 1 .1-.04l.04-.01h.11l.05.01a.59.59 0 0 1 .1.04l.04.03a.36.36 0 0 1 .1.12l.03.04a1.64 1.64 0 0 0 .02.1v.11c-.16.73-.36 1.46-.59 2.17-.22.68-.4 1.37-.55 2.07a2.94 2.94 0 0 0-.05.48 1.1 1.1 0 0 1 .16-.02l.05-.05a202.13 202.13 0 0 1 .15-.14 2192.13 2192.13 0 0 0 2.62-6.83c.55-1.4.72-2.82.52-4.27a3.68 3.68 0 0 1 .06-1.31.37.37 0 0 1 .1-.12.93.93 0 0 1 .08-.05 13.9 13.9 0 0 1 .38-1.27 2.78 2.78 0 0 1-.15-.04c-.68-.37-1.38-.7-2.1-.95a9 9 0 0 0-2.22-.5Zm-3.36 10.27v-.01.02a.13.13 0 0 1-.01.01v-.01Zm-.03.06.01-.02v.02Zm10.24-31.78-.2.37c-.39.7-.76 1.4-1.13 2.1-.36.7-.68 1.4-.98 2.11-.3.74-.59 1.48-.85 2.23a20 20 0 0 0-.59 1.98c-.18.77-.35 1.55-.5 2.33a22.1 22.1 0 0 1-.58 2.31c-.24.75-.42 1.51-.57 2.28-.15.78-.31 1.55-.5 2.32a19.4 19.4 0 0 1-.71 2.3v.04c0 .09-.03.17-.07.26a2.3 2.3 0 0 1-.05.08c.6.07 1.18.19 1.75.37a13.82 13.82 0 0 1 2.86 1.26 7.58 7.58 0 0 1 .38-.67 78.78 78.78 0 0 1 3.37-5.72c.74-1.2 1.55-2.35 2.43-3.46.16-.2.3-.41.42-.64a9.57 9.57 0 0 0 .8-2c.32-.99.6-2 .85-3.01a6.23 6.23 0 0 1-1.64-1.53c-.21-.28-.33-.6-.34-.96l-.03-.73-.9.46c-.28.15-.55.32-.8.52-.2.16-.43.28-.68.34-.1.03-.2 0-.28-.07a.35.35 0 0 1-.1-.25c0-.08.02-.14.07-.2a1.63 1.63 0 0 1-.13-.84c-.2-.53-.4-1.06-.62-1.58a19.5 19.5 0 0 1-.68-2Zm.4 10.16a.44.44 0 0 1 .17-.03l.1.03a.46.46 0 0 1 .11.07l.05.08a.52.52 0 0 1 .05.13 28.4 28.4 0 0 1-1.13 3.3c-.42 1.04-.89 2.05-1.4 3.03-.14.26-.3.5-.47.74a.36.36 0 0 1-.12.05.28.28 0 0 1-.15 0 1.18 1.18 0 0 1-.11-.03.28.28 0 0 1-.07-.06.18.18 0 0 1-.04-.03.73.73 0 0 0-.02-.04.57.57 0 0 1-.04-.22 52.76 52.76 0 0 0 1.52-3.12c.45-1 .82-2.01 1.1-3.06.08-.3.2-.55.37-.8a.67.67 0 0 1 .09-.04Zm10.94-14.91.02.01c.3.63.53 1.28.71 1.97.12.44.24.88.37 1.3.02-.87.01-1.75-.03-2.63-.04-.79-.03-1.58.03-2.38.04-.62.04-1.24-.01-1.86a.55.55 0 0 1 .04-.09 7.37 7.37 0 0 1-.8-1.42l.03.66c0 .1-.01.2-.04.27.15 1.41.04 2.8-.32 4.17Zm29.93-3.73-.01-.19a6.86 6.86 0 0 1-.5.9h-.01l-.02.03-.03.03a7.7 7.7 0 0 1-.26.32 71.89 71.89 0 0 1 .18 3.46c.01.93.08 1.86.2 2.77.1-.22.18-.44.26-.65.35-.9.47-1.8.36-2.74a1.37 1.37 0 0 1 .08-.13c.02 0 .03-.02.04-.03l.04-.03.1-.04.04-.01c-.1-.45-.18-.9-.24-1.37a37.9 37.9 0 0 1-.23-2.32Zm-5.3 4.51a3.9 3.9 0 0 0-.57.16.8.8 0 0 0-.05.04l-.06.05-.07.05c-.2.36-.24.73-.11 1.12a4.04 4.04 0 0 0 .58 1.15 3.74 3.74 0 0 1 .1 0 .34.34 0 0 1 .28.13 2.6 2.6 0 0 1 1.81.14c.07-.12.14-.24.23-.36l.5-.69.06-.09a1.87 1.87 0 0 1 .08-.1c-.52-.03-1-.18-1.45-.48a5.72 5.72 0 0 1-1.05-.89c-.09-.09-.18-.17-.28-.23Zm-.43 3.79a.64.64 0 0 0-.06.05 4.57 4.57 0 0 0-.02 2.85.5.5 0 0 0 .1.05h.02c.58-.36 1.2-.64 1.87-.82.23-.06.44-.09.64-.07l.27-.4a9.17 9.17 0 0 1 .52-.71 6.1 6.1 0 0 0-1.35-1.25c-.15-.1-.33-.16-.51-.18a1.94 1.94 0 0 0-1.48.48Zm2.99 3.24a1.4 1.4 0 0 1 0-.14l.02-.04a4.28 4.28 0 0 1-.2-.22.55.55 0 0 0-.14-.06l-.14-.04c-.44 0-.85.12-1.23.32l-1 .58a2.58 2.58 0 0 0-.5.43l-.03.04-.02.04a5.5 5.5 0 0 0-.16 1.47c.02.45.1.9.25 1.33.04.1.09.2.15.28l.1.1.1.08.03.02c.06.02.1.05.14.08.18-.12.36-.22.56-.3a70.3 70.3 0 0 1 2.17-.92l.05-.25a27.72 27.72 0 0 1 .45-2.1l-.04-.02a1.62 1.62 0 0 0-.42-.46.71.71 0 0 1-.07-.06 1.05 1.05 0 0 1-.06-.12l-.01-.04Zm-21.03-7.03c-.55.05-1.05.24-1.51.57-.21.15-.44.28-.68.38-.38.16-.74.35-1.09.56.05.16.16.3.35.44.16.12.28.25.37.4a5.58 5.58 0 0 1 2.68.45l.03-.05a29.2 29.2 0 0 0 .6-1.67.94.94 0 0 0 .05-.22.78.78 0 0 0-.26-.52 2.11 2.11 0 0 0-.5-.33h-.04Zm-2.3 3.03h-.16c-.2.19-.37.38-.54.59a2.76 2.76 0 0 0-.4.66c.08.2.19.4.33.57a5.29 5.29 0 0 1 .48.67.4.4 0 0 1 .05.02h.01c.96.16 1.87.47 2.72.94.18-.43.24-.89.2-1.37a3.66 3.66 0 0 0-.58-1.73c-.34-.15-.7-.25-1.08-.3a7.11 7.11 0 0 0-1.03-.05Zm-.34 3.2h-.08l-.02-.01h-.05l-.06.01c-.16.19-.28.4-.36.63a3.24 3.24 0 0 1-.3.57 33.43 33.43 0 0 1 .44 2 7.12 7.12 0 0 1 3.17 1.56h.15l.05-.03a.78.78 0 0 0 .14-.12c.04-.61.02-1.23-.04-1.85-.03-.28-.06-.55-.07-.83a3.58 3.58 0 0 0-.14-.85 9.02 9.02 0 0 1-.95-.51 3.44 3.44 0 0 0-1.27-.41 5.21 5.21 0 0 1-.4-.13l-.02-.01a1.9 1.9 0 0 1-.19-.01Zm23.13 4.86c-.65.23-1.25.54-1.8.93-.11.08-.2.17-.29.27a8.61 8.61 0 0 1-.28.33l-.01.04-.02.04-.01.04-.01.04c0 .29-.02.58-.04.87-.03.31-.01.62.04.93l.01.07c.01.1.04.2.08.29.03.09.07.17.12.25a.3.3 0 0 0 .1.1c.13 0 .27-.01.4-.05a7.86 7.86 0 0 0 .86-.28h.01l.03-.02a5.01 5.01 0 0 0 .34-.2.22.22 0 0 1 .08-.1.36.36 0 0 1 .11-.04.33.33 0 0 1 .23.02.4.4 0 0 1 .08.06c.17-.04.34-.06.5-.07a22.05 22.05 0 0 1 .02-3.75c-.18.09-.36.16-.55.23Zm-20.45.83-.23-.24c-.4-.37-.84-.69-1.32-.94a7.6 7.6 0 0 0-1.12-.48l-.2-.02a.88.88 0 0 1-.15-.05c.05.52.06 1.05.04 1.58-.03.86-.13 1.7-.29 2.54l.08.05a.47.47 0 0 1 .12-.05h.1l.12.01a1.7 1.7 0 0 1 .1.04 13.64 13.64 0 0 1 1.84 1.05l.1-.01c.38 0 .74-.08 1.07-.26a.6.6 0 0 0 .19-.15c.08-.53.09-1.07.02-1.62a4.55 4.55 0 0 0-.28-1.13l-.08-.14-.1-.18Zm21.1 3.72-.05-.39c-.94.2-1.76.63-2.47 1.29a9.62 9.62 0 0 0-1.85 2.35 38.44 38.44 0 0 0-1.43 2.8l.3-.05c1.55-.3 3.1-.64 4.62-1.03l.71-.19v-.09a13.87 13.87 0 0 0 .17-4.7ZM80.4 71.2a.34.34 0 0 1-.28.06.9.9 0 0 1-.22-.08l-.07.3c-.11.42-.16.86-.14 1.3.04 1.04.14 2.07.28 3.09.06.36.08.73.07 1.1.4.16.84.26 1.3.28l1.9.1c.24 0 .48.04.72.08h-.08c.74.16 1.5.29 2.24.38-.37-.75-.76-1.5-1.17-2.24-.25-.45-.52-.89-.8-1.32a6.95 6.95 0 0 0-2.16-2.06c-.36-.22-.73-.45-1.08-.7l-.5-.29Zm5-11.59c0 .3-.03.58-.06.86.13-.09.28-.17.46-.23a6.39 6.39 0 0 1 .63-.19c.2-.08.42-.14.64-.2a1.72 1.72 0 0 0 .63-.28 9.54 9.54 0 0 1 1.77-1.15c.3-.15.59-.29.89-.42.29-.13.56-.29.83-.47a.54.54 0 0 0 .17-.2c.06-.47.1-.95.1-1.44a52.53 52.53 0 0 0 0-1.45l-.02-.01a.22.22 0 0 0-.04-.03.41.41 0 0 0-.05-.02 29.72 29.72 0 0 0-.26-.07h-.2a.82.82 0 0 1-.17-.06h-.21a1.53 1.53 0 0 1-.41-.07c-.46.07-.92.13-1.38.17a4.83 4.83 0 0 0-1.42.36 3.18 3.18 0 0 0-1.55 2.18c-.2.9-.3 1.8-.34 2.72Zm1.2 12.75a1.51 1.51 0 0 1-.02.23c-.08.92-.03 1.84.13 2.75a20.11 20.11 0 0 0 .64 2.6 25.73 25.73 0 0 0 1.83.09c1.62.03 3.25.07 4.87.13.99.03 1.96 0 2.94-.1.25-.78.58-1.53.97-2.25.45-.81.67-1.67.67-2.57 0-.21-.02-.43-.07-.64-.76-.04-1.52-.06-2.28-.06-.48 0-.95-.05-1.41-.18l-.73-.17c-.4.54-.93.88-1.58 1.02-.57.12-1.06 0-1.46-.36a.51.51 0 0 1-.15-.24.7.7 0 0 0-.21-.14c-.78.11-1.57.13-2.36.04l-1.79-.15Zm4.78-5.62.01-.24a1.25 1.25 0 0 0-.06-.16l-.05-.11-.02-.05c-.9.08-1.82.14-2.73.18-.71.03-1.42.1-2.13.23-.27.05-.54.1-.81.13a6.05 6.05 0 0 0-.23 1.97 10.8 10.8 0 0 0 .3 2.05 3.97 3.97 0 0 1 1.63-.23c.54.04 1.06.11 1.58.22.14.03.28.04.42.03.28.01.55-.04.81-.15l.66-.31c.09-.05.16-.1.22-.18.17-.56.28-1.13.32-1.72.04-.55.07-1.1.08-1.66Zm3.2-12.88a2.54 2.54 0 0 0-.82-.02c-.2.48-.33 1-.37 1.52-.05.55-.1 1.1-.17 1.65a3.1 3.1 0 0 0-.02.48c.93-.01 1.8.23 2.63.72.82.5 1.63 1.02 2.4 1.57.12.08.22.18.3.3.15.2.32.37.53.49.02-1.28-.2-2.5-.65-3.7a5.13 5.13 0 0 0-3.82-3.01Z"/><path fill="#fff" d="M94.04 18.34h-.06c-.15.05-.28.1-.4.2-.1.06-.18.12-.26.2v-.01l.03-.02-.03.03.3.36a1.04 1.04 0 0 0 .46.27 1.54 1.54 0 0 1-.12-.58 1.17 1.17 0 0 1 .06-.39l.02-.06Zm1.62.47a10.58 10.58 0 0 0-.67-.35c.02.1.04.19.04.29a8.17 8.17 0 0 1 0 .5c.15-.03.3-.08.44-.14a.93.93 0 0 0 .18-.1l.14-.11-.13-.1Zm-6.62.55v.03h.05a1.44 1.44 0 0 0 .6-.32c.09-.08.16-.16.21-.26a.46.46 0 0 1-.02-.08 1.1 1.1 0 0 0-.54-.27 4.48 4.48 0 0 0-.36-.05c.06.13.09.26.1.4 0 .19 0 .37-.04.55Zm-1.07-.53a4.5 4.5 0 0 1 .07-.42c-.13.02-.26.05-.39.1a5.61 5.61 0 0 0-.6.4 1.58 1.58 0 0 0 1.02.53l.01-.04a.87.87 0 0 1-.11-.57Z"/><path fill="#E04F32" d="M115.56 50.82a3.8 3.8 0 0 0-.03.48 2.59 2.59 0 0 1-.02.43v.02a162.58 162.58 0 0 0-.15 1.1c.24.43.45.88.63 1.34l.8 2.23c.28.77.5 1.56.68 2.37.17.8.22 1.6.14 2.42l-.06.57.05-.15c.07-.2.12-.4.16-.6a66.76 66.76 0 0 1 .64-2.94l-.26-.85c-.24-.75-.5-1.49-.75-2.23-.26-.74-.55-1.48-.85-2.2-.29-.69-.61-1.35-.98-1.99Zm-2.6 14.84c.16-.22.33-.44.51-.65.21-.24.41-.5.6-.76a21.71 21.71 0 0 1-2.16-1.04c.18.73.33 1.47.46 2.2l.17.88c.13-.21.26-.42.41-.63Zm-.1-14.98-.69-.76a23.44 23.44 0 0 1 1.64 3.85 24.86 24.86 0 0 1 1.2 6.46 23.28 23.28 0 0 1-.03 3.6c.26.1.53.2.8.28.25.07.5.16.73.25.14-.78.26-1.57.34-2.36.06-.6.08-1.19.08-1.78a8.9 8.9 0 0 0-.37-2.4 20.8 20.8 0 0 0-.78-2.21c-.3-.74-.63-1.48-.97-2.24a4.83 4.83 0 0 0-.43-.78 17 17 0 0 0-1.52-1.91Zm-2.76-2.82c-.1-.12-.14-.23-.1-.34a9.1 9.1 0 0 0-1.36-1.08l-.51-.32-.2 1.39c.02.09.02.18.01.27a21.35 21.35 0 0 0-.01 4.7c.08.78.18 1.57.3 2.35.12.79.34 1.54.64 2.27a35.9 35.9 0 0 0 2.47 4.81 9.29 9.29 0 0 0 2.96 1.67l.06-1.77c.01-.8-.03-1.6-.12-2.4-.09-.79-.2-1.59-.31-2.38-.12-.8-.3-1.57-.53-2.33a24.9 24.9 0 0 0-2.89-6.26c-.12-.2-.26-.4-.41-.58ZM68.7 51.08l.02-.04.01-.03c-.33.71-.6 1.45-.83 2.2-.22.73-.42 1.46-.61 2.19a107.31 107.31 0 0 1-.9 3.18l-.2.6c.28.67.53 1.37.72 2.09a5.48 5.48 0 0 0 .26.74l.05-.62.2-2.4c.08-.8.2-1.58.4-2.36.13-.6.33-1.16.6-1.71.26-.65.55-1.29.86-1.92-.12-.2-.18-.44-.2-.7a12.8 12.8 0 0 0-.2-1.58l-.18.36Zm5.81-4.23.29-.44c-.49.48-.97.96-1.43 1.46-.54.58-1.02 1.2-1.44 1.88-.4.65-.8 1.3-1.19 1.97-.39.68-.75 1.37-1.07 2.08-.33.72-.64 1.45-.92 2.2-.3.76-.48 1.54-.55 2.35-.07.8-.15 1.61-.25 2.41a26.61 26.61 0 0 0-.15 2.81c.06.15.1.3.12.44a9.72 9.72 0 0 1 1.95-1.05l-.01-.88c-.02-.8 0-1.6.07-2.4.06-.8.13-1.6.22-2.4.08-.79.25-1.57.48-2.33.24-.77.5-1.53.8-2.28.28-.75.62-1.48 1-2.19a66.36 66.36 0 0 1 2.08-3.63Zm-3.34 16.17-.08.05-.5.29c.03.51.07 1.03.13 1.55.15.2.32.39.48.58a3.22 3.22 0 0 0 .62.56h.01l.24.19a29.94 29.94 0 0 0 .38-1.84l-.91-.9c-.15-.14-.28-.3-.37-.48Zm4.07-5.04a16.3 16.3 0 0 0-.44.8c-.39.71-.83 1.39-1.32 2.02a11.73 11.73 0 0 1-1.76 1.84 9.93 9.93 0 0 1 .9.9c.14-.61.4-1.18.75-1.69.6-1.29 1.22-2.58 1.87-3.87Zm.66-11.58a4.51 4.51 0 0 0-.08-.14.97.97 0 0 0-.06.06 9.37 9.37 0 0 0-1.4 2.17c-.08.19-.17.37-.28.55-.42.72-.83 1.46-1.22 2.2-.3.58-.57 1.18-.81 1.78-.3.74-.55 1.5-.78 2.26-.24.79-.4 1.6-.47 2.41l-.18 2.4c-.05.84-.06 1.67-.05 2.5.41-.24.8-.53 1.15-.87.59-.56 1.1-1.18 1.56-1.86.44-.66.85-1.34 1.25-2.04a14.99 14.99 0 0 0 1.96-6.84c.03-.8-.02-1.59-.14-2.37a27.44 27.44 0 0 0-.4-2.02v-.1a1.17 1.17 0 0 0-.05-.1Z"/></g><rect width="130" height="96" x="2" y="2" stroke="#000" stroke-width="4" rx="13"/><defs><clipPath id="a"><rect width="134" height="100" fill="#fff" rx="15"/></clipPath></defs></svg>