<svg xmlns="http://www.w3.org/2000/svg" width="134" height="100" fill="none"><rect width="130" height="96" x="2" y="2" fill="#EEE" rx="13"/><rect width="130" height="96" x="2" y="2" stroke="#000" stroke-width="4" rx="13"/><mask id="a" width="56" height="23" x="13" y="17" fill="#000" maskUnits="userSpaceOnUse"><path fill="#fff" d="M13 17h56v23H13z"/><path d="M24.3 37.4c-.6 0-1-.2-1.3-.8l-1.6-2.3-1.7-2.2c-.6.4-1 .8-1.5 1v2.8c0 .5-.2.8-.5 1-.3.3-.6.5-1 .5-1 0-1.6-.6-1.6-1.8a39.6 39.6 0 0 1 .3-5.1 167.6 167.6 0 0 1 0-8.2v-1c0-.5.1-.8.4-1.1.3-.3.6-.4 1-.4.5 0 .9.1 1.1.4.3.3.4.6.4 1l.1 1.1v1.1a84 84 0 0 1 0 6c1-.7 2.4-2 4.4-4a1.5 1.5 0 0 1 2.1 0c.3.2.5.6.5 1 0 .3-.2.6-.4.9l-3 3 2.2 2.8c1 1.5 1.6 2.4 1.6 3 0 .3-.2.6-.5 1-.3.2-.6.3-1 .3Zm6.1-2c0 1.4-.5 2-1.5 2-.4 0-.8 0-1-.3-.3-.3-.5-.7-.5-1.1V21.1c0-.4.2-.7.5-1 .3-.2.6-.3 1-.3.5 0 .8 0 1.1.3.3.3.4.6.4 1v14.3Zm12 2.3c-.3 0-.8-.3-1.6-1l-1.7.6-1.3.3c-1.7 0-3-.5-3.9-1.4-.8-1-1.3-2.3-1.3-4.1a6 6 0 0 1 2-4.5 6.4 6.4 0 0 1 4.5-1.8 6 6 0 0 1 2.4.6c1 .4 1.6 1 1.6 1.6 0 .2 0 .5-.2.7l-.2 1a18.5 18.5 0 0 0 .2 4.5 32.2 32.2 0 0 0 1 2.2c0 .4-.2.7-.5 1-.3.2-.6.3-1 .3Zm-2.7-7.4a8.2 8.2 0 0 1 .2-1.7 2 2 0 0 0-.6-.2c-1 0-1.9.3-2.6 1.1-.7.8-1 1.6-1 2.6s0 1.7.4 2.2c.4.5.9.7 1.6.7a3.6 3.6 0 0 0 2.4-.8l-.4-3.9Zm13.3-2a15.8 15.8 0 0 1-1.1 0 7 7 0 0 0-1 .1 165 165 0 0 1 .2 6.8c0 1.7-.5 2.5-1.6 2.5-.4 0-.7-.1-1-.4-.3-.2-.5-.6-.5-1a30.4 30.4 0 0 1 0-2.3l-.1-5.5-2-.2c-1-.1-1.4-.6-1.4-1.4a1.4 1.4 0 0 1 1.5-1.4h1.8a57.7 57.7 0 0 0 0-2.1c0-.4 0-.7.4-1 .3-.3.6-.4 1-.4 1 0 1.6.9 1.6 2.7v.8a7.9 7.9 0 0 1 2.8.1c.5.2.8.7.8 1.3 0 .4-.1.8-.4 1-.3.3-.6.5-1 .5Zm12 9.4c-.3 0-.8-.3-1.6-1l-1.7.6-1.3.3c-1.7 0-3-.5-3.9-1.4-.8-1-1.3-2.3-1.3-4.1a6 6 0 0 1 2-4.5 6.4 6.4 0 0 1 4.5-1.8c.7 0 1.5.2 2.4.6 1 .4 1.6 1 1.6 1.6 0 .2 0 .5-.2.7l-.2 1a18.5 18.5 0 0 0 .2 4.5 32 32 0 0 0 1 2.2c0 .4-.2.7-.5 1-.3.2-.6.3-1 .3Zm-2.7-7.4a8.2 8.2 0 0 1 .2-1.7 2 2 0 0 0-.6-.2c-1 0-1.8.3-2.6 1.1-.7.8-1 1.6-1 2.6s.1 1.7.4 2.2c.4.5.9.7 1.6.7a3.6 3.6 0 0 0 2.4-.8l-.4-3.9Z"/></mask><path fill="#000" d="M24.3 37.4c-.6 0-1-.2-1.3-.8l-1.6-2.3-1.7-2.2c-.6.4-1 .8-1.5 1v2.8c0 .5-.2.8-.5 1-.3.3-.6.5-1 .5-1 0-1.6-.6-1.6-1.8a39.6 39.6 0 0 1 .3-5.1 167.6 167.6 0 0 1 0-8.2v-1c0-.5.1-.8.4-1.1.3-.3.6-.4 1-.4.5 0 .9.1 1.1.4.3.3.4.6.4 1l.1 1.1v1.1a84 84 0 0 1 0 6c1-.7 2.4-2 4.4-4a1.5 1.5 0 0 1 2.1 0c.3.2.5.6.5 1 0 .3-.2.6-.4.9l-3 3 2.2 2.8c1 1.5 1.6 2.4 1.6 3 0 .3-.2.6-.5 1-.3.2-.6.3-1 .3Zm6.1-2c0 1.4-.5 2-1.5 2-.4 0-.8 0-1-.3-.3-.3-.5-.7-.5-1.1V21.1c0-.4.2-.7.5-1 .3-.2.6-.3 1-.3.5 0 .8 0 1.1.3.3.3.4.6.4 1v14.3Zm12 2.3c-.3 0-.8-.3-1.6-1l-1.7.6-1.3.3c-1.7 0-3-.5-3.9-1.4-.8-1-1.3-2.3-1.3-4.1a6 6 0 0 1 2-4.5 6.4 6.4 0 0 1 4.5-1.8 6 6 0 0 1 2.4.6c1 .4 1.6 1 1.6 1.6 0 .2 0 .5-.2.7l-.2 1a18.5 18.5 0 0 0 .2 4.5 32.2 32.2 0 0 0 1 2.2c0 .4-.2.7-.5 1-.3.2-.6.3-1 .3Zm-2.7-7.4a8.2 8.2 0 0 1 .2-1.7 2 2 0 0 0-.6-.2c-1 0-1.9.3-2.6 1.1-.7.8-1 1.6-1 2.6s0 1.7.4 2.2c.4.5.9.7 1.6.7a3.6 3.6 0 0 0 2.4-.8l-.4-3.9Zm13.3-2a15.8 15.8 0 0 1-1.1 0 7 7 0 0 0-1 .1 165 165 0 0 1 .2 6.8c0 1.7-.5 2.5-1.6 2.5-.4 0-.7-.1-1-.4-.3-.2-.5-.6-.5-1a30.4 30.4 0 0 1 0-2.3l-.1-5.5-2-.2c-1-.1-1.4-.6-1.4-1.4a1.4 1.4 0 0 1 1.5-1.4h1.8a57.7 57.7 0 0 0 0-2.1c0-.4 0-.7.4-1 .3-.3.6-.4 1-.4 1 0 1.6.9 1.6 2.7v.8a7.9 7.9 0 0 1 2.8.1c.5.2.8.7.8 1.3 0 .4-.1.8-.4 1-.3.3-.6.5-1 .5Zm12 9.4c-.3 0-.8-.3-1.6-1l-1.7.6-1.3.3c-1.7 0-3-.5-3.9-1.4-.8-1-1.3-2.3-1.3-4.1a6 6 0 0 1 2-4.5 6.4 6.4 0 0 1 4.5-1.8c.7 0 1.5.2 2.4.6 1 .4 1.6 1 1.6 1.6 0 .2 0 .5-.2.7l-.2 1a18.5 18.5 0 0 0 .2 4.5 32 32 0 0 0 1 2.2c0 .4-.2.7-.5 1-.3.2-.6.3-1 .3Zm-2.7-7.4a8.2 8.2 0 0 1 .2-1.7 2 2 0 0 0-.6-.2c-1 0-1.8.3-2.6 1.1-.7.8-1 1.6-1 2.6s.1 1.7.4 2.2c.4.5.9.7 1.6.7a3.6 3.6 0 0 0 2.4-.8l-.4-3.9Z"/><path fill="#E7E7E7" d="m23 36.6-1.8 1 1.8-1Zm-1.6-2.3-1.6 1.3 1.6-1.3Zm-1.7-2.2 1.6-1.2-1.2-1.6-1.6 1.2 1.2 1.6Zm-1.5 1-1-1.7-.9.5v1l2 .2Zm-3 0-2-.2 2 .1Zm.2-6.2h-2 2Zm0-4.6-2 .1 2-.1Zm.4-2.1 1.4 1.4-1.4-1.4Zm2.1 0-1.4 1.4 1.4-1.4Zm.5 6.3h2-2Zm0 3h-2v4l3.2-2.5-1.3-1.5Zm4.4-4.1 1.4 1.4-1.4-1.4Zm2.1 0-1.4 1.4 1.4-1.5Zm0 1.9L23.6 26l1.5 1.3Zm-3 3-1.3-1.5-1.4 1.2 1.2 1.5 1.5-1.2Zm2.3 2.8 1.6-1.2-1.6 1.2Zm1.1 4L24 35.4l1.3 1.5Zm-1 .3v-2l.3.1.1.2-1.7 1-1.8.9a3.4 3.4 0 0 0 3 1.9v-2Zm-1.3-.8 1.7-1-1.7-2.5-1.6 1.2-1.6 1.3c.7.8 1.1 1.5 1.4 2l1.8-1Zm-1.6-2.3 1.6-1.2a1709 1709 0 0 1-1.7-2.2l-1.6 1.2-1.6 1.2 1.7 2.3 1.6-1.3Zm-1.7-2.2-1.2-1.6-1.3.9 1 1.7 1 1.7 1.6-1-1.1-1.7Zm-1.5 1-2-.2v3h4v-2.7l-2-.1Zm0 2.8h-2v-.1l.1-.3 1.4 1.5 1.4 1.4c.7-.7 1-1.5 1-2.5h-2Zm-.5 1-1.4-1.4h.2l.2-.1v4c.8 0 1.7-.3 2.4-1L17.7 37Zm-1 .5v-2c-.1 0 0 0 0 0l.3.2.2.2v-.2h-4c0 .8.1 1.8.8 2.6.7.9 1.7 1.2 2.7 1.2v-2ZM15 35.6h2c0-.5 0-1.3.2-2.4l-2-.2-2-.1-.2 2.7h2Zm.2-2.6 2 .2v-2.7h-4v2.4l2 .1Zm0-2.5h2l.1-3.5h-2l-2-.1v3.6h2Zm.1-3.6h2v-3.5h-4v3.5h2Zm0-3.5h2V22l-2 .2-2 .2v.9h2Zm0-1.1 2-.1v-1h-4v1.2l2-.1Zm0-1h2v.1l-.2.2-1.4-1.4-1.4-1.5c-.7.7-1 1.6-1 2.5h2Zm.4-1.1 1.4 1.4-.2.1h-.1v-4c-1 0-1.8.4-2.5 1l1.4 1.5Zm1-.4v2l-.3-.2 1.4-1.4 1.4-1.4c-.7-.7-1.5-1-2.4-1v2Zm1.1.4-1.3 1.4a.7.7 0 0 1-.3-.4h4c0-1-.3-1.8-1-2.5L18 20.2Zm.4 1h-2l.1 1.3 2-.2 2-.1v-1h-2Zm.1 1.1-2 .2v1h4v-1.3l-2 .1Zm0 1.1h-2v3h2l2 .1v-3h-2Zm0 3h-2v3h4v-2.9h-2Zm0 3 1.2 1.6a56 56 0 0 0 4.6-4.2l-1.4-1.4-1.4-1.5a53 53 0 0 1-4.3 4l1.2 1.6Zm4.4-4 1.4 1.4H23.9v-4c-1 0-1.9.5-2.5 1.1l1.4 1.5Zm1-.5v2a.5.5 0 0 1-.3-.1l1.4-1.5 1.4-1.4c-.7-.6-1.5-1-2.4-1v2Zm1.1.4-1.4 1.5v-.2l-.1-.3h4c0-1-.4-1.8-1.1-2.4l-1.4 1.4Zm.5 1h-2V26s.1 0 0 0l1.6 1.3 1.4 1.3c.6-.5 1-1.3 1-2.3h-2Zm-.4 1L23.5 26l-2.9 2.8 1.3 1.5 1.4 1.5 3.2-3.2-1.5-1.3Zm-3 3-1.6 1.2 2.2 2.9 1.6-1.3 1.6-1.2-2.3-2.9-1.6 1.3Zm2.2 2.8-1.6 1.2a15.4 15.4 0 0 1 1.2 2V36h4c0-.8-.4-1.6-.7-2l-1.3-2-1.6 1.1Zm1.6 3h-2a.7.7 0 0 1 .2-.6l1.3 1.5 1.3 1.5c.8-.6 1.2-1.5 1.2-2.5h-2Zm-.5 1L24 35.4H24.3v4c.9 0 1.7-.4 2.4-1L25.3 37ZM28 20l-1.3-1.5 1.3 1.5Zm2.1 0-1.4 1.5 1.4-1.5Zm.4 15.3h-2v.4c0 .1 0 0 0 0l.3-.3h.2v4c1 0 2-.4 2.8-1.4.6-.8.7-1.8.7-2.7h-2Zm-1.5 2v-2h.2l.2.2-1.4 1.5-1.4 1.4c.7.7 1.5 1 2.4 1v-2Zm-1-.3 1.4-1.5a.7.7 0 0 1 .1.4h-4c0 1 .4 1.8 1 2.5L28 37Zm-.5-1.1h2V21.1h-4V36h2Zm0-14.9h2v.3l-.2.2-1.3-1.5-1.3-1.5c-.8.7-1.2 1.6-1.2 2.5h2Zm.5-1 1.3 1.5-.2.1v-4c-.9 0-1.7.3-2.4.9l1.3 1.5Zm1-.3v2l-.3-.2 1.4-1.5 1.4-1.4c-.7-.7-1.6-1-2.4-1v2Zm1.1.3-1.4 1.5-.1-.3v-.2h4c0-.9-.4-1.7-1.1-2.4L30 20Zm.4 1h-2v14.3h4V21.1h-2Zm10.4 15.5 1.5-1.4-1-1-1.3.6.8 1.8Zm-1.7.7-.6-1.9.6 2Zm-5.2-1-1.4 1.3 1.4-1.4Zm.7-8.7 1.3 1.5-1.3-1.5Zm6.9-1.2-.8 1.8.8-1.8Zm1.4 2.3-1.5-1.3-.4.3v.5l1.9.5Zm-.2 1-2-.1 2 .1Zm.2 4.5-1.9.6 2-.6Zm.5 1.1-1.8.9 1.8-.9Zm0 2-1.3-1.5 1.3 1.5Zm-3.6-7.7-2-.3 2 .3Zm.1-1 2 .3.3-1.5-1.4-.6-.9 1.8Zm-.3-.2-.7 1.9h.1l.6-1.9Zm-2.9 1.1 1.5 1.4-1.5-1.4Zm-.6 4.8-1.6 1.2 1.6-1.2Zm2.8.5.7 1.9-.7-1.9Zm1.2-.6 1.2 1.5.9-.7-.1-1-2 .2Zm2.3 3.5v-2l.5.1-.6-.6-1.5 1.4-1.4 1.4c.4.4.8.8 1.2 1 .4.3 1 .7 1.8.7v-2Zm-1.6-1-.8-1.9-1.5.6.6 2 .6 1.9 2-.9-.9-1.8Zm-1.7.6-.6-1.9-.7.2v4c.7 0 1.3-.2 2-.4l-.7-1.9Zm-1.3.3v-2c-1.4 0-2-.4-2.4-.8l-1.5 1.4-1.4 1.4a7 7 0 0 0 5.3 2v-2ZM34 36.2l1.5-1.4c-.4-.4-.8-1.2-.8-2.7h-4c0 2 .5 4 1.9 5.5l1.4-1.4Zm-1.3-4.1h2a4 4 0 0 1 1.3-3l-1.3-1.5-1.4-1.4a8 8 0 0 0-2.6 5.9h2Zm2-4.5 1.3 1.5c1-.9 2-1.3 3.2-1.3v-4c-2.3 0-4.3.8-6 2.4l1.5 1.4Zm4.5-1.8v2c.4 0 .9 0 1.6.4l.8-1.8.8-1.9a8 8 0 0 0-3.2-.7v2Zm2.4.6-.8 1.8a3.4 3.4 0 0 1 .6.3v-.1L41 28h4c0-2-1.7-3-2.8-3.5l-.8 1.9Zm1.6 1.6h-2a1 1 0 0 1 .3-.6l1.5 1.3 1.5 1.3a3 3 0 0 0 .7-2h-2Zm-.2.7-2-.5-.2 1.4 2 .1 2 .2.1-.8-2-.4Zm-.2 1-2-.1v1.7h4v-1.4l-2-.2Zm0 1.6h-2c0 1.4 0 2.6.3 3.5l2-.6 1.8-.6c0-.3-.2-1-.2-2.3h-2Zm.2 3-1.9.6.2.5.4.8 1.8-.9 1.9-.8a106.8 106.8 0 0 1-.5-1l-1.9.7Zm.5 1-1.8.9.3.6a1.6 1.6 0 0 1 0-.4h4c0-.4-.2-.7-.2-.7v-.4l-.4-.8-1.9.8Zm.5 1h-2v-.2c0-.2.2-.2.2-.3l1.3 1.5 1.3 1.6c.7-.7 1.2-1.5 1.2-2.5h-2Zm-.5 1-1.3-1.5H42.4v4c.9 0 1.7-.4 2.3-1l-1.3-1.5Zm-3.7-7h2v-.6l-2-.1-1.9-.2v1h2Zm0-.7 2 .2.2-.9-2-.3-2-.4v1.1l1.9.3Zm.2-1 1-1.8a4 4 0 0 0-.9-.3l-.4 2-.5 1.8.8-1.7Zm-.3-.2.6-1.9-1-.1v4a1.3 1.3 0 0 1-.3-.1l.7-1.9Zm-.3 0v-2c-1.6 0-3 .6-4 1.7l1.4 1.4 1.5 1.4c.4-.4.7-.5 1-.5v-2Zm-2.6 1.1-1.4-1.4a5.7 5.7 0 0 0-1.7 4h4c0-.4.2-.8.6-1.2l-1.5-1.4Zm-1 2.6h-2c0 1.2.1 2.4.8 3.4l1.6-1.2 1.7-1.1-.1-.3v-.8h-2Zm.4 2.2-1.6 1.2c.8 1 2 1.5 3.2 1.5v-4c-.1 0-.1 0 0 0a.4.4 0 0 1 0 .1l-1.6 1.2Zm1.6.7v2c.6 0 1.3 0 2-.3l-.8-1.9-.6-1.9-.6.1v2Zm1.2-.2.7 1.9a6 6 0 0 0 1.7-1l-1.2-1.5-1.3-1.6a2 2 0 0 1-.6.3l.7 2Zm1.2-.6 2-.3a32 32 0 0 1-.4-3.6h-4l.4 4.1 2-.2Zm12.3-5.9-.1 2 .1-2Zm-1.5.1-.3-2-1.8.3v1.8h2Zm.2 6.2h-2 2Zm-2.6 2.7 1.3-1.5-1.3 1.5Zm-.6-8.8 2-.1v-1.8l-1.9-.1-.1 2Zm-2-.2-.2 2 .2-2Zm2-2.7-.3 2 2.3.2v-2.3h-2Zm-.1-1.1 2-.2-2 .2Zm3 .2h2-2Zm0 .8h-2v2.4l2.3-.4-.3-2Zm2.8.1-.7 1.9.7-1.9Zm-.6 2.8v-2h-.5v2l-.2 2h.7v-2Zm-.6 0 .2-2h-.7v4h.4l.1-2Zm-.5 0v-2a9 9 0 0 0-1.3 0l.3 2 .3 2h.7v-2Zm-1 0-2 .1.2 5.6h4l-.2-5.8-2 .1Zm.2 5.7h-2v.6l2-.1h2V34h-2Zm0 .5h-2v.6h4v-.7l-2 .1Zm0 .6h-2v.7l-.1.1a.7.7 0 0 1 .5-.3v4c1.2 0 2.2-.5 2.9-1.6.5-.8.7-2 .7-2.9h-2Zm-1.6 2.5v-2h.1l.2.1-1.3 1.5-1.3 1.5c.7.6 1.5.9 2.3.9v-2Zm-1-.4 1.3-1.5.1.2.1.4h-4c0 1 .5 1.9 1.2 2.5l1.3-1.6Zm-.5-1h2v-1l-2-.1h-2v1.2h2Zm0-1.1h2V34h-4v1.1l2 .1Zm0-1.2h2l-.1-5.6h-2l-2 .2.2 5.4h2Zm-.1-5.5.1-2-2-.2-.1 2-.2 2 2.1.2.1-2Zm-2-.2.2-2c-.2 0 0 0 .2.2l.2.3v.1h-4c0 .8.3 1.7 1 2.4.6.6 1.4.9 2.2 1l.2-2Zm-1.4-1.4h2v.2l-.1.2-1.5-1.4-1.4-1.4c-.6.7-1 1.5-1 2.4h2Zm.4-1 1.5 1.4-.2.1H46v-4c-1 0-1.8.4-2.5 1L45 26Zm1.1-.4v2h1.6l.2-2 .2-1.9-2-.1v2Zm1.8 0h2v-1.2l-2 .2h-2v1.2l2-.1Zm0-1 2-.2v-1h-4v1.3l2-.1Zm0-1.1h2l-.1.2c0 .2-.1.2-.2.3l-1.3-1.5-1.4-1.5c-.7.7-1 1.5-1 2.5h2Zm.4-1 1.3 1.5a.5.5 0 0 1-.3 0v-4c-.8 0-1.7.4-2.4 1l1.4 1.5Zm1-.4v2l-.2-.1a.7.7 0 0 1-.3-.2v.2l.1.8h4a6 6 0 0 0-.7-3c-.6-1.1-1.7-1.7-2.9-1.7v2Zm1.6 2.7h-2v.8h2l2 .1v-.9h-2Zm0 .8.3 2h.8v-4h-1.4l.3 2Zm1 0v2H53l.7-1.9.6-1.9c-.6-.2-1.5-.2-2.3-.2v2Zm1.8.1-.7 1.9-.4-.3v-.3h4c0-.6-.2-1.3-.6-2-.4-.5-1-1-1.7-1.2l-.6 2Zm.8 1.3h-2v-.2l.2-.2L54 28l1.4 1.5c.7-.7 1-1.6 1-2.5h-2Zm-.4 1-1.4-1.4.2-.1h.2v4c.8 0 1.7-.3 2.4-1L54 27.9Zm9.4 8.7 1.5-1.4-1-1-1.3.6.8 1.8Zm-1.7.7-.6-1.9.6 2Zm-5.2-1-1.4 1.3 1.4-1.4Zm.7-8.7 1.3 1.5-1.3-1.5Zm6.9-1.2-.8 1.8.8-1.8Zm1.4 2.3L64 27.4l-.4.3v.5l1.9.5Zm-.2 1-2-.1 2 .1Zm.2 4.5-1.9.6 2-.6Zm.5 1.1-1.8.9 1.8-.9Zm0 2-1.3-1.5 1.3 1.5Zm-3.6-7.7-2-.3 2 .3Zm.1-1 2 .3.3-1.5-1.4-.6-.9 1.8Zm-.3-.2-.7 1.9h.1l.6-1.9Zm-2.9 1.1 1.5 1.4-1.5-1.4Zm-.6 4.8-1.6 1.2 1.6-1.2Zm2.8.5.7 1.9-.7-1.9Zm1.2-.6 1.2 1.5.9-.7-.1-1-2 .2Zm2.3 3.5v-2l.5.1-.6-.6-1.5 1.4L62 38c.4.4.8.8 1.2 1 .4.3 1 .7 1.8.7v-2Zm-1.6-1-.8-1.9-1.5.6.6 2 .6 1.9 2-.9-.9-1.8Zm-1.7.6-.6-1.9-.7.2v4c.7 0 1.3-.2 2-.4l-.7-1.9Zm-1.3.3v-2c-1.4 0-2-.4-2.4-.8l-1.5 1.4-1.4 1.4a7 7 0 0 0 5.3 2v-2Zm-3.9-1.4 1.5-1.4c-.4-.4-.8-1.2-.8-2.7h-4c0 2 .5 4 1.9 5.5l1.4-1.4Zm-1.3-4.1h2a4 4 0 0 1 1.3-3l-1.3-1.5-1.4-1.4a8 8 0 0 0-2.6 5.9h2Zm2-4.5 1.4 1.5c.9-.9 1.9-1.3 3.1-1.3v-4c-2.3 0-4.3.8-6 2.4l1.5 1.4Zm4.5-1.8v2c.4 0 .9 0 1.6.4l.8-1.8.8-1.9a8 8 0 0 0-3.2-.7v2Zm2.4.6-.8 1.8a3.4 3.4 0 0 1 .6.3v-.1l-.2-.4h4c0-2-1.7-3-2.8-3.5l-.8 1.9Zm1.6 1.6h-2a1 1 0 0 1 .3-.6l1.5 1.3L67 30a3 3 0 0 0 .7-2h-2Zm-.2.7-2-.5-.2 1.4 2 .1 2 .2.1-.8-2-.4Zm-.2 1-2-.1v1.7h4v-1.4l-2-.2Zm0 1.6h-2c0 1.4 0 2.6.3 3.5l2-.6 1.8-.6c0-.3-.2-1-.2-2.3h-2Zm.2 3-1.9.6.3.5.3.8 1.8-.9 1.9-.8a101.7 101.7 0 0 1-.5-1l-1.9.7Zm.5 1-1.8.9.3.6a1.7 1.7 0 0 1 0-.4h4c0-.4-.2-.7-.2-.7v-.4l-.4-.8-1.9.8Zm.5 1h-2v-.2c0-.2.2-.2.2-.3l1.3 1.5 1.3 1.6c.7-.7 1.2-1.5 1.2-2.5h-2Zm-.5 1-1.3-1.5H65v4c.9 0 1.7-.4 2.3-1L66 37.3Zm-3.7-7h2v-.6l-2-.1-1.9-.2v1h2Zm0-.7 2 .2.2-.9-2-.3-2-.4v1.1l1.9.3Zm.2-1 1-1.8a4 4 0 0 0-.9-.3l-.4 2-.5 1.8.8-1.7Zm-.3-.2.6-1.9-1-.1v4a1.3 1.3 0 0 1-.3-.1l.7-1.9Zm-.3 0v-2c-1.6 0-3 .6-4 1.7l1.4 1.4 1.5 1.4c.4-.4.7-.5 1-.5v-2Zm-2.6 1.1L58 28.1a5.7 5.7 0 0 0-1.7 4h4c0-.4.2-.8.6-1.2l-1.5-1.4Zm-1 2.6h-2c0 1.2.1 2.4.8 3.4l1.6-1.2 1.7-1.1-.1-.3v-.8h-2Zm.4 2.2-1.6 1.2c.8 1 2 1.5 3.2 1.5v-4c-.1 0-.1 0 0 0a.4.4 0 0 1 0 .1l-1.6 1.2Zm1.6.7v2c.7 0 1.3 0 2-.3l-.8-1.9L61 33l-.6.1v2Zm1.2-.2.7 1.9a6 6 0 0 0 1.7-1l-1.2-1.5-1.3-1.6a2 2 0 0 1-.6.3l.7 2Zm1.2-.6 2-.3a32 32 0 0 1-.4-3.6h-4l.4 4.1 2-.2Z" mask="url(#a)"/><path fill="#fff" d="M14 62a8 8 0 0 1 8-8h9a8 8 0 0 1 8 8v9a8 8 0 0 1-8 8h-9a8 8 0 0 1-8-8v-9Z"/><path fill="#000" d="M28.8 54.6H28l-.4.3-.3.2-1.2.4h-1.8l-.3-.1h-.4l-.8-.2h-.3l-.4-.1H22l-.6.3c-.3.1-.6 0-.8 0l-.8-.2h-.2l-.3.2-.4.1a4 4 0 0 0-.5.3l-.4.2-.3.2-.7.4-.3.2-.3.1v.4l-.2.5c0 .3-.1.7-.3 1l-.2.3-.1.3-.2.5-.2.7-.3 1-.2.3-.2.3.2.3.2.3c.3.5.3 1 .2 1.5v.3l-.1.4-.2.9-.2.7.2.4.1.4c.3.6.3 1.2 0 1.7l-.2.4-.2.2.2.3.2.3c.2.5.3 1 .1 1.6v.4l-.2.3.2.3.2.3.4 1.1v.4l.2.3.3.2.3.2.7.4.3.2.4.2c.3.2.6.5.8.9l.3.4.2.3.4.2.4.1h2.2l.7.1h.1l.4-.2.4-.2a2 2 0 0 1 1-.3h.4l.4.1.4.1H27.8l.8-.2c.5 0 1 0 1.4.3l.4.2.3.1h.2l.4-.2c.4-.2.9-.3 1.3-.2h1.6l.4-.1.2-.4.2-.3c.1-.4.3-.6.5-.9l.3-.3.2-.2.4-.5.2-.3.5-1 .2-.2.2-.3.3-.6.2-.3.1-.4-.1-.3-.2-.4-.2-1v-.8c-.1-.6 0-1 .4-1.4l.2-.4.3-.3-.1-.3-.2-.4V65l.1-.4-.4-.8-.3-1.2v-1.4l-.1-.4v-1.1l-.1-.4V59l-.1-.6-.2-.4v-.4l-.4-.1-.4-.2-.7-.4-.3-.2-.4-.2a3 3 0 0 1-.8-.8l-.3-.4v-.1h-.3l-.4.1h-1.3L31 55l-.7-.3H30l-.4-.2h-.8ZM21 53l.3-.3.4-.2c.3 0 .6 0 .9.3l.2.4h.4l.7.2h2.4l.4-.2.3-.3 1.2-.3h.8l1 .1.4.1.4.1.8.3h.3l.4.2h.2l.9-.2.4-.1.5.1c.4.1.6.3.8.6l.3.3.2.4.3.3.3.1.3.2.6.4.4.2.4.2c.5.2.8.6 1 1.2v.3l.2.4.1 1v.4l.1.4v1.1l.1.3v1.5c0 .1 0 .2.2.3l.3.8c.3.4.4 1 .3 1.4l-.2.8v.2l.1.4.2.3c.2.6 0 1.2-.3 1.7l-.5.7v1.3l.2.4.2.4c.2.5.2 1 0 1.5l-.2.4-.1.3a6 6 0 0 1-.5.8l-.2.3-.2.4-.4.6-.2.3-.2.3-.5.7-.2.2-.3.3-.3.5-.2.4-.2.3c-.2.5-.7.9-1.2 1l-.8.2H32l-.3.1-.4.2c-.5.3-1.1.2-1.6 0l-.8-.5-.8.1-.9.1h-1.7l-.8-.2-.4.2-.4.2c-.4.3-.9.4-1.3.3h-2.2c-.4 0-.8 0-1.1-.2l-.8-.2a2 2 0 0 1-1.1-1l-.3-.3-.2-.4-.2-.2-.6-.4-.6-.3-.4-.2-.4-.2c-.5-.3-.8-.8-.9-1.3V75l-.2-.4-.1-.4-.4-.7c-.3-.5-.4-1-.2-1.5l.1-.4.1-.4-.2-.4-.2-.3c-.3-.6-.3-1.2 0-1.8l.2-.3.2-.3-.1-.3-.2-.4a2 2 0 0 1-.2-1.5l.3-.7.1-.7.1-.3v-.5l-.1-.4-.3-.3c-.2-.6-.3-1.2 0-1.7l.2-.4.2-.4.2-.5v-.3l.2-.4.3-.9.3-.6.2-.5V57l.1-.4.1-.4.8-1 .4-.1.3-.2.7-.4.3-.2.4-.2.8-.4.3-.2.4-.1c.4-.2.9-.2 1.3-.1h.4l.1.1.2-.3.1-.1Z"/><path stroke="#000" stroke-linecap="round" stroke-width="2" d="M21 71.1c1 3 4.3 5 5.2 3.3 1.6-2.9 5.2-14.7 5.8-16.4"/><path fill="#000" d="M91.4 93.4c0-.1 0-.2-.2-.3-.4-.2-.7 0-.8.5a23 23 0 0 1-.8 3.4 32 32 0 0 1-.7 2.7h1l.4-1.7.7-2.8a56.6 56.6 0 0 1 .7 4.5h.9a48.2 48.2 0 0 0-.4-2.2l-.1-1.4c-.1-1-.3-1.9-.7-2.7Zm19.2-54.2-.8-.6a14.7 14.7 0 0 0-5.1-2.2c-.9-.3-1.7-.6-2.6-.7l-3-1a110.3 110.3 0 0 1-2.4-1.4v-.7a104.4 104.4 0 0 0 0-2.7c0-.2-.2-.4-.4-.4a4.8 4.8 0 0 0 .8-1 4 4 0 0 0 .6-1.3l.3-.5a6.1 6.1 0 0 0 .8-2.7l.6.1h.2l.5-.2a3.2 3.2 0 0 0 .7-.6l.5-.8.2-1.5c0-.5 0-1-.2-1.4-.2-.5-.4-.8-.8-1.1a1.7 1.7 0 0 0-1.2-.3v-.8l.1-.2.2-1v-1.3l-.2-.7-.2-.7a15.9 15.9 0 0 0-.4-1c-.2-.4-.5-.8-.9-1.1l-.5-.5c-.3-.4-.7-.7-1.2-.9l-1-.4a6.5 6.5 0 0 0-2-.4H92a12 12 0 0 1-2 .2c-.5 0-1 0-1.4.2h-.6a289.4 289.4 0 0 0-2.2.2h-.4c-.4 0-.8 0-1.2.2l-.7.5-.7.5-.4.4-.6 1.3a41 41 0 0 0-.6 1.7l-.1 1.4a8 8 0 0 0 .2 1.8 8.3 8.3 0 0 0 .4 1c-.1 0-.2 0-.3.2-.4.3-.7.6-.9 1.1l-.2 1.4c0 .5 0 1 .3 1.4.2.5.4.8.8 1.1a2 2 0 0 0 1.6.4 6.8 6.8 0 0 0 .1 1.2 9.7 9.7 0 0 0 .7 2v.3l.2.3a39.7 39.7 0 0 0 1 2v-.1a45.7 45.7 0 0 0 .4.4 37.9 37.9 0 0 0-.2 3.3 11 11 0 0 0-2.1 1 269.3 269.3 0 0 1-4.8 2.1c-.6.3-1.3.5-2 .6-1 0-1.8.3-2.7.5h.1c-.7.1-1.3.5-1.8 1L70.7 40a7 7 0 0 0-1.6 2.2v.2c-.4.8-.6 1.6-.7 2.4a150.5 150.5 0 0 0-.5 5v.8a3.4 3.4 0 0 0-.4.8c-.5.6-.9 1.3-1.2 2a24.3 24.3 0 0 0-1.7 5.3l-.3.6-.2.6-.2.6a8.1 8.1 0 0 0-.6 1l-.3.5a67 67 0 0 0-3.7 13.1 73.2 73.2 0 0 1-1.8 5.6l-.8 1.5c0 .2-.2.3-.4.4l-1.4.9-2.3 1.3c-.8.4-1.4.8-2 1.4-.3.3-.5.7-.6 1.1 0 .7.2 1.1.8 1.3h1.3l.9-.5.5-.3v.1a62.6 62.6 0 0 1-1.1 3.1 39.3 39.3 0 0 0-1.2 5.3c0 .8.2 1.3.9 1.7h.2l.8-.5v.7c0 .8.5 1.3 1.2 1.4a1.1 1.1 0 0 0 .9-.6l.6.8.3.1c.6 0 1-.2 1.4-.7l.5-1.3.4.2c.4 0 .8 0 1.2-.3.3-.3.5-.7.6-1 .2-1.1.5-2.1.9-3.1l1.1-3v.1c.3-.8.5-1.6.6-2.5A228 228 0 0 0 63 85l.7-1.6.3-.6v-.1l.5-1a155 155 0 0 1 2.4-3.4 14.6 14.6 0 0 0 1.8-3l1.2-2a13.3 13.3 0 0 0 1.6-3.3 10 10 0 0 0 .5-2l.4-2a343 343 0 0 1 .9-3.4 53.9 53.9 0 0 0 .7-2v.1a11.4 11.4 0 0 0 .7-1.4 7.8 7.8 0 0 0 .8-1.8v.2a22.5 22.5 0 0 0 1.2 3.4 9.8 9.8 0 0 1 1 2.3 18.2 18.2 0 0 1 .6 8.4 40.5 40.5 0 0 0-.6 4.6 46 46 0 0 1-.5.9h-.1a1.6 1.6 0 0 0-.1 0v.1a59.8 59.8 0 0 0-2.4 11.5 209.8 209.8 0 0 1-1 8.2c-.1 1 0 1.8.1 2.7h.9V96.1a1189 1189 0 0 1 1.8-12.9l.5-2.1a23 23 0 0 0 .6-3h.1a57 57 0 0 0 7.2.7 61.3 61.3 0 0 0 11.3 0l2.2-.3a118.4 118.4 0 0 0 5.3-.8 34 34 0 0 0 .8 4.4A171.8 171.8 0 0 1 106 91a100.6 100.6 0 0 0 .8 8.7h1v-.1a23 23 0 0 0-.4-4l-.2-1.6a232 232 0 0 0-2-12.4 174.8 174.8 0 0 1-.7-4.7 1.4 1.4 0 0 0-.1-.1v-.1h-.1l-.1-.1-.1-.3-.1-.1V76c-.2-.3-.2-.6-.2-1 .1-.5.1-1 0-1.6l-.1-2a181.2 181.2 0 0 1 0-5.6 12.6 12.6 0 0 1 1.3-4.9 57 57 0 0 1 1.2-2.8l.3.6a269.2 269.2 0 0 1 3.3 7.6 35.8 35.8 0 0 0 .7 2.3 81 81 0 0 0 1.5 4.5l.1.4.7 1.4a32.1 32.1 0 0 0 2.2 3.6 63 63 0 0 0 3 4.5v.1l.2.5a39.2 39.2 0 0 1 .7 2.2v.7a21.8 21.8 0 0 0 1.1 6.7 29.9 29.9 0 0 0 1.1 3c.3.9.9 1.5 1.7 1.9a1.2 1.2 0 0 0 .6 0l.4.6c.2.5.6.8 1.1 1h.6c.2 0 .4 0 .5-.2l.3-.4c.2.3.4.6.8.8.5 0 .9-.1 1.2-.5l.2-.3.2-1H129.5c.2 0 .3-.2.4-.3.5-.5.7-1.1.6-1.9l-.5-2.6a170.3 170.3 0 0 0-1.3-5.3l.6.3c.5.3 1 .5 1.6.5h.6c.3-.2.5-.5.5-.8 0-.4-.1-.7-.4-1a40.5 40.5 0 0 0-2.6-2.8 7 7 0 0 0-2.5-1.6 271 271 0 0 1-1.6-.7l-.6-.9V81a106.7 106.7 0 0 1-1.5-4.2 208.6 208.6 0 0 1-2-9.3 498.3 498.3 0 0 1-1.4-4.3 19.3 19.3 0 0 0-.7-1.6 11.7 11.7 0 0 0-1.2-1.8 35.8 35.8 0 0 0-1-4.3l-1.1-2.5a99.4 99.4 0 0 0-1.5-2.7l-.2-1a2549.4 2549.4 0 0 0-.6-5.1c-.2-1-.5-1.8-.9-2.7-.4-.8-1-1.5-1.6-2.2ZM98.7 60.4v-1.2l.6.6-.3.2-.3.4Zm.8-3.2H99.9a6.7 6.7 0 0 0 3 1.3 111.8 111.8 0 0 0-.8 1h-.7l-1.2-.3a1.1 1.1 0 0 1-.7-.7v-.2l.1-1Zm3.5 3.1a1 1 0 0 1-.2-.4 16.8 16.8 0 0 0 1-1.2v2.4l-.3-.2-.1-.1-.1-.1-.3-.4Zm-24.8-1v-1.1a14 14 0 0 1 .6.8l.5.6-.2.2a5 5 0 0 0-.3.4c0 .2-.1.3-.3.4h-.1v-.3l-.2-1Zm40.4 4Zm2.8 18.9.4-.1a6.8 6.8 0 0 1 1.9-.4l.2.5.3.3a4.5 4.5 0 0 0 2 .9l.3.1a47.1 47.1 0 0 0 1 .6 13 13 0 0 1 2.3 2.1l1.3 1.6v.1h-.6l-.2-.1h-.2v-.1l-1.6-.8c-.5-.3-1-.4-1.6-.4-.4 0-.5.1-.5.5l.1.2.8.2a16.7 16.7 0 0 0 .4.2h-.1a48 48 0 0 1 1 3.6l.9 3.6a4.6 4.6 0 0 1-.1 2.3 1.1 1.1 0 0 1-.2.1.7.7 0 0 1-.1 0h-.2l-.1-.2a37.7 37.7 0 0 0-.3-.7 139.8 139.8 0 0 0-1.2-4.6c0-.2-.1-.4-.3-.5h-.5c-.2.3-.2.5-.1.7a45.3 45.3 0 0 1 1.3 5v1.9a1 1 0 0 1-.2.1 1 1 0 0 1-.2 0 2 2 0 0 1-.3-.4c-.2-.4-.4-.7-.4-1.1 0-.2-.1-.3-.2-.3l-.7-2.7-.8-2.6c-.2-.3-.5-.3-.7 0 0 0-.1 0 0 .1a32.4 32.4 0 0 0 1 4.1 5.7 5.7 0 0 1 .3 2.7v.1H124.9a4.2 4.2 0 0 1-.8-1.6l-.2-.5a3 3 0 0 0-.2-.8v-.5a93.7 93.7 0 0 0-.8-3.1c0-.4-.2-.6-.5-.6-.2 0-.3 0-.4.2v.6a35.6 35.6 0 0 1 1 4.7l-.8-.8a33.3 33.3 0 0 1-2.3-7.9 11 11 0 0 1-.1-2.5l-.1-.9c0-.4-.2-.9-.4-1.2l-.1-.1-.2-.7 2.4-.9Zm10.1 4.7Zm-6.7 11.7Zm-5-11.4ZM92.6 10.1h.2c.5 0 1 0 1.5.2a5.9 5.9 0 0 1 2.1 1 4.8 4.8 0 0 1 1 .8c.3.3.6.8.7 1.2l.1.3.1.2a4.3 4.3 0 0 1 .4 1.5 8.4 8.4 0 0 1 0 .3 3.3 3.3 0 0 1 0 1l-.2.4a4 4 0 0 0-.5-.6L98 16l-.6-.6-.2-.2-.6-.3-.1-.5a.9.9 0 0 0-.7-.5 16.7 16.7 0 0 1-1.5-.3l-1.4-.2a2 2 0 0 1-.9-.3c-.4-.3-.9-.4-1.4-.3H90a17.3 17.3 0 0 1-2.1-.2H86c-.5 0-.9.2-1.3.5l-1 1a7.9 7.9 0 0 0-1 2 24 24 0 0 0-.5 2l-.1-.4-.1-.3a4.7 4.7 0 0 1-.3-1.9l.2-1a8.5 8.5 0 0 0 .5-1.5l.2-.6.5-.7a29.1 29.1 0 0 0 1.4-1l.6-.1a12.6 12.6 0 0 1 .9 0 41.2 41.2 0 0 1 2.7-.3l1.5-.1h.9l1.4-.2Zm6.1 5.4Zm-3.1-.6c0 .3.1.6.3.8l.3.1.8.6c0 .2.2.3.3.5.4.4.6.8.8 1.3V20a65.9 65.9 0 0 0-.1 2.8v.2l-.1.6a17.6 17.6 0 0 1-.1 1c0 .4-.2.8-.4 1.2-.3.4-.4.9-.6 1.3l-.5.9a7 7 0 0 1-1 1l-.5.3a15.5 15.5 0 0 1-4 1.7l-1.4-.1h-.2l-1-.2a13.9 13.9 0 0 1-2-.9l-.6-.6a4.7 4.7 0 0 1-.6-1 10.2 10.2 0 0 1-.4-.9 1.4 1.4 0 0 0-.1-.2l-.2-.8a8.5 8.5 0 0 1-.5-2.2 4.1 4.1 0 0 0 0-.8 46.5 46.5 0 0 0-.7-4 20.2 20.2 0 0 1 1.1-4.2l.9-1c.2-.3.4-.4.7-.5l.7-.1h1.4l.9.1a66.2 66.2 0 0 0 2.5.2c.2.2.5.3.7.3a9 9 0 0 0 1.6.3l1 .2a4.3 4.3 0 0 0 1 .2Zm3.6 3Zm2.3 2.5Zm-1.5-1.1a1.8 1.8 0 0 1 .6 1 4.3 4.3 0 0 1-.1 1.7 1.8 1.8 0 0 1-.6 1l-.4.2h-.4l-.2-.3a394.2 394.2 0 0 0 .5-3.8h.4l.1.1h.1Zm0 3.6Zm-18-3.5h.2v.4a3.6 3.6 0 0 0 .4 1.5 17 17 0 0 1 .2 1.1 562.9 562.9 0 0 1 0 1 9 9 0 0 0-.4-.1h-.2c-.5-.3-.8-.6-1-1-.2-.6-.2-1 0-1.5v-.4c.1-.5.4-.9.9-1Zm1.7 8.3ZM68.3 45.8ZM58 81.6h.1l.9.1c.7.2 1.3.4 2 .8h.2a3.4 3.4 0 0 1 1.5.7 51.6 51.6 0 0 1-.6 1.8l-.2 2.7a12.3 12.3 0 0 1-.6 2.8 637.3 637.3 0 0 1-1.3 3.4A32.1 32.1 0 0 0 59 97h-.1a1.2 1.2 0 0 0-.2.1h-.1V97h-.1v-.5l.4-1a24.7 24.7 0 0 0 .4-3c-.1-.4-.3-.5-.7-.4l-.1.2-.4 2.3a9 9 0 0 1-.9 2.8c0 .3-.1.5-.3.8a3 3 0 0 1-.4.7 1.7 1.7 0 0 1-.2 0h-.1a19.6 19.6 0 0 1-.2-.4v-1.4l.3-.9a328.1 328.1 0 0 1 1.1-4c0-.2 0-.3-.2-.4-.3-.1-.6 0-.6.4v.2l-.3.7-.8 2.7c-.3 1-.7 2-1.2 2.8a.7.7 0 0 1-.3-.4 5 5 0 0 1 0-1.8 13.4 13.4 0 0 1 .7-2.5l1-2.7c0-.3-.2-.4-.5-.4l-.2.1c-.3.4-.4.8-.6 1.3a35.2 35.2 0 0 1-.8 2v.2h-.1l-.4.9a13.7 13.7 0 0 0-.6 1.3l-.2.4a.8.8 0 0 1-.2-.6 33 33 0 0 1 2.6-9l.5.3c.3.1.5 0 .6-.2.2-.2.2-.4 0-.6-.7-.3-1.3-.5-2-.3a1 1 0 0 0-.4.2 5.2 5.2 0 0 1-2.3.9.9.9 0 0 1-.2 0v-.2a1 1 0 0 1 0-.3c.3-.5.6-.8 1-1.1a110.4 110.4 0 0 1 4.9-2.8c.5-.5 1-1 1.3-1.8Zm3.4 8.6Zm-8.2.8ZM94.6 41h.3a33.4 33.4 0 0 0 3.3 0 344.2 344.2 0 0 0 3.1.2 5.8 5.8 0 0 1 2 1.2 15.8 15.8 0 0 1 1.1 1l.1.2a19.8 19.8 0 0 1 .5.7l.2.9a17.9 17.9 0 0 1 0 3.8v.1a4 4 0 0 0 0 .5 7.6 7.6 0 0 1-1.7 3.3 5.5 5.5 0 0 1-2.9 1.6h-1.5a30 30 0 0 1-2-.2h-.2a6.5 6.5 0 0 0-.4 0l-.6-.2a6 6 0 0 1-2-.7 4 4 0 0 1-1.8-1.8l-.1-.5a1.6 1.6 0 0 0 0-.3 1.5 1.5 0 0 1 0-.2v-.2l-.1-.3a12.7 12.7 0 0 1 .3-3.6 342 342 0 0 1 1.4-5v-.1l.2-.2a11.2 11.2 0 0 0 .8-.2Zm8.1 22h.5a10.8 10.8 0 0 0-.4 2.8 585.1 585.1 0 0 1-1.3 1l-.3.2-.6.4-1 .1v-.1l-.2-1 .1-1.4.2-.4.1-.4.5-.1a190.7 190.7 0 0 0 1.4-.8l1-.3Zm-24.2-.8c.1.3.4.6.7.7a10.8 10.8 0 0 0 1.6.6c.1.2.2.2.4.3a5.5 5.5 0 0 1 .5.3l.2.1.2.1.1.2v.2c.2.3.2.6.2.9v.5a2.6 2.6 0 0 1-.2 1.1l-.2.1a42.3 42.3 0 0 0-.5 0c-.4 0-.8-.2-1.1-.4a41.2 41.2 0 0 1-1-.6 20.6 20.6 0 0 0-1-4Zm8.5 2.8Zm2.6 1.9.1.5.1 1.4c0 .5 0 1-.2 1.4l-.1.2c-.3.2-.6.4-1 .4h-4a13.4 13.4 0 0 1-.2-2.4v-1h.4a5 5 0 0 1 .9-.2h.6a23.2 23.2 0 0 0 3.2-.3h.2Zm-.1 0Zm-10 .6v-.1Zm1.7 1.2.7.6c.4.4.7.8.8 1.4l-.1.2c0 .1 0 .2-.2.3l-.6.2a.6.6 0 0 0-.4.2H81c-.1-.1-.2-.1-.2 0a5 5 0 0 0-1.3-.1h-.2l.2-3.1h1.1l.6.3Zm-1.5 3.6h.8l1.4.4c.3.1.6.3.8.6l.5.4.7 1.2a16 16 0 0 1 .6 1.7v1.2a53.8 53.8 0 0 1-6.2-.7l.2-.4c.2-.2.3-.5.3-.7 0-1.2.2-2.5.4-3.7h.5Zm6.4 5.4Zm15.4-11Zm.3 1Zm-.1 0a4.2 4.2 0 0 0 .4-.3l.6-.4a29.8 29.8 0 0 0 0 3.4l-.1.1a1.6 1.6 0 0 0-.2.2 11.5 11.5 0 0 1-1.8 1c-.3.2-.6.2-1 .1v-.2l-.2-.7c0-.4 0-.7.2-1.1.1-.5.3-.9.7-1.3l.2-.2.5-.1.7-.4Zm-2.4.6a5 5 0 0 0-.2.2 71.4 71.4 0 0 0 .2-.2Zm1.4 4.6a1.8 1.8 0 0 0 .3-.2h.1a.6.6 0 0 0 .3-.4 7.5 7.5 0 0 0 1.5-.9 294.6 294.6 0 0 0 .4 5.4l-1.3.3-1 .2a271 271 0 0 1-3.2.1 13 13 0 0 1 .8-2.7l.7-1 .8-.6h.4l.2-.2Zm-2.1-8.8.3.1a2.9 2.9 0 0 0-.3.9v-1Zm-.8 2.1Zm.2 1.2a12.7 12.7 0 0 0 .2.5v.2a10.8 10.8 0 0 1 0 .7A5 5 0 0 1 98 71h-.3a8 8 0 0 1-1.5-.1 2.8 2.8 0 0 1-.3 0h-.1l-.7-.2a1 1 0 0 0-.3 0 3.6 3.6 0 0 1-1.6-.3l-1-.4v-.4a6.7 6.7 0 0 1 0-2.7h.7a27.4 27.4 0 0 0 5.2.6Zm.6 4.1v.1c.1.5.3.8.7 1a11.1 11.1 0 0 0-1 1.1v-1.4l.1-.3.2-.5ZM81 41.3c.4-.3.8-.5 1.3-.6a6 6 0 0 1 2.5-.2l2.7.3c.6.1 1 .4 1.4 1v2.5c0 .8.2 1.6.4 2.4a14.7 14.7 0 0 1 .5 3.5 15.3 15.3 0 0 1-.3 1.7 5.3 5.3 0 0 1-1.3 1.5H88l-.1.1a8 8 0 0 1-1.4.8 6.8 6.8 0 0 1-1.8.4 11.1 11.1 0 0 1-1.1 0l-2.8-.1c-.5 0-1-.2-1.4-.4a4 4 0 0 1-2.2-2.3l-.4-1c-.1-.3-.2-.7-.1-1v-2.5c0-.7.2-1.3.3-2 .1-1 .7-1.8 1.5-2.4l2.4-1.7Zm6 12.8Zm.3.8Zm21-16.2c.3.1.5.2.6.4a7 7 0 0 1 2.8 3.2c.4.9.7 1.8.8 2.8l.1.7a59 59 0 0 1 .6 4.9v.1c0 .2.2.2.3.3l.5 1a23.8 23.8 0 0 1 2 4.4l.1.6a120 120 0 0 0 .7 3 12.2 12.2 0 0 1 2 3.6 5.7 5.7 0 0 1 .2.3l.6 1.8.7 2.6a102.2 102.2 0 0 1 1 5.4 79.7 79.7 0 0 0 2 7 31 31 0 0 0-3.3 1h-.2l-.2.1-1 .4a79.8 79.8 0 0 0-3.2-4.9 131 131 0 0 1-2.5-4.6 41.3 41.3 0 0 1-1.7-5.2 38.2 38.2 0 0 1-1-3.5 3.5 3.5 0 0 0-.5-1.1 39.5 39.5 0 0 1-3-7.6l-.1-.8a49.4 49.4 0 0 0-.3-6.1v-.7l-.1-2.8v-.3l-.3-.7a5 5 0 0 0-1-1.2 14 14 0 0 0-2-1.7l-1.3-.6-1.5-.3a47.7 47.7 0 0 0-6.4.3c-.6.2-1 .6-1 1.2.1.5 0 1-.2 1.4l-.3 1-.8 2.6c-.2.6-.3 1.3-.3 2v2.8l.2.4 1 1.6h-.4l-.4.4a7.3 7.3 0 0 0-.5 2.7v.5a87.5 87.5 0 0 0-.3-2.6c0-.4-.3-.6-.7-.7h-.8c.4-.4.8-.9 1-1.4.3-.4.5-1 .5-1.5v-.5c0-1 0-1.9-.2-2.8a117.9 117.9 0 0 0-.7-3v-2.3a2 2 0 0 0-1.2-2c-.5-.2-.9-.4-1.3-.4l-1.4-.2c-1-.1-1.9-.2-2.8-.1a5 5 0 0 0-2.6 1L78 42.3a4 4 0 0 0-1.6 2A9.7 9.7 0 0 0 76 47l-.1.2v.5l-.1 2.6-.2 2.5A13.8 13.8 0 0 1 74 59a20.2 20.2 0 0 0-2 5.1 55.8 55.8 0 0 1-1.2 5.7c-.3.9-.7 1.7-1.2 2.5a19.1 19.1 0 0 0-1.7 3l-1.6 2.4a334 334 0 0 0-2.4 3.4 28 28 0 0 0-.4.9l-.2.4c-.3-.3-.6-.5-1-.6a12.4 12.4 0 0 1-1.6-.5l-2.1-.6a245.8 245.8 0 0 1 1.7-5.2 59.9 59.9 0 0 0 1.2-5.5l.4-1.6.8-2.5a88.4 88.4 0 0 0 1.7-4.4l.3-.6.5-1 .2-.5.2-.7a218.4 218.4 0 0 1 1.7-5l.2-.4a269 269 0 0 1 1.5-3v-.6L69 47l.5-2.8V44c0-.5.2-.9.4-1.3l.8-1.3a112.5 112.5 0 0 1 2.4-2.4 13 13 0 0 1 3.7-1h.6c.3 0 .5.2.8.4l2 .8c.4.2.6 0 .7-.2v-.3a.9.9 0 0 0-.6-.4l-.5-.3-1.1-.5.5-.2.6-.3a43.2 43.2 0 0 0 5.3-2.5h.1a.4.4 0 0 0 .2 0l.1-.2h.3V34c.2-.3.3-.6.3-1a12.5 12.5 0 0 0 0-1.8V31a31 31 0 0 0 2.4.8 122.6 122.6 0 0 1 2.4.3l1.3-.3c.5-.1.9-.3 1.3-.6a7 7 0 0 1 1.3-.8l1-.4v.5c-.1.2-.1.3 0 .4v1.9c0 .5 0 .9.2 1.2l.3.2a29 29 0 0 0 4.5 2.2l.7.1 1.6.5c.3 0 .5.2.8.3h-.1c-.6.5-1.3.8-2 1.1-.3.2-.4.4-.2.8h.2c0 .1 0 .1.1 0a6.6 6.6 0 0 0 3-1.7c.3.2.6.2 1 .3a9 9 0 0 1 2.4 1Zm-3.6 14.6V53l.8-1.4v.4a122 122 0 0 0 .4 4.4v.1a15.9 15.9 0 0 1-.8 2.1l-.3.6V56.5a50.2 50.2 0 0 1-.1-3.2Zm-7.5 2 .2.4a2.8 2.8 0 0 1 .2.8 18.7 18.7 0 0 1 .4 2.6 70.2 70.2 0 0 0-.2 2.2 57.4 57.4 0 0 1-4.5-2.6 12.8 12.8 0 0 0-1.3-.6v-.3a25.6 25.6 0 0 1 0-2.4c0-.4.2-.7.3-1a1 1 0 0 1 .2 0l1.3.3c.3 0 .7.2 1.1.5h.5l.1-.2.9.2h.1a32.9 32.9 0 0 0 .7.2Zm1.2.2v.2a15.2 15.2 0 0 0 .7.8 1.3 1.3 0 0 0-.1.1l-.1.2-.2.5a13.3 13.3 0 0 0-.5-1.9h.2ZM91 58a2 2 0 0 0 .4.6v.1A27.8 27.8 0 0 1 95 61a15.7 15.7 0 0 0 2.5 1.3h.2a5.3 5.3 0 0 1 0 .3h-.1l-1.2-.5a75 75 0 0 0-4.4-2.2c-.4 0-.7 0-.9.4l-.1.3a7.5 7.5 0 0 0 0 2.6v1.2c.2.5.5.8 1 .9h.4a17.8 17.8 0 0 0 1.8.3 11.8 11.8 0 0 1 2.7.7h.3l.6.1v.2H96.4a64.9 64.9 0 0 1-4.5-.5c-.3 0-.5.3-.6.6l-.1.4-.2 1.5a7.8 7.8 0 0 0 .2 1.6c.2.5.5.8 1 .9l.7.2a4 4 0 0 0 1.6.4l1.1.1H96.3a6.3 6.3 0 0 0 1.3.2c-.2.4-.2.8-.2 1.3v1a8 8 0 0 1-.8 2.6l-.3.4-.4.7a91.8 91.8 0 0 1-9.7.1 3 3 0 0 0-.2-.7 9 9 0 0 1-1-4.2c0-.4 0-.9-.2-1.3h.2a25 25 0 0 0 2 0h1.4c.5 0 1-.1 1.4-.3.4-.2.7-.6.8-1l.2-1.4V67c0-.3-.2-.6-.3-.8l-.2-.1h-.9l-.8.1a19.5 19.5 0 0 1-1.9.2 26.5 26.5 0 0 0-2.4 0h.1l1-.1a7.6 7.6 0 0 1 2-.4l1.4-.1a6.6 6.6 0 0 0 1.7-.5c.2-.1.4-.3.4-.6a5 5 0 0 0 0-1 42.5 42.5 0 0 0-.2-1.3 11 11 0 0 0 0-1.6l-.3-.6-.1-.2a.9.9 0 0 0-1 .1c-.2.2-.5.3-.9.4l-.6.1a85.6 85.6 0 0 0-3.3 1.1 3.4 3.4 0 0 0 .4-.2c.5-.3 1-.6 1.5-.7a144.3 144.3 0 0 0 3.7-1.2c.4-.2.7-.5.9-.9v-.6Zm1 2.6a3.4 3.4 0 0 1 .6.2 6 6 0 0 1 1.7 1l.9.4a40 40 0 0 1 2.5 1.2 14.7 14.7 0 0 0 0 2l-.2-.1c-.4 0-.7-.2-1.1-.3a33 33 0 0 0-4.3-.9 48.7 48.7 0 0 1-.1-3.5Zm11.8-6.3a42 42 0 0 0 0 3.2c-.8 0-1.7-.2-2.5-.6a6.5 6.5 0 0 1-1.8-1.5h.5a5.2 5.2 0 0 0 2.3-.5l1.5-1v.4Zm-2.5 6h.8a2.9 2.9 0 0 0 1.2 1.3h.2l.1.4v.2h-1.1l-.5.1c-.5 0-.9.3-1.3.5-.4.3-.8.5-1.3.6a1.6 1.6 0 0 0-.1 0c-.2-.5-.2-1 0-1.5a6.4 6.4 0 0 1 .4-1.3l.5-.4h1.1Zm-24.7-8a7.8 7.8 0 0 0 .6 1.2v.4a9.8 9.8 0 0 1 0 3l.1.8a3.1 3.1 0 0 0 0 1 339 339 0 0 0 0 .8 27.4 27.4 0 0 1-1-3.2l-.1-.1H76a10.3 10.3 0 0 0 .4-2.3v-1.5Zm4.5 3.1h.4a20.5 20.5 0 0 0-1.7 1 12.4 12.4 0 0 1-1.4.6.7.7 0 0 0-.3 0 8.2 8.2 0 0 0 0-1.7v-1l.5.3a6.3 6.3 0 0 0 2.5.8ZM79 58a23.3 23.3 0 0 0 3-1.6h.1v.1l.2.1.2.6v1.4l-.1.2-.3.3-.7.3h-.1A4.8 4.8 0 0 1 80 59a34.5 34.5 0 0 1-1-1.2Zm-.8 3.6a3.7 3.7 0 0 0 .2.7 6.5 6.5 0 0 0-.5-.8h.3v.1Zm3-1.3h.5l.3-.2.1.2a17.5 17.5 0 0 1 .4 1.3 3.7 3.7 0 0 1 0 .5 17.6 17.6 0 0 1-.2 1h-.4a274.1 274.1 0 0 1-2-.6 20.3 20.3 0 0 1-.6-.4v-.2l-.1-.3v-.4a16.3 16.3 0 0 0 .8-1l1.1.1Zm8.6-5.5a5.8 5.8 0 0 1 .1 1.2v.7c.2.7.2 1.4 0 2a32.2 32.2 0 0 0-2.5.8 12 12 0 0 0-3.1 1.3 13.4 13.4 0 0 1 .4-4.2l.2-1a7.1 7.1 0 0 0 .6 0 5.5 5.5 0 0 0 1.9-.6l.5-.3a25.6 25.6 0 0 1 1.9.1Zm-6.8 1h.9l-.2.8-.2 1.3v.1a2.8 2.8 0 0 0 0-.6A3 3 0 0 0 83 56s0-.2-.2-.2a90.9 90.9 0 0 1 .2-.1Zm.4 2.8a8 8 0 0 0 0 2 17.8 17.8 0 0 1 0 2.8 565.3 565.3 0 0 1 0 5.9 14.4 14.4 0 0 0 .2 2v.3a33.5 33.5 0 0 0 .3.5 4.4 4.4 0 0 1 0 1.4 14.2 14.2 0 0 0-.4-.6c-.3-.3-.5-.5-.8-.6a1.5 1.5 0 0 0 .8-1.4c0-.5-.1-1-.4-1.4a3 3 0 0 0-1-1l.1-.1c.5-.1.8-.4 1-.9l.1-1v-.8c0-.6 0-1-.4-1.5a.9.9 0 0 0-.2-.3c.2 0 .3-.1.3-.3a3.8 3.8 0 0 0 .4-2 5.2 5.2 0 0 0-.6-2 2 2 0 0 0 .5-.8l.1-.2Zm1 4.6s.2 0 .3-.2l.3-.2a4.2 4.2 0 0 1 .6-.2l.5-.2.5-.3a381.8 381.8 0 0 1 3-1.1 5.8 5.8 0 0 1 0 1l.1 1c.2.6.2 1.1.2 1.7h-.1l-1.2.3-1.5.1a5.9 5.9 0 0 0-.4 0 6 6 0 0 0-1.3.4l-1.2.2a18 18 0 0 1 .2-2.5Zm6 9c-.2.3 0 .5.3.6h.1c.4 0 .5-.2.5-.6 0-.1 0-.3-.2-.3h-.6l-.1.2ZM87 65.8Zm9 5.9ZM70.7 53h-.1a10.6 10.6 0 0 0-1 2.3 21.9 21.9 0 0 0-.8 4 13.9 13.9 0 0 0-.3 2.5c-.1.3 0 .6.3.8H69.1l.2-.3a10.8 10.8 0 0 0 .2-1.6 11.8 11.8 0 0 1 .3-2.2 3095.5 3095.5 0 0 1 1.2-4.3l.2-.5.1-.3c0-.4-.2-.5-.6-.4Zm-2 8.8Zm43.1-6.5a7 7 0 0 0-.8-1.9c-.1-.1-.3-.2-.5 0-.2 0-.3.2-.2.5a21.4 21.4 0 0 0 .6 1.4 8.5 8.5 0 0 1 .3 1.4 25.9 25.9 0 0 1 .2 2.2 10.7 10.7 0 0 1-.1 2.5c-.2.4 0 .7.2.8h.4v-.1a5.6 5.6 0 0 0 .5-1.8 12.3 12.3 0 0 0-.1-2.2 49.4 49.4 0 0 0-.5-2.8ZM65.1 69.7Zm0 .1Zm1-6.7h-.3c-.4 0-.5.3-.3.7l.5 1.6v2.1a8.1 8.1 0 0 1-.9 2.2 323 323 0 0 1-1.5 3.4c-.2.4-.2.7.1 1H64c.3-.3.6-.6.7-1V73a117.1 117.1 0 0 0 2-5c.2-.7.3-1.4.2-2.1 0-.8-.2-1.6-.5-2.3a1 1 0 0 0-.3-.5Zm-.2 7V70Zm0 0Zm0 0Zm0 0Zm0 0ZM120 81.7Zm-1.8-8.9Zm-2.2-9.2c-.1-.2-.2-.2-.3-.2-.4 0-.6.1-.7.5l-.4 2.1v1.1l.7 2.2 1 2 .8 1.4c.1.4.4.6.7.8.2 0 .4 0 .5-.2V73l-.6-1.1a50.8 50.8 0 0 1-2-4l-.2-1.3a6.9 6.9 0 0 1 .4-2.4c.2-.3.2-.5 0-.7ZM74.3 47.4v-.3c-.3-.2-.6-.2-.9 0l-1.6 1.5a29.7 29.7 0 0 0-2.6 3c-.2.2-.2.5 0 .8h.5l.3-.4a25.5 25.5 0 0 1 3-3.4l1-.6c.1-.2.3-.3.3-.6Zm29.5-5.6Zm9.1 8Zm-4.6-2.7c-.3-.2-.5-.2-.8-.2 0 0-.2 0-.2.2-.2.3 0 .5.3.7l.7.4 1.6 1.4 1.6 1.6h.6c.2-.1.2-.3.1-.5 0-.2-.2-.3-.3-.5a212.7 212.7 0 0 1-3.6-3.1ZM96 70.9ZM81.8 20.4c-.2.1-.3.3-.3.6v.6c0 .4.2.6.4.8l.4-.1V22a2.7 2.7 0 0 1-.2-1.3c0-.2 0-.3-.2-.4h-.1Zm17.7 0v.1l-.1 1.4-.1.2v.1h.1c.2.1.3 0 .4 0l.2-.6v-1.2l-.1-.2c-.2-.1-.3 0-.4.1ZM88 27a3.3 3.3 0 0 0 1.5.8 4.3 4.3 0 0 0 .4.1 31.8 31.8 0 0 0 .5 0h1.5a8 8 0 0 0 1.5-.6c.2 0 .3-.2.4-.4v-.2c-.3-.3-.5-.3-.7-.1h-.2v.1a6.3 6.3 0 0 1-.8.3 5.4 5.4 0 0 1-.7.2 7 7 0 0 1-.9 0 2.1 2.1 0 0 1-.8-.1h-.1c-.3-.2-.6-.3-.8-.6a1 1 0 0 0-.4-.2H88c-.2.3-.2.5 0 .7Zm2.7-5c-.2 0-.4 0-.6.3a3 3 0 0 0-.3.7c-.1.4 0 .8.2 1.2.3.5.7.7 1.2.6h.4l.4-.4v-.3c-.1-.2-.3-.3-.6-.1a1.3 1.3 0 0 1-.2 0 3.1 3.1 0 0 1-.3 0h-.1l-.1-.1a3.4 3.4 0 0 1-.1-.3 1 1 0 0 1 0-.2v-.5h.2l.1-.6c0-.1 0-.2-.2-.2Zm-5-2.6-.4.5v.4c0 .2.2.5.5.6a2 2 0 0 0 1.4.6h.1l.8-.2c.4-.2.8-.4 1.2-.8.2-.1.3-.3.3-.6v-.1c-.3-.5-.6-.8-1.1-1h-1.4a4 4 0 0 0-1.3.6Zm.4.7a7 7 0 0 1 .8-.4 1 1 0 0 0 0 1l-.4-.2-.4-.4Zm2.4-.4v.1a1.5 1.5 0 0 1 .2.1c0 .2-.2.3-.4.4l-.3.1V20l-.1-.3.6.1Zm.2.2Zm-.3-2.8c-.4-.2-.9-.3-1.4-.3l-.7.1-1 .6-.8 1.1c-.1.3 0 .6.2.7.3 0 .4 0 .5-.2V19a3.1 3.1 0 0 1 1.1-1.2c.4-.2.8-.3 1.2-.2.5.1 1 .3 1.3.7l.3.2c.3 0 .4-.1.5-.4v-.2c-.4-.3-.7-.6-1.2-.8Zm3.8 1.9Zm0 0Zm2 0-.4-.1h-1c-.5 0-1 .2-1.2.6l-.1.1a.4.4 0 0 0-.1.2v.2c0 .3.1.5.3.7l.5.4c.3.2.7.3 1.2.2.4 0 .9 0 1.3-.4l.3-.1c.4-.2.5-.5.5-1v-.1c-.4-.4-.9-.7-1.4-.8Zm-1.2.6a1 1 0 0 0 0 1H93l-.2-.1a.7.7 0 0 1-.3-.2l-.2-.3a7.4 7.4 0 0 0 .3-.3H92.8l.2-.1Zm1 .7v-.6l.7.3a9 9 0 0 0-.8.5v-.2Zm-1.5-.6Zm0 0Zm2.5-1.4.2.3a22.7 22.7 0 0 0 .3.3h.4c.2-.2.2-.4 0-.6-.2-.4-.5-.7-1-1a4 4 0 0 0-1.3-.3c-.5 0-1 0-1.3.2a3 3 0 0 0-1.2 1v.2c-.1.3 0 .4.2.4l.4-.1.5-.5c.4-.3.8-.5 1.3-.4.5 0 1 .2 1.4.5h.1Zm32.7 66Zm-8.8 3.3Zm0-.2Z"/><path fill="#CCC" d="m77.7 78.1-.7 3-.5 2.1a129 129 0 0 0-1.8 16.5h14.2a32 32 0 0 0 .9-3.4l.6-2.7c.1-.5.4-.7.8-.5l.2.3c.4.8.6 1.7.7 2.7a65.2 65.2 0 0 0 .5 3.6h14.2a390.7 390.7 0 0 0-.3-3.7 35.1 35.1 0 0 1-.6-6 171.8 171.8 0 0 0-1.4-7.8 39.8 39.8 0 0 0-.8-4.5 25.6 25.6 0 0 1-5.3.8l-2.2.2a70.1 70.1 0 0 1-18.5-.6Z"/><path fill="#DE9E71" d="m84.7 63-.3.1a36 36 0 0 1-.2 2.5l1.2-.2A6 6 0 0 1 87 65a119.4 119.4 0 0 0 2.8-.4c0-.6 0-1.1-.2-1.7v-1a5.1 5.1 0 0 0 0-1 4 4 0 0 1-1.5.6 1.1 1.1 0 0 0-.3 0 381.8 381.8 0 0 0-3.2 1.4Zm-1.3-4.3v-.2a2.9 2.9 0 0 1 0 .3 2 2 0 0 1-.6.7 5.8 5.8 0 0 1 .6 2.5c0 .6-.2 1-.4 1.5 0 .2-.1.3-.3.3l.2.3c.3.4.4 1 .4 1.5v.8l-.1 1c-.2.5-.5.8-1 .9H82l.2.1 1 1 .3 1.4v.3a1.5 1.5 0 0 1-.8 1l.8.7a7.3 7.3 0 0 1 .5.6v-.1a4.4 4.4 0 0 0-.2-1.5l-.2-.3V71a14.4 14.4 0 0 1-.2-2.7 28 28 0 0 1 0-5.1 18 18 0 0 0 0-2.7v-1.9Zm.4-3a22 22 0 0 1-.8 0h-.2l.2.3a3 3 0 0 1 .5 1.4v.5l.2-1.3a14.2 14.2 0 0 1 .2-1h-.1Zm6-.3v-.7a.6.6 0 0 0-.2 0 25.6 25.6 0 0 0-1.7 0 6.5 6.5 0 0 1-2.4.7 4.7 4.7 0 0 1-.6.1 18.4 18.4 0 0 0-.6 5.2c.2 0 .3-.2.5-.3a12 12 0 0 1 2.6-1 17.2 17.2 0 0 0 2.5-.7 5.5 5.5 0 0 0 0-2.2v-1.1Zm-8 4.7-.7.1c-.4 0-.7 0-1-.2l-.4.7a16.4 16.4 0 0 1-.6.6v.2l.1.3.1.2.3.2a2.4 2.4 0 0 0 .4.2c.3.1.6.3 1 .3a254.2 254.2 0 0 0 1.3.3l.1-.5a17.6 17.6 0 0 0 0-1v-.4A6 6 0 0 0 82 60l-.3.1Zm-1.1-3-1.7.8a37.8 37.8 0 0 0 1 1.2 4.8 4.8 0 0 0 1.4.2c.3 0 .5-.2.7-.3l.3-.3v-.2c.2-.5.2-1 .1-1.4a1.8 1.8 0 0 0-.4-.7l-.2-.1a40.6 40.6 0 0 1-1.2.7Zm-4.1-4.3-.1-.3a112 112 0 0 1-.3 3.9.4.4 0 0 1 .1.1 9.1 9.1 0 0 1 .3 1 27.2 27.2 0 0 0 .9 3 13.2 13.2 0 0 0-.3-2v-.7c-.1-.2-.2-.5-.1-.8a10.1 10.1 0 0 1 0-.5 9.6 9.6 0 0 0 0-2.5v-.4l-.5-.8Zm25.2 7.6h-.6a6 6 0 0 1-.8-.2l-.3.1c-.2 0-.4.2-.5.4a6.1 6.1 0 0 0-.5 1.3 3.2 3.2 0 0 0 0 1.5h.1c.6 0 1-.3 1.4-.6l1.3-.5a1017 1017 0 0 0 .5-.1h1l.1-.2a.4.4 0 0 1-.1-.3h-.2l-.3-.3c-.4-.3-.7-.7-.9-1.1h-.2Zm-9.9.2v.1a1.8 1.8 0 0 0-.1.3 8.7 8.7 0 0 0 0 2.6l.2.6a665.2 665.2 0 0 1 5.7 1.2 19.6 19.6 0 0 1-.1-2l-1.3-.5a40 40 0 0 0-2.5-1.4h-.1a6 6 0 0 0-1.4-.7l-.4-.2Zm-1-2.5v.6c-.2.4-.5.7-1 .9l-.6.2a144.3 144.3 0 0 1-4.5 1.7 2.9 2.9 0 0 1-.4.2 5 5 0 0 1 0 .3 4 4 0 0 1 .9-.4 4.5 4.5 0 0 0 .6-.2l.4-.2a85.6 85.6 0 0 1 3-1.1c.2-.2.5-.2.9 0h.1a1.2 1.2 0 0 1 .2.7 10.5 10.5 0 0 1 0 1.6l.1.6.2.7v1c0 .3-.2.5-.4.6l-.1.1-1.6.4a26.8 26.8 0 0 1-1.6.1c-.6 0-1.2.2-1.7.4a4.5 4.5 0 0 1-1.2.2 12.4 12.4 0 0 1 2.7-.2 19.5 19.5 0 0 0 2.4-.2h1.1l.2.9V69c.1.5 0 1-.1 1.4-.1.4-.4.8-.8 1-.5.2-.9.3-1.4.3a34.3 34.3 0 0 1-3.6 0l.2 1.3v1.7l1 2.5.2.7a60.3 60.3 0 0 0 9.7-.1c0-.3.2-.5.4-.7l.3-.4a8 8 0 0 0 .8-3.6c0-.5 0-.9.2-1.3a77.3 77.3 0 0 1-1.5-.1h-.1a3.6 3.6 0 0 1-.3 0 26 26 0 0 0-1.3-.3 4 4 0 0 1-1.4-.3L92 71c-.4-.1-.7-.4-.9-.9V70a7.8 7.8 0 0 1 0-3l.1-.3c.1-.3.3-.5.6-.6h1.4l.7.2a45.1 45.1 0 0 0 2.5.3h1.3v-.2H97a31.4 31.4 0 0 0-4.9-1.1c-.5-.1-.8-.4-1-1a51 51 0 0 1-.1-2.7v-1l.2-.3c.2-.3.5-.5.9-.4.3 0 .5 0 .8.2l.8.4a2.4 2.4 0 0 1 .5.3 7.4 7.4 0 0 0 1.4.8 75 75 0 0 1 2 1h.2v-.3h-.2A15.4 15.4 0 0 1 95 61a59 59 0 0 0-3.8-2.2 2 2 0 0 1-.3-.6Zm-3.8 7.8Zm3.6 6.8c-.4-.1-.5-.3-.3-.7V72c.2-.2.4-.2.7-.1l.2.3c0 .4-.1.6-.5.6h-.1Zm7.7-17v-.2H98a14 14 0 0 1 .5 1.8c0-.1 0-.3.2-.5a.8.8 0 0 1 .1-.3h.1a7.4 7.4 0 0 1-.6-.8Zm-1.3-.3a19.7 19.7 0 0 1-.7-.2h-.1l-.9-.2v.2h-.6c-.4-.3-.8-.4-1.1-.5a11.1 11.1 0 0 1-1.4-.3 1 1 0 0 0-.1 0 6.4 6.4 0 0 0-.4 2.1 25.6 25.6 0 0 0 .1 1.6 12.8 12.8 0 0 1 2.4 1.3 57.2 57.2 0 0 0 3.4 2V61a70.2 70.2 0 0 1 .1-2.7l-.3-1.9v-.2l-.2-.6-.2-.3Zm7.4-2.3v.2l.2.7a48.4 48.4 0 0 0 0 4.7v.6l.3-.6a124.5 124.5 0 0 1 .8-2v-.2a12 12 0 0 1-.2-1.6l-.2-2.8v-.4c-.2.5-.5 1-.9 1.4Zm4.3-14-.5-.4c-.8-.4-1.6-.8-2.5-1l-1-.2a6.6 6.6 0 0 1-3 1.7l-.2-.1c-.2-.4-.1-.6.3-.8a11 11 0 0 0 2-1.1l-.8-.3-1.6-.5-.7-.1A29 29 0 0 1 96 34c-.2-.4-.3-.8-.3-1.3a62.6 62.6 0 0 0 0-2.8 11.7 11.7 0 0 1-1 .5 7 7 0 0 0-1.2.7c-.4.3-.8.5-1.3.6a13.7 13.7 0 0 1-1.8.3 4 4 0 0 1-.5 0v-.1a120.2 120.2 0 0 0-2.2-.3l-.7-.3a31 31 0 0 1-.8-.4v.4l-.1 1.8-.2 1-.1.1-.3.1-.1.1a.4.4 0 0 1-.2 0v.1H85a26.2 26.2 0 0 1-5.9 2.8l-.5.2a62.5 62.5 0 0 1 2.2 1.2v.3c-.1.3-.3.4-.6.2a11 11 0 0 1-2-.8l-.9-.5a16.9 16.9 0 0 0-4.3 1l-.7.5a112.5 112.5 0 0 0-2.5 3.3l-.4 1.3v.2a96.6 96.6 0 0 0-.7 5.5 23.1 23.1 0 0 1 0 1.3h-.1v.1a269 269 0 0 0-1.5 2.5 18.7 18.7 0 0 0-1 2.7v.2l-.7 2.2-.2.7-.2.5-.5 1a12 12 0 0 0-1 2.3 88.4 88.4 0 0 1-1.8 5.2l-.4 1.6a28.4 28.4 0 0 1-1.2 5.5 63 63 0 0 1-1.7 5.2l2.1.6a9.5 9.5 0 0 0 1.6.5c.4.1.7.3 1 .6a66 66 0 0 0 1.3-2.5l1.7-2.2A15 15 0 0 0 68 75c.4-1 1-1.9 1.6-2.8.5-.8 1-1.6 1.2-2.5A38.4 38.4 0 0 0 72 64a9.7 9.7 0 0 1 .8-2.6 53.7 53.7 0 0 1 1.1-2.5l.2-.3a12.6 12.6 0 0 0 1.1-3.3c.2-.9.3-1.7.3-2.6l.2-2.5a17.1 17.1 0 0 0 0-3l.2-.3a7.4 7.4 0 0 1 .5-2.7 4 4 0 0 1 1.6-2l2.4-1.7a5 5 0 0 1 2.6-1h2.8a132.6 132.6 0 0 0 2.7.7 2 2 0 0 1 1.2 2 22 22 0 0 0 0 2.6l.7 2.7.3 2.8-.1.5c0 .6-.2 1-.4 1.5-.3.5-.7 1-1.1 1.3l.8.1c.4.1.6.3.7.7a7.5 7.5 0 0 1 .3 2 87.5 87.5 0 0 1 .1-1.1l.4-1.5c.1-.2.3-.3.4-.3l.4-.1a4.3 4.3 0 0 1-1-1.6l-.2-.4v-2.8c0-.7 0-1.4.3-2a300.4 300.4 0 0 1 1.4-5c0-.6.3-1 .9-1.2.8-.3 1.7-.4 2.6-.4h1a47.7 47.7 0 0 1 4.3.4l1.2.6a14 14 0 0 1 2.7 2.2 3 3 0 0 1 .7 1.8 18.1 18.1 0 0 1 .2 3.6V52l.2 2.6a12.7 12.7 0 0 0 1.9 6A42.5 42.5 0 0 0 110 64l.3.8a38.8 38.8 0 0 0 1.6 5.4 41.3 41.3 0 0 0 2 4.9 138.3 138.3 0 0 0 4.6 7.1l1-.4h.1a5 5 0 0 0 .3-.2 30.8 30.8 0 0 1 3.2-.9 13.7 13.7 0 0 1-.6-1.7 39 39 0 0 1-1.3-5.3 115.2 115.2 0 0 1-1-5.4l-.8-2.6-.6-1.8-.2-.3a42.6 42.6 0 0 1-.6-1.3 12.6 12.6 0 0 0-1.4-2.3v-.3a175.6 175.6 0 0 1-1.2-4.4c0-.3-.2-.6-.3-.8a23.8 23.8 0 0 0-2.1-4l-.4-2.4c0-.8 0-1.6-.2-2.4V45a12 12 0 0 0-.9-2.8 7 7 0 0 0-2.8-3.2Zm-.5 8s.2 0 .3.2l1.4 1.2a199.2 199.2 0 0 0 2.2 2.2v.5h-.7l-1.6-1.6a11.8 11.8 0 0 0-2.3-1.8c-.4-.2-.5-.4-.3-.7l.2-.2c.3 0 .5 0 .8.2Zm4.6 2.7Zm-9-8h-.1Zm-29.7 5.3c.1 0 .2.2.1.3 0 .3-.2.4-.4.6l-.9.6a19 19 0 0 0-3 3.4l-.3.3c-.1.1-.3.1-.4 0-.3-.2-.3-.5-.1-.8a40.7 40.7 0 0 1 4.2-4.3c.3-.3.6-.3.8-.1Zm41.5 16.3s.2 0 .3.2v.7l-.2.2c-.2.7-.3 1.4-.3 2.2a12.8 12.8 0 0 0 1.1 3.4 50.7 50.7 0 0 0 1.7 3.2c-.1.2-.3.3-.6.2a2 2 0 0 1-.6-.8l-.8-1.4a15 15 0 0 1-1.6-4.2v-1c0-.8.1-1.5.3-2.2.1-.4.3-.5.7-.5Zm2.5 9.4Zm1.8 8.9ZM65.8 63l.3.1.3.5a7.2 7.2 0 0 1-.2 6 25.6 25.6 0 0 0-1.5 3.6c-.1.3-.4.6-.7.8H63.7c-.3-.2-.3-.5 0-.9l.1-.3a98.4 98.4 0 0 0 1.3-3c.4-.8.7-1.5.8-2.3.2-.7.2-1.4 0-2.1 0-.6-.2-1.1-.4-1.6-.2-.4-.1-.6.3-.8Zm-.7 6.7Zm46.1-15.8a7 7 0 0 1 .9 2.6 49.4 49.4 0 0 1 .3 3.9 5.7 5.7 0 0 1-.4 1.8l-.2.1h-.3c-.3-.1-.4-.4-.2-.8v-.2a10.6 10.6 0 0 0 .1-2.6 25.4 25.4 0 0 0-.5-3.3l-.3-.7c0-.3-.2-.5-.3-.7 0-.3 0-.5.2-.6.2 0 .4 0 .5.2l.2.3Zm-40.6-.7.1-.1c.4-.1.6 0 .6.4v.3l-.3.5a17 17 0 0 0-.7 2.2 3095.5 3095.5 0 0 0-.8 4.3 11 11 0 0 1-.2 1.6c0 .1 0 .2-.2.2H68.8c-.3 0-.4-.4-.3-.7a1 1 0 0 0 0-.4 13.9 13.9 0 0 1 .4-2.8 101 101 0 0 1 .9-3.6l.8-2Zm28 18.5a7.5 7.5 0 0 1-.4.7v1.4l.1-.2a11.1 11.1 0 0 1 1-1c-.4-.1-.6-.4-.7-.9Zm-.5-3.9v-.3h-.4l-1.3-.2a16.9 16.9 0 0 1-3.6-.4h-.7a6 6 0 0 0 0 2.7v.4a9.5 9.5 0 0 0 1.3.5l1.3.2h.3l.7.1a11.5 11.5 0 0 1 .3 0h.1a26.4 26.4 0 0 1 1.5.2h.3a5.5 5.5 0 0 0 .3-2.6V67.8Zm.8-3.5-.3-.1v1a4.3 4.3 0 0 1 .3-.9Zm2 8.5-.2.2-.2.2h-.4l-.8.6a5 5 0 0 0-1 1.6 13.3 13.3 0 0 0-.5 2.3 272.2 272.2 0 0 0 5.5-.8c-.3-.8-.5-1.6-.3-2.4v-.8l-.1-2.2h-.1a9.1 9.1 0 0 1-1.4 1l-.3.2-.1.1Zm-1.8-4.2.2-.2s-.2 0-.2-.2a71.4 71.4 0 0 1 0 .4Zm3.6-1.5-.6.4a4.2 4.2 0 0 1-1.6 1l-.2.1c-.4.4-.6.8-.7 1.3l-.2 1.1c0 .3 0 .5.2.7v.2h1l.2-.2a9 9 0 0 0 1.6-1 1.2 1.2 0 0 1 .2 0l.2-.2a8155.9 8155.9 0 0 1-.1-3.4Zm-22.2 5.4h-.8l-.5-.1a45.8 45.8 0 0 0-.7 4.4l-.2.5h.5l.6.1a282.8 282.8 0 0 0 5.1.5 26.7 26.7 0 0 1 0-1.6 16 16 0 0 0-.6-1.3 5.1 5.1 0 0 0-1.2-1.6c-.2-.3-.5-.5-.8-.6a12 12 0 0 0-1.4-.3Zm1.4-3.1a3.5 3.5 0 0 0-1.8-1 1.3 1.3 0 0 0-.3 0h-.3c0 1.1 0 2.2-.2 3.2H81l.4.1.3-.1h.2l.5-.3.2-.3v-.2c0-.6-.3-1-.7-1.4Zm7.8-2.4H89.4a130 130 0 0 0-5.1.5 44.3 44.3 0 0 0 .2 3.4H88.5c.4 0 .7-.2 1-.4v-.2c.3-.4.3-.9.3-1.4a55.2 55.2 0 0 0-.1-2Zm-10.5-4c-.3-.1-.6-.4-.7-.7l.4 1.1a20.6 20.6 0 0 1 .5 3 41.5 41.5 0 0 0 2 1 1.3 1.3 0 0 0 .6 0h.2v-.1c.2-.4.2-.7.2-1.1v-.5a2.2 2.2 0 0 0-.2-1l-.1-.3-.2-.1a1.4 1.4 0 0 1-.3-.2l-.2-.1a5.5 5.5 0 0 0-.2-.1c-.2 0-.3-.1-.4-.3h-.3l-1.3-.6Zm24 .2h-.5a5.8 5.8 0 0 0-1.2.3 223.3 223.3 0 0 1-1.8 1.2l-.2.4v1.4l.1 1v.1l1-.1.6-.4a103 103 0 0 1 1.6-1.2 36 36 0 0 1 .4-2.7Zm-45 18.4h-.1c-.3.7-.8 1.3-1.3 1.8a27.2 27.2 0 0 0-5.9 3.9v.4a.7.7 0 0 0 .2 0c.9 0 1.6-.3 2.3-.8l.4-.2c.7-.2 1.3 0 2 .3.2.2.2.4 0 .6-.1.3-.3.3-.6.2-.2 0-.3-.2-.5-.3l-.1.2a29.2 29.2 0 0 0-1.2 3.3 33 33 0 0 0-1.3 5.5c0 .2 0 .4.2.6l.2-.4a11.4 11.4 0 0 0 .6-1.3 11.2 11.2 0 0 0 .4-.9v-.1A34.4 34.4 0 0 0 55 91l.2-.1c.3 0 .5.1.5.4a25.3 25.3 0 0 1-1 2.7l-.7 2.5a5 5 0 0 0 0 1.8c0 .2.1.3.3.4.5-.8 1-1.8 1.2-2.8a152.6 152.6 0 0 1 1-3.4v-.2c.1-.4.4-.5.7-.4.2.1.2.2.2.4l-.2 1.3a328.1 328.1 0 0 0-1.2 4.6V98.8a18.4 18.4 0 0 0 .2.2 1.5 1.5 0 0 0 .2 0c.3-.2.4-.5.5-.7a5.1 5.1 0 0 0 .4-1 9 9 0 0 0 .8-2.6 268.7 268.7 0 0 1 .5-2.5c.4-.1.6 0 .7.3v.4a24.7 24.7 0 0 1-.7 4.3.6.6 0 0 0 .2 0l.2-.1a2 2 0 0 1 .2-.3 32.1 32.1 0 0 1 2.3-6.5l.5-2.6a76.9 76.9 0 0 1 .7-4.2 54 54 0 0 0 0-.4c-.4-.3-.9-.5-1.4-.5l-.2-.1c-.7-.4-1.3-.6-2-.8a4 4 0 0 0-.9-.1Zm24-62.2H82c-.5.1-.8.5-.9 1v.4c-.2.5-.2 1 0 1.4.2.5.5.8 1 1l.2.1h.4a7.7 7.7 0 0 0 0-.8 4.8 4.8 0 0 0-.3-1.2l-.3-1.5a17.4 17.4 0 0 1 0-.4Zm-.7 1.6c0-.3 0-.5.3-.6h.1c.2.1.2.2.2.4a2.7 2.7 0 0 0 .2 1.3v.2l-.4.2c-.2-.3-.4-.5-.4-.9V21Zm18.7-1.6-.2-.1-.2-.2h-.5v.1a.6.6 0 0 0-.1.1l-.1.1v.5a39 39 0 0 0 0 3.3.7.7 0 0 0 .8-.2v-.1c.3-.3.5-.6.6-1v-2.1l-.3-.4Zm-.8 1.1v-.2c.2-.2.3-.2.5 0l.1.1v1.2l-.2.5c0 .2-.2.2-.4.2l-.1-.2a.3.3 0 0 1 0-.2c.2-.5.2-1 .1-1.4ZM95.6 15l-1-.2a8.6 8.6 0 0 0-1.2-.2 9 9 0 0 1-1.4-.3c-.2 0-.5-.1-.7-.3a69.8 69.8 0 0 0-5.5-.2c-.3.1-.5.2-.7.5l-.9 1-.5 1.4-.4 1.4a6.5 6.5 0 0 0 0 2.5v.3A46.5 46.5 0 0 1 84 25c0 .5.2 1 .4 1.4a7.3 7.3 0 0 1 .3 1 10.2 10.2 0 0 0 1 2l.7.5a7.3 7.3 0 0 0 1 .5l1 .4.9.1h.2l1.4.2.6-.1a15.5 15.5 0 0 0 1.3-.5 14.4 14.4 0 0 1 2.6-1.4l.1-.1 1-1 .4-.8c.2-.4.3-.9.6-1.3a5.2 5.2 0 0 0 .5-2.2v-.8c.2-.5.2-1 .2-1.4a66.6 66.6 0 0 1 0-3v-.3c-.2-.5-.4-1-.8-1.3l-.3-.5-.8-.6-.3-.1c-.2-.2-.3-.5-.3-.8Zm-.4 3.7-.2-.3a3 3 0 0 0-1.5-.5c-.5 0-1 0-1.3.4l-.5.5c0 .1-.2.2-.4.1-.2 0-.3-.1-.3-.4l.1-.2a3 3 0 0 1 1.2-1c.4-.2.8-.3 1.3-.2.5 0 1 .2 1.4.4.4.2.7.5 1 .9v.5h-.5c-.2 0-.2-.2-.3-.2Zm-1.4.3h.3c.5.1 1 .4 1.3.8l.1.2c0 .4-.1.7-.5.9l-.3.1c-.4.3-.9.4-1.3.4-.5 0-.9 0-1.2-.2a2 2 0 0 1-.5-.4c-.2-.2-.3-.4-.3-.7v-.2a.4.4 0 0 1 0-.2h.2c.3-.5.7-.7 1.2-.8h1Zm-1.6.1Zm0 0ZM87 16.8c.5 0 1 0 1.4.3.5.2.8.5 1.1.8v.2c0 .3-.1.4-.4.4-.1 0-.2 0-.3-.2-.3-.4-.8-.6-1.3-.7a1.7 1.7 0 0 0-1.4.3c-.4.3-.6.7-.8 1v.2c-.2.2-.3.3-.6.2-.3-.1-.3-.4-.2-.7.3-.4.5-.8.9-1.1l.9-.6.7-.1Zm-1.7 3.1.5-.5a4 4 0 0 1 1.3-.6h1.4c.5.2.8.5 1 1v.1c0 .3 0 .5-.2.6a3.6 3.6 0 0 1-2 1 30.5 30.5 0 0 1-.2 0 2 2 0 0 1-1.3-.6c-.3-.1-.4-.4-.5-.6v-.4Zm4.8 2.4c.2-.3.4-.4.6-.2.1 0 .2 0 .2.2l-.1.5-.1.1a3 3 0 0 0-.1.4 2.4 2.4 0 0 0 0 .3v.1a3.4 3.4 0 0 0 .2.3h.4a1.1 1.1 0 0 0 .2 0c.3-.2.5-.1.6.1v.3c0 .2-.2.3-.4.4a1.5 1.5 0 0 1-.4 0c-.5 0-1-.1-1.2-.6-.2-.4-.3-.8-.2-1.2l.3-.7Zm-1.6 5c-.2 0-.3-.2-.5-.3-.2-.2-.2-.4 0-.6h.3l.5.1c.2.3.5.4.8.5a1.3 1.3 0 0 1 .2 0l.7.2a7 7 0 0 0 1 0 5.4 5.4 0 0 0 1.3-.5h.2l.1-.1c.2-.2.4-.2.6 0v.3c0 .2 0 .3-.3.4a8 8 0 0 1-1.5.6 5 5 0 0 1-2.3 0 4.5 4.5 0 0 1-.1 0l-1-.5Zm33.3 54.8a12.4 12.4 0 0 0-2.8 1l.2.7c.3.4.5.9.5 1.3v1.4a10.8 10.8 0 0 0 .4 3.4 400.7 400.7 0 0 1 1.6 5.2l.5 1.3.8.8a16.6 16.6 0 0 0-1-4.7V92c0-.2.2-.3.4-.2.3 0 .4.2.5.6v.4a97.1 97.1 0 0 1 1.5 5.3l.5.7a.7.7 0 0 0 .4.2h.2v-.2c.2-1 0-1.8-.2-2.7a37.8 37.8 0 0 1-1.1-4.3c.2-.2.5-.2.7 0a75.4 75.4 0 0 0 2.7 7.2 3 3 0 0 0 .1-.1 7.8 7.8 0 0 0-.1-2.7 30 30 0 0 0-1.2-4.2v-.6c.2-.2.4-.2.5-.1.3 0 .4.3.4.5l.2.7a45.2 45.2 0 0 1 1.1 4.4l.2.2v.1h.1a4 4 0 0 1 .2.1 1 1 0 0 0 .1 0h.1l.1-.1c.2-.8.2-1.5 0-2.3a3323.6 3323.6 0 0 1-1.7-7.2l-.4-.2-.8-.2V87c-.1-.4 0-.5.4-.5.5 0 1 .1 1.6.4l1.5.8H130.3l.2.1.5.2h.1v-.1a13.9 13.9 0 0 0-2.5-2.8 20.6 20.6 0 0 0-1.1-1 3.7 3.7 0 0 0-1-.6l-.3-.1h-.3c-.6-.3-1.2-.5-1.7-1l-.3-.2-.2-.5c-.7 0-1.3.2-1.9.4Zm6 2.2ZM99.5 57.2c-.2.4-.2.7-.2 1.1v.2l.1.2c.1.2.3.4.6.5a4.6 4.6 0 0 0 1.9.3l.1-.3a74.4 74.4 0 0 1 .7-.7 6.4 6.4 0 0 1-3-1.4h-.2Zm-.8 2v1.2a2.4 2.4 0 0 1 .5-.6 2 2 0 0 1-.5-.5Z"/><path fill="#E04F32" d="M81.4 55.6a27 27 0 0 1-1.3-.2 6.3 6.3 0 0 1-2-1A9.4 9.4 0 0 1 78 57a.7.7 0 0 1 .3.2 12.4 12.4 0 0 0 2.2-1.1l.9-.5Zm22.3-.2a37.4 37.4 0 0 1 0-1.4 7.1 7.1 0 0 1-2.4 1.4l-1.4.2h-.5a6.2 6.2 0 0 0 1.8 1.4c.8.4 1.7.6 2.6.6v-.4a52 52 0 0 1 0-1.8ZM82.2 40.7c-.5.1-.9.3-1.3.6L78.5 43c-.8.6-1.4 1.4-1.5 2.4a19 19 0 0 0-.2 5.5 10.5 10.5 0 0 0 .6 1.5 4 4 0 0 0 2 1.8l1.4.4a16.2 16.2 0 0 0 3.5.1c.1-.1.3-.1.4 0a12 12 0 0 0 1.8-.4 6.1 6.1 0 0 0 1.4-.8h.2a1 1 0 0 0 0-.1c.5-.4 1-1 1.3-1.5.2-.2.2-.4.2-.7l.1-.6a15.6 15.6 0 0 0 0-1c0-1-.2-2-.5-2.9a15.6 15.6 0 0 1-.5-3.1v-1.9c-.2-.5-.7-.8-1.3-.9l-2.7-.3a6 6 0 0 0-2.5.2Zm12.7.4a8.9 8.9 0 0 1-.8.2 12 12 0 0 1-.5.2v.1a5 5 0 0 1-.4 2l-.2.5a346.8 346.8 0 0 0-1 3.8 12.7 12.7 0 0 0 .1 3.9 2.6 2.6 0 0 0 .3.4c.4.6.8 1 1.4 1.3a6 6 0 0 0 2 .7 480.8 480.8 0 0 1 1 .2h.3a30 30 0 0 0 3.5.2l.8-.2c.8-.3 1.5-.8 2-1.4a6.6 6.6 0 0 0 1.8-3.4v.1a3.3 3.3 0 0 1 0-.5V48.2a18 18 0 0 0-.2-3.9l-.2-.3-.3-.4v-.1l-.2-.1-1-1-.4-.3a5.8 5.8 0 0 0-1.9-1h-.2a340.2 340.2 0 0 1-4.4-.2H95ZM78.2 58.7v.5a3910 3910 0 0 0 .2 1.4h.1c.2-.1.3-.2.3-.4a5 5 0 0 1 .5-.6 24.9 24.9 0 0 0-1.2-1.4v.5Zm24.6 1.2c0 .1 0 .3.2.4a8.6 8.6 0 0 1 .3.4l.1.1c.2 0 .3.2.4.3a605.2 605.2 0 0 0 0-2.4l-.5.6a16.9 16.9 0 0 1-.5.6Z"/><path fill="#fff" d="M88.6 19.8h-.1a2 2 0 0 0-.6-.2v.8l.4-.1.4-.4a1.2 1.2 0 0 0-.1-.1Zm-2.4.3c0 .2.1.3.3.4a1.1 1.1 0 0 0 .5.2 1 1 0 0 1-.1-1l-.4.2a7 7 0 0 0-.3.2Zm7.8 0v.2l-.1.2.3-.2a5 5 0 0 1 .5-.3 2.5 2.5 0 0 0-.8-.3v.3Zm-1-.5h-.2a2.5 2.5 0 0 1-.3.1l-.1.1a7 7 0 0 1-.2.2l.2.3.3.2H93a1 1 0 0 1 0-.9Z"/><path fill="#87441D" d="M92.8 10h-.2a19.5 19.5 0 0 0-2.3.3l-1.5.1a41.4 41.4 0 0 0-4.5.5l-1 .9c-.3.2-.5.4-.6.7a7.4 7.4 0 0 1-.3 1l-.4 1a4.2 4.2 0 0 0-.2 1.5 4.7 4.7 0 0 0 .5 2.1l.2-.5a24 24 0 0 1 1-2.7c0-.3.2-.5.3-.7l1-1c.4-.3.8-.4 1.3-.4l.5-.1a4.6 4.6 0 0 1 1.8.1 17.3 17.3 0 0 0 2.1 0c.5 0 1 .1 1.4.4l.9.3a13.5 13.5 0 0 1 2.5.4h.4c.3.1.5.3.7.6a1.3 1.3 0 0 1 .1.5l.6.3.2.2.6.6a3.6 3.6 0 0 0 .2.4l.4.5.1-.3v-.3c.1-.3.2-.6.1-.9v-.2a8.8 8.8 0 0 1-.1-.7 8 8 0 0 0-.3-.8 91.8 91.8 0 0 1-.2-.5c-.1-.4-.4-.9-.8-1.2l-.1-.2a4.8 4.8 0 0 0-1.6-1.2l-1.3-.4-1.5-.2Z"/></svg>