<svg xmlns="http://www.w3.org/2000/svg" width="134" height="100" fill="none"><rect width="130" height="96" x="2" y="2" fill="#EEE" rx="13"/><rect width="130" height="96" x="2" y="2" stroke="#000" stroke-width="4" rx="13"/><path fill="#000" d="M132.5 34.5a.8.8 0 0 0-.3-.3H132l-.2.1-.1.1v.1h-.3a4.5 4.5 0 0 0-2.7.2 34.9 34.9 0 0 0-7.3 3.5 76.4 76.4 0 0 0-4 2.7l-2 1.5v.2l-.4.2a8 8 0 0 0-1.4 1.4L112 46a182.3 182.3 0 0 1-2.4 3.4l-.2.3a1 1 0 0 0-.3 0l-.8.1-1.3.2-1.2.2a31.4 31.4 0 0 0-4 1.2 25.4 25.4 0 0 0-8 5.3c-.6.6-1 1.3-1.4 2l-.8 2-.2-.1a72.7 72.7 0 0 1-2.5-4.2 48.1 48.1 0 0 0-3.2-6 15.5 15.5 0 0 1-1.5-5.8 18 18 0 0 0-.5-2.5l-.4-2.2a104.4 104.4 0 0 1-.3-4.8l.2-2 .8-.1a10.8 10.8 0 0 0 1-.3c.6-.2 1.1-.6 1.6-1l.8-.7 1.4-1.8.5.4 1 .4h.8a6 6 0 0 0 2.3-1l.5-.2c.8-.2 1.5-.6 2-1.2.5-.4.8-1 .8-1.5a6.3 6.3 0 0 0 0-1l.6-.5.6-.7a3 3 0 0 0 .3-2.3 34.5 34.5 0 0 0-.3-.9 5.8 5.8 0 0 0 1.5-1.6v-.6h.9a2 2 0 0 0 1-.5 3 3 0 0 0 1.3-2.3c0-.8-.3-1.5-1-2h-.1l-.9-.7-.8-.6v-.1l-.3-.2a43.4 43.4 0 0 0-.8-1l-.2-.3-.1-.2-.3-.6-.7-.7c-.3-.2-.6-.4-.9-.4l-.3-.2-.7-.3a63.4 63.4 0 0 1-5-1.8 5.5 5.5 0 0 0-3.5-.5c-.6 0-1 .3-1.4.6a60.9 60.9 0 0 0-8.8 10.8c-1 1.3-2 2.6-2.5 4.1A124.2 124.2 0 0 0 70 33.3L68.6 37l-1.4 3.7a97.6 97.6 0 0 0-4.1 30.1c0 1.4.2 2.8.6 4.1a1996.5 1996.5 0 0 0 2 9c.2 2.6 1 4.9 2.4 7 .9 1.3 2 2 3.4 2.4 1 .3 2.2.5 3.3.6a155 155 0 0 0 11.1.2l2.5-.3c2.3-.3 4.6-.9 7-1.8a23 23 0 0 1 4.2-1.4c2.1-.4 4-1 6-1.8l.1.1h.2a41.5 41.5 0 0 0 2.9-1.4l.3-.1a121.4 121.4 0 0 0 4.6-2.5l5.8-3a41 41 0 0 0 11.1-9l.2-.1.1-.1c1-2.4 1.7-4.8 2-7.3.2-2.4.4-4.9.4-7.3a498.3 498.3 0 0 1 .6-14.7 18.8 18.8 0 0 0-1.3-8.7 3 3 0 0 1 0-.2Zm-47.5-3Zm23.5 55Zm-12.8-69h.1a3.2 3.2 0 0 1-1.4 1.1l-1 .3a679.8 679.8 0 0 0 .5-1 2.4 2.4 0 0 0 .1 0l.7-.3h1Zm-2.5 2.6h.4c.2-.2.4-.2.6-.2l1-.4c.7-.4 1.3-.9 1.7-1.6l.2.1 1.1.4.3.3c-.5.6-1 1-1.6 1.4l-.8.5-1.8 1c-.2.1-.4.2-.6.1h-1.5l.5-1 .3-.7h.2Zm-1.7 2.8h1.8c.7 0 1.4-.1 2-.6a11.5 11.5 0 0 1 1.8-1c.1.5.2 1 .1 1.5 0 .3-.2.6-.4.8-.6.5-1.2.9-2 1.2-.4 0-.8.2-1.1.4a4 4 0 0 1-2.4.5c-.6 0-1.2-.2-1.8-.4a16 16 0 0 0 2-2.4ZM87.7 28Zm1.6-1.7Zm-1.3.3a9.2 9.2 0 0 0 .6-.6l.2.1c.8.3 1.5.5 2.3.6a3.4 3.4 0 0 0 2-.2 37.8 37.8 0 0 1 2.6-.8c0 .5-.2 1-.6 1.2l-1.3.7-.5.2c-.7.5-1.4.8-2.2 1h-.2a1 1 0 0 1-.6-.1 8 8 0 0 1-2-1.6 3 3 0 0 0-.3-.5Zm-16.4 5.1v-.1c0 1.9-.2 3.7-.6 5.6L70 43c-.4 2-.8 3.9-1.4 5.8L67 54.6a47.4 47.4 0 0 1-2.6 7.6c.2-2.3.4-4.6.8-7a95 95 0 0 1 2.9-13l.7-1.8a73.4 73.4 0 0 0 2.3-6c.1-.9.3-1.8.6-2.6Zm25-21.8a3 3 0 0 0 .4.4l.3.2-1.3-.2a34.6 34.6 0 0 0-5 .5 7 7 0 0 0-3.2 1.6 22.6 22.6 0 0 1-3.5 2.4c-.3.2-.4.4-.5.7l.1.4c.4.3.7.3 1-.1v-.1l.2-.2 1-.5 2-1.5c.5-.4 1-.8 1.6-1 .4-.3.8-.5 1.3-.6a38.2 38.2 0 0 1 2.7-.4 55.5 55.5 0 0 1 3 0 4 4 0 0 1 1.8 1l.8.7a11.4 11.4 0 0 0 1.6 1.2l.2.2c.2 0 .3.2.4.5v.6c0 .4-.2.8-.5 1.1l-.3.3c-.4.2-1 .2-1.4.2-.6 0-1.1-.1-1.6-.4l.2-.3v-.4c-.3-.3-.6-.4-1-.1l-.5.1a5.3 5.3 0 0 1-1.5.2l-1.2.3-.6.3-.3.3a8 8 0 0 0-.7 1.8 9 9 0 0 1-1 2.2 16.8 16.8 0 0 1-4 4.5 30.6 30.6 0 0 0-2.4 2c-.4.2-.4.5-.2.9l.3.1h.3l1.1-.8.8-.7.5.6.5.5a14.3 14.3 0 0 1-1.3 1.6 5.7 5.7 0 0 1-3.5 2l-.6-.4h-.1a16.5 16.5 0 0 1-.3-.1h-.1a2.7 2.7 0 0 0-.2 0c-.9-.2-1.7-.3-2.6-.2-1 0-2 0-3-.2a140.1 140.1 0 0 1-4.1-1.1 47 47 0 0 1 2.3-5.9 25.3 25.3 0 0 0 1-2.2A52.2 52.2 0 0 1 77 19l.6-.8a28 28 0 0 0 2.1-2.8 25.5 25.5 0 0 1 2.5-3.4l2-2.5a12 12 0 0 1 2.2-2.2 3 3 0 0 1 2.6 0l1.6.5a121.7 121.7 0 0 0 6 2.1Zm-5.8 62.2v.1c0 1.4 0 2.7-.4 4.1-.5 1.9-.9 3.7-1.2 5.6A33.5 33.5 0 0 1 85 93.1h-1.6c-2.6.1-5.1 0-7.7-.1l.8-3.7c.4-2 1.3-3.6 2.6-5.1l3.8-4.6a34.2 34.2 0 0 0 5-8h.1l.1-.1.3-.1h.6a15.6 15.6 0 0 1 .8 0l.2.1a3.5 3.5 0 0 0 .4.3l.1.2a10.8 10.8 0 0 0 .2.2Zm-26.6-2h.6c.4 0 .8 0 1 .3l1 1 .1.3.5 2.9a47.9 47.9 0 0 0 3 8.3 40 40 0 0 1 2.2 5l1.8 4.9a17.8 17.8 0 0 1-3.2-.7 5.7 5.7 0 0 1-2.6-2.3c-.7-1-1-2.2-1.2-3.5-.4-2.4-.9-4.7-1.5-7a55.1 55.1 0 0 1-1.7-9.2Zm9.3-38.6-.7 4a21 21 0 0 0-.5 3.5 78.6 78.6 0 0 1-1 9.5c-.3 1.4-.5 2.9-.5 4.4l-.2 2.4-1 1c-.2.3-.5.5-.9.6h-.3a3.5 3.5 0 0 1-1 0l.8-3.2 1.5-5.6c.5-1.9 1-3.8 1.3-5.7l1.1-5.7c.4-1.8.6-3.6.5-5.5l.9.3Zm3 .6h.6v.2a40.3 40.3 0 0 1-.4 3.4l-.1 2.7a12.3 12.3 0 0 1-.5 4.2l-.2 1.7c-.2 2-.6 4-1.3 5.8a133 133 0 0 0-2 4.3v.1a1.9 1.9 0 0 0 0 .2 2 2 0 0 0 0 .2h.1v.1a254.5 254.5 0 0 1-1.7 4.6c.4-2 .6-3.8.7-5.7a45.2 45.2 0 0 1 1-8.8l.3-3A47 47 0 0 1 74.4 32c.7.2 1.4.3 2.2.3Zm2.2 22.6V56l-.6-1c-.4-.8-1-1.5-1.6-2a.6.6 0 0 0-.5-.2c-.5 0-1 .2-1.4.4a284 284 0 0 1 .8-2h2.5l1.2-.5-.4 4.2Zm-.2 2.4v3.2c-.1-.3-.4-.5-.6-.7-.7-.5-1.5-1-2.3-1.2-.6-.1-1.1 0-1.6.3l-2.2 1.5a124.4 124.4 0 0 0 2.2-5.7l.8-.5c.3-.3.7-.4 1-.5h.1l.3.2.2.2c0 .2.2.3.3.5l.7 1.4c.3.4.6.9 1 1.2l.1.1ZM67 58l.6.1a5 5 0 0 0 .8 0 3 3 0 0 0 2-.8l-.3 1.7a251.8 251.8 0 0 0-1 6.8.6.6 0 0 0 .2.2h.1a.4.4 0 0 0 .3 0h.1v-.1h.1v-.1l1.3-3.8 3.2-2.2a1 1 0 0 1 1-.2 6 6 0 0 1 3.1 2.6 166 166 0 0 1-.3 11.9c-.3 1.9-.8 3.8-1.3 5.7l-.9 3a5.4 5.4 0 0 0-2.2-1.7h-.4l-.6.6-.2-1a23.3 23.3 0 0 1-.4-5.1l-.1-.1H72v-.1h-.5v.1a.6.6 0 0 0-.1.1l-.1 1.5c0 1.6.1 3.2.4 4.6l.4 2.6-.4-1a38.4 38.4 0 0 1-3.2-8 29.9 29.9 0 0 1-.9-6.5 1 1 0 0 0-.2-.1H67a.5.5 0 0 0-.3.3v1l-1-.5a4 4 0 0 0-1.7-.2v-3c0-.5.2-.8.3-1.2a956.6 956.6 0 0 1 2.6-7.1Zm7 24.3.9.8a115.3 115.3 0 0 1 .9 1l-.2 1.4a4.9 4.9 0 0 0 .3 2.8 38 38 0 0 0-.9 3.6 61.3 61.3 0 0 1-1.8-6.5l-.2-1.7a.4.4 0 0 0 0-.2 9.1 9.1 0 0 1 .6-1.5l.4.3Zm7.7-49.7a.6.6 0 0 0 0 .1.6.6 0 0 0 .2.1h.2a1 1 0 0 0 .2 0 28.7 28.7 0 0 0-.3 3.9h-.1l-.5.6a15.4 15.4 0 0 0-1.2 2.2 131.6 131.6 0 0 1-.6-7 41 41 0 0 0 1.9 0l.2.1Zm-3-.2v.2a.4.4 0 0 0 0 .2 283.4 283.4 0 0 0 .7 9.4 40.3 40.3 0 0 1-.2 7.2H79a3.7 3.7 0 0 1-.7.7l-1.4.1a43.2 43.2 0 0 0-1.2 0c.4-1 .6-2.1.7-3.2a93.9 93.9 0 0 1 1-6.8c0-1.8.2-3.7.5-5.6a125 125 0 0 0 .2-2.2h.5Zm2.5 7.4.9-1.8a232.1 232.1 0 0 0 .5 4 45.2 45.2 0 0 1 1.2 6.5l-.5 1.1c-.2.5-.4.8-.8 1.2H82l-.4-.1h-.2l-.2.2a2.3 2.3 0 0 1-.3 0h-.1l-.1-.2a12 12 0 0 1-.3-1.4 63.3 63.3 0 0 0 .2-7.5c.1-.7.4-1.4.7-2Zm3 10.3.1-.2a44.4 44.4 0 0 0 2.3 5l-.1.8v.4l-.2 1.4a33.8 33.8 0 0 1-4.7 11.3c-.8 1.2-1.3 2.6-1.6 4l-.3 1.2c-.5 1.3-.4 2.4.3 3.5h.1l.1.1c.5-.1 1-.4 1.4-.7L84 74c.8-1 1.4-2.1 2-3.3l.3-.3.7-.8.8-.4h.1c-.8 1.8-1.7 3.4-2.7 5-1 1.8-2 3.4-3.3 5l-3.7 4.5a11.4 11.4 0 0 0-1.6 2.5c0-2 .4-4 1-6 .5-1.5 1-3 1.3-4.5.4-2 .6-4 .7-6a245.2 245.2 0 0 1 0-8.6 38 38 0 0 1 0-5l.4-4.6.5.2h.8l.5-.2a44.8 44.8 0 0 1 1 0c.2 0 .4-.1.5-.3l1-1.3Zm42.6-13.4h.2a18.7 18.7 0 0 1 3-1h1.8l.1.2c.6 2 1 4.1 1 6.3l-.2 3.7a6474 6474 0 0 0-1 19.3c-.2 2.4-.7 4.6-1.5 6.8a42.2 42.2 0 0 1-8.4 7.4 71.4 71.4 0 0 1-6.5 3.7l-6.9 3.6a20.8 20.8 0 0 0-2.6 1.2h-.6l-1.3.5a34 34 0 0 1-7.8 2.2 27.7 27.7 0 0 1-9.8 2.5l.4-.7.7-1.6A55.7 55.7 0 0 0 90.7 79l.4-1.5.5-2.1a8 8 0 0 0 .2-2.7.3.3 0 0 0 0-.1l.1-.1a.6.6 0 0 0 0-.2l-.2-.6a2.9 2.9 0 0 0-2-1.4 3 3 0 0 0-1.1 0 231.7 231.7 0 0 0 .3-1.2V68.9c-.8-.7-1.5-.7-2.3-.1-.7.5-1.2 1.1-1.6 1.8a20.4 20.4 0 0 1-4.5 5.7v-.5l.7-3.6a7 7 0 0 1 1-2.3 34.9 34.9 0 0 0 5.4-13.8 160.8 160.8 0 0 1 1.6 3l.3.5a24.5 24.5 0 0 0 1.2 1.7 5.2 5.2 0 0 1 1 1l-.1 1.4-.1.3c-.3.4-.2.7 0 1H92.2c.3-.2.5-.5.5-.8a5 5 0 0 0 0-2.4v-.3l.7-1.8c.3-.8.7-1.4 1.3-2l1.6-1.7c.6-.5 1.2-1 2-1.4a68.5 68.5 0 0 1 4.3-2.3 16 16 0 0 1 5-1.2h.6l.7-.2.8-.1h.4l.8-1 .7-1 1-1.5 1.4-2a9 9 0 0 1 1.8-1.7l.1-.1.9-.7a79.4 79.4 0 0 0 3.7-2.7 87.7 87.7 0 0 1 6.4-3.5Zm-25.9-22Z"/><path fill="#DE9E71" d="M127 36.5a7.8 7.8 0 0 1-.2.1 85 85 0 0 0-6.4 3.5l-2 1.4a80 80 0 0 1-2.5 2l-.2.1a9 9 0 0 0-1.8 1.8 126.5 126.5 0 0 1-3.1 4.5 4 4 0 0 1-.8.8l-.3.1-1 .1-.6.1a6.7 6.7 0 0 1-.8.2 21.3 21.3 0 0 0-4.8 1.1 23.7 23.7 0 0 0-4.4 2.3L96.2 56c-.6.5-1.1 1-1.6 1.7-.6.6-1 1.2-1.3 2l-.8 1.8.2.3a5 5 0 0 1 0 2.4c-.1.3-.3.6-.6.8h-.5c-.3-.3-.4-.6-.1-1v-.3c.2-.4.2-.9.2-1.3l-.1-.2-.9-.9-.3-.3a24.6 24.6 0 0 1-1.2-1.9l-.6-.9a109.3 109.3 0 0 1-1-2c-.3 2-.7 3.8-1.4 5.7a42.2 42.2 0 0 1-4 8 7 7 0 0 0-1 2.3 109.2 109.2 0 0 0-.7 4.1 20.4 20.4 0 0 0 4.5-5.7c.4-.7 1-1.3 1.6-1.8.8-.6 1.5-.6 2.2 0a1.2 1.2 0 0 1 0 .2 1.6 1.6 0 0 1 .2.2V69.5l-.4.9h1.1a2.9 2.9 0 0 1 2.2 2 .6.6 0 0 1 0 .1v.2h-.1a8 8 0 0 1-.2 2.8 41.5 41.5 0 0 1-.8 3.6c-.3 2-.8 4-1.3 6.1a30.5 30.5 0 0 1-3.2 7.8c1 0 2-.2 3-.4 2.4-.4 4.6-1 6.8-2a34 34 0 0 0 9-2.7c.3-.1.5-.2.7-.1l1.1-.6 1.4-.6h.1l6.9-3.6c2.2-1.1 4.4-2.3 6.5-3.7a33 33 0 0 0 8.4-7.4 30.5 30.5 0 0 0 1.9-11.4 207.5 207.5 0 0 1 .6-14.7l.1-3.7a20 20 0 0 0-1-6.5h-.3a5.4 5.4 0 0 0-2.4.1l-2.1.8ZM96.7 10.2l-.2-.2-.8-.3-1-.4a121.7 121.7 0 0 1-5.7-2 3 3 0 0 0-2.6.1 12 12 0 0 0-2.2 2.2 232.3 232.3 0 0 1-4.5 5.9A28 28 0 0 1 77 19l-.8 1.3a52 52 0 0 0-4 9.7l.1.1 4 1c1 .2 2 .2 3 .2.9-.1 1.7 0 2.6.2h.6v.1a3.6 3.6 0 0 1 .7.4 7.7 7.7 0 0 0 2-.7c.6-.4 1.1-.8 1.5-1.3a19 19 0 0 0 1.3-1.6l-.4-.5-.6-.6-.8.7-1.1.8h-.3l-.3-.1c-.2-.4-.2-.7.2-1l.5-.4a30.6 30.6 0 0 1 2.9-2.3 16.7 16.7 0 0 0 3-3.7 9 9 0 0 0 1-2.2 8 8 0 0 1 .7-1.8l.3-.3.6-.3 1.2-.3a11.2 11.2 0 0 0 1.5-.2l.5-.1c.4-.3.7-.2 1 .1v.4l-.2.3c.5.3 1 .4 1.6.4.5 0 1 0 1.4-.2.2 0 .3-.2.3-.3.3-.3.5-.7.6-1.1l-.1-.6a1 1 0 0 0-.4-.5 10.6 10.6 0 0 1-.6-.5l-1.2-.9a25.7 25.7 0 0 0-.8-.7 4 4 0 0 0-3.1-1h-.5a55.5 55.5 0 0 0-1.2 0h-.2L91 12l-1.3.5-1.6 1.1a18.3 18.3 0 0 1-3.3 2.3c-.2.4-.5.4-.9.1a.4.4 0 0 1-.1-.4c0-.3.2-.5.5-.7l1.1-.7c.1 0 .2 0 .3-.2l2-1.5a6.7 6.7 0 0 1 3.3-1.6 26.5 26.5 0 0 1 5-.5c.4 0 .8 0 1.3.2l-.3-.2a4 4 0 0 1-.3-.2Zm-8.6 16.4H88l.3.6.2.2a8 8 0 0 0 1.8 1.4h.8c.8-.1 1.5-.4 2.2-.9l.5-.2L95 27c.4-.3.6-.7.6-1.2v-.2a37.8 37.8 0 0 0-3 1.2 8.5 8.5 0 0 1-4-.7 13.3 13.3 0 0 1-.6.5Zm3.4-3.7a26.2 26.2 0 0 1-2 2.4c.6.2 1.2.4 1.8.4a4 4 0 0 0 2.4-.5l1-.4c.9-.3 1.5-.7 2.1-1.2.2-.2.4-.5.4-.8l-.1-1.5-1.8 1c-.6.5-1.3.6-2 .5a6 6 0 0 1-.9 0l-.5.1a2 2 0 0 1-.4 0Zm2.1-2.9H93a1689 1689 0 0 0-.8 1.8h1.5c.2 0 .4 0 .6-.2a22.7 22.7 0 0 0 2.6-1.5c.6-.3 1.1-.8 1.6-1.4a.9.9 0 0 1-.3-.3 6 6 0 0 1-1.3-.5c-.4.7-1 1.2-1.6 1.6l-1.1.4a2 2 0 0 0-.6.1Zm2.2-2.5a172.9 172.9 0 0 0-1.9.4l-.2.1-.3 1a16.5 16.5 0 0 0 1.3-.5 3.2 3.2 0 0 0 1.1-1Z"/><path fill="#CA6A40" d="M84.3 49.8v.2c-.3.5-.6 1-1 1.3-.1.2-.3.3-.4.3h-.5a3.2 3.2 0 0 1-.6 0l-.5.2h-.8l-.5-.2a185.4 185.4 0 0 0-.5 9.6 63.6 63.6 0 0 1 0 8.6c0 2-.2 4-.6 6l-1.2 4.5a25.2 25.2 0 0 0-1.1 6l1.6-2.5 3.7-4.6c1.3-1.5 2.4-3.1 3.3-4.9a226.6 226.6 0 0 0 2.6-5 2 2 0 0 0-.8.4 7 7 0 0 0-1 1.1c-.6 1.2-1.2 2.3-2 3.3l-2.4 2.7c-.4.3-.9.6-1.4.7H80a.4.4 0 0 1-.1 0c-.7-1.2-.8-2.3-.3-3.6l.3-1.1c.3-1.5.8-2.9 1.6-4.1a33.8 33.8 0 0 0 4.7-11.3c0-.5.1-1 .3-1.4a3.2 3.2 0 0 0-.1-.2v-.1a17.7 17.7 0 0 0 .2-1.2 109 109 0 0 0-2.4-4.7Zm-5.7 7.4h-.2a7 7 0 0 1-1-1.3 20.5 20.5 0 0 1-1-2h-.2a170.6 170.6 0 0 1-.4-.3c-.3 0-.7.2-1 .4l-.8.6a221.8 221.8 0 0 0-2.2 5.7l2.2-1.5c.5-.4 1-.4 1.6-.3a6.2 6.2 0 0 1 3 1.9v-3.2Zm-1.5-25a26.3 26.3 0 0 1-2.7-.3 8 8 0 0 1-.4 2.6 47 47 0 0 0-1.2 10.7l-.4 2.8c-.4 2-.6 4-.7 6-.1 1.9-.3 3.8-.7 5.7a56.8 56.8 0 0 0 1.7-4.6v-.2a2 2 0 0 1-.1-.1v-.1a2 2 0 0 1 0-.1l.5-.5 1.5-4c.7-1.8 1.1-3.7 1.3-5.7a30 30 0 0 1 .3-2.3c.3-1.2.4-2.4.4-3.6a18.4 18.4 0 0 1 .3-4 9.2 9.2 0 0 0 .2-2v-.2Zm-5.4-.5v.1a13.6 13.6 0 0 0-.7 2.7.3.3 0 0 1-.2.1h-.1a73.4 73.4 0 0 1-2.7 7.7 66 66 0 0 0-3 13 122.4 122.4 0 0 0-.8 7.1l.9-2.2c.7-1.8 1.3-3.7 1.8-5.6l1.6-5.7c.6-2 1-3.8 1.4-5.8l1.1-5.8c.4-1.9.7-3.7.7-5.6Z"/><path fill="#FF5736" d="M82.1 37.9a13.2 13.2 0 0 0-1.7 4 37.8 37.8 0 0 1-.1 7.3 7.2 7.2 0 0 0 .4 1.6h.1a2.3 2.3 0 0 0 .5-.1l.2-.1h1c.4-.3.6-.6.8-1l.5-1.2-.2-1.2-.2-1v-.3a61.2 61.2 0 0 0-1.2-6.6l-.1-1.4ZM67.6 58 67 58a949 949 0 0 0-3 8.2v3a4 4 0 0 1 2.8.9 19.3 19.3 0 0 1 .1-1.2.5.5 0 0 1 .2-.2h.4l.1.1.1.1v.1a29.9 29.9 0 0 0 4 14.4l.4.9c0-1-.2-1.8-.4-2.6a24 24 0 0 1-.4-6 .6.6 0 0 1 .1-.2h.1l.1-.1h.5v.1a.6.6 0 0 1 .1.1v.1a23.3 23.3 0 0 0 .6 6l.6-.6h.4c.9.4 1.6 1 2.2 1.7l.9-3a37.3 37.3 0 0 0 1.7-13 166 166 0 0 0-.1-4.6 6 6 0 0 0-3-2.6 1 1 0 0 0-1.1.2l-3.2 2.2a55.8 55.8 0 0 0-1.3 3.8v.1h-.1v.1h-.1a.4.4 0 0 1-.2 0h-.2a.6.6 0 0 1-.1-.1v-.1H69v-.1a15.6 15.6 0 0 1 0-.2 32 32 0 0 1 0-.9 251.2 251.2 0 0 1 1.2-7.3 3 3 0 0 1-2.1.9 5 5 0 0 1-.6 0Zm23.2 14.3v-.1l-.2-.2a5.2 5.2 0 0 0-.3-.3l-.2-.2a3 3 0 0 0-.4-.2h-1.2l-.2.2H88l-1.7 3.1c-1 1.7-2.1 3.4-3.3 5l-3.8 4.6a11.8 11.8 0 0 0-2.6 5.1 88 88 0 0 0-.8 3.7 116.3 116.3 0 0 0 9.3.1 35 35 0 0 0 4-11l1.3-5.7c.3-1.4.4-2.7.4-4Z"/><path fill="#FCF1D1" d="M78.6 32.5v-.2h-.5v.7a94.8 94.8 0 0 0-.2 1.5 47.2 47.2 0 0 0-.6 7l-.9 5.4a19.7 19.7 0 0 1-.7 3.2 43.6 43.6 0 0 1 2.6-.1 6.8 6.8 0 0 0 1-.8V49a70.8 70.8 0 0 0 .1-7 427.4 427.4 0 0 0-.7-9.3.4.4 0 0 1 0-.1Zm3 0h-.1l-.4-.1h-1.5c.2.5.3 1 .2 1.6v1.4a131.3 131.3 0 0 0 .4 4l1.1-2.2.6-.6h.1a13.3 13.3 0 0 1 .3-3.8h-.4a.6.6 0 0 1-.1-.2.6.6 0 0 1-.1 0ZM75 83a3.7 3.7 0 0 0-1.3-1l-.3.6-.2.7v.1a.4.4 0 0 1 0 .1v.1a40.2 40.2 0 0 1 0 2.9l.9 2.3 1 3 1-3.6c-.5-1-.6-1.8-.4-2.8a36.8 36.8 0 0 1 0-1.4l-.7-1Zm-1.4-51.3-.9-.4c0 1.9 0 3.7-.5 5.5l-1 5.7-1.4 5.7a600.2 600.2 0 0 0-2.4 8.7 4.4 4.4 0 0 0 1 .2h.4l1-.7 1-1V53c.1-1.5.3-3 .6-4.4a48.6 48.6 0 0 0 1-9.5c0-1.2.2-2.3.5-3.4l.7-4Zm-9.2 38.5a1.6 1.6 0 0 0-.1 0 38.5 38.5 0 0 0 1.7 9.1c.6 2.4 1.1 4.7 1.5 7.1a8.8 8.8 0 0 0 2 4.5 5.7 5.7 0 0 0 1.8 1.3l3.2.7-1.8-4.9a40 40 0 0 0-2.2-5l-1.2-2.7a47.9 47.9 0 0 1-2.4-8.8l-1-1a2 2 0 0 0-1-.3h-.5Z"/><path fill="#FFD0A1" d="M78.7 55.9a55.3 55.3 0 0 1 .4-5.3c-.3.2-.7.4-1.2.4a25.2 25.2 0 0 1-2.5 0 16.6 16.6 0 0 1-.8 2l1.4-.3.5.1c.7.6 1.2 1.3 1.6 2.2l.6.9Z"/><mask id="a" width="107" height="22" x="12" y="19" fill="#000" maskUnits="userSpaceOnUse"><path fill="#fff" d="M12 19h107v22H12z"/><path d="M18.4 34.5c-.4 0-1 0-1.4-.2v3.2c0 .3-.1.5-.3.7a1 1 0 0 1-.8.3 1 1 0 0 1-.8-.3 1 1 0 0 1-.3-.7 911.5 911.5 0 0 1 0-9l-.2-1.5c0-.4.1-.8.3-1a1 1 0 0 1 1-.6l.6.3c.2.2.3.4.3.7v.1a4.5 4.5 0 0 1 2.1-.6c1.2 0 2.1.5 2.7 1.5.4.8.6 1.8.6 3s-.3 2.1-1 2.9c-.7.8-1.6 1.2-2.8 1.2ZM19 28c-.3 0-.6 0-1 .2a4 4 0 0 0-1 .7l.1 3.2 1.4.3c.5 0 1-.2 1.2-.6.3-.3.4-.8.4-1.4V29c-.2-.7-.5-1-1-1Zm11 .4c0 .8-.4 1.2-1 1.2-.7 0-1-.4-1-1l-.1-.8c-1.2.1-2 .7-2.5 1.8v3.9c0 .3-.1.5-.3.7a1 1 0 0 1-.8.3 1 1 0 0 1-.7-.3 1 1 0 0 1-.3-.7v-5.1a23.7 23.7 0 0 1 0-1.5c0-.3.1-.5.3-.7.2-.2.4-.3.8-.3.5 0 .9.3 1 .9.9-.7 2-1 3-1s1.6.7 1.6 2v.6Zm7.9-.4-1.6 2c-1 1.2-1.4 2-1.7 2.2a24.7 24.7 0 0 1 1.7.1l1 .1c.3 0 .5.1.7.3.2.2.3.5.3.8 0 .3 0 .5-.3.7a1 1 0 0 1-.8.3l-.9-.1-.9-.1a17.6 17.6 0 0 0-3.6.3c-.3 0-.5 0-.7-.2a.8.8 0 0 1-.4-.7c0-.3.2-.7.5-1 1.3-1 2.7-2.6 4.1-4.7a19.2 19.2 0 0 1-3.4-.2c-.6 0-1-.4-1-1 0-.3.2-.5.4-.7.2-.2.4-.4.7-.4l1.2.1a12.9 12.9 0 0 0 2.8 0h1.6c.6 0 1 .2 1 .8 0 .4-.3 1-.7 1.4Zm5.8 6.4a5 5 0 0 1-3-1 3.3 3.3 0 0 1-1.4-2.7c0-1.3.4-2.4 1-3.3.8-1 1.9-1.6 3.2-1.6.9 0 1.6.2 2.2.5.8.4 1.2 1 1.2 1.8 0 .5-.3 1-1 1.5l-1.7.9-2.6 1.1c.2.3.5.5.9.7l1.2.2c.7 0 1.3-.2 1.8-.5.4-.2.7-.4 1-.4.5 0 .8.3.8.8 0 .6-.4 1.1-1.3 1.5-.7.3-1.5.5-2.3.5Zm-.2-6.7c-.5 0-1 .2-1.3.5-.3.3-.6.8-.8 1.5a449.7 449.7 0 0 1 3.5-1.7c-.4-.2-.9-.3-1.4-.3Zm11-1.6c0-1.7 0-3 .2-3.6 0-.6.4-1 1-1 .3 0 .5.1.7.3.2.2.3.5.3.8 0 .7 0 1.9-.2 3.3a48.2 48.2 0 0 0 0 7.4c0 .2 0 .5-.3.7a1 1 0 0 1-.7.2 1 1 0 0 1-.8-.5 4.4 4.4 0 0 1-2.3.7 4 4 0 0 1-3-1.2 3.9 3.9 0 0 1-1.1-2.9c0-1.4.4-2.5 1.2-3.4a4 4 0 0 1 3-1.3c.5 0 .8 0 1.1.2.3 0 .6.2.8.3Zm-.2 2.5c-.2-.3-.4-.6-.7-.7a2 2 0 0 0-1-.3c-.8 0-1.3.3-1.7.7-.4.4-.6 1.1-.6 2 0 .6.2 1 .6 1.4.4.5 1 .7 1.5.7l.9-.2a4.2 4.2 0 0 0 1-.7v-2.9Zm10.4-.2c0 .8-.4 1.2-1.1 1.2-.7 0-1-.4-1-1v-.8c-1.2.1-2 .7-2.6 1.8v3.9c0 .3 0 .5-.3.7a1 1 0 0 1-.7.3 1 1 0 0 1-.8-.3 1 1 0 0 1-.2-.7v-5.1a24 24 0 0 1 0-1.5c0-.3 0-.5.3-.7.1-.2.4-.3.7-.3.6 0 1 .3 1 .9 1-.7 2-1 3.1-1 1 0 1.6.7 1.6 2v.6Zm7.8 6.1c-.2 0-.6-.2-1.1-.8-.5.3-.9.4-1.3.5a3 3 0 0 1-.9.2c-1.2 0-2.2-.3-2.8-1-.6-.6-1-1.7-1-3 0-1.2.5-2.3 1.4-3.2a4.4 4.4 0 0 1 5-1c.9.4 1.3.8 1.3 1.2l-.2.5-.1.8a13.5 13.5 0 0 0 .1 3.3 23.5 23.5 0 0 0 .7 1.6c0 .2-.1.5-.3.6a1 1 0 0 1-.8.3Zm-1.9-5.3a6 6 0 0 1 .1-1.3 1.4 1.4 0 0 0-.4-.2c-.7 0-1.4.3-1.9.8-.5.6-.8 1.2-.8 2 0 .7.1 1.2.4 1.5.2.4.6.6 1.1.6a2.7 2.7 0 0 0 1.7-.7l-.2-2.7Zm6.1-2.1c.8-1 1.5-1.4 2.3-1.4.8 0 1.3.3 1.7 1a3.3 3.3 0 0 1 2.3-1c1 0 1.7.6 2.1 1.6l.3 2.1.6 4.2c0 .3 0 .6-.3.8-.2.2-.5.3-.8.3-.6 0-1-.3-1-1a33.8 33.8 0 0 1-.6-4.5c-.1-1-.3-1.4-.5-1.4l-.9.4a6 6 0 0 0-.9.6c0 .6 0 1.5.2 2.6s.2 2 .2 2.5c0 .3 0 .6-.3.8a1 1 0 0 1-.7.3 1 1 0 0 1-.8-.3 1 1 0 0 1-.3-.8c0-.6 0-1.4-.2-2.6a26.6 26.6 0 0 1-.3-3.4 6.4 6.4 0 0 0-2 1.9 133 133 0 0 0 0 3.6c0 .3-.1.5-.3.7l-.8.2c-.5 0-.8-.2-1-.6v-4.2a29.7 29.7 0 0 0-.1-2.2c0-.5 0-.9.2-1.3s.5-.7.9-.7c.3 0 .5.1.7.4.3.2.4.4.4.7v.7Zm12.2-2.5-.9-.3a1 1 0 0 1-.3-.8c0-.4.1-.6.3-.9.3-.2.6-.3 1-.3l.8.3c.2.3.3.5.3.9 0 .3 0 .5-.3.8l-.9.3Zm.7 5.7a67.6 67.6 0 0 0 0 2.9c0 .3 0 .5-.3.7a1 1 0 0 1-.7.3 1 1 0 0 1-.8-.3 1 1 0 0 1-.3-.7 50.8 50.8 0 0 0 0-2.9V27c0-.4.2-.6.4-.8.2-.2.4-.3.8-.3.3 0 .5.1.7.3.2.2.3.4.3.8v1.7l-.1 1.7Zm5.2 4.2c-1 0-1.8-.4-2.5-1a4 4 0 0 1-1.1-3c0-1 .2-2.1.9-3 .8-1 1.9-1.6 3.3-1.6 1 0 1.9.4 2.5 1.2.5.8.8 1.7.8 2.8a5 5 0 0 1-1 3.1c-.7 1-1.6 1.5-2.9 1.5Zm.5-6.5c-.6 0-1.1.2-1.5.8-.3.5-.5 1.1-.5 1.8 0 .6.2 1 .5 1.4.3.3.7.4 1 .4.5 0 .9-.1 1.2-.5.4-.3.6-.8.6-1.4 0-1.7-.3-2.5-1.3-2.5Zm10.9 6.6c-.6 0-1-.4-1-1l-.3-1.6a12 12 0 0 1 0-3.3v-.4c0-.4-.1-.6-.4-.6-.4 0-1 .3-1.4.8-.4.6-.8 1.3-1 2.2l-.1.7a5.2 5.2 0 0 0 0 1.3v.7c0 .3 0 .5-.3.7a1 1 0 0 1-.8.3 1 1 0 0 1-.7-.3 1 1 0 0 1-.3-.7v-.7l-.1-.7v-2a27.2 27.2 0 0 0 .1-3.5c0-.3.1-.6.3-.7.3-.2.5-.3.8-.3.7 0 1 .4 1.1 1.2.8-.7 1.6-1 2.4-1 1 0 1.7.3 2 1.2.3.5.5 1.3.5 2.4v1.1l.1 1.6.2 1.5c0 .3-.1.6-.3.8a1 1 0 0 1-.8.3Zm9 0c-.3 0-.7-.3-1.2-.9-.5.3-.9.4-1.3.5a3 3 0 0 1-.9.2c-1.2 0-2.2-.3-2.8-1-.6-.6-1-1.7-1-3 0-1.2.5-2.3 1.4-3.2a4.4 4.4 0 0 1 5-1c.9.4 1.3.8 1.3 1.2 0 .2 0 .4-.2.5l-.1.8a13.5 13.5 0 0 0 .1 3.3 21.5 21.5 0 0 0 .7 1.6c0 .2-.1.5-.3.6a1 1 0 0 1-.7.3Zm-2-5.4a6.2 6.2 0 0 1 .2-1.3 1.4 1.4 0 0 0-.5-.2c-.7 0-1.4.3-1.9.8-.5.6-.8 1.2-.8 2 0 .7.1 1.2.4 1.5.2.4.6.6 1.1.6a2.7 2.7 0 0 0 1.8-.7l-.3-2.7Z"/></mask><path fill="#000" d="M18.4 34.5c-.4 0-1 0-1.4-.2v3.2c0 .3-.1.5-.3.7a1 1 0 0 1-.8.3 1 1 0 0 1-.8-.3 1 1 0 0 1-.3-.7 911.5 911.5 0 0 1 0-9l-.2-1.5c0-.4.1-.8.3-1a1 1 0 0 1 1-.6l.6.3c.2.2.3.4.3.7v.1a4.5 4.5 0 0 1 2.1-.6c1.2 0 2.1.5 2.7 1.5.4.8.6 1.8.6 3s-.3 2.1-1 2.9c-.7.8-1.6 1.2-2.8 1.2ZM19 28c-.3 0-.6 0-1 .2a4 4 0 0 0-1 .7l.1 3.2 1.4.3c.5 0 1-.2 1.2-.6.3-.3.4-.8.4-1.4V29c-.2-.7-.5-1-1-1Zm11 .4c0 .8-.4 1.2-1 1.2-.7 0-1-.4-1-1l-.1-.8c-1.2.1-2 .7-2.5 1.8v3.9c0 .3-.1.5-.3.7a1 1 0 0 1-.8.3 1 1 0 0 1-.7-.3 1 1 0 0 1-.3-.7v-5.1a23.7 23.7 0 0 1 0-1.5c0-.3.1-.5.3-.7.2-.2.4-.3.8-.3.5 0 .9.3 1 .9.9-.7 2-1 3-1s1.6.7 1.6 2v.6Zm7.9-.4-1.6 2c-1 1.2-1.4 2-1.7 2.2a24.7 24.7 0 0 1 1.7.1l1 .1c.3 0 .5.1.7.3.2.2.3.5.3.8 0 .3 0 .5-.3.7a1 1 0 0 1-.8.3l-.9-.1-.9-.1a17.6 17.6 0 0 0-3.6.3c-.3 0-.5 0-.7-.2a.8.8 0 0 1-.4-.7c0-.3.2-.7.5-1 1.3-1 2.7-2.6 4.1-4.7a19.2 19.2 0 0 1-3.4-.2c-.6 0-1-.4-1-1 0-.3.2-.5.4-.7.2-.2.4-.4.7-.4l1.2.1a12.9 12.9 0 0 0 2.8 0h1.6c.6 0 1 .2 1 .8 0 .4-.3 1-.7 1.4Zm5.8 6.4a5 5 0 0 1-3-1 3.3 3.3 0 0 1-1.4-2.7c0-1.3.4-2.4 1-3.3.8-1 1.9-1.6 3.2-1.6.9 0 1.6.2 2.2.5.8.4 1.2 1 1.2 1.8 0 .5-.3 1-1 1.5l-1.7.9-2.6 1.1c.2.3.5.5.9.7l1.2.2c.7 0 1.3-.2 1.8-.5.4-.2.7-.4 1-.4.5 0 .8.3.8.8 0 .6-.4 1.1-1.3 1.5-.7.3-1.5.5-2.3.5Zm-.2-6.7c-.5 0-1 .2-1.3.5-.3.3-.6.8-.8 1.5a449.7 449.7 0 0 1 3.5-1.7c-.4-.2-.9-.3-1.4-.3Zm11-1.6c0-1.7 0-3 .2-3.6 0-.6.4-1 1-1 .3 0 .5.1.7.3.2.2.3.5.3.8 0 .7 0 1.9-.2 3.3a48.2 48.2 0 0 0 0 7.4c0 .2 0 .5-.3.7a1 1 0 0 1-.7.2 1 1 0 0 1-.8-.5 4.4 4.4 0 0 1-2.3.7 4 4 0 0 1-3-1.2 3.9 3.9 0 0 1-1.1-2.9c0-1.4.4-2.5 1.2-3.4a4 4 0 0 1 3-1.3c.5 0 .8 0 1.1.2.3 0 .6.2.8.3Zm-.2 2.5c-.2-.3-.4-.6-.7-.7a2 2 0 0 0-1-.3c-.8 0-1.3.3-1.7.7-.4.4-.6 1.1-.6 2 0 .6.2 1 .6 1.4.4.5 1 .7 1.5.7l.9-.2a4.2 4.2 0 0 0 1-.7v-2.9Zm10.4-.2c0 .8-.4 1.2-1.1 1.2-.7 0-1-.4-1-1v-.8c-1.2.1-2 .7-2.6 1.8v3.9c0 .3 0 .5-.3.7a1 1 0 0 1-.7.3 1 1 0 0 1-.8-.3 1 1 0 0 1-.2-.7v-5.1a24 24 0 0 1 0-1.5c0-.3 0-.5.3-.7.1-.2.4-.3.7-.3.6 0 1 .3 1 .9 1-.7 2-1 3.1-1 1 0 1.6.7 1.6 2v.6Zm7.8 6.1c-.2 0-.6-.2-1.1-.8-.5.3-.9.4-1.3.5a3 3 0 0 1-.9.2c-1.2 0-2.2-.3-2.8-1-.6-.6-1-1.7-1-3 0-1.2.5-2.3 1.4-3.2a4.4 4.4 0 0 1 5-1c.9.4 1.3.8 1.3 1.2l-.2.5-.1.8a13.5 13.5 0 0 0 .1 3.3 23.5 23.5 0 0 0 .7 1.6c0 .2-.1.5-.3.6a1 1 0 0 1-.8.3Zm-1.9-5.3a6 6 0 0 1 .1-1.3 1.4 1.4 0 0 0-.4-.2c-.7 0-1.4.3-1.9.8-.5.6-.8 1.2-.8 2 0 .7.1 1.2.4 1.5.2.4.6.6 1.1.6a2.7 2.7 0 0 0 1.7-.7l-.2-2.7Zm6.1-2.1c.8-1 1.5-1.4 2.3-1.4.8 0 1.3.3 1.7 1a3.3 3.3 0 0 1 2.3-1c1 0 1.7.6 2.1 1.6l.3 2.1.6 4.2c0 .3 0 .6-.3.8-.2.2-.5.3-.8.3-.6 0-1-.3-1-1a33.8 33.8 0 0 1-.6-4.5c-.1-1-.3-1.4-.5-1.4l-.9.4a6 6 0 0 0-.9.6c0 .6 0 1.5.2 2.6s.2 2 .2 2.5c0 .3 0 .6-.3.8a1 1 0 0 1-.7.3 1 1 0 0 1-.8-.3 1 1 0 0 1-.3-.8c0-.6 0-1.4-.2-2.6a26.6 26.6 0 0 1-.3-3.4 6.4 6.4 0 0 0-2 1.9 133 133 0 0 0 0 3.6c0 .3-.1.5-.3.7l-.8.2c-.5 0-.8-.2-1-.6v-4.2a29.7 29.7 0 0 0-.1-2.2c0-.5 0-.9.2-1.3s.5-.7.9-.7c.3 0 .5.1.7.4.3.2.4.4.4.7v.7Zm12.2-2.5-.9-.3a1 1 0 0 1-.3-.8c0-.4.1-.6.3-.9.3-.2.6-.3 1-.3l.8.3c.2.3.3.5.3.9 0 .3 0 .5-.3.8l-.9.3Zm.7 5.7a67.6 67.6 0 0 0 0 2.9c0 .3 0 .5-.3.7a1 1 0 0 1-.7.3 1 1 0 0 1-.8-.3 1 1 0 0 1-.3-.7 50.8 50.8 0 0 0 0-2.9V27c0-.4.2-.6.4-.8.2-.2.4-.3.8-.3.3 0 .5.1.7.3.2.2.3.4.3.8v1.7l-.1 1.7Zm5.2 4.2c-1 0-1.8-.4-2.5-1a4 4 0 0 1-1.1-3c0-1 .2-2.1.9-3 .8-1 1.9-1.6 3.3-1.6 1 0 1.9.4 2.5 1.2.5.8.8 1.7.8 2.8a5 5 0 0 1-1 3.1c-.7 1-1.6 1.5-2.9 1.5Zm.5-6.5c-.6 0-1.1.2-1.5.8-.3.5-.5 1.1-.5 1.8 0 .6.2 1 .5 1.4.3.3.7.4 1 .4.5 0 .9-.1 1.2-.5.4-.3.6-.8.6-1.4 0-1.7-.3-2.5-1.3-2.5Zm10.9 6.6c-.6 0-1-.4-1-1l-.3-1.6a12 12 0 0 1 0-3.3v-.4c0-.4-.1-.6-.4-.6-.4 0-1 .3-1.4.8-.4.6-.8 1.3-1 2.2l-.1.7a5.2 5.2 0 0 0 0 1.3v.7c0 .3 0 .5-.3.7a1 1 0 0 1-.8.3 1 1 0 0 1-.7-.3 1 1 0 0 1-.3-.7v-.7l-.1-.7v-2a27.2 27.2 0 0 0 .1-3.5c0-.3.1-.6.3-.7.3-.2.5-.3.8-.3.7 0 1 .4 1.1 1.2.8-.7 1.6-1 2.4-1 1 0 1.7.3 2 1.2.3.5.5 1.3.5 2.4v1.1l.1 1.6.2 1.5c0 .3-.1.6-.3.8a1 1 0 0 1-.8.3Zm9 0c-.3 0-.7-.3-1.2-.9-.5.3-.9.4-1.3.5a3 3 0 0 1-.9.2c-1.2 0-2.2-.3-2.8-1-.6-.6-1-1.7-1-3 0-1.2.5-2.3 1.4-3.2a4.4 4.4 0 0 1 5-1c.9.4 1.3.8 1.3 1.2 0 .2 0 .4-.2.5l-.1.8a13.5 13.5 0 0 0 .1 3.3 21.5 21.5 0 0 0 .7 1.6c0 .2-.1.5-.3.6a1 1 0 0 1-.7.3Zm-2-5.4a6.2 6.2 0 0 1 .2-1.3 1.4 1.4 0 0 0-.5-.2c-.7 0-1.4.3-1.9.8-.5.6-.8 1.2-.8 2 0 .7.1 1.2.4 1.5.2.4.6.6 1.1.6a2.7 2.7 0 0 0 1.8-.7l-.3-2.7Z"/><path fill="#E7E7E7" d="m17 34.3.4-2-2.4-.5v2.5h2Zm0 3.2h-2 2Zm-2.2-3h-2 2Zm0-3h2-2Zm0-3-2 .2 2-.1Zm.1-2.6-1.7-1 1.7 1Zm2 .5 2 .2v-.2h-2Zm0 .1-2-.2-.4 3.8 3.3-1.9-1-1.7Zm1-.4.5 1.9-.5-2Zm3.7 1.3 1.7-1-1.7 1Zm-.4 5.9-1.5-1.4 1.5 1.4Zm-3.3-5 .9 1.8-.9-1.9Zm-1 .6-1.3-1.5-.7.7v1l2-.2Zm.1 3.2h-2v1.5l1.4.4.6-1.9Zm2.6-.3L18 30.6l1.6 1.2ZM20 29l2-.5-2 .5Zm-1.5 5.5v-2c-.3 0-.6 0-1-.2l-.4 2-.4 2 1.8.2v-2Zm-1.4-.2h-2v3.2h4v-3.2h-2Zm0 3.2h-2v-.3l.3-.4 1.4 1.4 1.4 1.5a3 3 0 0 0 .9-2.2h-2Zm-.3.7-1.4-1.4a1 1 0 0 1 .6-.3v4a3 3 0 0 0 2.2-.8l-1.4-1.5Zm-.8.3v-2l.3.1.3.2-1.4 1.4-1.4 1.5a3 3 0 0 0 2.2.8v-2Zm-.8-.3 1.4-1.4a1 1 0 0 1 .3.7h-4a3 3 0 0 0 1 2.2l1.3-1.5Zm-.3-.7h2v-3h-4v3h2Zm0-3h2v-3h-4v3h2Zm0-3h2v-3h-2l-2 .2v2.8h2Zm0-3h2a214 214 0 0 0-.2-1.6v-.2l-.1-.4s0-.2-.2-.3c0 0-.4-.8-1.3-1a2 2 0 0 0-2 1l-.3.5v.3a2 2 0 0 0 0 .2h4v.2l-.2.4s0 .3-.2.5a2 2 0 0 1-2 1c-1-.3-1.3-1-1.4-1a2 2 0 0 1-.2-.4v-.4a16.2 16.2 0 0 1 0 1.4l2-.1Zm-.2-1.5h2l-1.7-1-1.7-1.1a4 4 0 0 0-.6 2.1h2Zm.3-1 1.7 1-.3.3a1 1 0 0 1-.5.1v-4a3 3 0 0 0-2.6 1.5l1.7 1Zm1-.6v2h-.4a1 1 0 0 1-.4-.3l1.4-1.4 1.5-1.4a3 3 0 0 0-2.2-.9v2Zm.6.3-1.4 1.4-.2-.3v-.4h4a3 3 0 0 0-1-2.1l-1.4 1.4Zm.3.7-2-.2v.1l2 .2 2 .2-2-.3Zm0 .1 1 1.7.6-.2-.5-2-.5-1.9-1.6.7 1 1.7Zm1-.4.6 1.9h.5v-4l-1.6.1.6 2Zm1.1-.2v2l.6.1.3.4 1.8-1 1.7-1c-.4-.7-1-1.4-1.8-1.8a5 5 0 0 0-2.6-.7v2Zm2.7 1.5-1.8 1c.2.4.4 1 .4 2h4c0-1.4-.2-2.8-.9-4l-1.7 1Zm.6 3h-2c0 .7-.2 1.2-.5 1.5l1.5 1.4 1.5 1.3c1-1.2 1.5-2.6 1.5-4.2h-2Zm-1 2.9-1.5-1.4c-.3.4-.6.6-1.3.6v4c1.7 0 3.2-.6 4.3-2l-1.5-1.3ZM19 28v-2c-.6 0-1.2.2-1.8.4l.8 1.8.9 1.9.1-.1v-2Zm-1 .2-.8-1.8a6 6 0 0 0-1.5 1l1.3 1.5 1.4 1.5.5-.3-.9-1.9Zm-1 .7-2 .1.1 3.1h4v-3.3l-2 .1Zm.1 3.2-.6 2c.6.2 1.3.3 2 .3v-4c-.2 0-.5 0-.8-.2l-.6 2Zm1.4.3v2c1 0 2.1-.4 2.8-1.4l-1.6-1.2-1.6-1.2.3-.2h.1v2Zm1.2-.6 1.6 1.2c.6-.8.8-1.7.8-2.6h-4v.3-.1l1.6 1.2Zm.4-1.4h2l-.1-1.9-2 .5-2 .4.1.2v.8h2Zm0-1.4 1.9-.5c-.1-.5-.4-1.2-1-1.7-.5-.6-1.2-.8-2-.8v4h-.3l-.4-.3-.2-.3 2-.4Zm10-.6-2-.2 2 .2Zm-2.2.1h2-2Zm0-.7 2-.1-.1-2.3-2.2.4.3 2Zm-2.5 1.8-1.8-1-.2.5v.5h2Zm0 3.9h2-2Zm-.3.7-1.4-1.4 1.4 1.4Zm-1.5 0L25 33l-1.5 1.3Zm-.3-6.5h2-2Zm.3-1.5L22 24.9l1.5 1.3Zm1.8.6-2 .4.6 3.1 2.6-1.9-1.2-1.6Zm4.6 1.6-2-.2c0 .2 0 0 .2-.3l.5-.3h.2v4a3 3 0 0 0 2.3-1c.6-.7.8-1.5.8-2.1l-2-.1Zm-1 1.2v-2h.1c.2 0 .4.2.5.3l.3.6h-4c0 .7.2 1.5.8 2.2a3 3 0 0 0 2.2.9v-2Zm-1-1 2-.2-.1-.7h-2l-2 .2v.7h2Zm-.1-.8-.3-2a5.2 5.2 0 0 0-4 2.9l1.8.9 1.8.9c.2-.5.4-.7 1-.8l-.3-2Zm-2.5 1.8h-2v3.9h4v-4h-2Zm0 3.9h-2V33l.3-.3 1.4 1.4 1.4 1.5a3 3 0 0 0 .9-2.2h-2Zm-.3.7-1.4-1.4a1 1 0 0 1 .6-.3v4a3 3 0 0 0 2.2-.8L25 34.2Zm-.8.3v-2l.4.1.4.3-1.5 1.3-1.6 1.3a3 3 0 0 0 2.3 1v-2Zm-.7-.3L25 33l.2.3v.3h-4c0 .7.2 1.4.8 2l1.5-1.3Zm-.3-.7h2v-5.1h-4v5h2Zm0-5.1h2v-.7h-2l-2-.1v.8h2Zm0-.7h2V27h-4v.7h2Zm0-.8h2v.3l-.2.3-1.5-1.3-1.5-1.3a3 3 0 0 0-.8 2h2Zm.3-.7 1.5 1.3c-.1.2-.3.3-.4.3l-.4.1v-4a3 3 0 0 0-2.2 1l1.5 1.3Zm.8-.3v2c-.1 0-.4 0-.7-.3l-.3-.4 2-.4 2-.4c-.2-.6-.4-1.3-1-1.8a3 3 0 0 0-2-.7v2Zm1 .9 1.2 1.6a3 3 0 0 1 1.9-.6v-4a7 7 0 0 0-4.3 1.4l1.2 1.6Zm3-1v2a.8.8 0 0 1-.4-.3c0-.1 0-.1 0 0v.3h4c0-.8-.1-1.9-.8-2.7-.7-1-1.7-1.3-2.7-1.3v2Zm1.6 2h-2v.4l2 .2h2v-.6h-2Zm6.3 2.3 1.6 1.1-1.6-1.1Zm-1.7 2.1L33 31l-2.7 3.4 4.3-.2v-2Zm1.7.1-.4 2 .4-2Zm1.7.4-1.4 1.5 1.4-1.5Zm0 1.5-1.4-1.4 1.4 1.4Zm-1.7.2-.3 2 .3-2Zm-4.1.2-.4-2 .4 2Zm-1.1-.2 1.2-1.6-1.2 1.6Zm.1-1.6 1.3 1.5-1.3-1.5Zm4.1-4.8 1.7 1 2.2-3.2-4 .2.1 2Zm-3.4-.2.3-2-.3 2Zm-.6-1.7-1.5-1.4 1.5 1.4Zm1.9-.3-.2 2 .2-2Zm2.8 0v2-2Zm1.9 2.2-1.5-1.3-1.7 2.2 1.6 1.2 1.6 1.1c.6-.8 1-1.4 1.5-1.8L37.8 28Zm-1.6 2L34.6 29a128 128 0 0 1-1.6 2l1.5 1.3 1.6 1.3 1.7-2.3-1.6-1.1Zm-1.7 2.2.1 2h.7v-4h-.8v2Zm.8 0v2h.5l.4-1.9.4-2a7 7 0 0 0-1.3 0v2Zm1 .1-.4 2 1.2.1v-4h-.5l-.4 2Zm.8.1v2H37a1 1 0 0 1-.4-.2l1.4-1.5 1.4-1.4a3 3 0 0 0-2.2-.9v2Zm.8.3-1.3 1.5a1 1 0 0 1-.4-.7h4a3 3 0 0 0-1-2.2L38 32.7Zm.3.8h-2l.1-.4.2-.3 1.4 1.4 1.4 1.5a3 3 0 0 0 1-2.2h-2Zm-.3.7-1.4-1.4.4-.3h.2v4a3 3 0 0 0 2.2-.8l-1.4-1.5Zm-.8.3v-2H37a7 7 0 0 1-.4 0l-.4 1.9-.3 2H37v-2Zm-.9-.1.4-2-1.3-.1v4H36l.3-2Zm-.9-.1v-2c-1.2 0-2.5 0-3.6.3l.4 2 .3 2c1-.2 1.9-.3 3-.3v-2Zm-3.2.3-.4-2v4h.7l-.3-2Zm-.4 0v-2h.2l.3.2-1.2 1.6-1.2 1.6c.6.4 1.2.6 2 .6v-2Zm-.7-.2 1.2-1.6.3.4.1.5h-4c0 1 .5 1.7 1.2 2.3l1.2-1.6Zm-.4-.7h2v.5l-.2.1-1.3-1.5-1.3-1.6c-.6.6-1.2 1.4-1.2 2.5h2Zm.5-1 1.3 1.6c1.5-1.3 3-3 4.5-5.2L35.2 28l-1.7-1.2c-1.3 2-2.6 3.5-3.7 4.4l1.3 1.6Zm4.1-4.7-.1-2h-.8v4h1l-.1-2Zm-1 0v-2c-.6 0-1.3 0-2-.2l-.4 2-.2 2 2.7.2v-2Zm-2.4-.2.3-2s.2 0 .5.3.3.6.3.7h-4c0 .7.2 1.4.8 2 .5.7 1.3.9 1.9 1l.2-2Zm-1-1h2v.3l-.2.4-1.4-1.4-1.5-1.4a3 3 0 0 0-.8 2h2Zm.4-.7 1.4 1.4a1 1 0 0 1-.7.3v-4a3 3 0 0 0-2.2.9l1.5 1.4Zm.7-.4v2l1 .1.2-2 .2-2H32v2Zm1.2.1-.2 2 1.4.1v-4h-1l-.2 2Zm1.2.1v2H36l-.1-2-.2-2h-1.4v2Zm1.6 0v2l1.6-.1v-4h-1.8l.2 2Zm1.6-.1v2l-.6-.3-.4-.5v-.4h4c0-.7-.3-1.6-1-2.2-.7-.5-1.5-.6-2-.6v2Zm1 .8h-2v-.1l-.2.2 1.5 1.3 1.5 1.4c.6-.8 1.1-1.7 1.1-2.8h-2Zm1.8.8L38.7 26l1.6 1.3Zm5.3-1.1 1-1.8-1 1.8Zm.3 3.3-1.2-1.7 1.2 1.7Zm-1.8.9.8 1.8-.8-1.8Zm-2.6 1.1-.8-1.8L38 31l1.9 2 1.5-1.4Zm3.9.4-1-1.7 1 1.7Zm.5 1.9.8 1.8L46 34Zm-4.6-4.2-1.9-.6-1.3 4.2 4-1.8-.8-1.8Zm1.8-.8.8 1.8L43 29Zm1.6-.9 1.1 1.7 2.8-1.8-2.9-1.6-1 1.7Zm-1.1 6.4v-2a3 3 0 0 1-1.9-.5l-1.2 1.6-1.2 1.6a7 7 0 0 0 4.3 1.3v-2Zm-3-1 1.1-1.5c-.3-.3-.5-.6-.5-1.2h-4c0 1.8.7 3.3 2.1 4.4l1.2-1.6Zm-1.4-2.7h2c0-1 .3-1.6.7-2.1l-1.6-1.2-1.6-1.3a7.4 7.4 0 0 0-1.5 4.6h2Zm1-3.3 1.7 1.2c.3-.5.8-.8 1.5-.8v-4c-2 0-3.6.8-4.7 2.3l1.6 1.3Zm3.2-1.6v2c.7 0 1.1.2 1.4.3l.8-1.8 1-1.8c-1-.5-2.1-.7-3.2-.7v2Zm2.2.5-.8 1.8h4a3.9 3.9 0 0 0-2.3-3.6l-.9 1.8Zm1.2 1.8h-2a.5.5 0 0 1 0-.3c.1 0 0 0 0 .1l1 1.7 1.2 1.6c1-.6 1.8-1.7 1.8-3.1h-2Zm-1 1.5-1-1.6-1.5.7.8 1.8.8 1.8a14 14 0 0 0 2.1-1l-1.1-1.7Zm-1.7.9-.8-1.8-2.6 1.1.8 1.8.8 1.9 2.6-1.2-.8-1.8Zm-2.6 1.1L40 33c.5.5 1 .9 1.7 1.1l.7-1.8.7-2h-.2l-1.4 1.3Zm.9.7-.7 1.8c.6.3 1.2.4 1.9.4v-4l-.5-.1-.7 1.9Zm1.2.2v2c1 0 2-.2 2.8-.7l-1-1.8-1-1.7-.8.2v2Zm1.8-.5 1 1.8a2.6 2.6 0 0 1 .2-.2h-.2v-4c-.8 0-1.5.4-2 .7l1 1.7Zm1-.4v2s-.4 0-.8-.3c-.4-.4-.4-.8-.4-.9h4c0-.5-.1-1.4-.8-2-.6-.6-1.4-.8-2-.8v2Zm.8.8h-2v-.3l.2-.2-.3.2.8 1.8.8 1.8c1.1-.5 2.5-1.4 2.5-3.3h-2ZM46 34l-.8-1.8c-.4.2-1 .3-1.5.3v4c1 0 2.1-.2 3.1-.7l-.8-1.8Zm-2.5-6.2v-2c-1 0-1.9.4-2.6 1l1.3 1.5 1.4 1.5h-.1v-2Zm-1.3.5-1.3-1.4c-.7.6-1.1 1.4-1.4 2.3l2 .6 1.8.6.3-.6-1.4-1.5Zm-.8 1.5.8 1.8 1.8-.8L43 29l-.8-1.8-1.8.7.8 1.9Zm1.8-.8.8 1.8 2-1-1.1-1.7-1.1-1.7-1.5.8.9 1.8Zm1.6-.9 1-1.7c-.7-.4-1.5-.6-2.3-.6v4h.4l1-1.7Zm9.6-1.9-1.2 1.7 3 2.2.2-3.8h-2Zm.3-3.6-2-.3 2 .3Zm1.8 3.4-2-.1 2 .1Zm0 7.1 2-.3-2 .3Zm-.3 1 1.4 1.5L56 34Zm-1.5-.3 1.7-1-1-1.8-1.8 1.1 1 1.7Zm-1.1.5-.6-2 .6 2Zm-4.1-1L48 34.7l1.4-1.5Zm0-6.3 1.5 1.4-1.5-1.4Zm4.8 1.7h2v-.5l-.3-.4-1.7 1Zm-3.4-.3 1.5 1.3-1.5-1.3Zm2.4 4-.8-2 .8 2Zm.7-.6 1.3 1.6-1.3-1.6Zm.3-.2 1.4 1.3.6-.6v-.8h-2Zm.1-5.4 2 .1c0-1.8.2-2.9.3-3.5l-2-.2-2-.3-.3 3.9h2Zm.3-3.6 2 .3-.1.1-.3.4a1 1 0 0 1-.6.2v-4a3 3 0 0 0-2 .8c-.7.6-1 1.3-1 1.9l2 .3Zm1-1v2h-.3a1 1 0 0 1-.4-.3l1.4-1.4 1.5-1.3a3 3 0 0 0-2.2-1v2Zm.7.3L55 23.2a1 1 0 0 1-.3-.6h4a3 3 0 0 0-.8-2.1l-1.5 1.3Zm.3.8h-2c0 .6 0 1.7-.2 3.2l2 .1 2 .2.2-3.5h-2Zm-.2 3.3-2-.1a50 50 0 0 0-.1 3.5h4l.1-3.2-2-.2Zm-.1 3.4h-2c0 1.8 0 3.3.2 4.1l2-.4 1.9-.4-.1-3.3h-2Zm.1 3.7-2 .4v-.1h4v-.6l-2 .3Zm0 .3h-2c0-.2 0-.3.2-.5l.2-.3 1.3 1.5 1.4 1.4a3 3 0 0 0 1-2.1h-2Zm-.3.7-1.3-1.5a.9.9 0 0 1 .6-.3v4a3 3 0 0 0 2-.7L56.2 34Zm-.7.2v-2c.1 0 .3 0 .5.2.3.1.4.3.4.4l-1.7 1-1.8.9c.2.4.6.8 1 1.1.6.3 1.1.4 1.6.4v-2Zm-.8-.5-1-1.7-.7.3.6 1.9.5 2 1.6-.8-1-1.7Zm-1.1.5-.6-2-.6.2v4c.6 0 1.1-.1 1.7-.3l-.5-1.9Zm-1.2.2v-2a2 2 0 0 1-1.5-.6l-1.4 1.4-1.4 1.5a6 6 0 0 0 4.3 1.7v-2Zm-3-1.2 1.5-1.4c-.4-.3-.6-.8-.6-1.5h-4c0 1.7.6 3.2 1.8 4.4l1.4-1.5Zm-1.1-2.9h2c0-1 .3-1.6.7-2l-1.5-1.4-1.5-1.3a6.8 6.8 0 0 0-1.7 4.7h2Zm1.2-3.4 1.5 1.4c.3-.4.8-.7 1.6-.7v-4a6 6 0 0 0-4.6 2l1.5 1.3Zm3-1.3v2l.6.1.5-2 .6-1.9a6 6 0 0 0-1.6-.2v2Zm1.1.2-.5 1.9a.6.6 0 0 1 .1 0l1.2-1.6 1.2-1.6-1.4-.7-.6 2Zm.7 2.8 1.7-1c-.3-.5-.7-1-1.4-1.5l-1 1.8-1 1.7h-.1l1.8-1Zm-.7-.7 1-1.8a4 4 0 0 0-2-.5v4l1-1.7Zm-1-.3v-2c-1.1 0-2.4.4-3.2 1.4l1.5 1.3 1.5 1.3h.2v-2Zm-1.7.7L49.3 27a5 5 0 0 0-1.1 3.3h4v-.7l-1.4-1.3Zm-.6 2h-2a4 4 0 0 0 1.2 2.9l1.4-1.5 1.4-1.4h-2Zm.6 1.4-1.4 1.5a4 4 0 0 0 2.9 1.2v-4l-1.5 1.4Zm1.5.7v2c.5 0 1.1-.1 1.7-.4l-.8-1.8-.8-1.8h.1-.2v2Zm.9-.2L54 34c.4-.1.9-.5 1.2-.7l-1.3-1.6-1.2-1.6a6.5 6.5 0 0 1-.4.3l.9 1.8Zm.7-.5 1.3 1.6.4-.5-1.4-1.3-1.5-1.4 1.2 1.6Zm.3-.2 2-.1v-2.8h-4v3l2-.1Zm10.4-3.1-2-.2 2 .2Zm-2.1.1h2-2Zm0-.7 2-.1-.2-2.3-2.2.4.4 2Zm-2.6 1.8-1.8-1-.2.5v.5h2Zm0 3.9h2-2Zm-.3.7-1.3-1.4 1.3 1.4Zm-1.5 0 1.5-1.3-1.5 1.3Zm-.2-6.5h2-2Zm.3-1.5-1.5-1.3 1.5 1.3Zm1.7.6-2 .4.7 3.1 2.5-1.9-1.2-1.6Zm4.7 1.6-2-.2c0 .2 0 0 .2-.3l.4-.3h.3v4a3 3 0 0 0 2.2-1c.6-.7.8-1.5.9-2.1l-2-.1Zm-1.1 1.2v-2h.2l.5.3.3.6h-4c0 .7.1 1.5.8 2.2a3 3 0 0 0 2.2.9v-2Zm-1-1 2-.2v-.7h-2l-2 .2v.7h2Zm0-.8-.4-2a5.2 5.2 0 0 0-4 2.9l1.8.9 1.8.9c.2-.5.5-.7 1-.8l-.2-2Zm-2.6 1.8h-2v3.9h4v-4h-2Zm0 3.9h-2l.1-.4.3-.3 1.3 1.4 1.4 1.5a3 3 0 0 0 1-2.2h-2Zm-.3.7-1.4-1.4a1 1 0 0 1 .7-.3v4a3 3 0 0 0 2.1-.8l-1.4-1.5Zm-.7.3v-2l.3.1c.2 0 .3.2.4.3l-1.5 1.3-1.5 1.3a3 3 0 0 0 2.3 1v-2Zm-.8-.3 1.5-1.3.2.3v.3h-4c0 .7.3 1.4.8 2l1.5-1.3Zm-.2-.7h2v-5.1h-4v5h2Zm0-5.1h2v-.7h-2l-2-.1v.8h2Zm0-.7h2V27h-4v.7h2Zm0-.8h2v.3l-.3.3-1.4-1.3-1.5-1.3a3 3 0 0 0-.8 2h2Zm.3-.7 1.4 1.3c0 .2-.2.3-.4.3l-.3.1v-4a3 3 0 0 0-2.2 1l1.5 1.3Zm.7-.3v2s-.3 0-.6-.3c-.3-.2-.3-.4-.3-.4l2-.4 1.9-.4c-.1-.6-.4-1.3-1-1.8a3 3 0 0 0-2-.7v2Zm1 .9 1.2 1.6a3 3 0 0 1 2-.6v-4a7 7 0 0 0-4.4 1.4l1.2 1.6Zm3.1-1v2H63a.8.8 0 0 1-.3-.3c0-.1 0-.1 0 0v.3h4c0-.8-.2-1.9-.8-2.7-.7-1-1.8-1.3-2.8-1.3v2Zm1.6 2h-2v.4l2 .2h2v-.6h-2Zm6.7 6 1.4-1.5-1-1-1.3.6.9 1.8Zm-1.3.5-.6-2 .6 2Zm-3.7-.9-1.5 1.4 1.5-1.4Zm.4-6.2 1.4 1.4-1.4-1.4Zm5-1-.7 1.9.8-1.8Zm1 1.7-1.4-1.3-.3.4-.2.5 2 .4Zm0 .8-2-.2 2 .2Zm.1 3.3-1.9.6 2-.6Zm.4.8-1.8.8 1.8-.8Zm0 1.4-1.3-1.5 1.3 1.5Zm-2.7-5.6-2-.3 2 .3Zm.1-.7 2 .3.3-1.5-1.4-.6-.9 1.8Zm-.2-.1-.7 1.8h.1l.6-1.9Zm-2.1.7 1.4 1.4-1.4-1.4Zm-.4 3.5-1.7 1.2L68 32Zm2 .4.7 1.9-.7-1.9Zm.8-.5 1.3 1.6.9-.7-.2-1.1-2 .2Zm1.7 2.6v-2a1.6 1.6 0 0 1 .6.1h.1-.1l-.3-.3-1.4 1.4-1.4 1.4 1 .9c.2.2.8.5 1.5.5v-2Zm-1.1-.8-.9-1.8c-.4.2-.7.4-1 .4l.6 2 .6 1.9 1.6-.7-.9-1.8Zm-1.3.5-.6-1.9-.2.1c-.1 0-.1 0 0 0v4c.5 0 1 0 1.5-.2l-.7-2Zm-.9.2v-2c-.9 0-1.2-.2-1.4-.3l-1.4 1.3-1.5 1.4a5.7 5.7 0 0 0 4.3 1.6v-2Zm-2.8-1 1.4-1.3c-.1-.2-.4-.6-.4-1.7h-4c0 1.6.4 3.2 1.5 4.4l1.5-1.4Zm-1-3h2c0-.7.3-1.2.8-1.8l-1.4-1.4-1.4-1.5a6.3 6.3 0 0 0-2 4.7h2Zm1.4-3.2 1.4 1.4c.6-.5 1.2-.8 2-.8v-4c-1.8 0-3.5.7-4.8 2l1.4 1.4Zm3.4-1.4v2s.4 0 .9.3l.8-1.8.8-1.9c-.8-.3-1.7-.6-2.5-.6v2Zm1.7.5L71 28l.2.1-.1-.2-.1-.6h4c0-1.7-1.6-2.6-2.4-3l-.8 1.9Zm1.2 1.1h-2a1.2 1.2 0 0 1 .3-.8l1.5 1.3 1.5 1.3c.4-.5.7-1.1.7-1.8h-2Zm-.2.5-2-.4-.1 1 2 .2 2 .2v-.5l-2-.5Zm-.1.8-2-.1v1.2h4v-1h-2Zm0 1.1h-2c0 1 0 2 .2 2.8l2-.6 1.8-.6v-1.6h-2Zm.1 2.2-1.9.6.2.4.3.6 1.8-.8L75 32a74.7 74.7 0 0 1-.3-.7l-1.9.7Zm.4.8-1.8.8a17.4 17.4 0 0 1 .2.5 1.2 1.2 0 0 1 0-.3 1.8 1.8 0 0 1-.1-.2h4l-.1-.7-.1-.3-.3-.6-1.8.8Zm.3.8h-2a1.1 1.1 0 0 1 .4-.9l1.3 1.5 1.3 1.6c.6-.6 1-1.4 1-2.2h-2Zm-.3.6-1.3-1.5a1 1 0 0 1 .5-.2v4a3 3 0 0 0 2-.8l-1.2-1.5Zm-2.7-5h2v-.4l-2-.2-2-.2v.8h2Zm0-.6 2 .2.1-.6-2-.3-2-.4v.8l2 .3Zm.1-.7 1-1.8-.7-.3-.5 2-.5 1.9h-.1l.8-1.8Zm-.2-.1.6-2h-.8v4a1.5 1.5 0 0 1-.5-.2l.7-1.9Zm-.2 0v-2c-1.3 0-2.5.5-3.3 1.4l1.4 1.3 1.5 1.4c.1-.2.3-.2.4-.2v-2Zm-1.9.7-1.4-1.3c-1 .9-1.4 2-1.4 3.3h4c0-.2 0-.4.2-.6l-1.4-1.4Zm-.8 2h-2c0 .8.2 1.9.7 2.7L68 32l1.6-1.1s0 .1 0 0v-.4h-2ZM68 32l-1.6 1.2c.6 1 1.7 1.4 2.7 1.4v-4h.2l.3.3L68 32Zm1.1.6v2l1.6-.3-.7-1.9-.7-1.9H69v2Zm1-.2.6 1.9 1.4-.8-1.3-1.6-1.2-1.5a1 1 0 0 1-.3.1l.7 2Zm.7-.5 2-.2-.2-2.5h-4l.3 3 2-.3Zm6-4.8-2-.2-.6 6.2 4-4.7-1.5-1.3Zm4-.5-1.8 1 1.3 2.1 1.7-1.6-1.3-1.5Zm4.3.7 1.9-.6-1.9.6Zm.3 2.1-2 .3 2-.3Zm.6 4.2h2v-.1l-2 .1Zm-2.2.2-2 .3 2-.3Zm-.2-2.3-2 .2 2-.2Zm-.3-2.3-2 .3 2-.3Zm-1.4-1-1-1.8 1 1.8Zm-.9.6-1.3-1.5-.7.6v.9h2Zm.2 2.6-2 .2 2-.2Zm-2.1 0-2 .1 2-.2Zm-.3-3.5 2-.6-.8-2.4-2.2 1.3 1 1.7ZM77 29.6l-1.6-1.2 1.6 1.2Zm-.1.2-1.6-1.3-.4.5v.8h2Zm0 3 2 .2-2-.1Zm-.4 1.3-1.2-1.7 1.2 1.7Zm-1.7-.4 1.8-.7-1.8.7Zm-.2-5.3-2 .1h2Zm.2-2.4 1.8.8-1.8-.8Zm1.6-.3L75 27l1.4-1.4Zm.3 1.4 1.5 1.3c.3-.4.6-.5.7-.6.1-.1.1 0 0 0v-4c-1.5 0-2.8 1-3.7 2l1.5 1.3Zm2.3-1.4v2c.1 0 0 0 0 0l1.7-1 1.7-1.1a4 4 0 0 0-3.4-1.9v2Zm1.7 1L82 28l.5-.2-.7-1.9-.7-1.9-1.7 1 1.3 1.5Zm1-.7.8 1.9.5-.1v-4c-.6 0-1.3 0-2 .3l.8 1.9Zm1.3-.2v2h.2v.2l1.9-.7 1.9-.7c-.3-.7-.8-1.5-1.5-2-.8-.6-1.6-.8-2.5-.8v2Zm2.1 1.5-1.9.7c0-.1 0-.1 0 0v.3l.3 1.4 2-.3 2-.2a49 49 0 0 0-.5-2.5l-1.9.6Zm.3 2.1-2 .4.6 4 2-.2 2-.2-.6-4.3-2 .3Zm.6 4.2-2 .2v-.5l.4-.4 1.3 1.5 1.3 1.5c.7-.6 1-1.5 1-2.4l-2 .1Zm-.3.8-1.3-1.5a.8.8 0 0 1 .5-.2v4c.8 0 1.5-.3 2.1-.8l-1.3-1.5Zm-.8.3v-2l.6.2c.3.3.3.5.3.5l-2 .4-2 .3a3 3 0 0 0 1.1 1.9 3 3 0 0 0 2 .7v-2Zm-1-1 2-.3c-.2-.4-.3-1.1-.3-2l-2 .1-2 .2c0 1 .2 1.8.3 2.4l2-.3Zm-.3-2.2 2-.2-.3-2.4-2 .3-2 .3.3 2.2 2-.2Zm-.3-2.3 2-.3-.4-1.4c0-.3-.2-.6-.5-.9-.2-.3-.8-.8-1.6-.8v4A1.8 1.8 0 0 1 81 29v-.1.2l.1.4 2-.3Zm-.5-1.4v-2c-.6 0-1 .2-1.1.3-.3 0-.5.2-.7.3l1 1.8 1 1.7a6.6 6.6 0 0 1 .3-.2l-.2.1h-.3v-2Zm-.9.4-1-1.8-1.2.9 1.3 1.5 1.3 1.5.6-.4-1-1.7Zm-.9.6h-2c0 .7 0 1.7.2 2.8l2-.2 2-.3-.2-2.3h-2Zm.2 2.6-2 .2c.2 1.1.2 1.9.2 2.3h4c0-.7 0-1.6-.2-2.8l-2 .3Zm.2 2.5h-2l.1-.3.2-.4 1.4 1.5 1.4 1.4a3 3 0 0 0 1-2.2h-2Zm-.3.8-1.4-1.5a1 1 0 0 1 .7-.2v4a3 3 0 0 0 2.1-.9L81 34.7Zm-.7.3v-2h.2l.4.2-1.4 1.5L78 36a3 3 0 0 0 2.2.9v-2Zm-.8-.3 1.4-1.5a1 1 0 0 1 .3.7h-4a3 3 0 0 0 .9 2.2l1.4-1.4Zm-.3-.8h2l-.2-2.8-2 .2-2 .2.2 2.4h2Zm-.2-2.6 2-.2c-.2-1.1-.2-2-.2-2.4h-4c0 .7 0 1.7.2 2.8l2-.2Zm-.2-2.6h2c0-.4 0-1-.2-1.4l-1.9.6-2 .5.1.3h2Zm0-.8-1-1.7c-1 .5-1.8 1.3-2.5 2.2l1.6 1.2 1.6 1.2c.5-.7 1-1 1.2-1.2l-1-1.7Zm-2 1.7-1.5-1.1 1.5 1.3 1.5 1.3.2-.3-1.6-1.2Zm0 .2h-2v2.5h4v-2.5h-2Zm0 2.5h-2v.5h2l2 .2v-.7h-2Zm0 .6-2-.1-.1.6h4V33l-2-.1Zm-.1.5h-2l.1-.5.4-.5 1.2 1.7 1.1 1.6c.8-.5 1.2-1.4 1.2-2.3h-2Zm-.3.7-1.2-1.6.2-.2h.2v4c.6 0 1.3-.2 2-.6l-1.2-1.6Zm-.8.2v-2s.3 0 .5.2c.3.1.4.4.4.5l-1.8.7-1.9.8a2.9 2.9 0 0 0 2.8 1.8v-2Zm-1-.6 2-.7v-.5h-4c0 .6 0 1.4.2 2l1.9-.8Zm0-1.2h2v-3h-4v3h2Zm0-3h2l-.1-1.1h-2l-2 .1v1h2Zm-.1-1 2-.1v-1.1h-4v1.2h2Zm0-1.2h2v-.5l-1.8-.8-1.8-.8a5 5 0 0 0-.4 2h2Zm.2-1.3 1.8.8-.2.3-.7.2v-4c-1.5 0-2.4 1-2.7 2l1.8.7Zm.9-.7v2a1 1 0 0 1-.4 0 .8.8 0 0 1-.3-.2l1.4-1.4 1.5-1.4a3 3 0 0 0-2.2-1v2Zm.7.4L75 27l-.1-.2a1 1 0 0 1-.1-.5h4a3 3 0 0 0-1-2.2l-1.4 1.5Zm.4.7h2a2.4 2.4 0 0 0 0-.5l-.2-.3s-.2-.5-.7-.8a2 2 0 0 0-2.2 0c-.4.2-.6.5-.7.6l-.1.4v.2l-.1.3v.6l2 .2 2 .2v-.6.2l-.3.5s-.2.4-.6.7a2 2 0 0 1-2.3 0l-.7-1a2 2 0 0 1-.1-.6h2Zm13-3.8-1.4 1.5 1.4-1.5Zm0 1.7-1.4-1.5 1.4 1.5Zm-.2 7.5h-2 2Zm-.3 2.1 1.4 1.5-1.4-1.5Zm-1.5 0-1.4 1.5 1.4-1.5Zm-.4-2.1h-2 2Zm.5-5.7 1.4 1.5-1.4-1.5Zm1.5 0L88 27.5l1.4-1.4Zm-.5-1.5v-2h.3l.2.2-1.4 1.5-1.3 1.4c.6.6 1.4 1 2.2 1v-2Zm-.9-.3 1.4-1.5.2.3v.4h-4a3 3 0 0 0 1.1 2.2l1.3-1.4Zm-.3-.8h2a1 1 0 0 1-.3.6l-1.4-1.5-1.3-1.4a3 3 0 0 0-1 2.3h2Zm.3-.9 1.4 1.5-.2.1-.3.1v-4c-.8 0-1.6.3-2.2.9l1.3 1.4Zm1-.3v2h-.4a.8.8 0 0 1-.2-.2l1.4-1.5 1.3-1.4c-.6-.6-1.4-.9-2.2-.9v2Zm.8.3-1.4 1.5-.2-.3v-.3h4a3 3 0 0 0-1-2.3l-1.4 1.4Zm.3.9h-2a1 1 0 0 1 .3-.7l1.4 1.5 1.3 1.4a3 3 0 0 0 1-2.2h-2Zm-.3.8-1.4-1.5a.8.8 0 0 1 .5-.2v4c.8 0 1.6-.3 2.2-.9l-1.3-1.4Zm-.2 6h-2v1.5h4v-1.5h-2Zm0 1.5h-2v1.4h4v-1.5h-2Zm0 1.4h-2l.1-.3.2-.4 1.4 1.4 1.4 1.5a3 3 0 0 0 1-2.2h-2Zm-.3.7-1.4-1.4.4-.2h.3v4a3 3 0 0 0 2.1-.9l-1.4-1.5Zm-.7.3v-2h.2l.4.3-1.4 1.4-1.4 1.5a3 3 0 0 0 2.2.8v-2Zm-.8-.3 1.4-1.4a1 1 0 0 1 .3.7h-4a3 3 0 0 0 .9 2.2l1.4-1.5Zm-.3-.7h2v-1.5h-2l-2 .1v1.4h2Zm0-1.4h2v-1.5h-4v1.5h2Zm0-1.5h2v-1.6l-2-.1-2-.2v2h2Zm0-1.7 2 .1V27h-4v1.5l2 .2Zm0-1.7h2v.3l-.2.4-1.4-1.5-1.4-1.4a3 3 0 0 0-1 2.2h2Zm.4-.8 1.4 1.4a1 1 0 0 1-.6.3v-4a3 3 0 0 0-2.2.9l1.4 1.4Zm.8-.3v2h-.3a1 1 0 0 1-.4-.3l1.4-1.4 1.4-1.4a3 3 0 0 0-2.1-.9v2Zm.7.3L88 27.6a1 1 0 0 1-.4-.7h4a3 3 0 0 0-.9-2.2L89.3 26Zm.3.8h-2v1.5l2 .2 2 .1V27h-2Zm0 1.7-2-.2-.1 2h4v-1.7l-2-.1Zm2.7 4.9 1.3-1.5-1.3 1.5Zm-1.2-3h2-2Zm.9-3-1.6-1.2 1.6 1.2Zm5.8-.4 1.6-1.1-1.6 1.1Zm-.2 6 1.6 1.1-1.6-1.2ZM95.2 28v2-2Zm-1.5.8 1.7 1.1-1.7-1Zm0 3.2 1.4-1.4-1.3 1.4Zm2.2 0 1.4 1.4-1.4-1.5Zm.6-1.5h2-2Zm-1.8 4v-2c-.4 0-.8-.2-1-.5l-1.5 1.5-1.3 1.4c1 1 2.4 1.6 3.8 1.6v-2Zm-2.5-1 1.4-1.5c-.3-.3-.5-.7-.5-1.5h-2l-2 .1a6 6 0 0 0 1.8 4.3l1.3-1.4Zm-1.1-3h2c0-.7.1-1.3.5-1.8L92 27.5l-1.6-1.2a6.8 6.8 0 0 0-1.3 4.3h2Zm.9-3 1.6 1.2c.4-.5.9-.8 1.7-.8v-4c-2 0-3.7.8-4.9 2.4l1.6 1.2Zm3.3-1.6v2c.4 0 .6.1.9.4l1.6-1.2 1.6-1.1a5 5 0 0 0-4.1-2.1v2Zm2.5 1.2-1.6 1.2c.2.4.4.9.4 1.6h4c0-1.4-.3-2.8-1.2-4l-1.6 1.2Zm.8 2.8h-2a3 3 0 0 1-.5 2l1.5 1.1 1.6 1.2a7 7 0 0 0 1.4-4.3h-2Zm-1 3.1-1.5-1.2c-.4.5-.8.7-1.4.7v4c1.9 0 3.4-.8 4.5-2.3L97.6 33Zm-2.4-5v-2c-1.4 0-2.5.7-3.2 1.8l1.7 1 1.7 1.1h-.2v-2Zm-1.5.8-1.7-1c-.5.8-.8 1.8-.8 2.8h4c0-.4 0-.6.2-.7l-1.7-1Zm-.5 1.8h-2c0 1 .3 2 1.2 2.9l1.3-1.5 1.4-1.4a.5.5 0 0 1 .1.1v-.1h-2Zm.5 1.4-1.3 1.5c.6.6 1.4 1 2.3 1v-4a.6.6 0 0 1 .4 0L93.8 32Zm1 .4v2c1 0 1.9-.3 2.6-1L95.9 32l-1.3-1.4a.4.4 0 0 1 .1 0v2ZM96 32l1.4 1.5a4 4 0 0 0 1.2-2.8l-2-.1-2-.1v.1l1.4 1.4Zm.6-1.4h2c0-.9 0-2-.5-2.8-.2-.5-.6-1-1.1-1.3-.6-.3-1.1-.4-1.7-.4v4l-.4-.2a.8.8 0 0 1-.3-.3V30.4h2Zm8.5 3.1 2-.2-2 .2Zm-.2-1.6 2-.3-2 .3Zm0-2.3-2-.1h2Zm0-1 2 .2-2-.2Zm-1.8-.2-1.5-1.2 1.5 1.2Zm-1 2.2-2-.6v.4l2 .2Zm-.1.7 2 .2-2-.2Zm0 1.3-2 .2 2-.2Zm-.3 1.4-1.3-1.5 1.3 1.5Zm-1.5 0 1.4-1.4L100 34Zm-.4-1.4-2 .2 2-.2Zm.2-5.5h-2v.1l2-.1Zm.2-1.4 1.4 1.4-1.4-1.4Zm2 .9-2 .1 2-.1Zm0 0-2 .3.3 4.2 3-3-1.4-1.4Zm4.4.2 1.8-.9-1.8.9Zm.4 3h2-2Zm.1 2-2 .4 2-.3Zm-1 2.7v-2h.3a1.1 1.1 0 0 1 .7.8l-2 .2-2 .2a3 3 0 0 0 1 2 3 3 0 0 0 2 .8v-2Zm-1-1 2-.3-.2-1.6-2 .3-2 .3.2 1.6 2-.3Zm-.2-1.6 2-.3-.1-1.3h-4l.1 1.9 2-.3Zm-.1-1.6h2v-.6l-2-.1-2-.1v.8h2Zm0-.7 2 .1V29h-4v.6h2Zm0-.7h2v-.1l-2-.2-2-.1v.4h2Zm0-.3 2 .1v-.5h-4v.3l2 .1Zm0-.4h2c0-.3 0-.8-.2-1.4-.2-.3-.4-.6-.8-.8-.4-.3-.9-.4-1.3-.4v4a1.7 1.7 0 0 1-1.5-1c-.2-.2-.1-.5-.1-.4h2Zm-.3-.6v-2c-1.3 0-2.3.8-3 1.6l1.6 1.2 1.6 1.3.1-.1h-.3v-2Zm-1.4.8-1.5-1.2A8 8 0 0 0 100 30l2 .6 1.9.5.7-1.4-1.6-1.3Zm-1 2.2-2-.2-.1.6 2 .3 2 .2v-.8l-2-.1Zm-.1.7-2-.3v1h4v-.5l-2-.2Zm0 .6h-2v1l2-.3 2-.2V32h-2Zm0 .7-2 .3v.3h4v-.8l-2 .2Zm0 .7h-2l.1-.4c0-.2.2-.3.3-.4l1.3 1.5 1.4 1.5a3 3 0 0 0 1-2.2h-2Zm-.3.7-1.4-1.4a1 1 0 0 1 .6-.3v4a3 3 0 0 0 2.2-.9l-1.4-1.4Zm-.8.3v-2h.3l.4.3L100 34l-1.4 1.4a3 3 0 0 0 2.1.9v-2Zm-.7-.3 1.3-1.5a1 1 0 0 1 .4.8h-4a3 3 0 0 0 .9 2.1l1.4-1.4Zm-.3-.7h2v-1l-2 .3-2 .2v.5h2Zm0-.7 2-.2-.1-.5h-4v1l2-.3Zm-.1-.7h2v-1.9l-2-.1-2-.2V32h2Zm0-2 2 .1.2-2.2h-4l-.1 1.9 2 .2Zm.2-2.1h2V27l-2 .2-2 .1v.6h2Zm0-.7 2-.1v-.6h-4v.8l2-.1Zm0-.7h2l-.2.4-.2.3-1.4-1.4-1.3-1.5a3 3 0 0 0-1 2.2h2Zm.2-.7 1.4 1.4a1 1 0 0 1-.6.3v-4c-.7 0-1.5.2-2 .8l1.2 1.5Zm.8-.3v2h-.2l-.5-.4c-.2-.3-.2-.5-.2-.3l2-.1 2-.1c0-.7-.2-1.5-.8-2.2a3 3 0 0 0-2.3-1v2Zm1.1 1.2-2 .2 2-.1 2-.2-2 .1Zm0 0 1.5 1.5c.4-.5.8-.6 1-.6v-4c-1.6 0-2.9.7-3.9 1.8l1.4 1.4Zm2.4-1v2h.3l1.8-.8 1.8-.9a4 4 0 0 0-3.9-2.4v2Zm2 1.2-1.7.8c0 .2.2.6.2 1.6h4c0-1.1-.2-2.3-.6-3.3l-1.8.9Zm.5 2.4h-2v.6h4v-.6h-2Zm0 .6h-2v.5h4V30h-2Zm0 .5h-2l.1 2 2-.4 2-.4-.2-1.2h-2Zm.1 1.6-2 .3.2 1.2h4l-.2-1.9-2 .4Zm.2 1.5h-2v-.4l.3-.3 1.4 1.5 1.3 1.4a3 3 0 0 0 1-2.2h-2Zm-.3.8-1.4-1.5a1 1 0 0 1 .6-.2v4a3 3 0 0 0 2.1-.9l-1.3-1.4Zm7-.6 1.4-1.4-1-1-1.2.6.8 1.8Zm-1.3.5-.6-1.9.6 2Zm-3.7-.8-1.5 1.4 1.5-1.4Zm.4-6.2 1.4 1.4-1.4-1.4Zm5-1-.7 1.9.8-1.8Zm1 1.7-1.4-1.3-.3.4-.1.5 1.9.4Zm0 .8-2-.2 2 .2Zm.1 3.3-1.9.6 2-.6Zm.4.8-1.8.8 1.8-.8Zm0 1.4-1.3-1.5 1.3 1.5Zm-2.7-5.6-2-.3 2 .3Zm.2-.7 2 .3.2-1.5-1.3-.6-1 1.8Zm-.3-.1-.7 1.8h.1l.6-1.9Zm-2 .7 1.4 1.4-1.5-1.4Zm-.5 3.5-1.6 1.2 1.6-1.2Zm2 .4.7 1.9-.7-1.9Zm.9-.5 1.2 1.6.9-.7-.2-1.1-2 .2Zm1.7 2.6v-2a1.6 1.6 0 0 1 .5.1h.1-.1l-.3-.3-1.4 1.4-1.4 1.4 1 .9c.2.2.8.5 1.6.5v-2Zm-1.2-.8-.8-1.8-1 .4.5 2 .6 1.9 1.6-.7-.9-1.8Zm-1.3.5-.6-1.9-.2.1s-.1 0 0 0v4c.5 0 1 0 1.5-.2l-.7-2Zm-.9.2v-2c-.9 0-1.2-.2-1.4-.3l-1.4 1.3-1.5 1.4a5.7 5.7 0 0 0 4.3 1.6v-2Zm-2.8-1 1.5-1.3c-.2-.2-.4-.6-.4-1.7h-4c0 1.6.3 3.2 1.4 4.4l1.5-1.4Zm-1-3h2c0-.7.3-1.2.8-1.8l-1.4-1.4-1.3-1.5a6.3 6.3 0 0 0-2 4.7h2Zm1.4-3.2 1.4 1.4c.6-.5 1.2-.8 2-.8v-4c-1.8 0-3.4.7-4.7 2l1.3 1.4Zm3.4-1.4v2c.1 0 .4 0 .9.3l.8-1.8.8-1.9c-.8-.3-1.7-.6-2.5-.6v2Zm1.7.5-.8 1.8.3.1-.2-.2-.1-.6h4c0-1.7-1.6-2.6-2.4-3l-.8 1.9Zm1.2 1.1h-2a1.2 1.2 0 0 1 .3-.8l1.5 1.3 1.5 1.3c.4-.5.7-1.1.7-1.8h-2Zm-.2.5-2-.4-.1 1 2 .2 2 .2v-.5l-2-.5Zm-.1.8-2-.1v1.2h4v-1h-2Zm0 1.1h-2c0 1 0 2 .2 2.8l2-.6 1.8-.6v-1.6h-2Zm.1 2.2-1.9.6.2.4.3.6 1.8-.8 1.8-.8-.2-.6v-.1h-.1l-1.9.7Zm.4.8-1.8.8v.3l.2.2V34a1.5 1.5 0 0 1 0-.3l-.1-.1h4l-.1-.7-.1-.3-.3-.6-1.8.8Zm.3.8h-2a1.1 1.1 0 0 1 .4-.9l1.3 1.5 1.3 1.6c.6-.6 1-1.4 1-2.2h-2Zm-.3.6-1.3-1.5a1 1 0 0 1 .6-.2v4a3 3 0 0 0 2-.8l-1.3-1.5Zm-2.7-5h2v-.4l-2-.2-2-.2v.8h2Zm0-.6 2 .2.1-.6-2-.3-2-.4v.8l2 .3Zm.2-.7.9-1.8-.7-.3-.5 2-.5 1.9h-.1l.9-1.8Zm-.3-.1.6-2h-.8v4a1.5 1.5 0 0 1-.5-.2l.7-1.9Zm-.2 0v-2c-1.3 0-2.5.5-3.3 1.4l1.4 1.3 1.5 1.4.4-.2v-2Zm-1.9.7-1.4-1.3c-.9.9-1.4 2-1.4 3.3h4c0-.2 0-.4.3-.6l-1.5-1.4Zm-.8 2h-2c0 .8.2 1.9.8 2.7l1.6-1.2L112 31s0 .1 0 0v-.4h-2Zm.4 1.5-1.6 1.2c.7 1 1.7 1.4 2.7 1.4v-4h.2l.3.3-1.6 1.1Zm1.1.6v2c.6 0 1.1-.1 1.6-.3l-.7-1.9-.7-1.9h-.2v2Zm1-.2.6 1.9 1.4-.8-1.2-1.6-1.3-1.5a1 1 0 0 1-.3.1l.7 2Zm.8-.5 2-.2-.3-2.5h-4l.3 3 2-.3Z" mask="url(#a)"/><path fill="#fff" d="M14 57.7a8 8 0 0 1 8-8h9a8 8 0 0 1 8 8v9a8 8 0 0 1-8 8h-9a8 8 0 0 1-8-8v-9Z"/><path fill="#000" d="M28.8 50.2h-.4l-.3.1-.4.3-.3.2-1.2.3H24l-.4-.1-.8-.1-.3-.1h-.4l-.1-.1-.6.4h-.8l-.8-.2h-.2l-.3.1-.4.2a4 4 0 0 0-.5.2l-.4.2-.3.2-.7.4-.3.2-.3.2v.4l-.2.4c0 .4-.1.7-.3 1l-.2.4-.1.3-.2.5-.2.7-.3 1-.2.3-.2.2.2.3.2.4c.3.4.3 1 .2 1.4v.4l-.1.4-.2.8-.2.8.2.4.1.4c.3.5.3 1.1 0 1.6l-.2.4-.2.3.2.2.2.4c.2.5.3 1 .1 1.5v.4l-.2.4.2.3.2.3.4 1v.5l.2.3.3.2.3.2.7.4.3.2.4.2c.3.2.6.5.8.9l.3.3.2.4.4.2h.4l.4.1h1.8l.7.1h.1l.4-.3.4-.2a2 2 0 0 1 1-.2h.4l.4.1h.4l.4.1h1.4l.8-.2c.5-.1 1 0 1.4.2l.4.2.3.2.2-.1.4-.2c.4-.2.9-.2 1.3-.2h.4l.4.1h.8l.4-.1.2-.4.2-.4.5-.8.3-.3.2-.3.4-.5.2-.3.5-.9.2-.3.2-.3.3-.5.2-.4.1-.3-.1-.4-.2-.3-.2-1.1V65c-.1-.5 0-1 .4-1.3l.2-.4.3-.4-.1-.2-.2-.4v-1.6l.1-.4v-.1l-.4-.8c-.2-.3-.3-.7-.3-1.1v-1.5l-.1-.3v-1.1l-.1-.4v-.4l-.1-.5-.2-.4v-.4l-.4-.2-.4-.2-.7-.4-.3-.2-.4-.2a3 3 0 0 1-.8-.8l-.3-.3v-.2h-.3l-.4.2h-1.3l-.8-.3-.7-.2-.3-.1-.4-.1h-.8ZM21 48.6l.3-.2.4-.2c.3 0 .6 0 .9.2l.2.4.4.1.7.1h.4l.4.1h1.6l.4-.3.3-.2 1.2-.4h.8c.4 0 .7 0 1 .2h.4l.4.2.8.2.3.1.4.2h.2l.9-.3h.9c.4.2.6.4.8.7l.3.3.2.4.3.2.3.2.3.2.6.4.4.2.4.1c.5.3.8.7 1 1.2v.4l.2.4.1 1v.4l.1.3v1.1l.1.4v1.5s0 .2.2.3l.3.8c.3.4.4.9.3 1.4l-.2.7v.3l.1.3.2.4c.2.6 0 1.2-.3 1.6l-.5.8v1.3l.2.4.2.4c.2.5.2 1 0 1.5l-.2.3-.1.4a6 6 0 0 1-.5.8l-.2.3-.2.3-.4.7-.2.3-.2.3-.5.6-.2.3-.3.3-.3.5-.2.3-.2.4c-.2.5-.7.9-1.2 1l-.8.2h-1.6l-.4-.1h-.2l-.3.2-.4.2c-.5.2-1.1.2-1.6-.1l-.8-.4h-.8l-.9.2h-1.7l-.8-.2-.4.2-.4.2c-.4.2-.9.3-1.3.3h-.8l-.6-.1h-.8l-1.1-.1-.8-.3a2 2 0 0 1-1.1-.9l-.3-.3-.2-.4-.2-.2-.6-.4-.6-.4-.4-.2-.4-.2c-.5-.2-.8-.7-.9-1.2v-.4l-.2-.4-.1-.4-.4-.7c-.3-.5-.4-1-.2-1.5l.1-.4.1-.4-.2-.4-.2-.4c-.3-.5-.3-1.2 0-1.7l.2-.4.2-.3-.1-.3-.2-.3a2 2 0 0 1-.2-1.5l.3-.7.1-.7.1-.4v-.4l-.1-.4-.3-.4c-.2-.5-.3-1.1 0-1.7l.2-.3.2-.4.2-.5v-.4l.2-.3.3-1 .3-.6.2-.4v-.4l.1-.5.1-.4.8-.9.4-.2.3-.2.7-.4.3-.2.4-.2.8-.4.3-.1.4-.2c.4-.1.9-.2 1.3 0h.5l.2-.2.1-.2Z"/><path stroke="#000" stroke-linecap="round" stroke-width="2" d="M21 66.8c1 3 4.3 5 5.2 3.2 1.6-2.8 5.2-14.6 5.8-16.3"/><path fill="#fff" d="M14 57.7a8 8 0 0 1 8-8h9a8 8 0 0 1 8 8v9a8 8 0 0 1-8 8h-9a8 8 0 0 1-8-8v-9Z"/><path fill="#000" d="M28.8 50.2h-.4l-.3.1-.4.3-.3.2-1.2.3H24l-.4-.1-.8-.1-.3-.1h-.4l-.1-.1-.6.4h-.8l-.8-.2h-.2l-.3.1-.4.2a4 4 0 0 0-.5.2l-.4.2-.3.2-.7.4-.3.2-.3.2v.4l-.2.4c0 .4-.1.7-.3 1l-.2.4-.1.3-.2.5-.2.7-.3 1-.2.3-.2.2.2.3.2.4c.3.4.3 1 .2 1.4v.4l-.1.4-.2.8-.2.8.2.4.1.4c.3.5.3 1.1 0 1.6l-.2.4-.2.3.2.2.2.4c.2.5.3 1 .1 1.5v.4l-.2.4.2.3.2.3.4 1v.5l.2.3.3.2.3.2.7.4.3.2.4.2c.3.2.6.5.8.9l.3.3.2.4.4.2h.4l.4.1h1.8l.7.1h.1l.4-.3.4-.2a2 2 0 0 1 1-.2h.4l.4.1h.4l.4.1h1.4l.8-.2c.5-.1 1 0 1.4.2l.4.2.3.2.2-.1.4-.2c.4-.2.9-.2 1.3-.2h.4l.4.1h.8l.4-.1.2-.4.2-.4.5-.8.3-.3.2-.3.4-.5.2-.3.5-.9.2-.3.2-.3.3-.5.2-.4.1-.3-.1-.4-.2-.3-.2-1.1V65c-.1-.5 0-1 .4-1.3l.2-.4.3-.4-.1-.2-.2-.4v-1.6l.1-.4v-.1l-.4-.8c-.2-.3-.3-.7-.3-1.1v-1.5l-.1-.3v-1.1l-.1-.4v-.4l-.1-.5-.2-.4v-.4l-.4-.2-.4-.2-.7-.4-.3-.2-.4-.2a3 3 0 0 1-.8-.8l-.3-.3v-.2h-.3l-.4.2h-1.3l-.8-.3-.7-.2-.3-.1-.4-.1h-.8ZM21 48.6l.3-.2.4-.2c.3 0 .6 0 .9.2l.2.4.4.1.7.1h.4l.4.1h1.6l.4-.3.3-.2 1.2-.4h.8c.4 0 .7 0 1 .2h.4l.4.2.8.2.3.1.4.2h.2l.9-.3h.9c.4.2.6.4.8.7l.3.3.2.4.3.2.3.2.3.2.6.4.4.2.4.1c.5.3.8.7 1 1.2v.4l.2.4.1 1v.4l.1.3v1.1l.1.4v1.5s0 .2.2.3l.3.8c.3.4.4.9.3 1.4l-.2.7v.3l.1.3.2.4c.2.6 0 1.2-.3 1.6l-.5.8v1.3l.2.4.2.4c.2.5.2 1 0 1.5l-.2.3-.1.4a6 6 0 0 1-.5.8l-.2.3-.2.3-.4.7-.2.3-.2.3-.5.6-.2.3-.3.3-.3.5-.2.3-.2.4c-.2.5-.7.9-1.2 1l-.8.2h-1.6l-.4-.1h-.2l-.3.2-.4.2c-.5.2-1.1.2-1.6-.1l-.8-.4h-.8l-.9.2h-1.7l-.8-.2-.4.2-.4.2c-.4.2-.9.3-1.3.3h-.8l-.6-.1h-.8l-1.1-.1-.8-.3a2 2 0 0 1-1.1-.9l-.3-.3-.2-.4-.2-.2-.6-.4-.6-.4-.4-.2-.4-.2c-.5-.2-.8-.7-.9-1.2v-.4l-.2-.4-.1-.4-.4-.7c-.3-.5-.4-1-.2-1.5l.1-.4.1-.4-.2-.4-.2-.4c-.3-.5-.3-1.2 0-1.7l.2-.4.2-.3-.1-.3-.2-.3a2 2 0 0 1-.2-1.5l.3-.7.1-.7.1-.4v-.4l-.1-.4-.3-.4c-.2-.5-.3-1.1 0-1.7l.2-.3.2-.4.2-.5v-.4l.2-.3.3-1 .3-.6.2-.4v-.4l.1-.5.1-.4.8-.9.4-.2.3-.2.7-.4.3-.2.4-.2.8-.4.3-.1.4-.2c.4-.1.9-.2 1.3 0h.5l.2-.2.1-.2Z"/><path stroke="#000" stroke-linecap="round" stroke-width="2" d="M21 66.8c1 3 4.3 5 5.2 3.2 1.6-2.8 5.2-14.6 5.8-16.3"/></svg>