<svg xmlns="http://www.w3.org/2000/svg" width="134" height="100" fill="none"><rect width="130" height="96" x="2" y="2" fill="#EEE" rx="13"/><rect width="130" height="96" x="2" y="2" stroke="#000" stroke-width="4" rx="13"/><mask id="a" width="42" height="26" x="12" y="18" fill="#000" maskUnits="userSpaceOnUse"><path fill="#fff" d="M12 18h42v26H12z"/><path d="M22.981 36.717c-.827 0-1.288-.407-1.382-1.222-.095-.692-.189-1.389-.283-2.088-.1-.74-.151-1.437-.151-2.09 0-.174.01-.474.03-.897.027-.424.04-.724.04-.899 0-.047.007-.164.02-.353.014-.195.02-.353.02-.474 0-.558-.144-.838-.433-.838-.62 0-1.228.364-1.827 1.09-.592.72-1.056 1.635-1.392 2.745-.014.222-.044.518-.091.888a6.71 6.71 0 0 0-.06.888c0 .189.02.474.06.858.047.377.07.66.07.847 0 .384-.134.7-.403.95-.263.255-.596.383-1 .383-.403 0-.736-.128-.998-.384a1.251 1.251 0 0 1-.394-.949c0-.188-.02-.47-.06-.847a9.04 9.04 0 0 1-.06-.858c0-.646.046-1.544.14-2.694.095-1.15.142-2.049.142-2.695 0-.201-.014-.5-.04-.898-.02-.403-.03-.703-.03-.898 0-.377.134-.686.403-.928a1.452 1.452 0 0 1 1.009-.373c.881 0 1.352.528 1.413 1.584l.01.11c.982-.988 2.018-1.483 3.108-1.483 1.271 0 2.15.532 2.634 1.595.323.713.484 1.78.484 3.199v.716c-.007.31-.01.528-.01.656 0 .525.07 1.2.212 2.028.148.828.222 1.5.222 2.019 0 .376-.135.69-.404.938-.269.249-.602.373-.999.373Zm7.024-.122c-1.245 0-2.315-.427-3.21-1.281-.982-.935-1.496-2.183-1.543-3.744-.047-1.487.36-2.812 1.22-3.976 1.023-1.372 2.446-2.059 4.27-2.059 1.345 0 2.414.539 3.208 1.615.713.969 1.07 2.17 1.07 3.603 0 1.56-.417 2.892-1.251 3.996-.936 1.23-2.19 1.846-3.764 1.846Zm.605-8.395c-.827-.007-1.48.37-1.958 1.13-.403.639-.605 1.386-.605 2.24 0 .807.229 1.426.686 1.857.363.343.787.514 1.272.514.585 0 1.093-.198 1.523-.595.491-.464.754-1.093.787-1.887.088-2.166-.48-3.253-1.705-3.26Zm15.47 1.786c-.283 1.58-.451 3.249-.505 5.005-.067 2.173-.43 3.75-1.09 4.733-.88 1.312-2.442 1.967-4.682 1.967-2.617 0-3.925-.518-3.925-1.554 0-.37.117-.669.353-.898.235-.228.545-.343.928-.343.303 0 .737.057 1.302.172a7.68 7.68 0 0 0 1.504.171c1.002 0 1.742-.306 2.22-.918.457-.599.726-1.55.807-2.856-.343.35-.73.612-1.16.787a3.72 3.72 0 0 1-1.413.263c-1.34 0-2.429-.434-3.27-1.302-.834-.875-1.251-1.991-1.251-3.35 0-1.83.558-3.31 1.675-4.44 1.157-1.171 2.721-1.756 4.692-1.756.633 0 1.178.077 1.635.232.458.154.828.39 1.11.706.855.101 1.282.606 1.282 1.514 0 .45-.071 1.073-.212 1.867Zm-3.916-2.019c-1.136 0-2.021.374-2.654 1.12-.565.68-.847 1.561-.847 2.644 0 .801.151 1.403.454 1.807.303.403.757.605 1.362.605.552 0 1.107-.32 1.665-.958.525-.606.824-1.205.898-1.797.128-.646.276-1.651.444-3.017a3.12 3.12 0 0 0-.676-.303 2.222 2.222 0 0 0-.646-.1Zm7.841-4.097c-.43 0-.804-.144-1.12-.434a1.382 1.382 0 0 1-.474-1.059c0-.417.158-.77.474-1.06.316-.289.69-.433 1.12-.433.43 0 .8.144 1.11.433.316.29.474.643.474 1.06 0 .417-.158.77-.474 1.06-.31.289-.68.433-1.11.433Zm.858 7.397c0 .384.01 1 .03 1.847.027.848.04 1.463.04 1.847 0 .39-.13.713-.393.968-.262.25-.595.374-.999.374s-.737-.125-.999-.374a1.296 1.296 0 0 1-.394-.968c0-.384-.013-1-.04-1.847-.02-.848-.03-1.463-.03-1.847 0-.598.033-1.349.1-2.25.068-.901.102-1.652.102-2.25 0-.39.13-.71.393-.96.262-.255.596-.383 1-.383.403 0 .736.128.998.384.263.249.394.568.394.959 0 .598-.034 1.349-.101 2.25s-.101 1.652-.101 2.25Z"/></mask><path fill="#000" d="M22.981 36.717c-.827 0-1.288-.407-1.382-1.222-.095-.692-.189-1.389-.283-2.088-.1-.74-.151-1.437-.151-2.09 0-.174.01-.474.03-.897.027-.424.04-.724.04-.899 0-.047.007-.164.02-.353.014-.195.02-.353.02-.474 0-.558-.144-.838-.433-.838-.62 0-1.228.364-1.827 1.09-.592.72-1.056 1.635-1.392 2.745-.014.222-.044.518-.091.888a6.71 6.71 0 0 0-.06.888c0 .189.02.474.06.858.047.377.07.66.07.847 0 .384-.134.7-.403.95-.263.255-.596.383-1 .383-.403 0-.736-.128-.998-.384a1.251 1.251 0 0 1-.394-.949c0-.188-.02-.47-.06-.847a9.04 9.04 0 0 1-.06-.858c0-.646.046-1.544.14-2.694.095-1.15.142-2.049.142-2.695 0-.201-.014-.5-.04-.898-.02-.403-.03-.703-.03-.898 0-.377.134-.686.403-.928a1.452 1.452 0 0 1 1.009-.373c.881 0 1.352.528 1.413 1.584l.01.11c.982-.988 2.018-1.483 3.108-1.483 1.271 0 2.15.532 2.634 1.595.323.713.484 1.78.484 3.199v.716c-.007.31-.01.528-.01.656 0 .525.07 1.2.212 2.028.148.828.222 1.5.222 2.019 0 .376-.135.69-.404.938-.269.249-.602.373-.999.373Zm7.024-.122c-1.245 0-2.315-.427-3.21-1.281-.982-.935-1.496-2.183-1.543-3.744-.047-1.487.36-2.812 1.22-3.976 1.023-1.372 2.446-2.059 4.27-2.059 1.345 0 2.414.539 3.208 1.615.713.969 1.07 2.17 1.07 3.603 0 1.56-.417 2.892-1.251 3.996-.936 1.23-2.19 1.846-3.764 1.846Zm.605-8.395c-.827-.007-1.48.37-1.958 1.13-.403.639-.605 1.386-.605 2.24 0 .807.229 1.426.686 1.857.363.343.787.514 1.272.514.585 0 1.093-.198 1.523-.595.491-.464.754-1.093.787-1.887.088-2.166-.48-3.253-1.705-3.26Zm15.47 1.786c-.283 1.58-.451 3.249-.505 5.005-.067 2.173-.43 3.75-1.09 4.733-.88 1.312-2.442 1.967-4.682 1.967-2.617 0-3.925-.518-3.925-1.554 0-.37.117-.669.353-.898.235-.228.545-.343.928-.343.303 0 .737.057 1.302.172a7.68 7.68 0 0 0 1.504.171c1.002 0 1.742-.306 2.22-.918.457-.599.726-1.55.807-2.856-.343.35-.73.612-1.16.787a3.72 3.72 0 0 1-1.413.263c-1.34 0-2.429-.434-3.27-1.302-.834-.875-1.251-1.991-1.251-3.35 0-1.83.558-3.31 1.675-4.44 1.157-1.171 2.721-1.756 4.692-1.756.633 0 1.178.077 1.635.232.458.154.828.39 1.11.706.855.101 1.282.606 1.282 1.514 0 .45-.071 1.073-.212 1.867Zm-3.916-2.019c-1.136 0-2.021.374-2.654 1.12-.565.68-.847 1.561-.847 2.644 0 .801.151 1.403.454 1.807.303.403.757.605 1.362.605.552 0 1.107-.32 1.665-.958.525-.606.824-1.205.898-1.797.128-.646.276-1.651.444-3.017a3.12 3.12 0 0 0-.676-.303 2.222 2.222 0 0 0-.646-.1Zm7.841-4.097c-.43 0-.804-.144-1.12-.434a1.382 1.382 0 0 1-.474-1.059c0-.417.158-.77.474-1.06.316-.289.69-.433 1.12-.433.43 0 .8.144 1.11.433.316.29.474.643.474 1.06 0 .417-.158.77-.474 1.06-.31.289-.68.433-1.11.433Zm.858 7.397c0 .384.01 1 .03 1.847.027.848.04 1.463.04 1.847 0 .39-.13.713-.393.968-.262.25-.595.374-.999.374s-.737-.125-.999-.374a1.296 1.296 0 0 1-.394-.968c0-.384-.013-1-.04-1.847-.02-.848-.03-1.463-.03-1.847 0-.598.033-1.349.1-2.25.068-.901.102-1.652.102-2.25 0-.39.13-.71.393-.96.262-.255.596-.383 1-.383.403 0 .736.128.998.384.263.249.394.568.394.959 0 .598-.034 1.349-.101 2.25s-.101 1.652-.101 2.25Z"/><path fill="#E7E7E7" d="m21.599 35.495 1.986-.23-.002-.02-.003-.019-1.981.27Zm-.283-2.088 1.982-.267v-.004l-1.982.27Zm-.121-2.987-1.996-.127-.001.016v.015l1.997.096Zm.06-1.252 1.995.143v-.005l-1.994-.138Zm-2.24-.222-1.543-1.272-.001.002 1.544 1.27Zm-1.392 2.745-1.914-.58-.068.225-.015.234 1.997.121Zm-.091.888 1.982.264.002-.011-1.984-.253Zm0 1.746-1.99.21.003.019.002.019 1.985-.248Zm-.333 1.796-1.358-1.468-.02.017-.018.019L17.2 36.12Zm-1.998 0 1.396-1.432-.01-.01-.01-.009-1.376 1.451Zm-.454-1.796-1.99.21.001.003 1.989-.213Zm.181-7.145-1.997.1v.018l.002.018 1.995-.136Zm.374-1.826 1.338 1.486.002-.001-1.34-1.485Zm2.422 1.21-1.997.115.002.034.003.033 1.992-.181Zm.01.112-1.992.18.388 4.272 3.023-3.043-1.42-1.41Zm5.742.11 1.822-.824-.002-.005-1.82.83Zm.484 3.916 2 .044v-.044h-2Zm.202 2.684-1.972.337.002.008.001.008 1.969-.353Zm-.182 2.957-1.358-1.468 1.358 1.468Zm-.999.373v-2c-.097 0 .112-.02.358.196.248.22.256.436.246.354l-1.986.23-1.987.23c.085.73.37 1.558 1.079 2.184.706.624 1.56.807 2.29.807v-2Zm-1.382-1.22 1.981-.27-.282-2.086-1.982.267-1.982.266.283 2.092 1.982-.27Zm-.283-2.09 1.982-.27a13.507 13.507 0 0 1-.133-1.818h-4c0 .754.058 1.542.17 2.359l1.981-.27Zm-.151-2.088h2c0-.123.008-.38.028-.803l-1.998-.095-1.998-.096c-.02.424-.032.766-.032.994h2Zm.03-.898 1.996.126a18 18 0 0 0 .044-1.024h-4c0 .104-.01.347-.036.77l1.996.128Zm.04-.899h2v.034l.002-.043a15.2 15.2 0 0 1 .014-.201l-1.995-.143-1.995-.142a8.107 8.107 0 0 0-.026.495h2Zm.02-.353 1.996.138c.015-.217.025-.426.025-.612h-4c0 .056-.004.163-.016.337l1.995.137Zm.02-.474h2c0-.387-.038-.982-.332-1.548a2.342 2.342 0 0 0-2.101-1.29v4a1.658 1.658 0 0 1-1.45-.87c-.15-.287-.116-.463-.116-.292h2Zm-.433-.838v-2c-1.473 0-2.592.874-3.37 1.818l1.543 1.272 1.544 1.272c.198-.24.332-.34.387-.372.04-.024-.003.01-.104.01v-2Zm-1.827 1.09-1.544-1.27c-.795.966-1.368 2.133-1.762 3.435l1.914.58 1.914.58c.278-.917.634-1.581 1.023-2.054l-1.545-1.27Zm-1.392 2.745-1.997-.12c-.01.158-.033.404-.078.756l1.984.252 1.984.253c.05-.39.086-.735.103-1.02l-1.996-.12Zm-.091.888-1.983-.264c-.051.385-.078.77-.078 1.152h4c0-.196.014-.404.043-.624l-1.982-.264Zm-.06.888h-2c0 .298.03.67.07 1.067l1.99-.21 1.989-.209a7.52 7.52 0 0 1-.05-.648h-2Zm.06.858-1.985.248c.045.36.055.54.055.6h4c0-.318-.036-.702-.085-1.096l-1.985.248Zm.07.847h-2c0-.046.01-.141.06-.258a.773.773 0 0 1 .179-.261l1.358 1.468 1.358 1.468a3.234 3.234 0 0 0 1.046-2.416h-2Zm-.403.95-1.396-1.433a.697.697 0 0 1 .233-.148.494.494 0 0 1 .164-.036v4c.867 0 1.72-.293 2.395-.951l-1.396-1.433Zm-1 .383v-2c.012 0 .075.002.165.036.094.037.175.091.233.148L15.2 36.12l-1.396 1.433c.676.658 1.528.95 2.395.95v-2Zm-.998-.384 1.376-1.45a.771.771 0 0 1 .23.502h-4c0 .895.33 1.748 1.017 2.399l1.377-1.45Zm-.394-.949h2c0-.299-.03-.668-.072-1.06l-1.988.213-1.989.213c.039.362.05.557.05.635h2Zm-.06-.847 1.989-.21c-.04-.37-.05-.57-.05-.648h-4c0 .298.03.67.072 1.067l1.989-.21Zm-.06-.858h2c0-.565.041-1.4.134-2.531l-1.994-.163-1.993-.163c-.096 1.17-.148 2.13-.148 2.857h2Zm.14-2.694 1.994.163c.096-1.17.148-2.13.148-2.858h-4c0 .565-.042 1.4-.135 2.532l1.994.163Zm.142-2.695h2c0-.271-.018-.625-.045-1.033l-1.996.135-1.995.136c.026.386.036.63.036.762h2Zm-.04-.898 1.997-.1c-.02-.397-.028-.655-.028-.798h-4c0 .248.012.589.033.998l1.997-.1Zm-.03-.898h2c0 .054-.012.158-.066.283a.808.808 0 0 1-.193.275l-1.338-1.486-1.338-1.487a3.192 3.192 0 0 0-1.066 2.415h2Zm.403-.928 1.34 1.485a.587.587 0 0 1-.331.142v-4a3.45 3.45 0 0 0-2.35.888l1.34 1.485Zm1.009-.373v2c.023 0-.037.003-.144-.039a.893.893 0 0 1-.335-.234c-.182-.204-.122-.32-.105-.029l1.997-.114 1.996-.115c-.043-.765-.25-1.672-.902-2.404-.705-.791-1.647-1.066-2.507-1.066v2Zm1.413 1.584-1.992.18.01.112 1.992-.181 1.991-.181-.01-.111-1.991.18Zm.01.11 1.419 1.41c.716-.721 1.27-.893 1.689-.893v-4c-1.76 0-3.28.818-4.527 2.074l1.419 1.41Zm3.108-1.483v2c.357 0 .516.074.576.11.049.03.138.096.238.314l1.82-.83 1.82-.829c-.386-.845-.977-1.575-1.806-2.077-.818-.495-1.734-.688-2.648-.688v2Zm2.634 1.595-1.822.825c.145.321.306 1.044.306 2.374h4c0-1.51-.162-2.92-.663-4.024l-1.821.825Zm.484 3.199h-2v.716h4v-.716h-2Zm0 .716-2-.043c-.006.31-.01.547-.01.7h4c0-.105.003-.304.01-.613l-2-.044Zm-.01.656h-2c0 .684.09 1.484.24 2.365l1.972-.337 1.971-.336c-.132-.774-.183-1.326-.183-1.692h-2Zm.212 2.028-1.969.352c.138.774.19 1.316.19 1.667h4c0-.686-.095-1.49-.252-2.37l-1.97.351Zm.222 2.019h-2c0-.055.01-.155.062-.273a.765.765 0 0 1 .176-.257l1.358 1.468 1.358 1.468a3.223 3.223 0 0 0 1.046-2.406h-2Zm-.404.938-1.358-1.468a.636.636 0 0 1 .206-.125.468.468 0 0 1 .153-.033v4c.855 0 1.686-.285 2.357-.906l-1.358-1.468Zm2.816-1.03 1.38-1.446-.001-.002-1.38 1.449Zm-1.544-3.743 1.999-.06v-.003l-2 .063Zm1.22-3.976L24.87 26.4l-.004.005 1.608 1.19Zm7.478-.444 1.61-1.186v-.001l-1.61 1.187Zm-.181 7.599 1.592 1.21.003-.004-1.595-1.206Zm-3.159-6.55-.016 2h.005l.011-2Zm-1.958 1.13 1.691 1.069.003-.004-1.694-1.064Zm.081 4.098 1.373-1.454-.002-.003-1.37 1.457Zm2.795-.081 1.356 1.47.01-.008.008-.008-1.374-1.454Zm.787-1.887 1.999.085v-.004l-1.999-.081Zm-2.31 5.136v-2c-.734 0-1.308-.23-1.828-.728l-1.381 1.447-1.382 1.446c1.27 1.212 2.835 1.835 4.59 1.835v-2Zm-3.21-1.281 1.38-1.449c-.543-.516-.89-1.235-.924-2.355l-2 .06-1.998.06c.06 2.001.742 3.779 2.163 5.132l1.38-1.448Zm-1.543-3.744 1.999-.063c-.034-1.05.244-1.932.83-2.723l-1.608-1.19-1.608-1.19c-1.137 1.537-1.673 3.306-1.612 5.23l1.999-.064Zm1.22-3.976 1.604 1.195c.618-.828 1.426-1.254 2.665-1.254v-4c-2.407 0-4.444.948-5.872 2.864l1.604 1.195Zm4.27-2.059v2c.714 0 1.184.24 1.599.802l1.61-1.187 1.609-1.187c-1.174-1.591-2.843-2.428-4.819-2.428v2Zm3.208 1.615-1.61 1.186c.414.563.68 1.326.68 2.417h4c0-1.776-.448-3.414-1.46-4.789l-1.61 1.186Zm1.07 3.603h-2c0 1.184-.308 2.078-.847 2.79l1.596 1.206 1.595 1.206c1.13-1.495 1.656-3.265 1.656-5.202h-2Zm-1.251 3.996-1.593-1.21c-.549.723-1.209 1.056-2.171 1.056v4c2.186 0 4.035-.897 5.356-2.637l-1.592-1.21Zm-3.159-6.55.016-2c-1.589-.012-2.858.78-3.667 2.067l1.693 1.064 1.694 1.064c.05-.08.09-.127.116-.152.024-.025.037-.033.038-.033l.007-.002a.356.356 0 0 1 .087-.008l.016-2Zm-1.958 1.13-1.69-1.067c-.632.999-.915 2.126-.915 3.308h4c0-.527.12-.893.296-1.172l-1.69-1.068Zm-.605 2.241h-2c0 1.193.35 2.404 1.315 3.313l1.371-1.456 1.37-1.457.002.002a.013.013 0 0 1 .002.002v-.001l-.003-.005a1.128 1.128 0 0 1-.057-.398h-2Zm.686 1.857L27.36 34.88a3.793 3.793 0 0 0 2.645 1.06v-4l.019.003a.268.268 0 0 1 .087.034c.007.004.005.004-.005-.005l-1.373 1.454Zm1.272.514v2c1.088 0 2.08-.387 2.879-1.125l-1.356-1.47-1.355-1.47a.252.252 0 0 1-.076.054c-.006.002-.03.011-.092.011v2Zm1.523-.595 1.374 1.454c.935-.884 1.36-2.04 1.412-3.256l-1.999-.085-1.998-.085c-.015.372-.116.474-.163.519l1.374 1.453Zm.787-1.887 1.999.08c.048-1.2-.06-2.437-.587-3.447a3.513 3.513 0 0 0-1.28-1.392 3.51 3.51 0 0 0-1.826-.5l-.011 2-.011 2c.004 0-.1-.003-.235-.085-.134-.082-.184-.173-.181-.168.01.018.059.127.097.382.037.252.055.596.037 1.05l1.998.08Zm13.765-1.473 1.969.351-1.97-.351Zm-.505 5.005 2 .062-2-.062Zm-1.09 4.733 1.66 1.115-1.66-1.115Zm-2.3-1.403 1.576 1.23.007-.008.006-.008-1.59-1.214Zm.807-2.856 1.996.124.331-5.353-3.755 3.829 1.428 1.4Zm-5.843-.252-1.447 1.38.005.006.006.006 1.436-1.392Zm.424-7.79-1.422-1.406 1.422 1.405Zm6.327-1.524-.64 1.894.64-1.894Zm1.11.706-1.491 1.333.504.565.752.088.235-1.986Zm-5.5 2.483-1.526-1.293-.006.007-.005.007 1.537 1.279Zm2.634 4.097L43.65 34.5l.006-.007-1.512-1.31Zm.898-1.797L41.08 31l-.013.07-.01.07 1.985.248Zm.444-3.017 1.985.245.16-1.303-1.13-.666-1.015 1.724Zm2.594 1.615-1.97-.352a36.451 36.451 0 0 0-.534 5.296l2 .06 1.998.062c.051-1.667.21-3.238.475-4.715l-1.97-.351Zm-.505 5.005-1.999-.062c-.064 2.066-.413 3.176-.751 3.68l1.66 1.115 1.66 1.114c.981-1.46 1.359-3.506 1.43-5.785l-2-.062Zm-1.09 4.733-1.66-1.116c-.369.55-1.147 1.083-3.022 1.083v4c2.606 0 4.949-.777 6.343-2.852l-1.66-1.115Zm-4.682 1.967v-2c-1.235 0-1.91-.13-2.208-.248-.132-.052-.058-.052.058.086a.98.98 0 0 1 .225.608h-4c0 .72.241 1.406.715 1.968.443.527 1.007.85 1.53 1.058 1.011.4 2.298.528 3.68.528v-2Zm-3.925-1.554h2a.658.658 0 0 1-.05.23.886.886 0 0 1-.204.307l-1.393-1.435-1.394-1.434c-.674.654-.96 1.497-.96 2.332h2Zm.353-.898 1.393 1.435a.846.846 0 0 1-.291.184.545.545 0 0 1-.174.038v-4c-.81 0-1.65.257-2.322.909l1.394 1.434Zm.928-.343v2c.1 0 .376.025.905.132l.397-1.96.397-1.96c-.601-.122-1.192-.212-1.699-.212v2Zm1.302.172-.397 1.96a9.665 9.665 0 0 0 1.9.211v-4c-.27 0-.633-.036-1.106-.132l-.397 1.96Zm1.504.171v2c1.423 0 2.834-.454 3.796-1.688l-1.576-1.23-1.577-1.23a.21.21 0 0 1-.101.07c-.075.032-.24.078-.542.078v2Zm2.22-.918 1.589 1.214c.818-1.07 1.125-2.502 1.214-3.946l-1.996-.124-1.996-.123c-.073 1.166-.303 1.638-.4 1.765l1.589 1.214Zm.807-2.856-1.428-1.4a1.42 1.42 0 0 1-.485.334l.752 1.853.753 1.853a5.416 5.416 0 0 0 1.836-1.24l-1.428-1.4Zm-1.16.787-.753-1.853c-.169.069-.381.116-.66.116v4c.743 0 1.473-.128 2.165-.41l-.753-1.853Zm-1.413.263v-2c-.862 0-1.412-.259-1.834-.694l-1.436 1.392-1.436 1.392c1.26 1.3 2.89 1.91 4.706 1.91v-2Zm-3.27-1.302 1.447-1.38c-.434-.456-.698-1.056-.698-1.97h-4c0 1.803.57 3.437 1.804 4.73l1.447-1.38Zm-1.251-3.35h2c0-1.39.407-2.336 1.098-3.035l-1.423-1.405-1.423-1.406c-1.543 1.562-2.252 3.576-2.252 5.846h2Zm1.675-4.44 1.422 1.405c.709-.716 1.72-1.161 3.27-1.161v-4c-2.392 0-4.509.725-6.114 2.35l1.422 1.405Zm4.692-1.756v2c.478 0 .796.06.994.126L43.9 25.9l.64-1.895c-.716-.242-1.488-.337-2.275-.337v2Zm1.635.232-.64 1.894c.176.06.237.12.259.145l1.491-1.333 1.491-1.332a4.543 4.543 0 0 0-1.96-1.269L43.9 25.9Zm1.11.706-.234 1.986c.043.005.012.008-.06-.026a.831.831 0 0 1-.271-.213c-.19-.224-.153-.39-.153-.233h4c0-.751-.178-1.624-.794-2.352-.63-.744-1.48-1.057-2.253-1.148l-.235 1.986Zm1.282 1.514h-2c0 .276-.047.763-.181 1.516l1.969.35 1.969.351c.148-.834.243-1.592.243-2.217h-2Zm-4.128-.152v-2c-1.619 0-3.104.558-4.18 1.828l1.526 1.293 1.527 1.292c.189-.223.473-.413 1.127-.413v-2Zm-2.654 1.12-1.537-1.278c-.927 1.114-1.31 2.481-1.31 3.922h4c0-.725.182-1.12.385-1.365l-1.538-1.278Zm-.847 2.644h-2c0 .998.179 2.107.854 3.007l1.6-1.2 1.6-1.2c.04.053.024.059-.001-.042a2.397 2.397 0 0 1-.053-.565h-2Zm.454 1.807-1.6 1.2c.758 1.01 1.869 1.405 2.962 1.405v-4c-.082 0-.06-.014.018.021a.584.584 0 0 1 .22.174l-1.6 1.2Zm1.362.605v2c1.38 0 2.438-.803 3.171-1.642l-1.506-1.316-1.506-1.316c-.178.204-.291.28-.327.301-.023.014.04-.027.168-.027v2Zm1.665-.958 1.512 1.31c.697-.805 1.233-1.76 1.37-2.859l-1.984-.248-1.984-.248c-.01.085-.073.328-.425.735l1.511 1.31Zm.898-1.797 1.962.389c.143-.722.298-1.788.467-3.161l-1.985-.245-1.985-.244c-.167 1.357-.308 2.303-.42 2.873l1.961.388Zm.444-3.017 1.014-1.724a5.126 5.126 0 0 0-1.11-.493l-.58 1.914-.58 1.914c.05.016.131.047.242.113l1.014-1.724Zm-.676-.303.58-1.914c-.389-.118-.8-.187-1.226-.187v4c-.008 0 .011-.001.066.015l.58-1.914Zm6.075-4.632-1.35 1.476 1.35-1.476Zm0-2.119-1.35-1.475 1.35 1.475Zm2.23 0-1.366 1.461.008.008.008.007 1.35-1.476Zm0 2.12-1.35-1.476-.008.007-.008.008 1.366 1.46Zm-.222 9.677-2 .047.001.008v.008l2-.063Zm-.353 2.815 1.377 1.451.01-.009.009-.01-1.396-1.432Zm-1.998 0-1.396 1.433.01.01.01.008 1.376-1.45Zm-.434-2.815-2 .047v.008l.001.008 2-.063Zm.565-7.306 1.377 1.45.01-.008.009-.01-1.396-1.432Zm1.998 0-1.395 1.432.009.01.01.009 1.376-1.451Zm-.666-1.938v-2c.013 0 .06.003.12.027a.37.37 0 0 1 .11.064l-1.35 1.476-1.35 1.475a3.603 3.603 0 0 0 2.47.958v-2Zm-1.12-.434 1.35-1.475c.022.02.076.078.12.177.045.1.056.188.056.239h-4a3.38 3.38 0 0 0 1.124 2.535l1.35-1.476Zm-.474-1.059h2c0 .05-.011.14-.056.24a.551.551 0 0 1-.12.176l-1.35-1.476-1.35-1.475a3.38 3.38 0 0 0-1.124 2.535h2Zm.474-1.06 1.35 1.476a.37.37 0 0 1-.11.064.359.359 0 0 1-.12.027v-4c-.928 0-1.783.33-2.47.958l1.35 1.475Zm1.12-.433v2a.383.383 0 0 1-.128-.03.416.416 0 0 1-.128-.076l1.366-1.46 1.366-1.462a3.568 3.568 0 0 0-2.476-.973v2Zm1.11.433-1.35 1.476a.551.551 0 0 1-.12-.177.608.608 0 0 1-.056-.239h4a3.38 3.38 0 0 0-1.124-2.535l-1.35 1.475Zm.474 1.06h-2c0-.05.012-.14.056-.24a.551.551 0 0 1 .12-.176l1.35 1.476 1.35 1.475a3.38 3.38 0 0 0 1.124-2.535h-2Zm-.474 1.06-1.366-1.462a.416.416 0 0 1 .128-.076.383.383 0 0 1 .128-.029v4c.929 0 1.79-.33 2.476-.972l-1.366-1.462Zm-.252 7.83h-2c0 .41.01 1.045.03 1.894l2-.047 2-.048c-.02-.846-.03-1.44-.03-1.799h-2Zm.03 1.847-1.999.063c.027.846.04 1.434.04 1.784h4c0-.418-.015-1.06-.042-1.91l-1.999.063Zm.04 1.847h-2a.734.734 0 0 1 .21-.464l1.397 1.432 1.396 1.433c.676-.659.998-1.51.998-2.401h-2Zm-.393.968-1.377-1.45a.693.693 0 0 1 .23-.143.468.468 0 0 1 .148-.033v4c.851 0 1.697-.28 2.376-.923l-1.377-1.45Zm-.999.374v-2c.005 0 .062.001.148.033.09.033.17.085.23.142l-1.377 1.451-1.377 1.451c.679.644 1.525.923 2.376.923v-2Zm-.999-.374 1.396-1.432a.735.735 0 0 1 .21.464h-4c0 .89.322 1.742.998 2.4l1.396-1.432Zm-.394-.968h2c0-.418-.014-1.06-.04-1.91l-2 .063-1.999.063c.027.846.04 1.434.04 1.784h2Zm-.04-1.847 2-.048c-.02-.846-.03-1.44-.03-1.799h-4c0 .41.01 1.045.03 1.894l2-.047Zm-.03-1.847h2c0-.53.03-1.227.095-2.101l-1.994-.15-1.995-.148a33.1 33.1 0 0 0-.106 2.4h2Zm.1-2.25 1.995.149c.07-.93.107-1.733.107-2.4h-4c0 .532-.03 1.228-.096 2.102l1.995.149Zm.102-2.25h2a.628.628 0 0 1-.052.227.78.78 0 0 1-.178.265l-1.377-1.451-1.376-1.451c-.694.659-1.017 1.519-1.017 2.41h2Zm.393-.96 1.396 1.433a.696.696 0 0 1-.233.148.496.496 0 0 1-.164.036v-4c-.867 0-1.72.293-2.395.951l1.396 1.433Zm1-.383v2a.496.496 0 0 1-.165-.037.696.696 0 0 1-.233-.147l1.396-1.432 1.396-1.433c-.675-.658-1.528-.95-2.395-.95v2Zm.998.384-1.376 1.45a.778.778 0 0 1-.179-.264.628.628 0 0 1-.051-.227h4c0-.891-.323-1.752-1.017-2.41l-1.377 1.45Zm.394.959h-2c0 .53-.03 1.227-.096 2.101l1.995.149 1.994.149c.07-.93.107-1.733.107-2.4h-2Zm-.101 2.25-1.995-.149a33.15 33.15 0 0 0-.106 2.4h4c0-.532.03-1.228.095-2.102l-1.994-.15Z" mask="url(#a)"/><path fill="#fff" d="M14 57.667a8 8 0 0 1 8-8h9a8 8 0 0 1 8 8v9a8 8 0 0 1-8 8h-9a8 8 0 0 1-8-8v-9Z"/><path fill="#000" d="m28.781 50.23-.375.015a.607.607 0 0 0-.281.094l-.375.219-.375.21c-.37.214-.78.346-1.219.36l-.375.016-.375.007c-.305.01-.61-.005-.914-.047l-.375-.046-.375-.055c-.269-.037-.544-.08-.812-.133l-.375-.078-.375-.07c-.028-.006-.055-.024-.086-.032-.15.153-.322.292-.547.368a1.618 1.618 0 0 1-.89.023l-.782-.187c-.068-.017-.108-.013-.14 0l-.36.148-.352.14a3.939 3.939 0 0 0-.546.266l-.329.196-.335.195-.672.398-.352.203-.297.172-.07.39-.078.423a3.656 3.656 0 0 1-.336 1.023l-.164.328-.172.328c-.076.15-.13.307-.172.47l-.188.718c-.08.313-.193.622-.343.922l-.188.367-.14.258.164.297.21.375c.236.43.33.921.227 1.43l-.078.374-.07.375a10.64 10.64 0 0 1-.203.829l-.22.75v.007c.002.005.002.017.009.032l.18.375.187.375c.27.561.23 1.165-.07 1.687l-.22.375-.155.25.148.258.21.375c.264.473.332 1.007.173 1.539l-.117.39-.11.344.18.297.21.336c.205.33.342.69.415 1.07l.078.399.063.328.312.172.36.203c.25.138.49.272.71.406l.313.188.312.195c.366.223.65.534.868.89l.226.368.227.36a.368.368 0 0 0 .03.046l.009.008.375.117.383.11c.142.043.283.068.43.062l.398-.016.39-.015c.308-.013.614-.008.914.023l.75.078c.022.003.07.005.164-.046l.375-.211.375-.204a2.094 2.094 0 0 1 1.07-.273l.391.055.375.078.375.086c.158.035.31.048.461.039l.375-.016.375-.023c.209-.013.423-.04.633-.078l.75-.141c.514-.095 1.004.02 1.43.266l.375.21.297.172.25-.117.36-.172a2.32 2.32 0 0 1 1.335-.203l.39.055.4.055c.143.02.284.015.429-.016l.398-.086.32-.078.196-.352.203-.382c.16-.306.345-.588.555-.836l.234-.274.234-.281c.132-.156.256-.317.368-.484l.203-.305.586-.89.195-.313.203-.313c.104-.163.197-.34.281-.531l.157-.36.14-.328-.148-.367-.149-.382a3.398 3.398 0 0 1-.25-1.07l-.023-.376-.016-.375c-.03-.522.145-.99.422-1.383l.266-.375.234-.336-.094-.265-.125-.375a2.407 2.407 0 0 1-.086-1.274l.07-.375.079-.375a.068.068 0 0 0 0-.023c-.002-.01-.005-.036-.024-.07l-.39-.75a2.704 2.704 0 0 1-.32-1.172l-.016-.735c-.007-.23-.023-.456-.04-.68l-.023-.359-.023-.351-.055-.742-.031-.383-.023-.39a2.734 2.734 0 0 0-.102-.563l-.117-.383-.11-.367-.351-.188-.36-.195a15.179 15.179 0 0 1-.726-.406l-.32-.196-.32-.187a2.94 2.94 0 0 1-.86-.813l-.25-.351-.11-.149-.195.047-.422.11a2.39 2.39 0 0 1-1.343-.024l-.72-.234c-.229-.075-.468-.147-.71-.22l-.375-.108-.375-.118a1.348 1.348 0 0 0-.43-.054l-.375.008Zm-7.672-1.602c.037-.047.124-.155.25-.25.062-.046.206-.153.422-.195.272-.053.614.003.883.25a.999.999 0 0 1 .258.398h.023l.375.078c.23.045.46.078.688.11l.375.054.375.047c.195.027.392.037.586.031l.75-.015a.635.635 0 0 0 .281-.102l.375-.21.375-.22c.37-.212.781-.345 1.219-.359l.375-.008.375-.015c.361-.012.722.036 1.07.14l.375.11.375.117c.257.076.512.154.758.234l.351.117.36.118c.029.01.094.018.226-.016l.86-.219.46-.054c.164.002.331.033.5.093.341.121.595.345.774.594l.25.344.258.351a.98.98 0 0 0 .273.274l.313.187.32.196c.194.116.406.231.633.351l.36.196.367.195c.474.252.816.657.968 1.18l.11.382.11.39c.093.323.155.648.179.977l.031.383.023.383.055.742.024.36.03.36c.019.25.033.507.04.765l.016.734c.002.072.024.17.093.305l.39.75c.225.43.313.916.212 1.414l-.156.75a.42.42 0 0 0 .023.226l.125.375.133.375c.206.604.061 1.185-.266 1.649l-.531.75a.492.492 0 0 0-.063.11c-.003.01 0 .011 0 .007l.047.75c.008.132.036.281.102.445l.156.375.156.383a1.923 1.923 0 0 1-.015 1.516l-.157.36-.156.35c-.123.28-.269.545-.43.798l-.203.32-.195.312c-.136.214-.277.42-.414.625l-.203.305-.195.297c-.154.23-.32.451-.5.664l-.235.281-.234.274a2.71 2.71 0 0 0-.32.484l-.196.375-.203.383a1.87 1.87 0 0 1-1.266.984l-.78.172a3.21 3.21 0 0 1-1.15.047l-.398-.063-.398-.054a.31.31 0 0 0-.188.031l-.359.172-.367.172a1.756 1.756 0 0 1-1.664-.078l-.75-.438c-.034-.019-.055-.021-.063-.023l-.75.14c-.29.054-.584.084-.875.102l-.75.047a3.66 3.66 0 0 1-1.03-.086l-.75-.172-.009.008c-.008.003-.022.006-.039.015l-.375.211-.375.204a2.262 2.262 0 0 1-1.336.289l-.375-.04-.383-.039c-.2-.02-.41-.032-.625-.023l-.78.031c-.377.016-.75-.03-1.11-.14l-.75-.235a2.058 2.058 0 0 1-1.164-.914l-.219-.367-.227-.367a.656.656 0 0 0-.203-.227l-.625-.375c-.195-.118-.41-.24-.64-.367l-.36-.203-.36-.195a1.831 1.831 0 0 1-.937-1.282l-.07-.398-.078-.398a1.138 1.138 0 0 0-.148-.391l-.422-.672a1.853 1.853 0 0 1-.196-1.54l.118-.39.109-.382-.203-.376-.211-.374a1.711 1.711 0 0 1 .008-1.735l.218-.375.172-.297-.133-.273-.18-.375a2.022 2.022 0 0 1-.132-1.461l.219-.75c.065-.224.119-.45.164-.672l.078-.375.07-.375v-.008c-.002-.008-.005-.03-.023-.062l-.203-.375-.211-.375a1.762 1.762 0 0 1-.031-1.672l.18-.367.187-.368a2.6 2.6 0 0 0 .195-.523l.094-.352.094-.359c.078-.309.19-.607.335-.89l.329-.657c.06-.116.12-.264.156-.46l.07-.423.078-.422.11-.39c.15-.377.414-.694.789-.914l.343-.203.352-.203.672-.399.328-.195.336-.195c.264-.156.536-.293.82-.407l.352-.14.36-.141c.439-.175.9-.203 1.35-.094l.391.094.086.023.157-.25c.038-.06.085-.126.132-.187Z"/><path stroke="#000" stroke-linecap="round" stroke-width="2" d="M21 66.804c1.057 2.939 4.264 4.936 5.226 3.241C27.85 67.187 31.43 55.387 32 53.667"/><path fill="#000" d="M71.184 0c.023.604.07 1.205.141 1.805.298 2.487.392 4.976.283 7.466-.106 2.49.036 4.962.428 7.416a5.35 5.35 0 0 0-.203.428l-.037.037a.524.524 0 0 0-.075.19.414.414 0 0 0-.015.122l-.042.149c-.44 1.569-.86 3.141-1.261 4.717a29.5 29.5 0 0 0-.8 4.773.436.436 0 0 0 .141.326c.01.01.021.022.033.032-.095.994-.27 1.98-.523 2.959a98.957 98.957 0 0 0-1.859 8.89c-.477 2.958-1.042 5.9-1.694 8.825a28.754 28.754 0 0 0-.565 9.034 31.532 31.532 0 0 0 2.1 8.727c.21.527.456 1.034.738 1.521 1.468 2.519 2.245 5.218 2.33 8.1a56.496 56.496 0 0 1-.452 8.922 57.79 57.79 0 0 0-.457 8.988A33.65 33.65 0 0 0 70.23 100h.955c-.107-.454-.206-.91-.296-1.368-.54-2.741-.718-5.579-.532-8.513.182-2.866.431-5.724.748-8.574.114-1.01.207-2.025.278-3.042a.123.123 0 0 0 .018-.019 29.706 29.706 0 0 1 .052-.107.168.168 0 0 1 .07-.098c.211-.142.437-.254.679-.334.7-.236 1.421-.33 2.165-.284a9.55 9.55 0 0 1 2.306.433.962.962 0 0 0 .108-.042.504.504 0 0 0 .08-.06 1.101 1.101 0 0 0 .08-.126l.02-.056c.002-.019.005-.037.009-.056a5.792 5.792 0 0 0-.278-.907 4.836 4.836 0 0 1-.316-1.238c.41.388.96.625 1.653.712a4.028 4.028 0 0 0 2.395-.684c.242-.158.435-.356.58-.595.376-.62.578-1.307.606-2.061.035-.868.06-1.735.076-2.6a75.03 75.03 0 0 0-.104-5.313c-.094-1.71-.212-3.42-.353-5.127a29.13 29.13 0 0 0-.32-2.554 22.09 22.09 0 0 1-.207-1.484 30.582 30.582 0 0 0-.664-3.88 16.281 16.281 0 0 0-.183-3.647c-.258-1.566-.523-3.13-.796-4.694a78.593 78.593 0 0 1-.715-5.056.052.052 0 0 1 .005.014 52.608 52.608 0 0 1-.325-4.717 44.46 44.46 0 0 0-.203-3.36c-.15-1.565-.315-3.128-.494-4.688a.35.35 0 0 0-.023-.06.213.213 0 0 0-.029-.061.288.288 0 0 0-.032-.052l-.048-.046a.292.292 0 0 0-.051-.033.22.22 0 0 0-.061-.027.361.361 0 0 0-.062-.024h-.066a.456.456 0 0 0-.066.005.2.2 0 0 0-.06.018.355.355 0 0 0-.062.024.75.75 0 0 0-.052.037l-.047.047a.283.283 0 0 0-.033.05.516.516 0 0 0-.033.056.152.152 0 0 0-.004.066l.052.544h-.005a.346.346 0 0 0-.113.018.237.237 0 0 0-.057.024l-.056.028a.825.825 0 0 0-.184.288c-.58 1.46-1.2 2.904-1.859 4.331-.344.744-.689 1.487-1.035 2.228l-.047.019a.532.532 0 0 0-.043.019 2.057 2.057 0 0 0-.372.46c-.116.205-.243.4-.38.586a40.692 40.692 0 0 0-2.274 3.415 18.174 18.174 0 0 0-1.68 3.698c-.484 1.495-.924 3-1.323 4.517-.09.347-.177.695-.259 1.043a224.66 224.66 0 0 0 1.285-7.318 36.267 36.267 0 0 1 1.059-4.648 31.704 31.704 0 0 0 1.332-8.969.487.487 0 0 1-.019-.023c.016-.11.034-.22.052-.33a42.955 42.955 0 0 1 1.068-4.722c.26-.916.521-1.83.786-2.74a16.1 16.1 0 0 0 2.768 1.67c.904.43 1.826.816 2.767 1.158a2.879 2.879 0 0 0-.042.07c.097.806.305 1.6.621 2.382a804.985 804.985 0 0 1 1.314 3.252c.235.623.456 1.248.663 1.875a22.351 22.351 0 0 0 2.862 5.703 45.854 45.854 0 0 0 3.61 4.554c-.037.04-.072.084-.104.13a3.4 3.4 0 0 0-.09.14c-.002.003-.005.005-.009.005a4.018 4.018 0 0 0-.386 1.386 26.578 26.578 0 0 0-.042 4.498c.057.751.132 1.498.226 2.243.088.698.104 1.392.047 2.084a97.307 97.307 0 0 1-1.148 8.802c-.085.477-.123.75-.113.818-.088.428-.168.86-.24 1.294-.217 1.287-.41 2.577-.58 3.87a169.862 169.862 0 0 0-.442 3.657c-.178.89-.332 1.784-.46 2.684a287.29 287.29 0 0 1-1.017 6.522c-.343 2.04-.658 4.084-.947 6.131a1.34 1.34 0 0 0-.108.451 4.523 4.523 0 0 1-.094.647c-.037.162-.07.323-.099.484a.473.473 0 0 0-.273.228.382.382 0 0 0-.028.144 3.2 3.2 0 0 0 .08.754c.075.36.113.52.113.484.21 1.169.413 2.338.607 3.507.355 2.128.664 4.261.927 6.401.066.54.063 1.074-.01 1.6a6.722 6.722 0 0 0 .024 2.029h.923c.003-.457.01-.915.023-1.372a30.323 30.323 0 0 0-.465-6.141c-.37-2.06-.733-4.063-1.088-6.01v.004a.115.115 0 0 0-.004-.018l.004.004-.004-.01v-.008a5.887 5.887 0 0 0-.038-.205c-.04-.214-.075-.43-.104-.647a.713.713 0 0 0 .203-.386c.047-.251.092-.502.136-.753a9.74 9.74 0 0 0 .104-.721c.11-.363.196-.732.259-1.108.505-3.138.987-6.25 1.445-9.336.448-3.049.89-6.096 1.322-9.142.43-3.023.893-6.041 1.389-9.052.307-1.852.445-3.716.414-5.592-.047-3.011-.032-6.024.047-9.039a17.17 17.17 0 0 1 .146-.54c.031-.102.075-.197.132-.283a.042.042 0 0 1 .028-.024.868.868 0 0 1 .056-.028.509.509 0 0 0 .26-.088l.013-.014c.035 0 .07-.002.104-.005h.207l.165.103.17.102c.056.034.114.067.173.098l.094.177.104.186.113.195c.06.251.125.5.198.749.16.546.24 1.101.24 1.665v1.712c-.032.124-.062.25-.09.377-.04.205-.064.413-.07.624-.007.21-.011.423-.015.637-.087.282-.134.569-.14.86-.01.475-.053.945-.128 1.41-.069.431-.05.862.057 1.293a16.29 16.29 0 0 0-.174 2.624 33.565 33.565 0 0 0 1.365 8.997 80.019 80.019 0 0 1 2.023 8.644 806.36 806.36 0 0 0 1.563 8.592c.402 2.146.684 4.294.847 6.443a26.242 26.242 0 0 0-.72 3.508 32.958 32.958 0 0 0-.306 3.726c-.016.57-.025.932-.028 1.084-.05.338-.088.679-.113 1.023-.07.934-.058 1.867.033 2.8.061.654.094 1.307.099 1.96a.453.453 0 0 0-.18.31v.066c0 .062.017.12.048.172.034.06.058.121.07.186.007.064.011.127.015.191h.927c.095-1.013.117-2.034.066-3.061-.154-3.182.058-6.34.635-9.476.217-1.188.312-2.382.287-3.582a17.714 17.714 0 0 0-.306-2.898 239.104 239.104 0 0 1-1.52-9.016 70.065 70.065 0 0 0-1.892-8.774 61.268 61.268 0 0 1-1.308-5.592 37.537 37.537 0 0 1-.584-8.666c.094-.84.194-1.677.301-2.508.2-1.572.248-3.148.141-4.726-.044-.635-.195-1.193-.451-1.675a.658.658 0 0 0 .117-.13 371.523 371.523 0 0 1 3.356-4.652 15.352 15.352 0 0 0 2.076-3.899 28.33 28.33 0 0 0 1.675-8.764h.005a13.654 13.654 0 0 0 3.732-2.763c.951-1 1.966-1.928 3.046-2.782.02 0 .041-.001.061-.005.057.18.122.36.193.54a49.885 49.885 0 0 1 1.247 3.582c.343 1.111.603 2.24.781 3.386l-.004.005a.94.94 0 0 0-.08.088c.059 1.737.284 3.473.673 5.206.244 1.098.494 2.196.748 3.294.251 1.087.476 2.179.678 3.275l-.005.01a.881.881 0 0 0-.08.134c.152.682.305 1.366.461 2.051.056.359.11.717.16 1.075a.436.436 0 0 0 .09.163.31.31 0 0 0 .047.051l.103.447c.157.685.331 1.367.523 2.047.361 1.302.66 2.653.899 4.052 0 .39.014.78.042 1.167l.014.228c-.031-.195-.061-.39-.089-.586a22.185 22.185 0 0 0-1.144-4.573 14.251 14.251 0 0 0-.96-2.098 62.354 62.354 0 0 0-2.391-3.922c-.2-.3-.401-.602-.603-.902-.22-.704-.445-1.408-.673-2.112a.276.276 0 0 0-.033-.037.353.353 0 0 0-.065-.066.536.536 0 0 0-.127-.065l-.048-.009h-.098a1.758 1.758 0 0 0-.052.01c-.016.005-.032.012-.047.018a.192.192 0 0 0-.043.023 1.385 1.385 0 0 1-.08.056l-.028.037a.489.489 0 0 0-.028.042.106.106 0 0 0-.019.042.446.446 0 0 0-.023.074 17.626 17.626 0 0 1-1.813-3.628 21.929 21.929 0 0 1-1.115-4.56l-.019-.046a.32.32 0 0 0-.019-.042l-.028-.037a.276.276 0 0 0-.033-.037.13.13 0 0 0-.037-.033 1.252 1.252 0 0 1-.038-.027.612.612 0 0 0-.137-.047.31.31 0 0 0-.103 0l-.047.01-.047.018a.612.612 0 0 0-.043.019l-.037.027a.122.122 0 0 0-.038.033.276.276 0 0 0-.033.037l-.028.037a.224.224 0 0 1-.019.028l-.028.014a.78.78 0 0 0-.052.037l-.047.047a.246.246 0 0 0-.033.051.408.408 0 0 0-.033.056 16.038 16.038 0 0 1-.292 3.005 31.843 31.843 0 0 0-.56 4.652 470.708 470.708 0 0 1-.25 4.699 61.463 61.463 0 0 1-.451 4.68l-.63 4.666c-.208 1.554-.421 3.107-.641 4.661a81.993 81.993 0 0 1-.781 4.62 47.003 47.003 0 0 0-.678 4.67c-.144 1.55-.304 3.1-.48 4.648a21.546 21.546 0 0 0-.141 2.293 30.67 30.67 0 0 0 .315 4.643c.107.738.352 1.431.734 2.08.546.927 1.334 1.444 2.363 1.553a.867.867 0 0 0 .235-.023 2.068 2.068 0 0 0 .433-.14 1.376 1.376 0 0 0 .175-.097l-.024.009c.028-.013.058-.025.09-.037l.084-.038a.651.651 0 0 1 .052-.023l.047-.019c.022-.015.042-.03.061-.046.097-.09.196-.177.297-.26.088-.081.183-.151.287-.21.035-.02.069-.042.103-.065l.019.014a.44.44 0 0 0 .057.023l.056.01a.46.46 0 0 0 .113-.005.751.751 0 0 0 .113-.028.509.509 0 0 0 .146-.116.177.177 0 0 1 0 .032c-.041.403-.061.81-.061 1.219a.88.88 0 0 0-.085.335.8.8 0 0 1-.038.214l-.023.023a.512.512 0 0 1-.038.042.491.491 0 0 1-.028.042.257.257 0 0 1-.024.046.569.569 0 0 0-.033.15c0 .034.004.068.01.102a.53.53 0 0 0 .019.107 1.056 1.056 0 0 0 .244.312.47.47 0 0 0 .198.102c.179-.003.353-.039.523-.107.373-.15.848-.236 1.426-.26a9.565 9.565 0 0 1 1.948.115 8.97 8.97 0 0 0 .551.172c.138.038.278.07.419.098a.732.732 0 0 1 .085.056l.094.056a.84.84 0 0 0 .103.056.322.322 0 0 0 .052.005l.052.009a.148.148 0 0 0 .033-.01 54.017 54.017 0 0 0-.038 4.694c.075 2.19.185 4.378.33 6.564.053.788.131 1.573.235 2.354a23.55 23.55 0 0 1-.268 7.932h.894c.051-.26.098-.523.141-.786.091-.555.144-1.107.16-1.656a73.112 73.112 0 0 0-.372-9.565 51.254 51.254 0 0 1-.259-6.685 61.09 61.09 0 0 1 .871-8.713c.063-.372.16-.732.292-1.08a69.159 69.159 0 0 0 2.513-8.117c.684-2.825.979-5.694.885-8.606a.098.098 0 0 0 .033-.028.144.144 0 0 0 .033-.033.491.491 0 0 0 .028-.042.589.589 0 0 0 .061-.325 6.707 6.707 0 0 0-.207-1.177c-.002-.106-.004-.212-.004-.317a45.73 45.73 0 0 0-.904-8.964 87.815 87.815 0 0 0-1.374-5.773c-.027-.238-.05-.477-.071-.717a35.31 35.31 0 0 0-1.087-6.173 53.437 53.437 0 0 1-1.28-6.196.384.384 0 0 0 .113-.135.721.721 0 0 0 .056-.107 24.166 24.166 0 0 1-.202-1.294 17.396 17.396 0 0 0-.899-3.712 57.275 57.275 0 0 0-1.459-3.633.298.298 0 0 0-.052-.033l-.061-.028c.449-1.49.569-3.043.357-4.656a98.715 98.715 0 0 0-.663-4.345 20.543 20.543 0 0 1-.01-7.104h-.87c-.076.362-.145.728-.208 1.098a17.276 17.276 0 0 0 .391 7.648c.686 2.476.706 4.945.061 7.406-.142.07-.279.156-.409.26a33.799 33.799 0 0 0-3.276 2.964 12.263 12.263 0 0 1-3.968 2.73.51.51 0 0 0-.037.042 1.382 1.382 0 0 0-.094.2.705.705 0 0 0 0 .117c0 .096.03.183.089.26.063.08.144.135.245.163.052-.005.104-.01.155-.019-.015.143-.029.285-.042.428-.05.555-.094.906-.132 1.052a26.151 26.151 0 0 1-1.685 6.894 13.121 13.121 0 0 1-.786 1.637 68.242 68.242 0 0 1-2.142 3.513 30.974 30.974 0 0 1-2.104 2.86 3.836 3.836 0 0 0-.894-.678 1.258 1.258 0 0 0-.099-.014 8.784 8.784 0 0 0-.494.004 1.564 1.564 0 0 0-.141.01 14.355 14.355 0 0 0-1.026-1.21 22.165 22.165 0 0 1-2.89-3.782 32.833 32.833 0 0 1-2.909-6.187 26.153 26.153 0 0 0-.33-.917 75.762 75.762 0 0 0-.23-.558l-.085-.21c-.078-.18-.15-.359-.216-.539-.264-.692-.52-1.385-.767-2.08-.22-.611-.432-1.219-.636-1.823a.436.436 0 0 0 .155-.154.697.697 0 0 0 .056-.214.667.667 0 0 0-.037-.218 2.168 2.168 0 0 0-.908-.572 19.116 19.116 0 0 1-3.045-1.35 29.564 29.564 0 0 1-2.278-1.39l.117-.4a.227.227 0 0 0 .02-.033l.028-.093a.373.373 0 0 0 .014-.08l.047-.157-.02-.075a.482.482 0 0 0-.05-.107.404.404 0 0 0-.072-.093 3.982 3.982 0 0 0-.028-.028 50.863 50.863 0 0 1-.376-7.368c.015-.794.022-1.588.019-2.382A52.111 52.111 0 0 0 72.064 0h-.88Zm2.457 34.518a160.92 160.92 0 0 0 1.595-3.517c.515-1.179 1.02-2.357 1.516-3.535l.348 3.484c.088.884.143 1.77.165 2.66a62.568 62.568 0 0 0 .339 5.118 85.28 85.28 0 0 0 .565 4.182c.241 1.514.486 3.026.734 4.536.122.735.223 1.473.301 2.214.06.599.107 1.2.141 1.8.05.913.146 1.824.287 2.736.255 1.669.492 3.34.711 5.015.22 1.678.37 3.362.452 5.052.082 1.706.136 3.413.165 5.122.031 1.7-.094 3.388-.377 5.066-.913 1.058-2.02 1.352-3.323.884a.504.504 0 0 1-.282-.228 8.787 8.787 0 0 1-1.026-2.796 11.396 11.396 0 0 1-.16-1.116 26.242 26.242 0 0 0-.165-1.345.49.49 0 0 0 .028-.042.548.548 0 0 0 .02-.042l.018-.046a.531.531 0 0 1 .014-.06.474.474 0 0 0-.023-.112 1.836 1.836 0 0 1-.08-.34c-.063-.44-.105-.884-.127-1.33-.02-.478-.007-.952.037-1.424a.258.258 0 0 0-.014-.046.164.164 0 0 0-.118-.149.63.63 0 0 0-.085-.051.27.27 0 0 0-.046-.014.127.127 0 0 0-.047-.01.32.32 0 0 0-.151.01.271.271 0 0 0-.047.014.183.183 0 0 0-.043.023l-.037.028a.353.353 0 0 0-.038.032.162.162 0 0 0-.033.033.488.488 0 0 0-.028.042c-.05.167-.086.341-.108.52a9.5 9.5 0 0 0-.052 1.494c.014.324.066.635.155.935v.06c.006.56.045 1.113.118 1.662a4.054 4.054 0 0 0-1.186-.47 3.02 3.02 0 0 0-1.412.014 5.15 5.15 0 0 0 .014-.526 8.485 8.485 0 0 0-1.224-4.154 13.223 13.223 0 0 1-1.285-2.88 15.803 15.803 0 0 1-.71-4.34c-.044-1.753.003-3.5.14-5.243.042-.527.076-1.055.104-1.582.093-1.663.259-3.32.5-4.968a.048.048 0 0 0 0-.019.017.017 0 0 0 .004-.01.367.367 0 0 0 .005-.027v.01c.096-.479.174-.96.235-1.447.188-1.467.497-2.91.927-4.327.217-.72.457-1.428.72-2.126a61.526 61.526 0 0 1 1.869-4.424Zm-2.231 2.884c.068-.093.136-.188.202-.284a35.08 35.08 0 0 0-2.066 7.206 54.82 54.82 0 0 0-.602 4.625c-.132 1.569-.267 3.138-.405 4.708a42.855 42.855 0 0 0-.123 5.661c.032.502.073 1.002.123 1.498a11.464 11.464 0 0 0 1.412 4.457c.405.72.744 1.37 1.017 1.954.69 1.457.834 2.949.432 4.475-.121.462-.251.92-.39 1.372a18.994 18.994 0 0 0-.56-2.028 35.248 35.248 0 0 0-1.605-3.96 29.101 29.101 0 0 1-1.563-3.986 3.396 3.396 0 0 0-.066-.405 28.362 28.362 0 0 1-.668-5.029c-.04-.983-.025-1.967.047-2.953.107-1.415.262-2.824.466-4.23.235-1.615.57-3.21 1.002-4.781a88.317 88.317 0 0 1 1.3-4.313 14.117 14.117 0 0 1 2.047-3.987Zm.847 33.909.005.005c.132.018.265.017.4-.005.427-.065.85-.039 1.27.079.427.121.804.338 1.13.651.019.01.038.017.057.024.072.324.155.646.25.967.051.178.097.356.136.535a.627.627 0 0 0-.02.023c-.008.013-.018.025-.027.038a.679.679 0 0 0-.024.041.929.929 0 0 0-.019.396c.076.471.134.946.174 1.424.044.567.175 1.12.391 1.656a6.184 6.184 0 0 0-.682-.14 9.277 9.277 0 0 0-2.382-.037 3.577 3.577 0 0 0-1.483.493c.022-1.056-.044-2.1-.197-3.13a.32.32 0 0 0 .047-.02.726.726 0 0 0 .052-.037l.047-.046a.289.289 0 0 0 .033-.051.509.509 0 0 0 .033-.056c.39-.9.66-1.837.81-2.81Zm28.259-40.356c.17-.92.3-1.843.391-2.768a24.222 24.222 0 0 0 1.718 4.466c.37.738.798 1.44 1.285 2.107.263.362.521.724.776 1.089l.235.711c.201.59.408 1.24.622 1.954.147.71.292 1.42.433 2.13.304 1.533.69 3.045 1.158 4.537.473 1.507.806 3.042.997 4.605.091.76.209 1.515.353 2.265.289 1.523.488 3.074.598 4.653a15.022 15.022 0 0 1-.4 4.624 12.13 12.13 0 0 1-1.948 4.228 11.717 11.717 0 0 0-1.798 3.727c-.009.012-.016.024-.024.037a.276.276 0 0 1-.033.037 2.35 2.35 0 0 0-.056.912c.004.03.007.062.009.093a1.21 1.21 0 0 0-.151-.014c-.335-.01-.67.014-1.002.07-.45.074-.889.17-1.318.288.061-.59.11-1.182.146-1.777a16.771 16.771 0 0 0-.17-3.647.687.687 0 0 0-.136-.098.478.478 0 0 0-.108-.042.617.617 0 0 0-.17.019.712.712 0 0 0-.108.046.517.517 0 0 0-.155.242v.06c.006.072.017.145.033.22.015.065.033.13.051.195 0 .388.004.775.01 1.163a30.523 30.523 0 0 1-.226 4.22c-.041.34-.075.683-.104 1.027-.074.86-.324 1.712-.748 2.559h-.019a.472.472 0 0 0-.066-.005h-.061c-.15.056-.292.13-.423.224-.126.093-.25.19-.372.293a2.68 2.68 0 0 0-.198.177l-.066.027-.141.066a2.754 2.754 0 0 0-.198.106l-.06.02a3.174 3.174 0 0 0-.15.047l-.166-.001a1.55 1.55 0 0 1-.17-.01.695.695 0 0 1-.113-.009.49.49 0 0 1-.07-.032c-.025-.01-.05-.02-.076-.028l-.056-.019a.263.263 0 0 1-.052-.023c-.006 0-.01-.002-.014-.005a4.29 4.29 0 0 1-1.28-1.517 2.966 2.966 0 0 1-.236-.632 19.236 19.236 0 0 1-.545-3.796 26.57 26.57 0 0 1 .202-4.601c.198-1.545.389-3.089.574-4.633.188-1.598.428-3.189.72-4.773.245-1.359.477-2.79.697-4.294.229-1.573.444-3.128.645-4.666.194-1.495.392-2.99.593-4.485.207-1.55.351-3.106.433-4.666.084-1.622.177-3.242.277-4.861.041-.62.118-1.234.231-1.842Zm4.707 4c.002.014.004.026.004.038a.092.092 0 0 0-.004-.024v-.014Zm1.026 3.22a28.09 28.09 0 0 1 1.779 3.136 18.745 18.745 0 0 1 1.525 4.572v-.005c.056.362.119.722.188 1.08.248 1.284.512 2.564.791 3.842.122.563.25 1.143.386 1.74.042 1.397.061 2.795.056 4.196a30.068 30.068 0 0 1-1.336 8.75c-.145.472-.22.746-.226.824a2.386 2.386 0 0 0-.01.084.36.36 0 0 1-.019.084 2.233 2.233 0 0 1-.056.204 23.496 23.496 0 0 0-2.316 7.453c-.053.391-.101.782-.146 1.172l-.084-.2c-.336-.803-.6-1.633-.791-2.489-.21-.94-.35-1.89-.419-2.852a.491.491 0 0 0 .071-.13l.009-.051a.267.267 0 0 0 0-.102l-.005-.028a18.354 18.354 0 0 1 2.109-4.154 11.141 11.141 0 0 0 1.492-3.155c.433-1.467.623-2.96.569-4.48a37.593 37.593 0 0 0-.437-4.61.276.276 0 0 1 .004.047 20.153 20.153 0 0 1-.433-2.82 21.258 21.258 0 0 0-.903-4.633 60.173 60.173 0 0 1-1.262-4.67 7.959 7.959 0 0 1-.136-.8 12.485 12.485 0 0 0-.4-2.005Zm-3.554 33.183c.305-.029.609-.07.913-.126.32-.06.64-.116.96-.172l.062.009c.062.012.124.026.183.042.045.013.091.02.137.023.113.676.251 1.348.414 2.014.238.977.565 1.926.979 2.848 0 .018.001.037.005.055a1.102 1.102 0 0 0 .075.21l.038.046a.396.396 0 0 0 .042.037c.012.013.027.025.042.038a.674.674 0 0 0 .099.047l.057.008.047.01c-.037.416-.07.831-.099 1.246a.923.923 0 0 0-.179-.079c-.665-.22-1.4-.37-2.203-.45a7.294 7.294 0 0 0-2.508.176c.003-.109.012-.216.028-.321.014-.087.026-.174.037-.26h.029l.042-.01a.149.149 0 0 0 .047-.018c.013-.01.025-.02.038-.028a.276.276 0 0 1 .033-.038.868.868 0 0 0 .033-.27 2.67 2.67 0 0 1 .099-.879c.091-.307.164-.618.221-.935a.091.091 0 0 0-.005-.028.335.335 0 0 0-.024-.055.13.13 0 0 0-.028-.038l-.033-.032a.247.247 0 0 0-.136-.014.176.176 0 0 0-.043.014l-.037.018a1.56 1.56 0 0 1-.033.047c.003-.035.007-.07.009-.107l-.009-.047-.019-.046c-.006-.016-.013-.03-.019-.042a.775.775 0 0 0-.056-.074.355.355 0 0 0-.038-.033.133.133 0 0 0-.038-.028l-.004-.004c.056-.194.102-.392.136-.596.106-.64.197-1.282.273-1.926.051.004.101 0 .151-.014a.34.34 0 0 0 .15-.093l.132-.126Zm-.089 3.358a.168.168 0 0 0-.108.037.598.598 0 0 0-.118.308c-.025.306-.043.613-.052.92a2.88 2.88 0 0 0 .113.903.427.427 0 0 0 .047.033.177.177 0 0 0 .113.018.164.164 0 0 0 .122-.07.664.664 0 0 0 .038-.334 3.615 3.615 0 0 1-.042-.805c.015-.248.035-.47.061-.665l.005-.02a2.717 2.717 0 0 0 .018-.153.284.284 0 0 0-.014-.055.164.164 0 0 0-.028-.047.185.185 0 0 0-.075-.056.133.133 0 0 0-.08-.014Zm.866-.079c-.006-.012-.013-.026-.019-.042a.276.276 0 0 0-.033-.037.175.175 0 0 0-.038-.028.166.166 0 0 0-.042-.023.086.086 0 0 1-.024-.005.157.157 0 0 0-.075.01.168.168 0 0 0-.061.032.14.14 0 0 0-.052.051.781.781 0 0 0-.037.275c.012.263.02.527.023.79.003.264.031.526.085.787a.183.183 0 0 1 .009.023l.028.037c.01.013.021.023.033.033a.613.613 0 0 0 .09.042h.023a.22.22 0 0 0 .076-.014.269.269 0 0 0 .056-.042.203.203 0 0 0 .043-.06.602.602 0 0 0 .004-.247 5.058 5.058 0 0 1-.07-.786 42.88 42.88 0 0 0-.019-.796Zm.734.07a.082.082 0 0 1-.005-.023.185.185 0 0 0-.009-.024.076.076 0 0 1-.014-.018l-.019-.019a.125.125 0 0 0-.024-.018.154.154 0 0 0-.023-.019.92.92 0 0 1-.028-.01.155.155 0 0 0-.085-.004.143.143 0 0 0-.08.033.247.247 0 0 0-.057.055.144.144 0 0 0-.023.093c.006.072.014.145.023.22l.029.218v-.023l.004.032.005.033.01.07a17.79 17.79 0 0 1 .065.497c.019.168.03.337.033.507l.01.047a.131.131 0 0 0 .019.046.904.904 0 0 0 .028.037l.037.028c.016.007.03.014.043.024h.052a.25.25 0 0 0 .047-.005l.047-.019.037-.028.029-.037a.59.59 0 0 0 .033-.177c.035.394.194.72.475.977h.052c.05 0 .094-.017.132-.05a.18.18 0 0 0 .056-.131.617.617 0 0 0-.089-.237 1.778 1.778 0 0 1-.208-.489c0-.003-.002-.006-.004-.009a169.482 169.482 0 0 0-.066-1.693.155.155 0 0 0-.024-.042.13.13 0 0 0-.047-.056.167.167 0 0 0-.136-.037.192.192 0 0 0-.071.023.162.162 0 0 0-.066.07 1.45 1.45 0 0 0-.042.386c.009.389.02.778.033 1.168-.028-.28-.063-.559-.104-.838v.019a.04.04 0 0 0-.004-.019v-.01l.004.01c-.025-.177-.05-.363-.075-.558Zm1.125-.386a.27.27 0 0 0-.099 0 .166.166 0 0 0-.066.032.208.208 0 0 0-.047.056 1.299 1.299 0 0 0-.033.396c.028.403.075.804.141 1.204.066.413.171.804.316 1.173l.028.01a.145.145 0 0 0 .089.008.206.206 0 0 0 .142-.088.819.819 0 0 0-.005-.358 13.503 13.503 0 0 1-.231-1.15 7.951 7.951 0 0 1-.103-1.153.188.188 0 0 0-.024-.042l-.028-.037a.149.149 0 0 0-.038-.028.166.166 0 0 0-.042-.023Zm-7.352-3.522-.019-.01-.019-.008a.078.078 0 0 0-.023-.005.053.053 0 0 1-.024-.005h-.023a.937.937 0 0 0-.042.01.573.573 0 0 0-.043.018l-.037.028-.029.037a.673.673 0 0 0-.023.042.789.789 0 0 0 .122.386c.22.366.455.724.706 1.075.254.353.513.7.777 1.037a.27.27 0 0 0 .042.042.126.126 0 0 0 .042.028c.02.01.038.014.057.014a.346.346 0 0 0 .056.005.183.183 0 0 0 .099-.051.14.14 0 0 0 .038-.06.336.336 0 0 0 .019-.07.99.99 0 0 0-.222-.373 8.467 8.467 0 0 1-.786-1.014 11.286 11.286 0 0 1-.63-1.098.074.074 0 0 0-.02-.014.072.072 0 0 0-.018-.014Zm.33-2.754a.133.133 0 0 0-.047.056.886.886 0 0 0 .06.544c.24.559.506 1.104.8 1.638l.886 1.582a.06.06 0 0 0 .014.023c.009.012.02.023.033.032.015.01.03.017.042.024.016.006.031.009.047.009a.353.353 0 0 0 .057.005.721.721 0 0 0 .033-.01.156.156 0 0 0 .07-.046.253.253 0 0 0 .038-.06.18.18 0 0 0 .014-.07 2.872 2.872 0 0 0-.24-.503 30.164 30.164 0 0 1-.87-1.517 7.741 7.741 0 0 1-.65-1.628.06.06 0 0 0-.014-.023l-.029-.037-.037-.028a.63.63 0 0 0-.043-.023h-.028a.125.125 0 0 0-.075.004.218.218 0 0 0-.061.028Zm2.292 1.005a.252.252 0 0 0-.014-.051.966.966 0 0 0-.113-.19l-.123-.159a.46.46 0 0 0-.019-.028l-.014-.019-.014-.018-.005-.005a4.464 4.464 0 0 0-.249-.307 8.729 8.729 0 0 1-.937-1.298 5.342 5.342 0 0 1-.607-1.526.058.058 0 0 0-.014-.023.203.203 0 0 0-.047-.056.168.168 0 0 0-.061-.032.614.614 0 0 0-.075-.005.189.189 0 0 0-.071.023.251.251 0 0 0-.07.07.719.719 0 0 0 .018.414c.176.521.411 1.014.706 1.48a13.064 13.064 0 0 0 1.106 1.479l-.01-.01.024.028.015.02.023.032c.039.055.077.113.113.172a.51.51 0 0 0 .198.186.256.256 0 0 0 .084.004.167.167 0 0 0 .099-.055.185.185 0 0 0 .057-.126Zm-2.278-6.745a.943.943 0 0 0-.043.009.552.552 0 0 0-.042.019.15.15 0 0 0-.056.041.213.213 0 0 0-.034.066c.054.214.139.423.255.628.373.657.72 1.33 1.04 2.019.323.688.601 1.384.833 2.088.009.007.019.011.028.014a.152.152 0 0 0 .09.01.187.187 0 0 0 .136-.089 1.59 1.59 0 0 0-.127-.726 55.475 55.475 0 0 0-.875-1.981 29.292 29.292 0 0 0-1.06-2.043.075.075 0 0 0-.018-.014.249.249 0 0 0-.038-.023.338.338 0 0 0-.042-.014.243.243 0 0 1-.047-.004Zm1.303-.563a5.677 5.677 0 0 0-1.176-1.67h-.029l-.047.009a.147.147 0 0 0-.047.019l-.037.027a.343.343 0 0 1-.033.038.178.178 0 0 0-.01.023l-.009.046a.137.137 0 0 0 0 .052.26.26 0 0 0 .014.046l.028.047c.094.08.176.173.245.279.223.34.424.693.602 1.056.192.388.344.704.457.949l.094.223c.1.233.182.471.245.716s.099.495.108.75a.771.771 0 0 0 .01.046l.018.042c.01.015.019.028.029.037a.145.145 0 0 0 .037.028c.016.01.03.017.043.023a.32.32 0 0 0 .051.005.132.132 0 0 0 .048-.01.158.158 0 0 0 .047-.018.145.145 0 0 0 .037-.028.142.142 0 0 0 .033-.032 2.065 2.065 0 0 0-.052-.721 10.624 10.624 0 0 0-.706-1.982Zm2.989-12.803a.149.149 0 0 0-.047.019l-.038.028a.904.904 0 0 1-.028.037 93.04 93.04 0 0 0 .358 4.243c.058 1.194.137 2.389.235 3.582.099 1.2.19 2.4.273 3.596.014.668.016 1.336.005 2.005l.009.046c.004.016.01.03.019.042a.245.245 0 0 0 .066.07c.016.006.03.012.042.019a.332.332 0 0 0 .052.004.234.234 0 0 0 .047-.004l.047-.019a.355.355 0 0 0 .066-.065c.008-.239.013-.478.014-.717a.184.184 0 0 0 .052-.041c.041-.875.013-1.759-.085-2.652 0-.005-.002-.01-.004-.014a27.552 27.552 0 0 0-.033-.703 109.637 109.637 0 0 0-.377-4.75l-.023-.213a235.661 235.661 0 0 1-.151-3.852.666.666 0 0 0-.023-.042.21.21 0 0 0-.048-.056.16.16 0 0 0-.061-.032.253.253 0 0 1-.051-.005.244.244 0 0 0-.048.005l-.037-.405a.188.188 0 0 1-.024-.042l-.028-.037-.038-.028a.439.439 0 0 0-.042-.023h-.052a.25.25 0 0 0-.047.004Zm-1.666-4.066a.4.4 0 0 0-.024-.041.13.13 0 0 0-.047-.056.16.16 0 0 0-.061-.033h-.028a.113.113 0 0 0-.071.005.166.166 0 0 0-.066.032.202.202 0 0 0-.051.052 16.357 16.357 0 0 0-.061 2.693c.087 1.566.2 3.13.338 4.694.135 1.566.264 3.132.386 4.699.123 1.572.278 3.13.466 4.675a.189.189 0 0 0 .076.046c.05.016.097.011.141-.014a.17.17 0 0 0 .094-.097 93.786 93.786 0 0 0-.207-2.573 286.201 286.201 0 0 1-.405-4.698c-.125-1.551-.257-3.102-.395-4.652a32.073 32.073 0 0 1-.085-4.731Zm6.848 9.253a.207.207 0 0 0-.066.07 9.16 9.16 0 0 0-.037 1.024c.028 1.33.017 2.659-.033 3.986a36.19 36.19 0 0 1-.382 4.08.243.243 0 0 1-.004.047c0 .03.008.062.023.093.016.028.04.05.071.065.019.01.039.017.061.023a.174.174 0 0 0 .08 0 .65.65 0 0 0 .066-.032c.126-.267.201-.554.226-.861.119-1.35.198-2.701.235-4.057.044-1.442.057-2.884.038-4.326a.4.4 0 0 0-.024-.042.192.192 0 0 0-.047-.056.385.385 0 0 0-.061-.032h-.052a.161.161 0 0 0-.094.018Zm-3.036-2.842v.01a.015.015 0 0 0 0-.01Zm-.014-.098.005.005c0-.003-.002-.004-.005-.005Zm.607-.535a.185.185 0 0 0-.023-.042.146.146 0 0 0-.052-.046.992.992 0 0 0-.042-.023.209.209 0 0 0-.076-.005.184.184 0 0 0-.089.042.153.153 0 0 0-.047.051 9.03 9.03 0 0 0-.009 1.316 44.19 44.19 0 0 1-.452 9.486.109.109 0 0 1-.024.056.16.16 0 0 1-.037.042.056.056 0 0 0-.024.014.191.191 0 0 0-.056.111l-.038.363c-.013.14.034.25.141.33l.057.02a.192.192 0 0 0 .084 0 .17.17 0 0 0 .076-.038 15.81 15.81 0 0 0 .418-2.228c.179-1.517.272-3.038.278-4.564.01-1.622-.014-3.244-.07-4.866-.004-.006-.008-.013-.015-.019Zm.259-3.782.052.028c.019.01.038.016.057.019a.17.17 0 0 0 .056 0 .37.37 0 0 0 .057-.014.058.058 0 0 1 .023-.014.167.167 0 0 0 .052-.06.19.19 0 0 0 .019-.14 4.71 4.71 0 0 0-.575-.572 8.004 8.004 0 0 1-1.605-1.777 90.043 90.043 0 0 0-1.336-1.968l-.019-.01a.075.075 0 0 0-.019-.014.074.074 0 0 0-.023-.004.721.721 0 0 0-.033-.01h-.029a.093.093 0 0 0-.028.005l-.028.01a.186.186 0 0 0-.066.041.14.14 0 0 0-.042.056.196.196 0 0 0-.014.075c.109.217.233.432.371.646.437.68.909 1.332 1.417 1.959a12.802 12.802 0 0 0 1.713 1.744Zm-.113-2.633c.01 0 .018-.001.024-.005a.192.192 0 0 0 .071-.023.347.347 0 0 0 .037-.032.08.08 0 0 0 .028-.038.155.155 0 0 0 .024-.041 2.9 2.9 0 0 0-.32-.852 33.274 33.274 0 0 0-1.497-2.428 29.967 29.967 0 0 1-1.431-2.35.07.07 0 0 0-.018-.013.097.097 0 0 0-.019-.014.339.339 0 0 1-.019-.01l-.019-.009a.075.075 0 0 0-.024-.005.051.051 0 0 1-.023-.004h-.024a1.425 1.425 0 0 0-.042.01.433.433 0 0 0-.042.018l-.038.028-.028.037c-.01.015-.017.03-.024.042.063.27.178.525.344.767.524.77 1.04 1.545 1.548 2.326a16.553 16.553 0 0 1 1.323 2.48.136.136 0 0 0 .042.06l.038.028c.012.01.027.016.042.019l.047.01Zm-2.819-7.838a.578.578 0 0 0-.042-.02.257.257 0 0 0-.052-.013h-.057a.92.92 0 0 1-.028.01.186.186 0 0 0-.066.041.136.136 0 0 0-.042.06.18.18 0 0 0-.014.07c.094.202.216.393.367.572.474.568.955 1.131 1.445 1.69.489.557.951 1.133 1.384 1.725.012.016.025.03.037.042a.551.551 0 0 0 .047.033.376.376 0 0 0 .113.019.124.124 0 0 0 .029-.015.202.202 0 0 0 .108-.102.18.18 0 0 0 .014-.07 2.168 2.168 0 0 0-.381-.595 64.445 64.445 0 0 1-1.431-1.69c-.48-.582-.957-1.168-1.431-1.758ZM72.427 74.73a.215.215 0 0 0-.16.163c-.05.273-.082.549-.095.828-.012.31-.043.619-.094.926l.01.056a.134.134 0 0 0 .047.093.236.236 0 0 0 .08.05h.047c.025.004.05 0 .075-.008a.247.247 0 0 0 .061-.038.383.383 0 0 0 .08-.19c.032-.276.054-.552.066-.829.016-.297.052-.592.109-.883a.088.088 0 0 0-.005-.028.134.134 0 0 0-.033-.075.242.242 0 0 0-.052-.046.19.19 0 0 0-.07-.023.158.158 0 0 0-.066.004Zm-.485.019a.102.102 0 0 0-.047.07c-.05.21-.091.424-.123.641a2.354 2.354 0 0 1-.22.694l-.01.056a.188.188 0 0 0 .019.102.254.254 0 0 0 .07.07l.028.009c.029.01.058.012.09.01a.263.263 0 0 0 .07-.02.195.195 0 0 0 .09-.097c.09-.192.155-.392.193-.6.05-.267.099-.534.146-.8a.356.356 0 0 0-.014-.056.346.346 0 0 0-.061-.084.073.073 0 0 1-.02-.014.17.17 0 0 0-.103-.023.194.194 0 0 0-.108.042Zm.899-.377a.328.328 0 0 0-.076.186c-.03.282-.05.566-.056.851a6.72 6.72 0 0 1-.09.968l.01.056a.135.135 0 0 0 .047.093.17.17 0 0 0 .08.051c.016 0 .031.002.047.005.025 0 .05-.005.075-.014a.17.17 0 0 0 .062-.037.462.462 0 0 0 .084-.224c.035-.294.055-.589.061-.884a7.81 7.81 0 0 1 .076-.94.077.077 0 0 1-.005-.023.162.162 0 0 0-.033-.065.151.151 0 0 0-.052-.046.154.154 0 0 0-.07-.028.204.204 0 0 0-.076.005.226.226 0 0 0-.084.046Zm1.322.088a.167.167 0 0 0-.01-.023.166.166 0 0 0-.037-.06.143.143 0 0 0-.06-.038.169.169 0 0 0-.076-.018.141.141 0 0 0-.07.018.17.17 0 0 0-.076.056.373.373 0 0 0-.057.182 6.91 6.91 0 0 1-.075.805 11.3 11.3 0 0 1-.179.907l.01.055a.135.135 0 0 0 .047.094.17.17 0 0 0 .08.05h.047c.025.004.05 0 .075-.009a.17.17 0 0 0 .061-.037.231.231 0 0 0 .066-.12c.063-.29.118-.58.165-.875.05-.326.08-.655.09-.987Zm.725-.209a.152.152 0 0 1-.023-.019.21.21 0 0 0-.174 0 .211.211 0 0 0-.062.056.89.89 0 0 0-.075.289l-.094.823a5.968 5.968 0 0 0-.038.819c0 .01.002.017.005.023 0 .025.008.048.023.07.01.022.025.04.047.056.02.012.04.023.062.032h.028c.025.006.05.006.075 0a.216.216 0 0 0 .066-.032.147.147 0 0 0 .043-.056.419.419 0 0 0 .037-.195 3.1 3.1 0 0 1 .005-.452 6.68 6.68 0 0 0 .028-.353l.019-.15c.022-.133.042-.266.061-.4.022-.136.035-.272.038-.409a.18.18 0 0 0-.01-.023.172.172 0 0 0-.023-.046l-.014-.014a.15.15 0 0 1-.024-.019Zm.419-.251-.056-.01a.193.193 0 0 0-.095.024.153.153 0 0 0-.07.07.14.14 0 0 0-.024.093c.022.241.03.485.024.73a3.474 3.474 0 0 1-.123.842.25.25 0 0 0 .01.07.162.162 0 0 0 .047.084.17.17 0 0 0 .08.05h.052c.022.004.045 0 .07-.009a.247.247 0 0 0 .062-.037.23.23 0 0 0 .065-.116c.063-.264.1-.53.113-.8a4.43 4.43 0 0 0-.042-.889.212.212 0 0 0-.061-.075.76.76 0 0 0-.052-.027Zm4.848-2.638-.038-.028a.196.196 0 0 0-.085-.028.22.22 0 0 0-.089.019.665.665 0 0 0-.207.284c-.172.443-.372.874-.598 1.293l-.734 1.368a.21.21 0 0 0-.014.074c0 .031.008.06.023.089a.158.158 0 0 0 .1.083.134.134 0 0 0 .084.01.19.19 0 0 0 .07-.024c.092-.09.165-.194.222-.311.216-.438.44-.87.673-1.298.242-.44.456-.895.645-1.363 0-.01.001-.019.004-.028a.221.221 0 0 0-.014-.08.232.232 0 0 0-.042-.06Zm-.033-3.168-.01-.046a.123.123 0 0 0-.028-.066.24.24 0 0 0-.052-.046.187.187 0 0 0-.075-.028.176.176 0 0 0-.07.005.227.227 0 0 0-.085.046c-.113.301-.217.608-.31.921-.117.385-.249.765-.396 1.14l-.188.489-.085.2c-.132.322-.276.642-.433.958-.166.341-.334.684-.504 1.028l-.01.056a.139.139 0 0 0 .024.102.201.201 0 0 0 .066.07l.029.01a.2.2 0 0 0 .094.013.187.187 0 0 0 .066-.023 3.97 3.97 0 0 0 .32-.535c.342-.686.652-1.386.932-2.103.279-.72.517-1.45.715-2.19Zm-.367-2.903c0-.01.001-.018.005-.028a.258.258 0 0 0-.015-.083.22.22 0 0 0-.042-.056.149.149 0 0 0-.056-.042.5.5 0 0 0-.066-.014.22.22 0 0 0-.09.019 1.824 1.824 0 0 0-.315.493c-.295.65-.585 1.302-.87 1.954a11.738 11.738 0 0 0-.693 2.12.328.328 0 0 1 .005.057.155.155 0 0 0 .052.093.188.188 0 0 0 .103.05.147.147 0 0 0 .09-.008.156.156 0 0 0 .075-.047c.06-.177.116-.357.17-.54a15.22 15.22 0 0 1 .73-2.042c.288-.651.594-1.293.917-1.926Zm-.63-2.051-.01-.019a.23.23 0 0 0-.043-.06.144.144 0 0 0-.06-.042l-.048-.01a.165.165 0 0 0-.094.01.19.19 0 0 0-.08.06 5.598 5.598 0 0 1-.132.428c-.22.599-.436 1.199-.65 1.8a9.454 9.454 0 0 1-.912 1.866.209.209 0 0 0-.014.074c0 .031.009.06.028.089a.201.201 0 0 0 .066.07c.028.015.06.023.094.023a.131.131 0 0 0 .075-.014c.129-.118.234-.256.315-.414.308-.593.58-1.202.815-1.828.25-.673.467-1.351.65-2.033Zm-6.91-18.018a.355.355 0 0 0-.033-.037.194.194 0 0 0-.085-.046l-.056-.01a.185.185 0 0 0-.1.042l-.122.107a.344.344 0 0 0-.089.112l-.01.046a.114.114 0 0 0 0 .047.553.553 0 0 0 .033.088 36.195 36.195 0 0 0-.508 2.559 58.557 58.557 0 0 0-.583 4.67 70.9 70.9 0 0 0-.24 4.69 470.116 470.116 0 0 1-.1 4.694l.01.046a.55.55 0 0 0 .019.042c.01.016.019.028.028.037a.351.351 0 0 0 .038.033.573.573 0 0 0 .042.018c.01.004.017.005.024.005.025.006.05.005.075-.005a.164.164 0 0 0 .066-.032.202.202 0 0 0 .052-.051c.053-.993.09-1.99.108-2.992.028-1.597.08-3.192.155-4.786a51.648 51.648 0 0 1 .429-4.666c.216-1.56.499-3.097.847-4.61Zm4.989 4.783a.07.07 0 0 0-.014-.019.135.135 0 0 0-.052-.051.244.244 0 0 0-.085-.023 67.29 67.29 0 0 1-.056.009.144.144 0 0 0-.085.046.198.198 0 0 0-.052.084 30.27 30.27 0 0 1 .749 4.066c.178 1.572.194 3.146.047 4.722a30.767 30.767 0 0 1-.824 4.745.2.2 0 0 0 .005.074c.01.031.025.06.047.084a.226.226 0 0 0 .085.047.268.268 0 0 0 .051.004c.025.003.049 0 .07-.009a.432.432 0 0 0 .062-.042c.399-1.436.68-2.9.843-4.391.175-1.576.192-3.153.051-4.731a26.012 26.012 0 0 0-.842-4.615Zm-3.215-3.127a.085.085 0 0 1-.005-.027 3.049 3.049 0 0 1-.009-.028.119.119 0 0 0-.014-.028.057.057 0 0 0-.014-.023.153.153 0 0 0-.019-.024.44.44 0 0 0-.08-.037.243.243 0 0 0-.094 0 .104.104 0 0 0-.043.019.186.186 0 0 0-.042.023c-.172.487-.3.99-.381 1.507a36.422 36.422 0 0 0-.442 4.675 182.011 182.011 0 0 0-.08 4.722c-.01 1.566.037 3.13.14 4.69.101 1.563.186 3.124.255 4.684a.246.246 0 0 0 .014.051.157.157 0 0 0 .056.088c.013.01.025.02.038.028l.028.01a.267.267 0 0 0 .104 0 .164.164 0 0 0 .047-.023.22.22 0 0 0 .042-.033c.06-.59.065-1.19.014-1.8a86.297 86.297 0 0 1-.268-4.67 181.763 181.763 0 0 1-.08-4.714 65.104 65.104 0 0 1 .146-4.628c.1-1.508.33-2.995.687-4.462Zm2.066.698a.052.052 0 0 0-.004-.023.101.101 0 0 0-.02-.042.086.086 0 0 0-.027-.037.163.163 0 0 0-.033-.033.962.962 0 0 0-.052-.018.242.242 0 0 0-.047-.005.135.135 0 0 0-.07.01.247.247 0 0 0-.062.037 13.18 13.18 0 0 0-.259 3.089c.05 1.563.099 3.126.146 4.689.044 1.566.068 3.132.07 4.698.004.785-.028 1.568-.093 2.35a7.3 7.3 0 0 0 .169 2.288.192.192 0 0 0 .245-.05c-.028-.928-.03-1.861-.005-2.801.04-1.604.042-3.206.005-4.806a284.997 284.997 0 0 0-.15-4.638c-.064-1.578 0-3.148.187-4.708Zm-.127-7.643a.34.34 0 0 0-.042.014 3.084 3.084 0 0 0-.381.544c-.345.63-.64 1.281-.885 1.954a11.43 11.43 0 0 0-.527 2.08.266.266 0 0 0 .019.07.18.18 0 0 0 .023.041.13.13 0 0 0 .038.033c.012.01.025.017.037.023.016.006.032.01.047.014h.052a.19.19 0 0 0 .07-.023.24.24 0 0 0 .053-.047c.047-.201.094-.406.14-.614a11.76 11.76 0 0 1 .64-2.005c.27-.639.581-1.258.933-1.856a.23.23 0 0 0 0-.093.101.101 0 0 0-.019-.042.18.18 0 0 0-.023-.042.504.504 0 0 1-.043-.028.57.57 0 0 0-.042-.018.177.177 0 0 0-.043-.005h-.047Zm-.955-2.368c0-.01.001-.018.005-.028a.221.221 0 0 0-.014-.079.231.231 0 0 0-.043-.06l-.038-.028a.195.195 0 0 0-.084-.028.22.22 0 0 0-.09.018 1.565 1.565 0 0 0-.282.415c-.295.623-.556 1.26-.781 1.912-.239.691-.5 1.375-.786 2.051a.197.197 0 0 0 .004.074c.01.031.025.06.047.084a.226.226 0 0 0 .085.047c.028.009.055.01.08.004a.208.208 0 0 0 .085-.037c.09-.146.17-.3.235-.465.248-.623.485-1.253.71-1.889a16.5 16.5 0 0 1 .867-1.99Zm-.198-2.26a.258.258 0 0 0 .014-.047.17.17 0 0 0 .005-.07.137.137 0 0 0-.019-.07.345.345 0 0 0-.033-.037.169.169 0 0 0-.085-.051.24.24 0 0 0-.094 0 1.412 1.412 0 0 0-.39.39 22.56 22.56 0 0 0-1.111 1.857c-.358.673-.75 1.329-1.177 1.968a.174.174 0 0 0-.014.07c0 .03.008.061.024.092a.251.251 0 0 0 .07.07l.029.01c.022.006.042.009.06.009a.346.346 0 0 0 .057-.005c.15-.13.283-.285.396-.465a21.54 21.54 0 0 0 1.068-1.935 7.616 7.616 0 0 1 1.2-1.787ZM79.967.027A.282.282 0 0 0 79.986 0h-.871c-.02.063-.036.135-.047.219a38.827 38.827 0 0 0-.32 3.717 16.744 16.744 0 0 0 .188 3.172c.188 1.213.354 2.43.499 3.652.028.26.047.521.056.782.028 1.166.162 2.318.4 3.456.251 1.207.576 2.393.975 3.559.398 1.17.8 2.335 1.204 3.498.405 1.166.755 2.351 1.05 3.554a69.81 69.81 0 0 0 .96 3.55c.176.592.344 1.186.504 1.782.32 1.21.8 2.354 1.44 3.433.104.173.225.335.363.484.756.818 1.713 1.254 2.87 1.307.104.022.21.032.316.032.308 0 .613-.003.918-.009.27-.003.522-.062.758-.177a.842.842 0 0 0 .268-.437c.09-.363.15-.735.179-1.116.04-.599.142-1.188.306-1.768.21-.732.437-1.46.682-2.182.38-1.12.758-2.24 1.134-3.363.104-.298.204-.596.302-.894.37-1.11.646-2.24.828-3.39.05-.302.085-.603.104-.903a7.48 7.48 0 0 1 .97-3.285 12.532 12.532 0 0 0 1.289-3.317 44.423 44.423 0 0 1 1.012-3.642c.292-.9.5-1.814.626-2.745.166-1.222.248-2.45.244-3.684a22.965 22.965 0 0 0-.315-3.68A16.661 16.661 0 0 1 98.695 0h-1.003l.014.074c.198 1.055.348 2.116.452 3.182.126 1.284.147 2.571.066 3.862a17.882 17.882 0 0 1-.786 4.228 42.912 42.912 0 0 0-.989 3.62 9.741 9.741 0 0 1-.974 2.577 9.943 9.943 0 0 0-.81 1.898 16.193 16.193 0 0 0-.63 3.038c-.047.418-.127.83-.24 1.232-.33 1.173-.654 2.348-.974 3.527-.098.35-.18.626-.25.828-.389 1.132-.79 2.259-1.205 3.382a10.988 10.988 0 0 0-.687 3.786 4.19 4.19 0 0 1-.522.042 6.56 6.56 0 0 1-1.629-.149 2.988 2.988 0 0 1-1.355-.683c-.54-.8-.959-1.657-1.257-2.568a129.664 129.664 0 0 1-1.106-3.56 72.448 72.448 0 0 1-.96-3.623 29.914 29.914 0 0 0-1.097-3.559 78.934 78.934 0 0 1-1.633-4.754 14.18 14.18 0 0 1-.621-3.55 35.141 35.141 0 0 0-.344-3.67c-.075-.521-.154-1.042-.235-1.563a19.677 19.677 0 0 1-.231-3.67c.04-1.241.14-2.477.297-3.708a.39.39 0 0 0-.02-.191Zm3.28 73.809a2.622 2.622 0 0 1-.01.06l-.004.038a.9.9 0 0 0 .014-.098Z"/><path fill="#E0A192" d="M103.607 71.232c-.304.055-.608.097-.913.125-.044.04-.088.082-.132.126a.34.34 0 0 1-.15.093.431.431 0 0 1-.151.014 41.544 41.544 0 0 1-.273 1.926c-.034.204-.08.402-.136.595l.004.005a.133.133 0 0 1 .038.028l.038.032a.764.764 0 0 1 .056.075.32.32 0 0 1 .019.042l.019.046.009.047c-.002.036-.006.072-.009.107l.033-.047.038-.018a.156.156 0 0 1 .042-.014.242.242 0 0 1 .089 0 .247.247 0 0 1 .047.014l.033.032a.157.157 0 0 1 .029.037.438.438 0 0 1 .023.056c.003.01.005.019.005.028a8.74 8.74 0 0 1-.221.935 2.67 2.67 0 0 0-.099.88.869.869 0 0 1-.033.27.276.276 0 0 0-.033.037l-.038.027a.14.14 0 0 1-.047.019l-.042.01h-.028c-.012.086-.024.173-.038.26a2.622 2.622 0 0 0-.028.32 7.296 7.296 0 0 1 2.508-.176c.804.08 1.538.231 2.203.451a.91.91 0 0 1 .179.08c.029-.416.062-.832.099-1.247l-.047-.01-.057-.009a.67.67 0 0 1-.099-.046.791.791 0 0 1-.042-.038.396.396 0 0 1-.042-.037l-.038-.047a1.102 1.102 0 0 1-.075-.209.35.35 0 0 1-.005-.056 16.401 16.401 0 0 1-.979-2.847 27.71 27.71 0 0 1-.414-2.014.597.597 0 0 1-.137-.023 3.183 3.183 0 0 0-.183-.042l-.061-.01c-.321.056-.641.114-.961.173Zm1.671 3.084c.019 0 .036.001.052.005.016.006.03.014.042.023a.149.149 0 0 1 .038.028l.028.037c.01.012.018.026.024.042.006.388.041.772.103 1.154.06.384.137.767.231 1.149.028.124.03.243.005.358a.206.206 0 0 1-.142.088.145.145 0 0 1-.089-.01l-.028-.008a5.625 5.625 0 0 1-.316-1.173c-.065-.4-.112-.801-.141-1.204a1.3 1.3 0 0 1 .033-.396.208.208 0 0 1 .047-.056.166.166 0 0 1 .113-.037Zm-1.078.367a42.896 42.896 0 0 0 .08.582c.042.279.076.558.104.837-.013-.39-.024-.778-.033-1.167a1.45 1.45 0 0 1 .042-.386.162.162 0 0 1 .066-.07.202.202 0 0 1 .146-.019.16.16 0 0 1 .061.033.13.13 0 0 1 .047.056c.01.012.018.026.024.041.006.413.011.827.014 1.242a1.836 1.836 0 0 0 .052.452l.005.01c.043.17.112.333.207.488a.6.6 0 0 1 .089.237.18.18 0 0 1-.056.13.192.192 0 0 1-.132.051h-.052a1.455 1.455 0 0 1-.475-.977.534.534 0 0 1-.033.177l-.029.037-.037.028-.047.019a.25.25 0 0 1-.047.005h-.052a.21.21 0 0 0-.042-.024 1.252 1.252 0 0 1-.038-.028l-.028-.037a.13.13 0 0 1-.019-.046l-.01-.047a5.327 5.327 0 0 0-.047-.623 17.803 17.803 0 0 0-.051-.382l-.01-.07-.005-.032a.259.259 0 0 1-.004-.033v.024a11.694 11.694 0 0 1-.052-.438.14.14 0 0 1 .024-.093.225.225 0 0 1 .056-.056.143.143 0 0 1 .08-.032.155.155 0 0 1 .085.004l.028.01a.25.25 0 0 1 .024.018.154.154 0 0 1 .023.019l.019.019a.076.076 0 0 0 .014.018.185.185 0 0 1 .009.023Zm-.748-.088c.006.016.013.03.019.042.009.267.016.532.019.796.003.263.026.525.07.786a.601.601 0 0 1-.004.246.245.245 0 0 1-.099.102.215.215 0 0 1-.076.014h-.023l-.047-.018a.608.608 0 0 1-.043-.023.162.162 0 0 1-.032-.033l-.029-.037a.185.185 0 0 0-.009-.023 4.175 4.175 0 0 1-.085-.787 23.193 23.193 0 0 0-.023-.79.806.806 0 0 1 .037-.275.14.14 0 0 1 .052-.051.167.167 0 0 1 .061-.033.16.16 0 0 1 .076-.009.074.074 0 0 0 .023.005c.016.006.03.014.042.023.016.01.029.019.038.028a.276.276 0 0 1 .033.037Zm-.955.158a.168.168 0 0 1 .108-.037.133.133 0 0 1 .08.014.166.166 0 0 1 .075.056.165.165 0 0 1 .028.046.385.385 0 0 1 .015.056l-.01.06a.357.357 0 0 1-.005.066.09.09 0 0 0-.004.028l-.005.018a9.487 9.487 0 0 0-.061.666c-.016.27-.002.538.042.804a.674.674 0 0 1-.037.335.168.168 0 0 1-.123.07.177.177 0 0 1-.113-.019.428.428 0 0 1-.047-.032 2.88 2.88 0 0 1-.113-.903c.01-.307.027-.614.052-.92a.597.597 0 0 1 .118-.308Zm-30.236-3.438-.005-.004c-.149.973-.419 1.91-.81 2.81a.509.509 0 0 1-.032.055.289.289 0 0 1-.033.052l-.047.046a.726.726 0 0 1-.052.037.324.324 0 0 1-.047.019c.153 1.032.219 2.075.198 3.13.436-.266.93-.43 1.482-.492a9.274 9.274 0 0 1 2.382.037c.232.034.46.08.682.14a5.547 5.547 0 0 1-.39-1.657c-.041-.477-.1-.952-.175-1.423a.929.929 0 0 1 .02-.396.606.606 0 0 1 .023-.041l.028-.038a.538.538 0 0 1 .019-.023 7.986 7.986 0 0 0-.137-.535 14.965 14.965 0 0 1-.25-.968.439.439 0 0 1-.056-.023 2.655 2.655 0 0 0-1.13-.651 2.987 2.987 0 0 0-1.27-.08 1.333 1.333 0 0 1-.4.005Zm2.989 2.675.056.01c.019.009.036.018.052.028a.212.212 0 0 1 .061.074c.044.295.058.59.043.888-.013.27-.05.537-.114.8a.23.23 0 0 1-.065.117.247.247 0 0 1-.062.037.144.144 0 0 1-.07.01h-.052a.17.17 0 0 1-.08-.052.16.16 0 0 1-.047-.083.25.25 0 0 1-.01-.07 3.48 3.48 0 0 0 .123-.842 6.277 6.277 0 0 0-.024-.73.14.14 0 0 1 .024-.094.153.153 0 0 1 .07-.07.193.193 0 0 1 .095-.023Zm-.386.242a.155.155 0 0 0 .023.019.157.157 0 0 0 .024.018l.014.014a.215.215 0 0 1 .033.07 2.997 2.997 0 0 1-.038.41c-.019.133-.039.266-.061.4l-.019.148c0 .035-.01.152-.028.354-.013.149-.014.3-.005.451a.418.418 0 0 1-.037.196.148.148 0 0 1-.043.056.216.216 0 0 1-.066.032.155.155 0 0 1-.075 0h-.028a.379.379 0 0 1-.061-.032.133.133 0 0 1-.047-.056.117.117 0 0 1-.024-.07.052.052 0 0 1-.005-.023 5.97 5.97 0 0 1 .038-.82l.094-.823a.89.89 0 0 1 .075-.288.211.211 0 0 1 .062-.056.207.207 0 0 1 .174 0Zm-.711.205a.18.18 0 0 1 .01.023c-.01.332-.04.66-.09.986-.047.295-.102.587-.165.875a.233.233 0 0 1-.066.121.17.17 0 0 1-.06.037.158.158 0 0 1-.076.01h-.047a.17.17 0 0 1-.08-.052.135.135 0 0 1-.047-.093l-.01-.055c.072-.301.132-.604.18-.908.04-.266.065-.535.075-.805a.373.373 0 0 1 .056-.18.173.173 0 0 1 .075-.057.141.141 0 0 1 .07-.018c.026 0 .051.006.076.018a.143.143 0 0 1 .061.037.166.166 0 0 1 .038.06Zm-1.389.12a.329.329 0 0 1 .076-.185.227.227 0 0 1 .085-.047.206.206 0 0 1 .075-.004.153.153 0 0 1 .07.028.15.15 0 0 1 .052.046.16.16 0 0 1 .033.065c0 .006.002.014.005.024-.044.31-.07.623-.075.94-.007.294-.027.588-.062.883a.463.463 0 0 1-.084.223.17.17 0 0 1-.061.038.215.215 0 0 1-.076.014.243.243 0 0 0-.047-.005.17.17 0 0 1-.08-.051.135.135 0 0 1-.047-.093l-.01-.056c.054-.323.084-.645.09-.968.006-.285.025-.569.056-.851Zm-.87.261a.102.102 0 0 1 .047-.07.194.194 0 0 1 .212-.018c.006.006.012.01.018.014a.354.354 0 0 1 .062.084.356.356 0 0 1 .014.055c-.047.267-.096.534-.146.8a2.398 2.398 0 0 1-.193.6.195.195 0 0 1-.09.099.263.263 0 0 1-.07.018.215.215 0 0 1-.09-.01l-.028-.008a.252.252 0 0 1-.07-.07.187.187 0 0 1-.02-.103l.01-.056c.11-.22.184-.45.221-.693.032-.217.073-.43.123-.642Zm.452-.05a.174.174 0 0 1 .08-.038.189.189 0 0 1 .136.019.238.238 0 0 1 .052.046c.019.022.03.047.033.075.003.009.005.018.005.027a6.414 6.414 0 0 0-.109.884 12.21 12.21 0 0 1-.066.828.384.384 0 0 1-.08.191.247.247 0 0 1-.06.037c-.026.01-.051.013-.076.01h-.047a.236.236 0 0 1-.08-.051.135.135 0 0 1-.047-.094 10.824 10.824 0 0 1-.01-.055c.05-.307.082-.616.094-.926.013-.28.044-.555.095-.828a.215.215 0 0 1 .08-.126Z"/><path fill="#FF5736" d="M106.47 38.513a28.988 28.988 0 0 0-.222-.34c.188.654.321 1.322.4 2.006.032.267.077.533.137.8.358 1.572.778 3.13 1.261 4.67.474 1.514.775 3.059.904 4.634.078.968.226 1.924.442 2.87a1.666 1.666 0 0 0-.009-.05 37.395 37.395 0 0 1 .433 4.564 14 14 0 0 1-.57 4.479 11.087 11.087 0 0 1-1.492 3.154 18.397 18.397 0 0 0-2.108 4.154l.005.028a.318.318 0 0 1 0 .102.575.575 0 0 0-.01.051l-.019.047a.941.941 0 0 1-.051.084c.069.961.208 1.912.418 2.851.192.856.455 1.686.791 2.49l.085.2c.044-.39.093-.782.146-1.173a23.47 23.47 0 0 1 2.315-7.453 2.603 2.603 0 0 0 .076-.288l.009-.084c.006-.077.082-.352.226-.823a30.07 30.07 0 0 0 1.337-8.75c.004-1.401-.015-2.8-.057-4.197-.135-.596-.264-1.176-.386-1.74a162.172 162.172 0 0 1-.79-3.842c-.07-.358-.133-.717-.189-1.08v.005a18.702 18.702 0 0 0-1.525-4.573 27.883 27.883 0 0 0-1.557-2.796Zm-5.564-10.327c-.09.925-.22 1.848-.39 2.768-.113.608-.19 1.222-.231 1.842-.1 1.619-.193 3.24-.278 4.861a58.06 58.06 0 0 1-.433 4.666c-.2 1.495-.398 2.99-.593 4.485-.2 1.538-.416 3.094-.645 4.666-.22 1.504-.451 2.935-.696 4.294a74.491 74.491 0 0 0-.72 4.773 586.318 586.318 0 0 1-.575 4.633 26.57 26.57 0 0 0-.202 4.601c.056 1.29.239 2.556.546 3.796.053.217.132.428.235.633a4.29 4.29 0 0 0 1.28 1.516c.004.003.008.005.015.005a.26.26 0 0 0 .052.023l.056.019.075.028a.485.485 0 0 0 .07.032c.038.007.076.01.114.01.056.006.113.009.17.009h.164a3.065 3.065 0 0 1 .15-.047l.062-.018.066-.037a2.661 2.661 0 0 1 .273-.135l.066-.028c.062-.062.128-.121.197-.177.123-.102.247-.2.372-.293a1.84 1.84 0 0 1 .424-.223h.061c.022 0 .044.001.066.004h.019c.424-.847.673-1.7.748-2.558.028-.345.063-.687.103-1.028.173-1.402.248-2.809.226-4.22a75.16 75.16 0 0 1-.009-1.163 4.743 4.743 0 0 1-.052-.195 2.19 2.19 0 0 1-.033-.219v-.06a.777.777 0 0 1 .047-.107.51.51 0 0 1 .109-.135.635.635 0 0 1 .108-.047.603.603 0 0 1 .169-.018c.038.009.074.023.109.041a.677.677 0 0 1 .136.098c.188 1.194.245 2.41.169 3.647a43.618 43.618 0 0 1-.145 1.777c.429-.117.868-.213 1.317-.288.333-.056.667-.08 1.003-.07.052.002.102.007.151.014a2.812 2.812 0 0 0-.01-.093 2.33 2.33 0 0 1 .057-.912.552.552 0 0 0 .033-.037.667.667 0 0 1 .023-.037c.37-1.33.969-2.571 1.798-3.726.926-1.29 1.575-2.7 1.949-4.229.373-1.526.506-3.067.4-4.624a39.748 39.748 0 0 0-.598-4.652 32.582 32.582 0 0 1-.353-2.266 25.719 25.719 0 0 0-.998-4.605 43.79 43.79 0 0 1-1.158-4.536c-.141-.71-.285-1.42-.433-2.13a53.464 53.464 0 0 0-.621-1.954c-.081-.241-.159-.479-.235-.712a75.98 75.98 0 0 0-.777-1.089 14.94 14.94 0 0 1-1.285-2.107 24.296 24.296 0 0 1-1.718-4.466Zm1.732 8.192.043.019c.473.589.95 1.175 1.43 1.758.468.57.945 1.134 1.431 1.689.163.183.291.381.382.595a.183.183 0 0 1-.057.13.186.186 0 0 1-.066.042.118.118 0 0 1-.028.014.376.376 0 0 1-.113-.018.427.427 0 0 1-.047-.033.512.512 0 0 1-.038-.042 24.781 24.781 0 0 0-1.384-1.725 90.4 90.4 0 0 1-1.444-1.69 2.633 2.633 0 0 1-.368-.571c0-.025.005-.048.015-.07a.137.137 0 0 1 .042-.06.186.186 0 0 1 .066-.042l.028-.01h.056a.24.24 0 0 1 .052.014Zm2.885 7.853a.051.051 0 0 1-.023.004l-.047-.009a.098.098 0 0 1-.042-.018 1.252 1.252 0 0 1-.038-.028.147.147 0 0 1-.043-.06 16.55 16.55 0 0 0-1.322-2.48 128.585 128.585 0 0 0-1.549-2.326 2.254 2.254 0 0 1-.343-.768.666.666 0 0 1 .023-.042l.029-.037.037-.028a.613.613 0 0 1 .043-.019.71.71 0 0 1 .042-.009h.024a.051.051 0 0 0 .023.005c.006 0 .014.001.024.004l.018.01a.339.339 0 0 1 .019.009.06.06 0 0 1 .019.014.075.075 0 0 1 .019.014c.439.803.916 1.586 1.431 2.35a33.282 33.282 0 0 1 1.496 2.428c.154.272.261.556.32.85a.183.183 0 0 1-.023.043.086.086 0 0 1-.028.037.355.355 0 0 1-.038.033.186.186 0 0 1-.071.023Zm.142 2.665a.818.818 0 0 0-.052-.028 12.693 12.693 0 0 1-1.713-1.744 21.637 21.637 0 0 1-1.417-1.959 7.19 7.19 0 0 1-.372-.646c0-.025.005-.05.014-.075a.154.154 0 0 1 .043-.055.173.173 0 0 1 .065-.042l.029-.01a.088.088 0 0 1 .028-.004h.028a.359.359 0 0 1 .033.009c.006 0 .014.002.024.005a.096.096 0 0 1 .019.014l.018.009c.455.651.901 1.307 1.337 1.968a8.002 8.002 0 0 0 1.605 1.777c.21.177.402.367.574.572a.175.175 0 0 1-.019.14.156.156 0 0 1-.051.06.055.055 0 0 0-.024.014.402.402 0 0 1-.056.014.176.176 0 0 1-.113-.019Zm-.335 3.713c.01.012.018.026.024.042a.076.076 0 0 1 .014.018c.057 1.622.08 3.244.071 4.866a40.484 40.484 0 0 1-.278 4.564 15.81 15.81 0 0 1-.419 2.228.171.171 0 0 1-.075.037.197.197 0 0 1-.085 0l-.056-.018a.35.35 0 0 1-.142-.33l.038-.363a.187.187 0 0 1 .057-.112.058.058 0 0 1 .023-.014.165.165 0 0 0 .038-.042.116.116 0 0 0 .023-.056 44.19 44.19 0 0 0 .452-9.485 9.172 9.172 0 0 1 .01-1.317.143.143 0 0 1 .047-.05.184.184 0 0 1 .089-.043.204.204 0 0 1 .075.005.613.613 0 0 1 .043.023c.019.01.036.025.051.047Zm-.583.576c.003.001.005.003.005.005l-.005-.005Zm.014.107v-.009.01Zm2.97 2.903a.206.206 0 0 1 .066-.07.16.16 0 0 1 .094-.018h.052c.022.01.042.02.061.033a.208.208 0 0 1 .047.055l.023.042a99.06 99.06 0 0 1-.037 4.327 66.957 66.957 0 0 1-.236 4.056c-.025.307-.1.594-.225.86a.63.63 0 0 1-.066.033.174.174 0 0 1-.08 0 .37.37 0 0 1-.062-.023.162.162 0 0 1-.07-.065.201.201 0 0 1-.024-.093 36.19 36.19 0 0 0 .386-4.126c.05-1.328.061-2.657.033-3.987a9.403 9.403 0 0 1 .038-1.024Zm-6.806-9.364.024.042a32.21 32.21 0 0 0 .084 4.73c.138 1.551.27 3.102.396 4.653.122 1.566.257 3.132.404 4.698.082.86.151 1.717.208 2.573a.173.173 0 0 1-.095.098.172.172 0 0 1-.141.014.192.192 0 0 1-.075-.047 107.511 107.511 0 0 1-.466-4.675 572.153 572.153 0 0 0-.386-4.699 147.385 147.385 0 0 1-.339-4.694c-.053-.902-.033-1.8.061-2.693a.205.205 0 0 1 .052-.051.166.166 0 0 1 .066-.033.113.113 0 0 1 .071-.005h.028a.167.167 0 0 1 .061.033.13.13 0 0 1 .047.056Zm1.643 4.126a.14.14 0 0 1 .047-.018.234.234 0 0 1 .047-.005h.052a.979.979 0 0 1 .042.023l.038.028a.904.904 0 0 0 .028.037c.006.016.014.03.023.042l.038.405a.234.234 0 0 1 .047-.005.271.271 0 0 0 .052.005.192.192 0 0 1 .108.088l.024.042c.039 1.285.089 2.569.15 3.852l.024.214c.16 1.582.285 3.165.376 4.75.014.234.025.468.033.702.003.005.004.01.005.014.097.893.125 1.777.085 2.652a.184.184 0 0 1-.052.042 34.21 34.21 0 0 1-.014.716.487.487 0 0 1-.028.033.49.49 0 0 1-.038.032l-.047.019a.25.25 0 0 1-.099 0 .868.868 0 0 0-.042-.019.355.355 0 0 1-.038-.032.193.193 0 0 1-.028-.038.094.094 0 0 1-.019-.041l-.009-.047c.01-.669.009-1.337-.005-2.005a317.264 317.264 0 0 0-.273-3.596 107.403 107.403 0 0 1-.236-3.582 91.48 91.48 0 0 1-.357-4.243l.028-.037.038-.028Zm-4.119 11.114a5.677 5.677 0 0 1 1.177 1.67c.301.639.537 1.3.706 1.982.06.239.077.479.052.72a.2.2 0 0 1-.033.033.149.149 0 0 1-.038.028.149.149 0 0 1-.047.019.127.127 0 0 1-.047.01.322.322 0 0 1-.052-.005.992.992 0 0 1-.042-.024.149.149 0 0 1-.038-.028.193.193 0 0 1-.028-.037c-.006-.012-.013-.026-.019-.042l-.009-.046a3.573 3.573 0 0 0-.109-.75 4.821 4.821 0 0 0-.244-.716l-.094-.223a40.862 40.862 0 0 0-.457-.949c-.179-.363-.38-.715-.602-1.056a1.311 1.311 0 0 0-.245-.28l-.028-.046a.266.266 0 0 1-.014-.046.142.142 0 0 1 0-.051l.009-.047a.177.177 0 0 1 .01-.023.365.365 0 0 0 .032-.037l.038-.028a.148.148 0 0 1 .047-.019l.047-.01h.028Zm-.17 2.242a.914.914 0 0 1 .043-.01.24.24 0 0 0 .047.006.336.336 0 0 1 .043.014.24.24 0 0 1 .037.023.074.074 0 0 1 .02.014c.379.666.732 1.347 1.058 2.042.305.654.596 1.315.876 1.982.1.239.142.48.127.725a.17.17 0 0 1-.066.066.192.192 0 0 1-.071.023.15.15 0 0 1-.089-.01.102.102 0 0 1-.028-.013 18.85 18.85 0 0 0-.834-2.09 27.893 27.893 0 0 0-1.04-2.018 2.49 2.49 0 0 1-.254-.628.213.213 0 0 1 .033-.065.149.149 0 0 1 .056-.042.573.573 0 0 1 .043-.019Zm2.307 6.685a.253.253 0 0 1 .014.051.189.189 0 0 1-.056.126.168.168 0 0 1-.099.056.262.262 0 0 1-.085-.005.515.515 0 0 1-.197-.186 3.191 3.191 0 0 0-.113-.172l-.024-.033-.014-.018a.287.287 0 0 1-.024-.028l.01.01a6.823 6.823 0 0 1-1.812-2.959.719.719 0 0 1-.02-.415.252.252 0 0 1 .072-.07.19.19 0 0 1 .07-.023c.025 0 .05.002.075.005a.167.167 0 0 1 .062.033.205.205 0 0 1 .047.055.058.058 0 0 1 .014.024c.122.536.325 1.045.607 1.526.273.462.585.894.937 1.297.087.1.171.202.249.307l.005.005a.136.136 0 0 0 .014.019l.014.018.019.028.122.158a.915.915 0 0 1 .113.191Zm-2.325-.898a.133.133 0 0 1 .047-.055.22.22 0 0 1 .061-.028c.025-.01.05-.011.076-.005h.028a.66.66 0 0 1 .042.023l.038.028.028.037a.058.058 0 0 1 .014.024c.154.564.37 1.107.65 1.628.276.515.566 1.02.87 1.516.098.162.178.33.241.503a.164.164 0 0 1-.015.07.248.248 0 0 1-.037.06.16.16 0 0 1-.071.047.359.359 0 0 1-.033.009.341.341 0 0 1-.056-.005.123.123 0 0 1-.047-.01.613.613 0 0 1-.043-.022.199.199 0 0 1-.033-.033.06.06 0 0 1-.014-.023l-.885-1.582a17.944 17.944 0 0 1-.8-1.637.885.885 0 0 1-.06-.545Zm-.301 2.69.019.008a.075.075 0 0 1 .019.014.074.074 0 0 1 .018.014c.189.376.399.742.631 1.098.235.357.497.695.786 1.014a.988.988 0 0 1 .221.373.33.33 0 0 1-.019.07.14.14 0 0 1-.037.06.184.184 0 0 1-.1.051.348.348 0 0 1-.056-.005.126.126 0 0 1-.056-.014.125.125 0 0 1-.042-.028.271.271 0 0 1-.043-.041 33.334 33.334 0 0 1-.776-1.038c-.251-.35-.487-.708-.706-1.074a.788.788 0 0 1-.123-.386.601.601 0 0 1 .024-.042l.028-.038.038-.027a.57.57 0 0 1 .042-.02.943.943 0 0 1 .042-.008h.024a.053.053 0 0 0 .023.004c.007 0 .015.002.024.005l.019.01ZM71.612 37.117c-.067.096-.134.19-.203.284a14.11 14.11 0 0 0-2.047 3.986 88.318 88.318 0 0 0-1.299 4.313 39.359 39.359 0 0 0-1.002 4.782 61.747 61.747 0 0 0-.466 4.229c-.073.986-.088 1.97-.047 2.954.072 1.693.294 3.37.668 5.029.03.135.052.27.066.404.42 1.361.941 2.69 1.562 3.987a35.246 35.246 0 0 1 1.605 3.959c.226.671.413 1.347.56 2.028.14-.452.27-.91.391-1.372.402-1.526.257-3.018-.433-4.475a29.891 29.891 0 0 0-1.017-1.954 11.466 11.466 0 0 1-1.412-4.457 39.13 39.13 0 0 1-.122-1.498 42.855 42.855 0 0 1 .122-5.662c.139-1.569.273-3.138.405-4.707.135-1.548.336-3.089.603-4.624a35.098 35.098 0 0 1 2.066-7.206ZM75.236 31c-.518 1.179-1.05 2.351-1.596 3.517a61.506 61.506 0 0 0-1.868 4.424 32.575 32.575 0 0 0-.72 2.126 26.493 26.493 0 0 0-.927 4.327c-.061.486-.14.969-.236 1.447v-.01a.279.279 0 0 1-.004.028.017.017 0 0 1-.005.01.048.048 0 0 1 0 .018 55.912 55.912 0 0 0-.5 4.968 67.11 67.11 0 0 1-.103 1.582 50.336 50.336 0 0 0-.14 5.243c.034 1.48.27 2.926.71 4.34a13.22 13.22 0 0 0 1.285 2.88 8.485 8.485 0 0 1 1.224 4.154c.004.176 0 .35-.015.526a3.02 3.02 0 0 1 1.412-.014c.428.097.823.253 1.186.47a13.66 13.66 0 0 1-.117-1.661v-.06c-.09-.3-.141-.612-.156-.936-.022-.499-.004-.997.052-1.493a3.13 3.13 0 0 1 .108-.52.49.49 0 0 1 .029-.043.163.163 0 0 1 .033-.032.353.353 0 0 1 .037-.033l.038-.028a.186.186 0 0 1 .042-.023.272.272 0 0 1 .047-.014.127.127 0 0 1 .047-.01.321.321 0 0 1 .151.01.27.27 0 0 1 .047.014.66.66 0 0 1 .085.051c.012.01.023.02.033.033.012.009.023.02.033.032a.49.49 0 0 1 .052.084.258.258 0 0 1 .014.047c-.044.47-.057.945-.038 1.423.022.447.064.89.127 1.33.016.115.043.228.08.34.013.037.02.075.024.112a.537.537 0 0 0-.014.06l-.02.047a.516.516 0 0 1-.018.042.49.49 0 0 1-.028.041c.066.442.12.89.164 1.345.035.372.088.744.16 1.116a8.788 8.788 0 0 0 1.027 2.796.504.504 0 0 0 .282.228c1.302.468 2.41.174 3.323-.884.282-1.678.408-3.366.376-5.066a163.706 163.706 0 0 0-.164-5.122 61.921 61.921 0 0 0-.452-5.052c-.22-1.674-.457-3.346-.711-5.015a27.879 27.879 0 0 1-.287-2.735 42.846 42.846 0 0 0-.141-1.8 37.463 37.463 0 0 0-.301-2.215c-.248-1.51-.493-3.022-.735-4.535a85.159 85.159 0 0 1-.56-4.14 62.568 62.568 0 0 1-.343-5.16 35.88 35.88 0 0 0-.165-2.66l-.348-3.485c-.496 1.178-1.001 2.357-1.516 3.535Zm-.447 4.257a.275.275 0 0 1-.014.047 7.611 7.611 0 0 0-1.2 1.786c-.324.664-.68 1.309-1.069 1.935a2.05 2.05 0 0 1-.395.465.348.348 0 0 1-.057.005.227.227 0 0 1-.06-.01l-.03-.009a.25.25 0 0 1-.07-.07.204.204 0 0 1-.023-.092c0-.025.004-.048.014-.07.427-.64.819-1.295 1.176-1.968a22.56 22.56 0 0 1 1.111-1.856c.107-.158.237-.289.391-.391a.24.24 0 0 1 .094 0 .17.17 0 0 1 .085.051.356.356 0 0 1 .033.037.138.138 0 0 1 .019.07.174.174 0 0 1-.005.07Zm.188 2.28a.088.088 0 0 0-.005.027 16.499 16.499 0 0 0-.866 1.992 54.47 54.47 0 0 1-.71 1.888c-.066.165-.145.32-.236.465a.208.208 0 0 1-.084.038.143.143 0 0 1-.08-.005.227.227 0 0 1-.085-.047.223.223 0 0 1-.047-.083.201.201 0 0 1-.005-.075c.286-.676.548-1.36.786-2.051.226-.652.487-1.289.782-1.912.075-.158.169-.296.282-.414a.22.22 0 0 1 .09-.019c.03.003.059.012.084.028l.038.028c.015.015.03.036.042.06.01.025.014.052.014.08Zm.908 2.41a.334.334 0 0 1 .043-.015h.047c.016 0 .03.002.042.005.016.006.03.012.043.019a.51.51 0 0 0 .042.027c.01.013.017.027.024.042.009.013.015.027.018.042a.237.237 0 0 1 0 .093 15.818 15.818 0 0 0-.931 1.856 11.751 11.751 0 0 0-.64 2.005l-.142.614a.243.243 0 0 1-.052.047.19.19 0 0 1-.07.023h-.052a.268.268 0 0 1-.047-.014.249.249 0 0 1-.038-.023.13.13 0 0 1-.037-.032.183.183 0 0 1-.024-.042.258.258 0 0 1-.014-.047.077.077 0 0 1-.005-.023c.11-.707.286-1.4.527-2.08.245-.673.54-1.324.885-1.954.11-.198.237-.38.381-.544Zm.165 7.605a.052.052 0 0 1 .005.024c-.188 1.56-.251 3.129-.188 4.707.063 1.545.113 3.09.15 4.639.038 1.6.036 3.202-.004 4.805-.026.94-.024 1.873.004 2.8a.188.188 0 0 1-.15.075.192.192 0 0 1-.094-.023 7.303 7.303 0 0 1-.17-2.29 26.69 26.69 0 0 0 .094-2.348 180.878 180.878 0 0 0-.07-4.699c-.047-1.563-.096-3.126-.146-4.69a13.174 13.174 0 0 1 .259-3.088.247.247 0 0 1 .06-.037.135.135 0 0 1 .071-.01c.016 0 .032.002.047.005a.88.88 0 0 1 .052.019c.013.009.024.02.033.032.013.01.022.022.028.037.01.013.016.027.02.042Zm-2.066-.702c0 .01.002.018.005.028a26.126 26.126 0 0 0-.687 4.461 65.04 65.04 0 0 0-.146 4.629c.006 1.57.033 3.14.08 4.712.047 1.557.136 3.114.268 4.671.05.61.045 1.211-.014 1.8a.216.216 0 0 1-.042.033.167.167 0 0 1-.048.023.267.267 0 0 1-.131-.01c-.013-.008-.026-.018-.038-.027a.158.158 0 0 1-.038-.042.104.104 0 0 1-.019-.046.24.24 0 0 1-.014-.052c-.069-1.56-.153-3.121-.254-4.684a64.926 64.926 0 0 1-.141-4.69c.006-1.575.033-3.149.08-4.721.047-1.57.195-3.128.442-4.676.082-.517.21-1.02.382-1.507a.182.182 0 0 1 .042-.023.105.105 0 0 1 .042-.019.243.243 0 0 1 .094 0 .428.428 0 0 1 .08.038.16.16 0 0 1 .02.023.057.057 0 0 1 .013.023c.007.01.012.019.015.028l.009.028Zm3.205 3.135a.071.071 0 0 1 .014.019c.42 1.517.702 3.055.843 4.615a23.605 23.605 0 0 1-.052 4.73 27.622 27.622 0 0 1-.842 4.392.42.42 0 0 1-.062.042c-.022.01-.045.013-.07.01a.267.267 0 0 1-.052-.005.227.227 0 0 1-.085-.047.224.224 0 0 1-.047-.083.197.197 0 0 1-.004-.075c.398-1.56.673-3.142.823-4.745.148-1.575.132-3.15-.047-4.722a30.28 30.28 0 0 0-.748-4.066.197.197 0 0 1 .052-.083.144.144 0 0 1 .084-.047l.057-.01c.031.004.06.012.085.024.021.013.039.03.051.051Zm-5.008-4.8a.354.354 0 0 1 .033.037 53.084 53.084 0 0 0-.918 5.145 51.686 51.686 0 0 0-.357 4.13c-.075 1.595-.127 3.19-.155 4.788a85.546 85.546 0 0 1-.109 2.991.2.2 0 0 1-.051.051.163.163 0 0 1-.066.033.126.126 0 0 1-.076.004.079.079 0 0 1-.023-.004.552.552 0 0 1-.043-.019.353.353 0 0 1-.037-.032.193.193 0 0 1-.047-.08l-.01-.046c.041-1.566.074-3.13.1-4.694.027-1.566.107-3.13.24-4.69.13-1.562.325-3.12.583-4.67.14-.871.31-1.724.508-2.558a.548.548 0 0 1-.033-.089.117.117 0 0 1 0-.046l.01-.047a.345.345 0 0 1 .089-.111c.04-.038.081-.073.122-.108a.185.185 0 0 1 .1-.041l.056.009a.195.195 0 0 1 .085.046Zm6.933 18.035.01.019c-.182.682-.399 1.36-.65 2.033a16.712 16.712 0 0 1-.814 1.828 1.47 1.47 0 0 1-.315.414.131.131 0 0 1-.076.014.192.192 0 0 1-.094-.023.201.201 0 0 1-.066-.07.155.155 0 0 1-.028-.088.21.21 0 0 1 .014-.075c.374-.589.678-1.21.913-1.865.214-.602.43-1.202.65-1.8.05-.143.094-.286.132-.428a.189.189 0 0 1 .08-.061.164.164 0 0 1 .094-.01l.047.01c.025.01.045.023.061.042a.23.23 0 0 1 .042.06Zm.645 2.043a.088.088 0 0 0-.005.027c-.323.633-.629 1.275-.917 1.926a15.225 15.225 0 0 0-.73 2.043c-.053.183-.11.362-.17.54a.155.155 0 0 1-.075.046.147.147 0 0 1-.09.01.187.187 0 0 1-.104-.051.155.155 0 0 1-.05-.094.339.339 0 0 0-.005-.056 11.73 11.73 0 0 1 .692-2.121c.285-.651.575-1.303.87-1.954.082-.186.187-.35.316-.493a.22.22 0 0 1 .09-.019.502.502 0 0 1 .065.014c.022.01.041.023.057.042a.217.217 0 0 1 .042.056c.01.028.014.056.014.084Zm.353 2.884.01.046a21.006 21.006 0 0 1-.716 2.192c-.28.716-.59 1.417-.932 2.102-.094.19-.2.368-.32.535a.186.186 0 0 1-.066.023.2.2 0 0 1-.094-.014l-.028-.009a.201.201 0 0 1-.066-.07.138.138 0 0 1-.024-.102l.01-.056c.17-.344.337-.687.504-1.028.156-.316.3-.636.433-.958l.084-.2c.035-.087.097-.25.189-.489.147-.375.279-.755.395-1.14.094-.313.198-.62.31-.92a.226.226 0 0 1 .085-.047.178.178 0 0 1 .146.023.243.243 0 0 1 .052.047c.016.018.025.04.028.065Zm.005 3.186.037.028a.23.23 0 0 1 .043.06c.01.026.014.052.014.08a.086.086 0 0 0-.005.028 12.62 12.62 0 0 1-.645 1.363c-.232.428-.456.86-.673 1.298-.056.118-.13.222-.22.311a.19.19 0 0 1-.071.024.134.134 0 0 1-.085-.01.16.16 0 0 1-.099-.084.178.178 0 0 1-.023-.088c0-.025.004-.05.014-.074l.734-1.368c.226-.418.425-.85.598-1.293a.665.665 0 0 1 .207-.284.22.22 0 0 1 .09-.018c.03.003.059.012.084.028Z"/><path fill="#DE9E71" d="M79.067.219c.012-.084.027-.156.048-.219h-7.051c.284 2.16.432 4.344.442 6.555.004.794-.003 1.588-.018 2.382-.053 2.473.073 4.929.376 7.368l.028.028a.404.404 0 0 1 .07.093c.023.034.04.07.053.107l.019.075-.047.158a.373.373 0 0 1-.015.079l-.028.093a.227.227 0 0 1-.019.033l-.117.4c.734.495 1.494.96 2.278 1.39.979.54 1.994.99 3.045 1.35.36.12.663.311.908.572a.594.594 0 0 1 .038.219.697.697 0 0 1-.057.214.436.436 0 0 1-.155.153c.204.604.416 1.212.636 1.824.247.694.503 1.387.767 2.08.066.179.138.359.216.539l.085.21a75.762 75.762 0 0 1 .23.557c.048.115.157.42.33.917a32.833 32.833 0 0 0 2.909 6.187 22.165 22.165 0 0 0 2.89 3.782c.367.388.71.791 1.026 1.21.046-.006.093-.009.14-.01.167-.006.332-.007.495-.004.032.003.064.007.099.014.345.192.643.419.894.679.746-.9 1.448-1.854 2.104-2.861a68.242 68.242 0 0 0 2.142-3.513c.298-.524.56-1.07.786-1.637a26.151 26.151 0 0 0 1.685-6.894c.037-.146.081-.497.131-1.052l.043-.428a2.337 2.337 0 0 1-.156.019.457.457 0 0 1-.244-.163.417.417 0 0 1-.09-.26.705.705 0 0 1 0-.117 1.382 1.382 0 0 1 .094-.2.51.51 0 0 1 .038-.042 12.266 12.266 0 0 0 3.968-2.73 33.799 33.799 0 0 1 3.276-2.964c.13-.104.266-.19.409-.26.645-2.46.625-4.93-.061-7.406a17.276 17.276 0 0 1-.391-7.648c.062-.37.131-.736.207-1.098h-4.829c.035.537.097 1.072.184 1.605.204 1.219.309 2.445.315 3.68a26.775 26.775 0 0 1-.245 3.684 15.66 15.66 0 0 1-.625 2.745c-.39 1.2-.727 2.414-1.012 3.642a12.532 12.532 0 0 1-1.29 3.317 7.48 7.48 0 0 0-.97 3.285c-.019.3-.053.601-.103.902a21.141 21.141 0 0 1-.829 3.391 1043.96 1043.96 0 0 1-1.436 4.257c-.244.723-.471 1.45-.682 2.182a8.698 8.698 0 0 0-.306 1.768 6.575 6.575 0 0 1-.178 1.116.842.842 0 0 1-.269.437 1.753 1.753 0 0 1-.757.177c-.305.006-.61.01-.918.01-.107 0-.212-.011-.316-.033-1.157-.053-2.114-.489-2.87-1.307a2.872 2.872 0 0 1-.363-.484 13.437 13.437 0 0 1-1.44-3.433c-.16-.596-.328-1.19-.504-1.782a69.81 69.81 0 0 1-.96-3.55 39.507 39.507 0 0 0-1.05-3.554c-.404-1.163-.806-2.329-1.205-3.498a29.721 29.721 0 0 1-.974-3.559 19.074 19.074 0 0 1-.4-3.456c-.01-.26-.028-.521-.056-.782-.145-1.222-.311-2.44-.5-3.652a16.744 16.744 0 0 1-.188-3.172c.047-1.244.154-2.483.32-3.717ZM79.986 0a.282.282 0 0 1-.019.028.39.39 0 0 1 .02.19 39.615 39.615 0 0 0-.297 3.708c-.038 1.232.039 2.455.23 3.67.082.522.16 1.043.236 1.564.179 1.219.293 2.442.343 3.67a14.18 14.18 0 0 0 .622 3.55 78.934 78.934 0 0 0 1.633 4.754c.44 1.163.805 2.35 1.097 3.559.288 1.216.608 2.424.96 3.624.351 1.19.72 2.377 1.106 3.559.298.912.717 1.768 1.256 2.568.393.344.844.572 1.356.683a6.56 6.56 0 0 0 1.628.15c.176-.004.35-.018.523-.043a10.99 10.99 0 0 1 .687-3.786c.414-1.123.816-2.25 1.205-3.382.069-.202.152-.478.25-.828.32-1.179.644-2.354.974-3.527.113-.403.193-.814.24-1.232.113-1.033.323-2.046.63-3.038.204-.66.474-1.293.81-1.898.446-.81.77-1.669.974-2.577.276-1.22.606-2.426.989-3.62a17.882 17.882 0 0 0 .786-4.229c.081-1.29.06-2.577-.066-3.86A36.295 36.295 0 0 0 97.692 0H79.985Zm24.226 17.031a.31.31 0 0 1-.062.005 29.313 29.313 0 0 0-3.045 2.782 13.655 13.655 0 0 1-3.737 2.763 28.33 28.33 0 0 1-1.675 8.764 15.352 15.352 0 0 1-2.076 3.899 371.523 371.523 0 0 0-3.356 4.652.658.658 0 0 1-.118.13c.257.482.408 1.04.452 1.675a24.29 24.29 0 0 1-.141 4.726c-.107.831-.207 1.667-.301 2.508a37.537 37.537 0 0 0 .583 8.666 61.268 61.268 0 0 0 1.309 5.592 70.065 70.065 0 0 1 1.892 8.774c.449 3.011.955 6.017 1.52 9.016.182.96.284 1.927.306 2.898.025 1.2-.07 2.394-.287 3.582a41.175 41.175 0 0 0-.635 9.476c.05 1.027.028 2.048-.066 3.061h12.086c.539-2.623.628-5.267.269-7.932a37.054 37.054 0 0 1-.236-2.354 208.489 208.489 0 0 1-.329-6.564 53.623 53.623 0 0 1 .038-4.694.148.148 0 0 1-.033.01 1.317 1.317 0 0 1-.052-.01.322.322 0 0 1-.052-.004.93.93 0 0 1-.104-.056 7.803 7.803 0 0 0-.094-.056.648.648 0 0 0-.084-.056 6.134 6.134 0 0 1-.857-.232.802.802 0 0 0-.113-.038 9.57 9.57 0 0 0-1.949-.116c-.577.025-1.052.112-1.426.26a1.449 1.449 0 0 1-.522.108.47.47 0 0 1-.198-.103 1.026 1.026 0 0 1-.244-.311.53.53 0 0 1-.019-.107.507.507 0 0 1-.01-.103c.003-.05.014-.099.033-.148.01-.016.017-.031.024-.047a.491.491 0 0 0 .028-.042.512.512 0 0 0 .038-.042l.023-.023a.8.8 0 0 0 .038-.214.862.862 0 0 1 .085-.335c0-.41.02-.816.061-1.219a.177.177 0 0 0 0-.032.509.509 0 0 1-.146.116.751.751 0 0 1-.113.028.46.46 0 0 1-.113.005l-.057-.01a.495.495 0 0 1-.056-.023.145.145 0 0 1-.019-.014 1.706 1.706 0 0 1-.103.065c-.104.059-.2.129-.288.21-.1.083-.199.17-.296.26l-.061.046-.047.02a.651.651 0 0 0-.052.022l-.085.038a2.541 2.541 0 0 0-.09.037l.024-.01a1.376 1.376 0 0 1-.367.172c-.078.029-.158.05-.24.066a.867.867 0 0 1-.235.023c-1.03-.109-1.817-.626-2.363-1.554a5.639 5.639 0 0 1-.734-2.08 30.67 30.67 0 0 1-.316-4.642c.007-.766.054-1.53.142-2.293.175-1.548.335-3.097.48-4.648.147-1.566.373-3.123.677-4.67.305-1.532.565-3.072.782-4.62.22-1.554.433-3.107.64-4.661l.63-4.666c.21-1.554.361-3.114.453-4.68.09-1.566.174-3.133.249-4.699.072-1.563.259-3.113.56-4.652.191-.992.289-1.994.292-3.005a.408.408 0 0 1 .033-.056.246.246 0 0 1 .033-.05l.047-.047a.585.585 0 0 1 .052-.038l.028-.014a.224.224 0 0 0 .019-.027l.028-.038a.276.276 0 0 1 .033-.037.13.13 0 0 1 .037-.033l.038-.027a.865.865 0 0 1 .042-.02l.048-.018.047-.009a.31.31 0 0 1 .15.01 2.314 2.314 0 0 1 .09.037l.037.027c.016.01.029.02.038.033.013.012.023.025.033.037l.028.037.019.042.019.047a21.929 21.929 0 0 0 1.115 4.559 17.572 17.572 0 0 0 1.812 3.628.572.572 0 0 1 .043-.116.489.489 0 0 1 .028-.042l.028-.037c.028-.019.055-.037.08-.056a.192.192 0 0 1 .043-.023l.047-.019.051-.009h.099l.047.01.043.013a.21.21 0 0 1 .042.024.382.382 0 0 1 .108.093.276.276 0 0 1 .033.037c.228.704.452 1.408.673 2.112.202.3.403.601.603.902a62.354 62.354 0 0 1 2.391 3.922c.376.673.696 1.372.96 2.098.549 1.504.93 3.029 1.144 4.573.028.196.057.391.089.586l-.014-.228a16.205 16.205 0 0 1-.042-1.167 41.346 41.346 0 0 0-.899-4.052 41.98 41.98 0 0 1-.523-2.047l-.103-.447a.31.31 0 0 1-.047-.051.436.436 0 0 1-.09-.163 78.623 78.623 0 0 0-.16-1.075c-.156-.685-.31-1.369-.461-2.051a.807.807 0 0 1 .08-.135l.005-.01a76.372 76.372 0 0 0-.678-3.274 432.246 432.246 0 0 1-.749-3.294 28.173 28.173 0 0 1-.673-5.206c.025-.03.052-.06.08-.088l.005-.005a23.903 23.903 0 0 0-.781-3.386 49.885 49.885 0 0 0-1.247-3.582 7.418 7.418 0 0 1-.193-.54Zm-33.592 9.104a.487.487 0 0 0 .019.023c-.01 3.021-.454 6.01-1.332 8.97a36.267 36.267 0 0 0-1.06 4.647 224.66 224.66 0 0 1-1.284 7.318c.082-.348.168-.696.259-1.043.398-1.516.84-3.022 1.322-4.517.424-1.3.984-2.532 1.68-3.698a40.692 40.692 0 0 1 2.274-3.415c.138-.186.265-.381.381-.586.104-.174.228-.327.372-.46a.532.532 0 0 1 .042-.019l.047-.019c.347-.741.692-1.484 1.036-2.228a86.534 86.534 0 0 0 1.86-4.33.825.825 0 0 1 .183-.29l.056-.027a.373.373 0 0 1 .174-.042 86.149 86.149 0 0 0-.052-.544.152.152 0 0 1 .005-.066.516.516 0 0 1 .033-.055.283.283 0 0 1 .033-.052l.047-.046a.75.75 0 0 1 .052-.037.355.355 0 0 1 .061-.023.2.2 0 0 1 .061-.02.456.456 0 0 1 .066-.004h.066a.361.361 0 0 1 .061.024.22.22 0 0 1 .061.027c.02.01.037.02.052.033a.288.288 0 0 1 .08.098.213.213 0 0 1 .028.06.35.35 0 0 1 .024.06c.179 1.56.344 3.124.494 4.69a44.46 44.46 0 0 1 .203 3.359c.037 1.578.145 3.15.324 4.717a.052.052 0 0 0-.004-.014c.183 1.693.422 3.378.715 5.056.273 1.564.538 3.128.795 4.694.198 1.204.26 2.42.184 3.648.304 1.277.526 2.57.664 3.88.056.527.125 1.021.207 1.483.144.846.25 1.697.32 2.554.141 1.708.259 3.416.353 5.127a75.03 75.03 0 0 1 .103 5.313c-.015.865-.04 1.732-.075 2.6a4.208 4.208 0 0 1-.607 2.06 1.848 1.848 0 0 1-.579.596 4.028 4.028 0 0 1-2.396.684c-.692-.087-1.243-.324-1.652-.712a4.836 4.836 0 0 0 .315 1.238c.12.3.212.603.278.907l-.01.056-.018.056a1.101 1.101 0 0 1-.08.126.362.362 0 0 1-.136.083.962.962 0 0 1-.052.019 9.55 9.55 0 0 0-2.306-.433 5.619 5.619 0 0 0-2.166.284c-.241.08-.467.192-.677.335a.168.168 0 0 0-.07.097 29.011 29.011 0 0 1-.052.107.123.123 0 0 1-.02.019 70.844 70.844 0 0 1-.277 3.042c-.317 2.85-.567 5.708-.749 8.574-.185 2.934-.007 5.772.532 8.513.09.458.19.914.297 1.368h11.738a6.722 6.722 0 0 1-.023-2.028c.072-.527.075-1.06.01-1.6-.264-2.14-.574-4.274-.928-6.402-.195-1.169-.397-2.338-.607-3.507 0 .037-.038-.124-.113-.484a3.2 3.2 0 0 1-.08-.754c0-.05.01-.097.028-.144a.473.473 0 0 1 .273-.228c.028-.161.061-.322.099-.484.047-.214.078-.43.094-.647a1.34 1.34 0 0 1 .108-.45c.289-2.048.604-4.091.946-6.132.364-2.171.703-4.345 1.017-6.522.129-.9.282-1.794.461-2.684a34.815 34.815 0 0 1 1.261-8.82c-.009-.069.029-.342.114-.82.517-2.924.9-5.858 1.148-8.801.056-.692.04-1.386-.047-2.084a44.278 44.278 0 0 1-.226-2.242 26.578 26.578 0 0 1 .042-4.499c.044-.48.173-.943.386-1.386.003 0 .006-.002.01-.005a3.4 3.4 0 0 1 .09-.14c.031-.046.066-.09.103-.13a45.854 45.854 0 0 1-3.61-4.554 22.351 22.351 0 0 1-2.862-5.704 47.577 47.577 0 0 0-.664-1.874l-.31-.773c-.31-.772-.645-1.598-1.003-2.479a9.273 9.273 0 0 1-.621-2.382l.042-.07a31.538 31.538 0 0 1-2.767-1.158 16.1 16.1 0 0 1-2.768-1.67 373.32 373.32 0 0 0-.786 2.74 42.955 42.955 0 0 0-1.12 5.052Zm12.619 47.762a2.622 2.622 0 0 0-.005.038l.005-.038Z"/></svg>