<svg xmlns="http://www.w3.org/2000/svg" width="134" height="100" fill="none"><g clip-path="url(#a)"><rect width="134" height="100" fill="#EEE" rx="15"/><mask id="b" width="57" height="23" x="12" y="17" fill="#000" maskUnits="userSpaceOnUse"><path fill="#fff" d="M12 17h57v23H12z"/><path d="M20.2 37.5c-1 0-2-.2-2.9-.6-.2.3-.5.4-1 .4-.3 0-.6-.1-1-.4-.2-.2-.3-.5-.3-1a14.1 14.1 0 0 1 0-1.5V22.2c0-.5.1-1 .4-1.4.3-.5.7-.7 1.2-.7.8 0 1.1.4 1.1 1.2v5l1.5-.6c.5-.2 1-.2 1.4-.2a5 5 0 0 1 4 1.8c1 1.1 1.5 2.5 1.5 4.2 0 1.6-.5 3-1.6 4.2a5.7 5.7 0 0 1-4.3 1.8Zm.4-9.3-1.3.3-1.6 1V34c1 .4 1.8.6 2.5.6a3 3 0 0 0 2.2-1c.6-.5 1-1.3 1-2.2 0-1-.3-1.7-.8-2.4-.5-.6-1.2-.9-2-.9Zm16.8 9.5c-.3 0-.8-.3-1.5-1l-1.8.6-1.3.3c-1.7 0-3-.5-3.8-1.4-1-1-1.3-2.3-1.3-4.1a6 6 0 0 1 1.9-4.5 6.4 6.4 0 0 1 4.6-1.8 6 6 0 0 1 2.3.6c1.1.4 1.6 1 1.6 1.6 0 .2 0 .5-.2.7l-.2 1a18.5 18.5 0 0 0 .3 4.5 32.2 32.2 0 0 0 .9 2.2c0 .4-.2.7-.5 1-.3.2-.6.3-1 .3Zm-2.6-7.4a8.2 8.2 0 0 1 .2-1.7 2 2 0 0 0-.7-.2c-1 0-1.8.3-2.6 1.1-.7.8-1 1.6-1 2.6s.1 1.7.5 2.2c.3.5.8.7 1.5.7a3.6 3.6 0 0 0 2.4-.8l-.3-3.9Zm14.6-1c0 1-.6 1.6-1.5 1.6-1 0-1.4-.5-1.4-1.4v-1c-1.6.2-2.8 1-3.5 2.4v5.4c0 .4-.1.7-.4 1-.3.3-.6.4-1 .4-.5 0-.8-.1-1-.4-.3-.3-.4-.6-.4-1v-7a33 33 0 0 1 0-2c0-.4.1-.8.4-1 .2-.3.6-.4 1-.4.8 0 1.3.4 1.4 1.2 1.3-1 2.7-1.4 4.2-1.4s2.2 1 2.2 2.8v.8ZM60 37.4c-.6 0-1-.2-1.3-.8l-1.6-2.3-1.7-2.2-1.4 1-.1 2.8c0 .5-.2.8-.5 1-.2.3-.6.5-1 .5-1 0-1.5-.6-1.5-1.8a39.6 39.6 0 0 1 .2-5.1 167.6 167.6 0 0 1 0-8.2v-1c0-.5.2-.8.4-1.1.3-.3.7-.4 1.1-.4.4 0 .8.1 1 .4.3.3.5.6.5 1v2.2a84 84 0 0 1 0 6c1-.7 2.4-2 4.4-4a1.5 1.5 0 0 1 2.2 0c.3.2.4.6.4 1 0 .3-.1.6-.4.9-.8 1-1.9 2-3 3l2.2 2.8c1 1.5 1.6 2.4 1.6 3 0 .3-.1.6-.4 1-.4.2-.7.3-1.1.3Zm5.3-13.3c-.5 0-.9-.2-1.2-.5-.3-.3-.5-.7-.5-1.1 0-.4.2-.8.5-1.1.3-.3.7-.5 1.2-.5.4 0 .8.2 1.2.5.3.3.5.7.5 1.1 0 .4-.2.8-.5 1.1-.4.3-.8.5-1.2.5Zm.9 7.9a92.7 92.7 0 0 0 0 3.9c0 .4 0 .8-.3 1-.3.3-.7.4-1.1.4-.4 0-.8-.1-1-.4-.4-.2-.5-.6-.5-1a69.8 69.8 0 0 0 0-4v-2.3l.1-2.4c0-.4.2-.8.5-1 .2-.3.6-.5 1-.5.5 0 .8.2 1 .5.4.2.5.6.5 1l-.1 2.4-.1 2.4Z"/></mask><path fill="#000" d="M20.2 37.5c-1 0-2-.2-2.9-.6-.2.3-.5.4-1 .4-.3 0-.6-.1-1-.4-.2-.2-.3-.5-.3-1a14.1 14.1 0 0 1 0-1.5V22.2c0-.5.1-1 .4-1.4.3-.5.7-.7 1.2-.7.8 0 1.1.4 1.1 1.2v5l1.5-.6c.5-.2 1-.2 1.4-.2a5 5 0 0 1 4 1.8c1 1.1 1.5 2.5 1.5 4.2 0 1.6-.5 3-1.6 4.2a5.7 5.7 0 0 1-4.3 1.8Zm.4-9.3-1.3.3-1.6 1V34c1 .4 1.8.6 2.5.6a3 3 0 0 0 2.2-1c.6-.5 1-1.3 1-2.2 0-1-.3-1.7-.8-2.4-.5-.6-1.2-.9-2-.9Zm16.8 9.5c-.3 0-.8-.3-1.5-1l-1.8.6-1.3.3c-1.7 0-3-.5-3.8-1.4-1-1-1.3-2.3-1.3-4.1a6 6 0 0 1 1.9-4.5 6.4 6.4 0 0 1 4.6-1.8 6 6 0 0 1 2.3.6c1.1.4 1.6 1 1.6 1.6 0 .2 0 .5-.2.7l-.2 1a18.5 18.5 0 0 0 .3 4.5 32.2 32.2 0 0 0 .9 2.2c0 .4-.2.7-.5 1-.3.2-.6.3-1 .3Zm-2.6-7.4a8.2 8.2 0 0 1 .2-1.7 2 2 0 0 0-.7-.2c-1 0-1.8.3-2.6 1.1-.7.8-1 1.6-1 2.6s.1 1.7.5 2.2c.3.5.8.7 1.5.7a3.6 3.6 0 0 0 2.4-.8l-.3-3.9Zm14.6-1c0 1-.6 1.6-1.5 1.6-1 0-1.4-.5-1.4-1.4v-1c-1.6.2-2.8 1-3.5 2.4v5.4c0 .4-.1.7-.4 1-.3.3-.6.4-1 .4-.5 0-.8-.1-1-.4-.3-.3-.4-.6-.4-1v-7a33 33 0 0 1 0-2c0-.4.1-.8.4-1 .2-.3.6-.4 1-.4.8 0 1.3.4 1.4 1.2 1.3-1 2.7-1.4 4.2-1.4s2.2 1 2.2 2.8v.8ZM60 37.4c-.6 0-1-.2-1.3-.8l-1.6-2.3-1.7-2.2-1.4 1-.1 2.8c0 .5-.2.8-.5 1-.2.3-.6.5-1 .5-1 0-1.5-.6-1.5-1.8a39.6 39.6 0 0 1 .2-5.1 167.6 167.6 0 0 1 0-8.2v-1c0-.5.2-.8.4-1.1.3-.3.7-.4 1.1-.4.4 0 .8.1 1 .4.3.3.5.6.5 1v2.2a84 84 0 0 1 0 6c1-.7 2.4-2 4.4-4a1.5 1.5 0 0 1 2.2 0c.3.2.4.6.4 1 0 .3-.1.6-.4.9-.8 1-1.9 2-3 3l2.2 2.8c1 1.5 1.6 2.4 1.6 3 0 .3-.1.6-.4 1-.4.2-.7.3-1.1.3Zm5.3-13.3c-.5 0-.9-.2-1.2-.5-.3-.3-.5-.7-.5-1.1 0-.4.2-.8.5-1.1.3-.3.7-.5 1.2-.5.4 0 .8.2 1.2.5.3.3.5.7.5 1.1 0 .4-.2.8-.5 1.1-.4.3-.8.5-1.2.5Zm.9 7.9a92.7 92.7 0 0 0 0 3.9c0 .4 0 .8-.3 1-.3.3-.7.4-1.1.4-.4 0-.8-.1-1-.4-.4-.2-.5-.6-.5-1a69.8 69.8 0 0 0 0-4v-2.3l.1-2.4c0-.4.2-.8.5-1 .2-.3.6-.5 1-.5.5 0 .8.2 1 .5.4.2.5.6.5 1l-.1 2.4-.1 2.4Z"/><path fill="#E7E7E7" d="m17.3 37 .8-2-1.3-.4-.9 1 1.4 1.3Zm-2 0L14 38.3l1.4-1.5Zm-.3-1.8 2 .1-2-.1Zm.4-14.4 1.7 1-1.7-1Zm2.3 1-2-.3 2 .3Zm0 4.5h-2v3.4l3-1.6-1-1.8Zm1.5-.6.6 1.9-.6-2Zm5.5 1.6 1.5-1.3-1.5 1.3Zm-.2 8.4L23 34.3l1.5 1.4Zm-5.2-7.2-.8-1.8.8 1.8Zm-1.6 1-1.2-1.6-.8.5v1h2Zm0 4.6h-2v1.3l1.2.5.8-1.8Zm4.7-.3 1.5 1.4-1.5-1.4Zm.2-4.7 1.6-1.2-1.6 1.2Zm-2.4 8.4v-2c-.8 0-1.5-.2-2.1-.4l-.8 1.8-.7 1.9c1.2.4 2.4.7 3.6.7v-2Zm-2.9-.6L16 35.5l.2-.1h.3v4c.9 0 1.7-.4 2.4-1l-1.5-1.5Zm-1 .4v-2h.3l.1.2-1.3 1.4-1.4 1.5c.7.6 1.5 1 2.4 1v-2Zm-1-.4 1.5-1.4a.7.7 0 0 1 .2.5h-4c0 .9.3 1.7 1 2.4l1.4-1.5Zm-.3-1h2v-.6l-2-.1-2-.1v.9h2Zm0-.7 2 .1v-1h-4v.8h2Zm0-.8h2V22.2h-4v12.2h2Zm0-12.2h2l.1-.4-1.7-1-1.8-1c-.4.8-.6 1.6-.6 2.4h2Zm.4-1.4 1.7 1-.1.2h-.4v-4c-1.3 0-2.4.8-3 1.9l1.8 1Zm1.2-.7v2s-.3 0-.6-.4l-.3-.4h4c0-.7-.1-1.5-.8-2.3-.7-.7-1.6-1-2.3-1v2Zm1.1 1.2h-2v.2l2 .3 2 .3v-.8h-2Zm0 .5-2-.2v.6h4V22l-2-.2Zm0 .4h-2v4.1h4v-4h-2Zm0 4.1 1 1.8 1-.5-.5-2-.6-1.8c-.6.2-1.3.4-1.9.8l1 1.7Zm1.5-.6.6 1.9.8-.1v-4c-.7 0-1.3 0-2 .3l.6 1.9Zm1.4-.2v2c1.1 0 2 .3 2.6 1l1.5-1.2 1.5-1.3a7 7 0 0 0-5.6-2.5v2Zm4 1.8-1.4 1.3c.6.7 1 1.7 1 2.9h4c0-2.1-.7-4-2-5.5l-1.5 1.3Zm1.5 4.2h-2c0 1.1-.3 2-1 2.8l1.4 1.4 1.4 1.4a7.8 7.8 0 0 0 2.2-5.6h-2Zm-1.6 4.2L23 34.3c-.7.8-1.6 1.2-2.8 1.2v4c2.2 0 4.2-.8 5.7-2.4l-1.4-1.4Zm-3.9-7.5v-2c-.7 0-1.4.2-2 .5l.7 1.8.8 1.9.4-.2h.1v-2Zm-1.3.3-.8-1.8-2 1.2 1.2 1.6 1.1 1.6 1.3-.7-.8-1.9Zm-1.6 1h-2V34h4v-4.6h-2Zm0 4.6-.8 1.8c1.1.5 2.2.8 3.3.8v-4c-.3 0-.9-.1-1.7-.5l-.8 1.9Zm2.5.6v2a5 5 0 0 0 3.7-1.5l-1.5-1.4-1.4-1.4c-.2.2-.4.3-.8.3v2Zm2.2-1 1.5 1.5c1-1 1.4-2.4 1.4-3.7h-4c0 .4-.1.7-.3.9l1.4 1.4Zm1-2.2h2c0-1.3-.4-2.6-1.2-3.6l-1.6 1.2-1.6 1.3c.2.2.3.5.3 1h2Zm-.8-2.4 1.6-1.2a4.4 4.4 0 0 0-3.6-1.7v4c.3 0 .3 0 .4.2l1.6-1.3Zm13.3 7.5 1.4-1.4-1-1-1.3.6.9 1.8Zm-1.8.7-.6-1.9.6 2Zm-5.1-1-1.5 1.3 1.5-1.4Zm.6-8.7 1.4 1.5-1.4-1.5Zm7-1.2-.9 1.8.8-1.8Zm1.3 2.3-1.5-1.3-.3.3-.1.5 1.9.5Zm-.2 1-2-.1 2 .1Zm.3 4.5-2 .6 2-.6Zm.4 1.1-1.8.9 1.8-.9Zm0 2-1.3-1.5 1.3 1.5Zm-3.6-7.7-2-.3 2 .3Zm.2-1 2 .3.2-1.5-1.3-.6-1 1.8Zm-.4-.2-.7 1.9h.1l.6-1.9Zm-2.9 1.1 1.5 1.4-1.5-1.4Zm-.5 4.8-1.7 1.2 1.7-1.2Zm2.8.5.6 1.9-.6-1.9Zm1-.6 1.4 1.5.8-.7-.1-1-2 .2Zm2.4 3.5v-2l.5.1-.6-.6-1.4 1.4-1.5 1.4 1.3 1c.3.3 1 .7 1.7.7v-2Zm-1.5-1-.9-1.9-1.5.6.6 2 .6 1.9 2-.9-.8-1.8Zm-1.8.6-.6-1.9-.7.2v4c.7 0 1.3-.2 2-.4l-.7-1.9Zm-1.3.3v-2c-1.3 0-2-.4-2.4-.8L29 36.2l-1.5 1.4a7 7 0 0 0 5.3 2v-2ZM29 36.2l1.4-1.4c-.4-.4-.7-1.2-.7-2.7h-4c0 2 .5 4 1.8 5.5l1.5-1.4Zm-1.3-4.1h2a4 4 0 0 1 1.3-3l-1.4-1.5-1.4-1.4a8 8 0 0 0-2.5 5.9h2Zm1.9-4.5 1.4 1.5c.9-.9 1.9-1.3 3.2-1.3v-4c-2.3 0-4.4.8-6 2.4l1.4 1.4Zm4.6-1.8v2c.3 0 .8 0 1.5.4l.8-1.8.8-1.9a8 8 0 0 0-3.1-.7v2Zm2.3.6-.8 1.8a3.4 3.4 0 0 1 .6.3v-.1L36 28h4c0-2-1.7-3-2.8-3.5l-.8 1.9Zm1.6 1.6h-2a1 1 0 0 1 .3-.6l1.5 1.3 1.5 1.3a3 3 0 0 0 .7-2h-2Zm-.2.7-2-.5-.2 1.4 2 .1 2 .2.1-.8-2-.4Zm-.2 1-2-.1v1.7h4v-1.4l-2-.2Zm0 1.6h-2c0 1.4 0 2.6.4 3.5l1.9-.6 1.9-.6c-.1-.3-.2-1-.2-2.3h-2Zm.3 3-2 .6.3.5.3.8 1.8-.9 1.9-.8a106.8 106.8 0 0 1-.5-1l-1.8.7Zm.4 1-1.8.9.3.6a1 1 0 0 1 0-.1v-.3h4c0-.4-.1-.7-.2-.7v-.4l-.4-.8-1.9.8Zm.5 1h-2v-.2l.2-.3 1.3 1.5 1.3 1.6c.8-.7 1.2-1.5 1.2-2.5h-2Zm-.5 1-1.3-1.5H37.4v4c.9 0 1.7-.4 2.3-1l-1.3-1.5Zm-3.6-7h2v-.6l-2-.1-2-.2v1h2Zm0-.7 2 .2.1-.9-2-.3-2-.4v1.1l2 .3Zm.2-1 .9-1.8a4 4 0 0 0-.8-.3l-.5 2-.5 1.8.9-1.7Zm-.4-.2.6-1.9-1-.1v4a1.3 1.3 0 0 1-.3-.1l.7-1.9Zm-.3 0v-2c-1.6 0-3 .6-4 1.7l1.4 1.4 1.5 1.4c.4-.4.7-.5 1-.5v-2Zm-2.6 1.1-1.4-1.4a5.7 5.7 0 0 0-1.7 4h4c0-.4.2-.8.6-1.2l-1.5-1.4Zm-1 2.6h-2c0 1.2.1 2.4.8 3.4l1.7-1.2 1.6-1.1v-.3l-.2-.8h-2Zm.5 2.2-1.7 1.2c.8 1 2 1.5 3.2 1.5v-4c-.1 0-.1 0 0 0a.4.4 0 0 1 0 .1l-1.5 1.2Zm1.5.7v2c.7 0 1.3 0 2-.3l-.7-1.9-.7-1.9-.6.1v2Zm1.3-.2.7 1.9a6 6 0 0 0 1.7-1L35 34.2l-1.3-1.6a2 2 0 0 1-.5.3l.7 2Zm1-.6 2-.3a32 32 0 0 1-.2-3.6h-4c0 1 0 2.4.3 4.1l2-.2Zm14.4-5h-2 2Zm-2.9.3h2v-.1l-2 .1Zm0-1 2-.2-.1-2.2-2.2.3.3 2ZM43 30.8l-1.8-.9-.2.4v.5h2Zm0 5.4h2-2Zm-.4 1L41.2 36l1.4 1.4Zm-2 0L42 36l-1.5 1.3Zm-.4-9h2-2Zm.4-2L39 24.9l1.5 1.4Zm2.4.8-2 .4.6 3.1 2.6-1.9-1.2-1.6Zm6.4 2.2-2-.2c0 .3 0 .2 0 0l.4-.2s.1 0 0 0v4c1 0 2-.3 2.6-1a4 4 0 0 0 1-2.5l-2-.1Zm-1.5 1.6v-2l.4.3c.3.2.2.5.2.3h-4c0 .8.2 1.7 1 2.4.7.8 1.6 1 2.4 1v-2Zm-1.4-1.4 2-.1v-1h-2l-2 .1v1.1l2-.1Zm0-1-.3-2c-2.2.3-4 1.5-5 3.5l1.8.9 1.8.9c.4-.8 1-1.2 2-1.4l-.3-2ZM43 30.8h-2v5.4h4v-5.4h-2Zm0 5.4h-2v-.2l.2-.2 1.4 1.4 1.4 1.5c.7-.7 1-1.6 1-2.5h-2Zm-.4 1L41.2 36l.2-.1h.2v4c.8 0 1.7-.4 2.4-1l-1.4-1.5Zm-1 .4v-2h.1l.3.3-1.5 1.3-1.5 1.3c.7.8 1.6 1.1 2.6 1.1v-2Zm-1-.4L42 36l.2.2v.1h-4c0 .8.2 1.6.8 2.3l1.5-1.3Zm-.4-1h2v-7h-4v7h2Zm0-7h2v-1h-4v1h2Zm0-1h2v-1h-4v1h2Zm0-1h2v.1l-.1.2-1.5-1.3-1.5-1.4c-.6.7-.9 1.6-.9 2.4h2Zm.4-1 1.5 1.3-.3.2h-.2v-4c-.9 0-1.8.4-2.5 1.1l1.5 1.4Zm1-.4v2l-.3-.2-.2-.2 2-.4 1.9-.4c-.1-.7-.5-1.4-1.1-2-.7-.6-1.5-.8-2.3-.8v2ZM43 27l1.2 1.6c1-.7 2-1 3-1v-4c-2 0-3.8.6-5.4 1.8L43 27Zm4.2-1.4v2h.2l-.1-.1v.2l.1.7h4c0-1.1-.2-2.3-1-3.3s-2-1.5-3.2-1.5v2Zm2.2 2.8h-2a29.2 29.2 0 0 1 0 .6l2 .2h2v-.8h-2Zm9.3 8.1-1.8 1 1.8-1Zm-1.6-2.3-1.6 1.3 1.6-1.3Zm-1.7-2.2L57 31l-1.2-1.6-1.6 1.2 1.2 1.6Zm-1.4 1-1-1.7-1 .5v1l2 .2Zm-3 0-2-.2 2 .1Zm.2-6.2h-2 2Zm0-4.6-2 .1 2-.1Zm.3-2.1 1.4 1.4-1.4-1.4Zm2.2 0-1.4 1.4 1.4-1.4Zm.4 6.3h2-2Zm0 3h-2v4l3.2-2.5-1.2-1.5Zm4.4-4.1 1.4 1.4-1.4-1.4Zm2.2 0-1.4 1.4 1.4-1.5Zm0 1.9L59.2 26l1.5 1.3Zm-3 3-1.3-1.5-1.5 1.2 1.2 1.5 1.6-1.2Zm2.2 2.8 1.6-1.2-1.6 1.2Zm1.2 4-1.3-1.6L61 37Zm-1.1.3v-2l.3.1.2.2-1.8 1-1.8.9c.3.5.7 1 1.3 1.3.5.4 1.2.5 1.8.5v-2Zm-1.3-.8 1.8-1c-.5-.7-1-1.6-1.8-2.5L57 34.3l-1.6 1.3c.7.8 1.2 1.5 1.4 2l1.8-1Zm-1.6-2.3 1.6-1.2a1709 1709 0 0 1-1.7-2.2l-1.6 1.2-1.6 1.2 1.7 2.3 1.6-1.3Zm-1.7-2.2-1.2-1.6-1.3.9 1 1.7 1.1 1.7 1.6-1-1.2-1.7Zm-1.4 1-2-.2-.1 3h4v-2.7l-2-.1Zm-.1 2.8h-2v-.1l.1-.3 1.4 1.5 1.4 1.4c.7-.7 1-1.5 1-2.5h-2Zm-.5 1L52 35.6h.3v-.1 4c1 0 1.8-.3 2.5-1L53.4 37Zm-1 .5v-2l.4.2v.2-.2h-4c0 .8.2 1.8 1 2.6.6.9 1.7 1.2 2.6 1.2v-2Zm-1.5-1.8h2v-2.4l-2-.2-2-.1v2.7h2Zm0-2.6 2 .2c.2-1.2.2-2 .2-2.7h-4l-.1 2.4 2 .1Zm.2-2.5h2V27h-2l-2-.1v3.6h2Zm0-3.6h2l.1-3.5h-4v3.5h2Zm.1-3.5h2V22l-2 .2-2 .2v.9h2Zm0-1.1 2-.1v-1h-4v1.2l2-.1Zm0-1h2l-.1.1-.2.2-1.4-1.4-1.3-1.5c-.8.7-1 1.6-1 2.5h2Zm.3-1.1 1.4 1.4-.2.1h-.1v-4c-.9 0-1.8.4-2.5 1l1.4 1.5Zm1.1-.4v2h-.1l-.2-.2 1.4-1.4 1.4-1.4c-.7-.7-1.6-1-2.5-1v2Zm1 .4-1.3 1.4a.7.7 0 0 1-.2-.4h4c0-1-.4-1.8-1-2.5l-1.4 1.5Zm.5 1h-2v1.3l2-.2 2-.1v-1h-2Zm0 1.1-2 .2v1h4v-1.3l-2 .1Zm0 1.1h-2v3h2l2 .1v-3h-2Zm0 3h-2v3h4v-2.9h-2Zm0 3 1.2 1.6a56 56 0 0 0 4.6-4.2l-1.4-1.4-1.4-1.5a53 53 0 0 1-4.3 4l1.3 1.6Zm4.4-4 1.4 1.4h-.3v-4c-1 0-1.9.5-2.5 1.1l1.4 1.5Zm1-.5v2a.5.5 0 0 1-.2-.1l1.4-1.5L62 24c-.6-.6-1.5-1-2.4-1v2Zm1.2.4-1.4 1.5-.1-.2v-.3h4c0-1-.5-1.8-1.2-2.4l-1.3 1.4Zm.4 1h-2V26h.1l1.5 1.3 1.5 1.3c.5-.5 1-1.3 1-2.3h-2Zm-.4 1L59.2 26l-2.8 2.8 1.3 1.5 1.3 1.5 3.2-3.2-1.5-1.3Zm-3 3L56 31.5l2.2 2.9L60 33l1.6-1.2-2.2-2.9-1.6 1.3Zm2.2 2.8-1.6 1.2a15.4 15.4 0 0 1 1.3 2V36h4c0-.8-.5-1.6-.7-2l-1.4-2L60 33Zm1.6 3h-2a.7.7 0 0 1 .3-.6L61 37l1.3 1.5c.7-.6 1.1-1.5 1.1-2.5h-2Zm-.4 1-1.4-1.6H60v4c.9 0 1.7-.4 2.4-1L61 37Zm5.4-15.7L65 22.8l1.4-1.4Zm0 2.2L65 22.2l1.4 1.4ZM66.2 34h-2 2Zm-.3 3 1.3 1.5-1.3-1.5Zm-2.2 0-1.4 1.5 1.4-1.5Zm-.4-3h-2 2Zm.6-7.7 1.3 1.4-1.3-1.4Zm2 0-1.3 1.4 1.4-1.4Zm-.6-2.1v-2h.1l-1.3 1.5-1.4 1.5c.7.6 1.6 1 2.6 1v-2Zm-1.2-.5 1.3-1.4.1.1v.2h-4c0 1 .5 2 1.2 2.6l1.4-1.5Zm-.5-1.1h2v.2l-.2.1-1.3-1.4-1.4-1.5c-.7.7-1.1 1.6-1.1 2.6h2Zm.5-1.1 1.3 1.4-.1.1v-4c-1 0-1.9.3-2.6 1l1.4 1.5Zm1.2-.5v2H65l1.4-1.5 1.3-1.5c-.7-.7-1.6-1-2.5-1v2Zm1.2.5L65 22.8v-.1l-.1-.2h4c0-1-.4-2-1.2-2.6l-1.3 1.5Zm.5 1.1h-2v-.2l.1-.1 1.4 1.4 1.3 1.5c.8-.7 1.2-1.6 1.2-2.6h-2Zm-.5 1.1L65 22.2l.2-.1v4c1 0 1.8-.4 2.5-1l-1.3-1.5Zm-.3 8.4h-2v2h2l2-.1v-2h-2Zm0 2h-2v1.9h4v-2h-2Zm0 1.9h-2l.1-.2.2-.2 1.4 1.4 1.3 1.5c.7-.7 1-1.6 1-2.5h-2Zm-.3 1-1.4-1.4.2-.2s.1 0 0 0v4c1 0 1.8-.3 2.5-1L66 37Zm-1.1.4v-2h.1l.2.2-1.4 1.4-1.4 1.5c.7.6 1.6 1 2.5 1v-2Zm-1-.4 1.3-1.4a.7.7 0 0 1 .2.4h-4c0 1 .3 1.8 1 2.5l1.4-1.5Zm-.5-1h2v-2h-4v2h2Zm0-2h2v-2h-4v2h2Zm0-2h2v-2.2l-2-.1-2-.2V32h2Zm0-2.3 2 .1.1-2.5h-4v2.2l2 .2Zm.1-2.4h2v.2l-.2.2-1.3-1.4-1.4-1.5c-.7.7-1 1.6-1 2.5h2Zm.5-1 1.4 1.4-.2.1h-.2v-4c-.9 0-1.7.3-2.4 1l1.4 1.5Zm1-.5v2h-.1l-.2-.1 1.4-1.4 1.4-1.5c-.7-.7-1.6-1-2.5-1v2Zm1 .5-1.3 1.4a.7.7 0 0 1-.2-.4h4c0-1-.3-1.8-1-2.5L66 26.2Zm.5 1h-2v2.2l1.9.2 2 .1.1-2.5h-2Zm-.1 2.4-2-.2-.1 2.6h4l.1-2.3-2-.1Z" mask="url(#b)"/><path fill="#fff" d="M14 62a8 8 0 0 1 8-8h9a8 8 0 0 1 8 8v9a8 8 0 0 1-8 8h-9a8 8 0 0 1-8-8v-9Z"/><path fill="#000" d="M28.8 54.6H28l-.4.3-.3.2-1.2.4h-1.8l-.3-.1h-.4l-.8-.2h-.3l-.4-.1H22l-.6.3c-.3.1-.6 0-.8 0l-.8-.2h-.2l-.3.2-.4.1a4 4 0 0 0-.5.3l-.4.2-.3.2-.7.4-.3.2-.3.1v.4l-.2.5c0 .3-.1.7-.3 1l-.2.3-.1.3-.2.5-.2.7-.3 1-.2.3-.2.3.2.3.2.3c.3.5.3 1 .2 1.5v.3l-.1.4-.2.9-.2.7.2.4.1.4c.3.6.3 1.2 0 1.7l-.2.4-.2.2.2.3.2.3c.2.5.3 1 .1 1.6v.4l-.2.3.2.3.2.3.4 1.1v.4l.2.3.3.2.3.2.7.4.3.2.4.2c.3.2.6.5.8.9l.3.4.2.3.4.2.4.1h2.2l.7.1h.1l.4-.2.4-.2a2 2 0 0 1 1-.3h.4l.4.1.4.1H27.8l.8-.2c.5 0 1 0 1.4.3l.4.2.3.1h.2l.4-.2c.4-.2.9-.3 1.3-.2h1.6l.4-.1.2-.4.2-.3c.1-.4.3-.6.5-.9l.3-.3.2-.2.4-.5.2-.3.5-1 .2-.2.2-.3.3-.6.2-.3.1-.4-.1-.3-.2-.4-.2-1v-.8c-.1-.6 0-1 .4-1.4l.2-.4.3-.3-.1-.3-.2-.4V65l.1-.4-.4-.8-.3-1.2v-1.4l-.1-.4v-1.1l-.1-.4V59l-.1-.6-.2-.4v-.4l-.4-.1-.4-.2-.7-.4-.3-.2-.4-.2a3 3 0 0 1-.8-.8l-.3-.4v-.1h-.3l-.4.1h-1.3L31 55l-.7-.3H30l-.4-.2h-.8ZM21 53l.3-.3.4-.2c.3 0 .6 0 .9.3l.2.4h.4l.7.2h2.4l.4-.2.3-.3 1.2-.3h.8l1 .1.4.1.4.1.8.3h.3l.4.2h.2l.9-.2.4-.1.5.1c.4.1.6.3.8.6l.3.3.2.4.3.3.3.1.3.2.6.4.4.2.4.2c.5.2.8.6 1 1.2v.3l.2.4.1 1v.4l.1.4v1.1l.1.3v1.5c0 .1 0 .2.2.3l.3.8c.3.4.4 1 .3 1.4l-.2.8v.2l.1.4.2.3c.2.6 0 1.2-.3 1.7l-.5.7v1.3l.2.4.2.4c.2.5.2 1 0 1.5l-.2.4-.1.3a6 6 0 0 1-.5.8l-.2.3-.2.4-.4.6-.2.3-.2.3-.5.7-.2.2-.3.3-.3.5-.2.4-.2.3c-.2.5-.7.9-1.2 1l-.8.2H32l-.3.1-.4.2c-.5.3-1.1.2-1.6 0l-.8-.5-.8.1-.9.1h-1.7l-.8-.2-.4.2-.4.2c-.4.3-.9.4-1.3.3h-2.2c-.4 0-.8 0-1.1-.2l-.8-.2a2 2 0 0 1-1.1-1l-.3-.3-.2-.4-.2-.2-.6-.4-.6-.3-.4-.2-.4-.2c-.5-.3-.8-.8-.9-1.3V75l-.2-.4-.1-.4-.4-.7c-.3-.5-.4-1-.2-1.5l.1-.4.1-.4-.2-.4-.2-.3c-.3-.6-.3-1.2 0-1.8l.2-.3.2-.3-.1-.3-.2-.4a2 2 0 0 1-.2-1.5l.3-.7.1-.7.1-.3v-.5l-.1-.4-.3-.3c-.2-.6-.3-1.2 0-1.7l.2-.4.2-.4.2-.5v-.3l.2-.4.3-.9.3-.6.2-.5V57l.1-.4.1-.4.8-1 .4-.1.3-.2.7-.4.3-.2.4-.2.8-.4.3-.2.4-.1c.4-.2.9-.2 1.3-.1h.4l.1.1.2-.3.1-.1Z"/><path stroke="#000" stroke-linecap="round" stroke-width="2" d="M21 71.1c1 3 4.3 5 5.2 3.3 1.6-2.9 5.2-14.7 5.8-16.4"/><path fill="#DE9E71" d="M113.8 98.5c0-.6-.3-1.1-.5-1.6-.3-.4-.4-.8-.6-1.3v.4a81 81 0 0 0-1 5.2h2.6l-.5-2.7Zm-.3-79a8 8 0 0 1-.2-1.2 45.8 45.8 0 0 1-1.4-.2c-.6-.3-1.3-.3-2-.1l-.7.2-2 1h-.5c-.2 0-.4 0-.5.2a2 2 0 0 0-.3.5c.2 1.2.1 2.3-.3 3.4-.1.4-.4.7-.7 1a8.2 8.2 0 0 0-1.3 1c-.6 1-1 2-1 3 0 1.2-.7 2-1.8 2.2h-1.5c-.2 0-.3-.1-.4-.3a42.2 42.2 0 0 0-1.8-2.4L97 29l-.1.1c-.5.1-.7 0-.7-.5a2 2 0 0 0-1.2-2l-1.5-.3a3 3 0 0 0-1 .5v.1l-.2.2h-.1a4.8 4.8 0 0 0-.7 2v.3l.4 1c0 .4.2.8.3 1.1a3.5 3.5 0 0 0 0 .4c.2.8.6 1.4 1.2 2 .6.5 1.3.9 2 1.2.3 0 .5.2.8.3h.8l.1-.1v-.1h.1V35a2 2 0 0 1 .1-.2 1.7 1.7 0 0 0 0-.2v-.4c.2-.1.3-.2.5-.1l.2.1c.3.4.2.9 0 1.3s-.6.7-1 .7a3 3 0 0 1-.7 0 6.8 6.8 0 0 1-3-1.2 5.2 5.2 0 0 1-1.7-2.3 47.4 47.4 0 0 0-.5 3.8c-.7.9-1.5 1.4-2.6 1.5l-.7-.2-.3-.2-.1 2a3.7 3.7 0 0 1-.4 1l-.7 2.8c-.2.7-.6 1.3-1 1.8l-1.2 1c-.8.8-1.7 1.5-2.6 2a32.7 32.7 0 0 0-3 2.3 6.6 6.6 0 0 0-1.8 2.2l.5-.4c.8-.5 1.8-1 2.8-1.2a7.5 7.5 0 0 1 3-.2c.8 0 1.5 0 2.1.3l1 .2c1 .2 2.1.7 3 1.3a18 18 0 0 1 2.6 2 7 7 0 0 1 1.8 2.4 9.7 9.7 0 0 1 .9 3.4c.1.8 0 1.5-.1 2.3l-.3.6a26.2 26.2 0 0 1-2.8 4.2 7.5 7.5 0 0 1-1 1l-1.1.7-1.7 1-2 1.5-2.3 1.7-1.7 1.4c-.2.3-.5.5-.8.6v.2c0 .2-.2.3-.5.2-1-.2-1.7-.6-2.5-1a30.6 30.6 0 0 1-8.3-8.1 15.9 15.9 0 0 1-.3 1.8 30 30 0 0 0 0 3.5 37 37 0 0 1 .8-2.5l.2-.1c.4 0 .5.2.5.6l-.7 2.3a15.7 15.7 0 0 0-.9 5.4 56.8 56.8 0 0 0 1.3 10 170.7 170.7 0 0 0 .2 4.8 53 53 0 0 1-.3 5.8 32 32 0 0 0 1.3 2.8H85l.2-.2a7.4 7.4 0 0 1-.5-3.2 6 6 0 0 1 0-.4c0-.6.3-1.2.6-1.9a18 18 0 0 1 1.4-2.1 31.2 31.2 0 0 0 3-5.9 21.1 21.1 0 0 0 1-6.3 6.2 6.2 0 0 1 .1-.4 33.3 33.3 0 0 0 .5-6.7c0-.8 0-1.5.2-2.2l.1-.2c0-.2.2-.4.4-.5l.6-.5a33.6 33.6 0 0 0 1-1.4c.5-.2.7 0 .7.4v.3a18.7 18.7 0 0 1-2 2.2 282.2 282.2 0 0 1-.6 8.5l-.4 3.3a17.7 17.7 0 0 1-2 6.5 30.3 30.3 0 0 1-2.8 4.8c-.3.4-.6.8-.7 1.3a5.3 5.3 0 0 0-.2 2l.3 1.6a6.7 6.7 0 0 1 .2 1h24.7v-.1a20.5 20.5 0 0 1 1.3-6.4 107 107 0 0 0 1-2.8c0-1 0-2-.2-2.9v-.3a24.3 24.3 0 0 0 .5-2.7v-1.8.1a17.9 17.9 0 0 0-.3-2l-.1-.1a21 21 0 0 1-1.5-1c-.4-.5-.4-.7 0-1h.3l1.7 1.3c.6-.6 1-1.2 1.4-2 .3-.4.4-.9.6-1.3a6.3 6.3 0 0 0 .3-2.7l-.1-.7A64.4 64.4 0 0 0 114 69a161.6 161.6 0 0 1-1.9-4v-.1l-.7-1.1a32.7 32.7 0 0 1-2-2.6 68.3 68.3 0 0 0-3.4-3V58c-1-.7-2-1.2-3-1.6-.3 0-.3-.2-.2-.5h-.1c-.4-1.2-.3-2.2.3-3.2a14.6 14.6 0 0 0 1.8-6.4h-.1l-2.2-1v-.2c0-.4.1-.6.5-.4l.4.1a21.9 21.9 0 0 0 6 1.8c1.1.2 2.2.3 3.3.2l.7-.3a2 2 0 0 0 .5-2.4c0-.3-.1-.6 0-.8 0-.7.2-1.3.6-1.8l.4-.9.1-.3h-.2l-.7-.1a22.1 22.1 0 0 1-1.5-.1 2.7 2.7 0 0 1-1-.5.4.4 0 0 1-.2-.4l.2-.3h.4c.7.3 1.4.5 2.2.4h.9l.3-.7.2-.5a18.4 18.4 0 0 1 .4-1.9 7.5 7.5 0 0 1-1.4 0h-.3a.8.8 0 0 1-.1 0l-.1.1h-.1a.4.4 0 0 1-.3-.3v-.3l.1-.2.7-.2.8.1a52.4 52.4 0 0 1 2.5-.4h.1V35a5.4 5.4 0 0 0 .2-.7 62.4 62.4 0 0 0-3-5.8c-.2-.4-.1-.7.1-1a4.8 4.8 0 0 0 .3-.8 7 7 0 0 0 0-.5 74.1 74.1 0 0 0-2-6.7ZM109 70.6a42.2 42.2 0 0 1 .8 4.7c0 .9-.2 1.7-.4 2.5-.3 1.1-.9 2-1.7 2.7-.4.4-.9.7-1.4.8-1 .4-2.1.6-3.2.6a22.9 22.9 0 0 1-3.6-.7 15 15 0 0 1-3.8-1.6.4.4 0 0 1-.1-.4c0-.2.1-.3.2-.3.6 0 1.1.2 1.6.5 1 .6 2 1 3.2 1.2.3 0 .6 0 .9.2a7 7 0 0 0 5-.5c.9-.5 1.5-1.2 1.8-2.1l.3-.9c.3-1 .3-2.1.2-3.2l-.5-2.6a31.8 31.8 0 0 0-1.4-3.7c0-.4.1-.6.5-.6.1 0 .2 0 .3.2.5 1 1 2.1 1.3 3.2Zm-16.6-4.3Zm1.4-36.7c0-.4.2-.6.5-.5.2 0 .4.1.4.4a1 1 0 0 1 0 .2c0 .6.1 1.2.4 1.8a240.9 240.9 0 0 0 .6 2 .5.5 0 0 1-.1.1H95c-.3-.2-.5-.5-.6-1a10 10 0 0 0-.5-1.1c-.2-.6-.4-1.3-.3-2Zm20-.7a.5.5 0 0 1 0 .1h-.1c0 .5-.3.9-.6 1.2-.5.4-1 .6-1.5.7h-1c-.7 0-1.4-.2-2.1-.4-.6-.3-1-.7-1-1.2V29l-.2-.2c.2-.6.5-1 1-1.4.9-.7 2-1 3.1-1 .7.1 1.2.4 1.7 1l.5.8.2.4v.2Zm-1.6-3.1c-.8-.2-1.6-.1-2.4.2l-.7.3c-1 .4-1.7 1-2.2 1.6-.2.2-.4.3-.7.2a.4.4 0 0 1-.2-.4c.1-.5.5-1 1-1.2l3-1.5a3.7 3.7 0 0 1 2.9.1c.7.3 1.3.8 1.7 1.4v.2c-.2.4-.4.4-.7.1l-.4-.2a5.4 5.4 0 0 0-1.3-.8Zm-8.8 50.9c.2 0 .4.2.4.5s-.2.4-.5.4c-.4-.2-.5-.4-.3-.8l.3-.1Z"/><path fill="#000" d="m92 71.2-.4.5-.1.2-.2 2.2a48.8 48.8 0 0 1-3 16.5 31.2 31.2 0 0 1-3 5 4.9 4.9 0 0 0-.6 2.2 8.4 8.4 0 0 0 .5 3.2l-.2.2h1.1c0-.4 0-.7-.2-1a11.2 11.2 0 0 1-.3-2.2c0-.5 0-1 .2-1.4a87.8 87.8 0 0 0 3.6-6.1 20.2 20.2 0 0 0 2-6.5A81 81 0 0 1 92 79a86.1 86.1 0 0 0 .3-6.7l.8-.8a18.7 18.7 0 0 0 1.2-1.7c0-.5-.2-.6-.6-.4l-.2.1a33.7 33.7 0 0 1-1.5 1.8Zm-.8 13.6Zm-.9-.1Zm-4.7 12.7Zm18-20.2c0-.3 0-.5-.3-.5l-.4.1c-.2.4-.1.6.2.8.4 0 .5-.1.6-.4Zm8.5-51.4a6.8 6.8 0 0 1 1.3.8l.4.2c.3.3.5.3.7-.1v-.2a4.3 4.3 0 0 0-2.5-1.7c-.7-.1-1.4 0-2 .2-1.1.4-2.2.9-3.1 1.5a2 2 0 0 0-1 1.2v.1a.4.4 0 0 0 .2.3c.3 0 .5 0 .7-.2.5-.7 1.3-1.2 2.2-1.6l.7-.3c.8-.3 1.6-.4 2.4-.2Zm1.5 3.2a.5.5 0 0 0 0-.3v-.4a3 3 0 0 0-.6-.9c-.5-.5-1-.8-1.7-.8-1.2-.1-2.2.2-3.1.9-.5.4-.8.8-1 1.4l.2.2v.2c0 .5.4 1 1 1.2a6.4 6.4 0 0 0 3.1.4c.6-.1 1-.3 1.5-.7.3-.3.5-.7.6-1.1V29Zm-.9-.3v.5h-.1v.1a4.2 4.2 0 0 0-.2.2l-.1.2-.4.1.1-1.2c0-.3 0-.6-.2-1 .3.2.6.5.9 1Zm-1.9-1.3-.1.3a3.7 3.7 0 0 0 0 2.3h-1c-.6 0-1.1-.3-1.5-.8l-.1-.2.2-.2a3.2 3.2 0 0 1 2.5-1.4Zm-16.6 1.7c-.3 0-.5 0-.5.5 0 .6 0 1.3.3 1.9l.5 1.2c.1.4.3.7.6 1a.7.7 0 0 0 .2 0 .4.4 0 0 0 .2-.1.5.5 0 0 0 .2-.3l-.1-.3-.6-1.5c-.3-.6-.4-1.2-.5-1.8a.8.8 0 0 0 0-.2c0-.3 0-.4-.3-.4Zm1 3.7Zm-3 33.5Zm17.3 7.1-.6-2.8a16 16 0 0 0-1.3-3.2l-.3-.2c-.4 0-.6.2-.5.6l.3.5a31.8 31.8 0 0 1 1.6 5.8 9.4 9.4 0 0 1-.5 4.1c-.3 1-1 1.6-1.8 2-.4.3-.8.4-1.3.5a7 7 0 0 1-3.7 0l-1-.1a9 9 0 0 1-3-1.2 4 4 0 0 0-1.6-.5c-.2 0-.3.1-.3.3l.1.4.3.1.5.3a15 15 0 0 0 3.4 1.3c1 .3 2.1.5 3.2.6 1.1 0 2.1-.2 3.2-.6.5-.1 1-.4 1.4-.8.8-.7 1.4-1.6 1.7-2.7a9.2 9.2 0 0 0 .2-4.4Zm2.7-60.7c-.3 0-.6-.2-.9-.4a51.1 51.1 0 0 1-5.4-1l-3.4-.3-3.3-.3c-1 0-2.2.1-3.3.4a120.8 120.8 0 0 0-3.9.9l-1.5.2a7 7 0 0 0-2 .6c-1 .4-1.8 1-2.5 1.9l-.5.6a8 8 0 0 0-2 3.4l-.4 1.5a14 14 0 0 0-.1 6.5l.2.9a37.5 37.5 0 0 0 1.2 2.9c0 .3.2.6.4.9a14.6 14.6 0 0 1 1.4 3.8 8.8 8.8 0 0 1 .3 3.5.8.8 0 0 0 0 .1v.2a4.6 4.6 0 0 1-.2.8 88.4 88.4 0 0 0-1 3.5 8.9 8.9 0 0 1-2.5 3 620.2 620.2 0 0 1-4 2.8 12 12 0 0 0-2.4 2.3c-.5.7-.8 1.4-1 2.2a25.6 25.6 0 0 0-1.6 1.3c-.8.5-1.6 1.2-2.3 2-.7.7-1.2 1.6-1.5 2.6a57.6 57.6 0 0 0-1.8 9l-.1.7a21.4 21.4 0 0 0 .2 5v.1a1.3 1.3 0 0 1 0 .1l-.2 1.7a58.8 58.8 0 0 0 1.1 10.7 73.8 73.8 0 0 0 .3 4.3 48.1 48.1 0 0 1-.4 6.9 13.5 13.5 0 0 0 1.2 3.1v.1h1.1l-.4-.7c0-.2 0-.4-.2-.6l-.7-1.5-.1-.4a187.3 187.3 0 0 0 .4-5.4 34.2 34.2 0 0 0-.7-8 28 28 0 0 1-.6-9.7l.7-2.5.7-2.3c0-.4-.1-.6-.5-.6l-.2.1-.4.9L69 72v-1a30 30 0 0 1 .4-4.3 14.4 14.4 0 0 0 3.3 4.2l.8.7a30.6 30.6 0 0 0 4.2 3.2 12.2 12.2 0 0 0 2.5 1c.3 0 .4 0 .5-.2v-.2c.3-.1.6-.3.8-.6l1.7-1.4c.8-.5 1.5-1 2.2-1.7a33.5 33.5 0 0 1 4.9-3.3l1-.9a16.4 16.4 0 0 0 3-4.8 5.4 5.4 0 0 0 .1-2.6 8.8 8.8 0 0 0-.8-3 7 7 0 0 0-1.8-2.6 18 18 0 0 0-2.5-2c-1-.5-2-1-3.1-1.2l-1-.2a4.7 4.7 0 0 0-2-.3c-1-.1-2 0-3 .2a9.7 9.7 0 0 0-3.4 1.6l.3-.5c.4-.7 1-1.3 1.5-1.7l.3-.3 2.7-2a22.4 22.4 0 0 0 3.7-3c.5-.5.9-1.1 1-1.8a24.7 24.7 0 0 0 .9-3l.3-.8v-2l.4.2.7.2c1 0 2-.6 2.6-1.5l.1-.4a17.6 17.6 0 0 0 .2-1.8 47.7 47.7 0 0 1 .4-1.3c.3.8.8 1.4 1.5 2 1 .6 2 1 3 1.3h.6c.5-.1.9-.4 1-.8.3-.4.4-.9.1-1.3l-.2-.1-.4.1c-.1.1-.2.2-.1.4a2.5 2.5 0 0 1 0 .2v.2a.4.4 0 0 1-.1.2l-.2.1h-.8l-.8-.2c-.7-.3-1.4-.7-2-1.3a3.6 3.6 0 0 1-1.2-2.3l-.3-1-.4-1.1V29l.2-.9.5-1a6.7 6.7 0 0 1 .4-.4 3 3 0 0 1 1-.4c.5 0 1 .2 1.4.4l.4.2c.5.4.8 1 .8 1.7 0 .5.2.6.7.5.2-.5.2-.9.1-1.2l1 1c.4.4.7.8.9 1.3.1.2.2.2.4.2h.6c.3.2.6.2.9.1 1.1-.3 1.7-1 1.8-2.2a5.8 5.8 0 0 1 1.2-3.2l1.1-.9c.3-.2.6-.5.7-.9a6.5 6.5 0 0 0 .3-3.5l.3-.4.5-.3h.6a17.8 17.8 0 0 1 2.6-1.1c.7-.2 1.4-.2 2 .1l.3.2h1l.3 1.2a82.5 82.5 0 0 0 2 7v.2a14.1 14.1 0 0 1-.3.8c-.2.3-.3.6-.2 1l.2.3 1.4 2.4a62.4 62.4 0 0 1 1.5 3.4 5.4 5.4 0 0 1-.2.4v.1l-.3.1-1 .2a52.4 52.4 0 0 0-2.9.4v.3c0 .2.2.2.3.3h.1a.8.8 0 0 0 .2 0h.3a14 14 0 0 0 1.4 0l-.1.1a18 18 0 0 0-.3 1.7l-.2.5a5 5 0 0 0-.3.7 2 2 0 0 0-.9 0c-.8 0-1.5 0-2.2-.4h-.4l-.2.3.1.4.3.2.8.3h.8a22.2 22.2 0 0 0 1.6.1v.4l-.5.9a4 4 0 0 0-.7 1.8l.1.8a2 2 0 0 1-.5 2.4l-.7.3a9.8 9.8 0 0 1-3.5-.3 67.6 67.6 0 0 1-6.2-1.8c-.4-.2-.6 0-.6.4l.1.2a16.4 16.4 0 0 0 2.3 1l-.1 1.4-.2.8-.3 1.2-1.2 3c-.6 1-.7 2-.3 3.1v.1c0 .3 0 .4.3.5 1 .4 2 .9 3 1.6a104.8 104.8 0 0 1 4.5 4.3 32.7 32.7 0 0 0 1 1.4l.6 1.1v.2c.1 0 .1.1 0 0a45 45 0 0 1 2.8 6.3 64.4 64.4 0 0 1 1 4.3c0 .9-.2 1.7-.4 2.5-.2.4-.3.9-.6 1.3-.3.8-.8 1.4-1.4 2a43.6 43.6 0 0 0-2-1.3c-.4.3-.4.5 0 .9a22.6 22.6 0 0 0 1.5 1.2l.1.4a13.2 13.2 0 0 1 .3 1.6 71.5 71.5 0 0 1-.1 2.8 25 25 0 0 1-.4 2 11.7 11.7 0 0 1 0 3.2 101.7 101.7 0 0 1-1.7 5.5 20.5 20.5 0 0 0-.4 3.4h.9l.1-1.7a82.6 82.6 0 0 1 1-3.9c0 .5.2.9.5 1.3l.5 1.6.5 2.7h.8a39.7 39.7 0 0 0-.6-3.6 494.1 494.1 0 0 1-1.3-3.1c.4-1 .7-2 .8-3.2 0-.5 0-1-.2-1.6v-.8l.4-2a16.2 16.2 0 0 0-.3-4.7c.6-.4 1-.9 1.4-1.5l.8-1.7a9.1 9.1 0 0 0 .6-2.7 8 8 0 0 0-.2-2v.2-.1a584.8 584.8 0 0 1-1-3.9v.1c-.1-.7-.3-1.3-.6-2a167.5 167.5 0 0 1-2.4-4.8 108 108 0 0 0-1.3-2 50 50 0 0 0-5.1-4.7 10 10 0 0 0-2.6-1.3l-.1-.7c-.1-.7 0-1.4.4-2.1l.9-1.8a5.2 5.2 0 0 0 .2-.6l.2-.4v-.5l.4-1.1v-.8a4.2 4.2 0 0 0 .1-1.1l.7.2a98.5 98.5 0 0 0 3.1.7h.4a16.3 16.3 0 0 0 2 .3 3 3 0 0 0 3.1-2.3v-.8c-.2-.6-.2-1.3 0-2l.1-.2a10.6 10.6 0 0 0 .6-1.2l.1-.2v-.3l.2-.1.1-.3v-.3l-.2-.2v-.1a3.8 3.8 0 0 0 .7-1.9l.2-1.2c.1 0 .2-.1.2-.3v-.3c.4 0 .8 0 1.2-.3.5-.2.7-.5.8-1v-1.2l-1.2-2.3c-.4-1-1-2-1.7-2.9v-.3l-.1-.2c.5-.7.6-1.4.4-2.2a58.5 58.5 0 0 0-2.1-7.4c.7 0 1-.4 1.3-1.1v-1.7c0-.5-.3-1-.7-1.3a9 9 0 0 0-2.6-1.6ZM112 63ZM92.6 12Zm-4 .9Zm1 55a.3.3 0 0 0 .1 0Zm3-10.3a24.3 24.3 0 0 0 .5 1.3 16.5 16.5 0 0 1 .3 1.5v.6a24.1 24.1 0 0 1 .1.4c0 .7 0 1.2-.3 1.7a22 22 0 0 1-1.3 2.3 13.2 13.2 0 0 1-2.2 2.5 60.5 60.5 0 0 1-2.7 1.7l-2.2 1.6-2 1.6a16.3 16.3 0 0 0-2.1 1.7c0-.5 0-1 .2-1.6a42.5 42.5 0 0 0 1.3-5.2A40 40 0 0 0 83 64l.3-1.2a87.3 87.3 0 0 0 1.5-5.2 125.4 125.4 0 0 0 2-5c.8.2 1.6.6 2.3 1.1l.5.3 1.8 1.6a6 6 0 0 1 1.3 1.9Zm-19.2-1v-.2h.1l2.4-2 1.8-1.2a8 8 0 0 1 2.6-1.2c1-.2 2-.2 3 0l.2-.1a8.2 8.2 0 0 1 2.4.5 60.3 60.3 0 0 0-4.2 13.6 68.5 68.5 0 0 1-1.6 6.5l-.3 1.5-.4-1a34.8 34.8 0 0 0-2.2-4.8 21.2 21.2 0 0 1-1.8-5l-.5-1.7a46.3 46.3 0 0 1-1.5-4.8Zm-.8.4.2.7a41.4 41.4 0 0 0 1.9 6 21 21 0 0 0 1.8 5 90.7 90.7 0 0 1 2.7 6l-.5-.1-2.2-1.3-2-1.7a226 226 0 0 1-3.2-3.2 15.7 15.7 0 0 1-1.7-2.7h-.1a490.3 490.3 0 0 1 .9-4.3 9.5 9.5 0 0 1 2.2-4.4Zm37.5-44 1.3.4c1 .4 1.8 1 2.7 1.5l.2.3c.5.8.5 1.5.2 2.3l-.4.1a11.1 11.1 0 0 1-1.6 0 2 2 0 0 0-.7-.4h-2.3a8 8 0 0 0-2.4 1.2 1 1 0 0 0-.4 0c-.4 0-.8.1-1.1.4-.4.4-.6.8-.6 1.4v.6l.1 1.1c0 .9-.4 1.6-1.1 2-.3.1-.5.3-.7.6l-.6.7c-.5.9-.8 1.8-.9 2.9 0 .6-.2 1-.6 1.5l-.4.1-.3.1-.4-.1a2 2 0 0 0-.6 0l-.8-1.3-.6-.7c-.5-.6-1-1-1.6-1h-.1l-.2-.2c-.5-.4-1-.7-1.6-.8-1.2-.3-2.2 0-3 1-.4.4-.6.9-.8 1.4-.2.7-.2 1.3 0 1.9a40 40 0 0 1 .2 1 24.6 24.6 0 0 0-.4 2.5l-.2 2.4a3 3 0 0 1-1.3 1.2 1 1 0 0 1-1-.1c-.2-.2-.5-.3-.7-.3l-.1-.4a31.3 31.3 0 0 0-2-6 .8.8 0 0 0-.1 0l-.6-1.6c-.5-1-.8-2-1-3.2a9.5 9.5 0 0 1 0-3.3 24.7 24.7 0 0 1 .9-3.4 10.8 10.8 0 0 1 1.2-2.3l1.5-1.7.1-.1a5.5 5.5 0 0 1 1.6-1l.5-.2a5 5 0 0 1 1.3-.3 24.9 24.9 0 0 0 4-.8l3.3-.7a13 13 0 0 1 3.3.1 31.1 31.1 0 0 0 4 .4 98.6 98.6 0 0 0 4.8.8Z"/><path fill="#fff" d="m110.7 27.7.1-.3c-1 .1-1.9.5-2.5 1.4l-.2.2v.2c.5.5 1 .7 1.6.8h1a3.7 3.7 0 0 1 0-2.3Zm2 1.1a6 6 0 0 0 0-.3c-.3-.4-.6-.7-.9-.8l.2 1a8.8 8.8 0 0 1 0 1.1l.3-.1v-.1l.1-.2h.1l.1-.1v-.1l.1-.2v-.2Z"/><path fill="#87441D" d="M111.4 13.3a11.2 11.2 0 0 0-2.9-.7 98.2 98.2 0 0 1-4-.6c-1 0-2.2-.1-3.2-.3a13 13 0 0 0-3.3 0c-1.1 0-2.2.3-3.3.6a19.5 19.5 0 0 1-4 .8 5 5 0 0 0-1.8.5 7 7 0 0 0-1.7 1 35.4 35.4 0 0 1-1.8 2.2 10.8 10.8 0 0 0-.9 1.8c-.4 1.2-.7 2.3-.9 3.5-.2 1.1-.2 2.2 0 3.3.2 1.1.5 2.2 1 3.2a44.5 44.5 0 0 1 .6 1.6l.3.5 1 2.3a31.3 31.3 0 0 1 .9 3.6c.2 0 .5.1.7.3.3.2.7.2 1 0a3 3 0 0 0 1.3-1 8.6 8.6 0 0 1 .3-2.8 24.6 24.6 0 0 1 .3-2.4l-.2-.8c-.2-.6-.2-1.2 0-1.9.2-.5.4-1 .8-1.5.8-1 1.8-1.2 3-1a4.2 4.2 0 0 1 1.8 1c.7.2 1.2.5 1.7 1l.6.8.8 1.2h.6a7.7 7.7 0 0 1 .4.2h.3l.4-.2c.4-.4.6-1 .6-1.5a5.7 5.7 0 0 1 1.5-3.6c.2-.3.4-.5.7-.6.7-.4 1.1-1.1 1.1-2a9.6 9.6 0 0 0 0-1.7c-.1-.6 0-1 .5-1.4.3-.3.7-.5 1.1-.5h.4a8 8 0 0 1 2.4-1c.8-.2 1.5-.2 2.3 0a72.1 72.1 0 0 1 2.7.3c.3-.9.3-1.6-.2-2.4l-.2-.3c-.8-.6-1.7-1-2.7-1.5Z"/><path fill="#FF5736" d="m72.8 57.6-.2-.7c-.4.4-.8.9-1 1.4-.6 1-1 2-1.2 3a488.2 488.2 0 0 0-.8 4.3l.3.4a15.7 15.7 0 0 0 4.5 5.5l2 1.7a11.3 11.3 0 0 0 2.8 1.5l-.5-1.2a50 50 0 0 0-2.2-4.9 26.6 26.6 0 0 1-1.8-5l-.8-2.5a32.9 32.9 0 0 1-1.1-3.5ZM73.4 56.3v.3a39.3 39.3 0 0 0 2 6.4 33.8 33.8 0 0 0 3 7.4 34.7 34.7 0 0 1 1.4 3.5l.3-1.5.4-1.3a56.1 56.1 0 0 1 1.2-5.2 105.6 105.6 0 0 0 1.2-4.8 55.5 55.5 0 0 1 3-8.8 100.2 100.2 0 0 0-2.4-.5h-.2a7 7 0 0 0-3 .1 8 8 0 0 0-2.6 1.2L76 54.3a20.1 20.1 0 0 1-2.5 2ZM92.7 57.5a6 6 0 0 0-1.3-2 13 13 0 0 0-2.3-1.9v.1c-.7-.5-1.5-.9-2.4-1.2v.3l-1 2.4a126 126 0 0 1-1.7 5 86.6 86.6 0 0 1-1 3.8 226 226 0 0 1-2.3 10.4l2-1.7 2.1-1.6a24.8 24.8 0 0 1 2.7-2 60.5 60.5 0 0 0 2.7-1.8l1.7-2 1.3-2.3c.3-.5.4-1 .4-1.6a1.2 1.2 0 0 1-.1-.2 1 1 0 0 1 0-.2 24.1 24.1 0 0 0 0-.7 1.7 1.7 0 0 0-.1-.5 16.5 16.5 0 0 0-.7-2.3Z"/></g><rect width="130" height="96" x="2" y="2" stroke="#000" stroke-width="4" rx="13"/><defs><clipPath id="a"><rect width="134" height="100" fill="#fff" rx="15"/></clipPath></defs></svg>