<svg xmlns="http://www.w3.org/2000/svg" width="965" height="157" fill="none"><path fill="#fff" d="M943.2 111c-.7 0-2-.9-3.9-2.5-1.7-1.6-3-3-3.8-4.2-3.6 2-6.8 3.5-9.5 4.4-2.8 1-5 1.6-7 1.6-8.7 0-15.2-2.5-19.2-7.5-3.8-4.7-5.7-11.8-5.7-21.5 0-9.1 3.1-17 9.4-23.4a30.3 30.3 0 0 1 22.5-9.7c3.3 0 7 .8 11 2.5 5.1 2.1 7.7 4.7 7.7 7.7 0 1-.4 1.9-1.1 2.7-.4 1.4-.7 3.8-1 7a260 260 0 0 0-.3 12.6c0 4.7.3 8.4 1 11.1a85.1 85.1 0 0 0 4.9 13l.3 1c0 1.4-.5 2.7-1.6 3.7-1 1-2.3 1.4-3.7 1.4Zm-11.7-39.4a53 53 0 0 1 1.2-11.3c-1.4-.7-2.6-1.3-3.6-1.6-1-.3-1.8-.5-2.4-.5-5.8 0-10.9 2.4-15.1 7.2a24 24 0 0 0-6.4 16.4c0 6.2 1.1 10.8 3.3 14 2.2 3 5.5 4.6 9.9 4.6 3.6 0 6.6-.7 9.2-2 1.3-.7 3.2-2.2 5.7-4.3-1.2-10-1.8-17.5-1.8-22.5ZM887.5 56.6a698 698 0 0 1-11.6 41.7 40 40 0 0 1-5.2 10.5 6 6 0 0 1-5.4 3c-4 0-7.3-5.2-9.6-15.3-.8-3.3-1.5-7.7-2.3-13.3l-1.9-12.6-4.6 10.8-8.6 23.4a7 7 0 0 1-2.2 3.3 6 6 0 0 1-5.4 3.3c-2.9.2-5.6-5.5-8.3-16.8a272 272 0 0 1-4-23.8l-1.4-8.4c-.5-3.4-.8-6.3-.8-8.6 0-1.6.6-2.9 1.7-3.9s2.5-1.6 4-1.6c3 0 4.7 1.6 5.4 4.7.4 2.3.8 5 1.1 8.3l.9 8.3 3.3 25.4c4.2-11.6 8.5-25 13-40.2 1.3-4.1 3.4-6.2 6.5-6.2 3 0 5 2.3 6 7 1 4.4 2.3 11.2 3.8 20.3 1.5 9.5 2.8 17 4 22.3l4.1-15.4 7.3-30.8c.6-2.3 2.2-3.5 4.9-3.5 1.5 0 3 .6 4 1.7A5 5 0 0 1 888 54l-.5 2.6ZM804.7 111c-.7 0-2-.9-4-2.5-1.6-1.6-2.9-3-3.7-4.2-3.6 2-6.8 3.5-9.5 4.4-2.8 1-5.1 1.6-7 1.6-8.8 0-15.2-2.5-19.2-7.5-3.8-4.7-5.7-11.8-5.7-21.5 0-9.1 3-17 9.3-23.4a30.3 30.3 0 0 1 22.6-9.7c3.2 0 6.9.8 11 2.5 5.1 2.1 7.7 4.7 7.7 7.7 0 1-.4 1.9-1.2 2.7-.3 1.4-.6 3.8-.9 7-.2 3.3-.3 7.5-.3 12.6 0 4.7.3 8.4 1 11.1a85.2 85.2 0 0 0 4.8 13l.4 1a5.2 5.2 0 0 1-5.3 5.2Zm-11.8-39.4a53.2 53.2 0 0 1 1.3-11.3c-1.4-.7-2.6-1.3-3.6-1.6-1-.3-1.8-.5-2.4-.5-5.9 0-11 2.4-15.2 7.2a24 24 0 0 0-6.3 16.4c0 6.2 1 10.8 3.3 14 2.2 3 5.4 4.6 9.8 4.6 3.6 0 6.7-.7 9.2-2a34 34 0 0 0 5.7-4.3c-1.2-10-1.8-17.5-1.8-22.5ZM745.1 109.5c-2 0-3.7-1-4.8-3.3-2-3.8-5-8.3-8.9-13.5l-10-13.6a187 187 0 0 1-10.2 7.3c-.4 5.8-.6 11.5-.6 17 0 1.8-.5 3.1-1.6 4.2-1 1-2.3 1.6-4 1.6-3.7 0-5.6-2.6-5.6-7.7 0-3.1.2-7.8.6-14 .4-6.3.7-11 .7-14.1 0-5.7 0-12.3.2-19.6l.3-19.6-.3-6a93 93 0 0 1-.2-6c0-1.7.5-3 1.5-4.1 1-1 2.4-1.6 4-1.6s3 .5 4 1.6c1 1 1.5 2.4 1.5 4.1l.3 6.2.3 6-.4 18.3a489 489 0 0 0-.2 19.7c5.2-4 10.1-8.2 14.9-13L739 46.7c1.2-1.2 2.6-1.9 4-1.9 1.5 0 2.8.6 4 1.8a5.5 5.5 0 0 1 1.8 4c0 1.3-.6 2.6-1.7 3.8A203 203 0 0 1 730 71.8l12.3 16.8c5.8 7.9 8.7 13 8.7 15.4a5 5 0 0 1-1.8 3.9 5.8 5.8 0 0 1-4.1 1.6ZM687 56.8 667.5 99a345 345 0 0 0-11.1 25.8l-3.8 11c-1 2.7-2.6 4-5 4a6 6 0 0 1-4.2-1.5 5 5 0 0 1-1.7-3.9c0-3.8 4.1-14.7 12.2-32.7l-20.2-39-2.5-4.1a9.1 9.1 0 0 1-1.6-4.4c0-1.5.6-2.9 1.8-4a5.7 5.7 0 0 1 4-1.8c1.7 0 3 .7 4 2 6.4 8.9 13.3 21.6 20.7 38l8.3-19.5c3-6.8 6-12.6 8.7-17.4 1.2-2.1 2.8-3.2 4.8-3.2 1.5 0 2.9.5 4 1.6 1.3 1.1 1.9 2.4 1.9 4 0 .8-.3 1.7-.8 2.8ZM622 61.5c-3.3 4-7.6 9.8-12.8 17.5-6.1 8.9-10.6 15.2-13.4 18.9l10.4-.3c1.4 0 3.6.3 6.5.8 3 .6 5.1.9 6.6.9 1.6 0 3 .5 4 1.6 1 1 1.6 2.4 1.6 4.1 0 1.7-.5 3-1.6 4.1-1 1-2.4 1.6-4 1.6-1.5 0-3.7-.3-6.6-.8-2.9-.6-5-.9-6.5-.9a121.2 121.2 0 0 0-26.3 2.6c-3.6 0-5.5-1.6-5.5-4.8 0-2 1-3.7 2.9-5.5 9.8-8.9 20.5-22.7 32-41.5a117.8 117.8 0 0 1-28.1-.8c-3.3-.6-5-2.4-5-5.7 0-1.6.6-3 1.6-4.1a5 5 0 0 1 3.8-1.7c1.9 0 4.7.2 8.4.7a83.5 83.5 0 0 0 20 0c5.1-.3 9-.5 11.5-.5 3.3 0 4.9 1.3 4.9 4 0 3-1.5 6.3-4.3 9.8ZM563.8 65.4c-.3 4.7-2.2 7-5.7 7-3.2 0-4.9-1.8-4.9-5.5l-.1-4-.2-4.7c-6 .7-10.7 2.4-14.3 5a27 27 0 0 0-8.4 11.1l.1 31c0 3.8-1.8 5.7-5.6 5.7-3.3 0-5-2-5-5.7V65.6a203.7 203.7 0 0 1 .3-11.2c0-3.8 1.7-5.7 5-5.7 3.7 0 5.6 3.1 5.6 9.4a34 34 0 0 1 24.1-10.5c3 0 5.3 1.2 6.8 3.5 1.6 2.3 2.3 5.7 2.3 10.4v4ZM503 59a41.9 41.9 0 0 1-5.6-.2c-.9 0-3.5.3-7.7.9l1 33.4.1 2.5v2.8c.2 8.3-1.8 12.4-5.9 12.4-1.5 0-2.8-.5-4-1.4-1-1-1.6-2.3-1.6-3.7a176.9 176.9 0 0 1 .4-13l-1.2-33c-2.7 0-6.9-.4-12.5-.9-3.4-.4-5-2.3-5-5.6 0-1.7.5-3 1.5-4.1 1-1.1 2.3-1.7 3.9-1.7l11.9 1-.3-7.7-.3-7c0-1.6.6-2.9 1.7-4 1-1 2.4-1.5 4-1.5 3.4 0 5.4 2.8 6 8.3l.1 5-.1 3.3v3.5l8-.9c3.9 0 6.5.2 7.7.6 2.3.8 3.4 2.5 3.4 5.3 0 1.7-.5 3-1.6 4.1-1 1.1-2.3 1.6-4 1.6ZM446.9 63.7c-2.1 0-3.5-.7-4.4-2.1-.5-1-1-3-1.4-6.1-2.9.7-7.2 2-13.1 4-6 2.3-9.1 5.3-9.2 8.9l3.4.9a54.6 54.6 0 0 1 19.3 6.4c6.1 4 9.2 9.6 9.2 17.1 0 6.2-2.6 10.8-8 14a40.4 40.4 0 0 1-30.9 1.4c-5.7-2.2-8.6-5.1-8.6-9a5.8 5.8 0 0 1 5.8-5.7c1.2.1 2.7 1 4.5 2.8 1 1 3 1.6 6.1 2.2 2.5.5 4.7.7 6.4.7 3.2 0 6-.4 8.4-1.2 3.5-1 5.2-2.8 5.2-5.2 0-5-3.5-8.6-10.7-10.4l-5.9-1.3c-5-1-8.6-2.3-10.7-3.8-3-2.1-4.6-5.3-4.6-9.6 0-7.8 3.8-13.5 11.2-16.8 2.2-1 5.9-2.2 10.8-3.6 5-1.5 8.6-2.7 10.7-3.7 1.6-.6 3.3-1 5-1 1.7 0 3 .6 4 1.6s1.6 2.4 1.6 4.1c0 1.1.2 2.7.7 4.8.5 2.2.7 3.8.7 4.9 0 1.7-.5 3-1.6 4-1 1.1-2.3 1.7-4 1.7ZM362.5 65.4c-.3 4.7-2.2 7-5.7 7-3.2 0-4.9-1.8-4.9-5.5l-.1-4-.2-4.7c-6 .7-10.7 2.4-14.3 5a27 27 0 0 0-8.4 11.1l.1 31c0 3.8-1.8 5.7-5.6 5.7-3.3 0-5-2-5-5.7V65.6a203.7 203.7 0 0 1 .3-11.2c0-3.8 1.7-5.7 5-5.7 3.7 0 5.6 3.1 5.6 9.4a34 34 0 0 1 24.1-10.5c3 0 5.3 1.2 6.8 3.5 1.6 2.3 2.3 5.7 2.3 10.4v4ZM281.4 109.8a32 32 0 0 1-20.7-6.4 24.1 24.1 0 0 1-8.6-19.8c0-9.8 2.4-18 7.1-24.6 5.2-7.3 12-10.9 20.7-10.9 6.3 0 11.4 1 15.3 3.2 4.9 2.6 7.3 6.6 7.3 12 0 3.7-2.1 7.2-6.4 10.3a90.3 90.3 0 0 1-12 6.3L262.5 90c2.1 3.2 4.8 5.5 7.9 7.1 3.2 1.6 6.8 2.4 11 2.4 2.6 0 5.7-.5 9.2-1.5 4.4-1.2 7.3-2.9 8.6-4.9 1.3-2 2.6-3 4.1-3 1.3 0 2.5.5 3.5 1.5s1.6 2.1 1.6 3.5c0 4.1-3.4 7.7-10.1 10.8a41.4 41.4 0 0 1-16.9 3.8ZM280 58.3c-4.6 0-8.4 1.8-11.5 5.4-3 3.5-5.3 8.9-6.8 16l17.3-8.2a74.5 74.5 0 0 0 14.6-8.7c-3.2-3-7.8-4.5-13.6-4.5ZM237.8 111.2c-3.3 0-5.1-1.8-5.5-5.3l-1.6-12.4a104.5 104.5 0 0 1-.4-23.1c0-8.1-1.5-12.2-4.5-12.2-4.2 0-8.3 2.5-12.1 7.5a51.2 51.2 0 0 0-8.2 17.3c0 1.5-.2 3.3-.5 5.5a46 46 0 0 0 0 10.6c.3 2.3.4 4 .4 5.1 0 1.7-.6 3-1.6 4.1-1 1-2.4 1.6-4 1.6s-3-.5-4-1.6c-1-1-1.5-2.4-1.5-4 0-1.2-.1-3-.4-5.2l-.3-5c0-4 .2-9.3.7-16.2a211 211 0 0 0 .7-21.5l-.2-5.4c0-1.6.5-3 1.6-4 1-1 2.4-1.5 4-1.5 3.5 0 5.4 2.4 5.7 7.3l.2 6.6c6.3-8.4 12.8-12.6 19.5-12.6 6 0 10.2 2.6 12.6 8 1.6 3.5 2.5 8.7 2.7 15.7v5.7l-.1 5.2c0 3.1.4 7.2 1.2 12.2.8 5 1.2 9 1.2 12 0 1.7-.5 3-1.6 4-1 1-2.4 1.6-4 1.6ZM157.4 109.8a32 32 0 0 1-20.7-6.4 24.1 24.1 0 0 1-8.7-19.8c0-9.8 2.4-18 7.1-24.6 5.2-7.3 12.1-10.9 20.7-10.9 6.3 0 11.4 1 15.4 3.2 4.8 2.6 7.3 6.6 7.3 12 0 3.7-2.2 7.2-6.4 10.3a90.3 90.3 0 0 1-12 6.3L138.5 90c2 3.2 4.7 5.5 7.8 7.1 3.2 1.6 6.9 2.4 11 2.4 2.7 0 5.7-.5 9.2-1.5 4.5-1.2 7.3-2.9 8.6-4.9 1.3-2 2.7-3 4.1-3 1.4 0 2.5.5 3.6 1.5 1 1 1.5 2.1 1.5 3.5 0 4.1-3.3 7.7-10 10.8a41.3 41.3 0 0 1-17 3.8Zm-1.6-51.5c-4.6 0-8.4 1.8-11.4 5.4-3.1 3.5-5.4 8.9-6.9 16l17.4-8.2a74.6 74.6 0 0 0 14.6-8.7c-3.3-3-7.8-4.5-13.7-4.5ZM119.3 65.4c-.3 4.7-2.1 7-5.6 7-3.3 0-5-1.8-5-5.5v-4l-.3-4.7c-6 .7-10.7 2.4-14.3 5a27 27 0 0 0-8.3 11.1v31c0 3.8-1.8 5.7-5.5 5.7-3.3 0-5-2-5-5.7V65.6a202 202 0 0 1 .3-11.2c0-3.8 1.7-5.7 5-5.7 3.7 0 5.5 3.1 5.6 9.4a34 34 0 0 1 24-10.5c3.1 0 5.4 1.2 6.9 3.5s2.3 5.7 2.3 10.4v4ZM58.5 59a42 42 0 0 1-5.6-.2l-7.7.9L46.3 93v2.5l.1 2.8c.2 8.3-1.8 12.4-6 12.4-1.4 0-2.7-.5-3.9-1.4-1-1-1.6-2.3-1.6-3.7a178.8 178.8 0 0 1 .3-13l-1.1-33c-2.8 0-7-.4-12.6-.9-3.3-.4-5-2.3-5-5.6 0-1.7.5-3 1.5-4.1a5 5 0 0 1 4-1.7l11.8 1c0-2 0-4.5-.3-7.7a171 171 0 0 1-.2-7 5 5 0 0 1 1.6-4c1.1-1 2.5-1.5 4-1.5 3.4 0 5.4 2.8 6 8.3l.2 5-.2 3.3v3.5l8-.9c4 0 6.5.2 7.7.6 2.3.8 3.5 2.5 3.5 5.3 0 1.7-.6 3-1.6 4.1-1 1.1-2.4 1.6-4 1.6Z"/><path fill="#000" d="M944.7 58.4c0-3-2.6-5.6-7.7-7.7a29.9 29.9 0 0 0-10.4-2.5h-.6c-8.7 0-16.2 3.2-22.5 9.7a32.5 32.5 0 0 0-9.4 23.4c0 9.7 1.9 16.8 5.7 21.5 4 5 10.5 7.5 19.3 7.5 1.8 0 4.1-.5 6.9-1.6 2.7-1 6-2.4 9.5-4.4.9 1.2 2.1 2.6 3.8 4.2 2 1.6 3.2 2.4 4 2.4 1.2 0 2.4-.4 3.4-1.3l.2-.1c1-1 1.6-2.3 1.6-3.8l-.3-1c-.5-1-.9-1.7-1.1-2.4l-.2-.5c-2-4.7-3-7.9-3.5-9.6l-.1-.4c-.7-2.7-1-6.4-1-11 0-5.2.2-9.4.4-12.7.2-3.2.5-5.6.9-7 .7-.8 1-1.6 1.1-2.6v-.1ZM925 71.6a72.5 72.5 0 0 1 .4-6.9c-3.3.4-6.2 1.9-9 5a17.5 17.5 0 0 0-4.7 12.1c0 5.6 1 8.7 2.1 10.2.8 1 2 1.9 4.6 1.9v6.5c-4.3 0-7.5-1.5-9.7-4.4l-.2-.3c-2.2-3-3.3-7.7-3.3-13.9a24 24 0 0 1 6.4-16.4c4.2-4.8 9.3-7.2 15.1-7.2.6 0 1.4.2 2.4.5s2.2.9 3.6 1.6l-1 6v.8c-.2 1.6-.2 3.1-.2 4.5v1c0 5 .7 12.1 1.8 21.5a33.9 33.9 0 0 1-5.7 4.3l-.5.2a20.1 20.1 0 0 1-8.7 1.8v-6.5c2.8 0 4.8-.6 6.1-1.3l2-1.3c-1-8.3-1.5-15-1.5-19.7Zm26.2-13.2c0 2-.6 3.8-1.5 5.4a255.3 255.3 0 0 0-.8 17c-.1 4.4.2 7.5.7 9.4v.1c.2 1 1 3.3 2.6 7.3l.7 1.8 1.2 2.7v.2l.9 2.3v1.1c0 3.3-1.2 6.3-3.7 8.5-2.2 2-5 3.2-8 3.2a9.5 9.5 0 0 1-5-1.6 51.5 51.5 0 0 1-4.2-3.4c-2.1 1-4 1.8-5.9 2.4a27 27 0 0 1-9.1 2c-10 0-18.7-2.9-24.3-10a40 40 0 0 1-7.2-25.5 39 39 0 0 1 11.2-28 35.5 35.5 0 0 1 40.7-8.7c5.4 2.3 11.7 6.4 11.7 13.8Z"/><path fill="#000" d="M809.7 53.8c0-3.1 1.2-6.1 3.5-8.4l.2-.2c2.4-2.2 5.4-3.4 8.5-3.4 2.7 0 5.5.8 7.8 2.8 2.3 2 3.4 4.6 4 7l.1 1c.5 2.4.8 5 1.1 8l.6 5.4 3.9-13a17 17 0 0 1 4.3-7.5A12 12 0 0 1 852 42c3.5 0 6.5 1.4 8.7 4a18 18 0 0 1 3.6 7.5l.1.5c.8 3.3 1.6 7.6 2.5 13l4-16.6a10.8 10.8 0 0 1 11.2-8.5c3.2 0 6.1 1.2 8.5 3.3 2.4 2.2 3.9 5.3 3.9 8.7l-.2 1.4a21 21 0 0 1-.6 2.7c-3 12.5-6.9 26.5-11.6 42a46.5 46.5 0 0 1-6.1 12.4c-2.4 3.6-6 5.7-10.5 5.8h-.4c-5.2-.1-8.7-3.5-10.9-7a44.2 44.2 0 0 1-5-13.4l-.5-2.8-4.4 12c-.7 1.8-1.7 3.6-3.1 5a12.4 12.4 0 0 1-10.4 5.9c-3 0-5.4-1.4-6.9-2.9a18 18 0 0 1-3.4-4.9 69.4 69.4 0 0 1-4.5-14.1c-1.5-6.1-2.9-14.3-4.2-24.3l-1.4-8.4v-.1c-.5-3.6-.8-6.8-.8-9.5Zm6.5 1c.1 2 .3 4.6.8 7.6l1.3 8.4c1.4 10 2.7 18 4.1 23.8 2.7 11.3 5.4 17 8.3 16.8a6 6 0 0 0 5.4-3.3 7 7 0 0 0 2.2-3.3l8.6-23.4 4.6-10.8 1.9 12.6c.8 5.6 1.5 10 2.3 13.3 2.3 10.1 5.5 15.2 9.6 15.3 2.3 0 4-1 5.4-3a40 40 0 0 0 5.2-10.5A698.9 698.9 0 0 0 888 54V54a5 5 0 0 0-1.5-3.6l-.2-.2a5.8 5.8 0 0 0-4.1-1.7c-2.7 0-4.3 1.2-4.9 3.5L870 82.8 866 98.2c-1-4.7-2.2-11-3.5-18.8l-.5-3.5c-1.3-8-2.4-14.2-3.3-18.6l-.4-1.7c-1-4.7-3-7-6-7-3.2 0-5.3 2-6.6 6.2a735.1 735.1 0 0 1-13 40.2l-3.3-25.4-.9-8.3c-.3-3.3-.7-6-1.1-8.3-.7-3-2.4-4.6-5-4.7h-.4c-1.5 0-2.9.6-4 1.6l-.2.2c-1 1-1.5 2.2-1.5 3.7v1Z"/><path fill="#000" d="M806.2 58.4c0-3-2.6-5.6-7.7-7.7a29.9 29.9 0 0 0-10.4-2.5h-.6c-8.8 0-16.3 3.2-22.6 9.7a32.5 32.5 0 0 0-9.3 23.4c0 9.7 1.9 16.8 5.7 21.5 4 5 10.4 7.5 19.3 7.5 1.8 0 4.1-.5 6.9-1.6 2.7-1 5.9-2.4 9.5-4.4.8 1.2 2.1 2.6 3.8 4.2 1.9 1.6 3.2 2.4 3.9 2.4 1.3 0 2.5-.4 3.5-1.3l.2-.1c1-1 1.6-2.3 1.6-3.8l-.4-1-1-2.4-.3-.5c-1.9-4.7-3-7.9-3.5-9.6v-.4c-.7-2.7-1-6.4-1-11 0-5.2.1-9.4.3-12.7.3-3.2.6-5.6 1-7 .6-.8 1-1.6 1-2.6v-.1Zm-19.8 13.2.3-5.9.2-1c-3.3.4-6.2 1.9-9 5a17.5 17.5 0 0 0-4.7 12.1c0 5.6 1 8.7 2 10.2.9 1 2 1.9 4.6 1.9v6.5c-4.2 0-7.4-1.5-9.6-4.4l-.2-.3a23 23 0 0 1-3.3-12.7v-1.2a24 24 0 0 1 6.3-16.4c4.3-4.8 9.3-7.2 15.2-7.2.6 0 1.4.2 2.4.5l.4.1c.9.4 2 .8 3.2 1.5l-1 6v.8l-.3 4.5v1c.1 5 .7 12.1 1.8 21.5a33.9 33.9 0 0 1-5.7 4.3l-.4.2a20.1 20.1 0 0 1-8.8 1.8v-6.5c2.8 0 4.8-.6 6.2-1.3l1.9-1.3c-1-8.3-1.5-15-1.5-19.7Zm26.3-13.2c0 2-.6 3.8-1.6 5.4l-.5 4.7c-.2 3.2-.3 7.2-.3 12.3 0 4.4.3 7.5.8 9.4v.1c.2 1 1 3.3 2.5 7.3l.8 1.8.7 1.8.6 1.1.8 2.3v1.1a11.7 11.7 0 0 1-11.8 11.7 9.5 9.5 0 0 1-5-1.6 51.5 51.5 0 0 1-4.2-3.4c-2 1-4 1.8-5.8 2.4a27 27 0 0 1-9.1 2c-10 0-18.7-2.9-24.4-10a40 40 0 0 1-7.1-25.5 39 39 0 0 1 11.2-28 35.5 35.5 0 0 1 40.7-8.7c5.3 2.3 11.7 6.4 11.7 13.8Z"/><path fill="#000" d="M711.7 22.2c0-1.7-.5-3-1.5-4.1-1-1-2.2-1.5-3.7-1.6h-.3c-1.6 0-3 .5-4 1.6l-.2.2c-.9 1-1.3 2.3-1.3 4 0 1.6 0 3.6.2 6l.3 6-.3 19.5-.1 5.3-.1 14.3v1.2c-.1 3.1-.3 7.4-.7 12.9l-.2 2.2c-.3 5.1-.4 9-.4 11.8v.5c0 4.6 1.9 7 5.3 7.2h.4c1.6 0 2.9-.5 4-1.6 1-1 1.4-2.3 1.5-3.8v-.3c0-5.6.2-11.3.6-17.1 4.6-3.1 8-5.6 10.2-7.3l10 13.6c4 5.2 7 9.7 8.9 13.5 1 2 2.5 3.2 4.4 3.3h.4c1.5 0 2.9-.5 4-1.6 1.2-1 1.8-2.2 1.9-3.6v-.3c0-2.4-2.9-7.5-8.7-15.4L730 71.8c6.8-6.2 12.5-12 17.1-17.5 1.1-1.2 1.7-2.5 1.7-3.8 0-1.5-.6-2.9-1.8-4a5.5 5.5 0 0 0-4-1.8c-1.4 0-2.8.7-4 2l-12.4 12.8-1 .9c-4.4 4.3-9 8.3-13.9 12l.1-17.2.1-2.5.4-18.2c0-1.7 0-3.8-.3-6.1l-.3-5.5v-.7Zm6.5 0 .3 5.7v.9l.3 5.7v.1l-.4 18.2-.1 5.6 3.6-3.5 12.4-12.8a12 12 0 0 1 8.7-3.9h.3c3.3.1 6 1.5 8.2 3.6a12 12 0 0 1 3.8 8.7c0 3.3-1.5 6-3.3 8.1-3.8 4.5-8.2 9.1-13.3 14l8.9 12.2c3 4 5.3 7.5 6.9 10.4.8 1.4 1.5 2.8 2 4.2a11.6 11.6 0 0 1-3 13.4 12.3 12.3 0 0 1-8.4 3.2c-5 0-8.6-3-10.6-6.8a89.2 89.2 0 0 0-8.3-12.5v-.1l-6.2-8.4-2.5 1.8a231 231 0 0 0-.4 13.5c0 3.1-1 6.2-3.4 8.6v.1a11.8 11.8 0 0 1-8.6 3.5c-3.6 0-7.1-1.3-9.5-4.6a16 16 0 0 1-2.8-9.6c0-3.4.3-8.2.7-14.5.4-6.2.6-10.7.6-13.6l.3-19.8.3-19.4-.3-5.5-.3-6.5c0-3 1-6.2 3.4-8.6v-.1a12 12 0 0 1 8.7-3.5c3.1 0 6.2 1 8.6 3.5a12 12 0 0 1 3.4 8.7Z"/><path fill="#000" d="M687.8 54a5 5 0 0 0-1.6-3.8l-.2-.2a5.8 5.8 0 0 0-4.1-1.6c-2 0-3.6 1-4.8 3.2-2.8 4.8-5.7 10.6-8.7 17.4l-8.3 19.5c-7.2-16-13.8-28.3-20-37.2l-.7-.8c-1-1.3-2.3-2-4-2-1.5 0-2.8.6-4 1.8a5.6 5.6 0 0 0-1.8 4c0 1.2.5 2.7 1.6 4.4l2.5 4.1 20.2 39c-8.1 18-12.2 29-12.2 32.7a5 5 0 0 0 1.7 3.9 6 6 0 0 0 3.9 1.5h.3c2.4 0 4-1.3 5-4l3.8-11c2.4-6.5 5.8-14.5 10.2-24l.9-1.8L687 56.8c.5-1 .7-1.8.7-2.5v-.4Zm6.5 0c0 2-.6 4-1.4 5.5l-19.5 42.3a339.3 339.3 0 0 0-10.9 25.3l-3.7 10.9c-.8 2.2-2 4.4-4.1 6a11.3 11.3 0 0 1-7.1 2.5c-3.2 0-6.2-1.2-8.5-3.3a11.5 11.5 0 0 1-3.9-8.7c0-1.8.5-4 1-5.9a350 350 0 0 1 10.5-26.6L628 66l-2.4-3.9V62c-.6-1-1.2-2-1.6-3.2 1.6-2.5 2.4-4.9 2.4-7.1 0-1.6-.6-2.7-1.7-3.3.6-1 1.3-2 2-2.7h.1v-.1c2.3-2.2 5.2-3.6 8.6-3.6 3.7 0 7 1.5 9.3 4.7 4.9 6.8 9.9 15.4 15 26l2.7-6.3c3-6.5 5.8-12.2 8.5-17.1l.6-1c2-3.5 5.5-6.4 10.4-6.4h.3c3 0 5.9 1.3 8.1 3.3h.1c2.4 2.3 3.9 5.3 3.9 8.7Z"/><path fill="#000" d="M624.9 105a5.5 5.5 0 0 0-5.6-5.7c-1.5 0-3.7-.3-6.6-.9a43 43 0 0 0-6-.8h-.5c-3 0-6.4 0-10.4.3 2.8-3.7 7.3-10 13.4-19 4.9-7 9-12.7 12.2-16.7l.7-.7a16 16 0 0 0 4.2-9.5v-.3c0-2.6-1.5-3.9-4.5-4h-.3c-2.5 0-6.4.2-11.5.6l-1.9.1c-4.2.3-7.4.4-9.6.4v-6.5c2.3 0 6-.2 11-.5l2-.1c4.2-.3 7.6-.5 10-.5 2.4 0 5.3.5 7.8 2.5 2 1.6 2.9 3.6 3.3 5.6a7 7 0 0 0-1.2 1 5.6 5.6 0 0 0-1.8 4c0 1.2.5 2.7 1.6 4.4v.2c-1 2.4-2.4 4.6-4.1 6.7-3.2 3.8-7.4 9.5-12.6 17l-5.9 8.6 5.4.9c2.8.5 4.5.7 5.3.7 3.2 0 6.3 1 8.6 3.6a12 12 0 0 1 3.5 8.6c0 3.1-1 6.2-3.4 8.6l-.1.1a11.8 11.8 0 0 1-8.6 3.5c-2.1 0-4.8-.4-7.8-1-2.8-.5-4.5-.7-5.3-.7-8.1 0-15.7.8-22.9 2.2-1.1.2-2.3.4-3.4.4-2.6 0-5.8-.6-8.4-2.8a11 11 0 0 1-3.6-8.5c0-4.3 2.2-7.8 5-10.3 7.4-6.7 15.5-16.5 24.3-29.8a125 125 0 0 1-16.9-1.3c-2.6-.4-5.5-1.5-7.6-3.9a12 12 0 0 1-3-8.2c0-3 1-6.1 3.3-8.5 2.3-2.5 5.3-3.8 8.6-3.8 2.3 0 5.4.3 9.1.7 3.7.4 6.2.6 7.8.6v6.5h-.8c-1.6 0-3.7-.2-6.4-.5l-1.3-.1c-3.7-.5-6.5-.7-8.4-.7a5 5 0 0 0-3.8 1.7l-.2.2c-.9 1-1.3 2.4-1.3 4v.2c0 3 1.7 4.8 5 5.3 5.5.8 10.9 1.3 16.1 1.3h1c2.3 0 6-.1 11-.4a193.8 193.8 0 0 1-32.1 41.5c-2 1.8-2.9 3.6-2.9 5.5 0 3 1.8 4.7 5.2 4.8h.3l2.1-.3c7.6-1.5 15.7-2.3 24.2-2.3h.5c1.5 0 3.5.4 6 .9 3 .5 5.1.8 6.6.8 1.6 0 3-.5 4-1.6 1-1 1.6-2.4 1.6-4.1Z"/><path fill="#000" d="M513.5 54.4c0-2.7.6-6 2.9-8.6 2.4-2.7 5.7-3.6 8.6-3.6h.4a11 11 0 0 1 9 4.8c6.1-3.9 13-5.9 20.3-5.9 5 0 9.4 2 12.3 6.4 2.5 3.9 3.3 8.8 3.3 14v4.3c-.2 3-1 6.3-3 9-2.5 3-5.8 4.2-9.2 4.2a11 11 0 0 1-8.6-3.6 12.7 12.7 0 0 1-2.8-9.2 17 17 0 0 0-4.2 2.3c-2 1.4-4 3.7-5.8 7.3l.1 29.5c0 2.9-.7 6.2-3.2 8.8a12 12 0 0 1-8.9 3.4c-2.9 0-6.2-.9-8.6-3.7a12.8 12.8 0 0 1-2.8-8.5V59.7c.2-2.5.2-4.2.2-5.3Zm6.5 1L520 60v1.7l-.1 3.9v40c0 3.5 1.6 5.3 4.6 5.4h.3c3.7 0 5.5-1.8 5.6-5.4V74.3c2-4.8 4.8-8.4 8-10.9l.3-.2c3.6-2.6 8.3-4.3 14.3-5l.2 4.7.1 4v.3c.1 3.4 1.7 5.2 4.6 5.3h.3c3.4 0 5.3-2.2 5.6-6.6v-.5l.1-2.6v-1.3c0-4.5-.7-8-2.1-10.2l-.1-.2a7.5 7.5 0 0 0-6.3-3.5h-.6a34 34 0 0 0-24 10.5c-.1-6.3-2-9.4-5.7-9.4-3.3 0-5 1.9-5 5.7v1Z"/><path fill="#000" d="M471.2 33.7c0-3.2 1.2-6.3 3.7-8.6l.2-.2a12 12 0 0 1 8.3-3.2c3.8 0 7.1 1.7 9.3 4.8 1.8 2.6 2.7 5.7 3 8.8l.1.6v.1l.2 5h1.4a74.7 74.7 0 0 1 9 .6l.6.2c2.4.8 4.6 2.2 6.1 4.6 1.5 2.2 2 4.7 2 7 0 3-1.2 6.1-3.5 8.6a11.8 11.8 0 0 1-8.6 3.5h-3.3c-1-.2-1.7-.2-2.3-.2h-1l.9 27.6v5.5c.2 4.4-.3 8.7-2 12.1-.8 1.9-2.1 3.6-4 5a12.4 12.4 0 0 1-14.6-1.2v-.1a11.2 11.2 0 0 1-3.9-8.5 183.8 183.8 0 0 1 .4-12.8l-1-27-6.8-.6h-.2c-2.8-.4-5.6-1.5-7.8-3.9a12 12 0 0 1-3-8.2c0-3.1 1-6.1 3.3-8.6s5.4-3.7 8.7-3.7h.2l4.9.4v-.2l-.3-7.4Zm6.6 1.2a235.2 235.2 0 0 0 .5 13.5l-12-1c-1.5 0-2.8.6-3.8 1.7-1 1-1.5 2.4-1.5 4.1 0 3.3 1.6 5.2 5 5.6 5.6.5 9.8.9 12.5 1l1.2 33a178.7 178.7 0 0 1-.4 12.9c0 1.4.6 2.7 1.7 3.7s2.4 1.4 4 1.4c4 0 6-4.1 5.9-12.4v-2.8l-.1-2.5-1.1-33.4c4.2-.6 6.8-.9 7.7-.9l2.7.1 2.9.1c1.6 0 3-.5 4-1.6 1-1 1.4-2.3 1.5-3.8v-.3c0-2.8-1.1-4.5-3.4-5.3-1-.3-3.2-.5-6.3-.6h-1.4c-.7 0-3.4.3-8 1v-3.6l.1-3.2v-4l-.2-1c-.5-5.4-2.4-8.2-5.6-8.4h-.3c-1.6 0-3 .5-4 1.6a5 5 0 0 0-1.6 3.9v1.2Z"/><path fill="#000" d="M409.4 87.1c2 .1 3.7 1 5 1.6 1.1.7 2.2 1.6 3.3 2.6l.2.1 2.9.7c2.3.4 4 .6 5.2.6v6.5c-1.7 0-3.9-.3-6.4-.7-3-.5-5-1.2-5.9-2l-.2-.2c-1.8-1.8-3.3-2.7-4.5-2.7-1.5 0-2.9.6-4 1.7a5.3 5.3 0 0 0-1.8 4c0 3.8 2.9 6.7 8.7 8.8a40.4 40.4 0 0 0 30.8-1.3c5.4-3.2 8-7.8 8-14 0-7.5-3-13.2-9.2-17.1a54.6 54.6 0 0 0-19.3-6.4c-1.1-.2-2.2-.5-3.4-1 0-3.5 3.1-6.5 9.2-8.9l13-4c.5 3.2 1 5.2 1.5 6.2.8 1.3 2.1 2 4 2h.4c1.6 0 3-.5 4-1.5s1.4-2.3 1.5-3.8V58c0-1.1-.2-2.7-.7-4.9-.4-1.8-.6-3.3-.7-4.3v-.5c0-1.7-.5-3-1.6-4-1-1-2.2-1.6-3.6-1.7h-.3c-1.8 0-3.5.4-5 1l-.5.2c-2.2 1-5.6 2.1-10.3 3.5l-1.8.5c-4 1.2-7 2.2-9 3-7.4 3.4-11.2 9-11.2 17v.3c.1 4 1.7 7.1 4.6 9.2 2.1 1.5 5.7 2.7 10.7 3.8l5.9 1.3c7.2 1.8 10.7 5.3 10.7 10.4 0 2.4-1.7 4.2-5.2 5.2-2.4.8-5.2 1.2-8.4 1.2v-6.5c2.7 0 4.8-.3 6.4-.9l.5-.1-.5-.6c-.6-.7-2.1-1.6-5-2.3l-5.8-1.3a37.4 37.4 0 0 1-13-4.9c-5-3.5-7.4-8.8-7.4-14.9 0-5 1.2-9.6 3.9-13.7 2.7-4 6.5-7 11.1-9a90 90 0 0 1 11.7-4c5-1.4 8.2-2.5 9.8-3.3h.1c2.4-1 5-1.6 7.7-1.6 3.1 0 6.2 1.1 8.6 3.6a12 12 0 0 1 3.4 8.6c0 .4.1 1.5.5 3.5.5 2.2 1 4.3 1 6.2 0 3.1-1.1 6.2-3.6 8.7a11.8 11.8 0 0 1-8.5 3.5c-.7 0-1.4 0-2.1-.2l.2.2c8 5.2 12.2 13 12.2 22.6 0 8.5-3.9 15.3-11.2 19.6a47 47 0 0 1-36.4 1.8c-6.4-2.3-12.7-6.7-13-14.5v-.4c0-3.4 1.5-6.4 3.8-8.6v-.1c2.4-2.2 5.3-3.5 8.6-3.5h.4Zm26.9-23.5-4 1.3c2.2.6 4.3 1.2 6.2 2-.6-.6-1.1-1.2-1.6-2l-.6-1.3ZM312.2 54.4c0-2.7.6-6 2.9-8.6 2.4-2.7 5.7-3.6 8.6-3.6A11 11 0 0 1 333 47c6.2-3.9 13-5.9 20.4-5.9 5 0 9.4 2 12.3 6.4 2.5 3.9 3.3 8.8 3.3 14v4.3c-.2 3-1 6.3-3 9-2.5 3-5.8 4.2-9.2 4.2a11 11 0 0 1-8.6-3.6 12.7 12.7 0 0 1-2.8-9.2 17 17 0 0 0-4.3 2.3c-2 1.4-4 3.7-5.7 7.3l.1 29.5c0 2.9-.7 6.2-3.2 8.8a12 12 0 0 1-8.9 3.4c-2.9 0-6.2-.9-8.6-3.7a12.8 12.8 0 0 1-2.8-8.5V59.7c.2-2.5.2-4.2.2-5.3Zm6.5 1-.1 4.6v1.7l-.1 3.9v39.7c0 3.8 1.6 5.7 5 5.7 3.7 0 5.5-2 5.5-5.7v-31c2.1-5 5-8.6 8.3-11 3.6-2.7 8.3-4.4 14.3-5.1l.2 4.7.1 4v.3c.1 3.4 1.7 5.2 4.6 5.3h.3c3.4 0 5.3-2.2 5.6-6.6v-.5l.1-2.6v-1.3c0-4.7-.7-8.1-2.3-10.4a7.5 7.5 0 0 0-6.2-3.5h-.6a34 34 0 0 0-24 10.5c-.1-6.3-2-9.4-5.7-9.4-3.3 0-5 1.9-5 5.7v1Z"/><path fill="#000" d="M245.6 83.6c0-10.9 2.6-20.5 8.3-28.4a30.7 30.7 0 0 1 26-13.6c6.7 0 12.8 1.1 17.9 3.7l.5.2c3.3 1.8 6 4.2 8 7.3 1.9 3.2 2.7 6.8 2.7 10.5 0 6.6-3.8 11.7-9 15.5-2.5 1.8-7 4.2-13.1 7l-12.7 6c2 .8 4.3 1.3 7.2 1.3v6.5c-3.9 0-7.4-.7-10.4-2.1l-.6-.3c-3.1-1.6-5.8-4-7.9-7l21.6-10.3c5.8-2.7 9.6-4.7 11.6-6l.4-.3c4.3-3.1 6.4-6.6 6.4-10.3 0-5.4-2.4-9.4-7.3-12-3.7-2-8.4-3-14.1-3.2h-1.2c-8.6 0-15.5 3.6-20.7 10.9a41.3 41.3 0 0 0-7.1 24.6v.8c.2 8.1 3 14.5 8.6 19a31.5 31.5 0 0 0 20 6.4h.7c5.1 0 10.4-1.1 15.8-3.4l1-.4c6.6-3 10-6.4 10.2-10.4v-.4c0-1.4-.5-2.5-1.6-3.5-1-1-2.2-1.5-3.5-1.5-1.5 0-2.8 1-4.1 3-1.3 2-4.2 3.7-8.6 4.9l-.7.2c-3.2.8-6 1.3-8.5 1.3V93c1.8 0 4.3-.4 7.4-1.3l.7-.2a17 17 0 0 0 3.4-1.3l.8-.6c1.7-2.7 4.8-6 9.6-6h.3c3 0 5.6 1.3 7.6 3.2l.1.1.1.1a11 11 0 0 1 3.5 8c0 8.4-6.8 13.6-14 16.8-6.5 2.9-13 4.4-19.5 4.4-9.6 0-18-2.4-24.8-7.8a30.6 30.6 0 0 1-11-24.9Zm34.8-25.3a19 19 0 0 1 13.1 4.5 74.5 74.5 0 0 1-14.6 8.7l-17.3 8.2a35.8 35.8 0 0 1 6.8-16c3-3.6 6.9-5.4 11.5-5.4h.5Z"/><path fill="#000" d="M223.4 81.1c0-1.2 0-3.1.2-5.6v-.1l.2-5a35 35 0 0 0-.3-5 15 15 0 0 0-4.6 4.2 44.2 44.2 0 0 0-7 14.5c0 1.5-.2 3.3-.4 5.2a39.6 39.6 0 0 0 0 9.2c.2 2.3.4 4.2.4 5.7 0 3.1-1 6.2-3.4 8.7a11.8 11.8 0 0 1-8.7 3.5 11.8 11.8 0 0 1-12-12.2l-.4-4.3v-.1c-.2-2.3-.4-4.3-.4-5.8 0-4.1.3-9.7.9-16.6a204.9 204.9 0 0 0 .6-20.6v-.1l-.2-5.7c0-3.2 1-6.3 3.6-8.6a12 12 0 0 1 8.5-3.4 11.3 11.3 0 0 1 10.5 6.5 25 25 0 0 1 14.9-5.2c4 0 7.8.8 11.1 3 3.4 2 5.8 5.1 7.4 8.7 2.2 4.8 3.1 11.1 3.3 18.3v5.9l-.1 5.2v.5c0 2.6.4 6.1 1.1 10.6l.3 1.9c.7 4.3 1 8 1 11.2 0 3.2-1 6.3-3.6 8.7a12 12 0 0 1-8.5 3.4c-2.9 0-6-.8-8.4-3.1a12.8 12.8 0 0 1-3.6-7.9l-1.6-12.4c-.5-4.6-.8-9-.8-13.2Zm-28.6-29a160.5 160.5 0 0 0 .4 9.6v1.6c0 3.7-.4 8.6-.9 14.6l-.1 2.5c-.4 5.7-.6 10.2-.6 13.6 0 1.2 0 2.9.3 5.1.3 2.3.4 4 .4 5.1v.3a5.2 5.2 0 0 0 5.2 5.4h.3c1.6 0 3-.5 4-1.6 1-1 1.6-2.4 1.6-4a56 56 0 0 0-.4-5.2 56 56 0 0 1 .5-16.1c2-7 4.7-12.7 8.2-17.3 3.8-5 7.9-7.5 12-7.5 3.1 0 4.6 4 4.6 12.2v1l-.2 4.4v1.7c-.2 1.6-.2 2.8-.2 3.6v1.5c0 3.4.3 7 .8 11l1.6 12.3c.4 3.4 2.1 5.2 5.2 5.3h.3c1.6 0 3-.5 4-1.6 1-1 1.6-2.2 1.6-3.7v-.3c0-3-.4-7-1.2-12-.8-5-1.2-9-1.2-12.2V70.5c-.1-6.8-1-11.9-2.5-15.4l-.1-.4a12.6 12.6 0 0 0-12-8h-.6c-6.7 0-13.2 4.3-19.5 12.7l-.2-6.6c-.3-4.7-2.1-7.2-5.4-7.3h-.3c-1.6 0-3 .5-4 1.5l-.2.2c-1 1-1.4 2.3-1.4 3.8v1Z"/><path fill="#000" d="M121.5 83.6a48 48 0 0 1 7.8-27.7l.5-.7a30.7 30.7 0 0 1 26-13.6c6.7 0 12.8 1.1 18 3.7l.4.2c3.3 1.8 6 4.2 8 7.3 2 3.2 2.8 6.8 2.8 10.5 0 6.6-3.9 11.7-9.1 15.5-2.5 1.8-7 4.2-13 7l-12.7 6c2 .8 4.3 1.3 7.2 1.3v6.5c-4 0-7.4-.7-10.5-2.1l-.6-.3c-3-1.6-5.7-4-7.8-7L160 79.8c5.7-2.7 9.6-4.7 11.6-6l.4-.3c4.2-3.1 6.4-6.6 6.4-10.3 0-5.4-2.5-9.4-7.3-12-3.8-2-8.5-3-14.2-3.2h-1.2c-8.6 0-15.5 3.6-20.7 10.9l-.4.6a41.6 41.6 0 0 0-6.7 24v.8c.2 8.1 3 14.5 8.7 19a31.5 31.5 0 0 0 19.9 6.4h.8c5.4 0 11-1.3 16.8-3.8 6.6-3 10-6.4 10.1-10.4v-.4c0-1.4-.5-2.5-1.5-3.5s-2.2-1.5-3.6-1.5-2.8 1-4 3c-1.4 2-4.2 3.7-8.7 4.9l-.6.2c-3.3.8-6.1 1.3-8.5 1.3V93a28.4 28.4 0 0 0 12.3-3.4c1.7-2.7 4.7-6 9.5-6 3.2 0 5.9 1.2 8 3.2v.1l.2.1a11 11 0 0 1 3.4 8c0 8.4-6.7 13.6-14 16.8-6.4 2.9-13 4.4-19.4 4.4-9.7 0-18.1-2.4-24.8-7.8a30.6 30.6 0 0 1-11-24.9Zm34.3-25.3c5.9 0 10.4 1.5 13.7 4.5a74.6 74.6 0 0 1-14.6 8.7l-17.4 8.2a35.8 35.8 0 0 1 6.9-16c3-3.6 6.8-5.4 11.4-5.4Z"/><path fill="#000" d="M69 54.4c0-2.7.7-6 3-8.6 2.4-2.7 5.7-3.6 8.6-3.6h.4a11 11 0 0 1 8.9 4.8c6.2-3.9 13-5.9 20.4-5.9 5 0 9.4 2 12.2 6.4 2.6 3.9 3.4 8.8 3.4 14l-.1 4.3c-.2 3-.9 6.3-3 9-2.4 3-5.8 4.2-9.1 4.2a11 11 0 0 1-8.6-3.6 12.7 12.7 0 0 1-2.8-8.5v-.7a17 17 0 0 0-4.3 2.3c-2 1.4-4 3.7-5.7 7.3v29.5c0 2.9-.6 6.2-3.2 8.8a12 12 0 0 1-8.8 3.4c-3 0-6.2-.9-8.6-3.7a12.8 12.8 0 0 1-2.9-8.5V65.6l.1-5.8v-.1l.2-5.3Zm6.6 1c0 1.2 0 2.7-.2 4.6v45.6c0 3.5 1.6 5.3 4.6 5.4h.3c3.6 0 5.5-1.8 5.6-5.4v-.3l-.1-31c2.1-4.8 4.8-8.4 8-10.9l.3-.2c3.6-2.6 8.4-4.3 14.4-5l.1 4.7.2 4v.3c0 3.4 1.6 5.2 4.6 5.3h.3c3.3 0 5.2-2.2 5.6-6.6v-4.4c0-4.5-.6-8-2-10.2l-.2-.2a7.5 7.5 0 0 0-6.3-3.5h-.5a34 34 0 0 0-24.1 10.5c0-6.3-2-9.4-5.6-9.4-3.3 0-5 1.9-5 5.7v1Z"/><path fill="#000" d="M26.8 33.7c0-3.2 1.2-6.3 3.6-8.6l.2-.2a12 12 0 0 1 8.4-3.2c3.8 0 7 1.7 9.3 4.8 2 2.7 2.7 6.1 3 9.4v.1c.2 1.5.3 3.2.3 5h1.3a74.8 74.8 0 0 1 9.1.6l.6.2c2.4.8 4.6 2.2 6 4.6 1.5 2.2 2 4.7 2 7 0 3-1.1 6.1-3.4 8.6a11.8 11.8 0 0 1-8.7 3.5h-3.3a33.1 33.1 0 0 0-3.3-.1l1 27.5v5.5c.1 4.4-.3 8.7-2 12.1-.9 1.9-2.2 3.6-4 5a12.4 12.4 0 0 1-14.6-1.2l-.1-.1a11.2 11.2 0 0 1-3.8-8.5 184.4 184.4 0 0 1 .3-12.8l-1-27-6.8-.6h-.2c-2.7-.4-5.6-1.5-7.8-3.9a12 12 0 0 1-2.9-8.2c0-3.1 1-6.1 3.3-8.6s5.4-3.7 8.6-3.7h.3l4.8.4v-.2l-.2-7.4Zm6.5 1.2a230.7 230.7 0 0 0 .5 13.5l-11.9-1c-1.5 0-2.8.6-3.9 1.7-1 1-1.5 2.4-1.5 4.1v.3c.1 3.1 1.8 4.9 5 5.3 5.7.5 9.8.9 12.6 1l1.1 33a178.8 178.8 0 0 1-.3 12.9c0 1.4.5 2.7 1.6 3.7 1 .9 2.3 1.4 3.7 1.4h.3c4 0 6-3.8 6-11.6v-.8l-.1-2.8V93l-1.2-33.4 7.7-.9a39.5 39.5 0 0 1 5 .2h.6c1.6 0 3-.5 4-1.6 1-1 1.5-2.3 1.6-3.8v-.3c0-2.8-1.2-4.5-3.5-5.3-1-.3-3.1-.5-6.3-.6H53c-.7 0-3.3.3-8 1v-3.6l.2-3.2-.1-4-.1-1c-.6-5.4-2.4-8.2-5.6-8.4H39c-1.6 0-3 .5-4 1.6-1.2 1-1.7 2.3-1.7 3.9v1.2Z"/></svg>