<svg width="310" height="36" viewBox="0 0 310 36" fill="none" xmlns="http://www.w3.org/2000/svg">
<rect x="1" y="1" width="308" height="34" rx="7" fill="#EBE8E8"/>
<rect x="1" y="1" width="308" height="34" rx="7" stroke="black" stroke-width="2"/>
<path d="M68.0469 24.4766C66.724 24.4766 65.6823 24.1823 64.9219 23.5938C64.2812 23.1042 63.9609 22.5391 63.9609 21.8984C63.9609 21.5703 64.0599 21.2995 64.2578 21.0859C64.4557 20.8672 64.7292 20.7578 65.0781 20.7578C65.5469 20.7578 65.8906 20.9974 66.1094 21.4766C66.4062 22.1172 67.0781 22.4375 68.125 22.4375C69.0208 22.4375 69.888 22.2422 70.7266 21.8516C71.5964 21.4505 72.0312 21.0104 72.0312 20.5312C72.0312 19.875 71.7604 19.4427 71.2188 19.2344C70.8333 19.0833 70.0599 18.9948 68.8984 18.9688C67.9974 18.9479 67.1901 18.7786 66.4766 18.4609C65.513 18.0286 65.0391 17.4089 65.0547 16.6016C65.0703 15.5859 65.612 14.6562 66.6797 13.8125C67.7474 12.9635 68.9245 12.5391 70.2109 12.5391C70.7214 12.5391 71.3516 12.6562 72.1016 12.8906C73.0339 13.1823 73.5 13.5182 73.5 13.8984C73.5 14.1693 73.4062 14.4089 73.2188 14.6172C73.0104 14.8516 72.7422 14.9688 72.4141 14.9688C72.1693 14.9688 71.8021 14.9167 71.3125 14.8125C70.8281 14.7083 70.4609 14.6562 70.2109 14.6562C69.5391 14.6615 68.901 14.8229 68.2969 15.1406C67.6719 15.4635 67.3594 15.8151 67.3594 16.1953C67.3594 16.3932 67.4531 16.5573 67.6406 16.6875C67.8333 16.8125 68.1198 16.901 68.5 16.9531C69.1667 16.9896 69.8307 17.026 70.4922 17.0625C71.6484 17.151 72.5625 17.4766 73.2344 18.0391C73.974 18.6641 74.3438 19.5286 74.3438 20.6328C74.3438 21.9766 73.5781 22.9948 72.0469 23.6875C70.8802 24.2135 69.5469 24.4766 68.0469 24.4766ZM77.7969 16.8516C78.1771 16.4766 78.5833 16.1979 79.0156 16.0156C79.4531 15.8281 79.9193 15.7344 80.4141 15.7344C81.3047 15.7344 81.9453 15.9844 82.3359 16.4844C82.6276 16.8594 82.8047 17.4349 82.8672 18.2109C82.8932 18.8516 82.9219 19.4948 82.9531 20.1406C83.0365 20.9792 83.0885 21.4896 83.1094 21.6719C83.1823 22.25 83.2708 22.7552 83.375 23.1875C83.401 23.2969 83.4141 23.3932 83.4141 23.4766C83.4141 23.7682 83.3021 24.0078 83.0781 24.1953C82.8594 24.388 82.6016 24.4844 82.3047 24.4844C81.7786 24.4844 81.4375 24.224 81.2812 23.7031C81.1562 23.2812 81.0417 22.6875 80.9375 21.9219C80.8438 21.1875 80.7969 20.5833 80.7969 20.1094C80.7969 19.9792 80.8021 19.7839 80.8125 19.5234C80.8281 19.2578 80.8359 19.0599 80.8359 18.9297C80.8359 18.5443 80.8307 18.3203 80.8203 18.2578C80.7734 17.9714 80.638 17.8281 80.4141 17.8281C79.8359 17.8281 79.3125 18.0938 78.8438 18.625C78.6042 18.8906 78.276 19.3958 77.8594 20.1406C77.8594 22.026 77.7682 23.1615 77.5859 23.5469C77.3828 23.974 77.0599 24.1875 76.6172 24.1875C76.3255 24.1875 76.0651 24.0911 75.8359 23.8984C75.612 23.7005 75.5 23.4583 75.5 23.1719C75.5 23.0729 75.5286 22.9349 75.5859 22.7578C75.6224 22.6432 75.6536 21.9401 75.6797 20.6484C75.6536 19.6016 75.6589 17.8594 75.6953 15.4219L75.7109 15.1641C75.7422 14.5495 75.7578 14.138 75.7578 13.9297C75.7578 13.7682 75.7318 13.5312 75.6797 13.2188C75.6328 12.901 75.6094 12.6615 75.6094 12.5C75.6094 12.2031 75.7161 11.9609 75.9297 11.7734C76.1432 11.5807 76.401 11.4844 76.7031 11.4844C77.2188 11.4844 77.5651 11.7604 77.7422 12.3125C77.8411 12.625 77.8906 13.1042 77.8906 13.75C77.8906 14.2708 77.875 14.7995 77.8438 15.3359C77.8125 15.8464 77.7969 16.3516 77.7969 16.8516ZM91.2734 18.3672C91.2266 19.1641 90.8646 19.5625 90.1875 19.5625C89.5312 19.5625 89.2031 19.224 89.2031 18.5469L89.1641 17.7578C87.9922 17.9453 87.1536 18.5469 86.6484 19.5625L86.6562 23.4922C86.6562 23.7891 86.5547 24.0339 86.3516 24.2266C86.1484 24.4245 85.8906 24.5234 85.5781 24.5234C85.2552 24.5234 85.0052 24.4193 84.8281 24.2109C84.6615 24.0234 84.5781 23.7839 84.5781 23.4922V18.375C84.5781 18.2135 84.5833 17.974 84.5938 17.6562C84.6042 17.3333 84.6094 17.0911 84.6094 16.9297C84.6094 16.638 84.6953 16.3958 84.8672 16.2031C85.0443 16.0052 85.2943 15.9062 85.6172 15.9062C86.1953 15.9062 86.5391 16.2031 86.6484 16.7969C87.5703 16.1094 88.5938 15.7656 89.7188 15.7656C90.7604 15.7656 91.2812 16.4583 91.2812 17.8438C91.2812 18.1094 91.2786 18.2839 91.2734 18.3672ZM98.5703 24.5547C97.9297 24.5547 97.5729 24.2396 97.5 23.6094C97.4271 23.0729 97.3542 22.5339 97.2812 21.9922C97.2031 21.4193 97.1641 20.8802 97.1641 20.375C97.1641 20.2396 97.1719 20.0078 97.1875 19.6797C97.2083 19.3516 97.2188 19.1198 97.2188 18.9844C97.2188 18.9479 97.224 18.8568 97.2344 18.7109C97.2448 18.5599 97.25 18.4375 97.25 18.3438C97.25 17.9115 97.138 17.6953 96.9141 17.6953C96.4349 17.6953 95.9635 17.9766 95.5 18.5391C95.0417 19.0964 94.6823 19.8047 94.4219 20.6641C94.4115 20.8359 94.388 21.0651 94.3516 21.3516C94.3203 21.5859 94.3047 21.8151 94.3047 22.0391C94.3047 22.1849 94.3203 22.4062 94.3516 22.7031C94.388 22.9948 94.4062 23.2135 94.4062 23.3594C94.4062 23.6562 94.3021 23.901 94.0938 24.0938C93.8906 24.2917 93.6328 24.3906 93.3203 24.3906C93.0078 24.3906 92.75 24.2917 92.5469 24.0938C92.3438 23.901 92.2422 23.6562 92.2422 23.3594C92.2422 23.2135 92.2266 22.9948 92.1953 22.7031C92.1641 22.4062 92.1484 22.1849 92.1484 22.0391C92.1484 21.5391 92.1849 20.8438 92.2578 19.9531C92.3307 19.0625 92.3672 18.3672 92.3672 17.8672C92.3672 17.7109 92.3568 17.4792 92.3359 17.1719C92.3203 16.8594 92.3125 16.6276 92.3125 16.4766C92.3125 16.1849 92.4167 15.9453 92.625 15.7578C92.8385 15.5651 93.099 15.4688 93.4062 15.4688C94.0885 15.4688 94.4531 15.8776 94.5 16.6953L94.5078 16.7812C95.2682 16.0156 96.0703 15.6328 96.9141 15.6328C97.8984 15.6328 98.5781 16.0443 98.9531 16.8672C99.2031 17.4193 99.3281 18.2448 99.3281 19.3438V19.8984C99.3229 20.138 99.3203 20.3073 99.3203 20.4062C99.3203 20.8125 99.375 21.3359 99.4844 21.9766C99.599 22.6172 99.6562 23.138 99.6562 23.5391C99.6562 23.8307 99.5521 24.0729 99.3438 24.2656C99.1354 24.4583 98.8776 24.5547 98.5703 24.5547ZM107.633 19.4844C107.633 19.8333 107.635 20.3594 107.641 21.0625C107.646 21.7656 107.648 22.2917 107.648 22.6406C107.648 22.75 107.656 22.9141 107.672 23.1328C107.693 23.3464 107.703 23.5078 107.703 23.6172C107.703 23.9089 107.596 24.1484 107.383 24.3359C107.174 24.5286 106.917 24.625 106.609 24.625C106.177 24.625 105.862 24.4297 105.664 24.0391C104.997 24.2839 104.307 24.4062 103.594 24.4062C102.854 24.4062 102.232 24.25 101.727 23.9375C101.159 23.5781 100.82 23.0547 100.711 22.3672C100.508 21.0651 100.406 19.901 100.406 18.875C100.406 18.1979 100.484 17.4245 100.641 16.5547C100.745 15.9661 101.096 15.6719 101.695 15.6719C101.997 15.6719 102.255 15.7682 102.469 15.9609C102.682 16.1484 102.789 16.388 102.789 16.6797C102.789 16.9089 102.75 17.2682 102.672 17.7578C102.599 18.2474 102.562 18.6198 102.562 18.875C102.562 19.6094 102.586 20.2526 102.633 20.8047C102.685 21.3516 102.76 21.8047 102.859 22.1641C102.99 22.2214 103.115 22.2656 103.234 22.2969C103.359 22.3281 103.479 22.3438 103.594 22.3438C104.172 22.3438 104.807 22.2604 105.5 22.0938C105.5 21.6927 105.497 21.237 105.492 20.7266C105.482 20.1172 105.477 19.6797 105.477 19.4141C105.477 18.3464 105.526 17.4245 105.625 16.6484C105.703 16.0286 106.057 15.7188 106.688 15.7188C106.995 15.7188 107.258 15.8151 107.477 16.0078C107.695 16.2005 107.797 16.4427 107.781 16.7344C107.682 18.7188 107.633 19.6354 107.633 19.4844ZM114.633 17.7109C114.523 17.7109 114.393 17.7083 114.242 17.7031C114.096 17.6927 113.969 17.6875 113.859 17.6875C113.646 17.6875 113.398 17.7083 113.117 17.75C113.211 19.8542 113.258 21.2292 113.258 21.875C113.258 21.9427 113.26 22.0703 113.266 22.2578C113.271 22.4401 113.273 22.5885 113.273 22.7031C113.273 23.901 112.896 24.5 112.141 24.5C111.854 24.5 111.607 24.4115 111.398 24.2344C111.169 24.0469 111.055 23.8125 111.055 23.5312C111.055 23.3438 111.062 23.0625 111.078 22.6875C111.094 22.3125 111.102 22.0312 111.102 21.8438C111.102 21.2135 111.055 19.8646 110.961 17.7969C110.638 17.7812 110.148 17.7396 109.492 17.6719C108.841 17.599 108.516 17.2604 108.516 16.6562C108.516 16.3646 108.615 16.1172 108.812 15.9141C109.01 15.7109 109.266 15.6094 109.578 15.6094C109.771 15.6094 110.214 15.6406 110.906 15.7031C110.901 15.5365 110.888 15.2604 110.867 14.875C110.846 14.5417 110.836 14.2839 110.836 14.1016C110.836 13.8099 110.943 13.5677 111.156 13.375C111.37 13.1823 111.628 13.0859 111.93 13.0859C112.701 13.0859 113.086 13.7344 113.086 15.0312L113.07 15.6719C113.393 15.625 113.656 15.6016 113.859 15.6016C114.458 15.6016 114.867 15.6406 115.086 15.7188C115.503 15.8646 115.711 16.1823 115.711 16.6719C115.711 16.9688 115.609 17.2161 115.406 17.4141C115.203 17.612 114.945 17.7109 114.633 17.7109ZM119.422 20.3359C119.422 20.6328 119.43 21.1094 119.445 21.7656C119.466 22.4219 119.477 22.8984 119.477 23.1953C119.477 23.4974 119.375 23.7474 119.172 23.9453C118.969 24.138 118.711 24.2344 118.398 24.2344C118.086 24.2344 117.828 24.138 117.625 23.9453C117.422 23.7474 117.32 23.4974 117.32 23.1953C117.32 22.8984 117.31 22.4219 117.289 21.7656C117.273 21.1094 117.266 20.6328 117.266 20.3359C117.266 19.8724 117.292 19.2917 117.344 18.5938C117.396 17.8958 117.422 17.3151 117.422 16.8516C117.422 16.5495 117.523 16.3021 117.727 16.1094C117.93 15.9115 118.188 15.8125 118.5 15.8125C118.812 15.8125 119.07 15.9115 119.273 16.1094C119.477 16.3021 119.578 16.5495 119.578 16.8516C119.578 17.3151 119.552 17.8958 119.5 18.5938C119.448 19.2917 119.422 19.8724 119.422 20.3359ZM120.352 12.5703C120.076 12.7578 119.734 13.0755 119.328 13.5234C118.901 13.9922 118.562 14.3177 118.312 14.5C118.109 14.651 117.885 14.7266 117.641 14.7266C117.365 14.7266 117.125 14.638 116.922 14.4609C116.719 14.2839 116.617 14.0781 116.617 13.8438C116.617 13.651 116.727 13.4401 116.945 13.2109C117.138 13.0339 117.328 12.8568 117.516 12.6797C118.073 12.0703 118.401 11.7214 118.5 11.6328C118.974 11.2057 119.393 10.9922 119.758 10.9922C120.034 10.9922 120.271 11.0833 120.469 11.2656C120.672 11.4479 120.773 11.6536 120.773 11.8828C120.773 12.1484 120.633 12.3776 120.352 12.5703ZM132.281 23.4219C132.255 23.6823 132.148 23.8958 131.961 24.0625C131.773 24.2292 131.542 24.3125 131.266 24.3125C130.74 24.3125 130.367 24.0417 130.148 23.5C129.586 22.0938 128.724 19.9948 127.562 17.2031C127.495 17.0469 127.461 16.8984 127.461 16.7578C127.461 16.4766 127.573 16.2396 127.797 16.0469C128.026 15.849 128.286 15.75 128.578 15.75C129.026 15.75 129.346 15.9557 129.539 16.3672C129.836 16.9974 130.414 18.4714 131.273 20.7891C131.549 20.2005 131.93 19.3047 132.414 18.1016C132.56 17.7005 132.786 17.1406 133.094 16.4219C133.307 16.0052 133.63 15.7969 134.062 15.7969C134.354 15.7969 134.612 15.8932 134.836 16.0859C135.065 16.2786 135.18 16.5182 135.18 16.8047C135.18 16.9922 134.758 18.0234 133.914 19.8984C133.227 21.4297 132.682 22.6042 132.281 23.4219ZM142.609 24.5156C142.37 24.5156 141.99 24.2552 141.469 23.7344C140.99 23.9635 140.568 24.1354 140.203 24.25C139.839 24.3698 139.529 24.4297 139.273 24.4297C138.018 24.4297 137.076 24.0938 136.445 23.4219C135.82 22.75 135.508 21.7448 135.508 20.4062C135.508 19.151 135.971 18.0781 136.898 17.1875C137.826 16.2917 138.935 15.8438 140.227 15.8438C140.721 15.8438 141.294 15.9844 141.945 16.2656C142.732 16.6042 143.125 16.9974 143.125 17.4453C143.125 17.6328 143.065 17.7969 142.945 17.9375C142.893 18.1458 142.852 18.4089 142.82 18.7266C142.794 19.0391 142.781 19.4062 142.781 19.8281C142.781 20.8229 142.852 21.5391 142.992 21.9766C143.008 22.0234 143.128 22.2943 143.352 22.7891C143.555 23.237 143.656 23.4922 143.656 23.5547C143.656 23.8307 143.549 24.0599 143.336 24.2422C143.128 24.4245 142.885 24.5156 142.609 24.5156ZM140.672 19.1562C140.672 18.9896 140.682 18.7995 140.703 18.5859C140.729 18.3672 140.766 18.125 140.812 17.8594C140.708 17.8073 140.615 17.7708 140.531 17.75C140.453 17.724 140.385 17.7109 140.328 17.7109C139.62 17.7109 139 17.9896 138.469 18.5469C137.938 19.099 137.672 19.7396 137.672 20.4688C137.672 21.1667 137.797 21.6927 138.047 22.0469C138.297 22.3958 138.672 22.5703 139.172 22.5703C139.495 22.5703 139.799 22.5182 140.086 22.4141C140.378 22.3047 140.651 22.1458 140.906 21.9375C140.75 20.6979 140.672 19.7708 140.672 19.1562ZM149.859 18.2812C149.344 18.2812 149.034 18.0651 148.93 17.6328C148.721 17.5964 148.508 17.5781 148.289 17.5781C147.034 17.5781 146.406 17.75 146.406 18.0938C146.406 18.2969 146.784 18.5703 147.539 18.9141C148.57 19.388 149.268 19.7578 149.633 20.0234C150.388 20.5703 150.766 21.1875 150.766 21.875C150.766 22.7708 150.349 23.4505 149.516 23.9141C148.844 24.2839 148.018 24.4688 147.039 24.4688C146.346 24.4688 145.714 24.362 145.141 24.1484C144.359 23.8568 143.969 23.4271 143.969 22.8594C143.969 22.3385 144.279 22.0781 144.898 22.0781C145.138 22.0781 145.484 22.1536 145.938 22.3047C146.391 22.4557 146.74 22.5312 146.984 22.5312C148.042 22.5312 148.573 22.3177 148.578 21.8906C148.578 21.625 148.211 21.3307 147.477 21.0078C146.404 20.5339 145.716 20.1927 145.414 19.9844C144.68 19.4688 144.312 18.8411 144.312 18.1016C144.312 17.0547 144.867 16.349 145.977 15.9844C146.628 15.7708 147.617 15.6641 148.945 15.6641C149.466 15.6641 149.852 15.7318 150.102 15.8672C150.445 16.0495 150.617 16.3854 150.617 16.875C150.617 17.8125 150.365 18.2812 149.859 18.2812ZM150.266 12.9609C148.724 14.1953 147.799 14.8125 147.492 14.8125C147.258 14.8125 147.036 14.724 146.828 14.5469C146.672 14.3854 146.513 14.224 146.352 14.0625C146.023 13.7396 145.695 13.4193 145.367 13.1016C144.93 12.6276 144.711 12.276 144.711 12.0469C144.711 11.8333 144.81 11.651 145.008 11.5C145.19 11.3594 145.401 11.2891 145.641 11.2891C145.958 11.2891 146.211 11.4193 146.398 11.6797C146.602 11.9661 147 12.3932 147.594 12.9609C147.922 12.7005 148.419 12.3203 149.086 11.8203C149.273 11.6901 149.466 11.625 149.664 11.625C149.909 11.625 150.12 11.7031 150.297 11.8594C150.479 12.0156 150.57 12.1979 150.57 12.4062C150.57 12.6146 150.469 12.7995 150.266 12.9609ZM154.664 14.6094C154.331 14.6094 154.042 14.4974 153.797 14.2734C153.552 14.0495 153.43 13.776 153.43 13.4531C153.43 13.1302 153.552 12.8568 153.797 12.6328C154.042 12.4089 154.331 12.2969 154.664 12.2969C154.997 12.2969 155.284 12.4089 155.523 12.6328C155.768 12.8568 155.891 13.1302 155.891 13.4531C155.891 13.776 155.768 14.0495 155.523 14.2734C155.284 14.4974 154.997 14.6094 154.664 14.6094ZM155.328 20.3359C155.328 20.6328 155.336 21.1094 155.352 21.7656C155.372 22.4219 155.383 22.8984 155.383 23.1953C155.383 23.4974 155.281 23.7474 155.078 23.9453C154.875 24.138 154.617 24.2344 154.305 24.2344C153.992 24.2344 153.734 24.138 153.531 23.9453C153.328 23.7474 153.227 23.4974 153.227 23.1953C153.227 22.8984 153.216 22.4219 153.195 21.7656C153.18 21.1094 153.172 20.6328 153.172 20.3359C153.172 19.8724 153.198 19.2917 153.25 18.5938C153.302 17.8958 153.328 17.3151 153.328 16.8516C153.328 16.5495 153.43 16.3021 153.633 16.1094C153.836 15.9115 154.094 15.8125 154.406 15.8125C154.719 15.8125 154.977 15.9115 155.18 16.1094C155.383 16.3021 155.484 16.5495 155.484 16.8516C155.484 17.3151 155.458 17.8958 155.406 18.5938C155.354 19.2917 155.328 19.8724 155.328 20.3359ZM160.961 24.4922C159.815 24.4922 158.854 24.1667 158.078 23.5156C157.26 22.8281 156.852 21.9219 156.852 20.7969C156.852 19.7604 157.219 18.6901 157.953 17.5859C158.786 16.3255 159.755 15.6953 160.859 15.6953C161.401 15.6953 162.034 15.8411 162.758 16.1328C163.638 16.4922 164.078 16.9062 164.078 17.375C164.078 17.6302 163.99 17.8568 163.812 18.0547C163.625 18.2682 163.383 18.375 163.086 18.375C162.862 18.375 162.591 18.2552 162.273 18.0156C161.961 17.7708 161.49 17.6484 160.859 17.6484C160.458 17.6484 160.023 18.0417 159.555 18.8281C159.107 19.5885 158.883 20.2448 158.883 20.7969C158.883 21.3438 159.081 21.7734 159.477 22.0859C159.852 22.3828 160.346 22.5312 160.961 22.5312C161.31 22.5312 161.737 22.3984 162.242 22.1328C162.747 21.8672 163.068 21.7344 163.203 21.7344C163.484 21.7344 163.724 21.8359 163.922 22.0391C164.125 22.2422 164.227 22.474 164.227 22.7344C164.227 23.1406 163.784 23.5469 162.898 23.9531C162.107 24.3125 161.461 24.4922 160.961 24.4922ZM167.906 16.8516C168.286 16.4766 168.693 16.1979 169.125 16.0156C169.562 15.8281 170.029 15.7344 170.523 15.7344C171.414 15.7344 172.055 15.9844 172.445 16.4844C172.737 16.8594 172.914 17.4349 172.977 18.2109C173.003 18.8516 173.031 19.4948 173.062 20.1406C173.146 20.9792 173.198 21.4896 173.219 21.6719C173.292 22.25 173.38 22.7552 173.484 23.1875C173.51 23.2969 173.523 23.3932 173.523 23.4766C173.523 23.7682 173.411 24.0078 173.188 24.1953C172.969 24.388 172.711 24.4844 172.414 24.4844C171.888 24.4844 171.547 24.224 171.391 23.7031C171.266 23.2812 171.151 22.6875 171.047 21.9219C170.953 21.1875 170.906 20.5833 170.906 20.1094C170.906 19.9792 170.911 19.7839 170.922 19.5234C170.938 19.2578 170.945 19.0599 170.945 18.9297C170.945 18.5443 170.94 18.3203 170.93 18.2578C170.883 17.9714 170.747 17.8281 170.523 17.8281C169.945 17.8281 169.422 18.0938 168.953 18.625C168.714 18.8906 168.385 19.3958 167.969 20.1406C167.969 22.026 167.878 23.1615 167.695 23.5469C167.492 23.974 167.169 24.1875 166.727 24.1875C166.435 24.1875 166.174 24.0911 165.945 23.8984C165.721 23.7005 165.609 23.4583 165.609 23.1719C165.609 23.0729 165.638 22.9349 165.695 22.7578C165.732 22.6432 165.763 21.9401 165.789 20.6484C165.763 19.6016 165.768 17.8594 165.805 15.4219L165.82 15.1641C165.852 14.5495 165.867 14.138 165.867 13.9297C165.867 13.7682 165.841 13.5312 165.789 13.2188C165.742 12.901 165.719 12.6615 165.719 12.5C165.719 12.2031 165.826 11.9609 166.039 11.7734C166.253 11.5807 166.51 11.4844 166.812 11.4844C167.328 11.4844 167.674 11.7604 167.852 12.3125C167.951 12.625 168 13.1042 168 13.75C168 14.2708 167.984 14.7995 167.953 15.3359C167.922 15.8464 167.906 16.3516 167.906 16.8516ZM184.992 24.4609C184.029 24.4609 183.201 24.1302 182.508 23.4688C181.747 22.7448 181.349 21.7786 181.312 20.5703C181.276 19.4193 181.591 18.3932 182.258 17.4922C183.049 16.4297 184.151 15.8984 185.562 15.8984C186.604 15.8984 187.432 16.3151 188.047 17.1484C188.599 17.8984 188.875 18.8281 188.875 19.9375C188.875 21.1458 188.552 22.1771 187.906 23.0312C187.182 23.9844 186.211 24.4609 184.992 24.4609ZM185.461 17.9609C184.82 17.9557 184.315 18.2474 183.945 18.8359C183.633 19.3307 183.477 19.9089 183.477 20.5703C183.477 21.1953 183.654 21.6745 184.008 22.0078C184.289 22.2734 184.617 22.4062 184.992 22.4062C185.445 22.4062 185.839 22.2526 186.172 21.9453C186.552 21.5859 186.755 21.099 186.781 20.4844C186.849 18.8073 186.409 17.9661 185.461 17.9609ZM195.914 16.1484C195.982 14.3724 196.062 13.1458 196.156 12.4688C196.245 11.8542 196.583 11.5469 197.172 11.5469C197.479 11.5469 197.727 11.6458 197.914 11.8438C198.102 12.0417 198.195 12.2839 198.195 12.5703C198.195 13.3255 198.135 14.4505 198.016 15.9453C197.901 17.4401 197.844 18.5651 197.844 19.3203C197.844 21.1641 197.904 22.3984 198.023 23.0234C198.039 23.1068 198.047 23.1823 198.047 23.25C198.047 23.5365 197.943 23.7734 197.734 23.9609C197.526 24.1432 197.284 24.2344 197.008 24.2344C196.622 24.2344 196.336 24.0625 196.148 23.7188C195.794 23.9323 195.427 24.0911 195.047 24.1953C194.667 24.3047 194.273 24.3594 193.867 24.3594C192.701 24.3594 191.732 23.987 190.961 23.2422C190.174 22.4818 189.781 21.513 189.781 20.3359C189.781 18.9349 190.177 17.8047 190.969 16.9453C191.76 16.0807 192.794 15.6484 194.07 15.6484C194.461 15.6484 194.81 15.6901 195.117 15.7734C195.424 15.8568 195.69 15.9818 195.914 16.1484ZM195.758 18.6094C195.586 18.2812 195.362 18.0365 195.086 17.875C194.81 17.7135 194.482 17.6328 194.102 17.6328C193.331 17.6328 192.753 17.8568 192.367 18.3047C191.982 18.7474 191.789 19.4141 191.789 20.3047C191.789 20.8672 191.997 21.349 192.414 21.75C192.831 22.151 193.315 22.3516 193.867 22.3516C194.268 22.3516 194.573 22.3047 194.781 22.2109C194.922 22.1484 195.161 21.9818 195.5 21.7109C195.589 21.638 195.674 21.5573 195.758 21.4688C195.747 21.2188 195.747 20.2656 195.758 18.6094ZM203.211 24.4609C202.763 24.4609 202.292 24.4089 201.797 24.3047L201.789 27.4922C201.789 27.7943 201.688 28.0443 201.484 28.2422C201.281 28.4401 201.023 28.5391 200.711 28.5391C200.398 28.5391 200.141 28.4401 199.938 28.2422C199.734 28.0443 199.633 27.7943 199.633 27.4922C199.633 27.2474 199.638 26.276 199.648 24.5781C199.659 23.3177 199.659 22.2891 199.648 21.4922C199.633 20.3672 199.596 19.3984 199.539 18.5859C199.461 17.4661 199.422 16.9531 199.422 17.0469C199.422 16.6146 199.518 16.2448 199.711 15.9375C199.935 15.5885 200.237 15.4141 200.617 15.4141C200.909 15.4141 201.154 15.513 201.352 15.7109C201.549 15.9089 201.648 16.1458 201.648 16.4219L201.641 16.5C201.99 16.3021 202.339 16.1562 202.688 16.0625C203.042 15.9635 203.396 15.9141 203.75 15.9141C204.948 15.9141 205.823 16.4219 206.375 17.4375C206.786 18.2031 206.992 19.1953 206.992 20.4141C206.992 21.5547 206.667 22.5 206.016 23.25C205.318 24.0573 204.383 24.4609 203.211 24.4609ZM203.75 18C203.422 18 203.089 18.0781 202.75 18.2344C202.411 18.3854 202.07 18.6146 201.727 18.9219C201.789 19.9948 201.82 21.0703 201.82 22.1484C202.284 22.2995 202.747 22.375 203.211 22.375C203.747 22.375 204.159 22.1849 204.445 21.8047C204.706 21.4609 204.836 20.9974 204.836 20.4141C204.836 19.7109 204.805 19.224 204.742 18.9531C204.591 18.3177 204.26 18 203.75 18ZM211.383 24.4609C210.419 24.4609 209.591 24.1302 208.898 23.4688C208.138 22.7448 207.74 21.7786 207.703 20.5703C207.667 19.4193 207.982 18.3932 208.648 17.4922C209.44 16.4297 210.542 15.8984 211.953 15.8984C212.995 15.8984 213.823 16.3151 214.438 17.1484C214.99 17.8984 215.266 18.8281 215.266 19.9375C215.266 21.1458 214.943 22.1771 214.297 23.0312C213.573 23.9844 212.602 24.4609 211.383 24.4609ZM211.852 17.9609C211.211 17.9557 210.706 18.2474 210.336 18.8359C210.023 19.3307 209.867 19.9089 209.867 20.5703C209.867 21.1953 210.044 21.6745 210.398 22.0078C210.68 22.2734 211.008 22.4062 211.383 22.4062C211.836 22.4062 212.229 22.2526 212.562 21.9453C212.943 21.5859 213.146 21.099 213.172 20.4844C213.24 18.8073 212.799 17.9661 211.852 17.9609ZM220.781 23.4219C220.755 23.6823 220.648 23.8958 220.461 24.0625C220.273 24.2292 220.042 24.3125 219.766 24.3125C219.24 24.3125 218.867 24.0417 218.648 23.5C218.086 22.0938 217.224 19.9948 216.062 17.2031C215.995 17.0469 215.961 16.8984 215.961 16.7578C215.961 16.4766 216.073 16.2396 216.297 16.0469C216.526 15.849 216.786 15.75 217.078 15.75C217.526 15.75 217.846 15.9557 218.039 16.3672C218.336 16.9974 218.914 18.4714 219.773 20.7891C220.049 20.2005 220.43 19.3047 220.914 18.1016C221.06 17.7005 221.286 17.1406 221.594 16.4219C221.807 16.0052 222.13 15.7969 222.562 15.7969C222.854 15.7969 223.112 15.8932 223.336 16.0859C223.565 16.2786 223.68 16.5182 223.68 16.8047C223.68 16.9922 223.258 18.0234 222.414 19.8984C221.727 21.4297 221.182 22.6042 220.781 23.4219ZM228.305 24.3594C227.06 24.3594 226.042 24.0625 225.25 23.4688C224.375 22.8125 223.938 21.888 223.938 20.6953C223.938 19.3776 224.284 18.263 224.977 17.3516C225.747 16.3411 226.786 15.8359 228.094 15.8359C229 15.8359 229.753 15.9818 230.352 16.2734C231.138 16.6589 231.531 17.2578 231.531 18.0703C231.531 18.6432 231.211 19.151 230.57 19.5938C230.279 19.7969 229.693 20.0938 228.812 20.4844L226.18 21.6484C226.43 21.9193 226.732 22.1224 227.086 22.2578C227.44 22.3932 227.846 22.4609 228.305 22.4609C229.003 22.4609 229.594 22.3177 230.078 22.0312C230.51 21.776 230.857 21.6484 231.117 21.6484C231.659 21.6484 231.93 21.9115 231.93 22.4375C231.93 23.0312 231.495 23.5156 230.625 23.8906C229.896 24.2031 229.122 24.3594 228.305 24.3594ZM228.094 17.7266C227.609 17.7266 227.195 17.888 226.852 18.2109C226.508 18.5339 226.232 19.0182 226.023 19.6641C226.612 19.4089 227.198 19.1562 227.781 18.9062C228.484 18.5885 229.044 18.2943 229.461 18.0234C229.112 17.8255 228.656 17.7266 228.094 17.7266ZM231.031 12.9609C229.49 14.1953 228.565 14.8125 228.258 14.8125C228.023 14.8125 227.802 14.724 227.594 14.5469C227.438 14.3854 227.279 14.224 227.117 14.0625C226.789 13.7396 226.461 13.4193 226.133 13.1016C225.695 12.6276 225.477 12.276 225.477 12.0469C225.477 11.8333 225.576 11.651 225.773 11.5C225.956 11.3594 226.167 11.2891 226.406 11.2891C226.724 11.2891 226.977 11.4193 227.164 11.6797C227.367 11.9661 227.766 12.3932 228.359 12.9609C228.688 12.7005 229.185 12.3203 229.852 11.8203C230.039 11.6901 230.232 11.625 230.43 11.625C230.674 11.625 230.885 11.7031 231.062 11.8594C231.245 12.0156 231.336 12.1979 231.336 12.4062C231.336 12.6146 231.234 12.7995 231.031 12.9609ZM239.039 16.1484C239.107 14.3724 239.188 13.1458 239.281 12.4688C239.37 11.8542 239.708 11.5469 240.297 11.5469C240.604 11.5469 240.852 11.6458 241.039 11.8438C241.227 12.0417 241.32 12.2839 241.32 12.5703C241.32 13.3255 241.26 14.4505 241.141 15.9453C241.026 17.4401 240.969 18.5651 240.969 19.3203C240.969 21.1641 241.029 22.3984 241.148 23.0234C241.164 23.1068 241.172 23.1823 241.172 23.25C241.172 23.5365 241.068 23.7734 240.859 23.9609C240.651 24.1432 240.409 24.2344 240.133 24.2344C239.747 24.2344 239.461 24.0625 239.273 23.7188C238.919 23.9323 238.552 24.0911 238.172 24.1953C237.792 24.3047 237.398 24.3594 236.992 24.3594C235.826 24.3594 234.857 23.987 234.086 23.2422C233.299 22.4818 232.906 21.513 232.906 20.3359C232.906 18.9349 233.302 17.8047 234.094 16.9453C234.885 16.0807 235.919 15.6484 237.195 15.6484C237.586 15.6484 237.935 15.6901 238.242 15.7734C238.549 15.8568 238.815 15.9818 239.039 16.1484ZM238.883 18.6094C238.711 18.2812 238.487 18.0365 238.211 17.875C237.935 17.7135 237.607 17.6328 237.227 17.6328C236.456 17.6328 235.878 17.8568 235.492 18.3047C235.107 18.7474 234.914 19.4141 234.914 20.3047C234.914 20.8672 235.122 21.349 235.539 21.75C235.956 22.151 236.44 22.3516 236.992 22.3516C237.393 22.3516 237.698 22.3047 237.906 22.2109C238.047 22.1484 238.286 21.9818 238.625 21.7109C238.714 21.638 238.799 21.5573 238.883 21.4688C238.872 21.2188 238.872 20.2656 238.883 18.6094ZM245.484 20.3359C245.484 20.6328 245.492 21.1094 245.508 21.7656C245.529 22.4219 245.539 22.8984 245.539 23.1953C245.539 23.4974 245.438 23.7474 245.234 23.9453C245.031 24.138 244.773 24.2344 244.461 24.2344C244.148 24.2344 243.891 24.138 243.688 23.9453C243.484 23.7474 243.383 23.4974 243.383 23.1953C243.383 22.8984 243.372 22.4219 243.352 21.7656C243.336 21.1094 243.328 20.6328 243.328 20.3359C243.328 19.8724 243.354 19.2917 243.406 18.5938C243.458 17.8958 243.484 17.3151 243.484 16.8516C243.484 16.5495 243.586 16.3021 243.789 16.1094C243.992 15.9115 244.25 15.8125 244.562 15.8125C244.875 15.8125 245.133 15.9115 245.336 16.1094C245.539 16.3021 245.641 16.5495 245.641 16.8516C245.641 17.3151 245.615 17.8958 245.562 18.5938C245.51 19.2917 245.484 19.8724 245.484 20.3359ZM246.414 12.5703C246.138 12.7578 245.797 13.0755 245.391 13.5234C244.964 13.9922 244.625 14.3177 244.375 14.5C244.172 14.651 243.948 14.7266 243.703 14.7266C243.427 14.7266 243.188 14.638 242.984 14.4609C242.781 14.2839 242.68 14.0781 242.68 13.8438C242.68 13.651 242.789 13.4401 243.008 13.2109C243.201 13.0339 243.391 12.8568 243.578 12.6797C244.135 12.0703 244.464 11.7214 244.562 11.6328C245.036 11.2057 245.456 10.9922 245.82 10.9922C246.096 10.9922 246.333 11.0833 246.531 11.2656C246.734 11.4479 246.836 11.6536 246.836 11.8828C246.836 12.1484 246.695 12.3776 246.414 12.5703Z" fill="black"/>
<path d="M63.5859 26.8047H198.266V28.1719H63.5859V26.8047ZM203.156 26.8047H246.414V28.1719H203.156V26.8047Z" fill="black"/>
</svg>
