<svg width="320" height="65" viewBox="0 0 320 65" fill="none" xmlns="http://www.w3.org/2000/svg">
<path d="M4.31982 4.21289L315.877 9.57951L314.994 60.8749L3.43625 55.5083L4.31982 4.21289Z" fill="#EEEEEE"/>
<path d="M105.011 6.17466L105.023 8.83751L105.011 6.17466ZM137.508 5.91452L136.811 8.48471V8.48471L137.508 5.91452ZM221.943 8.46093L221.363 11.06L221.943 8.46093ZM234.961 7.19304L234.402 9.79657L234.961 7.19304ZM260.92 9.23748L261.567 11.8205L260.92 9.23748ZM315.532 13.0958L318.173 13.436L315.532 13.0958ZM315.827 26.0977L313.35 27.0747L315.827 26.0977ZM315.563 32.5915L317.961 33.7486L315.563 32.5915ZM315.273 45.5833L312.893 44.3891L315.273 45.5833ZM313.96 58.5618L316.622 58.5063V58.5063L313.96 58.5618ZM310.784 61.4952L311.047 58.8453L310.784 61.4952ZM297.799 60.7994L298.895 63.2265L297.799 60.7994ZM291.306 60.4831L290.01 62.8089L291.306 60.4831ZM265.313 60.467L266.04 57.9053L265.313 60.467ZM258.841 58.9574L258.362 61.5769L258.841 58.9574ZM252.33 59.6616L253.311 62.1373L252.33 59.6616ZM245.809 60.9608L245.807 58.2979L245.809 60.9608ZM226.336 59.6815L225.314 57.2224L226.336 59.6815ZM206.845 59.4295L206.589 56.7789L206.845 59.4295ZM193.846 59.5726L193.39 56.9492L193.846 59.5726ZM187.345 59.7594L187.655 57.1146V57.1146L187.345 59.7594ZM180.847 59.697L180.588 57.0467L180.847 59.697ZM167.869 58.5973L167.872 61.2602L167.869 58.5973ZM161.383 57.9235L161.928 55.317L161.383 57.9235ZM141.891 57.7341L141.741 55.0755V55.0755L141.891 57.7341ZM135.378 58.5767L135.905 61.1868L135.378 58.5767ZM128.87 59.1293L128.783 61.7908L128.87 59.1293ZM102.893 58.1853L102.803 60.8466L102.893 58.1853ZM89.8956 58.1966L89.7639 55.537L89.8956 58.1966ZM50.9295 56.7918L51.2631 54.1499L50.9295 56.7918ZM44.4297 56.8693L44.0361 54.2357L44.4297 56.8693ZM24.9477 56.1075L23.8435 58.5306L24.9477 56.1075ZM11.9741 54.7624L12.6074 52.176L11.9741 54.7624ZM6.55461 54.136L6.353 51.4807L6.55461 54.136ZM7.58253 3.42855L8.20494 6.01767C10.1781 5.54334 12.1345 5.31466 14.0786 5.32601L14.0941 2.66318L14.1097 0.000342589C11.7219 -0.0135973 9.33727 0.267974 6.96012 0.839432L7.58253 3.42855ZM14.0941 2.66318L14.0786 5.32601C16.1777 5.33827 18.2757 5.42936 20.3725 5.59932L20.5876 2.94514L20.8028 0.290967C18.5734 0.110264 16.3423 0.0133775 14.1097 0.000342589L14.0941 2.66318ZM20.5876 2.94514L20.3725 5.59932C22.6347 5.78268 24.8994 5.83904 27.1663 5.76834L27.0832 3.10676L27.0002 0.445171C24.9325 0.509656 22.8668 0.458268 20.8028 0.290967L20.5876 2.94514ZM27.0832 3.10676L27.1663 5.76834C28.8408 5.71612 30.5592 6.10326 32.3535 7.01073L33.5553 4.63447L34.7571 2.25821C32.2566 0.993553 29.6603 0.362216 27.0002 0.445171L27.0832 3.10676ZM33.5553 4.63447L32.3535 7.01073C35.1708 8.43555 38.1386 8.58435 41.0512 7.40064L40.0486 4.93372L39.046 2.46679C37.5957 3.05621 36.2347 3.00551 34.7571 2.25821L33.5553 4.63447ZM40.0486 4.93372L41.0512 7.40064C42.9499 6.62898 44.7941 6.25144 46.5984 6.23251L46.5704 3.56978L46.5425 0.907046C44.0137 0.933573 41.5101 1.46533 39.046 2.46679L40.0486 4.93372ZM46.5704 3.56978L46.5984 6.23251C48.5076 6.21249 50.4206 6.46468 52.344 6.99679L53.054 4.43031L53.764 1.86383C51.3757 1.20312 48.9663 0.881621 46.5425 0.907046L46.5704 3.56978ZM53.054 4.43031L52.344 6.99679C54.5178 7.59816 56.6921 8.17517 58.867 8.72781L59.5228 6.14695L60.1786 3.56608C58.0402 3.0227 55.902 2.45528 53.764 1.86383L53.054 4.43031ZM59.5228 6.14695L58.867 8.72781C61.7204 9.45285 64.5552 9.0392 67.2534 7.6524L66.0361 5.28404L64.8188 2.91568C63.146 3.77545 61.6387 3.93708 60.1786 3.56608L59.5228 6.14695ZM66.0361 5.28404L67.2534 7.6524C68.7212 6.89797 70.008 6.89233 71.3775 7.55451L72.5367 5.15715L73.6958 2.7598C70.7689 1.34459 67.7219 1.42354 64.8188 2.91568L66.0361 5.28404ZM72.5367 5.15715L71.3775 7.55451C73.9191 8.78339 76.5611 9.3153 79.2584 9.06605L79.0134 6.41446L78.7684 3.76288C77.1266 3.9146 75.4507 3.6083 73.6958 2.7598L72.5367 5.15715ZM79.0134 6.41446L79.2584 9.06605C81.4715 8.86155 83.6851 8.60213 85.8992 8.28784L85.5249 5.65139L85.1507 3.01494C83.0219 3.31711 80.8945 3.56641 78.7684 3.76288L79.0134 6.41446ZM85.5249 5.65139L85.8992 8.28784C87.9463 7.99725 89.988 7.85457 92.0253 7.85903L92.0312 5.19616L92.037 2.53328C89.7422 2.52826 87.4465 2.68906 85.1507 3.01494L85.5249 5.65139ZM92.0312 5.19616L92.0253 7.85903C94.0582 7.86348 96.0896 8.0198 98.1207 8.32858L98.521 5.69595L98.9212 3.06332C96.6313 2.7152 94.3363 2.53832 92.037 2.53328L92.0312 5.19616ZM98.521 5.69595L98.1207 8.32858C100.416 8.67756 102.717 8.84742 105.023 8.83751L105.011 6.17466L105 3.5118C102.972 3.52052 100.947 3.37124 98.9212 3.06332L98.521 5.69595ZM105.011 6.17466L105.023 8.83751C107.386 8.82736 109.748 8.55645 112.104 8.02872L111.522 5.43021L110.94 2.8317C108.948 3.27794 106.969 3.50334 105 3.5118L105.011 6.17466ZM111.522 5.43021L112.104 8.02872C113.872 7.63276 115.615 7.65646 117.367 8.09925L118.019 5.5176L118.672 2.93594C116.11 2.28824 113.521 2.25368 110.94 2.8317L111.522 5.43021ZM118.019 5.5176L117.367 8.09925C119.551 8.65139 121.735 9.16698 123.921 9.64599L124.491 7.04484L125.061 4.44368C122.931 3.97688 120.801 3.4743 118.672 2.93594L118.019 5.5176ZM124.491 7.04484L123.921 9.64599C126.649 10.2438 129.373 9.95464 132.021 8.85571L131.001 6.39618L129.98 3.93666C128.265 4.64843 126.65 4.79173 125.061 4.44368L124.491 7.04484ZM131.001 6.39618L132.021 8.85571C133.692 8.16235 135.258 8.06383 136.811 8.48471L137.508 5.91452L138.204 3.34434C135.445 2.59673 132.673 2.81932 129.98 3.93666L131.001 6.39618ZM137.508 5.91452L136.811 8.48471C139.304 9.16022 141.826 9.33079 144.357 8.98663L143.998 6.34803L143.64 3.70944C141.828 3.95575 140.023 3.83732 138.204 3.34434L137.508 5.91452ZM143.998 6.34803L144.357 8.98663C146.047 8.75686 147.746 8.96782 149.496 9.66593L150.482 7.19262L151.469 4.71931C148.916 3.70083 146.292 3.34873 143.64 3.70944L143.998 6.34803ZM150.482 7.19262L149.496 9.66593C152.393 10.822 155.352 10.6369 158.174 9.2308L156.987 6.84733L155.799 4.46385C154.252 5.23477 152.874 5.27986 151.469 4.71931L150.482 7.19262ZM156.987 6.84733L158.174 9.2308C159.881 8.38049 161.441 8.18751 162.947 8.508L163.501 5.90343L164.056 3.29886C161.245 2.7009 158.462 3.13719 155.799 4.46385L156.987 6.84733ZM163.501 5.90343L162.947 8.508C165.106 8.96741 167.265 9.4257 169.424 9.88288L169.976 7.27776L170.528 4.67264C168.37 4.21583 166.213 3.7579 164.056 3.29886L163.501 5.90343ZM169.976 7.27776L169.424 9.88288C171.645 10.353 173.867 10.741 176.092 11.0469L176.455 8.40884L176.818 5.77076C174.721 5.48251 172.624 5.11653 170.528 4.67264L169.976 7.27776ZM176.455 8.40884L176.092 11.0469C178.384 11.3619 180.68 11.505 182.98 11.4758L182.946 8.81313L182.913 6.15046C180.879 6.1763 178.848 6.04989 176.818 5.77076L176.455 8.40884ZM182.946 8.81313L182.98 11.4758C185.234 11.4472 187.488 11.3082 189.744 11.0592L189.452 8.41239L189.159 5.76559C187.074 5.99582 184.992 6.12403 182.913 6.15046L182.946 8.81313ZM189.452 8.41239L189.744 11.0592C191.695 10.8437 193.64 10.871 195.582 11.1408L195.948 8.50323L196.315 5.86568C193.935 5.53514 191.549 5.5018 189.159 5.76559L189.452 8.41239ZM195.948 8.50323L195.582 11.1408C197.988 11.475 200.401 11.4733 202.815 11.1367L202.447 8.49931L202.079 5.86195C200.15 6.13096 198.231 6.13186 196.315 5.86568L195.948 8.50323ZM202.447 8.49931L202.815 11.1367C204.767 10.8645 206.709 10.8387 208.648 11.0579L208.947 8.41189L209.246 5.76588C206.861 5.49608 204.47 5.52856 202.079 5.86195L202.447 8.49931ZM208.947 8.41189L208.648 11.0579C211.051 11.3298 213.46 11.2725 215.867 10.8885L215.448 8.25889L215.028 5.62926C213.091 5.93826 211.166 5.98304 209.246 5.76588L208.947 8.41189ZM215.448 8.25889L215.867 10.8885C217.706 10.5952 219.532 10.6515 221.363 11.06L221.943 8.46093L222.522 5.86189C220.038 5.3079 217.534 5.2295 215.028 5.62926L215.448 8.25889ZM221.943 8.46093L221.363 11.06C224.089 11.6678 226.813 11.3911 229.463 10.304L228.452 7.84034L227.441 5.3767C225.728 6.07949 224.113 6.21652 222.522 5.86189L221.943 8.46093ZM228.452 7.84034L229.463 10.304C231.183 9.59832 232.806 9.45383 234.402 9.79657L234.961 7.19304L235.52 4.5895C232.8 4.00545 230.084 4.29249 227.441 5.3767L228.452 7.84034ZM234.961 7.19304L234.402 9.79657C236.65 10.2793 238.903 10.6414 241.159 10.8826L241.442 8.23475L241.725 5.58695C239.657 5.36593 237.589 5.03361 235.52 4.5895L234.961 7.19304ZM241.442 8.23475L241.159 10.8826C243.359 11.1177 245.561 11.3047 247.763 11.4433L247.931 8.78569L248.098 6.12807C245.973 5.9943 243.849 5.81393 241.725 5.58695L241.442 8.23475ZM247.931 8.78569L247.763 11.4433C249.838 11.5739 251.911 11.8094 253.985 12.1502L254.416 9.52259L254.848 6.89497C252.602 6.52565 250.351 6.26992 248.098 6.12807L247.931 8.78569ZM254.416 9.52259L253.985 12.1502C256.512 12.5657 259.047 12.4518 261.567 11.8205L260.92 9.23748L260.273 6.65445C258.441 7.11338 256.64 7.18954 254.848 6.89497L254.416 9.52259ZM260.92 9.23748L261.567 11.8205C263.531 11.3283 265.477 11.0935 267.41 11.1096L267.432 8.44685L267.454 5.78406C265.055 5.76407 262.659 6.05644 260.273 6.65445L260.92 9.23748ZM267.432 8.44685L267.41 11.1096C269.478 11.1269 271.544 11.2578 273.61 11.5026L273.923 8.85821L274.236 6.21384C271.979 5.94624 269.718 5.80292 267.454 5.78406L267.432 8.44685ZM273.923 8.85821L273.61 11.5026C275.866 11.77 278.126 11.9151 280.388 11.9375L280.414 9.27476L280.441 6.61201C278.371 6.59147 276.303 6.4588 274.236 6.21384L273.923 8.85821ZM280.414 9.27476L280.388 11.9375C282.516 11.9586 284.642 12.0254 286.769 12.1379L286.909 9.47872L287.05 6.81956C284.848 6.70307 282.645 6.63389 280.441 6.61201L280.414 9.27476ZM286.909 9.47872L286.769 12.1379C288.95 12.2533 291.133 12.3469 293.315 12.4186L293.403 9.75716L293.49 7.09572C291.343 7.02514 289.196 6.93309 287.05 6.81956L286.909 9.47872ZM293.403 9.75716L293.315 12.4186C295.774 12.4994 298.225 12.1789 300.66 11.4707L299.916 8.91381L299.172 6.35695C297.252 6.91552 295.361 7.15721 293.49 7.09572L293.403 9.75716ZM299.916 8.91381L300.66 11.4707C302.539 10.924 304.383 10.7343 306.208 10.8842L306.426 8.23029L306.644 5.57635C304.143 5.37085 301.647 5.63689 299.172 6.35695L299.916 8.91381ZM306.426 8.23029L306.208 10.8842C308.257 11.0525 310.27 11.3507 312.247 11.7781L312.81 9.17533L313.372 6.57255C311.164 6.09534 308.921 5.76344 306.644 5.57635L306.426 8.23029ZM312.81 9.17533L312.247 11.7781C312.867 11.912 312.921 12.0826 312.873 12.0133C312.83 11.952 312.977 12.0855 312.891 12.7557L315.532 13.0958L318.173 13.436C318.365 11.9448 318.197 10.3443 317.247 8.97608C316.292 7.59995 314.846 6.89098 313.372 6.57255L312.81 9.17533ZM315.532 13.0958L312.891 12.7557C312.608 14.9515 312.369 17.1483 312.173 19.3461L314.825 19.5821L317.478 19.8181C317.667 17.6901 317.899 15.5628 318.173 13.436L315.532 13.0958ZM314.825 19.5821L312.173 19.3461C311.941 21.9536 312.35 24.5399 313.35 27.0747L315.827 26.0977L318.304 25.1207C317.584 23.2936 317.325 21.5361 317.478 19.8181L314.825 19.5821ZM315.827 26.0977L313.35 27.0747C313.932 28.5509 313.884 29.9422 313.164 31.4345L315.563 32.5915L317.961 33.7486C319.314 30.9443 319.442 28.0064 318.304 25.1207L315.827 26.0977ZM315.563 32.5915L313.164 31.4345C311.79 34.2842 311.737 37.2644 313.011 40.1604L315.449 39.088L317.886 38.0155C317.239 36.5462 317.263 35.1954 317.961 33.7486L315.563 32.5915ZM315.449 39.088L313.011 40.1604C313.649 41.6103 313.618 42.9445 312.893 44.3891L315.273 45.5833L317.653 46.7775C319.083 43.927 319.169 40.931 317.886 38.0155L315.449 39.088ZM315.273 45.5833L312.893 44.3891C311.637 46.8925 311.017 49.4912 311.113 52.1524L313.774 52.0559L316.435 51.9594C316.375 50.2857 316.754 48.5693 317.653 46.7775L315.273 45.5833ZM313.774 52.0559L311.113 52.1524C311.191 54.3062 311.253 56.4611 311.298 58.6172L313.96 58.5618L316.622 58.5063C316.577 56.3229 316.515 54.1406 316.435 51.9594L313.774 52.0559ZM313.96 58.5618L311.298 58.6172C311.305 58.9511 311.265 59.1098 311.252 59.1494C311.247 59.165 311.251 59.1465 311.275 59.1074C311.3 59.0667 311.339 59.0162 311.393 58.9663C311.447 58.9165 311.5 58.8819 311.543 58.8605C311.583 58.8399 311.601 58.8374 311.585 58.8413C311.543 58.8512 311.38 58.8783 311.047 58.8453L310.784 61.4952L310.522 64.1452C311.974 64.2889 313.686 64.0988 315.007 62.8786C316.329 61.6575 316.653 59.9655 316.622 58.5063L313.96 58.5618ZM310.784 61.4952L311.047 58.8453C309.048 58.6475 307.047 58.2627 305.041 57.6878L304.307 60.2477L303.574 62.8076C305.878 63.4679 308.195 63.9148 310.522 64.1452L310.784 61.4952ZM304.307 60.2477L305.041 57.6878C302.236 56.8843 299.419 57.1467 296.704 58.3723L297.799 60.7994L298.895 63.2265C300.546 62.4814 302.068 62.3761 303.574 62.8076L304.307 60.2477ZM297.799 60.7994L296.704 58.3723C295.312 59.0004 294.034 58.9553 292.603 58.1572L291.306 60.4831L290.01 62.8089C292.869 64.4033 295.92 64.569 298.895 63.2265L297.799 60.7994ZM291.306 60.4831L292.603 58.1572C289.785 56.5859 286.774 56.3493 283.807 57.5636L284.816 60.028L285.825 62.4925C287.221 61.9211 288.537 61.9878 290.01 62.8089L291.306 60.4831ZM284.816 60.028L283.807 57.5636C281.891 58.3477 280.026 58.756 278.199 58.8201L278.292 61.4813L278.386 64.1426C280.894 64.0546 283.377 63.4941 285.825 62.4925L284.816 60.028ZM278.292 61.4813L278.199 58.8201C276.091 58.894 273.985 58.8968 271.88 58.8285L271.794 61.49L271.708 64.1515C273.932 64.2237 276.159 64.2207 278.386 64.1426L278.292 61.4813ZM271.794 61.49L271.88 58.8285C269.939 58.7656 267.994 58.4599 266.04 57.9053L265.313 60.467L264.586 63.0287C266.943 63.6977 269.318 64.074 271.708 64.1515L271.794 61.49ZM265.313 60.467L266.04 57.9053C263.804 57.2707 261.564 56.7481 259.319 56.3379L258.841 58.9574L258.362 61.5769C260.436 61.9559 262.511 62.4396 264.586 63.0287L265.313 60.467ZM258.841 58.9574L259.319 56.3379C256.636 55.8475 253.961 56.1515 251.349 57.1859L252.33 59.6616L253.311 62.1373C255.062 61.4437 256.727 61.2782 258.362 61.5769L258.841 58.9574ZM252.33 59.6616L251.349 57.1859C249.454 57.9369 247.611 58.2961 245.807 58.2979L245.809 60.9608L245.812 63.6236C248.34 63.6212 250.845 63.1144 253.311 62.1373L252.33 59.6616ZM245.809 60.9608L245.807 58.2979C244.006 58.2996 242.186 57.9417 240.329 57.193L239.333 59.6626L238.337 62.1322C240.783 63.1186 243.28 63.6261 245.812 63.6236L245.809 60.9608ZM239.333 59.6626L240.329 57.193C237.889 56.2088 235.399 55.694 232.874 55.6786L232.858 58.3414L232.841 61.0043C234.648 61.0153 236.475 61.3813 238.337 62.1322L239.333 59.6626ZM232.858 58.3414L232.874 55.6786C230.321 55.663 227.795 56.1917 225.314 57.2224L226.336 59.6815L227.358 62.1405C229.241 61.3581 231.063 60.9934 232.841 61.0043L232.858 58.3414ZM226.336 59.6815L225.314 57.2224C223.482 57.984 221.724 58.2742 220.011 58.1499L219.819 60.8058L219.626 63.4616C222.24 63.6514 224.827 63.1921 227.358 62.1405L226.336 59.6815ZM219.819 60.8058L220.011 58.1499C217.982 58.0025 215.952 57.7012 213.921 57.2446L213.337 59.8426L212.753 62.4407C215.037 62.9541 217.328 63.2948 219.626 63.4616L219.819 60.8058ZM213.337 59.8426L213.921 57.2446C211.492 56.6986 209.044 56.5418 206.589 56.7789L206.845 59.4295L207.101 62.08C208.986 61.898 210.866 62.0167 212.753 62.4407L213.337 59.8426ZM206.845 59.4295L206.589 56.7789C204.605 56.9706 202.626 56.9538 200.649 56.7288L200.348 59.3746L200.047 62.0204C202.394 62.2876 204.747 62.3074 207.101 62.08L206.845 59.4295ZM200.348 59.3746L200.649 56.7288C198.232 56.4536 195.809 56.5281 193.39 56.9492L193.846 59.5726L194.303 62.1961C196.229 61.8609 198.141 61.8034 200.047 62.0204L200.348 59.3746ZM193.846 59.5726L193.39 56.9492C191.467 57.2838 189.558 57.3379 187.655 57.1146L187.345 59.7594L187.034 62.4041C189.455 62.6881 191.88 62.6177 194.303 62.1961L193.846 59.5726ZM187.345 59.7594L187.655 57.1146C185.304 56.8387 182.947 56.8162 180.588 57.0467L180.847 59.697L181.106 62.3472C183.087 62.1536 185.062 62.1726 187.034 62.4041L187.345 59.7594ZM180.847 59.697L180.588 57.0467C178.7 57.2313 176.816 57.1183 174.927 56.7036L174.356 59.3046L173.785 61.9055C176.211 62.4382 178.655 62.5868 181.106 62.3472L180.847 59.697ZM174.356 59.3046L174.927 56.7036C172.584 56.1894 170.23 55.932 167.867 55.9344L167.869 58.5973L167.872 61.2602C169.842 61.2582 171.811 61.4724 173.785 61.9055L174.356 59.3046ZM167.869 58.5973L167.867 55.9344C165.888 55.9364 163.909 55.7313 161.928 55.317L161.383 57.9235L160.838 60.53C163.173 61.0183 165.519 61.2625 167.872 61.2602L167.869 58.5973ZM161.383 57.9235L161.928 55.317C159.661 54.843 157.389 54.5148 155.112 54.3332L154.9 56.9876L154.689 59.6421C156.738 59.8056 158.787 60.1013 160.838 60.53L161.383 57.9235ZM154.9 56.9876L155.112 54.3332C152.766 54.146 150.416 54.2011 148.066 54.4977L148.399 57.1396L148.733 59.7815C150.724 59.5303 152.709 59.4841 154.689 59.6421L154.9 56.9876ZM148.399 57.1396L148.066 54.4977C145.956 54.764 143.847 54.9565 141.741 55.0755L141.891 57.7341L142.041 60.3928C144.271 60.2669 146.501 60.0631 148.733 59.7815L148.399 57.1396ZM141.891 57.7341L141.741 55.0755C139.443 55.2052 137.146 55.5026 134.85 55.9665L135.378 58.5767L135.905 61.1868C137.957 60.7721 140.002 60.5079 142.041 60.3928L141.891 57.7341ZM135.378 58.5767L134.85 55.9665C132.874 56.3659 130.911 56.5318 128.957 56.4678L128.87 59.1293L128.783 61.7908C131.159 61.8685 133.534 61.6659 135.905 61.1868L135.378 58.5767ZM128.87 59.1293L128.957 56.4678C126.732 56.395 124.505 56.3979 122.278 56.4764L122.371 59.1376L122.465 61.7988C124.572 61.7246 126.678 61.7219 128.783 61.7908L128.87 59.1293ZM122.371 59.1376L122.278 56.4764C120.391 56.5428 118.502 56.316 116.6 55.7868L115.886 58.3522L115.173 60.9176C117.583 61.5883 120.017 61.8851 122.465 61.7988L122.371 59.1376ZM115.886 58.3522L116.6 55.7868C114.109 55.0936 111.587 54.905 109.055 55.2323L109.396 57.8733L109.738 60.5142C111.547 60.2802 113.352 60.411 115.173 60.9176L115.886 58.3522ZM109.396 57.8733L109.055 55.2323C107.025 55.4947 105.001 55.5916 102.982 55.5239L102.893 58.1853L102.803 60.8466C105.114 60.9241 107.426 60.813 109.738 60.5142L109.396 57.8733ZM102.893 58.1853L102.982 55.5239C100.793 55.4505 98.6032 55.4069 96.4132 55.3931L96.3964 58.0559L96.3797 60.7188C98.5214 60.7322 100.663 60.7749 102.803 60.8466L102.893 58.1853ZM96.3964 58.0559L96.4132 55.3931C94.1977 55.3792 91.9812 55.4271 89.7639 55.537L89.8956 58.1966L90.0274 60.8562C92.146 60.7513 94.2634 60.7055 96.3797 60.7188L96.3964 58.0559ZM89.8956 58.1966L89.7639 55.537C87.7903 55.6347 85.8194 55.5176 83.8479 55.1842L83.4039 57.8098L82.9599 60.4354C85.3081 60.8325 87.665 60.9732 90.0274 60.8562L89.8956 58.1966ZM83.4039 57.8098L83.8479 55.1842C81.8043 54.8386 79.7585 54.3535 77.7102 53.7275L76.9319 56.2741L76.1536 58.8207C78.4149 59.5118 80.6838 60.0505 82.9599 60.4354L83.4039 57.8098ZM76.9319 56.2741L77.7102 53.7275C74.9024 52.8693 72.0733 53.0955 69.3425 54.3111L70.4255 56.7438L71.5084 59.1765C73.1434 58.4487 74.6519 58.3617 76.1536 58.8207L76.9319 56.2741ZM70.4255 56.7438L69.3425 54.3111C67.7307 55.0286 66.2471 55.0959 64.7588 54.6023L63.9204 57.1298L63.0821 59.6572C65.9014 60.5924 68.7545 60.4024 71.5084 59.1765L70.4255 56.7438ZM63.9204 57.1298L64.7588 54.6023C62.1992 53.7533 59.5902 53.5475 56.9707 54.0068L57.4306 56.6297L57.8906 59.2525C59.6165 58.9499 61.334 59.0774 63.0821 59.6572L63.9204 57.1298ZM57.4306 56.6297L56.9707 54.0068C55.0568 54.3425 53.1572 54.3891 51.2631 54.1499L50.9295 56.7918L50.5959 59.4337C53.0246 59.7404 55.4592 59.6789 57.8906 59.2525L57.4306 56.6297ZM50.9295 56.7918L51.2631 54.1499C48.858 53.8462 46.4468 53.8754 44.0361 54.2357L44.4297 56.8693L44.8234 59.503C46.7561 59.2141 48.678 59.1915 50.5959 59.4337L50.9295 56.7918ZM44.4297 56.8693L44.0361 54.2357C42.3687 54.4849 40.6925 54.2794 38.9591 53.5662L37.9458 56.0287L36.9326 58.4913C39.5009 59.5481 42.1474 59.9029 44.8234 59.503L44.4297 56.8693ZM37.9458 56.0287L38.9591 53.5662C36.1206 52.3982 33.2014 52.4595 30.3749 53.7007L31.4455 56.1388L32.5162 58.577C34.0549 57.9013 35.4693 57.8892 36.9326 58.4913L37.9458 56.0287ZM31.4455 56.1388L30.3749 53.7007C28.8789 54.3576 27.504 54.346 26.0518 53.6843L24.9477 56.1075L23.8435 58.5306C26.6898 59.8276 29.6469 59.8369 32.5162 58.577L31.4455 56.1388ZM24.9477 56.1075L26.0518 53.6843C23.4783 52.5117 20.8081 52.0782 18.0958 52.4597L18.4667 55.0966L18.8376 57.7335C20.4681 57.5042 22.1185 57.7446 23.8435 58.5306L24.9477 56.1075ZM18.4667 55.0966L18.0958 52.4597C16.2637 52.7174 14.4403 52.6248 12.6074 52.176L11.9741 54.7624L11.3407 57.3489C13.822 57.9565 16.327 58.0867 18.8376 57.7335L18.4667 55.0966ZM11.9741 54.7624L12.6074 52.176C10.3042 51.612 8.19491 51.3409 6.353 51.4807L6.55461 54.136L6.75621 56.7912C7.8262 56.71 9.32989 56.8565 11.3407 57.3489L11.9741 54.7624ZM6.55461 54.136L6.353 51.4807C6.3339 51.4822 6.38107 51.4771 6.45794 51.5053C6.53411 51.5334 6.5614 51.5655 6.53968 51.5442C6.46333 51.4692 6.2097 51.146 5.9508 50.2762L3.39858 51.0359L0.84636 51.7955C1.23553 53.103 1.83194 54.3852 2.8076 55.3436C3.87533 56.3924 5.25361 56.9053 6.75621 56.7912L6.55461 54.136ZM3.39858 51.0359L5.9508 50.2762C5.39608 48.4125 5.21566 46.587 5.38963 44.7815L2.73902 44.5261L0.0884157 44.2707C-0.154346 46.7903 0.104949 49.3046 0.84636 51.7955L3.39858 51.0359ZM2.73902 44.5261L5.38963 44.7815C5.597 42.6292 5.81694 40.4771 6.04944 38.3252L3.40196 38.0391L0.754491 37.7531C0.519789 39.9254 0.297763 42.0979 0.0884157 44.2707L2.73902 44.5261ZM3.40196 38.0391L6.04944 38.3252C6.29027 36.0961 6.44586 33.8651 6.51613 31.6323L3.85457 31.5485L1.193 31.4648C1.127 33.5619 0.980858 35.6579 0.754491 37.7531L3.40196 38.0391ZM3.85457 31.5485L6.51613 31.6323C6.58351 29.4913 6.67981 27.3508 6.80505 25.2107L4.14671 25.0552L1.48838 24.8996C1.36035 27.0875 1.26189 29.2759 1.193 31.4648L3.85457 31.5485ZM4.14671 25.0552L6.80505 25.2107C6.93517 22.9871 6.99023 20.762 6.97022 18.5356L4.30745 18.5596L1.64467 18.5835C1.66361 20.6901 1.61152 22.7954 1.48838 24.8996L4.14671 25.0552ZM4.30745 18.5596L6.97022 18.5356C6.94879 16.1523 6.63892 13.7728 6.0463 11.4011L3.46285 12.0466L0.879396 12.6921C1.37395 14.6714 1.62715 16.6338 1.64467 18.5835L4.30745 18.5596ZM3.46285 12.0466L6.0463 11.4011C5.58189 9.54247 5.65631 8.25822 5.96488 7.38328L3.4536 6.49762L0.942319 5.61195C0.176046 7.78469 0.256631 10.1998 0.879396 12.6921L3.46285 12.0466ZM3.4536 6.49762L5.96488 7.38328C6.2328 6.62359 6.43263 6.06416 6.56644 5.69845C6.63448 5.51249 6.67942 5.39318 6.70513 5.32767C6.72025 5.28914 6.71723 5.29867 6.70265 5.3314C6.69966 5.33812 6.66721 5.41218 6.61455 5.50762C6.59499 5.54306 6.52118 5.67702 6.40156 5.83327C6.34682 5.90477 6.21011 6.07767 5.99514 6.25713C5.88403 6.34988 5.69851 6.48974 5.44218 6.61286C5.18766 6.73511 4.77275 6.88397 4.24392 6.87486L4.28978 4.21237L4.33564 1.54989C3.34532 1.53283 2.71232 2.06004 2.58216 2.1687C2.36631 2.34889 2.2286 2.5229 2.17272 2.59588C2.05084 2.75509 1.97426 2.89348 1.95143 2.93486C1.89223 3.04217 1.85121 3.13405 1.83763 3.16453C1.80188 3.24481 1.76959 3.32569 1.74737 3.38235C1.69838 3.50718 1.6363 3.67348 1.56498 3.8684C1.42006 4.26444 1.21181 4.8478 0.942319 5.61195L3.4536 6.49762ZM4.28978 4.21237L4.24392 6.87486C4.40265 6.87759 4.52636 6.86495 4.55939 6.8616C4.61136 6.85632 4.65279 6.85056 4.67571 6.84722C4.72209 6.84045 4.75869 6.83385 4.77462 6.83094C4.80969 6.82451 4.83859 6.81851 4.85125 6.81587C4.88064 6.80972 4.90988 6.80322 4.93183 6.79829C4.97896 6.78769 5.04055 6.77347 5.11226 6.75672C5.25775 6.72275 5.46934 6.67271 5.74464 6.60717C6.29641 6.47583 7.11693 6.27922 8.20494 6.01767L7.58253 3.42855L6.96012 0.839432C5.873 1.10077 5.05715 1.29625 4.51134 1.42618C4.23785 1.49128 4.03533 1.53917 3.90142 1.57043C3.83344 1.58631 3.78899 1.59652 3.76377 1.60219C3.74954 1.60539 3.75103 1.60498 3.76107 1.60288C3.76406 1.60225 3.7854 1.59777 3.815 1.59234C3.82821 1.58992 3.8626 1.5837 3.9073 1.57718C3.92938 1.57396 3.97011 1.56829 4.0215 1.56307C4.05395 1.55978 4.17722 1.54716 4.33564 1.54989L4.28978 4.21237Z" fill="black"/>
<path d="M39.6197 35.1082C40.7121 32.4915 41.5594 30.408 42.1618 28.8579C42.4811 28.0381 42.7969 27.2147 43.1094 26.3878C43.5355 25.4103 43.9888 24.6586 44.4695 24.1329C44.7876 23.7846 45.165 23.6143 45.6019 23.6218C45.9971 23.6286 46.3414 23.7733 46.6347 24.0557C46.9282 24.3313 47.0716 24.6667 47.0647 25.0619C47.06 25.3392 46.9616 25.6115 46.7698 25.8787C46.3861 26.413 46.0316 27.0589 45.7065 27.8162C45.6921 27.8437 45.4238 28.5257 44.9014 29.8622C44.2498 31.4531 43.2793 33.8396 41.9899 37.0216C41.6565 37.8551 41.2503 38.6873 40.7713 39.5183C40.4639 40.0539 40.0259 40.3169 39.4573 40.3071C38.7362 40.2947 38.2394 39.9463 37.9668 39.2619C37.1557 37.2296 36.2663 34.3048 35.2987 30.4874C35.0305 29.5465 34.7589 28.6055 34.4838 27.6645C34.118 26.3543 33.9394 25.4461 33.9481 24.94C33.9552 24.5309 34.1136 24.1938 34.4233 23.9286C34.7188 23.684 35.0607 23.5651 35.449 23.5718C36.1146 23.5832 36.5732 23.9379 36.8247 24.6358C36.953 25.2414 37.0813 25.8436 37.2097 26.4422C37.4256 27.195 37.7356 28.3239 38.1397 29.829C38.6464 31.8213 39.1397 33.581 39.6197 35.1082ZM58.8741 31.0184C58.0912 32.5793 56.8526 35.0305 55.1582 38.372C54.2395 40.1664 53.5377 41.6559 53.0526 42.8404C52.8996 43.2678 52.6598 43.9017 52.3332 44.7423C52.0724 45.3897 51.623 45.7079 50.9851 45.697C50.5899 45.6902 50.2454 45.5559 49.9517 45.2942C49.658 45.0326 49.5145 44.7076 49.5211 44.3193C49.5323 43.6745 50.3001 41.7769 51.8247 38.6267C51.088 37.109 49.9162 34.8729 48.3095 31.9184C48.1476 31.652 47.9823 31.3821 47.8137 31.1088C47.632 30.7866 47.5434 30.4938 47.5479 30.2303C47.5544 29.8559 47.7091 29.5291 48.0121 29.25C48.3152 28.9708 48.6608 28.8346 49.0491 28.8413C49.5067 28.8492 49.8609 29.0252 50.1116 29.3694C51.0736 30.6968 52.1871 32.6891 53.4521 35.3464C54.2223 33.716 54.6901 32.7322 54.8554 32.3952C55.3655 31.3706 55.863 30.4706 56.348 29.6952C56.6548 29.2012 57.0681 28.9586 57.5881 28.9676C57.9764 28.9742 58.3208 29.112 58.6214 29.3807C58.9219 29.6494 59.0689 29.9745 59.0623 30.3558C59.0589 30.5569 58.9961 30.7777 58.8741 31.0184ZM67.6448 31.5856C67.4992 31.5831 67.3259 31.5766 67.1249 31.5662C66.931 31.549 66.7613 31.5392 66.6157 31.5367C66.3314 31.5318 66.0016 31.5538 65.6262 31.6028C65.7028 34.4061 65.7336 36.2377 65.7188 37.0974C65.7173 37.1876 65.7178 37.3575 65.7205 37.6072C65.7232 37.85 65.7233 38.0477 65.7206 38.2002C65.6932 39.795 65.1768 40.5837 64.1714 40.5663C63.79 40.5598 63.4627 40.4362 63.1894 40.1957C62.8887 39.9408 62.7415 39.6262 62.748 39.2518C62.7523 39.0022 62.7691 38.628 62.7985 38.1291C62.8279 37.6302 62.8448 37.256 62.8491 37.0064C62.8635 36.1674 62.832 34.3706 62.7546 31.6158C62.3251 31.5876 61.6743 31.5209 60.8022 31.4157C59.9372 31.3037 59.5116 30.8456 59.5255 30.0413C59.5322 29.653 59.6696 29.3259 59.9377 29.0601C60.2059 28.7942 60.5479 28.6648 60.9639 28.672C61.2205 28.6764 61.8091 28.7282 62.7299 28.8273C62.7267 28.6053 62.7157 28.2375 62.6968 27.7239C62.6768 27.2797 62.6688 26.9362 62.673 26.6936C62.6797 26.3053 62.8274 25.9853 63.1161 25.7337C63.4047 25.482 63.7502 25.3597 64.1523 25.3666C65.1785 25.3843 65.6767 26.2564 65.647 27.9828L65.6115 28.8353C66.0424 28.7803 66.3931 28.7551 66.6635 28.7598C67.4609 28.7735 68.0043 28.8349 68.2937 28.9439C68.845 29.1476 69.1151 29.5753 69.1038 30.2271C69.097 30.6223 68.9562 30.9493 68.6812 31.2081C68.4063 31.4669 68.0608 31.5928 67.6448 31.5856ZM75.8029 39.331C75.7622 39.6771 75.6152 39.9589 75.3618 40.1765C75.1083 40.3941 74.7979 40.4997 74.4304 40.4934C73.7301 40.4813 73.2406 40.1122 72.9618 39.3861C72.2452 37.5012 71.1459 34.6872 69.6637 30.9441C69.5771 30.7346 69.5355 30.5362 69.5387 30.349C69.5451 29.9746 69.6996 29.6617 70.0022 29.4103C70.3118 29.1521 70.6608 29.0263 71.049 29.033C71.6453 29.0432 72.067 29.3245 72.3141 29.8766C72.6949 30.7224 73.4307 32.6979 74.5216 35.803C74.9026 35.0258 75.4293 33.842 76.1017 32.2514C76.305 31.7209 76.6195 30.9807 77.045 30.0309C77.3389 29.4812 77.7735 29.2112 78.349 29.2211C78.7373 29.2278 79.0783 29.362 79.372 29.6237C79.6727 29.8855 79.8197 30.2071 79.8131 30.5884C79.8088 30.838 79.2236 32.2012 78.0573 34.6779C77.107 36.7006 76.3555 38.2516 75.8029 39.331ZM84.8377 40.8703C83.555 40.8482 82.4602 40.3889 81.5532 39.4925C80.5575 38.5113 80.0492 37.216 80.0284 35.6066C80.0063 34.0734 80.4493 32.7147 81.3574 31.5305C82.4357 30.1342 83.9143 29.4522 85.7933 29.4846C87.18 29.5085 88.2729 30.0822 89.072 31.2056C89.7897 32.2167 90.1359 33.4607 90.1104 34.9375C90.0827 36.5461 89.6292 37.9116 88.7499 39.0339C87.7642 40.2861 86.4602 40.8982 84.8377 40.8703ZM85.6108 32.228C84.7581 32.2063 84.0789 32.583 83.5731 33.3581C83.1457 34.0096 82.9245 34.7756 82.9093 35.6562C82.895 36.4882 83.1197 37.1302 83.5836 37.582C83.9519 37.9421 84.3856 38.1264 84.8849 38.135C85.4881 38.1454 86.0151 37.9499 86.4659 37.5484C86.9803 37.0787 87.2618 36.4351 87.3106 35.6176C87.4392 33.3865 86.8726 32.2566 85.6108 32.228ZM100.62 33.0275C100.539 34.0872 100.048 34.6094 99.1465 34.5938C98.2729 34.5788 97.8438 34.1206 97.8594 33.2192L97.8255 32.1679C96.2611 32.3906 95.131 33.1722 94.4352 34.5127L94.3555 39.7442C94.3487 40.1394 94.2078 40.463 93.933 40.7149C93.6581 40.9737 93.3126 41.0995 92.8966 41.0923C92.4667 41.0849 92.1363 40.9405 91.9053 40.6591C91.6877 40.4057 91.5823 40.0848 91.589 39.6966L91.7063 32.8843C91.71 32.6694 91.7224 32.3506 91.7436 31.9279C91.7649 31.4982 91.7774 31.1759 91.7811 30.961C91.7877 30.5727 91.9077 30.2523 92.1409 29.9997C92.3812 29.7403 92.7163 29.6143 93.1462 29.6217C93.9158 29.6349 94.3666 30.038 94.4986 30.831C95.7416 29.9369 97.1119 29.5027 98.6096 29.5285C99.9963 29.5524 100.674 30.4865 100.642 32.3308C100.636 32.6844 100.628 32.9167 100.62 33.0275ZM99.8595 25.8152C97.7789 27.4231 96.534 28.2235 96.1249 28.2165C95.8129 28.2111 95.5203 28.0882 95.247 27.8477C95.0427 27.6291 94.8349 27.4106 94.6237 27.1919C94.1943 26.7545 93.7648 26.3206 93.3353 25.8901C92.7637 25.2491 92.4806 24.7761 92.4858 24.471C92.4907 24.1867 92.6267 23.9463 92.8936 23.7498C93.1395 23.5668 93.4219 23.478 93.7409 23.4835C94.1638 23.4908 94.4971 23.6699 94.7407 24.0209C95.0046 24.4069 95.5252 24.9846 96.3026 25.7539C96.7454 25.4148 97.4163 24.9201 98.3152 24.2697C98.5678 24.1007 98.8259 24.0184 99.0893 24.023C99.4152 24.0286 99.6942 24.1374 99.9264 24.3495C100.165 24.5617 100.283 24.8064 100.278 25.0838C100.273 25.3611 100.134 25.6049 99.8595 25.8152ZM104.595 28.0919C104.152 28.0843 103.769 27.9286 103.449 27.6248C103.128 27.3211 102.971 26.9542 102.979 26.5244C102.986 26.0945 103.155 25.7333 103.486 25.4407C103.817 25.1482 104.205 25.0058 104.649 25.0134C105.092 25.0211 105.471 25.1767 105.785 25.4803C106.106 25.7841 106.262 26.1509 106.255 26.5808C106.247 27.0107 106.078 27.3719 105.747 27.6644C105.423 27.9571 105.039 28.0996 104.595 28.0919ZM105.348 35.7306C105.341 36.1258 105.341 36.7604 105.347 37.6344C105.359 38.5085 105.362 39.1432 105.355 39.5384C105.348 39.9405 105.208 40.271 104.933 40.5298C104.658 40.7817 104.312 40.9041 103.896 40.8969C103.48 40.8897 103.139 40.7555 102.873 40.4943C102.607 40.2262 102.478 39.8911 102.485 39.4889C102.492 39.0937 102.489 38.459 102.476 37.5849C102.47 36.711 102.471 36.0764 102.478 35.6811C102.488 35.0641 102.536 34.2916 102.622 33.3637C102.707 32.4358 102.755 31.6633 102.766 31.0462C102.773 30.644 102.913 30.317 103.188 30.0651C103.463 29.8063 103.809 29.6805 104.225 29.6877C104.641 29.6948 104.982 29.8325 105.248 30.1006C105.513 30.3618 105.643 30.6935 105.636 31.0956C105.625 31.7127 105.577 32.4852 105.492 33.4131C105.407 34.341 105.359 35.1135 105.348 35.7306ZM115.466 32.4093C115.32 32.4068 115.147 32.4004 114.946 32.39C114.752 32.3727 114.582 32.3629 114.436 32.3604C114.152 32.3555 113.822 32.3775 113.447 32.4266C113.524 35.2299 113.554 37.0614 113.54 37.9212C113.538 38.0113 113.539 38.1812 113.541 38.431C113.544 38.6737 113.544 38.8714 113.541 39.024C113.514 40.6187 112.997 41.4074 111.992 41.3901C111.611 41.3835 111.283 41.2599 111.01 41.0194C110.709 40.7646 110.562 40.4499 110.569 40.0755C110.573 39.8259 110.59 39.4517 110.619 38.9528C110.649 38.454 110.665 38.0797 110.67 37.8301C110.684 36.9912 110.653 35.1943 110.575 32.4395C110.146 32.4113 109.495 32.3446 108.623 32.2394C107.758 32.1274 107.332 31.6693 107.346 30.865C107.353 30.4767 107.49 30.1496 107.758 29.8838C108.027 29.6179 108.369 29.4885 108.785 29.4957C109.041 29.5001 109.63 29.5519 110.551 29.651C110.547 29.429 110.536 29.0612 110.518 28.5476C110.497 28.1034 110.49 27.76 110.494 27.5173C110.5 27.129 110.648 26.8091 110.937 26.5574C111.225 26.3058 111.571 26.1834 111.973 26.1903C112.999 26.208 113.497 27.0801 113.468 28.8065L113.432 29.659C113.863 29.604 114.214 29.5788 114.484 29.5835C115.282 29.5972 115.825 29.6586 116.114 29.7676C116.666 29.9713 116.936 30.399 116.925 31.0508C116.918 31.446 116.777 31.773 116.502 32.0318C116.227 32.2907 115.882 32.4165 115.466 32.4093ZM134.748 32.7415C134.602 32.7389 134.429 32.7325 134.228 32.7221C134.034 32.7049 133.864 32.695 133.719 32.6925C133.434 32.6876 133.105 32.7097 132.729 32.7587C132.806 35.562 132.837 37.3935 132.822 38.2533C132.82 38.3434 132.821 38.5134 132.823 38.7631C132.826 39.0059 132.826 39.2036 132.824 39.3561C132.796 40.9508 132.28 41.7395 131.274 41.7222C130.893 41.7156 130.566 41.5921 130.292 41.3516C129.992 41.0967 129.844 40.7821 129.851 40.4076C129.855 40.158 129.872 39.7838 129.901 39.285C129.931 38.7861 129.948 38.4119 129.952 38.1623C129.966 37.3233 129.935 35.5264 129.858 32.7717C129.428 32.7434 128.777 32.6768 127.905 32.5716C127.04 32.4596 126.615 32.0014 126.628 31.1971C126.635 30.8089 126.773 30.4818 127.041 30.2159C127.309 29.95 127.651 29.8207 128.067 29.8279C128.323 29.8323 128.912 29.884 129.833 29.9831C129.83 29.7611 129.819 29.3933 129.8 28.8798C129.78 28.4356 129.772 28.0921 129.776 27.8494C129.783 27.4612 129.93 27.1412 130.219 26.8895C130.508 26.6379 130.853 26.5155 131.255 26.5225C132.281 26.5401 132.78 27.4122 132.75 29.1387L132.714 29.9911C133.145 29.9361 133.496 29.911 133.766 29.9156C134.564 29.9294 135.107 29.9907 135.397 30.0998C135.948 30.3035 136.218 30.7312 136.207 31.3829C136.2 31.7781 136.059 32.1052 135.784 32.364C135.509 32.6228 135.164 32.7486 134.748 32.7415ZM146.152 33.8118C146.072 34.8715 145.581 35.3937 144.679 35.3781C143.806 35.3631 143.377 34.9049 143.392 34.0035L143.358 32.9522C141.794 33.1749 140.664 33.9565 139.968 35.297L139.888 40.5285C139.881 40.9237 139.741 41.2473 139.466 41.4992C139.191 41.758 138.845 41.8838 138.429 41.8766C137.999 41.8692 137.669 41.7248 137.438 41.4434C137.22 41.19 137.115 40.8692 137.122 40.4809L137.239 33.6687C137.243 33.4537 137.255 33.1349 137.276 32.7122C137.298 32.2825 137.31 31.9602 137.314 31.7453C137.32 31.357 137.44 31.0366 137.674 30.784C137.914 30.5246 138.249 30.3986 138.679 30.406C139.448 30.4192 139.899 30.8223 140.031 31.6153C141.274 30.7212 142.645 30.287 144.142 30.3128C145.529 30.3367 146.206 31.2708 146.175 33.1151C146.169 33.4688 146.161 33.701 146.152 33.8118ZM152.775 41.9053C151.118 41.8767 149.769 41.4582 148.729 40.6496C147.579 39.7559 147.018 38.5152 147.045 36.9274C147.076 35.1732 147.562 33.6974 148.505 32.4999C149.555 31.1724 150.949 30.5237 152.69 30.5537C153.896 30.5745 154.895 30.7859 155.685 31.1879C156.723 31.719 157.233 32.5254 157.215 33.607C157.201 34.3697 156.763 35.0384 155.9 35.613C155.507 35.8768 154.721 36.2585 153.54 36.7584L150.008 38.2476C150.335 38.6139 150.732 38.8913 151.201 39.0796C151.669 39.268 152.208 39.3675 152.819 39.378C153.748 39.394 154.538 39.2169 155.189 38.8467C155.771 38.5168 156.235 38.3549 156.581 38.3609C157.302 38.3733 157.657 38.7296 157.645 39.4299C157.631 40.2204 157.041 40.8552 155.875 41.3345C154.897 41.7338 153.864 41.924 152.775 41.9053ZM152.646 33.0706C152.002 33.0595 151.447 33.2649 150.982 33.6869C150.517 34.1089 150.138 34.7474 149.846 35.6024C150.635 35.2761 151.421 34.9533 152.203 34.6338C153.147 34.227 153.899 33.8481 154.46 33.4971C154 33.2257 153.395 33.0835 152.646 33.0706ZM155.562 26.2545C155.19 26.4978 154.729 26.9129 154.178 27.4999C153.599 28.1141 153.141 28.5397 152.804 28.7767C152.53 28.9731 152.23 29.0685 151.904 29.0629C151.536 29.0565 151.22 28.9332 150.953 28.6928C150.687 28.4524 150.556 28.1762 150.562 27.8642C150.566 27.6076 150.717 27.3293 151.013 27.0293C151.274 26.7979 151.531 26.5666 151.784 26.3351C152.54 25.5367 152.985 25.0796 153.119 24.964C153.76 24.4064 154.323 24.1317 154.808 24.1401C155.176 24.1464 155.489 24.2732 155.748 24.5204C156.014 24.7677 156.145 25.0439 156.14 25.349C156.134 25.7026 155.941 26.0044 155.562 26.2545ZM167.643 42.4215C166.79 42.4068 166.322 41.9791 166.24 41.1385C166.155 40.4227 166.07 39.7034 165.986 38.9806C165.895 38.2161 165.855 37.4976 165.867 36.825C165.87 36.6448 165.886 36.3364 165.914 35.9C165.949 35.4636 165.968 35.1553 165.972 34.975C165.972 34.9265 165.981 34.8053 165.999 34.6114C166.016 34.4106 166.026 34.2477 166.028 34.1229C166.038 33.5474 165.894 33.2571 165.595 33.252C164.958 33.241 164.324 33.6046 163.694 34.3428C163.071 35.0742 162.576 36.0089 162.21 37.147C162.192 37.3755 162.155 37.6801 162.1 38.0606C162.053 38.3719 162.027 38.6766 162.022 38.9748C162.019 39.1689 162.035 39.4639 162.069 39.8599C162.111 40.249 162.13 40.5406 162.127 40.7347C162.12 41.1299 161.976 41.4534 161.694 41.7052C161.419 41.964 161.074 42.0898 160.658 42.0827C160.242 42.0755 159.901 41.9379 159.635 41.6697C159.369 41.4085 159.239 41.0803 159.246 40.6851C159.25 40.491 159.234 40.1994 159.199 39.8104C159.164 39.4145 159.148 39.1194 159.152 38.9253C159.163 38.2597 159.228 37.3349 159.345 36.1509C159.463 34.967 159.527 34.0422 159.539 33.3765C159.542 33.1685 159.534 32.8598 159.513 32.4502C159.499 32.0338 159.494 31.7251 159.498 31.524C159.504 31.1358 159.648 30.8192 159.93 30.5744C160.219 30.3227 160.568 30.2004 160.977 30.2075C161.885 30.2231 162.361 30.7758 162.405 31.8654L162.413 31.98C163.443 30.9782 164.52 30.487 165.643 30.5063C166.953 30.5289 167.849 31.0922 168.329 32.1963C168.649 32.937 168.797 34.0388 168.771 35.5018L168.759 36.2403C168.746 36.5591 168.739 36.7844 168.737 36.9161C168.727 37.4569 168.788 38.155 168.919 39.0103C169.057 39.8658 169.121 40.5604 169.112 41.0943C169.105 41.4826 168.961 41.8026 168.679 42.0544C168.398 42.3062 168.052 42.4285 167.643 42.4215ZM173.196 29.2736C172.752 29.2659 172.37 29.1102 172.049 28.8065C171.729 28.5027 171.572 28.1359 171.579 27.706C171.587 27.2761 171.756 26.9149 172.087 26.6224C172.418 26.3299 172.805 26.1874 173.249 26.1951C173.693 26.2027 174.072 26.3584 174.385 26.662C174.706 26.9658 174.863 27.3326 174.855 27.7624C174.848 28.1923 174.679 28.5535 174.348 28.8461C174.024 29.1387 173.64 29.2812 173.196 29.2736ZM173.949 36.9122C173.942 37.3075 173.941 37.9421 173.947 38.816C173.96 39.6901 173.963 40.3248 173.956 40.72C173.949 41.1222 173.808 41.4526 173.533 41.7115C173.258 41.9633 172.913 42.0857 172.497 42.0785C172.081 42.0714 171.74 41.9372 171.474 41.676C171.208 41.4079 171.079 41.0727 171.086 40.6706C171.092 40.2754 171.089 39.6407 171.077 38.7666C171.071 37.8926 171.071 37.258 171.078 36.8628C171.089 36.2457 171.137 35.4732 171.222 34.5453C171.308 33.6174 171.356 32.8449 171.366 32.2278C171.373 31.8257 171.514 31.4987 171.789 31.2468C172.064 30.988 172.409 30.8621 172.825 30.8693C173.241 30.8765 173.582 31.0141 173.848 31.2823C174.114 31.5435 174.244 31.8751 174.237 32.2773C174.226 32.8944 174.178 33.6669 174.093 34.5948C174.007 35.5227 173.959 36.2952 173.949 36.9122ZM184.762 42.7163C183.909 42.7017 183.441 42.274 183.359 41.4334C183.274 40.7175 183.189 39.9982 183.105 39.2755C183.014 38.511 182.974 37.7925 182.986 37.1199C182.989 36.9397 183.005 36.6313 183.033 36.1948C183.068 35.7585 183.087 35.4502 183.09 35.2699C183.091 35.2214 183.1 35.1002 183.118 34.9063C183.135 34.7054 183.145 34.5426 183.147 34.4178C183.157 33.8423 183.013 33.552 182.714 33.5469C182.077 33.5359 181.443 33.8995 180.813 34.6377C180.19 35.3691 179.695 36.3038 179.329 37.4419C179.311 37.6704 179.274 37.975 179.219 38.3555C179.172 38.6668 179.146 38.9715 179.141 39.2696C179.138 39.4638 179.153 39.7588 179.188 40.1547C179.23 40.5438 179.249 40.8355 179.246 41.0296C179.239 41.4248 179.095 41.7483 178.813 42.0001C178.538 42.2589 178.193 42.3847 177.777 42.3776C177.361 42.3704 177.02 42.2327 176.754 41.9646C176.488 41.7034 176.358 41.3752 176.365 40.98C176.368 40.7858 176.353 40.4943 176.318 40.1053C176.283 39.7094 176.267 39.4143 176.271 39.2202C176.282 38.5546 176.347 37.6298 176.464 36.4458C176.582 35.2618 176.646 34.337 176.657 33.6714C176.661 33.4634 176.653 33.1546 176.632 32.7451C176.618 32.3287 176.613 32.02 176.617 31.8189C176.623 31.4306 176.767 31.1141 177.049 30.8692C177.338 30.6176 177.687 30.4953 178.096 30.5023C179.004 30.518 179.48 31.0706 179.524 32.1603L179.532 32.2749C180.562 31.2731 181.638 30.7818 182.762 30.8012C184.072 30.8238 184.968 31.3871 185.448 32.4912C185.768 33.2319 185.916 34.3337 185.89 35.7967L185.878 36.5351C185.865 36.854 185.858 37.0792 185.856 37.211C185.846 37.7518 185.907 38.4499 186.038 39.3052C186.176 40.1607 186.24 40.8553 186.231 41.3892C186.224 41.7775 186.08 42.0975 185.798 42.3493C185.516 42.601 185.171 42.7234 184.762 42.7163ZM196.468 42.6059C195.92 42.5964 195.509 42.3258 195.233 41.794C194.904 41.1572 194.408 40.403 193.743 39.5316C192.712 38.1752 192.166 37.4549 192.105 37.3706C191.544 37.7702 191.081 38.0743 190.716 38.283C190.63 39.2456 190.58 40.1672 190.565 41.0477C190.558 41.4499 190.417 41.7803 190.142 42.0392C189.867 42.298 189.521 42.4238 189.105 42.4166C188.128 42.3998 187.649 41.809 187.669 40.6441C187.678 40.0964 187.731 39.2789 187.826 38.1916C187.928 37.0975 187.984 36.2766 187.993 35.7289C188.01 34.7235 188.044 33.5763 188.094 32.2871C188.151 30.9911 188.188 29.8474 188.205 28.8559C188.21 28.5577 188.199 28.2073 188.171 27.8046C188.15 27.395 188.143 27.0411 188.148 26.743C188.155 26.3409 188.296 26.0138 188.57 25.762C188.845 25.5031 189.191 25.3773 189.607 25.3845C190.023 25.3916 190.364 25.5293 190.63 25.7974C190.896 26.0586 191.025 26.3903 191.018 26.7924C191.013 27.0975 191.024 27.4584 191.052 27.875C191.079 28.2916 191.09 28.6524 191.085 28.9575C191.071 29.7826 191.033 30.7599 190.972 31.8893C190.912 32.9702 190.878 33.9337 190.87 34.7797C191.826 34.0679 193.284 32.7684 195.244 30.881C195.555 30.5811 195.904 30.4346 196.292 30.4413C196.681 30.448 197.021 30.596 197.315 30.8854C197.608 31.1748 197.751 31.5067 197.745 31.8811C197.739 32.2001 197.599 32.5063 197.323 32.7998C196.489 33.7009 195.499 34.641 194.351 35.6199L196.467 38.4445C197.49 39.8562 197.997 40.7943 197.989 41.2588C197.982 41.6402 197.824 41.96 197.515 42.2182C197.205 42.4833 196.856 42.6126 196.468 42.6059ZM203.506 42.9144C202.223 42.8923 201.128 42.433 200.221 41.5366C199.225 40.5554 198.717 39.26 198.696 37.6506C198.674 36.1175 199.117 34.7588 200.025 33.5746C201.103 32.1783 202.582 31.4963 204.461 31.5287C205.848 31.5526 206.941 32.1262 207.74 33.2497C208.458 34.2608 208.804 35.5048 208.778 36.9816C208.751 38.5902 208.297 39.9556 207.418 41.0779C206.432 42.3302 205.128 42.9423 203.506 42.9144ZM204.279 34.272C203.426 34.2504 202.747 34.6271 202.241 35.4021C201.814 36.0536 201.592 36.8197 201.577 37.7002C201.563 38.5323 201.788 39.1742 202.251 39.6261C202.62 39.9862 203.053 40.1705 203.553 40.1791C204.156 40.1895 204.683 39.9939 205.134 39.5925C205.648 39.1228 205.93 38.4792 205.978 37.6616C206.107 35.4306 205.54 34.3007 204.279 34.272ZM216.041 41.7466C216 42.0927 215.853 42.3745 215.6 42.5921C215.346 42.8097 215.036 42.9153 214.669 42.909C213.968 42.8969 213.479 42.5278 213.2 41.8017C212.483 39.9168 211.384 37.1028 209.902 33.3598C209.815 33.1502 209.774 32.9518 209.777 32.7646C209.783 32.3902 209.938 32.0773 210.24 31.8259C210.55 31.5677 210.899 31.4419 211.287 31.4486C211.883 31.4589 212.305 31.7401 212.552 32.2923C212.933 33.138 213.669 35.1135 214.76 38.2186C215.141 37.4415 215.667 36.2576 216.34 34.6671C216.543 34.1365 216.858 33.3964 217.283 32.4466C217.577 31.8968 218.012 31.6268 218.587 31.6368C218.975 31.6434 219.316 31.7776 219.61 32.0393C219.911 32.3011 220.058 32.6227 220.051 33.004C220.047 33.2536 219.462 34.6168 218.295 37.0935C217.345 39.1162 216.594 40.6673 216.041 41.7466ZM231.291 33.9883C230.508 35.5492 229.269 38.0004 227.575 41.3419C226.656 43.1363 225.954 44.6258 225.469 45.8103C225.316 46.2377 225.076 46.8716 224.75 47.7122C224.489 48.3596 224.04 48.6779 223.402 48.6669C223.007 48.6601 222.662 48.5258 222.368 48.2641C222.075 48.0025 221.931 47.6775 221.938 47.2892C221.949 46.6444 222.717 44.7468 224.241 41.5966C223.505 40.0789 222.333 37.8428 220.726 34.8883C220.564 34.6219 220.399 34.3521 220.23 34.0787C220.049 33.7565 219.96 33.4637 219.965 33.2002C219.971 32.8258 220.126 32.499 220.429 32.2199C220.732 31.9407 221.078 31.8045 221.466 31.8112C221.923 31.8191 222.278 31.9951 222.528 32.3393C223.49 33.6667 224.604 35.659 225.869 38.3163C226.639 36.6859 227.107 35.7021 227.272 35.3651C227.782 34.3405 228.28 33.4405 228.765 32.6652C229.071 32.1711 229.485 31.9285 230.005 31.9375C230.393 31.9442 230.738 32.0819 231.038 32.3506C231.339 32.6193 231.486 32.9444 231.479 33.3257C231.476 33.5268 231.413 33.7476 231.291 33.9883ZM228.053 27.5032C227.681 27.7465 227.219 28.1616 226.668 28.7486C226.089 29.3628 225.631 29.7884 225.294 30.0253C225.02 30.2217 224.72 30.3171 224.394 30.3115C224.027 30.3052 223.71 30.1818 223.443 29.9414C223.177 29.701 223.047 29.4248 223.052 29.1128C223.056 28.8563 223.207 28.578 223.503 28.2779C223.764 28.0466 224.021 27.8152 224.275 27.5838C225.031 26.7853 225.475 26.3283 225.609 26.2127C226.25 25.655 226.813 25.3803 227.298 25.3887C227.666 25.395 227.979 25.5218 228.239 25.769C228.505 26.0164 228.635 26.2926 228.63 26.5976C228.624 26.9512 228.431 27.2531 228.053 27.5032ZM246.605 43.6568C246.008 43.6465 245.382 43.5663 244.726 43.4163L244.642 47.6595C244.635 48.0616 244.494 48.3921 244.219 48.6509C243.944 48.9097 243.599 49.0356 243.183 49.0284C242.767 49.0212 242.426 48.8836 242.16 48.6155C241.894 48.3473 241.765 48.0122 241.772 47.61C241.777 47.2842 241.806 45.9912 241.859 43.7311C241.902 42.0534 241.926 40.684 241.93 39.6229C241.935 38.1249 241.909 36.8345 241.851 35.7515C241.773 34.259 241.733 33.5751 241.73 33.7C241.74 33.1245 241.877 32.6344 242.141 32.2297C242.447 31.7703 242.853 31.545 243.359 31.5537C243.747 31.5604 244.071 31.6977 244.33 31.9657C244.589 32.2338 244.715 32.5515 244.709 32.919L244.697 33.0228C245.166 32.7673 245.634 32.5812 246.1 32.4644C246.574 32.3408 247.047 32.283 247.518 32.2912C249.113 32.3186 250.266 33.0147 250.978 34.3794C251.508 35.4081 251.759 36.7336 251.731 38.3561C251.705 39.8745 251.25 41.1255 250.366 42.109C249.418 43.1677 248.165 43.6836 246.605 43.6568ZM247.47 35.068C247.033 35.0605 246.588 35.1569 246.134 35.3571C245.68 35.5504 245.22 35.8477 244.755 36.2489C244.814 37.6786 244.831 39.1111 244.806 40.5464C245.42 40.7581 246.035 40.8692 246.652 40.8799C247.367 40.8922 247.919 40.6485 248.309 40.1489C248.663 39.6973 248.847 39.0832 248.861 38.3066C248.877 37.3706 248.846 36.7216 248.769 36.3596C248.583 35.5103 248.15 35.0797 247.47 35.068ZM256.439 41.683C256.416 43.0004 255.926 43.6509 254.969 43.6344C254.553 43.6272 254.212 43.4896 253.946 43.2214C253.681 42.9533 253.551 42.6112 253.558 42.1952L253.806 27.8116C253.813 27.4094 253.964 27.0826 254.26 26.831C254.541 26.6001 254.887 26.4881 255.296 26.4952C255.705 26.5022 256.039 26.6328 256.298 26.887C256.557 27.1342 256.684 27.4589 256.677 27.861L256.439 41.683ZM268.018 44.0984C267.699 44.0929 267.198 43.7375 266.517 43.0322C265.874 43.3263 265.308 43.5455 264.82 43.6896C264.332 43.8407 263.918 43.9134 263.579 43.9075C261.908 43.8787 260.66 43.4099 259.837 42.501C259.02 41.5923 258.627 40.2469 258.658 38.465C258.687 36.794 259.328 35.3763 260.583 34.212C261.838 33.0406 263.325 32.4698 265.044 32.4994C265.703 32.5108 266.462 32.7111 267.323 33.1004C268.362 33.5692 268.876 34.1017 268.866 34.6979C268.862 34.9476 268.778 35.1646 268.616 35.349C268.542 35.6252 268.48 35.9744 268.431 36.3966C268.389 36.812 268.364 37.3005 268.354 37.8622C268.331 39.1865 268.408 40.1414 268.585 40.7271C268.605 40.7899 268.758 41.1531 269.045 41.817C269.305 42.4179 269.435 42.76 269.433 42.8432C269.427 43.2107 269.28 43.5133 268.991 43.7511C268.71 43.989 268.385 44.1048 268.018 44.0984ZM265.561 36.9194C265.565 36.6975 265.583 36.4447 265.616 36.1609C265.656 35.8702 265.71 35.5487 265.778 35.1961C265.641 35.1244 265.517 35.0737 265.406 35.0441C265.303 35.0076 265.213 34.9887 265.137 34.9874C264.194 34.9712 263.362 35.3279 262.642 36.0576C261.922 36.7804 261.554 37.6271 261.537 38.5978C261.521 39.5269 261.676 40.2301 262 40.7073C262.325 41.1776 262.82 41.4184 263.486 41.4299C263.916 41.4373 264.323 41.375 264.706 41.2429C265.097 41.104 265.465 40.8987 265.809 40.6273C265.63 38.9735 265.547 37.7375 265.561 36.9194ZM267.771 28.1874C267.4 28.4306 266.938 28.8458 266.387 29.4327C265.808 30.047 265.35 30.4725 265.013 30.7095C264.739 30.9059 264.439 31.0013 264.113 30.9957C263.746 30.9894 263.429 30.866 263.162 30.6256C262.896 30.3852 262.766 30.109 262.771 29.797C262.775 29.5404 262.926 29.2621 263.222 28.9621C263.483 28.7308 263.74 28.4994 263.994 28.2679C264.749 27.4695 265.194 27.0125 265.328 26.8969C265.969 26.3392 266.532 26.0645 267.017 26.0729C267.385 26.0792 267.698 26.206 267.957 26.4532C268.224 26.7005 268.354 26.9767 268.349 27.2818C268.343 27.6354 268.15 27.9373 267.771 28.1874ZM279.072 44.3409C278.219 44.3262 277.752 43.8985 277.669 43.0579C277.584 42.342 277.5 41.6228 277.415 40.9C277.324 40.1355 277.284 39.417 277.296 38.7444C277.299 38.5642 277.315 38.2558 277.343 37.8193C277.378 37.383 277.398 37.0747 277.401 36.8944C277.402 36.8459 277.411 36.7247 277.428 36.5308C277.445 36.3299 277.455 36.1671 277.457 36.0423C277.467 35.4668 277.323 35.1765 277.025 35.1714C276.387 35.1604 275.753 35.524 275.123 36.2622C274.5 36.9936 274.005 37.9283 273.639 39.0664C273.621 39.2949 273.585 39.5995 273.529 39.98C273.483 40.2913 273.456 40.596 273.451 40.8941C273.448 41.0883 273.464 41.3833 273.498 41.7792C273.54 42.1684 273.56 42.46 273.556 42.6541C273.549 43.0493 273.405 43.3728 273.123 43.6246C272.848 43.8834 272.503 44.0092 272.087 44.0021C271.671 43.9949 271.33 43.8572 271.064 43.5891C270.798 43.3279 270.669 42.9997 270.675 42.6045C270.679 42.4104 270.663 42.1188 270.628 41.7298C270.593 41.3339 270.577 41.0388 270.581 40.8447C270.592 40.1791 270.657 39.2543 270.774 38.0703C270.892 36.8863 270.956 35.9616 270.968 35.2959C270.971 35.0879 270.963 34.7791 270.942 34.3696C270.928 33.9532 270.923 33.6445 270.927 33.4434C270.933 33.0551 271.078 32.7386 271.359 32.4938C271.648 32.2421 271.997 32.1198 272.406 32.1269C273.314 32.1425 273.79 32.6951 273.834 33.7848L273.842 33.8994C274.872 32.8976 275.949 32.4063 277.072 32.4257C278.382 32.4483 279.278 33.0116 279.758 34.1157C280.078 34.8564 280.226 35.9582 280.201 37.4212L280.188 38.1596C280.175 38.4785 280.168 38.7037 280.166 38.8355C280.156 39.3763 280.217 40.0744 280.348 40.9297C280.486 41.7852 280.55 42.4798 280.541 43.0137C280.534 43.402 280.39 43.722 280.108 43.9738C279.827 44.2255 279.481 44.3479 279.072 44.3409ZM283.548 40.5895C283.16 40.5828 282.839 40.4559 282.587 40.2088C282.341 39.9618 282.222 39.6546 282.228 39.2871C282.233 39.0167 282.229 38.6144 282.218 38.0802C282.213 37.5391 282.213 37.1334 282.218 36.863C282.235 35.9061 282.266 34.471 282.313 32.5576C282.367 30.6443 282.402 29.2092 282.418 28.2524C282.425 27.8849 282.558 27.582 282.819 27.3438C283.08 27.0986 283.401 26.9793 283.782 26.9859C284.164 26.9924 284.48 27.1227 284.733 27.3768C284.985 27.6238 285.108 27.9311 285.102 28.2986L284.912 39.3334C284.905 39.7008 284.772 40.0037 284.511 40.242C284.257 40.4803 283.936 40.5962 283.548 40.5895ZM283.452 44.3643C283.036 44.3571 282.651 44.1285 282.298 43.6786C281.979 43.2639 281.823 42.8797 281.829 42.5261C281.835 42.1656 281.983 41.8664 282.271 41.6287C282.56 41.3909 282.884 41.2751 283.245 41.2813C283.661 41.2885 284.042 41.517 284.388 41.9668C284.706 42.3815 284.863 42.7622 284.857 43.1089C284.851 43.4625 284.704 43.7616 284.415 44.0063C284.133 44.2512 283.812 44.3705 283.452 44.3643Z" fill="black"/>
</svg>
