<svg xmlns="http://www.w3.org/2000/svg" width="800" height="942" fill="none"><g clip-path="url(#a)"><path fill="#000" d="M659.3 947.6h.6c.4 0 .8 0 1.2-.2l1.1-.4.9-1.6h-6.8l.1.3.3.4.3.4.6.4 1 .6.7.1Zm-518.6-1.5-.1-.7h-8.1l.1.3-.1-.3.1.3a88.4 88.4 0 0 1 .3 1c0 .1 0 .3.2.4 0 .2 0 .4.2.5l.3.4c0 .2.2.3.3.4l.4.4.4.3.5.1 1 .3h1l.6-.1.9-.4.8-.6.4-.4.4-.9.4-1Zm386-867.8a1646 1646 0 0 0-7-25.1 29 29 0 0 0-2.5-6 64.4 64.4 0 0 0-16.9-19.7c-.8-.6-1.7-1-2.7-1.4-3.5-1-7-2.3-10.2-4-5.8-3-11.6-6-17.2-9.3a57.5 57.5 0 0 0-24.7-7.4 43 43 0 0 1-5.4-.7c-8.5-1.8-17-3.2-25.7-4.2-6.4-.7-12.8-.7-19.2 0-6.5.8-13 1-19.5.7a38 38 0 0 0-10.4 1.1 49 49 0 0 1-20.3.5c-4.3-.8-8.6-.6-12.8.5-1.2.4-2.4.6-3.6.7-8.2.9-15.6 3.8-22.2 8.7a22 22 0 0 0-5.4 5.8 83 83 0 0 0-10 23.8c-2 8.4-4.2 16.9-6.5 25.3-1.7 6-3.1 12.3-4.2 18.6l-3 16c-1.6 8.6-3 17.2-4.2 25.9a66 66 0 0 0-.6 9.8c0 8.7-.3 17.3-.9 25.9-.3 4.3-.5 8.7-.6 13a217 217 0 0 1-1.9 26.3 858 858 0 0 1-3.7 26.1c-1.4 8.7-2.3 17.4-2.9 26.2l-1.5 25.8c-.5 8.8-.3 17.6.4 26.4l.4 6.5c0 2.3.3 4.5.8 6.4-5 2.1-10 3.7-15.2 4.7-10.6 2-20.7 5.6-30.1 10.7-3.8 2-7.6 3.8-11.5 5.5-9.8 4-19.5 8.3-29.1 12.8a51.2 51.2 0 0 0-10.3 6.4 99.4 99.4 0 0 0-21.3 23.8 175 175 0 0 0-14.6 28.3c-3 7.5-5.7 15-8 22.8-2.1 7.5-4.3 15-6.3 22.6a386.2 386.2 0 0 0-7.1 31.1 369.7 369.7 0 0 1-7.1 31.1c-.2.9-.6 1.7-1 2.5a7.6 7.6 0 0 0-1.2 4.1 253.2 253.2 0 0 0-9.9 54 96 96 0 0 1-.7 7.4c-1.8 10.5-4 20.9-6.7 31.2a550 550 0 0 1-9 30.5c-3.3 10-6.6 20-9.7 30.1A287 287 0 0 0 56 711c-2 10.5-3.7 21-5.1 31.6-1.3 10.5-2.2 21-2.5 31.6-.4 10.8-.5 21.5-.3 32.3l.2 32.1c0 10.7.2 21.5.6 32.3a2050.3 2050.3 0 0 1 1.3 64.2c0 3.7.5 7.1 1.7 10.3h5.7l.2-.2a5.2 5.2 0 0 0 .8-1.3l-.7-24.3c-.5-11.2-.7-22.5-.6-33.6 0-11.1-.1-22.3-.4-33.4l-1.1-33a518.6 518.6 0 0 1 4.4-84.6c1.5-10.9 3.5-21.6 6-32.3 2.5-10.3 5.4-20.6 8.6-30.7l9.6-30.4c3-9.6 5.7-19.3 8.2-29.1 2.6-10.5 4.5-21 5.6-31.8a313.3 313.3 0 0 1 8-46c.3-1.6.8-3 1.4-4.5.4-1 .6-2 .8-2.9.7-1.4 1.3-3 1.7-4.6a502 502 0 0 0 6.9-33 214 214 0 0 1 5.6-24.1c2.3-8 4.5-16 6.5-24 2.3-9 5.2-18 8.9-26.7 4-9.7 9-19 14.9-27.6a90.4 90.4 0 0 1 15-17.4 67.7 67.7 0 0 1 18.5-11.6 1610 1610 0 0 0 48.4-21.7 127.4 127.4 0 0 0 32.1-9.6h1.5c.9-.2 1.6-.6 2.1-1.3l-.5 1.8a91.1 91.1 0 0 0-3.4 14.6 787 787 0 0 1-8.6 49 107.4 107.4 0 0 1-20.8 44.9c-7.8 10-15.2 20.5-22.1 31.1-2-4.4-4-9-5.7-13.6-.6-1.4-1-2.9-1.3-4.4a8.6 8.6 0 0 0-4.8-6.6c-2-.2-3.3.6-4 2.4-.7 2-.6 4.2.3 6.4l4.7 11 1.1 2.6 2.3 5.2c.8 1.9 1.5 3.8 2 5.8-7.4 12.9-12.5 26.7-15.2 41.5a153.9 153.9 0 0 0-2.4 31.1 108 108 0 0 0 12.1 48.2c2.3 4.3 4.8 8.2 7.8 11.8-2.4 6.8-4 14-5 21.5-2 16.8-6.8 32.7-14.3 47.8a876 876 0 0 1-11.1 21.5 175 175 0 0 0-16.8 46.4c-1.3 6.1-3 12.2-5 18.1a675 675 0 0 1-17.5 46.4L123.2 856a136.1 136.1 0 0 0-10.4 48.4 6 6 0 0 0 .8 3.1 345 345 0 0 1 18.9 37.9h8a16 16 0 0 0-1.4-5.4l-2-3.9c.2-.9.2-1.7 0-2.6a62.7 62.7 0 0 0 1.4-8.6 169.7 169.7 0 0 1 .4-2.9v.6l2.5-14.9L145 887l3.7-20.2a405.1 405.1 0 0 1 7.2-29.8l6.4 3.5a943.6 943.6 0 0 0 54.2 25.3 848.5 848.5 0 0 0 23 8.8 356.1 356.1 0 0 0 38.6 14c8 2.4 16 5.1 24 8 8 3 16 5.6 24.2 8a185.8 185.8 0 0 0 49.6 7.6l25.4.3a480 480 0 0 0 18.4-.9c8-.5 15.8-1.4 23.7-2.7l23-4c4.9-.7 9.7-1.5 14.6-2.4a243 243 0 0 0 25.7-5.9 485 485 0 0 0 24.3-7.5c8.4-2.9 17-5.6 25.6-8.1a223 223 0 0 0 15.7-5.2c7.9-3 15.3-6.8 22.3-11.6l23-15.6c7.7-5.2 14.6-11.2 20.8-18.2a198 198 0 0 1 7-7.6l.3.7c1.2 3.3 2.2 6.6 2.9 10.1 1.4 6.6 2.7 13.3 3.9 19.9a184 184 0 0 1 2.5 20c.4 6.7.7 13.4.8 20.2a1343.5 1343.5 0 0 1 0 27.6 254.3 254.3 0 0 0 .2 21.8l-.1.5v.5a21.1 21.1 0 0 0 .3 1v.3h6.9c2.6-5 5.1-10 7.5-15.4a92.4 92.4 0 0 0 6-18.9A83 83 0 0 0 671 861a1320.3 1320.3 0 0 1-18.8-44.6l-.2-.1 4.8-4.4c1.8-1.7 2.3-3.5 1.5-5.4 0-.7 0-1.4-.2-2.3-.5-1.9-1-3.7-1.3-5.6a597 597 0 0 0-5.2-23.1c-2.1-8.4-5-16.3-8.8-24-3.6-7-6.5-14.4-8.8-22-2-6.2-4-12.4-6.4-18.5-3.1-8.2-7-16-11.6-23.6-1.2-2-2.5-3.9-4-5.6-5.4-6.9-11-13.7-16.5-20.4a97.4 97.4 0 0 0 3.9-27.7c-.1-8.6-1.2-17.1-3.2-25.5-.5-2-.8-4-.8-6.2a4 4 0 0 0-.5-1.9l3.3-3.6c2.6-3.1 4.5-6.6 5.7-10.5a143 143 0 0 0 5.9-38.2c.2-8.4-.3-16.8-1.4-25.2-1.5-11-4.4-21.7-9-31.9.4-.6.7-1.3.8-2.3 1-8.2 2.4-16.4 4.4-24.5.4-1.5.9-3 1.6-4.3 1-2.4 1-4.5-.1-6.6-.8-1.4-2-1.8-3.5-1.4-2.7.9-4.3 2.8-4.8 5.8a153 153 0 0 1-3 13.4c-.8 2.5-1.3 5.1-1.6 7.7l-.5-.8c-.2-.6-.9-1.8-2-3.8a84.2 84.2 0 0 0-5.2-7.9 41.8 41.8 0 0 1-5.3-9.4l-.4-.4-.5-.4a7.4 7.4 0 0 0-1.4-.5c-3-4.4-5.8-9-8.7-13.4a226.7 226.7 0 0 1-22.7-46.2 373.2 373.2 0 0 1-12.8-50.8 271 271 0 0 0-4.6-24L550 324c10.6 1.7 21 4 31.5 6.9 5.3 1.5 10.4 3.3 15.4 5.6a70.3 70.3 0 0 1 25.5 19.1c7 8.3 14 16.4 21.1 24.4a162.8 162.8 0 0 1 32.2 54.3c2.7 7.4 5.4 15 8.3 22.3 3.8 10 7 20.3 9.7 30.6a937 937 0 0 0 6.4 23.4 575 575 0 0 1 8 30.8c.7 3.1 1.3 6.4 1.8 9.6 1.5 10.5 3.3 21 5.4 31.5.5 2.8 1 6.5 1.3 11a1407 1407 0 0 1 1.8 25.5c-.3.3-.5.7-.6 1.1l-.2 1.3c0 .4 0 .8.2 1.2l.2.4.2.4.2.4a423.5 423.5 0 0 0 13.1 40c3.9 9.7 6.6 19.8 8.1 30.2v-.4.4l.2 2.5c0 2.2.1 4.4.4 6.5l.7 5.5a1043.7 1043.7 0 0 1-.3 64.5c-.3 10.6-.5 21.4-.6 32-.2 10.7 0 21.3.3 31.9l1.2 32c.1 4 .4 7.9.9 11.8 1.2 10.6 1.3 21.2.5 31.8a360.4 360.4 0 0 0-1 33.2c.1.4.4.8.7 1.1.2.4.5.7.9 1l1.3.5h.4a1.9 1.9 0 0 0 .9 0l.9-.2 1.2-.6.9-1 .5-1.3c0-12.7.4-25.5 1.3-38.2.5-7.9.5-15.8-.2-23.7a878.3 878.3 0 0 1-3.2-66.5c0-10.4.3-20.7.9-31 .6-10.6.9-21.1.8-31.8-.1-10.7-.2-21.4-.1-32.2 0-9.9-.6-19.8-2-29.6-1.3-9.8-3.7-19.3-7.3-28.5a298.9 298.9 0 0 1-10.8-33.5 29 29 0 0 0-2.3-7.2l-.7-10-.9-12.7c-.8-11.5-2.4-23-4.6-34.3-.6-2.7-1-5.5-1.4-8.3a213 213 0 0 0-6.6-31.5c-2-6.5-3.7-13.1-5.2-19.7a411 411 0 0 0-9-31.6L688.2 444a259.5 259.5 0 0 0-13-31.8 129.9 129.9 0 0 0-16.8-26.2l-19.8-24.2a174.1 174.1 0 0 0-21.8-22.3c-8.1-7-17.3-12-27.5-15a280 280 0 0 0-30.6-7l-15.6-2.7c.4-3 .4-6.3 0-9.5a2041.6 2041.6 0 0 1-6.8-52c-.2-1.3-.2-2.5-.1-3.7l1.3-24.2c.5-8.6.7-17.2.5-25.8l-.6-26.2a608.4 608.4 0 0 1 0-32.6c.6-8.8.4-17.6-.7-26.3-.6-4.7-1.7-9.6-3.4-14.6-2.5-7.1-4.7-14.3-6.6-21.6Zm9.6 34.7v-.3.5-.2Zm-.3-2.3v-.4.5-.1Zm-41.8 18v-.1c.1 0 .2 0 .2-.2v.2h-.2Zm14.3 12.3-.1-.4V140.9ZM202.2 675.2l-1.9 6c-2.7 8-6.1 15.7-10.4 23.1-2.9 4.8-5.9 9.6-9 14.3a61 61 0 0 1 5-11 253.6 253.6 0 0 0 16.3-32.4Zm459.9 190L661 858a238 238 0 0 1 1.5 3.6c2.3 6 4.3 12 6.1 18.2 2.6 9.4 2.7 18.7.3 28a178 178 0 0 1-4.8 15.6 2895.7 2895.7 0 0 0-.2-37.8c-.2-6.8-.8-13.6-1.8-20.4ZM139 921.9v.1h-.1Zm10-94.8a6.3 6.3 0 0 0-.2 3.5c-1.2 6-2.6 12.1-4.2 18.1-1.7 6.3-3 12.6-4.2 19l-3.8 20.5c-1.4 7.7-2.8 15.4-4 23v-.3a394.8 394.8 0 0 0-.7 5.5v-.1l-.6 3.9-.5 3-.2-.5c-2.8-5.6-6-11-9.6-16-.4-3.8-.3-7.6.2-11.5l2-12.8a82 82 0 0 1 6-20.5 762 762 0 0 0 14.8-35.3c2-5.4 4.3-11 6.5-16.4-.6 5.3-1 10.5-.9 15.7-.3.4-.5.8-.6 1.3Zm379.6-712.4c.4 2.5.6 4.9.7 7.3l-.1 26.8c-.1 8.4 0 16.8.2 25.2l.6 25.5c.2 9 0 18-.3 27-.1 2.2-.4 4.4-.7 6.5a81.7 81.7 0 0 0-.6 21.7 1337.8 1337.8 0 0 0 6.8 53.5v5.4l-8.4-1.3c-5-.8-10.1-1.4-15.2-1.7-11-.7-20.7-3.8-29.2-9.3-9.1-5.9-14-14.2-14.6-25a201.9 201.9 0 0 1-1.5-10.9l-.7-6 2.1-3.3a1267 1267 0 0 0 10.9-18.4 84.9 84.9 0 0 0 8.6-21l2.5-10.4c1-4.5 1.6-9 1.9-13.6l3 .7c3.8-.3 6.9-2 9-5.3 2.7-4 4.3-8.3 4.8-13a129.1 129.1 0 0 0 .6-23.5 69 69 0 0 0-3-22.2c-.7-2.3-1.9-4.4-3.5-6.1-2.3-2.5-4.8-3.6-7.5-3.3 0-2 0-4.1-.2-6.3L493.1 92c-.6-7.1-2.3-14-5-20.7a47.5 47.5 0 0 0-11.2-16.5c-5.2-5-11.4-8.3-18.4-10l-2-.7c-6.3-2.1-12.7-4-19.2-5.6a169 169 0 0 0-19.8-3.6 109.3 109.3 0 0 0-21.6-.6l.2-.1h.3l.4-.1a142.9 142.9 0 0 0-55.3 15.4A78 78 0 0 0 324.7 62c-4.8 4.7-8.5 10-11 16.2a43 43 0 0 0-3.1 20.5c.4 5.5.8 11 1 16.6-1.7-.5-3.5-.6-5.3-.3-5.5 1-8.8 4.5-9.8 10.3-1.2 6.9-2.1 13.7-3 20.6a127 127 0 0 0-.6 20.8 70 70 0 0 0 2.4 15.3c1.8 6.5 6 10.1 12.5 10.8a12 12 0 0 0 3.4-.3c-.1 3 0 5.8 0 8.7.4 7 1 14.1 1.9 21.2l.2 1.6v.1c.7 7 3 13.3 7.3 18.9l12.1 15.8-.1.3c-.3.8-.4 1.6-.3 2.5 0 .2 0 .4.2.5v.4l.3.5v.6l-.2 8.3c-.1 3.6-.5 7.2-1.2 10.7l-2 3.1a36.6 36.6 0 0 1-18.8 13.7 272 272 0 0 0-40.3 17.6l-1.4-17c-.7-9-.6-17.9.3-26.8.9-8.5 1.6-17.1 2-25.8.5-8.5 1.5-17 3-25.4 1.7-8.8 2.9-17.6 3.5-26.6l1.6-22.9c.5-8.7.7-17.3.6-26-.2-8.6.6-17.2 2.2-25.7l2.3-12.8a557.8 557.8 0 0 1 11.2-51.8c2.4-8.6 5-17.2 8-25.6 3-8.4 8.7-14 17.3-16.7l4.3-1.2c5.9-1.3 11.8-2 17.8-2.1 6.5 1.5 13 1.5 19.6 0 3.3-.8 6.3-1.2 9-1a83 83 0 0 0 13.9-.8 105.7 105.7 0 0 1 34.8.9c8.3 1.7 16.7 2.9 25.2 3.5a48 48 0 0 1 24.7 8.9 63.1 63.1 0 0 0 23.7 10.7c2.7 2.1 5.3 4.4 7.8 6.7a37.9 37.9 0 0 1 12 20.6c1.5 6.8 3.2 13.5 5.2 20.1 2.5 8.4 5 16.9 7.7 25.3a38 38 0 0 1 1.8 8v.2l.2 1Zm-66.1-60-.2-.1-.3-.1.5.1a27 27 0 0 1 9 6.1 43 43 0 0 1 10.8 17.3 74 74 0 0 1 3.6 20.5c0 1.8.1 3.5.3 5.3.8 7 1 14 .6 21a8.3 8.3 0 0 0-1.6 4.3c-.1 1.4.5 2.4 1.8 3a5 5 0 0 0 3.1.5c.7 0 1.5-.2 2.3-.6.5-.3.8-.7 1-1.3l.4-1.5.1-.2.5-.3.5-.3.5-.3h.5l.2-.1.4.3.4.4.4.4c1.7 4 2.7 8.1 3 12.4l.6 8c.6 8.7.5 17.3-.4 25.9-.5 4.2-2.2 7.5-5.3 9.9H494l-.1-.1-.2-.2c-.1 0-.2 0-.2-.2l-.2-.1c-.6-1.2-1.3-2.3-2-3.3s-1.6-1.6-2.7-1.7c-2.6-.1-4 .8-4.5 2.7-1.2 1.2-1.4 2.8-.6 4.8 0 6.4-.6 12.8-2.1 19.1-1.6 6.8-3.7 13.5-6.2 20a84 84 0 0 1-7.1 14.1l-7.5 11.8a46.3 46.3 0 0 1-17.5 16.6c-6 3.5-12.3 6.6-18.8 9.2-6.8 2.7-13.8 4-21 3.8a219.5 219.5 0 0 1-21.6-1.6c-3.6-.5-7-1.5-10.3-3-6.3-2.9-12.3-6.3-18-10.2a97.7 97.7 0 0 1-21.3-21.9l-3-4-.7-1h-.1l-2.2-3a21 21 0 0 1-3.2-6.9c-1.7-6.9-2.7-13.8-3.1-20.9-.5-7.3-.6-14.6-.6-22l.3-.4c1.6-2.4 1.3-4.5-.8-6.2-1-.9-2.2-1-3.4-.4l-.3.2-.8.1c-1.4.3-2.1 1.2-2.3 2.6v.2l-.3.5c-.3.3-.6.4-.9.5-.8.5-1.7.7-2.6.6-1-.1-2-.3-2.8-.8l-.5-.4a19 19 0 0 0-1.2-1.8v.2-.2c-1-1.9-1.7-4-2-6.1-.3-2.4-.6-4.7-.7-7.1-.4-6.8-.3-13.6.5-20.4.4-3.5.7-7 .9-10.7a38.8 38.8 0 0 1 4-14.8h.3l.1-.1H307.7l.6.1a15.9 15.9 0 0 0 1.5.5s.2 0 .3.2l.2.1.2.6c0 1.4.6 2.6 1.4 3.8 1.3 1.7 3 2 4.9 1l1.2-1c1.6-.6 2.4-2.2 2.3-4.8l-1.3-20.4c-.3-3.5-.3-7-.2-10.6.3-7.4 2.8-14 7.4-19.9a170 170 0 0 1 8.3-8c5.2-4.7 11-8.4 17.5-11.2 6.2-2.7 12.6-4.8 19.2-6.4 7.2-1.7 14.4-3.2 21.7-4.3h-.2.2c4.5-.6 9-.8 13.4-.6 5.2.2 10.4.8 15.5 1.7 6.7 1.2 13.3 2.8 19.8 4.6 7 2 14 4.2 20.9 6.5ZM341 268.6v-1.3l1.6 1.3c5.6 4 11.3 8 17 11.7a47 47 0 0 0 24.5 7.8l9.2 1.2a49.8 49.8 0 0 0 11.5.6 138.5 138.5 0 0 0 9.6-1h.3l1.1-.2a59.5 59.5 0 0 0 20.5-7.4c5.5-2 10.6-4.8 15.2-8.5l2.2-1.6c1.7-1.2 3.3-2.5 4.8-4v.4l.7 4.7V272.7a53.8 53.8 0 0 1 .8 5.1v-.1c.4 2.9 1 5.7 1.5 8.5a29.8 29.8 0 0 0 9 15.8 54 54 0 0 0 15 10h-.1l5 1.9c0 1 0 2 .2 3l2.9 14.5c2.4 11 3.9 22 4.5 33.1.6 11 .2 22-1.2 32.9-.9 7-2.5 14.6-5 22.6a18 18 0 0 1-2.3 5 46.7 46.7 0 0 1-18.9 16.7l.4-.3.4-.3c-5.8 3.9-11.7 7.6-17.6 11.3-8.1 5-17.2 8.5-27.1 10.5-10.4 2-20.9 3-31.4 3-11.7-.1-23-2.1-34-6-10-3.5-19.5-8.2-28.5-13.9a31.4 31.4 0 0 1-9.4-9.1c-6-9.1-9.8-19-11.3-29.8-.6-3.9-1-7.8-1.2-11.7-.1-2.4-.2-4.9-.1-7.4 0-9.4.2-18.8.5-28.3.2-7.8.8-15.5 1.8-23.3 1.3-9.7 1.8-19.6 1.6-29.4a40 40 0 0 0 22.6-19.3 52.7 52.7 0 0 0 3.7-19Zm-56.3 355c16-3 32-6.4 48-10a389.9 389.9 0 0 1 79.2-9.5c17.1-.2 34 1.1 50.9 4.1a3410 3410 0 0 1 47.7 8.8c16.5 3.3 33.2 4.3 50 3.1 2 0 4.2-.5 6.2-1.3a72.1 72.1 0 0 0 20.8-11.8l.6 2.5a95.3 95.3 0 0 1-.4 50c-.3 1-.3 2 .1 2.9a51 51 0 0 0 10.4 14.9c1.5 1.5 2.9 3.2 4.2 5 5 6.9 9.5 14.1 13.5 21.8 3.8 7.5 6.9 15.4 9.2 23.5 2.3 8.3 5.3 16.2 9.2 23.9 3.8 7.6 6.8 15.6 8.9 23.9.5 2.2 1 4.4 1.8 6.5 2.4 8 4.1 16 5.3 24.3l-1 1-8.5 9.1c-4 4.3-7.9 8.4-12 12.5-6.1 6-12.7 11.3-19.8 16-7 4.6-13.9 9.3-20.7 14-7.1 5-14.9 8.7-23.2 11-9.2 2.6-18.3 5.5-27.3 8.6l-24.5 8.2c-8 2.6-16.1 4.6-24.3 6.3a933.4 933.4 0 0 1-29.1 5.1 272.9 272.9 0 0 1-44 5.9c-9.3.5-18.5.8-27.8.9a237.2 237.2 0 0 1-46-4.4c-8-1.8-15.7-4-23.3-6.6-8.3-2.9-16.5-5.7-24.8-8.4l-23.3-7.6c-8.2-2.7-16.2-5.7-24.1-9A194 194 0 0 0 236 865c-7.9-2.8-15.6-5.9-23.2-9.5a1045 1045 0 0 0-38-17 84.2 84.2 0 0 1-17.7-10.4l-.1-.6c.4-7.5 1-15 1.9-22.5.3-3.3 1.1-6.4 2.4-9.4 1.8-4.3 3.2-8.7 4-13.3 1.5-7.8 3.8-15.5 6.8-22.9 2.4-6 4.6-12 6.5-18.1a79.7 79.7 0 0 1 11.3-22.6 131 131 0 0 0 12.7-21.9 171.4 171.4 0 0 0 14.5-51.1c.2-2.3.4-4.6.4-7 0-7.5.9-14.8 2.9-22 5 4.1 10.8 7.3 17.3 9.6a174 174 0 0 0 46.9-2.6Zm233.8-304.2 2.2.3a754.8 754.8 0 0 0 1.9 8.1c.5 2.4 1 4.8 1.3 7.3l.2 1.4 1.3 7.6a274.8 274.8 0 0 0 8.5 37.7 229 229 0 0 0 28 63.9 252 252 0 0 0 14.5 20.8l.6.4a278.6 278.6 0 0 1 9.5 15.8v.1c4.2 8.4 7.8 17 10.9 25.8a62 62 0 0 1 3.5 16.8c1 16.7.3 33.4-1.9 50-.3 2-.9 4-1.9 5.9a77.3 77.3 0 0 1-28.9 29.7c-4 .9-7.9 1.4-11.9 1.5-15.5.6-30.8-.5-46.1-3.5a9886.4 9886.4 0 0 0-42.3-8.4c-6.3-1.5-12.7-2.4-19.1-2.8a554 554 0 0 0-53.1-.5c-16.9.6-33.6 2.4-50.2 5.4-15.5 2.8-30.8 6-46.1 9.7a249.3 249.3 0 0 1-53 6.8c-3.5 0-6.7-.7-9.7-2.3-14.8-7.9-25-20-30.6-36.3-2.7-7.8-4.4-15.9-5.1-24.1-1.1-12.3-.7-24.4 1.4-36.5 2.8-16.6 8.8-32 17.9-46.1 7.3-11.3 15-22.3 23-33.2 4.9-6.6 9-13.5 12.7-20.9a151.8 151.8 0 0 0 14.3-49c2-17 5.4-33.6 10.3-50 2-.9 3.9-1.8 5.8-2.9a131 131 0 0 1 21-8.8c-.4 6.5-1 13-1.8 19.5a285 285 0 0 0-2.1 32 1011 1011 0 0 1-.8 31.8c-.2 4 0 8.1.6 12.2a98.5 98.5 0 0 0 9.3 30.4c1.8 3.5 4 6.7 6.8 9.6 5 5.1 10.8 9.5 17.2 13 9.3 5.3 19.2 9.3 29.6 12.1 10.3 2.9 20.9 4.2 31.6 4.2 9.8-.3 19.5-1.3 29.2-3 10.3-1.8 20-5.3 29.1-10.4 3.5-2 7-4 10.4-6.2 8.6-5.5 16.9-11.5 24.7-18.1 2-1.7 3.5-3.7 4.7-6a85.2 85.2 0 0 0 8.2-28.7c1.4-9.2 2.1-18.5 2-27.9-.1-10.1-1-20.2-2.5-30.3a814 814 0 0 0-4.8-27.3 225 225 0 0 0 19.7 3.4Zm-128.8-38.6-.1-.1h.1Zm29.8-55.3-.1.1.1-.1Zm11.6-3c-1.6-1-3.1-1-4.6.2a54.5 54.5 0 0 0-5.2 2.1l-1.9.8-5 2.1a27.4 27.4 0 0 1-16 1.7c-5.3-1-10.6-2.2-15.9-3.6-1.4-.3-2.7-.8-4-1.4-1.3-.6-2.6-1-4-1-1.6-.1-2.7.6-3.3 2.1-1 2.5-.4 4.3 2 5.3 4 1.9 8.1 3.3 12.4 4.3a133.2 133.2 0 0 0 17.4 2.7c3.5.2 7-.3 10.3-1.4a98.2 98.2 0 0 0 11.2-4.3l.5-.2.4-.2h-.1l1-.3a45 45 0 0 1 2.4-1l.9-.4a4.3 4.3 0 0 0 3.2-3c.6-2 0-3.4-1.7-4.6Zm8-122-1.6-.2h.2c-3.5-.6-7-.5-10.4.3-5.7 1.4-10.8 4-15.2 7.7a5 5 0 0 0-1.7 2.8c-.7 2.7.3 4.4 3 5a2 2 0 0 0 1.8-.3l5.6-3.7a20.5 20.5 0 0 1 15.7-4h.2l.2.1h.3a52 52 0 0 1 15.2 5.4c1.6 1 3.2 2 4.7 3.3a38 38 0 0 0 4.6 3c2.4.4 4-.5 4.8-2.8a3 3 0 0 0-.5-3c-1.3-1.7-3-3.1-5-4.3v.1l-.6-.5a34 34 0 0 0-9.1-5.5c-4-1.5-8-2.7-12.2-3.4Zm-46.8 12.7c0-.6-.2-1.2-.6-1.7-2-2.1-4.5-3.8-7.3-4.9l-6.8-2.2-4.4-1.3a26.2 26.2 0 0 0-15.9 0 52.8 52.8 0 0 0-23.1 16.2c-2 2.6-1.8 4.9.6 6.9 1 .6 2 .7 3.1.3.4 0 .7-.2.9-.5a53.8 53.8 0 0 1 11.8-11 22.8 22.8 0 0 1 16.2-5l6.3 1.5a68.4 68.4 0 0 1 8.5 2.5h-.2c.7.2 1.4.6 2 1.1.8.5 1.5 1 2.3 1.3a3 3 0 0 0 2 .9c3 .2 4.5-1.2 4.6-4.1Zm45.7 17.9c-2.2 3-1.7 5.8 1.4 8.1l.7.4c3.1.8 5.3-.2 6.5-3.3a4 4 0 0 0 0-2.7c-1-3.3-3.4-4.5-6.8-3.7-.8.2-1.4.6-1.8 1.2Zm-76.5 2.2c-.2 3.3 1.5 5.3 5 5.8 3 0 4.8-1.3 5.6-4.2a4 4 0 0 0-1.1-4.2c-2.4-2.4-5-2.6-7.8-.6a3.9 3.9 0 0 0-1.7 3.2Zm30.5 45.4c-1.5 3.5-1.4 6.7.4 9.7.7 1.2 1.6 2 2.9 2.6 3.7 1.6 7.6 2.2 11.8 1.8a6 6 0 0 0 4.9-1.6c1.2-1 1.6-2.3 1-3.9-1-2.4-2.6-3.2-5.1-2.5l-1.8-.1-4 .1c-1.1.1-2.1-.1-3.1-.6l.4-1.6a25.4 25.4 0 0 1 2.9-5.6 4 4 0 0 0 1.9-3c.1-1.2-.2-2.2-1.1-3-2-1.9-4-1.9-5.9.1-2.2 2.2-4 4.8-5.2 7.7Zm93.2-32c-1.3-.7-2.6-1.2-4-1.5-3-.6-5.4.3-7.1 2.6-.5.6-.6 1.2-.5 1.8.5 3.4 2.3 4.6 5.6 3.7h.6l.8.1.9.2.2.1.2.2h.2l.1.2.1.1.4.7.6 1.8c.1.6.2 1.1.1 1.7l-.1.3c-.5 1-1 2-1.7 2.8-.6.7-1.2 1.2-2 1.6a5.2 5.2 0 0 0-3.7.5c-1.5.8-2.1 2-1.8 3.8.4 2.4 1.9 3.6 4.4 3.5a9 9 0 0 0 6-1.5c1.2-.8 2.3-1.7 3.3-2.7a13 13 0 0 0 3.5-9.8c-.3-4.6-2.3-8-6.1-10.2ZM323 147c-1.3-3.3-3.7-4.4-7.1-3.4a11 11 0 0 0-8.2 10 12 12 0 0 0 7.2 13.2c2.9.6 5.8.4 8.7-.6.9-.3 1.7-.7 2.4-1.4 2-2 2-4 0-6-.4-.4-.8-.6-1.3-.6-2.4 0-4.9.3-7.3 1l-.4-.4-1-1a4.3 4.3 0 0 1-.6-1.4l.1-2.1c.1-.7.3-1.3.7-1.9l.2-.2.2-.2.2-.2.2-.2h.2l.2-.2h.2c2 .8 3.6.3 4.9-1.3.7-1 .9-2 .5-3.2ZM57.6 945.3h-5.7l.6.4a4 4 0 0 0 2.3.7c1.1 0 2-.4 2.8-1.1Zm482.2-664.1v-.2.1ZM125.2 426.6v-.1Zm0-.4.2-.1-.1.1Z"/><path fill="#333" d="M155.9 837a320.6 320.6 0 0 0-7.2 29.8l-3.7 20.3-3.6 20.6c-1 5-1.7 10-2.5 14.9l-.1.8-.3 1.6v-.1.4a105.1 105.1 0 0 1-1.4 8.2c.2.9.2 1.7 0 2.6l2 4a16 16 0 0 1 1.5 5.3h515.6v-.3a21.1 21.1 0 0 1-.3-1V943c0-.1 0-.3.2-.5l.1-.3-.1-.7a254.3 254.3 0 0 1-.1-27.8l-.2-20c-.1-6.8-.4-13.5-.8-20.3a184 184 0 0 0-2.5-20l-3.9-19.8c-.7-3.5-1.7-6.9-3-10.1l-.4-.5a198 198 0 0 0-6.8 7.4c-6.2 7-13.1 13-20.8 18.2l-23 15.6c-7 4.8-14.4 8.7-22.3 11.6a223 223 0 0 1-15.7 5.2c-8.6 2.5-17.2 5.2-25.6 8.1a485 485 0 0 1-24.3 7.5 243 243 0 0 1-25.7 6l-14.6 2.3-23 4c-7.9 1.3-15.8 2.2-23.7 2.7-6.1.4-12.3.7-18.4.9-8.5 0-17-.1-25.4-.3a185.8 185.8 0 0 1-49.6-7.6c-8.2-2.4-16.2-5-24.2-8-8-2.9-16-5.6-24-8a437.6 437.6 0 0 1-38.8-14.1c-7.7-2.8-15.3-5.7-22.8-8.7a388.5 388.5 0 0 1-31.6-14.1l-22.6-11.2c-2.2-1-4.3-2.3-6.4-3.5Z"/><path fill="#CCC" d="M520.7 319.7c-.8 0-1.5-.2-2.2-.3-6.6-.8-13.2-2-19.7-3.4 1.7 9.1 3.3 18.2 4.8 27.4 1.5 10 2.4 20 2.5 30.3a169.7 169.7 0 0 1-1.9 27.4c-1 10.3-3.8 20-8.3 29.1a18.2 18.2 0 0 1-4.7 6 225.6 225.6 0 0 1-35.1 24.3 90.5 90.5 0 0 1-29.1 10.4c-9.7 1.7-19.4 2.7-29.2 3-10.7 0-21.3-1.3-31.6-4.1a131.6 131.6 0 0 1-29.6-12.2c-6.4-3.5-12.1-7.9-17.2-13-2.8-2.9-5-6-6.8-9.6a98.4 98.4 0 0 1-9.3-30.4c-.6-4-.8-8.1-.6-12.2.4-10.6.7-21.2.8-31.8a285 285 0 0 1 2.1-32c.8-6.5 1.4-13 1.8-19.5-7.2 2.3-14.2 5.3-21 8.8l-5.8 3c-4.9 16.3-8.3 32.9-10.3 49.9a151.9 151.9 0 0 1-27 69.9c-8 10.9-15.7 22-23 33.2a121.8 121.8 0 0 0-18 46.1c-2 12-2.4 24.2-1.3 36.5.7 8.2 2.4 16.3 5.1 24.1a62.7 62.7 0 0 0 30.6 36.3c3 1.6 6.2 2.4 9.7 2.3 17.9-.4 35.6-2.6 53-6.8 15.3-3.6 30.6-6.9 46.1-9.7a357 357 0 0 1 50.2-5.5c17.7-.6 35.4-.4 53.1.6a108 108 0 0 1 18 2.7l43.4 8.5c15.3 3 30.6 4.1 46.1 3.5 4 0 8-.6 11.9-1.5a77.3 77.3 0 0 0 28.9-29.7c1-1.8 1.6-3.8 1.9-6 2.2-16.5 2.8-33.2 1.9-49.9a62.1 62.1 0 0 0-3.5-16.8c-3.1-8.8-6.7-17.4-10.9-25.8v-.1a278.5 278.5 0 0 0-10.1-16.2 251.7 251.7 0 0 1-36.8-66.4c-2.2-6-4-12.1-5.7-18.3l-3.4-12.7a274.6 274.6 0 0 1-6.4-32.6l-.2-1.4-1.3-7.3a693.3 693.3 0 0 1-2-8.1Zm-188 294c-16 3.5-32 6.8-48 10a174 174 0 0 1-46.9 2.6 59.5 59.5 0 0 1-17.3-9.5c-2 7.1-3 14.4-3 22 0 2.3 0 4.6-.3 6.9a158 158 0 0 1-14.5 51.1 131 131 0 0 1-12.7 21.9c-5 6.9-8.8 14.4-11.3 22.6-2 6.1-4.1 12.1-6.5 18.1-3 7.4-5.3 15-6.7 23-1 4.5-2.3 9-4.1 13.3-1.3 3-2 6-2.4 9.3a461.7 461.7 0 0 0-1.8 23.1 84.2 84.2 0 0 0 17.8 10.4 1142 1142 0 0 1 37.9 17c7.6 3.6 15.3 6.8 23.2 9.5 3.7 1.2 7.2 2.5 10.5 3.9 7.9 3.2 16 6.2 24.1 8.9l23.3 7.6a2147 2147 0 0 1 24.8 8.4 172.4 172.4 0 0 0 44 9.8c8.4.8 16.8 1.2 25.3 1.1 9.3 0 18.5-.4 27.8-.9a273.3 273.3 0 0 0 44-5.8l5.3-1c8-1.3 15.9-2.6 23.8-4.1 8.2-1.6 16.3-3.7 24.3-6.3a1332 1332 0 0 0 24.5-8.3c9-3 18.1-5.9 27.3-8.5 8.3-2.3 16-6 23.2-11 6.8-4.7 13.7-9.4 20.7-14 7-4.7 13.7-10 19.8-16 4.1-4 8-8.2 12-12.4a1132 1132 0 0 1 9.5-10.3c-1.2-8.1-3-16.2-5.3-24.2a104 104 0 0 1-1.8-6.5c-2.1-8.3-5-16.3-9-24-3.8-7.6-6.8-15.5-9.1-23.8-2.3-8.1-5.4-16-9.2-23.6-4-7.6-8.5-14.9-13.5-21.8a46.7 46.7 0 0 0-4.2-5 51 51 0 0 1-10.4-14.9c-.4-.9-.4-1.8-.1-2.8a95.4 95.4 0 0 0-.1-52.5c-6.3 5-13.3 9-21 11.9-2 .7-4 1.1-6.1 1.3-16.8 1-33.5 0-50-3.2-16-3-31.8-6-47.7-8.8-16.8-3-33.8-4.3-50.9-4a406.2 406.2 0 0 0-79.2 9.4Z"/><path fill="#fff" d="M342.6 268.6H341c-.1 6.5-1.3 12.8-3.7 19a40 40 0 0 1-22.6 19.3c.2 9.8-.3 19.7-1.6 29.5a227 227 0 0 0-1.8 23.3 1609.3 1609.3 0 0 0-.4 35.6c.1 4 .6 7.8 1.2 11.7a71.5 71.5 0 0 0 11.3 29.8c2.5 3.6 5.6 6.7 9.4 9.1 9 5.7 18.5 10.4 28.5 13.9 11 3.9 22.3 5.9 34 6 10.5 0 21-1 31.4-3 10-2 19-5.5 27-10.5a564.6 564.6 0 0 0 17.3-11 46.7 46.7 0 0 0 18.5-16.4 18 18 0 0 0 2.4-5c2.4-8 4-15.6 4.9-22.6 1.4-11 1.8-21.9 1.2-32.9-.6-11.1-2.1-22.2-4.5-33.1-1-4.4-1.9-9.2-2.9-14.4-.2-1-.3-2.1-.2-3.1-1.7-.6-3.4-1.2-5-2a54 54 0 0 1-14.9-9.9 29.8 29.8 0 0 1-9-15.8c-.6-2.8-1.1-5.6-1.5-8.5v.1a299.4 299.4 0 0 0-.8-5.1V272.3a110.9 110.9 0 0 1-.7-5 49.3 49.3 0 0 1-4.8 3.9l-2.2 1.6a53.3 53.3 0 0 1-15.2 8.5l-2.7 1.3a59.5 59.5 0 0 1-23.6 6.9 138.5 138.5 0 0 1-7.5.4c-3.1.1-6.2-.1-9.2-.6a96.6 96.6 0 0 0-11.7-1.4l-1.8-.3a47 47 0 0 1-20.1-7.3 350 350 0 0 1-17.1-11.7Zm119.9-214c-7-2.3-13.9-4.5-20.9-6.4-6.5-2-13.1-3.5-19.8-4.7-5.1-1-10.3-1.5-15.5-1.7-4.5-.2-9 0-13.4.6-7.3 1.1-14.5 2.6-21.7 4.3-6.6 1.6-13 3.7-19.2 6.4a62.7 62.7 0 0 0-17.5 11.2c-2.9 2.6-5.6 5.2-8.3 8a33.5 33.5 0 0 0-7.4 19.9c-.1 3.5 0 7 .2 10.6l1.3 20.5c0 2.5-.7 4.1-2.3 4.7l-1.2 1c-2 1-3.6.7-4.9-1a7.2 7.2 0 0 1-1.4-3.8l-.2-.5v-.1l-.2-.1-.3-.2-.2-.1a14.4 14.4 0 0 1-1.3-.4l-.6-.1H306.7l-.2.1-.3.1a38.8 38.8 0 0 0-3.8 14.8 225 225 0 0 1-1 10.6 122.6 122.6 0 0 0 .3 27.5 17.8 17.8 0 0 0 2 6.3v-.2a61.8 61.8 0 0 0 1.2 1.8l.5.5c.9.4 1.8.6 2.8.7.9 0 1.8-.1 2.6-.6.3 0 .6-.3.9-.5a41 41 0 0 0 .3-.8c.2-1.3 1-2.2 2.3-2.5a19 19 0 0 1 1.1-.3c1.2-.6 2.3-.5 3.4.4 2 1.7 2.4 3.8.8 6.2l-.3.4c0 7.4.1 14.7.6 22 .4 7 1.4 14 3.1 20.9a21 21 0 0 0 3.2 7 61.7 61.7 0 0 0 2.3 3l.7 1a210.4 210.4 0 0 1 4.9 6.4 97.6 97.6 0 0 0 19.4 19.4c5.7 4 11.7 7.3 18 10.2a35 35 0 0 0 10.3 3 227.2 227.2 0 0 0 21.6 1.6c7.2.2 14.2-1 21-3.8a148.6 148.6 0 0 0 23.4-12.1c5.1-3.6 9.4-8.2 12.9-13.7l7.5-11.8a84 84 0 0 0 7.1-14.2c2.5-6.4 4.6-13.1 6.2-19.9a78.8 78.8 0 0 0 2-19.1c-.7-2-.5-3.6.7-4.8.4-2 2-2.8 4.5-2.7 1.1.1 2 .7 2.7 1.7a27.5 27.5 0 0 1 2.2 3.4c0 .1 0 .2.2.3l.2.1.4.2h.3l.3-.1h.2c3-2.4 4.8-5.7 5.3-9.9.9-8.6 1-17.2.4-25.9l-.6-8a38.9 38.9 0 0 0-3.4-12.8c-.1-.1-.2-.3-.4-.3l-.4-.4h-.2l-.3.1h-.2l-.5.3-.5.3-.5.3-.1.2-.4 1.5c-.2.6-.5 1-1 1.3-.8.4-1.6.6-2.3.6-.9.2-2 0-3.1-.5-1.3-.6-1.9-1.6-1.8-3 .1-1.6.6-3 1.6-4.3.3-7 .2-14-.6-21-.2-1.8-.3-3.5-.3-5.3a74 74 0 0 0-3.6-20.5 43 43 0 0 0-10.7-17.3 27 27 0 0 0-9.1-6Zm-146.6 89c3.4-1 5.8 0 7 3.3a3 3 0 0 1-.4 3.2c-1.3 1.6-3 2-5 1.3h-.1l-.2.2h-.2a10.3 10.3 0 0 1-.8.8c-.4.6-.6 1.2-.7 1.9a11.1 11.1 0 0 0 0 2.3c0 .4.3.8.6 1.2l.9 1 .4.4c2.4-.7 4.9-1 7.3-1 .5 0 .9.2 1.3.6 2 2 2 4 0 6-.7.7-1.5 1.1-2.4 1.4-3 1-5.8 1.2-8.7.6a12 12 0 0 1-7.2-13.2 11 11 0 0 1 8.2-10Zm165.3 1.6c1.4.3 2.7.8 4 1.5 3.8 2.2 5.8 5.6 6 10.2.3 3.7-.9 7-3.4 9.8-1 1-2 2-3.2 2.8a9 9 0 0 1-6.1 1.4c-2.5 0-4-1.1-4.4-3.6-.3-1.6.3-2.9 1.8-3.8 1.1-.6 2.4-.8 3.7-.4.8-.4 1.4-1 2-1.6a15.6 15.6 0 0 0 1.8-3.2l-.1-1.6a123.8 123.8 0 0 0-1.1-2.6l-.1-.2h-.2l-.2-.2-.2-.1-.9-.2-.8-.2h-.6c-3.3 1-5.1-.2-5.6-3.5-.1-.7 0-1.3.5-1.9 1.7-2.3 4-3.2 7.1-2.6Zm-88.8 43.2c-1.8-3-1.9-6.3-.4-9.7 1.3-2.8 3-5.4 5.2-7.6 2-2 3.9-2 5.9-.1.9.8 1.2 1.8 1 3a4 4 0 0 1-1.8 3c-.6.8-1.2 1.6-1.6 2.5a25.4 25.4 0 0 0-1.7 4.7c1 .5 2 .7 3.1.6 1.3-.1 2.7-.2 4-.1l1.8.1c2.5-.7 4.2.1 5 2.5.7 1.6.3 2.9-1 4a6 6 0 0 1-4.8 1.4c-4.2.5-8.1 0-11.8-1.7a5.8 5.8 0 0 1-2.9-2.6Zm-26-49.3c-3.4-.5-5-2.4-4.9-5.8 0-1.4.6-2.5 1.7-3.3 2.8-2 5.4-1.7 7.8.8a4 4 0 0 1 1.1 4.1c-.8 2.9-2.7 4.3-5.6 4.2Zm73 .1c-3.1-2.3-3.6-5-1.4-8.1.4-.6 1-1 1.8-1.2 3.4-.8 5.7.4 6.9 3.8a4 4 0 0 1-.1 2.7c-1.2 3-3.4 4-6.5 3.2l-.7-.4Zm-47.7-27.6c.4.4.6 1 .6 1.6-.1 2.9-1.6 4.3-4.5 4.1a3 3 0 0 1-2.1-.9l-2.2-1.3c-.7-.5-1.4-.9-2.1-1.1h.2l-1.3-.4-7.2-2.1-6.3-1.5c-6-.4-11.3 1.3-16.2 5l-2 1.6c-3.6 2.7-7 5.9-9.8 9.4-.2.3-.5.5-.9.5-1.1.4-2.1.3-3.1-.3-2.4-2-2.6-4.3-.6-6.9 3.4-4.3 7.5-8 12-11 3.5-2.2 7.2-4 11.1-5.1a26.2 26.2 0 0 1 15.9-.1l4.4 1.3 6.8 2.2c2.8 1.1 5.3 2.8 7.3 5Zm46-11.3 1.4.3c4.1.7 8.2 1.8 12.2 3.4a34 34 0 0 1 9.1 5.4l.6.5v-.1c2 1.2 3.7 2.6 5 4.4.7.8.8 1.8.5 2.9-.8 2.3-2.4 3.2-4.8 2.8-1.6-.9-3.2-2-4.6-3a46.2 46.2 0 0 0-6.3-4.4A57.9 57.9 0 0 0 435 108c-5.2-.4-10 1-14.3 4.1l-5.6 3.7a2 2 0 0 1-1.7.3c-2.8-.6-3.8-2.3-3.1-5a5 5 0 0 1 1.7-2.8c4.4-3.8 9.5-6.3 15.2-7.7 3.4-.8 7-1 10.4-.3Zm-11.2 122.4c1.5-1.1 3-1.2 4.6-.3 1.8 1.2 2.3 2.7 1.7 4.7a4.3 4.3 0 0 1-3.2 2.9l-1 .3a45.8 45.8 0 0 0-3.3 1.4 3 3 0 0 0-.3.3l-.5.1h-.1l-.2.2H423.9l-.1.1-1.3.5c-3 1.3-6.1 2.5-9.2 3.5a28.3 28.3 0 0 1-11.6 1.3c-5.4-.5-10.8-1.4-16.1-2.6a62 62 0 0 1-12.3-4.3c-2.5-1-3.2-2.8-2.1-5.3.6-1.5 1.7-2.2 3.3-2.1 1.4 0 2.7.4 4 1 1.3.6 2.6 1.1 4 1.4 5.3 1.4 10.6 2.6 16 3.6 5.5 1 10.8.5 16-1.7a169.7 169.7 0 0 0 8.3-3.5 57.2 57.2 0 0 1 3.7-1.5Zm-7.1 2.9.1-.1-.1.1Zm-29.8 55.1h.1-.1Zm-203.2 77.6c-6.8 2.9-13 6.8-18.4 11.6a90.4 90.4 0 0 0-15.1 17.4c-6 8.7-10.9 18-15 27.6-3.6 8.8-6.5 17.7-8.8 26.8-2 8-4.2 16-6.5 23.9-2.3 8-4.2 16-5.6 24.1-2 11-4.2 22-6.9 33-.4 1.6-1 3.2-1.7 4.6l-.8 2.9c-.6 1.4-1.1 3-1.5 4.5a313.3 313.3 0 0 0-8 46c-1 10.8-3 21.3-5.5 31.8-2.5 9.8-5.2 19.5-8.2 29.1L74.8 672c-3.2 10.1-6 20.4-8.5 30.7a332.1 332.1 0 0 0-6.1 32.3 446.7 446.7 0 0 0-4.4 54.1c-.3 10.2-.3 20.4 0 30.5l1 33c.4 11.1.5 22.3.5 33.4-.1 11.1 0 22.4.6 33.6l.7 24.3-.3.5a5.2 5.2 0 0 1-.7 1h74.9a345 345 0 0 0-19-37.9 6 6 0 0 1-.7-3.1c.5-16.9 4-33 10.4-48.4l19-45.9a675 675 0 0 0 17.7-46.3c2-6 3.6-12 4.9-18.1a175 175 0 0 1 16.8-46.4c3.8-7.1 7.5-14.3 11.1-21.5 7.5-15.1 12.2-31 14.3-47.8 1-7.5 2.6-14.7 5-21.5-3-3.6-5.5-7.5-7.8-11.8a108 108 0 0 1-12.1-48.2c-.3-10.5.5-20.9 2.4-31.1 2.7-14.8 7.8-28.6 15.2-41.5-.5-2-1.2-4-2-5.8l-2.3-5.2-1.1-2.5-4.7-11.1c-1-2.2-1-4.3-.3-6.4.7-1.8 2-2.6 4-2.4a8.6 8.6 0 0 1 4.8 6.6c.2 1.5.7 3 1.3 4.4 1.8 4.6 3.7 9.2 5.7 13.6 6.9-10.6 14.3-21 22.1-31.1a107.4 107.4 0 0 0 20.8-44.9c3.4-16.2 6.2-32.6 8.6-49 .7-5 1.9-10 3.4-14.7l-1.6-.4h-1.5l-7.4 3c-8 3-16.2 5.2-24.7 6.6a1161 1161 0 0 1-48.4 21.7Zm410.5-21.9c-5-2.2-10.1-4-15.4-5.5A299.2 299.2 0 0 0 550 324c-7-1.1-14-2.2-21-3.1 2 8 3.5 16 4.7 24a373.2 373.2 0 0 0 12.8 50.8 226.7 226.7 0 0 0 22.7 46.2l8.7 13.4.8.3.6.2.5.4.4.4c0 .2.2.3.3.5 1.3 3.2 3 6.1 5 8.9a84.2 84.2 0 0 1 7.7 12.5c.3-2.6.8-5.2 1.6-7.8a153 153 0 0 0 3-13.3c.5-3 2-5 4.8-5.8 1.5-.4 2.7 0 3.5 1.4 1 2 1.1 4.3 0 6.6-.6 1.3-1.1 2.8-1.5 4.3-2 8.1-3.5 16.3-4.4 24.6-.1.9-.4 1.6-.7 2.2 4.5 10.2 7.4 20.8 8.9 31.9 1.1 8.4 1.6 16.8 1.4 25.2a143 143 0 0 1-6 38.2c-1.1 3.9-3 7.4-5.6 10.5-1 1.3-2.2 2.5-3.3 3.6.3.6.5 1.2.5 2 0 2 .3 4 .8 6.1 2 8.4 3 16.8 3.1 25.4a97.4 97.4 0 0 1-3.8 27.8l16.6 20.4c1.4 1.7 2.7 3.6 3.9 5.6 4.6 7.5 8.5 15.4 11.6 23.6 2.3 6.1 4.5 12.3 6.4 18.5 2.3 7.6 5.2 15 8.8 22 3.8 7.7 6.7 15.6 8.8 24a597.4 597.4 0 0 1 6.7 31c.8 2 .3 3.7-1.5 5.4a251.2 251.2 0 0 0-4.6 4.5l.4.4c5.8 14.7 12 29.5 18.4 44.2a83 83 0 0 1-.4 69c-2.4 5.3-4.9 10.4-7.5 15.4h78.7l-.1-1c-.1-10.8.3-21.4 1.2-31.9.8-10.6.7-21.2-.5-31.9a154 154 0 0 1-1-11.8l-1.1-31.9c-.4-10.6-.5-21.2-.3-31.9.1-10.6.3-21.4.6-32l.6-32.1c0-10.8 0-21.6-.3-32.4l-.7-5.5a43 43 0 0 1-.4-6.5c0-.8 0-1.7-.2-2.5a136.4 136.4 0 0 0-8.1-30.3 423.3 423.3 0 0 1-13.9-42.4c0-.3 0-.8.2-1.1.1-.5.3-.9.6-1.2v-.2c-.5-8.5-1.1-17-1.8-25.3-.4-4.5-.8-8.2-1.3-11a730 730 0 0 1-5.4-31.5c-.5-3.2-1.1-6.5-1.8-9.6a575 575 0 0 0-8-30.8c-2.2-7.7-4.4-15.5-6.4-23.4-2.7-10.3-6-20.5-9.7-30.6-2.9-7.4-5.6-14.9-8.3-22.4a166.2 166.2 0 0 0-32.2-54.1 1230 1230 0 0 1-21.1-24.5 70.3 70.3 0 0 0-25.5-19.2Z"/><path fill="#734800" d="M529.3 121.9a44.7 44.7 0 0 0-.9-8.3v-.1.4a38 38 0 0 0-1.8-8.4l-7.7-25.3c-2-6.6-3.7-13.3-5.2-20a37.9 37.9 0 0 0-12-20.7c-2.5-2.3-5.1-4.6-7.8-6.7a63.1 63.1 0 0 1-23.7-10.7 47.9 47.9 0 0 0-24.7-8.9c-8.5-.6-16.9-1.8-25.2-3.5a105.7 105.7 0 0 0-34.8-.9 83 83 0 0 1-13.8.8c-2.8-.1-5.8.2-9.1 1-6.6 1.5-13.1 1.5-19.6 0a85.2 85.2 0 0 0-22.1 3.4 25.5 25.5 0 0 0-17.3 16.6 375.4 375.4 0 0 0-14.3 51.7c-1.9 8.5-3.5 17.1-5 25.8-.6 4.2-1.4 8.5-2.2 12.8-1.6 8.4-2.4 17-2.2 25.7 0 8.6-.1 17.2-.6 25.9l-1.6 23c-.6 8.9-1.8 17.7-3.4 26.5-1.6 8.4-2.6 17-3.1 25.4-.4 8.7-1.1 17.3-2 25.8-.9 9-1 17.9-.3 26.8l1.4 17 5.8-2.9a272 272 0 0 1 34.5-14.8 36.6 36.6 0 0 0 20.8-16.8c.7-3.4 1-7 1.2-10.6l.2-8.3v-.6l-.2-.4-.1-.5a3 3 0 0 1-.2-.5 6.8 6.8 0 0 1 .4-2.9c-4.1-5.1-8.2-10.4-12.1-15.7a36.6 36.6 0 0 1-7.3-19l-.2-1.6a267.7 267.7 0 0 1-1.9-29.8 13.2 13.2 0 0 1-3.4.3c-6.6-.8-10.7-4.4-12.5-10.9a70 70 0 0 1-2.4-15.3c-.4-7-.1-13.9.7-20.8.8-6.9 1.7-13.7 2.9-20.6 1-5.8 4.3-9.2 9.8-10.3 1.8-.3 3.6-.2 5.3.3-.2-5.5-.6-11-1-16.6a43 43 0 0 1 3-20.5 48.9 48.9 0 0 1 11-16.2 78 78 0 0 1 16.9-12.4c6.2-3.5 12.7-6.3 19.5-8.5a152.7 152.7 0 0 1 35-6.9c7.2-.5 14.3-.3 21.5.7 6.6.8 13.2 2 19.8 3.7a251.7 251.7 0 0 1 21.2 6.3c7 1.6 13.2 5 18.4 9.9 4.9 4.7 8.6 10.3 11.2 16.6a68.4 68.4 0 0 1 5 20.6l1.7 21.7c.2 2 .2 4.2.2 6.3 2.7-.4 5.2.7 7.5 3.2 1.6 1.7 2.8 3.8 3.6 6.1a69 69 0 0 1 2.9 25c.3 7 .1 13.8-.6 20.6-.5 4.8-2 9.2-4.7 13.1-2.2 3.3-5.3 5-9.1 5.3l-3-.7a78 78 0 0 1-1.9 13.6l-2.5 10.4c-2 7.3-4.8 14.3-8.6 21a1267 1267 0 0 1-13 21.7 274.5 274.5 0 0 0 1.7 13.3l.5 3.6a30.4 30.4 0 0 0 14.6 25 60.5 60.5 0 0 0 29.2 9.3 167.8 167.8 0 0 1 23.6 3v-5.4a2111.5 2111.5 0 0 1-6.8-53.5c-.8-7.2-.6-14.5.6-21.7.3-2.1.6-4.3.7-6.5.4-9 .5-18 .3-27l-.6-25.5c-.2-8.4-.3-16.8-.2-25.2v-26.8Z"/></g><defs><clipPath id="a"><path fill="#fff" d="M0 0h800v942H0z"/></clipPath></defs></svg>