<svg xmlns="http://www.w3.org/2000/svg" width="800" height="942" fill="none"><g clip-path="url(#a)"><path fill="#000" d="M541.6 86.2a407.2 407.2 0 0 0-7.6-30.7 31.9 31.9 0 0 0-20.9-22.4 68.8 68.8 0 0 1-10.6-4.8c-9.4-5.4-19-10.3-29-14.8a75.3 75.3 0 0 0-31.2-6.9c-5.8 0-11.5-.6-17.1-1.7A102 102 0 0 0 400.4 3c-6 .4-12 .4-18 0-3.8-.2-7.5 0-11.2.6a378 378 0 0 1-17 2.5c-2.8.4-5.5.4-8.3 0-5.3-.5-10.4.4-15.3 3-3.9 2-7.8 3.9-11.8 5.6-1.9.8-3.6 1.9-5.1 3-8 6.6-14 14.7-17.9 24.3-4 9.9-7 20.1-9.1 30.6a291 291 0 0 0-4.9 39.9c-.6 10.9-1.5 21.8-2.8 32.6a935 935 0 0 1-4.6 33.4c-.4 3-.7 6-.8 9-.4 11.5-1.6 22.7-3.6 33.4v.6-1.1l-.4 3.6a824 824 0 0 0-2.7 31.5 2798 2798 0 0 1-2.3 33.4c-.4 4.7-.5 9.3-.4 14l-4 1-30.1 8.1a297.5 297.5 0 0 0-43.7 15.4 83.6 83.6 0 0 0-24.8 15.3c-2.2 2-4.2 4-6.1 6.4-4.5 5.6-9.2 11.9-14.2 18.7a163.3 163.3 0 0 0-16.2 28.3c-4.4 10-9 19.8-13.8 29.5a219.4 219.4 0 0 0-14.6 40 129.2 129.2 0 0 1-12.3 30c-5.4 9.6-9.5 19.6-12.3 30.2v.1l-.6 2c-1.8 7.5-3.8 14.9-6 22.3a89.8 89.8 0 0 0-3.2 16.5c-1 9.2-2.9 18-5.8 26.8l-5 14.9c-2.6 8-5.8 15.7-9.5 23.2-4.8 9.7-9.1 19.6-13 29.7a179.4 179.4 0 0 0-8.9 31.2c-2 10.7-3.8 21.5-5.4 32.3-.8 5.4-1.7 10.7-2.8 16a165 165 0 0 0-3.3 32.3 1071.8 1071.8 0 0 0 1.7 65.7c.7 11 .5 21.9-.6 32.8a869 869 0 0 0-2.5 32.2 1283.5 1283.5 0 0 1-2 33.3l.1.5.3.4c0 .2.2.3.3.4 0 .2.2.3.3.4l.4.4.4.3a6.4 6.4 0 0 0 1 .4h.5l.5.1h.6l.5-.1.5-.2.4-.2.4-.3a3.8 3.8 0 0 0 .8-.8l.3-.4.2-.4c0-.2 0-.3.2-.5l.3-2.6c1-10.6 1.8-21.3 2.3-32 .4-11 1.2-21.9 2.3-32.8 1-10.7 1.2-21.4.5-32.2a824.6 824.6 0 0 1-1.4-67.9 258.1 258.1 0 0 1 5.4-42c1.4-6.4 2.6-13 3.6-19.6 1.4-9.9 3.3-19.6 5.9-29.3 2.7-10 6.3-19.7 10.8-29 3-6.2 5.9-12.6 8.4-19 4.2-10.7 8.2-21.2 12-31.4 3.8-10.2 6-20.7 6.7-31.7l1.6-8.6c1.4-6.5 3-13 5.2-19.4a493.5 493.5 0 0 0 4.7-16.6v-.2l2.3-6.1c1-3 2.4-6 4-8.9 5.1-9 9.3-18.4 12.5-28.2l10.5-30.9c1.8-5 3.7-9.9 5.8-14.7a424 424 0 0 1 22-45.2c5.1-9.3 10.8-18.3 17.1-27a85.5 85.5 0 0 1 30.9-25.7c7.5-3.5 15.1-6.5 23-9 10-3.3 20.2-6.5 30.4-9.6a306.3 306.3 0 0 1 32.9-8.1v1l.5 3.7v.5l.1.6a90 90 0 0 1-.4 28.8c-2 11.5-4.9 22.8-8.6 33.9-.6 2-1.6 3.8-2.8 5.4a394.5 394.5 0 0 0-19.3 27.3c-2.3 3.6-4.8 7-7.3 10.4-4.2 5.5-8.1 11-12 16.7-6 8.7-10.7 18-14.2 27.9-3.5 10-6.4 20.2-8.8 30.5a136 136 0 0 0 9.3 86.3 15 15 0 0 0-.3 1c-1 3.4-2.3 6.7-3.7 10-1.4 3.2-2.8 6.7-4 10.3a213 213 0 0 1-30.4 57.4c-3 4-5.5 8-7.8 12a6200.3 6200.3 0 0 1-10 12.7 39.8 39.8 0 0 0-7.8 15.1c-3 8.2-6.3 16.3-10 24.3a1116 1116 0 0 0-11.3 26c-3.3 6.2-6.2 12.7-8.8 19.3-1.5 4-3.1 7.9-4.8 11.7A206 206 0 0 0 99.3 813c-1.4 5.6-.6 10.1 2.5 13.4-3.5 7.5-7.5 14.8-11.8 21.9a162.9 162.9 0 0 0-14.3 29.4c-.8 2.3-1.3 4.7-1.5 7a53.5 53.5 0 0 0 7.2 31.5c4.8 8.3 10.2 16.4 16.2 24.3h8.5c0-.7 0-1.4-.5-2a295 295 0 0 1-7.3-10.2c1-.9 1.6-2.1 1.7-3.7.5-11 1.3-21.8 2.3-32.6.5-5.7.6-11.3.3-17a220.4 220.4 0 0 1 1-34.4l4.5-9a65.5 65.5 0 0 0 6.6 4.7l2.5 2c7.7 5.3 15.7 10.1 24 14.4 9.7 5.1 19.5 10 29.4 14.9a872 872 0 0 1 28.9 14.6c10 5.3 19.7 9.7 29.2 13 10.3 3.8 20.6 7.4 31 10.8a624 624 0 0 0 30.7 9.2c10.6 2.9 21.3 5.2 32.2 6.8l32.4 5c10.8 1.9 21.7 3 32.6 3.2 2.7.4 5.3.5 8 .4a438.4 438.4 0 0 0 44.3-3.8c7.6-1.2 15.1-2.5 22.7-4 10.6-2.2 21.3-4.2 32-6.1a294 294 0 0 0 33.4-8 1514 1514 0 0 0 32.2-10c10.2-3.3 20.1-7.3 29.8-12l28.8-14.2c4.5-2.2 8.9-4.7 13-7.4 9-5.8 17.7-11.8 26.4-18a935 935 0 0 1 21.4-15.1l1.5 14.7c1.3 10.9 3.5 21.5 6.5 32 2.3 8 4 16.2 5 24.5a403 403 0 0 1 2.9 32.3c.4 2.5 1.6 3.7 3.5 3.8.6 0 1.3 0 2-.3 1-.3 1.5-1 1.5-1.9.4-5.4.4-10.9 0-16.5-.4-6.4-1-12.8-1.7-19.2v.2a529.2 529.2 0 0 0-7-31.1 227.1 227.1 0 0 1-5.6-29 1056.7 1056.7 0 0 1-1.1-25.6 100 100 0 0 0 4.2 9l.7 1.6 1.9 4.5a227 227 0 0 0 1.9 5v.1a83 83 0 0 0 4.4 9.5 257 257 0 0 1 13.1 28.7 129.2 129.2 0 0 1 7.7 32.3 40.6 40.6 0 0 1-.8 7.8c-.3 1-.8 2-1.3 2.9l-2.1 3 .3-.4.3-.4c-.8.9-1.4 1.8-2 2.7a40 40 0 0 1-5.3 7c-2 2.2-3.4 4.8-4 7.6 0 1.8 1 3 2.7 3.7h2l.7-.4c2-1.6 3.8-3.6 5.4-5.8a187 187 0 0 0 6.6-9.7 16.9 16.9 0 0 0 3.2-5.2l1-2.7c2-11.3 1.1-22.5-2.8-33.5a355.3 355.3 0 0 0-13.1-32l-3.9-8a585.2 585.2 0 0 1-15-34 382.5 382.5 0 0 1-6.3-18l-.9-3.2v-2c-.1-1.2-.4-2-.9-2.7v-3.5a12 12 0 0 0-.7-4.2l-.1-1.6a116 116 0 0 0-13.6-38.9 86 86 0 0 1-6.7-15.3c-2.5-7.6-5.2-15.1-8-22.7-.7-2-1.6-4-2.7-5.8a246 246 0 0 0-16.6-25 78.2 78.2 0 0 1-13.8-29c-2.6-10.5-5-21.3-7-32-.8-4.4-1.4-8.7-1.9-13 0-1.1-.4-2-1.1-2.7a89.2 89.2 0 0 0 10.1-12.5 97.5 97.5 0 0 0 16.1-56.7c-.4-11.9-2.6-23.5-6.4-35a89.2 89.2 0 0 0-18.9-31.9 129.3 129.3 0 0 0-15.4-19 136 136 0 0 1-7.8-10.6l-14-19.6c-5.6-7.7-9.9-16-12.8-25a542.8 542.8 0 0 1-9.2-32.2 374.7 374.7 0 0 0-9.8-32.3l.6.3 17.5 8c4.5 2.1 9.1 4 13.8 5.7a834.4 834.4 0 0 0 37.6 12.7c10.5 2.8 20.5 7 29.6 12.7a63 63 0 0 1 24.9 31.3 2107.3 2107.3 0 0 1 8.4 21c1.6 4.4 3.3 8.5 5 12.1v1c.4 1.3 1 2.6 1.8 3.8a186 186 0 0 1 11.1 20.2 260.8 260.8 0 0 0 12.6 23.6 261.6 261.6 0 0 1 3.3 6.9l-.2-.3.4.7 1.8 4a63.4 63.4 0 0 1 2 4.8c1 2 1.7 4.2 2.4 6.3 2.6 7.5 4.8 15.1 6.4 22.8a1294 1294 0 0 1 6.6 32.4 207.8 207.8 0 0 1 3.5 33.7l-.1.5-.1.5a2.6 2.6 0 0 0 0 1 3.8 3.8 0 0 0 .7 1.8c.4 7 1.7 14 4 20.6a9395 9395 0 0 0 7.3 22.3l-.3-.5a44.2 44.2 0 0 1 1.3 3.5 37.6 37.6 0 0 0 .6 2l2.4 6a1443.2 1443.2 0 0 1 24 60.2 214.6 214.6 0 0 1 13.1 64 756 756 0 0 1 1.5 45.4c-.2 11-.3 21.9-.1 32.8 0 10.9-.2 21.7-.8 32.5-.4 8-.6 16.1-.5 24.2 0 3.5 0 7-.3 10.6-.7 11-.6 22 .3 32.8l.3.4a5.3 5.3 0 0 1 .5.5l.3.3.4.3.5.2a11 11 0 0 0 1 .3h1.1a11 11 0 0 0 1-.2l.3-.2c.2 0 .3-.2.5-.3l.4-.3.3-.3.3-.4.2-.4.2-.4.2-.5a8.7 8.7 0 0 0 0-1.6l-.1-.6v-2c.4-12 .6-23.9.6-35.9 0-11 .2-22.2.5-33.3.4-11.4.5-22.7.4-34.1V796c.2-11 0-22-.8-33-.7-10.7-2-21.4-3.7-32a178.3 178.3 0 0 0-8-30.5c-3.5-10-7-19.8-10.8-29.6-4-10.8-8.2-21.4-12.8-32l.2.5-1.6-3.6-2.9-7.1-2.7-7.2.3.7a439 439 0 0 1-8.6-26.6 69.3 69.3 0 0 1-2.5-21c.3-3.7.1-7.5-.5-11.4a680.8 680.8 0 0 0-13.5-66.1 144.5 144.5 0 0 0-12.7-32.5 97.6 97.6 0 0 0-4.3-8.3c-3.8-6.5-7.3-13.2-10.6-20a141.9 141.9 0 0 0-9-16.5l-.1-.5a11.9 11.9 0 0 0-.8-1.7c-3.9-9-7.6-18-11-27.1-3-8-6.7-15.6-11-22.9a60.8 60.8 0 0 0-32.4-26.6 678.6 678.6 0 0 1-27.4-9.8l-13-4.3-13.3-4.3a154.2 154.2 0 0 1-22.4-10l-.2-1.7c0-.5-.2-1-.4-1.4 0-1 0-2-.2-3-1.3-10.5-2.4-21-3.3-31.5-1-10.4-1.4-20.8-1.4-31.2 0-11-.1-21.9-.3-32.8a1530 1530 0 0 1-.3-32.7c0-11 0-22.1-.4-33.2l.1-10.1a74.9 74.9 0 0 0-6.4-32.7c-2.3-5.2-4-10.5-5.1-16.1Zm-428 749.2h-.1l-.2-.1.3.1ZM82 884.3v-.1.3-.2Zm-.5 1.9v.6-.8.2Zm13.3-30.8v5.6c.5 11 .3 21.9-.7 32.8L92 918.3a321.2 321.2 0 0 1-7.3-13 31 31 0 0 1 .3-28.4l-.2.5 2.3-5.6c2-5.6 4.6-11.1 7.7-16.4Zm567.8-136.5.2.3-.1-.2-.1-.1Zm30.1 89.8.1.1v.1-.2ZM521.6 48.3Zm-179.5-34h-.2l-.2-.1h.4ZM523.6 53a423 423 0 0 1 7.1 19.7c1 2.7 1.6 5.4 2 8.2 1.4 8.2 3.6 16.2 6.6 24 1.3 3 2.2 6.2 2.9 9.5 2.2 10.7 3.4 21.5 3.4 32.5v32.7c0 10.9 0 21.7.2 32.6l.4 32.8c.1 11 .7 22 1.7 32.8l3 31a910 910 0 0 0-25.4-11.2 96.4 96.4 0 0 1-25.8-16.4 34.5 34.5 0 0 0-5.3-7.4 521 521 0 0 0-6.5-14.5l-.8-1c1.6-2.8 3-5.9 4.3-9.1a135.4 135.4 0 0 0 9-47.3l1.9.7c3.5 0 6.8-1 9.7-3 1.8-1 3.3-2.5 4.5-4.2 3-4 4.3-8.5 4-13.5-.3-7-.5-14-.5-21.2 0-8.2-.6-16.4-2-24.6-1-5.8-4.4-8.9-10.1-9h-1.1l-.3-12.3c-.4-9.2-1.3-18.4-2.9-27.5A50.8 50.8 0 0 0 492.4 63a37.8 37.8 0 0 0-20-12.5 321.8 321.8 0 0 0-25.1-5.5h.1-.1a47.4 47.4 0 0 0-6.7-1.3l-1.6-.2a3050 3050 0 0 1-24.6-2.8 100 100 0 0 0-27.4.7 116 116 0 0 0-26.6 7.9h.2-.3c-2.2 1-4.5 2-6.9 2.7a85.2 85.2 0 0 0-23.3 12.1 30.7 30.7 0 0 0-12.8 21.5 225.3 225.3 0 0 0-.7 23.7l.4 14.4a13 13 0 0 0-4.5-.5c-2 0-3.7.7-5.1 2a24.9 24.9 0 0 0-7 12.6l-1.1 4.7a128 128 0 0 0-1.2 44.5c1.2 8.9 6 13.9 14.8 15 1 .1 2 0 3-.3l.1 11.2c.1 8.8 1 17.5 2.8 26.2.3 2.2 1 4.2 2.1 6.2a329 329 0 0 0 10.2 17.2 63.3 63.3 0 0 1-10.4 18 70.3 70.3 0 0 1-22.3 14.9 44 44 0 0 1-11.4 3.1 228.4 228.4 0 0 0-10.4 1.6 88.4 88.4 0 0 0-1.6-.1 88.4 88.4 0 0 0-1 .2l-.5.3-.4.3-.2.1-.9.2v-.2l1.7-21.5c.9-11 1.6-22 2.1-33a310.2 310.2 0 0 1 3.4-34.3c.3-1.5.5-3 .6-4.7.4-10.1 1.4-20.2 3-30.3 1.3-8 2.4-16 3.5-24 1.3-10.5 2.3-21 3-31.6.6-11 1.7-22.1 3.3-33.2a241.7 241.7 0 0 1 8.6-38c2.8-8 6.9-15.3 12-21.9a14 14 0 0 1 4.4-3.7c7.5-4 15.2-7.5 23.1-10.7a69 69 0 0 0 21.4-1.1c2.6-.6 5.2-1 7.8-1l29-1c5.4 0 10.6.3 15.9 1 10.8 1.7 21.6 2.7 32.6 3.2 5.4.2 10.6 1.2 15.7 3 6.4 2.4 12.9 5 19.2 8 4.8 2.2 9.5 4.8 14 7.5 4.2 2.6 8.6 4.7 13.3 6.2a21.6 21.6 0 0 1 14 13.2Zm-7.4 318c.5 5.7 1.2 11.3 2 17 .8 5 1 10 1 15a45.8 45.8 0 0 1-11.2 29l.4-.4.3-.4a58.3 58.3 0 0 1-4.3 4.9 22.9 22.9 0 0 1-5.3 4.2c-6.8 3.9-14 7-21.6 9.1-6.8 2-13.7 3.9-20.6 5.5a273 273 0 0 1-32.4 5.8 113.9 113.9 0 0 1-31.4-.7l-15.3-2.8c-10.8-1.9-21.5-4.5-32-7.9a36.7 36.7 0 0 1-23-20.3 71.3 71.3 0 0 1-6.4-32.6l.6-15.9c.5-10.7.4-21.4-.3-32-.7-12-2.3-23.8-4.8-35.6-.7-3-1.2-6.2-1.5-9.4a7.7 7.7 0 0 0-1.8-4.4 80.4 80.4 0 0 0 11.3-7.1 56 56 0 0 0 16.7-21.8c3.4 4.2 7.3 8 11.6 11.6 6.8 5.5 14.1 10.1 22.1 13.8 4.1 1.9 8.4 3.1 12.8 3.8a135.4 135.4 0 0 0 27.1 1.5c8.7.4 17.3-.3 25.7-2.1a54.4 54.4 0 0 0 23.6-11.4 227 227 0 0 0 18.6-17c1.4-1.4 2.8-3 4-4.7l3.7 8.2a45.6 45.6 0 0 0 19.6 21.5l5.5 3a6 6 0 0 0 .6 3.2v1.2c.5 5.7 1.1 11.3 1.9 16.9a182.4 182.4 0 0 1 1.6 26.4c.1 8.3.5 16.6 1.3 24.9ZM442.6 52.4c5 1 10 2 15 2.5 6.6.9 12.9 2.8 18.8 5.8 7.9 4.1 13.4 10.4 16.5 18.9 3 8.2 4.8 16.7 5.4 25.5.3 4.4.4 8.7.3 13-.1 4.5 0 8.9.4 13.2a14 14 0 0 0-1.3 2.5c-.4 1-.3 2 .5 3a8 8 0 0 0 2 1.6 11 11 0 0 0 1.1 1 4 4 0 0 0 2 .4c1.5 0 2.6-.7 3.3-2a5 5 0 0 0 .6-3l.5.1h1.3l.6.8.6.7c.6 3.3 1 6.6 1.3 10a348.1 348.1 0 0 1 1 38c-.5 5.9-3.5 9.3-9.3 10.3l-1.6-2.4c-1.5-2.4-3.5-3-6-1.7-1 .7-1.7 1.4-1.9 2.4l-.4 1.7c-.3 9-1.1 17.8-2.4 26.7a110.1 110.1 0 0 1-7.3 26l-.3.8a48.9 48.9 0 0 1-9.1 15l-1.4 1.7-2.6 2.6-10.3 9.6a61.5 61.5 0 0 1-41.6 16c-8.7 0-17.5-.2-26.2-.4-9-.2-17.3-2.6-25-7.2a95 95 0 0 1-23.8-20.1 244 244 0 0 1-10.7-15.6 44.6 44.6 0 0 1-7.5-20.5c-1-8.6-1.4-17.3-1.1-26 .1-3.1 0-6.1-.6-9.1l.4-1.9c.1-.9-.1-1.6-.8-2.1-3.4-2.8-5.8-2-7.3 2.2l-.4.3a9 9 0 0 0-.5.6 8.8 8.8 0 0 0-.9.9h-.6l-1.3-.4c-.5 0-1-.2-1.4-.3a10 10 0 0 1-1.3-.8l-1-1c-.4-.4-.7-.9-.9-1.4a86.2 86.2 0 0 1-2.4-27.6l.1-4.4c.2-9.6 2.5-18.6 7.1-26.9h1.2l1.5.2 1 .5c0 .6.1 1.2.3 1.7 1 1.8 2.3 2.5 4.3 2l.6-.1c.5 0 1-.2 1.7-.4s1.2-.7 1.3-1.5c1-5.7 1.3-11.6.9-17.7-.6-8.9-.6-17.7 0-26.6A30.4 30.4 0 0 1 343.2 65l12.6-5.7a157 157 0 0 1 26.8-9c8.7-2 17.4-2.7 26.3-2l27 2.8 2 .2h.1l4.6 1Zm-84.4 536.3c10.3-1.6 20.5-2.9 30.8-3.8 9.9-.8 19.6-.9 29.1-.2a363.7 363.7 0 0 1 51.9 7.5c10.7 2.2 21.4 4.6 32 7 8 1.9 15.8 4.1 23.5 6.6 10.3 3.5 20.8 5.7 31.5 6.8 1 0 2.2 0 3.4-.2a147 147 0 0 0 34.8-9c4.2-1.5 8-3.8 11-6.9.3 3 .7 6 1.3 9 2.1 10.8 4.5 21.7 7 32.5a81.8 81.8 0 0 0 13 29.2c5.5 7.9 11 15.8 16.1 23.8 3 4.5 5.1 9.4 6.5 14.6a143.2 143.2 0 0 0 9.8 26.4l6.9 14.8a139.2 139.2 0 0 1 10 33.5 4.3 4.3 0 0 0-.9 2.1v1.1l.4 1.5a536.6 536.6 0 0 0 1.8 5.6 4160.4 4160.4 0 0 0 1.1 32.6c-2.4 1-4.6 2.2-6.7 3.8a1778.5 1778.5 0 0 1-25.6 19 243 243 0 0 1-20.3 13c-7.6 4.3-15.2 8.4-23 12.4a338 338 0 0 1-60.9 24.5c-10.3 3-20.7 6-31.1 8.8-10.9 3-22 5.5-33 7.2a969.7 969.7 0 0 0-40 7c-8.2 1.2-16.5 2.1-24.7 2.8-11.9 1-23.7 1-35.6 0a356.5 356.5 0 0 1-42.8-5.6 467.5 467.5 0 0 1-82.2-20.9 1980 1980 0 0 1-30.4-10.9c-7.5-2.7-14.7-6-21.7-9.8-9.3-5-18.7-10-28.2-14.6s-18.9-9.4-28.3-14.2a178.6 178.6 0 0 1-35-23.9c-.7-.6-1.5-.8-2.3-.8a18 18 0 0 1 .8-10.2 1994 1994 0 0 1 14.5-38l11.7-26.5a521 521 0 0 1 7.4-16.5 305.3 305.3 0 0 0 12.8-31.4 58.5 58.5 0 0 1 5.2-8.1 87.2 87.2 0 0 0 5-7.1l2.9-3 2.3-2.5-.4-.7.9-1.2c1.9-2.4 3.6-4.9 5.2-7.5 1.8-2.9 3.7-5.6 5.8-8.3l-.2.3a138.5 138.5 0 0 0 23.7-44.6c1.2-4 2.7-7.7 4.4-11.3a99 99 0 0 0 5-12.8A42.3 42.3 0 0 0 236 607a70 70 0 0 0 35.1 2.4 318 318 0 0 0 25.4-5.7L328 595c10-2.7 20-4.8 30.1-6.4ZM535 310.4c0 1.2.3 2.5.8 3.8 2.3 6.5 4.3 13 6.1 19.6l8.5 31.5c2.4 9.3 5.7 18.3 9.8 26.9 4.6 10 10.5 19.4 17.4 28 5.1 6.5 10 12.8 14.4 19l5.1 6.5a473 473 0 0 1 19.6 25.6 46 46 0 0 1 4.3 7.3c4.4 10 7.5 20.3 9.3 31 .8 5.6 1.1 11.2.8 16.7-.7 11-3 21.5-7 31.7-1.7 4.2-3.8 8-6.4 11.7a163 163 0 0 1-15.1 19 50 50 0 0 1-20.1 10.7L574 602a51.3 51.3 0 0 1-33.6-.2c-10.4-3.5-21-6.6-31.7-9.2l-31-7c-10-2.1-20-4-30.2-5.5h-.6a257.8 257.8 0 0 0-33.4-3.4c-11.6-.2-23 .4-34.5 1.6a418 418 0 0 0-65 12 1030 1030 0 0 0-30.1 8.3 88 88 0 0 1-31.1 3.6c-5.6-.6-11-1.8-16.4-3.8a35.2 35.2 0 0 1-21.3-21 143.6 143.6 0 0 1-2.3-99.2 361 361 0 0 1 9.4-23c2.2-5 5-9.6 8.2-14a479 479 0 0 0 13.3-19.2c6.7-10 13.6-19.6 20.9-29 1.3-1.7 2.4-3.5 3.4-5.4a106 106 0 0 0 9.3-24.1c2.6-10.4 4.1-20.9 4.6-31.5.4-8.1-.2-16.1-1.6-24 2.5-.4 5-1 7.4-1.5a76 76 0 0 0 13.8-4c-.1 1 0 2.2.3 3.4 3 11.1 5 22.4 6 33.8 1 10.3 1.3 20.7 1.2 31-.1 11.2-.2 22.2-.1 33.2 0 11.5 2.7 22.2 8.1 32 3.3 6.2 8 11 14 14.5 9.2 5.4 19 9.2 29.4 11.5 10.5 2.3 21.1 4.3 31.8 6h.2a221.5 221.5 0 0 0 12.5 1.4c3 .3 6 .4 9.1.3a149 149 0 0 0 31.8-3.8 845.7 845.7 0 0 0 44.1-11.8 46.4 46.4 0 0 0 25.2-18 62 62 0 0 0 10.4-19.3c1.5-4.5 2-9.1 1.6-13.9-1.2-11.7-2.2-23.4-3.2-35.2-.6-7.8-.9-15.6-.7-23.4.1-5-.2-10-.8-14.9l-3.1-26.4c4.6 2.4 9.2 4.6 13.9 6.7l1.7.8ZM655 721.2l.1.2.1.2-.2-.4ZM335.1 916.1h.3H335.1Zm107.1-683.5c-1.8-1.7-3.7-1.8-5.7-.3l-3.4 1.2a72.3 72.3 0 0 1-20.4 5.2c-3.5.4-7 .3-10.6-.2l-.7-.1c-.5 0-1-.2-1.4-.3a451.7 451.7 0 0 1-6.2-.6 8.4 8.4 0 0 1-.5 0h.2l-1.4-.3a154.2 154.2 0 0 1-8.7-2.4c-.7-.7-1.5-1-2.5-1.1-2 0-3.4.8-4 2.7-.5 1.3-.3 2.5.6 3.6a9.1 9.1 0 0 0 4.8 3 124.5 124.5 0 0 0 10.2 2.3h.6l2.3.4 1.7.1h.2-.2a102 102 0 0 1 7.8 1c1.9.2 3.8.2 5.7 0 3.4-.2 7-.6 10.3-1.2h.4-.2l.1-.1h.2-.1a47.5 47.5 0 0 0 10.4-3l.2-.1a48 48 0 0 1 7.4-2.5c2.3-.6 3.6-2 4-4.3.1-1.2-.2-2.2-1-3ZM400.6 118a14.2 14.2 0 0 0-5.9-6 45 45 0 0 0-4.8-2.3 32.5 32.5 0 0 0-16.5-2.5c-3.5.3-6.8 1.5-9.8 3.5-1 .7-2.2 1.4-3.4 1.9a13 13 0 0 0-3.6 2.4 64.7 64.7 0 0 1-8.3 6.4c-.7.5-1.4 1-2 1.7a15.9 15.9 0 0 1-4.1 3 3 3 0 0 0-1.7 2c-.7 2.5.2 4.2 2.6 5.2h.4c2.4 0 4.4-1 6.1-2.6l2.4-2a94.9 94.9 0 0 0 9.3-7.2l7.9-4.9c1.5-.9 3.2-1.3 5-1.4 2.7 0 5.4.1 8.1.6 4.2.8 8 2.6 11.2 5.4.5 1 1.3 1.5 2.4 1.7 2.3.6 3.9-.3 4.8-2.5.4-.8.3-1.6-.1-2.4Zm29.3-8.7a1284 1284 0 0 0-9.3 5.3c-1.4.8-2.3 2-2.6 3.4-.4 1.3-.1 2.4.8 3.3 1.6 1.7 3.4 2 5.4.5l1.1-.7 9.3-5.2c3.1-1.7 6.4-2.4 9.9-2.3a38.2 38.2 0 0 1 15.9 4.3c3.2 1.6 6.1 3.5 9 5.7l.3.3a17.9 17.9 0 0 0 1.5 1.2 4 4 0 0 0 4.1 1.2 3 3 0 0 0 2.2-1.5c1.3-2.3.9-4.2-1.3-5.9l-3.7-2.9a51.2 51.2 0 0 0-13.8-7.6 51 51 0 0 0-10-2.4h-.4a5 5 0 0 1-.4-.1h-.3.1a21 21 0 0 0-8-.1 33 33 0 0 0-9.8 3.5Zm73.7 56c.4-3.7-.9-6.8-3.8-9.2l-2.3-1.5c-3.5-1.9-7.2-2-10.8-.3a5 5 0 0 0-3.3 4.4 3 3 0 0 0 1 2.7c2 1.8 4 1.8 6 0h.3l.5-.2.4-.1 1 .2 1.6.6c.6.3 1 .7 1.4 1.2l.1.7c.1 1.5-.4 2.8-1.6 3.9-.8.8-1.8 1.3-2.9 1.5H490.2h.5-.6l-2.4-.4a4 4 0 0 0-3.6 1c-1.9 1.6-2.1 3.4-.7 5.4.2.4.5.6.9.7a18.1 18.1 0 0 0 6.6 1.3c2.4 0 4.6-.8 6.7-2.2 3.4-2.3 5.4-5.5 5.9-9.7Zm-173.7-13.4-1-.8a9.2 9.2 0 0 0-8.4.6 13.2 13.2 0 0 0-6.4 8 10 10 0 0 0 3.4 11c2.7 1.8 5.7 2.8 9 3a27.5 27.5 0 0 0 5.2-.3c2-.4 3.3-1.6 3.8-3.6.3-1 .1-2-.5-2.8-1.6-2-3.7-2.4-6.1-1.3h-.8a13.3 13.3 0 0 1-5.5-1l-.4-.6-.4-.6-.3-.5c.1-1.6.8-2.8 2-3.7.8-.6 1.6-.9 2.6-.9s2-.3 3-1c1.8-1.6 2.1-3.4.8-5.5Zm79.3 25c-1 0-1.8.3-2.5 1-2.2 2-4.1 4.4-5.8 7a9 9 0 0 0-.1 10c.4.8 1 1.4 1.8 1.9a16.8 16.8 0 0 0 11.7 3c.6-.2 1.3-.2 1.9 0 2.3.2 4-.6 5-2.6a3 3 0 0 0 .3-2.3c-.7-2.5-2.4-3.6-5-3.2-3.1.5-6 .1-9-1l-.1-.1V190.2a65.4 65.4 0 0 1 4-6.2c.4-.1.8-.4 1.1-.8 1-1.1 1.2-2.4.7-3.8-.7-1.9-2-2.8-4-2.7Zm38.3-38.2a4 4 0 0 0-1 3.2c.3 2.6 1.8 4 4.4 4.2 1.2 0 2.3-.4 3.3-1.3a4.8 4.8 0 0 0 1.4-5.8c-.3-.8-.9-1.4-1.7-1.8-2.5-1-4.7-.6-6.4 1.5Zm-75.8-3.2a5.2 5.2 0 0 0-4 4.4c-.5 2.8.6 4.7 3.3 5.7.8.3 1.6.4 2.4.3 2.6-.4 4.3-2 5-4.6.3-1.2.1-2.4-.6-3.5-1.5-2.3-3.5-3-6.1-2.3Zm337.2 805h2c-.6.4-1.3.4-2 0ZM106 941v-.5h-8.4l1.8 2.2.7.5a8.4 8.4 0 0 0 1.7.6c2 0 3.5-.8 4.2-2.8Zm587-131.6Z"/><path fill="#CCC" d="M535.6 314.2c-.4-1.3-.7-2.6-.7-3.8a558.8 558.8 0 0 1-15.6-7.5l3.1 26.4c.6 5 .9 10 .8 14.9-.2 7.8 0 15.6.7 23.4 1 11.8 2 23.5 3.2 35.2.5 4.8 0 9.4-1.6 14a62 62 0 0 1-10.4 19.2 46.4 46.4 0 0 1-25.2 18 727.3 727.3 0 0 1-44.1 11.8 148.9 148.9 0 0 1-50.3 2.7l-3.1-.5h-.3a582.5 582.5 0 0 1-31.7-6.1 101.5 101.5 0 0 1-29.4-11.5c-6-3.5-10.7-8.3-14-14.4a65.7 65.7 0 0 1-8.1-32l.1-33.2c.1-10.4-.3-20.8-1.1-31.1-1-11.4-3-22.7-6.1-33.8a9.8 9.8 0 0 1-.4-3.5 76 76 0 0 1-13.8 4.1c-2.4.6-4.8 1-7.3 1.5 1.4 7.9 2 15.9 1.6 24-.5 10.6-2 21.1-4.6 31.5a106 106 0 0 1-9.3 24.1 37 37 0 0 1-3.4 5.3 495.6 495.6 0 0 0-20.9 29c-4.3 6.6-8.7 13-13.3 19.2-3.2 4.5-6 9.2-8.2 14.2-3.4 7.6-6.6 15.3-9.4 23-4 10.8-6.5 22-7.4 33.5a148.6 148.6 0 0 0 9.8 65.7 35.2 35.2 0 0 0 21.3 20.9c5.2 2 10.7 3.2 16.3 3.8a88 88 0 0 0 31.1-3.6c10-2.9 20-5.7 30.2-8.3a418 418 0 0 1 99.3-13.6A193.2 193.2 0 0 1 447 580h.2l.3.1a483 483 0 0 1 30.3 5.5l30.9 7a347 347 0 0 1 31.7 9.2 51.3 51.3 0 0 0 33.6.2c2.8-1 5.6-1.8 8.4-2.6a50 50 0 0 0 21.4-12.2 24 24 0 0 1 2-2.3c4.4-5 8.3-10 11.9-15.2 2.5-3.6 4.6-7.5 6.3-11.7a104 104 0 0 0 7-31.7c.3-5.5 0-11-.9-16.6a126 126 0 0 0-9.3-31 46 46 0 0 0-4.1-7.4 474 474 0 0 0-24.8-32.2c-4.5-6.1-9.3-12.4-14.4-18.9-7-8.6-12.8-18-17.5-28-4-8.6-7.3-17.6-9.8-26.9l-8.4-31.5c-1.8-6.6-3.8-13.1-6.1-19.6ZM389 584.9c-10.3 1-20.5 2.2-30.8 3.8A273.7 273.7 0 0 0 328 595l-31.6 8.6c-8.4 2.3-16.9 4.2-25.4 5.7a69.9 69.9 0 0 1-35-2.4c-9.1-3-16.3-8.1-21.7-15.4a99 99 0 0 1-5 12.8 94 94 0 0 0-4.5 11.2c-3.4 10.3-7.9 20-13.6 29.2a303.3 303.3 0 0 1-10 15.5l.2-.3c-2.1 2.7-4 5.4-5.8 8.3a67.7 67.7 0 0 1-6.1 8.7l.4.7c-.7.9-1.5 1.7-2.3 2.4a32.7 32.7 0 0 0-2.9 3.2 87 87 0 0 1-5 7 58.5 58.5 0 0 0-5 7.6c-3.7 10.9-8 21.5-13 32a521 521 0 0 0-7.4 16.4l-11.7 26.4-2.8 7.1-11.8 31a18 18 0 0 0-.7 10.2c.8 0 1.6.2 2.4.8l1 1.3a41.7 41.7 0 0 0 5.8 4.7 178.5 178.5 0 0 0 28.1 17.8c9.4 5 18.8 9.7 28.3 14.3 9.5 4.7 19 9.5 28.2 14.6 7 3.8 14.2 7.1 21.7 9.8l30.3 11a447.8 447.8 0 0 0 63.4 17.3 777.6 777.6 0 0 0 31 5.6c10.6 1.7 20.9 2.9 30.7 3.6 11.9.9 23.7.8 35.6-.1a444.8 444.8 0 0 0 32-4c10.9-2.1 21.8-4 32.6-5.8 11.2-1.7 22.2-4.1 33.1-7.2a2072 2072 0 0 0 31.1-8.8 340 340 0 0 0 61-24.5c7.7-4 15.3-8.1 22.9-12.5 7-4 13.7-8.3 20.3-13a1023.2 1023.2 0 0 0 22.1-16.2l.2-.2 3.3-2.5c2.1-1.6 4.3-2.9 6.7-3.8l-.4-8.6-.7-24a557.3 557.3 0 0 1-2.2-7.1v-1.1l.1-.5c.2-.6.5-1.2.9-1.6v-1.4c-2.1-11.1-5.5-21.8-10.1-32.1l-6.9-14.8a141 141 0 0 1-9.8-26.4 49.7 49.7 0 0 0-6.5-14.6c-5.2-8-10.6-16-16.1-23.8a81.7 81.7 0 0 1-13-29.2 993.2 993.2 0 0 1-7-32.6c-.6-3-1-5.9-1.3-8.9-3 3.1-6.8 5.4-11 7a147 147 0 0 1-38.2 9.2c-10.7-1.2-21.2-3.4-31.5-6.9-7.8-2.5-15.6-4.7-23.5-6.6-10.6-2.4-21.3-4.8-32-7a513.1 513.1 0 0 0-23.3-4.2c-9.2-1.4-18.8-2.5-28.6-3.3a177 177 0 0 0-29.1.2Zm-53.4 331.2h-.4.4ZM655 721.4v-.2l.1.4-.1-.2Z"/><path fill="#fff" d="M457.6 55a153.1 153.1 0 0 1-19.6-3.6h-.1l-2-.2-27-2.7c-8.9-.8-17.6-.2-26.3 1.9a157 157 0 0 0-26.8 9l-12.6 5.7a30.4 30.4 0 0 0-18.3 24.4 187 187 0 0 0 0 26.6c.4 6 .1 12-.9 17.7-.1.8-.6 1.3-1.3 1.5a7 7 0 0 1-1.7.4l-.6.2c-2 .4-3.4-.3-4.3-2.1-.2-.5-.3-1-.3-1.7l-1-.5-1.5-.2h-1.2a56.7 56.7 0 0 0-7.2 31.3l-.1 2.5c-.4 8.5.4 16.9 2.5 25.1.2.5.5 1 .9 1.3a7.8 7.8 0 0 0 2.3 1.9 26 26 0 0 0 3.3.7l.3-.3.6-.6.6-.6.3-.3c1.5-4.2 4-5 7.3-2.2.7.5 1 1.2.8 2.1l-.4 1.9c.5 3 .7 6 .6 9-.3 8.8 0 17.5 1.1 26a44.6 44.6 0 0 0 7.5 20.6 243.4 243.4 0 0 0 14 19.4 95 95 0 0 0 20.6 16.3c7.6 4.6 16 7 24.9 7.2 8.7.2 17.5.4 26.2.4a61.5 61.5 0 0 0 41.7-16 560.4 560.4 0 0 0 12.8-12.2l1.4-1.7a64.4 64.4 0 0 0 9.1-15l.4-.8.7-2c3-7.8 5.2-15.8 6.4-24 1.4-8.9 2.2-17.8 2.6-26.7 0-.7 0-1.2.3-1.7.2-1 .8-1.7 2-2.4 2.4-1.3 4.4-.7 5.9 1.7l1.6 2.4c5.8-1 8.8-4.4 9.3-10.3a348.2 348.2 0 0 0-1-38c-.2-3.4-.7-6.7-1.4-10l-.5-.7-.6-.8h-1.8c.1 1-.1 2-.6 2.9-.7 1.3-1.8 2-3.3 2a4 4 0 0 1-2-.5l-.6-.5-.5-.4a8 8 0 0 1-2-1.7c-.8-.8-1-1.8-.5-3 .4-.8.8-1.7 1.3-2.4-.4-4.3-.5-8.7-.4-13.1.1-4.4 0-8.7-.3-13a91.6 91.6 0 0 0-5.4-25.6 33.2 33.2 0 0 0-16.6-18.9c-5.8-3-12-5-18.6-5.8Zm-90 84.8a5.2 5.2 0 0 1 4-4.4c2.6-.7 4.6 0 6.1 2.3.7 1 1 2.3.6 3.5a5.8 5.8 0 0 1-5 4.6c-.8.1-1.7 0-2.4-.3-2.7-1-3.8-2.9-3.3-5.7Zm78.8 2a4 4 0 0 1 1-3.2c1.8-2.1 3.9-2.6 6.4-1.5.8.4 1.4 1 1.7 1.8.9 2.3.4 4.2-1.4 5.8-1 1-2 1.3-3.4 1.3-2.5-.2-4-1.6-4.3-4.2Zm-39.8 36c.8-.7 1.6-1 2.5-1 2-.2 3.3.7 4 2.6.5 1.4.2 2.7-.7 3.8-.3.4-.7.7-1.1.9a29.5 29.5 0 0 0-4 6.1v.2l.1.2c3 1.1 5.9 1.5 9 1 2.6-.4 4.3.7 5 3.2a3 3 0 0 1-.3 2.3c-1 2-2.8 2.8-5 2.5h-1.9l-2 .1c-3.6 0-6.8-1-9.8-3a5.6 5.6 0 0 1-1.7-2 9 9 0 0 1 .2-9.9c1.6-2.6 3.5-5 5.8-7ZM328.8 151l1 .8c1.3 2.1 1 4-.9 5.5-.8.7-1.8 1-3 1-.9 0-1.7.3-2.5.9a4.6 4.6 0 0 0-2 3.7l.3.5.4.6.4.6 2.5.7 3 .3h.8c2.4-1.1 4.4-.7 6 1.3.7.8 1 1.7.6 2.8-.5 2-1.8 3.2-3.8 3.6l-1.9.2h-3.3c-3.3 0-6.3-1-9-3-.5-.3-1-.7-1.3-1.2a10 10 0 0 1-2.1-9.8c1-3.4 3.1-6 6.4-8a9.2 9.2 0 0 1 8.4-.5Zm171 5a9.9 9.9 0 0 1 3.7 9.2c-.5 4.2-2.4 7.4-6 9.7a12.7 12.7 0 0 1-10.5 1.8 18 18 0 0 1-2.7-.9c-.4 0-.7-.3-.9-.7-1.4-2-1.2-3.8.7-5.4a4 4 0 0 1 3.6-1l2.4.4h.3-.2H491.1c1.1-.2 2-.7 3-1.5 1.1-1 1.6-2.4 1.5-4l-.1-.6c-.3-.5-.8-1-1.4-1.2a17.5 17.5 0 0 0-2.6-.8 1 1 0 0 0-.4 0 3 3 0 0 0-.5.2l-.4.1c-2 1.8-4 1.8-5.8 0a3 3 0 0 1-1-2.7 5 5 0 0 1 3.2-4.4c3.6-1.7 7.3-1.6 10.8.3l2.4 1.5Zm-79.3-41.5 9.3-5.3a33 33 0 0 1 9.8-3.5c2.6-.5 5.3-.5 8 0h-.1.3l.4.1H448.5a51.1 51.1 0 0 1 27.6 13c2.2 1.7 2.6 3.6 1.3 5.9a3 3 0 0 1-2.1 1.5 4 4 0 0 1-4.2-1.2l-.7-.6a8.8 8.8 0 0 1-.5-.4l-.3-.2-.4-.3a53.5 53.5 0 0 0-14.8-8.2 38.3 38.3 0 0 0-10-1.8c-3.5-.1-6.8.6-9.9 2.3a816.5 816.5 0 0 1-10.4 6c-2 1.3-3.8 1.1-5.4-.6-1-1-1.2-2-.8-3.3a5.5 5.5 0 0 1 2.6-3.4Zm-25.9-2.6c2.6 1.4 4.6 3.4 5.9 6 .4.8.5 1.6.1 2.4-.9 2.2-2.5 3-4.9 2.5-1-.2-1.8-.8-2.3-1.7-3.3-2.8-7-4.6-11.2-5.4-2.7-.5-5.4-.7-8.1-.6-1.8 0-3.5.5-5 1.4a453.4 453.4 0 0 0-9 5.7 94.9 94.9 0 0 1-10.6 8.4 9.4 9.4 0 0 1-6 2.6h-.6c-2.3-1-3.2-2.7-2.5-5.2a3 3 0 0 1 1.7-2c1.5-.8 2.9-1.8 4.1-3l2-1.7c3-1.9 5.7-4 8.3-6.4 1-1 2.3-1.8 3.6-2.4a23 23 0 0 0 3.4-2c3-2 6.3-3 9.8-3.4h6.3c3.5.3 7 1.1 10.2 2.5 1.6.7 3.2 1.4 4.8 2.3Zm41.9 120.4c2-1.5 4-1.4 5.8.3.8.8 1.1 1.8 1 3-.4 2.3-1.7 3.7-4 4.3-2.6.6-5 1.5-7.4 2.5H431.6v.1h-.2l-.2.2H430.9a47.5 47.5 0 0 1-9.6 2.8h-.4c-3.4.7-6.8 1-10.3 1.3a39.8 39.8 0 0 1-9.3-.4 112.5 112.5 0 0 0-3.7-.5h-.5l-1.7-.2a29 29 0 0 1-3-.4h.1a7 7 0 0 1-.6 0c-3.2-.7-6.4-1.4-9.6-2.3a9.1 9.1 0 0 1-4.8-3c-.9-1-1.1-2.3-.6-3.6.6-1.9 2-2.8 4-2.7 1 0 1.8.4 2.5 1a146.6 146.6 0 0 0 10.5 2.7h-.1a97.8 97.8 0 0 0 6.1.7l1.6.3h.6c3.5.6 7 .7 10.6.3a72.4 72.4 0 0 0 20.4-5.2 40 40 0 0 1 3.4-1.2ZM518.3 388a289.3 289.3 0 0 1-3.3-42.3 180 180 0 0 0-1.6-26 356.2 356.2 0 0 1-2-18 6 6 0 0 1-.5-3.2l-5.5-3c-8.8-5-15.3-12.1-19.6-21.5a473 473 0 0 1-3.7-8.2 55.4 55.4 0 0 1-4 4.7c-5.8 6-12 11.6-18.6 17-7 5.7-14.8 9.5-23.6 11.4a98.8 98.8 0 0 1-26.5 2c-8.8.5-17.6 0-26.3-1.4-4.4-.7-8.7-2-12.8-3.8-8-3.7-15.3-8.3-22.1-13.8a82 82 0 0 1-11.6-11.6 56 56 0 0 1-28 28.9c1 1.2 1.6 2.6 1.8 4.4.3 3.2.8 6.3 1.5 9.4 2.5 11.8 4 23.6 4.8 35.5.7 10.7.8 21.4.3 32.1l-.6 16a71.3 71.3 0 0 0 6.4 32.5 36.7 36.7 0 0 0 23 20.3c10.5 3.4 21.2 6 32 8l15.3 2.7h.3c10.3 1.7 20.7 1.9 31.1.7 10.9-1.3 21.7-3.2 32.4-5.8 6.9-1.6 13.8-3.5 20.7-5.5a102 102 0 0 0 21.4-9c2-1.2 3.9-2.6 5.4-4.3 1.6-1.6 3-3.2 4.3-5a45.8 45.8 0 0 0 10.4-28c.2-5-.1-10.1-.9-15.2Zm-332-51.8h.3a85.5 85.5 0 0 0-31.2 25.7c-6.3 8.7-12 17.7-17.2 27a424 424 0 0 0-22 45.2c-2 4.8-4 9.7-5.7 14.7L100 479.7c-3.2 9.8-7.4 19.2-12.5 28.2-1.6 2.9-3 5.8-4 8.9a221 221 0 0 1-2.3 6.3l.1.5c-1.5 5.2-3 10.6-4.9 16.1a184.7 184.7 0 0 0-6.7 28c-.7 11-2.9 21.5-6.7 31.7a1812 1812 0 0 1-12 31.3c-2.5 6.5-5.3 12.9-8.4 19-4.5 9.4-8.1 19.1-10.8 29.1-2.6 9.7-4.6 19.4-6 29.3-1 6.6-2.1 13.2-3.5 19.7a258.2 258.2 0 0 0-5.5 42 682.6 682.6 0 0 0 1.5 67.8c.7 10.8.5 21.5-.6 32.2a594 594 0 0 0-2.3 32.7 680.4 680.4 0 0 1-2.6 34.7c0 .2 0 .3-.2.5 0 .2 0 .3-.2.4 0 .2-.2.3-.3.4 0 .2-.2.3-.3.4l-.4.4-.4.3a6 6 0 0 1-.5.2l-.5.2h-.5v.1l88.1.4c-6-7.9-11.4-16-16.2-24.3-5.7-9.9-8-20.4-7.2-31.5.2-2.3.7-4.7 1.5-7A163 163 0 0 1 90 848.3c4.4-7.1 8.4-14.4 11.9-21.9-3.1-3.3-4-7.8-2.5-13.4a206 206 0 0 1 10.9-30.7c1.7-3.8 3.3-7.7 4.8-11.7a189.5 189.5 0 0 1 8.8-19.5c3.7-8.6 7.4-17.2 11.3-25.8a349.1 349.1 0 0 0 12.3-30.4l1.3-2.7a39.9 39.9 0 0 1 6.5-9 307 307 0 0 1 7.7-10c2.3-4 4.9-8 7.8-12a213 213 0 0 0 30.4-57.5c1.2-3.5 2.6-7 4-10.3 1.5-3.2 2.7-6.5 3.7-9.8v-.3l.3-.8c-4.1-8.3-7.2-17-9.2-26a138.9 138.9 0 0 1 0-60.3c2.3-10.3 5.2-20.5 8.8-30.5 3.5-10 8.2-19.2 14.1-28 3.9-5.6 7.8-11.1 12-16.6 2.5-3.4 5-6.8 7.3-10.4 6-9.4 12.5-18.5 19.3-27.3 1.2-1.6 2.2-3.4 2.8-5.4 3.7-11 6.6-22.4 8.6-33.9a90 90 0 0 0 .4-28.9v-.5l-.1-.5a115.7 115.7 0 0 1-.6-4.7l-.6.1c-10.9 2.1-21.6 4.8-32.2 8-10.2 3-20.3 6.3-30.4 9.5-7.9 2.6-15.5 5.6-23 9.1Zm390-7.4c-4.6-1.7-9.1-3.6-13.6-5.7l-17.6-8-.3.7a375 375 0 0 1 9.5 31.3c2.7 10.8 5.8 21.5 9.2 32.1 2.9 9 7.1 17.4 12.8 25a4279 4279 0 0 1 21.8 30.4 111.4 111.4 0 0 1 15.6 19.2 89.2 89.2 0 0 1 18.6 31.7c3.9 11.4 6 23 6.6 35a97.5 97.5 0 0 1-26.3 69.1c.7.7 1 1.6 1.1 2.7a550.7 550.7 0 0 0 8.9 45.1 78.2 78.2 0 0 0 13.8 28.8c6 8 11.6 16.4 16.6 25.1 1 1.9 2 3.8 2.8 5.8 2.8 7.6 5.4 15.1 7.9 22.7a86 86 0 0 0 6.7 15.3 116 116 0 0 1 13.7 40.5c.5 1.4.7 2.8.6 4.2l.1 3.5c.5.7.8 1.5.9 2.6v2a156.1 156.1 0 0 1 1.8 6.3 382 382 0 0 0 20.4 49l3.9 8c4.9 10.5 9.2 21.1 13.1 32 4 11 4.9 22.2 2.9 33.5l-1.1 2.7a15.4 15.4 0 0 1-3.3 5.1v.1a187 187 0 0 1-6.5 9.7 30.6 30.6 0 0 1-5.4 5.8v.4h75.1l.8-.9h-.1l-.4-.5-.3-.4c-.9-10.8-1-21.8-.3-32.8.2-3.5.3-7 .3-10.6 0-8 .1-16.1.5-24.2.6-10.8.9-21.6.8-32.5v-32.8a757.8 757.8 0 0 0-1.5-45.4 214.8 214.8 0 0 0-13.1-64 1458.7 1458.7 0 0 0-27-68.2 39 39 0 0 1-1-3h.1l-7.4-22.3a80.4 80.4 0 0 1-3.9-20.6l-.4-.6c-.2-.4-.3-.8-.3-1.3a2.3 2.3 0 0 1 0-1l.1-.4.1-.5.3-.4a208 208 0 0 0-3.8-33.3c-2-10.8-4.2-21.6-6.6-32.4a209.5 209.5 0 0 0-8.7-29 64.3 64.3 0 0 0-4-8.9c0-.2-.1-.5-.3-.7l.1.3a451.7 451.7 0 0 1-3.2-6.9l-1.9-3.3c-3.9-6.6-7.4-13.4-10.7-20.3-3.3-7-7-13.7-11.1-20.2-.8-1.2-1.4-2.5-1.9-3.9v-.9l-5-12a431.3 431.3 0 0 0-8.3-21v-.1a63 63 0 0 0-24.9-31.3c-9.1-5.7-19-10-29.6-12.7-1.6-.3-3-.8-4.5-1.5a832.4 832.4 0 0 1-33.1-11.3Z"/><path fill="#734800" d="M530.8 72.8a423 423 0 0 0-7.1-19.7c-2.6-6.6-7.3-11-14.2-13.2-4.6-1.5-9-3.6-13.1-6.2-4.6-2.7-9.3-5.3-14.1-7.6-6.3-2.9-12.8-5.5-19.3-7.9-5-1.8-10.3-2.8-15.6-3-11-.5-21.8-1.5-32.6-3.1a97.1 97.1 0 0 0-15.9-1l-29 .9c-2.6 0-5.2.4-7.8 1a69 69 0 0 1-21.4 1.1c-7.9 3.2-15.6 6.7-23.1 10.7a14 14 0 0 0-4.4 3.7 76.5 76.5 0 0 0-13.8 27.6c-3 10.6-5.3 21.4-6.8 32.3-1.6 11-2.7 22.1-3.4 33.2a474.7 474.7 0 0 1-6.4 55.6c-1.6 10-2.6 20.2-3 30.3l-.6 4.8c-1.8 11.3-3 22.8-3.4 34.3-.5 11-1.2 22-2.1 33L272 301h.9l.2-.1.4-.3c.2 0 .3-.2.5-.3l.5-.1a88.4 88.4 0 0 1 1.6-.1 88.4 88.4 0 0 1 .8.2l10.1-1.7a44 44 0 0 0 11.4-3.1 70.3 70.3 0 0 0 22.3-14.9 63.3 63.3 0 0 0 10.2-18.4 329 329 0 0 1-10-16.8c-1-2-1.8-4-2.1-6.2-1.8-8.7-2.7-17.4-2.8-26.2v-11.2c-1 .3-2 .4-3.1.3-8.7-1.1-13.6-6.1-14.8-15l-.7-6.7a128 128 0 0 1 1.9-37.8l1.1-4.7c1.1-5 3.5-9 7-12.5 1.4-1.4 3.1-2 5.1-2.1 1.7 0 3.2.1 4.5.5 0-4.8-.2-9.6-.4-14.4a225.3 225.3 0 0 1 .7-23.7c1.2-8.9 5.5-16 12.8-21.5a85.2 85.2 0 0 1 23.3-12 81.7 81.7 0 0 0 7-2.8 116 116 0 0 1 26.6-7.9 100 100 0 0 1 27.4-.7 3059.2 3059.2 0 0 0 24.7 2.8l1.5.2 4.5.8 2.1.5h.3c8.3 1.5 16.6 3.3 24.9 5.5 8.2 2.2 15 6.3 20 12.5 6 7.1 9.6 15.2 11.2 24.3a218.7 218.7 0 0 1 3.2 39.7h1.1c5.7.2 9.1 3.3 10.1 9 1.4 8.3 2 16.5 2 24.7 0 7.1.2 14.2.5 21.2a20.5 20.5 0 0 1-8.5 17.8c-3 2-6.2 3-9.8 2.9h-1.8a131.3 131.3 0 0 1-13.3 55.7l.8 1a461.4 461.4 0 0 1 6.5 14.5 260.9 260.9 0 0 0 4.5 6l.8 1.4a96.4 96.4 0 0 0 25.8 16.4 1265.6 1265.6 0 0 1 25.4 11.2l-3-31c-1-10.9-1.6-21.8-1.7-32.8l-.4-32.8a1527 1527 0 0 1-.3-32.6l.1-32.7c0-11-1.2-21.8-3.4-32.5-.7-3.3-1.6-6.5-2.9-9.6-3-7.7-5.2-15.7-6.5-23.9-.5-2.8-1.2-5.5-2-8.2Z"/><path fill="#333" d="m114.7 836.3.2.2a65.2 65.2 0 0 1-6.8-5c-1.4 3.2-2.9 6.2-4.5 9.1v1.9a220.4 220.4 0 0 0-1 32.5c.3 5.7.2 11.3-.3 17-1 10.8-1.8 21.7-2.3 32.6-.1 1.6-.7 2.8-1.6 3.7 2.3 3.5 4.7 6.9 7.2 10.2.4.6.6 1.3.5 2H699v-1.2c-2 0-3.1-1.3-3.5-3.8a403 403 0 0 0-2.9-32.3 164 164 0 0 0-5-24.5 201.7 201.7 0 0 1-8-46.7l-21.4 15a735.3 735.3 0 0 1-26.4 18c-4.1 2.8-8.5 5.3-13 7.5a2866 2866 0 0 1-28.8 14.2c-9.7 4.7-19.6 8.7-29.8 12-10.7 3.5-21.5 6.8-32.3 10-11 3.3-22 6-33.3 8-10.7 1.9-21.4 3.9-32 6a479 479 0 0 1-23.8 4.2 382.7 382.7 0 0 1-43.3 3.7c-2.6 0-5.2 0-7.9-.4-11-.3-21.8-1.3-32.6-3.1a2654 2654 0 0 0-32.4-5.1 286.7 286.7 0 0 1-32.2-6.8 623 623 0 0 1-30.7-9.2c-10.4-3.4-20.8-7-31-10.7-9.5-3.4-19.3-7.8-29.2-13a874 874 0 0 0-29-14.7c-9.8-4.8-19.6-9.8-29.3-14.9a220.9 220.9 0 0 1-26.5-16.4Z"/></g><defs><clipPath id="a"><path fill="#fff" d="M0 0h800v942H0z"/></clipPath></defs></svg>