<svg xmlns="http://www.w3.org/2000/svg" width="800" height="942" fill="none"><g clip-path="url(#a)"><path fill="#000" d="M616.9 961.1c.8-.3 1.4-.8 1.8-1.6l.3-.6h-11.4v.3c.4.7 1 1.3 1.7 1.8.8.3 1.6.5 2.5.5a41.4 41.4 0 0 1 3 0c.6 0 1.4-.1 2-.4Zm67.2 0 .7-.5.6-.6.5-.6-6.9-.1.5.7.5.6c.3.2.5.4.8.4l.8.4H683.3l.8-.4ZM182 956v.5c-.1.5 0 1 .2 1.4.2.5.4.9.8 1.3a4 4 0 0 0 2.1 1 4 4 0 0 0 2.3-.4c1-1.2 1.7-2.4 2.4-3.7H182Zm361.5-625.4a4.7 4.7 0 0 0-.2 0h.2Zm-21.7-182.2c.7-10.1.3-20.2-1-30.3A276.6 276.6 0 0 0 515 88c-2.5-9.8-5.3-19.5-8.4-29.1-.5-3.3-1.2-6.6-2-9.9A37.4 37.4 0 0 0 488 27l-3-2.2a119.5 119.5 0 0 0-24-14.3c-8.7-3.9-17.9-5.9-27.4-6l-15.5.1a32.8 32.8 0 0 1-11.4-2.1c-1.5-.2-3-.6-4.5-1a42.2 42.2 0 0 0-24.2.4c-1.6 0-3-.2-4.5-.9a6.6 6.6 0 0 0-4.3-.4A75.8 75.8 0 0 1 353.4 3c-2 .1-3.9 0-5.7-.4-5.4-1-10.5-.6-15.3 1.3a241 241 0 0 0-21.4 9.6 9 9 0 0 0-3 2.4 66.7 66.7 0 0 0-13.7 27.7c-2.3 10.1-4 20.3-5.2 30.6a543.7 543.7 0 0 1-4.3 31.1 440.2 440.2 0 0 0-5.9 62.1c-.4 10.4-1 20.8-1.8 31.2-.9 10.3-1.3 20.6-1.3 30.9 0 10.5-.5 20.9-1.5 31.3-1.1 10.2-2 20.5-2.6 30.8-.6 9.3-.4 18.7.6 28a151.2 151.2 0 0 0-40.7 13.8l-7 3.4a82.6 82.6 0 0 0-29.1 24.8 135 135 0 0 0-18.1 33.9 165 165 0 0 0-8.8 37.4c-1 8.6-1.8 17.3-2.4 26-1 11.8-1 23.5-.4 35.2-2 9.8-4.1 19.5-6.6 29.3a236.7 236.7 0 0 0-6.4 38.3c-1 13-1.7 25.9-1.8 38.9 0 3.3-.3 6.7-.6 10a243.8 243.8 0 0 1-7.3 38.1c-3.4 12.4-6.8 24.8-10.4 37.1a356.3 356.3 0 0 0-8.8 37.6c-2.3 12.5-4 25.2-5.3 37.9-1.3 13-2.2 26-2.9 39-.6 12.9-1 25.7-1.4 38.6a949.2 949.2 0 0 0 1.4 77.3 670.2 670.2 0 0 1 1.5 39.5l.2.6.4.5c0 .2.2.3.3.5l.5.4a220.3 220.3 0 0 1 1 .4 4.5 4.5 0 0 0 1.2.3l.6-.1.6-.1.5-.3.6-.3.4-.4a5.2 5.2 0 0 0 .7-.9l.2-.5c.4-9.7.2-19.4-.5-29.2a897.3 897.3 0 0 1-1-114.6l2.2-38a291.2 291.2 0 0 1 7.5-56.5c3-13 6.3-25.8 10-38.5l10-36a161 161 0 0 0 5.9-37l1.4-37.5a197 197 0 0 1 6-39.5c2.4-9.8 4.6-19.7 6.4-29.6l.4-.4.2-.4.3-.5.1-.5.1-.5v-.4l-.3-1.8c0-.8.2-1.4.3-2.1a10 10 0 0 0-.7-1.6v-1.5c.5-14.3 1.2-28.6 2-42.8.7-13.5 2.9-26.8 6.5-39.8 3.5-12.8 8.9-24.7 16-35.8a61 61 0 0 1 10.5-12.4c6.7-6 14-11.3 22-15.8a151.1 151.1 0 0 1 32.6-14c3-.9 6-1.3 9-1.4 5.2 0 10.4-.3 15.7-.6a28.8 28.8 0 0 0-4 11.1c-1.5 9.8-3.2 19.4-5 29.1-2.4 12.5-5.9 24.7-10.6 36.6-1.2 2.9-2.3 5.8-3.3 8.8-2.4 7.5-5.2 14.5-8.4 21a732 732 0 0 0-9.7 20.7c-3 10.3-6.3 20.5-9.7 30.6-5 15.4-7.8 31.2-8.2 47.3-.4 15 4.3 27.9 14.3 38.7 3.3 3.6 7 6.8 10.8 9.6l-.4.3-.3.4-.3.4-.2.4-.5 4.5-.3.1c-.2.1-.3.3-.5.3l-.4.5-.4.5c-3 10.5-6.2 21-9.6 31.4-4 12.2-7.8 24.5-11.5 36.9l-2.1 6a107.4 107.4 0 0 0-7.3 35.5 556.6 556.6 0 0 1-4.1 52.7 221.7 221.7 0 0 1-6.4 33 691.8 691.8 0 0 1-11.3 37.2 699.6 699.6 0 0 0-20 74.8 72 72 0 0 1-2.6 9.7 52.9 52.9 0 0 0-1.2 30.4 86.9 86.9 0 0 0 8.1 20v.5l7.8.1a39 39 0 0 0 4.4-13.1c3.1-20.7 6.8-41.3 11-61.8a536.6 536.6 0 0 1 31.6-102l6.4 2c16.6 6 33.6 10.6 50.9 13.9 5 .9 10 2.1 14.7 3.7a159.4 159.4 0 0 0 64 7.6c21.3-2 42.5-3.9 63.8-5.5 11-.8 21.9-2.1 32.7-4 20-3.6 40-6.9 60-10 13.4-2 25.1-7.4 35.1-15.9a736.3 736.3 0 0 1 33.5 122.4 3103.7 3103.7 0 0 1 10.7 61l.1.3c-.6.5-1 1.1-1.2 1.9-.2.7-.1 1.4.2 2.1l11.4.1c.2-.6.3-1.2.2-1.8 0-.6-.2-1-.5-1.5l.5-.2.4-.2.4-.3.7-.7.4-.9.3-.9.1-.9a133 133 0 0 1 8.4-14.4 18 18 0 0 0 3-12.8 210 210 0 0 0-7-32.1c-6.2-19.9-12.7-39.3-19.5-58.1-7-19.2-13.3-38.6-18.8-58.3a167 167 0 0 1-3.6-15.5 353.1 353.1 0 0 1-6.2-59.2c-.3-10.9-1-21.8-2.3-32.6a236.7 236.7 0 0 0-14.1-57.6l-.1-.5-.3-.5a6.7 6.7 0 0 1-.4-1l-.2-.6v-.6l-.1-.5-.1-.6-.2-.6-.7-.9a6.7 6.7 0 0 0-2-1.7 141.5 141.5 0 0 0 .7-23l-.2-.5-.3-.4-.3-.4-.4-.3-.4-.3-.4-.1-.5-.3h-1.3a74 74 0 0 0 8.6-10.7c2.6-3.8 4.9-7.8 6.9-12 6.8-14.1 9.1-29 7-44.8a140 140 0 0 0-14.3-45.8c-7.7-14.9-15.2-30-22.4-45a305.1 305.1 0 0 1-19.2-51 204 204 0 0 1-7.1-44.2l.8.3c2.3 1.5 4.8 2.3 7.7 2.4 3 .1 6 .4 8.8 1 2.7.6 5.5 1 8.3 1.3a269 269 0 0 0 8.1 2 121 121 0 0 1 44.6 20.8c5.4 4 10.5 8.2 15.5 12.7a46.7 46.7 0 0 1 13.7 22.9c3.5 13.2 5.9 26.8 7.1 40.6l5.2 59.7v3.2l.3 4.3c.2 1.3.5 2.5 1 3.8.2 3 .8 6.1 1.8 9.1 6.2 19.3 9 39 8.3 59.2-.8 20.4.9 40.5 5 60.4 4.1 19.8 9.2 39.3 15.4 58.6 6.1 19.2 9.5 38.9 10.1 59 .3 10.5.3 20.8 0 31.2-.6 20-.4 40.1.8 60.1 1.2 20.2 1.5 40.4 1.1 60.5a667.8 667.8 0 0 0 1.5 60.8c0 .3 0 .5.2.8h6.9c.4-5 .4-10 0-15.2-.4-6-.6-11.9-.7-17.8-.2-22.3-.6-44.7-1.2-67-.6-21-.7-42-.1-62.8.5-22.3-.4-44.5-2.6-66.7-2-19.9-6-39.4-12.2-58.5a526 526 0 0 1-8.9-30.3c-5.2-20-7.4-40.7-6.8-62.2.6-20-1.4-39.7-5.8-59.1l-2.9-13.3c-3.7-17.7-6-35.6-7-53.8-1-14.6-2.2-29.1-3.9-43.7a89.5 89.5 0 0 0-46.8-69c-4-3.4-8.5-6-13.5-7.6-6.3-2-12.5-4.2-18.7-6.3a83.4 83.4 0 0 0-18.5-4.4 71.7 71.7 0 0 0-12.7-2.3c.3-5.6.6-11.1 1.1-16.6.8-10.3.9-20.5.3-30.8a717.3 717.3 0 0 0-2.9-34.5c-.9-10.2-1.2-20.3-1-30.6.2-10.4.1-20.8-.1-31.3-.2-9 0-18 .7-27Zm-7.7-4.7c-.5 5-.7 10.1-.6 15.1.3 10.2.4 20.4.3 30.5-.1 10.4-.2 20.9 0 31.3 0 10 .6 20 1.7 29.9 1.2 10.6 2 21.3 2.3 32a197 197 0 0 1-1.7 33.8v1.1c-6.7-2.3-13.4-4.8-20-7.6l-12.8-5.1a34.9 34.9 0 0 1-21-22.2 159.7 159.7 0 0 1-4.3-41.9c3.3-4.6 6-9.5 8.2-14.8l.6-1.6v-.1a846.6 846.6 0 0 0 6-15.6 91.6 91.6 0 0 0 7.2-34.9l1.4.4c.8.2 1.7.3 2.6.3 6.3-.2 10.3-3.5 11.9-9.8.9-3.7 1.6-7.4 2-11.2a240 240 0 0 0 1.4-24.5c0-5.6-1.4-10.7-4.4-15.3-.7-.9-1.5-1.6-2.4-2.1a16.5 16.5 0 0 0-10.1-1.8v-1l-.7-6.5c-.4-2.9-.5-5.7-.2-8.5a50.8 50.8 0 0 0-3-23.6c-1-2.4-1.8-4.9-2.5-7.4-1.7-6-5-10.9-10-14.7-5-3.7-10.6-6-16.8-6.7l-1.7-.3a334.4 334.4 0 0 1-16-3.8 67.4 67.4 0 0 0-26.3-2.7c-7.8.8-15.8 1.5-24 2.1-7.2.6-14.2 1.9-21 3.9-4 1-7.7 2.3-11.4 3.5a68 68 0 0 0-22 12.6 11.5 11.5 0 0 0-3.4 4.6 62.5 62.5 0 0 0-4.4 18.1c-.8 8.6-1 17.2-1 25.9v.3c-.9-.3-1.9-.5-3-.6a4 4 0 0 0-2.1.4 14 14 0 0 0-8.1 12.3v.2l-.2.8a127 127 0 0 0-1.3 38.1l.2 1.5.2 1.8a14.1 14.1 0 0 0 14 13l.2.8a62.7 62.7 0 0 0 4.4 38.5c1.3 3.3 2.9 6.4 4.7 9.4 4.3 7.1 8.8 14.1 13.6 20.9 1.3 1.9 2.8 3.6 4.3 5.3.4 7.5.4 15 0 22.7a57.2 57.2 0 0 1-6.5 23.4l-.1.3c-.9 1.1-2 2.2-3.1 3.1l-2.3 2.2c-2 .5-4 1.4-5.8 2.5-5.4 3.3-10.9 6.3-16.6 8.8l-17.2 8.1-1 .1a13 13 0 0 0-2.7.6 107.7 107.7 0 0 0-9.7-.6c-.9-8.9-1-17.7-.5-26.6.6-11.2 1.6-22.3 2.8-33.4 1.1-10.7 1.7-21.4 1.6-32.2 0-7.7.2-15.4.7-23.1.8-10.6 1.3-21.2 1.7-31.8.3-9.8.8-19.7 1.6-29.4.8-10 2-19.8 3.6-29.5 1.7-10 3.1-20.1 4.3-30.2 1.1-10 2.6-19.9 4.5-29.8a95.6 95.6 0 0 1 10.1-28.8c.5-.8 1.1-1.4 1.9-2a117 117 0 0 1 26-12.6l4.6.5A63.2 63.2 0 0 0 370 7.8c1.5.6 3 1 4.6 1.4 1.2.3 2.4.2 3.5-.1 6-1.7 12.1-2 18.1-.9 4.5.9 8.8 1.9 13 3 1.8.5 3.6.8 5.5.7 8.5-.2 17.1 0 25.7.5l4.1.8a60.7 60.7 0 0 1 28.9 13.2c2.2 1.8 4.5 3.4 7 4.7 9.4 4.8 15.1 12.5 17.1 23 1.2 6 3 12 5.2 17.7a93 93 0 0 1 4.5 14.3c2.1 9.1 4 18.3 5.6 27.6 1.7 10 2.1 20 1.2 30.1Zm2.3 170v-.6.6ZM499 60v-.5.5Zm-60.3-13.3c2.2.6 4.4 1 6.6 1.3 8.2.8 15 4.3 20.5 10.4a38 38 0 0 1 2.5 5.8l2.3 6.6.7 2.3c2.3 6 3 12.4 2.3 19a22 22 0 0 0 0 4.9 70 70 0 0 1 .6 16c-1.6 1.7-1.7 3.4-.2 5.3.5.6 1 1 1.7 1.2.6.3 1.4.4 2.3.4a2 2 0 0 0 1.7-.9l.6-.9c2-.7 4-1.1 6.2-1.3l.4.2.4.1.3.2.4.2c.5.4.8.9 1.1 1.5 1.7 4 2.5 8 2.4 12.4l-.8 17.3c-.3 6-1.6 11.8-3.8 17.2-.1 0-.2 0-.2.2a3 3 0 0 0-.3.2l-.4.2-.4.2a2 2 0 0 0-.2.1h-.8a8.5 8.5 0 0 1-2.3-.4 44.3 44.3 0 0 1-1.7-1.3 2.7 2.7 0 0 0-1.4-.4 1 1 0 0 0-.3-.1h-.8c-.8 0-1.4.3-2 .8-.4.3-.7.7-.9 1.1l-.4.1c-.9.2-1.4.7-1.5 1.5-.8 3.8-1.4 7.6-1.7 11.6-.5 8.1-2.2 16-5 23.8l-.7 1.7v.1a215.4 215.4 0 0 0-5.8 15v.2l-.2.3a62.3 62.3 0 0 1-10.2 18 72.8 72.8 0 0 1-16.8 13.1 54.1 54.1 0 0 1-23.6 7.2c-7.3.6-14.7.5-22-.2-4-.4-7.9-1.2-11.6-2.4a94.3 94.3 0 0 1-13-5.3c-4-1.8-7.7-4.2-10.8-7a56 56 0 0 0-1-2.5c-.2 0-.4-.1-.5-.3-.1 0-.3 0-.4-.2a10 10 0 0 0-1.3-.1c-1.8-2-3.4-4-4.8-6.3l-5.3-8c-5-7.2-8.7-15-11.3-23.4a62.8 62.8 0 0 1-2.6-25.9 4.4 4.4 0 0 0 .4-5.9l-.2-1v-2.8c0-.7-.1-1.4-.3-2-.3-.7-.6-1.2-1-1.6a3 3 0 0 0-1.5-1c-.7-.2-1.4-.2-2-.1l-1 .3c-.6.3-1 .6-1.4 1l-1 1-.5-.2c-.8-.2-1.6-.5-2.3-.9a5 5 0 0 1-1.7-1.7l-.3-.8a78.6 78.6 0 0 1-2.3-21 126.1 126.1 0 0 1 2.6-21.9v-.4l.7-2.5c.3-1 .7-2 1.2-2.9l.3-.3.3-.3h.3l.4.1.4.1.4.1c.4.3.8.6 1 1 1.9 3.2 4.2 3.6 7 1.4.3-.3.5-.6.6-1 .5-.3.7-.7.7-1.2 0-8.5 0-17.1.5-25.8.3-7.8 1.6-15.4 4-22.9a48.6 48.6 0 0 1 12.1-8.9 96.7 96.7 0 0 1 14-5.8 113.3 113.3 0 0 1 25.6-5.4l25.5-2.3c2-.2 3.9-.1 5.9.1 8.6 1 17.1 2.5 25.6 4.8ZM336.5 307l2-1.6c2.6-2.6 4.8-5.4 6.5-8.6 4.6-8.6 7-17.9 7.4-27.8 0-2.6.3-5.2.7-7.8.2-2 .3-4.1.3-6.2 2 1.2 4 2.3 6.2 3.2l2 .8v.1c1.3.5 2.6 1.1 4 1.9a42.7 42.7 0 0 0 16.5 4.9l17.3 1.4a68.9 68.9 0 0 0 46.8-14.7c1.5-1 2.9-2.1 4.2-3.3 0 6.5.2 13 .7 19.4.5 7.1 2.3 13.8 5.2 20a28.6 28.6 0 0 0 11.7 14.9v.2l-.1.5a2.3 2.3 0 0 0 0 1c0 .7.3 1.4.8 2 1.2 1.6 2.3 3.3 3.2 5a79.7 79.7 0 0 1 8.8 40.8c-.6 5.4-.7 10.9-.4 16.4.5 9-.2 18.1-2.3 27-1 4.4-2.4 8.7-4.2 12.8a41.6 41.6 0 0 1-27 23.6 103 103 0 0 1-33.4 4.6c-13-.4-25.8-1.2-38.7-2.4a74 74 0 0 1-19.2-6.3c-8.3-4-14.8-10-19.5-17.9a88.4 88.4 0 0 1-10.6-64.8c3-13 6.6-25.8 10.8-38.4l-.2-.5.5-.2Zm-18 32.3a88 88 0 0 0-2.5 19c-.3 12.9 1.2 25.5 4.5 38a59.1 59.1 0 0 0 20.7 32 64.3 64.3 0 0 0 35 14.3c12.8 1.1 25.7 2 38.6 2.3 9.5 0 18.8-1 28-3a53.5 53.5 0 0 0 37-27.4 75.2 75.2 0 0 0 8.6-36l-.4-36.5-1.2-6.7a238 238 0 0 0-3.6-17.4l-2-5.8 5.5 2.9c6.4 3 13 5.5 19.8 7.7a207.7 207.7 0 0 0 10 58.2c5.2 15.9 11.4 31.4 18.7 46.6l21.8 45c5 10.5 8.7 21.4 11 32.7 3.5 18 1 35-7.5 51l-2.3 4.9a41.3 41.3 0 0 1-10 12.5c-4.6 4-9.5 7.8-14.5 11.3-5.5 1-11 1.9-16.6 2.4a64 64 0 0 1-28.3-3.4 266 266 0 0 0-28.3-8.5 11.3 11.3 0 0 0-1.3.7c-.2 0-.3.2-.4.3l-.3.3a6.7 6.7 0 0 0-.7 1.6l-.1.5v.7l.1.6.2.5.2.4.3.4a15 15 0 0 0 5.7 3c6.4 1.8 12.6 3.9 18.8 6.3 6.4 2.5 13 3.9 19.9 4h5.5c1.6 0 3.2-.3 4.8-.8 4.3.3 8.6.3 12.9 0 4.2-.2 8-1.3 11.6-3.3a74 74 0 0 0 13.2-9.4c0 9.3-.7 18.4-2.3 27.4v.1c-1 5.5-2.3 10.9-4 16.3a256.1 256.1 0 0 0-9.3 47.3 99.4 99.4 0 0 0 6.5 47.3 347 347 0 0 0 17.2 37 400.6 400.6 0 0 1 2.6 7.4c-1.3.6-2.4 1.5-3.4 2.5-2 1.8-4.1 3.3-6.4 4.6-2.5 1.4-5 2.7-7.6 3.9-5.7 1.1-11.4 2.3-17 3.6l-28.7 6.4c-19.3 4.2-38.8 7-58.5 8.4-20.9 1.5-41.7 3.3-62.5 5.4-16.4 1.7-32.4.5-48.2-3.5-7.7-2-15.3-3.5-23-4.8-7.2-1-14.2-2.8-21-5-14.5-4.5-29-8.6-43.5-12.3 2.3-4.5 4-9.5 5.2-14.8a135 135 0 0 1 5.8-19c6-15.7 10-31.8 12-48.4.7-5.4.8-10.8.3-16.1a652.8 652.8 0 0 0-6-45.5c-2.4-15-2.5-30-.2-45 7.6 4.4 16 7.2 25.3 8.5a203.1 203.1 0 0 0 36.8-1c9.2-1.2 18-3.5 26.4-7.1 0-.2.2-.3.3-.5l.2-.4.2-.4.2-.4v-.5l.1-.5v-1c-.2-.2-.2-.3-.2-.5l-.3-.5-.2-.4c-.2 0-.3-.2-.4-.3l-.4-.3-.4-.4a6 6 0 0 1-.4-.1 10.2 10.2 0 0 1-1-.3h-1c-9 3.2-18.2 5.3-27.6 6.4L303 586a68.8 68.8 0 0 1-46.5-12.5 49.4 49.4 0 0 1-12-11.6 45 45 0 0 1-8.2-25.1c-.7-16.6 1.4-33 6.4-49l4-12.6c5-15.2 11.3-30 18.8-44.1 5.1-13.7 10.1-27.5 15-41.4 1.6-4.8 2.8-9.6 3.7-14.6a458 458 0 0 1 10-45.8l.5-.2.4-.3.3-.4.2-.3.4-.9.1-.9v-.3c2-.5 4-1.3 6-2.2a3632.3 3632.3 0 0 0 25.3-12.7c-3.6 9.1-6.6 18.5-9 28.1Zm-72.7 288 4.4-13.4c.4 7 1.3 13.8 2.6 20.6v-.1V634.5l2.5 16a168 168 0 0 1 2 28.4c-.1 16-3 31.6-8.4 46.7a411.1 411.1 0 0 0-11.7 37.5 1 1 0 0 0-.3.1l-1 .5c-2 3.5-3.8 7.2-5.5 11a487.8 487.8 0 0 0-35 116c-3 18.1-6.5 36-10.4 54a5577.6 5577.6 0 0 0-3.6-9.2c-1.1-3-1.6-6-1.5-9.2.2-7.4 1.2-14.8 3-22.1A1000.5 1000.5 0 0 1 214 794.8c2-6.3 3.6-12.7 4.6-19.1a2648.6 2648.6 0 0 1 6.2-40c.6-8.7 1-17.5 1-26.2 0-9.3 1.2-18.5 3.5-27.5a880.2 880.2 0 0 1 16.5-54.7Zm310.6-8.1c4.2 12.5 7.6 25.3 10.2 38.3.7 3.5 1.1 7 1.4 10.6.9 13.7 2 27.4 3.1 41-.3 13.5.7 26.9 3.1 40.3a378 378 0 0 0 16 60.2c7 19.3 13.6 38.7 20 58.2a563.6 563.6 0 0 1 16 59.3c-.4 1-.7 1.8-1.2 2.5a271 271 0 0 0-10.3 18.2c-.7-5.9-1.6-11.8-2.6-17.8A1378.4 1378.4 0 0 0 585 808.5c-4.4-16-9.6-31.8-15.7-47.3V760a152 152 0 0 0-1.7-3.3l-1.8-4.4-.3-.4-.4-.4-.3-.2c-5-9.7-9.6-19.6-13.9-29.5a96.6 96.6 0 0 1-8-48c1.4-15.8 4.5-31.3 9.2-46.5a139 139 0 0 0 3-11.3l.7 1.3.6 1.8Zm4.4-63.8ZM381 572.1c-.7 2-.1 3.5 1.7 4.6.8.5 1.6.6 2.5.3 3.2-1 6.4-1.6 9.8-1.7h10c3.4.2 6.6.9 9.7 2.3a3 3 0 0 0 2 .4c2.5-.3 3.7-1.7 3.6-4.1 0-.6-.2-1.2-.6-1.6a12 12 0 0 0-6.4-3.4 75.6 75.6 0 0 0-19.8-1.1c-3.4.2-6.7.8-9.9 1.8a3.8 3.8 0 0 0-2.6 2.4Zm-51.5-439c.1-1.3-.3-2.4-1.2-3.3-.3-.3-.6-.5-1-.6-4.9-1.2-8.6.5-11.2 5-1.4 2.5-2 5-1.9 7.8.2 5.3 3.1 8 8.7 7.9h1.3c3.6.2 6.6-1 9-3.8.4-.7.6-1.4.3-2.3-1.7-3.9-4.3-4.4-7.9-1.5h-1.3a17.1 17.1 0 0 1-2.8-.2l.3-1.7c.2-.8.5-1.5 1-2.3.3-.6.8-1.1 1.4-1.6l.3-.2h.4c.7.3 1.5.2 2.2-.1a3.7 3.7 0 0 0 2.4-3Zm109-12.3c0-.8-.3-1.5-1-2-3.2-2.3-5.4-1.5-6.4 2.4 0 .6.2 1.2.5 1.7a3 3 0 0 0 2 2.7c3.1 1.2 4.9.2 5.4-3a2 2 0 0 0-.5-1.8Zm34.3 26.4c-.1 0-.2 0-.3.2-1.5.3-3 .5-4.6.5-1.7 0-2.7 1-3 2.7-.6 2.7.5 4.3 3.3 4.7 2.7.2 5.3-.2 7.7-1.3 2.4-1 4-2.8 4.8-5.3a14 14 0 0 0-2.7-13.5c-3-4-7-5.3-11.7-4-1 .2-1.6.9-1.8 1.9-.8 4 .8 5.6 4.9 5 1.3.6 2.3 1.4 3 2.6.9 1.4 1.5 3 1.8 4.6l-.1.2-.3.7-.2.4a29.2 29.2 0 0 1-.8.6Zm-95 55.8c-2.9-1.2-4.9-.4-6 2.4-.4 1-.2 2 .6 2.7a15.7 15.7 0 0 0 6.8 4l2 .8c3.2 1.3 6.4 2 9.7 2.4 3.2.4 6.5.7 9.7.8 1.2 0 2.4 0 3.6-.2 3.6-.4 7-1.2 10.4-2.5 3-1.2 6-2.6 9-4.3a5.4 5.4 0 0 0 3.3-2.4c1-1.6.8-3-.5-4.3a3.7 3.7 0 0 0-4.4-1 49.8 49.8 0 0 1-24.2 7.2 41.9 41.9 0 0 1-20-5.6Zm-9.6-77.7c1.8-.4 2.8-1.5 3-3.5.1-1.8-.6-3-2.3-3.8-1-1-2.3-1.3-3.7-.9-1.8.5-2.6 1.7-2.5 3.6 0 2.5 1.4 4 3.9 4.6.5.2 1 .2 1.6 0Zm33.6 32.7c1.3-3 .4-4.8-2.7-5.4-.7-.1-1.3 0-1.8.5a36.7 36.7 0 0 0-6 8.5c-.5 1-.7 2.1-.7 3.3.1 5.9 3.4 8.9 9.7 9 2 0 4-.1 6-.6 3.5-1 4.3-3 2.5-6-.3-.5-.7-.7-1.2-.7-3.3 0-6.5-.4-9.7-1 1.5-2.4 2.8-5 4-7.6Zm-37.3-63.5c-1.6.2-3.2.6-4.6 1.2-8 3.5-15.4 8-22.2 13.4-.4.3-.7.7-1 1.2-.4 1-.4 2.2 0 3.3a3.5 3.5 0 0 0 2.5 2c2 .2 3.9-.4 5.5-1.8 4-3.3 8.4-6.3 13-8.9a23.8 23.8 0 0 1 17.7-2.5l.3.1v.1c1.2.4 2.2.9 3 1.6l3.3 2 .4.5 1.6.8a4 4 0 0 0 2.2 0l1.4-.8c1.9-2.1 1.8-4-.4-5.9a28.2 28.2 0 0 0-22.7-6.3Zm81.2 8.5 1.5.8c-.3-.1 0 0 .5.4 1 .6 1.7 1.3 2.4 2.2l2.2 2.4c1.2 1.1 2.5 1.3 4 .6 2.4-1.2 3-3 1.5-5.3A21.7 21.7 0 0 0 452 98a55.4 55.4 0 0 0-8-4.5 33 33 0 0 0-35.4 5.9c-2.3 2-2.5 4.2-.7 6.5.6.8 1.4 1.1 2.4.9 2.3-.4 4.3-1.6 6.1-3.5 1.5-1.6 3.4-2.8 5.6-3.5a27.7 27.7 0 0 1 23.7 3.2Z"/><path fill="#333" d="m243 781.3-6.3-2a536.6 536.6 0 0 0-31.7 102c-4.1 20.5-7.8 41.1-10.9 61.8a39 39 0 0 1-4.4 13.1l410 2.6H607.6a3.6 3.6 0 0 1 1.1-4l-.1-.3c-.2-.2-.3-.5-.3-.9l-.1-.4c-3.3-19.9-6.7-39.8-10.3-59.7a772.8 772.8 0 0 0-33.5-122.4 69.3 69.3 0 0 1-35.2 15.9c-20 3.1-40 6.4-59.9 10-10.8 1.9-21.7 3.3-32.7 4a3167.3 3167.3 0 0 0-68 5.7 159.4 159.4 0 0 1-59.8-7.8 115 115 0 0 0-14.7-3.8 326.6 326.6 0 0 1-51-13.8Z"/><path fill="#fff" d="M262.3 329.1c-11.5 3.4-22.4 8-32.7 14-7.9 4.4-15.2 9.7-21.9 15.8a61 61 0 0 0-10.5 12.4c-7.1 11.1-12.5 23-16 35.8-3.6 13-5.8 26.3-6.5 39.8a2036.3 2036.3 0 0 0-2 44.4l.3.3.2.6.2.6-.3 2c0 .6.2 1.3.4 1.9v.4l-.2.5-.1.5-.3.4-.2.4-.3.5h-.1c-1.8 10-4 19.8-6.5 29.6a197 197 0 0 0-5.9 39.5l-1.4 37.5a161 161 0 0 1-5.9 37l-10 36c-3.7 12.7-7 25.6-10 38.5A291.2 291.2 0 0 0 125 774l-2.1 38c-.9 13.5-1.3 26.9-1.4 40.4a1073.5 1073.5 0 0 0 2.3 74.2c.7 9.8.9 19.5.5 29.1l57.5.4v-.5l.1-.2a87 87 0 0 1-8.2-19.8 52.9 52.9 0 0 1 1.2-30.4c1-3.1 1.9-6.4 2.5-9.7a700.5 700.5 0 0 1 20.1-74.8c4.1-12.3 7.9-24.7 11.3-37.2 3-10.8 5-21.9 6.4-33l1.5-14c1.3-12.8 2.2-25.7 2.6-38.7.4-12.2 2.8-24 7.3-35.4a1978.3 1978.3 0 0 1 13.7-43 1033.8 1033.8 0 0 0 9.9-31.9l.4-.5c.2 0 .3-.1.5-.3l.3-.1a102.6 102.6 0 0 0 .7-5l.3-.4.3-.4.4-.2c-3.9-2.8-7.5-6-10.8-9.6a52.8 52.8 0 0 1-14.3-38.7c.4-16.1 3.1-31.9 8.2-47.3 3.4-10.1 6.6-20.4 9.7-30.6 3.1-7 6.4-14 9.7-20.8 3.2-6.4 6-13.4 8.4-20.9 1-3 2-6 3.3-8.8 4.7-11.9 8.2-24 10.6-36.6 1.8-9.7 3.5-19.4 5-29 .5-4.2 1.9-7.9 4-11.3-5.3.4-10.5.6-15.7.8-3 0-6 .4-9 1.3Zm285.1 2.5a228 228 0 0 1-8-2c-2.9-.3-5.7-.7-8.4-1.3-2.9-.6-5.8-.9-8.8-1-2.9-.1-5.4-1-7.7-2.4h-.8c.8 15 3.1 29.6 7.1 44a305.1 305.1 0 0 0 19.2 50.9 1894 1894 0 0 0 22.4 45 140 140 0 0 1 14.3 45.8 76.7 76.7 0 0 1-7 44.8c-2 4.2-4.3 8.2-6.9 12a74 74 0 0 1-8.6 10.6h.8l.5.1.5.3.4.1.4.3.4.4.3.3.3.4.2.5.2.4c.3 7.6 0 15.2-1 22.6.4.1.6.3 1 .6l1.1 1.1a34.5 34.5 0 0 1 .9 1.5 125 125 0 0 1 .6 2.8l.2.5.3.5a88.4 88.4 0 0 1 .3 1.5c7 18.3 11.6 37.2 14 56.6 1.2 10.8 2 21.7 2.2 32.6.4 19.9 2.4 39.6 6.2 59.2 1 5.2 2.1 10.4 3.6 15.6 5.5 19.6 11.8 39 18.8 58.2 6.8 18.8 13.3 38.2 19.4 58.1 3.2 10.6 5.6 21.3 7.2 32.1a18 18 0 0 1-3 12.9c-3.2 4.6-6 9.4-8.5 14.3a275 275 0 0 1-.4 1.9l-.4.8a12.2 12.2 0 0 1-1 1l-.5.2-.5.2c.3.4.4 1 .5 1.5.1.6 0 1.2-.2 1.8h2l57.8.4v-.8l-.2-.8c-1.3-20-1.8-40-1.3-60 .4-20.1 0-40.3-1-60.5-1.3-20-1.5-40-.9-60.1.3-10.4.3-20.8 0-31.1-.6-20.2-4-40-10.1-59.1a583.8 583.8 0 0 1-15.4-58.6c-4.1-19.9-5.8-40-5-60.4.7-20.2-2-40-8.3-59.2-1-3-1.6-6-1.9-9.1l-1-3.9a37 37 0 0 1-.2-7.4 8764 8764 0 0 0-5.2-59.7 241.6 241.6 0 0 0-7-40.6c-2.5-9.1-7.1-16.8-13.8-23-5-4.4-10.1-8.7-15.5-12.6a121 121 0 0 0-44.6-20.8Zm-4.3-1 .3.1H543.1Zm-204.6-25.3a16.1 16.1 0 0 1-2.5 1.8l.2.5a412.2 412.2 0 0 0-10.8 38.4 88.4 88.4 0 0 0 10.6 64.8 45.2 45.2 0 0 0 19.5 17.9 74 74 0 0 0 19.2 6.3c12.9 1.2 25.8 2 38.7 2.4a103 103 0 0 0 33.3-4.6 41.6 41.6 0 0 0 27-23.7c1.9-4 3.3-8.3 4.3-12.7 2-8.9 2.8-18 2.3-27-.3-5.5-.2-11 .4-16.4a79.7 79.7 0 0 0-8.8-40.7c-1-1.8-2-3.5-3.2-5.2a4.3 4.3 0 0 1-.9-2.5v-.4l.2-.5v-.2l-2.4-1.9a28.6 28.6 0 0 1-9.3-13c-3-6.2-4.7-12.9-5.2-20-.5-6.4-.8-12.9-.7-19.4a122.5 122.5 0 0 1-15 10 65 65 0 0 1-36 8l-17.3-1.4a42.7 42.7 0 0 1-16.6-5c-1.3-.7-2.6-1.3-4-1.8l-1.9-.9c-2.2-.9-4.2-2-6.2-3.2 0 2 0 4.2-.3 6.2-.4 2.6-.6 5.2-.7 7.8a62.8 62.8 0 0 1-7.4 27.8c-1.7 3.2-3.9 6-6.5 8.6ZM445.3 48c-2.2-.2-4.4-.6-6.6-1.2-8.5-2.2-17-3.8-25.6-4.8-2-.2-4-.3-6-.1l-25.3 2.3a113.3 113.3 0 0 0-25.6 5.4l-2.2.7c-4.1 1.4-8.1 3.1-12 5.1a48.6 48.6 0 0 0-12 8.9 90.8 90.8 0 0 0-4 23c-.4 8.6-.6 17.2-.5 25.7 0 .5-.2 1-.7 1.3l-.6.9c-2.8 2.2-5.1 1.8-7-1.4-.2-.4-.6-.7-1-1l-.4-.1-.4-.1-.4-.1h-.3a2 2 0 0 0-.3.3l-.3.3a27.8 27.8 0 0 0-2 5.7V119c-1.5 7.2-2.3 14.5-2.5 21.8a78.6 78.6 0 0 0 2.6 21.7 5 5 0 0 0 1.7 1.7 9.7 9.7 0 0 0 2.8 1l1-.9c.4-.4.8-.8 1.4-1l1-.3c.6-.1 1.3 0 2 .2a3 3 0 0 1 1.5.9c.4.4.7 1 1 1.6.2.6.2 1.3.2 2a18.3 18.3 0 0 0 .3 3.8 4.3 4.3 0 0 1-.4 5.9c-1 8.8-.1 17.5 2.6 26a85.7 85.7 0 0 0 11.3 23.3l5.3 8c1.4 2.3 3 4.4 4.8 6.3h.9l.4.2.4.1c.1.2.3.2.4.3l.3.3.8 2.2a41.4 41.4 0 0 0 12.8 7.9c3.1 1.5 6.8 3 11 4.3 3.7 1.3 7.6 2.1 11.6 2.5 7.3.7 14.7.8 22 .3 8.4-.6 16.3-3 23.6-7.3 6.3-3.6 12-8 16.8-13.2a62.3 62.3 0 0 0 10.2-17.9l.1-.3a18.6 18.6 0 0 1 .5-1.2 158.7 158.7 0 0 1 5.4-14.2l.7-1.7a84.9 84.9 0 0 0 5-23.7c.3-4 .9-7.8 1.7-11.6.1-.8.6-1.3 1.5-1.5l.4-.1c.2-.4.5-.8 1-1.1.5-.5 1.1-.8 2-.8h1l.3.1a70.2 70.2 0 0 0 2.9 1.8c.4 0 .7.2 1.1.3H485.4l.2-.1.4-.2.9-.7a51.3 51.3 0 0 0 3.8-17.2l.8-17.2c.1-4.3-.7-8.5-2.4-12.5-.3-.5-.6-1-1.1-1.5-.2 0-.3 0-.4-.2l-.3-.1a2 2 0 0 1-.4-.1 2 2 0 0 1-.4-.2c-2.2.2-4.2.6-6.2 1.3l-.6.9a2 2 0 0 1-1.7.9c-.9 0-1.7-.2-2.3-.5-.6-.1-1.2-.5-1.7-1.2-1.5-1.8-1.4-3.5.2-5.2.4-5.4.3-10.7-.5-16a22 22 0 0 1 0-5 40 40 0 0 0-2.4-19l-.7-2.2-2.3-6.6a38 38 0 0 0-2.5-5.8A30.4 30.4 0 0 0 445.3 48Zm2 55.8-1.6-.8a27.7 27.7 0 0 0-23.7-3.2c-2.2.7-4 1.9-5.6 3.5-1.8 2-3.8 3-6 3.5-1 .2-1.9-.1-2.5-.9-1.8-2.3-1.6-4.5.6-6.5 3.2-3 7-5.2 11-6.7a31 31 0 0 1 24.4.9 55.5 55.5 0 0 1 7.8 4.2c2.5 1.7 4.5 3.8 6.1 6.3 1.4 2.3 1 4.1-1.5 5.3-1.5.7-2.8.5-4-.6l-2.2-2.4a11.8 11.8 0 0 0-2.9-2.6Zm-87.4-8.1a28.2 28.2 0 0 1 27.3 5.1c2.2 1.9 2.3 3.8.4 5.9l-1.4.8a4 4 0 0 1-2.2 0l-1.6-.8-.4-.5-3.2-2c-1-.7-2-1.2-3-1.6a23.8 23.8 0 0 0-18.1 2.3 90.5 90.5 0 0 0-13 9 7.3 7.3 0 0 1-5.5 1.8c-1.2-.4-2-1-2.4-2.2a3.7 3.7 0 0 1 0-3.2c.2-.5.5-.9.9-1.2 6.8-5.5 14.2-10 22.2-13.4Zm39.2 56.9c3.1.6 4 2.4 2.7 5.4a61.5 61.5 0 0 1-4 7.7c3.3.5 6.5.8 9.8.9.5 0 .9.2 1.2.7 1.8 3 1 5-2.5 6-2 .5-4 .7-6 .5-6.3 0-9.6-3-9.7-9 0-1 .2-2.2.8-3.3 1.6-3.1 3.6-6 6-8.4.4-.5 1-.6 1.7-.5Zm-27.9-30.8c-.2 2-1.2 3.1-3 3.5-.6.2-1.1.2-1.6 0-2.5-.6-3.8-2.1-4-4.6 0-1.9.8-3.1 2.6-3.6 1.4-.4 2.6-.1 3.7 1 1.7.7 2.4 2 2.3 3.8Zm.6 83.6c1.1-2.8 3.1-3.6 6-2.4a41.9 41.9 0 0 0 25.5 5.2c6.7-1 12.9-3.3 18.7-6.8 1.7-.7 3.1-.4 4.4 1 1.3 1.3 1.5 2.7.5 4.3a5.4 5.4 0 0 1-3.3 2.5c-3 1.6-6 3-9 4.2a42.3 42.3 0 0 1-23.7 1.9 38.2 38.2 0 0 1-11.7-3.3s-.5 0-1.5-.4c-2.1-.9-3.9-2-5.3-3.5-.8-.8-1-1.7-.6-2.7Zm100.7-58 .3-.3.3-.1.2-.2.3-.3.2-.3.3-.7v-.3c-.2-1.6-.8-3.1-1.7-4.5-.7-1.2-1.7-2-3-2.6-4 .6-5.7-1-4.9-5 .2-1 .8-1.7 1.8-2 4.7-1.2 8.6.2 11.7 4a14 14 0 0 1 2.7 13.6 8.2 8.2 0 0 1-4.8 5.3c-2.4 1.1-5 1.5-7.7 1.3-2.8-.5-3.9-2-3.3-4.7.3-1.7 1.3-2.6 3-2.7 1.6 0 3.1-.2 4.6-.6Zm-35-28.6c.7.5 1 1.2 1 2 .4.5.6 1 .5 1.8-.5 3.2-2.3 4.2-5.3 3a3 3 0 0 1-2-2.7c-.4-.5-.6-1-.6-1.8 1-3.8 3.2-4.5 6.4-2.3Zm-109.2 11c1 .9 1.3 2 1.2 3.3-.2 1.5-1 2.5-2.4 3.1-.7.3-1.5.4-2.2.2h-.4l-.3.1c-.6.5-1.1 1-1.5 1.7l-1 2.3a7 7 0 0 0-.2 1.7 171.4 171.4 0 0 0 2.8.1h1.3c3.6-2.9 6.2-2.4 7.9 1.5.3.8.1 1.6-.4 2.3-2.3 2.7-5.3 4-8.9 3.8H323c-5.6 0-8.5-2.6-8.7-7.9 0-2.7.5-5.3 2-7.8 2.5-4.5 6.2-6.2 11.1-5 .4.2.7.3 1 .6Z"/><path fill="#CCC" d="M316 358.1a88 88 0 0 1 2.5-18.9c2.3-9.6 5.3-19 8.9-28.1a499 499 0 0 1-31.3 15.2l-.1.9-.4.9-.2.3-.3.4-.4.3-.4.2-.2.1c-4 15-7.4 30.2-10 45.7-.8 5-2 9.8-3.7 14.6-4.8 13.9-9.8 27.7-14.9 41.4a278.3 278.3 0 0 0-22.8 56.7c-5 16-7.1 32.4-6.4 49a45 45 0 0 0 20.2 36.8A68.8 68.8 0 0 0 303 586l13.5-1.4c9.4-1 18.6-3.2 27.6-6.4h1l.5.1.5.2.4.1.4.4.4.3.4.4.2.3c0 .2.2.4.3.5l.1.5.1.5v1.5c-.2 0-.2.2-.3.4l-.2.4-.2.5-.3.4c-8.4 3.6-17.2 6-26.4 7a203.3 203.3 0 0 1-36.8 1c-9.3-1.2-17.7-4-25.3-8.4-2.3 15-2.2 30 .3 45s4.4 30.2 5.9 45.5c.5 5.3.4 10.7-.2 16-2 16.7-6 32.8-12.1 48.5a135 135 0 0 0-5.8 19 62.7 62.7 0 0 1-5.2 14.9c14.5 3.5 29 7.6 43.5 12.3 6.8 2.1 13.8 3.8 21 5 7.7 1.2 15.3 2.8 23 4.8 15.8 4 31.8 5 48.2 3.4 20.8-2.1 41.6-4 62.5-5.4 19.7-1.4 39.2-4.2 58.5-8.4l28.7-6.4c5.6-1.3 11.3-2.5 17-3.6 2.6-1.2 5.1-2.5 7.6-3.9 2.3-1.3 4.4-2.8 6.4-4.6 1-1 2.1-1.9 3.4-2.5a400.6 400.6 0 0 0-2.6-7.4c-6.5-12-12.2-24.3-17.2-37-6-15.2-8.2-31-6.5-47.4 1.6-16 4.7-31.7 9.4-47.3 1.6-5.3 3-10.7 4-16.1v-.2c1.5-9 2.3-18.1 2.2-27.4a74 74 0 0 1-13.2 9.4c-3.6 2-7.4 3.1-11.6 3.4h-12.9c-1.6.4-3.2.6-4.8.7H503a57.3 57.3 0 0 1-19.9-4c-6.2-2.4-12.4-4.5-18.8-6.4a15 15 0 0 1-5.7-2.9l-.3-.4-.2-.4a3 3 0 0 1-.2-.5 5 5 0 0 1-.1-.6v-1.2a11.5 11.5 0 0 1 .8-1.6l.3-.3a3.7 3.7 0 0 1 .8-.6l.9-.5c9 2.2 18.5 5 28.3 8.6a64 64 0 0 0 28.3 3.4c5.5-.5 11-1.3 16.6-2.4 5-3.5 9.9-7.3 14.6-11.3a41.3 41.3 0 0 0 12.2-17.5c8.5-16 11-33 7.4-50.9a135.7 135.7 0 0 0-10.9-32.7l-21.8-45a374.2 374.2 0 0 1-18.6-46.6 207.7 207.7 0 0 1-10-58.3A162.3 162.3 0 0 1 481 312c.8 1.8 1.5 3.8 2 5.8a237.9 237.9 0 0 1 5 24.1l.3 36.5a75.2 75.2 0 0 1-8.6 36 53.5 53.5 0 0 1-37 27.4c-9.2 2-18.5 3-28 3-13-.4-25.8-1.2-38.7-2.4a64.3 64.3 0 0 1-35-14.1 59.1 59.1 0 0 1-20.6-32.1 136.9 136.9 0 0 1-4.5-38Zm66.7 218.6c-1.8-1-2.4-2.6-1.7-4.7.4-1.2 1.3-2 2.6-2.4 3.2-1 6.5-1.6 9.9-1.9h10c3.3.2 6.5.5 9.8 1.1a12 12 0 0 1 6.4 3.5c.4.4.6 1 .6 1.6 0 2.4-1.1 3.8-3.5 4.1a3 3 0 0 1-2.1-.5 25 25 0 0 0-9.7-2.1c-3.3-.1-6.7-.2-10-.1-3.4.1-6.6.7-9.8 1.8-.9.2-1.7.1-2.5-.4Zm178-21Z"/><path fill="#734800" d="M513.4 159c0-5 .1-10.1.6-15.2.9-10.1.5-20.2-1.2-30.2-1.6-9.2-3.5-18.4-5.6-27.5a92.8 92.8 0 0 0-4.5-14.3c-2.3-5.7-4-11.6-5.2-17.7a31.3 31.3 0 0 0-17-23 38.6 38.6 0 0 1-7.1-4.8 60.7 60.7 0 0 0-33-13.9c-8.6-.6-17.2-.7-25.7-.5-1.9 0-3.7-.2-5.5-.7-4.2-1.1-8.5-2.1-13-3-6-1.1-12-.8-18 .9-1.2.3-2.4.4-3.6.1-1.6-.3-3-.8-4.6-1.4a65.5 65.5 0 0 1-27.3 2.4l-4.6-.5a117 117 0 0 0-26 12.7c-.8.5-1.4 1.1-1.9 2-4.9 9-8.3 18.6-10 28.7-2 9.9-3.5 19.8-4.6 29.8a569.7 569.7 0 0 1-4.3 30.1 353 353 0 0 0-3.6 29.6c-.8 9.8-1.3 19.6-1.6 29.4-.4 10.6-1 21.2-1.7 31.8-.5 7.7-.7 15.4-.7 23.1 0 10.8-.5 21.5-1.6 32.2a621.6 621.6 0 0 0-2.8 33.4c-.5 8.9-.4 17.7.5 26.6a58.2 58.2 0 0 1 9.7.6l.5-.2a15.5 15.5 0 0 1 2.3-.4l.9-.1a4080 4080 0 0 1 17.2-8c5.7-2.6 11.2-5.6 16.6-8.9 1.9-1.1 3.8-2 5.8-2.5l2.3-2.2c1.2-1 2.2-2 3-3.1l.2-.3-.1.4c3.9-7.4 6.1-15.3 6.6-23.8.4-7.7.4-15.2 0-22.8-1.5-1.6-3-3.3-4.3-5.2a382 382 0 0 1-13.6-20.9 61.6 61.6 0 0 1-6.5-14.3 62.8 62.8 0 0 1-2.6-33.6l-.2-.9c-3.7 0-7-1.3-9.7-3.8-2.5-2.5-4-5.5-4.3-9.1a66 66 0 0 1-.2-1.8l-.2-1.5a110.5 110.5 0 0 1 1.3-38.1l.2-.8v-.2a14 14 0 0 1 8-12.3 4 4 0 0 1 2.2-.4c1.1 0 2.1.3 3 .5v-.2c0-8.7.2-17.3 1-25.9.5-6.2 2-12.3 4.4-18 .7-1.9 1.8-3.4 3.4-4.7a68 68 0 0 1 22-12.6 203 203 0 0 1 11.3-3.5c7-2 14-3.3 21.1-3.9l24-2c9-.9 17.7 0 26.3 2.6a51.9 51.9 0 0 0 9.8 2.4l6.2 1.4 1.7.3c6.2.7 11.8 3 16.7 6.7 5 3.8 8.4 8.7 10.1 14.7a95.7 95.7 0 0 0 2.2 7c3 7.7 4.1 15.7 3.3 24-.3 2.8-.2 5.6.2 8.5a61.1 61.1 0 0 1 .7 7.5c3.3-.5 6.7 0 10 1.8 1 .5 1.8 1.2 2.5 2.2 3 4.5 4.5 9.6 4.4 15.2 0 8.2-.5 16.4-1.4 24.5-.4 3.8-1.1 7.5-2 11.2-1.6 6.3-5.6 9.6-11.9 9.8a11.1 11.1 0 0 1-4-.8 91.6 91.6 0 0 1-7.2 35l-.6 1.7a846.6 846.6 0 0 1-5.4 14l-.6 1.5a72.3 72.3 0 0 1-8.2 14.9l.2.5a159.7 159.7 0 0 0 5 44.1 34.9 34.9 0 0 0 20.1 19.4l12.9 5.3c6.5 2.7 13.2 5.2 19.9 7.5v-1.1a24.5 24.5 0 0 1 .4-3.4 197 197 0 0 0 1.3-30.4c-.3-10.7-1-21.4-2.3-32-1.1-10-1.7-20-1.8-29.9v-31.3a845 845 0 0 0-.2-30.5Z"/></g><defs><clipPath id="a"><path fill="#fff" d="M0 0h800v942H0z"/></clipPath></defs></svg>