<svg xmlns="http://www.w3.org/2000/svg" width="643" height="930" fill="none"><path fill="#000" d="M121.827 443.17a76.2 76.2 0 0 0-5.722 11.746 311.779 311.779 0 0 0-7.981 23.239 7.6 7.6 0 0 1-.351-.502 66.175 66.175 0 0 1-6.124-11.845 117.854 117.854 0 0 1-6.927-24.696 26.358 26.358 0 0 0-.652-2.911c-.937-3.246-2.895-4.083-5.873-2.51-.67.335-1.004.837-1.004 1.506-.234 7.362.92 14.59 3.463 21.684a299.33 299.33 0 0 0 4.568 12.297c3.012 7.63 7.228 14.456 12.649 20.48 0 .1-.017.2-.05.301a390.85 390.85 0 0 0-1.857 10.892 269.701 269.701 0 0 0-1.657 11.444 60.273 60.273 0 0 1-.201 1.456v.05a107.666 107.666 0 0 0 .402 20.228c.97 8.5 3.982 16.23 9.035 23.19 4.084 5.67 9.204 9.669 15.359 11.997-1.636 3.571-2.338 7.42-2.108 11.544.134 2.443.335 4.869.603 7.278a93.827 93.827 0 0 0 6.374 24.796v.05c.078.122.145.239.201.352.033.134.084.268.151.401.066.168.117.318.15.452a45.183 45.183 0 0 0-8.884 13.854 204.658 204.658 0 0 0-8.684 25.9c-2.376 9.001-3.112 18.036-2.208 27.105a124.174 124.174 0 0 1-16.364 17.166 25.155 25.155 0 0 0-3.965 4.467 85.788 85.788 0 0 0-7.53 13.252c-.279.621-.563 1.24-.852 1.857-1.727 1.179-2.547 3.02-2.46 5.521-.338 1.149-.455 2.186-.351 3.112a40.853 40.853 0 0 1-.251 2.008.112.112 0 0 0 .05-.05.94.94 0 0 1 .05-.301c-.2 1.572-.385 3.128-.552 4.668a230.972 230.972 0 0 0-1.556 24.996c-.034 4.25.017 8.5.15 12.75.268 8.332.971 16.631 2.109 24.896a2891.67 2891.67 0 0 1 3.313 24.545 445.014 445.014 0 0 1 2.51 24.997 779.24 779.24 0 0 1 1.304 25.047c.134 4.283.385 8.549.753 12.799a391.289 391.289 0 0 1 1.305 25.097 82.686 82.686 0 0 0 3.413 22.286h8.383a67.185 67.185 0 0 1-3.564-17.517c-.468-6.994-.903-14.004-1.305-21.032a913.832 913.832 0 0 1-1.255-25.297c-.015-.392-.032-.794-.05-1.205.171-.35.288-.752.351-1.205 1.004-6.759 1.991-13.536 2.962-20.328 1.238-8.5 2.627-17.301 4.166-26.403a371.676 371.676 0 0 1 4.015-19.927c.531.246 1.084.464 1.657.653a51.241 51.241 0 0 1 6.174 2.409 739.752 739.752 0 0 0 21.834 9.487 362.49 362.49 0 0 0 22.688 8.483 172.756 172.756 0 0 0 22.738 5.923c-.121 0-.238-.017-.351-.051 1.749.323 3.422.892 5.019 1.707a122.476 122.476 0 0 0 9.035 4.166 275.065 275.065 0 0 1 9.888 4.317l-.502-.201a56.457 56.457 0 0 0 11.846 4.116c4.317.97 8.667 1.656 13.051 2.058a167.97 167.97 0 0 1 24.745 4.066 240.438 240.438 0 0 0 24.294 4.467c6.492.167 12.95-.268 19.375-1.305a329.947 329.947 0 0 1 25.599-3.112 400.646 400.646 0 0 1 24.595-1.255 2334.66 2334.66 0 0 1 30.669-.301c8.868-.034 17.735-.084 26.603-.151a255.481 255.481 0 0 0 24.846-1.305 241.371 241.371 0 0 0 26.001-4.116 106.226 106.226 0 0 0 25.348-8.934 244.908 244.908 0 0 0 22.135-12.599 70.342 70.342 0 0 0 7.831-5.873c4.209-3.629 8.861-7.142 13.954-10.541-.038.942-.072 1.879-.101 2.811-.067 3.648.017 7.278.251 10.892.569 8.232.72 16.481.452 24.746a347.484 347.484 0 0 0 0 25.047 172.47 172.47 0 0 0 2.61 24.846 49.05 49.05 0 0 1 .602 4.468 145.55 145.55 0 0 1 .201 20.228c-.234 4.183-.217 8.349.05 12.498.113 1.756.197 3.513.251 5.27h14.607c7.113-11.387 10.459-24.019 10.039-37.896a501.883 501.883 0 0 0-3.865-48.488c-2.418-18.49-6.216-36.477-11.394-53.959a104.537 104.537 0 0 0 4.919-6.625 104.768 104.768 0 0 0 7.027-11.746 77.553 77.553 0 0 0 7.178-20.88c1.572-8.333 1.372-16.648-.603-24.947a106.041 106.041 0 0 0-8.633-23.591c-3.949-7.73-9.855-13.385-17.719-16.966a11.27 11.27 0 0 0-1.204-.451c.176-.749.293-1.535.351-2.36a217.53 217.53 0 0 1 1.104-11.343 94.359 94.359 0 0 0-.1-22.989c-.201-1.573-.251-2.058-.151-1.456v-.1a111.184 111.184 0 0 0-2.007-11.395c-1.83-8.037-5.26-15.332-10.29-21.884 1.808-2.79 3.247-5.835 4.317-9.135a78.823 78.823 0 0 0 3.614-16.615l.15-1.506v-.05a51.51 51.51 0 0 0 .452-3.965 59.436 59.436 0 0 0-.452-12.197c-.428-2.948-1.281-5.692-2.56-8.232 4.433-3.106 7.746-7.339 9.939-12.699 3.279-8.031 3.948-16.297 2.007-24.796a228.971 228.971 0 0 1-3.312-17.819 112.58 112.58 0 0 1-1.105-13.402 71.621 71.621 0 0 1 3.815-25.198 93.415 93.415 0 0 0 4.819-23.842c.636-9.202 1.84-17.986 3.614-26.352-.469-2.409-1.924-3.513-4.367-3.313-2.242.168-3.581 1.406-4.016 3.715a172.69 172.69 0 0 0-2.861 23.039 55.931 55.931 0 0 1-1.255 9.135 443.88 443.88 0 0 1-2.309 9.688 48.384 48.384 0 0 0-4.467-4.819 237.29 237.29 0 0 0-13.402-11.846c-2.944-.87-4.818.184-5.621 3.163-.134.535-.051.987.251 1.355 2.643 3.446 5.671 6.676 9.085 9.687a119.339 119.339 0 0 1 11.795 11.896c-.096.406-.197.808-.301 1.205a87.172 87.172 0 0 0-2.761 25.147c.134 4.317.586 8.6 1.356 12.85a3647.742 3647.742 0 0 1 3.463 20.128c1.707 10.541-1.238 19.592-8.834 27.155-1.539.87-3.179 1.154-4.919.853-8.232-1.439-16.447-1.506-24.645-.201a133.26 133.26 0 0 1-6.375.854c-1.704.176-3.41.293-5.12.351-2.52.147-5.047.18-7.579.1-3.681-.1-5.137 1.623-4.367 5.17.167.703.585 1.172 1.255 1.406 3.346 1.104 6.876 1.606 10.591 1.506 1.807.1 3.58-.05 5.32-.452a68.543 68.543 0 0 1 17.116-1.556c5.187.167 10.391.435 15.611.803.079.005.146.005.201 0a41.587 41.587 0 0 1 2.459 16.464 73.06 73.06 0 0 1-5.22 23.541 19.799 19.799 0 0 1-2.158 3.965c-.113.159-.23.31-.352.452-.006.024-.023.041-.05.05-1.372.335-2.761.686-4.166 1.054a171.448 171.448 0 0 1-7.178 1.757 85.346 85.346 0 0 1-18.823 2.209c-7.218.065-14.429-.32-21.633-1.155h.15a43.299 43.299 0 0 1-3.513-.652 174.514 174.514 0 0 1-28.46-8.935c-2.477-1.037-4.183-.284-5.12 2.259-.669 1.807-.201 3.212 1.405 4.216a46.806 46.806 0 0 0 10.39 4.869 165.128 165.128 0 0 0 24.094 6.124c.131.018.265.035.401.05.801.114 1.604.215 2.409.301 2.577.368 5.17.602 7.781.703 2.61.1 5.203.267 7.78.502a63.842 63.842 0 0 0 8.382-.452 330.227 330.227 0 0 0 21.383-3.313 32.926 32.926 0 0 0 5.17-1.405c.034.028.05.045.05.05a49.542 49.542 0 0 1 6.977 12.95 74.355 74.355 0 0 1 3.965 16.263 73.97 73.97 0 0 1 .603 8.081c.2 8.299-.235 16.598-1.305 24.896a11.989 11.989 0 0 1-.904 3.062c-.372.829-.64 1.632-.803 2.41a115.378 115.378 0 0 0-13 6.675 42.83 42.83 0 0 0-5.321 3.815c-5.789 4.785-12.214 8.215-19.274 10.29a6.422 6.422 0 0 0-1.456.652c-3.313 1.975-3.581 4.3-.803 6.977.268.134.519.201.753.201 5.32-.1 10.256-1.656 14.807-4.668a428.136 428.136 0 0 1 8.182-5.32 301.227 301.227 0 0 1 19.575-11.646 2.351 2.351 0 0 0 1.205-.351c5.695 1.995 10.246 5.592 13.653 10.792a74.055 74.055 0 0 1 9.888 22.587 55.07 55.07 0 0 1 1.657 13.804c-.034 8.332-1.573 16.396-4.618 24.193-2.543 6.592-6.057 12.666-10.541 18.221a39.622 39.622 0 0 0-3.865 5.772c-.258.128-.526.262-.803.402a60.77 60.77 0 0 0-15.962 10.189 135.13 135.13 0 0 1-19.576 14.406 194.705 194.705 0 0 1-24.093 12.348 101.786 101.786 0 0 1-23.491 6.826 272.7 272.7 0 0 1-25.599 3.112c-7.964.602-15.962.837-23.993.703-10.775-.134-21.566 0-32.375.401-9.001.368-18.003.569-27.004.603-8.399 0-16.765.552-25.097 1.656a1840.315 1840.315 0 0 1-26.453 3.313 38.73 38.73 0 0 1-10.591-.251 391.173 391.173 0 0 1-25.549-4.969 176.7 176.7 0 0 0-25.799-4.016c-7.697-.602-14.992-2.694-21.885-6.274a245.912 245.912 0 0 1-5.823-3.112 51.456 51.456 0 0 0-15.61-5.672l.803.1c-2.208-.468-4.417-.97-6.625-1.506a215.53 215.53 0 0 1-24.545-7.378 272.828 272.828 0 0 1-22.387-9.437 172.177 172.177 0 0 0-12.549-5.32 54.311 54.311 0 0 1-7.228-3.413c-.314-.491-.783-.993-1.405-1.506a42.91 42.91 0 0 1-8.332-9.035c-.735-1.078-1.137-1.68-1.205-1.807-.232-.232-.717-.901-1.455-2.008a181.793 181.793 0 0 1-6.224-9.637 51.714 51.714 0 0 1-4.719-10.139l.1.2a11.616 11.616 0 0 0-.15-.401c.015-.937.032-1.874.05-2.811.201-8.466.837-16.899 1.908-25.298a.666.666 0 0 0 0-.151 85.69 85.69 0 0 0 2.961-6.424c.67-1.707 1.322-3.414 1.958-5.12 1.204-3.246 2.978-6.074 5.32-8.483 4.15-4.283 8.332-8.55 12.549-12.8a776.39 776.39 0 0 0 5.17-5.22 100.792 100.792 0 0 0 16.965 14.807 94.102 94.102 0 0 0 22.136 11.344c.268.101.535.184.803.251 3.012.536 4.668-.702 4.969-3.714.134-1.539-.485-2.593-1.857-3.162a111.075 111.075 0 0 1-16.915-8.784 146.407 146.407 0 0 1-19.877-15.259 19.372 19.372 0 0 0-2.259-1.757 5.743 5.743 0 0 1-.351-.251c.113-.895.096-1.832-.05-2.811-.871-5.755-.653-11.545.652-17.367a227.42 227.42 0 0 1 7.178-25.198c2.308-6.606 5.57-12.445 9.788-17.517 1.91 1.491 4.202 2.495 6.876 3.011a228.394 228.394 0 0 0 24.696 3.213l2.008.15c.1 0 .769.101 2.007.301 2.61.402 5.237.603 7.881.603 2.61 0 5.22.05 7.83.15a80.916 80.916 0 0 0 19.074-1.857 1301.92 1301.92 0 0 1 24.796-4.969 25.98 25.98 0 0 0 2.761-.753c3.48-1.171 4.182-3.296 2.108-6.374-.268-.369-.603-.569-1.004-.603-6.76-.134-13.469.72-20.128 2.56a103.015 103.015 0 0 1-19.375 3.363c-7.983.609-15.964.525-23.943-.251a.159.159 0 0 0 .101 0 .53.53 0 0 0-.201.05h-.301l-.101-.05a.548.548 0 0 0-.1 0 1603.68 1603.68 0 0 0-18.321-2.108c-1.539-.167-3.38-.485-5.521-.954a30.144 30.144 0 0 1-6.877-2.459c-.898-.45-1.718-.734-2.459-.854a37.66 37.66 0 0 0-1.607-4.567c-3.145-7.362-4.935-14.992-5.37-22.889-.235-4.25.016-8.432.753-12.548l.05-.302c1.454.172 2.909.155 4.367-.05 7.228-.937 13.92-3.346 20.077-7.228a134.15 134.15 0 0 1 18.522-9.788c1.64-.234 2.677-1.137 3.112-2.71.803-2.844-.251-4.484-3.162-4.919-1.573-.268-3.112-.05-4.618.652a180.642 180.642 0 0 0-20.831 11.194 33.072 33.072 0 0 1-11.444 4.467c-2.409.469-4.768.368-7.077-.301-8.366-2.409-14.406-7.646-18.12-15.711l-1.255-2.761a42.764 42.764 0 0 1-3.213-12.548 95.267 95.267 0 0 1-.2-15.41 95.328 95.328 0 0 1 2.057-14.305 75.861 75.861 0 0 0 1.707-12.8c.067-.903-.167-1.74-.703-2.509-.314-.449-.632-.9-.953-1.356.165-.4.299-.852.401-1.355a117.162 117.162 0 0 1 7.78-23.792 482.752 482.752 0 0 1 2.761-5.923c2.844-5.99 5.655-11.996 8.433-18.019 1.271-2.811.602-4.836-2.008-6.074-1.506-.703-2.778-.418-3.815.853a17.366 17.366 0 0 0-2.61 4.367 50.654 50.654 0 0 1-3.112 6.174ZM89.452 779.822a301.339 301.339 0 0 1-.201-4.668 141.319 141.319 0 0 0 4.568 6.777l.903 1.254c.034.067.418.569 1.155 1.506a186.031 186.031 0 0 1 4.417 5.723 27.411 27.411 0 0 0 2.459 2.911 73.777 73.777 0 0 0-2.108 8.181c-.301 1.674-.418 2.242-.351 1.707.033-.268-.034.034-.201.904a267.707 267.707 0 0 0-3.112 16.413c-.55 3.498-1.102 6.994-1.656 10.491a433.852 433.852 0 0 0-1.657-13.603 812.812 812.812 0 0 1-3.212-25.449l-.201-1.957v-.1c-.335-3.347-.602-6.71-.803-10.09Zm443.967-98.581a.812.812 0 0 0 .051-.251 1.06 1.06 0 0 0 .05-.301v.201c0 .1-.017.184-.05.251a.903.903 0 0 0-.051.251v-.151Zm3.715 166.996c.334-8.299.217-16.581-.352-24.846a246.302 246.302 0 0 1-.351-23.692 624.21 624.21 0 0 1 8.382 41.812c3.38 20.245 4.769 40.557 4.167 60.936-.101 3.279-.72 6.408-1.858 9.386a172.08 172.08 0 0 1-6.625 15.36 73.591 73.591 0 0 0-.05-2.259 294.225 294.225 0 0 1 .2-24.294c.067-.971.034-1.958-.1-2.962a557.355 557.355 0 0 1-2.66-22.637 193.612 193.612 0 0 1-.753-26.804ZM93.467 813.955v-.101a1.145 1.145 0 0 1-.05-.201c0 .101.017.201.05.302Zm432.724-165.491v-.15l-.05-.251c0 .134.017.267.05.401Zm-351.259-28.811h.201c.061.033.111.05.151.05h.301l-.954-.1c.101.033.201.05.301.05Zm-.502-.05.101-.051h-.251l.15.051Zm92.91-122.574c-3.748 1.104-7.261 2.827-10.541 5.169a133.735 133.735 0 0 1-23.39 13.553c-1.607.703-2.192.987-1.757.853-.636.234-1.807.703-3.514 1.406a202.234 202.234 0 0 1-12.548 4.818 1770.735 1770.735 0 0 1-23.592 8.182 32.318 32.318 0 0 1-6.173 1.405 89.034 89.034 0 0 1-24.947-.401 7.67 7.67 0 0 0-2.761 0c-3.246.569-4.3 2.392-3.162 5.471.335.937.987 1.506 1.958 1.707a151.583 151.583 0 0 0 22.035 2.409 35.342 35.342 0 0 0 8.583-1.155 325.964 325.964 0 0 0 20.028-5.872 276.177 276.177 0 0 0 25.749-9.939c1.508-.676 2.16-.994 1.958-.953h.05a50.884 50.884 0 0 0 5.672-2.56 226.064 226.064 0 0 0 20.73-12.248 182.882 182.882 0 0 0 7.178-5.069c2.744-2.008 2.828-4.133.251-6.375-.535-.468-1.138-.602-1.807-.401Zm101.543 4.718c-.837 1.405-.653 2.66.552 3.764a155.382 155.382 0 0 1 7.479 7.379c5.923 6.124 12.214 11.294 18.873 15.51a155.451 155.451 0 0 0 22.035 11.595 132.788 132.788 0 0 0 23.742 7.679 225.46 225.46 0 0 0 14.958 2.711 155.52 155.52 0 0 0 24.645 1.656h.251c.101 0 .218-.016.352-.05 1.673-.334 2.66-1.338 2.961-3.012.569-2.911-.636-4.5-3.614-4.768a162.55 162.55 0 0 0-14.004-.602c-2.209 0-4.384-.184-6.525-.552a320.616 320.616 0 0 1-24.395-5.371 124.956 124.956 0 0 1-23.139-8.684 129.968 129.968 0 0 1-21.132-12.95 38.667 38.667 0 0 1-4.668-4.066 157.34 157.34 0 0 0-12.298-11.344c-2.443-2.007-4.467-1.639-6.073 1.105ZM72.436 633.255a848.833 848.833 0 0 0 11.043 3.564 40.839 40.839 0 0 1 10.992 5.522c.2.1.402.184.602.251.436.133.87.2 1.306.2.368.034.719 0 1.054-.1.334-.1.669-.217 1.003-.351.134-.067.285-.168.452-.302l.402-.301c.134-.133.25-.267.351-.401.1-.134.2-.285.301-.452.101-.167.184-.335.251-.502.067-.167.117-.335.151-.502l.1-.502c.034-.167.05-.334.05-.502a2.582 2.582 0 0 1-.05-.502l-.1-.502-.201-.502a5.752 5.752 0 0 1-.2-.451c-.67-.971-1.54-1.774-2.61-2.41a64.757 64.757 0 0 0-13.453-6.274 160.739 160.739 0 0 0-12.85-3.765 2.901 2.901 0 0 0-.502.151 2.903 2.903 0 0 0-.501.151c-.168.067-.318.15-.452.251a1.334 1.334 0 0 0-.452.301l-.401.301c-.1.134-.218.268-.352.402-.1.133-.2.284-.301.451a6.118 6.118 0 0 0-.2.452c-.068.167-.135.335-.201.502-.034.167-.068.351-.1.552-.034.167-.051.335-.051.502 0 .167.017.351.05.552l.1.502c.034.134.084.285.151.452.067.167.15.318.251.452l.301.401.301.402c1.105.87 2.36 1.539 3.765 2.007Zm511.479-6.575.401-.301c.301-.268.552-.552.753-.853a6.39 6.39 0 0 0 .653-1.105c.067-.2.1-.401.1-.602.033-.402.017-.82-.05-1.255a7.951 7.951 0 0 0-.301-1.205 4.63 4.63 0 0 0-.352-.501 5.169 5.169 0 0 0-.903-.804 7.232 7.232 0 0 0-1.054-.702 11.226 11.226 0 0 0-3.514-.051 54.94 54.94 0 0 0-14.305 3.866 1190.57 1190.57 0 0 1-14.155 5.973 3.35 3.35 0 0 0-.853 1.455 5.125 5.125 0 0 0-.251 1.205c0 .435.017.853.05 1.255.067.201.134.384.201.552l.301.502c.1.167.201.318.301.452.134.167.285.301.452.401.134.134.284.268.452.402.133.1.301.184.502.251.167.1.334.184.501.251.201.033.385.083.553.15 1.305 0 2.576-.217 3.814-.652a289.68 289.68 0 0 0 13.001-5.02 52.88 52.88 0 0 1 13.703-3.664ZM313.167 758.992a4.72 4.72 0 0 1 1.456-1.004 12.658 12.658 0 0 1 1.957-.351 26.82 26.82 0 0 1 8.333.301c2.409.468 4.618 1.288 6.625 2.459a7.21 7.21 0 0 1-.803.251 42.59 42.59 0 0 1-3.564.854 5.483 5.483 0 0 0-2.108.953c-.234.268-.451.536-.652.803a4.406 4.406 0 0 0-.502.854 1.545 1.545 0 0 0-.201.502l-.1.502c0 .334.016.686.05 1.054.033.334.117.669.251 1.004l.201.502.301.401c.234.268.502.502.803.703.268.201.552.368.853.502.134.067.285.134.452.201l.502.1a11.134 11.134 0 0 0 3.162-.251 18.37 18.37 0 0 0 6.776-2.962c1.807-1.271 2.912-2.978 3.313-5.119v-.502c0-.235-.017-.469-.05-.703a42.521 42.521 0 0 0-.101-.753c-.669-2.008-1.873-3.58-3.613-4.718-6.392-4.15-13.419-5.588-21.082-4.317-9.336 1.573-13.419 6.709-12.247 15.41a9.72 9.72 0 0 0 1.104 1.455 7.899 7.899 0 0 0 1.706 1.456c.603.402 1.222.803 1.858 1.205.602.401 1.238.585 1.907.552.368-.034.72-.101 1.054-.201a5.717 5.717 0 0 0 1.004-.301l.803-.703c.268-.234.485-.502.653-.803.133-.167.234-.335.301-.502a2.79 2.79 0 0 0 .15-.502c.067-.334.101-.669.101-1.004a10.583 10.583 0 0 0-.151-1.004 1.797 1.797 0 0 0-.15-.451l-.201-.502a4.713 4.713 0 0 0-1.004-1.155 15.144 15.144 0 0 0-.904-.652 9.706 9.706 0 0 1-.953-.653l.602-.803a31.283 31.283 0 0 1 2.108-2.108Zm19.425.602c0 .034-.016.067-.05.101v-.051l.05-.05ZM461.24 504.909c.034.1.084.201.151.301.301.536.719.904 1.255 1.104 3.513 1.272 6.073.051 7.679-3.664.87-2.041.502-3.764-1.104-5.17-3.079-2.643-5.639-2.409-7.68.703a3.243 3.243 0 0 0-.953.954 4.062 4.062 0 0 0-.703 2.61c.067.97.435 1.807 1.104 2.509l.1.302c.034.133.084.251.151.351Zm-288.717-6.676c.167 2.276 1.288 3.848 3.363 4.718 2.811.402 5.036-.568 6.676-2.911.937-1.338 1.171-2.777.703-4.317-.87-2.911-2.895-4.182-6.074-3.814-.703.2-1.372.502-2.008.903-1.94 1.272-2.827 3.079-2.66 5.421ZM442.467 92.965c-.133-.803-.451-1.489-.953-2.058-3.112-3.848-7.278-5.404-12.499-4.668-1.539.201-2.961.57-4.266 1.105a1204.27 1204.27 0 0 1-.452-18.924 97.54 97.54 0 0 0-.301-6.324 703.7 703.7 0 0 0-1.807-20.48c-.669-6.692-2.342-13.083-5.019-19.174-2.979-6.726-7.663-11.762-14.055-15.108a304.83 304.83 0 0 1-2.259-1.104c0-.034-.016-.05-.05-.05A68.606 68.606 0 0 0 381.281.457c-6.358-.903-12.666-.468-18.923 1.305-2.41.67-4.853 1.021-7.329 1.055-3.982.1-7.964.05-11.946-.151a106.91 106.91 0 0 0-20.931.954c-2.644.401-5.27.518-7.881.351a509.71 509.71 0 0 1-20.228-1.707 70.809 70.809 0 0 0-19.726.653 87.618 87.618 0 0 0-19.224 5.722c-3.046 1.305-5.572 3.263-7.58 5.873-3.915 4.952-6.893 10.691-8.934 17.216a86.966 86.966 0 0 0-3.815 19.877 89.558 89.558 0 0 0 .15 15.56c.435 4.886 1.121 9.721 2.058 14.507a23.986 23.986 0 0 0-6.776-1.456 39.437 39.437 0 0 0-2.058-.15c-5.253-.302-8.616 1.99-10.089 6.876-1.874 6.391-2.576 12.933-2.108 19.626.435 6.023.351 12.03-.251 18.02a68.995 68.995 0 0 0 1.054 20.83c.736 3.547 2.51 6.459 5.321 8.734 5.053 4.049 10.407 4.601 16.062 1.656.167.502.284.988.351 1.456.168.97.402 1.924.703 2.861 0 .569.05 1.138.151 1.707.468 2.509.853 5.036 1.154 7.579.837 6.759 1.606 13.519 2.309 20.278a65.343 65.343 0 0 0 3.212 14.808 63.079 63.079 0 0 0 3.514 8.382 137.533 137.533 0 0 0-8.834 4.668c-.837.435-1.673.854-2.51 1.255a269.912 269.912 0 0 0-12.9 6.274l-.502.251a17.5 17.5 0 0 0-.552.101c-.142.116-.293.233-.452.351l-.753.301c-1.046.443-1.782 1.096-2.208 1.958a66.255 66.255 0 0 1-7.128 4.417 10612.841 10612.841 0 0 0-42.715 22.888 144.151 144.151 0 0 1-11.243 5.421 2189.826 2189.826 0 0 1-22.789 9.688c-15.526 6.492-30.116 14.556-43.769 24.194l.301-.302a94.375 94.375 0 0 0-7.529 6.275c-10.507 9.637-18.07 21.165-22.688 34.583a986.309 986.309 0 0 0-13.301 41.913c.067.2.117.384.15.552v.05a67.366 67.366 0 0 0-.652 2.108 1678.063 1678.063 0 0 0-12.95 47.333 1656.567 1656.567 0 0 0-11.444 47.434 472.173 472.173 0 0 0-8.132 47.232 512.106 512.106 0 0 0-3.513 48.538 134.6 134.6 0 0 0-.05 6.375c.334 16.397-1.256 32.542-4.77 48.437-1.003 4.585-2.057 10.273-3.161 17.066-.502 3.112-.82 5.053-.954 5.823a293.996 293.996 0 0 0-4.216 41.912 530.149 530.149 0 0 0 .702 48.387c.937 15.928 1.858 31.84 2.761 47.735a2171.45 2171.45 0 0 1 2.259 48.889c.602 16.129 1.489 32.241 2.66 48.337a586.585 586.585 0 0 1 1.456 49.04c-.034.267-.05.518-.05.753 0 .267.033.518.1.753.033.267.1.501.2.702.068.234.168.469.302.703.134.167.284.351.452.552a6.202 6.202 0 0 0 .954.954c.2.134.4.251.602.351.2.101.418.184.652.251.2.067.418.117.653.151.267.033.518.067.753.1l.702-.1c.235-.034.452-.101.653-.201.234-.067.452-.167.652-.301.201-.101.385-.218.553-.352l.501-.502c.134-.167.251-.351.352-.552.134-.2.234-.418.301-.652.1-.201.184-.419.25-.653v-.702c0-.268-.032-.536-.1-.804a2.79 2.79 0 0 0-.2-.753c.1-5.956.017-11.912-.251-17.869a2712.005 2712.005 0 0 0-2.66-49.541c-.97-15.46-1.69-30.953-2.159-46.48a969.353 969.353 0 0 0-2.41-46.279 1287.223 1287.223 0 0 1-2.81-45.426 315.967 315.967 0 0 1-.301-17.819 396.006 396.006 0 0 1 1.807-33.379 776.734 776.734 0 0 1 6.073-47.383c-.033.368-.083.719-.15 1.054a146.212 146.212 0 0 0 4.969-36.742c.1-16.397.82-32.744 2.158-49.04a520.866 520.866 0 0 1 6.024-46.63 284.531 284.531 0 0 1 4.668-23.642 1630.898 1630.898 0 0 1 12.85-49.943c4.1-15.035 8.25-30.043 12.447-45.024.214-.783.432-1.569.653-2.359-.067-.335-.117-.67-.15-1.004a3.9 3.9 0 0 0-.201-.402 223.648 223.648 0 0 0 7.328-21.985 136.668 136.668 0 0 1 8.031-22.035c6.525-14.222 16.447-25.482 29.765-33.781a76.52 76.52 0 0 1 2.661-1.957 15.22 15.22 0 0 1 2.76-1.607 6.073 6.073 0 0 0-.452.201l-.501.201a511.006 511.006 0 0 0 22.687-11.294 62.748 62.748 0 0 1 8.282-3.614 257.246 257.246 0 0 0 45.978-21.633 36.143 36.143 0 0 1 5.622-2.711c12.974-5.054 24.77-11.897 35.387-20.529.217-.12.401-.22.552-.302a.44.44 0 0 1-.201.051c.163-.064.314-.13.452-.201a2.46 2.46 0 0 0 .301-.101c.78-.314 1.549-.649 2.309-1.003l8.132-4.016a62.59 62.59 0 0 0 3.011-1.506 337.385 337.385 0 0 0 12.398-6.826 69.767 69.767 0 0 0 8.885 10.792 214.82 214.82 0 0 0 15.108 13.552c5.454 4.417 10.942 7.947 16.464 10.591 5.822 2.744 12.23 4.467 19.224 5.17.703.067 1.405.1 2.108.1a49.173 49.173 0 0 0 5.421-.401 42.392 42.392 0 0 1 5.823-.301c.334.133.686.2 1.054.2.502 0 .97-.033 1.405-.1 1.473.435 3.045.619 4.718.552a63.375 63.375 0 0 0 13.954-1.455 65.956 65.956 0 0 0 19.476-7.63 120.257 120.257 0 0 0 16.162-11.394c.904-.77 1.523-1.272 1.858-1.506a88.058 88.058 0 0 0 10.089-7.68c.656.379 1.359.68 2.108.904.134.1.251.201.351.301.268.268.569.502.904.703.26.162.477.38.652.652l.05.051c.032.05.065.1.101.15.133.201.301.402.502.602.2.134.418.268.652.402.301.167.602.318.904.452.334.167.652.318.953.451l.803.302c.235.1.469.167.703.2.268.067.552.118.853.151l.904.502c.301.134.602.284.903.452l.904.502c.301.167.602.351.903.552a52.172 52.172 0 0 0 3.112 2.961 52.39 52.39 0 0 0 10.842 7.529 173.94 173.94 0 0 0 22.538 9.738 628.836 628.836 0 0 1 24.193 8.985 180.84 180.84 0 0 1 11.093 7.278 92.632 92.632 0 0 0 18.221 10.189 1859.568 1859.568 0 0 1 20.78 8.885 145.683 145.683 0 0 1 20.58 12.95c9.603 7.261 17.367 16.129 23.29 26.603a253.807 253.807 0 0 1 16.212 34.383 29.12 29.12 0 0 1-.401-.954c.401 1.071.82 2.142 1.255 3.213a599.398 599.398 0 0 1 19.023 57.522 3065.135 3065.135 0 0 1 15.561 58.376c5.052 19.609 7.713 39.586 7.98 59.932.235 17.936.686 35.872 1.356 53.808a2038.178 2038.178 0 0 0 3.112 60.685 577.773 577.773 0 0 0 4.818 45.626 219.588 219.588 0 0 1 1.958 45.175 2347.703 2347.703 0 0 0-2.911 61.337 1558.936 1558.936 0 0 0-.904 61.287 325.857 325.857 0 0 1-5.12 59.28c-.057.415-.124.833-.2 1.255.033.301.083.602.15.903.067.301.167.586.301.853.134.235.301.469.502.703.168.234.352.452.552.653.268.167.536.317.804.451.234.134.501.235.803.302.301.066.602.1.903.1.301 0 .602-.017.904-.05a4.52 4.52 0 0 0 .803-.352c.267-.134.518-.284.753-.451a6.09 6.09 0 0 0 .652-.653l.502-.703a130.054 130.054 0 0 0 3.865-24.093 1062.271 1062.271 0 0 0 2.108-48.487c.335-17.669.703-35.32 1.104-52.955a1789.485 1789.485 0 0 1 2.46-61.488 209.243 209.243 0 0 0-1.757-40.657 704.17 704.17 0 0 1-5.822-60.434 2015.128 2015.128 0 0 1-2.159-58.778c.034.368.084.72.151 1.054a39112.03 39112.03 0 0 0-3.062-63.596 227.42 227.42 0 0 0-9.587-55.012 1661.62 1661.62 0 0 1-16.614-58.477c-5.087-19.073-11.21-37.378-18.371-54.912a185.96 185.96 0 0 0-21.333-38.65c-10.507-14.556-24.093-25.231-40.758-32.024a210.215 210.215 0 0 1-36.19-18.923c-13.452-8.8-28.041-15.259-43.769-19.375a14.267 14.267 0 0 0-3.614-1.506 25.671 25.671 0 0 1-4.367-1.706 38.23 38.23 0 0 0-3.815-1.606c.335.133.653.267.954.401-3.246-.703-6.14-2.074-8.683-4.116a99.389 99.389 0 0 1-7.981-7.077 21.992 21.992 0 0 0-8.182-5.12c-.402-.067-.82-.134-1.255-.201-.331-.15-.666-.301-1.004-.451a13.789 13.789 0 0 0-3.212-2.862l.05-.05c4.283-4.484 7.797-9.553 10.541-15.209a76.833 76.833 0 0 0 6.324-18.672 38.38 38.38 0 0 0 .653-5.22c.334-6.525.401-13.05.201-19.576a20.63 20.63 0 0 0 .552-6.575c.368.067.719.134 1.054.201 5.488.87 10.005-.737 13.552-4.819 2.61-2.978 4.267-6.391 4.969-10.24.435-2.543.837-5.103 1.205-7.679a249.132 249.132 0 0 0 2.209-23.441c.067-1.472.167-2.945.301-4.417.569-5.22.368-10.357-.603-15.41ZM366.473 9.141a31.223 31.223 0 0 1 12.449-.803 68.546 68.546 0 0 1 22.035 6.626 326.4 326.4 0 0 1-.602-.201c.267.1.535.25.803.451 5.554 4.25 9.219 9.805 10.992 16.665a115.084 115.084 0 0 1 3.313 19.726c.502 6.626.82 13.252.954 19.877.134 7.697.1 15.36-.101 22.99-.1.233-.167.468-.2.702a2.952 2.952 0 0 0-.302.753c-.2.836-.15 1.673.151 2.51.335.836.903 1.489 1.707 1.957a3.884 3.884 0 0 0 1.706.502c1.673.067 2.878-.653 3.614-2.158.268-.536.502-1.071.703-1.607 3.212-2.978 6.927-3.664 11.143-2.058.1.335.167.67.201 1.004.134 6.024.067 12.03-.201 18.02a220.763 220.763 0 0 1-.703 9.788 214.85 214.85 0 0 1-1.556 12.297 25 25 0 0 0-.351 2.761c-.469 4.651-2.276 8.516-5.421 11.595-.536.167-1.071.301-1.606.402-.569.1-1.155.167-1.757.2a3.083 3.083 0 0 1-1.657-.351 11.493 11.493 0 0 1-.903-.904 5.416 5.416 0 0 0-3.112-1.756c-3.748-.803-5.689.786-5.823 4.768-.1 2.376-.15 4.752-.15 7.128a2.68 2.68 0 0 0-.151.552 115.393 115.393 0 0 0-.351 17.016 31.43 31.43 0 0 1-.201 5.621 67.969 67.969 0 0 1-5.27 19.626 100.12 100.12 0 0 1-3.514 7.128 36.162 36.162 0 0 1-4.768 6.676 100.48 100.48 0 0 1-17.618 14.958c-.034 0-.067.016-.101.05a130.835 130.835 0 0 1-10.641 8.081 71.488 71.488 0 0 1-15.41 8.132c-7.696 2.911-15.593 4.032-23.691 3.363a3.068 3.068 0 0 0-1.155-.452c-.903-.134-1.673-.084-2.309.15-1.472-.334-3.062-.334-4.768 0a28.19 28.19 0 0 1-7.128.502c-6.826-.368-13.318-2.091-19.475-5.17h.05a12.367 12.367 0 0 1-1.456-.803 133.292 133.292 0 0 1-16.313-11.946 116.041 116.041 0 0 1-14.355-14.607 75.065 75.065 0 0 1-4.518-6.173c-3.814-5.789-6.207-12.08-7.177-18.873a593.01 593.01 0 0 1-2.46-20.178 616.07 616.07 0 0 1-1.004-10.792c.067-.268.134-.552.201-.854.201-1.171.017-2.225-.552-3.162a1.84 1.84 0 0 1-.05-.452c-.134-1.438-.569-2.526-1.305-3.262a39.94 39.94 0 0 1-.402-2.811c-.268-2.644-1.389-4.685-3.363-6.124-.636-.468-1.322-.569-2.058-.301a75.155 75.155 0 0 0-8.533 3.815 3.605 3.605 0 0 0-.602-.05 4.943 4.943 0 0 1-3.012-1.004c-3.447-2.543-5.086-6.107-4.919-10.692.202-6.32.42-12.661.653-19.023.03-.995.063-1.999.1-3.012a38.161 38.161 0 0 0-.251-5.872c-.904-7.597-.167-14.825 2.208-21.684h.904c.669 0 1.339-.05 2.008-.151a23.59 23.59 0 0 1 1.506-.25 20.06 20.06 0 0 1 6.876 3.01c.87.57 1.774 1.072 2.711 1.506l.2.1c1.372 1.54 3.096 1.54 5.17 0 .67-.468.988-1.103.954-1.906a69.283 69.283 0 0 0-1.104-9.035 153.482 153.482 0 0 1-2.56-21.032 75.594 75.594 0 0 1 1.907-21.232c1.774-7.596 4.919-14.54 9.437-20.83a32.203 32.203 0 0 1 8.633-4.518 69.34 69.34 0 0 1 20.329-3.965c6.86-.268 13.686.133 20.479 1.204a67.536 67.536 0 0 0 20.279.05 85.534 85.534 0 0 1 21.081-.501c7.262.736 14.439.167 21.533-1.707Zm-25.749 202.283a.468.468 0 0 1 .201-.051h-.101c-.033 0-.067.017-.1.051Zm26.101-20.429c-.937-1.038-2.075-1.406-3.413-1.105-1.372.268-2.594.887-3.665 1.857a40.21 40.21 0 0 1-9.988 6.275 100.57 100.57 0 0 1-5.973 2.309 30.02 30.02 0 0 1-11.294 1.556 90.736 90.736 0 0 1-10.39-1.205 41.19 41.19 0 0 1-9.939-3.062 43.574 43.574 0 0 1-8.683-5.27c-.837-1.673-2.209-2.426-4.116-2.259-1.038.067-1.857.535-2.46 1.405-1.472 2.008-1.338 3.983.402 5.923a18.407 18.407 0 0 0 4.066 3.464 69.018 69.018 0 0 0 5.722 3.212 54.292 54.292 0 0 0 9.737 3.664c2.577.67 5.17 1.172 7.781 1.506 3.48.435 6.976.619 10.49.552 1.74.034 3.463-.117 5.17-.451a.227.227 0 0 0 .1-.051 60.564 60.564 0 0 0 9.387-2.509 39.711 39.711 0 0 0 8.934-4.417c2.108-1.439 4.2-2.895 6.275-4.367a10.131 10.131 0 0 0 2.007-1.958c1.305-1.74 1.255-3.43-.15-5.069Zm57.824-65.102c.342-.961.56-1.915.652-2.861.302-2.777-.501-5.42-2.409-7.931a10.433 10.433 0 0 0-2.861-2.56c-3.146-1.907-6.492-2.326-10.039-1.255-2.309.703-3.547 2.225-3.715 4.568-.033.903.251 1.69.854 2.359 1.807 1.907 3.748 2.075 5.822.502h.753c.368 0 .736.033 1.104.1.302.067.603.168.904.301.201.201.385.419.552.653.335.435.602.903.803 1.405.234.469.368.954.402 1.456a1.394 1.394 0 0 1-.402.552 24.215 24.215 0 0 1-1.757 1.506c-2.275 1.84-4.768 2.409-7.479 1.707-1.003-.268-1.974-.151-2.911.351-2.141 1.171-2.777 2.911-1.907 5.22.167.435.452.787.853 1.054 1.841 1.272 3.932 1.874 6.274 1.807 1.138 0 2.242-.184 3.313-.552a24.013 24.013 0 0 0 9.638-5.923 6.567 6.567 0 0 0 1.556-2.459Zm-176.082-19.877c-1.137-1.64-2.677-2.225-4.618-1.757-3.48.77-6.575 2.292-9.285 4.568-2.443 2.041-3.949 4.601-4.518 7.679a11.424 11.424 0 0 0-.201 2.661c.14 2.599 1.278 4.841 3.413 6.726a9.665 9.665 0 0 0 4.618 2.258 117.69 117.69 0 0 0 10.391 1.456c1.137.268 2.191.084 3.162-.552 1.372-.904 1.957-2.158 1.757-3.765-.201-1.74-1.138-2.877-2.811-3.413a61.387 61.387 0 0 0-2.259-.351 55.333 55.333 0 0 0-5.772-.402c-1.874-.033-3.363-.719-4.468-2.058a.393.393 0 0 1-.05-.15.391.391 0 0 0-.05-.151v-.1c-.034-.201-.017-.368.05-.502.77-2.476 2.409-4.2 4.919-5.17a7.135 7.135 0 0 1 1.807-.452c1.573-.167 2.844-.837 3.815-2.008 1.171-1.472 1.205-2.978.1-4.517Zm83.774 34.433c1.272-1.372 1.674-2.945 1.205-4.718-.335-1.138-1.054-1.908-2.158-2.309-2.51-.87-4.3-.101-5.371 2.309a4.234 4.234 0 0 1-.552.552c-2.51 2.51-4.283 5.471-5.321 8.884-1.037 3.48-.753 6.86.854 10.139 1.171 2.477 3.061 4.083 5.671 4.819a37.268 37.268 0 0 0 10.34 1.456c1.674.167 3.347.184 5.02.05 1.573-.1 2.894-.703 3.965-1.807.837-.87 1.138-1.907.904-3.112-.502-2.376-1.975-3.497-4.417-3.363l-1.406.1c-3.446.168-6.876.05-10.29-.351a.896.896 0 0 0-.251-.05h.101a13.284 13.284 0 0 1-1.104-.251 3.741 3.741 0 0 1-.904-.402c-1.472-2.576-1.355-5.136.351-7.68a34.382 34.382 0 0 1 3.363-4.266Zm40.457-48.688a9.58 9.58 0 0 0-5.371.853c-1.472.703-2.476 1.79-3.012 3.262-.769 2.042-.401 3.698 1.105 4.97.033.067.067.15.1.251a3 3 0 0 0 1.155 1.255c.234.334.518.635.853.903.435.335.903.586 1.405.753.134 0 .251.017.352.05h.351c.134.034.268.05.402.05 2.978 0 5.37-1.137 7.177-3.413.67-.836.971-1.79.904-2.86-.167-3.581-1.974-5.606-5.421-6.074ZM343.986 76.2c1.674 1.572 3.464 1.706 5.371.401 2.845-1.94 5.99-3.23 9.437-3.865a27.143 27.143 0 0 1 10.892.1c3.58.737 6.91 1.824 9.989 3.263l.501.2.201.101a.387.387 0 0 1-.15-.05l-.051-.05h-.1c.134.067.284.134.452.2l-.101-.1c.134.1.218.15.251.15.603.269 1.188.553 1.757.854a161.25 161.25 0 0 1 7.178 3.765 248.313 248.313 0 0 0 7.128 3.865 3.463 3.463 0 0 0 1.656 0c2.376-.536 3.463-2.025 3.263-4.468-.034-.702-.318-1.305-.854-1.807a22.634 22.634 0 0 0-4.316-3.212 172.936 172.936 0 0 0-9.587-4.92 88.72 88.72 0 0 0-9.437-3.864 47.113 47.113 0 0 0-10.29-2.259c-1.573-.2-3.162-.267-4.768-.2a34.375 34.375 0 0 0-14.506 3.914c-.569.302-1.121.57-1.657.804-1.773.803-2.861 2.108-3.262 3.915-.268 1.305.067 2.392 1.003 3.262ZM285.51 99.54c1.071 2.777 3.179 4.099 6.325 3.965 2.309 0 4.467-.569 6.475-1.707 2.543-1.472 3.446-3.614 2.71-6.424a2.876 2.876 0 0 0-.753-1.255c-2.71-2.644-5.939-3.347-9.687-2.108-2.61.87-4.334 2.593-5.17 5.17a3.196 3.196 0 0 0 .1 2.359Zm10.792-26.754a39.911 39.911 0 0 1 7.981.603 46.212 46.212 0 0 1 10.29 3.112c1.238.535 2.509.836 3.814.903a2.713 2.713 0 0 0 2.109-.703c2.041-1.807 2.225-3.814.552-6.023a3.8 3.8 0 0 0-.703-.401 114.345 114.345 0 0 0-6.174-2.66 40.773 40.773 0 0 0-9.938-2.46 53.412 53.412 0 0 0-10.34-.201 19.14 19.14 0 0 0-3.865.703 92.255 92.255 0 0 0-7.981 2.56 36.562 36.562 0 0 0-9.186 5.019c-.535.401-1.087.803-1.656 1.205a38.992 38.992 0 0 0-6.827 6.023l-.552.602c-.133.168-.418.502-.853 1.004a8.182 8.182 0 0 0-1.907 4.367c-.168 1.807.485 3.196 1.957 4.166.402.234.837.402 1.305.502 1.138.167 2.159-.084 3.062-.753 1.004-.736 1.556-1.706 1.657-2.911a14.974 14.974 0 0 1 3.915-4.166 18.984 18.984 0 0 0 1.556-1.305 31.954 31.954 0 0 1 8.282-5.27 122.166 122.166 0 0 0 3.664-1.657 25.75 25.75 0 0 1 9.838-2.259Zm238.473 865.348c.008.152.025.302.05.452l.1.502c.067.167.117.334.151.502.1.167.184.317.251.451l.301.402c.1.167.217.301.351.401.101.134.218.251.352.352.301.167.619.318.953.452.301.133.619.234.954.301.368.033.736.05 1.104.05.335-.1.653-.218.954-.351.335-.134.636-.302.903-.502.268-.201.519-.419.753-.653.101-.167.201-.318.302-.452.066-.167.133-.318.2-.451l.201-.502c.033-.168.067-.352.1-.553a69.225 69.225 0 0 0 4.518-6.475h-14.607c.094 1.982.144 3.956.151 5.923.637.061 1.29.112 1.958.151Zm-430.817-6.074h-8.383c.208.705.425 1.407.653 2.109l.401 1.305c.502 1.572 1.423 2.811 2.761 3.714 1.707 1.104 3.28.92 4.718-.552 1.64-1.707 1.724-3.53.251-5.471l-.401-1.105Zm358.336-309.597h-.1l.301.05a1.229 1.229 0 0 0-.201-.05Z"/><path fill="#fff" d="M519.114 292.889a1851.754 1851.754 0 0 0-20.781-8.885 92.653 92.653 0 0 1-18.22-10.189 181.145 181.145 0 0 0-11.093-7.278 629.457 629.457 0 0 0-24.193-8.985 173.94 173.94 0 0 1-22.538-9.738 52.352 52.352 0 0 1-10.842-7.529 52.172 52.172 0 0 1-3.112-2.961 12.874 12.874 0 0 0-.903-.552l-.904-.502a11.184 11.184 0 0 0-.903-.452l-.904-.502a6.38 6.38 0 0 1-.853-.151 2.786 2.786 0 0 1-.703-.2l-.803-.301a23.638 23.638 0 0 1-.953-.452 11.369 11.369 0 0 1-.904-.452 11.917 11.917 0 0 1-.653-.401 3.978 3.978 0 0 1-.501-.603c-.036-.05-.069-.1-.101-.15l-.05-.051a2.084 2.084 0 0 0-.653-.652 4.69 4.69 0 0 1-.903-.703c-.1-.1-.218-.201-.351-.301a9.901 9.901 0 0 1-2.109-.903 87.99 87.99 0 0 1-10.089 7.679c-.334.234-.953.736-1.857 1.506a120.257 120.257 0 0 1-16.162 11.394 65.967 65.967 0 0 1-19.476 7.63 63.32 63.32 0 0 1-13.954 1.455c-1.673.067-3.246-.117-4.718-.552a9.237 9.237 0 0 1-1.405.101c-.368 0-.72-.067-1.054-.201a42.392 42.392 0 0 0-5.823.301 49.173 49.173 0 0 1-5.421.401c-.703 0-1.405-.033-2.108-.1-6.994-.703-13.402-2.426-19.224-5.17-5.522-2.643-11.01-6.174-16.464-10.591a215.06 215.06 0 0 1-15.109-13.552 69.77 69.77 0 0 1-8.884-10.792 337.385 337.385 0 0 1-12.398 6.826 62.16 62.16 0 0 1-3.012 1.506l-8.131 4.016a48.32 48.32 0 0 1-2.309 1.004 2.65 2.65 0 0 1-.301.1 4.669 4.669 0 0 1-.452.201.452.452 0 0 0 .201-.05c-.151.081-.335.181-.552.301-10.617 8.632-22.413 15.475-35.387 20.529a36.143 36.143 0 0 0-5.622 2.711 257.246 257.246 0 0 1-45.978 21.633 62.748 62.748 0 0 0-8.282 3.614 511.043 511.043 0 0 1-22.688 11.294l.502-.201c.134-.067.285-.134.452-.201-.97.435-1.891.971-2.761 1.607a77.447 77.447 0 0 0-2.66 1.957c-13.318 8.299-23.24 19.559-29.765 33.781a136.703 136.703 0 0 0-8.031 22.035 223.648 223.648 0 0 1-7.328 21.985 3.9 3.9 0 0 1 .2.402c.034.334.084.669.15 1.004-.22.79-.438 1.576-.652 2.359a6682.585 6682.585 0 0 0-12.448 45.024 1630.898 1630.898 0 0 0-12.85 49.943 284.531 284.531 0 0 0-4.668 23.642 520.866 520.866 0 0 0-6.023 46.63 647.268 647.268 0 0 0-2.158 49.04 146.212 146.212 0 0 1-4.97 36.742c.067-.335.118-.686.151-1.054a776.734 776.734 0 0 0-6.073 47.383 396.006 396.006 0 0 0-1.807 33.379c-.067 5.957.033 11.896.3 17.819.67 15.159 1.607 30.301 2.812 45.426a969.353 969.353 0 0 1 2.41 46.279c.467 15.527 1.187 31.02 2.157 46.48a2712.005 2712.005 0 0 1 2.66 49.541 289.33 289.33 0 0 1 .252 17.87h77.198a82.699 82.699 0 0 1-3.413-22.287 391.327 391.327 0 0 0-1.305-25.097c-.368-4.249-.619-8.516-.753-12.799a778.951 778.951 0 0 0-1.305-25.047 445.014 445.014 0 0 0-2.51-24.997 2891.67 2891.67 0 0 0-3.312-24.545 238.643 238.643 0 0 1-2.109-24.896c-.133-4.25-.184-8.5-.15-12.749a230.95 230.95 0 0 1 1.556-24.997c.167-1.539.351-3.095.552-4.668a.945.945 0 0 0-.05.301.107.107 0 0 1-.05.05c.098-.654.182-1.323.25-2.008-.103-.926.014-1.963.352-3.112-.087-2.501.733-4.341 2.46-5.521.289-.617.573-1.236.853-1.857a85.731 85.731 0 0 1 7.529-13.251 25.126 25.126 0 0 1 3.965-4.468 124.169 124.169 0 0 0 16.364-17.166c-.904-9.069-.168-18.104 2.208-27.105a204.658 204.658 0 0 1 8.684-25.9 45.195 45.195 0 0 1 8.884-13.854 3.453 3.453 0 0 0-.151-.451 1.99 1.99 0 0 1-.15-.402 3.607 3.607 0 0 0-.201-.351v-.051a93.857 93.857 0 0 1-6.375-24.796 131.367 131.367 0 0 1-.602-7.278c-.231-4.124.472-7.972 2.108-11.544-6.155-2.328-11.275-6.327-15.359-11.997-5.053-6.96-8.065-14.69-9.035-23.19a107.582 107.582 0 0 1-.402-20.228v-.05c.042-.263.109-.748.201-1.456a269.935 269.935 0 0 1 1.657-11.444 383.587 383.587 0 0 1 1.857-10.892.96.96 0 0 0 .05-.301c-5.421-6.024-9.637-12.85-12.649-20.479a299.228 299.228 0 0 1-4.568-12.298c-2.543-7.094-3.697-14.322-3.463-21.684 0-.669.335-1.171 1.004-1.506 2.978-1.572 4.935-.736 5.873 2.51.267.937.485 1.907.652 2.911a117.848 117.848 0 0 0 6.927 24.696 66.152 66.152 0 0 0 6.124 11.846c.115.178.232.345.351.502a311.646 311.646 0 0 1 7.981-23.24 76.2 76.2 0 0 1 5.722-11.746 50.798 50.798 0 0 0 3.112-6.174 17.366 17.366 0 0 1 2.61-4.367c1.037-1.271 2.309-1.556 3.815-.853 2.61 1.238 3.279 3.263 2.008 6.074a1778.346 1778.346 0 0 1-8.433 18.019 482.752 482.752 0 0 0-2.761 5.923 117.162 117.162 0 0 0-7.78 23.792 7.464 7.464 0 0 1-.401 1.356l.953 1.355c.536.769.77 1.606.703 2.509a75.861 75.861 0 0 1-1.707 12.8 95.459 95.459 0 0 0-2.058 14.305 95.382 95.382 0 0 0 .201 15.41 42.779 42.779 0 0 0 3.213 12.549l1.254 2.76c3.715 8.065 9.755 13.302 18.121 15.711 2.309.669 4.668.77 7.077.301a33.06 33.06 0 0 0 11.444-4.467 180.481 180.481 0 0 1 20.831-11.193c1.506-.703 3.045-.921 4.618-.653 2.911.435 3.965 2.075 3.162 4.919-.435 1.573-1.472 2.476-3.112 2.711a134.144 134.144 0 0 0-18.522 9.787c-6.157 3.882-12.849 6.291-20.077 7.228a16.983 16.983 0 0 1-4.367.051l-.051.301a54.083 54.083 0 0 0-.752 12.548c.435 7.898 2.225 15.527 5.37 22.889a37.614 37.614 0 0 1 1.607 4.568c.741.119 1.56.403 2.459.853a30.144 30.144 0 0 0 6.877 2.459c2.141.469 3.982.787 5.521.954 6.099.667 12.206 1.369 18.321 2.108a.548.548 0 0 1 .1 0l.101.05h.301a.53.53 0 0 1 .201-.05.159.159 0 0 1-.101 0c7.979.777 15.96.86 23.943.251a103.015 103.015 0 0 0 19.375-3.363c6.659-1.84 13.368-2.694 20.128-2.56.401.034.736.235 1.004.603 2.074 3.078 1.372 5.203-2.109 6.374-.903.301-1.823.552-2.76.753a1300.36 1300.36 0 0 0-24.796 4.969 80.969 80.969 0 0 1-19.074 1.858c-2.61-.101-5.22-.151-7.83-.151-2.644 0-5.271-.201-7.881-.602-1.238-.201-1.907-.301-2.008-.301l-2.007-.151a228.643 228.643 0 0 1-24.696-3.212c-2.674-.517-4.966-1.521-6.876-3.012-4.218 5.072-7.48 10.911-9.788 17.518a227.341 227.341 0 0 0-7.178 25.197c-1.305 5.823-1.523 11.612-.653 17.367.147.979.164 1.916.051 2.811.114.088.231.172.351.251a19.372 19.372 0 0 1 2.259 1.757 146.407 146.407 0 0 0 19.877 15.259 111.075 111.075 0 0 0 16.915 8.784c1.372.569 1.991 1.623 1.857 3.162-.301 3.012-1.957 4.25-4.969 3.715a7.496 7.496 0 0 1-.803-.251 94.177 94.177 0 0 1-22.136-11.344 100.803 100.803 0 0 1-16.965-14.808 776.648 776.648 0 0 1-5.17 5.221c-4.217 4.249-8.4 8.516-12.549 12.799-2.342 2.409-4.116 5.237-5.32 8.483a323.779 323.779 0 0 1-1.958 5.12 85.713 85.713 0 0 1-2.962 6.425.658.658 0 0 1 0 .15 246.008 246.008 0 0 0-1.907 25.298c-.018.938-.035 1.875-.05 2.811.053.134.103.268.15.401a31.028 31.028 0 0 1-.1-.2 51.693 51.693 0 0 0 4.718 10.139 181.858 181.858 0 0 0 6.224 9.637c.738 1.107 1.224 1.776 1.456 2.008.068.127.47.729 1.205 1.807a42.886 42.886 0 0 0 8.332 9.035c.622.513 1.091 1.015 1.405 1.506a54.128 54.128 0 0 0 7.228 3.413c4.25 1.606 8.433 3.38 12.549 5.321a273.02 273.02 0 0 0 22.387 9.436 215.782 215.782 0 0 0 24.544 7.379 236.36 236.36 0 0 0 6.626 1.505l-.803-.1a51.456 51.456 0 0 1 15.61 5.672 245.912 245.912 0 0 0 5.823 3.112c6.893 3.581 14.188 5.672 21.885 6.274 8.7.703 17.3 2.042 25.799 4.016a391.043 391.043 0 0 0 25.549 4.969 38.69 38.69 0 0 0 10.591.251 1840.315 1840.315 0 0 0 26.453-3.313 190.85 190.85 0 0 1 25.097-1.656 728.367 728.367 0 0 0 27.004-.603c10.809-.401 21.6-.535 32.375-.401 8.031.134 16.029-.101 23.993-.703a272.7 272.7 0 0 0 25.599-3.112 101.736 101.736 0 0 0 23.491-6.826 194.567 194.567 0 0 0 24.093-12.348 135.13 135.13 0 0 0 19.576-14.406 60.77 60.77 0 0 1 15.962-10.189c.277-.14.545-.274.803-.402a39.542 39.542 0 0 1 3.865-5.772c4.484-5.555 7.997-11.628 10.541-18.221 3.045-7.796 4.584-15.861 4.617-24.193a55.023 55.023 0 0 0-1.656-13.804 74.055 74.055 0 0 0-9.888-22.587c-3.407-5.2-7.958-8.797-13.653-10.792a2.365 2.365 0 0 1-1.205.352 300.497 300.497 0 0 0-19.575 11.645 425.013 425.013 0 0 0-8.182 5.32c-4.551 3.012-9.487 4.568-14.807 4.668-.235 0-.486-.067-.753-.2-2.778-2.678-2.51-5.003.803-6.977.435-.268.92-.486 1.455-.653 7.061-2.075 13.486-5.505 19.275-10.29a42.72 42.72 0 0 1 5.321-3.814 115.22 115.22 0 0 1 13-6.676c.163-.778.43-1.581.803-2.41.435-.97.736-1.991.904-3.062a163.581 163.581 0 0 0 1.305-24.896 74.22 74.22 0 0 0-.603-8.081 74.355 74.355 0 0 0-3.965-16.263 49.542 49.542 0 0 0-6.977-12.95c0-.005-.016-.022-.05-.05a32.926 32.926 0 0 1-5.17 1.405 329.538 329.538 0 0 1-21.383 3.313 63.679 63.679 0 0 1-8.382.452c-2.577-.235-5.17-.402-7.781-.502a75.699 75.699 0 0 1-7.78-.703 69.476 69.476 0 0 1-2.409-.301c.065.01.132.027.201.05a20.995 20.995 0 0 0-.301-.05h.1c-.136-.015-.27-.031-.401-.05a165 165 0 0 1-24.094-6.124 46.785 46.785 0 0 1-10.39-4.869c-1.606-1.004-2.075-2.409-1.405-4.216.937-2.543 2.643-3.296 5.119-2.259a174.525 174.525 0 0 0 28.461 8.935c1.171.267 2.342.485 3.513.652h-.15c7.204.835 14.415 1.22 21.633 1.155a85.346 85.346 0 0 0 18.823-2.209 171.833 171.833 0 0 0 7.178-1.757c1.405-.368 2.794-.719 4.166-1.054a.072.072 0 0 0 .05-.05c.122-.142.239-.292.352-.452a19.799 19.799 0 0 0 2.158-3.965 73.06 73.06 0 0 0 5.22-23.541 41.587 41.587 0 0 0-2.459-16.464 1.116 1.116 0 0 1-.201 0 409.248 409.248 0 0 0-15.611-.803 68.543 68.543 0 0 0-17.116 1.556c-1.74.402-3.513.552-5.32.452-3.715.1-7.245-.402-10.591-1.506-.67-.234-1.088-.703-1.255-1.405-.77-3.547.686-5.271 4.367-5.17 2.532.079 5.059.046 7.579-.101a74.338 74.338 0 0 0 5.12-.351c2.141-.234 4.266-.519 6.374-.853 8.199-1.305 16.414-1.239 24.646.2 1.74.301 3.38.017 4.919-.853 7.596-7.563 10.541-16.614 8.834-27.155a3647.742 3647.742 0 0 0-3.463-20.128 87.144 87.144 0 0 1-1.356-12.85 87.137 87.137 0 0 1 2.761-25.147c.104-.397.205-.799.301-1.205a119.339 119.339 0 0 0-11.795-11.896c-3.414-3.011-6.442-6.24-9.086-9.687-.301-.368-.384-.82-.251-1.355.804-2.979 2.677-4.033 5.622-3.163a237.29 237.29 0 0 1 13.402 11.846 48.614 48.614 0 0 1 4.467 4.819 442.502 442.502 0 0 0 2.309-9.688 55.931 55.931 0 0 0 1.255-9.135 172.69 172.69 0 0 1 2.861-23.039c.435-2.309 1.774-3.547 4.016-3.714 2.442-.201 3.898.903 4.367 3.312-1.774 8.366-2.979 17.15-3.614 26.352a93.432 93.432 0 0 1-4.819 23.843 71.612 71.612 0 0 0-3.815 25.197c.101 4.484.469 8.951 1.104 13.402a229.446 229.446 0 0 0 3.313 17.819c1.941 8.499 1.272 16.765-2.007 24.796-2.193 5.36-5.506 9.593-9.939 12.699 1.279 2.54 2.132 5.284 2.56 8.232.569 4.049.719 8.114.452 12.197a51.51 51.51 0 0 1-.452 3.965v.05l-.151 1.506a78.747 78.747 0 0 1-3.614 16.615c-1.069 3.3-2.508 6.345-4.316 9.135 5.03 6.553 8.46 13.847 10.29 21.885.87 3.781 1.539 7.579 2.007 11.394v.1c-.1-.602-.05-.117.151 1.456a94.359 94.359 0 0 1 .1 22.989 217.463 217.463 0 0 0-1.104 11.344 14.86 14.86 0 0 1-.351 2.359c.404.125.806.276 1.204.451 7.864 3.581 13.77 9.236 17.719 16.966a106.091 106.091 0 0 1 8.633 23.591c1.975 8.299 2.175 16.615.603 24.947a77.572 77.572 0 0 1-7.178 20.881 104.756 104.756 0 0 1-7.027 11.745 104.846 104.846 0 0 1-4.919 6.626c5.178 17.482 8.976 35.468 11.394 53.958a501.883 501.883 0 0 1 3.865 48.488c.42 13.877-2.926 26.509-10.039 37.897l77.65.05a325.85 325.85 0 0 0 5.12-59.28c-.1-20.445.201-40.874.903-61.287a2352.305 2352.305 0 0 1 2.912-61.337c.903-15.092.251-30.15-1.958-45.175a577.3 577.3 0 0 1-4.818-45.626 2041.557 2041.557 0 0 1-3.113-60.685 2220.814 2220.814 0 0 1-1.355-53.808c-.267-20.346-2.928-40.323-7.981-59.932a3065.1 3065.1 0 0 0-15.56-58.376 599.677 599.677 0 0 0-19.023-57.522 125.239 125.239 0 0 1-1.255-3.213c.134.335.267.653.401.954a253.92 253.92 0 0 0-16.212-34.383c-5.923-10.474-13.687-19.342-23.291-26.603a145.616 145.616 0 0 0-20.579-12.95ZM175.886 502.951c-2.075-.87-3.196-2.442-3.363-4.718-.167-2.342.719-4.149 2.66-5.421a7.738 7.738 0 0 1 2.008-.903c3.179-.368 5.204.903 6.074 3.814.468 1.54.234 2.979-.703 4.317-1.64 2.343-3.865 3.313-6.676 2.911Zm285.505 2.259a1.248 1.248 0 0 1-.151-.301 1.12 1.12 0 0 1-.151-.351l-.1-.301a3.93 3.93 0 0 1-1.104-2.51 4.067 4.067 0 0 1 .702-2.61c.235-.368.553-.686.954-.954 2.041-3.112 4.601-3.346 7.68-.703 1.606 1.406 1.974 3.129 1.104 5.17-1.606 3.715-4.166 4.936-7.68 3.665-.535-.201-.953-.569-1.254-1.105ZM314.623 757.988a4.72 4.72 0 0 0-1.456 1.004 31.283 31.283 0 0 0-2.108 2.108l-.602.803c.301.235.619.452.953.653.301.201.603.418.904.652.401.335.736.72 1.004 1.155l.2.502c.067.134.118.284.151.452.067.334.117.669.151 1.003 0 .335-.034.67-.101 1.004a2.79 2.79 0 0 1-.15.502 1.982 1.982 0 0 1-.302.502 2.979 2.979 0 0 1-.652.803l-.803.703a5.717 5.717 0 0 1-1.004.301c-.335.1-.686.167-1.054.201-.669.033-1.305-.151-1.907-.552a91.035 91.035 0 0 1-1.858-1.205 7.87 7.87 0 0 1-1.706-1.456 9.793 9.793 0 0 1-1.105-1.455c-1.171-8.7 2.912-13.837 12.248-15.41 7.663-1.271 14.69.168 21.081 4.317 1.74 1.138 2.945 2.71 3.614 4.718.034.234.067.485.101.753.033.234.05.469.05.703v.502c-.402 2.141-1.506 3.848-3.313 5.12a18.385 18.385 0 0 1-6.776 2.961 11.134 11.134 0 0 1-3.162.251l-.502-.1a5.894 5.894 0 0 1-.452-.201 4.369 4.369 0 0 1-.853-.502 4.033 4.033 0 0 1-.803-.703l-.302-.401-.2-.502a3.67 3.67 0 0 1-.251-1.004c-.034-.368-.05-.72-.05-1.054l.1-.502c.033-.168.1-.335.201-.502.134-.301.301-.586.502-.853.2-.268.418-.536.652-.804a5.483 5.483 0 0 1 2.108-.953 42.59 42.59 0 0 0 3.564-.854c.268-.066.535-.15.803-.251-2.008-1.171-4.216-1.99-6.625-2.459a26.82 26.82 0 0 0-8.333-.301c-.669.067-1.321.184-1.957.351Zm269.693-131.609-.401.301a52.92 52.92 0 0 0-13.703 3.664 289.68 289.68 0 0 1-13.001 5.02 11.424 11.424 0 0 1-3.815.652 2.62 2.62 0 0 0-.552-.15 3.616 3.616 0 0 1-.502-.251 1.784 1.784 0 0 1-.502-.251 5.54 5.54 0 0 1-.451-.402 1.687 1.687 0 0 1-.452-.401 5.37 5.37 0 0 1-.301-.452l-.301-.502a9.874 9.874 0 0 1-.201-.552c-.034-.402-.05-.82-.05-1.255.033-.402.117-.803.251-1.205a3.35 3.35 0 0 1 .853-1.455 1190.57 1190.57 0 0 0 14.155-5.973 54.899 54.899 0 0 1 14.305-3.865 11.197 11.197 0 0 1 3.514.05c.368.201.719.435 1.054.702.334.235.636.502.903.804.134.167.251.334.352.502.133.401.234.803.301 1.204.067.435.083.854.05 1.255 0 .201-.034.402-.1.602a6.352 6.352 0 0 1-.653 1.105 4.473 4.473 0 0 1-.753.853Zm-500.838 10.44a864.418 864.418 0 0 1-11.042-3.563 12.335 12.335 0 0 1-3.765-2.008l-.3-.402-.302-.401a1.974 1.974 0 0 1-.251-.452 3.517 3.517 0 0 1-.15-.452l-.101-.502a3.37 3.37 0 0 1-.05-.552c0-.167.017-.334.05-.502.033-.201.067-.385.1-.552l.201-.502c.067-.167.134-.318.2-.452.101-.167.202-.317.302-.451.134-.134.251-.268.351-.402l.402-.301c.134-.134.284-.234.452-.301.134-.101.284-.184.451-.251.168-.067.335-.117.502-.151.168-.067.335-.117.502-.15 4.317 1.07 8.6 2.325 12.85 3.764a64.759 64.759 0 0 1 13.452 6.274c1.07.636 1.941 1.439 2.61 2.41.067.167.134.318.201.451l.201.502.1.502c0 .168.017.335.05.502 0 .168-.016.335-.05.502l-.1.502a2.878 2.878 0 0 1-.151.502c-.067.167-.15.335-.25.502-.101.167-.202.318-.302.452-.1.134-.217.268-.351.401l-.402.302a2.684 2.684 0 0 1-.452.301c-.334.134-.669.251-1.004.351a2.742 2.742 0 0 1-1.054.1 4.41 4.41 0 0 1-1.305-.2 4.665 4.665 0 0 1-.602-.251 40.838 40.838 0 0 0-10.993-5.522Zm285.957-131.308c-1.205-1.104-1.389-2.359-.552-3.764 1.606-2.744 3.63-3.112 6.073-1.104a157.313 157.313 0 0 1 12.298 11.343 38.667 38.667 0 0 0 4.668 4.066 129.925 129.925 0 0 0 21.132 12.95 124.956 124.956 0 0 0 23.139 8.684 320.697 320.697 0 0 0 24.394 5.371 38.47 38.47 0 0 0 6.526.552c4.684 0 9.353.201 14.004.602 2.978.268 4.183 1.857 3.614 4.769-.301 1.673-1.288 2.677-2.962 3.011-.133.034-.251.05-.351.05h-.251a155.52 155.52 0 0 1-24.645-1.656 226.105 226.105 0 0 1-14.958-2.71 132.74 132.74 0 0 1-23.742-7.68 155.349 155.349 0 0 1-22.035-11.595c-6.659-4.216-12.95-9.386-18.873-15.51a156.309 156.309 0 0 0-7.479-7.379Zm-112.636-3.312c3.279-2.343 6.793-4.066 10.541-5.17.669-.201 1.271-.067 1.807.401 2.576 2.242 2.493 4.367-.251 6.375a183.634 183.634 0 0 1-7.178 5.069 226.198 226.198 0 0 1-20.73 12.248 50.784 50.784 0 0 1-5.672 2.56h-.05c.202-.041-.451.277-1.958.953a276.177 276.177 0 0 1-25.749 9.939 325.973 325.973 0 0 1-20.028 5.873 35.341 35.341 0 0 1-8.583 1.154 151.583 151.583 0 0 1-22.035-2.409c-.971-.201-1.623-.77-1.958-1.707-1.138-3.078-.084-4.902 3.162-5.471a7.67 7.67 0 0 1 2.761 0 89.065 89.065 0 0 0 24.946.402 32.388 32.388 0 0 0 6.174-1.406 1770.735 1770.735 0 0 0 23.592-8.182 202.234 202.234 0 0 0 12.548-4.818c1.707-.703 2.878-1.171 3.514-1.406-.435.134.15-.15 1.757-.853a133.793 133.793 0 0 0 23.39-13.552Zm-82.268 117.354-.101.05-.15-.05h.251Zm.552.1h-.151c-.1 0-.2-.017-.301-.05l.954.1h-.301a.327.327 0 0 1-.151-.05h-.05Zm351.108 28.661v.15a1.662 1.662 0 0 1-.05-.401l.05.251ZM378.922 8.338a31.223 31.223 0 0 0-12.449.803c-7.094 1.874-14.271 2.443-21.533 1.707a85.534 85.534 0 0 0-21.081.502 67.536 67.536 0 0 1-20.279-.05 104.926 104.926 0 0 0-20.479-1.205 69.337 69.337 0 0 0-20.329 3.965 32.203 32.203 0 0 0-8.633 4.518c-4.518 6.29-7.663 13.234-9.437 20.83a75.594 75.594 0 0 0-1.907 21.232 153.484 153.484 0 0 0 2.56 21.032 69.283 69.283 0 0 1 1.104 9.035c.034.803-.284 1.439-.954 1.907-2.074 1.54-3.798 1.54-5.17 0l-.2-.1a21.458 21.458 0 0 1-2.711-1.506 20.06 20.06 0 0 0-6.876-3.012 23.52 23.52 0 0 0-1.506.251c-.67.1-1.339.15-2.008.15h-.904c-2.375 6.86-3.112 14.089-2.208 21.685.234 1.94.318 3.898.251 5.872-.037 1.013-.07 2.017-.101 3.012-.232 6.362-.45 12.703-.652 19.024-.167 4.584 1.472 8.148 4.919 10.691a4.94 4.94 0 0 0 3.012 1.004c.2 0 .401.017.602.05a75.332 75.332 0 0 1 8.533-3.815c.736-.267 1.422-.167 2.058.301 1.974 1.439 3.095 3.481 3.363 6.124.1.937.234 1.874.401 2.811.737.736 1.172 1.824 1.306 3.263 0 .167.016.317.05.451.569.937.753 1.991.552 3.163a33.8 33.8 0 0 1-.201.853c.301 3.58.636 7.178 1.004 10.792a595.544 595.544 0 0 0 2.459 20.178c.971 6.793 3.363 13.084 7.178 18.873a75.252 75.252 0 0 0 4.518 6.174 116.033 116.033 0 0 0 14.355 14.606 133.292 133.292 0 0 0 16.313 11.946c.469.301.954.569 1.456.803h-.05c6.157 3.079 12.649 4.802 19.475 5.17a28.193 28.193 0 0 0 7.128-.502c1.706-.334 3.296-.334 4.768 0 .636-.234 1.406-.284 2.309-.15.402.067.786.217 1.155.452 8.098.669 15.995-.452 23.691-3.363a71.488 71.488 0 0 0 15.41-8.132 130.835 130.835 0 0 0 10.641-8.081c.033-.034.067-.05.1-.05a100.486 100.486 0 0 0 17.619-14.958 36.21 36.21 0 0 0 4.768-6.676 100.12 100.12 0 0 0 3.514-7.128 67.97 67.97 0 0 0 5.27-19.625c.234-1.841.301-3.715.201-5.622a115.393 115.393 0 0 1 .351-17.016 2.68 2.68 0 0 1 .151-.552c0-2.376.05-4.752.15-7.128.134-3.982 2.075-5.571 5.823-4.768a5.412 5.412 0 0 1 3.112 1.757c.301.334.602.635.903.903a3.081 3.081 0 0 0 1.657.351c.602-.033 1.188-.1 1.757-.2.535-.101 1.07-.235 1.606-.402 3.145-3.078 4.952-6.943 5.421-11.595.067-.937.184-1.857.351-2.76a214.997 214.997 0 0 0 1.556-12.298c.306-3.25.541-6.513.703-9.788.268-5.99.334-11.996.201-18.02a5.412 5.412 0 0 0-.201-1.004c-4.216-1.606-7.931-.92-11.143 2.059-.201.535-.435 1.07-.703 1.606-.736 1.506-1.941 2.225-3.614 2.158a3.879 3.879 0 0 1-1.707-.502c-.803-.468-1.372-1.12-1.706-1.958a4.299 4.299 0 0 1-.151-2.51c.067-.267.168-.518.301-.752.034-.234.101-.469.201-.703.201-7.63.234-15.292.101-22.989a359.174 359.174 0 0 0-.954-19.877 115.084 115.084 0 0 0-3.313-19.726c-1.773-6.86-5.438-12.415-10.992-16.664a3.25 3.25 0 0 0-.804-.452l.603.2a68.55 68.55 0 0 0-22.035-6.625ZM304.283 73.39a39.911 39.911 0 0 0-7.981-.603 25.75 25.75 0 0 0-9.838 2.259 122.166 122.166 0 0 1-3.664 1.656 31.954 31.954 0 0 0-8.282 5.27c-.502.47-1.021.904-1.556 1.306a14.992 14.992 0 0 0-3.916 4.166c-.1 1.205-.652 2.175-1.656 2.911-.903.67-1.924.92-3.062.753a4.411 4.411 0 0 1-1.305-.502c-1.472-.97-2.125-2.359-1.957-4.166.2-1.64.836-3.095 1.907-4.367.435-.502.719-.836.853-1.004l.552-.602a38.992 38.992 0 0 1 6.827-6.023 69.885 69.885 0 0 0 1.656-1.205 36.562 36.562 0 0 1 9.186-5.02 92.29 92.29 0 0 1 7.981-2.56 19.147 19.147 0 0 1 3.865-.702c3.446-.268 6.893-.2 10.34.2a40.773 40.773 0 0 1 9.938 2.46c2.108.837 4.166 1.724 6.174 2.66.234.101.468.235.703.402 1.673 2.209 1.489 4.216-.553 6.023a2.711 2.711 0 0 1-2.108.703 10.953 10.953 0 0 1-3.814-.903 46.212 46.212 0 0 0-10.29-3.112Zm-12.448 30.116c-3.146.134-5.254-1.188-6.325-3.965a3.196 3.196 0 0 1-.1-2.36c.836-2.576 2.56-4.3 5.17-5.17 3.748-1.237 6.977-.535 9.687 2.109.368.368.619.786.753 1.255.736 2.81-.167 4.952-2.71 6.425a12.927 12.927 0 0 1-6.475 1.706Zm57.522-26.904c-1.907 1.305-3.697 1.171-5.371-.401-.937-.87-1.271-1.958-1.004-3.263.402-1.807 1.49-3.112 3.263-3.915a24.37 24.37 0 0 0 1.656-.803 34.38 34.38 0 0 1 14.507-3.915c1.606-.068 3.195 0 4.768.2a47.107 47.107 0 0 1 10.29 2.259 88.619 88.619 0 0 1 9.436 3.865 172.234 172.234 0 0 1 9.587 4.919 22.61 22.61 0 0 1 4.317 3.212c.536.502.82 1.105.854 1.807.2 2.443-.887 3.932-3.263 4.468a3.47 3.47 0 0 1-1.657 0 249.615 249.615 0 0 1-7.127-3.865 161.25 161.25 0 0 0-7.178-3.765 28.276 28.276 0 0 0-1.757-.853c-.033 0-.117-.05-.251-.15l.101.1a5.936 5.936 0 0 1-.452-.201h.1l-.502-.2c-3.078-1.44-6.408-2.527-9.988-3.263a27.143 27.143 0 0 0-10.892-.1c-3.447.635-6.593 1.923-9.437 3.864Zm18.07 16.012a9.58 9.58 0 0 1 5.371-.853c3.447.468 5.253 2.493 5.421 6.073a4.025 4.025 0 0 1-.904 2.861c-1.807 2.276-4.199 3.413-7.177 3.413-.134 0-.268-.016-.402-.05h-.351a1.132 1.132 0 0 0-.352-.05 4.746 4.746 0 0 1-1.405-.753 4.353 4.353 0 0 1-.853-.903 2.995 2.995 0 0 1-1.155-1.255 1.921 1.921 0 0 0-.1-.251c-1.506-1.272-1.874-2.928-1.105-4.97.536-1.472 1.54-2.56 3.012-3.262Zm-33.881 43.117c.468 1.773.067 3.346-1.205 4.718a34.318 34.318 0 0 0-3.363 4.267c-1.706 2.543-1.823 5.103-.351 7.679.268.168.569.301.903.402.369.1.737.184 1.105.251h-.101a.896.896 0 0 1 .251.05 62.01 62.01 0 0 0 10.29.351l1.406-.1c2.442-.134 3.915.987 4.417 3.363.234 1.205-.067 2.242-.904 3.112-1.071 1.104-2.392 1.707-3.965 1.807a27.969 27.969 0 0 1-5.02-.05c-3.513 0-6.96-.485-10.34-1.456-2.61-.736-4.5-2.342-5.672-4.818-1.606-3.28-1.89-6.66-.853-10.14a21.014 21.014 0 0 1 5.321-8.884c.2-.167.385-.351.552-.552 1.071-2.41 2.861-3.179 5.371-2.309 1.104.401 1.823 1.171 2.158 2.309Zm-89.597-31.472c1.941-.468 3.48.117 4.618 1.757 1.104 1.539 1.071 3.045-.1 4.517-.971 1.172-2.242 1.841-3.815 2.008a7.167 7.167 0 0 0-1.807.452c-2.51.97-4.149 2.694-4.919 5.17-.067.134-.084.301-.05.502v.1c.033.067.05.117.05.151 0 .033.017.083.05.15 1.105 1.339 2.594 2.025 4.468 2.058 1.94.034 3.864.168 5.772.402.736.1 1.489.217 2.259.351 1.673.536 2.61 1.673 2.81 3.413.201 1.607-.384 2.861-1.756 3.765-.971.636-2.025.82-3.163.552-3.513-.334-6.977-.82-10.39-1.455a9.675 9.675 0 0 1-4.618-2.259c-2.135-1.885-3.273-4.127-3.413-6.726-.041-.84.026-1.727.201-2.661.569-3.078 2.075-5.638 4.517-7.679 2.711-2.276 5.806-3.798 9.286-4.568Zm181.352 18.773c-.093.946-.31 1.9-.653 2.861a6.534 6.534 0 0 1-1.556 2.459 23.998 23.998 0 0 1-9.637 5.923 10.124 10.124 0 0 1-3.313.552c-2.342.067-4.434-.535-6.274-1.807a2.18 2.18 0 0 1-.853-1.054c-.87-2.309-.234-4.049 1.907-5.22.937-.502 1.907-.619 2.911-.351 2.711.702 5.204.134 7.479-1.707.603-.468 1.188-.97 1.757-1.506.167-.134.301-.318.402-.552a3.81 3.81 0 0 0-.402-1.456 5.883 5.883 0 0 0-.803-1.405 5.086 5.086 0 0 0-.552-.652 4.752 4.752 0 0 0-.904-.302 6.15 6.15 0 0 0-1.104-.1h-.753c-2.074 1.573-4.015 1.405-5.822-.502a3.223 3.223 0 0 1-.854-2.359c.168-2.342 1.406-3.865 3.715-4.568 3.547-1.071 6.893-.652 10.039 1.255a10.433 10.433 0 0 1 2.861 2.56c1.908 2.511 2.711 5.154 2.409 7.931Zm-61.89 66.858c1.339-.301 2.477.067 3.414 1.105 1.405 1.639 1.455 3.329.15 5.069a10.158 10.158 0 0 1-2.007 1.958 424.117 424.117 0 0 1-6.275 4.367 39.711 39.711 0 0 1-8.934 4.417 60.594 60.594 0 0 1-9.387 2.509.222.222 0 0 1-.1.051c-1.707.334-3.43.485-5.17.451a73.227 73.227 0 0 1-10.491-.552 62.333 62.333 0 0 1-7.78-1.506 54.217 54.217 0 0 1-9.737-3.664 69.035 69.035 0 0 1-5.723-3.212 18.424 18.424 0 0 1-4.065-3.464c-1.74-1.94-1.874-3.915-.402-5.922.603-.87 1.422-1.339 2.46-1.406 1.907-.167 3.279.586 4.116 2.259a43.574 43.574 0 0 0 8.683 5.27 41.19 41.19 0 0 0 9.939 3.062 90.736 90.736 0 0 0 10.39 1.205 30 30 0 0 0 11.294-1.556 100.838 100.838 0 0 0 5.973-2.309 40.206 40.206 0 0 0 9.988-6.274c1.071-.971 2.293-1.59 3.664-1.858Zm-22.486 21.483a.475.475 0 0 0-.201.051c.033-.034.067-.051.1-.051h.101Z"/><path fill="#333" d="M110.934 799.8a15.447 15.447 0 0 1-1.656-.653 371.521 371.521 0 0 0-4.016 19.928 1169.033 1169.033 0 0 0-4.166 26.402 3658.66 3658.66 0 0 1-2.962 20.328c-.063.453-.18.855-.35 1.205l.05 1.205c.3 8.432.719 16.865 1.254 25.298.402 7.027.837 14.037 1.305 21.031a67.233 67.233 0 0 0 3.564 17.518h428.458v-5.271a103.786 103.786 0 0 1-.051-12.498c.402-6.759.335-13.502-.2-20.228a49.406 49.406 0 0 0-.603-4.468 172.455 172.455 0 0 1-2.61-24.846 347.484 347.484 0 0 1 0-25.047c.268-8.265.117-16.514-.451-24.745a130.776 130.776 0 0 1-.251-10.892c.029-.933.062-1.87.1-2.811-5.093 3.398-9.745 6.911-13.954 10.54a70.116 70.116 0 0 1-7.83 5.873 244.684 244.684 0 0 1-22.136 12.599 106.226 106.226 0 0 1-25.348 8.934 241.332 241.332 0 0 1-26.001 4.116 255.464 255.464 0 0 1-24.846 1.305c-8.867.067-17.735.118-26.603.151-10.239.034-20.462.134-30.668.301-8.232.167-16.431.586-24.595 1.255-8.567.703-17.1 1.74-25.6 3.112a104.461 104.461 0 0 1-19.374 1.305 240.438 240.438 0 0 1-24.294-4.467 168.115 168.115 0 0 0-24.746-4.066 101.572 101.572 0 0 1-13.051-2.058 56.457 56.457 0 0 1-11.846-4.116l.502.201a275.065 275.065 0 0 0-9.888-4.317 122.666 122.666 0 0 1-9.035-4.166 18.26 18.26 0 0 0-5.019-1.706c.113.033.23.05.351.05a172.756 172.756 0 0 1-22.738-5.923 362.098 362.098 0 0 1-22.688-8.483 739.752 739.752 0 0 1-21.834-9.487 51.241 51.241 0 0 0-6.174-2.409Z"/></svg>