<svg xmlns="http://www.w3.org/2000/svg" width="680" height="943" fill="none"><g clip-path="url(#a)"><path fill="#fff" d="M578.457 321.135a34.873 34.873 0 0 0-4.958-5.408c-12.57-8.21-26.025-14.853-40.363-19.932a1744.793 1744.793 0 0 0-46.723-15.774 330.148 330.148 0 0 1-45.521-18.529 1062.88 1062.88 0 0 1-25.439-13.07 6.002 6.002 0 0 1-1.052-.251 188.807 188.807 0 0 0-3.105-1.953 121.18 121.18 0 0 1-1.903-1.001 875.64 875.64 0 0 1-.15-.201 130.683 130.683 0 0 0-3.055-1.752 89.493 89.493 0 0 1-9.164 6.86c-.334.234-.952.735-1.853 1.503a120.008 120.008 0 0 1-16.125 11.367 65.788 65.788 0 0 1-19.43 7.612 63.158 63.158 0 0 1-13.922 1.452c-1.669.067-3.238-.116-4.707-.55-.434.066-.902.1-1.403.1-.367 0-.717-.067-1.051-.201a42.34 42.34 0 0 0-5.809.301 49.202 49.202 0 0 1-5.409.401c-.701 0-1.402-.034-2.103-.101-6.978-.701-13.371-2.42-19.18-5.158-5.508-2.637-10.984-6.159-16.425-10.566a214.294 214.294 0 0 1-15.074-13.521 70.875 70.875 0 0 1-6.26-7.111 40.736 40.736 0 0 1-7.962 3.856l-1.402.751a70.923 70.923 0 0 0-9.114 5.609c-1.543 1.132-3.162 1.833-4.858 2.103-1.869 1.453-3.972 2.621-6.31 3.505a103.212 103.212 0 0 1-16.826 4.808 77.815 77.815 0 0 0-6.811 1.703c-.367.1-1.836.634-4.407 1.602a383.32 383.32 0 0 1-44.168 13.972 66.695 66.695 0 0 0-14.323 5.358 297.244 297.244 0 0 0-41.965 25.891 94.426 94.426 0 0 0-9.064 7.712 322.785 322.785 0 0 1-3.956 3.755c.068.249.118.5.15.752-.034.233-.067.484-.1.751-.067.267-.15.517-.25.751-.1.267-.201.517-.301.751-.434.401-.868.768-1.302 1.102-.267.233-.518.434-.751.601-.267.2-.518.4-.751.601a7.87 7.87 0 0 0-.551.4 219.465 219.465 0 0 0-20.382 39.061 215.532 215.532 0 0 0-12.97 47.524 2631.294 2631.294 0 0 1-3.406 21.634c.02-.149.037-.299.05-.451a505.297 505.297 0 0 1-8.112 39.762 2175.724 2175.724 0 0 1-10.617 41.064 90.19 90.19 0 0 0-2.103 9.765c.02-.151.037-.301.05-.45-.036.257-.07.507-.1.751l-.05.35a316.162 316.162 0 0 0-2.855 45.922 285.076 285.076 0 0 1-3.105 44.62 1887.569 1887.569 0 0 1-7.611 47.023 825.838 825.838 0 0 0-6.36 43.468 563.02 563.02 0 0 0-3.506 46.222 295.85 295.85 0 0 0 2.154 47.724c2.07 16.359 4.49 32.668 7.26 48.926 2.605 15.357 4.475 31.282 5.61 47.775.4 6.276.467 12.553.2 18.829a281.105 281.105 0 0 0 1.002 41.114h78.872c-4.822-7.133-7.026-15.362-6.61-24.689.668-15.123 2.754-30.547 6.26-46.272a367.457 367.457 0 0 0 7.311-47.373c1.369-15.892 2.755-31.683 4.157-47.374a418.096 418.096 0 0 1 7.011-47.224 466.578 466.578 0 0 0 7.361-47.574 133.014 133.014 0 0 1 2.654-16.526c.343-2.286.76-4.573 1.252-6.86l1.402-6.41c.019-.066.036-.132.051-.201a.894.894 0 0 1-.051.301c.912-5.18 1.73-10.355 2.454-15.524a135.33 135.33 0 0 1 2.755-14.223c.142-.594.259-1.195.35-1.802a85.33 85.33 0 0 1 3.756-18.98 617.254 617.254 0 0 0 5.258-17.427 35.175 35.175 0 0 1 1.753-4.858c.1-.133.2-.25.3-.35l.251-.251c.135-.714.269-1.432.4-2.153a323.393 323.393 0 0 0 5.008-47.474 365.89 365.89 0 0 0-1.753-48.025 54.325 54.325 0 0 1 0-11.317c.086-2.637.269-5.274.551-7.913.334-3.372.418-6.76.251-10.166a13.659 13.659 0 0 1 0-1.402 434.551 434.551 0 0 1-3.556-10.616c-1.97-6.21-2.671-12.436-2.103-18.679.033-.601.35-1.019.951-1.252 3.606-1.503 5.709-.318 6.31 3.555a156.064 156.064 0 0 0 5.459 23.387 5.347 5.347 0 0 1 .5.701c.067.133.134.283.201.45l.2.501c.035.44.052.874.05 1.302a177.948 177.948 0 0 0 2.905 7.812 308.694 308.694 0 0 0 9.414 21.534c4.274 8.914 10.049 16.609 17.327 23.086.401.367.768.718 1.102 1.052.2.247.367.497.501.751a279.85 279.85 0 0 0 33.252 13.421c17.861 5.875 34.971 4.707 51.33-3.506a55.512 55.512 0 0 0 14.973-10.917c8.714-8.847 18.028-16.826 27.944-23.937h.55c.167 0 .334.017.501.05.167 0 .334.033.501.1.167.033.334.084.501.15.167.067.317.134.45.201.167.1.318.2.451.3.134.1.267.217.401.351.133.133.25.267.35.4l.301.401c.067.167.15.334.25.501.067.167.117.334.15.5l.101.501c.033.167.033.351 0 .551v.501l-.101.501a3.812 3.812 0 0 0-.15.45c-.067.167-.15.334-.25.501a1.568 1.568 0 0 1-.301.401l-.3.4a435.002 435.002 0 0 0-28.394 25.44c-10.25 9.982-22.419 15.791-36.507 17.427a59.48 59.48 0 0 1-10.617.351 107.755 107.755 0 0 1-30.447-6.11 274.043 274.043 0 0 1-28.945-12.069 71.351 71.351 0 0 1-8.964-5.108 2.662 2.662 0 0 0-.251-.4 6.055 6.055 0 0 0-.2-.451 5.511 5.511 0 0 1-.2-.451 9.496 9.496 0 0 0-.101-.45 2.58 2.58 0 0 1-.05-.501v-.501c0-.133.017-.284.05-.451 0-.167.034-.333.101-.5a.24.24 0 0 0 0-.1c-.392-.5-.776-1.017-1.152-1.553l-1.152-1.703c-.133-.166-.734-1.018-1.803-2.554a139.442 139.442 0 0 1-14.322-26.391c.027.083.044.167.05.251.084 1.12.017 2.205-.2 3.255a604.276 604.276 0 0 1 1.803 42.816 326.72 326.72 0 0 1-3.055 46.773 2029.112 2029.112 0 0 0-5.709 44.82 755.06 755.06 0 0 0-4.107 49.177 2229.849 2229.849 0 0 1-1.802 29.746 4452.87 4452.87 0 0 0-2.955 47.524c-.558 10.306-1.125 20.589-1.703 30.848a5390.062 5390.062 0 0 1 33.252 7.312 669.11 669.11 0 0 0 35.355 6.961 630.146 630.146 0 0 0 33.452 4.807 1384.977 1384.977 0 0 0 35.205 3.756 1335.673 1335.673 0 0 0 34.704 2.854 811.017 811.017 0 0 0 34.905 1.753c9.882.267 19.781.05 29.696-.651a162.12 162.12 0 0 1 9.915-.401 371.208 371.208 0 0 0 36.507-2.203 385.05 385.05 0 0 0 35.355-5.559 2387.693 2387.693 0 0 0 26.041-5.558 377.232 377.232 0 0 0 19.53-4.858c-1.338-15.043-.987-30.117 1.052-45.22a559.38 559.38 0 0 0 2.604-23.587 1730.843 1730.843 0 0 0 3.355-47.424 275.59 275.59 0 0 0-.701-39.812c-.444-1.221-.911-2.44-1.402-3.656-.067-.2-.117-.4-.15-.601a14 14 0 0 1 .25-1.252c.067-.333.167-.651.301-.951.1-.134.2-.284.3-.451l-.1-.851a398.099 398.099 0 0 1-2.804-48.025c0-15.925-.034-31.833-.101-47.724l-8.463-4.057a112.06 112.06 0 0 1-15.424 12.119c-6.71 4.34-13.988 7.362-21.834 9.064a41.541 41.541 0 0 1-9.515 1.002 223.137 223.137 0 0 1-40.963-8.163 185.083 185.083 0 0 1-38.16-16.325 65.473 65.473 0 0 0-8.313-3.956.813.813 0 0 1-.2-.05c-.216-.087-.433-.17-.651-.251a61.382 61.382 0 0 0-2.905-1.001 5.353 5.353 0 0 1-.45-.401 2.871 2.871 0 0 1-.451-.451 4.482 4.482 0 0 1-.351-.501c-.1-.166-.2-.35-.3-.55a4.093 4.093 0 0 0-.15-.601 4.538 4.538 0 0 1-.05-.651 120.554 120.554 0 0 1-3.556-3.456l-7.512-7.612a13.365 13.365 0 0 1-2.454-3.355l-.1-.601a4.004 4.004 0 0 1 0-1.252c.034-.2.067-.417.1-.651.201-.367.418-.717.652-1.051.233-.301.484-.585.751-.852.133-.1.283-.2.45-.3.134-.067.284-.134.451-.2l.501-.201.501-.1h1.001l.501.1.501.201.501.2a86.91 86.91 0 0 1 7.762 7.512c2.136 2.37 4.323 4.69 6.56 6.96a89.092 89.092 0 0 1 1.803 1.753c.1.067.183.117.25.15.167.067.317.151.451.251.133.1.25.2.35.3l.351.351c.1.133.183.267.25.4A2234.767 2234.767 0 0 0 414.05 523a173.093 173.093 0 0 0 17.678 6.159c11.151 3.238 22.418 4.424 33.803 3.556a29.678 29.678 0 0 0 11.267-3.055 142.535 142.535 0 0 0 28.645-18.629l.501-.1c.167 0 .333-.017.5-.05a2.504 2.504 0 0 1 .702.1c.359-.291.742-.575 1.151-.852a34.659 34.659 0 0 0 3.305-2.654c7.612-7.044 12.904-15.624 15.875-25.74a114.355 114.355 0 0 0 3.806-18.979 306.79 306.79 0 0 1 4.707-29.496c.134-.601.535-.985 1.202-1.152 3.306-.868 5.158.401 5.559 3.806a5838.478 5838.478 0 0 1-4.106 33.853c-1.269 10.082-4.424 19.58-9.465 28.494a61.155 61.155 0 0 1-5.559 8.213c.295 15.295.328 30.569.1 45.821-.2 16.292.284 32.534 1.453 48.726.619 8.382 1.187 16.762 1.702 25.139 4.655 12.59 10.514 24.775 17.578 36.557 3.906 6.51 5.425 13.738 4.557 21.684a254.86 254.86 0 0 0-.852 45.972 411.48 411.48 0 0 0 2.655 25.79 581.016 581.016 0 0 1 10.566 50.929 406.377 406.377 0 0 0 8.363 39.362 312.312 312.312 0 0 1 8.413 45.621 117.279 117.279 0 0 1-2.253 38.76c.033-.167.066-.35.1-.551a2.58 2.58 0 0 0 .05-.501 133.806 133.806 0 0 1-2.254 10.767 367.613 367.613 0 0 0-1.802 7.762v4.307h80.575l.651-.401a6.766 6.766 0 0 1-.35-.55 22.983 22.983 0 0 0-.201-.752l-.1-.801c.446-2.178.88-4.532 1.302-7.061a306.797 306.797 0 0 0 1.653-11.418c.067-.503.134-1.021.2-1.552a407.491 407.491 0 0 0 2.905-47.725c0-16.025.167-32.033.5-48.024a675.773 675.773 0 0 0-.701-47.975 1909.342 1909.342 0 0 0-3.004-47.975 3172.034 3172.034 0 0 0-3.856-47.123 1592.545 1592.545 0 0 0-4.908-47.024 469.322 469.322 0 0 1-3.105-47.423 367.507 367.507 0 0 0-3.656-47.274 295.468 295.468 0 0 1-2.353-23.587 314.092 314.092 0 0 0-6.561-47.624 959.667 959.667 0 0 1-8.863-46.723 266.476 266.476 0 0 0-11.669-45.671 58.02 58.02 0 0 1-1.352-4.407 125.127 125.127 0 0 1-3.355-7.812 327.678 327.678 0 0 0-3.756-9.465 73.161 73.161 0 0 1-.951-2.354 74.367 74.367 0 0 1-.2-.5l-.101-.251-.1-.25a210.697 210.697 0 0 0-9.615-20.031 174.468 174.468 0 0 0-12.569-19.731ZM211.084 574.179a34.854 34.854 0 0 1-6.36-1.602 18.005 18.005 0 0 1-5.508-3.105 4.547 4.547 0 0 1-1.302-1.753 2.894 2.894 0 0 0-.151-.501l-.1-.5v-1.002l.1-.501c.034-.167.084-.334.151-.5.066-.167.15-.318.25-.451.067-.167.167-.317.301-.451.1-.133.217-.267.35-.401.1-.133.217-.267.351-.4.167-.067.317-.15.45-.251.167-.1.334-.166.501-.2l.501-.2.501-.1c.167 0 .334-.017.5-.05.167.033.334.05.501.05l.501.1c.167.033.334.083.501.15 9.448 4.54 19.614 5.976 30.497 4.307a553.27 553.27 0 0 1 11.118-1.703c14.589-2.237 28.411-6.861 41.464-13.871 4.774-2.571 9.732-4.341 14.873-5.309.167.067.318.134.451.201l.501.2.401.3c.133.134.267.251.4.351.1.133.217.267.351.401.1.166.183.317.25.45.1.167.184.334.25.501.067.134.117.284.151.451.066.167.117.35.15.551 0 .167.017.333.05.5l-.1.601a2.702 2.702 0 0 1-.15.601l-.201.601c-.1.2-.217.384-.35.551a5.535 5.535 0 0 1-.401.451 5.368 5.368 0 0 1-.451.4 4.947 4.947 0 0 1-.45.301c-.368.133-.718.25-1.052.35a2.894 2.894 0 0 1-.501.151l-1.302.5c-.058.02-.125.037-.2.05-13.975 7.14-28.531 12.498-43.668 16.076a151.357 151.357 0 0 1-39.512 4.106 53.458 53.458 0 0 1-4.607-.401Zm179.38-35.405.5.1a233.188 233.188 0 0 1 6.06 5.559 55.795 55.795 0 0 1 4.557 4.958 165.682 165.682 0 0 0 37.508 13.921 167.693 167.693 0 0 0 45.622 4.457c3.772-.167 7.411.351 10.917 1.553.133.1.25.2.35.3l.301.401c.1.1.2.217.3.35.067.167.15.318.25.451.067.134.117.284.151.451.066.167.117.317.15.45.033.167.05.334.05.501.033.167.05.334.05.501 0 .134-.017.284-.05.451a9.577 9.577 0 0 1-.1.45 2.98 2.98 0 0 1-.15.501 1.986 1.986 0 0 1-.251.451 1.35 1.35 0 0 1-.3.451l-.301.4-.4.301c-.134.1-.284.2-.451.3l-.601.301c-.234.066-.451.133-.651.2h-1.252a17.707 17.707 0 0 0-.551-.1c-14.689 0-29.312-.985-43.868-2.955-14.756-2.003-28.795-6.326-42.116-12.97a170.866 170.866 0 0 1-6.009-3.155l-.701.1c-.167 0-.351-.016-.551-.05l-.501-.1-.501-.2a5.829 5.829 0 0 1-.45-.201 34.786 34.786 0 0 0-2.054-2.253c-.29-.18-.59-.364-.901-.551-.1-.134-.2-.284-.3-.451a3.235 3.235 0 0 1-.201-.4 42.269 42.269 0 0 0-2.103-1.803 30.218 30.218 0 0 1-5.058-5.058 7.929 7.929 0 0 1-1.352-2.704c0-.468.017-.935.05-1.402.033-.434.117-.852.25-1.252a1.57 1.57 0 0 1 .201-.551c.267-.301.551-.584.851-.852.301-.233.634-.45 1.002-.651.167-.1.333-.183.5-.25.334-.033.685-.05 1.052-.05.334 0 .684.033 1.052.1Zm-38.961 149.233c.134.1.25.233.351.4.066.134.133.284.2.451.067.167.117.334.15.501.067.167.1.334.1.501.034.166.05.333.05.5v.501l-.1.501-.2.501c-.067.167-.15.334-.251.5l-.3.501-.401.401c-.167.133-.333.25-.5.35a1.99 1.99 0 0 1-.501.301c-.2.1-.384.184-.551.25-.2.034-.401.084-.601.15-.1.134-.217.284-.351.451a5.353 5.353 0 0 1-.45.401c-.167.133-.334.25-.501.35-.2.101-.417.184-.651.251-.2.1-.417.167-.651.2-.2.033-.417.067-.651.1-.2-.033-.384-.05-.551-.05-.2-.033-.384-.067-.551-.1a71.843 71.843 0 0 1-4.657-1.052 22.398 22.398 0 0 1-4.557-1.602 5.45 5.45 0 0 1-1.753-1.252 4.07 4.07 0 0 1-.601-1.202 4.008 4.008 0 0 1-.25-1.352c.033-.434.117-.885.25-1.352.134-.434.351-.835.651-1.202 2.003-1.569 4.34-2.454 7.011-2.654 4.173-.301 7.779.951 10.817 3.756Zm-149.984-40.764.401-.3c.133-.1.284-.201.451-.301.133-.067.283-.133.45-.2l.501-.2.501-.101c.167 0 .334-.016.501-.05a291.094 291.094 0 0 1 16.926 5.859 640.304 640.304 0 0 1 17.227 6.861c1.669.701 3.338 1.419 5.008 2.154l4.106 1.752a102.161 102.161 0 0 0 8.764 3.305 15.92 15.92 0 0 1 5.008 2.755c.1.133.183.283.25.45.133.201.234.401.3.601.067.201.117.401.151.601.066.201.116.401.15.601-.034.234-.05.451-.05.651-.034.2-.084.401-.15.601a2.894 2.894 0 0 1-.151.501 5.668 5.668 0 0 1-.2.451c-.1.167-.2.317-.3.45a3.814 3.814 0 0 1-.351.401c-.1.1-.234.2-.401.3l-.4.301c-.167.1-.317.183-.451.25-.167.067-.35.134-.551.201-.167.033-.35.066-.551.1H257.607a2.98 2.98 0 0 1-.501-.15 1108.406 1108.406 0 0 1-23.787-9.515 620.159 620.159 0 0 0-24.138-9.315 98.745 98.745 0 0 1-7.311-3.005 3.8 3.8 0 0 1-.401-.35l-.3-.401a1.324 1.324 0 0 1-.301-.45 1.983 1.983 0 0 1-.25-.451 2.89 2.89 0 0 0-.15-.501l-.1-.501a2.762 2.762 0 0 1 0-1.051l.1-.501c.066-.167.117-.351.15-.551.1-.134.2-.284.3-.451.067-.133.167-.267.301-.4l.3-.401Zm296.112 14.172a2.894 2.894 0 0 1-.151.501 3.44 3.44 0 0 1-.25.501c-.1.133-.2.284-.3.451a365.971 365.971 0 0 1-20.082 14.773 239.18 239.18 0 0 1-19.48 12.068 16.704 16.704 0 0 1-4.958 1.803c-.167 0-.35-.017-.551-.05-.167-.033-.35-.067-.55-.1a1.592 1.592 0 0 1-.501-.2 6.04 6.04 0 0 1-.451-.201c-.167-.1-.317-.2-.451-.3-.133-.1-.25-.217-.35-.351a1.738 1.738 0 0 1-.351-.35c-.1-.167-.2-.317-.3-.451a6.04 6.04 0 0 1-.201-.451l-.2-.501-.1-.6a4.687 4.687 0 0 1-.05-.651c.1-.401.217-.802.35-1.202.167-.401.351-.768.551-1.102a264.858 264.858 0 0 0 20.983-12.82 372.108 372.108 0 0 0 17.878-12.87 19.418 19.418 0 0 1 5.108-2.905c.4 0 .784.034 1.152.101.4.066.801.166 1.202.3a7.261 7.261 0 0 1 1.752 1.753c.134.4.234.801.301 1.202.066.367.083.734.05 1.101 0 .201-.017.384-.05.551Zm-273.476-153.89c-1.035-2.904-.151-5.224 2.654-6.96a5.59 5.59 0 0 1 2.904-.802c3.339 0 4.774 1.67 4.307 5.008-.735 2.003-2.053 3.422-3.956 4.257-1.503.634-2.972.601-4.407-.1a3.802 3.802 0 0 1-1.502-1.403Zm234.014 3.556c.668 1.135.768 2.287.301 3.455a3.98 3.98 0 0 1-.952 1.503c-.367.3-.751.551-1.152.751-.4.2-.818.367-1.252.501a5.943 5.943 0 0 1-1.252.25 2.562 2.562 0 0 0-.5-.05 17.184 17.184 0 0 1-.551-.1c-1.202-.367-2.053-1.119-2.554-2.254-.501-1.168-.468-2.337.1-3.505.2-.401.467-.751.801-1.052.468-.4.985-.734 1.553-1.001a4.684 4.684 0 0 1 1.752-.451h.902c1.235.234 2.17.885 2.804 1.953Zm145.777 133.358h.551c.167 0 .351.016.551.05l.501.1c.167.067.317.134.451.2l.5.201.401.3c.133.1.267.217.401.351.1.1.2.217.3.35.134.134.234.284.301.451.1.167.2.35.3.551.067.2.117.417.15.651l.1.601v.651c-.033.2-.083.4-.15.601l-.2.5a6.293 6.293 0 0 1-.2.451 1.986 1.986 0 0 1-.251.451c-5.108 4.674-10.934 8.012-17.477 10.015a54.309 54.309 0 0 1-17.027 2.304l-2.654-.1c-.768 0-1.535-.017-2.303-.05a27.173 27.173 0 0 0-2.354 0 6.119 6.119 0 0 1-2.354-.351 7.132 7.132 0 0 0-.45-.25l-.401-.301c-.167-.1-.3-.217-.401-.35a1.38 1.38 0 0 1-.35-.401l-.301-.4a6.498 6.498 0 0 1-.2-.451l-.2-.501-.1-.501a3.31 3.31 0 0 1-.051-.551c0-.167.017-.35.051-.55l.1-.501.2-.501c.067-.133.134-.284.2-.451l.301-.4a3.8 3.8 0 0 1 .35-.401c.101-.133.234-.25.401-.35l.401-.301c.133-.067.283-.133.45-.2l.501-.201a87.393 87.393 0 0 0 21.884-1.652c6.01-1.235 11.335-3.94 15.975-8.113a3.806 3.806 0 0 1 2.103-.951ZM69.263 626.361c.067-.134.134-.284.2-.451l.301-.401c.1-.133.217-.267.35-.4l.351-.351c.167-.1.317-.2.45-.3.168-.067.318-.134.451-.201l.501-.2.501-.1c.2-.034.384-.05.55-.05.201 0 .385.016.552.05.167.033.35.067.55.1l.501.2a6.997 6.997 0 0 1 .902.551c.133.1.25.217.35.351.134.133.25.267.35.4.101.167.201.317.301.451l.2.501.201.501c.033.167.067.35.1.551 4.073 4.34 8.964 7.595 14.673 9.765 1.66.643 3.33 1.261 5.008 1.853a179.652 179.652 0 0 0 14.522 4.456 397.11 397.11 0 0 1 8.964 2.504c.167.134.334.284.501.451.134.134.267.284.401.451.133.133.25.3.35.501.101.167.201.35.301.551.067.2.117.4.15.6.067.201.1.418.1.651 0 .201-.016.401-.05.601 0 .234-.033.451-.1.651a2.805 2.805 0 0 1-.15.501c-.067.134-.15.284-.251.451-.066.133-.15.267-.25.4-.134.134-.25.268-.351.401-.133.134-.267.25-.4.351-.134.1-.267.183-.401.25-.233.134-.45.234-.651.3-.234.067-.451.134-.651.201-.234.033-.451.05-.651.05s-.4-.017-.601-.05c-.167 0-.35-.017-.551-.05a157.142 157.142 0 0 1-23.987-6.811c-7.879-2.938-14.89-7.194-21.033-12.77-2.103-1.903-3.021-4.223-2.754-6.961l.2-.5Zm27.443 12.569a5.972 5.972 0 0 1-.45-.2l.15.05c.1.033.2.083.3.15Zm558.721 292.406v.25a1.428 1.428 0 0 0-.05.301c0-.205.017-.389.05-.551ZM446.651 126.832a269.21 269.21 0 0 0 .201-17.978 5.365 5.365 0 0 0-.201-1.001c-4.206-1.603-7.912-.918-11.117 2.053-.2.534-.434 1.068-.701 1.602-.735 1.503-1.936 2.22-3.606 2.154a3.88 3.88 0 0 1-1.702-.501 3.88 3.88 0 0 1-1.703-1.953 4.28 4.28 0 0 1-.15-2.504c.066-.267.167-.518.3-.751.034-.234.1-.468.2-.701.201-7.612.234-15.257.101-22.936-.134-6.61-.451-13.22-.952-19.831a114.85 114.85 0 0 0-3.305-19.68c-1.769-6.845-5.425-12.387-10.967-16.627-.267-.2-.534-.35-.801-.45l.601.2a68.398 68.398 0 0 0-21.985-6.61 31.146 31.146 0 0 0-12.419.801c-7.078 1.87-14.239 2.437-21.484 1.703a85.33 85.33 0 0 0-21.032.5 67.385 67.385 0 0 1-20.232-.05 104.689 104.689 0 0 0-20.432-1.201 69.173 69.173 0 0 0-20.281 3.956 32.15 32.15 0 0 0-8.614 4.507c-4.507 6.276-7.645 13.204-9.414 20.782a75.358 75.358 0 0 0-1.903 21.183 153.091 153.091 0 0 0 2.554 20.983c.567 3.005.934 6.009 1.101 9.014.034.801-.283 1.435-.951 1.903-2.07 1.536-3.789 1.536-5.158 0l-.2-.1a21.354 21.354 0 0 1-2.705-1.503 20.015 20.015 0 0 0-6.86-3.004c-.501.066-1.002.15-1.503.25-.667.1-1.335.15-2.003.15h-.901c-2.371 6.844-3.105 14.055-2.204 21.634.234 1.936.318 3.889.251 5.859-.037 1.01-.07 2.012-.1 3.005a3931.51 3931.51 0 0 0-.651 18.979c-.167 4.574 1.469 8.13 4.907 10.667a4.93 4.93 0 0 0 3.005 1.002c.2 0 .401.016.601.05a74.803 74.803 0 0 1 8.513-3.806c.735-.267 1.419-.167 2.053.3 1.97 1.436 3.088 3.472 3.356 6.11.1.934.233 1.869.4 2.804.735.735 1.169 1.82 1.302 3.255 0 .167.017.317.05.451.568.935.751 1.986.551 3.155-.067.3-.133.584-.2.851.3 3.572.634 7.161 1.001 10.767a592.78 592.78 0 0 0 2.454 20.131c.968 6.777 3.355 13.054 7.161 18.83a75.12 75.12 0 0 0 4.507 6.159 115.784 115.784 0 0 0 14.323 14.573 133.062 133.062 0 0 0 16.275 11.918c.467.301.952.568 1.452.802h-.05c6.143 3.071 12.62 4.79 19.431 5.158a28.197 28.197 0 0 0 7.111-.501c1.702-.334 3.288-.334 4.757 0 .634-.234 1.402-.284 2.304-.15.4.066.784.217 1.151.45 8.08.668 15.959-.45 23.637-3.355a71.307 71.307 0 0 0 15.374-8.112 130.65 130.65 0 0 0 10.617-8.063c.033-.033.066-.05.1-.05a100.25 100.25 0 0 0 17.577-14.923 36.131 36.131 0 0 0 4.758-6.661 100.273 100.273 0 0 0 3.505-7.111 67.757 67.757 0 0 0 5.258-19.58c.234-1.837.301-3.706.201-5.609a115.002 115.002 0 0 1 .35-16.977c.034-.2.084-.384.15-.55 0-2.371.051-4.741.151-7.111.133-3.973 2.07-5.559 5.809-4.758a5.402 5.402 0 0 1 3.105 1.753c.3.334.6.634.901.901a3.087 3.087 0 0 0 1.653.351c.6-.034 1.185-.1 1.752-.201.534-.1 1.069-.233 1.603-.4 3.138-3.072 4.941-6.928 5.408-11.568.067-.935.184-1.853.351-2.754.634-4.07 1.152-8.159 1.552-12.27.306-3.242.539-6.497.701-9.765ZM294.214 81.061a92.101 92.101 0 0 1 7.962-2.554c1.269-.367 2.554-.601 3.856-.701 3.439-.267 6.878-.2 10.316.2a40.68 40.68 0 0 1 9.916 2.454 114.03 114.03 0 0 1 6.159 2.654c.234.1.468.234.701.4 1.67 2.204 1.486 4.207-.55 6.01a2.707 2.707 0 0 1-2.104.701 10.936 10.936 0 0 1-3.806-.901 46.092 46.092 0 0 0-10.266-3.105 39.805 39.805 0 0 0-7.962-.601c-3.405.1-6.677.851-9.815 2.254a121.88 121.88 0 0 1-3.656 1.652 31.894 31.894 0 0 0-8.263 5.258c-.501.468-1.018.902-1.552 1.302a14.92 14.92 0 0 0-3.906 4.157c-.101 1.202-.651 2.17-1.653 2.904-.901.668-1.92.918-3.055.751a4.414 4.414 0 0 1-1.302-.5c-1.469-.968-2.12-2.354-1.953-4.157a8.171 8.171 0 0 1 1.903-4.357c.434-.5.718-.834.851-1.001l.551-.601a38.896 38.896 0 0 1 6.811-6.01c.567-.4 1.118-.8 1.652-1.201a36.493 36.493 0 0 1 9.165-5.008Zm9.765 35.205c-3.138.133-5.242-1.185-6.31-3.956a3.187 3.187 0 0 1-.1-2.354c.835-2.571 2.554-4.29 5.158-5.158 3.739-1.235 6.961-.534 9.665 2.103.367.367.618.785.751 1.252.735 2.804-.167 4.941-2.704 6.41a12.89 12.89 0 0 1-6.46 1.703Zm52.031-27.243c-.935-.868-1.269-1.953-1.002-3.255.401-1.803 1.486-3.105 3.256-3.906a24.58 24.58 0 0 0 1.652-.801 34.3 34.3 0 0 1 14.473-3.906c1.602-.067 3.188 0 4.757.2a46.992 46.992 0 0 1 10.266 2.254 88.475 88.475 0 0 1 9.415 3.856 172.417 172.417 0 0 1 9.565 4.907 22.559 22.559 0 0 1 4.306 3.205c.535.501.818 1.102.852 1.803.2 2.437-.885 3.923-3.255 4.457a3.458 3.458 0 0 1-1.653 0 247.638 247.638 0 0 1-7.111-3.856 161.358 161.358 0 0 0-7.161-3.756c-.568-.3-1.152-.584-1.753-.851-.033 0-.117-.05-.25-.15l.1.1a6.048 6.048 0 0 1-.451-.2h.1l-.501-.2c-3.071-1.437-6.393-2.522-9.965-3.256a27.082 27.082 0 0 0-10.867-.1c-3.439.634-6.577 1.92-9.415 3.856-1.903 1.302-3.689 1.168-5.358-.4Zm23.386 16.376a9.567 9.567 0 0 1 5.359-.852c3.438.468 5.241 2.488 5.408 6.06a4.015 4.015 0 0 1-.901 2.854c-1.803 2.271-4.19 3.406-7.161 3.406-.134 0-.267-.017-.401-.05h-.351a1.09 1.09 0 0 0-.35-.051 4.725 4.725 0 0 1-1.402-.751 4.34 4.34 0 0 1-.852-.901 2.99 2.99 0 0 1-1.151-1.252 1.89 1.89 0 0 0-.101-.25c-1.502-1.269-1.869-2.922-1.101-4.958.534-1.469 1.536-2.554 3.004-3.255Zm-41.865 43.568c.201-.167.384-.351.551-.551 1.068-2.404 2.855-3.172 5.358-2.304 1.102.401 1.82 1.169 2.154 2.304.467 1.769.067 3.338-1.202 4.707a34.156 34.156 0 0 0-3.355 4.257c-1.703 2.537-1.82 5.091-.351 7.662.267.167.568.3.902.4.367.101.734.184 1.101.251h-.1a.903.903 0 0 1 .251.05c3.405.4 6.827.517 10.266.35l1.402-.1c2.437-.133 3.906.985 4.407 3.355.233 1.202-.067 2.237-.902 3.105-1.068 1.102-2.387 1.703-3.956 1.803a27.835 27.835 0 0 1-5.008-.05c-3.505 0-6.944-.484-10.316-1.452-2.604-.735-4.49-2.337-5.659-4.808-1.602-3.271-1.886-6.643-.851-10.116 1.035-3.405 2.804-6.359 5.308-8.863Zm80.626-20.382c.167-2.337 1.402-3.856 3.706-4.557 3.538-1.069 6.877-.651 10.015 1.252a10.402 10.402 0 0 1 2.855 2.554c1.904 2.505 2.705 5.142 2.403 7.912a11.92 11.92 0 0 1-.651 2.855 6.53 6.53 0 0 1-1.552 2.453 23.956 23.956 0 0 1-9.615 5.91c-1.068.367-2.17.55-3.305.55-2.337.067-4.424-.534-6.26-1.802a2.18 2.18 0 0 1-.851-1.052c-.868-2.304-.234-4.04 1.903-5.208.935-.501 1.903-.618 2.904-.351 2.705.701 5.192.134 7.462-1.702a24.58 24.58 0 0 0 1.753-1.503c.167-.133.3-.317.4-.551a3.793 3.793 0 0 0-.4-1.452 5.875 5.875 0 0 0-.802-1.402 5.143 5.143 0 0 0-.55-.651 4.679 4.679 0 0 0-.902-.3 6.122 6.122 0 0 0-1.102-.101h-.751c-2.07 1.569-4.006 1.403-5.809-.5a3.215 3.215 0 0 1-.851-2.354Zm-161.952-11.568c1.936-.468 3.472.117 4.607 1.753 1.101 1.535 1.068 3.038-.1 4.507-.969 1.168-2.237 1.836-3.806 2.003a7.175 7.175 0 0 0-1.803.45c-2.504.969-4.14 2.688-4.908 5.159-.067.133-.083.3-.05.5v.1c.033.067.05.117.05.151 0 .033.017.083.05.15 1.102 1.335 2.588 2.02 4.457 2.053 1.937.033 3.856.167 5.759.401.735.1 1.486.217 2.254.35 1.669.534 2.604 1.67 2.804 3.406.2 1.602-.384 2.854-1.753 3.755-.968.635-2.02.818-3.155.551a117.55 117.55 0 0 1-10.366-1.452 9.647 9.647 0 0 1-4.607-2.253c-2.131-1.881-3.266-4.118-3.405-6.711-.041-.838.025-1.723.2-2.654.568-3.072 2.07-5.626 4.507-7.662 2.704-2.27 5.792-3.789 9.265-4.557Zm120.738 93.546a414.652 414.652 0 0 1-6.26 4.356 39.513 39.513 0 0 1-8.914 4.407 60.425 60.425 0 0 1-9.365 2.504.215.215 0 0 1-.1.05 24.315 24.315 0 0 1-5.158.451 73.023 73.023 0 0 1-10.466-.551 62.372 62.372 0 0 1-7.762-1.502 54.2 54.2 0 0 1-9.715-3.656 68.548 68.548 0 0 1-5.709-3.205 18.392 18.392 0 0 1-4.057-3.455c-1.736-1.937-1.869-3.906-.4-5.909.601-.868 1.419-1.336 2.454-1.403 1.903-.167 3.271.585 4.106 2.254a43.475 43.475 0 0 0 8.664 5.258 41.082 41.082 0 0 0 9.915 3.055 90.566 90.566 0 0 0 10.366 1.202c3.873.2 7.629-.317 11.268-1.553a100.092 100.092 0 0 0 5.959-2.303 40.124 40.124 0 0 0 9.966-6.26c1.068-.968 2.286-1.586 3.655-1.853 1.336-.3 2.471.067 3.406 1.102 1.402 1.636 1.452 3.322.15 5.058a10.14 10.14 0 0 1-2.003 1.953Zm-23.988 13.32a.492.492 0 0 0-.2.05c.033-.033.067-.05.1-.05h.1Z"/><path fill="#000" d="M655.426 931.587v-.25a2.93 2.93 0 0 0-.05.55 1.49 1.49 0 0 1 .05-.3ZM96.255 638.731a6.4 6.4 0 0 0 .45.2 1.24 1.24 0 0 0-.3-.15l-.15-.05Zm-26.792-12.82a5.878 5.878 0 0 1-.2.45l-.2.501c-.267 2.738.65 5.058 2.754 6.961 6.143 5.575 13.154 9.832 21.033 12.77a157.156 157.156 0 0 0 23.987 6.81c.2.034.384.051.551.051.2.033.4.05.601.05.2 0 .417-.017.651-.05.2-.067.417-.134.651-.201.2-.067.417-.167.651-.3.133-.067.267-.15.4-.251.134-.1.268-.217.401-.35.1-.134.217-.267.351-.401.1-.133.183-.267.25-.4.1-.167.184-.317.25-.451.067-.167.117-.334.151-.501.066-.2.1-.417.1-.651.033-.2.05-.4.05-.601 0-.233-.033-.45-.1-.651-.034-.2-.084-.4-.151-.601-.1-.2-.2-.384-.3-.551-.1-.2-.217-.367-.351-.5a5.368 5.368 0 0 0-.4-.451 6.177 6.177 0 0 0-.501-.451 397.11 397.11 0 0 0-8.964-2.504 179.302 179.302 0 0 1-14.522-4.457 175.06 175.06 0 0 1-5.008-1.852c-5.71-2.171-10.6-5.426-14.673-9.766a17.99 17.99 0 0 0-.1-.551l-.2-.5-.201-.501c-.1-.134-.2-.284-.3-.451a3.756 3.756 0 0 0-.351-.4 1.73 1.73 0 0 0-.35-.351c-.134-.1-.284-.2-.451-.301a6.968 6.968 0 0 0-.45-.25l-.502-.2c-.2-.034-.384-.067-.55-.1a2.767 2.767 0 0 0-.551-.05c-.167 0-.351.016-.551.05l-.501.1-.5.2a5.598 5.598 0 0 1-.452.2 5.046 5.046 0 0 1-.45.301l-.35.35c-.134.134-.251.268-.351.401l-.3.401Zm535.034 18.529h-.551c-.801.1-1.502.417-2.103.951-4.641 4.173-9.966 6.877-15.975 8.113a87.44 87.44 0 0 1-21.884 1.652l-.501.201a5.668 5.668 0 0 0-.451.2l-.4.3a1.384 1.384 0 0 0-.401.351c-.133.133-.25.267-.351.401l-.3.4a6.498 6.498 0 0 1-.2.451l-.201.501-.1.5c-.033.201-.05.384-.05.551 0 .167.017.351.05.551l.1.501.201.501c.066.167.133.317.2.45l.3.401c.101.167.218.3.351.401.1.133.234.25.401.35l.4.301c.134.066.284.15.451.25a6.116 6.116 0 0 0 2.354.351 27.15 27.15 0 0 1 2.353 0c.768.033 1.536.05 2.304.05l2.654.1a54.367 54.367 0 0 0 17.027-2.304c6.543-2.003 12.369-5.341 17.477-10.015.1-.134.183-.284.25-.451a6.04 6.04 0 0 0 .201-.451l.2-.501c.067-.2.117-.4.15-.601v-.651l-.1-.6a3.776 3.776 0 0 0-.15-.652c-.1-.2-.201-.383-.301-.55a1.34 1.34 0 0 0-.3-.451c-.1-.134-.201-.25-.301-.351a3.793 3.793 0 0 0-.4-.35l-.401-.301-.501-.2a6.021 6.021 0 0 0-.45-.2 88.717 88.717 0 0 0-.501-.1 3.312 3.312 0 0 0-.551-.05ZM458.469 514.537c.468-1.168.368-2.32-.3-3.455-.634-1.069-1.569-1.72-2.804-1.953h-.902a4.692 4.692 0 0 0-1.753.45 6.885 6.885 0 0 0-1.552 1.002c-.334.3-.601.651-.801 1.052-.568 1.168-.601 2.337-.1 3.505.5 1.135 1.352 1.886 2.554 2.254.166.033.35.066.55.1.167 0 .334.016.501.05a5.948 5.948 0 0 0 1.252-.251 8.15 8.15 0 0 0 1.252-.5 6.228 6.228 0 0 0 1.152-.751c.434-.434.751-.935.951-1.503Zm-231.661-13.972c-2.804 1.736-3.689 4.057-2.654 6.961a3.789 3.789 0 0 0 1.503 1.402c1.435.701 2.904.735 4.406.101 1.903-.835 3.222-2.254 3.957-4.257.467-3.339-.969-5.008-4.307-5.008a5.605 5.605 0 0 0-2.905.801ZM497.48 661.917c.067-.167.117-.334.15-.501.034-.167.05-.35.05-.551a4.041 4.041 0 0 0-.05-1.102 7.87 7.87 0 0 0-.3-1.201 7.204 7.204 0 0 0-1.753-1.753 7.857 7.857 0 0 0-1.202-.301 6.496 6.496 0 0 0-1.151-.1 19.374 19.374 0 0 0-5.108 2.905 373.501 373.501 0 0 1-17.878 12.87 265.155 265.155 0 0 1-20.983 12.82c-.2.334-.384.701-.551 1.101-.133.401-.25.802-.35 1.202 0 .201.016.418.05.651l.1.601.2.501c.067.167.134.317.2.451.101.133.201.284.301.45.1.134.217.251.35.351.101.134.217.25.351.351.134.1.284.2.451.3.133.067.284.134.45.2.167.101.334.167.501.201.201.033.384.066.551.1.2.033.384.05.551.05a16.704 16.704 0 0 0 4.958-1.803 239.192 239.192 0 0 0 19.48-12.069 364.91 364.91 0 0 0 20.081-14.773c.1-.167.201-.317.301-.45.1-.167.183-.334.25-.501Zm-295.56-14.974-.401.301-.301.401a1.583 1.583 0 0 0-.3.4c-.1.167-.2.317-.3.451-.034.2-.084.384-.151.551l-.1.501a2.83 2.83 0 0 0 0 1.051l.1.501c.067.167.117.334.151.501.066.167.15.317.25.45.067.167.167.318.3.451l.301.401c.133.133.267.25.401.35a98.391 98.391 0 0 0 7.311 3.005 622.377 622.377 0 0 1 24.138 9.314 1098.077 1098.077 0 0 0 23.787 9.515c.167.067.333.117.5.151h1.052c.2-.034.384-.067.551-.101.2-.066.384-.133.551-.2.133-.067.283-.15.45-.25l.401-.301c.167-.1.301-.2.401-.3a3.8 3.8 0 0 0 .35-.401c.1-.133.201-.284.301-.451.066-.133.133-.283.2-.45.067-.167.117-.334.15-.501.067-.2.117-.401.15-.601 0-.2.017-.417.051-.651a4.005 4.005 0 0 0-.151-.601 3.883 3.883 0 0 0-.15-.601c-.067-.2-.167-.4-.3-.601a1.986 1.986 0 0 0-.251-.451 15.906 15.906 0 0 0-5.008-2.754 102.602 102.602 0 0 1-8.763-3.305 6583.356 6583.356 0 0 1-4.107-1.753 326.624 326.624 0 0 0-5.007-2.153 641.63 641.63 0 0 0-17.227-6.861 290.865 290.865 0 0 0-16.927-5.859c-.167.034-.334.05-.5.05l-.501.1-.501.201a5.668 5.668 0 0 0-.451.2c-.167.1-.317.2-.45.3Zm149.933 41.465c-.1-.167-.217-.3-.35-.401-3.038-2.804-6.644-4.056-10.817-3.755-2.671.2-5.008 1.085-7.011 2.654a3.5 3.5 0 0 0-.651 1.202 6.841 6.841 0 0 0-.251 1.352c0 .434.084.884.251 1.352.133.434.334.834.601 1.202a5.45 5.45 0 0 0 1.753 1.252 22.398 22.398 0 0 0 4.557 1.602 72.36 72.36 0 0 0 4.657 1.052c.167.033.35.067.551.1.167 0 .35.017.551.05.233-.033.45-.067.651-.1.233-.034.45-.1.651-.2.233-.067.45-.151.651-.251a5.373 5.373 0 0 0 .951-.751c.134-.167.251-.317.351-.451.2-.067.4-.117.601-.15.167-.067.35-.15.551-.25.166-.067.333-.167.5-.301.167-.1.334-.217.501-.35l.401-.401.3-.501c.1-.167.184-.334.251-.501l.2-.5.1-.501v-.501a2.58 2.58 0 0 0-.05-.501c0-.167-.033-.334-.1-.5a2.98 2.98 0 0 0-.15-.501 6.04 6.04 0 0 0-.201-.451Zm39.111-149.533-.501-.1a5.852 5.852 0 0 0-1.051-.1c-.367 0-.718.016-1.052.05-.167.067-.334.15-.501.25-.367.2-.701.418-1.001.651-.301.267-.584.551-.852.852-.1.166-.166.35-.2.55a5.217 5.217 0 0 0-.25 1.252c-.034.468-.05.935-.05 1.403a7.911 7.911 0 0 0 1.352 2.704 30.256 30.256 0 0 0 5.058 5.058 43.261 43.261 0 0 1 2.103 1.802c.064.151.13.284.2.401.1.167.201.317.301.451.31.187.611.37.901.551a34.77 34.77 0 0 1 2.053 2.253c.134.067.284.134.451.2l.501.201.501.1c.2.033.384.05.55.05l.702-.1a170.781 170.781 0 0 0 6.009 3.155 134.184 134.184 0 0 0 42.116 12.97 326.712 326.712 0 0 0 43.868 2.955c.2.033.384.066.551.1h1.252c.2-.067.417-.134.651-.201l.601-.3c.167-.1.317-.2.45-.3l.401-.301.3-.401c.134-.133.234-.283.301-.45.1-.134.184-.284.25-.451.067-.167.117-.334.151-.501.033-.133.066-.284.1-.45.033-.167.05-.318.05-.451a2.58 2.58 0 0 0-.05-.501 2.58 2.58 0 0 0-.05-.501 3.6 3.6 0 0 0-.151-.45 1.758 1.758 0 0 0-.15-.451 1.983 1.983 0 0 1-.25-.451 3.3 3.3 0 0 0-.301-.35l-.3-.401c-.1-.1-.217-.2-.351-.3-3.505-1.202-7.144-1.72-10.917-1.553a167.726 167.726 0 0 1-45.621-4.457 165.65 165.65 0 0 1-37.508-13.922 55.783 55.783 0 0 0-4.557-4.957 234.83 234.83 0 0 0-6.06-5.559Zm-186.24 33.703c2.07.734 4.19 1.268 6.36 1.602 1.536.2 3.071.334 4.607.401a151.32 151.32 0 0 0 39.512-4.107c15.136-3.577 29.692-8.935 43.668-16.075.075-.014.142-.03.2-.05l1.302-.501c.167-.033.334-.083.501-.15.334-.1.684-.217 1.051-.35.167-.101.318-.201.451-.301a5.53 5.53 0 0 0 .451-.4 5.53 5.53 0 0 0 .4-.451c.134-.167.251-.351.351-.551l.2-.601c.067-.167.117-.367.151-.601l.1-.601a2.504 2.504 0 0 1-.05-.501 2.661 2.661 0 0 0-.151-.55 1.758 1.758 0 0 0-.15-.451 3.543 3.543 0 0 0-.25-.501 6.475 6.475 0 0 0-.251-.451 3.793 3.793 0 0 1-.35-.4 3.701 3.701 0 0 1-.401-.351l-.4-.3-.501-.201a6.498 6.498 0 0 0-.451-.2c-5.141.968-10.099 2.738-14.873 5.308-13.054 7.011-26.875 11.635-41.465 13.872a552.07 552.07 0 0 0-11.117 1.703c-10.884 1.669-21.049.233-30.498-4.307a2.77 2.77 0 0 0-.5-.15l-.501-.101c-.167 0-.334-.016-.501-.05-.167.034-.334.05-.501.05l-.5.101-.501.2c-.167.033-.334.1-.501.2-.134.1-.284.184-.451.251-.133.133-.25.267-.35.4a3.701 3.701 0 0 0-.351.401 1.34 1.34 0 0 0-.3.451c-.1.133-.184.283-.251.45a2.89 2.89 0 0 0-.15.501l-.1.501v1.001l.1.501c.067.167.117.334.15.501a4.575 4.575 0 0 0 1.302 1.753 18.022 18.022 0 0 0 5.509 3.105Zm250.14-451.454c.567-5.208.367-10.333-.601-15.374-.134-.801-.451-1.485-.952-2.053-3.105-3.84-7.261-5.392-12.469-4.657-1.536.2-2.955.567-4.257 1.101-.2-6.31-.35-12.603-.45-18.879a97.798 97.798 0 0 0-.301-6.31 703.95 703.95 0 0 0-1.803-20.432 62.731 62.731 0 0 0-5.008-19.13c-2.971-6.71-7.645-11.734-14.021-15.073-1.169-.567-1.92-.935-2.254-1.102 0-.033-.017-.05-.05-.05a68.456 68.456 0 0 0-19.48-5.709c-6.344-.901-12.637-.467-18.88 1.302a28.657 28.657 0 0 1-7.311 1.052c-3.973.1-7.946.05-11.919-.15a106.66 106.66 0 0 0-20.882.951 36.61 36.61 0 0 1-7.862.35 508.502 508.502 0 0 1-20.182-1.702 70.65 70.65 0 0 0-19.681.651 87.43 87.43 0 0 0-19.179 5.709c-3.039 1.302-5.559 3.255-7.562 5.86-3.906 4.94-6.878 10.666-8.914 17.176a86.79 86.79 0 0 0-3.806 19.83 89.243 89.243 0 0 0 .15 15.525 139.992 139.992 0 0 0 2.053 14.473 23.929 23.929 0 0 0-6.76-1.453 39.546 39.546 0 0 0-2.053-.15c-5.242-.3-8.597 1.987-10.066 6.86-1.87 6.377-2.571 12.904-2.103 19.581.434 6.01.35 12.002-.251 17.978a68.846 68.846 0 0 0 1.052 20.783c.734 3.539 2.504 6.443 5.308 8.713 5.041 4.04 10.383 4.591 16.025 1.653.167.501.284.985.351 1.452.167.968.4 1.92.701 2.855 0 .567.05 1.135.15 1.702.467 2.504.851 5.025 1.152 7.562.834 6.744 1.602 13.488 2.303 20.232a65.233 65.233 0 0 0 3.205 14.773 61.004 61.004 0 0 0 4.107 9.464c.491.907.992 1.792 1.502 2.654a198.288 198.288 0 0 1-6.26 2.905c-.068.002-.118.018-.15.05l-.05.05v-.05a49.74 49.74 0 0 0-2.904 1.452 316.718 316.718 0 0 0-5.459 3.005c-.005-.017-.021-.034-.05-.05a11.648 11.648 0 0 0-.901-.451 17.707 17.707 0 0 0-.551-.1c-.334 0-.668.017-1.002.05-.334.033-.668.1-1.001.2a4.942 4.942 0 0 0-.852.601 11.533 11.533 0 0 0-2.103 2.304 10.7 10.7 0 0 1-1.953 2.103 34.52 34.52 0 0 0-3.205 1.453 43.053 43.053 0 0 1-11.418 4.156c-4.57.979-9.077 2.181-13.521 3.606l-.3.1a613.112 613.112 0 0 0-10.867 4.206 69.474 69.474 0 0 1-11.819 3.456 149.755 149.755 0 0 0-27.593 8.463 367.334 367.334 0 0 0-37.258 17.928c-14.589 8.046-27.259 18.445-38.009 31.198l-.1.501c-.067.334-.1.668-.1 1.002v.2a22.887 22.887 0 0 0-2.404 3.305 259.846 259.846 0 0 0-20.782 42.817 218.044 218.044 0 0 0-11.518 44.97 1895.114 1895.114 0 0 1-3.356 22.135.877.877 0 0 1 0 .2 212.257 212.257 0 0 1-1.352 7.662 435.393 435.393 0 0 1-10.015 41.314 350.689 350.689 0 0 0-9.315 40.513c.02-.217.037-.434.05-.651a138.539 138.539 0 0 0-1.402 11.067 527.79 527.79 0 0 0-1.753 37.809 495.365 495.365 0 0 1-1.602 35.856 448.889 448.889 0 0 0-5.058 27.543 5558.282 5558.282 0 0 1-7.512 47.224 429.548 429.548 0 0 0-5.008 47.123 607.07 607.07 0 0 0-.55 47.424 354.774 354.774 0 0 0 4.557 47.174c2.604 15.824 5.174 31.382 7.712 46.672a156.929 156.929 0 0 1 1.802 35.806 235.083 235.083 0 0 0 1.753 47.725c.034.267.084.517.15.751.034.267.117.517.25.751.101.234.201.451.301.651.167.2.35.401.551.601.167.167.367.317.601.45.2.134.417.251.651.351.234.1.468.184.701.25a6.338 6.338 0 0 0 1.603 0c.233-.066.484-.133.75-.2.235-.133.451-.267.652-.401l.6-.5.502-.601c.133-.201.267-.418.4-.651a281.12 281.12 0 0 1-1.001-41.114c.267-6.277.2-12.553-.2-18.83-1.136-16.492-3.005-32.417-5.61-47.774a1151.898 1151.898 0 0 1-7.26-48.926 295.857 295.857 0 0 1-2.154-47.725 563.13 563.13 0 0 1 3.505-46.222 825.695 825.695 0 0 1 6.36-43.467 1887.648 1887.648 0 0 0 7.612-47.024 285.063 285.063 0 0 0 3.105-44.619 316.19 316.19 0 0 1 2.854-45.922l.05-.35c.031-.244.065-.494.1-.752-.013.15-.03.3-.05.451a90.064 90.064 0 0 1 2.104-9.765 2179.68 2179.68 0 0 0 10.616-41.064 505.297 505.297 0 0 0 8.113-39.762c-.014.152-.03.302-.05.451a2646.673 2646.673 0 0 0 3.405-21.634 215.532 215.532 0 0 1 12.97-47.524 219.46 219.46 0 0 1 20.382-39.061c.167-.133.35-.267.551-.401.234-.2.484-.4.751-.6.234-.167.484-.368.751-.601.434-.334.868-.701 1.303-1.102.1-.234.2-.484.3-.751.1-.234.184-.484.25-.751.034-.268.067-.518.1-.752a5.296 5.296 0 0 0-.15-.751 311.277 311.277 0 0 0 3.956-3.756 94.704 94.704 0 0 1 9.065-7.712 297.145 297.145 0 0 1 41.965-25.89 66.707 66.707 0 0 1 14.322-5.358 383.273 383.273 0 0 0 44.169-13.972c2.571-.968 4.04-1.502 4.407-1.603a78.169 78.169 0 0 1 6.811-1.702 103.24 103.24 0 0 0 16.826-4.808c2.337-.884 4.441-2.052 6.31-3.505 1.696-.27 3.315-.971 4.857-2.103a71.06 71.06 0 0 1 9.114-5.609l1.403-.751a40.791 40.791 0 0 0 7.962-3.856 70.75 70.75 0 0 0 6.26 7.111 214.779 214.779 0 0 0 15.073 13.521c5.442 4.407 10.917 7.929 16.426 10.566 5.809 2.738 12.202 4.457 19.18 5.158.701.067 1.402.1 2.103.1a49.164 49.164 0 0 0 5.408-.4 42.356 42.356 0 0 1 5.809-.301 2.8 2.8 0 0 0 1.052.201c.501 0 .968-.034 1.402-.101 1.469.434 3.038.618 4.708.551 4.674.034 9.314-.45 13.921-1.452a65.82 65.82 0 0 0 19.431-7.612 120.016 120.016 0 0 0 16.125-11.368c.901-.767 1.519-1.268 1.853-1.502a89.612 89.612 0 0 0 9.164-6.861c1.028.572 2.046 1.156 3.055 1.753l.15.2c.637.343 1.271.676 1.903 1.002 1.042.642 2.077 1.293 3.105 1.953.374.123.725.206 1.051.25a1061.19 1061.19 0 0 0 25.44 13.071 330.148 330.148 0 0 0 45.521 18.529 1744.793 1744.793 0 0 1 46.723 15.774c14.338 5.078 27.792 11.722 40.363 19.931a34.873 34.873 0 0 1 4.957 5.409 174.336 174.336 0 0 1 12.57 19.731 211.183 211.183 0 0 1 9.615 20.031l.1.25.1.251.201.5c.305.794.622 1.579.951 2.354a327.678 327.678 0 0 1 3.756 9.465 124.533 124.533 0 0 0 3.355 7.812c.39 1.48.84 2.949 1.352 4.407a266.357 266.357 0 0 1 11.668 45.671 960.875 960.875 0 0 0 8.864 46.723 314.217 314.217 0 0 1 6.56 47.624 295.471 295.471 0 0 0 2.354 23.587 367.685 367.685 0 0 1 3.656 47.273 468.778 468.778 0 0 0 3.105 47.424 1592.184 1592.184 0 0 1 4.907 47.024 3157.542 3157.542 0 0 1 3.856 47.123 1904.63 1904.63 0 0 1 3.005 47.975 676.348 676.348 0 0 1 .701 47.974c-.334 15.992-.501 32-.501 48.025a407.287 407.287 0 0 1-2.904 47.725c-.066.531-.133 1.048-.201 1.552a304.82 304.82 0 0 1-1.652 11.418 197.13 197.13 0 0 1-1.302 7.061l.1.801c.067.234.134.484.2.751.113.198.23.382.351.551.013.036.029.07.05.1l.501.601.601.501c.2.134.417.267.651.401.267.066.517.133.751.2.267.033.534.05.801.05s.518-.017.751-.05l.701-.2c.234-.1.451-.217.651-.351.201-.133.401-.284.601-.451l.501-.5a105.656 105.656 0 0 0 3.656-17.428 371.282 371.282 0 0 0 2.904-47.173c-.033-15.825.234-31.649.802-47.474.6-16.492.534-32.985-.201-49.477a1502.021 1502.021 0 0 0-2.954-47.374 3363.795 3363.795 0 0 0-3.806-44.569 1033.38 1033.38 0 0 0-5.058-44.169 366.917 366.917 0 0 1-3.205-47.624c0-9.282-.501-18.513-1.503-27.694a1094.683 1094.683 0 0 1-4.056-45.571 441.016 441.016 0 0 0-5.508-45.871c-1.336-7.812-2.671-15.608-4.007-23.386a1116.233 1116.233 0 0 0-8.964-45.772 367.899 367.899 0 0 0-10.216-37.258 7.41 7.41 0 0 0-.751-2.554 50.836 50.836 0 0 0-.35-.701 269.81 269.81 0 0 0-1.402-4.056l-.601-.501-.201-.2a167.632 167.632 0 0 1-2.003-4.708 371.552 371.552 0 0 1-4.507-11.468 317.056 317.056 0 0 0-14.072-28.995c-4.14-7.478-9.581-13.788-16.325-18.929-9.515-7.245-19.931-12.954-31.249-17.127a3485.45 3485.45 0 0 0-43.217-15.674l.501.2c.166.067.317.134.45.2a170.334 170.334 0 0 0-15.224-5.208 245.445 245.445 0 0 1-40.262-15.875 1646.74 1646.74 0 0 0-30.848-15.023 36.572 36.572 0 0 0-5.208-3.556c.34-.324.674-.658 1.001-1.001 4.273-4.474 7.779-9.532 10.516-15.174a76.624 76.624 0 0 0 6.31-18.629c.334-1.702.551-3.438.651-5.208.334-6.51.401-13.02.201-19.53.534-2.137.717-4.324.551-6.561.367.067.717.134 1.051.201 5.475.868 9.982-.735 13.521-4.808 2.604-2.971 4.257-6.376 4.958-10.216.434-2.537.835-5.091 1.202-7.662a248.265 248.265 0 0 0 2.203-23.386c.067-1.469.167-2.938.301-4.407Zm208.424 811.364c.028-.088.062-.238.101-.45l-.05.3-.051.15ZM446.851 108.855c.134 6.009.067 12.002-.2 17.978a221.134 221.134 0 0 1-.701 9.765c-.401 4.111-.918 8.2-1.553 12.269-.167.902-.283 1.82-.35 2.755-.467 4.64-2.27 8.496-5.409 11.568-.534.167-1.068.3-1.602.4-.568.1-1.152.167-1.753.201a3.082 3.082 0 0 1-1.652-.351 11.43 11.43 0 0 1-.902-.901 5.396 5.396 0 0 0-3.105-1.753c-3.739-.801-5.675.784-5.809 4.757-.1 2.371-.15 4.741-.15 7.111a2.626 2.626 0 0 0-.15.551 115.14 115.14 0 0 0-.351 16.977c.1 1.903.034 3.772-.2 5.608a67.818 67.818 0 0 1-5.258 19.581 99.858 99.858 0 0 1-3.506 7.111 36.038 36.038 0 0 1-4.757 6.66 100.212 100.212 0 0 1-17.577 14.924c-.034 0-.067.016-.101.05a130.623 130.623 0 0 1-10.616 8.062 71.29 71.29 0 0 1-15.374 8.113c-7.679 2.904-15.558 4.023-23.637 3.355a3.067 3.067 0 0 0-1.152-.45c-.901-.134-1.669-.084-2.303.15-1.469-.334-3.055-.334-4.758 0a28.194 28.194 0 0 1-7.111.501c-6.81-.368-13.287-2.087-19.43-5.159h.05a12.08 12.08 0 0 1-1.452-.801 132.996 132.996 0 0 1-16.276-11.918 115.843 115.843 0 0 1-14.322-14.573 74.733 74.733 0 0 1-4.507-6.16c-3.806-5.775-6.193-12.052-7.161-18.829a590.248 590.248 0 0 1-2.454-20.131 613.187 613.187 0 0 1-1.001-10.767c.066-.267.133-.551.2-.851.2-1.169.017-2.221-.551-3.155a1.886 1.886 0 0 1-.05-.451c-.134-1.436-.568-2.521-1.302-3.255a40.363 40.363 0 0 1-.401-2.805c-.267-2.637-1.385-4.673-3.355-6.109-.634-.467-1.319-.568-2.053-.301a75.156 75.156 0 0 0-8.513 3.806 3.702 3.702 0 0 0-.601-.05 4.933 4.933 0 0 1-3.005-1.001c-3.439-2.538-5.075-6.093-4.908-10.667.202-6.306.419-12.632.651-18.979.03-.993.064-1.995.1-3.005a37.993 37.993 0 0 0-.25-5.859c-.901-7.579-.167-14.79 2.203-21.634h.902c.668 0 1.335-.05 2.003-.15.501-.1 1.002-.184 1.502-.251a20.033 20.033 0 0 1 6.861 3.005 21.335 21.335 0 0 0 2.704 1.502l.201.101c1.368 1.535 3.088 1.535 5.158 0 .667-.468.984-1.102.951-1.903a69.134 69.134 0 0 0-1.102-9.014 153.403 153.403 0 0 1-2.554-20.983 75.395 75.395 0 0 1 1.903-21.183c1.77-7.579 4.908-14.506 9.415-20.782a32.144 32.144 0 0 1 8.613-4.508 69.18 69.18 0 0 1 20.282-3.956c6.844-.267 13.655.134 20.432 1.202a67.375 67.375 0 0 0 20.231.05 85.336 85.336 0 0 1 21.033-.5c7.245.734 14.406.166 21.484-1.703a31.144 31.144 0 0 1 12.419-.801 68.387 68.387 0 0 1 21.984 6.61l-.601-.2c.267.1.535.25.802.45 5.542 4.24 9.197 9.782 10.967 16.626a114.853 114.853 0 0 1 3.305 19.68c.501 6.611.818 13.222.951 19.832.134 7.678.1 15.324-.1 22.935-.1.234-.167.468-.2.702a2.93 2.93 0 0 0-.301.751c-.2.834-.15 1.669.151 2.504.333.834.901 1.485 1.702 1.953a3.87 3.87 0 0 0 1.703.5c1.669.067 2.871-.651 3.606-2.153.267-.534.5-1.068.701-1.602 3.205-2.972 6.91-3.656 11.117-2.054.1.334.167.668.2 1.002Zm-94.096 115.079a.473.473 0 0 1 .2-.05h-.1c-.034 0-.067.017-.1.05Zm17.928-9.014a421.965 421.965 0 0 0 6.259-4.356 10.09 10.09 0 0 0 2.003-1.954c1.302-1.736 1.252-3.422-.15-5.057-.935-1.035-2.07-1.403-3.405-1.102-1.369.267-2.587.885-3.656 1.853a40.129 40.129 0 0 1-9.965 6.26 100.12 100.12 0 0 1-5.96 2.303 29.917 29.917 0 0 1-11.267 1.552c-3.472-.2-6.928-.6-10.366-1.201a41.147 41.147 0 0 1-9.916-3.055 43.496 43.496 0 0 1-8.663-5.258c-.835-1.67-2.204-2.421-4.107-2.254-1.035.067-1.853.534-2.453 1.402-1.469 2.003-1.336 3.973.4 5.91a18.41 18.41 0 0 0 4.056 3.455 69.16 69.16 0 0 0 5.709 3.205 54.258 54.258 0 0 0 9.715 3.656 62.606 62.606 0 0 0 7.763 1.502c3.472.434 6.96.618 10.466.551a24.32 24.32 0 0 0 5.158-.451.22.22 0 0 0 .1-.05 60.425 60.425 0 0 0 9.365-2.504 39.618 39.618 0 0 0 8.914-4.407Zm-109.872-96.15c-1.135-1.635-2.67-2.22-4.607-1.752-3.472.768-6.56 2.287-9.264 4.557-2.437 2.036-3.94 4.59-4.507 7.662a11.362 11.362 0 0 0-.201 2.654c.14 2.593 1.275 4.83 3.406 6.71a9.64 9.64 0 0 0 4.607 2.254c3.405.634 6.861 1.118 10.366 1.452 1.135.267 2.187.084 3.155-.551 1.369-.901 1.953-2.153 1.753-3.756-.201-1.736-1.135-2.871-2.805-3.405a63.261 63.261 0 0 0-2.253-.35 54.814 54.814 0 0 0-5.759-.401c-1.87-.033-3.355-.718-4.457-2.053a.393.393 0 0 1-.05-.15.391.391 0 0 0-.05-.151v-.1c-.034-.2-.017-.367.05-.501.768-2.47 2.404-4.19 4.907-5.158a7.133 7.133 0 0 1 1.803-.45c1.569-.167 2.838-.835 3.806-2.004 1.169-1.469 1.202-2.971.1-4.507Zm161.051 5.259c-2.303.701-3.539 2.22-3.705 4.557a3.21 3.21 0 0 0 .851 2.353c1.803 1.903 3.739 2.07 5.809.501h.751c.367 0 .735.034 1.102.1.3.067.601.167.901.301.201.2.384.417.551.651.334.434.601.901.801 1.402.234.467.368.951.401 1.452-.1.234-.234.418-.401.551a24.332 24.332 0 0 1-1.752 1.502c-2.271 1.837-4.758 2.404-7.462 1.703-1.002-.267-1.97-.15-2.905.351-2.136 1.168-2.771 2.904-1.903 5.208.167.434.451.784.852 1.051 1.836 1.269 3.923 1.87 6.26 1.803a10.08 10.08 0 0 0 3.305-.551 23.943 23.943 0 0 0 9.615-5.909 6.538 6.538 0 0 0 1.552-2.454c.342-.958.559-1.91.651-2.854.301-2.77-.5-5.407-2.404-7.912a10.383 10.383 0 0 0-2.854-2.554c-3.138-1.903-6.477-2.321-10.016-1.252Zm-83.78 24.388c-.167.2-.351.384-.551.551-2.504 2.503-4.273 5.458-5.308 8.863-1.035 3.472-.752 6.844.851 10.116 1.168 2.471 3.055 4.073 5.659 4.808a37.202 37.202 0 0 0 10.316 1.452c1.669.167 3.338.183 5.008.05 1.569-.1 2.887-.701 3.956-1.803.834-.868 1.135-1.903.901-3.105-.501-2.37-1.97-3.488-4.407-3.355l-1.402.1c-3.438.167-6.86.05-10.266-.35a.856.856 0 0 0-.25-.05h.1a13.24 13.24 0 0 1-1.102-.251 3.716 3.716 0 0 1-.901-.4c-1.469-2.571-1.352-5.125.35-7.662a34.091 34.091 0 0 1 3.356-4.257c1.268-1.369 1.669-2.938 1.201-4.707-.333-1.135-1.051-1.903-2.153-2.304-2.504-.868-4.29-.1-5.358 2.304Zm46.672-43.869a9.556 9.556 0 0 0-5.358.852c-1.469.701-2.47 1.786-3.005 3.255-.767 2.036-.4 3.689 1.102 4.957.034.067.067.151.1.251.267.534.651.951 1.152 1.252.234.334.518.634.851.901.434.334.902.584 1.403.751.133 0 .25.017.35.05h.351c.133.034.267.051.4.051 2.972 0 5.359-1.136 7.162-3.406a4.02 4.02 0 0 0 .901-2.854c-.167-3.572-1.97-5.592-5.409-6.06Zm-29.746-18.779c-.267 1.302.067 2.387 1.002 3.255 1.669 1.57 3.455 1.703 5.358.4 2.838-1.936 5.976-3.22 9.415-3.855a27.08 27.08 0 0 1 10.867.1c3.572.734 6.894 1.82 9.965 3.255l.501.2.2.1a.387.387 0 0 1-.15-.05l-.05-.05h-.1c.133.067.284.134.451.2l-.101-.1c.134.1.217.15.251.15.601.268 1.185.552 1.752.852a160.737 160.737 0 0 1 7.162 3.756c2.37 1.335 4.74 2.62 7.111 3.856a3.454 3.454 0 0 0 1.652 0c2.371-.534 3.456-2.02 3.255-4.457-.033-.701-.317-1.302-.851-1.803a22.566 22.566 0 0 0-4.307-3.205 171.784 171.784 0 0 0-9.565-4.908 88.394 88.394 0 0 0-9.414-3.856 47.024 47.024 0 0 0-10.266-2.253c-1.569-.2-3.155-.267-4.758-.2a34.292 34.292 0 0 0-14.472 3.906c-.568.3-1.119.567-1.653.8-1.769.802-2.854 2.104-3.255 3.907Zm-57.339 26.541c1.068 2.771 3.171 4.09 6.31 3.957 2.303 0 4.457-.568 6.46-1.703 2.537-1.469 3.438-3.606 2.704-6.41a2.874 2.874 0 0 0-.751-1.252c-2.704-2.637-5.926-3.339-9.665-2.103-2.604.868-4.324 2.587-5.158 5.158a3.185 3.185 0 0 0 .1 2.353Zm4.507-33.802a92.157 92.157 0 0 0-7.963 2.554 36.487 36.487 0 0 0-9.164 5.008c-.534.4-1.085.8-1.652 1.201a38.86 38.86 0 0 0-6.811 6.01l-.551.6c-.133.168-.417.501-.851 1.002a8.164 8.164 0 0 0-1.903 4.357c-.167 1.803.484 3.188 1.953 4.156.4.234.834.401 1.302.501 1.135.167 2.153-.083 3.055-.751 1.001-.734 1.552-1.703 1.652-2.904a14.946 14.946 0 0 1 3.906-4.157c.534-.4 1.052-.835 1.553-1.302a31.88 31.88 0 0 1 8.263-5.258 121.568 121.568 0 0 0 3.655-1.653 25.695 25.695 0 0 1 9.816-2.253 39.81 39.81 0 0 1 7.962.6 46.092 46.092 0 0 1 10.266 3.106c1.235.534 2.504.834 3.806.901a2.705 2.705 0 0 0 2.103-.701c2.037-1.803 2.22-3.806.551-6.01a3.76 3.76 0 0 0-.701-.4 113.722 113.722 0 0 0-6.16-2.654 40.683 40.683 0 0 0-9.915-2.454 53.29 53.29 0 0 0-10.316-.2c-1.302.1-2.588.333-3.856.7ZM534.838 952.92c.04-.1.074-.2.101-.3h-7.412c.062.217.112.434.15.651.1.167.201.317.301.45.133.134.25.284.35.451.134.1.284.2.451.301.133.133.284.233.451.3.133.1.283.184.45.251.167.066.334.116.501.15l.501.1h1.001l.501-.1a2.98 2.98 0 0 0 .501-.15c.167-.067.317-.151.451-.251.167-.067.317-.15.45-.25.167-.134.301-.267.401-.401.134-.1.25-.217.351-.35.1-.134.2-.284.3-.451l.2-.401Zm35.606.952a4.47 4.47 0 0 0 .601-1.252h-8.113c.067.233.15.434.251.601.066.2.15.4.25.601.1.133.2.283.3.45.101.134.201.251.301.351.133.133.267.25.401.35.133.101.283.201.45.301.134.067.284.133.451.2.167.067.317.134.451.201.333.033.667.05 1.001.05.468-.034.935-.084 1.402-.151.401-.2.785-.4 1.152-.601.167-.1.317-.2.451-.3l.35-.351c.101-.166.201-.317.301-.45ZM359.565 489.849l-.501-.201-.5-.2-.501-.1h-1.002l-.5.1-.501.2a6.04 6.04 0 0 0-.451.201c-.167.1-.317.2-.451.3a9.228 9.228 0 0 0-.751.851c-.233.334-.451.685-.651 1.052-.033.234-.067.451-.1.651s-.05.401-.05.601c0 .234.017.451.05.651l.1.601a13.34 13.34 0 0 0 2.454 3.355l7.512 7.612a120.52 120.52 0 0 0 3.555 3.456c0 .2.017.417.05.65.067.201.117.401.151.601.1.201.2.384.3.551.1.167.217.334.351.501.133.167.283.317.45.451.134.133.284.267.451.4.978.311 1.947.645 2.905 1.002.218.081.435.164.651.25a.76.76 0 0 0 .2.05 65.616 65.616 0 0 1 8.313 3.957 185.098 185.098 0 0 0 38.159 16.325 223.164 223.164 0 0 0 40.964 8.163 41.541 41.541 0 0 0 9.515-1.002c7.845-1.702 15.124-4.724 21.834-9.064a112.137 112.137 0 0 0 15.424-12.119c.898.359 1.749.276 2.554-.25a59.138 59.138 0 0 0 6.009-4.607c-.066 2.969-.1 5.941-.1 8.914.067 15.891.1 31.799.1 47.724a398.316 398.316 0 0 0 2.805 48.025l.1.851c-.1.167-.2.317-.301.451-.133.3-.233.617-.3.951-.1.401-.184.818-.25 1.252.033.2.083.401.15.601.49 1.216.958 2.434 1.402 3.656a275.59 275.59 0 0 1 .701 39.812 1731.405 1731.405 0 0 1-3.355 47.424 559.15 559.15 0 0 1-2.604 23.586c-2.039 15.104-2.39 30.177-1.052 45.221a378.257 378.257 0 0 1-19.53 4.858 2441.076 2441.076 0 0 1-26.041 5.558 385.05 385.05 0 0 1-35.355 5.559 371.208 371.208 0 0 1-36.507 2.203c-3.338.034-6.644.167-9.915.401-9.916.701-19.815.918-29.697.651a811.052 811.052 0 0 1-34.904-1.753 1339.358 1339.358 0 0 1-34.704-2.854 1384.004 1384.004 0 0 1-35.205-3.756 630.004 630.004 0 0 1-33.452-4.808 668.09 668.09 0 0 1-35.355-6.96 5317.614 5317.614 0 0 0-33.252-7.312 14755.97 14755.97 0 0 0 1.703-30.848 4479.21 4479.21 0 0 1 2.954-47.524c.668-9.915 1.269-19.831 1.803-29.746a755.06 755.06 0 0 1 4.107-49.177 2027.572 2027.572 0 0 1 5.708-44.82 326.594 326.594 0 0 0 3.055-46.773 603.088 603.088 0 0 0-1.803-42.816c.218-1.051.285-2.136.201-3.255a1.044 1.044 0 0 0-.05-.251 139.386 139.386 0 0 0 14.322 26.391c1.068 1.536 1.669 2.387 1.803 2.554l1.152 1.703c.375.535.759 1.053 1.151 1.552a.239.239 0 0 1 0 .1c-.066.167-.1.334-.1.501a2.35 2.35 0 0 0-.05.451v.501c0 .167.017.334.05.501.034.133.067.283.1.45.067.167.134.317.201.451.066.133.133.284.2.451.1.133.184.267.25.4a71.493 71.493 0 0 0 8.964 5.108 274.131 274.131 0 0 0 28.945 12.069 107.796 107.796 0 0 0 30.448 6.11c3.539.2 7.078.083 10.616-.351 14.089-1.636 26.258-7.445 36.507-17.427a434.759 434.759 0 0 1 28.395-25.44l.3-.4c.134-.134.234-.268.3-.401.101-.167.184-.334.251-.501.033-.133.083-.284.15-.451l.1-.5v-.501c.034-.2.034-.384 0-.551l-.1-.501a2.805 2.805 0 0 0-.15-.501 3.489 3.489 0 0 1-.251-.5l-.3-.401a3.799 3.799 0 0 0-.351-.401 3.793 3.793 0 0 0-.4-.35c-.134-.1-.284-.2-.451-.301a6.293 6.293 0 0 0-.451-.2 2.795 2.795 0 0 0-.5-.15 1.336 1.336 0 0 0-.501-.1 2.504 2.504 0 0 0-.501-.05h-.551c-9.915 7.111-19.23 15.09-27.943 23.937a55.501 55.501 0 0 1-14.974 10.917c-16.359 8.213-33.469 9.381-51.33 3.505a279.661 279.661 0 0 1-33.251-13.42 4.77 4.77 0 0 0-.501-.752 34.532 34.532 0 0 0-1.102-1.051c-7.278-6.477-13.054-14.172-17.327-23.086a308.911 308.911 0 0 1-9.415-21.534 176.662 176.662 0 0 1-2.904-7.812 15.94 15.94 0 0 0-.05-1.302l-.201-.501a5.481 5.481 0 0 0-.2-.45 5.19 5.19 0 0 0-.501-.702 156.171 156.171 0 0 1-5.458-23.386c-.601-3.873-2.704-5.058-6.31-3.556-.601.234-.918.651-.951 1.252-.568 6.243.133 12.47 2.103 18.68a440.328 440.328 0 0 0 3.555 10.616c-.023.467-.023.935 0 1.402a68.802 68.802 0 0 1-.25 10.166 107.35 107.35 0 0 0-.551 7.912 54.334 54.334 0 0 0 0 11.318 366.058 366.058 0 0 1 1.753 48.025 323.393 323.393 0 0 1-5.008 47.474c-.131.72-.265 1.438-.401 2.153l-.25.251c-.1.1-.2.217-.3.35a34.87 34.87 0 0 0-1.753 4.858 617.254 617.254 0 0 1-5.258 17.427 85.322 85.322 0 0 0-3.756 18.979 20.947 20.947 0 0 1-.351 1.803 135.615 135.615 0 0 0-2.754 14.222 449.671 449.671 0 0 1-2.454 15.525.918.918 0 0 0 .05-.301 3.075 3.075 0 0 1-.05.2l-1.402 6.41c-.492 2.287-.91 4.574-1.252 6.861-.051.351-.102.701-.15 1.052 0-.167.016-.334.05-.501.033-.2.067-.384.1-.551a133.014 133.014 0 0 0-2.654 16.526 466.39 466.39 0 0 1-7.362 47.574 418.517 418.517 0 0 0-7.011 47.224 14970.821 14970.821 0 0 0-4.156 47.373 367.472 367.472 0 0 1-7.311 47.374c-3.506 15.725-5.592 31.149-6.26 46.272-.416 9.327 1.788 17.556 6.61 24.689h7.912c.043-.134.076-.267.101-.401.033-.234.05-.467.05-.701a4.813 4.813 0 0 0-.151-1.552 5.511 5.511 0 0 0-.2-.451 3.543 3.543 0 0 0-.25-.501 5.188 5.188 0 0 1-.301-.451l-.35-.35-.802-.701c-.3-.267-.584-.551-.851-.851a11.158 11.158 0 0 1-1.302-3.206 120.35 120.35 0 0 1-2.404-13.07 52.736 52.736 0 0 1 .451-16.125c0 .167-.017.351-.05.551l2.404-12.52a970.203 970.203 0 0 0 7.862-48.826 1136.506 1136.506 0 0 0 5.759-51.179 614.589 614.589 0 0 1 5.108-41.315c2.47-15.758 4.908-31.532 7.311-47.324a1370.783 1370.783 0 0 1 5.359-32.701 4269.232 4269.232 0 0 0 6.31-36.707 1421.8 1421.8 0 0 1-2.605 37.809 3263.712 3263.712 0 0 0-3.555 47.925 928.038 928.038 0 0 0-2.003 44.069 1.762 1.762 0 0 0-.601.55c-2.404 3.739-3.723 8.063-3.956 12.971-.334 6.877-.618 13.804-.852 20.782a443.542 443.542 0 0 1-1.953 28.995c.034-.167.067-.35.1-.551a389.219 389.219 0 0 0-.851 8.513 5128.009 5128.009 0 0 1-3.355 34.204 3232.863 3232.863 0 0 1-3.806 35.105 783.266 783.266 0 0 0-3.205 35.305c-.067.167-.15.333-.25.5l-.201.501c-.033.167-.066.351-.1.551-.033.167-.05.351-.05.551 0 .167.017.317.05.45v.151h7.612a1289.467 1289.467 0 0 0 4.207-36.056c1.235-11.986 2.453-23.954 3.655-35.906 1.169-11.518 2.354-23.036 3.556-34.554.429-4.098.796-8.204 1.101-12.319a89.85 89.85 0 0 0 10.817 3.505 142.2 142.2 0 0 1 9.115 2.604 101.125 101.125 0 0 0 12.469 3.005 342.43 342.43 0 0 1 15.674 2.954 818.395 818.395 0 0 1 17.978 4.007c5.91 1.435 11.802 2.921 17.678 4.457a91.366 91.366 0 0 0 18.028 2.804c6.043.334 12.069.634 18.078.901 5.976.267 11.952.384 17.928.351 5.976-.033 11.952 0 17.928.1 6.076.134 12.169.2 18.279.2h36.206a299.77 299.77 0 0 1 10.967-.3 649.36 649.36 0 0 0 18.028-.451c6.01-.267 12.019-.434 18.028-.501 4.607-.066 9.215-.183 13.822-.35l17.778-.501c6.042-.2 12.068-.701 18.078-1.502a241.703 241.703 0 0 0 17.477-2.955 172.002 172.002 0 0 1 17.928-2.654c6.176-.601 11.802-1.285 16.876-2.053a200.29 200.29 0 0 0 16.376-3.155 451.55 451.55 0 0 0 1.903 15.324l.05.451a.954.954 0 0 1 0 .2 292.807 292.807 0 0 1 1.552 22.535 779.183 779.183 0 0 0 2.003 35.305 383.03 383.03 0 0 0 4.307 34.554h7.412c.02-.067.036-.134.05-.201a.999.999 0 0 0 .1-.45 2.58 2.58 0 0 0 .05-.501 1.037 1.037 0 0 0 0-.451 358.99 358.99 0 0 1-2.855-19.831 360.311 360.311 0 0 1-2.353-35.505 368.705 368.705 0 0 0-2.554-37.859c.027.162.043.312.05.451a30.286 30.286 0 0 0-.1-1.252 265.026 265.026 0 0 1-.551-4.858 101.353 101.353 0 0 0-.751-5.408v.35a116.409 116.409 0 0 1-.952-7.111 296.838 296.838 0 0 1-1.753-26.04 349.1 349.1 0 0 0-1.802-27.693 6.519 6.519 0 0 0-.351-.852 3.128 3.128 0 0 0-.451-.751 93.833 93.833 0 0 1-.601-12.119 365.83 365.83 0 0 1 2.154-35.756 2217.467 2217.467 0 0 0 4.707-47.023 331.257 331.257 0 0 0 1.152-40.363c.597 1.419 1.198 2.837 1.803 4.257a55.826 55.826 0 0 0 9.314 14.873c.1.334.217.668.351 1.002.1.333.217.651.35.951l.401 1.002a86.733 86.733 0 0 1-.1 7.211 585.053 585.053 0 0 0-.801 35.906 285.092 285.092 0 0 0 3.455 42.366v-.1a1575.54 1575.54 0 0 0 7.862 36.907 476.598 476.598 0 0 1 3.656 17.728 1016.893 1016.893 0 0 0 9.715 46.272 207.087 207.087 0 0 1 5.559 46.823c.066 16.392-2.187 32.4-6.761 48.025h8.113l.05-.201c.1-.534.133-1.085.1-1.652.367-.801.634-1.619.801-2.454a372.51 372.51 0 0 1 1.803-7.762 134.241 134.241 0 0 0 2.254-10.767c0 .167-.017.334-.05.501-.034.2-.067.384-.101.551 2.905-12.787 3.656-25.707 2.254-38.761a312.494 312.494 0 0 0-8.413-45.621 406.059 406.059 0 0 1-8.363-39.361 581.386 581.386 0 0 0-10.567-50.929 411.508 411.508 0 0 1-2.654-25.791 254.757 254.757 0 0 1 .851-45.971c.868-7.946-.651-15.174-4.557-21.684-7.063-11.782-12.922-23.968-17.577-36.557a2044.849 2044.849 0 0 0-1.703-25.139 578.282 578.282 0 0 1-1.452-48.726c.228-15.252.195-30.526-.1-45.821a61.343 61.343 0 0 0 5.559-8.213c5.041-8.914 8.196-18.412 9.464-28.495a5827.634 5827.634 0 0 0 4.107-33.852c-.401-3.406-2.254-4.674-5.559-3.806-.668.167-1.068.551-1.202 1.151a306.89 306.89 0 0 0-4.707 29.496 114.469 114.469 0 0 1-3.806 18.98c-2.971 10.116-8.263 18.696-15.875 25.74a34.815 34.815 0 0 1-3.305 2.654c-.409.277-.793.56-1.152.852a2.505 2.505 0 0 0-.701-.101 2.505 2.505 0 0 1-.501.051l-.5.1a142.606 142.606 0 0 1-28.645 18.629 29.677 29.677 0 0 1-11.268 3.054c-11.384.868-22.652-.317-33.802-3.555A172.774 172.774 0 0 1 414.05 523a2226.074 2226.074 0 0 1-36.707-15.474 2.654 2.654 0 0 0-.25-.4l-.351-.351c-.1-.1-.217-.2-.351-.3a1.921 1.921 0 0 0-.45-.251 2.394 2.394 0 0 1-.251-.15 89.065 89.065 0 0 0-1.802-1.753 214.752 214.752 0 0 1-6.561-6.961 86.768 86.768 0 0 0-7.762-7.511Zm-200.813-.902a.537.537 0 0 1 .05.1c.067.434.084.618.05.551a12.88 12.88 0 0 0-.1-.651Zm253.245 319.799c11.485-.568 22.602-1.519 33.352-2.855a322.315 322.315 0 0 0 36.006-6.66 4382.377 4382.377 0 0 0 32.501-8.113c.188 3.151.405 6.289.651 9.415.667 8.146 1.235 16.292 1.702 24.438.22 3.836.488 7.642.802 11.418a323.779 323.779 0 0 0-11.168 1.953 250.15 250.15 0 0 1-17.928 2.854c-3.739.468-7.461.935-11.167 1.402a223.096 223.096 0 0 0-18.128 2.955 139.009 139.009 0 0 1-18.179 2.404c-5.942.4-11.902.751-17.878 1.051-6.142.301-12.269.384-18.378.251a259.323 259.323 0 0 0-18.379.25c-6.043.267-12.069.484-18.078.651-6.11.2-12.202.334-18.279.401-6.142.066-12.269.1-18.378.1-6.143 0-12.269.017-18.379.05-6.076 0-12.135-.084-18.178-.25a535.827 535.827 0 0 0-17.928-.201c-3.205.034-6.41-.016-9.615-.15a822.802 822.802 0 0 0-18.178-.601 69.945 69.945 0 0 1-13.171-1.552 1030.73 1030.73 0 0 1-17.477-3.956 1050.886 1050.886 0 0 1-17.578-4.357 108.735 108.735 0 0 0-13.471-2.554 99.482 99.482 0 0 1-16.175-3.355 776.81 776.81 0 0 0-17.827-4.908 82.645 82.645 0 0 1-8.864-2.805 8.93 8.93 0 0 0-1.453-.4c.332-4.962.583-9.936.752-14.923.333-9.583.967-19.098 1.903-28.545a70.7 70.7 0 0 0 8.413 2.454c3.209.717 6.447 1.301 9.715 1.753a1297.433 1297.433 0 0 1 21.934 4.907 432.202 432.202 0 0 0 34.554 6.711 1025.568 1025.568 0 0 0 35.054 4.607 4166.935 4166.935 0 0 0 35.055 3.756 1009.098 1009.098 0 0 0 34.854 2.904c11.819.768 23.654 1.403 35.506 1.903 5.475-.233 10.933-.467 16.375-.701a6401.187 6401.187 0 0 0 35.105-1.702ZM143.679 630.718v-.05a2.87 2.87 0 0 0 .05-.401 3.38 3.38 0 0 1-.05.451Zm22.986-142.622a1.689 1.689 0 0 0-.05-.301v-.15c.03.154.047.305.05.451Zm90.941-256.049a.37.37 0 0 0 .101-.1.446.446 0 0 1-.201.1h.1Zm350.246 125.445.2.501c.067.167.134.317.201.451a385.97 385.97 0 0 0-.401-.952ZM129.557 953.571c.041-.317.075-.634.1-.951h-7.612c.01.108.027.208.05.3.034.134.084.284.15.451.134.434.351.818.651 1.152.368.434.818.784 1.353 1.051.4.234.834.368 1.302.401.133.033.283.033.45 0 .301 0 .601-.033.902-.1a3.56 3.56 0 0 0 .901-.301 6.73 6.73 0 0 0 .851-.45c.501-.434.802-.952.902-1.553Zm-14.523-.25a6.31 6.31 0 0 0 .15-.701h-7.912a51.645 51.645 0 0 0 1.953 2.604c.2.067.384.133.551.2.167.067.317.134.451.2l.5.101c.201.033.401.05.601.05.167 0 .334-.017.501-.05.167-.034.351-.067.551-.101a8.25 8.25 0 0 0 .952-.45c.267-.201.534-.418.801-.651.367-.334.668-.735.901-1.202Zm-5.308-18.329c0-.033-.017-.133-.05-.3v.1l.05.2Z"/><path fill="#333" d="M352.353 858.674h-36.206c-6.11 0-12.202-.067-18.279-.201-5.976-.1-11.952-.133-17.928-.1a357.323 357.323 0 0 1-17.927-.35c-6.01-.268-12.036-.568-18.079-.902a91.366 91.366 0 0 1-18.028-2.804 1045.089 1045.089 0 0 0-17.677-4.457 819.667 819.667 0 0 0-17.978-4.006 341.377 341.377 0 0 0-15.675-2.955 100.988 100.988 0 0 1-12.469-3.005 142.356 142.356 0 0 0-9.114-2.604 89.793 89.793 0 0 1-10.817-3.505 404.37 404.37 0 0 1-1.102 12.319 11892.026 11892.026 0 0 0-3.555 34.554c-1.202 11.952-2.421 23.92-3.656 35.906a1285.283 1285.283 0 0 1-4.207 36.056h397.87a382.624 382.624 0 0 1-4.306-34.554 779.185 779.185 0 0 1-2.004-35.305 292.842 292.842 0 0 0-1.552-22.535.836.836 0 0 0 0-.2 47.838 47.838 0 0 1-.05-.451 451.55 451.55 0 0 1-1.903-15.324 200.29 200.29 0 0 1-16.376 3.155c-5.074.768-10.7 1.452-16.876 2.053a172.042 172.042 0 0 0-17.928 2.654 241.703 241.703 0 0 1-17.477 2.955 182.397 182.397 0 0 1-18.078 1.502l-17.778.501c-4.607.167-9.214.284-13.821.351-6.01.066-12.019.233-18.029.5-6.009.234-12.018.384-18.028.451-3.672.033-7.328.134-10.967.301Zm92.995-52.783c-10.75 1.336-21.867 2.287-33.352 2.855-11.718.601-23.42 1.168-35.104 1.702-5.442.234-10.901.468-16.376.701-11.852-.5-23.687-1.135-35.505-1.903a1003.998 1003.998 0 0 1-34.855-2.904 4166.701 4166.701 0 0 1-35.054-3.756 1025.626 1025.626 0 0 1-35.055-4.607 432.202 432.202 0 0 1-34.554-6.711 1297.433 1297.433 0 0 0-21.934-4.907 119.803 119.803 0 0 1-9.715-1.753 70.7 70.7 0 0 1-8.413-2.454 447.556 447.556 0 0 0-1.903 28.545 456.45 456.45 0 0 1-.751 14.923c.5.094.984.227 1.452.401a82.938 82.938 0 0 0 8.864 2.804 776.893 776.893 0 0 1 17.828 4.908 99.46 99.46 0 0 0 16.175 3.355 108.77 108.77 0 0 1 13.471 2.554 1048.347 1048.347 0 0 0 17.577 4.357 1030.73 1030.73 0 0 0 17.477 3.956 69.873 69.873 0 0 0 13.171 1.552c6.076.134 12.135.334 18.178.601 3.205.134 6.41.184 9.615.15 5.976-.033 11.952.034 17.928.201 6.043.167 12.102.25 18.178.25 6.11-.033 12.236-.05 18.379-.05 6.11 0 12.236-.033 18.379-.1 6.076-.067 12.169-.2 18.278-.401 6.01-.167 12.036-.384 18.078-.651 6.11-.3 12.236-.384 18.379-.25 6.11.133 12.236.05 18.379-.251 5.976-.3 11.935-.651 17.878-1.051a138.994 138.994 0 0 0 18.178-2.404 223.096 223.096 0 0 1 18.128-2.955c3.706-.467 7.428-.934 11.168-1.402a250.212 250.212 0 0 0 17.927-2.854 324.2 324.2 0 0 1 11.168-1.953 445.777 445.777 0 0 1-.801-11.418 1002.656 1002.656 0 0 0-1.703-24.438 498.256 498.256 0 0 1-.651-9.415 4369.977 4369.977 0 0 1-32.501 8.113 322.087 322.087 0 0 1-36.006 6.66Z"/></g><defs><clipPath id="a"><path fill="#fff" d="M0 0h680v943H0z"/></clipPath></defs></svg>