<svg xmlns="http://www.w3.org/2000/svg" width="680" height="943" fill="none"><g clip-path="url(#a)"><path fill="#000" d="M299.318 510.127a56.907 56.907 0 0 1-13.768 4.892 153.765 153.765 0 0 1-31.167 3.278c-9.918 0-19.551-1.732-28.898-5.195a84.891 84.891 0 0 1-24.762-14.373 90.865 90.865 0 0 1-18.811-21.434 145.855 145.855 0 0 1-5.195-8.775 573.419 573.419 0 0 1-12.961-25.166c-.639-.706-1.446-1.126-2.421-1.261-1.244-.201-2.336.101-3.278.908-.84.74-1.294 1.698-1.362 2.875 0 .706.135 1.429.404 2.169a93.42 93.42 0 0 0 3.177 6.959 319.415 319.415 0 0 0 8.523 16.088 167.841 167.841 0 0 0 5.447 8.927c-2.255.683-3.163 2.28-2.723 4.791l.201.403c.024.045.041.079.051.101a63.499 63.499 0 0 0-.605 8.775 214.52 214.52 0 0 1-1.967 28.192 2469.227 2469.227 0 0 1-3.984 28.041 976.768 976.768 0 0 0-3.732 27.99 237.307 237.307 0 0 1-.505 4.084c-.099.275-.2.527-.302.757a7.306 7.306 0 0 0-.555 1.513 5.464 5.464 0 0 0-.151 1.664 186.183 186.183 0 0 0-2.068 7.061 455.627 455.627 0 0 0-2.32 8.422 5730.526 5730.526 0 0 1-8.574 32.579 240.002 240.002 0 0 0-6.455 33.034 2691.574 2691.574 0 0 0-4.135 36.16l.1-.505c-.032.183-.065.368-.1.555l-.051.504v-.201a67.491 67.491 0 0 0-.353 2.622 1660.628 1660.628 0 0 0-4.135 34.899 340.878 340.878 0 0 1-5.8 35.404 810.67 810.67 0 0 1-8.422 34.597 577.23 577.23 0 0 0-8.12 34.697 1587.258 1587.258 0 0 0-6.657 34.546 270.085 270.085 0 0 0-4.034 35.253c-.55 10.897 1.35 21.336 5.698 31.318h8.776a90.164 90.164 0 0 1-3.581-9.38 59.009 59.009 0 0 1-2.32-10.137c-1.479-11.263-1.059-22.527 1.261-33.79a778.141 778.141 0 0 0 6.455-35.151 276.19 276.19 0 0 1 7.716-34.194 438.543 438.543 0 0 0 8.826-35.403 549.662 549.662 0 0 0 6.001-35.353 10271.13 10271.13 0 0 1 4.691-34.042 968.677 968.677 0 0 0 4.236-34.042 573.473 573.473 0 0 1 4.892-34.798 258.695 258.695 0 0 1 5.245-23.552c-.106 2.537-.19 5.076-.252 7.615-.236 9.347-.488 18.694-.757 28.04a603.88 603.88 0 0 0-.252 28.091c.101 9.515.067 19.013-.101 28.495-.202 9.414-.437 18.828-.706 28.242a707.032 707.032 0 0 0-.202 22.896c-.668.399-1.273 1.072-1.815 2.017-.348.593-.482 1.181-.404 1.766a98.57 98.57 0 0 0-2.572 13.868 1818.767 1818.767 0 0 0-2.118 19.316 2293.112 2293.112 0 0 0-2.118 21.837 932.727 932.727 0 0 1-2.169 21.737 1263.603 1263.603 0 0 1-2.622 22.392c-.202 1.546-.252 2-.151 1.361v.051c-.437 2.891-.841 5.8-1.211 8.725a376.57 376.57 0 0 1-3.379 22.089 256.419 256.419 0 0 1-4.892 21.736 152.003 152.003 0 0 0-3.833 19.568h8.423a7.2 7.2 0 0 0 .101-.605 143.806 143.806 0 0 1 4.085-21.736 263.35 263.35 0 0 0 4.841-21.585 397.385 397.385 0 0 0 3.48-22.846c.941-7.498 1.799-15.012 2.572-22.544.74-7.161 1.463-14.322 2.169-21.484.238-2.479.491-4.967.756-7.464a62.728 62.728 0 0 0 13.718 3.379 190.804 190.804 0 0 1 21.333 4.035 205.561 205.561 0 0 0 20.727 4.085 11.618 11.618 0 0 1-.454-.101 4200.08 4200.08 0 0 1 20.375 3.177 294.513 294.513 0 0 0 22.392 2.673c7.33.605 14.659 1.362 21.989 2.27a322.58 322.58 0 0 0 22.089 1.866c7.397.369 14.81.655 22.241.857 6.018 0 12.036-.084 18.055-.252 4.471-.101 8.926-.252 13.364-.454a565.065 565.065 0 0 0 22.594-1.463c7.229-.639 14.474-1.244 21.736-1.815l21.686-1.715a979.76 979.76 0 0 0 22.09-1.967c7.329-.74 14.659-1.412 21.988-2.017a613.76 613.76 0 0 1 20.778-1.362 246.495 246.495 0 0 0 20.173-1.715c.299 4.445.702 8.883 1.211 13.315.437 3.866.756 7.749.958 11.649a213.356 213.356 0 0 0 2.118 20.678 509.382 509.382 0 0 0 4.136 23.249c0-.134-.017-.269-.051-.403v-.101l.454 3.177c.155 1.178.323 2.355.504 3.53v-.101a1.678 1.678 0 0 1-.05-.403c.303 1.748.538 3.497.706 5.245.504 5.447.807 10.91.908 16.391.052 4.356.707 8.541 1.967 12.557h7.918c-.029-1.689-.382-3.454-1.06-5.295a42.773 42.773 0 0 0-.151-2.219c-.437-4.438-.79-8.876-1.059-13.314a169.48 169.48 0 0 0-1.21-13.516 159.106 159.106 0 0 0-1.059-6.657 1264.06 1264.06 0 0 0-4.035-21.989 35.994 35.994 0 0 1-.656-5.648 293.712 293.712 0 0 0-1.815-23.098 344.818 344.818 0 0 1-1.866-21.233c-.437-7.531-.908-15.062-1.412-22.593a181.09 181.09 0 0 1-.404-17.097c.068-3.564.034-7.144-.101-10.742-.116-2.338-.89-3.868-2.319-4.589.283-7.458.367-14.939.252-22.443a134.091 134.091 0 0 1 1.361-21.736 366.38 366.38 0 0 0 2.774-26.427c.639-9.212 1.211-18.441 1.715-27.687.571-9.918 1.21-19.854 1.916-29.806a951.222 951.222 0 0 0 1.614-27.788c.27-6.248.488-12.502.656-18.761.219.56.437 1.115.655 1.665 3.766 9.38 7.481 19.483 11.146 30.309a124.324 124.324 0 0 1 5.901 26.225 982.46 982.46 0 0 1 3.379 35.606 325.576 325.576 0 0 0 4.74 36.059 1513.303 1513.303 0 0 0 6.052 29.805 690.515 690.515 0 0 1 6.455 35.051 390.94 390.94 0 0 0 7.111 34.647 1565.888 1565.888 0 0 1 8.372 35.101 201.599 201.599 0 0 1 4.69 35.101c.606 13.65-2.168 26.527-8.321 38.631l-.403.202a1.173 1.173 0 0 0-.404.252l-.403.303a3.352 3.352 0 0 1-.353.302 2.623 2.623 0 0 0-.252.404 2.704 2.704 0 0 0-.253.403 1.102 1.102 0 0 0-.201.454 5.735 5.735 0 0 0-.202.454c0 .134-.017.286-.051.454a2.61 2.61 0 0 0 0 1.008.491.491 0 0 1 0 .202h8.927c4.389-6.941 7.163-14.573 8.321-22.896a132.402 132.402 0 0 0 .152-35.908 311.221 311.221 0 0 0-6.557-35 1032.527 1032.527 0 0 1-8.069-34.95 896.864 896.864 0 0 1-6.657-35.101 465.04 465.04 0 0 0-7.262-34.748 263.395 263.395 0 0 1-6.254-34.849 456.746 456.746 0 0 1-2.572-35.201 128.056 128.056 0 0 0-4.64-30.361 529.896 529.896 0 0 0-10.237-32.579c-3.734-10.695-7.87-20.916-12.407-30.663.125-6.638.243-13.278.353-19.921.101-4.74-.101-9.464-.605-14.171a160.615 160.615 0 0 1-.504-28.444 238.686 238.686 0 0 1 3.681-28.041 895.612 895.612 0 0 1 6.153-30.007c.053-.243.104-.495.151-.756.591-.883 1.179-1.774 1.765-2.673 1.286-1.971 1.336-3.77.152-5.397a253.445 253.445 0 0 1 5.396-17.802c-.37-3.06-2.084-4.388-5.144-3.984-.504.067-.874.319-1.11.756-3.328 6.052-5.715 12.558-7.161 19.517-.356 1.729-.709 3.46-1.059 5.195a632.015 632.015 0 0 0-10.54 17.197 173.4 173.4 0 0 1-15.988 22.493c-5.951 7.094-13.062 12.76-21.332 16.996-9.717 5.043-20.005 7.884-30.865 8.523-10.154.639-19.955-.807-29.402-4.337a113.803 113.803 0 0 1-23.552-12.104 3.358 3.358 0 0 0-.202-.353c-.773-1.042-1.815-1.58-3.127-1.614-1.378-.067-2.488.454-3.328 1.564-.807 1.042-1.043 2.202-.706 3.48a5.6 5.6 0 0 0 .454.907c1.344 2.085 3.11 3.766 5.295 5.044 8.002 4.707 16.172 8.506 24.51 11.397 8.843 3.06 17.954 4.421 27.335 4.085h1.361a83.715 83.715 0 0 0 7.162-.554.463.463 0 0 0 .151-.051c.094.01.178.01.252 0a.433.433 0 0 0 .151-.05h.051a.239.239 0 0 0 .101 0h.05a.58.58 0 0 0 .202-.051l-.051.051a83.665 83.665 0 0 0 20.173-5.296c10.995-4.404 20.56-10.91 28.696-19.517a134.03 134.03 0 0 0 18.106-24.056 385.844 385.844 0 0 0-4.489 26.678 163.196 163.196 0 0 0-1.21 28.646c.269 6.691.521 13.381.756 20.072.272 7.905.39 15.806.353 23.703l-.151.202a5.417 5.417 0 0 1-.303.454 3.485 3.485 0 0 1-.252.504l-.201.505c-.202 1.445.033 2.858.706 4.236.058.121.108.239.151.353a424.031 424.031 0 0 1-1.009 25.317 2103.425 2103.425 0 0 1-2.118 28.696 478.736 478.736 0 0 0-1.311 27.788 555.935 555.935 0 0 1-1.261 28.949 342.825 342.825 0 0 1-3.076 27.737v-.1l-.051.403-.101.656.051-.252a291.217 291.217 0 0 0-.958 8.422 202.2 202.2 0 0 0-.959 21.635 459.654 459.654 0 0 1-.353 22.291 204.21 204.21 0 0 1-16.491 2.623h.05a532.65 532.65 0 0 1-13.969 1.563 497.326 497.326 0 0 1-22.493 1.715 278.07 278.07 0 0 1-16.441.454c-2.167-.01-4.336-.044-6.506-.101a424.926 424.926 0 0 0-21.686.151c-7.498.236-14.995.622-22.493 1.16-7.195.505-14.407.824-21.635.958a878.39 878.39 0 0 1-26.679.101 275.662 275.662 0 0 1-21.737-1.059 107.424 107.424 0 0 0-9.834-.353 277.539 277.539 0 0 1-22.442-.706c-5.875-.454-11.759-.858-17.652-1.21a.546.546 0 0 1-.151-.051c-.151.01-.303.01-.454 0a482.93 482.93 0 0 1-22.039-1.815 254.477 254.477 0 0 1-21.887-3.177 208.248 208.248 0 0 0-22.342-3.026 795.608 795.608 0 0 0-8.372-.555 72.487 72.487 0 0 1-18.66-3.581c.439-6.1.725-12.252.858-18.458.201-9.582.319-19.181.353-28.797 0-9.481.033-18.963.1-28.444.068-9.717.236-19.433.505-29.15.201-8.977.353-17.92.454-26.83.101-9.145.638-18.256 1.613-27.334-.033.134-.05.252-.05.353-.007.029-.024.046-.05.05a875.713 875.713 0 0 0 1.815-20.072 370.975 370.975 0 0 1 3.177-26.527 4378.43 4378.43 0 0 0 4.136-27.032 504.709 504.709 0 0 0 3.379-27.536 232.872 232.872 0 0 0 1.059-22.796c.074-.047.141-.097.202-.151.365-.336.651-.706.857-1.11a96.497 96.497 0 0 0 13.97 15.029 86.448 86.448 0 0 0 24.006 14.727 103.404 103.404 0 0 0 27.284 6.959c7.497.37 14.978.37 22.442 0 8.506-.437 16.777-2 24.813-4.69a141.103 141.103 0 0 0 25.216-11.246c1.009-.572 1.799-1.328 2.37-2.27 2.018-3.228 1.177-5.363-2.521-6.405a351.06 351.06 0 0 0-18.812 8.826Zm80.037 285.347a430.607 430.607 0 0 1 22.745-1.211c4.639-.101 9.279-.084 13.919.051 7.33.201 14.676.134 22.039-.202 6.993-.336 13.97-.757 20.929-1.261a390.419 390.419 0 0 0 18.812-1.765 188.333 188.333 0 0 0 19.315-3.329 5.314 5.314 0 0 0 1.463-.554.944.944 0 0 0 .151.1 106.803 106.803 0 0 0-.101 20.728 390.264 390.264 0 0 1 1.413 21.737c.008.218.008.436 0 .655a50.9 50.9 0 0 0-4.59.303 506.218 506.218 0 0 1-17.5 1.513c-7.531.504-15.046 1.042-22.543 1.614a876.703 876.703 0 0 0-22.897 2.118 531.8 531.8 0 0 1-21.938 1.866 813.236 813.236 0 0 0-22.24 1.815c-7.363.706-14.727 1.362-22.09 1.967-4.808.37-9.599.656-14.373.858-5.85.201-11.684.403-17.5.605-8.641.336-17.298.353-25.973.05a296.483 296.483 0 0 1-21.887-1.513c-7.7-.807-15.399-1.546-23.098-2.219a535.62 535.62 0 0 1-21.888-2.269 758.739 758.739 0 0 1-22.796-3.178 262.414 262.414 0 0 1-21.686-4.236 217.592 217.592 0 0 0-21.282-3.984 99.729 99.729 0 0 1-20.526-4.892 2.421 2.421 0 0 0-.605-1.009c.216-1.779.434-3.561.655-5.345a342.063 342.063 0 0 0 1.967-22.594 341.42 341.42 0 0 1 1.816-11.045c1.027.445 2.136.782 3.328 1.009a253.652 253.652 0 0 0 20.274 2.925c5.413.571 10.81 1.21 16.189 1.916 7.33.975 14.659 2.051 21.989 3.228a221.732 221.732 0 0 0 22.089 2.32 357.717 357.717 0 0 1 22.493 1.916c7.363.908 14.743 1.211 22.14.908 7.43-.269 14.827-.017 22.19.757 7.43.773 14.877 1.159 22.341 1.159a582.42 582.42 0 0 1 22.998-.554 343.671 343.671 0 0 0 24.258-.958Zm-123.711-29.302c-4.472-4.202-8.17-9.044-11.095-14.524a177.299 177.299 0 0 1-9.482-21.131 11.936 11.936 0 0 0-1.311-2.623c-2.084-3.127-4.354-3.278-6.808-.454-.303.37-.404.773-.303 1.211 1.614 7.329 4.253 14.356 7.918 21.08a987.836 987.836 0 0 1 5.497 10.238c3.8 7.094 9.213 12.323 16.24 15.685.1.033.218.05.353.05 1.714.235 3.059-.353 4.034-1.765.773-1.21.874-2.471.303-3.783-.639-1.412-1.715-2.235-3.228-2.471a9.336 9.336 0 0 1-2.118-1.513Zm179.287-16.743a120.624 120.624 0 0 0-3.581 8.926 560.535 560.535 0 0 1-5.244 14.273 5.558 5.558 0 0 1-.959 1.614c-2.252 2.555-2.572 5.16-.958 7.817a3.945 3.945 0 0 0 2.522 1.109c.975.067 1.765-.235 2.37-.908 3.228-3.564 5.548-7.716 6.96-12.457a159.231 159.231 0 0 1 6.758-18.508 3.007 3.007 0 0 1-.051.252 1.13 1.13 0 0 0-.151.353 365.845 365.845 0 0 0 5.8-12.81 57.06 57.06 0 0 0 3.53-11.448c.303-1.479-.202-2.606-1.513-3.379-2.925-1.648-4.926-.874-6.001 2.32a171.34 171.34 0 0 1-9.583 23.148l.101-.302ZM207.229 266.084a.85.85 0 0 0 0-.101c-.035.04-.069.073-.101.101.037.006.07.006.101 0Zm393.978 371.788a90.134 90.134 0 0 1-17.551 9.481 479.38 479.38 0 0 0-19.769 8.524c-.202.336-.37.689-.504 1.059a16.23 16.23 0 0 0-.353 1.21c0 .202.016.42.05.656l.101.605.202.504c.067.168.134.32.201.454.101.135.202.286.303.454.101.134.219.252.353.353.101.135.219.252.353.353.135.101.286.202.454.303.134.067.286.134.454.201.168.101.336.168.504.202.202.067.387.101.555.101.202.034.387.067.555.101a39.884 39.884 0 0 0 4.438-1.362 689.16 689.16 0 0 0 17.954-7.313 85.425 85.425 0 0 0 19.467-11.397c.1-.168.185-.32.252-.454.101-.135.185-.286.252-.454l.202-.504c.033-.202.05-.404.05-.606.034-.437 0-.857-.101-1.26a10.32 10.32 0 0 0-.353-1.211 5.676 5.676 0 0 0-.302-.454 1.789 1.789 0 0 0-.353-.353 3.862 3.862 0 0 0-.404-.353l-.403-.302a6.365 6.365 0 0 1-.454-.202 10.935 10.935 0 0 0-1.009-.252l-1.109-.101a16.196 16.196 0 0 0-4.035 2.017Zm-483.95 4.64c-.033-.202-.067-.42-.101-.656a5.789 5.789 0 0 1-.201-.454 6.329 6.329 0 0 0-.202-.453 5.107 5.107 0 0 0-.303-.454 14.083 14.083 0 0 0-4.539-2.724 1037.767 1037.767 0 0 1-17.096-6.405 77.552 77.552 0 0 1-15.332-8.069l-.504-.201a89.924 89.924 0 0 0-.504-.101h-.505c-.201 0-.386.016-.554.05l-.505.101a2.931 2.931 0 0 0-.504.151 6.67 6.67 0 0 1-.454.252c-.168.101-.32.202-.454.303a3.858 3.858 0 0 0-.403.353 1.773 1.773 0 0 0-.353.353c-.101.135-.202.286-.303.454-.1.168-.185.353-.252.555l-.202.605a4.64 4.64 0 0 0-.05.655 2.144 2.144 0 0 0 0 .656l.1.605c.068.168.118.337.152.505 1.177 1.647 2.69 2.992 4.539 4.034a119.15 119.15 0 0 0 15.886 7.313 545.293 545.293 0 0 1 16.592 6.506l.505.201c.168.068.336.118.504.152.168.067.336.117.504.151h.555c.168 0 .336-.017.504-.05.202-.034.387-.068.555-.101.168-.034.336-.084.505-.152.134-.067.285-.151.453-.252.135-.067.269-.151.404-.252.134-.101.269-.218.403-.353l.353-.353c.101-.168.185-.319.253-.454a2.55 2.55 0 0 0 .302-.605l.202-.605a3.75 3.75 0 0 0 .05-.605v-.656Zm331.795-142.219c.101.067.219.117.353.151 2.085.975 3.833.555 5.245-1.261.538-.639.723-1.362.555-2.169-.773-3.53-3.093-5.11-6.96-4.74-1.109.101-1.899.622-2.37 1.563-1.748 3.295-.807 5.396 2.824 6.304.135.068.252.118.353.152Zm-215.649-12.81c-2.589 2.925-2.084 5.362 1.513 7.312.975.606 2.017.74 3.127.404 1.009-.336 1.698-.992 2.068-1.967 1.21-3.497-.118-5.699-3.984-6.607-1.076-.235-1.984.051-2.724.858Zm111.506 206.218c1.379-2.118 1.379-4.253 0-6.405a1.631 1.631 0 0 0-.201-.252c-.942-1.042-2.085-1.715-3.43-2.018-1.277-.302-2.505-.235-3.681.202a6.115 6.115 0 0 0-1.765 1.412c-.337.438-.656.875-.959 1.312-.201.47-.353.975-.454 1.513-.235 1.445.051 2.807.858 4.085.874 1.345 2.101 2 3.681 1.966.437.236.908.37 1.412.404 1.95.134 3.463-.605 4.539-2.219Zm109.943-588.294c-.134-.807-.454-1.497-.958-2.068-3.127-3.867-7.313-5.43-12.558-4.69-1.546.201-2.975.571-4.287 1.11a1215.81 1215.81 0 0 1-.454-19.014 97.746 97.746 0 0 0-.302-6.354 706.877 706.877 0 0 0-1.816-20.577c-.672-6.724-2.353-13.146-5.043-19.265-2.992-6.758-7.699-11.818-14.121-15.18a282.588 282.588 0 0 1-2.269-1.11c0-.033-.017-.05-.051-.05a68.929 68.929 0 0 0-19.618-5.75c-6.388-.907-12.726-.47-19.013 1.312a28.854 28.854 0 0 1-7.363 1.059c-4.001.1-8.002.05-12.003-.151-7.027-.37-14.037-.05-21.031.958a36.864 36.864 0 0 1-7.917.353 511.781 511.781 0 0 1-20.325-1.715 71.148 71.148 0 0 0-19.82.656 88.047 88.047 0 0 0-19.315 5.749c-3.06 1.311-5.598 3.278-7.616 5.9-3.933 4.977-6.926 10.743-8.977 17.299a87.447 87.447 0 0 0-3.832 19.971 89.913 89.913 0 0 0 .151 15.634 140.589 140.589 0 0 0 2.068 14.575 24.114 24.114 0 0 0-6.809-1.462 39.672 39.672 0 0 0-2.067-.152c-5.279-.302-8.658 2-10.137 6.91-1.883 6.421-2.589 12.994-2.119 19.719.438 6.052.353 12.087-.252 18.105a69.321 69.321 0 0 0 1.059 20.929c.74 3.564 2.522 6.489 5.346 8.776 5.077 4.068 10.457 4.623 16.139 1.664.168.504.285.992.353 1.462.168.976.403 1.934.706 2.875 0 .572.05 1.143.151 1.715.471 2.522.857 5.06 1.16 7.615.84 6.792 1.614 13.583 2.32 20.375a65.614 65.614 0 0 0 3.227 14.877 59.012 59.012 0 0 0 2.774 6.809 10.13 10.13 0 0 0-2.269.908 6.204 6.204 0 0 0-1.715.353 258.6 258.6 0 0 0-8.876 3.681 25.006 25.006 0 0 0-6.001 2.572 141.785 141.785 0 0 0-8.826 5.75l.101-.101a5.61 5.61 0 0 1-.757.403c-.504.235-1.008.454-1.513.656a11.59 11.59 0 0 0-1.614.756c-.773.202-1.529.437-2.269.706a207.648 207.648 0 0 1-9.078 3.228 70.712 70.712 0 0 0-11.246 4.791 6.17 6.17 0 0 1 .454-.202l.504-.201a48.673 48.673 0 0 0-4.791 2.37 1611.705 1611.705 0 0 1-22.342 12.104 2621.106 2621.106 0 0 0-20.828 11.246 450.302 450.302 0 0 0-10.389 4.035 215.407 215.407 0 0 0-19.417 8.926c-10.86 5.615-19.938 13.298-27.233 23.048a219.034 219.034 0 0 0-18.761 29.906 199.363 199.363 0 0 0-13.567 32.63 251.225 251.225 0 0 0-8.17 34.345 2448.294 2448.294 0 0 1-6.102 34.949 374.123 374.123 0 0 0-4.791 35.152c-.27 3.026-.42 6.035-.454 9.027a671.713 671.713 0 0 1-1.16 35.908 663.948 663.948 0 0 1-2.975 35.555 94.572 94.572 0 0 1-1.312 8.826c-.688 3.665-.79 7.196-.302 10.59a58.116 58.116 0 0 0-.454 5.649c-.47 11.767-2.337 23.367-5.598 34.798a572.075 572.075 0 0 1-10.843 33.79 152.086 152.086 0 0 0-7.918 34.294 688.927 688.927 0 0 0-3.026 35.252 387.408 387.408 0 0 0-.504 35.353c.336 11.835.588 23.687.756 35.555.168 11.869.757 23.72 1.765 35.555.908 10.927 1.631 22.392 2.169 34.395a881.847 881.847 0 0 0 2.32 35.252c.504 5.985.79 11.97.857 17.954.067 11.97-.47 23.922-1.614 35.858a7.228 7.228 0 0 1-.252.454 2.673 2.673 0 0 0-.151.554l-.101.505c-.034.201-.05.386-.05.554 0 .169.016.337.05.505.034.168.067.319.1.454l.102.504a2.6 2.6 0 0 0 .252.403c.067.135.151.269.252.404.067.134.168.269.303.403.1.101.201.219.302.353.135.101.27.185.404.253.134.1.269.184.403.252.135.101.27.168.404.201.168.068.319.135.454.202.168 0 .336.017.504.051a2.613 2.613 0 0 0 1.008 0c.202-.034.387-.068.555-.101.135-.034.286-.084.454-.152a1.96 1.96 0 0 0 .454-.252 2.62 2.62 0 0 0 .404-.252c.134-.101.268-.218.403-.353a33.79 33.79 0 0 0 2.42-7.565c.4-1.956.635-3.973.707-6.052.201-7.598.32-15.213.353-22.846 0-8.909-.353-17.836-1.06-26.779a1447.479 1447.479 0 0 1-2.47-36.261 1114.883 1114.883 0 0 0-2.421-35 476.854 476.854 0 0 1-1.614-36.665c-.1-11.734-.252-23.468-.454-35.201a328.56 328.56 0 0 1 1.11-34.547 619.546 619.546 0 0 1 4.034-35.403c1.748-12.272 4.74-23.771 8.977-34.496a245.404 245.404 0 0 0 10.692-33.487c2.239-9.394 3.365-18.842 3.379-28.343.092-.114.176-.232.252-.353.37-.639.555-1.345.555-2.118-.706-3.934-.824-7.935-.353-12.003a884.168 884.168 0 0 0 3.53-37.522 808.087 808.087 0 0 0 1.916-38.278 285.017 285.017 0 0 1 3.38-37.421 3355.233 3355.233 0 0 1 5.749-36.11 350.145 350.145 0 0 1 8.018-36.614 186.539 186.539 0 0 1 11.852-31.621 282.173 282.173 0 0 1 16.441-29.553 63.835 63.835 0 0 1 11.246-13.314c8.708-7.868 18.391-14.374 29.05-19.518 1.714-.807 2.656-1.244 2.824-1.311a791.25 791.25 0 0 1 12.053-4.69c.125.033.243.05.353.05.168 0 .353-.017.555-.05a48.968 48.968 0 0 0 8.573-3.884 772.32 772.32 0 0 1 8.523-4.841c3.901-2.118 7.784-4.253 11.65-6.405 4.893-2.73 9.802-5.419 14.727-8.069.04.004.073.004.1 0a746.791 746.791 0 0 1 9.784-5.144 180.028 180.028 0 0 0 11.852-3.732 65.358 65.358 0 0 0 13.163-6.405l2.471-1.614a19.08 19.08 0 0 0 2.925-1.513 54.64 54.64 0 0 0 2.723-1.866c.269-.067.538-.151.807-.252.35-.109.686-.244 1.009-.404a3.8 3.8 0 0 0 1.715-.554 8.69 8.69 0 0 1 .403-.253c.15-.036.302-.07.454-.1.168-.068.319-.135.454-.202l.504-.202.404-.302c.101-.076.202-.16.302-.253a35.651 35.651 0 0 0 3.329-1.26l3.228-1.312a45.16 45.16 0 0 1 2.925-.504c1.039-.171 1.913-.491 2.622-.958a69.083 69.083 0 0 0 9.431 11.65 216.109 216.109 0 0 0 15.18 13.616c5.481 4.438 10.994 7.986 16.542 10.642 5.85 2.757 12.289 4.488 19.316 5.194.706.067 1.412.101 2.118.101a49.382 49.382 0 0 0 5.446-.403 42.493 42.493 0 0 1 5.851-.303c.336.135.689.202 1.059.202.504 0 .975-.034 1.412-.101 1.479.437 3.059.622 4.741.555 4.707.033 9.38-.454 14.02-1.463a66.281 66.281 0 0 0 19.568-7.666 120.91 120.91 0 0 0 16.239-11.448c.908-.773 1.53-1.277 1.866-1.513a98.465 98.465 0 0 0 6.203-4.387c.975-1.312 2.622-2.858 4.942-4.64l3.278-2.522h-.05a29.01 29.01 0 0 0 1.009-1.059 55.755 55.755 0 0 0 3.58 2.169c.087.057.171.108.253.151a60.414 60.414 0 0 0 8.674 3.934 143.31 143.31 0 0 1 16.189 9.279 232.088 232.088 0 0 0 31.47 17.5 156.492 156.492 0 0 0 35.403 11.398 151.076 151.076 0 0 1 34.395 11.095 101.777 101.777 0 0 1 16.088 9.229 111.34 111.34 0 0 1 18.458 16.24 138.83 138.83 0 0 1 20.072 28.494c.068.202.118.303.152.303a357.161 357.161 0 0 1 4.892 12.305 120.929 120.929 0 0 1 4.085 13.113 2564.876 2564.876 0 0 1 8.22 34.495c1.345 5.951 2.69 11.886 4.035 17.803a1336.732 1336.732 0 0 1 4.64 21.434c-.24.353-.408.739-.505 1.16 1.11 9.145 2.118 18.34 3.026 27.586a367.135 367.135 0 0 1 1.715 25.771 998.462 998.462 0 0 0 1.815 34.748l-.05-.302a46.73 46.73 0 0 1 .403 4.639c.202 6.052.572 12.087 1.11 18.106.383 4.619.736 9.242 1.059 13.868a8.32 8.32 0 0 1-.151.404l-.202.403a9.46 9.46 0 0 1-.101.454l-.101.505c.168 2.151.421 4.303.757 6.455a242.02 242.02 0 0 0 3.076 16.088 984.494 984.494 0 0 1 3.43 16.491c.02.107.037.208.05.303.145.999.279 2.008.403 3.026.37 3.093.858 6.186 1.463 9.279.538 2.858 1.076 5.699 1.614 8.524v-.152a452.785 452.785 0 0 1 1.765 12.356c.269 1.984.42 3.093.454 3.329a5289.284 5289.284 0 0 0 3.127 33.134c1.176 11.868 2.74 23.384 4.69 34.546a205.658 205.658 0 0 1 2.975 32.327 1001.67 1001.67 0 0 1-.201 37.572 766.617 766.617 0 0 0-.051 34.042c.269 11.633.404 23.283.404 34.95-.034 12.07.117 24.157.454 36.261a211.657 211.657 0 0 1-2.018 36.16l-.05.303a1.504 1.504 0 0 0 0-.253 101.348 101.348 0 0 1-.706 3.934 279.805 279.805 0 0 0-1.664 8.977c-.24 1.435-.542 3.167-.908 5.195-.138.826-.289 1.7-.454 2.622 0 .168.017.336.05.504.034.169.068.32.101.454l.101.505c.067.134.151.269.252.403.067.135.152.269.252.404.068.134.168.269.303.403.101.101.202.219.303.353.134.101.269.185.403.252.135.101.269.185.403.252.135.101.269.169.404.202.168.067.319.135.454.202.168 0 .336.017.504.05a2.535 2.535 0 0 0 1.009 0 2.61 2.61 0 0 1 .504-.05c.135-.067.286-.135.454-.202.135-.033.269-.101.403-.202.135-.067.269-.151.404-.252.134-.067.269-.151.403-.252.101-.134.202-.252.303-.353a1.61 1.61 0 0 0 .303-.403c.1-.135.185-.269.252-.404.101-.134.185-.269.252-.403.235-1.177.454-2.371.655-3.581.538-3.026 1.11-6.052 1.715-9.078.627-3 1.148-6.01 1.564-9.027a.432.432 0 0 0 .05-.152.138.138 0 0 1 0-.05 162.658 162.658 0 0 0 1.412-15.634c.471-11.499.639-23.014.504-34.546-.134-12.306-.252-24.611-.353-36.917a596.322 596.322 0 0 0-.403-15.583 413.866 413.866 0 0 1-.101-32.933c.471-12.238.74-24.493.807-36.765a198.257 198.257 0 0 0-2.522-32.68 43.86 43.86 0 0 0-.554-3.48 87.051 87.051 0 0 1-.908-6.052 62.582 62.582 0 0 0-.706-4.942l.05.353a219.866 219.866 0 0 1-2.471-18.459 2618.119 2618.119 0 0 0-3.026-32.73 363.814 363.814 0 0 0-4.791-33.185.384.384 0 0 0 0-.151l-.101-.504c-.288-1.937-.573-3.87-.857-5.8a268.981 268.981 0 0 0-3.077-17.147l-3.631-17.046a66.874 66.874 0 0 1-.403-3.127c-.13-1.33-.282-2.658-.454-3.984a3.13 3.13 0 0 0 .05-.202 465.48 465.48 0 0 0-1.311-21.535 672.055 672.055 0 0 1-2.118-36.715 427.024 427.024 0 0 0-2.169-31.419 555.96 555.96 0 0 1-2.168-25.973.604.604 0 0 0 .151-.101c.437-.403.773-.89 1.009-1.462.235-.572.353-1.16.353-1.765a137.062 137.062 0 0 1-2.169-10.944 236.278 236.278 0 0 0-2.874-14.676 1734.165 1734.165 0 0 0-8.12-34.697 798.292 798.292 0 0 1-4.136-17.702 191.938 191.938 0 0 0-10.187-32.327 31.238 31.238 0 0 0-.202-.505.56.56 0 0 0-.05-.101l-.151-.403a75.604 75.604 0 0 0-9.23-16.491 223.077 223.077 0 0 0-23.753-27.284 38.163 38.163 0 0 0-3.278-2.925c-9.044-7.397-19.013-13.281-29.907-17.652a176.768 176.768 0 0 0-33.386-9.733c-10.86-2.051-21.72-5.481-32.579-10.289-2.32-1.008-3.144-1.378-2.472-1.109a177.535 177.535 0 0 1-16.743-9.38 909.569 909.569 0 0 1-15.231-9.936 98.726 98.726 0 0 0-15.533-8.472l-.756.605a52.58 52.58 0 0 1-4.842-2.572 20.89 20.89 0 0 1-.403-.252 58.067 58.067 0 0 0 6.455-10.389 77.206 77.206 0 0 0 6.354-18.761c.337-1.715.555-3.463.656-5.245.336-6.556.404-13.113.202-19.669.538-2.152.723-4.354.555-6.607.369.068.722.135 1.059.202 5.514.874 10.052-.739 13.616-4.841 2.623-2.993 4.287-6.422 4.993-10.289.437-2.555.841-5.127 1.211-7.716a250.457 250.457 0 0 0 2.219-23.552c.067-1.479.168-2.958.302-4.438.572-5.245.37-10.406-.605-15.482Zm-7.666 2.118c.101.336.168.672.202 1.008.135 6.052.067 12.087-.202 18.106-.163 3.29-.398 6.569-.706 9.834a216.13 216.13 0 0 1-1.563 12.356 24.966 24.966 0 0 0-.353 2.774c-.471 4.673-2.286 8.556-5.447 11.65-.538.168-1.076.302-1.614.403-.571.101-1.16.168-1.765.202a3.107 3.107 0 0 1-1.664-.353 11.602 11.602 0 0 1-.908-.908 5.436 5.436 0 0 0-3.127-1.765c-3.765-.807-5.715.79-5.85 4.791a169.372 169.372 0 0 0-.151 7.161 2.648 2.648 0 0 0-.151.555 115.938 115.938 0 0 0-.354 17.097 31.545 31.545 0 0 1-.201 5.648 68.307 68.307 0 0 1-5.296 19.719 100.85 100.85 0 0 1-3.53 7.162 36.374 36.374 0 0 1-4.791 6.707 100.915 100.915 0 0 1-17.702 15.029c-.033 0-.067.017-.101.05a131.445 131.445 0 0 1-10.691 8.12 71.849 71.849 0 0 1-15.483 8.17c-7.733 2.925-15.668 4.051-23.804 3.379a3.1 3.1 0 0 0-1.16-.454c-.908-.134-1.681-.084-2.32.151-1.479-.336-3.076-.336-4.791 0a28.361 28.361 0 0 1-7.161.505c-6.859-.37-13.382-2.102-19.568-5.195h.05a12.251 12.251 0 0 1-1.462-.807 133.838 133.838 0 0 1-16.391-12.003 116.595 116.595 0 0 1-14.424-14.675 75.63 75.63 0 0 1-4.539-6.204c-3.832-5.816-6.236-12.137-7.211-18.962a593.596 593.596 0 0 1-2.472-20.274 621.871 621.871 0 0 1-1.008-10.843c.067-.269.134-.555.201-.857.202-1.177.017-2.236-.554-3.178a1.848 1.848 0 0 1-.051-.454c-.134-1.445-.571-2.538-1.311-3.278a40.221 40.221 0 0 1-.403-2.824c-.269-2.656-1.396-4.707-3.379-6.153-.639-.47-1.328-.571-2.068-.302a75.442 75.442 0 0 0-8.574 3.833 3.624 3.624 0 0 0-.605-.051 4.968 4.968 0 0 1-3.026-1.008c-3.463-2.556-5.11-6.136-4.942-10.743.203-6.35.421-12.721.656-19.113.03-1 .063-2.009.1-3.026a38.161 38.161 0 0 0-.252-5.901c-.908-7.632-.168-14.894 2.219-21.787h.908c.672 0 1.345-.05 2.017-.151a23.504 23.504 0 0 1 1.513-.252 20.154 20.154 0 0 1 6.91 3.026 21.57 21.57 0 0 0 2.723 1.513l.202.101c1.378 1.546 3.11 1.546 5.194 0 .673-.471.992-1.11.958-1.917a69.766 69.766 0 0 0-1.109-9.078 154.306 154.306 0 0 1-2.572-21.131 75.935 75.935 0 0 1 1.916-21.333c1.782-7.632 4.943-14.608 9.482-20.93a32.36 32.36 0 0 1 8.674-4.538 69.664 69.664 0 0 1 20.425-3.984c6.892-.27 13.751.134 20.576 1.21a67.855 67.855 0 0 0 20.375.05 85.94 85.94 0 0 1 21.182-.504c7.296.74 14.508.168 21.635-1.715a31.37 31.37 0 0 1 12.508-.806 68.87 68.87 0 0 1 22.139 6.657l-.605-.202c.269.1.538.252.807.454 5.581 4.27 9.263 9.85 11.045 16.743a115.667 115.667 0 0 1 3.328 19.82 360.64 360.64 0 0 1 .959 19.971 530.5 530.5 0 0 1-.101 23.099 2.79 2.79 0 0 0-.202.706 3.005 3.005 0 0 0-.303.756 4.324 4.324 0 0 0 .152 2.522c.336.84.908 1.496 1.714 1.967a3.91 3.91 0 0 0 1.715.504c1.681.067 2.892-.656 3.631-2.169.269-.538.505-1.076.706-1.614 3.228-2.992 6.96-3.681 11.196-2.067Zm-94.561 116.902a.49.49 0 0 1 .202-.05h-.101c-.033 0-.067.016-.101.05Zm22.796-21.635c-1.379.269-2.606.891-3.682 1.866a40.419 40.419 0 0 1-10.036 6.304 101.25 101.25 0 0 1-6.001 2.32 30.135 30.135 0 0 1-11.347 1.563 91.16 91.16 0 0 1-10.44-1.21 41.432 41.432 0 0 1-9.986-3.077 43.787 43.787 0 0 1-8.724-5.295c-.841-1.681-2.219-2.438-4.136-2.27-1.042.068-1.866.538-2.471 1.412-1.479 2.018-1.345 4.001.403 5.951a18.524 18.524 0 0 0 4.085 3.48 69.408 69.408 0 0 0 5.75 3.228 54.532 54.532 0 0 0 9.784 3.682 63.075 63.075 0 0 0 7.817 1.513c3.496.437 7.01.622 10.54.554 1.748.034 3.48-.117 5.195-.454a.22.22 0 0 0 .1-.05 60.799 60.799 0 0 0 9.431-2.522 39.839 39.839 0 0 0 8.977-4.438 415.447 415.447 0 0 0 6.304-4.387 10.207 10.207 0 0 0 2.018-1.967c1.311-1.749 1.26-3.446-.152-5.094-.941-1.042-2.084-1.412-3.429-1.109Zm51.643-71.413c.302.067.605.168.908.303.201.202.386.42.554.655.337.438.605.908.807 1.413.236.47.37.958.404 1.462-.101.235-.236.42-.404.555a24.692 24.692 0 0 1-1.765 1.513c-2.286 1.849-4.791 2.421-7.514 1.715-1.009-.269-1.984-.152-2.925.353-2.152 1.176-2.791 2.925-1.917 5.245.168.437.454.79.858 1.059 1.849 1.277 3.95 1.882 6.304 1.815 1.143 0 2.252-.185 3.328-.555a24.12 24.12 0 0 0 9.683-5.951 6.59 6.59 0 0 0 1.564-2.471c.344-.965.562-1.923.655-2.874.304-2.79-.503-5.446-2.421-7.969a10.498 10.498 0 0 0-2.874-2.572c-3.161-1.916-6.523-2.337-10.087-1.261-2.32.706-3.564 2.236-3.732 4.59a3.238 3.238 0 0 0 .858 2.37c1.815 1.917 3.765 2.085 5.85.504h.756c.37 0 .74.034 1.11.101Zm-171.672-14.625c-3.497.773-6.607 2.303-9.33 4.589-2.455 2.051-3.968 4.623-4.539 7.716a11.473 11.473 0 0 0-.202 2.673c.14 2.612 1.283 4.865 3.43 6.758a9.714 9.714 0 0 0 4.639 2.27c3.43.638 6.91 1.126 10.44 1.462 1.143.269 2.202.084 3.177-.555 1.379-.907 1.967-2.168 1.765-3.782-.202-1.748-1.143-2.891-2.824-3.429a59.602 59.602 0 0 0-2.27-.353 55.287 55.287 0 0 0-5.799-.404c-1.883-.033-3.379-.723-4.489-2.068a.391.391 0 0 1-.05-.151.385.385 0 0 0-.051-.151v-.101c-.033-.202-.016-.37.051-.504.773-2.488 2.421-4.22 4.942-5.195a7.195 7.195 0 0 1 1.816-.454c1.58-.168 2.858-.84 3.833-2.017 1.176-1.479 1.21-2.992.101-4.539-1.144-1.647-2.69-2.236-4.64-1.765Zm82.457 31.621a4.28 4.28 0 0 1-.555.555c-2.522 2.521-4.304 5.497-5.346 8.926-1.042 3.497-.756 6.893.858 10.188 1.176 2.488 3.076 4.101 5.698 4.841a37.466 37.466 0 0 0 10.389 1.463 28.05 28.05 0 0 0 5.044.05c1.58-.101 2.908-.706 3.984-1.815.84-.875 1.143-1.917.908-3.127-.505-2.387-1.984-3.514-4.438-3.379l-1.412.101c-3.463.168-6.91.05-10.339-.353a.88.88 0 0 0-.252-.051h.101c-.37-.067-.74-.151-1.11-.252a3.735 3.735 0 0 1-.908-.403c-1.479-2.589-1.361-5.161.353-7.717a34.39 34.39 0 0 1 3.379-4.286c1.278-1.379 1.681-2.959 1.211-4.741-.337-1.143-1.059-1.916-2.169-2.32-2.522-.874-4.32-.101-5.396 2.32Zm41.607-43.321c-1.48.706-2.488 1.798-3.026 3.278-.774 2.051-.404 3.715 1.109 4.992.034.068.067.152.101.253a3 3 0 0 0 1.16 1.26c.235.337.521.639.857.908.437.336.908.589 1.412.757.135 0 .253.016.353.05h.353c.135.034.269.051.404.051 2.992 0 5.396-1.144 7.212-3.43a4.05 4.05 0 0 0 .908-2.874c-.169-3.598-1.984-5.632-5.447-6.103a9.625 9.625 0 0 0-5.396.858Zm-24.561-19.77c-.269 1.311.067 2.404 1.009 3.278 1.681 1.58 3.479 1.715 5.396.404 2.858-1.95 6.018-3.245 9.481-3.884a27.273 27.273 0 0 1 10.944.101c3.598.74 6.943 1.832 10.036 3.278l.504.202.202.1a.383.383 0 0 1-.151-.05l-.051-.05h-.1c.134.067.285.135.453.202l-.1-.101c.134.1.218.151.252.151.605.27 1.193.555 1.765.857a162.914 162.914 0 0 1 7.212 3.783 249.398 249.398 0 0 0 7.161 3.883 3.48 3.48 0 0 0 1.664 0c2.387-.538 3.48-2.034 3.278-4.488-.033-.706-.319-1.312-.857-1.816a22.721 22.721 0 0 0-4.337-3.228 173.27 173.27 0 0 0-9.633-4.942 89.021 89.021 0 0 0-9.481-3.883 47.332 47.332 0 0 0-10.339-2.27c-1.58-.201-3.177-.269-4.791-.201a34.541 34.541 0 0 0-14.575 3.933 24.74 24.74 0 0 1-1.664.807c-1.782.807-2.875 2.118-3.278 3.934Zm-57.846 24.359a3.21 3.21 0 0 0 .101 2.37c1.076 2.791 3.194 4.119 6.354 3.984 2.32 0 4.489-.571 6.506-1.714 2.555-1.48 3.463-3.631 2.723-6.456a2.877 2.877 0 0 0-.756-1.26c-2.723-2.657-5.968-3.363-9.734-2.119-2.622.874-4.354 2.606-5.194 5.195Zm8.523-32.378a19.22 19.22 0 0 0-3.883.706 92.677 92.677 0 0 0-8.019 2.572 36.722 36.722 0 0 0-9.229 5.044 72.7 72.7 0 0 1-1.664 1.21 39.143 39.143 0 0 0-6.859 6.052l-.555.605c-.134.168-.42.504-.857 1.009a8.231 8.231 0 0 0-1.917 4.387c-.168 1.816.488 3.211 1.967 4.186.404.236.841.404 1.311.505 1.143.168 2.169-.084 3.077-.757 1.008-.74 1.563-1.715 1.664-2.925a15.039 15.039 0 0 1 3.934-4.186c.538-.403 1.059-.84 1.563-1.311a32.117 32.117 0 0 1 8.321-5.296 121.972 121.972 0 0 0 3.682-1.664 25.87 25.87 0 0 1 9.885-2.27 40.111 40.111 0 0 1 8.019.606 46.427 46.427 0 0 1 10.338 3.127c1.244.538 2.522.84 3.833.907a2.724 2.724 0 0 0 2.118-.706c2.051-1.815 2.236-3.832.555-6.052a3.785 3.785 0 0 0-.706-.403 114.678 114.678 0 0 0-6.203-2.673 40.966 40.966 0 0 0-9.986-2.471 53.654 53.654 0 0 0-10.389-.202ZM113.424 947.426a.646.646 0 0 0-.1-.151h-8.776c.449 1.014.92 2.022 1.412 3.026.068.168.152.32.253.454l.302.404c.101.134.219.252.353.353.101.1.219.201.353.302.135.101.286.202.454.303l.404.201c.168.068.336.118.504.152l.504.101a2.612 2.612 0 0 0 1.009 0c.168-.034.319-.068.454-.101l.504-.101c.135-.067.269-.151.404-.252.134-.068.269-.152.403-.252.135-.068.269-.169.403-.303.101-.101.219-.202.354-.303.1-.134.184-.269.252-.403.101-.135.185-.269.252-.404a1.14 1.14 0 0 0 .202-.403 6.14 6.14 0 0 1 .201-.454c0-.168.017-.336.051-.504.033-.168.05-.336.05-.505l-.101-.605c0-.201-.033-.386-.101-.555Zm407.848-.151h-7.918a39.779 39.779 0 0 0 1.26 3.53c1.076.975 2.32 1.295 3.732.959 1.749-.404 2.707-1.496 2.875-3.278.033-.399.05-.803.051-1.211Zm48.314 2.118c.486-.698.956-1.404 1.412-2.118h-8.927a.945.945 0 0 1 .051.303c.067.134.134.286.202.454.033.134.1.269.201.403.068.135.152.269.253.404.067.134.151.269.252.403.134.101.252.202.353.303.134.134.269.235.403.302.135.101.269.185.404.252.134.101.269.185.403.253l.504.1c.135.034.286.068.454.101.168.034.337.051.505.051h.655c.168-.034.353-.051.555-.051l.504-.201c.303-.101.622-.236.958-.404.303-.168.589-.353.858-.555Zm-433.971-2.118h-8.423c-.078.822-.163 1.646-.252 2.471.269 2.455 1.614 3.749 4.035 3.884 1.311.067 2.303-.471 2.975-1.614a13.396 13.396 0 0 0 1.665-4.741ZM629.197 536.1v-.253a17.827 17.827 0 0 1-.101-.554c.04.267.073.536.101.807Z"/><path fill="#333" d="M402.1 794.264c-7.565.201-15.147.605-22.745 1.21-8.069.605-16.155.925-24.258.958-7.666.034-15.332.219-22.997.555-7.464 0-14.911-.387-22.342-1.16a157.641 157.641 0 0 0-22.19-.756c-7.397.302-14.777 0-22.14-.908a358.47 358.47 0 0 0-22.493-1.917 221.14 221.14 0 0 1-22.089-2.32 827.93 827.93 0 0 0-21.989-3.227 646.317 646.317 0 0 0-16.189-1.917 253.562 253.562 0 0 1-20.273-2.925 15.748 15.748 0 0 1-3.329-1.008 344.136 344.136 0 0 0-1.816 11.044 342.622 342.622 0 0 1-1.966 22.594c-.221 1.784-.44 3.566-.656 5.346.284.286.486.622.605 1.009a99.794 99.794 0 0 0 20.526 4.892 217.556 217.556 0 0 1 21.283 3.984 262.748 262.748 0 0 0 21.686 4.236 755.446 755.446 0 0 0 22.795 3.177 535.628 535.628 0 0 0 21.888 2.27c7.699.672 15.398 1.412 23.098 2.219a297.03 297.03 0 0 0 21.887 1.513c8.675.302 17.332.286 25.973-.051l17.5-.605c4.775-.202 9.566-.487 14.373-.857a1628.23 1628.23 0 0 0 22.09-1.967 817.302 817.302 0 0 1 22.241-1.816 528.629 528.629 0 0 0 21.938-1.866 876.226 876.226 0 0 1 22.896-2.118c7.498-.571 15.012-1.109 22.543-1.614 5.85-.403 11.684-.907 17.5-1.513a51.264 51.264 0 0 1 4.59-.302 8.968 8.968 0 0 0 0-.656 391.189 391.189 0 0 0-1.412-21.736 106.645 106.645 0 0 1 .101-20.728.918.918 0 0 1-.152-.101 5.322 5.322 0 0 1-1.462.555 188.348 188.348 0 0 1-19.316 3.328 391.78 391.78 0 0 1-18.811 1.766c-6.96.504-13.936.924-20.93 1.26-7.363.337-14.709.404-22.039.202a274.852 274.852 0 0 0-13.919-.05Zm-52.651 56.282c-4.439.202-8.893.353-13.365.454-6.018.168-12.037.252-18.055.252a970.567 970.567 0 0 1-22.241-.857c-7.396-.37-14.76-.992-22.089-1.866a540.495 540.495 0 0 0-21.989-2.269 295.531 295.531 0 0 1-22.392-2.673 4346.887 4346.887 0 0 0-20.374-3.178c.134.034.285.068.454.101a204.971 204.971 0 0 1-20.728-4.085 190.8 190.8 0 0 0-21.333-4.034 62.742 62.742 0 0 1-13.718-3.379 779.96 779.96 0 0 0-.756 7.464 4608.17 4608.17 0 0 1-2.169 21.484 999.076 999.076 0 0 1-2.572 22.543 397.252 397.252 0 0 1-3.48 22.846 263.35 263.35 0 0 1-4.841 21.585 143.943 143.943 0 0 0-4.085 21.737v.605h377.638c-1.259-4.016-1.915-8.202-1.967-12.558a221.707 221.707 0 0 0-.908-16.39 69.736 69.736 0 0 0-.706-5.245c0 .134.017.268.051.403v.101c-.182-1.176-.35-2.352-.505-3.53l-.454-3.178v.101c.034.135.051.269.051.404a509.185 509.185 0 0 1-4.136-23.25 213.368 213.368 0 0 1-2.118-20.677c-.202-3.9-.521-7.783-.958-11.65a283.43 283.43 0 0 1-1.21-13.314 247.422 247.422 0 0 1-20.173 1.715c-6.926.336-13.852.79-20.779 1.361-7.329.606-14.659 1.278-21.988 2.018a979.66 979.66 0 0 1-22.089 1.966l-21.686 1.715c-7.263.572-14.508 1.177-21.737 1.816a565.131 565.131 0 0 1-22.593 1.462Z"/><path fill="#fff" d="M508.16 282.626a156.484 156.484 0 0 1-35.404-11.398 232.088 232.088 0 0 1-31.47-17.5 143.222 143.222 0 0 0-16.189-9.279 60.464 60.464 0 0 1-8.674-3.934 3.222 3.222 0 0 1-.252-.151 55.775 55.775 0 0 1-3.581-2.169c-.33.364-.666.717-1.009 1.059h.051l-3.278 2.522c-2.32 1.782-3.968 3.328-4.943 4.64a98.465 98.465 0 0 1-6.203 4.387c-.336.236-.958.74-1.866 1.513a120.784 120.784 0 0 1-16.239 11.448 66.27 66.27 0 0 1-19.568 7.666 63.678 63.678 0 0 1-14.02 1.463c-1.681.067-3.261-.118-4.741-.555a9.322 9.322 0 0 1-1.412.101c-.37 0-.723-.067-1.059-.202a42.47 42.47 0 0 0-5.85.303 49.646 49.646 0 0 1-5.447.403c-.706 0-1.412-.034-2.118-.101-7.027-.706-13.465-2.437-19.316-5.194-5.547-2.656-11.061-6.204-16.541-10.642a215.9 215.9 0 0 1-15.181-13.616 69.077 69.077 0 0 1-9.43-11.65c-.709.467-1.584.787-2.623.958-.975.134-1.95.303-2.925.504l-3.228 1.312c-1.076.47-2.185.891-3.328 1.26a3.981 3.981 0 0 1-.303.253l-.403.302-.505.202a6.329 6.329 0 0 1-.453.202c-.153.03-.304.064-.454.1-.136.08-.27.164-.404.253a3.8 3.8 0 0 1-1.715.554 6.86 6.86 0 0 1-1.008.404 7.347 7.347 0 0 1-.807.252 55.109 55.109 0 0 1-2.723 1.866 19.135 19.135 0 0 1-2.926 1.513c-.1.067-.924.605-2.471 1.614a65.332 65.332 0 0 1-13.163 6.405 180 180 0 0 1-11.851 3.732 728.747 728.747 0 0 0-9.784 5.144.423.423 0 0 1-.101 0c-4.924 2.65-9.833 5.339-14.726 8.069-3.867 2.152-7.75 4.287-11.65 6.405a772.32 772.32 0 0 0-8.523 4.841 48.977 48.977 0 0 1-8.574 3.884c-.201.033-.386.05-.554.05a1.39 1.39 0 0 1-.353-.05 791.361 791.361 0 0 0-12.054 4.69c-.168.067-1.109.504-2.824 1.311-10.658 5.144-20.341 11.65-29.049 19.518a63.87 63.87 0 0 0-11.247 13.314 282.224 282.224 0 0 0-16.44 29.553 186.539 186.539 0 0 0-11.852 31.621 350.145 350.145 0 0 0-8.019 36.614 3352.74 3352.74 0 0 0-5.75 36.11 285 285 0 0 0-3.378 37.421 807.953 807.953 0 0 1-1.917 38.278 884.332 884.332 0 0 1-3.53 37.522 40.949 40.949 0 0 0 .353 12.003c0 .773-.185 1.479-.555 2.118a3.59 3.59 0 0 1-.252.353c-.013 9.501-1.14 18.949-3.379 28.343a245.377 245.377 0 0 1-10.691 33.487c-4.237 10.725-7.23 22.224-8.977 34.496a619.456 619.456 0 0 0-4.035 35.403 328.534 328.534 0 0 0-1.11 34.547c.202 11.733.354 23.467.454 35.201.068 12.239.605 24.46 1.614 36.665a1115.186 1115.186 0 0 1 2.421 35 1447.478 1447.478 0 0 0 2.471 36.261c.706 8.943 1.06 17.87 1.06 26.779a1032.06 1032.06 0 0 1-.354 22.846v6.052h72.724c-4.349-9.982-6.249-20.421-5.7-31.318a269.932 269.932 0 0 1 4.036-35.253c2.05-11.33 4.269-22.846 6.657-34.546a577.223 577.223 0 0 1 8.119-34.697 809.163 809.163 0 0 0 8.422-34.597 340.346 340.346 0 0 0 5.8-35.404 1660.568 1660.568 0 0 1 4.136-34.899c.1-.881.218-1.755.353-2.622v.201c.018-.17.035-.338.05-.504.035-.187.069-.372.101-.555l-.101.505c1.3-12.089 2.679-24.142 4.136-36.16a239.853 239.853 0 0 1 6.455-33.034 5815.592 5815.592 0 0 0 8.573-32.579c.74-2.791 1.513-5.598 2.32-8.422a186.183 186.183 0 0 1 2.068-7.061 5.496 5.496 0 0 1 .151-1.664c.135-.538.32-1.042.555-1.513.102-.23.203-.482.303-.757.178-1.349.346-2.711.504-4.084a980.339 980.339 0 0 1 3.732-27.99 2446.857 2446.857 0 0 0 3.984-28.041 214.347 214.347 0 0 0 1.967-28.192c0-2.951.202-5.876.605-8.775a2.837 2.837 0 0 0-.05-.101l-.202-.403c-.439-2.511.469-4.108 2.723-4.791a167.826 167.826 0 0 1-5.446-8.927 317.792 317.792 0 0 1-8.523-16.088 93.022 93.022 0 0 1-3.178-6.959 6.325 6.325 0 0 1-.403-2.169c.067-1.177.521-2.135 1.362-2.875.941-.807 2.034-1.109 3.278-.908.975.135 1.782.555 2.42 1.261a573.44 573.44 0 0 0 12.962 25.166 145.837 145.837 0 0 0 5.194 8.775 90.887 90.887 0 0 0 18.811 21.434 84.931 84.931 0 0 0 24.763 14.373c9.347 3.463 18.979 5.195 28.898 5.195a153.78 153.78 0 0 0 31.167-3.278 56.922 56.922 0 0 0 13.768-4.892 351.032 351.032 0 0 1 18.811-8.826c3.699 1.042 4.539 3.177 2.522 6.405-.572.942-1.362 1.698-2.371 2.27a141.071 141.071 0 0 1-25.216 11.246 92.79 92.79 0 0 1-24.813 4.69c-7.464.37-14.944.37-22.442 0a103.404 103.404 0 0 1-27.284-6.959 86.448 86.448 0 0 1-24.006-14.727 96.545 96.545 0 0 1-13.97-15.029 3.927 3.927 0 0 1-.857 1.11c-.06.054-.127.104-.202.151a232.872 232.872 0 0 1-1.059 22.796c-.874 9.212-2 18.391-3.379 27.536a4455.521 4455.521 0 0 1-4.135 27.032 369.83 369.83 0 0 0-3.177 26.527c-.53 6.72-1.135 13.41-1.816 20.072.026-.004.043-.021.05-.05 0-.101.017-.219.051-.353a285.318 285.318 0 0 0-1.614 27.334c-.101 8.91-.252 17.853-.454 26.83-.269 9.717-.437 19.433-.504 29.15-.067 9.481-.101 18.963-.101 28.444a1641.7 1641.7 0 0 1-.353 28.797 366.49 366.49 0 0 1-.857 18.458 72.487 72.487 0 0 0 18.66 3.581c2.757.168 5.547.353 8.371.555a208.248 208.248 0 0 1 22.342 3.026 254.443 254.443 0 0 0 21.888 3.177 482.813 482.813 0 0 0 22.039 1.815c.151.01.302.01.454 0a.536.536 0 0 0 .151.051c5.892.352 11.776.756 17.651 1.21a277.55 277.55 0 0 0 22.443.706c3.261-.033 6.539.084 9.834.353 7.229.639 14.474.992 21.736 1.059 8.91.101 17.803.068 26.679-.101a420.192 420.192 0 0 0 21.636-.958 560.663 560.663 0 0 1 22.492-1.16 424.934 424.934 0 0 1 21.686-.151c2.17.057 4.339.091 6.506.101a278.07 278.07 0 0 0 16.441-.454 497.326 497.326 0 0 0 22.493-1.715c4.641-.457 9.297-.978 13.97-1.563h-.051a204.234 204.234 0 0 0 16.492-2.623c.296-7.382.414-14.813.353-22.291a202.2 202.2 0 0 1 .958-21.635c.248-2.537.567-5.345.958-8.422l-.05.252.101-.656c.014-.122.031-.256.05-.403v.1a342.827 342.827 0 0 0 3.077-27.737 555.932 555.932 0 0 0 1.26-28.949c.168-9.279.606-18.542 1.312-27.788.773-9.582 1.479-19.147 2.118-28.696.589-8.462.926-16.901 1.008-25.317a3.816 3.816 0 0 0-.151-.353c-.672-1.378-.908-2.791-.706-4.236l.202-.505c.101-.168.185-.336.252-.504.101-.135.202-.286.303-.454l.151-.202a610.521 610.521 0 0 0-.353-23.703 4078.24 4078.24 0 0 0-.757-20.072 163.197 163.197 0 0 1 1.211-28.646 385.84 385.84 0 0 1 4.488-26.678 134.078 134.078 0 0 1-18.105 24.056c-8.137 8.607-17.702 15.113-28.696 19.517a83.677 83.677 0 0 1-20.173 5.296l.05-.051a.575.575 0 0 1-.201.051h-.051a.239.239 0 0 1-.101 0h-.05a.44.44 0 0 1-.151.05c-.075.01-.159.01-.253 0a.455.455 0 0 1-.151.051 83.66 83.66 0 0 1-7.161.554h-1.362c-9.38.336-18.492-1.025-27.334-4.085-8.339-2.891-16.509-6.69-24.511-11.397-2.185-1.278-3.95-2.959-5.295-5.044a5.737 5.737 0 0 1-.454-.908c-.336-1.277-.101-2.437.706-3.479.841-1.11 1.95-1.631 3.329-1.564 1.311.034 2.353.572 3.127 1.614.067.101.134.219.201.353a113.852 113.852 0 0 0 23.552 12.104c9.448 3.53 19.249 4.976 29.402 4.337 10.86-.639 21.148-3.48 30.865-8.523 8.271-4.236 15.382-9.902 21.333-16.996a173.49 173.49 0 0 0 15.987-22.493 634.536 634.536 0 0 1 10.54-17.197c.351-1.735.704-3.466 1.059-5.195 1.446-6.959 3.833-13.465 7.162-19.517.235-.437.605-.689 1.109-.756 3.06-.404 4.775.924 5.144 3.984a253.816 253.816 0 0 0-5.396 17.802c1.184 1.627 1.134 3.426-.151 5.397-.586.898-1.175 1.789-1.765 2.673-.048.261-.098.513-.152.756a895.088 895.088 0 0 0-6.152 30.007 238.9 238.9 0 0 0-3.682 28.041 160.805 160.805 0 0 0 .504 28.444c.505 4.707.707 9.431.606 14.171-.111 6.643-.229 13.283-.353 19.921 4.537 9.747 8.672 19.968 12.406 30.663a529.905 529.905 0 0 1 10.238 32.579 128.107 128.107 0 0 1 4.64 30.361 455.747 455.747 0 0 0 2.572 35.201 263.393 263.393 0 0 0 6.253 34.849 465.045 465.045 0 0 1 7.263 34.748 893.165 893.165 0 0 0 6.657 35.101 1030.111 1030.111 0 0 0 8.069 34.95 311.218 311.218 0 0 1 6.556 35 132.402 132.402 0 0 1-.151 35.908c-1.159 8.323-3.933 15.955-8.322 22.896l79.28.051c.366-2.028.669-3.76.908-5.195a279.805 279.805 0 0 1 1.664-8.977c.263-1.316.499-2.627.706-3.934.007.105.007.189 0 .253l.051-.303a211.656 211.656 0 0 0 2.017-36.16 1189.489 1189.489 0 0 1-.454-36.261c0-11.667-.134-23.317-.403-34.95a765.097 765.097 0 0 1 .05-34.042c.303-12.54.37-25.064.202-37.572a205.66 205.66 0 0 0-2.976-32.327c-1.95-11.162-3.513-22.678-4.69-34.546a5289.284 5289.284 0 0 1-3.127-33.134c-.033-.236-.185-1.345-.454-3.329a448.91 448.91 0 0 0-1.765-12.356v.152c-.538-2.825-1.076-5.666-1.614-8.524a126.746 126.746 0 0 1-1.462-9.279 133.164 133.164 0 0 0-.404-3.026 5.288 5.288 0 0 0-.05-.303 994.603 994.603 0 0 0-3.429-16.491 242.027 242.027 0 0 1-3.077-16.088 84.47 84.47 0 0 1-.756-6.455l.101-.505a9.54 9.54 0 0 0 .1-.454l.202-.403a8.32 8.32 0 0 0 .151-.404c-.323-4.626-.676-9.249-1.059-13.868a325.165 325.165 0 0 1-1.109-18.106 46.732 46.732 0 0 0-.404-4.639c-.027-.271-.061-.54-.1-.807.033.201.067.386.1.554v.253l.051.302a998.464 998.464 0 0 1-1.816-34.748 367.133 367.133 0 0 0-1.714-25.771 1217.762 1217.762 0 0 0-3.026-27.586c.097-.421.265-.807.504-1.16a1325.927 1325.927 0 0 0-4.64-21.434c-1.345-5.917-2.69-11.852-4.034-17.803a2564.927 2564.927 0 0 0-8.221-34.495 120.487 120.487 0 0 0-4.085-13.113 353.152 353.152 0 0 0-4.892-12.305c-.033 0-.084-.101-.151-.303a138.83 138.83 0 0 0-20.072-28.494 111.261 111.261 0 0 0-18.459-16.24 101.723 101.723 0 0 0-16.087-9.229 151.076 151.076 0 0 0-34.395-11.095Zm-163.25 404.67c1.378 2.152 1.378 4.287 0 6.405-1.076 1.614-2.589 2.353-4.539 2.219a3.421 3.421 0 0 1-1.412-.404c-1.58.034-2.808-.621-3.682-1.966-.807-1.278-1.093-2.64-.857-4.085a7.173 7.173 0 0 1 .454-1.513c.302-.437.622-.874.958-1.312a6.115 6.115 0 0 1 1.765-1.412c1.177-.437 2.404-.504 3.682-.202 1.344.303 2.488.976 3.429 2.018.067.067.135.151.202.252ZM234.917 494.795c-3.598-1.95-4.102-4.387-1.513-7.312.739-.807 1.647-1.093 2.723-.858 3.866.908 5.195 3.11 3.984 6.607-.37.975-1.059 1.631-2.068 1.967-1.109.336-2.151.202-3.126-.404Zm214.489 5.649a1.13 1.13 0 0 1-.353-.151 2.836 2.836 0 0 1-.353-.152c-3.631-.908-4.573-3.009-2.824-6.304.47-.941 1.26-1.462 2.37-1.563 3.866-.37 6.186 1.21 6.96 4.74.168.807-.017 1.53-.555 2.169-1.412 1.816-3.161 2.236-5.245 1.261ZM117.157 641.856c.034.236.067.454.101.656v.656c0 .201-.017.403-.051.605l-.201.605a2.594 2.594 0 0 1-.303.605 6.529 6.529 0 0 1-.252.454l-.353.353a3.748 3.748 0 0 1-.404.353 2.616 2.616 0 0 1-.403.252c-.168.101-.32.185-.454.252a2.843 2.843 0 0 1-.504.152c-.168.033-.353.067-.555.101a2.61 2.61 0 0 1-.504.05h-.555a2.924 2.924 0 0 1-.504-.151 2.828 2.828 0 0 1-.505-.152l-.504-.201a544.81 544.81 0 0 0-16.592-6.506 119.15 119.15 0 0 1-15.887-7.313c-1.849-1.042-3.362-2.387-4.539-4.034a2.883 2.883 0 0 0-.15-.505l-.102-.605a2.138 2.138 0 0 1 0-.655c0-.202.017-.421.05-.656l.202-.605c.068-.202.152-.387.253-.555.1-.168.201-.319.302-.454.101-.134.219-.252.353-.353.135-.134.27-.252.404-.353.134-.101.285-.202.454-.303a6.67 6.67 0 0 0 .454-.252c.168-.067.336-.117.504-.151l.504-.101c.168-.034.353-.05.555-.05h.504l.505.101.504.201a77.548 77.548 0 0 0 15.331 8.069 1033.09 1033.09 0 0 0 17.097 6.405 14.083 14.083 0 0 1 4.539 2.724c.101.134.202.285.302.454.068.134.135.285.202.453.067.169.135.32.202.454Zm466.5 5.497a90.126 90.126 0 0 0 17.55-9.481 16.213 16.213 0 0 1 4.035-2.017l1.11.101c.336.067.672.151 1.008.252.135.067.286.134.454.202l.404.302c.134.101.269.219.403.353.134.101.252.219.353.353.101.135.202.286.303.454.134.37.252.774.353 1.211.101.403.134.823.101 1.26 0 .202-.017.404-.051.606l-.202.504a1.973 1.973 0 0 1-.252.454 6.767 6.767 0 0 1-.252.454 85.388 85.388 0 0 1-19.467 11.397 689.16 689.16 0 0 1-17.954 7.313 39.884 39.884 0 0 1-4.438 1.362 17.392 17.392 0 0 0-.555-.101c-.168 0-.353-.034-.554-.101a1.586 1.586 0 0 1-.505-.202 6.14 6.14 0 0 1-.454-.201 5.233 5.233 0 0 1-.453-.303 1.742 1.742 0 0 1-.354-.353 1.789 1.789 0 0 1-.353-.353 5.183 5.183 0 0 0-.302-.454 5.945 5.945 0 0 1-.202-.454l-.202-.504-.1-.605a4.614 4.614 0 0 1-.051-.656c.101-.403.219-.807.353-1.21.135-.37.303-.723.504-1.059a480.015 480.015 0 0 1 19.77-8.524Zm-376.428-381.37a.567.567 0 0 1 0 .101.285.285 0 0 1-.101 0c.032-.028.066-.061.101-.101Zm224.122 492.372a120.188 120.188 0 0 1 3.581-8.926l-.101.302a171.464 171.464 0 0 0 9.582-23.148c1.076-3.194 3.076-3.968 6.001-2.32 1.312.773 1.816 1.9 1.513 3.379a57.06 57.06 0 0 1-3.53 11.448 362.184 362.184 0 0 1-5.8 12.81 1.11 1.11 0 0 1 .152-.353c.018-.073.035-.157.05-.252a159.415 159.415 0 0 0-6.758 18.508c-1.412 4.741-3.732 8.893-6.96 12.457-.605.673-1.395.975-2.37.908a3.943 3.943 0 0 1-2.521-1.109c-1.614-2.657-1.295-5.262.958-7.817a5.556 5.556 0 0 0 .958-1.614 556.763 556.763 0 0 0 5.245-14.273Zm-186.802-6.707c2.925 5.48 6.624 10.322 11.095 14.524a9.32 9.32 0 0 0 2.119 1.513c1.512.236 2.588 1.059 3.227 2.471.572 1.312.471 2.573-.302 3.783-.975 1.412-2.32 2-4.035 1.765-.134 0-.252-.017-.353-.05-7.027-3.362-12.44-8.591-16.239-15.685a1007.313 1007.313 0 0 0-5.497-10.238c-3.665-6.724-6.304-13.751-7.918-21.08-.101-.438 0-.841.302-1.211 2.455-2.824 4.724-2.673 6.809.454.538.807.975 1.681 1.311 2.623a177.292 177.292 0 0 0 9.481 21.131Zm202.839-643.115a5.293 5.293 0 0 0-.201-1.008c-4.237-1.614-7.969-.925-11.196 2.067a16.862 16.862 0 0 1-.706 1.614c-.74 1.513-1.95 2.236-3.631 2.169a3.907 3.907 0 0 1-1.715-.504c-.807-.471-1.379-1.127-1.715-1.967a4.323 4.323 0 0 1-.151-2.522c.067-.269.168-.521.302-.756.034-.236.101-.471.202-.707.202-7.665.236-15.365.101-23.097a360.637 360.637 0 0 0-.958-19.972 115.667 115.667 0 0 0-3.329-19.82c-1.782-6.892-5.463-12.473-11.044-16.743a3.264 3.264 0 0 0-.807-.454l.605.202a68.872 68.872 0 0 0-22.14-6.658 31.368 31.368 0 0 0-12.507.807c-7.128 1.883-14.34 2.455-21.636 1.715a85.933 85.933 0 0 0-21.181.504 67.861 67.861 0 0 1-20.375-.05 105.428 105.428 0 0 0-20.577-1.21 69.667 69.667 0 0 0-20.425 3.984 32.372 32.372 0 0 0-8.674 4.539c-4.539 6.32-7.699 13.297-9.481 20.93a75.9 75.9 0 0 0-1.917 21.332 154.306 154.306 0 0 0 2.572 21.131 69.597 69.597 0 0 1 1.11 9.078c.033.807-.286 1.446-.958 1.917-2.085 1.546-3.816 1.546-5.195 0l-.202-.101a21.64 21.64 0 0 1-2.723-1.513 20.141 20.141 0 0 0-6.909-3.026c-.505.067-1.009.151-1.513.252-.673.101-1.345.151-2.018.151h-.907c-2.387 6.893-3.127 14.155-2.219 21.787.235 1.95.319 3.917.252 5.901a475.28 475.28 0 0 0-.101 3.026 4126.87 4126.87 0 0 0-.656 19.113c-.168 4.607 1.48 8.187 4.943 10.743a4.964 4.964 0 0 0 3.026 1.008c.201 0 .403.017.605.051a75.506 75.506 0 0 1 8.573-3.833c.74-.269 1.429-.168 2.068.302 1.984 1.446 3.11 3.497 3.379 6.153.101.942.235 1.883.404 2.824.739.74 1.176 1.833 1.311 3.278 0 .169.017.32.05.454.572.942.757 2.001.555 3.178a34.11 34.11 0 0 1-.202.857c.303 3.597.639 7.212 1.009 10.843a596.11 596.11 0 0 0 2.471 20.274c.975 6.825 3.379 13.146 7.212 18.962a75.165 75.165 0 0 0 4.539 6.204 116.595 116.595 0 0 0 14.424 14.675 133.828 133.828 0 0 0 16.39 12.003c.471.303.958.572 1.463.807h-.051c6.187 3.093 12.709 4.825 19.568 5.195a28.354 28.354 0 0 0 7.161-.505c1.715-.336 3.312-.336 4.791 0 .639-.235 1.413-.285 2.32-.151.404.067.79.219 1.16.454 8.137.672 16.071-.454 23.804-3.379a71.802 71.802 0 0 0 15.483-8.17 131.46 131.46 0 0 0 10.692-8.12c.033-.033.067-.05.101-.05a100.908 100.908 0 0 0 17.701-15.029 36.332 36.332 0 0 0 4.792-6.707 101.28 101.28 0 0 0 3.53-7.162 68.274 68.274 0 0 0 5.295-19.719c.236-1.849.303-3.732.202-5.648-.303-5.75-.185-11.449.353-17.097a2.71 2.71 0 0 1 .151-.555c0-2.387.051-4.774.152-7.161.134-4.001 2.084-5.598 5.85-4.791a5.44 5.44 0 0 1 3.127 1.765c.302.336.605.639.907.908a3.11 3.11 0 0 0 1.665.353 14.972 14.972 0 0 0 1.765-.202 14.202 14.202 0 0 0 1.614-.403c3.16-3.094 4.976-6.977 5.446-11.65.068-.942.185-1.866.353-2.774.639-4.098 1.16-8.217 1.564-12.356.307-3.265.543-6.544.706-9.834.269-6.019.336-12.054.201-18.106ZM301.689 77.971a19.233 19.233 0 0 1 3.883-.706 53.672 53.672 0 0 1 10.39.202 40.974 40.974 0 0 1 9.985 2.471c2.118.84 4.186 1.732 6.203 2.673.236.1.471.235.706.403 1.682 2.22 1.497 4.237-.554 6.052a2.728 2.728 0 0 1-2.119.706 11.006 11.006 0 0 1-3.832-.907 46.435 46.435 0 0 0-10.339-3.127 40.1 40.1 0 0 0-8.019-.605c-3.429.1-6.724.857-9.885 2.27-1.21.57-2.437 1.125-3.681 1.663a32.1 32.1 0 0 0-8.321 5.296c-.505.47-1.026.908-1.564 1.311a15.069 15.069 0 0 0-3.934 4.186c-.1 1.21-.655 2.185-1.664 2.925-.908.672-1.933.925-3.076.757a4.402 4.402 0 0 1-1.311-.505c-1.48-.975-2.135-2.37-1.967-4.186a8.222 8.222 0 0 1 1.916-4.387c.437-.505.723-.84.857-1.009l.555-.605a39.148 39.148 0 0 1 6.859-6.052 70.278 70.278 0 0 0 1.664-1.21 36.754 36.754 0 0 1 9.229-5.044 92.83 92.83 0 0 1 8.019-2.572Zm-4.539 34.042a3.21 3.21 0 0 1-.101-2.37c.841-2.589 2.572-4.321 5.195-5.195 3.766-1.244 7.01-.538 9.733 2.118.37.37.622.791.757 1.261.74 2.825-.168 4.976-2.723 6.456a12.985 12.985 0 0 1-6.506 1.714c-3.161.135-5.279-1.193-6.355-3.984Zm58.754-23.45c-.941-.875-1.278-1.968-1.009-3.279.404-1.816 1.497-3.127 3.278-3.934a24.993 24.993 0 0 0 1.665-.807 34.537 34.537 0 0 1 14.575-3.933c1.614-.068 3.211 0 4.791.201 3.53.37 6.976 1.127 10.339 2.27a89.086 89.086 0 0 1 9.481 3.883 173.242 173.242 0 0 1 9.632 4.942 22.728 22.728 0 0 1 4.338 3.228c.538.504.823 1.11.857 1.816.202 2.454-.891 3.95-3.278 4.488a3.48 3.48 0 0 1-1.664 0 248.111 248.111 0 0 1-7.162-3.883 161.597 161.597 0 0 0-7.212-3.783 28.479 28.479 0 0 0-1.765-.857c-.033 0-.118-.05-.252-.151l.101.1a5.949 5.949 0 0 1-.454-.201h.101l-.505-.202c-3.093-1.445-6.438-2.538-10.036-3.278a27.268 27.268 0 0 0-10.943-.1c-3.463.638-6.624 1.933-9.482 3.883-1.916 1.31-3.715 1.176-5.396-.404Zm20.526 19.769c.538-1.48 1.547-2.572 3.026-3.278a9.626 9.626 0 0 1 5.396-.858c3.463.471 5.279 2.505 5.447 6.102a4.047 4.047 0 0 1-.908 2.875c-1.815 2.286-4.219 3.43-7.212 3.43-.134 0-.269-.017-.403-.051h-.353a1.11 1.11 0 0 0-.353-.05 4.794 4.794 0 0 1-1.412-.757 4.353 4.353 0 0 1-.858-.908 3 3 0 0 1-1.16-1.26 2.021 2.021 0 0 0-.1-.253c-1.513-1.277-1.883-2.941-1.11-4.992Zm-39.136 40.598a4.28 4.28 0 0 0 .555-.555c1.076-2.421 2.875-3.194 5.397-2.32 1.109.404 1.832 1.177 2.168 2.32.471 1.782.067 3.362-1.21 4.741a34.297 34.297 0 0 0-3.379 4.286c-1.715 2.556-1.833 5.128-.353 7.717.269.168.571.302.908.403.369.101.739.185 1.109.252h-.101a.866.866 0 0 1 .252.051c3.43.403 6.876.521 10.339.353l1.412-.101c2.454-.135 3.934.992 4.438 3.379.235 1.21-.067 2.252-.908 3.127-1.076 1.109-2.404 1.714-3.984 1.815a28.039 28.039 0 0 1-5.043-.05c-3.53 0-6.993-.488-10.389-1.463-2.623-.74-4.522-2.353-5.699-4.841-1.614-3.295-1.9-6.691-.857-10.188 1.042-3.429 2.824-6.405 5.345-8.926Zm-91.232-27.587c2.724-2.286 5.834-3.816 9.33-4.589 1.95-.471 3.497.117 4.64 1.765 1.109 1.547 1.076 3.06-.101 4.539-.975 1.177-2.253 1.849-3.833 2.017a7.188 7.188 0 0 0-1.815.454c-2.522.975-4.169 2.707-4.943 5.195-.067.134-.084.302-.05.504v.101c.033.067.05.118.05.151a.38.38 0 0 0 .051.151c1.109 1.345 2.605 2.034 4.488 2.068 1.95.034 3.884.168 5.8.404.74.1 1.496.218 2.269.353 1.681.538 2.623 1.681 2.825 3.429.201 1.614-.387 2.875-1.765 3.782-.976.639-2.035.824-3.178.555-3.53-.336-7.01-.824-10.439-1.462a9.717 9.717 0 0 1-4.64-2.27c-2.146-1.893-3.289-4.146-3.429-6.758-.042-.844.025-1.735.201-2.673.572-3.093 2.085-5.665 4.539-7.716Zm181.91 10.339a4.746 4.746 0 0 0-.908-.303 6.208 6.208 0 0 0-1.109-.101h-.757c-2.084 1.581-4.034 1.412-5.85-.504a3.237 3.237 0 0 1-.857-2.37c.168-2.354 1.412-3.884 3.732-4.59 3.564-1.076 6.926-.655 10.086 1.261 1.11.673 2.068 1.53 2.875 2.572 1.917 2.523 2.724 5.179 2.421 7.969a12.032 12.032 0 0 1-.656 2.874 6.576 6.576 0 0 1-1.563 2.471 24.12 24.12 0 0 1-9.683 5.951c-1.076.37-2.186.555-3.329.555-2.354.067-4.455-.538-6.304-1.815a2.194 2.194 0 0 1-.857-1.059c-.875-2.32-.236-4.069 1.916-5.245.941-.505 1.916-.622 2.925-.353 2.723.706 5.228.134 7.515-1.715a24.914 24.914 0 0 0 1.765-1.513c.168-.135.302-.32.403-.555a3.8 3.8 0 0 0-.403-1.462 5.928 5.928 0 0 0-.807-1.413 5.206 5.206 0 0 0-.555-.655Zm-56.232 72.976c1.076-.975 2.303-1.597 3.681-1.866 1.345-.303 2.488.067 3.43 1.109 1.412 1.648 1.462 3.345.151 5.094a10.201 10.201 0 0 1-2.017 1.967 420.522 420.522 0 0 1-6.304 4.387 39.86 39.86 0 0 1-8.977 4.438 60.829 60.829 0 0 1-9.431 2.522.223.223 0 0 1-.101.05 24.398 24.398 0 0 1-5.194.454 73.626 73.626 0 0 1-10.541-.554 63.11 63.11 0 0 1-7.817-1.513 54.589 54.589 0 0 1-9.784-3.682 69.39 69.39 0 0 1-5.749-3.228 18.5 18.5 0 0 1-4.085-3.48c-1.748-1.95-1.883-3.933-.404-5.951.606-.874 1.429-1.344 2.472-1.412 1.916-.168 3.295.589 4.135 2.27a43.795 43.795 0 0 0 8.725 5.295 41.419 41.419 0 0 0 9.986 3.077 91.142 91.142 0 0 0 10.439 1.21c3.9.202 7.683-.319 11.347-1.563 2.018-.707 4.018-1.48 6.002-2.32a40.419 40.419 0 0 0 10.036-6.304Zm-18.912 19.719a.482.482 0 0 0-.202.05c.034-.034.067-.05.101-.05h.101Z"/></g><defs><clipPath id="a"><path fill="#fff" d="M0 0h680v943H0z"/></clipPath></defs></svg>