<svg xmlns="http://www.w3.org/2000/svg" width="134" height="100" fill="none" viewBox="0 0 134 100"><g clip-path="url(#a)"><rect width="134" height="100" fill="#eee" rx="15"/><path fill="#000" d="m139.3 50.6-.1-.1q.7 2.3 1.6 4.3a50 50 0 0 1 3.6 14.9 39 39 0 0 0 2.5 8.5l.3.1 2 2c1 1 2 2 3.3 2.9l4.1 2.7q1.6 1.1 2.8 2.7v.1l-.2.4q-1.7.4-3-.2l-.7-.4q-1.1-.8-2.2-1.1l-.1-.1q-.6-.9-1.1 0v.2l1.6 2.8q1 2 1.7 4.3a32 32 0 0 1 1 5.5q.6 2.4 0 4.8h-.3l-.2-.1-.2-.3-.7-1.2-1-3.4-1.3-5.1q0-.7-.8-.9-.2 0-.3.2-.4.7-.1 1.5.9 2 1.3 4.2l.6 3.2a16 16 0 0 1 0 4.4v.3h-.1l-.5-.2-1.5-3.1a23 23 0 0 1-1.6-6l-1-3.2h-.4q-.3 0-.3.3v.2l1.2 6 1 3.3q.6 1.8-.6 3.1h-.1q-.3 0-.5-.2-.7-.7-1-1.6L145.4 96q-.6-.7-1.1 0 0 1.5.4 3l.5 2a7 7 0 0 1 0 3.6l-.8-1-.7-1.8-2-6.2-.7-1.7a15 15 0 0 1-1.1-8.3l.2-.2V85q-.2-.8-.6-1.7-.8-2.2-2-4l-1.8-3-2.4-3.9-2.5-3.8-3-5.3-1.2-2.5v-.1a55 55 0 0 1-3.6-12.2l.1-.3q0-.4-.2-.7l-3.8-7.4V40l-.4-.7-.6-1.4-.6-1.6q.1-2-.1-4a75 75 0 0 1-.8-9.6l.3-2.1v-2q-.3-.8-1-.5l-.1.3V20l-.2.1q-.2.4-.3 1 0 1.9-.6 3.7l-1 3.5h-.1l-.8 1.6q-.6.8-1.4 1.4a11 11 0 0 1-4.7 2l-4.8.6q-1.3 0-2.6-.2a8 8 0 0 1-3.9-2.3 20 20 0 0 1-3-4q-.7-.5-1 .4.4.9.9 1.6l1.4 1.9q-.8-.2-1.4.3H92a7 7 0 0 0-1 4 19 19 0 0 0-.7-4.2l-.3-.2-.4-.2h-2.1l1.1-1.4.9-1.9v-.1l-.1-.1-.3-.3h-.4l-.3.3v.1l-1 1.7L86 31l-.4.3Q84 32.8 82 33.7a9 9 0 0 1-5 1 11 11 0 0 1-5.8-2.5q-1.7-1.5-3-3.4a9 9 0 0 1-1.5-4.3q-.3-2.4-.1-4.8 0-.6-.3-1-.3-.3-.6 0-.6.3-.3 1v2q-.5.5-.5 1.3a52 52 0 0 1-.3 8l-.2 4.5q-1.7 6-4.8 11.1-1 2-1.5 4l-.5 2.7-1.1 4.2q-1.7 7-5.6 13a141 141 0 0 1-8.2 11.6l-1 2.1v.5l-.3 2.4a38 38 0 0 1-1.4 8l-1.8 6.7q-.4 1-1 2.1H37l-.9.6v-.6l.3-.8 1.5-7.3-.4-.2q-.3 0-.4.2-.8 1.3-1 2.8a16 16 0 0 1-1.4 4l-.8 2.5q-.6 1.5-1.5 2.7h-.2l-.1-.1v-.3q-.2-.8 0-1.7.8-2 .9-4.3a21 21 0 0 1 1-4.8v-.7l-.2-.2h-.5q-.3 0-.3.2-.3.4-.3.7l-.8 3.5-.6 2.5q-.3 1.8-1 3.6l-.1.3-.7 1q-.4.4-1.2.6-.3-1.5 0-2.9.9-2.6 1.2-5.2l1-4.5q.2-.9-.6-.9h-.3l-.4.3-.2.9-1.5 5.7q-.5 2.3-2 4-.6-1-.4-2.4l.2-1 1.8-7.4.5-2 .2-.3v-.1q.3-.4.2-.7v-.3q.3-.2.3-.5v-.5l.2-.6.3-.8v-.5l.1-.1V88l.2-.1v-.6a1 1 0 0 0-.6-.3h-.2l-.7.2q-.2 0-.5.3l-.3.2-1.4.7-1.2 1h-.3l-.4.1-.6.1h-.2l-.1-.1-.2-.2-.1-.3-.1-.3v-.4l.2-.2 2.3-2 1.8-1.5 1-.7a17 17 0 0 1 6-3q.3.2.6-.3.9-1.4 1.3-3.2a341 341 0 0 0 5.9-22.2l1.4-4.5q.6-2.1 1.7-4.2l1.9-3.3.2-.1.1-.1v-.2l.1-.2.5-1.2 1.6-4.6a32 32 0 0 1 2.1-5.1l1.9-5.2q.3-1.5.4-2.8 0-2.4.5-4.8l1.6-6.7q.9-2.4 2.4-4.3.9-1 2.1-2a22 22 0 0 1 5.5-2.4q1.2-.4 2.6-.6h-4.4l-3.3 1.5q-1.5.7-2.7 2a18 18 0 0 0-3 4.8 36 36 0 0 0-2.1 8.8 38 38 0 0 0-.6 5.6l-.1.4-.1.2-.7 2q-.7 2.3-1.7 4.4l-1.6 4.2-2.2 5.3-3.4 7.1-2.8 8.6-2 8.9a65 65 0 0 1-2.4 8.9q-.6 2.1-1.6 4.1l-.5.2-.7.4q-2.2.6-4.2 2l-3.2 2.2-3 2.7a2 2 0 0 0-.5 2q.3 1.2 1.4 1.5l.5.1a4 4 0 0 0 2.6-1l.7-.5 1.3-.7-.2.5-1.6 5.5a89 89 0 0 0-2 8.8q0 1.9 1.2 3 .4.4 1 .1.5-.2.8-.6l.4-.6-.2 2a2 2 0 0 0 1 1.8h.8l1.3-.6.8-.8q.2.9 1.1 1.2h.6q.6 0 1-.7l.9-1.7v-.1l.6-1h.1q.5.5 1.2.2l.5-.2q1.2-.6 1.9-2.1l.4-1 1.3-4a89 89 0 0 0 2-11.1 10 10 0 0 1 .7-3.6l.6-1q.3-.1.4-.6 3.2-3.8 6-8 4-5.8 6.3-12.6A91 91 0 0 0 60 48l1-1.7a21 21 0 0 0 2.3-4.4l1.8-4.7.2.7q.4.7.6 1.6a36 36 0 0 0 3.8 9l.3 1.8.2 1.9q.4 3.9-.4 7.8a29 29 0 0 0-.3 8.5l-.5 1.5q-2.2 6.7-2.8 13.6-.2 3.2-.8 6.7L62.8 104a19 19 0 0 0-.4 6.1v1.2h1.4v-.6q0-.4-.2-.6v-.2q0-4.4 1-8.7A125 125 0 0 0 67.4 84q.6-6.8 2.8-13.7.4-1 .3-2a21 21 0 0 1 .4-7.3 25 25 0 0 0-.1-12.5 87 87 0 0 1-5-14A60 60 0 0 1 66 27a11 11 0 0 0 1.6 3.2 20 20 0 0 0 3 3.2h-.1l.8.6a15 15 0 0 0 6 2H79l-.2.7-.7 4.6a10 10 0 0 0 .5 4.5l-.1.1q-.2.4-.2 1v5.9q-.3 0-.3.4l.1.5.3 7.8q0 .7.6 1v.4l.5 1.3v2.1q-.4 2.3.6 4.5.6 1.2.8 2.7l.6 5.2q.2 2.3 1.2 4.4 1 1.7 1.1 3.5l.3 1.2a20 20 0 0 0 2.6 4.9 13 13 0 0 1 1.6 3.1v.3l.4 1.2.7 1q.4.3.9.4-.8 0-1.4.7l-.2.3q-.6 1.5-.6 3.2v2.4l.1 1.6.1 3a2 2 0 0 0 0 1.4v.2h1.5l-.1-.4q0-.3-.3-.4v-.2q.3-1.2.2-2.4l-.3-3.6q0-2.1.3-4.2l.1-.1.1-.1h.1l.1-.1h1.1l.4.2.3.2.3.2.4 2v2.3l-.1.6-.4 6h1.2v-1.7q0-1.5.2-3.1.5-1.7.3-3.7 0-1.4-.5-2.6-.4-1-1.6-1.5l-.7-.2.8-.1q.5 0 .8-.4.8-.7 1.1-1.6.6-1 .9-2.4.6-2.3 1.5-4.5l1.7-4.4a32 32 0 0 0 1.6-5.4l.5-4q.3-2.2 1-4.2a55 55 0 0 0 2.4-9.5q0-.3-.2-.5l.2-.8.2-1 .2-.9q.3-1.5.1-3 0-1.5-.5-3v-.4l-.3-.2-.2-.1h.1q.3-.4.3-.8 0-2.4-.2-4.7 0-.3-.3-.4a8 8 0 0 0-2.9-1.9l-4.1-1.8q-2.1-1-4.2-1.1h-.5l-.4.4v-.4l-.1-.8q.6 0 .6-.7V40l.2.2q1.4.9 2.8 1.3l4.3 1.5a13 13 0 0 1 4.2 2.2v.3l.1.1.1.1.1.1h.4q.3 0 .4-.2l.2-.5v-.4q.3-2.4 0-4.7a16 16 0 0 0-1.2-4.9h.3l4-.5q1.3 0 2.5-.7 2-1 3.6-2.3a5 5 0 0 0 1.5-2l1-3.3.2 1.5q0 1.7.4 3.4l.2 5.5-.3 1.5-.7 1.6a22 22 0 0 0-1.6 4.3 45 45 0 0 1-2 6.5l-.2 2.4a101 101 0 0 0 .4 13.3l-.7 4.6.1 1q1 2.2 1.1 4.4l.6 4.6.7 4 1.2 6.2a49 49 0 0 1 1.3 7.2l.1 3.5a24 24 0 0 0 1.6 9.2v.5h1.4v-.5q0-.4-.4-.5l-.1-.9-.4-1q-.8-2.2-.8-4.6a93 93 0 0 0-.7-9.2l-.2-1.1q-.7-2.2-1-4.5l-1.5-8.7q-.4-2.2-.6-4.4t-1-4.5l-.2-.2v-.4l.5-2.7q.3-1.6.2-3.3l-.4-7.7v-4.6a11 11 0 0 1 1-4.3l1.1-3.7 1.1-3.2 1.2-3 .9 2.1.4 1 3.2 6.2v.6l2.2 8.6q.7 2.1 1.7 4.3l.2.5.9 1.7q.5.7.8 1.7l.3.3a57 57 0 0 0 3.5 6 81 81 0 0 1 4.9 7.7q1.2 2 2 4.1l.8 1.6-.3 2.4a21 21 0 0 0 2.3 9.1l1.1 4q.5 2.3 1.7 4.3.3.6 1 .9 1.2.4 1.7-.7l.2.8q.3 1.2.9 2.2.6 1.2 1.7 1.5 1.6 0 2-1.6l.2-.2q.5 1.2 1.9 1.3l.6-.1q.7-.4.7-1.4l.2-2q.6 1 1.8.8.3 0 .4-.2 1-1.4.8-3v-.6l-.6-4.8a27 27 0 0 0-1.8-6.4l-.8-1.7 1 .6a6 6 0 0 0 2.6.5q1.6.1 2.2-1.1.3-.6 0-1.2-.6-1.3-1.7-2.2l-3.9-2.6a35 35 0 0 1-7.3-6.5l-.4-1q-.8-2.2-1.1-4.5l-1.4-7a41 41 0 0 0-1.7-7 112 112 0 0 0-5-12.5l-2-3v-.7l-1.5-4.8-1.1-3-1.6-4.4q-.5-1.8-1.3-3.5v-1.2l-.5-4.7a21 21 0 0 0-5.2-11.3l-1.6-1.5a19 19 0 0 0-4.2-3l-1.3-.8h-3q1.5.5 2.8 1.2a25 25 0 0 1 5.5 4 15 15 0 0 1 4 5.4 24 24 0 0 1 2.1 8.6v.5l.2 2q-.2 0-.3.4l.5 1.2q1 2 1.6 4.3l1.7 4.6.8 2q0 .6.4 1.3l.8 2.6q-.3.1-.2.6l.2.4 2.7 4zm16.9 48v-.2zm-75.9-63 3-1.2q1.5-.9 3-2.2l.4.2h.4l.8-.1.7-.1h.9v.7q.4 1.7.4 3.2v3.5q-1.4.5-2.7 1.2-1.8 1.4-4 2.1l-3.7 1.9-.1-.7q-.3-2.2 0-4.4zm9 5.5v.9l.1.5.1.5.5 3.8-.1 3.5h-.1l-3.3.8-2.2.2q-2.4 0-4.7.3V46zm-10 12.3V53l.1-.3 3.7-.3a19 19 0 0 0 5.7-.7l.5 1.9a7 7 0 0 1 .1 4.6l-.8 1.6-.7 1.2h-4.7q-1.8 0-3.6.2v-.2l-.3-1.3v-5.4q.2-.6 0-1M80.7 66q.5-2-.6-3.7l8.4-.4q.4-.1.7-.6 1-1.5 1.5-3.5l.4 1.7q.3 1.2 1.5 1.7l2 .7a24 24 0 0 0 5 .5h1.5l1-.1-.2.7-.8 4-.1.5-2 6q-.7 2.3-.7 4.5t-.8 4.3q-.7 2.3-1.8 4.4l-2 6q-.6 2.4-2 4.4-.4.3-1 .2h-.3l-.3-.1V97l-.6-1.4-.5-1.3q-.5-1-1.2-2l-2.4-4.5a35 35 0 0 0-2.6-8.2l-.6-5.4q0-2-1-3.7-1-2.1-.5-4.4m12-33.4.4-.3h.3l1 .5 1 .3h.3l.6.4a8 8 0 0 0 4.9 1.5v.2l.2.1v.1h.2q0 .4.3.8a14 14 0 0 1 .8 7.4q-.7-.6-1.6-.9l-4.3-1.7-4.5-1.7v-1a38 38 0 0 1 .4-5.7m9 14.1.2 1.6-.2 2.7-3.4-.2q-1.2 0-2.3-.3l-2.4-.3q-.7-.3-1.6-.4V49q-.2-1.6 0-3.3v-3q1.7.2 3.1 1l2.6 1a16 16 0 0 1 4 2m.1 5.6h-1.3q-1.8 0-3.6-.3a10 10 0 0 0-3.4.1h-.3q-.2 0-.4 0h-.5a1 1 0 0 0-.7-.2l-.3.3h-.2l-.1.1-.1.2-.1.1v.2l.1.4-.2.6v.3l-.7-2.6.4-.3q.4-.1.6-.5l.7.3.7.1a12 12 0 0 0 3.5.5l2.9.4zm-11.2-10 .3.2-.1 1.2zm2.1 10.9h1.5a16 16 0 0 1 3.8.2q1.5.3 3.2 0h1v.4l.1.6.1.6a8 8 0 0 1 .1 2.6q0 1-.3 2v-.1l-.3 1.6h-.5l-2.2.2h-.9l-3-.4q-1.4-.3-2.6-1l-.2-.3-.5-1-.1-1.8v-1.5q-.2-1 .3-2.1zM43.2 81.7H43m51.1-27.4v3h.4l.1-.5-.1-2.6h-.3zm1.9.3-.2-.1h-.1l-.1.1v1.6l.2 1.4h.1v-.1l.2-.5zm1.6.5v.5l.3 2.9h.2v-.1l.1-.5-.3-2.9h-.2zm1.7.4v3.2h.4v-1.9q.2-.8 0-1.4h-.3zm-2.8-9.1-.1-.1h-.2l-.1.4-.2 1.1.2 1.2h.3v-1.5zm1.6.4H98l-.2.3v1q0 .4.2.9h.2v-2.2m2 0h-.2l-.1.3v1.1l-.2 1.2.1.1h.3V49l.2-1.2zm-5.2-.5v-.1h-.3l-.1.5-.2 2.5.1.1h.1l.1-.1v-.5l.2-1.2zm6-8.7h-.4v.4q.2.4.1 1 0 .6-.2 1.2l.1.2h.2l.2-.3.2-1.2q0-.8-.3-1.3m-2-.4H99V37h-.3v.3l.2 1.6v.1l.2.1h.1l.1-.1v-.3l-.2-.8zm-1.9-.4zh-.2v1.3l.2 1h.2v-1.4zm-1.7.4V37h-.1q-.1-.1-.2 0l-.2.2-.3 1.4v.1l.1.1h.2l.2-.3.2-.7zm-11 37.5q0-.8.4-1.5.3-.7-.1-1.6-.6-1-1.6-1v.1H83v.2q.7.2 1 .6t.4.6q0 1.2-.4 2.4v.4q1.4 1.8.6 3.8-.1.4.1.8.6.8.9 1.8v.5q-.5 1.5.4 2.5l.5 1.3a29 29 0 0 0 1 4.7h.2l.1-.2q0-.8-.3-1.4l-.2-1q0-2-1-3.6l-.2-.6a3 3 0 0 1-.1-1.7V81l-1-2q.3-.7.3-1.7l-.1-1zm5.2 15za15 15 0 0 0-1-6.8v-2.1l-.4-1q-.6-.9-.8-1.9.7-1.5.4-3.3l-.1-1v-2.8l-.5-2h.1v-.3l-.1-.1h-.1q-.6.5-.2 1.2.7 1.5.3 3v4.6q-.5.7 0 1.6 1 1.5.9 3.3l.1 1.1.5 1.6a24 24 0 0 1 .6 5zm9.7-23.2q-1.5.3-2.2 1.6-.6 1.1-.4 2.2l.1.6v1.2a9 9 0 0 0-.4 3.4v.5L95 80.5a16 16 0 0 1-.8 4.2 9 9 0 0 1-1.2 3.2v.3h.3q.3-.4.5-.9l1.2-4.2a23 23 0 0 1 1-4.6q1-1.8.8-3.8 0-1.2.3-2.3.3-.8.1-1.7v-.4q-.3-2.4 2-3.4h.3v-.3zm-5 1.3v-.3h-.2l-.5.2q-.8.7-1 1.8 0 1.2.3 2.4-.4 1.4-.4 2.8t-.2 2.5q-.4 2.2 0 4.6 0 .5-.3 1-.6.9-.4 1.8.5 2.1-1 3.6v.2h.3q.5-.2.7-.7.8-1.5.4-3.4l.1-.6q.6-1 .5-2.1-.1-1.7.1-3.5.3-1 .2-2 0-1.7.3-3.4l.1-.7-.1-1.2q-.5-2 1.2-3M82 56v.8q0 .6.2 1h.2v-.1l.1-.3v-1.7l-.1-.1H82zM84 55h-.3v1.6l.3 1h.3v-.4zm1.1-.6v1.7l.3 1.4h.3v-1.9l-.2-1.3h-.3m2.2.7H87v3.4h.3l.1-.6zm-4.5-8.4h-.3l-.1.4v2h.1l.1.1h.1l.1-.1v-2.4m5.2-1.5h-.4v3.8h.3v-3.8m-1.9-.6-.2.5.2 2.3v.1h.4V47l-.2-1.1.1-1.2h-.1q0-.2-.1 0m-1.2.7h-.3l-.1.5v1.4q0 .9.2 1.4h.3v-3.3m2.9-7.8q0-1-.2-2v-.2h-.3v.2q0 .2 0 .4v1.8l-.3 2v.1h.4l.2-.4zM83.9 36h-.3v1.8l.1 1.5.2.1h.1l.1-.1.2-.2V39l-.2-.1v-1.5q0-.8-.2-1.4m1.8.8-.3-.9H85v.5l.2 1 .2 1v.1h.3l.1-.1v-.5zm-3-.1v-.2h-.3l-.2.4v.5H82l-.3 2 .2.1h.2l.1-.5.2-1.5z"/><path fill="#ca6a40" d="M93.4 53.3h-1.2q-.5 1-.4 2.1V57l.2 1.7.7 1.5q1.2.6 2.7.9a18 18 0 0 0 6 .2h.5l.2-.7.1-.9q.2-.9.3-1.9a9 9 0 0 0-.2-3.2V54l-.1-.4h-1q-1.5.3-3.2 0l-.9-.2a16 16 0 0 0-3.7 0m6.1 2.6v-.4l.1-.1h.3q.2.8 0 1.4v1.8l-.1.1h-.2l-.1-1.4zm-1.7-.7V55h.3q.2.6.3 1.3l-.2 2v.1H98l-.1-.1v-.1zm-1.7-.6q.3.6.2 1.2l-.1 1.7h-.4v-.1zm-1.8.1v-.5h.3q.3.6.2 1.3v1.8h-.4v-2.6m7.6-6.3q0-.7-.2-1.6a16 16 0 0 0-4-2l-2.6-1q-1.5-.8-3-1l-.2 3v4l1.7.5.5.1 2 .2q1 .2 2.2.3h1.2l2.3.2.1-.9zM95 46.3v1.2l-.3 1.7-.1.1h-.2v-.1l-.1-.1.4-2.9h.3m5.3.5V48l-.2 1.5-.2.1h-.2v-.1l.1-1.2v-1l.1-.4h.3m-2.1 0V49H98l-.2-1 .1-1.2h.3m-1.6-.5V49h-.1v.1h-.3v-.1q-.3-.6-.2-1l.3-1.6h.2M93 32.4l-.4.3-.4 2.2v4.5l4.5 1.7 5.9 2.6a16 16 0 0 0-1.1-8.2h-.2l-.2-.2v-.2h-.7a8 8 0 0 1-4.8-2l-.4.1-1-.3zm2.4 4.7-.1.8-.3 1h-.3l-.1-.1v-.1l.5-1.7h.2zm1.7-.3.2.9V39l-.2.1H97v-.2l-.2-1.7v-.4h.3m1.8.3.2 1 .1.7v.3l-.1.1H99l-.1-.2-.2-.7v-1.1l.2-.1m2 .4q.3.7.3 1.4t-.2 1.2l-.1.2-.2.1h-.1v-.2l.1-1.2v-1l-.1-.3v-.1h.2m-21 25q1.2 1.5.7 3.6-.4 2.3.6 4.4a9 9 0 0 1 1 4.4l.9 6.2a27 27 0 0 1 2.4 7.2 43 43 0 0 0 3.4 6l.5 1.3.6 1.7h.3l.4.1q.4 0 1-.2 1.3-2 1.8-4.4l.5-1.7 1.6-4.3q1-2.1 1.8-4.4.8-2 .8-4.3t.7-4.5l2-6 .1-.5 1-4.7h-2.4l-.6.2a24 24 0 0 1-6.5-1.3q-1.2-.5-1.5-1.7l-.4-1.7q-.5 1.9-1.5 3.5-.3.5-.7.6-.6.4-1.3.4h-1q-.3 0-.8 0a26 26 0 0 0-5.3 0m14.5 5.2q-1.7 1.2-1.2 3.1v1.9Q93 74.4 93 76q0 1-.2 2-.3 1.8 0 3.5 0 1.1-.6 2.1v.6q.3 1.8-.5 3.4-.2.5-.7.8h-.2v-.3q1.3-1.5 1-3.6-.2-.9.3-1.8.3-.5.2-1-.2-2.3.1-4.6.3-1.2.2-2.5 0-1.5.4-2.8-.3-1.2-.2-2.4 0-1 1-1.8l.4-.3h.1l.1.1zm4.8-1.3h.1l.1.1h.1v.3l-.1.1h-.2q-2.3 1-2 3.4v2.1a6 6 0 0 0-.4 2.3q.2 2-.8 3.8l-.3.7q-.5 2-.7 4l-.2 1-1.5 4h-.2L93 88v-.1q.9-1.5 1.2-3.2 0-.4.2-.9.5-1.6.6-3.3l.1-.9 1.3-4.1a9 9 0 0 1 .3-3.4q.2-.6.1-1.2l-.1-.6q-.2-1.1.4-2.2.8-1.2 2.1-1.7m-9.5 23.3h-.3l-.1-.1v-.1a24 24 0 0 0-1-6.3l-.1-1.1q.2-1.8-.9-3.3-.4-.7 0-1.6l.2-.6-.2-4q.4-1.5-.3-3-.4-.8.2-1.2h.2v.4l-.1.1q0 1 .5 2v3.7q.5 1.8-.3 3.3.2 1 .8 2 .3.3.4.9v2.1l.4 1.5q.4 1.2.5 2.4.2 1.5.1 2.9m-5-16.5-.3 1.5.8 1.6.1 1-.3 1.8 1 1.9v.8a3 3 0 0 0 0 1.7l.3.6q1 1.6 1 3.7l.2.9.3 1.5h-.4l-1-4.6q0-.7-.4-1.3-.8-1-.5-2.5v-.5q-.1-1-.8-1.8a1 1 0 0 1 0-.8q.6-2-.7-3.8v-.4q.3-1.2.4-2.4l-.3-.6q-.4-.4-1-.5l-.1-.1v-.1l.1-.2q1 0 1.6 1 .4.7 0 1.6M79.5 53v1.8a24 24 0 0 0 .2 6.4 24 24 0 0 1 5.5 0L88 61a9 9 0 0 0 1.4-2.4l.1-.4a7 7 0 0 0 0-4.6q-.4-1-.6-1.9a35 35 0 0 1-7.8.8l-1.6.2zm7.9 2zl.2 1.4-.2 2H87v-3.4h.3m-2.2-.2v-.5h.3q.3.6.2 1.3l.1 1.3v.6h-.3v-.1q-.2-.6-.2-1.3zm-1.1.2.2 1.1v1.5H84l-.4-1V55h.2m-2.1 1.7.2-1.2h.3v2.1H82q-.3-.3-.2-.9m7.4-15.6q-1.4.5-2.7 1.4l-1 .6-2.7 1.2-3.4 1.6v5.6l4.8-.3q1.2 0 2.2-.2l3.5-.9a24 24 0 0 0-.2-4.7l-.4-3-.2-.8v-.5m-4.4 4.2v1.4l.1 1.4v.5h-.2q-.3-.5-.3-1.4l.2-2zm1.2-.7h.2v.1h.1v2.3l.1.4v.1H86a7 7 0 0 1-.2-2.4zm1.8.6V49l-.1.1h-.2v-3.8h.3m-5.1 1.5v2.4h-.1v.1h-.2v-.1l-.1-.1v-2.3h.3m.4-12.4q-1.4.8-3 1.2l-.7 4.1a17 17 0 0 0 0 5l3.7-1.8q2.2-.8 4-2 1.3-.9 2.6-1.3l-.2-6.7-.1-.7h-1.6l-.8.1h-.7q-1.4 1.2-3.2 2.1m-.5 2.2-.2.9-.3 2h-.3v-.1l.2-2v-.1l.1-.4.2-.4h.3zm2.7-.7.3 1 .1 1 .1.5v.1h-.3l-.1-.1-.2-1L85 36V36h.1v-.1h.3m-1.5 0v.1l.2 1.4v1.5l.1.1v.3H84v.1h-.2v-.1h-.1v-1.5l-.2-1.7.1-.1h.2m3.7-.4.2 2-.2 2-.2.4H87v-.1l.2-2v-2.3h.3"/><path fill="#fff" d="M139.2 50.5v.1a28 28 0 0 0-4.7-8.9q0-.4.2-.6l-.8-2.6-.4-1.3-1-2.4-1.5-4.2q-.7-2.3-1.6-4.3l-.5-1.2q0-.3.3-.4l-.2-2.5a28 28 0 0 0-2-8.6 15 15 0 0 0-4.1-5.5l-5.5-3.9q-1.5-.7-2.9-1.2H68q-1.4.1-2.6.6l-1.3.5a22 22 0 0 0-4.2 2q-1.2.8-2.1 2a16 16 0 0 0-3 6l-1 4.9q-.4 2.4-.5 4.8 0 1.5-.4 2.8l-.6 1.7-1.7 4.4-1.7 4.2-2.3 6.3-.2.1H46l-1.7 3.3q-1 2.1-1.7 4.2L40 59.6l-2 9-2.6 8.9q-.4 1.7-1.3 3.2-.3.5-.7.4l-1.3.5q-2.5.9-4.6 2.4l-1 .7-1.8 1.5-.6.5-1.8 1.7-.1.2v.2l.2.6.2.2h.2v.1h.1l1-.2h.3l1.2-1 1.7-.9.5-.3.7-.2h.2q.4 0 .6.3v.6l-.1.1v.2l-.1.1-.1.5q0 .5-.3.8l-.2.6v.5l-.2.5-.1.3-.1.7-.1.1-.2.3-.5 2-1 3.2-1 5.2q-.2 1.3.4 2.4 1.5-1.7 2-4 0-.8.3-1.4l1.4-5.2.4-.2h.1l.2-.1q.8 0 .6 1l-1 4.4q-.4 2.6-1.1 5.2-.5 1.5 0 2.9.6 0 1.1-.6l.7-1 .1-.4q.7-1.7 1-3.5l.6-2.5a21 21 0 0 1 1-4.2q.1-.2.4-.3l.5.1.1.2.1.2v.3l-1 5q-.1 2.3-.9 4.3a3 3 0 0 0 0 2v.1h.3q.9-1.2 1.5-2.7l2.1-6.5q.4-1.5 1-2.8l.5-.2q.3 0 .4.2l.2.2v.4a59 59 0 0 0-2 7.5v.6l1-.6q.8-1 1.1-2l.6-2.3a66 66 0 0 0 2.8-14.9l.2-.6 1-2 .9-1q3.8-5.1 7.2-10.5a47 47 0 0 0 6.7-17.3l.5-2.6q.4-2.2 1.5-4 3-5.4 4.8-11.2a291 291 0 0 1 1.3-16.9h.6l.3 1v5q.3 2.3 1.6 4.2t3 3.4l1.4 1q2 1.3 4.4 1.5 2.6.3 5-1a20 20 0 0 0 4-2.7l.3-.3 1.1-1.4 1.1-1.8.3-.3a1 1 0 0 1 .7.3v.3q-.2.9-.8 1.8L87.6 31H90l.3.3.1.2a19 19 0 0 1 .6 4q0-2 1-4h.2q.6-.6 1.4-.3l-1.4-1.9q-.5-.7-.8-1.6.2-1 1-.3l.2.2q1.2 2 2.7 3.7a8 8 0 0 0 6.5 2.5l6.6-1q1.5-.7 3-1.6a6 6 0 0 0 2.1-3A41 41 0 0 0 116 18q.6-.3.8.5.3 1 .1 2l-.5 2.5 1 9.1a21 21 0 0 1 .1 4.3l.2.5 1.4 3.2 4 8-.1.4a68 68 0 0 0 1.9 7.9l1.7 4.4q.4 1.3 1.3 2.5l.5.8.2.6 2.2 3.9 2.5 3.8a64 64 0 0 1 4.2 6.8 26 26 0 0 1 2.7 5.8l-.1.3-.2.2a16 16 0 0 0 1.1 8.3q.4.8.6 1.7.4.5.5 1l2.3 7 .8 1a7 7 0 0 0 0-3.7l-1-5q.6-.6 1.2.1.3.5.3 1a63 63 0 0 0 3.3 11l.5.3h.1q1.2-1.5.6-3.2l-1-3.2-1.2-6.3.3-.3h.4q.3 0 .3.3l1.8 7.6a23 23 0 0 0 2.1 4.5h.5v-.2q.3-2.3 0-4.4l-.6-3.2q-.4-2.2-1.3-4.2-.3-.7 0-1.5.2-.2.4-.2.7 0 .8.9l.2.6 1.1 4.5 1 3.4a4 4 0 0 0 1.1 1.6h.2q.8-2.4 0-4.8l-.2-1.1-.7-4.4q-.6-2.3-1.7-4.3l-1.6-3q.5-.9 1 0h.2q1.1.4 2.2 1.2l.6.4a4 4 0 0 0 3.1.2l.1-.2.1-.3q-1.1-1.6-2.8-2.7l-4-2.7q-1.9-1.4-3.5-3l-2.2-2q-.8-1.2-1.3-3l-.3-1-1-4.5a91 91 0 0 0-5-19.1zm-23.1-19.4-.4-3.4-.2-1.5-1 3.2a5 5 0 0 1-1.5 2q-1.6 1.5-3.6 2.4-1.2.6-2.5.7l-4.3.5.3.6q.8 2 1 4.3t-.1 4.7v.4l-.2.5q-.1.2-.4.3h-.3v-.1h-.2v-.2h-.1l-.1-.3V45q-1.9-1.5-4.2-2.2L94 41.4q-1.5-.4-2.8-1.3l-.1-.2-.1.1q0 .7-.6.7 0 .4 0 .8l.1.4.4-.3.5-.1q2.1.2 4.2 1l4.1 2q1.6.5 3 1.8l.2.4q.3 2.4.2 4.7 0 .4-.3.7v.1h.1l.3.3v.3q.4 1.5.5 3.1a10 10 0 0 1-.3 3.8l-.2 1q0 .5-.2.9.3.2.2.5l-.3 2q-.2 1.6-.7 3.3l-1.3 4.2q-.8 2-1.1 4.2l-.6 4.8q-.6 2.3-1.5 4.6L96 89.6q-.9 2.2-1.5 4.5-.3 1.3-.9 2.4-.3.9-1.1 1.6l-.8.4-.8.1.7.2q1.2.4 1.6 1.5t.5 2.6q0 2-.3 3.8v-.1q-.3 1.5-.2 3v1.8h24.6l.1-.5v-.2a23 23 0 0 1-1.6-9A31 31 0 0 0 115 91l-.4-1.8-3.2-18.6.6-6.7a70 70 0 0 1-.2-13.4l.7-2.2 1.3-4.3q.7-2.2 1.6-4.3l.7-1.6.3-1.5V36l.1-.3v-.1zm-50-4.2-.2 3v6.4a87 87 0 0 0 5 13.1q1.3 5.8-.1 11.6l-.4 2q-.4 2.6 0 5.2 0 1-.3 2.1a54 54 0 0 0-3 16.9q-.9 7.1-2.4 14.1a49 49 0 0 0-1 8.9l.1.6v.6h24.5v-.3q-.3-.6 0-1.3v-.4l-.2-6.6q0-1.7.6-3.2 0-.2.2-.3.6-.6 1.4-.7-.5 0-.8-.4h-.1l-.7-1-.4-1.5a13 13 0 0 0-2.1-3.9 20 20 0 0 1-2.4-5.3q-.3-1.8-1-3.5a13 13 0 0 1-1.4-5.2l-.5-4.4a9 9 0 0 0-.8-2.7 7 7 0 0 1-.6-4.5v-2.1l-.5-1.3v-.5q-.5-.1-.6-1-.4-1.5-.4-3.2l.5-12.3.1-.1q-.8-2.2-.5-4.5l.7-5.3h-1.4a13 13 0 0 1-6-2l-.9-.6q-1.6-1.5-3-3.2-.9-1.4-1.5-3.2"/><mask id="b" width="70" height="22" x="12" y="17" fill="#000" maskUnits="userSpaceOnUse"><path fill="#fff" d="M12 17h70v22H12z"/><path d="M19.8 36.4q-1.4 0-2.7-.5-.3.4-.9.4-.4 0-1-.4-.3-.3-.3-.9V22.1q0-.7.4-1.3t1.1-.7q1.1 0 1.1 1.2V26q.7-.5 1.4-.6.6-.2 1.3-.2 2.4 0 3.8 1.7 1.5 1.6 1.4 3.9 0 2.4-1.6 4a5 5 0 0 1-4 1.6m.4-8.7L19 28q-.7.3-1.5 1v4.2q1.4.6 2.3.6 1.4 0 2.1-.8a3 3 0 0 0 .9-2.2q0-1.3-.7-2.2t-1.9-.9m15.6 1q-.2 1.6-1.4 1.6-1.3 0-1.3-1.3v-1q-2.4.3-3.3 2.3v5q0 .6-.4 1t-1 .4-1-.4-.3-1V27q0-.6.4-1 .3-.3 1-.4 1 0 1.3 1.2a7 7 0 0 1 4-1.3q2 0 2 2.6zm10.1-.4q-1 1-2 2.6l-2.2 2.8 2.2.1 1.2.2q.6 0 1 .4.4.3.4 1 0 .5-.4.9-.4.3-1 .3l-1.2-.1-1.1-.1a23 23 0 0 0-4.7.4q-.6 0-1-.3a1 1 0 0 1-.4-.9q0-.6.6-1.2 2.6-2.1 5.3-6.2l-4.3-.2q-1.3-.2-1.3-1.3 0-.6.4-1 .4-.3 1-.4.4 0 1.5.2h3.5l2.1-.1q1.3 0 1.3 1t-.9 1.9m11.3 1.9v5.3q0 .6-.3 1-.4.3-1 .3-.9 0-1.3-.7-1.2.4-2.6.4t-2.4-.6a3 3 0 0 1-1.4-2l-.3-4.5q0-1.3.3-3 0-1.2 1.3-1.2.6 0 1 .4t.4 1l-.1 1.3-.2 1.5.4 4.2.5.2h.5q1 0 2.4-.3v-3.4q0-2.1.2-3.6.2-1.2 1.4-1.2.6 0 1 .4.4.3.4 1zm6.5 6.4q-2.1 0-3.7-1.2-1.6-1.4-1.6-3.5t1.5-4.2q1.5-2.4 3.7-2.4 1 0 2.5.5 1.7.7 1.7 1.6 0 .6-.4 1-.3.3-1 .3l-1-.4q-.6-.5-1.8-.5-.7 0-1.7 1.5-.8 1.5-.8 2.6 0 1 .7 1.6a3 3 0 0 0 2 .6q.7 0 1.6-.5l1.2-.5q.6 0 1 .4.3.3.4.9 0 .8-1.7 1.5-1.5.7-2.6.7m9-9.8 1.6-1.1q.9-.4 1.8-.4 1.8 0 2.5 1 .6.7.7 2.2l.3 4.5.4 2.3q0 .6-.5 1-.3.3-1 .3-.9 0-1.3-1a16 16 0 0 1-.6-4.6v-2.5q0-.5-.5-.5-1 0-2 1-.5.6-1.3 2a15 15 0 0 1-.4 4.4q-.3.9-1.2.8-.6 0-1-.3-.4-.4-.4-1v-.5q.2-.2.2-2.7v-7.1L70 21q0-.5.4-.9t1-.4q1 0 1.3 1.1.3.6.2 1.9z"/></mask><path fill="#000" d="M19.8 36.4q-1.4 0-2.7-.5-.3.4-.9.4-.4 0-1-.4-.3-.3-.3-.9V22.1q0-.7.4-1.3t1.1-.7q1.1 0 1.1 1.2V26q.7-.5 1.4-.6.6-.2 1.3-.2 2.4 0 3.8 1.7 1.5 1.6 1.4 3.9 0 2.4-1.6 4a5 5 0 0 1-4 1.6m.4-8.7L19 28q-.7.3-1.5 1v4.2q1.4.6 2.3.6 1.4 0 2.1-.8a3 3 0 0 0 .9-2.2q0-1.3-.7-2.2t-1.9-.9m15.6 1q-.2 1.6-1.4 1.6-1.3 0-1.3-1.3v-1q-2.4.3-3.3 2.3v5q0 .6-.4 1t-1 .4-1-.4-.3-1V27q0-.6.4-1 .3-.3 1-.4 1 0 1.3 1.2a7 7 0 0 1 4-1.3q2 0 2 2.6zm10.1-.4q-1 1-2 2.6l-2.2 2.8 2.2.1 1.2.2q.6 0 1 .4.4.3.4 1 0 .5-.4.9-.4.3-1 .3l-1.2-.1-1.1-.1a23 23 0 0 0-4.7.4q-.6 0-1-.3a1 1 0 0 1-.4-.9q0-.6.6-1.2 2.6-2.1 5.3-6.2l-4.3-.2q-1.3-.2-1.3-1.3 0-.6.4-1 .4-.3 1-.4.4 0 1.5.2h3.5l2.1-.1q1.3 0 1.3 1t-.9 1.9m11.3 1.9v5.3q0 .6-.3 1-.4.3-1 .3-.9 0-1.3-.7-1.2.4-2.6.4t-2.4-.6a3 3 0 0 1-1.4-2l-.3-4.5q0-1.3.3-3 0-1.2 1.3-1.2.6 0 1 .4t.4 1l-.1 1.3-.2 1.5.4 4.2.5.2h.5q1 0 2.4-.3v-3.4q0-2.1.2-3.6.2-1.2 1.4-1.2.6 0 1 .4.4.3.4 1zm6.5 6.4q-2.1 0-3.7-1.2-1.6-1.4-1.6-3.5t1.5-4.2q1.5-2.4 3.7-2.4 1 0 2.5.5 1.7.7 1.7 1.6 0 .6-.4 1-.3.3-1 .3l-1-.4q-.6-.5-1.8-.5-.7 0-1.7 1.5-.8 1.5-.8 2.6 0 1 .7 1.6a3 3 0 0 0 2 .6q.7 0 1.6-.5l1.2-.5q.6 0 1 .4.3.3.4.9 0 .8-1.7 1.5-1.5.7-2.6.7m9-9.8 1.6-1.1q.9-.4 1.8-.4 1.8 0 2.5 1 .6.7.7 2.2l.3 4.5.4 2.3q0 .6-.5 1-.3.3-1 .3-.9 0-1.3-1a16 16 0 0 1-.6-4.6v-2.5q0-.5-.5-.5-1 0-2 1-.5.6-1.3 2a15 15 0 0 1-.4 4.4q-.3.9-1.2.8-.6 0-1-.3-.4-.4-.4-1v-.5q.2-.2.2-2.7v-7.1L70 21q0-.5.4-.9t1-.4q1 0 1.3 1.1.3.6.2 1.9z"/><path fill="#e7e7e7" d="m17.1 36 .8-2-1.3-.4-.9 1zm-1.8 0-1.4 1.4zm-.4-1.7 2 .1zm.4-13.5 1.7 1zm2.2.9-2-.3zm0 4.3h-2v3.4l3-1.7zm1.4-.6.5 1.9zm5.1 1.5 1.6-1.3zm-.2 7.9-1.4-1.4zM19 28l-.8-1.8zm-1.5 1-1.2-1.7-.8.6v1zm0 4.2h-2v1.4l1.2.5zm4.4-.2 1.5 1.4zm.2-4.4 1.6-1.2zm-2.3 7.8v-2q-1 0-2-.3l-.7 1.8-.7 1.9q1.6.6 3.4.6zm-2.7-.5-1.4-1.4.5-.2v4q1.4 0 2.4-1zm-.9.4v-2h.2l.2.2-1.3 1.4-1.4 1.5q1 .9 2.3.9zm-1-.4 1.5-1.4.2.5h-4q0 1.5 1 2.4zM15 35h2v-.6l-2-.1-2-.1v.8zm0-.7 2 .1v-.9h-4v.7zm0-.8h2V22.1h-4v11.4zm0-11.4h2l.1-.3-1.7-1-1.7-1q-.7 1-.6 2.3zm.4-1.3 1.7 1-.2.2-.4.1v-4q-2 .1-2.9 1.7zm1.1-.7v2h-.2l-.4-.3-.3-.5h4q.1-1.1-.8-2.3a3 3 0 0 0-2.3-.9zm1.1 1.2h-2v.1l2 .3 2 .3v-.7zm0 .4-2-.2v.6h4v-.2zm0 .4h-2V26h4V22zm0 3.9 1 1.7 1-.4-.6-2-.6-1.9-1.8.8zm1.4-.6.6 1.9.7-.1v-4q-1 0-2 .3zm1.3-.2v2q1.4 0 2.3 1l1.5-1.3 1.6-1.3a7 7 0 0 0-5.4-2.4zm3.8 1.7-1.5 1.3q.9 1 .9 2.6h4q0-3-1.8-5.2zm1.4 3.9h-2q0 1.5-1 2.6l1.4 1.4 1.5 1.4a8 8 0 0 0 2.1-5.4zm-1.6 4-1.4-1.4q-1 1-2.6 1v4q3.2 0 5.5-2.2zm-3.6-7v-2a5 5 0 0 0-2 .4L19 28l.8 1.9.3-.1h.1zM19 28l-.8-1.8-1.9 1.1 1.2 1.6 1.1 1.7 1.2-.7zm-1.5 1h-2v4.2h4V29zm0 4.2-.8 1.9q1.5.6 3.1.7v-4q-.4.1-1.6-.4zm2.3.6v2q2.1 0 3.6-1.4L21.9 33l-1.4-1.4q-.2.2-.7.2zM22 33l1.5 1.4a5 5 0 0 0 1.4-3.6h-4q0 .5-.3.8zm.9-2.2h2q0-1.9-1.1-3.4L22 28.6 20.5 30q.2.1.3.9zm-.7-2.2 1.5-1.2q-1.2-1.7-3.4-1.7v4h.2l.1.2zm13.7.1-2-.1zM33 29h2v-.1zm0-1 2-.2-.2-2.2-2.2.4zm-3.3 2.3-1.8-1-.2.5v.5zm0 5h2zm-.4 1L28 34.8zm-2 0L29 35zm-.3-8.5h2zm.4-1.9L26 24.6zm2.3.8-2 .4.6 3.1 2.6-1.9zm6 2h-2q0 .2 0-.2l.4-.2h.2v4q1.3 0 2.4-1 1-1.2 1-2.5zm-1.4 1.6v-2l.4.2q.4.6.3.5h-4q0 1.2.9 2.3 1.1 1.1 2.4 1zM33 29l2-.1v-1h-2l-2 .1v1zm0-1-.4-2a6 6 0 0 0-4.7 3.4l1.8.9 1.8.9q.4-1 1.7-1.3zm-3.3 2.3h-2v5h4v-5zm0 5h-2v-.2l.2-.3 1.4 1.5 1.4 1.4q1-1 1-2.4zm-.4 1L28 34.9l.2-.2h.2v4q1.3 0 2.4-1zm-1 .4v-2h.2l.4.3-1.6 1.3-1.5 1.3q1.1 1.1 2.5 1zm-1-.4 1.5-1.4.2.3v.1h-4q0 1.2.8 2.3zm-.3-1h2v-6.6h-4v6.6zm0-6.6h2V28h-2l-2-.2v1zm0-.9h2v-1h-4v1zm0-1h2v.2l-.1.3-1.5-1.4-1.5-1.3q-.9 1-.9 2.3zm.4-.9 1.5 1.4-.4.2h-.1v-4q-1.4 0-2.5 1.1zm1-.4v2l-.5-.2-.2-.2 2-.4 2-.4q-.2-1-1.1-2-1.1-.8-2.2-.8zm1.3 1.2 1.2 1.6q1.2-1 2.7-1v-4q-2.8 0-5.1 1.8zm4-1.3v2l-.1-.2v.8h4q.1-1.6-.8-3.2-1.3-1.4-3.2-1.4zm2 2.6h-2v.6l2 .1 2 .1V28zm8 2.9 1.6 1.2zm-2 2.8-1.6-1.2-2.7 3.3h4.3zm2.1.1-.4 2zm2.2.6-1.4 1.4zm-2.2 2-.3 2zm-5.4.3-.3-2zm-1.4-.2 1.3-1.6zm.2-2 1.3 1.4zm5.3-6.3 1.6 1.1 2.3-3.3-4 .2zm-4.3-.2.2-2zm-.9-2.3L36 24.3zm2.5-.2-.2 2zm3.5 0 .2 2zm2.5 2.8L44.4 27l-2.2 2.7 1.6 1.2 1.7 1.2 2-2.5zm-2 2.6-1.7-1.2-2 2.8 1.5 1.2 1.6 1.2 2.1-2.8zm-2.2 2.8.1 2h1v-4h-1.1zm1 0v2l.8.1.4-2 .4-2-1.5-.1zm1.2.1-.3 2 1.5.2v-4l-.8-.1zm1.2.2v2h-.2l-.2-.2 1.4-1.4 1.4-1.5q-1-1-2.4-1zm1 .4-1.4 1.4-.2-.5h4q0-1.4-1-2.4zm.4 1h-2V35l.2-.3 1.4 1.5 1.4 1.4q1-1 1-2.4zm-.4.9-1.4-1.5.3-.1h.1v4q1.3 0 2.4-1zm-1 .3v-2h-.8l-.4 1.9-.3 2 1.5.1zm-1.2-.1.4-2-1.5-.1v4h.8zm-1.1-.1v-2q-2.5-.1-4.6.4l.3 2 .4 1.9q1.8-.3 3.9-.3zm-4.3.3-.3-2H38v4h.8zm-.4 0v-2 .1h.3L37 36.6 36 38q1 .7 2.2.7zm-1-.2 1.2-1.6.3.3v.4h-4a3 3 0 0 0 1.3 2.5zm-.4-.9h2v.3q-.1.1 0 0l-1.4-1.5L36 33q-1.2.9-1.3 2.7zm.6-1.2 1.3 1.5q2.9-2.3 5.6-6.6l-1.6-1.1-1.7-1.1a28 28 0 0 1-4.9 5.8zm5.3-6.2-.1-2h-1.1v4h1.3zm-1.2 0v-2q-1.5 0-2.9-.2l-.2 2-.3 2 3.4.2zm-3.1-.2.2-2 .3.2.2.3v.2h-4q0 1.2.9 2.3 1 .9 2 1zM37 26.7h2v.2l-.2.2-1.4-1.4-1.4-1.4q-1 1-1 2.4zm.4-1 1.4 1.4-.4.2v-4q-1.5 0-2.4 1zm1-.4v2l1.3.1.2-2 .2-2h-1.7zm1.5.2-.2 2h1.7v-4H40zm1.5 0v2h2.2l-.2-2v-2h-2zm2 0 .2 2 1.9-.1v-4h-2.2zm2.1-.1v2q.2 0-.3-.2l-.4-.5v-.3h4a3 3 0 0 0-1-2.3q-1.3-.8-2.3-.7zm1.3 1h-2l-.4.6 1.5 1.3 1.5 1.3q1.3-1.3 1.4-3.2zM57.2 35l-2 .1zm-.3 1.5L55.5 35zm-2.3-.3 1.8-1-.8-1.5-1.6.6zm-5-.2-1.1 1.7zm-1.4-2-2 .3zm0-7.5 2 .3zm2.3-.8-1.3 1.5zm.3 2.3-2-.3zm0 4-2 .1zm.2 1.7-1.9.6.2.9 1 .4zm.5.2-.5 2zm3-.3.4 2 1.5-.4v-1.6zm0-1.7h2zm.1-5.3 2 .3zm2.4-.8-1.3 1.5zm.4 1-2-.2zm-.2 3.5h-2v2h4v-2zm0 2h-2v2h4v-2zm0 2h-2v.8l2-.1 2-.2v-.5zm0 .7-2 .2v.4h4v-.8zm0 .6h-2q0 0 .2-.3l.1-.3 1.4 1.5 1.3 1.5q1-1 1-2.4zm-.3 1L55.5 35l.4-.2v4q1.3 0 2.3-.9zm-1 .3v-2l.3.1.2.2-1.8 1-1.7.9q.3.8 1.2 1.3t1.8.5zm-1.3-.7-.6-2q-1 .4-2 .4v4q1.7 0 3.3-.6zm-2.6.4v-2q-1 0-1.4-.3l-1 1.7-1 1.7q1.5 1 3.4 1zm-2.4-.6 1-1.7q-.3-.1-.4-.6l-2 .3-2 .3q.4 2.1 2.3 3.4zm-1.4-2 2-.3-.3-4.2h-4q0 2.1.4 4.8zm-.3-4.5h2q0-1 .2-2.7l-2-.3-2-.4-.2 3.4zm.3-3 2 .3q0 0-.3.4-.4.2-.4.1v-4q-1.1 0-2.2.8-1 1-1.1 2zm1.3-1.2v2h-.1l-.2-.1 1.3-1.5 1.4-1.5q-1-.9-2.4-.9zm1 .4-1.3 1.5-.3-.6h4q0-1.4-1-2.4zm.4 1h-2v1l1.9.3 2 .4.1-1.8zm-.1 1.3-2-.3-.2 1.8h4l.2-1.2zm-.2 1.5h-2l.1 2.6 2-.1 2-.2v-2.3zm.1 2.5-2 .2.4 2 2-.5 1.9-.5-.3-1.4zm.3 1.7-.8 1.9.8.2.5-1.9.5-2h-.2zm.5.2-.5 2h1v-4zm.5 0v2q1.5 0 2.9-.3l-.5-2-.4-2q-1.2.4-2 .4zm2.4-.3h2v-1.7h-4v1.7zm0-1.7h2V30h-4v1.7zm0-1.7h2q0-2 .2-3.3l-2-.3-2-.2-.2 3.8zm.2-3.6 2 .3-.3.3-.3.2v-4q-1.2 0-2.3.8-1 1-1 2.2zm1.4-1.2v2h-.2l-.1-.1 1.3-1.5 1.3-1.5q-1-.9-2.3-.9zm1 .4-1.3 1.5-.2-.3-.1-.4 2 .1 2 .1q0-1.6-1-2.5zm.4 1-2-.2-.2 3.4v-.2l.2-.4a2 2 0 0 1 3.7.2v.6h-4l.1.4.1.4a2 2 0 0 0 3.7.2l.1-.4v-.3l.1-.2.2-3.5zm2.6 8.7-1.3 1.5zm-.1-7.7 1.6 1.1zm6.2-1.9.7-1.8zm1.3 2.5L66 27zm-2 0-1.2 1.5zm-3.5 1-1.7-1zm0 4.2L63 32zm5.7 0L66 34.9zm-1.3 2.4.8 1.9zm-2.6.7v-2q-1.5 0-2.4-.8L60 35.4l-1.3 1.5a8 8 0 0 0 5 1.7zM60 35.4l1.3-1.6q-.9-.6-.9-2h-4q0 3 2.3 5.1zm-1.6-3.5h2q0-1.4 1.1-3L60 27.6l-1.7-1a10 10 0 0 0-1.8 5.2zm1.5-4.2 1.6 1.1c.9-1.3 1.6-1.5 2.1-1.5v-4c-2.3 0-4.1 1.4-5.4 3.3zm3.7-2.4v2q.6-.1 1.7.4l.8-1.9.7-1.8q-1.5-.7-3.2-.7zm2.5.5-.8 1.9.7.3-.1-.1-.1-.5h4q-.1-1.4-1-2.3-1-.7-2-1.1zm1.7 1.6h-2l.1-.4 1.5 1.3 1.5 1.4q.9-1 .9-2.3zm-.4 1L66 27l.6-.3v4q1.5 0 2.4-1zm-1 .3v-2h.4-.2l-1.2 1.6-1.2 1.6q.8.7 2.3.8zm-1-.4 1.3-1.6q-1.5-1-3-.9v4h.5zm-1.8-.5v-2q-1.5.1-2.1.9l-1.3 1.6 1.7 1 1.8 1 .4-.6-.5.1zM62 29.3l-1.7-1a7 7 0 0 0-1.1 3.6h4q-.1-.3.6-1.6zm-.8 2.6h-2a4 4 0 0 0 1.5 3.2l1.2-1.6 1.3-1.5v-.1zm.7 1.6-1.2 1.6q1.5 1 3.1 1v-4l-.6-.1zm2 .6v2q1.4 0 2.5-.7l-.9-1.8-1-1.8-.5.3h-.2zm1.6-.5 1 1.8.6-.4h-.4v-4q-.8.1-1.2.4l-1 .4zm1.2-.5v2h-.2l-.3-.2 1.5-1.4L69 32q-.9-1-2.4-1zm1 .4-1.4 1.4-.2-.2v-.3h4q0-1.5-1-2.3zm.4.9h-2l.1-.6q0-.1 0-.1l-.1.1-.6.3.9 1.8.8 1.9 1.8-1.2a3 3 0 0 0 1-2.2zm-1.7 1.5-.9-1.8q-1.3.5-1.7.5v4q1.7 0 3.4-.8zm6.4-9.1h-2v4.7l3.4-3.3zm1.6-1.1.8 1.8zm4.3.6 1.6-1.2zm.7 2.2h2v-.1zm0 2.5-2 .1v.1zm.3 2-2 .2zm.3 2 2-.5zm-.4 1.3-1.2-1.6zm-2.3-.7-1.9.6zm-.4-2.3-2 .3zm-.2-3-2-.2zm0-1.7-2 .3zm-2.5.5 1.5 1.3zm-1.3 2-1.7-1-.3.4v.5zm-.4 4.3 1.9.9zm-2.2.5-1.3 1.5zm-.3-1.5 1.9.6zm0-2.7h2zm.1-6.8-2-.1zm0-.3 2 .1zm0-2.5-2 .3zm.3-1.9 1.3 1.5zm2.3.7 2-.6zm.2 4h2zm0 1.9 1.3 1.4 1-.7-.8-1.8-.8-1.9a7 7 0 0 0-2.2 1.5zm1.5-1.1.8 1.8 1-.2v-4q-1.4 0-2.6.5zm1.8-.4v2l.8.1.1.1 1.6-1.2 1.6-1.2q-1.7-1.9-4.1-1.8zm2.5 1L77 27.5q0 0 .3 1.2l2-.2 2-.1q-.1-1.9-1.1-3.3zm.7 2.2-2 .1v2.5h2l2-.2v-2.5zm0 2.5-2 .2.3 2 2-.2 2-.2-.2-2zm.3 2-2 .2.4 2.2 2-.4 1.9-.5-.3-1.8zm.3 2-2 .4h4v-1zm0 .3h-2q0 0 .2-.3l.2-.3 1.2 1.6 1.3 1.5q1.2-1 1.2-2.5zm-.4 1-1.3-1.5.3-.2v4q1.4 0 2.4-.8zm-1 .3v-2l.4.2.2.2-1.9.6-1.9.6q.3 1 1.2 1.8 1 .7 2 .6zm-1.3-1 2-.6q-.3-.5-.4-2l-2 .3-2 .3.5 2.6zm-.4-2.3 2-.2q-.2-1.4-.2-2.1h-4q0 1 .2 2.6zm-.2-2.3h2v-.7h-2l-2-.2v.9zm0-.8 2 .1v-.8h-4v.6zm0-.7h2v-1.2l-2 .3-2 .3v-.1.7zm0-1 2-.2q0-.7-.7-1.5-.8-.9-1.8-.8v4q-.6 0-1.1-.5-.4-.5-.3-.6zm-.5-.5v-2q-2.1.1-3.5 1.7l1.5 1.4 1.5 1.3q.5-.5.5-.4zm-2 1-1.5-1.3q-.7.8-1.5 2.3l1.7 1 1.7 1q1-1.4 1-1.6zm-1.3 2h-2l-.2 3.5q0 .3 0 0l1.8 1 1.9.8q.4-1.1.4-2.2l.1-3zm-.4 4.4-1.8-.8.2-.2.4-.2v4a3 3 0 0 0 3-2zm-1.2.8v-2l.3.1-1.3 1.6-1.3 1.5q1 .8 2.3.8zm-1-.3 1.3-1.5.2.2v.3h-4q0 1.5 1.2 2.5zm-.4-1h2v.2l-2-.7-1.8-.6-.2 1.1zm0-.5 2 .6v-.7l.1-.6v-2h-4V34v-.2zm.2-2.7h2v-6.8h-4v6.8zm0-6.8 2 .1v-.3l-2-.1-2-.1v.3zm0-.3h2V23h-4v1.5zm0-1.6h2v-1.3l-2 .4-2 .3v.5zm0-1 2-.2-.1-.7h-4l.1 1.3zm-.1-.9h2v.3l-.3.3-1.3-1.5-1.3-1.5q-1 1-1.1 2.4zm.4-.9 1.3 1.5-.3.1v-4q-1.4 0-2.3 1zm1-.4v2h-.1l-.3-.1-.2-.2 2-.6 1.9-.6q-.3-1-1.2-1.8-1-.7-2-.7zm1.3 1.1-1.9.6.1 1.3h4q0-1.5-.2-2.5zm.2 1.9h-2v1.9l2 .1 2 .1v-2.1zm0 2-2-.1v2h4V25z" mask="url(#b)"/><path fill="#fff" d="M14 57.7a8 8 0 0 1 8-8h9a8 8 0 0 1 8 8v9a8 8 0 0 1-8 8h-9a8 8 0 0 1-8-8z"/><path fill="#000" d="M28.8 50.2h-.4l-.3.1-.4.3-.3.2-1.2.3H24l-.4-.1-.8-.1-.3-.1h-.4l-.1-.1-.6.4h-.8l-.8-.2h-.2l-.3.1-.4.2-.5.2-.4.2-.3.2-.7.4-.3.2-.3.2v.4l-.2.4q0 .6-.3 1l-.2.4-.1.3-.2.5-.2.7-.3 1-.2.3-.2.2.2.3.2.4q.4.7.2 1.4v.4l-.1.4-.2.8-.2.8.2.4.1.4q.4.8 0 1.6l-.2.4-.2.3.2.2.2.4q.3.8.1 1.5v.4l-.2.4.2.3.2.3.4 1v.5l.2.3.3.2.3.2.7.4.3.2.4.2q.5.3.8.9l.3.3.2.4.4.2h.4l.4.1h1.8l.7.1h.1l.4-.3.4-.2 1-.2h.4l.4.1h.4l.4.1h1.4l.8-.2q.8-.1 1.4.2l.4.2.3.2.2-.1.4-.2q.7-.2 1.3-.2h.4l.4.1h.8l.4-.1.2-.4.2-.4.5-.8.3-.3.2-.3.4-.5.2-.3.5-.9.2-.3.2-.3.3-.5.2-.4.1-.3-.1-.4-.2-.3-.2-1.1V65q-.2-.8.4-1.3l.2-.4.3-.4-.1-.2-.2-.4v-1.6l.1-.4v-.1l-.4-.8q-.3-.5-.3-1.1v-1.5l-.1-.3v-1.1l-.1-.4v-.4l-.1-.5-.2-.4v-.4l-.4-.2-.4-.2-.7-.4-.3-.2-.4-.2-.8-.8-.3-.3v-.2h-.3l-.4.2h-1.3l-.8-.3-.7-.2-.3-.1-.4-.1h-.8M21 48.6l.3-.2.4-.2q.5 0 .9.2l.2.4.4.1.7.1h.4l.4.1h1.6l.4-.3.3-.2 1.2-.4h.8q.6 0 1 .2h.4l.4.2.8.2.3.1.4.2h.2l.9-.3h.9q.5.3.8.7l.3.3.2.4.3.2.3.2.3.2.6.4.4.2.4.1q.7.5 1 1.2v.4l.2.4.1 1v.4l.1.3v1.1l.1.4v1.5q0 0 .2.3l.3.8q.4.6.3 1.4l-.2.7v.3l.1.3.2.4q.2 1-.3 1.6l-.5.8v1.3l.2.4.2.4q.3.8 0 1.5l-.2.3-.1.4-.5.8-.2.3-.2.3-.4.7-.2.3-.2.3-.5.6-.2.3-.3.3-.3.5-.2.3-.2.4q-.4.8-1.2 1l-.8.2h-1.6l-.4-.1h-.2l-.3.2-.4.2q-.8.3-1.6-.1l-.8-.4h-.8l-.9.2h-1.7l-.8-.2-.4.2-.4.2q-.6.3-1.3.3h-.8l-.6-.1h-.8l-1.1-.1-.8-.3a2 2 0 0 1-1.1-.9l-.2-.3-.3-.4-.2-.2-.6-.4-.6-.4-.4-.2-.4-.2q-.8-.4-.9-1.2v-.4l-.2-.4-.1-.4-.4-.7q-.5-.7-.2-1.5l.1-.4.1-.4-.2-.4-.2-.4q-.4-.8 0-1.7l.2-.4.2-.3-.1-.3-.2-.3a2 2 0 0 1-.2-1.5l.3-.7.1-.7.1-.4v-.4l-.1-.4-.3-.4q-.4-.8 0-1.7l.2-.3.2-.4.2-.5v-.4l.2-.3.3-1 .3-.6.2-.4v-.4l.1-.5.1-.4.8-.9.4-.2.3-.2.7-.4.3-.2.4-.2.8-.4.3-.1.4-.2q.6-.2 1.3 0h.5l.2-.2z"/><path stroke="#000" stroke-linecap="round" stroke-width="2" d="M21 66.8c1 3 4.3 5 5.2 3.2 1.6-2.8 5.2-14.6 5.8-16.3"/><path fill="#fff" d="M14 57.7a8 8 0 0 1 8-8h9a8 8 0 0 1 8 8v9a8 8 0 0 1-8 8h-9a8 8 0 0 1-8-8z"/><path fill="#000" d="M28.8 50.2h-.4l-.3.1-.4.3-.3.2-1.2.3H24l-.4-.1-.8-.1-.3-.1h-.4l-.1-.1-.6.4h-.8l-.8-.2h-.2l-.3.1-.4.2-.5.2-.4.2-.3.2-.7.4-.3.2-.3.2v.4l-.2.4q0 .6-.3 1l-.2.4-.1.3-.2.5-.2.7-.3 1-.2.3-.2.2.2.3.2.4q.4.7.2 1.4v.4l-.1.4-.2.8-.2.8.2.4.1.4q.4.8 0 1.6l-.2.4-.2.3.2.2.2.4q.3.8.1 1.5v.4l-.2.4.2.3.2.3.4 1v.5l.2.3.3.2.3.2.7.4.3.2.4.2q.5.3.8.9l.3.3.2.4.4.2h.4l.4.1h1.8l.7.1h.1l.4-.3.4-.2 1-.2h.4l.4.1h.4l.4.1h1.4l.8-.2q.8-.1 1.4.2l.4.2.3.2.2-.1.4-.2q.7-.2 1.3-.2h.4l.4.1h.8l.4-.1.2-.4.2-.4.5-.8.3-.3.2-.3.4-.5.2-.3.5-.9.2-.3.2-.3.3-.5.2-.4.1-.3-.1-.4-.2-.3-.2-1.1V65q-.2-.8.4-1.3l.2-.4.3-.4-.1-.2-.2-.4v-1.6l.1-.4v-.1l-.4-.8q-.3-.5-.3-1.1v-1.5l-.1-.3v-1.1l-.1-.4v-.4l-.1-.5-.2-.4v-.4l-.4-.2-.4-.2-.7-.4-.3-.2-.4-.2-.8-.8-.3-.3v-.2h-.3l-.4.2h-1.3l-.8-.3-.7-.2-.3-.1-.4-.1h-.8M21 48.6l.3-.2.4-.2q.5 0 .9.2l.2.4.4.1.7.1h.4l.4.1h1.6l.4-.3.3-.2 1.2-.4h.8q.6 0 1 .2h.4l.4.2.8.2.3.1.4.2h.2l.9-.3h.9q.5.3.8.7l.3.3.2.4.3.2.3.2.3.2.6.4.4.2.4.1q.7.5 1 1.2v.4l.2.4.1 1v.4l.1.3v1.1l.1.4v1.5q0 0 .2.3l.3.8q.4.6.3 1.4l-.2.7v.3l.1.3.2.4q.2 1-.3 1.6l-.5.8v1.3l.2.4.2.4q.3.8 0 1.5l-.2.3-.1.4-.5.8-.2.3-.2.3-.4.7-.2.3-.2.3-.5.6-.2.3-.3.3-.3.5-.2.3-.2.4q-.4.8-1.2 1l-.8.2h-1.6l-.4-.1h-.2l-.3.2-.4.2q-.8.3-1.6-.1l-.8-.4h-.8l-.9.2h-1.7l-.8-.2-.4.2-.4.2q-.6.3-1.3.3h-.8l-.6-.1h-.8l-1.1-.1-.8-.3a2 2 0 0 1-1.1-.9l-.2-.3-.3-.4-.2-.2-.6-.4-.6-.4-.4-.2-.4-.2q-.8-.4-.9-1.2v-.4l-.2-.4-.1-.4-.4-.7q-.5-.7-.2-1.5l.1-.4.1-.4-.2-.4-.2-.4q-.4-.8 0-1.7l.2-.4.2-.3-.1-.3-.2-.3a2 2 0 0 1-.2-1.5l.3-.7.1-.7.1-.4v-.4l-.1-.4-.3-.4q-.4-.8 0-1.7l.2-.3.2-.4.2-.5v-.4l.2-.3.3-1 .3-.6.2-.4v-.4l.1-.5.1-.4.8-.9.4-.2.3-.2.7-.4.3-.2.4-.2.8-.4.3-.1.4-.2q.6-.2 1.3 0h.5l.2-.2z"/><path stroke="#000" stroke-linecap="round" stroke-width="2" d="M21 66.8c1 3 4.3 5 5.2 3.2 1.6-2.8 5.2-14.6 5.8-16.3"/></g><rect width="130" height="96" x="2" y="2" stroke="#000" stroke-width="4" rx="13"/><defs><clipPath id="a"><rect width="134" height="100" fill="#fff" rx="15"/></clipPath></defs></svg>