<svg xmlns="http://www.w3.org/2000/svg" width="134" height="100" fill="none" viewBox="0 0 134 100"><rect width="130" height="96" x="2" y="2" fill="#eee" rx="13"/><rect width="130" height="96" x="2" y="2" stroke="#000" stroke-width="4" rx="13"/><mask id="a" width="42" height="26" x="12" y="18" fill="#000" maskUnits="userSpaceOnUse"><path fill="#fff" d="M12 18h42v26H12z"/><path d="M22.98 36.72q-1.24 0-1.38-1.22l-.28-2.1a16 16 0 0 1-.08-3.88l.02-.35.02-.48q0-.83-.44-.83-.93 0-1.82 1.09a8 8 0 0 0-1.4 2.74q-.02.33-.09.89a7 7 0 0 0 0 1.74q.07.57.07.85 0 .58-.4.95-.4.38-1 .38t-1-.38q-.4-.37-.4-.95 0-.28-.05-.85a9 9 0 0 1-.06-.85q0-.98.14-2.7t.14-2.7q0-.3-.04-.89l-.03-.9q0-.55.4-.93.41-.37 1.01-.37 1.32 0 1.41 1.58l.01.12a4.4 4.4 0 0 1 3.11-1.49q1.9 0 2.64 1.6.48 1.07.48 3.2v.71l-.01.66q0 .78.21 2.03.22 1.24.22 2.01 0 .58-.4.94-.4.38-1 .38M30 36.6a4.5 4.5 0 0 1-3.2-1.29 5.2 5.2 0 0 1-1.55-3.74 6.2 6.2 0 0 1 1.22-3.98 5 5 0 0 1 4.27-2.05q2.02 0 3.21 1.61a6 6 0 0 1 1.07 3.6q0 2.34-1.25 4A4.5 4.5 0 0 1 30 36.6m.61-8.4q-1.24 0-1.96 1.13a4 4 0 0 0-.6 2.24q0 1.2.68 1.86.55.51 1.27.51.89 0 1.53-.6.73-.7.79-1.88.12-3.25-1.71-3.26m15.47 1.79a34 34 0 0 0-.5 5q-.1 3.26-1.1 4.73-1.32 1.97-4.68 1.97-3.92 0-3.92-1.55 0-.56.35-.9.36-.34.93-.34.45 0 1.3.17t1.5.17q1.5 0 2.22-.92.69-.9.81-2.85a3.4 3.4 0 0 1-2.57 1.04 4.35 4.35 0 0 1-4.52-4.65q0-2.74 1.67-4.44a6.3 6.3 0 0 1 4.7-1.75q.94 0 1.63.23t1.11.7q1.28.15 1.28 1.52 0 .67-.21 1.87m-3.92-2.02q-1.7 0-2.65 1.12a4 4 0 0 0-.85 2.64 3 3 0 0 0 .46 1.8q.45.61 1.36.61.82 0 1.66-.96.8-.9.9-1.8.2-.96.45-3a3 3 0 0 0-.68-.31q-.33-.1-.65-.1m7.85-4.1q-.65 0-1.12-.43a1.4 1.4 0 0 1-.48-1.06q0-.63.48-1.06a1.6 1.6 0 0 1 1.12-.44q.65 0 1.1.44.48.43.48 1.06 0 .62-.47 1.06-.47.43-1.11.43m.85 7.4.03 1.84q.04 1.28.04 1.85 0 .59-.39.97-.4.37-1 .37t-1-.37a1.3 1.3 0 0 1-.4-.97q0-.57-.03-1.85l-.03-1.84q0-.9.1-2.25t.1-2.25q0-.6.4-.96.39-.39 1-.39.6 0 1 .39.38.38.38.96 0 .9-.1 2.25t-.1 2.25"/></mask><path fill="#000" d="M22.98 36.72q-1.24 0-1.38-1.22l-.28-2.1a16 16 0 0 1-.08-3.88l.02-.35.02-.48q0-.83-.44-.83-.93 0-1.82 1.09a8 8 0 0 0-1.4 2.74q-.02.33-.09.89a7 7 0 0 0 0 1.74q.07.57.07.85 0 .58-.4.95-.4.38-1 .38t-1-.38q-.4-.37-.4-.95 0-.28-.05-.85a9 9 0 0 1-.06-.85q0-.98.14-2.7t.14-2.7q0-.3-.04-.89l-.03-.9q0-.55.4-.93.41-.37 1.01-.37 1.32 0 1.41 1.58l.01.12a4.4 4.4 0 0 1 3.11-1.49q1.9 0 2.64 1.6.48 1.07.48 3.2v.71l-.01.66q0 .78.21 2.03.22 1.24.22 2.01 0 .58-.4.94-.4.38-1 .38M30 36.6a4.5 4.5 0 0 1-3.2-1.29 5.2 5.2 0 0 1-1.55-3.74 6.2 6.2 0 0 1 1.22-3.98 5 5 0 0 1 4.27-2.05q2.02 0 3.21 1.61a6 6 0 0 1 1.07 3.6q0 2.34-1.25 4A4.5 4.5 0 0 1 30 36.6m.61-8.4q-1.24 0-1.96 1.13a4 4 0 0 0-.6 2.24q0 1.2.68 1.86.55.51 1.27.51.89 0 1.53-.6.73-.7.79-1.88.12-3.25-1.71-3.26m15.47 1.79a34 34 0 0 0-.5 5q-.1 3.26-1.1 4.73-1.32 1.97-4.68 1.97-3.92 0-3.92-1.55 0-.56.35-.9.36-.34.93-.34.45 0 1.3.17t1.5.17q1.5 0 2.22-.92.69-.9.81-2.85a3.4 3.4 0 0 1-2.57 1.04 4.35 4.35 0 0 1-4.52-4.65q0-2.74 1.67-4.44a6.3 6.3 0 0 1 4.7-1.75q.94 0 1.63.23t1.11.7q1.28.15 1.28 1.52 0 .67-.21 1.87m-3.92-2.02q-1.7 0-2.65 1.12a4 4 0 0 0-.85 2.64 3 3 0 0 0 .46 1.8q.45.61 1.36.61.82 0 1.66-.96.8-.9.9-1.8.2-.96.45-3a3 3 0 0 0-.68-.31q-.33-.1-.65-.1m7.85-4.1q-.65 0-1.12-.43a1.4 1.4 0 0 1-.48-1.06q0-.63.48-1.06a1.6 1.6 0 0 1 1.12-.44q.65 0 1.1.44.48.43.48 1.06 0 .62-.47 1.06-.47.43-1.11.43m.85 7.4.03 1.84q.04 1.28.04 1.85 0 .59-.39.97-.4.37-1 .37t-1-.37a1.3 1.3 0 0 1-.4-.97q0-.57-.03-1.85l-.03-1.84q0-.9.1-2.25t.1-2.25q0-.6.4-.96.39-.39 1-.39.6 0 1 .39.38.38.38.96 0 .9-.1 2.25t-.1 2.25"/><path fill="#e7e7e7" d="m21.6 35.5 1.99-.23v-.02l-.01-.02zm-.28-2.1 1.98-.26zm-.12-2.98-2-.13v.03zm.06-1.25 1.99.14zm-2.24-.22-1.55-1.28zm-1.4 2.74-1.91-.58-.07.23-.01.23zm-.09.89 1.98.26zm0 1.74-1.99.21v.04zm-.33 1.8-1.36-1.47-.02.02-.02.02zm-2 0 1.4-1.43-.01-.01-.01-.01zm-.45-1.8-2 .21zm.18-7.14-2 .1v.04zm.37-1.83 1.34 1.49zm2.42 1.21-2 .12v.03l.01.04zm.01.12-1.99.18.39 4.27 3.02-3.04zm5.75.1 1.82-.82zm.48 3.92 2 .05v-.05zm.2 2.69-1.97.33v.01zm-.18 2.95-1.36-1.47zm-1 .38v-2c-.1 0 .11-.02.36.2.25.21.25.43.25.35l-2 .23-1.98.23c.09.73.37 1.55 1.08 2.18.7.62 1.56.8 2.3.8zM21.6 35.5l1.98-.27-.28-2.09-1.98.27-1.99.26.29 2.1zm-.28-2.1 1.98-.26a14 14 0 0 1-.14-1.82h-4q0 1.13.17 2.36zm-.16-2.08h2l.03-.8-2-.1-2-.1-.03 1zm.04-.9 2 .13.04-1.03h-4l-.04.77zm.04-.9h2v.03-.04l.01-.2-2-.14-1.99-.14-.02.5zm.02-.35 2 .14.02-.62h-4l-.02.34zm.02-.48h2c0-.38-.04-.98-.34-1.54a2.34 2.34 0 0 0-2.1-1.29v4a1.7 1.7 0 0 1-1.45-.87c-.15-.3-.11-.47-.11-.3zm-.44-.83v-2c-1.47 0-2.59.87-3.37 1.81l1.55 1.28 1.54 1.27q.3-.34.39-.37c.04-.03 0 0-.1 0zm-1.82 1.09-1.55-1.27a10 10 0 0 0-1.76 3.43l1.91.58 1.92.58q.42-1.36 1.02-2.05zm-1.4 2.74-2-.12q0 .23-.07.76l1.98.25 1.99.25q.07-.59.1-1.02zm-.09.89-1.98-.27q-.08.58-.08 1.16h4q0-.3.04-.63zm-.06.89h-2q0 .46.07 1.06l2-.2 1.98-.21-.05-.65zm.06.85-1.98.25.05.6h4q0-.49-.08-1.1zm.07.85h-2q0-.07.06-.26.08-.17.18-.26l1.36 1.47 1.36 1.47c.7-.65 1.04-1.5 1.04-2.42zm-.4.95-1.4-1.43a1 1 0 0 1 .24-.15l.16-.04v4c.87 0 1.72-.29 2.4-.95zm-1 .38v-2l.16.04q.15.07.24.15l-1.4 1.43-1.4 1.43c.68.66 1.53.95 2.4.95zm-1-.38 1.38-1.45a.8.8 0 0 1 .23.5h-4c0 .9.33 1.75 1.01 2.4zm-.4-.95h2q0-.46-.06-1.06l-2 .21-1.98.22q.05.53.05.63zm-.05-.85 1.99-.2-.05-.65h-4q0 .46.07 1.06zm-.06-.85h2q0-.84.13-2.53l-2-.17-1.99-.16q-.14 1.76-.14 2.86zm.14-2.7 2 .17a37 37 0 0 0 .14-2.86h-4q0 .84-.14 2.53zm.14-2.7h2q0-.4-.05-1.02l-2 .13-1.99.14.04.76zm-.04-.89 2-.1-.03-.8h-4l.03 1zm-.03-.9h2q.01.1-.07.29a1 1 0 0 1-.19.27l-1.34-1.49-1.34-1.48a3.2 3.2 0 0 0-1.06 2.41zm.4-.93 1.34 1.49a.6.6 0 0 1-.33.14v-4c-.85 0-1.68.28-2.35.89zm1.01-.37v2q.02.01-.14-.04a1 1 0 0 1-.34-.23c-.18-.2-.12-.32-.1-.03l2-.12 1.99-.11a4 4 0 0 0-.9-2.4 3.3 3.3 0 0 0-2.5-1.07zm1.41 1.58-1.99.19.01.1 2-.17 1.99-.19-.01-.1zm.01.12 1.42 1.4c.72-.72 1.27-.89 1.7-.89v-4c-1.77 0-3.29.82-4.54 2.08zm3.11-1.49v2c.36 0 .52.08.58.11s.14.1.24.32l1.82-.83 1.82-.83a4.6 4.6 0 0 0-4.46-2.77zm2.64 1.6-1.83.82c.15.32.31 1.05.31 2.38h4c0-1.51-.16-2.92-.66-4.03zm.48 3.2h-2v.71h4V30zm0 .71-2-.04-.01.7h4v-.61zm-.01.66h-2q0 1.03.24 2.36l1.97-.33 1.97-.34q-.19-1.15-.18-1.7zm.21 2.03-1.97.35q.2 1.15.2 1.66h4q-.01-1.03-.26-2.37zm.22 2.01h-2q-.01-.08.07-.27.09-.18.17-.26l1.36 1.47 1.36 1.47a3.2 3.2 0 0 0 1.04-2.4zm-.4.94-1.36-1.47a.6.6 0 0 1 .36-.15v4c.86 0 1.69-.29 2.36-.9zm2.82-1.03 1.38-1.44zm-1.55-3.74 2-.06zm1.22-3.98-1.6-1.2v.01zm7.48-.44 1.61-1.19zm-.18 7.6 1.6 1.2zM30.6 28.2l-.02 2zm-1.96 1.13 1.7 1.07zm.08 4.1 1.38-1.46zm2.8-.08 1.35 1.47.01-.01.01-.01zm.79-1.9 2 .1v-.01zM30 36.6v-2c-.73 0-1.3-.24-1.82-.73L26.8 35.3l-1.39 1.45a6.5 6.5 0 0 0 4.6 1.84zm-3.2-1.29 1.37-1.44c-.54-.52-.89-1.24-.92-2.36l-2 .06-2 .06c.06 2 .74 3.78 2.17 5.13zm-1.55-3.74 2-.06a4.2 4.2 0 0 1 .83-2.73l-1.6-1.19-1.62-1.19a8.2 8.2 0 0 0-1.6 5.23zm1.22-3.98 1.6 1.2c.62-.83 1.43-1.25 2.67-1.25v-4c-2.4 0-4.44.94-5.87 2.86zm4.27-2.05v2c.72 0 1.19.24 1.6.8l1.61-1.19 1.61-1.19a5.8 5.8 0 0 0-4.82-2.42zm3.21 1.61-1.61 1.19c.41.56.68 1.32.68 2.41h4a8 8 0 0 0-1.46-4.79zm1.07 3.6h-2c0 1.19-.3 2.08-.85 2.8l1.6 1.2 1.6 1.2a8.4 8.4 0 0 0 1.65-5.2zm-1.25 4-1.6-1.21A2.5 2.5 0 0 1 30 34.6v4c2.2 0 4.04-.9 5.36-2.64zM30.6 28.2l.02-2a4.2 4.2 0 0 0-3.67 2.07l1.7 1.06 1.69 1.06.11-.15.04-.03.1-.01zm-1.96 1.13-1.69-1.07a6 6 0 0 0-.91 3.31h4q.02-.78.3-1.17zm-.6 2.24h-2c0 1.2.35 2.4 1.31 3.31l1.37-1.45 1.37-1.46v-.02a1 1 0 0 1-.05-.38zm.68 1.86-1.37 1.45A3.8 3.8 0 0 0 30 35.94v-4h.02l.1.04h-.01zm1.27.51v2q1.67-.01 2.88-1.12l-1.35-1.47-1.36-1.47-.07.05-.1.01zm1.53-.6 1.37 1.46a4.6 4.6 0 0 0 1.41-3.26l-2-.08-2-.09c0 .38-.1.48-.16.52zm.79-1.88 2 .08a7 7 0 0 0-.6-3.45 3.5 3.5 0 0 0-1.27-1.39 3.5 3.5 0 0 0-1.83-.5l-.01 2-.01 2s-.1 0-.24-.09-.18-.17-.18-.16q.03.01.1.38.07.38.04 1.05zm13.76-1.47 1.97.35zm-.5 5 2 .06zm-1.1 4.73 1.67 1.12zm-2.3-1.4 1.58 1.23.01-.01zm.81-2.85 2 .12.33-5.35-3.76 3.82zm-5.84-.26L35.7 36.6l.01.01zm.42-7.79-1.42-1.4zm6.33-1.52-.64 1.9zm1.11.7-1.5 1.34.51.56.76.1zm-5.5 2.49-1.53-1.3v.01zm2.63 4.1 1.51 1.31zm.9-1.8L41.08 31l-.01.07-.01.07zm.45-3.02 1.98.25.16-1.3-1.13-.67zM46.08 30l-1.97-.36q-.45 2.54-.53 5.3l2 .06 2 .06q.07-2.5.47-4.71zm-.5 5-2-.06c-.07 2.07-.42 3.18-.76 3.68l1.67 1.11 1.66 1.12c.98-1.46 1.35-3.5 1.42-5.79zm-1.1 4.73-1.65-1.11c-.37.55-1.15 1.08-3.03 1.08v4c2.6 0 4.95-.78 6.35-2.85zM39.8 41.7v-2a7 7 0 0 1-2.2-.25c-.14-.05-.06-.05.05.09.15.17.23.4.23.6h-4q0 1.11.71 1.98c.45.52 1.01.85 1.53 1.05 1.01.4 2.3.53 3.68.53zm-3.92-1.55h2q.01.05-.05.23a1 1 0 0 1-.2.3l-1.4-1.43-1.4-1.44a3.2 3.2 0 0 0-.95 2.34zm.35-.9 1.4 1.43a1 1 0 0 1-.3.19l-.17.04v-4c-.81 0-1.65.25-2.32.9zm.93-.34v2q.14-.02.9.13l.4-1.96.4-1.96c-.6-.12-1.2-.21-1.7-.21zm1.3.17-.4 1.96q1 .2 1.9.2v-4q-.4 0-1.1-.12zm1.5.17v2c1.43 0 2.84-.46 3.8-1.69l-1.58-1.23-1.57-1.23-.1.07q-.1.06-.55.08zm2.22-.92 1.6 1.22a7 7 0 0 0 1.2-3.95L43 35.47l-2-.13c-.07 1.17-.3 1.64-.4 1.77zm.81-2.85-1.43-1.4q-.24.23-.48.33l.75 1.85.75 1.86q1.05-.44 1.84-1.24zm-1.16.78-.75-1.85q-.25.1-.66.11v4q1.12.01 2.16-.4zm-1.41.26v-2c-.86 0-1.41-.25-1.83-.69l-1.44 1.4-1.44 1.38a6.4 6.4 0 0 0 4.7 1.91zm-3.27-1.3 1.45-1.38a2.7 2.7 0 0 1-.7-1.97h-4c0 1.8.57 3.44 1.8 4.73zm-1.25-3.35h2c0-1.39.4-2.33 1.1-3.03l-1.43-1.4-1.42-1.41a8 8 0 0 0-2.25 5.84zm1.67-4.44 1.43 1.4c.7-.7 1.72-1.15 3.27-1.15v-4c-2.4 0-4.51.72-6.12 2.35zm4.7-1.75v2q.7.02.99.12l.64-1.9.64-1.89a7 7 0 0 0-2.27-.33zm1.63.23-.64 1.9q.25.08.26.14L45 26.6l1.5-1.34A4.5 4.5 0 0 0 44.53 24zm1.11.7-.23 2q.05.01-.06-.04a1 1 0 0 1-.28-.2c-.18-.23-.15-.4-.15-.24h4c0-.75-.18-1.62-.8-2.35a3.4 3.4 0 0 0-2.25-1.15zm1.28 1.52h-2q0 .4-.18 1.52l1.97.35 1.97.35q.23-1.28.24-2.22zm-4.13-.15v-2c-1.61 0-3.1.55-4.18 1.83l1.53 1.29 1.53 1.29c.19-.22.47-.41 1.12-.41zm-2.65 1.12-1.54-1.28a6 6 0 0 0-1.3 3.92h4c0-.72.17-1.12.38-1.36zm-.85 2.64h-2c0 1 .18 2.1.86 3l1.6-1.2 1.6-1.2q.05.1 0-.03a2 2 0 0 1-.06-.57zm.46 1.8-1.6 1.2a3.6 3.6 0 0 0 2.96 1.41v-4q-.11-.01.02.02a1 1 0 0 1 .22.18zm1.36.61v2c1.38 0 2.44-.8 3.17-1.64l-1.5-1.32-1.51-1.31q-.28.29-.33.3c-.02.01.04-.03.17-.03zm1.66-.96 1.52 1.31c.7-.8 1.23-1.75 1.37-2.85l-1.99-.25-1.98-.25c-.01.09-.07.33-.43.73zm.9-1.8 1.96.4q.22-1.1.47-3.16l-1.98-.25-1.99-.24q-.25 2.02-.42 2.87zm.45-3 1.01-1.73q-.52-.31-1.11-.5l-.58 1.92-.58 1.91.24.11zm-.68-.31.58-1.92q-.59-.17-1.23-.18v4l.07.01zm6.08-4.63-1.35 1.47zm0-2.12-1.35-1.48zm2.23 0-1.37 1.46.02.01zm0 2.12-1.35-1.48h-.01l-.01.02zm-.23 9.67-2 .05v.01zm-.35 2.82 1.38 1.45.02-.02zm-2 0-1.4 1.43.02.01v.01zm-.43-2.82-2 .05v.01zm.56-7.3 1.38 1.45v-.01l.02-.01zm2 0-1.4 1.43.01.01h.01zm-.66-1.94v-2q.01 0 .11.03.1.04.12.06l-1.35 1.48-1.35 1.47a3.6 3.6 0 0 0 2.47.96zm-1.12-.43 1.35-1.48q.04.03.11.18.07.16.06.24h-4c0 1 .4 1.88 1.13 2.53zm-.48-1.06h2a1 1 0 0 1-.06.24q-.08.14-.11.17l-1.35-1.47-1.35-1.48a3.4 3.4 0 0 0-1.13 2.54zm.48-1.06 1.35 1.47-.12.07-.11.02v-4a3.6 3.6 0 0 0-2.47.96zm1.12-.44v2q-.04 0-.13-.03l-.13-.07 1.37-1.46 1.36-1.46a3.6 3.6 0 0 0-2.47-.98zm1.1.44-1.34 1.47-.12-.17a1 1 0 0 1-.06-.24h4c0-1-.4-1.88-1.12-2.54zm.48 1.06h-2a1 1 0 0 1 .06-.24q.08-.15.12-.18l1.35 1.48 1.35 1.47a3.4 3.4 0 0 0 1.12-2.53zm-.47 1.06-1.37-1.46.13-.08.13-.03v4c.92 0 1.78-.33 2.47-.97zm-.26 7.83h-2l.03 1.9 2-.06 2-.04-.03-1.8zm.03 1.84-2 .07q.04 1.26.04 1.78h4q0-.63-.04-1.91zm.04 1.85h-2q0-.05.05-.22.07-.16.16-.24l1.4 1.43 1.4 1.43a3.3 3.3 0 0 0 1-2.4zm-.39.97-1.38-1.45a1 1 0 0 1 .23-.14l.15-.04v4c.85 0 1.7-.28 2.38-.92zm-1 .37v-2q0-.01.15.04a1 1 0 0 1 .23.14l-1.38 1.45-1.37 1.45c.67.64 1.52.92 2.37.92zm-1-.37 1.4-1.43a.7.7 0 0 1 .2.46h-4c0 .9.33 1.74 1 2.4zm-.4-.97h2q0-.63-.03-1.91l-2 .06-2 .07q.04 1.26.04 1.78zm-.03-1.85 2-.04-.03-1.8h-4q0 .6.03 1.9zm-.03-1.84h2q0-.8.1-2.1l-2-.15-2-.15q-.1 1.4-.1 2.4zm.1-2.25 2 .15q.1-1.4.1-2.4h-4q0 .79-.1 2.1zm.1-2.25h2q.01.05-.05.22a1 1 0 0 1-.18.27l-1.38-1.45-1.37-1.45a3.3 3.3 0 0 0-1.02 2.4zm.4-.96 1.39 1.43a1 1 0 0 1-.23.15l-.17.03v-4c-.86 0-1.72.3-2.4.96zm1-.39v2l-.17-.03a1 1 0 0 1-.23-.15l1.4-1.43 1.39-1.43a3.4 3.4 0 0 0-2.4-.96zm1 .39-1.39 1.45a.8.8 0 0 1-.23-.5h4c0-.88-.32-1.74-1.01-2.4zm.38.96h-2q0 .79-.1 2.1l2 .15 2 .15q.1-1.4.1-2.4zm-.1 2.25-2-.15q-.1 1.4-.1 2.4h4q0-.8.1-2.1z" mask="url(#a)"/><path fill="#000" d="M73.03 1q.03.89.14 1.76.44 3.65.27 7.29-.15 3.64.42 7.23l-.2.42-.03.04-.03.05-.05.13-.01.12-.04.15q-.65 2.3-1.23 4.6a29 29 0 0 0-.78 4.66q0 .09.03.18l.1.14.04.03q-.15 1.46-.51 2.88a97 97 0 0 0-1.82 8.68q-.69 4.33-1.65 8.61-.97 4.37-.55 8.82.42 4.41 2.05 8.51.3.78.72 1.49 2.15 3.69 2.27 7.9.13 4.38-.44 8.7a56 56 0 0 0-.45 8.78q.09 3.24.82 6.41h.93l-.29-1.33a32 32 0 0 1-.52-8.3q.27-4.2.73-8.37a69 69 0 0 0 .3-3l.11-.2q.3-.2.66-.32a6 6 0 0 1 2.11-.28q1.15.08 2.26.43l.1-.04.08-.06.08-.13q0-.02.02-.05v-.05q-.09-.45-.27-.89a5 5 0 0 1-.3-1.2q.6.55 1.6.69 1.29.03 2.35-.67.35-.23.56-.58.56-.9.6-2.01l.07-2.54q.04-2.6-.1-5.18-.14-2.5-.35-5-.1-1.26-.31-2.5-.12-.67-.2-1.45a30 30 0 0 0-.65-3.78q.1-1.8-.18-3.56l-.78-4.58a77 77 0 0 1-.69-4.92 51 51 0 0 1-.32-4.6q-.03-1.66-.2-3.28a252 252 0 0 0-.5-4.64l-.03-.06-.03-.05-.04-.04-.06-.04-.06-.02-.05-.03h-.13l-.06.03-.06.02-.05.04-.05.04-.03.05-.03.06v.06l.04.53-.11.02-.06.02-.05.03a1 1 0 0 0-.18.28 85 85 0 0 1-1.82 4.23l-1 2.17-.05.02-.04.02a2 2 0 0 0-.37.45q-.16.3-.37.57a40 40 0 0 0-2.22 3.33 18 18 0 0 0-1.64 3.61 82 82 0 0 0-1.54 5.42q.7-3.55 1.25-7.14.38-2.3 1.04-4.53a31 31 0 0 0 1.28-8.78l.05-.32q.39-2.33 1.04-4.6l.77-2.68q1.26.95 2.7 1.63 1.32.63 2.7 1.13l-.04.07q.15 1.17.6 2.32l1.29 3.18q.34.9.64 1.82 1 3 2.8 5.57a45 45 0 0 0 3.52 4.44 1 1 0 0 0-.19.27q-.33.66-.38 1.36a26 26 0 0 0-.05 4.39q.09 1.1.22 2.18.13 1.02.05 2.04a95 95 0 0 1-1.12 8.59 5 5 0 0 0-.11.8l-.23 1.26q-.32 1.88-.57 3.77l-.43 3.57q-.27 1.3-.45 2.62-.45 3.2-1 6.37-.5 2.98-.92 5.98-.1.21-.1.44-.03.31-.1.63l-.1.47-.12.07q-.08.06-.14.16l-.02.14q0 .36.07.73l.11.47.6 3.43q.51 3.1.9 6.24.1.8 0 1.56-.15 1.05.01 1.98h.9l.03-1.34q.08-3-.46-5.99L83.9 85.4v-.03l-.04-.2-.1-.63a.7.7 0 0 0 .2-.38l.23-1.44q.16-.52.25-1.08a756 756 0 0 0 2.7-18.03q.64-4.43 1.36-8.83.45-2.7.4-5.46-.06-4.41.05-8.82l.14-.53q.05-.15.13-.27 0-.02.03-.03l.05-.02a1 1 0 0 0 .26-.09l.01-.01h.3l.16.1.17.1.17.09.1.17q.03.09.1.18l.1.2q.09.36.2.72.23.8.23 1.63v1.67l-.09.37q-.06.3-.07.6l-.01.63q-.13.4-.14.84 0 .7-.12 1.37-.1.63.05 1.26-.18 1.27-.17 2.56.08 4.5 1.33 8.78a78 78 0 0 1 1.98 8.44q.74 4.2 1.52 8.38.6 3.15.83 6.3a26 26 0 0 0-.7 3.41 32 32 0 0 0-.33 4.7q-.07.5-.1 1-.11 1.36.02 2.73.1.96.1 1.91a.4.4 0 0 0-.17.3v.07q0 .08.04.17.06.08.07.18l.02.18h.9q.14-1.48.06-2.98-.22-4.65.62-9.25a17 17 0 0 0-.01-6.32q-.83-4.4-1.49-8.8a68 68 0 0 0-1.84-8.56q-.77-2.7-1.28-5.46-.77-4.2-.57-8.46.14-1.23.3-2.44.29-2.31.13-4.62a4 4 0 0 0-.44-1.63l.12-.13a364 364 0 0 1 3.27-4.54 15 15 0 0 0 2.03-3.8 28 28 0 0 0 1.64-8.55q2.05-1.05 3.64-2.7 1.39-1.46 2.97-2.72h.06q.08.27.19.53a49 49 0 0 1 1.21 3.5q.51 1.62.77 3.3l-.09.09q.09 2.55.66 5.08l.73 3.21q.37 1.6.66 3.2l-.08.14.45 2 .16 1.05q.02.09.08.16l.05.05.1.43q.22 1 .51 2 .53 1.9.88 3.95 0 .59.04 1.14l.01.23-.09-.58q-.3-2.25-1.11-4.46-.39-1.06-.94-2.05a61 61 0 0 0-2.92-4.7l-.69-2.1-.1-.1-.05-.01-.04-.02h-.14l-.1.02-.04.02-.08.06-.07.12-.02.07a17 17 0 0 1-1.77-3.54 21 21 0 0 1-1.1-4.5l-.02-.04-.03-.03-.07-.07-.04-.03-.04-.02q-.02 0-.05-.02h-.19l-.04.02-.04.02-.04.03-.04.03-.03.04-.03.03q0 .02-.02.03l-.02.01-.05.04-.05.05-.03.05-.03.05q0 1.48-.29 2.93-.45 2.26-.55 4.54l-.24 4.59a60 60 0 0 1-.44 4.56l-1.24 9.1a80 80 0 0 1-.76 4.51 46 46 0 0 0-.66 4.56q-.22 2.27-.47 4.54-.13 1.11-.14 2.23-.01 2.28.3 4.54.16 1.09.72 2.02.8 1.35 2.3 1.52.12 0 .24-.02a2 2 0 0 0 .42-.14l.17-.1-.02.02.08-.04.09-.04.05-.02.04-.02.06-.04a8 8 0 0 1 .68-.53l.01.02.06.02h.16l.11-.02.15-.12v.04q-.06.59-.06 1.19a1 1 0 0 0-.09.32q0 .11-.03.21l-.03.02-.03.05-.03.04-.02.04-.04.15.01.1.02.1.06.1q.07.1.18.2.09.08.2.1.26 0 .5-.1a4 4 0 0 1 1.4-.25 9 9 0 0 1 2 .15 9 9 0 0 0 .84.22l.09.06.09.05.1.06h.05l.05.01h.03a53 53 0 0 0-.03 4.57q.1 3.2.32 6.4a36 36 0 0 0 .23 2.3q.52 3.9-.27 7.74h.88l.14-.76q.13-.81.15-1.62.12-4.68-.36-9.33a50 50 0 0 1-.25-6.53q.11-4.27.84-8.5.1-.54.29-1.05 1.47-3.9 2.45-7.92 1-4.14.87-8.4l.03-.03.03-.03.03-.04q.08-.15.06-.32-.05-.58-.2-1.15v-.3q-.01-4.44-.9-8.75a85 85 0 0 0-1.33-5.64l-.07-.7a34 34 0 0 0-1.06-6.02q-.8-3-1.25-6.05l.1-.13.06-.1-.2-1.27a17 17 0 0 0-.87-3.62q-.66-1.8-1.42-3.54l-.05-.04-.06-.02q.65-2.19.34-4.55-.28-2.11-.64-4.24-.6-3.47-.01-6.93h-.85q-.11.53-.2 1.07-.65 3.77.38 7.46 1 3.63.06 7.23-.22.1-.4.26a33 33 0 0 0-3.2 2.89 12 12 0 0 1-3.9 2.7l-.06.1-.04.1v.11q0 .15.09.26t.24.16l.15-.02-.04.41q-.08.82-.13 1.03a26 26 0 0 1-1.65 6.73 13 13 0 0 1-.76 1.6 67 67 0 0 1-2.1 3.42q-.95 1.48-2.05 2.8a4 4 0 0 0-.87-.67l-.1-.01-.62.01a14 14 0 0 0-1-1.18 22 22 0 0 1-2.82-3.69 32 32 0 0 1-3.16-6.93l-.03-.08-.2-.47-.07-.2-.22-.53a101 101 0 0 1-1.36-3.8l.02-.02q.09-.06.13-.13l.05-.21-.03-.22a2 2 0 0 0-.9-.56 19 19 0 0 1-2.96-1.31q-1.14-.63-2.23-1.36l.18-.59.04-.15-.06-.18-.07-.1q-.01 0-.03-.02-.45-3.57-.37-7.19.03-1.16.02-2.32a51 51 0 0 0-.43-6.4zm2.4 33.68a157 157 0 0 0 3.03-6.88l.34 3.4q.13 1.3.16 2.6a61 61 0 0 0 .33 5q.23 2.04.56 4.07l.71 4.43a37 37 0 0 1 .43 3.92q.08 1.33.28 2.67.37 2.44.7 4.9.32 2.45.44 4.92.12 2.5.16 5 .04 2.48-.37 4.94a2.7 2.7 0 0 1-3.24.86.5.5 0 0 1-.28-.22 9 9 0 0 1-1-2.73q-.1-.54-.15-1.09l-.16-1.3.02-.05.02-.04.02-.04.01-.06-.02-.11-.08-.33q-.09-.65-.12-1.3a11 11 0 0 1 .02-1.44l-.02-.04-.03-.04-.03-.03-.03-.03-.04-.03-.05-.02-.04-.02h-.19l-.05.02-.04.02-.04.03-.04.03-.03.03-.03.04q-.06.26-.1.51-.08.73-.05 1.46.02.47.15.91v.06q0 .83.11 1.62a4 4 0 0 0-1.15-.46q-.7-.15-1.38.02.02-.27.01-.52a8 8 0 0 0-1.2-4.05 13 13 0 0 1-1.24-2.81q-.64-2.07-.7-4.24-.07-2.56.14-5.11l.1-1.55a55 55 0 0 1 .5-4.9v.01q.14-.7.23-1.41a26 26 0 0 1 1.6-6.3q.83-2.19 1.83-4.32m-2.18 2.82.2-.28a34 34 0 0 0-2.02 7.03q-.38 2.24-.59 4.52-.19 2.3-.4 4.59a42 42 0 0 0-.11 5.52q.04.74.12 1.47.24 2.32 1.38 4.35.6 1.05.99 1.9 1 2.13.42 4.37-.18.68-.38 1.34-.21-1-.55-1.98-.66-1.97-1.56-3.86a28 28 0 0 1-1.53-3.9l-.06-.39a28 28 0 0 1-.6-7.79q.15-2.07.45-4.13.34-2.36.97-4.66.59-2.12 1.27-4.21.7-2.1 2-3.9m.83 33.09q.2.03.4 0 .6-.1 1.23.08t1.1.63l.06.02q.1.47.24.95l.12.54-.03.04-.02.04a1 1 0 0 0-.02.39q.1.69.17 1.38.06.84.38 1.62-.33-.08-.67-.14a9 9 0 0 0-2.32-.03 3.5 3.5 0 0 0-1.45.48q.03-1.55-.19-3.06l.05-.01.05-.04.04-.05.03-.05.04-.05q.57-1.33.79-2.74m27.57-39.38q.26-1.35.38-2.7.63 2.26 1.68 4.35.54 1.08 1.26 2.06l.75 1.06.23.7q.3.85.6 1.9.23 1.05.43 2.08.44 2.24 1.13 4.43.7 2.2.97 4.5.14 1.1.35 2.2.42 2.23.58 4.54.16 2.28-.39 4.52t-1.9 4.12a11 11 0 0 0-1.78 3.68l-.03.03a2 2 0 0 0-.05.98l-.14-.01q-.5-.02-.98.07-.66.1-1.29.28l.15-1.74q.1-1.8-.17-3.56l-.04-.03-.1-.06-.1-.04h-.05l-.11.02-.1.04-.05.04-.06.1-.05.1v.06a2 2 0 0 0 .08.4l.01 1.14q.03 2.06-.22 4.11l-.1 1a7 7 0 0 1-.75 2.5h-.12q-.23.08-.42.22l-.55.46-.07.02-.13.07-.13.06-.07.04-.12.04-.08.02h-.16l-.28-.01-.07-.04-.07-.02-.06-.02-.05-.02h-.01q-.8-.6-1.25-1.49-.15-.3-.23-.62-.45-1.8-.53-3.7-.1-2.25.2-4.49l.55-4.52q.28-2.34.7-4.66.37-1.98.69-4.19l.63-4.55.58-4.38q.3-2.27.42-4.55.12-2.37.27-4.75.06-.9.22-1.8m4.6 3.9v.04-.03m1 3.14.21.33q.84 1.33 1.52 2.73a18 18 0 0 1 1.5 4.46q.07.53.17 1.05a160 160 0 0 0 1.15 5.45q.07 2.04.06 4.1-.02 4.35-1.3 8.53a7 7 0 0 0-.3 1.17 23 23 0 0 0-2.41 8.42l-.08-.2q-.5-1.18-.77-2.43-.32-1.37-.41-2.78l.02-.04.03-.04.03-.15v-.05l-.01-.02v-.03q.78-2.13 2.06-4.03.97-1.43 1.45-3.07.64-2.16.56-4.38a37 37 0 0 0-.42-4.45v.05q-.3-1.39-.43-2.8a21 21 0 0 0-.88-4.52 59 59 0 0 1-1.23-4.56q-.09-.39-.13-.78-.11-1-.4-1.96m-3.47 32.38q.45-.03.9-.12l.99-.16.31.07q.16.99.4 1.96a16 16 0 0 0 .96 2.83l.08.2.03.05.05.04.04.04.04.02.05.02.1.02-.1 1.22-.17-.08q-.97-.33-2.15-.44a7 7 0 0 0-2.44.17 3 3 0 0 1 .06-.57h.07l.05-.02.03-.03.03-.04a1 1 0 0 0 .04-.26q-.03-.45.1-.86a8 8 0 0 0 .2-.94l-.02-.05-.03-.04-.03-.03-.09-.02-.08.02-.04.02-.03.04v-.15l-.04-.08-.05-.08-.08-.05q.08-.3.13-.59.16-.93.27-1.88l.14-.01q.09-.03.15-.1zm-.09 3.28-.1.04a1 1 0 0 0-.12.3l-.05.9q0 .45.11.88.02 0 .05.03.05.03.1.02.09-.01.13-.07.06-.15.03-.33a4 4 0 0 1-.04-.78l.06-.65v-.02l.01-.03v-.06l.02-.06-.02-.06-.06-.07-.04-.03zm.85-.08-.02-.04-.03-.03-.04-.03-.04-.02h-.1l-.06.03-.05.05a1 1 0 0 0-.03.27l.02.77a4 4 0 0 0 .09.8l.03.03.03.03.04.02.05.02h.02l.07-.01.06-.04.04-.06a1 1 0 0 0 0-.24 5 5 0 0 1-.06-.77zm.71.07v-.02l-.01-.02-.01-.02-.02-.02-.02-.02-.03-.02h-.02l-.09-.01-.08.03-.05.06-.02.09.05.42v-.02.07l.02.06.05.38v.1q.04.26.04.5l.01.05.02.04q0 .03.03.04l.03.03.04.02h.1l.05-.02.03-.03.03-.04.03-.17q.06.58.47.96h.05q.07 0 .13-.05a.2.2 0 0 0 .05-.13 1 1 0 0 0-.09-.23q-.14-.23-.2-.48v-.02a2 2 0 0 1-.05-.43l-.04-1.25-.05-.06-.06-.03a.2.2 0 0 0-.14.02l-.06.07q-.05.18-.04.37l.03 1.14-.1-.81v.02-.03zm1.1-.37h-.1l-.06.03-.05.05q-.05.19-.03.39.05.6.14 1.17a6 6 0 0 0 .34 1.16h.08q.04 0 .07-.02l.07-.06a1 1 0 0 0 0-.35q-.14-.56-.23-1.12a8 8 0 0 1-.12-1.17l-.03-.03-.04-.03zm-7.17-3.44-.02-.01h-.02l-.02-.01h-.09l-.04.02-.04.03-.03.03-.02.04q0 .2.12.38.33.53.69 1.05l.84 1.08.06.01h.08l.07-.04.03-.06.02-.07a1 1 0 0 0-.21-.36 8 8 0 0 1-1.39-2.06l-.01-.02zm.32-2.69-.05.06a1 1 0 0 0 .06.53q.36.8.78 1.6.44.75.87 1.54l.01.02.03.03.04.03h.14q.04 0 .07-.05l.03-.05.02-.07a3 3 0 0 0-.24-.5 30 30 0 0 1-.85-1.47 8 8 0 0 1-.64-1.61l-.03-.04-.04-.03-.04-.02h-.1zm2.24.98-.02-.05-.1-.18-.13-.16-.02-.03-.01-.01-.01-.02-.25-.3q-.51-.6-.92-1.27a5 5 0 0 1-.6-1.51l-.05-.06-.06-.03h-.07l-.07.02-.07.07a1 1 0 0 0 .02.4q.25.76.69 1.44a13 13 0 0 0 1.08 1.45l-.01-.01.02.02.02.02.02.03.1.17a1 1 0 0 0 .2.18h.08q.06 0 .1-.05a.2.2 0 0 0 .06-.12M99.5 61.8h-.04l-.04.03-.05.04-.04.06q.08.31.25.61.55.97 1.02 1.97a18 18 0 0 1 .84 2.06h.08l.07-.02.07-.06q.02-.37-.13-.7-.4-.98-.85-1.94a29 29 0 0 0-1.05-2.01l-.04-.02-.04-.02zm1.27-.55a6 6 0 0 0-1.14-1.63h-.08l-.04.03-.04.02q0 .03-.03.04l-.01.02-.01.05v.05l.01.04.03.05q.14.12.24.27.32.5.59 1.03l.44.93.1.22a5 5 0 0 1 .34 1.43v.04l.03.04q0 .03.03.04l.03.03.04.02h.1l.05-.02.03-.03.04-.03q.03-.36-.06-.7-.25-1-.69-1.94m2.92-12.5-.04.03-.04.02-.03.04q.12 1.95.33 3.92l.02.22q.08 1.74.23 3.5l.27 3.5v1.96l.01.05.02.04.03.03.03.03.04.02h.1l.05-.02.06-.06.02-.7.05-.04q.05-1.27-.09-2.59v-.01l-.03-.69a106 106 0 0 0-.4-4.84l-.14-3.76-.02-.04-.05-.05-.06-.04h-.1l-.06-.43-.02-.04-.04-.02-.04-.03h-.1m-1.62-3.96-.03-.04-.04-.06-.06-.03h-.1l-.06.04-.05.05q-.15 1.3-.06 2.63.13 2.29.33 4.58l.37 4.58q.18 2.31.46 4.56.03.04.07.05.08.03.14-.01a.2.2 0 0 0 .1-.1q-.09-1.25-.21-2.5-.22-2.3-.4-4.6l-.38-4.53a32 32 0 0 1-.08-4.62m6.68 9.03-.07.07a9 9 0 0 0-.03 1q.04 1.95-.03 3.89a35 35 0 0 1-.38 4.02q0 .04.02.1l.07.06.06.02h.08l.06-.03q.2-.39.22-.84.18-1.98.23-3.96a96 96 0 0 0 .02-4.26l-.05-.06-.06-.03h-.05q-.04 0-.1.02m-2.38-3.39a.2.2 0 0 0-.08-.09l-.04-.02h-.07l-.1.03-.04.05q-.05.64 0 1.29a43 43 0 0 1-.47 9.31q0 .03-.04.04l-.02.01-.05.11-.04.36q-.02.2.14.32l.05.02a.2.2 0 0 0 .16-.04q.27-1.05.4-2.17.27-2.22.28-4.46 0-2.37-.07-4.74 0-.02-.02-.02m.25-3.7q.02.03.05.03l.05.02h.06l.05-.01.03-.02.05-.05.02-.07v-.07a5 5 0 0 0-.56-.56 8 8 0 0 1-1.57-1.73q-.64-.98-1.3-1.92l-.02-.01-.02-.02h-.14l-.06.05-.05.05-.01.07q.16.31.36.63.64 1 1.39 1.91.75.94 1.67 1.7m-.11-2.56h.02l.07-.03.04-.03.02-.04.03-.04a3 3 0 0 0-.32-.83q-.68-1.22-1.46-2.37a29 29 0 0 1-1.43-2.32h-.02l-.02-.02h-.11l-.04.02-.03.03-.03.03-.02.05q.09.38.33.74.77 1.13 1.51 2.27a16 16 0 0 1 1.33 2.48l.04.03.04.02zm-2.75-7.65-.05-.02-.05-.01h-.08l-.06.05-.04.06-.02.06q.14.3.36.56.69.83 1.41 1.65a24 24 0 0 1 1.43 1.76l.05.01h.09l.06-.05.05-.06.01-.07a2 2 0 0 0-.37-.58l-1.4-1.65zm-29.53 37.4-.08.04a.2.2 0 0 0-.07.12q-.07.4-.1.81 0 .45-.09.9l.01.06q0 .06.05.09l.08.05h.12l.05-.05a.4.4 0 0 0 .08-.18l.07-.8a6 6 0 0 1 .1-.9l-.03-.07-.05-.05-.07-.02zm-.47.02-.05.07q-.08.3-.12.63-.05.35-.21.67l-.01.06q0 .05.02.1l.07.07h.02q.04.02.1.01l.06-.01a.2.2 0 0 0 .09-.1q.13-.28.19-.58l.12-.84-.02-.05-.04-.03-.01-.02-.1-.02zm.88-.36a.3.3 0 0 0-.08.18q-.05.4-.05.83 0 .47-.09.94l.01.06q0 .05.05.09l.07.05h.05l.07-.01q.05-.01.06-.04a1 1 0 0 0 .09-.22q.05-.42.06-.86a8 8 0 0 1 .06-.94l-.03-.06-.05-.05-.07-.02h-.07zm1.29.08-.01-.02-.04-.06-.06-.04-.07-.01-.07.01-.07.06a.4.4 0 0 0-.06.18 7 7 0 0 1-.25 1.67l.01.05q0 .06.05.1l.08.04h.12l.05-.04a.2.2 0 0 0 .07-.12l.16-.86q.08-.46.09-.96m.7-.2-.02-.02a.2.2 0 0 0-.17 0l-.06.05a1 1 0 0 0-.07.29l-.1.8a6 6 0 0 0 0 .89q0 .03.04.05l.06.03h.03q.04.02.07 0 .04 0 .07-.03l.04-.05a.4.4 0 0 0 .04-.2v-.43l.03-.35.02-.14.1-.8-.02-.02-.02-.04-.01-.01zm.41-.25H77q-.06 0-.1.02l-.06.06a.1.1 0 0 0-.03.1q.04.35.03.7 0 .43-.12.83v.07l.05.08.08.05h.05l.07-.01.06-.04.06-.11a4 4 0 0 0 .05-1.68l-.04-.04zm4.73-2.57-.03-.03-.09-.03-.08.02a1 1 0 0 0-.2.28q-.26.64-.59 1.26l-.71 1.34-.02.07q0 .05.02.08a.2.2 0 0 0 .1.09h.08q.04 0 .07-.02.14-.14.22-.3.31-.64.66-1.27a12 12 0 0 0 .63-1.36l-.01-.07zm-.03-3.1v-.04l-.03-.06-.06-.05a.2.2 0 0 0-.14-.02l-.08.04-.3.9a15 15 0 0 1-.66 1.79q-.19.47-.42.93l-.5 1.06q0 .05.02.1l.07.07h.03l.09.02q.03 0 .06-.02.18-.25.31-.52a25 25 0 0 0 1.61-4.2m-.36-2.83v-.11l-.05-.05-.05-.04-.07-.01-.08.01q-.2.2-.31.49l-.85 1.9a12 12 0 0 0-.67 2.13q0 .05.05.09l.1.05.09-.01.07-.05.17-.52q.28-1.02.7-2 .44-.95.9-1.88m-.61-2-.05-.08-.06-.04h-.14l-.08.06q-.05.21-.13.42l-.63 1.76a9 9 0 0 1-.9 1.82v.07q0 .05.02.09l.07.06q.03.03.09.03.03 0 .07-.02.2-.17.31-.4.45-.87.8-1.78.36-.99.63-1.99m-6.74-17.58-.04-.04-.08-.04-.05-.01-.1.04-.12.1-.09.11v.14l.03.04q-.3 1.22-.5 2.5a57 57 0 0 0-.57 4.55q-.19 2.29-.23 4.58l-.1 4.58v.05l.03.04.02.03.04.04.04.01h.03q.03.01.07 0l.06-.03.05-.05q.1-1.45.1-2.92.06-2.34.16-4.67a50 50 0 0 1 1.25-9.05m4.86 4.67-.01-.02-.05-.05-.08-.02h-.06l-.08.05-.05.08a30 30 0 0 1 .73 3.97q.26 2.3.05 4.6a30 30 0 0 1-.8 4.71q0 .05.04.08l.08.05h.12l.06-.05q.6-2.1.83-4.28.25-2.31.05-4.62a25 25 0 0 0-.83-4.5m-3.13-3.05v-.03l-.02-.03-.01-.03-.01-.02-.02-.02-.03-.01-.05-.03h-.09l-.04.02-.05.02q-.25.72-.37 1.47a36 36 0 0 0-.43 4.57q-.06 2.3-.08 4.6 0 2.3.14 4.58a231 231 0 0 1 .26 4.62l.02.05.04.04.06.03h.1l.05-.02.04-.03a10 10 0 0 0 .01-1.76 84 84 0 0 1-.26-4.55q-.06-2.3-.08-4.6 0-2.27.15-4.52.15-2.2.67-4.35m2.01.68v-.03l-.02-.04-.03-.03-.03-.03-.05-.02h-.11l-.06.04q-.31 1.47-.26 3.01l.15 4.58q.06 2.29.06 4.58 0 1.15-.09 2.3t.17 2.23a.2.2 0 0 0 .24-.05q-.05-1.36 0-2.73.05-2.35 0-4.7l-.15-4.52q-.09-2.3.18-4.6m-.12-7.46-.04.01a3 3 0 0 0-.37.53 11.15 11.15 0 0 0-1.37 3.96l.03.09.04.03.03.02.05.02h.05q.03 0 .07-.03l.05-.04.14-.6q.22-1.01.62-1.96a15 15 0 0 1 .92-1.85v-.05l-.03-.04-.02-.04-.04-.03-.04-.02h-.09m-.93-2.31v-.03l-.01-.08-.04-.06-.04-.02-.08-.03q-.05 0-.09.02-.16.17-.28.4-.43.91-.76 1.87-.35 1-.77 2l.01.07q0 .05.05.08.03.04.08.05h.08l.08-.03q.13-.22.23-.46.36-.9.7-1.84.35-1 .84-1.94m-.2-2.2.02-.05v-.07q0-.04-.02-.07l-.03-.04-.08-.05h-.1q-.21.15-.37.38-.59.89-1.09 1.82-.52.98-1.15 1.92l-.01.06q0 .04.02.1.03.04.07.06l.09.02h.05a2 2 0 0 0 .39-.46q.57-.9 1.04-1.89.47-.95 1.17-1.74M81.6 1.02l.02-.03h-.85l-.05.21a38 38 0 0 0-.3 3.63q-.07 1.56.17 3.1.28 1.77.5 3.56l.05.76q.03 1.71.39 3.38a29 29 0 0 0 .95 3.47l1.17 3.41q.6 1.71 1.03 3.47.43 1.75.93 3.46.27.87.5 1.74.46 1.77 1.4 3.35.15.26.36.48a4 4 0 0 0 2.8 1.27l.3.03h.9q.4 0 .74-.18a1 1 0 0 0 .26-.43q.14-.52.18-1.08.06-.88.3-1.73.3-1.06.66-2.13l1.4-4.15a21 21 0 0 0 .91-4.2 7 7 0 0 1 .95-3.2q.85-1.53 1.26-3.23.4-1.8.98-3.56.44-1.32.61-2.68.25-1.78.24-3.6 0-1.8-.3-3.58-.14-.78-.18-1.57h-.98l.01.07q.3 1.55.44 3.1.19 1.89.07 3.78a18 18 0 0 1-.77 4.12q-.56 1.75-.97 3.53a10 10 0 0 1-.95 2.52 10 10 0 0 0-.79 1.85q-.45 1.46-.61 2.97-.08.6-.24 1.2l-1.19 4.25q-.57 1.65-1.18 3.3-.66 1.78-.67 3.7-.24.03-.5.03a6 6 0 0 1-1.6-.14q-.75-.16-1.32-.67-.78-1.17-1.22-2.5a127 127 0 0 1-1.08-3.48 71 71 0 0 1-.94-3.53 29 29 0 0 0-1.07-3.48 77 77 0 0 1-1.6-4.64 14 14 0 0 1-.6-3.46q-.07-1.8-.34-3.58l-.23-1.53a19 19 0 0 1-.22-3.58q.06-1.81.29-3.62 0-.1-.02-.18m3.2 72.02v.06l-.01.04z"/><path fill="#e0a192" d="M104.67 70.51q-.45.09-.9.12l-.12.13a.3.3 0 0 1-.15.09l-.14.01q-.12.95-.27 1.88-.05.3-.13.58l.04.03.03.03.06.08.05.13-.01.1.03-.04.04-.02.04-.01h.09l.04.01.03.03.03.04.02.05v.03q-.08.45-.2.91a3 3 0 0 0-.1.86q0 .14-.04.26l-.03.04-.03.03-.05.01-.04.01h-.03l-.04.26-.03.31q1.23-.3 2.45-.17a10 10 0 0 1 2.33.52l.1-1.22h-.05l-.06-.02-.1-.04-.03-.04-.05-.04-.03-.04-.08-.2v-.06q-.6-1.35-.96-2.78-.24-.97-.4-1.96l-.13-.03-.24-.05zm1.63 3.01h.05l.04.03q.03 0 .04.03l.03.03.02.04q0 .57.1 1.13.08.56.23 1.12a1 1 0 0 1 0 .35l-.07.06-.07.03-.08-.01-.03-.01a6 6 0 0 1-.31-1.15 13 13 0 0 1-.14-1.17q0-.2.03-.39l.05-.05a.2.2 0 0 1 .11-.04m-1.05.36v.02l.18 1.36-.03-1.14q-.01-.2.04-.37l.06-.07.07-.02h.07q.05 0 .06.03l.05.06.02.04.02 1.21a2 2 0 0 0 .05.44v.01q.06.26.2.48.07.1.1.23 0 .07-.06.13a.2.2 0 0 1-.13.05h-.05a1.4 1.4 0 0 1-.47-.96q0 .1-.03.17 0 .03-.03.04l-.03.03-.05.02h-.1l-.04-.02-.03-.03-.03-.04-.02-.04v-.05l-.04-.5-.02-.1-.05-.38v-.1l-.01-.03v.02l-.05-.42q0-.06.02-.1l.05-.05.08-.03h.08l.03.01.03.02.02.02.02.02.01.02zm-.73-.09.02.04.02.78q0 .39.06.77.03.12 0 .24l-.04.06-.06.04-.07.01h-.02l-.05-.02-.04-.02-.03-.03-.03-.04v-.02a4 4 0 0 1-.1-.77q0-.38-.02-.77 0-.14.04-.27l.05-.05.06-.03h.1l.04.02.04.03zm-.93.16.1-.04.08.01.04.03.03.03.05.1-.02.15v.02l-.07.65q-.02.39.04.78.02.18-.03.33a.2.2 0 0 1-.12.07q-.06 0-.11-.02l-.05-.03a3 3 0 0 1-.1-.88q0-.45.04-.9a1 1 0 0 1 .12-.3m-29.5-3.36h-.01a11 11 0 0 1-.86 2.84l-.04.05-.05.04-.05.01q.22 1.52.2 3.06.63-.39 1.44-.48a9 9 0 0 1 2.99.17 5 5 0 0 1-.38-1.62q-.06-.69-.17-1.38a1 1 0 0 1 .02-.39l.02-.04.03-.04.02-.02-.14-.52q-.14-.47-.24-.95l-.06-.02a2.6 2.6 0 0 0-1.1-.63 3 3 0 0 0-1.24-.08 1 1 0 0 1-.39 0m2.9 2.61.11.04.06.07a4 4 0 0 1-.07 1.65q0 .06-.06.11l-.06.04h-.12l-.08-.04-.04-.08-.01-.07q.1-.4.12-.82 0-.36-.03-.72 0-.05.03-.09l.07-.06zm-.37.24.02.02q.02 0 .03.02h.01l.02.05.01.03-.03.4-.06.39-.02.14-.03.35v.44a.4.4 0 0 1-.04.19l-.04.05-.07.03q-.03.02-.07 0h-.03l-.06-.03-.04-.05-.03-.07v-.02q-.01-.4.04-.8l.09-.8q0-.15.07-.29l.06-.05a.2.2 0 0 1 .17 0m-.7.2.02.02a8 8 0 0 1-.32 1.94l-.06.03-.07.01h-.04l-.08-.05a.1.1 0 0 1-.05-.09v-.05a11 11 0 0 0 .3-1.85l.07-.06.07-.01.07.01q.03 0 .06.04.03.02.04.06m-1.35.12q0-.1.08-.18l.08-.05h.07q.04 0 .07.02l.05.05.03.06v.02q-.05.45-.06.92-.02.44-.06.86-.02.13-.09.22l-.06.04-.07.01h-.05l-.07-.05a.1.1 0 0 1-.05-.1l-.01-.05q.08-.47.09-.94 0-.42.05-.83m-.85.25.05-.07.1-.04q.07 0 .1.02l.02.02.06.08.02.05-.14.79q-.05.3-.2.58a.2.2 0 0 1-.08.1l-.07.01h-.09l-.02-.01-.07-.07-.02-.1v-.06q.18-.32.22-.67zm.44-.05.08-.04h.07l.07.02.05.05.03.07v.03q-.08.42-.1.86l-.07.8q0 .11-.08.2l-.06.03-.07.01h-.04l-.08-.05a.1.1 0 0 1-.05-.09v-.05q.06-.45.08-.9.03-.42.1-.82 0-.08.07-.12"/><path fill="#ca6a40" d="m107.46 38.58-.21-.33q.27.97.39 1.96.04.39.13.78.52 2.3 1.23 4.56.7 2.2.88 4.52a20 20 0 0 0 .42 2.7q.34 2.16.43 4.5.08 2.23-.56 4.38-.48 1.65-1.45 3.07a18 18 0 0 0-2.06 4.06v.17l-.07.13q.1 1.41.4 2.78.3 1.26.78 2.43l.08.2.14-1.15q.52-3.82 2.26-7.27l.08-.28v-.08q.01-.12.23-.8 1.28-4.2 1.3-8.54 0-2.06-.06-4.1a179 179 0 0 1-1.33-6.5q-.45-2.32-1.49-4.46-.68-1.41-1.52-2.73m-5.42-10.07q-.14 1.35-.39 2.7-.16.89-.22 1.8-.15 2.36-.27 4.74a57 57 0 0 1-.42 4.55q-.3 2.19-.58 4.38l-.63 4.55q-.32 2.2-.68 4.2-.43 2.31-.7 4.65l-.57 4.52q-.3 2.25-.2 4.49.09 1.9.54 3.7.08.32.23.62a4 4 0 0 0 1.31 1.5l.06.03.07.02.07.04h.11l.17.01h.16l.2-.06.07-.04.13-.06.13-.07.07-.02q.09-.1.2-.18.17-.16.35-.28.2-.15.42-.22h.14a7 7 0 0 0 .73-2.5l.1-1q.25-2.05.22-4.11v-1.14l-.1-.4v-.06l.05-.1.11-.14.1-.04.17-.02q.06 0 .1.04l.14.1q.27 1.75.17 3.55l-.15 1.74q.63-.18 1.29-.28a5 5 0 0 1 1.13-.06l-.01-.09q-.07-.45.05-.89l.03-.03.03-.04q.54-1.95 1.75-3.64 1.36-1.89 1.9-4.12.55-2.25.4-4.52-.16-2.3-.6-4.54-.2-1.1-.34-2.2a25 25 0 0 0-.97-4.5 43 43 0 0 1-1.13-4.43l-.42-2.08q-.31-1.05-.6-1.9l-.24-.7-.75-1.06a15 15 0 0 1-1.26-2.06q-1.05-2.1-1.67-4.35m1.68 7.99.05.02a193 193 0 0 0 2.79 3.36q.24.27.37.58a.2.2 0 0 1-.05.13l-.07.04-.03.01-.1-.01-.05-.04-.04-.04q-.63-.86-1.35-1.68l-1.41-1.65a3 3 0 0 1-.36-.56q0-.03.02-.06 0-.05.04-.06l.06-.04.03-.01h.05zm2.82 7.66h-.07l-.04-.02-.04-.03-.04-.06v-.02q-.55-1.25-1.29-2.4l-1.51-2.27a2 2 0 0 1-.33-.74q0-.03.02-.05l.03-.03.03-.03.04-.02h.11l.02.01.02.01.02.01.02.02q.65 1.17 1.4 2.3.77 1.14 1.45 2.36.23.4.32.83l-.03.04-.02.04-.04.03zm.14 2.6-.05-.02a12 12 0 0 1-1.67-1.7 21 21 0 0 1-1.75-2.55l.01-.07.05-.05.06-.05h.14l.02.02h.01q.67.96 1.3 1.93a8 8 0 0 0 1.58 1.73q.3.26.56.56a.2.2 0 0 1-.02.14l-.05.05-.03.02-.05.01h-.06zm-.33 3.63.03.04v.02q.1 2.37.08 4.74 0 2.25-.27 4.46a16 16 0 0 1-.41 2.17l-.08.04h-.08l-.05-.02a.3.3 0 0 1-.14-.32l.04-.36q0-.06.05-.1l.02-.02.04-.04.02-.05a44 44 0 0 0 .44-9.26 9 9 0 0 1 .01-1.29l.05-.05.09-.04h.07l.04.03zm2.35 3.5.06-.07.1-.02h.04l.06.03.05.06.02.04q.03 2.1-.04 4.22a65 65 0 0 1-.23 3.96q-.03.45-.22.84l-.06.03h-.08l-.06-.02-.07-.07-.02-.09v-.04q.3-1.98.38-3.98.07-1.95.03-3.9 0-.5.03-1m-6.65-9.14.03.04q-.13 2.31.08 4.62l.38 4.54q.18 2.28.4 4.58.12 1.26.2 2.51a.2.2 0 0 1-.09.1.2.2 0 0 1-.14.01l-.07-.05q-.28-2.25-.46-4.56l-.37-4.58a143 143 0 0 1-.33-4.58 16 16 0 0 1 .06-2.63l.05-.05.06-.03h.1q.03 0 .06.02zm1.6 4.03.05-.02h.1l.04.02.04.02.02.04.03.04.03.4.05-.01h.05l.06.04.05.05.02.04q.06 1.88.15 3.76l.02.2a108 108 0 0 1 .4 5.34q.15 1.3.08 2.6l-.05.03v.7l-.07.06-.05.02h-.1l-.04-.02-.03-.03-.03-.03-.02-.04v-.05l-.01-1.96-.27-3.5q-.14-1.76-.23-3.5l-.02-.22a89 89 0 0 1-.33-3.92l.03-.04zm-4.01 10.84q.7.69 1.14 1.63.45.93.7 1.93.08.36.05.7l-.04.04-.03.03-.05.01-.05.01h-.05l-.08-.05-.02-.04-.02-.04-.01-.04q0-.38-.1-.73a5 5 0 0 0-.24-.7l-.1-.22q-.15-.36-.44-.93-.27-.53-.59-1.03-.1-.16-.24-.27 0-.03-.03-.05l-.01-.04v-.05l.01-.05v-.02l.04-.04.08-.04.05-.01zm-.17 2.19.04-.01h.05l.04.02.04.02.02.01q.55.98 1.03 2 .45.96.85 1.93.15.35.13.7l-.07.07-.07.03-.08-.01-.03-.02a18 18 0 0 0-.81-2.04 27 27 0 0 0-1.02-1.97q-.17-.3-.25-.6l.04-.07.05-.04zm2.25 6.52.02.05q0 .08-.06.12a.2.2 0 0 1-.1.06h-.08a1 1 0 0 1-.2-.19l-.1-.17-.02-.03-.02-.02-.02-.02v-.01q-.6-.68-1.07-1.43a7 7 0 0 1-.69-1.44 1 1 0 0 1-.02-.4l.07-.07.07-.03h.07l.06.04.05.06.01.02q.18.78.6 1.49a9 9 0 0 0 1.15 1.56l.02.03.01.01.02.03.12.16q.07.09.11.18m-2.27-.87q.02-.04.05-.06l.06-.03h.1l.08.05.03.04v.02q.24.82.64 1.59.41.76.85 1.48.15.23.24.49 0 .03-.02.07 0 .03-.03.05l-.07.05h-.14l-.04-.03-.03-.03-.01-.02-.87-1.55q-.42-.78-.78-1.6a1 1 0 0 1-.06-.52m-.3 2.62.06.04q.29.54.62 1.07.34.53.77.99.15.16.21.36 0 .03-.02.07l-.03.06-.1.05h-.05l-.06-.02-.04-.03-.04-.04-.76-1.01q-.36-.52-.69-1.05a1 1 0 0 1-.12-.38l.03-.04.02-.03.08-.05h.11zm-25.7-32.86-.2.28a14 14 0 0 0-2 3.89q-.69 2.1-1.27 4.2a38 38 0 0 0-.97 4.67q-.3 2.06-.46 4.13-.1 1.44-.04 2.88.1 2.5.65 4.91.05.2.06.4.61 1.98 1.53 3.89.9 1.88 1.56 3.86.33.98.55 1.98.2-.66.38-1.34.6-2.24-.42-4.37-.4-.85-1-1.9a11 11 0 0 1-1.37-4.35 38 38 0 0 1-.15-2.48q-.05-2.26.15-4.51l.4-4.6q.2-2.25.58-4.5a34 34 0 0 1 2.02-7.04m3.53-5.97q-.75 1.73-1.55 3.43A60 60 0 0 0 73.6 39q-.38 1.02-.7 2.08a26 26 0 0 0-.9 4.22q-.1.7-.23 1.41v-.01.03h-.01v.03q-.36 2.4-.49 4.84l-.1 1.55q-.2 2.55-.14 5.11.06 2.17.7 4.24.45 1.47 1.25 2.8a8.3 8.3 0 0 1 1.18 4.58q.68-.18 1.38-.02.62.15 1.16.46-.11-.8-.12-1.62v-.06q-.14-.45-.15-.91-.03-.73.05-1.46a3 3 0 0 1 .13-.55l.03-.03.04-.03.04-.03.04-.02.05-.02H77l.04.02.09.05.03.03.03.03.05.08.02.05a11 11 0 0 0 .17 3.19l-.06.12.16 1.31q.05.55.15 1.1.28 1.46 1 2.72.1.16.28.22 1.9.69 3.24-.86.42-2.45.37-4.94a160 160 0 0 0-.16-5q-.12-2.48-.44-4.93-.33-2.45-.7-4.9a27 27 0 0 1-.28-2.66 42 42 0 0 0-.43-3.92l-.71-4.43a83 83 0 0 1-.55-4.04q-.27-2.5-.34-5.03-.03-1.3-.16-2.6l-.34-3.4q-.72 1.73-1.48 3.45m-.43 4.16q0 .02-.02.04-.7.78-1.17 1.74-.47.97-1.04 1.9a2 2 0 0 1-.39.45h-.11l-.03-.02-.07-.06-.02-.1.01-.06q.63-.95 1.15-1.92.5-.94 1.09-1.82.15-.23.38-.38h.09l.08.05.03.04q.03.03.02.07zm.18 2.22v.03q-.48.94-.85 1.94-.33.94-.7 1.84-.09.24-.22.46l-.08.03h-.08l-.08-.05-.05-.08v-.07q.41-1 .76-2 .33-.96.76-1.87.12-.23.28-.4l.09-.02.08.03.08.08zm.89 2.35.04-.01h.09l.04.02.04.03.02.04.02.04v.1q-.52.86-.9 1.8a12 12 0 0 0-.77 2.56l-.05.04-.07.03h-.05l-.05-.02-.03-.02-.04-.03-.02-.04-.02-.05v-.02a11 11 0 0 1 1.75-4.47m.16 7.42v.03q-.27 2.28-.18 4.6.09 2.24.15 4.52.05 2.34 0 4.69-.05 1.37 0 2.73a.2.2 0 0 1-.15.07q-.04 0-.1-.02a7 7 0 0 1-.16-2.23q.1-1.15.1-2.3 0-2.29-.07-4.58l-.15-4.58q-.05-1.54.26-3.01l.06-.04h.11q.03 0 .05.02l.03.03q.02 0 .03.03zm-2.02-.68v.03a26 26 0 0 0-.66 4.35 64 64 0 0 0-.15 4.52q.02 2.3.08 4.6.08 2.27.26 4.55.08.9 0 1.76l-.05.03-.05.02h-.13l-.03-.03-.04-.04-.02-.05-.01-.05q-.1-2.28-.25-4.57a63 63 0 0 1-.14-4.58q.01-2.3.08-4.6t.43-4.57q.12-.76.38-1.47l.04-.02.04-.02h.09l.08.04.02.02.01.02.01.03zm3.13 3.06.01.02q.62 2.22.83 4.5.2 2.31-.05 4.62a27 27 0 0 1-.83 4.28l-.06.04q-.03.02-.06.01h-.06l-.08-.05-.04-.08v-.07q.57-2.29.8-4.63a22 22 0 0 0-.25-6.06 30 30 0 0 0-.53-2.52l.05-.08.08-.05h.06q.05 0 .08.02zM74 45.09l.04.04a52 52 0 0 0-1.25 9.05 158 158 0 0 0-.15 4.67q-.03 1.47-.1 2.92l-.06.05-.06.03h-.1l-.04-.01-.04-.04-.04-.07-.01-.05.1-4.58q.03-2.29.23-4.58a57 57 0 0 1 1.05-7.1l-.02-.04v-.04l.01-.05.09-.1.12-.11.1-.04h.05l.05.03zm6.77 17.6v.02a22 22 0 0 1-.63 1.99q-.34.9-.79 1.78-.12.23-.3.4l-.08.02q-.05 0-.1-.03l-.06-.06-.03-.09.02-.07q.54-.86.89-1.82l.76-2.18.08-.06h.14l.06.04zm.63 2v.02q-.48.93-.9 1.88-.43.98-.71 2l-.17.52-.07.05h-.11l-.08-.04a.2.2 0 0 1-.05-.1v-.05q.23-1.06.67-2.07l.85-1.9q.12-.28.3-.49l.1-.01.06.01q.03 0 .05.04l.04.05zm.34 2.81.01.05a21 21 0 0 1-1.92 4.7l-.06.03-.1-.01-.02-.01-.07-.07-.02-.1.01-.05.5-1a14 14 0 0 0 .68-1.61q.21-.55.39-1.12l.3-.9.08-.04h.07q.04 0 .07.02l.06.05zm0 3.11.09.09v.1q-.27.69-.62 1.33-.34.63-.66 1.27-.09.16-.22.3l-.07.02h-.08l-.03-.02-.07-.07-.02-.08q0-.04.02-.07l.71-1.34q.33-.6.59-1.26.06-.17.2-.28l.08-.02z"/><path fill="#fff" d="m80.72 1.21.05-.21h-6.88a51 51 0 0 1 .41 8.72q-.08 3.61.37 7.2l.03.02.07.09.05.1.01.08-.06.23-.02.09-.02.03-.12.4q1.08.71 2.23 1.35 1.42.79 2.97 1.31.53.18.89.56a1 1 0 0 1 .03.22l-.05.2a.4.4 0 0 1-.15.16 100 100 0 0 0 1.58 4.33l.08.2.22.55q.08.16.32.9a32 32 0 0 0 2.84 6.03q1.2 2 2.82 3.7.55.55 1 1.17h.72q.51.29.87.67 1.1-1.32 2.06-2.8a67 67 0 0 0 2.09-3.42q.43-.78.76-1.6 1.28-3.25 1.65-6.73a9 9 0 0 0 .17-1.44l-.15.02a.5.5 0 0 1-.24-.16.4.4 0 0 1-.09-.26v-.11l.1-.2.03-.04a12 12 0 0 0 3.87-2.66q1.5-1.55 3.2-2.9.19-.15.4-.25.94-3.6-.06-7.23a17 17 0 0 1-.18-8.53h-4.71q.05.78.18 1.57.3 1.78.3 3.59t-.24 3.6q-.18 1.36-.6 2.67a43 43 0 0 0-1 3.56 12 12 0 0 1-1.25 3.23 7 7 0 0 0-.95 3.2q-.03.45-.1.89a21 21 0 0 1-1.1 4.18L94 30.77q-.36 1.06-.67 2.13a9 9 0 0 0-.3 1.73q-.03.55-.17 1.08a1 1 0 0 1-.26.43q-.35.17-.74.17l-.9.01q-.15 0-.3-.03a3.9 3.9 0 0 1-3.16-1.75 13 13 0 0 1-1.4-3.35l-.5-1.74q-.51-1.71-.93-3.46a39 39 0 0 0-1.03-3.47q-.6-1.7-1.17-3.41a29 29 0 0 1-.95-3.47 19 19 0 0 1-.4-3.38q0-.37-.05-.76-.2-1.8-.49-3.56a16 16 0 0 1-.18-3.1q.07-1.81.31-3.63m.9-.21-.02.03q.03.08.02.18a39 39 0 0 0-.3 3.62q-.04 1.8.23 3.58l.23 1.53q.27 1.78.34 3.58.08 1.72.6 3.46a69 69 0 0 0 1.6 4.64q.64 1.71 1.07 3.48.42 1.77.94 3.53.51 1.74 1.08 3.48.44 1.33 1.22 2.5.58.5 1.32.67a6 6 0 0 0 2.1.1q.01-1.9.67-3.7.6-1.64 1.18-3.3.1-.29.24-.8l.95-3.44q.17-.6.24-1.2.16-1.52.61-2.97.3-.96.8-1.85a10 10 0 0 0 .94-2.52q.41-1.78.97-3.53a16 16 0 0 0 .77-4.12q.11-1.9-.07-3.77A35 35 0 0 0 98.9 1zm23.64 16.62h-.06a29 29 0 0 0-2.97 2.72 13 13 0 0 1-3.65 2.7 28 28 0 0 1-1.63 8.55 15 15 0 0 1-2.03 3.8 364 364 0 0 0-3.39 4.67q.38.7.44 1.63.16 2.31-.14 4.62l-.3 2.44q-.2 4.26.58 8.46.5 2.76 1.28 5.46 1.2 4.22 1.84 8.56.66 4.4 1.49 8.8a17 17 0 0 1 .01 6.32 40 40 0 0 0-.62 9.25q.08 1.5-.06 2.98h11.8q.78-3.84.26-7.74a36 36 0 0 1-.23-2.3q-.21-3.2-.32-6.4a53 53 0 0 1 .03-4.58l-.03.01-.1-.01-.1-.06-.1-.05-.08-.06a6 6 0 0 1-.94-.26 9 9 0 0 0-1.9-.11 4 4 0 0 0-1.4.25q-.24.1-.5.1a1 1 0 0 1-.2-.1 1 1 0 0 1-.24-.3l-.02-.1v-.1q0-.08.03-.15l.02-.04q0-.03.03-.04l.03-.05q.02 0 .03-.02l.03-.2q.02-.18.09-.33a12 12 0 0 1 .06-1.23l-.15.12-.1.03h-.17l-.06-.03-.02-.02-.1.07q-.16.08-.28.2l-.35.3-.04.02-.05.02-.09.04-.08.04.02-.01-.02.01a1 1 0 0 1-.34.15 2 2 0 0 1-.46.1q-1.5-.17-2.3-1.53a6 6 0 0 1-.72-2.02q-.33-2.25-.31-4.54 0-1.11.14-2.23.25-2.27.47-4.54.21-2.3.66-4.56t.76-4.5l.62-4.55.62-4.56q.3-2.27.44-4.56l.24-4.59q.11-2.29.55-4.54.28-1.45.28-2.93l.04-.05q0-.03.03-.05l.05-.05.05-.04.02-.01.02-.03.03-.03.07-.07.03-.03.1-.04h.18l.1.04.03.03.04.03.06.07.01.04.02.05q.3 2.28 1.09 4.45a17 17 0 0 0 1.77 3.54l.02-.07.02-.04q0-.03.03-.05l.03-.03.07-.06.05-.02.04-.02h.15l.13.04.04.03.03.02.03.04.03.04q.34 1.02.66 2.06l.59.88q1.23 1.87 2.33 3.82.55.99.94 2.05a22 22 0 0 1 1.2 5.04l-.01-.23a16 16 0 0 1-.04-1.14 40 40 0 0 0-.88-3.95q-.28-1-.51-2l-.1-.43-.05-.05-.08-.16-.16-1.05-.45-2 .08-.13v-.01q-.3-1.6-.66-3.2-.38-1.6-.73-3.21a28 28 0 0 1-.66-5.08l.08-.09a23 23 0 0 0-.76-3.3 49 49 0 0 0-1.4-4.03M72.48 26.5l.02.03q-.02 4.41-1.3 8.75-.68 2.24-1.04 4.53-.56 3.59-1.25 7.14l.25-1.01q.59-2.22 1.3-4.41.6-1.9 1.63-3.6a40 40 0 0 1 2.22-3.34q.2-.27.37-.57a2 2 0 0 1 .37-.45l.04-.02.04-.02 1.01-2.17q.97-2.1 1.82-4.23.06-.16.18-.28l.05-.03.06-.02.11-.02-.04-.6.03-.05q0-.03.03-.05l.05-.04.05-.04.06-.02.06-.02h.12q.05 0 .06.02l.06.02.05.04.05.04.03.05.03.06.02.06q.27 2.28.49 4.58.15 1.63.2 3.27a51 51 0 0 0 .3 4.6q.28 2.47.7 4.93.4 2.28.78 4.58.3 1.76.18 3.56.45 1.86.65 3.78.08.78.2 1.45.2 1.24.31 2.5.2 2.5.35 5a73 73 0 0 1 .02 7.72 4 4 0 0 1-.59 2 2 2 0 0 1-.56.59q-1.07.71-2.34.67a2.8 2.8 0 0 1-1.61-.68q.08.61.3 1.19.18.45.27.89v.05l-.02.05q0 .03-.03.05l-.05.08-.13.08-.05.02a9 9 0 0 0-2.26-.43 6 6 0 0 0-2.1.28 3 3 0 0 0-.72.37l-.02.05-.02.05-.05.08q-.1 1.48-.27 2.97-.45 4.17-.73 8.36a32 32 0 0 0 .81 9.64h11.45a7 7 0 0 1-.02-1.98q.1-.77.01-1.56a148 148 0 0 0-1.6-10.14 3 3 0 0 1-.09-.73q0-.08.03-.14a.5.5 0 0 1 .27-.23l.1-.47q.06-.3.09-.63 0-.23.1-.44.43-3 .93-5.98.53-3.18.99-6.37a47 47 0 0 1 .45-2.66 166 166 0 0 1 1-7.3l.23-1.26q-.01-.1.1-.8.77-4.29 1.13-8.6.09-1-.05-2.03-.13-1.08-.22-2.18-.16-2.2.05-4.4a4 4 0 0 1 .38-1.35l.19-.27a45 45 0 0 1-3.52-4.44 22 22 0 0 1-2.8-5.56 47 47 0 0 0-.95-2.59l-.98-2.42a9 9 0 0 1-.6-2.32l.04-.07q-1.38-.5-2.7-1.13-1.44-.68-2.7-1.63l-.77 2.67a42 42 0 0 0-1.1 4.93m12.31 46.61v.04zM14 57.67a8 8 0 0 1 8-8h9a8 8 0 0 1 8 8v9a8 8 0 0 1-8 8h-9a8 8 0 0 1-8-8z"/><path fill="#000" d="m28.78 50.23-.37.01a1 1 0 0 0-.29.1l-.37.22-.37.2a2.6 2.6 0 0 1-1.22.37l-.38.01-.37.01q-.45.02-.92-.05l-.37-.04-.38-.06-.81-.13-.38-.08-.37-.07-.09-.03q-.22.24-.54.37c-.33.1-.64.08-.9.02l-.77-.19h-.15l-.36.15-.35.14q-.28.11-.54.27l-.33.2-.34.19-.67.4-.35.2-.3.17-.07.4-.08.41q-.09.55-.33 1.03l-.17.33-.17.32q-.1.23-.17.47l-.19.72q-.12.47-.34.92l-.19.37-.14.26.16.3.22.37q.37.66.22 1.43l-.08.38-.07.37q-.08.41-.2.83l-.22.75.01.04.18.37.19.38c.27.56.23 1.16-.07 1.68l-.22.38-.16.25.15.26.21.37q.4.73.17 1.54l-.11.4-.11.34.18.3.2.33q.31.5.42 1.07l.08.4.06.33.31.17.36.2q.39.2.71.4l.32.2.3.19q.56.34.88.89l.22.37.23.36.03.04v.01l.38.12.39.1q.2.08.43.07l.4-.01.39-.02q.45-.01.9.02l.76.08q.03.01.16-.05l.38-.2.37-.21q.5-.28 1.07-.27l.4.05.37.08.37.09q.23.05.47.03l.37-.01.38-.02q.3-.02.63-.08l.75-.14c.51-.1 1 .02 1.43.26l.37.21.3.18.25-.12.36-.17q.64-.3 1.34-.2l.39.05.4.05q.21.03.42-.01l.4-.09.32-.08.2-.35.2-.38q.24-.46.56-.84l.23-.27.23-.28q.2-.24.37-.49l.2-.3.6-.9.19-.3.2-.32q.16-.24.28-.53l.16-.36.14-.33-.15-.36-.15-.39a3 3 0 0 1-.25-1.07l-.02-.37-.02-.38c-.03-.52.15-.99.42-1.38l.27-.37.23-.34-.1-.27-.12-.37a2.4 2.4 0 0 1-.08-1.27l.07-.38.08-.37v-.03q0 0-.03-.07l-.39-.75a3 3 0 0 1-.32-1.17l-.01-.73-.04-.68-.03-.36-.02-.35-.05-.75-.03-.38-.03-.39a3 3 0 0 0-.1-.56l-.12-.39-.1-.36-.36-.19-.36-.2q-.38-.2-.72-.4l-.32-.2-.32-.18q-.52-.33-.86-.82l-.25-.35-.11-.15-.2.05-.42.1q-.67.19-1.34-.01l-.72-.24-.71-.22-.38-.1-.37-.12q-.23-.07-.43-.06zm-7.67-1.6c.04-.05.12-.16.25-.25.06-.05.2-.16.42-.2.27-.05.61 0 .88.25a1 1 0 0 1 .26.4h.03l.37.08q.35.06.69.1l.37.06.38.05q.3.05.58.03l.75-.01q.1 0 .29-.1l.37-.22.38-.22a2.6 2.6 0 0 1 1.21-.36h.38l.37-.02q.56-.01 1.07.14l.38.11.37.12.76.23.35.12.36.12c.03 0 .1.02.23-.02l.86-.22.46-.05q.24 0 .5.1c.34.11.6.34.77.59l.25.34.26.35q.16.21.27.27l.32.2.32.19.63.35.36.2.37.19q.72.39.97 1.18l.1.38.11.4q.15.47.18.97l.03.38.03.38.05.75.03.36.03.36.04.76.01.74q0 .1.1.3l.39.75q.34.66.2 1.41l-.15.75q-.01.1.02.23l.13.38.13.37c.2.6.06 1.19-.26 1.65l-.53.75-.07.1v.02l.05.75q0 .2.1.44l.16.38.15.38q.3.75-.01 1.52l-.16.35-.15.36q-.2.42-.43.8l-.2.31-.2.32-.42.62-.2.3-.2.3q-.22.34-.5.67l-.23.28-.23.27q-.16.18-.32.49l-.2.37-.2.38c-.26.5-.7.86-1.27.99l-.78.17q-.57.12-1.15.05l-.4-.07-.4-.05a.3.3 0 0 0-.18.03l-.36.17-.37.17c-.56.27-1.15.22-1.66-.07l-.75-.44-.06-.02-.75.14q-.45.07-.88.1l-.75.04q-.53.04-1.03-.08l-.75-.17-.05.02-.37.21-.38.2q-.6.35-1.33.3l-.38-.05-.38-.03q-.3-.05-.63-.03l-.78.03a3 3 0 0 1-1.1-.14l-.76-.23q-.76-.25-1.16-.92l-.22-.36-.23-.37a1 1 0 0 0-.2-.23l-.62-.37-.65-.37-.35-.2-.36-.2q-.76-.42-.94-1.28l-.07-.4-.08-.4a1 1 0 0 0-.15-.39l-.42-.67a1.9 1.9 0 0 1-.2-1.54l.12-.39.11-.38-.2-.38-.21-.37a1.7 1.7 0 0 1 0-1.74l.22-.37.18-.3-.14-.27-.18-.38a2 2 0 0 1-.13-1.46l.22-.75q.1-.34.16-.67l.08-.37.07-.38q0-.02-.02-.07l-.2-.37-.22-.38a1.8 1.8 0 0 1-.03-1.67l.18-.37.19-.36q.14-.3.2-.53l.09-.35.1-.36q.1-.45.33-.89l.33-.66q.1-.16.15-.46l.07-.42.08-.42.11-.4q.23-.56.79-.9l.34-.2.36-.21.67-.4.32-.2.34-.2q.4-.22.82-.4l.35-.14.36-.14q.67-.25 1.35-.1l.4.1.08.03.16-.25q.05-.1.13-.2"/><path stroke="#000" stroke-linecap="round" stroke-width="2" d="M21 66.8c1.06 2.94 4.26 4.94 5.23 3.25 1.62-2.86 5.2-14.66 5.77-16.38"/></svg>