<svg xmlns="http://www.w3.org/2000/svg" width="134" height="100" fill="none" viewBox="0 0 134 100"><g clip-path="url(#a)"><rect width="134" height="100" fill="#eee" rx="15"/><mask id="b" width="57" height="23" x="12" y="17" fill="#000" maskUnits="userSpaceOnUse"><path fill="#fff" d="M12 17h57v23H12z"/><path d="M20.2 37.5q-1.5 0-2.9-.6-.3.4-1 .4-.4 0-1-.4-.3-.3-.3-1V22.3q0-.8.4-1.4.4-.7 1.2-.7 1.1 0 1.1 1.2v5l1.5-.6q.8-.2 1.4-.2a5 5 0 0 1 4 1.8q1.5 1.7 1.5 4.2 0 2.4-1.6 4.2a6 6 0 0 1-4.3 1.8m.4-9.3-1.3.3-1.6 1V34q1.5.6 2.5.6a3 3 0 0 0 2.2-1q1-.8 1-2.2t-.8-2.4q-.8-.9-2-.9m16.8 9.5q-.4 0-1.5-1l-1.8.6-1.3.3q-2.6 0-3.8-1.4-1.4-1.4-1.3-4.1a6 6 0 0 1 1.9-4.5 6 6 0 0 1 4.6-1.8 6 6 0 0 1 2.3.6q1.6.6 1.6 1.6 0 .3-.2.7l-.2 1a19 19 0 0 0 .3 4.5l.9 2.2q0 .6-.5 1-.4.3-1 .3m-2.6-7.4.2-1.7-.7-.2q-1.4 0-2.6 1.1-1 1.2-1 2.6t.5 2.2q.5.7 1.5.7a4 4 0 0 0 2.4-.8zm14.6-1q0 1.6-1.5 1.6t-1.4-1.4v-1q-2.4.3-3.5 2.4v5.4q0 .6-.4 1t-1 .4-1-.4-.4-1v-9q0-.6.4-1t1-.4q1.2 0 1.4 1.2 2-1.4 4.2-1.4t2.2 2.8zM60 37.4q-.9 0-1.3-.8l-1.6-2.3-1.7-2.2-1.4 1-.1 2.8q0 .7-.5 1-.4.5-1 .5-1.5 0-1.5-1.8l.2-5.1v-9.2q0-.7.4-1.1t1.1-.4 1 .4.5 1v8.2q1.4-1 4.4-4a1.5 1.5 0 0 1 2.2 0q.4.3.4 1 0 .5-.4.9-1.3 1.5-3 3l2.2 2.8q1.5 2.2 1.6 3 0 .4-.4 1-.5.3-1.1.3m5.3-13.3q-.7 0-1.2-.5t-.5-1.1.5-1.1 1.2-.5 1.2.5.5 1.1-.5 1.1-1.2.5m.9 7.9v3.9q0 .6-.3 1-.5.4-1.1.4t-1-.4-.5-1v-6.3l.1-2.4q0-.7.5-1 .3-.5 1-.5t1 .5q.6.3.5 1l-.1 2.4z"/></mask><path fill="#000" d="M20.2 37.5q-1.5 0-2.9-.6-.3.4-1 .4-.4 0-1-.4-.3-.3-.3-1V22.3q0-.8.4-1.4.4-.7 1.2-.7 1.1 0 1.1 1.2v5l1.5-.6q.8-.2 1.4-.2a5 5 0 0 1 4 1.8q1.5 1.7 1.5 4.2 0 2.4-1.6 4.2a6 6 0 0 1-4.3 1.8m.4-9.3-1.3.3-1.6 1V34q1.5.6 2.5.6a3 3 0 0 0 2.2-1q1-.8 1-2.2t-.8-2.4q-.8-.9-2-.9m16.8 9.5q-.4 0-1.5-1l-1.8.6-1.3.3q-2.6 0-3.8-1.4-1.4-1.4-1.3-4.1a6 6 0 0 1 1.9-4.5 6 6 0 0 1 4.6-1.8 6 6 0 0 1 2.3.6q1.6.6 1.6 1.6 0 .3-.2.7l-.2 1a19 19 0 0 0 .3 4.5l.9 2.2q0 .6-.5 1-.4.3-1 .3m-2.6-7.4.2-1.7-.7-.2q-1.4 0-2.6 1.1-1 1.2-1 2.6t.5 2.2q.5.7 1.5.7a4 4 0 0 0 2.4-.8zm14.6-1q0 1.6-1.5 1.6t-1.4-1.4v-1q-2.4.3-3.5 2.4v5.4q0 .6-.4 1t-1 .4-1-.4-.4-1v-9q0-.6.4-1t1-.4q1.2 0 1.4 1.2 2-1.4 4.2-1.4t2.2 2.8zM60 37.4q-.9 0-1.3-.8l-1.6-2.3-1.7-2.2-1.4 1-.1 2.8q0 .7-.5 1-.4.5-1 .5-1.5 0-1.5-1.8l.2-5.1v-9.2q0-.7.4-1.1t1.1-.4 1 .4.5 1v8.2q1.4-1 4.4-4a1.5 1.5 0 0 1 2.2 0q.4.3.4 1 0 .5-.4.9-1.3 1.5-3 3l2.2 2.8q1.5 2.2 1.6 3 0 .4-.4 1-.5.3-1.1.3m5.3-13.3q-.7 0-1.2-.5t-.5-1.1.5-1.1 1.2-.5 1.2.5.5 1.1-.5 1.1-1.2.5m.9 7.9v3.9q0 .6-.3 1-.5.4-1.1.4t-1-.4-.5-1v-6.3l.1-2.4q0-.7.5-1 .3-.5 1-.5t1 .5q.6.3.5 1l-.1 2.4z"/><path fill="#e7e7e7" d="m17.3 37 .8-2-1.3-.4-.9 1zm-2 0L14 38.3zm-.3-1.8 2 .1zm.4-14.4 1.7 1zm2.3 1-2-.3zm0 4.5h-2v3.4l3-1.6zm1.5-.6.6 1.9zm5.5 1.6 1.5-1.3zm-.2 8.4L23 34.3zm-5.2-7.2-.8-1.8zm-1.6 1-1.2-1.6-.8.5v1zm0 4.6h-2v1.3l1.2.5zm4.7-.3 1.5 1.4zm.2-4.7 1.6-1.2zm-2.4 8.4v-2q-1.2 0-2.1-.4l-.8 1.8-.7 1.9q1.8.7 3.6.7zm-2.9-.6L16 35.5l.2-.1h.3v4q1.3 0 2.4-1zm-1 .4v-2h.3l.1.2-1.3 1.4-1.4 1.5q1 1 2.4 1zm-1-.4 1.5-1.4.2.5h-4q0 1.4 1 2.4zm-.3-1h2v-.6l-2-.1-2-.1v.9zm0-.7 2 .1v-1h-4v.8zm0-.8h2V22.2h-4v12.2zm0-12.2h2l.1-.4-1.7-1-1.8-1Q13 21 13 22.3zm.4-1.4 1.7 1-.1.2h-.4v-4q-2 .1-3 1.9zm1.2-.7v2q0 .1-.6-.4l-.3-.4h4q.1-1-.8-2.3-1.2-1-2.3-1zm1.1 1.2h-2v.2l2 .3 2 .3v-.8zm0 .5-2-.2v.6h4V22zm0 .4h-2v4.1h4v-4zm0 4.1 1 1.8 1-.5-.5-2-.6-1.8q-1 .3-1.9.8zm1.5-.6.6 1.9.8-.1v-4q-1 0-2 .3zm1.4-.2v2q1.7 0 2.6 1l1.5-1.2 1.5-1.3a7 7 0 0 0-5.6-2.5zm4 1.8-1.4 1.3q1 1 1 2.9h4q0-3.2-2-5.5zm1.5 4.2h-2q0 1.6-1 2.8l1.4 1.4 1.4 1.4a8 8 0 0 0 2.2-5.6zm-1.6 4.2L23 34.3q-1 1.2-2.8 1.2v4q3.4 0 5.7-2.4zm-3.9-7.5v-2q-1 0-2 .5l.7 1.8.8 1.9.4-.2h.1zm-1.3.3-.8-1.8-2 1.2 1.2 1.6 1.1 1.6 1.3-.7zm-1.6 1h-2V34h4v-4.6zm0 4.6-.8 1.8q1.7.8 3.3.8v-4q-.5 0-1.7-.5zm2.5.6v2a5 5 0 0 0 3.7-1.5l-1.5-1.4-1.4-1.4q-.2.3-.8.3zm2.2-1 1.5 1.5q1.5-1.6 1.4-3.7h-4q0 .6-.3.9zm1-2.2h2q0-2-1.2-3.6l-1.6 1.2-1.6 1.3q.3.3.3 1zm-.8-2.4 1.6-1.2a4 4 0 0 0-3.6-1.7v4q.4 0 .4.2zm13.3 7.5 1.4-1.4-1-1-1.3.6zm-1.8.7-.6-1.9zm-5.1-1-1.5 1.3zm.6-8.7 1.4 1.5zm7-1.2-.9 1.8zm1.3 2.3-1.5-1.3-.3.3-.1.5zm-.2 1-2-.1zm.3 4.5-2 .6zm.4 1.1-1.8.9zm0 2-1.3-1.5zm-3.6-7.7-2-.3zm.2-1 2 .3.2-1.5-1.3-.6zm-.4-.2-.7 1.9h.1zm-2.9 1.1 1.5 1.4zm-.5 4.8-1.7 1.2zm2.8.5.6 1.9zm1-.6 1.4 1.5.8-.7-.1-1zm2.4 3.5v-2l.5.1-.6-.6-1.4 1.4-1.5 1.4 1.3 1q.5.6 1.7.7zm-1.5-1-.9-1.9-1.5.6.6 2 .6 1.9 2-.9zm-1.8.6-.6-1.9-.7.2v4q1 0 2-.4zm-1.3.3v-2q-1.9-.1-2.4-.8L29 36.2l-1.5 1.4a7 7 0 0 0 5.3 2zM29 36.2l1.4-1.4q-.6-.5-.7-2.7h-4q0 3.1 1.8 5.5zm-1.3-4.1h2a4 4 0 0 1 1.3-3l-1.4-1.5-1.4-1.4a8 8 0 0 0-2.5 5.9zm1.9-4.5 1.4 1.5q1.3-1.3 3.2-1.3v-4q-3.5 0-6 2.4zm4.6-1.8v2q.4-.1 1.5.4l.8-1.8.8-1.9a8 8 0 0 0-3.1-.7zm2.3.6-.8 1.8.6.3v-.1L36 28h4c0-2-1.7-3-2.8-3.5zm1.6 1.6h-2l.3-.6 1.5 1.3 1.5 1.3a3 3 0 0 0 .7-2zm-.2.7-2-.5-.2 1.4 2 .1 2 .2.1-.8zm-.2 1-2-.1v1.7h4v-1.4zm0 1.6h-2q-.1 2.1.4 3.5l1.9-.6 1.9-.6q-.2-.4-.2-2.3zm.3 3-2 .6.3.5.3.8 1.8-.9 1.9-.8-.5-1zm.4 1-1.8.9.3.6v-.4h4q0-.7-.2-.7v-.4l-.4-.8zm.5 1h-2v-.2l.2-.3 1.3 1.5 1.3 1.6q1.2-1 1.2-2.5zm-.5 1-1.3-1.5h.3v4q1.4 0 2.3-1zm-3.6-7h2v-.6l-2-.1-2-.2v1zm0-.7 2 .2.1-.9-2-.3-2-.4v1.1zm.2-1 .9-1.8-.8-.3-.5 2-.5 1.8zm-.4-.2.6-1.9-1-.1v4l-.3-.1zm-.3 0v-2q-2.5 0-4 1.7l1.4 1.4 1.5 1.4q.6-.5 1-.5zm-2.6 1.1-1.4-1.4a6 6 0 0 0-1.7 4h4q0-.6.6-1.2zm-1 2.6h-2q-.1 1.9.8 3.4l1.7-1.2 1.6-1.1v-.3l-.2-.8zm.5 2.2-1.7 1.2q1.3 1.5 3.2 1.5v-4q-.2 0 0 0v.1zm1.5.7v2q1 0 2-.3l-.7-1.9-.7-1.9-.6.1zm1.3-.2.7 1.9 1.7-1-1.3-1.5-1.3-1.6-.5.3zm1-.6 2-.3-.2-3.6h-4q0 1.5.3 4.1zm14.4-5h-2zm-2.9.3h2v-.1zm0-1 2-.2-.1-2.2-2.2.3zM43 30.8l-1.8-.9-.2.4v.5zm0 5.4h2zm-.4 1L41.2 36zm-2 0L42 36zm-.4-9h2zm.4-2L39 24.9zm2.4.8-2 .4.6 3.1 2.6-1.9zm6.4 2.2-2-.2q0 .4 0 0l.4-.2v4q1.6 0 2.6-1a4 4 0 0 0 1-2.5zm-1.5 1.6v-2l.4.3q.3.4.2.3h-4q-.1 1.3 1 2.4t2.4 1zm-1.4-1.4 2-.1v-1h-2l-2 .1v1.1zm0-1-.3-2q-3.4.5-5 3.5l1.8.9 1.8.9q.5-1.1 2-1.4zM43 30.8h-2v5.4h4v-5.4zm0 5.4h-2v-.2l.2-.2 1.4 1.4 1.4 1.5q1-1.1 1-2.5zm-.4 1L41.2 36l.2-.1h.2v4q1.3 0 2.4-1zm-1 .4v-2h.1l.3.3-1.5 1.3-1.5 1.3q1 1.1 2.6 1.1zm-1-.4L42 36l.2.2v.1h-4q0 1.2.8 2.3zm-.4-1h2v-7h-4v7zm0-7h2v-1h-4v1zm0-1h2v-1h-4v1zm0-1h2v.1l-.1.2-1.5-1.3-1.5-1.4q-.9 1.1-.9 2.4zm.4-1 1.5 1.3-.3.2h-.2v-4q-1.4 0-2.5 1.1zm1-.4v2l-.3-.2-.2-.2 2-.4 1.9-.4q-.2-1-1.1-2-1-.8-2.3-.8zM43 27l1.2 1.6q1.5-1 3-1v-4q-3 0-5.4 1.8zm4.2-1.4v2h.2l-.1-.1v.2l.1.7h4q.1-1.7-1-3.3-1.3-1.5-3.2-1.5zm2.2 2.8h-2v.6l2 .2h2v-.8zm9.3 8.1-1.8 1zm-1.6-2.3-1.6 1.3zm-1.7-2.2L57 31l-1.2-1.6-1.6 1.2zm-1.4 1-1-1.7-1 .5v1zm-3 0-2-.2zm.2-6.2h-2zm0-4.6-2 .1zm.3-2.1 1.4 1.4zm2.2 0-1.4 1.4zm.4 6.3h2zm0 3h-2v4l3.2-2.5zm4.4-4.1 1.4 1.4zm2.2 0-1.4 1.4zm0 1.9L59.2 26zm-3 3-1.3-1.5-1.5 1.2 1.2 1.5zm2.2 2.8 1.6-1.2zm1.2 4-1.3-1.6zm-1.1.3v-2l.3.1.2.2-1.8 1-1.8.9q.4.8 1.3 1.3t1.8.5zm-1.3-.8 1.8-1q-.7-1.1-1.8-2.5L57 34.3l-1.6 1.3q1 1.2 1.4 2zm-1.6-2.3 1.6-1.2-1.7-2.2-1.6 1.2-1.6 1.2 1.7 2.3zm-1.7-2.2-1.2-1.6-1.3.9 1 1.7 1.1 1.7 1.6-1zm-1.4 1-2-.2-.1 3h4v-2.7zm-.1 2.8h-2v-.1l.1-.3 1.4 1.5 1.4 1.4q1-1 1-2.5zm-.5 1L52 35.6h.3v-.1 4q1.5 0 2.5-1zm-1 .5v-2l.4.2v.2-.2h-4q-.1 1.3 1 2.6 1 1.3 2.6 1.2zm-1.5-1.8h2v-2.4l-2-.2-2-.1v2.7zm0-2.6 2 .2q.3-1.7.2-2.7h-4l-.1 2.4zm.2-2.5h2V27h-2l-2-.1v3.6zm0-3.6h2l.1-3.5h-4v3.5zm.1-3.5h2V22l-2 .2-2 .2v.9zm0-1.1 2-.1v-1h-4v1.2zm0-1h2l-.1.1-.2.2-1.4-1.4-1.3-1.5q-1.1 1.1-1 2.5zm.3-1.1 1.4 1.4-.2.1h-.1v-4q-1.4 0-2.5 1zm1.1-.4v2h-.1l-.2-.2 1.4-1.4 1.4-1.4q-1.1-1-2.5-1zm1 .4-1.3 1.4-.2-.4h4q0-1.5-1-2.5zm.5 1h-2v1.3l2-.2 2-.1v-1zm0 1.1-2 .2v1h4v-1.3zm0 1.1h-2v3h2l2 .1v-3zm0 3h-2v3h4v-2.9zm0 3 1.2 1.6 4.6-4.2-1.4-1.4-1.4-1.5-4.3 4zm4.4-4 1.4 1.4h-.3v-4Q58 23 57 24zm1-.5v2l-.2-.1 1.4-1.5L62 24q-1-1-2.4-1zm1.2.4-1.4 1.5-.1-.2v-.3h4q0-1.5-1.2-2.4zm.4 1h-2V26h.1l1.5 1.3 1.5 1.3q.9-.8 1-2.3zm-.4 1L59.2 26l-2.8 2.8 1.3 1.5 1.3 1.5 3.2-3.2zm-3 3L56 31.5l2.2 2.9L60 33l1.6-1.2-2.2-2.9zm2.2 2.8-1.6 1.2 1.3 2V36h4q-.2-1.3-.7-2l-1.4-2zm1.6 3h-2l.3-.6L61 37l1.3 1.5q1-1 1.1-2.5zm-.4 1-1.4-1.6h.3v4q1.4 0 2.4-1zm5.4-15.7L65 22.8zm0 2.2L65 22.2zM66.2 34h-2zm-.3 3 1.3 1.5zm-2.2 0-1.4 1.5zm-.4-3h-2zm.6-7.7 1.3 1.4zm2 0-1.3 1.4zm-.6-2.1v-2h.1l-1.3 1.5-1.4 1.5q1 1 2.6 1zm-1.2-.5 1.3-1.4.1.1v.2h-4q0 1.6 1.2 2.6zm-.5-1.1h2v.2l-.2.1-1.3-1.4-1.4-1.5q-1 1-1.1 2.6zm.5-1.1 1.3 1.4-.1.1v-4q-1.5 0-2.6 1zm1.2-.5v2H65l1.4-1.5 1.3-1.5q-1.1-1-2.5-1zm1.2.5L65 22.8v-.1l-.1-.2h4q0-1.6-1.2-2.6zm.5 1.1h-2v-.2l.1-.1 1.4 1.4 1.3 1.5q1.2-1 1.2-2.6zm-.5 1.1L65 22.2l.2-.1v4q1.5 0 2.5-1zm-.3 8.4h-2v2h2l2-.1v-2zm0 2h-2v1.9h4v-2zm0 1.9h-2l.1-.2.2-.2 1.4 1.4 1.3 1.5q1-1.1 1-2.5zm-.3 1-1.4-1.4.2-.2v4q1.5 0 2.5-1zm-1.1.4v-2h.1l.2.2-1.4 1.4-1.4 1.5q1.1 1 2.5 1zm-1-.4 1.3-1.4.2.4h-4q0 1.5 1 2.5zm-.5-1h2v-2h-4v2zm0-2h2v-2h-4v2zm0-2h2v-2.2l-2-.1-2-.2V32zm0-2.3 2 .1.1-2.5h-4v2.2zm.1-2.4h2v.2l-.2.2-1.3-1.4-1.4-1.5q-1 1.1-1 2.5zm.5-1 1.4 1.4-.2.1h-.2v-4q-1.4 0-2.4 1zm1-.5v2h-.1l-.2-.1 1.4-1.4 1.4-1.5q-1.1-1-2.5-1zm1 .5-1.3 1.4-.2-.4h4q0-1.5-1-2.5zm.5 1h-2v2.2l1.9.2 2 .1.1-2.5zm-.1 2.4-2-.2-.1 2.6h4l.1-2.3z" mask="url(#b)"/><path fill="#000" d="M108 11.8q-1.4-.8-3-.8l-4.8.2-3.3.3q-1.2.3-2.6.3-1.5.2-3-.3h-2q-1.5.3-2.4 1.3l-.3.4q-.9.7-1.3 1.8-.6 1.5-.8 3v.8q-.4 1.5-.1 3.2v.5q-.5-.2-1-.2-1 .2-1.3 1.2l-.3 2.4v3.3q0 1.4.7 2.4 1 1.4 2.7 1.1 0 .6.2 1.3 0 1 .4 2l-1.5 1-5.5 4.2a9 9 0 0 0-3 4.3l-.2.2-1.1 1A17.7 17.7 0 0 0 68 58.2l-.5 2.5a20 20 0 0 0-.1 8h.1a24 24 0 0 0 .3 11.2q.9 3.8 1.3 7.8a27 27 0 0 1-.2 6.8q-.4 2.5.8 4.9v.5l.3 1.2q0 .7.3 1.5t1 1l1.2.1 1.7-.2h1.6q.9 0 1.8-.4l2-.6 1.2.3h4q1.7 0 3.5-.4l.3.4.3.2q1.5.4 3.2.6l4 .4h4.1a24 24 0 0 0 6.9-.8q2.1-.6 4.2-.8 2 0 3.8-.5h.8a12 12 0 0 0 3.6-.2h.1v-.2h.1l.1-.1v-.7l-.4-1.5-.2-.7-2.2-5.8.3-1.1q.5-2.8.5-5.7l.2-1.2q.2-1.5.1-2.9 0-1.6-.6-3h.5l.1-.1v-.2h.1V78l.1-.1.3-.4.1-.4.2-.2a7 7 0 0 0 2-5.5q-.1-4-2-7.5l-2.6-5v-.6L116 57q-.8-3-3.5-4.7l-4.4-2.2q-.6-.1-1-.5a14 14 0 0 1-3.2-4.6l1.2-1 1.6-1.4 2-2q.6-.5.8-1.3l.6-2.1a10 10 0 0 0 0-3.2v-.5q.5.2 1 0l.3-.2a6 6 0 0 0 1-2.6q.4-1.5.3-3.2V27q.3-1.6-.5-2.8-.4-.4-.9-.3h-.5V22q0-.8-.2-1.4v-.3l-.3-4.8a5 5 0 0 0-2.3-3.6m-1.2.6.3.1 1.3 1.1q1 1.3.9 3v.8l.7 7.6q.6.5 1.1-.1l.1-.1.2.1.1.4v1.6l-.3 4.3-.3.7-.3.6h-.5q-.3-.6-.8-.5l-.2.1q-.3.8-.2 1.7.2 1 .1 2a14 14 0 0 1-.6 3.3 16 16 0 0 1-2.4 2.8q-.7.8-1.7 1.4l-1 .8a8 8 0 0 1-2.9 1.9l-1 .4-1.2.1a7 7 0 0 1-3.2-.9l-1.5-.8q-1-.5-1.8-1.2L89.3 41l-1-1.8-.5-.5-.3-.7-.7-1.7v-.9h-.1l-.7-4.2-.2-.1q-.6 0-1 .6h-.5a2 2 0 0 1-1.3-1.2L83 30a27 27 0 0 1 .3-6.4h.1v-.1h.6l.4.2.3.1q.1.3.5.2l.4-.3v-1.1a11 11 0 0 1 0-4 11 11 0 0 1 .9-3.3Q87 14 88.2 13l1.7-.5q.9-.1 1.8.1a7 7 0 0 0 3.1.3l4.4-.6h.9l3.7-.2q1.5-.2 3 .3M72.9 66.3l.8.4q3 1.4 5.7 3.4l.1.2.1.1h.1v.1l.2.1.1.2.4.1 3.2-1.9a34 34 0 0 0 11.8-10l-.2 1-.3.5-.4 1-.2 1-.2.4-1.3 3h-.3v.1a8 8 0 0 0-.4 4 32 32 0 0 1-.3 10l-.2 2a17 17 0 0 1-2.4 7.7l-3 4q-.6 1.2-.3 2.5.3 1.2.9 2.3v.1l.1.4.4.8.4 1 .1.7q-1.8.4-3.6.4h-1.8a8 8 0 0 1-2.5-.3v-.1h-.1l-.1-.1h-.2l-.2-.3-.3-.4-.3-.7-.4-.6h-.1l-.4-.6-3-4.8v-.7l.8-4.5-.1-.1-.1-.1H75q-.9 2-1 4 0 .9 0 1.6l.6 1.3a55 55 0 0 0 3.7 5.7l.4.5-.5.2a9 9 0 0 1-3 .7h-3.8q-.6-.4-.5-1l-.1-1.3-.1-.5-.2-.6-.6-2.1-.3-.8a8 8 0 0 1 0-2.6q.8-4 .2-8l-.7-3.7q-.7-3-1-5.7a23 23 0 0 1 1-10.6l.2-1.8v-.1l.2-.3q1.5 1.6 3.4 2.8M69 63l-.3.1L68 67v-3.5l.3-1.6zm46.2 35.4V98q.4-.6.6-1.3l.9-2.9.3.6.9 2.4.7 2.5v.1l.4 1.3-2 .1h-1.8v-2.6M88 45l2 .7q2.3 1 4.2 2.5l.7 1a9 9 0 0 1 .8 2.8l.2 1.2v2.3l-.4 2-.1.2v.1l-.5.5-.5.7-.4.6-1.5 1.7-1.8 1.9q-.9.5-1.8 1.3-1.8 1.6-4 2.7t-4.3 2.7v-.2a158 158 0 0 1 4.4-17l.8-1.5q1.8-3 2.2-6.2m-15 4.4.1.1v.7l.1.6.5 3.7a45 45 0 0 0 5.1 14l-1.3-.7q-2.3-1.1-4.5-2.6a14 14 0 0 1-4.6-4.7l.6-2.8v-.2l1-3a17 17 0 0 1 3-5.1m4.7-3.6.2-.2q2.2-1.5 5-1.9 1.3 0 2.5.4l1.9.6-.4 1.5q-1 3.3-2.6 6.2-.7 1.2-1 2.4l-3.4 13.8-.4-.7-2.3-4.5q-1.6-3.7-2.4-7.5t-1-7.4a12 12 0 0 1 2.9-2zm9.9-5.9.2.4 1 1.4q.8 1.3 2 2.5l1.3 1 2.8 1.4q1.3.7 3 1h.7l2.1-.6q1-.3 2-.9l.5-.5.2.3 1.5 2.4 1.6 2 4.5 2.2q2.8 1.2 3.7 4l.8 1.9-2.7-2.8h-.3l-.1.3v.2l.7.9a38 38 0 0 1 6 9.2q2 4.2.7 8.4l-.2.2-.6.8-.6.7-.4.6-.2.6-.2.1h-.1l-1-.7-1.1-.8-1.2-.9h-.2l-.2.2v.4q.1.3.4.5l2.8 2.4-.1.1v.6l.4 2 .1 2.5-.3 1.8v1.5l-1 5.4q-.5 2.6-1.4 4.8v.1l-.2.1v3.5l-12 1.9-9.3-.2-3.8-.6-.3-.3-.4-.7-.2-.6v-.4l-.3-.6v-.1l-.5-1q0-.3-.2-.6-1.5-2.4.1-4.6L91 88q.9-2.2 1.2-4.6l1-9.2-.1-2.3q1.8 3 4.9 4.3 3.1 1.5 6.7 1.8 3 .2 5.2-1.3 1-.7 1.7-1.6a9 9 0 0 0 1.6-6l-.1-1.4a20 20 0 0 0-2.3-7.2h-.3l-.2.2v.1l.4 1.3 1 3q.6 1.4.7 2.9l-.1 1.2q0 1.7-.3 3.4-.4 1.5-1.6 2.8-.2 0-.3.2l-.5.3-.5.4q-3.7 1.5-7.7.4-2-.5-3.7-1.5-3.1-2-4.7-5.2l-.1-2.5.3-.4 1.1-2.2q.3-.5.3-1l.7-2.3.3-.9q.4-.5.5-1.1l.5-2.8v-.2l.2-2.3-.5-3.7q0-.2-.2-.4l-.4-1.1q-.6-1.5-1.9-2.2l-.7-.6-2-1q-.8-.7-2-.8l-.8-.4-.5-.1-1.7-.7L85 43h-.5l-1.8-.2-.8.1-1.7.4-1.5.8-2 1 .3-.4q1.8-3 4.7-4.8l4.3-2.9q.3 1.6 1.5 2.8M72.3 77.4H72l-.2.1v.2l-.1.2.1.3 1.8 2-.2 2.4-.7 2v.2l.3.2h.4a9 9 0 0 0 1-3.9v-.6a7 7 0 0 0-2.1-3M95 39q-.5-.3-.8 0-.3.4 0 .7l.4.4a9 9 0 0 0 3.4.7q1.5 0 3-.5l1-.7q.3-.1.2-.3-.3-.7-.9-.4-1 .6-2.2.8-1.5.1-2.8-.2-.8-.1-1.3-.5m2.6-9.3q-.4 0-.7.3v.3l.6.8q.6.9.7 1.9l-1 .1-1 .3v.2q-.1.2 0 .4 0 .3.3.3l2.3-.5q.7-.5.5-1.3-.5-1.6-1.7-2.8m6-4.9-.2-.3-.3-.1h-.5q-.2 0-.2.2-.2 0-.3.4v.2q0 .3.6.5h.3l.2-.2q.3 0 .3-.5zM93 24.6l-.1-.1q-.6-.5-.8 0l-.3.4.1.2.1.3.3.2h.5l.2-.2q.5-.5 0-.8m2.6-3.7-.7-.3q-1-.3-2.3 0-1.5.1-3 1-.8.4-1.4 1.3l-.2.3q-.3.7.1 1h.3q.5 0 .7-.6v-.3q.7-.9 1.8-1.3 1.7-.6 3.5-.5l.6.3q.4.2.7.2t.3-.2q.3-.6-.4-1M85 25.5a1 1 0 0 0-1 .5q-.5.7-.3 1.6v.6a2 2 0 0 0 1.6 1.8q.7 0 1-.6.4-.3.2-.8l-.4-.2q-.6 0-.7.5l-.4-.2v-.1l-.3-.8v-.9h.4q.8-.5.3-1.1 0-.3-.4-.3m25.5 1.3-.5-.4q-.8-.3-1.4.5-.3.5 0 .9.3.3.6.1.4-.2.4-.6l.4 1.1-.1 1.1-.3.1-.1.1h-.1l-.4-.3q-.4-.4-.8 0v.4q.2.6.9.9.8.2 1.3-.3l.2-.3q.8-1.6-.1-3.3m-4-4.2q.5.4.9 0v-.3q-.3-.9-1.2-1.2a9 9 0 0 0-5.4-.7l-1.4.7q-.6.5 0 .8h.3q.5 0 .8-.3a7 7 0 0 1 3.6-.2q1.5.2 2.4 1.2m5.3 9.7h.1"/><path fill="#fff" d="m87.7 40.3-.2-.4a6 6 0 0 1-1.5-3L81.7 40a15 15 0 0 0-5 5.2l.4-.1 3-1.7L82 43l.8-.1 1.8.1.5.1 1 .3 1.7.7h.1l1 .3q.2 0 .3.2 1.2 0 2 .7l2.7 1.7q1.3.7 2 2.2l.3 1.1.2.4.4 2.3v1.4l-.1 2.4v.4l-.2.2-.3 2.3q-.1.6-.5 1.1l-.3 1-.2.8-.2.6-.3.8-.6 1.5-.4.8-.7 1.3V70q1.7 3.3 4.8 5.2 1.8 1 3.7 1.5 4 1.2 7.7-.4l.5-.4.5-.3.3-.2q1.2-1.2 1.6-2.8.3-1.7.3-3.4V68q0-1.5-.5-3l-1.4-4.4v-.1h.5a20 20 0 0 1 2.3 8.6q.2 3.3-1.6 6-.7 1-1.7 1.6a9 9 0 0 1-5.2 1.3q-3.6-.3-6.7-1.8-3-1.5-5-4.3l.2 3.3-1 8.2a18 18 0 0 1-1.5 5.2q-1.5 2.4-3.2 4.6-1.5 2.2-.1 4.6l.2.6.4 1v.1l.3.6.1.2v.2l.2.6q0 .4.4.7l.3.3a46 46 0 0 0 20.4-.5l4.7-.7v-3.4h.1l.1-.2q.8-2.2 1.4-4.8l1-5.4v-1.5l.3-2-.1-2.3q0-1-.3-2l-.1-.6v-.1l.2-.1.2-.1-1.4-1-2.2-1.9.1-.2.1-.1h.3q.6.2 1.2.8l2.2 1.5h.2l.2-.7.2-.3.3-.4.5-.6.8-1q1.2-4.2-.7-8.4a36 36 0 0 0-4.3-7.2l-.2-.3-2.2-2.7v-.2l.1-.1.2-.1h.2q1.4 1.3 2.6 2.8-.5-.9-.8-2a6 6 0 0 0-3.7-3.9l-1.2-.6q-1.6-.8-3.3-1.5v-.2l-1-1.1-2-3.2-.2-.3-.7.5a10 10 0 0 1-4 1.4h-.8q-1.5 0-3-.9L92 45.1l-1.3-1q-1.2-1-2-2.4zM115.2 98v2.8h3.8l-.4-1.4v-.2l-1.6-4.8-.3-.6zM69 63.1l-.8-1.3-.2 1.6q-.3 1.7-.1 3.5zm4.7 3.6-.8-.4q-2-1.2-3.4-2.8l-.2.4-.2 1.8a25 25 0 0 0-1 10.6 67 67 0 0 0 1.7 9.5q.6 4-.1 7.9a8 8 0 0 0 0 2.6q0 .4.2.8l.6 2.1.2.6v.5q.3.7.2 1.3t.5 1l.2.2 3.6-.2a10 10 0 0 0 3-.7l.5-.2-.3-.5h-.1l-.2-.5-.3-.6-.1-.1a55 55 0 0 1-3.6-5.8l-.1-1.5q.1-2.2 1-4l.1-.1h.4v.2h.1a25 25 0 0 0-.8 5.2l3.7 5.6.2.4.3.7.3.4.2.3h.2l.1.1.1.1q1.3.3 2.5.3h1.8q1.8 0 3.6-.4l-.1-.7v-.1l-.4-.9-.4-.8-.1-.4-.9-2.4a4 4 0 0 1 .8-3.3l2.5-3.2.4-.7q1.7-3.3 2-7l.2-2a37 37 0 0 0 .3-10.2q-.2-2 .3-3.8h.1l.2-.1h.2l.4-.7q0-.4.3-.8l.2-.7 1.4-3.8.2-.9a39 39 0 0 1-11.8 10l-3.4 2-.2-.2-.1-.2-.4-.3V70h-.1a32 32 0 0 0-5.7-3.4m-1.5 10.7a7 7 0 0 1 2.1 3l.1.7a9 9 0 0 1-1 3.8l-.2.1h-.3l-.1-.2-.1-.2a10 10 0 0 0 .9-4.3l-.9-1.1-1-1.5.1-.2.2-.1zm34.9-64.9-.3-.1q-1.5-.5-3-.3l-5.5.3-1.2.1-2.3.4a7 7 0 0 1-3.1-.3q-.9-.3-1.8-.1l-1.7.5a13 13 0 0 0-2 2.5 11 11 0 0 0-.8 3.7v4q.1.2 0 .4 0 .3-.3.3t-.5-.2l-.3-.1-.4-.1-.2-.2h-.3v.1h-.1l-.2.2a21 21 0 0 0 0 7q.3.9 1.2 1.1h.6q.3-.6.9-.6l.2.1q.3.4.2 1v.7l1.3 5.1q0 .4.3.7l.4.4.1.1 1 1.8.3.3q.9 1.3 2.1 2.3.8.8 1.8 1.2l1.5.8q1.4.9 3.2 1l1.1-.2 1.4-.5q1.5-.6 2.6-1.8l1-.8 2-1.8 2.3-2.7q.4-1.5.4-3l-.1-2q-.1-1 .2-1.7l.2-.1q.5 0 .8.5h.5l.3-.6.3-.7.1-.5a30 30 0 0 0 .2-5.4l-.2-.5h-.1q-.7.7-1.2.2l-.2-.3a18 18 0 0 1-.3-4l-.2-4.2q0-1.5-1-2.9-.5-.6-1.2-1.1m.3 10q-.4.6-.9.1a4 4 0 0 0-2.4-1.2h-.4a7 7 0 0 0-4 .6h-.3q-.6-.5 0-.9l1.4-.7a8 8 0 0 1 5.4.7q.9.3 1.2 1.2zm2.6 4q.3 0 .5.3 1 1.7.1 3.3 0 .1-.2.3-.6.4-1.3.3-.7-.3-1-1l.1-.3q.4-.4.8 0l.4.3h.2l.3-.2v-1.1q0-.6-.3-1 0 .3-.4.5-.3.1-.6-.1a1 1 0 0 1 0-1q.5-.6 1.4-.4M84 26a1 1 0 0 1 1-.5q.3 0 .4.3.5.6-.3 1-.2.3-.4.1v.9l.3 1 .4.1q.1-.5.7-.5.3 0 .4.2l-.1.8a1 1 0 0 1-1.2.6q-1.4-.4-1.5-1.8v-.6q-.1-.9.3-1.6m11-5.4.6.3q.7.3.4.9 0 .2-.3.2t-.7-.2l-.6-.3q-1.8 0-3.5.5-1 .4-1.7 1.3l-.1.3a1 1 0 0 1-.7.7H88q-.4-.5 0-1l.1-.4q.5-.9 1.4-1.4 1.5-.7 3-1 1.2-.1 2.3.1m-2 4q.5.3 0 .8l-.2.1H92L92 25V25q0-.3.2-.4.2-.4.7 0zm10.4-.2q.2.2.1.3v.2q0 .5-.3.5l-.2.1h-.3q-.6 0-.6-.4v-.2q0-.3.3-.4 0-.2.2-.2h.5zM96.9 30q.3-.3.7-.3 1.2 1.2 1.7 2.8.1.8-.5 1.3l-.5.2-1.8.3-.4-.3v-.4l.2-.2.9-.3 1-.1q0-1-.7-1.9l-.6-.8zm-2.7 9q.3-.3.8 0l1.3.5a7 7 0 0 0 2.8.2q1.2-.2 2.2-.8.6-.3.9.4l-.1.3v.2q0 .3 0 .4l-1 .6a7 7 0 0 1-3.7.5 9 9 0 0 1-2.8-.7q-.2 0-.5-.4V39"/><path fill="#ca6a40" d="m77.8 45.6-.3.2-1.7 1.1q-1.2.7-2.1 1.6.3 3.8 1 7.4.7 3.8 2.4 7.5l2.3 4.5.4.7 3.4-13.8q.3-1.2 1-2.4a30 30 0 0 0 3-7.7q-1-.4-2-.6-1.1-.4-2.4-.4-2.8.3-5 2"/><path fill="#c36a40" d="M73 49.3h-.1a17 17 0 0 0-3 5.1l-1 3.1v.2l-.6 2.8a14 14 0 0 0 4.6 4.7 49 49 0 0 0 5.8 3.4 31 31 0 0 1-3-6.5A45 45 0 0 1 73 49.7v-.4M88 45v.1q-.5 3.3-2.3 6.2a21 21 0 0 0-2.6 7l-2.6 11.7q2-1.6 4.3-2.7t4-2.7q.9-.8 1.8-1.3l3.3-3.6.4-.6.5-.7.4-.5.1-.1.1-.1.3-.7.1-4-.2-.9v-.3l-.8-2.5-.7-1A19 19 0 0 0 88 45"/><path fill="#fff" d="M14 62a8 8 0 0 1 8-8h9a8 8 0 0 1 8 8v9a8 8 0 0 1-8 8h-9a8 8 0 0 1-8-8z"/><path fill="#000" d="M28.8 54.6H28l-.4.3-.3.2-1.2.4h-1.8l-.3-.1h-.4l-.8-.2h-.3l-.4-.1H22l-.6.3q-.5 0-.8 0l-.8-.2h-.2l-.3.2-.4.1-.5.3-.4.2-.3.2-.7.4-.3.2-.3.1v.4l-.2.5q0 .5-.3 1l-.2.3-.1.3-.2.5-.2.7-.3 1-.2.3-.2.3.2.3.2.3q.4.8.2 1.5v.3l-.1.4-.2.9-.2.7.2.4.1.4q.4 1 0 1.7l-.2.4-.2.2.2.3.2.3q.3.7.1 1.6v.4l-.2.3.2.3.2.3.4 1.1v.4l.2.3.3.2.3.2.7.4.3.2.4.2q.5.3.8.9l.3.4.2.3.4.2.4.1h2.2l.7.1h.1l.4-.2.4-.2 1-.3h.4l.4.1.4.1h1.8l.8-.2q.8 0 1.4.3l.4.2.3.1h.2l.4-.2q.7-.3 1.3-.2h1.6l.4-.1.2-.4.2-.3q.2-.5.5-.9l.3-.3.2-.2.4-.5.2-.3.5-1 .2-.2.2-.3.3-.6.2-.3.1-.4-.1-.3-.2-.4-.2-1v-.8q-.2-.8.4-1.4l.2-.4.3-.3-.1-.3-.2-.4V65l.1-.4-.4-.8-.3-1.2v-1.4l-.1-.4v-1.1l-.1-.4V59l-.1-.6-.2-.4v-.4l-.4-.1-.4-.2-.7-.4-.3-.2-.4-.2-.8-.8-.3-.4v-.1h-.3l-.4.1h-1.3L31 55l-.7-.3H30l-.4-.2h-.8M21 53l.3-.3.4-.2q.5 0 .9.3l.2.4h.4l.7.2h2.4l.4-.2.3-.3 1.2-.3h.8l1 .1.4.1.4.1.8.3h.3l.4.2h.2l.9-.2.4-.1.5.1q.5.2.8.6l.3.3.2.4.3.3.3.1.3.2.6.4.4.2.4.2q.7.3 1 1.2v.3l.2.4.1 1v.4l.1.4v1.1l.1.3v1.5q0 .2.2.3l.3.8q.4.7.3 1.4l-.2.8v.2l.1.4.2.3q.2 1-.3 1.7l-.5.7v1.3l.2.4.2.4q.3.8 0 1.5l-.2.4-.1.3-.5.8-.2.3-.2.4-.4.6-.2.3-.2.3-.5.7-.2.2-.3.3-.3.5-.2.4-.2.3q-.4.8-1.2 1l-.8.2H32l-.3.1-.4.2q-.8.4-1.6 0l-.8-.5-.8.1-.9.1h-1.7l-.8-.2-.4.2-.4.2q-.6.5-1.3.3h-2.2q-.6 0-1.1-.2l-.8-.2a2 2 0 0 1-1.1-1l-.2-.3-.3-.4-.2-.2-.6-.4-.6-.3-.4-.2-.4-.2q-.8-.5-.9-1.3V75l-.2-.4-.1-.4-.4-.7q-.5-.7-.2-1.5l.1-.4.1-.4-.2-.4-.2-.3q-.4-.9 0-1.8l.2-.3.2-.3-.1-.3-.2-.4a2 2 0 0 1-.2-1.5l.3-.7.1-.7.1-.3v-.5l-.1-.4-.3-.3q-.4-1 0-1.7l.2-.4.2-.4.2-.5v-.3l.2-.4.3-.9.3-.6.2-.5V57l.1-.4.1-.4.8-1 .4-.1.3-.2.7-.4.3-.2.4-.2.8-.4.3-.2.4-.1q.6-.3 1.3-.1h.4l.1.1.2-.3z"/><path stroke="#000" stroke-linecap="round" stroke-width="2" d="M21 71.1c1 3 4.3 5 5.2 3.3 1.6-2.9 5.2-14.7 5.8-16.4"/></g><rect width="130" height="96" x="2" y="2" stroke="#000" stroke-width="4" rx="13"/><defs><clipPath id="a"><rect width="134" height="100" fill="#fff" rx="15"/></clipPath></defs></svg>