<svg xmlns="http://www.w3.org/2000/svg" width="303" height="151" fill="none"><path fill="#000" d="M110.5 151h1-1Zm61.6-56.3H171.8v-.1h-.4l-.7.6a3 3 0 0 1-.5.6h-.1c-.9.4-1.6 1-2.3 1.6-2.2 2-4.6 3.6-7.3 4.7-2 .8-4 1.9-5.7 3a112.6 112.6 0 0 1-11.3 6.3l-3.8 1.9a6 6 0 0 0-2.8 2.7v.8c0 .6.2 1.2.4 1.7 1 2.3 2.3 4.3 4 6a16 16 0 0 0 7.4 4h.2v-.1h.4v-.1l.6-.5a43.4 43.4 0 0 1 3-4v-.2a152 152 0 0 0 9.3-12.6 296 296 0 0 1 8.7-11.8l.4-.8.5-1.4a117.6 117.6 0 0 1 .6-1.9l-.1-.2-.2-.1Zm-23 15.4 3.8-2.2a63 63 0 0 1 10.7-5.5c2-1.2 4-2.5 6-4.1l-2.7 3.4a93.3 93.3 0 0 0-4.9 6.8 103 103 0 0 1-10.4 14.3l-.5.6-1.6 2a30 30 0 0 0-1 1.3h-.2c-.7-.2-1.5-.4-2.2-.8-1.8-1-3.4-2.2-4.7-3.7a19.5 19.5 0 0 1-2.9-5V116h.1a204.1 204.1 0 0 1 10.5-6Zm3 7.1c.6-.7.7-1.4.5-2.2a2 2 0 0 0-1.5-1.6c-1.8-.4-3 .2-3.5 1.9-.3.9 0 1.7.8 2.3 1.4 1.1 2.7 1 3.8-.4Zm-1.4-2.2h.2v.1l.2.2v.9h-.2l-.1.2-.2.2-.2.2h-.1l-.2-.1h-.4a.4.4 0 0 1-.3-.2l-.1-.1v-.1h-.1l-.1-.2v-.2l.1-.4.1-.4h.1c0-.1.2-.2.3-.1l.4-.1h.6ZM239.9 2.2l-2.7-.6a120.9 120.9 0 0 1-6.8-1.5L230 0h-.4c-1.8.2-3.4 1-4.8 2.2-.9 1-2 1.8-3 2.6a11.2 11.2 0 0 0-4.9 8.9c0 .3 0 .6.3 1v.5a1.3 1.3 0 0 0 .3.3l.5.4.7.5.3.2-.4.8c-.3 1-.1 2 .6 2.8 1.3 1.6 3 2.3 5 2.2 2-.1 4 0 6 .6h-.1l2 .8c1.8 1 3.7 1.8 5.6 2.5 2 .7 4 1 6 1h.8c1.5-.6 3-.7 4.6-.5l.3.1.1.1.3.3a5.6 5.6 0 0 0 1.5 1h.1l.1.2.2.1c.6 1 1.2 1.9 1.6 2.9a37 37 0 0 1 2 6l.8 2.3a32 32 0 0 1 1.7 7.5 52.6 52.6 0 0 1 1 12.2 49 49 0 0 0 .4 12.2l-.4-.4-4.2-3.8-.3-.2-.1-.1-.1-.1-2.4-1.5c-1.8-.9-3.8-1.4-5.8-1.3-2 0-4 .2-6 .7a49 49 0 0 0-8.5 3.1 138.2 138.2 0 0 1-7-5.8 36.7 36.7 0 0 0-5-3.5A15 15 0 0 0 214 57a37.7 37.7 0 0 0-9.8.1c-2.1.4-4.2 1-6.1 1.7a88 88 0 0 0-5.5 2.4 26 26 0 0 0-5.3 3.3l-1 .7-.8.7a86 86 0 0 0-23.5-9.7h-.2c-1.5-.7-3-1.1-4.7-1.2-.8 0-1.5 0-2.3-.2a49.4 49.4 0 0 0-10.8.1l-4.3.4c-3 .3-5.7 1.2-8.3 2.5l-2.2 1.3c-1.7.8-3.5 1.7-5.3 2.4a43.9 43.9 0 0 0-9.4 5.4l-.3-.2-2.8-2.7c-1.5-1.4-3-2.7-4.8-3.8A21 21 0 0 0 95 57a28 28 0 0 0-8.9 1.8l-5.5 2.6c-1.8 1-3.6 2-5.2 3.2a340.9 340.9 0 0 1-4.5 3.1l-1-.7-.3-.3A16 16 0 0 0 67 65c-1.4-.8-3-1.2-4.6-1.3a17 17 0 0 0-6.3.6c-2.3.7-4.5 1.6-6.6 2.9L44 70.4l-1.4.7a9 9 0 0 0-1.1.5 22.7 22.7 0 0 0 1.3-7.9c.1-2 0-4-.3-6l-.3-3c-.1-1.6 0-3.3.3-5a470 470 0 0 1 1.8-10.5c.3-2 .9-4 1.8-5.9a38.6 38.6 0 0 1 3.6-5.5 74.3 74.3 0 0 0 5.7-2.6c.8 0 1.5-.1 2.2-.3h.4a8.5 8.5 0 0 0 1 0h.8a23 23 0 0 0 3.7.7 18.5 18.5 0 0 0 5.3-.9 62.5 62.5 0 0 1 9-2.1 7 7 0 0 0 3.7-1.4c1.3-1 1.7-2.3 1.2-3.9 1.3-.6 1.8-1.5 1.7-2.8l-.5-2.4a13.8 13.8 0 0 0-2-4.1 34 34 0 0 0-1.7-2A82.8 82.8 0 0 0 74 1a7.1 7.1 0 0 0-3.6-1 26.5 26.5 0 0 0-6.9 1.3 218.4 218.4 0 0 0-11 5.8l-1.5.7c-1.8.7-3.5 1.7-5.2 2.8a48.2 48.2 0 0 0-14 14.7 41.3 41.3 0 0 0-4.3 6.2l-4 4.8a126.2 126.2 0 0 0-5 6.4 92 92 0 0 1-2.2 4A50 50 0 0 0 11 58a78 78 0 0 0-2.3 5.5 164.2 164.2 0 0 1-6 13.5 195 195 0 0 0-2.3 5.8c-.2.7-.4 1.4-.4 2.1-.2 2 0 4 .3 6 .4 2 1 3.9 1.6 5.8.6 1.7 1.7 3 3.2 4a41.4 41.4 0 0 0 6.5 3.2 12 12 0 0 0 3.9 1.8c2 .5 4 .8 6 .8A21.4 21.4 0 0 1 29 108a313.4 313.4 0 0 0 19.6 6.2 37.2 37.2 0 0 0 8.3-.2 63.5 63.5 0 0 0 12-1.2l6-1.1 6-1a3 3 0 0 1 2 .6c.9.6 1.5 1.3 2 2.2a699.2 699.2 0 0 0 4.5 8.4 29.2 29.2 0 0 0 3.3 5.2 105.7 105.7 0 0 0 3 9.3c1 2.5 2.2 5 3.7 7.2v.3l.6 1a91 91 0 0 1 2 2.6c.7 1 1.5 1.7 2.5 2.1 1.3 0 2.5-.4 3.5-1.2a142.2 142.2 0 0 0 5.7-4.6l5.7-4.6a10 10 0 0 0 3-3.5c.2-.3.2-.6.2-.9-.2-1-.5-2-1-2.8V131.3a25.7 25.7 0 0 1-5-14.2c-.3-3-.2-5.8.2-8.7a15.8 15.8 0 0 1 1.8-4.8l1.1-2.5h.2l.1-.1.2-.2v-.2l.1-.2.1-.4.7-1.3c.8-2.4 2-4.6 3.7-6.7 1.2-1.5 2.6-2.7 4.2-3.8l3-1.9a39.3 39.3 0 0 1 10.5-4.6A101.7 101.7 0 0 1 158 80a23 23 0 0 1 7 2.1l3.1 1.6a23 23 0 0 1 3 2 65.2 65.2 0 0 1 8.4 8.2c2 2 3.6 4.5 4.7 7.3l.7 1.7c1.1 2.7 1.7 5.5 1.8 8.4a61.2 61.2 0 0 1-.5 10.2 15.5 15.5 0 0 1-4 9.9l-1.9 2.3-.3.9c-.2 1.3.2 2.4 1.1 3.5 1.6 1.7 3.5 3 5.7 4a42 42 0 0 1 6 3.5c2 1.2 4 2 6.4 2.3a3 3 0 0 0 2.2-1 128.8 128.8 0 0 0 2.6-2.8v-.6c1.3-2.4 2.4-4.8 3.4-7.2.7-1.5 1.2-3 1.5-4.7a106.2 106.2 0 0 0 1.3-7.4l1.6-2.6c1.4-2.6 3-5 4.8-7.3 1.7-2 3.8-3.4 6.2-4.1l5.8 1.2a102.7 102.7 0 0 0 13.4 1 172 172 0 0 1 8.5 1.1h4.5a37.4 37.4 0 0 0 11.5-3l.9-.4a35.3 35.3 0 0 0 3.4-1.6c3.3-1.4 6.8-2.3 10.4-2.6 3.9-.3 7.6-1.6 11.1-3.8 2.1-1.3 4-2.8 5.8-4.5 2.6-2.5 4-5.5 4.2-9l.2-1.7c.4-2 .2-4-.8-5.9l-2-4.1a134.5 134.5 0 0 1-5.7-12.6v-.1l-.2-.2v-.2l-1-2.5-4.9-11.6c-1.7-3.9-3.9-7.3-6.7-10.4A1885.3 1885.3 0 0 1 270 26.8c-2.7-3-5.3-6.2-7.8-9.3a54.8 54.8 0 0 0-9.1-9 15.1 15.1 0 0 0-6.3-4.2 89 89 0 0 0-7-2.1Zm-10.3-.3h.5c1.5.5 3 .9 4.6 1.1 4.2.7 8.2 1.8 12.1 3.3.7.2 1.4.6 1.9 1.1a64 64 0 0 0 4.5 4c2.9 2.4 5.5 5 7.9 7.9a182.7 182.7 0 0 0 9.1 10.7c2.5 3 5.2 6 7.9 8.8a58.6 58.6 0 0 1 9.2 14.7 447 447 0 0 1 4.6 11.3v.1l.1.2.4.7a98.9 98.9 0 0 0 2.5 5.5l.5 1.4c.7 1.9 1.5 3.7 2.5 5.4 1 1.7 2 3.5 2.7 5.3a37.2 37.2 0 0 1 0 2.6 13.7 13.7 0 0 1-5.5 11.7L290 101a17.7 17.7 0 0 1-7.3 2.6 64.5 64.5 0 0 0-12.7 3.2h-.1c-1.6.6-3 1.3-4.5 2h.1a34.3 34.3 0 0 1-23.3 1.6l-1.2-.1c-1.7-.2-3.3-.2-5-.2-1.6 0-3.2 0-4.9-.3l-3-.4a3 3 0 0 1-1.2-.3c-1.8-.8-3.5-1-5.3-.5a12.6 12.6 0 0 0-7.1 4.9l-4 6 .4-8.2a57.8 57.8 0 0 0-1-13.4c1.6-1.4 3-3 4-4.7l3.5-5a17.2 17.2 0 0 0 2.5-5.6v-.1l-.2-.2h-.4c-.6 1.9-1.4 3.6-2.4 5.2l-3.4 5.1a24.1 24.1 0 0 1-3.9 4.5 30 30 0 0 0-5.4-11A48.5 48.5 0 0 1 201 81l-2.7-4.8a17.9 17.9 0 0 0-5.6-5.7l-5.5-3.6.2-.2a32.8 32.8 0 0 1 8-4.9c1.9-.7 3.7-1.5 5.7-2.1 2-.6 4-1 6-1 2-.2 4-.1 6 .1 2.1.2 4 .8 5.8 1.9a44.2 44.2 0 0 1 7 5.2l3.8 3.1-1 .6a58 58 0 0 0-6.3 3.8c-.9.5-1 1-.6 1.9l.6.2c.7-.1 1.4-.4 2-.9a48.2 48.2 0 0 1 16.4-7.8c2-.5 4-.7 6-.5a10.7 10.7 0 0 1 6.2 2.4c.1 0 .2 0 .3.2h.2l.8.8c1 1 2 2.1 3.2 3.1a9 9 0 0 0 3.8 2.3c.6-.2.9-.6.8-1.1 0-.2 0-.3-.2-.4h-.1a1 1 0 0 0-.3-.7c-.4-1.4-.6-2.8-.6-4.3V68c-.2-1.6-.3-3.3-.1-5l.3-6c0-2.1-.2-4.2-.6-6.3a966 966 0 0 1-1.8-8.8 514.5 514.5 0 0 1-2.4-8.6 16 16 0 0 0-3-5.5c0-.3-.1-.6-.4-.7l-.2-.2a32 32 0 0 0-2-1.3c-1.5-.9-3.2-1-5-.5l-1 .3c-1.6.2-3.2 0-4.7-.4l-2.5-.8 1.6-.8 1.1-.6c1-.4 1.6-1 2.2-1.8.5-.7.4-1.4-.2-2a.6.6 0 0 0-.6 0c-.7.1-1.5.4-2.2.9h-.1v-.1c0-.5.2-.9.6-1.2l.7-.3c.6 0 1.2 0 1.8.3 0 .3.1.5.3.8a7 7 0 0 0 2.4 2.3c1 .6 2 1.4 2.9 2.4h.4l.1-.1a.8.8 0 0 0 .1-.2c0-.3-.2-.5-.3-.6-.8-.7-1.6-1.4-2.5-1.9l-1.5-1V20l-1-1.2v-.1a1 1 0 0 0-.4-.8c-.3-.3-.6-.4-.9-.4h-.1c-1.4-.5-2.5 0-3.3 1.2-.3.6-.2 1 .2 1.5.2.1.4.2.6.1.8-.1 1.5-.4 2.2-.9l.2.1.1.2c0 .4-.2.8-.5 1.1a15.4 15.4 0 0 1-5 2.7l-3-1.3a23.2 23.2 0 0 0-1.1-1.5c-.5-.6-.8-1.3-.9-2v-.2h.1l.5-.7c.9-1.2 1.7-2.5 2.4-3.8a401.7 401.7 0 0 1 2.2-4.4v-.1h-.5c-.5.7-1 1.4-1.3 2.2a51 51 0 0 1-4 6.4 1 1 0 0 0 0 1c.3.9.7 1.7 1.2 2.4a59.2 59.2 0 0 0-3.2-.9c-.6-.4-1-.9-1.5-1.4-.6-.7-1-1.5-1.3-2.4 0-.5.1-1 .3-1.3.8-1.7 1.8-3.1 2.9-4.5a217.3 217.3 0 0 0 3.4-4.3v-.2l-.2-.1-.2-.1-3.9 4.5a18 18 0 0 0-3 5.3v.7a8 8 0 0 0 2.1 3.7 29.6 29.6 0 0 0-2.4-.3 7 7 0 0 1-2.3-1.3c-.6-.5-1-1.2-1.2-2V16.7c.3-.5.2-.9-.2-1.3h-.1c.4-1 1-2 1.5-2.9l1.4-2.2a22.1 22.1 0 0 1 3.2-4.7v-.2l-.1-.1-.1-.1H226.8c-1 1-1.9 2.1-2.6 3.4l-1.4 2.3c-1 1.3-1.8 2.7-2.3 4.2l-.2-.1h-.1l-.3-.2-.3-.2a4 4 0 0 0-.5-.4v-.4l-.1-.1v-1.5l.3-1c.4-1 1-2 1.8-2.8a65.7 65.7 0 0 1 6.5-5.8h.3l.9-.4.8-.3Zm-8.2 16.9 1 1 .9.6c-.7 0-1.3-.3-1.8-.8-.5-.4-.8-.8-1-1.4 0-.3.1-.5.3-.7.1.5.3.9.6 1.3ZM45.7 13a36.7 36.7 0 0 1 5.5-3.3c1.5-.6 2.9-1.3 4.3-2.2a54.9 54.9 0 0 1 6-3c1.2-.9 2.5-1.5 4-2h-.2.7l2-.4a38.2 38.2 0 0 1 2.4-.3 23.6 23.6 0 0 1 2.1.5c.6.3 1 .7 1.3 1 .3.5.6.6 1 .6A20.8 20.8 0 0 0 78 6.5l.4.3.7.7 1 1.3.4.4.3.6a25.3 25.3 0 0 1 1.7 5.3l-.1.1-.1.1-.2.1-.1.2a2.5 2.5 0 0 0-1.2.7v1.5c.2.3.2.6.2.9v.2l-.2.1v.2l-.3.2-.2.2-.2.3a3 3 0 0 1-1 .3l-1.2.3a6 6 0 0 0 1.6-2.3c.4-.9.5-1.8.2-2.8a29.3 29.3 0 0 0-3-6.4l-.2-.4-.2-.4-.1-.3-.2-.3-.6-1.4a2.4 2.4 0 0 0-1-1H74l-.1.1v.5c.4.2.6.5.8 1a54 54 0 0 0 1.4 3c1 1.8 1.9 3.6 2.6 5.4.3.5.3 1 .3 1.5-.3 1.6-1 2.8-2.4 3.7v.2a7 7 0 0 0-1.4.4 342.2 342.2 0 0 0-7.2 2c.4-1 1-2 1.6-2.8.4-.8.6-1.6.3-2.4-.2-.8-.5-1.5-.9-2.1a319.2 319.2 0 0 0-3.8-5.7H65l-.1.1-.1.1v.2a33.1 33.1 0 0 0 3.3 5.2c.6.9 1 1.8 1.2 2.7v.4c-.7 1.6-1.5 3-2.4 4.5-.8.2-1.7.4-2.5.4v-.1a1 1 0 0 0-.7-.3c-.8-.1-1.6-.5-2.3-1a3.6 3.6 0 0 1-1.3-2.3l.1-.1h.3l1.2.5c.7.3 1.2.2 1.5-.4 0-.8-.4-1.4-1-1.9a2 2 0 0 0-1.3-.4c-1 0-2 .5-2.6 1.2l-.8 1.3a5.8 5.8 0 0 1-5.2 3.4h-.2l-.1.2v.5h.4l-.5.4-.9.3a6.2 6.2 0 0 0-3.6 2.5 34.6 34.6 0 0 0-3.2 5.2c-.9 1.8-1.5 3.8-1.8 5.8a301.4 301.4 0 0 1-2 12c-.5 2-.5 4-.1 6l.3 3v6c0 1-.1 2-.4 3a106.7 106.7 0 0 0-1 4.6v.3c-.2.3-.1.7.3 1 .3.3.6.4 1 .1l1-.6c1.8-.8 3.5-1.7 5.2-2.7l1.9-1.2a48 48 0 0 1 4.6-2.4c2-.9 4-1.5 6-1.8 1-.2 2-.2 3.1-.1a12.2 12.2 0 0 1 5.8 2.4 62 62 0 0 1 6.4 5.5c1 .7 2 1.6 2.8 2.5a6 6 0 0 0 2.6 1.5c.3 0 .6-.1.8-.4.1-.3.2-.5 0-.8a65.5 65.5 0 0 0-8.3-7.2l.4-.3 3.3-2.4a41.7 41.7 0 0 1 7-4.3A26.9 26.9 0 0 1 95 58.8a17 17 0 0 1 7.4 1.3 26.7 26.7 0 0 1 9.6 7.1l1 .8a93.5 93.5 0 0 0-4.8 4.4c-1.1 1-2 2.2-3 3.4a94.3 94.3 0 0 0-12.4 23l-.2-.1a87.5 87.5 0 0 0-2.6-2.1 20.6 20.6 0 0 1-5.8-9 54.3 54.3 0 0 1-1.7-6.3h-.5l-.1.1v.6a41.8 41.8 0 0 0 2.8 8.7 19.5 19.5 0 0 0 7.9 8.8 49.8 49.8 0 0 0-1.1 21.7c-1-1.6-1.8-3.3-2.7-5a57 57 0 0 0-3-5.2c-.7-1-1.6-1.7-2.8-2a8.3 8.3 0 0 0-3.7-.1l-6.3 1.2h-.7l-6.2 1c-2.1.5-4.3.7-6.5.7-1.9 0-3.8.1-5.6.3l-1.6.2c-2 .2-4 0-5.9-.7l-5.8-2a202.3 202.3 0 0 1-12-4c-1.8-.6-3.7-1-5.7-1s-4-.2-6-.6c-.8-.1-1.5-.3-2-.7a126 126 0 0 1-4.5-2.3c-1.4-.6-2.7-1.2-4-2-1-.4-1.6-1.1-2-2a32 32 0 0 1-2.5-9.8c-.1-.8 0-1.6.1-2.3a47.2 47.2 0 0 1 4-10.3 67.2 67.2 0 0 0 4.5-10.2 51 51 0 0 1 2.9-6.5 41.6 41.6 0 0 1 3.8-8.7l1.4-2.8c.7-1.4 1.5-2.7 2.4-4a86.6 86.6 0 0 1 6-7c.8-1 1.6-2 2.2-3a50 50 0 0 1 3.5-5 59.6 59.6 0 0 0 4.5-6.4 36.6 36.6 0 0 1 8.5-8Zm16.8 6.5v.1H61.8c-.2-.3-.4-.5-.7-.6h-.9c-.7 0-1 .5-.8 1.2a4.7 4.7 0 0 0 2.4 3.1l-.4-.1a8.9 8.9 0 0 0-3.7-.3l-1.8.2.8-.6a4 4 0 0 0 .9-1.1c.5-1 1-1.9 1.7-2.7a13.8 13.8 0 0 1 1-.3h.2l.2-.2H61.2l.7.5.7.8Zm123.6 45.7Zm-2.4 1.3a99.1 99.1 0 0 1 9.1 6c.7.5 1.4 1 1.9 1.7a66.9 66.9 0 0 1 7.6 12.1 25 25 0 0 0 2.2 3.2c.5.6 1 1.2 1.3 1.8h-.2l.2.2a31 31 0 0 1 2.1 5.3l.5 2a72.4 72.4 0 0 1-.1 24.8v.2l-.1.2V124.4l.1.2a.6.6 0 0 0 .1.1l-.2 2.2a29 29 0 0 1-2.6 9.3c-.5 1.3-1.1 2.5-1.8 3.8l-1.4 3.4v.1c-.2 0-.3.2-.4.3l-.2.4-.2.2-1.2 1.3c-.4.5-1 .7-1.5.6a15.6 15.6 0 0 1-6.4-2.6 42.6 42.6 0 0 0-7.5-4.2c-1.7-1-3-2.5-3.7-4.3l.4-.7.8-1a.7.7 0 0 1 .3-.1v-.1c1-1.2 1.8-2.4 2.6-3.8.6-.8 1-1.8 1.2-2.8a43.4 43.4 0 0 0 1.5-16.3 27.7 27.7 0 0 0-6-15.5 73.9 73.9 0 0 0-5.7-6.5 34 34 0 0 0-14.2-9c-2.7-1-5.6-1.3-8.5-.9l-8.7 1.2a28 28 0 0 0-7.2 1.8 46.1 46.1 0 0 0-8.7 4.7 22 22 0 0 0-6.2 5.7 31.6 31.6 0 0 0-3.8 7.5l-.1.2a2 2 0 0 0-.6.8l-.3.6-.4 1-.3.6a372.2 372.2 0 0 1-.9 1.7l-.8 2.3a26.5 26.5 0 0 0-.7 9.7c0 3 .5 5.8 1.4 8.5a24 24 0 0 0 3.6 7v.3l.6 1.2.6 1.3c-.2.9-.6 1.5-1.3 2a89.1 89.1 0 0 0-3.5 3 11762.7 11762.7 0 0 0-9.5 7.6c-.6.3-1.3.6-2 .7a2 2 0 0 1-.3-.2l-.5-.5a39.6 39.6 0 0 1-3-3.8v-.2l-.2-.5c-1.3-1.9-2.4-4-3.3-6.2a100.7 100.7 0 0 1-3.1-9.4c.2-.4.2-.8 0-1.1l-.4-.5a129.5 129.5 0 0 1-1.8-9 56.3 56.3 0 0 1 2.4-18.4c1-3 2.3-5.9 3.9-8.7l4.4-7.8c1.5-2.6 3.3-5 5.3-7a87.1 87.1 0 0 1 9.5-8.3c2.3-1.4 4.7-2.7 7.2-3.7a80.1 80.1 0 0 0 7.5-3.6c2.5-1.3 5-2 7.9-2.3l2.2-.2a67 67 0 0 1 15 .1 51.6 51.6 0 0 1 4.7 1.3h.2a22.6 22.6 0 0 0 3.5 1 129 129 0 0 1 10 3.7 87 87 0 0 1 7.7 4Zm-86 50c-1.5-.2-2.3.4-2.4 1.8-.2 3 0 6 .8 9s1.8 6 3 8.8v.2l.3.4 1.4 3.4c.6 1.5 1.4 2.6 2.3 3.5h-.1v.2l-.1.2V144.8h.1l.1.1v.1h.2v.1h1c.7-.4 1.3-.7 1.9-1.2l2.3-1.5c2.2-1.4 4.3-2.9 6.4-4.5a50.4 50.4 0 0 1 4.8-3.4c.2-.1.2-.3.2-.5 0-.4 0-.7-.3-1.1a46.6 46.6 0 0 1-3.4-6.8 29.6 29.6 0 0 1-2.1-8.4v-.2h-.1v-.2c-1.6-.7-3.2-1-4.9-1.2-3-.1-6.2 0-9.3.4-.6.1-1.3.2-2 .1Zm-.7 1.7c.7 0 1.3 0 2-.2l6.8-.5c2.3-.2 4.6 0 6.8.7 0 .7 0 1.3.2 1.9.6 2.4 1.4 4.7 2.3 7 1 2.4 2 4.5 3.1 6.4l-.1.1a52.3 52.3 0 0 0-7 5l-1.3.8a1676.3 1676.3 0 0 0-5.5 3.5V142.7l-.1-.1v-.1a39.3 39.3 0 0 1-3.7-7c-1.1-2.8-2-5.6-2.8-8.5-.8-2.9-1-5.8-.7-8.7Zm4.9-29-.3.1-1.1 1.8a27.8 27.8 0 0 0-4.1 10v.2l-.4 1.4a27.5 27.5 0 0 0-.6 11.8v.5h.1v.2h.2v.1h.4l.1.1h.2l.2-.1a3 3 0 0 0 1-.2h1.7c.9-.2 1.7-.3 2.6-.2 1.4.1 2.9.2 4.4 0 2.1 0 4.3 0 6.4.4H113l.2-.2.2-.1.2-.5V114.2l.1-.1a2.6 2.6 0 0 0 .1-.4v-.8a25.4 25.4 0 0 1 .7-6.5 241 241 0 0 1 1.6-5.6l.4-1.1a54.4 54.4 0 0 1 .5-2l-.2-.6a2 2 0 0 0-.7-.7h-.1l-.3-.3-.6-.5a2 2 0 0 0-.8-.6l-.3-.2a170.7 170.7 0 0 1-6.5-3.8 22.1 22.1 0 0 0-5.3-2 2 2 0 0 0-.3.1Zm.8 1.4 2 1c1.6.5 3.1 1.2 4.6 2.2a61.7 61.7 0 0 0 5 3.2l.5.5.5.4v.2l-.2.8v.4c-.8 1.3-1.3 2.6-1.5 4a26.2 26.2 0 0 1-.9 4c-.3 2.1-.5 4.2-.5 6.3h-2.6a48.2 48.2 0 0 0-6.1-.2c-2.3-.2-4.5-.1-6.7.3a39.3 39.3 0 0 1 2-15.5c1-2.7 2.3-5.2 4-7.6ZM123 67l-.1-.1-.1-.1h-.1v-.1h-.9l-.2.1c-1.3.1-2.6.5-3.7 1.3-1 .6-2 1.4-2.8 2.4a77 77 0 0 1-4.7 5.5l-4.7 5.5a10.5 10.5 0 0 0-2.6 5.7v.2a57.1 57.1 0 0 1 .6.4H104.2a12.7 12.7 0 0 1 .6.3l.5.2a59.5 59.5 0 0 0 7.1 4.3 140 140 0 0 1 5.2 3.7h.1l.1.1h.5a11 11 0 0 0 2.6-3.8c.7-2 1.8-3.6 3.3-5a31.8 31.8 0 0 1 6.2-4.6c0-.8 0-1.5-.5-2.1-1.5-2.3-3-4.5-4.3-6.8a24.8 24.8 0 0 1-2.7-7Zm-1.2 1.5v.2l.8 2.5a111.4 111.4 0 0 0 1.3 3.1l2.4 3.9c1 1.3 1.8 2.6 2.5 4l-.3.3c-2.1 1.2-4 2.6-5.8 4.3a969 969 0 0 0-4.7 7.8 33.7 33.7 0 0 0-5.4-4 296.9 296.9 0 0 0-7.7-4.5l.3-.6c.7-1.5 1.6-2.9 2.7-4.2 1.9-2.3 3.9-4.6 6-6.8.8-.7 1.5-1.6 2-2.5a7.7 7.7 0 0 1 5.9-3.5Zm69 49h-.7v.1l-.1.1h-.1v.2l-.1.2v.2l-.1.2-.4 1.9a72.2 72.2 0 0 1-4.3 12.8l-.2.1-.1.2a1.9 1.9 0 0 0-.1.4v.4l.1.2h.1v.2l.1.2.2.3 1.6 1.3 1 .9c1.5 1 3.1 2 5 2.8a170.1 170.1 0 0 1 6.8 3.3h.2l.1-.1.2-.2.2-.1v-.1a3.4 3.4 0 0 0 .2-.5 124.4 124.4 0 0 0 4.3-11l1.4-5a21.2 21.2 0 0 0 1.3-8.7l-.2-.2-.1-.2h-.2a5 5 0 0 0-1.4-.5c-.7-.2-1.4-.2-2-.1a452.4 452.4 0 0 0-8.6.8c-1.2-.2-2.5-.1-3.7.3v-.1h-.1v-.2h-.2Zm.3 2.4.2-.1.1-.1.1-.1v-.2h.2l.6-.1 3.1-.1a172.2 172.2 0 0 0 7.8-.9c1-.1 2 0 2.7.5 0 2-.3 4-1 6l-.6 2.1a64.3 64.3 0 0 1-5.3 14.6 570.5 570.5 0 0 0-7.7-3.8 23 23 0 0 1-5-3.6l.6-1.2c1-2.2 1.8-4.5 2.6-6.8.7-2 1.2-4.1 1.6-6.2Zm-1.8-24.3h-.2a15.5 15.5 0 0 0-.7.4c-.4 0-.7.3-1 .5a4.3 4.3 0 0 1-1.2.8l-.2.2-.1.1-.1.3v.2a3.2 3.2 0 0 0 .1.5l.2.1.1.1.1.1.5 1.3c1 1.7 1.5 3.5 1.8 5.5l.7 6.4v1.4c-.1.4 0 .7.2 1v.2l.1.2.1.2h.1l.1.2h.1l.3.1h1.4c2.5-.4 4.9-.5 7.3-.3a61.5 61.5 0 0 0 8.3 0h.3c0-.2.1-.2.2-.3v-6.2a29 29 0 0 0-2.5-9.7 48.6 48.6 0 0 1-1.9-5.6c0-1.3-.4-2.4-1.4-3.2l-.2-.2-.2-.1a.7.7 0 0 0-.3-.1 5 5 0 0 0-2.5 1 20.7 20.7 0 0 1-3.8 2 81 81 0 0 1-5.7 3Zm1.1 1.1a22.7 22.7 0 0 0 4.6-2.2l1.8-1c1.4-.6 2.8-1.4 4.1-2.2l.1.1h.1l.2.2h.1V92l.1.2c.2 1.8.6 3.5 1.5 5.2l.7 1.5a137.5 137.5 0 0 0 2.2 7.6l.5 7.2a383.5 383.5 0 0 1-9-.2c-2.2 0-4.4 0-6.5.3l-.1-1.8-.3-5a16.3 16.3 0 0 0-1.4-5.6 35.1 35.1 0 0 1-1.3-3 19.8 19.8 0 0 1 2.6-1.6ZM151 58.3l-.1-.2V58l-.1-.1v-.1h-.2l-.2-.2a58.4 58.4 0 0 1-2.9.5l-2.4.9a122.9 122.9 0 0 0-8.7 1.7 8 8 0 0 1-1.5.2c-2.9.3-5.5 1.4-7.7 3.3a14.8 14.8 0 0 0-1.7.8c-.5.3-1 .6-1.3 1v.4h-.2v.4l-.1.1v.1c.6 1.4 1.4 2.7 2.3 4a17.3 17.3 0 0 1 2.4 4.6l.4.7 1.3 2.6a17.6 17.6 0 0 0 2 2.6h.4c.9-.2 1.7-.5 2.4-1 2.1-1.3 4.5-2.2 7-2.7a39.4 39.4 0 0 1 8.6-1.1l.1-.2.2-.8a53.2 53.2 0 0 0 .2-8.5 90 90 0 0 1-.2-8.2v-.7Zm-1.7 1.1a113.8 113.8 0 0 0 .3 8.4l-.1 7.5a33.5 33.5 0 0 0-16.7 4.4l-1-1.6c-1-1.8-2-3.5-2.8-5.3-1-2-2.1-4-3.4-5.9l4.3-2.7c.9-.5 1.8-1 2.9-1.1a374.8 374.8 0 0 0 16.5-3.7Zm29.3 6.8-.4-.7-.6-.7-.7-.5c-1.8-1.2-3.7-2-5.8-2.6a94 94 0 0 1-9.2-2.7 34.2 34.2 0 0 0-8.1-1.3l-.2.1-.1.1-.1.1-.1.2v.2l-.1.1v.6a75 75 0 0 1-.4 5.8v.4a202.8 202.8 0 0 0-.6 10.3v.4l.1.2h.1v.2h.1l.1.1h.1l.6.2H156.6c2.4.3 4.7.8 6.9 1.8a73.1 73.1 0 0 0 7.5 2.3h.2a4 4 0 0 1 .2-.4 506 506 0 0 1 .2-.5v-.1a41.6 41.6 0 0 1 4.2-7.8c1.2-1.8 2.1-3.7 2.8-5.8Zm-14.4-4.7 1.1.4 5.9 1.4a16.3 16.3 0 0 1 5.4 2.8l.2.2v.2a66 66 0 0 1-3.8 7c-1 1.8-2 3.6-2.8 5.6a27.2 27.2 0 0 0-16.3-4l-.1-.2a61 61 0 0 1 .6-9.9v-.2l.3-2.8c0-1 0-1.9.2-2.8l1 .1a35.4 35.4 0 0 1 8.3 2.2Zm16.8 6-.6.4s-.2.1-.2.3l-.3.5-1 1.4a89.4 89.4 0 0 0-4 7.6 61.4 61.4 0 0 0-2.4 5.1l.1.2h.1l.2.2h.4l.1.2.2.1v.1h.1l.1.1h.1l.1.1h.4l.2.1.4.2.3.2.4.2 1.5 1.1c1.7 1.4 3 3 4.1 4.6A197.4 197.4 0 0 1 185 96h.3l.2.2c.5 0 .9 0 1.2-.3a32 32 0 0 0 3.9-2.3 93 93 0 0 1 6.4-3.9c1.1-.6 2-1.5 2.7-2.5a20 20 0 0 0-4.7-8.2 60.1 60.1 0 0 0-8.3-8.4 11.5 11.5 0 0 0-5.7-3Zm.8 1.9h.2a40.3 40.3 0 0 1 11 9.8 23 23 0 0 1 5 7.6 31.4 31.4 0 0 1-5.7 3.7 65.7 65.7 0 0 0-5 3.1 27.1 27.1 0 0 0-1.5.8l-.5-.8a68.4 68.4 0 0 1-3-5A83.2 83.2 0 0 0 180 86l-.6-.6-1.8-1.6a15.6 15.6 0 0 0-2.4-1.4H174.8v-.1h-.2l-.1-.1h-.2a49 49 0 0 0 4-7.4 32.7 32.7 0 0 1 3.2-5.5h.3Zm-144.6 9h-.5l-.5.8-1.4 2.5A47.9 47.9 0 0 1 33 84v.2l.2.1v.1h.4l.6-.7c.7-.7 1.2-1.4 1.7-2.3l1.4-2.6v-.2l-.1-.1Zm.6-2.3V76h-.3a204.7 204.7 0 0 1-4.5 4c-1.5 1.3-3 2.6-4.7 3.6h-.4l-.1.1-.1.2v.2l.1.1h.1v.1a1.9 1.9 0 0 1 .3 0h.3c1.3-.7 2.4-1.5 3.5-2.5l1.5-1.3a55.1 55.1 0 0 0 4.5-4.2v-.1l-.2-.1Zm2.6 0V76h-.6v.1a25.4 25.4 0 0 1-1 4l-.6 3V83.5h.2v.1h.4v-.1a31.7 31.7 0 0 1 1-4 16 16 0 0 0 .6-3.3Zm18.1-.6.2-.1V75a8.5 8.5 0 0 0-2.7-1.5c-2-.6-4-.5-5.9.4a44 44 0 0 1-4.3 1.7c-1 .4-1.8 1-2.3 1.9v.1l.2.1h.1v.1H44.1v-.1h.1v-.2h.1a6 6 0 0 1 2-1.2l1.5-.6c1.4-.8 2.8-1.3 4.3-1.6 2.2-.4 4.2 0 6 1.4h.4Zm14.8 3h.2l.1.1H74v-.1l.1-.1v-.1a2 2 0 0 0-.8-1.2c-1.8-1-3.7-1.8-5.7-2.4a15.8 15.8 0 0 0-6.2-.3v.5h.1c.2.1.3.2.4.1 1.8-.1 3.6 0 5.4.5l2.7.8a9 9 0 0 1 3.4 2.1Zm-4-71.6V7h-.1V7.4l.7 1.5a103 103 0 0 0 4.8 8c.3.3.3.8 0 1.2a13.4 13.4 0 0 1-2.7 3V21.3h.1v.2h.4l1-.7a6 6 0 0 0 2.1-3.2c.2-.4 0-.8-.2-1.1l-2.3-3.8A362.8 362.8 0 0 0 69.7 7h-.4ZM239.6 75l.1-.2v-.2l-.1-.2h-.2a21 21 0 0 0-6.5.5 9.5 9.5 0 0 0-4.5 2.5v.4h.1l.2.1h.2l.9-.7 1.3-.8a10.6 10.6 0 0 1 3-1 18 18 0 0 1 5.3-.3h.2Zm17.8 1.7v-.2l-2-.6a2 2 0 0 1-.7-.3c-1.5-.8-3-1.3-4.7-1.5a21.4 21.4 0 0 0-6.5.5l-.1.2V75.2l.2.1 1.4-.1c2-.4 4-.4 6-.1.4 0 .7.2 1 .4a14.5 14.5 0 0 0 5.2 1.7h.1v-.2h.1v-.2Zm3.9-.2-.2.1v.1c0 .4 0 .7.2 1 .4 1 .8 1.9 1 2.9a56.5 56.5 0 0 0 1 3.2h.5v-.1l.1-.1a67.4 67.4 0 0 0-2.1-7h-.1a14.3 14.3 0 0 1-.1-.1H261.2Zm4.5 2.5v-.4h-.1l-.1-.1h-.4c-.2.3-.2.5-.1.8a33.2 33.2 0 0 0 2.6 5.2h.4v-.1h.1V84a18.7 18.7 0 0 1-2.5-5Zm-.4-2h-.4v.2l-.1.2v.1l.2.1a249 249 0 0 1 4.2 4c1.2 1.2 2.5 2.2 3.9 3.2V85.2H273.9V85l.1-.2v-.2c-.2-.4-.5-.7-1-1-1.3-1-2.6-2-3.8-3.2a49.2 49.2 0 0 0-3.7-3.5Z"/><path fill="#333" d="m153 107.9-4 2.2a603.4 603.4 0 0 0-10.5 6.1v1c.7 1.8 1.7 3.4 2.9 5a14.8 14.8 0 0 0 7 4.5h.2a29.5 29.5 0 0 1 3-3.9 182.8 182.8 0 0 0 10.4-14.3 93 93 0 0 1 7.5-10.2 37.8 37.8 0 0 1-9 5.4 63.2 63.2 0 0 0-7.6 4.2Zm-.4 7c.2.9 0 1.6-.4 2.3-1.1 1.4-2.4 1.5-3.8.4-.9-.6-1.1-1.4-.8-2.3.5-1.7 1.7-2.3 3.5-1.9a2 2 0 0 1 1.5 1.6Z"/><path fill="#E00" d="m99 118.1-2 .2c-.3 3 0 5.8.7 8.7a73 73 0 0 0 2.8 8.4 39.3 39.3 0 0 0 3.7 7.2l.1.2v.2h.1a1676.3 1676.3 0 0 1 6.7-4.3 769.7 769.7 0 0 0 7-5l.1-.1c-1.1-2-2.2-4-3.1-6.3-.9-2.4-1.7-4.7-2.3-7.1-.2-.6-.3-1.2-.2-1.9-2.2-.6-4.5-.9-6.8-.7l-6.8.5Z"/><path fill="#ED5901" d="M104.7 91.6a20 20 0 0 1-2-.9 31.8 31.8 0 0 0-3.8 7.5 39.3 39.3 0 0 0-2 15.6 26 26 0 0 1 7.6-.2 48 48 0 0 1 7.7 0 34.1 34.1 0 0 1 1-8l.4-2.2c.2-1.4.7-2.7 1.4-4l.1-.4c0-.3 0-.5.2-.8V98l-.5-.4-.5-.5a18.5 18.5 0 0 0-9.5-5.5Z"/><path fill="#F58600" d="M121.7 68.7v-.2a7.7 7.7 0 0 0-5.8 3.5c-.6 1-1.3 1.8-2.1 2.5a90.7 90.7 0 0 0-6 6.8 25.1 25.1 0 0 0-3 4.8l1.6 1 6.1 3.6c2 1 3.7 2.4 5.4 3.9a971.7 971.7 0 0 1 4.7-7.8 28.6 28.6 0 0 1 6.1-4.6c-.7-1.4-1.6-2.7-2.5-4a51.1 51.1 0 0 1-2.8-4.9 111.4 111.4 0 0 1-1.7-4.6Z"/><path fill="#04AA02" d="M191 119.8c-.4 2.2-.9 4.2-1.6 6.3a99.8 99.8 0 0 1-3.2 8 23 23 0 0 0 7 4.5 570.5 570.5 0 0 1 6 2.9l3-7.7a64.3 64.3 0 0 0 2.6-9c.7-2 1-4 1-6-.8-.5-1.7-.6-2.7-.5l-1 .2a172.2 172.2 0 0 1-10.5.8l-.2.1v.2l-.2.2h-.2Z"/><path fill="#74D317" d="m193 95.6-2.7 1.1c-.3.3-.7.5-1 .6l-1 .5-.6.5.7 1.6a33.4 33.4 0 0 0 .9 2.1c.6 1.5 1 3.1 1 4.8a551.7 551.7 0 0 0 .5 6.9c2.1-.3 4.3-.4 6.6-.3a91.3 91.3 0 0 0 8.9.2 79.3 79.3 0 0 0-1-9.2 137.8 137.8 0 0 1-2.4-7.1 12.8 12.8 0 0 1-1.5-5.4l-.1-.2-.1-.1-.2-.1-.2-.2a50.8 50.8 0 0 1-5.9 3.2l-1.9 1Z"/><path fill="#FBC200" d="m149.5 65.7-.2-6.3a114.5 114.5 0 0 1-16.5 3.7c-1 .2-2 .5-2.9 1.1a132 132 0 0 1-4.3 2.7 41 41 0 0 1 3.4 5.8 126 126 0 0 0 3.9 7.1 22.6 22.6 0 0 1 10.6-4c2-.3 4-.5 6-.5a139812.6 139812.6 0 0 0 0-9.6Z"/><path fill="#FFF001" d="M165.3 61.9a148 148 0 0 1-10.5-2.7 100.8 100.8 0 0 0-.4 5.7v.1a107.4 107.4 0 0 0-.6 9.9v.2a27.2 27.2 0 0 1 10.3 1.8 115.2 115.2 0 0 0 6 2.2 35.7 35.7 0 0 1 4.5-8.2 66 66 0 0 0 2.2-4.6 39.4 39.4 0 0 1-.3-.4c-1.6-1.2-3.4-2-5.3-2.6l-5.9-1.4Z"/><path fill="#DBE105" d="M182 69.4H181.7l-.1-.1h-.1a32.7 32.7 0 0 0-3.2 5.5 48.7 48.7 0 0 1-4 7.4h.5v.1h.4l.1.2h.1A15.6 15.6 0 0 1 180 86a20.6 20.6 0 0 1 4 5.3 70.2 70.2 0 0 0 1.8 3l.5-.2a27.1 27.1 0 0 1 1.5-.7l4.5-2.9a60 60 0 0 0 5.7-3.7 23 23 0 0 0-5-7.6l-1-1.2a40.3 40.3 0 0 0-10-8.6Z"/></svg>