<svg xmlns="http://www.w3.org/2000/svg" width="166" height="147" fill="none" viewBox="0 0 166 147"><g clip-path="url(#a)"><path fill="#000" d="M90.24 145.1h.07zm92.81-94.43a2 2 0 0 0-.4.26l-.17.16-.15.18-.49.86a16 16 0 0 1-4.03 4.59 20 20 0 0 0-3.1 2.92q-2.3-.76-4.66-1.48a46 46 0 0 0-14.59-2q-9.4.22-17.2 5.43a79 79 0 0 1-12.94 6.97l-.3-.56q-.86-1.46-1.28-3.08a66 66 0 0 1-1.28-6l-.09-.1-.1-.09-.1-.08-.12-.05-.25-.09h-.25l-.14.02-.12.03q-.82.56-1.33 1.4-.56.92-.99 1.91a6 6 0 0 0-.3 4.15q.37 1.2.66 1.91a18 18 0 0 1-2.61-8.16 3 3 0 0 0-.25-1.08 27 27 0 0 0-4.12-6.8q-1.47-1.77-2.78-3.66a22 22 0 0 0-6.1-5.89l-.1-.01h-.13l-.11.01-.12.02-.12.05-.3.2-.07.08-.13.2q-.15 1.23.6 2.31a18 18 0 0 1 2.77 6.2 28 28 0 0 1 .8 6.91 12 12 0 0 0-3.98-6.25q-1.44-1.2-2.97-2.31a299 299 0 0 1-6.19-4.59l-.1-.04-.12-.03-.12-.01a1 1 0 0 0-.46.08l-.21.1-.1.08q-.08.08-.14.18l-.1.2q-.05.1-.08.22.04 1.26.74 2.34a12 12 0 0 1 1.45 3.38q.6 2.31.65 4.7a6 6 0 0 0-2.7-3.13 173 173 0 0 1-7.32-4.53 15 15 0 0 1-5.65-6.64l.05-1q.04-.55.14-1.11.07-.4.23-.77l.01-.12a1 1 0 0 0-.07-.44l-.1-.24-.19-.2-.1-.06-.12-.08-.24-.06-.11-.01-.12-.01q-.06 0-.12.02l-.12.03-.11.04-.1.04a8 8 0 0 0-1.92 3.26q-.64 2.04-1.11 4.12a15.6 15.6 0 0 0 2.98 13.26q1.35 1.67 2.5 3.47a10.2 10.2 0 0 1 1.43 7.9l-.06.03-.46-.67-1.05-2.62q-.78-1.93-1.25-3.94a10.1 10.1 0 0 0-4.4-6.34 6 6 0 0 1-.7-.53q-1.2-1.05-2.3-.25-.25.18-.17.45.85 3.06 1.68 6.18.38 1.38.68 2.78.99 4.5.21 9.02-.6-1.19-1.58-2.11a12.8 12.8 0 0 0-8.65-3.56l-.13.04-.12.06-.12.07-.1.07-.16.2-.06.12-.05.12-.03.13-.01.14.01.12.01.13a1 1 0 0 0 .17.36l.08.11a8 8 0 0 1 3.71 6.01l.16 1.26q.18 1.28.62 2.48-1.5 1.36-2.95 2.83-4.28 4.35-8.68 8.4l.03-1.97q.03-1.5-.01-3-.26-9.08-1.4-18.15a292 292 0 0 1-1.74-18.12q-.52-8.24.32-16.43l.2.04.44.02.27-.05.25-.07q.36-.18.63-.48.37-.4.83-.7t.95-.47l.49-.07a9 9 0 0 0 .94-.15 3 3 0 0 0 .52.06h.25l.27.02h.12l1.78.49q2.65.7 5.33 1.25 2.74.56 5.56.62l.2-.03a2 2 0 0 0 .8-.43l.16-.16.13-.23q.86-.47 1.58-1.22.59-.64 1.21-1.25a5.7 5.7 0 0 0 2.56 2.36q1.89.9 3.73 1.87l.23.05.24.03h.24a2 2 0 0 0 .68-.2l.2-.16q.11-.07.2-.17.3-.32.42-.73.73-2.2.28-4.55a42 42 0 0 1-.61-4.38l1.45-.82q.16-.21.28-.45.12-.22.2-.47a4 4 0 0 0-.16-1.04l-.15-.23-.13-.16-.18-.16v-.15q.06-4.12-.36-8.27a184 184 0 0 1-.62-8.55v-.14l-.01-.14-.04-.92a3 3 0 0 0-.24-.48l-.13-.17-.15-.14-.2-.12a2 2 0 0 0-.38-.18l-.2-.07a3 3 0 0 0-.54.01l-.26.06-.25.1-.38.27-.13.12-.88.05a732 732 0 0 1-19.07 1.13q-9.3.43-18.55 1.19-2.25 1.28-4.1 3.16a27 27 0 0 0-6 9.45 23.6 23.6 0 0 0-1.42 11.76 34 34 0 0 0-1.8 5.6 108 108 0 0 1-5.61 17.38q-3.01 7.15-6.1 14.28a134 134 0 0 0-6.12 17.3q-.6 2.13-1.5 4.14a49 49 0 0 0-4.42 18.32q-.04.65.09 1.21a303 303 0 0 1 3.11 18.63q.27 1.97 1.08 3.8v.31l.03.45-.1.39-.02.43.04.21.14.37.02.09a2 2 0 0 0 .33.58 2 2 0 0 0 .56.42q.13.05.26.08.25.04.52.03h.04q.9.48 1.75 1.01 3.73 2.25 7.26 4.76a47 47 0 0 0 8.43 4.72 5 5 0 0 0 2.53 1.72 21.5 21.5 0 0 0 9 .8q5.15-.63 10.28-1.36h-.12.14q.46-.03.93-.1 1.08-.14 2.2-.25a8 8 0 0 0 2.16-.56 17 17 0 0 0 5.58-3.04q1.45-1.18 2.88-2.38a23 23 0 0 0 7.75 3.43q2.85.7 5.7 1.32a71 71 0 0 0 11.43 1.54h.14l.27.02h.28l.23.01q.83.03 1.67-.01 2.88-.15 5.74-.45a35 35 0 0 1 5.7-.13h.16q1.8.1 3.6-.06 5.3-.48 10.38-2.08 5.07-1.6 10.01-3.57a41 41 0 0 0 4.57-1.92 96 96 0 0 0 10.68-6.2 37 37 0 0 0 6.46-5.45 1.7 1.7 0 0 0 1.17-.2 4 4 0 0 0 .57-.52 41 41 0 0 0 3.3 7.92 54 54 0 0 0 18.22 19.7 41 41 0 0 0 16.77 6.2h.2l.23-.04a2 2 0 0 0 .43-.16l.2-.12a2 2 0 0 0 .54-.66l.07-.2.05-.22q.03-.12.02-.27 0-.12-.02-.23l-.05.04a1 1 0 0 1-.37.18l-.14.01-.12.02-.13-.03a1 1 0 0 1-.36-.13l-.1-.08-.1-.08-.08-.1a1 1 0 0 1-.14-.24l-.18-1.16-.16-.04a159 159 0 0 1-4.35-.87l-.25-.07-.06-.03-.64-.2a48 48 0 0 1-15.06-8.68 51 51 0 0 1-11.24-13.68 35 35 0 0 1-4.72-18.76l-.24-.49-.13-.16-.15-.15-.37-.22-.2-.08-.21-.06a3 3 0 0 0-.54 0l-.25.06-.25.1-.39.28a2 2 0 0 0-.3.33q-.46 1.5-.37 3.08.18 2.88.74 5.64l-.39.28a1 1 0 0 0-.3-.03 2 2 0 0 0-.44.04 2 2 0 0 0-.4.14 49 49 0 0 1-8.6 7.24 79 79 0 0 1-16.36 8.39 69 69 0 0 1-22.28 4.4 1063 1063 0 0 1-12.41.38q-4.79-.37-9.52-1.18a58 58 0 0 1-5.27-1.17q-3.69-1-7.02-2.78a88 88 0 0 0 4.78-4.49l.24-.48.06-.24a4 4 0 0 0 0-.53l-.07-.26-.1-.25-.27-.4-.16-.14a1 1 0 0 0-.36-.22l-.41-.14-.28-.01-.26.01a100 100 0 0 0-5.56 4.56 132 132 0 0 1-6.03 5.03 9.5 9.5 0 0 1-4.3 1.93q-4.6.8-9.17 1.87a24 24 0 0 1-13.38-.62l-.54-.5q-1-.92-2.2-1.58-1.25-.67-2.6-1.12l-.04-.02a30 30 0 0 1-5.78-3.72q-1.34-1.1-2.84-1.95a142 142 0 0 0-4.77-2.63q-.03-1.22-.44-2.4a29 29 0 0 1-1.3-5.7l.1.44q-.11-.59-.2-1.15-.57-3.37-1.03-6.78-.45-3.46-1.74-6.7.32-1.17.48-2.36a8 8 0 0 0-.14-2.9q.21-1.17.54-2.27a225 225 0 0 1 3.52-10.98q2.2-6.27 4.47-12.51a472 472 0 0 1 7.06-18.27q2.47-6 4.51-12.15 3.1-9.33 6.1-18.66v-.43l-.03-.22-.06-.2a3 3 0 0 0-.5-.7l-.17-.14-.12-.05q.12-3.47 1.35-6.74a48 48 0 0 1 3.9-7.98q.25-.26.57-.46.92-.62 1.64-1.47A6 6 0 0 1 44.9 8.2q2-.24 4-.4a62 62 0 0 1 4.42-.2q4.5-.06 8.99-.33a452 452 0 0 1 15.02-.66 221 221 0 0 1 4.22-.36q.23 3.26.54 6.5a73 73 0 0 1 .26 9.08l-.05.22-.04.23-.5.25q.22-1.95-.15-3.92l-.9-5.1-.09-.2-.1-.18a2 2 0 0 0-.48-.44l-.18-.1a2 2 0 0 0-.42-.13l-.22-.04-.45.05a2 2 0 0 0-.6.26 2 2 0 0 0-.43.47l-.1.2-.09.18-.03.43q.14 1.8.5 3.57a28 28 0 0 1 .48 4.56l-.12.19-.1.19-.08.19-.06.41-.02.22q.03.14.08.26a2 2 0 0 0 .22.47l.23.33q-.42.33-.83.7l-.06-.14-.2-.45-.1-.6q-.1-.6-.11-1.2 0-.53-.15-1.04l-.1-.2-.26-.37a4 4 0 0 0-.53-.37l-.2-.07-.21-.06-.22-.01h-.22l-.25.05-.5.2-.2.16-.31.38-.11.19q-.21.55-.17 1.15.08 1.08.26 2.14a5 5 0 0 0 1 2.25l.16.16.1.06q-.7.6-1.4 1.15l-.3-1.46q-.44-2.19-.63-4.38l-.21-.38-.14-.17-.17-.14a2 2 0 0 0-.38-.22l-.4-.16h-.22q-.24 0-.47.07-.26.06-.5.17l-.2.16-.32.37-.11.2q-.16.39-.14.84.12 2.13.54 4.25.29 1.48.65 2.94l-.03.02q-2.8 0-5.36-.97a29 29 0 0 0-4.68-1.33q-4.78-.93-8.03 2.35l-.1-.05-.42-.12-.4-.05a7 7 0 0 0-.77.26l-.16.11-.15.14-.14.15-.12.16q-1.35 7.07-.97 14.26.48 8.85 1.35 17.69.89 8.96 1.82 17.91.12 1.24.08 2.44-.06 1.15-.08 2.3l-.15.13-.16.15a3 3 0 0 0-.47 1.76q.17 5.95-1.23 11.73a63 63 0 0 1-4.64 12.84l-.32.37-.3.34a3 3 0 0 0-.22.56l-.01.2q0 .2.03.4.04.2.12.4l.19.35.13.16.14.13.18.12.18.11.2.07.43.08h.22a2 2 0 0 0 .68-.23 5 5 0 0 0 1.45-1.75 62 62 0 0 0 5.45-16.93q5.28-4.3 10.04-9.3 1.07-1.1 2.17-2.2a.9.9 0 0 0-.07.81 11 11 0 0 0 .72 1.47q1.3 2.4 2.76 4.73 2.5 3.97 6.05 7.02a58 58 0 0 0 7.48 5.48q.88.54 1.78.97l-3.9-.65-.48.24-.16.14-.15.15-.12.19-.1.18a2 2 0 0 0-.13.42q-.03.09-.03.19l.01.2.03.2.05.2.08.18q.03.1.1.18l.1.18q.08.08.13.15l.16.14.15.12q5.65 1.34 11.43 2.21 8.9 1.35 17.9 1.63 8.95.3 17.76-1.42a32 32 0 0 0 6.35-2.87 43 43 0 0 0 5.46-3.8q3.7-3 7.52-5.83l.22-.38.06-.2q.04-.1.06-.2l.02-.21v-.22l-.03-.21a2 2 0 0 0-.16-.41l-.12-.2a2 2 0 0 0-.68-.54 2 2 0 0 0-.63-.15l-.22.01-.2.02q-5.78 4.53-11.9 8.58-2.07 1.36-4.39 2.24a41 41 0 0 1-12.92 2.6 97 97 0 0 1-19.71-1.25q2.23-.2 4.42-.73 1.75-.5 3.4-1.3a27 27 0 0 0 5.1-3.15 116 116 0 0 0 8.68-7.51 18 18 0 0 0 4.67-7.25 66 66 0 0 0 2.79-11.19 47 47 0 0 1 6 3.87l.41.1q.22.03.45 0 .21 0 .42-.06a4 4 0 0 0 .46-.28q.1-.07.18-.17l.17-.2.12-.24q.06-.1.09-.24.04-.12.05-.26l.02-.26q0-.12-.04-.26a3 3 0 0 0-.2-.49l-.13-.22q-1.53-1.08-3.06-2.24a36 36 0 0 0-4.77-3.02q-.04-.45-.13-.9 3.03-1.2 6.02-2.54a28 28 0 0 0 5.41-3.25 31 31 0 0 1 11.98-5.66q3.27-.74 6.58-.63a60 60 0 0 1 16.86 3.01l.2.5.35.38q.09.08.18.13l.19.1q.1.06.2.07l.42.08h.22q.12 0 .23-.04l.24-.07.2-.1.2-.1.26-.32q1.39-1.84 3.21-3.3a28 28 0 0 0 4.3-4.28q.12-.01.22-.05l.2-.1.21-.1.17-.14.16-.16.22-.3a13 13 0 0 0-.6-1.83q-.15-.36-.18-.76l.03-.12.02-.13.05-.12.06-.11.07-.12.09-.09.1-.07a1 1 0 0 1 .24-.14 1 1 0 0 1 .25-.05h.07l-.1-.12q-.14-.15-.32-.26l-.38-.21-.21-.05h-.45zM78.4 22.32l.05-.05.01-.02-.01.03zm2.93 4.55.09.78q.17 1.58.42 3.15l-.34-.18q-.52-.27-1.03-.52a3 3 0 0 1-.87-.62 1 1 0 0 1-.13-.2.4.4 0 0 1-.02-.2 1 1 0 0 0 .04-.46l-.1-.4zm-3 17.9a18 18 0 0 0 5.5 5.65q1.68 1.11 3.38 2.18.66.42 1.37.75 2.47 1.14 4.18 3.18.16.37.28.78.38 1.36.62 2.74a15 15 0 0 1 .22 2.84l-.05.42a1 1 0 0 0 .05.52l.06.12.07.12.18.19.1.07a1 1 0 0 0 .24.1l.1.04.13.01h.12q1.14-.43 1.46-1.76.77-3.2.65-6.55a20 20 0 0 0-1.42-6.92q2.6 2.06 5.22 4.08 3.9 3 4.18 7.95.09 1.7 1.53 2.17.27.1.43-.13a9.5 9.5 0 0 0 1.69-5.6 30 30 0 0 0-1.53-9.25q.54.8 1.13 1.57l3.26 4.22q1.7 2.2 3.12 4.59.24 3.45 1.27 6.77.18.63.44 1.21.26.05.56.32a3.6 3.6 0 0 1 1.09 1.44l.28.69q.17.4.44.92l.44.27q.22.15.54.4l.52.4q.33.27.8.72l1.45 1.34q.19-1.15.23-1.73v-1.37q0-.33.02-.6l-.25.08a29 29 0 0 1-2.09-5.07 7 7 0 0 0 .46-1.29l.21-.78q.2 1.17.49 2.32.3 1.19.99 2.22t1.11 2.15l-.11.05q.12.3.17.53a11 11 0 0 1 .32 1.84l.18 1.36q.08.73.08.93a9 9 0 0 1-.07 1.44l.16.07q-.14 3.15-1.02 6.2-.68 2.28-1.33 4.54-.37 1.31-1.09 2.66.18-.68.3-1.35.2-1.1.25-2.2.1-2.53-.88-4.95a5 5 0 0 0-.64-1.17 18 18 0 0 1-2.93-6.14l-.08-.1-.1-.1-.23-.13-.1-.04h-.61l-.05.02-.12.05-.12.07-.1.09a1 1 0 0 0-.16.2 1 1 0 0 0-.1.23l-.04.12-.02.14-.02.14-.03.04q-.2.26-.36.56l-.45.8a6 6 0 0 1-.52.82q-.45-2.03-.8-4.1l.29.06q-.35-.8-.68-2.11l-.21-.79q-.21-.58-.28-.9l-.06-.56q-.27-.48-.66-.9a9.6 9.6 0 0 0-5.5-3.06l-.12.02-.13.05-.12.05-.1.06-.12.09-.15.2-.06.1q-.1.24-.09.5a11.6 11.6 0 0 1 1.6 5.67 8 8 0 0 1-.2 1.01q-.04.05-.1.05a.1.1 0 0 1-.1-.04 1 1 0 0 1-.12-.2l-.05.4v-.54l-.61-1.63a26 26 0 0 0-1.03-2.51 15 15 0 0 0-1.66-1.63 8 8 0 0 0-4.5-1.98l-.14.02a1 1 0 0 0-.25.1l-.22.15-.08.1-.08.1-.07.12-.03.13-.04.12-.01.13v.13l.06.36-.01.13v.1l.02.14-.01-.03q.07.31.06.66 0 .33.08.64a2 2 0 0 1 .18.54l.1.2-.05-.02.19.56.17.58.1.53q0 .04.24.64.15.38.1.65-.04.28-.03.33l.03.15h.02v.07q.07.15.07.21a.4.4 0 0 1-.13.39.5.5 0 0 1-.37.14q-.3-.05-.56-.47-.6-1.02-.95-1.51a19 19 0 0 0-1.74-2.03l-.5-.46q-1.14-.8-2.44-1.42a3.2 3.2 0 0 1-1.37-1.17 14 14 0 0 1-1.95-4.32l-.09-.08-.18-.14-.1-.05-.12-.03-.11-.03h-.24q-.15 0-.32.07-.16.07-.28.18a1 1 0 0 0-.21.26q-.6 2.52-.8 5.1a7 7 0 0 0 .42 2.98l-.17.06.15.3.14.42.17.36q.43.84.62 1.49.15.5.1.82.3 1.29.5 2.59a9 9 0 0 0-.8-.84 6 6 0 0 0-1.9-1.18l.45-.15-.12-.12-.2-.08-.2-.05a.7.7 0 0 1-.33-.35l-.18-.46q-.16-.25-.25-.43.1-.42.17-.85.18-.94-.6-1.21 0-.14.05-.27v-.02q.18-3.24-1.34-6.27a6 6 0 0 0-1.04-1.5 19 19 0 0 1-4.37-7.63q-1.34-4.6.22-9.22.33.58.67 1.12m-2.94 14.9q.2.16.36.36.4.85.72 1.75l1.78 5.04a52 52 0 0 0 1.5 3.72q.22.57.7 1.05.21.21.3.47.36.95 1.07 1.6.88.53 1.66-.25.56 1.13.89 2.34.44 1.6.57 3.3.09 1.05-.08 1.5l-.43-.45v-.01h-.02l-.08-.09.03.03-.08-.09-.3-.3q-.93-.92-1.98-1.67a3.2 3.2 0 0 0-2.42-.56l-.12.05-.12.07-.18.18-.08.11-.07.11q-.21.66.14 1.25a53 53 0 0 1 1.77 3.23q.88 1.75 1.1 3.48.06.27 0 1.18-.07.9.06 1.77.13.81.1 1.16l-.31-.04-.64-.07-.62.01-.12.05-.12.05-.12.07-.2.18-.06.11-.07.11a3.5 3.5 0 0 0-.01 2.15q1.43 4.61 5.39 7.26a29 29 0 0 0 8.38 3.82q3 .83 6 1.64l-.58.1a22.5 22.5 0 0 1-9.32-.3q-1.14-.3-2.19-.76a35 35 0 0 1-7.6-4.76 47 47 0 0 1-3.39-3.04 35 35 0 0 1-5.7-7.36q.66.36 1.29.79 1.11.75 2.4 1.18 1.11.38 2.24.15l.11-.08.1-.08.08-.1.09-.1.05-.11.08-.26.01-.13-.01-.13q0-.06-.02-.12a1 1 0 0 0-.1-.24l-.86-1.07a68 68 0 0 1-2.74-3.42q-1.3-1.72-2.57-3.47l-.12-.3.15-.11-.08-.09-.28-.23a1 1 0 0 1-.21-.37l-.1-.43a7 7 0 0 0-.3-.7 3 3 0 0 1-.26-.7l-.06-.32q-.1-.23-.12-.35v-.01l-.07.06a10 10 0 0 1-.33-1.33q-.07-.48-.17-.96a19 19 0 0 0-.65-2.71 10 10 0 0 0-1.12-2.39q1.13.48 2.19 1.13a7 7 0 0 1 2.4 2.35q.17.08.3.23.1.13.18.33l.13.36.66 1.97q.4 1.19.5 2a13 13 0 0 0 1.8 2.9l.12.06.12.05.13.03.12.02h.15l.25-.06a1 1 0 0 0 .24-.14l.1-.08.1-.1.07-.1.05-.13q.08-.15.08-.22l.02-.25.07-.36q.05-.2.03-.4a1 1 0 0 0-.13-.38l-.25-.38a1 1 0 0 1-.2-.35l-.1-.56-.04-.02q-.23-.15-.24-.67l-.02-.59q0-.08-.03-.14l.03-.03-.02-.74q0-.55-.06-.8l-.1-.68a32 32 0 0 0 .09-1.63q.1-.55.08-.83l-.05-.53q-.01-.29.08-.63.11-.42.28-.56 0-1.7-.2-3.4a52 52 0 0 0-1.8-8.93l.05.06.42.38zm12.67 6.07.02-.15a7 7 0 0 1 .17-.86q.21.45.57.78.48.45.97.85a1 1 0 0 1 .42-.15.8.8 0 0 1 .62.2l.23.27q.15.18.27.25t.4.15q.35.1.86.61 1.08 1.1 1.27 1.26.3.25.89.7.56.4.74.61.35.4.37.8a9 9 0 0 1 1.36 3.78l.08.13.08.1.09.09.11.07.12.05.11.06.13.03a1 1 0 0 0 .48-.03l.1-.05.11-.06.1-.07.09-.07q.44-.73.8-1.52.66-1.44.89-3h.03q.06-1.2-.03-2.27a4 4 0 0 0-.2-.93h-.05a5 5 0 0 0-.77-1.27v-.06l-.03-.3-.01-.14.42.27q.86.49 1.58 1.08.34.1.67.4.88.74 1.48 2.2a11 11 0 0 1 .66 2.77q.05.44.03.66 0 .4-.2.83-.18.38-.43.54v.02a7 7 0 0 0-.3 1.03l.01.13a1 1 0 0 0 .05.25q.02.07.06.13l.07.1.08.11.1.09.1.07.1.05.12.05.1.04a4.4 4.4 0 0 0 3.15-2.6 8 8 0 0 0 .68-2.48 10 10 0 0 1 .11-1.86l.2-.8.06-.32-.03-.33v-.12q-.12 0-.25-.02-.04-.72-.14-1.46.33.15.66.35.8.48 1.3 1.25l-.23-.02q.17.15.25.26.1.14.23.48l.4 1.12q.09.21.13.42.03.17.03.48l.13.4.05.35.19.02.05.44q.2 2.47.7 4.65v-.05l-.03.57v.27l.05.12.06.13.06.1.09.1q.12.15.3.24.2.1.39.17.27.1.55.1.45-.08.89-.29.6-.3 1.07-.77.42-.41.67-.98.4.77.93 1.45a13 13 0 0 1 1.86 3.53q.57 1.71.94 3.45-.12.54-.2 1.07-.3 1.7-.75 3.4-.45 1.59-1.26 3.06l-.4.52a4 4 0 0 0-.38.74q-.18.42-.15.86a136 136 0 0 1-3.52 3.16q-.07-.4-.19-.8a6 6 0 0 0-.76-1.75q.9-2.18-.03-4.37-.26-.6-.53-1.16a10.4 10.4 0 0 0-3.21-3.93l-.14-.01-.25.01-.23.1-.18.13-.18.15q-.15.24-.23.55-.06.36.02.71l.18 1.02a4 4 0 0 1-.17.89l-.27-.57a5.5 5.5 0 0 0-3.51-2.85 22 22 0 0 0-4.9-.8l-.12.05q-.12.06-.22.13l-.2.16-.08.12-.06.11-.05.12-.03.13v.15q-.02.08 0 .14 0 .07.03.14 0 .08.04.14.18.3.43.56.87.93 1.26 2.1.36 1.15.43 2.34l-.24-.2q-.92-.63-1.93-1.12a5 5 0 0 1-1.58-1.2l-.06-.33a3 3 0 0 0-.35-.93l-.34-.63-.08-.09a1 1 0 0 0-.25-.21 1 1 0 0 0-.87-.08l-.19.11a1 1 0 0 0-.18.16l-.16.19-.05.1-.04.1-.02.13v.23a6 6 0 0 0 .78 2.3q.1.69.08 1.38-.08 3.02-1.5 5.67a7 7 0 0 0-.34.77q-.84 2.27.32 3.68a36 36 0 0 1-5.28-2.34 11 11 0 0 1-5.57-6.95q.6.24 1.12.63.66.51 1.26 1.08.45.43.93.66l.12.02.12.02h.15l.25-.06.12-.06.12-.07q.12-.1.23-.24.09-.14.13-.32a1 1 0 0 0 .05-.32 1 1 0 0 0-.08-.33l-.53-.83-1.27-1.87q-.6-.9-.75-1.92.1-.53.13-1.04.07-1.6-.26-3.18a9 9 0 0 0-1.24-3.09 7 7 0 0 1 1.27 1.55q.37.75.49 1.6l-.01.42q0 .13.05.25.02.07.06.13l.15.21.09.09.1.08.12.05.11.06.13.02.14.02h.13l.14-.03a1 1 0 0 0 .35-.17l.1-.07q.37-.46.53-1.03.57-2.19.44-4.48a41 41 0 0 0-.49-4.3q.45.54.83 1.14.84 1.35.97 2.94.1 1.35 1.09 2.09a1 1 0 0 0 .35.05q.12 0 .22-.04l.24-.08.1-.07.1-.08.09-.09.08-.11q.62-1.68.34-3.44-.45-2.64-1.05-5.28a11 11 0 0 0-.43-1.43l.14-.02-.02-.15-.06-.44a6 6 0 0 0-.26-.95q-.14-.44-.5-1.29a2 2 0 0 1-.14-.55l-.12.02q-.23-.99-.4-1.99M73.33 88.46l-.74-.54q-.45-.36-.97-.58a4 4 0 0 1-1.02-.64l-.08-.14a6 6 0 0 1-.5-.77 2 2 0 0 0-.31-.37l-.1-.07-.1-.06-.13-.05-.13-.02-.14-.02h-.13l-.13.02-.12.05h-.08l-.08-.06q-.08-.08-.18-.14a1 1 0 0 0-.4-.16 1 1 0 0 0-.45.02l-.2.08q1.03-.99 2.1-1.95a35 35 0 0 0 3.9 5.4m14.58 10.72.05.04-.08-.05zm.17.12q.03 0 .05.03h-.01zM98 86.67v.01m-2.3 8.35q.47-1.74.59-3.54l.13.07 1.1.59q.55.3 1 .69l.1.13q.15.22.31.4.13.15.04.28l-.03.12a1 1 0 0 0 .02.35q.04.18.13.32.1.15.22.27l.1.05a1 1 0 0 0 .24.1l.12.03.13.02h.13l.13-.02.13-.05.12-.04.12-.08.1-.08q.14-.15.24-.31a6 6 0 0 0 .93-3.46 10 10 0 0 0-.84-3.55l.34.09 1.14.24q.64.13 1.24.34l.22.2a4.7 4.7 0 0 1 1.32 2q.35 1.05.37 2.14l-.04.12a1 1 0 0 0-.05.37l.02.1.04.13.09.21.07.1a1 1 0 0 0 .16.18l.1.07.12.05.12.05.12.04h.27l.25-.05.13-.06q.18-.09.31-.24.71-.71 1.07-1.66.39-1.05.66-2.15l.09.14q.57.93 1 1.92.5 1.08.2 2.25l-.06.1-.07.1-.07.24a2.5 2.5 0 0 0 .08 1.56q.1.2.22.36.17.24.27.5.09.24.2.48v.16q.02.22.08.45.04.2.1.39v.15a4 4 0 0 0 .05.54l-.05.28-.87.74a30 30 0 0 1-6.97 4.25l-.04-.01-.82-.2a273 273 0 0 0-6.65-1.76l.03-.04.07-.11q0-.06.04-.12a1 1 0 0 0 .04-.37l-.02-.11-.03-.12-.03-.1-.2-.31a1 1 0 0 0-.31-.2q-.36-.14-.66-.39a2 2 0 0 1-.54-.68v-.14l-.03-.42q-.01-.19.02-.38l.26-.48q.88-1.54 1.34-3.23"/><path fill="#ccc" d="m173.22 62.56-.01-.02a60 60 0 0 0-16.85-3 26 26 0 0 0-6.58.64 31 31 0 0 0-11.98 5.66 28 28 0 0 1-5.4 3.25q-3 1.36-6.03 2.53.09.45.13.9 2.49 1.31 4.77 3.03 1.54 1.16 3.06 2.24l.14.22q.06.1.11.24l.08.25.04.26q0 .13-.02.26-.01.14-.05.26-.03.14-.09.24l-.12.24-.35.37a2 2 0 0 1-.46.28l-.42.06q-.23.03-.45 0l-.42-.1a47 47 0 0 0-5.99-3.87q-.15 1.13-.38 2.25-.9 4.54-2.41 8.94a18 18 0 0 1-4.67 7.25 116 116 0 0 1-8.68 7.5 27 27 0 0 1-5.1 3.16q-1.65.8-3.4 1.3-2.19.54-4.42.72l2.22.33a97 97 0 0 0 17.5.94 41 41 0 0 0 12.92-2.6q2.31-.9 4.38-2.25 6.12-4.05 11.9-8.58l.2-.02.22-.01q.12 0 .22.03l.2.04a2 2 0 0 1 .4.18l.19.13a1.6 1.6 0 0 1 .51.7l.07.22.03.21-.02.43q-.01.1-.06.2l-.06.2-.22.38a194 194 0 0 0-7.52 5.83 43 43 0 0 1-5.46 3.8 32 32 0 0 1-6.35 2.86 78 78 0 0 1-17.77 1.43q-9-.28-17.89-1.63-5.77-.87-11.42-2.21l-.16-.13-.16-.13-.24-.33-.09-.18-.08-.18-.05-.2-.04-.4q0-.1.03-.2l.05-.2a2 2 0 0 1 .18-.4l.12-.18.15-.15.16-.14q.12-.08.24-.13t.25-.1l3.89.64q-.9-.43-1.78-.97a58 58 0 0 1-7.48-5.48 31 31 0 0 1-6.05-7.02 89 89 0 0 1-2.98-5.1q-.27-.53-.5-1.1a.9.9 0 0 1 .07-.8q-1.1 1.08-2.17 2.2a108 108 0 0 1-10.04 9.29 61.73 61.73 0 0 1-5.45 16.93q-.52 1.05-1.45 1.75a2 2 0 0 1-.68.23h-.22a2 2 0 0 1-.42-.08 1 1 0 0 1-.4-.18l-.17-.12-.14-.13q-.08-.08-.13-.16l-.19-.36a2 2 0 0 1-.14-.98q.02-.1.06-.2l.07-.19.1-.18.13-.16.32-.37.16-.18q3.01-6.16 4.64-12.84a44 44 0 0 0 1.24-11.73 3 3 0 0 1 .46-1.76l.16-.15q.07-.08.15-.13.03-1.15.08-2.3.04-1.2-.08-2.44-.93-8.95-1.82-17.91a404 404 0 0 1-1.35-17.69q-.38-7.2.97-14.26l.12-.16q.06-.08.14-.15a2 2 0 0 1 .31-.25q.19-.08.37-.15.2-.06.4-.1a3 3 0 0 1 .82.16l.1.05q3.25-3.28 8.03-2.35 2.4.46 4.68 1.33a15 15 0 0 0 5.39.95q-.36-1.45-.65-2.94a30 30 0 0 1-.54-4.25q-.02-.45.14-.84a2 2 0 0 1 .23-.36l.2-.2.2-.17a3 3 0 0 1 1.18-.24q.22.07.41.16a2 2 0 0 1 .55.36l.26.36.1.19q.18 2.19.63 4.38.16.72.28 1.46.72-.56 1.4-1.15l-.1-.06-.15-.16-.14-.17a5 5 0 0 1-.86-2.08q-.18-1.05-.26-2.14-.04-.6.17-1.15l.1-.19a3.71 3.71 0 0 1 .31-.38l.21-.16a4 4 0 0 1 .75-.26 2 2 0 0 1 .64.08 2 2 0 0 1 .57.3l.17.14.26.37.1.2q.14.51.15 1.04 0 .6.1 1.2l.1.6.27.58q.4-.36.83-.69l-.23-.33a2 2 0 0 1-.3-.73l.02-.22.01-.2.05-.21.08-.2.1-.18.12-.2q-.06-2.27-.49-4.55-.34-1.77-.49-3.57 0-.2.03-.43l.09-.19a2 2 0 0 1 .38-.52l.16-.14a2 2 0 0 1 .6-.26l.22-.04.22-.01q.12 0 .22.04.12.01.21.05l.21.08.18.1.18.12.15.16.15.16.1.19q.07.1.1.19l.9 5.1q.36 1.95.15 3.92l.5-.26.08-.44.02-.08q.14-4.48-.28-9-.3-3.24-.54-6.5l-.93.09q-1.65.12-3.29.27a8 8 0 0 1-1.29.04q-6.86.21-13.73.62-4.5.28-9 .32-2.2.03-4.41.21-2 .16-4 .4-1.33.57-2.3 1.7a8 8 0 0 1-1.63 1.48q-.3.2-.57.46a48 48 0 0 0-3.9 7.98 21 21 0 0 0-1.35 6.74l.12.05.17.14a3 3 0 0 1 .5.7 2 2 0 0 1 .1.42v.21l-.01.22q-3 9.33-6.1 18.66-2.04 6.15-4.5 12.15a472 472 0 0 0-7.07 18.27q-2.27 6.24-4.47 12.5-1.9 5.46-3.52 10.99-.33 1.1-.54 2.27a8 8 0 0 1 .14 2.9q-.16 1.2-.48 2.36 1.29 3.24 1.75 6.7a233 233 0 0 0 1.17 7.7l-.06-.22q.38 2.94 1.31 5.7.41 1.2.44 2.4 2.4 1.27 4.77 2.64 1.5.85 2.84 1.95 2.7 2.2 5.78 3.72l.04.01v.01q1.35.45 2.6 1.12 1.2.66 2.2 1.58l.54.5a24 24 0 0 0 13.38.62q4.57-1.06 9.16-1.87a9.5 9.5 0 0 0 4.3-1.93q3.09-2.42 6.04-5.03 2.74-2.4 5.56-4.56a4 4 0 0 1 .54 0l.21.06.39.17.17.13a1.5 1.5 0 0 1 .53.8q.05.1.06.25.03.12.02.26v.27l-.17.48-.14.24a89 89 0 0 1-4.78 4.49 33 33 0 0 0 7.02 2.78q2.61.71 5.27 1.17 4.74.82 9.52 1.17l.15.02q5.76-.15 12.26-.4a84 84 0 0 0 4.54-.3 69 69 0 0 0 17.74-4.1 79 79 0 0 0 16.36-8.38 49 49 0 0 0 8.6-7.24l.4-.14.22-.04h.22l.3.03.39-.28a42 42 0 0 1-.74-5.64 9 9 0 0 1 .38-3.08l.14-.17.3-.3.24-.14.25-.1.25-.05a3 3 0 0 1 .54-.01 3 3 0 0 1 .59.24l.19.12.15.15.13.16a2 2 0 0 1 .24.49 35 35 0 0 0 4.73 18.76 51 51 0 0 0 11.23 13.69 48 48 0 0 0 15.7 8.88l.06.02h.02l.12.03q1.07.27 2.16.47l2.46.48.19 1.16a1 1 0 0 0 .13.24l.08.1.1.08.1.08.12.05a1 1 0 0 0 .37.1h.13a1 1 0 0 0 .26-.06 1 1 0 0 0 .24-.13l.05-.05q.03 0 .05-.03l.09-.1.06-.1.07-.12.05-.12.02-.12.03-.13q-.54-1.8-.52-3.68.01-1.94-.57-3.76-.97-3-1.5-5.84-1.09-5.83.13-11.56 1.2-5.6.84-11.28-.37-5.78-1.06-11.5-.18-1.5-.31-3.01a94 94 0 0 0-1.82-11.84 43 43 0 0 1-.87-5.94l-.51-7.18q-.23-3.2.16-5.95a62 62 0 0 0 .58-10.39q0-2.21.19-4.42.11-1.23.06-2.44a13 13 0 0 0-1.36-5.33l-.19-.18-.1-.08-.12-.05a1 1 0 0 0-.38-.1H185l-.06.01-.13.02a1 1 0 0 0-.37.17l-.1.07-.09.1-.07.1-.06.12-.05.12-.05.25q.02.4.18.76.37.9.6 1.82l-.09.13a2 2 0 0 1-.29.34l-.17.15-.2.1a2 2 0 0 1-.42.14 28 28 0 0 1-4.3 4.28 18 18 0 0 0-3.22 3.3l-.27.31a2 2 0 0 1-.39.2l-.24.07-.23.06h-.21a2 2 0 0 1-.43-.09 1 1 0 0 1-.39-.17l-.18-.13-.18-.18-.18-.2-.1-.24zM188.93 123v.04zM81.41 27.65l-.1-.78q-.96.66-1.92 1.36l.05.18.04.21a2 2 0 0 1-.04.46.4.4 0 0 0 .02.2q.03.1.13.2.39.38.87.62l1.38.7q-.26-1.57-.43-3.15"/><path fill="#fff" d="M96.29 91.48q-.11 1.8-.59 3.54a14 14 0 0 1-1.6 3.7 2 2 0 0 0-.02.39l.02.42v.14a2 2 0 0 0 .55.68q.3.25.66.39.18.06.3.2l.15.2.06.1.03.11.03.12.02.11v.12a1 1 0 0 1-.04.25l-.04.12-.07.1q0 .03-.03.05l.48.13q3.1.78 6.17 1.63l.82.2.04.01a30 30 0 0 0 7.84-4.99q0-.06.02-.14l.03-.14-.05-.54v-.15l-.1-.39q-.06-.22-.08-.45l-.01-.16-.19-.47a2 2 0 0 0-.27-.5l-.22-.37q-.15-.4-.17-.84 0-.37.09-.72l.07-.24q.04-.05.06-.1l.08-.1q.28-1.17-.2-2.25a18 18 0 0 0-1.1-2.06q-.26 1.11-.66 2.15a4.5 4.5 0 0 1-1.07 1.66 1.1 1.1 0 0 1-.82.36 1 1 0 0 1-.26-.05l-.12-.05-.12-.05-.19-.16-.07-.1a1 1 0 0 1-.12-.2l-.04-.1-.04-.12q0-.06-.02-.11v-.12l.02-.13.07-.24a7 7 0 0 0-.37-2.13 4.7 4.7 0 0 0-1.32-2.01l-.22-.2q-.6-.22-1.24-.34l-1.48-.33q.76 1.69.84 3.55a6 6 0 0 1-1.17 3.77l-.1.08-.12.08-.12.04-.13.05-.13.01-.13.01-.13-.02-.12-.02a1 1 0 0 1-.34-.16 1 1 0 0 1-.22-.27q-.09-.14-.13-.32a1 1 0 0 1 0-.47q.1-.15-.03-.28-.16-.19-.3-.4l-.1-.13q-.48-.4-1.01-.7z"/><path fill="#ffe446" d="m88.07 65.59-.02.15q.17 1 .4 2l.12-.02q0 .15.15.54.35.85.5 1.29a6 6 0 0 1 .33 1.54l-.14.02.1.27q.2.57.33 1.16.6 2.64 1.05 5.28.29 1.76-.34 3.44l-.08.11-.08.1-.1.07-.11.07-.24.08-.22.04-.35-.05a2.7 2.7 0 0 1-1.09-2.1 7 7 0 0 0-.97-2.93q-.38-.6-.83-1.14.36 2.14.49 4.3.13 2.3-.44 4.47-.15.58-.53 1.04l-.1.07-.1.08a1 1 0 0 1-.25.1l-.27.02-.14-.02-.13-.02-.11-.06-.12-.05-.1-.08-.1-.09-.08-.1-.06-.11-.06-.13a1.4 1.4 0 0 1-.05-.51v-.16a5 5 0 0 0-.48-1.6 4 4 0 0 0-1-1.3l-.27-.25a9 9 0 0 1 1.24 3.09q.33 1.57.26 3.18-.03.53-.13 1.04.16 1.03.75 1.92l1.8 2.7q.08.14.08.33.01.15-.04.32t-.14.32l-.23.24-.12.07a1 1 0 0 1-.25.1l-.12.01h-.15l-.12-.01-.12-.02a4 4 0 0 1-.93-.66q-.6-.57-1.26-1.08a5 5 0 0 0-1.12-.63q1.32 4.65 5.57 6.95 2.55 1.38 5.28 2.34-1.17-1.41-.32-3.68.14-.37.35-.77a13 13 0 0 0 1.5-5.67q.01-.69-.1-1.38-.27-.51-.47-1.07a6 6 0 0 1-.3-1.46l.02-.12.04-.1.05-.11.16-.2q.07-.07.18-.15l.2-.12a1 1 0 0 1 .86.09q.15.09.25.21l.08.1.34.62q.27.44.35.93l.06.34q.66.75 1.58 1.19a14 14 0 0 1 2.17 1.32q-.08-1.2-.43-2.33a5.5 5.5 0 0 0-1.26-2.11 3 3 0 0 1-.43-.56l-.04-.14-.03-.14q-.02-.08 0-.14v-.15l.03-.13.18-.35a2 2 0 0 1 .56-.33q2.47.12 4.89.8a5.5 5.5 0 0 1 3.78 3.41 5 5 0 0 0 .17-.89l-.18-1.02a2 2 0 0 1-.02-.71q.07-.3.23-.55l.36-.28.23-.1.12-.01h.27q2.03 1.5 3.2 3.94.3.56.54 1.16.92 2.2.03 4.37.45.65.76 1.74.11.4.2.8 1.78-1.55 3.51-3.15-.03-.44.15-.86a4 4 0 0 1 .78-1.26q.81-1.47 1.26-3.07.45-1.68.75-3.39.08-.53.2-1.07a32 32 0 0 0-.94-3.45 13 13 0 0 0-1.86-3.53q-.52-.69-.93-1.45-.24.56-.67.98-.47.47-1.07.77-.43.21-.89.29-.28 0-.55-.1l-.39-.17a1 1 0 0 1-.3-.24l-.09-.1-.12-.23-.05-.12v-.27q0-.14.02-.27l.02-.3v.05a32 32 0 0 1-.76-5.09l-.2-.02-.04-.35-.13-.4a3 3 0 0 0-.15-.9l-.41-1.12a2 2 0 0 0-.23-.48 1 1 0 0 0-.25-.26l.23.02a4 4 0 0 0-1.3-1.25l-.66-.35q.1.74.14 1.46l.25.02v.12l.03.33-.06.32-.2.8a7 7 0 0 0-.1 1.95q-.14 1.24-.69 2.4a4.4 4.4 0 0 1-3.14 2.59l-.1-.04-.12-.05-.1-.05-.12-.07-.09-.09-.08-.11-.07-.1a1 1 0 0 1-.1-.38l-.02-.13q.03-.27.12-.54l.18-.5q.25-.18.43-.55.2-.42.2-.83.02-.23-.03-.66-.08-.7-.21-1.3-.18-.78-.45-1.46-.6-1.47-1.48-2.21-.33-.3-.67-.4-.73-.6-1.58-1.08l-.42-.27.01.14q.02.08.02.14l.01.22q.5.6.77 1.26h.06l.07.2q.08.3.12.74a17 17 0 0 1 0 2.27 11 11 0 0 1-.89 3q-.35.8-.8 1.52l-.1.07a1 1 0 0 1-.2.13l-.1.05-.12.02-.12.02h-.24l-.13-.04-.34-.19-.1-.08-.07-.1-.08-.13a9 9 0 0 0-1.36-3.77 1.4 1.4 0 0 0-.37-.8 5 5 0 0 0-.74-.63q-.6-.45-.89-.7-.2-.15-1.27-1.25a3 3 0 0 0-.85-.61q-.3-.07-.41-.15a2 2 0 0 1-.27-.25l-.23-.27a.8.8 0 0 0-.62-.2 1 1 0 0 0-.42.15q-.5-.41-.97-.85a2.4 2.4 0 0 1-.57-.78z"/><path fill="#ff3841" d="m75.74 60.03-.36-.37-.46-.39-.48-.44a52 52 0 0 1 1.8 8.94q.2 1.7.21 3.39-.16.14-.28.56-.1.34-.08.63 0 .18.05.53 0 .28-.08.83 0 .67-.04 1l-.04.63q0 .09.1.67.04.27.05.8l.02.75-.03.03.03.14.02.6q0 .5.24.66l.03.02.11.56q.05.18.2.35.13.18.25.38.1.18.13.39.02.2-.03.4a3 3 0 0 0-.09.6q0 .07-.08.22l-.05.13-.18.2-.1.08a1 1 0 0 1-.48.2h-.15l-.12-.02-.13-.03-.12-.05-.11-.05a13 13 0 0 1-1.81-2.91 11 11 0 0 0-.5-2l-.79-2.33a1 1 0 0 0-.18-.34 1 1 0 0 0-.3-.22 7 7 0 0 0-2.4-2.35q-1.05-.64-2.2-1.13a10 10 0 0 1 1.13 2.39q.42 1.33.65 2.7l.14.8q.12.77.36 1.5l.06-.06q.03.13.13.36l.06.32q.05.28.26.7.23.5.3.7l.1.42q.06.26.21.38.08.1.28.23l.08.09-.15.12.12.29 2.57 3.47q1.32 1.76 2.74 3.42.45.52.87 1.06a1 1 0 0 1 .09.25l.02.12.01.13v.13l-.1.26q-.01.06-.04.12l-.09.1-.08.09-.1.08-.11.08q-1.12.22-2.25-.15a9 9 0 0 1-2.4-1.18q-.62-.43-1.28-.79a35 35 0 0 0 5.7 7.36 47 47 0 0 0 3.39 3.04q3.5 2.86 7.6 4.76 1.05.47 2.19.76a22.5 22.5 0 0 0 9.9.2q-3-.8-6-1.64a29 29 0 0 1-8.38-3.82 13.2 13.2 0 0 1-5.39-7.26 3.5 3.5 0 0 1 .01-2.15l.07-.1.06-.12.1-.1.1-.08.24-.12.12-.05a5 5 0 0 1 1.26.06q.15 0 .3.04.04-.35-.09-1.16a8 8 0 0 1-.06-1.77q.06-.91 0-1.18a11 11 0 0 0-1.1-3.48 53 53 0 0 0-1.77-3.23q-.36-.58-.14-1.25l.07-.1a1 1 0 0 1 .26-.3l.12-.07a1 1 0 0 1 .24-.09q1.28-.12 2.3.6a16 16 0 0 1 2.41 2.11h.02v.02l.43.45q.17-.45.08-1.5-.14-1.7-.57-3.3a13 13 0 0 0-.9-2.34q-.76.78-1.65.25a4 4 0 0 1-1.07-1.6 1.4 1.4 0 0 0-.3-.47 3 3 0 0 1-.71-1.05 52 52 0 0 1-1.5-3.72l-1.77-5.04q-.31-.9-.72-1.75m8.07-9.61a18.4 18.4 0 0 1-6.17-6.77 15 15 0 0 0-.22 9.22q1.27 4.32 4.37 7.63.63.66 1.04 1.5a12.4 12.4 0 0 1 1.34 6.3 1 1 0 0 0-.04.26q.75.28.6 1.21-.08.43-.18.85l.25.43.18.46a.7.7 0 0 0 .54.4q.13.04.19.08l.12.12-.45.15.52.23q.76.37 1.38.95.42.39.8.84-.2-1.3-.5-2.59.05-.3-.1-.82a10 10 0 0 0-.62-1.5l-.17-.35-.14-.41q-.07-.19-.15-.31l.17-.06-.04-.1a7 7 0 0 1-.39-2.88q.23-2.58.8-5.1.1-.15.22-.26.13-.1.28-.18.15-.06.32-.08a1 1 0 0 1 .24 0l.33.12.1.06.17.16q.61 2.34 1.95 4.32.5.77 1.37 1.17 1.3.61 2.44 1.42l.5.46a13 13 0 0 1 1.74 2.03q.35.49.95 1.5.28.44.55.48.21.01.38-.14.17-.17.13-.39l-.07-.23v-.05h-.02l-.03-.15q-.01-.05.04-.33.03-.27-.11-.65l-.24-.64-.1-.53-.17-.58-.19-.56.04.01-.02-.05-.07-.14a3 3 0 0 0-.18-.54q-.08-.3-.08-.64t-.06-.66v.03-.05a1 1 0 0 1 0-.32v-.1l-.04-.13-.02-.26v-.13l.05-.12q0-.07.03-.13l.07-.11.08-.1q.03-.06.08-.1l.1-.1.24-.12.13-.04.13-.02q2.52.24 4.51 1.98a20 20 0 0 1 1.66 1.63 21 21 0 0 1 1.03 2.5l.61 1.64v.54l.05-.4q.06.14.11.2.04.04.1.04.07 0 .1-.05.03-.02.05-.1.13-.6.16-.9.04-.36-.02-1-.07-.56-.17-1-.39-1.95-1.41-3.69 0-.24.09-.5l.06-.1.07-.09.08-.1.11-.09.1-.06.13-.05.13-.05.12-.02q3.25.6 5.5 3.06.39.42.66.9l.06.56q.06.3.28.9l.2.79q.34 1.3.69 2.1l-.29-.05q.35 2.06.8 4.1.28-.38.52-.82a26 26 0 0 1 .84-1.4 2 2 0 0 1 .11-.52l.07-.1a1 1 0 0 1 .26-.3l.12-.07.12-.05.05-.02h.61l.1.04.22.14.1.09.1.1a18 18 0 0 0 2.92 6.14q.39.52.64 1.17.97 2.42.88 4.94-.03 1.11-.25 2.21-.12.68-.3 1.35.72-1.34 1.09-2.66l1.33-4.54q.89-3.05 1.02-6.2l-.16-.07.03-.24a9 9 0 0 0-.04-2.13l-.18-1.36-.02-.07-.01-.16a11 11 0 0 0-.46-2.14l.11-.05q-.43-1.11-1.11-2.15a7 7 0 0 1-1-2.22 25 25 0 0 1-.48-2.32q-.11.39-.2.78a6 6 0 0 1-.47 1.29 29 29 0 0 0 2.1 5.07l.23-.09-.02.61.01 1.37q-.04.58-.23 1.73l-1.45-1.34-.8-.72-.52-.4a7 7 0 0 0-.98-.67 14 14 0 0 1-.72-1.6 4 4 0 0 0-1.1-1.45q-.3-.27-.55-.32-.26-.58-.44-1.21-1.03-3.31-1.27-6.77a46 46 0 0 0-3.12-4.59l-3.26-4.22q-.6-.76-1.13-1.57 1.48 4.5 1.53 9.26a9.6 9.6 0 0 1-1.69 5.6q-.16.2-.43.12-1.44-.46-1.53-2.17a10.4 10.4 0 0 0-4.18-7.95 436 436 0 0 1-5.22-4.08 20 20 0 0 1 1.42 6.92q.12 3.34-.65 6.55-.32 1.33-1.46 1.77h-.12l-.12-.02-.11-.03a1 1 0 0 1-.23-.1 1 1 0 0 1-.3-.27l-.06-.12a1 1 0 0 1-.09-.24 1 1 0 0 1-.02-.4l.05-.42.01-.19a15 15 0 0 0-.23-2.65 29 29 0 0 0-.62-2.74 6 6 0 0 0-.28-.78 12 12 0 0 0-4.18-3.18q-.7-.33-1.37-.75-1.7-1.07-3.39-2.18"/></g><defs><clipPath id="a"><path fill="#fff" d="M0 0h166v147H0z"/></clipPath></defs></svg>