<svg xmlns="http://www.w3.org/2000/svg" width="800" height="942" fill="none"><g clip-path="url(#a)"><path fill="#000" d="M601.6 957c.6-.5 1-1.1 1.1-1.8h-7.2l.1.4.3.4.3.4.3.4.4.3.4.2a5.8 5.8 0 0 0 .9.4c1.2.3 2.4 0 3.4-.8Zm-401.1-1.1c0-.4.2-.7.3-1.1h-10l.1.1c.7.7 1.4 1 2.3 1.1a3.4 3.4 0 0 0 1.3 0c.5.6 1.1 1.2 2 1.6.8.3 1.6.2 2.5-.1.7-.4 1.2-.9 1.5-1.6ZM504.2 82.6l-5-9.8A202.2 202.2 0 0 1 486 42.3c-1.2-4.5-3-8.6-5.8-12.2a4.3 4.3 0 0 0-2-1.6 99.2 99.2 0 0 1-15.4-6.3c-1.1-.6-2-1.3-2.8-2.3-2.9-3.8-6.5-6.1-10.8-7a25 25 0 0 1-7.3-2.8 90.3 90.3 0 0 0-27.4-10H412c-9.8 2.3-19.7 3.2-29.6 2.7a20 20 0 0 1-4-.6 57 57 0 0 0-30.8 1 41 41 0 0 1-22.7.6c-2-.5-4-.4-5.9.2-5.6 1.9-10.6 5-15 9.2A56.4 56.4 0 0 0 289.8 35c-2.8 7.8-5.3 15.5-7.5 23.5-2.9 9.9-4.9 20-6 30.3l-.9 4.3a185.3 185.3 0 0 0-3.8 32.4 646.2 646.2 0 0 1-4.9 64.3v-.3c-1 8.8-1.4 17.6-1.4 26.4a419.8 419.8 0 0 1-2.2 46.2 46 46 0 0 0-.3 5.7c0 8.6-.4 17.2-1.3 25.8-1 9-.6 18 1 26.9l-11.5 2.8c-10 2.3-19.8 5.1-29.5 8.3a85.3 85.3 0 0 0-33.4 20.3c-3 2.8-4.8 5.1-5.7 6.9l-4.2 5.4c-4.6 6.4-8.5 13.2-11.6 20.4-8 18.6-11.3 38.1-9.9 58.6l2 28c.7 10.2 0 20.1-2.1 30a312.4 312.4 0 0 0-6.9 59.3c-.4 19-1.2 38-2.4 57a42.4 42.4 0 0 0-.6.6l-.3.4-.3.5-.3 1.5V625.3l-4.6 15.9a438 438 0 0 0-11.1 46.3 392.2 392.2 0 0 0-5.6 47.5l-1.7 32.3c-1 20-1 39.9-.4 59.9.7 20 1.3 40.1 1.8 60.3a3372.3 3372.3 0 0 0 1.6 54.8c-.3.5-.3 1-.2 1.7a65 65 0 0 1 .5 7.5c0 1.5.8 2.6 2.2 3.1l.7.3h3c.9-.6 1.5-1.7 1.7-3.4l.2-2.3c.3-13.4.2-26.7-.4-40l-2.8-51a693 693 0 0 1-1.2-60.6c.5-20 1.4-40.1 2.6-60.3v-.3c.6-3.8 1-7.6 1.3-11.5 1.4-16.8 3.8-33.5 7.3-50 1.4-6.2 3-12.3 5-18.3a166 166 0 0 0 7.2-31.8l.4-.3.8-.6c.3-.4.6-1 .6-1.4a283 283 0 0 0 2.5-29.7c.6-21.5 1.4-42.8 2.4-64.1.3-5.4 1-10.8 2.4-16a114 114 0 0 0 3.5-29.5 3187 3187 0 0 0-.6-30.8c-.3-15.2.5-30.3 2.5-45.4.6-5 1.9-9.6 3.9-14 7.8-17.9 18.9-33 33.2-45.4l10.9-6c6.7-3.6 14.5-6 23.3-7.5 9.2-1.4 18.1-3.7 26.8-6.9 1.2.6 2.6.4 4.4-.6l.2-.3a30.8 30.8 0 0 0 5.8-1.2c-.5 4.2-1 8.5-1.1 12.7a323.9 323.9 0 0 1-5.8 48.8c-2 10.1-4.8 20-8.5 29.6a387.7 387.7 0 0 1-12.9 29.6l-2.7 6.5a370 370 0 0 0-9.4 25.3 120 120 0 0 0-4.9 45.5c.5 5.3 1 10.6 1.7 15.9l4 30.6c.7 6.3 2 12.5 3.5 18.6l-.5.4c-.8.9-1.4 1.8-2 2.9l-4.7 16.7a275 275 0 0 0-6.5 30.1c-2.3 15-4 30-5.2 45.3-1.4 20-4.4 39.8-8.9 59.4-2.3 9.7-5.1 19.2-8.6 28.6a400 400 0 0 0-16.8 57.9c-4.2 19.8-8 39.6-11.6 59.4-1 5-1.3 10.2-1 15.3a91.6 91.6 0 0 0 16.8 50.1h10a285.5 285.5 0 0 0 7.6-33h.4c.7-.2 1.2-.7 1.5-1.4 1.9-6 3.5-12.2 4.9-18.4 2-10 4.6-19.7 7.6-29.4s5.8-19.5 8.7-29.3c2.7-9.4 4.8-19 6.5-28.6a634.4 634.4 0 0 1 6.2-32.2 165 165 0 0 0 70.6 21.8l48.6 3.5 7.4-.1 53-3.6c13.3-1 26.8-1.8 40.3-2.5a242 242 0 0 0 46.6-7.1c14.6-3.8 28.6-8.6 42.2-14.5l.5-.1.5-.1.4-.1 1 4a2347 2347 0 0 0 5.9 22c2.6 9.8 4.9 19.6 6.7 29.6 1.8 10 4 19.8 6.6 29.6 2.6 9.9 5 19.8 7 29.9a1002.4 1002.4 0 0 0 14 60.4h7.2a3 3 0 0 0 0-1.4 583.3 583.3 0 0 0-9.2-42.5 976.6 976.6 0 0 1-7-30.8 637.3 637.3 0 0 0-7.1-30.4c-2.5-9.5-4.7-19.1-6.7-28.8a651.4 651.4 0 0 0-12.8-52.5 254.9 254.9 0 0 0-16.6-44c-4-8.7-8.4-17.3-13.2-25.7-2.6-7.3-4.2-15-4.6-22.9l-.4-7.2a248.4 248.4 0 0 1 12.7-94.3v-.5l.1-.4v-.8a388 388 0 0 0 5.2-20.5v1a293.7 293.7 0 0 1 1 5.5c-.2 5 0 9.7.7 14.5 2.4 15.7 5.7 31.3 10 46.6 4.2 15.4 8.8 30.5 13.8 45.5l.2.5.2.5a5.2 5.2 0 0 0 .4.6 75 75 0 0 0 0 22.1l8 56.9c2.6 17.5 6.6 34.8 12.3 51.6a586.4 586.4 0 0 1 15.8 56.9c5 22.1 9.6 44.3 13.7 66.4l-1 1.2c-1.1 1.5-2.1 3-3 4.7a93 93 0 0 0-3.4 7.3 117.4 117.4 0 0 0-7.6 19.5v1.2l.1.3h8l.2-1a106.8 106.8 0 0 1 4.8-13.2l.6-1.2a254.9 254.9 0 0 1 3.4-7c.6-1.4 1.3-2.6 2.3-3.6 2.4-2.8 3.3-5.8 2.8-9.3-3.3-20-7.2-40-11.6-59.9a762 762 0 0 0-14.8-56.6c-4-13-7.4-26-10.4-39.3a513.7 513.7 0 0 1-10.6-63c-.9-4.5-1.5-9.1-2-13.7-.5-4.3-.7-8.6-.6-13l.4-1.5c.4-1.4.6-2.8.8-4.3a11 11 0 0 0-.3-4.1 19 19 0 0 0-.6-.9 3.5 3.5 0 0 0-1-.8l-8.1-27.3a423 423 0 0 1-13.9-59.7c-3-19.1-4.6-38.4-4.7-57.9.5-2.4.7-5 .7-7.5l.5-29.9a151.6 151.6 0 0 0-2-26.8l-.3-.4a19 19 0 0 0-1.6-1.3l-.5-.1-.5-.1h-1.1l-1 .2-.5.3-.4.3-.7.7-.6.9c-.3.6-.4 1.4-.4 2.2l.2 2.9-1.5-5a576.6 576.6 0 0 0-13.2-35.3 95 95 0 0 1-8.3-29.5c-.4-3.5-1-6.9-1.7-10.3-2-9.8-3.6-19.8-4.6-29.8-.4-4-.4-8-.2-12.1.3-4.7.2-9.4-.5-13.9a70.3 70.3 0 0 0 11 3.4l.4.5.5.6.6.4.6.5c.9.3 1.8.4 2.7.3a31 31 0 0 1 4.7 0c4 .9 7.9 2 11.6 3.4 4 1.5 8 2.7 12.1 3.4 5.4 1 10.5 2.7 15.3 5a165.6 165.6 0 0 1 14.4 11c3.2 3 6.6 5.6 10 8.3 3.5 4 6.5 8.3 9.2 12.9 2.8 5 5 10.2 6.4 15.7 4.3 16.8 6.6 33.8 6.7 51.2.2 19.7 2.8 39 7.8 58.1a235.5 235.5 0 0 1 7.4 47.8c1 20 2.5 39.9 4.8 59.7 2 17.5 6.4 34.3 13 50.5 7.7 18.7 12.6 38.1 14.6 58.3a835 835 0 0 1 3.6 118.8c-.9 20.2-.9 40.4 0 60.6.8 20.5 1.6 41 2.6 61.4l.5.6 1.3.7c.5.2 1 .4 1.5.4s1-.2 1.5-.4l1.2-.8 1-1.2c.3-6.4.3-12.8-.2-19.2-1.7-21-2.3-42-1.8-63 .4-22.1.5-44.4.2-66.5l-.7-65c-.3-21.4-3.5-42.3-9.8-62.8-1.5-4.8-3.3-9.5-5.2-14a197.9 197.9 0 0 1-14-50.7 794.5 794.5 0 0 1-6-56.2c-1-14.6-2.2-29.2-3.5-43.8a64 64 0 0 0-2.7-13.7c-5.9-19-9.2-38.6-10-58.7.2-11-.1-22-1-33.1a85.7 85.7 0 0 0-27.2-58 72.8 72.8 0 0 0-38-20.6 52.6 52.6 0 0 0-6.6-2l-5.7-1.4-1.2-.6c-1.8-.9-3.6-1.6-5.6-2.1-1.8-.5-3.5-1-5.2-1.3l-3.7-.6-.7-.4c-5.9-1.6-11.7-3.5-17.5-5.5 1.5-10 2.2-20 2.3-30.3l.3-23.9c0-5.3-.3-10.6-1.2-16a428.9 428.9 0 0 1-5.6-58.4 232 232 0 0 1 1.2-34.1c1-9 1.1-18 .4-27.1L507 93c-.2-3.7-1.1-7.1-2.8-10.3ZM334.8 231.3v-.1l-.2-.1.2.2Zm-74.2 463c-.6 2-1 4.1-1.5 6.2a587.1 587.1 0 0 1-16.9 59.1c-3.4 9.8-6 19.8-8 30l-5.5 30.3a289 289 0 0 1-7.2 30 2257 2257 0 0 0-8.5 29.4A760 760 0 0 0 205 909c-1.4.3-2.3 1.7-2.7 4.2a298 298 0 0 0-7.3 32 75 75 0 0 0-4.5-9 68.3 68.3 0 0 1-6.4-55.3c2.8-9.7 5-19.5 6.4-29.5A293.7 293.7 0 0 1 209 783a438.3 438.3 0 0 0 22-112.1 325.8 325.8 0 0 1 12.3-70.9c3.4 9.6 6.6 19.2 9.8 28.9 3.1 9.8 5.1 19.8 6 30.1.6 7.6.7 15.3.3 23-.2 4.3.2 8.4 1.3 12.3Zm356.8 246.6v-.4c.2-.3.2-.4.2-.1l-.2.4Zm-174-892c1.7 1.5 3.2 3 4.5 4.9a59 59 0 0 1 9.9 23.3l1 6.2c1.1 6.7 2 13.4 2.6 20.1a11 11 0 0 1-.3 3.4c-.6 3-.6 5.7 0 8.3-1 2.1-.2 3.8 2.6 5h1.6c1.2 0 2.2-.5 3-1.5l.5-.8a12 12 0 0 1 5-.7l.3.3.3.3.2.3.3.3.2 1c0 .5 0 1 .2 1.5l.1.7v.7c.1 6.2.2 12.6.1 19 0 6.3-.4 12.6-1 18.9l-1 1.8-1.3 1.9-1.5 1.4-.3.1-.3-.1-.1-.1v.1l-2.8-2.2c-2.5-1.9-4.5-1.6-6.2 1-.3.6-.5 1.1-.4 1.7-.4.5-.7 1.3-.8 2.2a73.8 73.8 0 0 0-.2 14 120 120 0 0 1-2.6 14.7 61.5 61.5 0 0 1-7.4 16.2c-1.9 2.9-3.6 5.9-5.2 9a35.3 35.3 0 0 1-12 13.3h.3a752 752 0 0 0-20.3 12.4 35.6 35.6 0 0 1-18.9 5.3h-7.8a83.7 83.7 0 0 1-24.7-4.3c-6-2-11.7-5-16.8-8.8a69.4 69.4 0 0 1-17.2-18.6l-6.5-11.3a48.2 48.2 0 0 1-4.7-13 78.6 78.6 0 0 1-1-23.4c.7-3.3.2-6.3-1.6-8.8.4-1.2.1-2.3-.9-3.1-2.8-2.4-5.2-1.9-7 1.5l-.6.3-.6.2a5 5 0 0 1-.8.2l-.3-.1-1-.4a5 5 0 0 1-1-.5l-.8-.6-.1-.2h-.1l-.6-2.4c-1.2-6-1.5-12-1-18.2a635 635 0 0 0 1.7-20.5c.2-1.4.5-2.8 1-4.1a27 27 0 0 1 1.7-3.5l.2-.4.3-.3.2-.2a12 12 0 0 1 2.6 2.9c.7 1.2 1.8 1.6 3.1 1.3a7 7 0 0 0 2.1-1c.4-.1.7-.4 1-.8 1.8-2.7 2.7-6 2.4-9.5a145.7 145.7 0 0 1 0-24.1 27.7 27.7 0 0 1 8-21c2.4-1.5 5-2.8 7.8-3.8a283 283 0 0 0 23-9.8 58.4 58.4 0 0 1 26.8-6l27.9.4a91 91 0 0 1 30.6 5.8 18 18 0 0 1 4.6 2.2ZM316.5 309l1-.6a102 102 0 0 0 10.7-8c5-4.5 8.6-10 10.7-16.5a59 59 0 0 0 2.5-20.6 103 103 0 0 1 0-10.7v-2.5l.7-1.9c4.1 2.7 8.6 5 13.5 6.6 3.9 1.4 7.9 2.5 12 3.3 8.3 1.7 16.8 2.6 25.3 2.6A33 33 0 0 0 405 259a96.5 96.5 0 0 0 21.6-10.8 63.6 63.6 0 0 1 7.3-4.2l-.1 12.2c0 5.1.1 10.3.5 15.5.5 6.5 2.3 12.6 5.5 18.3a31 31 0 0 0 14.3 13.4l8.6 3.7c.2 6 .8 12.2 2 18.3a181 181 0 0 1 3 34.4c-.1 9.8-1.2 19.6-3.2 29.2-1 4.7-2.8 9.1-5.2 13.3a65.5 65.5 0 0 1-21 21.7 37 37 0 0 1-7 3.6c-10.3 4-21 6-32.2 6.4a178.7 178.7 0 0 1-34.3-2.5 67.4 67.4 0 0 1-27.6-11.1 119 119 0 0 0-4.9-3.4 41 41 0 0 1-19-30.9c-.7-10.9-.6-21.8.3-32.7.4-5.4.5-10.8.4-16.2-.3-9.6.5-19 2.5-28.1ZM132.1 737.5v.5-.6.1ZM497.4 86.3c1 4.7 1.8 9.5 2.1 14.5.8 10.5 1.4 21 1.7 31.6l-.1 7.8c-.5 8.1-.9 16.3-1.2 24.6a342.8 342.8 0 0 0 4.6 73.8c.4 2.7.7 5.3.8 8l1 26.3c.2 10.1 0 20.3-.9 30.4-.2 3.2-.4 6.4-.4 9.6h-.3l-11.7-3.8a536.9 536.9 0 0 1-25.5-8.8h.1a89.3 89.3 0 0 1-9.5-4 27.5 27.5 0 0 1-14.5-18 53.9 53.9 0 0 1-2-17c.3-7 .3-14 0-21 0-.7-.2-1.3-.4-1.9l2.8-3.1a190 190 0 0 0 13-19.2c2.7-4.3 4.7-8.9 6.2-13.7a121 121 0 0 0 4.8-23l.5-1.7c.2-1.6-.2-3-1.4-4v-1.1l2 .8c1.5.3 2.9 0 4.3-.7 4.9-2.7 7.9-6.8 9-12.3a52 52 0 0 0 1-8.5 361.8 361.8 0 0 0-.2-32c0-2-.7-4-1.9-5.7-3-4.5-7-6.2-12.1-5a193.3 193.3 0 0 0-.1-10.4c-.4-5.3-1-10.6-2-15.8l-2-9.6a67.8 67.8 0 0 0-8.3-21.4c-2.7-4.5-6.4-8-10.9-10.6a50.1 50.1 0 0 0-11.5-4.9c-8.6-2.4-17.5-3.6-26.5-3.7-9.2 0-18.4-.2-27.6-.4-2.4 0-5 0-7.4.4a90.6 90.6 0 0 0-25.5 7.4l-11.8 5.4c-4.1 2-8.3 4-12.6 5.8a23.2 23.2 0 0 0-13.3 13.2 47.2 47.2 0 0 0-2.6 13.3c-1 9-1.3 18-.8 27-1.4-.4-3-.5-4.6-.3-1 .2-1.7.6-2.3 1.2-4.6 4.4-7.1 9.9-7.5 16.5v-.2.3l-.9 10c-.6 7.7-1 15.5-.8 23.3 0 8 3.7 13.2 11 15.7a9.5 9.5 0 0 0 5.4-.3c-.2 4.8-.4 9.7-.4 14.5a53 53 0 0 0 5.6 24.8c3.8 7.7 8.3 15 13.6 21.8a77.9 77.9 0 0 0 9 9.9c-.7.5-1.2 1.3-1.6 2.3l-.6 2.4c-.4 2.1 0 3.8 1 5.1v.2c0 2.9 0 5.7.3 8.5.4 7.3-.4 14.3-2.4 21.2-2 6.5-5.8 11.6-11.3 15.4l-8.1 5.4a98.8 98.8 0 0 1-18 9.4 49 49 0 0 1-11.3 2.7c-2.1.1-3.8.8-5 2h-1c-1 .2-1.8.6-2.6 1.2a26.6 26.6 0 0 0-3.6.7l-.7-6.9a28 28 0 0 1 0-6.2c1-10.1 1.4-20.3 1.2-30.4a165 165 0 0 1 1-20.3c.4-4 .7-7.9.8-11.9l.6-23.3c.3-8.4.8-16.8 1.7-25.2l3-32.2a421 421 0 0 0 2-36c.2-10.6 1.2-21 3.2-31.4a921 921 0 0 0 2.5-14.5c.6-4 1.5-7.8 2.6-11.6l3.9-15a105 105 0 0 1 5-15.3 56.2 56.2 0 0 1 20.5-25.1c4.3-2.3 8.9-2.6 13.9-1.1 1.9.6 3.9.8 5.8.5L359.4 9a15 15 0 0 1 4-.1l17.8 1.7c10.2.9 20.4 0 30.4-2.8 2.2.2 4.4.6 6.6 1.3a73.8 73.8 0 0 1 15.5 6.6 43 43 0 0 0 15.7 5.1l2.6 2.8a32 32 0 0 0 9.2 7c4 2 8 3.3 12.4 4a4.7 4.7 0 0 1 .9.6l.3.3.4.4 2 5.1 7.9 21.6a83.3 83.3 0 0 0 11.3 21.6c.5.6.8 1.3 1 2.1Zm5 234.3 1.2 25c.3 7.5 1.3 14.9 2.8 22.2 2 9.5 3.6 19.2 4.9 28.9.6 5.2 2 10.3 4 15.3 3.6 9 7.2 18.5 10.8 28.2 3.4 9.4 6.4 18.9 8.9 28.5 2.5 9.8 4.1 19.8 5 29.9a148.5 148.5 0 0 1-1 32l-2.7 14.8c-.6 3.3-1.3 6.6-2.3 9.8a355 355 0 0 0-5 20.6v.5a81.6 81.6 0 0 0-3.6 11.2c-2.6 9.9-4.5 20-5.8 30.1a467.2 467.2 0 0 0-2.8 30.5 146 146 0 0 0 0 16.2c.6 9.9 1.7 19.8 3.5 29.7.3 1.6.8 3.2 1.4 4.6 4.3 9.2 8.7 18.4 13.2 27.4a231 231 0 0 1 11.8 28.5c2 5.8 3.8 11.6 5.5 17.5h-.7c-.9.2-1.7.5-2.5 1a22.2 22.2 0 0 0-2.8 1.8 385 385 0 0 1-50.8 14.8c-15.9 3.4-32 5.3-48.2 5.5-16.4.2-32.7 1.1-49 2.8a256 256 0 0 1-26.8 1.1c-12.4 0-24.7-.4-37-.9-16.4-.6-32.4-3-48.2-7.3a166.8 166.8 0 0 1-40-16.5 261 261 0 0 1 6-19.5c3.3-9.6 6.3-19.2 9-28.9 3.1-10.8 5.7-21.7 7.7-32.6 0-.6 0-1.1-.2-1.6l-.7-1.3.1-3.9c0-10-.4-20-1.3-30s-2.9-20-6-29.5a1303 1303 0 0 0-9.8-29.1c-3.3-9.7-5.7-19.5-7-29.6l-3-22.3c-1.1-9.6-2-19.3-2.7-29a88 88 0 0 1 3.5-32 310 310 0 0 1 10-28.5c4-9.4 8-18.7 12.4-27.9 4.3-9 7.5-18.3 9.7-28l2.8-11.8c2.5-9.9 4.2-20 5-30.1 1-10 1.6-20 2-30 0-1.4.3-2.8.7-4l.4-2 4.2-.9a49.7 49.7 0 0 0 8.2-2.6 107 107 0 0 0 9.8-4.6c-.5 2.5-.8 5-.7 7.8 0 7.5-.1 15-.5 22.4-.7 10.3-1.2 20.5-1.6 30.8a57.4 57.4 0 0 0 6.6 29.6 32 32 0 0 0 4.6 6.8 91.5 91.5 0 0 0 24 18.8c4.5 2.5 9.2 4.4 14.2 5.7a191.2 191.2 0 0 0 31.8 5.4c11.7.2 23.2-.7 34.7-2.5a45 45 0 0 0 10.8-3.1c9-3.9 17.3-9.2 24.7-15.9a51 51 0 0 0 15.4-25.6c2.6-10.2 4-20.6 4.4-31.2.4-10.6-.2-21-1.7-31.6l-3-22a16.7 16.7 0 0 0 2.5.9l17.4 5.9 11.8 3.8ZM401 548.8c-6-.5-12-.1-18 1.2-4 .8-4.8 3-2.6 6.4.2.4.6.6 1.1.6 8.5-.8 17-.4 25.4 1.2 2.8.2 4.4-1.1 4.7-4 0-.8-.2-1.5-.9-2-2.8-2-6-3-9.7-3.4ZM451 567a9 9 0 0 0 4.2 3.4c5.5 2.4 11.2 4.6 17 6.6a75.6 75.6 0 0 0 30.6 4.3c2.3 0 4-1 5.2-3l.2-.8c.1-1 0-1.9-.5-2.7a4.2 4.2 0 0 0-2-1.7 4 4 0 0 0-3 0l-.3.2h-5.9c-7.6 0-15-1.2-22.1-3.7a127 127 0 0 1-19-8.1c-1-.2-2 0-3 .6-.8.6-1.3 1.3-1.5 2.1-.3 1-.3 1.9 0 2.8Zm-123.7-12.3-20.7 5.8a73.3 73.3 0 0 1-32.4 1.5c-4.2-.7-6.2 1-6.2 5 0 .7.4 1.2 1 1.5 4.8 2 9.8 2.9 15 2.7 7.2.2 14.2-.4 21.2-2 4.5-1 9-2 13.4-3.3 5.2-1.3 10-3.2 14.3-5.7.4-.8.6-1.7.5-2.6 0-1-.5-1.7-1.1-2.4-.7-.6-1.4-1-2.4-1.1h-1.4a6.2 6.2 0 0 1-.8.4c-.2 0-.3.1-.4.3v-.1Zm57.2-350v.1h.4-.4Zm-23.3 2.2 3 1.1a135.3 135.3 0 0 0 12.6 3.6c2.2.5 4.4.8 6.6 1h-.2l.6.1 1.2.2h1.2c1.4 0 2.8 0 4.1-.2A74.4 74.4 0 0 0 404 210a49.5 49.5 0 0 0 8.7-4.1 5 5 0 0 0 2.6-2.5c.6-1.3.5-2.6-.3-3.8-.9-1.2-2-1.8-3.4-1.8-1 0-2 .4-2.9 1a33.7 33.7 0 0 1-5.6 3l-.5.2a46 46 0 0 1-18.3 2.8h.3c-2-.2-4-.5-6-1l-6.3-1.6c-2.2-.6-4.3-1.3-6.4-2.1a6.7 6.7 0 0 0-3.4-.4c-.8.2-1.5.6-2 1.2-1.4 1.6-1.5 3.3-.3 5 .3.5.6.8 1.1 1Zm23.1-55.6a24.2 24.2 0 0 0-6.4 9.4 7 7 0 0 0-.2 5.6l.8 1.4a8.1 8.1 0 0 0 3.6 3.2c2 .8 4.1 1.3 6.4 1.3l6.7-.3c1.2-.2 2.2-.8 3-1.8 1-1.7.9-3.2-.3-4.7-.5-.7-1.2-1-2-1.3-1.3-.2-2.6-.3-4 0a16 16 0 0 1-6.5-.5v-.4c1-1.7 2-3.3 3.2-4.8.7-.8 1.3-1.7 1.6-2.7.3-.7.3-1.5 0-2.3-.8-2-2.2-2.9-4.4-2.7-.6 0-1 .3-1.5.7Zm34.2-32.9a3 3 0 0 0-.4 1.8c-.4 1.4.2 3 1.8 4.4a5 5 0 0 0 2.6.5 4.5 4.5 0 0 0 4.5-3.5c.4-2-.2-3.6-1.8-4.7-1-1-2-1.3-3.1-.9-1.5 0-2.7.9-3.6 2.5Zm-67.7 2.4c.6 2.3 2 3.5 4.3 3.8 2.4.3 4.1-.7 5.2-3a5 5 0 0 0 .3-3.4c-.8-3-2.6-4-5.5-3-.7 0-1.4 0-2 .4-2.2 1.1-3 2.9-2.3 5.3Zm82.5-18.6h.1a35 35 0 0 1 6.8 5.5c1 .5 2 .6 3 .3 1.1-.3 1.9-.9 2.4-1.8a4 4 0 0 0 .4-3.4 36.7 36.7 0 0 0-27.2-13.4 28.8 28.8 0 0 0-21.3 8c-.7.3-1.2.6-1.6 1.1-1.9 2.5-1.5 4.6 1.1 6.2 1 .6 2 .6 3-.1 3-2.2 6.2-4 9.5-5.5a18 18 0 0 1 8.3-1.6 32.6 32.6 0 0 1 15.5 4.7Zm-86.5-8a31 31 0 0 0-3.5 2.2c-4.3 3.2-8.8 6.1-13.5 8.7-3.8 2.1-4.7 4.9-2.8 8.3l.4.2c1 .8 2 1 3.2.8 1.2-.3 2.1-.9 2.9-1.9a117 117 0 0 0 11.9-8c3.4-2.4 7.2-4.2 11.2-5.5 5.8-.3 11 1.5 15.7 5.3 2.7 2.4 4.8 2 6.4-1.1a2 2 0 0 0 0-2c-1.7-3-4.1-5.4-7.4-7.1a24.3 24.3 0 0 0-24.5.1Zm-27.5 37.2a2 2 0 0 0-1.3-1.6c-5.6-2-10.4-.5-14.4 4.4a7 7 0 0 0-1.6 5c.4 6.4 3.9 9.9 10.4 10.6 1.7 0 3.4 0 5-.2 1-.1 2-.3 2.9-.7 3.4-1 4-3.1 2.1-6.2-.5-.7-1.2-1-2-.9-3.7.5-7.2.1-10.4-1.2v-.3l-.2-.4-.1-.3v-.2l1-.9a16.7 16.7 0 0 1 2.7-1.8l1.4.2c3.6-.1 5.1-2 4.5-5.5Zm138.8 7.3.3.1a175 175 0 0 0 1 1.4 7 7 0 0 1 .2 2.4 17.6 17.6 0 0 1-.5 1.2 5 5 0 0 1-.3.6l-.5.5-.3.3-.2.2h-.3c-.4.2-.9.2-1.3.2l-1-.2h-1a4 4 0 0 0-1.5.8c-1.7 1.3-2 2.9-1.1 4.8.9 1.8 2.4 2.7 4.5 2.6 6.2-.3 9.8-3.5 11-9.8.9-4.7-.6-8.5-4.4-11.4-3.8-2.8-7.5-2.8-11 .1-.9.7-1.2 1.5-1 2.5.6 3.9 2.7 5 6.3 3.3h.4l.3.1.4.3Zm121 562.6v.1-.1ZM129 954.8h3c-.8.4-1.8.4-3 0Zm482.7 1.6.5-1.1h-7.9v.2l.2.5.3.4.6.8.4.3.4.4 1 .3 1 .1h1l1-.5.8-.6.7-.8Z"/><path fill="#333" d="m244.2 782.5-.4 1.8a634.4 634.4 0 0 0-5.8 30.4c-1.7 9.7-3.8 19.2-6.5 28.6l-8.7 29.3c-3 9.7-5.5 19.4-7.6 29.4-1.4 6.2-3 12.4-5 18.4-.2.7-.7 1.2-1.4 1.4h-.4a285.7 285.7 0 0 1-7.7 33l394.8.5v-.1l-.2-.6-.1-.4a1683.2 1683.2 0 0 1-13.7-59.5c-2-10-4.4-20-7-29.9-2.6-9.7-4.8-19.5-6.6-29.4-1.8-10-4-20-6.7-29.8a2347 2347 0 0 1-6.9-26l-.4.2-.5.1-.5.1a282.5 282.5 0 0 1-42.2 14.5 242 242 0 0 1-46.6 7.1c-13.5.7-27 1.6-40.4 2.5-17.6 1.3-35.3 2.5-53 3.5-2.4.2-4.9.2-7.3.1-16.2-1-32.4-2.2-48.6-3.4a164.4 164.4 0 0 1-70.6-21.8Z"/><path fill="#CCC" d="m503.6 345.6-1.2-25-11.8-3.9a409.7 409.7 0 0 1-19.8-6.7c1 7.4 1.9 14.7 3 22 1.4 10.5 2 21 1.6 31.6-.3 10.6-1.8 21-4.4 31.2a51 51 0 0 1-15.4 25.6 87.3 87.3 0 0 1-24.7 15.9 45 45 0 0 1-10.8 3 208.7 208.7 0 0 1-36.4 2.6c-10.2-1-20.2-2.8-30-5.4-5-1.3-9.8-3.2-14.3-5.7-9.1-5-17-11.3-24-18.9a32 32 0 0 1-4.6-6.6c-4.9-9.4-7.1-19.2-6.6-29.7.4-10.3 1-20.5 1.6-30.8.4-7.5.6-15 .5-22.4 0-2.7.2-5.3.7-7.8l-1.3.6a107 107 0 0 1-9.1 4.3 49.7 49.7 0 0 1-11.8 3.1c0 .7-.2 1.4-.4 2-.4 1.3-.6 2.7-.7 4.1-.4 10-1 20-2 30a197 197 0 0 1-5 30.2l-2.8 11.8c-2.2 9.6-5.4 19-9.7 27.9-4.3 9.2-8.5 18.5-12.3 27.9a310 310 0 0 0-10.1 28.4 88 88 0 0 0-3.5 32.1 606.7 606.7 0 0 0 5.6 51.3c1.4 10 3.8 20 7.1 29.6a1303 1303 0 0 1 9.8 29c3.1 9.7 5.1 19.5 6 29.6a346.4 346.4 0 0 1 1.2 34c.3.3.5.7.7 1.2.2.5.3 1 .2 1.5-2 11-4.6 21.9-7.6 32.7-2.8 9.7-5.9 19.3-9.2 28.9a261 261 0 0 0-6 19.5c12.7 7.2 26 12.8 40.1 16.6 15.8 4.1 31.8 6.6 48.2 7.3 12.3.4 24.6.8 37 .8 8.9.1 17.8-.3 26.7-1.1 16.4-1.6 32.7-2.6 49-2.8 16.3-.2 32.4-2 48.3-5.5a385 385 0 0 0 51.5-15.2l.3-.3 1.8-1.1a6.6 6.6 0 0 1 3.2-1c-1.7-5.9-3.5-11.7-5.5-17.5A231 231 0 0 0 535 726c-4.5-9-8.9-18.2-13.2-27.4-.7-1.4-1.1-3-1.4-4.6-1.8-9.9-3-19.8-3.5-29.7a146 146 0 0 1 0-16.2c.6-10.2 1.6-20.3 2.8-30.5 1.3-10.1 3.2-20.2 5.8-30.1 1-4 2.2-7.7 3.7-11.3a9.6 9.6 0 0 1-.2-.9 355 355 0 0 1 5.1-20.1c1-3.2 1.7-6.5 2.3-9.8a2531.3 2531.3 0 0 0 2.6-15c1.5-10.5 1.8-21.1 1-31.8-.8-10.1-2.4-20-5-29.9-2.4-9.6-5.4-19.1-8.8-28.5-3.6-9.7-7.3-19.1-10.9-28.3-2-4.9-3.3-10-4-15.2-1.2-9.7-2.8-19.4-4.8-28.9-1.5-7.3-2.5-14.7-2.8-22.2ZM327.2 554.7h.1a2.6 2.6 0 0 1 .8-.4l.4-.1.5-.1a2.6 2.6 0 0 1 1 0c.9.1 1.6.5 2.3 1.1.6.7 1 1.5 1.1 2.4.1 1 0 1.8-.5 2.6-4.4 2.5-9.1 4.4-14.3 5.8l-13.4 3.2c-7 1.6-14 2.2-21.1 2-5.3.2-10.3-.7-15-2.7-.7-.3-1-.8-1-1.5-.1-4 2-5.7 6-5 11 1.9 21.8 1.4 32.5-1.5l20.6-5.8Zm128 15.7a9 9 0 0 1-4.2-3.4c-.4-1-.4-1.8-.1-2.8.2-.8.8-1.5 1.5-2a4.1 4.1 0 0 1 3.5-.6 127 127 0 0 0 18.5 8 66.7 66.7 0 0 0 22.1 3.6l5.9.1.4-.2.4-.1a4 4 0 0 1 2.6.1c.8.4 1.4 1 2 1.7.4.8.5 1.7.4 2.7l-.2.8c-1.1 2-2.9 3-5.2 3a658.7 658.7 0 0 1-12.9-.3c-6-.6-12-2-17.8-4-5.7-2-11.4-4.2-17-6.6Zm-72-20.4a61 61 0 0 1 17.9-1.2c3.7.3 7 1.5 9.7 3.5.7.5 1 1.1 1 2-.4 2.8-2 4.1-4.8 3.9-8.5-1.6-17-2-25.4-1.3-.5 0-.9-.1-1.1-.5-2.2-3.5-1.3-5.6 2.7-6.4Z"/><path fill="#734800" d="M499.5 100.8c-.4-5-1-9.8-2-14.5-.3-.8-.6-1.5-1-2.1 0 .2-.3-.5-1.3-1.9a83.3 83.3 0 0 1-10.1-19.7 1679.2 1679.2 0 0 0-10-26.7l-.3-.4-.3-.3-.4-.3c-.2 0-.3-.2-.5-.3-4.3-.7-8.5-2-12.4-4a32 32 0 0 1-9.2-7l-2.6-2.8a43 43 0 0 1-15.7-5.2c-5-2.8-10-5-15.5-6.5-2.1-.7-4.4-1.1-6.6-1.3a83.7 83.7 0 0 1-30.4 2.8l-17.8-1.7a15 15 0 0 0-4 .1 989 989 0 0 1-22.2 3.7c-2 .3-3.9.1-5.8-.5a17.9 17.9 0 0 0-17.2 3.2 56.2 56.2 0 0 0-17.3 23c-2 5-3.7 10-5 15.3l-3.8 15c-1.1 3.8-2 7.7-2.6 11.6L283 94.8c-2 10.3-3 20.8-3.2 31.4a33.3 33.3 0 0 1-.2 3c-.2 11-.7 22-1.7 33l-3.1 32.2c-.9 8.4-1.4 16.8-1.7 25.2l-.6 23.3c0 4-.4 8-.8 12a165 165 0 0 0-1 20.2c.2 10.1-.3 20.3-1.3 30.4-.2 2-.1 4.1.1 6.3l.7 6.8a60.9 60.9 0 0 1 3.6-.8c.8-.6 1.7-1 2.7-1l.9-.2a7.7 7.7 0 0 1 5-1.9c1.5-.1 3-.4 4.5-.7a49 49 0 0 0 7.2-2.1c6.2-2.5 12-5.6 17.6-9.3l8-5.4c5.6-3.8 9.4-8.9 11.4-15.4 2-6.9 2.8-14 2.4-21.2-.2-2.8-.3-5.6-.3-8.5v-.2c-1-1.3-1.4-3-1-5.1 0-.8.3-1.6.6-2.4.4-1 .9-1.8 1.6-2.3l-.6-.5c-3-2.9-5.9-6-8.4-9.4-5.3-6.8-9.8-14.1-13.6-21.8a53 53 0 0 1-5.6-24.8c0-4.8.2-9.7.4-14.5l-1.3.3c-1.4.3-2.7.3-4 0-7.4-2.5-11-7.8-11.1-15.8-.1-7.7.2-15.5.8-23.3l.8-10v-.2.2c.5-6.6 3-12.1 7.6-16.5.6-.6 1.4-1 2.3-1.1 1.7-.3 3.2-.2 4.6.2a154.1 154.1 0 0 1 1.4-32.1 47.2 47.2 0 0 1 1.8-7.8c2.6-6.5 7-11 13.5-13.6 4.3-1.8 8.5-3.7 12.6-5.8l11.7-5.4h.1a90.6 90.6 0 0 1 25.5-7.4c2.5-.3 5-.5 7.4-.4 9.2.2 18.4.4 27.6.4 9 0 17.9 1.3 26.5 3.8 3.9 1 7.7 2.6 11.5 4.8 4.6 2.6 8.2 6.1 11 10.6 3.9 6.5 6.6 13.7 8.2 21.4l2 9.5a134.8 134.8 0 0 1 2 26.3c5.1-1.2 9.2.5 12.2 5a10.9 10.9 0 0 1 2 6.5c.5 10.4.5 20.8.1 31.2a52 52 0 0 1-1 8.5 17.4 17.4 0 0 1-9 12.3c-1.4.7-2.8 1-4.3.7l-2-.8a28.8 28.8 0 0 1 0 1.1c1.2 1 1.6 2.4 1.4 4l-.5 1.7a121 121 0 0 1-4.8 23 63.1 63.1 0 0 1-6.1 13.7 190 190 0 0 1-16 22.3c.3.6.4 1.2.5 1.9.3 7 .3 14 0 21-.2 5.8.4 11.4 2 17 2.3 8.2 7.1 14.2 14.5 18 3 1.5 6.3 2.9 9.5 4a728.7 728.7 0 0 1 6.7 2.5 536.9 536.9 0 0 0 30.7 10.1c0-3.2.2-6.4.4-9.6.8-10.1 1-20.3.8-30.4-.2-8.8-.5-17.6-1-26.3 0-2.7-.3-5.3-.7-8a381.8 381.8 0 0 1-3.4-98.4v-7.8c-.2-10.5-.8-21-1.6-31.7Z"/><path fill="#fff" d="m317.4 308.4-.9.6c-2 9.2-2.8 18.5-2.5 28.1.1 5.4 0 10.8-.4 16.2-.9 10.9-1 21.8-.4 32.7a41 41 0 0 0 19.1 31c1.7 1 3.3 2.1 4.9 3.3a67.4 67.4 0 0 0 27.6 11.1 206.5 206.5 0 0 0 34.3 2.5c11.2-.3 22-2.5 32.3-6.4a37 37 0 0 0 7-3.6 65.5 65.5 0 0 0 20.9-21.7c2.4-4.2 4.2-8.6 5.2-13.3 2-9.6 3-19.4 3.1-29.2.1-11.6-.9-23-3-34.4a114 114 0 0 1-1.9-18.3c-2.9-1.2-5.7-2.4-8.6-3.8a31 31 0 0 1-14.3-13.3c-3.2-5.7-5-11.8-5.5-18.3-.4-5.2-.6-10.4-.5-15.6V244l-1.4.8c-2 1-3.9 2.1-5.8 3.4a96.5 96.5 0 0 1-21.6 10.8 33 33 0 0 1-12 1.9c-8.6-.1-17-1-25.4-2.7-4.1-.8-8.1-2-12-3.3a60.2 60.2 0 0 1-13.5-6.6l-.7 1.9v13.2a59 59 0 0 1-2.5 20.6c-2 6.5-5.6 12-10.7 16.5-3.4 2.9-7 5.6-10.8 8ZM448 53.8a27.8 27.8 0 0 0-4.5-4.8 18 18 0 0 0-4.6-2.2 36 36 0 0 1-4-1.4 91 91 0 0 0-26.6-4.4l-28-.4a58.4 58.4 0 0 0-26.8 6 283 283 0 0 1-23 9.8c-2.7 1-5.3 2.3-7.8 3.8a27.7 27.7 0 0 0-8 21v3.5c-.5 6.8-.4 13.7.1 20.6.3 3.6-.6 6.8-2.5 9.5-.2.4-.5.7-.9.8a7 7 0 0 1-2 1c-1.4.3-2.5-.1-3.2-1.3a12 12 0 0 0-2.6-3v.1l-.2.3-.3.3-.2.3.2-.3.2-.3a27 27 0 0 0-2 4.1 17.7 17.7 0 0 0-1.4 5.8 635 635 0 0 1-1.4 18.8 64.8 64.8 0 0 0 1.6 20.5v.1l.2.2.8.6a5 5 0 0 0 2 .9h.3l.8-.1.6-.2.5-.3c2-3.4 4.3-3.9 7.1-1.5 1 .8 1.3 1.9.9 3.1 1.8 2.5 2.3 5.5 1.6 8.8-.2 1.3-.4 2.5-.4 3.8-.4 6.6.1 13.1 1.4 19.6 1 4.5 2.5 8.8 4.7 13 2 3.8 4.2 7.5 6.5 11.3a69.4 69.4 0 0 0 17.2 18.6 58.6 58.6 0 0 0 16.8 8.9 83.7 83.7 0 0 0 32.5 4.2c7.2-.2 13.5-1.9 18.9-5.3a752 752 0 0 1 20.3-12.4h-.3l-.2.2c5.1-3.4 9.2-7.9 12.2-13.5 1.6-3.1 3.3-6.1 5.2-9a61.5 61.5 0 0 0 8.9-23.8 120 120 0 0 0 1-7.8c-.3-4.5-.2-8.9.3-13.3.1-1 .4-1.7.8-2.3 0-.5 0-1 .4-1.5 1.7-2.7 3.7-3 6.2-1.1l2.9 2.2-.1-.1.1.1.3.1.3-.1 1.5-1.4c.5-.6 1-1.2 1.3-1.9l1-1.8c.6-6.3 1-12.6 1-19a722.7 722.7 0 0 0 0-19.6l-.2-.7-.2-1.5-.2-1a2 2 0 0 0-.3-.3l-.2-.3-.3-.3a2 2 0 0 1-.2-.3 12 12 0 0 0-5.1.7l-.5.8c-.8 1-1.8 1.5-3 1.5h-1.6c-2.8-1.2-3.7-2.9-2.6-5-.6-2.6-.6-5.4 0-8.3.3-1 .4-2.2.3-3.4a290.6 290.6 0 0 0-3.6-26.4 59 59 0 0 0-10-23.3Zm10.5 85.1-.3-.2c-.1 0-.3 0-.4-.2h-.3l-.4-.2c-3.6 1.8-5.8.7-6.4-3.2-.1-1 .2-1.8 1-2.5 3.6-2.9 7.3-2.9 11 0 3.9 2.8 5.4 6.6 4.5 11.3-1.2 6.3-4.8 9.5-11 9.8-2.1 0-3.6-.8-4.5-2.7-1-1.8-.6-3.4 1-4.8a4 4 0 0 1 1.7-.7h1l1 .2c.3 0 .8 0 1.2-.2h.3l.2-.2.3-.3.5-.5.3-.6.3-.6.2-.6v-.8a5.4 5.4 0 0 0-.4-1.9l-.2-.3-.2-.3-.4-.5Zm-140.4-9a2 2 0 0 1 1.3 1.6c.6 3.6-.9 5.4-4.5 5.4-.4 0-1 0-1.4-.2a31.1 31.1 0 0 0-2.7 1.9l-1 1v.1a4.4 4.4 0 0 0 .2.7l.1.3c3.2 1.3 6.7 1.7 10.4 1.2.8-.1 1.5.2 2 1 2 3 1.3 5-2.1 6.1-1 .3-2 .6-2.9.7-1.6.2-3.3.3-5 .2-6.5-.7-10-4.3-10.4-10.6a7 7 0 0 1 1.6-5c4-4.9 8.8-6.3 14.4-4.3Zm25.3-33.4a31 31 0 0 1 3.5-2.2 24.3 24.3 0 0 1 24.5-.1c3.3 1.7 5.7 4.1 7.4 7.1a2 2 0 0 1 0 2c-1.6 3-3.7 3.5-6.4 1.1a21.4 21.4 0 0 0-15.7-5.3c-4 1.3-7.8 3.1-11.2 5.5-1.6 1-3.2 2.2-4.7 3.3a117 117 0 0 1-7.2 4.8c-.8 1-1.7 1.5-2.9 1.8-1.2.2-2.3 0-3.2-.8l-.4-.3c-1.9-3.3-1-6.1 2.8-8.2 4.7-2.6 9.2-5.5 13.5-8.7Zm90 5.8v-.1a32.6 32.6 0 0 0-15.5-4.7 18 18 0 0 0-8.3 1.6 57.4 57.4 0 0 0-9.5 5.6c-1 .7-2 .7-3 .1-2.6-1.6-3-3.7-1-6.2.3-.5.8-.8 1.5-1.1 5.9-5.6 13-8.2 21.3-8a36.7 36.7 0 0 1 27.1 13.5 4 4 0 0 1-.3 3.3c-.5 1-1.3 1.5-2.3 1.8a4 4 0 0 1-3.1-.3 35 35 0 0 0-6.8-5.5Zm-78.2 22.3a4.7 4.7 0 0 1-4.3-3.7c-.7-2.3.1-4 2.3-5.2.6-.3 1.3-.4 2-.3 3-1 4.8 0 5.5 2.9a5 5 0 0 1-.3 3.5c-1 2.2-2.8 3.1-5.2 2.8Zm63-4.5c0-.6.1-1 .4-1.5.9-1.6 2-2.4 3.6-2.5 1.1-.4 2.2 0 3 .9 1.7 1.1 2.3 2.7 1.9 4.7a4.5 4.5 0 0 1-4.4 3.5 5 5 0 0 1-2.7-.5c-1.6-1.5-2.2-3-1.8-4.4v-.2Zm-37 35c1-1.3 2-2.6 3.2-3.7.4-.4 1-.6 1.5-.6 2.2-.2 3.6.7 4.4 2.8.3.7.3 1.5 0 2.3-.3 1-.9 1.8-1.6 2.6-1.2 1.5-2.2 3-3.1 4.8-.1.1-.1.3 0 .4 2 .6 4.2.8 6.5.5 1.3-.3 2.6-.2 4 0 .7.2 1.4.6 2 1.3 1 1.5 1.1 3 .1 4.7a3.7 3.7 0 0 1-3 1.8l-6.6.3c-2.3 0-4.4-.5-6.4-1.3a8.1 8.1 0 0 1-4.4-4.7 7 7 0 0 1 .2-5.4c.8-2 1.9-4 3.2-5.8Zm-16.8 53-3-1.2a3 3 0 0 1-1.2-1c-1.2-1.7-1.1-3.4.3-5 .5-.7 1.2-1 2-1.2 1.2-.2 2.3 0 3.4.4a67.3 67.3 0 0 0 12.7 3.8 45 45 0 0 0 6.4 1H384.6c2.1.2 4.3.2 6.4-.1a59.5 59.5 0 0 0 11.5-2.8l.5-.3c2-.8 3.8-1.7 5.6-2.9.9-.6 1.8-1 3-1 1.3 0 2.4.6 3.3 1.8.8 1.2.9 2.5.3 3.8a5 5 0 0 1-2.6 2.5l-1.7.9a49.5 49.5 0 0 1-24.7 6.3l-1.2-.2-1.2-.1-.6-.1h.2a40 40 0 0 1-6.6-1 216.9 216.9 0 0 1-12.5-3.6Zm212.3 137.5c-2-1.5-4.1-3-6.3-4.4-4.8-2.4-10-4-15.3-5-4.1-.8-8.1-2-12-3.5a76.7 76.7 0 0 0-11.7-3.4 31 31 0 0 0-4.7 0c-1 0-1.8 0-2.7-.3l-.6-.4-.6-.6-.5-.5-.3-.5a63 63 0 0 1-11-3.4c.6 4.5.7 9.2.4 13.9-.3 4-.2 8 .2 12.1 1 10 2.5 20 4.6 29.9.7 3.3 1.3 6.7 1.7 10.2a95 95 0 0 0 8.3 29.5 576.6 576.6 0 0 1 14.7 40.2l-.2-2.8c0-.8.1-1.6.4-2.3a19 19 0 0 1 1.3-1.6c.2 0 .3-.2.4-.3l.5-.2 1-.2a6.1 6.1 0 0 1 2 .2 19 19 0 0 1 1.7 1.3l.3.4.2.4c1.4 8.8 2 17.6 1.8 26.4l-.5 29.9c0 2.6-.2 5-.7 7.5.1 19.5 1.7 38.8 4.7 57.9a423 423 0 0 0 13.9 59.8A2055.1 2055.1 0 0 1 576 663l.7.8.6.8c.3 1.4.4 2.8.3 4.1a36.7 36.7 0 0 1-1.2 5.8c0 4.4.1 8.7.6 13a187.9 187.9 0 0 0 2 14c2.2 20.7 5.7 41.6 10.6 62.8 3 13.1 6.5 26.2 10.4 39.2a762 762 0 0 1 14.8 56.6c4.4 20 8.3 40 11.6 60 .5 3.4-.4 6.4-2.8 9.1-1 1.1-1.7 2.3-2.3 3.6l-1.4 2.7a254.9 254.9 0 0 0-5.2 11.8 106.8 106.8 0 0 0-2.5 8h58.6c-1-20.4-1.8-40.9-2.7-61.4-.8-20.3-.8-40.4 0-60.6a865.8 865.8 0 0 0-3.5-118.8c-2-20.2-6.9-39.6-14.5-58.3-6.7-16.2-11-33-13-50.5a850.8 850.8 0 0 1-4.9-59.7 221 221 0 0 0-7.4-47.8c-5-19-7.6-38.4-7.8-58.1-.1-17.4-2.4-34.4-6.7-51.2a63.2 63.2 0 0 0-6.4-15.7 88.9 88.9 0 0 0-9.1-13c-3.5-2.6-6.9-5.3-10.1-8.1-2.6-2.4-5.3-4.5-8-6.6Zm2.4 355.9v-.1ZM238.7 334.6a73.3 73.3 0 0 0-23.3 7.5l-11 6a126.6 126.6 0 0 0-33.1 45.4c-2 4.4-3.3 9-4 14-1.9 15-2.7 30.2-2.4 45.4l.6 30.9c.1 9.8-1 19.6-3.5 29.3a81.4 81.4 0 0 0-2.4 16.1c-1 21.3-1.8 42.6-2.4 64.1a283 283 0 0 1-2.5 29.7c0 .5-.3 1-.6 1.4a7.6 7.6 0 0 1-1.2 1 166 166 0 0 1-7.2 31.8c-2 6-3.6 12-5 18.2-3.5 16.5-6 33.2-7.3 50a199.4 199.4 0 0 1-1.3 11.8c-1.2 20.2-2 40.3-2.6 60.3a693 693 0 0 0 1.2 60.6c1 17 2 34 2.8 51 .6 13.3.8 26.6.4 40 0 .7 0 1.5-.2 2.3-.2 1.7-.8 2.8-1.8 3.4h59a91.6 91.6 0 0 1-16.9-50.1c-.3-5.1 0-10.2 1-15.3 3.6-19.8 7.4-39.6 11.6-59.4a400 400 0 0 1 16.8-57.9c3.5-9.4 6.3-19 8.6-28.6 4.5-19.6 7.5-39.4 9-59.5 1-15.1 2.8-30.2 5.1-45.2a275 275 0 0 1 6.5-30.1l4.8-16.8a10.8 10.8 0 0 1 2.4-3.2c-1.6-6.1-2.8-12.3-3.6-18.6l-3.9-30.6c-.7-5.3-1.2-10.6-1.7-15.9a120 120 0 0 1 5-45.5 370 370 0 0 1 13-34.2c4.3-9 8.3-18 12-27.2 3.6-9.6 6.5-19.5 8.4-29.6a323.9 323.9 0 0 0 5.8-48.8c.2-4.2.6-8.5 1.1-12.7l-2 .7a31 31 0 0 1-3.8.6l-.2.2c-1.8 1-3.2 1.2-4.4.6-8.7 3.2-17.6 5.5-26.8 7Z"/></g><defs><clipPath id="a"><path fill="#fff" d="M0 0h800v942H0z"/></clipPath></defs></svg>