<svg xmlns="http://www.w3.org/2000/svg" width="800" height="942" fill="none"><g clip-path="url(#a)"><path fill="#000" d="m635.4 944.7.2-.2h-5.4l.3.2.7.5.8.3h.5a1.9 1.9 0 0 0 .9 0l.9-.1 1.1-.7Zm-468.7-1.9.1-.5h-8.9a48.3 48.3 0 0 0 2.7 2.7l.5.4.6.2 1.2.2h.6l.6-.2a4.6 4.6 0 0 0 1.1-.5l.5-.5.3-.4.3-.4.3-.5.1-.5Zm345.7-874-2.8-7.4c-2.6-7-5.8-14-9.6-20.5a41 41 0 0 0-6.7-8.8A123.5 123.5 0 0 0 470 14c-5.3-3.8-10.9-7.2-16.7-10.2a38.5 38.5 0 0 0-20.9-4 31 31 0 0 1-11-.8 86.6 86.6 0 0 0-29.3-2.5 252.7 252.7 0 0 1-34 2 69.2 69.2 0 0 0-29.5 10.1A257.7 257.7 0 0 0 303.7 26a44.7 44.7 0 0 0-13 18.6c-2.2 6.1-4 12.4-5.4 18.8-2.2 10.3-4.1 20.5-5.6 30.4a24.7 24.7 0 0 0-.2 1l-1 7a359 359 0 0 0-3.1 31A646.6 646.6 0 0 0 274 170a355.8 355.8 0 0 0-.8 37.5c-.2 3.5-.7 7-1.5 10.6-2.5 10-4 20.3-4.6 30.7l-1 16.2c-.5 8.1-1.1 16.2-1.9 24.3-1 10.4-1.6 20.8-1.9 31.2 0 2.7.2 5.4.6 7.9l-7.1.9c-15.6 1.8-31 5.7-46.1 11.8-4 1.6-7.7 3.8-11.1 6.5a236.8 236.8 0 0 0-28.5 27.6 96 96 0 0 0-21.8 43.1 164 164 0 0 0-3.6 29.4 282 282 0 0 1-4.7 43c-3 15.6-4.8 31.5-5.6 47.8a361 361 0 0 1-5.7 49c-3 16-6.5 32-10.7 47.6a1265.3 1265.3 0 0 1-17.5 59.2 178.6 178.6 0 0 0-9.7 47.8 684 684 0 0 0-1.5 49c.1 16.4.1 32.8 0 49.2-.1 16.5-.5 33-1.1 49.4-.7 16.2 0 32.3 2.2 48.4l.1.8.3.8.3.6.6.6 1.2 1a21 21 0 0 1 .9.1h1.4l.8-.2.6-.4a264.7 264.7 0 0 1 1.1-1l.4-.7c.3-1.1.4-2.2.2-3.2-1.3-9.2-2-18.3-1.9-27.5 0-17.5.3-35 .6-52.4.3-17.3.4-34.6.1-51.9-.3-17.3.1-34.6 1.2-51.9.5-8.6 1.6-17 3-25.5 2.6-14.8 6.2-29.3 10.8-43.6 4.5-14.4 8.8-28.9 12.8-43.5 4-15 7.6-30 10.7-45.1 3.3-16.3 5.3-32.8 6.1-49.4.8-17.2 2.8-34.3 5.9-51.1 2.9-15.9 4.8-31.8 5.7-48 .3-5.8.7-11.7 1.4-17.5 1.8-16.1 7.8-30.4 17.9-43a680 680 0 0 1 15.3-18.7 62.3 62.3 0 0 1 16.9-14c6.9-4 14-7.3 21.5-10a139.6 139.6 0 0 1 39.8-7.6l.5.2h2l.5-.2.5-.2h.6l2.6.5c1.4.2 2.9.3 4.4.2h.4c-1 4-2.1 7.8-3.3 11.7-2.1 6.9-4 13.8-6 20.8l.2.5.1.3a399 399 0 0 1-18 34.5c-8 13.8-15.3 28-21.8 42.5-7 15-11.6 30.6-14.1 46.9a123.3 123.3 0 0 0 1.7 47c3.1 13.5 6.9 26.8 11.2 40l-.2.4L224 603l-7.8 47.8c-.7 4.2-1.8 8.2-3.2 12.2a187 187 0 0 0-8.3 31.3c-1.5 8-2.8 16.1-4.1 24.2a277.2 277.2 0 0 1-12 47.8l-8 23.4c-5.3 15.3-10.3 30.8-14.9 46.4a620.5 620.5 0 0 1-15.7 46.1 79.4 79.4 0 0 0-4.6 18 51.7 51.7 0 0 0 12.5 42h8.9v-.7l.7.3.6.3h1.4l.7-.3.6-.2.6-.4.5-.5.3-.6.4-.6c-1.3-17-.8-34 1.4-50.9 2-16 4.5-32 7.2-47.8a326 326 0 0 1 12.4-49.3 736 736 0 0 1 15.2-41 317 317 0 0 0 33 16.7c12 5.2 24.2 9.9 36.7 14 12.4 4.1 25.1 7 38.2 8.8 13 1.8 26 3.3 39 4.6 7.3.5 14.5.8 21.7.7l20.3-.1c15.4-.2 30.7-.8 46-1.8a412 412 0 0 0 41-4.8l40.2-6.9a160 160 0 0 0 37-11.2 522.4 522.4 0 0 0 36-17.3l.6-.5a11.4 11.4 0 0 0 1.8-1.2l.5-.3a221.5 221.5 0 0 1 2 11c1.8 10.7 3.5 21.4 5.1 32.2 1.6 10.4 3.5 20.8 5.7 31.2a700.8 700.8 0 0 1 5.6 30.8 599.3 599.3 0 0 1 8.1 53.6 262 262 0 0 1 1.7 32.4l.4.9a8.8 8.8 0 0 0 .8 1h5.4l.7-.7.5-1.2.1-3.9.3-.4c3.6-8.3 6.9-16.7 10-25.3.7-2 1-3.9 1.3-5.8 1.3-14 0-27.8-4-41.5-2.7-9-5.5-16.9-8.4-23.6a316 316 0 0 1-9.2-23.4c-5-14.6-9.4-29.4-13.1-44.4a273.7 273.7 0 0 1-8.1-63c-.4-11.3-1.6-22.4-3.7-33.3l.2-.5c-.3-2.2-.9-4.3-1.7-6.3-3.3-8-6.8-15.7-10.6-23.4a239.4 239.4 0 0 1-11.1-26.2l-1.1-2a5 5 0 0 0-.9-1.4 9 9 0 0 0-.2-.6v-.2l-.1-3.9c.8-2.4 1.3-4.8 1.6-7.4a121.5 121.5 0 0 1 5.6-24.8 3.5 3.5 0 0 0 .4-1V579a124.3 124.3 0 0 0 9.9-37.5 82.7 82.7 0 0 0 0-27.4c-1.7-10.4-4-20.6-6.9-30.7-2.7-9.5-6.6-18.5-11.7-26.9a182.2 182.2 0 0 1-14-28.5 132 132 0 0 0-14.4-26.9 94.9 94.9 0 0 1-4.5-8.7 96.7 96.7 0 0 0-3.8-7.6 4 4 0 0 0-.3-2.3c-.3-.7-.7-1.3-1.3-1.8-2-4-3.7-8-5.3-12a884.8 884.8 0 0 1-8.4-22.8c-3-8.5-6.5-17-10.2-25.2l-1.4-3a62 62 0 0 0-.4-1c4.1 1.7 8.3 3.2 12.5 4.7 4.1 1.4 8.3 2.5 12.6 3.3 6.1 1.1 12.3 2.1 18.5 3a156.4 156.4 0 0 1 30.1 7.6c6.6 2.6 12.7 6 18.3 10.4h.2a227.4 227.4 0 0 1 9.5 8.3 87 87 0 0 1 8.5 9.2c4.6 5.6 8.5 11.6 11.9 18 3.8 7.4 7.3 14.9 10.5 22.5 3.3 7.9 5.5 16 6.6 24.5a657.4 657.4 0 0 1 2.5 21.5 5.2 5.2 0 0 0-.6.9 214 214 0 0 0-.6 13.9c-.2 12.2 1.3 24.1 4.6 35.8l13 47c2.8 9.8 4.4 19.8 4.8 30a958 958 0 0 0 2.7 42.3l-.3.4-.3.4a2 2 0 0 0-.2.5l-.2.5c.4 4 1.3 8.1 2.5 12.2 3.6 12.5 7.9 24.8 12.7 36.9a133 133 0 0 1 9.5 47.8 1987.8 1987.8 0 0 1-.5 73.3c-.7 16.3-.3 32.6 1.2 49 1.5 16 2.2 32.2 2 48.5-.2 16.5-.4 33-.8 49.5a8 8 0 0 0-.6 1.1l-.1.6-.1.6v.6a73.7 73.7 0 0 1 .6 1.4 138.9 138.9 0 0 1 1 1.2 138.9 138.9 0 0 1 .9.5 74.4 74.4 0 0 1 .7.2h1.6a4.3 4.3 0 0 0 1.4-.6l1-.7.2-.5c1.8-17.3 2.6-34.8 2.6-52.4a719 719 0 0 0-2.1-51.6 324 324 0 0 1-1-24.7l.2-49.4c0-16.9-.2-33.7-.6-50.6-.5-15.3-3.3-29.6-8.4-42.8a709 709 0 0 1-14.2-40.4v.2a65.5 65.5 0 0 0-.6-4.4l.2-.5c-.9-8.3-1.3-16.7-1.1-25 .3-16.5-1.5-32.6-5.5-48.3-4-16-8.3-32-12.8-47.8-1.1-3.9-2-7.8-2.7-11.7-2-11.7-3.1-23.5-3.2-35.4.5-.5 1-1.2 1.2-2 .5-2 .4-4-.4-6a143.4 143.4 0 0 0-4.4-34 126 126 0 0 0-8.2-22.8l-5.5-11.5a115.6 115.6 0 0 0-14.2-22.7 149 149 0 0 0-19-19 73.2 73.2 0 0 0-20.5-11.9c-7.6-3-15.4-5.3-23.3-7-4.1-1-8.2-1.6-12.4-1.9-7.3-.6-14.4-2-21.3-4.1a26.7 26.7 0 0 1 0-2.3 87 87 0 0 0 .8-17.4c-.6-10.6-1.5-21.2-2.6-31.7-1-10.7-1.6-21.3-1.7-32a441 441 0 0 0-2.2-43.2l-3-31.3c-1-9.8-1.5-19.6-1.6-29.4 0-10.1-.7-20.2-2-30.2s-3.7-19.6-7.3-29Zm-89.6 369.5h-.2.2Zm11.6-1.2h.2-.2Zm.7 7.9H434.5 435ZM239 617.5l1 5.9c.4 2.5.6 5 .6 7.5 0 1.9.2 3.8.6 5.8l-5 18.3c-4.3 15.6-9.6 31-15.8 46a16314 16314 0 0 0-15.3 37.2c3-12.4 5.3-25 6.7-37.7.4-3.8 1.2-7.5 2.2-11.1L221 664c3.4-12 5.9-24.2 7.6-36.4l4.3-31.4c2 6.6 4 13.6 6 21.2Zm-77.4 256.4.9-2.3c3.8-10.2 7.3-20.5 10.6-30.8-2.7 16.2-5.2 32.5-7.3 48.8a213 213 0 0 0-1 48.5l-5.9-8.6a35 35 0 0 1-6-25.3c1.4-10.5 4.3-20.6 8.7-30.3ZM553 428.7h-.1l.2.2-.1-.2Zm41.2 247.9v.2c1.4 10.4 2.3 20.9 2.8 31.4-2-6-3.9-12-5.6-18.1l-7.4-25.7c-2.3-7.6-4.4-15.3-6.3-23 2.2 5 4.6 9.8 7.2 14.6a159 159 0 0 1 9.3 20.6Zm8.1 83.6v-.3.3Zm24.2 92-.1-1A962 962 0 0 0 623 833c1.9 5 3.8 9.8 5.9 14.7a180.2 180.2 0 0 1 13 51c0 3.8-.5 7.4-1.7 11l-3.3 10-.7.9-.3-3.7a701.1 701.1 0 0 0-9-62 221.6 221.6 0 0 1-.4-2.8Zm-301-536c4.8-3.6 9.4-7.5 13.8-11.7a24 24 0 0 0 7.4-13 85.5 85.5 0 0 0 .8-29.5l.2-4.4 4 3.1a76.8 76.8 0 0 0 17 9.5 50.4 50.4 0 0 0 16.5 3 327.4 327.4 0 0 0 11.4.6 258 258 0 0 0 16-1.1 48.8 48.8 0 0 0 17.1-5 65 65 0 0 0 9.8-5.7l.7-.4 8.6-6.1v.4c-.6 1.8-.8 3.7-.6 5.8.7 8.3 2.3 16.4 4.9 24.3 1 3.4 2.5 6.7 4.2 9.9a24.5 24.5 0 0 0 15 12.4 169 169 0 0 0 1.3 8.1 106.5 106.5 0 0 0 5.2 17.8l-.1-.2.8 2.7a233 233 0 0 1 6.4 51c.2 4-.1 7.9-1 11.8a47.6 47.6 0 0 1-8.4 17.7c-4 5.3-9.4 9-16 11l-2.5 1.2c-3.2 1.6-6.5 3-9.9 4.3a64.6 64.6 0 0 1-10.4 2.9l-15.3 1.7c-6.5.6-13 .6-19.5-.1a999 999 0 0 1-22.1-2.5l-11.5-.6a96.8 96.8 0 0 1-26.7-4.8 22.1 22.1 0 0 1-10.6-7.4 52 52 0 0 1-8.2-14.6c-1.7-4.7-3-9.4-3.9-14.3-1.2-6.8-2-13.6-2.7-20.4a94.6 94.6 0 0 1 1.7-29c.5-3.1 1.2-6.3 2-9.4l4.6-19ZM444.7 44.1h.4l.5.1.6.1 3.6 1c4 1.3 8 3 11.7 5 3.9 2.1 6.8 5.2 8.9 9a63 63 0 0 1 4.3 15.2 113 113 0 0 1 1.3 16.1c0 5.5.3 11 .9 16.4.2 2.3 0 4.6-.4 6.9-.7 3.2 0 5.8 2.2 8l.8.3a3.8 3.8 0 0 0 2.7-.1c1.7.4 3.2-.3 4.4-2.4a35.1 35.1 0 0 1 .5-.2h1.2l2 .3c.7.1 1.4.5 2 1a12.4 12.4 0 0 1 .2.4l.1.2.2.2a130.8 130.8 0 0 1 1.8 12.8 38.5 38.5 0 0 1-.5 9.7l-.1.2v-.1.6l-.8 8.9a152.1 152.1 0 0 1-1.4 14.2c-.3 1.6-1 3-2.1 4.2l-.7.4-1.3.5-1.4.3-.2-.2-.1-.2-.2-.2-.1-.2a5 5 0 0 0-1.8-3.3c-.9-.8-2-1-3.1-.7-2.4.6-3.5 2-3.3 4-.4 2.6-.5 5.2-.3 7.8l.5 7.3c.2 5.4-.7 10.6-2.8 15.6l-1.6 4a78.8 78.8 0 0 1-8.8 17.1l-.2.2a104.5 104.5 0 0 1-4.7 6.8 59 59 0 0 1-11.5 15 1325.3 1325.3 0 0 0-13 9.3l.3-.2a46 46 0 0 1-18.7 8.4 84 84 0 0 1-15.9 1.8 209.9 209.9 0 0 1-18.9-.6 43 43 0 0 1-13-3.6c-4.9-2.3-9.5-5-13.8-8.3A149.5 149.5 0 0 1 339 239a87.4 87.4 0 0 1-15-22.4c-.5-1.3-1-2.6-1.3-3.9a96.4 96.4 0 0 1-3.8-24.6 1243.6 1243.6 0 0 1-.7-16.5c.2-.6.2-1.3.2-2a3 3 0 0 0-1.7-2.6c-2.8-1.4-4.8-.7-6 2.2l-.4.3-.3.3-.7.3c-.3 0-.5.1-.8 0h-3l-.7-.4c-.4-.3-.7-.7-1-1.2l-.5-1.3c-.8-2-1.1-4-1.1-6-.1-4.8 0-9.5.5-14.2l.4-6c.2-5.8.5-11.5 1-17.2.4-3.8 1.8-7.1 4.2-9.9h.2l.3-.1h.3a12.4 12.4 0 0 1 .4.2h.3c.3 1.2.8 2.2 1.5 3.2a3 3 0 0 0 3.2 1.2c1.7-.3 2.8-1 3.3-2 .8-.8 1.3-2 1.2-3.5-.3-5.4-.4-10.8-.3-16.2 0-5.5.6-11 1.6-16.3l2.1-12c.6-3.8 2.4-6.9 5.3-9.2 4-3.4 8.6-6 13.5-8.2a87 87 0 0 1 15.8-5c5.7-1.2 11.4-2.5 17-4a76.5 76.5 0 0 1 29.1-1.8 845 845 0 0 0 24.2 2.7 297.8 297.8 0 0 1 17.4 1.3Zm-68 529.8 3.5-.3a269.1 269.1 0 0 1 55.3.4c11 1.1 22 2.6 33 4.4 10.1 1.6 20.2 3.6 30.2 6.1 12.3 3 24.8 5.4 37.5 6.9a83.8 83.8 0 0 0 37.4-4.9c-1.8 6-3 12-3.8 18-.2 1.9-.6 3.6-1.1 5.3-.7 2.1-.7 4 0 5.4-.7 4.1-1 8.3-.7 12.5a74 74 0 0 0 2 14.3c2.3 9.6 5 19.2 7.8 28.8l3.7 13.2c2.7 10 5.7 20 9 29.8a455.5 455.5 0 0 1 8.6 29.8h-.6l-.3.1a6.2 6.2 0 0 1-.5.2l-.1.1-1.2.7-1.1.7a51.8 51.8 0 0 1-2.1 1.4 669 669 0 0 1-16.1 8.5 185.3 185.3 0 0 1-34.8 13.8 311.1 311.1 0 0 1-40.2 8.3h.1-.1c-10.5 1.6-20.9 3.2-31.3 5a304 304 0 0 1-39.6 3.7l-31.4 1.1c-15.4.6-30.8.3-46.1-1-13-1-26-2.4-39-4.3A196 196 0 0 1 276 772a555 555 0 0 1-35.4-14.3 293 293 0 0 1-28.7-14.7c6.4-15.3 12.7-30.6 18.9-46a381.7 381.7 0 0 0 16.8-52.5c.5-2.2.8-4.4.8-6.6 0-15.5-2.5-30.6-7.8-45.2l-3.8-10.6c5.6 4 11.6 7.3 18.2 9.7a95.6 95.6 0 0 0 28.5 6c4.6 0 9.2-.5 13.7-1.5 7.4-1.8 14.6-4 21.7-6.9a275 275 0 0 1 57.8-15.6ZM529 382l-.1 1c3.5 8.2 7.6 16.1 12.3 23.8l3.9 6.6c2.6 4.5 4.9 9.2 6.9 14 3 7.3 6.5 14.4 10.4 21.3 3.8 6.9 7.4 13.9 10.9 21 4.5 9.4 7.9 19.2 10.2 29.5 1.5 6.9 2.6 13.8 3.2 20.8.7 8 .4 15.9-.7 23.8a133.1 133.1 0 0 1-8.2 30.4l-.8 2a59.2 59.2 0 0 1-29.5 7.8 138.3 138.3 0 0 1-28.3-3.2h.2c-3.5-.5-6.9-1.2-10.2-2.1a333 333 0 0 0-32.3-7.1c-12-2.1-24-3.8-36-5.1a306.8 306.8 0 0 0-64.4-.4l-5 .7a208 208 0 0 0-32.5 7.2 385.7 385.7 0 0 0-30.4 10.6 68.5 68.5 0 0 1-47.9 1.3A63.4 63.4 0 0 1 234 568l-.2-.4-.3-.4-.3-.3-.3-.4-.4-.3-.4-.2-.4-.2h-.2c-1.9-6.1-3.6-12.3-5.3-18.4a129 129 0 0 1-4-47.3c1.6-16.3 5.8-32 12.4-47 6.6-15 14-29.5 22.5-43.5a280.5 280.5 0 0 0 19.4-39V368.7a39 39 0 0 0 2-4.7c1.9-5.6 3.5-11.3 4.9-17a229.4 229.4 0 0 1 3.5-13.1c4.5-1.6 9-3.5 13.2-5.6 3-1.6 6-3.4 8.8-5.5a34.4 34.4 0 0 1 7.7-4.4l-.1.6a416.7 416.7 0 0 0-7 34.3 117.3 117.3 0 0 0-.1 22.5l1 10.8a87.8 87.8 0 0 0 12.9 38c3.5 5.6 8.3 9.6 14.5 12a86.5 86.5 0 0 0 18.9 5h-.1l3.2.5c3.9.7 7.8 1 11.7 1a175.3 175.3 0 0 1 21.2 1.7 162.8 162.8 0 0 0 7.6.9h-.1.9c1 .2 2.2.3 3.4.3l3.3.3c1.3.2 2.6.3 4 .3 6.8-.1 13.7-.5 20.5-1.1 6.1-.6 12.2-2 18.3-4.4 5.7-2.2 11.2-4.5 16.5-6.8a43.6 43.6 0 0 0 21.1-19.8 52.1 52.1 0 0 0 5.9-23.7 503.7 503.7 0 0 0-1.3-23.3 173.2 173.2 0 0 0-6.5-35.6 1179.7 1179.7 0 0 1-5.9-23h3.3l.5.2h.1l5.6 1.2c2 .4 4 1.2 5.8 2.2a13 13 0 0 0 5.3 1.8c.6 1.5 1.3 3 2.2 4.5 2 3.4 3.7 6.9 5.3 10.5 4 9 7.5 18.6 10.6 28.7A129.1 129.1 0 0 0 529 382Zm-13.5-223.3c1 10 2 20 2.7 30 .8 10 1.3 20 1.6 30a685.7 685.7 0 0 0 4.2 59.3 167 167 0 0 1 .3 33.1 99.7 99.7 0 0 0-.5 1.6 487.5 487.5 0 0 1-20.1-7.2c-1-.1-2 0-2.7.6l-.9-.4c-2.3-1.2-4.7-2-7.2-2.7a100.4 100.4 0 0 0-7.4-1.5h.2l-2.8-.5c-2-.3-3.8 0-5.4.6-2.4-.8-4.8-1.8-7-3a12 12 0 0 1-4.8-4.4 51.2 51.2 0 0 1-5.7-12.6 82.9 82.9 0 0 1-3.4-23.4c.4-2.4.6-4.8.8-7.2 0-.7 0-1.4-.3-2 2-2.1 3.7-4.4 5.2-7 1.7-2.8 3.5-5.6 5.5-8.3 3.2-4.2 6-8.7 8.4-13.4a124.5 124.5 0 0 0 7.4-17.7c1.3-3.7 2-7.4 2-11.3 0-3.4-.1-6.7-.3-10h.4c1.7 0 3.4-.2 5-.7 2-.7 3.5-1.7 4.8-3.1a18 18 0 0 0 4.6-10.8 1093 1093 0 0 0 1.6-19.7l.8-5c.4-3 .4-6 0-9-.5-3.2-.9-6.3-1.1-9.5-.4-5.6-3.2-9.2-8.3-11-2.8-1-5.5-1-8.2-.4l-.2-3.5c-.3-4.3-.4-8.5-.5-12.7-.1-5.5-.3-11-.7-16.5a83.3 83.3 0 0 0-3-16 33.5 33.5 0 0 0-21.4-23l-1.2-.6a58.2 58.2 0 0 0-15.6-4h.2a79.9 79.9 0 0 0-10.6-.6 98.7 98.7 0 0 1-13.7-1.2h-.1l-1.2-.1a51 51 0 0 0-5.5-.5L409 33a81.6 81.6 0 0 0-3-.3c-4.1-.5-8.2-.9-12.3-1.1-5.4-.3-10.7.1-16 1.3l-16 3.6c-5.6 1.3-11 2.8-16.4 4.6a87.6 87.6 0 0 0-20.3 9.7 21 21 0 0 0-7.5 8.3 36.7 36.7 0 0 0-3.1 9 270 270 0 0 0-2.9 17.2c-.4 2.9-.6 5.8-.6 8.8l-.2 11.9c-.8-.2-1.7-.2-2.6-.2-1.4 0-2.6.5-3.7 1.3a18.5 18.5 0 0 0-7.7 12.8c-.8 5.4-1.3 11-1.3 16.5-.1 5.3-.6 10.7-1.3 16a36 36 0 0 0 2.6 19.6 10.5 10.5 0 0 0 10.1 6h3.5l1.2 15.2c.4 5.5 1.2 11 2.3 16.5 1 5.5 3 10.7 5.6 15.6a89.9 89.9 0 0 0 20.5 25.7l-.1 11v.3c0 3.6.2 7.2.7 10.9a36.9 36.9 0 0 1-4 22.5l-1.5 1.5c-1.9 2-4 4-6 5.8l-7.4 6.2a15.1 15.1 0 0 0-1.1.3 16 16 0 0 0-10 3A130.7 130.7 0 0 1 286 326a66.7 66.7 0 0 0-1.6-.4 4 4 0 0 0-2.7.8l-1.1 1.8-.6-.1-1.1-.2a13 13 0 0 0-1.3.2h-.1l-.2.2h-2a15 15 0 0 1-3.3-.5l-.9-.2a270.4 270.4 0 0 1 2.6-54.5l1.9-28c.6-10.5 2.3-20.7 5.1-30.7.3-1.1.4-2.2.4-3.2-.6-10.5-.5-21 .4-31.5.8-10 1.3-20.2 1.3-30.4 0-10.6.5-21.1 1.6-31.6 1.2-11 2.7-21.7 4.6-32.2l.1-.6v.6l-.1.5c1-5.2 2-10.3 2.8-15.5A97.4 97.4 0 0 1 302 40.3a22 22 0 0 1 3.6-5A139.4 139.4 0 0 1 342.9 10a37 37 0 0 1 15.7-3.4c10.2 0 20.5-.5 30.8-1.2 2.7-.2 5.3-.6 8-1.1 2.5-.5 5-.5 7.4 0a168 168 0 0 0 34.4 3.5 8 8 0 0 1 2.6.4c8 2.8 15.5 6.6 22.6 11.5l-.3-.3.3.2c3.8 2.8 7.6 5.4 11.4 8 2.8 2 5 3.5 6.4 4.8 7 6.3 12.3 14 15.8 23 1.1 3 2.5 6 4 9a98.8 98.8 0 0 1 9.3 29.4c1.6 11 2.5 21.9 2.5 33 0 10.6.6 21.3 1.7 32Zm82 585.4h.2-.1ZM382 264.8h-.2.3-.1Zm-42.6-26.1ZM493.7 128v-.1l-.1-.3v.4Zm-69.3 80a93.8 93.8 0 0 1-2.3.6c-.3.1-.7.3-1 .6a50 50 0 0 0-6.5 2.6 29 29 0 0 1-8.7 3 39.1 39.1 0 0 1-12.2.2h.4a12.5 12.5 0 0 0-.5 0 93.4 93.4 0 0 1-17-4.4 7.5 7.5 0 0 0-5.6-.9c-1 .2-1.7.9-2 1.9-1 3 0 5.1 3.3 6.2l-.1-.1 2.7 1a95.6 95.6 0 0 0 18.3 4.2 132 132 0 0 0 7.3.5h.9a29.5 29.5 0 0 0 4.4-.4h.2l2-.3c2.3-.5 4.5-1.2 6.7-2l6.2-3-.1.1a40.6 40.6 0 0 1 3.2-1.2l1.5-.7c1-.4 1.9-1 2.4-2 .7-1.3.6-2.6-.1-3.9a4 4 0 0 0-3.4-2ZM361 95.8a40.6 40.6 0 0 0-23.6 10h-.1l-.2.1-1.3 1-.7.6-1.1.7a4 4 0 0 0-2 4c.1 1.8 1 3 2.8 3.5a4 4 0 0 0 3.8-.8l3.2-2.6 1.3-1a39.9 39.9 0 0 1 40.4-4.5c1 .6 2 .8 3 .7 2.8-.3 4-1.8 3.7-4.6-.1-.8-.5-1.5-1.1-1.9a31.5 31.5 0 0 0-12.5-4.7c-5.2-.8-10.4-1-15.6-.5Zm70-2.3c-2 0-3.8 0-5.6.2-5.6.7-11 2.4-15.9 5.1-.9.5-1.7 1-2.4 1.8-1.4 1.4-1.5 2.9-.5 4.5 1.4 2.1 3.2 2.5 5.4 1.3 4.3-2.5 8.9-4 13.9-4.5l1.3-.2c1.1-.2 2.2-.3 3.4-.2 4.3.4 8.6 1.2 12.7 2.6 4.1 1.3 8 3.2 11.6 5.7 1 .8 2.3 1 3.6.5 1.8-.6 2.7-2 2.5-3.9-.2-2.2-1.3-3.6-3.4-4.2l-2.5-1.8a29 29 0 0 0-3.8-2l-1.2-.5c-1.6-.8-3.3-1.4-5.1-2l-6.7-1.4-.9-.2a41 41 0 0 0-6.4-.8Zm24.6 16.4H455.4h.3Zm13.5 32.2c.3.4.6.6 1.1.7 2.3.3 4.5 1 6.6 2 .6.8.8 1.6.8 2.6a9.9 9.9 0 0 1-1 3.4h-.5a7.8 7.8 0 0 0-3.4 0 3.3 3.3 0 0 0-2.7 3c-.3 2.6.7 4.1 3.2 4.7 1.2.3 2.5.3 3.8.2a8.6 8.6 0 0 0 7.9-6.7c.6-2 .7-4 .4-6-1-6-4.5-9.5-10.6-10.3l-1.8-.3c-1.1-.2-2.1 0-3 .6-2.4 1.7-2.7 3.8-.8 6ZM318 134a9 9 0 0 0-6.8 4.7 13.8 13.8 0 0 0-1.7 10c.8 4.2 3.5 6.7 7.9 7.4 1.6.3 3.2.4 4.8.3 1 0 1.8-.4 2.6-1 2.3-1.7 2.5-3.8.6-6-.4-.4-.8-.7-1.3-.7a67.8 67.8 0 0 1-6.8-1h-.1l-.1-1.1c0-1 .1-2 .6-2.8l1.1-1.9c2 .7 3.5.3 4.8-1.3.7-.9.9-1.8.6-2.8-1-3-3-4.3-6.2-3.8Zm71.4 33.2c-.5 1.2-.8 2.5-1 3.9-.2 1.3.1 2.5 1 3.6 2.3 2.7 5.4 4 9.1 4 1.8.2 3.7.2 5.5.1.7 0 1.5-.4 2.3-1 2.2-2 2.2-4 .2-6.2-.3-.3-.7-.5-1.2-.5l-8.4-.6c1.2-3.1 2.5-6.1 3.9-9.1.7-1.6.4-3-.8-4.1-2-1.9-4-1.8-5.8.2-.5.5-.9 1.1-1.2 1.7-1.3 2.6-2.5 5.3-3.6 8Zm50.5-46c-2.3-2.4-4.6-2.4-7 0-.5.6-.9 1.3-1.1 2-.9 3 .3 5 3.5 5.9 2.8.4 4.6-.7 5.6-3.4.5-1.7.2-3.2-1-4.4Zm-70.8 0c-1.9-2.5-4.2-3-7-1.6-1 .5-1.6 1.3-1.9 2.4-.8 3.2.4 5.2 3.7 6.1 2.7.4 4.6-.7 5.7-3.3.5-1.3.3-2.5-.5-3.6Zm95 103.5.1-.2-.2.3.1-.1Zm30-81v-.1.2ZM385.7 273.5a1 1 0 0 0-.4 0h.4ZM153.7 872a5.8 5.8 0 0 1 0 .2v-.2Zm-58.4 70h-1.4 1.4Zm489.9-606.5h-.1Zm-61 12.3.3.7a13.2 13.2 0 0 1-.1-.3 13.9 13.9 0 0 0-.2-.4Zm180.8 597h.3a3.4 3.4 0 0 0 1.3 0H705Z"/><path fill="#333" d="M241.9 767.3a317 317 0 0 1-33.1-16.7 735.4 735.4 0 0 0-15.2 41 325.7 325.7 0 0 0-12.4 49.3c-2.7 15.9-5.1 31.8-7.2 47.8-2.2 17-2.7 34-1.4 51l-.4.5-.3.6-.5.5a8 8 0 0 1-.6.4l-.6.2-.7.2a5 5 0 0 1-.7 0h-.7v.2l461.7 2.2v-.4l-.4-.7-.4-.9v-.4l-.1-.5c.1-10.6-.4-21-1.6-31.5a599.4 599.4 0 0 0-8.2-54.2c-1.6-10-3.5-20-5.5-30.2a585 585 0 0 1-5.7-31.2 2089.4 2089.4 0 0 0-7.1-43.2l-.5.3a11.2 11.2 0 0 1-1.8 1.2l-.6.4-.4.4-.5.3a6 6 0 0 1-.4.2l-.5.2-.5.2h-.2c-11 5.8-22.1 11.1-33.4 16.1a160 160 0 0 1-37.1 11.2l-40.1 6.9c-13.6 2.3-27.3 3.9-41 4.8a849.9 849.9 0 0 1-66.4 2c-7.2 0-14.4-.3-21.6-.8-13-1.3-26.1-2.8-39.1-4.6-13-1.8-25.8-4.7-38.2-8.8a418 418 0 0 1-36.6-14Z"/><path fill="#734800" d="m518.2 188.7-2.7-30a320.2 320.2 0 0 1-1.7-32c0-11.1-.9-22-2.5-33a98.8 98.8 0 0 0-9.3-29.4c-1.5-3-2.9-6-4-9a58.7 58.7 0 0 0-22.2-27.8c-3.8-2.6-7.6-5.2-11.4-8-7.1-4.8-14.7-8.6-22.6-11.4a8 8 0 0 0-2.6-.4 160.4 160.4 0 0 1-34.4-3.5c-2.5-.5-5-.5-7.4 0-2.7.5-5.3.9-8 1-10.3.8-20.6 1.2-30.8 1.3A37 37 0 0 0 343 10c-9.1 4.1-17.7 9.2-25.7 15.2-4.1 3-8 6.4-11.7 10.1a22 22 0 0 0-3.6 5c-5 9.4-8.5 19.5-10.2 30.2a502.3 502.3 0 0 1-2.7 15h-.1c-2 10.5-3.4 21.2-4.6 32.2-1.1 10.5-1.7 21-1.6 31.6 0 10.2-.5 20.3-1.3 30.4-.9 10.5-1 21-.4 31.5 0 1-.1 2.1-.4 3.2-2.8 10-4.5 20.2-5.1 30.7a1567 1567 0 0 1-2.8 36.3 246 246 0 0 0-1.7 46.2l.9.2a132.5 132.5 0 0 0 3.3.5h2.1-.1l.2-.1.4-.2 1-.1c.4 0 .7 0 1 .2l.7.1 1.1-1.8a4 4 0 0 1 2.7-.8 85.4 85.4 0 0 1 1.6.4l6.9-3.1c6.1-3 12-6.4 17.6-10.3a16 16 0 0 1 10.3-3.2l.8-.2c2.5-2 5-4 7.4-6.2a76.5 76.5 0 0 0 7.5-7.3 36.9 36.9 0 0 0 4-22.5c-.5-3.7-.8-7.3-.7-11v-.3l.1-10.9-.3-.2a89.8 89.8 0 0 1-20.2-25.4c-2.6-5-4.5-10.2-5.6-15.7-1.1-5.5-2-11-2.3-16.5l-1.2-15.3c-1 .2-2 .2-3 .2h-.5a10.5 10.5 0 0 1-10.1-6.1 23.4 23.4 0 0 1-.8-2 36 36 0 0 1-1.8-17.6c.7-5.3 1.2-10.7 1.3-16 0-5.6.5-11 1.3-16.5.8-5.4 3.4-9.7 7.7-12.8a6.7 6.7 0 0 1 3.7-1.3c1 0 1.8 0 2.6.2 0-4 0-8 .2-12 0-2.9.2-5.8.6-8.7a270 270 0 0 1 2.9-17.3c.6-3.1 1.7-6.1 3.1-9a21 21 0 0 1 7.5-8.2 88.6 88.6 0 0 1 20.3-9.7c5.4-1.8 10.8-3.3 16.4-4.6l16-3.6a57.8 57.8 0 0 1 16-1.3 167.3 167.3 0 0 1 17.9 1.7l1.4.1a51.2 51.2 0 0 1 5.1.5 65.6 65.6 0 0 0 4.9.7c3 .3 6 .4 8.9.5a98.8 98.8 0 0 1 10.6.7h-.1c2.8.2 5.6.7 8.3 1.4a36.2 36.2 0 0 1 8.4 3 33.7 33.7 0 0 1 21.5 23 83.3 83.3 0 0 1 2.9 16.1c.4 5.5.6 11 .7 16.5a270.5 270.5 0 0 0 .7 16.2c2.7-.7 5.4-.5 8.2.4 5 1.8 7.9 5.4 8.3 11 .2 3.2.6 6.3 1 9.4.5 3 .5 6 0 9.1l-.7 5v1.4l-1.6 18.3a18 18 0 0 1-4.6 10.8 10.8 10.8 0 0 1-4.7 3c-1.7.6-3.4.9-5.1.9l-.4-.1c.2 3.3.3 6.6.3 10a33.7 33.7 0 0 1-3.4 15.1 92.7 92.7 0 0 1-14.4 27.3c-2 2.7-3.8 5.5-5.5 8.4a36.5 36.5 0 0 1-5.2 6.8l.3 2.1c-.2 2.4-.4 4.8-.8 7.2 0 8 1.1 15.7 3.4 23.4 1.3 4.5 3.2 8.7 5.7 12.6a12 12 0 0 0 4.8 4.5c2.2 1.1 4.6 2.1 7 3 1.6-.8 3.3-1 5.4-.7l2.8.5H485c2.6.3 5.2.9 7.8 1.5a36.5 36.5 0 0 1 8 3 4.2 4.2 0 0 1 4.8.3l1.3.5 16.8 6 .5-1.7.3-1a167 167 0 0 0-.6-32 620 620 0 0 1-4.2-59.4c-.3-10-.8-20-1.6-30Z"/><path fill="#CCC" d="M528.9 383a10.4 10.4 0 0 1 0-1.3c-4-7.5-7.3-15.3-9.8-23.6a262.4 262.4 0 0 0-10.6-28.7c-1.6-3.6-3.4-7.1-5.3-10.5a37 37 0 0 1-2.2-4.5 13 13 0 0 1-5.3-1.8c-1.8-1-3.8-1.8-5.8-2.2l-5.6-1.2h-.1l-.5-.1c-.6-.1-1.2-.2-1.8-.1l-1.4.3a1157.7 1157.7 0 0 0 5.8 22.7 210.5 210.5 0 0 1 7.5 64 52.1 52.1 0 0 1-5.6 18.6 43.7 43.7 0 0 1-21.1 19.8c-5.3 2.3-10.8 4.6-16.5 6.8-6 2.3-12.2 3.8-18.3 4.4-6.8.6-13.7 1-20.5 1.1-1.4 0-2.7 0-4-.3l-3.3-.3a39.3 39.3 0 0 1-4.3-.3h.1-.2l-7.4-.9-7.5-.8-1.8-.2c-4-.4-8-.6-11.9-.6a72.5 72.5 0 0 1-14.9-1.6h-.2c-6.4-1-12.6-2.7-18.6-5-6.2-2.4-11-6.4-14.4-12a87.7 87.7 0 0 1-13-38l-1-10.8a117.3 117.3 0 0 1 .2-22.5V352.5l.1-.1a472.4 472.4 0 0 1 6.8-33.3l-.3-.5c-2.6 1.1-5 2.5-7.3 4.3-2.8 2-5.7 3.9-8.8 5.5a102 102 0 0 1-13.3 5.7c-1.2 4-2.4 8.4-3.4 13a188 188 0 0 1-5 17c-.5 1.6-1.2 3.2-2 4.7l.2.4v.7a4.7 4.7 0 0 1-.2 1.3c-5.5 13.3-11.9 26-19.3 38.4-8.4 14-16 28.5-22.5 43.5-6.6 15-10.8 30.7-12.4 47a129 129 0 0 0 4 47.3 631 631 0 0 0 5.5 18.4l.4.2.4.2.4.3.3.4a3.2 3.2 0 0 1 .6.7c0 .1 0 .3.2.4l.1.5c7.4 8 16.2 13.7 26.6 17.3a68.5 68.5 0 0 0 47.9-1.3c10-4 20.1-7.5 30.4-10.6a207.9 207.9 0 0 1 37.5-8 288.6 288.6 0 0 1 64.4.5c12 1.3 24 3 36 5a333 333 0 0 1 32.3 7.2c3.3.9 6.7 1.6 10.2 2.1h-.2c9.3 2 18.7 3 28.2 3.1a59.2 59.2 0 0 0 29.6-7.7l.8-2c3.9-9.8 6.6-20 8.2-30.4 1.1-8 1.4-15.9.7-23.8-.6-7-1.7-14-3.2-20.8-2.3-10.3-5.7-20.1-10.2-29.5-3.5-7.1-7.1-14.1-11-21-3.8-7-7.2-14-10.3-21.3a130.3 130.3 0 0 0-10.8-20.6c-4.7-7.7-8.8-15.6-12.3-23.8ZM380.2 573.5a121.6 121.6 0 0 0-7.7 1 274.9 274.9 0 0 0-53.6 15c-7 2.7-14.3 5-21.7 6.8-4.5 1-9.1 1.5-13.7 1.5a95.6 95.6 0 0 1-28.5-6 75.4 75.4 0 0 1-18.2-9.7l3.8 10.6c5.3 14.6 7.9 29.7 7.8 45.2 0 2.2-.3 4.4-.8 6.6-4.4 17.9-10 35.4-16.8 52.5-6.2 15.4-12.5 30.7-19 46a293 293 0 0 0 28.8 14.7 555 555 0 0 0 35.4 14.3 196 196 0 0 0 38.8 9.8c12.9 1.9 25.9 3.3 38.9 4.4 15.3 1.2 30.7 1.5 46.1 1 10.4-.5 20.9-.9 31.4-1.2a304 304 0 0 0 39.6-3.8l31.3-4.9c13.6-1.9 27-4.7 40.2-8.3 12-3.4 23.6-8 34.8-13.8a669.2 669.2 0 0 0 18.2-10l1.1-.6a12.5 12.5 0 0 1 1.2-.7h-.1.2v-.1h.2l.3-.2h.3l.6-.1a267.2 267.2 0 0 0-8.6-29.8c-3.3-9.9-6.3-19.8-9-29.8l-3.7-13.2c-2.9-9.6-5.5-19.2-7.8-28.8a73.8 73.8 0 0 1-1.3-26.8 7.7 7.7 0 0 1 0-5.4c.5-1.7.9-3.4 1.1-5.2.8-6.2 2-12.2 3.7-18a83.8 83.8 0 0 1-37.3 4.8 303.3 303.3 0 0 1-37.5-6.9c-10-2.5-20-4.5-30.2-6.1-11-1.8-22-3.3-33-4.4a269.2 269.2 0 0 0-55.3-.4Z"/><path fill="#fff" d="M445.1 44.1h-.5c-5.8-.6-11.5-1-17.3-1.3l-8.1-.7c-5.4-.6-10.7-1.2-16-2A76.5 76.5 0 0 0 374 42a423 423 0 0 1-17.1 4 87 87 0 0 0-15.8 5 55.8 55.8 0 0 0-13.5 8.1 14.5 14.5 0 0 0-5.3 9.1l-2.1 12a96 96 0 0 0-1.6 16.4c0 5.4 0 10.8.3 16.2 0 1.6-.4 2.7-1.2 3.4-.5 1-1.6 1.8-3.3 2a3 3 0 0 1-3.2-1.1c-.7-1-1.2-2-1.5-3.2h-.5l-.2-.2H308.5l-.2.1c-2.4 2.8-3.8 6-4.2 9.9a330.6 330.6 0 0 0-1.4 23.2c-.5 4.7-.6 9.4-.5 14.1a18.5 18.5 0 0 0 1.7 7.4c.2.5.5.9.9 1.2l.7.4h3c.3.1.5 0 .8 0l.7-.3.3-.3.4-.3c1.2-2.9 3.2-3.6 6-2.2a3 3 0 0 1 1.7 2.6c0 .7 0 1.4-.2 2l-.1 1a1243.6 1243.6 0 0 0 1.5 23.8 96.4 96.4 0 0 0 4.4 20.2 77.2 77.2 0 0 0 15 22.4 149.5 149.5 0 0 0 16 14.2c4.4 3.3 9 6 13.9 8.3a43 43 0 0 0 16 4c5.4.2 10.6.3 15.9.2a84 84 0 0 0 15.9-1.8 46 46 0 0 0 18.7-8.4l12.7-9.1 2.4-2.1a59 59 0 0 0 9-12.9l1.4-2 3.4-4.7c0-.2 0-.2.2-.3h-.1a89 89 0 0 0 10.5-21.1c2.1-5 3-10.2 2.8-15.6l-.5-7.3c-.2-2.6-.1-5.2.3-7.7-.2-2.1 1-3.5 3.3-4 1.2-.4 2.2-.2 3.1.6a5 5 0 0 1 1.8 3.3l.1.2.2.2.1.2.2.2c.5 0 1-.2 1.4-.3l1.3-.5.7-.4a7.7 7.7 0 0 0 2-4.2 66 66 0 0 0 .7-5.5l.8-8.7a201 201 0 0 1 .9-9.6v-.4.1c.6-3.1.7-6.3.5-9.4a93.3 93.3 0 0 0-2.3-13.6c-.6-.5-1.3-.9-2-1-.7-.2-1.4-.2-2-.2h-1.4l-.3.1c-1.2 2-2.7 2.8-4.4 2.4h-.2a3.8 3.8 0 0 1-3.3-.2 8.2 8.2 0 0 1-2.2-8c.5-2.3.6-4.6.4-6.9-.6-5.4-1-10.9-1-16.4 0-5.4-.4-10.8-1.2-16a63 63 0 0 0-4.3-15.2c-2-4-5-7-8.9-9a56.3 56.3 0 0 0-15.3-6l-.6-.2h-.5Zm19.1 180.5-.1.2h-.1l.2-.2Zm-102-105c2.7-1.3 5-.8 6.9 1.7.8 1.1 1 2.3.5 3.6-1.1 2.6-3 3.7-5.7 3.3-3.3-.9-4.5-3-3.7-6 .3-1.2 1-2 2-2.5Zm70.7 1.8c2.4-2.5 4.7-2.5 7 0a4.2 4.2 0 0 1 1 4.4c-1 2.7-2.8 3.8-5.6 3.4-3.2-.9-4.4-2.9-3.5-5.9.2-.7.6-1.4 1.1-2Zm-44.5 49.8c.2-1.4.5-2.7 1-4 1.1-2.6 2.3-5.3 3.6-7.9.3-.6.7-1.2 1.2-1.7 1.8-2 3.8-2 5.8-.2 1.2 1.1 1.5 2.5.8 4-1.4 3-2.7 6.1-3.9 9.2l8.4.6c.5 0 .9.2 1.2.5 2 2.1 2 4.2-.2 6.1-.8.7-1.6 1-2.3 1.1h-5.5c-3.7 0-6.8-1.4-9.1-4-.9-1.2-1.2-2.4-1-3.7Zm-77.2-32.4a9 9 0 0 1 6.8-4.7c3.2-.5 5.3.7 6.2 3.8.3 1 .1 2-.6 2.8-1.3 1.6-2.9 2-4.8 1.3-.4.6-.8 1.2-1.1 2-.5.8-.7 1.7-.6 2.7l.1 1 .1.1.3.2.2.1c2 .3 4.2.6 6.3.7.5 0 1 .3 1.3.7 1.9 2.2 1.7 4.3-.6 6-.8.6-1.7 1-2.6 1-1.6 0-3.2 0-4.8-.3-4.4-.7-7-3.2-7.9-7.5-.7-3.5-.1-6.8 1.7-10Zm159.1 4c-.5-.1-.8-.3-1.1-.7-1.9-2.3-1.6-4.4.8-6 .9-.7 1.9-1 3-.7l1.8.3c6.1.8 9.7 4.3 10.6 10.3.3 2 .2 4-.4 6a8.6 8.6 0 0 1-7.9 6.7c-1.3.1-2.6 0-3.8-.2-2.5-.6-3.5-2.1-3.2-4.6a3.3 3.3 0 0 1 2.7-3c1.1-.4 2.2-.4 3.4-.1h.6c.5-1.1.8-2.2.9-3.4 0-1-.2-1.8-.8-2.5a20 20 0 0 0-6.6-2.1Zm-44.8-49a41 41 0 0 1 12 .6h.9l6.7 1.6c1.8.5 3.5 1.1 5.1 2l1.2.5a29.1 29.1 0 0 1 6.3 3.7c2 .6 3.2 2 3.4 4.2.2 2-.7 3.3-2.5 4-1.3.3-2.5.2-3.6-.6a43.8 43.8 0 0 0-11.6-5.7 56.9 56.9 0 0 0-12.7-2.6c-1.2 0-2.3 0-3.4.2l-1.3.2c-5 .5-9.6 2-14 4.5-2.1 1.2-4 .8-5.3-1.3-1-1.6-.9-3.1.5-4.5.7-.7 1.5-1.3 2.4-1.8 5-2.7 10.3-4.4 15.9-5Zm-70.5 3a64.7 64.7 0 0 1 27 .8c2.6.8 5 2 7.2 3.4.6.4 1 1 1.1 2 .3 2.7-.9 4.2-3.6 4.5-1.1.1-2.2-.1-3.1-.7a37 37 0 0 1-5.6-2h.2l.2.1-1.8-.4a39.9 39.9 0 0 0-33.4 6.9l-1.3 1-3.2 2.5a4 4 0 0 1-3.8.8 3.7 3.7 0 0 1-2.8-3.4 4 4 0 0 1 2-4.1l1-.7.8-.5 1.4-1.1h-.1l.2-.1 1.2-1c4.8-3.9 10.3-6.6 16.4-8Zm68.2 111.5 1.2-.2a4 4 0 0 1 3.4 2c.7 1.3.8 2.6 0 3.9-.4 1-1.2 1.6-2.3 2l-1.5.7a3255 3255 0 0 1-3.1 1.2h-.1.1c-2 1-4.1 2-6.2 2.8a36.2 36.2 0 0 1-8.9 2.4h-.2a43.5 43.5 0 0 1-4.2.4h-1a58 58 0 0 1-8.3-.7 95.2 95.2 0 0 1-19.8-5c-3.2-1-4.3-3-3.3-6.1.3-1 1-1.7 2-1.9 1.9-.4 3.8-.1 5.6 1l2 .8c4.9 1.6 9.9 2.7 15 3.4 4 .6 8.2.5 12.3-.2 3-.5 6-1.5 8.7-2.9 2.1-1 4.3-1.9 6.5-2.6a4.7 4.7 0 0 1 2.1-1Zm70.5-80.3-.1-.2v.2ZM339.4 238.7h-.1Zm42.3 26.1H382h-.3Zm-42.3 39.7c-4.4 4.2-9 8-13.8 11.7l-4.6 19c-.8 3.1-1.5 6.3-2 9.5a531.6 531.6 0 0 1-1.4 8.7c-.8 6.7-1 13.4-.3 20.2.6 6.8 1.5 13.6 2.7 20.4.9 4.9 2.2 9.6 3.9 14.3A52 52 0 0 0 332 423c2.8 3.5 6.3 6 10.6 7.3 5 1.6 10 2.9 15.3 3.7 3.8.6 7.6 1 11.4 1.2a330.2 330.2 0 0 1 14.8.8l18.8 2.3c6.5.7 13 .7 19.5 0 5-.4 10.2-1 15.3-1.6a92.5 92.5 0 0 0 22.9-8.3c6.5-2 11.8-5.8 15.9-11.1 4-5.4 6.8-11.3 8.4-17.7.9-3.9 1.2-7.8 1-11.8a210 210 0 0 1-.6-10.1 233.2 233.2 0 0 0-6.6-43.6 106.5 106.5 0 0 1-6.3-25.7c-6.6-2-11.6-6-15.1-12.4a54.3 54.3 0 0 1-4.2-10c-2.6-7.8-4.2-16-4.9-24.2-.2-2 0-4 .6-5.8v-.4a1849.4 1849.4 0 0 1-8.6 6.1l-.7.4-.2.2a65.1 65.1 0 0 1-26.7 10.5 258.2 258.2 0 0 1-18.8 1 318.9 318.9 0 0 1-12.7-.8A50.4 50.4 0 0 1 366 269a76.7 76.7 0 0 1-18.2-11.4 54.2 54.2 0 0 1-.2 4.7 85.5 85.5 0 0 1-.8 29.1 24 24 0 0 1-7.4 13.1Zm45.9-31.1h.4-.4Zm-180.4 80c-6.4 3.6-12 8.3-16.9 14a680 680 0 0 0-15.3 18.7c-10.1 12.6-16 26.9-17.9 43-.7 5.8-1.1 11.7-1.4 17.6-1 16-2.8 32-5.7 47.9-3.1 16.8-5 33.9-5.9 51.1-.8 16.6-2.8 33-6.1 49.4-3.1 15.1-6.7 30.2-10.7 45-4 14.7-8.3 29.2-12.8 43.6a327.7 327.7 0 0 0-10.7 43.6c-1.5 8.4-2.6 17-3.1 25.5-1 17.3-1.5 34.6-1.2 52 .3 17.2.2 34.5-.1 51.8l-.6 52.4c0 9.2.6 18.3 1.9 27.5.2 1 .1 2.1-.2 3.2l-.4.6-.5.6-.6.5-.6.4v.2l61.8.3a51.7 51.7 0 0 1-12.5-42c.8-6.2 2.4-12.2 4.6-18a597.2 597.2 0 0 0 15.7-46.1c4.6-15.6 9.6-31.1 14.9-46.4l8-23.4c5.5-15.6 9.4-31.5 12-47.8l4-24.2a187 187 0 0 1 8.4-31.3c1.4-4 2.5-8 3.2-12.2a8831.7 8831.7 0 0 0 11.5-70.4c-4.3-13.2-8-26.5-11.2-40a123.3 123.3 0 0 1-1.7-47c2.5-16.3 7.2-31.9 14-47a460.1 460.1 0 0 1 22-42.4 399 399 0 0 0 17.8-34.8 3 3 0 0 1-.1-.5c1.8-7 3.8-13.9 5.9-20.8l3.3-11.7a24.7 24.7 0 0 1-8-.7 2 2 0 0 1-.5.2l-.5.2h-2l-.5-.2-.2-.1a139.6 139.6 0 0 0-61.1 17.6Zm-51.3 519 .2-.4-.1.2-.1.3Zm426.4-539c-8.2-2.5-16.5-4.5-25-5.7-6.2-.9-12.4-1.9-18.5-3-4.3-.8-8.5-2-12.6-3.3l-12.5-4.6a62 62 0 0 1 1.8 4 328.3 328.3 0 0 1 10.8 27l7.8 21c1.6 4 3.4 8 5.3 11.9.6.5 1 1 1.3 1.8.3.7.4 1.5.3 2.3h-.1c1.4 2.5 2.7 5 3.9 7.6 1.3 3 2.8 5.9 4.5 8.7 6.1 9 11 18 14.4 27 3.8 9.8 8.5 19.3 14 28.4 5.1 8.4 9 17.4 11.7 26.9 2.9 10.1 5.2 20.3 6.9 30.7a82.7 82.7 0 0 1 0 27.4A124.4 124.4 0 0 1 584 579v1.2a2.9 2.9 0 0 1-.4 1l-.3.4-.2.2c-2.5 7.8-4.2 15.9-5.1 24.2-.3 2.6-.8 5-1.6 7.4a70.2 70.2 0 0 1 .1 4.1l.2.6c.4.4.7.8.9 1.4l1.1 2c.4.6.7 1.3.9 2.1v.6c3 8 6.4 15.8 10.2 23.5 3.8 7.7 7.3 15.5 10.6 23.4.8 2 1.4 4.1 1.7 6.3l-.2.5c2.1 10.9 3.3 22 3.7 33.3l.9 16.4c1.1 16.4 3.5 32 7.2 46.6 3.7 15 8 29.8 13.1 44.4a316 316 0 0 0 9.2 23.4c3 6.7 5.7 14.6 8.4 23.6 4 13.7 5.3 27.5 4 41.5-.2 2-.6 3.9-1.3 5.8-3.1 8.6-6.4 17-10 25.3l-.3.4-.1 4-.5 1.1v.8l68.5.3-.5-.2-.5-.2-.4-.3a3.8 3.8 0 0 1-.7-.8l-.3-.4-.2-.4-.2-.5a88.4 88.4 0 0 0-.2-1l.1-.7.1-.6c0-.2.2-.4.3-.5l.3-.6c.4-16.5.6-33 .8-49.5a472 472 0 0 0-2-48.6c-1.5-16.3-2-32.6-1.2-49a1987.8 1987.8 0 0 0 .5-73.3 133 133 0 0 0-9.5-47.7c-4.8-12.1-9-24.4-12.7-37-1.2-4-2-8-2.5-12.1 0-.2 0-.4.2-.5l.2-.5c0-.2.2-.3.3-.4l.3-.4a958 958 0 0 1-2.7-42.3c-.4-10.2-2-20.2-4.8-30l-13-47a127.1 127.1 0 0 1-4.6-35.8 214 214 0 0 1 .9-14.4 5.2 5.2 0 0 1 .3-.5c-.7-7.2-1.5-14.3-2.5-21.4a96.7 96.7 0 0 0-6.6-24.5c-3.2-7.6-6.7-15.1-10.5-22.4a105.2 105.2 0 0 0-30-35.5l-.1-.1a74.9 74.9 0 0 0-23.4-12.2Zm-55.5 15-.3-.6v-.1a15.5 15.5 0 0 1 .3.8Zm60.7-12.9h-.1Z"/></g><defs><clipPath id="a"><path fill="#fff" d="M0 0h800v942H0z"/></clipPath></defs></svg>