<svg xmlns="http://www.w3.org/2000/svg" width="800" height="942" fill="none"><g clip-path="url(#a)"><path fill="#000" d="M511.402 73.356a76.565 76.565 0 0 0-2.375-7.284 245.658 245.658 0 0 0-9.818-22.328c-4.082-8.163-9.923-14.708-17.524-19.635a44.886 44.886 0 0 0-11.77-5.33c-6.51-1.83-12.246-4.98-17.207-9.449a13.049 13.049 0 0 0-6.123-3.114A1145.51 1145.51 0 0 1 419.877.251 9.084 9.084 0 0 0 415.865.2a378.565 378.565 0 0 0-19.371 4.75 2.444 2.444 0 0 0-.475-.053c-.176-.035-.335-.07-.475-.105a1.741 1.741 0 0 0-.423-.053 1.54 1.54 0 0 0-.369-.053 1.74 1.74 0 0 0-.422-.053c-6.053-.95-12.158-.774-18.316.528a26.038 26.038 0 0 1-3.272.423c-4.575.21-9.167.44-13.777.686a21.23 21.23 0 0 1-6.65-.74c-5.349-1.477-10.803-1.688-16.363-.633-6.721-2.744-12.985-2.164-18.791 1.742a40.46 40.46 0 0 0-7.389 6.44c-2.464 2.78-4.997 6.158-7.601 10.134a135.3 135.3 0 0 0-11.348 21.377c-.143.333-.284.667-.423 1.003.071-.14.141-.3.211-.475a.675.675 0 0 1 .053-.106 341.173 341.173 0 0 1-3.114 7.76 106.763 106.763 0 0 0-7.02 26.444 840.177 840.177 0 0 0-2.956 26.549 6059.986 6059.986 0 0 1-2.481 26.022c-.44 4.012-.862 8.023-1.266 12.035a407.245 407.245 0 0 0-1.953 28.608 810.832 810.832 0 0 0-.37 27.764 642.059 642.059 0 0 1-.528 28.502 683.286 683.286 0 0 1-1.689 26.867l.106-.528a438.99 438.99 0 0 0-1.109 6.651 109.747 109.747 0 0 0-1.636 21.218c.132 6.599.202 13.197.211 19.794a166.2 166.2 0 0 0-25.863 3.959 85.033 85.033 0 0 0-8.762 2.481c-8.094 2.709-15.589 6.492-22.486 11.348a27.274 27.274 0 0 0-7.231 7.389c-5.947 8.868-10.416 18.457-13.407 28.767-3.308 11.331-5.243 22.626-5.806 33.887.032-.128.049-.251.053-.37v.106a280.644 280.644 0 0 0 0 34.414 2244.045 2244.045 0 0 0 2.269 34.309c.388 5.7.528 11.419.423 17.154a631.407 631.407 0 0 1-1.689 35.312c-.725 2.351-1.148 4.832-1.267 7.442a857.946 857.946 0 0 0-.528 13.407 400.612 400.612 0 0 1-2.586 34.995 2785.902 2785.902 0 0 0-3.801 33.887 767.774 767.774 0 0 1-4.433 33.728 1565.925 1565.925 0 0 1-5.595 33.623 308.509 308.509 0 0 0-4.012 34.045 3765.163 3765.163 0 0 0-2.058 34.52 5355.217 5355.217 0 0 0-1.795 34.15 1534.288 1534.288 0 0 1-2.059 34.414 4.24 4.24 0 0 1-.158.37 2.702 2.702 0 0 0-.053.528v.739c-.088.58-.175 1.161-.264 1.741-.062.434-.132.856-.211 1.267a275.588 275.588 0 0 0-2.111 22.275l-.422 8.55a562.877 562.877 0 0 0-.739 26.709 255.152 255.152 0 0 1-2.059 31.564l-.317 2.744v.159a134.213 134.213 0 0 1-.897 6.439 451.01 451.01 0 0 1-6.598 33.94c-2.674 11.295-3.325 22.661-1.953 34.097a119.961 119.961 0 0 0 5.912 25.704c3.906 11.09 10.469 20.32 19.688 27.71a68.454 68.454 0 0 0 8.815 6.07c10.134 5.88 20.902 9.63 32.303 11.25 4.328-.04 7.284-2.01 8.867-5.92.041-.1.076-.2.106-.31.8 9.85 1.821 19.69 3.061 29.5 3.519 27.91 8.006 55.67 13.46 83.29a622.301 622.301 0 0 0 21.905 81.45c.176.42.387.82.633 1.21.247.39.528.74.845 1.06.316.31.651.61 1.003.89.136.07.277.13.422.16a488.594 488.594 0 0 1 .95 47.19c-.422 16.22-.968 32.43-1.636 48.61-1.091 28.01-.95 55.99.422 83.93l-.106-.74c.44 5.4.862 10.8 1.267 16.2a563.044 563.044 0 0 0 4.592 40.33c1.936 12.74 4.082 25.42 6.44 38.06l.053.15a359.702 359.702 0 0 0 6.756 33.84c6.862 27.45 12.668 55.1 17.418 82.97a413.816 413.816 0 0 1 5.806 77.54c-.52 1.62-.555 3.06-.105 4.33-.006.85-.024 1.69-.053 2.53 0 .25.017.48.053.69.035.25.088.47.158.68.07.22.141.43.211.64l.317.63c.105.18.229.37.369.58.055.07.108.12.159.16-2.589 8.98-5.07 18.03-7.443 27.13a460.012 460.012 0 0 1-10.503 34.52c-6.123 17.6-7.021 35.31-2.692 53.15.563 2.33 1.618 4.33 3.167 6.02 11.436 12.18 26.039 16.94 43.809 14.3a357.975 357.975 0 0 0 46.238-6.28c4.187-.84 7.372-2.97 9.554-6.38 5.771-8.98 7.847-19.18 6.228-30.62-3.167-22.69-3.994-45.55-2.481-68.56 1.337-19.95-2.586-38.64-11.77-56.06-8.164-15.45-12.633-31.76-13.407-48.93-.598-13.65-.387-27.2.633-40.64l-.316-.63a4.051 4.051 0 0 0-.37-.53 5.154 5.154 0 0 0-.422-.48 7.11 7.11 0 0 0-.422-.37 471.71 471.71 0 0 0 9.184-50.61 645.983 645.983 0 0 0 5.172-82.45c0-13.69-1.442-27.2-4.328-40.54-5.208-24.07-6.404-48.31-3.589-72.73 1.161-10.14 2.393-20.25 3.695-30.35 3.484-27.52 5.894-55.16 7.231-82.92.669-14.19.915-28.37.739-42.55-.422-28.4-1.073-56.74-1.953-85.03v-5.33c0-4.51.141-9.68.422-15.52.282-5.98.387-11.98.317-18 .528-2.04.897-4.1 1.109-6.17.985-10.77 1.9-21.52 2.744-32.25.915-11.3 1.232-22.63.95-33.997.282-.915.528-1.865.739-2.85a65.514 65.514 0 0 0 1.32-11.401 28.604 28.604 0 0 0-1.9-11.402 76.707 76.707 0 0 1-.159-4.908c.012-.628.012-1.261 0-1.9.464.02.921.038 1.373.052a23.421 23.421 0 0 0 9.553-1.794c-.023.338-.058.672-.105 1.003a59.573 59.573 0 0 1-.264 3.061c.098.237.186.484.264.739.211.528.352 1.531.422 3.009l.158 5.542c.03.374.03.709 0 1.003.04.588.076 1.169.106 1.741.457 9.114.739 18.246.844 27.392.071 9.75.511 19.48 1.32 29.19a2.647 2.647 0 0 1-.053-.53l-.052-.21v.21c.211 2.47.439 4.9.686 7.29.739 7.67 1.178 15.36 1.319 23.06.121 5.33.473 10.65 1.056 15.94a3.408 3.408 0 0 1-.475-.26c.386 3.08.703 6.2.95 9.34a8241 8241 0 0 1 2.375 30.25 486.226 486.226 0 0 1 .792 65.24c-1.443 27.3-.334 54.57 3.325 81.81 2.886 21.47 4.979 42.4 6.281 62.81 1.795 27.66.81 55.27-2.955 82.82a224.493 224.493 0 0 0-2.059 36.05 696.404 696.404 0 0 0 6.703 82.45c4.012 28.64 6.95 57.55 8.815 86.72-.017-.13-.035-.25-.053-.37.245 1.96.262 3.92.053 5.86a1771.052 1771.052 0 0 0-3.008 31.03 202.171 202.171 0 0 1-6.176 35.16c-.035.03-.07.07-.106.1-.176.25-.369.49-.58.74-.141.28-.282.55-.422.79-.141.28-.247.57-.317.85a7.83 7.83 0 0 0-.053 1.16c-6.905 12.94-10.706 26.94-11.401 42.01-.246 5.63-.282 11.23-.106 16.79a3322.11 3322.11 0 0 1 1.32 62.18 78.027 78.027 0 0 0 2.903 20.37c3.836 13.69 13.389 20.25 28.661 19.69 19.002.56 37.775-1.21 56.319-5.33 4.188-.95 7.619-3.03 10.293-6.23 12.492-14.81 15.131-31.81 7.917-50.99a247.23 247.23 0 0 1-11.031-38.53 1443.11 1443.11 0 0 1-13.724-80.92l-.211-.63-.317-.63a4.708 4.708 0 0 0-.369-.53l-.053-.05c.885-6.22 2.099-12.41 3.642-18.58a503.794 503.794 0 0 1 10.451-36.21 590.46 590.46 0 0 0 20.216-79.44 211.465 211.465 0 0 0 2.639-21.01 3885.26 3885.26 0 0 1 6.809-83.24 406.673 406.673 0 0 0-1.425-87.03c-3.237-26.01-5.278-53.02-6.123-81.03l-.211-.63c-.07-.21-.158-.4-.264-.58-.141-.21-.264-.41-.369-.58a6.299 6.299 0 0 1-.475-.53l-.053-.05a2389.38 2389.38 0 0 1 8.762-39.06 8533.71 8533.71 0 0 1 19.846-83.93c6.475-26.74 11.173-53.64 14.093-80.7.48-4.32.691-7.15.634-8.5v-.1c.316-.74.563-1.52.739-2.33.34-1.57.587-3.15.738-4.75 2.699 2.24 6.094 3.39 10.188 3.43.422 0 .844-.05 1.266-.15a87.143 87.143 0 0 0 25.283-10.93c9.149-5.77 16.469-13.21 21.958-22.33a111.974 111.974 0 0 0 12.985-31.984 95.616 95.616 0 0 0 1.583-8.762c1.689-12.457.845-24.808-2.534-37.054.036.211.071.405.106.581v.106a180.967 180.967 0 0 1-1.953-17.419 150.666 150.666 0 0 0-2.111-17.735 34.406 34.406 0 0 1-.37-10.24c.153-1.54.048-2.859-.316-3.958.143-.957.038-2.047-.317-3.273a78.105 78.105 0 0 1-2.587-13.512v.211a964.012 964.012 0 0 1-3.325-30.139 295.93 295.93 0 0 1-1.161-34.467l.95-34.045c.352-11.437.37-22.855.053-34.256a663.023 663.023 0 0 0-1.848-34.467 5451.53 5451.53 0 0 1-2.744-34.573c-.563-7.355-1.302-15.518-2.217-24.491-.88-8.305-1.76-16.627-2.639-24.967a3771.242 3771.242 0 0 0-3.642-33.992 72.293 72.293 0 0 0-1.953-10.556 96.868 96.868 0 0 1-2.956-17.419 694.053 694.053 0 0 0-2.956-29.664 199.445 199.445 0 0 1-1.478-25.072 74.215 74.215 0 0 0-.897-12.14 230.619 230.619 0 0 1 2.639-25.441 1188.795 1188.795 0 0 1 6.017-35.259c2.076-11.26 2.393-22.52.95-33.781a375.647 375.647 0 0 0-6.386-35.892c-2.64-11.648-7.865-21.94-15.677-30.878a11.632 11.632 0 0 0-3.325-2.586 336.007 336.007 0 0 0-32.62-14.093 35.955 35.955 0 0 0-4.381-1.267 449.845 449.845 0 0 1-25.705-6.229c.703-3.159.773-6.449.211-9.87a74.746 74.746 0 0 1-1.003-12.826 460.532 460.532 0 0 0-.897-30.403 732.392 732.392 0 0 1-.739-12.457c-.211-3.659-.405-7.337-.581-11.031-.246-6.264-.457-12.563-.633-18.897a206.536 206.536 0 0 1 1.372-30.244c.458-3.625.669-7.267.634-10.926a374.951 374.951 0 0 0-.528-17.735 959.114 959.114 0 0 1-.528-14.304c-.211-10.1.053-20.199.792-30.298.246-2.99 0-5.947-.739-8.867a776.19 776.19 0 0 0-5.437-20.163Zm-11.507-7.654a453.973 453.973 0 0 0 7.179 21.536 31.97 31.97 0 0 1 1.9 12.034 953.104 953.104 0 0 0-.633 28.344c-.106 9.22.228 18.422 1.002 27.606.141 1.865.159 3.747.053 5.648a956.375 956.375 0 0 1-1.53 26.497 251.406 251.406 0 0 0-.528 14.568 402.15 402.15 0 0 0 .844 27.658c.567 3.259.884 6.549.95 9.87.141 9.396.352 18.791.634 28.186.07 1.865.158 3.713.264 5.542.507 8.766.982 17.528 1.425 26.286a64.292 64.292 0 0 0-6.123-2.375c-9.158-3.073-18.272-7.243-27.342-12.509a2.954 2.954 0 0 0-.527-.581 154.78 154.78 0 0 0-9.501-7.337 34.026 34.026 0 0 1-6.915-6.387 34.102 34.102 0 0 1-4.486-7.231c-.458-.95-.704-1.495-.739-1.636a109.05 109.05 0 0 1-4.804-15.941c.056-2.469-.823-4.457-2.639-5.964a.53.53 0 0 1-.052-.053 52.354 52.354 0 0 0 3.8-4.909 150.65 150.65 0 0 0 13.196-23.594.182.182 0 0 0 .052-.052 136.745 136.745 0 0 0 5.701-16.574 86.421 86.421 0 0 0 2.533-13.935c.119-1.07.225-2.143.317-3.22.856.228 1.736.404 2.639.528 8.094-.281 12.967-4.592 14.621-12.931a130.122 130.122 0 0 0 2.164-16.046c.669-9.677.686-19.354.053-29.031a13.17 13.17 0 0 0-2.27-6.545c-3.259-4.731-7.218-6.755-11.876-6.07.196-1.136.372-2.28.528-3.431 1.091-7.46.968-14.938-.369-22.433a67.736 67.736 0 0 0-6.862-20.057 6.864 6.864 0 0 0-.264-.897 16.984 16.984 0 0 0-.475-1.426c-.13-.44-.288-.88-.475-1.32.07.142.141.3.211.476a41.157 41.157 0 0 0-6.703-12.087 15.336 15.336 0 0 0-3.695-3.378c-5.314-3.414-11.049-6.106-17.207-8.076a212.152 212.152 0 0 0-7.232-2.27 74.78 74.78 0 0 0-27.183-3.114 475.417 475.417 0 0 1-30.878 1.003c-5.032 0-9.958.633-14.779 1.9a383.913 383.913 0 0 0-27.711 8.287.745.745 0 0 1-.158.053c-8.199 3.272-14.656 8.603-19.372 15.993-1.161 1.865-1.9 3.184-2.216 3.959-3.484 8.445-5.244 17.242-5.279 26.391v3.22c.096 4.116.36 8.198.792 12.245-1.23.081-2.427.451-3.589 1.109-6.607 3.755-10.249 9.597-10.926 17.524.007.115.007.221 0 .316v-.158a201.063 201.063 0 0 0-1.32 10.768 178.155 178.155 0 0 0-.422 26.708c.528 9.149 5.155 14.515 13.882 16.099 1.656.125 3.257.072 4.803-.159a84.502 84.502 0 0 0 2.428 22.908 136.768 136.768 0 0 0 9.606 26.55c4.077 8.464 9.531 15.906 16.363 22.327a360.02 360.02 0 0 0-1.9 7.917 50.841 50.841 0 0 1-6.915 16.363 98.978 98.978 0 0 1-10.978 14.093 5.31 5.31 0 0 1-1.373 1.003c-1.004.482-1.849 1.063-2.533 1.742-3.601 1.73-7.226 3.454-10.874 5.172l-2.269 1.056a.598.598 0 0 0-.159.106 140.367 140.367 0 0 1-25.23 7.759c-1.251.258-2.518.47-3.8.633.558-7.65.822-15.374.792-23.172-.036-2.991.052-5.999.264-9.025.246-4.082.686-8.164 1.319-12.246 1.232-8.023 1.988-16.504 2.27-25.441.352-9.501.528-18.985.528-28.45.035-9.079.14-18.175.316-27.289.176-9.395.722-18.773 1.637-28.133.95-9.501 1.829-19.002 2.639-28.503.809-9.219 1.689-18.421 2.639-27.605a157.998 157.998 0 0 1 3.431-20.322 148.472 148.472 0 0 1 8.128-24.333l-.211.528a.449.449 0 0 1-.105.159c.222-.41.433-.815.633-1.215.422-.88.827-1.759 1.214-2.639.269-.606.533-1.204.792-1.794a313.482 313.482 0 0 0 3.536-6.862 85.465 85.465 0 0 1 5.912-10.293 56.358 56.358 0 0 1 4.275-5.647 58.182 58.182 0 0 1 2.323-2.534 19.457 19.457 0 0 0 2.639-1.478 23.27 23.27 0 0 0 2.797-2.111 8.444 8.444 0 0 1 2.112-1.32 22.19 22.19 0 0 1 5.067-.053c1.724.141 3.431.405 5.12.792 2.181.493 4.345.405 6.492-.264.211.035.405.053.581.053.774.035 1.53.106 2.269.211.739.07 1.461.088 2.164.053a4.856 4.856 0 0 1 1.584.158c2.533 1.232 5.225 1.69 8.076 1.373a30.729 30.729 0 0 1 5.964-.053 50.94 50.94 0 0 0 12.879-.686 96.384 96.384 0 0 1 15.624-1.584c6.967 1.584 13.846.774 20.638-2.428 3.73-1.76 7.618-2.023 11.665-.792a176.578 176.578 0 0 0 22.221 5.173c4.047 4.117 8.78 7.09 14.199 8.92a81.335 81.335 0 0 1 19.846 9.765 21.07 21.07 0 0 1 4.276 3.8c5.665 6.757 10.345 14.2 14.04 22.328a51.613 51.613 0 0 1 2.586 6.703Zm8.129 243.698.528.212c.739.281 1.442.58 2.111.897.563.281 1.108.563 1.636.844 1.349.646 2.563.805 3.642.475 4.022.957 8.069 1.714 12.14 2.27 5.56.739 10.891 2.111 15.994 4.117a2660.976 2660.976 0 0 0 31.511 12.246 22.05 22.05 0 0 1 1.742 1.847c7.812 8.868 12.826 19.143 15.043 30.825a384.433 384.433 0 0 1 4.909 34.098c.879 8.903.615 17.242-.792 25.019a5213.784 5213.784 0 0 1-6.123 33.728 144.355 144.355 0 0 0-2.27 33.412 83.325 83.325 0 0 0-.263 8.023c.07 3.132.299 6.246.686 9.342a354.767 354.767 0 0 1 2.85 34.52c.176 5.63.774 11.19 1.795 16.68a943.548 943.548 0 0 1 5.806 33.781 385.399 385.399 0 0 1 3.589 33.517 472.955 472.955 0 0 0 3.484 34.573c.281 2.04.422 3.202.422 3.483a704.22 704.22 0 0 1 1.478 17.102 1575.616 1575.616 0 0 1 2.164 34.15c.563 11.507.721 22.996.475 34.467-.282 11.366-.546 22.75-.792 34.151a552.647 552.647 0 0 0 .317 34.15 808.276 808.276 0 0 0 2.111 34.626 236.803 236.803 0 0 0 5.173 33.306c-.837 3.067-.855 6.357-.053 9.87 1.232 5.63 1.971 10.75 2.217 15.36.415 8.177 1.26 16.27 2.534 24.28.009.12.027.243.052.37v-.106a.595.595 0 0 1 0 .158c.033.041.05.077.053.106a.61.61 0 0 1-.053-.053c.455 2.688.948 5.362 1.478 8.023a63.253 63.253 0 0 1 1.214 9.29c.81 12.597-1.161 24.843-5.911 36.737l-1.003 2.533c-.035 0-.335.704-.898 2.112a148.99 148.99 0 0 1-4.117 9.079c-2.322 4.71-5.524 8.73-9.606 12.03-1.478 1.17-2.252 1.8-2.323 1.9.106-.03-.492.44-1.794 1.43-4.117 3.13-8.41 5.96-12.879 8.5a68.34 68.34 0 0 1-14.304 6.07c-.211-.04-.423-.07-.634-.11-.598-.14-1.196-.26-1.794-.37a9.738 9.738 0 0 1-1.531-.42 2.63 2.63 0 0 1-.897-.53c-.282-.88-.475-1.76-.581-2.64-.07-1.02 0-2.02.211-3.01.211-.84.422-1.67.634-2.48.351-.67.721-1.32 1.108-1.95a8.828 8.828 0 0 1 1.847-2.22c.669-.63 1.39-1.19 2.165-1.69 9.149-1.4 16.767-5.52 22.854-12.35 2.956-3.3 4.681-7.157 5.173-11.556a133.62 133.62 0 0 0 .37-24.597c-.528-6.545-2.182-12.685-4.962-18.421-.493-1.056-1.284-1.636-2.375-1.742-6.334-.563-10.363 2.604-12.087 9.501a1862.082 1862.082 0 0 1-8.921 34.678c-1.513 5.525-4.275 9.957-8.287 13.297-.105-.1-.211-.21-.316-.31a2.067 2.067 0 0 1-.264-.32c-.106-.1-.211-.21-.317-.32-.07-.1-.158-.21-.264-.31-.457-9.398-.809-18.793-1.056-28.188a310.887 310.887 0 0 1 1.215-36.684 92.01 92.01 0 0 1 2.111-13.143c2.322-9.923 6.281-19.248 11.876-27.975a29.022 29.022 0 0 1 4.645-5.489c.849-.767 1.447-1.577 1.794-2.428.162-.132.32-.291.475-.476 1.373-1.689 1.654-3.536.845-5.542a178.74 178.74 0 0 1-.686-7.495 572.956 572.956 0 0 0-2.164-23.277 543.87 543.87 0 0 0-4.909-33.253 5735.277 5735.277 0 0 1-6.017-34.204 167.403 167.403 0 0 0-8.023-29.822 448.19 448.19 0 0 1-11.032-33.464 360.345 360.345 0 0 1-7.97-33.834 653.52 653.52 0 0 1-5.173-32.936 1698.234 1698.234 0 0 0-4.539-32.778c-.704-4.681-1.109-10.1-1.214-16.258 0-1.9.053-3.818.158-5.753a199.21 199.21 0 0 0-.844-33.042 5.063 5.063 0 0 0-.106-.581c.935-3.559 1.235-7.272.897-11.137a81.5 81.5 0 0 1 .212-17.576c1.354-11.046 2.709-22.078 4.064-33.095a.7.7 0 0 0 0-.159v.053c.022-.102.039-.207.053-.316v.211a12.2 12.2 0 0 0 .052-.423v-.211c.02-.096.037-.149.053-.158 1.12-7.884 2.229-15.748 3.325-23.594a1019.773 1019.773 0 0 1 6.229-38.531 511.91 511.91 0 0 0 2.956-17.63c.703-4.469-1.232-6.545-5.806-6.228-.81.035-1.408.404-1.795 1.108a50.794 50.794 0 0 0-3.642 8.445 161.903 161.903 0 0 0-5.701-22.696 85.813 85.813 0 0 1-3.167-13.196 233.984 233.984 0 0 0-8.339-35.47 5639.002 5639.002 0 0 1-6.07-19.266 567.334 567.334 0 0 1-7.231-24.808 37.181 37.181 0 0 1-.898-4.433c.276.098.54.186.792.264a6.312 6.312 0 0 1-.475-.212Zm-11.823-4.064c-.065 1.517.111 3.065.527 4.645a825.986 825.986 0 0 1 2.956 11.876 287.34 287.34 0 0 0 10.346 33.781 127.42 127.42 0 0 1 2.85 8.498 251.399 251.399 0 0 1 5.912 24.914 298.71 298.71 0 0 0 7.548 31.722 104.475 104.475 0 0 1 3.483 16.838 128.58 128.58 0 0 1-.369 34.678 322.64 322.64 0 0 1-1.848 13.038 3768.119 3768.119 0 0 0-5.436 33.992 553.793 553.793 0 0 1-5.49 30.191c-.297.38-.56.819-.791 1.32a21.828 21.828 0 0 0-.528 4.275l-.211 5.701a188.368 188.368 0 0 0-26.392-8.709 2251.664 2251.664 0 0 0-33.728-8.182 359.53 359.53 0 0 0-36.684-6.597h.264l.633.105a140.945 140.945 0 0 0-29.505-5.384 91.328 91.328 0 0 0-17.26.475 448.388 448.388 0 0 0-31.301 4.909 365.17 365.17 0 0 0-33.358 8.023 182.651 182.651 0 0 0-31.881 12.615c-.545.277-1.09.541-1.636.792a1537.709 1537.709 0 0 1-7.496-27.658c-2.885-11.085-5.084-21.659-6.597-31.723a171.233 171.233 0 0 1-1.901-25.441A238.226 238.226 0 0 1 261 439.035a253.921 253.921 0 0 1 7.707-33.887 663.195 663.195 0 0 0 5.12-18.104 590.706 590.706 0 0 0 8.656-37.054v.159a1.168 1.168 0 0 0-.053.369 47.716 47.716 0 0 1 1.9-7.653c3.73-11.225 7.32-22.503 10.768-33.834.11-.358.198-.71.264-1.056a119.078 119.078 0 0 0 15.254-6.017c-.012 2.947.005 5.902.053 8.868a309.607 309.607 0 0 0 2.534 34.256 140.318 140.318 0 0 0 5.647 24.913 41.31 41.31 0 0 0 8.393 14.621c7.812 8.727 17.594 14.234 29.347 16.521a645.954 645.954 0 0 0 33.834 5.648 22.31 22.31 0 0 0 2.164 0 187.626 187.626 0 0 0 35.206-4.17 29.665 29.665 0 0 0 8.076-2.956c10.31-5.595 19.336-12.738 27.077-21.43a28.85 28.85 0 0 0 4.751-7.284 130.487 130.487 0 0 0 9.712-32.884c0 .176-.018.335-.053.476a2.452 2.452 0 0 0-.053.475c.071-.563.159-1.144.264-1.742.247-1.161.458-2.323.634-3.484l.527-3.589c0 .122-.017.245-.052.369a231.85 231.85 0 0 0 3.589-31.353 184.82 184.82 0 0 0 13.935 6.123Zm7.706 262.859a43.803 43.803 0 0 0 4.803 1.847c-.426 1.869-.848 3.734-1.267 5.595v-.106a.474.474 0 0 0-.053.211v.106a.178.178 0 0 1-.052.106v.158a1194.929 1194.929 0 0 0-5.226 24.491 187.095 187.095 0 0 0-3.378 25.811 123.298 123.298 0 0 0 2.586 34.256 152.828 152.828 0 0 1 1.637 8.92c.385 2.558 1.071 4.88 2.058 6.968a714.025 714.025 0 0 0-20.902 7.548 789.274 789.274 0 0 1-33.2 11.612c-13.442 4.363-26.937 7.143-40.485 8.339a284.052 284.052 0 0 1-34.625 1.056 166.49 166.49 0 0 1-34.362-4.645 1049.146 1049.146 0 0 0-24.808-5.7 814.87 814.87 0 0 0-33.042-6.387l-2.269-.422a.847.847 0 0 1-.159-.053 328.056 328.056 0 0 1-13.618-3.22 117.49 117.49 0 0 0 7.759-17.154c4.047-11.19 6.405-22.644 7.073-34.362a474.15 474.15 0 0 0 .687-35.364 212.76 212.76 0 0 0-.475-10.504c-.402-6.423-1.739-12.581-4.012-18.474a83.949 83.949 0 0 0 4.223-2.059 158.736 158.736 0 0 1 31.511-12.456 405.47 405.47 0 0 1 33.411-7.654c6.123-1.091 13.108-2.006 20.955-2.745 3.132-.281 7.02-.668 11.665-1.161a41.101 41.101 0 0 1 8.815 0 249.807 249.807 0 0 1 32.62 5.648c.393.061.78.114 1.161.158a244.31 244.31 0 0 1 32.356 5.754c11.014 2.78 22.01 5.595 32.989 8.445a106.52 106.52 0 0 1 15.624 5.437Zm17.788 2.533c.096-.149.184-.307.264-.475.163 1.655.304 3.309.422 4.962.598 7.213.739 14.445.422 21.693a137.53 137.53 0 0 0 1.161 25.178l.053.158v.053c.284 2.41.565 4.821.845 7.231.879 7.073 1.794 14.111 2.744 21.113a1140.103 1140.103 0 0 0 5.279 34.362 417.78 417.78 0 0 0 7.125 34.045 266.986 266.986 0 0 0 10.662 32.831 180.37 180.37 0 0 1 9.66 33.306 1233.53 1233.53 0 0 1 5.859 34.097c.457 2.956.897 5.894 1.319 8.815a2761.08 2761.08 0 0 1 4.856 34.256c.598 4.258.88 8.533.845 12.826 0 3.764.475 7.354 1.425 10.768-2.807 2.372-5.147 5.204-7.02 8.498-.304.542-.603 1.087-.898 1.636a60.029 60.029 0 0 0-.475-3.114 644.478 644.478 0 0 1-4.856-32.725c-.492-4.364-1.003-8.709-1.53-13.038a399.163 399.163 0 0 0-5.754-34.625 3694.881 3694.881 0 0 1-7.125-34.362 434.842 434.842 0 0 0-7.759-32.092 588.935 588.935 0 0 0-7.39-24.333 386.253 386.253 0 0 0-2.534-7.653 497.817 497.817 0 0 1-10.187-34.045c-.313-1.253-.999-2.185-2.058-2.797.01-.019.01-.037 0-.053-.153-.784-.505-1.541-1.056-2.27a172.76 172.76 0 0 1-3.695-13.09 116.803 116.803 0 0 1-2.481-14.146l-.263-2.269v-.106a142.63 142.63 0 0 1-.528-9.501 145.706 145.706 0 0 1 3.431-34.256 1043.552 1043.552 0 0 0 6.122-29.611c.173.023.349.041.528.053 1.126.07 1.988-.37 2.587-1.32ZM367.727 41.422a51.503 51.503 0 0 1 5.278-.686 319.512 319.512 0 0 1 19.266-.897c9.571-.141 19.108-.194 28.608-.159 3.59 0 6.704.458 9.343 1.373a489.13 489.13 0 0 1 23.963 8.867c.88.774 1.672 1.636 2.376 2.587a47.268 47.268 0 0 1 2.744 4.17 42.737 42.737 0 0 1 2.112 4.275c.246.598.475 1.214.686 1.847a107.64 107.64 0 0 0 3.272 8.076 47.755 47.755 0 0 1 2.956 8.234c.387 1.584.528 2.076.422 1.478.036.035.053.07.053.105.423 3.343.722 6.686.898 10.03a37.156 37.156 0 0 1-.264 6.544c-.528 3.66-.915 7.337-1.162 11.032-.07.281-.14.581-.211.897l-.211.95c-.035.352-.07.686-.105 1.003-.669 1.724-.669 3.449 0 5.173.629 1.575 1.527 2.613 2.692 3.114 2.891 2.413 5.864 1.921 8.92-1.478.141-.07.299-.141.475-.211l.317-.106.316-.105a1.87 1.87 0 0 0 .264-.106.594.594 0 0 1 .264-.052l.317.211c.141.07.264.14.369.211l.317.211c.07.07.158.141.264.211.035 0 .053.018.053.053a67.385 67.385 0 0 1 .95 15.993 300.162 300.162 0 0 0-.528 15.888c-.106 6.087-1.513 11.735-4.223 16.943a.998.998 0 0 1-.316.053 2.702 2.702 0 0 1-1.056 0 8.055 8.055 0 0 1-.845-.264 40.04 40.04 0 0 1-1.794-.792 34.382 34.382 0 0 0-1.584-.792 5.952 5.952 0 0 0-1.478-1.636c-2.005-1.548-4.011-1.548-6.017 0-2.004 1.54-2.743 3.212-2.217 5.014-.071.703-.071 1.46 0 2.27.317 3.8.159 7.566-.475 11.296a126.498 126.498 0 0 1-7.178 25.019.478.478 0 0 1-.106.158 162.247 162.247 0 0 1-2.375 4.962 284.75 284.75 0 0 1-5.964 11.19 51.487 51.487 0 0 1-7.971 10.873 34.151 34.151 0 0 0-2.797 2.111c-.226.198-.454.391-.686.581a.53.53 0 0 1-.053.053.434.434 0 0 1-.053.052 49.613 49.613 0 0 1-5.595 4.065 92.488 92.488 0 0 1-6.862 3.906 373.691 373.691 0 0 1-8.762 3.008c-9.078 2.886-18.368 3.589-27.869 2.111a78.028 78.028 0 0 0-10.662-.95c-8.269-.14-15.747-2.586-22.433-7.336-7.812-5.56-13.934-12.563-18.368-21.008a109.608 109.608 0 0 1-9.871-26.55c-1.97-8.429-2.603-16.997-1.9-25.705 1.073-1.376 1.671-2.994 1.795-4.856.07-1.091-.334-1.988-1.214-2.692-3.73-2.921-7.02-2.217-9.871 2.111a96.19 96.19 0 0 0-1.425.317c-.95.141-1.9.264-2.85.37a6.48 6.48 0 0 1-2.586-.317 3.664 3.664 0 0 1-.37-.211 3.208 3.208 0 0 0-.369-.211l-.317-.212a.944.944 0 0 1-.264-.263 32.53 32.53 0 0 0-.264-.264 14.193 14.193 0 0 1-1.214-4.645 128.253 128.253 0 0 1-.264-17.63c.352-6.228.968-12.456 1.848-18.685 0 .176-.018.334-.053.475a2.47 2.47 0 0 0-.053.475 2.47 2.47 0 0 0-.053.475c.141-.915.317-1.829.528-2.744.352-1.338.81-2.64 1.373-3.906.703-1.478.897-1.971.58-1.478l-.158.105c.246-.316.528-.686.844-1.108.247-.387.546-.757.898-1.109.07-.035.158-.07.264-.105a.851.851 0 0 1 .369-.106c.106 0 .194.036.264.106.106.035.194.07.264.105.07.036.123.071.158.106l.211.317c.036.105.088.211.159.316.035.071.07.124.105.159-.035.422.018.827.159 1.214.119.297.242.579.369.844.073.316.143.633.211.95.071.352.211.687.422 1.003 1.267 2.147 3.132 3.026 5.595 2.639 1.795-.281 2.974-1.302 3.537-3.061.739-2.428.633-4.891-.317-7.39 0 .141.018.282.053.423v.158a194.07 194.07 0 0 1-.633-4.117 156.533 156.533 0 0 1-1.109-13.46 99.458 99.458 0 0 1 .264-13.354c.246-1.337.475-2.674.686-4.011a59.658 59.658 0 0 1 2.481-9.396 25.405 25.405 0 0 1 5.014-8.286l-.316.422a25.675 25.675 0 0 1 2.586-2.534c4.891-4.011 10.433-6.826 16.627-8.445a427.625 427.625 0 0 0 18.579-5.173c1.689-.528 2.305-.739 1.848-.633.035-.035.07-.053.105-.053Zm74.213-7.39c-.071 0-.123-.017-.159-.052l-.369-.159.528.212Zm-140.878 8.235a12.4 12.4 0 0 0 .37-.792l-.211.528c-.041.081-.094.169-.159.264Zm9.396 70.201a.614.614 0 0 0 .158-.106c.211-.07.246-.07.106 0a2.117 2.117 0 0 1-.264.106Zm.528-.264h.105a2.268 2.268 0 0 0-.264.105.638.638 0 0 0 .159-.105Zm8.92 185.637a6.415 6.415 0 0 0-.264-.633c.234-.11.463-.233.686-.37a3.992 3.992 0 0 0 1.584-.475c4.785-2.498 8.779-5.982 11.981-10.451a167.33 167.33 0 0 0 9.66-14.99 55.663 55.663 0 0 0 6.492-17.894c4.985 2.787 10.44 4.546 16.363 5.279a3558.712 3558.712 0 0 0 28.027 3.272c1.478.071 2.956.106 4.434.106a60.749 60.749 0 0 0 12.562-1.531c9.114-2.146 17.542-5.683 25.283-10.609a51.586 51.586 0 0 0 3.853-2.745v.053a.428.428 0 0 1 .053.158.227.227 0 0 1 0 .106c.026.069.044.122.053.158a.92.92 0 0 1 0 .106c.081.508.169 1.001.264 1.478a72.863 72.863 0 0 0 2.006 7.706 149.6 149.6 0 0 0 2.956 8.181.641.641 0 0 0-.106-.158l.053.105a46.638 46.638 0 0 0 2.322 5.068 35.528 35.528 0 0 0 3.325 5.225c.527.677.809 1.064.845 1.161.035.017.053.035.053.053a33.607 33.607 0 0 0 5.542 5.859 117.473 117.473 0 0 0 4.064 3.272 110.718 110.718 0 0 0 5.595 4.17 34.592 34.592 0 0 0 4.804 4.17.74.74 0 0 1 0 .211 89.878 89.878 0 0 0-1.056 8.815 351.891 351.891 0 0 1-4.381 34.784c0-.141.017-.282.053-.422v-.106a258.401 258.401 0 0 1-4.381 19.002 40.23 40.23 0 0 1-4.54 10.556 60.905 60.905 0 0 1-14.145 16.152c-8.516 6.756-18.158 10.785-28.925 12.087a394.67 394.67 0 0 1-6.809.792 94.52 94.52 0 0 1-23.172-.211 244.713 244.713 0 0 1-33.57-6.862c-10.099-2.815-17.137-9.061-21.113-18.738-3.836-9.36-6.246-19.125-7.231-29.294a382.276 382.276 0 0 1-1.742-34.204 26.158 26.158 0 0 0-1.478-8.392Zm-37.476 13.565c-.128.421-.252.843-.369 1.267a2577.064 2577.064 0 0 0-10.029 36.42.638.638 0 0 0 .053-.264c.035-.105.053-.229.053-.369a349.903 349.903 0 0 1-7.179 29.347c-1.619 5.63-3.185 11.26-4.698 16.89a552.79 552.79 0 0 0-8.181 34.309 194.146 194.146 0 0 0-4.011 34.309c-.352 11.753.14 23.031 1.477 33.834a263.722 263.722 0 0 0 6.334 33.886c.262 1.027.525 2.047.792 3.062a7.149 7.149 0 0 0-.528 1.214 30.337 30.337 0 0 0-1.161 5.648 1427.144 1427.144 0 0 0-3.272 34.52 1898.403 1898.403 0 0 0-2.64 34.52 166.472 166.472 0 0 0 .159 25.652c-.806 1.238-.894 3.015-.264 5.331a82.354 82.354 0 0 1-1.425 16.838 514.829 514.829 0 0 1-7.337 33.095 2771.006 2771.006 0 0 0-8.234 32.725 665.94 665.94 0 0 1-9.237 33.781 1246.568 1246.568 0 0 1-10.504 33.148 293.806 293.806 0 0 0-9.501 36.261c0-.105.018-.228.053-.369v-.211a2573.1 2573.1 0 0 0-4.803 21.852 402.903 402.903 0 0 0-5.754 33.781c-.703 5.806.317 11.26 3.062 16.362a321.723 321.723 0 0 1 14.409 29.876 517.72 517.72 0 0 0-.369 22.221 3.032 3.032 0 0 0-.317.37 7.574 7.574 0 0 0-.739 1.108c-.563 2.498-.58 5.032-.053 7.601a173.474 173.474 0 0 1 2.851 21.641c.131 1.839.29 3.669.475 5.489v5.648c.07 5.982-1.232 11.521-3.906 16.631h-.106c-.176.03-.352.05-.528.05-.175.03-.351.05-.527.05h-.528c-.176.04-.352.05-.528.05-4.926-4.57-7.847-10.254-8.762-17.045a323.94 323.94 0 0 1-2.27-25.441c-.316-6.264-3.272-9.009-8.867-8.235-5.032 4.118-8.146 9.449-9.343 15.994a86.215 86.215 0 0 0-1.425 14.462c-.176 8.41 2.112 15.995 6.862 22.745 1.619 2.29 2.534 3.59 2.745 3.91a30.8 30.8 0 0 0 3.694 3.96c3.062 2.67 5.983 5.15 8.762 7.44a38.947 38.947 0 0 1 8.815 10.08c-9.747-2.32-19.16-6.1-28.239-11.35-4.856-2.81-8.902-6.56-12.14-11.24-6.404-9.29-10.82-19.51-13.248-30.665-2.604-11.999-2.569-23.998.105-35.998a792.272 792.272 0 0 0 6.915-35.1l.475-2.587v-.158c.281-2.217.581-4.416.897-6.598.493-2.92.792-5.841.898-8.762.563-11.929 1.108-23.858 1.636-35.786.281-5.947.492-11.894.633-17.841a281.99 281.99 0 0 1 2.798-33.148c.076-.55.041-1.06-.106-1.53a120.74 120.74 0 0 0 2.006-18.474 836.073 836.073 0 0 1 1.847-33.781 551.98 551.98 0 0 0 1.373-34.098 263.386 263.386 0 0 1 2.586-34.573 1040.563 1040.563 0 0 1 5.437-34.361 777.64 777.64 0 0 0 5.172-33.834 1396.47 1396.47 0 0 0 4.117-34.256 1221.836 1221.836 0 0 0 3.115-34.045 1312.422 1312.422 0 0 1 3.219-35.998c.415-1.433.608-2.982.581-4.645-.07-4.61.141-9.202.633-13.776.458-4.575.651-9.906.581-15.993a541.062 541.062 0 0 0-1.689-35.418 573.378 573.378 0 0 1-.845-11.137 410.834 410.834 0 0 1-.844-36.05c.281-10.839 1.882-22.204 4.803-34.098.88-3.589 1.9-7.143 3.062-10.662 3.448-10.346 9.588-18.492 18.421-24.439a52.284 52.284 0 0 1 6.809-3.906c10.38-4.785 21.183-7.46 32.408-8.023a146.235 146.235 0 0 0 23.383-3.114Zm-88.781 80.863a.967.967 0 0 0-.052.264v-.158c.035-.176.052-.211.052-.106ZM268.232 572.1c.163.116.321.222.475.317a89.35 89.35 0 0 1 3.589 22.486 467.407 467.407 0 0 1-.317 34.414 111.07 111.07 0 0 1-2.058 17.049 126.925 126.925 0 0 1-11.138 32.831 29.503 29.503 0 0 1-1.425 2.533c-.783.014-1.575.225-2.375.634-.985.528-1.706 1.25-2.164 2.164l.897-3.695a276.998 276.998 0 0 0 6.018-33.992v-.053c.33-.585.489-1.306.475-2.164a342.967 342.967 0 0 0-.264-10.293 314.686 314.686 0 0 1 .633-34.572 7724.086 7724.086 0 0 1 2.27-32.409l-.053.211c.305-2.416.604-4.844.897-7.284a403.4 403.4 0 0 0 1.425 5.067c-.461 1.641-.091 3.524 1.109 5.648.629.58 1.298.949 2.006 1.108Zm-55.158 255.733a428.518 428.518 0 0 1 5.964-23.91 591.185 591.185 0 0 0-2.534 17.787 541.043 541.043 0 0 0-3.325 34.468 1402.04 1402.04 0 0 0-1.795 34.308c-.21 4.883-.421 9.757-.633 14.621a297.266 297.266 0 0 0-6.123-10.873 8.202 8.202 0 0 1-1.108-3.695c-.563-9.501.158-19.002 2.164-28.503a5881.29 5881.29 0 0 1 7.39-34.203Zm77.801 138.08a551.634 551.634 0 0 1 27.447 3.431 312.245 312.245 0 0 0 27.448 2.797 377.09 377.09 0 0 0 26.602.581c.211.769.457 1.525.739 2.27 0 3.167-.07 6.334-.211 9.501a1803.18 1803.18 0 0 1-4.117 67.297c-.458 5.42-.845 10.84-1.161 16.26a749.913 749.913 0 0 0-.95 71.1c-.458 8.76-.405 17.47.158 26.12.422 6.55.774 13.13 1.056 19.74a592.1 592.1 0 0 1-2.323 84.35c-2.78 28.08-6.088 56.09-9.923 84.03a92.01 92.01 0 0 0-.422 21.54c1.829 18.75 3.958 37.51 6.386 56.26 3.625 27.84 3.941 55.74.95 83.72a791.103 791.103 0 0 1-13.512 83.39c.035.29.088.57.158.85.106.53.282 1.04.528 1.53.317.74.827 1.35 1.531 1.85.056.04.109.08.158.1-4.767 29.51-.738 55.98 12.088 79.39a73.783 73.783 0 0 1 2.903 5.86c-3.289-2.3-6.719-4.5-10.293-6.6-2.217-1.3-4.592-1.95-7.126-1.95-5.208-.04-10.38.47-15.518 1.53-4.61.95-8.991 2.55-13.143 4.8-3.896 2.08-7.414 4.56-10.556 7.44-.016-6.58-.21-13.2-.581-19.84a477.087 477.087 0 0 0-12.193-83.82 2458.06 2458.06 0 0 1-17.101-77.86c0 .25.017.49.052.74.036.21.071.44.106.69-1.372-8.1-2.745-16.17-4.117-24.23a622.44 622.44 0 0 1-8.92-86.62 796.168 796.168 0 0 1 2.111-89.83c2.182-27.27 1.249-54.39-2.798-81.34-.07-.21-.14-.42-.211-.64l-.316-.63c-.106-.17-.229-.37-.37-.58a2.816 2.816 0 0 0-.475-.47 1.588 1.588 0 0 0-.528-.43 6.767 6.767 0 0 0-1.161-.63 2.087 2.087 0 0 0-.264-.11 319.654 319.654 0 0 0-7.97-28.45 474.86 474.86 0 0 1-19.213-82.13 1033.645 1033.645 0 0 1-8.393-82.6 803.902 803.902 0 0 0-7.231-68.988c.058-.002.111-.002.159 0 5.172.282 10.345.37 15.518.264l27.605-.633c9.149-.246 18.281.07 27.394.95ZM186.26 996.21a50.114 50.114 0 0 1-.475-7.6c.176 1.02.334 2.041.475 3.061.317 2.358.756 4.68 1.319 6.967a31.17 31.17 0 0 0 2.376 6.812 11.712 11.712 0 0 1-1.425-2.11 22.262 22.262 0 0 1-2.27-7.13Zm29.189 35.95a3.465 3.465 0 0 0-.264-.48 57.089 57.089 0 0 0-10.557-12.19c4.08.43 7.405-.59 9.976-3.06.234 5.24.516 10.48.845 15.73Zm353.328-196.884.053.211a.618.618 0 0 1 0 .211 1.967 1.967 0 0 1-.053-.422Zm53.099 97.701a.97.97 0 0 1 .053.316.47.47 0 0 1-.053-.211v-.105Zm-32.303 33.728c.071.563.141 1.108.211 1.636a198.695 198.695 0 0 1 1.32 18.843c.141 6.862-2.709 12.158-8.551 15.886-1.724 1.09-2.674 1.44-2.85 1.06a44.194 44.194 0 0 0 1.531-3.54 118.586 118.586 0 0 0 4.75-15.57 317.46 317.46 0 0 0 3.589-18.315Zm15.518 60.385c-.035.02-.07.03-.105.05l.211-.16-.106.11ZM496.042 1831.6c-.95.81-1.935 1.57-2.956 2.27a22.08 22.08 0 0 1-9.025 3.49c-4.364.63-7.144 1.18-8.34 1.63-2.041.39-4.064.69-6.07.9a403.852 403.852 0 0 1-26.814 2.27c-9.008.46-17.647-1.07-25.916-4.59-5.736-16.05-7.601-32.83-5.595-50.36a133.384 133.384 0 0 0-.159-31.56c-2.438-19.83.236-38.81 8.023-56.95 1.308-.04 2.698-.75 4.17-2.11a72.006 72.006 0 0 1 10.874-8.24c1.442-.88 2.991-1.27 4.644-1.16 6.897.42 13.284 2.6 19.161 6.55.351.38.739.77 1.161 1.16 1.865 1.79 3.8 3.5 5.806 5.12a42.118 42.118 0 0 1 5.753 5.86c-.012-.03-.029-.06-.053-.11.145.19.286.36.423.53.246.31.528.6.844.84.282.28.598.58.95.9.176.35.352.67.528.95.141.28.299.56.475.84.176.29.334.55.475.8.831 1.33 1.957 2.14 3.378 2.42a465.708 465.708 0 0 0 8.129 42.7c1.935 8.2 4.522 16.16 7.759 23.86 7.671 18.3 8.463 35.63 2.375 51.99Zm-129.74-130.95c.59.43 1.153.87 1.689 1.32.669.6 1.249 1.23 1.742 1.9.721 1 1.53 1.83 2.428 2.48.057.31.109.61.158.9a255.116 255.116 0 0 1 3.537 39.9c.246 28.05.791 56.04 1.636 83.98-.141.25-.299.49-.475.74-.176.21-.334.4-.475.58-.176.21-.352.4-.528.58-.176.17-.352.37-.528.58-.176.18-.352.35-.528.53-3.554 1.05-7.16 1.92-10.82 2.58a470.15 470.15 0 0 1-38.954 5.65c-12.703 1.3-23.928-1.55-33.675-8.55a42.69 42.69 0 0 1-1.478-4.22 53.126 53.126 0 0 1-.95-3.59c-.353-1.64-.529-2.34-.528-2.11-.041-.31-.199-1.33-.475-3.06-.809-5.07-.634-10.07.528-14.99 3.554-15.06 7.301-30.11 11.242-45.13 4.082-15.31 7.935-30.64 11.56-45.98a3.98 3.98 0 0 0-.158-.68c-.071-.21-.141-.43-.212-.64l-.316-.63c-.106-.18-.229-.37-.37-.58a2.877 2.877 0 0 0-.475-.48 4.064 4.064 0 0 1-.422-.37c.138-.35.244-.74.317-1.16a54.619 54.619 0 0 1 6.334-8.65c2.85-3.1 6.193-5.4 10.028-6.92a79.155 79.155 0 0 1 22.169-5.22c.141.03.264.07.37.1a43.379 43.379 0 0 1 6.334 3.59c2.357 1.62 4.732 3.13 7.125 4.54.704.6 1.443 1.14 2.217 1.64.615.43 1.231.85 1.847 1.26.036.05.071.08.106.11Zm120.187-5.7-.106-.53c-.07-.63-.053-.63.053 0 0 .17.017.34.053.53Zm22.063-1008.891c.406.012.793-.006 1.161-.053a307.83 307.83 0 0 0 6.598 21.641 817.026 817.026 0 0 1 10.292 32.25 365.323 365.323 0 0 1 8.287 33.728 972.857 972.857 0 0 0 7.232 33.412 400.54 400.54 0 0 1 6.545 34.045c.985 6.545 1.847 13.565 2.586 21.06a465.839 465.839 0 0 0 5.278 37.001v.897a9.58 9.58 0 0 0 .106 2.006c.105.633.299 1.267.58 1.9 0 .704.036 1.408.106 2.111a10.24 10.24 0 0 0 1.109 3.959c.262.512.579.952.95 1.32a195.076 195.076 0 0 0-2.323 5.964 73.088 73.088 0 0 0-4.275 20.057 280.932 280.932 0 0 0-.634 16.31 118.9 118.9 0 0 0-21.535.106 489.68 489.68 0 0 1-27.817 1.847c-4.504.141-9.025.405-13.565.792a387.51 387.51 0 0 1-25.599 1.161c-3.59.071-7.144.211-10.663.423-6.861.492-13.723 1.038-20.585 1.636a2434.48 2434.48 0 0 1-27.552 2.27c-.683.041-1.369.058-2.059.052a100.578 100.578 0 0 0-.633-9.712 3.273 3.273 0 0 0-.37-.58 6.463 6.463 0 0 0-.475-.528 5.608 5.608 0 0 0-.475-.422 8.354 8.354 0 0 1-.581-.423 6.12 6.12 0 0 0-2.639-.686c-1.055 0-2.111-.017-3.167-.053-1.618 0-3.237.124-4.856.37-.457.211-.932.422-1.425.633-.563.211-1.126.44-1.689.686h-1.003c-1.97 0-3.958-.017-5.964-.052a56.373 56.373 0 0 0-7.337.264l-.633.211-.634.316a3.237 3.237 0 0 0-.58.37 3.055 3.055 0 0 0-.476.475 3.092 3.092 0 0 0-.475.475 5.437 5.437 0 0 0-.95 1.847 5.052 5.052 0 0 0-.105 2.059c.035.246.088.475.158.686.176.669.475 1.284.897 1.847.423.528.933.968 1.531 1.32.151.092.291.162.422.211.032.461.05.901.053 1.32-6.756-.351-13.53-.667-20.321-.95a241.291 241.291 0 0 1-20.691-1.742 1445.47 1445.47 0 0 0-27.342-3.22 549.161 549.161 0 0 0-27.394-2.164c-4.645-.246-9.29-.334-13.935-.264-9.219.141-18.438.246-27.658.317-4.871.03-9.727.101-14.568.211a908.334 908.334 0 0 1 0-17.155c.038-3.178.091-6.362.159-9.553.484-1.259.536-2.597.158-4.012.251-7.316.638-14.635 1.161-21.957a1401.614 1401.614 0 0 0 2.111-34.468 613.835 613.835 0 0 1 2.481-33.042 457.305 457.305 0 0 1 4.804-34.625 422.464 422.464 0 0 1 7.547-34.309 2628.549 2628.549 0 0 0 8.551-32.778 251.644 251.644 0 0 1 10.451-31.723 170.392 170.392 0 0 1 1.056-2.639v-.105a22.943 22.943 0 0 1 1.531-3.273c.074-.134.144-.275.211-.422.09.008.178.008.264 0 .352-.026.668-.097.95-.211.718.227 1.457.42 2.217.58a736.215 736.215 0 0 0 34.097 6.387 211.302 211.302 0 0 1 21.536 4.698 271.338 271.338 0 0 0 33.464 6.862 235.082 235.082 0 0 0 34.098 2.375c8.128.422 16.274.264 24.438-.475a171.727 171.727 0 0 0 33.728-6.545 859.122 859.122 0 0 0 33.465-10.61 391.767 391.767 0 0 0 30.614-11.717Zm-52.414 282.493a165.436 165.436 0 0 0 30.192-1.847c3.658-.005 7.317-.076 10.979-.211a446.053 446.053 0 0 0 27.342-1.689 194.34 194.34 0 0 1 27.499-.687c.009 9.827.079 19.645.211 29.453 0 1.337-.087 2.657-.263 3.959-.783 5.15.009 9.53 2.375 13.14-1.232 1.32-1.884 2.89-1.953 4.7-1.091 27.24-4.064 54.74-8.921 82.5a930.824 930.824 0 0 1-18.421 82.55c-7.6 28.12-13.882 55.86-18.843 83.24.105.67.334 1.3.686 1.9.317.63.739 1.16 1.267 1.58.031.03.066.05.105.06a369.924 369.924 0 0 0 3.854 56.58c3.976 27.2 5.207 55.12 3.694 83.77-1.442 27.9-3.237 55.84-5.384 83.82a486.695 486.695 0 0 1-13.512 82.76 190.052 190.052 0 0 1-6.598 21.11c-9.993 26.53-16.486 53.75-19.477 81.66.071.45.141.91.211 1.37l.212.63c.105.21.211.43.316.64.106.21.229.4.37.58.141.17.299.33.475.47.178 1.81.477 3.63.897 5.44.742 3.1 1.375 6.2 1.9 9.29a87.594 87.594 0 0 0-5.014-4.38c.334.26.229.12-.317-.42-6.756-6.66-14.797-11.18-24.121-13.57a17.533 17.533 0 0 0-7.39-.32 37.697 37.697 0 0 0-13.512 5.02c4.214-17.79 6.537-35.95 6.967-54.47.598-27.03-1.144-53.98-5.226-80.87a940.71 940.71 0 0 1-8.92-85.82c-.211-3.87-.211-7.71 0-11.51 1.584-27.16 3.079-54.37 4.487-81.6 1.442-28.22.263-56.3-3.537-84.24a645.265 645.265 0 0 1-5.859-81.97l-.105-18.64c-.106-29.45-.686-58.88-1.742-88.3a93.4 93.4 0 0 0-2.059-16.58l-.052-.21a1196.41 1196.41 0 0 1-1.531-27.87c-.317-7.14-.721-14.28-1.214-21.43a525.571 525.571 0 0 1-1.161-27.87 631.093 631.093 0 0 0-.845-24.328 191.459 191.459 0 0 0-.158-3.22 4.79 4.79 0 0 0-.053-.475 203.49 203.49 0 0 1 15.518-1.161 341.054 341.054 0 0 0 26.761-2.112 66.08 66.08 0 0 1 9.87-.422Zm-63.075-817.606c-1.091.106-1.971.563-2.639 1.373a42.063 42.063 0 0 0-4.223 6.228 27.436 27.436 0 0 1-1.161 1.9c-1.513 2.358-1.865 4.839-1.056 7.443a5.22 5.22 0 0 0 1.531 2.428c2.534 2.322 5.613 3.501 9.237 3.536 1.548.071 3.114.141 4.698.211 1.337.071 2.516-.334 3.536-1.214 1.971-1.724 2.182-3.659.633-5.806-.457-.668-1.073-1.055-1.847-1.161a32.716 32.716 0 0 0-6.439-.528c-1.126 0-2.077-.193-2.851-.58.141-.317.299-.599.475-.845a37.245 37.245 0 0 1 1.584-2.85 41.195 41.195 0 0 0 1.583-2.692c1.373-1.126 1.83-2.569 1.373-4.328-.599-2.288-2.076-3.326-4.434-3.115Zm-26.339-29.188a3.75 3.75 0 0 0-.105-2.481c-1.021-2.639-2.886-3.572-5.595-2.798-1.056.317-1.848.95-2.375 1.9-1.302 2.499-.775 4.522 1.583 6.07a4.605 4.605 0 0 0 1.953.528c2.393.176 3.906-.897 4.539-3.219Zm40.696 90.68a61.584 61.584 0 0 0 12.193-5.331c1.759-1.055 2.78-2.533 3.061-4.433.211-1.373-.229-2.481-1.319-3.326-2.147-1.724-4.188-1.601-6.123.37a27.6 27.6 0 0 0-1.373.791 35.016 35.016 0 0 1-8.973 3.906 102.879 102.879 0 0 1-9.923 2.323 53.397 53.397 0 0 1-10.451-.528 30.722 30.722 0 0 1-10.926-3.853 6.84 6.84 0 0 0-3.167-1.003c-1.759-.141-3.026.563-3.8 2.111-1.021 1.971-.704 3.66.95 5.067a11.78 11.78 0 0 0 1.9 1.373 33.652 33.652 0 0 0 11.032 4.064 91.554 91.554 0 0 0 11.559 1.372l.739.106c.528 0 1.056-.035 1.583-.106.36-.062.659-.115.898-.158a.227.227 0 0 0 .105-.053h.053c.051.01.104.01.159 0l.263-.052h-.052a88.477 88.477 0 0 0 11.612-2.64Zm-12.932-5.595a5.038 5.038 0 0 0-.264.053c.035-.035.088-.053.158-.053h.106Zm33.939-80.441c.106.036.229.053.37.053.105.035.229.053.369.053.106.035.229.053.37.053 2.252-.247 3.73-1.461 4.434-3.642.527-1.654.176-3.062-1.056-4.223-2.076-1.9-4.275-2.041-6.598-.422-.809.563-1.267 1.319-1.372 2.27-.352 2.779.809 4.732 3.483 5.858Zm36.737 13.513.159.158.369.37c.106.105.211.228.317.369l.211.211c.07.282.106.581.106.898a5.86 5.86 0 0 1-.37 1.689c-.211.563-.44 1.126-.686 1.689-.106.07-.211.158-.317.264a6.455 6.455 0 0 0-.475.527 3.99 3.99 0 0 1-.422.37 6.623 6.623 0 0 1-1.478-.475c-2.534-1.197-4.487-.581-5.859 1.847a2.621 2.621 0 0 0-.264 2.112c.809 2.815 2.78 4.398 5.912 4.75a4.841 4.841 0 0 0 2.005.106c4.892-.775 8.111-3.607 9.66-8.498.457-1.478.651-2.974.58-4.487-.316-5.419-3.096-8.903-8.339-10.451-2.499-.704-4.434-.035-5.806 2.006-.775 1.126-.845 2.305-.212 3.536.986 1.936 2.622 2.938 4.909 3.009Zm-146.472-12.774c-.774.036-1.548.088-2.322.159-2.253.176-4.17 1.073-5.754 2.692a13.134 13.134 0 0 0-3.167 5.067 13.493 13.493 0 0 0-.739 4.381c.035 4.398 2.076 7.372 6.123 8.92 1.091.317 2.199.422 3.325.317a37.748 37.748 0 0 1 3.431-.159c1.76.036 3.29-.51 4.592-1.636.81-.704 1.197-1.601 1.162-2.692-.071-2.674-1.426-4.152-4.065-4.434a30.293 30.293 0 0 0-3.114.37c-1.091.176-2.094.176-3.008 0a.458.458 0 0 1-.053-.211c-.035-.035-.053-.088-.053-.159-.035-.035-.053-.088-.053-.158l.106-.422c.14-.598.316-1.179.528-1.742.211-.528.457-1.038.739-1.531a7.046 7.046 0 0 1 2.269-.264c2.111.071 3.748-.739 4.909-2.428.669-1.02.792-2.111.369-3.272-.95-2.428-2.691-3.361-5.225-2.798Zm86.3-32.514c-2.076 1.478-2.938 3.396-2.587 5.753.352 2.464 1.76 3.502 4.223 3.115 1.83-.282 3.466-1.074 4.909-2.376 2.111-1.865 4.574-2.92 7.39-3.166 8.234-.775 16.028.862 23.382 4.908l.634.528a27.895 27.895 0 0 1 1.9 1.531 21.886 21.886 0 0 1 1.847 1.742c2.534 1.865 4.716 1.53 6.545-1.003.493-.669.563-1.373.211-2.112-2.146-4.68-5.718-8.058-10.714-10.134a88.311 88.311 0 0 0-10.24-3.59c-9.994-2.779-19.16-1.178-27.5 4.804Zm-71.363 18.263c2.006 1.619 3.977 1.583 5.912-.106a117.962 117.962 0 0 1 9.659-7.284c4.751-3.202 9.941-5.155 15.571-5.859 1.091.282 2.2.511 3.326.687 1.196.176 2.375.457 3.536.844 1.9.95 3.836 1.865 5.806 2.745 3.097 1.337 5.314.545 6.651-2.375.809-1.725.404-3.115-1.214-4.17a43.056 43.056 0 0 0-5.12-2.956c-6.721-3.378-13.583-3.835-20.585-1.372-7.636 2.71-14.78 6.492-21.43 11.348-3.308 2.428-4.012 5.261-2.112 8.498Zm-9.659-48.243.106-.212v-.052c-.035.07-.071.158-.106.264Zm68.565 612.333a5.544 5.544 0 0 0-3.008-.739c-2.253.106-3.818 1.232-4.698 3.378-.81 2.006-.669 3.976.422 5.912.246.422.563.809.95 1.161.95.809 2.059 1.39 3.326 1.742 1.689.422 3.219.088 4.592-1.003 1.759-1.443 2.41-3.29 1.953-5.542-.423-2.182-1.602-3.818-3.537-4.909Zm68.09-407.325a2.242 2.242 0 0 1-.264-.317.55.55 0 0 0 .053.106 1.5 1.5 0 0 1 .211.264c.011-.013.011-.031 0-.053Z"/><path fill="#fff" d="M486.331 966.703a165.43 165.43 0 0 1-30.191 1.847 66.087 66.087 0 0 0-9.871.423 341.496 341.496 0 0 1-26.761 2.111c-5.172.189-10.345.576-15.518 1.161.026.154.043.313.053.475.062 1.083.115 2.156.158 3.22.439 8.12.721 16.231.845 24.33.141 9.29.528 18.58 1.161 27.87.493 7.15.897 14.29 1.214 21.43.404 9.32.914 18.61 1.531 27.87l.053.21a93.399 93.399 0 0 1 2.058 16.58c1.056 29.41 1.636 58.85 1.742 88.3l.106 18.63a645.473 645.473 0 0 0 5.858 81.98 452.245 452.245 0 0 1 3.537 84.24c-1.408 27.23-2.903 54.43-4.487 81.6-.211 3.8-.211 7.64 0 11.51a941.082 941.082 0 0 0 8.921 85.82c4.082 26.89 5.823 53.84 5.225 80.86-.43 18.53-2.753 36.69-6.967 54.48a37.51 37.51 0 0 1 13.512-5.02c2.499-.42 4.962-.31 7.39.32 9.325 2.39 17.365 6.91 24.122 13.56.545.55.651.69.316.43a87.616 87.616 0 0 1 5.015 4.38c-.526-3.09-1.159-6.19-1.901-9.29a42.833 42.833 0 0 1-.897-5.44c-.176-.14-.334-.3-.475-.47a3.13 3.13 0 0 1-.369-.59l-.317-.63-.211-.63-.211-1.37c2.991-27.91 9.483-55.13 19.476-81.66 2.604-6.9 4.804-13.93 6.598-21.11a486.749 486.749 0 0 0 13.513-82.77c2.146-27.97 3.941-55.91 5.384-83.81 1.513-28.65.281-56.57-3.695-83.77a369.923 369.923 0 0 1-3.853-56.58c-.04-.02-.075-.03-.106-.06-.528-.42-.95-.95-1.267-1.58-.352-.6-.58-1.23-.686-1.9 4.962-27.38 11.243-55.12 18.844-83.24a931.97 931.97 0 0 0 18.421-82.55c4.856-27.77 7.829-55.27 8.92-82.5.07-1.81.721-3.38 1.953-4.7-2.366-3.61-3.157-7.99-2.375-13.142a29.51 29.51 0 0 0 .264-3.958c-.133-9.809-.203-19.627-.211-29.453a194.205 194.205 0 0 0-27.5.686 446.053 446.053 0 0 1-27.342 1.689c-3.661.136-7.321.206-10.979.211Zm-168.007 2.639a551.93 551.93 0 0 0-27.447-3.431 222.738 222.738 0 0 0-27.395-.95c-9.219.211-18.421.422-27.605.634-5.173.105-10.345.017-15.518-.264a1.384 1.384 0 0 0-.158 0 804.284 804.284 0 0 1 7.231 68.989c1.689 27.62 4.486 55.16 8.392 82.6a475.168 475.168 0 0 0 19.213 82.13 319.317 319.317 0 0 1 7.97 28.45c.093.03.181.07.264.11.423.17.81.39 1.162.63.211.11.387.25.527.42.176.14.335.3.475.48.141.21.264.4.37.58l.317.63c.07.21.14.43.211.64 4.046 26.95 4.979 54.06 2.797 81.33a796.58 796.58 0 0 0-2.111 89.84 622.44 622.44 0 0 0 8.92 86.62c1.373 8.06 2.745 16.13 4.117 24.23-.035-.25-.07-.48-.105-.69a5.116 5.116 0 0 1-.053-.74A2451.37 2451.37 0 0 0 297 1589.43a477.358 477.358 0 0 1 12.192 83.82c.371 6.65.565 13.27.581 19.85 3.142-2.88 6.661-5.36 10.557-7.44a47.638 47.638 0 0 1 13.142-4.81 75.143 75.143 0 0 1 15.519-1.53c2.533 0 4.908.65 7.125 1.96 3.574 2.09 7.005 4.29 10.293 6.59a73.25 73.25 0 0 0-2.903-5.85c-12.826-23.42-16.855-49.88-12.087-79.39-.05-.03-.103-.06-.159-.11-.704-.49-1.214-1.1-1.53-1.84a6.23 6.23 0 0 1-.528-1.53 7.251 7.251 0 0 1-.159-.85 791.526 791.526 0 0 0 13.513-83.39c2.991-27.98 2.674-55.88-.95-83.72a1798.647 1798.647 0 0 1-6.387-56.26 92 92 0 0 1 .422-21.54 2240.77 2240.77 0 0 0 9.923-84.03 592.141 592.141 0 0 0 2.323-84.35c-.282-6.61-.634-13.19-1.056-19.74-.563-8.65-.616-17.36-.158-26.13-.81-23.54-.493-47.24.95-71.09.317-5.42.704-10.84 1.161-16.26 1.795-22.45 3.167-44.88 4.117-67.299.141-3.167.211-6.334.211-9.501a25.258 25.258 0 0 1-.739-2.27c-8.848.12-17.716-.074-26.602-.58a312.646 312.646 0 0 1-27.447-2.798Zm-36.262-656.671c.118-.424.241-.846.369-1.267a146.11 146.11 0 0 1-23.382 3.115c-11.225.563-22.028 3.237-32.409 8.023a52.35 52.35 0 0 0-6.809 3.906c-8.832 5.946-14.973 14.093-18.421 24.438a141.786 141.786 0 0 0-3.062 10.662c-2.92 11.894-4.521 23.26-4.803 34.098a410.446 410.446 0 0 0 .845 36.05c.246 3.73.528 7.443.844 11.138a541.031 541.031 0 0 1 1.689 35.417c.071 6.088-.123 11.419-.58 15.993a112.512 112.512 0 0 0-.634 13.776c.027 1.663-.166 3.212-.58 4.645a1308.848 1308.848 0 0 0-3.22 35.998 1225.658 1225.658 0 0 1-3.114 34.045 1401.365 1401.365 0 0 1-4.117 34.256 775.884 775.884 0 0 1-5.173 33.834 1040.202 1040.202 0 0 0-5.437 34.362 263.703 263.703 0 0 0-2.586 34.572 552.762 552.762 0 0 1-1.372 34.098 834.352 834.352 0 0 0-1.848 33.781c-.2 6.271-.869 12.429-2.006 18.474.147.47.182.98.106 1.531a281.972 281.972 0 0 0-2.797 33.147 753.938 753.938 0 0 1-.634 17.841c-.528 11.929-1.073 23.858-1.636 35.787a67.432 67.432 0 0 1-.897 8.762 375.01 375.01 0 0 0-.898 6.597v.159l-.475 2.586a794.038 794.038 0 0 1-6.914 35.101c-2.675 11.999-2.71 23.998-.106 35.997 2.428 11.155 6.844 21.377 13.249 30.667 3.237 4.68 7.284 8.43 12.14 11.24 9.078 5.25 18.491 9.03 28.238 11.35a38.943 38.943 0 0 0-8.814-10.08c-2.78-2.29-5.701-4.77-8.762-7.44a30.808 30.808 0 0 1-3.695-3.96c-.211-.32-1.126-1.62-2.745-3.91-4.75-6.75-7.037-14.337-6.861-22.747.07-4.891.545-9.712 1.425-14.462 1.196-6.545 4.31-11.876 9.342-15.993 5.595-.774 8.551 1.97 8.868 8.234a323.894 323.894 0 0 0 2.269 25.441c.915 6.792 3.836 12.477 8.762 17.047.176 0 .352-.02.528-.05h.528c.176 0 .352-.02.528-.05.176 0 .352-.02.528-.06h.105c2.675-5.1 3.977-10.641 3.906-16.623v-5.648c-.185-1.82-.343-3.649-.475-5.489a173.659 173.659 0 0 0-2.85-21.641c-.528-2.569-.51-5.102.053-7.601.211-.387.457-.756.739-1.108a2.94 2.94 0 0 1 .316-.37c-.036-7.409.087-14.816.37-22.221a321.592 321.592 0 0 0-14.41-29.875c-2.745-5.103-3.765-10.557-3.061-16.363a402.492 402.492 0 0 1 5.753-33.781 2653.014 2653.014 0 0 1 4.803-21.852v.211a1.565 1.565 0 0 0-.053.37 293.868 293.868 0 0 1 9.501-36.262 1245.405 1245.405 0 0 0 10.504-33.148 665.94 665.94 0 0 0 9.237-33.781 2775.95 2775.95 0 0 1 8.234-32.725 514.829 514.829 0 0 0 7.337-33.095 82.214 82.214 0 0 0 1.425-16.838c-.63-2.316-.542-4.093.264-5.331-.712-8.5-.765-17.051-.158-25.652a1898.391 1898.391 0 0 1 2.639-34.52c.95-11.507 2.041-23.013 3.272-34.52a30.42 30.42 0 0 1 1.162-5.648c.148-.445.324-.85.527-1.214-.266-1.015-.53-2.035-.791-3.061a263.426 263.426 0 0 1-6.334-33.887c-1.337-10.803-1.83-22.081-1.478-33.834a194.323 194.323 0 0 1 4.011-34.308 551.913 551.913 0 0 1 8.182-34.309c1.513-5.63 3.079-11.261 4.697-16.891a349.903 349.903 0 0 0 7.179-29.347c0 .141-.018.264-.053.369a.638.638 0 0 1-.053.264 2577.064 2577.064 0 0 1 10.029-36.42Zm37.581-15.465c.1.209.188.42.264.633a26.16 26.16 0 0 1 1.478 8.393 382.646 382.646 0 0 0 1.742 34.203c.985 10.169 3.396 19.934 7.231 29.294 3.977 9.677 11.014 15.923 21.113 18.738a244.564 244.564 0 0 0 33.57 6.862 94.47 94.47 0 0 0 23.172.211c2.287-.246 4.557-.51 6.809-.792 10.768-1.302 20.409-5.331 28.925-12.087a60.938 60.938 0 0 0 14.146-16.151 40.25 40.25 0 0 0 4.539-10.557 258.401 258.401 0 0 0 4.381-19.002v.106a1.743 1.743 0 0 0-.053.422 351.854 351.854 0 0 0 4.381-34.784 89.821 89.821 0 0 1 1.056-8.814.68.68 0 0 0 0-.212 34.585 34.585 0 0 1-4.803-4.169 109.824 109.824 0 0 1-5.595-4.17 117.768 117.768 0 0 1-4.065-3.273 33.644 33.644 0 0 1-5.542-5.859c0-.018-.017-.036-.053-.052-.036-.098-.318-.485-.844-1.162a35.482 35.482 0 0 1-3.326-5.225 47.096 47.096 0 0 1-2.322-5.067l-.053-.106a.614.614 0 0 1 .106.158 149.6 149.6 0 0 1-2.956-8.181 72.98 72.98 0 0 1-2.006-7.706 38.71 38.71 0 0 1-.264-1.478.614.614 0 0 0 0-.106 1.84 1.84 0 0 0-.052-.158.448.448 0 0 0-.053-.264v-.053a51.215 51.215 0 0 1-3.853 2.745c-7.742 4.926-16.17 8.463-25.283 10.609a60.699 60.699 0 0 1-12.563 1.531c-1.478 0-2.956-.035-4.433-.106a3553.443 3553.443 0 0 1-28.028-3.272c-5.923-.732-11.377-2.492-16.363-5.278a55.658 55.658 0 0 1-6.492 17.893 167.256 167.256 0 0 1-9.659 14.99c-3.202 4.469-7.196 7.953-11.982 10.451a3.993 3.993 0 0 1-1.583.475c-.224.137-.453.26-.687.37Zm53.364-256.472c-1.795.14-3.554.37-5.279.686-.035 0-.07.018-.105.053.457-.105-.158.106-1.847.633a427.526 427.526 0 0 1-18.58 5.173c-6.193 1.619-11.735 4.434-16.627 8.445a25.877 25.877 0 0 0-2.586 2.534l.317-.422a25.39 25.39 0 0 0-5.015 8.287 59.656 59.656 0 0 0-2.48 9.395c-.212 1.337-.44 2.674-.687 4.011a99.46 99.46 0 0 0-.264 13.355c.176 4.504.546 8.99 1.109 13.459.198 1.386.409 2.758.633 4.117v-.158a1.747 1.747 0 0 1-.052-.422c.95 2.498 1.055 4.961.316 7.389-.563 1.76-1.742 2.78-3.536 3.062-2.463.387-4.328-.493-5.595-2.639a2.776 2.776 0 0 1-.422-1.003 69.298 69.298 0 0 0-.212-.95c-.126-.266-.25-.548-.369-.845a2.809 2.809 0 0 1-.158-1.214.59.59 0 0 1-.106-.158 1.34 1.34 0 0 1-.158-.317 58.065 58.065 0 0 1-.211-.317.623.623 0 0 0-.159-.105 1.998 1.998 0 0 0-.264-.106.358.358 0 0 0-.264-.105.855.855 0 0 0-.369.105 1.998 1.998 0 0 0-.264.106 6.505 6.505 0 0 0-.897 1.108c-.317.422-.599.792-.845 1.109l.158-.106c.317-.493.124 0-.58 1.478a25.636 25.636 0 0 0-1.372 3.906 36.85 36.85 0 0 0-.528 2.745c0-.141.017-.3.052-.475 0-.141.018-.3.053-.476.035-.14.053-.299.053-.475a223.77 223.77 0 0 0-1.847 18.686 127.923 127.923 0 0 0 .264 17.629c.14 1.619.545 3.167 1.214 4.645l.263.264a.975.975 0 0 0 .264.264l.317.211c.141.07.264.141.37.211.105.07.228.141.369.211a6.466 6.466 0 0 0 2.586.317c.95-.106 1.901-.229 2.851-.37a91.09 91.09 0 0 1 1.425-.316c2.85-4.329 6.14-5.032 9.87-2.112.88.704 1.285 1.601 1.214 2.692-.124 1.862-.722 3.481-1.794 4.856-.704 8.708-.07 17.276 1.9 25.706a109.572 109.572 0 0 0 9.87 26.549c4.434 8.446 10.557 15.448 18.369 21.008 6.685 4.75 14.163 7.196 22.432 7.337a77.87 77.87 0 0 1 10.662.95c9.501 1.478 18.791.774 27.87-2.112a370.684 370.684 0 0 0 8.762-3.008 92.468 92.468 0 0 0 6.861-3.906 49.73 49.73 0 0 0 5.595-4.064.442.442 0 0 0 .053-.053.442.442 0 0 0 .053-.053c.232-.189.461-.383.686-.581a34.224 34.224 0 0 1 2.798-2.111 51.492 51.492 0 0 0 7.97-10.873 284.75 284.75 0 0 0 5.964-11.19 159.927 159.927 0 0 0 2.375-4.962.468.468 0 0 0 .106-.158 126.568 126.568 0 0 0 7.179-25.019c.633-3.73.791-7.495.475-11.296a12.097 12.097 0 0 1 0-2.269c-.527-1.803.212-3.474 2.216-5.015 2.006-1.548 4.012-1.548 6.018 0a5.957 5.957 0 0 1 1.478 1.637c.527.246 1.055.51 1.583.791a38.49 38.49 0 0 0 1.795.792c.281.106.563.194.844.264a2.702 2.702 0 0 0 1.056 0c.105 0 .211-.018.317-.053 2.709-5.208 4.117-10.855 4.222-16.943.035-5.278.211-10.574.528-15.888.317-5.419 0-10.75-.95-15.993 0-.035-.018-.053-.053-.053a1.728 1.728 0 0 1-.264-.211l-.316-.211a3.481 3.481 0 0 0-.37-.211l-.317-.211a.58.58 0 0 0-.264.053c-.07.035-.158.07-.263.105l-.317.106-.317.105a6.761 6.761 0 0 0-.475.211c-3.055 3.399-6.029 3.892-8.92 1.478-1.165-.501-2.062-1.539-2.692-3.114-.669-1.724-.669-3.448 0-5.173.035-.316.07-.651.105-1.002l.212-.951c.07-.316.14-.615.211-.897.246-3.695.633-7.372 1.161-11.031.281-2.182.369-4.364.264-6.546a137.964 137.964 0 0 0-.897-10.028c0-.035-.018-.07-.053-.106.105.598-.035.106-.423-1.478a47.751 47.751 0 0 0-2.955-8.234 107.244 107.244 0 0 1-3.273-8.076c-.211-.633-.44-1.249-.686-1.847a42.729 42.729 0 0 0-2.111-4.275 47.503 47.503 0 0 0-2.745-4.17 16.623 16.623 0 0 0-2.375-2.587 489.547 489.547 0 0 0-23.964-8.867c-2.639-.915-5.753-1.373-9.342-1.373a1553.71 1553.71 0 0 0-28.609.159c-6.439.105-12.861.404-19.265.897Zm-48.93 23.7-.105.21c.035-.105.07-.193.105-.263v.053Zm15.465 48.349c-1.935 1.689-3.905 1.724-5.911.105-1.9-3.237-1.197-6.07 2.111-8.498 6.651-4.856 13.794-8.639 21.43-11.348 7.002-2.463 13.864-2.006 20.585 1.372a43.069 43.069 0 0 1 5.12 2.956c1.619 1.056 2.023 2.446 1.214 4.17-1.337 2.921-3.554 3.712-6.65 2.375a146.15 146.15 0 0 1-5.807-2.745 20.687 20.687 0 0 0-3.536-.844 34.76 34.76 0 0 1-3.325-.686c-5.631.704-10.821 2.657-15.571 5.859a117.526 117.526 0 0 0-9.66 7.284Zm62.865-12.404c-.352-2.358.51-4.276 2.586-5.754 8.34-5.982 17.506-7.583 27.5-4.803a88.264 88.264 0 0 1 10.24 3.59c4.997 2.076 8.568 5.454 10.715 10.134.352.739.281 1.442-.211 2.111-1.83 2.534-4.012 2.868-6.545 1.003a21.911 21.911 0 0 0-1.848-1.742 27.651 27.651 0 0 0-1.9-1.531l-.633-.527c-7.355-4.047-15.149-5.683-23.383-4.91-2.815.247-5.278 1.303-7.39 3.168-1.443 1.302-3.079 2.093-4.909 2.375-2.463.387-3.87-.651-4.222-3.114Zm-86.036 26.919c.774-.07 1.548-.123 2.322-.158 2.534-.563 4.276.369 5.226 2.797.422 1.161.299 2.252-.37 3.273-1.161 1.689-2.797 2.498-4.909 2.428a6.994 6.994 0 0 0-2.269.264 12.106 12.106 0 0 0-.739 1.53 14.331 14.331 0 0 0-.528 1.742l-.106.422c0 .071.018.124.053.159 0 .07.018.123.053.158 0 .07.018.141.053.211.915.176 1.918.176 3.008 0a30.005 30.005 0 0 1 3.115-.369c2.639.281 3.994 1.759 4.064 4.433.035 1.091-.352 1.989-1.161 2.692-1.302 1.126-2.833 1.672-4.592 1.637-1.126 0-2.27.052-3.431.158a8.847 8.847 0 0 1-3.326-.317c-4.046-1.548-6.087-4.521-6.122-8.92 0-1.478.246-2.938.738-4.381a13.16 13.16 0 0 1 3.167-5.067c1.584-1.619 3.502-2.516 5.754-2.692Zm148.953 12.773-.158-.158c-2.288-.07-3.924-1.073-4.909-3.009-.634-1.231-.563-2.41.211-3.536 1.372-2.041 3.308-2.709 5.806-2.006 5.243 1.549 8.023 5.032 8.34 10.451a13.02 13.02 0 0 1-.581 4.487c-1.548 4.891-4.768 7.724-9.659 8.498a4.846 4.846 0 0 1-2.006-.106c-3.132-.352-5.102-1.935-5.912-4.75a2.618 2.618 0 0 1 .264-2.111c1.373-2.429 3.326-3.044 5.859-1.848.458.211.95.37 1.478.475a3.88 3.88 0 0 0 .422-.369c.141-.176.299-.352.475-.528a2.1 2.1 0 0 1 .317-.264c.246-.563.475-1.126.686-1.689a5.827 5.827 0 0 0 .37-1.689c0-.317-.035-.616-.106-.897l-.211-.212a3.457 3.457 0 0 0-.317-.369l-.369-.37Zm-36.526-13.618a1.17 1.17 0 0 1-.369-.052c-2.675-1.126-3.836-3.079-3.484-5.859.106-.95.563-1.707 1.372-2.27 2.323-1.619 4.522-1.478 6.598.422 1.232 1.162 1.584 2.569 1.056 4.223-.704 2.182-2.182 3.396-4.434 3.642-.141 0-.264-.018-.369-.053a1.15 1.15 0 0 1-.37-.053Zm-9.184 80.653a61.642 61.642 0 0 1-12.193 5.331 88.474 88.474 0 0 1-11.612 2.639h.053l-.264.053a.471.471 0 0 1-.159 0h-.052a.227.227 0 0 1-.106.052l-.897.159a12.04 12.04 0 0 1-1.584.105l-.739-.105a91.578 91.578 0 0 1-11.559-1.373 33.63 33.63 0 0 1-11.032-4.064 11.818 11.818 0 0 1-1.9-1.372c-1.654-1.408-1.97-3.097-.95-5.067.774-1.549 2.041-2.252 3.8-2.112a6.852 6.852 0 0 1 3.167 1.003 30.71 30.71 0 0 0 10.926 3.853 53.4 53.4 0 0 0 10.451.528c.169-.029.362-.064.581-.105a103.654 103.654 0 0 0 9.343-2.217 35.086 35.086 0 0 0 8.973-3.906c.457-.282.915-.546 1.372-.792 1.935-1.971 3.976-2.094 6.123-.369 1.091.844 1.53 1.952 1.319 3.325-.281 1.9-1.302 3.378-3.061 4.434Zm-52.994-87.831a3.75 3.75 0 0 1 .106 2.481c-.634 2.322-2.147 3.395-4.54 3.22a4.642 4.642 0 0 1-1.953-.528c-2.357-1.549-2.885-3.572-1.583-6.07.528-.95 1.319-1.584 2.375-1.9 2.71-.775 4.575.158 5.595 2.797Zm23.805 33.042c.669-.809 1.548-1.267 2.639-1.372 2.358-.211 3.836.827 4.434 3.114.457 1.759 0 3.202-1.372 4.328a41.664 41.664 0 0 1-1.584 2.692 36.899 36.899 0 0 0-1.583 2.85 4.776 4.776 0 0 0-.475.845c.774.387 1.724.58 2.85.58a32.71 32.71 0 0 1 6.439.528c.775.106 1.39.493 1.848 1.161 1.548 2.147 1.337 4.082-.634 5.807-1.02.879-2.199 1.284-3.536 1.214-1.584-.071-3.149-.141-4.698-.212-3.624-.035-6.703-1.214-9.237-3.536a5.21 5.21 0 0 1-1.53-2.428c-.81-2.604-.458-5.085 1.055-7.442.423-.634.81-1.267 1.161-1.901a42.193 42.193 0 0 1 4.223-6.228ZM508.711 570.04a43.602 43.602 0 0 1-4.803-1.847 106.638 106.638 0 0 0-15.624-5.437 5036.825 5036.825 0 0 0-32.989-8.445 244.146 244.146 0 0 0-32.356-5.753 32.18 32.18 0 0 1-1.161-.159 249.807 249.807 0 0 0-32.62-5.648 41.092 41.092 0 0 0-8.814 0c-4.645.493-8.534.88-11.665 1.162-7.847.739-14.832 1.654-20.955 2.744a406.312 406.312 0 0 0-33.412 7.654 158.703 158.703 0 0 0-31.511 12.457 84.802 84.802 0 0 1-4.223 2.058c2.273 5.893 3.61 12.051 4.012 18.474.246 3.519.404 7.02.475 10.504a474.688 474.688 0 0 1-.686 35.364c-.669 11.718-3.027 23.172-7.073 34.362a117.549 117.549 0 0 1-7.759 17.154c4.51 1.169 9.05 2.242 13.618 3.22a.863.863 0 0 0 .158.053l2.27.422a815.539 815.539 0 0 1 33.042 6.387 1051.461 1051.461 0 0 1 24.808 5.701 166.47 166.47 0 0 0 34.361 4.644c11.577.352 23.119 0 34.626-1.055 13.547-1.197 27.042-3.977 40.484-8.34a787.893 787.893 0 0 0 33.201-11.612 712.975 712.975 0 0 1 20.902-7.548c-.988-2.087-1.674-4.41-2.059-6.967a152.855 152.855 0 0 0-1.636-8.921 123.296 123.296 0 0 1-2.587-34.256 187.115 187.115 0 0 1 3.378-25.811 1209.899 1209.899 0 0 1 5.226-24.491v-.158a.182.182 0 0 0 .053-.106v-.105c0-.071.017-.141.053-.211v.105c.418-1.86.841-3.725 1.266-5.595ZM389.528 676.239a5.542 5.542 0 0 1 3.008.739c1.936 1.091 3.115 2.727 3.537 4.909.457 2.252-.194 4.099-1.953 5.542-1.372 1.091-2.903 1.425-4.592 1.003-1.267-.352-2.375-.932-3.326-1.742a4.94 4.94 0 0 1-.95-1.161c-1.091-1.935-1.231-3.906-.422-5.912.88-2.146 2.446-3.272 4.698-3.378ZM508.553 309.61l-.528-.211c.141.07.299.14.475.211a21.593 21.593 0 0 1-.792-.264c.21 1.498.509 2.976.898 4.434a569.54 569.54 0 0 0 7.231 24.808 5947.945 5947.945 0 0 0 6.07 19.265 234.014 234.014 0 0 1 8.34 35.47 85.697 85.697 0 0 0 3.167 13.196 162.051 162.051 0 0 1 5.7 22.697 50.768 50.768 0 0 1 3.642-8.446c.387-.703.986-1.073 1.795-1.108 4.574-.317 6.51 1.759 5.806 6.228a511.91 511.91 0 0 1-2.956 17.63 1021.789 1021.789 0 0 0-6.228 38.531c-1.097 7.846-2.206 15.71-3.326 23.594-.015.009-.033.062-.052.159v.211c-.016.141-.033.281-.053.422v-.211a3.783 3.783 0 0 1-.053.316v-.052a.594.594 0 0 1 0 .158c-1.355 11.017-2.71 22.049-4.064 33.095a81.509 81.509 0 0 0-.211 17.577c.337 3.865.038 7.577-.898 11.137.048.198.083.391.106.58a199.21 199.21 0 0 1 .844 33.042 106.242 106.242 0 0 0-.158 5.754c.106 6.158.51 11.577 1.214 16.257a1698.234 1698.234 0 0 1 4.539 32.778 653.34 653.34 0 0 0 5.173 32.936 360.345 360.345 0 0 0 7.97 33.834 448.498 448.498 0 0 0 11.032 33.464 167.306 167.306 0 0 1 8.023 29.823 5831.297 5831.297 0 0 0 6.017 34.203 543.87 543.87 0 0 1 4.909 33.253 571.5 571.5 0 0 1 2.164 23.277c.176 2.499.405 4.997.686 7.496.81 2.005.528 3.853-.844 5.542a3.734 3.734 0 0 1-.475.475c-.347.852-.946 1.661-1.795 2.428a29.059 29.059 0 0 0-4.645 5.489c-5.595 8.727-9.553 18.052-11.876 27.975a92.15 92.15 0 0 0-2.111 13.143 310.887 310.887 0 0 0-1.214 36.684c.246 9.395.598 18.791 1.055 28.19.106.1.194.21.264.31.106.11.211.21.317.32.07.11.158.21.264.32.106.1.211.21.317.31 4.011-3.34 6.773-7.774 8.287-13.298a1862.131 1862.131 0 0 0 8.92-34.679c1.724-6.897 5.753-10.064 12.087-9.501 1.091.106 1.883.687 2.375 1.742 2.78 5.736 4.434 11.876 4.962 18.421a133.62 133.62 0 0 1-.37 24.597c-.492 4.399-2.216 8.248-5.172 11.558-6.088 6.83-13.706 10.95-22.855 12.35-.774.5-1.496 1.06-2.164 1.69a8.66 8.66 0 0 0-1.848 2.22c-.387.63-.756 1.28-1.108 1.95-.211.81-.422 1.64-.634 2.48-.211.99-.281 1.99-.211 3.01.106.88.299 1.76.581 2.64.281.25.581.42.897.53.493.17 1.003.31 1.531.42.598.11 1.196.23 1.795.37.211.04.422.07.633.11a68.827 68.827 0 0 0 14.304-6.07c4.469-2.54 8.762-5.37 12.879-8.5 1.302-.99 1.9-1.46 1.795-1.43.07-.1.844-.74 2.322-1.9a35.564 35.564 0 0 0 9.607-12.03c1.478-2.99 2.85-6.02 4.117-9.081.563-1.408.862-2.111.897-2.111l1.003-2.534c4.75-11.894 6.721-24.139 5.912-36.737a63.389 63.389 0 0 0-1.214-9.29 275.195 275.195 0 0 1-1.478-8.023.516.516 0 0 0 .052.053c-.002-.029-.02-.064-.052-.105a.702.702 0 0 0 0-.159v.106a3.139 3.139 0 0 1-.053-.37 228.048 228.048 0 0 1-2.534-24.28c-.246-4.609-.985-9.729-2.217-15.359-.801-3.514-.784-6.804.053-9.871a236.926 236.926 0 0 1-5.173-33.306 809.758 809.758 0 0 1-2.111-34.625 553.465 553.465 0 0 1-.317-34.151c.247-11.401.511-22.784.792-34.15a490.057 490.057 0 0 0-.475-34.467 1568.987 1568.987 0 0 0-2.164-34.151c-.422-5.7-.915-11.401-1.478-17.102 0-.281-.141-1.442-.422-3.483a472.955 472.955 0 0 1-3.484-34.573 385.44 385.44 0 0 0-3.589-33.517 941.697 941.697 0 0 0-5.806-33.781 109.841 109.841 0 0 1-1.795-16.679 354.74 354.74 0 0 0-2.85-34.52 91.848 91.848 0 0 1-.686-9.343c-.04-2.72.048-5.395.264-8.023a144.342 144.342 0 0 1 2.269-33.411 5214.09 5214.09 0 0 0 6.123-33.729c1.408-7.776 1.672-16.116.792-25.019a383.989 383.989 0 0 0-4.909-34.097c-2.217-11.683-7.231-21.958-15.043-30.826a22.05 22.05 0 0 0-1.742-1.847 2626.774 2626.774 0 0 1-31.511-12.246 68.106 68.106 0 0 0-15.993-4.117 126.123 126.123 0 0 1-12.14-2.269c-1.08.329-2.294.171-3.642-.475a70.458 70.458 0 0 0-1.637-.845 28.8 28.8 0 0 0-2.111-.897Z"/><path fill="#333" d="M509.713 686.004a7.309 7.309 0 0 1-1.161.053 392.176 392.176 0 0 1-30.614 11.718 857.94 857.94 0 0 1-33.465 10.609 171.595 171.595 0 0 1-33.728 6.545c-8.164.739-16.31.898-24.438.475a234.79 234.79 0 0 1-34.098-2.375 271.153 271.153 0 0 1-33.464-6.862 211.298 211.298 0 0 0-21.536-4.697 736.506 736.506 0 0 1-34.098-6.387 23.274 23.274 0 0 1-2.216-.581 3.144 3.144 0 0 1-.951.212 1.444 1.444 0 0 1-.263 0 5.727 5.727 0 0 1-.212.422 22.984 22.984 0 0 0-1.53 3.272v.106c-.035.07-.387.95-1.056 2.639a251.59 251.59 0 0 0-10.451 31.723 2637.7 2637.7 0 0 1-8.551 32.778 422.8 422.8 0 0 0-7.548 34.309 457.302 457.302 0 0 0-4.803 34.625 613.835 613.835 0 0 0-2.481 33.042 1401.23 1401.23 0 0 1-2.111 34.467 594.213 594.213 0 0 0-1.161 21.958c.378 1.415.325 2.752-.159 4.011-.067 3.191-.12 6.376-.158 9.554a908.228 908.228 0 0 0 0 17.154c4.841-.11 9.697-.18 14.568-.211 9.22-.07 18.439-.176 27.658-.316 4.645-.071 9.29.017 13.935.264 9.149.492 18.28 1.214 27.394 2.164 9.114.985 18.228 2.058 27.342 3.219 6.897.88 13.794 1.461 20.691 1.742 6.791.283 13.565.6 20.321.95a21.277 21.277 0 0 0-.053-1.319 2.55 2.55 0 0 1-.422-.211 5.548 5.548 0 0 1-1.531-1.32 5.31 5.31 0 0 1-.897-1.847 3.932 3.932 0 0 1-.158-.687 5.048 5.048 0 0 1 .105-2.058c.211-.704.528-1.32.95-1.847.141-.176.299-.335.475-.475a3.055 3.055 0 0 1 1.056-.845l.633-.317.634-.211a56.721 56.721 0 0 1 7.337-.264c2.005.035 3.993.053 5.964.053h1.003a34.167 34.167 0 0 1 1.689-.686c.493-.211.968-.422 1.425-.634a32.275 32.275 0 0 1 4.856-.369 95.57 95.57 0 0 0 3.167.053 6.12 6.12 0 0 1 2.639.686c.176.141.37.281.581.422a5.98 5.98 0 0 1 .95.95c.141.176.264.37.369.581.368 3.231.58 6.468.634 9.712.69.006 1.376-.011 2.058-.053 9.185-.704 18.369-1.46 27.553-2.269 6.862-.599 13.723-1.144 20.585-1.637 3.519-.211 7.073-.352 10.662-.422a388.914 388.914 0 0 0 25.6-1.161c4.539-.387 9.061-.651 13.565-.792 9.29-.352 18.562-.968 27.817-1.847a118.9 118.9 0 0 1 21.535-.106c.053-5.43.264-10.866.634-16.31.492-6.932 1.917-13.618 4.275-20.057.741-2.002 1.516-3.99 2.322-5.965a5.198 5.198 0 0 1-.95-1.319 10.239 10.239 0 0 1-1.108-3.959 21.029 21.029 0 0 1-.106-2.111 7.85 7.85 0 0 1-.58-1.901c-.106-.668-.141-1.337-.106-2.005v-.898a465.814 465.814 0 0 1-5.278-37c-.739-7.496-1.601-14.516-2.586-21.061a400.695 400.695 0 0 0-6.546-34.045 972.277 972.277 0 0 1-7.231-33.411 365.165 365.165 0 0 0-8.287-33.728 817.603 817.603 0 0 0-10.292-32.251 307.668 307.668 0 0 1-6.598-21.641ZM496.728 309.98c-.416-1.58-.592-3.128-.528-4.645a185.61 185.61 0 0 1-13.934-6.123 231.853 231.853 0 0 1-3.59 31.353c.036-.124.053-.248.053-.37l-.528 3.59a60.666 60.666 0 0 1-.633 3.483 34.26 34.26 0 0 0-.264 1.742c0-.141.018-.299.053-.475.035-.141.053-.299.053-.475a130.511 130.511 0 0 1-9.712 32.884 28.85 28.85 0 0 1-4.751 7.284c-7.741 8.691-16.767 15.835-27.077 21.43a29.663 29.663 0 0 1-8.076 2.955 187.47 187.47 0 0 1-35.206 4.17 21.69 21.69 0 0 1-2.164 0 645.948 645.948 0 0 1-33.834-5.647c-11.753-2.288-21.536-7.795-29.347-16.521a41.31 41.31 0 0 1-8.393-14.621 140.331 140.331 0 0 1-5.648-24.914 309.588 309.588 0 0 1-2.533-34.256 430.472 430.472 0 0 1-.053-8.867 119.136 119.136 0 0 1-15.254 6.017c-.066.345-.154.697-.264 1.056a1402.571 1402.571 0 0 1-10.768 33.833 47.754 47.754 0 0 0-1.9 7.654c0-.141.018-.264.053-.37v-.158a590.714 590.714 0 0 1-8.657 37.054 656.099 656.099 0 0 1-5.12 18.104A254.038 254.038 0 0 0 261 439.034a238.089 238.089 0 0 0-2.692 34.995c0 8.515.634 16.996 1.9 25.441 1.514 10.064 3.713 20.638 6.598 31.722a1546.176 1546.176 0 0 0 7.495 27.659 45.413 45.413 0 0 0 1.637-.792 182.62 182.62 0 0 1 31.881-12.615 364.84 364.84 0 0 1 33.358-8.023 448.453 448.453 0 0 1 31.3-4.909 91.247 91.247 0 0 1 17.26-.475 140.942 140.942 0 0 1 29.506 5.384l-.633-.106h-.264a359.533 359.533 0 0 1 36.684 6.598 2239.426 2239.426 0 0 1 33.728 8.181 188.23 188.23 0 0 1 26.391 8.71l.212-5.701c.035-1.443.211-2.868.527-4.275.231-.501.495-.941.792-1.32a553.038 553.038 0 0 0 5.489-30.192c1.76-11.33 3.572-22.661 5.437-33.992.704-4.328 1.32-8.674 1.848-13.037a128.588 128.588 0 0 0 .369-34.679 104.357 104.357 0 0 0-3.484-16.837 299.159 299.159 0 0 1-7.548-31.723 251.095 251.095 0 0 0-5.911-24.913 126.86 126.86 0 0 0-2.851-8.498 287.582 287.582 0 0 1-10.345-33.781c-.95-3.941-1.935-7.9-2.956-11.876Z"/><path fill="#734800" d="M507.073 87.238a453.932 453.932 0 0 1-7.179-21.536A51.477 51.477 0 0 0 497.308 59c-3.695-8.129-8.375-15.571-14.04-22.327a21.07 21.07 0 0 0-4.276-3.8 81.339 81.339 0 0 0-19.846-9.765c-5.419-1.83-10.152-4.804-14.198-8.92a176.59 176.59 0 0 1-22.222-5.173c-4.047-1.232-7.935-.968-11.665.791-6.791 3.203-13.671 4.012-20.638 2.428a96.373 96.373 0 0 0-15.624 1.584 50.935 50.935 0 0 1-12.879.686 30.737 30.737 0 0 0-5.964.053c-2.851.317-5.542-.14-8.076-1.372a4.856 4.856 0 0 0-1.584-.159c-.703.035-1.425.018-2.164-.053a23.646 23.646 0 0 0-2.269-.21c-.176 0-.37-.018-.581-.054a12.33 12.33 0 0 1-6.492.264 36.014 36.014 0 0 0-5.12-.791 22.179 22.179 0 0 0-5.067.052 8.446 8.446 0 0 0-2.112 1.32 23.261 23.261 0 0 1-2.797 2.111 19.457 19.457 0 0 1-2.639 1.478 58.238 58.238 0 0 0-2.323 2.534 56.522 56.522 0 0 0-4.275 5.648 85.457 85.457 0 0 0-5.912 10.292 313.482 313.482 0 0 1-3.536 6.862 450 450 0 0 1-.792 1.794c-.387.88-.792 1.76-1.214 2.64-.2.399-.411.803-.633 1.214a.448.448 0 0 0 .105-.159l.211-.527a148.564 148.564 0 0 0-8.128 24.332 157.998 157.998 0 0 0-3.431 20.322c-.95 9.184-1.83 18.386-2.639 27.605-.81 9.501-1.689 19.002-2.639 28.503a357.966 357.966 0 0 0-1.637 28.133 1765.95 1765.95 0 0 0-.316 27.289c0 9.466-.176 18.949-.528 28.45-.282 8.938-1.038 17.418-2.27 25.441a131.494 131.494 0 0 0-1.319 12.246 110.588 110.588 0 0 0-.264 9.026c.03 7.797-.234 15.521-.792 23.171a49.592 49.592 0 0 0 3.8-.633 140.402 140.402 0 0 0 25.231-7.759.597.597 0 0 1 .158-.106l2.27-1.055c3.647-1.719 7.272-3.443 10.873-5.173.685-.679 1.529-1.259 2.533-1.742.493-.246.95-.581 1.373-1.003a98.985 98.985 0 0 0 10.979-14.093 50.861 50.861 0 0 0 6.914-16.363 360.02 360.02 0 0 1 1.9-7.917c-6.832-6.421-12.286-13.863-16.362-22.327a136.771 136.771 0 0 1-9.607-26.55 84.502 84.502 0 0 1-2.428-22.908 21.479 21.479 0 0 1-4.803.159c-8.727-1.584-13.354-6.95-13.882-16.099a178.157 178.157 0 0 1 .422-26.708c.342-3.592.782-7.181 1.32-10.768v.159a2.39 2.39 0 0 0 0-.317c.677-7.927 4.319-13.769 10.926-17.524 1.162-.658 2.359-1.028 3.589-1.108a147.84 147.84 0 0 1-.792-12.246v-3.22c.036-9.149 1.795-17.946 5.279-26.391.316-.774 1.055-2.094 2.217-3.959 4.715-7.39 11.172-12.72 19.371-15.993a.738.738 0 0 0 .158-.053 383.913 383.913 0 0 1 27.711-8.287 57.913 57.913 0 0 1 14.779-1.9c10.311 0 20.603-.334 30.878-1.003a74.78 74.78 0 0 1 27.183 3.114c2.393.704 4.804 1.46 7.232 2.27 6.158 1.97 11.893 4.662 17.207 8.076a15.334 15.334 0 0 1 3.695 3.378 41.157 41.157 0 0 1 6.703 12.087 6.294 6.294 0 0 0-.211-.475c.187.44.345.88.475 1.32.176.457.334.932.475 1.425.106.281.194.58.264.897a67.738 67.738 0 0 1 6.862 20.058c1.337 7.495 1.46 14.972.369 22.432a96.067 96.067 0 0 1-.528 3.431c4.658-.684 8.617 1.339 11.877 6.07a13.181 13.181 0 0 1 2.269 6.545 215.85 215.85 0 0 1-.053 29.031 130.096 130.096 0 0 1-2.164 16.046c-1.654 8.339-6.527 12.65-14.621 12.931-.903-.124-1.783-.3-2.639-.527a131.79 131.79 0 0 1-.316 3.219 86.533 86.533 0 0 1-2.534 13.935 136.745 136.745 0 0 1-5.701 16.574.183.183 0 0 1-.052.053 150.74 150.74 0 0 1-13.196 23.594 52.302 52.302 0 0 1-3.8 4.908.53.53 0 0 0 .052.053c1.816 1.507 2.696 3.495 2.64 5.965a108.911 108.911 0 0 0 4.803 15.94c.035.141.281.686.739 1.636a34.11 34.11 0 0 0 4.486 7.232c1.967 2.409 4.272 4.538 6.915 6.386a154.173 154.173 0 0 1 9.501 7.337c.213.183.389.377.528.581 9.07 5.266 18.183 9.436 27.341 12.509a64.56 64.56 0 0 1 6.123 2.375c-.443-8.757-.918-17.519-1.425-26.285-.106-1.83-.194-3.678-.264-5.543-.282-9.395-.493-18.79-.634-28.186a65.039 65.039 0 0 0-.95-9.87 402.15 402.15 0 0 1-.844-27.658c.035-4.856.211-9.712.528-14.568a956.375 956.375 0 0 0 1.53-26.497 43.22 43.22 0 0 0-.052-5.648 288.642 288.642 0 0 1-1.003-27.605c.07-9.431.281-18.879.633-28.345a31.97 31.97 0 0 0-1.9-12.034Zm-46.713 182.1c.08.115.168.221.264.317.011.023.011.04 0 .053a1.5 1.5 0 0 0-.211-.264.55.55 0 0 1-.053-.106Z"/></g><defs><clipPath id="a"><path fill="#fff" d="M0 0h800v942H0z"/></clipPath></defs></svg>