<svg xmlns="http://www.w3.org/2000/svg" width="680" height="943" fill="none"><g clip-path="url(#a)"><g clip-path="url(#b)"><path fill="#000" d="M164.25 449.9c-.266-.201-.533-.401-.8-.6a6.467 6.467 0 0 0-.45-.24 2.74 2.74 0 0 0-.5-.15 3.095 3.095 0 0 1-.5-.15h-.55c-.2 0-.38.01-.55.05l-.5.1c-.17.03-.33.08-.5.15a5.445 5.445 0 0 0-.9.55c-.13.1-.25.21-.35.35-.13.1-.25.21-.35.35-.214.28-.398.582-.55.9a26.935 26.935 0 0 0 0 8.65 2501.6 2501.6 0 0 0 4.45 26.15 1774.737 1774.737 0 0 0 8.05 42.6.263.263 0 0 1-.05.05l-.4.4c-.1.16-.22.31-.35.45-.1.16-.18.33-.25.5-.137.36-.254.727-.35 1.1 0 .2-.01.4-.05.6 0 .23-.02.46-.05.7-.26.6-.45 1.2-.55 1.8-.1.53-.16 1.08-.2 1.65a186.442 186.442 0 0 0-5.05 20c-1.47 7.4-3.2 14.75-5.2 22.05a3580.606 3580.606 0 0 1-11.55 41.15 330.09 330.09 0 0 0-9.1 41.65 251.72 251.72 0 0 0-2.9 41.95c.13 10.3-.67 20.53-2.4 30.7a3713.662 3713.662 0 0 1-7.35 41.9c-2.5 13.86-5.17 27.71-8 41.55-2.9 14-5.85 27.98-8.85 41.95-3 13.76-4.62 27.71-4.85 41.85-.1 7.26.13 14.53.7 21.8a95.217 95.217 0 0 0 5.45 25.25h8.25c-.1-.17-.2-.32-.3-.45a4.53 4.53 0 0 1-.35-.5h-.05c-1.93-7-3.4-14.12-4.4-21.35a171.547 171.547 0 0 1-.7-41.35 291.295 291.295 0 0 1 8-44.05c3.6-13.7 6.65-27.54 9.15-41.5 2.53-14.1 4.97-28.24 7.3-42.4a846.027 846.027 0 0 1 3.65-20.55c2.33-12.3 3.28-24.7 2.85-37.2a192.605 192.605 0 0 1 3.25-41.8 412.189 412.189 0 0 1 9.95-41.35c3-10.14 5.92-20.29 8.75-30.45a490.026 490.026 0 0 0 9.3-39.15 5.2 5.2 0 0 0 .15-.4v-.05c1.8 8.12 3.68 16.22 5.65 24.3a412.66 412.66 0 0 1 7.9 41.35 206.778 206.778 0 0 1 2 31.45c-.06 6.9-.73 13.76-2 20.6-.93 5.13-1.72 10.3-2.35 15.5a335.94 335.94 0 0 1-7.9 41.4 349.412 349.412 0 0 0-4.65 20.9 146.158 146.158 0 0 0-2.2 39l-.2.85a23.251 23.251 0 0 0-.45 2.5 66.397 66.397 0 0 0-.4 3.05c-.36 3.7-.85 7.4-1.45 11.1-.58 3.47-1.15 6.94-1.7 10.4v-.15l-.1.75a164.014 164.014 0 0 1-2.55 14.85 345.975 345.975 0 0 0-6.65 41.65 234.39 234.39 0 0 1-7.85 41.35 223.14 223.14 0 0 0-7.55 41.75h8.15a230.203 230.203 0 0 1 8.15-43.65c4-13.9 6.64-28 7.9-42.3.96-11.04 2.38-22 4.25-32.9 6.37 2.09 12.93 3.6 19.7 4.55 3.57.5 7.63 1.36 12.2 2.6 2.24.63 4.52 1.06 6.85 1.3a323.135 323.135 0 0 1 24.95 3.25c3.47.57 6.97 1.06 10.5 1.45 9.17.93 18.34 1.7 27.5 2.3 9.2.6 18.4 1.11 27.6 1.55 2.67.1 5.32.36 7.95.8 8.57 1.3 17.15 2.03 25.75 2.2 9.07.16 18.12.41 27.15.75 4.97.03 9.92-.19 14.85-.65 9.34-.84 18.65-1.64 27.95-2.4 9.17-.77 18.32-1.72 27.45-2.85 8.94-1.1 17.88-2.1 26.85-3 8.67-.87 17.3-2.02 25.9-3.45 3.97-.67 7.95-1.22 11.95-1.65a24.3 24.3 0 0 0 3.9-.75l.1.55a607.511 607.511 0 0 1 6.25 41.7c1.6 14.06 3.25 28.11 4.95 42.15 1.2 10.13 3.63 19.8 7.25 29h7.7a.777.777 0 0 0 .05-.1l.1-.5a3.329 3.329 0 0 0 0-1.1 2.62 2.62 0 0 0-.15-.55c-.03-.2-.1-.39-.2-.55a5.235 5.235 0 0 0-.55-.9l-.4-.4a3.796 3.796 0 0 1-.35-.4 1.582 1.582 0 0 1-.3-.4c-2.86-12.7-5-25.52-6.4-38.45-1.53-14-3.46-27.94-5.8-41.8a1858.809 1858.809 0 0 0-7.25-40.8c-2.41-13-4.18-25.95-5.3-38.85.13-.98.13-1.98 0-3l-.1-.75c-.59-4.59-1.1-9.15-1.55-13.7-.43-4.34-1.08-8.64-1.95-12.9 0 .16.02.33.05.5.03.2.05.38.05.55a609.185 609.185 0 0 0-4.65-22.95 564.837 564.837 0 0 1-7.95-42.8l-3-20.85a187.99 187.99 0 0 1-1.9-25.25c-.13-12.17.9-24.24 3.1-36.2l7.15-39.3a749.994 749.994 0 0 1 9.45-44.55c1.93 7.63 3.81 15.32 5.65 23.05a857.964 857.964 0 0 1 8.85 41.65 814.926 814.926 0 0 0 8.9 41.95 187.463 187.463 0 0 0 13.05 36.95 56.62 56.62 0 0 0-.1 10.35c.37 4.03.57 8.05.6 12.05.2 14.4.97 28.78 2.3 43.15a522.19 522.19 0 0 0 5.8 43.1c1.3 7.3 2.94 14.51 4.9 21.65A663.058 663.058 0 0 1 558 842.6c-.03-.2-.05-.39-.05-.55.37 2.23.63 4.48.8 6.75a530.078 530.078 0 0 0 4.2 38.85 228 228 0 0 1 2 45.7c-.13.4-.23.8-.3 1.2-.4 2.2-1 4.33-1.8 6.4-.76 1.93-1.4 3.9-1.9 5.9.03.2.05.4.05.6.03.2.09.4.15.6l.05.25h7.5c.86-1.79 1.6-3.64 2.2-5.55.6-1.9 1.03-3.84 1.3-5.8a26.102 26.102 0 0 0 1.25-7.4c.33-13.47-.42-26.92-2.25-40.35-2.1-15.59-3.86-31.22-5.25-46.9a227.05 227.05 0 0 0-4.8-21.85 607.774 607.774 0 0 1-13.75-63.95 346.152 346.152 0 0 1-4.05-41.15c-.58-15.24-1.25-30.47-2-45.7l.35-.35c.1-.14.19-.29.25-.45.1-.14.19-.29.25-.45.07-.17.12-.34.15-.5.07-.2.1-.4.1-.6.04-.24.05-.45.05-.65a202.954 202.954 0 0 1-13.25-37 693.331 693.331 0 0 1-9.05-41.05c-2.6-13.87-5.41-27.69-8.45-41.45a431.27 431.27 0 0 0-10.7-39.5l.35-1.15c1.4-4.87 3.1-10.65 5.1-17.35a315.626 315.626 0 0 0 8.75-38.45 2.88 2.88 0 0 0-.15-.5 1.923 1.923 0 0 0-.25-.45l-.3-.45a1.707 1.707 0 0 0-.35-.35 3.58 3.58 0 0 0-.4-.35l-.4-.3a70.888 70.888 0 0 0-.95-.4 14.338 14.338 0 0 0-1.05-.15c-.2 0-.38.01-.55.05l-.5.1c-.17.06-.33.11-.5.15l-.45.25-.45.3c-.13.1-.25.21-.35.35-.13.1-.25.21-.35.35l-.3.45a6.208 6.208 0 0 0-.5 1.45c-.03.2-.05.38-.05.55 0 .16-.01.33-.05.5-2.2 9.5-4.48 19.01-6.85 28.55a573.716 573.716 0 0 1-6.45 23.55 5.129 5.129 0 0 0-.7.95l-.2.45-.2.5c.1.34.18.67.25 1l-1.45 5.4a457.216 457.216 0 0 0-6.95 30.1l-8.2 41.7-2.8 13.85-1.35 7.05a169.217 169.217 0 0 0-3 42.6c.17 3.26.42 6.51.75 9.75a597.22 597.22 0 0 0 5.8 42.1c2.4 13.9 5.19 27.73 8.35 41.5a252.36 252.36 0 0 1 5.5 34.85c-3.46-.14-6.95-.12-10.45.05-7.43.36-14.8 1.16-22.1 2.4-5.17.86-10.28 2.03-15.35 3.5a231.57 231.57 0 0 1-42.45 7.95c-5.43.5-10.87.93-16.3 1.3a288.202 288.202 0 0 1-44.55-.35c-14.46-1.2-28.95-2.59-43.45-4.15a4505.359 4505.359 0 0 1-41.8-4.8c-11.8-1.4-23.62-2.9-35.45-4.5a361.668 361.668 0 0 0-39.9-3.15c0-4.02.01-8.05.05-12.1a144.41 144.41 0 0 1 5.5-37.95 322.697 322.697 0 0 0 9.3-44.3c.57-3.9 1.2-7.79 1.9-11.65 2.3-12.1 3.1-24.29 2.4-36.55a305.064 305.064 0 0 0-5-40.15 841.151 841.151 0 0 0-9.55-43.45 535.377 535.377 0 0 1-8.05-38.85c-1-6.07-2.11-12.14-3.35-18.2a429.213 429.213 0 0 1-5.95-39.5c-.132-.318-.265-.634-.4-.95a5.213 5.213 0 0 0-.65-.85ZM442.7 834.3h-.3a.43.43 0 0 1 .2-.04c.17 0 .2.01.1.05v-.01ZM377 799.4c8.87-.46 17.72-1.11 26.55-1.94A256.87 256.87 0 0 0 444.7 790c3.1-.84 6.22-1.57 9.35-2.2a195.626 195.626 0 0 1 36.3-3.75c-.24 3.48-.02 6.93.65 10.35 2.05 10.55 4.13 21.5 6.25 32.85-1.326-.027-2.65.09-3.95.35a198.345 198.345 0 0 1-22.95 3.25c-9.77.83-19.52 1.95-29.25 3.35a480.207 480.207 0 0 1-29.15 3.4c-9.3.8-18.58 1.7-27.85 2.7-9.4 1-18.83 1.4-28.3 1.2-9.37-.2-18.75-.45-28.15-.75-4.66-.14-9.31-.57-13.95-1.3-8.66-1.4-17.4-2.22-26.2-2.45a634.78 634.78 0 0 1-27.55-1.3 287.774 287.774 0 0 1-26.25-3.1h.05l-.65-.1c-.767-.119-1.533-.235-2.3-.35-.56-.09-1.13-.2-1.7-.35a26.96 26.96 0 0 0-5.65-.7c-6-.1-11.88-.92-17.65-2.45a126.402 126.402 0 0 0-16.9-3.25h.35c-4.98-.82-9.92-1.88-14.8-3.2-1.13-.3-2.27-.52-3.4-.65l.15-.8a726.925 726.925 0 0 0 6.05-35.4c.12-.1.22-.2.3-.3l.3-.4c.07-.17.15-.32.25-.45 0-.62-.02-1.24-.05-1.85 3-.03 5.98.05 8.95.25 7.07.43 14.1 1.13 21.1 2.1 7.27 1 14.59 1.93 21.95 2.8l-.55-.1a361.54 361.54 0 0 1 32.35 3.45 781.359 781.359 0 0 0 42.1 5.25c9.44.96 18.88 1.83 28.35 2.6a345.317 345.317 0 0 0 44.7.7Zm111.75-521.6c13.2 4.9 25.6 11.3 37.2 19.2a531.067 531.067 0 0 1 15.75 11.16c11.04 8.13 18.62 18.61 22.75 31.45 2.13 6.6 3.85 13.31 5.15 20.15a346.299 346.299 0 0 1 4.45 31.5c1.34 14.03 2.4 28.1 3.2 42.2a43.906 43.906 0 0 1 0 4.2 110.49 110.49 0 0 0-.1 14.5.557.557 0 0 1-.1.1l-.45.45c-.201.349-.401.699-.6 1.05-.07.2-.12.4-.15.6a4.6 4.6 0 0 0-.15.65c.5 3.93 1.12 7.85 1.85 11.75.8 4.3 1.63 8.59 2.5 12.85l1.75 8c3.13 14.2 5.87 28.5 8.2 42.9a624.846 624.846 0 0 1 5.35 40.85c.33 3.8.74 7.6 1.2 11.4A122.673 122.673 0 0 0 608 622.5a148.875 148.875 0 0 1 12.65 39.5 712.108 712.108 0 0 1 5.95 42.15c1.5 13.56 2.4 27.16 2.7 40.8.34 14.73.88 29.43 1.65 44.1.7 13.43.63 26.85-.2 40.25a338.29 338.29 0 0 0 0 41.1c.92 15.3.37 30.53-1.65 45.65l-.1.75a711.377 711.377 0 0 0-1.45 16.5c-.37 4.6-.72 9.21-1.05 13.85l.1.65.15.6h7.55c.8-12.27 1.87-24.24 3.2-35.9a285.873 285.873 0 0 0 1.4-45.35c-.7-13.74-.76-27.49-.2-41.25.6-15.07.55-30.14-.15-45.2-.73-14.94-1.38-29.9-1.95-44.9a579.008 579.008 0 0 0-2.9-40.2 416.265 416.265 0 0 0-6.55-41 158.755 158.755 0 0 0-12.3-36.25 110.623 110.623 0 0 1-10.6-38.15l-1.9-20.55a362.574 362.574 0 0 0-5.5-36.85c-1.83-8.97-3.68-17.92-5.55-26.85a1121.351 1121.351 0 0 1-6.2-32.15l.3-.35c.07-.17.15-.34.25-.5.3-3.07.32-6.19.05-9.35-.33-3.64-.47-7.3-.4-11 .1-6.6-.01-13.2-.35-19.8a388.905 388.905 0 0 0-3-33.2.56.56 0 0 0 0-.2v-.05c-.13-1.73-.3-3.43-.5-5.1-.73-6.17-1.6-12.32-2.6-18.45a210.585 210.585 0 0 0-6.95-29.05 45.725 45.725 0 0 0-3.2-7.7A81.563 81.563 0 0 0 540 297.6a24.853 24.853 0 0 0-3.6-3.15A201.05 201.05 0 0 0 500 273.5c-6.5-2.87-13.01-5.7-19.55-8.5a922.555 922.555 0 0 1-35.1-16.05 1.1 1.1 0 0 0-.05-.15l-.25-.45c-1-1.24-2.25-2.2-3.75-2.9-3.63-1.7-7.3-3.37-11-5a63.071 63.071 0 0 0-11.45-3.8 19 19 0 0 1-5.25-2.95 6.641 6.641 0 0 0-1.15-.75 48.511 48.511 0 0 0-5.5-5 7.819 7.819 0 0 0-.75-.5 58.895 58.895 0 0 0 5-8.45c2.9-5.94 5-12.14 6.3-18.6.33-1.7.55-3.44.65-5.2.34-6.5.4-13 .2-19.5.53-2.14.72-4.32.55-6.55.37.06.72.13 1.05.2 5.47.86 9.97-.74 13.5-4.8a20.928 20.928 0 0 0 4.95-10.2 248.145 248.145 0 0 0 3.4-31c.07-1.47.17-2.94.3-4.4.57-5.2.37-10.32-.6-15.35a4.038 4.038 0 0 0-.95-2.05c-3.1-3.84-7.25-5.39-12.45-4.65-1.53.2-2.95.56-4.25 1.1-.2-6.3-.35-12.59-.45-18.85a97.414 97.414 0 0 0-.3-6.3c-.5-6.8-1.1-13.6-1.8-20.4a62.65 62.65 0 0 0-5-19.1 30.345 30.345 0 0 0-14-15.05c-.752-.364-1.502-.73-2.25-1.1a68.342 68.342 0 0 0-19.5-5.75 45.12 45.12 0 0 0-18.85 1.3 28.605 28.605 0 0 1-7.3 1.05c-3.96.1-7.93.05-11.9-.15a106.5 106.5 0 0 0-20.85.95c-2.63.4-5.25.51-7.85.35-6.73-.44-13.45-1-20.15-1.7-6.6-.7-13.15-.49-19.65.65a87.292 87.292 0 0 0-19.15 5.7 18.622 18.622 0 0 0-7.55 5.85 52.73 52.73 0 0 0-8.9 17.15 86.646 86.646 0 0 0-3.8 19.8c-.4 5.16-.35 10.33.15 15.5.44 4.86 1.12 9.68 2.05 14.45a23.902 23.902 0 0 0-6.75-1.45c-.67-.07-1.35-.12-2.05-.15-5.23-.3-8.58 1.98-10.05 6.85a55.248 55.248 0 0 0-2.1 19.55c.44 6 .35 11.98-.25 17.95-.7 7-.35 13.91 1.05 20.75.73 3.53 2.5 6.43 5.3 8.7 5.04 4.03 10.37 4.58 16 1.65.17.5.29.98.35 1.45.17.96.4 1.91.7 2.85 0 .56.05 1.13.15 1.7.47 2.5.85 5.01 1.15 7.55.83 6.73 1.6 13.46 2.3 20.2a65.066 65.066 0 0 0 7.3 24.2c2.04 3.77 4.4 7.3 7.05 10.6a52.88 52.88 0 0 0-3.8 2.6c-.8.15-1.6.38-2.4.7a194.585 194.585 0 0 0-13.8 6.05 360.742 360.742 0 0 0-16.45 8.4c-.15.12-.28.25-.4.4a54.11 54.11 0 0 0-6.4 2.7 594.18 594.18 0 0 0-28.45 15.15 165.847 165.847 0 0 1-24.4 11.4 112.26 112.26 0 0 0-35.8 21.7A57.723 57.723 0 0 0 114.8 316a139.287 139.287 0 0 0-16.95 39.2A143.195 143.195 0 0 0 94 376.1a457.685 457.685 0 0 0-2.65 42.15c-.27 14.3-.92 28.56-1.95 42.8 0 .16.02.35.05.55l.1.5c.06.14.1.27.1.4l-3.25 17.65a565.847 565.847 0 0 0-5.9 42.3 258.204 258.204 0 0 1-7.55 41.2c-3.63 13.7-7.15 27.4-10.55 41.1-3.4 13.83-6.55 27.73-9.45 41.7a753.827 753.827 0 0 0-7.35 41.3 287.297 287.297 0 0 0-2.65 29.85c-.57 14.2-1.28 28.4-2.15 42.6a467.54 467.54 0 0 0-.55 42.7c.47 14.13.6 28.3.4 42.5-.1 5.4-.1 10.81 0 16.25.17 13.96.57 27.95 1.2 41.95.63 14.2.83 28.43.6 42.7l.1.65c.03.2.08.4.15.6l.2.55c.1.2.22.38.35.55.252.312.537.597.85.85.17.13.35.25.55.35l.55.2.6.15.65.1.65-.1.6-.15.55-.2c.2-.1.38-.22.55-.35.312-.252.597-.537.85-.85.13-.17.25-.35.35-.55l.25-.55c.23-6.04.33-12.09.3-18.15a822.346 822.346 0 0 0-1.3-42.5c-.4-6.809-.567-13.63-.5-20.45.17-14.64.02-29.29-.45-43.95-.43-14.7-.32-29.42.35-44.15.63-14.1 1.13-28.2 1.5-42.3.2-7.44.6-14.84 1.2-22.2 1.13-13.54 2.68-27 4.65-40.4a389.446 389.446 0 0 1 7.85-39.65 911.813 911.813 0 0 0 4.95-20.95 771.95 771.95 0 0 1 10.2-40.7 307.344 307.344 0 0 0 8.15-39.1 1964.097 1964.097 0 0 1 5-33.8c2.07-13.44 4.03-26.87 5.9-40.3l-.1-.6-.2-.6a2.741 2.741 0 0 0-.35-.7c.24-3.55.45-7.12.65-10.7.2-3.4.3-6.79.3-10.15.03-14.5.72-28.95 2.05-43.35 1.03-11.5 2.8-22.85 5.3-34.05 2.7-12.3 7.17-23.95 13.4-34.95a61.543 61.543 0 0 1 30.25-27.1 442.559 442.559 0 0 0 37.6-18.05 83.745 83.745 0 0 0 5.05-2.95 173.825 173.825 0 0 1 33.5-16.55l.35-.45c.09-.12.16-.24.2-.35 4.23-1.98 8.43-4 12.6-6.05 4.68-2.3 9.38-4.5 14.1-6.6l.4.1c.17 0 .34.01.5.05l.5-.1c.34-.07.67-.15 1-.25.17-.04.34-.1.5-.2a7.024 7.024 0 0 0 1.15-.95l.65-.65 1.05-.5c1.1-.5 2.17-1.05 3.2-1.65.32-.2.62-.42.9-.65 4.64 4.53 9.48 8.85 14.5 12.95a83.505 83.505 0 0 0 16.4 10.55 58.226 58.226 0 0 0 19.15 5.15c.7.06 1.4.1 2.1.1 1.8-.04 3.6-.17 5.4-.4 1.94-.24 3.87-.34 5.8-.3.34.13.69.2 1.05.2.5 0 .97-.04 1.4-.1 1.47.43 3.04.61 4.7.55 4.67.03 9.3-.45 13.9-1.45a65.74 65.74 0 0 0 19.4-7.6 119.866 119.866 0 0 0 16.1-11.35c.9-.77 1.52-1.27 1.85-1.5a92.572 92.572 0 0 0 16.75-14.05.36.36 0 0 0 .05.1c.34.4.65.83.95 1.3.3.4.65.76 1.05 1.1.138.102.289.186.45.25l.45.25c.162.064.329.114.5.15.35.116.674.304.95.55l1.15 1.1c.27.3.55.58.85.85.27.26.54.55.8.85.13.1.28.2.45.3.409.333.887.572 1.4.7l.5.1h.05c2.29 1.7 4.84 2.99 7.65 3.85 5.9 1.81 11.63 4.01 17.2 6.6l.1.25.2.45a16.594 16.594 0 0 0 6.3 4.45c2.74 1.1 5.4 2.33 8 3.7a322.632 322.632 0 0 0 38.6 17.2ZM378.2 19.3c7.7.97 15.02 3.17 21.95 6.6l-.6-.2c.27.1.53.26.8.46a29.663 29.663 0 0 1 10.95 16.6 114.697 114.697 0 0 1 3.3 19.65c.5 6.6.82 13.2.95 19.8.13 7.66.1 15.3-.1 22.9-.1.23-.16.46-.2.7-.13.23-.23.48-.3.75-.2.83-.15 1.66.15 2.5a3.875 3.875 0 0 0 3.4 2.45 3.561 3.561 0 0 0 3.6-2.15c.27-.54.5-1.07.7-1.6 3.2-2.97 6.9-3.65 11.1-2.05.1.33.17.66.2 1 .13 6 .07 11.98-.2 17.95a213.83 213.83 0 0 1-2.25 22c-.16.9-.28 1.81-.35 2.75a18.173 18.173 0 0 1-5.4 11.55 14.14 14.14 0 0 1-3.35.6c-.6.03-1.15-.09-1.65-.35-.3-.27-.6-.57-.9-.9a5.378 5.378 0 0 0-3.1-1.75c-3.73-.8-5.66.78-5.8 4.75-.1 2.36-.15 4.73-.15 7.1-.06.16-.12.35-.15.55-.53 5.6-.65 11.25-.35 16.95.1 1.9.04 3.76-.2 5.6a67.687 67.687 0 0 1-5.25 19.55 100.26 100.26 0 0 1-3.5 7.1 36.025 36.025 0 0 1-4.75 6.65 100.074 100.074 0 0 1-17.65 14.95c-3.4 2.86-6.93 5.55-10.6 8.05a71.235 71.235 0 0 1-15.35 8.1 53.48 53.48 0 0 1-23.6 3.35 3.05 3.05 0 0 0-1.15-.45 4.65 4.65 0 0 0-2.3.15 11.35 11.35 0 0 0-4.75 0c-2.33.46-4.7.63-7.1.5a48.84 48.84 0 0 1-19.4-5.15h.05c-.5-.24-.98-.5-1.45-.8a132.911 132.911 0 0 1-16.25-11.9c-5.2-4.44-9.96-9.29-14.3-14.55a74.551 74.551 0 0 1-4.5-6.15 45.47 45.47 0 0 1-7.15-18.8 590.215 590.215 0 0 1-3.45-30.85l.2-.85c.2-1.17.02-2.22-.55-3.15a1.849 1.849 0 0 1-.05-.45 5.104 5.104 0 0 0-1.3-3.25 46 46 0 0 1-.4-2.8 8.188 8.188 0 0 0-3.35-6.1 2.074 2.074 0 0 0-2.05-.3 74.711 74.711 0 0 0-8.5 3.8c-.2-.04-.4-.05-.6-.05-1.1 0-2.1-.34-3-1-3.43-2.54-5.06-6.09-4.9-10.65.23-7.317.48-14.634.75-21.95.07-1.97-.02-3.92-.25-5.85a47.895 47.895 0 0 1 2.2-21.6h.9c.67 0 1.34-.05 2-.15.5-.1 1-.19 1.5-.25 2.47.56 4.75 1.56 6.85 3a21.411 21.411 0 0 0 2.9 1.6c1.37 1.53 3.09 1.53 5.15 0 .67-.47.98-1.1.95-1.9-.16-3-.53-6-1.1-9a153.065 153.065 0 0 1-2.55-20.95 75.268 75.268 0 0 1 1.9-21.15 57.72 57.72 0 0 1 9.4-20.75 32.088 32.088 0 0 1 8.6-4.5 69.068 69.068 0 0 1 20.25-3.95c6.84-.27 13.63.13 20.4 1.2a67.268 67.268 0 0 0 20.2.05c7-1.04 14-1.2 21-.5 7.23.73 14.38.16 21.45-1.7a31.099 31.099 0 0 1 12.4-.8v-.01Zm-38.05 202.3a.456.456 0 0 1 .2-.04h-.1c-.03 0-.06.01-.1.05v-.01Zm-41.2-21.24a3.083 3.083 0 0 0-2.45 1.4c-1.47 2-1.33 3.96.4 5.9a18.371 18.371 0 0 0 4.05 3.45 69.175 69.175 0 0 0 5.7 3.2 54.176 54.176 0 0 0 17.45 5.15c3.47.43 6.95.61 10.45.55a24.322 24.322 0 0 0 5.15-.45l.1-.05a60.447 60.447 0 0 0 9.35-2.5 39.55 39.55 0 0 0 8.9-4.4c2.1-1.44 4.19-2.89 6.25-4.35.77-.57 1.44-1.22 2-1.95 1.3-1.74 1.25-3.42-.15-5.05a3.318 3.318 0 0 0-3.4-1.1 7.476 7.476 0 0 0-3.65 1.85c-3 2.56-6.31 4.65-9.95 6.25-1.96.83-3.95 1.6-5.95 2.3a29.89 29.89 0 0 1-11.25 1.55c-3.46-.2-6.91-.6-10.35-1.2a41.094 41.094 0 0 1-9.9-3.05 43.437 43.437 0 0 1-8.65-5.25c-.83-1.67-2.2-2.42-4.1-2.25Zm-55.2-85.5a21.336 21.336 0 0 0-9.25 4.55 12.702 12.702 0 0 0-4.7 10.3 9.362 9.362 0 0 0 3.4 6.7 9.651 9.651 0 0 0 4.6 2.25c3.4.63 6.85 1.11 10.35 1.45a3.908 3.908 0 0 0 3.15-.55 3.651 3.651 0 0 0 1.75-3.75 3.774 3.774 0 0 0-2.8-3.4c-.76-.14-1.51-.25-2.25-.35-1.9-.24-3.81-.37-5.75-.4a5.614 5.614 0 0 1-4.45-2.05.38.38 0 0 1-.05-.15.38.38 0 0 0-.05-.15v-.1a.803.803 0 0 1 .05-.5 7.776 7.776 0 0 1 4.9-5.15c.6-.24 1.2-.39 1.8-.45a5.503 5.503 0 0 0 3.8-2c1.17-1.47 1.2-2.97.1-4.5a4.011 4.011 0 0 0-4.6-1.75ZM422 125.66a11.87 11.87 0 0 0-12.85-3.8c-2.3.7-3.53 2.21-3.7 4.55-.03.9.25 1.68.85 2.35 1.8 1.9 3.74 2.06 5.8.5h.75a4.65 4.65 0 0 1 2 .4 5.83 5.83 0 0 1 1.35 2.05c.24.46.37.95.4 1.45-.1.23-.23.41-.4.55-.56.53-1.15 1.03-1.75 1.5a8.068 8.068 0 0 1-7.45 1.7c-1-.27-1.96-.15-2.9.35-2.13 1.16-2.77 2.9-1.9 5.2.17.43.45.78.85 1.05a10.2 10.2 0 0 0 6.25 1.8c1.13 0 2.24-.19 3.3-.55a23.924 23.924 0 0 0 9.6-5.9c.7-.7 1.22-1.52 1.55-2.45.34-.96.56-1.91.65-2.85.3-2.77-.5-5.4-2.4-7.9Zm-89 20.55a3.317 3.317 0 0 0-2.15-2.3c-2.5-.87-4.28-.1-5.35 2.3a20.936 20.936 0 0 0-5.85 9.4 13.455 13.455 0 0 0 .85 10.1 8.569 8.569 0 0 0 5.65 4.8c3.37.96 6.8 1.45 10.3 1.45 1.67.16 3.34.18 5 .05 1.57-.1 2.88-.7 3.95-1.8.84-.87 1.14-1.9.9-3.1-.5-2.37-1.97-3.49-4.4-3.35l-1.4.1a61.987 61.987 0 0 1-10.55-.4h.15c-.37-.07-.73-.15-1.1-.25-.33-.1-.63-.24-.9-.4-1.47-2.57-1.35-5.12.35-7.65 1-1.5 2.12-2.92 3.35-4.25a4.747 4.747 0 0 0 1.2-4.7Zm15.75-58.9a24.314 24.314 0 0 1 9.4-3.85c3.6-.7 7.22-.67 10.85.1 3.57.73 6.88 1.81 9.95 3.25l.5.2.2.1a.389.389 0 0 1-.15-.05l-.05-.05h-.1l.45.2-.1-.1c.13.1.22.15.25.15a160.71 160.71 0 0 1 8.9 4.6c2.37 1.33 4.74 2.61 7.1 3.85.54.13 1.09.13 1.65 0 2.37-.54 3.45-2.02 3.25-4.45-.03-.7-.31-1.3-.85-1.8a22.547 22.547 0 0 0-4.3-3.2 171.928 171.928 0 0 0-9.55-4.9 88.313 88.313 0 0 0-9.4-3.85 46.94 46.94 0 0 0-10.25-2.25c-1.56-.2-3.15-.27-4.75-.2-5.1.23-9.92 1.53-14.45 3.9-.56.3-1.12.56-1.65.8a5.395 5.395 0 0 0-3.25 3.9 3.26 3.26 0 0 0 1 3.25c1.67 1.56 3.45 1.7 5.35.4Zm16.2 24.4c.27.53.65.95 1.15 1.25.55.78 1.34 1.36 2.25 1.65.13 0 .25.01.35.05h.35c.13.03.27.05.4.05a8.682 8.682 0 0 0 7.15-3.4c.67-.84.97-1.79.9-2.85-.17-3.57-1.96-5.59-5.4-6.05a9.53 9.53 0 0 0-5.35.85 5.623 5.623 0 0 0-3 3.25c-.76 2.03-.4 3.68 1.1 4.95l.1.25Zm-73.5 2.4c2.3 0 4.45-.57 6.45-1.7 2.54-1.47 3.44-3.6 2.7-6.4a2.866 2.866 0 0 0-.75-1.25c-2.7-2.64-5.92-3.34-9.65-2.1a7.67 7.67 0 0 0-5.15 5.15c-.27.8-.23 1.58.1 2.35 1.07 2.76 3.17 4.08 6.3 3.95Zm12.35-38.2a53.203 53.203 0 0 0-10.3-.2c-1.3.1-2.58.33-3.85.7-2.7.73-5.35 1.58-7.95 2.55a36.415 36.415 0 0 0-9.15 5c-.53.4-1.08.8-1.65 1.2a38.79 38.79 0 0 0-6.8 6l-.55.6-.85 1a8.154 8.154 0 0 0-1.9 4.35 4.169 4.169 0 0 0 3.25 4.65 3.968 3.968 0 0 0 3.05-.75c1-.74 1.55-1.7 1.65-2.9a14.914 14.914 0 0 1 3.9-4.15c.53-.4 1.05-.84 1.55-1.3a31.835 31.835 0 0 1 8.25-5.25c1.24-.54 2.45-1.09 3.65-1.65 3.14-1.4 6.4-2.15 9.8-2.25 2.67-.07 5.32.13 7.95.6 3.53.63 6.95 1.66 10.25 3.1 1.23.53 2.5.83 3.8.9.8.06 1.5-.17 2.1-.7 2.04-1.8 2.22-3.8.55-6-.23-.17-.47-.3-.7-.4-2-.94-4.05-1.82-6.15-2.65a40.631 40.631 0 0 0-9.9-2.45Zm240.55 374.25c-.2 0-.4.01-.6.05l-.6.2c-.2.06-.4.15-.6.25-.26.2-.53.41-.8.65-.23.26-.43.53-.6.8-.16.3-.31.61-.45.95a9.495 9.495 0 0 0-.1 1.4 3.946 3.946 0 0 0 1.55 2.9c1.9.6 3.67 1.46 5.3 2.6a40.95 40.95 0 0 1 11.15 11.7 93.872 93.872 0 0 1 7.75 14.85l.4.3c.13.13.27.25.4.35.437.187.888.337 1.35.45l.7.1c.33-.07.68-.15 1.05-.25.3-.07.6-.19.9-.35.3-.2.59-.4.85-.6.13-.14.24-.27.3-.4.2-.27.37-.57.5-.9.13-.34.25-.67.35-1-.1-1.02-.28-2.02-.55-3-.23-1-.55-1.98-.95-2.95a65.486 65.486 0 0 0-11.2-18.25 29.674 29.674 0 0 0-16.1-9.85ZM421.8 625.56a4.257 4.257 0 0 0 0 2.05 4.089 4.089 0 0 0 1.9 2.45l.45.2c.162.064.329.114.5.15.17.06.32.1.45.1.37 0 .72-.02 1.05-.05.34-.04.67-.1 1-.2 3.14-2.47 6.17-5.1 9.1-7.9a163.134 163.134 0 0 1 28.65-21.7c1.75-1.04 2.77-2.2 3.05-3.5.3-1.27-.13-2.67-1.3-4.2-.6-.77-1.35-1-2.25-.7a51.41 51.41 0 0 0-14.35 7.8 301.303 301.303 0 0 0-27.75 24.35c-.23.33-.4.71-.5 1.15Zm17.8-37.9c-4 2.6-7.68 5.46-11.05 8.6-.06.13-.12.26-.15.4l-.1.55c-.03.16-.05.33-.05.5v.55c.035.171.085.338.15.5.071.355.207.693.4 1 .138.28.324.534.55.75l.75.55c.266.166.552.3.85.4.3.1.6.18.9.25.33.065.669.065 1 0l.5-.1c1.03-.5 2.05-1.07 3.05-1.7 3.116-2.034 6.2-4.117 9.25-6.25l2.4-1.65c4.07-2.87 7.8-6.1 11.2-9.7.3-.5.49-1.05.55-1.65a3.764 3.764 0 0 0-.8-2.9 1.707 1.707 0 0 0-.35-.35 3.237 3.237 0 0 0-.3-.35 4.021 4.021 0 0 0-1.2-.6 3.14 3.14 0 0 0-1.75-.2c-.6.06-1.15.25-1.65.55l-3.5 3a103.227 103.227 0 0 1-10.65 7.85Zm-228.15-15.4.1.55c.03.16.1.33.2.5l.2.45c.07.13.15.26.25.4a15.195 15.195 0 0 0 4.7 2.8c5.27 2 10.13 4.73 14.6 8.2a167.366 167.366 0 0 1 13.2 11.25c.1.1.22.18.35.25l.4.2.4.2c.284.064.567.131.85.2h1l.5-.1.5-.2.45-.2c.305-.187.589-.405.85-.65.383-.407.688-.882.9-1.4.13-.4.22-.8.25-1.2a3.872 3.872 0 0 0-.6-2.4 75.08 75.08 0 0 0-4.05-3.95 148.216 148.216 0 0 0-15.05-12 50.296 50.296 0 0 0-16.25-7.45c-.4.06-.8.16-1.2.3-.4.16-.75.38-1.05.65-.33.26-.61.56-.85.9-.26.36-.45.75-.55 1.15l-.1.5a2.809 2.809 0 0 0 0 1.05Zm12.05-20.65a3.718 3.718 0 0 0-1.45 1.75c-.1.33-.17.68-.2 1.05-.03.33-.05.68-.05 1.05.1.33.22.66.35 1 .1.3.25.6.45.9a49.324 49.324 0 0 0 3.8 3.05c4.4 3.06 8.63 6.35 12.7 9.85a95.814 95.814 0 0 1 11.65 11.9c.13.06.27.11.4.15.13.06.27.11.4.15.2.06.38.1.55.1.17.03.35.05.55.05h.5c.17-.04.34-.09.5-.15a3.488 3.488 0 0 0 1.7-.95c.57-.5.95-1.1 1.15-1.8.2-.77.19-1.54-.05-2.3-.7-1.4-1.56-2.72-2.6-3.95a70.201 70.201 0 0 0-12.1-11.65 341.503 341.503 0 0 0-14.8-10.75 3.968 3.968 0 0 0-1.4-.15c-.73.06-1.42.3-2.05.7Zm130.3-60.9a3.729 3.729 0 0 0-1.4 1.75c-.1.16-.16.33-.2.5l-.1.55a2.544 2.544 0 0 0 0 1.05l.1.5c.04.16.09.31.15.45 1 1.53 2.3 2.83 3.9 3.9a276.519 276.519 0 0 0 29.35 17c2.5 1.26 5 2.55 7.5 3.85a107.29 107.29 0 0 0 31.85 10.7c8.1-.1 16.05-1.27 23.85-3.5 4.87-1.4 9.78-2.6 14.75-3.6 8.9-1.74 15.85-6.12 20.85-13.15v-.45c0-.2-.01-.39-.05-.55 0-.17-.02-.34-.05-.5l-.2-.5a1.923 1.923 0 0 0-.25-.45 1.923 1.923 0 0 0-.25-.45c-.1-.14-.22-.27-.35-.4a3.865 3.865 0 0 0-1.8-1 3.922 3.922 0 0 0-1.65-.15c-.56.06-1.08.26-1.55.6a26.947 26.947 0 0 1-11.8 7.15 326.876 326.876 0 0 1-35.15 8.45c-3.37.6-6.7.48-10-.35a140.141 140.141 0 0 1-23.95-8.7 158.803 158.803 0 0 1-11.6-5.95c-9.7-5.44-19.2-11.2-28.5-17.3a7.87 7.87 0 0 0-.45-.1 4.158 4.158 0 0 0-3 .65Zm-217.05-38.75-.4-.85a5.213 5.213 0 0 0-.65-.85c-.1-.1-.23-.2-.4-.3-.27-.2-.57-.35-.9-.45-.33-.17-.7-.3-1.1-.4a7.471 7.471 0 0 0-4.2 1.5 46.526 46.526 0 0 0-10.8 10.9 40.731 40.731 0 0 0-6.9 16c.07.16.12.35.15.55.28.612.615 1.197 1 1.75.37.37.812.659 1.3.85l.5.2.5.1h1.25c.23-.07.45-.15.65-.25.23-.07.45-.17.65-.3.17-.07.32-.15.45-.25a4.186 4.186 0 0 0 1.35-2.1c1.4-4.7 3.57-8.99 6.5-12.85 3-3.94 6.53-7.25 10.6-9.95.07-.17.13-.32.2-.45.1-.3.18-.6.25-.9a9.627 9.627 0 0 0 0-1.95ZM92.6 671.3l-.3.4c-.13.13-.23.28-.3.45-.1.13-.18.28-.25.45-.07.16-.12.33-.15.5-.07.16-.12.33-.15.5 0 1.23.23 2.41.7 3.55a16.302 16.302 0 0 0 6.25 7.4c2.73 1.8 5.7 2.88 8.9 3.25.93 0 1.87-.05 2.8-.15 1.6-.14 3.1-.55 4.5-1.25a8.772 8.772 0 0 0 3.15-2.65 3.61 3.61 0 0 0 .4-.95l.1-.5a2.58 2.58 0 0 0 0-1.05c0-.17-.03-.34-.1-.5a2.906 2.906 0 0 0-.15-.5 5.191 5.191 0 0 0-.9-1.3 3.699 3.699 0 0 1-.4-.35c-.13-.1-.28-.19-.45-.25-.13-.1-.28-.19-.45-.25a2.74 2.74 0 0 0-.5-.15c-.17-.07-.33-.1-.5-.1a2.48 2.48 0 0 0-.5-.05h-.55a2.716 2.716 0 0 0-.5.15c-.33.1-.65.23-.95.4-.43.26-.87.51-1.3.75-.4.2-.8.38-1.2.55-.385.04-.768.09-1.15.15h-.7c-.2 0-.42-.02-.65-.05-.2 0-.38-.04-.55-.1a9.172 9.172 0 0 1-1.75-.75c-.77-.44-1.52-.89-2.25-1.35-.73-.47-1.42-1-2.05-1.6-.33-.5-.63-1.05-.9-1.65l-.7-1.75c-.2-.47-.5-.9-.9-1.3l-.4-.3-.4-.3a5.681 5.681 0 0 0-.45-.2l-.5-.2a3.295 3.295 0 0 0-2.05 0c-.318.132-.634.265-.95.4-.305.187-.59.405-.85.65Zm492.5-20.35c-1.7 2.43-3.38 4.9-5.05 7.4a15.73 15.73 0 0 1-4.45 4.45c-.63.13-1.25.2-1.85.2a60.292 60.292 0 0 1-4.25-.25 25.44 25.44 0 0 1-4.2-.85 5.331 5.331 0 0 0-.45-.5 5.182 5.182 0 0 0-.4-.45l-.5-.4a9.13 9.13 0 0 0-1.1-.45l-.6-.1a4.435 4.435 0 0 0-.65-.05c-.4.1-.8.21-1.2.35-.37.13-.7.31-1 .55-.26.2-.51.41-.75.65l-.3.45c-.16.305-.293.623-.4.95l-.1.65c-.03.2-.05.4-.05.6.1.83.4 1.6.9 2.3a8.317 8.317 0 0 0 5.05 3.35c1.87.46 3.77.78 5.7.95.93.1 1.87.16 2.8.2 5.43.36 9.8-1.67 13.1-6.1 2.7-3.67 5.1-7.45 7.2-11.35v-1.05l-.1-.5c-.132-.318-.265-.634-.4-.95-.1-.17-.2-.32-.3-.45a1.707 1.707 0 0 0-.35-.35 3.58 3.58 0 0 0-.4-.35l-.4-.3-.55-.3a5.698 5.698 0 0 0-1.25-.2 2.084 2.084 0 0 0-.65 0l-.6.1-.55.15c-.76.4-1.4.95-1.9 1.65Zm-348.15-349.4a4.527 4.527 0 0 0-1.15 1.3c-.17.3-.31.61-.45.95l-.1.55a2.544 2.544 0 0 0 0 1.05l.1.5c.03.13.09.26.15.4a5.188 5.188 0 0 0 1 1.45l.7.55c.14.06.29.15.45.25.162.064.329.114.5.15l.5.1c.37 0 .73-.02 1.1-.05 2.475-.344 4.942-.744 7.4-1.2-.16 0-.33.01-.5.05a47.11 47.11 0 0 1 9.15-.25c10.2.73 20.09 2.58 29.65 5.55 9.8 3 19.15 7.05 28.05 12.15.317.131.634.264.95.4l.55.1c.17 0 .33.01.5.05.13-.04.29-.05.45-.05a8.86 8.86 0 0 1 .9-.2l.4-.2.4-.2.4-.3c.1-.07.2-.17.3-.3.13-.1.25-.22.35-.35 1.44-2.8.75-4.99-2.05-6.55a194.093 194.093 0 0 0-21.45-10.2 86.32 86.32 0 0 0-23.05-5.8l.25.05-4.8-.75a111.674 111.674 0 0 0-15.3-1.25 57.003 57.003 0 0 0-15 1.8l-.35.25Zm117.65 22.7.1.5c.17.56.44 1.06.8 1.5.37.43.83.78 1.4 1.05.5.26 1.05.41 1.65.45.37-.07.67-.2.9-.4 6.7-4.97 13.87-9.19 21.5-12.65a59.414 59.414 0 0 1 16.65-4.75 167.418 167.418 0 0 1 35.85-.85l.5-.1.5-.2.45-.2c.14-.1.27-.19.4-.25l.3-.3c.2-.2.38-.42.55-.65.17-.27.3-.54.4-.8a3.3 3.3 0 0 0 .2-2.5 2.88 2.88 0 0 0-.15-.5l-.5-.8c-.2-.24-.4-.45-.6-.65l-.7-.6c-5.47-.87-11-1.32-16.6-1.35-10.03 0-19.88 1.15-29.55 3.45a72.652 72.652 0 0 0-31.25 16.2c-.16.06-.35.15-.55.25-.524.352-1.024.736-1.5 1.15-.06.16-.15.31-.25.45-.06.13-.15.28-.25.45-.06.16-.12.33-.15.5l-.1.55a2.544 2.544 0 0 0 0 1.05Zm123.95 28.4c-.17.06-.33.11-.5.15-.17.1-.33.18-.5.25l-.4.3a3.754 3.754 0 0 0-.75.75l-.3.4-.2.5-.2.5-.1.5v1.05l.1.5c.07.16.12.33.15.5 1.4 1.83 2.58 3.8 3.55 5.9 3.2 6.76 6.54 13.45 10 20.05a266.263 266.263 0 0 1 10.3 22.25c.6 1.53 1.13 3.08 1.6 4.65.53 1.63 1.2 3.21 2 4.75.1.13.22.25.35.35.1.13.24.25.4.35l.4.3.45.2c.17.1.34.16.5.2l.55.1a2.58 2.58 0 0 0 1.05 0l.5-.1.45-.15a3.87 3.87 0 0 0 2.15-2.05c.27-.6.4-1.22.4-1.85a152.867 152.867 0 0 0-10.65-25.55 115.206 115.206 0 0 1-4.8-10.25 113.49 113.49 0 0 0-13.35-24.1l-.4-.2a1.931 1.931 0 0 0-.4-.15 2.26 2.26 0 0 0-.9-.2 1.8 1.8 0 0 0-.45-.05c-.17.03-.33.05-.5.05l-.5.1ZM191 349.76c-.33.03-.65.08-.95.15a21.768 21.768 0 0 0-5.45 6.7c-4.9 9.4-9.61 18.88-14.15 28.45a101.995 101.995 0 0 0-9.15 31.9l.1.5c.082.351.217.688.4 1 .07.13.15.26.25.4.27.33.59.63.95.9.37.23.77.41 1.2.55l.5.1a2.58 2.58 0 0 0 1.05 0l.55-.1c.17-.04.34-.1.5-.2l.45-.2c.27-.2.53-.42.8-.65l.7-.8c.8-3.07 1.52-6.15 2.15-9.25 1.94-9.67 5.2-18.87 9.8-27.6 4.8-9.14 9.74-18.17 14.8-27.1a4.334 4.334 0 0 0-.75-3.2 3.596 3.596 0 0 0-1.2-1.15l-.5-.2c-.13-.07-.3-.12-.5-.15a2.74 2.74 0 0 0-.5-.15c-.33 0-.68.03-1.05.1Zm19.05 241.3c-.13.1-.25.2-.35.3a.974.974 0 0 0-.35.3c-.13.1-.25.2-.35.3l-.4.8c-.23.4-.36.81-.4 1.25-.136.888.06 1.796.55 2.55a30.676 30.676 0 0 0 4.05 4c4.83 4 10.1 7.33 15.8 10 5.767 2.669 11.55 5.302 17.35 7.9l.5.2.5.1c.17.03.35.03.55 0h.5l.55-.1c.13-.04.27-.09.4-.15l.4-.2c.27-.14.5-.3.7-.5.447-.416.82-.907 1.1-1.45l.2-.5.1-.55v-1.05l-.1-.5a2.052 2.052 0 0 1-.15-.4l-.2-.4-.2-.4-.3-.4-.3-.3a70.442 70.442 0 0 0-5.75-2.85c-5.53-2.5-11-5.12-16.4-7.85a51.5 51.5 0 0 1-13.8-10.1l-.4-.2c-.4-.2-.81-.32-1.25-.35a3.65 3.65 0 0 0-2.55.55Zm217.1-10.95c.34 0 .69-.02 1.05-.05 1.2-.64 2.35-1.39 3.45-2.25 5-4.07 9.92-8.24 14.75-12.5a77.17 77.17 0 0 1 16.65-11.3c.6-.54.99-1.2 1.15-2 .24-.9.15-1.79-.25-2.65a3.93 3.93 0 0 0-2.55-2.2l-.5-.1a3.302 3.302 0 0 0-1.05 0c-1.43.43-2.8 1.03-4.1 1.8a111.834 111.834 0 0 0-15.7 11.35c-5.3 4.6-10.68 9.1-16.15 13.5-.1.13-.18.28-.25.45a9.638 9.638 0 0 0-.6 2l.2 1c.1.36.22.7.35 1 .1.13.19.26.25.4.27.33.58.63.95.9.37.26.77.45 1.2.55.37.06.75.1 1.15.1ZM337.3 700h-.5c-.76.16-1.51.36-2.25.6-2.3.73-3.3 2.3-3 4.7.3 2.2 1.55 3.46 3.75 3.8.13.06.27.11.4.15.245.132.52.201.8.2.329.072.67.072 1 0l.55-.1c.17-.07.33-.12.5-.15a11.503 11.503 0 0 0 1.55-1.1c.4-.3.72-.67.95-1.1.13-.3.24-.6.3-.9.33-1.2.25-2.37-.25-3.5a4.333 4.333 0 0 0-2.25-2.3 3.095 3.095 0 0 1-.5-.15l-.5-.1a2.753 2.753 0 0 0-.55-.05Zm95.9-39.95a124.949 124.949 0 0 1 14.1-15.85c.1-.14.19-.29.25-.45.345-.614.55-1.297.6-2a6.913 6.913 0 0 0-.55-2 9.783 9.783 0 0 0-.55-.7 3.72 3.72 0 0 0-1.85-1.15c-.737-.2-1.514-.2-2.25 0a38.375 38.375 0 0 0-9.4 8.75 479.911 479.911 0 0 0-19.2 26.85c-.37.56-.6 1.16-.7 1.8a223.34 223.34 0 0 1-6.35 27.2 848.986 848.986 0 0 0-9.15 32.7 23.268 23.268 0 0 1-1.5 4.1c-2 4.06-1.35 7.16 1.95 9.3.17.06.33.1.5.1.2.03.38.05.55.05h.4a1.898 1.898 0 0 0 1.55-1.05c3.13-6 5.5-12.42 7.1-19.25a174.18 174.18 0 0 1 4.55-16.1 145.044 145.044 0 0 0 7.05-33.3c.77-1.17 1.52-2.34 2.25-3.5 3.37-5.3 6.92-10.47 10.65-15.5ZM422.25 662c.05-.09.1-.15.15-.2v-.05c0 .06-.02.1-.05.15l-.1.1ZM217.8 622.26a3.78 3.78 0 0 0-2.55.55c-.13.1-.26.18-.4.25-.1.1-.2.21-.3.35-.13.1-.25.2-.35.3a4.44 4.44 0 0 0-.75 1.65c-.1.4-.11.83-.05 1.3.07.6.25 1.15.55 1.65.8 1 1.62 1.96 2.45 2.9a603.49 603.49 0 0 1 21.75 26.2c.6.73 1.03 1.55 1.3 2.45a118.557 118.557 0 0 1 5.1 27.5c.73 11.33 1.6 22.66 2.6 34 1 11.5 2.53 22.91 4.6 34.25.1.13.19.28.25.45l.3.4.3.4c.284.215.567.432.85.65.17.06.32.15.45.25.17.03.34.08.5.15l.55.1h1l.55-.1.45-.2.5-.2.45-.3a6.624 6.624 0 0 0 1.5-2.3 19.876 19.876 0 0 0-.3-3.95 327.948 327.948 0 0 1-4.4-35.1c-.83-12.14-1.88-24.25-3.15-36.35-.3-2.9-.52-5.82-.65-8.75a29.501 29.501 0 0 0-6.4-17.75 84.968 84.968 0 0 1-3.4-4.55 169.937 169.937 0 0 0-21.65-25.65 74.536 74.536 0 0 0-.4-.2c-.4-.2-.81-.32-1.25-.35ZM338.3 411.5c-.13.1-.25.21-.35.35-.13.13-.25.28-.35.45a24.189 24.189 0 0 0-1.15 6c-.46 6.83-.68 13.66-.65 20.5 0 6.8-.18 13.6-.55 20.4v.45c0 .13.02.26.05.4 1 2.66 2.85 3.55 5.55 2.65a1.898 1.898 0 0 0 1.35-1.55 125.536 125.536 0 0 0 1.8-23.5c-.13-8 .22-15.95 1.05-23.85l-.1-.5a3.402 3.402 0 0 0-.4-1 2.578 2.578 0 0 0-.25-.4l-.3-.3c-.1-.14-.2-.24-.3-.3-.1-.1-.21-.2-.35-.3a44.992 44.992 0 0 0-.75-.4 3.298 3.298 0 0 0-.45-.15l-.5-.1a3.288 3.288 0 0 0-1.6.1c-.17.03-.33.08-.5.15l-.45.25c-.17.1-.3.2-.4.3-.16.1-.3.21-.4.35Zm117.8 79a6.093 6.093 0 0 0-3.3-2.25 3.802 3.802 0 0 0-2.95.4c-.5.33-.92.75-1.25 1.25a3.72 3.72 0 0 0-.6 2.35c0 .73.2 1.4.6 2 .435.528.902 1.029 1.4 1.5.13.13.27.28.4.45.302.171.587.372.85.6.456.276.969.447 1.5.5h1l.5-.1c.17-.04.33-.09.5-.15.17-.07.32-.15.45-.25.17-.07.32-.17.45-.3.17-.1.3-.22.4-.35.13-.1.25-.2.35-.3a4.474 4.474 0 0 0 .75-3.4c-.1-.4-.26-.8-.5-1.2-.2-.24-.38-.49-.55-.75Zm-230.2-7.75a4.097 4.097 0 0 0-.25 3.85c.34.73.8 1.4 1.4 2 .23.16.47.31.7.45.4.23.82.36 1.25.4.53.06 1.05.1 1.55.1.715.063 1.434.063 2.15 0l.9-.45c2.1-1.27 2.95-3.05 2.55-5.35-.43-2.5-1.97-3.87-4.6-4.1l-.5.1c-1 .13-1.97.43-2.9.9a5.437 5.437 0 0 0-2.25 2.1Zm87.8 17.05c-5.6 2.76-11.21 5.51-16.85 8.25a291.507 291.507 0 0 1-32.7 13.6c-12.56 4.36-24.55 3.2-35.95-3.5a366.783 366.783 0 0 1-29.15-18.95 5.537 5.537 0 0 0-.4-.85 3.237 3.237 0 0 0-.3-.35 1.522 1.522 0 0 0-.65-.65l-.4-.3a7.052 7.052 0 0 1-.45-.25 2.74 2.74 0 0 0-.5-.15 14.416 14.416 0 0 0-1.05-.15c-.2 0-.38.01-.55.05l-.5.1c-.26.1-.51.21-.75.35-.4.16-.75.4-1.05.7-.4.4-.7.86-.9 1.4a3.532 3.532 0 0 0-.3 1.65 11.347 11.347 0 0 0 5.05 6.8c7.33 4.7 14.7 9.38 22.1 14.05a90.086 90.086 0 0 0 23.65 10.5 76.221 76.221 0 0 0 36.8-7.35c7-3.3 14.05-6.44 21.15-9.4a250.944 250.944 0 0 0 30.95-15.5 5.614 5.614 0 0 0 1.05-1.9c.1-.34.17-.69.2-1.05a15.421 15.421 0 0 0-.15-1.05 2.88 2.88 0 0 0-.15-.5 3.891 3.891 0 0 0-1.45-1.7 5.536 5.536 0 0 0-.75-.45 1.752 1.752 0 0 0-.45-.15l-.5-.1a3.28 3.28 0 0 0-.55-.05c-1.3.2-2.55.63-3.75 1.3a220.806 220.806 0 0 1-10.75 5.6Zm-114.3-.15-.1-.1-.1-.15.2.25Zm325.4 449 .15-.4h-7.7l.55 1.35.5.4c.17.13.33.25.5.35.17.13.35.23.55.3.17.1.35.18.55.25.2.06.4.1.6.1.389.118.802.135 1.2.05l.5-.1c.316-.134.633-.268.95-.4l.4-.3c.13-.1.27-.22.4-.35.13-.1.25-.22.35-.35.1-.17.2-.32.3-.45l.2-.45Zm-383.55-.95v.25c0 .16.02.35.05.55l.1.5c.07.16.12.33.15.5.1.13.19.28.25.45l.3.4c.214.283.467.535.75.75l.4.3c.317.131.634.264.95.4l.5.1a3.44 3.44 0 0 0 1.1 0l.5-.1c.316-.134.633-.268.95-.4l.4-.3c.284-.214.536-.466.75-.75l.3-.4c.07-.17.15-.32.25-.45.2-.59.35-1.19.45-1.8h-8.15Zm485.5.7.25.55c.07.2.17.36.3.5.27.33.55.63.85.9.17.13.35.25.55.35l.55.2.6.15.65.1.65-.1.6-.15.55-.2c.2-.1.38-.22.55-.35a5.6 5.6 0 0 0 .85-.85c.13-.17.25-.35.35-.55l.25-.55h-7.55Zm-58.15.15.1-.25h-7.5l.3.8c.381.485.837.906 1.35 1.25.3.23.65.4 1.05.5.17.03.34.05.5.05.17.03.34.03.5 0 .37 0 .72-.02 1.05-.05l.5-.2.45-.2a5.204 5.204 0 0 0 1.2-.95c.2-.3.37-.62.5-.95Zm-451.05.15a2.636 2.636 0 0 1-.15-.55 3.535 3.535 0 0 0-.25-.5h-8.25c.59 1.6 1.22 3.18 1.9 4.75a4.296 4.296 0 0 0 3.45 1.1c.4-.14.78-.29 1.15-.45.37-.2.73-.42 1.1-.65.1-.17.22-.34.35-.5l.3-.45c.1-.17.18-.35.25-.55.03-.17.08-.34.15-.5.03-.2.05-.39.05-.55v-.6c0-.17-.02-.35-.05-.55Zm448.4-106.4.1.5-.1-.6v.1Z"/><path fill="#333" d="M403.55 797.46c-8.83.83-17.68 1.48-26.55 1.95-14.87.73-29.76.5-44.7-.7a1338.767 1338.767 0 0 1-28.35-2.6 780.602 780.602 0 0 1-42.1-5.25 362.199 362.199 0 0 0-32.35-3.45l.55.1c-7.37-.87-14.68-1.8-21.95-2.8-7-.97-14.03-1.67-21.1-2.1-2.97-.2-5.95-.28-8.95-.25.03.61.05 1.23.05 1.85-.1.13-.18.28-.25.45l-.3.4c-.08.1-.18.2-.3.3a725.372 725.372 0 0 1-6.2 36.2c1.13.13 2.26.35 3.4.65 4.88 1.31 9.82 2.38 14.8 3.2h-.35c5.53.66 11.17 1.75 16.9 3.25a73.23 73.23 0 0 0 17.65 2.45 27.01 27.01 0 0 1 5.65.7c.625.173 1.259.306 1.9.4.27.02.53.05.8.1l1.3.2.65.1h-.05l.35.05.3.05a287.73 287.73 0 0 0 25.6 3 633.346 633.346 0 0 0 27.55 1.3c8.8.23 17.54 1.05 26.2 2.45 4.63.73 9.29 1.16 13.95 1.3 9.4.3 18.79.55 28.15.75 9.47.2 18.9-.2 28.3-1.2 9.27-1 18.55-1.9 27.85-2.7 9.74-.84 19.45-1.97 29.15-3.4 9.73-1.4 19.48-2.52 29.25-3.35 7.7-.64 15.35-1.72 22.95-3.25 1.3-.26 2.61-.38 3.95-.35-2.12-11.35-4.2-22.3-6.25-32.85a39.4 39.4 0 0 1-.65-10.35 195.729 195.729 0 0 0-36.3 3.75c-3.13.63-6.25 1.36-9.35 2.2a256.718 256.718 0 0 1-41.15 7.45Zm-43.7 52.15c-9.03-.34-18.08-.59-27.15-.75-8.6-.17-17.18-.9-25.75-2.2-2.63-.44-5.28-.7-7.95-.8-9.2-.44-18.4-.95-27.6-1.55-9.16-.6-18.33-1.37-27.5-2.3-3.512-.386-7.014-.87-10.5-1.45l.35.05a324.57 324.57 0 0 0-25.3-3.3 39.401 39.401 0 0 1-6.85-1.3 101.491 101.491 0 0 0-12.2-2.6 113.047 113.047 0 0 1-19.7-4.55 399.929 399.929 0 0 0-4.25 32.9c-1.27 14.3-3.9 28.4-7.9 42.3a230.39 230.39 0 0 0-8.15 43.65l367.85.55a116.285 116.285 0 0 1-7.25-29 5845.733 5845.733 0 0 1-4.95-42.15 606.843 606.843 0 0 0-6.35-42.25c-1.27.35-2.57.6-3.9.75-4 .43-7.98.98-11.95 1.65a399.292 399.292 0 0 1-25.9 3.45c-8.96.9-17.91 1.9-26.85 3a690.008 690.008 0 0 1-27.45 2.85c-9.3.76-18.61 1.56-27.95 2.4-4.93.46-9.88.68-14.85.65Z"/><path fill="#fff" d="M400.15 25.9a68.285 68.285 0 0 0-21.95-6.6 31.099 31.099 0 0 0-12.4.8 59.729 59.729 0 0 1-21.45 1.7c-7-.7-14-.53-21 .5-6.73 1-13.47.99-20.2-.04a104.53 104.53 0 0 0-20.4-1.2A69.071 69.071 0 0 0 262.5 25a32.095 32.095 0 0 0-8.6 4.5 57.719 57.719 0 0 0-9.4 20.75 75.268 75.268 0 0 0-1.9 21.15c.37 7.03 1.22 14.01 2.55 20.95.57 3 .93 6 1.1 9 .03.8-.28 1.43-.95 1.9-2.07 1.53-3.78 1.53-5.15 0l-.2-.1c-.93-.44-1.83-.94-2.7-1.5a19.981 19.981 0 0 0-6.85-3c-.5.06-1 .15-1.5.25-.67.1-1.33.15-2 .15h-.9a47.879 47.879 0 0 0-2.2 21.6c.234 1.941.317 3.896.25 5.85l-.1 3c-.23 6.33-.45 12.65-.65 18.95-.17 4.56 1.47 8.11 4.9 10.65.9.66 1.9 1 3 1 .2 0 .4.01.6.05a74.79 74.79 0 0 1 8.5-3.8 2.07 2.07 0 0 1 2.05.3 8.188 8.188 0 0 1 3.35 6.1c.1.93.23 1.86.4 2.8a5.11 5.11 0 0 1 1.3 3.25c0 .16.02.31.05.45.57.93.75 1.98.55 3.15l-.2.85a591.173 591.173 0 0 0 3.45 30.85 45.465 45.465 0 0 0 7.15 18.8c1.4 2.13 2.9 4.18 4.5 6.15 4.33 5.26 9.1 10.11 14.3 14.55 5.1 4.36 10.52 8.33 16.25 11.9.47.3.95.56 1.45.8h-.05a48.84 48.84 0 0 0 19.4 5.15c2.4.13 4.77-.04 7.1-.5 1.7-.34 3.28-.34 4.75 0 .63-.24 1.4-.29 2.3-.15.4.06.78.21 1.15.45 8.07.66 15.93-.45 23.6-3.35a71.188 71.188 0 0 0 15.35-8.1c3.67-2.5 7.2-5.19 10.6-8.05a100.117 100.117 0 0 0 17.65-14.95 36.092 36.092 0 0 0 4.75-6.65c1.27-2.34 2.43-4.7 3.5-7.1a67.75 67.75 0 0 0 5.25-19.55c.23-1.84.3-3.7.2-5.6-.3-5.7-.18-11.35.35-16.95.03-.2.08-.39.15-.55 0-2.37.05-4.74.15-7.1.13-3.97 2.07-5.55 5.8-4.75 1.23.23 2.27.81 3.1 1.75.3.33.6.63.9.9.5.26 1.05.38 1.65.35a14.18 14.18 0 0 0 3.35-.6 18.183 18.183 0 0 0 5.4-11.55c.07-.94.18-1.85.35-2.75.64-4.07 1.15-8.15 1.55-12.25.3-3.24.54-6.5.7-9.75.27-5.97.33-11.95.2-17.95-.03-.34-.1-.67-.2-1-4.2-1.6-7.9-.92-11.1 2.05-.2.53-.43 1.06-.7 1.6a3.557 3.557 0 0 1-3.6 2.15 3.872 3.872 0 0 1-3.4-2.45 4.276 4.276 0 0 1-.15-2.5c.07-.27.17-.52.3-.75.03-.24.1-.47.2-.7.2-7.6.23-15.24.1-22.9-.13-6.6-.45-13.2-.95-19.8a114.697 114.697 0 0 0-3.3-19.65 29.67 29.67 0 0 0-10.95-16.6c-.27-.2-.53-.35-.8-.45l.6.2ZM293.5 75.7c3.432-.267 6.881-.2 10.3.2 3.4.4 6.7 1.22 9.9 2.46 2.1.83 4.15 1.71 6.15 2.65.23.1.47.23.7.4 1.67 2.2 1.48 4.2-.55 6-.6.53-1.3.76-2.1.7-1.3-.07-2.57-.37-3.8-.9a46.032 46.032 0 0 0-10.25-3.1 39.74 39.74 0 0 0-7.95-.6c-3.4.1-6.67.85-9.8 2.25-1.2.56-2.42 1.11-3.65 1.65a31.833 31.833 0 0 0-8.25 5.25c-.5.46-1.02.9-1.55 1.3a14.904 14.904 0 0 0-3.9 4.15 3.847 3.847 0 0 1-1.65 2.9c-.9.66-1.92.91-3.05.75a4.17 4.17 0 0 1-3.25-4.65c.2-1.64.83-3.09 1.9-4.35l.85-1 .55-.6a38.766 38.766 0 0 1 6.8-6c.57-.4 1.12-.8 1.65-1.2 2.8-2.1 5.85-3.77 9.15-5 2.61-.97 5.263-1.82 7.95-2.55 1.27-.37 2.55-.6 3.85-.7v-.01Zm4.4 36.7c-2 1.14-4.15 1.7-6.45 1.7-3.13.14-5.23-1.18-6.3-3.94a3.179 3.179 0 0 1-.1-2.35 7.666 7.666 0 0 1 5.15-5.15c3.73-1.24 6.95-.54 9.65 2.1.37.36.62.78.75 1.25.73 2.8-.17 4.93-2.7 6.4v-.01Zm68.2.56a2.983 2.983 0 0 1-1.25-1.5c-1.5-1.27-1.87-2.92-1.1-4.95a5.623 5.623 0 0 1 3-3.25 9.54 9.54 0 0 1 5.35-.85c3.43.46 5.23 2.48 5.4 6.05a4.014 4.014 0 0 1-.9 2.85 8.679 8.679 0 0 1-7.15 3.4c-.13 0-.27-.02-.4-.05h-.35a1.094 1.094 0 0 0-.35-.05 4.348 4.348 0 0 1-2.25-1.65Zm-7.95-29.5a24.305 24.305 0 0 0-9.4 3.85c-1.9 1.3-3.68 1.16-5.35-.4a3.253 3.253 0 0 1-.957-1.484 3.25 3.25 0 0 1-.043-1.766 5.39 5.39 0 0 1 3.25-3.9c.53-.24 1.08-.5 1.65-.8a34.241 34.241 0 0 1 14.45-3.9c1.6-.07 3.18 0 4.75.2 3.5.36 6.92 1.11 10.25 2.25 3.2 1.1 6.33 2.38 9.4 3.85a172.202 172.202 0 0 1 9.55 4.9c1.57.9 3 1.96 4.3 3.2.53.5.82 1.1.85 1.8.2 2.43-.88 3.91-3.25 4.45-.57.13-1.12.13-1.65 0a245.853 245.853 0 0 1-7.1-3.85 160.766 160.766 0 0 0-8.9-4.6c-.03 0-.12-.05-.25-.15l.1.1a5.76 5.76 0 0 1-.45-.2h.1l-.5-.2a44.638 44.638 0 0 0-9.95-3.25c-3.63-.77-7.25-.8-10.85-.1Zm-27.3 60.45c1.1.4 1.82 1.16 2.15 2.3a4.74 4.74 0 0 1-1.2 4.7 34.152 34.152 0 0 0-3.35 4.25c-1.7 2.53-1.82 5.08-.35 7.65.27.16.57.3.9.4.37.1.73.18 1.1.25h-.15c3.964.485 7.966.585 11.95.3 2.43-.14 3.9.98 4.4 3.35a3.328 3.328 0 0 1-.9 3.1 5.83 5.83 0 0 1-3.95 1.8c-1.67.13-3.33.11-5-.05-3.5 0-6.93-.49-10.3-1.45a8.569 8.569 0 0 1-5.65-4.8 13.455 13.455 0 0 1-.85-10.1 20.922 20.922 0 0 1 5.85-9.4c1.07-2.4 2.85-3.17 5.35-2.3Zm88.3-20.8c1.1.66 2.05 1.51 2.85 2.55 1.9 2.5 2.7 5.13 2.4 7.9-.1.94-.3 1.89-.65 2.85a6.534 6.534 0 0 1-1.55 2.45 23.917 23.917 0 0 1-9.6 5.9 10.124 10.124 0 0 1-3.3.55 10.2 10.2 0 0 1-6.25-1.8c-.4-.27-.68-.62-.85-1.05-.87-2.3-.23-4.04 1.9-5.2.93-.5 1.9-.62 2.9-.35 2.7.7 5.18.13 7.45-1.7.6-.47 1.18-.97 1.75-1.5.17-.14.3-.32.4-.55-.03-.5-.17-.99-.4-1.45-.3-.771-.76-1.47-1.35-2.05a4.666 4.666 0 0 0-2-.4h-.75c-2.07 1.56-4 1.4-5.8-.5a3.2 3.2 0 0 1-.85-2.35c.17-2.34 1.4-3.85 3.7-4.55a11.87 11.87 0 0 1 10 1.25Zm-184.65-3.7a21.325 21.325 0 0 1 9.25-4.55 4.01 4.01 0 0 1 4.6 1.75c1.1 1.53 1.07 3.03-.1 4.5a5.508 5.508 0 0 1-3.8 2c-.6.06-1.2.21-1.8.45a7.774 7.774 0 0 0-4.9 5.15.796.796 0 0 0-.05.5v.1c.03.06.05.11.05.15l.05.15a5.602 5.602 0 0 0 4.45 2.05c1.93.03 3.85.16 5.75.4.73.1 1.48.21 2.25.35a3.77 3.77 0 0 1 2.8 3.4c.2 1.6-.38 2.85-1.75 3.75a3.902 3.902 0 0 1-3.15.55c-3.5-.34-6.95-.82-10.35-1.45a9.642 9.642 0 0 1-4.6-2.25 9.375 9.375 0 0 1-3.4-6.7 12.708 12.708 0 0 1 4.7-10.3Zm62 82.35a3.089 3.089 0 0 1 2.45-1.4c1.9-.17 3.27.58 4.1 2.25 2.7 2.1 5.58 3.85 8.65 5.25a41.094 41.094 0 0 0 9.9 3.05c3.43.6 6.88 1 10.35 1.2 3.87.2 7.62-.32 11.25-1.55 2-.7 3.98-1.47 5.95-2.3a40.07 40.07 0 0 0 9.95-6.25 7.476 7.476 0 0 1 3.65-1.85c1.33-.3 2.47.06 3.4 1.1 1.4 1.63 1.45 3.31.15 5.05-.57.73-1.23 1.38-2 1.95a441 441 0 0 1-6.25 4.35 39.529 39.529 0 0 1-8.9 4.4 60.447 60.447 0 0 1-9.35 2.5.225.225 0 0 1-.1.05c-1.7.33-3.42.48-5.15.45a73.144 73.144 0 0 1-10.45-.55 54.126 54.126 0 0 1-17.45-5.15 69.047 69.047 0 0 1-5.7-3.2 18.394 18.394 0 0 1-4.05-3.45c-1.73-1.94-1.87-3.9-.4-5.9Zm43.85 19.8a.449.449 0 0 0-.2.05c.03-.04.07-.05.1-.05h.1ZM525.95 297c-11.6-7.9-24-14.3-37.2-19.2a322.632 322.632 0 0 1-38.6-17.2 86.83 86.83 0 0 0-8-3.7c-2.47-1-4.57-2.49-6.3-4.45a6.222 6.222 0 0 1-.2-.45l-.1-.25a136.833 136.833 0 0 0-17.2-6.6 24.713 24.713 0 0 1-7.65-3.85h-.05l-.5-.1a2.966 2.966 0 0 1-1-.4 1.57 1.57 0 0 1-.4-.3c-.17-.1-.32-.2-.45-.3-.27-.3-.53-.59-.8-.85-.3-.27-.58-.55-.85-.85l-1.15-1.1a2.72 2.72 0 0 0-.95-.55 2.997 2.997 0 0 1-.5-.15 7.052 7.052 0 0 1-.45-.25 1.944 1.944 0 0 1-.45-.25c-.4-.34-.75-.7-1.05-1.1-.3-.47-.62-.9-.95-1.3a.347.347 0 0 1-.05-.1l-.4.45a92.578 92.578 0 0 1-16.35 13.6c-.33.23-.95.73-1.85 1.5a119.893 119.893 0 0 1-16.1 11.35 65.74 65.74 0 0 1-19.4 7.6c-4.6 1-9.23 1.48-13.9 1.45-1.67.06-3.23-.12-4.7-.55-.43.06-.9.1-1.4.1a2.816 2.816 0 0 1-1.05-.2c-1.93-.04-3.87.06-5.8.3-1.8.23-3.6.36-5.4.4-.7 0-1.4-.04-2.1-.1a58.226 58.226 0 0 1-19.15-5.15 83.505 83.505 0 0 1-16.4-10.55c-5.02-4.1-9.86-8.42-14.5-12.95-.28.23-.58.45-.9.65-1.03.6-2.1 1.15-3.2 1.65l-1.05.5-.65.65c-.23.23-.48.45-.75.65-.13.13-.27.23-.4.3-.17.1-.33.16-.5.2-.491.151-.993.268-1.5.35a2.472 2.472 0 0 0-.5-.05 4.973 4.973 0 0 1-.4-.1c-4.72 2.1-9.42 4.3-14.1 6.6a674.096 674.096 0 0 1-12.6 6.05c-.05.11-.11.23-.2.35l-.35.45a173.767 173.767 0 0 0-33.5 16.55 83.745 83.745 0 0 1-5.05 2.95 442.863 442.863 0 0 1-37.6 18.05 61.547 61.547 0 0 0-30.25 27.1c-6.23 11-10.7 22.65-13.4 34.95a264.91 264.91 0 0 0-5.3 34.05 481.85 481.85 0 0 0-2.05 43.35c0 3.36-.1 6.75-.3 10.15-.2 3.58-.41 7.15-.65 10.7.154.213.272.449.35.7l.2.6.1.6a2799.954 2799.954 0 0 1-5.9 40.3 1964.097 1964.097 0 0 0-5 33.8 307.344 307.344 0 0 1-8.15 39.1 771.95 771.95 0 0 0-10.2 40.7c-1.57 7-3.22 13.98-4.95 20.95A389.472 389.472 0 0 0 56 673.46a653.855 653.855 0 0 0-4.65 40.4c-.6 7.36-1 14.76-1.2 22.2-.37 14.1-.87 28.2-1.5 42.3a591.058 591.058 0 0 0-.35 44.15c.47 14.66.62 29.31.45 43.95-.07 6.8.1 13.61.5 20.45a822.234 822.234 0 0 1 1.3 42.5c.03 6.06-.07 12.11-.3 18.15l58.65.1a95.256 95.256 0 0 1-5.45-25.25c-.57-7.27-.8-14.54-.7-21.8a212.468 212.468 0 0 1 4.85-41.85c3-13.97 5.95-27.95 8.85-41.95 2.83-13.84 5.5-27.69 8-41.55a3669.165 3669.165 0 0 0 7.35-41.9 169.315 169.315 0 0 0 2.4-30.7c-.2-14.1.77-28.09 2.9-41.95a330.266 330.266 0 0 1 9.1-41.65c3.93-13.7 7.78-27.42 11.55-41.15 2-7.3 3.73-14.65 5.2-22.05 1.33-6.84 3.02-13.5 5.05-20 .03-.57.1-1.12.2-1.65.1-.6.28-1.2.55-1.8.033-.232.05-.466.05-.7.03-.2.05-.4.05-.6a9.83 9.83 0 0 1 .35-1.1c.07-.17.15-.34.25-.5.13-.14.25-.29.35-.45l.4-.4a.237.237 0 0 0 .05-.05c-.04-.27-.1-.54-.15-.8-2.8-13.9-5.43-27.84-7.9-41.8-1.53-8.7-3.02-17.42-4.45-26.15-.47-2.9-.47-5.79 0-8.65l.25-.45c.1-.17.2-.32.3-.45.1-.14.22-.25.35-.35.1-.14.22-.25.35-.35.28-.214.582-.398.9-.55.17-.07.33-.12.5-.15l.5-.1c.17-.04.35-.05.55-.05h.55c.17.06.33.11.5.15.17.03.33.08.5.15.13.06.28.15.45.25l.4.3.4.3c.372.368.662.811.85 1.3l.2.5a429.555 429.555 0 0 0 5.95 39.5 498.782 498.782 0 0 1 3.35 18.2 534.844 534.844 0 0 0 8.05 38.85 841.151 841.151 0 0 1 9.55 43.45 305.233 305.233 0 0 1 5 40.15c.7 12.26-.1 24.45-2.4 36.55-.7 3.86-1.33 7.75-1.9 11.65-2.07 15-5.17 29.76-9.3 44.3a144.327 144.327 0 0 0-5.5 37.95c-.04 4.05-.05 8.08-.05 12.1 13.35.3 26.65 1.36 39.9 3.15 11.83 1.6 23.65 3.1 35.45 4.5a4509.287 4509.287 0 0 0 41.8 4.8c14.5 1.56 28.98 2.95 43.45 4.15a288.203 288.203 0 0 0 44.55.35c5.43-.37 10.87-.8 16.3-1.3a231.554 231.554 0 0 0 42.45-7.95 135.97 135.97 0 0 1 15.35-3.5c7.3-1.24 14.67-2.04 22.1-2.4 3.5-.17 6.99-.19 10.45-.05a252.512 252.512 0 0 0-5.5-34.85 767.729 767.729 0 0 1-8.35-41.5 597.2 597.2 0 0 1-5.8-42.1 189.198 189.198 0 0 1-.75-9.75c-.8-14.3.2-28.5 3-42.6l1.35-7.05 2.8-13.85 8.2-41.7a457.216 457.216 0 0 1 6.95-30.1l1.45-5.4a37.444 37.444 0 0 0-.25-1l.2-.5c.07-.17.13-.32.2-.45.1-.17.2-.32.3-.45l.3-.4a.591.591 0 0 0 .1-.1l.85-2.9a573.495 573.495 0 0 0 5.6-20.65c2.37-9.54 4.65-19.05 6.85-28.55.03-.17.05-.34.05-.5-.002-.36.066-.716.2-1.05a5.85 5.85 0 0 1 .35-.95l.3-.45c.1-.14.22-.25.35-.35.1-.14.22-.25.35-.35.28-.214.582-.398.9-.55.17-.04.33-.09.5-.15l.5-.1a2.768 2.768 0 0 1 1.05 0l.55.1c.17.06.32.13.45.2l.5.2.4.3c.13.1.27.21.4.35.13.1.25.21.35.35l.3.45c.1.13.18.28.25.45.07.16.12.33.15.5a315.626 315.626 0 0 1-8.75 38.45 1830.852 1830.852 0 0 0-5.45 18.5 431.592 431.592 0 0 1 10.7 39.5 1343.522 1343.522 0 0 1 8.45 41.45 693.331 693.331 0 0 0 9.05 41.05 202.954 202.954 0 0 0 13.25 37c0 .2-.02.41-.05.65 0 .2-.03.4-.1.6-.03.16-.08.33-.15.5-.064.16-.148.311-.25.45-.064.16-.148.311-.25.45l-.35.35c.75 15.23 1.42 30.46 2 45.7a345.943 345.943 0 0 0 4.05 41.15 597.117 597.117 0 0 0 13.75 63.95 227.05 227.05 0 0 1 4.8 21.85v-.1l.1.6-.1-.5c1.4 15.68 3.14 31.31 5.25 46.9a251.93 251.93 0 0 1 2.25 40.35 26.102 26.102 0 0 1-1.25 7.4c-.27 1.96-.7 3.9-1.3 5.8a42.062 42.062 0 0 1-2.2 5.55l58.05.1-.15-.6-.1-.65c.634-8.805 1.334-17.605 2.1-26.4.106-1.319.239-2.636.4-3.95l.1-.75a237.06 237.06 0 0 0 1.65-45.65 338.29 338.29 0 0 1 0-41.1c.83-13.4.9-26.82.2-40.25-.77-14.67-1.32-29.37-1.65-44.1-.3-13.64-1.2-27.24-2.7-40.8a712.108 712.108 0 0 0-5.95-42.15A148.943 148.943 0 0 0 608 622.5a122.623 122.623 0 0 1-11.45-39.75c-.47-3.8-.87-7.6-1.2-11.4A624.846 624.846 0 0 0 590 530.5a773.046 773.046 0 0 0-8.2-42.9l-1.75-8c-.87-4.26-1.7-8.54-2.5-12.85-.73-3.9-1.35-7.82-1.85-11.75.03-.2.08-.42.15-.65.03-.2.08-.4.15-.6.173-.365.374-.716.6-1.05l.45-.45a.591.591 0 0 0 .1-.1c-.28-4.8-.25-9.63.1-14.5a43.906 43.906 0 0 0 0-4.2c-.8-14.1-1.87-28.17-3.2-42.2-1-10.57-2.48-21.07-4.45-31.5a166.867 166.867 0 0 0-5.15-20.15c-4.13-12.84-11.72-23.32-22.75-31.45A533.931 533.931 0 0 0 525.95 297Zm-229.1 211.05c5.63-2.74 11.25-5.49 16.85-8.25 3.63-1.77 7.22-3.64 10.75-5.6a11.1 11.1 0 0 1 3.75-1.3c.17 0 .35.01.55.05l.5.1c.17.03.32.08.45.15.516.257.989.595 1.4 1 .333.332.604.722.8 1.15.07.16.12.33.15.5.061.348.111.698.15 1.05a5.325 5.325 0 0 1-1.25 2.95 250.874 250.874 0 0 1-30.95 15.5 516.698 516.698 0 0 0-21.15 9.4 76.219 76.219 0 0 1-36.8 7.35 90.086 90.086 0 0 1-23.65-10.5c-7.4-4.67-14.77-9.35-22.1-14.05a11.35 11.35 0 0 1-5.05-6.8c-.03-.57.07-1.12.3-1.65.2-.54.5-1 .9-1.4.3-.3.65-.54 1.05-.7.23-.14.48-.25.75-.35l.5-.1a2.768 2.768 0 0 1 1.05 0l.55.1c.17.03.33.08.5.15l.45.25.4.3c.277.147.503.373.65.65.1.1.2.21.3.35l.2.4c.07.13.13.28.2.45a366.965 366.965 0 0 0 29.15 18.95c11.4 6.7 23.38 7.86 35.95 3.5a291.351 291.351 0 0 0 32.7-13.6ZM225.4 484c.1-.44.27-.85.5-1.25a5.449 5.449 0 0 1 2.25-2.1c.93-.47 1.9-.77 2.9-.9l.5-.1c2.63.23 4.17 1.6 4.6 4.1.4 2.3-.45 4.08-2.55 5.35l-.9.45c-.715.072-1.435.072-2.15 0-.5 0-1.02-.04-1.55-.1a2.915 2.915 0 0 1-1.25-.4 8.677 8.677 0 0 1-.7-.45 6.786 6.786 0 0 1-1.4-2 4.099 4.099 0 0 1-.25-2.6Zm227.4 4.25a6.098 6.098 0 0 1 3.3 2.25c.17.26.35.51.55.75.23.4.4.8.5 1.2a4.495 4.495 0 0 1-.75 3.4c-.1.1-.22.2-.35.3-.1.13-.23.25-.4.35-.13.13-.28.23-.45.3-.13.1-.28.18-.45.25-.17.06-.33.11-.5.15l-.5.1h-1l-.5-.1a2.966 2.966 0 0 1-1-.4 5.195 5.195 0 0 0-.85-.6 5.334 5.334 0 0 0-.4-.45l-.45-.45a16.007 16.007 0 0 1-.95-1.05c-.4-.6-.6-1.27-.6-2-.07-.84.13-1.62.6-2.35.33-.5.75-.92 1.25-1.25a3.819 3.819 0 0 1 2.95-.4Zm-114.85-76.4c.1-.14.22-.25.35-.35.1-.14.23-.25.4-.35.1-.1.23-.2.4-.3l.45-.25c.17-.07.33-.12.5-.15.348-.062.698-.112 1.05-.15.17 0 .35.01.55.05l.5.1c.297.078.583.196.85.35l.35.2c.13.1.25.2.35.3.1.06.2.16.3.3l.3.3c.1.13.18.26.25.4.184.31.319.648.4 1l.1.5c-.83 7.9-1.18 15.85-1.05 23.85.13 7.93-.47 15.76-1.8 23.5a1.907 1.907 0 0 1-1.35 1.55c-2.7.9-4.55.01-5.55-2.65a1.636 1.636 0 0 1-.05-.4v-.45c.37-6.8.55-13.6.55-20.4-.03-6.84.18-13.67.65-20.5a24.189 24.189 0 0 1 1.15-6c.1-.17.22-.32.35-.45ZM216.5 622.3a5.6 5.6 0 0 1 1.3-.05c.43.03.85.15 1.25.35l.4.2a169.937 169.937 0 0 1 21.65 25.65 84.968 84.968 0 0 0 3.4 4.55 29.51 29.51 0 0 1 6.4 17.75c.13 2.93.35 5.85.65 8.75 1.27 12.1 2.32 24.21 3.15 36.35.83 11.76 2.3 23.46 4.4 35.1.23 1.33.33 2.65.3 3.95-.13.3-.27.58-.4.85a6.588 6.588 0 0 1-1.1 1.45c-.17.1-.32.2-.45.3l-.5.2-.45.2-.55.1h-1l-.55-.1a2.74 2.74 0 0 0-.5-.15c-.13-.1-.28-.19-.45-.25l-.4-.3c-.17-.1-.32-.22-.45-.35l-.3-.4-.3-.4a1.944 1.944 0 0 0-.25-.45 368.618 368.618 0 0 1-4.6-34.25c-1-11.34-1.87-22.67-2.6-34a118.557 118.557 0 0 0-5.1-27.5c-.27-.9-.7-1.72-1.3-2.45-7-8.94-14.25-17.67-21.75-26.2-.83-.94-1.65-1.9-2.45-2.9-.3-.5-.48-1.05-.55-1.65-.07-.47-.05-.9.05-1.3.134-.596.39-1.157.75-1.65.1-.1.22-.2.35-.3.1-.14.2-.25.3-.35.13-.07.27-.15.4-.25.37-.24.78-.4 1.25-.5Zm230.8 21.9a125.104 125.104 0 0 0-14.1 15.85 260.201 260.201 0 0 0-10.65 15.5c-.73 1.16-1.48 2.33-2.25 3.5a144.991 144.991 0 0 1-7.05 33.3 174.092 174.092 0 0 0-4.55 16.1 81.584 81.584 0 0 1-7.1 19.25c-.3.6-.82.95-1.55 1.05h-.4a3.493 3.493 0 0 1-.55-.05c-.17 0-.33-.04-.5-.1-3.3-2.14-3.95-5.24-1.95-9.3.63-1.34 1.13-2.7 1.5-4.1a847.184 847.184 0 0 1 9.15-32.7c2.7-9 4.82-18.07 6.35-27.2.1-.64.33-1.24.7-1.8a480.427 480.427 0 0 1 19.2-26.85 38.393 38.393 0 0 1 9.4-8.75c.737-.2 1.513-.2 2.25 0 .73.2 1.35.58 1.85 1.15.2.23.38.46.55.7.281.636.467 1.31.55 2a5.323 5.323 0 0 1-.85 2.45ZM336.8 700h.5c.2 0 .38.01.55.05l.5.1c.17.06.33.11.5.15a4.333 4.333 0 0 1 2.25 2.3c.5 1.13.58 2.3.25 3.5-.07.3-.17.6-.3.9-.23.43-.55.8-.95 1.1-.486.408-1.004.776-1.55 1.1a2.716 2.716 0 0 0-.5.15l-.55.1a2.847 2.847 0 0 1-1 0 1.654 1.654 0 0 1-.8-.2 2.052 2.052 0 0 1-.4-.15c-2.2-.34-3.45-1.6-3.75-3.8-.3-2.4.7-3.97 3-4.7.73-.24 1.48-.44 2.25-.6Zm91.4-119.95c-.37.03-.72.05-1.05.05-.4 0-.78-.04-1.15-.1-.43-.1-.83-.29-1.2-.55a4.884 4.884 0 0 1-.95-.9 2.578 2.578 0 0 0-.25-.4c-.13-.3-.25-.64-.35-1l-.2-1a9.699 9.699 0 0 1 .6-2c.07-.17.15-.32.25-.45 5.47-4.4 10.85-8.9 16.15-13.5 4.9-4.24 10.13-8.02 15.7-11.35 1.3-.77 2.67-1.37 4.1-1.8a2.51 2.51 0 0 1 1.05 0l.5.1c1.2.36 2.05 1.1 2.55 2.2.4.86.48 1.75.25 2.65-.17.8-.55 1.46-1.15 2a77.194 77.194 0 0 0-16.65 11.3 479.906 479.906 0 0 1-14.75 12.5c-1.1.86-2.25 1.61-3.45 2.25Zm-218.5 11.3c.1-.1.22-.2.35-.3a3.799 3.799 0 0 1 2.55-.55c.43.03.85.15 1.25.35l.4.2a51.5 51.5 0 0 0 13.8 10.1c5.4 2.73 10.87 5.35 16.4 7.85 1.97.86 3.88 1.81 5.75 2.85l.3.3.3.4.2.4.2.4c.03.13.08.26.15.4l.1.5v1.05l-.1.55-.2.5a5.282 5.282 0 0 1-1.1 1.45c-.2.2-.43.36-.7.5l-.4.2c-.13.06-.27.11-.4.15l-.55.1h-.5c-.2.03-.38.03-.55 0l-.5-.1-.5-.2-.5-.2c-5.63-2.54-11.25-5.1-16.85-7.7a73.626 73.626 0 0 1-15.8-10 30.676 30.676 0 0 1-4.05-4 3.83 3.83 0 0 1-.55-2.55c.03-.44.17-.85.4-1.25l.4-.8c.1-.1.22-.2.35-.3.1-.14.22-.24.35-.3ZM190.05 349.9c.3-.07.62-.12.95-.15.37-.07.72-.1 1.05-.1.17.03.33.08.5.15.2.03.37.08.5.15l.5.2c.5.3.9.68 1.2 1.15.659.927.928 2.076.75 3.2-5.07 8.93-10 17.96-14.8 27.1a101.708 101.708 0 0 0-9.8 27.6c-.63 3.1-1.35 6.18-2.15 9.25l-.7.8c-.27.23-.53.45-.8.65l-.45.2c-.17.1-.33.16-.5.2l-.55.1a2.58 2.58 0 0 1-1.05 0l-.5-.1a4.958 4.958 0 0 1-1.2-.55 4.884 4.884 0 0 1-.95-.9 2.676 2.676 0 0 1-.25-.4 3.58 3.58 0 0 1-.4-1l-.1-.5c1.3-11.1 4.35-21.74 9.15-31.9a835.288 835.288 0 0 1 14.15-28.45 21.797 21.797 0 0 1 5.45-6.7Zm288 2.9c.17-.04.33-.09.5-.15l.5-.1c.17 0 .33-.02.5-.05.17 0 .32.01.45.05.31.004.617.072.9.2.13.03.27.08.4.15l.4.2c5.43 7.5 9.88 15.53 13.35 24.1 1.43 3.5 3.03 6.91 4.8 10.25 4.37 8.3 7.92 16.81 10.65 25.55a4.504 4.504 0 0 1-.4 1.85 3.872 3.872 0 0 1-3.1 2.3 2.58 2.58 0 0 1-1.05 0l-.55-.1c-.17-.04-.33-.1-.5-.2a6.475 6.475 0 0 1-.45-.2l-.4-.3c-.17-.1-.3-.22-.4-.35-.13-.1-.25-.22-.35-.35a31.112 31.112 0 0 1-2-4.75 58.862 58.862 0 0 0-2.05-5.8 266.282 266.282 0 0 0-9.85-21.1c-3.47-6.6-6.8-13.29-10-20.05a31.134 31.134 0 0 0-3.55-5.9 2.716 2.716 0 0 0-.15-.5l-.1-.5V356l.1-.5.2-.5.2-.5.3-.4c.213-.285.465-.537.75-.75l.4-.3c.17-.07.33-.15.5-.25ZM354.7 324.76l-.1-.5a2.851 2.851 0 0 1 0-1.05l.1-.55c.03-.17.08-.34.15-.5l.25-.45c.102-.139.186-.29.25-.45.474-.416.975-.8 1.5-1.15.2-.1.38-.19.55-.25a72.652 72.652 0 0 1 31.25-16.2c9.67-2.3 19.52-3.45 29.55-3.45 5.6.03 11.13.48 16.6 1.35l.7.6c.2.2.4.41.6.65l.5.8c.07.16.12.33.15.5.061.348.111.698.15 1.05a3.413 3.413 0 0 1-.35 1.45c-.1.26-.23.53-.4.8a5.166 5.166 0 0 1-.55.65l-.3.3c-.13.06-.27.15-.4.25l-.45.2-.5.2-.5.1c-11.97-1-23.92-.72-35.85.85a59.414 59.414 0 0 0-16.65 4.75 117.684 117.684 0 0 0-21.5 12.65c-.23.2-.53.33-.9.4a3.934 3.934 0 0 1-1.65-.45 4.088 4.088 0 0 1-2.2-2.55Zm-118.4-22.6c.2-.2.42-.4.65-.6l.35-.25a57.003 57.003 0 0 1 15-1.8c5.13.06 10.23.48 15.3 1.25 1.516.239 3.032.473 4.55.7 7.93.86 15.62 2.8 23.05 5.8a194.008 194.008 0 0 1 21.45 10.2c2.8 1.56 3.48 3.75 2.05 6.55-.1.13-.22.25-.35.35-.1.13-.2.23-.3.3l-.4.3c-.268.132-.534.265-.8.4-.17.03-.32.06-.45.1-.17.03-.32.06-.45.1-.17 0-.32.01-.45.05a2.472 2.472 0 0 0-.5-.05l-.55-.1-.5-.2a5.649 5.649 0 0 0-.45-.2c-8.9-5.1-18.25-9.15-28.05-12.15a131.6 131.6 0 0 0-29.65-5.55 47.112 47.112 0 0 0-9.15.25c.17-.04.33-.05.5-.05-2.457.456-4.925.856-7.4 1.2-.37.03-.73.05-1.1.05l-.5-.1a2.997 2.997 0 0 1-.5-.15c-.17-.1-.32-.19-.45-.25a11.2 11.2 0 0 1-.7-.55 5.194 5.194 0 0 1-1-1.45 1.931 1.931 0 0 1-.15-.4l-.1-.5a2.851 2.851 0 0 1 0-1.05l.1-.55c.13-.34.28-.65.45-.95.13-.24.3-.47.5-.7Zm343.75 356.2c1.67-2.5 3.35-4.97 5.05-7.4.5-.7 1.13-1.25 1.9-1.65l.55-.15.6-.1c.2-.04.42-.04.65 0 .423.02.842.087 1.25.2l.55.3.4.3c.13.1.27.21.4.35.13.1.25.21.35.35.1.13.2.28.3.45.07.13.13.28.2.45l.2.5.1.5v1.05c-2.1 3.9-4.5 7.68-7.2 11.35-3.3 4.43-7.67 6.46-13.1 6.1a43.9 43.9 0 0 1-2.8-.2 36.42 36.42 0 0 1-5.7-.95 8.312 8.312 0 0 1-5.05-3.35 4.896 4.896 0 0 1-.9-2.3c0-.2.02-.4.05-.6l.1-.65.2-.5c.07-.17.13-.32.2-.45l.3-.45c.23-.24.48-.45.75-.65.3-.24.63-.42 1-.55.4-.14.8-.25 1.2-.35.2 0 .42.01.65.05l.6.1c.376.126.743.277 1.1.45l.5.4c.13.13.27.28.4.45.16.157.311.324.45.5 1.37.4 2.77.68 4.2.85 1.4.13 2.82.21 4.25.25.6 0 1.22-.07 1.85-.2a15.717 15.717 0 0 0 4.45-4.45ZM92.3 671.7l.3-.4c.26-.245.545-.463.85-.65.316-.135.632-.268.95-.4.348-.063.698-.113 1.05-.15.339-.002.676.049 1 .15l.5.2c.17.06.32.13.45.2l.4.3.4.3c.4.4.7.83.9 1.3l.7 1.75c.27.6.57 1.15.9 1.65.63.6 1.32 1.13 2.05 1.6.73.46 1.48.91 2.25 1.35.53.3 1.12.55 1.75.75.17.06.35.1.55.1.23.03.45.05.65.05h.7c.382-.059.765-.109 1.15-.15.4-.17.8-.35 1.2-.55.43-.24.87-.49 1.3-.75.3-.17.62-.3.95-.4.17-.07.33-.12.5-.15h.55c.17 0 .33.01.5.05.17 0 .33.03.5.1.17.03.33.08.5.15.17.06.32.15.45.25.17.06.32.15.45.25.434.318.792.728 1.05 1.2.1.13.18.28.25.45.07.16.12.33.15.5.07.16.1.33.1.5.055.348.055.702 0 1.05l-.1.5a3.577 3.577 0 0 1-.4.95 8.772 8.772 0 0 1-3.15 2.65c-1.4.7-2.9 1.11-4.5 1.25-.93.1-1.87.15-2.8.15a20.159 20.159 0 0 1-8.9-3.25 16.304 16.304 0 0 1-6.25-7.4 9.241 9.241 0 0 1-.7-3.55c.03-.17.08-.34.15-.5.03-.17.08-.34.15-.5.07-.17.15-.32.25-.45.07-.17.17-.32.3-.45Zm44.25-220.2.2.45a9.627 9.627 0 0 1 0 1.95c-.07.3-.15.6-.25.9-.07.13-.13.28-.2.45a43.51 43.51 0 0 0-10.6 9.95 39.939 39.939 0 0 0-6.5 12.85 4.186 4.186 0 0 1-1.35 2.1c-.13.1-.28.18-.45.25-.2.13-.42.23-.65.3-.2.1-.42.18-.65.25h-1.25l-.5-.1-.5-.2a6.475 6.475 0 0 1-.45-.2 5.213 5.213 0 0 1-.85-.65 11.266 11.266 0 0 1-1-1.75c-.03-.2-.08-.39-.15-.55a40.731 40.731 0 0 1 6.9-16c3-4.24 6.6-7.87 10.8-10.9a7.474 7.474 0 0 1 4.2-1.5c.4.1.77.23 1.1.4.33.1.63.25.9.45.17.1.3.2.4.3.257.25.476.536.65.85l.2.4ZM352.6 492c.3-.54.7-.97 1.2-1.3a4.145 4.145 0 0 1 3.45-.55c9.3 6.1 18.8 11.86 28.5 17.3 3.77 2.13 7.63 4.11 11.6 5.95a140.002 140.002 0 0 0 23.95 8.7c3.3.83 6.63.95 10 .35a327.352 327.352 0 0 0 35.15-8.45 26.947 26.947 0 0 0 11.8-7.15c.47-.34.98-.54 1.55-.6a3.922 3.922 0 0 1 1.65.15 3.876 3.876 0 0 1 2.15 1.4c.1.13.18.28.25.45.1.13.18.28.25.45l.2.5c.03.16.05.33.05.5.03.16.05.35.05.55v.45c-5 7.03-11.95 11.41-20.85 13.15-4.97 1-9.88 2.2-14.75 3.6a90.331 90.331 0 0 1-23.85 3.5 107.243 107.243 0 0 1-31.85-10.7c-2.5-1.3-5-2.59-7.5-3.85a276.519 276.519 0 0 1-29.35-17 13.594 13.594 0 0 1-3.9-3.9 1.791 1.791 0 0 1-.15-.45l-.1-.5a2.851 2.851 0 0 1 0-1.05l.1-.55c.03-.17.1-.34.2-.5.07-.17.13-.32.2-.45Zm-130.55 61.35c.3-.74.78-1.32 1.45-1.75.63-.4 1.32-.64 2.05-.7.47-.04.93.01 1.4.15 5.23 3.6 10.17 7.18 14.8 10.75 4.5 3.4 8.53 7.28 12.1 11.65a20.201 20.201 0 0 1 2.6 3.95c.23.76.25 1.53.05 2.3-.2.7-.58 1.3-1.15 1.8-.23.2-.47.38-.7.55a3.538 3.538 0 0 1-1 .4c-.17.06-.33.11-.5.15h-.5c-.2 0-.38-.02-.55-.05-.17 0-.35-.04-.55-.1a2.052 2.052 0 0 1-.4-.15 2.052 2.052 0 0 1-.4-.15 95.883 95.883 0 0 0-11.65-11.9 157.609 157.609 0 0 0-12.7-9.85 49.711 49.711 0 0 1-3.8-3.05c-.2-.3-.35-.6-.45-.9-.13-.34-.25-.67-.35-1 0-.37.02-.72.05-1.05.03-.37.1-.72.2-1.05Zm-10.5 19.45-.1-.55a2.58 2.58 0 0 1 0-1.05l.1-.5c.1-.4.28-.79.55-1.15.23-.34.52-.64.85-.9.3-.27.65-.49 1.05-.65.4-.14.8-.24 1.2-.3a50.286 50.286 0 0 1 16.25 7.45 148.355 148.355 0 0 1 15.05 12 75.08 75.08 0 0 1 4.05 3.95 3.9 3.9 0 0 1 .6 2.4c-.03.4-.12.8-.25 1.2a4.571 4.571 0 0 1-1.3 1.75c-.13.1-.28.2-.45.3l-.45.2-.5.2-.5.1h-1a7.685 7.685 0 0 0-.45-.1l-.4-.1a85.184 85.184 0 0 0-.8-.4 1.355 1.355 0 0 1-.35-.25 56.247 56.247 0 0 0-27.8-19.45 15.187 15.187 0 0 1-4.7-2.8 2.676 2.676 0 0 1-.25-.4 6.222 6.222 0 0 1-.2-.45c-.1-.17-.17-.34-.2-.5Zm217 23.45c3.37-3.14 7.05-6 11.05-8.6 3.73-2.4 7.28-5.02 10.65-7.85l3.5-3c.5-.3 1.05-.49 1.65-.55.6-.1 1.18-.04 1.75.2.43.13.83.33 1.2.6.1.1.2.21.3.35.13.1.25.21.35.35l.25.35c.48.758.675 1.662.55 2.55-.07.6-.25 1.15-.55 1.65a74.074 74.074 0 0 1-13.6 11.35 351.616 351.616 0 0 1-9.25 6.25c-1 .63-2.02 1.2-3.05 1.7l-.5.1c-.33.065-.67.065-1 0-.3-.07-.6-.15-.9-.25a4.048 4.048 0 0 1-.85-.4l-.75-.55a2.69 2.69 0 0 1-.55-.75 3.58 3.58 0 0 1-.4-1 2.82 2.82 0 0 1-.15-.5v-.55c0-.17.02-.34.05-.5l.1-.55c.03-.14.08-.27.15-.4Zm-6.75 31.35a4.257 4.257 0 0 1 0-2.05c.1-.44.27-.82.5-1.15a301.303 301.303 0 0 1 27.75-24.35c4.43-3.4 9.22-6 14.35-7.8.9-.3 1.65-.07 2.25.7 1.17 1.53 1.6 2.93 1.3 4.2-.28 1.3-1.3 2.46-3.05 3.5a163.17 163.17 0 0 0-28.65 21.7 126.782 126.782 0 0 1-9.1 7.9c-.33.1-.67.16-1 .2-.33.03-.68.05-1.05.05-.13 0-.28-.04-.45-.1a6.288 6.288 0 0 1-.95-.35 5.213 5.213 0 0 1-.85-.65c-.5-.5-.85-1.1-1.05-1.8Zm121.95-177.4c.2-.04.4-.05.6-.05a29.67 29.67 0 0 1 16.1 9.85 65.486 65.486 0 0 1 11.2 18.25c.4.97.72 1.95.95 2.95.27.98.45 1.98.55 3-.1.33-.22.66-.35 1-.13.33-.3.63-.5.9a1.63 1.63 0 0 1-.3.4l-.85.6c-.3.16-.6.28-.9.35-.37.1-.72.18-1.05.25l-.7-.1-.7-.2c-.2-.07-.42-.15-.65-.25a3.796 3.796 0 0 1-.4-.35l-.4-.3a93.872 93.872 0 0 0-7.75-14.85 40.95 40.95 0 0 0-11.15-11.7c-1.63-1.14-3.4-2-5.3-2.6a3.929 3.929 0 0 1-1.5-3.85c0-.17.02-.32.05-.45.13-.34.28-.65.45-.95.17-.27.37-.54.6-.8.27-.24.53-.45.8-.65.2-.1.4-.19.6-.25l.6-.2Z"/></g></g><defs><clipPath id="a"><path fill="#fff" d="M0 0h680v943H0z"/></clipPath><clipPath id="b"><path fill="#fff" d="M40 11h600v943H40z"/></clipPath></defs></svg>