<svg xmlns="http://www.w3.org/2000/svg" width="680" height="943" fill="none"><g clip-path="url(#a)"><path fill="#333" d="M344.622 853.594a832.583 832.583 0 0 1-22.44-.505 535.22 535.22 0 0 0-22.038-.454 277.738 277.738 0 0 1-22.441-1.008 718.397 718.397 0 0 1-22.39-2.169 219.882 219.882 0 0 0-22.542-1.361 83.036 83.036 0 0 1-22.037-3.076 110.197 110.197 0 0 0-21.684-3.883 59.555 59.555 0 0 1-12.053-2.27c-1.58-.47-3.16-.891-4.74-1.26-2.247-.552-4.298-1.409-6.152-2.572a935.905 935.905 0 0 0-2.976 16.893 553.942 553.942 0 0 1-4.185 22.542 447.293 447.293 0 0 1-5.295 22.289 278.274 278.274 0 0 0-4.892 21.433 224.011 224.011 0 0 0-2.42 16.288c-.572 4.875-.992 9.75-1.261 14.624.571 1.412.42 2.724-.454 3.934v.655l371.307.051v-1.563c-1.038.138-2.147-.232-3.329-1.11-2.689-4.707-4.589-9.766-5.698-15.179a145.455 145.455 0 0 1-2.32-16.188 54.123 54.123 0 0 0-.454-4.084v-.051l-.201-1.361a124.698 124.698 0 0 1-.807-7.06 839.134 839.134 0 0 1-.555-5.648 1.515 1.515 0 0 0 0-.252 906.005 906.005 0 0 0-3.48-22.744c-1.143-6.892-2-14.036-2.571-21.432a186.184 186.184 0 0 0-1.412-12.859c-2.659.441-5.332.845-8.019 1.21-3.597.471-7.211.773-10.842.908-1.866.09-3.715.241-5.547.454.013.005.03.005.051 0a.619.619 0 0 1-.202 0 34.973 34.973 0 0 1-3.429.554l-3.329.404c-.773.101-1.529.218-2.269.353.12 0 .238-.017.353-.051a330.328 330.328 0 0 1-17.852 2.875 426.056 426.056 0 0 1-20.625 2.219 154.42 154.42 0 0 1-21.231.353 353.116 353.116 0 0 0-14.573-.505 317.635 317.635 0 0 0-21.886.353c-3.699.168-7.38.219-11.044.152a165.18 165.18 0 0 0-10.036.101Zm88.351-50.883a108.395 108.395 0 0 1-22.34-1.815 36.12 36.12 0 0 0-5.345-.606 370.157 370.157 0 0 0-22.037-.554c-7.464.033-14.91.084-22.34.151-7.464.101-14.927.168-22.391.202a386.158 386.158 0 0 1-22.44-.555 440.047 440.047 0 0 0-22.088-.555c-7.497 0-15.011-.084-22.542-.252-7.43-.168-14.876-.303-22.34-.403a116.757 116.757 0 0 1-13.716-1.009 970.052 970.052 0 0 0-22.138-2.572 342.153 342.153 0 0 1-21.887-3.026 67.413 67.413 0 0 1-17.801-5.698 174.949 174.949 0 0 0-3.177 21.23 202.33 202.33 0 0 1-2.773 20.071c.263.096.532.197.806.303a86.7 86.7 0 0 0 21.584 5.295c7.497.84 14.86 2.269 22.088 4.286a81.795 81.795 0 0 0 22.087 3.026c7.329 0 14.658.403 21.987 1.21 7.497.841 14.995 1.58 22.492 2.219a253.58 253.58 0 0 0 22.037.958c7.362 0 14.725.135 22.088.404 7.329.302 14.674.353 22.037.151a440.795 440.795 0 0 1 22.088.05c3.631.068 7.278.051 10.943-.05a292.782 292.782 0 0 1 16.288-.051c7.43.169 14.877.253 22.34.253a150.234 150.234 0 0 0 22.29-1.765c4.791-.755 9.599-1.478 14.422-2.169h-.101c1.956-.288 3.889-.608 5.8-.958 2.252-.403 4.505-.74 6.757-1.009a75.571 75.571 0 0 0 3.631-.554h-.05c-.135.033-.269.05-.404.05a55.727 55.727 0 0 1 10.54-1.008 51.949 51.949 0 0 0 10.186-1.11 27.236 27.236 0 0 1 4.236-.605 14.13 14.13 0 0 0-.1-.605 456.32 456.32 0 0 1-3.581-22.239 695.743 695.743 0 0 0-3.379-22.29.555.555 0 0 0-.05-.151 77.384 77.384 0 0 1-16.44 5.446 138.89 138.89 0 0 1-8.321 1.463h.152c-1.665.229-3.312.448-4.942.655a268.1 268.1 0 0 1-4.791.656 41.28 41.28 0 0 0-1.614.252h.152a48.812 48.812 0 0 0-7.464 1.614 47.14 47.14 0 0 1-7.564 1.513c-.942.134-1.9.184-2.875.151Z"/><path fill="#000" d="M165.752 450.517c0-3.093-.875-5.8-2.623-8.12l-.403-.201a3.485 3.485 0 0 0-.504-.252l-.505-.202c-.336-.034-.689-.05-1.059-.05-.336 0-.689.016-1.059.05-.437.134-.84.319-1.21.555a3.77 3.77 0 0 0-1.21 1.311 4.715 4.715 0 0 0-.555 2.219c.303 1.143.538 2.303.706 3.479l1.009 8.876c.189 1.728.643 3.308 1.361 4.74a616.343 616.343 0 0 0 .051 30.459c.168 7.329.571 14.675 1.21 22.037.088 1.036.172 2.061.252 3.076v.051a3.368 3.368 0 0 0-.706.706 5.496 5.496 0 0 0-.857 1.916 53.978 53.978 0 0 0-.908 4.539 22.445 22.445 0 0 0-.303 3.832 11.078 11.078 0 0 0-.151 1.614c-.067 3.429-.353 6.589-.857 9.481a710.54 710.54 0 0 1-6.455 33.535 313.975 313.975 0 0 1-4.236 17.448 785.84 785.84 0 0 0-7.111 27.786 4.913 4.913 0 0 0-.806 1.11 2409.126 2409.126 0 0 1-5.396 26.021 292.255 292.255 0 0 0-1.11 5.345 246.56 246.56 0 0 0-3.832 28.896 753.348 753.348 0 0 1-3.228 34.745 1982.246 1982.246 0 0 0-3.782 34.241 448.055 448.055 0 0 1-4.891 34.847 298.132 298.132 0 0 1-8.019 33.736 1950.902 1950.902 0 0 0-9.783 33.888 182.342 182.342 0 0 0-6.102 34.191 413.265 413.265 0 0 0-1.26 34.746c.033 12.041 3.496 22.883 10.388 32.526h6.102a.516.516 0 0 0 .151-.101 9.94 9.94 0 0 1 .454-.807 3.37 3.37 0 0 0 .353-1.26c.067-.471.05-.925-.05-1.362a3.838 3.838 0 0 0-.505-1.21c-4.135-5.547-6.69-11.817-7.665-18.81a159.023 159.023 0 0 1-1.462-20.02 191.215 191.215 0 0 1 3.278-36.41 306.306 306.306 0 0 1 8.623-34.947 647.974 647.974 0 0 0 9.38-33.384c2.891-11.565 5.042-22.827 6.454-33.787a770.548 770.548 0 0 0 3.732-35.199 771.85 771.85 0 0 1 3.48-34.241l4.135-33.586a347.697 347.697 0 0 1 6.001-34.594 31.272 31.272 0 0 1 1.21-4.185c.68-1.799.999-3.497.958-5.094a1950.245 1950.245 0 0 0 6.304-22.945 428.351 428.351 0 0 0 7.766-34.291 2727.846 2727.846 0 0 1 4.438-23.45 869.26 869.26 0 0 0 6.555 31.569 383.423 383.423 0 0 1 6.203 34.392c1.58 11.666 1.345 23.248-.706 34.745a672.134 672.134 0 0 1-7.06 34.443 185.683 185.683 0 0 0-4.639 34.443c-.471 11.7-.437 23.433.101 35.199.436 9.5.941 18.947 1.512 28.341-1.167.799-1.554 2.312-1.159 4.539a205.876 205.876 0 0 1-1.564 10.287 120.232 120.232 0 0 0-1.412 10.994 242.287 242.287 0 0 1-3.025 22.087 829.52 829.52 0 0 0-3.833 22.24 404.153 404.153 0 0 1-4.135 22.037 388.396 388.396 0 0 1-5.245 21.583 262.501 262.501 0 0 0-5.093 22.088 408.619 408.619 0 0 0-3.53 22.239 75.768 75.768 0 0 0-.404 16.541c.068.302.169.588.303.857.247.427.533.78.857 1.059h5.346c.222-.179.423-.397.605-.655.874-1.211 1.025-2.522.454-3.934a238.74 238.74 0 0 1 1.26-14.624 224.043 224.043 0 0 1 2.421-16.289 277.888 277.888 0 0 1 4.892-21.432 447.557 447.557 0 0 0 5.295-22.289 555.99 555.99 0 0 0 4.185-22.542 928.82 928.82 0 0 1 2.976-16.894c1.854 1.164 3.905 2.021 6.152 2.572 1.58.37 3.16.79 4.74 1.261a59.485 59.485 0 0 0 12.053 2.269c7.362.572 14.59 1.866 21.684 3.883a82.995 82.995 0 0 0 22.037 3.076c7.531.068 15.045.521 22.542 1.362 7.463.84 14.927 1.563 22.39 2.168a277.74 277.74 0 0 0 22.441 1.009c7.363 0 14.708.151 22.037.454 7.464.269 14.944.437 22.441.504 3.328-.134 6.674-.168 10.035-.101 3.665.067 7.346.017 11.044-.151 7.296-.37 14.591-.488 21.886-.353 4.842.067 9.7.235 14.574.504 7.094.37 14.171.252 21.231-.353a423.556 423.556 0 0 0 20.625-2.219 331.45 331.45 0 0 0 17.852-2.874 1.24 1.24 0 0 1-.353.05 46.65 46.65 0 0 1 2.269-.353l3.328-.403a34.651 34.651 0 0 0 3.43-.555.612.612 0 0 0 .201 0c-.021.006-.038.006-.05 0a83.714 83.714 0 0 1 5.547-.454c3.631-.134 7.245-.437 10.842-.907a275.79 275.79 0 0 0 8.018-1.211c.62 4.266 1.09 8.553 1.412 12.86.572 7.396 1.429 14.54 2.572 21.432a911.258 911.258 0 0 1 3.48 22.743c.007.084.007.168 0 .252.177 1.867.362 3.75.555 5.648.201 2.354.47 4.707.806 7.06l.202 1.362v.05a54.15 54.15 0 0 1 .454 4.085 145.522 145.522 0 0 0 2.32 16.188c1.109 5.412 3.009 10.472 5.698 15.179 1.182.877 2.291 1.247 3.328 1.109 1.029-.139 1.988-.778 2.875-1.916.37-.471.487-.975.353-1.513a251.67 251.67 0 0 0-3.127-11.094 77.793 77.793 0 0 1-3.378-17.751c-.092-1.34-.109-1.811-.051-1.412l-.454-3.228a214.738 214.738 0 0 1-1.26-10.287 261.485 261.485 0 0 0-3.077-22.39 209.503 209.503 0 0 1-2.874-21.987 274.958 274.958 0 0 0-2.572-21.886v.101a7.86 7.86 0 0 0-.05-.353 55.94 55.94 0 0 0-.757-4.59 344.765 344.765 0 0 1-4.488-26.777 97.997 97.997 0 0 1-.605-6.253 66.199 66.199 0 0 0-.656-5.8 92.566 92.566 0 0 1-1.109-8.673c-.141-1.926-.914-3.17-2.32-3.732a15.443 15.443 0 0 1-.151-.202 16.2 16.2 0 0 0 .656-3.883c.706-12.372.975-24.76.806-37.166-.067-4.673-.117-9.346-.151-14.019a445.138 445.138 0 0 0-1.765-34.846 400.546 400.546 0 0 0-4.791-35.199 114.392 114.392 0 0 0-1.664-7.666 123.928 123.928 0 0 1-3.933-25.718c-.202-4.472-.118-8.943.252-13.414a298.9 298.9 0 0 1 1.765-16.339 374.63 374.63 0 0 1 6.102-33.787 340.357 340.357 0 0 1 9.127-32.729 647.457 647.457 0 0 0 3.682-11.396 345.625 345.625 0 0 0 3.025 29.702 566.314 566.314 0 0 0 6.102 34.544 221.777 221.777 0 0 0 6.909 25.214 996.141 996.141 0 0 0 5.799 16.793 877.084 877.084 0 0 1 11.044 32.879c.067.303.135.589.202.858.137.436.338.84.605 1.21-.436 3.506-.704 7.07-.807 10.691a311.19 311.19 0 0 0 1.059 34.947 228.777 228.777 0 0 0 2.269 17.246 162.536 162.536 0 0 0 9.683 34.242 269.914 269.914 0 0 1 10.741 32.728 502.493 502.493 0 0 0 9.834 33.283 195.191 195.191 0 0 1 8.119 34.039 354.1 354.1 0 0 1 3.378 35.25c.505 11.834.606 23.685.303 35.552-.168 6.556-1.647 12.758-4.438 18.608-.504.37-1.008.723-1.513 1.059-1.512 1.009-2.218 2.404-2.118 4.186.101 1.882 1.026 3.126 2.774 3.732.168.033.336.05.504.05.202.034.387.05.555.05h.454c.302-.067.605-.151.908-.252.504-.134.958-.37 1.361-.706a12.466 12.466 0 0 0 1.563-1.412l.404-.202.403-.201c.135-.067.252-.135.353-.202a1.33 1.33 0 0 0 .353-.252l.303-.303c.202-.269.387-.538.555-.807.168-.268.319-.537.454-.806a31.465 31.465 0 0 1 1.613-4.842 37.527 37.527 0 0 0 3.026-12.002c.941-11.8 1.16-23.6.656-35.401a503.11 503.11 0 0 0-2.673-34.089 204.66 204.66 0 0 0-7.06-34.796 1159.667 1159.667 0 0 1-9.38-33.636 320.538 320.538 0 0 0-11.044-33.535 222.07 222.07 0 0 1-4.286-12.002 266.993 266.993 0 0 1-9.531-38.729c-.37-2.32-.605-3.732-.706-4.236v-.101a100.483 100.483 0 0 1-.605-9.027 699.639 699.639 0 0 1 .302-41.15c.084-2.526-.605-4.089-2.067-4.69a195.531 195.531 0 0 0-4.741-16.137 348.664 348.664 0 0 0-6.354-16.894 153.47 153.47 0 0 1-5.597-16.641 530.86 530.86 0 0 1-7.968-33.838 295.531 295.531 0 0 1-4.791-34.795 2044.937 2044.937 0 0 0-3.026-34.746c-.08-.801-.232-1.49-.453-2.067a133.358 133.358 0 0 0 3.227-14.625 139.666 139.666 0 0 1 8.573-30.358c.437-.706.79-1.445 1.059-2.219.235-.739.269-1.462.101-2.168-.269-1.076-.891-1.9-1.866-2.471a3.803 3.803 0 0 0-1.261-.504 3.903 3.903 0 0 0-1.765.1 3.72 3.72 0 0 0-1.916 1.11 14.152 14.152 0 0 0-2.219 4.236 504.732 504.732 0 0 1-3.681 10.64 62.213 62.213 0 0 0-3.026 12.053v-.151a248.207 248.207 0 0 1-6.455 27.887c-2.024 7-4.159 13.959-6.404 20.877A677.636 677.636 0 0 1 489 531.404a258.579 258.579 0 0 0-9.229 33.586 338.997 338.997 0 0 0-5.295 34.342 172.263 172.263 0 0 1-.706 6.152c-1.479 11.767-1.042 23.432 1.311 34.997a974.974 974.974 0 0 1 1.765 8.624 800.77 800.77 0 0 1 6.001 34.644 133.089 133.089 0 0 1 1.463 17.499c.201 11.599.504 23.18.907 34.745.202 5.951.437 11.902.706 17.852.505 10.086-.285 19.987-2.37 29.703v.1c-.677.291-1.366.56-2.067.807a122.956 122.956 0 0 1-20.323 5.447.506.506 0 0 1-.151.05c.025-.006.042-.023.05-.05-.361.061-.731.111-1.109.151-1.715.235-3.413.471-5.094.706-1.781.235-3.546.487-5.295.756h.051c-1.528.251-3.04.57-4.539.958a79.522 79.522 0 0 1-10.489 1.816c-3.718.381-7.45.432-11.195.151a162.521 162.521 0 0 0-18.407-2.168 307.66 307.66 0 0 0-22.289-.605c-7.363.033-14.725.084-22.088.151-7.497.101-14.994.168-22.491.202a370.961 370.961 0 0 1-22.037-.555c-7.397-.37-14.81-.555-22.24-.555-7.329 0-14.674-.084-22.037-.252-7.396-.134-14.809-.286-22.239-.454a122.56 122.56 0 0 1-13.666-.958 962.103 962.103 0 0 0-21.735-2.521 307.958 307.958 0 0 1-22.239-3.228 48.066 48.066 0 0 1-8.018-2.219 1938.81 1938.81 0 0 1-9.229-3.328 588.344 588.344 0 0 0-1.109-31.77 313.201 313.201 0 0 1-.353-31.266 179.912 179.912 0 0 1 4.74-34.846 615.069 615.069 0 0 0 7.514-36.006c0 .202-.017.386-.05.555-.034.168-.068.353-.101.554a81.844 81.844 0 0 0 1.311-22.894 500.562 500.562 0 0 0-3.379-30.157 264.049 264.049 0 0 0-6.959-33.787 174.109 174.109 0 0 1-3.631-16.49 331.39 331.39 0 0 1-3.933-33.586 103.215 103.215 0 0 1-.303-6.354 1593.636 1593.636 0 0 0-1.21-36.056c.067-.336.151-.656.252-.958.1-.439.184-.893.252-1.362.135-.373.202-.777.202-1.21a.8.8 0 0 0-.05-.151 4.206 4.206 0 0 0-.202-1.463 3.49 3.49 0 0 0-.303-.605 9.397 9.397 0 0 0-.201-.756 30.069 30.069 0 0 1-1.412-8.825Zm244.881 350.378a108.327 108.327 0 0 0 22.34 1.816 16.33 16.33 0 0 0 2.875-.152 47.03 47.03 0 0 0 7.564-1.513 48.827 48.827 0 0 1 7.463-1.613h-.151a39.47 39.47 0 0 1 1.614-.252c1.58-.202 3.177-.421 4.791-.656 1.63-.208 3.277-.426 4.942-.656h-.152c2.791-.403 5.564-.891 8.321-1.462a77.478 77.478 0 0 0 16.44-5.446.544.544 0 0 1 .05.151 698.949 698.949 0 0 1 3.379 22.289 457.767 457.767 0 0 0 3.58 22.24c.038.198.072.4.101.605a27.117 27.117 0 0 0-4.236.605 51.871 51.871 0 0 1-10.186 1.109c-3.53 0-7.044.336-10.54 1.009.135 0 .269-.017.404-.051h.05c-1.2.214-2.41.399-3.631.555a116.55 116.55 0 0 0-6.757 1.009c-1.911.35-3.844.669-5.8.958h.101c-4.823.691-9.631 1.413-14.422 2.168a150.11 150.11 0 0 1-22.29 1.765c-7.463 0-14.91-.084-22.34-.252a292.783 292.783 0 0 0-16.288.05 237.86 237.86 0 0 1-10.943.051 439.607 439.607 0 0 0-22.088-.051c-7.363.202-14.708.152-22.037-.151a604.953 604.953 0 0 0-22.088-.403 254 254 0 0 1-22.038-.958 851.196 851.196 0 0 1-22.491-2.219 200.74 200.74 0 0 0-21.987-1.21 81.795 81.795 0 0 1-22.087-3.026 140.21 140.21 0 0 0-22.088-4.287 86.602 86.602 0 0 1-21.584-5.295 58.592 58.592 0 0 0-.807-.302 202.373 202.373 0 0 0 2.774-20.071 174.949 174.949 0 0 1 3.177-21.23 67.402 67.402 0 0 0 17.801 5.698 342.122 342.122 0 0 0 21.886 3.026c7.397.773 14.776 1.63 22.139 2.572 4.538.605 9.11.941 13.716 1.008 7.464.101 14.91.236 22.34.404 7.531.168 15.045.252 22.542.252 7.362 0 14.725.185 22.088.555a385.27 385.27 0 0 0 22.44.554c7.464-.033 14.927-.101 22.391-.201 7.429-.068 14.876-.118 22.34-.152 7.362-.033 14.708.152 22.037.555 1.782.067 3.564.269 5.345.605Zm95.311-330.157v-.05a.172.172 0 0 0 0-.101.476.476 0 0 1 0 .151Zm.1 78.77c.044.096.077.18.101.252v.303a1.056 1.056 0 0 0-.05-.303.638.638 0 0 0-.051-.252Zm58.195-93.142h-.555c-.168 0-.336.017-.504.051l-.504.101-.504.201c-.169.067-.32.135-.454.202a5.417 5.417 0 0 1-.454.303c-.135.1-.252.218-.353.353-.135.1-.252.218-.353.353a5.233 5.233 0 0 0-.303.453 8.43 8.43 0 0 0-.302.555 3.91 3.91 0 0 1-.152.605c-.033.236-.05.454-.05.656-.034.202-.034.42 0 .655l.101.606c.067.168.118.336.151.504a13.654 13.654 0 0 0 4.438 3.984 181.67 181.67 0 0 1 15.078 9.884 64.813 64.813 0 0 1 12.759 12.254c.134.134.302.252.504.353.336.235.689.42 1.059.555.37.1.756.168 1.16.201.369 0 .739-.033 1.109-.101.168-.033.336-.084.504-.151.168-.067.337-.151.505-.252a2.66 2.66 0 0 0 .454-.303l.403-.302.403-.504c.101-.168.202-.353.303-.555.101-.168.185-.353.252-.555.067-.202.118-.403.151-.605.034-.202.051-.42.051-.656a4.6 4.6 0 0 0-.051-.655c-.941-2.051-2.219-3.934-3.832-5.648a90.41 90.41 0 0 0-15.078-12.658 283.819 283.819 0 0 0-15.936-9.884ZM121.072 645.978a6.767 6.767 0 0 0-.454-.252 2.839 2.839 0 0 0-.504-.151 3.822 3.822 0 0 0-.656-.152c-.403.034-.807.085-1.21.152a9.073 9.073 0 0 0-1.917.605 10.53 10.53 0 0 1-1.815.655 10.238 10.238 0 0 1-4.488-.706 44.196 44.196 0 0 1-9.329-5.143 176.229 176.229 0 0 1-7.867-6.153 2.927 2.927 0 0 0-.505-.151l-.504-.101h-1.009l-.504.101a2.927 2.927 0 0 0-.504.151c-.168.068-.32.152-.454.253-.168.067-.32.168-.454.302a1.396 1.396 0 0 0-.403.353 1.38 1.38 0 0 0-.353.404 1.336 1.336 0 0 0-.303.453c-.1.135-.185.286-.252.454a2.85 2.85 0 0 0-.151.505l-.101.504v1.008l.1.505c.034.168.085.336.152.504a10.884 10.884 0 0 0 2.32 2.925 62.51 62.51 0 0 0 10.388 7.463 37.677 37.677 0 0 0 11.952 4.388 13.33 13.33 0 0 0 3.832-.152 20.333 20.333 0 0 0 3.883-1.109 5.306 5.306 0 0 0 2.522-2.017l.201-.404c.101-.302.185-.622.253-.958.067-.302.084-.622.05-.958 0-.336-.034-.656-.101-.958a1.794 1.794 0 0 0-.151-.454 5.945 5.945 0 0 1-.202-.454 105.64 105.64 0 0 1-.302-.403 3.862 3.862 0 0 0-.353-.404l-.404-.302a1.564 1.564 0 0 0-.403-.303Zm253.051-138.124a3.38 3.38 0 0 0-1.261-.353 3.709 3.709 0 0 0-1.361.05 4.625 4.625 0 0 0-1.211.505 3.352 3.352 0 0 0-.353.302 1 1 0 0 0-.353.303 3.474 3.474 0 0 0-.353.302l-.403.807c-.235.404-.37.824-.403 1.261-.068.471-.051.924.05 1.362.101.403.269.806.504 1.21a31.743 31.743 0 0 0 5.85 5.194 215.707 215.707 0 0 0 21.533 13.061 74.772 74.772 0 0 0 23.5 7.968c.807.101 1.63.218 2.471.353 2.219.37 4.454.454 6.707.252 2.286-.202 4.555-.454 6.808-.757-.168 0-.353.017-.555.051a2.61 2.61 0 0 1-.504.05 101.89 101.89 0 0 0 21.23-4.891 309.979 309.979 0 0 0 32.224-13.414c1.709-.821 2.734-1.813 3.076-2.976.373-1.171.054-2.516-.958-4.034-.639-.941-1.496-1.261-2.572-.958a93.584 93.584 0 0 0-12.002 4.387 242.68 242.68 0 0 1-33.585 12.154c-13.381 3.765-26.358 2.588-38.931-3.53a146.431 146.431 0 0 1-28.745-18.457l-.403-.202Zm-256.38-63.591c-.336-.1-.672-.185-1.008-.252-.37-.033-.723-.067-1.059-.101a12.44 12.44 0 0 0-4.74 2.925 1627.17 1627.17 0 0 0-13.515 12.86c-4.842 4.673-8.49 10.102-10.943 16.288 0 .202.017.403.05.605 0 .235.034.454.1.656.034.168.085.336.152.504.067.168.151.319.252.454.068.134.168.269.303.403l.303.404c.134.134.268.252.403.353l.403.302c.236.101.454.185.656.252a3.472 3.472 0 0 0 1.916.253 3.96 3.96 0 0 0 1.967-.757 17.742 17.742 0 0 0 2.47-3.631 46.166 46.166 0 0 1 10.692-13.565c4.438-3.9 8.842-7.833 13.212-11.8.101-.135.185-.286.252-.454.168-.303.303-.622.404-.958.067-.404.134-.824.201-1.261-.1-.403-.218-.807-.353-1.21a3.68 3.68 0 0 0-.554-1.009 7.083 7.083 0 0 0-.656-.756 6.103 6.103 0 0 0-.908-.505Zm469.29 208.019.101-.505a2.61 2.61 0 0 0 0-1.008 4.395 4.395 0 0 0-.303-1.009 5.185 5.185 0 0 0-.504-.958 3.855 3.855 0 0 0-.353-.403 3.862 3.862 0 0 1-.404-.353 7.247 7.247 0 0 1-.453-.252 7.813 7.813 0 0 0-.959-.353 1.769 1.769 0 0 0-.504-.152h-1.008a4.797 4.797 0 0 0-.958.404 28.545 28.545 0 0 1-9.885 3.53 35.167 35.167 0 0 1-10.943 0 9.19 9.19 0 0 0-1.21.504 1.973 1.973 0 0 0-.454.252 1.789 1.789 0 0 0-.353.353 1.789 1.789 0 0 0-.353.353c-.201.303-.37.605-.504.908l-.202.504-.101.605c-.033.236-.05.454-.05.656.034.202.084.403.151.605.101.437.252.841.454 1.21.067.168.168.337.303.505.134.168.269.319.403.453.504.505 1.059.807 1.664.908.774.135 1.564.269 2.37.404.774.134 1.547.252 2.32.353.773.033 1.547.033 2.32 0a46.035 46.035 0 0 0 10.64-1.765 22.841 22.841 0 0 0 8.119-4.337c.101-.135.185-.286.252-.454.169-.303.303-.622.404-.958ZM435.848 630.9c-9.414 7.632-15.818 17.163-19.214 28.593a161.434 161.434 0 0 0-6.354 34.342c-.907 11.8-.437 23.5 1.412 35.098.068.135.152.269.252.404.169.269.354.504.555.706.303.37.656.655 1.059.857a4.28 4.28 0 0 0 1.311.404 4.457 4.457 0 0 0 1.765-.152 4.279 4.279 0 0 0 1.412-.857c.437-.37.774-.807 1.009-1.311a4.118 4.118 0 0 0 .353-1.664c0-.202-.017-.387-.05-.555a2.71 2.71 0 0 0-.152-.555 2.839 2.839 0 0 0-.151-.504.38.38 0 0 0-.051-.151 184.662 184.662 0 0 1-.958-24.004 159.534 159.534 0 0 1 5.295-36.712 47.3 47.3 0 0 1 3.228-8.523c4.471-8.875 10.708-16.44 18.709-22.693a16.513 16.513 0 0 1 3.681-2.219c4.068-1.782 6.253-4.555 6.556-8.32-.336-1.009-.992-1.631-1.967-1.866-3.429-.841-6.64.084-9.632 2.773a312.662 312.662 0 0 1-8.068 6.909Zm-220.626-14.977h-.504c-.202 0-.387.016-.555.05-.168.034-.353.067-.555.101l-.403.101-.403.201c-.236.169-.471.354-.706.555-.236.168-.438.37-.606.605a19.16 19.16 0 0 0-.504.858 2.839 2.839 0 0 0-.151.504 1.352 1.352 0 0 0-.101.504c-.034.168-.05.353-.05.555v.504l.302.908c.101.303.235.571.404.807.168.269.353.521.554.756 7.027 3.934 13.145 9.044 18.356 15.331 7.598 9.144 12.322 19.633 14.171 31.467a365.636 365.636 0 0 1 3.782 34.846 378.726 378.726 0 0 0 3.732 34.947 22.52 22.52 0 0 0 .907 3.026 5.29 5.29 0 0 0 2.421 2.774c1.143.638 2.303.689 3.48.151 1.378-.672 2.185-1.731 2.42-3.177v-.454c0-.168-.017-.353-.05-.555a15.287 15.287 0 0 1-.101-.554 5.945 5.945 0 0 0-.202-.454 3.546 3.546 0 0 0-.252-.505 5.233 5.233 0 0 1-.303-.453 41.148 41.148 0 0 1-1.412-7.01 536.432 536.432 0 0 1-3.278-37.418 206.75 206.75 0 0 0-3.025-26.576c-2.051-11.397-6.388-21.819-13.011-31.266-6.421-9.144-14.54-16.187-24.357-21.129Zm133.081-214.02c-.874.437-1.277 1.126-1.21 2.068a537.607 537.607 0 0 0 2.774 26.324 127.584 127.584 0 0 1-.555 36.308l.101.505c.134.336.269.655.403.958.068.134.152.269.252.403.202.235.404.437.606.605.235.202.487.37.756.505.235.134.504.252.807.353.168.067.336.1.504.1.168.034.353.051.555.051h.504a2.71 2.71 0 0 0 .555-.151c.168-.034.336-.084.504-.152.168-.067.32-.151.454-.252.269-.202.538-.42.807-.655.235-.236.471-.488.706-.757a105.492 105.492 0 0 0 2.017-26.424 259.342 259.342 0 0 0-4.438-36.763c-.706-3.698-2.74-4.707-6.102-3.026Zm-112.809 91.074c-.504.505-.975 1.06-1.412 1.665a6.595 6.595 0 0 0-.353.857c-.201.538-.269 1.109-.201 1.715.033.605.218 1.176.554 1.714.068.101.152.219.253.353.1.101.201.219.302.353.135.101.269.219.404.353.168.101.319.185.453.252.169.101.32.185.454.252.168.068.336.118.505.152l.504.101c.202.033.386.05.555.05.168 0 .336-.017.504-.05.336-.068.672-.152 1.008-.253.169-.067.32-.134.454-.201a13.527 13.527 0 0 0 3.278-3.228c.135-.269.252-.538.353-.807.202-.571.269-1.16.202-1.765a4.057 4.057 0 0 0-.555-1.664 3.474 3.474 0 0 0-.302-.353 1.01 1.01 0 0 0-.303-.353 3.355 3.355 0 0 0-.303-.353 4.088 4.088 0 0 0-1.21-.605c-.571-.202-1.16-.269-1.765-.202a4.071 4.071 0 0 0-1.664.555 14.18 14.18 0 0 0-1.715 1.462Zm213.516 7.565a4.223 4.223 0 0 0-.404 1.261 4.151 4.151 0 0 0 .101 1.815c.168.471.403.908.706 1.311.437.572.925 1.126 1.462 1.664a5.453 5.453 0 0 0 2.219 1.362c.168.033.353.067.555.101.168.033.336.05.504.05h.505a4.453 4.453 0 0 0 2.168-1.008c1.345-1.043 2.101-2.404 2.269-4.085.168-1.479-.185-2.807-1.059-3.984a5.954 5.954 0 0 0-.958-.857 24.276 24.276 0 0 0-1.21-.757 3.297 3.297 0 0 0-1.16-.504c-.134 0-.269-.017-.403-.051a3.51 3.51 0 0 0-1.665.202 4.17 4.17 0 0 0-1.462.807c-.403.37-.723.807-.958 1.311-.504.336-.908.79-1.21 1.362Zm-133.435 9.228a2.61 2.61 0 0 0-.504-.05 145.834 145.834 0 0 0-17.146 7.06c-10.052 4.908-20.592 6.942-31.619 6.102a172.611 172.611 0 0 1-31.165-5.295 83.735 83.735 0 0 1-16.439-6.253 968.055 968.055 0 0 1-29.854-15.785c-.168 0-.336-.016-.504-.05a2.62 2.62 0 0 0-.505.05 21.38 21.38 0 0 0-.554.101 5 5 0 0 0-1.211.555 3.777 3.777 0 0 0-1.513 2.017 3.908 3.908 0 0 0-.1 2.32 3.613 3.613 0 0 0 1.159 2.017c.538.403 1.093.773 1.665 1.109a286.858 286.858 0 0 0 30.61 16.289 105.326 105.326 0 0 0 16.44 5.9 164.177 164.177 0 0 0 34.594 5.547 50.274 50.274 0 0 0 8.421-.403c7.128-.874 14.019-2.774 20.676-5.699a8942.344 8942.344 0 0 1 19.718-8.522 3.866 3.866 0 0 0 1.109-1.614c.202-.672.269-1.328.202-1.967a3.986 3.986 0 0 0-.757-1.865 4.386 4.386 0 0 0-1.765-1.362l-.403-.101a1.485 1.485 0 0 0-.555-.101Zm22.189 196.571-.404.202a6.302 6.302 0 0 0-1.966 1.916 12.88 12.88 0 0 1-.303.404c-.452.33-.822.75-1.109 1.261l-.202.504-.202.504-.101.504V712.695l.101.505a3.5 3.5 0 0 1 .152.454c.168.403.403.773.706 1.109a7.16 7.16 0 0 0 1.462 1.21c.437.303.891.605 1.362.908.302.134.622.252.958.353.336.101.672.151 1.008.151.37 0 .74-.033 1.11-.101.437-.134.84-.336 1.21-.605.235-.168.454-.353.656-.555.056-.065.106-.132.151-.201 1.404.195 2.681-.729 3.832-2.774.505-.874.421-1.698-.252-2.471-1.106-1.267-2.131-2.057-3.076-2.37a1.08 1.08 0 0 0-.101-.202 3.718 3.718 0 0 0-1.462-1.512 5.735 5.735 0 0 0-.454-.202 1.59 1.59 0 0 0-.504-.202 17.392 17.392 0 0 0-.555-.101c-.336 0-.689.017-1.059.051a5.436 5.436 0 0 0-.958.201ZM447.698 107.4c-.134-.807-.453-1.496-.958-2.068-3.126-3.866-7.312-5.43-12.556-4.69-1.547.202-2.976.572-4.287 1.11-.202-6.354-.353-12.692-.454-19.012a97.734 97.734 0 0 0-.302-6.354 710.29 710.29 0 0 0-1.816-20.575c-.672-6.724-2.353-13.145-5.043-19.264-2.992-6.757-7.698-11.817-14.12-15.179a301.709 301.709 0 0 1-2.269-1.11c0-.033-.017-.05-.05-.05a68.94 68.94 0 0 0-19.617-5.748c-6.388-.908-12.725-.471-19.012 1.31a28.85 28.85 0 0 1-7.362 1.06c-4.001.1-8.002.05-12.002-.152-7.027-.37-14.036-.05-21.029.959a36.87 36.87 0 0 1-7.917.352 511.71 511.71 0 0 1-20.323-1.714 71.147 71.147 0 0 0-19.819.655 88.065 88.065 0 0 0-19.314 5.75c-3.059 1.31-5.598 3.277-7.615 5.9-3.933 4.975-6.925 10.74-8.976 17.297a87.438 87.438 0 0 0-3.833 19.97 89.9 89.9 0 0 0 .152 15.632 140.835 140.835 0 0 0 2.067 14.574 24.1 24.1 0 0 0-6.808-1.462 39.892 39.892 0 0 0-2.067-.152c-5.278-.302-8.657 2-10.136 6.909-1.883 6.421-2.589 12.994-2.118 19.718.437 6.051.353 12.086-.252 18.104a69.316 69.316 0 0 0 1.059 20.928c.739 3.563 2.521 6.488 5.345 8.774 5.076 4.068 10.456 4.623 16.137 1.664.168.505.286.992.353 1.463.168.975.404 1.933.706 2.874 0 .572.051 1.143.151 1.715.471 2.521.858 5.059 1.16 7.615.841 6.791 1.614 13.582 2.32 20.373a65.606 65.606 0 0 0 3.227 14.876 61.358 61.358 0 0 0 4.136 9.531 70.018 70.018 0 0 0 5.547 8.674c-.771.191-1.544.376-2.32.555a10.296 10.296 0 0 0-2.925 1.26 104.04 104.04 0 0 0-8.472 3.631 449.785 449.785 0 0 1-18.356 8.371 371.611 371.611 0 0 1-19.465 7.716c-.337 0-.69.017-1.059.05-.37 0-.74.034-1.11.101-.37.068-.723.135-1.059.202a148.867 148.867 0 0 0-14.422 7.766 153.33 153.33 0 0 1-15.331 8.27 269.778 269.778 0 0 1-32.274 12.456 25.379 25.379 0 0 0-7.665 4.035 634.111 634.111 0 0 0-23.298 19.364 267.99 267.99 0 0 0-14.221 13.414c-7.867 8.002-13.683 17.331-17.448 27.988a236.352 236.352 0 0 0-9.229 33.586 253.109 253.109 0 0 0-4.286 34.493c-.64 11.867-1.278 23.752-1.917 35.653a2436.206 2436.206 0 0 0-1.664 34.997 810.17 810.17 0 0 1-2.27 35.351.06.06 0 0 0 .051-.05c.034-.202.068-.387.101-.555-.049.353-.099.706-.151 1.059-.083.622-.166 1.244-.252 1.866a90.822 90.822 0 0 1-1.21 7.261 136.4 136.4 0 0 0-1.21 7.413c.059.425.143.812.251 1.16a30.277 30.277 0 0 0-.504 3.278 1726.361 1726.361 0 0 1-5.043 27.131 190.514 190.514 0 0 1-6.656 25.214 440.414 440.414 0 0 0-8.27 27.585 1885.434 1885.434 0 0 0-8.473 33.585 220.518 220.518 0 0 0-5.497 34.443l-2.218 26.425a499.8 499.8 0 0 0-1.816 34.745 3053.326 3053.326 0 0 0-.302 35.098 758.05 758.05 0 0 0 .605 34.947c.47 11.532.689 23.08.655 34.645a3001.014 3001.014 0 0 1-.302 34.796l-.202 17.599c-.168 11.7-.151 23.416.05 35.149 0 .168.017.353.05.555l.102.504c.067.168.117.336.151.505.1.168.185.319.252.453l.303.404c.1.134.218.269.353.403.1.135.235.252.403.353l.404.303c.134.067.285.134.454.202l.504.201.504.101a.285.285 0 0 0 .1 0h1.01l.504-.101.504-.201c.168-.068.32-.135.454-.202l.403-.303c.135-.101.27-.218.404-.353.134-.134.252-.269.353-.403l.302-.404c.068-.134.135-.285.202-.453l.202-.505c.202-9.749.302-19.499.302-29.248 0-12.574.168-25.148.505-37.721a500.166 500.166 0 0 0-.303-36.208 1055.151 1055.151 0 0 1-.908-35.754l-.201-37.317a376.844 376.844 0 0 1 1.361-34.342 792.862 792.862 0 0 0 2.27-34.443c.47-10.186 1.697-20.507 3.68-30.963a871.376 871.376 0 0 1 6.758-31.972c2.522-10.859 5.682-21.214 9.48-31.064a177.338 177.338 0 0 0 8.826-30.812c2.05-10.657 4-21.331 5.85-32.022-.034.235-.068.487-.101.756.336-1.781.773-3.53 1.31-5.244.588-1.969.436-3.515-.453-4.64a82.651 82.651 0 0 0 2.572-14.876 794.518 794.518 0 0 0 2.168-36.813c.37-10.153.824-20.289 1.362-30.409.639-12.338 1.294-24.676 1.967-37.014a240.57 240.57 0 0 1 4.639-35.351 202.03 202.03 0 0 1 9.934-33.333c4.102-10.489 10.49-19.314 19.163-26.475a429.319 429.319 0 0 0 24.761-22.138 27.625 27.625 0 0 1 6.606-4.741 127.614 127.614 0 0 1 21.13-8.724 109.837 109.837 0 0 0 15.733-6.354 942.285 942.285 0 0 0 31.115-16.288c1.143 0 2.269-.152 3.379-.454a40.748 40.748 0 0 0 5.396-1.816 34.02 34.02 0 0 0 5.698-2.975 51.296 51.296 0 0 0 6.858-2.32 254.052 254.052 0 0 0 13.818-6.152c4.269-2.051 8.556-4.102 12.859-6.152.37-.135.756-.269 1.16-.404.37-.134.74-.285 1.109-.454l1.009-.504c.202-.033.42-.067.655-.101.303-.101.622-.185.959-.252.269-.067.554-.151.857-.252l.908-.202c.168-.101.319-.185.454-.252.168-.101.319-.202.453-.302.135-.135.269-.253.404-.353l.302-.404a1.33 1.33 0 0 0 .303-.454c.61.648 1.232 1.287 1.866 1.917a216.105 216.105 0 0 0 15.179 13.615c5.48 4.438 10.993 7.985 16.54 10.641 5.85 2.757 12.288 4.488 19.315 5.194.706.067 1.412.101 2.118.101a49.384 49.384 0 0 0 5.446-.404c1.95-.235 3.9-.336 5.85-.302.336.134.689.201 1.059.201.504 0 .975-.033 1.412-.1 1.479.437 3.059.622 4.74.554 4.707.034 9.38-.454 14.019-1.462a66.29 66.29 0 0 0 19.567-7.665 120.901 120.901 0 0 0 16.238-11.448c.907-.773 1.529-1.277 1.865-1.512a92.263 92.263 0 0 0 10.54-8.019c.379.154.749.306 1.109.454.232.102.468.203.706.303a208.706 208.706 0 0 0 22.088 8.825 383.143 383.143 0 0 1 32.628 12.657 365.274 365.274 0 0 1 31.165 15.684 734.904 734.904 0 0 1 16.893 9.833 1.802 1.802 0 0 1-.101.353 90.16 90.16 0 0 1-.101.505c0 .336.017.655.051.958.034.302.101.605.202.908.1.302.201.588.302.857.101.134.202.252.303.353a11.487 11.487 0 0 0 1.361 1.16c.269.134.538.285.807.454 3.765.941 7.48 2.101 11.145 3.479 5.144 1.916 10.271 3.85 15.381 5.799a66.748 66.748 0 0 1 18.406 10.641c1.681 1.378 2.152 1.782 1.412 1.21 1.042.874 2 1.799 2.875 2.774a174.336 174.336 0 0 1 7.261 8.573c2.082 2.626 4.167 5.265 6.253 7.917.065.087.132.171.202.252a.31.31 0 0 1 .051.101 101.783 101.783 0 0 1 2.571 3.681 119.605 119.605 0 0 1 7.968 14.019 126.21 126.21 0 0 1 6.253 15.482l-.201-.504a5.735 5.735 0 0 1-.202-.454 52.752 52.752 0 0 1 1.412 4.639 245.027 245.027 0 0 1 6.051 32.678 942.796 942.796 0 0 1 3.48 35.199 419.723 419.723 0 0 0 4.236 35.452c.263 1.64.515 3.271.756 4.891a850.42 850.42 0 0 1 4.287 31.417v-.201c.013.113.03.23.05.353.101.84.202 1.664.303 2.471.101.84.202 1.664.302 2.471a17.55 17.55 0 0 1-.1-.555c.894 8.27 1.835 16.54 2.824 24.811a1078.23 1078.23 0 0 0 4.79 34.745 267.675 267.675 0 0 0 7.665 34.191c.117.28.268.532.454.756a601.37 601.37 0 0 0 6.758 22.34 245.48 245.48 0 0 1 8.371 34.04 417.692 417.692 0 0 1 4.488 34.745 369.815 369.815 0 0 1 1.362 35.048 421.593 421.593 0 0 0 1.16 35.098c.84 11.565 1.765 23.13 2.773 34.695a298.23 298.23 0 0 1 1.059 35.099 602.351 602.351 0 0 0 .101 34.846c.37 11.599.672 23.214.908 34.846a396.123 396.123 0 0 0 2.118 34.645c0 .168.017.319.05.453 0 .169.017.32.051.454.033.135.084.286.151.454.134.404.353.79.655 1.16.269.336.589.622.959.857.369.236.79.421 1.26.555.135.034.286.05.454.05.107.027.225.044.353.051h.101c.168 0 .319-.017.454-.051l.908-.201a4.26 4.26 0 0 0 1.159-.605c.37-.269.673-.605.908-1.009.202-.403.37-.824.504-1.261a444.589 444.589 0 0 1-1.765-30.711 2568.886 2568.886 0 0 0-1.059-35.854 471.158 471.158 0 0 1-.05-37.116 276.906 276.906 0 0 0-.807-33.384 5519.958 5519.958 0 0 1-2.723-33.838 431.101 431.101 0 0 1-1.311-36.106 350.95 350.95 0 0 0-1.513-35.654 542.54 542.54 0 0 0-3.278-27.483 466.374 466.374 0 0 0-.706-4.74 278.512 278.512 0 0 0-7.211-32.729 875.242 875.242 0 0 0-9.33-30.963 2.02 2.02 0 0 0 0-.504 194.068 194.068 0 0 1-6.051-24.761 704.253 704.253 0 0 1-4.892-33.283 16872.594 16872.594 0 0 0-4.286-35.754c.014.106.031.207.05.303a15.563 15.563 0 0 1-.1-.706.435.435 0 0 0-.051-.151v-.051a1.69 1.69 0 0 0 0-.302 64.205 64.205 0 0 0-.353-2.522c-.101-.84-.202-1.664-.302-2.471.033.168.067.353.1.555 0 .168.017.336.051.504l-.101-1.21c-.168-1.647-.37-3.295-.605-4.942-.217-1.544-.435-3.09-.656-4.64-.035-.268-.068-.537-.101-.806a5315.12 5315.12 0 0 0-4.135-31.064 666.94 666.94 0 0 1-3.782-35.553 641.291 641.291 0 0 0-3.782-35.048 171.831 171.831 0 0 0-7.766-32.98 122.817 122.817 0 0 0-15.784-30.862l-1.463-2.118a171.026 171.026 0 0 0-8.926-11.75c-7.261-8.708-16.069-15.364-26.424-19.97a295.113 295.113 0 0 0-19.667-7.816 202.968 202.968 0 0 0-22.744-14.726 663.705 663.705 0 0 0-31.114-16.137c-10.691-5.177-21.248-9.581-31.669-13.212a520.597 520.597 0 0 1-29.804-11.397c4.168-4.406 7.597-9.381 10.288-14.927a77.22 77.22 0 0 0 6.354-18.759c.336-1.715.554-3.463.655-5.245.336-6.556.404-13.111.202-19.667a20.71 20.71 0 0 0 .555-6.606c.369.067.722.134 1.059.201 5.513.874 10.052-.739 13.615-4.841 2.623-2.992 4.287-6.421 4.993-10.287.437-2.555.84-5.127 1.21-7.716a250.08 250.08 0 0 0 2.219-23.55c.067-1.479.168-2.959.303-4.438.571-5.244.369-10.405-.606-15.481Zm-76.349-84.216a31.37 31.37 0 0 1 12.507-.807 68.872 68.872 0 0 1 22.138 6.656l-.605-.201c.269.1.538.252.807.454 5.58 4.27 9.262 9.85 11.043 16.742a115.653 115.653 0 0 1 3.329 19.818c.504 6.657.823 13.313.958 19.97.134 7.733.101 15.431-.101 23.097a2.79 2.79 0 0 0-.202.706 2.966 2.966 0 0 0-.302.756 4.32 4.32 0 0 0 .151 2.521c.336.841.908 1.496 1.715 1.967a3.88 3.88 0 0 0 1.714.504c1.681.068 2.891-.655 3.631-2.168.269-.538.504-1.076.706-1.614 3.228-2.992 6.959-3.681 11.195-2.067.101.336.168.672.202 1.008.134 6.052.067 12.086-.202 18.104a221.217 221.217 0 0 1-.706 9.834 216.095 216.095 0 0 1-1.563 12.355 24.948 24.948 0 0 0-.353 2.773c-.471 4.673-2.286 8.556-5.446 11.649-.538.168-1.076.303-1.614.404-.572.101-1.16.168-1.765.202a3.108 3.108 0 0 1-1.664-.354 11.412 11.412 0 0 1-.908-.907 5.431 5.431 0 0 0-3.126-1.765c-3.766-.807-5.716.79-5.85 4.791a169.291 169.291 0 0 0-.152 7.16 2.71 2.71 0 0 0-.151.555 115.914 115.914 0 0 0-.353 17.095 31.449 31.449 0 0 1-.202 5.648 68.259 68.259 0 0 1-5.295 19.718 100.192 100.192 0 0 1-3.53 7.161 36.288 36.288 0 0 1-4.79 6.707 100.903 100.903 0 0 1-17.701 15.028c-.033 0-.067.016-.101.05a131.418 131.418 0 0 1-10.69 8.119 71.841 71.841 0 0 1-15.482 8.17c-7.732 2.924-15.667 4.051-23.802 3.378a3.099 3.099 0 0 0-1.16-.453c-.908-.135-1.681-.085-2.32.151-1.479-.336-3.076-.336-4.791 0-2.353.47-4.74.639-7.161.504-6.858-.37-13.38-2.101-19.566-5.194h.05a12.33 12.33 0 0 1-1.462-.807A133.914 133.914 0 0 1 281.99 248.6a116.587 116.587 0 0 1-14.423-14.675 75.122 75.122 0 0 1-4.538-6.202c-3.833-5.817-6.237-12.137-7.212-18.962a595.996 595.996 0 0 1-2.471-20.272c-.37-3.631-.706-7.245-1.008-10.842.067-.269.134-.555.201-.857.202-1.177.017-2.236-.554-3.177a1.86 1.86 0 0 1-.051-.454c-.134-1.446-.571-2.539-1.311-3.278a40.39 40.39 0 0 1-.403-2.824c-.269-2.656-1.396-4.707-3.379-6.153-.639-.47-1.328-.571-2.068-.302a75.506 75.506 0 0 0-8.573 3.833 3.624 3.624 0 0 0-.605-.051 4.963 4.963 0 0 1-3.025-1.008c-3.463-2.556-5.111-6.136-4.942-10.742.203-6.35.421-12.721.655-19.112.03-1 .064-2.009.101-3.026a38.399 38.399 0 0 0-.252-5.9c-.908-7.632-.168-14.893 2.219-21.785h.907c.673 0 1.345-.051 2.018-.152a23.36 23.36 0 0 1 1.512-.252 20.16 20.16 0 0 1 6.909 3.026 21.64 21.64 0 0 0 2.723 1.513l.202.101c1.378 1.546 3.11 1.546 5.194 0 .673-.471.992-1.11.958-1.917a69.766 69.766 0 0 0-1.109-9.077 154.285 154.285 0 0 1-2.572-21.13 75.925 75.925 0 0 1 1.916-21.33c1.782-7.632 4.942-14.608 9.481-20.929a32.362 32.362 0 0 1 8.674-4.538 69.663 69.663 0 0 1 20.423-3.984c6.892-.27 13.751.134 20.575 1.21a67.851 67.851 0 0 0 20.373.05 85.934 85.934 0 0 1 21.18-.504c7.296.74 14.507.168 21.634-1.714Zm-25.87 203.227a.49.49 0 0 1 .202-.05h-.101c-.033 0-.067.017-.101.05Zm26.375-15.431c1.311-1.748 1.26-3.446-.152-5.093-.941-1.042-2.084-1.412-3.429-1.11-1.378.269-2.605.891-3.681 1.866a40.402 40.402 0 0 1-10.035 6.304c-1.984.84-3.984 1.614-6.001 2.32a30.135 30.135 0 0 1-11.347 1.563 91.168 91.168 0 0 1-10.439-1.21 41.417 41.417 0 0 1-9.984-3.077 43.795 43.795 0 0 1-8.725-5.295c-.84-1.68-2.219-2.437-4.135-2.269-1.042.067-1.866.538-2.471 1.412-1.479 2.017-1.345 4.001.404 5.951a18.491 18.491 0 0 0 4.084 3.479 69.39 69.39 0 0 0 5.749 3.228 54.651 54.651 0 0 0 9.783 3.681 62.926 62.926 0 0 0 7.817 1.513c3.496.437 7.009.622 10.539.555 1.749.033 3.48-.118 5.195-.454a.222.222 0 0 0 .1-.051 60.795 60.795 0 0 0 9.431-2.521 39.894 39.894 0 0 0 8.976-4.438 415.353 415.353 0 0 0 6.303-4.387 10.18 10.18 0 0 0 2.018-1.967Zm-119.063-85.93c1.177-1.48 1.211-2.992.101-4.539-1.143-1.647-2.689-2.236-4.639-1.765-3.496.773-6.606 2.303-9.329 4.589-2.455 2.051-3.967 4.623-4.539 7.716a11.464 11.464 0 0 0-.202 2.672c.141 2.612 1.284 4.864 3.429 6.758a9.71 9.71 0 0 0 4.64 2.269c3.429.639 6.909 1.126 10.439 1.463 1.143.269 2.202.084 3.177-.555 1.378-.908 1.966-2.169 1.765-3.782-.202-1.748-1.143-2.892-2.824-3.429a59.913 59.913 0 0 0-2.27-.353 55.287 55.287 0 0 0-5.799-.404c-1.883-.033-3.379-.723-4.488-2.067a.388.388 0 0 1-.051-.152.379.379 0 0 0-.05-.151v-.101c-.034-.202-.017-.37.05-.504.774-2.488 2.421-4.219 4.942-5.194a7.163 7.163 0 0 1 1.816-.454c1.58-.168 2.858-.841 3.832-2.017Zm172.366 2.017c-3.16-1.916-6.522-2.337-10.086-1.261-2.32.706-3.564 2.236-3.732 4.589a3.237 3.237 0 0 0 .858 2.37c1.815 1.917 3.765 2.085 5.849.505h.757c.37 0 .739.033 1.109.1.303.068.605.169.908.303.202.202.387.42.555.656.336.437.605.907.807 1.412.235.47.369.958.403 1.462-.101.235-.235.42-.403.555a24.914 24.914 0 0 1-1.765 1.513c-2.287 1.849-4.791 2.42-7.514 1.714-1.009-.269-1.984-.151-2.925.353-2.152 1.177-2.791 2.925-1.917 5.245.169.437.454.79.858 1.059 1.849 1.277 3.95 1.882 6.303 1.815 1.143 0 2.253-.185 3.329-.555a24.114 24.114 0 0 0 9.682-5.95 6.583 6.583 0 0 0 1.563-2.471c.344-.965.563-1.923.656-2.875.303-2.789-.504-5.445-2.421-7.967a10.466 10.466 0 0 0-2.874-2.572Zm-86.889 23.298c-.336-1.143-1.059-1.916-2.168-2.32-2.522-.874-4.32-.101-5.396 2.32a4.343 4.343 0 0 1-.555.555c-2.521 2.521-4.303 5.496-5.345 8.926-1.042 3.496-.757 6.891.857 10.186 1.177 2.488 3.076 4.102 5.698 4.841a37.466 37.466 0 0 0 10.389 1.463c1.681.168 3.362.185 5.043.05 1.58-.101 2.908-.706 3.983-1.815.841-.874 1.143-1.917.908-3.127-.504-2.387-1.983-3.513-4.438-3.379l-1.412.101a62.363 62.363 0 0 1-10.337-.353.909.909 0 0 0-.253-.05h.101c-.37-.067-.739-.152-1.109-.252a3.736 3.736 0 0 1-.908-.404c-1.479-2.588-1.361-5.16.353-7.715a34.473 34.473 0 0 1 3.379-4.287c1.277-1.378 1.681-2.958 1.21-4.74Zm39.435-44.176a9.623 9.623 0 0 0-5.395.858c-1.48.706-2.488 1.798-3.026 3.277-.773 2.051-.404 3.715 1.109 4.993.034.067.067.151.101.252a3.01 3.01 0 0 0 1.16 1.261c.235.336.521.639.857.908a4.79 4.79 0 0 0 1.412.756c.135 0 .252.017.353.05h.353c.135.034.269.051.404.051 2.992 0 5.396-1.143 7.211-3.429a4.053 4.053 0 0 0 .908-2.875c-.168-3.597-1.984-5.631-5.447-6.102Zm-28.946-15.633c1.681 1.58 3.48 1.715 5.396.404 2.858-1.95 6.018-3.244 9.481-3.883a27.271 27.271 0 0 1 10.943.1c3.597.74 6.942 1.833 10.035 3.279l.504.201.202.101a.388.388 0 0 1-.151-.05l-.051-.05h-.1c.134.067.285.134.453.201l-.1-.1c.134.1.218.15.252.15.605.27 1.193.555 1.765.858a162.317 162.317 0 0 1 7.211 3.782 249.385 249.385 0 0 0 7.161 3.883 3.48 3.48 0 0 0 1.664 0c2.387-.538 3.48-2.034 3.278-4.488-.034-.706-.319-1.311-.857-1.816a22.756 22.756 0 0 0-4.337-3.227 173.303 173.303 0 0 0-9.632-4.942 89.02 89.02 0 0 0-9.481-3.883 47.342 47.342 0 0 0-10.338-2.27 28.41 28.41 0 0 0-4.79-.201 34.534 34.534 0 0 0-14.574 3.933c-.572.303-1.126.572-1.664.807-1.782.807-2.875 2.118-3.278 3.934-.269 1.31.067 2.403 1.008 3.277Zm-58.749 23.45c1.076 2.79 3.194 4.118 6.354 3.984 2.32 0 4.488-.572 6.505-1.715 2.555-1.479 3.463-3.631 2.723-6.455a2.885 2.885 0 0 0-.756-1.261c-2.723-2.655-5.967-3.361-9.733-2.118-2.622.875-4.353 2.606-5.194 5.195a3.21 3.21 0 0 0 .101 2.37Zm10.842-26.879c2.69-.067 5.362.135 8.018.606a46.41 46.41 0 0 1 10.338 3.126c1.244.538 2.522.84 3.833.908a2.724 2.724 0 0 0 2.118-.706c2.05-1.816 2.235-3.833.554-6.052a3.754 3.754 0 0 0-.706-.403 114.642 114.642 0 0 0-6.202-2.673 40.974 40.974 0 0 0-9.985-2.47 53.67 53.67 0 0 0-10.389-.203c-1.311.101-2.605.337-3.883.706a92.842 92.842 0 0 0-8.018 2.572 36.732 36.732 0 0 0-9.228 5.043c-.538.404-1.093.807-1.664 1.21a39.142 39.142 0 0 0-6.859 6.052l-.554.605c-.135.168-.421.504-.858 1.009a8.236 8.236 0 0 0-1.916 4.387c-.168 1.815.488 3.211 1.967 4.185.403.236.84.404 1.311.505 1.143.168 2.168-.084 3.076-.757 1.009-.739 1.563-1.714 1.664-2.925a15.056 15.056 0 0 1 3.934-4.185c.538-.404 1.059-.84 1.563-1.311a32.102 32.102 0 0 1 8.321-5.295 121.91 121.91 0 0 0 3.681-1.664 25.87 25.87 0 0 1 9.884-2.27ZM24.854 953.744c.168 0 .353-.016.555-.05h-1.01c.163.034.314.05.455.05Zm82.854.152a.92.92 0 0 0 .202-.202h-6.102c.079.092.147.176.202.252.134.101.285.202.454.303.134.134.268.235.403.302.168.101.336.185.504.253.168.033.336.084.505.151l.504.101h1.008l.505-.101c.168-.034.336-.084.504-.151.168-.068.319-.152.454-.253.168-.067.319-.168.454-.302.168-.101.302-.219.403-.353Zm36.309-.202h-5.346c.652.605 1.459.942 2.421 1.009 1.172.106 2.147-.23 2.925-1.009ZM129.846 746.18c.034-.303.034-.387 0-.252a1.922 1.922 0 0 0-.05.454.924.924 0 0 1 .05-.202Zm518.609-65.91v.252a.442.442 0 0 1 .051.202c.033.067.016-.085-.051-.454ZM502.313 838.364v.101c.01.048.01.082 0 .1a.615.615 0 0 0 0-.201Z"/><path fill="#fff" d="M505.086 292.876c.045-.111.078-.228.101-.353a732.846 732.846 0 0 0-16.894-9.833 364.678 364.678 0 0 0-31.165-15.683 382.795 382.795 0 0 0-32.627-12.658 208.407 208.407 0 0 1-22.088-8.825c-.238-.1-.474-.201-.706-.303-.361-.148-.73-.3-1.109-.453a92.254 92.254 0 0 1-10.54 8.018c-.336.235-.958.739-1.866 1.513a120.857 120.857 0 0 1-16.238 11.447 66.273 66.273 0 0 1-19.566 7.665 63.602 63.602 0 0 1-14.019 1.462c-1.681.068-3.261-.117-4.74-.554a9.331 9.331 0 0 1-1.412.101c-.37 0-.723-.068-1.059-.202-1.95-.034-3.9.067-5.85.302-1.816.236-3.631.37-5.446.404-.706 0-1.412-.034-2.118-.101-7.027-.706-13.465-2.437-19.315-5.194-5.547-2.656-11.06-6.203-16.54-10.641a215.854 215.854 0 0 1-15.179-13.615 80.186 80.186 0 0 1-1.866-1.917 1.33 1.33 0 0 1-.303.454l-.302.404a3.748 3.748 0 0 0-.404.353c-.134.1-.286.201-.454.302a6.766 6.766 0 0 0-.453.252l-.908.202c-.303.101-.589.185-.857.252a7.898 7.898 0 0 0-.959.252c-.235.034-.453.068-.655.101l-1.009.505c-.37.168-.739.319-1.109.453-.404.135-.79.269-1.16.404-4.303 2.051-8.59 4.101-12.859 6.152a254.052 254.052 0 0 1-13.818 6.152 51.296 51.296 0 0 1-6.858 2.32 33.956 33.956 0 0 1-5.699 2.975 40.686 40.686 0 0 1-5.395 1.816c-1.11.302-2.236.454-3.379.454a941.375 941.375 0 0 1-31.115 16.288 109.837 109.837 0 0 1-15.733 6.354 127.579 127.579 0 0 0-21.13 8.724 27.625 27.625 0 0 0-6.606 4.741 429.319 429.319 0 0 1-24.761 22.138c-8.673 7.161-15.061 15.986-19.163 26.475a202.011 202.011 0 0 0-9.934 33.333 240.557 240.557 0 0 0-4.64 35.351c-.672 12.338-1.328 24.676-1.966 37.014-.538 10.12-.992 20.256-1.362 30.409a794.796 794.796 0 0 1-2.168 36.813 82.651 82.651 0 0 1-2.572 14.876c.89 1.125 1.04 2.672.454 4.64a45.996 45.996 0 0 0-1.311 5.244c.033-.269.067-.521.1-.756a1727.001 1727.001 0 0 1-5.85 32.022 177.313 177.313 0 0 1-8.824 30.812c-3.8 9.851-6.96 20.205-9.48 31.064a871.168 871.168 0 0 0-6.758 31.972c-1.984 10.456-3.211 20.777-3.682 30.963a793.02 793.02 0 0 1-2.269 34.443 376.844 376.844 0 0 0-1.361 34.342l.201 37.317c.101 11.935.404 23.853.908 35.754.538 12.069.639 24.139.303 36.208a1411.183 1411.183 0 0 0-.505 37.721c0 9.749-.1 19.499-.302 29.248v2.925h73.071c-6.892-9.643-10.355-20.485-10.389-32.526a413.265 413.265 0 0 1 1.261-34.746 182.309 182.309 0 0 1 6.102-34.19 1949.35 1949.35 0 0 1 9.783-33.889 297.913 297.913 0 0 0 8.018-33.736 447.578 447.578 0 0 0 4.892-34.847 1980.708 1980.708 0 0 1 3.782-34.241 753.348 753.348 0 0 0 3.228-34.745 246.56 246.56 0 0 1 3.832-28.896c.352-1.776.721-3.557 1.11-5.345a2385.17 2385.17 0 0 0 5.395-26.021c.22-.411.489-.781.807-1.11a785.84 785.84 0 0 1 7.111-27.786 313.975 313.975 0 0 0 4.236-17.448 711.818 711.818 0 0 0 6.455-33.535c.504-2.892.79-6.052.857-9.481.013-.562.063-1.1.151-1.614-.008-1.293.093-2.57.303-3.832.235-1.513.538-3.026.908-4.539a5.478 5.478 0 0 1 .857-1.916 3.648 3.648 0 0 1 .706-.706v-.051c-.08-1.015-.164-2.04-.252-3.076a346.666 346.666 0 0 1-1.211-22.037 617.569 617.569 0 0 1-.05-30.459c-.718-1.432-1.172-3.012-1.362-4.74l-1.008-8.876a30.49 30.49 0 0 0-.706-3.479c0-.774.185-1.513.555-2.219a3.77 3.77 0 0 1 1.21-1.311c.37-.236.773-.421 1.21-.555.37-.034.723-.05 1.059-.05.37 0 .723.016 1.059.05l.504.202c.169.067.337.151.505.252l.403.202c1.748 2.319 2.622 5.026 2.622 8.119a30.135 30.135 0 0 0 1.412 8.825c.079.253.146.506.202.756.121.193.222.394.303.605.156.496.224.983.201 1.463a.745.745 0 0 1 .051.151c0 .433-.067.837-.202 1.21-.068.469-.152.923-.252 1.362a7.881 7.881 0 0 0-.252.958c.538 11.968.941 23.987 1.21 36.056.034 2.085.135 4.203.303 6.354a331.104 331.104 0 0 0 3.933 33.586 174.109 174.109 0 0 0 3.631 16.49 264.256 264.256 0 0 1 6.959 33.787 501.374 501.374 0 0 1 3.379 30.157 81.844 81.844 0 0 1-1.311 22.894c.033-.201.067-.386.101-.554.033-.168.05-.353.05-.555a615.89 615.89 0 0 1-7.514 36.006 179.912 179.912 0 0 0-4.74 34.846 312.898 312.898 0 0 0 .353 31.266 588.344 588.344 0 0 1 1.109 31.77c3.084 1.121 6.16 2.231 9.229 3.328a48.066 48.066 0 0 0 8.018 2.219 307.958 307.958 0 0 0 22.239 3.228c7.094.739 14.339 1.58 21.735 2.521 4.505.572 9.06.891 13.666.958 7.43.168 14.843.32 22.239.454 7.363.168 14.708.252 22.037.252 7.43 0 14.843.185 22.239.555 7.329.403 14.675.588 22.038.555a2516.96 2516.96 0 0 0 22.491-.202c7.363-.067 14.725-.118 22.088-.151 7.43-.067 14.859.134 22.289.605 6.152.37 12.288 1.093 18.407 2.168 3.745.281 7.476.23 11.195-.151 3.53-.37 7.026-.975 10.489-1.815a50.827 50.827 0 0 1 4.539-.959h-.051c1.748-.269 3.513-.521 5.295-.756 1.681-.235 3.379-.471 5.093-.706.379-.04.749-.09 1.11-.151a.067.067 0 0 1-.051.05.503.503 0 0 0 .152-.05 122.956 122.956 0 0 0 20.323-5.447c.701-.247 1.39-.516 2.067-.806v-.101c2.084-9.716 2.875-19.617 2.37-29.703-.269-5.95-.504-11.901-.706-17.852a1985.454 1985.454 0 0 1-.907-34.745 133.089 133.089 0 0 0-1.463-17.499 800.77 800.77 0 0 0-6.001-34.644 974.974 974.974 0 0 0-1.765-8.624c-2.353-11.564-2.79-23.23-1.311-34.997.269-2.017.504-4.068.706-6.152a338.997 338.997 0 0 1 5.295-34.342 258.734 258.734 0 0 1 9.228-33.586 670.052 670.052 0 0 0 4.136-12.355 675.491 675.491 0 0 0 6.404-20.877 248.207 248.207 0 0 0 6.455-27.887v.151a62.213 62.213 0 0 1 3.026-12.053 504.732 504.732 0 0 0 3.681-10.64 14.176 14.176 0 0 1 2.219-4.236 3.708 3.708 0 0 1 1.916-1.109 3.889 3.889 0 0 1 1.765-.101c.471.101.891.269 1.261.504.975.572 1.597 1.395 1.866 2.471.168.706.134 1.429-.101 2.168a11.173 11.173 0 0 1-1.059 2.219 139.61 139.61 0 0 0-8.573 30.358 133.362 133.362 0 0 1-3.228 14.625c.222.577.374 1.266.454 2.067a2044.937 2044.937 0 0 1 3.026 34.746 295.531 295.531 0 0 0 4.791 34.795 530.86 530.86 0 0 0 7.968 33.838 153.56 153.56 0 0 0 5.597 16.642 348.233 348.233 0 0 1 6.354 16.893 195.136 195.136 0 0 1 4.74 16.137c1.463.601 2.152 2.164 2.068 4.69a700.507 700.507 0 0 0-.303 41.15c.068 3.026.269 6.035.606 9.027v.101c.1.504.336 1.916.705 4.236a266.866 266.866 0 0 0 9.532 38.729 221.215 221.215 0 0 0 4.286 12.002 320.538 320.538 0 0 1 11.044 33.535 1156.49 1156.49 0 0 0 9.38 33.636 204.66 204.66 0 0 1 7.06 34.796 502.44 502.44 0 0 1 2.672 34.09c.505 11.8.286 23.6-.655 35.4a37.54 37.54 0 0 1-3.026 12.003 31.53 31.53 0 0 0-1.614 4.841 9.373 9.373 0 0 1-.454.807c-.168.268-.353.537-.554.806l-.303.303a1.33 1.33 0 0 1-.353.252 3.259 3.259 0 0 1-.353.202l-.403.202-.404.201c-.47.505-.991.975-1.563 1.412a3.496 3.496 0 0 1-1.362.706 9.023 9.023 0 0 1-.907.252h-.454v.606l80.232.05v-.05a1.86 1.86 0 0 1-.454-.051 4.742 4.742 0 0 1-1.261-.555 3.906 3.906 0 0 1-.958-.857 3.656 3.656 0 0 1-.655-1.16 3.5 3.5 0 0 1-.152-.454 1.897 1.897 0 0 1-.05-.453 1.86 1.86 0 0 1-.051-.454 396.903 396.903 0 0 1-2.118-34.645 2982.23 2982.23 0 0 0-.907-34.846 601.457 601.457 0 0 1-.101-34.846 298.23 298.23 0 0 0-1.059-35.099 2411.349 2411.349 0 0 1-2.774-34.695 422.458 422.458 0 0 1-1.16-35.098 369.827 369.827 0 0 0-1.361-35.048 418.115 418.115 0 0 0-4.488-34.745 245.48 245.48 0 0 0-8.371-34.04 600.794 600.794 0 0 1-6.758-22.34 2.962 2.962 0 0 1-.454-.756 267.675 267.675 0 0 1-7.665-34.191 1078.234 1078.234 0 0 1-4.791-34.745c-.988-8.27-1.929-16.541-2.824-24.811.034.202.068.387.101.555-.101-.807-.201-1.631-.302-2.471-.101-.807-.202-1.631-.303-2.471a7.661 7.661 0 0 1-.05-.353v.202a850.18 850.18 0 0 0-4.287-31.418c-.241-1.62-.493-3.251-.756-4.891a419.312 419.312 0 0 1-4.236-35.452 944.921 944.921 0 0 0-3.48-35.199 245.057 245.057 0 0 0-6.051-32.678 53.093 53.093 0 0 0-1.412-4.639c.067.168.134.319.201.454l.202.504a126.132 126.132 0 0 0-6.253-15.481 119.537 119.537 0 0 0-7.968-14.02 101.81 101.81 0 0 0-2.572-3.681.306.306 0 0 0-.05-.101 4.124 4.124 0 0 1-.202-.252 2782.813 2782.813 0 0 0-6.253-7.917 174.358 174.358 0 0 0-7.262-8.573 28.121 28.121 0 0 0-2.874-2.774c.74.572.269.168-1.412-1.21a66.72 66.72 0 0 0-18.406-10.64 2118.284 2118.284 0 0 0-15.381-5.8 101.747 101.747 0 0 0-11.145-3.479 9.648 9.648 0 0 0-.807-.454 11.487 11.487 0 0 1-1.361-1.16 3.355 3.355 0 0 1-.303-.353 25.023 25.023 0 0 1-.303-.857 4.433 4.433 0 0 1-.201-.908 8.594 8.594 0 0 1-.051-.958l.101-.505ZM337.36 706.543l.404-.202c.336-.1.655-.168.958-.201.37-.034.723-.051 1.059-.051.202.034.386.067.555.101.168.034.336.101.504.202.168.067.319.134.454.202a3.725 3.725 0 0 1 1.462 1.512c.047.077.081.144.101.202.945.313 1.97 1.103 3.076 2.37.673.773.757 1.597.252 2.471-1.151 2.045-2.429 2.969-3.832 2.774a1.872 1.872 0 0 1-.152.202c-.201.201-.42.386-.655.554-.37.269-.773.471-1.21.605-.37.068-.74.101-1.11.101-.336 0-.672-.05-1.008-.151a8.156 8.156 0 0 1-.959-.353c-.47-.303-.924-.605-1.361-.908a7.166 7.166 0 0 1-1.463-1.21 3.916 3.916 0 0 1-.706-1.109 3.482 3.482 0 0 0-.151-.454 90.16 90.16 0 0 0-.101-.505V711.636l.101-.504.202-.504.202-.504a3.907 3.907 0 0 1 1.109-1.261c.105-.135.206-.27.303-.404a6.292 6.292 0 0 1 1.966-1.916ZM315.071 509.72c.168 0 .336.017.504.05.202 0 .387.034.555.101l.403.101a4.386 4.386 0 0 1 1.765 1.362 3.99 3.99 0 0 1 .757 1.865 4.98 4.98 0 0 1-.202 1.967 3.866 3.866 0 0 1-1.109 1.614 8942.344 8942.344 0 0 0-19.718 8.522c-6.657 2.925-13.549 4.825-20.676 5.699-2.79.37-5.597.504-8.421.403a164.197 164.197 0 0 1-34.595-5.547 105.315 105.315 0 0 1-16.439-5.9 286.969 286.969 0 0 1-30.611-16.289 18.013 18.013 0 0 1-1.664-1.109 3.62 3.62 0 0 1-1.16-2.017 3.916 3.916 0 0 1 .101-2.32 3.777 3.777 0 0 1 1.513-2.017c.37-.235.773-.42 1.21-.555a21.5 21.5 0 0 1 .555-.101 2.61 2.61 0 0 1 .504-.05c.169.034.337.05.505.05a965.88 965.88 0 0 0 29.854 15.785 83.672 83.672 0 0 0 16.439 6.253 172.596 172.596 0 0 0 31.165 5.295c11.027.84 21.567-1.194 31.619-6.102a145.834 145.834 0 0 1 17.146-7.06Zm133.535-7.917a4.26 4.26 0 0 1 .403-1.261 3.662 3.662 0 0 1 1.211-1.362c.235-.504.554-.941.958-1.311.437-.37.924-.639 1.462-.807.538-.201 1.093-.269 1.664-.201.135.033.269.05.404.05.437.101.824.269 1.16.504.403.236.807.488 1.21.757.37.269.689.554.958.857.874 1.177 1.227 2.505 1.059 3.984-.168 1.681-.924 3.042-2.269 4.085a4.444 4.444 0 0 1-2.169 1.008h-.504a2.61 2.61 0 0 1-.504-.05 20.744 20.744 0 0 1-.555-.101 5.453 5.453 0 0 1-2.219-1.362 16.65 16.65 0 0 1-1.462-1.664 4.92 4.92 0 0 1-.706-1.311 4.151 4.151 0 0 1-.101-1.815Zm-214.524-7.161c.437-.605.908-1.16 1.412-1.664a14.1 14.1 0 0 1 1.715-1.463 4.086 4.086 0 0 1 1.664-.555c.605-.067 1.194 0 1.765.202.437.135.841.336 1.21.605.101.101.202.219.303.353.134.101.235.219.302.353.101.101.202.219.303.353.303.505.488 1.059.555 1.664a3.93 3.93 0 0 1-.202 1.765 8.307 8.307 0 0 1-.353.807 13.527 13.527 0 0 1-3.278 3.228 5.96 5.96 0 0 1-.454.201c-.336.101-.672.185-1.008.253-.168.033-.336.05-.505.05-.168 0-.353-.017-.554-.05a75.133 75.133 0 0 0-.505-.101 2.843 2.843 0 0 1-.504-.152 6.767 6.767 0 0 1-.454-.252 7.023 7.023 0 0 1-.454-.252 3.855 3.855 0 0 0-.403-.353 3.355 3.355 0 0 0-.303-.353 9.071 9.071 0 0 1-.252-.353 3.559 3.559 0 0 1-.554-1.714c-.068-.606 0-1.177.201-1.715.101-.303.219-.588.353-.857Zm113.011-90.671c-.067-.941.336-1.631 1.21-2.068 3.362-1.681 5.396-.672 6.102 3.026a259.36 259.36 0 0 1 4.438 36.763 105.492 105.492 0 0 1-2.017 26.424 16.4 16.4 0 0 1-.706.757c-.269.235-.538.454-.807.655a1.973 1.973 0 0 1-.454.252 2.843 2.843 0 0 1-.504.152 2.71 2.71 0 0 1-.555.151h-.504c-.202 0-.387-.017-.555-.05-.168 0-.336-.034-.504-.101a4.502 4.502 0 0 1-.807-.353 3.741 3.741 0 0 1-.757-.505 5.15 5.15 0 0 1-.605-.605 2.616 2.616 0 0 1-.252-.403 28.127 28.127 0 0 1-.403-.958l-.101-.505a127.584 127.584 0 0 0 .555-36.308 537.478 537.478 0 0 1-2.774-26.324ZM214.718 615.923h.504c9.817 4.942 17.936 11.985 24.357 21.129 6.623 9.447 10.96 19.869 13.011 31.266a206.75 206.75 0 0 1 3.025 26.576 535.823 535.823 0 0 0 3.278 37.418c.269 2.387.74 4.724 1.412 7.01.101.168.202.319.303.454.101.168.185.336.252.504.067.134.134.286.202.454.033.201.067.386.101.554.033.202.05.387.05.555v.454c-.235 1.446-1.042 2.505-2.421 3.177-1.176.538-2.336.487-3.479-.151a5.29 5.29 0 0 1-2.421-2.774 22.376 22.376 0 0 1-.907-3.026 378.726 378.726 0 0 1-3.732-34.947 365.636 365.636 0 0 0-3.782-34.846c-1.849-11.834-6.573-22.323-14.171-31.467-5.211-6.287-11.329-11.397-18.356-15.331a6.177 6.177 0 0 1-.555-.756 3.018 3.018 0 0 1-.403-.807l-.303-.908v-.504c0-.202.017-.387.051-.555 0-.168.033-.336.101-.504.033-.168.084-.336.151-.504.168-.303.336-.589.504-.858.168-.235.37-.437.605-.605.236-.201.471-.386.706-.554l.404-.202.403-.101c.202-.034.387-.067.555-.101.168-.034.353-.05.555-.05Zm201.916 43.57c3.396-11.43 9.8-20.961 19.214-28.593a310.7 310.7 0 0 0 8.068-6.909c2.992-2.689 6.203-3.614 9.632-2.773.975.235 1.631.857 1.967 1.866-.303 3.765-2.488 6.539-6.556 8.32a16.513 16.513 0 0 0-3.681 2.219c-8.002 6.253-14.238 13.818-18.709 22.693a47.3 47.3 0 0 0-3.228 8.523 159.425 159.425 0 0 0-5.295 36.712c-.201 8.035.118 16.036.958 24.004a.38.38 0 0 1 .051.151c.067.168.117.336.151.504.067.168.118.353.151.555.034.168.051.353.051.555 0 .571-.118 1.126-.353 1.664a3.83 3.83 0 0 1-1.009 1.311c-.403.37-.874.656-1.412.857a4.457 4.457 0 0 1-1.765.152 4.28 4.28 0 0 1-1.311-.404 3.233 3.233 0 0 1-1.059-.857 3.955 3.955 0 0 1-.555-.706 2.623 2.623 0 0 1-.252-.404 149.379 149.379 0 0 1-1.412-35.098 161.434 161.434 0 0 1 6.354-34.342Zm170.5-7.716-.101.505a4.847 4.847 0 0 1-.404.958 1.973 1.973 0 0 1-.252.454 22.841 22.841 0 0 1-8.119 4.337 46.035 46.035 0 0 1-10.64 1.765c-.774.033-1.547.033-2.32 0a56.273 56.273 0 0 1-2.32-.353c-.807-.135-1.597-.269-2.37-.404-.605-.101-1.16-.403-1.664-.907a5.422 5.422 0 0 1-.403-.454 1.973 1.973 0 0 1-.303-.505 4.721 4.721 0 0 1-.454-1.21 3.935 3.935 0 0 1-.151-.605c0-.202.017-.42.05-.656l.101-.605.202-.504c.134-.303.302-.605.504-.908.101-.134.219-.252.353-.353.101-.134.219-.252.353-.353.135-.101.286-.185.454-.252.403-.202.807-.37 1.21-.504 3.631.571 7.279.571 10.943 0a28.533 28.533 0 0 0 9.884-3.53c.303-.168.622-.303.958-.404h1.009c.202.034.37.084.504.152.336.101.656.218.958.353.169.101.32.185.454.252.135.134.269.252.404.353.134.134.252.269.353.403.201.303.37.622.504.958.135.303.235.639.303 1.009a2.61 2.61 0 0 1 0 1.008ZM116.735 444.011c.336.068.672.152 1.008.252.303.135.605.303.908.505.235.235.454.487.656.756.235.303.42.639.554 1.009.135.403.252.807.353 1.21-.067.437-.134.857-.201 1.261a4.847 4.847 0 0 1-.404.958 1.973 1.973 0 0 1-.252.454c-4.37 3.967-8.775 7.9-13.212 11.8a46.166 46.166 0 0 0-10.691 13.565 17.715 17.715 0 0 1-2.471 3.631 3.96 3.96 0 0 1-1.967.757c-.639.101-1.277.016-1.916-.252a8.809 8.809 0 0 1-.656-.253l-.403-.302a3.848 3.848 0 0 1-.404-.353l-.302-.404a1.58 1.58 0 0 1-.303-.403 1.988 1.988 0 0 1-.252-.454 2.874 2.874 0 0 1-.151-.504 2.06 2.06 0 0 1-.101-.656 3.656 3.656 0 0 1-.05-.605c2.454-6.186 6.101-11.615 10.943-16.288a1646.15 1646.15 0 0 1 13.514-12.86 12.476 12.476 0 0 1 4.741-2.925c.336.034.689.068 1.059.101Zm256.127 63.49a3.38 3.38 0 0 1 1.261.353l.403.202a146.431 146.431 0 0 0 28.745 18.457c12.573 6.118 25.55 7.295 38.931 3.53a242.68 242.68 0 0 0 33.585-12.154 93.584 93.584 0 0 1 12.002-4.387c1.076-.303 1.933.017 2.572.958 1.012 1.518 1.331 2.863.958 4.034-.342 1.163-1.367 2.155-3.076 2.976a310.07 310.07 0 0 1-32.224 13.414 101.89 101.89 0 0 1-21.23 4.891c.168 0 .336-.016.504-.05.202-.034.386-.05.555-.05-2.253.302-4.522.554-6.808.756a26.319 26.319 0 0 1-6.707-.252 71.983 71.983 0 0 0-2.471-.353 74.772 74.772 0 0 1-23.5-7.968 215.707 215.707 0 0 1-21.533-13.061 31.743 31.743 0 0 1-5.85-5.194 4.663 4.663 0 0 1-.504-1.21 3.692 3.692 0 0 1-.051-1.362c.034-.437.168-.857.404-1.261l.403-.807c.101-.1.219-.201.353-.302a1.01 1.01 0 0 1 .353-.303c.101-.101.219-.201.353-.302a4.625 4.625 0 0 1 1.211-.505c.437-.1.89-.117 1.361-.05ZM120.618 645.726c.134.067.286.151.454.252.134.067.269.168.403.303l.403.302c.135.135.253.269.353.404l.303.403c.067.168.135.32.202.454.067.135.117.286.151.454.067.303.101.622.101.958.034.336.017.656-.051.958a7.881 7.881 0 0 1-.252.958l-.201.404a5.3 5.3 0 0 1-2.522 2.017 20.333 20.333 0 0 1-3.883 1.109 13.33 13.33 0 0 1-3.832.152 37.677 37.677 0 0 1-11.952-4.388 62.453 62.453 0 0 1-10.388-7.463 10.888 10.888 0 0 1-2.32-2.925 2.873 2.873 0 0 1-.151-.504l-.101-.505v-1.008l.1-.504c.034-.168.085-.337.152-.505a1.96 1.96 0 0 1 .252-.453 1.33 1.33 0 0 1 .303-.454c.1-.169.218-.303.353-.404.1-.134.235-.252.403-.353.135-.134.286-.235.454-.302a2 2 0 0 1 .454-.253c.168-.067.336-.117.504-.151l.504-.101h1.009l.504.101c.168.034.336.084.505.151a176.045 176.045 0 0 0 7.866 6.153 44.203 44.203 0 0 0 9.33 5.143 10.25 10.25 0 0 0 4.488.707 10.617 10.617 0 0 0 1.815-.656 9.055 9.055 0 0 1 1.917-.605c.403-.067.806-.118 1.21-.151.235.033.454.084.655.151.169.033.337.084.505.151Zm443.066-189.36h.555a283.433 283.433 0 0 1 15.935 9.884 90.458 90.458 0 0 1 15.079 12.658c1.613 1.715 2.891 3.597 3.832 5.648.034.235.051.454.051.656a3.906 3.906 0 0 1-.202 1.26 2.758 2.758 0 0 1-.252.555 8.173 8.173 0 0 1-.303.555l-.403.504-.404.303a2.664 2.664 0 0 1-.453.302 3.546 3.546 0 0 1-.505.252 2.843 2.843 0 0 1-.504.152c-.37.067-.74.1-1.11.1-.403-.033-.79-.1-1.159-.201a4.585 4.585 0 0 1-1.059-.555 1.943 1.943 0 0 1-.505-.353 64.807 64.807 0 0 0-12.758-12.254 181.67 181.67 0 0 0-15.078-9.884 13.654 13.654 0 0 1-4.438-3.984 2.924 2.924 0 0 0-.151-.504l-.101-.605a2.12 2.12 0 0 1 0-.656c0-.202.017-.42.05-.656a3.91 3.91 0 0 0 .152-.605c.1-.202.201-.386.302-.555.101-.168.202-.319.303-.453.101-.135.218-.252.353-.353.101-.135.218-.253.353-.353.168-.101.319-.202.454-.303.134-.067.285-.134.453-.202l.505-.201.504-.101c.168-.034.336-.051.504-.051ZM383.856 22.376a31.37 31.37 0 0 0-12.507.808 60.242 60.242 0 0 1-21.634 1.714 85.94 85.94 0 0 0-21.18.505 67.848 67.848 0 0 1-20.373-.05 105.427 105.427 0 0 0-20.575-1.211 69.657 69.657 0 0 0-20.423 3.984 32.362 32.362 0 0 0-8.674 4.538c-4.539 6.32-7.699 13.297-9.481 20.928a75.924 75.924 0 0 0-1.916 21.332 154.285 154.285 0 0 0 2.572 21.13 69.765 69.765 0 0 1 1.109 9.076c.034.807-.286 1.446-.958 1.917-2.084 1.546-3.816 1.546-5.194 0a19.009 19.009 0 0 0-.202-.101 21.514 21.514 0 0 1-2.723-1.513 20.16 20.16 0 0 0-6.909-3.026 24.98 24.98 0 0 0-1.513.252 13.55 13.55 0 0 1-2.017.152h-.907c-2.387 6.892-3.127 14.153-2.219 21.785.235 1.95.319 3.917.252 5.9a475.28 475.28 0 0 0-.101 3.026c-.234 6.391-.453 12.762-.656 19.112-.168 4.606 1.48 8.187 4.942 10.742a4.968 4.968 0 0 0 3.026 1.008c.202 0 .404.017.605.051a75.506 75.506 0 0 1 8.573-3.833c.74-.269 1.429-.168 2.068.303 1.983 1.445 3.11 3.496 3.379 6.152.1.941.235 1.883.403 2.824.74.74 1.177 1.832 1.311 3.278 0 .168.017.319.051.454.571.941.756 2 .554 3.177-.067.302-.134.588-.201.857.302 3.597.638 7.211 1.008 10.842a595.996 595.996 0 0 0 2.471 20.272c.975 6.825 3.379 13.145 7.211 18.962a75.133 75.133 0 0 0 4.539 6.202A116.519 116.519 0 0 0 281.99 248.6a133.837 133.837 0 0 0 16.389 12.002c.471.303.958.572 1.462.807h-.05c6.186 3.093 12.708 4.824 19.566 5.194a28.354 28.354 0 0 0 7.161-.504c1.715-.336 3.312-.336 4.791 0 .639-.236 1.412-.286 2.32-.151.403.067.79.218 1.159.453 8.136.673 16.07-.453 23.803-3.378a71.811 71.811 0 0 0 15.481-8.17 131.433 131.433 0 0 0 10.691-8.119c.034-.033.068-.05.101-.05a100.903 100.903 0 0 0 17.701-15.028 36.288 36.288 0 0 0 4.79-6.707 100.192 100.192 0 0 0 3.53-7.161 68.26 68.26 0 0 0 5.295-19.717c.236-1.85.303-3.732.202-5.648a115.787 115.787 0 0 1 .353-17.096c.034-.202.084-.386.151-.555 0-2.386.051-4.773.152-7.16.134-4.001 2.084-5.598 5.849-4.791a5.44 5.44 0 0 1 3.127 1.765c.303.336.605.639.908.908a3.107 3.107 0 0 0 1.664.353 14.972 14.972 0 0 0 1.765-.202 14 14 0 0 0 1.614-.404c3.16-3.093 4.975-6.976 5.446-11.649.067-.941.185-1.865.353-2.773.639-4.098 1.16-8.216 1.563-12.355.308-3.265.543-6.543.706-9.834.269-6.018.336-12.052.202-18.104a5.374 5.374 0 0 0-.202-1.008c-4.236-1.614-7.968-.925-11.195 2.067a16.862 16.862 0 0 1-.706 1.614c-.74 1.513-1.95 2.236-3.631 2.168a3.884 3.884 0 0 1-1.715-.504c-.806-.471-1.378-1.126-1.714-1.967a4.311 4.311 0 0 1-.151-2.521c.067-.269.168-.521.302-.756a2.79 2.79 0 0 1 .202-.706c.202-7.666.235-15.364.101-23.097a361.556 361.556 0 0 0-.958-19.97 115.651 115.651 0 0 0-3.329-19.818c-1.781-6.892-5.463-12.473-11.044-16.742a3.235 3.235 0 0 0-.806-.454l.605.201a68.87 68.87 0 0 0-22.138-6.656Zm-74.988 65.356a40.096 40.096 0 0 0-8.018-.605c-3.429.101-6.724.858-9.884 2.27-1.21.571-2.437 1.126-3.681 1.664a32.102 32.102 0 0 0-8.321 5.295c-.504.47-1.026.907-1.563 1.311a15.03 15.03 0 0 0-3.934 4.186c-.101 1.21-.655 2.185-1.664 2.924-.908.673-1.933.925-3.076.757a4.427 4.427 0 0 1-1.311-.504c-1.48-.975-2.135-2.371-1.967-4.186a8.229 8.229 0 0 1 1.916-4.387c.437-.505.723-.84.858-1.009l.554-.605a39.142 39.142 0 0 1 6.859-6.052 72.399 72.399 0 0 0 1.664-1.21 36.732 36.732 0 0 1 9.228-5.043 92.731 92.731 0 0 1 8.018-2.572 19.24 19.24 0 0 1 3.883-.706 53.662 53.662 0 0 1 10.389.202 40.974 40.974 0 0 1 9.985 2.471c2.118.84 4.185 1.732 6.202 2.673.236.1.471.235.706.403 1.681 2.22 1.496 4.236-.554 6.052a2.726 2.726 0 0 1-2.118.706 11.006 11.006 0 0 1-3.833-.908 46.416 46.416 0 0 0-10.338-3.126Zm-12.506 30.258c-3.16.134-5.278-1.194-6.354-3.984a3.21 3.21 0 0 1-.101-2.37c.84-2.589 2.572-4.32 5.194-5.194 3.765-1.244 7.01-.538 9.733 2.118.37.369.622.79.756 1.26.74 2.824-.168 4.976-2.723 6.455a12.982 12.982 0 0 1-6.505 1.715Zm57.791-27.03c-1.916 1.311-3.715 1.177-5.396-.403-.941-.875-1.277-1.967-1.008-3.278.403-1.816 1.496-3.127 3.277-3.934a24.99 24.99 0 0 0 1.665-.807 34.534 34.534 0 0 1 14.574-3.933c1.613-.067 3.21 0 4.79.202 3.53.37 6.976 1.126 10.338 2.269a88.999 88.999 0 0 1 9.481 3.883 173.517 173.517 0 0 1 9.632 4.942 22.714 22.714 0 0 1 4.336 3.227c.538.505.824 1.11.858 1.816.202 2.454-.891 3.95-3.278 4.488a3.483 3.483 0 0 1-1.664 0 249.632 249.632 0 0 1-7.161-3.883 162.212 162.212 0 0 0-7.211-3.782 28.814 28.814 0 0 0-1.765-.858c-.034 0-.118-.05-.253-.15l.101.1a6.13 6.13 0 0 1-.454-.202h.101l-.504-.201c-3.093-1.446-6.438-2.538-10.035-3.278a27.271 27.271 0 0 0-10.943-.101c-3.463.639-6.623 1.933-9.481 3.883Zm18.154 16.087a9.627 9.627 0 0 1 5.396-.858c3.463.471 5.278 2.505 5.447 6.102a4.053 4.053 0 0 1-.908 2.875c-1.816 2.286-4.219 3.429-7.211 3.429-.135 0-.269-.017-.404-.051h-.353a1.134 1.134 0 0 0-.353-.05 4.79 4.79 0 0 1-1.412-.756 4.372 4.372 0 0 1-.857-.908 3.01 3.01 0 0 1-1.16-1.261 1.93 1.93 0 0 0-.101-.252c-1.513-1.278-1.883-2.942-1.109-4.992.538-1.48 1.546-2.572 3.025-3.278ZM336.1 148.045c1.109.404 1.832 1.177 2.168 2.32.471 1.782.067 3.362-1.21 4.74a34.473 34.473 0 0 0-3.379 4.287c-1.715 2.555-1.832 5.127-.353 7.715.269.168.572.303.908.404.37.101.739.185 1.109.252h-.101a.896.896 0 0 1 .252.05c3.43.404 6.876.521 10.338.353l1.412-.101c2.455-.134 3.934.992 4.438 3.379.235 1.21-.067 2.253-.908 3.127-1.075 1.109-2.403 1.714-3.984 1.815-1.68.135-3.361.118-5.042-.05-3.53 0-6.993-.488-10.389-1.463-2.622-.739-4.522-2.353-5.698-4.841-1.614-3.295-1.9-6.69-.857-10.186 1.042-3.43 2.824-6.405 5.345-8.926a4.28 4.28 0 0 0 .555-.555c1.076-2.421 2.874-3.194 5.396-2.32Zm78.971-22.239c3.564-1.076 6.925-.655 10.086 1.261a10.482 10.482 0 0 1 2.874 2.572c1.917 2.522 2.724 5.178 2.421 7.968a12.032 12.032 0 0 1-.656 2.874 6.583 6.583 0 0 1-1.563 2.471 24.127 24.127 0 0 1-9.682 5.951 10.194 10.194 0 0 1-3.329.554c-2.353.068-4.454-.538-6.303-1.815a2.196 2.196 0 0 1-.858-1.059c-.874-2.32-.235-4.068 1.917-5.245.941-.504 1.916-.622 2.924-.353 2.724.706 5.228.135 7.514-1.714a24.474 24.474 0 0 0 1.765-1.513c.168-.135.303-.32.404-.555a3.802 3.802 0 0 0-.404-1.462 5.865 5.865 0 0 0-.806-1.412 5.228 5.228 0 0 0-.555-.656 4.812 4.812 0 0 0-.908-.302 6.125 6.125 0 0 0-1.109-.101h-.757c-2.084 1.58-4.034 1.412-5.85-.505a3.24 3.24 0 0 1-.857-2.37c.168-2.353 1.412-3.883 3.732-4.589Zm-162.179-5.295c1.11 1.547 1.076 3.06-.101 4.539-.975 1.176-2.252 1.849-3.832 2.017a7.163 7.163 0 0 0-1.816.454c-2.521.975-4.168 2.706-4.942 5.194-.067.134-.084.302-.05.504v.101c.034.067.05.118.05.151 0 .034.017.084.051.152 1.109 1.344 2.605 2.034 4.488 2.067 1.95.034 3.883.168 5.799.404a62 62 0 0 1 2.27.353c1.68.538 2.622 1.681 2.824 3.429.201 1.614-.387 2.874-1.765 3.782-.975.639-2.034.824-3.177.555-3.53-.337-7.01-.824-10.439-1.463a9.71 9.71 0 0 1-4.64-2.269c-2.146-1.893-3.289-4.146-3.429-6.758-.041-.844.026-1.734.202-2.672.571-3.093 2.084-5.665 4.538-7.716 2.724-2.286 5.833-3.816 9.33-4.589 1.95-.47 3.496.118 4.639 1.765Zm118.81 85.376c1.412 1.647 1.463 3.345.152 5.093a10.18 10.18 0 0 1-2.018 1.967 415.353 415.353 0 0 1-6.303 4.387 39.86 39.86 0 0 1-8.977 4.438 60.783 60.783 0 0 1-9.43 2.521.22.22 0 0 1-.101.051 24.522 24.522 0 0 1-5.194.454 73.599 73.599 0 0 1-10.539-.555 62.708 62.708 0 0 1-7.817-1.513 54.623 54.623 0 0 1-9.783-3.681 69.39 69.39 0 0 1-5.749-3.228 18.491 18.491 0 0 1-4.084-3.479c-1.749-1.95-1.883-3.934-.404-5.951.605-.874 1.429-1.344 2.471-1.412 1.916-.168 3.295.589 4.135 2.27a43.787 43.787 0 0 0 8.724 5.295 41.436 41.436 0 0 0 9.985 3.076 91.168 91.168 0 0 0 10.439 1.21c3.9.202 7.682-.319 11.346-1.563 2.018-.706 4.018-1.48 6.001-2.32a40.39 40.39 0 0 0 10.036-6.304c1.076-.975 2.303-1.597 3.681-1.865 1.345-.303 2.488.067 3.429 1.109Zm-26.021 20.474a.486.486 0 0 0-.202.05c.034-.033.068-.05.101-.05h.101Z"/></g><defs><clipPath id="a"><path fill="#fff" d="M0 0h680v943H0z"/></clipPath></defs></svg>