<svg xmlns="http://www.w3.org/2000/svg" width="680" height="943" fill="none"><g clip-path="url(#a)"><path fill="#000" d="M295.82 495.355h-.506a155.813 155.813 0 0 0-19.204 12.008 688.915 688.915 0 0 1-16.112 11.451c-10.911 7.499-22.969 12.295-36.177 14.39a95.253 95.253 0 0 0-10.336 2.28 4351.155 4351.155 0 0 0-37.393 10.589c-2.027.575-4.02 1.2-5.979 1.875-7.87 2.601-14.677 1.318-20.419-3.851l-.507-.912a4.582 4.582 0 0 0-.912-1.317 11.079 11.079 0 0 0-1.115-1.064 4.336 4.336 0 0 0-.76-.456 184.626 184.626 0 0 1-6.84-25.182c-2.499-12.836-2.601-25.689-.304-38.558.98-5.675 1.301-11.89.963-18.646a1929.046 1929.046 0 0 0-2.382-37.343l-.304-.405a1.576 1.576 0 0 0-.304-.405 43.566 43.566 0 0 0-.304-.304 3.783 3.783 0 0 0-.405-.355l-.405-.203a1.135 1.135 0 0 0-.406-.202 2.863 2.863 0 0 0-.506-.152 9.78 9.78 0 0 0-.456-.102 2.64 2.64 0 0 0-1.014 0 9.78 9.78 0 0 0-.456.102 2.838 2.838 0 0 0-.506.152 1.896 1.896 0 0 0-.406.152l-.405.304c-.135.067-.27.169-.405.304l-.304.304c-.136.135-.237.27-.304.405l-.304.405a212.592 212.592 0 0 0 1.013 30.705 66.13 66.13 0 0 1-.507 17.531c-2.128 13.039-2.432 26.061-.912 39.065 1.52 12.904 4.881 25.351 10.083 37.343 2.795 6.456 4.704 13.077 5.726 19.862.877 5.957 1.08 12.037.608 18.24-.406 4.864-.845 9.711-1.318 14.542a1243.37 1243.37 0 0 0-3.242 39.065 270.579 270.579 0 0 0-.558 21.179.406.406 0 0 1-.05.051 3.278 3.278 0 0 1-.305.354l-.608.811a212.546 212.546 0 0 1-2.33 17.126 377.847 377.847 0 0 0-4.763 38.862c-.946 13.343-2.314 26.077-4.104 38.204a1216.328 1216.328 0 0 1-6.283 38.457 629.973 629.973 0 0 0-3.243 19.406 1906.737 1906.737 0 0 1-6.384 38.508 296.871 296.871 0 0 0-2.989 21.23 347.965 347.965 0 0 0-1.824 39.369 40.03 40.03 0 0 0 .81 7.549c2.476 11.972 7.053 23.068 13.731 33.289h8.462a.75.75 0 0 0 .051-.253 1.31 1.31 0 0 0 0-.507 8.76 8.76 0 0 0-.152-.912 1.837 1.837 0 0 0-.152-.456 1.972 1.972 0 0 0-.254-.456l-.152-.304c.006-6.738.208-13.46.608-20.166.845-12.903 1.706-25.807 2.584-38.71a654.82 654.82 0 0 1 3.496-35.316 892.713 892.713 0 0 1 4.256-29.235 82.706 82.706 0 0 1 17.38 2.685 578.748 578.748 0 0 0 28.222 6.587 544.631 544.631 0 0 0 19.406 3.597 687.834 687.834 0 0 0 38.963 5.371 539.138 539.138 0 0 1 38.913 5.574 505.601 505.601 0 0 0 39.015 5.37 385.502 385.502 0 0 0 33.086.811c13.444-.236 26.905-.287 40.382-.152a441.602 441.602 0 0 0 41.194-1.52 1296.548 1296.548 0 0 1 39.825-2.736 213.397 213.397 0 0 0 37.291-5.32c.237 0 .49-.017.76-.051a86.293 86.293 0 0 0 5.067-.557c1.236-.167 2.215-.352 2.939-.558.191 1.547.377 3.084.557 4.611a571.064 571.064 0 0 1 3.243 38.761c.304 6.452.54 12.887.709 19.305.338 13.511 1.132 26.246 2.382 38.204.033.168.084.337.152.506.033.135.084.287.152.456.101.135.185.27.253.406l.304.405c.101.135.22.253.355.355l.354.354c.135.068.287.152.456.254.136.067.288.135.456.202.136.068.288.118.456.152l.507.102a2.64 2.64 0 0 0 1.013 0 9.78 9.78 0 0 0 .456-.102l.507-.101a2.72 2.72 0 0 0 .405-.253c.136-.068.271-.152.406-.254.135-.067.27-.169.405-.304.203-.202.422-.439.659-.709l.203-.405a1.16 1.16 0 0 0 .202-.406c.068-.169.118-.338.152-.506.068-.304.118-.625.152-.963-1.081-8.512-1.706-17.379-1.875-26.601a857.481 857.481 0 0 0-1.621-39.572 478.494 478.494 0 0 0-4.155-39.267 159.763 159.763 0 0 0-2.584-13.326 212.519 212.519 0 0 1-5.523-39.369l-.202-.507-.203-.608a2.778 2.778 0 0 0-.253-.557v-.71c0-.168-.017-.337-.051-.506a9.863 9.863 0 0 0-.101-.456l-.304-.912c.338-5.878.405-11.857.202-17.937a186.367 186.367 0 0 1 3.041-40.635 299.351 299.351 0 0 0 4.56-37.951c.236-4.324.456-8.647.658-12.971l.304-6.536a523.05 523.05 0 0 1 4.408 18.392 508.32 508.32 0 0 1 3.344 16.265 1707.619 1707.619 0 0 1 6.486 36.734c2.089 12.7 4.267 25.384 6.536 38.052.004-.11.004-.228 0-.355a754.806 754.806 0 0 0 3.902 22.092 466.212 466.212 0 0 1 5.674 38.609 822.771 822.771 0 0 0 5.067 38.659 181.014 181.014 0 0 1 1.723 39.167 32.1 32.1 0 0 1-2.027 9.373 228.488 228.488 0 0 1-11.653 25.841c0 .169.016.338.05.507.034.168.068.321.102.456.033.169.084.337.152.506.033.135.084.271.152.406l.304.405c.067.135.168.27.304.405l.05.051h5.878c.081-.063.148-.13.202-.203l.304-.405a58.66 58.66 0 0 1 4.003-7.448c6.486-10.201 9.931-21.298 10.336-33.289a211.995 211.995 0 0 0-2.33-39.775 314.535 314.535 0 0 1-2.331-19.557 335.63 335.63 0 0 0-5.371-37.596 588.439 588.439 0 0 1-6.435-38.356 16.008 16.008 0 0 1-.05-.405l-.102-.659a727.937 727.937 0 0 0-3.344-21.686 7159.724 7159.724 0 0 1-6.283-37.19 757.357 757.357 0 0 0-6.586-34.708c-2.669-12.396-6.52-24.286-11.553-35.67.157-3.815.309-7.632.456-11.451a39.798 39.798 0 0 0-.861-10.032 146.547 146.547 0 0 1-2.888-39.724 498.665 498.665 0 0 0 .912-37.596c.117-.253.235-.506.355-.76a2.72 2.72 0 0 0 .253-.405c.101-.169.169-.338.203-.507a6.01 6.01 0 0 0 .202-.456.618.618 0 0 0 0-.202 160.454 160.454 0 0 0 9.779-28.932 1867.402 1867.402 0 0 0 6.283-27.208c2.736-12.161 3.31-24.338 1.723-36.532a2.648 2.648 0 0 0-.254-.405.982.982 0 0 0-.304-.355 3.275 3.275 0 0 0-.304-.355l-.405-.304a2.64 2.64 0 0 0-.405-.253l-.406-.203a2.95 2.95 0 0 0-.506-.152 9.863 9.863 0 0 0-.456-.101h-1.014a9.863 9.863 0 0 0-.456.101 2.95 2.95 0 0 0-.506.152l-.406.203a2.64 2.64 0 0 0-.405.253l-.405.304c-.102.102-.203.22-.304.355a.982.982 0 0 0-.304.355l-.304.405c.371 11.181-.355 22.378-2.179 33.593a211.08 211.08 0 0 1-3.243 15.808 251.236 251.236 0 0 1-11.958 36.988 25.665 25.665 0 0 0-1.165 3.597.696.696 0 0 0-.101.102 10.86 10.86 0 0 1-3.699 3.09 113.67 113.67 0 0 0-5.219 2.888 27.897 27.897 0 0 1-8.816 1.318 168.154 168.154 0 0 1-35.265-4.155 217.645 217.645 0 0 1-36.43-11.603 75.02 75.02 0 0 1-14.643-8.208 358.23 358.23 0 0 0-31.516-20.369l-.304-.304a1.35 1.35 0 0 0-.355-.253 1.777 1.777 0 0 0-.354-.355 2.677 2.677 0 0 0-.406-.253 1.969 1.969 0 0 0-.456-.253 3.734 3.734 0 0 1-.456-.152 9.78 9.78 0 0 0-.456-.102 2.407 2.407 0 0 0-.456-.05c-.169 0-.337-.017-.506-.051a8.707 8.707 0 0 1-.456.101 9.78 9.78 0 0 0-.456.102 1.758 1.758 0 0 0-.456.152 1.969 1.969 0 0 0-.456.253 2.727 2.727 0 0 0-.406.253c-.135.102-.253.22-.354.355-.135.101-.254.22-.355.355a2.64 2.64 0 0 0-.253.405c-.102.135-.186.27-.254.405a2.96 2.96 0 0 0-.152.507 9.863 9.863 0 0 0-.101.456 2.335 2.335 0 0 0-.051.456c-.034.169-.05.338-.05.507.033.169.067.321.101.456 0 .169.034.338.101.506.034.136.085.288.152.456 1.554 2.196 3.581 3.919 6.08 5.169a44.391 44.391 0 0 1 6.942 4.357 189.784 189.784 0 0 0 33.137 20.369c11.552 5.539 23.679 9.778 36.379 12.717a361.499 361.499 0 0 0 38.812 6.79c1.318.067 2.635.034 3.952-.102a44.277 44.277 0 0 0 13.985-3.8c.942-.437 1.854-.91 2.736-1.418a498.566 498.566 0 0 1-1.166 24.067 156.964 156.964 0 0 0 1.976 38.761c2.264 12.87 2.551 25.874.862 39.014a73.947 73.947 0 0 0-.659 9.83 300.708 300.708 0 0 1-2.331 39.014 2418.175 2418.175 0 0 1-5.066 38.711 170.44 170.44 0 0 0-.912 37.95c-.01.01-.027.01-.051 0-2.5.034-4.915.608-7.246 1.723a318.907 318.907 0 0 1-13.781 6.283 185.877 185.877 0 0 1-14.795 5.674l.506-.202.507-.203a130.833 130.833 0 0 1-8.715 2.837 47.108 47.108 0 0 0-9.222 3.598 586.494 586.494 0 0 1-35.467 16.872 63.756 63.756 0 0 1-20.47 5.118c-9.154.777-18.274.253-27.361-1.571a753.19 753.19 0 0 1-39.166-8.867c-9.695-2.432-19.44-3.023-29.236-1.773a197.464 197.464 0 0 1-40.179 1.064 55.58 55.58 0 0 1-10.033-1.621 3641.54 3641.54 0 0 0-33.187-8.361 54.367 54.367 0 0 1-13.731-5.523 327.339 327.339 0 0 0-32.884-16.315 21.038 21.038 0 0 0-5.877-1.57 826.747 826.747 0 0 1-19.761-2.635c.321-2.643.355-5.345.101-8.107a167.134 167.134 0 0 1-.658-10.894 3102.882 3102.882 0 0 0-1.47-39.622 591.154 591.154 0 0 0-2.077-29.945 275.032 275.032 0 0 1-.912-40.18 547.757 547.757 0 0 1 3.547-39.369 203.137 203.137 0 0 0 1.317-37.899 47.858 47.858 0 0 0-2.179-12.059 27.52 27.52 0 0 0 9.07 1.52 155.77 155.77 0 0 0 34.1-7.904 237.713 237.713 0 0 1 38.051-9.931 60.257 60.257 0 0 0 19.001-6.739 308.927 308.927 0 0 0 38.102-25.233c-.107.121.366-.081 1.419-.608a47.24 47.24 0 0 0 4.053-2.229 15.08 15.08 0 0 0 3.446-2.888l.202-.406c.068-.169.136-.321.203-.456.034-.169.068-.321.101-.456.034-.169.051-.338.051-.506.034-.136.051-.288.051-.456a2.565 2.565 0 0 1-.051-.507 9.863 9.863 0 0 1-.101-.456 5.995 5.995 0 0 0-.203-.456 5.625 5.625 0 0 0-.203-.456 2.677 2.677 0 0 1-.253-.406 3.897 3.897 0 0 1-.355-.405 3.275 3.275 0 0 0-.354-.304 2.647 2.647 0 0 0-.406-.253 2.648 2.648 0 0 0-.405-.254 3.734 3.734 0 0 0-.456-.152 3.734 3.734 0 0 0-.456-.152 2.64 2.64 0 0 0-.507-.05h-.456Zm10.387 321.184a56.41 56.41 0 0 1 19.203.152 2431.05 2431.05 0 0 1 40.434 7.55 21.094 21.094 0 0 1-.558-.101 2.824 2.824 0 0 0-.557-.051c1.655.27 3.293.591 4.915.963a305.748 305.748 0 0 0 14.693 2.888c4.865.844 9.762 1.402 14.694 1.672a35.349 35.349 0 0 0 9.424-.76c12.667-2.703 24.76-7.178 36.279-13.427a177.948 177.948 0 0 1 33.137-13.934c10.876-3.344 21.922-7.921 33.136-13.731.507-.034.98-.135 1.419-.304.063-.019.113-.036.152-.051l.253.051c.136.068.288.118.457.152.135.034.287.068.456.101.168.034.337.051.506.051h.507c.242.015.478.015.709 0a130.553 130.553 0 0 0 2.939 22.649 369.941 369.941 0 0 1 4.763 25.384 7.857 7.857 0 0 1-.456.152c-.406.135-.794.287-1.166.456-.405.034-.793.068-1.165.102l-1.115.101c-.54.101-1.064.203-1.57.304a6.423 6.423 0 0 0-.862.253c-1.756 0-3.479.186-5.168.558a187.777 187.777 0 0 1-32.681 4.712 1609.139 1609.139 0 0 0-40.382 2.837 443.276 443.276 0 0 1-40.18 1.52 1261.111 1261.111 0 0 0-40.788.254 312.72 312.72 0 0 1-45.652-2.331 1049.888 1049.888 0 0 1-39.318-5.624 1203.516 1203.516 0 0 0-38.102-5.473 3547.905 3547.905 0 0 1-20.217-2.584 258.978 258.978 0 0 1-38.761-8.106c-10.66-3.092-21.452-4.95-32.377-5.574a1006 1006 0 0 0 .608-3.445.858.858 0 0 0 0-.203.46.46 0 0 0 .051-.152c.113-.868.248-1.746.405-2.635.777-4.83 1.605-9.644 2.483-14.44.878-4.662 1.52-9.357 1.925-14.086.255-.446.492-.885.71-1.317 2.032.45 4.093.771 6.181.963 4.054.405 8.09.81 12.11 1.215 4.763.473 9.34 1.841 13.731 4.105a305.933 305.933 0 0 1 8.107 4.256 247.053 247.053 0 0 0 26.043 12.261 191.329 191.329 0 0 0 14.593 5.219 216.197 216.197 0 0 0 38.963 8.259c12.363 1.486 24.726 1.216 37.089-.811Zm257.749 114.054a.639.639 0 0 1-.153.304l.102-.203.051-.101Zm.354-.963a1.951 1.951 0 0 1-.152.406.785.785 0 0 1-.152.304c.034-.032.051-.066.051-.101a1.11 1.11 0 0 1 .152-.355 1.12 1.12 0 0 1 .152-.355c0 .034-.017.068-.051.101ZM143.664 698.939c.21 5.207.362 10.409.456 15.606.135 6.451.304 12.92.507 19.405a997.15 997.15 0 0 0 1.925 38.407 17.11 17.11 0 0 1-.76-.101 8.707 8.707 0 0 0-.456.101 9.863 9.863 0 0 0-.456.101 5.995 5.995 0 0 0-.456.203l-.405.203-.405.304a3.094 3.094 0 0 0-.355.304l-.304.405a1.18 1.18 0 0 0-.253.405 2.656 2.656 0 0 0-.254.406 2.863 2.863 0 0 1-.152.506 9.863 9.863 0 0 1-.101.456c0 .169-.017.338-.051.507 0 .169.017.338.051.507 0 .135.017.287.051.456.01.052.01.103 0 .152a8.042 8.042 0 0 0-.71 2.077 305.895 305.895 0 0 0-3.04 15.859 557.208 557.208 0 0 0-2.685 17.785.611.611 0 0 1-.051.202c.014-.008.014-.025 0-.05-.109.861-.227 1.723-.355 2.584a153.9 153.9 0 0 1-.202 1.672 5.687 5.687 0 0 0-.051.253.86.86 0 0 0 0-.203 365.86 365.86 0 0 0-2.837 19.457 15150.316 15150.316 0 0 1-4.713 38.812 780.524 780.524 0 0 0-3.8 38.761 296.987 296.987 0 0 0-.81 19.152 628.602 628.602 0 0 1-2.28-4.763 33.973 33.973 0 0 1-3.192-12.464c-.879-13.646-.71-27.31.506-40.99a446.418 446.418 0 0 1 5.016-38.356 7185.721 7185.721 0 0 1 6.689-37.393 2039.72 2039.72 0 0 0 6.536-37.545 371.278 371.278 0 0 0 4.306-39.065 175.248 175.248 0 0 1 3.091-24.118Zm274.52-125.201a5.995 5.995 0 0 1-.456.203 2.647 2.647 0 0 0-.406.253 2.72 2.72 0 0 0-.405.253c-.135.102-.253.22-.355.355-.135.102-.236.22-.304.355l-.304.405a6.821 6.821 0 0 1-.253.456 2.873 2.873 0 0 0-.152.507c-.034.169-.068.355-.101.557a2.824 2.824 0 0 0 0 1.064l.101.507.203.507c.067.169.135.321.202.456a44.69 44.69 0 0 0 11.603 7.904 131.033 131.033 0 0 1 17.227 9.728 98.925 98.925 0 0 0 22.902 11.4c.789.359 1.582.679 2.382.963a52.658 52.658 0 0 0 9.019 2.534c3.175.641 6.384.928 9.627.861 1.283.067 2.55.017 3.8-.152a136.527 136.527 0 0 0 10.387-1.824 38.269 38.269 0 0 0 8.157-2.838l.355-.354c.135-.135.253-.27.354-.406.136-.135.254-.27.355-.405l.203-.507a2.95 2.95 0 0 0 .152-.506c.067-.169.101-.338.101-.507.034-.203.068-.388.102-.557l-.102-.507c0-.203-.034-.388-.101-.557a2.96 2.96 0 0 0-.152-.507 5.995 5.995 0 0 1-.203-.456l-.304-.405a3.68 3.68 0 0 0-.355-.406 3.769 3.769 0 0 1-.405-.354l-.405-.304a5.995 5.995 0 0 1-.456-.203l-.507-.203a17.575 17.575 0 0 1-.557-.101 3.4 3.4 0 0 0-.558-.051 155.24 155.24 0 0 1-8.005 2.23 39.06 39.06 0 0 1-9.07 1.165c-13.207.068-25.452-3.412-36.734-10.438a920.147 920.147 0 0 0-33.694-20.013 3.588 3.588 0 0 0-.456-.153l-.507-.101a1.873 1.873 0 0 0-.456-.05h-.507a8.707 8.707 0 0 0-.456.101l-.506.101Zm-272.29-8.563c-.034-.169-.051-.202-.051-.101.031.124.048.225.051.304v-.203Zm459.913 65.565a12.526 12.526 0 0 0-.658-.71 12.116 12.116 0 0 0-.811-.557 5.995 5.995 0 0 0-.456-.203 1.837 1.837 0 0 0-.456-.152 11.372 11.372 0 0 0-.456-.101c-1.621.135-3.209.49-4.763 1.064a234.5 234.5 0 0 1-20.976 6.942c-7.871 2.195-14.88 5.978-21.028 11.349-.101.135-.185.27-.253.406a1.969 1.969 0 0 0-.253.456c-.068.135-.119.27-.152.405l-.102.507a4.546 4.546 0 0 0 0 .962c0 .304.034.625.102.963.033.135.084.27.152.405.067.169.152.321.253.456.068.135.152.271.253.406l.304.405c.169.101.321.203.456.304.135.135.271.237.406.304.169.101.337.186.506.253.169.068.338.119.507.152.135.034.304.068.507.102h1.013l.507-.102c.169-.067.338-.118.506-.152a152.349 152.349 0 0 0 3.801-2.685 52.867 52.867 0 0 1 18.696-8.411 122.252 122.252 0 0 0 21.635-7.195c.135-.101.254-.219.355-.354.135-.102.253-.22.355-.355a5.08 5.08 0 0 1 .304-.456c.101-.169.185-.338.253-.507.068-.169.118-.338.152-.507a1.34 1.34 0 0 0 .101-.506 2.831 2.831 0 0 0 0-1.064c0-.169-.033-.355-.101-.558a3.57 3.57 0 0 0-.152-.456l-.203-.405-.304-.405Zm-479.37 16.416c.034-.169.051-.354.051-.557a2.827 2.827 0 0 0 0-1.064c0-.169-.017-.338-.051-.507l-.203-.507a3.564 3.564 0 0 0-.253-.506 5.304 5.304 0 0 1-.304-.456 3.291 3.291 0 0 0-.304-.355 128.642 128.642 0 0 0-15.555-5.523 47.293 47.293 0 0 1-9.272-3.8c-5.641-2.972-11.468-5.117-17.48-6.435-.237.068-.44.135-.609.203a4.616 4.616 0 0 0-.608.253c-.169.102-.32.203-.456.304-.135.102-.253.22-.354.355-.136.101-.254.22-.355.355a5.304 5.304 0 0 1-.304.456 6.001 6.001 0 0 0-.203.456l-.203.506-.1.507a2.847 2.847 0 0 0 0 1.064c.033.203.067.388.1.557.034.169.085.338.152.507.102.169.186.321.254.456.101.169.203.321.304.456.101.135.22.253.355.355.1.135.22.253.354.355.135.135.287.253.456.354a24.639 24.639 0 0 1 5.574 2.23 95.61 95.61 0 0 0 16.822 7.397 1014.92 1014.92 0 0 0 17.176 5.422l.507.101c.169.034.337.051.506.051a3.4 3.4 0 0 0 .558-.051c.202-.034.388-.068.557-.101l.507-.203c.169-.068.337-.152.506-.253.135-.068.271-.152.406-.254.135-.135.27-.253.405-.355.101-.135.22-.27.355-.405a2.64 2.64 0 0 0 .253-.405c.101-.169.186-.338.253-.507.068-.135.136-.287.203-.456Zm74.837-146.886a7.88 7.88 0 0 0-2.179.304 6.903 6.903 0 0 0-2.229 1.114c-.135.135-.254.27-.355.406a9.668 9.668 0 0 0-1.013 1.317 37.58 37.58 0 0 0-.963 1.52 3.57 3.57 0 0 0-.152.456l-.101.507a2.335 2.335 0 0 0-.051.456v.506c.034.473.169.946.405 1.419.203.439.473.828.811 1.165.135.136.27.237.405.304l.406.305.304.202c.135.101.253.22.354.355.135.101.271.219.406.355.135.101.287.185.456.253.135.101.287.186.456.253.135.068.287.118.456.152l.506.102c.203.033.389.05.558.05.338-.034.658-.067.962-.101.304-.135.592-.27.862-.405.439-.169.827-.44 1.165-.811a4.64 4.64 0 0 0 .76-1.165 7.33 7.33 0 0 1 .963-2.23 5.76 5.76 0 0 0 .861-3.04 11.656 11.656 0 0 0-.354-1.165 7.157 7.157 0 0 0-.507-1.014 1.751 1.751 0 0 0-.355-.354 1.731 1.731 0 0 0-.355-.355 12.748 12.748 0 0 0-.912-.557 4.181 4.181 0 0 0-1.57-.304Zm282.373 3.749a4.292 4.292 0 0 0-1.622.101c-1.182.338-2.28.845-3.293 1.52a4.203 4.203 0 0 0-1.571 1.926 2.838 2.838 0 0 1-.152.506c-.034.203-.067.389-.101.558v1.064c.101.371.219.743.355 1.115.202.54.456 1.047.76 1.52.337.472.709.912 1.114 1.317l.456.456c.473.439.98.794 1.52 1.064.541.27 1.115.456 1.723.557h.608c.169.034.321.034.456 0l.507-.101c.169-.034.338-.084.506-.152.169-.068.338-.152.507-.253.237-.169.473-.355.709-.558.203-.202.389-.422.558-.658.202-.237.388-.49.557-.76.068-.136.118-.271.152-.406a3.57 3.57 0 0 0 .152-.456c.101-.135.203-.253.304-.354.102-.136.203-.288.304-.456l.203-.406c.067-.135.118-.287.152-.456.034-.169.067-.321.101-.456.034-.169.051-.338.051-.507a1.025 1.025 0 0 0 0-.455c0-.169-.017-.321-.051-.457l-.101-.506a3.496 3.496 0 0 0-.659-1.267c-.439-.507-.878-.98-1.317-1.419a4.743 4.743 0 0 0-1.368-1.114 3.53 3.53 0 0 0-.507-.254 2.96 2.96 0 0 0-.507-.152l-.506-.101Zm-141.06 254.759c.101.135.22.253.355.354.135.102.287.203.456.305.135.067.287.135.456.202.169.068.321.135.456.203.202.034.388.067.557.101h1.064c.203-.034.388-.084.557-.152.169-.034.338-.084.507-.152a6.01 6.01 0 0 1 .456-.202c.169-.102.338-.22.507-.355.135-.101.287-.237.456-.405.101-.136.219-.271.354-.406.102-.135.186-.287.254-.456.101-.135.186-.287.253-.456.068-.169.118-.338.152-.507l.101-.506c.102-.676-.033-1.284-.405-1.824-2.804-4.256-6.941-6.705-12.414-7.347-4.796-.507-8.275 1.233-10.437 5.219a4.532 4.532 0 0 0-.051 1.52c.068.608.237 1.199.507 1.773.203.405.473.76.811 1.064l.81.507c.406.236.845.405 1.318.506a4.569 4.569 0 0 0 1.52.051l.506-.101c.169-.034.321-.085.456-.152.169-.068.321-.152.456-.254.169-.067.321-.152.456-.253s.254-.219.355-.355l.355-.354c.101-.135.202-.287.304-.456.101-.135.185-.27.253-.406.169-.033.355-.05.557-.05 1.048 0 2.078.169 3.091.506 1.284.406 2.517.929 3.699 1.571.067.169.152.321.253.456l.304.405c.102.169.22.304.355.406Zm-82.64-203.736a2.95 2.95 0 0 1-.506.152 428.834 428.834 0 0 1-11.705 10.184c-10.167 8.546-21.719 14.035-34.657 16.467-14.018 2.635-27.884 2.145-41.598-1.469a6.445 6.445 0 0 0-.608.202 4.618 4.618 0 0 0-.608.254 5.08 5.08 0 0 0-.456.304 1.777 1.777 0 0 0-.355.354c-.135.102-.253.22-.354.355a5.548 5.548 0 0 1-.304.456 5.625 5.625 0 0 0-.203.456l-.203.507-.101.506a2.834 2.834 0 0 0 0 1.064c.034.203.067.389.101.558.034.169.102.338.203.507.067.168.135.32.203.455.101.169.202.305.304.406.101.169.219.304.354.405.102.135.22.254.355.355.135.135.287.253.456.355 1.081.439 2.212.776 3.395 1.013l7.701 1.621c2.5.541 5.033.845 7.6.912 3.986.642 7.989.845 12.009.608 10.91-.608 21.263-3.192 31.059-7.752 12.093-5.675 22.801-13.292 32.124-22.851l.304-.406a6.16 6.16 0 0 0 .202-.455l.203-.406c.034-.169.051-.338.051-.507a8.66 8.66 0 0 0 .05-.962 5.422 5.422 0 0 0-.202-.963 6.658 6.658 0 0 0-.355-.861 1.194 1.194 0 0 0-.253-.406 3.897 3.897 0 0 0-.355-.405 3.783 3.783 0 0 1-.405-.355 5.548 5.548 0 0 0-.456-.304 6.01 6.01 0 0 0-.456-.202 2.791 2.791 0 0 0-.507-.152l-.507-.102a1.305 1.305 0 0 0-.506 0h-.507l-.507.102Zm301.526 396.477a.729.729 0 0 0 .152-.152h-5.878l.254.253c.135.136.27.254.405.355l.405.203c.304.135.608.236.912.304.304.101.625.169.963.202.169 0 .338-.016.507-.05l.506-.102c.169-.033.338-.084.507-.152.169-.067.321-.152.456-.253a2.64 2.64 0 0 0 .405-.253c.136-.102.271-.22.406-.355ZM453.297 103.843c-.136-.811-.456-1.503-.963-2.077-3.142-3.885-7.347-5.456-12.616-4.713-1.554.203-2.99.575-4.307 1.115-.203-6.384-.355-12.751-.456-19.102a98.652 98.652 0 0 0-.304-6.384 713.521 713.521 0 0 0-1.824-20.672c-.676-6.756-2.365-13.208-5.067-19.356-3.006-6.79-7.735-11.873-14.187-15.25a300.892 300.892 0 0 1-2.28-1.116c0-.033-.017-.05-.051-.05a69.26 69.26 0 0 0-19.71-5.776c-6.418-.912-12.785-.473-19.102 1.317a28.991 28.991 0 0 1-7.397 1.064c-4.02.101-8.039.05-12.059-.152a107.92 107.92 0 0 0-21.129.963c-2.668.405-5.32.523-7.955.354a514.793 514.793 0 0 1-20.419-1.722 71.472 71.472 0 0 0-19.912.659 88.45 88.45 0 0 0-19.406 5.776c-3.074 1.317-5.624 3.293-7.651 5.928-3.952 4.999-6.958 10.792-9.019 17.379a87.87 87.87 0 0 0-3.851 20.064 90.455 90.455 0 0 0 .152 15.707 141.345 141.345 0 0 0 2.078 14.644 24.22 24.22 0 0 0-6.841-1.47 39.947 39.947 0 0 0-2.077-.152c-5.303-.304-8.698 2.01-10.184 6.942-1.892 6.451-2.601 13.055-2.128 19.811.439 6.08.354 12.143-.254 18.19a69.678 69.678 0 0 0 1.064 21.027c.744 3.581 2.534 6.519 5.371 8.816 5.101 4.087 10.505 4.645 16.214 1.672.169.507.287.997.355 1.47.169.979.405 1.942.709 2.888 0 .574.051 1.148.152 1.722a116.08 116.08 0 0 1 1.165 7.651c.845 6.824 1.622 13.647 2.331 20.47a65.938 65.938 0 0 0 3.243 14.947 61.713 61.713 0 0 0 4.155 9.577c.073.135.14.27.202.405-1.035.35-2.082.687-3.141 1.013a14.135 14.135 0 0 0-3.699 1.875 2.565 2.565 0 0 1-.507.051 50.57 50.57 0 0 0-2.229.354c-.709.135-1.385.338-2.027.608a8.056 8.056 0 0 0-.354.254 7.667 7.667 0 0 0-.203.152 35.753 35.753 0 0 0-3.243 1.925 70.158 70.158 0 0 0-11.299 4.003 5450.276 5450.276 0 0 1-34.859 15.808 1172.703 1172.703 0 0 0-13.377 6.182c-7.701 3.682-16.213 7.245-25.536 10.691-12.262 4.594-23.561 10.843-33.897 18.747-2.973 2.263-5.489 4.053-7.55 5.371-10.741 6.823-19.473 15.572-26.195 26.246A180.29 180.29 0 0 0 74.3 354.042a251.652 251.652 0 0 0-10.54 37.697 1497.384 1497.384 0 0 1-8.005 38.507 1403.151 1403.151 0 0 0-8.31 40.383v1.013c.034.135.051.287.051.456.052.13.086.248.102.355a.21.21 0 0 1 0 .101c-3.31 13.039-5.743 25.571-7.297 37.596a294.493 294.493 0 0 0-2.533 38.558c0 6.655.203 13.292.608 19.913.777 13.004.828 25.976.152 38.913a31.644 31.644 0 0 1-.557 4.763 438.814 438.814 0 0 1-9.323 38.001 222.524 222.524 0 0 0-7.752 37.899 379.337 379.337 0 0 0-1.723 19.659 558.865 558.865 0 0 0-1.165 39.116 706.03 706.03 0 0 0 1.165 38.761 1870.647 1870.647 0 0 0 6.08 77.37 1039.717 1039.717 0 0 1 3.04 38.001c.203 3.412.389 6.84.558 10.286a1481.694 1481.694 0 0 1 1.418 38.71c.034.203.068.423.102.659.033.203.084.405.152.608.067.203.135.388.202.557.101.203.22.389.355.558.135.169.27.321.405.456s.287.27.456.405c.17.135.355.253.558.355.168.067.354.135.557.202.203.068.405.119.608.152.236.034.456.068.659.102.202-.034.422-.068.658-.102.203-.033.406-.084.608-.152.203-.067.389-.135.558-.202.202-.102.388-.22.557-.355.169-.135.32-.27.456-.405.135-.135.27-.287.405-.456.136-.169.254-.355.355-.558a7.46 7.46 0 0 1 .253-.557c.237-2.533.288-5.101.152-7.701-.439-8.04-.726-16.062-.861-24.068a410.524 410.524 0 0 0-2.381-37.038 944.403 944.403 0 0 1-3.446-39.116c-.878-12.802-1.74-25.621-2.584-38.457a2122.497 2122.497 0 0 1-2.179-38.862 420.556 420.556 0 0 1 .102-40.231c.642-12.734 1.266-25.486 1.875-38.254a272.592 272.592 0 0 1 6.941-34.252c2.567-9.627 5.185-19.22 7.853-28.779 3.378-12.329 4.577-24.861 3.598-37.596a432.032 432.032 0 0 1-1.267-42.358 330.825 330.825 0 0 1 3.142-39.167 223.958 223.958 0 0 1 8.208-36.582v-.659a28.518 28.518 0 0 0-.101-.658 2.139 2.139 0 0 0-.203-.608 4.597 4.597 0 0 0-.253-.608 4.624 4.624 0 0 0-.355-.507l-.05-.051a1812.091 1812.091 0 0 0 7.194-32.478 3797.88 3797.88 0 0 0 8.208-39.926 235.978 235.978 0 0 1 11.249-38.812 768.298 768.298 0 0 1 6.282-15.808c5.135-12.397 12.887-22.767 23.257-31.111a1277.741 1277.741 0 0 1 15.352-12.109c9.83-7.668 20.589-13.782 32.276-18.342a1022.73 1022.73 0 0 0 21.889-8.867 546.027 546.027 0 0 0 24.827-11.147 500.363 500.363 0 0 1 36.076-15.758c-.136 0-.271.017-.406.051h-.152a12.061 12.061 0 0 0 1.723-.405c1.182-.338 2.398-.845 3.648-1.52a85.543 85.543 0 0 1 4.611-2.179 72.627 72.627 0 0 0 2.027-.406 8.907 8.907 0 0 0 3.648-1.621 13.191 13.191 0 0 0 1.925-.456c.98-.338 1.976-.692 2.989-1.064.281-.114.551-.232.811-.355a71.172 71.172 0 0 0 7.651 8.969 217.21 217.21 0 0 0 15.251 13.68c5.506 4.459 11.046 8.022 16.619 10.691 5.878 2.77 12.346 4.509 19.406 5.219.709.067 1.419.101 2.128.101a49.855 49.855 0 0 0 5.472-.405 42.72 42.72 0 0 1 5.878-.304 2.84 2.84 0 0 0 1.064.202c.506 0 .979-.033 1.418-.101 1.487.439 3.074.625 4.763.557a63.967 63.967 0 0 0 14.086-1.469 66.604 66.604 0 0 0 19.659-7.701 121.364 121.364 0 0 0 16.315-11.502c.912-.777 1.537-1.284 1.875-1.52a93.512 93.512 0 0 0 13.579-10.792 78.294 78.294 0 0 0 7.803 3.698 142.914 142.914 0 0 0 11.248 4.003c2.196.709 3.581 1.115 4.155 1.216l1.419.557a71.98 71.98 0 0 1 5.016 2.129c1.408.662 2.827 1.304 4.256 1.925l.101.051c.195.075.381.143.558.202.102.059.204.109.304.152 1.643.701 3.298 1.461 4.965 2.28a401.502 401.502 0 0 1 20.419 10.59 131.397 131.397 0 0 1 15.454 10.032 62.84 62.84 0 0 0 3.395 1.622 54.99 54.99 0 0 0 10.083 3.546 34.051 34.051 0 0 1 9.424 3.952l.507.203c.169.068.337.118.506.152.169.068.338.101.507.101a2.565 2.565 0 0 0 1.013 0c.169 0 .338-.033.507-.101.169-.034.338-.084.507-.152.169-.067.321-.135.456-.203a.41.41 0 0 0 .152-.101c1.669.637 3.341 1.245 5.016 1.824 10.438 3.581 20.402 8.512 29.894 14.795 11.316 7.465 20.673 16.163 28.07 26.094a185.115 185.115 0 0 1 15.707 25.03 202.998 202.998 0 0 1 14.694 36.481 438.742 438.742 0 0 1 7.347 28.628c2.588 11.708 5.679 22.939 9.272 33.694-.01.159-.026.311-.051.456.44 3.04.946 6.063 1.52 9.07 1.622 8.85 3.26 17.7 4.915 26.55 1.79 9.61 3.58 19.237 5.371 28.88 0-.141-.017-.294-.051-.456a186.261 186.261 0 0 1 1.52 12.211c.98 10.877 1.824 21.737 2.534 32.58a440.6 440.6 0 0 0 3.699 34.555c0-.202-.017-.388-.051-.557a2.831 2.831 0 0 1-.051-.557 220.549 220.549 0 0 1 1.926 17.582 1693.236 1693.236 0 0 1 2.077 39.217c.574 12.903 1.233 25.79 1.976 38.659a3877.07 3877.07 0 0 1 2.128 39.268 1357.498 1357.498 0 0 0 2.382 38.812 774.189 774.189 0 0 1 1.976 38.558c.337 13.14.456 26.28.354 39.42a1690.518 1690.518 0 0 1-.76 39.318 182.372 182.372 0 0 1-2.28 23.916 1992.683 1992.683 0 0 1-6.536 38.153c.068.439.169.844.304 1.216.135.405.321.777.557 1.114.237.338.507.642.811.912.169.135.355.254.557.355.169.068.355.135.558.203.202.067.405.118.608.152a24 24 0 0 1 .658.101c.203-.034.423-.068.659-.101.203-.034.405-.085.608-.152a9.76 9.76 0 0 0 .557-.203c.203-.101.389-.22.558-.355a5.49 5.49 0 0 0 .456-.405 5.49 5.49 0 0 0 .405-.456c.135-.169.254-.355.355-.557.067-.169.152-.355.253-.558.068-.405.102-.827.102-1.266.033-.811.084-1.605.152-2.382l.05-1.064a217.32 217.32 0 0 0 6.891-38.406 487.616 487.616 0 0 0 1.824-43.271c-.034-13.646.118-27.276.456-40.889a428.306 428.306 0 0 0-1.013-40.585 3974.482 3974.482 0 0 1-2.736-40.129 5077.5 5077.5 0 0 1-2.28-39.318c-.71-12.87-1.385-25.757-2.027-38.66a676.618 676.618 0 0 1-.76-27.462 242.132 242.132 0 0 0-3.699-40.433c.034.123.051.241.051.354a209.898 209.898 0 0 1-1.672-11.4 462.407 462.407 0 0 1-2.686-31.313 446.42 446.42 0 0 0-3.141-34.657l-.101-.709a128.997 128.997 0 0 0-1.875-10.387 582.37 582.37 0 0 1-5.371-28.374 942.836 942.836 0 0 0-4.408-24.777c.013-.085.03-.169.051-.253-.134-.496-.269-1.002-.406-1.52a140.18 140.18 0 0 1-.202-1.013 2.74 2.74 0 0 0-.152-.203 1636.2 1636.2 0 0 1-8.259-32.377 471.584 471.584 0 0 0-11.705-40.18 228.304 228.304 0 0 0-15.808-36.227 126.519 126.519 0 0 0-23.966-31.313 149.745 149.745 0 0 0-30.097-22.294 143.815 143.815 0 0 0-32.782-13.478l-.507-.304-.101-.101c-.034 0-.051-.017-.051-.051a3.452 3.452 0 0 0-.354-.203l-.406-.202a2.863 2.863 0 0 0-.506-.152 5.098 5.098 0 0 0-1.622-.254 3.393 3.393 0 0 0-1.266.152 50.754 50.754 0 0 0-4.054-1.165 58.748 58.748 0 0 1-8.512-2.888 73.868 73.868 0 0 0-9.526-6.637 308.69 308.69 0 0 0-34.606-17.278 1634.252 1634.252 0 0 0-30.401-12.414 58.876 58.876 0 0 0 7.854-12.16 77.586 77.586 0 0 0 6.384-18.849c.338-1.723.557-3.479.659-5.269.337-6.587.405-13.174.202-19.761.541-2.162.727-4.374.558-6.637.371.067.726.135 1.064.202 5.539.879 10.099-.743 13.68-4.864 2.635-3.006 4.307-6.452 5.016-10.336.439-2.567.845-5.151 1.216-7.752a251.459 251.459 0 0 0 2.23-23.662 96.64 96.64 0 0 1 .304-4.459c.574-5.269.371-10.455-.608-15.555Zm199.226 839.772c.057-.292.107-.579.152-.862 0 .169-.017.338-.05.507a1.573 1.573 0 0 1-.102.355ZM376.585 19.227a31.517 31.517 0 0 1 12.566-.81 69.194 69.194 0 0 1 22.243 6.688l-.608-.203c.27.101.541.253.811.456 5.607 4.29 9.306 9.897 11.096 16.822a116.144 116.144 0 0 1 3.344 19.912c.507 6.689.828 13.377.963 20.065.135 7.77.101 15.504-.101 23.206a2.785 2.785 0 0 0-.203.709c-.135.237-.237.49-.304.76a4.339 4.339 0 0 0 .152 2.534c.338.844.912 1.503 1.723 1.976.54.304 1.114.473 1.722.506 1.689.068 2.905-.658 3.648-2.178.271-.541.507-1.081.71-1.622 3.242-3.006 6.992-3.698 11.248-2.077.101.338.169.676.203 1.013a272.19 272.19 0 0 1-.203 18.19c-.164 3.306-.4 6.6-.709 9.88a217.151 217.151 0 0 1-1.571 12.414 25.2 25.2 0 0 0-.355 2.787c-.473 4.695-2.297 8.597-5.472 11.704-.54.169-1.081.304-1.621.405-.574.102-1.166.169-1.774.203a3.109 3.109 0 0 1-1.672-.355c-.304-.27-.608-.574-.912-.912a5.466 5.466 0 0 0-3.141-1.773c-3.783-.811-5.742.794-5.878 4.814a170.937 170.937 0 0 0-.152 7.194 2.74 2.74 0 0 0-.152.558 116.46 116.46 0 0 0-.354 17.176 31.75 31.75 0 0 1-.203 5.675 68.595 68.595 0 0 1-5.32 19.811 101.148 101.148 0 0 1-3.547 7.195 36.554 36.554 0 0 1-4.813 6.739 101.375 101.375 0 0 1-17.785 15.099c-.034 0-.067.017-.101.051a132.047 132.047 0 0 1-10.742 8.157 72.112 72.112 0 0 1-15.555 8.208c-7.769 2.939-15.741 4.071-23.915 3.395a3.125 3.125 0 0 0-1.166-.456c-.912-.135-1.688-.084-2.33.152-1.486-.338-3.091-.338-4.814 0a28.484 28.484 0 0 1-7.195.507c-6.89-.372-13.443-2.111-19.659-5.219h.051a12.292 12.292 0 0 1-1.469-.811 134.624 134.624 0 0 1-16.468-12.059 117.21 117.21 0 0 1-14.491-14.744 75.68 75.68 0 0 1-4.56-6.232c-3.851-5.844-6.266-12.194-7.245-19.051a596.637 596.637 0 0 1-2.483-20.369 617.18 617.18 0 0 1-1.013-10.894c.067-.27.135-.557.202-.861.203-1.182.017-2.246-.557-3.192a1.87 1.87 0 0 1-.051-.456c-.135-1.452-.574-2.55-1.317-3.293a40.706 40.706 0 0 1-.405-2.838c-.271-2.668-1.402-4.729-3.395-6.181-.642-.473-1.334-.575-2.078-.304a75.95 75.95 0 0 0-8.613 3.85 3.787 3.787 0 0 0-.608-.05 4.984 4.984 0 0 1-3.04-1.014c-3.479-2.567-5.135-6.164-4.966-10.792.204-6.38.424-12.781.659-19.203.03-1.005.064-2.018.101-3.04a38.51 38.51 0 0 0-.253-5.928c-.912-7.668-.169-14.964 2.229-21.889h.912c.676 0 1.352-.05 2.027-.152a23.748 23.748 0 0 1 1.52-.253c2.5.574 4.814 1.587 6.942 3.04.878.574 1.79 1.081 2.736 1.52l.202.101c1.385 1.554 3.125 1.554 5.219 0 .676-.473.997-1.114.963-1.925a70.073 70.073 0 0 0-1.115-9.12 155.115 155.115 0 0 1-2.584-21.23 76.306 76.306 0 0 1 1.925-21.433c1.791-7.668 4.966-14.677 9.526-21.027a32.531 32.531 0 0 1 8.715-4.56 69.99 69.99 0 0 1 20.521-4.003c6.924-.27 13.815.135 20.672 1.216a68.173 68.173 0 0 0 20.47.05 86.341 86.341 0 0 1 21.281-.506c7.33.743 14.575.169 21.736-1.723ZM350.592 223.42a.49.49 0 0 1 .203-.05h-.101c-.034 0-.068.017-.102.05Zm26.5-15.504c1.317-1.756 1.267-3.462-.152-5.117-.946-1.048-2.094-1.419-3.446-1.115-1.385.27-2.617.895-3.698 1.875a40.564 40.564 0 0 1-10.083 6.333 100.848 100.848 0 0 1-6.03 2.331 30.292 30.292 0 0 1-11.4 1.571 91.553 91.553 0 0 1-10.488-1.217 41.612 41.612 0 0 1-10.033-3.09 44.03 44.03 0 0 1-8.765-5.32c-.845-1.689-2.23-2.449-4.155-2.28-1.047.067-1.875.54-2.483 1.418-1.486 2.027-1.351 4.02.406 5.979a18.572 18.572 0 0 0 4.104 3.496 69.878 69.878 0 0 0 5.776 3.243 54.814 54.814 0 0 0 9.83 3.699c2.6.675 5.218 1.182 7.853 1.52 3.513.439 7.043.625 10.59.557a24.552 24.552 0 0 0 5.218-.456.214.214 0 0 0 .102-.051 61.169 61.169 0 0 0 9.475-2.533 40.064 40.064 0 0 0 9.019-4.459 419.323 419.323 0 0 0 6.333-4.408 10.216 10.216 0 0 0 2.027-1.976Zm58.217-70.834c.346-.97.566-1.932.659-2.888.305-2.802-.506-5.471-2.432-8.006a10.536 10.536 0 0 0-2.888-2.584c-3.175-1.925-6.553-2.347-10.134-1.266-2.33.709-3.58 2.246-3.749 4.61a3.253 3.253 0 0 0 .861 2.382c1.824 1.925 3.784 2.094 5.878.507h.76c.371 0 .743.033 1.114.101.304.067.609.169.913.304.202.203.388.422.557.659.338.439.608.912.811 1.418.236.473.371.963.405 1.47a1.41 1.41 0 0 1-.405.557 24.896 24.896 0 0 1-1.774 1.52c-2.297 1.858-4.813 2.432-7.549 1.723-1.014-.27-1.993-.152-2.939.354-2.162 1.183-2.804 2.939-1.926 5.27.169.439.456.794.862 1.064 1.858 1.284 3.969 1.892 6.333 1.824 1.149 0 2.264-.186 3.344-.557a24.234 24.234 0 0 0 9.729-5.979 6.613 6.613 0 0 0 1.57-2.483Zm-182.405-21.838c-3.513.777-6.637 2.314-9.373 4.611-2.466 2.06-3.986 4.645-4.56 7.752a11.53 11.53 0 0 0-.203 2.686c.141 2.624 1.29 4.887 3.446 6.789a9.762 9.762 0 0 0 4.661 2.28c3.445.642 6.942 1.132 10.488 1.47 1.149.27 2.213.084 3.192-.558 1.385-.912 1.976-2.179 1.774-3.8-.203-1.756-1.149-2.905-2.838-3.445a62.567 62.567 0 0 0-2.28-.355 55.531 55.531 0 0 0-5.827-.405c-1.891-.034-3.394-.727-4.509-2.078a.383.383 0 0 1-.051-.152.405.405 0 0 0-.05-.152v-.101c-.034-.203-.017-.372.05-.507.777-2.499 2.432-4.239 4.966-5.219a7.258 7.258 0 0 1 1.824-.456c1.587-.168 2.871-.844 3.851-2.026 1.182-1.487 1.216-3.007.101-4.56-1.149-1.656-2.702-2.247-4.662-1.774Zm85.832 40.839a34.63 34.63 0 0 1 3.395-4.307c1.283-1.385 1.689-2.973 1.216-4.763-.338-1.148-1.064-1.925-2.179-2.331-2.533-.878-4.34-.101-5.421 2.331a4.256 4.256 0 0 1-.558.557c-2.533 2.534-4.323 5.523-5.37 8.969-1.048 3.513-.76 6.924.861 10.235 1.182 2.499 3.091 4.121 5.725 4.864a37.662 37.662 0 0 0 10.438 1.469c1.689.169 3.378.186 5.067.051 1.587-.102 2.922-.71 4.003-1.824.844-.879 1.148-1.926.912-3.142-.507-2.398-1.993-3.53-4.459-3.394l-1.419.101a62.64 62.64 0 0 1-10.387-.355.909.909 0 0 0-.253-.05h.101a13.244 13.244 0 0 1-1.115-.254 3.747 3.747 0 0 1-.912-.405c-1.486-2.601-1.368-5.185.355-7.752Zm44.233-53.455a9.67 9.67 0 0 0-5.421.861c-1.486.71-2.5 1.807-3.04 3.294-.777 2.06-.406 3.732 1.115 5.016.033.067.067.152.101.253.27.541.659.963 1.165 1.267.237.338.524.642.862.912a4.81 4.81 0 0 0 1.418.76c.135 0 .254.017.355.051h.355c.135.033.27.05.405.05 3.006 0 5.421-1.148 7.245-3.445.676-.845.98-1.807.912-2.888-.168-3.615-1.992-5.658-5.472-6.131Zm-25.131-23.763c-.574.304-1.132.574-1.672.81-1.79.81-2.888 2.128-3.293 3.952-.271 1.318.067 2.415 1.013 3.294 1.689 1.587 3.496 1.722 5.421.405 2.872-1.959 6.047-3.26 9.526-3.901a27.401 27.401 0 0 1 10.995.101c3.614.743 6.975 1.841 10.083 3.293l.507.203.202.101a.39.39 0 0 1-.152-.05l-.05-.05h-.102a6 6 0 0 0 .456.202l-.101-.102c.135.102.219.153.253.153.608.27 1.199.557 1.774.86a163.216 163.216 0 0 1 7.245 3.8 250.767 250.767 0 0 0 7.195 3.902c.54.135 1.098.135 1.672 0 2.398-.54 3.496-2.043 3.293-4.51-.033-.708-.32-1.317-.861-1.823a22.833 22.833 0 0 0-4.357-3.243 174.206 174.206 0 0 0-9.678-4.965 89.487 89.487 0 0 0-9.526-3.902 47.553 47.553 0 0 0-10.386-2.28 28.58 28.58 0 0 0-4.814-.203 34.702 34.702 0 0 0-14.643 3.953Zm-57.863 24.016c-2.635.878-4.374 2.618-5.219 5.219a3.223 3.223 0 0 0 .102 2.381c1.081 2.804 3.209 4.138 6.384 4.003 2.331 0 4.509-.574 6.536-1.723 2.567-1.486 3.479-3.648 2.736-6.485a2.898 2.898 0 0 0-.76-1.267c-2.736-2.668-5.996-3.378-9.779-2.128Zm5.776-19.406a40.287 40.287 0 0 1 8.057.608 46.641 46.641 0 0 1 10.386 3.142c1.25.54 2.534.844 3.851.912a2.737 2.737 0 0 0 2.128-.71c2.061-1.824 2.247-3.85.558-6.08a3.802 3.802 0 0 0-.71-.405 115.091 115.091 0 0 0-6.232-2.686 41.164 41.164 0 0 0-10.032-2.482 53.905 53.905 0 0 0-10.438-.203 19.315 19.315 0 0 0-3.901.71 93.118 93.118 0 0 0-8.056 2.584 36.902 36.902 0 0 0-9.273 5.066c-.54.406-1.098.811-1.672 1.216a39.37 39.37 0 0 0-6.891 6.08l-.557.609a42.37 42.37 0 0 1-.861 1.013 8.27 8.27 0 0 0-1.926 4.408c-.169 1.824.49 3.226 1.976 4.206.406.236.845.405 1.318.506 1.148.169 2.178-.084 3.09-.76 1.014-.743 1.571-1.723 1.673-2.939a15.116 15.116 0 0 1 3.952-4.205c.54-.405 1.064-.844 1.57-1.317a32.269 32.269 0 0 1 8.361-5.32c1.249-.541 2.482-1.098 3.698-1.673a25.998 25.998 0 0 1 9.931-2.28ZM131.555 952.026c.033-.135.067-.287.101-.456a.496.496 0 0 0 0-.203h-8.462c.08.11.148.211.203.304.06.688.111 1.363.152 2.027 0 .169.034.337.101.506.034.136.085.288.152.456.135.271.271.558.406.862.101.135.202.253.304.354.101.136.219.254.354.355.271.203.524.389.76.558.169.067.321.135.456.202.169.068.321.118.456.152l.507.101h1.013c.169-.033.321-.067.456-.101.169-.034.321-.084.456-.152.305-.135.592-.27.862-.405.135-.101.27-.22.405-.355l.304-.304c.135-.135.237-.27.304-.405l.507-.811c.169-.473.253-.963.253-1.469a3.732 3.732 0 0 0-.101-1.115.182.182 0 0 0 .051-.101ZM20.946 686.019a1.765 1.765 0 0 0-.05.405.922.922 0 0 1 .05-.253v-.152Z"/><path fill="#333" d="M325.411 816.692a56.384 56.384 0 0 0-19.203-.152c-12.363 2.027-24.726 2.297-37.089.811a216.226 216.226 0 0 1-38.964-8.259 191.89 191.89 0 0 1-14.592-5.219 247.166 247.166 0 0 1-26.043-12.262 308.926 308.926 0 0 0-8.107-4.256c-4.391-2.263-8.968-3.631-13.731-4.104-4.02-.405-8.057-.811-12.11-1.216a49.147 49.147 0 0 1-6.181-.963c-.219.433-.455.872-.71 1.318a141.063 141.063 0 0 1-1.925 14.085 679.684 679.684 0 0 0-2.483 14.441 58.352 58.352 0 0 0-.405 2.635.469.469 0 0 1-.051.152.85.85 0 0 1 0 .202c-.201 1.146-.403 2.295-.608 3.446 10.925.623 21.717 2.481 32.377 5.573a258.98 258.98 0 0 0 38.761 8.107c6.722.878 13.461 1.74 20.217 2.584a1200.612 1200.612 0 0 1 38.102 5.472 1047.818 1047.818 0 0 0 39.318 5.624 312.441 312.441 0 0 0 45.652 2.331c13.613-.304 27.209-.388 40.788-.253a443.64 443.64 0 0 0 40.18-1.52 1608.811 1608.811 0 0 1 40.382-2.838 187.681 187.681 0 0 0 32.681-4.712 24.02 24.02 0 0 1 5.168-.557c.27-.102.557-.186.861-.254.507-.101 1.031-.202 1.571-.304l1.115-.101c.371-.034.76-.067 1.165-.101.372-.169.76-.321 1.166-.456.157-.048.309-.098.456-.152a370.575 370.575 0 0 0-4.763-25.385 130.54 130.54 0 0 1-2.939-22.649 5.242 5.242 0 0 1-.709 0h-.507c-.169 0-.338-.016-.507-.05a11.372 11.372 0 0 1-.456-.101 1.797 1.797 0 0 1-.456-.153l-.253-.05a3.064 3.064 0 0 1-.152.05 4.794 4.794 0 0 1-1.419.304c-11.214 5.81-22.26 10.387-33.137 13.732a177.933 177.933 0 0 0-33.137 13.933c-11.518 6.249-23.611 10.725-36.278 13.427a35.307 35.307 0 0 1-9.424.76 126.02 126.02 0 0 1-14.694-1.672 304.806 304.806 0 0 1-14.694-2.888 79.871 79.871 0 0 0-4.914-.963c.202 0 .388.017.557.051.169.034.355.068.557.101a2428.981 2428.981 0 0 0-40.433-7.549Zm-1.57 37.545a506.027 506.027 0 0 1-39.015-5.371 539.134 539.134 0 0 0-38.913-5.573 687.994 687.994 0 0 1-38.964-5.371 542.765 542.765 0 0 1-19.405-3.598 579.05 579.05 0 0 1-28.223-6.586 82.688 82.688 0 0 0-17.379-2.686 892.379 892.379 0 0 0-4.256 29.236 654.783 654.783 0 0 0-3.496 35.315 15238.07 15238.07 0 0 0-2.584 38.711c-.4 6.706-.603 13.428-.608 20.166l.152.303c.101.136.186.288.253.457.068.135.119.287.152.455.068.305.119.609.152.913.034.168.034.337 0 .506v.254h403.521v-3.091c-.169 0-.338-.017-.507-.051l-.507-.101a1.837 1.837 0 0 1-.456-.152 5.995 5.995 0 0 1-.456-.203 6.821 6.821 0 0 0-.456-.253l-.354-.355a1.707 1.707 0 0 1-.355-.355l-.304-.405a2.648 2.648 0 0 0-.254-.405 3.55 3.55 0 0 1-.151-.456 2.878 2.878 0 0 1-.153-.507c-1.249-11.958-2.043-24.692-2.381-38.204a930.603 930.603 0 0 0-.709-19.304 571.01 571.01 0 0 0-3.243-38.761c-.18-1.528-.366-3.065-.557-4.611-.724.205-1.703.391-2.939.557a85.453 85.453 0 0 1-5.067.558c-.27.033-.523.05-.76.05a213.219 213.219 0 0 1-37.292 5.32 1300.15 1300.15 0 0 0-39.825 2.737 441.568 441.568 0 0 1-41.193 1.52 1456.904 1456.904 0 0 0-40.382.152 386.306 386.306 0 0 1-33.086-.811Z"/><path fill="#fff" d="M469.206 265.93a402.3 402.3 0 0 0-20.419-10.589c-1.667-.82-3.322-1.58-4.965-2.28a3.076 3.076 0 0 1-.304-.152c-.177-.06-.363-.128-.558-.203l-.101-.051a158.081 158.081 0 0 1-4.256-1.925 71.968 71.968 0 0 0-5.016-2.128l-1.419-.558c-.574-.101-1.959-.506-4.155-1.216a143.312 143.312 0 0 1-11.248-4.002 78.525 78.525 0 0 1-7.803-3.699 93.498 93.498 0 0 1-13.579 10.792c-.338.237-.963.743-1.875 1.52a121.364 121.364 0 0 1-16.315 11.502 66.604 66.604 0 0 1-19.659 7.701 63.975 63.975 0 0 1-14.086 1.47c-1.689.067-3.276-.119-4.763-.558a9.28 9.28 0 0 1-1.418.102c-.372 0-.727-.068-1.064-.203a42.877 42.877 0 0 0-5.878.304 49.61 49.61 0 0 1-5.472.405c-.709 0-1.419-.033-2.128-.101-7.06-.709-13.528-2.449-19.406-5.219-5.573-2.668-11.113-6.232-16.619-10.691a216.959 216.959 0 0 1-15.251-13.68 71.163 71.163 0 0 1-7.651-8.968c-.26.122-.53.24-.811.354-1.013.372-2.009.727-2.989 1.064-.642.203-1.284.355-1.925.456a8.909 8.909 0 0 1-3.648 1.622c-.668.143-1.344.278-2.027.405a85.184 85.184 0 0 0-4.611 2.179c-1.25.675-2.466 1.182-3.648 1.52-.551.174-1.125.309-1.723.405h.152c.135-.034.27-.05.406-.05a499.908 499.908 0 0 0-36.076 15.757 544.928 544.928 0 0 1-24.827 11.147 1022.73 1022.73 0 0 1-21.889 8.867c-11.687 4.56-22.446 10.674-32.276 18.342a1267.86 1267.86 0 0 0-15.352 12.11c-10.37 8.343-18.122 18.713-23.257 31.11a768.298 768.298 0 0 0-6.282 15.808 236.025 236.025 0 0 0-11.249 38.812 3795.188 3795.188 0 0 1-8.208 39.926 1812.204 1812.204 0 0 1-7.195 32.479l.05.05c.136.169.254.338.356.507.1.203.185.405.253.608.101.203.169.405.203.608.033.203.067.422.1.659v.658a223.936 223.936 0 0 0-8.207 36.583 330.813 330.813 0 0 0-3.142 39.166 432.083 432.083 0 0 0 1.267 42.359c.98 12.734-.22 25.266-3.598 37.595a2569.324 2569.324 0 0 0-7.853 28.78 272.54 272.54 0 0 0-6.942 34.251c-.608 12.769-1.233 25.52-1.874 38.255-.676 13.41-.71 26.82-.102 40.23a2121.607 2121.607 0 0 0 2.18 38.862c.844 12.836 1.705 25.655 2.583 38.457a944.25 944.25 0 0 0 3.446 39.116 410.57 410.57 0 0 1 2.381 37.039c.135 8.005.422 16.028.861 24.067a53.12 53.12 0 0 1-.152 7.701h85.021c-6.678-10.22-11.255-21.316-13.731-33.289a40.021 40.021 0 0 1-.81-7.549 347.5 347.5 0 0 1 1.824-39.369 296.951 296.951 0 0 1 2.989-21.23 1906.737 1906.737 0 0 0 6.384-38.508 630.48 630.48 0 0 1 3.243-19.406 1216.328 1216.328 0 0 0 6.283-38.457c1.79-12.126 3.158-24.861 4.104-38.203a377.866 377.866 0 0 1 4.763-38.863 212.485 212.485 0 0 0 2.33-17.126l.608-.81c.102-.102.203-.22.304-.355a.301.301 0 0 0 .051-.051c-.091-7.047.095-14.107.558-21.179a1243.37 1243.37 0 0 1 3.242-39.065c.473-4.83.912-9.677 1.318-14.542.472-6.203.269-12.283-.608-18.24-1.022-6.785-2.931-13.406-5.726-19.862-5.202-11.991-8.563-24.439-10.083-37.342-1.52-13.005-1.216-26.027.912-39.065a66.132 66.132 0 0 0 .507-17.531 212.601 212.601 0 0 1-1.013-30.705l.304-.406c.067-.135.168-.27.304-.405l.304-.304a1.6 1.6 0 0 1 .405-.304l.405-.304c.135-.068.27-.118.406-.152.168-.068.337-.118.506-.152.135-.034.287-.068.456-.101a2.565 2.565 0 0 1 1.014 0c.169.033.321.067.456.101.169.034.337.084.506.152.135.034.271.101.406.203l.405.202c.135.102.27.22.405.355l.304.304c.135.135.237.27.304.405l.304.406a1928.942 1928.942 0 0 1 2.382 37.342c.338 6.756.017 12.971-.963 18.646-2.297 12.87-2.196 25.722.304 38.558a184.548 184.548 0 0 0 6.84 25.182c.274.13.527.282.76.456.406.338.777.693 1.115 1.064.372.372.676.811.912 1.318l.507.912c5.742 5.168 12.548 6.451 20.419 3.85 1.959-.675 3.952-1.3 5.979-1.874a4315.298 4315.298 0 0 1 37.393-10.59 95.253 95.253 0 0 1 10.336-2.28c13.208-2.094 25.266-6.891 36.177-14.39a688.915 688.915 0 0 0 16.112-11.451 155.813 155.813 0 0 1 19.204-12.008h.962c.169 0 .338.017.507.051.135.034.287.084.456.152.135.033.287.084.456.152.135.067.27.152.405.253.135.068.271.152.406.253.135.102.253.203.354.304.102.136.22.271.355.406.068.135.152.27.253.405.068.135.136.287.203.456.068.135.135.287.203.456.034.169.067.321.101.456 0 .169.017.338.051.507 0 .169-.017.321-.051.456 0 .169-.017.338-.051.507-.033.135-.067.287-.101.456a6.419 6.419 0 0 0-.203.456l-.202.405a15.054 15.054 0 0 1-3.446 2.888 46.968 46.968 0 0 1-4.053 2.229c-1.053.527-1.526.729-1.419.608a308.7 308.7 0 0 1-38.102 25.233 60.233 60.233 0 0 1-19.001 6.739 237.713 237.713 0 0 0-38.051 9.931 155.77 155.77 0 0 1-34.1 7.904 27.52 27.52 0 0 1-9.07-1.52 47.858 47.858 0 0 1 2.179 12.059 203.15 203.15 0 0 1-1.317 37.9 547.654 547.654 0 0 0-3.547 39.369 275.038 275.038 0 0 0 .912 40.18 591.115 591.115 0 0 1 2.077 29.944 3103.039 3103.039 0 0 1 1.47 39.623c.101 3.648.321 7.279.658 10.893.254 2.762.22 5.464-.101 8.107 6.592.96 13.179 1.839 19.761 2.635 2.026.236 3.986.76 5.877 1.571a326.913 326.913 0 0 1 32.884 16.315 54.367 54.367 0 0 0 13.731 5.523 3641.496 3641.496 0 0 1 33.187 8.36 55.492 55.492 0 0 0 10.033 1.621 197.392 197.392 0 0 0 40.179-1.064c9.796-1.25 19.541-.659 29.236 1.773a752.162 752.162 0 0 0 39.166 8.867c9.087 1.824 18.207 2.348 27.361 1.571a63.78 63.78 0 0 0 20.47-5.117 587.11 587.11 0 0 0 35.467-16.873 47.042 47.042 0 0 1 9.222-3.597 131.425 131.425 0 0 0 8.715-2.838l-.507.203-.506.203a185.884 185.884 0 0 0 14.795-5.675 317.702 317.702 0 0 0 13.781-6.283c2.331-1.115 4.746-1.689 7.246-1.723.024.01.041.01.05 0a170.5 170.5 0 0 1 .913-37.95c1.79-12.87 3.479-25.773 5.066-38.71a300.724 300.724 0 0 0 2.331-39.015c0-3.276.22-6.553.659-9.829 1.689-13.14 1.402-26.145-.862-39.015a156.975 156.975 0 0 1-1.976-38.761c.583-8.015.971-16.037 1.166-24.067a35.29 35.29 0 0 1-2.736 1.419 44.33 44.33 0 0 1-13.985 3.8 25.706 25.706 0 0 1-3.952.101 361.744 361.744 0 0 1-38.812-6.789c-12.7-2.939-24.827-7.178-36.379-12.718a189.784 189.784 0 0 1-33.137-20.369 44.465 44.465 0 0 0-6.942-4.357c-2.499-1.25-4.526-2.973-6.08-5.168a3.734 3.734 0 0 1-.152-.456 1.368 1.368 0 0 1-.101-.507 8.707 8.707 0 0 1-.101-.456c0-.169.016-.338.05-.507 0-.135.017-.287.051-.456.034-.169.067-.321.101-.456a2.95 2.95 0 0 1 .152-.506c.068-.135.152-.271.254-.406a2.64 2.64 0 0 1 .253-.405c.101-.135.219-.253.355-.355.101-.135.219-.253.354-.354.135-.102.27-.186.406-.254.135-.101.287-.186.456-.253.135-.068.287-.118.456-.152.135-.034.287-.068.456-.101a9.78 9.78 0 0 0 .456-.102c.169.034.337.051.506.051.135 0 .287.017.456.051.169.033.321.067.456.101.169.067.321.118.456.152.169.067.321.152.456.253.135.068.271.152.406.254.135.101.253.219.354.354.135.068.254.152.355.254l.304.304a358.219 358.219 0 0 1 31.516 20.368 74.916 74.916 0 0 0 14.643 8.208 217.553 217.553 0 0 0 36.43 11.603 168.154 168.154 0 0 0 35.265 4.155 27.896 27.896 0 0 0 8.816-1.317 112.21 112.21 0 0 1 5.219-2.888 10.873 10.873 0 0 0 3.699-3.091.689.689 0 0 1 .101-.101 25.635 25.635 0 0 1 1.165-3.598 251.186 251.186 0 0 0 11.958-36.987 211.21 211.21 0 0 0 3.243-15.809c1.824-11.214 2.55-22.412 2.179-33.593l.304-.405a.999.999 0 0 1 .304-.355c.101-.135.202-.253.304-.354l.405-.305a2.72 2.72 0 0 1 .405-.253l.406-.203a2.95 2.95 0 0 1 .506-.152c.135-.033.287-.067.456-.101h1.014c.169.034.321.068.456.101.169.034.338.085.506.152l.406.203c.135.068.27.152.405.253l.405.305c.102.101.203.219.304.354.136.102.237.22.304.355.102.135.186.27.254.405 1.587 12.194 1.013 24.372-1.723 36.532a1870.556 1870.556 0 0 1-6.283 27.209 160.444 160.444 0 0 1-9.779 28.931.624.624 0 0 1 0 .203 6.01 6.01 0 0 1-.202.456 1.603 1.603 0 0 1-.203.506 2.727 2.727 0 0 1-.253.406c-.12.253-.238.506-.355.76a498.625 498.625 0 0 1-.912 37.595 146.544 146.544 0 0 0 2.888 39.724c.709 3.277.996 6.621.861 10.032-.147 3.819-.299 7.636-.456 11.451 5.033 11.384 8.884 23.274 11.553 35.671a758.422 758.422 0 0 1 6.587 34.707 7072.493 7072.493 0 0 0 6.282 37.191 726.932 726.932 0 0 1 3.344 21.686l.102.658c.015.137.032.272.05.406a588.522 588.522 0 0 0 6.435 38.355 335.695 335.695 0 0 1 5.371 37.596 314.657 314.657 0 0 0 2.331 19.558 212.065 212.065 0 0 1 2.331 39.774c-.406 11.992-3.851 23.088-10.337 33.289v8.056l79.042-.152v-1.722a4.327 4.327 0 0 1-.557-1.115 6.455 6.455 0 0 1-.304-1.216 1992.683 1992.683 0 0 0 6.536-38.153 182.357 182.357 0 0 0 2.28-23.915c.406-13.107.659-26.213.76-39.319.102-13.14-.017-26.28-.354-39.42a774.25 774.25 0 0 0-1.976-38.558 1357.274 1357.274 0 0 1-2.382-38.812 3876.874 3876.874 0 0 0-2.128-39.267 2930.266 2930.266 0 0 1-1.976-38.66 1693.531 1693.531 0 0 0-2.077-39.217 220.137 220.137 0 0 0-1.926-17.582c0 .203.017.389.051.557.034.169.051.355.051.558a440.676 440.676 0 0 1-3.699-34.556 1335.007 1335.007 0 0 0-2.534-32.579 186.092 186.092 0 0 0-1.52-12.211c.034.162.051.314.051.456-1.791-9.643-3.581-19.27-5.371-28.881a7489.37 7489.37 0 0 1-4.915-26.55 204.89 204.89 0 0 1-1.52-9.07c.025-.144.041-.296.051-.456-3.593-10.754-6.684-21.986-9.272-33.694a438.714 438.714 0 0 0-7.347-28.627 202.939 202.939 0 0 0-14.694-36.481 185.052 185.052 0 0 0-15.707-25.03c-7.397-9.931-16.754-18.629-28.07-26.094-9.492-6.283-19.456-11.215-29.894-14.796a162.503 162.503 0 0 1-5.016-1.824.424.424 0 0 1-.152.102 6.01 6.01 0 0 1-.456.202 2.791 2.791 0 0 1-.507.152 1.35 1.35 0 0 1-.507.102 2.63 2.63 0 0 1-1.013 0 1.35 1.35 0 0 1-.507-.102 2.782 2.782 0 0 1-.506-.152l-.507-.202a33.991 33.991 0 0 0-9.424-3.952 55.07 55.07 0 0 1-10.083-3.547 62.826 62.826 0 0 1-3.395-1.621 131.405 131.405 0 0 0-15.454-10.033ZM259.441 555.194c.169-.034.337-.084.506-.152l.507-.101h.507c.169-.034.337-.034.506 0l.507.101c.169.034.338.084.507.152.169.068.321.135.456.203.169.101.321.202.456.304.135.135.27.253.405.354.135.135.253.271.355.406.101.101.186.236.253.405.135.27.253.557.355.861.101.338.169.659.202.963 0 .338-.016.659-.05.963 0 .169-.017.338-.051.506l-.203.406a6.01 6.01 0 0 1-.202.456l-.304.405c-9.323 9.56-20.031 17.177-32.124 22.851-9.796 4.561-20.149 7.145-31.059 7.753-4.02.236-8.023.033-12.009-.608a41.067 41.067 0 0 1-7.6-.912l-7.701-1.622a18.745 18.745 0 0 1-3.395-1.013 2.342 2.342 0 0 1-.456-.355 1.777 1.777 0 0 1-.355-.354 1.4 1.4 0 0 1-.354-.406 2.049 2.049 0 0 1-.304-.405 5.625 5.625 0 0 1-.203-.456 1.608 1.608 0 0 1-.203-.507 18.11 18.11 0 0 1-.101-.557 2.824 2.824 0 0 1 0-1.064l.101-.507.203-.507c.067-.168.135-.321.203-.456.101-.135.202-.287.304-.456.101-.135.219-.253.354-.354.102-.135.22-.254.355-.355.135-.101.287-.203.456-.304a4.61 4.61 0 0 1 .608-.253c.169-.068.372-.135.608-.203 13.714 3.614 27.58 4.104 41.598 1.469 12.938-2.432 24.49-7.921 34.657-16.467a428.834 428.834 0 0 0 11.705-10.184Zm83.501 203.939a1.756 1.756 0 0 1-.355-.355 1.4 1.4 0 0 1-.355-.405l-.304-.405a1.997 1.997 0 0 1-.253-.457 20.984 20.984 0 0 0-3.699-1.57 9.71 9.71 0 0 0-3.091-.507c-.202 0-.388.017-.557.051a2.72 2.72 0 0 1-.253.405 5.548 5.548 0 0 1-.304.456l-.355.355c-.101.135-.22.253-.355.354a1.972 1.972 0 0 1-.456.254 1.969 1.969 0 0 1-.456.253 1.797 1.797 0 0 1-.456.152l-.506.101a4.595 4.595 0 0 1-1.52-.05 4.458 4.458 0 0 1-1.318-.507l-.811-.507a3.555 3.555 0 0 1-.81-1.064 5.606 5.606 0 0 1-.507-1.773 4.533 4.533 0 0 1 .051-1.52c2.162-3.986 5.641-5.725 10.437-5.219 5.473.642 9.61 3.091 12.414 7.347.372.541.507 1.148.405 1.824l-.101.507a2.838 2.838 0 0 1-.152.506 1.969 1.969 0 0 1-.253.456 1.972 1.972 0 0 1-.254.456 3.874 3.874 0 0 0-.354.406 4.359 4.359 0 0 1-.456.405 4.587 4.587 0 0 1-.507.355 6.01 6.01 0 0 0-.456.202 2.791 2.791 0 0 1-.507.152 2.667 2.667 0 0 1-.557.153h-1.064a17.949 17.949 0 0 0-.557-.102 6.852 6.852 0 0 0-.456-.203 6.01 6.01 0 0 1-.456-.202 5.304 5.304 0 0 1-.456-.304Zm139.083-255.012a4.313 4.313 0 0 1 1.622-.102l.506.102c.169.033.338.084.507.152.169.067.338.152.507.253.506.27.962.642 1.368 1.115.439.439.878.912 1.317 1.418.304.372.524.794.659 1.267l.101.507c.034.135.051.287.051.456.034.169.034.321 0 .456 0 .169-.017.338-.051.506-.034.136-.067.288-.101.456a1.837 1.837 0 0 1-.152.456l-.203.406a5.304 5.304 0 0 1-.304.456 3.197 3.197 0 0 0-.304.355 3.57 3.57 0 0 1-.152.456c-.034.135-.084.27-.152.405-.169.27-.355.523-.557.76a5.267 5.267 0 0 1-.558.659c-.236.202-.472.388-.709.557a3.522 3.522 0 0 1-.507.253 2.782 2.782 0 0 1-.506.152l-.507.102a1.06 1.06 0 0 1-.456 0h-.608a6.06 6.06 0 0 1-1.723-.558 6.519 6.519 0 0 1-1.52-1.064l-.456-.456a10.367 10.367 0 0 1-1.114-1.317 7.966 7.966 0 0 1-.76-1.52 13.691 13.691 0 0 1-.355-1.115v-1.064c.034-.169.067-.355.101-.557.068-.169.118-.338.152-.507a4.2 4.2 0 0 1 1.571-1.925 11.652 11.652 0 0 1 3.293-1.52Zm-282.93-3.547a7.88 7.88 0 0 1 2.179-.304c.54 0 1.064.101 1.57.304.304.169.608.355.912.557.136.102.254.22.355.355.135.101.254.219.355.355.203.337.371.675.507 1.013.135.371.253.76.354 1.165a5.757 5.757 0 0 1-.861 3.04 7.33 7.33 0 0 0-.963 2.23 4.64 4.64 0 0 1-.76 1.165 3.035 3.035 0 0 1-1.165.811c-.27.135-.558.27-.862.405a68.58 68.58 0 0 1-.962.101c-.169 0-.355-.016-.558-.05l-.506-.101a1.797 1.797 0 0 1-.456-.153 1.969 1.969 0 0 1-.456-.253 1.969 1.969 0 0 1-.456-.253 3.79 3.79 0 0 0-.406-.355 1.777 1.777 0 0 0-.354-.355l-.304-.202-.406-.304a1.6 1.6 0 0 1-.405-.304 4.009 4.009 0 0 1-.811-1.166 3.76 3.76 0 0 1-.405-1.418v-.507c0-.135.017-.287.051-.456l.101-.507a3.57 3.57 0 0 1 .152-.456c.304-.506.625-1.013.963-1.52a9.668 9.668 0 0 1 1.013-1.317c.101-.135.22-.27.355-.405a6.886 6.886 0 0 1 2.229-1.115Zm-72.607 146.025c0 .203-.017.389-.051.557a5.816 5.816 0 0 1-.203.457 3.564 3.564 0 0 1-.253.506c-.068.135-.152.27-.253.406-.135.135-.254.27-.355.405-.135.101-.27.219-.405.355a2.727 2.727 0 0 1-.406.253 3.512 3.512 0 0 1-.506.253l-.507.203a18.11 18.11 0 0 1-.557.101 3.4 3.4 0 0 1-.558.051c-.169 0-.337-.017-.506-.051l-.507-.101a1017.903 1017.903 0 0 1-17.177-5.422 95.632 95.632 0 0 1-16.821-7.397 24.589 24.589 0 0 0-5.574-2.229 2.387 2.387 0 0 1-.456-.355 1.763 1.763 0 0 1-.355-.355 1.737 1.737 0 0 1-.354-.355 5.328 5.328 0 0 1-.304-.456 6.929 6.929 0 0 0-.254-.456 2.88 2.88 0 0 1-.151-.506 17.604 17.604 0 0 1-.102-.558 2.859 2.859 0 0 1 0-1.064l.102-.506.202-.507c.068-.169.135-.321.203-.456a5.28 5.28 0 0 0 .304-.456c.101-.135.22-.253.355-.355.1-.135.22-.253.354-.354a5.11 5.11 0 0 1 .456-.304c.203-.102.406-.186.608-.254.17-.067.372-.135.608-.202 6.013 1.317 11.84 3.462 17.481 6.434a47.296 47.296 0 0 0 9.272 3.801 128.81 128.81 0 0 1 15.555 5.522c.101.102.203.22.304.355.101.169.203.321.304.456.101.169.186.338.253.507l.203.506c.034.169.051.338.051.507a2.834 2.834 0 0 1 0 1.064Zm478.661-16.568c.236.236.456.473.658.709l.304.405.203.406c.068.169.118.321.152.456.068.202.101.388.101.557a2.831 2.831 0 0 1 0 1.064c0 .169-.033.338-.101.507a2.838 2.838 0 0 1-.152.506 3.629 3.629 0 0 1-.253.507 5.08 5.08 0 0 0-.304.456c-.102.135-.22.254-.355.355-.101.135-.22.253-.355.355a122.248 122.248 0 0 1-21.635 7.194 52.884 52.884 0 0 0-18.696 8.411c-1.25.912-2.517 1.807-3.801 2.686a2.888 2.888 0 0 0-.506.152l-.507.101h-1.013a7.174 7.174 0 0 1-.507-.101 2.96 2.96 0 0 1-.507-.152 3.52 3.52 0 0 1-.506-.254 1.58 1.58 0 0 1-.406-.304 5.548 5.548 0 0 0-.456-.304l-.304-.405a2.72 2.72 0 0 1-.253-.405 1.99 1.99 0 0 1-.253-.456 1.937 1.937 0 0 1-.152-.406 4.87 4.87 0 0 1-.102-.962 4.693 4.693 0 0 1 0-.963l.102-.507c.033-.135.084-.27.152-.405.067-.169.152-.321.253-.456a2.72 2.72 0 0 1 .253-.405c6.148-5.371 13.157-9.155 21.028-11.35a234.5 234.5 0 0 0 20.976-6.942 18.003 18.003 0 0 1 4.763-1.064c.169.034.321.068.456.102.169.033.321.084.456.152.169.067.321.135.456.202.27.169.54.355.811.558Zm-459.306-64.957c0-.101.017-.067.051.102v.202a1.552 1.552 0 0 0-.051-.304Zm271.885 8.867c.168-.067.32-.135.456-.202l.506-.102c.135-.034.287-.067.456-.101h.507c.169 0 .321.017.456.05l.507.102c.135.034.287.084.456.152a920.173 920.173 0 0 1 33.694 20.014c11.282 7.026 23.527 10.505 36.734 10.437a39.006 39.006 0 0 0 9.07-1.165 156.249 156.249 0 0 0 8.005-2.229c.169 0 .355.016.558.05.169.034.354.068.557.102l.507.202c.135.068.287.135.456.203l.405.304c.135.135.27.253.405.355.136.135.254.27.355.405l.304.405c.068.169.135.321.203.456.067.169.118.338.152.507a1.5 1.5 0 0 1 .101.557l.101.507c-.033.169-.067.355-.101.557 0 .169-.034.338-.101.507a2.96 2.96 0 0 1-.152.507l-.203.506a3.68 3.68 0 0 1-.355.406c-.101.135-.219.27-.354.405l-.355.355a38.266 38.266 0 0 1-8.157 2.837 136.527 136.527 0 0 1-10.387 1.824c-1.25.169-2.517.22-3.801.152a43.79 43.79 0 0 1-9.626-.861 52.568 52.568 0 0 1-9.019-2.534c-.8-.283-1.593-.604-2.382-.962a98.968 98.968 0 0 1-22.902-11.401 131.148 131.148 0 0 0-17.227-9.728 44.666 44.666 0 0 1-11.603-7.904 6.01 6.01 0 0 1-.202-.456l-.203-.507-.101-.506a2.834 2.834 0 0 1 0-1.064c.033-.203.067-.389.101-.558.034-.169.084-.338.152-.506.101-.169.186-.321.253-.456l.304-.406c.068-.135.169-.253.304-.354.102-.136.22-.254.355-.355.135-.102.27-.186.405-.254.135-.101.27-.185.406-.253ZM389.151 18.417a31.517 31.517 0 0 0-12.566.81c-7.161 1.892-14.406 2.466-21.736 1.723a86.341 86.341 0 0 0-21.281.507 68.173 68.173 0 0 1-20.47-.05 105.913 105.913 0 0 0-20.672-1.217 69.987 69.987 0 0 0-20.521 4.003 32.531 32.531 0 0 0-8.715 4.56c-4.56 6.35-7.735 13.36-9.526 21.027a76.306 76.306 0 0 0-1.925 21.433 155.114 155.114 0 0 0 2.584 21.23c.574 3.04.946 6.08 1.115 9.12.034.811-.287 1.453-.963 1.926-2.094 1.553-3.834 1.553-5.219 0l-.202-.102a21.648 21.648 0 0 1-2.736-1.52 20.263 20.263 0 0 0-6.942-3.04c-.507.068-1.013.152-1.52.253-.675.102-1.351.152-2.027.152h-.912c-2.398 6.925-3.141 14.221-2.229 21.889a38.51 38.51 0 0 1 .253 5.928 481.973 481.973 0 0 0-.101 3.04c-.235 6.422-.455 12.823-.659 19.203-.169 4.628 1.487 8.226 4.966 10.793a4.99 4.99 0 0 0 3.04 1.013c.202 0 .405.017.608.051a75.956 75.956 0 0 1 8.613-3.851c.744-.27 1.436-.169 2.078.304 1.993 1.452 3.124 3.513 3.395 6.181.101.946.236 1.892.405 2.838.743.743 1.182 1.841 1.317 3.293 0 .169.017.321.051.456.574.946.76 2.01.557 3.192-.067.304-.135.592-.202.862.304 3.614.641 7.245 1.013 10.893a596.637 596.637 0 0 0 2.483 20.369c.979 6.857 3.394 13.207 7.245 19.051a75.68 75.68 0 0 0 4.56 6.232 117.285 117.285 0 0 0 14.491 14.745 134.795 134.795 0 0 0 16.467 12.059c.473.304.963.574 1.47.81h-.051c6.215 3.108 12.769 4.848 19.659 5.219a28.53 28.53 0 0 0 7.195-.506c1.723-.338 3.327-.338 4.814 0 .642-.237 1.418-.288 2.33-.153.406.068.794.22 1.166.457 8.174.675 16.146-.457 23.915-3.395a72.2 72.2 0 0 0 15.555-8.208 132.288 132.288 0 0 0 10.742-8.158c.034-.034.067-.051.101-.051a101.375 101.375 0 0 0 17.785-15.099 36.52 36.52 0 0 0 4.813-6.739 101.126 101.126 0 0 0 3.547-7.194 68.61 68.61 0 0 0 5.32-19.812 31.75 31.75 0 0 0 .203-5.675 116.46 116.46 0 0 1 .354-17.176 2.73 2.73 0 0 1 .152-.557c0-2.399.051-4.797.152-7.195.136-4.02 2.095-5.624 5.878-4.814a5.462 5.462 0 0 1 3.141 1.774c.304.338.608.642.912.912.507.27 1.064.388 1.672.354a14.916 14.916 0 0 0 1.774-.202c.54-.102 1.081-.237 1.621-.406 3.175-3.107 4.999-7.009 5.472-11.704a25.2 25.2 0 0 1 .355-2.787 217.23 217.23 0 0 0 1.571-12.413c.309-3.281.545-6.574.709-9.881.27-6.046.338-12.109.203-18.189a5.438 5.438 0 0 0-.203-1.014c-4.256-1.621-8.006-.929-11.248 2.078a16.77 16.77 0 0 1-.71 1.621c-.743 1.52-1.959 2.246-3.648 2.179a3.92 3.92 0 0 1-1.723-.507c-.81-.473-1.384-1.132-1.722-1.976a4.336 4.336 0 0 1-.152-2.533c.067-.271.169-.524.304-.76a2.83 2.83 0 0 1 .202-.71c.203-7.701.237-15.437.102-23.206a362.059 362.059 0 0 0-.963-20.064 116.144 116.144 0 0 0-3.344-19.913c-1.79-6.924-5.489-12.532-11.096-16.822a3.276 3.276 0 0 0-.811-.456l.608.203a69.194 69.194 0 0 0-22.243-6.688Zm-75.344 65.666a40.272 40.272 0 0 0-8.056-.608 25.994 25.994 0 0 0-9.931 2.28 123.68 123.68 0 0 1-3.698 1.672 32.266 32.266 0 0 0-8.361 5.32c-.506.473-1.03.912-1.57 1.317a15.134 15.134 0 0 0-3.953 4.206c-.101 1.216-.658 2.195-1.672 2.938-.912.676-1.942.929-3.09.76a4.456 4.456 0 0 1-1.318-.506c-1.486-.98-2.145-2.382-1.976-4.206a8.27 8.27 0 0 1 1.926-4.408c.439-.506.726-.844.861-1.013l.557-.608a39.366 39.366 0 0 1 6.891-6.08 71.53 71.53 0 0 0 1.672-1.216 36.902 36.902 0 0 1 9.273-5.067 93.118 93.118 0 0 1 8.056-2.584 19.322 19.322 0 0 1 3.901-.71 53.913 53.913 0 0 1 10.438.203 41.164 41.164 0 0 1 10.032 2.483 115.09 115.09 0 0 1 6.232 2.685c.237.102.473.237.71.406 1.688 2.229 1.503 4.256-.558 6.08a2.737 2.737 0 0 1-2.128.71 11.065 11.065 0 0 1-3.851-.913 46.634 46.634 0 0 0-10.387-3.141Zm-19.051 24.016c.845-2.601 2.584-4.34 5.219-5.219 3.783-1.249 7.043-.54 9.779 2.129.372.371.625.793.76 1.266.743 2.838-.169 4.999-2.736 6.486a13.048 13.048 0 0 1-6.536 1.722c-3.175.136-5.303-1.199-6.384-4.002a3.226 3.226 0 0 1-.102-2.382Zm61.41-28.425c.54-.236 1.098-.506 1.672-.81a34.702 34.702 0 0 1 14.643-3.952c1.621-.068 3.226 0 4.813.202a47.549 47.549 0 0 1 10.387 2.28 89.487 89.487 0 0 1 9.526 3.902 174.206 174.206 0 0 1 9.678 4.965 22.829 22.829 0 0 1 4.357 3.243c.541.507.828 1.115.861 1.824.203 2.466-.895 3.97-3.293 4.51a3.499 3.499 0 0 1-1.672 0 250.767 250.767 0 0 1-7.195-3.902 163.216 163.216 0 0 0-7.245-3.8 28.93 28.93 0 0 0-1.774-.861c-.034 0-.118-.05-.253-.152l.101.101a6 6 0 0 1-.456-.203h.102l-.507-.202c-3.108-1.453-6.469-2.55-10.083-3.294a27.4 27.4 0 0 0-10.995-.101c-3.479.642-6.654 1.942-9.526 3.901-1.925 1.318-3.732 1.183-5.421-.405-.946-.878-1.284-1.976-1.013-3.293.405-1.824 1.503-3.142 3.293-3.953Zm21.382 23.815a9.67 9.67 0 0 1 5.421-.862c3.48.473 5.304 2.517 5.472 6.131a4.062 4.062 0 0 1-.912 2.888c-1.824 2.297-4.239 3.446-7.245 3.446-.135 0-.27-.017-.405-.051h-.355a1.117 1.117 0 0 0-.355-.051 4.828 4.828 0 0 1-1.419-.76 4.414 4.414 0 0 1-.861-.912 3.012 3.012 0 0 1-1.165-1.267 1.998 1.998 0 0 0-.102-.253c-1.52-1.283-1.891-2.956-1.114-5.016.54-1.486 1.554-2.584 3.04-3.293Zm-35.417 48.286a34.536 34.536 0 0 0-3.395 4.307c-1.723 2.567-1.841 5.151-.355 7.752.271.169.575.304.912.406.372.101.744.185 1.115.253h-.101a.909.909 0 0 1 .253.05 62.64 62.64 0 0 0 10.387.355l1.419-.101c2.466-.135 3.952.996 4.459 3.395.236 1.216-.068 2.263-.912 3.141-1.081 1.115-2.416 1.723-4.003 1.824a28.213 28.213 0 0 1-5.067-.051c-3.547 0-7.026-.489-10.438-1.469-2.634-.743-4.543-2.364-5.725-4.864-1.621-3.31-1.909-6.722-.861-10.235 1.047-3.445 2.837-6.435 5.37-8.968.203-.169.389-.355.558-.558 1.081-2.432 2.888-3.209 5.421-2.33 1.115.405 1.841 1.182 2.179 2.33.473 1.791.067 3.378-1.216 4.763Zm-98.6-31.921c2.736-2.297 5.86-3.834 9.373-4.611 1.96-.472 3.513.119 4.662 1.774 1.115 1.554 1.081 3.074-.101 4.56-.98 1.182-2.264 1.858-3.851 2.027a7.174 7.174 0 0 0-1.824.456c-2.534.979-4.189 2.719-4.966 5.219-.067.135-.084.304-.05.506v.102c.033.067.05.118.05.152 0 .033.017.084.051.152 1.115 1.351 2.618 2.043 4.509 2.077 1.96.034 3.902.169 5.827.405.743.102 1.503.22 2.28.355 1.689.54 2.635 1.689 2.838 3.445.202 1.622-.389 2.888-1.774 3.801-.979.641-2.043.827-3.192.557a118.715 118.715 0 0 1-10.488-1.47 9.74 9.74 0 0 1-4.661-2.28c-2.157-1.902-3.305-4.165-3.446-6.789-.041-.848.026-1.743.203-2.686.574-3.107 2.094-5.691 4.56-7.752Zm192.437 14.339a12.041 12.041 0 0 1-.659 2.888 6.605 6.605 0 0 1-1.57 2.483 24.234 24.234 0 0 1-9.729 5.979c-1.08.372-2.195.557-3.344.557-2.364.068-4.475-.54-6.333-1.824a2.206 2.206 0 0 1-.862-1.064c-.878-2.33-.236-4.087 1.926-5.269.946-.507 1.925-.625 2.939-.355 2.736.709 5.252.135 7.549-1.723a24.64 24.64 0 0 0 1.774-1.52 1.41 1.41 0 0 0 .405-.557 3.836 3.836 0 0 0-.405-1.469 5.927 5.927 0 0 0-.811-1.419 5.196 5.196 0 0 0-.558-.659 4.857 4.857 0 0 0-.912-.304 6.263 6.263 0 0 0-1.114-.101h-.76c-2.095 1.587-4.054 1.419-5.878-.507a3.25 3.25 0 0 1-.861-2.381c.169-2.365 1.419-3.902 3.749-4.611 3.581-1.081 6.959-.659 10.134 1.267a10.52 10.52 0 0 1 2.888 2.584c1.926 2.534 2.737 5.203 2.432 8.005Zm-59.028 68.605c1.419 1.655 1.469 3.361.152 5.117a10.216 10.216 0 0 1-2.027 1.976 412.175 412.175 0 0 1-6.333 4.408 40.022 40.022 0 0 1-9.019 4.459 61.172 61.172 0 0 1-9.475 2.534.226.226 0 0 1-.102.05c-1.722.338-3.462.49-5.218.456a73.874 73.874 0 0 1-10.59-.557 63.119 63.119 0 0 1-7.854-1.52 54.833 54.833 0 0 1-9.829-3.699 69.301 69.301 0 0 1-5.776-3.243 18.572 18.572 0 0 1-4.104-3.496c-1.757-1.959-1.892-3.952-.406-5.978.608-.879 1.436-1.352 2.483-1.419 1.925-.169 3.31.591 4.155 2.28a44.03 44.03 0 0 0 8.765 5.32 41.57 41.57 0 0 0 10.033 3.091 91.55 91.55 0 0 0 10.488 1.216 30.292 30.292 0 0 0 11.4-1.571 100.172 100.172 0 0 0 6.03-2.331 40.564 40.564 0 0 0 10.083-6.333c1.081-.98 2.313-1.605 3.698-1.875 1.352-.304 2.5.068 3.446 1.115Zm-26.145 20.571a.476.476 0 0 0-.203.051c.034-.034.068-.051.102-.051h.101Z"/></g><defs><clipPath id="a"><path fill="#fff" d="M0 0h680v943H0z"/></clipPath></defs></svg>