<svg xmlns="http://www.w3.org/2000/svg" width="140" height="359" fill="none" viewBox="0 0 140 359"><path fill="#000" d="M79.9 16.3A17 17 0 0 0 76.6 8q-.5-.7-1.1-1.2-1.7-1.5-3.8-2.4a6 6 0 0 0-4.3-.2h-3.5q-1.1 0-2.2.3h-.6l-2 .5q-1.2.3-2.5.4a35 35 0 0 1-6.5-.2 14 14 0 0 0-4.7.2q-3.6 0-6.4 2.1l-.4.5q-1.8 3.9-2.4 8-.4 3 .5 5.8-.7-.2-1.5 0-2.6.8-2.8 3.6a48 48 0 0 0 .7 11.8 5 5 0 0 0 3 3.5h.2q.4 0 .7-.2l.3-.2q0 .8.3 1.7.5 1.7.6 3.6a13 13 0 0 0 3.1 6.9l.3.4.6.6.6.5 3 3.8-1 1.2-1.1 1.6a67 67 0 0 1-14.4 6.6 51 51 0 0 0-11.8 5.2L16 73.9a6 6 0 0 0-1.8 2.5 77 77 0 0 0-3 10q-1 4.3-.8 8.6.2 2.4.8 4.1l-.1.4q-.3 5.3-1.3 10.5-.6 2.7-.2 5.4l.6 7.3-.3.5-.5 1.4A51 51 0 0 0 8 141.7 331 331 0 0 0 9.5 163a94 94 0 0 1 .8 10.8 48 48 0 0 1 1.6 14.8l-1 7.8a17 17 0 0 0 2.7 10.8l.4.8q.8 1.1 2 1.8a7 7 0 0 0 4.5 1l1.8-.4q-.7 3-.8 6.2 0 2.1 2 2.7l1.4.4 1.7 13.8a34 34 0 0 1 0 9.8l-.5 4L25 259l-.2.9a62 62 0 0 0-.7 21q.6 5.2.5 10.6a100 100 0 0 0 2.2 21.9q-.2.3-.2.7l1.4 7q.5 2.8-.6 5.5v.3l-3 4.8q-3.1 4.5-5.6 9.5l-.5.5a6 6 0 0 0-2 4.3 8 8 0 0 0 .7 3.5q1.7 3.6 5.7 3.5h3q2.7.1 5-.4.9-.1 1.4-.6a12 12 0 0 0 4.4-6.4v.1-.3q1-2.1 1.7-4.2 1.8-5.1 4-9.9.6-1.2.8-2.5l.2-1.2-.1-2-1.2-4.7-.3-1.3.4.1-.2-2.7q-.1-2.7.3-5.2 1-5.2 1.6-10.5.6-5.1 1.5-10.1a91 91 0 0 0 1-13.3q-.6-5.2-.4-10.6a34 34 0 0 1 2.6-12.2q1.9-5 3.6-10a34 34 0 0 0 1.8-10.6q.4-1.5.4-3 0-2.3.7-4.5l2-5.6h.3q.5 0 .8-.3.7-1.2.9-2.5l1.5-12.5a25 25 0 0 1 .5 7.5 64 64 0 0 0-.2 8.3q0 .5.2 1a1 1 0 0 0 1 .7h.2q.9-.3 1.3-1v.3l1.6 3.7q1.5 2.8 1.7 5.8l.2 2.4v.4l.2.8v1.8l1.2 8.7 1.3 3.8 3.4 9.6q1.1 3.8 1.3 7.8l.4 13q.7 5.4 1 11 .2 3 .8 5.6l2.3 9.3q1.4 5.4 1.1 10.7 0 3.6-.9 7.1-.3 1.5-1 2.6a9 9 0 0 0-.1 8.5q.6 2.1 2 3.8a52 52 0 0 1 5.8 7.6 9 9 0 0 0 6.8 4.6q4.1.2 7.7-2l1.5-.8a4 4 0 0 0 2.4-3.4q.6-3.3-1.7-6l-5.2-6-2.1-4.8a16 16 0 0 1-1-3.8q-.4-4.2-.5-8.3l2.2-16.9a84 84 0 0 0 .7-11.6v-.1q.3-2.8.3-5.6v-10.7q-.3-5.4-1.7-10.6a32 32 0 0 1-1.2-7.7q0-5.2.2-10.6a411 411 0 0 0 1-21.2q0-1 .4-2l.1-.8q.6 0 1.3-.3.3-.2.3-.5l-.8-8.7q1.5-.3 2.8-1.1a8 8 0 0 0 4.4-6 53 53 0 0 0 1-10.3 77 77 0 0 1 1.6-16q.7-5 1.6-10.3l2-10a117 117 0 0 0 2-13.6q1.1-6-.8-11.4l.1-2q.3-1.5.2-3 0-5.2.2-10.5t-1-10.5l-1-4q0-1.3-.7-2.4a44 44 0 0 0-.1-12 42 42 0 0 1-1-6.9q-.2-1.3-.7-2.5a14 14 0 0 0-7-7.3 584 584 0 0 1-20.5-10.2q-3-1-5.3-3.3a11 11 0 0 0 3.4-5.6q1.2-4.2.7-8.5 1.2.2 2.3-.7a5 5 0 0 0 1.2-1.8q1.2-2.7 1.7-5.5.6-3.3.6-6.7 0-3-2.9-3.8h-.8q-.6 0-1 .3l.2-1q.7-3 .4-6.2m-6.2-7.6q1.6 1.5 2.5 3.6l.7 1.8q.8 2.4.3 4.8a39 39 0 0 0-.7 7.3v.8q0 .4.2.7.4.5 1 .5t1-.4l.2-.2.6-1.1.2-.3.4-.3.2-.2h.4l.4.2.2.1.2 1.4q0 2.6-.5 5.2-.5 3-1.7 6l-.6.5h-.4l-.8-.5-.4-.3-.3-.1h-.5q-.5 0-.8.3-.3.4-.4 1l.3.7.2 2a23 23 0 0 1-1.6 9.7l-.4.7-.9 1v.1h-.3l-.9.1q-.4.3-.6.7v.6L68 56.8a17 17 0 0 0-3.7 2.5l-.2.2-.6-.1-.7.1-2.3 1.2h-.2l-.2.1-.5.1h-.5l-.6-.1-.8.1-.4-.1-4.8-1.2q-.2 0-.5-.3l-1.4-.8-1.1-.6-.6-.6V57q0-.4-.3-.7a1 1 0 0 0-1.2-.4l-.2-.3-3.4-3.8q-1.5-1.5-2.2-3.6a62 62 0 0 1-2.2-9.9q0-.8-.6-1.2-1.2-.4-2 .6l-.2.2h-.2l-.2.2q-.9-2.1-1.2-4.4l-.2-2.5q-.2-3.3.4-6.4l.4-.4h.4l.2.2 1.5 1.2a4 4 0 0 0 1.2 1.8h.1l.2.1h.9q.5-.2.6-.8.3-.4 0-1l-.4-.7q-.6-1-.7-2.3a5 5 0 0 0-.8-2v-5.2l.1-.6.1-.3a30 30 0 0 1 1.4-5l.5-.4q.8-.6 1.8-.9l2.6-.4 4.1-.2q1.9.4 3.7.4h3q2.6 0 5.2-1l.5-.1.6-.1h.3l.5-.1H65l1.2-.1h1.6l1.7-.3.6.2 1.7.8zm14.5 57.8q4.8 2.5 9.6 4.7 2.3 1.2 4.4 3a7 7 0 0 1 2.4 4.6l.4 2a69 69 0 0 1 1.4 14.8q-.3 0-.6.4-.6.5-.4 1.3l.3.6 1.7 5.3q1.5 5.3 1.2 10.8-.2 5.2 0 10.3 0 1.5-.3 2.7-.6 2.7.5 5.1.5 1.8.6 3.7l-.1 3.6q-.5 5.4-1.4 10.7l-2 10.4-1.7 10.4a154 154 0 0 1-2 12l-.4 11.7q-.1 4.5-1.5 9-.3.1-.6.5-.9.8-2.1 1.5-1.2.8-2.5 1.2h-2.3a8 8 0 0 1-3-1.2l1.6-.4q.8-.2 1.2-.8a8 8 0 0 0 1-9l-1-.7v-.1q0-.7-.5-1-1.4-.9-2 .5-.8 1.7-1 3.3-.6 3.1-1.7 6.3l.2-3.3q0-5.5 2.8-10.2a61 61 0 0 0 4.5-10.2v-.7q.3-3.2-.1-6.5l-.2-2.5a77 77 0 0 0-.5-11.2v-7.9a79 79 0 0 1 0-10.3q.3-5.3 1-10.6l.1-.5.3-1.5.4-1.8-.1-.6-.2-.3v-.1l-.1-.9-1-3.7-.8-2.4-.8-5.3-.1-.7a40 40 0 0 1-.2-13.9q.3-1.8 0-3.7l.7-2.1v-.1q.7-1.2-.4-1.9-.7-.6-1.6.2-.8.8-.8 1.8-.5.8-.6 1.6-.3 1.2-.9 2.2L88 98.7a18 18 0 0 1-6.6 4 23 23 0 0 1-12.1.8 71 71 0 0 1-7.2-2.9q-.6 0-1 .5t-.3 1.2q0 .6.6.9l1.7.8q2.5 1.5 5.2 2a36 36 0 0 0 6.8.8q1 0 2.1-.4l1.8-.4h-.1l1.5-.3a22 22 0 0 0 9.4-5l-.2 2.2-.2.7-.2 1.7q0 5.3-.3 10.7 0 5.2-.7 10.6a264 264 0 0 0-2 21.2q-.2 5 .4 9.9l-.7.3a44 44 0 0 1-11.2 3.7q-1.3 0-2.6.2a69 69 0 0 1-24.7-1.2l-10.2-2.9a5 5 0 0 1-2.2-1.3q-.5-.6-1-.7v-.2q.6-5.2.7-10.7l.5-12.3a99 99 0 0 0-1.9-15 136 136 0 0 1-1.8-11.2q0-.3-.3-.5v-1.1q2.4 1.7 5.5 2h1.1l3.4.4q1.8 0 3.4.4h1.7l.8-.1 1.6-.4.9-.2h2q2.3-.3 4.4-1.3l3.8-2.6q.3-.6 0-1.1t-.8-.7h-1l-1.1.7-5 2.2h-.7l-.6.1h-.7a50 50 0 0 1-7.2.6L37 104q-3.2-.1-5.3-2.7-2.7-3-3.5-7.3l-.3-.6q-1.3-1.6-2.4.2 0 1.2.4 2.6a46 46 0 0 0 2.2 5.8q.6 5.3.3 10.5-.2 5.4-.8 10.9v-.1 1l-.5 3-.4 3.4q-.7.6-.4 2 1.1 5.2 1.1 10.5a66 66 0 0 1-2 16l-2.1 10.4q-.4 2-.3 4v7.9l.2.7 1 2.5a64 64 0 0 1 4 10.7q.7 2.7.6 5.2-1-3.9-3.8-7-.7-.7-1.6-.3-1.4-.2-1.4 1.6l-.3 1.8q-.3 2.7.5 5.3a6 6 0 0 0 3.5 3.8v.3l.1.3q-1 .2-2 .6l-2.7.8H20l-.7.1h-.6l-1.1-.5-.8-.5-.6-.7q0-.3-.3-.5-.8-1-1.1-2L14 201l-.4-2.8v-.8q0-3.3.7-6.6 1-3.3.5-6.8v-1l-.2-.5q0-3.3-1-6.6l-.4-1.4a271 271 0 0 1-1.8-18.7 136 136 0 0 1-.5-12 99 99 0 0 1 0-9.2q0-4 1-7.7h.2q.5 0 .6-.6.5-2 .3-4.4 0-1.1-.3-2.2-.8-5.3.1-10.4a68 68 0 0 0 1.1-10 31 31 0 0 1-.2-10.8q.8-2.5 1.2-5a24 24 0 0 1 2.6-7.3l2.3-2.1q4.8-2.6 10-4.1a65 65 0 0 0 18.7-9.5v-.4l2.2 1.4a16 16 0 0 0 8.3 1.8h.3q1.5.1 2.7-.5l.7-.3q1.2 0 2.3-.6t1.9-1.4l5-3.1q1.2 1.5 3 2.3zm-57.5 53.2 1 5.3q.5 5.2.7 10.4-.4 4.8-.6 9.5l-.7 11.6-4.8 17.8-.7 3q-.2-3.5.4-7.1.6-4 1.6-8 1.2-5.1 2-10.4t.5-10.7a60 60 0 0 0-1.3-9.5l.1-.1q.6-.6.5-1.4l.5-2.8zm3.5 102 3 .3 12.7.3q1.8-.3 3.7-.3a20 20 0 0 0-2 7.5 146 146 0 0 1-1.7 13.1l-2.6 7.6v.2l-2.2 6a35 35 0 0 0-2 15l.3 6.6a55 55 0 0 1-.8 10.7l-1.5 10.5q-.6 5.3-1.6 10.4a25 25 0 0 0-.4 6.2q-.6.3-.6 1.4 0 1.5.4 2.6 1.2 4.1 1.4 8.3-.7 2.5-1.8 4.9a107 107 0 0 0-5.2 13.4q-1.2 4-5.2 3.8h-1.5q-3 .3-6.1-.4l-.8-1q-1.1-1.5-.7-3.4 0-.7.6-1.5 2.4-2.9 4.2-6.4 1.6-3 3.9-6 2-2.4 3.1-5.3l-.5-.1q.8-2.7.3-5.6l-.6-4.2-.7-3.7a85 85 0 0 1-2-20.9q0-5.4-.6-10.8a73 73 0 0 1 1-21.9l.8-8.4 1-13.2q0-3.4-.4-7l-1.4-10zm59-95.7v.2a37 37 0 0 0-1.2 6.3v1l-.4 4.9-.3 4.8q-.3 3 0 5.8a45 45 0 0 1 0 8.6 111 111 0 0 1 .5 9.9v5.4l-.7-2.8-2.1-13.5q-.3-5 0-9.9a560 560 0 0 1 2.4-26.5zm-3.9 70.8v-.1m3 22.8v1.4a226 226 0 0 1-1 21.2L91 248q-.5 5.4 1 10.6a69 69 0 0 1 2.1 19.7l-.3 10.5q0 4.8-.6 9.6l-1.4 10.2a67 67 0 0 0-.4 16.3 31 31 0 0 0 3.8 10.3l.8 1 3.4 3.8q1.6 1.8 2.3 4.1v.4l-.1.4v.2l-.1.1v.2l-.2.2-.1.2-1.2.7q-2 1.6-4.6 2.2t-4.9-.4l-.3-.3q-2.6-2.9-4.7-6.1-.4-.9-1.2-1.6a16 16 0 0 1-4.8-8.5q.5-2.2 1.4-4.4a15 15 0 0 0 1.3-5.4q0-1.9.4-3.7.3-2.6 0-5.1l-2.1-10.8-.5-2.1a57 57 0 0 1-2-13.7q-.8-4.5-.8-9 0-5.3-.3-10.5-.3-4.6-1.6-8.8a124 124 0 0 0-4.1-11.5 124 124 0 0 1-1.5-10.2v-.7l-.1-1-.1-2q-.2-2.2-.9-4-1.2-3.4-2.8-6.7 3.8 0 7.4.3l1.5-.2a157 157 0 0 1 12.7-1.8q2.6-.2 5-.8M63.6 222v.1m3.3 13.2v-.1M91 314.9zv-.1zm-66.8-33.2v.1m26.3-177.5h-.1m41.8 4.4q0-.3 0 0M54 19.6h-1.2q-4.3-.6-7.8 2l-1 .8q-2 1-1 3h.1q.9.6 1.6-.2a10 10 0 0 1 6-3.2q1.1-.2 2.2.3t2.3 0q.5 0 .5-.6.3-1.7-1.7-2m-2.5 8V27q.1-.5-.4-.8l-.2-.2q-1.6-1-2.1.8 0 .4.2.6 0 .7.7 1 1.4.6 1.8-1m-11.6 2v-.2h-.2q-1.5-.3-2.5 1.1-.6.8-.6 1.7 0 2.1 2 2.7h.4l.7-.1 1-.4V34l.1-.3v-.4h-.1v-.2h-.2V33h-.2L40 33h-.2l-.4.2-.4.1h-.2l-.3-.1V33l-.2-.1-.1-.2v-.1l-.1-.2v-.1l.5-1h.1v.1h.1l.2.2.1.2h.8v-.1l.2-.2.1-.2q.2-.5.1-1zm36.8 1.7h.4l.2.1v.1l.3.6v1.4l-.6 1h-.7l-.8-.3-.5-.2h-.3l-.4.3v.1l-.1.3v.5l.1.1.4.3 1 .4.9.2.9-.3q2.6-1.7 1.4-4.7a2 2 0 0 0-1.6-1.4q-2.5-.3-2.7 2v.1l.1.1v.1l.1.1h.1v.1h.2v.1h.6l.2-.1v-.1h.1l.1-.2v-.2h.1v-.3h.2v-.1l.2-.1zm-19 6.4.3-.6.3-.3q.8-.7.8-1.7 0-.3-.2-.6-.4-.7-1.3-.6-.5.1-.7.5-1 0-1.2 1.2a7 7 0 0 0-.5 3.6q0 .7.6 1 1.5 1 3.5 1.2.5.1 1-.1.7-.4.6-1.3 0-.7-.8-1l-.4-.1-1.2-.2q-.6 0-.9-.3zm9.7-11.4-1-.4q-.6-.1-.9.4l-.5 1q0 .6.7 1 .8.3 1.4 0t.7-1.1q.1-.6-.4-1m2.3-3.4.2.1.5.3q.2.3.4.3 1.2.6 1.8-.6.3-.5-.1-1.1a5 5 0 0 0-2.2-1.5 14 14 0 0 0-7.6-1.4 5 5 0 0 0-3.1 1.4q-.5.5-.2 1 .8 1.8 2.6.4l1-.1a11 11 0 0 1 3.5 0q1.7.4 3.2 1.2"/><path fill="#fff" d="M92.2 221q0-.8.2-1.4-2.6.6-5.1.8-1.2 0-2.3.2a157 157 0 0 0-12 1.8q-3.6-.3-7.3-.3 1.5 3.3 2.8 6.6.8 2 .9 4l.1 2v1.1l.1.4v1.2a124 124 0 0 0 1.8 10.2q2.1 5.2 3.8 10.6 1.3 4.3 1.6 8.8.5 5.2.3 10.4a48 48 0 0 0 1 10.9 57 57 0 0 0 2.3 14q1.2 5.4 2 10.8.5 2.6 0 5.1l-.3 3.7a15 15 0 0 1-1.3 5.4q-1 2.3-1.4 4.4l.8 2.8q1.4 3.1 4 5.7.8.7 1.2 1.6a37 37 0 0 0 5 6.4q2.4 1 4.9.4t4.6-2.2l1.2-.7v-.1l.1-.1.1-.2.1-.2v-.3l.1-.4v-.4q-.5-2.3-2.2-4l-4.2-5a31 31 0 0 1-4.3-16.2q0-5.2.9-10.3l1.4-10.2a77 77 0 0 0 .7-10.4l.2-9.7a82 82 0 0 0-2.1-19.7q-1.5-5.2-1-10.6l1-16.2q.3-5.3.3-10.7m-55 1-3.3-.3q-3.1-.4-6.2-1.2a151 151 0 0 1 1.8 17v2.6a468 468 0 0 1-3.2 30.3q-.2 5.3.4 10.5.6 5.4.5 10.8a104 104 0 0 0 2.9 24.6v1l.5 3.2q.4 3-.3 5.6h.5q-1.1 3-3.1 5.5a33 33 0 0 0-3.9 6 36 36 0 0 1-4.2 6.3 3 3 0 0 0-.6 1.5q-.3 1.8.7 3.5l.8 1q3 .6 6 .4h1.6q4 0 5.2-3.9l1-2.7q1.7-5.5 4.2-10.7 1-2.4 1.8-5-.2-4-1.4-8.2l-.4-2.6q0-1 .6-1.4v-.8q-.2-2.7.4-5.4 1-5.3 1.6-10.4l1.5-10.5a55 55 0 0 0 .5-17.3 38 38 0 0 1 3.3-18.7l.9-2.3v-.2l3.1-10q.8-5.3 1.2-10.7a20 20 0 0 1 2-7.5q-2 0-3.7.3-1 .3-2 .1zM97.8 71.2a285 285 0 0 1-19-9.4l-3.9-2a8 8 0 0 1-3-2.3l-2.2 1.4-4.7 3a5 5 0 0 1-2.4.7l-.6.3a5 5 0 0 1-3.3.5 16 16 0 0 1-10.1-3.2l-.1.4q-.1.6-.7.9a84 84 0 0 1-18 8.6 55 55 0 0 0-11 5l-1 .8-.3.4a24 24 0 0 0-2.6 7.3l-1.4 6a31 31 0 0 0 .4 10l-.1.3q-.1 4.8-1 9.5A32 32 0 0 0 13 122q.2 2.3-.3 4.4 0 .4-.6.6h-.3q-.7 3.7-1 7.7A99 99 0 0 0 11 146a136 136 0 0 0 .6 10.6l1.7 18 .3 1.3q1.2 3.3 1 6.6l.3.5v1q.5 3.5-.5 6.8-.8 3.3-.7 6.6v.8l.5 3.6.7 1.9q.3 1 1 2l.4.5.4.4q0 .1.2.3l.8.5 1.1.4.6.1 1.5-.1h.3l2.7-.8q1-.5 2-.6v-.6h-.2q-2.6-1-3.4-3.8a14 14 0 0 1-.2-7q0-1.9 1.4-1.7.9-.4 1.6.4 3 3 3.8 7a18 18 0 0 0-1-6.4q-1.5-5.1-3.7-9.6l-.9-2.5-.2-.7v-8q0-2 .3-4l3.2-15.7q.9-5.2 1-10.6t-1.2-10.6q-.2-1.3.4-1.9v-.2q0-1.5.4-3.2l.5-4q.6-5.4.8-10.8a71 71 0 0 0-.3-11l-.7-1.3-1.5-4q-.4-1.4-.4-2.6 1.1-1.8 2.4-.2l.3.6q.8 4.2 3.5 7.3a8 8 0 0 0 5.3 2.7l8 .7a50 50 0 0 0 6.6-.7h.2q1.3-.3 2.5-.9l3.6-2h1q.6.1.8.7t0 1v.3q-1.9 1.4-3.8 2.4-2.1 1-4.4 1.3h-2l-1.7.4-.8.2H47l-1.6.1h-.8l-3.4-.4-4.5-.4q-3-.3-5.5-2v1.1l.3.5q.3.4.3 1l1.5 10.1A121 121 0 0 1 35 135l-.4 10-.7 10.8q.5.1 1 .7a5 5 0 0 0 2.2 1.3l13 3.5 4.6.9a72 72 0 0 0 19.9-.6q2.7-.3 5.4-1.2a44 44 0 0 0 6.5-2.7q-.7-4.9-.4-9.9l2-21.2q.7-5.2.7-10.6l.5-12.4.2-.7.2-2.3-.7.7a22 22 0 0 1-10.2 4.7q-.8 0-1.7.4a8 8 0 0 1-3.3.4q-2.8 0-5.6-.7t-5.2-2l-1.7-1q-.6-.2-.6-.8-.2-.7.3-1.2t1-.5a71 71 0 0 0 8.2 3.2q5.7.7 11.1-1.1 3.8-1.3 6.6-4l2-4.3.6-1.6q0-1 .8-1.8.7-.8 1.6-.2 1.1.7.4 1.9l-.7 2.2q.3 1.8 0 3.7l-.5 5a40 40 0 0 0 .8 9.7v-.1a62 62 0 0 0 3 13.3l-.4 1.8-.3 1.5v.5q-.9 5.2-1.2 10.6a79 79 0 0 0 .1 12.3l.1 7q.6 5.2.4 10 0 1.4.2 2.6.4 3.3 0 6.5l.1.7-.1.8a61 61 0 0 1-4.4 9.4 20 20 0 0 0-2.8 10.2q0 1.6-.2 3.3 1.1-3 1.7-6.3.2-1.6 1-3.3.6-1.3 2-.5.5.3.5 1 .4.2 1 .9l.7 1.7q1 4-1.7 7.2-.4.6-1.2.8l-1.6.4q1.5.9 3 1.2H95l2.5-1.2q1.2-.7 2-1.5l.7-.6q1.4-4.2 1.5-8.9l.2-12.3q1.3-5.7 2.2-11.4.7-5.3 1.8-10.4l2-10.4a105 105 0 0 0 1.4-14.3q0-2-.6-3.7a8 8 0 0 1-.5-5q.3-1.4.3-2.8-.2-5.2 0-10.3.3-5.5-1.2-10.8-.7-2.6-1.7-5.3l-.3-.6q-.2-.8.4-1.3l.6-.4A56 56 0 0 0 105 81l-.4-2q-.3-3-2.4-4.8a18 18 0 0 0-4.4-2.9m-5.5 37.5v-.1q0-.3 0 0m-41.8-4.5h-.1m25.7-91.9a10 10 0 0 0-6.6-5.8H69l-1 .3h-1.6l-1.2.1h-2.2l-.4.1-.6.1h-.5q-2.6 1-5.3 1h-2.9q-1.8.2-3.7-.3h-2l-2.8.2-2 .4q-1 .3-1.7.9l-.5.5-1.4 4.9v.3l-.2.6q-.2 1.3-.2 2.7l.2 2.5q.6 1 .8 2 .1 1.2.7 2.3 0 .4.4.7.3.6 0 1-.1.5-.6.8a1 1 0 0 1-1.2 0 4 4 0 0 1-1.2-1.9L36 24.3h-.4l-.2.2q-.1 0-.2.2-.7 3-.4 6.4l.2 2.5q.3 2.3 1.2 4.4l.2-.1.2-.1.2-.2q.8-1.1 2-.6.8.4.6 1.2v.2q.8 5 2.2 9.7a9 9 0 0 0 2.2 3.6l3.6 4h.3q.6 0 1 .5l.3.7-.1.4.6.6 3 1.7 2 .7 3.2.6.8-.1h.6l.5.1.7-.2h.2l2.3-1.2.7-.1.6.1.2-.2.3-.1q1.6-1.4 3.4-2.4 1.5-.7 2.7-1.7l.1-.6q.1-.4.6-.7a1 1 0 0 1 1.1 0l.1-.1.2-.2 1.1-1.6.3-.3a23 23 0 0 0 1-11.4l-.2-.8q0-.4.4-.9.3-.3.8-.3h.4l.4.1q.3 0 .4.3l.8.4.4.1.4-.4.2-.2a25 25 0 0 0 1.7-6 44 44 0 0 0 .3-6.5l-.2-.1-.4-.2h-.4l-.2.2-.4.3-.2.3-.4.5-.4.8q-.4.4-1 .4t-1-.5l-.2-.7v-1.1l.1-.2q0-3.4.6-6.8.5-2.4-.3-4.8zM69.9 23l-.2-.1q-1.5-.8-3.2-1.1a11 11 0 0 0-4.5 0q-1.7 1.4-2.6-.4a1 1 0 0 1 .2-1 5 5 0 0 1 3-1.4 14 14 0 0 1 7.7 1.4 5 5 0 0 1 2.2 1.5q.4.5 0 1.1-.5 1.2-1.7.6l-.4-.3q-.2 0-.5-.3m-2.6 3.2h.1q.6.4.4 1-.2 1-.7 1-.5.4-1.4 0a1 1 0 0 1-.7-1l.5-1q.3-.3.8-.3h.4l.3.1zm-9.3 11-.2.5-.2.7q.3.3 1 .3l1.5.3q.7.3.8 1 0 .9-.6 1.3-.5.2-1 .1-1.9-.1-3.5-1.1-.5-.4-.6-1-.3-2 .5-3.7 0-1.2 1.2-1.2.2-.4.7-.5.9 0 1.3.6.3.3.2.6a3 3 0 0 1-1.1 2m18.8-6h-.2l-.1.1-.1.1h-.1v.2l-.1.1v.2l-.1.1v.1l-.1.1h-.1v.1h-.2v.1H75l-.2-.1v-.1h-.1l-.1-.2v-.2q.1-2.3 2.6-2a2 2 0 0 1 1.6 1.4q1.2 3-1.4 4.7-.4.3-1 .3l-.9-.2-1.3-.8V35l-.1-.1v-.6h.1l.1-.2.2-.1h.9l.8.4h.7q.5-.4.6-1v-1.4q0-.2-.2-.5l-.1-.2h-.1l-.1-.1h-.3m-37-1.8.1.1h.1l.3 1v.8l-.2.3-.1.2h-.2l-.1.1H39l-.1-.2-.2-.1v-.2h-.2l-.3.4-.2.6v.3l.4.5h.4l.1.1.4-.1.6-.2h.3l.2.1.1.1v.1h.2v.9l-.3.2-.8.4-.7.1h-.4q-2-.6-2-2.7 0-1 .6-1.7.9-1.3 2.5-1.2zm11.7-2.3v.4q-.4 1.5-1.8 1a1 1 0 0 1-.7-1l-.2-.6q.4-1.8 2.1-.8l.2.2q.4.3.4.8m1.3-7.6 1.2.2q2 .3 1.7 2 0 .5-.5.6-1 .4-2.3 0-1-.4-2.3-.3a10 10 0 0 0-6 3.2q-.6.8-1.5.3l-.2-.2q-.9-1.8 1-3 .6-.2 1-.6 3.5-2.7 8-2.2"/><path stroke="#000" stroke-linecap="round" stroke-width="2" d="M53 49q.6.5 1.6.6l1.9.3h3.4l2-.5 1.7-.8.4-.2.4-.4"/><path fill="#000" d="M123.5 352.5a1.5 1.5 0 0 0 3 0q-.2-8.9-.6-17.4l-.3-9v-.1q-.5-12.9-.6-25.7c-.1-9-.6-17.9-.6-26.8q-.5-16.1-.7-32v-.2c0-3.5-.4-7.4-.4-10.5q.6-14.5.7-29v-20.9c0-4.3.6-8.8.6-13.4q.5-12.4.7-25-.1-15.8.4-31.3v-.1c.5-8.3.6-16.6 1.3-24.7v-.2c1-6.3-.2-13.2 0-18.8 1-5.6 0-11.7-.4-16.8q.4-11.2.7-22.9v.1a221 221 0 0 0 .4-17.8q0-2.4-.7-5a1.5 1.5 0 0 0-2.8.7q.4 2 .5 4.4a211 211 0 0 1-.5 17.5v.1c0 7.7-.5 15.1-.7 23 .5 5.9 1.3 10.9.4 16.2-.2 7 .9 12.7 0 19v.2q-.9 12.5-1.3 24.8v.2c-.5 10.4-.4 21-.5 31.3v.1q0 12.4-.6 24.9c0 4.5-.7 8.8-.7 13.5v20.9a816 816 0 0 1-.7 28.9c0 4 .5 7 .5 10.6v.1q.1 16.1.7 32v.1q.2 13.6.7 26.8.1 12.9.7 25.8l.3 9z"/><path fill="#000" d="M120.3 2.3a1.9 1.9 0 1 0 1.2 3.5l.6-.1q2-.5 4.4-.2l-.4-.1q2.7 1 5.8 1.6l2 .4h.7q.6.1 1-.1.6-.4.7-1 0-.4-.2-1t-.8-.7l-.7-.2-2-.7q-2.5-.9-5.3-1.9h-.4a18 18 0 0 0-6.6.5"/></svg>