<svg xmlns="http://www.w3.org/2000/svg" width="312" height="175" fill="none"><path fill="#000" d="M119.6 156v.5l-.2.2a18.1 18.1 0 0 1-.1.3c-.3 4.7-.1 9.4.3 14.1 0 .6.3 1 .8 1.3 2.8 1.4 5.8 2.1 9 2.2a810.4 810.4 0 0 0 20.4.2c5.3 0 10.7-.3 16-1 5-.5 9.8-.6 14.7-.3 2.1.2 4.2.2 6.3.2a43.3 43.3 0 0 0 13.7-2.2h.5c.8-.2 1.3-.6 1.6-1.4.9-2 1-4 .2-6.2-1.1-3-2.4-6-4-9a8 8 0 0 0-5.5-4.4c-2.5-.5-5-.6-7.8-.1a161.8 161.8 0 0 1-24.2 2.3h.1c-.9 0-1.7 0-2.6.2l-4.8.3c-1.6 0-3.2.1-4.7.4l-3-.5-7.5-.4c-2.6 0-5.1 0-7.7.3l-2.4-.3c-1.7 0-3.4 0-5 .3a6 6 0 0 0-3.8 2l-.2.4-.1.6Zm3.2-.4c.1-.2.3-.2.4-.3l3-.3c2.8.2 5.5.2 8.2 0a52.4 52.4 0 0 1 8.8.3c3.6.5 7.2.5 10.9.3 2.7-.3 5.3-.4 8-.5a143.4 143.4 0 0 0 17.6-1.4l5.2-1a16.7 16.7 0 0 1 7 0 93 93 0 0 0 2.2.5c.2 0 .4.2.6.4l.5.4a25.8 25.8 0 0 1 3.2 5.5 118.5 118.5 0 0 1 2 5 49.4 49.4 0 0 0 .8 4v.2l-.1.1-.1.1-.1.1-4.9 1.1c-1.7.5-3.5.8-5.3 1a80.4 80.4 0 0 1-8.4.2c-3.3-.2-6.6-.2-9.9 0a672.6 672.6 0 0 1-29 1.4h-3l-9.7-.4c-3.2 0-6.1-.5-8.9-1.5l-.3-1.2a104.8 104.8 0 0 1 .2-12v-1.2a24.2 24.2 0 0 0 1-.8Zm-1 .6ZM140.9 0c-4.6.6-8.8 2.3-12.6 5.2-2.8 2-5.9 3.4-9.4 4-4 .6-7.8 2.1-11.3 4.5l-.8 1.2a5 5 0 0 0-.7 4.1 17.3 17.3 0 0 0 1.7 4.4l.4.1h.3c.7 2.1 1.6 4.2 2.6 6.2a3.5 3.5 0 0 0-2.9.9c-.8.7-1.2 1.6-1 2.8.1 2 1 3.9 2.2 5.5 1.3 1.6 2.7 3 4.3 4.3 1.2 1 2.5 1.6 4 1.9h.6a2.7 2.7 0 0 0 1.1-.2l.7 1.5a13.5 13.5 0 0 0-1.9 1.3l-.1.3-.7.5h-.1l-.2.1h-.1l-.1.2h-.1l-.1.2h-.1l-.1.2v.2l-3.4 2c-1.4.6-2.6 1.5-3.7 2.6-.5.3-1 .6-1.3 1-1.3 1.6-2.5 3.1-3.6 4.8a32.4 32.4 0 0 1-3 3.6L96 64.7c-3.2.9-6.1 2.2-8.8 4.1-.7.5-1.2 1-1.6 1.8A42.8 42.8 0 0 0 81 83.2c-.8 3.9-.9 7.8 0 11.7a19 19 0 0 1-1 11c-1.8 4.6-3 9.3-3.3 14.3-.3 3 0 6.1.9 9l2.1 6.8c.5 1.2.8 2.4 1 3.7.8 3.3 1.9 6.4 3.3 9.4-4.6-.6-9.3-.8-14-.8a528.2 528.2 0 0 0-22.3.7 207 207 0 0 1-28.8-.3H15a58.8 58.8 0 0 1-14.1-.8l-.5.1-.3.3-.2.4v.5l.1.4.3.3.7.3c2 .5 3.9.8 5.8.7 5-.1 9.8 0 14.7.4a192.4 192.4 0 0 0 22.6.1 349 349 0 0 1 32.7-.5c2.4.3 5 .5 7.4.5 4.7.1 9.4.5 14 1 4.2-.1 8.2-.3 12.3-.6 4.6-.2 9.3-.3 14-.1 4.6.1 9.2 0 13.9-.4 4.6-.4 9.3-.4 14-.2 4.7.3 9.3.2 14-.5l13.8-1.7a147.1 147.1 0 0 1 15.9-1c3.2.1 6.3.3 9.5.6a239.6 239.6 0 0 0 35.8.5l13.5.3c5 .1 10 0 15-.2 4.6-.2 9.2-.2 13.8.1 4.6.3 9.1.5 13.7.5s9.2 0 13.7-.2l.3-.1.3-.3.1-.3.1-.3v-.4l-.2-.3-.3-.3-.3-.1a59.8 59.8 0 0 0-9.6 0c-4.6 0-9.2 0-13.8-.3a296.6 296.6 0 0 0-25.9-.3 689.1 689.1 0 0 1-19.5-.2l-14.5.6a84 84 0 0 1-13.8-.4 167 167 0 0 0-17.3-1c0-3.1.4-6.2 1.2-9.4l.7-3.2a184.3 184.3 0 0 0 1.9-17.2c.2-2.6.7-5.2 1.2-7.7a76.3 76.3 0 0 0-.8 7c-.5 3.6-.4 7.2.3 10.8.3 1.4.2 2.7-.2 4-1.5 4.4-.5 8 2.9 11l.5.1c2.8.7 5.7 1 8.5.8.8 0 1.6 0 2.3.2a161.4 161.4 0 0 0 9.3 1.3c.9-.2 1.8-.3 2.6-.2h2.7a5 5 0 0 0 2.3-4l.3-3.3a483.3 483.3 0 0 0 .7-10c0-1.5-.1-3-.4-4.6a79 79 0 0 1-1.2-14.8l-.3-7.7-.2-2 2.7.7 6.4 1.6 8.3 2h.6a8.6 8.6 0 0 0 2.4-.6c3.5-.3 6.8-1.5 10-3.4 5-3 7.6-7.4 8.1-13.3a26 26 0 0 0-3.2-15l-.8-2.4a34 34 0 0 0-4.6-8.7 23.9 23.9 0 0 0-6.5-6.3l-.1-.1-.2-.4-1.1-1.8c-.3-.5-.8-1-1.3-1.2-2-1.8-4.3-3-6.9-4-.8-.3-1.7-.4-2.6-.5l-7.4-.2c-1.4 0-2.8 0-4.1.4a120.4 120.4 0 0 1-7.4 1.6l-2.2 1c-.7.4-1.2 1-1.6 1.6a8.8 8.8 0 0 0-2.2 2.3l-.3-.2a3.5 3.5 0 0 0-.4 0l-.1-.1-.3-.2-.3-.2-1.1-1a25.5 25.5 0 0 0-13-6c-1.2-.3-2.4-.4-3.7-.5-1-.2-2.2 0-3.2.2a37.2 37.2 0 0 1-11.3 1.4 72.8 72.8 0 0 0-4.7-1c-.4-.3-.8-.4-1.2-.5l-.6-.2h-.3a37.6 37.6 0 0 0-11.5-4.3L164 37l-1-.2-.2-.1c-.8-.4-1.7-.8-2.6-1-.8-.3-1.6-.4-2.4-.4a28.4 28.4 0 0 0-.8-3c.7-.4 1.2-1 1.5-1.7.4-.9.6-1.8.6-2.8v-3.5c0-1 0-1.8-.2-2.7-.4-2.2-1.2-4.1-2.5-5.8-.3-.3-.5-.6-.8-.7a3 3 0 0 0-3.5 0 21 21 0 0 0-.4-1l-.1.1-2.7-8.1a8.4 8.4 0 0 0-8-6.1Zm4.4 4 1 1 .9 2.1a96.4 96.4 0 0 1 3.2 10.1 8 8 0 0 0 0 1.3l.1.3.2.2c.2 0 .3-.2.5-.4.7.3 1.2 0 1.5-.8v-.1l.6-.6a3 3 0 0 1 1-.4c1.3 1.5 2.1 3 2.4 5a24 24 0 0 1 0 8.1l-.5.3-.5.4h-.1l-1 .5c1.2 4.4 1.8 9 1.7 13.6l-.7 2.3a18.4 18.4 0 0 1-11.4 11.7l-.4.1h-.3a6.5 6.5 0 0 0-1.2-.2h-.8l-.3-.1c-3-.8-5.8-1.9-8.6-3.2-1.7-.8-3.3-1.8-4.8-3a18 18 0 0 1-4.6-5.4 1147.8 1147.8 0 0 0-3-4.7h-1.8a48.1 48.1 0 0 1 .1.7c-.5.1-1 0-1.5-.3a22.7 22.7 0 0 1-5-4 9.8 9.8 0 0 1-2.7-5.5v-.3l.1-.3.2-.2c.3-.2.6-.3 1-.3a143.5 143.5 0 0 1 2.1.8l.1.1.2.2H113.9l.2-.3.2-.8a6.4 6.4 0 0 1 .1-.8l-1.5-2.8c-.8-1.5-1.4-3-1.7-4.7a19 19 0 0 0-2.8-7l.3-.4.2-.4.3-.4c1-.7 2-1.2 3-1.6 4-1.5 8.2-2.8 12.4-4 1-.2 1.9-.7 2.6-1.3 4-3.3 8.6-5.4 13.7-6.2l.4.1a48.6 48.6 0 0 1 2.8.8c.4.2.8.4 1.2.8Zm-34.6 27.9Zm4 21.1 2-1a27 27 0 0 0 2.2 7.8c2.1 4.5 5 8.5 8.7 11.8 1.9 1.6 4 2.8 6.2 3.6 4.7 1.6 9.4 2.6 14.3 3 1.7 0 3.3-.3 5-.7 4.8-1.1 8.8-3.7 11.8-7.9 2.9-4 4.8-8.5 5.7-13.4.8-4.5 1.1-9.1 1-13.7a120.4 120.4 0 0 0 9 2.7 742.7 742.7 0 0 0 5.3 17.6c1.4 4.9 3.3 9.6 5.4 14.2 2.2 4.7 5 8.9 8.5 12.6v.1l.2.1.1.2.2.3.3.3a3.6 3.6 0 0 0 .2.5c-2.7.1-5.4.6-8 1.3-1 0-1.8.3-2.7.6l-3.1 1.4-1.7.2c-.6.1-1.2.4-1.8.7a12.8 12.8 0 0 0-10.5-1.7h-.8a15.8 15.8 0 0 0-6.2 2.9 298.4 298.4 0 0 1-5.7 6.9 69.4 69.4 0 0 1-15.5 13.2l-2.7.8a58.8 58.8 0 0 1-17 2.7 28.6 28.6 0 0 1-9.7-.3l.4-1.3a36.9 36.9 0 0 0-2.6-23.4l.3-.8c.9-3 1.3-6 1.3-9 0-5-.5-9.9-1.6-14.7l-1.7-7c-.6-2.1-1.4-4.1-2.6-6a41.9 41.9 0 0 1 1.8-1.8c1.2-1.2 2.5-2 4-2.8Zm5.3-4h.3l.9-.6a19 19 0 0 0 5.7 6c4.3 2.6 8.8 4.7 13.5 6.1l.6.2h1.3l1 .2c4-.5 7.4-2.4 10.2-5.6 2-2.5 3.5-5.3 4.2-8.4.7-3 .9-6.1.5-9.2h.9a31.6 31.6 0 0 0 4.3 1.5 299.7 299.7 0 0 0 5.9 2.5l-.3 7.6a40 40 0 0 1-3.2 14.5 19 19 0 0 1-5.2 7 20.8 20.8 0 0 1-12.8 5H147.5l-5.2-.7c-3.6-.5-7-1.6-10.3-3.4-3.3-1.8-6-4.3-8.2-7.5a28.6 28.6 0 0 1-5-13.8v-.1l.2-.2h.1a2 2 0 0 1 .4-.3l.1-.1.4-.6Zm-19.4 16.8.2.2a1 1 0 0 0 1 .1l1.2-.9a21 21 0 0 0 3.2-3.8l1.4-2a93.2 93.2 0 0 1 5 19.8c.5 4.4.3 8.9-.8 13.2a37 37 0 0 0-2-3l-.3-.2h-.3a24 24 0 0 0-.5.2 1.5 1.5 0 0 0-.2.1l-.2.3v.3l-.1.2v.2l.7 1.7a17.6 17.6 0 0 0 1.1 2l1.5 2.6a29 29 0 0 1 3 10.4c.3 4 0 7.8-1.1 11.7l-.1.2-.3.3c-4.2-.6-8.5-1-12.7-1.3a59.8 59.8 0 0 0-.5.5V119.5l.2.2.2.2.1.1.6.2 15 2.1c1.2.2 2.4.3 3.5.2a621.8 621.8 0 0 0 18.4-1.5 27 27 0 0 0 11.9-5c3.7-2.7 7-5.7 10.1-9 2.7-2.9 5.4-5.9 7.9-8.9.7-.4 1.3-.8 2-1 .9-.2 1.6-.6 2.3-1l1.2-.2c.3 0 .7-.1 1-.3.8 0 1.5 0 2.2.2l2.5.4 2.2.9c1 .3 1.8.4 2.7.5.3 0 .6-.2.9-.4l1.1-.4h.3c1.3 0 2.5-.3 3.6-1 1.3-.6 2.7-1 4.1-1.3.7 0 1.4-.1 2-.3a23.5 23.5 0 0 1 6-1h.2l.3.1.5.4V94a1.5 1.5 0 0 1-.2.5 6.9 6.9 0 0 0-1.3 1l-.6.7a9 9 0 0 0-3.2 1.2c-.8.5-1.6 1-2.5 1.3a16.8 16.8 0 0 0-5.6 3.8 6 6 0 0 1-.8.5c-.3 0-.5.2-.7.4-.4.4-.6 1-.8 1.5a12 12 0 0 0-.4 2c-.3.6-.6 1.2-.7 2 0 .7-.2 1.4-.4 2.1-.7 1.1-1 2.4-.9 3.7v2a24.7 24.7 0 0 1-2.1 6 33.5 33.5 0 0 1-7 4.4 18.2 18.2 0 0 1-9.6 1.2l-2-.3c-1.5-.3-3 0-4.3 1l-9.6 5.6a2692 2692 0 0 0-25.2 14.5 4.2 4.2 0 0 0-.6 0h-.2l-.2.2h-4.2l-15 .6c-5.6.2-11.3 0-17-.4l-1-.1v-.1l-.1-.2a2.5 2.5 0 0 0-.5-.8H86a89.4 89.4 0 0 1-3.3-10.2c-.2-1-.5-1.8-.9-2.6a30.7 30.7 0 0 1-2.8-15c.3-5 1.4-9.8 3-14.4a20 20 0 0 0 1.2-5.3A31 31 0 0 0 83 93a19 19 0 0 1-.1-5.7c.5-4.5 1.6-8.8 3.2-13 .4-1.1 1-2 1.8-2.9 2.1-2 4.6-3.4 7.5-4a88 88 0 0 0 5.3-1.6ZM154.3 50Zm9 80c1.3.5 2.6.8 4 .9a21.7 21.7 0 0 0 17-7l1.2-1.7a12 12 0 0 0 1.3-7.7v-.2a7.5 7.5 0 0 0 .2-1.3l.1-.2a6 6 0 0 0 .9-2 34.8 34.8 0 0 0 .7-2.7v-.1l.1-.2.3-1.5.3-1.2c1-.6 2-1.2 3-2a26.3 26.3 0 0 1 8.7-4.7 48.2 48.2 0 0 0 .4 2.3v.4a75.9 75.9 0 0 0-2.7 11.3c-.5 4.3-1 8.7-1.3 13-.4 5.1-1.2 10-2.4 14.6-.6 2-.7 4-.5 5.8a162.6 162.6 0 0 0-17.4 1.1 429 429 0 0 1-12.6 1.7c-4.7.5-9.5.6-14.2.4a120.3 120.3 0 0 0-17.2.3h-3.9l4.2-2.6a185.7 185.7 0 0 1 15.8-9c4.6-2.8 9.3-5.4 14-7.8Zm33.4-85.8h.2c2.6.2 5.1.7 7.6 1.3 2.5.6 4.8 1.7 6.9 3.3A12.7 12.7 0 0 0 213 50l1.1 1 1 .7a1.4 1.4 0 0 1 .2.2h.1l.2.2h.4l.3.1-1.1 3c-.6 1.7-1 3.5-1.3 5.3-1.8-.6-3.3-.2-4.3 1.5-1.3 2.1-2 4.4-1.9 7a50 50 0 0 1-1 11.5l-.6-.4a7.2 7.2 0 0 1-1-3.8 18.4 18.4 0 0 0-.3-3.6l-.1-.1-.1-.1h-.2v-.2a1.4 1.4 0 0 0-1 0l-.2.2-.2.2-.1.3-.1.5-.1.1-.2.2-.2.3-.1 1.5a29 29 0 0 1-.3 6.3c-.3 1.8-.9 3.4-1.6 5a51 51 0 0 1-8.6-13.6c-2-4.7-3.6-9.4-4.9-14.3a149.7 149.7 0 0 0-3.8-13.2 3.2 3.2 0 0 0-.1-.1l1.2.3c2 .1 4 0 6-.6 2.3-.6 4.4-1 6.5-1.2ZM212 62.6h.6a55.9 55.9 0 0 0 1 .2l-.3 3.3h-1a26.4 26.4 0 0 0-1.6 0l-.5.2c.4-1.4 1-2.6 1.8-3.7Zm-1.9 5.3.6-.3.5-.1a60.6 60.6 0 0 1 2 0l-.4 1.6c-.5 2-.1 3.8 1.2 5.3l-.4.7c0 .3-.2.6-.4.8a2.8 2.8 0 0 0-.4.1h-.2l-.2-.1a22.4 22.4 0 0 0-2.6-1.1 85 85 0 0 0 .3-7Zm-.2 8.4.3.1 1.4.7.9.4.5-.1.5-.1c.2 0 .3 0 .4-.2l.3-.2a5.9 5.9 0 0 0 1-1.7h.2l.8.5.7.2h.1l2.2 5.2c1.6 4.3 3 8.7 4.2 13.2.2.8.3 1.7.2 2.6-.2 3 .3 5.8 1.5 8.5l.1.1a3 3 0 0 0 .4.3c-.2 1.5 0 3 .6 4.4l.3 1.5a60 60 0 0 0 1.2 7 14 14 0 0 1 0 7l-.3 1.2a78.2 78.2 0 0 1-.8 11.3l-.6 1.3a4 4 0 0 0-.2 1.5l-.3.1c-2.6.1-5.3-.2-8-.9-2.1-.5-4.3-.6-6.5-.3l-1-.2-2.6-.4a18 18 0 0 1-2.5-.3c-2-2-2.7-4.4-2-7.2a24.2 24.2 0 0 0 .3-8.8c-.1-1-.2-2 0-3.1V116c0-2.6.3-5.2 1-7.8.7-2.2.8-4.5.4-7a15.5 15.5 0 0 0 .3-2.2 8 8 0 0 0 1-2.1l.6-2.5 1-4.7a90.2 90.2 0 0 0 2.3-12.5V77l.1-.2v-.5Zm-5.7 5.5.1-.7c.5.7 1.1 1.3 2 1.8a2.7 2.7 0 0 0 .2.1c-.3 2-.6 4-1.2 5.9a56.5 56.5 0 0 0-1 3.3c-.2-.3-.6-.6-1-.8 0-.4-.1-.8-.3-1.1l-1-1.6.2-.3c1-2.1 1.6-4.3 2-6.6Zm48.2-29.4.7 1 .7.5 1.4 1c.4.5 1 .8 1.5 1.2l.3.4.4.4.4.3 1.3 2a75 75 0 0 1 7 14.7 22 22 0 0 1-.3 15.6l-1.5 2a13.6 13.6 0 0 1-7.2 5.2c-2.7.9-5.4 1.6-8.1 2.3l-2-.4c-3-.6-5.8-1.4-8.6-2.3a39 39 0 0 0-7.5-1.7 621.6 621.6 0 0 1-.7-13.7c.1-.5.1-1 0-1.6l-.1-1.8.2-.9v-2l.9-.7.7.2c1.8.4 3.5.3 4.9-.4a169.7 169.7 0 0 1 .6 7.2 20.8 20.8 0 0 0 2.5 8 6.2 6.2 0 0 0 1 1.7l.3.1h.3l.3.1h.1a1.8 1.8 0 0 0 .6-.5v-.1l.2-.4v-.3c0-.3-.2-.6-.3-.8A15.7 15.7 0 0 1 241 86c-.5-1.3-1-2.7-1.3-4 0-1.1 0-2.2-.3-3.3a12 12 0 0 1-.2-2.3c0-1.4-.2-2.8-.5-4.2.6-.7 1.2-1.6 1.7-2.7.3-.6.7-1 1.2-1.4a25.8 25.8 0 0 0 7-6.3V61.2a3.5 3.5 0 0 0-.3-.4 1 1 0 0 0-.2-.1l-.2-.1h-.5a33.4 33.4 0 0 0-.4 0l-.4.4a13.4 13.4 0 0 0-.6.8l-.4.4a3.4 3.4 0 0 0-.7.7l-1.3.8c-1.5.8-2.8 2-3.9 3.2a67.3 67.3 0 0 0-3.5 4.5l-1 .5-.8.3h-.3a6 6 0 0 1-.6 0h-.6l-.4-.2-.9-.4-.7-.2h-.4l-.6.4a329.3 329.3 0 0 0-.6.5h-.5a2.7 2.7 0 0 0-.2 0l-.1.1-.1.1-.1.1-.1.1-.1.1v.2l-.1.1v.5h-.3a7.9 7.9 0 0 1-.4-.1l-.1-.1a6.7 6.7 0 0 1-.7-.7 2 2 0 0 0-.6-.4 1 1 0 0 0-.3 0h-.6l-.1.2a1 1 0 0 0-.2.2c-.1.2-.3.2-.5.3a3 3 0 0 0-1 .2l-.6.2H222l-.2-.1a8.4 8.4 0 0 1-1.6-1.1c-.2-.3-.5-.5-.9-.5a.8.8 0 0 0-.3 0H218.8v.1c-.3.1-.4.3-.6.5l-.2.4-.2.4v.1l-.1.1-.1.1-.1.1H216.9l-.5-.3-.6-.2-.3-.3a2.5 2.5 0 0 1-.6-.9l.2-1a439.4 439.4 0 0 1 1.2-10.6l1-3.3a148.4 148.4 0 0 0 1.5-4.5l.3-.7.6-1 1.2-1 1-1c1.4-1 3-1.5 4.7-1.7.9 0 1.8-.3 2.6-.5a24.7 24.7 0 0 1 8-1 18.3 18.3 0 0 1 13 4l.2.3.3.1.2.2.5.6 1 1.7Zm-31.6 22.9.5.2c0 1 .1 2 .4 3 .2 1.2.8 2.1 1.8 2.8v.2l.2.9.2 1 .2.2a31.9 31.9 0 0 0 1.1 1.4h.1a3.9 3.9 0 0 0 .4.2 36.8 36.8 0 0 1 .9 0l.6-.6c.6-1.3.6-2.6 0-4a9.4 9.4 0 0 1-.6-4.3v-.2a17 17 0 0 1-.3-.6 3.3 3.3 0 0 0 1.8.4l-.2 2a109 109 0 0 0 1 17.2l-.1.2v.4a1 1 0 0 0 .2.6l.1 7c0 4.6.3 9.1 1 13.7a58.2 58.2 0 0 1 .3 16.5c0 2.6-.3 5.1-1.1 7.4l-2.1.1v-1c1-1.3 1.5-2.8 1.6-4.5l-.1-2c-.4-2.6-.2-5 .4-7.5.6-2.2.6-4.5 0-6.8l-.2-1.7a30.9 30.9 0 0 0-1.7-8.4c-.2-.7-.3-1.5-.2-2.2v-1.7l-.3-.3a8.3 8.3 0 0 0-.6-.5l-.2-.3-.4-1.4c0-.4-.2-.7-.3-1v-3c0-2.5-.4-5.1-1.2-7.6l-1.8-6c-1-3.2-2.3-6.4-3.8-9.4l.3-.2h.1a2.6 2.6 0 0 0 .6-.7l.2-.3 1.2.8Zm2 .8v-.5l.6-.1 1.5-.4v.7c0 .3.1.5.3.7v.5c0 1 0 2 .4 3.1s.6 2.2.7 3.4a404.5 404.5 0 0 1-.3.3 100.4 100.4 0 0 1-.8-1v-.3l-.3-1.2c0-.3-.2-.7-.5-1a6 6 0 0 0-.4-.3 2 2 0 0 1-.3-.3l-.1-.1a7.9 7.9 0 0 1-.8-1.4V76ZM235.2 98Zm-32-.4-.2-.5.7-.6v.1c-.3.3-.4.7-.6 1Zm5.4 17.4-.2.4-.5 4.8a29.8 29.8 0 0 0 .1 7.1 18.2 18.2 0 0 1-1 2.6 3 3 0 0 0-.3.2l-.1.1v.1a4.4 4.4 0 0 0-.1.3V130.8a45 45 0 0 0 .4 1.2l.4.5.4.2.7.2.9.2.5-.2.6-.4.5-.4.1-.2.1-.2.1-.3h.2c0-.2.1-.2.2-.3l.2-.3 1-4.1c.3-1.4.1-2.7-.6-4l-.7-4.7c-.2-1.5-1-2.6-2.3-3.4h-.2l-.2.2h-.2Zm1 1.8c.1.2.3.4.3.7.4 1 .6 2.2.6 3.3 0 1.2.3 2.3.8 3.4.1.2.2.5.1.7 0 .9 0 1.8-.3 2.6a235.4 235.4 0 0 0-1 3.1l-.2.4v.3h-.2l-.2.2a5.2 5.2 0 0 1-.4.2h-.1a4 4 0 0 1-.6-.2 2.1 2.1 0 0 1-.2 0l-.1-.2c-.2-.2-.2-.4 0-.5l1-1.8.4-2v-.5a21 21 0 0 1 0-4.9v-4.8ZM140.8 37v.4a6 6 0 0 1-.3.5l-.2.1-.2.1a25 25 0 0 1-2.9 0 25.3 25.3 0 0 1-1.1-3.5c-.2-1-.4-1.8-.8-2.6l-.3-.2-.3-.1h-.4a19.8 19.8 0 0 0-.6.3v.1l-.2.1v1.2c.1 1 .4 2.2.8 3.4.4 1 .9 2.2 1.5 3.1.1.2.3.2.4.3l1.1.3a23.8 23.8 0 0 0 2.4 0c.9 0 1.7-.4 2.3-1 .6-.7 1-1.5 1-2.4V37a1 1 0 0 0-.2-.3l-.1-.1-.1-.1a82.8 82.8 0 0 0-.7-.3H141.6l-.1.1-.1.1h-.2v.2h-.2v.2l-.2.3Zm-1.1-16.2a1 1 0 0 0-.2.2h-.1v.2l-.1.2v.5a17.1 17.1 0 0 1 .7 1.3c0 .1 0 .2.2.2l.2.1h.5a4.3 4.3 0 0 0 .4-.1l.2-.2.2-.2V22.7l.1-.2V22l-.5-1a1 1 0 0 0-.4-.3l-.2-.1h-.7a1 1 0 0 0-.3.2Zm-14.8 6a1 1 0 0 0-.4 0s-.2 0-.3.2l-.2.1a1 1 0 0 0-.3.8v.3l.1.3.2.3h.1a1 1 0 0 0 .8.3l.3-.1a1.5 1.5 0 0 0 .5-.4l.1-.3v-.7l-.1-.3-.2-.2-.3-.2a53 53 0 0 0-.3 0Zm.2-5.4-.2-.2-.5-.3-.8-.1a4 4 0 0 0-1.1.2c-1.5.5-2.9 1.2-4.2 2a5.8 5.8 0 0 0-3 4v.1a2.3 2.3 0 0 0 .4.5 1 1 0 0 0 .2.2h.1l.1.1a64.8 64.8 0 0 0 .7 0 3.5 3.5 0 0 0 .3-.2l.3-.3c.3-1.1 1-2 2-2.5a20 20 0 0 1 4-1.8 15.6 15.6 0 0 0 1 .1h.3l.2-.2.2-.2a30.7 30.7 0 0 1 .2-.6v-.5l-.2-.3Zm7.7-1.6v.1l.2.1h.1l.2.1h.1l.1.1h.2c.5 0 1-.3 1.4-.5a42 42 0 0 1 5-2.6 7 7 0 0 1 5.6 0h.2l.2-.1h.1l.1-.1a.5.5 0 0 0 .3-.2v-.1a8.2 8.2 0 0 0 .2-.3v-.5a1.3 1.3 0 0 0-.1-.6c-.5-.5-1.1-.7-1.8-.8-2.2-.4-4.3-.1-6.4.8-2.2.9-4.1 2-5.9 3.4v.7l.1.4Z"/><path fill="#CFB697" d="m123.2 155.3-.4.3a14.6 14.6 0 0 0-.9.7h-.1v1.4l-.1.5-.1.2-.2.2a540.1 540.1 0 0 1 .1 11l.3 1.2c2.8 1 5.7 1.5 8.9 1.5a651 651 0 0 1 12.7.4 374 374 0 0 0 29-1.4 67.9 67.9 0 0 1 12.8.1 80.3 80.3 0 0 0 10.8-1.3 100.6 100.6 0 0 1 5-1.3l.1-.1V168.4a28 28 0 0 0-.7-4 5 5 0 0 0-.3-1l-1.7-4a30.6 30.6 0 0 0-3.7-5.8 2.7 2.7 0 0 0-1.2-.6h.1a21.5 21.5 0 0 1-1.9-.3c-2.2-.5-4.5-.5-6.8 0l-5.2 1-4.3.5c-4.4.5-8.8.8-13.3 1-2.7 0-5.3.1-8 .4a52.9 52.9 0 0 1-10.6-.2c-3-.4-6-.5-9-.3a71 71 0 0 1-8.2 0c-1-.1-2 0-3 .2Z"/><path fill="#6A3B31" d="M222.8 75.6v.5a23.7 23.7 0 0 0 0 2 7.9 7.9 0 0 0 .8 1.5v.1l.4.3a6.2 6.2 0 0 1 .4.3c.3.3.4.7.5 1a6.7 6.7 0 0 1 .3 1.6 10.5 10.5 0 0 1 .6.7 100.4 100.4 0 0 0 .4 0v-.1c0-1.2-.2-2.3-.6-3.4-.4-1-.5-2-.4-3.1v-.5c-.2-.2-.2-.4-.2-.7v-.7a34.2 34.2 0 0 0-2.3.5Zm-12.6.8h-.3V77a.6.6 0 0 1-.1.2 1.6 1.6 0 0 1-.2.2 82.4 82.4 0 0 1-2.1 12.3 130.3 130.3 0 0 0-1.7 7.2 8 8 0 0 1-1 2.1v.7l-.1.9-.1.6c.4 2.5.3 4.8-.4 7a24 24 0 0 0-1 7.8v3.9c-.2 1-.1 2 0 3a24 24 0 0 1-.3 8.9c-.7 2.8 0 5.2 2 7.2l2.5.3a18.7 18.7 0 0 1 3.6.6c2.2-.3 4.4-.2 6.6.3a27.5 27.5 0 0 0 8.2.9c0-.6 0-1 .2-1.6l.6-1.3.3-.4a78.2 78.2 0 0 0 .7-12c.6-2.3.7-4.7.1-7a60 60 0 0 1-1.5-8.6 8.7 8.7 0 0 1-.6-4.4l-.2-.1-.2-.2-.1-.1a17.9 17.9 0 0 1-1.5-8.5c0-.9 0-1.8-.2-2.6a137 137 0 0 0-6.4-18.4l-.8-.2a4.1 4.1 0 0 0-1-.5l-1 1.7-.3.2-.4.2-.5.1a3 3 0 0 1-.5 0l-1-.3-1.3-.7Zm-1.7 39c0-.3.1-.4.2-.5l.2-.1.2-.1h.2c1.3.7 2 1.8 2.3 3.3l.7 4.8c.7 1.2.9 2.5.6 3.9a188.3 188.3 0 0 1-1.2 4.4 5.2 5.2 0 0 1-.4.3v.3l-.2.2v.2l-.6.4-.6.4-.5.2c-.3 0-.6 0-.9-.2a17.2 17.2 0 0 1-1-.4l-.5-.5a45 45 0 0 1-.4-1.2v-.4a4.4 4.4 0 0 1 .1-.3l.1-.1.2-.1.1-.1.6-1.1a18.2 18.2 0 0 0 .5-1.8c-.3-2.2-.4-4.5-.2-6.8l.5-4.8Zm4-52.8h-.5a9.7 9.7 0 0 0-1.8 3.7 8.2 8.2 0 0 1 .6-.2 26.4 26.4 0 0 1 2.5 0 55.7 55.7 0 0 1 .1-3.3l-.8-.2Z"/><path fill="#CDB7A0" d="m221.3 75.5-.5-.2-1.2-.8a6 6 0 0 0-.4.6 2.6 2.6 0 0 1-.5.4 2 2 0 0 1-.3.2c1.5 3 2.8 6.2 3.8 9.4l1.8 6c.8 2.5 1.1 5 1.2 7.7a72.3 72.3 0 0 0 .3 3.9 6.7 6.7 0 0 0 .6 1.7l.3.3.3.2.2.3v1.7c0 .7 0 1.5.3 2.2l.2.7c.8 2.4 1.3 5 1.5 7.7 0 .6 0 1.1.2 1.7.6 2.3.6 4.6 0 6.8-.6 2.4-.8 4.9-.4 7.4v2.1c0 1.7-.5 3.2-1.5 4.5v1h2a22 22 0 0 0 1.2-7.5c0-.8 0-1.7.2-2.6.3-2 .4-4 .3-6 0-2.7-.3-5.3-.7-8-.8-4.5-1.1-9-1-13.6a118.7 118.7 0 0 0-.4-8V95c0-1.2 0-2.4-.2-3.7A109.3 109.3 0 0 1 228 76a3.3 3.3 0 0 1-1.8-.4v.2l.1.2.1.2.1.2c-.1 1.5 0 3 .6 4.3.6 1.4.6 2.7 0 4l-.6.6a47.4 47.4 0 0 0-1.3-.2l-.7-.7a36 36 0 0 1-.7-.9 7 7 0 0 1-.2-1 4.2 4.2 0 0 0-.2-1c-1-.8-1.6-1.7-1.8-2.9-.3-1-.4-2-.4-3ZM210 117.4a2 2 0 0 0-.3-.7c0 1.6 0 3.2-.2 4.8a21 21 0 0 0 .1 5.5c0 .6-.3 1.3-.5 1.9-.2.6-.5 1.2-1 1.8v.5h.1v.1h.2v.1h.2l.2.1a4 4 0 0 0 .4.1l.2-.1.2-.1.2-.1.1-.1.1-.3.3-.4.3-.3.6-2.8c.2-.8.3-1.7.3-2.6v-.7c-.6-1-1-2.2-.9-3.4a10 10 0 0 0-.6-3.3Zm.7-49.8a3.9 3.9 0 0 0-.8.3v1.4l-.1 5.5.9.3a22.3 22.3 0 0 1 2 .9H213l.2-.1.4-.8.4-.7a5.4 5.4 0 0 1-1.2-5.3l.4-1.6h-2l-.5.1Z"/><path fill="#fff" d="m253.1 53.4-.7-1a97 97 0 0 0-1.7-2.5l-.3-.1a2 2 0 0 1-.3-.4l-.2-.2c-3.8-2.9-8-4.1-12.6-3.8h-1.4c-2.2.1-4.5.4-6.7 1.1l-2.6.5c-1.7.2-3.3.8-4.8 1.7-.2.4-.5.7-.9 1l-1.2 1-.6 1-.3.7-.3.6-.2.5A148.4 148.4 0 0 1 216 61l-.3 4.8a439.4 439.4 0 0 0-.6 6.4l.4.4.3.3a12.6 12.6 0 0 1 1.5.6l.2-.1.2-.2.1-.2.2-.4a1.8 1.8 0 0 1 .7-.9h.1l.2-.1a33.4 33.4 0 0 1 .4 0c.4 0 .7.2 1 .5a8.4 8.4 0 0 0 1.5 1.1 7.9 7.9 0 0 0 .8 0l.7-.1a3 3 0 0 1 1-.2l.4-.3a1 1 0 0 1 .2-.2v-.1h.2l.3-.2h.5l.2.2.4.3a19.9 19.9 0 0 0 .8.8h.1a1 1 0 0 0 .3.1h.2V73l.1-.1v-.2h.2v-.2l.2-.1a1.7 1.7 0 0 1 .4-.2h.6l.5-.5.5-.3h.1l.2-.1h.2c.2 0 .5 0 .7.2a7.2 7.2 0 0 0 1.3.6 1141 1141 0 0 0 1.2 0h.3l.9-.3 1-.5.4-.3 3-4.2c1.1-1.3 2.4-2.4 3.9-3.2l1.3-.8a5.5 5.5 0 0 1 1.1-1 13.5 13.5 0 0 1 .6-.9 1.6 1.6 0 0 1 .5-.4H247.8a33.4 33.4 0 0 1 .5.1 1 1 0 0 1 .2.3l.2.2V62c-2 2.5-4.2 4.6-7 6.2a3 3 0 0 0-1.2 1.4c-.5 1.1-1 2-1.7 2.7.3 1.4.5 2.8.5 4.2 0 .8 0 1.5.2 2.3.2 1 .3 2.2.3 3.3a33.3 33.3 0 0 0 2.9 7.8l-.1.4-.1.1a2 2 0 0 1-.6.4l-.1.1h-.3a1 1 0 0 1-.3 0l-.3-.2v-.1c-.3-.3-.5-.5-.6-.8a6.3 6.3 0 0 1-.5-1.2c-1.3-2.4-2-4.9-2.4-7.6a123.5 123.5 0 0 1-.6-7.2 7.7 7.7 0 0 1-5.6.2l-.8.7v.2a12.6 12.6 0 0 1-.3 2.7l.1 1.8c.1.5.1 1 0 1.6l-.1.7v.7l.1.6a3 3 0 0 1 0 .8l.7 11c2.6.2 5 .8 7.5 1.6A90.7 90.7 0 0 0 249 99c2.7-.7 5.4-1.4 8-2.3 3-.9 5.5-2.6 7.3-5.2l1.5-2c2-5.2 2-10.3.3-15.6a75 75 0 0 0-8.3-16.7c-.2 0-.3-.2-.4-.3l-.4-.4c0-.2-.2-.3-.3-.4a8 8 0 0 1-1.5-1.2l-1.4-1-.7-.5ZM197 44.2h-.2c-2 .2-4.2.6-6.5 1.2-2 .5-4 .7-6 .6a4.2 4.2 0 0 1-1.1-.2h.1a3.2 3.2 0 0 1-.3-.1c1.5 4.3 2.9 8.8 4 13.3a92.5 92.5 0 0 0 7.5 19.5c1.8 3 3.8 5.8 6 8.4.7-1.6 1.3-3.2 1.6-5 .3-2.1.4-4.2.3-6.3l.1-1.5.2-.3a1 1 0 0 1 .3-.3V73l.2-.3.2-.2.3-.2a1.5 1.5 0 0 1 .8 0l.1.1.2.1v.1l.2.1v.1c.3 1.2.3 2.3.3 3.5a7.2 7.2 0 0 0 1 3.8l.6.4a38.5 38.5 0 0 1 .2-1.9c.6-3.2.9-6.4.8-9.6 0-2.6.6-4.9 2-7 1-1.7 2.4-2.1 4.2-1.5a48 48 0 0 1 2.1-8.3h-.3l-.1-.1a4.7 4.7 0 0 1-.5-.4l-1-.7a6 6 0 0 0-1.3-1l-1.5-1.2c-2.1-1.6-4.4-2.7-6.9-3.3-2.5-.6-5-1-7.6-1.3ZM100.6 66a88 88 0 0 1-5.3 1.4c-2.9.7-5.4 2.1-7.5 4.1-.8.8-1.4 1.8-1.8 2.9a58.3 58.3 0 0 0-3.2 13 19 19 0 0 0 0 5.7c.5 2.6.6 5.2.4 7.8a20 20 0 0 1-1.1 5.3 51.4 51.4 0 0 0-3 14.3c-.4 5.3.5 10.3 2.7 15l1 2.7c.8 3.6 2 7 3.2 10.2a2.5 2.5 0 0 1 .6.8v.2l1.1.2c5.7.4 11.4.6 17 .4a1325 1325 0 0 1 19.4-.8h.7a2335 2335 0 0 0 34.9-20.2 6.4 6.4 0 0 1 4.3-1l2 .4a18.2 18.2 0 0 0 13.9-3.6 33.7 33.7 0 0 0 2.8-2.1c.9-1.9 1.5-3.8 2-5.9v-2c0-1.3.2-2.6.9-3.7l.4-2.2c.1-.7.4-1.3.7-1.8l.4-2.1c.2-.6.4-1 .8-1.5l.7-.4a6 6 0 0 0 1.1-.7c1.4-1.5 3.2-2.7 5.3-3.6a20 20 0 0 0 2.5-1.3c1-.6 2-1 3.2-1.2l.6-.7a6.9 6.9 0 0 1 1.3-1 2 2 0 0 0 .3-.6l-.1-.2a1.1 1.1 0 0 0-.5-.4 3 3 0 0 1-.4 0l-.2-.2h-1.6l-4.3 1c-.6.3-1.3.4-2 .4-1.4.2-2.8.7-4 1.4-1.2.6-2.4.9-3.7.9h-.3c-.4 0-.8.2-1.1.4l-.9.4c-.9 0-1.8-.2-2.7-.5l-2.2-.9-2.5-.4c-.7-.2-1.4-.2-2.2-.2-.3.2-.7.2-1 .3-.4 0-.8 0-1.2.2-.7.4-1.4.8-2.2 1-.8.2-1.5.6-2.1 1-2.5 3-5.2 6-7.9 8.9-3 3.3-6.4 6.3-10.1 9a27 27 0 0 1-15.7 5.5l-14.6 1c-1.1.1-2.3 0-3.5-.2-5-.8-10-1.5-15-2l-.6-.3h-.1l-.2-.3-.1-.2v-.2l-.1-.3v-.4a2.5 2.5 0 0 1 .2-.3l.3-.2c4.2.2 8.5.7 12.7 1.3l.3-.3v-.2c1.1-3.9 1.5-7.8 1.1-11.7a28.9 28.9 0 0 0-4.3-13 17.3 17.3 0 0 1-1.9-3.7V90l.1-.3.2-.3a1 1 0 0 1 .2-.1l.1-.1h.2a24 24 0 0 1 .5 0h.4l1.9 3.1a36.1 36.1 0 0 0 .2-17 94.2 94.2 0 0 0-4.4-16l-1.4 2a21 21 0 0 1-3.2 3.8l-1.2 1a1 1 0 0 1-1-.2l-.2-.1Zm19.7-17-.3.2c0 .2-.2.4-.4.6h-.1a1.5 1.5 0 0 1-.3.2v.1h-.2l-.2.3a15.1 15.1 0 0 0 .4 2.6l.3 1.5c.8 3.5 2.2 6.8 4.3 9.8 2.2 3.2 5 5.7 8.2 7.5 3.2 1.8 6.7 3 10.3 3.4l5.2.7h.2a56.9 56.9 0 0 1 .6.1c4.8-.4 8.9-2 12.3-5 2.3-2 4-4.3 5.2-7 2-4.7 3-9.5 3.2-14.6l.3-7.6a174.3 174.3 0 0 1-8.2-3.2 31.2 31.2 0 0 1-2.1-.8h-.8c.4 3 .2 6.1-.5 9.2-.7 3.1-2.1 6-4.2 8.4a15.6 15.6 0 0 1-10.2 5.6l-1-.1a9.3 9.3 0 0 1-1.9-.3 57.1 57.1 0 0 1-16-8 19 19 0 0 1-3.2-4.1l-.9.5Zm26-44a31 31 0 0 0-1-1l-1.2-.7-.5-.3a36.8 36.8 0 0 1-2.7-.6c-5 .8-9.6 3-13.7 6.2-.7.6-1.6 1-2.6 1.3-4.2 1.2-8.3 2.5-12.4 4-1 .4-2 1-3 1.6l-.3.4-.2.4a2.4 2.4 0 0 1-.3.5 19 19 0 0 1 2.8 7c.3 1.6.9 3.1 1.7 4.6a763.2 763.2 0 0 0 1.5 3l-.1.6-.2.8c0 .1 0 .2-.2.3H113l-.2-.2h-.1a143.5 143.5 0 0 0-2.1-.9c-.4 0-.7.1-1 .3l-.2.2a2.2 2.2 0 0 0-.1.6c.3 2 1.2 3.9 2.6 5.5a24.5 24.5 0 0 0 5.1 4c.5.3 1 .4 1.5.3h.2l-.3-.7h.8a4.8 4.8 0 0 0 1.3 0l.1.2 2.6 4.5a18 18 0 0 0 4.6 5.4c1.5 1.2 3.1 2.2 4.8 3a57.1 57.1 0 0 0 9.7 3.3 5.3 5.3 0 0 1 1.5.2h.4l.4-.1h.3a18.4 18.4 0 0 0 10.7-11.7l.7-2.3a45 45 0 0 0-1.7-13.6 14 14 0 0 0 1-.5l.6-.4.4-.3a3.5 3.5 0 0 0 .2-.5l.1-.8c.3-2.3.2-4.6-.2-6.8a9.4 9.4 0 0 0-2.4-5 3 3 0 0 0-1 .4l-.5.5-.1.2c-.3.8-.8 1.1-1.5.8l-.5.5a2.3 2.3 0 0 1-.4-.7l.1-1.2-.8-2.7a96.4 96.4 0 0 0-3.4-9.6Zm-13.4 15-.1-.1v-.1l-.2-.4v-.7c1.8-1.4 3.7-2.5 5.9-3.4 2-1 4.2-1.2 6.4-.8.7 0 1.3.3 1.8.8v.2l.2.4v.3l-.1.2v.2h-.2v.2a.5.5 0 0 1-.3.2h-.2l-.2.1h-.2a7 7 0 0 0-5.6 0 42 42 0 0 0-5 2.7l-1.4.5h-.4l-.2-.1h-.1l-.1-.2Zm-8 1.3.2.2a1.3 1.3 0 0 1 .2.5v.6l-.2.3-.2.2-.2.1-.3.1a2.7 2.7 0 0 1-1-.1 20 20 0 0 0-4 1.8c-1 .6-1.7 1.4-2 2.5a.8.8 0 0 1-.4.4 3 3 0 0 1-.4.1h-.6l-.1-.1-.1-.1h-.1l-.2-.3-.1-.3v-.2a5.8 5.8 0 0 1 2.9-4c1.3-.7 2.7-1.4 4.2-2a4 4 0 0 1 1.1-.1l.8.1c.2 0 .4.2.5.3Zm-.4 5.6h.5l.2.1.3.2.2.2.1.3v.5a2.2 2.2 0 0 1-.1.5l-.2.2-.3.2a1 1 0 0 1-.3 0h-.1a1 1 0 0 1-.8-.2l-.2-.3-.1-.3v-.7l.3-.4.2-.1.3-.2Zm15-6a1 1 0 0 1 .3-.1l.2-.1H141l.4.5.4 1 .1.4v.4l-.1.1-.1.1v.1l-.2.1-.1.1h-.2l-.2.1h-.5l-.2-.1-.3-.2-.1-.2-.3-.6-.2-.5V21l.2-.1v-.1Zm1.2 16.6a4.4 4.4 0 0 1 .3-.8l.1-.1.1-.1.2-.1.2-.1H142.2a.8.8 0 0 1 .4.2 8.2 8.2 0 0 1 .3.5v.2c0 1-.3 1.7-.9 2.4-.6.6-1.4 1-2.3 1a23.6 23.6 0 0 1-2.4 0 4 4 0 0 1-1-.3 2 2 0 0 1-.5-.3c-.6-1-1.1-2-1.5-3.1-.4-1.2-.7-2.3-.9-3.5v-1h.1l.1-.2.1-.1.1-.1h.1a1.7 1.7 0 0 1 .4-.2h.7l.2.2.1.1c.4.8.6 1.7.8 2.6a17 17 0 0 0 1.2 3.5l1 .1a25.1 25.1 0 0 0 1.8 0l.2-.2h.2v-.1a1.5 1.5 0 0 0 .2-.5Z"/><path fill="#333" d="M167.2 130.9c-1.3-.1-2.6-.4-3.9-1a196.5 196.5 0 0 0-17.1 9.6 185.7 185.7 0 0 0-16.9 9.8 167 167 0 0 1 6.5 0c4.8-.4 9.7-.5 14.6-.3 4.7.2 9.5 0 14.2-.4 4.2-.5 8.4-1 12.6-1.7a116 116 0 0 1 17.4-1c-.2-2 0-4 .5-5.9 1.2-4.6 2-9.5 2.4-14.6a227.3 227.3 0 0 1 2.1-17.6 75.9 75.9 0 0 1 1.9-7v-.7l-.4-1.7-.9.4a28.6 28.6 0 0 0-7.8 4.3c-1 .8-2 1.4-3 2l-.3 1.2a20.3 20.3 0 0 1-.4 1.7v.1l-.1.1-.1.2-.5 2.4a6 6 0 0 1-1 2.2v.5a7.2 7.2 0 0 1-.2 1 12 12 0 0 1-2.5 9.4 21.7 21.7 0 0 1-17 7Zm-50.5-79c-.6.5-1.3.8-2 1.1-1.5.7-2.8 1.6-4 2.8l-.6.5-1.2 1.4c1.2 1.8 2 3.8 2.6 6l1.7 6.9a66 66 0 0 1 1.6 14.7 33.2 33.2 0 0 1-1.6 9.8 37.8 37.8 0 0 1 2.2 24.7l1 .2c2.8.5 5.8.5 8.8 0l2.6-.1a58.8 58.8 0 0 0 17-3.3l5.5-3.7a25.1 25.1 0 0 0 3.9-3.4 69.5 69.5 0 0 0 9.5-10.2l2.3-2.8a17.4 17.4 0 0 1 7-3c2-.3 4-.2 5.9.3a55.5 55.5 0 0 1 4.6 1.5c.6-.3 1.2-.6 1.8-.7l1.7-.2L190 93l2.7-.6a37.9 37.9 0 0 1 8-1.5l-.2-.3-.3-.3-.2-.3v-.2h-.2v-.2c-3.6-3.7-6.4-8-8.6-12.6-2.1-4.6-4-9.3-5.4-14.2a1127.9 1127.9 0 0 1-5.3-17.6 69 69 0 0 1-9-2.7c.1 4.6-.2 9.2-1 13.7-1 5-2.8 9.4-5.7 13.4-3 4.2-7 6.8-11.9 8-1.6.3-3.2.5-4.9.6-4.9-.4-9.6-1.4-14.3-3-2.3-.8-4.3-2-6.2-3.6a34.8 34.8 0 0 1-8.7-11.8 27 27 0 0 1-2.2-7.8Z"/><path stroke="#000" stroke-linecap="round" stroke-width="2" d="M138.9 49.4a6 6 0 0 0 1.8-.2c.3-.2 1.1-.3 3.3-1 .8-.2 2.2-.8 3.2-1.4.6-.4 1-.9 1.3-1.4l.5-1 .2-.4"/></svg>