<svg xmlns="http://www.w3.org/2000/svg" width="92" height="190" fill="none"><g clip-path="url(#a)"><path fill="#000" d="m71.1 52.1-3.7-1a56.6 56.6 0 0 1-9.5-3.3l-.9-.4a7.5 7.5 0 0 0-.6-.4 14.4 14.4 0 0 0 1.6-8c1-.6 1.8-1.5 2.2-2.7L61 34c.5-1.6.4-3.1-.3-4.6l-.2-1c-.1-.5-.4-.9-.8-1.1a2 2 0 0 0-1.3-.4v-2c0-2-.1-3.9-.4-5.8a8.5 8.5 0 0 0-3.8-6c-.8-.7-1.8-1-2.8-1-1.5 0-3 .3-4.5.6-2.5.6-5 .7-7.6.3-.6 0-1.3-.2-1.9-.5-2.6-1-4.7-.3-6.4 1.8-.5.4-.8.8-1 1.3a16 16 0 0 0-1 5.6c0 1.9.2 3.7.4 5.5l-.3-.3-.6-.2-.5-.1a2 2 0 0 0-1.8 1.5l-.5 2.5c-.1 1 0 2.1.2 3.1v1.2c0 1 .5 1.9 1.2 2.6a3 3 0 0 0 2.5.9l.1 1.5c.1 1.5.4 3 .8 4.3.4 1.4 1 2.6 1.8 3.7a1.2 1.2 0 0 0-.3.2 2.3 2.3 0 0 1-.2.3l-1.5 1a66 66 0 0 1-9.8 4.6L11.2 57c-.9.3-1.6.8-2.2 1.5A22 22 0 0 0 5.4 64a40 40 0 0 0-3 10.2 56 56 0 0 0-.6 11.4l.4 11.5a72.2 72.2 0 0 1-1 14c-.3 4-.3 8.1 0 12.2a655.9 655.9 0 0 1 2.3 24.3 194.5 194.5 0 0 1 .5 17.2c0 4 1.1 7.6 3.2 11a9 9 0 0 0 1.3 1.5v.3c-.3 2-.3 4-.1 5.9l.5 5.8c.1 2 .6 3.9 1.3 5.7.1.3.3.4.5.6a6 6 0 0 0 3.8 1 44.4 44.4 0 0 0 5.5-.6c2-.5 3.9-.8 5.8-1l4.2-.7 6.9-1c1 0 1.9-.1 2.8-.4.4-.1.7-.3.9-.7.8-1.8 1.2-3.6 1.4-5.5l.5-5.9a90 90 0 0 1 .7-5.7 8.4 8.4 0 0 1 .2 1v.1l.1.6a237.2 237.2 0 0 1 1.4 7.4 83.7 83.7 0 0 0 1 6.2 4.9 4.9 0 0 0 4.4 2.8h3a46.8 46.8 0 0 0 6.1-.1l.7-.1a16.7 16.7 0 0 1 1.2-.2H61a49.3 49.3 0 0 1 4.5-.5l3.3-.5a144.5 144.5 0 0 1 11.4-.2c.5 0 1 0 1.5-.2.9-.2 1.3-.9 1.2-1.9v.1l.3-4.6a39.6 39.6 0 0 0-.9-12.7c.9-1 1.7-2 2.5-3.2 1-1.2 1.6-2.5 1.9-4a68 68 0 0 0 1.4-11 297.4 297.4 0 0 1 2.1-23.1c.5-4 .7-8.1.4-12.2a217.8 217.8 0 0 0-1.1-13.4 150 150 0 0 1-.8-13.6 134.8 134.8 0 0 0-.3-14.3c-.5-4-1.2-8-2.2-11.8a15 15 0 0 0-1.3-3.4 20.4 20.4 0 0 0-13.8-10.2ZM33.6 14c.3-.3.7-.4 1-.4l3.6.7c2.7.5 5.4.5 8.1 0a33 33 0 0 1 5.7-.7h.1c.8.3 1.4.7 2 1.2.7.6 1.2 1.3 1.5 2A15.3 15.3 0 0 1 57 24a80 80 0 0 0 .2 5l.2.2h.7V29h.1l.1-.1a.9.9 0 0 0 .2-.3v-.2h.2a.5.5 0 0 1 .2 0h.1l.2.6c0 .4.2.8.4 1.2.2.3.3.7.3 1v.2a40.8 40.8 0 0 0-.8 3.8c-.2.9-.6 1.6-1.2 2.2l-.1-.1h-.1l-.1-.1H57a2.7 2.7 0 0 0-.2 0l-.2.1v.1a.8.8 0 0 0-.2.2V42a12.3 12.3 0 0 1-1.3 4.3 51.3 51.3 0 0 1-1.7 2 61.8 61.8 0 0 1-4 3.2c-1.4 1-3 1.6-4.7 1.7-2 0-3.8-.4-5.4-1.4a24 24 0 0 1-6-5.4l-.8-1.3a20 20 0 0 1-1.5-7.3V36.8H31v-.5l-.1-.1V36h-.1l-.1-.1-.1-.1h-.8a10 10 0 0 1-.5.4h-.4l-.2-.1-.2-.1-.2-.1H28l-.4-.8c-.2-.4-.2-1-.3-1.4a5 5 0 0 0-.3-1.7l.1-.8.1-1.4.1-1.6v-.2l.2-.2v-.1l.1-.1.2-.1.1-.1.4.2a4.6 4.6 0 0 0 1 .7 8.2 8.2 0 0 0 .4.7h.1l.2.1h.6a3.3 3.3 0 0 0 .2-.2v-.1h.1v-2.2a62 62 0 0 1-.5-5.5c0-2 .3-3.8 1-5.5l.4-.3.3-.3.2-.3.3-.3.9-.6Zm19 35.1ZM18.2 99a18.2 18.2 0 0 1 1 4.3c.3 2 .2 4-.2 5.9l-1.1 5.7c-.4 1.9-.5 3.8-.6 5.8a108 108 0 0 1 0 8v.3l-.2.3a20 20 0 0 1-1.4 3.6 32.6 32.6 0 0 0-2.3 6.5 117.6 117.6 0 0 1 1.8-9.2c.5-2.6 1-5.3 1.2-8a156.4 156.4 0 0 0 .7-13.7 94 94 0 0 0 1-9.5Zm54.4 2.4.3-.5c.3 2 .5 4 .9 5.9a155.4 155.4 0 0 1 2 13.6c.6 3.8 1 7.6 1.2 11.5 0 1.8.2 3.5.4 5.3.3 2.3.4 4.7.2 7l-2.3-4.7c-1-1.8-1.8-3.6-2.5-5.5l-1.8-4.2.1-.4-.1-.6v-.2a3.5 3.5 0 0 0-.1-.9l.3-3.3c.4-2 .6-3.9.7-5.8 0-2-.1-4-.6-6-.4-1.8-.5-3.7-.3-5.6.2-2 .7-3.8 1.6-5.6Zm10.5 74Zm-1.6 14.1Zm-49.3-52.1 1.3.1a62.7 62.7 0 0 0 12.6-.1 34.1 34.1 0 0 0 7.5-1c2 0 3.9-.5 5.7-1.3l1.7-.7a42.6 42.6 0 0 0 8.6-4.3l1 2.7a76.4 76.4 0 0 0 4.5 9.9l2 4.4c0 .7-.2 1.3-.3 2-.2 1-.6 1.9-1 2.8-1.5 3-3 6-4.2 9a23.6 23.6 0 0 0-1.9 12v.2l.2.1v.1c.1 0 .1 0 0 0l-.2.5-.2.6-.2.7v.9a3 3 0 0 0 2.5 2.8c2 0 4-.8 5.7-2 1.3-1 2.5-2.1 3.7-3.3a31.4 31.4 0 0 1 .6 4.9c.2 2 .2 3.8 0 5.8 0 1.8-.2 3.8-.4 5.8a37.5 37.5 0 0 0-14.6.6h.2l-1 .1a84 84 0 0 1-14.4 1 6 6 0 0 1-3.4-.7c-.2-.2-.4-.3-.5-.6-.6-.8-.9-1.7-1-2.7a48.7 48.7 0 0 0-1.6-10.7l-.2-1.4c-.1-1.1-.5-2.1-1.3-3a.4.4 0 0 0-.3 0c-1 0-1.6.7-1.7 1.8l-.5 5.5c0 2-.2 3.9-.4 5.8-.2 2-.7 4-1.4 5.8-.8.2-1.7.4-2.6.4-1.4.1-2.8.3-4.1.6l-3.2.4-5.7 1-5.8 1c-2 .3-4.2.3-6.2-.3-.6-1.4-1-3-1.2-4.5l-.6-5.9c-.2-2-.2-3.9 0-5.8 1.3.8 3 1.2 4.8 1.2a120.5 120.5 0 0 0 3-.4l1.1-.4.2-.1v-.1l.1-.1.1-.2.1-.1.1-.2v-.1a9 9 0 0 0-1.1-2.5l.6-.3c.4-.4.6-.9.6-1.4.1-3.5-.1-7-.6-10.5a18.5 18.5 0 0 0-4.5-9.6 94 94 0 0 0-1.2-7.3l.1-.2a5.5 5.5 0 0 0 .2-.9l1.3-5.6c.5-2 1.2-3.8 2-5.6.6-1.1 1.1-2.3 1.5-3.5.8 1 1.9 2 3 2.6l4 2.1a23.6 23.6 0 0 0 6.9 2.2Zm38.6-83.8 2.2.7 2.5.8 1.6 1.1c2 1.3 3.7 2.8 5.1 4.7a16.1 16.1 0 0 1 3.4 7.8 92.3 92.3 0 0 0 1.2 7.5V78a17.7 17.7 0 0 1 0 2.5v.1h.1v.1l.2.2a348.8 348.8 0 0 1 .2 3.8 144.7 144.7 0 0 0 1 22.3l1 12c.2 4.1 0 8.3-.5 12.4a276.8 276.8 0 0 0-2.1 24.2 44 44 0 0 0-.4 4.5 16 16 0 0 1-4.3 10.4l-1.2 1.5c-2.3 2.9-5.2 4.7-8.7 5.5a3.2 3.2 0 0 1-1-.5v-.3c-.2-.2-.2-.4-.2-.7v-1.2l.1-.2.3-.5.2-.7V172.3l-.2-.2c-.2 0-.3-.3-.2-.5a7.7 7.7 0 0 0-.1-2.4v-.2c.4-3.5 1.4-6.8 3-9.9a85.2 85.2 0 0 0 4.8-11.5v-.3c.3-1.8.4-3.7.3-5.6l-.3-5.7a143 143 0 0 0-1.2-12.2 449.5 449.5 0 0 1-1.8-14.2A104.3 104.3 0 0 1 74 93.2a184 184 0 0 1 .7-13.3v-.1l-.2-.1H74a1.3 1.3 0 0 0-.3 0l-.1.2h-.1a69.4 69.4 0 0 0-.8 18l-.2.5v.1l-1 2a16.3 16.3 0 0 0-1.8 11.5l.1.5.4 2.5a20.5 20.5 0 0 1-.4 8.8c-.4 1.5-.5 3.1-.3 4.6l-1 .7-1.8 1a48.4 48.4 0 0 1-7.3 3.4c-.8.4-1.6.6-2.5.8l-5.4 1c-2 .4-3.8.6-5.7.6l-6.2.2a37.6 37.6 0 0 1-6 0 25.7 25.7 0 0 1-5-1.1l-.5-.2-.4-.1-1.8-.8a58 58 0 0 1-3.5-2 13 13 0 0 1-3.6-3l-.1-.4a257.8 257.8 0 0 1 .4-12l.8-4.6a28.7 28.7 0 0 0 .5-10.6 73.3 73.3 0 0 1-2.1-6.2c.1-3.9 0-7.7-.3-11.6l-.1-.2v-.4a.9.9 0 0 0-.2-.2 1.3 1.3 0 0 0-.2-.3 34.5 34.5 0 0 0-.4-.1h-.3a.8.8 0 0 0-.2.2l-.2.2v1.1h.1v.2l.1.6.2.7v6c.1 4.2-.1 8.2-.7 12.3-.6 4.1-.8 8.3-.8 12.4.1 4.5-.4 8.8-1.5 13.2v-.2l-.3 1.4c-1 3.9-1.6 7.8-1.7 11.8-.2 4.2.2 8.2 1.3 12.2a30 30 0 0 1 2 2.8 18 18 0 0 1 2.5 7.2c.5 3.2.6 6.4.3 9.6a5 5 0 0 1-.7.1l-.3-.3a9 9 0 0 1-2.2-3.6 21 21 0 0 1-1.1-6.5.8.8 0 0 0-.2-.3h-.2l-.1-.1a.8.8 0 0 0-.4 0h-.1l-.1.1-.2.1v.2l-.1.1.1 3.7c.3 2 1 4 2.1 5.6a47.8 47.8 0 0 0 3.6 4.4c-1.8.6-3.5.7-5.3.4a5 5 0 0 1-3.2-2 19 19 0 0 1-4.1-10.4c-.1-1.4-.2-2.8-.1-4.3 0-4.1 0-8.3-.3-12.4a351 351 0 0 0-2.2-22.5 99.2 99.2 0 0 1-.1-14.4 60 60 0 0 0 1-11.4A564.7 564.7 0 0 0 3.2 82c-.2-3.5.2-7 1-10.3A46 46 0 0 1 8 62.4c.5-.9 1-1.7 1.8-2.4 1.1-1.2 2.5-2 4-2.5A112.1 112.1 0 0 0 29 51.3c1.6-.8 3-1.8 4.2-3 .4.6.9 1 1.3 1.4l2.9 2.4a11 11 0 0 0 6.8 2.5h2c1.7-.4 3.2-1 4.5-2a46 46 0 0 0 5-4.5l.8.7a1.4 1.4 0 0 0 .6.4h.1a17 17 0 0 0 .4.1l1.8.8 5.2 1.8c1.8.7 3.7 1.1 5.6 1.4l.7.3Zm-2.6 72.2H68v-.1h-.7l-1.4.3c-1 .2-1.8.6-2.4 1.5a4.6 4.6 0 0 0-.8 3.6l.1.2a5 5 0 0 0 .1.1h.1l.1.1h.2a.4.4 0 0 0 .2 0h.1a.5.5 0 0 0 .2 0h.2v-.2l.1-.1a.5.5 0 0 0 0-.2v-.9l.2-1.2.6-.9.6-.3c.5 0 .9-.2 1.3-.3a11.7 11.7 0 0 1 1.2-.4h.1a.9.9 0 0 0 .1-.2.8.8 0 0 0 .2-.3 1 1 0 0 0 0-.4l-.1-.1-.1-.2Zm-47.3-.8a.6.6 0 0 0-.3.2l-.1.1v.1h-.1V126.2l.1.1v.1h.3l3.7 1.6c.3.1.6.3.7.6a10 10 0 0 1 1.3 3.8 1.2 1.2 0 0 0 .2.2.4.4 0 0 0 .2.1h.2a.7.7 0 0 0 .2 0h.1a.6.6 0 0 0 .2 0 .6.6 0 0 0 .1-.2.9.9 0 0 0 .1-.2l.1-.2v-.1c-.1-1-.3-1.8-.6-2.6-.3-1.2-1-2-2-2.6a15 15 0 0 0-4.1-1.7H20.9Zm23.7-3-.7.2-.6.3v.1h-.1v.2a3 3 0 0 0-.1.3 46.3 46.3 0 0 0 0 .4h.1l.2.2h.1l.3.1h.2l.1.1h.1a4 4 0 0 0 .4 0h.2l.4-.2.2-.4.1-.2V122.5a22.2 22.2 0 0 0-.5-.4h-.4ZM26 104a1 1 0 0 0-.2-.4l-.2-.1-.1-.1H24.9l-.2.2a1 1 0 0 0 0 .3l-.1.2c.2.8.6 1.7 1 2.4 1.3 2.2 2.2 4.4 2.8 6.8.3 1.3.4 2.5.4 3.8a16.3 16.3 0 0 0 1 5.4l.1.1h.2v.1h.4a.6.6 0 0 0 .2-.2h.1l.1-.2v-.1l.1-.1v-.2a2.7 2.7 0 0 0 0-.2l-.1-.2c-.2-1-.4-2-.4-3 0-2.5-.5-5-1.3-7.3a36.4 36.4 0 0 0-3.1-7.2Zm35.6 4.6a27 27 0 0 0-2 5.3 19.1 19.1 0 0 0-.3 7.5l.2.1a.6.6 0 0 0 .1.1h.2l.2.1H60.5v-.1l.2-.1.1-.2v-.2l.1-.2c-.2-1.8-.2-3.7.3-5.7.4-1.7 1-3.5 1.7-5.2A19.2 19.2 0 0 1 67 104v-.1a58.5 58.5 0 0 0 0-.6l-.1-.1-.1-.1h-.1a.9.9 0 0 0-.3-.2h-.1a.8.8 0 0 0-.3 0 19.5 19.5 0 0 0-4.3 5.8Zm7.1-16.9h-.2a.9.9 0 0 0-.2 0h-.1a9.7 9.7 0 0 1-8.3.7c-1.5-.5-3-1.1-4.4-1.9a12.4 12.4 0 0 1-5-4.8l-.2-.1h-.2a.9.9 0 0 0-.4 0l-.1.1h-.1v.2a60.7 60.7 0 0 1-.2.2c.4 1.3 1 2.4 2.1 3.2a26 26 0 0 0 4.2 3 17.4 17.4 0 0 0 7.8 2.2c1 .1 2 0 2.8-.4 1-.3 1.9-.8 2.7-1.3l.1-.1V92a.5.5 0 0 0 0-.2H69l-.1-.1Zm-34-1.5-3 .7a13.2 13.2 0 0 1-8.1-.4v-.1h-.1a1.1 1.1 0 0 0-.3-.2h-.6a36.5 36.5 0 0 0-.3.4v.1a7.2 7.2 0 0 0 0 .3v.2c0 .2.3.4.5.5.8.4 1.5.6 2.3.8a32.3 32.3 0 0 0 3.5.3c2.5-.3 5-.8 7.4-1.5a12.1 12.1 0 0 0 5.8-3.7v-.5l-.1-.1v-.1h-.2v-.1h-.1l-.1-.1H40.8a12.4 12.4 0 0 1-6 3.5Zm-17 77Zm9.7-31h.1Zm.1 0ZM46.6 24l-1 .2c-.2 0-.4.3-.5.5-.2.4 0 .8.3 1h.4a48.4 48.4 0 0 0 2.2-.5h.2a27.8 27.8 0 0 0 2.3.2 31.7 31.7 0 0 1 2.1.7h.3l.2.2h.6c.4-.1.6-.4.5-.9 0-.2-.1-.3-.3-.4l-1.9-.7a10 10 0 0 0-3-.6c-.8-.1-1.7 0-2.5.3Zm-13.6 3c0 .5.1.8.7 1h.4l.3-.2.3-.5 1-.5 2.3-1c.3-.1.7-.2 1.1-.1a32 32 0 0 1 2.2.4c.4 0 .7 0 .9-.3.2-.3.2-.6 0-.8a1 1 0 0 0-.7-.5l-1.7-.2a4 4 0 0 0-2.3.2l-2.2.8c-.8.3-1.4.8-2 1.3-.2 0-.2.2-.3.3Zm15.6 2.4c0 .2.2.4.4.6.3.1.7.1 1-.2.4-.2.5-.6.5-1 0-.3-.2-.5-.4-.6-.5-.3-1-.2-1.3.3l-.1.2c-.2.2-.2.4-.1.7ZM37 28.7c-.1.5 0 .9.5 1 .5.2 1 0 1.3-.2l.2-.5c.1-.5-.1-.8-.6-1a.9.9 0 0 0-.7 0 1 1 0 0 0-.7.7Zm6 5-.3.3-.8 1.7a2 2 0 0 0 .1 1.5l.3.3c.3.3.7.4 1 .5l1 .3h.7l.3-.2a3.1 3.1 0 0 0 .2-.2v-.1a50.6 50.6 0 0 1 0-.7l-.1-.1h-.1l-.1-.1h-.1l-.1-.1h-.5a12.7 12.7 0 0 1-1.2-.4l.1-.4a5.3 5.3 0 0 1 .8-1.5v-.2a.7.7 0 0 0 0-.2V33.7l-.2-.1a41.6 41.6 0 0 1-.4-.2h-.4l-.1.1Zm12 .6v.2a3 3 0 0 1 .2.2l.2.1.3.1a37.7 37.7 0 0 0 .5 0c1.4 0 2.2-.7 2.4-2 .1-.5 0-.9-.2-1.2-.7-1.2-1.6-1.4-2.6-.5a2.7 2.7 0 0 0-.1.5v.2a2.6 2.6 0 0 0 0 .2v.1h.1l.1.2h.2a.6.6 0 0 0 .2.1h.1a.8.8 0 0 0 .2 0h.1a1.4 1.4 0 0 0 .2-.1v-.1h.1V32h.1v1l-.3.3h-.3a2 2 0 0 1-.6 0 1 1 0 0 0-.4 0l-.1.1a.8.8 0 0 0-.3.2v.2l-.1.2v.2Zm-23.9-3V31l-.2-.3c-.8-.5-1.6-.5-2.4 0-.5.2-.7.5-.7 1 0 1 .4 1.8 1.3 2.3h.2a2.1 2.1 0 0 0 1.1-.2v-.1a.9.9 0 0 0 .2-.2v-.7a.9.9 0 0 0-.1-.1v-.1h-.2v-.1h-.8l-.2-.3V31.9h.6a2.6 2.6 0 0 0 .4 0 .8.8 0 0 0 .3 0h.2v-.1a41.6 41.6 0 0 0 .3-.5Zm-1.3.5Zm-.6 0Zm4 14.3Z"/><path fill="#fff" d="M73 54.3a34.6 34.6 0 0 0-2.9-1c-1.9-.3-3.8-.7-5.6-1.4a706.5 706.5 0 0 0-8-3v-.1c-.4-.2-.6-.4-.8-.7l-.1.1-1.4 1.3a46 46 0 0 1-3.6 3c-1.3 1-2.8 1.7-4.4 2-.7.1-1.4.2-2 .1a11 11 0 0 1-7-2.5 72.2 72.2 0 0 1-4-3.7c-1.3 1.1-2.7 2-4.2 2.8a112 112 0 0 1-15.2 6.3c-1.6.5-3 1.3-4.1 2.5a11 11 0 0 0-1.8 2.4 46 46 0 0 0-3.6 9.4C3.3 75.2 3 78.6 3.2 82a412.6 412.6 0 0 1 .5 18.4 60 60 0 0 1-1 11.4l-.3 2.9c0 3.8 0 7.7.4 11.5L4 137c.4 3.9.8 7.8 1 11.8.4 4.1.5 8.3.4 12.4v4.3A19 19 0 0 0 9.6 176a5 5 0 0 0 3.2 2c1.8.3 3.5.2 5.3-.4a46 46 0 0 1-3.6-4.4 11.9 11.9 0 0 1-2-5.6c-.2-1.2-.3-2.4-.2-3.7v-.1a.8.8 0 0 1 .3-.3l.2-.1a.9.9 0 0 1 .4 0h.1l.2.1v.1l.2.2v.1c0 2.2.4 4.3 1 6.4a9 9 0 0 0 2.6 4l.7-.2c.3-3.2.2-6.4-.3-9.6a18 18 0 0 0-2.6-7.2 30 30 0 0 0-1.9-2.8c-1-4-1.5-8-1.3-12.2a55.7 55.7 0 0 1 2-13.1c1.1-4.3 1.6-8.6 1.5-13 0-4.2.2-8.4.8-12.5a83 83 0 0 0 .3-21l.2-.1.1-.2h.4a1.1 1.1 0 0 1 .3 0 34.5 34.5 0 0 0 .4.5V83.2l.1.2a58 58 0 0 0 .1.2c.3 3.9.4 7.7.3 11.6a73.3 73.3 0 0 0 2.1 6.2A24 24 0 0 1 20 112a39.5 39.5 0 0 0-1.2 10.7 898.5 898.5 0 0 1 0 6.2 13 13 0 0 0 3.7 3.2 58.5 58.5 0 0 0 5.7 2.8l.4.2a18.8 18.8 0 0 0 5.2 1h-.1c2 .2 4 .3 6 .1l6.2-.2c1.9 0 3.8-.2 5.7-.6l5.4-1c.9-.2 1.7-.4 2.5-.8a263.9 263.9 0 0 0 9-4.4l1.1-.7c-.2-1.5 0-3 .3-4.6l.5-3c.2-1.9.2-3.8-.1-5.8a129 129 0 0 1-.5-3 17 17 0 0 1 1.7-11.4l1.2-2a1.8 1.8 0 0 1 0-.2v-.5a84.9 84.9 0 0 1 1-18l.1-.1.1-.1h.5a.8.8 0 0 1 .3 0l.1.2a1.1 1.1 0 0 1 .2.3 184 184 0 0 0-.8 17 104.3 104.3 0 0 0 2.2 16 449 449 0 0 0 1.4 11.5 143 143 0 0 1 1.4 17c.1 2 0 3.8-.4 5.6l.1.3v.3l-.2.2a85.4 85.4 0 0 1-4.6 11 26.8 26.8 0 0 0-3 10 8.8 8.8 0 0 1 0 2.5c0 .2.1.4.3.5l.1.2a1 1 0 0 1 .1.3v.7a3.3 3.3 0 0 1-.5 1.2V174.8l-.1.2V175.9l.1.7.2.3a4.9 4.9 0 0 0 .6.3l.3.2c3.5-.8 6.4-2.6 8.7-5.5l1.2-1.5a16 16 0 0 0 4.3-10.4 44 44 0 0 1 .3-4.3 543 543 0 0 1 2.2-24.4c.5-4.1.7-8.3.4-12.4-.2-4-.5-8-1-12a187.4 187.4 0 0 1-1-26.1 1.2 1.2 0 0 1-.3-.2 160490783096.6 160490783096.6 0 0 1-.1-.4 17.7 17.7 0 0 0-.3-5.9 92.2 92.2 0 0 1-1.1-6.7c-.5-2.4-1.6-4.6-3.2-6.7a19.6 19.6 0 0 0-5.1-4.7l-1.6-1.1-2.5-.8ZM17.8 167Zm14-76.2 3-.7a12.4 12.4 0 0 0 6.2-3.5 29.6 29.6 0 0 0 .2 0h.4v.1h.1a3.3 3.3 0 0 1 .1.2 2 2 0 0 1 .1.3v.4c-1.6 1.8-3.5 3-5.8 3.6a54.5 54.5 0 0 1-8.6 1.5l-2.3-.3c-.8-.2-1.5-.4-2.3-.8a1 1 0 0 1-.5-.5v-.4a7.4 7.4 0 0 1 0-.2v-.1l.1-.1h.1l.1-.1.2-.1h.5l.2.1v.2h.1c2.7 1 5.4 1.1 8 .4Zm37 .8a.5.5 0 0 1 .1 0v.1a1 1 0 0 1 .2.2V92.8c-1 .5-1.8 1-2.8 1.3-.9.4-1.8.5-2.8.4h-1.4c-2.3-.4-4.4-1-6.4-2.2a26 26 0 0 1-4.2-3c-1-.8-1.7-1.9-2-3.1V85.9l.1-.1a.6.6 0 0 1 .2-.2.6.6 0 0 1 .2 0 .9.9 0 0 1 .2 0h.4c1.2 2.1 2.9 3.8 5 5 1.4.7 2.9 1.3 4.4 1.8a9.7 9.7 0 0 0 8.4-.8.8.8 0 0 1 .2 0h.1Zm-9 22.2a27 27 0 0 1 2-5.3 19.5 19.5 0 0 1 4.3-5.8h.4l.2.1.1.1v.1h.1l.1.3v.4a7.2 7.2 0 0 0-.1.2 19.2 19.2 0 0 0-4.1 6c-.8 1.7-1.3 3.5-1.7 5.3a15.8 15.8 0 0 0-.3 5.8v.2l-.2.2a.8.8 0 0 1-.2.1 1 1 0 0 1-.3.1 1.2 1.2 0 0 1-.4 0v-.1h-.1l-.1-.2a4 4 0 0 0-.1-.1v-.1c-.4-2.5-.2-4.9.4-7.3Zm-34-10.3c.2.1.3.2.3.4l.1.4c1.3 2.2 2.3 4.4 3 6.8.8 2.4 1.3 4.8 1.3 7.4a15.5 15.5 0 0 0 .5 3.3v.4l-.1.1-.2.1v.1h-.2l-.1.1H30l-.2-.2c-.7-1.7-1-3.5-1-5.4 0-1.3-.1-2.5-.4-3.8-.6-2.4-1.5-4.6-2.8-6.8-.4-.7-.8-1.6-1-2.4V103.8l.1-.2.2-.1.1-.1H25.7l.2.2ZM44 122.2a4.3 4.3 0 0 1 1-.1l.3.1v.1l.2.2.1.4v.4l-.3.4-.4.2h-.2c0 .1-.1.1-.1 0h-.7l-.3-.1-.1-.1a19.6 19.6 0 0 1-.3-.3V122.7l.1-.1c.3-.3.5-.4.7-.4ZM21 125H21.2c1.5.3 2.9.8 4.2 1.6 1 .6 1.6 1.4 2 2.6l.5 2.6v.2a.4.4 0 0 1 0 .2.7.7 0 0 1-.2.2.7.7 0 0 1-.3.1h-.1a.6.6 0 0 1-.2 0H27a1.6 1.6 0 0 1-.2 0 .4.4 0 0 1-.2-.2l-.1-.1a10 10 0 0 0-1.3-3.8c-.1-.3-.4-.5-.7-.6a20 20 0 0 0-4-1.6v-.2h-.1v-.7h.1v-.2h.1a.7.7 0 0 1 .2-.1Zm47.2.7.1.1.1.2v.2a.8.8 0 0 1 0 .2 1.5 1.5 0 0 1 0 .3.9.9 0 0 1-.4.3c-.4 0-.7.2-1.1.3l-1.3.3-.6.3c-.3.3-.5.6-.6 1l-.1 1.1a16.5 16.5 0 0 1 0 1.1H64v.1l-.1.1h-.1l-.1.1a.6.6 0 0 1-.2 0 .5.5 0 0 1-.2 0h-.1a1.7 1.7 0 0 1-.2 0l-.2-.1v-.1l-.1-.1v-.2c-.3-1.3 0-2.5.7-3.5.6-.9 1.4-1.3 2.4-1.5.5 0 1-.2 1.4-.3H68.1ZM34.7 13.5c-.4 0-.8.1-1.1.4a8.7 8.7 0 0 0-1.4 1.2l-.3.3-.3.3c-.8 1.7-1.1 3.5-1 5.5a62 62 0 0 0 .4 7.6v.2h-.2a3 3 0 0 0-.1.2h-.8a.9.9 0 0 1-.2-.2 2.8 2.8 0 0 1-.2-.4v-.2c-.2 0-.4-.2-.5-.3-.2 0-.4-.2-.6-.4l-.3-.2h-.2a1.4 1.4 0 0 0-.3.3 1.9 1.9 0 0 0-.1.3v.2l-.2 1.6v1.4l-.2.8c.2.5.3 1.1.3 1.7 0 .5.1 1 .3 1.4 0 .3.2.5.4.7l.2.1.2.1.2.1h.1a24.4 24.4 0 0 1 .2 0h.5l.1-.1.2-.1.1-.1h.7l.2.1v.1l.1.2v.4h.1a20.5 20.5 0 0 1 0 .4V37.7v-.1c.1 2.6.7 5 1.6 7.4l.8 1.3a24 24 0 0 0 6 5.4c1.6 1 3.4 1.5 5.4 1.4 1.8 0 3.3-.6 4.7-1.7a61.8 61.8 0 0 0 5-4.4 56.5 56.5 0 0 1 1-1.6c.5-1.1.8-2.3 1-3.5a17.9 17.9 0 0 0 0-4.2 1.7 1.7 0 0 1 0-.2h.1v-.1l.1-.1h.1l.1-.1h.7v.1a48.2 48.2 0 0 1 .2.1c.6-.6 1-1.3 1.2-2.2a48.3 48.3 0 0 0 .8-4c0-.3-.1-.7-.3-1L59 29l-.1-.5h-.1l-.1-.2a.5.5 0 0 0-.2 0h-.1a.5.5 0 0 0-.1.2v.1l-.1.1v.1h-.1v.1H58l-.1.1a28.7 28.7 0 0 1-.5.1h-.2l-.2-.1a.6.6 0 0 1-.1-.2v-.1a80 80 0 0 1-.1-6.8c-.2-1.8-.6-3.5-1.3-5.1-.3-.8-.8-1.5-1.5-2-.6-.6-1.2-1-2-1.3h.1-.2c-2 0-3.8.3-5.7.6a20 20 0 0 1-8.1 0l-3.5-.6ZM33.4 46ZM31.2 31v.3l-.1.3-.1.2h-.2v.1h-.1a.8.8 0 0 1-.3 0 2 2 0 0 1-.5 0 3.3 3.3 0 0 0-.4 0h-.2v.1l.1.2a1.7 1.7 0 0 0 .2.3 1.7 1.7 0 0 1 .4 0h.1a3.2 3.2 0 0 1 .2 0h.1l.1.1a.6.6 0 0 1 .2.2 71.6 71.6 0 0 0 0 .3v.4a.6.6 0 0 1 0 .1h-.1l-.1.2-.5.2h-.8a2.4 2.4 0 0 1-1.3-2.3c0-.5.2-.8.7-1 .8-.5 1.6-.5 2.4 0l.2.3Zm24 3.4-.1-.1v-.2a.9.9 0 0 1 0-.3l.1-.1a.9.9 0 0 1 .3-.2h1.1l.3-.1.2-.3.2-.5v-.4h-.1a.9.9 0 0 0-.2.1.7.7 0 0 1-.2.2 1.7 1.7 0 0 1-.2 0 .8.8 0 0 1-.2 0 3.2 3.2 0 0 1-.2 0H56v-.1l-.2-.1V32a.6.6 0 0 1-.1-.2v-.2a1.5 1.5 0 0 1 0-.5c1.1-.9 2-.7 2.7.5.2.3.3.7.2 1.2-.2 1.3-1 2-2.4 2a4.3 4.3 0 0 1-.8-.1h-.1l-.1-.1a.9.9 0 0 1-.1-.2ZM42.7 34l.4-.4h.1l.1-.1h.6v.1h.1l.1.2.1.1v.2a.6.6 0 0 1 0 .2v.2a8 8 0 0 0-.8 1.5v.4l.4.2a8.3 8.3 0 0 0 .8.2H45a1.4 1.4 0 0 1 .3 0v.1h.2v.2l.1.1v.1a6.3 6.3 0 0 1 0 .3v.4h-.1l-.1.1-.3.1h-.3l-.3.1c-.4 0-.7-.1-1-.3-.4 0-.8-.2-1-.5-.2 0-.3-.2-.4-.3a2 2 0 0 1 0-1.5c.1-.6.4-1.1.7-1.7Zm-5.2-4.2c-.4-.2-.6-.6-.5-1 .1-.4.3-.6.7-.8h.7c.5.2.7.5.6 1 0 .2 0 .3-.2.5-.4.3-.8.4-1.3.3Zm11.4 0a.9.9 0 0 1-.4-.5v-.7l.2-.2c.4-.5.8-.6 1.3-.3.2.1.3.3.4.6 0 .4-.1.8-.5 1-.3.3-.7.3-1 .2Zm-15.3-2c-.6 0-.8-.4-.7-1l.3-.3c.6-.5 1.2-1 2-1.3l2.2-.8a4 4 0 0 1 2.3-.2l1.7.2c.3 0 .5.2.7.5.2.2.2.5 0 .8-.2.3-.5.4-.9.3a21.3 21.3 0 0 0-2.2-.4l-1.1.1a86.4 86.4 0 0 0-3.3 1.5c0 .2-.1.3-.3.5a.8.8 0 0 1-.7.2Zm12-3.7.8-.2c.8-.3 1.7-.4 2.5-.3h.5c.9.1 1.7.3 2.5.6l1.9.7c.2.1.3.2.3.4.1.5 0 .8-.5 1l-.6-.1-.2-.1h-.3V26h-.1a31.7 31.7 0 0 0-3-.9h-2.2a48.8 48.8 0 0 1-1.9.5c-.4-.2-.5-.6-.3-1 .1-.2.3-.4.6-.5Z"/><path fill="#333" d="M33.5 137.5a20 20 0 0 1-2.7-.4c-1.9-.4-3.7-1-5.5-1.9l-4-2a11 11 0 0 1-3-2.7A34 34 0 0 1 17 134c-.9 1.8-1.6 3.7-2 5.6a144.2 144.2 0 0 0-1.6 7.3 379.6 379.6 0 0 0 1.1 6.8c2.4 2.7 4 6 4.5 9.5s.7 7 .6 10.5c0 .5-.2 1-.6 1.4l-.6.3c.5.8.9 1.6 1.2 2.5v.1l-.2.2a20.8 20.8 0 0 1-.3.5h-.2c-.3.3-.7.4-1.1.5l-1.5.2-1.5.2c-1.9 0-3.5-.4-4.8-1.2-.2 2-.2 3.9 0 5.8l.6 5.9c.2 1.6.6 3 1.2 4.5 2 .6 4.1.6 6.2.3l5.8-1a76.3 76.3 0 0 1 8.9-1.4c1.3-.3 2.7-.5 4-.6 1 0 1.9-.2 2.7-.4a22 22 0 0 0 1.4-5.8l.4-5.8.5-5.6c.1-1 .7-1.6 1.7-1.8.1 0 .2 0 .3.2.8.8 1.2 1.8 1.3 3a126.9 126.9 0 0 1 1.9 12c0 1 .3 2 .9 2.7.1.3.3.4.5.6a6 6 0 0 0 3.4.8h.8a57.3 57.3 0 0 0 14.6-1.2h-.1a37.4 37.4 0 0 1 8.1-.4 217.4 217.4 0 0 0 6.4-.2l.5-5.8a38.8 38.8 0 0 0-.7-10.7 36.5 36.5 0 0 1-3.7 3.3 10 10 0 0 1-5.7 2 3 3 0 0 1-2.4-2.9v-1.5l.3-.6.3-.5-.1-.1-.1-.1v-.2c-.5-4.1 0-8.1 1.8-12l4.1-9a31.4 31.4 0 0 0 1.4-4.8 396.7 396.7 0 0 1-7.5-17 57 57 0 0 1-10.3 5c-1.8.8-3.7 1.2-5.7 1.4-.6 0-1.1 0-1.6.2a34.1 34.1 0 0 1-8.8.8 155.8 155.8 0 0 0-6.6.2c-1 0-2 0-3-.2Zm-5.9-1.3Z"/><path fill="#000" d="M39.6 45.5a.7.7 0 1 0 1 .8l.3-.2a2.7 2.7 0 0 1 .5-.4c.7-.3 1.6-.5 2.3-.6.8 0 1.4.2 2.4.5.8.2 1.6.4 2 .7l-.1-.2c0-.2 0 0 0 0a.7.7 0 0 0 1.3 0v-.6h-.1l-.2-.2-.1-.1c-.9-.6-1.7-.7-2.4-.9-.7-.2-1.9-.6-2.9-.5-1 .1-1.8.3-2.8.7a4 4 0 0 0-.8.5l-.4.5Z"/></g><defs><clipPath id="a"><path fill="#fff" d="M0 0h92v190H0z"/></clipPath></defs></svg>