<svg xmlns="http://www.w3.org/2000/svg" width="663" height="1024" fill="none"><g clip-path="url(#a)"><path fill="#DE9E71" d="m446.7 309.2-8.1-3.4a101.4 101.4 0 0 1-18.4-10.6l-6.9-4.7a276.3 276.3 0 0 0-7.8-5 96.4 96.4 0 0 1-13.1-10.2c-.8-.7-1.5-1.4-2.1-2.2a56.5 56.5 0 0 1-10.8-23.3 148 148 0 0 1-2.9-24.1c-3 2-6 3.9-9 5.6-5.3 3-10.6 6.2-15.8 9.5-5.2 3.3-10.6 6.4-16 9.3-2 1-4.1 1.8-6.3 2.3-4.4 1-8.9 1.6-13.4 1.7-5.7-1.2-11.4-2.6-17-4.3-3-.8-5.9-1.6-8.8-2.1-5.6-1-11.2-2.5-16.6-4.3h.1-.2c-2.3-.3-4.5-.9-6.5-1.7a15.5 15.5 0 0 1-.2 1.8 89 89 0 0 1-1.8 22.3 42.6 42.6 0 0 1-6.1 12.6 38.7 38.7 0 0 1-1.5 1.8l.2-2.2-2 1.3a159.4 159.4 0 0 1-15.4 7.7l-8.5 4.3-8.4 4.2a695.2 695.2 0 0 1-23.5 11 263 263 0 0 0-18.4 9 1124.1 1124.1 0 0 0-26.9 13.1l-8 3.7c-3 1.3-5.9 2.8-8.7 4.5l-9 5a74.3 74.3 0 0 0-8.7 5.6 91 91 0 0 0-19.8 18.6c-4.8 5.9-9.1 12.1-13.1 18.6a109 109 0 0 0-8.2 16.3 147.1 147.1 0 0 0-9.5 35.6c-1.1 8.2-2 16.4-2.9 24.6a366.8 366.8 0 0 0-1.7 40.2c.2 13.3-.9 26.6-3.2 39.8a43.3 43.3 0 0 1-3.1 10.3 190.8 190.8 0 0 0-6.2 35.4c-1 12.2-1.5 24.3-1.4 36.5 0 12-.6 24-2 35.8a192 192 0 0 1-6.4 30.7 478.6 478.6 0 0 0-9.2 35.4c-2.2 10.3-4.6 20.5-7 30.7a175.4 175.4 0 0 0-4.9 35.6 750.5 750.5 0 0 0 .8 73 3279.4 3279.4 0 0 0 4.9 72.2 1888.7 1888.7 0 0 1 4.4 72.7 147 147 0 0 1-.3 17l-.2.4-.4.5a1548.5 1548.5 0 0 1-.8.8 5 5 0 0 1-1.1.4v.2h68.4v-1.6a96.6 96.6 0 0 1-3.5-36c.7-9 1.6-18 2.6-27 1.3-12.2 3.6-24.1 6.9-35.9a425 425 0 0 0 8-35.6c2.2-11.9 4-23.8 5.4-35.8a1839.6 1839.6 0 0 0 7.2-43.6c1.9-11.8 3.4-23.8 4.5-35.7 1-9.8 1.5-19.5 1.7-29.3a343.6 343.6 0 0 1 1.2-24.6c0-1.4.4-3 .8-4.4l10.4-34.8c1.7-5.7 3.5-11.4 5.5-16.8a901 901 0 0 0 9.8-29.3c.3-11.2 1.2-22.5 2.8-33.7 1.6-12 2.3-24.2 2-36.4a260.6 260.6 0 0 1 .9-29.7l-.1-.4-.2-.6-.1-.5v-1l.2-.5a4.8 4.8 0 0 1 1-1.8 111 111 0 0 1-6-15.5v-.6l.1-.5a22.3 22.3 0 0 1 .2-.7l-.2-.7-2.4-8.3a5.1 5.1 0 0 1 0-3.3l.3-.5.2-.4.6-.7.8-.5.8-.4h.5a2.7 2.7 0 0 1 1 0 16.4 16.4 0 0 1 1 .2l.5.3c.2 0 .3.2.4.3.2 0 .3.2.5.3l.3.4.3.5.2.5 2.2 7.9c.7 2.6 1.5 5 2.4 7.6l.7 2.7-.1.8a180.8 180.8 0 0 0 16.8 28.6A93.2 93.2 0 0 0 210 575a82.6 82.6 0 0 0 32.4 12.4 97.1 97.1 0 0 0 44-3 72.8 72.8 0 0 0 31.6-14.8c2.6-2 5.3-2.7 8.2-1.8 1.6.4 2.3 1.5 2.1 3.2a6.8 6.8 0 0 1-4.5 6c-1.4.5-2.8 1.2-4.1 2.1a79.4 79.4 0 0 1-32 13.2c-5.5 1-11 2-16.5 3.3a81.9 81.9 0 0 1-47.9-5 110.2 110.2 0 0 1-29.6-18.4 121.8 121.8 0 0 1-22.3-25.5l-.3 5.4-.3 8.9a332.5 332.5 0 0 1-2.4 45.3l.8-.2h.2v1.7l-4 31.2v.5l-.6 2.4c-.6 1.7-.8 3-.8 3.7v.4l-1.5 4.4c.8.5 1.5 1.5 2 3.1l.8 2.7a262.5 262.5 0 0 1 7 41.7c1 10 .8 19.8-.8 29.6a264 264 0 0 0-3.2 30.3l-1.5 31.2c-.5 10.4-.6 20.7-.3 31.1a257.5 257.5 0 0 0 3.2 32.5 247.3 247.3 0 0 1 20.7 3.8A303 303 0 0 0 245 862a378 378 0 0 0 25-.2c8.9-.4 17.8-.8 26.8-1.4a192 192 0 0 1 28 .4 511 511 0 0 0 15.1 1h-.1c4.3.3 8.7.4 13.1.5 12.2.3 24.4 1 36.6 2.2 5 .5 10 .5 14.9.3 9-.5 18-1.2 26.9-2.2 9.4-1.1 19-2 28.5-2.5 2.9-.1 5.8-.5 8.6-1h-.5a75.3 75.3 0 0 0 8.8-2.3c-1-9-1.5-18.1-1.2-27.2.3-10 .9-19.8 1.8-29.7.9-9.9 1.2-19.8.9-29.7-.3-9.8-.5-19.7-.6-29.6a354 354 0 0 1 2.8-53.9v-2.1a116.8 116.8 0 0 1 1.1-9.9 4225 4225 0 0 1 3.9-29.5 461.4 461.4 0 0 1 6.1-34c.4-1 1.2-1.8 2.2-2.3l.6-.3c-.5-7-.3-14.1.6-21.2l1.5-14c.4-5.8 1-11.4 1.7-17.1l-3.9 5.8c-1.8 2.5-3.4 5.1-5 7.8a51.9 51.9 0 0 1-27.6 23.1 151.6 151.6 0 0 1-41.8 9.1 90.6 90.6 0 0 1-41.1-7.8l-14.1-6.3a93 93 0 0 1-22.5-14.2 4 4 0 0 1-.6-2.7c0-.4.2-.9.4-1.3l.5-.8.3-.4.3-.3.4-.3.8-.3.9-.2h.9l1.2.3.4.2c9.3 7 19.3 12.5 30 16.8 7.3 3 14.8 5.3 22.4 7.2 6.5 1.5 13 2 19.6 1.5 12.5-1 24.9-3.4 37-7.2A45.5 45.5 0 0 0 483 565c5-8.5 10-17 15.2-25.4 1.2-2 2.4-4.1 3.5-6.3a163.4 163.4 0 0 1 10.1-31.7 4 4 0 0 1 2.7-1.6c1.2-.2 2.2.1 3.2 1a4.2 4.2 0 0 1 1.4 3 403.2 403.2 0 0 0-8.5 27.2l.1.5a2.8 2.8 0 0 1 0 1.1l-1.5 3.4c-2 7.9-3.1 16-3.6 24a329 329 0 0 1-2.1 21.5v-.4c-1.7 9.4-2 18.9-1 28.4a298.4 298.4 0 0 0 20.3 81.2l-.2-.5c3.3 7.5 6 15.1 8.2 23 .3 1 .5 2.2.6 3.4a839 839 0 0 0 2.1 28.9c.9 9.8 1.5 19.7 1.8 29.6.2 5 .2 10 0 15 .4 1.4.7 3 .9 4.5a651.9 651.9 0 0 0 5.8 35.6c2.1 11.4 4.2 22.7 6 34 1.7 9.6 3.5 19 5.7 28.4 2.3 10.2 4.5 20.3 6.6 30.5l6 29a187.5 187.5 0 0 1 3.3 57.6l-.3 2c-.4 3-.7 6.1-.9 9.2a57 57 0 0 1-1 6.7l-.1.5v.5h74.4c-.5-.2-.9-.3-1.3-.6-.4-.2-.7-.5-1-.9l-.4-.8-.3-.9-.1-.4v-.5c-.7-12.2-1.3-24.5-1.8-36.7-.4-12.2-1.1-24.4-2-36.6-1-12.2-.8-24.2.6-36.3 1.4-12 2.2-24 2.6-36 .3-12 1-24.1 2-36.1 1-12.2 1.6-24.5 1.7-36.7.1-12.3-1-24.5-3.3-36.6-2.3-11.9-4.8-23.8-7.4-35.7a828.2 828.2 0 0 0-14-54.7c-.1-.6 0-1.1.2-1.7-.4-11.9-.7-23.8-.7-35.8l-.4-36.3c-.2-12.3-1.3-24.4-3.5-36.4a282 282 0 0 0-4.9-21.7c-2.4-9-4.4-18-6.2-27a3 3 0 0 1-.4-.3l-.3-.5-.3-.3c-.3-.6-.5-1.1-.5-1.8-.1-.6 0-1.3.2-1.8l.2-.7c0-.6-.2-1.1-.3-1.7l.1-.5a3.3 3.3 0 0 1 .3-1l-.3-35.9c-.2-12-1.2-23.5-3.1-34.8-1.4-8.2-3.6-16.2-6.6-24a242.4 242.4 0 0 0-16-32.6 94.3 94.3 0 0 0-10.8-14.8 62 62 0 0 0-29.3-18.7l-12.3-3.7.4-.2-.5-.3a74.6 74.6 0 0 1-6.2-4.8h-.1l-.7-.8a11.6 11.6 0 0 0-.8-.8l-3.5-1.6c-3.2-1.5-6.3-3.2-9.3-5-3.2-2-6.5-3.8-9.7-5.5a59 59 0 0 0-8.7-4c-1.8-.6-3.5-1.4-5.2-2.2l.3.1-9.9-4.4a117 117 0 0 0-9.5-3.7 105.2 105.2 0 0 1-11.7-4.6l-.2-.1-.2-.1ZM337.4 442l.2-.4.3-.5a4 4 0 0 1 .8-.7 525.7 525.7 0 0 1 .8-.6l.5-.2h.5a3.2 3.2 0 0 1 1.1 0h.5l.5.2.5.2a61.7 61.7 0 0 1 1.1 1.1l.3.5.2.4.2.6c0 8.8-.5 17.6-1.6 26.3-1.2 9-2 17.8-2.2 26.7a51.2 51.2 0 0 1-1.5 9.7 3.4 3.4 0 0 1-.7.7l-.4.3a2 2 0 0 0-.5.3l-.5.1a16.4 16.4 0 0 1-1.1.2h-.5l-.5-.2c-.2 0-.3 0-.5-.2a6 6 0 0 1-.4-.2 5.5 5.5 0 0 1-.9-.7l-.3-.3a2 2 0 0 1-.3-.5 113 113 0 0 0-.6-1.5v-.6c.1-8.8.8-17.5 2-26.1a239 239 0 0 0 2.4-25.9c0-3 .3-5.8.6-8.7ZM233.6 552.2l.9 1.1c.3.6.4 1.2.5 1.8 0 .6 0 1.2-.2 1.8-.1.5-.3.9-.6 1.3l-.3.3a4 4 0 0 0-.4.4 2 2 0 0 1-.5.3 2 2 0 0 1-.4.2l-.5.2-.5.1a2.4 2.4 0 0 1-1 0l-.5-.1c-.2 0-.4 0-.5-.2l-.5-.2c-.2 0-.3-.2-.4-.3a16.4 16.4 0 0 0-.8-.7 4 4 0 0 1-.4-.4l-.3-.4-.3-.4c-.3-.5-.5-1-.5-1.7a4.8 4.8 0 0 1 1-3.5c.9-.8 1.8-1.2 2.9-1.2 1.3 0 2.4.6 3.3 1.6Zm-3.3 137.5.4.2.5.4c3 3.6 6.3 7 9.9 10 4.3 3.6 8.8 6.8 13.5 9.7 2.3 1.5 4.3 3.3 6 5.5l.1.5.1.6v1.4l-.2.6a8.6 8.6 0 0 1-.6 1 3.4 3.4 0 0 1-.7.8l-.4.3-.5.2-.4.3a16.9 16.9 0 0 0-1.2.1h-.5a423.4 423.4 0 0 0-1.4-.6 506 506 0 0 1-14.2-10.1c-4.6-3.5-8.9-7.2-12.9-11.3a13.1 13.1 0 0 1-3.1-5.2V693a97.6 97.6 0 0 0 .6-1.5 5.8 5.8 0 0 1 1-1.2c0-.2.2-.3.4-.4l.6-.2.6-.2h1.9l.5.2Zm-61.4-16.9v-.2c0-.2 0-.2 0 0v.2Zm-45.3 53v.6a97.6 97.6 0 0 1-.5 1.5 16.3 16.3 0 0 1-4.7 4.4 14.7 14.7 0 0 1-10.5 1.9 42.4 42.4 0 0 1-13.4-6.4c-4-2.8-7.3-6.3-10-10.6a8.8 8.8 0 0 1-1.3-4.9l.1-.5.2-.5.2-.5a5.8 5.8 0 0 1 .6-1 102.3 102.3 0 0 0 1.3-.8 2531.6 2531.6 0 0 0 1-.3h1.1a4233.6 4233.6 0 0 1 1.4.5c.2 0 .3.2.5.3a102.3 102.3 0 0 1 .7.8l.3.4.2.5.2.5.1.3c1.4 2.8 3.3 5.1 5.7 7 2.6 2.1 5.4 3.9 8.4 5.4a19 19 0 0 0 4.2 1.5 9.7 9.7 0 0 0 5.2-.9 13.6 13.6 0 0 0 1.8-1.6c.2-.3.5-.6.9-.8l.8-.6.5-.2h.5a2.4 2.4 0 0 1 1 0h.6l.5.2.4.3.5.2c0 .2.2.3.4.4a3.8 3.8 0 0 1 1 1.9 97.6 97.6 0 0 1 .1 1Zm213 31.8.4.4.3.4.2.4.2.5.2.5.1.5.3.2.5.2.4.4c1.7 2.1 2 4.5 1 7.1a7 7 0 0 1-6.6 4.5c-4-.8-5.8-3.4-5.6-7.7.2-4.3 2.1-7 5.7-8 1-.3 2 0 3 .6Zm91.2-35a4 4 0 0 1-1-1.5 224.8 224.8 0 0 0-.2-1.3v-.7a138.2 138.2 0 0 0 .5-1.6l.3-.5a147.2 147.2 0 0 0 22.9-24 6.5 6.5 0 0 1 2.1-1.7l.5-.2h.6l.7-.1 1.2.4a4.6 4.6 0 0 1 1.4.8 5.1 5.1 0 0 1 1 1.9l.1.5v1.1l-.1.6c-3.5 5.3-7.5 10.3-12 14.9-4 4.1-8.1 8-12.5 11.6a5 5 0 0 1-1.6.8l-.5.1a2.7 2.7 0 0 1-1.1 0h-.6l-.5-.3-.4-.2-.5-.3-.3-.3Zm-13.8 116c0-.3 0-.5.2-.6a86 86 0 0 0 12.1-17.5c3.2-6.2 6.2-12.5 9-18.9 1-2.1 2.1-4.1 3.6-5.9l.4-.3.5-.2.5-.2h.5a2.4 2.4 0 0 1 1 0h.5a24.5 24.5 0 0 1 1.4.7 3.8 3.8 0 0 1 .8.8l.2.5.3.5.1.5a97.6 97.6 0 0 1 .1 1.6l-.1.5a937 937 0 0 1-10.7 22c-3.2 6.3-7 12.4-11.2 18.2-1.3 1.7-3 3-4.8 3.6h-1.2l-1-.3-.4-.2-.4-.3a4 4 0 0 1-.8-.8 153.5 153.5 0 0 0-.5-1l-.2-.4-.1-.6a3.8 3.8 0 0 1 .2-1.8Zm-168.3-38.8c.6.4 1 .9 1.4 1.5 1.7 8.4 3.6 16.7 5.7 25a39 39 0 0 0 10.2 18.2c.9 1 1.7 2.1 2.3 3.3a4 4 0 0 1 .2 2.6 5 5 0 0 1-1 2c-.7.6-1.4 1-2.2 1l-.6.1a4 4 0 0 1-2.2-.6 48 48 0 0 1-13-19.5 114 114 0 0 1-6.8-30.5 4 4 0 0 1 .8-2l.3-.4c.5-.5 1.1-.9 1.8-1l.6-.2c.7-.1 1.3 0 2 .3l.5.2Zm197.1-236.7c-.5-.6-.7-1.2-.7-2 1.7-4.8 4.1-5.3 7.3-1.4.7.8.8 1.7.3 2.6-2 3.6-4.3 3.9-6.9.8Zm139.9 139.6c1-.5 2-1 3.2-1.1.4 0 .8 0 1.2.2a7.7 7.7 0 0 1 1.4.6l.4.4.3.4.3.5.3.4.3 1.5c0 .5 0 1-.2 1.5a383 383 0 0 1-.7 1.3l-.3.4-.4.4c-5.4 2.8-10.9 5.3-16.6 7.3a225 225 0 0 1-15.6 4.9c-1.5.4-3 .5-4.4.3l-.4-.2-.5-.2-.4-.3a2.4 2.4 0 0 1-.8-.7l-.3-.5-.2-.5-.2-.6-.1-.5a3.1 3.1 0 0 1 0-1.1v-.5a9.2 9.2 0 0 1 1-2c.2 0 .3-.2.5-.3 5.8-2 11.6-3.7 17.6-5.5 5-1.4 9.9-3.5 14.6-6ZM221.7 116a7 7 0 0 0-.8.5 26 26 0 0 0-1.7 2.2c-.6.7-1 1.6-1.4 2.4l-.4 1-.2 1.3a34 34 0 0 0 .7 19.3c1 3 2.4 6 4.2 8.7a14 14 0 0 0 8.7 6.4c.4 0 .7 0 1-.2l1.1-.6.9-.6.8-1.1A161.4 161.4 0 0 0 233 144c-1.3-5.9-2.4-11.8-3.4-17.8-.6-3.3-1-6.7-1.1-10l-.7-.8-1.6-.5a4 4 0 0 0-1.5-.1l-1.5.3-.7.4-.7.5Zm-.2 10.9c.1-.3.4-.5.7-.7 1.9-.8 3.3-.2 4.1 1.8.3.7.4 1.3.3 2-.5 3.2-.2 6.4.9 9.5.5 1.4 1 3 1.3 4.5.1.5 0 1-.2 1.5-.7 1.4-1.9 2-3.4 1.7a4.9 4.9 0 0 1-2.7-3.3l-.8-2.4c-1-3-1.5-6.3-1.6-9.5 0-2 .4-3.6 1.4-5.1Zm190.3-13.1a16.4 16.4 0 0 0-3.9 4l-.8 1.8.2 8.1a144.5 144.5 0 0 1-1.5 25.2l.4.8c1 2.2 2.3 4 4 5.3 4.9.2 8.6-2 11.3-6.5 1.5-2.7 2.5-5.8 3-9.4 1-7 .9-14-.6-20.8-.7-3-2-5.8-3.9-8.2-.9-.5-1.8-.8-2.8-1-1-.2-1.9-.3-2.8 0h-1.1a253.2 253.2 0 0 1-1.5.7Zm5.5 9a3 3 0 0 1 1.4 2c.7 3.8.7 7.6 0 11.4l-1.2 7.3c-.5 2.3-1.8 3.5-4 3.4-.6 0-1.2-.2-1.6-.7a3 3 0 0 1-.8-1.6c-.2-.6-.1-1.2 0-1.8l.4-.7A63 63 0 0 0 413 124c1.1-1.9 2.6-2.2 4.3-1Zm-48.5-65.4a93 93 0 0 1-7-1.4 71.3 71.3 0 0 0-8.5-1.3c-5.8.6-11.5.4-17.2-.5a99 99 0 0 1-16.7-4.2 31.5 31.5 0 0 0-12.4-1.7 54.8 54.8 0 0 1-13.8 2.3 142 142 0 0 1-20.1-.9 229.9 229.9 0 0 1-8.8 1l-2.2.5-.2.2-.3.1a53 53 0 0 0-4.1 6c-1.1 1.4-2.1 3-3.1 4.6a75.7 75.7 0 0 1-5.1 6.8 10 10 0 0 1-.2.7v.1c-.5 1.2-.9 2.3-1.2 3.5A34.2 34.2 0 0 1 246 78v-.3c-.8 2-1.5 4.3-2.1 6.5a166.5 166.5 0 0 1-2.4 7.8c-3 5-4.7 10.6-5.1 16.6a68 68 0 0 0 1.2 18.3l3.4 17.6v.3l.3 1.5 1.4 10c.5 3.4.7 6.8.6 10.2v1a27.6 27.6 0 0 1 .7 7.7v2.1l.5 4c0 1.2.2 2.4.4 3.6v1.6a166.2 166.2 0 0 0 8.4 22.4c2.5 5 4.9 9.9 7.1 15 1.4 3.2 3.5 5.9 6 8 1.3 1.1 2.7 1.8 4.3 2.3a48.2 48.2 0 0 0 3.8.9c5.7 1.7 11.6 3.2 17.5 4.3a126 126 0 0 1 17 4.5c2.7.9 5.4 1.5 8.2 1.9a48 48 0 0 0 21-6.4c5-3.3 10-6.4 15.2-9.5l15.4-8.9c3.2-1.9 6.1-4 8.8-6.7 1-1 2-2.4 2.6-3.8a344 344 0 0 0 6.4-17c2-5.8 4.2-11.5 6.4-17.3a63 63 0 0 0 4.2-18l1-11.1c.8-6.2 1.1-12.3 1-18.4l-.4-18.4a76.4 76.4 0 0 0-1.5-13.8c-.2-1.6-.4-3.2-.8-4.8l-.5-3-.7-1.5a13.4 13.4 0 0 0-1.7-2.4c-3.6-3.4-7.2-6.7-11-9.8a34 34 0 0 1-8.3-10.4 172.3 172.3 0 0 0-3.8-6.5l-.2-.1-.2-.2h-.1l-.3-.1c-.3 0-.7-.1-1-.3Zm-32.5 31a42.3 42.3 0 0 1 13.4-1.5c3 .2 6 .7 9 1.3a32 32 0 0 1 16 9c1.2 1.1 2 2.4 2.6 3.8.3.8.3 1.6 0 2.4-.8 2.1-2.2 3-4.3 2.8a4.6 4.6 0 0 1-3.3-2 11 11 0 0 0-1.5-1.9 20.3 20.3 0 0 0-6-4.1h.3-.5V98a43.5 43.5 0 0 0-18.3-2.7l-2 .4h-.5l-2.3.5a13.6 13.6 0 0 0-4.7 2.4c-2 1.9-3.7 4.1-5 6.6-.2.4-.5.7-.9 1-1.4.8-2.8.9-4.2 0-2-1.4-2.4-3.3-1.3-5.6 1.3-3 3.2-5.5 5.5-7.7s5-3.7 8-4.6Zm-6 25v-.1c2.4-1.6 5-3 7.6-4a21 21 0 0 1 8.8-1.6c3 .1 5.9.8 8.7 2a37.5 37.5 0 0 0 5.7 2 88.5 88.5 0 0 1 8.3 4.6 6.3 6.3 0 0 1 3.3 6.5c-.1.7-.4 1.4-.8 2a30.1 30.1 0 0 1-8.2 7.6 44 44 0 0 1-8.2 3.4c-1.4.4-2.7.6-4.1.7h-4.5a31.7 31.7 0 0 1-7.1-1.5l-1.1-.5.3.1.3.1-.5-.2a29.3 29.3 0 0 1-2.5-1.2c-2.6-1.3-4.9-3-6.7-5.4-1.7-2.2-3-4.5-4-7-.2-.5-.2-1-.1-1.5.2-1.5 1-2.5 2.4-3.2.1-.5.4-1 .7-1.4.3-.5.7-.9 1.1-1.1l.5-.4Zm-53.1-27.9c3.8-.4 7.5 0 11.2 1a46.4 46.4 0 0 1 12.7 6.1l.2.2.6.4a139.7 139.7 0 0 1 2.9 2.2c.7.5 1.3 1.2 1.6 2.1l.2.5c.4 2.7-.6 4.4-3.1 5.1-1.1.3-2.1.2-3-.5L296 99a24 24 0 0 0-6.5-3.4h-.1l-.5-.2c-2.4-.9-5-1.4-7.4-1.7a26 26 0 0 0-4.1.1h-.1a1 1 0 0 1-.3 0h-.1a19 19 0 0 0-8 3l-.9.8a72.7 72.7 0 0 0-6.7 10.1c-.7 1.2-1.5 2.3-2.5 3.1a3.5 3.5 0 0 1-3.9.6l-1.3-.8a4.6 4.6 0 0 1-.5-5.3l.6-.8 1-1.7a25.9 25.9 0 0 1 1-1.3c1.9-3.4 4-6.5 6.4-9.4 2-2.5 4.6-4.2 7.6-5.1a38.9 38.9 0 0 1 7.4-1.6Zm-1.8 23.1a179.6 179.6 0 0 1 4.5-1c3.3-.6 6.7-.5 10 .2a32.7 32.7 0 0 1 11.7 4.9c2 1.2 3.8 2.7 5.2 4.6l.4 1c.3 1.3.1 2.4-.4 3.3-.1.5-.4 1-.7 1.5l-.4.6c-1 3-2.7 5.4-5.2 7.2a25.4 25.4 0 0 1-8.3 4l-5.4 1.3c-2 .4-4 .5-6.1.4a17 17 0 0 1-8.8-2.4 37.9 37.9 0 0 1-7.5-5.5c-1.5-1.5-2.8-3.1-4-5-.4-.6-.5-1.4-.4-2.3a5 5 0 0 1 .8-3.2 9.8 9.8 0 0 1 2.8-3.2l3.5-2.6c2.5-1.8 5.3-3 8.3-3.8Zm34.7 57a26.7 26.7 0 0 1 .6-14.2 15 15 0 0 1 4-6.4 2 2 0 0 1 1-.5c2.2-.4 3.7.4 4.6 2.5.5 1.3.4 2.6-.4 3.8a15.4 15.4 0 0 0-2.1 12.8 54.4 54.4 0 0 0 1.5 3l1.9.8a10.3 10.3 0 0 0 3.1.2l1-.5 1-.7.6-.7c1.8-1.6 3.6-1.6 5.5 0 .8.7 1.2 1.7 1.2 2.8 0 1.8-.7 3.2-2 4.4-2.4 2-5.1 3.1-8.1 3.1-3.2 0-6.1-.8-8.7-2.6-1.3-.9-2.3-2-3-3.4-.8-1.4-1.3-2.8-1.7-4.4Zm56.6-35.1.1-.2-.1.2-.2.1.2-.1Zm-22 64c1.8-1.8 3.6-2 5.6-.4.9.7 1.4 1.7 1.4 2.9a6 6 0 0 1-1.8 4.3c-3 3-6.5 5-10.5 6.3a55.1 55.1 0 0 1-9 1.9 57 57 0 0 1-6.3.8 504.5 504.5 0 0 1-9.7.6c-3-.3-6-.9-9-1.6a30 30 0 0 1-8.4-3.4c-2.7-1.6-5-3.8-6.6-6.6-1.4-2.3-1.2-4.4.8-6.2a3 3 0 0 1 2.4-.7c2 .2 3.4 1.3 4.3 3.3.1.4.4.7.7 1 2.3 2.2 5 3.6 8 4.3 2.7.6 5.3 1 8 1.4 1.7.2 3.4.2 5 0l4.5-.5 5.8-.8h-.2c2.8-.4 5.6-1 8.3-1.9a14.3 14.3 0 0 0 6.7-4.7Z"/><path fill="#000" d="M585.9 701.6a11 11 0 0 0-3.2 1.1 70.3 70.3 0 0 1-14.6 6.1 468.1 468.1 0 0 0-18 5.9 8 8 0 0 0-1 1.9 97.6 97.6 0 0 1-.1 1.6 97.6 97.6 0 0 1 .3 1.1 7.4 7.4 0 0 0 .8 1.3l.5.4.4.3a3.4 3.4 0 0 0 .9.4c1.5.2 3 0 4.4-.3a225 225 0 0 0 15.6-5 117.2 117.2 0 0 0 17-7.6l.3-.4.3-.4c0-.3.2-.6.4-.9l.2-1.5-.3-1.5-.3-.4-.3-.5-.3-.4-.4-.4-.4-.3-1-.3a7 7 0 0 0-1.2-.2ZM442 561c0 .8.2 1.4.7 2 2.6 3 5 2.8 6.9-.8.5-1 .4-1.8-.3-2.6-3.2-3.9-5.6-3.4-7.3 1.4Zm-195 240.2c-.4-.6-.8-1.1-1.4-1.5l-.5-.2c-.7-.3-1.3-.4-2-.3l-.6.1a3.5 3.5 0 0 0-2.1 1.6 4 4 0 0 0-.8 2l.9 7c1.1 8 3 15.8 5.9 23.4a48 48 0 0 0 13 19.5 4 4 0 0 0 2.2.6h.6c.8-.2 1.5-.5 2.2-1.2a5 5 0 0 0 1-2v-.4a4 4 0 0 0-.2-2.1c-.6-1.2-1.4-2.3-2.3-3.3a39 39 0 0 1-10.2-18.2c-2.1-8.3-4-16.6-5.7-25Zm167 36.7a12.3 12.3 0 0 0-.3 1.1 4 4 0 0 0 .3 2.3l.2.5.3.4.4.4.4.4a139.7 139.7 0 0 1 .8.5l1 .3h1.2c1.9-.7 3.5-1.9 4.8-3.6a125 125 0 0 0 11.2-18.3c3.7-7.2 7.2-14.5 10.7-21.9l.1-.5a2.8 2.8 0 0 0 0-1 81.7 81.7 0 0 0-.5-1.6 2 2 0 0 0-.2-.5 4 4 0 0 0-1.2-1l-1-.5h-.5a2.6 2.6 0 0 0-1 0 423.4 423.4 0 0 1-1.5.4l-.4.3a25.7 25.7 0 0 0-3.6 6c-2.8 6.3-5.8 12.6-9 18.8a86 86 0 0 1-12.1 17.5Zm13.3-115.8a4 4 0 0 0 .7.7l.5.3a6 6 0 0 0 1.5.5 3.2 3.2 0 0 0 1 0h.6a5 5 0 0 0 1.6-1c4.4-3.5 8.5-7.4 12.5-11.5a102.8 102.8 0 0 0 12.1-15.5v-1.1l-.1-.5a5.2 5.2 0 0 0-1-1.9 61.7 61.7 0 0 0-1.4-.8l-1.2-.4h-.7l-.6.1-.5.2c-.2 0-.3.2-.5.3-.6.4-1.1.8-1.6 1.4a138.8 138.8 0 0 1-22.9 24l-.3.5a7 7 0 0 0-.5 1.6v1.4a116.7 116.7 0 0 1 .8 1.7ZM337 758l-.3-.4c-1-.7-2-.9-3-.6-3.6 1-5.5 3.7-5.7 8-.2 4.3 1.6 6.9 5.6 7.7.8 0 1.7 0 2.5-.4a7 7 0 0 0 4.1-4c1-2.7.7-5-1-7.2l-.4-.4a2 2 0 0 0-.5-.2l-.3-.2-.1-.5-.2-.5-.2-.5a54.4 54.4 0 0 0-.5-.8Zm-213.4-31.6a2.7 2.7 0 0 0 0-1 81.7 81.7 0 0 0-.3-1l-.2-.6-.3-.5a4 4 0 0 0-.7-.8l-.5-.2-.4-.3-.5-.2h-.5a2.7 2.7 0 0 0-1.1 0h-.5l-.5.2a7.4 7.4 0 0 0-1.7 1.4l-1 1-.8.6-1 .4-2 .5h-2.2a19 19 0 0 1-4.2-1.5c-3-1.5-5.8-3.3-8.4-5.4-2.4-1.9-4.3-4.2-5.7-7l-.1-.3-.2-.5-.2-.5a153.5 153.5 0 0 1-.6-.9c-.2 0-.3-.2-.4-.3l-.5-.3a1 1 0 0 0-.4-.2l-.5-.2-.5-.1H86l-.5.3a3.4 3.4 0 0 0-.9.6 119.9 119.9 0 0 0-.7.7l-.3.5-.2.5-.2.5-.1.5c0 1.8.4 3.4 1.4 5 2.6 4.2 5.9 7.7 9.9 10.5 4.1 3 8.6 5 13.4 6.4a15.8 15.8 0 0 0 10.5-2c1.8-1 3.4-2.5 4.7-4.3a5.9 5.9 0 0 0 .4-1v-.5Zm45.3-53.8v.2-.2Zm61.8 17.3-.4-.2-.5-.2h-.6a2 2 0 0 0-.7 0h-.6l-.6.2-.6.2-.4.4c-.2 0-.3.2-.4.3a4 4 0 0 0-.6 1l-.3.4-.1.5-.1.5-.1.6v.5c.6 2 1.7 3.7 3.1 5.2 4 4 8.3 7.8 12.9 11.3a506 506 0 0 0 15.1 10.6 423.4 423.4 0 0 1 1.6 0h.6l.4-.3.5-.2a5.2 5.2 0 0 0 .8-.7l.3-.3.3-.5.3-.6a153.2 153.2 0 0 0 .3-1.3l-.1-.7-.1-.6-.1-.5c-1.7-2.2-3.7-4-6-5.5a125 125 0 0 1-13.5-9.7 72.7 72.7 0 0 1-10.4-10.4Zm3.8-136.6-1-1.1c-.8-1-2-1.5-3.2-1.6-1.1 0-2 .4-2.8 1.2l-.8 1.2c-.3.8-.4 1.5-.3 2.3 0 .6.2 1.2.5 1.7l.3.4.3.4.4.4.3.3.5.4.4.3.5.2.5.2.5.1a2.4 2.4 0 0 0 1 0l.5-.1.5-.2.4-.2.5-.3.4-.4.3-.3c.3-.4.5-.8.6-1.3.2-.6.3-1.2.2-1.8 0-.6-.2-1.2-.5-1.8Zm103.1-111.8-.2.4-.6 8.7a239 239 0 0 1-2.3 25.9 196 196 0 0 0-2 26.7v.5l.3.5.2.5c0 .2.2.3.3.5l.3.3a4 4 0 0 0 1.3 1l.5.1.5.1a2.4 2.4 0 0 0 1 0 14 14 0 0 0 1.1-.2l.5-.3a61.7 61.7 0 0 0 1-1l.4-.5c.6-3 1-6 1.2-9.2.3-8.9 1-17.8 2.2-26.7a194 194 0 0 0 1.4-26.9l-.2-.4-.3-.5a3.7 3.7 0 0 0-.7-.7l-.4-.4-.5-.2-.5-.2a423.4 423.4 0 0 0-1.6 0h-.5l-.5.2-.4.2-.4.4a3.8 3.8 0 0 0-.8.7l-.3.5Zm143.5-127-.9-.5a152.5 152.5 0 0 0-10.5-4.6h.1a128.6 128.6 0 0 0-10.7-4.2 138.7 138.7 0 0 1-13.3-5.3 87.8 87.8 0 0 1-17.1-9.2l-7.6-4.8-.3-.2a402.3 402.3 0 0 1-16.6-11.2 42.7 42.7 0 0 1-11.3-11.9 50 50 0 0 1-6.3-17.5l-.2-1.4a23790.4 23790.4 0 0 0-.9-10.8c-.3-3.2-.7-6.4-1.2-9.5v-.3c0-1.1-.3-2-.8-2.7l.6-1a76 76 0 0 0 7.2-15.1h-.1c0-.2 0-.3.2-.5v.2-.2l4.3-11.7c1-2.9 2.2-5.8 3.5-8.7a68.5 68.5 0 0 0 5-18.5c2 1.5 4.4 2.4 7.2 2.7l2.4-.1a19 19 0 0 0 10-4.9c2.8-2.6 4.9-5.8 6.3-9.5.5-1.3 1-2.6 1.3-4 1.3-6.2 2-12.5 1.9-19-.1-6.2-1.5-12-4.3-17.5a13.3 13.3 0 0 0-5.6-5.9 15.2 15.2 0 0 0-12.3-1.5c0-.6.3-1.3.5-2l2.5-9a96.2 96.2 0 0 0 2.8-18c.3-6.4-.4-12.7-2.2-19a299.5 299.5 0 0 0-8.9-25 25.9 25.9 0 0 0-7.2-9.7 45.4 45.4 0 0 0-11.3-6.9c-.8-.5-1.6-1-2.2-1.8a25.9 25.9 0 0 0-8.8-6 38.7 38.7 0 0 0-8.8-2.7c-5.8-1-11.6-2-17.3-3.3A80 80 0 0 0 332.8 0a106.4 106.4 0 0 0-27.1 2.7h-.2l-13.1 1.7c-2.2.3-4.4.4-6.6.5a193.8 193.8 0 0 0-27.7 3.2h-1.8c-3.3-.6-6.2 0-8.8 1.9a66.2 66.2 0 0 0-18 19c-3.1 5.1-6 10.4-8.5 16a104.7 104.7 0 0 0-5.5 36.5 55.5 55.5 0 0 0 4.4 15.9v-.1l.1.4.1.2.6 1.4a60.4 60.4 0 0 0 3.8 7.2 17.6 17.6 0 0 0-14.5 12.6c-2 6-2.4 12-1.3 18.3a54 54 0 0 0 6.2 17.4c3 5.6 7.5 9.3 13.4 11 2.5.7 4.9.5 7.2-.5l.2 4.7c.2 5.3.6 10.6 1.4 15.9v.2a9 9 0 0 1-.1 2c-.1.6 0 1.3.3 2 .2.6.5 1 1 1.5l1.7 5.5 2 6.2c2 4.9 4.2 9.7 6.6 14.3 2.6 5.2 5.3 10.3 8 15.3a16.8 16.8 0 0 0 3.2 4c-1 1.2-1.2 2.8-.7 4.6a171.7 171.7 0 0 0-.4 15.1 34 34 0 0 1-4.1 13.3 23.2 23.2 0 0 1-4.4 3 81 81 0 0 1-5 2.4h-.1l-.1.1h-.1a81.8 81.8 0 0 0-7.2 3.6l-2.8 1.3a157.2 157.2 0 0 1-10.8 5.6 1769 1769 0 0 0-15.2 7.4h-.3a6.5 6.5 0 0 0-.1.1 254.6 254.6 0 0 1-11.8 5.4l-.2.2h-.1a5614.3 5614.3 0 0 1-15.1 7.2l-8.6 4.3a116 116 0 0 1-8.7 4.2l-6.2 3c-3 1.5-5.8 3-8.8 4.2a161.8 161.8 0 0 0-17.5 9c-3 1.5-5.8 3.2-8.7 4.8a93 93 0 0 0-13.4 9.5 124.8 124.8 0 0 0-28.3 34c-6.2 10.2-10.9 21-14.1 32.6a241.4 241.4 0 0 0-6.6 31.5 293.3 293.3 0 0 0-2.7 35 1518.7 1518.7 0 0 1-1.4 42.6l-2.1 15a175.4 175.4 0 0 1-3 15.3c-1.8 4.5-3 9.3-4 14.2a243 243 0 0 0-3.8 35.7c-.4 12-.6 24-.5 36 .1 12.5-1.5 24.5-4.8 36.3a475 475 0 0 0-8.5 35.4 442.3 442.3 0 0 1-8.7 35.1 175.2 175.2 0 0 0-6.3 35.4c-.9 12-1.4 24-1.5 36-.2 12.3 0 24.4.3 36.6.4 12 1 24.1 2.2 36.1l2.5 28.1 2.9 36c.9 12 1.5 24 1.9 36.1a4367.6 4367.6 0 0 1 1.1 37.6l.2.5c0 .2.2.4.3.5a1548.5 1548.5 0 0 1 1.7 1.5c.1.2.3.3.5.3h2.2a5 5 0 0 0 1-.5 1548.5 1548.5 0 0 0 1.2-1.3c.2-.1.2-.3.3-.5l.2-1c.3-5.3.3-10.6 0-15.9a2697 2697 0 0 0-7-108.8l-2.2-36.2a821.5 821.5 0 0 1-.8-73c.4-12 2-23.8 4.9-35.5 2.4-10.2 4.8-20.4 7-30.7 2.6-12 5.7-23.7 9.2-35.4 3-10 5-20.3 6.4-30.7 1.4-11.9 2-23.8 2-35.8-.1-12.2.4-24.3 1.4-36.5a190.8 190.8 0 0 1 6.3-35.9c1.4-3.1 2.4-6.4 3-9.8 2.3-13.2 3.4-26.5 3.2-39.8-.2-13.5.4-26.9 1.7-40.2.8-8.2 1.8-16.4 2.9-24.6 1.7-12.3 4.8-24.1 9.5-35.6a109 109 0 0 1 8.2-16.3c4-6.5 8.3-12.7 13-18.6a91 91 0 0 1 20.4-19.2c2.6-1.8 5.3-3.5 8.2-5l9-5c2.8-1.7 5.7-3.2 8.7-4.5a268.2 268.2 0 0 0 17-8.2 979 979 0 0 1 17.9-8.6l8.8-4.4a264.8 264.8 0 0 1 15.4-7.2l8.8-4.2 8.9-4.2 8.4-4.2a385.7 385.7 0 0 0 10.9-5.4 238.7 238.7 0 0 0 13-6.6l2-1.3c0 .7 0 1.4-.2 2.2l.3-.2 1.2-1.5.1-.2.2-.2a40.2 40.2 0 0 0 6.7-16.4 89 89 0 0 0 1-18.6l.1-1.4a25.3 25.3 0 0 0 6.7 1.7h-.1c5.4 1.8 11 3.2 16.6 4.3a85 85 0 0 1 8.8 2.1c5.6 1.7 11.3 3.1 17 4.3 4.5-.1 9-.7 13.4-1.7 2.2-.5 4.3-1.2 6.3-2.3 5.4-2.9 10.8-6 16-9.3 5.2-3.3 10.5-6.4 15.8-9.5a134 134 0 0 0 9-5.4l.5 5.6a148 148 0 0 0 2.3 18.3 51.2 51.2 0 0 0 9.2 20.8c.4 1 1 1.8 1.7 2.5a78 78 0 0 0 7 6.5 96.6 96.6 0 0 0 8.9 6.3 276.3 276.3 0 0 1 14 9.3 120.2 120.2 0 0 0 26.5 14h-.1.2l.2.2h.3l.2.2 1.5.7c3.1 1.4 6.4 2.6 9.7 3.7 3.2 1.1 6.4 2.3 9.5 3.7l9.9 4.4h-.3c1.7.7 3.4 1.5 5.2 2.1 3 1.1 5.9 2.4 8.7 4l9.7 5.5a109.1 109.1 0 0 0 13 6.8l.6.6.7.7.1.1h.1a48.7 48.7 0 0 1 .5.4h-.1l1.4 1.2a17 17 0 0 0 2.8 2 74.6 74.6 0 0 0 2 1.5l-.4.2 12.3 3.7a62 62 0 0 1 29.3 18.7c4 4.6 7.6 9.5 10.8 14.8a242.4 242.4 0 0 1 16 32.7c3 7.7 5.2 15.7 6.6 23.9 1.9 11.3 2.9 22.9 3.1 34.8a2534.1 2534.1 0 0 1 .2 36.4l-.2.5-.1.5.3 1.7-.2.7c-.3.5-.3 1.2-.2 1.8 0 .7.2 1.2.5 1.8l.3.3c0 .2.2.3.3.5l.4.2c1.8 9.1 3.8 18.1 6.2 27.1a282 282 0 0 1 4.9 21.7c2.2 12 3.3 24.1 3.5 36.4l.4 36.3a1271.5 1271.5 0 0 0 .6 37.5l5.5 19.5a1475.2 1475.2 0 0 1 15.8 71c2.3 12 3.4 24.2 3.3 36.5-.1 12.2-.7 24.4-1.7 36.7-1 12-1.7 24-2 36-.4 12.1-1.2 24.1-2.6 36-1.4 12.2-1.6 24.2-.6 36.4.9 12.2 1.6 24.4 2 36.6a1922.8 1922.8 0 0 0 1.9 37.6l.3 1 .5.7c.2.4.5.7.9 1l1.3.5h.4l.5.1h.4l.9-.3c.4-.1.8-.4 1.2-.7.3-.2.6-.6.8-1l.6-1.3c-.6-6.6-.9-13.3-1-20-.1-12-.6-24-1.5-35.9-1-12.5-1.4-25.1-1.3-37.7 0-6.2.3-12.4 1-18.7 1.2-12.4 2-24.9 2.4-37.4.3-12.4 1-24.7 2.2-37.1 1-11.6 1.6-23.2 1.4-34.8-.1-8-.7-15.9-1.6-23.7-1.5-11.6-3.5-23-6-34.4-2.4-11.5-5-22.9-7.6-34.3a244 244 0 0 0-9.6-31.7l.2-.7v-.4c-.3-12.6-.6-25.2-.6-37.8 0-12.8-.2-25.5-.5-38.2-.3-12-1.5-24-3.7-35.8-1.4-7.6-3-15-4.9-22.4a3479 3479 0 0 1-7.1-29.2c.4-2.9.4-5.8.1-8.8-.5-4.2-.6-8.4-.4-12.6a381 381 0 0 0 0-33.8 134 134 0 0 0-7.1-38 258.4 258.4 0 0 0-13.8-32.8c-5.5-10.9-12.6-20.6-21.2-29.1a68.8 68.8 0 0 0-25.8-16.2 126 126 0 0 0-7.8-4.2h.2a347.6 347.6 0 0 1-15-7c-3-1.5-6-3-8.9-4.7l-8.8-5a87.5 87.5 0 0 0-9.6-4.8 355 355 0 0 1-9.1-3.9ZM377 18a67.8 67.8 0 0 0 12.7 8.2c1.6.7 3 1.7 4.2 3.1a46 46 0 0 1 7.6 13.3l3 8.7c1.7 5 3 10.2 3.8 15.4a50.9 50.9 0 0 1-2.5 26.6l-.5 1.8-.4-4c-.5-4.5-2.2-8.3-5.2-11.5-4-4.2-8.2-8.2-12.6-11.9-3-2.5-5.2-5.7-6.6-9.4a14 14 0 0 0-9-8.8 81.3 81.3 0 0 0-25.6-3.2c-5.3-.1-10.5-.7-15.6-1.8-1.9-.8-3.8-1.6-5.8-2.2a48.1 48.1 0 0 0-22.8-1.5 56.1 56.1 0 0 1-16.2 1c-6-.5-12-.5-18-.2-3.2.2-6.2 1-9 2.4-2 1-3.6 2.3-4.8 4.2a454.2 454.2 0 0 1-9.3 13.8l.2-.3c-.8.8-1.4 1.7-1.8 2.7-1 1.8-1.7 3.7-2.3 5.6-.5 1.5-1 3-1.7 4.5l-.3.8a46.2 46.2 0 0 1-6.5 18.4c-.8 1.9-1.5 3.8-2 5.8a160.8 160.8 0 0 1-3.7-7.5c-.7-1.7-1.3-3.5-1.7-5.4l-1.3-5v-4c0-4.8.5-9.6 1.4-14.3.8-4.6 1.8-9.2 3.1-13.7 1-2.8 2.1-5.4 3.6-8 2-3.6 4.3-7.1 6.6-10.5a52.9 52.9 0 0 1 14.6-14.6c1.1.2 2.3.3 3.4.2a61 61 0 0 0 8-1 105.5 105.5 0 0 1 21.7-2.4l12-1.1a2253.4 2253.4 0 0 1 16.6-2.4c5.8-.6 11.7-1 17.6-1.2 6.2-.2 12.4.4 18.5 1.8 2.3.6 4.6 1 7 1.2A48 48 0 0 1 374 16h-.1c.2 0 .3.2.5.3 1 .5 1.8 1 2.6 1.7Zm-8.9 39.1c.2.2.5.3.7.3.3.2.7.3 1 .3l.3.1c.1 0 .2 0 .3.2l.2.1.3.2.2.2 3.3 6c2 4.1 4.9 7.6 8.4 10.5a226.8 226.8 0 0 1 11.6 10.8l1 1.4c.3.4.5 1 .7 1.5l.5 3a40.2 40.2 0 0 1 1 6.5c.7 4 1.2 8 1.3 12l.4 18.5c.1 6.1-.2 12.2-1 18.4l-1 11a63 63 0 0 1-4.2 18.1 536 536 0 0 0-6.4 17.3c-2.1 6-4.2 11.6-6.4 17a12 12 0 0 1-2.6 3.8 43.6 43.6 0 0 1-8.8 6.7l-15.4 9c-5.2 3-10.2 6.1-15.2 9.4a48 48 0 0 1-21 6.4c-2.8-.4-5.5-1-8.1-1.9a126 126 0 0 0-17.1-4.5 186.4 186.4 0 0 1-21.3-5.2 11 11 0 0 1-4.2-2.3 22.1 22.1 0 0 1-6.1-8c-2.2-5.1-4.6-10-7.1-15-1-2-2-4-2.8-6a166 166 0 0 1-5.5-16.4l-.1-1.6c-.2-1.2-.4-2.4-.4-3.7a26 26 0 0 0-.5-3.9v-2.1a62 62 0 0 0-.7-7.6v-1.1c0-3.4-.1-6.8-.6-10.2a30122.3 30122.3 0 0 0-1.7-11.8c-1-6-2.2-11.8-3.4-17.6a68 68 0 0 1-1.2-18.3c.4-6 2.1-11.5 5.1-16.6l.7-2 1.7-5.8a57.7 57.7 0 0 1 2.6-7.5l1.3-3.5c.3-1.2.7-2.3 1.2-3.5v-.2l.2-.6.2-.4 1.5-1.7a75.7 75.7 0 0 0 6.7-9.8l1.9-2.7a53 53 0 0 1 2.5-3.1l2.2-.5 4.1-.5 4.7-.5 1.2.2 4.4.4c4.8.3 9.7.4 14.5.3 4.7-.2 9.3-1 13.8-2.3h5.2c2.4.3 4.8.9 7.2 1.7 5.4 1.9 11 3.3 16.7 4.2 5.7.9 11.4 1 17.2.5l2.6.4c2 .2 4 .5 6 1l6.2 1Zm1.6.3h-.1.1l.2.1.1.1h-.2l-.1-.2Zm40.4 57.7c.5-.5 1.1-1 1.7-1.3l.5-.2.5-.2.5-.2 1.1-.2a8.7 8.7 0 0 1 5.6 1 20 20 0 0 1 3.9 8.3 57 57 0 0 1 .7 20.8c-.6 3.6-1.6 6.7-3.1 9.4-2.7 4.6-6.4 6.7-11.3 6.5-1.7-1.4-3-3.1-4-5.3l-.4-.8.7-6.6c.7-6.1 1-12.3.8-18.6l-.2-8.1.8-1.9.6-.8 1.6-1.8Zm-189.2 1.4.9-.5.7-.5.7-.4 1.5-.3h1.5l1.6.6.7.7c.1 3.4.5 6.8 1 10 1 6 2.2 12 3.5 18v-.1a473.3 473.3 0 0 1 1.6 11.3l-.8 1.1-.9.6a5.9 5.9 0 0 1-2.1.8 14 14 0 0 1-8.7-6.5 38.9 38.9 0 0 1-4.2-8.6 34 34 0 0 1-.5-20.6l.4-1a26 26 0 0 1 3.1-4.6Zm43.9 114.2.1.2-.1-.2Zm-42.6-104.5c-.3.2-.6.4-.7.7a9.2 9.2 0 0 0-1.4 5 35.4 35.4 0 0 0 2.4 12 4.9 4.9 0 0 0 2.7 3.3c1.5.3 2.7-.3 3.4-1.7.3-.5.3-1 .2-1.5-.3-1.6-.8-3-1.3-4.5-1.1-3.1-1.4-6.3-1-9.5.2-.7 0-1.3-.2-2-.8-2-2.2-2.6-4.1-1.8Zm4.4 9.9-.1-.3v.2Zm192-11.2a3 3 0 0 0-1.3-2c-1.7-1.2-3.2-.9-4.3 1-.2.3-.3.7-.2 1.2a63 63 0 0 1-1.7 19.5c0 .6.3 1.1.8 1.6.4.5 1 .7 1.7.7 2 0 3.4-1.1 3.9-3.4l1.3-7.3c.6-3.8.6-7.6-.1-11.3ZM350.4 194c-2-1.6-3.8-1.4-5.6.4l-1.1 1.2a14.3 14.3 0 0 1-5.6 3.5c-2.7.9-5.5 1.5-8.3 1.9h.2l-5.8.8-4.4.5c-1.7.2-3.4.2-5.1 0-2.7-.4-5.3-.8-8-1.4-3-.7-5.7-2.1-8-4.3a3 3 0 0 1-.7-1c-1-2-2.3-3.1-4.3-3.3a3 3 0 0 0-2.4.7c-2 1.8-2.2 3.9-.8 6.2 1.7 2.8 3.9 5 6.6 6.6 2.7 1.6 5.5 2.7 8.5 3.4 3 .7 5.9 1.3 8.9 1.6h2.7l7-.6 6.4-.9h-.1 1a55 55 0 0 0 8-1.8c4-1.2 7.5-3.3 10.5-6.3a6 6 0 0 0 1.8-4.3c0-1.2-.5-2.2-1.4-3Zm16.5-63.8-.1.1-.2.2.2-.1.1-.2ZM309.4 161a19.3 19.3 0 0 0 2.4 9.2 9.5 9.5 0 0 0 3 3.3c2.6 1.8 5.5 2.7 8.7 2.6 3 0 5.7-1 8-3.1 1.4-1.2 2-2.6 2.1-4.4 0-1.1-.4-2-1.2-2.8-1.9-1.6-3.7-1.6-5.5 0l-.6.7a6.3 6.3 0 0 1-2 1.2h-.8c-.8 0-1.5 0-2.3-.2l-1.9-.8a52.9 52.9 0 0 1-1.5-3 15.4 15.4 0 0 1 2.1-12.7c.8-1.3 1-2.6.4-4-1-2-2.4-2.9-4.6-2.4a2 2 0 0 0-1 .5 15 15 0 0 0-4 6.4c-1 3-1.5 6.2-1.3 9.5Zm8.5 3.3.2.4-.1-.2-.2-.4-.1-.3a172 172 0 0 1 .2.5Zm-38.3-56.5-4.2.9c-3 .7-5.8 2-8.3 3.8a240 240 0 0 1-3.5 2.6c-1.2.9-2.1 2-2.8 3.2a5 5 0 0 0-.7 3.1l-.1.1c-.1.9 0 1.7.5 2.4 1 1.8 2.4 3.4 3.9 4.9 2.3 2.1 4.8 4 7.5 5.5a17 17 0 0 0 8.8 2.4c2 .1 4 0 6-.4l5.5-1.3c3-.8 5.8-2.2 8.3-4 2.5-1.8 4.2-4.2 5.2-7.2l.4-.6c.3-.5.6-1 .7-1.5a4.3 4.3 0 0 0 0-4.3 17.5 17.5 0 0 0-5.2-4.6h-.1v-.1l-3-1.8a32.7 32.7 0 0 0-8.5-3 25.7 25.7 0 0 0-10.4 0Zm-1.8 9 .3-.1c-.2.5-.4 1-.5 1.7a27.5 27.5 0 0 0 .4 9.5h-.3c-2-.7-4-1.8-5.6-3.2a31 31 0 0 1-3.1-3.2l.4-.3h-.1a22.2 22.2 0 0 1 8.5-4.5Zm10.4 0a4 4 0 0 0-.3-.7l.9.1a23.2 23.2 0 0 1 9.5 4.3l-1.1 2.5a12.5 12.5 0 0 1-6 3.4 18 18 0 0 0-2.6.9c0-.3 0-.6.2-1 .5-3.2.3-6.4-.6-9.5Zm.2-30.2a28.5 28.5 0 0 0-11.6-.9l-.7.1c-2.2.3-4.3.7-6.3 1.4-3 .9-5.6 2.6-7.6 5a62.2 62.2 0 0 0-6.5 9.7 25.9 25.9 0 0 0-2.5 3.6 4.6 4.6 0 0 0 .5 5.3l1.3.8c1.4.6 2.7.4 3.9-.6 1-.8 1.8-1.9 2.5-3l1.2-2.2A72.5 72.5 0 0 1 269 97a19 19 0 0 1 8-3h.9a26 26 0 0 1 3.7 0c2.5.2 5 .7 7.4 1.6l.5.2a50.5 50.5 0 0 1 6.6 3.4l4.4 3.4c.9.8 1.9 1 3 .6 2.5-.7 3.5-2.4 3.1-5l-.2-.6c-.3-.9-.9-1.6-1.6-2.1a45.5 45.5 0 0 1-3.5-2.6l-.2-.2h-.1c-1.3-1-2.6-1.9-3.9-2.6a46.4 46.4 0 0 0-8.7-3.5Zm42 26.8h-.2a2 2 0 0 0-.5.4c-.4.2-.8.6-1.1 1-.3.5-.6 1-.7 1.5a4.3 4.3 0 0 0-2.4 3.2c-.1.5 0 1 .1 1.4 1 2.6 2.3 5 4 7.1a18.9 18.9 0 0 0 7.7 6 27.7 27.7 0 0 0 14 2.6c1.5 0 2.8-.3 4.2-.7a44 44 0 0 0 10.2-4.7c2.4-1.8 4.4-4 6.2-6.3.4-.6.7-1.3.8-2 .3-2.9-.8-5-3.2-6.6l-1-.5a21.8 21.8 0 0 0-7.4-4 41.7 41.7 0 0 1-5.7-2 25 25 0 0 0-8.7-2c-3-.2-6 .4-8.8 1.5-2.7 1.1-5.2 2.5-7.6 4Zm23 14.5.4-2c.4-2.8.2-5.4-.5-8a156 156 0 0 0 6.9 2.4l.5.2 1.3.7 1.1.8.2.1v.2a9.4 9.4 0 0 1-1.5 1.7 2 2 0 0 1-.3.3v-.1l-1.9 1.2-2.7 1.3c-1.2.5-2.3 1-3.5 1.2Zm-10.2-1.1.3.7-2.1-.8-1.3-.7c-1-.5-2-1-2.8-1.8a11 11 0 0 1-2.3-2.7v-.2l.1-.7c0-.2 0-.4.3-.6a32.8 32.8 0 0 1 7.3-3.5l-.1.7c-.4 3.3-.2 6.4.6 9.6Zm2-39.9c-3 .2-6 .7-9 1.6-3 .9-5.6 2.4-8 4.6a24.9 24.9 0 0 0-5.4 7.7c-1.1 2.3-.7 4.2 1.3 5.7 1.4.8 2.8.7 4.2-.2.4-.2.7-.5.9-1a25.7 25.7 0 0 1 5.2-6.7 13.6 13.6 0 0 1 6.8-2.6l.5-.1 2-.4A43.5 43.5 0 0 1 362 98v.1l.5.2-.3-.1c2.2 1 4.2 2.4 6 4.1l1.5 1.9c.8 1.1 2 1.8 3.3 2 2 .3 3.5-.7 4.3-2.8.3-.8.3-1.6 0-2.4-.6-1.4-1.4-2.7-2.5-3.8a31.1 31.1 0 0 0-16.1-9 66.3 66.3 0 0 0-13.5-1.4Zm56.7-43v.2-.1Zm108.6 985h-7.7l.3.8c1 3.4 3.1 4.2 6.1 2.6.8-.5 1.3-1.2 1.3-2.1v-1.4Zm49.4 0c.2.4.4.8.7 1l.7.5c.7.6 1.5.8 2.5.8a4.1 4.1 0 0 0 2.2-1c.4-.4.8-.8 1-1.4h-7.1Zm-42-328.4-.1-.2.1.3Zm.2.4-.1-.1c0 .1 0 .3.2.4l-.1-.3Zm-375.3 327.9h-8.4l-.1.4-.2 2.7c.2 2.6 1.6 4 4 4 1.2.1 2.2-.4 2.8-1.5.9-1.7 1.5-3.6 1.9-5.6Zm-38.6 0h-6.1l.3.3a3.7 3.7 0 0 0 3.8 1 4 4 0 0 0 1.8-1l.2-.3Zm182.2-444.2a97 97 0 0 1-44 2.9A82.6 82.6 0 0 1 210 575a93.3 93.3 0 0 1-29.6-30.6 181 181 0 0 1-11.8-21.3v-.8c0-.9-.3-1.8-.6-2.7a143.1 143.1 0 0 1-4.6-15.5 2 2 0 0 0-.2-.5l-.3-.5-.3-.4-.5-.3-.4-.3-.4-.3-.5-.2a16.4 16.4 0 0 0-1.1-.1h-.5a423.4 423.4 0 0 1-1.3.5l-.8.5-.6.7-.2.4-.3.5-.1.5c-.2 1-.2 1.9.1 2.8a761.1 761.1 0 0 1 2.5 9.1 24 24 0 0 0-.1 1.1v.6a111.2 111.2 0 0 0 5.8 15.6 4.8 4.8 0 0 0-1 2.1l-.1.6v.5a97.6 97.6 0 0 1 .5 1.9c-.9 9.7-1.2 19.4-1 29.3.3 12.2-.4 24.3-2 36.4a329.1 329.1 0 0 0-2.8 33.7c-3.1 9.8-6.4 19.6-9.8 29.3-2 5.4-3.8 11-5.5 16.8l-10.4 34.8a23 23 0 0 0-.8 4.4l-.3 2.8c-.5 7.2-.9 14.5-1 21.8-.1 9.8-.7 19.5-1.6 29.3-1.1 12-2.6 23.9-4.5 35.7a1839.6 1839.6 0 0 1-7.2 43.6c-1.4 12-3.2 23.9-5.4 35.8-2.2 12-4.8 23.8-8 35.6a229.3 229.3 0 0 0-6.9 35.9c-1 9-1.9 18-2.6 27-1.1 12.4 0 24.4 3.5 36 .2.6.4 1.2.8 1.6h6.1c.4-.5.6-1 .8-1.6.2-1 .2-2-.1-3-1.2-3.6-2-6.5-2.2-8.8-1-8.7-1.3-17.4-.8-26.2.7-12.1 2.1-24.1 4.3-36 2.2-12.4 4.9-24.6 8.1-36.6 3.1-11.8 5.5-23.5 7-35.3a771 771 0 0 1 6.1-39.1 1543 1543 0 0 0 6.3-37c2-12.6 3.2-25.4 3.9-38.3.6-12.8.8-25.6.6-38.3 0-1.3 0-2.5.5-3.6l3-10.8c3-11.4 6.6-22.7 10.5-33.7l6.2-18a83.4 83.4 0 0 0 2.6 10.8 236.4 236.4 0 0 1 3.6 36.6 248 248 0 0 1-2.1 25.3 329 329 0 0 0-2.6 29.2l-.8 15c-.6 9.7-.9 19.4-.7 29.1.2 10 .5 19.8.9 29.7.3 6.2 1.2 11.9 2.9 17l-.4.5c-2.3 1.8-3 4.5-2.1 8.1a1135 1135 0 0 1-2.8 15.4 1382.7 1382.7 0 0 0-9.7 58l-2 14.8a2134.5 2134.5 0 0 0-5.7 44l-4.6 29.6v-.2l-.2 1.2-.3 2.2h8.4l.2-1.1a8531.6 8531.6 0 0 0 9.3-68.5c1.2-10 2.5-20 3.9-29.9v.2a1412.7 1412.7 0 0 1 3-19.9c2.6 1.7 5.5 3 8.7 3.9a147 147 0 0 0 27.5 4.9l28 2.4c7 .7 14 1.6 20.9 2.8a278 278 0 0 0 56 4.3h8.3c10.3-.7 20.6-1 30.9-1.3 10.8-.2 21.6-.4 32.4-.4 4.8 0 9.6 0 14.4-.3a565 565 0 0 1 26.7-.7c9 0 17.8-.7 26.7-2.4l26.2-4.7c4.4-.8 8.9-1.3 13.4-1.5 2.8-.1 5.5-.8 7.9-1.8l.3 3.4c.8 9.6 2.1 19 3.9 28.4 1.8 9.8 3.2 19.7 4.2 29.7 1 9.6 2 19.3 3.2 29l.3 2.2.4 2.7 1.3 10c.4 3 1 5.8 2 8.6h7.7c0-2.7-.4-5.5-1.1-8.2-1-3.9-1.7-8.3-2.3-13.2l-.1-.5v.2l-.5-4a9143.7 9143.7 0 0 0-4.4-37.7l-4.1-29a1023 1023 0 0 1-5.1-43.4c-1.1-9.6-2.7-19.2-4.7-28.6.3-2 0-3.7-1.1-4.8 0-.4 0-1-.2-1.4a4 4 0 0 0-2.2-2.8 32 32 0 0 0-.4-4v.2c-1-7.5-1.4-15.1-1-22.7a1776.3 1776.3 0 0 1 2.2-36.2c.7-7.2 1-14.4.8-21.6l-.7-28.8c-.3-10.2 0-20.4.6-30.6a628.1 628.1 0 0 1 7-63.1v-.1L495 635a91.2 91.2 0 0 1 1.7-9.3c.8 5 1.8 10 2.8 15 1.8 9.6 4.2 19 7.1 28.1 2 6.6 4.3 13 6.8 19.4l9.9 25.4c.3 6.6.7 13.2 1.3 19.8a958.3 958.3 0 0 1 3 59.6 706 706 0 0 0 5.9 35.4 1752.2 1752.2 0 0 0 21 106 497 497 0 0 1 5.6 29.6c1.4 9.3 2.1 18.8 2.1 28.6 0 5.4-.2 10.8-.5 16.2v.2-.1a236.5 236.5 0 0 1-1.6 15.4 7.3 7.3 0 0 0-.6 1.8 4.7 4.7 0 0 0 0 1.6c0 .4.2.7.4 1h7.1l.3-.5.2-.5.3-.9c.3-1.9.5-3.8.6-5.8l.9-9.3.3-1.9a187.5 187.5 0 0 0-3.3-57.6l-6-29c-2-10.2-4.3-20.3-6.6-30.5-2.2-9.4-4-18.8-5.6-28.3a1483.7 1483.7 0 0 0-7.2-39.5c-1.8-10-3.4-20.1-4.7-30.2-.2-1.6-.5-3.1-1-4.6.3-5 .3-10 .1-15-.3-9.8-1-19.7-1.8-29.5-.9-9.6-1.6-19.3-2.1-29 0-1.1-.3-2.3-.6-3.3a167.4 167.4 0 0 0-8.4-23.5 277.7 277.7 0 0 1-15.5-52c-1.9-9.3-3.3-18.7-4.3-28.2s-.8-19 .9-28.4v.4a22 22 0 0 0 .1-1.1c.9-6.7 1.5-13.5 2-20.3.5-8.2 1.7-16.2 3.6-24a99.4 99.4 0 0 0 1.6-4l-.1-.6-.1-.5v-.3a403.6 403.6 0 0 1 8.4-27.4c-.1-1-.6-1.9-1.3-2.6-1-.8-2-1.1-3.2-.9a4 4 0 0 0-2.7 1.6 214.3 214.3 0 0 0-10.1 31.7 84 84 0 0 1-3.5 6.3L483 565a45.5 45.5 0 0 1-26.4 21.4 167.7 167.7 0 0 1-37 7.2c-6.6.5-13.1 0-19.6-1.5-7.6-1.9-15.1-4.2-22.4-7.2a133.2 133.2 0 0 1-30-16.8l-.4-.2-1.2-.4h-1l-.8.3c-.3 0-.5.2-.8.3a525.7 525.7 0 0 0-1 1l-.5.8c-.2.4-.3.9-.3 1.3a4 4 0 0 0 .5 2.7 93 93 0 0 0 22.5 14.2l14 6.3a90.6 90.6 0 0 0 41.2 7.8 151.6 151.6 0 0 0 41.8-9c11.7-4.3 21-12 27.6-23.2 1.6-2.7 3.2-5.3 5-7.8l3.9-5.8c-.7 5.7-1.3 11.3-1.7 17l-1.5 14c-.9 7.2-1 14.2-.6 21.3l-.6.3c-1 .5-1.8 1.2-2.2 2.3l-1.6 6.8c-1.8 9-3.3 18-4.5 27.2a4224.6 4224.6 0 0 0-5 39.4v2.1a278.8 278.8 0 0 0-2.2 24.2 354 354 0 0 0-.6 29.7c.1 9.9.3 19.8.6 29.6.3 10 0 19.8-1 29.7-.8 9.9-1.4 19.8-1.7 29.7-.3 9 .1 18.1 1.2 27.2a428.9 428.9 0 0 0-8.4 2.3h.1a69 69 0 0 1-8.6 1c-9.6.6-19 1.4-28.5 2.5-9 1-18 1.7-26.9 2.2-5 .2-10 .2-14.9-.3a512 512 0 0 0-36.6-2.2c-4.4 0-8.8-.3-13.1-.5h.1H339.6c-5-.2-9.9-.6-14.8-1-9.3-.8-18.7-1-28-.4a1716.2 1716.2 0 0 1-35.1 1.7 378 378 0 0 1-71.3-5.7l-4.1-.8c-5.5-1.2-11-2.2-16.6-3l-.1-.8c-1.7-10.4-2.7-21-3.1-31.7-.3-10.4-.2-20.7.3-31l1.5-31.3a264 264 0 0 1 3.2-30.3c1.6-9.8 1.9-19.7.9-29.6a373 373 0 0 0-3.5-25 262.3 262.3 0 0 0-4.4-19.4c-.5-1.6-1.2-2.6-2-3.1l1.5-4.4v-.4c0-.7.2-2 .8-3.7a34.5 34.5 0 0 0 .7-3l3.9-31.1a528.1 528.1 0 0 1-.2-1.7c-.3 0-.5 0-.8.2a3665 3665 0 0 1 1.5-16.8l.5-7.1c.3-7.1.5-14.3.4-21.4 0-3 0-6 .3-8.9l.3-5.4a121.8 121.8 0 0 0 22.3 25.5c9 7.7 18.8 13.9 29.6 18.4a81.8 81.8 0 0 0 47.9 5l16.5-3.3c11.6-2 22.2-6.4 32-13.2 1.3-.9 2.7-1.6 4.1-2.2 2.7-1.1 4.2-3 4.5-5.9.2-1.7-.5-2.8-2.1-3.2a8.7 8.7 0 0 0-8.2 1.8 72.8 72.8 0 0 1-31.6 14.9ZM368 871.9l28 1.5c6.8.2 13.5 0 20.3-.8 8.8-1 17.6-1.7 26.5-2.5 8.9-.7 17.7-1.7 26.6-2.8 1.1-.1 2.3-.4 3.5-.7a110.5 110.5 0 0 0 7-2c0 .9.2 1.8.4 2.8a208 208 0 0 1 4 21.7c.8 5.7 1.5 11.4 2 17.1l-.4.3c-3.8.6-7.6 1.2-11.3 1.6-7.1.8-14.2 1.8-21.2 3.1l-21.4 4-5.2.7c-6.6.6-13.1 1-19.7 1.1l-22.7.5-28.7.2c-10.3 0-20.5.2-30.7.8-10.6.6-21.1.9-31.6 1-9.4 0-18.7-.4-28-1.5a674 674 0 0 1-20.8-2.9 543 543 0 0 0-28.2-3.4l-28.7-3a81.2 81.2 0 0 1-25.7-7.4l-1.2-1 2.3-10.6c1.7-7.8 3.2-15.6 4.4-23.5 1.2-1 1.5-2.8.8-5.4l.3-.1.9.1a61.2 61.2 0 0 1 4.6.7h-.3l-.5-.1c8.8 2.3 17.7 4 26.7 5.3a464.6 464.6 0 0 0 80.9 3.4c9.3-.6 18.5-1 27.8-1.2 9.3-.3 18.7 0 28 1l6.8.5L368 872Zm-27.5-10h-.3H340.5Zm-144-563h.2a36.6 36.6 0 0 0-.1 0Zm61.9-63.2-.2-.3h-.1.1l.2.3Z"/><path fill="#fff" d="m287.9 116 .3.7c.9 3 1 6.3.6 9.5l-.2 1 .3-.2 2.4-.7c2.3-.6 4.2-1.7 5.9-3.4l1.1-2.5-3.3-2a23.2 23.2 0 0 0-7.1-2.4Zm-9.8.6h-.3a22 22 0 0 0-8.5 4.5l-.2.2-.1.1c.9 1.1 2 2.2 3.1 3.2a15.4 15.4 0 0 0 5.9 3.2l-.3-1a27.4 27.4 0 0 1 .4-10.2Zm65.4 10.8-.3-.7a26.2 26.2 0 0 1-.5-10.3l-1.5.5c-2 .8-4 1.8-5.8 3l-.3.6a5.5 5.5 0 0 1-.1.9 11 11 0 0 0 5.1 4.5l1.3.7 2 .8Zm10.3-1.7-.4 2.1c1.2-.3 2.3-.7 3.5-1.2l2.7-1.3 2-1.2h-.1s.2 0 .3-.2l.3-.2 1.3-1.5-.1-.2h-.1l-.1-.1a8 8 0 0 0-1.1-.8l-1.3-.7c-.2 0-.4 0-.5-.2l.2.1c-2.4-.7-4.8-1.6-7.1-2.4.7 2.5.9 5 .5 7.8Z"/><path fill="#87441D" d="m383 22.5-6-4.5a14.9 14.9 0 0 0-3.1-2h.1a48 48 0 0 0-16.6-4.4 47 47 0 0 1-7-1.2c-6.1-1.4-12.3-2-18.5-1.8a209.6 209.6 0 0 0-22 1.8l-12.2 1.7-12 1.2a245.5 245.5 0 0 1-15.1 1.2l-6.6 1.2c-2.7.5-5.3.9-8 1-1.1.1-2.3 0-3.4-.2a13.8 13.8 0 0 0-3.8 2.7l-.6.6c-4 3.3-7.3 7-10.2 11.3-2.3 3.4-4.5 7-6.6 10.5a42.7 42.7 0 0 0-3.6 8c-1.3 4.5-2.3 9.1-3.1 13.7a81.3 81.3 0 0 0-1.4 18.2l1.3 5.1a37.7 37.7 0 0 0 3.2 8.7l2.2 4.2a45.5 45.5 0 0 1 4-10 192.4 192.4 0 0 0 4.5-14.2c0-.3.2-.6.3-.8l1.7-4.5c.6-2 1.4-3.8 2.3-5.6.4-1 1-2 1.8-2.7l-.2.3.4-.4c3-4.4 6-8.8 8.9-13.4 1.2-1.9 2.8-3.3 4.8-4.2 2.8-1.4 5.8-2.2 9-2.4 6-.3 12-.3 18 .2 5.4.5 10.8.1 16.2-1a48.1 48.1 0 0 1 28.6 3.7c5.1 1.1 10.3 1.7 15.6 1.8a81.3 81.3 0 0 1 25.5 3.3 14 14 0 0 1 9 8.7c1.5 3.8 3.7 6.9 6.7 9.4 4.4 3.7 8.6 7.7 12.6 11.9 3 3.2 4.7 7 5.2 11.5 0 1.3.2 2.6.4 4l.5-1.8a50.9 50.9 0 0 0 2.4-26.6c-.8-5.2-2-10.4-3.7-15.4l-3-8.7a46 46 0 0 0-7.6-13.3 10.7 10.7 0 0 0-4.2-3.1 48 48 0 0 1-6.7-3.7Zm18.9 21.3v.2-.2Z"/><path fill="#CCC" d="M308.6 927.7a278.9 278.9 0 0 1-64.3-4.2c-7-1.2-13.9-2.1-20.8-2.8l-28.1-2.4a147 147 0 0 1-27.5-5c-3.2-.8-6-2.1-8.7-3.8a309.6 309.6 0 0 0-3 20v-.3a3028.3 3028.3 0 0 0-6 44.9 3164.7 3164.7 0 0 0-7.4 54.6h360a56 56 0 0 1-2-8.6 1007.3 1007.3 0 0 1-1.7-12.7l-.3-2.2c-1.2-9.7-2.2-19.4-3.2-29-1-10-2.4-19.9-4.2-29.7a288.2 288.2 0 0 1-4.2-31.8c-2.4 1-5 1.7-7.9 1.8-4.5.2-9 .7-13.4 1.5-8.8 1.5-17.5 3-26.2 4.7-8.9 1.7-17.8 2.5-26.7 2.4-9 0-17.8.3-26.7.7l-14.4.3a1422.8 1422.8 0 0 0-63.3 1.6Zm87.4-54.3a3588.1 3588.1 0 0 1-59.3-3.5 219 219 0 0 0-28-1c-9.3.2-18.5.6-27.8 1.2-9.5.7-19 .9-28.4.6a464.5 464.5 0 0 1-52.5-4 216.2 216.2 0 0 1-28-5.5 60 60 0 0 0-2.5-.4l-1-.1-.2.1c.7 2.6.4 4.4-.8 5.4-1.2 8-2.7 15.7-4.4 23.5l-2.3 10.6 1.2 1c0 .2.2.3.3.4 8 3.7 16.5 6 25.4 7l28.7 3c9.4.9 18.8 2 28.2 3.4l20.8 2.9c9.3 1 18.6 1.6 28 1.5 10.5-.1 21-.4 31.6-1 10.2-.6 20.4-.9 30.7-.8a1310.6 1310.6 0 0 0 71.1-1.8l5.2-.7 21.4-4c7-1.3 14-2.3 21.2-3.1a207.8 207.8 0 0 0 11.8-1.9l-2-17.1c-1-7.3-2.4-14.5-4.1-21.7-.2-1-.4-2-.4-2.8l-2.1.6a111 111 0 0 1-8.4 2.1c-8.9 1.1-17.7 2-26.6 2.8l-26.5 2.5c-6.8.7-13.5 1-20.3.8Z"/><path stroke="#000" stroke-linecap="round" stroke-linejoin="round" stroke-width="10" d="M642.1 1028.7h0H567m-56.5 0h49.4m-417 0h359.9m-398.6 0h30.2m-36.3 0H27.7m70.4 0h6.1m30.2 0h8.4m360 0h7.7m49.4 0h7.1"/></g><defs><clipPath id="a"><path fill="#fff" d="M0 0h663v1024H0z"/></clipPath></defs></svg>