<svg xmlns="http://www.w3.org/2000/svg" width="663" height="1024" fill="none"><g clip-path="url(#a)"><path fill="#DE9E71" d="M462.8 323.8a237.2 237.2 0 0 1-31.2-18.3 143 143 0 0 0-15.2-9.2l-.2-.1h-.1l-.2-.1a59.4 59.4 0 0 1-4.8-2.3h.7a30.5 30.5 0 0 1-2.7-2.2 47.6 47.6 0 0 1-5.1-4.9 58 58 0 0 1-6-5.7 51.5 51.5 0 0 1-10.9-23.3c-1.1-6.1-2-12.2-2.3-18.4l-.4-5.6v-.3c-3 2-6 4-9 5.7-5.4 3-10.7 6.2-16 9.6-5.1 3.3-10.4 6.4-15.9 9.2-2 1.1-4 1.9-6.3 2.4-4.4 1-8.9 1.5-13.4 1.7a192 192 0 0 1-17-4.3c-3-.9-5.8-1.6-8.8-2.2a131 131 0 0 1-16.6-4.3h.1-.2c-2.3-.3-4.5-.8-6.5-1.6a16.4 16.4 0 0 1-.2 1.7 89.2 89.2 0 0 1-1.8 22.4l-1 3.2-.2-.5a26.5 26.5 0 0 1-6.6 8.5c-6 4.6-12 9-18.2 13.2a41.2 41.2 0 0 1-5.5 3.3l-18 9.3a157 157 0 0 1-19.3 8.6 467.6 467.6 0 0 1-36.5 12.3c-6.3 2-12.6 3.9-19 5.7a114.2 114.2 0 0 0-16.6 6.5 791.1 791.1 0 0 0-3.8 2.4 123.7 123.7 0 0 0-20 15.4 66 66 0 0 0-11.2 14 301 301 0 0 0-16.3 30.9A202.4 202.4 0 0 0 69 439.6c-3.3 12.6-6 25.4-8 38.3-2 12.6-3.8 25.3-5.7 37.9-1.9 13-3 26-3.3 39.2a893.6 893.6 0 0 1-5.4 79.3c-.5 4.3-.4 8.5.3 12.6a4.5 4.5 0 0 1-.8 2.6c0 10-1 19.8-3.3 29.7-2.7 12-6.3 23.6-10.6 35a166.3 166.3 0 0 0-9 36.2c-1.6 12.3-3 24.6-4 37-.9 12-1.2 24.1-1 36.2l.4 37c.1 12.7.6 25.5 1.6 38.3 1 12 1.8 24.2 2.4 36.7.7 12.6 1.5 25.3 2.5 38 .7 9.3 1 18.7 1 28l-.3 24v6.3h72a75.5 75.5 0 0 1-5.6-32.8c.6-12.4 2-24.7 4-37 2-11.8 4.3-23.9 6.6-36.1 2.4-12.3 5-24.4 8-36.4 3.1-12 6-24 8.4-36.2 2.6-12.3 4.5-24.6 5.8-37.1a1827.1 1827.1 0 0 1 4.4-39.3v.2-.5l.2-.6-.1.5 4-37.8c1.5-11.7 3.6-23.3 6.5-34.6a6460.2 6460.2 0 0 0 10.8-43l2-7.4c0-.6 0-1.1.2-1.7l.5-1.6.3-.8.5-4.3c1.1-9.8 2.4-19.5 3.7-29.3a2724 2724 0 0 0 4-29.3c1.3-9.9 2-19.7 2-29.6 0-3 .1-6.1.5-9.2l-.2-.5c-.4-2.6.5-4.3 2.7-5a340.9 340.9 0 0 1-17-33.5 7 7 0 0 1-.4-2.3c0-1.2.5-2.2 1.3-3 1-.8 2-1.1 3.3-1 1 .2 1.8.6 2.4 1.4a613 613 0 0 0 12.8 26.3c1.6 3.1 3.4 6.2 5.2 9.2 5 8.6 11.3 16 18.6 22.5a83.3 83.3 0 0 0 24.6 15 78 78 0 0 0 28.6 5.5c10.5 0 20.8-1.2 31-3.5 4.7-1 9.3-2.8 13.6-5 6.2-3.4 12.4-6.5 18.6-9.3 3.7 1 4.5 3.3 2.5 6.7-.5 1-1.3 1.8-2.3 2.4-8 4.8-16.3 8.7-25 11.7-8 2.9-16.2 4.5-24.6 5-7.4.3-14.8.3-22.3 0a98.1 98.1 0 0 1-27-7.3 85 85 0 0 1-23.8-15.5c-5.2-4.7-9.8-10-13.9-15.7a4.1 4.1 0 0 1-1 1.3c0 8-.3 16-1 23.9-1 9.6-2 19.3-3.4 28.8l-4.1 28.3c-1.4 9.3-2.4 18.5-3.2 27.8a972.7 972.7 0 0 1-1.7 20.6c-1 9.5-1.5 19-1.6 28.7 0 9.3-.2 18.7-.4 28a1546.5 1546.5 0 0 0-.6 60.4c0 10-.2 20.1-.4 30.1 0 6.5-.4 13-.8 19.4 6 2 12.1 3.3 18.5 3.7l8.3.6c7.4.6 14.8 1.7 22.1 3.2 7.2 1.4 14.5 2.5 21.7 3.3a454.8 454.8 0 0 0 22.5 2c5.8.3 11.7.7 17.5 1.2 7.4.6 14.8.8 22.2.8 3.3 0 6.5 0 9.8.3 7.2.7 14.3 1 21.5 1.1 8.9.1 17.7.1 26.5 0 7.2-.2 14.3-.5 21.4-1a523.6 523.6 0 0 1 50.3-1.3 468.5 468.5 0 0 0 52.4-4c5.5-.6 11-1.6 16.3-2.7.3-7.7.5-15.5.4-23.3A223.5 223.5 0 0 1 488 802l.1-.6v-.5.1c1.5-9.6 2.5-19.3 3.1-29 .7-10.1 1.1-20.2 1.3-30.3.2-9.7.6-19.4 1.3-29.1.8-10 1.5-20 2-30a469.6 469.6 0 0 0 1-27 8 8 0 0 1-.8-4.4l.2-.5.3-.6.3-.4.1-.3c0-8.2 0-16.5-.3-24.8l-.8-21c-.4-10 0-20 1.2-30 1.2-9.4 2.7-18.7 4.5-28a151.6 151.6 0 0 1-18 25.3 79.2 79.2 0 0 1-48.4 26v-.1h-.8l-.1.1c-2.4.3-4.7.5-7.1.6h-1.4c-9.3.4-18.3-1-27-4.3-8.3-3-16.4-7-24.4-11.9a15.8 15.8 0 0 1-5.7-6.2c-.3-1.4 0-2.6.7-3.7.9-1.1 2-1.7 3.3-1.6a3.7 3.7 0 0 1 3.3 2c7.3 5.2 15.1 9.5 23.4 12.7 9.4 3.7 19 5.2 29.1 4.6a72.3 72.3 0 0 0 51.8-26.8 182 182 0 0 0 15.8-23.5l10.5-18 1-5.5a75.6 75.6 0 0 1 7.1-20.4c.3-.5.6-.7 1.1-.8 3-.4 4.8 1 5.1 4.2-2 6.1-3.7 12.3-5.3 18.6 1.2 1.7 1.1 3.6-.2 5.7l-1.7 2.8-.2.8a982 982 0 0 0-6 31.4c-1.8 9.7-3 19.5-3.7 29.4-.7 10-.5 19.9.5 29.8.5 4.9.7 9.8.6 14.8l-.4 20.9a359 359 0 0 1 12.3 32c3.8 11.3 7.2 22.7 10.2 34.2 2.7 10.3 4.3 21 4.6 31.8.4 12.3 1.2 24.6 2.5 36.9a290 290 0 0 0 6.2 36.5c2.9 12 5.3 24.1 7.2 36.4a982.9 982.9 0 0 0 14.6 73.3c2.9 12.1 5 24.4 6.5 36.7 1.6 12.5 1.6 25-.1 37.6a62 62 0 0 1-8.3 24h78.6a515.6 515.6 0 0 0 2.6-14.8 110.8 110.8 0 0 0 .7-3.9v-.3a234 234 0 0 0 2-37.9c-.3-12.6-.4-25.3-.4-38 0-12.2-.1-24.4-.4-36.6a846 846 0 0 1 0-35.6c.3-13.1.4-26.3.2-39.4 0-11.3-1-22.5-3-33.8-1.8-11.7-3.4-23.8-4.6-36.2a5792.7 5792.7 0 0 1-3.5-38.2l-1.8-13v.2l-1.6-8.9a139.1 139.1 0 0 1-1.9-13.2c-1-5.8-2.2-11.5-3.4-17.3a266.1 266.1 0 0 1-3.8-23.6 98 98 0 0 1 .2-1l.2-.4.2-.4-1-14.6c-.6-6.3-1-12.6-1.2-19a52.2 52.2 0 0 0-.4-5v.5a1103 1103 0 0 1-1.7-36.4c-.3-9-.8-18-1.7-27l-3-28.8c0-.5.3-.9.5-1.3a1470 1470 0 0 0-8.6-41c-2.6-12-5.4-24.1-8.2-36.2-1-4.6-2.4-9.2-4-13.7a386.4 386.4 0 0 0-5-13.2c-5.4-10.8-12-20.8-20-29.9a112.6 112.6 0 0 0-34.2-26.6c-10.9-5.3-22.3-9.2-34-11.6a149.3 149.3 0 0 1-35.2-12ZM230.1 558.4c-1 .3-2 .2-3-.4-3.6-2-4.1-4.6-1.6-7.7.8-.8 1.7-1.1 2.7-.9 3.9 1 5.2 3.3 4 7-.4 1-1 1.6-2 2Zm106 201.2a6 6 0 0 1 0 6.7 4.6 4.6 0 0 1-4.5 2.3c-.5 0-1-.2-1.4-.4a4 4 0 0 1-3.7-2 6.2 6.2 0 0 1-.4-6l1-1.3a6.1 6.1 0 0 1 1.7-1.5c1.2-.4 2.4-.5 3.7-.2a6.3 6.3 0 0 1 3.6 2.4Zm-226.5-49 .3.4.2.5.2.5v2a117.4 117.4 0 0 0-.7 1.7 112.3 112.3 0 0 0-1.2 1l-.4.3-.5.2a19.8 19.8 0 0 1-1 .1h-.6l-.5-.1-.5-.2-.5-.2a529 529 0 0 0-16.5-6.8c-5.4-2.2-10.6-4.7-15.7-7.7a14 14 0 0 1-4.5-4.2c0-.2 0-.4-.2-.5a880.5 880.5 0 0 0 0-1.4v-.6l.2-.7.2-.6.3-.4.4-.4a3.9 3.9 0 0 1 .8-.7c.2 0 .3-.1.5-.3l.5-.1.5-.1h1.5l.5.2c4.8 3.5 9.9 6.3 15.2 8.5a998 998 0 0 0 17 6.7c1.7.7 3.2 1.6 4.5 2.9Zm323.5 116c-2.6 6.3-4.8 12.8-6.7 19.4a34 34 0 0 1-6.9 13c-.6.7-1.3 1-2.3 1-1 0-1.8-.5-2.5-1.2-1.6-2.8-1.3-5.5 1-8.2.3-.5.7-1 .9-1.7l5.2-14.9a130.2 130.2 0 0 1 3.4-9c3.8-7.9 7-16 9.5-24.3 1.1-3.3 3-4.1 6-2.4 1.3.8 1.8 2 1.5 3.5-.8 4.2-2 8.2-3.5 12a394.2 394.2 0 0 1-5.6 12.8Zm-183.4 17.2a4 4 0 0 1 3.2 2.6c.6 1.3.5 2.7-.3 4a3.8 3.8 0 0 1-4 1.8 36 36 0 0 1-16.5-16.5 1065 1065 0 0 0-5.4-10.7c-3.6-7-6.3-14.4-7.9-22.1 0-.5 0-.9.3-1.3 2.5-3 4.7-2.8 6.8.5.5.8 1 1.8 1.3 2.7 2.7 7.6 5.8 15 9.4 22.2a58.3 58.3 0 0 0 11 15.2l2 1.6Zm195.2-281.2c-1.4 1.9-3.1 2.3-5.2 1.3a1 1 0 0 1-.4-.2l-.3-.1c-3.6-1-4.5-3.2-2.8-6.6.5-1 1.2-1.6 2.3-1.7 3.9-.4 6.2 1.3 7 5 .1.8 0 1.6-.6 2.3ZM560.8 732a38 38 0 0 1-4.4 1.4 16.7 16.7 0 0 0-1.1-.2c-.2 0-.3 0-.5-.2l-.5-.2-.4-.3-.4-.4-.3-.4-.3-.4a6 6 0 0 1-.4-1l-.1-.7v-.7l.3-1.2.5-1.1c6.4-3.1 13-6.1 19.6-9a88 88 0 0 0 17.4-9.9c1.3-.9 2.6-1.6 4-2.1l1 .1c.4 0 .8.2 1 .3l.5.2c.2 0 .3.2.4.3l.4.4c.2 0 .3.2.4.3 0 .2.2.3.3.5l.3 1.3c.1.4.2.8.1 1.3v.6l-.2.6-.3.4-.2.5a83.8 83.8 0 0 1-19.3 12l-17.8 7.6ZM228.6 124 227 126c-.6.7-1 1.6-1.4 2.4 0 .4-.2.7-.4 1 .2-.3 0 .2-.2 1.4-1.6 6.4-1.4 12.9.7 19.2 1 3.1 2.5 6 4.2 8.8a14 14 0 0 0 8.7 6.5c.4 0 .8-.1 1-.3a6 6 0 0 0 1.1-.5l1-.7.7-1a167.4 167.4 0 0 0-1.6-11.4c-1.2-6-2.4-11.9-3.4-17.9-.6-3.3-1-6.7-1-10a5 5 0 0 1-.8-.8l-1.6-.5c-.5-.2-1-.2-1.5-.2l-1.5.4-.7.4a183.2 183.2 0 0 0-1.6 1Zm-.8 15.5c0-1.9.5-3.6 1.4-5.1.2-.3.4-.5.7-.6 2-.8 3.3-.2 4.1 1.8.3.6.4 1.2.3 2-.5 3.2-.2 6.4 1 9.4.5 1.5 1 3 1.2 4.6.2.5.1 1-.2 1.4-.7 1.5-1.8 2.1-3.4 1.8a4.9 4.9 0 0 1-2.7-3.3l-.8-2.4c-1-3.1-1.5-6.3-1.6-9.6Zm200-18c-1-.4-1.9-.8-2.9-1-.9-.2-1.8-.2-2.8 0l-1.1.2-.5.2a75 75 0 0 0-1 .3 16.5 16.5 0 0 0-3.9 4c-.2.7-.4 1.4-.8 1.9l.2 8.1a145.9 145.9 0 0 1-1.5 25.3l.4.8c1 2.2 2.3 4 4 5.4 5 .2 8.7-2 11.3-6.6 1.5-2.7 2.6-5.8 3-9.4 1.1-7 .9-14-.6-20.8-.7-3.1-2-6-3.9-8.3Zm-7.3 11.1c0-.5 0-.9.2-1.2 1.2-1.8 2.6-2.2 4.3-1a3 3 0 0 1 1.4 2c.7 3.8.7 7.5 0 11.3-.3 2.5-.7 5-1.2 7.3-.5 2.4-1.8 3.6-4 3.5-.6 0-1.1-.2-1.6-.7a3 3 0 0 1-.8-1.6v-1.8l.4-.7a63.7 63.7 0 0 0 1.3-17.1Zm-57-70.2-2.5-.4a67 67 0 0 1-17.2-.5c-5.7-1-11.2-2.4-16.7-4.3a31.4 31.4 0 0 0-12.4-1.7 54.6 54.6 0 0 1-13.8 2.4 141.6 141.6 0 0 1-20.1-.9 230.8 230.8 0 0 1-8.8 1c-.7 0-1.4.2-2.2.4l-.2.3-.3.1-2 2.8-1.9 2.7v.1l-.2.2v.1c-1 1.5-2.1 3-3.1 4.7a76.4 76.4 0 0 1-4.9 6.4c0 .2 0 .3-.2.4a12 12 0 0 1-.2.7v.1l-1.2 3.5-1.3 3.6-.5 1.2V85c-.8 2.2-1.5 4.3-2.1 6.6a169.7 169.7 0 0 1-2.4 7.8c-3 5.1-4.6 10.6-5 16.6-.5 6.2 0 12.4 1.1 18.4a630.8 630.8 0 0 1 3.7 19.5l1.4 10c.5 3.4.7 6.8.6 10.2v1.1a27.8 27.8 0 0 1 .7 7.7v2.1c.3 1.3.4 2.6.5 4 0 1.2.2 2.4.4 3.7v1.5a166.5 166.5 0 0 0 8.4 22.5c2.6 5 5 10 7.1 15 1.5 3.2 3.5 6 6 8.1a11 11 0 0 0 4.3 2.2 47.8 47.8 0 0 0 3.8 1c5.8 1.7 11.6 3.2 17.5 4.3 5.8 1.1 11.5 2.6 17 4.5 2.8.9 5.5 1.5 8.2 2a48 48 0 0 0 21-6.5c5-3.3 10-6.5 15.2-9.5l15.4-9c3.2-1.8 6.2-4 8.8-6.7 1-1 2-2.3 2.6-3.8 2.2-5.4 4.3-11 6.4-17 2-5.8 4.2-11.6 6.4-17.4a63.5 63.5 0 0 0 4.2-18l1-11.2c.8-6.2 1.1-12.3 1-18.5 0-6.1-.2-12.3-.4-18.4a77 77 0 0 0-1.5-13.8c-.1-1.7-.4-3.3-.8-5l-.5-3a6 6 0 0 0-.7-1.4 13.6 13.6 0 0 0-1.7-2.4 228 228 0 0 0-11-9.9 34 34 0 0 1-8.3-10.4 176.4 176.4 0 0 0-3.8-6.5l-.2-.1-.2-.2-.4-.1-1-.3a71 71 0 0 0-13-2.4Zm-49.4 42.5.2.6c.4 2.7-.6 4.4-3.1 5-1 .4-2 .2-3-.5a211 211 0 0 1-4.4-3.4 24.1 24.1 0 0 0-6.5-3.5l-.6-.2c-2.4-.9-4.9-1.4-7.4-1.7a26 26 0 0 0-4.1.1 18.9 18.9 0 0 0-8.4 3l-1 .8c-2 2.6-3.8 5.2-5.5 8l-1.2 2.2c-.6 1.2-1.5 2.2-2.5 3a3.5 3.5 0 0 1-3.9.7c-.5-.2-.9-.5-1.3-.9a4.6 4.6 0 0 1-.5-5.3l.6-.7 1-1.7a25.7 25.7 0 0 1 1-1.4c2-3.3 4-6.5 6.4-9.4 2-2.5 4.6-4.2 7.6-5.1 2-.7 4.2-1.1 6.3-1.4l.7-.1h.4c3.8-.5 7.5-.2 11.2.9a46.3 46.3 0 0 1 12.7 6.1l.2.2.6.4.4.4c.2 0 .3.2.4.3l2 1.5c.9.5 1.4 1.2 1.7 2.1Zm17.7 9c-2-1.6-2.4-3.5-1.3-5.8a25 25 0 0 1 5.5-7.7c2.3-2.1 5-3.7 8-4.6a42.2 42.2 0 0 1 13.4-1.5c3 .2 6 .7 9 1.3a32 32 0 0 1 16 9c1.2 1.1 2 2.4 2.6 3.9.3.8.3 1.6 0 2.3-.7 2.2-2.2 3.1-4.3 2.8a4.6 4.6 0 0 1-3.3-2 20.4 20.4 0 0 0-7.6-6l.4.1-.5-.1a43.4 43.4 0 0 0-18.3-2.7l-2 .3h-.5l-2.3.6a13.6 13.6 0 0 0-4.7 2.3c-2 2-3.7 4.1-5 6.6-.2.4-.5.7-.9 1-1.3 1-2.7 1-4.2.2Zm-25.5 4.3a18 18 0 0 1 3 2c2 1.1 3.8 2.7 5.2 4.6.2.3.4.6.4 1 .3 1.3.2 2.4-.4 3.3-.1.5-.3 1-.7 1.5l-.4.6c-1 3-2.7 5.4-5.2 7.3a25.3 25.3 0 0 1-8.3 4l-5.4 1.2c-2 .5-4 .6-6 .4a17 17 0 0 1-9-2.3 37.9 37.9 0 0 1-7.4-5.6c-1.5-1.4-2.8-3-4-5-.3-.6-.5-1.4-.4-2.2v-.1a5 5 0 0 1 .8-3.2 9.8 9.8 0 0 1 2.8-3.2l3.5-2.6c2.6-1.8 5.3-3.1 8.3-3.8a179.7 179.7 0 0 1 4.5-1c3.4-.6 6.7-.6 10 .1 3 .6 6 1.6 8.7 3Zm26.9 8.8c.3-1.6 1-2.7 2.4-3.3l.7-1.5c.3-.4.7-.8 1.1-1l.5-.4h.2-.1c2.4-1.7 5-3 7.6-4.1a21 21 0 0 1 8.8-1.6c3 .2 6 .8 8.7 2a36.9 36.9 0 0 0 5.7 2c2.8.9 5.3 2.2 7.5 4l.9.6a6.3 6.3 0 0 1 3.2 6.6c-.1.7-.4 1.4-.8 2a30.3 30.3 0 0 1-8.2 7.6 44 44 0 0 1-8.2 3.4c-1.3.4-2.7.7-4.1.8h-4.5a31.2 31.2 0 0 1-7.1-1.6l-1-.4h.2l.3.2a18.8 18.8 0 0 1-9.7-6.8c-1.7-2.2-3-4.6-4-7.2-.1-.4-.2-.9-.1-1.3Zm-9.8 25c2.2-.4 3.7.5 4.6 2.6.6 1.3.4 2.6-.4 3.8a15.5 15.5 0 0 0-2 12.8 48.2 48.2 0 0 0 1.5 3c.5.4 1.2.7 1.8.9a10.2 10.2 0 0 0 3.1.2l1-.5 1-.8.6-.7c1.8-1.6 3.7-1.6 5.5 0 .8.8 1.2 1.7 1.2 2.9 0 1.7-.7 3.2-2 4.4-2.4 2-5 3.1-8.1 3.1-3.2 0-6-.8-8.7-2.6-1.2-.9-2.2-2-3-3.4a19.4 19.4 0 0 1-2.4-9.2c-.1-3.3.3-6.4 1.3-9.5a15 15 0 0 1 4-6.4 2 2 0 0 1 1-.5Zm50.8-13.9.2-.1.1-.1-.1.1-.2.1ZM358 201.7c1 .8 1.4 1.8 1.4 3 0 1.6-.6 3-1.8 4.2-3 3-6.4 5.2-10.5 6.4a55 55 0 0 1-9 1.9l-6.3.8a506 506 0 0 1-9.7.7c-3-.4-6-1-9-1.7a30 30 0 0 1-8.4-3.4c-2.7-1.6-4.9-3.8-6.6-6.6-1.4-2.4-1.1-4.4.8-6.2a3 3 0 0 1 2.4-.8c2 .2 3.4 1.3 4.3 3.3.2.4.4.8.7 1 2.3 2.3 5 3.7 8 4.4 2.7.5 5.4 1 8 1.3 1.7.3 3.4.3 5 0 1.6 0 3-.3 4.5-.4l5.8-.8h-.2c2.8-.4 5.6-1 8.3-2a14.3 14.3 0 0 0 6.7-4.6c1.8-1.9 3.7-2 5.6-.5Z"/><path fill="#000" d="M556.4 733.5c1.5-.4 3-.8 4.4-1.4l17.8-7.6A83.7 83.7 0 0 0 598 712l.3-.4.2-.6v-1.9l-.4-1.3-.3-.5-.4-.3c0-.2-.2-.3-.4-.4a110.8 110.8 0 0 0-.8-.5l-1-.3-1.1-.1c-1.4.5-2.7 1.2-4 2.1a88 88 0 0 1-17.4 10c-6.7 2.8-13.2 5.8-19.6 8.9l-.5 1-.4 1.3v.7l.2.7.2.5.2.5.3.4c0 .2.2.3.3.4l.4.4.4.3.5.2.5.2.5.1.6.1ZM439.7 564c2 1 3.8.6 5.2-1.3.5-.7.7-1.5.5-2.3-.7-3.7-3-5.4-6.9-5-1 .1-1.8.7-2.3 1.7-1.7 3.4-.8 5.6 2.8 6.6l.3.1.4.2ZM252.9 846.4a4 4 0 0 0-3.2-2.6c-.8-.5-1.5-1-2.1-1.6a58.4 58.4 0 0 1-11-15.2 191 191 0 0 1-9.4-22.2c-.3-1-.8-1.9-1.3-2.7-2-3.3-4.3-3.4-6.8-.5-.3.4-.4.8-.3 1.3 1.6 7.7 4.3 15 7.9 22l5.4 10.8a36 36 0 0 0 16.5 16.5c1.7.2 3-.4 4-1.9.8-1.2.9-2.6.3-4Zm173.5-.4a173 173 0 0 1 6.5-18.8c2-4.4 4-8.9 5.8-13.4 1.6-3.9 2.7-7.8 3.5-12 .3-1.5-.2-2.7-1.5-3.5-3-1.7-4.9-1-6 2.4-2.6 8.3-5.7 16.4-9.5 24.3l.1-.3c-1.3 3-2.4 6.1-3.5 9.3l-5.2 15c-.2.6-.6 1.1-1 1.6-2.2 2.7-2.5 5.4-1 8.2.8.7 1.6 1.1 2.6 1.2 1 0 1.7-.3 2.3-1 3.2-3.7 5.5-8 7-13ZM110 711l-.3-.4a13.8 13.8 0 0 0-4.5-2.9L88 701c-5.3-2.2-10.4-5-15.2-8.5-.1 0-.3 0-.5-.2h-2l-.5.2-.5.3a5 5 0 0 0-1.2 1c0 .2-.2.4-.3.5a3 3 0 0 0-.2.6l-.2.7V696.9a1386 1386 0 0 0 .2 1.2 14 14 0 0 0 4.5 4.2c5 3 10.3 5.5 15.7 7.7 5.6 2.2 11 4.4 16.5 6.8l.5.2.5.2.5.1h1a14.4 14.4 0 0 0 1-.3 6.5 6.5 0 0 0 1.3-.9l.4-.4a7.4 7.4 0 0 0 .5-1l.2-.7V712.7a31 31 0 0 1-.2-1.2l-.2-.5ZM336 766.3a6 6 0 0 0-.2-7 6.3 6.3 0 0 0-7-1.9l-.4.2-1.4 1.3-1 1.4-.4 1.5c-.2 1.6 0 3 .8 4.3a4 4 0 0 0 3.7 2c.4.3.9.5 1.4.5 2 .1 3.4-.6 4.5-2.3ZM227 558c1 .6 2 .7 3 .4 1-.4 1.7-1 2-2 1.3-3.7 0-6-3.9-7-1-.2-2 0-2.7.9-2.5 3-2 5.6 1.5 7.7ZM441 137.6c0-6.3-1.5-12.1-4.3-17.6a13.3 13.3 0 0 0-5.6-6 15.1 15.1 0 0 0-12.3-1.4l.5-2 2.5-9a97 97 0 0 0 2.8-18.1c.4-6.5-.4-12.8-2.2-19a301.2 301.2 0 0 0-8.9-25.2 26 26 0 0 0-7.2-9.7 45.5 45.5 0 0 0-11.3-7c-.8-.4-1.5-1-2.2-1.7a25.9 25.9 0 0 0-8.8-6.1 38.6 38.6 0 0 0-8.8-2.7c-5.8-1-11.5-2-17.3-3.3A79.8 79.8 0 0 0 340.5 7l-9.8.3a106 106 0 0 0-17.3 2.4h-.2l-13 1.7-6.7.6a193.2 193.2 0 0 0-27.7 3.1H264c-3.3-.6-6.2 0-8.8 2a66.3 66.3 0 0 0-18 19c-3.1 5.1-6 10.5-8.5 16L227 57a105.3 105.3 0 0 0-3.8 31.8 55.8 55.8 0 0 0 4.4 16v-.2l.1.4.1.2.6 1.4a60.7 60.7 0 0 0 3.8 7.3c-.8 0-1.6.2-2.4.4-6 1.9-10 6-12 12.2-2 6-2.5 12.1-1.4 18.4 1.1 6.2 3.2 12 6.2 17.4 3 5.6 7.5 9.3 13.4 11.1 2.5.7 5 .5 7.2-.5l.2 4.7c.2 5.3.7 10.6 1.4 16v.2l-.1 1.9c-.1.7 0 1.4.3 2 .2.6.5 1.1 1 1.5l1.7 5.6a68 68 0 0 0 2 6.2c2 4.9 4.2 9.7 6.6 14.4l8 15.3a16.9 16.9 0 0 0 3.2 4c-1 1.2-1.2 2.8-.7 4.6a172.9 172.9 0 0 0-.3 11.3l-1 8.7c-.3 2.4-1.1 4.4-2.6 6a63.4 63.4 0 0 1-8.3 7.4 161.3 161.3 0 0 1-20.6 13.2l-17.6 9.2c-5.8 2.9-11.7 5.3-17.7 7.4a1358 1358 0 0 1-20.5 6.8c-6.3 2-12.7 4-19 5.8a263.2 263.2 0 0 0-29 10.2 23 23 0 0 0-5.2 2.8l-2.6 1.5a79.3 79.3 0 0 0-27 24 231.7 231.7 0 0 0-40.2 101.6l-6 36.6A412.6 412.6 0 0 0 44 548a743 743 0 0 1-5.4 84.1c-.7 3.9-.8 7.6-.3 11.1-.3 2-.4 4-.5 6a163 163 0 0 1-5.5 36.4A623.7 623.7 0 0 1 21.5 721c-3.9 11.6-6.5 23.6-7.8 35.9a761.2 761.2 0 0 0-3 36.9c-.7 12.3-.9 24.7-.5 37 .3 12.4.6 24.8.7 37.3.2 12.4.8 24.8 1.8 37.2a1002 1002 0 0 1 2.1 36c.6 12.4 1.3 24.7 2.3 37 .5 6.2.8 12.5.9 18.8a392.6 392.6 0 0 1-1.9 38l-.1.6-.1.5a3.8 3.8 0 0 0 0 1.1v.5l.2.5.2.4.3.5.3.4.3.3.4.3.4.3.4.2.4.2h.5a2.8 2.8 0 0 0 1 0h.6a2.9 2.9 0 0 0 .9-.5l.4-.3.4-.3a37 37 0 0 0 3-14.3c.3-8 .4-16 .4-23.9 0-9.3-.3-18.7-1-28-1-12.7-1.8-25.4-2.5-38-.6-12.5-1.4-24.7-2.4-36.7-1-12.8-1.5-25.6-1.6-38.4 0-12.3-.2-24.6-.4-36.9-.2-12 .1-24.1 1-36.1a684 684 0 0 1 4-37.1c1.8-12.9 4.8-25 9-36.1 4.3-11.5 7.9-23.2 10.6-35.1a135.3 135.3 0 0 0 3.6-30c.4-.7.5-1.5.5-2.3-.7-4.1-.8-8.3-.3-12.6a976.7 976.7 0 0 0 5.4-79.3c.3-13.2 1.4-26.2 3.3-39.2l5.7-37.9c2-12.9 4.7-25.7 8-38.3 3-11.4 6.9-22.5 11.7-33.1 4.9-10.7 10.3-21 16.3-31a66 66 0 0 1 11.2-14 123.7 123.7 0 0 1 28.4-20l1.6-.6c3.4-1.3 6.9-2.5 10.4-3.6a1695 1695 0 0 0 38.7-12 466.3 466.3 0 0 0 18.5-6.6c6-2.3 12-5 17.6-8l18-9.3c2-1 3.8-2 5.5-3.3A452 452 0 0 0 265 285c1.2-1 2.2-2 3.2-3.1 1.4-1.7 2.5-3.5 3.4-5.4l.2.5a47.2 47.2 0 0 0 2.4-11.4 89.1 89.1 0 0 0 .5-14.6l.1-1.3a25.4 25.4 0 0 0 6.7 1.6h-.1c5.5 1.8 11 3.3 16.6 4.3 3 .6 5.9 1.3 8.8 2.2 5.6 1.7 11.3 3.1 17 4.3 4.5-.2 9-.7 13.4-1.7 2.2-.5 4.3-1.3 6.3-2.4 5.5-2.8 10.8-6 16-9.2 5.2-3.4 10.5-6.5 15.8-9.6a134.3 134.3 0 0 0 9-5.4l.5 5.6c.4 6.2 1.2 12.3 2.3 18.4a51.5 51.5 0 0 0 9.2 20.9c.4.9 1 1.7 1.7 2.4a124.5 124.5 0 0 0 6 5.7 14 14 0 0 0 3.7 3.8 52.7 52.7 0 0 0 4.1 3.3h-.8a58.6 58.6 0 0 0 5 2.3h.2a30.3 30.3 0 0 0 1 .5c5 2.6 9.8 5.6 14.4 8.9a229.3 229.3 0 0 0 31.2 18.3c11.3 5.5 23 9.5 35.1 12 11.8 2.4 23.2 6.3 34.1 11.6 5.6 2.7 11 6 16 9.6 6.7 5 12.8 10.6 18.3 17a145.7 145.7 0 0 1 20 30.2c1.7 4.3 3.4 8.6 4.9 12.9 1.6 4.5 3 9 4 13.7A2810.5 2810.5 0 0 1 612 508l-.5 1.3 3 28.9c.9 9 1.4 18 1.7 27 .4 12.1 1 24.2 1.8 36.3v-.3l.3 4.9c.2 6.3.6 12.6 1.1 19a1171.4 1171.4 0 0 1 1 14.9l-.3.4v.5l-.2.5.8 6.8c.8 5.6 1.8 11.2 3 16.8a1085.9 1085.9 0 0 1 3.9 20.8c.4 3.2.8 6.5 1.4 9.7l1.6 9v-.2a499.3 499.3 0 0 1 2.2 16.4l3.1 34.7c1.2 12.4 2.8 24.5 4.7 36.2 1.8 11.3 2.8 22.5 3 33.8.1 13.1 0 26.3-.3 39.4-.2 11.9-.2 23.8 0 35.6.3 12.2.4 24.4.4 36.7 0 12.6.1 25.3.4 38a234 234 0 0 1-2 37.8v.3-.3l-.7 4.2a313.8 313.8 0 0 0-3 18l.1.6.1.5.3.4.2.4.3.5.3.3.4.3.4.3.4.2.5.2h.5a2.1 2.1 0 0 0 1 0h.5l.4-.2.4-.2.4-.3c.2 0 .3-.2.4-.3l.3-.3c.2-.2.3-.3.3-.5l.3-.4.2-.4.7-3.8c.5-3.1 1-6.3 1.7-9.5a147.4 147.4 0 0 0 3-26c.5-12 .6-24.1.5-36.2l-.4-38.7c0-5.4-.2-10.8-.4-16.3-.4-11.5-.5-23 0-34.5.4-12.8.7-25.6.7-38.5a219.2 219.2 0 0 0-3-37.8l-1-6.4a69 69 0 0 0-.6-5.2v.4c-1-6.4-1.9-12.8-2.4-19.3l-3-34.3a401 401 0 0 0-4.8-35v-.4l-1-6.1c-.7-6-1.8-12-3-18l-3.6-17.8a73 73 0 0 1-.8-7.7c-.2-7.5-.7-15-1.3-22.5-1-12.9-1.7-25.7-2-38.5-.4-11-1.1-22-2.2-32.9a613.8 613.8 0 0 1-2-27.3c.4-.4.8-1 1-1.5a5 5 0 0 0 .3-1.9l-2.1-11.4c-.8-5.2-1.8-10.3-2.9-15.4-2.5-12.2-5.2-24.3-8-36.4l-4.1-18.5a209.4 209.4 0 0 0-10.4-34.5l-.1-.4c-2.4-6.2-5.4-12-9.2-17.3A230.5 230.5 0 0 0 559 355a112 112 0 0 0-29.6-18.5c-10.7-4.6-21.7-8-33.1-10.2a137.6 137.6 0 0 1-51.4-21.8c-5-3.4-10-6.8-15-10.4a306.8 306.8 0 0 1-17.8-11.7 42.8 42.8 0 0 1-11.4-11.9 50.2 50.2 0 0 1-6.3-17.6l-.2-1.4-.2-2-.7-8.8c-.3-3.2-.7-6.4-1.2-9.5v-.3c0-1.2-.2-2-.8-2.8l.6-1c3-4.7 5.4-9.8 7.2-15.2v-.4.2l.1-.2 4.3-11.7c1-3 2.3-5.9 3.5-8.8a69 69 0 0 0 5-18.6c2 1.5 4.4 2.5 7.2 2.8.8 0 1.6 0 2.4-.2a19 19 0 0 0 10-4.8c2.8-2.7 5-5.9 6.3-9.6.6-1.3 1-2.6 1.3-4 1.4-6.2 2-12.6 1.9-19ZM384.7 25a67.5 67.5 0 0 0 12.7 8.2c1.7.7 3 1.7 4.2 3.1 3.2 4 5.8 8.4 7.6 13.3l3 8.8c1.7 5 3 10.2 3.8 15.4a51.2 51.2 0 0 1-2.5 26.8l-.5 1.7-.4-4c-.5-4.5-2.2-8.3-5.2-11.5-4-4.3-8.2-8.2-12.6-12-3-2.5-5.2-5.6-6.6-9.4a14 14 0 0 0-9-8.8 81.1 81.1 0 0 0-25.6-3.3c-5.3 0-10.5-.6-15.6-1.7a48 48 0 0 0-28.6-3.8 56 56 0 0 1-16.2 1c-6-.5-12-.5-18-.1-3.1.2-6.1 1-9 2.3-2 1-3.6 2.4-4.8 4.3a457.9 457.9 0 0 1-9.3 13.8l.2-.3c-.7.8-1.3 1.7-1.8 2.7-.9 1.8-1.6 3.7-2.3 5.7-.5 1.5-1 3-1.7 4.5l-.3.8-1 2.8-1.6 6a46.5 46.5 0 0 1-4 9.6l-2 5.8a163.6 163.6 0 0 1-3.6-7.5c-.7-1.7-1.2-3.5-1.7-5.4a80 80 0 0 0-1.3-5v-4.1c0-4.8.5-9.5 1.4-14.3.8-4.6 1.9-9.2 3.1-13.7a43 43 0 0 1 3.6-8c2.1-3.6 4.3-7.2 6.6-10.6a53 53 0 0 1 14.6-14.7c1.2.3 2.3.4 3.4.3 2.7-.2 5.4-.5 8-1a105.2 105.2 0 0 1 21.7-2.4l12-1.2a2233 2233 0 0 1 16.6-2.3c5.9-.7 11.7-1.1 17.6-1.3a70 70 0 0 1 18.5 1.9c2.3.5 4.7 1 7 1.1 5.8.5 11.4 2 16.6 4.4h-.1l.5.3c1 .5 1.8 1.1 2.6 1.8ZM361 61.9c.9 0 1.7.2 2.6.4 2 .2 4 .5 6 1a92.8 92.8 0 0 0 7 1.3l.9.3.3.1c.2 0 .2 0 .3.2l.2.1.3.2.2.2 3.3 6.1c2.1 4 5 7.5 8.4 10.4A227.6 227.6 0 0 1 402 93l1 1.5.7 1.4.5 3a40.7 40.7 0 0 1 1 6.7c.8 4 1.2 8 1.3 12l.4 18.5a137 137 0 0 1-1 18.5l-1 11.1a63.4 63.4 0 0 1-4.2 18.1l-6.4 17.4c-2 6-4.2 11.6-6.4 17a12 12 0 0 1-2.6 3.8 43.7 43.7 0 0 1-8.8 6.7l-15.4 9c-5.1 3-10.2 6.2-15.2 9.5a48 48 0 0 1-21 6.4c-2.7-.4-5.4-1-8.1-1.9-5.6-1.9-11.3-3.4-17-4.5a185.9 185.9 0 0 1-21.4-5.3 11 11 0 0 1-4.2-2.2 22.2 22.2 0 0 1-6-8.1c-2.3-5-4.6-10-7.2-15-1-2-2-4-2.8-6a167 167 0 0 1-5.5-16.5l-.1-1.5-.4-3.7c0-1.4-.2-2.7-.5-4v-2.1a62.4 62.4 0 0 0-.7-7.7v-1c0-3.5 0-6.9-.6-10.3l-1.4-10-.2-1.5-.1-.4c-1-5.8-2.2-11.7-3.4-17.6-1.2-6-1.6-12.2-1.2-18.4.5-6 2.2-11.5 5.1-16.6l.7-2 1.7-5.8c.6-2.3 1.3-4.4 2.2-6.6l-.1.3.5-1.2c.5-1.2 1-2.4 1.3-3.6l1.2-3.5v-.2l.2-.6.2-.4a76.4 76.4 0 0 0 8.2-11.6l2-2.6a52.6 52.6 0 0 1 2.4-3.2l2.2-.4 4.1-.5 4.7-.5 1.2.2 4.4.3c4.9.4 9.7.5 14.5.4 4.7-.2 9.3-1 13.8-2.4l5.2.1c2.5.3 4.9.8 7.2 1.6 5.5 2 11 3.3 16.7 4.3a67 67 0 0 0 17.2.5Zm16.3 2.6.1.1.2.1.1.1h-.2l-.1-.2h-.1Zm47.6 56c1 .1 2 .5 2.8 1 2 2.4 3.2 5.2 3.9 8.3 1.5 6.8 1.7 13.8.7 20.8-.5 3.6-1.6 6.7-3.1 9.4-2.6 4.6-6.4 6.8-11.3 6.6-1.7-1.4-3-3.2-4-5.4 0-.3-.2-.6-.4-.8l.7-6.6c.7-6.2 1-12.4.8-18.7 0-2.7 0-5.4-.2-8.1.4-.5.6-1.2.8-1.9l.6-.8a16.4 16.4 0 0 1 3.3-3.2l.5-.1.5-.2.5-.2 1.1-.2c1-.2 2-.2 2.8 0ZM227 126a26 26 0 0 1 1.7-2.2l.9-.5.7-.5.7-.4 1.5-.4c.5 0 1 0 1.5.2l1.6.5.7.7c.2 3.4.5 6.8 1 10.1l3.5 18v-.1a474.9 474.9 0 0 1 1.6 11.3l-.8 1.1c-.2.3-.5.5-.9.7a6 6 0 0 1-1 .5c-.3.2-.7.3-1 .3a14 14 0 0 1-8.8-6.5 39 39 0 0 1-4.2-8.8 34.2 34.2 0 0 1-.5-20.6l.4-1c.4-.8.8-1.7 1.4-2.4Zm45.6 112.4.1.2-.1-.2Zm-43.3-104.2a9.3 9.3 0 0 0-1.4 5.1 35.6 35.6 0 0 0 2.4 12 4.9 4.9 0 0 0 2.7 3.3c1.6.3 2.7-.3 3.4-1.8.3-.5.4-1 .2-1.4-.3-1.6-.7-3.1-1.3-4.6-1-3-1.4-6.2-1-9.5.2-.7.1-1.3-.2-2-.8-2-2.2-2.5-4-1.7-.4.1-.6.3-.8.6Zm5 9.2v-.2.2Zm186.5-12.2c-.2.3-.3.7-.2 1.2a63.7 63.7 0 0 1-1.7 19.6c0 .6.4 1.1.8 1.6.5.5 1 .7 1.7.7 2.1 0 3.4-1.1 3.9-3.5l1.3-7.3c.6-3.8.6-7.5-.1-11.3a3 3 0 0 0-1.4-2c-1.7-1.2-3.1-.8-4.3 1Zm-61.3 73.4c0-1.2-.5-2.2-1.4-3-2-1.5-3.8-1.4-5.6.5l-1.1 1.2a14.3 14.3 0 0 1-5.6 3.5c-2.7.9-5.5 1.5-8.3 1.9h.2l-5.8.8-4.4.5c-1.7.2-3.4.2-5 0l-8-1.4c-3.1-.7-5.8-2.1-8.1-4.4a3 3 0 0 1-.7-1c-.9-2-2.3-3-4.3-3.3a3 3 0 0 0-2.4.8c-2 1.8-2.2 3.8-.8 6.2 1.7 2.8 4 5 6.6 6.6a30 30 0 0 0 8.5 3.4c3 .7 6 1.3 9 1.7l2.6-.1 7-.6a57 57 0 0 0 6.4-.9H339c2.8-.5 5.4-1 8-1.8 4-1.2 7.6-3.3 10.5-6.4a6.1 6.1 0 0 0 1.8-4.2Zm15-66.8-.2.1h.2l.1-.2ZM328 154.5c-.9-2.1-2.4-3-4.6-2.5a2 2 0 0 0-1 .5 15 15 0 0 0-4 6.4 26.9 26.9 0 0 0-.6 14.3c.4 1.5 1 3 1.7 4.4a9.5 9.5 0 0 0 3 3.4c2.6 1.8 5.5 2.7 8.7 2.6 3 0 5.7-1 8-3.1 1.4-1.2 2.1-2.7 2.1-4.4 0-1.2-.4-2.1-1.2-2.9-1.8-1.6-3.7-1.6-5.5 0l-.6.7a6.4 6.4 0 0 1-2 1.3h-.8c-.7 0-1.5 0-2.3-.2-.6-.2-1.3-.5-1.9-.9a52 52 0 0 1-1.5-3 15.5 15.5 0 0 1 2.1-12.8c.8-1.2 1-2.5.4-3.8Zm-2.4 17.2.2.5-.1-.2c0-.2 0-.3-.2-.5l-.1-.3v.1l.2.4Zm10-48.1a4.3 4.3 0 0 0-2.4 3.2l.1 1.4c1 2.6 2.3 5 4 7.2a18.9 18.9 0 0 0 7.7 5.9 27.7 27.7 0 0 0 1.7.8l-.3-.1 1 .4A31.7 31.7 0 0 0 359 144c1.5 0 2.9-.3 4.2-.7a44 44 0 0 0 10.2-4.7c2.4-1.8 4.5-3.9 6.2-6.3.4-.6.7-1.3.8-2 .3-2.9-.7-5-3.2-6.6l-1-.6a21.8 21.8 0 0 0-7.4-4 41.7 41.7 0 0 1-5.7-2 25 25 0 0 0-8.7-2c-3 0-6 .4-8.8 1.6-2.6 1-5.2 2.5-7.6 4v.1a2 2 0 0 0-.6.3c-.4.3-.8.7-1 1.1-.4.5-.6 1-.8 1.5Zm14.8.2-.1.7a26.3 26.3 0 0 0 .9 10.3l-2-.8h-.1l-1.3-.7a11 11 0 0 1-5.1-4.5v-.2l.1-.7.3-.6a32.8 32.8 0 0 1 7.3-3.5Zm17.7 4-.2-.2.5.3 1.3.6 1.1.8.2.1v.1c.1 0 .1.1 0 .1a9.5 9.5 0 0 1-1.5 1.7 2 2 0 0 1-.3.3v-.1c-.5.5-1.2.9-1.9 1.2l-2.7 1.3c-1.1.5-2.3 1-3.5 1.2l.4-2c.4-2.8.3-5.4-.5-8 2.3 1 4.7 1.8 7 2.5Zm-59-7.8a32.7 32.7 0 0 0-11.5-4.9 25.7 25.7 0 0 0-10.3 0l-4.2.9c-3 .7-5.7 2-8.3 3.8l-3.5 2.6c-1.1.9-2 2-2.8 3.2a5 5 0 0 0-.7 3.2c-.2.9 0 1.7.4 2.4a23 23 0 0 0 4 4.9 38 38 0 0 0 7.4 5.6 17 17 0 0 0 8.8 2.3c2 .2 4 0 6-.4 2-.3 3.7-.8 5.5-1.3 3-.8 5.8-2.1 8.3-4 2.5-1.8 4.3-4.2 5.2-7.2l.4-.6c.4-.5.6-1 .7-1.5a4.4 4.4 0 0 0 0-4.3 17.5 17.5 0 0 0-5.2-4.7v.1l-.1-.1Zm-12.6 3.5a23.1 23.1 0 0 1 9.5 4.4c-.4.7-.8 1.5-1 2.4a12.5 12.5 0 0 1-6 3.5 18.2 18.2 0 0 0-2.7.8l.2-1a22.3 22.3 0 0 0-.9-10.2l.9.1Zm-11 .5h.3c-.2.5-.4 1-.5 1.7a27.6 27.6 0 0 0 .4 9.5h-.3c-2-.7-3.9-1.7-5.6-3.2a31 31 0 0 1-3.1-3.1v-.1l.4-.3a22.2 22.2 0 0 1 8.4-4.5Zm45-16c-1.1 2.3-.7 4.2 1.3 5.8 1.5.8 2.9.7 4.2-.2.4-.3.7-.6.9-1a25.8 25.8 0 0 1 5.2-6.7 13.6 13.6 0 0 1 6.8-2.7l.5-.1 2-.3a43.4 43.4 0 0 1 18.3 2.6l.5.2h-.3c2.3 1 4.3 2.3 6 4 .6.6 1.1 1.3 1.5 2 .9 1 2 1.8 3.3 2 2.1.2 3.6-.7 4.3-2.9.3-.7.3-1.5 0-2.3-.6-1.5-1.4-2.8-2.5-3.9a31.2 31.2 0 0 0-16-9 66.1 66.1 0 0 0-13.6-1.4c-3 .2-6 .7-9 1.6-3 .9-5.6 2.5-8 4.6a25 25 0 0 0-5.4 7.7Zm-16.2-2.6c0-.2 0-.4-.2-.6-.3-.9-.8-1.6-1.6-2l-2-1.6-.5-.3-.4-.4-.6-.4-.2-.2a46.3 46.3 0 0 0-12.6-6 28.4 28.4 0 0 0-11.7-1h-.7c-2.1.4-4.2.8-6.3 1.5-3 .9-5.5 2.6-7.6 5a62.4 62.4 0 0 0-6.5 9.7 26 26 0 0 0-2.5 3.6 4.6 4.6 0 0 0 .5 5.3c.4.4.8.7 1.3.9 1.4.6 2.7.4 3.9-.6 1-.9 1.9-1.9 2.5-3.1l1.2-2.1a72.8 72.8 0 0 1 6.4-9c2.5-1.5 5.2-2.5 8-2.8h.4l.5-.1a26 26 0 0 1 3.7 0c2.5.2 5 .7 7.4 1.6l.5.2a50 50 0 0 1 6.6 3.5l4.4 3.4c1 .7 2 .9 3 .6 2.5-.7 3.5-2.4 3.1-5.1Zm95.3-54.5v.2-.1c0-.1 0-.1 0 0Zm101.3 982.2v-1.2h-7.8l1.2 3.7c1.1 1 2.3 1.3 3.7 1 1.8-.5 2.7-1.6 2.9-3.5Zm45 2.3.6-.1.5-.2a6 6 0 0 0 1.8-1l1.4-2.2h-8.8v.3l.2.5.2.4.3.4.2.4.4.3.4.4.4.2.4.3h.5l.4.2h1.2Zm62-434.2v-.2a19.5 19.5 0 0 1 0 .2Zm-491 435.6c.9-1.5 1.4-3.1 1.7-5h-8.4l-.2 2.7c.3 2.5 1.6 3.9 4 4 1.3 0 2.3-.5 3-1.7Zm-20.1-3.6-.1-.6-.1-.6-.1-.1h-8.7a91.3 91.3 0 0 0 1.6 3.6l.3.4.4.4a5 5 0 0 0 .8.6l.4.2.5.2.5.1a2.8 2.8 0 0 0 1 0l.4-.1.5-.1c.2 0 .3-.2.4-.3l.4-.2.4-.4.4-.3.2-.4.3-.4.2-.4.2-.5v-1.1ZM309.7 574c1-.6 1.8-1.4 2.3-2.4 2-3.4 1.2-5.6-2.5-6.7-6.2 2.8-12.4 6-18.6 9.2-4.3 2.3-8.9 4-13.7 5.1a144.7 144.7 0 0 1-30.9 3.5 78 78 0 0 1-28.6-5.5c-9-3.5-17.2-8.5-24.6-15a93.8 93.8 0 0 1-18.6-22.5c-1.8-3-3.6-6-5.2-9.2-4.5-8.7-8.7-17.4-12.8-26.3a3.8 3.8 0 0 0-2.4-1.3c-1.2-.2-2.3 0-3.3 1-.8.7-1.2 1.7-1.3 3 0 .7.1 1.4.4 2.2a341.3 341.3 0 0 0 17 33.5c-2.2.7-3.1 2.4-2.7 5l.2.4v.1c-.4 3-.6 6.1-.6 9.2 0 9.9-.6 19.7-2 29.6A2699 2699 0 0 1 158 616a1080.8 1080.8 0 0 0-4.5 34.4 8 8 0 0 0-.5 1.6 6 6 0 0 0-.2 1.7 203.1 203.1 0 0 0-4.3 16.2 6340 6340 0 0 1-8.5 34.2 264 264 0 0 0-6.4 34.6c-1.5 12.6-2.8 25.2-4.1 37.8v-.5a47.3 47.3 0 0 1 0 1.1v-.2l-.4 2.8c-1.5 12-2.8 24.1-4.1 36.5a375.4 375.4 0 0 1-5.8 37 888.3 888.3 0 0 1-8.3 36.3c-3 12-5.7 24.1-8 36.4-2.4 12.2-4.6 24.3-6.7 36.1a298.1 298.1 0 0 0-4 37 75.5 75.5 0 0 0 5.7 32.8h8.7a98 98 0 0 1-3.6-9.9c-1-3.5-1.8-7-2.3-10.6-1.4-11.8-1-23.6 1.3-35.4 2.4-12.2 4.5-24.5 6.4-36.8 1.8-12.1 4.4-24 7.6-35.8a481.2 481.2 0 0 0 14.7-74.1l4.7-35.7c1.6-11.8 3-23.7 4.2-35.6 1.3-12.2 2.9-24.4 4.8-36.5a284 284 0 0 1 5.2-24.6l-.2 8-.8 29.3a667 667 0 0 0-.2 29.4 1111.4 1111.4 0 0 1-.8 59.5c-.2 8-.3 16-.2 24-.7.4-1.3 1-1.8 2a1028 1028 0 0 1-12 107.1v.1l-1.3 9.2a415.4 415.4 0 0 1-8.2 45.9c-1.7 6.7-3 13.5-3.8 20.5h8.4v-.7c.9-7.7 2.2-15.3 4.1-22.7 2-7.5 3.5-15 4.8-22.6 1.4-8 2.6-16 3.5-24a1114.4 1114.4 0 0 0 4.7-46l.7-7.9c4.4 1.7 9 2.9 13.6 3.5a180 180 0 0 1 21.2 4.3 194.3 194.3 0 0 0 20 4.1l20.3 3.4a277 277 0 0 0 22.2 2.8c7.3.6 14.5 1.4 21.8 2.3 7.3 1 14.6 1.6 21.9 2 7.3.4 14.7.7 22 .9A607 607 0 0 0 363 929l21.5-1.9 21.5-1.8 22-2a1139.4 1139.4 0 0 1 42.3-3.6c6.7-.3 13.4-.9 20-1.8.3 4.7.7 9.3 1.2 14 .5 4 .8 8 1 12.2.4 7.2 1 14.4 2 21.6a560.2 560.2 0 0 0 4.1 24v-.1a4844 4844 0 0 0 1 7v-.5l.6 5.4c.5 5.8.8 11.5 1 17.2 0 4.6.6 9 1.9 13.2h7.8c0-1.8-.3-3.7-1-5.6 0-.8 0-1.6-.2-2.3l-1-14c-.2-4.7-.6-9.4-1.2-14.1v-.4l-.1-.4-1-6.2c-1.2-7.7-2.6-15.3-4-23l-.6-6c-.3-8-1-16-1.8-24.1-.8-7.4-1.5-14.8-1.9-22.3l-1.4-23.6c-.4-6-.5-12-.4-18v-11.2c-.2-2.4-1-4-2.4-4.8.3-7.8.4-15.6.3-23.5-.1-7.6.3-15.2 1.3-22.8a405 405 0 0 0 2.8-27.6l1.7-29 1.9-31.2A1054.7 1054.7 0 0 0 504 673l.7 1.7c3.7 9.9 7.4 20.5 11 31.8 3 9 4.9 18.1 5.9 27.5 1.3 12.4 2.4 24.8 3.3 37.3 1 12.6 2.5 25.2 4.7 37.7l6 31.2a760 760 0 0 1 6.4 36.7 429 429 0 0 0 7 36.3 1715 1715 0 0 1 8.4 36.8c2.6 12 4.1 24.3 4.6 36.8a83.8 83.8 0 0 1-8.2 40.4l-.4.2a1 1 0 0 0-.4.3l-.4.3-.4.3-.2.5-.3.4-.2.4c0 .2 0 .3-.2.5v.5a3 3 0 0 0 0 1v.3h8.8a61.9 61.9 0 0 0 8.3-24c1.7-12.5 1.7-25 .1-37.6a342.6 342.6 0 0 0-6.5-36.7 1132.6 1132.6 0 0 1-14.6-73.3c-2-12.3-4.3-24.4-7.2-36.4-2.8-12-4.9-24.2-6.2-36.5a504.5 504.5 0 0 1-2.5-37c-.3-10.8-1.9-21.4-4.6-31.7a578 578 0 0 0-10.2-34.1 359 359 0 0 0-12.3-32.1l.4-20.9c0-5-.1-10-.6-14.8-1-10-1.2-19.9-.5-29.8.7-9.9 1.9-19.7 3.6-29.4a984.4 984.4 0 0 1 6.3-32.2l1.7-2.8c1.3-2 1.4-4 .2-5.7 1.6-6.3 3.3-12.5 5.3-18.6-.3-3.2-2-4.6-5-4.2-.6 0-1 .3-1.2.8a75.6 75.6 0 0 0-8.1 25.9l-10.5 18c-4.7 8.3-10 16.2-15.8 23.5a72.3 72.3 0 0 1-51.8 26.7c-10 .7-19.7-.8-29.1-4.5a110.7 110.7 0 0 1-23.6-13c-.7-1.1-1.8-1.7-3-1.7-1.4 0-2.5.5-3.4 1.6-.8 1.1-1 2.3-.7 3.7l.5 1c1.3 2.1 3 3.9 5.2 5.2 8 5 16 9 24.3 12a70.4 70.4 0 0 0 27.1 4.2h1.4a78.5 78.5 0 0 0 7.6-.7h.4a79.4 79.4 0 0 0 48.4-26 139.9 139.9 0 0 0 18-25.1c-1.8 9.2-3.3 18.5-4.5 27.9-1.2 10-1.6 20-1.2 30l.8 21c.3 8.3.4 16.6.3 24.8l-.1.3-.3.4-.3.6c0 .1 0 .3-.2.5a8 8 0 0 0 .9 4.8c0 8.8-.4 17.7-1 26.5l-2.1 30c-.7 9.8-1.1 19.5-1.3 29.2-.2 10-.6 20.2-1.3 30.3-.6 9.7-1.6 19.4-3 29v.4l-.2.6v-.2l-.9 8.8c-.7 7.5-1 15-1 22.7.2 7.8 0 15.6-.3 23.3-5.3 1.1-10.8 2-16.3 2.8a504.8 504.8 0 0 1-36.1 3.4 260.5 260.5 0 0 1-22.8.4 397.2 397.2 0 0 0-43.8 1.3c-7 .6-14.2.9-21.4 1-8.8.2-17.6.2-26.5.1-7.2 0-14.3-.4-21.5-1-3.3-.4-6.5-.5-9.8-.4-7.4 0-14.8-.2-22.2-.8a950.6 950.6 0 0 0-18.1-1.3c-7.3-.5-14.6-1-21.9-1.9-7.2-.8-14.5-1.9-21.7-3.3a196.4 196.4 0 0 0-30.4-3.8 68.5 68.5 0 0 1-18.5-3.7c.4-6.4.7-12.9.8-19.4a1811.6 1811.6 0 0 0 .5-60c0-10 .2-20.3.5-30.4l.4-28.1a315.3 315.3 0 0 1 1.5-28.2l1.8-21c.8-9.4 1.8-18.6 3.2-27.9 1.4-9.4 2.8-18.9 4-28.3 1.5-9.5 2.6-19.2 3.4-28.8a257.4 257.4 0 0 0 1.3-24c.4-.4.6-.8.8-1.2 4.1 5.8 8.7 11 13.9 15.7a85 85 0 0 0 23.8 15.5 98 98 0 0 0 27 7.3c7.5.3 14.9.3 22.3 0 8.4-.5 16.6-2.1 24.6-5 8.7-3 17-7 25-11.7Zm60.5 299a405.4 405.4 0 0 1 36.4-1.2c7.3.2 14.5.1 21.8-.3a810.8 810.8 0 0 0 39.4-3.1 177.9 177.9 0 0 0 20.8-4 118 118 0 0 0-.1 21.7 432 432 0 0 1 1.4 23.5l-4.6.3c-5.7.6-11.5 1.2-17.3 1.6-7.5.5-15 1-22.4 1.7-7.5.6-15 1.3-22.7 2.2-7.2.8-14.4 1.5-21.7 2-7.4.5-14.7 1.1-22 1.8l-22 2.1a391.7 391.7 0 0 1-31.6 1.5 330.5 330.5 0 0 1-47.4-1.5 1259 1259 0 0 0-23-2.3 504.1 504.1 0 0 1-65.7-10.2c-7-1.7-14-3.1-21.1-4.1-7-1-13.8-2.7-20.4-5.2 0-.4-.3-.7-.6-1l.7-5.6c.9-7.9 1.5-15.8 2-23.7a379 379 0 0 1 1.7-11.5c1 .4 2.2.8 3.3 1a239 239 0 0 0 20.1 3 609.3 609.3 0 0 1 37.9 5.5c7.3 1.2 14.6 2 21.9 2.4 7.5.4 14.9 1 22.3 2 7.3 1 14.6 1.3 22 1 7.3-.3 14.6 0 22 .7 7.3.9 14.7 1.3 22 1.3 7.7-.4 15.3-.6 22.9-.6 8 0 16-.4 24-1ZM265.8 243l.1.2.2.2a2 2 0 0 1-.2-.3Z"/><path fill="#fff" d="m367.9 127.6.2.1c-2.4-.7-4.8-1.6-7.1-2.4a17.8 17.8 0 0 1 0 10c1.3-.3 2.5-.8 3.6-1.3l2.7-1.3a12.3 12.3 0 0 0 2.2-1.4l.3-.2 1.3-1.4v-.2l-.2-.2a8 8 0 0 0-1.2-.8l-1.3-.6-.5-.3Zm-17.6-3v-.8l-1.4.5c-2 .8-4 1.8-5.8 3l-.3.6a5.4 5.4 0 0 1 0 1 11 11 0 0 0 5 4.4l1.3.7c.7.4 1.4.6 2 .8 0-.2 0-.5-.2-.7-.8-3.1-1-6.3-.6-9.6Zm-64.5-.7-.3.1a21.8 21.8 0 0 0-8.5 4.5l-.2.3h-.1l3.1 3.2a15.4 15.4 0 0 0 5.9 3.2l-.3-1a27.7 27.7 0 0 1 .4-10.3Zm16.9 1.9a23.1 23.1 0 0 0-7-2.4l.2.7c.9 3 1 6.3.6 9.6l-.2 1c.1-.2.2-.2.3-.2.8-.3 1.6-.6 2.4-.7 2.3-.6 4.3-1.8 6-3.5.2-.9.6-1.7 1-2.4a36 36 0 0 0-3.3-2.1Z"/><path fill="#87441D" d="m390.7 29.6-6-4.5a14.8 14.8 0 0 0-3.1-2h.1c-5.2-2.6-10.8-4-16.6-4.5a47 47 0 0 1-7-1.1 70 70 0 0 0-18.5-1.9 209 209 0 0 0-22 1.9L305.4 19v.1l-12 1.2a244.7 244.7 0 0 1-15 1.2l-6.7 1.1c-2.6.6-5.3 1-8 1.1a12 12 0 0 1-3.4-.3 13.8 13.8 0 0 0-3.8 2.8l-.6.6a53 53 0 0 0-10.2 11.3c-2.3 3.4-4.5 7-6.6 10.6a43 43 0 0 0-3.6 8c-1.2 4.5-2.3 9.1-3.1 13.7a82 82 0 0 0-1.4 18.3 80 80 0 0 1 1.3 5 38 38 0 0 0 3.2 8.9l2.2 4.1a46 46 0 0 1 4-10c.8-1.7 1.4-3.6 2-5.4a193.6 193.6 0 0 0 2.5-8.8l.3-.9c.7-1.4 1.2-3 1.7-4.4.7-2 1.4-3.9 2.3-5.7.5-1 1-2 1.8-2.7 0 .1 0 .2-.2.3l.4-.4 8.9-13.4c1.2-2 2.8-3.3 4.8-4.3 2.9-1.4 5.9-2.1 9-2.3 6-.4 12-.4 18 .1a56 56 0 0 0 16.2-1l4.8-.6a48 48 0 0 1 23.8 4.4c5.1 1 10.3 1.7 15.6 1.7 3.3 0 6.5.2 9.7.5 5.4.4 10.7 1.3 15.9 2.8a14 14 0 0 1 9 8.8c1.4 3.8 3.6 6.9 6.6 9.4 4.4 3.8 8.6 7.7 12.6 12 3 3.2 4.7 7 5.2 11.5l.4 4 .5-1.8A51.2 51.2 0 0 0 416 74c-.7-5.2-2-10.4-3.7-15.4-.9-3-1.9-5.8-3-8.8-1.8-5-4.4-9.4-7.6-13.3a10.7 10.7 0 0 0-4.2-3.1 48 48 0 0 1-6.7-3.7Zm19 21.5-.1-.2v.2Z"/><path fill="#CCC" d="M340.6 930.6a552 552 0 0 1-53.2-.2c-7.3-.4-14.6-1-22-2-7.2-1-14.4-1.7-21.7-2.3a277 277 0 0 1-22.2-2.8 4026.3 4026.3 0 0 0-19.8-3.3c-6.9-1-13.7-2.4-20.5-4.2-7-1.9-14-3.3-21.2-4.3-4.6-.6-9.2-1.8-13.6-3.5l-.7 7.8A5031.8 5031.8 0 0 1 141 962c-1 8-2 16-3.5 24-1.3 7.6-2.9 15.1-4.8 22.6-1.9 7.4-3.2 15-4 22.7v.7H503a47.9 47.9 0 0 1-2-13.2 245.2 245.2 0 0 0-1.5-22.2 184.3 184.3 0 0 1-1-7V990.2c-1.4-7.8-2.8-16-4-24.4-1-7.2-1.7-14.4-2.1-21.6-.2-4.1-.5-8.2-1-12.2-.5-4.7-.9-9.3-1.2-14a232 232 0 0 1-20 1.8 579.4 579.4 0 0 0-42.4 3.6l-21.9 2a143695.4 143695.4 0 0 1-65.4 5.3Zm52.2-59c-7.5.2-15 .6-22.6 1.3-8 .6-16 1-24 1-7.6 0-15.2.2-22.8.6-7.4 0-14.8-.4-22.2-1.3a148 148 0 0 0-22-.7c-7.3.3-14.6 0-22-1-7.3-1-14.7-1.6-22.2-2-7.3-.4-14.6-1.2-22-2.4a777.5 777.5 0 0 0-37.8-5.4c-6.7-.8-13.4-1.8-20-3a15 15 0 0 1-3.4-1.1L150 869a378.4 378.4 0 0 1-2.6 29.3c.3.3.5.6.6 1a94.5 94.5 0 0 0 20.4 5.2c7 1 14.1 2.4 21 4.1 7.2 1.8 14.4 3.3 21.6 4.5a715.2 715.2 0 0 0 44.3 5.7l22.9 2.3a330.5 330.5 0 0 0 47.4 1.5l17.4-.6c4.7-.2 9.5-.5 14.2-.9l22-2c7.3-.8 14.6-1.4 22-2 7.3-.4 14.5-1.1 21.7-2a822.3 822.3 0 0 1 45-3.8 474.6 474.6 0 0 0 22-2v-.6a431 431 0 0 0-1.4-22.8 118 118 0 0 1 0-21.8l-1.5.6c-6.3 1.5-12.7 2.7-19.2 3.5a810.5 810.5 0 0 1-39.4 3.2c-7.3.3-14.5.4-21.8.2a257 257 0 0 0-13.8 0Z"/></g><defs><clipPath id="a"><path fill="#fff" d="M0 0h663v1024H0z"/></clipPath></defs></svg>