<svg xmlns="http://www.w3.org/2000/svg" width="638" height="1009" fill="none"><path fill="#DE9E71" d="M481.5 332.4a95.5 95.5 0 0 1 .2-1 720.2 720.2 0 0 0-17.8-10.7h-.8l-3-1.2c-13.2-5-26-11-38.6-17.9a85.1 85.1 0 0 0-8-3.8 16.4 16.4 0 0 1-6.3-4.7 6.3 6.3 0 0 1-.3-.7c-5.5-2.7-11.3-5-17.1-6.9a25 25 0 0 1-7.7-4h-.3a4.2 4.2 0 0 1-.8-.3 3.4 3.4 0 0 1-.9-.5l-.4-.3a21 21 0 0 0-1.6-1.8 36.6 36.6 0 0 1-1.6-1.5l-.6-.2-.4-.2-.5-.2a2 2 0 0 1-.4-.3 6.7 6.7 0 0 1-1.6-1.8l.2-.2a50.4 50.4 0 0 1-14.8-27 145 145 0 0 1-2.8-23.8c-3 2-6 3.8-9 5.5-5.4 3-10.7 6.2-15.9 9.5a231.1 231.1 0 0 1-16 9.1c-2 1-4 1.8-6.3 2.3a72 72 0 0 1-13.3 1.7l-2.2-.5c-5-1-10-2.3-14.9-3.7-2.9-.9-5.8-1.6-8.8-2.2-5.6-1-11.1-2.4-16.6-4.2h.2a26.2 26.2 0 0 1-6.8-1.7 16 16 0 0 1-.2 1.8 87.3 87.3 0 0 1-1.8 22 40.2 40.2 0 0 1-6 12.6h-.1a39.4 39.4 0 0 1-4.6 5l.3.3.2.5a35.8 35.8 0 0 1-5 2.8l-.6.5a7.3 7.3 0 0 1-1.1 1l-.5.2a10.6 10.6 0 0 1-1.5.4h-.5l-.4-.1c-4.8 2.2-9.5 4.4-14.1 6.8a610.2 610.2 0 0 1-12.8 6.7l-.4.5a171 171 0 0 0-33.5 17.2 83.6 83.6 0 0 1-5.4 3.3h1.3l-2.9 1.5c-5 2.6-10.2 4.8-15.6 6.6-7.2 2.3-14.2 5.3-20.9 9a28 28 0 0 0-6.6 4.9c-7.8 8-16 15.6-24.5 22.9a66.1 66.1 0 0 0-19 27.3 215.4 215.4 0 0 0-9.9 34.4c-2.4 12.1-3.9 24.3-4.6 36.6A14697 14697 0 0 0 50 571.6a88.7 88.7 0 0 1-2.6 15.3c1 1.2 1 2.8.5 4.8a49.1 49.1 0 0 0-1.2 4.7c-1.8 11-3.8 22-5.8 33s-5 21.6-8.8 31.9a247.3 247.3 0 0 0-9.4 32 933 933 0 0 0-6.7 33.1c-2 10.8-3.1 21.5-3.6 32-.5 11.9-1.3 23.7-2.3 35.6-1 11.8-1.4 23.6-1.3 35.5l.2 38.5c.1 12.4.4 24.7.9 37 .5 12.4.6 25 .3 37.4-.3 13-.5 26-.5 39l-.3 30.2v3h72.4A58.3 58.3 0 0 1 71.4 981c0-12 .4-24 1.3-36 1-11.9 3-23.6 6-35.2a2082 2082 0 0 1 9.7-35c3.3-11.5 6-23.1 8-35a481 481 0 0 0 5.5-42.5l3.1-28.8c1.3-12 2.4-23.9 3.2-35.9a264.7 264.7 0 0 1 4.9-35.4l5.4-26.8c.2-.5.4-.9.8-1.2a840 840 0 0 1 7-28.7 762.2 762.2 0 0 0 10.6-52.7 67.2 67.2 0 0 0 1-11.4 57.7 57.7 0 0 1 1.2-8.6c.2-.8.5-1.5.8-2a3.8 3.8 0 0 1 .8-.8l-.3-3.2a663.2 663.2 0 0 1-1.3-54.2c-.7-1.5-1.1-3.2-1.3-5l-1-9.1-.7-3.6c0-.8.2-1.6.6-2.3a3.8 3.8 0 0 1 2.4-2 11 11 0 0 1 2 0l.6.3.5.2.4.2a14 14 0 0 1 2.6 8.4 32.3 32.3 0 0 0 1.9 10.5l.2 1.6v.1c0 .5 0 .9-.2 1.3a19 19 0 0 1-.5 2.4 1720 1720 0 0 1 1.5 43.8A356 356 0 0 0 152 589c1 5.7 2.1 11.4 3.6 17 3 11.5 5.3 23.1 6.9 35a539 539 0 0 1 3.3 31 88 88 0 0 1-1.1 22.6c-2.1 12.5-4.6 24.9-7.4 37.2a193.2 193.2 0 0 0-4.8 36 337 337 0 0 0 .4 32.3c.7 11 1 21.9 1.1 32.8l9.2 3.5c2.6 1 5.2 1.7 7.9 2.2 7.3 1.4 14.7 2.5 22 3.4 7 .7 14.3 1.6 21.6 2.6 4.5.6 9 1 13.6 1a4725.5 4725.5 0 0 0 65.9 1.3c7.3.4 14.6.6 21.9.6a2403 2403 0 0 0 44.1-.4c7.4 0 14.8.1 22.2.6a155 155 0 0 1 18.2 2.3 60.2 60.2 0 0 0 21.5-2 237 237 0 0 1 16-2.7 118 118 0 0 0 22.1-6.5v-.1c2.1-10 2.9-20.3 2.4-30.7a1697.3 1697.3 0 0 1-1.6-54.3c-.1-6-.6-12.1-1.4-18.1a859.9 859.9 0 0 0-7.8-44.7c-2.3-12-2.7-24-1.3-36.2l.8-6.3c1.1-12 2.9-23.8 5.2-35.5a276 276 0 0 1 9.1-34.7 716.4 716.4 0 0 0 10.5-34.3c2.7-9.5 4.8-19.1 6.4-28.9v.2c.6-4.3 1.6-8.4 3-12.5 1.3-3.6 2.5-7.3 3.6-11 .5-1.5 1.3-3 2.3-4.3.5-.6 1.1-1 1.9-1.2.5-.1 1.1-.2 1.7 0 .5 0 .9.2 1.3.4a4 4 0 0 1 1.8 2.6c.2.7.1 1.5-.1 2.2l-1 2.3a149 149 0 0 0-8.6 31.4c-.7 5-1.8 10.1-3.1 15.1l.4 2.1 3 36c.9 12 2.5 24 4.8 35.9a568 568 0 0 0 7.9 35c1.5 5.8 3.3 11.5 5.5 17.1 2.2 5.8 4.3 11.6 6.3 17.5 1.8 5.5 3.4 11 4.7 16.7 1.5.6 2.1 2.2 2 4.8-.4 14.2-.5 28.4-.3 42.5.1 3.2.3 6.3.6 9.4l.8 4.4a285.4 285.4 0 0 0 13.6 52.5c4.3 11.3 8 22.9 11 34.6 3 11.6 6 23.2 9.3 34.8 3.3 11.7 5.7 23.7 7 36 1.3 11.6 2.1 23.4 2.6 35.1.5 12.2.3 24.4-.6 36.6a40 40 0 0 1-3 12.4c-.7 1.6-1.2 3.3-1.6 5a12.7 12.7 0 0 1-1 1.7l-.3.3-.4.3s-.2 0-.3.2c-.1 0-.3 0-.4.2l-.4.2-1.5 1.4-1.4.8-.9.2h-.5v.6l79.6.1-.4-.1c-.5-.1-1-.3-1.3-.6a4 4 0 0 1-1.6-2 4 4 0 0 1-.1-.5l-.1-.5v-.5a426.9 426.9 0 0 1-2.1-35.8l-1-36c-.3-12-.4-24 0-36a321 321 0 0 0-1.1-36.2c-1-12-2-24-2.8-35.9-.8-12-1.2-24.2-1.1-36.2a398 398 0 0 0-5.8-72.2c-2-11.9-4.7-23.6-8.3-35.1a639.5 639.5 0 0 1-7.1-23.9 286.2 286.2 0 0 1-7.6-35.3 1158 1158 0 0 1-8.1-66.4v.2a914.7 914.7 0 0 0-5-37.5 450.9 450.9 0 0 1-4.3-36.7c-.9-12.1-2-24.3-3.4-36.3a263 263 0 0 0-7.2-38.1l.2.5a133.8 133.8 0 0 0-16.9-34.7l-6.2-8.1a178.9 178.9 0 0 0-10-11.8l-1.5-1.2a65.6 65.6 0 0 0-18.2-11 1887 1887 0 0 0-15.3-6 97.8 97.8 0 0 0-11-3.6l-.8-.5a10.1 10.1 0 0 1-1.6-1.5 26.7 26.7 0 0 1-.6-1.8v-1Zm-155.4 112c3.4-1.6 5.4-.6 6.1 3.2 2.3 12.6 3.8 25.2 4.4 38 .4 9.2-.2 18.3-2 27.3a16.2 16.2 0 0 1-1.5 1.5 2 2 0 0 1-.5.2l-.5.2-.5.1h-1.1l-.4-.1-.9-.4-.7-.5-.6-.6-.3-.5a26.4 26.4 0 0 1-.5-1.5c2-12.4 2.1-25 .6-37.5-1.1-9-2-18.1-2.8-27.2a2 2 0 0 1 1.3-2.1ZM297 561.6a4 4 0 0 1-1 1.7l-19.6 8.8a70.4 70.4 0 0 1-28.9 6.3c-11.5-.6-23-2.5-34.3-5.7-5.5-1.6-11-3.6-16.3-6.1a280.8 280.8 0 0 1-32-18c-.6-.6-1-1.3-1.1-2.1-.2-.8-.2-1.6.1-2.4a3.9 3.9 0 0 1 3.3-2.8h1c9.7 5.6 19.6 11 29.6 16.3A81 81 0 0 0 214 564c10.1 2.8 20.4 4.6 30.8 5.5 11 .9 21.4-1.3 31.4-6.3a141.4 141.4 0 0 1 17.5-7.3l.6.1.3.1c.8.4 1.3.8 1.8 1.4.4.6.7 1.2.8 2 0 .6 0 1.3-.3 2Zm54.9-7.5s.2 0 .3.2c8.8 7.5 18.3 13.8 28.5 19a50.8 50.8 0 0 0 38.6 3.7c11.4-3.4 22.6-7.5 33.4-12.6a90 90 0 0 1 11.8-4.5c1.1-.3 2 0 2.6 1 1 1.5 1.3 3 1 4.1-.4 1.3-1.4 2.3-3.1 3.1-10.4 5.3-21 9.9-32 13.9a97.6 97.6 0 0 1-26.7 5.7 25 25 0 0 1-6.6-.2l-2.5-.4c-8.2-1.4-16-4.1-23.3-8.2-7.4-4.1-14.5-8.6-21.4-13.5a32 32 0 0 1-5.8-5.4l-.5-1.3a4 4 0 0 1 0-1.4c0-.4.2-.8.4-1.3a316.3 316.3 0 0 1 .8-1.1l.3-.3.3-.3 1.3-.6h1.3c.4 0 .9.1 1.3.4ZM99.3 494c0 .2-.2.4-.3.5l-13 12.2c-4.4 4-8 8.6-10.7 14-.6 1.4-1.4 2.6-2.4 3.8-.6.4-1.3.7-2 .8-.6 0-1.2 0-1.9-.3l-.6-.3-.4-.3-.4-.3-.3-.5-.3-.4a2 2 0 0 1-.3-.4 3 3 0 0 1-.1-.6l-.1-.6v-.7c2.4-6.4 6-12 10.8-16.8l13.4-13.3c1.4-1.4 3-2.4 4.7-3a86.7 86.7 0 0 0 2 .4c.3 0 .6.3 1 .5l.6.8.5 1 .4 1.2a107 107 0 0 1-.6 2.3Zm116.6 43a4 4 0 0 1 3.4-.4l1.2.6.3.4.3.4.3.3a4.3 4.3 0 0 1 .3 3.6 9 9 0 0 1-.3.8 14.5 14.5 0 0 1-3.3 3.3 11 11 0 0 1-2 .5h-.5a112.1 112.1 0 0 0-1.4-.5l-.5-.3a4 4 0 0 0-.4-.3c0-.2-.2-.3-.3-.4l-.2-.4a4 4 0 0 1-.3-3.5l.3-.9a14 14 0 0 1 3.1-3.2Zm-22.3 128.5h.5a65.5 65.5 0 0 1 24.2 21.8 82.3 82.3 0 0 1 12.8 32.3c1.6 9.1 2.6 18.3 3 27.5.7 13.1 1.8 26 3.3 38.7a44 44 0 0 0 1.7 7.7l.3.5c0 .1 0 .3.2.5a16.5 16.5 0 0 0 .1 1.1v.5c-.2 1.5-1 2.6-2.4 3.3-1.2.5-2.3.5-3.5-.2-1-.7-1.9-1.6-2.3-2.9l-1-3c-1.7-12-3-24-3.7-36.2-.7-12-1.9-24-3.7-36a67.2 67.2 0 0 0-32.3-48.3 6.4 6.4 0 0 1-.9-1.7l-.3-.9v-1.1c0-.2 0-.3.2-.5l.1-.5.5-1 .6-.5.7-.6.4-.2.4-.1a14.7 14.7 0 0 0 1.1-.2Zm-93.3 30.8a6.7 6.7 0 0 1 .8.6 139.5 139.5 0 0 0 .8.7l.3.4.2.5.2.5v2l-.3 1s0 .2-.2.3c-.6 1-1.4 1.7-2.5 2.1-1.2.6-2.5 1-3.8 1.2-1.3.2-2.5.3-3.8.1-4.2-.8-8.1-2.3-11.9-4.5a62 62 0 0 1-10.3-7.7c-.9-.9-1.7-1.9-2.3-3a3 3 0 0 1-.1-.6l-.1-.5v-1l.1-.5.1-.6.3-.4c0-.2.2-.4.3-.5l.3-.4.4-.4.5-.3.4-.3.5-.1.5-.1h1.5l.5.3 7.8 6.3c3 2.2 6 4 9.3 5.3 1.4.6 3 .9 4.4.8l1.8-.7a8.8 8.8 0 0 1 3.1-.8l.7.1.5.2Zm217.8 62.5c.2 0 .4 0 .6.2l.4.2a3.8 3.8 0 0 1 1.6 1.8c.9.3 1.9 1.1 3 2.4.7.8.8 1.7.3 2.6-1.2 2-2.5 3-3.9 2.8l-.1.2-.7.6a4 4 0 0 1-1.1.6l-1.2.1-1-.1-.9-.4a44.5 44.5 0 0 1-2.8-2.2 4 4 0 0 1-.8-1.6l-.2-.5v-1.1l.2-.5.1-.5.3-.6c.2-.5.6-1 1-1.3l.4-.4c.5-.8 1.1-1.4 1.9-2l.4-.2 1-.2h1.6Zm85.6-51.6a50.1 50.1 0 0 0-3.3 8.9 171.2 171.2 0 0 0-3.9 64.5c0 .6 0 1.2-.3 1.7a4 4 0 0 1-1 1.4c-.4.4-.9.7-1.4.9-.6.1-1.1.2-1.8.1-.4 0-.9-.2-1.3-.4s-.7-.5-1-.9a4 4 0 0 1-.6-.7l-.2-.4a173 173 0 0 1 4.9-71.7 59 59 0 0 1 19-29.6c2.8-2.3 5.4-4.7 8-7.2 3-2.7 6.2-3.7 9.6-2.8 1 .2 1.6.9 2 2-.4 3.8-2.5 6.7-6.6 8.5-1.3.6-2.5 1.4-3.6 2.3a68.2 68.2 0 0 0-18.6 23.4Zm21.8-159.6c0-.4.2-.9.4-1.3.3-.6.7-1 1.2-1.4a4 4 0 0 1 2.4-2.2c.5-.2 1-.3 1.7-.2h.3c.5.2.9.3 1.2.6l1.2.8 1 .8a5.8 5.8 0 0 1 1 4.2 6 6 0 0 1-2.3 4.2c-.6.5-1.3.9-2.1 1h-1l-.6-.1c-.8-.3-1.5-.8-2.1-1.4a17 17 0 0 1-1.5-1.8l-.7-1.3c-.2-.6-.2-1.3-.1-1.9Zm114.1-47h.5c5.4 3.3 10.6 6.7 15.8 10.3a90.7 90.7 0 0 1 15 13c1.6 1.8 2.9 3.8 3.8 5.9a5 5 0 0 1 0 1.3 4.5 4.5 0 0 1-1.1 2.3 61.3 61.3 0 0 0-1.4 1h-.4l-1.1.2a6 6 0 0 1-1.2-.2l-1-.6-.6-.4c-3.6-4.8-7.8-9-12.6-12.6-4.8-3.7-9.8-7-15-10.2-1.7-1-3.2-2.5-4.4-4.2l-.1-.5-.1-.6V504l.2-.6a8.3 8.3 0 0 1 .6-1l.4-.4.3-.4c.2 0 .3-.2.5-.3l.4-.2.5-.2a73.5 73.5 0 0 1 1-.1Zm23.3 202a95.5 95.5 0 0 0-.5 1.5l-.3.4c-2.4 2-5 3.6-8 4.5a44 44 0 0 1-12.9 1.8 52 52 0 0 1-4.6-.7 3 3 0 0 1-1.7-1l-.4-.4a5 5 0 0 1-.8-1.8l-.1-.6v-.7a116.6 116.6 0 0 1 .3-1.2l.5-1 .4-.3a1.8 1.8 0 0 1 .8-.6l1.2-.5c3.6.6 7.2.6 10.9 0 3.5-.6 6.7-1.8 9.8-3.7l.9-.4h1l.5.2a7.8 7.8 0 0 1 1.4.6l.4.4.4.4a5.5 5.5 0 0 1 .8 2.5v.6ZM207.4 114.9a5 5 0 0 1-.7-.7l-1.5-.5a4 4 0 0 0-1.6-.1l-1.5.3-.7.4-.7.5-.8.5-1.8 2.1c-.6.8-1 1.6-1.3 2.5l-.5 1a33.3 33.3 0 0 0 .5 20.4c1 3 2.5 5.8 4.2 8.5a14 14 0 0 0 8.8 6.4c.3 0 .7 0 1-.3a6 6 0 0 0 1-.5l1-.6.8-1.1a162.2 162.2 0 0 0-1.7-11.2v.1c-1.2-5.9-2.4-11.8-3.4-17.7-.6-3.3-1-6.6-1-10Zm-8.3 15.7a9 9 0 0 1 1.3-5c.2-.3.4-.5.8-.7 1.9-.8 3.2-.2 4 1.8.3.6.4 1.3.3 2a19 19 0 0 0 1 9.3c.5 1.5 1 3 1.3 4.5 0 .5 0 1-.3 1.5-.7 1.4-1.8 2-3.4 1.7a4.8 4.8 0 0 1-2.7-3.3l-.8-2.3c-1-3.1-1.4-6.2-1.5-9.5ZM396 112a7 7 0 0 0-2.8 0l-1.1.1-.5.2-.5.2-.4.2a16.5 16.5 0 0 0-4 3.9 6 6 0 0 1-.8 1.8l.3 8.1a142 142 0 0 1-1.6 25l.4.7c1 2.2 2.3 4 4 5.3 5 .2 8.7-2 11.3-6.5a26 26 0 0 0 3.1-9.3c1-6.9.8-13.7-.7-20.5-.7-3-2-5.8-3.9-8.2-.8-.5-1.8-.8-2.8-1Zm-4.2 10.7c1.2-1.8 2.6-2.2 4.4-1 .7.4 1.1 1 1.3 2 .7 3.7.7 7.4.1 11.2l-1.3 7.2c-.5 2.3-1.8 3.5-3.9 3.4-.7 0-1.2-.2-1.7-.7a3 3 0 0 1-.8-1.6c-.1-.6-.1-1.2.1-1.7 0-.3.2-.5.3-.7a62 62 0 0 0 1.6-18.1Zm-44.1-65.8a72 72 0 0 0-15.6-2.7c-5.8.6-11.5.4-17.2-.5a99.7 99.7 0 0 1-16.7-4.2 31.8 31.8 0 0 0-12.4-1.6 55.3 55.3 0 0 1-13.8 2.3 143.6 143.6 0 0 1-20.1-.9 234 234 0 0 1-8.8 1c-.7 0-1.4.2-2.1.4l-.3.3-.3.1a52 52 0 0 0-4.1 5.8l-3.1 4.6a75.4 75.4 0 0 1-4.9 6.4c0 .1 0 .3-.2.4a11.7 11.7 0 0 1-.3.8h.1l-1.2 3.4-1.3 3.5-.5 1.3.1-.3c-.9 2-1.6 4.2-2.2 6.4a165.6 165.6 0 0 1-2.3 7.8 37 37 0 0 0-5.2 16.3c-.4 6.1 0 12.2 1.3 18.2L220 143c.1.6.1.7.1.3l.3 1.5 1.3 9.9c.5 3.3.7 6.7.6 10v1.1a27 27 0 0 1 .7 7.6v2c.3 1.4.4 2.7.5 4 0 1.2.2 2.4.4 3.6l.1 1.5a162.7 162.7 0 0 0 8.3 22.3c2.6 4.8 5 9.7 7.1 14.7 1.5 3.2 3.5 6 6.1 8 1.3 1.1 2.7 1.8 4.3 2.3a48.7 48.7 0 0 0 3.7.9c5.8 1.7 11.6 3.1 17.6 4.3a127 127 0 0 1 17 4.4c2.7.9 5.4 1.5 8.1 1.9a48.5 48.5 0 0 0 21-6.3c5-3.3 10-6.4 15.3-9.4l15.4-8.9c3.2-1.8 6-4 8.7-6.6 1.1-1 2-2.3 2.6-3.8a339 339 0 0 0 6.4-16.8 525 525 0 0 1 6.4-17 61.9 61.9 0 0 0 4.2-18l1.1-11c.7-6 1-12 1-18.1l-.5-18.2a75 75 0 0 0-1.4-13.6l-.8-4.9-.6-3c-.1-.5-.4-1-.6-1.4a13.4 13.4 0 0 0-1.8-2.4 227 227 0 0 0-10.9-9.7 33.7 33.7 0 0 1-8.4-10.3 173.3 173.3 0 0 0-3.8-6.4l-.2-.1-.2-.2h-.4l-1-.4ZM303 105.3c-2-1.5-2.4-3.4-1.3-5.6 1.4-3 3.2-5.5 5.5-7.6 2.3-2.2 5-3.7 8-4.6a42.7 42.7 0 0 1 13.4-1.5c3 .2 6 .7 9 1.3a32.2 32.2 0 0 1 16.1 8.9c1.1 1 2 2.4 2.5 3.8.3.8.3 1.6 0 2.3-.7 2.1-2.2 3-4.3 2.8a4.6 4.6 0 0 1-3.3-2 20.4 20.4 0 0 0-7.5-6l.3.2-.4-.2h-.1a43.9 43.9 0 0 0-18.3-2.6l-2 .3h-.5l-2.3.5a13.6 13.6 0 0 0-4.7 2.4c-2 1.9-3.7 4-5 6.5-.2.4-.5.7-.9 1-1.3.8-2.7.9-4.1.1Zm31.4 3.2a36.8 36.8 0 0 0 5.7 2 22 22 0 0 1 7.4 4l.9.5a6.2 6.2 0 0 1 3.2 6.6c-.1.7-.4 1.3-.8 1.9a30 30 0 0 1-8.2 7.5 44.4 44.4 0 0 1-8.2 3.4c-1.3.4-2.7.6-4.1.7h-4.4a31.8 31.8 0 0 1-7.2-1.5l-1-.5.3.1.2.1a18.8 18.8 0 0 1-9.6-6.7c-1.8-2.1-3.1-4.5-4-7-.2-.5-.3-1-.2-1.4.3-1.5 1-2.5 2.4-3.2.2-.5.4-1 .8-1.4.3-.5.6-.8 1-1.1l.5-.3h.2-.1c2.4-1.7 5-3 7.7-4 2.8-1.2 5.7-1.8 8.8-1.6 3 0 5.9.7 8.7 2Zm-65.9-13.8-.6-.2c-2.4-.9-4.9-1.4-7.4-1.7a26.3 26.3 0 0 0-4.1.2 19 19 0 0 0-8.4 3c-.4 0-.7.4-1 .7-2 2.5-3.8 5.1-5.4 8l-1.3 2c-.6 1.2-1.5 2.2-2.5 3a3.5 3.5 0 0 1-3.9.7c-.5-.3-.9-.5-1.3-.9a4.5 4.5 0 0 1-.4-5.2l.6-.8a24.9 24.9 0 0 1 2-3c1.8-3.3 4-6.4 6.3-9.3 2-2.4 4.6-4.1 7.6-5a39.2 39.2 0 0 1 7.4-1.5c3.8-.4 7.5-.1 11.2 1a46.7 46.7 0 0 1 12.8 6l.1.1.7.5.4.3a139.5 139.5 0 0 0 2.4 1.8c.8.5 1.3 1.2 1.7 2 0 .3 0 .4.2.6.3 2.7-.7 4.4-3.2 5-1 .4-2 .2-3-.5-1.5-1.1-3-2.2-4.3-3.4a24.1 24.1 0 0 0-6.6-3.4Zm-10 11.9h.3a26 26 0 0 1 10.1 0 32.9 32.9 0 0 1 11.6 4.9c2 1.2 3.8 2.7 5.3 4.6.1.3.3.6.3 1 .3 1.2.2 2.3-.4 3.2a4 4 0 0 1-.7 1.6l-.4.5c-1 3-2.7 5.4-5.2 7.2a25.5 25.5 0 0 1-8.3 3.9c-1.8.5-3.6 1-5.4 1.3-2 .4-4 .5-6 .4-3.2 0-6.2-.8-8.9-2.3a37.8 37.8 0 0 1-7.5-5.6c-1.5-1.4-2.8-3-3.9-4.8-.4-.7-.6-1.5-.5-2.3l.1-.1a5 5 0 0 1 .8-3.1 9.7 9.7 0 0 1 2.7-3.2l3.6-2.5c2.5-1.8 5.3-3.1 8.3-3.8l4.2-.9Zm35.1 37a2 2 0 0 1 1-.6c2.2-.4 3.7.4 4.6 2.5.6 1.3.4 2.6-.3 3.8a15.2 15.2 0 0 0-2.1 12.6 48 48 0 0 0 1.5 3l1.9.8a10.4 10.4 0 0 0 3 .2l1.1-.5 1-.8.5-.6c1.8-1.6 3.7-1.6 5.5 0 .8.7 1.3 1.6 1.3 2.8 0 1.7-.8 3.2-2.1 4.3a12 12 0 0 1-8.1 3.1c-3.2 0-6-.8-8.6-2.6-1.3-.8-2.3-2-3-3.3a19 19 0 0 1-2.5-9c-.1-3.3.3-6.4 1.3-9.5.8-2.5 2.2-4.6 4-6.3Zm52-14.5ZM303 199.8l5.9-.8H308.6c2.8-.3 5.6-1 8.3-1.8a14.3 14.3 0 0 0 6.8-4.7c1.7-1.8 3.6-2 5.6-.4.8.7 1.3 1.7 1.3 2.9a6 6 0 0 1-1.8 4.2c-3 3-6.4 5-10.4 6.2a55.7 55.7 0 0 1-9 2v-.1c-2.1.4-4.3.7-6.4.9a521.4 521.4 0 0 1-9.6.6c-3-.4-6-1-9-1.6-3-.7-5.8-1.9-8.4-3.4-2.8-1.6-5-3.8-6.6-6.5-1.5-2.4-1.2-4.4.8-6.1a3 3 0 0 1 2.3-.8 5 5 0 0 1 4.3 3.3l.7 1c2.3 2.1 5 3.6 8.1 4.2 2.6.6 5.3 1 8 1.4 1.6.2 3.3.2 5 0l4.4-.5Z"/><path fill="#000" d="M562.9 703.2v-.5a2.7 2.7 0 0 0 0-1c0-.5-.1-.8-.3-1.1 0-.4-.3-.7-.5-1a3.8 3.8 0 0 0-.7-.8l-.4-.3a7.7 7.7 0 0 0-1.5-.5h-1l-1 .4c-3 1.9-6.3 3-9.8 3.7-3.6.6-7.2.6-10.8 0a8.8 8.8 0 0 0-1.6.8c-.2 0-.3.2-.4.3l-.4.4a6.5 6.5 0 0 0-.6 1.5 135.7 135.7 0 0 1-.2 1.3l.1.6a5 5 0 0 0 1.2 2.2c.5.5 1 .9 1.6 1a329.3 329.3 0 0 0 4.7.7h2.3c3.6-.1 7-.7 10.5-1.8 3-1 5.7-2.4 8.1-4.5l.3-.4.4-1Zm-22.6-202.4h-1.1l-.5.1-.5.2a6 6 0 0 0-.5.2 5 5 0 0 1-.4.3l-.3.4-.4.4a5.6 5.6 0 0 0-.6 1l-.1.6-.1.7v.7a135.7 135.7 0 0 1 .3 1.1c1.1 1.7 2.6 3.1 4.4 4.2 5.1 3.1 10.1 6.5 14.9 10.2a65.5 65.5 0 0 1 13.1 13l1.1.6 1.1.2 1.1-.1.6-.2.5-.2.4-.4.4-.3.4-.5a8.8 8.8 0 0 0 .5-1.1 4.1 4.1 0 0 0 .2-2c-1-2.1-2.2-4-3.8-5.9-4.5-4.9-9.5-9.2-15-13-5.1-3.6-10.4-7-15.8-10.2ZM426 546.4a4.5 4.5 0 0 0-.3 3.2c.2.5.4 1 .7 1.3l1.5 1.8c.6.6 1.3 1 2.2 1.4a14.7 14.7 0 0 0 1 .1h.5c.8-.1 1.5-.5 2.1-1a6 6 0 0 0 2.3-4.2c.2-1.6-.2-3-1-4.2a6 6 0 0 0-1-.8l-1.2-.8c-.3-.3-.7-.4-1.2-.6h-.4c-.5 0-1 0-1.6.2a4 4 0 0 0-1.5.8c-.4.4-.7.9-.9 1.4-.5.3-.9.8-1.2 1.4Zm-25.4 169.8c.8-3.1 1.8-6 3.1-8.9 4.5-9.1 10.7-17 18.6-23.4 1.1-1 2.3-1.7 3.6-2.3 4-1.8 6.3-4.7 6.6-8.6-.4-1-1-1.7-2-2-3.4-.8-6.6.2-9.6 3-2.6 2.4-5.3 4.8-8 7a59 59 0 0 0-19 29.6 173.2 173.2 0 0 0-4.9 71.8l.3.4.5.7 1 1 1.3.3 1.8-.1c.5-.2 1-.5 1.4-1a4 4 0 0 0 1.3-3v-.6c0-.2 0-.4-.2-.5a3 3 0 0 0-.1-.7 171.3 171.3 0 0 1 4.3-62.7ZM318.6 759l-.4-.2-.6-.1h-1l-1 .2-.4.2c-.8.6-1.4 1.2-2 2 0 .2-.1.3-.3.4a4 4 0 0 0-1 1.3 80.4 80.4 0 0 1-.6 1.6v1.1a80.1 80.1 0 0 1 .3 1l.7 1.1a49.3 49.3 0 0 0 3.8 2.6l1 .1h1a4 4 0 0 0 1.3-.7l.6-.6.1-.2c1.4.2 2.7-.7 3.9-2.8a2 2 0 0 0-.3-2.6 7.6 7.6 0 0 0-3-2.4l-.2-.2a3.8 3.8 0 0 0-1.9-1.8ZM101 696.7l-.5-.3-.5-.2-.6-.1-1.2.1-2 .7-1.7.7c-1.6 0-3-.2-4.5-.8a43.4 43.4 0 0 1-9.2-5.3 175.8 175.8 0 0 1-8.3-6.5l-.5-.1h-1.5l-.5.3a2 2 0 0 0-.5.2c-.2 0-.3.2-.4.3l-.4.4c-.2 0-.3.2-.4.4l-.3.5a2 2 0 0 0-.2.4l-.2.6-.1.5v1a497.7 497.7 0 0 1 .3 1c.6 1.2 1.3 2.2 2.3 3a62 62 0 0 0 10.3 7.8c3.7 2.2 7.6 3.7 11.8 4.5 1.3.2 2.5.1 3.8-.1 1.3-.3 2.6-.6 3.9-1.2 1-.4 1.8-1 2.5-2 0-.2 0-.3.2-.5l.2-1v-2l-.2-.4a7 7 0 0 1-.2-.5l-.3-.4-.3-.4a502 502 0 0 1-.9-.6Zm93.3-31h-1a16.5 16.5 0 0 1-1 .2l-.4.2a10 10 0 0 0-1.3 1.2l-.5.9-.2.5v.5l-.1.6v.5l.3 1 .4.8.5.8a67.2 67.2 0 0 1 32.3 48.4c1.8 11.8 3 23.8 3.8 36 .7 12 1.9 24 3.7 36 .2 1 .5 2.1.9 3.1a5.4 5.4 0 0 0 2.3 3c1.2.6 2.3.6 3.5 0a4.2 4.2 0 0 0 2.4-3.2V795l-.2-.5a6 6 0 0 0-.4-1l-.3-.5c-.7-2.4-1.1-4.8-1.4-7.2a576.2 576.2 0 0 1-3.3-38.7c-.4-9.2-1.4-18.4-3-27.5a82.3 82.3 0 0 0-12.8-32.3 65.5 65.5 0 0 0-24.2-21.8Zm23.5-129.2a4 4 0 0 0-1.7.6 14.1 14.1 0 0 0-3.1 3.2 7 7 0 0 0-.3.9c-.3.5-.3 1.1-.3 1.8a3.8 3.8 0 0 0 .8 2.1c.2.1.3.2.3.4.2 0 .3.2.4.3l.5.3.4.2.6.2.4.1h1.1a10.4 10.4 0 0 0 1.4-.5 13.6 13.6 0 0 0 3.3-3.3c.1-.3.3-.5.3-.8.3-.6.3-1.2.3-1.9-.1-.6-.3-1.1-.6-1.7l-.3-.3a1 1 0 0 0-.3-.4l-.3-.4a4 4 0 0 0-1.2-.6c-.6-.2-1.2-.3-1.8-.2ZM99.2 494.6l.2-.5.4-1 .2-1.3-.3-1.2-.6-1-.6-.8a6 6 0 0 0-1-.5c-.3-.2-.6-.2-1-.3l-1-.1c-1.8.6-3.3 1.6-4.7 3l-13.4 13.3A47.7 47.7 0 0 0 66.6 521v.7l.1.6c0 .2 0 .4.2.6l.2.4c0 .2.2.3.3.4l.3.5.4.3.4.3.7.3c.6.3 1.2.4 1.9.3.7-.1 1.3-.4 1.9-.8 1-1.2 1.8-2.4 2.5-3.8 2.7-5.4 6.2-10 10.6-14 4.4-4 8.7-8 13-12.2Zm253 59.6-.4-.2c-.4-.3-.9-.4-1.3-.4a3.5 3.5 0 0 0-2.9.9 1 1 0 0 0-.4.3l-.3.3a316.3 316.3 0 0 1-.8 2.1 4 4 0 0 0 .5 2.7 32 32 0 0 0 5.8 5.4c7 4.9 14 9.4 21.4 13.5a72.1 72.1 0 0 0 25.8 8.6c2.1.3 4.4.4 6.6.2a143.6 143.6 0 0 0 5.7-.7c7.2-.9 14.2-2.6 21-5 11-4 21.6-8.6 32-13.9 1.7-.8 2.7-1.8 3-3 .4-1.3.1-2.6-.9-4.2-.6-1-1.5-1.3-2.6-1-4 1.2-8 2.7-11.8 4.5-10.9 5-22 9.2-33.4 12.6a50.8 50.8 0 0 1-38.6-3.7 144.6 144.6 0 0 1-28.5-19Zm-56.3 9c.5-.5.8-1 1-1.7.3-.7.3-1.4.3-2a4.2 4.2 0 0 0-2.6-3.4h-.4l-.5-.2h-.5c-5.8 2-11.5 4.5-17 7.3-10 5-20.4 7.2-31.3 6.3-10.5-.9-20.8-2.7-31-5.5a81 81 0 0 1-16.3-6.4 948 948 0 0 1-30-16.4h-.5l-.6.1-1.2.6c-.7.5-1.2 1.2-1.5 2.1-.3.8-.3 1.6-.1 2.4.2.8.6 1.5 1.2 2a280.9 280.9 0 0 0 32 18c5.2 2.6 10.7 4.6 16.3 6.2 11.3 3.2 22.7 5 34.3 5.7 2.8 0 5.5 0 8.3-.4 7-1 13.9-2.9 20.5-6l19.6-8.7Zm36.3-115.6c-.7-3.8-2.7-4.8-6-3.1a2 2 0 0 0-1.3 2.1c.8 9 1.7 18.2 2.8 27.2a137.3 137.3 0 0 1-.4 38 32.2 32.2 0 0 0 .6 1.5 5.2 5.2 0 0 0 1.4 1.1l.8.4h.4l.6.1h.5l.5-.1.5-.2.5-.2a13.4 13.4 0 0 0 1.5-1.5c1.8-9 2.4-18.1 2-27.3-.6-12.8-2-25.4-4.4-38Zm139.2-132.5c-1-.5-1.9-1-2.8-1.3-7.8-4.3-15.6-8.5-23.5-12.5-9.7-5-19.4-9.2-28.9-12.8-1-1-2.1-2-3.5-2.7l-11-5.2c-3.7-1.7-7.5-3-11.4-4-2-.7-3.7-1.7-5.3-3a7 7 0 0 0-1.1-.8 542.6 542.6 0 0 0-4.9-4.8 27 27 0 0 1-7.2-8 49 49 0 0 1-6.3-17.5l-.2-1.3-.2-2-.7-8.7c-.3-3.2-.6-6.3-1.1-9.4v-.3c0-1.1-.3-2-.9-2.7a15.5 15.5 0 0 0 .9-1.2A75 75 0 0 0 370 202a2.2 2.2 0 0 1 .1-.3l.2-.1h-.1l4.3-11.5 3.5-8.7a67.3 67.3 0 0 0 5-18.3c2 1.5 4.4 2.4 7.3 2.7.8 0 1.5 0 2.3-.2 3.8-.6 7.1-2.1 10-4.8a24 24 0 0 0 6.3-9.4c.6-1.2 1-2.5 1.3-3.8 1.4-6.3 2-12.5 1.9-18.9 0-6.1-1.5-12-4.3-17.4a13.2 13.2 0 0 0-5.6-5.8 15.3 15.3 0 0 0-12.3-1.4l.5-2 2.5-9a94.3 94.3 0 0 0 2.8-17.8 54 54 0 0 0-2.2-18.7 294.3 294.3 0 0 0-8.9-24.8c-1.6-3.9-4-7-7.2-9.7a45.5 45.5 0 0 0-11.3-6.7c-.8-.5-1.5-1.1-2.1-1.8a25.9 25.9 0 0 0-8.9-6 39 39 0 0 0-8.8-2.6C340.6 4 335 3 329.1 1.8A80.9 80.9 0 0 0 311.8 0l-9.8.3c-5.8.3-11.6 1.1-17.3 2.4h-.2l-13 1.6-6.6.6A195.8 195.8 0 0 0 237 8h-1.8a11 11 0 0 0-8.8 1.9 66.1 66.1 0 0 0-17.9 18.8c-3.2 5-6 10.3-8.6 15.8l-1.7 4.8a102.7 102.7 0 0 0-3.8 31.4 54.5 54.5 0 0 0 4.4 15.7v-.1l.1.4.2.2c.2.5.3 1 .6 1.4a59.5 59.5 0 0 0 3.8 7.1A17.6 17.6 0 0 0 189 118c-2 6-2.4 12-1.3 18 1 6.2 3 12 6.1 17.3 3 5.6 7.5 9.2 13.4 11 2.5.6 5 .4 7.3-.6l.2 4.6c.1 5.3.6 10.6 1.3 15.8v.2l-.1 2c-.1.6 0 1.3.3 2 .2.5.5 1 1 1.4a79 79 0 0 1 1.7 5.5 180.2 180.2 0 0 0 8.6 20.3 437 437 0 0 0 8.1 15.2 16.7 16.7 0 0 0 3.1 3.9 5 5 0 0 0-.8 1.3c-.3 1-.2 2 .1 3.2a168.2 168.2 0 0 0-.4 15 34.1 34.1 0 0 1-5.8 16.4l-.3.3a61.1 61.1 0 0 1-3.4 3.7h.1l-.3.1h.2c-.3 0-.5.2-.7.3a16.7 16.7 0 0 0-3.1 2.7c-.7.1-1.5.3-2.2.6-4.6 2-9.2 4-13.8 6.3a358 358 0 0 0-16.4 8.8l-.4.4a53 53 0 0 0-6.4 2.8c-9.6 5-19.1 10.3-28.4 15.8-3.5 2-7 4-10.5 5.7a263 263 0 0 1-23.4 9c-2.8.9-5.3 2.3-7.6 4.1a698 698 0 0 0-23.1 20c-4.9 4.5-9.6 9-14.1 13.9a78.2 78.2 0 0 0-17.3 28.9A252.3 252.3 0 0 0 47.3 464a251559.3 251559.3 0 0 0-3.5 73 871.7 871.7 0 0 1-2.5 39c-.3 2.4-.7 5-1.2 7.4-.5 2.6-1 5.1-1.2 7.7 0 .4 0 .8.2 1.2l-.5 3.4-5 28c-1.6 8.9-3.8 17.6-6.6 26-3 9.5-5.8 19-8.2 28.6-2.9 11.5-5.7 23-8.4 34.7A236.7 236.7 0 0 0 5 748.7L2.8 776c-1 12-1.6 23.9-1.8 35.9-.2 12-.3 24.1-.3 36.2-.1 12 0 24 .6 36.1.4 12 .6 23.9.6 35.8a3231.4 3231.4 0 0 1-.5 54.2 1199.2 1199.2 0 0 0 .1 36.8l.1.6.2.5.2.5.3.4a3.9 3.9 0 0 0 .8.8l.4.3.4.2.5.2h.5c0 .1 0 .1.1 0h1.5l.5-.2.5-.2.4-.3a3.2 3.2 0 0 0 .7-.8l.3-.4.2-.5.2-.5.3-30.2c0-13 .2-26 .5-39 .3-12.5.2-25-.3-37.4-.5-12.3-.8-24.6-.9-37l-.2-38.5c0-11.9.4-23.7 1.4-35.5a853 853 0 0 0 2.2-35.6c.5-10.5 1.7-21.2 3.7-32 2-11 4.2-22 6.7-33 2.5-11.2 5.6-22 9.4-32.1 3.8-10.3 6.7-21 8.7-31.8a1852.3 1852.3 0 0 0 5.7-32.4c.3-1.8.8-3.6 1.3-5.4.6-2 .4-3.6-.4-4.8a88.7 88.7 0 0 0 2.5-15.3c1-12.7 1.7-25.4 2.2-38 .3-10.6.8-21 1.3-31.5l2-38.2c.6-12.3 2.2-24.5 4.6-36.6 2.3-11.7 5.6-23.2 9.8-34.4 4-10.8 10.4-20 19-27.3a432 432 0 0 0 25.5-23.9 28 28 0 0 1 5.6-4c6.7-3.6 13.7-6.6 21-9a106.6 106.6 0 0 0 18.4-8H158l.3-.2 5.1-3c10.7-7.1 21.8-12.9 33.5-17.3a20.6 20.6 0 0 1 .6-.9l12.6-6.3a314.2 314.2 0 0 1 14.5-6.7h.5l.5-.1a10.4 10.4 0 0 0 1.5-.5l.3-.3.8-.7.6-.5.1-.1h.1l.9-.6a35.7 35.7 0 0 0 3.9-2.1 7.1 7.1 0 0 1-.5-.9 45.4 45.4 0 0 0 4.6-4.9l.2-.2.1-.2A40.2 40.2 0 0 0 245 259a87.2 87.2 0 0 0 .9-18.4l.2-1.3a22.7 22.7 0 0 0 6.7 1.6h-.2c5.5 1.8 11 3.2 16.6 4.2 3 .6 5.9 1.3 8.8 2.2a186 186 0 0 0 17 4.2c4.6-.1 9-.7 13.4-1.7a25.3 25.3 0 0 0 7.8-3c5-2.7 9.8-5.5 14.5-8.4a437 437 0 0 1 15.9-9.5 134.9 134.9 0 0 0 9-5.3l.4 5.5c.4 6.1 1.2 12.2 2.4 18.2a50.4 50.4 0 0 0 14.8 27h-.1l.4.8 1 1.1.5.3.4.2.6.2a2.7 2.7 0 0 1 .9.5 37.7 37.7 0 0 0 2 2l.8 1 .4.3.4.3a3.5 3.5 0 0 0 1 .4h.4l.2.1a25 25 0 0 0 7.6 4 137.2 137.2 0 0 1 17.4 7.2l.1.4 1.4 1.4c1.4 1.4 3 2.5 5 3.3 2.7 1.1 5.3 2.4 8 3.8a316.1 316.1 0 0 0 38.5 18l3 1h.8l1 .7c5.7 3.3 11.3 6.7 16.8 10.2l-.1.3-.1.6v1l.3.9.3.9.3.3a11.8 11.8 0 0 0 1.3 1.2l.8.5a98 98 0 0 1 13.4 4.5l12.9 5.1a65.6 65.6 0 0 1 22.5 15.1c2.5 2.9 4.9 5.8 7.2 8.9a2996.3 2996.3 0 0 1 6.5 8.5 105 105 0 0 1 10.4 18.3 133.6 133.6 0 0 1 7.2 19.8c2.7 11.1 4.7 22.4 6 33.8 1.4 12 2.5 24.2 3.4 36.3a450.8 450.8 0 0 0 5 41.7c1.6 10.9 3 21.7 4.3 32.5v-.2.3a524.2 524.2 0 0 0 .5 4.6l2.8 25.6c1.4 12 3 24 4.8 35.9a286.4 286.4 0 0 0 8 36.1c2 7.7 4.3 15.4 6.7 23 3.6 11.6 6.3 23.3 8.3 35.2a448.7 448.7 0 0 1 5.8 72.2c-.1 12 .3 24.1 1.1 36.2l2.8 35.9c1 12 1.4 24.1 1 36.2-.3 12-.2 24 .1 36l1 36a426.8 426.8 0 0 0 2.3 37.2 4 4 0 0 0 1.6 2.1c.4.3.8.5 1.3.6h.4l.4.1h.5l.9-.3c.4-.1.8-.3 1.1-.6l1-1 .4-1.3c-.9-10.6-1.5-21.1-1.7-31.8l-1-37c-.5-12.8-.6-25.6-.1-38.4.4-11.5.1-23-.8-34.4l-2.7-35c-1-12.4-1.4-24.8-1.3-37.3.1-12.3-.4-24.6-1.5-36.8a580.7 580.7 0 0 0-4-33.3 298 298 0 0 0-7.1-33.9 934.1 934.1 0 0 0-9.3-32.5c-2.5-8.3-4.5-16.9-6-25.6-1.9-11.5-3.5-23-4.8-34.3a17868.2 17868.2 0 0 0-4.3-37.6v-.3a68.6 68.6 0 0 0-.6-5.3 130.5 130.5 0 0 0-1.4-10.8l-4.1-32a718.9 718.9 0 0 1-3.8-36.8 689 689 0 0 0-3.7-36.2c-1.5-11.7-4-23-7.7-34a129 129 0 0 0-15.7-32l-1.4-2.2c-2.8-4.2-5.8-8.2-8.9-12a72 72 0 0 0-26.2-20.7c-6.4-3-12.9-5.7-19.4-8.1-5.8-4.5-11.8-8.6-18.1-12.5h2.1c-3.7-2-7.4-3.9-11.2-5.6ZM368.6 25.9c1.7.7 3 1.7 4.2 3.1 3.2 3.9 5.8 8.3 7.6 13.2 1.1 2.8 2.1 5.7 3 8.6 1.7 5 3 10 3.8 15.2a49.8 49.8 0 0 1-2.4 26.4l-.6 1.7-.4-4a19 19 0 0 0-5.2-11.3c-4-4.2-8.2-8.1-12.6-11.8-3-2.5-5.2-5.6-6.6-9.3a13.9 13.9 0 0 0-9-8.7 82.1 82.1 0 0 0-25.5-3.2c-5.3 0-10.5-.6-15.6-1.7a48.6 48.6 0 0 0-28.6-3.7 56.7 56.7 0 0 1-16.3 1c-6-.5-12-.6-18-.2a24 24 0 0 0-9 2.3c-2 1-3.6 2.4-4.8 4.2a449.2 449.2 0 0 1-9.3 13.7l.3-.3c-.8.7-1.4 1.6-1.9 2.6-.9 1.8-1.6 3.7-2.3 5.6-.5 1.5-1 3-1.7 4.5v-.2a50 50 0 0 1-1.3 3.8l-1.6 5.8a45.4 45.4 0 0 1-3.9 9.5c-.8 2-1.5 3.8-2 5.8a158.5 158.5 0 0 1-3.7-7.4c-.6-1.8-1.2-3.5-1.6-5.4a78 78 0 0 0-1.4-5v-4c0-4.7.5-9.4 1.4-14 .8-4.6 1.9-9.1 3.2-13.6.9-2.7 2-5.4 3.5-7.9 2.1-3.6 4.3-7 6.6-10.5a52.5 52.5 0 0 1 14.7-14.4c1 .3 2.2.3 3.3.3 2.7-.2 5.4-.6 8-1a106.5 106.5 0 0 1 21.7-2.4l12-1.2a2285.6 2285.6 0 0 1 16.6-2.3c5.9-.6 11.7-1 17.6-1.2 6.3-.2 12.4.4 18.6 1.8 2.3.6 4.6 1 7 1.2 5.7.4 11.3 1.9 16.6 4.3h-.2l.6.3c.9.5 1.8 1 2.6 1.7a67.7 67.7 0 0 0 12.6 8.1Zm-20.1 30.8.1.1.2.1.1.2-.1-.2h-.2l-.1-.2Zm-1.4-.2.6.3 1 .3.4.1.2.2.3.1.2.2.2.2 3.3 6c2.1 4 5 7.4 8.4 10.3a226.1 226.1 0 0 1 11.7 10.7l1 1.4.7 1.4c0 1 .2 2 .4 3a39.5 39.5 0 0 1 1 6.5 75 75 0 0 1 1.3 12l.4 18.2c.2 6-.2 12.1-.9 18.2l-1.1 11a61.9 61.9 0 0 1-4.1 17.8c-2.3 5.7-4.4 11.4-6.5 17.1-2 6-4.2 11.5-6.4 16.8-.6 1.5-1.5 2.7-2.6 3.8a43.6 43.6 0 0 1-8.8 6.6l-15.4 8.9a331 331 0 0 0-15.2 9.4l-4 2.2c-5.4 2.3-11.1 3.7-17 4-2.7-.3-5.4-1-8.1-1.8a127 127 0 0 0-17-4.4 187.8 187.8 0 0 1-21.4-5.2c-1.5-.5-3-1.2-4.2-2.2a21.9 21.9 0 0 1-6-8c-2.3-5-4.6-10-7.2-14.8-1-2-2-4-2.8-6-2-5.3-4-10.7-5.5-16.3l-.1-1.5a34 34 0 0 1-.4-3.6c0-1.3-.2-2.6-.5-4v-2a60.7 60.7 0 0 0-.7-7.6v-1c.1-3.4 0-6.8-.6-10.1A33654.9 33654.9 0 0 0 220 143l-3.3-17.4c-1.3-6-1.7-12-1.3-18.2a37 37 0 0 1 5.2-16.3l.6-2 1.7-5.8a56.7 56.7 0 0 1 2.1-6.1l.5-1.3c.5-1.1 1-2.3 1.3-3.5A71 71 0 0 1 228 69v-.2l.3-.6.1-.4a75 75 0 0 0 8.2-11.4l2-2.6a52.5 52.5 0 0 1 2.5-3.2l2.2-.4a232.5 232.5 0 0 0 8.8-1l1.1.2 4.4.4c4.9.3 9.7.4 14.5.3 4.7-.2 9.3-1 13.8-2.3h5.2c2.5.3 4.9.8 7.2 1.6 5.5 2 11 3.3 16.7 4.2 5.7 1 11.4 1 17.2.5l2.6.4c2 .2 4 .6 6 1s4.1.8 6.3 1Zm46.3 55.4a8.7 8.7 0 0 1 5.6 1c1.9 2.4 3.1 5.1 3.8 8.2 1.5 6.8 1.7 13.6.7 20.5a26 26 0 0 1-3.1 9.3c-2.6 4.6-6.4 6.7-11.3 6.5-1.7-1.4-3-3.1-4-5.3 0-.3-.2-.5-.4-.8l.8-6.5c.6-6 .9-12.2.8-18.4l-.3-8c.4-.6.6-1.2.9-1.9l.6-.8 1.6-1.8 1.6-1.3.5-.2.5-.2.5-.2 1.2-.1Zm-186.7 2.3.8.7c0 3.4.4 6.7 1 10 1 5.9 2.2 11.8 3.4 17.7v-.1a463.3 463.3 0 0 1 1.7 11.2l-.8 1.1-1 .6a5.9 5.9 0 0 1-2 .8 14 14 0 0 1-8.8-6.4 38.3 38.3 0 0 1-4.2-8.6 33.3 33.3 0 0 1-.5-20.4l.4-1c.4-.8.8-1.6 1.4-2.4l1.8-2.1.8-.5.7-.5.7-.4 1.5-.3h1.6l1.5.6Zm37.2 114.3h-.1l-.1-.1.2.1Zm-43.5-103a9 9 0 0 0-1.3 5.1 34.7 34.7 0 0 0 2.3 11.8 4.8 4.8 0 0 0 2.7 3.3c1.6.3 2.7-.3 3.5-1.7.2-.5.3-1 .2-1.5-.4-1.5-.8-3-1.4-4.5a19 19 0 0 1-.9-9.4c.1-.6 0-1.3-.3-1.9-.8-2-2.1-2.6-4-1.8-.4.2-.6.4-.8.7Zm5.1 9v.2-.3.2Zm190.8-13c-1.8-1-3.2-.7-4.4 1.1-.2.3-.3.7-.2 1.2.3 2 .4 3.9.3 5.8a61.8 61.8 0 0 1-2 13.5c.1.6.4 1.1.8 1.6.5.5 1 .7 1.7.7 2.1 0 3.4-1 3.9-3.4l1.3-7.2c.6-3.8.6-7.5-.1-11.2-.2-1-.6-1.6-1.4-2ZM308.9 199l-5.9.8-4.4.5a19 19 0 0 1-5 0 103 103 0 0 1-8-1.4c-3.1-.6-5.8-2-8.1-4.2a3 3 0 0 1-.7-1 5 5 0 0 0-4.3-3.3 3 3 0 0 0-2.4.8c-2 1.7-2.2 3.7-.8 6 1.7 2.8 4 5 6.6 6.6 2.7 1.5 5.5 2.7 8.5 3.4 3 .7 6 1.2 9 1.6h2.7l6.9-.6c2.1-.2 4.3-.5 6.4-1v.1H310l.4-.1c2.7-.4 5.4-1 8-1.8 4-1.1 7.5-3.2 10.4-6.2a6 6 0 0 0 1.8-4.2c0-1.2-.5-2.2-1.4-2.9-2-1.6-3.8-1.4-5.6.4l-1.1 1.2a14.3 14.3 0 0 1-5.6 3.5c-2.7.8-5.5 1.5-8.3 1.8h.2Zm36.9-70-.2.1-.2.2.2-.1.1-.2Zm-51.2 14a2 2 0 0 0-1 .5 14.9 14.9 0 0 0-4 6.3 26.2 26.2 0 0 0-.6 14.1c.4 1.5 1 3 1.8 4.4a9.4 9.4 0 0 0 3 3.3c2.6 1.8 5.4 2.7 8.6 2.6 3 0 5.7-1 8.1-3 1.3-1.2 2-2.7 2-4.4 0-1.2-.4-2.1-1.2-2.8-1.8-1.6-3.7-1.6-5.5 0l-.6.6a6.3 6.3 0 0 1-2 1.3h-.8c-.7 0-1.5 0-2.3-.2l-1.9-.8a54.8 54.8 0 0 1-1.4-3 15.2 15.2 0 0 1 2.1-12.6c.8-1.2.9-2.5.3-3.8-.9-2.1-2.4-3-4.6-2.5Zm2.3 19.5.1.4-.1-.2-.1-.4-.2-.3h.1c0 .2 0 .4.2.5Zm-38.1-56-.3.1-4.2.9c-3 .7-5.7 2-8.3 3.8l-3.5 2.5c-1.1.9-2 2-2.8 3.2a5 5 0 0 0-.7 3.1v.1c-.2.8 0 1.6.4 2.3 1.1 1.8 2.4 3.4 4 4.8 2.2 2.2 4.7 4 7.4 5.6 2.7 1.5 5.7 2.3 8.8 2.3 2 .1 4.1 0 6.1-.4l5.4-1.3c3-.8 5.8-2.1 8.3-4 2.6-1.7 4.3-4.1 5.2-7.1l.4-.5c.4-.6.6-1 .7-1.6a4.3 4.3 0 0 0 0-4.2 17.4 17.4 0 0 0-5.3-4.6h.1-.1a33 33 0 0 0-11.5-4.8 26 26 0 0 0-10.1-.1Zm15.1 10.7 3.4 2-1.2 2.4a12.5 12.5 0 0 1-5.9 3.4 18.1 18.1 0 0 0-2.7.9l.2-1a21.7 21.7 0 0 0-.8-10.1l.8.1c2.2.5 4.2 1.2 6.2 2.3Zm-19.1-1.2a22 22 0 0 1 2.2-.6 27 27 0 0 0-.1 11.1l-.3-.1c-2-.6-3.9-1.6-5.6-3a30.8 30.8 0 0 1-3-3.3l.3-.2c2-1.7 4-3 6.4-3.9Zm13.6-21.3h.1a50.7 50.7 0 0 1 6.6 3.4l4.3 3.4c1 .7 2 .9 3 .6 2.5-.7 3.6-2.4 3.2-5l-.3-.6c-.3-.9-.8-1.6-1.6-2a45.5 45.5 0 0 1-3.5-2.7l-.1-.1h-.1v-.1a46.7 46.7 0 0 0-12.6-6 28.8 28.8 0 0 0-12.4-.8c-2.1.3-4.2.8-6.3 1.4-3 .9-5.5 2.6-7.5 5a61.9 61.9 0 0 0-7.4 10.7c-.5.5-.8 1-1 1.6a4.4 4.4 0 0 0-.2 6c.4.4.8.6 1.3.9 1.4.5 2.7.4 3.9-.6 1-.9 1.9-1.9 2.5-3l1.3-2.2a71.9 71.9 0 0 1 6.3-8.7 19 19 0 0 1 8-2.9h.5l.4-.1h3.7c2.5.2 5 .7 7.4 1.6l.6.2Zm68.7 14.9-2.8-1a25.2 25.2 0 0 0-8.7-2c-3-.2-6 .4-8.8 1.5-2.6 1-5.2 2.4-7.6 4h.1-.1a2 2 0 0 0-.6.4c-.4.3-.8.6-1 1-.4.5-.6 1-.8 1.5a4.2 4.2 0 0 0-2.4 3.2c0 .5 0 1 .2 1.4.9 2.5 2.2 4.9 4 7a18.8 18.8 0 0 0 7.6 5.8 29.2 29.2 0 0 0 1.8.8h-.4l1.1.4a31.7 31.7 0 0 0 11.6 1.5c1.4 0 2.8-.3 4.1-.7a44.3 44.3 0 0 0 10.3-4.7 30 30 0 0 0 6.2-6.2c.4-.6.6-1.2.7-2 .3-2.8-.7-5-3.2-6.5a92 92 0 0 0-8.3-4.5l-3-1Zm2.2 9.5-.2-.1.5.2 1.3.7 1.2.7.1.2h.1v.2a9.4 9.4 0 0 1-1.6 1.7 2 2 0 0 1-.3.2h.1l-2 1.1-2.7 1.3c-1.1.5-2.3 1-3.5 1.2l.4-2c.4-2.8.3-5.4-.5-7.8l7.1 2.4Zm-19.2-3.4 1.5-.4-.1.6a25.7 25.7 0 0 0 .9 10.2l-2-.8h-.1l-1.3-.7a11 11 0 0 1-5.1-4.5l.1-.1v-.7c0-.3.1-.5.3-.6a33 33 0 0 1 5.8-3Zm-18.4-16c-1.1 2.2-.6 4.1 1.4 5.6 1.4.8 2.8.7 4.1-.2.4-.2.7-.5.9-.9a25.5 25.5 0 0 1 5.3-6.7A13.7 13.7 0 0 1 320 95l.5-.1a30.5 30.5 0 0 1 9.6-.3c3.7.4 7.2 1.2 10.7 2.6l.5.2-.3-.1c2.3 1 4.3 2.4 6 4 .6.6 1.1 1.3 1.5 2 .9 1 2 1.7 3.3 1.9 2.1.3 3.6-.6 4.3-2.8.3-.7.3-1.5 0-2.3-.6-1.4-1.4-2.7-2.5-3.8a31.1 31.1 0 0 0-16-8.9A67 67 0 0 0 324 86c-3 .2-6 .7-8.9 1.6-3 .9-5.7 2.4-8 4.6a24.6 24.6 0 0 0-5.5 7.6Zm79.1-56.3v.1-.1c0-.1 0-.1 0 0Zm98 852v.2-.2Zm145-163v.2-.5.3Zm-500.2 282.2h-5.3c.6.6 1.4 1 2.4 1 1.2.1 2.1-.2 2.9-1Zm-118.1 0H6 5h.5Zm82.1.2.2-.2h-6l.2.3.4.3.4.3.5.2.5.2.5.1h1l.5-.1c.2 0 .3 0 .5-.2l.5-.2.4-.3.4-.4Zm22-214.9-.1.5v-.5Zm35.6-305.2c0-3.2-1-6-2.6-8.4l-.4-.2-.5-.2-.5-.3a10.3 10.3 0 0 0-2.1 0l-1.3.6c-.5.4-.9.8-1.2 1.4a5 5 0 0 0-.5 2.3l.7 3.6 1 9.1c.2 1.8.6 3.5 1.3 5a664.5 664.5 0 0 0 1.3 54.2l.3 3.2a3.3 3.3 0 0 0-.8.7l-.8 2a58.6 58.6 0 0 0-1.3 10.3 67 67 0 0 1-.9 9.8 761 761 0 0 1-10.6 52.7 840 840 0 0 0-7 28.7 5 5 0 0 0-.8 1.2 2528.6 2528.6 0 0 1-6.5 32.4 265 265 0 0 0-3.8 29.8c-.8 12-1.9 24-3.2 36a2140.8 2140.8 0 0 0-3.8 35.3c-1.1 12-2.7 24-4.8 36-2 11.8-4.6 23.4-8 34.9-3.3 11.6-6.5 23.3-9.6 35a195.6 195.6 0 0 0-6.1 35.3c-.9 12-1.3 23.9-1.2 35.9 0 12.4 3.4 23.6 10.3 33.6h6l.2-.1c0-.3.2-.6.4-.8l.4-1.4a4 4 0 0 0-.6-2.6 42.6 42.6 0 0 1-7.6-19.4 171 171 0 0 1-1.4-20.7c-.1-12.7 1-25.2 3.2-37.6 2.2-12.2 5-24.3 8.6-36.1a691 691 0 0 0 9.3-34.5c2.8-12 5-23.6 6.4-35 1.5-12 2.7-24.2 3.6-36.3 1-11.9 2.1-23.7 3.5-35.4l4.1-34.7a373.3 373.3 0 0 1 7.1-40c.7-2 1-3.7 1-5.3a2096 2096 0 0 0 6.3-23.7c3-11.7 5.5-23.5 7.6-35.5l4.4-24.2c2 11 4.2 21.8 6.5 32.6 2.6 11.8 4.7 23.6 6.2 35.6 1.6 12 1.3 24-.7 35.9-2 11.9-4.4 23.7-7 35.5a199.5 199.5 0 0 0-4.6 35.6c-.5 12.1-.4 24.2.1 36.4.4 9.8 1 19.6 1.5 29.3-1.2.8-1.5 2.4-1.2 4.7-.4 3.6-.9 7-1.5 10.6-.6 3.8-1.1 7.5-1.4 11.4-.7 7.6-1.7 15.2-3 22.8-1.4 7.6-2.6 15.3-3.8 23a431.8 431.8 0 0 1-9.3 45c-2 7.6-3.7 15.2-5 22.8-1.4 7.7-2.6 15.3-3.5 23a81.6 81.6 0 0 0-.1 18c.2.4.5.8.8 1h5.3c.2 0 .4-.3.6-.6.9-1.2 1-2.6.5-4a257.5 257.5 0 0 1 8.5-54.1 477.6 477.6 0 0 0 9.4-46.3l2.9-17.5c1.8 1.2 3.9 2 6.1 2.7 1.6.3 3.1.8 4.7 1.3 4 1.2 8 2 12 2.3 7.3.6 14.4 2 21.4 4 7.2 2.1 14.5 3.2 21.9 3.2 7.5 0 15 .5 22.3 1.4 7.4.9 14.8 1.6 22.2 2.2 7.4.7 14.9 1 22.3 1 7.3 0 14.6.2 21.9.5a787.4 787.4 0 0 0 43.1.3 301.5 301.5 0 0 1 36.2.2c7 .3 14 .2 21-.4a403.8 403.8 0 0 0 46.8-6.6h.2-.1l5.5-.4a111 111 0 0 0 18.7-2.2c.6 4.4 1 8.8 1.4 13.3.6 7.6 1.4 15 2.5 22.1a975.4 975.4 0 0 1 4 29.6l.8 7.3.3 1.4.4 4.3c.5 5.6 1.2 11.2 2.3 16.7 1.1 5.6 3 10.8 5.7 15.7 1.1.9 2.2 1.3 3.3 1.1 1-.1 2-.8 2.8-2 .4-.4.5-1 .4-1.5-1-3.8-2-7.6-3.2-11.5a83.4 83.4 0 0 1-3.3-19.8l-.5-3.3c-.5-3.5-1-7-1.3-10.6-.7-7.8-1.7-15.5-3-23.2a225 225 0 0 1-2.9-22.7c-.5-7.5-1.4-15-2.5-22.6v.1-.4a99.8 99.8 0 0 1-7.6-53.8c-.1-2-1-3.3-2.3-3.8l-.1-.2c.3-1.3.5-2.7.6-4a567 567 0 0 0 .6-53 478.7 478.7 0 0 0-6.5-72.3c-.4-2.7-1-5.3-1.6-8a133 133 0 0 1-1.9-57.2 402 402 0 0 1 18.8-80.5c.5 10.2 1.5 20.5 3 30.6 1.6 12 3.6 24 6 35.7 1.8 8.9 4 17.6 6.9 26 1.8 5.9 3.7 11.7 5.7 17.4a931.9 931.9 0 0 1 11.8 36.1c-.5 3.7-.7 7.3-.8 11-.4 12.1 0 24.2 1 36.2.5 6 1.3 12 2.3 17.8 2 12.2 5.1 24 9.6 35.4a287 287 0 0 1 10.6 33.8c2.9 11.6 6.1 23 9.8 34.4 3.7 11.5 6.3 23.2 8 35.2 1.7 12 2.8 24.2 3.4 36.4.4 12.2.5 24.5.3 36.7a48.5 48.5 0 0 1-4.5 19.2l-1.5 1.1a4.6 4.6 0 0 0-2 4.4c0 2 1 3.2 2.7 3.8h.5l.5.1h.5l.9-.2c.5-.2 1-.4 1.4-.8l1.5-1.4.4-.2.4-.2.4-.3.3-.2.3-.3a9.8 9.8 0 0 0 1-1.7c.4-1.7 1-3.4 1.6-5 1.7-4 2.7-8.1 3-12.4 1-12.2 1.1-24.4.6-36.6-.5-11.7-1.3-23.5-2.6-35.2a219.2 219.2 0 0 0-7-36c-3.3-11.5-6.4-23-9.3-34.7a341 341 0 0 0-11-34.6 285.4 285.4 0 0 1-14.4-56.8v-.1c-.3-3.1-.5-6.2-.6-9.4-.3-14.1-.1-28.3.4-42.5 0-2.6-.6-4.2-2.1-4.8-1.3-5.6-2.9-11.2-4.7-16.7-2-5.9-4-11.7-6.3-17.5-2.2-5.6-4-11.3-5.5-17.1-3-11.6-5.7-23.3-8-35a317.6 317.6 0 0 1-4.7-36c-.9-12-1.9-23.9-3-35.9 0-.8-.2-1.5-.4-2.1 1.3-5 2.4-10 3.1-15.1a149 149 0 0 1 9.6-33.7c.2-.7.3-1.5.1-2.2a4 4 0 0 0-1.9-2.6l-1.2-.5-1.8.1c-.7.2-1.3.6-1.8 1.2-1 1.3-1.8 2.8-2.3 4.4l-3.6 11c-1.4 4-2.4 8.1-3 12.4v-.2c-1.6 9.8-3.7 19.4-6.4 28.9a717.1 717.1 0 0 1-10.5 34.3 276 276 0 0 0-9.1 34.7 364 364 0 0 0-6 41.8c-1.4 12.2-1 24.2 1.4 36.2l1.7 8.9c2.2 11.9 4.2 23.8 6 35.8.8 6 1.3 12 1.4 18a2140.6 2140.6 0 0 0 1.6 54.4c.5 10.4-.3 20.7-2.4 30.7v.1l-2 .8a118 118 0 0 1-31.6 7.3l-4.5 1a76 76 0 0 1-21.5 2c-6-1-12.2-1.8-18.3-2.2-7.3-.5-14.7-.7-22-.6a4568 4568 0 0 0-44.3.4c-7.3 0-14.5-.2-21.8-.6-7.3-.4-14.7-.6-22-.6-7.3 0-14.6 0-21.9-.3-7.3 0-14.7-.2-22-.4-4.6 0-9.1-.4-13.6-1-7.3-1-14.5-1.9-21.5-2.6-7.4-.9-14.8-2-22.1-3.4-2.7-.5-5.3-1.2-8-2.2L154 833c0-11-.4-21.9-1.1-32.8-.6-10.8-.8-21.6-.3-32.3.4-12.1 2-24.1 4.7-36a658.9 658.9 0 0 0 7.3-36 88 88 0 0 0 1.3-23.7c-.9-10.6-2-21-3.4-31.2a282.8 282.8 0 0 0-6.9-34.9c-1.5-5.6-2.7-11.3-3.6-17a356.6 356.6 0 0 1-4.2-41.3c-.3-12.5-.7-24.9-1.2-37.2 0-.4.2-.7.3-1a19 19 0 0 0 .3-2.8l-.1-1.6-.3-.6-.3-.8c-.8-3-1.3-6-1.3-9Zm237.4 361.4c1.8 0 3.6.3 5.3.6a103.3 103.3 0 0 0 25 1.7c2.6-.3 5.1-.8 7.6-1.5a46.9 46.9 0 0 1 7.4-1.7h-.2l1.6-.2a255.8 255.8 0 0 0 9.6-1.4h-.1c2.8-.4 5.5-1 8.3-1.5a74.7 74.7 0 0 0 16.3-5.5c1.2 7.7 2.4 15.3 3.4 23a491 491 0 0 0 3.6 23.6 26 26 0 0 0-4.2.7c-3.3.7-6.7 1-10.1 1.1a53.1 53.1 0 0 0-10 1l-3.6.6a112.5 112.5 0 0 0-12.4 2l-14.3 2.3a143 143 0 0 1-22 1.8l-22.2-.3h-16.2c-3.6.2-7.2.2-10.8.1-7.3-.2-14.6-.2-21.9 0-7.3.2-14.6.1-21.8-.2-7.3-.3-14.6-.4-22-.4-7.3 0-14.5-.3-21.8-1-7.4-.7-14.9-1.4-22.3-2.3-7.3-.8-14.5-1.2-21.8-1.2a78 78 0 0 1-21.9-3.2c-7.2-2-14.5-3.5-21.9-4.4A83 83 0 0 1 147 884c1.2-6.8 2.2-13.7 2.8-20.7a188 188 0 0 1 3.1-22 65 65 0 0 0 17.7 6c7.2 1.2 14.4 2.3 21.7 3l21.9 2.7c4.5.6 9 1 13.6 1l22.1.5c7.5.2 15 .2 22.4.2 7.3 0 14.6.2 21.9.6 7.4.4 14.9.6 22.3.6l22.1-.2 22.2-.2c7.3 0 14.6.2 21.8.6Zm99.8-340.5v-.1.1Zm.3 82-.1-.3v-.3.6ZM237 233v-.1.2l.3.2-.3-.3Z"/><path fill="#fff" d="m256.8 115.4-2 .6c-2.4 1-4.6 2.2-6.6 3.9h.1l-.3.2-.1.1c1 1 2 2.1 3.2 3.1a15.4 15.4 0 0 0 5.8 3.2l-.3-1a27 27 0 0 1 .1-10Zm20.4 3.8a23.3 23.3 0 0 0-10.4-4.4c.2.2.2.4.3.7.9 3 1.1 6.2.6 9.4l-.2 1 .4-.2 2.3-.7c2.3-.5 4.3-1.7 6-3.4l1-2.4Zm44.4-4-1.5.5c-2 .8-4 1.8-5.8 3-.2.1-.3.3-.3.6a5.3 5.3 0 0 1 0 .9 11 11 0 0 0 5 4.4l1.3.7 2.1.8-.3-.7a25.7 25.7 0 0 1-.5-10.1Zm17.5 3.8.2.1a157 157 0 0 1-7.1-2.4 17.3 17.3 0 0 1 .1 9.8c1.2-.3 2.4-.7 3.5-1.2l2.8-1.3a12.3 12.3 0 0 0 2.1-1.3l.3-.3 1.3-1.4v-.2l-.2-.1c-.4-.4-.8-.6-1.2-.8l-1.3-.7-.5-.2Z"/><path fill="#87441D" d="M372.8 29a10.7 10.7 0 0 0-4.2-3.1 48.2 48.2 0 0 1-12.7-8 14.8 14.8 0 0 0-3.1-2.1h.1a48.3 48.3 0 0 0-16.5-4.3c-2.4-.2-4.8-.6-7-1.2-6.1-1.4-12.3-2-18.6-1.8a211.8 211.8 0 0 0-22 1.8L276.7 12l-12 1.2a248 248 0 0 1-15 1.2l-6.7 1.1c-2.6.5-5.3.9-8 1-1.1.1-2.2 0-3.3-.2a13.9 13.9 0 0 0-3.8 2.7l-.7.6a52.6 52.6 0 0 0-10.2 11.1c-2.3 3.4-4.5 7-6.6 10.5a42.2 42.2 0 0 0-3.6 8c-1.2 4.4-2.3 8.9-3.1 13.5a79.9 79.9 0 0 0-1.4 18 78 78 0 0 1 1.4 5 37.1 37.1 0 0 0 3.2 8.7l2.1 4a44.9 44.9 0 0 1 4-9.8c.8-1.7 1.4-3.5 2-5.4a188.9 188.9 0 0 0 2.5-8.6l.3-1v.2l1.8-4.5c.6-2 1.3-3.8 2.2-5.6.5-1 1-1.9 1.9-2.6a54.5 54.5 0 0 1 .1-.1l8.9-13.3c1.2-1.8 2.8-3.3 4.8-4.2a24 24 0 0 1 9-2.3c6-.4 12-.3 18 .2 5.5.4 10.9 0 16.3-1a48.6 48.6 0 0 1 28.6 3.7c5 1 10.3 1.6 15.6 1.7a82.1 82.1 0 0 1 25.5 3.2c4.3 1.4 7.3 4.3 9 8.7 1.4 3.7 3.7 6.8 6.7 9.3 4.3 3.7 8.5 7.6 12.5 11.8 3 3.1 4.7 7 5.2 11.4l.4 3.9.6-1.7c.8-2.8 1.6-5.6 2.1-8.5 1.2-6 1.3-12 .3-17.9-.8-5.2-2-10.2-3.8-15.2-.9-2.9-1.9-5.8-3-8.6a45.4 45.4 0 0 0-7.6-13.2Zm8 14.5v-.1c0-.1 0-.1 0 0v.1Z"/><path fill="#CCC" d="M332.4 911c-3.3 0-6.6 0-9.9.2-7.4-.1-14.9-.3-22.3-.6-7.2-.3-14.5-.4-21.8-.4-7.4 0-14.8-.4-22.3-1-7.4-.7-14.8-1.4-22.2-2.3-7.4-.9-14.8-1.3-22.3-1.4-7.4 0-14.7-1.1-21.8-3.2-7-2-14.3-3.4-21.6-4-4-.3-8-1.1-11.9-2.3a79 79 0 0 0-4.7-1.3c-2.2-.6-4.3-1.5-6.1-2.7l-3 17.5a593 593 0 0 1-9.3 46.3 298 298 0 0 0-7.3 39c-.6 5-1 10-1.3 15 .6 1.5.5 2.9-.4 4.1v.7h368.2v-1.6c-1 .2-2.2-.2-3.3-1.1a54.3 54.3 0 0 1-5.7-15.7 156.5 156.5 0 0 1-2.8-21l-.2-1.4a135.8 135.8 0 0 1-1.3-13.4c-1-7.8-2.2-15.7-3.5-23.5-1-7.1-2-14.5-2.5-22.1-.3-4.5-.8-9-1.4-13.3-2.6.4-5.3.9-8 1.2-3.5.5-7.1.8-10.7 1a79.2 79.2 0 0 0-12.4 1.4 43.7 43.7 0 0 0-1.9.3 316.2 316.2 0 0 1-38.1 5.3c-7 .6-14 .7-21 .4a335.6 335.6 0 0 0-36.2-.2c-3.7.2-7.3.2-11 .2Zm55.6-54.3-5.4-.6c-7.2-.4-14.5-.6-21.8-.6a4642 4642 0 0 0-44.4.4c-7.3 0-14.8-.2-22.2-.6a419 419 0 0 0-21.9-.6c-7.4 0-14.9 0-22.4-.2l-22.1-.4c-4.6-.1-9.1-.5-13.6-1-7.3-1-14.6-2-22-2.7-7.2-.8-14.4-1.9-21.6-3.2a65 65 0 0 1-17.7-5.8 188 188 0 0 0-3.2 21.9c-.5 7-1.5 13.9-2.7 20.7l.8.3a83 83 0 0 0 21.4 5.5c7.4.9 14.7 2.4 21.9 4.4a78 78 0 0 0 21.9 3.2c7.3 0 14.5.4 21.8 1.2 7.4.9 14.9 1.6 22.3 2.3 7.3.7 14.5 1 21.8 1 7.4 0 14.7.1 22 .4 7.2.3 14.5.4 21.8.2 7.3-.2 14.6-.2 21.9 0h10.8c5.4-.2 10.8-.2 16.2 0l22.1.2c7.4 0 14.8-.7 22.2-1.8l14.3-2.3h-.1l5.7-1a111.7 111.7 0 0 1 10.3-1.6h-.5c3.5-.6 7-1 10.5-1 3.4 0 6.8-.4 10.1-1.1a26 26 0 0 1 4.2-.7l-.1-.6c-1.4-7.6-2.6-15.3-3.6-23a747.5 747.5 0 0 0-3.3-23.1 74.6 74.6 0 0 1-24.6 7.1h.1a472 472 0 0 1-11.2 1.6h.2a35.9 35.9 0 0 0-7.4 1.7 45.1 45.1 0 0 1-10.4 1.7c-7.4.2-14.8-.5-22.2-1.9Z"/></svg>