<svg xmlns="http://www.w3.org/2000/svg" width="663" height="1024" fill="none"><g clip-path="url(#a)"><path fill="#DE9E71" d="M451.6 320h.8a228 228 0 0 1-22.4-13.8c-4.7-3.3-9.5-6.3-14.5-9l-.7-.3h-.3l-.1-.1h-.1l-1.8-1-1.6-.7a21.3 21.3 0 0 0-4.8-4h-.2v-.1a16.6 16.6 0 0 1-3.5-3.7 50.1 50.1 0 0 1-7.7-8.2c-1-1.2-1.8-2.6-2.6-3.9a52 52 0 0 1-6.6-17.1 150.5 150.5 0 0 1-2.8-24.4c-3 2-6 4-9 5.7-5.3 3-10.6 6.3-15.8 9.6-5.3 3.3-10.6 6.5-16 9.4a25 25 0 0 1-6.3 2.3c-4.5 1-8.9 1.6-13.4 1.7-5.7-1.2-11.4-2.6-17-4.3a84 84 0 0 0-8.8-2.2c-5.6-1-11.2-2.5-16.6-4.3h.1-.3c-2.3-.3-4.4-.9-6.4-1.7a16.6 16.6 0 0 1-.3 1.8 92.3 92.3 0 0 1-1.3 21l-.4 1.5a32 32 0 0 1-1 3.2 3 3 0 0 1-.2-.4l-.1.3a5.7 5.7 0 0 1-2 3.7 76.5 76.5 0 0 0-1.3 1.3 20 20 0 0 1-2.5 2.5v-.6a59.1 59.1 0 0 1-10.3 6.4c-2.3 1.4-4.7 2.7-7 3.9a194.6 194.6 0 0 0-14.7 8.1l-3.4 2a686.5 686.5 0 0 0-12.4 6.4 103.6 103.6 0 0 1-3.2 1.4 376.3 376.3 0 0 0-17.4 8.1l-.4.2h.1a445.8 445.8 0 0 0-13 6.1l.5.4c-5.7 2.7-11.4 5-17 7-4.7 1.6-9.3 3.6-13.8 5.8-11.7 5.8-23.3 11.7-34.8 17.8a78.7 78.7 0 0 0-37.9 46.3 601 601 0 0 0-10.8 42.3 261.8 261.8 0 0 0-3.5 19.1c-.8 6.7-1.7 13.3-2.8 20a351.4 351.4 0 0 0-3 23.2v.2l-.3 2.6c0 .9 0 1.8-.2 2.7l-.3 1.5a156.4 156.4 0 0 0-1.3 1.5l-.4.2a974 974 0 0 1-5 37c-2 13.3-3.8 26.6-5.2 40-1.5 14.4-3.2 28.7-5.2 43l-5.8 42.2c-1.8 13.8-3.5 27.5-4.9 41.3-1.5 13.8-3 27.5-4.7 41a688.6 688.6 0 0 0 1.2 177c1.7 12.4 3.3 25 4.6 37.6.6 5 1 10 1.1 15.1.5 13.4.8 26.8.9 40.2h70.8a119.4 119.4 0 0 1-4-38.7 430 430 0 0 1 3.7-35.2c1.5-10.2 3.7-20.2 6.4-30.1l5.1-19.7c3.4-13.1 5.9-26.4 7.7-39.8l5-40.5c1.8-13.7 2.7-27.6 2.8-41.4.1-13.5.5-26.9 1.1-40.3a266 266 0 0 1 5-40.7l1.7-9.5a179 179 0 0 1 10.8-38.6l.5-1.3.3-1.1.4-1.4c1.2-13.3 3.3-26.3 6.1-39.3a192.6 192.6 0 0 0 4-27l.5-.8c-6-8.2-8.8-18-8.4-29.4 0-3.4 0-6.9-.3-10.4-.6-10.1-.7-20.3-.2-30.6.5-9.4.8-18.6.8-27.7 0-3.2 1-6.1 2.6-8.8l.4-.3c.2 0 .3-.2.5-.3l.4-.3.5-.1.5-.1a2.6 2.6 0 0 1 1 0h.6l.5.3.5.2a5.2 5.2 0 0 1 .8.7l.3.4.3.5.3.4.1.6a38.8 38.8 0 0 1 .2 1.3 147 147 0 0 0-2.5 21.4c-.5 15-.5 29.8 0 44.7a96.4 96.4 0 0 0 5.6 29c1.1 3 2.8 5.7 5.2 7.8a43.3 43.3 0 0 0 29.8 11.7c3.4 0 6.8 0 10.2-.2a91 91 0 0 0 39.8-10.3 516 516 0 0 1 13.2-6.6c5.2-2.6 10.5-5.3 15.8-7.8l16.2-8.3a6.8 6.8 0 0 1 5-.7l.5.3.4.3.3.2.4.4.3.4.3.4.1.5a4.2 4.2 0 0 1 .3 1v1l-.1.5-.1.5a6.9 6.9 0 0 1-.5.9l-.3.4-.4.3a3.4 3.4 0 0 1-1.6 1l-.4.1H299.7c-4 2.3-8.3 4.5-12.6 6.4a200 200 0 0 0-13.9 7.2l-4.8 2.4c-8.1 3.9-16.3 7.6-24.5 11.2-9.3 4-18.9 6.2-28.8 6.7l-6.7.3a67 67 0 0 1-40-12 190 190 0 0 1-4 25 224.1 224.1 0 0 0-5.3 34.3c.1 1.7 0 3.3-.5 4.7l-.2.8c-.5 15.1-.7 30.2-.5 45.3a431 431 0 0 1-1.6 43c-1 12-2.4 23.8-4.2 35.7-2 13.1-2.8 26.4-2.5 39.7.2 9.2 1.3 18.3 3.3 27.2 10 2.1 19.6 5.5 28.9 10 4.2 2 8.3 4.5 12.1 7.3a67.3 67.3 0 0 0 16.5 9c11.8 4.4 23.8 7.5 36.1 9.4l25.3 3.6c9.4 1.3 19 1.4 28.6.4a244.8 244.8 0 0 1 39-1.4c10 .5 19.9 2.6 29.4 6.5A79.4 79.4 0 0 0 394 900c5.3.3 10.4-.3 15.5-1.8 13-3.8 25.4-9.1 37.3-15.9a116.7 116.7 0 0 1 19.8-8.9c2.8-1.5 5.7-3.1 8.4-4.8 2.1-1.2 4.2-2.6 6.3-4.1 2.2-1.6 4.7-2.9 7.3-3.7l.4-.3-.2.2 1.1-.8c.6-.3 1.3-.5 2-.6l3.4-.1h.7c.7-.3 1.5-.4 2.3-.4a18.4 18.4 0 0 1 4.8 1c3-13 4.8-26.2 5.2-39.5.4-13.6-.4-27-2.4-40.4-1-7-1.7-13.8-1.9-20.8a951 951 0 0 1-.3-41.4c.1-6.9.5-13.8 1.1-20.6a1089.4 1089.4 0 0 0 2.6-37.7v-.3l.2-3.7 2.1-41.2c.3-6 .3-12 0-17.8-2 1.6-4.3 3.1-6.9 4.4-4.9 2.4-10 4-15.3 5a67 67 0 0 1-20.4.4l.6.1a155.7 155.7 0 0 1-74.4-20.5 425.1 425.1 0 0 1-28.7-17.7l-1.8-.7c-.5-.2-.9-.4-1.3-.8a153.5 153.5 0 0 1-1.2-2.7 2.5 2.5 0 0 1 0-1 99 99 0 0 1 .5-1.4 7.3 7.3 0 0 1 1.4-1.5 6.6 6.6 0 0 1 1.3-.6l.4-.1h1l33.4 19.3a136.2 136.2 0 0 0 36 14.7c12.8 3.2 25.8 5 38.9 5.3 12 .4 23-3 33.2-10a46.2 46.2 0 0 0 2.9-5 49 49 0 0 0 5.2-24.2c-.1-3.5 0-7 .4-10.5 1.3-13 .8-25.7-1.3-38.4-1-5.7-2.1-11.4-3.5-17-.3-1.2-.2-2.3.3-3.3 0-.2.1-.3.3-.4 0-.2.1-.3.3-.4a62 62 0 0 1 1.1-1l.4-.2.4-.1a9 9 0 0 1 1-.2h.5a9.6 9.6 0 0 1 1 .3 50.5 50.5 0 0 0 1.1.8l.4.4.3.4.2.4.3 1 .2 1v1.2c4.3 12 6.2 24.5 5.7 37.7-.5 13.3-1.2 26.5-2 39.8-.4 6.7-2 12.5-4.9 17.4 1.9 12.3 2.3 24.8 1.1 37.5-1 11.3-2 22.7-2.7 34l5.8 14.6a170.3 170.3 0 0 1 8.1 26.7 67 67 0 0 0 1.4 8.2l.1.8v-.4c2.3 12.9 4 25.5 5.1 38 .3 2.7.3 5.4.2 8.2-.7 13.9-.2 27.7 1.6 41.5l5.1 40.2a900.2 900.2 0 0 0 12.8 78c2.7 13.4 5 26.8 7.3 40.2 1.6 10.2 3 20.4 4 30.7 1.3 13.6 1.7 27.2 1.1 40.8v4.4h64.9l4.3-39c1-10 1.5-20.2 1.6-30.4.2-13.4.7-27 1.7-40.4a655.2 655.2 0 0 0 0-82.4 1465 1465 0 0 1-2.1-39.5c-.5-13.5-1.5-27-3-40.3a1869.5 1869.5 0 0 1-6.7-73.6l-.1-1.1a1598.2 1598.2 0 0 1-7.7-75.6c-1-13.4-2.2-26.9-3.7-40.3a242.5 242.5 0 0 0-5.9-33.6l-.3-.3-.3-.5a156.4 156.4 0 0 1-.5-.8l-.1-.5a9.5 9.5 0 0 1-.1-1c-1.3-10-3-19.8-5.3-29.7a778.5 778.5 0 0 1-7.5-40.1c-1.1-7-2.6-14-4.5-20.8-3.7-13.2-8.4-26-14.1-38.4-5.7-12.5-13-23.7-22-33.7-4.5-5-9.6-9-15.4-12.4a152 152 0 0 0-35.8-14.8c-2.3-.6-4.6-1.4-6.8-2.3a5487 5487 0 0 0-35.8-14.5c-3-1.1-5.8-2.6-8.6-4.3l-2.4-1.4ZM207.8 564.6l.5-.1.4-.2h.5l.5-.1a16 16 0 0 1 4.9 1.3l.3.2.7.7.5.8.4 1v2l-.2.5a376 376 0 0 0-1.1 1.6 1 1 0 0 1-.3.3l-.5.3-.3.2-.5.2-1.7.2a70.8 70.8 0 0 0-3.7-.3l-.4-.1-.5-.2-.8-.6a4.5 4.5 0 0 1-.8-1.2l-.3-.4-.1-.5a9.7 9.7 0 0 1-.2-1 3.1 3.1 0 0 1 .3-1.2l.1-.6a49.8 49.8 0 0 1 1.9-2.5c.2 0 .3-.2.4-.3Zm28.4 121.3h-.5c11.7-1 22.9-4 33.7-8.5 4.4-1.9 8.5-4.3 12.3-7.4l22.9-19.2h1.5l.4.2a5.7 5.7 0 0 1 1.6 1l.3.5c.2.1.2.2.3.4l.3.5.1.5.1.6V656.1l-.3.5-.2.5-.3.4a185.3 185.3 0 0 1-27 22.4 79 79 0 0 1-36.3 13.3 1407.9 1407.9 0 0 0-7.2.8l-.4.1-3.8.5c-1.7.1-3.3.2-5 .1h-1.9l-16.3-1.4a70.6 70.6 0 0 1-15.9-3.5c-1.7-.5-3.2-1.3-4.7-2.4l-.3-.4c0-.2-.2-.4-.3-.5l-.2-.5-.2-.5v-.5a3.1 3.1 0 0 1 0-1.2 16.5 16.5 0 0 1 .2-1l.3-.6a5.7 5.7 0 0 1 .6-.9l.3-.3c.2 0 .4-.2.5-.3l.4-.3.6-.1a26.4 26.4 0 0 1 1.2-.2c5.8 2.5 11.8 4 18 4.6 6.7.7 13.3 1.2 19.9 1.4 1.8 0 3.5-.1 5.3-.3Zm-117.7 54-.3.5c0 .2-.2.3-.3.5a80.3 80.3 0 0 0-1.2 1 2 2 0 0 1-.4.3l-.5.2h-.5l-.5.1h-.5l-.6-.1A59.6 59.6 0 0 1 90.3 728a7.3 7.3 0 0 1-2.2-3.8l.1-1.7a5 5 0 0 1 1.6-2.6l.8-.6.5-.1.5-.1.4-.1h1a89 89 0 0 1 1.3.6c.2 0 .3.2.4.3.2 0 .3.2.4.3l.4.5.2.4.3.5.1.5a55 55 0 0 0 19.8 11.9c1.3.5 2.1 1.4 2.6 2.7a12.4 12.4 0 0 1 .3 1v1l-.1.5-.3.5Zm159-26.8.4.2.5.2.5.3c0 .2.2.3.3.4l.4.4a5.7 5.7 0 0 1 .5 1l.1.5a23 23 0 0 1 .2 1.1v.6l-.1.5-.2.5a7.7 7.7 0 0 1-.9 1.4l-.3.4c-7 6-13.8 12.2-20.5 18.6a489.9 489.9 0 0 1-21.7 19.2l-.5.1a16.7 16.7 0 0 1-1.1.2h-.5l-.5-.2-.5-.2-.5-.2a5.2 5.2 0 0 1-.8-.7 156.4 156.4 0 0 1-1-1.9 17 17 0 0 1-.2-1v-.5l.1-.5.1-.4a6 6 0 0 1 .4-1c6.9-6 13.8-12 20.6-18.3a467 467 0 0 0 18.3-17.6c1.6-1.6 3.5-2.7 5.6-3.3l.6.1.6.1Zm96.2-56.1.4-.4.6-.2.7-.2c9 3 18 6.4 27 10.3a234 234 0 0 0 36.7 12.3 52.1 52.1 0 0 0 41.6-6.8c3.2-2 6.4-3.8 9.6-5.4h1.1l.5.1.5.2c.2 0 .3.2.5.3a5.5 5.5 0 0 1 .8.6 4 4 0 0 1 .6.9l.3.5.1.5a99 99 0 0 0 .1 1.7 99 99 0 0 0-.5 1.5c0 .2-.2.3-.3.5l-.3.5c-5.2 3.4-10.5 6.5-16 9.3a52.9 52.9 0 0 1-25.2 5.5c-12-.9-23.7-3.3-35.1-7.2a296 296 0 0 1-33.1-13.5 74.4 74.4 0 0 0-10-4c-.4-.1-.8-.4-1.1-.8a4.6 4.6 0 0 1-1-2.6l.1-1.4.2-.5.2-.5.3-.5a3.4 3.4 0 0 1 .7-.7Zm-15 56.5.4-.4c0-.2.2-.3.3-.4l.4-.4a5.4 5.4 0 0 1 .9-.6l.5-.1.5-.1c11.4 2.8 22.8 5.5 34.4 8 10.9 2.5 21.8 5 32.6 7.9 3.5 1 6.6 2.6 9.4 5l.3.4.2.4.1.6.2.5v1.2l-.1.5-.2.5c0 .2-.2.4-.3.5 0 .2-.1.3-.3.5a4 4 0 0 1-.7.8 2 2 0 0 1-.4.2 2 2 0 0 1-.5.3l-.5.2-.5.1h-1.5l-.5-.3c-.2 0-.3-.1-.5-.3-9.8-4.6-20.2-7.7-31-9.4-10.8-1.7-21.5-4-32-7l-9.7-2.7-.4-.4-.4-.4c-.1 0-.3-.2-.3-.4a2.2 2.2 0 0 1-.6-.9l-.1-.5a17 17 0 0 1-.2-1.1v-.6l.2-.6c0-.1 0-.3.2-.5l.1-.5Zm-9.4 88.4.3 1v.5l-.1.5-.1.5-.1.4a8 8 0 0 1-.9 1.3l-.3.4a6.8 6.8 0 0 1-1.8.8 8 8 0 0 1-.9.1h-.5a9 9 0 0 1-.9-.3l-4.4-2.6-3.5-1.9a20 20 0 0 0-8.4 1.6 41 41 0 0 0-4 2h-.3a54.2 54.2 0 0 0-2.2 1.4l-1 .3a2.4 2.4 0 0 1-1 0l-1-.4c-.3 0-.5-.2-.8-.4l-.4-.2-.3-.4-.3-.4-.3-.5-.2-.4-.1-.5a9.5 9.5 0 0 1-.2-1l.1-.5v-.4l.2-.5a5 5 0 0 1 1.4-2c.6-.7 1.3-1.1 2.1-1.5l.6-.2.4-.2c4.2-2.1 9-3.4 14.5-3.8 3.1-.3 6 .5 8.9 2.3l4.6 3.3.5.8.4 1Zm110.3-232.2a5.1 5.1 0 0 1 .5-1.3l.3-.5c.2 0 .3-.2.4-.3l.3-.3.4-.3.5-.2c1.4-2.2 3-2.2 5.1-.2a50 50 0 0 1 1.8.4l.8.6.7.8.3.4.1.4.1.5a12.4 12.4 0 0 1 .2 1l-.2 1a5.3 5.3 0 0 1-.5 1.4l-.3.5a93.3 93.3 0 0 1-.8.6l-.4.3c-.7.4-1.5.6-2.4.6a89 89 0 0 0-4-.3l-.6-.1-.3-.2-.8-.6-.7-.8-.3-.4-.1-.4-.1-.5a9.5 9.5 0 0 1-.2-1l.2-1ZM590.2 707l.4.9.1.5.1.5v1l-.1.5a47 47 0 0 1-14.9 13 141.3 141.3 0 0 1-19.5 8.8h-1a73.4 73.4 0 0 1-1.5-.6l-.4-.3c-.2 0-.3-.2-.4-.3l-.4-.4-.2-.4-.3-.5a6 6 0 0 1-.1-1 4.9 4.9 0 0 1 0-2l.1-.5.3-.4.3-.4 16.7-8.6c4.8-2.4 9.2-5.5 13-9.4 1-1 2-1.7 3.3-2.3l.9-.1h1.4c.1.2.3.2.5.3l.4.2.4.3.4.4.5.8Zm-361-584.9-.6.4-.8.6-.8.5a26 26 0 0 0-1.8 2.1c-.5.8-1 1.6-1.3 2.5l-.4 1-.3 1.4c-1.5 6.5-1.3 13 .8 19.4 1 3 2.4 6 4.2 8.7a14 14 0 0 0 8.7 6.6c.4 0 .7-.1 1-.3a6 6 0 0 0 1.1-.5l.9-.7.8-1.1a170 170 0 0 0-1.6-11.4c-1.3-6-2.4-12-3.4-18-.6-3.3-1-6.7-1.1-10.1a5 5 0 0 1-.8-.8l-1.5-.5c-.5-.1-1-.2-1.6-.1l-1.4.3Zm-.9 11.3c1.9-.8 3.3-.2 4.1 1.8.3.6.3 1.3.3 2-.5 3.2-.2 6.4.9 9.5.5 1.5 1 3 1.3 4.6.1.5 0 1-.2 1.5-.7 1.5-1.9 2-3.4 1.7a4.9 4.9 0 0 1-2.8-3.3l-.7-2.4a36 36 0 0 1-1.6-9.6c0-2 .4-3.7 1.4-5.2.1-.3.4-.5.7-.6Zm201.6-4c-.6-3-1.9-5.8-3.8-8.3-.9-.5-1.8-.8-2.8-1-1-.2-1.9-.2-2.8 0l-1.1.1-.5.2a251.2 251.2 0 0 0-1 .4 16.6 16.6 0 0 0-3.9 4c-.2.7-.5 1.3-.8 1.8l.2 8.3a147.5 147.5 0 0 1-1.5 25.4l.4.8c1 2.2 2.3 4 4 5.4 4.9.2 8.6-2 11.3-6.6a27 27 0 0 0 3-9.5c1-7 .8-14-.7-21Zm-6.5.5a3 3 0 0 1 1.4 2.1c.6 3.8.7 7.6 0 11.4a285 285 0 0 1-1.3 7.3c-.4 2.4-1.7 3.6-3.9 3.6-.6 0-1.2-.3-1.7-.8a3 3 0 0 1-.8-1.6l.1-1.8.4-.7a64.4 64.4 0 0 0 1.5-18.4c1.1-1.9 2.6-2.2 4.3-1ZM284.8 56.7a61.2 61.2 0 0 1-5.7-.5 228.8 228.8 0 0 1-8.7 1c-.7 0-1.5.2-2.2.4 0 .1-.1.2-.3.2l-.2.2a53 53 0 0 0-2 2.8l-1.9 2.7-.1.1-.1.2v.2l-3.2 4.6a76.8 76.8 0 0 1-5 7 12 12 0 0 1-.3.6v.1l-1.2 3.5a35 35 0 0 1-1.3 3.6l-.4 1.3v-.3c-.8 2.1-1.5 4.3-2.1 6.5a171.4 171.4 0 0 1-2.4 8c-3 5-4.7 10.6-5.1 16.6-.4 6.3 0 12.4 1.2 18.6a636.2 636.2 0 0 1 5.1 29.6c.5 3.4.7 6.8.5 10.3v1a28.1 28.1 0 0 1 .8 7.8v2.1l.5 4c0 1.2.2 2.5.4 3.7v1.5a168 168 0 0 0 8.3 22.7c2.6 5 5 10 7.2 15 1.4 3.3 3.4 6 6 8.2a11 11 0 0 0 4.3 2.3 47.8 47.8 0 0 0 3.8 1c5.7 1.7 11.6 3.1 17.5 4.3 5.8 1 11.4 2.6 17 4.5 2.7.9 5.4 1.5 8.2 2a47.7 47.7 0 0 0 21-6.5c5-3.3 10-6.5 15.2-9.6l15.4-9c3.2-1.9 6.1-4.1 8.8-6.8 1-1 2-2.3 2.6-3.8 2.2-5.4 4.3-11.1 6.4-17.1 2-5.9 4.2-11.7 6.4-17.5 2.3-5.8 3.7-11.9 4.2-18.2l1-11.2c.8-6.2 1.1-12.4 1-18.5l-.4-18.6a78 78 0 0 0-1.5-13.9c-.2-1.6-.4-3.3-.8-5l-.5-3a6 6 0 0 0-.7-1.4 13.7 13.7 0 0 0-1.8-2.4c-3.5-3.5-7.1-6.8-10.8-10a34.2 34.2 0 0 1-8.4-10.4 177.8 177.8 0 0 0-3.8-6.6l-.3-.1-.1-.2h-.4l-1-.3a70.7 70.7 0 0 0-15.5-2.8c-5.8.6-11.5.4-17.3-.5-5.6-1-11.2-2.4-16.7-4.3a31.3 31.3 0 0 0-12.3-1.7 54.4 54.4 0 0 1-13.9 2.3c-4.8.2-9.6 0-14.4-.3Zm44 51a25 25 0 0 1 5.6-7.8c2.3-2.2 5-3.8 8-4.7a42 42 0 0 1 13.4-1.6c3 .3 6 .8 9 1.4a31.9 31.9 0 0 1 16 9c1.1 1.2 2 2.5 2.6 4 .3.8.3 1.5 0 2.3-.8 2.2-2.2 3.1-4.3 2.8a4.6 4.6 0 0 1-3.3-2l-1.5-1.8a20.3 20.3 0 0 0-6.2-4.3 43.2 43.2 0 0 0-18.3-2.7c-.7 0-1.3.2-2 .3l-.6.1-2.2.5a13.5 13.5 0 0 0-4.8 2.4 26 26 0 0 0-5 6.6c-.1.4-.4.7-.8 1-1.4 1-2.8 1-4.2.2-2-1.6-2.4-3.5-1.3-5.8Zm-46-15.3h.5c3.8-.5 7.5-.2 11.1.9a46.2 46.2 0 0 1 12.8 6.1l.2.2.6.5.4.3a551.1 551.1 0 0 1 2.5 1.9c.7.5 1.3 1.2 1.6 2l.2.6c.4 2.7-.6 4.5-3.1 5.2-1.1.3-2.1 0-3-.6l-4.4-3.5a24 24 0 0 0-6.6-3.4l-.6-.2c-2.4-1-4.8-1.5-7.4-1.7a25.8 25.8 0 0 0-4 0h-.1a18.8 18.8 0 0 0-8.4 3l-.9.9c-2 2.5-3.8 5.2-5.5 8l-1.2 2.2c-.7 1.2-1.5 2.3-2.6 3.1a3.4 3.4 0 0 1-3.8.6l-1.3-.8a4.6 4.6 0 0 1-.5-5.4l.6-.8 1-1.7a25.3 25.3 0 0 1 1-1.3c1.9-3.4 4-6.5 6.4-9.5 2-2.5 4.6-4.2 7.6-5.1 2-.7 4.1-1.1 6.3-1.4l.7-.1Zm24.8 27.2c2.1 1.3 3.9 2.8 5.3 4.7l.4 1c.3 1.4.1 2.5-.4 3.4-.1.5-.4 1-.8 1.5 0 .2-.2.4-.4.6a14 14 0 0 1-5.1 7.3 25.3 25.3 0 0 1-8.3 4c-1.8.5-3.6 1-5.4 1.3-2 .4-4 .6-6.1.4-3.2 0-6.1-.8-8.9-2.3a37.9 37.9 0 0 1-7.4-5.7 23 23 0 0 1-4-5c-.4-.6-.5-1.4-.4-2.3 0-1 .2-2.1.8-3.2a9.9 9.9 0 0 1 2.8-3.2 243 243 0 0 0 3.5-2.6c2.5-2 5.3-3.2 8.3-4a174.8 174.8 0 0 1 4.4-.9c3.4-.6 6.8-.6 10.2.1a32.5 32.5 0 0 1 11.4 5Zm36.4-3.4c2.8-1.1 5.8-1.7 8.8-1.6 3 .2 5.9.8 8.7 2a36.5 36.5 0 0 0 5.7 2c2.7 1 5.2 2.3 7.4 4.1l1 .6a6.3 6.3 0 0 1 3.1 6.6c0 .7-.3 1.4-.7 2a30.3 30.3 0 0 1-8.3 7.7 43.9 43.9 0 0 1-8.1 3.4c-1.4.4-2.8.7-4.2.7H353a31.2 31.2 0 0 1-7.1-1.5l-1.1-.5.3.1.3.1a18.9 18.9 0 0 1-9.7-6.9c-1.7-2.1-3-4.5-4-7-.2-.6-.2-1-.1-1.5.2-1.5 1-2.6 2.3-3.3l.8-1.4c.3-.5.7-.8 1.1-1.1.2-.2.3-.3.5-.3h.1c2.4-1.7 5-3 7.6-4.2Zm-23.3 36.1a2 2 0 0 1 1.1-.5c2.2-.4 3.7.4 4.6 2.5a4 4 0 0 1-.4 3.9 15.7 15.7 0 0 0-2.1 12.8 51.5 51.5 0 0 0 1.5 3l1.9 1a10.2 10.2 0 0 0 3.1.1l1-.5 1-.7.6-.7c1.8-1.7 3.6-1.7 5.4 0 .9.7 1.3 1.7 1.3 2.8 0 1.8-.7 3.3-2 4.4-2.4 2.2-5.1 3.2-8.1 3.2-3.2 0-6.1-.8-8.7-2.6-1.3-1-2.3-2-3-3.4a19.6 19.6 0 0 1-2.4-9.3c-.2-3.3.3-6.4 1.3-9.5.8-2.6 2.1-4.7 4-6.5Zm52.1-14.7Zm-42.7 72.1 5.9-.8h-.3c2.9-.4 5.7-1 8.4-1.9a14.3 14.3 0 0 0 6.7-4.7c1.8-1.9 3.6-2 5.6-.5.9.8 1.4 1.8 1.4 3 0 1.6-.7 3-1.9 4.3-2.9 3-6.4 5.1-10.4 6.3a54.8 54.8 0 0 1-9 2l-6.4.8a506.2 506.2 0 0 1-9.6.6c-3-.3-6-.9-9-1.6a30 30 0 0 1-8.4-3.5c-2.7-1.6-5-3.8-6.6-6.6-1.4-2.4-1.2-4.4.8-6.2a3 3 0 0 1 2.3-.8c2 .2 3.5 1.3 4.3 3.3.2.4.5.8.8 1 2.3 2.3 5 3.7 8 4.4 2.7.6 5.3 1 8 1.4 1.7.2 3.4.3 5 0l4.4-.5Z"/><path fill="#000" d="m590.6 707.9-.4-.9-.6-.8a4 4 0 0 0-.8-.7l-.3-.3-.5-.1a89 89 0 0 0-1.4-.1h-1a12 12 0 0 0-3.1 2.4c-4 3.9-8.3 7-13.1 9.4l-16.8 8.6-.3.4-.1.4-.3.5a99.2 99.2 0 0 1 0 2c0 .3.1.7.3 1l.2.5.3.4.3.4.4.3c.1.2.3.3.4.3a3.5 3.5 0 0 0 1 .5h1.5a141.2 141.2 0 0 0 19.5-8.9 47 47 0 0 0 14.9-12.8v-.5l.1-.5v-1l-.2-.5ZM459.9 568.7l-.3 1-.2 1v.5a11 11 0 0 0 .5 1.4c0 .2.2.3.3.4l.6.8.8.6.3.2.6.1a9.1 9.1 0 0 0 .9.2h3.1c.9 0 1.7 0 2.4-.5.2 0 .3-.2.5-.3l.4-.3a93.3 93.3 0 0 1 .6-.8l.2-.4.3-1 .2-1v-.5a10.8 10.8 0 0 0-.5-1.4 156.4 156.4 0 0 1-.9-1.2l-.8-.6a8.7 8.7 0 0 0-1.8-.4c-2-2-3.7-2-5.1.2l-.4.2c-.2 0-.3.2-.5.3l-.4.3-.3.3a4 4 0 0 0-.3.5l-.2.4Zm-110.3 234a6.5 6.5 0 0 0-1.3-2.6c-1.4-1.2-3-2.3-4.6-3.3a14 14 0 0 0-8.8-2.3 39.5 39.5 0 0 0-17.6 5.6c-.7.6-1.2 1.3-1.4 2l-.1.6-.1.4v1l.1.5.1.5c0 .2.2.3.3.4l.2.5.3.4.3.4.4.2.9.4.8.4a2.4 2.4 0 0 0 1 0l1.1-.3.9-.6 1.3-.8h.3-.1a41 41 0 0 1 4.1-2 20 20 0 0 1 8.4-1.6 48.6 48.6 0 0 1 7.9 4.5l.4.2a9.1 9.1 0 0 0 1 .1l.9-.1.9-.3.9-.5.3-.4.3-.4.6-.9.1-.4.1-.5v-1ZM359 713l-.3.4-.1.5-.3.5v.6a3.2 3.2 0 0 0 0 1 19.3 19.3 0 0 0 .3 1.2l.1.5.4.4c0 .2.2.3.3.4l.4.4.4.4 9.7 2.7c10.5 3 21.2 5.3 32 7a114.7 114.7 0 0 1 32.5 10h1l.5-.1.5-.2c.2 0 .3-.1.5-.3l.4-.2a4 4 0 0 0 .8-.8c0-.2.2-.3.3-.5l.2-.5.1-.5.2-.5v-1.2l-.1-.5-.2-.6-.3-.4-.2-.5c-2.8-2.3-5.9-4-9.4-5a796.6 796.6 0 0 0-32.6-7.7c-11.6-2.6-23-5.3-34.4-8.1h-.5a2.8 2.8 0 0 0-1 .5 5 5 0 0 0-.4.3l-.4.4c-.1 0-.3.2-.3.4Zm15.1-56.5a5 5 0 0 0-.8.7l-.3.4-.3.5-.2.5-.2.5-.1 1.4a4.6 4.6 0 0 0 1 2.6l1 .9c3.5 1 6.8 2.3 10.1 4 10.8 5 21.8 9.6 33 13.4 11.5 4 23.2 6.3 35.2 7.2a49.6 49.6 0 0 0 25.2-5.5c5.5-2.8 10.8-6 16-9.4l.3-.4.3-.5a3.9 3.9 0 0 0 .4-1l.1-.5a3.9 3.9 0 0 0 0-1.2l-.1-.5-.1-.5-.3-.5a5.5 5.5 0 0 0-.7-.9l-.3-.3a5.2 5.2 0 0 0-.9-.6l-.5-.2h-.5l-.5-.1h-.6c-3.2 1.6-6.4 3.5-9.6 5.4-13 8.2-26.9 10.4-41.6 6.8-12.6-3-24.8-7.2-36.8-12.3-9-3.9-18-7.3-27-10.3a6.1 6.1 0 0 0-1.2.4ZM278 713.2l-.4-.2a33.4 33.4 0 0 0-1.3-.2c-2.1.6-4 1.7-5.6 3.3-6 6-12 12-18.4 17.6a1272 1272 0 0 1-20.5 18.3l-.2.5-.2.4-.1.5-.1.5v1a19.8 19.8 0 0 0 .3 1 7.4 7.4 0 0 0 .5 1c.2.1.3.3.3.4a3.8 3.8 0 0 0 1.4 1l.5.1.5.1h1a16.6 16.6 0 0 0 1-.2 489 489 0 0 0 21.7-19.2c6.8-6.4 13.6-12.6 20.6-18.6l.3-.4a3.9 3.9 0 0 0 .7-.9l.2-.5.1-.5.2-.5a3.2 3.2 0 0 0 0-1.1 19.8 19.8 0 0 0-.3-1.2l-.3-.4c0-.2-.2-.4-.3-.5l-.3-.4-.3-.4a5 5 0 0 1-.5-.3 6 6 0 0 0-.4-.2Zm-159.7 27.1.3-.5c0-.1 0-.3.2-.5v-1.5a10.8 10.8 0 0 0-.2-1 4.3 4.3 0 0 0-2.7-2.7A51.1 51.1 0 0 1 96 721.7c0-.2-.2-.3-.3-.5l-.2-.4a165.7 165.7 0 0 0-1.5-1.4l-.5-.1a89 89 0 0 1-1.5-.2 9.3 9.3 0 0 0-1.3.3l-.9.6-1 1.2a5 5 0 0 0-.5 1.4c-.2.5-.2 1.1-.1 1.7.3 1.5 1 2.8 2.1 3.8a64.7 64.7 0 0 0 24.5 14.3h.5l.5-.1.5-.2c.2 0 .3-.1.5-.3l.4-.3.3-.3.5-.4.2-.5ZM235.7 686l.6-.1-5.4.3c-6.6-.2-13.3-.7-19.8-1.4a62.7 62.7 0 0 1-18.1-4.6h-.6a27 27 0 0 0-1.2.3 7 7 0 0 1-.4.3l-.5.3a3.5 3.5 0 0 0-.7.8 5.7 5.7 0 0 0-.5 1l-.2.5a19.3 19.3 0 0 0-.1 1v.7l.1.5.2.5a7.4 7.4 0 0 0 .6 1l.3.4c1.4 1 3 1.9 4.6 2.4 5.2 1.8 10.5 3 16 3.5 5.3.5 10.8 1 16.2 1.3l2 .1c1.6.1 3.2 0 4.8-.1a109.8 109.8 0 0 0 3.9-.5l.4-.1h.7l6.5-.8a78.9 78.9 0 0 0 36.3-13.3 185.4 185.4 0 0 0 27.3-22.8l.3-.5.1-.5.1-.6V653.8l-.3-.5-.2-.5a156.4 156.4 0 0 0-.9-1.2l-.4-.2a5.7 5.7 0 0 0-1.3-.6l-.6-.1h-.9c-7.5 6.4-15.2 12.8-23 19.2-3.7 3-7.8 5.5-12.2 7.4-10.8 4.6-22 7.4-33.7 8.6Zm-27.4-121.5-.5.1a2 2 0 0 1-.4.3l-.7.7-.5.8a58.2 58.2 0 0 0-.8 1.6l-.2.6a3.2 3.2 0 0 0 0 1 10.8 10.8 0 0 0 .3 1.1c0 .1 0 .3.2.4l.2.4.7.8.7.6.4.2.5.1a8.1 8.1 0 0 0 1 .2 68.8 68.8 0 0 1 4.4-.1l.5-.2.3-.2.4-.3c.2 0 .3-.2.4-.3l.7-.8.4-.8.1-.5.2-1-.1-1a22.3 22.3 0 0 0-.9-1.8 13 13 0 0 0-.7-.7l-.3-.2c-.9-.4-1.8-.8-2.7-1l-2.2-.3h-.5l-.4.1-.5.2ZM459.8 315a115 115 0 0 1-4.6-2.6 252 252 0 0 1-21.6-14.8 38 38 0 0 0-5.4-3.9l-2.4-1.1-2.6-1.1-3.4-2.5a39 39 0 0 0-3.4-2.6 37.4 37.4 0 0 0-4.1-2 57.3 57.3 0 0 1-10.6-9.6c-.3-.7-.8-1.3-1.3-1.7L399 271a50.6 50.6 0 0 1-6.3-17.7l-.3-1.4-.1-2-.8-8.9a129 129 0 0 0-1.1-9.6v-.3c0-1.1-.3-2-.8-2.7l.6-1c3-4.8 5.3-10 7.2-15.3h-.1l.1-.4v.1l.1-.2 4.3-11.7c1-3 2.2-6 3.4-8.8a69.7 69.7 0 0 0 5-18.7c2 1.5 4.5 2.4 7.3 2.7l2.4-.1a19 19 0 0 0 10-5c2.8-2.6 4.9-5.8 6.3-9.5.5-1.3 1-2.6 1.3-4 1.3-6.3 2-12.7 1.9-19.2a40 40 0 0 0-4.3-17.7 13.3 13.3 0 0 0-5.7-6 15 15 0 0 0-12.3-1.4l.5-2c1-3 1.8-6 2.5-9.1a98 98 0 0 0 2.8-18.2c.4-6.5-.3-12.9-2.1-19.1a304.1 304.1 0 0 0-8.9-25.3c-1.7-4-4.1-7.2-7.3-9.8a45.4 45.4 0 0 0-11.3-7 9.8 9.8 0 0 1-2.1-1.7 25.9 25.9 0 0 0-8.8-6.2 38.4 38.4 0 0 0-8.8-2.6c-5.8-1-11.6-2.2-17.3-3.4A79.4 79.4 0 0 0 338.9 6a105.5 105.5 0 0 0-27.1 2.7h-.3l-13 1.7a83 83 0 0 1-6.6.6 192 192 0 0 0-27.8 3.2h-1.8c-3.2-.7-6.2 0-8.8 1.9a66.3 66.3 0 0 0-17.8 19.2c-3.3 5.1-6.1 10.5-8.6 16v.1c-.7 1.5-1.3 3.2-1.8 4.9a106.4 106.4 0 0 0-3.7 32 56.3 56.3 0 0 0 4.3 16v-.1l.2.4.1.2.6 1.4a61 61 0 0 0 3.8 7.3c-.8 0-1.6.2-2.4.4-6 1.9-10 6-12.1 12.3-2 6-2.4 12.2-1.3 18.4 1 6.3 3.1 12.2 6.1 17.6 3.1 5.7 7.6 9.4 13.4 11.2 2.5.6 5 .4 7.3-.6l.2 4.7c.2 5.4.6 10.8 1.3 16v2.3c-.2.6 0 1.3.3 2 .2.6.5 1.1 1 1.5l1.7 5.6 2 6.2c2 5 4.2 9.8 6.6 14.5l8 15.4a17 17 0 0 0 3.2 4c-1 1.3-1.3 2.8-.8 4.7-.2 3.7-.2 7.4-.2 11v.4c-.4 2.9-.8 5.7-1 8.6-.3 2.2-1 4-2 5.3l-2.3 2.4-1.6 1A593 593 0 0 0 245 286l-7.3 3.8a69 69 0 0 0-7 3.9 71.4 71.4 0 0 1-7.1 4 96 96 0 0 0-5.3 2.8 89.9 89.9 0 0 1-7.8 3.8l-4 1.9a42.2 42.2 0 0 1-4.1 1.8l-5.1 2.4-4.8 2.3-.3.2a14.1 14.1 0 0 0-1.5.7 201 201 0 0 0-11 5.3 269.1 269.1 0 0 1-3 1h.6a313 313 0 0 1-3.4 1.5 264.2 264.2 0 0 0-35.8 16l-8.8 4.4A161 161 0 0 0 96.4 363 70.7 70.7 0 0 0 74 395.7 425.4 425.4 0 0 0 55.6 474a1207 1207 0 0 0-4.6 39.6h-.2l-.5.5-.4.4-.4.5a1075.8 1075.8 0 0 0-12 92.5 524.2 524.2 0 0 1-4.9 40 1291.4 1291.4 0 0 0-10.8 81.8C20.4 743 19 756.6 17.4 770a675.5 675.5 0 0 0-4.4 82.2c0 13.5.5 27 1.6 40.5 1 13.7 2.4 27.3 4 40.9l5 40a444.2 444.2 0 0 1 1.8 62c0 .2 0 .4.2.6l.1.6.4.5a5 5 0 0 0 1.4 1.3 9.7 9.7 0 0 0 1.1.5c3.5-.3 5.2-2.5 5.2-6.4v-1c0-13.4-.4-26.8-.8-40.2-.3-5-.6-10-1.1-15a1337.1 1337.1 0 0 0-6.5-51.9c-1.4-13.6-2.5-27.3-3.4-41a596.1 596.1 0 0 1 0-78.7c1-14.4 2.2-28.8 4-43 1.7-13.6 3.2-27.3 4.7-41.1 1.4-13.8 3-27.5 5-41.3 1.8-14 3.8-28.1 5.8-42.2 2-14.3 3.6-28.6 5.1-43 1.4-13.4 3.2-26.7 5.2-40 1.9-12 3.5-24.3 5-37l.4-.2.4-.4.3-.3.3-.4.3-.4.4-1.5.1-2.7.4-2.6v-.8c.3-1.3.4-2.7.6-4 .6-6.2 1.4-12.5 2.4-18.7a571.4 571.4 0 0 0 2.6-18.7c1-6.8 2.1-13.6 3.6-20.3A601 601 0 0 1 79.4 404a78.7 78.7 0 0 1 38-46.3c11.4-6 23-12 34.7-17.8 4.5-2.2 9.1-4.2 13.8-5.8 5.6-2 11.3-4.3 17-7a37 37 0 0 0-.5-.4 452.5 452.5 0 0 1 13.3-6.3h.2-.2a68.3 68.3 0 0 0 5-2.4 380.8 380.8 0 0 1 12.1-5.6 101.8 101.8 0 0 0 8.8-4.2 677.6 677.6 0 0 1 10.6-5.7 1535.8 1535.8 0 0 1 14.6-8.1 116.4 116.4 0 0 0 10.4-5.8c2.5-1.3 4.8-2.8 7-4.5v.6a20 20 0 0 0 2.8-3l.9-.8a5.3 5.3 0 0 0 2-3.7l.1-.3.1.4 1.1-3.2.4-1.5a92 92 0 0 0 1.4-21.5l.2-1.3a25.2 25.2 0 0 0 6.7 1.7h-.1c5.4 1.8 11 3.3 16.6 4.3 3 .6 5.9 1.3 8.8 2.2 5.6 1.7 11.3 3.1 17 4.3 4.5-.1 9-.7 13.4-1.7a25 25 0 0 0 6.3-2.3c5.4-3 10.8-6 16-9.4 5.2-3.3 10.5-6.5 15.8-9.6a134.3 134.3 0 0 0 9-5.4l.4 5.6c.4 6.2 1.2 12.4 2.4 18.5a52 52 0 0 0 9.2 21 9 9 0 0 0 1.7 2.5 125.5 125.5 0 0 0 7.7 7.8 16.7 16.7 0 0 0 2.3 2c1.8 1.1 3.3 2.4 4.6 3.7l1.5.7a27.4 27.4 0 0 0 1.9 1h.2l.2.1.7.3c5 2.7 9.8 5.7 14.5 9a223.7 223.7 0 0 0 22.4 13.9h-.8l2.4 1.4c2.8 1.7 5.6 3.2 8.6 4.3l35.8 14.5a58 58 0 0 0 6.9 2.3 152 152 0 0 1 35.7 14.8 62.2 62.2 0 0 1 15.4 12.4c9 10 16.3 21.2 22 33.7a255.8 255.8 0 0 1 14 38.4c2 6.8 3.5 13.7 4.6 20.8 2.2 13.4 4.7 26.8 7.5 40.1a348.6 348.6 0 0 1 5.7 31.6l.3.4c0 .2.2.3.3.5l.3.3c2.7 10.9 4.7 22.1 6 33.6 1.4 13.4 2.6 26.9 3.6 40.3a1360.2 1360.2 0 0 0 7.6 75.6l.2 1.1-.1-.6 2.8 33.2c1.1 13.7 2.5 27.4 4 41 1.5 13.4 2.5 26.8 3 40.3.5 13 1.2 26.3 2 39.5a654.5 654.5 0 0 1 .1 82.4c-1 13.5-1.5 27-1.6 40.4-.2 10.2-.7 20.4-1.8 30.4a2795 2795 0 0 1-4.3 41.3l.1.6.3.6.3.6a5 5 0 0 0 .9 1 2.8 2.8 0 0 0 1 .5l.6.2H637.1a4.4 4.4 0 0 0 1.2-.4l.6-.4a5.4 5.4 0 0 0 .8-.9l.3-.6.3-.6.9-6 2.8-22.1a303 303 0 0 0 2.8-41.9c0-13.9.4-27.7 1.4-41.5a676.9 676.9 0 0 0-.3-88 1580.3 1580.3 0 0 1-2.3-41.3c-.5-13.7-1.5-27.4-3.1-41A957.1 957.1 0 0 1 639 715c-1-13.4-2.3-26.6-3.9-39.5L633 656v-.6.1a1728.4 1728.4 0 0 1-5.1-55.4c-.9-11.9-2-23.7-3.1-35.6a209.6 209.6 0 0 0-7.9-38.8c-1.7-9.6-3.6-19.1-5.6-28.7-1-3.8-1.6-7.7-2-11.6a279.5 279.5 0 0 0-23.9-85.7c-3-6.4-6.2-12.6-9.6-18.7a82.4 82.4 0 0 0-43.8-37.3 941 941 0 0 1-61.5-23.6h.7a148.3 148.3 0 0 1-11.3-5Zm-313.1 18 .3-.1a1 1 0 0 1-.3.1Zm236.4-309a67.5 67.5 0 0 0 12.7 8.3c1.6.7 3 1.8 4.1 3.2 3.3 4 5.8 8.4 7.7 13.4l3 8.8c1.7 5 3 10.2 3.8 15.5a51.8 51.8 0 0 1-2.5 26.9l-.5 1.7a180 180 0 0 1-.4-4c-.5-4.5-2.3-8.4-5.3-11.6a153 153 0 0 0-12.5-12 23 23 0 0 1-6.6-9.4 14 14 0 0 0-9-9 80.7 80.7 0 0 0-25.6-3.2 79 79 0 0 1-15.6-1.8c-1.9-.8-3.8-1.6-5.8-2.2a47.7 47.7 0 0 0-22.8-1.5 55.6 55.6 0 0 1-16.3 1c-6-.5-12-.6-17.9-.2-3.2.2-6.2 1-9 2.4-2 1-3.6 2.3-4.9 4.3a460.7 460.7 0 0 1-9.2 13.9l.2-.3c-.8.7-1.4 1.6-1.8 2.7-1 1.8-1.7 3.7-2.3 5.6a79 79 0 0 1-2 5.4l-1 2.9-1.6 6a46.9 46.9 0 0 1-4 9.7c-.8 1.9-1.4 3.8-2 5.8a163.5 163.5 0 0 1-3.6-7.5c-.7-1.8-1.3-3.6-1.7-5.5l-1.3-5.1v-4c0-4.9.5-9.7 1.3-14.4.9-4.7 2-9.3 3.2-13.8 1-2.8 2.1-5.5 3.6-8 2-3.7 4.3-7.3 6.6-10.8a53.2 53.2 0 0 1 14.6-14.7c1.1.3 2.3.4 3.4.3 2.6-.2 5.3-.5 8-1a104.6 104.6 0 0 1 21.6-2.5l12-1.1a2221 2221 0 0 1 16.7-2.4c5.8-.6 11.7-1 17.6-1.2 6.2-.3 12.4.4 18.5 1.8 2.3.6 4.6 1 7 1.2 5.8.4 11.3 2 16.6 4.4h-.2l.6.3c1 .5 1.8 1.1 2.6 1.8ZM280.3 56.5l4.5.3c4.8.4 9.6.5 14.4.3 4.8-.1 9.4-1 13.9-2.3l5.1.1c2.5.3 5 .8 7.3 1.6 5.4 2 11 3.3 16.6 4.3 5.8.9 11.5 1 17.3.5l2.6.4c2 .2 4 .5 6 1a92.3 92.3 0 0 0 6.9 1.4l1 .2.3.1.3.2.2.1.3.3.1.1c1.2 2 2.3 4 3.3 6.2 2.2 4 5 7.5 8.5 10.4a228 228 0 0 1 11.6 11l1 1.4c.3.4.5 1 .7 1.5l.5 3a41.1 41.1 0 0 1 1 6.6c.7 4 1.2 8 1.3 12.2l.4 18.6c.1 6.1-.2 12.3-1 18.5-.4 3.7-.8 7.5-1 11.2a64.1 64.1 0 0 1-4.2 18.2c-2.2 5.8-4.4 11.6-6.4 17.5-2.1 6-4.3 11.7-6.4 17-.7 1.6-1.5 2.8-2.6 4a43.7 43.7 0 0 1-8.8 6.7l-15.4 9a328 328 0 0 0-15.3 9.6c-1.3.8-2.6 1.6-4 2.2-5.4 2.5-11 3.9-17 4.2-2.7-.4-5.4-1-8-1.9-5.7-2-11.3-3.4-17.1-4.5a185 185 0 0 1-21.3-5.3 11 11 0 0 1-4.3-2.3c-2.6-2.2-4.6-4.9-6-8.1-2.2-5.1-4.6-10.2-7.2-15a168.6 168.6 0 0 1-8.3-22.7v-1.6c-.3-1.2-.4-2.5-.4-3.7l-.5-4v-2.1a63.1 63.1 0 0 0-.8-7.7V174a62 62 0 0 0-.5-10.3l-1.4-10-.3-1.6v-.3c-1-6-2.2-11.9-3.4-17.7a69.2 69.2 0 0 1-1.2-18.6c.4-6 2.1-11.5 5.1-16.6l.7-2 1.7-6c.6-2.2 1.3-4.4 2.2-6.5l-.2.3.6-1.3a35 35 0 0 0 1.3-3.6l1.2-3.5V76l.2-.6.2-.4 1.5-1.7a76.8 76.8 0 0 0 6.7-10l1.9-2.6a53 53 0 0 1 2.5-3.2l2.2-.4a229.5 229.5 0 0 0 8.8-1l1.2.2ZM376 64h.2-.2l-.1-.1-.2-.2.2.2h.1Zm50.2 57c1.9 2.5 3.2 5.2 3.8 8.3 1.6 7 1.8 14 .8 21a27 27 0 0 1-3.1 9.5c-2.7 4.6-6.4 6.8-11.3 6.6a14 14 0 0 1-4-5.4l-.4-.8.7-6.6c.7-6.3 1-12.5.8-18.8l-.2-8.3c.3-.5.6-1 .8-1.8l.6-.8a16.4 16.4 0 0 1 3.3-3.2l.5-.2.5-.2.5-.2c.3 0 .7 0 1.1-.2 1-.1 1.9-.1 2.8.1 1 .2 2 .5 2.8 1Zm-197.6 1.4.8-.4 1.4-.3 1.6.1 1.5.5.8.8c.1 3.4.5 6.8 1 10.1 1 6 2.2 12 3.5 18a478.6 478.6 0 0 1 1.6 11.4l-.8 1.1-.9.7-1 .5c-.4.2-.7.3-1.1.3a14 14 0 0 1-8.8-6.6 39.4 39.4 0 0 1-4.1-8.7 34.6 34.6 0 0 1-.5-20.8l.4-1c.3-.9.8-1.7 1.3-2.5a26 26 0 0 1 1.8-2.1l.8-.5.8-.6ZM271 238.8l.1.2-.1-.2Zm-38.5-103.6c-.8-2-2.2-2.6-4.1-1.8-.3.1-.6.3-.8.6a9.3 9.3 0 0 0-1.3 5.2 36 36 0 0 0 2.4 12 4.9 4.9 0 0 0 2.7 3.3c1.5.3 2.7-.2 3.4-1.7.3-.5.3-1 .2-1.5-.3-1.6-.8-3.1-1.3-4.6-1.1-3-1.4-6.3-1-9.5.2-.7 0-1.4-.2-2Zm.3 8.1-.1-.3V143.3Zm192-11.3a3 3 0 0 0-1.3-2c-1.7-1.2-3.2-.9-4.3 1-.2.3-.3.8-.3 1.2.3 2 .4 4 .3 6a64.4 64.4 0 0 1-2 13.7c.1.6.4 1.2.8 1.6.5.5 1 .8 1.8.8 2 0 3.4-1.2 3.9-3.6l1.3-7.3c.6-3.8.6-7.6-.1-11.4ZM336 209l-5.9.7-4.4.5c-1.6.3-3.3.2-5 0-2.7-.4-5.3-.8-8-1.4-3-.7-5.8-2.1-8-4.3a3 3 0 0 1-.8-1c-.8-2-2.3-3.2-4.3-3.4a3 3 0 0 0-2.3.8c-2 1.8-2.2 3.8-.8 6.2 1.7 2.8 3.9 5 6.6 6.6a30 30 0 0 0 8.4 3.5c3 .7 6 1.3 9 1.6h2.7l7-.6 6.4-.9h-.1.7l.3-.1c2.7-.4 5.4-1 8-1.8 4-1.2 7.5-3.3 10.4-6.3a6.2 6.2 0 0 0 1.9-4.3c0-1.2-.5-2.2-1.4-3-2-1.5-3.8-1.4-5.6.5l-1.2 1.2a14.3 14.3 0 0 1-5.5 3.5c-2.7.9-5.5 1.5-8.4 2h.3Zm36.9-71.5-.1.1-.2.2.1-.1.2-.2Zm-51.1 14.3a2 2 0 0 0-1 .5 15.2 15.2 0 0 0-4 6.5 27.2 27.2 0 0 0-.7 14.3c.4 1.6 1 3 1.8 4.5a9.6 9.6 0 0 0 3 3.4c2.6 1.8 5.5 2.7 8.7 2.6 3 0 5.7-1 8-3.2 1.4-1.1 2-2.6 2.1-4.4 0-1.1-.4-2-1.3-2.8-1.8-1.7-3.6-1.7-5.4 0l-.6.7a6.4 6.4 0 0 1-2 1.2 10.2 10.2 0 0 1-3.1-.2l-1.9-.8a51.2 51.2 0 0 1-1.5-3 15.7 15.7 0 0 1 2.1-12.9 4 4 0 0 0 .4-3.9c-1-2.1-2.4-3-4.6-2.5Zm2.1 19.7-.1-.4v.2l.2.4.1.4v-.2l-.2-.4Zm28.9-56.9c-3 0-6 .5-8.8 1.6a43.4 43.4 0 0 0-7.6 4.1h-.1a2 2 0 0 0-.5.4c-.4.3-.8.6-1.1 1.1l-.8 1.4a4.3 4.3 0 0 0-2.3 3.3c-.1.5 0 1 .1 1.4 1 2.6 2.3 5 4 7.2a18.9 18.9 0 0 0 7.7 6 27.8 27.8 0 0 0 1.7.7h-.3a23.7 23.7 0 0 0 4.6 1.5 31.2 31.2 0 0 0 8 .4c1.5 0 2.8-.3 4.2-.7a44 44 0 0 0 10.2-4.7c2.4-1.8 4.4-4 6.2-6.4.4-.6.6-1.3.8-2 .3-3-.8-5.1-3.3-6.6l-.9-.6a21.8 21.8 0 0 0-7.4-4 41.3 41.3 0 0 1-5.7-2 24.8 24.8 0 0 0-8.7-2Zm-4 8.9-.2.7a26.6 26.6 0 0 0 1 10.3l-2.1-.7v-.1a14.8 14.8 0 0 1-4-2.4 11 11 0 0 1-2.4-2.8v-.2l.1-.7c0-.3 0-.5.3-.6a32.6 32.6 0 0 1 7.3-3.5Zm20.6 5.6v.2a9.5 9.5 0 0 1-1.5 1.7 2 2 0 0 1-.3.3v-.1c-.6.5-1.2.9-1.9 1.2l-2.8 1.3a16 16 0 0 1-3.4 1.3l.4-2.2a18 18 0 0 0-.5-7.9c2.3 1 4.7 1.8 7 2.5h-.1l.4.1 1.4.7 1.1.8.2.1Zm-61.8-9.4a32.5 32.5 0 0 0-11.5-4.9 25.5 25.5 0 0 0-10.4-.1l-4.2.9c-3 .7-5.8 2-8.3 3.9a245 245 0 0 1-3.6 2.6c-1 .8-2 1.9-2.7 3.2a5.1 5.1 0 0 0-.8 3.1v.1c-.1.9 0 1.7.4 2.4a23 23 0 0 0 4 5c2.3 2.1 4.8 4 7.4 5.6 2.8 1.5 5.7 2.3 8.9 2.3 2 .2 4 0 6-.4l5.5-1.3c3-.8 5.8-2.2 8.3-4a14 14 0 0 0 5.1-7.3c.2-.2.4-.4.4-.6.4-.5.6-1 .8-1.5a4.4 4.4 0 0 0 0-4.4c-1.4-1.9-3.2-3.4-5.3-4.6h.1-.1Zm-6.6 5.8 3.4 2a16 16 0 0 0-1.1 2.5 12.5 12.5 0 0 1-6 3.5 17.9 17.9 0 0 0-2.7.8l.3-1a22.5 22.5 0 0 0-.9-10.3l.9.2c2.1.4 4.2 1.2 6.2 2.3Zm-19.1-1.2a21.7 21.7 0 0 1 2.3-.7c-.3.5-.4 1.1-.5 1.8a28 28 0 0 0 .4 9.5h-.3c-2-.7-4-1.7-5.6-3.2a31 31 0 0 1-3.1-3.2l.3-.3c2-1.7 4.1-3 6.5-3.9Zm1.4-32h-.4l-.8.2c-2 .3-4.2.7-6.3 1.4-3 .9-5.5 2.6-7.5 5.1a62.8 62.8 0 0 0-6.6 9.7 26 26 0 0 0-2.4 3.6c-.5.9-.7 1.8-.6 2.8.1 1 .5 1.8 1.1 2.6l1.3.8c1.4.6 2.7.4 3.8-.6 1-.8 2-1.9 2.6-3.1l1.2-2.1a73.3 73.3 0 0 1 6.4-9c2.5-1.6 5.1-2.5 8-2.9h.8c1.3-.2 2.5-.2 3.8-.1 2.5.2 5 .8 7.4 1.7l.5.1a50.7 50.7 0 0 1 6.6 3.5l4.4 3.5c.9.7 1.9.9 3 .6 2.4-.7 3.5-2.5 3.1-5.2l-.2-.5c-.3-1-.9-1.6-1.6-2.1l-2.1-1.6-.4-.3-.4-.3-.6-.5-.2-.2h-.1a46.2 46.2 0 0 0-12.7-6.1c-3.6-1-7.3-1.4-11.1-1Zm51 7.6a25 25 0 0 0-5.4 7.7c-1.1 2.3-.7 4.2 1.3 5.8 1.4.8 2.8.7 4.2-.2.4-.3.7-.6.9-1a25.9 25.9 0 0 1 5.2-6.8 13.5 13.5 0 0 1 6.8-2.7h.5l2-.4a43.2 43.2 0 0 1 18.3 2.7l.4.2-.3-.1c2.3 1 4.3 2.4 6.1 4.2.6.5 1 1.2 1.5 1.8.8 1.2 2 1.9 3.3 2 2 .3 3.5-.6 4.3-2.8.3-.8.3-1.5 0-2.4-.6-1.4-1.4-2.7-2.5-3.8a31.2 31.2 0 0 0-16.1-9 65.8 65.8 0 0 0-13.6-1.5c-3 .2-6 .7-8.8 1.6-3 1-5.7 2.5-8 4.7ZM408 50.2v.2-.2Zm113.6 986.6.3-.5.2-.5.2-.5v-.5l.1-.5v-1.1l-.5-1.4h-7.8l1.5 5.4a8.8 8.8 0 0 1 .9.6l.5.2.5.3h2l.5-.2a3 3 0 0 0 .9-.6l.4-.3.3-.4Zm44.5 1 .6-.9.8-5h-8a331 331 0 0 1-.3 3.6 9.8 9.8 0 0 0 .3 1l.2.4c0 .2.1.3.3.4 0 .2.1.3.3.5l.3.3.4.3.4.3.4.2.5.1.9.2h.5l.4-.2.5-.1.4-.2.5-.3.4-.3.3-.3Zm-435.4 2 .6-.1.3-.2.5-.3.3-.3.3-.3.4-.5.3-.4.9-5.9h-8.2a432.8 432.8 0 0 1-.1 5 3.1 3.1 0 0 0 .3 1l.3.3c0 .2.1.3.3.5l.3.3.3.3.5.3.3.2.5.1.5.2a2.8 2.8 0 0 0 1 0l.4-.2Zm-17.3-3.9c0-1.4 0-2.7-.2-4h-8.7l.8 2.5v1.1l.1.5a3.4 3.4 0 0 0 .4 1c0 .3.2.4.3.6l.3.4.4.3.5.4.5.2.5.2.5.1h1l.5-.1c.1 0 .3 0 .5-.2l.4-.2.5-.3.3-.4a9.7 9.7 0 0 0 1.3-2Zm183-471.7-16.2 8.3a1333.1 1333.1 0 0 0-29 14.4 91 91 0 0 1-39.8 10.3l-10.2.2c-11.4-.1-21.4-4-29.8-11.7-2.4-2.1-4.1-4.7-5.2-7.7-3.3-9.3-5.2-19-5.6-29.1-.5-14.9-.5-29.7 0-44.6a147.1 147.1 0 0 1 2.4-22.1 32.4 32.4 0 0 0-.3-1.3l-.2-.4-.3-.5a3.4 3.4 0 0 0-.7-.8l-.4-.3-.5-.2-.5-.2a16.6 16.6 0 0 0-1-.2h-.6l-.5.2-.5.1a6.6 6.6 0 0 0-.9.6l-.4.4a16.2 16.2 0 0 0-2.5 8.7 712 712 0 0 1-.9 27.7c-.5 10.3-.4 20.5.3 30.6.2 3.5.2 7 .2 10.4a46.3 46.3 0 0 0 8.3 29.4l-.3.9a212.3 212.3 0 0 1-4.1 27 320.5 320.5 0 0 0-6.4 40.6l-.4 1.1-.5 1.3a179 179 0 0 0-10.8 38.6l-1.8 9.5a266 266 0 0 0-4.9 40.7c-.6 13.4-1 26.8-1.1 40.3-.1 13.8-1 27.7-2.8 41.4l-5 40.5a349.6 349.6 0 0 1-7.7 39.8l-5.1 19.7c-2.7 9.9-4.9 20-6.4 30.1a430 430 0 0 0-3.6 35.2c-.9 13.2.4 26 3.8 38.7h8.7c0-.6-.2-1.1-.4-1.7a122.9 122.9 0 0 1-4-45.2l4.8-31.5c.7-4.7 1.6-9.3 2.6-14 2.3-10.4 4.9-20.8 7.6-31.1 3.7-14 6.3-28 7.8-42.4v-.3c2-13.1 3.8-26.2 5.3-39.4 1.5-14 2.4-28.1 2.6-42.2.2-13.8.6-27.7 1-41.5l.7-7a98.4 98.4 0 0 1 1.8-15.4l.4-2.1 1.7-9.2a158.3 158.3 0 0 0 1.5-9.3c.1-1.4.3-2.8.7-4.1a207 207 0 0 0 2.4-11.8 584.3 584.3 0 0 1-.2 52.5c-.6 14-2 27.6-4.3 40.5-2 11.4-3.2 23.5-3.5 36.2-.4 12.6.7 25 3.2 37.2l-.3.5-.2.5-.2.5a4 4 0 0 0-.1 1.6v.3c0 .9-.2 1.7-.3 2.4l-.5 2.6v.3a393 393 0 0 0-1.9 15.5c-1.2 13.5-2 27.1-2.8 40.7-.6 13.6-1.5 27.2-2.5 40.8-1 13-2.7 26.2-5.1 39.7-2.1 12-3.8 24.1-4.9 36.4h8.2a470 470 0 0 1 6-45.9 345 345 0 0 0 4.6-39.7l2.5-41.1c6.4 2.1 13 3.7 19.8 4.5 4 .6 8.2 1.4 12.2 2.5 8 2.2 16 4.3 24 6.1 8.2 1.9 16.5 3 24.8 3.5 8.3.3 16.6.3 24.9-.2a165 165 0 0 1 24.7.6c8.2.9 16.5 1.6 24.8 2 8 .5 16.2.7 24.3.5 5-.3 9.9-.4 14.8-.3H355a209.1 209.1 0 0 0 27.9-2.5c8.1-1 16.3-1.4 24.5-1.3 8.2 0 16.5 0 24.8-.2a419.5 419.5 0 0 0 46.4-4h.8-.3l5.5-.8a421.1 421.1 0 0 0 21.5-3.4h1l.4-.2.6-.1.2-.1 1.4 14.7c1.3 13.5 1.9 27 1.8 40.6l-.1 41c0 8.2.9 16.1 2.7 23.8h7.8a37 37 0 0 1-1.4-8.1c-.9-14-1.3-28-1.2-42l-.1-21.2a593 593 0 0 0-3-51.3c.3-.7.4-1.5.3-2.4 0-1-.3-1.9-.8-2.6l-2.7-23.4v-.3.4a185.2 185.2 0 0 0-1.6-12.4 23 23 0 0 0-1.1-4.2l1-4.4a186.3 186.3 0 0 0 3.4-71.5c-2-13.5-3-27-3.3-40.5-.2-13.3 0-26.5 1-39.7l1.7-28.8 2.2 5.8a113.3 113.3 0 0 1 4.9 17c1.4 8.8 3 17.5 4.8 26.2a95.4 95.4 0 0 1 1.9 23.8c-.5 10-.3 20 .5 30.2a844.3 844.3 0 0 0 7.8 66.7 4134.8 4134.8 0 0 1 7.8 48.8c2.1 13.4 4.5 26.7 7.3 40 1.4 6.9 2.7 13.8 3.7 20.8 1.8 11.8 3.2 23.7 4.4 35.6 1.1 12.5 1.2 25 .1 37.5h8l.3-4.4c.6-13.6.3-27.2-1.1-40.8-1-10.3-2.4-20.5-4-30.7-2.2-13.4-4.6-26.8-7.3-40.2-2.6-13-5-26-7.1-39-2.2-13-4.1-26-5.7-39l-5.1-40.2a232.9 232.9 0 0 1-1.6-41.5c.1-2.8 0-5.5-.1-8.2a430.8 430.8 0 0 0-5.3-38l.1.4-.1-.8-.6-3.7c-.4-1.5-.6-3-.8-4.5a170.1 170.1 0 0 0-8.1-26.7l-5.8-14.5c.7-11.4 1.6-22.8 2.7-34.1 1.2-12.7.8-25.2-1.1-37.5a38.1 38.1 0 0 0 4.9-17.4c.8-13.3 1.5-26.5 2-39.8a99.1 99.1 0 0 0-5.7-37.7 16.5 16.5 0 0 0-.2-2.3l-.3-1-.3-.3a1 1 0 0 0-.3-.4c0-.2-.1-.3-.3-.4l-.4-.3-.4-.3a77.3 77.3 0 0 0-1.3-.5h-1a9.1 9.1 0 0 0-1 .3 77.3 77.3 0 0 0-.8.5l-.3.3c-.1.1-.3.2-.3.4a1 1 0 0 0-.4.4l-.3.4c-.4 1-.5 2-.2 3.2 1.4 5.7 2.5 11.4 3.5 17.1 2.1 12.7 2.6 25.4 1.3 38.4-.4 3.5-.5 7-.4 10.5a49 49 0 0 1-8.1 29.3 54.2 54.2 0 0 1-33.2 10c-13.1-.4-26.1-2.2-38.9-5.4-12.6-3.1-24.6-8-36-14.7a2500.2 2500.2 0 0 0-33.9-19.3h-.9l-.5.3c-.3 0-.6.3-.9.4a7.4 7.4 0 0 0-1.4 1.4 6.6 6.6 0 0 0-.3 1v.6a2.9 2.9 0 0 0 0 1v.4l.1.6.3.4c.2.5.4.9.8 1.2.3.4.7.6 1.2.8l1.8.7c9.3 6.3 18.9 12.2 28.7 17.7a155 155 0 0 0 74.4 20.5l-.6-.1.8.1a347.4 347.4 0 0 0 3.9.4 67 67 0 0 0 15.8-1c5.3-.9 10.3-2.5 15.2-5 2.6-1.2 4.9-2.7 6.9-4.3.3 5.8.3 11.8 0 17.8a8614.3 8614.3 0 0 0-2.3 45v.2l-.3 1.1.2.8c-.6 12-1.5 23.9-2.5 35.8-.6 6.8-1 13.7-1 20.6a951 951 0 0 0 .3 41.4c.1 7 .7 13.9 1.8 20.8 2 13.4 2.8 26.8 2.4 40.4a200 200 0 0 1-5.3 39.4 31.9 31.9 0 0 0-2.4-.7l-2.3-.2c-.8 0-1.6.1-2.3.4h-.7a28 28 0 0 0-3.4.1c-.7 0-1.4.3-2 .6l-1.1.8.3-.3h-.1l-.4.4c-2.6.8-5 2-7.3 3.7a293.8 293.8 0 0 1-14.7 9 129.5 129.5 0 0 0-19.8 8.8c-11.9 6.8-24.3 12-37.3 15.9-5 1.5-10.2 2-15.5 1.8a79.4 79.4 0 0 1-25.4-5.8c-9.4-3.8-19.2-6-29.3-6.4a244.4 244.4 0 0 0-39.1 1.4c-9.5 1-19 1-28.6-.4l-25.2-3.6c-12.3-2-24.3-5-36.1-9.4a67.3 67.3 0 0 1-16.5-9 76.5 76.5 0 0 0-12.1-7.3c-9.3-4.5-19-7.9-29-10-2-9-3-18-3.2-27.2a229 229 0 0 1 2.6-39.7c1.7-11.9 3.1-23.8 4.2-35.7a431 431 0 0 0 1.5-43 890.4 890.4 0 0 1 .7-46c.5-1.5.6-3 .5-4.8l.5-5.3c1-9.8 2.6-19.5 4.8-29 2-8.3 3.3-16.6 4-25a67 67 0 0 0 40 12l6.7-.3c10-.5 19.5-2.7 28.8-6.7a729.4 729.4 0 0 0 29.3-13.6c4.6-2.6 9.2-5 13.9-7.2 4.3-2 8.5-4 12.6-6.3h.8l.5-.2c.2 0 .3 0 .4-.2a5.3 5.3 0 0 0 .9-.4c.1-.1.3-.2.3-.4.2 0 .3-.2.4-.3a3.4 3.4 0 0 0 .8-1.3l.1-.5.1-.5v-1l-.1-.5-.1-.5-.3-.5a2.9 2.9 0 0 0-.5-.8l-.4-.4-.3-.2-.4-.3a2 2 0 0 0-.4-.3 6.8 6.8 0 0 0-5.1.7Zm-138.1 95.7.1-.7v.1l-.1.6Zm-17.9 83.7.1-.8v.2l-.1.6Zm189 152.4c4 0 7.9.2 11.8.4 6.4.4 12.6 1.8 18.7 4.2a123.4 123.4 0 0 0 37.3 8.5 109.2 109.2 0 0 0 32.6-9.2 330.4 330.4 0 0 1 36-17.2l4.6-2.3 23.5-12.6h2.7a14 14 0 0 0 1.8-.4c.6.3 1.1.4 1.7.4h1.5c.4 0 .7-.2 1-.3a40.8 40.8 0 0 0 .3.6c1 5.7 1.9 11.5 2.6 17.3l2 17.8-1.7.4-4.9.8c-7.8 1.3-15.5 2.5-23.3 3.6a350.8 350.8 0 0 1-41.6 3.6c-8.4.4-16.8.5-25.3.4a187.6 187.6 0 0 0-13.3.4c-6.7.4-13.2 1-19.8 1.8a216 216 0 0 1-24.8 1.6l-10.5.1c-9.5.2-19 .2-28.4 0-8.5 0-16.9-.5-25.3-1.4a263 263 0 0 0-25.3-1.3h-20.9c-8.4-.1-16.9-.5-25.3-1.2-8-.7-15.8-2.4-23.4-5-8.3-2.8-16.8-4.7-25.4-5.7-7-.9-13.7-2.5-20.4-4.9l2.8-34a36 36 0 0 0 .8-4.4l1 .2 19.2 5c2.2.6 4.7 1.8 7.5 3.6a154 154 0 0 1 8.5 5.8 96.5 96.5 0 0 0 30.4 14.8 162 162 0 0 0 18.3 4.1c5.5 1 11 2.1 16.3 3.5 12.6 3.2 25.3 4.2 38.1 3 12.8-1.3 25.7-2 38.6-2Zm164.2-28.4.2-.2a55 55 0 0 1 .6-.5l-.1.2-.4.3-.3.2ZM264.2 243.4l.1.2.2.3-.3-.4Z"/><path fill="#fff" d="m369.4 129.2-.1-.2h-.1a8 8 0 0 0-1.1-.8l-1.4-.7-.4-.2.1.1c-2.3-.7-4.7-1.6-7-2.5a18 18 0 0 1 0 10 16 16 0 0 0 3.6-1.2l2.7-1.3a12.4 12.4 0 0 0 2.2-1.4l.3-.2 1.3-1.5Zm-20.8-5 .1-.7-1.4.5c-2 .8-4 1.8-5.9 3l-.2.6a5.6 5.6 0 0 1-.1.9 11 11 0 0 0 5.1 4.6c.4.1.9.3 1.3.6.7.4 1.4.6 2 .8l-.2-.7c-.8-3.1-1-6.4-.7-9.6Zm-64.7-.5a21.6 21.6 0 0 0-8.5 4.5c0 .1-.1.2-.3.2v.1c.9 1.1 2 2.2 3.1 3.2a15.3 15.3 0 0 0 5.9 3.2c-.2-.3-.2-.6-.3-1a28 28 0 0 1 .1-10.2Zm20.5 3.8-3.3-2a23 23 0 0 0-7.1-2.5l.3.7a22.5 22.5 0 0 1 .3 10.6l.4-.1a18 18 0 0 1 2.4-.7c2.3-.6 4.2-1.8 5.9-3.5l1.1-2.5Z"/><path fill="#87441D" d="m389.1 28.7-6-4.5a14.9 14.9 0 0 0-3.2-2.1h.2c-5.3-2.5-10.8-4-16.6-4.4-2.4-.2-4.7-.6-7-1.2-6.1-1.4-12.3-2-18.6-1.8a207.8 207.8 0 0 0-21.9 1.8l-12.3 1.7-12 1.2a243.6 243.6 0 0 1-15 1.3l-6.6 1.1c-2.7.6-5.4 1-8 1a12 12 0 0 1-3.4-.2 13.7 13.7 0 0 0-3.8 2.8l-.7.6c-3.8 3.3-7.2 7-10.1 11.3-2.3 3.5-4.5 7-6.6 10.7a43.3 43.3 0 0 0-3.6 8c-1.3 4.6-2.3 9.2-3.2 13.9a82.8 82.8 0 0 0-1.3 18.4l1.3 5a38.2 38.2 0 0 0 3.2 8.9l2.2 4.2a46.2 46.2 0 0 1 4-10c.7-1.9 1.4-3.7 1.9-5.6a198.5 198.5 0 0 0 2.6-8.8c0-.3.2-.6.3-.8l1.7-4.6c.6-1.9 1.4-3.8 2.3-5.6.4-1 1-2 1.8-2.7l-.2.3.3-.5 9-13.4c1.2-2 2.8-3.4 4.8-4.3 2.8-1.4 5.8-2.2 9-2.4 6-.4 12-.3 18 .2 5.4.4 10.8.1 16.2-1a47.7 47.7 0 0 1 28.6 3.8 79 79 0 0 0 15.6 1.7 80.7 80.7 0 0 1 25.6 3.3 14 14 0 0 1 9 8.9 23 23 0 0 0 6.6 9.4 153 153 0 0 1 12.6 12c3 3.2 4.7 7.1 5.1 11.6l.5 4 .5-1.7a51.8 51.8 0 0 0 2.5-26.9 99 99 0 0 0-3.8-15.5l-3-8.8c-1.9-5-4.4-9.5-7.7-13.4a10.7 10.7 0 0 0-4.1-3.2 47.8 47.8 0 0 1-6.7-3.7Zm18.8 21.5h.1v.2-.2Z"/><path fill="#CCC" d="M355 924.3h-13.4c-4.9-.1-9.8 0-14.7.3-8 .1-16.2 0-24.3-.5a580 580 0 0 1-24.8-2 165 165 0 0 0-24.8-.6c-8.2.5-16.5.5-24.8.2-8.3-.5-16.6-1.6-24.8-3.5-8-1.8-16-3.9-24-6-4-1.2-8.1-2-12.3-2.6-6.7-.8-13.3-2.4-19.7-4.5l-2.5 41.1c-.8 13.4-2.3 26.6-4.6 39.7a469.9 469.9 0 0 0-5.4 40.4v5.5h379.2c-1.8-7.7-2.8-15.6-2.8-23.9l.2-40.9a403.6 403.6 0 0 0-3.2-55.3h-.3l-.4.2-.6.1h-.9a420.6 420.6 0 0 1-27 4.2h.3l-.8.1h-.3a361.3 361.3 0 0 1-46.1 4c-8.3.2-16.6.3-24.8.2a183.2 183.2 0 0 0-31.8 2.2c-6.8.9-13.7 1.4-20.6 1.6Zm-13.8-27.9c-3.9-.2-7.8-.4-11.8-.4-12.9 0-25.8.7-38.6 2-12.8 1.2-25.5.2-38-3-5.5-1.4-10.9-2.5-16.4-3.5-6.2-1-12.3-2.4-18.3-4.1-11-3.1-21.1-8-30.4-14.8-2.8-2-5.6-4-8.5-5.8-2.8-1.8-5.3-3-7.5-3.6a1909.3 1909.3 0 0 0-20.2-5.2 273 273 0 0 1-.8 4.3c-1 11.4-2 22.7-2.8 34.1 6.7 2.4 13.4 4 20.4 4.9 8.6 1 17 3 25.3 5.7 7.7 2.6 15.5 4.3 23.5 5 8.4.7 16.9 1 25.3 1.2h20.9c8.4 0 16.9.5 25.3 1.3 8.4.9 16.8 1.4 25.3 1.5h28.4l10.5-.2c8.3 0 16.5-.6 24.8-1.6a313.5 313.5 0 0 1 24.2-2c3-.2 6-.2 9-.2a502.3 502.3 0 0 0 66.8-4 1748.3 1748.3 0 0 0 29.8-4.8l-1.9-17.8a332.6 332.6 0 0 0-2.7-17.7l-.2-.2-1 .2c-.5.1-1 .1-1.6 0-.5 0-1 0-1.6-.3l-.6.2a14 14 0 0 1-2 .2h-1.9a1369.8 1369.8 0 0 1-28.1 14.9l-3.5 1.5c-11.1 4.6-22 9.9-32.5 15.7a109.2 109.2 0 0 1-32.6 9.2 126.3 126.3 0 0 1-37.3-8.5c-6-2.4-12.3-3.8-18.7-4.2Z"/></g><defs><clipPath id="a"><path fill="#fff" d="M0 0h663v1024H0z"/></clipPath></defs></svg>