<svg xmlns="http://www.w3.org/2000/svg" width="663" height="1024" fill="none"><g clip-path="url(#a)"><path fill="#DE9E71" d="M460.4 319.8h1c-8-4.2-15.8-8.8-23.3-13.9-5-3.2-10-6.2-15.2-8.8l-.7-.4h-.4v-.1h-.2a72 72 0 0 0-.8-.4l-1-.6a45 45 0 0 1-3.2-1.3h.8l-.5-.4a140.8 140.8 0 0 1-5.9-4.7c-.7-.6-1.2-1.3-1.8-2a56.9 56.9 0 0 1-6.2-5.8 50.4 50.4 0 0 1-11.3-23.4c-1.3-6-2-12.2-2.5-18.3l-.4-5.6v-.3c-3.1 2-6.2 3.9-9.4 5.6-5.6 3.1-11.1 6.3-16.6 9.6-5.4 3.3-11 6.4-16.6 9.3-2 1-4.3 1.9-6.6 2.4a77 77 0 0 1-14 1.7A207 207 0 0 1 308 258c-3-1-6.1-1.6-9.2-2.2a141 141 0 0 1-17.3-4.3h.2-.3c-2.4-.3-4.6-.9-6.7-1.7a15.2 15.2 0 0 1-.3 1.8 87.7 87.7 0 0 1-1.4 21 2911.4 2911.4 0 0 0-1.5 4.6 3 3 0 0 1-.2-.4c-1 1.8-2.1 3.6-3.5 5.2a6 6 0 0 1-3 3.3l-2.3 1.2a161 161 0 0 1-3.6 2.7l.4-1-5.8 2.9a228 228 0 0 0-13 6.4L228 304c-4 2-8 4-12.1 5.5-4.4 1.7-8.7 3.6-12.9 5.6a330 330 0 0 1-10.2 4.5 548.7 548.7 0 0 1-29.6 13.8c-1.1.6-2.3 1-3.5 1.3-5.5 2.5-11.2 4.7-17 6.8-2.9 1-5.7 2.3-8.5 3.8a528 528 0 0 1-23.6 11.9l.5-.2.5-.2a80.6 80.6 0 0 0-5.6 3.8A80.4 80.4 0 0 0 75 396c-3.4 7.5-6.2 15.3-8.3 23.3-2 7.7-4.6 15.4-7.6 23.1l.2.5.2 1-.7 2.5-13 47.5c-4.7 17.4-9.1 35-13.3 52.6a556.7 556.7 0 0 0-11.1 74 692.1 692.1 0 0 0-2.2 51.7 156.2 156.2 0 0 1-5 37.6A830.2 830.2 0 0 0 8 760a423.4 423.4 0 0 0-1.6 54c.7 16 1.7 31.9 3 47.8 1.1 16.2 2 32.5 2.4 48.8.5 16.4 1.3 32.7 2.3 49 1 17.4 2 34.8 2.7 52.2.3 6.3.4 12.5.3 18.8h80.2a88.3 88.3 0 0 1-3.6-23.5c-.2-8.8-.6-17.6-1.3-26.4-.4-4.5-.7-9-.8-13.5a475.6 475.6 0 0 0-4-52.7c-1-8.7-2.2-17.3-3.4-26a255.2 255.2 0 0 1-2.4-39.6 247 247 0 0 1 2.4-33c-.1-1 0-2 .3-3.3 0-2.6.8-4.6 2.6-5.8l.9-2c2.2-4.9 4.8-9.5 7.8-14 1.2-1.7 2.6-3.2 4.1-4.6a130 130 0 0 0 17-18.1c-1-9.6-.2-19.1 2.3-28.6 2.4-9.3 5.4-18.4 9-27.3a47.7 47.7 0 0 1 9.3-14.6l-.2-.5a2 2 0 0 1-.2-.4 100 100 0 0 1-7.5-34.2c-.1-4.4.6-8.4 2.3-12.2a34.5 34.5 0 0 1-16-12.6 51.2 51.2 0 0 1-9.4-24.5c-.8-7-.9-14.2-.4-21.3l.2-1.6a287 287 0 0 1 3.7-23.8A71.1 71.1 0 0 1 97 544.8c-1.7-4.3-3.2-8.6-4.7-13-2.7-7.4-3.9-15-3.6-22.8 0-.7.3-1.3 1-1.6 3.1-1.7 5.1-.8 6.1 2.6l.7 3.1c1.4 9 3.8 17.6 7.2 26a70.1 70.1 0 0 0 6.7 13c2.4-8.2 5.2-16.4 8.3-24.5 1.6-4.3 3.6-8.4 6-12.3l3.2-6.5c.7-1.7 1.6-3.3 2.7-4.6 1-1.4 2.4-1.7 4-1 2.6 1.4 3.3 3.5 2 6.5a1875.5 1875.5 0 0 1-11.6 25.2 124.7 124.7 0 0 0-8.5 26.5l1 1.4c.5.8.8 1.7.7 2.7-.2 4.5-.8 9-1.8 13.5a101.8 101.8 0 0 0-1.9 31.3c.5 4.6 1.6 9 3.4 13.2l1.3 3c3.8 8.4 10 14 18.8 16.5 2.4.7 4.8.8 7.3.3a34 34 0 0 0 12-4.7c6.9-4.4 14-8.4 21.6-11.8 1.5-.8 3.1-1 4.7-.7 3 .5 4.2 2.2 3.3 5.2a3.6 3.6 0 0 1-3.2 2.8c-6.7 3-13 6.4-19.2 10.4-6.4 4-13.4 6.6-20.9 7.6-1.5.2-3 .2-4.5 0v.3c-.8 4.4-1.1 8.8-.9 13.3.5 8.3 2.4 16.3 5.6 24 .7 1.7 1.2 3.3 1.7 4.9a9 9 0 0 1 2.5.9 31 31 0 0 0 7.2 2.6c2.2.5 4.1.8 5.7 1a1641.9 1641.9 0 0 1 19.1 2.2h.7-.1c8.3.8 16.5 1 24.8.3 6.9-.5 13.6-1.7 20.2-3.6 6.9-1.9 13.8-2.8 20.9-2.7.4 0 .7.3 1 .7 2.2 3.2 1.4 5.5-2.2 6.7l-2.8.8c-8.6 1.6-17.2 3.4-25.8 5.2a82.9 82.9 0 0 1-19.8 2l-8.1-.2a52.9 52.9 0 0 1-10.3-1h-2.1c-8.7-.8-17.3-1.9-25.6-3.5-2.8-.5-5.2-1.6-7.2-3.1a59.3 59.3 0 0 0-10.2 18.4c-3 8.7-5.4 17.6-7.4 26.6a50 50 0 0 0-.7 18.3c.2 1 .2 2 0 3l.4.2 2.4 1.9c6.4 6 13.3 11.3 20.6 16 5.6 3.6 11.5 6.7 17.6 9.3 1.4.6 2 1.7 2 3.3-.4 3.2-2.1 4.5-5.2 4l-.9-.3a97.3 97.3 0 0 1-40.6-27.6l-5.4 5.5-13 13.5a25.4 25.4 0 0 0-5.5 9l-2 5.3a90.8 90.8 0 0 1-3.1 7 263 263 0 0 0-2 30v-.2c1.2 3.8 2.9 7.3 4.9 10.7a192.3 192.3 0 0 0 9.2 14.2 45 45 0 0 0 8.7 9.5c.6.5 1.1 1 1.4 1.6 2.5 1.4 5 2.6 7.5 3.6 4.5 1.7 8.8 3.5 13 5.6a221.7 221.7 0 0 0 55.6 19.3l-.7-.1a53 53 0 0 1 16.2 6l6 3.3c7.2 3.7 14.8 6 22.8 6.6 9 .7 18 2.1 26.8 4.2 8.7 2 17.6 3.8 26.5 5.2 3.6.6 7.3.7 11 .3l27.5-3.5c8.6-1.2 17.3-1.7 26-1.7 9.4 0 18.7-.3 28-.7a669 669 0 0 1 33.7-.4 266.6 266.6 0 0 0 51.5-4c8.5-1.4 16.6-3.8 24.4-7.2 8.6-3.8 17-8 25-13 7.3-4.5 14-9.5 20.4-15.2a63 63 0 0 1 17.4-11.2c1.1-2 2.4-4.1 4-6a71.5 71.5 0 0 0 14-59.3 78.7 78.7 0 0 0-10.3-23.8 27.5 27.5 0 0 0-14.1-11.4c-.4.3-.8.4-1.3.4a311.1 311.1 0 0 0-28.8 17.9 28 28 0 0 1-15.4 4.9c-.2 0-.5 0-.8-.2-2.9-2.8-2.6-5.3.9-7.4.4-.3 1-.5 1.5-.7 7.3-2.2 14-5.8 20-10.8 1.7-1.5 3.6-2.8 5.5-4 4.4-2.7 9-5 13.5-7l.8-2.6c.5-1 .8-2.1 1-3.2a174.8 174.8 0 0 0 .7-34.8 79.4 79.4 0 0 0-4.1-17.1 52.5 52.5 0 0 0-7.3-13.7c-1.7.6-3.5 1.1-5.4 1.5-7.3 1.4-14.7 2.5-22.2 3.4a65.2 65.2 0 0 1-16.8 0 77.6 77.6 0 0 1-10.3-1h-.4.1l-.4-.1c-8.5-1.5-16.8-3.7-25-6.5-3.8-1.2-7.4-3-10.8-5.1-1.7-1-2.1-2.5-1.4-4.5 1-2.6 2.7-3.4 5.3-2.3a179.3 179.3 0 0 0 33.2 10h-.2c7.5 1 15 1.4 22.5 1.3a87.4 87.4 0 0 0 27-4.2 264 264 0 0 1 4.4-1.2l.3-.4c1-1.3 1.7-2.7 2.3-4.2a78 78 0 0 0 5.4-24.8 44.4 44.4 0 0 0-2.8-17.4c-5.4-.4-10.8-.6-16.2-.8-6-.2-11.9.3-17.7 1.6-1.9.4-3.7.6-5.6.5-3.8.1-7.5-.4-11-1.6a2 2 0 0 1-1.3-1.5c-.8-3.7.7-5.5 4.6-5.4a86.4 86.4 0 0 0 13.2-.5l6.6-.9a76 76 0 0 1 25.6.2c1.8.3 3.5 0 5-.9 8-8 11-17.5 9.3-28.6l-3.6-21.2a93 93 0 0 1 1.7-41.3 125 125 0 0 0-12.2-12.6 71.9 71.9 0 0 1-9.5-10.2c-.3-.4-.4-.8-.2-1.4.8-3.1 2.8-4.3 5.8-3.3 4.8 4 9.5 8.1 14 12.4a51 51 0 0 1 4.6 5.1l2.4-10.2a60 60 0 0 0 1.3-9.6c.4-8.2 1.4-16.3 3-24.3.4-2.4 1.8-3.7 4.1-4 2.6-.1 4 1 4.6 3.6-1.9 8.8-3.1 18-3.8 27.8-.6 8.6-2.3 17-5 25a76.5 76.5 0 0 0-4 26.6c.1 4.8.5 9.5 1.2 14.2.9 6.3 2 12.5 3.4 18.7 2 9 1.3 17.7-2 26.2a29.5 29.5 0 0 1-10.4 13.4c1.3 2.6 2.2 5.5 2.7 8.6a63.6 63.6 0 0 1 0 17v.1l-.2 1.6a84 84 0 0 1-3.7 17.5 41 41 0 0 1-4.5 9.6c5.2 7 8.8 14.6 10.7 23.1.9 4 1.6 8 2 12v.1l.2 1.6c1 8 1 16.1.1 24.2a231.1 231.1 0 0 0-1.5 14.4l1.3.5a37.9 37.9 0 0 1 18.4 17.9c4 8 7 16.2 9 24.9s2.2 17.5.6 26.2c-1.5 7.8-4 15.1-7.5 22a110.8 110.8 0 0 1-12.4 19.4c5.4 18.4 9.3 37.4 11.8 56.9 2.2 17 3.5 34 4 51 .5 14.7-3 28-10.4 40h80.7c3.6-20.5 5.4-41.4 5.3-62.4-.1-21.5.2-43 1-64.6.6-21.5 1.7-43 3-64.6.9-16 .2-31.8-2-47.6-2.4-16-4-32-5.1-48.1a2180.2 2180.2 0 0 1-4.6-120.7 270 270 0 0 0-8.3-63.2c-5.2-20.5-10.6-41-16.2-61.5a638.7 638.7 0 0 0-20.6-63 269.2 269.2 0 0 0-16.9-36.2 90.5 90.5 0 0 0-24.2-28 151 151 0 0 0-21.3-13.7l-21.6-9.4c-6.7-2.8-13-6.4-19-10.7-3.7-2.7-7.5-5.3-11.5-7.7a636 636 0 0 0-24.7-9.3ZM381.1 577c1.7-2.9 3.8-3.3 6.3-1.2a164 164 0 0 1 12.8 12c1.5 1.5 3.1 3 4.9 4.3a134.6 134.6 0 0 0 46 22.8c8.3 2.2 16.8 4 25.3 5.6 2.2.4 4.5.6 6.8.6 4.8 0 9.7.2 14.5.7 3 .2 4.3 2 3.8 5a3.6 3.6 0 0 1-3.1 3.2H497.8c-8.6.1-17.2-.5-25.6-1.7-5.3-.8-10.4-1.8-15.6-2.9-8.4-1.9-16.6-4.6-24.6-8-8-3.5-15.6-7.6-23-12.3-6.8-4.4-13.4-9.9-19.5-16.4-2.5-2.6-5.1-5.2-7.8-7.7-1.2-1.2-1.4-2.5-.6-4Zm-193.5-1.8a6.7 6.7 0 0 1-7 3 5.4 5.4 0 0 1-3.4-4.9 6 6 0 0 1 2.8-5.7 8 8 0 0 1 2-1c3.3-.4 5.4 1 6.3 4a5 5 0 0 1-.7 4.6Zm90-2.7c2.6 2.3 2.5 4.6-.3 6.7a191.1 191.1 0 0 1-34.9 21l-2 1a284.5 284.5 0 0 1-47.6 16.6c-3 .8-6 1.2-9 1.2-7.7-.3-15.3-1.1-22.8-2.5-1-.2-1.7-.8-2-1.8-1.2-3.3-.1-5.2 3.2-5.8 1-.2 2-.2 2.9 0a91.2 91.2 0 0 0 25.9.4c2.2-.3 4.3-.7 6.4-1.5a1830 1830 0 0 0 24.5-8.6 208.9 208.9 0 0 0 18.5-7.4c8.6-4 16.7-8.7 24.3-14.3 3.4-2.5 7-4.3 11-5.5.7-.2 1.3 0 1.8.5Zm-97.8 128.8h-.1a332.3 332.3 0 0 1 .7 0h-.5Zm-.8-.1h.3H179Zm-94.3 18.2-11.5-3.8c-1.4-.5-2.7-1.2-3.9-2.1 0-.2-.2-.3-.3-.4 0-.2-.2-.3-.3-.5a2 2 0 0 1-.3-.4l-.1-.5-.1-.5a3.6 3.6 0 0 1 .3-2.3l.2-.4a5.6 5.6 0 0 1 .7-1l.4-.3.5-.3.4-.2.6-.2.5-.2c4.5 1.2 9 2.5 13.3 4 5 1.7 9.6 3.9 14 6.6 1.1.7 2 1.5 2.7 2.6l.2.4.2.6.1.5v1.6a3.1 3.1 0 0 1-.5 1 5.4 5.4 0 0 1-.7 1 114.9 114.9 0 0 1-.9.6l-1 .4h-1.1a4.5 4.5 0 0 1-2-.4 42.2 42.2 0 0 0-11.4-5.8Zm240 127.7a5 5 0 0 0-1.4 1 33 33 0 0 0-2.2 2.2l-.7.9 1 .7 1 .7c.4.3.7.7 1 1.2l.2.5.2.5.1 1a5.5 5.5 0 0 1-.2 1.6l-.3.6-.7.8-.8.7-1 .4-1.2.2c-.7 0-1.3-.2-2-.6a91 91 0 0 1-3.7-2.8l-1.1-1.5c-1.2-9.2 3-14.6 12.7-16.3 8-1.3 15.3.2 21.9 4.6 1.8 1.2 3 2.8 3.8 5a59.8 59.8 0 0 1 .1 1.5v.5c-.4 2.3-1.5 4-3.4 5.4a19 19 0 0 1-7 3.1c-1.1.3-2.2.4-3.3.3l-.6-.1a6.5 6.5 0 0 1-2.2-1.5l-.3-.4-.2-.6a4 4 0 0 1-.2-1v-1.1a98.7 98.7 0 0 0 .2-1l.5-1 .7-.8c.7-.5 1.4-.9 2.2-1a43.5 43.5 0 0 0 4.5-1.2c-2-1.2-4.3-2.1-6.8-2.6a27.5 27.5 0 0 0-10.7 0Zm153.8-265.3c-.5-.2-1-.6-1.3-1.1l-.1-.4-.2-.3-.1-.3c-.7-.8-1-1.7-1.2-2.7 0-1 .2-1.9.8-2.7.2-.4.6-.8 1-1 2-3.3 4.7-3.6 8-.8 1.6 1.5 2 3.3 1 5.5-1.6 3.9-4.2 5.2-7.9 3.8Zm127.8 124.5a6.7 6.7 0 0 1-1.4 2l-.4.4c-5 .6-9.7 1.9-14.3 3.8a298 298 0 0 1-13.5 5.3c-1.3.5-2.6.7-4 .7l-.5-.1-.5-.3c-.2 0-.4-.2-.5-.3l-.5-.4-.5-.4c0-.2-.2-.3-.3-.5l-.3-.5-.2-.6V714c0-.5 0-.9.2-1.3.2-.6.5-1.1.9-1.5l14.7-6.3c4.8-2 9.7-3.4 14.8-4.1 1.3-.2 2.5-.2 3.7 0l1 .8 1 .8.4.6.3 1.2a5.7 5.7 0 0 1 0 2Zm-61.8 25.2v.1-.4.3ZM234.3 123.7l-.8-.7-1.6-.6c-.5-.1-1-.1-1.6 0l-1.6.2-.7.5-.7.5-.9.5-1.8 2.1c-.6.8-1 1.6-1.4 2.5l-.4 1-.3 1.4a33 33 0 0 0 .8 19.3c1 3 2.5 6 4.3 8.7 2.2 3.4 5.3 5.6 9.1 6.5.4 0 .8 0 1.1-.3l1.1-.5 1-.6c.2-.5.5-.8.8-1.1a163.3 163.3 0 0 0-1.7-11.4c-1.3-6-2.5-11.9-3.6-17.9a76 76 0 0 1-1-10.1Zm-7.3 10.8c.1-.3.4-.5.8-.6 2-.9 3.4-.3 4.2 1.8.3.6.4 1.2.3 2-.5 3.2-.2 6.4 1 9.4.5 1.5 1 3 1.3 4.6.2.5.1 1-.2 1.5-.7 1.4-2 2-3.6 1.7a5 5 0 0 1-2.8-3.3l-.8-2.4c-1-3.1-1.5-6.3-1.6-9.6a9 9 0 0 1 1.4-5.1Zm211-4.6c-.7-3-2-5.8-4-8.3-1-.5-1.9-.8-3-1-.9-.2-1.9-.2-2.8 0l-1.2.1-.6.2-.5.3-.5.1a17.1 17.1 0 0 0-4 4 6 6 0 0 1-.9 1.8l.3 8.2a140.2 140.2 0 0 1-1.7 25.3l.5.9c1 2.1 2.4 3.9 4.2 5.3 5 .2 9-2 11.7-6.5a26 26 0 0 0 3.2-9.5c1.1-7 .9-14-.7-20.9Zm-11.3 1.6c1.2-1.9 2.7-2.2 4.5-1a3 3 0 0 1 1.4 2c.7 3.8.8 7.5 0 11.4-.3 2.4-.8 4.8-1.3 7.3-.5 2.3-1.8 3.5-4 3.4-.7 0-1.3-.2-1.8-.7a3 3 0 0 1-.8-1.6 3.2 3.2 0 0 1 .4-2.5 61.4 61.4 0 0 0 1.3-17.1c0-.5 0-.9.3-1.2Zm-125-73.7a153.7 153.7 0 0 1-21-.8 249.5 249.5 0 0 1-9 1c-.8 0-1.6.2-2.3.4l-.3.2-.3.2a53.3 53.3 0 0 0-4.3 6 76 76 0 0 1-8.3 11.1l-.2.3a10.7 10.7 0 0 1-.2.7v.1c-.5 1.2-1 2.4-1.3 3.5-.4 1.2-.8 2.4-1.4 3.6l-.5 1.2.1-.3c-.9 2.2-1.6 4.4-2.3 6.6a162.4 162.4 0 0 1-2.4 7.9c-3.1 5-4.9 10.6-5.3 16.6-.5 6.2 0 12.3 1.2 18.4 1.3 5.9 2.4 11.8 3.5 17.7.1.6.1.7.1.3l.3 1.5 1.4 10c.5 3.4.7 6.9.6 10.3v1a26.8 26.8 0 0 1 .7 7.8v2l.6 4c0 1.3.2 2.5.4 3.7v1.6a162.2 162.2 0 0 0 8.7 22.6c2.7 4.9 5.2 9.9 7.5 15 1.5 3.2 3.6 5.9 6.3 8 1.3 1.1 2.8 1.9 4.4 2.3a52.4 52.4 0 0 0 4 1c6 1.7 12 3.1 18.2 4.3 6 1 12 2.6 17.8 4.5 2.8.9 5.6 1.5 8.5 1.9a51.7 51.7 0 0 0 21.9-6.4c5.2-3.3 10.5-6.5 15.9-9.5l16-9c3.4-1.9 6.4-4.1 9.1-6.7 1.2-1.1 2-2.4 2.7-3.9 2.3-5.4 4.6-11 6.8-17 2-5.9 4.3-11.6 6.6-17.4a61.5 61.5 0 0 0 4.4-18.1l1.1-11.2c.8-6.2 1.1-12.3 1-18.5 0-6.1-.3-12.3-.5-18.5a74.1 74.1 0 0 0-1.5-13.8 39 39 0 0 0-.8-4.9l-.5-3c-.2-.5-.4-1-.8-1.5a13.6 13.6 0 0 0-1.8-2.4 235 235 0 0 0-11.3-9.9 34.4 34.4 0 0 1-8.8-10.4 174.3 174.3 0 0 0-4-6.5 2.6 2.6 0 0 1-.4-.3l-.4-.1-1-.3-.7-.3-6.5-1a76.9 76.9 0 0 0-9-1.4c-6 .5-12 .4-18-.6-5.8-.9-11.6-2.3-17.3-4.2a33.9 33.9 0 0 0-13-1.7 59 59 0 0 1-14.4 2.3Zm43 48.2-.2.2a26 26 0 0 0-5.2 6.6c-.2.4-.5.7-1 1a4 4 0 0 1-4.3.1c-2-1.5-2.6-3.4-1.4-5.7a25 25 0 0 1 5.7-7.7c2.5-2.2 5.2-3.8 8.4-4.7A45.6 45.6 0 0 1 379 99c2.8 1.6 5.4 3.5 7.7 5.8 1.2 1 2 2.4 2.6 3.8.3.8.3 1.6 0 2.4-.7 2.1-2.2 3-4.5 2.8a4.9 4.9 0 0 1-3.4-2c-.4-.7-1-1.3-1.5-1.9-1.9-1.7-4-3.1-6.3-4.1h.3-.5v-.1a46.8 46.8 0 0 0-19-2.7c-.8 0-1.5.2-2.1.3l-.6.1-2.4.5c-1.7.5-3.2 1.2-4.7 2.2Zm-60-13h.4c4-.5 7.8-.1 11.6 1a49.5 49.5 0 0 1 13.3 6l.2.2.7.5.4.3a114.9 114.9 0 0 1 2.5 1.9c.8.5 1.4 1.2 1.7 2l.3.6c.4 2.7-.7 4.4-3.3 5.1-1.1.4-2.2.2-3.2-.5a223 223 0 0 1-4.5-3.5 25.1 25.1 0 0 0-6.8-3.4l-.6-.2c-2.5-1-5.1-1.5-7.8-1.7a28.2 28.2 0 0 0-4.2 0l-.5.1c-3 .4-5.8 1.3-8.3 3-.4.1-.7.4-1 .8a72.9 72.9 0 0 0-7 10.1c-.7 1.3-1.6 2.3-2.6 3.2a3.7 3.7 0 0 1-4 .5c-.6-.2-1-.5-1.4-.8-.7-.7-1-1.6-1.1-2.6a4 4 0 0 1 .6-2.7l.6-.8 1-1.7a25.6 25.6 0 0 1 1-1.3c2-3.4 4.3-6.5 6.8-9.5a16 16 0 0 1 7.8-5.1c2.2-.6 4.4-1.1 6.6-1.4h.7Zm22.7 25.3a18.8 18.8 0 0 1 3 2 18 18 0 0 1 5.6 4.6c.2.2.3.6.4 1 .3 1.3.1 2.4-.5 3.2a4 4 0 0 1-.7 1.6l-.4.6c-1 3-2.8 5.4-5.4 7.3a26.9 26.9 0 0 1-8.7 4l-5.6 1.3c-2.1.4-4.2.5-6.3.3-3.4 0-6.4-.7-9.3-2.3a39.4 39.4 0 0 1-7.7-5.6c-1.6-1.5-3-3.1-4.2-5-.4-.6-.6-1.4-.4-2.3a5 5 0 0 1 .8-3.2 10 10 0 0 1 2.9-3.2l3.7-2.6a24 24 0 0 1 8.6-3.9 194.4 194.4 0 0 1 4.7-1c3.5-.6 7-.5 10.5.2a35 35 0 0 1 9 3Zm16.8 34.4 1-.5c2.3-.4 3.9.4 4.8 2.5.6 1.4.5 2.7-.4 3.9a15.1 15.1 0 0 0-2.2 12.8c.2.5.4 1 .8 1.5l.8 1.5 2 .8a11 11 0 0 0 3.2.2l1.1-.5 1-.7.6-.7c1.9-1.6 3.8-1.6 5.7 0 .9.7 1.3 1.7 1.3 2.8 0 1.8-.7 3.3-2.1 4.4a12.6 12.6 0 0 1-8.5 3.2c-3.3 0-6.3-.8-9-2.6-1.3-1-2.4-2-3.1-3.4a19 19 0 0 1-2.6-9.2 26 26 0 0 1 1.4-9.6 15 15 0 0 1 4.1-6.4Zm24.2-36c3-1 6-1.6 9.2-1.5 3 .1 6.1.8 9 2a39.6 39.6 0 0 0 6 2 23 23 0 0 1 7.7 4l1 .6a6.2 6.2 0 0 1 3.3 6.6c0 .7-.3 1.4-.8 2a30.9 30.9 0 0 1-8.6 7.6 47 47 0 0 1-8.5 3.4c-1.4.5-2.8.7-4.3.8a33.8 33.8 0 0 1-12.1-1.5l-1-.5h.2l.3.2-.5-.2a29.5 29.5 0 0 1-2.6-1.3c-2.7-1.2-5-3-7-5.4a25 25 0 0 1-4.1-7c-.2-.6-.3-1-.2-1.5a4.3 4.3 0 0 1 2.5-3.2c.2-.6.4-1 .8-1.5.3-.4.7-.8 1.1-1l.6-.4h.1a46 46 0 0 1 7.9-4.1Zm30.1 21.3-.1.1-.2.1.2-.1.1-.1ZM334 209.9l6-.8h-.2c3-.4 5.8-1 8.7-2a15 15 0 0 0 7-4.6c1.8-1.9 3.8-2 5.8-.5 1 .8 1.4 1.8 1.4 3a6 6 0 0 1-1.8 4.2 25 25 0 0 1-11 6.4 59.4 59.4 0 0 1-9.3 1.9A532.6 532.6 0 0 1 324 219c-3.1-.4-6.3-1-9.3-1.7-3.1-.7-6-1.8-8.9-3.4a19.2 19.2 0 0 1-6.8-6.6c-1.5-2.4-1.3-4.4.8-6.2.7-.6 1.5-.9 2.4-.8 2.1.2 3.6 1.3 4.5 3.3.2.4.4.8.8 1 2.4 2.3 5.2 3.7 8.4 4.4 2.8.5 5.5 1 8.3 1.3 1.7.3 3.5.3 5.3.1l4.6-.5Z"/><path fill="#000" d="M544.5 731.6v-.4.4Zm61.2-24.1.6-1.2.1-.6v-1.4l-.3-1.2-.4-.6-1-.8-1-.7c-1.2-.3-2.4-.3-3.7-.1-5 .7-10 2-14.8 4l-14.7 6.4c-.4.4-.7.9-1 1.5a5.5 5.5 0 0 0-.1 2.6l.2.6a92 92 0 0 1 1 1.4l.6.4.5.3.5.3.6.1c1.3 0 2.6-.2 4-.7 4.5-1.6 9-3.4 13.4-5.3 4.6-1.9 9.4-3.2 14.3-3.8a114.9 114.9 0 0 0 1.2-1.2ZM477.2 580.7c.3.5.8 1 1.3 1.1 3.7 1.4 6.3 0 8-3.8.9-2.2.5-4-1.2-5.5-3.2-2.8-5.8-2.5-8 .8-.4.2-.7.6-1 1a4.3 4.3 0 0 0 .5 5.4l.1.3c0 .1 0 .2.2.3l.1.4ZM323.2 848c.5-.4 1-.8 1.6-1l2-.4c2.9-.4 5.8-.3 8.7.3 2.5.5 4.8 1.4 6.8 2.6l-.8.3-3.7.9c-.8.1-1.5.5-2.2 1l-.7.8a4.7 4.7 0 0 0-.8 2v1c0 .4.2.8.3 1.1l.2.6.3.4.9.7.9.6.4.2h.6c1 .2 2.2 0 3.2-.2a19 19 0 0 0 7-3.1c2-1.3 3.1-3.1 3.5-5.4v-1.3l-.1-.8c-.7-2-2-3.7-3.8-5-6.6-4.3-14-5.8-21.9-4.5-9.7 1.7-14 7-12.7 16.3a10.4 10.4 0 0 0 3 3c.5.5 1.2.9 1.8 1.3.7.4 1.3.6 2 .6l1.1-.2 1-.4.9-.7.7-.8.3-.6.1-.5.1-1a10.8 10.8 0 0 0-.3-1.6l-.2-.5a5 5 0 0 0-1-1.2 15.6 15.6 0 0 0-2-1.4l.7-.9 2.2-2.2Zm20.2.8v-.1ZM73.2 715.6l11.5 3.8a42.2 42.2 0 0 1 12 6l1.4.3 1.1-.1 1-.4c.2 0 .3-.2.5-.3a114.9 114.9 0 0 1 .8-.8 5.5 5.5 0 0 0 .6-1l.1-.5.1-.5v-1.6l-.3-.6-.2-.4c-.7-1-1.6-1.9-2.7-2.6-4.4-2.7-9-5-14-6.6a165 165 0 0 0-13.3-4 3 3 0 0 0-.5.2 3 3 0 0 0-.6.2 2 2 0 0 0-.4.2l-.5.3a114.9 114.9 0 0 1-.8.8l-.3.5-.2.4-.2.6a18.3 18.3 0 0 0-.2 1v.7a501 501 0 0 1 .6 1.4l.3.5.3.4c1.2 1 2.5 1.6 4 2.1Zm106-14.4h-.2.2Zm.5 0h.2l.2.1h.3-1 .3Zm97.6-122c2.8-2.1 3-4.4.2-6.7-.5-.5-1.1-.7-1.8-.5-4 1.2-7.6 3-11 5.5A138.4 138.4 0 0 1 235 594c-4.2 1.9-8.6 3.6-13 5.1-8.1 3-16.3 5.8-24.5 8.6-2 .8-4.2 1.2-6.4 1.5-8.6 1.1-17.3 1-26-.4-.9-.2-1.8-.2-2.8 0-3.3.6-4.4 2.5-3.3 5.8.4 1 1 1.6 2 1.8a155 155 0 0 0 23 2.5c3 0 6-.4 8.9-1.2a334.2 334.2 0 0 0 47.5-16.7c1.6-.7 2.3-1 2-1h.1c2-.8 4-1.6 5.9-2.7a234.2 234.2 0 0 0 29-18.2Zm-96.6-1c2.9.5 5.2-.5 7-3a5 5 0 0 0 .6-4.5c-.9-3.1-3-4.4-6.3-4a8 8 0 0 0-2 .9 6 6 0 0 0-2.8 5.7c.2 2.4 1.3 4 3.5 5Zm206.7-2.4c-2.5-2-4.6-1.7-6.3 1.2-.8 1.5-.6 2.8.6 4 2.7 2.5 5.3 5 7.8 7.8 6.1 6.4 12.7 11.9 19.6 16.3 7.3 4.7 14.9 8.8 22.9 12.2 8 3.5 16.2 6.2 24.6 8.1a159.3 159.3 0 0 0 41.1 4.6h.7a3.6 3.6 0 0 0 3-3.2c.6-3-.6-4.8-3.7-5-4.8-.5-9.7-.7-14.5-.7-2.3 0-4.6-.2-6.8-.6-8.5-1.5-17-3.4-25.4-5.6a128.6 128.6 0 0 1-50.8-27.1c-4-4.2-8.3-8.2-12.8-12Zm74-256h-1c8.4 3 16.6 6 24.7 9.3 4 2.4 7.8 5 11.6 7.7 5.9 4.3 12.2 7.9 18.9 10.7 7.2 3 14.4 6.2 21.6 9.4a151 151 0 0 1 21.3 13.6c10 7.7 18 17 24.2 28a269.4 269.4 0 0 1 17.8 38.7c7.5 19.8 14.1 40 19.7 60.6 5.6 20.5 11 41 16.2 61.5a270 270 0 0 1 8.3 63.2 2374.1 2374.1 0 0 0 4.6 120.7c1 16 2.7 32.1 5 48 2.3 15.9 3 31.8 2 47.7-1.2 21.5-2.3 43-3 64.6-.7 21.5-1 43-1 64.6a348.4 348.4 0 0 1-5.4 63.8l.1 1c0 .3.2.6.3.8l.5.8.6.7.8.5.9.3h1.9c.3 0 .6-.2.8-.3l.8-.5a5.8 5.8 0 0 0 1.2-1.5c2.1-8.3 3.4-16.7 4-25.3 1.1-17 1.8-34 2.2-51.1l1.1-55.9c.5-21.6 1.4-43.2 2.6-64.8.7-14.3.1-28.6-1.8-42.8-3-21.2-5-42.4-6-63.7a2154.7 2154.7 0 0 1-2.2-60.8c-1-22.4-2-44.7-3.2-67-1-19.8-4.2-39.1-10-58-6-20.5-11.8-41-17.2-61.7a485 485 0 0 0-19-57.8c-5.9-14.5-13.2-28.1-22.2-40.8a96 96 0 0 0-42.3-33.7c-13.2-5.5-25.8-12.1-37.6-20a152.7 152.7 0 0 0-41-19.2c-3.6-1.9-7-4-10.4-6.1l-15.7-10.4a95 95 0 0 0-9.8-5.8l-8.8-6a44 44 0 0 1-11.8-11.9 49 49 0 0 1-6.5-17.6l-.3-1.4-.2-2-.7-8.9a123 123 0 0 0-1.2-9.5v-.3c0-1.1-.3-2-1-2.8l.8-1c3-4.7 5.5-9.8 7.4-15.1l.1-.5v.2-.2l4.5-11.7 3.7-8.8a67 67 0 0 0 5.2-18.6c2 1.5 4.6 2.4 7.5 2.7l2.5-.1c3.9-.6 7.4-2.2 10.4-4.9 3-2.6 5.1-5.8 6.6-9.6.6-1.2 1-2.5 1.3-3.9 1.5-6.3 2.1-12.7 2-19.1 0-6.3-1.5-12.1-4.4-17.6a13.6 13.6 0 0 0-6-6 16.3 16.3 0 0 0-12.7-1.5l.5-2c1-3 1.8-6 2.6-9 1.6-6 2.5-12 3-18.1.3-6.5-.5-12.8-2.4-19a294.5 294.5 0 0 0-9.2-25.2c-1.8-4-4.3-7.2-7.6-9.8a47.7 47.7 0 0 0-11.8-6.9c-.8-.5-1.5-1-2.2-1.8a27 27 0 0 0-9.2-6.1c-3-1.3-6-2.1-9.1-2.7-6-1-12.1-2-18-3.3-6-1.2-12-1.8-18.2-1.8a114.9 114.9 0 0 0-28.3 2.7h-.2l-13.7 1.7c-2.2.3-4.5.5-6.8.6a209.5 209.5 0 0 0-29 3.1c-.6.2-1.2.2-1.8 0-3.4-.6-6.5 0-9.2 2a68.7 68.7 0 0 0-18.7 19c-3.3 5.2-6.3 10.5-8.9 16v.1c-.7 1.5-1.3 3.2-1.8 4.8a101.7 101.7 0 0 0-4 32 54.1 54.1 0 0 0 4.6 15.9v-.1l.2.4v.2l.7 1.4a60 60 0 0 0 4 7.2 18 18 0 0 0-15.1 12.7c-2.1 6-2.6 12.1-1.4 18.4a53 53 0 0 0 6.4 17.5 23 23 0 0 0 14 11c2.6.7 5 .5 7.5-.5l.2 4.7c.2 5.4.7 10.7 1.4 16V196c-.2.7 0 1.4.2 2 .3.6.6 1.1 1 1.5.8 1.8 1.3 3.7 1.9 5.6a180.8 180.8 0 0 0 9 20.6 438 438 0 0 0 8.4 15.4 17 17 0 0 0 3.2 4c-1 1.2-1.2 2.7-.7 4.6-.2 3.7-.3 7.3-.3 11v.4a220 220 0 0 0-1 8.6 10 10 0 0 1-2.7 6h-.1c-.8.4-1.5.9-2.2 1.6l-2.8 1.5-7.3 3.7a970.5 970.5 0 0 0-22.6 11.2c-2.9 1.6-5.8 3-8.8 4.4-4.3 1.8-8.5 3.6-12.6 5.6a529 529 0 0 1-16 7 151 151 0 0 0-12.5 6 768.2 768.2 0 0 1-15.2 6.9l-1.4.6a180.5 180.5 0 0 0-4.8 2.3 1211 1211 0 0 1-15.7 6.7 236.3 236.3 0 0 0-45.1 25.2 87.4 87.4 0 0 0-31.4 43c-5 14.6-9.5 29.3-13.8 44.3l.1.5-.6 2.3A1788.7 1788.7 0 0 0 24 548.4 504.3 504.3 0 0 0 12 656c.3 17.3-1.3 34.3-5 51a350 350 0 0 0-4.3 24.2c-2.5 14.6-4 29.4-4.3 44.2-.6 17-.3 34 .7 51l2.9 50.3c1 17.2 1.7 34.3 2.3 51.5.6 17 1.6 34 2.8 51a627.3 627.3 0 0 1 1.5 53.2l.2.8.4.7a22.7 22.7 0 0 0 1.4 1.6l.6.4a4.3 4.3 0 0 0 1.4.4l.8.1.7-.1.7-.2.7-.3a3 3 0 0 0 1-1l.4-.5c.2-.2.3-.5.3-.7l.3-.7v-.7l-.1-.9-.2-.8c0-6.3 0-12.5-.3-18.8-.7-17.4-1.7-34.8-2.7-52.2a1530 1530 0 0 1-2.3-49c-.4-16.3-1.3-32.6-2.5-48.8-1.2-16-2.2-31.9-2.9-47.9a423.5 423.5 0 0 1 1.6-54 830 830 0 0 1 6.1-48.7c3.4-12.7 5-25.6 5.2-38.8 0-17.2.8-34.5 2.2-51.6a556.7 556.7 0 0 1 11.1-74.1C36.8 529 41.2 511.4 46 494a7155.7 7155.7 0 0 1 13.6-50l-.2-1-.2-.5c3-7.7 5.5-15.4 7.6-23.1 2.1-8 5-15.7 8.4-23.3 6.7-15 17-26.8 30.9-35.6a82 82 0 0 1 5.1-3.5l-.5.2c8-3.8 15.8-7.7 23.6-11.9 2.8-1.5 5.6-2.7 8.6-3.8a264 264 0 0 0 17-6.8 11.5 11.5 0 0 0 3.5-1.4 40.8 40.8 0 0 0 3-1.3 197 197 0 0 1 49.5-22.4c4.2-1.7 8.2-3.5 12.2-5.6a688.3 688.3 0 0 1 31.1-15.7l-.4 1a164 164 0 0 0 3.6-2.7l2.4-1.2a6 6 0 0 0 2.9-3.3c1.4-1.6 2.6-3.4 3.5-5.2l.2.4c.4-1 .8-2.1 1-3.2l.5-1.5a87.6 87.6 0 0 0 1.5-21.4l.2-1.3a27.3 27.3 0 0 0 7 1.7h-.2c5.7 1.8 11.5 3.2 17.3 4.3a91 91 0 0 1 9.2 2.2c5.9 1.7 11.8 3 17.8 4.3 4.7-.2 9.3-.8 13.9-1.7 2.3-.5 4.5-1.3 6.6-2.4 5.7-2.9 11.2-6 16.6-9.3a458 458 0 0 1 16.6-9.6c3.2-1.7 6.3-3.6 9.3-5.6v.3l.5 5.6c.4 6.1 1.2 12.3 2.5 18.4a50.4 50.4 0 0 0 9.6 21c.4.8 1 1.6 1.7 2.4a131 131 0 0 0 14.4 12.8h-.8a44.8 44.8 0 0 0 4.2 1.9 94.5 94.5 0 0 1 1 .4h.1l.3.1.7.4c5.3 2.6 10.3 5.6 15.2 8.8 7.5 5.1 15.3 9.7 23.4 13.9Zm-66-290.2c2.2 1.4 4.5 2.6 7 3.7 1.7.7 3.1 1.8 4.3 3.2 3.4 3.9 6 8.3 8 13.3 1.1 3 2.2 5.9 3.1 8.8 1.8 5 3 10.2 4 15.4 1 6 .9 12.2-.3 18.2a70.7 70.7 0 0 1-2.8 10.3l-.5-4a19 19 0 0 0-5.4-11.5c-4.2-4.2-8.5-8.2-13.1-12a22.9 22.9 0 0 1-7-9.4c-1.8-4.5-4.9-7.4-9.3-8.8-5.4-1.5-11-2.5-16.6-2.9-3.3-.2-6.7-.4-10-.4a86 86 0 0 1-16.3-1.7 52 52 0 0 0-29.8-3.8 60.7 60.7 0 0 1-17 1c-6.3-.5-12.5-.5-18.7-.2-3.3.2-6.5 1-9.4 2.4a12 12 0 0 0-5 4.3 457 457 0 0 1-9.7 13.8l.2-.3c-.8.8-1.4 1.7-2 2.7l-2.3 5.7a66.8 66.8 0 0 1-2.1 5.3 31 31 0 0 0-1 2.9c-.5 2-1 4-1.7 5.9a45.5 45.5 0 0 1-4 9.7c-1 1.9-1.6 3.8-2.2 5.8a159.8 159.8 0 0 1-3.8-7.5c-.7-1.8-1.3-3.6-1.7-5.5l-1.5-5 .1-4c0-4.9.5-9.6 1.4-14.4.9-4.6 2-9.2 3.3-13.7 1-2.8 2.2-5.5 3.7-8 2.2-3.7 4.5-7.2 7-10.7a54 54 0 0 1 15.2-14.6c1.1.2 2.3.3 3.4.2 2.9-.2 5.6-.5 8.4-1a113.7 113.7 0 0 1 22.6-2.4l12.5-1.2a2430.5 2430.5 0 0 1 17.4-2.3c6-.7 12.2-1.1 18.3-1.3 6.5-.2 13 .4 19.3 1.9 2.4.5 4.9 1 7.3 1.1 6 .5 11.8 2 17.3 4.4h-.1l.5.3c1 .5 2 1.1 2.8 1.8 2 1.6 4 3.1 6.2 4.5Zm-108.7 28c5 .3 10 .4 15 .2 5-.1 9.7-1 14.5-2.3l5.3.1c2.6.3 5.1.8 7.5 1.6 5.7 2 11.6 3.3 17.5 4.2 5.9 1 11.9 1.1 17.9.6l2.7.3 6.3 1a100.3 100.3 0 0 0 7.2 1.4l1 .3h.4l.2.2.3.2.2.2.3.2 3.4 6.1c2.2 4 5.1 7.5 8.8 10.4a234.5 234.5 0 0 1 12.1 10.9l1 1.4c.4.5.6 1 .8 1.5 0 1 .3 2 .5 3a39.4 39.4 0 0 1 1 6.6c.8 4 1.2 8 1.3 12.1l.5 18.5c.1 6.2-.2 12.3-1 18.5l-1.1 11.2c-.5 6.2-2 12.3-4.4 18.1-2.3 5.8-4.5 11.5-6.6 17.4-2.2 6-4.5 11.6-6.8 17a12 12 0 0 1-2.7 3.9 45.4 45.4 0 0 1-9 6.7l-16.1 9c-5.4 3-10.7 6.2-16 9.5a51.7 51.7 0 0 1-21.9 6.4c-2.8-.4-5.6-1-8.4-2-5.8-1.8-11.8-3.3-17.8-4.4a200.4 200.4 0 0 1-22.2-5.3c-1.6-.4-3-1.2-4.4-2.2a22.3 22.3 0 0 1-6.3-8.2c-2.3-5-4.8-10-7.5-15-1-2-2-4-2.8-6-2.3-5.4-4.2-11-5.8-16.5l-.1-1.6c-.2-1.2-.4-2.4-.4-3.7l-.6-4v-2a60 60 0 0 0-.7-7.7v-1.1c.1-3.4 0-6.9-.6-10.2l-1.4-10-.3-1.6v-.3a603 603 0 0 0-3.6-17.7 66 66 0 0 1-1.2-18.4c.4-6 2.2-11.5 5.3-16.6l.7-2 1.7-6c.7-2.1 1.4-4.3 2.3-6.5v.3a678.6 678.6 0 0 1 1.8-4.8l1.3-3.5v-.2l.2-.6.2-.4a76.5 76.5 0 0 0 8.5-11.6 4547.9 4547.9 0 0 1 4.7-5.8l2.3-.5 4.2-.4 4.9-.5 1.2.2c1.6.1 3.1.3 4.7.3Zm94.8 7.1.2.1.2.1h-.2l-.2-.2h-.1.1Zm52.5 57c2 2.4 3.3 5.1 4 8.2 1.6 7 1.8 13.9.7 20.9a26 26 0 0 1-3.2 9.5 12.3 12.3 0 0 1-11.7 6.5 14 14 0 0 1-4.2-5.3l-.5-.9.8-6.5c.7-6.2 1-12.5.9-18.8l-.3-8.2a6 6 0 0 0 .9-1.8l.6-.8a17.2 17.2 0 0 1 3.4-3.2l.5-.1.5-.3c.2 0 .4 0 .6-.2l1.2-.1a9.3 9.3 0 0 1 5.8 1ZM233.5 123l.8.7a76 76 0 0 0 1.1 10.1l3.6 18v-.1a475 475 0 0 1 1.7 11.4l-.8 1-1 .7a6.3 6.3 0 0 1-2.2.8c-3.8-1-6.9-3-9.1-6.5a38.4 38.4 0 0 1-4.3-8.7 33 33 0 0 1-.5-20.7c0-.3.2-.7.4-1 .3-.9.8-1.7 1.4-2.5a26 26 0 0 1 1.8-2.1l.9-.5.7-.5.7-.5c.6 0 1-.2 1.6-.3l1.6.1 1.6.6Zm38.7 115.9v.1-.1Zm-44.4-105c-.4.1-.7.3-.8.6a9 9 0 0 0-1.4 5.1 34.4 34.4 0 0 0 2.4 12 5 5 0 0 0 2.8 3.3c1.7.3 2.9-.3 3.6-1.7.3-.5.4-1 .2-1.5-.3-1.6-.8-3-1.3-4.6-1.2-3-1.5-6.2-1-9.5 0-.7 0-1.3-.3-2-.8-2-2.3-2.6-4.2-1.7Zm4.5 9.8v-.2V143.8Zm198.9-13.3c-1.8-1.1-3.3-.8-4.5 1-.2.4-.3.8-.3 1.3.3 2 .4 4 .3 6a61.4 61.4 0 0 1-2 13.6c0 .6.3 1.1.8 1.6s1 .7 1.8.7c2.2 0 3.5-1 4-3.4l1.4-7.3c.7-3.9.6-7.6-.1-11.4a3 3 0 0 0-1.4-2ZM340 209.1l-6 .8-4.6.5c-1.8.2-3.6.2-5.3 0a110 110 0 0 1-8.3-1.4c-3.2-.7-6-2.1-8.4-4.4a3 3 0 0 1-.8-1c-.9-2-2.4-3-4.5-3.3-.9 0-1.7.2-2.4.8-2 1.8-2.3 3.8-.8 6.2 1.7 2.8 4 5 6.8 6.6a32 32 0 0 0 8.9 3.4 94 94 0 0 0 9.3 1.7h2.8l7.3-.7c2.2-.1 4.4-.4 6.6-.9h1c2.9-.5 5.6-1 8.4-1.8a25 25 0 0 0 10.9-6.4 6 6 0 0 0 1.8-4.2c0-1.2-.4-2.2-1.4-3-2-1.5-4-1.4-5.8.5l-1.2 1.2a15 15 0 0 1-5.8 3.5c-2.9.9-5.8 1.5-8.7 1.9h.2Zm38.4-71 .1-.1-.3.2h.2Zm-20.8-23c-3.2 0-6.3.5-9.2 1.7a46 46 0 0 0-8 4h.1v.1h-.1a2 2 0 0 0-.6.3l-1.1 1.1c-.4.4-.6 1-.8 1.5a4.3 4.3 0 0 0-2.5 3.2c0 .5 0 1 .2 1.4 1 2.6 2.3 5 4.1 7.2a19.5 19.5 0 0 0 8 5.9 30.4 30.4 0 0 0 1.8.8l-.3-.1a25.6 25.6 0 0 0 4.8 1.5 34 34 0 0 0 8.4.5 47 47 0 0 0 15-5.4c2.4-1.9 4.6-4 6.4-6.4.5-.6.7-1.3.8-2 .4-3-.7-5.1-3.3-6.6l-1-.6a23 23 0 0 0-7.7-4 45 45 0 0 1-6-2c-2.9-1.2-6-1.9-9-2Zm-5.8 9.4a9 9 0 0 1 1.5-.5v.7a25.4 25.4 0 0 0 .9 10.3l-2.2-.8a9 9 0 0 0-1.3-.7c-1-.5-2-1-3-1.8s-1.7-1.7-2.3-2.7V128c0-.3.2-.4.3-.6 2-1.2 4-2.2 6-3Zm13.2 8.8c.4-2.7.2-5.4-.6-7.9 2.4 1 4.9 1.8 7.4 2.5h-.2l.5.1 1.4.7 1.2.8.2.1v.2a9.6 9.6 0 0 1-1.6 1.7 2 2 0 0 1-.4.3l.2-.1-2 1.2-3 1.3c-1.1.5-2.3 1-3.6 1.2l.5-2Zm-39.8 19c-.4 0-.7.2-1 .4a15 15 0 0 0-4.2 6.4 26 26 0 0 0-.6 14.3c.4 1.6 1 3 1.8 4.5a9.7 9.7 0 0 0 3.1 3.4c2.7 1.8 5.7 2.6 9 2.6 3.2 0 6-1 8.5-3.2a5.6 5.6 0 0 0 2.1-4.4c0-1.1-.4-2-1.3-2.8-2-1.6-3.8-1.6-5.7 0l-.6.7a6.6 6.6 0 0 1-2 1.2h-1c-.7 0-1.5 0-2.3-.2l-2-.8a50.2 50.2 0 0 1-1.6-3 15.1 15.1 0 0 1 2.2-12.8c.9-1.2 1-2.5.4-3.9-1-2.1-2.5-3-4.8-2.5Zm2.3 19.7.2.4a20.6 20.6 0 0 1-.4-1v.2l.2.4Zm-17-51.8h-.1c-1-.7-2-1.4-3-1.9a35 35 0 0 0-9-3 27.8 27.8 0 0 0-10.8 0l-4.4.8c-3.1.7-6 2-8.6 3.9l-3.7 2.6a10 10 0 0 0-2.9 3.2 5 5 0 0 0-.8 3.1v.1c-.2.9 0 1.7.4 2.4 1.2 1.8 2.6 3.4 4.2 4.9 2.3 2.2 5 4 7.7 5.6 2.9 1.6 6 2.4 9.3 2.3 2 .2 4.2 0 6.3-.3l5.6-1.4c3.2-.8 6-2.1 8.7-4 2.6-1.8 4.4-4.2 5.4-7.2l.4-.6c.4-.5.6-1 .7-1.6.6-.8.8-2 .5-3.3 0-.3-.2-.7-.4-1a18 18 0 0 0-5.5-4.6ZM307 128c-.5.8-.8 1.6-1.1 2.5a13.2 13.2 0 0 1-6.2 3.5 19.5 19.5 0 0 0-2.9.8l.2-1a21.5 21.5 0 0 0-.8-10.3l.8.2a24.8 24.8 0 0 1 10 4.3Zm-21.4-3.8h.3c-.2.5-.4 1-.5 1.7a26.6 26.6 0 0 0 .4 9.5h-.3c-2.1-.7-4-1.7-5.8-3.2-1.2-1-2.3-2-3.3-3.2h.1l.3-.3a23.4 23.4 0 0 1 8.8-4.5Zm-.6-31.2h-.5l-.7.1c-2.2.3-4.4.8-6.6 1.4a16 16 0 0 0-7.8 5.1 62.3 62.3 0 0 0-6.9 9.7 26.2 26.2 0 0 0-2.5 3.6 4 4 0 0 0-.6 2.7c0 1 .4 1.9 1.1 2.6.4.4.8.6 1.4.8 1.4.6 2.8.5 4-.5 1-.9 2-2 2.6-3.2l1.3-2a72.9 72.9 0 0 1 6.7-9c2.5-1.5 5.3-2.5 8.3-2.9h.9a28 28 0 0 1 3.8-.1c2.7.2 5.3.8 7.8 1.7l.5.1a54.4 54.4 0 0 1 7 3.5l4.4 3.5c1 .7 2 .9 3.2.5 2.6-.7 3.7-2.4 3.3-5.1l-.3-.5c-.3-1-.9-1.6-1.7-2.1l-2.1-1.6-.4-.3-.4-.3-.7-.5-.2-.1v-.1a49.5 49.5 0 0 0-13.2-6c-3.9-1.1-7.8-1.5-11.7-1Zm59.4 13.2.2-.2a14.4 14.4 0 0 1 7-2.7h.7l2-.4a46.7 46.7 0 0 1 19 2.6l.1.1.5.2-.3-.1c2.3 1 4.4 2.4 6.3 4.1.6.6 1.1 1.2 1.5 1.9 1 1.2 2 1.8 3.4 2 2.3.3 3.8-.7 4.5-2.8.3-.8.3-1.6 0-2.4-.6-1.4-1.4-2.7-2.6-3.8a32.4 32.4 0 0 0-16.7-9 71.6 71.6 0 0 0-14.2-1.5c-3.1.2-6.2.8-9.2 1.6-3.2 1-6 2.5-8.4 4.7a25 25 0 0 0-5.7 7.7c-1.2 2.3-.7 4.2 1.4 5.7a4 4 0 0 0 4.4-.1c.4-.3.7-.6.9-1a26 26 0 0 1 5.2-6.6ZM415 51c0-.1 0-.2 0 0Zm138.3 985.8a4.1 4.1 0 0 0 .2 1l.1.6.3.4.3.5.4.4.3.4a7.9 7.9 0 0 0 2 .8h1.2a9.2 9.2 0 0 0 1.9-.9l.8-.7c0-.2.2-.3.3-.5l.2-.4.2-.6.1-.6c1.7-2.2 3.3-4.5 4.7-6.8h-15.2l.2 6.3 2 .1Zm-75.3-332.7Zm-371.7 327.5-.4-1.2h-8.7l.6 2.3.5 1.3c.5 1.7 1.4 3 2.8 4 1.8 1.1 3.4 1 5-.6 1.6-1.8 1.7-3.8.2-5.8Zm21.4-503 8.7-19c1.3-3 .6-5.1-2-6.4-1.6-.8-3-.5-4 .9-1.1 1.3-2 2.9-2.7 4.6-1 2.2-2 4.4-3.3 6.5-2.3 4-4.3 8-6 12.4-3 8-5.8 16.2-8.2 24.4l-.4-.5c-2.5-4-4.6-8.1-6.3-12.5a125.6 125.6 0 0 1-7.9-29c-1-3.5-3-4.4-6.1-2.7-.7.3-1 .9-1 1.6-.3 7.7 1 15.4 3.6 22.8 1.5 4.4 3 8.7 4.7 13a71 71 0 0 0 13.1 21.6v.3a416.2 416.2 0 0 0-3.9 25v.1c-.5 7.1-.4 14.2.4 21.3 1 9 4.2 17.1 9.4 24.5 4.3 6 9.6 10.2 16 12.6a25.7 25.7 0 0 0-2.2 12.2 100 100 0 0 0 7.2 33.8l.2.4.2.4.2.5c-4 4.3-7 9.2-9.3 14.6-3.6 9-6.6 18-9 27.3-2.5 9.5-3.2 19-2.3 28.6a130 130 0 0 1-17 18c-1.5 1.5-3 3-4 4.8a90.8 90.8 0 0 0-8.8 15.9c-1.8 1.2-2.6 3.2-2.6 5.8a270 270 0 0 0-2.6 49.7c.4 8.8 1.1 17.6 2.3 26.3a3088 3088 0 0 1 3.4 25.9 475.9 475.9 0 0 1 4 52.7c.1 4.5.4 9 .8 13.5.7 8.8 1.1 17.6 1.3 26.4.1 8 1.3 15.9 3.6 23.5h8.7c-2-6-3.3-12.1-3.7-18.4a2280.2 2280.2 0 0 1-2.7-50.1c.1-.4.3-.8.3-1.3l3.1-21.4c1.3-9 2.7-18.3 4.3-27.9 1.2-7 2.6-14 4.2-21l1.7.7c2.2.7 4.3 1.6 6.4 2.6a763 763 0 0 0 22.7 10 373 373 0 0 0 23.6 9 177.1 177.1 0 0 0 23.2 6.1c1.8.3 3.6 1 5.2 1.8 3.1 1.6 6.2 3 9.4 4.4 3.5 1.4 6.9 3 10.3 4.5l-.5-.2c3.9 2 8 3.4 12.3 4.4 4.5 1 9 1.7 13.5 2.1 8.7.8 17.3 2.2 25.7 4.3 8.4 2 16.8 3.6 25.3 4.7 6.7.2 13.4-.3 20-1.3a337.9 337.9 0 0 1 52.2-4.7 2376.3 2376.3 0 0 1 59.5-.4 261.6 261.6 0 0 0 52.8-5.7c9.2-2 18-5.2 26.3-9.5 8-4 15.6-8.4 23-13.2 2.9-1.9 5.6-4 8.2-6.2 4.3-3.8 9.2-7.6 14.5-11.1l-.1 3c-.1 3.8 0 7.6.2 11.4.6 8.7.8 17.4.5 26-.3 8.9-.3 17.7 0 26.5s1.2 17.5 2.7 26.2a155.9 155.9 0 0 1 .8 26 110.8 110.8 0 0 0 .3 18.7h15.2a70.5 70.5 0 0 0 10.4-40c-.5-17-1.8-34-4-51a372.4 372.4 0 0 0-11.8-56.9 109.5 109.5 0 0 0 12.4-19.3c3.5-7 6-14.3 7.5-22a63.3 63.3 0 0 0-.7-26.3c-2-8.7-5-17-9-25a37.9 37.9 0 0 0-19.6-18.3l.4-2.5c.2-4 .6-8 1.1-12a100.9 100.9 0 0 0-.2-25.7c-.5-4.1-1.2-8.1-2.1-12a59.3 59.3 0 0 0-10.7-23.1 41 41 0 0 0 4.5-9.7 84.2 84.2 0 0 0 3.7-17.5l.2-1.6a55.4 55.4 0 0 0 0-17c-.5-3.2-1.4-6-2.7-8.7 4.6-3.3 8-7.8 10.3-13.4a43.1 43.1 0 0 0 2.1-26.2 244 244 0 0 1-3.4-18.7c-.7-4.7-1-9.4-1.2-14.2-.2-9 1.1-18 4-26.5a99.7 99.7 0 0 0 5-25.1c.7-9.7 2-19 3.8-27.8-.5-2.6-2-3.7-4.6-3.5-2.3.2-3.7 1.5-4.1 4-1.6 8-2.6 16-3 24.2-.2 3.2-.6 6.4-1.3 9.6l-2.4 10.2a247.1 247.1 0 0 0-18.6-17.6c-3-.9-5 .3-5.8 3.4-.2.6 0 1 .2 1.4a72 72 0 0 0 9.5 10.2c4.3 4 8.4 8.1 12.2 12.6l-.3 1.2a93.1 93.1 0 0 0-1.4 40l3.6 21.3a31.5 31.5 0 0 1-9.2 28.6 7.4 7.4 0 0 1-5.1 1 76 76 0 0 0-25.6-.3 135.8 135.8 0 0 1-12 1.3c-2.6.1-5.2.2-7.8 0-3.9 0-5.4 1.8-4.6 5.5a2 2 0 0 0 1.3 1.5c3.5 1.2 7.2 1.7 11 1.6 2 .1 3.7 0 5.6-.5a70.3 70.3 0 0 1 17.7-1.6 420.7 420.7 0 0 1 16.5.8c2 5.7 2.8 11.4 2.5 17.4a78 78 0 0 1-5.4 24.8 21 21 0 0 1-2.7 4.7 264 264 0 0 0-11.8 3c-6.4 1.5-13 2.3-19.5 2.3-7.5 0-15-.3-22.5-1.2h.2l-3.7-.7c-10.1-2.3-20-5.4-29.5-9.4-2.6-1.1-4.4-.3-5.3 2.4-.7 1.9-.3 3.3 1.4 4.4 3.4 2.1 7 3.9 10.8 5.1a169.4 169.4 0 0 0 28 6.9c2.6.3 5.3.6 8 .7l8.1.5c3 0 5.8-.1 8.7-.5 7.5-.9 14.9-2 22.2-3.4a33.7 33.7 0 0 0 5.4-1.5c3.1 4.2 5.5 8.7 7.3 13.7a79.3 79.3 0 0 1 4.7 25.6c.2 8.8-.2 17.5-1.3 26.3-.2 1.1-.5 2.2-1 3.2l-.8 2.5c-4.6 2-9.1 4.4-13.5 7-2 1.3-3.8 2.6-5.5 4-6 5.1-12.7 8.7-20 11-.6.1-1.1.3-1.5.6-3.5 2.1-3.8 4.6-.9 7.4l.8.2a28 28 0 0 0 15.4-5 440 440 0 0 1 28.8-17.8c.5 0 .9-.1 1.3-.4 5.9 2.1 10.6 6 14.1 11.4a78.7 78.7 0 0 1 10.3 23.8 71.2 71.2 0 0 1-14 59.2c-1.6 2-2.9 4-4 6.1l-.9.5a63 63 0 0 0-16.5 10.7 140.6 140.6 0 0 1-20.4 15.2c-8 5-16.4 9.2-25 13-7.8 3.4-16 5.8-24.4 7.2a279 279 0 0 1-51.5 4c-11.2-.1-22.4 0-33.6.4-9.4.4-18.7.6-28 .7-8.8 0-17.5.5-26.1 1.7l-27.5 3.5c-3.7.4-7.4.3-11-.3-9-1.4-17.8-3.2-26.5-5.2-8.9-2-17.8-3.5-26.8-4.2-8-.7-15.6-2.9-22.8-6.6l-6-3.3a53 53 0 0 0-15.4-5.9 244.5 244.5 0 0 1-55.6-19.3c-4.3-2-8.6-4-13-5.6a56 56 0 0 1-7.6-3.6 7 7 0 0 0-1.4-1.6 45 45 0 0 1-10-11.4L102 867c-2.3-3.4-4.5-6.7-6.5-10.2a54.9 54.9 0 0 1-5-10.9v-3a263 263 0 0 1 2-26.8 90.7 90.7 0 0 0 5.2-12.1c1.2-3.5 3-6.4 5.5-9a1570.7 1570.7 0 0 1 18.4-19 97.2 97.2 0 0 0 41.4 27.8c3.2.6 4.9-.7 5.2-3.9.2-1.6-.5-2.7-2-3.3-6-2.6-11.9-5.7-17.5-9.3a152.3 152.3 0 0 1-20.6-16 20.3 20.3 0 0 0-2.7-2.2v-3a50 50 0 0 1 .6-18.2c2-9 4.5-17.9 7.4-26.6 2.4-7 5.8-13.1 10.2-18.4 2 1.5 4.4 2.6 7.2 3.1a234 234 0 0 0 25.6 3.4l2 .2c.2 0 .9 0 2.2.3 2.7.4 5.4.6 8.2.6 2.7 0 5.4 0 8 .2 6.8.1 13.4-.5 19.9-2a1334.8 1334.8 0 0 1 28.6-6c3.6-1.2 4.4-3.5 2.2-6.7-.3-.4-.6-.6-1-.7-7 0-14 .8-21 2.7-6.5 1.9-13.3 3-20 3.6a141.5 141.5 0 0 1-25-.2h-.5a1664 1664 0 0 0-19-2.3c-1.7-.2-3.6-.5-5.8-1a31 31 0 0 1-7.2-2.6 9 9 0 0 0-2.5-.9c-.5-1.6-1-3.2-1.7-4.8a71.7 71.7 0 0 1-5.6-24.1c-.2-4.5 0-9 .8-13.3v-.3c1.6.2 3 .2 4.6 0 7.5-1 14.5-3.6 20.9-7.6 6.1-4 12.5-7.4 19.2-10.4a3.6 3.6 0 0 0 3.2-2.8c.9-3-.2-4.7-3.3-5.2-1.6-.3-3.2 0-4.8.7-7.4 3.4-14.6 7.4-21.6 11.8a34 34 0 0 1-11.9 4.7c-2.5.5-5 .4-7.3-.3-8.7-2.6-15-8-18.8-16.6l-1.3-2.9a45.6 45.6 0 0 1-3.4-13.2 101.9 101.9 0 0 1 2-31.3c1-4.5 1.5-9 1.7-13.5a4 4 0 0 0-.7-2.7l-1-1.4.4-1.4a124.7 124.7 0 0 1 11-31.3ZM90.9 870l-.2-5c1.5 2.5 3 4.9 4.7 7.2l1 1.3 1.2 1.6 4.6 6c.8 1.1 1.6 2.2 2.5 3.1a78.7 78.7 0 0 0-2.7 11.4 286 286 0 0 0-5 28.3c-.5-4.7-1-9.5-1.7-14.3-1.3-9-2.4-17.9-3.4-26.8l-.2-2v-.2l-.8-10.6Zm461.2-104.2v-.3.7-.4Zm3.8 176.3c.3-8.8.2-17.5-.4-26.2-.5-8.3-.6-16.6-.4-25 3.4 14.6 6.3 29.3 8.8 44 3.5 21.4 5 42.8 4.3 64.3-.1 3.5-.8 6.8-2 10-2 5.4-4.3 10.8-6.8 16v-2.3c-.4-8.5-.3-17 .1-25.6v-3.1c-1.2-8-2-15.9-2.8-23.9-1-9.4-1.2-18.8-.8-28.2ZM95 906v-.3.3Zm170.2-662.4.2.3a2 2 0 0 1-.3-.4v.1Z"/><path fill="#fff" d="M364.4 125.4a17.1 17.1 0 0 1 .1 10c1.3-.2 2.5-.7 3.6-1.2l3-1.3a13 13 0 0 0 2-1.2h-.2c.1 0 .3 0 .4-.2l.3-.2c.5-.5 1-1 1.3-1.5v-.2h-.2v-.1l-1.2-.8-1.4-.7-.5-.2.2.1c-2.5-.7-5-1.6-7.4-2.5Zm-11-1.4-1.6.5c-2.1.8-4.2 1.8-6 3-.2.1-.3.3-.3.6a5.4 5.4 0 0 1-.1.9c.6 1 1.4 2 2.4 2.7.9.7 1.8 1.3 2.9 1.8l1.3.7 2.2.8-.3-.7a25.4 25.4 0 0 1-.6-10.3Zm-67.4.1h-.3a23.2 23.2 0 0 0-8.8 4.6l-.3.2-.1.1c1 1.1 2 2.2 3.3 3.2a16.2 16.2 0 0 0 6 3.2l-.2-1c-.5-2.8-.5-5.7 0-8.5 0-.7.2-1.3.4-1.8Zm20 6.4c.3-.9.6-1.7 1.1-2.5a24.8 24.8 0 0 0-10.8-4.5l.2.7c1 3.2 1.2 6.4.6 9.7l-.2 1 .4-.3 2.4-.6c2.4-.6 4.5-1.8 6.3-3.5Z"/><path fill="#87441D" d="M402.4 33.3a50.6 50.6 0 0 1-13.2-8.2 15.5 15.5 0 0 0-3.3-2h.1c-5.5-2.5-11.2-4-17.3-4.5-2.4-.2-4.9-.6-7.3-1.1-6.3-1.5-12.8-2-19.3-1.9a226.7 226.7 0 0 0-22.9 1.9l-12.8 1.7-12.5 1.2a265.4 265.4 0 0 1-15.7 1.2l-7 1.2c-2.7.5-5.4.8-8.3 1a13 13 0 0 1-3.4-.2 14.4 14.4 0 0 0-4 2.7l-.7.6c-4 3.3-7.6 7-10.6 11.3-2.4 3.5-4.7 7-6.9 10.6a42.2 42.2 0 0 0-3.7 8c-1.3 4.6-2.4 9.2-3.3 13.8a79 79 0 0 0-1.5 18.3l1.5 5.1a36.9 36.9 0 0 0 3.3 8.8l2.2 4.2a44.6 44.6 0 0 1 4.2-10 187.4 187.4 0 0 0 3.7-11.4 31.3 31.3 0 0 1 1.4-3.7l1.7-4.5c.7-2 1.5-3.9 2.4-5.7.5-1 1.1-2 2-2.7l-.3.3.4-.4 9.2-13.4a12 12 0 0 1 5-4.3c3-1.4 6.2-2.2 9.5-2.4 6.2-.3 12.4-.3 18.7.2 5.7.5 11.4.1 17-1a52 52 0 0 1 29.8 3.8 86 86 0 0 0 16.2 1.7 87.7 87.7 0 0 1 26.6 3.3c4.5 1.4 7.6 4.3 9.5 8.8 1.4 3.8 3.8 6.9 6.9 9.4 4.6 3.8 9 7.8 13 12 3.2 3.2 5 7 5.5 11.6l.5 4 .5-1.8c1-2.8 1.7-5.6 2.3-8.6 1.2-6 1.3-12.1.2-18.2a94.8 94.8 0 0 0-3.9-15.4l-3.1-8.8c-2-5-4.6-9.4-8-13.3a11.1 11.1 0 0 0-4.3-3.2ZM415.1 51v.2-.2Z"/><path fill="#CCC" d="m113.2 891.1-1.7-.7c-1.6 7-3 14-4.2 21a1254 1254 0 0 0-7.4 49.3c0 .5-.2.9-.3 1.3v1.2c.3 9 .8 17.8 1.3 26.7l1.4 22.2c.4 6.3 1.6 12.4 3.7 18.4h445v-5.5c-.3-4.4-.3-8.8 0-13.2a155.9 155.9 0 0 0-1-26c-1.4-8.7-2.3-17.4-2.6-26.2-.3-8.8-.3-17.6 0-26.4.3-8.7.1-17.4-.5-26a140.1 140.1 0 0 1-.1-14.5c-5.3 3.5-10.2 7.3-14.5 11a73 73 0 0 1-8.2 6.3c-7.4 4.8-15 9.2-23 13.2-8.3 4.3-17.1 7.4-26.3 9.5a247.5 247.5 0 0 1-52.8 5.7l-27.6.1c-10.7 0-21.3.2-31.9.3a410.2 410.2 0 0 0-52.1 4.7c-6.7 1-13.4 1.5-20.1 1.3-8.5-1.1-17-2.7-25.3-4.7-8.4-2-17-3.5-25.7-4.3-4.5-.4-9-1.1-13.5-2.1a58 58 0 0 1-12.3-4.4l.5.2-10.3-4.5c-3.2-1.4-6.3-2.8-9.4-4.4a18.8 18.8 0 0 0-4.8-1.7c-8-1.6-16-3.7-23.6-6.3-8-2.7-15.8-5.7-23.6-9-7.6-3.1-15.2-6.5-22.7-10-2-1-4.2-1.8-6.4-2.5Z"/></g><defs><clipPath id="a"><path fill="#fff" d="M0 0h663v1024H0z"/></clipPath></defs></svg>