<svg xmlns="http://www.w3.org/2000/svg" width="663" height="1024" fill="none"><g clip-path="url(#a)"><path fill="#DE9E71" d="m447 322-.4-.1a80.9 80.9 0 0 1-14.4-7.9 316.4 316.4 0 0 0-17.4-9.7 54.8 54.8 0 0 1-8.3-5.1v.7l-.7-.3a44 44 0 0 1-3-1.4h.7l-.5-.4a138.3 138.3 0 0 1-5.6-4.6 14 14 0 0 1-1.7-2 55.2 55.2 0 0 1-6-5.8 51.4 51.4 0 0 1-10.8-23.3A148.4 148.4 0 0 1 376 238c-3 2-6 3.8-9 5.6-5.3 3-10.6 6.2-15.8 9.5-5.2 3.3-10.6 6.4-16 9.3-2 1-4.1 1.8-6.3 2.3-4.4 1-8.9 1.6-13.4 1.7-5.7-1.1-11.4-2.6-17-4.3-3-.8-5.9-1.6-8.8-2.1a131 131 0 0 1-16.6-4.3h.1-.2c-2.3-.3-4.5-.9-6.5-1.7a15.5 15.5 0 0 1-.2 1.8 90.6 90.6 0 0 1-1.4 20.8 807.6 807.6 0 0 1-1.4 4.7l-.2-.4a30.2 30.2 0 0 1-7.3 9l-1 .6-1.2 1v-.3l-3.6 1.8a31553.8 31553.8 0 0 0-17 8l-5.8 3.1-5.7 3a294 294 0 0 1-17.7 8.2l-4.1 2-6 3-5.7 3.2a80 80 0 0 1-8 4l.4-.3h.1a31 31 0 0 1-4.8 2.2c-7.2 3.2-14.4 6.2-21.6 9.2a124.4 124.4 0 0 0-31.8 19.1l-15.2 12.6a80.1 80.1 0 0 0-23 32.4L78.3 419A255.7 255.7 0 0 0 67 459.5a4135.5 4135.5 0 0 1-15.2 75.3l.4.6.2.6.2.6.1.7v.7c-3.7 12.4-6.4 25.1-8 38a362.4 362.4 0 0 0-3.2 40.8c-.3 14.7.2 29.4 1.3 44 1 13.3-.3 26.4-3.6 39.2l-7.7 30a297 297 0 0 0-6.9 35.5L23 805.3c-.7 14-.7 28-.1 41.9.6 13.5 1.3 27 2.1 40.4l2.6 40c.8 13.6 2 27.2 3.4 40.7a450 450 0 0 1 2.3 38.5c.1 8.4.4 16.7.9 25 0 2.8 0 5.5-.2 8h84a102.8 102.8 0 0 1-13.6-34.5 44 44 0 0 1-.8-7.9 381.5 381.5 0 0 1 4.7-63l6.3-40c1-6.8 2-13.6 3.2-20.3 2.3-13.3 4.3-26.6 6.2-40 1.8-12.6 3.1-25.8 4-39.7 1-13.5 2.5-27 4.8-40.4 1-6 1.7-12 2.3-17.9l.6-.8a3.3 3.3 0 0 0 .3-.4c0-7.4.1-14.7.6-22A1364.2 1364.2 0 0 1 141 657a89.8 89.8 0 0 0-6.3-39.7 143.4 143.4 0 0 1-10-38.8c-1.4-13.5-1.1-27 1-40.6.9-6 1-12.1.5-18.3-1.1-10.7-1.4-21.3-1-32l.3-.3c0-.2.1-.3.3-.5a92 92 0 0 0 .7-.6l.4-.3.4-.2.5-.1a9.8 9.8 0 0 1 1-.2h.4a9.2 9.2 0 0 1 1 .3l.4.2.4.3.4.3a92 92 0 0 0 .6.8l.3.4c.9 12.9 1.6 25.8 2.3 38.8.3 7 0 13.5-1 19.4-2.2 13.4-2.1 26.8.4 40.1 1.6 9 3.9 17.7 6.7 26.2l.8.5 1 1.1 1 1.4.5 1a18.4 18.4 0 0 0 20.1 4c2-.8 4-1.4 6-2l36.8-11a90 90 0 0 1 10.2-2.4c13-2.2 25-7.2 35.7-15a681 681 0 0 0 16-11.9c6-4.7 12.3-8.8 18.9-12.5h1.4l.5.2.4.2.4.3.4.2.4.3c0 .2.2.3.3.5l.3.4c0 .1 0 .3.2.5 0 .1 0 .3.2.4v.5l.1.5v1l-.2.5-.2.5-.2.4a15 15 0 0 1-3.4 3 46 46 0 0 1-5.4 3c-12 9.7-24.4 18.4-37.6 26.2a57.5 57.5 0 0 1-18.7 7 225 225 0 0 0-37.6 10.3c-11 4.1-22.1 6.9-33.6 8.3-3.1 0-6.1-.6-9-1.6 1.2 4 2 8.2 2.2 12.5.7 13.2.3 26.4-1.3 39.5a600.1 600.1 0 0 0-3.5 41c-.7 13.9-.4 27.8.9 41.7a647 647 0 0 1 2 31.2c.6 13.7 1 27.4 1.5 41.2 0 3.8.3 7.5.6 11.3.3 2.9.2 5.7 0 8.4 6.4 1 13 2 19.4 2.8 2 .2 4 .8 5.8 1.6 11.1 5 22 10.7 32.5 17 4.2 2.6 8.7 4.5 13.5 5.7l32.8 8.7c3.2.9 6.5 1.5 9.9 1.7 13.2 1 26.4.7 39.6-1 9.7-1.4 19.3-.8 28.9 1.8 12.8 3.4 25.7 6.5 38.6 9.2 9 1.9 18 2.4 27 1.6 7-.6 13.8-2.4 20.2-5.3a566.1 566.1 0 0 0 35-17.6 45 45 0 0 1 9.1-3.7 124 124 0 0 0 7.6-2.5 305.8 305.8 0 0 0 28.2-12.4 16.2 16.2 0 0 1 7.2-1.9c-1-13.2-.8-26.3 1-39.4a2636 2636 0 0 0 5-40.3c1.5-13.5 2.3-27 2.2-40.6 0-3.4.2-6.8.7-10.2 1.6-13.7 1.3-27.2-.9-40.6a171.7 171.7 0 0 1-2-40.3c.6-8.4 1-16.7 1.2-25l-2.7 1.4a42 42 0 0 1-17.7 4c-12.9-1.5-25.6-3.9-38.3-7a167 167 0 0 1-35.9-13.2 186 186 0 0 1-32.7-21.2 43.5 43.5 0 0 0-6.8-4.5c-2.5-1.3-4.5-3.1-6-5.4a4.2 4.2 0 0 1-.3-1v-1.5a12.6 12.6 0 0 1 .3-1l.2-.4c0-.2.2-.3.3-.4 0-.2.2-.3.3-.4l.4-.4.4-.2.4-.3.5-.2a9.8 9.8 0 0 1 .9-.2h.5l.4.1a9.2 9.2 0 0 1 1 .3l.4.3.4.2.3.4.4.3.3.3a351.7 351.7 0 0 1 31 21.2 73 73 0 0 0 14.5 8.5 207 207 0 0 0 36 12c11.5 2.8 23 4.2 34.8 4.4 3 0 5.8-.4 8.7-1.4l5.1-3a10.9 10.9 0 0 0 3.8-3.3c.2-1.3.6-2.5 1.1-3.7a271.5 271.5 0 0 0 15-55c1.8-11.6 2.5-23.3 2.2-35l.3-.3c0-.2.1-.3.3-.4l.3-.4a61.7 61.7 0 0 0 1.2-.8l.5-.1.4-.1h1a9.1 9.1 0 0 1 1 .2 50.5 50.5 0 0 1 1.2.8l.3.4.3.4.2.4c1.6 12.7 1 25.3-1.7 38-2 9.4-4 18.9-6.2 28.3a173.1 173.1 0 0 1-10.3 31.7l-.3.8c.1 13-.2 26-1 39.1-.8 14 .2 27.7 3 41.3.6 3.5.9 7 .8 10.5l-.5 11.9c5 11.8 8.8 24.2 11.4 37.1 2.4 12 4.6 24 6.5 36.1l6.2 38.7 3.3 22.5.1.7v.5c1.8 13.4 3.9 26.7 6.4 39.8 2.5 13 4.2 26 5.3 39.2.6 6.8 1.3 13.6 2.3 20.3 2 13.7 2.8 27.5 2.3 41.4-.4 12.5-3.8 24-10.2 34.6v8.4l78-.2v-1.8l-.5-1.1a7 7 0 0 1-.3-1.3c2.2-13.2 4.4-26.4 6.4-39.7 1.3-8.2 2-16.5 2.3-24.9a1859.7 1859.7 0 0 0 .4-81.9c-.4-13.3-1-26.7-2-40-1-13.5-1.7-27-2.3-40.4l-2.1-40.9c-.8-13.4-1.4-26.8-2-40.2-.5-13.6-1.2-27.2-2-40.8a240.9 240.9 0 0 0-1.8-17.1c-1.7-12-3-24-3.7-36-.7-11.3-1.5-22.6-2.5-33.9a203.2 203.2 0 0 0-1.4-12.2 63027.2 63027.2 0 0 0-11.7-67v-.6a362.2 362.2 0 0 1-9-35c-2.2-10-4.6-20-7.3-29.8a217.8 217.8 0 0 0-14.5-38c-4.5-9-9.7-17.7-15.5-26a111.3 111.3 0 0 0-27.7-27.1c-6.3-4.4-12.8-8.2-19.5-11.3h-.5c-1.4 0-2.5-.5-3.3-1.7l-4.5-1.8.3-.3a42.3 42.3 0 0 0-4.4-2l-.2-.2h-.1l-.3-.1-.6-.3a103.7 103.7 0 0 0-6.2-2.8h-.4l-.6-.3-.3-.2a9.3 9.3 0 0 1-1.4-.6h-.2.2l-1.6-.7-1.8-.8a11.6 11.6 0 0 0-.7-.3 33.2 33.2 0 0 0-3.2-1.3l-.6-.3a662.3 662.3 0 0 1-24.2-10.5l-6-2.6-.2-.1a56.1 56.1 0 0 1-7.6-3.4 32 32 0 0 0-.8-.4ZM192.7 571c.7-.3 1.4-.4 2.2-.4.5 0 1 .1 1.5.4l1 .5.3.4.3.4a7.5 7.5 0 0 1 .9 2.2c0 1.2-.3 2.2-.9 3.2l-1 2.3c-.1.5-.4.9-.7 1.2a3 3 0 0 1-1.1.9l-.9.4a63.9 63.9 0 0 1-1.5 0h-.5l-.4-.2a2 2 0 0 1-.5-.3 2 2 0 0 1-.4-.2l-.4-.4-.4-.4a54.8 54.8 0 0 0-1-.8l-.9-1.2a4 4 0 0 1-.4-1.5v-1a97.6 97.6 0 0 0 .3-1 40 40 0 0 1 2.3-3.4c.7-.5 1.4-.9 2.2-1.1Zm59.6 56.8.5-.2h1.5a423.4 423.4 0 0 1 1.4.4 5.2 5.2 0 0 1 .9.7 4 4 0 0 1 .6.8 7 7 0 0 1 .5 2 9.4 9.4 0 0 1 0 1.4 80.2 80.2 0 0 1-.5 1l-.3.4c-9.2 9.9-19.8 17.8-31.7 23.7a79.5 79.5 0 0 1-30.6 8c-4 .3-8 .1-11.9-.5-2.5-.1-5-.4-7.5-1l-7.6-1.7c-1.2-.2-2.3-.6-3.3-1l-.5-.4-.3-.4c-.2 0-.3-.2-.4-.4a2.2 2.2 0 0 1-.5-.9l-.2-.5a23.2 23.2 0 0 1-.1-1.1v-.6l.1-.5.2-.6.2-.4.3-.5.4-.4.3-.3.5-.4.6-.2.6-.2a87.7 87.7 0 0 0 41 1.5 71.9 71.9 0 0 0 34.2-17.1c4-3.5 7.8-7 11.6-10.6Zm-112 10.6-.1-.3c0-.2 0-.1 0 0v.3ZM121 722.9v.5a5.9 5.9 0 0 1-.5 1l-.3.5a4 4 0 0 0-.3.4c-.2 0-.3.2-.4.4l-.4.2-.5.3-.5.2a16.4 16.4 0 0 1-1.1.1h-.5l-.5-.1c-5.7-1.8-11.4-3.7-17-5.7a92 92 0 0 1-16.6-7.6c-1.8-1-3.6-1.8-5.5-2.4-.2 0-.3-.2-.4-.3l-.4-.4-.3-.4a5.8 5.8 0 0 1-.6-1l-.1-.4a19 19 0 0 1-.2-1.2v-.5l.2-.6a405.3 405.3 0 0 0 .7-1.4c0-.2.2-.3.3-.4l.4-.4.4-.3.6-.3.6-.2a66 66 0 0 1 17.3 6.7c2.9 1.7 6 3 9.1 4a122.6 122.6 0 0 1 15.7 6c0 .3.2.4.3.6l.2.5a182.6 182.6 0 0 1 .3 1 3 3 0 0 1 0 1.2ZM411.3 647l.5.2A897.4 897.4 0 0 1 445 668a64.1 64.1 0 0 0 36.3 10.8c3 0 6-.4 9-1.2a147.5 147.5 0 0 0 8.4-2.2h.5l.5.3.5.2a61.7 61.7 0 0 1 1.1 1.1l.3.4.2.5.2.5v.6l.2.5a23.2 23.2 0 0 0-.4 1.7 82.1 82.1 0 0 1-.5 1l-.4.3-.3.4a36.4 36.4 0 0 1-8 3c-3.5.7-7 1.4-10.3 1.9-1.3.1-2.5.2-3.8.1a50 50 0 0 1-20.8-4.5c-8-3-15.5-6.9-22.5-11.9-5.5-3.8-11.1-7.2-17-10.1a44 44 0 0 1-11.7-8.7 82.1 82.1 0 0 0-.3-1 3.1 3.1 0 0 1 0-1.2 23.2 23.2 0 0 1 .3-1l.2-.5.3-.5.3-.3.4-.4.4-.3.4-.2.4-.2a423.4 423.4 0 0 0 1-.2h.9l.5.1Zm-76.6 193-.4-.5-.3-.4-.3-.4a2 2 0 0 1-.3-.5c-1.2-.6-2.4-1.2-3.6-1.6a9.1 9.1 0 0 0-3.6-.5l-.3.4c0 .2-.2.4-.3.5l-.3.4a1.8 1.8 0 0 1-.8.6l-.5.3-.4.1-.5.1a4.3 4.3 0 0 1-2.8-.5l-.8-.6c-.4-.3-.6-.6-.8-1a6.1 6.1 0 0 1-.5-3.5c2.1-4.1 5.6-6 10.3-5.4a16 16 0 0 1 12.3 7.6c.3.6.5 1.2.4 2l-.1.4-.2.6-.2.4-.3.5a4.2 4.2 0 0 1-1.8 1.4l-.4.2-.6.2h-1l-.6-.1-.4-.3-.5-.2c-.2 0-.3-.2-.4-.3Zm137.2-265.4a4 4 0 0 1 1.6 0h.5a2.7 2.7 0 0 1 1 .5c.5.2 1 .6 1.4 1.1l1.3 1.5a3.7 3.7 0 0 1 .7 1.8v2l-.2.5a54.6 54.6 0 0 1-1.7 3l-.5.6-.7.6a3.4 3.4 0 0 1-1 .4l-.5.1a1 1 0 0 1-.5 0h-.6a5.8 5.8 0 0 1-3.2-1.7 1104.3 1104.3 0 0 1-1.5-1.8 8.5 8.5 0 0 1-1.1-2.8v-1.1a16.6 16.6 0 0 0 .2-1c.3-1 .9-1.6 1.6-2 1-.8 2-1.3 3.2-1.7Zm121.5 131 .7.8.3.4a80.2 80.2 0 0 1 .4 1.5 2.8 2.8 0 0 1 0 1v.6a3 3 0 0 1-.5 1c0 .2-.2.3-.3.5 0 .2-.2.3-.3.4l-.4.4c-6.9 3.2-14 5.6-21.3 7.4a51 51 0 0 0-22.2 11.6l-.5.1-.5.1h-1a6.4 6.4 0 0 1-1-.2 3.4 3.4 0 0 1-1-.6l-.4-.3c0-.2-.2-.3-.3-.4l-.2-.5-.3-.4-.1-.5-.1-1V726l.2-.4c0-.2.2-.3.3-.5l.2-.4c6-5.6 13-9.5 20.8-11.8 7-2 13.9-4.5 20.7-7.2a17 17 0 0 1 4.7-1.1 9.2 9.2 0 0 1 .9.2l.4.2.8.6ZM228 128.3l-.7-.8-1.6-.5c-.5-.1-1-.2-1.5-.1l-1.5.3-.7.4-.7.6-.9.4a26 26 0 0 0-1.7 2.2c-.6.8-1 1.6-1.4 2.5l-.4 1-.2 1.3a34 34 0 0 0 .7 19.2c1 3.1 2.4 6 4.2 8.7a14 14 0 0 0 8.7 6.5c.4 0 .7 0 1-.2a6 6 0 0 0 1.1-.6l1-.6.7-1.1a161.2 161.2 0 0 0-1.6-11.3c-1.3-6-2.4-11.9-3.4-17.9-.6-3.3-1-6.7-1-10Zm-6.3 10c2-.7 3.3-.1 4.1 1.9.3.6.4 1.3.3 2-.5 3.2-.2 6.4 1 9.4.4 1.5.9 3 1.2 4.6.1.4 0 1-.2 1.4-.7 1.5-1.9 2-3.4 1.8a4.9 4.9 0 0 1-2.7-3.4l-.8-2.3c-1-3.1-1.5-6.3-1.6-9.6 0-1.9.4-3.6 1.4-5 .1-.4.4-.6.7-.7Zm201.7-3.8c-.7-3.1-2-5.9-3.9-8.3-.9-.5-1.8-.8-2.8-1-1-.2-1.9-.2-2.8 0l-1.1.1-.5.2-.5.2-.5.2a16.6 16.6 0 0 0-3.9 4c-.2.7-.5 1.3-.8 1.8l.2 8.2a144.9 144.9 0 0 1-1.5 25.2l.4.8c1 2.1 2.3 4 4 5.3 4.9.2 8.6-2 11.3-6.5 1.5-2.7 2.5-5.8 3-9.4 1-7 .9-14-.6-20.8Zm-10.9 1.5c1.1-1.8 2.6-2.2 4.3-1a3 3 0 0 1 1.4 2c.7 3.8.7 7.6 0 11.4a276 276 0 0 1-1.2 7.2c-.5 2.4-1.8 3.5-4 3.5-.6 0-1.2-.2-1.6-.7a3 3 0 0 1-.8-1.6c-.2-.6-.1-1.2 0-1.8l.4-.7a63.2 63.2 0 0 0 1.5-18.3Zm-44.9-66.8a93 93 0 0 1-6.2-1 71.2 71.2 0 0 0-8.6-1.4c-5.8.5-11.5.4-17.2-.6-5.7-.9-11.3-2.3-16.7-4.2a31.4 31.4 0 0 0-12.4-1.7 54.7 54.7 0 0 1-13.8 2.4 141.9 141.9 0 0 1-20.1-.9 229.2 229.2 0 0 1-8.8 1c-.7 0-1.5.2-2.2.4l-.2.2-.3.2a53.1 53.1 0 0 0-4.1 5.9l-3.1 4.6a75.8 75.8 0 0 1-4.9 6.5l-.2.4a10.1 10.1 0 0 1-.2.7l-1.2 3.6-1.3 3.5-.5 1.3v-.4l-2.1 6.6a166.5 166.5 0 0 1-2.4 7.8c-3 5-4.7 10.6-5 16.6-.5 6.2-.1 12.3 1.1 18.4l3.4 17.5v.4l.3 1.5 1.4 10c.5 3.4.7 6.8.6 10.2v1a27.7 27.7 0 0 1 .7 7.7v2.1l.5 4c0 1.2.2 2.4.4 3.7v1.5a166.4 166.4 0 0 0 8.4 22.5c2.5 4.9 5 9.9 7.1 15 1.4 3.1 3.5 5.8 6 8a11 11 0 0 0 4.3 2.2 48.2 48.2 0 0 0 3.8 1c5.7 1.7 11.6 3.2 17.5 4.3 5.8 1.1 11.5 2.6 17 4.5 2.7.9 5.4 1.5 8.2 1.9a48 48 0 0 0 21-6.4c5-3.3 10-6.5 15.2-9.5l15.4-9c3.2-1.8 6.1-4 8.8-6.6 1-1.1 2-2.4 2.6-3.9 2.2-5.3 4.3-11 6.4-17 2-5.7 4.2-11.5 6.4-17.2a63.2 63.2 0 0 0 4.2-18.1l1-11.1c.8-6.2 1.1-12.3 1-18.4 0-6.2-.2-12.3-.4-18.5a76.6 76.6 0 0 0-1.5-13.7c-.2-1.7-.4-3.3-.8-5l-.5-3a6 6 0 0 0-.7-1.4 13.5 13.5 0 0 0-1.7-2.4 227 227 0 0 0-11-9.8 34 34 0 0 1-8.3-10.4 172.6 172.6 0 0 0-3.8-6.5l-.2-.2-.2-.1-.4-.1-1-.3-.7-.3Zm-39.8 49.2c-1.4.9-2.8 1-4.2.1-2-1.5-2.4-3.4-1.3-5.7 1.3-3 3.2-5.5 5.5-7.7 2.3-2.1 5-3.7 8-4.6A42.3 42.3 0 0 1 349 99c3 .2 6 .7 9 1.3a32 32 0 0 1 16 9c1.2 1.1 2 2.4 2.6 3.8.3.9.3 1.6 0 2.4-.8 2.2-2.2 3-4.3 2.8a4.6 4.6 0 0 1-3.3-2 20.3 20.3 0 0 0-7.7-6v-.1a43.5 43.5 0 0 0-18.3-2.6c-.7 0-1.3.1-2 .3h-.5l-2.3.6a13.6 13.6 0 0 0-4.7 2.3c-2 2-3.7 4.1-5 6.6-.2.4-.5.7-.9 1Zm18.4 1.4c3 .1 6 .8 8.7 2a37.5 37.5 0 0 0 5.7 2c2.7.8 5.2 2.2 7.5 4l.9.6a6.3 6.3 0 0 1 3.2 6.6c-.1.7-.4 1.3-.8 2a30.2 30.2 0 0 1-8.2 7.6 44 44 0 0 1-8.2 3.3c-1.4.5-2.7.7-4.1.8h-4.5a31.5 31.5 0 0 1-7.1-1.6l-1-.4h.2l.3.2a18.9 18.9 0 0 1-9.6-6.8c-1.8-2.2-3.2-4.6-4-7.1-.3-.5-.3-1-.2-1.4.2-1.5 1-2.6 2.4-3.3.1-.5.4-1 .7-1.4.3-.5.7-.8 1.1-1.1.2-.1.3-.3.5-.3h.2-.1c2.4-1.7 5-3 7.6-4.1a21 21 0 0 1 8.8-1.6Zm-57.2-12-.5-.2c-2.4-.9-5-1.4-7.4-1.7a26.1 26.1 0 0 0-4.1.1 19 19 0 0 0-8.4 3l-1 .8c-2 2.6-3.8 5.2-5.5 8l-1.2 2.1c-.7 1.3-1.5 2.3-2.5 3.2a3.5 3.5 0 0 1-3.9.5l-1.3-.8a4.6 4.6 0 0 1-.5-5.3l.6-.8 1-1.7a25.9 25.9 0 0 1 1-1.3c1.9-3.3 4-6.5 6.4-9.4 2-2.5 4.6-4.2 7.6-5.1 2-.7 4.1-1.1 6.3-1.4l.7-.1h.4c3.8-.5 7.5-.2 11.2.9a46.4 46.4 0 0 1 12.7 6.1l.2.2.6.4.4.4.4.3 2 1.5c.8.5 1.4 1.2 1.7 2.1l.2.5c.4 2.7-.6 4.5-3.1 5.2-1.1.3-2.1 0-3-.6l-4.4-3.5a24 24 0 0 0-6.5-3.4Zm-9.9 12h.3c3.3-.6 6.7-.6 10 0a32.7 32.7 0 0 1 11.7 5c2 1.2 3.8 2.7 5.2 4.6l.4 1c.3 1.3.1 2.4-.4 3.3-.1.5-.4 1-.7 1.6l-.4.5c-1 3-2.7 5.5-5.2 7.3a25.3 25.3 0 0 1-8.3 4l-5.4 1.3c-2 .4-4 .5-6 .3a17 17 0 0 1-9-2.3 37.9 37.9 0 0 1-7.4-5.6 23 23 0 0 1-4-4.9c-.4-.7-.5-1.5-.4-2.3v-.1a5 5 0 0 1 .8-3.2 9.8 9.8 0 0 1 2.8-3.1l3.5-2.6c2.5-1.9 5.3-3.2 8.3-3.9l4.2-.9Zm29.8 53.3c-.2-3.3.3-6.5 1.3-9.5a15 15 0 0 1 4-6.4 2 2 0 0 1 1-.5c2.2-.5 3.7.4 4.6 2.5.5 1.3.4 2.6-.4 3.8a15.5 15.5 0 0 0-2 12.8 54.6 54.6 0 0 0 1.5 3c.5.3 1.1.6 1.8.8a10.3 10.3 0 0 0 3.1.2l1-.5 1-.7.6-.7c1.8-1.6 3.6-1.6 5.5 0 .8.7 1.2 1.7 1.2 2.8 0 1.8-.7 3.2-2 4.4-2.4 2.1-5.1 3.2-8.1 3.2-3.2 0-6-.9-8.7-2.7-1.3-.9-2.3-2-3-3.4a19.3 19.3 0 0 1-2.4-9.1Zm57.4-30.6-.1.2h-.2.2l.1-.2Zm-37 70.8h-.1c2.8-.3 5.6-1 8.3-1.9a14.3 14.3 0 0 0 6.7-4.6c1.8-2 3.6-2 5.6-.5 1 .8 1.4 1.7 1.4 3a6 6 0 0 1-1.8 4.2c-3 3-6.5 5.1-10.5 6.3a55 55 0 0 1-9 2v-.1c-2 .4-4.2.7-6.3.9a504.5 504.5 0 0 1-9.7.6c-3-.4-6-1-9-1.6a30 30 0 0 1-8.4-3.5c-2.7-1.6-5-3.8-6.6-6.6-1.4-2.3-1.2-4.4.8-6.1a3 3 0 0 1 2.4-.8c2 .2 3.4 1.3 4.3 3.3.1.4.4.7.7 1 2.3 2.2 5 3.7 8 4.3 2.7.6 5.3 1 8 1.4 1.7.3 3.4.3 5 0l4.5-.5c1.9-.2 3.8-.4 5.8-.8Z"/><path fill="#000" d="m594 706.4-.6-.8-.8-.6a5.7 5.7 0 0 0-1.3-.4 17 17 0 0 0-4.7 1 223 223 0 0 1-20.7 7.3 51.9 51.9 0 0 0-21 12.2l-.3.5-.1.4-.1.5v2l.2.5.3.4.2.5.3.4a5.2 5.2 0 0 1 .9.6 3.5 3.5 0 0 0 1.5.5h1a73.4 73.4 0 0 0 1-.2l3.7-2.8a51 51 0 0 1 18.5-8.8 116.3 116.3 0 0 0 21.7-7.8l.3-.4.3-.5a3.7 3.7 0 0 0 .4-1l.1-.5a3 3 0 0 0 0-1.1v-.6l-.2-.5-.2-.4-.3-.4ZM473.6 574.5a4 4 0 0 0-1.6.1c-1.2.4-2.2 1-3.2 1.6-.7.5-1.3 1.2-1.6 2l-.1.6-.1.5v1.1l.3 1.2.8 1.6a10.8 10.8 0 0 0 3 3l1.7.5h1.6a2.7 2.7 0 0 0 1-.5l.7-.6.5-.7.6-.8.1-.4.2-.5.3-.3c0-.2.2-.3.3-.5 0-.1 0-.3.2-.4l.1-.5.1-.5v-2c-.2-.5-.4-1-.7-1.3a27.4 27.4 0 0 0-2.7-2.6 3.4 3.4 0 0 0-1-.5h-.5Zm-139.2 265 .4.4.4.3.5.2.4.3h1.6l.6-.1c.1 0 .3 0 .5-.2l.4-.2a4.4 4.4 0 0 0 1-.8l.3-.4.3-.5.2-.4.2-.6v-.5c.2-.7 0-1.3-.3-1.9a16 16 0 0 0-12.3-7.6c-4.7-.5-8.2 1.3-10.3 5.4a6 6 0 0 0 .4 3.4c.3.5.5.8.9 1.1l.8.6a4.2 4.2 0 0 0 2.8.5h.5l.4-.2c.2 0 .3-.2.5-.3a2 2 0 0 0 .8-.6c0-.2.2-.3.3-.4l.3-.5.3-.4h.5c1 0 2 .1 3 .5 1.3.4 2.5 1 3.7 1.6 0 .2.2.4.3.5l.3.4c0 .2.2.3.3.4Zm77.5-192.3-.5-.2-.5-.1h-1.4l-.5.2-.4.2-.4.2-.4.3-.4.4a1 1 0 0 0-.3.3c0 .2-.2.3-.3.5l-.2.4-.2.6a23.2 23.2 0 0 0-.1 1v.6l.1.6.2.5.2.5a44 44 0 0 0 11.5 8.2c5.9 3 11.5 6.3 17 10.1a95.7 95.7 0 0 0 25 12.9 50 50 0 0 0 22 3.4c3.5-.5 7-1.2 10.3-2 2.8-.6 5.5-1.6 8-2.9l.4-.4.4-.4.3-.4.2-.5.2-.6v-.5l.2-.6a97.6 97.6 0 0 0-.6-2c0-.2-.2-.4-.3-.5a3.8 3.8 0 0 0-.7-.8 525.7 525.7 0 0 1-.9-.5l-.5-.2a16.9 16.9 0 0 1-1-.2c-2.7.9-5.3 1.6-8 2.3-3 .8-6 1.2-9 1.2-13 .1-25-3.5-36.2-10.8-11-7.2-22-14.2-33.2-20.8ZM121 723.4v-.5a2.8 2.8 0 0 0 0-1.2v-.5a82.1 82.1 0 0 0-.7-1.5l-.3-.4c-5-2.2-10.1-4.1-15.4-5.7-3.2-1-6.2-2.3-9.1-4a66 66 0 0 0-17.3-6.7 6 6 0 0 0-1.6.8l-.4.4-.3.4-.3.4-.2.5-.2.5-.1.6a3.1 3.1 0 0 0 0 1 19.4 19.4 0 0 0 .2 1.2l.3.5.3.4c0 .2.2.3.3.4l.4.4.4.3c2 .6 3.7 1.3 5.5 2.4a91.9 91.9 0 0 0 16.6 7.6 960 960 0 0 0 17 5.7h.5l.5.1h.5l.6-.1a75 75 0 0 0 1.4-.8l.4-.3c0-.2.2-.3.3-.4l.3-.5.2-.5.2-.5Zm19.2-85.3v.3V638Zm112.6-10.5-.5.2-11.6 10.6a71.9 71.9 0 0 1-34.2 17.1 87.7 87.7 0 0 1-41-1.5 6.1 6.1 0 0 0-1.7.8l-.3.3-.4.4c0 .2-.2.3-.3.5a7.2 7.2 0 0 0-.4 1v.5a3.1 3.1 0 0 0 0 1.1 23.2 23.2 0 0 0 .2 1.1l.2.5.3.4.4.4c0 .2.2.3.3.4l.5.4c1 .4 2.1.8 3.3 1l7.6 1.7c2.5.6 5 .9 7.5 1 4 .6 7.9.8 11.9.6 10.7-.6 21-3.3 30.6-8 12-6 22.5-13.9 31.7-23.8l.3-.5.2-.4.2-.5v-.5l.1-1a6 6 0 0 0-.5-1.9l-.3-.4a3.8 3.8 0 0 0-2.1-1.5h-2Zm-58-57c-.7 0-1.4.1-2 .4-.9.2-1.6.6-2.3 1.1a40 40 0 0 0-2.5 3.8 82 82 0 0 1 0 1v.6c0 .5 0 1 .3 1.5l.8 1.2.4.3a525.7 525.7 0 0 0 2.8 2h.5l.6.1 1-.1.8-.4a3 3 0 0 0 1.1-.9c.3-.3.6-.7.8-1.2.2-.8.5-1.6 1-2.3.5-1 .8-2 .8-3.2l-.4-1.2-.5-1c0-.2-.2-.3-.3-.4l-.4-.4a13 13 0 0 0-.9-.5 4 4 0 0 0-1.5-.4ZM488.2 331a720.8 720.8 0 0 0-13.5-5.8l-3.5-1.5c-2-1-4-1.8-5.9-2.6l-6-2.7-3.7-1.6-6.1-2.7.2.1a49.7 49.7 0 0 1-5.9-2.8c-2-.9-3.8-2-5.6-3.4a493 493 0 0 0-23.2-13.2 47.9 47.9 0 0 0-6.5-4l.2-.4-5-3.4a42.8 42.8 0 0 1-11.3-12 50 50 0 0 1-6.3-17.5l-.2-1.4a23852 23852 0 0 0-.9-10.8c-.3-3.2-.7-6.4-1.2-9.5v-.3c0-1.2-.3-2-.8-2.8l.6-1c3-4.7 5.3-9.8 7.2-15.1v-.4.1l.1-.2 4.3-11.6c1-3 2.2-5.9 3.5-8.8a68.7 68.7 0 0 0 5-18.5c2 1.5 4.4 2.4 7.2 2.7l2.4-.1a19 19 0 0 0 10-4.9c2.8-2.6 4.9-5.8 6.3-9.5.5-1.3 1-2.6 1.3-4 1.3-6.2 2-12.6 1.9-19-.1-6.2-1.5-12-4.3-17.6a13.3 13.3 0 0 0-5.6-5.9 15.1 15.1 0 0 0-12.3-1.4c0-.7.3-1.4.5-2l2.5-9c1.5-6 2.4-12 2.8-18 .3-6.5-.4-12.9-2.2-19a300 300 0 0 0-8.9-25.1 25.9 25.9 0 0 0-7.2-9.8 45.4 45.4 0 0 0-11.3-6.8c-.8-.5-1.6-1.1-2.2-1.8a25.9 25.9 0 0 0-8.8-6.2 38.6 38.6 0 0 0-8.8-2.6c-5.8-1-11.6-2-17.3-3.3a80 80 0 0 0-17.4-1.8 106.3 106.3 0 0 0-27.1 2.7h-.2l-13 1.7-6.7.6a193.6 193.6 0 0 0-27.7 3.1h-1.8c-3.3-.6-6.2 0-8.8 2a66.2 66.2 0 0 0-18 19 137 137 0 0 0-8.5 16 105 105 0 0 0-5.5 36.6 55.6 55.6 0 0 0 4.4 15.8v-.1l.1.4.1.2.6 1.4a60.5 60.5 0 0 0 3.8 7.2l-2.4.5c-6 1.8-10 5.9-12 12.2-2 6-2.5 12-1.4 18.3 1 6.2 3.1 12 6.2 17.4 3 5.6 7.5 9.3 13.4 11 2.5.7 4.9.5 7.2-.5l.2 4.7c.2 5.3.6 10.6 1.4 16v.2a9 9 0 0 1-.1 1.9c-.1.7 0 1.4.3 2 .2.6.5 1.1 1 1.5l1.7 5.5 2 6.3c2 4.8 4.2 9.6 6.6 14.3a444 444 0 0 0 8 15.3 16.9 16.9 0 0 0 3.2 4c-1 1.2-1.2 2.8-.7 4.6-.2 3.7-.3 7.3-.3 11v.4l-1 8.5c-.3 2.4-1.2 4.5-2.6 6a59 59 0 0 1-3.6 3.5l-3.4 1.9-5.9 2.6a131 131 0 0 0-11.9 5.8 238.6 238.6 0 0 0-11.5 6 229.2 229.2 0 0 1-12.1 5.6c-2.7 1.2-5.3 2.5-8 3.9h.2a67.2 67.2 0 0 0-9 4.3 167.5 167.5 0 0 1-11.7 6.1h.3c-.5.1-1 .4-1.4.6-1.6.8-3.2 1.5-4.9 2-.7.4-1.4.8-1.8 1.3-5.3 2.4-11 4.8-16.9 7.1a127.8 127.8 0 0 0-33.4 19.5c-3 2.4-5.5 4.2-7.5 5.6a84.7 84.7 0 0 0-25.8 27.3 191.9 191.9 0 0 0-16.7 35.7 273 273 0 0 0-10.4 39.2c-2.5 13.4-5.1 26.8-8 40.1-2.9 14-5.6 28-8.1 42v1.5l.1.4v.1a348.3 348.3 0 0 0-9.7 79.2c0 7 .2 13.9.6 20.7.8 13.6.8 27 .2 40.5-.1 1.7-.3 3.4-.6 5a477 477 0 0 1-9.2 39.5c-3.6 12.9-6.2 26-7.6 39.4a612.7 612.7 0 0 0-2.8 61.1c0 13.5.3 27 1 40.4a2016.4 2016.4 0 0 0 6 80.5 1139.2 1139.2 0 0 1 5.1 91.1c0 .3 0 .5.2.7 0 .2 0 .4.2.6a3.5 3.5 0 0 0 .7 1l.5.4a2.8 2.8 0 0 0 1 .6l.7.2H30.8a4.4 4.4 0 0 0 1.7-.8 5.5 5.5 0 0 0 .8-.9l.4-.5.2-.6c.2-2.7.3-5.3.2-8-.5-8.4-.8-16.7-.9-25a450 450 0 0 0-2.3-38.6c-1.4-13.5-2.6-27-3.4-40.7a2326.4 2326.4 0 0 1-4.7-80.4c-.6-14-.6-28 0-41.9l2-39.8c1.5-12 3.8-23.9 6.8-35.6 2.5-10 5-20 7.7-30 3.3-12.7 4.5-25.8 3.6-39a473.7 473.7 0 0 1-1.3-44c.3-13.7 1.3-27.3 3.1-40.8 1.7-13 4.4-25.7 8.1-38v-.8a31 31 0 0 0-.3-1.3 5 5 0 0 0-.2-.6 5 5 0 0 0-.4-.5v-.1A1971.4 1971.4 0 0 0 67 459.5c2.6-13.8 6.3-27.3 11-40.4 2-5.5 4.1-11 6.3-16.4a80.1 80.1 0 0 1 23-32.4l15-12.6c9.8-8 20.4-14.3 32-19a975.2 975.2 0 0 0 26.2-11.5l-.5.3 2-1 6-3 5.9-3.2a230 230 0 0 1 10-5c2-1 4-2 6-2.8a541.6 541.6 0 0 0 11.7-5.4l5.7-3a184.7 184.7 0 0 1 16.6-8.2 11699.2 11699.2 0 0 0 9.8-4.4l1.2-1 1-.5c.6-.4 1-.8 1.5-1.4l2.4-2.4c1.3-1.7 2.5-3.5 3.4-5.3l.2.4 1-3.2.4-1.5a90.6 90.6 0 0 0 1.5-21.3l.1-1.3a25.3 25.3 0 0 0 6.7 1.7h-.1a131 131 0 0 0 16.6 4.3c3 .5 5.9 1.3 8.8 2.1 5.6 1.7 11.3 3.2 17 4.3 4.5-.1 9-.7 13.4-1.7 2.2-.5 4.3-1.2 6.3-2.3 5.4-2.9 10.8-6 16-9.3 5.2-3.3 10.5-6.4 15.8-9.5a134.5 134.5 0 0 0 9-5.4l.5 5.6c.4 6.2 1.1 12.3 2.3 18.3a51.4 51.4 0 0 0 9.2 21c.4.8 1 1.6 1.7 2.3a120.6 120.6 0 0 0 7.7 7.8 16.7 16.7 0 0 0 2 1.7l1.4 1.1a138.3 138.3 0 0 0 2.7 2.2h-.8a78 78 0 0 0 3.8 1.7v-.7a54.8 54.8 0 0 0 8.3 5.1 291.3 291.3 0 0 1 21.4 12.2A81.5 81.5 0 0 0 447 322l.8.4 4.1 1.9a55 55 0 0 0 3.6 1.5h.2a673 673 0 0 0 18.7 8.2 309.6 309.6 0 0 0 11.5 5h-.1l.6.3a2875 2875 0 0 1 4 1.6l1.7.8a91.8 91.8 0 0 1 2.2 1l-.2-.1.5.2.5.1v.1l.3.2.6.2.4.1.2.1a74.9 74.9 0 0 1 6.9 3l.4.2.7.4 3.6 1.6c0 .2-.2.3-.3.4l4.5 1.8a3.8 3.8 0 0 0 3.8 1.7c6.7 3.1 13.2 6.9 19.5 11.3a111.3 111.3 0 0 1 27.7 27.1c5.8 8.3 11 17 15.5 26 6 12.2 10.8 24.9 14.5 38 2.7 9.8 5.1 19.8 7.2 29.8a362 362 0 0 0 9.1 35.5c.4 3.2 1 6.3 1.5 9.4a8063.7 8063.7 0 0 0 10.1 57.2 203 203 0 0 1 1.5 12.7c1 11.3 1.8 22.6 2.5 34a482.8 482.8 0 0 0 3.6 34.7c.8 6 1.5 12.2 1.9 18.3a1850 1850 0 0 1 2 40.8 3225 3225 0 0 0 2 40.2l2 40.9c.7 13.4 1.4 26.9 2.4 40.3 1 13.4 1.6 26.8 2 40.1a1291.6 1291.6 0 0 1-.4 82c-.3 8.3-1 16.6-2.3 24.8-2 13.3-4.2 26.5-6.4 39.7a7 7 0 0 0 .8 2.4l.8 1 .6.3a9.8 9.8 0 0 0 1.1.4l.7.1h.6l.6-.2.6-.3c.2 0 .3-.2.5-.3a5.4 5.4 0 0 0 .9-1l.3-.5.3-.6v-1.3a61 61 0 0 1 .3-3.6c3.4-13 5.6-26.4 6.8-40 1.2-15 1.8-30 1.8-45 0-14.1 0-28.3.4-42.5.3-14 0-28.1-1-42.2a4428 4428 0 0 1-7.7-151.4A265 265 0 0 0 637 669c-.6-4-1.2-8-1.6-11.9a507 507 0 0 1-2.7-32.5c-.6-12-1.6-24.1-3-36l-.2-.8c-.5-3.7-1-7.3-1.8-10.8-2-9.8-3.8-19.7-5.3-29.5a1025.5 1025.5 0 0 0-5-29c-3-11.1-5.6-22.3-8.2-33.6-3.3-14.1-7.2-28-11.6-41.8-4.2-13-9.4-25.6-15.6-37.7a131 131 0 0 0-23.6-32.6 148.6 148.6 0 0 0-51.3-33.7h.2c-.3 0-.6-.2-.8-.3a155.4 155.4 0 0 0-8.2-3.6l.2.1-.4-.1a25.5 25.5 0 0 0-.5-.3h-.2a2 2 0 0 0-.3-.2h.2a305.3 305.3 0 0 0-9-3.9Zm152.2 700.6-.1.3a26.7 26.7 0 0 0 0-.3Zm-257.9-997a48 48 0 0 0 6.7 3.7c1.6.7 3 1.8 4.2 3.2a46 46 0 0 1 7.6 13.2l3 8.8c1.7 5 3 10.1 3.8 15.4a51 51 0 0 1-2.5 26.7l-.5 1.7-.4-4c-.5-4.5-2.2-8.3-5.2-11.5-4-4.2-8.2-8.2-12.6-12-3-2.4-5.2-5.6-6.6-9.3a14 14 0 0 0-9-8.8 81.3 81.3 0 0 0-25.6-3.3c-5.3 0-10.5-.6-15.6-1.7a48 48 0 0 0-28.6-3.7 56 56 0 0 1-16.2 1c-6-.5-12-.6-18-.2-3.2.2-6.2 1-9 2.3-2 1-3.6 2.4-4.8 4.3a454.8 454.8 0 0 1-11 16.2c-.8 1.8-1.6 3.7-2.2 5.6-.5 1.5-1 3-1.7 4.5l-.3.8a46.2 46.2 0 0 1-6.5 18.4c-.8 2-1.5 3.8-2 5.8a159.7 159.7 0 0 1-3.7-7.5c-.7-1.7-1.3-3.5-1.7-5.4l-1.3-5v-4c0-4.8.5-9.6 1.4-14.3.8-4.6 1.8-9.2 3.1-13.7a43 43 0 0 1 3.6-8c2-3.6 4.3-7.2 6.6-10.6A53 53 0 0 1 252 28.5c1.1.2 2.3.3 3.4.3 2.7-.2 5.3-.6 8-1a105.4 105.4 0 0 1 21.7-2.5l12-1.1a2251 2251 0 0 1 16.6-2.3c5.8-.7 11.7-1.1 17.6-1.3a70 70 0 0 1 18.5 1.8c2.3.6 4.6 1 7 1.2 5.8.5 11.3 2 16.6 4.4h-.1c.2 0 .3.2.5.3 1 .5 1.8 1 2.6 1.7l6 4.5Zm-21.1 33.6a93 93 0 0 0 7 1.4l.9.3h.3l.3.2.2.2.3.2.2.2 3.3 6c2 4.1 4.9 7.6 8.4 10.5a227 227 0 0 1 11.6 10.8l1 1.4c.3.4.5 1 .7 1.5l.5 3a40.3 40.3 0 0 1 1 6.6c.7 4 1.2 8 1.3 12l.4 18.5c.1 6-.2 12.2-1 18.4l-1 11a63.2 63.2 0 0 1-4.2 18.2c-2.2 5.7-4.4 11.5-6.4 17.3-2 6-4.2 11.6-6.4 17a12 12 0 0 1-2.6 3.8 43.6 43.6 0 0 1-8.8 6.7l-15.4 9c-5.2 3-10.2 6.1-15.2 9.4a48 48 0 0 1-21 6.4c-2.8-.4-5.5-1-8.1-2-5.6-1.8-11.3-3.3-17-4.4a185.8 185.8 0 0 1-21.4-5.3 11 11 0 0 1-4.2-2.2 22.1 22.1 0 0 1-6-8c-2.3-5.1-4.7-10.1-7.2-15-1-2-2-4-2.8-6-2.1-5.4-4-11-5.5-16.5l-.1-1.5c-.2-1.3-.4-2.5-.4-3.7a26 26 0 0 0-.5-4v-2a62.2 62.2 0 0 0-.7-7.7v-1.1a61 61 0 0 0-.6-10.2l-1.4-10-.2-1.5-.1-.4c-1-5.8-2.2-11.7-3.4-17.5-1.2-6.1-1.6-12.2-1.2-18.4.4-6 2.1-11.5 5.1-16.6l.7-2 1.7-5.8a57.8 57.8 0 0 1 2-6.2l.6-1.3 1.3-3.5c.3-1.2.7-2.4 1.2-3.5v-.2l.2-.6.2-.4 1.5-1.7A75.8 75.8 0 0 0 257 69l2-2.6a53 53 0 0 1 2.4-3.2l2.2-.4a230 230 0 0 0 8.8-1l1.2.2 4.4.3c4.8.4 9.7.5 14.5.4 4.7-.2 9.3-1 13.8-2.4l5.2.1c2.4.3 4.8.8 7.2 1.6 5.4 2 11 3.3 16.7 4.2 5.7 1 11.4 1.1 17.2.6l2.6.3 6 1Zm7.7 1.3.1.1.2.1.1.1h-.2l-.1-.2-.1-.1Zm50.4 56.8a20 20 0 0 1 3.9 8.3c1.5 6.8 1.7 13.8.7 20.8-.6 3.6-1.6 6.7-3.1 9.4-2.7 4.6-6.4 6.7-11.3 6.5-1.7-1.4-3-3.2-4-5.3l-.4-.8.7-6.6c.7-6.2 1-12.4.8-18.6l-.2-8.2c.3-.5.6-1.1.8-1.8l.6-.8a16.6 16.6 0 0 1 3.3-3.2l.5-.2.5-.2.5-.2 1.1-.1a8.7 8.7 0 0 1 5.6 1Zm-192.2 1.3.7.8c.1 3.3.5 6.7 1 10 1 6 2.2 12 3.5 18v-.1a474.5 474.5 0 0 1 1.6 11.3l-.8 1c-.3.3-.6.6-.9.7a5.9 5.9 0 0 1-2 .8 14 14 0 0 1-8.8-6.5 39 39 0 0 1-4.2-8.7 34 34 0 0 1 0-21.5c.2-.9.7-1.7 1.3-2.5a26 26 0 0 1 1.7-2.2l.9-.4.7-.6.7-.4 1.5-.3 1.5.1 1.6.5Zm37 115.5.1.2-.1-.2Zm-38.5-102.8c-.8-2-2.2-2.6-4-1.8-.4.1-.7.3-.8.6a9.2 9.2 0 0 0-1.4 5.1 35.5 35.5 0 0 0 2.4 12 4.9 4.9 0 0 0 2.7 3.3c1.5.3 2.7-.3 3.4-1.8.3-.5.3-1 .2-1.4a35 35 0 0 0-1.3-4.6c-1-3-1.4-6.2-1-9.5.2-.6 0-1.3-.2-2Zm.3 8v-.2.1ZM416.7 135c-1.7-1.2-3.2-.8-4.3 1-.2.4-.3.8-.2 1.2.2 2 .3 4 .2 6a63.2 63.2 0 0 1-2 13.6c.2.6.4 1.1.9 1.6.4.5 1 .7 1.7.7 2 0 3.4-1.1 3.9-3.5l1.3-7.2c.6-3.8.6-7.6-.1-11.4a3 3 0 0 0-1.4-2Zm-87.6 78.3h.2a115.3 115.3 0 0 1-15.3 1.3c-2.7-.3-5.3-.8-8-1.4-3-.6-5.7-2-8-4.3a3 3 0 0 1-.7-1c-1-2-2.3-3.1-4.3-3.3a3 3 0 0 0-2.4.8c-2 1.7-2.2 3.8-.8 6.1 1.7 2.8 3.9 5 6.6 6.6 2.7 1.6 5.5 2.8 8.5 3.5 3 .7 6 1.2 9 1.6h2.6l7-.6a57 57 0 0 0 6.4-1v.1h.6l.3-.1c2.7-.4 5.4-1 8-1.8 4-1.2 7.5-3.3 10.5-6.3a6 6 0 0 0 1.8-4.3c0-1.2-.5-2.1-1.4-2.9-2-1.6-3.8-1.4-5.6.5L343 208a14.3 14.3 0 0 1-5.6 3.4c-2.7 1-5.5 1.6-8.3 2Zm37-70.6.1-.2v.1c-.2 0-.2 0-.3.2l.2-.1Zm-56 20.9a26.8 26.8 0 0 0-.6 14.2c.4 1.6 1 3 1.7 4.4a9.5 9.5 0 0 0 3 3.4c2.6 1.8 5.5 2.7 8.7 2.7 3 0 5.7-1.1 8-3.2 1.4-1.2 2-2.6 2.1-4.4 0-1.1-.4-2-1.2-2.8-1.9-1.6-3.7-1.6-5.5 0l-.6.7a6.3 6.3 0 0 1-2 1.2h-.8c-.8 0-1.5 0-2.3-.2l-1.9-.8a54.6 54.6 0 0 1-1.5-3 15.5 15.5 0 0 1 2.1-12.8c.8-1.2 1-2.5.4-3.8-1-2.1-2.4-3-4.6-2.5a2 2 0 0 0-1 .5 15 15 0 0 0-4 6.4Zm7.4 13.2-.1-.2-.2-.4-.1-.3a172 172 0 0 1 .2.5l.2.4Zm-38.2-57h-.3l-4.2 1c-3 .6-5.8 2-8.3 3.8l-3.5 2.6c-1.2.8-2 1.9-2.8 3.1a5 5 0 0 0-.7 3.2v.1c-.2.8 0 1.6.4 2.3 1 1.8 2.4 3.5 4 5 2.2 2 4.7 4 7.4 5.5a17 17 0 0 0 8.8 2.3c2 .2 4 0 6-.3l5.5-1.4c3-.8 5.8-2 8.3-4 2.5-1.7 4.2-4.2 5.2-7.2l.4-.5c.3-.5.6-1 .7-1.6a4.4 4.4 0 0 0 0-4.3 17.4 17.4 0 0 0-5.2-4.6v.1-.1h-.1a32.7 32.7 0 0 0-11.5-4.8c-3.4-.8-6.8-.8-10.1-.2Zm8 8.3.9.2a23.2 23.2 0 0 1 9.5 4.3c-.4.8-.8 1.6-1 2.4a12.5 12.5 0 0 1-6 3.5 18 18 0 0 0-2.7.8c0-.3 0-.6.2-1a22.2 22.2 0 0 0-.9-10.2Zm-9.8.6-.5 1.8a27.5 27.5 0 0 0 .4 9.4h-.3c-2-.7-4-1.7-5.6-3.1a31 31 0 0 1-3.1-3.2v-.1l.4-.2a22.2 22.2 0 0 1 8.7-4.6Zm10.9-21h.5v.1a51.2 51.2 0 0 1 6.6 3.4l4.4 3.5c.9.7 1.9.9 3 .6 2.5-.7 3.5-2.5 3.1-5.2l-.2-.5c-.3-.9-.9-1.6-1.6-2a45.6 45.6 0 0 1-2.5-2l-.4-.3-.6-.4-.2-.2a46.4 46.4 0 0 0-12.6-6 28.5 28.5 0 0 0-12.4-.9c-2.2.3-4.3.7-6.3 1.4-3 .9-5.6 2.6-7.6 5a62.2 62.2 0 0 0-6.5 9.7 25.9 25.9 0 0 0-2.5 3.6 4.6 4.6 0 0 0 .5 5.3l1.3.8c1.4.6 2.7.4 3.9-.5 1-.9 1.8-2 2.5-3.2l1.2-2a72.7 72.7 0 0 1 6.4-9c2.5-1.5 5.1-2.5 8-2.8h.4l.5-.1a26 26 0 0 1 3.7 0c2.5.2 5 .7 7.4 1.6Zm66.4 14a25 25 0 0 0-8.7-2c-3 0-6 .5-8.8 1.7-2.7 1-5.2 2.4-7.6 4a2 2 0 0 0-.6.4c-.4.3-.8.6-1 1.1-.4.4-.7.9-.8 1.4a4.3 4.3 0 0 0-2.4 3.3c-.1.5 0 1 .1 1.4 1 2.5 2.3 4.9 4 7a18.9 18.9 0 0 0 7.7 6 28.5 28.5 0 0 0 1.7.8l-.3-.1a23.5 23.5 0 0 0 4.6 1.5 31.5 31.5 0 0 0 8 .5c1.5-.1 2.8-.3 4.2-.8a44 44 0 0 0 10.2-4.7c2.4-1.8 4.4-3.9 6.2-6.3.4-.6.7-1.2.8-2 .3-2.8-.8-5-3.2-6.5a94.4 94.4 0 0 0-8.4-4.6 41.7 41.7 0 0 1-5.7-2Zm-12.7 6.9-.1.7a26.3 26.3 0 0 0 .9 10.3l-2-.8h-.1l-1.3-.7a11 11 0 0 1-5.1-4.5v-.2l.1-.8c0-.2 0-.4.3-.5a32.8 32.8 0 0 1 7.3-3.5Zm14.2 10.1c-1.2.6-2.3 1-3.5 1.3l.4-2.1c.4-2.8.2-5.4-.5-7.9l7 2.5-.1-.1.5.2 1.3.7 1.1.7.2.2v.2a9.4 9.4 0 0 1-1.5 1.7 237 237 0 0 0-4.9 2.6Zm-32.8-20.2c1.4.8 2.8.8 4.2-.1.4-.3.7-.6.9-1a25.7 25.7 0 0 1 5.2-6.7 13.6 13.6 0 0 1 6.8-2.7l.5-.1a30 30 0 0 1 9.5-.3c3.7.4 7.3 1.3 10.8 2.6l.5.2-.3-.1c2.2 1 4.2 2.4 6 4.2.6.5 1 1.1 1.5 1.8.8 1.2 2 1.8 3.3 2 2 .3 3.5-.6 4.3-2.8.3-.8.3-1.5 0-2.4-.6-1.4-1.4-2.7-2.5-3.8a31.1 31.1 0 0 0-16-9 66.2 66.2 0 0 0-13.6-1.4c-3 .2-6 .8-9 1.6-3 1-5.6 2.5-8 4.6a25 25 0 0 0-5.4 7.7c-1.1 2.3-.7 4.2 1.3 5.7ZM401.3 56c0-.1 0-.1 0 0v.1ZM177.4 319.6c.1 0 .2 0 .3-.2a31 31 0 0 1-.3.2Zm373 720.4v-.1h-5.7l.2.3.4.3.4.2c.3.2.6.3 1 .3.2.2.5.2.9.3l.5-.1.5-.1c.1 0 .3 0 .5-.2l.4-.2.4-.3.4-.4Zm-424.3.6a10.6 10.6 0 0 0 0-.7h-8.3l.2.3a83.7 83.7 0 0 1 .4 3.1l.4 1 .3.3.4.4.7.5.5.2.4.2.5.1h1l.5-.1c.1 0 .3 0 .4-.2l.9-.4.4-.3c0-.2.2-.3.3-.4l.3-.4.5-.8.2-1.6V1040.6Zm162-475h-.4c-6.6 3.6-13 7.7-19 12.4l-15.9 12a83.5 83.5 0 0 1-35.7 14.9c-3.5.6-6.9 1.4-10.2 2.4a4104 4104 0 0 0-42.8 13 18.4 18.4 0 0 1-20.1-4l-.5-1-1-1.4-1-1.1-.8-.5c-2.8-8.5-5-17.2-6.7-26.2a114.2 114.2 0 0 1-.3-40c1-6 1.2-12.4 1-19.5-.8-13-1.5-26-2.4-38.8l-.3-.4-.3-.5-.3-.3-.4-.3a50.5 50.5 0 0 0-1.8-.7 2.4 2.4 0 0 0-1 0 11.2 11.2 0 0 0-1.3.4 61.7 61.7 0 0 1-.8.6l-.3.3c-.2.2-.3.3-.3.5l-.3.4c-.4 10.6-.1 21.2 1 32 .6 6 .4 12.2-.5 18.2a153.7 153.7 0 0 0-1 40.6c1.6 13.4 4.9 26.4 10 38.8a86.3 86.3 0 0 1 6.3 39.7l-1.3 15.1c-1.3 13.5-2.4 27-3.2 40.6a297 297 0 0 0-.6 22.1l-.3.4-.6.8c-.6 6-1.3 12-2.3 17.9a413.4 413.4 0 0 0-4.7 40.4c-1 13.9-2.3 27.1-4 39.7-2 13.4-4 26.7-6.3 40-1.2 6.7-2.2 13.5-3.2 20.2-2 13.4-4 26.7-6.3 40a381.5 381.5 0 0 0-4.8 63c0 2.8.4 5.4.9 8 2.4 12.4 7 24 13.5 34.6h8.4v-.8a8.8 8.8 0 0 0-.3-1.4l-.2-.5-.2-.3c0-7 .2-14 .6-21l2.6-40.3a717.6 717.6 0 0 1 7.6-67.1c5.8.3 11.5 1.2 17.2 2.8a547 547 0 0 0 85.4 16.2 506 506 0 0 1 38.4 5.8c12.8 2.4 25.6 4.2 38.5 5.5 10.9.8 21.8 1.1 32.7.9 13.2-.3 26.5-.3 39.8-.2 13.6.2 27.1-.4 40.7-1.5 13-1.2 26.1-2.2 39.3-2.9a200.3 200.3 0 0 0 37.5-5.6 80.1 80.1 0 0 0 8-1.1l.5 4.8a625.1 625.1 0 0 1 3.9 60.4 532 532 0 0 0 2.6 40.7l.3.4c0 .2.2.3.3.4 0 .2.2.3.3.4l.4.4.4.2a6 6 0 0 0 1 .4l.4.1a2.8 2.8 0 0 0 1 0h.5l.5-.2.4-.3.4-.2.4-.3.6-.8a14.6 14.6 0 0 0 .6-1.3l.1-1c-1-8.9-1.7-18.1-1.8-27.7a940 940 0 0 0-1.6-41.2c-.9-13.6-2.2-27.3-4.1-40.8a174 174 0 0 0-2.6-13.9c-3-13.5-4.8-27.1-5.4-41l-.2-.5-.2-.6a3 3 0 0 0-.3-.6V865l-.1-.5-.3-1c.3-6 .4-12.3.2-18.6-.5-14.2.5-28.3 3-42.3a327.2 327.2 0 0 0 5.1-53l.3-6.8a568.5 568.5 0 0 1 7.7 36c2.2 12.8 4.4 25.5 6.4 38.3a2962.3 2962.3 0 0 0 10.3 62.2c2.4 13.3 4.2 26.7 5.6 40.2 1.3 13.4 3 26.8 5 40.2 2 13.5 2.5 27 1.7 40.7-.2 3.4-1 6.6-2 9.8-3.4 9.2-7.2 18.2-11.5 26.8v.6a14.6 14.6 0 0 0 .4 1.4l.3.4a1.7 1.7 0 0 0 .4.5h5.8l.2-.2c0-.2.2-.3.3-.5 1-2.6 2.4-5.2 4-7.7A70.4 70.4 0 0 0 565 997c.5-13.9-.3-27.7-2.3-41.4-1-6.7-1.7-13.5-2.3-20.3-1-13.2-2.8-26.2-5.3-39.2a642.8 642.8 0 0 1-6.4-40.3v-.7c-1-7.5-2.2-15-3.4-22.5l-6.2-38.7c-1.9-12-4-24.1-6.5-36.1a198.2 198.2 0 0 0-11.4-37.1l.5-12c0-3.5-.2-7-.9-10.4a160.6 160.6 0 0 1-2.8-41.3c.7-13 1-26 .9-39a272.2 272.2 0 0 1 1-2.5c4-9.7 7.3-19.7 9.6-30.1a2019 2019 0 0 0 6.2-28.3 114 114 0 0 0 1.5-38.4 1 1 0 0 0-.3-.4l-.3-.4c-.2 0-.3-.2-.4-.3l-.4-.3a163.1 163.1 0 0 1-1.4-.4h-1a9.8 9.8 0 0 0-1 .2 50.5 50.5 0 0 1-.7.5l-.4.3-.3.4a1 1 0 0 0-.3.4l-.3.4a189.5 189.5 0 0 1-5.4 51.4c-3 13.2-7 26-11.8 38.5a27.8 27.8 0 0 0-1.2 3.8c-1 1.4-2.3 2.4-3.7 3.2l-5.1 3c-2.9 1-5.8 1.4-8.7 1.4a158 158 0 0 1-34.8-4.3 207 207 0 0 1-36-12.1 73 73 0 0 1-14.4-8.5c-10-7.7-20.4-14.7-31.1-21.2l-.3-.3c-.1-.2-.3-.2-.4-.3l-.3-.4-.4-.2a2 2 0 0 0-.5-.3c-.1 0-.3 0-.4-.2a9.2 9.2 0 0 0-1-.1h-.4a9.2 9.2 0 0 1-1 .1l-.4.2a2 2 0 0 0-.4.3l-.4.2-.4.4-.3.4-.3.4-.2.4-.2.5a12.5 12.5 0 0 0-.2 1.5 13 13 0 0 0 .4 1.5c1.5 2.3 3.5 4 6 5.4 2.4 1.3 4.7 2.8 6.8 4.5a185.9 185.9 0 0 0 32.7 21.2 167 167 0 0 0 36 13.2c12.6 3.1 25.3 5.5 38.2 7h4a42 42 0 0 0 16.4-5.5c-.2 8.4-.6 16.7-1.1 25a172.1 172.1 0 0 0 2 40.4c2.1 13.4 2.4 27 .8 40.6a81 81 0 0 0-.7 10.2c0 13.6-.7 27.1-2.3 40.6a2639 2639 0 0 1-5 40.3 186.9 186.9 0 0 0-1 39.4c-2.4 0-4.8.7-7 1.8a305.8 305.8 0 0 1-28.3 12.5l.5-.2.5-.3c-2.8 1.1-5.7 2.1-8.6 3a45 45 0 0 0-9 3.7 566.7 566.7 0 0 1-35 17.6c-6.5 3-13.3 4.7-20.3 5.3-9 .8-18 .3-27-1.6-13-2.7-25.8-5.8-38.6-9.2a73.5 73.5 0 0 0-28.9-1.9 185 185 0 0 1-39.6 1.1c-3.4-.2-6.7-.8-10-1.7-10.8-3-21.8-5.8-32.7-8.7a52.1 52.1 0 0 1-13.5-5.7c-10.5-6.3-21.4-12-32.5-17a20 20 0 0 0-5.8-1.6c-6.5-.8-13-1.8-19.5-2.8.3-2.7.4-5.5.1-8.4a183 183 0 0 1-.6-11.3c-.4-13.8-1-27.5-1.5-41.2a647 647 0 0 0-2-31.2c-1.3-14-1.6-27.8-1-41.8.8-13.7 2-27.3 3.6-41 1.6-13 2-26.2 1.3-39.4-.3-4.3-1-8.5-2.2-12.5 2.9 1 5.9 1.6 9 1.6a147 147 0 0 0 33.6-8.3 225 225 0 0 1 37.6-10.3 57.5 57.5 0 0 0 18.7-7A304 304 0 0 0 283 578l1.4-.7c1.4-.7 2.7-1.4 4-2.3a15 15 0 0 0 3.4-3l.2-.4.2-.5.1-.5v-.5l.1-.5v-.5l-.1-.5a6 6 0 0 0-.2-.4l-.2-.5-.3-.4a4 4 0 0 1-.3-.5 3.3 3.3 0 0 0-.8-.5l-.4-.3-.4-.2-.5-.1h-.9Zm-150 211.7.4 16.2c0 6.7.3 13.5.5 20.2.3 13.4 1 26.7 1.9 40l-.8-.1a8.6 8.6 0 0 0-1.3.4l-.4.2-.4.3-.4.3c0 .2-.2.3-.3.5l-.2.4-.3.4-.1.5-.1.5v1.7l-.7 2.1-3 16.5a614.8 614.8 0 0 0-3.3 23.2c-1.1 6.7-2 13.4-2.8 20.2l-4.6 40.4a855.2 855.2 0 0 0-3.8 40.3c-.5 6.7-.7 13.3-.8 20l-2.2-5a36.9 36.9 0 0 1-3.2-13c-.9-14.2-.7-28.4.5-42.6a488 488 0 0 1 5-40c2.1-12.9 4.3-25.9 6.6-38.8 2.2-13 4.4-26 6.4-39 2.1-13.6 3.5-27.1 4.3-40.7.4-8.4 1.4-16.8 3-25.1Zm160.3 122.3c6.3-1 12.7-1 19 .2a2283.8 2283.8 0 0 1 58.1 11.7c4.8.9 9.6 1.5 14.5 1.7 3.1.2 6.2 0 9.3-.8 12.5-2.8 24.4-7.4 35.8-14 10.5-6 21.4-10.8 32.7-14.4 10.7-3.5 21.6-8.3 32.7-14.3a4.5 4.5 0 0 0 1.6-.4h.2c.1.2.3.2.5.2a9.7 9.7 0 0 0 1 .2h1.1c.3 8 1.3 15.8 3 23.6 1.8 8.7 3.3 17.5 4.6 26.4l-.4.1-1.2.5-1.1.1-1.1.1a110.1 110.1 0 0 0-2.4.6c-1.8 0-3.5.2-5.1.6a176.5 176.5 0 0 1-32.3 4.9 1510 1510 0 0 0-39.8 3 415 415 0 0 1-39.7 1.5c-13.4-.1-26.8 0-40.2.3-15.1.3-30.1-.5-45-2.5-13-1.6-26-3.6-38.9-5.8a1128.3 1128.3 0 0 0-57.5-8.4c-13-1.8-25.8-4.6-38.3-8.4a137 137 0 0 0-32-5.8A1411 1411 0 0 0 143 864l.7-1.4c2 .5 4 .8 6 1l12 1.3c4.7.5 9.2 2 13.6 4.3l8 4.4a238.6 238.6 0 0 0 40 18.2c12.6 4.1 25.4 7 38.5 8.6a123 123 0 0 0 36.6-.9ZM553 1017.7l-.2.3.2-.5c0-.1 0-.2.2-.3l-.2.5Zm-.4.9.1-.2v-.1.3Zm-295-770.8.2.2a2 2 0 0 1-.2-.3v-.1.2ZM17 763.8v.5-.4Z"/><path fill="#fff" d="m277 130.5.5-1.8h-.3a21.8 21.8 0 0 0-8.5 4.6l-.2.2-.1.1 3.1 3.2a15.4 15.4 0 0 0 5.9 3.1l-.3-1c-.5-2.8-.5-5.6 0-8.4Zm11.2-2.2-.9-.2.3.7c.9 3.1 1 6.3.6 9.6l-.2 1 .3-.2 2.4-.7c2.3-.6 4.2-1.8 6-3.5.2-.8.6-1.6 1-2.4a23.2 23.2 0 0 0-9.6-4.3Zm64.6 11.7c1.2-.3 2.3-.7 3.5-1.3l2.7-1.3c.7-.3 1.4-.7 2-1.2l-.1.1.3-.2.3-.3 1.3-1.4v-.2l-.2-.1a8 8 0 0 0-1.2-.8l-1.3-.7-.5-.2h.2a156 156 0 0 1-7.1-2.4 17.7 17.7 0 0 1 0 10ZM342 129.3v-.7a32.8 32.8 0 0 0-7.3 3.5l-.2.5a5.4 5.4 0 0 1 0 1 11 11 0 0 0 5 4.5l1.3.6 2 .9-.2-.8c-.8-3.1-1-6.3-.6-9.5Z"/><path fill="#87441D" d="M389.1 38.2a48 48 0 0 1-12.7-8.2 14.8 14.8 0 0 0-3.1-2h.1c-5.3-2.5-10.8-4-16.6-4.4a47 47 0 0 1-7-1.2c-6-1.4-12.3-2-18.5-1.8a209.5 209.5 0 0 0-22 1.8l-12.2 1.7-12 1.2a245.1 245.1 0 0 1-15 1.2l-6.7 1.2c-2.7.5-5.3.9-8 1-1.1.1-2.3 0-3.4-.2a13.8 13.8 0 0 0-3.8 2.7l-.6.7A53 53 0 0 0 237.4 43a163 163 0 0 0-6.6 10.6 43 43 0 0 0-3.6 8c-1.3 4.5-2.3 9-3.1 13.7a81.7 81.7 0 0 0-1.4 18.2c.5 1.7 1 3.4 1.3 5.1a37.8 37.8 0 0 0 3.2 8.8l2.2 4.1a45.8 45.8 0 0 1 4-10l2-5.4a192.8 192.8 0 0 0 2.5-8.8c0-.3.2-.6.3-.8l1.7-4.5c.6-2 1.4-3.8 2.3-5.6.4-1 1-2 1.8-2.7l-.2.3.4-.4 8.9-13.4c1.2-2 2.8-3.3 4.8-4.3 2.8-1.4 5.8-2.1 9-2.3 6-.4 12-.3 18 .2a56 56 0 0 0 16.2-1 48 48 0 0 1 28.6 3.7c5.1 1 10.3 1.7 15.6 1.7 3.2 0 6.5.2 9.7.5 5.4.4 10.7 1.3 15.9 2.8a14 14 0 0 1 9 8.8c1.4 3.7 3.6 6.9 6.6 9.4 4.4 3.7 8.6 7.7 12.6 11.9 3 3.2 4.7 7 5.2 11.5 0 1.3.2 2.7.4 4l.5-1.7c1-2.8 1.6-5.7 2.2-8.6a51 51 0 0 0 .3-18.1c-.9-5.3-2.1-10.4-3.8-15.4l-3-8.8a46 46 0 0 0-7.6-13.2 10.7 10.7 0 0 0-4.2-3.2Zm12.2 17.7c0-.1 0-.1 0 0v.1-.1Z"/><path fill="#CCC" d="M315.8 938.8a475.5 475.5 0 0 1-38.5-5.5 506.6 506.6 0 0 0-38.4-5.8 645.7 645.7 0 0 1-57.6-9.4c-9.3-2-18.6-4.3-27.8-6.8a77.7 77.7 0 0 0-17.2-2.8 715.4 715.4 0 0 0-7.7 67.1l-2.5 40.3c-.4 7-.6 14-.6 21l.2.3.2.5.2.5a9.6 9.6 0 0 1 .1 1.4v.3h398.2v-3.2h-.5l-.5-.2c-.2 0-.3 0-.4-.2-.2 0-.4 0-.5-.2l-.4-.2-.4-.4-.3-.4-.3-.4-.3-.4a4 4 0 0 1-.1-.5 625.8 625.8 0 0 0-7-105.5 81 81 0 0 1-8.6 1.2c-12.1 3-24.4 4.9-36.8 5.6-13.2.7-26.3 1.7-39.3 2.9-13.6 1.1-27.1 1.7-40.7 1.5-13.3-.1-26.6 0-39.8.2-11 .2-21.8 0-32.7-.9Zm1.6-39a52.8 52.8 0 0 0-19-.2 123 123 0 0 1-36.6.9 203.8 203.8 0 0 1-78.5-26.8 299 299 0 0 0-8-4.4 36 36 0 0 0-13.6-4.3l-12-1.3c-2-.2-4-.5-6-1l-.7 1.4c-.4 5-1 9.8-2 14.7a733.2 733.2 0 0 0-3.4 21.7c10.7.6 21.4 2.6 32 5.8 12.4 3.8 25.2 6.6 38.2 8.4 6.6 1 13.2 1.8 20 2.7 12.5 1.7 25 3.6 37.5 5.7 13 2.2 25.9 4.2 38.8 5.8 15 2 30 2.8 45 2.5 13.5-.4 27-.4 40.3-.3 13.2.1 26.5-.4 39.7-1.6 13.2-1.1 26.5-2.1 39.8-3 10.9-.6 21.6-2.2 32.3-4.8 1.6-.4 3.3-.6 5-.6l1-.3a126.5 126.5 0 0 1 5.3-1.1c-1.3-8.9-2.8-17.7-4.7-26.4-1.6-7.8-2.6-15.7-2.9-23.6h-1.7a9.2 9.2 0 0 1-.9-.3h-.4c-.4.2-.9.3-1.4.3-11 6-22 10.8-32.7 14.3a170.8 170.8 0 0 0-32.7 14.5 128.6 128.6 0 0 1-35.8 14c-3 .6-6.2 1-9.3.7-4.9-.3-9.7-.8-14.5-1.7a288.4 288.4 0 0 1-18.2-3.9c-13.3-2.7-26.6-5.3-40-7.8Z"/></g><defs><clipPath id="a"><path fill="#fff" d="M0 0h663v1024H0z"/></clipPath></defs></svg>