<svg xmlns="http://www.w3.org/2000/svg" width="663" height="1024" fill="none"><g clip-path="url(#a)"><path fill="#DE9E71" d="M260.1 266.7a16 16 0 0 1-.2 1.9 91 91 0 0 1-1.5 22l-.5 1.5c-.3 1.2-.7 2.3-1.2 3.4l-.1-.4a31 31 0 0 1-3.7 5.3 4 4 0 0 1-1.7 2c0 .2-.2.3-.4.4l-.2.1-.6.5-.4.2-.6.3-1.3.6h.1a41.7 41.7 0 0 1-2.8 1.3l-1.2.6.2.2a336 336 0 0 1-30 15 192.7 192.7 0 0 0-33 18.7c-6.3 4.5-13 8.6-19.8 12.3-1 2.2-3 3.2-6.2 3a83.6 83.6 0 0 0-36.4 5.7 99.3 99.3 0 0 0-31.3 19.6A83.3 83.3 0 0 0 75 394.8c-7 10-13 20.8-17.7 32.1-3 6.9-5.2 14-6.8 21.3a221.3 221.3 0 0 0-5 37c-.5 12.4-.3 24.8.9 37.3l1.5 17 .1.3.2.4v.6l.1.6v.6l-.2.3v.3l-.1.5-.3.5c0 .2-.2.3-.3.5l-.4.4a134 134 0 0 0-11.4 31.2c-2.7 12-4.4 24.2-4.8 36.5-.5 12.5 0 25 1.7 37.5 1 7.3 1.3 14.5 1 21.6 0 .2.2.3.3.4.5.6.7 1.3.9 2 .1 1 0 1.7-.3 2.5-5.6 11-9.9 22.8-12.8 35.1-1.6 6.4-3 12.9-4.4 19.4a265 265 0 0 0-5 36.6c-.8 12.2-1.5 24.3-2 36.4a519 519 0 0 0 1.1 61.8 1828 1828 0 0 1 3.5 72.1 4197.4 4197.4 0 0 0 2.5 56.4c.6 11.5.4 23-.4 34.3h72.7a47.5 47.5 0 0 1-7.4-27c.3-10.7 1.3-21 3-31a343.8 343.8 0 0 0 1.5-9.5c2-12.2 4.3-24.3 6.8-36.4 1.4-6.6 2.7-13.3 3.9-20 2.3-13.3 5-26.7 7.7-40 2.5-11.7 4.5-23.7 6-36a80.9 80.9 0 0 1 1.1-6l.4-3.3a133.8 133.8 0 0 1 1.7-13c.8-12.4 1.8-24.8 2.9-37.1a274.4 274.4 0 0 0 .5-42.3l-.7-.5a5.8 5.8 0 0 1-1.1-1.6l-.2-1v-1.3a220 220 0 0 0 15.4-35.6c4-11.8 7.7-23.7 11-35.6 3.4-11.9 6-23.9 8-36 1.8-12.1 3.3-24.3 4.5-36.4.8-9 .8-17.8 0-26.7-5.5-6.3-10.5-13-15-20-2-3-4.1-6.2-6.3-9.2-4.2-6-7.5-12.4-9.7-19.2-.2-.6-.2-1-.1-1.6.1-.5.4-.9.9-1.3 2.7-2.7 5.1-2.4 7 1l1.3 2.1a310.3 310.3 0 0 0 27.5 40.8c.7.3 1.3.8 1.7 1.4l.2.8c5.8 6.6 12 12.7 18.9 18.1 7.8 6.2 16.3 11.2 25.5 15 9.3 3.6 18.8 6.7 28.5 9.2a64.1 64.1 0 0 0 49.7-7.1 324 324 0 0 0 24.6-16.6c4.2-3.2 7.9-6.8 10.9-11 1.5-2.3 2.3-4.8 2.3-7.6-.1-5.3 2.2-7.2 6.8-5.6 1.1.3 1.7 1.1 1.8 2.3l.1.7a26.7 26.7 0 0 1-12.1 24.7c-2.6 1.8-5 3.6-7.4 5.5-7.9 6-16 11.6-24.6 16.5a56.2 56.2 0 0 1-13.3 5.6c-7.9 2.3-15.9 3.4-24 3.4-10-.5-19.8-2.3-29.4-5.4a385 385 0 0 1-14.4-5c-9.3-3.4-18-8.1-26-14-5.6-4-10.9-8.4-15.8-13.2.3 6.6 0 13.3-1 20a362.2 362.2 0 0 0-2.1 17.4c-1.1 11.8-3 23.4-5.6 35a458.5 458.5 0 0 1-10.8 39c6.8 7.5 11.4 16.1 14 26 3 12 6.2 24.1 9.7 36.1.7 2.6.8 5.1.4 7.6l.4 1.2a11.9 11.9 0 0 1 0 2.1l-.1.5-.2.5c0 .2-.2.3-.3.5-.7 5.5-.8 11-.4 16.6a46.8 46.8 0 0 0 6 19.5c.3.8.3 1.6 0 2.5a4.7 4.7 0 0 1-2 2.6l-.5.3-.6.2c-3.3 10-5.4 20.1-6 30.4a356.6 356.6 0 0 0-.6 34.2c9.5 3.8 19.4 6.2 29.7 7l9 1 15.2 1.9c-2.4-7-5.5-13.6-9.1-20-4.3-7.5-9.8-14-16.5-19.4a36.6 36.6 0 0 1-5.8-6.2 91.4 91.4 0 0 0-.1-1.7 23.4 23.4 0 0 1 .3-1.2l.2-.5c.3-.4.6-.8 1-1a5.5 5.5 0 0 1 2.4-1.2h1.4c7.6 5.1 14 11.5 19.3 19 5.7 8.2 10.5 16.8 14.4 26 1 2.3 1.7 4.7 2.1 7.2a778 778 0 0 0 50.2 3.4c14.3.5 28.6 0 42.8-1.1l38.1-3 36.1-2.3c9.3-.6 18.6-1.4 27.8-2.4a45.6 45.6 0 0 1 8.6-19.8c5.1-6.8 10.6-13.3 16.5-19.5a189 189 0 0 0 5.3-5.7 5 5 0 0 1 2.4-.6c1 0 2 .3 2.7 1 .7.5 1.2 1.2 1.4 2l.3 1v1l-.2.6-.1.6a398 398 0 0 0-19.7 23.5A52.4 52.4 0 0 0 432 859c4.7-.6 9.5-1.2 14.2-2h.9-.1.2-.1c5.2-.8 10.4-1.8 15.5-3.1a562.9 562.9 0 0 1 16.8-4 6 6 0 0 1-1.4-2.9 603.1 603.1 0 0 1-3-31.7c-.6-9.8-.8-19.6-.8-29.3.1-4.1 1.2-8 3.4-11.3a85.8 85.8 0 0 0 3.4-17.8 186.9 186.9 0 0 0 .6-21.5c-.3-.4-.5-.9-.6-1.4l-.2-.9a57 57 0 0 1 10.5-32c3.2-4.4 5.9-9.2 8-14.2 3.1-7 6.1-14.1 9-21.2.2-.5.5-1 1-1.3a9.5 9.5 0 0 1 1.4-.7 302.2 302.2 0 0 1-10.4-55c-1.1-12.3-2.4-24.6-3.7-36.9-.4-3.2-.6-6.5-.8-9.7a83.7 83.7 0 0 1-8.9 6.6 205.9 205.9 0 0 1-32.8 17.4 95 95 0 0 1-29.2 8.2c-2 .3-4 .3-6 0-9.8-.5-19.6-1.3-29.4-2.5-10-1.2-19.6-3.7-28.8-7.6a41 41 0 0 1-20-17.9 47 47 0 0 1-5.4-22.3c0-.9.4-1.5 1.2-1.9 3.3-1.9 5.5-1 6.6 2.7l.7 3.3a42.7 42.7 0 0 0 10.2 21.2 12 12 0 0 0 3 2.6 72 72 0 0 0 28 10.2 303.6 303.6 0 0 0 21.1 2.4l2.5.3c10 1.5 20 .7 29.7-2.5a182.1 182.1 0 0 0 53-27.9c4.3-3.1 7.9-6.9 11-11.2l.9-1.4 1.5-2c6-8 11.3-16.5 15.7-25.5 2.3-4.6 3.9-9.5 4.9-14.5.6-3.1 1.5-6.1 2.5-9 .3-1 1-1.5 2-1.7 3.6-.7 5.4.8 5.3 4.5a39.2 39.2 0 0 1-3 14.7 175.5 175.5 0 0 1-15.6 30.4c-3.7 5.8-7.9 11-12.6 15.9l.1 1 3 37c1 12.5 2.8 24.9 5.3 37.1 2.4 12.1 5.1 24 8 36a130.2 130.2 0 0 0 19.8 43c.2 1 .2 1.7 0 2.6a4.6 4.6 0 0 1-1.5 2.2 220.7 220.7 0 0 0-4.4 74c1.4 12 3.3 24 5.8 35.9a202.2 202.2 0 0 0 13.8 42.6 128 128 0 0 1 7.5 24.4 28115 28115 0 0 1 5.7 29 251 251 0 0 0 3 17.8 2242 2242 0 0 0 8.1 38c1.6 7.1 2 14.7 1 23-.5 4.6-2 9-4.5 13a86 86 0 0 0-6.8 13.8 16 16 0 0 1-1.8 3.3h75.6l.2-.3.3-.4.4-.4c4.7-10.3 5.7-21 2.7-32.3-1.6-6-2.5-12.2-2.9-18.4-.6-12.4-1-24.9-1.4-37.3-.3-9.3 0-18.5 1-27.7a441 441 0 0 1 5.2-35.6c2-12.5 3.1-25 3.5-37.7.4-13.2.5-26.4.4-39.5-.2-11.8-1.3-23.5-3.3-35.2a194 194 0 0 0-9.9-36.1c-2-5-3.9-10.1-5.7-15.2-1.7-5-3.6-9.8-5.5-14.6a5.1 5.1 0 0 1-.1-3.5l.2-.5.3-.4.2-.3c1-10.7 1.4-21.4 1.5-32.2l.3-37V605c-.5-12.4-2.2-24.6-5.3-36.5a120.5 120.5 0 0 0-10.7-27.5l-.6-1.7-.3-.3c-.7-.7-1-1.6-1-2.5.1-2 .4-4 .7-6l.7-6 .2-1.4.2-3a362 362 0 0 0-1.7-74.5c-.4-3.3-1.3-6.5-2.6-9.6-4.6-11-10.5-21.3-17.6-31a86.1 86.1 0 0 0-27.9-24.4c-5.6-3-11.5-5.6-17.5-7.5-8.7-2.7-17.9-5-27.7-6.8-1.5-.3-3-.5-4.6-.5a10 10 0 0 1-3.2-.5l-.5.1h-1.6a3 3 0 0 1-.6-.2l-.5-.3-1.5-1c-10-6-19.7-12.5-29-19.8-2.9-2.3-6-4.4-9.3-6.2a457.3 457.3 0 0 0-44.2-22.6 114.1 114.1 0 0 0-14-5.8 42.6 42.6 0 0 1-11-8.8l-.7-.7a52.6 52.6 0 0 1-12-24.6 149 149 0 0 1-2.7-19.4l-.5-6v-.2c-3.3 2.1-6.6 4-10 6-6 3.2-11.9 6.5-17.7 10-5.8 3.5-11.7 6.8-17.8 9.8a29 29 0 0 1-7 2.5c-5 1-9.9 1.6-14.9 1.8-6.4-1.3-12.7-2.8-19-4.6-3.2-.9-6.5-1.6-9.8-2.2-6.2-1.1-12.4-2.7-18.5-4.5h.2l-.3-.1c-2.5-.3-5-.9-7.2-1.7Zm177.5 56 .2.2-.5-.3.3.1Zm23.7 68.2.5.2c9.1 8.3 16.6 18 22.5 29.1 5.8 11 13.1 21 21.9 30 2.9 2.9 3.5 6 1.8 9.3a3 3 0 0 1-2.5 1.8H504a3.8 3.8 0 0 1-2.5-1.4l-.5-.8-.2-.4-.2-.5a323 323 0 0 1-19.5-25.6c-2.3-3.3-4.4-6.8-6.3-10.4a106 106 0 0 0-18.2-24.6l-.2-.5-.2-.6-.1-.5a3.1 3.1 0 0 1 0-1.2 19.3 19.3 0 0 1 .3-1.2c.2-.6.7-1.2 1.2-1.7.5-.4 1-.7 1.7-.8.7-.2 1.3-.3 2-.2Zm-126.6 38.9c1.2.4 1.8 1.2 2 2.5a283 283 0 0 1 .7 36.8c-.6 12.4-.3 24.9.9 37.3.3 3.3-1 5.5-4.1 6.4-2.2.6-3.8-.1-4.8-2.1-.3-.6-.5-1.2-.5-1.8-.9-12.4-1-24.8-.4-37.3.6-12.3.6-24.7 0-37-.2-4.7 1.9-6.3 6.2-4.8Zm-135-29.8a19.8 19.8 0 0 0-3.5 4c-7 10.4-14.4 20.4-22.4 30-7.4 9-14.6 18.2-21.6 27.4a58.4 58.4 0 0 1-2.2.3 3 3 0 0 1-.5-.2l-.6-.2-.6-.2c-.7-.4-1.2-1-1.6-1.8-.4-.7-.6-1.5-.5-2.4l.1-1c7.2-10.9 15-21.3 23.3-31.3 7.9-9.5 15-19.3 21.6-29.7 1.8-3 4.3-4.6 7.5-5 1.5-.1 2.5.5 3 1.8 1.5 3 .8 5.8-2 8.3Zm-61.2-37.3 1 1.1a7.8 7.8 0 0 1 .5 2.3c0 .4 0 .8-.2 1.1a9 9 0 0 1-.4 1l-.2.5c-3.8 3.7-6.3 8.1-7.6 13.3-1.2 5.3-2.2 10.5-2.9 15.9-.2 1.6-.6 3.3-1 5l-.7.7-.7.6-.9.6-.6.2a18.8 18.8 0 0 0-1.1.1h-.6l-.6-.1-1.3-.6-1-1a3 3 0 0 1-.4-.5 3.9 3.9 0 0 1-.4-1l-.1-.7c.8-6.7 2-13.3 3.4-20 1.4-6 4-11.3 7.5-16.1 1.1-1.5 2.5-2.6 4-3.3a4.8 4.8 0 0 1 4.3.9Zm-22.3 132.9a48.8 48.8 0 0 1-13.7 18.4c-6 5-11.9 10-17.7 15.2-1.8 1.6-3.7 1.6-5.7 0-2-3.5-1.2-6.5 2.3-9.2 7-5.4 13.5-11.3 19.6-17.8 3.2-3.4 6.1-7 8.8-10.6.3-.4.8-.7 1.4-.7 3.2 0 4.8 1.5 5 4.7Zm88.2 67.6a3.7 3.7 0 0 1-2.5-3.5c1.2-4.5 3.7-5.4 7.5-2.7 1 .6 1.3 1.5 1.1 2.6-.5 3.8-2.6 5-6 3.6Zm11.9 69.5.6.7.6 1 .2.5a20 20 0 0 1 .1 1.1v.7c0 .5-.2 1-.5 1.4a4 4 0 0 1-1.3 1.5l-.4.3-.5.3-.6.1-.5.1H212.2a98 98 0 0 1-31.2-19.7 16.4 16.4 0 0 1-5-8c-.3-1.2 0-2.2 1-3 3-2.2 5.8-1.8 8.4 1.2 5.1 6 11 11.2 17.7 15.6a40.8 40.8 0 0 0 12.4 5.6l.8.6Zm25.9-7.7.5-.3c12-2.3 23.8-6 35-11a40 40 0 0 1 35.8.9 24.2 24.2 0 0 1 12.6 15c.7 2.5 1.2 5 1.2 7.3.1 2.4 0 4.7-.6 7-.3 1-1 1.6-2 1.8-3.4.7-5.3-.6-5.8-4-.1-2.2-.4-4.5-.9-6.7a28.6 28.6 0 0 0-3.2-8.5 27.8 27.8 0 0 0-31.6-5.4c-9.8 4-19.7 7.4-29.9 10.3-3.2 1-6.5 1.5-9.9 1.8-1-.3-1.8-.8-2.5-1.6-.6-.8-1-1.7-1-2.7a4.4 4.4 0 0 1 1.4-3.2l.4-.3.5-.4Zm-80.3-30.9v-.5.5Zm108.8 89.4c-9.6 5.6-19.7 9.6-30.4 11.9-4.1.9-8.2 1.3-12.4 1.2a20 20 0 0 1-11.8-5.4 68.8 68.8 0 0 1-10.7-12.5l.3.4-3-3.8c-1.1-1.2-2-2.6-2.6-4a5 5 0 0 1-.4-1.7v-.6a19.6 19.6 0 0 1 .3-1.1 92.7 92.7 0 0 1 .8-1.2l.3-.4.8-.6.5-.2.6-.2a20 20 0 0 1 1.1-.2 5.9 5.9 0 0 1 2 .6l1 .5.3.3a58 58 0 0 0 19.7 20.4c1 .6 2 .9 3.3.8a73 73 0 0 0 35.4-11.5c11.2-7.1 23-8.5 35.5-4.2 3.3 1.1 6 3 7.8 5.7 1 1.5 1 3 0 4.4l-1.2 1c-.5.4-1.1.6-1.8.7a5 5 0 0 1-2.4-.4 92.7 92.7 0 0 1-1.2-.8 31.4 31.4 0 0 0-31.8 1Zm-42.8 14.2c2.9.5 4 2.8 3.5 6.7-1.2 8.1-.6 16 1.8 23.8.5.9 1.1 1.7 1.8 2.5l2.6 2.6 2.2 1.8c11 5 22.6 7.5 34.7 7.2 10-.2 19.8-.6 29.6-1.3 5.2-.4 9.6-2.5 13.2-6.3 2-2 3.8-4.2 5.6-6.3.8-.4 1.6-.7 2.4-.7a4.7 4.7 0 0 1 4 2.5 4.2 4.2 0 0 1 .4 2.6l-.1.6-.1.5-1.1 1.5a36 36 0 0 1-15.8 12.5 38.6 38.6 0 0 1-18 3c-5.2-.4-10.5-.4-15.7 0a91.5 91.5 0 0 1-36.5-5 29 29 0 0 1-20.7-28c-.4-6.4.4-12.7 2.1-18.7.3-.9.9-1.4 1.8-1.5h2.3Zm17.4 54.9c1 .5 1.8 1.8 2.2 3.9 2 11.4 5 22.5 8.8 33.4 4.8 5.3 9.2 10.8 13.3 16.6 4 5.7 7.8 11.5 11.5 17.4.5.9.6 1.9.2 2.9-.4.9-1 1.6-1.8 2.1l-.5.2-.6.2a3 3 0 0 1-.6.2h-1l-1-.3-1-.4-.4-.3a3.7 3.7 0 0 1-1-1.2 38.5 38.5 0 0 1-1.3-1.9l-.7-.9A1628 1628 0 0 0 249 794a17.7 17.7 0 0 1-3-6 163.8 163.8 0 0 1-6.5-32.5c0-1 .4-1.8 1.3-2.3 1.9-1 3.4-1.1 4.5-.5Zm203.4-193.2a4.3 4.3 0 0 1 3.1-3.8c2.4-.7 4.2 0 5.4 2.2.4.7.5 1.4.5 2.2a5 5 0 0 1-1 2.5c-.7.9-1.6 1.4-2.6 1.5-.7.2-1.4.2-2 0a4 4 0 0 1-2.2-1.3 4 4 0 0 1-1-2.4l-.2-1ZM415.8 623c.9.2 1.4.8 1.5 1.7.6 4-1.1 5.8-5.3 5.4-10.5-1-20.5-4-30-9l-16.6-8.8a13 13 0 0 0-11-.7 53.7 53.7 0 0 0-9.4 4.6c-2 5.3-2.9 10.9-2.8 16.6 0 3.8-.5 7.3-1.4 10.7-.3.9-.9 1.4-1.8 1.6-3.4.6-5.3-.7-5.8-4.1a48 48 0 0 1 6.2-31.1c.5-1 1.2-1.7 2.1-2.4a28.9 28.9 0 0 1 28-2.5 256.5 256.5 0 0 0 46.3 18Zm31 2.7a572.4 572.4 0 0 0 7.2-5c3.2-2.5 6.1-5 9-7.8 2.8-2.6 5.3-5.5 7.6-8.6.6-.8 1.2-1.6 1.9-2.2a9.1 9.1 0 0 1 2.1-1 11.8 11.8 0 0 1 2.4.4c.8.3 1.4.9 1.9 1.6a4.5 4.5 0 0 1 .6 3.9 56 56 0 0 1-9.5 11.5 141.5 141.5 0 0 1-24.7 19 6 6 0 0 1-2.4 0l-1.4-.7-1-1-.3-.4a8 8 0 0 1-.6-2.3 6 6 0 0 1 1-2.7c2-1.7 4-3.2 6.2-4.7Zm-84.8 41c3.3-1 6.6-1 10-.3 12 2.6 23.7 6.5 35 11.6a24.4 24.4 0 0 0 21.6-.3c3-1.4 5.8-3.2 8.4-5.5l3-2.4-.2.2a83 83 0 0 0 6.8-5.9c1.8-1.8 4-3 6.4-3.3 1.7-.4 3 .2 4 1.6.8 4.4-1 7.8-5.6 10.4-1.9 1-3.7 2.4-5.3 3.9a49.4 49.4 0 0 1-17.9 10.7c-4.9 1.7-10 2.4-15.2 2-6.4-1.5-11.9-3.5-16.6-6-9.9-4.9-20.7-7.6-32.5-8.2a7 7 0 0 0-3.1.7 78.3 78.3 0 0 0-18.4 11c-.6.6-1.2.6-2 .3-3.7-1.9-4-4.3-1.2-7.3 6.3-6.6 14-11 22.8-13.3ZM325.2 750a6 6 0 0 1 3.3-1.3 8 8 0 0 1 7.6 3c.4.4.6 1 .8 1.4.7 2.3.2 4.4-1.4 6.2l-1 1c-1.4 1.4-3.1 2-5.2 2a9.5 9.5 0 0 1-1-.3c-5.5-1.6-7-4.6-4.5-9 .2-1.2.7-2.2 1.4-3Zm14.6-20.2c1.4-3.6 3.8-4.3 7-2.1a50 50 0 0 0 35.5 8.1c6-.8 11.9-1.7 17.8-2.7h.1l3-.5a254.2 254.2 0 0 0 9-1.5c4.2-.6 8.1-2 11.7-4.3a22 22 0 0 0 8.3-9l2.2-4.8.3-3 .3-2.9.4-2-.3-.9a51 51 0 0 1-.4-2c0-.6.2-1.2.4-1.7l.5-1a10 10 0 0 1 .7-1.3c.6-.7 1.3-1.1 2.2-1.3a5 5 0 0 1 2.6.1c.8.3 1.4.7 2 1.3a5 5 0 0 1 .8 1.8 19 19 0 0 1 .2 1.2v.6l-.2.6a32.4 32.4 0 0 1-13.8 30 45 45 0 0 1-24.6 9c-6 .8-12.1 1.6-18.1 2.6-4.3.7-8.5 1-12.7.7-13 .6-24.4-3.3-34.2-11.6a3 3 0 0 1-1-1.6 3 3 0 0 1 .3-1.8Zm66.2 16.4c4-1 6 .6 5.8 4.9a69.8 69.8 0 0 1-2.8 16.7c-1.6 5.4-3 10.9-4 16.3-2.8 6.7-6.1 13-9.9 19.3-3.4 5.5-6.7 11-9.9 16.7-.8 1.5-2 2.8-3.3 4-.5.4-1.2.6-1.8.6-.7.1-1.3 0-2-.2l-1-.4-.3-.3a3.9 3.9 0 0 1-.7-.7l-.4-.4a12 12 0 0 1 3.3-10.4l3-4.2a312.9 312.9 0 0 0 14.2-25.3c3.3-11.7 6.2-23.5 8.5-35.3.1-.7.6-1.1 1.3-1.3ZM88.2 554c-.5 2.5-1 4.9-1.7 7.2-3 9.5-5.3 19.2-7 29l-2.4 15.2c-1.4 9.8-2.2 19.6-2.3 29.5 0 5.9-.3 11.8-.7 17.7-.2 3.3-1.9 4.6-5 4-2.2-.5-3.3-1.8-3.4-4l1-29.6c.5-10 1.6-19.9 3.4-29.7a775 775 0 0 1 6-29.4 46.3 46.3 0 0 1 6-14.4c.3-.5.7-.7 1.3-.8 3.8-.2 5.4 1.5 4.8 5.3ZM75.6 708.4c.3.8 1 1.4 1.9 1.7l12.2 5.3c.6.3.9.8 1 1.5.6 4-1.2 5.9-5.2 5.7a25.2 25.2 0 0 1-21.7-18 1657 1657 0 0 0-7.4-26c-.2-.5 0-1 .4-1.5 2.8-3 5.2-2.8 7.3.7 1.3 2.1 2.2 4.3 3 6.7 2.3 8.2 5.2 16.1 8.5 23.9ZM77.4 828l.3.4a105.2 105.2 0 0 1 1 1.1l.3.5.1.5a19.7 19.7 0 0 1 .2 1.2 6 6 0 0 1-.6 2 4 4 0 0 1-.5.9l-.3.4a10 10 0 0 1-1.3.8 86.8 86.8 0 0 0-10 33.1c-.9 9.2-1.9 18.5-3 27.7-1.1 9.6-1.8 19.3-2.1 29-.3 1.3-1 2.3-2.1 3-1.2.6-2.4.7-3.7.3a4.4 4.4 0 0 1-2.6-2.4c-.2-.5-.4-1.1-.4-1.8.3-12.4 1.2-24.7 2.8-37 1.6-12.3 3.4-24.6 5.4-37 1.4-7.9 4.6-15 9.6-21.1a6.4 6.4 0 0 1 4.3-2.4h.6a19.5 19.5 0 0 1 1.1.4l.5.2.4.2Zm419.8-457a6 6 0 0 1 2.3 0l1 .6a6.9 6.9 0 0 1 1.3 1c2.1 5.2 3.6 10.5 4.5 16a56.5 56.5 0 0 1-.8 20l-.7.7c-.1.3-.4.5-.7.7-.2.2-.5.4-.9.5l-.5.2-.6.1a3 3 0 0 1-1.2 0h-.6l-1.3-.7c-.4-.3-.8-.6-1-1l-.3-.4-.3-.5-.1-.6-.1-.6a52 52 0 0 0 .2-15.3 85.1 85.1 0 0 0-3.6-16.1 4.7 4.7 0 0 1 3.4-4.5Zm37.5 130.5c1.6-3.5 4.2-4.2 7.7-2.2 6.3 3.7 12.9 7 19.6 10a55 55 0 0 1 15.3 10c.7.6.9 1.3.7 2.2-.6 3.1-2.5 4.4-5.7 3.9l-.4-.2-.4-.2c-8.5-5.4-17.4-10-26.7-13.7a22.4 22.4 0 0 1-10-7.4c-.5-.8-.5-1.6-.1-2.4Zm40.4 61.8c1.3.3 2 1 2.2 2.3a318 318 0 0 1 3 21.2c1 10 2 20 2.7 30l2.4 29.4a256.7 256.7 0 0 1-1 51 4 4 0 0 1-1.7 2 4.2 4.2 0 0 1-3.7.8l-1.2-.5a10.2 10.2 0 0 1-1.2-1.2l-.3-.4-.1-.3-.2-.4-.1-.4a453 453 0 0 0 1.3-31c0-10-.3-20-1.3-30a7244.9 7244.9 0 0 1-3.5-37v-1a548.8 548.8 0 0 1-2.7-25.1l-.1-1.8-.2-2.3c-.5-4.4 1.4-6.2 5.7-5.3Zm38.4 130.5c.4 1 .5 2 .1 3.1a2007.5 2007.5 0 0 0-15 26.7l-8.3 13.7c-.6.9-1.3 1.4-2.3 1.7-1 .3-2 .5-3.1.5-5.6-.3-10.6-2-15-5.1a2 2 0 0 1-.7-1.8c0-3.6 1.8-5 5.3-4.4 1.7.3 3.4.7 5 1.3 1.8.6 3.5 1 5.4 1a81.6 81.6 0 0 1 9.8-17.8c2-2.9 3.8-6 5.1-9.2 1.5-3.6 3.4-7 5.6-10.2l.2-.2.3-.4.3-.5c1.2-1.1 2.6-1.5 4.2-1.1 1.5.3 2.6 1.2 3.1 2.7Zm-10.2 147.4a4 4 0 0 1 4.4 1.6c5.1 12.9 8.2 26.3 9.3 40.1a188.2 188.2 0 0 1-1.5 42.7l-.1.9V926.9l-.1.4a83 83 0 0 1-1 5.5 8.7 8.7 0 0 1-2.3 4.4l-.9.7a4 4 0 0 1-1 .2 4 4 0 0 1-1 .2h-.6a17.3 17.3 0 0 1-1.2-.3 7.8 7.8 0 0 1-1.7-1.1 16 16 0 0 1-1.3-1.8l-.1-.6-.1-.6v-.6a9.4 9.4 0 0 1 .4-1.8l.5-1 .3-.3.5-.4a108.4 108.4 0 0 0 .8-4.6v-.1c2-14.4 2.5-28.7 1.3-43.1a143 143 0 0 0-7.6-35c-1-3 0-5 3-5.7ZM430.4 131.7c-1-.6-2-1-3.1-1.1a8 8 0 0 0-3.1 0l-1.3.1-.6.2-.5.3a4 4 0 0 0-.5.1 18.3 18.3 0 0 0-4.4 4.2c-.2.8-.5 1.4-.9 2l.3 8.6a145.6 145.6 0 0 1-1.8 26.6c.2.3.4.5.5.9 1 2.2 2.6 4.1 4.5 5.6 5.4.2 9.6-2 12.5-6.9a27 27 0 0 0 3.5-10c1.1-7.4.9-14.7-.8-21.9-.8-3.3-2.2-6.2-4.3-8.7Zm-1.5 11.4c.8 4 .8 8 .1 12l-1.4 7.6c-.6 2.5-2 3.7-4.4 3.7-.7 0-1.4-.3-1.9-.8a3 3 0 0 1-.9-1.7 3.3 3.3 0 0 1 .5-2.6c1-3.9 1.5-7.8 1.7-11.8.1-2 0-4.2-.3-6.2 0-.5 0-1 .3-1.3 1.3-2 2.9-2.3 4.8-1.1a3 3 0 0 1 1.5 2.2Zm-214.3-10.6c-.6-.2-1.2-.2-1.7-.1-.6 0-1.1.2-1.7.3l-.8.5-.8.5-.9.5-2 2.3c-.6.8-1 1.7-1.5 2.6l-.4 1-.3 1.5a34.2 34.2 0 0 0 .9 20.3c1.1 3.3 2.6 6.3 4.6 9.2 2.4 3.6 5.6 5.9 9.7 6.8.4 0 .8 0 1.2-.3l1.2-.5 1-.7.9-1.1a162 162 0 0 0-1.8-12c-1.4-6.2-2.7-12.5-3.9-18.8-.6-3.6-1-7.1-1.1-10.7l-.9-.8-1.7-.5Zm-5.3 12.7.8-.7c2.2-.8 3.7-.2 4.6 2 .3.6.4 1.3.3 2-.5 3.4-.2 6.8 1 10 .6 1.6 1.1 3.1 1.5 4.8.1.5 0 1-.2 1.5-.8 1.6-2.1 2.2-3.9 1.9a5.2 5.2 0 0 1-3-3.5l-.8-2.5c-1-3.3-1.7-6.7-1.8-10.1 0-2 .5-3.8 1.5-5.4Zm109-81.4a36.7 36.7 0 0 0-13.7-1.7 64 64 0 0 1-15.5 2.4 166.5 166.5 0 0 1-22.3-.9 271.2 271.2 0 0 1-9.8 1l-2.4.5-.3.2-.3.2a56 56 0 0 0-4.4 6h-.1l-.1.2a116 116 0 0 0-3.5 5 80.8 80.8 0 0 1-5.4 6.7l-.2.5a11.1 11.1 0 0 1-.3.7v.1l-1.3 3.7a35 35 0 0 1-1.4 3.7l-.6 1.4.1-.4c-1 2.3-1.8 4.6-2.4 7a170.7 170.7 0 0 1-2.7 8.2 38.4 38.4 0 0 0-5.6 17.5c-.5 6.5 0 13 1.3 19.4 1.3 6.2 2.6 12.4 3.7 18.6l.1.4.3 1.5 1.6 10.6c.5 3.6.7 7.2.6 10.8v1.1a27.8 27.8 0 0 1 .8 8.1v2.2c.3 1.4.5 2.8.5 4.2l.5 3.9v1.6a169.7 169.7 0 0 0 9.3 23.8c2.9 5.1 5.5 10.4 8 15.7 1.6 3.5 3.8 6.3 6.7 8.6 1.4 1.1 3 2 4.8 2.4a56.3 56.3 0 0 0 4.1 1c6.5 1.8 13 3.3 19.6 4.5 6.4 1.2 12.7 2.8 19 4.8 3 .9 6 1.6 9 2a55.8 55.8 0 0 0 23.4-6.8 370 370 0 0 1 17-10l17.1-9.5c3.6-2 6.8-4.3 9.7-7 1.3-1.2 2.2-2.5 3-4.1 2.4-5.6 4.8-11.6 7.1-18l7.1-18.2c2.6-6.1 4.1-12.5 4.7-19 .3-4 .7-8 1.2-11.8.8-6.5 1.2-13 1-19.5 0-6.5-.2-13-.4-19.5a77 77 0 0 0-1.7-14.5c-.1-1.7-.4-3.5-.9-5.2l-.5-3.1-.8-1.6a14.3 14.3 0 0 0-2-2.5c-3.9-3.6-8-7-12-10.4-4-3-7-6.7-9.4-11a182.2 182.2 0 0 0-4.2-6.8 2.7 2.7 0 0 1-.5-.4h-.5a4 4 0 0 1-1-.4 108.6 108.6 0 0 1-7.7-1.4 83.3 83.3 0 0 0-9.6-1.4c-6.4.5-12.8.4-19.2-.6a115 115 0 0 1-18.6-4.5Zm18.8 40.7a49.3 49.3 0 0 1 34.7 3.3c3 1.6 5.8 3.6 8.2 6a12 12 0 0 1 2.8 4c.3.9.3 1.7 0 2.6-.8 2.2-2.4 3.2-4.8 2.9a5.2 5.2 0 0 1-3.6-2.1 12 12 0 0 0-1.7-2c-2-1.8-4.2-3.3-6.7-4.4l.3.2a50.5 50.5 0 0 0-20.9-3l-2.2.3h-.6l-2.5.6a15.5 15.5 0 0 0-5.3 2.5c-2.2 2-4 4.3-5.6 7-.2.4-.5.7-1 1-1.4 1-3 1-4.6.1-2.2-1.6-2.7-3.6-1.5-6 1.5-3.1 3.6-5.8 6.1-8.1 2.6-2.3 5.6-4 9-5Zm-65.7-3c4.2-.5 8.3-.1 12.4 1a53.3 53.3 0 0 1 14.2 6.4l.2.2.7.5.4.3a129.3 129.3 0 0 1 2.8 2c.8.5 1.4 1.3 1.8 2.2l.2.6c.5 2.8-.7 4.6-3.5 5.4-1.2.3-2.3.1-3.3-.6l-4.9-3.7a27.2 27.2 0 0 0-7.3-3.6l-.6-.2c-2.7-1-5.4-1.5-8.3-1.8a30.5 30.5 0 0 0-4.5.1h-.5c-3.2.5-6.2 1.5-9 3.1l-1 1a76.8 76.8 0 0 0-6 8.4l-1.4 2.2a11 11 0 0 1-2.8 3.3 4 4 0 0 1-4.3.6c-.6-.2-1-.5-1.5-.9a4.7 4.7 0 0 1-1.2-2.7c-.1-1 .1-2 .7-2.8l.6-.9a65.7 65.7 0 0 1 9.4-13.1c2.3-2.6 5-4.4 8.4-5.4a45.2 45.2 0 0 1 8.3-1.6Zm2.7 23.4h.2c3.8-.7 7.5-.7 11.3 0a37.7 37.7 0 0 1 12.9 5.3c2.3 1.2 4.3 2.8 5.9 4.9.2.2.3.6.4 1 .3 1.4.1 2.5-.5 3.5-.1.5-.4 1-.8 1.6l-.4.6c-1 3.2-3 5.7-5.8 7.7a29 29 0 0 1-9.2 4.1c-2 .6-4 1-6 1.4-2.3.5-4.5.6-6.8.4-3.5 0-6.8-.7-9.9-2.4-3-1.7-5.7-3.6-8.3-6a24.5 24.5 0 0 1-4.4-5.1c-.4-.7-.6-1.6-.5-2.4v-.2c0-1 .2-2.1 1-3.3.7-1.3 1.7-2.5 3-3.3l4-2.8c2.8-2 5.8-3.3 9.2-4l4.7-1Zm103.6 16c-.1.7-.4 1.4-.9 2a32.8 32.8 0 0 1-9.1 8.1c-3 1.5-6 2.7-9.2 3.6-1.5.4-3 .7-4.5.8a37 37 0 0 1-13-1.6 29.1 29.1 0 0 1-3.8-1.8c-3-1.4-5.4-3.3-7.5-5.7-1.9-2.3-3.4-4.8-4.4-7.5-.2-.5-.3-1-.2-1.5a4.6 4.6 0 0 1 2.7-3.4c.2-.6.5-1 .8-1.5a4 4 0 0 1 1.3-1.2l.5-.3h.2-.1c2.7-1.8 5.5-3.2 8.5-4.4 3.1-1.2 6.4-1.7 9.8-1.6 3.3.1 6.6.8 9.7 2a43 43 0 0 0 6.3 2.2c3 .9 5.8 2.3 8.3 4.2l1 .6c2.8 1.6 4 4 3.6 7Zm-6.6 8-.1.1-.2.1.3-.1Zm-51.8 17.6a4 4 0 0 1-.4 4 15.7 15.7 0 0 0-2.3 13.5 54 54 0 0 0 1.7 3.2l2 .9a12 12 0 0 0 3.5.2l1.2-.6a7 7 0 0 0 1-.8l.7-.7c2-1.7 4-1.7 6.1 0 1 .8 1.4 1.8 1.4 3a6 6 0 0 1-2.3 4.6 13.6 13.6 0 0 1-9 3.4c-3.5 0-6.7-.9-9.6-2.8-1.5-1-2.6-2.1-3.4-3.6a19.8 19.8 0 0 1-2.7-9.6 27 27 0 0 1 1.4-10c1-2.7 2.4-5 4.5-6.8.3-.3.7-.5 1.2-.6 2.4-.4 4 .4 5 2.7Zm33.5 49.8c1 .8 1.5 1.8 1.5 3 0 1.8-.7 3.3-2 4.6a26.7 26.7 0 0 1-11.6 6.6 64.3 64.3 0 0 1-10 2l-7.1 1a574.5 574.5 0 0 1-10.8.6c-3.3-.4-6.7-1-10-1.7-3.3-.8-6.4-2-9.4-3.6-3-1.7-5.5-4-7.3-7-1.6-2.5-1.3-4.7.9-6.5.7-.6 1.6-1 2.6-.9 2.2.3 3.8 1.4 4.8 3.6.2.4.4.7.8 1 2.5 2.4 5.5 3.9 9 4.6 3 .6 5.9 1 8.8 1.4 1.9.3 3.8.3 5.7 0l4.9-.5 6.5-.8h-.3c3.1-.4 6.2-1 9.3-2a16 16 0 0 0 7.5-5c2-2 4-2 6.2-.4Z"/><path fill="#000" d="M607.7 842.8a4 4 0 0 0-4.4-1.6c-3 .7-4 2.6-3 5.7 4 11.4 6.5 23 7.6 35 1.2 14.4.8 28.7-1.2 43v.2l-.1.6-.3 1.3-.5 2.7-.5.4-.3.4-.5.9a8.2 8.2 0 0 0-.5 1.8v.6l.2.6.1.6a38.7 38.7 0 0 0 1.3 1.8c.4.3.7.6 1.2.8.2.2.3.3.5.3l.6.2a19.6 19.6 0 0 0 1.1.1c.4 0 .8 0 1.2-.2a4 4 0 0 0 1-.2l.8-.7c1.2-1.2 2-2.6 2.4-4.4l.9-5.5V926.5a119.3 119.3 0 0 0 .9-6.4c1.5-12.4 1.7-24.8.8-37.2-1.1-13.8-4.2-27.2-9.3-40.1Zm6-145.9c.3-1 .2-2-.2-3.1a4.2 4.2 0 0 0-3-2.8c-1.7-.3-3 0-4.3 1.2a129.3 129.3 0 0 1-.7 1h-.1v.1c-2.2 3.2-4 6.6-5.6 10.2-1.3 3.3-3 6.3-5 9.2-4.1 5.5-7.4 11.5-10 17.8-1.8 0-3.5-.4-5.3-1-1.6-.6-3.3-1-5-1.3-3.5-.6-5.3.8-5.3 4.4 0 .8.2 1.4.7 1.8 4.4 3.1 9.4 4.8 15 5 1 0 2 0 3-.4 1-.3 1.8-.8 2.4-1.7a968.1 968.1 0 0 0 11.3-19l12-21.4Zm-1.8 2.5v-.1l.2-.2c0 .2-.2.3-.2.3Zm-34.6-133.8c-.2-1.3-1-2-2.2-2.3-4.3-.9-6.2.9-5.7 5.3l.2 2.3.1 1.8a589.5 589.5 0 0 0 2.6 25v.1a85.2 85.2 0 0 0 0 .9c.4 2.5.6 5 .9 7.6l2.7 29.4c1 10 1.4 20.1 1.3 30.2-.1 10.3-.5 20.7-1.3 31l.1.3.2.4.1.3.3.4.2.3 1 .9 1.2.5 1.2.1c1 0 1.8-.3 2.5-.8a4 4 0 0 0 1.7-2 256.7 256.7 0 0 0 1-51 2645 2645 0 0 1-2.4-29.5l-2.7-30c-.8-7.4-1.8-14.5-3-21.2Zm-35-66.3c-3.4-2-6-1.3-7.6 2.2-.4.8-.4 1.6.2 2.4 2.4 3.3 5.7 5.8 9.9 7.4a161.8 161.8 0 0 1 27.5 14c3.2.6 5.1-.7 5.7-3.8.2-.9 0-1.6-.7-2.2a55 55 0 0 0-15.3-10c-6.7-3-13.3-6.3-19.6-10Zm-44-128.3a6 6 0 0 0-1.1 0l-1.4.7a4.7 4.7 0 0 0-2 3.9l1 3.4a85 85 0 0 1 2.6 12.7 52 52 0 0 1-.1 15.9l.1.6.3.5.2.4 1.1 1c.4.3.9.5 1.3.6l.6.1a2.8 2.8 0 0 0 1.2 0h.6l.5-.3 1-.5c.2-.2.5-.4.6-.7l.7-.8c.5-1.4.8-3 1-4.5.6-5.1.6-10.3-.2-15.4a73.5 73.5 0 0 0-4.9-16.4 7 7 0 0 0-.8-.6l-1.1-.5-1.2-.1ZM77.7 828.4c0-.2-.2-.3-.3-.4l-.4-.2-.5-.2a4.1 4.1 0 0 0-1.1-.3h-.6c-1.7.1-3.1.9-4.3 2.3-5 6.1-8.2 13.2-9.6 21.2-2 12.3-3.8 24.6-5.4 36.9a352.8 352.8 0 0 0-2.8 37c0 .7.2 1.3.4 1.8a4.4 4.4 0 0 0 6.3 2 4.2 4.2 0 0 0 2-2.8c.4-9.8 1.1-19.5 2.3-29.1l3-27.7c1.1-11.8 4.4-22.9 10-33 0-.2.2-.3.4-.4l.4-.2.4-.3.3-.4a4.1 4.1 0 0 0 .9-1.7l.2-1.2v-.6a19.5 19.5 0 0 0-.3-1.1l-.3-.5a3 3 0 0 0-.3-.5l-.3-.3c-.1-.2-.2-.3-.4-.3ZM77.5 710c-1-.3-1.6-1-2-1.7a207 207 0 0 1-8.4-24c-.8-2.3-1.7-4.5-3-6.6-2-3.5-4.5-3.7-7.3-.7-.4.5-.6 1-.4 1.5l7.4 26a25.2 25.2 0 0 0 21.7 18c4 .2 5.8-1.7 5.2-5.7-.1-.7-.4-1.2-1-1.5l-12.2-5.3Zm9-149c.7-2.3 1.2-4.7 1.7-7.2.6-3.8-1-5.5-4.8-5.3-.6 0-1 .3-1.3.8a46.3 46.3 0 0 0-6 14.4c-2.2 9.8-4.2 19.5-6 29.4-1.8 9.8-3 19.7-3.3 29.7l-1.1 29.7c.1 2.1 1.2 3.4 3.4 3.9 3.1.6 4.8-.7 5-4 .4-5.9.6-11.8.7-17.7.1-10 1-19.8 2.3-29.5l2.4-15.2c1.7-9.8 4-19.5 7-29Zm325.3 190c.2-4.3-1.7-5.9-5.8-4.9-.7.2-1.2.6-1.3 1.3a454.8 454.8 0 0 1-8.5 35.3A619.3 619.3 0 0 1 382 808l-3 4.2a12 12 0 0 0-3.3 10.4l.4.4a3.7 3.7 0 0 0 2 1.4 4 4 0 0 0 2 .2c.6 0 1.3-.2 1.8-.6 1.3-1.2 2.5-2.5 3.4-4 3.1-5.6 6.4-11.2 9.8-16.7 3.8-6.2 7.1-12.6 10-19.3 1-5.5 2.3-10.9 3.9-16.3 1.6-5.5 2.5-11 2.8-16.7Zm-65-23.4c-3.2-2.2-5.6-1.5-7 2.1a3 3 0 0 0-.3 1.8 3 3 0 0 0 1 1.6 47.7 47.7 0 0 0 34.2 11.6c4.2.2 8.4 0 12.7-.7a474.5 474.5 0 0 1 20.7-2.8 45 45 0 0 0 22-8.9 32.4 32.4 0 0 0 13.8-30l.1-.5.1-.6v-.6a19.6 19.6 0 0 0-.3-1.1 5 5 0 0 0-.8-1.3c-.5-.6-1.1-1-1.9-1.3a5 5 0 0 0-2.6-.1 3.9 3.9 0 0 0-2.5 1.7l-.4 1-.5 1c-.2.4-.4 1-.4 1.5a12.4 12.4 0 0 0 .7 3l-.4 2-.3 3c0 1-.1 2-.3 2.9l-2.2 4.8a22 22 0 0 1-8.3 9 30.7 30.7 0 0 1-11 4.2c-.7 0-2 .3-4 .6a254.3 254.3 0 0 1-8.7 1.5c-6 1-12 2-17.9 2.7a50 50 0 0 1-35.5-8.1Zm-18.3 21a6 6 0 0 0-3.3 1.3c-.7.8-1.2 1.8-1.4 3-2.5 4.4-1 7.4 4.5 9a11.2 11.2 0 0 1 1 .3c2 0 3.8-.6 5.2-2l1-1c1.6-1.8 2-3.9 1.4-6.2-.2-.5-.4-1-.8-1.4a8 8 0 0 0-7.6-3Zm43.4-82.3c-3.3-.7-6.6-.6-9.9.2-8.9 2.3-16.5 6.7-22.8 13.3-2.9 3-2.5 5.4 1.3 7.3.7.3 1.3.3 1.9-.2a78.4 78.4 0 0 1 18.4-11.1c1-.5 2-.7 3-.7 11.9.6 22.7 3.3 32.6 8.3a81 81 0 0 0 16.6 6c5.2.3 10.3-.4 15.2-2a49.4 49.4 0 0 0 18-10.8c1.5-1.5 3.3-2.8 5.2-4 4.5-2.5 6.4-6 5.5-10.3-1-1.4-2.2-2-3.9-1.6a12 12 0 0 0-6.4 3.3l-6.8 5.9.1-.2-3 2.4c-2.5 2.3-5.3 4.1-8.3 5.5a24.4 24.4 0 0 1-21.7.3c-11.2-5.1-22.9-9-35-11.6Zm81-44.9-6 4.2a79.6 79.6 0 0 0-6.6 5.2 5.4 5.4 0 0 0-.7 2.2l.2 1.2.4 1c0 .2.2.4.3.5l1 1c.4.3.9.5 1.4.6a6.8 6.8 0 0 0 2.4 0l1-.5 6-4.1a142.8 142.8 0 0 0 17.7-14.3 57.8 57.8 0 0 0 9.5-11.5c.2-.5.2-1 .2-1.6 0-.8-.3-1.6-.8-2.3a4.6 4.6 0 0 0-2-1.6 68.2 68.2 0 0 0-2.3-.3 9.1 9.1 0 0 0-2.1.9c-.7.6-1.3 1.4-1.9 2.2-2.3 3.1-4.8 6-7.6 8.6-2.9 2.7-5.8 5.3-9 7.7a226324056615.5 226324056615.5 0 0 0-1.2 1Zm-35.6 3.2c-.1-1-.6-1.5-1.5-1.7a271.3 271.3 0 0 1-46.3-18 28.9 28.9 0 0 0-28 2.5c-.9.7-1.6 1.4-2.1 2.4a48.1 48.1 0 0 0-6.2 31.1c.5 3.4 2.4 4.7 5.8 4 1-.1 1.5-.6 1.8-1.5 1-3.4 1.4-7 1.4-10.7 0-5.7.9-11.3 2.8-16.6 3-1.9 6.1-3.4 9.4-4.6a13 13 0 0 1 11 .7c5.6 3 11.1 6 16.7 8.8 9.4 5 19.4 8 30 9 4 .4 5.8-1.4 5.2-5.4Zm34.5-69a4.3 4.3 0 0 0-3 3.7v.9a4 4 0 0 0 1 2.4 4 4 0 0 0 2.2 1.3c.7.2 1.4.2 2.1 0 1-.1 1.9-.6 2.5-1.5a5 5 0 0 0 1-2.5 4 4 0 0 0-.4-2.2c-1.2-2.2-3-2.9-5.4-2.2ZM247.5 756.4c-.4-2-1.1-3.4-2.2-4-1.1-.5-2.6-.3-4.5.6-1 .5-1.4 1.2-1.3 2.3 1 11 3.2 21.8 6.5 32.5.6 2.2 1.6 4.2 3 6a1631.3 1631.3 0 0 1 25.8 34.9 7.1 7.1 0 0 0 2 .6h1l.6-.1c.2 0 .4 0 .6-.2l.5-.2c.8-.5 1.4-1.2 1.8-2.1.4-1 .3-2-.2-2.9-3.7-5.9-7.6-11.7-11.5-17.4-4.1-5.8-8.5-11.3-13.3-16.6-3.8-10.9-6.8-22-8.8-33.4Zm-16.1-52c.5-4-.6-6.3-3.5-6.8h-2.3c-1 .1-1.5.6-1.8 1.5-1.7 6-2.5 12.3-2.1 18.7a29 29 0 0 0 20.7 28l4.4 1.4c10.4 3 21.1 4.3 32.1 3.6 5.2-.4 10.5-.4 15.8 0a38.6 38.6 0 0 0 33.6-15.4h.1l1-1.6.2-.5v-.6l.1-.6v-.5a4.2 4.2 0 0 0-2-3.3c-.7-.4-1.5-.7-2.4-.7-.9 0-1.6.3-2.4.7a221 221 0 0 1-5.6 6.3c-3.6 3.8-8 6-13.2 6.3a648 648 0 0 1-29.6 1.3 79.4 79.4 0 0 1-34.7-7.2 4030 4030 0 0 0-4.8-4.4c-.7-.8-1.3-1.6-1.8-2.5-2.4-7.8-3-15.7-1.8-23.8Zm8.9-9.1c10.7-2.3 20.8-6.3 30.4-11.9a31.4 31.4 0 0 1 32.6-.3l.4.2.5.2a5 5 0 0 0 2 .2c.6-.1 1.2-.3 1.7-.7.5-.3.8-.6 1.1-1 1.1-1.4 1.1-3 .1-4.4a15.1 15.1 0 0 0-7.8-5.7 39.3 39.3 0 0 0-35.5 4.2 73 73 0 0 1-35.4 11.5c-1.2 0-2.3-.2-3.3-.8a58 58 0 0 1-20-20.7 4.1 4.1 0 0 0-1.8-.9 6 6 0 0 0-1.2-.2h-.5l-.6.2c-.2 0-.4 0-.6.2l-.5.2a11.6 11.6 0 0 0-1.1 1l-.3.4-.3.3-.2.5a4 4 0 0 0-.3 1.1v.6c0 .6.1 1.1.4 1.6.6 1.5 1.5 2.9 2.5 4.1l3 3.8-.2-.4 2 2.8c2.6 3.5 5.5 6.7 8.7 9.7a20 20 0 0 0 11.8 5.4c4.2 0 8.3-.3 12.4-1.2Zm-78.4-101.6v.3-.5.2Zm80.8 31-.5.2-.5.4a129.3 129.3 0 0 0-.8.7c-.6.8-1 1.7-1 2.8a4.7 4.7 0 0 0 3.5 4.3c3.4-.3 6.7-.9 10-1.8 10-3 20-6.3 29.8-10.3 12-4.8 22.5-3 31.6 5.4.4.8.9 1.6 1.2 2.5 1 1.9 1.6 3.9 2 6 .5 2.2.8 4.5.9 6.7.5 3.4 2.4 4.7 5.8 4 1-.2 1.7-.8 2-1.9a25.6 25.6 0 0 0-.6-14.1c-2-6.8-6.3-11.9-12.6-15.1a40 40 0 0 0-35.7-.8c-11.3 5-23 8.6-35.1 11Zm-25.8 8.6-.6-.7-.8-.6-3.4-1.2a40.8 40.8 0 0 1-9-4.4 83.2 83.2 0 0 1-17.7-15.6c-2.6-3-5.4-3.4-8.3-1.1-1 .7-1.4 1.7-1 3 .7 3 2.4 5.6 4.9 7.9a98.1 98.1 0 0 0 31.8 19.7h1.7l.6-.2.5-.3.4-.3.7-.7.6-.8c.3-.4.4-.9.5-1.4a3.1 3.1 0 0 0 0-1.2 19.6 19.6 0 0 0-.3-1.2l-.6-.9Zm-15-73.7c0 1.7 1 2.8 2.5 3.5 3.5 1.4 5.6.2 6.1-3.6.2-1.1-.2-2-1-2.6-3.9-2.7-6.4-1.8-7.6 2.7ZM115 498c.5-.8.9-1.7 1.2-2.5-.2-3.2-1.8-4.7-5-4.7-.6 0-1 .3-1.4.7-2.7 3.7-5.6 7.2-8.8 10.6-6 6.5-12.6 12.4-19.6 17.8-3.5 2.7-4.3 5.7-2.3 9.2 2 1.6 3.9 1.6 5.7 0 5.8-5.2 11.7-10.3 17.7-15.3 5.4-4.5 9.6-9.8 12.5-15.8Zm24.4-134.3c-.2-.4-.5-.8-1-1.1a4.8 4.8 0 0 0-4.2-.9c-1.5.7-2.9 1.8-4 3.3a42.4 42.4 0 0 0-7.5 16.2 203 203 0 0 0-3.3 20.5 3.1 3.1 0 0 0 .4 1.1l.3.5 1 1 1.4.6h.6a3.1 3.1 0 0 0 1.1 0 19 19 0 0 1 1.2-.2 12.8 12.8 0 0 0 1.6-1.2l.6-.8c.5-1.6.9-3.3 1.1-5 .7-5.3 1.7-10.5 3-15.8 1.2-5.2 3.7-9.6 7.5-13.3l.2-.4a9 9 0 0 0 .6-2.2c0-.4 0-.8-.2-1.2 0-.4-.2-.7-.4-1Zm56.8 40.1c1-1.5 2.2-2.8 3.5-4 2.8-2.4 3.5-5.1 2-8.2-.5-1.3-1.5-2-3-1.8-3.2.4-5.7 2-7.5 5a276.5 276.5 0 0 1-21.6 29.7c-8.3 10-16.1 20.4-23.3 31.3l-.1 1c-.1.9 0 1.7.5 2.4.4.8 1 1.4 1.6 1.8l.6.2.6.2.5.2 1.2-.1 1-.2c7-9.2 14.2-18.3 21.6-27.4 8-9.6 15.5-19.6 22.4-30Zm140.4 28.4a2.7 2.7 0 0 0-2-2.5c-4.2-1.5-6.3.1-6 4.7.5 12.4.5 24.8-.1 37.1-.6 12.5-.5 24.9.4 37.3 0 .6.2 1.2.5 1.8 1 2 2.6 2.7 4.8 2 3-.8 4.4-3 4-6.3a260.6 260.6 0 0 1-.8-37.3 283 283 0 0 0-.8-36.8ZM461.8 391l-.5-.2c-.7 0-1.3 0-2 .2-.7.1-1.2.4-1.7.8-.5.5-1 1-1.2 1.7l-.2.6a22.8 22.8 0 0 0-.2 1.1v.7l.2.5.2.6.2.5.4.5c7 7.1 13 15.2 17.8 24.1 2 3.6 4 7 6.3 10.4a323.4 323.4 0 0 0 19.7 26l.2.5.6.7a3.8 3.8 0 0 0 2.4 1.4h1.5a3 3 0 0 0 2.5-1.7c1.7-3.3 1-6.4-1.8-9.4-8.8-9-16-18.9-21.9-29.9a107.2 107.2 0 0 0-22.5-29.1Zm-24-68.2-.2-.2h-.3c.2 0 .3 0 .5.2ZM372 16.4c-6.4-1-12.8-2.2-19.2-3.5-6.4-1.3-12.8-2-19.4-1.9l-11 .3c-6.5.4-12.9 1.2-19.2 2.5h-.3l-14.5 1.8a98 98 0 0 1-7.3.6 227 227 0 0 0-31 3.4 6 6 0 0 1-2 0c-3.6-.7-6.8 0-9.7 2a73.3 73.3 0 0 0-20 20c-3.5 5.5-6.7 11.1-9.5 17a41 41 0 0 0-2 5 105.7 105.7 0 0 0-4.1 33.6 56.4 56.4 0 0 0 4.8 16.8v-.1l.2.4.1.3.7 1.4a63 63 0 0 0 4.2 7.6l-2.7.5c-6.6 2-11.1 6.3-13.4 12.9a37.2 37.2 0 0 0-1.5 19.3 55.3 55.3 0 0 0 6.9 18.4c3.4 6 8.3 9.8 14.9 11.7 2.8.7 5.5.5 8-.6l.3 5c.2 5.6.7 11.2 1.5 16.8v.3a9 9 0 0 1-.1 2c-.1.7 0 1.4.3 2.2.2.6.6 1.1 1.1 1.5l2 5.9a69 69 0 0 0 2.2 6.5c2.2 5.2 4.7 10.2 7.3 15.2l9 16.2a18 18 0 0 0 3.5 4.2c-1.1 1.3-1.4 2.9-.8 4.9-.2 3.8-.3 7.7-.3 11.5v.4l-1.2 9c-.3 2.6-1.2 4.8-2.8 6.4a59.3 59.3 0 0 1-3.7 3.1 9.2 9.2 0 0 0-.9.4 30.5 30.5 0 0 0-3.4 1.5l-4.6 2.6c-4.3 2.7-8.7 5-13.2 7-11.4 5-22.4 10.8-33 17.3l-33 20.5c-2.6-.5-5.3-.6-8-.4-12.5 1-24.4 4-35.8 9.2-7 3.1-13.6 6.9-20 11.2a97.8 97.8 0 0 0-25.8 26.3l-5.4 8.5a123.1 123.1 0 0 0-14 31.4c-3.5 11.8-6 23.9-7.3 36.2a336 336 0 0 0-1.9 36.7c0 11.8.9 23.5 2.6 35.2l-1.9 3.7c-3.3 6.6-6 13.4-8 20.5-3.3 12-5.5 24-6.8 36.3a189.3 189.3 0 0 0-.1 37c1 12 2 24.2 2.6 36.5-3.9 7-7 14.6-9 22.7A530.6 530.6 0 0 0 8 732.9a286 286 0 0 0-4.8 37c-.6 10.8-1.2 21.5-1.6 32.2a647.8 647.8 0 0 0 1.3 74.8c1 12.2 1.7 24.4 2 36.6a2479.8 2479.8 0 0 0 2.7 74.1 954.6 954.6 0 0 1 1.3 39.9v.2c.7 3.6 2.8 4.8 6.3 3.8 1-.4 1.6-1 1.7-2.2l.1-1c.8-11.3 1-22.8.4-34.3a3231.7 3231.7 0 0 1-2.5-56.4l-1.5-37.3c-.5-11.6-1.2-23.2-2-34.8a519 519 0 0 1-1.1-61.7c.5-12.2 1.2-24.3 2-36.5a265 265 0 0 1 5-36.6c1.4-6.5 2.8-13 4.4-19.4 3-12.3 7.2-24 12.8-35.1.3-.8.4-1.6.3-2.4a4.1 4.1 0 0 0-1.3-2.5c.4-7.1 0-14.3-.9-21.6-1.6-12.5-2.2-25-1.7-37.5.4-12.3 2-24.5 4.8-36.5A134 134 0 0 1 48.4 542v-1.2l-.1-.6-.2-.4-.1-.4-1.5-17a271.5 271.5 0 0 1-.8-37.2c.6-12.5 2.2-24.8 4.9-37 1.6-7.3 3.8-14.4 6.8-21.3 4.8-11.3 10.7-22 17.7-32.1 3.6-5.1 7.6-9.7 12.2-14a99.2 99.2 0 0 1 46-23.8 83.5 83.5 0 0 1 21.7-1.4c3.2.2 5.3-.8 6.2-3 6.8-3.7 13.5-7.8 19.9-12.3a192.7 192.7 0 0 1 32.9-18.6 336 336 0 0 0 30-15.1l-.2-.2a26.2 26.2 0 0 1 1.3-.6h-.1a24.2 24.2 0 0 0 2.8-1.3 22.5 22.5 0 0 0 1.8-.9l.4-.2a12.1 12.1 0 0 0 .8-.6l.4-.3a4 4 0 0 0 1.7-2 31 31 0 0 0 3.7-5.4l.1.4a32.3 32.3 0 0 0 1.7-5A91 91 0 0 0 260 268l.1-1.3a29.5 29.5 0 0 0 7.5 1.8h-.1c6 1.8 12.2 3.4 18.4 4.5 3.3.6 6.6 1.3 9.8 2.2 6.3 1.8 12.6 3.3 19 4.6 5-.2 10-.8 14.9-1.8a29 29 0 0 0 7-2.5c6-3 12-6.3 17.8-9.8a488 488 0 0 1 17.7-10c3.4-2 6.7-3.9 10-6v.3l.5 5.9c.4 6.5 1.3 13 2.6 19.3a52.6 52.6 0 0 0 10.2 22.1c.5 1 1.1 1.8 1.9 2.6a572.5 572.5 0 0 0 4.9 4.7l1.7 1.4a42.6 42.6 0 0 0 7.3 4.4 114.4 114.4 0 0 1 11.8 4.8 431.2 431.2 0 0 0 14.8 7.1c10 4.8 19.8 10 29.4 15.5 3.3 1.8 6.4 4 9.4 6.2a284.4 284.4 0 0 0 30.4 20.8l.5.3.6.1.5.2h1.1l.5-.2c1 .4 2 .5 3.2.5 1.6 0 3.1.2 4.6.5 9.8 1.8 19 4 27.7 6.8 6 2 11.9 4.5 17.5 7.5 11 6.1 20.4 14.3 28 24.5 7 9.6 12.9 19.9 17.5 30.9 1.3 3.1 2.2 6.3 2.6 9.6a361.7 361.7 0 0 1 1.5 77.6l-.2 1.3-.7 6c-.3 2-.6 4-.7 6 0 1 .3 1.8 1 2.5l.3.3.6 1.7A749.2 749.2 0 0 1 618 551c2.4 5.6 4.4 11.4 5.9 17.3 3 12 4.8 24.1 5.2 36.5.2 6.3.2 12.6.1 18.9l-.3 36.9a399.4 399.4 0 0 1-1.7 32.5l-.3.4-.2.5-.2.6c-.2 1-.1 2 .3 2.9 2 4.8 3.8 9.7 5.5 14.6a373 373 0 0 0 6.3 16.7 194 194 0 0 1 9.3 34.6c2 11.7 3.1 23.4 3.3 35.2.1 13.1 0 26.3-.4 39.5a300.7 300.7 0 0 1-3.6 38 441 441 0 0 0-5 35.3c-1 9.2-1.4 18.4-1.1 27.7.3 12.4.8 24.9 1.4 37.3.4 6.2 1.3 12.4 3 18.4a46.7 46.7 0 0 1-3.2 32.7l-.3.4-.2.3v.2a2 2 0 0 0-.3.5 10 10 0 0 0-.3 1.5v.5a4 4 0 0 0 1.2 2.5c.6.7 1.4 1.1 2.3 1.4 1.4.2 2.6 0 3.8-.8 5.7-8.1 8-17.1 7-27.1l-2.2-18.5a627.3 627.3 0 0 1-3.5-36.4c-.8-12.7-.5-25.1.8-37.4a549.5 549.5 0 0 1 5.5-38c1.7-10.8 2.8-21.7 3.4-32.6.5-13.1.7-26.3.5-39.4a328 328 0 0 0-2.6-36.7 170.3 170.3 0 0 0-8.8-36.5l-12.7-34.4c.3-1 .5-1.8.5-2.8.1-4.4.4-8.9.7-13.3.5-3.9.8-7.7.9-11.6 0-10.2.2-20.3.6-30.5.5-12.7.3-25.3-.5-38-.8-12-2.8-23.8-6.3-35.3-3-10.5-6.7-20.8-11-30.7l.2-.8c1.5-12 2.3-24.2 2.2-36.4 0-12.7-.4-25.4-1-38a108.4 108.4 0 0 0-15.3-48.5 115.7 115.7 0 0 0-24.3-28.7 71 71 0 0 0-15.4-10 219 219 0 0 0-33.6-12.5 91.7 91.7 0 0 0-14.4-2.8 27 27 0 0 1-4.6-1 9 9 0 0 0-4.6-.3l-1.6-1a48.2 48.2 0 0 1-6.7-4.2 405.6 405.6 0 0 0-50.6-31.5c-2.8-1.4-5.6-3-8.3-4.5-9.6-5.4-19.5-9.8-29.8-13.4a55 55 0 0 0-2.5-1.4l-1.4-1.1-2.1-2-1.2-1.1h.1a21.5 21.5 0 0 1-2.5-2.9 6 6 0 0 0-1.6-1.7l-1.5-2.3a51 51 0 0 1-7-18.6l-.3-1.5-.2-2.1-.8-9.3c-.3-3.4-.7-6.7-1.2-10v-.3c0-1.2-.4-2.2-1-3l.7-1c3.3-5 6-10.3 8-16l.1-.4v.2-.3c1.7-4 3.2-8.2 4.8-12.3 1.2-3 2.5-6.2 3.9-9.2a69.7 69.7 0 0 0 5.6-19.6c2.2 1.6 5 2.5 8 2.9 1 0 1.8 0 2.6-.2 4.2-.6 8-2.3 11.2-5.1 3.1-2.8 5.5-6.2 7-10a21 21 0 0 0 1.4-4.2 83.8 83.8 0 0 0 2.2-20.2c-.1-6.5-1.7-12.7-4.8-18.5a14.4 14.4 0 0 0-6.3-6.2c-4.7-2.5-9.2-3-13.7-1.6l.6-2.1c1-3.2 2-6.3 2.8-9.5a97 97 0 0 0 3.1-19c.4-7-.4-13.6-2.5-20.1a305.6 305.6 0 0 0-9.8-26.5 27.5 27.5 0 0 0-8-10.3 51 51 0 0 0-12.7-7.3c-.9-.5-1.7-1.1-2.4-1.9-2.8-2.8-6-5-9.8-6.4a44.8 44.8 0 0 0-9.8-2.8Zm-39.7 3.7c7-.2 14 .4 20.7 2 2.6.5 5.2 1 7.8 1.2 6.4.4 12.6 2 18.5 4.6h-.2l.6.3 3 1.8a75.2 75.2 0 0 0 14 8.7c1.9.7 3.4 1.8 4.7 3.3 3.6 4.1 6.4 8.8 8.5 14l3.3 9.3a98.6 98.6 0 0 1 4.2 16.2c1.1 6.4 1 12.8-.3 19.2a73.3 73.3 0 0 1-3 10.9l-.5-4.2a20 20 0 0 0-5.8-12.2c-4.4-4.5-9-8.7-14-12.6-3.3-2.7-5.7-6-7.3-10-2-4.7-5.3-7.8-10-9.2a95 95 0 0 0-17.8-3 172 172 0 0 0-10.7-.5c-6 0-11.7-.6-17.4-1.8a56.3 56.3 0 0 0-31.8-4c-6 1.2-12 1.6-18.1 1.1-6.7-.5-13.4-.6-20-.2-3.5.2-6.9 1-10 2.5-2.3 1-4 2.5-5.4 4.5a479.8 479.8 0 0 1-10.3 14.6l.2-.3c-.9.8-1.6 1.7-2 2.8-1 2-1.9 4-2.6 6l-1.9 4.7-.4.9-1 3-1.8 6.2a47.6 47.6 0 0 1-4.4 10.2c-.9 2-1.6 4-2.2 6.1a166.6 166.6 0 0 1-4-7.9c-.9-1.8-1.5-3.7-2-5.7a81 81 0 0 0-1.5-5.4V93c.1-5 .6-10 1.6-15 .9-5 2-9.7 3.5-14.5 1-3 2.4-5.8 4-8.5 2.3-3.8 4.7-7.5 7.3-11.1A57 57 0 0 1 244 28.4c1.3.3 2.5.4 3.7.3 3-.2 6-.5 9-1.1a123.2 123.2 0 0 1 24.1-2.5l13.4-1.2a2647 2647 0 0 1 18.5-2.5c6.5-.7 13-1.1 19.5-1.3Zm-21.9 42c2.8.3 5.4.9 8 1.7 6.1 2 12.3 3.5 18.6 4.5 6.4 1 12.8 1.1 19.2.6 1 0 1.9.2 2.9.3l6.7 1.1a108.6 108.6 0 0 0 7.7 1.4l1 .3.4.1c.2 0 .2.1.3.2l.3.2.3.2.2.2c1.3 2 2.5 4.2 3.7 6.4 2.3 4.3 5.5 8 9.3 11a249.3 249.3 0 0 1 13 11.4l1.1 1.5.8 1.6.5 3.1a40.9 40.9 0 0 1 1.2 7 77 77 0 0 1 1.4 12.7l.5 19.5c0 6.5-.3 13-1.1 19.5l-1.2 11.7c-.6 6.6-2.1 13-4.7 19.1-2.4 6-4.8 12.1-7 18.3-2.4 6.3-4.8 12.3-7.3 17.9-.7 1.6-1.6 3-2.9 4-2.9 2.8-6.1 5.2-9.7 7.1l-17.1 9.5a370 370 0 0 0-17 10c-1.5 1-3 1.7-4.5 2.4-6 2.5-12.3 4-19 4.4-3-.4-6-1.1-9-2-6.2-2-12.5-3.6-19-4.8a216.5 216.5 0 0 1-23.6-5.5c-1.8-.5-3.4-1.3-4.8-2.4a23.5 23.5 0 0 1-6.7-8.6 232 232 0 0 0-8-15.7 169.7 169.7 0 0 1-9.2-23.8l-.1-1.6a35 35 0 0 1-.5-3.9c0-1.4-.2-2.8-.5-4.2v-2.2l-.1-3.8c-.1-1.4-.4-2.9-.7-4.3v-1.1c.1-3.6-.1-7.2-.6-10.8a38526.9 38526.9 0 0 1-2-12.5 632 632 0 0 0-3.7-18.6 68.4 68.4 0 0 1-1.3-19.4c.5-6.3 2.3-12.1 5.6-17.5l.8-2 1.9-6.3c.6-2.3 1.4-4.6 2.4-6.9l-.1.4.6-1.4 1.4-3.7 1.3-3.7.1-.2.2-.6.2-.5 1.7-1.7c1.3-1.7 2.6-3.3 3.7-5a116.9 116.9 0 0 1 5.9-8.2 56 56 0 0 1 2.8-3.4l2.4-.5 4.6-.5 5.2-.5 1.3.2 5 .4c5.3.3 10.7.5 16 .3a64 64 0 0 0 15.5-2.4h5.7Zm64.4 9.9-.2-.1-.2-.2.3.2h.1Zm-161.8 60.4h1.7l1.7.6.9.8c.1 3.6.5 7.1 1.1 10.7l3.9 18.9v-.1a485 485 0 0 1 1.8 12l-1 1.1c-.2.3-.6.5-1 .7a6.7 6.7 0 0 1-2.3.8c-4.1-1-7.3-3.2-9.7-6.8-2-2.9-3.5-6-4.6-9.2a34.2 34.2 0 0 1-.6-21.8l.4-1c.4-1 1-1.8 1.5-2.6l2-2.3 1-.5.7-.5.8-.5 1.7-.3ZM257.6 255v.2-.2Zm169.7-124.4c1.1.2 2.1.5 3.1 1 2.1 2.6 3.6 5.5 4.3 8.8 1.7 7.2 2 14.5.8 22a27 27 0 0 1-3.5 9.9c-3 4.8-7 7.1-12.5 6.9-2-1.5-3.4-3.4-4.5-5.6l-.5-1 .9-6.8c.7-6.5 1-13.1.9-19.7l-.3-8.7c.4-.5.7-1.1 1-1.9l.6-.8c.5-.7 1.1-1.4 1.8-2l1.9-1.4.5-.1.5-.3.6-.2c.4 0 .8 0 1.3-.2 1-.1 2-.1 3 .1Zm12.6 183.6-.2-.1-.2-.2.4.3ZM429 155c.7-4 .7-8-.1-12a3 3 0 0 0-1.5-2.1c-2-1.2-3.5-.8-4.8 1.1-.3.4-.3.8-.3 1.3.3 2 .4 4.1.3 6.2a63.7 63.7 0 0 1-2.2 14.4c.2.7.4 1.2 1 1.7.4.5 1 .8 1.8.8 2.4 0 3.8-1.2 4.4-3.7l1.4-7.7Zm-218.9-10.5-.8.7a9.4 9.4 0 0 0-1.5 5.4 35.7 35.7 0 0 0 2.6 12.6 5.2 5.2 0 0 0 3 3.5c1.8.3 3-.3 3.9-1.9.3-.5.3-1 .2-1.5-.4-1.7-.9-3.2-1.5-4.8a19.6 19.6 0 0 1-1-10c.1-.7 0-1.4-.3-2-1-2.2-2.4-2.8-4.6-2Zm4.9 10.3v.1-.3.2Zm139.3 64.5c0-1.2-.5-2.2-1.5-3-2.2-1.7-4.3-1.5-6.2.4l-1.3 1.3a16 16 0 0 1-6.2 3.7c-3 1-6.2 1.6-9.3 2h.2l-6.4.8-5 .6a22 22 0 0 1-5.6 0c-3-.4-5.9-1-8.8-1.5-3.5-.7-6.5-2.2-9-4.6-.4-.3-.6-.6-.8-1a5.6 5.6 0 0 0-4.8-3.6c-1 0-1.9.3-2.6.9-2.2 1.8-2.5 4-1 6.5 2 3 4.4 5.3 7.4 7 3 1.6 6.1 2.8 9.4 3.6 3.4.7 6.7 1.3 10 1.7h3l7.8-.7c2.3-.2 4.7-.5 7-1v.1h.8l.3-.1c3-.4 6-1 9-1.9 4.4-1.2 8.3-3.4 11.6-6.6 1.3-1.3 2-2.8 2-4.6Zm-35.4-48.8a4 4 0 0 0 .4-4c-1-2.3-2.6-3.1-5-2.7-.5.1-.9.3-1.2.6-2 1.8-3.5 4-4.5 6.7a26.9 26.9 0 0 0-.6 15c.4 1.7 1 3.3 2 4.7.7 1.5 1.8 2.7 3.3 3.6 2.9 1.9 6 2.8 9.6 2.8 3.4 0 6.4-1.1 9-3.4a6 6 0 0 0 2.3-4.6c0-1.2-.5-2.2-1.4-3-2-1.7-4-1.7-6.1 0l-.6.7a7 7 0 0 1-2.3 1.4h-.9c-.8 0-1.7 0-2.5-.2-.8-.3-1.5-.6-2.1-1a52.5 52.5 0 0 1-1.7-3.1 15.7 15.7 0 0 1 2.3-13.5Zm-2.2 14.2.2.4a46.7 46.7 0 0 0-.5-1l.1.1.2.5Zm54.5-35.8h-.1l-.3.2h.2l.2-.2Zm5.6-6c.5-.6.8-1.3.9-2 .3-3-.8-5.4-3.6-7l-1-.6c-2.5-1.9-5.2-3.3-8.3-4.2a48.4 48.4 0 0 1-6.3-2.1 29 29 0 0 0-9.7-2.1c-3.4-.1-6.7.4-9.8 1.6-3 1.2-5.8 2.6-8.5 4.3l-.6.4a4 4 0 0 0-1.3 1.2l-.8 1.5a4.6 4.6 0 0 0-2.7 3.4c0 .5 0 1 .2 1.5 1 2.7 2.5 5.2 4.4 7.5a20.8 20.8 0 0 0 8.6 6.2 32.5 32.5 0 0 0 2 .9l-.4-.1a26.5 26.5 0 0 0 5 1.6 37 37 0 0 0 9 .5c1.6-.1 3.1-.4 4.6-.8a50.6 50.6 0 0 0 11.4-5c2.7-1.9 5-4 7-6.6Zm-32.5-8.7-.1.7a26.3 26.3 0 0 0 1 10.8 17 17 0 0 1-2.3-.8l-1.5-.7c-1-.5-2.1-1.2-3-2-1.1-.8-2-1.7-2.6-2.8v-1l.3-.6a37.3 37.3 0 0 1 8.2-3.6Zm20 4.2 1.5.7 1.2.8h.1l.2.2v.2a10.2 10.2 0 0 1-1.7 1.8l-.4.2h.1l-2.2 1.2-3 1.4c-1.3.5-2.6 1-4 1.3l.6-2.2c.4-3 .2-5.7-.6-8.3l7.9 2.6-.2-.1.5.2Zm-90-13.5h-.2l-4.7 1c-3.4.7-6.4 2-9.3 4l-4 2.8c-1.2.8-2.2 2-3 3.3-.7 1.2-1 2.3-.8 3.3v.1c-.2 1 0 1.8.4 2.5 1.3 2 2.7 3.7 4.4 5.2a42 42 0 0 0 8.3 5.9c3 1.7 6.4 2.5 9.9 2.4 2.3.2 4.5 0 6.7-.4 2-.4 4-.8 6-1.4a29 29 0 0 0 9.3-4.1c2.8-2 4.7-4.5 5.8-7.7l.4-.6c.4-.5.7-1 .8-1.6.6-1 .8-2.1.5-3.5 0-.4-.2-.8-.4-1-1.6-2-3.6-3.7-5.9-5l.1.2-.2-.1h.1l-.1-.1c-1-.7-2-1.4-3.2-2-3-1.4-6.3-2.5-9.6-3.1-3.8-.8-7.5-.8-11.3-.1Zm9.3 9.5c0-.3-.2-.5-.3-.7l1 .1a26.7 26.7 0 0 1 10.6 4.6c-.5.8-1 1.7-1.2 2.6-1.9 1.8-4.1 3-6.7 3.6a21 21 0 0 0-3 1l.3-1c.5-3.5.3-7-.7-10.2Zm-11.3-.1-.5 1.9a27.6 27.6 0 0 0 .4 10l-.3-.1c-2.3-.7-4.3-1.8-6.2-3.3a33.6 33.6 0 0 1-3.4-3.5l.3-.2a25 25 0 0 1 9.7-4.8Zm11.5-31.8a33.4 33.4 0 0 0-13-1l-.7.1c-2.4.3-4.7.8-7 1.5-3.3 1-6.2 2.8-8.4 5.4a65.6 65.6 0 0 0-7.3 10.1 26.7 26.7 0 0 0-2.7 3.9c-.6.8-.8 1.8-.7 2.8.1 1 .5 2 1.2 2.7.4.4 1 .7 1.5 1a4 4 0 0 0 4.3-.7 11 11 0 0 0 2.8-3.3l1.3-2.2a76.6 76.6 0 0 1 7.2-9.4c2.7-1.6 5.7-2.6 8.9-3h.4l.5-.1c1.4-.1 2.8-.2 4.1 0 2.9.2 5.6.8 8.3 1.7l.6.2 3.5 1.5a27 27 0 0 1 3.8 2.1l4.9 3.7c1 .7 2.1 1 3.3.6 2.8-.8 4-2.6 3.5-5.4l-.2-.6c-.4-1-1-1.7-1.8-2.2a50 50 0 0 1-2.3-1.6l-.5-.4-.4-.3a5 5 0 0 0-.7-.5l-.2-.2h-.1a53.3 53.3 0 0 0-14-6.4Zm63.3.3c-3.4.2-6.7.8-10 1.7-3.3 1-6.3 2.6-8.9 4.9-2.5 2.3-4.6 5-6 8.1-1.3 2.4-.8 4.4 1.4 6 1.6.9 3.2.8 4.7-.1l1-1a27.4 27.4 0 0 1 5.8-7.2 15.5 15.5 0 0 1 7.5-2.8l.6-.1 2.2-.4a50.6 50.6 0 0 1 20.3 2.8h.1a4 4 0 0 1 .2.1c2.5 1.1 4.8 2.6 6.7 4.4a12 12 0 0 1 1.7 2c1 1.2 2.1 2 3.6 2.1 2.4.3 4-.7 4.8-3 .3-.8.3-1.6 0-2.5a12 12 0 0 0-2.8-4 34.5 34.5 0 0 0-17.9-9.5 77.4 77.4 0 0 0-15-1.5Zm63.1-45.4c0-.1 0-.1 0 0Zm101.4 973.4c.2-.8.2-1.6.3-2.5h-8.3v.8c.7 3.6 2.8 4.8 6.3 3.8 1-.3 1.6-1 1.7-2Zm54.5-2.5h-9.6c0 .6.2 1.1.5 1.6.6 1 1.4 1.6 2.5 2 1.2.3 2.3.3 3.5-.2 1.2-1 2.3-2 3.1-3.4Zm-431.3 0h-7.6c.8 3 2.8 4.2 6 3.2.6-.2 1-.5 1.1-1l.5-2.2ZM447.2 857h-.1ZM91.8 1031.2l.4.3 1.4.5c.5.1 1 .2 1.5 0 .8 0 1.5-.3 2.2-.8.6-.4 1-1 1.3-1.6.2-.4.2-.8.2-1.3h-9.1a78.2 78.2 0 0 0 2 2.9ZM121 823.5l-.1.4.1-.6v.2ZM95.4 963.2v-.5.5Zm235.9-419v-.7c-.2-1.2-.8-2-1.9-2.3-4.6-1.6-7 .3-6.8 5.6 0 2.8-.8 5.3-2.3 7.6-3 4.2-6.7 7.8-11 11-7.9 5.9-16 11.4-24.5 16.6A64.1 64.1 0 0 1 235 589c-9.7-2.5-19.2-5.6-28.5-9.3-9.2-3.7-17.7-8.7-25.5-14.9a146.8 146.8 0 0 1-18.9-18c0-.3 0-.6-.2-1-.4-.5-1-1-1.7-1.3l-.5-.6a310.3 310.3 0 0 1-28.2-42.3c-2-3.4-4.4-3.7-7.1-1a3 3 0 0 0-1 1.3c0 .5 0 1 .2 1.6a73.8 73.8 0 0 0 9.7 19.2c2.2 3 4.3 6.1 6.3 9.2 4.5 7 9.5 13.7 15 20 .8 8.9.8 17.8 0 26.7A603.5 603.5 0 0 1 150 615a305.2 305.2 0 0 1-7.8 36c-3.4 12-7.1 23.9-11.1 35.7a220 220 0 0 1-15.5 35.6v1.3l.3 1a26.7 26.7 0 0 0 1.1 1.6l.7.5.1.5.3 5.2c.5 12.2.2 24.4-1 36.6-1 12.3-2 24.7-2.8 37l-.7 5.2a134 134 0 0 0-1.4 11.3c-.4 2-.8 4-1 6a464 464 0 0 1-6 36 1210 1210 0 0 0-7.8 40c-1.2 6.6-2.5 13.3-3.9 19.9a858.7 858.7 0 0 0-8.3 46c-1.7 9.8-2.7 20.2-3 30.9-.2 9.9 2.2 18.9 7.4 27h9c0-.2 0-.5-.2-.7a52 52 0 0 1-7.5-28.9c.2-6.1.7-12.3 1.5-18.5 1.6-12 3.8-23.8 6.5-35.6 2.7-12.3 5.1-24.5 7.1-37a816 816 0 0 1 6.6-35.4 702.5 702.5 0 0 0 11-72c1-13.4 2.3-26.6 3.5-39.9 1.3-12.8.7-25.5-1.7-37.9a129 129 0 0 0 7.4-15.5c3-7.6 6-15.4 8.6-23.1a50.9 50.9 0 0 1 3 4.3c1.4 2.2 2.5 4.6 3.3 7a259 259 0 0 1 6.8 24 606.5 606.5 0 0 0 6.8 25.6 48.7 48.7 0 0 0 2.9 39.3 21 21 0 0 0-3 6.2c-3.2 10.9-5 22-5.6 33.3-.5 10.1-.5 20.2 0 30.2a6.4 6.4 0 0 0-2.1 4.7c0 3-.4 6-1 9-.6 3.4-1 6.8-.8 10.2a359.6 359.6 0 0 1-3 20c-1.5.2-2.6 1.5-3.4 4 0 1.2.4 2.2 1.3 2.9l.9.6-2.2 12.3-7 36.6a609.8 609.8 0 0 0-6 36.6c-1.8 12.4-3.5 24.7-5.4 37l.2.8h7.6c2.7-11.1 4.8-22.4 6-34 1.5-12.2 3.4-24.4 5.8-36.5a5427.3 5427.3 0 0 0 9.6-51.2c4.3 2 8.7 3.7 13.1 5.1a211.7 211.7 0 0 0 73.6 9c12.3-.6 24.6-.6 37 0a879.9 879.9 0 0 0 55.6 1.6h37.3c1.8.2 3.5.2 5.3.2 12.3-.3 24.5-1 36.7-2.2 12.2-1.3 24.2-3.6 36-7 11.7-3.3 23.5-6.1 35.3-8.4l.2.6.7 1.8c.8 3.6 1.4 7.3 2 11 1.7 12.4 3.5 24.7 5.4 37a1226 1226 0 0 1 9.2 73h8.3a54 54 0 0 0-.2-11.6 2386.7 2386.7 0 0 1-3.3-26.1c-1.6-12.4-3.3-24.7-5.3-37a12613 12613 0 0 0-5.7-36.8 518 518 0 0 1-3.6-27.2 379.2 379.2 0 0 0-5.7-36.4c-.4-2-1.2-3.3-2.3-3.8l.2-.9c.4-5.6.3-11.4 0-17.2l-3.1-39.9c-.2-2.2.1-4.4.8-6.5 2.2-6 3.8-12.3 4.7-18.7a268 268 0 0 0 2.7-36.8l-.2-.5-.3-.6v-4.8c.5-2.6 1.5-5 2.8-7.1 4.2-7.1 8.2-14.4 12-21.8 3.4-6.4 6.2-13 8.6-19.7a99.1 99.1 0 0 0 16.6 35l-.5 2.1c-1 2.7-1.7 5.5-2 8.3-1.9 12.6-3 25.3-3.5 38-.4 12.3.2 24.7 2 37 1.8 12.1 4 24.2 6.4 36.2 2.6 13 6.8 25.5 12.6 37.5l-.2-.6c2 4.9 3.7 9.9 5 15a532 532 0 0 1 7.4 36.7c2 12.1 4.5 24.2 7.3 36.2 3 12.1 5 24.2 5.9 36.3a8 8 0 0 1-.5 3.5 263.2 263.2 0 0 1-12.6 28.2l-.7.8-.5 1a13.4 13.4 0 0 0-.3 1.5v.6h9.7a16 16 0 0 0 1.8-3.3 86 86 0 0 1 6.8-13.8c2.5-4 4-8.4 4.5-13 1-8.3.6-15.9-1-23-2.8-12.6-5.5-25.3-8.1-38-1.3-6.6-2.3-12.5-3-17.8l.1.7a31484.3 31484.3 0 0 0-5.8-29.7 128 128 0 0 0-10.3-30.9 202.2 202.2 0 0 1-11-36.1c-2.5-12-4.4-23.9-5.8-36a214 214 0 0 1 4.4-73.9l.6-.5c.4-.5.7-1.1.9-1.7.2-.9.2-1.7 0-2.5l-5.7-9c-6.3-10.7-11-22-14-34.1a823 823 0 0 1-8.1-36 327.6 327.6 0 0 1-5.3-37 112944.6 112944.6 0 0 0-3-38.1c4.6-4.9 8.8-10.1 12.5-15.9 6.2-9.6 11.5-19.7 15.7-30.4a38.8 38.8 0 0 0 3-14.7c0-3.7-1.8-5.2-5.5-4.5-1 .2-1.6.7-1.9 1.7-1 2.9-1.9 5.9-2.5 9-1 5-2.6 9.9-5 14.5a154.7 154.7 0 0 1-17.1 27.5l-1 1.4c-3 4.3-6.6 8-10.8 11.2a178.4 178.4 0 0 1-53.1 27.9 63 63 0 0 1-29.7 2.5l-2.5-.3c-7-.6-14-1.4-21-2.4a72 72 0 0 1-28-10.2 12 12 0 0 1-3.1-2.6c-5.3-6-8.7-13-10.2-21.2l-.7-3.3c-1.1-3.7-3.3-4.6-6.6-2.7a2 2 0 0 0-1.2 1.9 47 47 0 0 0 8.4 27.2 41 41 0 0 0 17 13c9.2 3.9 18.9 6.4 28.8 7.6 9.8 1.2 19.6 2 29.4 2.6 2 .2 4 .2 6 0a95 95 0 0 0 29.2-8.3l7-3.2c9-4.2 17.6-8.9 25.8-14.2 3.1-2 6.1-4.2 9-6.6 0 3.2.3 6.5.7 9.7 1.3 12.3 2.6 24.6 3.7 36.8a302.2 302.2 0 0 0 10.4 55.1 13 13 0 0 0-1.4.7c-.5.3-.8.8-1 1.3l-9 21.2c-2.1 5-4.8 9.8-8 14.3a57 57 0 0 0-10.5 32l.2.8c.1.5.3 1 .6 1.4v1.6c.1 6.6 0 13.3-.6 19.9-.5 6-1.6 12-3.4 17.8a21.2 21.2 0 0 0-3.4 11.3c0 9.7.2 19.5.9 29.3.7 10.6 1.7 21.2 3 31.7a6 6 0 0 0 1.3 2.9 559 559 0 0 0-16.8 4 157.5 157.5 0 0 1-16 3.1h-.4a455 455 0 0 1-14.2 2 52.4 52.4 0 0 1 8.2-15c6.2-8 12.8-15.9 19.7-23.4l.1-.6a550.2 550.2 0 0 0 .2-1.2v-.5l-.3-1c-.2-.7-.7-1.4-1.4-2a4 4 0 0 0-2.7-.9 5 5 0 0 0-2.4.6l-5.3 5.7a212.2 212.2 0 0 0-16.5 19.5c-4.5 6-7.3 12.6-8.6 19.8-9.2 1-18.5 1.8-27.8 2.4l-36 2.4c-12.8.8-25.5 1.8-38.2 2.9a365.2 365.2 0 0 1-42.8 1.1 720.2 720.2 0 0 1-50.2-3.4c-.4-2.5-1.1-4.9-2.1-7.3-3.9-9-8.7-17.7-14.4-25.9a72.3 72.3 0 0 0-19.3-19H191a5.6 5.6 0 0 0-2.5 1.1l-.9 1.1-.2.5-.2.6a19.6 19.6 0 0 0-.2 1.2v.6l.2.5a36.6 36.6 0 0 0 5.8 6.1c6.7 5.5 12.2 12 16.5 19.5 3.6 6.4 6.7 13 9 20l-15.1-1.9-9-1c-10.3-.8-20.2-3.2-29.7-7v-.8a357 357 0 0 1 .6-33.4c.6-10.3 2.7-20.4 6-30.4l.6-.2.5-.3a4.6 4.6 0 0 0 2-2.7c.3-.8.3-1.6 0-2.4l-2-4c-2.2-5-3.5-10-4-15.5a82.6 82.6 0 0 1 .4-16.6l.3-.5.2-.5.1-.5v-2.1l-.4-1.2c.4-2.5.3-5-.4-7.6-3.5-12-6.7-24-9.7-36.1a59.2 59.2 0 0 0-14-26l1.3-4a458 458 0 0 0 9.5-35 283.8 283.8 0 0 0 6.2-41l1.5-11.4c1-6.7 1.3-13.4 1-20 5 4.8 10.2 9.2 15.8 13.3 8 5.8 16.7 10.5 26 14l14.4 4.9c9.6 3 19.4 4.9 29.3 5.4 8.2 0 16.2-1.1 24.1-3.4 4.7-1.3 9.1-3.2 13.3-5.6 8.5-5 16.7-10.4 24.6-16.5 2.4-1.9 4.8-3.7 7.4-5.5 8.6-6 12.7-14.2 12.1-24.7Zm100.2 324h.2l2.1-.3 6.7-1 7-1 .3-.1 7.4-1.1c4.3-.7 8.6-1.6 12.7-2.7a148.7 148.7 0 0 1 12.7-2.8c.2 2.2.4 4.3.8 6.5 1.6 10 3 20.2 4.2 30.4a307 307 0 0 0-33.1 7.9 208.3 208.3 0 0 1-37.3 7.5 380.6 380.6 0 0 1-43.1 2.2 4129.7 4129.7 0 0 1-62.4-.7c-12.2-.3-24.4-.7-36.5-1.2a515 515 0 0 0-37.9 0c-12.4.4-24.8-.5-37-2.6a205.5 205.5 0 0 1-40.6-11.6c.7-4.1 1.3-8.3 1.8-12.5l.4-2.3c.2-1.3.4-2.7.4-4.1 0-3 .5-6.1 1.1-9.1.3-1.5.6-3 .7-4.6.1 0 .3 0 .4-.2l.4-.3.4-.3c4.7 1.8 9.6 3.1 14.6 3.8 11.6 1.8 23.6 3.4 36 4.8 12.4 1.6 24.7 2.8 37 3.7 12.3.9 24.7 1.3 37 1.2 11.5.2 23-.2 34.5-1.2 12.3-1 24.6-2 36.9-2.8l37.5-2.5a846 846 0 0 0 34.7-3ZM156.6 907l-.4-.2.4.2Zm93.9-646.6c-.2-.1-.3-.3-.3-.4v.1l.3.3ZM655.3 881l.1-.2v-.3.5ZM4.4 755.5v-.1.2l-.1.4.1-.5Z"/><path fill="#fff" d="m365.8 139.1-1.5-.7-.5-.2h.2c-2.7-.7-5.3-1.6-8-2.5a17.8 17.8 0 0 1 .2 10.5c1.3-.3 2.6-.8 3.9-1.3l3-1.4a14 14 0 0 0 2.2-1.3v.1l.2-.2h.1l.3-.3 1.4-1.5v-.2l-.2-.1v-.1a9 9 0 0 0-1.3-.8Zm-21.6-4.2v-.7a37.3 37.3 0 0 0-8.1 3.7l-.2.5v.8l-.1.2c.6 1 1.5 2 2.5 2.9 1 .7 2 1.4 3.1 1.9l1.4.7 2.4.8-.3-.7c-1-3.3-1.1-6.7-.7-10.1Zm-72.4 1.3.5-2-.2.1-2.3.7a96.9 96.9 0 0 0-7.5 4.3l-.1.2c1 1.1 2.2 2.2 3.5 3.3a17.4 17.4 0 0 0 6.5 3.3l-.3-1c-.5-3-.5-6 0-9Zm11.5-2.5.3.7a22.3 22.3 0 0 1 .4 11.1l.4-.1a21 21 0 0 1 2.6-.8c2.6-.6 4.8-1.8 6.7-3.6.3-1 .7-1.8 1.2-2.6l-3.7-2.2a26.8 26.8 0 0 0-7.9-2.5Z"/><path fill="#87441D" d="M352.9 22a82.1 82.1 0 0 0-20.7-2 245.6 245.6 0 0 0-24.4 2l-13.6 1.8-13.4 1.3a287.6 287.6 0 0 1-16.8 1.3c-2.4.3-5 .7-7.4 1.2-2.9.6-5.9 1-8.9 1.1-1.2 0-2.4 0-3.7-.3a15.5 15.5 0 0 0-4.2 3l-.8.6a57.1 57.1 0 0 0-11.3 11.9c-2.6 3.6-5 7.3-7.3 11.1-1.6 2.7-3 5.5-4 8.5a147 147 0 0 0-3.5 14.5 82 82 0 0 0-1.6 19.2 81 81 0 0 1 1.5 5.4 38.3 38.3 0 0 0 3.6 9.2l2.4 4.4a46.7 46.7 0 0 1 4.4-10.5c.9-1.9 1.6-3.8 2.2-5.8l1.8-6.2a32 32 0 0 1 1.4-4v.1l2-4.7c.6-2 1.5-4 2.4-6 .5-1 1.2-2 2-2.8l-.1.3c0-.2.2-.3.4-.5l9.9-14.1c1.3-2 3.1-3.5 5.3-4.5 3.2-1.5 6.6-2.3 10-2.5 6.7-.4 13.4-.3 20 .2 6.2.5 12.2.1 18.2-1a56.3 56.3 0 0 1 31.8 4 93.2 93.2 0 0 0 17.4 1.7c3.6 0 7.2.2 10.7.5 6 .4 12 1.4 17.7 3 4.8 1.4 8.1 4.5 10 9.3 1.7 4 4.1 7.2 7.5 9.9 4.9 4 9.5 8.1 14 12.6a20 20 0 0 1 5.7 12.2l.5 4.2.6-1.9c1-3 1.8-6 2.4-9 1.3-6.4 1.4-12.8.3-19.2-1-5.5-2.3-10.9-4.2-16.2l-3.3-9.3c-2-5.2-5-9.9-8.5-14a11.9 11.9 0 0 0-4.6-3.3 54.3 54.3 0 0 1-14.2-8.7A16.6 16.6 0 0 0 379 28h.2c-5.9-2.6-12-4.2-18.5-4.6a55 55 0 0 1-7.8-1.3Zm57.3 35.3v.2-.2Z"/><path fill="#CCC" d="M372.8 922.4a2507.5 2507.5 0 0 1-65-.5c-9.3-.2-18.6-.5-27.9-1-12.4-.7-24.7-.7-37 0a212.2 212.2 0 0 1-73.6-9c-4.4-1.5-8.8-3.1-13-5.2l-2.8 15.6c-2.2 11.9-4.5 23.7-6.9 35.6a488.5 488.5 0 0 0-5.7 36.6 271.6 271.6 0 0 1-6 33.8h368.7a1037.8 1037.8 0 0 0-9.2-72.9l-5.5-37c-.5-3.7-1.1-7.4-1.9-11l-.7-1.8c0-.2 0-.4-.2-.6a418.8 418.8 0 0 0-35.3 8.4 208.7 208.7 0 0 1-36 7 449.4 449.4 0 0 1-42 2Zm59-54.2h-.3a848 848 0 0 1-34.7 3l-37.5 2.5c-12.3.8-24.6 1.7-37 2.8a334 334 0 0 1-34.4 1.2c-12.3.1-24.7-.3-37-1.2a1319.4 1319.4 0 0 1-73-8.4c-5-.8-10-2-14.6-4v.1l-.4.3c-.1.2-.3.2-.4.3l-.4.2c-.1 1.6-.4 3-.7 4.6-.6 3-1 6-1 9a25 25 0 0 1-.5 4.2l-.4 2.3a503 503 0 0 1-1.8 12.5 47.3 47.3 0 0 0 5 2c11.6 4.3 23.4 7.5 35.6 9.6 12.2 2.1 24.6 3 37 2.6a515 515 0 0 1 37.9 0 2407.5 2407.5 0 0 0 98.9 2c14.4 0 28.8-.8 43.1-2.3 12.7-1.4 25-3.9 37.3-7.5 10.9-3.3 22-6 33-8a811.4 811.4 0 0 0-4.1-30.3 89.8 89.8 0 0 1-1-6.5c-4.1.7-8.3 1.7-12.5 2.8a120.4 120.4 0 0 1-20.3 3.8h-.1l-7 1.1-6.7 1-2 .3Z"/></g><defs><clipPath id="a"><path fill="#fff" d="M0 0h663v1024H0z"/></clipPath></defs></svg>