<svg width="368" height="48" viewBox="0 0 368 48" fill="none" xmlns="http://www.w3.org/2000/svg">
<path d="M352.087 43.0426C348.163 43.0426 344.871 41.9277 342.214 39.698C339.413 37.3434 338.013 34.2395 338.013 30.3865C338.013 26.8367 339.27 23.171 341.785 19.3893C344.64 15.0725 347.957 12.9141 351.739 12.9141C353.594 12.9141 355.762 13.4135 358.241 14.4125C361.256 15.6433 362.763 17.0614 362.763 18.6669C362.763 19.5409 362.46 20.3169 361.853 20.9947C361.211 21.7261 360.382 22.0918 359.365 22.0918C358.598 22.0918 357.67 21.6815 356.582 20.8609C355.512 20.0225 353.898 19.6034 351.739 19.6034C350.366 19.6034 348.876 20.9501 347.271 23.6437C345.737 26.2481 344.97 28.4957 344.97 30.3865C344.97 32.2595 345.647 33.7311 347.003 34.8014C348.287 35.8182 349.982 36.3266 352.087 36.3266C353.282 36.3266 354.745 35.8717 356.475 34.962C358.205 34.0522 359.302 33.5973 359.766 33.5973C360.73 33.5973 361.55 33.9452 362.228 34.6409C362.924 35.3366 363.271 36.1304 363.271 37.0223C363.271 38.4136 361.755 39.805 358.723 41.1964C356.011 42.4272 353.799 43.0426 352.087 43.0426Z" fill="white"/>
<path d="M332.18 43.2563C329.986 43.2563 328.764 42.1771 328.514 40.0187C328.264 38.1813 328.015 36.3351 327.765 34.4799C327.497 32.5177 327.364 30.6715 327.364 28.9412C327.364 28.4774 327.39 27.6836 327.444 26.5598C327.515 25.436 327.551 24.6422 327.551 24.1784C327.551 24.0536 327.569 23.7414 327.604 23.2419C327.64 22.7246 327.658 22.3054 327.658 21.9843C327.658 20.5038 327.274 19.7635 326.507 19.7635C324.866 19.7635 323.252 20.7267 321.664 22.6533C320.095 24.5619 318.864 26.9879 317.972 29.9312C317.936 30.5199 317.856 31.3047 317.731 32.2858C317.624 33.0886 317.571 33.8734 317.571 34.6405C317.571 35.1399 317.624 35.8981 317.731 36.9148C317.856 37.9138 317.918 38.663 317.918 39.1624C317.918 40.1792 317.562 41.0176 316.848 41.6776C316.152 42.3555 315.269 42.6944 314.199 42.6944C313.129 42.6944 312.246 42.3555 311.55 41.6776C310.854 41.0176 310.507 40.1792 310.507 39.1624C310.507 38.663 310.453 37.9138 310.346 36.9148C310.239 35.8981 310.186 35.1399 310.186 34.6405C310.186 32.928 310.31 30.5466 310.56 27.4963C310.81 24.446 310.935 22.0646 310.935 20.3521C310.935 19.817 310.899 19.0232 310.828 17.9708C310.774 16.9005 310.747 16.1067 310.747 15.5894C310.747 14.5904 311.104 13.7699 311.818 13.1277C312.549 12.4677 313.441 12.1377 314.493 12.1377C316.83 12.1377 318.079 13.538 318.239 16.3386L318.266 16.6329C320.871 14.0107 323.618 12.6996 326.507 12.6996C329.879 12.6996 332.207 14.1088 333.491 16.9272C334.347 18.8181 334.775 21.6454 334.775 25.4092V27.309C334.758 28.1296 334.749 28.7093 334.749 29.0482C334.749 30.4396 334.936 32.2323 335.311 34.4264C335.703 36.6205 335.899 38.4043 335.899 39.7778C335.899 40.7768 335.542 41.6063 334.829 42.2663C334.115 42.9263 333.232 43.2563 332.18 43.2563Z" fill="white"/>
<path d="M303.736 43.1223C302.916 43.1223 301.614 42.2304 299.83 40.4466C298.189 41.2315 296.744 41.8201 295.495 42.2126C294.246 42.6229 293.185 42.828 292.311 42.828C288.012 42.828 284.783 41.6774 282.625 39.3763C280.484 37.0752 279.414 33.6325 279.414 29.0481C279.414 24.7491 281.002 21.0744 284.177 18.0241C287.352 14.956 291.152 13.4219 295.575 13.4219C297.27 13.4219 299.232 13.9035 301.462 14.8668C304.155 16.0262 305.502 17.373 305.502 18.9071C305.502 19.5493 305.297 20.1112 304.887 20.5928C304.708 21.3063 304.566 22.2071 304.459 23.2953C304.37 24.3656 304.325 25.6231 304.325 27.068C304.325 30.4751 304.566 32.9278 305.047 34.4262C305.101 34.5868 305.511 35.5144 306.278 37.209C306.974 38.7431 307.322 39.6171 307.322 39.8312C307.322 40.7766 306.956 41.5615 306.225 42.1858C305.511 42.8102 304.682 43.1223 303.736 43.1223ZM297.101 24.7669C297.101 24.1961 297.136 23.545 297.208 22.8136C297.297 22.0644 297.422 21.235 297.582 20.3252C297.225 20.1468 296.904 20.022 296.619 19.9506C296.351 19.8614 296.119 19.8168 295.923 19.8168C293.497 19.8168 291.375 20.7712 289.555 22.6799C287.736 24.5707 286.826 26.7648 286.826 29.2621C286.826 31.6524 287.254 33.4541 288.11 34.6671C288.966 35.8622 290.251 36.4598 291.963 36.4598C293.069 36.4598 294.113 36.2814 295.094 35.9246C296.093 35.55 297.029 35.006 297.903 34.2925C297.368 30.047 297.101 26.8718 297.101 24.7669Z" fill="white"/>
<path d="M273.688 19.8168C273.314 19.8168 272.868 19.8079 272.35 19.79C271.851 19.7544 271.414 19.7365 271.039 19.7365C270.308 19.7365 269.461 19.8079 268.497 19.9506C268.818 27.1572 268.979 31.8664 268.979 34.0784C268.979 34.3103 268.988 34.7473 269.006 35.3895C269.023 36.0138 269.032 36.5222 269.032 36.9146C269.032 41.0174 267.739 43.0688 265.153 43.0688C264.172 43.0688 263.324 42.7655 262.611 42.159C261.826 41.5169 261.433 40.7142 261.433 39.7509C261.433 39.1087 261.46 38.1455 261.514 36.8611C261.567 35.5768 261.594 34.6135 261.594 33.9713C261.594 31.8129 261.433 27.1929 261.112 20.1111C260.006 20.0576 258.33 19.9149 256.082 19.683C253.852 19.4333 252.737 18.2738 252.737 16.2046C252.737 15.2057 253.076 14.3583 253.754 13.6627C254.432 12.967 255.306 12.6191 256.376 12.6191C257.036 12.6191 258.553 12.7262 260.925 12.9402C260.907 12.3694 260.863 11.424 260.791 10.104C260.72 8.96232 260.684 8.07933 260.684 7.45499C260.684 6.45606 261.05 5.62659 261.781 4.96658C262.513 4.30657 263.396 3.97656 264.43 3.97656C267.07 3.97656 268.39 6.19741 268.39 10.6391L268.337 12.8332C269.443 12.6726 270.344 12.5924 271.039 12.5924C273.091 12.5924 274.491 12.7262 275.24 12.9937C276.667 13.4932 277.381 14.5813 277.381 16.2581C277.381 17.2749 277.033 18.1222 276.337 18.8C275.641 19.4779 274.758 19.8168 273.688 19.8168Z" fill="white"/>
<path d="M227.131 22.0644C226.971 24.7937 225.731 26.1583 223.412 26.1583C221.164 26.1583 220.04 24.9988 220.04 22.6798L219.907 19.9774C215.893 20.6195 213.021 22.6798 211.291 26.1583L211.318 39.6171C211.318 40.6339 210.97 41.4723 210.274 42.1323C209.578 42.8102 208.695 43.1491 207.625 43.1491C206.519 43.1491 205.663 42.7923 205.056 42.0788C204.486 41.4366 204.2 40.6161 204.2 39.6171V22.0912C204.2 21.5382 204.218 20.7177 204.254 19.6295C204.289 18.5236 204.307 17.6941 204.307 17.1411C204.307 16.1422 204.602 15.3127 205.19 14.6527C205.797 13.9748 206.653 13.6359 207.759 13.6359C209.739 13.6359 210.916 14.6527 211.291 16.6862C214.448 14.3316 217.953 13.1543 221.806 13.1543C225.374 13.1543 227.158 15.5268 227.158 20.2717C227.158 21.1814 227.149 21.779 227.131 22.0644Z" fill="white"/>
<path d="M186.888 42.9352C183.588 42.9352 180.751 41.8025 178.379 39.5371C175.775 37.0576 174.41 33.7486 174.285 29.6102C174.16 25.6679 175.239 22.1538 177.523 19.0678C180.234 15.4289 184.007 13.6094 188.841 13.6094C192.409 13.6094 195.245 15.0364 197.35 17.8905C199.241 20.4592 200.186 23.6433 200.186 27.4428C200.186 31.5813 199.08 35.1132 196.868 38.0387C194.389 41.303 191.062 42.9352 186.888 42.9352ZM188.493 20.6733C186.299 20.6554 184.569 21.6544 183.302 23.6701C182.232 25.3647 181.697 27.3447 181.697 29.6102C181.697 31.7507 182.303 33.3918 183.516 34.5335C184.48 35.4432 185.603 35.8981 186.888 35.8981C188.44 35.8981 189.786 35.3719 190.928 34.3194C192.23 33.0886 192.926 31.4207 193.015 29.3158C193.247 23.572 191.74 20.6911 188.493 20.6733Z" fill="white"/>
<path d="M168.265 43.2563C166.071 43.2563 164.849 42.1771 164.599 40.0187C164.349 38.1813 164.1 36.3351 163.85 34.4799C163.582 32.5177 163.449 30.6715 163.449 28.9412C163.449 28.4774 163.475 27.6836 163.529 26.5598C163.6 25.436 163.636 24.6422 163.636 24.1784C163.636 24.0536 163.654 23.7414 163.689 23.2419C163.725 22.7246 163.743 22.3054 163.743 21.9843C163.743 20.5038 163.359 19.7635 162.592 19.7635C160.951 19.7635 159.337 20.7267 157.749 22.6533C156.18 24.5619 154.949 26.9879 154.057 29.9312C154.021 30.5199 153.941 31.3047 153.816 32.2858C153.709 33.0886 153.655 33.8734 153.655 34.6405C153.655 35.1399 153.709 35.8981 153.816 36.9148C153.941 37.9138 154.003 38.663 154.003 39.1624C154.003 40.1792 153.647 41.0176 152.933 41.6776C152.237 42.3555 151.354 42.6944 150.284 42.6944C149.214 42.6944 148.331 42.3555 147.635 41.6776C146.939 41.0176 146.592 40.1792 146.592 39.1624C146.592 38.663 146.538 37.9138 146.431 36.9148C146.324 35.8981 146.271 35.1399 146.271 34.6405C146.271 32.928 146.395 30.5466 146.645 27.4963C146.895 24.446 147.02 22.0646 147.02 20.3521C147.02 19.817 146.984 19.0232 146.913 17.9708C146.859 16.9005 146.832 16.1067 146.832 15.5894C146.832 14.5904 147.189 13.7699 147.903 13.1277C148.634 12.4677 149.526 12.1377 150.578 12.1377C152.915 12.1377 154.164 13.538 154.324 16.3386L154.351 16.6329C156.956 14.0107 159.703 12.6996 162.592 12.6996C165.964 12.6996 168.292 14.1088 169.576 16.9272C170.432 18.8181 170.86 21.6454 170.86 25.4092V27.309C170.842 28.1296 170.834 28.7093 170.834 29.0482C170.834 30.4396 171.021 32.2323 171.395 34.4264C171.788 36.6205 171.984 38.4043 171.984 39.7778C171.984 40.7768 171.627 41.6063 170.914 42.2663C170.2 42.9263 169.317 43.2563 168.265 43.2563Z" fill="white"/>
<path d="M130.002 42.5876C125.739 42.5876 122.252 41.5708 119.54 39.5373C116.543 37.2897 115.045 34.1234 115.045 30.0385C115.045 25.5254 116.231 21.7081 118.604 18.5864C121.244 15.1258 124.802 13.3955 129.28 13.3955C132.384 13.3955 134.961 13.895 137.013 14.8939C139.706 16.2139 141.053 18.2653 141.053 21.0481C141.053 23.0102 139.956 24.7495 137.762 26.2657C136.763 26.9614 134.756 27.9782 131.741 29.316L122.724 33.3028C123.58 34.2304 124.615 34.9261 125.828 35.3899C127.041 35.8537 128.432 36.0856 130.002 36.0856C132.392 36.0856 134.417 35.595 136.076 34.6139C137.557 33.7399 138.743 33.3028 139.635 33.3028C141.49 33.3028 142.418 34.2037 142.418 36.0053C142.418 38.0389 140.928 39.6978 137.949 40.9821C135.452 42.0524 132.803 42.5876 130.002 42.5876ZM129.28 19.8707C127.621 19.8707 126.203 20.4237 125.025 21.5297C123.848 22.6356 122.903 24.2946 122.189 26.5065C124.205 25.6324 126.212 24.7673 128.209 23.9111C130.618 22.8229 132.535 21.8151 133.962 20.8875C132.767 20.2097 131.206 19.8707 129.28 19.8707Z" fill="white"/>
<path d="M112.611 22.0644C112.45 24.7937 111.21 26.1583 108.891 26.1583C106.644 26.1583 105.52 24.9988 105.52 22.6798L105.386 19.9774C101.373 20.6195 98.5006 22.6798 96.7703 26.1583L96.7971 39.6171C96.7971 40.6339 96.4492 41.4723 95.7536 42.1323C95.0579 42.8102 94.1749 43.1491 93.1046 43.1491C91.9986 43.1491 91.1424 42.7923 90.5359 42.0788C89.9651 41.4366 89.6797 40.6161 89.6797 39.6171V22.0912C89.6797 21.5382 89.6975 20.7177 89.7332 19.6295C89.7689 18.5236 89.7867 17.6941 89.7867 17.1411C89.7867 16.1422 90.081 15.3127 90.6697 14.6527C91.2762 13.9748 92.1324 13.6359 93.2384 13.6359C95.2184 13.6359 96.3957 14.6527 96.7703 16.6862C99.9277 14.3316 103.433 13.1543 107.286 13.1543C110.854 13.1543 112.637 15.5268 112.637 20.2717C112.637 21.1814 112.628 21.779 112.611 22.0644Z" fill="white"/>
<path d="M83.2311 19.8168C82.8565 19.8168 82.4106 19.8079 81.8933 19.79C81.3938 19.7544 80.9568 19.7365 80.5822 19.7365C79.8508 19.7365 79.0035 19.8079 78.0402 19.9506C78.3613 27.1572 78.5219 31.8664 78.5219 34.0784C78.5219 34.3103 78.5308 34.7473 78.5486 35.3895C78.5665 36.0138 78.5754 36.5222 78.5754 36.9146C78.5754 41.0174 77.2821 43.0688 74.6956 43.0688C73.7145 43.0688 72.8672 42.7655 72.1537 42.159C71.3688 41.5169 70.9763 40.7142 70.9763 39.7509C70.9763 39.1087 71.0031 38.1455 71.0566 36.8611C71.1101 35.5768 71.1369 34.6135 71.1369 33.9713C71.1369 31.8129 70.9764 27.1929 70.6553 20.1111C69.5493 20.0576 67.8725 19.9149 65.6249 19.683C63.3952 19.4333 62.2803 18.2738 62.2803 16.2046C62.2803 15.2057 62.6192 14.3583 63.297 13.6627C63.9749 12.967 64.849 12.6191 65.9192 12.6191C66.5793 12.6191 68.0955 12.7262 70.468 12.9402C70.4501 12.3694 70.4055 11.424 70.3342 10.104C70.2628 8.96232 70.2271 8.07933 70.2271 7.45499C70.2271 6.45606 70.5928 5.62659 71.3242 4.96658C72.0556 4.30657 72.9385 3.97656 73.9732 3.97656C76.6132 3.97656 77.9332 6.19741 77.9332 10.6391L77.8797 12.8332C78.9857 12.6726 79.8865 12.5924 80.5822 12.5924C82.6336 12.5924 84.0338 12.7262 84.7831 12.9937C86.2101 13.4932 86.9236 14.5813 86.9236 16.2581C86.9236 17.2749 86.5758 18.1222 85.8801 18.8C85.1844 19.4779 84.3014 19.8168 83.2311 19.8168Z" fill="white"/>
<path d="M56.7415 43.2563C54.5474 43.2563 53.3255 42.1771 53.0757 40.0187C52.826 38.1813 52.5763 36.3351 52.3265 34.4799C52.059 32.5177 51.9252 30.6715 51.9252 28.9412C51.9252 28.4774 51.9519 27.6836 52.0054 26.5598C52.0768 25.436 52.1125 24.6422 52.1125 24.1784C52.1125 24.0536 52.1303 23.7414 52.166 23.2419C52.2017 22.7246 52.2195 22.3054 52.2195 21.9843C52.2195 20.5038 51.836 19.7635 51.0689 19.7635C49.4278 19.7635 47.8135 20.7267 46.2259 22.6533C44.6561 24.5619 43.4253 26.9879 42.5334 29.9312C42.4977 30.5199 42.4175 31.3047 42.2926 32.2858C42.1856 33.0886 42.132 33.8734 42.132 34.6405C42.132 35.1399 42.1856 35.8981 42.2926 36.9148C42.4175 37.9138 42.4799 38.663 42.4799 39.1624C42.4799 40.1792 42.1231 41.0176 41.4096 41.6776C40.7139 42.3555 39.8309 42.6944 38.7606 42.6944C37.6904 42.6944 36.8074 42.3555 36.1117 41.6776C35.416 41.0176 35.0682 40.1792 35.0682 39.1624C35.0682 38.663 35.0146 37.9138 34.9076 36.9148C34.8006 35.8981 34.7471 35.1399 34.7471 34.6405C34.7471 32.928 34.8719 30.5466 35.1217 27.4963C35.3714 24.446 35.4963 22.0646 35.4963 20.3521C35.4963 19.817 35.4606 19.0232 35.3892 17.9708C35.3357 16.9005 35.309 16.1067 35.309 15.5894C35.309 14.5904 35.6657 13.7699 36.3793 13.1277C37.1106 12.4677 38.0025 12.1377 39.055 12.1377C41.3918 12.1377 42.6404 13.538 42.801 16.3386L42.8277 16.6329C45.4321 14.0107 48.1792 12.6996 51.0689 12.6996C54.4403 12.6996 56.7682 14.1088 58.0526 16.9272C58.9088 18.8181 59.3369 21.6454 59.3369 25.4092V27.309C59.3191 28.1296 59.3101 28.7093 59.3101 29.0482C59.3101 30.4396 59.4974 32.2323 59.872 34.4264C60.2645 36.6205 60.4607 38.4043 60.4607 39.7778C60.4607 40.7768 60.1039 41.6063 59.3904 42.2663C58.6769 42.9263 57.7939 43.2563 56.7415 43.2563Z" fill="white"/>
<path d="M28.2988 43.1223C27.4783 43.1223 26.1761 42.2304 24.3923 40.4466C22.7512 41.2315 21.3063 41.8201 20.0576 42.2126C18.8089 42.6229 17.7476 42.828 16.8735 42.828C12.5745 42.828 9.34583 41.6774 7.18742 39.3763C5.04685 37.0752 3.97656 33.6325 3.97656 29.0481C3.97656 24.7491 5.56415 21.0744 8.73934 18.0241C11.9145 14.956 15.714 13.4219 20.1379 13.4219C21.8325 13.4219 23.7947 13.9035 26.0245 14.8668C28.718 16.0262 30.0648 17.373 30.0648 18.9071C30.0648 19.5493 29.8597 20.1112 29.4494 20.5928C29.271 21.3063 29.1283 22.2071 29.0213 23.2953C28.9321 24.3656 28.8875 25.6231 28.8875 27.068C28.8875 30.4751 29.1283 32.9278 29.6099 34.4262C29.6634 34.5868 30.0737 35.5144 30.8408 37.209C31.5364 38.7431 31.8843 39.6171 31.8843 39.8312C31.8843 40.7766 31.5186 41.5615 30.7872 42.1858C30.0737 42.8102 29.2442 43.1223 28.2988 43.1223ZM21.663 24.7669C21.663 24.1961 21.6987 23.545 21.7701 22.8136C21.8593 22.0644 21.9841 21.235 22.1447 20.3252C21.7879 20.1468 21.4668 20.022 21.1814 19.9506C20.9138 19.8614 20.682 19.8168 20.4857 19.8168C18.0598 19.8168 15.937 20.7712 14.1175 22.6799C12.298 24.5707 11.3883 26.7648 11.3883 29.2621C11.3883 31.6524 11.8164 33.4541 12.6726 34.6671C13.5289 35.8622 14.8132 36.4598 16.5257 36.4598C17.6316 36.4598 18.6752 36.2814 19.6563 35.9246C20.6552 35.55 21.5917 35.006 22.4658 34.2925C21.9306 30.047 21.663 26.8718 21.663 24.7669Z" fill="white"/>
<path d="M344.97 30.3857C344.97 28.495 345.737 26.2477 347.271 23.6436C348.876 20.95 350.366 19.6025 351.739 19.6025C353.898 19.6026 355.512 20.022 356.582 20.8604C357.602 21.6295 358.481 22.0387 359.219 22.0869L359.365 22.0908C360.382 22.0907 361.211 21.7254 361.854 20.9941C362.46 20.3163 362.763 19.54 362.763 18.666C362.762 17.0608 361.256 15.6428 358.241 14.4121C355.917 13.4757 353.867 12.9775 352.091 12.9189L351.739 12.9141C347.958 12.9141 344.639 15.0718 341.785 19.3887C339.27 23.1703 338.013 26.836 338.013 30.3857L338.017 30.7451C338.101 34.4323 339.501 37.4162 342.214 39.6973C344.706 41.7876 347.754 42.8986 351.358 43.0293L352.087 43.042C353.692 43.042 355.737 42.5016 358.22 41.4199L358.723 41.1963C361.66 39.8484 363.175 38.5002 363.267 37.1523L363.271 37.0215C363.271 36.1297 362.923 35.3362 362.228 34.6406C361.55 33.9451 360.73 33.5968 359.767 33.5967C359.303 33.5967 358.205 34.0522 356.475 34.9619L355.839 35.2812C354.383 35.9778 353.133 36.3262 352.087 36.3262V32.3496C352.352 32.3496 353.144 32.2203 354.625 31.4414C355.538 30.9614 356.365 30.5581 357.072 30.2646C357.575 30.0564 358.645 29.6201 359.767 29.6201C361.795 29.6202 363.625 30.3955 365.039 31.8281C365.051 31.8403 365.064 31.853 365.076 31.8652H365.075C366.327 33.1323 367.141 34.7591 367.238 36.6387L367.248 37.0215L367.233 37.4375C367.093 39.4819 365.932 41.0215 364.823 42.0391C363.629 43.1345 362.071 44.0352 360.381 44.8105L360.374 44.8135L360.366 44.8164C357.465 46.1333 354.64 47.0186 352.087 47.0186C347.506 47.0186 343.391 45.7368 339.985 43.0117L339.658 42.7441L339.654 42.7412C338.013 41.3612 336.732 39.7731 335.811 38.0078C335.718 36.9692 335.552 35.7754 335.311 34.4268C334.936 32.2327 334.748 30.4392 334.748 29.0479C334.748 28.7089 334.758 28.1289 334.775 27.3086V25.4092C334.775 25.2888 334.773 25.1693 334.772 25.0508C335.506 22.3776 336.769 19.7515 338.475 17.1865C341.766 12.2124 346.163 8.9375 351.739 8.9375C354.117 8.93753 356.63 9.53006 359.21 10.5205L359.727 10.7236L359.735 10.7266L359.744 10.7305C361.474 11.4368 363.104 12.3235 364.357 13.5029C365.666 14.7341 366.739 16.472 366.739 18.666C366.739 20.5486 366.054 22.2474 364.84 23.6172L364.842 23.6182C363.407 25.2521 361.468 26.0673 359.365 26.0674C357.286 26.0674 355.491 25.0182 354.188 24.0352L354.159 24.0137L354.13 23.9912C354.072 23.9456 353.605 23.6486 352.229 23.5898C351.895 23.901 351.372 24.5316 350.697 25.6611L350.452 26.0879C349.282 28.1731 348.946 29.5642 348.946 30.3857L348.956 30.6533C349 31.2276 349.194 31.4644 349.467 31.6797L349.472 31.6836C349.875 32.0025 350.62 32.3496 352.087 32.3496V36.3262L351.697 36.3203C349.772 36.2608 348.207 35.754 347.003 34.8008C345.732 33.7974 345.057 32.4413 344.978 30.7324L344.97 30.3857Z" fill="black"/>
<path d="M323.387 28.9414C323.387 28.4997 323.408 27.8705 323.441 27.085C322.866 28.1047 322.348 29.2963 321.903 30.6816C321.853 31.2924 321.776 31.9998 321.676 32.7881L321.674 32.7998L321.673 32.8115C321.588 33.4496 321.547 34.0588 321.547 34.6406L321.554 34.9102C321.568 35.2345 321.606 35.7381 321.682 36.46C321.808 37.4784 321.895 38.4146 321.895 39.1621C321.895 41.1962 321.14 43.0822 319.622 44.5244L319.623 44.5254C319.61 44.5379 319.596 44.5492 319.583 44.5615C319.571 44.5728 319.56 44.5854 319.548 44.5967L319.547 44.5957C318.042 46.0237 316.158 46.6708 314.199 46.6709C312.224 46.6709 310.324 46.0137 308.812 44.5605V44.5625C308.804 44.5543 308.796 44.5454 308.787 44.5371C308.783 44.5332 308.778 44.5293 308.774 44.5254V44.5244C307.853 43.6382 307.222 42.5906 306.869 41.4512C307.17 40.9769 307.322 40.4374 307.322 39.8311C307.322 39.6305 307.016 38.8537 306.407 37.499L306.392 37.3389L306.391 37.3311C306.281 36.2877 306.209 35.3584 306.209 34.6406C306.209 32.7673 306.344 30.2604 306.597 27.1719C306.843 24.1601 306.958 21.9041 306.958 20.3525C306.958 20.1544 306.951 19.8837 306.936 19.5342L306.86 18.2393L306.857 18.2041L306.855 18.1689C306.801 17.0869 306.771 16.2105 306.771 15.5889C306.771 13.5148 307.568 11.6021 309.157 10.1719C310.671 8.8074 312.532 8.16113 314.493 8.16113C316.432 8.16114 318.457 8.75721 319.998 10.3809C322.004 9.31798 324.177 8.7227 326.507 8.72266C328.746 8.72266 330.923 9.19359 332.841 10.3545C334.659 11.4553 336.005 13.0326 336.93 14.9004L337.109 15.2783L337.113 15.2871C338.322 17.9566 338.752 21.4664 338.752 25.4092V25.6055C338.259 27.2216 338.013 28.815 338.013 30.3857C338.013 32.8128 338.568 34.9429 339.68 36.7754C339.805 37.8636 339.875 38.868 339.875 39.7773C339.875 41.8498 339.081 43.7495 337.528 45.1855C336.016 46.5841 334.143 47.2324 332.18 47.2324C330.452 47.2324 328.542 46.8026 326.985 45.4277C325.446 44.0684 324.783 42.2547 324.573 40.5527V40.5537C324.323 38.7149 324.073 36.8673 323.823 35.0107V35.0098C323.535 32.8972 323.387 30.8726 323.387 28.9414ZM310.747 15.5889C310.747 16.1062 310.774 16.9004 310.827 17.9707C310.899 19.0231 310.935 19.8174 310.935 20.3525L310.929 21.0254C310.909 22.2003 310.841 23.6364 310.724 25.334L310.396 29.6582C310.255 31.6952 310.186 33.3562 310.186 34.6406L310.195 35.0635C310.215 35.5351 310.265 36.1525 310.346 36.915C310.453 37.9137 310.506 38.6627 310.506 39.1621C310.506 40.1789 310.854 41.0177 311.55 41.6777C312.202 42.3131 313.019 42.6507 314 42.6904L314.199 42.6943C315.202 42.6942 316.041 42.3963 316.715 41.8008L316.848 41.6777C317.561 41.0177 317.918 40.1789 317.918 39.1621C317.918 38.6627 317.855 37.9137 317.73 36.915C317.65 36.1524 317.6 35.5351 317.58 35.0635L317.57 34.6406C317.57 34.0655 317.6 33.48 317.66 32.8848L317.73 32.2861C317.855 31.305 317.936 30.5193 317.972 29.9307C318.864 26.9876 320.094 24.5619 321.664 22.6533C323.252 20.7269 324.866 19.7638 326.507 19.7637C327.274 19.7637 327.657 20.5038 327.657 21.9844L327.645 22.5391C327.636 22.7488 327.622 22.9834 327.604 23.2422C327.569 23.7415 327.551 24.0539 327.551 24.1787C327.551 24.6425 327.515 25.4361 327.443 26.5596C327.39 27.6834 327.363 28.4776 327.363 28.9414L327.369 29.5957C327.398 31.1349 327.531 32.7628 327.765 34.4795C328.014 36.3346 328.264 38.1812 328.514 40.0186C328.748 42.042 329.836 43.1166 331.779 43.2432L332.18 43.2559C333.166 43.2558 334.004 42.9658 334.692 42.3857L334.828 42.2666C335.542 41.6066 335.898 40.7763 335.898 39.7773C335.898 38.404 335.703 36.6204 335.311 34.4268C334.936 32.2327 334.748 30.4392 334.748 29.0479C334.748 28.7089 334.758 28.1289 334.775 27.3086V25.4092C334.775 21.6453 334.346 18.8176 333.49 16.9268C332.206 14.1087 329.878 12.6992 326.507 12.6992C323.617 12.6993 320.87 14.0107 318.266 16.6328L318.239 16.3389C318.084 13.6258 316.907 12.2264 314.709 12.1416L314.493 12.1377C313.441 12.1377 312.549 12.4679 311.817 13.1279L311.688 13.25C311.061 13.8728 310.747 14.6526 310.747 15.5889Z" fill="black"/>
<path d="M305.503 18.9072C305.503 17.469 304.319 16.1959 301.951 15.0869L301.462 14.8672C299.372 13.9642 297.517 13.4841 295.896 13.4277L295.576 13.4219C291.152 13.4219 287.353 14.9564 284.178 18.0244L283.884 18.3115C280.904 21.3043 279.414 24.8833 279.414 29.0479C279.414 33.632 280.485 37.0749 282.625 39.376C284.648 41.5332 287.613 42.6796 291.518 42.8145L292.312 42.8281C293.185 42.8281 294.247 42.6231 295.495 42.2129C296.744 41.8205 298.189 41.2312 299.83 40.4463C301.614 42.2298 302.916 43.1218 303.736 43.1221C304.682 43.1221 305.512 42.8099 306.226 42.1855C306.911 41.6003 307.275 40.8741 307.318 40.0068L307.322 39.8311C307.322 39.6166 306.974 38.7425 306.278 37.209C305.512 35.5158 305.102 34.5884 305.048 34.4268C304.626 33.1156 304.39 31.0733 304.337 28.3008L304.325 27.0684C304.325 25.6235 304.37 24.3652 304.459 23.2949C304.539 22.479 304.639 21.7684 304.76 21.1631L304.888 20.5928C305.246 20.1715 305.448 19.6886 305.493 19.1445L305.503 18.9072ZM286.826 29.2627C286.826 26.9215 287.626 24.8462 289.225 23.0381L289.556 22.6797C291.375 20.7712 293.498 19.8174 295.924 19.8174C296.12 19.8174 296.352 19.862 296.619 19.9512C296.905 20.0225 297.226 20.1468 297.583 20.3252C297.422 21.2348 297.297 22.0643 297.208 22.8135C297.137 23.5447 297.101 24.1959 297.101 24.7666C297.101 26.8715 297.368 30.0475 297.903 34.293L297.573 34.5518C296.795 35.1392 295.968 35.597 295.094 35.9248L294.724 36.0498C293.851 36.323 292.932 36.4599 291.964 36.46V32.4834C292.599 32.4834 293.153 32.3858 293.652 32.2148C293.31 29.1486 293.125 26.6545 293.124 24.7881C292.894 24.9705 292.665 25.1816 292.434 25.4238L292.428 25.4307L292.421 25.4375C291.274 26.629 290.803 27.8499 290.803 29.2627L290.807 29.6289C290.849 31.3703 291.189 32.124 291.354 32.3643C291.364 32.3782 291.372 32.3881 291.377 32.3936C291.383 32.3998 291.385 32.403 291.386 32.4033V32.4023C291.387 32.403 291.39 32.4044 291.394 32.4062C291.412 32.415 291.568 32.4834 291.964 32.4834V36.46L291.647 36.4531C290.092 36.3831 288.913 35.7874 288.11 34.667C287.308 33.5298 286.881 31.8751 286.831 29.7031L286.826 29.2627ZM309.479 18.9072C309.479 20.0687 309.188 21.1795 308.619 22.1699C308.549 22.5645 308.48 23.0554 308.42 23.6553C308.344 24.5803 308.302 25.7133 308.302 27.0684L308.313 28.2607C308.364 30.7881 308.573 32.3291 308.806 33.1172C308.808 33.1219 308.81 33.1268 308.812 33.1318C308.86 33.2438 308.933 33.4087 309.032 33.6338C309.23 34.0814 309.519 34.7238 309.9 35.5664C310.046 35.8879 310.179 36.1907 310.302 36.4707C310.316 36.6128 310.33 36.7611 310.346 36.915C310.453 37.9137 310.506 38.6627 310.506 39.1621C310.506 39.9663 310.725 40.6583 311.16 41.2393C310.858 42.7742 310.058 44.1257 308.842 45.1768L308.844 45.1787C307.408 46.4353 305.648 47.0986 303.736 47.0986C302.069 47.0985 300.694 46.2801 299.897 45.7344C299.629 45.5503 299.358 45.3474 299.085 45.1299C298.267 45.4649 297.484 45.7527 296.736 45.9893L296.737 45.9902C295.269 46.4728 293.763 46.8047 292.312 46.8047C287.326 46.8047 282.877 45.4573 279.725 42.0967L279.72 42.0908L279.714 42.085C276.631 38.7713 275.438 34.1816 275.438 29.0479C275.438 23.6375 277.489 18.9359 281.423 15.1562C285.339 11.3757 290.128 9.44531 295.576 9.44531C297.995 9.44538 300.511 10.1246 303.039 11.2168H303.038C305.831 12.4197 309.479 14.7039 309.479 18.9072Z" fill="black"/>
<path d="M256.718 7.0625C256.815 5.11213 257.636 3.35147 259.117 2.01465L259.403 1.76855C260.85 0.579956 262.589 0 264.431 0L264.93 0.0146484C267.4 0.161993 269.51 1.40914 270.818 3.61035C271.697 5.08776 272.117 6.83171 272.28 8.63281C273.856 8.67748 275.381 8.82744 276.553 9.24023H276.554C276.56 9.24237 276.566 9.24492 276.572 9.24707C276.574 9.24773 276.576 9.24837 276.578 9.24902H276.577C277.968 9.74049 279.265 10.6221 280.171 12.0039C281.059 13.3589 281.357 14.8662 281.357 16.2578C281.357 18.291 280.615 20.1838 279.112 21.6484C277.595 23.1265 275.68 23.793 273.688 23.793C273.37 23.793 273.02 23.7868 272.64 23.7764C272.847 28.7708 272.956 32.2217 272.956 34.0781L272.98 35.2764C272.999 35.9192 273.009 36.4695 273.009 36.915L273.005 37.3545C272.962 39.5578 272.586 41.812 271.427 43.6514C269.995 45.9216 267.703 47.0458 265.153 47.0459C263.302 47.0459 261.55 46.4526 260.093 45.2363C260.086 45.2305 260.078 45.2246 260.071 45.2188C260.059 45.2088 260.047 45.1995 260.035 45.1895V45.1875C258.419 43.839 257.457 41.9511 257.457 39.751C257.457 39.0229 257.487 37.9918 257.541 36.6953C257.594 35.4235 257.617 34.5279 257.617 33.9717C257.617 32.2809 257.509 28.909 257.292 23.7988C257.287 23.7983 257.282 23.7983 257.276 23.7979L255.674 23.6387L255.657 23.6367L255.64 23.6348C253.963 23.4469 252.121 22.8536 250.707 21.3828C249.25 19.8678 248.761 17.9612 248.761 16.2051C248.761 14.2022 249.482 12.3491 250.906 10.8877L251.193 10.6074C252.655 9.25666 254.481 8.64258 256.377 8.64258C256.484 8.64258 256.603 8.64374 256.734 8.64746C256.717 8.2027 256.708 7.80378 256.708 7.45508L256.718 7.0625ZM260.691 7.97168C260.705 8.53695 260.737 9.24817 260.791 10.1045C260.862 11.4243 260.907 12.3697 260.925 12.9404C258.849 12.7531 257.429 12.6474 256.664 12.624L256.377 12.6191C255.307 12.6191 254.432 12.9674 253.754 13.6631C253.076 14.3587 252.737 15.2063 252.737 16.2051L252.751 16.582C252.882 18.4153 253.992 19.4494 256.082 19.6836C258.329 19.9155 260.006 20.0578 261.112 20.1113C261.433 27.193 261.594 31.8133 261.594 33.9717L261.589 34.5137C261.579 35.1157 261.554 35.8983 261.514 36.8613L261.454 38.5469C261.441 39.0285 261.434 39.4299 261.434 39.751C261.434 40.7142 261.826 41.517 262.611 42.1592C263.236 42.6897 263.962 42.9883 264.791 43.0547L265.153 43.0693C267.659 43.0691 268.951 41.1434 269.029 37.293L269.032 36.915C269.032 36.5226 269.024 36.014 269.006 35.3896L268.979 34.0781C268.979 32.4191 268.889 29.3557 268.708 24.8877L268.497 19.9512C269.46 19.8085 270.308 19.7364 271.039 19.7363C271.414 19.7363 271.851 19.7544 272.351 19.79C272.609 19.799 272.85 19.8061 273.073 19.8105L273.688 19.8174C274.759 19.8174 275.641 19.4776 276.337 18.7998C277.033 18.122 277.381 17.2746 277.381 16.2578C277.381 14.5813 276.667 13.4936 275.24 12.9941C274.491 12.7266 273.09 12.5928 271.039 12.5928C270.343 12.5928 269.443 12.6725 268.337 12.833L268.391 10.6396C268.391 6.33661 267.152 4.11772 264.674 3.9834L264.431 3.97656C263.396 3.97656 262.513 4.30679 261.781 4.9668C261.05 5.62677 260.685 6.45625 260.685 7.45508L260.691 7.97168Z" fill="black"/>
<path d="M200.224 39.6172V22.0908C200.224 21.4707 200.243 20.5973 200.279 19.499C200.315 18.4041 200.331 17.6277 200.331 17.1416C200.331 15.302 200.899 13.4896 202.223 12.0059L202.227 12.001C203.748 10.3009 205.787 9.65918 207.759 9.65918C209.38 9.65918 211.116 10.0744 212.576 11.2656C215.438 9.88236 218.528 9.17773 221.807 9.17773C224.557 9.17781 227.2 10.1521 228.998 12.5439C230.636 14.7224 231.134 17.5152 231.134 20.2715C231.134 21.1445 231.126 21.8634 231.1 22.2969L231.101 22.2979C230.992 24.1474 230.489 26.1966 229.024 27.8086C227.465 29.5246 225.383 30.1347 223.412 30.1348C221.643 30.1348 219.593 29.6719 218.027 28.0566C217.319 27.3258 216.849 26.4993 216.546 25.6514C216.059 26.0852 215.636 26.593 215.27 27.1807L215.294 39.6094V39.6172C215.294 41.6344 214.561 43.5242 213.048 44.9795L213.049 44.9805C213.045 44.9847 213.039 44.988 213.035 44.9922C213.027 45.0002 213.019 45.0096 213.011 45.0176L213.01 45.0156C211.499 46.4682 209.6 47.126 207.625 47.126C205.611 47.126 203.581 46.4364 202.085 44.7188L202.084 44.7207C202.064 44.6988 202.046 44.6764 202.026 44.6543V44.6533C200.748 43.1793 200.224 41.3949 200.224 39.6172ZM204.294 18.1777C204.285 18.5925 204.272 19.0768 204.254 19.6299C204.218 20.7176 204.2 21.5379 204.2 22.0908V39.6172L204.214 39.9834C204.276 40.8185 204.557 41.5172 205.057 42.0791C205.625 42.7479 206.413 43.1028 207.421 43.1445L207.625 43.1494C208.695 43.1494 209.579 42.8107 210.274 42.1328C210.97 41.4728 211.317 40.6339 211.317 39.6172L211.291 26.1582C213.021 22.68 215.893 20.6198 219.906 19.9775L220.04 22.6797C220.04 24.8539 221.028 26.0088 223.004 26.1445L223.412 26.1582C225.731 26.1581 226.97 24.7935 227.131 22.0645C227.14 21.9218 227.147 21.7011 227.151 21.4023L227.158 20.2715C227.158 15.6751 225.484 13.3049 222.136 13.1611L221.807 13.1543C217.954 13.1543 214.448 14.3319 211.291 16.6865C210.916 14.653 209.739 13.6357 207.759 13.6357C206.653 13.6357 205.797 13.9748 205.19 14.6523C204.602 15.3124 204.307 16.1427 204.307 17.1416L204.294 18.1777Z" fill="black"/>
<path d="M200.187 27.4424C200.186 23.6432 199.241 20.4592 197.351 17.8906C195.311 15.1257 192.586 13.6997 189.174 13.6133L188.842 13.6094C184.008 13.6094 180.235 15.4286 177.523 19.0674C175.24 22.1534 174.16 25.6681 174.285 29.6104C174.41 33.7487 175.776 37.0577 178.38 39.5371C180.604 41.6607 183.235 42.789 186.274 42.9219L186.889 42.9355C191.063 42.9354 194.389 41.3023 196.868 38.0381C198.942 35.2956 200.044 32.0205 200.174 28.2119L200.187 27.4424ZM181.697 29.6104C181.697 27.3449 182.232 25.3645 183.303 23.6699C184.569 21.6544 186.299 20.6552 188.493 20.6729C191.74 20.6907 193.247 23.5718 193.016 29.3154C192.926 31.4203 192.231 33.0885 190.929 34.3193L190.712 34.5107C189.618 35.4355 188.343 35.8983 186.889 35.8984V31.9219C187.433 31.9218 187.813 31.7746 188.214 31.4111C188.625 31.0151 188.988 30.3975 189.042 29.1553C189.148 26.5174 188.804 25.204 188.535 24.6904C188.528 24.676 188.518 24.6641 188.512 24.6523C188.499 24.6519 188.486 24.6495 188.472 24.6494H188.461C187.781 24.644 187.277 24.8185 186.67 25.7852L186.665 25.793C186.047 26.772 185.674 27.9959 185.674 29.6104L185.678 29.8574C185.713 30.8834 185.969 31.3336 186.16 31.5518L186.242 31.6377L186.247 31.6426C186.498 31.8796 186.655 31.9219 186.889 31.9219V35.8984L186.649 35.8926C185.464 35.8393 184.42 35.3861 183.517 34.5332C182.38 33.463 181.775 31.9539 181.704 30.0059L181.697 29.6104ZM204.159 27.8994C204.079 32.6045 202.754 36.8488 200.041 40.4365L200.035 40.4434C196.788 44.7186 192.279 46.912 186.889 46.9121C182.573 46.9121 178.75 45.3897 175.633 42.4131V42.4121C173.92 40.7801 172.64 38.893 171.764 36.7988C171.67 36.0701 171.548 35.2794 171.396 34.4268C171.021 32.2327 170.834 30.4392 170.834 29.0479C170.834 28.7089 170.843 28.1289 170.86 27.3086V25.4092C170.86 24.9859 170.854 24.5744 170.843 24.1748C171.467 21.5012 172.627 18.9986 174.326 16.7021L174.335 16.6914C177.852 11.9713 182.847 9.63281 188.842 9.63281C193.513 9.6329 197.439 11.5281 200.279 15.1719L200.551 15.5303L200.553 15.5332C203.037 18.908 204.163 22.9616 204.163 27.4424L204.159 27.8994Z" fill="black"/>
<path d="M159.473 28.9414C159.473 28.4995 159.494 27.87 159.527 27.084C158.953 28.103 158.434 29.2935 157.989 30.6777C157.939 31.2894 157.861 31.9981 157.761 32.7881L157.76 32.7998L157.758 32.8115C157.673 33.4495 157.633 34.0589 157.633 34.6406L157.64 34.9102C157.654 35.2402 157.693 35.7558 157.771 36.498H157.771C157.895 37.5018 157.98 38.4239 157.98 39.1621L157.971 39.5479C157.881 41.4344 157.129 43.1737 155.707 44.5244L155.708 44.5254C155.701 44.5326 155.692 44.5387 155.685 44.5459C155.667 44.5623 155.651 44.5804 155.634 44.5967L155.632 44.5947C154.127 46.0229 152.243 46.6709 150.284 46.6709C148.309 46.6708 146.41 46.0136 144.898 44.5605V44.5625C144.89 44.5543 144.882 44.5454 144.873 44.5371C144.869 44.5331 144.864 44.5294 144.86 44.5254V44.5244C143.348 43.0692 142.615 41.179 142.615 39.1621C142.615 38.9531 142.596 38.5767 142.543 37.9932L142.478 37.3389L142.477 37.3311C142.445 37.0284 142.416 36.7352 142.392 36.4541C142.408 36.3064 142.418 36.1567 142.418 36.0049C142.418 35.642 142.378 35.3162 142.303 35.0264C142.299 34.8919 142.294 34.7632 142.294 34.6406C142.294 32.7673 142.43 30.2604 142.683 27.1719C142.929 24.1601 143.044 21.9041 143.044 20.3525C143.044 19.9562 143.015 19.2703 142.945 18.2393L142.941 18.1689C142.887 17.0869 142.856 16.2105 142.856 15.5889C142.857 13.5148 143.654 11.6021 145.243 10.1719C146.757 8.80751 148.618 8.16113 150.579 8.16113C152.518 8.16121 154.543 8.75718 156.084 10.3809C158.09 9.31803 160.263 8.72266 162.593 8.72266C164.832 8.72267 167.009 9.19357 168.927 10.3545C170.745 11.4553 172.091 13.0326 173.016 14.9004L173.195 15.2783L173.199 15.2871C174.327 17.7769 174.775 20.9978 174.83 24.6191C174.412 26.1987 174.23 27.8625 174.285 29.6104C174.354 31.8967 174.802 33.9299 175.628 35.71C175.841 37.2137 175.961 38.5782 175.961 39.7773C175.961 41.8498 175.167 43.7495 173.614 45.1855C172.102 46.5841 170.229 47.2323 168.266 47.2324C166.538 47.2324 164.628 46.8024 163.071 45.4277C161.532 44.0684 160.869 42.2547 160.659 40.5527V40.5537C160.409 38.7149 160.159 36.8673 159.909 35.0107V35.0098C159.621 32.8972 159.473 30.8726 159.473 28.9414ZM146.838 16.0293C146.848 16.5209 146.873 17.1681 146.913 17.9707C146.984 19.0231 147.021 19.8174 147.021 20.3525L147.015 21.0254C146.995 22.2002 146.927 23.6365 146.81 25.334L146.481 29.6582C146.341 31.6952 146.271 33.3562 146.271 34.6406L146.281 35.0635C146.301 35.5351 146.351 36.1525 146.432 36.915C146.539 37.9137 146.592 38.6627 146.592 39.1621C146.592 40.1789 146.94 41.0177 147.636 41.6777C148.288 42.3131 149.105 42.6507 150.086 42.6904L150.284 42.6943C151.288 42.6943 152.127 42.3965 152.801 41.8008L152.934 41.6777C153.603 41.0589 153.957 40.283 153.999 39.3506L154.004 39.1621C154.004 38.6627 153.941 37.9137 153.816 36.915C153.736 36.1525 153.686 35.5351 153.666 35.0635L153.656 34.6406C153.656 34.0654 153.686 33.48 153.746 32.8848L153.816 32.2861C153.941 31.305 154.022 30.5193 154.058 29.9307C154.95 26.9876 156.18 24.5619 157.75 22.6533C159.338 20.7269 160.952 19.7637 162.593 19.7637C163.36 19.7637 163.743 20.5039 163.743 21.9844L163.729 22.5391C163.721 22.7488 163.707 22.9834 163.689 23.2422C163.654 23.7414 163.636 24.0539 163.636 24.1787C163.636 24.6425 163.601 25.4362 163.529 26.5596C163.476 27.6834 163.449 28.4776 163.449 28.9414L163.455 29.5957C163.484 31.1349 163.617 32.7628 163.851 34.4795C164.1 36.3347 164.35 38.1812 164.6 40.0186C164.834 42.0421 165.922 43.1167 167.865 43.2432L168.266 43.2559C169.252 43.2558 170.09 42.9658 170.778 42.3857L170.914 42.2666C171.628 41.6066 171.984 40.7763 171.984 39.7773C171.984 38.4039 171.788 36.6205 171.396 34.4268C171.068 32.507 170.884 30.8941 170.843 29.5889L170.834 29.0479C170.834 28.7089 170.843 28.1289 170.86 27.3086V25.4092C170.86 21.6453 170.432 18.8176 169.576 16.9268C168.332 14.1965 166.108 12.7893 162.905 12.7041L162.593 12.6992C159.703 12.6992 156.956 14.0106 154.352 16.6328L154.325 16.3389C154.17 13.6259 152.993 12.2265 150.795 12.1416L150.579 12.1377C149.527 12.1377 148.635 12.4679 147.903 13.1279L147.773 13.25C147.146 13.8729 146.833 14.6525 146.833 15.5889L146.838 16.0293Z" fill="black"/>
<path d="M141.053 21.0479C141.053 18.2651 139.706 16.2136 137.013 14.8936C135.089 13.9571 132.704 13.4599 129.855 13.4014L129.28 13.3955C124.803 13.3955 121.244 15.1253 118.604 18.5859C116.231 21.7076 115.045 25.5251 115.045 30.0381C115.045 34.1229 116.543 37.2895 119.54 39.5371C122.082 41.4435 125.306 42.456 129.212 42.5752L130.003 42.5869C132.803 42.5869 135.452 42.0517 137.949 40.9814C140.835 39.7372 142.323 38.1417 142.413 36.1943L142.418 36.0049C142.418 34.2033 141.49 33.3027 139.635 33.3027C138.743 33.3028 137.557 33.7393 136.076 34.6133C134.417 35.5943 132.393 36.0849 130.003 36.085L129.422 36.0742C128.087 36.0235 126.889 35.7954 125.828 35.3896C124.615 34.9259 123.581 34.2302 122.725 33.3027L131.741 29.3154C134.756 27.9777 136.763 26.9613 137.762 26.2656C139.819 24.8442 140.911 23.2265 141.04 21.4131L141.053 21.0479ZM129.28 19.8701C131.207 19.8701 132.768 20.2099 133.963 20.8877C132.536 21.8153 130.618 22.823 128.21 23.9111C126.212 24.7673 124.205 25.6318 122.189 26.5059C122.903 24.2942 123.848 22.6352 125.025 21.5293C126.203 20.4233 127.621 19.8701 129.28 19.8701ZM145.023 21.3926C144.898 24.8189 142.911 27.4555 140.281 29.3496C141.657 29.4485 143.221 29.8902 144.492 31.125C145.55 32.1525 146.061 33.394 146.271 34.5781C146.27 34.599 146.271 34.62 146.271 34.6406C146.271 35.0567 146.31 35.6519 146.384 36.4268C146.177 40.6345 142.881 43.1863 139.523 44.6338L139.516 44.6367C136.508 45.9256 133.325 46.5634 130.003 46.5635C125.104 46.5635 120.714 45.3879 117.154 42.7178C113.056 39.6439 111.068 35.2435 111.068 30.0381C111.068 28.3664 111.21 26.7502 111.499 25.1973C112.156 24.5156 112.528 23.4722 112.61 22.0645C112.621 21.8907 112.628 21.6013 112.632 21.1963C113.326 19.4109 114.257 17.7334 115.438 16.1797L115.442 16.1738C118.86 11.6947 123.604 9.41895 129.28 9.41895C132.563 9.41897 135.598 9.91023 138.232 11.0762L138.754 11.3184L138.763 11.3232C140.607 12.2272 142.224 13.4997 143.367 15.2402C144.521 16.9982 145.029 18.9882 145.029 21.0479L145.023 21.3926Z" fill="black"/>
<path d="M85.7031 39.6172V22.0908C85.7031 21.4707 85.7228 20.5973 85.7588 19.499C85.7657 19.2859 85.77 19.0847 85.7754 18.8955C85.8102 18.864 85.8459 18.8329 85.8799 18.7998C86.5755 18.122 86.9238 17.2745 86.9238 16.2578C86.9238 15.4041 86.7372 14.7038 86.3672 14.1553C86.6735 13.3915 87.1133 12.6661 87.7021 12.0059L87.7061 12.001C89.2272 10.301 91.2662 9.65918 93.2383 9.65918L93.5537 9.66504C95.0826 9.71644 96.6886 10.1517 98.0547 11.2656C100.917 9.88222 104.006 9.1778 107.285 9.17773C110.035 9.17773 112.679 10.152 114.478 12.5439C116.115 14.7224 116.613 17.5152 116.613 20.2715C116.613 20.979 116.608 21.5854 116.592 22.0205C115.95 23.4965 115.507 25.0894 115.265 26.7998C115.045 27.1496 114.794 27.4883 114.503 27.8086C112.944 29.5247 110.862 30.1348 108.891 30.1348C107.122 30.1347 105.072 29.6717 103.507 28.0566C102.798 27.3256 102.329 26.4986 102.025 25.6504C101.538 26.0843 101.116 26.5928 100.749 27.1807L100.773 39.6094V39.6172L100.765 39.9971C100.678 41.871 99.945 43.616 98.5273 44.9795L98.5283 44.9805C98.524 44.9847 98.5189 44.988 98.5146 44.9922C98.5062 45.0002 98.4987 45.0095 98.4902 45.0176L98.4893 45.0156C96.9783 46.4682 95.0795 47.1259 93.1045 47.126C91.0909 47.126 89.0604 46.4363 87.5645 44.7188L87.5635 44.7207C87.5515 44.7072 87.5402 44.6932 87.5283 44.6797C87.521 44.6711 87.5132 44.6629 87.5059 44.6543V44.6533C86.227 43.1793 85.7031 41.3949 85.7031 39.6172ZM89.7734 18.1777C89.7645 18.5925 89.7512 19.0768 89.7334 19.6299C89.6977 20.7176 89.6797 21.5379 89.6797 22.0908V39.6172L89.6924 39.9834C89.7548 40.8185 90.0366 41.5172 90.5361 42.0791C91.1046 42.7477 91.8923 43.1026 92.8994 43.1445L93.1045 43.1494C94.1745 43.1494 95.0573 42.8104 95.7529 42.1328C96.4052 41.514 96.7522 40.738 96.793 39.8057L96.7969 39.6172L96.7705 26.1582C98.5008 22.68 101.372 20.6197 105.386 19.9775L105.52 22.6797C105.52 24.9985 106.643 26.1581 108.891 26.1582C111.065 26.1582 112.29 24.9591 112.567 22.5605L112.61 22.0645C112.628 21.779 112.637 21.1811 112.637 20.2715C112.637 15.5268 110.853 13.1543 107.285 13.1543C103.432 13.1544 99.9277 14.3321 96.7705 16.6865C96.4193 14.7799 95.3621 13.7665 93.5996 13.6475L93.2383 13.6357C92.1326 13.6357 91.2764 13.9748 90.6699 14.6523C90.0813 15.3124 89.7861 16.1427 89.7861 17.1416L89.7734 18.1777Z" fill="black"/>
<path d="M66.25 7.45508C66.25 5.34873 67.08 3.44062 68.6602 2.01465L68.9453 1.76855C70.3924 0.579852 72.1309 6.58319e-05 73.9727 0C76.6576 0 78.9655 1.26215 80.3613 3.61035C81.2395 5.08778 81.6599 6.8317 81.8232 8.63281C83.3994 8.6775 84.9244 8.82737 86.0957 9.24023H86.0967L86.3574 9.33691C87.6576 9.84273 88.8595 10.701 89.7139 12.0039C90.2522 12.8248 90.5714 13.7021 90.7412 14.5752C90.717 14.6004 90.6934 14.6262 90.6699 14.6523C90.0813 15.3124 89.7861 16.1427 89.7861 17.1416C89.7861 17.6946 89.7691 18.5242 89.7334 19.6299C89.7249 19.8881 89.7184 20.1313 89.7119 20.3594C89.415 20.8163 89.0649 21.2493 88.6553 21.6484C87.1382 23.1266 85.222 23.793 83.2305 23.793C82.9126 23.793 82.5624 23.7867 82.1826 23.7764C82.3895 28.7708 82.498 32.2217 82.498 34.0781C82.498 34.2465 82.5055 34.63 82.5234 35.2764C82.5418 35.9191 82.5518 36.4695 82.5518 36.915L82.5479 37.3545C82.5053 39.5578 82.1283 41.812 80.9688 43.6514C79.5374 45.9216 77.2446 47.0459 74.6953 47.0459C72.8438 47.0459 71.0933 46.4524 69.6357 45.2363V45.2373C69.6286 45.2314 69.6214 45.2246 69.6143 45.2188C69.6024 45.2088 69.5899 45.1995 69.5781 45.1895V45.1875C67.9614 43.8389 67 41.9512 67 39.751C67 39.0229 67.029 37.9918 67.083 36.6953C67.136 35.4235 67.1602 34.5279 67.1602 33.9717C67.1602 32.2809 67.0524 28.909 66.835 23.7988C66.8298 23.7983 66.8245 23.7983 66.8193 23.7979L65.2168 23.6387L65.1992 23.6367L65.1826 23.6348C63.5057 23.447 61.6642 22.8534 60.25 21.3828C58.7932 19.8678 58.3038 17.9612 58.3037 16.2051C58.3037 14.2022 59.0252 12.3491 60.4492 10.8877L60.7363 10.6074C62.1983 9.25685 64.0231 8.6426 65.9189 8.64258C66.0258 8.64258 66.1451 8.64374 66.2764 8.64746C66.2593 8.2027 66.25 7.80377 66.25 7.45508ZM70.2266 7.45508C70.2266 8.07941 70.2626 8.96285 70.334 10.1045C70.4053 11.4243 70.4499 12.3697 70.4678 12.9404C68.0953 12.7264 66.579 12.6191 65.9189 12.6191C64.8487 12.6192 63.9747 12.9674 63.2969 13.6631C62.6191 14.3587 62.2803 15.2062 62.2803 16.2051L62.293 16.582C62.4236 18.4153 63.5346 19.4495 65.625 19.6836C67.8724 19.9155 69.5494 20.0578 70.6553 20.1113C70.9764 27.193 71.1367 31.8133 71.1367 33.9717L71.1318 34.5137C71.1218 35.1157 71.0968 35.8983 71.0566 36.8613L70.9961 38.5469C70.9827 39.0285 70.9766 39.4299 70.9766 39.751C70.9766 40.7142 71.3685 41.517 72.1533 42.1592C72.7777 42.6899 73.5047 42.9884 74.334 43.0547L74.6953 43.0693C77.2011 43.0693 78.4931 41.1436 78.5713 37.293L78.5752 36.915C78.5752 36.5226 78.5667 36.014 78.5488 35.3896C78.531 34.7475 78.5215 34.31 78.5215 34.0781C78.5215 32.4191 78.4316 29.3556 78.251 24.8877L78.04 19.9512C79.0033 19.8085 79.8507 19.7363 80.582 19.7363L81.1904 19.75C81.409 19.7589 81.6437 19.7722 81.8936 19.79C82.1519 19.7989 82.3925 19.8061 82.6152 19.8105L83.2305 19.8174C84.3008 19.8174 85.1842 19.4777 85.8799 18.7998C86.5319 18.1644 86.8781 17.3804 86.9189 16.4473L86.9238 16.2578C86.9237 14.5814 86.2099 13.4936 84.7832 12.9941C84.034 12.7266 82.6334 12.5928 80.582 12.5928C79.8864 12.5928 78.9857 12.6725 77.8799 12.833L77.9326 10.6396C77.9326 6.19796 76.6127 3.97656 73.9727 3.97656C72.9382 3.97663 72.0555 4.30689 71.3242 4.9668C70.5929 5.6268 70.2266 6.45616 70.2266 7.45508Z" fill="black"/>
<path d="M47.9482 28.9414C47.9482 28.4997 47.9694 27.8705 48.0029 27.085C47.4279 28.1046 46.91 29.2963 46.4648 30.6816C46.4146 31.2924 46.3376 31.9998 46.2373 32.7881L46.2354 32.7998L46.2344 32.8115C46.1493 33.4496 46.1084 34.0588 46.1084 34.6406L46.1152 34.9102C46.1296 35.2345 46.1677 35.7381 46.2432 36.46C46.3697 37.4784 46.456 38.4146 46.4561 39.1621C46.4561 41.1963 45.7017 43.0822 44.1836 44.5244L44.1846 44.5254C44.1717 44.5379 44.1574 44.5491 44.1445 44.5615C44.1325 44.5728 44.1215 44.5855 44.1094 44.5967L44.1084 44.5957C42.6034 46.0237 40.7197 46.6709 38.7607 46.6709C36.7855 46.6709 34.8861 46.0135 33.375 44.5605V44.5625C33.3664 44.5543 33.3582 44.5453 33.3496 44.5371C33.3455 44.5331 33.341 44.5294 33.3369 44.5254V44.5244C32.4156 43.6381 31.7847 42.5907 31.4316 41.4512C31.7324 40.977 31.8838 40.4373 31.8838 39.8311C31.8836 39.6305 31.5781 38.8535 30.9697 37.499L30.9541 37.3389L30.9531 37.3311C30.8433 36.2877 30.7705 35.3584 30.7705 34.6406C30.7705 32.7673 30.9053 30.2604 31.1582 27.1719C31.4048 24.1601 31.5195 21.9041 31.5195 20.3525C31.5195 20.1544 31.5128 19.8837 31.4971 19.5342L31.4219 18.2393L31.4189 18.2041L31.418 18.1689C31.3639 17.0869 31.332 16.2105 31.332 15.5889C31.3321 13.5148 32.1297 11.6021 33.7188 10.1719C35.2327 8.80736 37.0931 8.16117 39.0547 8.16113C40.9936 8.16113 43.0197 8.75692 44.5605 10.3809C46.5662 9.31821 48.7386 8.72274 51.0684 8.72266C53.3074 8.72266 55.4847 9.19367 57.4023 10.3545C59.2207 11.4553 60.5667 13.0326 61.4912 14.9004L61.6709 15.2783L61.6748 15.2871C62.8836 17.9566 63.3135 21.4663 63.3135 25.4092V27.3525L63.3125 27.3955C63.2947 28.2158 63.2861 28.7567 63.2861 29.0479C63.2861 30.1229 63.4356 31.6696 63.792 33.7568H63.791C64.1993 36.0459 64.4375 38.0779 64.4375 39.7773L64.4277 40.1641C64.3348 42.0857 63.5462 43.8393 62.0908 45.1855C60.5786 46.5843 58.7044 47.2324 56.7412 47.2324C55.0137 47.2324 53.1037 46.8026 51.5469 45.4277C49.9845 44.0478 49.3245 42.1998 49.125 40.4756V40.4746C48.8787 38.662 48.6321 36.8407 48.3857 35.0107V35.0098C48.098 32.8971 47.9483 30.8726 47.9482 28.9414ZM35.3086 15.5889C35.3086 16.1062 35.3352 16.9004 35.3887 17.9707C35.46 19.0232 35.4961 19.8174 35.4961 20.3525L35.4902 21.0254C35.4629 22.6701 35.3396 24.827 35.1211 27.4961C34.8714 30.5464 34.7471 32.9282 34.7471 34.6406L34.7568 35.0635C34.7769 35.5351 34.827 36.1524 34.9072 36.915C35.0142 37.9137 35.0683 38.6627 35.0684 39.1621L35.0723 39.3506C35.113 40.283 35.4591 41.0589 36.1113 41.6777C36.7636 42.3133 37.5809 42.6508 38.5625 42.6904L38.7607 42.6943C39.7641 42.6943 40.6032 42.3966 41.2773 41.8008L41.4092 41.6777C42.1227 41.0177 42.4795 40.1789 42.4795 39.1621C42.4795 38.6627 42.4178 37.9136 42.293 36.915C42.2127 36.1524 42.1617 35.5351 42.1416 35.0635L42.1318 34.6406C42.1318 33.8737 42.186 33.0887 42.293 32.2861C42.4178 31.305 42.4975 30.5193 42.5332 29.9307C43.4251 26.9877 44.656 24.5619 46.2256 22.6533C47.813 20.727 49.4274 19.7639 51.0684 19.7637C51.8354 19.7637 52.2197 20.5038 52.2197 21.9844L52.2061 22.5391C52.1971 22.7488 52.1839 22.9834 52.166 23.2422C52.1304 23.7415 52.1123 24.0539 52.1123 24.1787C52.1123 24.6425 52.0762 25.4361 52.0049 26.5596C51.9514 27.6834 51.9248 28.4776 51.9248 28.9414L51.9316 29.5957C51.9609 31.1349 52.0921 32.7628 52.3262 34.4795C52.5759 36.3346 52.8255 38.1813 53.0752 40.0186C53.3249 42.1769 54.5472 43.2558 56.7412 43.2559C57.7281 43.2559 58.566 42.966 59.2549 42.3857L59.3906 42.2666C60.0596 41.6478 60.4143 40.8796 60.4561 39.9629L60.4609 39.7773C60.4609 38.404 60.2644 36.6204 59.8721 34.4268C59.4975 32.2327 59.3096 30.4392 59.3096 29.0479C59.3096 28.7089 59.3191 28.1289 59.3369 27.3086V25.4092C59.3369 21.6453 58.909 18.8176 58.0527 16.9268C56.7684 14.1085 54.4397 12.6992 51.0684 12.6992C48.1788 12.6994 45.4314 14.0108 42.8271 16.6328L42.8008 16.3389C42.6452 13.6257 41.4686 12.2263 39.2705 12.1416L39.0547 12.1377C38.0023 12.1377 37.1102 12.468 36.3789 13.1279L36.25 13.25C35.6228 13.8729 35.3087 14.6524 35.3086 15.5889Z" fill="black"/>
<path d="M30.0645 18.9072C30.0645 17.4691 28.8808 16.1958 26.5137 15.0869L26.0244 14.8672C23.9338 13.9641 22.0782 13.4841 20.458 13.4277L20.1377 13.4219C15.7139 13.4219 11.9144 14.9563 8.73926 18.0244L8.44629 18.3115C5.46627 21.3043 3.97663 24.8832 3.97656 29.0479L3.98926 29.8945C4.11471 34.0585 5.18076 37.2187 7.1875 39.376C9.21108 41.5333 12.175 42.6797 16.0801 42.8145L16.873 42.8281C17.7471 42.8281 18.8089 42.6232 20.0576 42.2129C21.3062 41.8205 22.7507 41.2311 24.3916 40.4463C26.0637 42.1184 27.313 43.0076 28.1387 43.1123L28.2988 43.1221C29.2441 43.122 30.0737 42.8098 30.7871 42.1855C31.5183 41.5613 31.8838 40.7763 31.8838 39.8311C31.8836 39.6703 31.6879 39.1387 31.2969 38.2363L30.8408 37.209C30.0743 35.5155 29.6633 34.5882 29.6094 34.4268C29.1879 33.1156 28.9511 31.0733 28.8984 28.3008L28.8867 27.0684C28.8867 25.6235 28.9313 24.3652 29.0205 23.2949C29.1275 22.207 29.2709 21.3062 29.4492 20.5928C29.8081 20.1715 30.0098 19.6887 30.0547 19.1445L30.0645 18.9072ZM11.3877 29.2627C11.3877 26.7654 12.2977 24.5705 14.1172 22.6797C15.9366 20.7711 18.0594 19.8174 20.4854 19.8174C20.6815 19.8174 20.9132 19.862 21.1807 19.9512C21.4661 20.0225 21.7878 20.1468 22.1445 20.3252L22.0303 20.9922C21.9232 21.6444 21.8364 22.2515 21.7695 22.8135C21.6982 23.5447 21.6631 24.1959 21.6631 24.7666L21.6748 25.6064C21.7333 27.6824 21.9976 30.5781 22.4658 34.293L22.1348 34.5518C21.3563 35.139 20.5303 35.597 19.6562 35.9248L19.2852 36.0498C18.413 36.323 17.4931 36.46 16.5254 36.46V32.4834C17.1604 32.4834 17.7149 32.3858 18.2139 32.2148C17.872 29.1486 17.6879 26.6545 17.6865 24.7881C17.4566 24.9706 17.2262 25.1814 16.9951 25.4238L16.9893 25.4307L16.9824 25.4375C15.836 26.629 15.3643 27.8499 15.3643 29.2627L15.3691 29.6289C15.4112 31.3647 15.7477 32.1195 15.9131 32.3623C15.9245 32.3775 15.9332 32.3878 15.9385 32.3936C15.9431 32.3986 15.946 32.4013 15.9473 32.4023H15.9463C15.9468 32.4027 15.9497 32.4037 15.9551 32.4062C15.9737 32.4149 16.1297 32.4834 16.5254 32.4834V36.46L16.209 36.4531C14.6539 36.383 13.4745 35.7874 12.6719 34.667C11.8693 33.5298 11.4427 31.875 11.3926 29.7031L11.3877 29.2627ZM34.041 18.9072C34.041 20.0688 33.7493 21.1794 33.1807 22.1699C33.1106 22.5645 33.0411 23.0554 32.9814 23.6553C32.9055 24.5803 32.8633 25.7133 32.8633 27.0684L32.875 28.2607C32.9251 30.7808 33.1339 32.3202 33.3652 33.1104C33.3681 33.117 33.3718 33.1243 33.375 33.1318C33.4227 33.2438 33.4943 33.409 33.5938 33.6338C33.7917 34.0814 34.0806 34.7239 34.4619 35.5664C34.6077 35.8879 34.7407 36.1907 34.8633 36.4707C34.877 36.6128 34.891 36.7611 34.9072 36.915C35.0142 37.9137 35.0683 38.6627 35.0684 39.1621C35.0684 39.9665 35.2863 40.6591 35.7217 41.2402C35.4189 42.7748 34.6199 44.1269 33.4043 45.1777L33.4053 45.1787C33.3985 45.1847 33.3906 45.1894 33.3838 45.1953C33.3786 45.1998 33.3744 45.2055 33.3691 45.21L33.3682 45.209C31.9388 46.4451 30.1943 47.0986 28.2988 47.0986C26.6313 47.0986 25.2558 46.2801 24.459 45.7344C24.1905 45.5504 23.9205 45.3472 23.6475 45.1299C22.8295 45.465 22.0453 45.7526 21.2979 45.9893L21.2988 45.9902C21.2899 45.9932 21.2804 45.9951 21.2715 45.998C21.2642 46.0003 21.2573 46.0036 21.25 46.0059L21.249 46.0049C19.796 46.4787 18.3081 46.8047 16.873 46.8047C12.0437 46.8047 7.71739 45.5405 4.58594 42.4062L4.28711 42.0967L4.27539 42.085C1.19291 38.7713 0 34.1816 0 29.0479C7.53648e-05 23.6375 2.05005 18.9359 5.98438 15.1562C9.90101 11.3756 14.689 9.44531 20.1377 9.44531C22.5562 9.44534 25.0731 10.1245 27.6016 11.2168H27.6006C30.3934 12.4197 34.041 14.7042 34.041 18.9072Z" fill="black"/>
</svg>
