<svg width="152" height="90" viewBox="0 0 152 90" fill="none" xmlns="http://www.w3.org/2000/svg">
<g clip-path="url(#clip0_952_514)">
<rect width="152" height="90" rx="23" fill="white"/>
<path d="M87.8267 24.2529H64.7217V65.7687H87.8267V24.2529Z" fill="#FF5F00"/>
<path d="M66.1886 45.0105C66.1886 36.9421 69.9294 29.2404 76.2375 24.2526C64.795 15.2307 48.1447 17.2111 39.1227 28.7269C30.1741 40.1694 32.1545 56.7464 43.6704 65.7684C53.2791 73.3233 66.7021 73.3233 76.3108 65.7684C69.9294 60.7806 66.1886 53.0789 66.1886 45.0105Z" fill="#EB001B"/>
<path d="M119 45.0105C119 59.607 107.191 71.4163 92.5941 71.4163C86.6528 71.4163 80.9316 69.4358 76.3105 65.7684C87.753 56.7464 89.7335 40.1694 80.7115 28.6536C79.3912 27.0399 77.9242 25.4996 76.3105 24.2526C87.753 15.2307 104.403 17.2111 113.352 28.7269C117.019 33.348 119 39.0692 119 45.0105Z" fill="#F79E1B"/>
</g>
<rect x="1" y="1" width="150" height="88" rx="22" stroke="#A1A1A1" stroke-width="2"/>
<defs>
<clipPath id="clip0_952_514">
<rect width="152" height="90" rx="23" fill="white"/>
</clipPath>
</defs>
</svg>
